<svg xmlns="http://www.w3.org/2000/svg" width="200" height="400"><path fill="none" stroke="#000" stroke-width="3" d="M70 80q30-30 60 0l-10 180q0 20-20 40-20-20-20-40Z"/><path fill="#EFE4D4" stroke="#000" d="M80 130q20-20 40 0l-5 120q0 20-15 30-15-10-15-30Z"/><circle cx="100" cy="95" r="20" fill="#FDF5E6" stroke="#000" stroke-width="2"/><path fill="none" stroke="#000" stroke-width="2" d="M80 100q10-20 20-15 10-5 20 15"/><path fill="#fff" stroke="#000" stroke-width="2" d="M85 85q5-20 15-15 10-5 15 15"/><path stroke="#000" stroke-width="3" d="m110 70 30-40M100 300v40"/><ellipse cx="100" cy="350" fill="none" stroke="#000" stroke-width="3" rx="30" ry="10"/></svg>