<svg xmlns="http://www.w3.org/2000/svg" xml:space="preserve" width="200mm" height="200mm" viewBox="0 0 200 200"><path d="M-132.026 256.669c-3.707 0-7.33-.141-10.789-.484-3.748-.37-7.314-1.065-10.653-1.792-3.784-.818-7.216-2.01-10.31-3.217-3.817-1.485-7.055-3.161-9.519-5.108-3.462-2.738-5.293-5.825-5.293-9.14 0-3.313 1.894-6.315 5.356-9.053 2.463-1.947 5.587-3.866 9.48-5.13 7.583-2.458 3.115-1.298 10.338-3.026 3.324-.798 6.872-1.475 10.62-1.849 1.384-.134 2.79-.26 4.219-.363a39 39 0 0 1-.696 5.394c-.727 3.616-2.018 8.424-4.04 10.809-.654.772-.599 1.908.126 2.586 1.533 1.429 4.914 3.8 10.47 3.8h.267c5.98-.082 10.2-1.814 11.73-3.493.445-.49.653-.974.615-1.436-.037-.466-.376-1.175-1.137-2.734-1.456-2.978-3.893-7.962-4.494-13.035a15 15 0 0 1-.095-1.789l.001-.176q2.33.133 4.582.356c3.749.37 7.367.74 10.706 1.468 3.786.818 7.275 1.94 10.369 3.146 3.817 1.49 6.858 3.57 9.32 5.518 3.464 2.737 5.493 5.694 5.493 9.006 0 3.316-1.99 6.322-5.454 9.06-2.463 1.947-5.497 4.099-9.314 5.588-3.093 1.203-6.653 2.084-10.438 2.906-3.339.724-6.96.935-10.708 1.31-3.458.341-7.045.878-10.752.878" style="fill:#fafdfd;fill-opacity:1;fill-rule:nonzero;stroke:none;stroke-width:.0352778" transform="translate(195.408 7.348)scale(.71913)"/><path d="M-132.026 217.976c-3.979 0-7.807.332-10.698.617-3.3.325-6.743.925-10.524 1.828-.943.226-1.688.405-2.286.547-2.398.568-2.398.568-3.51.96-.72.253-1.923.676-4.487 1.509-3.287 1.065-6.4 2.752-9.254 5.006-3.371 2.667-5.08 5.52-5.08 8.484 0 3.055 1.688 5.937 5.018 8.573 2.292 1.81 5.345 3.446 9.332 5.002 3.885 1.514 7.03 2.498 10.2 3.186 3.064.663 6.716 1.393 10.572 1.778 3.251.32 6.757.476 10.717.476 2.755 0 5.47-.303 8.096-.596q1.304-.15 2.584-.279a333 333 0 0 1 2.394-.222c2.907-.265 5.652-.512 8.233-1.073 3.296-.716 7.102-1.615 10.327-2.875 3.845-1.5 6.9-3.715 9.13-5.478 3.436-2.717 5.179-5.574 5.179-8.492 0-2.903-1.708-5.662-5.218-8.438-1.98-1.567-5.084-3.831-9.133-5.412a68 68 0 0 0-10.261-3.115c-3.398-.737-7.237-1.115-10.624-1.45a108 108 0 0 0-10.707-.536m0 39.416c-4.008 0-7.56-.159-10.86-.487-3.929-.388-7.632-1.129-10.735-1.803-3.248-.705-6.462-1.707-10.42-3.249-4.124-1.608-7.299-3.316-9.705-5.217-3.696-2.921-5.57-6.188-5.57-9.709 0-3.429 1.896-6.667 5.633-9.62 2.988-2.364 6.254-4.131 9.705-5.25 2.547-.825 3.74-1.245 4.452-1.495 1.185-.42 1.231-.43 3.658-1.006.597-.14 1.34-.317 2.283-.543 3.846-.92 7.352-1.53 10.718-1.862 2.924-.29 6.8-.621 10.841-.621 3.577 0 7.227.18 10.85.54 3.426.338 7.308.723 10.788 1.478a69.4 69.4 0 0 1 10.48 3.182c4.233 1.647 7.453 3.997 9.507 5.623 3.88 3.065 5.767 6.198 5.767 9.574 0 3.383-1.93 6.622-5.729 9.628-2.31 1.827-5.478 4.124-9.5 5.693-3.32 1.295-7.197 2.212-10.55 2.939-2.667.579-5.455.833-8.408 1.1-.787.071-1.582.142-2.382.223-.848.085-1.703.18-2.566.275-2.665.3-5.421.607-8.257.607" style="fill:#211d1d;fill-opacity:1;fill-rule:nonzero;stroke:none;stroke-width:.0352778" transform="translate(195.408 7.348)scale(.71913)"/><path d="m-126.556 217.606.106-17.967c-1.56.264-3.158.42-4.799.44a30.4 30.4 0 0 1-6.477-.62l-.056 15.794a40 40 0 0 1-.78 7.789c-.745 3.7-2.077 8.636-4.197 11.137-.396.466-.38 1.168.066 1.584 1.409 1.316 4.718 3.683 10.233 3.605 7.622-.102 11.734-2.9 11.634-4.141-.096-1.185-4.755-8.365-5.63-15.745a15 15 0 0 1-.1-1.876" style="fill:#fff;fill-opacity:1;fill-rule:nonzero;stroke:none;stroke-width:.0352778" transform="translate(195.408 7.348)scale(.71913)"/><path d="m-137.004 200.334-.053 14.919a41 41 0 0 1-.795 7.934c-.761 3.781-2.134 8.84-4.355 11.461-.15.177-.147.441.01.586 1.396 1.305 4.528 3.471 9.728 3.411 7.153-.099 10.797-2.631 10.92-3.386-.036-.23-.524-1.225-.995-2.188-1.496-3.062-4.001-8.184-4.631-13.504-.074-.62-.109-1.28-.105-1.965l.1-17.113a31.2 31.2 0 0 1-9.824-.155m4.287 39.761c-5.556 0-8.937-2.37-10.47-3.8-.725-.677-.78-1.813-.125-2.585 2.02-2.385 3.312-7.193 4.04-10.81.499-2.48.756-5.055.766-7.651l.059-16.68.868.18c2.063.427 4.191.629 6.323.604a30.4 30.4 0 0 0 4.685-.427l.851-.145-.11 18.828a14 14 0 0 0 .094 1.789c.6 5.073 3.038 10.057 4.494 13.035.761 1.56 1.1 2.268 1.138 2.734.037.462-.17.945-.616 1.436-1.53 1.679-5.749 3.411-11.73 3.492z" style="fill:#211d1d;fill-opacity:1;fill-rule:nonzero;stroke:none;stroke-width:.0352778" transform="translate(195.408 7.348)scale(.71913)"/><path d="M-167.616 73.722c.03-.935.019-1.694-.04-2.255l-.016-.165-.085-.138c-.945-1.545-.726-3.672.52-5.062 6.068-6.76 14.634-8.93 35.257-8.93h.279c2.74 0 5.377 0 7.91.04l-1.542 7.366c-1.945-.018-3.947-.018-6.006-.018h-.14c-20.881 0-29.755 2.233-36.137 9.162m74.265-1.838c-.24-.247-.5-.473-.79-.67a29 29 0 0 0-3.291-1.99c-1.51-2.52-3.218-5.073-4.198-6.403a.77.77 0 0 0-.621-.307h-.042l-.082.007.37-1.108q.18-.546.385-1.083a28.7 28.7 0 0 1 6.132 3.232c1.368.956 2.042 2.709 1.686 4.364l-.028.123.017.12c.085.691.247 1.965.463 3.715m-17.13-6.488c-2.274-.307-4.647-.5-7.124-.624l1.531-7.264c2.777.194 5.411.501 7.906.984q-.176.488-.339.981z" style="fill:#fbfcfc;fill-opacity:1;fill-rule:nonzero;stroke:none;stroke-width:.0352778" transform="translate(195.408 7.348)scale(.71913)"/><path d="M-131.98 57.173c-20.623 0-29.189 2.17-35.256 8.929-1.247 1.39-1.466 3.517-.521 5.062l.085.138.017.165c.386 3.733-1.311 16.359-3.278 30.978-2.288 17.018-4.882 36.304-4.367 43.656 1.031 14.736 16.021 53.255 43.692 53.255q.175.001.351-.004c15.525-.18 26.512-12.005 32.996-21.89 7.62-11.623 11.86-25.117 11.984-31.912.268-15.007-6.739-71.039-7.536-77.382l-.017-.12.028-.123c.356-1.654-.318-3.408-1.687-4.364-9.13-6.371-21.085-6.389-36.212-6.389zm.364 143.634c-15.884 0-26.756-11.846-33.095-21.83-7.187-11.32-11.495-25.054-12.035-32.773-.525-7.5 2.08-26.868 4.377-43.953 1.847-13.73 3.592-26.708 3.286-30.48-1.188-2.092-.883-4.797.768-6.635 6.394-7.127 15.225-9.413 36.335-9.413h.279c15.383 0 27.538.022 37.042 6.654 1.806 1.26 2.72 3.549 2.3 5.732.867 6.894 7.8 62.45 7.528 77.467-.127 7.175-4.364 20.704-12.22 32.681-6.675 10.181-18.026 22.356-34.189 22.546q-.189.005-.376.004" style="fill:#211d1d;fill-opacity:1;fill-rule:nonzero;stroke:none;stroke-width:.0352778" transform="translate(195.408 7.348)scale(.71913)"/><path d="M-167.303 74.455c-1.624 1.81-1.768 4.625-.2 6.488 5.577 6.625 20.614 11.335 36.023 11.26 17.85-.091 35.385-4.536 38.771-14.78.685-2.079-.084-4.39-1.845-5.617-9.38-6.54-21.673-6.52-36.926-6.52-20.177 0-29.368 1.983-35.823 9.17" style="fill:#fff;fill-opacity:1;fill-rule:nonzero;stroke:none;stroke-width:.0352778" transform="translate(195.408 7.348)scale(.71913)"/><path d="m-167.303 74.455.54.487c-1.403 1.56-1.484 3.994-.186 5.535 5.43 6.45 20.344 11.067 35.466 11 16.157-.081 34.647-3.877 38.086-14.284.583-1.767-.063-3.74-1.573-4.79-9.162-6.393-21.169-6.393-36.369-6.393h-.14c-20.64 0-29.213 2.17-35.285 8.932zm35.437 18.472c-15.621 0-30.464-4.713-36.192-11.518-1.783-2.117-1.69-5.313.216-7.437 6.399-7.126 15.234-9.412 36.362-9.412h.141c15.455 0 27.663 0 37.198 6.653 2.032 1.415 2.903 4.064 2.12 6.435-3.68 11.137-22.794 15.194-39.455 15.279z" style="fill:#211d1d;fill-opacity:1;fill-rule:nonzero;stroke:none;stroke-width:.0352778" transform="translate(195.408 7.348)scale(.71913)"/><path d="M-168.585 77.447c-.105 1.238.249 2.505 1.096 3.496 5.65 6.625 20.884 11.335 36.496 11.257 17.816-.088 35.31-4.406 39.106-14.333 2.237 18.464 6.544 55.781 6.333 67.694-.247 13.776-16.792 54.18-45.695 54.519-28.9.338-43.776-39.677-44.774-53.93-.83-11.853 6.243-53.692 7.508-69.514.255-3.197.02-.272-.07.811" style="fill:#ce5e1d;fill-opacity:1;fill-rule:nonzero;stroke:none;stroke-width:.0352778" transform="translate(195.408 7.348)scale(.71913)"/><path d="M-168.225 81.183c-.624 5.768-1.643 13.345-2.708 21.262-2.288 17.018-4.882 36.304-4.367 43.656 1.031 14.736 16.021 53.255 43.692 53.255q.175.001.351-.004c15.525-.18 26.512-12.005 32.996-21.89 7.62-11.623 11.86-25.117 11.984-31.912.197-11.218-3.57-44.668-6.044-65.214-5.736 9.12-23.324 12.513-38.669 12.59h-.395c-15.822 0-30.854-4.713-36.655-11.514a5 5 0 0 1-.185-.23m36.61 119.624c-15.885 0-26.756-11.846-33.096-21.83-7.187-11.32-11.494-25.054-12.035-32.773-.525-7.5 2.08-26.868 4.377-43.953 1.296-9.641 2.525-18.775 3.05-24.719l.011-.144c.039-.46.103-1.246.145-1.757l.017-.205.023-.29h.015c.074-.401.246-.712.767-.673.536.042.642.445.65.787l.013.003-.017.201-.008.117-.09 1.122q-.036.458-.08.945a4 4 0 0 0 .936 2.836c5.458 6.4 20.374 11.003 35.567 11.003h.373c16.047-.08 34.57-3.764 38.433-13.867l1.044-2.734.353 2.903c2.455 20.278 6.548 56.05 6.336 67.797-.127 7.175-4.364 20.704-12.22 32.681-6.675 10.181-18.026 22.356-34.189 22.546q-.189.005-.376.004" style="fill:#211d1d;fill-opacity:1;fill-rule:nonzero;stroke:none;stroke-width:.0352778" transform="translate(195.408 7.348)scale(.71913)"/><path d="M-156.4 75.418c4.456-14.866 8.253-25.417 10.925-39.758 0 0-32.415 3.239-37.834 9.427-.677.772-.922 1.824-.833 3.069.628 8.71 16.539 24.109 16.539 24.109s-1.161-4.163 4.848-9.208c2.569 3.987 4.628 7.532 5.512 12.312a.432.432 0 0 0 .843.05" style="fill:#eee779;fill-opacity:1;fill-rule:nonzero;stroke:none;stroke-width:.0352778" transform="translate(195.408 7.348)scale(.71913)"/><path d="m-162.591 61.974.445.692c2.332 3.62 4.358 7.01 5.382 11.447.901-2.984 1.772-5.792 2.617-8.516 3.076-9.923 5.746-18.531 7.778-29.115-5.4.6-31.737 3.765-36.395 9.08-.52.597-.735 1.426-.655 2.54.5 6.926 11.316 18.55 15.06 22.378.236-1.835 1.304-4.756 5.138-7.977zm5.781 14.486h-.066a1.16 1.16 0 0 1-1.08-.96c-.822-4.445-2.712-7.818-4.956-11.342-4.832 4.374-4.03 7.772-3.991 7.92l.64 2.487-1.844-1.778c-.658-.639-16.117-15.695-16.757-24.582-.108-1.496.232-2.706 1.01-3.595 5.543-6.328 36.971-9.539 38.307-9.673l.961-.095-.177.949c-2.07 11.109-4.818 19.97-8 30.233-.947 3.055-1.926 6.212-2.943 9.603-.15.504-.59.832-1.104.832" style="fill:#211d1d;fill-opacity:1;fill-rule:nonzero;stroke:none;stroke-width:.0352778" transform="translate(195.408 7.348)scale(.71913)"/><path d="M-180.172 45.38c2.962-.84 5.799-.685 5.799-.685s.832-2.237 4.658-3.489c3.267-1.069 5.798.543 5.798.543s3.533-2.928 5.775-3.365c3.778-.737 6.583.614 6.583.614s1.354-2.53 6.084-3.338l.285-.687s-3.876-3.327-6.728-1.856c-2.353-.882-6.467-.907-8.84 1.767-1.57-.956-6.384.37-9.29 3.278 0 0-4.99.345-6.987 1.524-1.996 1.178-4.658 4.025-4.658 4.025s-3.66.296-4.468 2.603c-.276.79 1.711 3.094 1.711 3.094s1.854-3.34 4.278-4.029" style="fill:#793919;fill-opacity:1;fill-rule:nonzero;stroke:none;stroke-width:.0352778" transform="translate(195.408 7.348)scale(.71913)"/><path d="M-185.472 46.508c.023.268.426.96.956 1.673.772-1.115 2.283-2.957 4.15-3.486 2.36-.67 4.617-.737 5.566-.727.483-.804 1.795-2.434 4.863-3.44a8.05 8.05 0 0 1 5.941.368c.998-.784 3.75-2.83 5.718-3.214 3-.582 5.412.067 6.463.444.663-.815 2.293-2.342 5.588-3.051-1.098-.78-3.554-2.258-5.364-1.323l-.282.145-.296-.11c-1.931-.727-5.826-.942-8.056 1.574l-.396.444-.51-.31c-1.086-.664-5.485.243-8.412 3.171l-.19.19-.266.018c-1.342.095-5.157.53-6.673 1.425-1.886 1.115-4.473 3.874-4.5 3.899l-.188.204-.275.021c-.882.075-3.275.593-3.837 2.085m1.15 4.138-.668-.772c-1.03-1.193-2.185-2.822-1.844-3.796.815-2.328 3.851-2.918 4.802-3.045.648-.677 2.858-2.913 4.634-3.961 1.866-1.104 5.949-1.51 7.037-1.602 2.688-2.554 7.166-4.141 9.429-3.436 2.636-2.565 6.646-2.455 8.976-1.686 3.193-1.337 7.063 1.937 7.23 2.081l.394.339-.635 1.527-.388.067c-4.275.734-5.527 2.886-5.578 2.978l-.328.586-.608-.286c-.024-.01-2.657-1.231-6.136-.554-1.693.328-4.513 2.43-5.456 3.21l-.4.332-.439-.279c-.09-.056-2.307-1.407-5.193-.462-3.404 1.111-4.204 3.037-4.211 3.055l-.183.494-.524-.028c-.028-.004-2.762-.134-5.566.66-2.106.6-3.832 3.658-3.848 3.686z" style="fill:#211d1d;fill-opacity:1;fill-rule:nonzero;stroke:none;stroke-width:.0352778" transform="translate(195.408 7.348)scale(.71913)"/><path d="M-165.2 59.374s2.225 3.158 3.92 5.97c1.685 2.786 1.852 3.361 1.852 3.361z" style="fill:#eee779;fill-opacity:1;fill-rule:nonzero;stroke:none;stroke-width:.0352778" transform="translate(195.408 7.348)scale(.71913)"/><path d="M-159.428 69.428a.724.724 0 0 1-.696-.522c-.002-.003-.232-.635-1.775-3.189-1.663-2.755-3.871-5.891-3.894-5.923a.724.724 0 0 1 .175-1.009.72.72 0 0 1 1.01.173c.023.032 2.26 3.21 3.95 6.008 1.608 2.667 1.88 3.383 1.926 3.538a.722.722 0 0 1-.696.924" style="fill:#211d1d;fill-opacity:1;fill-rule:nonzero;stroke:none;stroke-width:.0352778" transform="translate(195.408 7.348)scale(.71913)"/><path d="M-156.363 41.453c-1.14-.081-1.902.445-2.379 2.177-.003 5.457 7.67-1.796 2.379-2.177" style="fill:#c99c7b;fill-opacity:1;fill-rule:nonzero;stroke:none;stroke-width:.0352778" transform="translate(195.408 7.348)scale(.71913)"/><path d="M-158.027 43.725c.01.571.118 1.206.55 1.217.839.021 2.219-1.277 2.26-2.138.018-.363-.385-.578-1.197-.638-.6-.046-1.175.046-1.613 1.559m.566 2.646h-.05c-.457-.01-1.946-.244-1.945-2.741v-.096l.026-.095c.339-1.227 1.033-2.85 3.118-2.695 2.426.173 2.543 1.672 2.521 2.13-.078 1.624-2.054 3.497-3.67 3.497" style="fill:#211d1d;fill-opacity:1;fill-rule:nonzero;stroke:none;stroke-width:.0352778" transform="translate(195.408 7.348)scale(.71913)"/><path d="M-168.588 44.258c-.958-.074-3.262-.586-3.047 1.908.362 4.184 7.795-1.541 3.047-1.908" style="fill:#c99c7b;fill-opacity:1;fill-rule:nonzero;stroke:none;stroke-width:.0352778" transform="translate(195.408 7.348)scale(.71913)"/><path d="M-169.8 44.879c-.372 0-.732.052-.922.24-.218.215-.23.652-.202.984q.06.677.405.822c.473.19 1.443-.163 2.163-.79.533-.463.652-.833.633-.907 0 0-.147-.198-.92-.258q-.148-.012-.332-.032a7 7 0 0 0-.825-.06m-.416 3.524c-1.218 0-2.012-.808-2.13-2.177-.08-.928.13-1.644.625-2.127.82-.804 2.12-.663 2.898-.582l.29.028c2.052.159 2.249 1.263 2.238 1.732-.033 1.489-2.257 3.073-3.831 3.122z" style="fill:#211d1d;fill-opacity:1;fill-rule:nonzero;stroke:none;stroke-width:.0352778" transform="translate(195.408 7.348)scale(.71913)"/><path d="m-105.423 3.473-36.45 172.886c-.207 1.383-.98 3.02-3.931 3.108-.758.024-2.672-.921-2.201-3.112l36.612-174.794c.436-2.029 6.443-.275 5.97 1.912" style="fill:#d1e8e8;fill-opacity:1;fill-rule:nonzero;stroke:none;stroke-width:.0352778" transform="translate(195.408 7.348)scale(.71913)"/><path d="M-109.734 1.388a2.1 2.1 0 0 0-.646.085c-.272.088-.296.197-.305.24l-36.61 174.79c-.138.639-.03 1.172.32 1.591.386.466.957.653 1.15.65 2.576-.078 3.08-1.457 3.236-2.491l.007-.042 36.454-172.89c.06-.282-.19-.582-.41-.78-.74-.67-2.17-1.153-3.196-1.153m-36.094 178.806c-.647 0-1.617-.396-2.261-1.172-.446-.536-.917-1.46-.624-2.818l36.61-174.791c.136-.632.59-1.097 1.279-1.32 1.443-.465 3.948.19 5.257 1.373.712.645 1.016 1.41.853 2.159l-36.445 172.864c-.361 2.343-1.959 3.623-4.624 3.705z" style="fill:#211d1d;fill-opacity:1;fill-rule:nonzero;stroke:none;stroke-width:.0352778" transform="translate(195.408 7.348)scale(.71913)"/><path d="M-111.351 1.628c.16-.974 1.642-1.482 3.307-1.132 1.665.349 2.886 1.421 2.727 2.398-.162.974-1.644 1.482-3.309 1.133-1.666-.35-2.887-1.422-2.725-2.399" style="fill:#389f9f;fill-opacity:1;fill-rule:nonzero;stroke:none;stroke-width:.0352778" transform="translate(195.408 7.348)scale(.71913)"/><path d="M-111.351 1.628h.002zm2.273-.639c-.56 0-1.059.117-1.381.34-.173.116-.273.253-.297.398-.093.564.85 1.414 2.254 1.707.903.19 1.802.095 2.293-.24q.258-.175.296-.398c.092-.565-.85-1.415-2.254-1.708a4.3 4.3 0 0 0-.91-.099m1.486 3.75c-.374 0-.762-.038-1.157-.123-2.01-.42-3.415-1.774-3.198-3.083.079-.48.357-.893.806-1.2.77-.529 1.975-.688 3.22-.427 2.011.42 3.416 1.775 3.197 3.087-.078.476-.357.893-.805 1.2-.525.36-1.255.546-2.063.546" style="fill:#211d1d;fill-opacity:1;fill-rule:nonzero;stroke:none;stroke-width:.0352778" transform="translate(195.408 7.348)scale(.71913)"/><path d="M-112.451 68.762c-.004-.276-.181-.523-.414-.572-3.287-.702-9.25-2.607-9.988-2.321-.535.208-7.336 3.464-9.694 5.503-.117.099-.089.318.052.399 2.58 1.457 5.382 3.111 8.07 2.706l.088-.022 11.608-4.17c.178-.063.295-.257.292-.483z" style="fill:#fff;fill-opacity:1;fill-rule:nonzero;stroke:none;stroke-width:.0352778" transform="translate(195.408 7.348)scale(.71913)"/><path d="M-131.79 71.503c2.426 1.372 4.929 2.755 7.278 2.399l11.494-4.131-.013-1.002-.003-.022c-1.26-.271-2.891-.712-4.468-1.135-1.96-.53-4.634-1.256-5.168-1.193-.668.279-6.618 3.154-9.12 5.084m6.525 3.616c-2.49 0-4.999-1.422-7.241-2.689l-.274-.155a.84.84 0 0 1-.416-.649.81.81 0 0 1 .27-.695c2.426-2.099 9.205-5.348 9.863-5.602.55-.215 1.811.07 5.862 1.164 1.583.427 3.22.868 4.457 1.13.498.108.865.581.872 1.128l.014 1.044c.007.473-.265.89-.676 1.034l-11.606 4.17a.8.8 0 0 1-.2.05q-.462.071-.925.07" style="fill:#211d1d;fill-opacity:1;fill-rule:nonzero;stroke:none;stroke-width:.0352778" transform="translate(195.408 7.348)scale(.71913)"/><path d="M-116.43 88.19c3.168-1.282 9.004-5 9.406-5.698.582-1.02.624-1.711.137-2.9l-3.403-8.301c-.496-1.21-1.103-2.544-2.168-3.016-.87-.388-1.792-.074-2.633.243q-4 1.499-8.002 3.002c-.588.219-1.21.466-1.57 1.041-.533.85-.317 2.088-.03 3.168.008.035.019.063.033.099.36.808 5.093 12.202 8.23 12.361" style="fill:#bae7e0;fill-opacity:1;fill-rule:nonzero;stroke:none;stroke-width:.0352778" transform="translate(195.408 7.348)scale(.71913)"/><path d="M-113.335 68.673c-.476 0-.993.177-1.552.385l-8.002 3.002c-.575.219-1.034.413-1.284.811-.423.674-.201 1.803.04 2.71l.102.24c3.597 8.346 6.216 11.539 7.518 11.775 3.256-1.35 8.575-4.836 8.995-5.408.487-.853.508-1.365.095-2.377l-3.404-8.301c-.455-1.112-1.012-2.325-1.867-2.706a1.5 1.5 0 0 0-.64-.13m-2.996 20.102-.127-.007c-2.75-.138-6.216-6.869-8.638-12.489l-.094-.218a1 1 0 0 1-.064-.184c-.301-1.132-.562-2.568.1-3.623.476-.758 1.275-1.058 1.857-1.277l8.003-3.002c.774-.293 1.943-.73 3.071-.23 1.247.554 1.903 1.948 2.468 3.327l3.404 8.301c.547 1.337.505 2.23-.172 3.404-.554.967-6.71 4.745-9.69 5.948z" style="fill:#211d1d;fill-opacity:1;fill-rule:nonzero;stroke:none;stroke-width:.0352778" transform="translate(195.408 7.348)scale(.71913)"/><path d="M-132.516 71.608c-.144-.003-.242.149-.201.314.88 3.63 1.93 11.039 4.163 13.533 1.933 2.163 9.943 2.54 11.626 2.596.147.004.233-.169.164-.328l-6.782-15.42c-.11-.246-.327-.412-.558-.42z" style="fill:#ecf9f7;fill-opacity:1;fill-rule:nonzero;stroke:none;stroke-width:.0352778" transform="translate(195.408 7.348)scale(.71913)"/><path d="M-132.536 72.187h.001zm.48.018c.164.712.334 1.538.513 2.406.75 3.637 1.776 8.622 3.42 10.46 1.316 1.47 6.398 2.187 10.604 2.377l-6.558-14.908c-.023-.053-.054-.078-.06-.078zm14.761 15.751h.004zm.373.674h-.025c-2.308-.078-9.998-.504-12.04-2.787-1.852-2.07-2.872-7.02-3.691-11a91 91 0 0 0-.603-2.786.86.86 0 0 1 .16-.741.76.76 0 0 1 .624-.286l8.412.275c.451.014.871.314 1.07.766l6.782 15.42a.85.85 0 0 1-.066.807.75.75 0 0 1-.623.332" style="fill:#211d1d;fill-opacity:1;fill-rule:nonzero;stroke:none;stroke-width:.0352778" transform="translate(195.408 7.348)scale(.71913)"/><path d="M-112.481 89.392c.112-.219-.018-.497-.287-.593-3.69-1.301-9.572-2.522-13.11-2.046-3.087.42-8.325 6.064-9.472 7.342-.103.112-.013.292.158.328l18.29 3.517z" style="fill:#fff;fill-opacity:1;fill-rule:nonzero;stroke:none;stroke-width:.0352778" transform="translate(195.408 7.348)scale(.71913)"/><path d="m-134.456 93.971 17.239 3.316 4.13-7.987c-3.735-1.294-9.41-2.416-12.713-1.972-2.131.29-5.887 3.652-8.655 6.643m17.87 4.618-18.716-3.598a.83.83 0 0 1-.632-.544.74.74 0 0 1 .152-.74c1.49-1.659 6.603-7.091 9.825-7.525 3.559-.484 9.425.677 13.38 2.07.298.103.534.329.646.61a.96.96 0 0 1-.036.795z" style="fill:#211d1d;fill-opacity:1;fill-rule:nonzero;stroke:none;stroke-width:.0352778" transform="translate(195.408 7.348)scale(.71913)"/><path d="M-120.567 110.15c2.528-2.523 7.43-5.405 8.427-7.642.713-1.601.314-9.754-.112-13.176-.016-.13-.187-.205-.306-.141-2.855 1.513-4.881 3.771-6.199 6.54l-3.692 13.639z" style="fill:#bae7e0;fill-opacity:1;fill-rule:nonzero;stroke:none;stroke-width:.0352778" transform="translate(195.408 7.348)scale(.71913)"/><path d="m-121.757 109.028 1.059.44c.961-.913 2.189-1.862 3.38-2.783 2.013-1.56 4.094-3.168 4.648-4.413.574-1.288.35-8.283-.092-12.305-2.38 1.38-4.211 3.387-5.449 5.966zm1.325 1.806-2.71-1.126 3.862-14.227c1.428-3.002 3.598-5.292 6.45-6.805a.8.8 0 0 1 .741.003c.228.12.382.336.412.582.386 3.094.885 11.646.066 13.484-.673 1.51-2.774 3.136-4.998 4.857-1.28.992-2.605 2.015-3.55 2.957z" style="fill:#211d1d;fill-opacity:1;fill-rule:nonzero;stroke:none;stroke-width:.0352778" transform="translate(195.408 7.348)scale(.71913)"/><path d="M-135.576 94.349c-.875 3.83-.59 6.212-1.904 9.867-.276.765-.55 1.615-.188 2.413.532 1.171 2.111 1.637 3.463 1.936q4.718 1.033 9.436 2.071c1.376.304 2.93.579 4.011-.102.886-.554 1.186-1.595 1.433-2.565.787-3.069 1.07-11.48.35-12.421 0 0-14.422-4.085-16.601-1.2" style="fill:#ecf9f7;fill-opacity:1;fill-rule:nonzero;stroke:none;stroke-width:.0352778" transform="translate(195.408 7.348)scale(.71913)"/><path d="M-135.042 94.613c-.326 1.464-.483 2.713-.634 3.927-.234 1.866-.454 3.633-1.258 5.87-.267.744-.467 1.404-.206 1.979.418.924 1.855 1.344 3.06 1.609l9.436 2.07c1.268.279 2.696.533 3.578-.024.675-.424.934-1.256 1.18-2.216.752-2.935.961-10.4.507-11.79-5.367-1.495-14.06-3.129-15.663-1.425m12.579 16.926c-.787 0-1.618-.158-2.43-.335l-9.436-2.074c-1.56-.342-3.24-.878-3.866-2.261-.477-1.052-.088-2.135.17-2.85.76-2.117.973-3.821 1.198-5.624.16-1.277.325-2.597.685-4.177l.028-.12.075-.099c2.303-3.048 14.75.293 17.223.992l.185.053.117.151c.936 1.224.508 9.963-.249 12.919-.225.878-.565 2.208-1.686 2.914-.601.377-1.289.511-2.014.511" style="fill:#211d1d;fill-opacity:1;fill-rule:nonzero;stroke:none;stroke-width:.0352778" transform="translate(195.408 7.348)scale(.71913)"/><path d="M-151.811 97.7c2.93.691 6.421 1.527 9.418 1.298.844-.063 1.706-.173 2.46-.568.904-.473 1.568-1.312 2.205-2.124q2.593-3.322 5.185-6.639c.488-.624 1.004-1.34.924-2.138-.138-1.361-1.835-1.876-3.153-1.725-1.318.148-2.743.607-3.904-.056l-13.495 5.74z" style="fill:#bae7e0;fill-opacity:1;fill-rule:nonzero;stroke:none;stroke-width:.0352778" transform="translate(195.408 7.348)scale(.71913)"/><path d="M-151.257 97.238c2.855.67 6.05 1.397 8.82 1.182.722-.053 1.55-.145 2.236-.501.808-.424 1.45-1.246 2.015-1.969l5.187-6.64c.438-.56.86-1.153.803-1.724-.029-.286-.164-.526-.414-.727-.468-.377-1.311-.571-2.096-.48q-.406.05-.822.12c-1.01.163-2.143.346-3.168-.113l-12.873 5.475zm7.794 2.381c-2.745 0-5.705-.698-8.354-1.323l-.548-.13-.409-7.052 14.137-6.012.25.145c.737.42 1.678.268 2.675.106.293-.046.586-.092.874-.127.868-.1 2.1.042 2.956.73.489.395.78.917.84 1.517.108 1.076-.613 2-1.043 2.55l-5.187 6.64c-.638.818-1.362 1.743-2.391 2.282-.88.459-1.848.568-2.686.632a15 15 0 0 1-1.114.042" style="fill:#211d1d;fill-opacity:1;fill-rule:nonzero;stroke:none;stroke-width:.0352778" transform="translate(195.408 7.348)scale(.71913)"/><path d="M-152.838 74.783c-2.006 1.73-10.324 9.78-10.19 12.475.105 2.148 7.622 10.929 10.827 10.509 1.889-.243 3.45-1.58 4.893-2.865l7.361-6.533c.492-.437 1.007-.907 1.196-1.549.294-.995-.289-2.025-.89-2.86-3.3-4.59-12.863-9.462-13.197-9.177" style="fill:#f1faf9;fill-opacity:1;fill-rule:nonzero;stroke:none;stroke-width:.0352778" transform="translate(195.408 7.348)scale(.71913)"/><path d="M-152.838 74.783h.004zm.184.61c-3.132 2.745-9.9 9.73-9.796 11.837.052 1.05 3.037 5.214 6.342 7.972 1.639 1.37 3.036 2.096 3.832 1.993 1.776-.232 3.333-1.615 4.584-2.726l7.36-6.534c.497-.44.888-.815 1.025-1.277.23-.783-.31-1.672-.805-2.364-2.892-4.021-10.968-8.403-12.542-8.9m.227 22.97c-1.133 0-2.62-.763-4.424-2.273-2.968-2.48-6.67-7.03-6.757-8.805-.168-3.418 10.286-12.848 10.392-12.94a.66.66 0 0 1 .533-.148c1.317.155 10.357 5.03 13.513 9.423.65.903 1.347 2.102.975 3.365-.242.819-.892 1.397-1.366 1.817l-7.362 6.533c-1.37 1.217-3.074 2.73-5.203 3.006a2 2 0 0 1-.301.021" style="fill:#211d1d;fill-opacity:1;fill-rule:nonzero;stroke:none;stroke-width:.0352778" transform="translate(195.408 7.348)scale(.71913)"/><path d="M-131.62 87.53c.69-.876-5.98-11.004-9.9-13.3-3.891-.466-6.925-.646-10.852.423-.197.053-.26.317-.106.455l13.513 12.192z" style="fill:#fff;fill-opacity:1;fill-rule:nonzero;stroke:none;stroke-width:.0352778" transform="translate(195.408 7.348)scale(.71913)"/><path d="m-138.734 86.725 6.493.205c-.75-2.145-5.969-9.995-9.47-12.14-3.376-.398-6.296-.624-9.949.276zm7.389 1.394-7.85-.247-.158-.145-13.513-12.189a.84.84 0 0 1-.254-.825.84.84 0 0 1 .596-.62c4.164-1.133 7.346-.886 11.073-.438l.12.014.104.06c3.746 2.194 9.79 11.105 10.207 13.314.025.13.1.536-.144.846z" style="fill:#211d1d;fill-opacity:1;fill-rule:nonzero;stroke:none;stroke-width:.0352778" transform="translate(195.408 7.348)scale(.71913)"/><path d="M-102.28 63.35c-.01-.272-.282-.462-.582-.399-4.106.875-10.204 3.07-13.226 5.539-2.636 2.155-4.48 10.488-4.865 12.35-.034.166.145.29.322.223l18.81-7.094z" style="fill:#fff;fill-opacity:1;fill-rule:nonzero;stroke:none;stroke-width:.0352778" transform="translate(195.408 7.348)scale(.71913)"/><path d="M-102.851 63.544c-4.152.9-10.036 3.08-12.87 5.394-1.846 1.51-3.553 6.914-4.523 11.36l17.823-6.725zm-17.881 18.115a.82.82 0 0 1-.534-.194.76.76 0 0 1-.254-.74c.497-2.41 2.332-10.45 5.066-12.683 3.032-2.48 9.073-4.724 13.472-5.655a1.09 1.09 0 0 1 .897.197c.232.18.373.452.384.741l.476 11.039-19.202 7.239a.8.8 0 0 1-.305.056" style="fill:#211d1d;fill-opacity:1;fill-rule:nonzero;stroke:none;stroke-width:.0352778" transform="translate(195.408 7.348)scale(.71913)"/><path d="M-98.72 87.625c.998-3.832 4.008-9.356 3.74-12.04-.195-1.927-4.904-9.423-7.12-12.418-.08-.117-.282-.089-.36.038-1.834 3.062-2.511 6.354-2.257 9.726l3.842 15.025z" style="fill:#bae7e0;fill-opacity:1;fill-rule:nonzero;stroke:none;stroke-width:.0352778" transform="translate(195.408 7.348)scale(.71913)"/><path d="m-104.142 72.84 3.697 14.464 1.266-.194c.403-1.419 1.041-3.034 1.659-4.6 1.037-2.632 2.113-5.356 1.96-6.87-.154-1.562-4.116-8.117-6.67-11.673-1.5 2.7-2.141 5.68-1.912 8.873m5.422 14.785h.004zm-2.586.984-3.99-15.632c-.271-3.64.515-7.027 2.343-10.072a.81.81 0 0 1 .66-.391.77.77 0 0 1 .663.307c1.996 2.706 7.006 10.51 7.225 12.703.18 1.796-.897 4.523-2.036 7.412-.66 1.672-1.344 3.397-1.718 4.833l-.095.37z" style="fill:#211d1d;fill-opacity:1;fill-rule:nonzero;stroke:none;stroke-width:.0352778" transform="translate(195.408 7.348)scale(.71913)"/><path d="M-121.027 81.211c1.23 4.128 2.76 6.22 3.489 10.432.153.885.352 1.845 1.112 2.395 1.116.808 2.826.346 4.236-.141l9.84-3.418c1.436-.498 3.023-1.119 3.662-2.382.522-1.03.247-2.187-.039-3.245-.907-3.359-5.122-11.487-6.287-11.966 0 0-15.53 4.35-16.013 8.325" style="fill:#ecf9f7;fill-opacity:1;fill-rule:nonzero;stroke:none;stroke-width:.0352778" transform="translate(195.408 7.348)scale(.71913)"/><path d="M-120.433 81.172c.478 1.584 1.002 2.865 1.51 4.107.777 1.898 1.511 3.693 1.956 6.265.15.868.32 1.62.88 2.025.879.635 2.367.243 3.707-.222l9.84-3.415c1.396-.484 2.8-1.044 3.333-2.096.413-.815.208-1.764-.08-2.833-.872-3.231-4.668-10.449-5.825-11.486-5.792 1.647-14.771 5.09-15.321 7.655m5.544 13.886c-.682 0-1.326-.152-1.877-.55-.988-.717-1.202-1.952-1.343-2.766-.423-2.445-1.135-4.184-1.887-6.026-.532-1.298-1.08-2.642-1.587-4.34l-.034-.116.014-.12c.516-4.236 14.804-8.357 16.43-8.812l.195-.056.183.077c1.514.621 5.758 9.127 6.629 12.351.272 1.006.642 2.385-.007 3.662-.727 1.436-2.367 2.102-3.987 2.667l-9.84 3.415c-.94.324-1.95.614-2.889.614" style="fill:#211d1d;fill-opacity:1;fill-rule:nonzero;stroke:none;stroke-width:.0352778" transform="translate(195.408 7.348)scale(.71913)"/><path d="M-131.764 70.864c1.041 1.736 2.638 5.066.64 8.657-2 3.588-6.047 9.758-15.3 4.093-3.889-2.382-5.68-6.573-4.08-10.474 2.129-5.186 4.702-7.963 9.431-7.278 5.629.818 8.278 3.288 9.31 5.002" style="fill:#cf3456;fill-opacity:1;fill-rule:nonzero;stroke:none;stroke-width:.0352778" transform="translate(195.408 7.348)scale(.71913)"/><path d="M-142.465 66.483c-3.233 0-5.368 2.056-7.368 6.932-1.424 3.471.098 7.323 3.788 9.581 3.126 1.916 5.888 2.575 8.212 1.965 2.94-.772 4.721-3.362 6.075-5.792 1.34-2.406 1.134-5-.627-7.93-.67-1.116-2.866-3.8-8.792-4.658a9 9 0 0 0-1.288-.098m2.884 20.147c-2.194 0-4.613-.801-7.221-2.4-4.32-2.641-6.077-7.21-4.372-11.366 1.761-4.293 4.35-8.565 10.205-7.718 6.54.949 9.05 4.053 9.826 5.348 2.023 3.365 2.243 6.52.652 9.377-1.415 2.543-3.487 5.577-6.975 6.49q-1.02.27-2.115.269" style="fill:#211d1d;fill-opacity:1;fill-rule:nonzero;stroke:none;stroke-width:.0352778" transform="translate(195.408 7.348)scale(.71913)"/><path d="M-139.466 69.181s-1.963 2.382.296 4.23c1.922 1.577 3.151.032 3.151.032z" style="fill:#cf3456;fill-opacity:1;fill-rule:nonzero;stroke:none;stroke-width:.0352778" transform="translate(195.408 7.348)scale(.71913)"/><path d="M-137.484 74.699c-.683 0-1.372-.282-2.053-.84-.769-.628-1.2-1.383-1.285-2.24-.147-1.506.865-2.755.908-2.808a.579.579 0 0 1 .896.737c-.163.201-1.528 1.986.215 3.415.52.427 1.012.618 1.459.572.536-.06.869-.448.872-.452a.578.578 0 1 1 .907.72 2.54 2.54 0 0 1-1.92.896" style="fill:#211d1d;fill-opacity:1;fill-rule:nonzero;stroke:none;stroke-width:.0352778" transform="translate(195.408 7.348)scale(.71913)"/><path d="M-138.1 72.25a.72.72 0 0 1-.593-.306.73.73 0 0 1 .177-1.013c.093-.063 9.355-6.692 10.799-18.073a.726.726 0 0 1 .81-.628c.397.05.678.413.627.808-1.526 12.034-11.002 18.8-11.405 19.082a.72.72 0 0 1-.414.13" style="fill:#211d1d;fill-opacity:1;fill-rule:nonzero;stroke:none;stroke-width:.0352778" transform="translate(195.408 7.348)scale(.71913)"/><path d="M-140.025 150.038c3.09.73 6.772 1.612 9.933 1.369.89-.067 1.8-.18 2.596-.6.953-.497 1.653-1.383 2.324-2.24l5.47-7.003c.514-.656 1.058-1.414.974-2.254-.145-1.436-1.935-1.979-3.325-1.82-1.391.158-2.893.642-4.118-.057l-14.233 6.054z" style="fill:#bae7e0;fill-opacity:1;fill-rule:nonzero;stroke:none;stroke-width:.0352778" transform="translate(195.408 7.348)scale(.71913)"/><path d="M-139.44 149.548c3.012.709 6.382 1.474 9.301 1.249.763-.057 1.637-.152 2.36-.53.852-.448 1.529-1.312 2.126-2.077l5.47-7c.46-.592.906-1.22.846-1.82-.03-.303-.174-.554-.436-.765-.494-.4-1.383-.604-2.211-.508-.285.031-.575.08-.866.127-1.065.172-2.26.366-3.342-.117l-13.577 5.772zm8.22 2.511c-2.897 0-6.019-.733-8.814-1.393l-.575-.138-.43-7.436 14.909-6.34.263.149c.778.444 1.771.285 2.822.116.31-.05.619-.099.922-.134.914-.106 2.214.042 3.117.769.516.416.823.967.886 1.598.114 1.136-.646 2.11-1.1 2.692l-5.47 7.002c-.673.861-1.435 1.838-2.522 2.406-.928.487-1.95.6-2.834.667q-.579.042-1.174.042" style="fill:#211d1d;fill-opacity:1;fill-rule:nonzero;stroke:none;stroke-width:.0352778" transform="translate(195.408 7.348)scale(.71913)"/><path d="M-141.108 125.87c-2.115 1.823-10.888 10.31-10.748 13.154.112 2.265 8.04 11.526 11.42 11.085 1.992-.258 3.638-1.669 5.16-3.02l7.765-6.893c.518-.459 1.06-.956 1.26-1.634.31-1.051-.304-2.138-.938-3.02-3.48-4.84-13.566-9.976-13.919-9.673" style="fill:#f1faf9;fill-opacity:1;fill-rule:nonzero;stroke:none;stroke-width:.0352778" transform="translate(195.408 7.348)scale(.71913)"/><path d="M-140.914 126.511c-3.303 2.897-10.44 10.263-10.331 12.482.055 1.107 3.203 5.5 6.688 8.41 1.729 1.446 3.204 2.212 4.042 2.099 1.873-.244 3.515-1.7 4.834-2.872l7.764-6.89c.524-.465.935-.86 1.08-1.35.243-.823-.326-1.761-.849-2.488-3.05-4.244-11.567-8.865-13.228-9.39m.24 24.225c-1.195 0-2.763-.805-4.667-2.396-3.13-2.614-7.033-7.415-7.125-9.288-.178-3.602 10.848-13.55 10.96-13.646.102-.092.282-.19.562-.155 1.39.166 10.924 5.306 14.251 9.934.685.953 1.422 2.22 1.029 3.55-.256.863-.94 1.474-1.441 1.918l-7.764 6.893c-1.445 1.281-3.243 2.876-5.488 3.168a2 2 0 0 1-.317.022" style="fill:#211d1d;fill-opacity:1;fill-rule:nonzero;stroke:none;stroke-width:.0352778" transform="translate(195.408 7.348)scale(.71913)"/><path d="M-118.728 139.31c.727-.92-6.307-11.603-10.443-14.026-4.103-.49-7.304-.681-11.445.448-.208.053-.274.335-.112.48l14.252 12.855z" style="fill:#fff;fill-opacity:1;fill-rule:nonzero;stroke:none;stroke-width:.0352778" transform="translate(195.408 7.348)scale(.71913)"/><path d="m-126.233 138.463 6.85.216c-.793-2.262-6.297-10.541-9.99-12.803-3.56-.423-6.64-.66-10.492.29zm7.793 1.468-8.28-.261-14.418-13.003a.9.9 0 0 1-.267-.872.89.89 0 0 1 .628-.656c4.392-1.196 7.748-.931 11.68-.462l.126.014.11.067c3.95 2.314 10.325 11.712 10.764 14.04.027.138.107.565-.151.89z" style="fill:#211d1d;fill-opacity:1;fill-rule:nonzero;stroke:none;stroke-width:.0352778" transform="translate(195.408 7.348)scale(.71913)"/><path d="M-60.888 23.338s.434.917-.713 4.209c-1.206 3.45-2.279 3.527-2.279 3.527-.483-.405-.927-3.848-.927-3.848l3.012-3.214.724-.646z" style="fill:#bcdedd;fill-opacity:1;fill-rule:nonzero;stroke:none;stroke-width:.0352778" transform="translate(195.408 7.348)scale(.71913)"/><path d="M-64.197 27.423c.145 1.048.363 2.194.55 2.815.335-.349.89-1.136 1.496-2.882.48-1.376.667-2.304.734-2.896zm.127 4.244-.18-.148c-.437-.367-.818-1.785-1.132-4.22l-.036-.268 3.239-3.453.85-.759.776-.12.187.388c.127.265.448 1.387-.688 4.65-1.235 3.535-2.445 3.888-2.783 3.912z" style="fill:#211d1d;fill-opacity:1;fill-rule:nonzero;stroke:none;stroke-width:.0352778" transform="translate(195.408 7.348)scale(.71913)"/><path d="M-61.05 23.39c-2.008 2.78-2.883 5.317-2.83 7.674l-.007.014-24.55 13.211c-6.66 3.588-11.673 9.603-14.118 16.94l-30.737 92.295c-.488 1.464-1.986 2.37-3.431 1.954-1.569-.452-2.425-2.166-1.904-3.733l30.668-92.089c1.157-3.467 2.755-6.77 4.847-9.733 3.214-4.558 7.302-8.191 12.086-10.767l28.755-15.48a2.64 2.64 0 0 1 1.21-.31z" style="fill:#cfe7e7;fill-opacity:1;fill-rule:nonzero;stroke:none;stroke-width:.0352778" transform="translate(195.408 7.348)scale(.71913)"/><path d="M-63.887 31.078h.004zm1.45-6.654-28.314 15.24c-4.727 2.548-8.727 6.114-11.888 10.594-1.983 2.808-3.585 6.033-4.77 9.582l-30.668 92.089a2.4 2.4 0 0 0 .152 1.87c.292.554.776.952 1.362 1.121 1.123.322 2.319-.37 2.721-1.58l30.737-92.294c2.49-7.479 7.602-13.613 14.393-17.265l24.25-13.052c.029-2.043.692-4.12 2.025-6.305M-136 156.16c-.292 0-.59-.039-.882-.124a3.38 3.38 0 0 1-2.068-1.697 3.57 3.57 0 0 1-.226-2.776l30.671-92.09c1.217-3.657 2.872-6.98 4.918-9.884 3.266-4.628 7.401-8.311 12.287-10.943l28.755-15.476c.462-.247.942-.37 1.471-.385l.36-.007.35.65-.213.302c-1.883 2.604-2.772 5-2.723 7.32l.007.353-.314.184L-88.16 44.8c-6.53 3.514-11.448 9.412-13.843 16.612l-30.738 92.294c-.498 1.492-1.834 2.452-3.26 2.452" style="fill:#211d1d;fill-opacity:1;fill-rule:nonzero;stroke:none;stroke-width:.0352778" transform="translate(195.408 7.348)scale(.71913)"/><path d="M-95.1 49.92a.58.58 0 0 1-.417-.177c-2.49-2.582-1.097-6.106-1.037-6.254a.58.58 0 0 1 1.073.437c-.046.12-1.161 2.981.797 5.01.222.232.215.6-.014.821a.6.6 0 0 1-.402.163m-3.528 3.817a.6.6 0 0 1-.335-.106c-3.122-2.201-2.844-4.808-2.83-4.918a.58.58 0 0 1 1.154.138c-.01.092-.176 2.056 2.342 3.831a.578.578 0 0 1-.331 1.055m-2.222 3.947h-.018c-2.561-.08-4.262-1.901-4.332-1.979a.58.58 0 0 1 .853-.783c.025.025 1.46 1.538 3.514 1.602a.58.58 0 0 1-.018 1.16" style="fill:#211d1d;fill-opacity:1;fill-rule:nonzero;stroke:none;stroke-width:.0352778" transform="translate(195.408 7.348)scale(.71913)"/><path d="M-106.69 61.244s1.31 1.252 3.97.483z" style="fill:#fff;fill-opacity:1;fill-rule:nonzero;stroke:none;stroke-width:.0352778" transform="translate(195.408 7.348)scale(.71913)"/><path d="M-104.371 62.556c-1.76 0-2.671-.846-2.72-.892a.58.58 0 0 1 .797-.843c.056.052 1.154 1.001 3.411.349a.58.58 0 1 1 .325 1.115 6.6 6.6 0 0 1-1.813.271" style="fill:#211d1d;fill-opacity:1;fill-rule:nonzero;stroke:none;stroke-width:.0352778" transform="translate(195.408 7.348)scale(.71913)"/><path d="M-93.485 98.568a.627.627 0 0 0 .565-.618c.102-4.561 1.016-12.894.532-13.878-.349-.716-5.506-9.754-8.336-12.813a.261.261 0 0 0-.444.106c-1.119 3.658-2.413 7.638-1.38 11.285a1 1 0 0 0 .046.12l7.218 15.544c.113.24.356.384.614.36z" style="fill:#fff;fill-opacity:1;fill-rule:nonzero;stroke:none;stroke-width:.0352778" transform="translate(195.408 7.348)scale(.71913)"/><path d="M-100.777 72.074c-1.072 3.5-2.152 7.112-1.213 10.418l.014.031 7.218 15.547.035.029 1.189-.11.032-.053c.042-1.75.2-4.046.352-6.269.209-3.016.466-6.773.24-7.344-.356-.724-5.037-8.919-7.867-12.249m6.054 27.182c-.462 0-.889-.268-1.087-.699l-7.217-15.543a1.4 1.4 0 0 1-.078-.205c-1.044-3.683.18-7.687 1.263-11.222l.12-.391a.841.841 0 0 1 1.425-.328c2.844 3.072 8.05 12.174 8.432 12.95.331.677.215 2.935-.127 7.93-.152 2.209-.31 4.491-.35 6.217a1.203 1.203 0 0 1-1.09 1.178l-1.189.11q-.051.004-.102.003" style="fill:#211d1d;fill-opacity:1;fill-rule:nonzero;stroke:none;stroke-width:.0352778" transform="translate(195.408 7.348)scale(.71913)"/><path d="M-116.508 94.768c2.132 4.23 7.614 11.907 8.5 12.397 1.287.713 2.08.713 3.337-.056l8.756-5.366c1.277-.783 2.67-1.729 2.984-3.228.258-1.224-.296-2.459-.832-3.584q-2.564-5.353-5.126-10.707c-.378-.787-.79-1.62-1.524-2.064-1.083-.656-2.452-.254-3.62.23a.6.6 0 0 0-.106.052c-.846.561-12.854 8.012-12.37 12.326" style="fill:#bae7e0;fill-opacity:1;fill-rule:nonzero;stroke:none;stroke-width:.0352778" transform="translate(195.408 7.348)scale(.71913)"/><path d="M-115.94 94.606c2.178 4.272 7.395 11.525 8.217 12.055 1.115.617 1.68.61 2.748-.046l8.756-5.37c1.235-.755 2.46-1.594 2.72-2.847.212-1.009-.233-2.053-.787-3.217l-5.125-10.707c-.31-.645-.692-1.446-1.302-1.817-.882-.536-2.12-.137-3.101.265l-.243.159c-7.592 4.879-12.014 9.172-11.883 11.525m9.586 13.663c-.603 0-1.217-.197-1.937-.596-1.072-.596-6.649-8.506-8.735-12.644l-.046-.095-.012-.102c-.412-3.666 6.515-8.943 12.399-12.725l.225-.148c.064-.042.127-.074.202-.106 1.234-.511 2.822-.995 4.145-.187.906.547 1.372 1.524 1.746 2.307l5.126 10.707c.624 1.309 1.164 2.593.878 3.955-.356 1.704-1.862 2.751-3.249 3.602l-8.756 5.365c-.727.445-1.351.667-1.986.667" style="fill:#211d1d;fill-opacity:1;fill-rule:nonzero;stroke:none;stroke-width:.0352778" transform="translate(195.408 7.348)scale(.71913)"/><path d="M-100.988 71.323a.298.298 0 0 0-.399-.25c-3.962 1.513-12.195 3.583-14.57 6.854-2.058 2.829-.792 13.836-.499 16.146a.264.264 0 0 0 .408.194L-99.88 83.67a.83.83 0 0 0 .36-.8z" style="fill:#ecf9f7;fill-opacity:1;fill-rule:nonzero;stroke:none;stroke-width:.0352778" transform="translate(195.408 7.348)scale(.71913)"/><path d="M-101.521 71.743c-.804.296-1.757.613-2.755.949-3.994 1.337-9.461 3.164-11.213 5.573-1.458 2.008-1.166 9.349-.453 15.24l15.74-10.318a.25.25 0 0 0 .106-.244zm-14.67 23.149a.85.85 0 0 1-.84-.748c-.398-3.14-1.531-13.62.604-16.56 1.97-2.709 7.41-4.53 11.78-5.99 1.136-.38 2.205-.737 3.052-1.061a.86.86 0 0 1 .758.067.88.88 0 0 1 .424.649l1.467 11.546a1.41 1.41 0 0 1-.617 1.358l-16.167 10.601a.84.84 0 0 1-.46.138" style="fill:#211d1d;fill-opacity:1;fill-rule:nonzero;stroke:none;stroke-width:.0352778" transform="translate(195.408 7.348)scale(.71913)"/><path d="M-132.361 84.09c-15.612 0-30.445-4.713-36.17-11.518l1.11-.932c5.382 6.396 20.091 11 35.075 11h.367c16.148-.081 34.628-3.877 38.064-14.284.582-1.768-.064-3.74-1.573-4.794a28 28 0 0 0-2.957-1.796l.674-1.28a29 29 0 0 1 3.112 1.89c2.032 1.415 2.903 4.06 2.12 6.435-3.68 11.137-22.78 15.194-39.432 15.279z" style="fill:#211d1d;fill-opacity:1;fill-rule:nonzero;stroke:none;stroke-width:.0352778" transform="translate(195.408 7.348)scale(.71913)"/><path d="M-101.814 114.086c-.004-.289-.19-.546-.437-.6-3.468-.74-9.756-2.75-10.533-2.448-.565.22-7.738 3.652-10.225 5.8-.123.11-.094.339.055.423 2.721 1.535 5.677 3.281 8.51 2.854a1 1 0 0 0 .095-.024l12.242-4.396c.187-.07.31-.271.307-.508z" style="fill:#fff;fill-opacity:1;fill-rule:nonzero;stroke:none;stroke-width:.0352778" transform="translate(195.408 7.348)scale(.71913)"/><path d="M-122.211 116.979c2.56 1.447 5.2 2.907 7.676 2.53l12.121-4.357-.01-1.058-.004-.022c-1.33-.285-3.052-.748-4.713-1.196-2.068-.557-4.889-1.319-5.451-1.259-.705.293-6.98 3.327-9.62 5.362m6.883 3.814c-2.627 0-5.273-1.5-7.638-2.837l-.288-.162a.89.89 0 0 1-.439-.684.86.86 0 0 1 .284-.734c2.56-2.212 9.71-5.64 10.403-5.91.58-.225 1.91.075 6.183 1.229 1.669.448 3.394.913 4.7 1.192.525.113.913.614.92 1.189l.014 1.104c.007.494-.279.935-.713 1.09l-12.24 4.396a1 1 0 0 1-.21.053q-.486.075-.976.074" style="fill:#211d1d;fill-opacity:1;fill-rule:nonzero;stroke:none;stroke-width:.0352778" transform="translate(195.408 7.348)scale(.71913)"/><path d="M-106.008 134.58c3.34-1.352 9.493-5.271 9.916-6.012.618-1.076.66-1.803.145-3.059l-3.588-8.752c-.522-1.277-1.164-2.685-2.286-3.182-.917-.41-1.89-.078-2.776.254q-4.221 1.582-8.44 3.168c-.621.233-1.277.494-1.657 1.1-.562.893-.334 2.202-.032 3.338.009.039.02.07.036.106.378.85 5.37 12.869 8.682 13.038" style="fill:#bae7e0;fill-opacity:1;fill-rule:nonzero;stroke:none;stroke-width:.0352778" transform="translate(195.408 7.348)scale(.71913)"/><path d="M-102.745 113.995c-.505 0-1.048.187-1.637.405l-8.44 3.168c-.607.226-1.092.434-1.354.854-.448.713-.213 1.902.04 2.858l.109.25c3.794 8.805 6.555 12.174 7.93 12.421 3.433-1.425 9.042-5.097 9.483-5.704.515-.896.54-1.44.102-2.505l-3.587-8.756c-.484-1.17-1.07-2.455-1.969-2.854a1.7 1.7 0 0 0-.677-.137m-3.161 21.198-.134-.004c-2.9-.148-6.555-7.246-9.11-13.173l-.1-.229a1 1 0 0 1-.067-.197c-.318-1.193-.592-2.706.105-3.817.502-.805 1.345-1.119 1.96-1.352l8.44-3.164c.815-.307 2.05-.773 3.238-.243 1.316.585 2.007 2.053 2.604 3.51l3.59 8.756c.58 1.407.53 2.35-.183 3.59-.582 1.017-7.076 5.003-10.22 6.273z" style="fill:#211d1d;fill-opacity:1;fill-rule:nonzero;stroke:none;stroke-width:.0352778" transform="translate(195.408 7.348)scale(.71913)"/><path d="M-122.976 117.089c-.152-.004-.255.155-.213.331.928 3.831 2.037 11.642 4.391 14.274 2.038 2.279 10.486 2.677 12.264 2.737.152.007.243-.18.173-.346l-7.154-16.26c-.117-.264-.346-.437-.59-.444z" style="fill:#ecf9f7;fill-opacity:1;fill-rule:nonzero;stroke:none;stroke-width:.0352778" transform="translate(195.408 7.348)scale(.71913)"/><path d="M-122.49 117.717c.172.751.352 1.622.54 2.54.79 3.834 1.874 9.09 3.608 11.03 1.388 1.55 6.747 2.308 11.184 2.51l-6.917-15.728a.2.2 0 0 0-.064-.08zm15.568 16.615h.004zm.392.713-.025-.004c-2.434-.081-10.545-.533-12.699-2.939-1.953-2.183-3.029-7.404-3.894-11.602-.224-1.087-.436-2.117-.635-2.936a.9.9 0 0 1 .17-.783.81.81 0 0 1 .657-.303l8.872.293c.475.014.919.331 1.128.808l7.152 16.263a.89.89 0 0 1-.067.85.8.8 0 0 1-.66.353" style="fill:#211d1d;fill-opacity:1;fill-rule:nonzero;stroke:none;stroke-width:.0352778" transform="translate(195.408 7.348)scale(.71913)"/><path d="M-113.35 157.933c-.012-.286-.296-.487-.612-.42-4.334.921-10.765 3.235-13.951 5.839-2.781 2.275-4.726 11.063-5.131 13.028-.036.176.153.303.339.233l19.837-7.483z" style="fill:#fff;fill-opacity:1;fill-rule:nonzero;stroke:none;stroke-width:.0352778" transform="translate(195.408 7.348)scale(.71913)"/><path d="M-113.953 158.138c-4.38.945-10.585 3.245-13.573 5.69-1.947 1.591-3.748 7.289-4.771 11.977l18.8-7.09zm-18.859 19.106a.87.87 0 0 1-.563-.204.81.81 0 0 1-.268-.783c.524-2.544 2.46-11.021 5.343-13.378 3.198-2.614 9.57-4.978 14.21-5.962.339-.074.681.004.944.208.246.19.394.477.407.784l.501 11.638-20.252 7.637a1 1 0 0 1-.322.06" style="fill:#211d1d;fill-opacity:1;fill-rule:nonzero;stroke:none;stroke-width:.0352778" transform="translate(195.408 7.348)scale(.71913)"/><path d="M-109.596 183.534c1.055-4.043 4.226-9.867 3.944-12.7-.201-2.028-5.17-9.934-7.506-13.095-.09-.12-.3-.095-.38.039-1.938 3.231-2.65 6.703-2.382 10.262l4.05 15.847z" style="fill:#bae7e0;fill-opacity:1;fill-rule:nonzero;stroke:none;stroke-width:.0352778" transform="translate(195.408 7.348)scale(.71913)"/><path d="m-115.315 167.942 3.9 15.254 1.336-.205c.423-1.496 1.097-3.2 1.75-4.85 1.093-2.777 2.225-5.649 2.067-7.247-.163-1.644-4.343-8.562-7.036-12.308-1.581 2.847-2.26 5.99-2.017 9.356m5.719 15.592h.004zm-2.729 1.041-4.205-16.489c-.289-3.838.542-7.412 2.468-10.622a.86.86 0 0 1 .699-.413.82.82 0 0 1 .696.325c2.11 2.854 7.392 11.084 7.622 13.398.19 1.891-.946 4.77-2.149 7.814-.695 1.764-1.414 3.585-1.81 5.102l-.098.388z" style="fill:#211d1d;fill-opacity:1;fill-rule:nonzero;stroke:none;stroke-width:.0352778" transform="translate(195.408 7.348)scale(.71913)"/><path d="M-133.123 176.772c1.297 4.353 2.912 6.561 3.68 11 .162.934.371 1.947 1.173 2.525 1.176.854 2.98.367 4.468-.148l10.378-3.602c1.513-.526 3.187-1.182 3.863-2.512.55-1.09.258-2.31-.042-3.425-.956-3.542-5.4-12.115-6.631-12.62 0 0-16.379 4.59-16.889 8.782" style="fill:#ecf9f7;fill-opacity:1;fill-rule:nonzero;stroke:none;stroke-width:.0352778" transform="translate(195.408 7.348)scale(.71913)"/><path d="M-132.497 176.73c.506 1.671 1.058 3.023 1.593 4.328.82 2.007 1.595 3.902 2.064 6.61.158.915.337 1.708.928 2.135.928.67 2.496.258 3.91-.233l10.378-3.602c1.471-.511 2.954-1.104 3.516-2.211.434-.858.22-1.86-.085-2.988-.92-3.408-4.924-11.018-6.144-12.115-6.11 1.74-15.58 5.37-16.16 8.075m5.848 14.644c-.72 0-1.398-.159-1.98-.579-1.042-.754-1.267-2.056-1.417-2.917-.446-2.579-1.196-4.413-1.99-6.354-.56-1.372-1.14-2.786-1.673-4.579l-.037-.12.016-.127c.544-4.47 15.614-8.815 17.33-9.295l.203-.06.195.08c1.595.657 6.07 9.628 6.988 13.029.286 1.062.68 2.515-.004 3.86-.77 1.516-2.499 2.222-4.206 2.815l-10.378 3.601c-.991.343-2.057.646-3.048.646" style="fill:#211d1d;fill-opacity:1;fill-rule:nonzero;stroke:none;stroke-width:.0352778" transform="translate(195.408 7.348)scale(.71913)"/><path d="M-139.932 169.042a.66.66 0 0 0 .592-.649c.11-4.812 1.073-13.6.562-14.64-.37-.752-5.809-10.287-8.791-13.512a.275.275 0 0 0-.469.113c-1.178 3.856-2.545 8.054-1.454 11.9a1 1 0 0 0 .047.127l7.615 16.393a.65.65 0 0 0 .644.381z" style="fill:#fff;fill-opacity:1;fill-rule:nonzero;stroke:none;stroke-width:.0352778" transform="translate(195.408 7.348)scale(.71913)"/><path d="M-147.627 141.099c-1.129 3.693-2.266 7.5-1.277 10.989l.013.035 7.615 16.394.034.028 1.254-.113.037-.053c.042-1.849.209-4.272.37-6.615.219-3.182.492-7.143.251-7.747-.373-.762-5.31-9.405-8.297-12.918m7.695 27.943h.003zm-1.31.727a1.27 1.27 0 0 1-1.143-.734L-150 152.638a2 2 0 0 1-.08-.219c-1.102-3.88.19-8.107 1.331-11.832l.126-.413a.9.9 0 0 1 .654-.613.89.89 0 0 1 .848.264c3.001 3.246 8.492 12.841 8.893 13.66.351.716.23 3.1-.133 8.364-.16 2.328-.326 4.738-.368 6.558a1.27 1.27 0 0 1-1.148 1.242l-1.254.113q-.055.009-.111.007" style="fill:#211d1d;fill-opacity:1;fill-rule:nonzero;stroke:none;stroke-width:.0352778" transform="translate(195.408 7.348)scale(.71913)"/><path d="M-164.217 165.035c2.25 4.462 8.03 12.555 8.965 13.074 1.356.751 2.197.751 3.52-.06q4.618-2.827 9.235-5.659c1.346-.825 2.816-1.82 3.148-3.4.27-1.295-.313-2.597-.88-3.783l-5.405-11.292c-.397-.832-.835-1.707-1.607-2.177-1.141-.691-2.586-.271-3.82.24q-.058.026-.11.057c-.894.592-13.557 8.452-13.046 13" style="fill:#bae7e0;fill-opacity:1;fill-rule:nonzero;stroke:none;stroke-width:.0352778" transform="translate(195.408 7.348)scale(.71913)"/><path d="M-163.618 164.862c2.297 4.508 7.802 12.157 8.669 12.717 1.173.65 1.77.642 2.898-.049l9.234-5.662c1.3-.797 2.592-1.683 2.87-3.006.222-1.062-.246-2.166-.834-3.39l-5.404-11.296c-.326-.677-.731-1.524-1.374-1.915-.928-.565-2.235-.145-3.268.282l-.259.166c-8.006 5.147-12.67 9.673-12.532 12.153m10.11 14.414c-.637 0-1.282-.211-2.04-.631-1.132-.628-7.014-8.971-9.215-13.335l-.049-.099-.012-.11c-.435-3.866 6.871-9.433 13.077-13.419q.166-.11.24-.155a1 1 0 0 1 .215-.117c1.298-.536 2.97-1.044 4.368-.194.954.579 1.446 1.609 1.842 2.434l5.404 11.293c.66 1.38 1.228 2.734.927 4.17-.377 1.799-1.966 2.903-3.427 3.8l-9.234 5.658c-.768.472-1.427.705-2.097.705" style="fill:#211d1d;fill-opacity:1;fill-rule:nonzero;stroke:none;stroke-width:.0352778" transform="translate(195.408 7.348)scale(.71913)"/><path d="M-147.848 140.308a.316.316 0 0 0-.422-.264c-4.175 1.598-12.86 3.778-15.366 7.228-2.17 2.985-.835 14.591-.526 17.029a.28.28 0 0 0 .431.208l17.05-11.18a.88.88 0 0 0 .382-.843z" style="fill:#ecf9f7;fill-opacity:1;fill-rule:nonzero;stroke:none;stroke-width:.0352778" transform="translate(195.408 7.348)scale(.71913)"/><path d="M-148.409 140.75c-.849.313-1.854.649-2.91 1.001-4.21 1.408-9.975 3.338-11.822 5.881-1.539 2.117-1.23 9.857-.479 16.073l16.603-10.887a.26.26 0 0 0 .11-.254zm-15.473 24.416a.9.9 0 0 1-.886-.787c-.42-3.312-1.615-14.365.637-17.466 2.078-2.857 7.814-4.776 12.424-6.318 1.196-.402 2.325-.78 3.219-1.122a.925.925 0 0 1 1.246.759l1.55 12.178a1.49 1.49 0 0 1-.654 1.432l-17.05 11.18a.9.9 0 0 1-.486.144" style="fill:#211d1d;fill-opacity:1;fill-rule:nonzero;stroke:none;stroke-width:.0352778" transform="translate(195.408 7.348)scale(.71913)"/><path d="M-140.13 106.138c.12-.232-.019-.525-.302-.628-3.893-1.368-10.096-2.66-13.827-2.155-3.256.441-8.78 6.396-9.99 7.74-.11.123-.014.314.167.346l19.29 3.71z" style="fill:#fff;fill-opacity:1;fill-rule:nonzero;stroke:none;stroke-width:.0352778" transform="translate(195.408 7.348)scale(.71913)"/><path d="m-163.306 110.968 18.18 3.5 4.356-8.425c-3.938-1.369-9.923-2.55-13.408-2.081-2.248.303-6.208 3.849-9.128 7.006m18.848 4.872-19.74-3.796a.88.88 0 0 1-.667-.575.78.78 0 0 1 .162-.783c1.57-1.743 6.962-7.476 10.362-7.934 3.753-.508 9.94.712 14.112 2.183.313.11.561.346.68.642.109.276.096.583-.038.84z" style="fill:#211d1d;fill-opacity:1;fill-rule:nonzero;stroke:none;stroke-width:.0352778" transform="translate(195.408 7.348)scale(.71913)"/><path d="M-148.659 128.032c2.667-2.664 7.838-5.705 8.888-8.061.754-1.686.332-10.287-.117-13.896-.018-.138-.198-.219-.324-.152-3.01 1.598-5.147 3.98-6.537 6.9l-3.894 14.383z" style="fill:#bae7e0;fill-opacity:1;fill-rule:nonzero;stroke:none;stroke-width:.0352778" transform="translate(195.408 7.348)scale(.71913)"/><path d="m-149.913 126.846 1.117.466c1.014-.963 2.309-1.965 3.564-2.935 2.123-1.644 4.318-3.34 4.903-4.653.605-1.358.37-8.738-.097-12.982-2.51 1.46-4.442 3.573-5.748 6.293zm1.397 1.905-2.858-1.185 4.073-15.007c1.506-3.164 3.795-5.577 6.803-7.176a.84.84 0 0 1 .78.004.8.8 0 0 1 .437.614c.405 3.26.933 12.284.069 14.22-.71 1.595-2.925 3.306-5.271 5.123-1.351 1.044-2.748 2.124-3.744 3.119z" style="fill:#211d1d;fill-opacity:1;fill-rule:nonzero;stroke:none;stroke-width:.0352778" transform="translate(195.408 7.348)scale(.71913)"/><path d="M-164.488 111.363c-.922 4.043-.622 6.555-2.008 10.407-.291.811-.58 1.707-.198 2.547.56 1.238 2.226 1.729 3.652 2.043 3.318.726 6.635 1.457 9.953 2.183 1.45.318 3.09.61 4.23-.106.934-.585 1.25-1.682 1.512-2.705.83-3.239 1.128-12.111.369-13.099 0 0-15.211-4.31-17.51-1.27" style="fill:#ecf9f7;fill-opacity:1;fill-rule:nonzero;stroke:none;stroke-width:.0352778" transform="translate(195.408 7.348)scale(.71913)"/><path d="M-163.924 111.642c-.345 1.545-.51 2.864-.67 4.141-.245 1.972-.478 3.835-1.327 6.195-.28.783-.491 1.482-.215 2.089.437.963 1.876 1.397 3.226 1.696l9.952 2.184c1.338.293 2.844.557 3.774-.028.711-.445.985-1.323 1.244-2.339.793-3.094 1.014-10.968.536-12.432-5.662-1.577-14.831-3.302-16.52-1.506m13.266 17.854c-.83 0-1.706-.166-2.563-.356l-9.951-2.184c-1.646-.36-3.418-.928-4.079-2.385-.503-1.111-.092-2.25.18-3.006.802-2.233 1.027-4.028 1.265-5.933.168-1.348.342-2.738.721-4.403l.03-.127.08-.106c2.427-3.21 15.556.31 18.163 1.048l.195.053.124.162c.988 1.288.536 10.51-.262 13.624-.237.928-.596 2.329-1.779 3.073-.633.399-1.359.54-2.124.54" style="fill:#211d1d;fill-opacity:1;fill-rule:nonzero;stroke:none;stroke-width:.0352778" transform="translate(195.408 7.348)scale(.71913)"/><path d="M-131.608 199.356c-27.67 0-42.66-38.52-43.692-53.255-.515-7.352 2.079-26.638 4.368-43.656 1.064-7.917 2.083-15.494 2.707-21.262q.09.117.185.23c1.25 1.467 2.929 2.836 4.951 4.08-.35.692-.543 1.303-.52 1.793.089 1.774 3.79 6.325 6.758 8.805 1.805 1.51 3.29 2.272 4.424 2.272q.155 0 .3-.021c.104-.01.206-.028.308-.046h.003c2.649.625 5.608 1.323 8.353 1.323q.564 0 1.114-.042c.838-.064 1.806-.173 2.686-.632 1.03-.54 1.753-1.464 2.392-2.282l.854-1.094c-.183 1.013-.297 1.93-.41 2.826-.225 1.803-.438 3.507-1.199 5.623-.257.716-.646 1.8-.17 2.85.585 1.288 2.082 1.842 3.547 2.191l-3.241 15.47c-.92.137-1.876.335-2.887.61a1 1 0 0 0-.239.106h-.037a.67.67 0 0 0-.454.162c-.111.095-11.137 10.044-10.96 13.646.021.412.226.966.565 1.605-4.575 1.53-10.18 3.436-12.228 6.254-2.212 3.041-1.1 13.748-.662 17.276a3.3 3.3 0 0 0-.032.914l.012.109.05.099c2.2 4.364 8.082 12.707 9.213 13.335.759.42 1.405.631 2.04.631.67 0 1.33-.233 2.097-.705l2.608-1.598a3.07 3.07 0 0 0 .715 2.05c.645.775 1.614 1.17 2.26 1.17h.047c2.664-.08 4.262-1.361 4.623-3.704l1.08-5.115c.637-.617 1.138-1.351 1.328-2.261.1-.473.105-.935.043-1.394.041-1.153.12-2.483.21-3.852l1.65-7.825q.423.117.847.117c1.425 0 2.761-.96 3.26-2.452l.556-1.672a18 18 0 0 0 2.14-.018c.884-.067 1.905-.18 2.833-.667 1.087-.568 1.849-1.545 2.522-2.405l5.47-7.003c.431-.55 1.138-1.457 1.11-2.519.082-.261.032-.522.013-.624-.294-1.563-3.256-6.301-6.366-9.952l1.883-5.655c.778 3.531 1.776 7.175 3.326 8.91 2.109 2.357 9.926 2.84 12.54 2.936.23.088.452.138.674.152l.134.004.124-.05c3.143-1.27 9.637-5.256 10.22-6.272.712-1.242.761-2.184.183-3.591l-3.591-8.756c-.597-1.457-1.288-2.925-2.604-3.51a2.8 2.8 0 0 0-1.048-.237c-1.23-.282-2.737-.688-4.201-1.083-3.41-.92-4.946-1.298-5.722-1.298a1.3 1.3 0 0 0-.461.07c-.447.173-3.577 1.659-6.43 3.288l1.776-5.334q.524-.411 1.051-.818c1.981-1.535 3.864-2.992 4.728-4.357 1.634 2.307 3.096 4.152 3.59 4.427.72.4 1.334.597 1.937.597.635 0 1.26-.223 1.986-.667l8.756-5.366c1.386-.85 2.893-1.898 3.25-3.602.094-.448.098-.889.038-1.323.06-1.626.198-3.623.332-5.563.19-2.755.31-4.678.32-5.962 2.431 20.578 5.578 49.491 5.395 59.764-.124 6.795-4.364 20.288-11.984 31.912-6.484 9.885-17.47 21.71-32.996 21.89q-.176.005-.35.004m-2.05-23.015c-.034.12-.058.236-.073.356l-.015.127.036.12c.534 1.792 1.113 3.207 1.673 4.58.794 1.94 1.544 3.774 1.99 6.353.15.86.375 2.162 1.418 2.917.58.42 1.26.579 1.979.579.99 0 2.056-.303 3.048-.646l10.378-3.601c1.707-.593 3.436-1.299 4.206-2.816.306-.606.398-1.234.377-1.841.399-1.224.931-2.568 1.446-3.88 1.203-3.045 2.34-5.924 2.149-7.815-.23-2.314-5.512-10.544-7.622-13.398a.8.8 0 0 0-.581-.321 1.12 1.12 0 0 0-.841-.138c-4.641.984-11.013 3.348-14.211 5.962-2.882 2.357-4.819 10.834-5.343 13.377zm-31.096-65.595a2 2 0 0 0-.224.25l-.08.106-.028.127c-.38 1.665-.554 3.055-.722 4.403-.238 1.905-.463 3.7-1.265 5.933-.272.755-.683 1.895-.18 3.006.661 1.457 2.433 2.025 4.079 2.385l9.951 2.183c.857.191 1.733.357 2.563.357.765 0 1.49-.141 2.124-.54.524-.328.885-.787 1.147-1.274.87-.765 1.9-1.562 2.904-2.338 2.346-1.817 4.561-3.528 5.27-5.123.865-1.937.337-10.96-.068-14.22a.8.8 0 0 0-.328-.547 1.14 1.14 0 0 0-.62-.519c-3.517-1.238-8.464-2.3-12.18-2.3-.693 0-1.343.036-1.932.117-3.4.458-8.792 6.19-10.362 7.934l-.05.06m34.572 13.807c-.009 0-.018-.004-.027-.004l2.925-13.87 1.605.352zm38.266-40.827a70 70 0 0 0-1.245-2.198c.303-.384.586-.783.84-1.192q.2 1.645.405 3.39" style="fill:#cf5e1d;fill-opacity:1;fill-rule:nonzero;stroke:none;stroke-width:.0352778" transform="translate(195.408 7.348)scale(.71913)"/><path d="M-131.613 200.08c-28.661 0-43.417-39.737-44.41-53.93-.814-11.624 5.971-52.08 7.428-68.565-.068 1.195.29 2.402 1.106 3.358 1.19 1.393 2.805 2.706 4.758 3.905-.132.219-.252.438-.358.646-2.022-1.245-3.701-2.614-4.951-4.082a5 5 0 0 1-.185-.23c-.624 5.769-1.643 13.346-2.708 21.263-2.288 17.018-4.882 36.304-4.367 43.656 1.031 14.736 16.021 53.255 43.692 53.255q.175.001.351-.004c15.525-.18 26.512-12.005 32.996-21.89 7.62-11.623 11.86-25.117 11.984-31.912.183-10.273-2.964-39.186-5.394-59.764.014-1.044-.046-1.665-.194-1.968-.015-.025-.029-.057-.05-.092a871 871 0 0 0-.406-3.39q-.382.615-.84 1.192-.187-.321-.394-.67a12.3 12.3 0 0 0 1.668-2.992c2.237 18.465 6.544 55.782 6.333 67.695-.247 13.776-16.793 54.18-45.695 54.518z" style="fill:#b5541e;fill-opacity:1;fill-rule:nonzero;stroke:none;stroke-width:.0352778" transform="translate(195.408 7.348)scale(.71913)"/><path d="M-145.832 178.744c-.198 0-.761-.187-1.143-.65q-.526-.631-.32-1.59l.109-.523 5.008-3.069c.112-.07.224-.137.336-.211l-.74 3.51-.007.042c-.155 1.034-.66 2.413-3.237 2.49zm14.173-54.334a33 33 0 0 0-2.764-.127c-.642 0-1.29.02-1.95.074l3.139-14.986 4.535.998z" style="fill:#ce7022;fill-opacity:1;fill-rule:nonzero;stroke:none;stroke-width:.0352778" transform="translate(195.408 7.348)scale(.71913)"/><path d="M-145.828 180.194c-.647 0-1.617-.396-2.261-1.172a3.07 3.07 0 0 1-.715-2.05l1.618-.99-.11.521q-.205.96.321 1.591c.382.463.945.65 1.143.65h.006c2.577-.078 3.082-1.457 3.237-2.491l.007-.042.74-3.51c.615-.389 1.235-.819 1.762-1.327l-1.08 5.115c-.36 2.343-1.958 3.623-4.623 3.705zm7.33-16.327c.044-.667.091-1.348.137-2.018.205-2.98.333-5.038.342-6.392.335.26.718.455 1.136.578a.1.1 0 0 0 .035.007zm8.29-39.317a54 54 0 0 0-1.45-.141l2.96-14.04 1.415.31zm-7.682-.02 3.24-15.47q.162.039.321.07l1.095.24-3.139 14.987q-.745.063-1.517.173" style="fill:#b5541e;fill-opacity:1;fill-rule:nonzero;stroke:none;stroke-width:.0352778" transform="translate(195.408 7.348)scale(.71913)"/><path d="m-117 106.438 2.409-7.232c.629.988 1.3 2 1.961 2.964a1 1 0 0 1-.04.102c-.525 1.178-2.42 2.688-4.33 4.166" style="fill:#ca7121;fill-opacity:1;fill-rule:nonzero;stroke:none;stroke-width:.0352778" transform="translate(195.408 7.348)scale(.71913)"/><path d="m-117.66 108.42.66-1.982c1.91-1.478 3.805-2.988 4.33-4.166a1 1 0 0 0 .04-.102q.379.55.749 1.076c-.864 1.365-2.747 2.822-4.728 4.356-.35.272-.703.544-1.05.819" style="fill:#b5541e;fill-opacity:1;fill-rule:nonzero;stroke:none;stroke-width:.0352778" transform="translate(195.408 7.348)scale(.71913)"/><path d="M-139.222 151.71q-.262-.456-.576-.991c.276.067.555.13.837.197l-.215.646q-.025.075-.046.148" style="fill:#ce7022;fill-opacity:1;fill-rule:nonzero;stroke:none;stroke-width:.0352778" transform="translate(195.408 7.348)scale(.71913)"/><path d="m-125.31 109.924-8.77-1.926c-1.205-.265-2.642-.685-3.06-1.61-.261-.574-.061-1.234.206-1.978.804-2.237 1.024-4.004 1.258-5.87.151-1.214.308-2.463.634-3.927.486-.518 1.622-.727 3.12-.727 3.091 0 7.723.893 11.344 1.831z" style="fill:#d27323;fill-opacity:1;fill-rule:nonzero;stroke:none;stroke-width:.0352778" transform="translate(195.408 7.348)scale(.71913)"/><path d="M-120.21 94.613c-2.668-.698-7.73-1.877-11.488-1.877-.595 0-1.156.032-1.67.096.21-.216.424-.427.64-.642q.675.014 1.353.014.19.001.382-.004a103 103 0 0 0 11.825-.716z" style="fill:#d57425;fill-opacity:1;fill-rule:nonzero;stroke:none;stroke-width:.0352778" transform="translate(195.408 7.348)scale(.71913)"/><path d="m-134.445 93.043.686-.878q.516.017 1.03.025c-.215.215-.43.426-.64.642-.387.049-.749.12-1.076.211" style="fill:#b5541e;fill-opacity:1;fill-rule:nonzero;stroke:none;stroke-width:.0352778" transform="translate(195.408 7.348)scale(.71913)"/><path d="m-125.678 111.031-1.605-.352-1.416-.31-4.536-1-1.094-.239q-.16-.033-.32-.07c-1.465-.35-2.963-.904-3.546-2.191-.477-1.052-.088-2.135.17-2.85.76-2.118.973-3.821 1.198-5.624.113-.896.227-1.813.41-2.826l1.972-2.526a7.5 7.5 0 0 1 1.076-.211 14 14 0 0 1 1.671-.096c3.757 0 8.82 1.179 11.488 1.877l-.368 1.104c-3.621-.938-8.253-1.83-11.345-1.83-1.497 0-2.633.208-3.119.726-.326 1.464-.483 2.713-.634 3.927-.234 1.866-.454 3.633-1.258 5.87-.267.744-.467 1.404-.206 1.979.418.924 1.855 1.344 3.06 1.608l8.77 1.927z" style="fill:#b5541e;fill-opacity:1;fill-rule:nonzero;stroke:none;stroke-width:.0352778" transform="translate(195.408 7.348)scale(.71913)"/><path d="M-143.466 98.458c-2.051 0-4.274-.42-6.386-.896 1.117-.617 2.087-1.478 2.93-2.226l4.428-3.93c2.38.343 4.828.582 7.308.702l-3 3.842c-.566.723-1.207 1.545-2.015 1.969-.685.356-1.514.448-2.237.5q-.506.042-1.028.04" style="fill:#ca7121;fill-opacity:1;fill-rule:nonzero;stroke:none;stroke-width:.0352778" transform="translate(195.408 7.348)scale(.71913)"/><path d="M-143.463 99.62c-2.745 0-5.705-.7-8.354-1.324h-.003a6.7 6.7 0 0 0 1.968-.734c2.112.477 4.335.896 6.386.896q.522.002 1.028-.038c.723-.053 1.552-.145 2.237-.501.808-.424 1.45-1.246 2.015-1.969l3-3.842q.712.037 1.427.057l-.686.878-1.972 2.526-.855 1.094c-.638.818-1.362 1.742-2.392 2.282-.879.459-1.847.568-2.685.632a15 15 0 0 1-1.115.042" style="fill:#b5541e;fill-opacity:1;fill-rule:nonzero;stroke:none;stroke-width:.0352778" transform="translate(195.408 7.348)scale(.71913)"/><path d="M-152.431 97.203c-.816 0-2.14-.717-3.677-2-3.305-2.76-6.29-6.922-6.342-7.973-.021-.427.24-1.055.697-1.81 4.616 2.603 10.862 4.621 17.771 5.757l-3.71 3.292c-1.252 1.11-2.808 2.494-4.584 2.726q-.075.007-.155.008" style="fill:#d27323;fill-opacity:1;fill-rule:nonzero;stroke:none;stroke-width:.0352778" transform="translate(195.408 7.348)scale(.71913)"/><path d="M-152.427 98.363c-1.133 0-2.62-.762-4.424-2.272-2.968-2.48-6.67-7.03-6.757-8.805-.024-.49.17-1.1.52-1.792.105-.208.225-.427.357-.646q.476.291.978.572c-.456.755-.718 1.383-.697 1.81.052 1.05 3.037 5.214 6.342 7.972 1.537 1.284 2.861 2 3.677 2q.08 0 .155-.007c1.776-.232 3.332-1.615 4.584-2.727l3.71-3.291c.493.081.988.155 1.488.23l-4.429 3.93c-.842.747-1.812 1.608-2.929 2.225a6.7 6.7 0 0 1-1.967.734 4 4 0 0 1-.307.046 2 2 0 0 1-.301.021" style="fill:#b5541e;fill-opacity:1;fill-rule:nonzero;stroke:none;stroke-width:.0352778" transform="translate(195.408 7.348)scale(.71913)"/><path d="M-131.222 150.839q-.279 0-.562-.01l2.848-8.549 1.83-1.626c.293-.26.649-.575.945-.966l6.76.211c-.137.434-.456.872-.783 1.291l-5.47 7c-.596.765-1.273 1.63-2.125 2.077-.723.378-1.597.473-2.36.53q-.532.042-1.083.042" style="fill:#ca7121;fill-opacity:1;fill-rule:nonzero;stroke:none;stroke-width:.0352778" transform="translate(195.408 7.348)scale(.71913)"/><path d="M-131.22 152.06q-.48 0-.966-.025l.402-1.207q.283.01.562.01.55 0 1.083-.041c.763-.057 1.637-.152 2.36-.53.852-.448 1.529-1.312 2.126-2.077l5.47-7c.326-.42.645-.857.782-1.29l.961.031.192-.243a.8.8 0 0 0 .139-.265c.026 1.062-.68 1.969-1.112 2.519l-5.469 7.003c-.673.86-1.435 1.838-2.522 2.405-.928.487-1.95.6-2.834.667q-.579.043-1.174.043m-7.741-1.143-.837-.198q-.027-.043-.054-.092.572-.128 1.104-.352z" style="fill:#b5541e;fill-opacity:1;fill-rule:nonzero;stroke:none;stroke-width:.0352778" transform="translate(195.408 7.348)scale(.71913)"/><path d="M-140.52 149.505c-1.966-3.28-4.754-7.683-6.6-9.68a.9.9 0 0 0-.566-.282h-.002a.9.9 0 0 0-.47-.13 1 1 0 0 0-.33.06c-.644.246-1.411.51-2.237.79-.321-.565-.507-1.01-.52-1.27-.107-2.173 6.75-9.296 10.132-12.305l7.86 7.09-4.94 14.831c-.724.448-1.5.787-2.321.893q-.002.005-.005.004m12.356-9.546.407-1.224.457.412a8 8 0 0 1-.617.593z" style="fill:#d27323;fill-opacity:1;fill-rule:nonzero;stroke:none;stroke-width:.0352778" transform="translate(195.408 7.348)scale(.71913)"/><path d="M-139.852 150.627c-.209-.353-.432-.73-.668-1.122q.002.001.005-.004c.821-.105 1.597-.444 2.322-.892l-.554 1.665a6.6 6.6 0 0 1-1.105.353m10.916-8.347.773-2.321.246-.219c.233-.208.443-.399.618-.593l.58.522.558.018c-.296.392-.652.706-.944.967zm-22.966-1.623c-.34-.638-.544-1.192-.564-1.605-.178-3.602 10.848-13.55 10.96-13.645a.67.67 0 0 1 .453-.163h.037a.9.9 0 0 0-.389.55.9.9 0 0 0 .267.872l.024.021c-3.382 3.01-10.238 10.132-10.131 12.305.013.261.198.706.52 1.27q-.48.164-.982.332z" style="fill:#b5541e;fill-opacity:1;fill-rule:nonzero;stroke:none;stroke-width:.0352778" transform="translate(195.408 7.348)scale(.71913)"/><path d="m-119.384 138.679-6.849-.216-1.101-.994 2.425-7.282c2.627 3.203 5.023 7.056 5.525 8.492m-13.447-6.167-7.034-6.346a22.3 22.3 0 0 1 5.456-.66c1.273 0 2.53.095 3.833.233z" style="fill:#d57425;fill-opacity:1;fill-rule:nonzero;stroke:none;stroke-width:.0352778" transform="translate(195.408 7.348)scale(.71913)"/><path d="m-118.44 139.931-.961-.032-6.76-.211-.558-.018-.58-.522-.457-.413.422-1.266 1.101.994 6.85.216c-.503-1.436-2.899-5.289-5.526-8.492l.445-1.34c3.111 3.65 6.072 8.389 6.367 9.952.02.102.069.363-.012.624a.8.8 0 0 1-.14.265zm-14.814-6.152-7.86-7.091-.025-.022a.9.9 0 0 1-.267-.87.9.9 0 0 1 .628-.657 25 25 0 0 1 2.886-.61q.773-.11 1.518-.173a24 24 0 0 1 1.95-.074c.924 0 1.837.05 2.764.127q.718.06 1.45.14c.01 0 .019.005.028.005l-.395 1.185c-1.304-.137-2.56-.233-3.833-.233a22.3 22.3 0 0 0-5.456.66l7.034 6.346z" style="fill:#b5541e;fill-opacity:1;fill-rule:nonzero;stroke:none;stroke-width:.0352778" transform="translate(195.408 7.348)scale(.71913)"/><path d="M-136.003 154.998q-.28 0-.56-.077a2.23 2.23 0 0 1-1.362-1.122 2.4 2.4 0 0 1-.152-1.87l20.186-60.61.54-.075c.105 1.104.214 2.05.297 2.72-.05.296-.062.59-.03.868l.011.102.047.095c.424.84.993 1.838 1.638 2.897l-5.57 16.728c-.978.604-1.844 1.196-2.451 1.722a.84.84 0 0 0-.278.508.93.93 0 0 0-.096.68c.199.82.41 1.85.635 2.936q.045.226.093.452l-10.787 32.388c-.336 1.009-1.224 1.658-2.16 1.658" style="fill:#ce7022;fill-opacity:1;fill-rule:nonzero;stroke:none;stroke-width:.0352778" transform="translate(195.408 7.348)scale(.71913)"/><path d="M-136.001 156.159a3.2 3.2 0 0 1-.847-.117q-.018-.001-.035-.007a3.4 3.4 0 0 1-1.136-.578c.007-1.037-.057-1.662-.21-1.972a47 47 0 0 0-.993-1.775q.022-.075.046-.148l.215-.645.214-.643.554-1.665 4.94-14.83.422-1.267 2.255-6.773.395-1.186 4.503-13.522.369-1.107 4.731-14.207.368-1.104 1.042-3.129q.641-.078 1.277-.166l-20.186 60.611a2.4 2.4 0 0 0 .152 1.87c.292.554.776.952 1.362 1.122q.28.077.56.077c.937 0 1.825-.649 2.161-1.658l10.787-32.388c.15.726.307 1.481.475 2.24l-1.884 5.655-.445 1.34-2.425 7.282-.422 1.266-.407 1.224-.773 2.322-2.848 8.547-.401 1.207-.557 1.672c-.498 1.492-1.834 2.452-3.26 2.452m15.044-41.505 5.57-16.728q.383.63.797 1.28l-2.41 7.232-.659 1.983-1.776 5.334c-.523.296-1.036.6-1.522.9" style="fill:#b5541e;fill-opacity:1;fill-rule:nonzero;stroke:none;stroke-width:.0352778" transform="translate(195.408 7.348)scale(.71913)"/><path d="m-93.337 94.48-4.6-9.607c1.39-.928 2.6-1.947 3.602-3.066.773 1.323 1.312 2.286 1.425 2.516.226.571-.031 4.328-.24 7.344-.063.942-.13 1.895-.187 2.812" style="fill:#d57425;fill-opacity:1;fill-rule:nonzero;stroke:none;stroke-width:.0352778" transform="translate(195.408 7.348)scale(.71913)"/><path d="M-92.324 97.312c-.116-.886-.497-1.753-.917-2.632l-.096-.2c.057-.918.124-1.87.187-2.813.209-3.016.466-6.773.24-7.344-.113-.23-.652-1.193-1.425-2.516q.413-.463.78-.949.207.349.395.67a70 70 0 0 1 1.245 2.198l.05.092c.148.304.208.924.194 1.969-.011 1.284-.131 3.206-.321 5.962-.135 1.94-.272 3.937-.332 5.563" style="fill:#b5541e;fill-opacity:1;fill-rule:nonzero;stroke:none;stroke-width:.0352778" transform="translate(195.408 7.348)scale(.71913)"/><path d="M-106.358 107.116c-.405 0-.818-.152-1.365-.456-.808-.522-5.874-7.552-8.11-11.85a1 1 0 0 0 .103-.056l8.86-5.81c2.982-.935 5.67-2.078 7.949-3.447l4.635 9.684c.554 1.164.999 2.209.787 3.217-.26 1.253-1.485 2.092-2.72 2.847l-8.756 5.37c-.543.335-.96.5-1.383.5" style="fill:#ca7121;fill-opacity:1;fill-rule:nonzero;stroke:none;stroke-width:.0352778" transform="translate(195.408 7.348)scale(.71913)"/><path d="M-106.354 108.27c-.603 0-1.217-.198-1.937-.597-.494-.275-1.956-2.12-3.59-4.427q-.37-.526-.749-1.076a103 103 0 0 1-1.961-2.964q-.413-.65-.797-1.28a43 43 0 0 1-1.638-2.897l-.046-.095-.012-.102a3.1 3.1 0 0 1 .03-.868l.023.18a.85.85 0 0 0 .84.748.85.85 0 0 0 .357-.081c2.237 4.297 7.303 11.327 8.111 11.85.547.303.96.455 1.365.455.424 0 .84-.166 1.383-.501l8.756-5.37c1.235-.755 2.46-1.594 2.72-2.847.212-1.009-.233-2.053-.787-3.217l-4.635-9.684q.509-.306.984-.624l4.6 9.606.096.201c.42.879.8 1.746.917 2.632.06.434.056.875-.039 1.323-.356 1.704-1.863 2.751-3.249 3.602l-8.756 5.365c-.727.445-1.351.667-1.986.667" style="fill:#b5541e;fill-opacity:1;fill-rule:nonzero;stroke:none;stroke-width:.0352778" transform="translate(195.408 7.348)scale(.71913)"/><path d="M-115.942 93.505a92 92 0 0 1-.261-2.434c1.96-.307 3.86-.68 5.683-1.118z" style="fill:#d27323;fill-opacity:1;fill-rule:nonzero;stroke:none;stroke-width:.0352778" transform="translate(195.408 7.348)scale(.71913)"/><path d="M-116.19 94.892a.85.85 0 0 1-.84-.748l-.024-.18a93 93 0 0 1-.296-2.72q.576-.084 1.147-.173c.077.826.166 1.644.261 2.434l5.422-3.552a58 58 0 0 0 3.65-1.009l-8.86 5.81a.85.85 0 0 1-.461.138" style="fill:#b5541e;fill-opacity:1;fill-rule:nonzero;stroke:none;stroke-width:.0352778" transform="translate(195.408 7.348)scale(.71913)"/><path d="M-114.07 116.771h-.015l-7.501-.247c2.89-2.004 8.34-4.635 8.994-4.907l.073-.004c.7 0 3.389.723 5.378 1.263.653.173 1.313.353 1.955.522l-8.067 3.023c-.248.096-.532.201-.817.35" style="fill:#d57425;fill-opacity:1;fill-rule:nonzero;stroke:none;stroke-width:.0352778" transform="translate(195.408 7.348)scale(.71913)"/><path d="M-123.687 116.884a.84.84 0 0 1 .278-.508c.607-.526 1.473-1.118 2.45-1.722.487-.3 1-.603 1.523-.9 2.853-1.629 5.983-3.114 6.43-3.287.117-.046.265-.07.46-.07.777 0 2.312.377 5.723 1.298 1.464.395 2.97.8 4.201 1.083q-.064-.005-.123-.004c-.783 0-1.52.275-2.067.483l-.374.141c-.642-.17-1.302-.35-1.955-.522-1.99-.54-4.678-1.263-5.378-1.263q-.04.002-.073.004c-.654.272-6.103 2.903-8.994 4.907l-1.37-.046h-.03a.8.8 0 0 0-.628.304 1 1 0 0 0-.073.102" style="fill:#b5541e;fill-opacity:1;fill-rule:nonzero;stroke:none;stroke-width:.0352778" transform="translate(195.408 7.348)scale(.71913)"/><path d="m-105.807 133.828-7.134-16.214q.058-.025.118-.046l8.441-3.168c.59-.218 1.132-.405 1.637-.405.233 0 .458.042.677.137.9.399 1.485 1.683 1.969 2.854l3.587 8.756c.438 1.066.413 1.609-.102 2.505-.427.59-5.743 4.078-9.193 5.58" style="fill:#ca7121;fill-opacity:1;fill-rule:nonzero;stroke:none;stroke-width:.0352778" transform="translate(195.408 7.348)scale(.71913)"/><path d="m-105.906 135.193-.134-.004a2.3 2.3 0 0 1-.674-.152q.086.002.159.004l.025.004c.264 0 .508-.13.66-.352a.89.89 0 0 0 .066-.85l-.004-.015c3.45-1.502 8.767-4.991 9.194-5.58.515-.897.54-1.44.102-2.505l-3.588-8.756c-.483-1.171-1.069-2.456-1.968-2.854a1.7 1.7 0 0 0-.678-.138c-.504 0-1.047.187-1.637.406l-8.44 3.168q-.06.02-.118.046l-.016-.036c-.207-.472-.643-.786-1.113-.807.284-.149.569-.254.817-.35l8.066-3.023.374-.141c.547-.208 1.284-.483 2.067-.483q.06-.001.124.004c.346.01.698.08 1.048.236 1.315.586 2.007 2.053 2.603 3.51l3.591 8.756c.579 1.408.53 2.35-.183 3.591-.582 1.016-7.077 5.003-10.22 6.273l-.124.05" style="fill:#b5541e;fill-opacity:1;fill-rule:nonzero;stroke:none;stroke-width:.0352778" transform="translate(195.408 7.348)scale(.71913)"/><path d="M-107.158 133.796c-4.437-.2-9.796-.96-11.184-2.508-1.734-1.94-2.817-7.197-3.608-11.031-.188-.918-.368-1.789-.54-2.54l8.35.271a.2.2 0 0 1 .065.081z" style="fill:#d27323;fill-opacity:1;fill-rule:nonzero;stroke:none;stroke-width:.0352778" transform="translate(195.408 7.348)scale(.71913)"/><path d="m-106.53 135.045-.025-.004c-.05 0-.102-.004-.159-.004-2.614-.095-10.432-.579-12.54-2.935-1.55-1.736-2.548-5.38-3.326-8.911-.168-.759-.325-1.514-.475-2.24l-.093-.452c-.224-1.087-.436-2.117-.635-2.935a.93.93 0 0 1 .096-.68 1 1 0 0 1 .073-.103.8.8 0 0 1 .628-.304h.03l1.37.046 7.501.247h.015c.47.021.907.335 1.114.808l.015.035 7.134 16.214.004.014a.89.89 0 0 1-.067.85.8.8 0 0 1-.66.353m-.392-.713h.004zm-15.568-16.615c.172.751.352 1.622.54 2.54.791 3.834 1.874 9.09 3.608 11.031 1.388 1.549 6.748 2.307 11.184 2.508l-6.917-15.727a.2.2 0 0 0-.064-.08z" style="fill:#b5541e;fill-opacity:1;fill-rule:nonzero;stroke:none;stroke-width:.0352778" transform="translate(195.408 7.348)scale(.71913)"/><path d="M-131.893 174.07c1.057-4.273 2.656-8.845 4.367-10.242 2.862-2.342 8.676-4.55 13.01-5.563-1.504 2.819-2.193 5.898-2.052 9.183-1.872.532-11.28 3.316-15.325 6.621" style="fill:#d57425;fill-opacity:1;fill-rule:nonzero;stroke:none;stroke-width:.0352778" transform="translate(195.408 7.348)scale(.71913)"/><path d="m-133.656 176.341.013-.085c.524-2.543 2.46-11.02 5.343-13.377 3.198-2.614 9.57-4.978 14.21-5.962a1.12 1.12 0 0 1 .84.138q-.038-.005-.078-.004h-.035a.86.86 0 0 0-.7.413q-.237.395-.452.8c-4.335 1.013-10.149 3.221-13.011 5.564-1.711 1.397-3.31 5.969-4.367 10.24-.904.738-1.54 1.504-1.763 2.273" style="fill:#b5541e;fill-opacity:1;fill-rule:nonzero;stroke:none;stroke-width:.0352778" transform="translate(195.408 7.348)scale(.71913)"/><path d="M-109.106 180.13c-.952-3.154-4.32-10.005-6.19-12.114l-.019-.074c-.243-3.366.436-6.51 2.017-9.356 2.693 3.746 6.873 10.664 7.036 12.308.158 1.598-.974 4.47-2.068 7.246-.26.66-.525 1.33-.776 1.99" style="fill:#ca7121;fill-opacity:1;fill-rule:nonzero;stroke:none;stroke-width:.0352778" transform="translate(195.408 7.348)scale(.71913)"/><path d="M-108.64 182.469c-.028-.737-.215-1.436-.374-2.018a5 5 0 0 0-.092-.321c.25-.66.515-1.33.776-1.99 1.094-2.776 2.226-5.648 2.068-7.246-.163-1.644-4.343-8.562-7.036-12.308-1.581 2.847-2.26 5.99-2.017 9.356l.02.074c-.271-.304-.51-.512-.707-.593l-.195-.081-.202.06c-.047.01-.103.028-.169.046-.141-3.285.548-6.364 2.053-9.183q.214-.406.453-.8a.86.86 0 0 1 .699-.414h.035q.04-.001.08.004a.8.8 0 0 1 .581.321c2.11 2.854 7.392 11.085 7.622 13.399.19 1.89-.946 4.77-2.149 7.814-.515 1.312-1.047 2.656-1.446 3.88" style="fill:#b5541e;fill-opacity:1;fill-rule:nonzero;stroke:none;stroke-width:.0352778" transform="translate(195.408 7.348)scale(.71913)"/><path d="M-126.64 190.152c-.486 0-.924-.098-1.272-.349-.591-.427-.77-1.22-.928-2.134-.47-2.71-1.244-4.604-2.064-6.611-.535-1.305-1.087-2.657-1.593-4.329.58-2.706 10.05-6.336 16.16-8.075 1.22 1.097 5.224 8.707 6.144 12.115.304 1.128.52 2.13.085 2.988-.562 1.107-2.045 1.7-3.516 2.211l-10.379 3.602c-.883.307-1.827.582-2.637.582" style="fill:#d27323;fill-opacity:1;fill-rule:nonzero;stroke:none;stroke-width:.0352778" transform="translate(195.408 7.348)scale(.71913)"/><path d="M-126.65 191.373c-.718 0-1.397-.159-1.978-.579-1.043-.754-1.268-2.056-1.418-2.917-.446-2.579-1.196-4.413-1.99-6.354-.56-1.372-1.14-2.786-1.673-4.579l-.036-.12.015-.127c.015-.12.04-.236.074-.356.223-.769.86-1.534 1.763-2.272 4.045-3.305 13.454-6.089 15.325-6.621q.099-.029.169-.046l.202-.06.195.08c.196.082.436.29.707.594 1.868 2.11 5.237 8.96 6.19 12.114q.053.167.091.32c.159.583.346 1.282.374 2.019.021.607-.07 1.235-.378 1.841-.769 1.517-2.498 2.223-4.205 2.815l-10.378 3.602c-.992.343-2.058.646-3.048.646m10.312-22.719c-6.11 1.74-15.58 5.37-16.16 8.075.506 1.672 1.058 3.023 1.593 4.329.82 2.007 1.595 3.901 2.064 6.61.158.914.337 1.708.928 2.135.348.25.786.35 1.272.35.81 0 1.754-.276 2.637-.583l10.379-3.602c1.471-.511 2.954-1.104 3.516-2.212.434-.857.22-1.859-.085-2.988-.92-3.407-4.924-11.017-6.144-12.114" style="fill:#b5541e;fill-opacity:1;fill-rule:nonzero;stroke:none;stroke-width:.0352778" transform="translate(195.408 7.348)scale(.71913)"/><path d="m-139.779 164.731-5.303-11.08c-.172-.36-.363-.759-.601-1.14l-.01-.102-1.346-10.587c3.004 3.849 7.36 11.483 7.71 12.195.24.604-.033 4.565-.252 7.747a443 443 0 0 0-.198 2.967" style="fill:#d57425;fill-opacity:1;fill-rule:nonzero;stroke:none;stroke-width:.0352778" transform="translate(195.408 7.348)scale(.71913)"/><path d="M-138.708 167.72c-.125-.936-.527-1.853-.97-2.777l-.1-.212c.06-.97.129-1.975.197-2.967.219-3.182.492-7.143.251-7.747-.35-.712-4.705-8.346-7.71-12.195l-.202-1.591a.94.94 0 0 0-.444-.688c.213.021.416.12.565.282 1.847 1.997 4.635 6.4 6.601 9.68.236.392.46.77.668 1.122q.027.049.054.092.314.535.576.991c.54.932.901 1.588.994 1.775.152.31.215.935.209 1.972-.01 1.354-.137 3.411-.342 6.392-.046.67-.093 1.351-.137 2.018-.09 1.369-.169 2.699-.21 3.852" style="fill:#b5541e;fill-opacity:1;fill-rule:nonzero;stroke:none;stroke-width:.0352778" transform="translate(195.408 7.348)scale(.71913)"/><path d="M-153.512 178.056c-.428 0-.864-.16-1.437-.477-.853-.553-6.197-7.969-8.556-12.499a1 1 0 0 0 .11-.06l17.047-11.179.163.335 5.404 11.296c.588 1.224 1.056 2.328.834 3.39-.278 1.323-1.57 2.209-2.87 3.006l-9.234 5.662c-.577.353-1.014.526-1.461.526" style="fill:#ca7121;fill-opacity:1;fill-rule:nonzero;stroke:none;stroke-width:.0352778" transform="translate(195.408 7.348)scale(.71913)"/><path d="M-153.509 179.276c-.636 0-1.281-.211-2.04-.631-1.13-.628-7.013-8.971-9.214-13.335l-.049-.099-.012-.11q-.048-.444.032-.913l.024.19a.9.9 0 0 0 .886.787.9.9 0 0 0 .377-.085c2.359 4.53 7.703 11.945 8.556 12.5.574.317 1.01.476 1.437.476.447 0 .885-.173 1.461-.526l9.234-5.662c1.3-.797 2.592-1.683 2.87-3.006.222-1.062-.246-2.166-.833-3.39l-5.405-11.296-.163-.335h.002c.44-.29.694-.8.663-1.33.239.38.43.78.601 1.14l5.304 11.08.1.212c.444.924.845 1.841.97 2.776.062.459.056.92-.042 1.394-.191.91-.692 1.644-1.33 2.261-.526.508-1.146.938-1.761 1.326-.113.075-.225.142-.337.212l-5.008 3.07-1.617.99-2.608 1.599c-.768.472-1.427.705-2.097.705" style="fill:#b5541e;fill-opacity:1;fill-rule:nonzero;stroke:none;stroke-width:.0352778" transform="translate(195.408 7.348)scale(.71913)"/><path d="M-163.62 163.705c-.752-6.216-1.06-13.956.479-16.073 1.847-2.543 7.612-4.473 11.822-5.88 1.056-.353 2.061-.689 2.91-1.003l1.503 11.815a.26.26 0 0 1-.11.254z" style="fill:#d27323;fill-opacity:1;fill-rule:nonzero;stroke:none;stroke-width:.0352778" transform="translate(195.408 7.348)scale(.71913)"/><path d="M-163.882 165.165a.9.9 0 0 1-.886-.787l-.024-.19c-.439-3.528-1.55-14.235.661-17.276 2.049-2.818 7.654-4.723 12.23-6.254l.194-.064q.502-.168.981-.331a61 61 0 0 0 2.238-.79 1 1 0 0 1 .33-.06.9.9 0 0 1 .47.13h.001a.94.94 0 0 1 .445.688l.202 1.59 1.347 10.588q.006.051.009.102c.03.53-.222 1.04-.663 1.33h-.002l-17.048 11.18a.9.9 0 0 1-.486.145m15.473-24.417c-.849.314-1.854.65-2.91 1.002-4.21 1.408-9.975 3.338-11.822 5.881-1.539 2.117-1.23 9.857-.479 16.073l16.603-10.887a.26.26 0 0 0 .11-.254z" style="fill:#b5541e;fill-opacity:1;fill-rule:nonzero;stroke:none;stroke-width:.0352778" transform="translate(195.408 7.348)scale(.71913)"/><path d="M-147.015 111.987c-2.083-.582-8.694-2.32-13.382-2.32-.628 0-1.22.031-1.763.098 2.743-2.794 6.017-5.539 7.982-5.803a14 14 0 0 1 1.757-.106c3.32 0 7.798.92 11.096 1.997-2.427 1.478-4.337 3.538-5.69 6.134" style="fill:#d57425;fill-opacity:1;fill-rule:nonzero;stroke:none;stroke-width:.0352778" transform="translate(195.408 7.348)scale(.71913)"/><path d="m-164.753 110.746.05-.06c1.57-1.743 6.962-7.476 10.362-7.934.59-.081 1.24-.117 1.932-.117 3.716 0 8.663 1.062 12.18 2.3.268.096.488.28.62.519a.83.83 0 0 0-.89-.07q-.422.225-.826.469c-3.298-1.076-7.777-1.997-11.096-1.997-.633 0-1.224.035-1.757.106-1.965.264-5.239 3.009-7.982 5.803-1.124.145-2.034.451-2.593.98" style="fill:#b5541e;fill-opacity:1;fill-rule:nonzero;stroke:none;stroke-width:.0352778" transform="translate(195.408 7.348)scale(.71913)"/><path d="M-146.663 125.495c.643-2.988 1.014-9.853.475-12.407l.014-.053c1.306-2.72 3.238-4.833 5.748-6.293.467 4.244.702 11.624.097 12.982-.585 1.312-2.78 3.01-4.903 4.653-.477.367-.96.74-1.431 1.118" style="fill:#ca7121;fill-opacity:1;fill-rule:nonzero;stroke:none;stroke-width:.0352778" transform="translate(195.408 7.348)scale(.71913)"/><path d="M-147.387 127.683c.33-.618.5-1.281.632-1.8q.047-.18.092-.388c.47-.377.954-.751 1.431-1.118 2.123-1.644 4.318-3.34 4.903-4.653.605-1.358.37-8.738-.097-12.982-2.51 1.46-4.442 3.573-5.748 6.293l-.014.053c-.08-.38-.182-.667-.305-.829l-.124-.162-.195-.053q-.093-.029-.203-.057c1.353-2.596 3.263-4.656 5.69-6.134q.405-.243.827-.47a.83.83 0 0 1 .78.004.8.8 0 0 1 .436.614c.406 3.26.934 12.284.07 14.22-.71 1.595-2.925 3.306-5.271 5.123-1.004.776-2.033 1.573-2.904 2.339" style="fill:#b5541e;fill-opacity:1;fill-rule:nonzero;stroke:none;stroke-width:.0352778" transform="translate(195.408 7.348)scale(.71913)"/><path d="M-150.668 128.268c-.728 0-1.536-.155-2.29-.32l-9.952-2.185c-1.35-.3-2.789-.733-3.226-1.696-.276-.607-.066-1.306.215-2.089.849-2.36 1.082-4.223 1.328-6.195.16-1.277.324-2.596.669-4.141.512-.544 1.71-.766 3.29-.766 3.634 0 9.284 1.171 13.23 2.272.478 1.464.257 9.338-.536 12.432-.26 1.016-.533 1.894-1.244 2.339-.406.257-.92.35-1.484.35" style="fill:#d27323;fill-opacity:1;fill-rule:nonzero;stroke:none;stroke-width:.0352778" transform="translate(195.408 7.348)scale(.71913)"/><path d="m-168.595 77.585.01-.138.186-2.261-.116 1.45a98 98 0 0 1-.08.949m17.937 51.911c-.83 0-1.706-.166-2.563-.357l-9.951-2.183c-1.646-.36-3.418-.928-4.079-2.385-.503-1.111-.092-2.25.18-3.006.802-2.233 1.027-4.028 1.265-5.933.168-1.348.342-2.738.721-4.403l.03-.127.08-.106a2 2 0 0 1 .222-.25c.559-.53 1.47-.836 2.593-.981a15 15 0 0 1 1.763-.099c4.688 0 11.3 1.74 13.382 2.321.074.018.141.04.203.057l.195.053.124.162c.123.162.225.448.305.829.54 2.554.168 9.42-.475 12.407q-.044.207-.092.388c-.132.519-.303 1.182-.632 1.8-.262.486-.623.945-1.147 1.273-.633.399-1.359.54-2.124.54m-9.976-18.62c-1.58 0-2.778.222-3.29.766-.345 1.545-.51 2.864-.67 4.141-.245 1.972-.478 3.835-1.327 6.195-.28.783-.491 1.482-.215 2.088.437.964 1.876 1.397 3.226 1.697l9.952 2.184c.754.166 1.562.321 2.29.321.564 0 1.078-.092 1.484-.35.711-.444.985-1.322 1.244-2.338.793-3.094 1.014-10.968.536-12.432-3.946-1.1-9.596-2.272-13.23-2.272" style="fill:#b5541e;fill-opacity:1;fill-rule:nonzero;stroke:none;stroke-width:.0352778" transform="translate(195.408 7.348)scale(.71913)"/><path d="M-168.225 81.183c-.624 5.768-1.643 13.345-2.707 21.262-2.289 17.018-4.883 36.304-4.368 43.656 1.032 14.736 16.022 53.255 43.692 53.255q.175.001.351-.004c15.525-.18 26.512-12.005 32.996-21.89 7.62-11.623 11.86-25.117 11.984-31.912.197-11.218-3.57-44.668-6.044-65.214-5.736 9.12-23.324 12.513-38.669 12.59h-.395c-15.822 0-30.854-4.713-36.655-11.514a5 5 0 0 1-.185-.23zm36.609 119.623c-15.884 0-26.755-11.846-33.095-21.83-7.187-11.32-11.494-25.054-12.035-32.773-.525-7.5 2.08-26.867 4.377-43.952 1.297-9.642 2.525-18.775 3.05-24.72l.011-.144c.039-.459.103-1.242.145-1.757l.017-.204.023-.29h.016c.073-.402.245-.712.766-.674.536.043.643.445.65.787l.013.004-.017.2-.008.117-.09 1.122q-.036.459-.08.945a4 4 0 0 0 .936 2.837c5.458 6.4 20.374 11.003 35.568 11.003h.372c16.048-.081 34.57-3.764 38.433-13.868l1.045-2.734.352 2.904c2.456 20.277 6.548 56.049 6.336 67.796-.127 7.176-4.364 20.705-12.22 32.682-6.674 10.18-18.025 22.355-34.189 22.546q-.187.005-.376.004" style="fill:#211d1d;fill-opacity:1;fill-rule:nonzero;stroke:none;stroke-width:.0352778" transform="translate(195.408 7.348)scale(.71913)"/></svg>