<svg xmlns="http://www.w3.org/2000/svg" xml:space="preserve" width="200mm" height="200mm" viewBox="0 0 200 200"><path d="M-124.714 223.873c-3.22 0-6.332-.466-9.334-.762-3.257-.325-6.4-.508-9.3-1.14-3.288-.712-6.378-1.474-9.063-2.522-3.316-1.291-5.95-3.16-8.089-4.85-3.009-2.378-4.738-4.989-4.738-7.868 0-2.878 1.764-5.443 4.77-7.82 2.141-1.69 4.78-3.5 8.096-4.791a59.5 59.5 0 0 1 9.003-2.735c2.9-.627 6.04-.948 9.296-1.27a96 96 0 0 1 3.884-.306v.151c.004.512-.021 1.03-.081 1.538-.522 4.4-2.635 8.718-3.898 11.3-.681 1.393-.956 1.975-.992 2.399q-.052.642.558 1.316c1.344 1.47 5.034 2.991 10.255 3.065q.117.002.233.004c4.865 0 7.82-2.081 9.154-3.33.667-.617.72-1.658.117-2.374-1.369-1.62-2.576-4.85-3.486-9.342a35 35 0 0 1-.6-4.66 123 123 0 0 1 3.567.31c3.256.322 6.336.91 9.222 1.602 6.272 1.5 2.392.494 8.978 2.632 3.38 1.093 6.092 2.759 8.23 4.452 3.006 2.378 4.653 4.981 4.653 7.86 0 2.878-1.59 5.56-4.596 7.937-2.142 1.69-4.953 3.144-8.266 4.438-2.688 1.044-5.669 2.078-8.953 2.794-2.9.628-5.998 1.231-9.25 1.552-3.006.3-6.15.42-9.37.42" style="fill:#fcfefe;fill-opacity:1;fill-rule:nonzero;stroke:none;stroke-width:.0352778" transform="translate(182.273 42.893)scale(.66585)"/><path d="M-124.714 190.373c-3.059 0-6.184.155-9.289.462-2.938.29-6.272.621-9.214 1.26a59.4 59.4 0 0 0-8.894 2.698c-3.506 1.37-6.191 3.33-7.905 4.685-3.027 2.392-4.495 4.763-4.495 7.253 0 2.505 1.5 4.96 4.46 7.3 1.932 1.527 4.575 3.446 7.901 4.744 2.794 1.087 6.096 1.87 8.954 2.49 2.237.484 4.614.7 7.137.929q1.033.094 2.081.194c.74.074 1.489.158 2.244.243 2.279.254 4.632.515 7.02.515 3.436 0 6.477-.134 9.296-.413 3.344-.331 6.512-.966 9.168-1.541 2.749-.597 5.475-1.447 8.845-2.763 3.453-1.344 6.096-2.762 8.078-4.328 2.868-2.269 4.322-4.749 4.322-7.37 0-2.578-1.43-4.963-4.375-7.292-2.47-1.95-5.164-3.411-8.008-4.332-2.226-.723-3.27-1.09-3.894-1.312-.964-.339-.964-.339-3.041-.83-.519-.123-1.165-.278-1.987-.472-3.277-.786-6.261-1.305-9.122-1.587-2.512-.247-5.832-.533-9.282-.533m0 34.223c-2.466 0-4.865-.268-7.179-.526a185 185 0 0 0-2.23-.24q-1.041-.1-2.067-.194c-2.568-.232-4.992-.451-7.313-.956-2.914-.631-6.283-1.428-9.172-2.557-3.507-1.365-6.265-3.366-8.276-4.957-3.324-2.628-5.01-5.464-5.01-8.435 0-2.96 1.651-5.704 5.045-8.389 1.789-1.414 4.59-3.46 8.28-4.896a60 60 0 0 1 9.112-2.766c3.023-.656 6.4-.991 9.38-1.288a97 97 0 0 1 9.43-.469c3.514 0 6.88.29 9.423.54 2.928.29 5.976.822 9.32 1.62.819.197 1.464.348 1.983.472 2.113.5 2.152.511 3.185.875.618.218 1.655.582 3.863 1.298 3.01.977 5.853 2.515 8.46 4.575 3.267 2.586 4.925 5.42 4.925 8.428 0 3.087-1.64 5.948-4.872 8.506-2.1 1.658-4.862 3.143-8.453 4.544-3.443 1.344-6.237 2.215-9.063 2.825-2.695.586-5.912 1.232-9.33 1.57-2.869.282-5.956.42-9.441.42" style="fill:#211d1d;fill-opacity:1;fill-rule:nonzero;stroke:none;stroke-width:.0352778" transform="translate(182.273 42.893)scale(.66585)"/><path d="M-114.77 128.21c-3.488 5.034-5.132 10.672-5.097 16.365l.148 43.34c.01 2.268.233 4.536.681 6.762.65 3.21 1.8 7.496 3.644 9.67.343.405.328 1.012-.06 1.372-1.217 1.143-4.092 3.2-8.883 3.136-6.618-.095-10.188-2.522-10.103-3.602.088-1.023 4.13-7.26 4.89-13.67q.094-.809.084-1.633l-.268-45.787c-.035-5.475-1.86-10.82-4.882-14.856l-5.215-8.407c3.676 4.213 8.933 6.675 14.5 6.675h.236c5.994-.063 12.467-3.447 16.192-8.368z" style="fill:#e6f6f4;fill-opacity:1;fill-rule:nonzero;stroke:none;stroke-width:.0352778" transform="translate(182.273 42.893)scale(.66585)"/><path d="M-133.71 205.288c.244.692 3.38 2.756 9.38 2.84 4.502.053 7.183-1.813 8.383-2.938.098-.092.095-.258-.004-.378-1.55-1.827-2.826-5.19-3.8-9.99a36 36 0 0 1-.691-6.904l-.149-43.343c-.038-5.99 1.768-11.786 5.222-16.767l2.416-3.715c-3.609 2.579-8.004 4.163-12.135 4.205h-.244c-4.032 0-7.944-1.252-11.246-3.528l2.56 4.128c3.151 4.22 4.975 9.775 5.007 15.261l.271 45.787c.004.572-.024 1.15-.091 1.722-.55 4.642-2.73 9.105-4.036 11.768-.364.741-.773 1.58-.843 1.852m9.595 4.294-.233-.004c-5.22-.074-8.91-1.595-10.255-3.066q-.61-.674-.557-1.316c.035-.423.31-1.005.991-2.399 1.263-2.582 3.376-6.9 3.898-11.3.06-.507.085-1.026.081-1.537l-.268-45.794c-.031-5.19-1.76-10.446-4.738-14.425l-.035-.053-5.214-8.407 1.16-.857c3.564 4.085 8.647 6.427 13.953 6.427h.236c5.723-.063 12.002-3.309 15.614-8.082l1.186.833-5.878 9.02c-3.284 4.738-5.002 10.252-4.97 15.946l.152 43.342a34.7 34.7 0 0 0 .663 6.625c.91 4.491 2.116 7.723 3.485 9.342.603.716.55 1.757-.116 2.374-1.334 1.249-4.29 3.33-9.155 3.33" style="fill:#211d1d;fill-opacity:1;fill-rule:nonzero;stroke:none;stroke-width:.0352778" transform="translate(182.273 42.893)scale(.66585)"/><path d="M-122.195 89.715c-.162 0-.321-.004-.476-.004a71 71 0 0 1-3.623-.155 167 167 0 0 1-5.401-.642c-.247-1.115-.717-2.141-1.387-2.984-1.175-1.478-2.635-3.316-5.493-3.69a3 3 0 0 0-.437-.029c-1.478 0-3.986.727-5.712 1.51l-15.769-27.562-1.637 2.706 15.12 26.394q-.4.38-.776.801c-1.009-.226-2-.458-2.963-.695-5.67-1.633-11.12-3.806-15.367-6.657l-.106.06c-2.946-4.208-6.643-11.303-6.643-11.303.064-19.858 37.61-24.747 49.21-24.747l.18.003c12.163.053 47.667 5.084 47.667 24.794l.617 1.573-8.237 11.465a47 47 0 0 1-3.705 1.828c-3.676 1.368-10.03 3.56-17.081 5.217-7.077 1.45-13.755 2.117-17.981 2.117" style="fill:#faf9ef;fill-opacity:1;fill-rule:nonzero;stroke:none;stroke-width:.0352778" transform="translate(182.273 42.893)scale(.66585)"/><path d="M-123.5 34.029c-4.167 0-8.421.212-12.644.631-4 .396-8.537.844-12.548 1.715-3.637.79-7.416 2.3-10.75 3.63-.687.275-1.347.54-1.979.783-4.254 1.658-7.21 3.302-10.205 5.67-4.174 3.298-6.202 6.59-6.202 10.057 0 3.485 2.07 6.89 6.156 10.118 2.639 2.088 6.251 4.71 10.805 6.484 3.814 1.488 8.308 2.55 12.203 3.397 3.051.663 6.293.956 9.722 1.266.935.085 1.88.17 2.83.265.642.064 1.316.134 2.014.205 3.771.388 8.05.829 11.698.829 4.265 0 7.394-.156 11.557-.568 4.555-.448 8.869-1.313 12.485-2.1 1.164-.25 2.413-.497 3.616-.737 3.482-.688 7.08-1.397 9.723-2.427 3.53-1.38 5.852-3.302 8.096-5.164.54-.445 1.097-.907 1.661-1.355 3.962-3.133 5.97-6.569 5.97-10.213 0-3.538-2.033-6.94-6.044-10.11-2.74-2.17-6.441-4.17-10.996-5.945-3.524-1.372-7.592-2.565-12.086-3.542-3.52-.762-7.902-1.714-12.45-2.162-3.414-.339-7.933-.727-12.632-.727m1.1 46.496c-3.722 0-8.04-.44-11.846-.832-.695-.075-1.369-.142-2.01-.205-.946-.095-1.885-.18-2.816-.265-3.475-.314-6.76-.614-9.899-1.294-3.951-.858-8.516-1.937-12.425-3.461-4.73-1.845-8.456-4.547-11.172-6.696-4.452-3.52-6.71-7.31-6.71-11.257 0-3.94 2.208-7.602 6.756-11.194 3.115-2.466 6.177-4.17 10.576-5.884.624-.243 1.284-.504 1.965-.776 3.386-1.355 7.225-2.886 10.982-3.704 4.092-.886 8.671-1.34 12.71-1.74 4.272-.423 8.576-.638 12.789-.638 4.762 0 9.33.392 12.777.734 4.629.458 9.056 1.418 12.612 2.19 4.572.992 8.71 2.205 12.305 3.606 4.692 1.827 8.516 3.902 11.37 6.16 4.374 3.457 6.593 7.242 6.593 11.246 0 4.11-2.194 7.93-6.519 11.349-.55.437-1.1.892-1.633 1.337-2.336 1.933-4.749 3.933-8.499 5.394-2.762 1.08-6.424 1.803-9.966 2.501-1.256.25-2.441.483-3.591.734-3.658.794-8.019 1.665-12.65 2.124-4.213.416-7.384.571-11.699.571" style="fill:#211d1d;fill-opacity:1;fill-rule:nonzero;stroke:none;stroke-width:.0352778" transform="translate(182.273 42.893)scale(.66585)"/><path d="m-139.69 96.88-21.766-38.005.95-1.573 22.528 39.38z" style="fill:#e6f6f4;fill-opacity:1;fill-rule:nonzero;stroke:none;stroke-width:.0352778" transform="translate(182.273 42.893)scale(.66585)"/><path d="m-160.786 58.882 21.41 37.377.46-.053-21.605-37.761zM-140 97.501l-22.13-38.636 1.637-2.706 23.456 41z" style="fill:#211d1d;fill-opacity:1;fill-rule:nonzero;stroke:none;stroke-width:.0352778" transform="translate(182.273 42.893)scale(.66585)"/><path d="M-133.537 86.29c1.644 2.067 1.849 5.111.935 7.63s-2.91 4.558-5.267 5.747c-2.487 1.256-5.493 1.594-8.026.49-2.53-1.1-4.43-3.789-4.265-6.61.099-1.747.272-3.278 1.154-4.788.843-1.446 1.887-2.755 3.203-3.771 1.312-1.016 5.55-2.487 7.154-2.177 2.597.508 3.856 1.898 5.112 3.478" style="fill:#ad9a27;fill-opacity:1;fill-rule:nonzero;stroke:none;stroke-width:.0352778" transform="translate(182.273 42.893)scale(.66585)"/><path d="M-133.435 95.638c-1.054 1.725-2.642 3.122-4.434 4.029-2.487 1.256-5.493 1.594-8.026.49-2.53-1.1-4.43-3.789-4.265-6.61.088-1.525.23-2.887.85-4.21.279 2.17 1.08 6.442 4.093 7.867 2.43 1.154 6.48 1.108 11.782-1.566" style="fill:#7f6b20;fill-opacity:1;fill-rule:nonzero;stroke:none;stroke-width:.0352778" transform="translate(182.273 42.893)scale(.66585)"/><path d="M-134.461 89.666c.159 3.323-2.657 4.953-4.576 4.847s-3.697-1.863-4.021-3.913c-.325-2.053.32-3.524 2.113-4.72.564-.377 1.922-1.256 3.594-.413 1.387.703 2.816 2.576 2.89 4.199" style="fill:#71331d;fill-opacity:1;fill-rule:nonzero;stroke:none;stroke-width:.0352778" transform="translate(182.273 42.893)scale(.66585)"/><path d="M-138.78 85.697c-.842 0-1.502.44-1.844.667-1.595 1.065-2.152 2.303-1.863 4.145.286 1.799 1.849 3.333 3.482 3.425.956.05 2.07-.406 2.833-1.164.557-.55 1.206-1.535 1.132-3.076-.067-1.454-1.41-3.122-2.572-3.708a2.54 2.54 0 0 0-1.167-.29m-.074 9.402a4 4 0 0 1-.216-.007c-2.187-.12-4.19-2.053-4.561-4.402-.363-2.29.388-3.973 2.364-5.292.54-.36 2.18-1.454 4.177-.448 1.47.744 3.115 2.748 3.21 4.688.092 1.969-.752 3.239-1.475 3.955-.949.942-2.268 1.506-3.5 1.506" style="fill:#211d1d;fill-opacity:1;fill-rule:nonzero;stroke:none;stroke-width:.0352778" transform="translate(182.273 42.893)scale(.66585)"/><path d="M-139.047 83.368c-1.665 0-5.3 1.228-6.4 2.078-1.157.893-2.187 2.106-3.062 3.606-.832 1.428-.977 2.896-1.072 4.53-.145 2.451 1.506 4.995 3.919 6.046 2.216.963 5.03.787 7.532-.48 2.346-1.185 4.163-3.16 4.985-5.426.906-2.508.575-5.284-.844-7.07-1.33-1.671-2.522-2.973-4.737-3.266a3 3 0 0 0-.321-.018m-3.528 18.03c-1.249 0-2.463-.232-3.55-.708-2.892-1.26-4.786-4.209-4.617-7.176.102-1.721.272-3.4 1.235-5.048.949-1.626 2.074-2.953 3.348-3.937 1.404-1.086 5.792-2.53 7.584-2.29 2.858.375 4.318 2.212 5.493 3.69 1.665 2.093 2.067 5.31 1.023 8.189-.917 2.536-2.942 4.748-5.549 6.067-1.598.805-3.316 1.214-4.967 1.214" style="fill:#211d1d;fill-opacity:1;fill-rule:nonzero;stroke:none;stroke-width:.0352778" transform="translate(182.273 42.893)scale(.66585)"/><path d="M-127.423 97.62c1.926 1.779 2.614 4.742 2.134 7.353-.476 2.614-2.085 4.917-4.177 6.445-2.208 1.612-5.062 2.402-7.694 1.704s-4.907-3.052-5.203-5.85c-.187-1.731-.269-3.259.342-4.875.585-1.548 1.39-2.991 2.497-4.19 1.112-1.2 3.422-3.077 6.502-3.052 3.083.024 4.124 1.104 5.599 2.466" style="fill:#ad9a27;fill-opacity:1;fill-rule:nonzero;stroke:none;stroke-width:.0352778" transform="translate(182.273 42.893)scale(.66585)"/><path d="M-125.815 106.786c-.748 1.855-2.06 3.471-3.65 4.632-2.21 1.612-5.063 2.402-7.695 1.704s-4.907-3.052-5.203-5.85c-.163-1.51-.244-2.867.14-4.26.625 2.088 2.09 6.159 5.24 7.104 2.543.762 6.459.102 11.168-3.33" style="fill:#7f6b20;fill-opacity:1;fill-rule:nonzero;stroke:none;stroke-width:.0352778" transform="translate(182.273 42.893)scale(.66585)"/><path d="M-130.46 99.039c2.709 1.778 2.363 5.013 1.17 6.523-1.195 1.51-3.608 1.95-5.411 1.04-1.806-.913-2.59-2.286-2.494-4.438.028-.677.12-2.293 1.753-3.175 1.355-.73 3.658-.822 4.981.05" style="fill:#71331d;fill-opacity:1;fill-rule:nonzero;stroke:none;stroke-width:.0352778" transform="translate(182.273 42.893)scale(.66585)"/><path d="M-132.884 98.993c-.843 0-1.694.19-2.283.508-1.365.737-1.425 2.106-1.45 2.688-.084 1.916.565 3.08 2.177 3.895 1.573.797 3.68.402 4.695-.882.61-.773.893-1.972.72-3.052-.12-.755-.526-1.82-1.753-2.628-.565-.37-1.334-.529-2.106-.529m.225 8.664c-.79 0-1.584-.173-2.307-.54-2.021-1.023-2.914-2.607-2.811-4.977.028-.646.116-2.61 2.06-3.659 1.443-.78 3.986-.973 5.577.071 1.58 1.04 2.1 2.43 2.258 3.415.23 1.407-.138 2.924-.952 3.955-.89 1.121-2.346 1.735-3.825 1.735" style="fill:#211d1d;fill-opacity:1;fill-rule:nonzero;stroke:none;stroke-width:.0352778" transform="translate(182.273 42.893)scale(.66585)"/><path d="M-133.283 95.546c-1.99 0-4.755 1.909-5.814 3.055-.973 1.052-1.774 2.396-2.381 4-.579 1.528-.483 2.992-.31 4.612.257 2.43 2.264 4.681 4.776 5.348 2.297.61 4.988.007 7.204-1.612 2.081-1.52 3.52-3.736 3.951-6.079.476-2.607-.293-5.284-1.961-6.822-1.486-1.373-2.576-2.226-5.18-2.488a3 3 0 0 0-.285-.014m-1.901 18.405c-.727 0-1.44-.088-2.128-.272-3.002-.797-5.32-3.404-5.63-6.343-.18-1.704-.286-3.38.381-5.147.656-1.743 1.538-3.214 2.614-4.378 1.214-1.312 4.53-3.655 7.063-3.408 2.96.3 4.24 1.299 5.852 2.79 1.951 1.804 2.861 4.897 2.314 7.885-.48 2.632-2.088 5.116-4.406 6.809-1.845 1.348-4 2.064-6.06 2.064" style="fill:#211d1d;fill-opacity:1;fill-rule:nonzero;stroke:none;stroke-width:.0352778" transform="translate(182.273 42.893)scale(.66585)"/><path d="M-131.727 112.028c-.18-.35-.17-.772.053-1.097.268-.395.716-.79 1.34-.497 1.09.522 6.114 11.97 5.317 12.276-.667.25-5.906-9.137-6.71-10.682" style="fill:#e6f6f4;fill-opacity:1;fill-rule:nonzero;stroke:none;stroke-width:.0352778" transform="translate(182.273 42.893)scale(.66585)"/><path d="M-130.588 110.96h.004zm-.624.8c.906 1.743 3.64 6.562 5.26 9-1.087-3.133-3.87-9.19-4.653-9.811-.117-.053-.304-.11-.59.31a.5.5 0 0 0-.017.501m6.117 11.56c-.455 0-1.168-.684-3.725-4.98-1.468-2.467-2.985-5.204-3.422-6.044a1.65 1.65 0 0 1 .088-1.69c.543-.793 1.316-1.05 2.067-.695 1.362.65 5.796 10.986 5.733 12.62-.021.5-.328.67-.459.719-.091.035-.18.07-.282.07" style="fill:#211d1d;fill-opacity:1;fill-rule:nonzero;stroke:none;stroke-width:.0352778" transform="translate(182.273 42.893)scale(.66585)"/><path d="M-125.095 126.852h-.236c-5.306 0-10.39-2.343-13.953-6.428l-.582.43a20 20 0 0 1-1.827-2.472l-24.55-39.603.021-.01q.176.248.346.483c1.475 2.032 7.454 4.226 15.127 6.113.956.275 1.923.536 2.89.783a15 15 0 0 0-1.648 2.318c-.963 1.648-1.133 3.327-1.235 5.048-.17 2.967 1.725 5.916 4.618 7.176 1.087.476 2.3.709 3.549.709q.17.001.339-.004-.174.386-.325.794c-.667 1.767-.56 3.443-.381 5.147.31 2.938 2.628 5.545 5.63 6.343.688.183 1.4.271 2.128.271a9.8 9.8 0 0 0 3.478-.66c.684 1.242 1.8 3.221 2.886 5.049 2.557 4.297 3.27 4.981 3.725 4.981.102 0 .19-.035.282-.07.13-.05.438-.22.459-.72.05-1.267-2.597-7.744-4.424-10.905 2.13-1.682 3.605-4.046 4.06-6.547.547-2.988-.363-6.082-2.314-7.885-1.481-1.372-2.684-2.328-5.168-2.702q.077-.186.141-.374c.603-1.665.723-3.44.399-5.048 1.961.226 3.775.384 5.366.487q.783.083 1.555.155c1.175.11 2.389.159 3.627.159 5.43 0 11.377-.974 16.898-2.272 5.8-1.19 11.867-2.904 17.081-5.218 2.089-.776 3.317-1.287 3.317-1.287l.388-.54.356-.201.032.113-25.316 37.983c-.169.25-.349.498-.532.741l-.593-.42c-3.612 4.773-9.892 8.019-15.614 8.082" style="fill:#e8ead5;fill-opacity:1;fill-rule:nonzero;stroke:none;stroke-width:.0352778" transform="translate(182.273 42.893)scale(.66585)"/><path d="M-125.095 127.575h-.236c-5.588 0-10.866-2.48-14.535-6.72l.582-.43c3.563 4.084 8.647 6.427 13.953 6.427h.236c5.722-.064 12.001-3.31 15.614-8.082l.593.42c-3.719 4.928-10.206 8.318-16.207 8.385" style="fill:#81816f;fill-opacity:1;fill-rule:nonzero;stroke:none;stroke-width:.0352778" transform="translate(182.273 42.893)scale(.66585)"/><path d="M-121.112 89.87c-1.238 0-2.452-.05-3.627-.159-.515-.049-1.033-.098-1.555-.155a70 70 0 0 0 3.623.155l.476.004c4.226 0 10.904-.667 17.98-2.117-5.52 1.298-11.468 2.272-16.897 2.272m-29.637-4.505c-7.673-1.887-13.652-4.081-15.127-6.113q-.17-.234-.346-.484l.106-.06c4.247 2.85 9.698 5.024 15.367 6.657m63.616-2.984a47 47 0 0 0 3.705-1.828l-.388.54s-1.228.512-3.317 1.288" style="fill:#e4e6cb;fill-opacity:1;fill-rule:nonzero;stroke:none;stroke-width:.0352778" transform="translate(182.273 42.893)scale(.66585)"/><path d="M-141.654 97.92c-1.419 0-2.614-.264-3.563-.716-2.54-1.203-3.507-4.427-3.916-6.71.148-.49.349-.97.624-1.442a13.5 13.5 0 0 1 1.93-2.586q1.747.42 3.478.78c-.575.97-.744 2.102-.529 3.443.37 2.35 2.374 4.282 4.561 4.402q.106.006.216.007c1.23 0 2.55-.564 3.5-1.506.722-.716 1.566-1.986 1.474-3.955a4.3 4.3 0 0 0-.138-.857q.576.076 1.136.145c.388 1.492.314 3.2-.264 4.798q-.127.338-.276.666c-2.437.085-5.38 2.188-6.519 3.412-.603.084-1.175.12-1.714.12" style="fill:#c2bc6e;fill-opacity:1;fill-rule:nonzero;stroke:none;stroke-width:.0352778" transform="translate(182.273 42.893)scale(.66585)"/><path d="M-142.572 100.242c-1.093 0-2.144-.201-3.09-.614-2.413-1.051-4.064-3.595-3.92-6.047.064-1.09.149-2.11.449-3.086.409 2.282 1.376 5.506 3.916 6.71.949.451 2.144.716 3.563.716.54 0 1.11-.036 1.714-.12q-.006.005-.007.01a12 12 0 0 0-1.7 2.385q-.467.047-.925.046" style="fill:#aea958;fill-opacity:1;fill-rule:nonzero;stroke:none;stroke-width:.0352778" transform="translate(182.273 42.893)scale(.66585)"/><path d="M-138.864 93.938c-.046 0-.095-.004-.141-.004-1.633-.092-3.196-1.626-3.482-3.425-.194-1.231-.01-2.195.614-3.017a127 127 0 0 0 6.576 1.112c.148.363.24.733.257 1.09.074 1.541-.575 2.526-1.132 3.076-.727.723-1.768 1.168-2.692 1.168" style="fill:#a78d6b;fill-opacity:1;fill-rule:nonzero;stroke:none;stroke-width:.0352778" transform="translate(182.273 42.893)scale(.66585)"/><path d="M-138.853 95.098a4 4 0 0 1-.216-.007c-2.187-.12-4.19-2.053-4.561-4.402-.215-1.341-.046-2.473.53-3.444q.613.126 1.227.247c-.625.822-.808 1.785-.614 3.017.286 1.799 1.849 3.333 3.482 3.425q.07.002.141.004c.924 0 1.965-.445 2.692-1.168.557-.55 1.206-1.535 1.132-3.076a3.4 3.4 0 0 0-.257-1.09q.645.091 1.28.176c.074.286.124.572.138.857.092 1.969-.752 3.239-1.475 3.955-.949.942-2.268 1.506-3.5 1.506m-3.721 6.301c-1.249 0-2.463-.233-3.55-.71-2.892-1.259-4.786-4.208-4.617-7.175.102-1.721.272-3.4 1.235-5.048a15 15 0 0 1 1.647-2.318q.64.165 1.28.318a13.5 13.5 0 0 0-1.929 2.586 6.7 6.7 0 0 0-.624 1.443c-.3.977-.385 1.996-.448 3.086-.145 2.452 1.506 4.996 3.92 6.047.945.413 1.996.614 3.09.614q.456.001.924-.046-.319.57-.59 1.2-.168.004-.338.003m10.375-6.907a12 12 0 0 0-.684-.088 5 5 0 0 0-.385-.018q-.076-.001-.152.004.149-.329.276-.667c.578-1.598.652-3.306.264-4.798q.619.078 1.22.145c.325 1.608.205 3.383-.398 5.048-.042.123-.092.25-.14.374" style="fill:#81816f;fill-opacity:1;fill-rule:nonzero;stroke:none;stroke-width:.0352778" transform="translate(182.273 42.893)scale(.66585)"/><path d="M-134.92 110.402a7.2 7.2 0 0 1-2.064-.286c-2.649-.794-4.106-3.8-4.871-5.98a6.7 6.7 0 0 1 .377-1.534c.607-1.605 1.408-2.95 2.381-4 1.059-1.147 3.824-3.056 5.814-3.056q.142 0 .286.014c2.603.262 3.693 1.115 5.179 2.488 1.668 1.538 2.437 4.215 1.961 6.822a9.1 9.1 0 0 1-.9 2.576c-3.182 2.12-5.969 2.956-8.163 2.956m2.036-12.57c-1.052 0-2.089.247-2.833.65-1.944 1.047-2.032 3.012-2.06 3.658-.103 2.37.79 3.954 2.811 4.977.723.367 1.517.54 2.307.54 1.479 0 2.936-.614 3.825-1.735.814-1.03 1.181-2.548.952-3.955-.159-.984-.677-2.374-2.258-3.415-.772-.504-1.764-.72-2.744-.72" style="fill:#c2bc6e;fill-opacity:1;fill-rule:nonzero;stroke:none;stroke-width:.0352778" transform="translate(182.273 42.893)scale(.66585)"/><path d="M-135.18 112.794a7.2 7.2 0 0 1-1.832-.233c-2.512-.667-4.519-2.918-4.776-5.348-.113-1.073-.194-2.075-.067-3.077.765 2.18 2.222 5.186 4.871 5.98a7.2 7.2 0 0 0 2.064.286c2.194 0 4.981-.836 8.163-2.956a10.4 10.4 0 0 1-2.642 3.192c-.271-.384-.508-.642-.688-.727a1.55 1.55 0 0 0-.667-.158c-.522 0-1.02.296-1.4.853a1.64 1.64 0 0 0-.106 1.655 8.5 8.5 0 0 1-2.92.533" style="fill:#aea958;fill-opacity:1;fill-rule:nonzero;stroke:none;stroke-width:.0352778" transform="translate(182.273 42.893)scale(.66585)"/><path d="M-132.666 106.497a3.9 3.9 0 0 1-1.774-.413c-1.612-.815-2.261-1.98-2.177-3.895.025-.582.085-1.95 1.45-2.688.59-.318 1.44-.508 2.283-.508.772 0 1.541.159 2.106.53 1.227.807 1.633 1.872 1.753 2.627.173 1.08-.11 2.28-.72 3.052-.66.832-1.781 1.295-2.92 1.295" style="fill:#a78d6b;fill-opacity:1;fill-rule:nonzero;stroke:none;stroke-width:.0352778" transform="translate(182.273 42.893)scale(.66585)"/><path d="M-132.659 107.657c-.79 0-1.584-.173-2.307-.54-2.021-1.023-2.914-2.607-2.811-4.977.028-.646.116-2.61 2.06-3.659.744-.402 1.781-.649 2.833-.649.98 0 1.972.216 2.744.72 1.58 1.04 2.1 2.43 2.258 3.415.23 1.407-.138 2.924-.952 3.955-.89 1.121-2.346 1.735-3.825 1.735m-.225-8.664c-.843 0-1.694.19-2.283.508-1.365.737-1.425 2.106-1.45 2.688-.084 1.916.565 3.08 2.177 3.895a3.9 3.9 0 0 0 1.774.413c1.14 0 2.262-.463 2.921-1.295.61-.773.893-1.972.72-3.052-.12-.755-.526-1.82-1.753-2.628-.565-.37-1.334-.529-2.106-.529" style="fill:#81816f;fill-opacity:1;fill-rule:nonzero;stroke:none;stroke-width:.0352778" transform="translate(182.273 42.893)scale(.66585)"/><path d="M-135.184 113.95a8.3 8.3 0 0 1-2.128-.27c-3.002-.798-5.32-3.405-5.63-6.344-.18-1.704-.286-3.38.381-5.147q.151-.407.325-.794.27-.629.589-1.199.742-1.352 1.7-2.385.001-.005.007-.01c1.14-1.225 4.082-3.327 6.52-3.412q.075-.004.151-.003c.13 0 .261.007.385.017.24.025.465.053.684.089 2.484.374 3.687 1.33 5.168 2.702 1.951 1.803 2.861 4.896 2.314 7.884-.455 2.502-1.93 4.865-4.06 6.548a13 13 0 0 0-.62-.988 10.4 10.4 0 0 0 2.641-3.192c.43-.822.738-1.69.9-2.576.476-2.607-.293-5.284-1.962-6.822-1.485-1.373-2.575-2.226-5.178-2.488a3 3 0 0 0-.286-.014c-1.99 0-4.755 1.909-5.814 3.055-.973 1.052-1.774 2.396-2.381 4a6.7 6.7 0 0 0-.378 1.536c-.127 1.001-.045 2.003.067 3.076.258 2.43 2.265 4.681 4.777 5.348.59.155 1.207.233 1.831.233.967 0 1.958-.18 2.921-.533a84 84 0 0 0 .554 1.03 9.8 9.8 0 0 1-3.479.66" style="fill:#81816f;fill-opacity:1;fill-rule:nonzero;stroke:none;stroke-width:.0352778" transform="translate(182.273 42.893)scale(.66585)"/><path d="M-125.952 120.76c-1.62-2.438-4.354-7.257-5.26-9a.5.5 0 0 1 .017-.5c.187-.28.332-.347.445-.347.056 0 .106.018.145.036.783.62 3.566 6.678 4.653 9.81" style="fill:#dce6cd;fill-opacity:1;fill-rule:nonzero;stroke:none;stroke-width:.0352778" transform="translate(182.273 42.893)scale(.66585)"/><path d="M-125.095 123.32c-.455 0-1.168-.684-3.725-4.98a191 191 0 0 1-2.886-5.049 84 84 0 0 1-.554-1.03 1.64 1.64 0 0 1 .106-1.655c.381-.557.878-.853 1.4-.853q.332 0 .667.158c.18.085.417.343.688.727.19.268.399.603.621.988 1.827 3.16 4.473 9.638 4.424 10.904-.021.501-.328.67-.459.72-.091.035-.18.07-.282.07m-5.655-12.407c-.113 0-.258.067-.444.346a.5.5 0 0 0-.018.501c.907 1.743 3.64 6.562 5.26 9-1.087-3.133-3.87-9.19-4.653-9.811a.35.35 0 0 0-.145-.036m.162.046h.004z" style="fill:#81816f;fill-opacity:1;fill-rule:nonzero;stroke:none;stroke-width:.0352778" transform="translate(182.273 42.893)scale(.66585)"/><path d="m-164.306 80.624 23.184 37.405c3.49 5.553 9.391 8.872 15.79 8.872h.237c6.043-.07 12.7-3.7 16.178-8.833l23.975-35.962c-11.783 5.817-29.111 8.385-37.74 8.28-6.816-.085-28.236-2.096-41.624-9.762m38.975 47.625c-6.865 0-13.198-3.553-16.934-9.508l-24.92-40.202 1.1-.621.343.23c12.838 8.604 35.983 10.798 43.078 10.886q.21.005.434.004c8.078 0 27.125-2.643 38.823-9.271l.734-.417.373 1.224-25.495 38.249c-3.715 5.478-10.823 9.355-17.293 9.426zm49.523-60.057a.675.675 0 0 1-.674-.677c0-19.848-37.07-24.074-46.997-24.12h-.19c-8.171 0-32.975 2.29-43.403 12.637-3.097 3.072-4.678 6.635-4.688 10.59 0 .37-.304.674-.674.674h-.004a.68.68 0 0 1-.674-.677c.014-4.325 1.725-8.21 5.087-11.547 10.89-10.802 35.867-13.063 44.552-13.028 5.45.025 17.614 1.122 28.621 5.066 12.898 4.628 19.717 11.684 19.717 20.405 0 .374-.3.677-.674.677" style="fill:#211d1d;fill-opacity:1;fill-rule:nonzero;stroke:none;stroke-width:.0352778" transform="translate(182.273 42.893)scale(.66585)"/><path d="M-125.331 128.298c-6.883 0-13.23-3.563-16.976-9.528l-24.55-39.607-8.809-14.11a.726.726 0 0 1 1.231-.77l8.81 14.115L-141.08 118c3.478 5.538 9.366 8.85 15.748 8.85h.236c6.029-.07 12.668-3.69 16.14-8.808l25.315-37.98 8.985-13.73a.723.723 0 1 1 1.21.794l-8.989 13.737-25.318 37.987c-3.726 5.493-10.852 9.377-17.336 9.447z" style="fill:#211d1d;fill-opacity:1;fill-rule:nonzero;stroke:none;stroke-width:.0352778" transform="translate(182.273 42.893)scale(.66585)"/><path d="M-155.325 60.029c0 2.642-2.074 4.787-4.635 4.787-2.558 0-4.632-2.145-4.632-4.787 0-2.646 2.074-4.788 4.632-4.788 2.561 0 4.635 2.142 4.635 4.788" style="fill:#e6f6f4;fill-opacity:1;fill-rule:nonzero;stroke:none;stroke-width:.0352778" transform="translate(182.273 42.893)scale(.66585)"/><path d="M-159.96 55.82c-2.237 0-4.053 1.887-4.053 4.209 0 2.317 1.816 4.208 4.053 4.208s4.053-1.89 4.053-4.208c0-2.322-1.816-4.209-4.053-4.209m0 9.574c-2.875 0-5.214-2.406-5.214-5.365s2.339-5.37 5.214-5.37 5.214 2.41 5.214 5.37-2.339 5.365-5.214 5.365" style="fill:#211d1d;fill-opacity:1;fill-rule:nonzero;stroke:none;stroke-width:.0352778" transform="translate(182.273 42.893)scale(.66585)"/></svg>