<svg xmlns="http://www.w3.org/2000/svg" xml:space="preserve" width="200mm" height="200mm" viewBox="0 0 200 200"><path d="M-123.512 229.411c-2.656 0-5.276-.285-7.81-.557-.841-.092-1.675-.183-2.5-.261a304 304 0 0 0-2.314-.212c-2.806-.243-5.455-.476-7.944-.998-3.183-.67-6.855-1.51-9.967-2.685-3.703-1.397-6.646-3.468-8.796-5.111-3.29-2.52-4.957-5.155-4.957-7.843 0-2.67 1.634-5.22 4.994-7.793 1.909-1.46 4.897-3.573 8.803-5.044a67 67 0 0 1 9.9-2.91c3.277-.689 6.984-1.045 10.255-1.359 1.298-.123 2.626-.226 3.958-.303-.808 4.861-2.871 9.5-4.135 12.343-.735 1.651-1.06 2.403-1.097 2.89-.038.532.209 1.093.736 1.668 1.463 1.598 5.295 3.496 11.282 3.584q.115.002.229.004c5.43 0 8.74-2.536 10.236-4.07.696-.713.751-1.91.125-2.72-1.951-2.533-3.2-7.645-3.902-11.487a40 40 0 0 1-.328-2.13c1.157.08 2.35.183 3.56.3 3.19.303 6.512.863 10.158 1.707l2.212.511c2.31.53 2.31.53 3.382.896.695.237 1.858.632 4.334 1.411 3.166.992 6.166 2.565 8.914 4.668 3.227 2.469 4.863 5.108 4.863 7.835 0 2.815-1.615 5.478-4.802 7.916-2.208 1.69-5.15 3.217-8.994 4.667-3.75 1.415-6.786 2.332-9.844 2.974-2.957.621-6.481 1.306-10.203 1.662-3.138.3-6.522.448-10.348.448" style="fill:#f3fbfa;fill-opacity:1;fill-rule:nonzero;stroke:none;stroke-width:.0352778" transform="translate(190.451 23.159)scale(.73204)"/><path d="M-129.89 194.335c-1.332.077-2.66.18-3.958.303-3.27.314-6.978.67-10.255 1.358a67 67 0 0 0-9.9 2.91c-3.906 1.472-6.894 3.585-8.803 5.045-3.36 2.572-4.994 5.123-4.994 7.793 0 2.688 1.668 5.324 4.956 7.843 2.15 1.643 5.094 3.714 8.797 5.111 3.112 1.175 6.784 2.015 9.967 2.685 2.489.522 5.138.755 7.944.998q1.147.1 2.314.212c.825.078 1.659.17 2.5.261 2.534.272 5.154.557 7.81.557 3.826 0 7.21-.148 10.348-.448 3.722-.356 7.246-1.04 10.203-1.661 3.058-.642 6.094-1.56 9.844-2.974 3.844-1.45 6.786-2.978 8.994-4.667 3.187-2.438 4.802-5.102 4.802-7.917 0-2.727-1.636-5.365-4.863-7.835-2.748-2.102-5.748-3.676-8.914-4.667-2.476-.78-3.64-1.175-4.334-1.411-1.072-.367-1.072-.367-3.382-.896l-2.212-.512c-3.646-.843-6.969-1.404-10.157-1.707-1.21-.117-2.404-.219-3.561-.3.1.772.208 1.478.328 2.13.703 3.842 1.95 8.954 3.902 11.487.626.811.571 2.007-.125 2.72-1.516 1.556-4.898 4.142-10.465 4.067-5.987-.088-9.819-1.986-11.282-3.584-.527-.575-.774-1.136-.736-1.668.036-.487.362-1.239 1.097-2.89 1.264-2.843 3.327-7.482 4.135-12.343m6.378 36.66c-2.742 0-5.405-.285-7.981-.568q-1.251-.134-2.48-.257-1.162-.11-2.302-.208c-2.854-.25-5.55-.487-8.131-1.027-3.242-.68-6.99-1.542-10.2-2.755-3.898-1.468-6.965-3.623-9.201-5.334-3.703-2.833-5.58-5.895-5.58-9.102 0-3.2 1.838-6.16 5.617-9.052 1.988-1.52 5.106-3.722 9.207-5.27a69 69 0 0 1 10.134-2.978c3.364-.709 7.117-1.065 10.43-1.383 1.636-.159 3.316-.282 4.996-.367l.95-.046-.123.942c-.708 5.433-3.02 10.63-4.4 13.734-.457 1.03-.93 2.092-.964 2.367.089.773 3.522 3.44 10.46 3.542 4.982.074 7.967-2.215 9.306-3.588.149-.151.15-.455.004-.645-2.146-2.784-3.472-8.153-4.206-12.168a46 46 0 0 1-.458-3.185l-.105-.942.945.06c1.466.095 3.001.222 4.562.37 3.259.314 6.649.882 10.364 1.743.912.212 1.632.377 2.21.511 2.344.537 2.389.547 3.538.939.688.236 1.84.628 4.298 1.4 3.343 1.048 6.506 2.706 9.402 4.922 3.64 2.787 5.486 5.845 5.486 9.094 0 3.334-1.825 6.42-5.425 9.176-2.333 1.785-5.407 3.387-9.398 4.893-3.83 1.443-6.938 2.381-10.077 3.041-3 .631-6.579 1.323-10.379 1.686-3.188.307-6.622.455-10.498.455" style="fill:#211d1d;fill-opacity:1;fill-rule:nonzero;stroke:none;stroke-width:.0352778" transform="translate(190.451 23.159)scale(.73204)"/><path d="M-122.846 213.237q-.116.001-.234-.004c-6.938-.103-10.371-2.77-10.46-3.542.033-.276.507-1.337.964-2.368 1.38-3.104 3.692-8.3 4.4-13.733l.123-.942-.817.042c.055-.589.077-1.182.074-1.774l-.3-55.997c-.035-6.692-1.81-14.838-7.742-20.549l-.444-.893c-15.889-3.725-28.994-13.158-35.291-21.942-6.383-8.9-10.301-28.614-11.645-36.358a10.2 10.2 0 0 1-.524-3.21c0-4.212 2.663-7.966 7.208-11.444 3.233-2.476 7.223-5.119 12.234-7.01 4.06-1.53 8.641-2.956 13.609-3.997 4.382-.92 9.132-1.39 14.05-1.862 4.54-.434 9.28-.685 14.147-.685 4.866 0 9.596.353 14.134.787 4.92.473 9.558 1.425 13.94 2.346 4.969 1.044 9.51 2.318 13.569 3.849 5.01 1.89 9.209 4.04 12.442 6.516 4.544 3.474 7.03 7.288 7.03 11.5 0 1.164-.19 2.304-.551 3.419l.013.049c-1.112 7.07-4 21.886-10.247 33.193-4.128 7.472-19.688 19.54-36.424 24.384l-.472.875c-8.366 9.92-8.099 14.576-8.061 21.537l.17 52.994q.008 2.175.21 4.336l-.799-.05.106.942c.134 1.196.284 2.237.457 3.186.735 4.014 2.061 9.384 4.207 12.167.147.19.145.494-.004.646-1.318 1.35-4.23 3.591-9.072 3.591m-59.874-155.02c.918 2.12 2.087 3.972 3.381 3.972h.002c.055 0 .118-.004.174-.004-1.457-1.277-2.65-2.6-3.557-3.969" style="fill:#e8f7f5;fill-opacity:1;fill-rule:nonzero;stroke:none;stroke-width:.0352778" transform="translate(190.451 23.159)scale(.73204)"/><path d="M-122.845 214.03q-.124.001-.247-.004c-7.363-.11-11.335-3.08-11.238-4.399.092-1.256 4.593-8.88 5.437-16.718l.023-.219.817-.042-.123.942c-.708 5.433-3.02 10.63-4.4 13.734-.457 1.03-.93 2.091-.964 2.367.089.772 3.522 3.44 10.46 3.542q.117.005.234.004c4.842 0 7.754-2.24 9.072-3.592.149-.151.15-.455.004-.645-2.146-2.784-3.472-8.153-4.206-12.168a46 46 0 0 1-.458-3.185l-.105-.942.799.05q.186 1.984.543 3.936c.72 3.93 2.006 9.169 4.055 11.825.382.498.366 1.242-.065 1.683-1.339 1.372-4.458 3.831-9.638 3.831" style="fill:#526263;fill-opacity:1;fill-rule:nonzero;stroke:none;stroke-width:.0352778" transform="translate(190.451 23.159)scale(.73204)"/><path d="M-62.93 55.386h.003zm-73.258 58.508c6.796 6.625 7.859 16.006 7.886 21.022l.3 55.997c.003.723-.03 1.425-.102 2.081-.608 5.645-3.026 11.08-4.472 14.33-.457 1.03-.93 2.092-.964 2.367.09.773 3.522 3.44 10.46 3.542 4.982.074 7.967-2.215 9.305-3.588.15-.151.152-.455.004-.645-2.145-2.784-3.471-8.153-4.206-12.168a47.7 47.7 0 0 1-.767-8.41l-.174-53.562c-.042-6.728-.073-11.592 8.198-21.42l.59-1.098.321-.092c15.914-4.603 31.72-16.347 35.951-24.006 6.02-10.894 8.929-25.167 10.136-32.798l-.015-.145.052-.158c.34-1.052.513-2.12.513-3.175 0-3.803-2.261-7.458-6.719-10.873-3.052-2.335-7.17-4.49-12.24-6.403-3.921-1.478-8.447-2.762-13.451-3.813-3.92-.822-8.797-1.849-13.853-2.332-3.8-.364-8.831-.783-14.06-.783-4.636 0-9.37.229-14.07.68-4.45.427-9.496.91-13.963 1.849-4.468.938-9.008 2.272-13.492 3.962-5.34 2.018-9.425 4.903-12.032 6.897-4.641 3.552-6.897 7.09-6.897 10.816a9.5 9.5 0 0 0 .485 2.963l.027.113c.159.914.351 1.983.576 3.168l.802-.438c.854 1.292 2.004 2.572 3.42 3.814l1.577 1.383-2.275.007h-.004c-1.073 0-2.08-.776-3.049-2.364 1.878 9.3 5.386 23.382 10.461 30.46 5.355 7.467 17.69 17.617 34.828 21.628l.363.088zm13.345 100.93-.261-.004c-5.987-.088-9.82-1.986-11.282-3.584-.527-.575-.774-1.136-.736-1.669.036-.487.363-1.238 1.097-2.89 1.408-3.164 3.763-8.455 4.344-13.853.065-.6.095-1.238.092-1.905l-.3-55.993c-.025-4.794-1.034-13.758-7.5-19.984l-.099-.096-.339-.684c-17.378-4.173-29.913-14.524-35.39-22.165-6.435-8.971-10.37-28.558-11.772-36.626a11.1 11.1 0 0 1-.546-3.404c0-4.254 2.46-8.202 7.519-12.075 2.687-2.057 6.9-5.031 12.436-7.12 4.56-1.721 9.178-3.08 13.726-4.032 4.554-.96 9.646-1.446 14.138-1.877 4.75-.455 9.535-.684 14.222-.684 5.295 0 10.376.42 14.21.787 5.145.494 10.07 1.527 14.027 2.36 5.085 1.069 9.69 2.374 13.686 3.88 5.215 1.969 9.47 4.198 12.644 6.63 4.871 3.728 7.341 7.81 7.341 12.131a11.8 11.8 0 0 1-.538 3.5l-.009.088c-1.211 7.701-4.163 22.285-10.336 33.457-2.158 3.906-7.288 8.93-13.723 13.441-7.123 4.996-15.225 8.975-22.855 11.226l-.407.72c-7.947 9.422-7.92 13.807-7.877 20.45l.004.571.17 52.995c.01 2.758.258 5.496.74 8.131.704 3.842 1.952 8.954 3.904 11.487.626.81.57 2.007-.126 2.72-1.491 1.53-4.786 4.07-10.203 4.07" style="fill:#211d1d;fill-opacity:1;fill-rule:nonzero;stroke:none;stroke-width:.0352778" transform="translate(190.451 23.159)scale(.73204)"/><path d="M-184.742 51.968s4.132 28.36 12.169 39.567c8.037 11.212 27.162 23.485 49.013 23.583 21.203.1 45.124-16.947 50.396-26.49 6.247-11.306 9.135-26.123 10.247-33.193.546-3.474-93.841 6.714-116.42 6.753-3.043.003-5.405-10.22-5.405-10.22" style="fill:#7c161a;fill-opacity:1;fill-rule:nonzero;stroke:none;stroke-width:.0352778" transform="translate(190.451 23.159)scale(.73204)"/><path d="M-182.384 60.6c1.873 9.24 5.398 23.421 10.456 30.473 8.232 11.483 27.491 23.156 48.371 23.255h.173c9.25 0 20.106-3.38 30.595-9.525 8.786-5.143 16.217-11.645 18.931-16.56 5.94-10.748 8.852-24.792 10.088-32.494-3.98-1.11-35.71 1.475-61.35 3.567-22.983 1.877-44.693 3.648-54.216 3.662h-.004c-1.157 0-2.18-.988-3.044-2.378m59.008 55.312h-.188c-10.155-.046-20.547-2.713-30.052-7.715-8.153-4.29-15.297-10.195-19.602-16.2-8.057-11.236-12.139-38.749-12.309-39.916l1.558-.293c1.068 4.621 3.142 9.606 4.63 9.606 9.46-.018 32.149-1.87 54.09-3.658 14.845-1.21 30.195-2.463 41.803-3.182 19.754-1.228 20.534-.389 21.05.169.214.23.31.533.262.836-1.21 7.698-4.162 22.281-10.335 33.454-5.12 9.267-28.895 26.9-50.907 26.9" style="fill:#211d1d;fill-opacity:1;fill-rule:nonzero;stroke:none;stroke-width:.0352778" transform="translate(190.451 23.159)scale(.73204)"/><path d="M-63.89 60.935c-.718 3.623-1.714 7.959-3.078 12.457-.888.991-1.942 1.947-3.14 2.875-3.212 2.473-7.425 4.6-12.393 6.491-4.03 1.535-8.497 3.045-13.42 4.092-4.347.921-8.992 1.803-13.871 2.272-4.5.438-9.22.61-14.043.61-4.828 0-9.499-.68-13.997-1.11-4.88-.477-9.594-.745-13.941-1.662-4.93-1.048-9.562-2.166-13.591-3.694-4.969-1.89-8.916-4.625-12.126-7.101a28 28 0 0 1-2.488-2.152c-1.466-5.101-2.595-10.21-3.382-14.217.222-.441.482-.872.762-1.298.9 2 2.024 3.69 3.261 3.69 19.246-.032 90.68-7.437 110.998-7.476 2.145 1.965 3.649 4.036 4.449 6.223" style="fill:#d2a6aa;fill-opacity:1;fill-rule:nonzero;stroke:none;stroke-width:.0352778" transform="translate(190.451 23.159)scale(.73204)"/><path d="M-63.551 58.314c0 4.209-2.359 8.132-6.818 11.61-3.173 2.473-7.343 4.6-12.26 6.491-3.983 1.531-8.403 3.045-13.277 4.089-4.3.917-8.892 1.803-13.72 2.272-4.453.434-9.12.614-13.895.614-4.774 0-9.392-.681-13.846-1.119-4.828-.469-9.49-.74-13.791-1.661-4.875-1.045-9.46-2.16-13.443-3.694-4.916-1.89-8.824-4.621-11.996-7.094-4.459-3.479-7.023-7.3-7.023-11.508 0-4.212 2.613-7.97 7.072-11.447 3.173-2.473 7.089-5.116 12.005-7.007 3.983-1.53 8.48-2.956 13.354-4 4.3-.92 8.96-1.39 13.787-1.86 4.454-.437 9.106-.684 13.881-.684s9.417.353 13.87.787c4.827.47 9.378 1.425 13.679 2.346 4.874 1.04 9.33 2.314 13.313 3.845 4.916 1.891 9.037 4.043 12.21 6.516 4.458 3.478 6.898 7.292 6.898 11.504" style="fill:#fff;fill-opacity:1;fill-rule:nonzero;stroke:none;stroke-width:.0352778" transform="translate(190.451 23.159)scale(.73204)"/><path d="M-123.52 34.103c-4.548 0-9.193.23-13.805.677-4.367.427-9.317.91-13.7 1.849-4.383.938-8.836 2.272-13.236 3.965-5.238 2.014-9.245 4.897-11.803 6.893-4.556 3.553-6.77 7.095-6.77 10.827 0 3.747 2.26 7.408 6.72 10.887 2.88 2.247 6.825 5.073 11.795 6.981 4.164 1.602 9.073 2.748 13.325 3.659 3.333.716 6.873 1.03 10.62 1.365 1.02.092 2.047.183 3.084.286 1.098.105 2.207.229 3.325.352 3.386.374 6.887.759 10.444.759 5.107 0 9.627-.198 13.819-.61 4.975-.484 9.683-1.415 13.631-2.258 4.09-.875 8.148-2.127 13.161-4.054 5.15-1.979 9.094-4.067 12.058-6.378 4.323-3.372 6.515-7.07 6.515-10.989 0-3.81-2.22-7.468-6.596-10.883-2.994-2.335-7.034-4.49-12.007-6.403-3.847-1.478-8.287-2.762-13.197-3.813-3.844-.822-8.627-1.846-13.59-2.332-3.73-.364-8.668-.78-13.794-.78m0 50.07c-3.644 0-7.19-.388-10.617-.77-1.112-.12-2.214-.243-3.306-.349q-1.548-.145-3.071-.282c-3.796-.338-7.382-.66-10.808-1.393-4.313-.925-9.296-2.089-13.56-3.73-5.164-1.985-9.232-4.896-12.199-7.21-4.86-3.789-7.325-7.87-7.325-12.125 0-4.247 2.413-8.195 7.376-12.065 2.637-2.057 6.772-5.034 12.205-7.122 4.476-1.722 9.008-3.08 13.471-4.036 4.47-.956 9.467-1.443 13.876-1.873a144 144 0 0 1 13.957-.688c5.194 0 10.182.423 13.946.79 5.053.494 9.885 1.527 13.767 2.36 4.99 1.069 9.508 2.374 13.432 3.884 5.118 1.965 9.293 4.198 12.41 6.629 4.777 3.725 7.2 7.803 7.2 12.121 0 4.428-2.395 8.544-7.12 12.227-3.088 2.41-7.164 4.569-12.46 6.608-5.092 1.958-9.224 3.228-13.396 4.12-3.991.858-8.753 1.796-13.807 2.29-4.244.413-8.814.614-13.972.614" style="fill:#211d1d;fill-opacity:1;fill-rule:nonzero;stroke:none;stroke-width:.0352778" transform="translate(190.451 23.159)scale(.73204)"/><path d="M-123.494 27.764c-4.637 0-9.37.229-14.07.68-4.453.427-9.5.91-13.964 1.849-4.467.938-9.007 2.272-13.492 3.962-5.34 2.018-9.424 4.903-12.032 6.897-4.64 3.552-6.896 7.09-6.896 10.816 0 3.743 2.303 7.4 6.845 10.88 2.937 2.247 6.957 5.069 12.024 6.98 4.244 1.602 9.248 2.749 13.583 3.66 3.396.715 7.003 1.03 10.821 1.364 1.04.092 2.09.184 3.146.286 1.12.106 2.251.23 3.392.353 3.45.374 7.018.758 10.643.758 5.204 0 9.81-.197 14.085-.606 5.07-.487 9.869-1.419 13.894-2.262 4.168-.875 8.306-2.127 13.415-4.053 5.25-1.983 9.27-4.068 12.291-6.382 4.404-3.369 6.637-7.062 6.637-10.978 0-3.803-2.26-7.458-6.719-10.873-3.052-2.335-7.17-4.49-12.24-6.403-3.92-1.478-8.447-2.762-13.451-3.813-3.918-.822-8.794-1.849-13.853-2.332-3.8-.364-8.83-.783-14.06-.783m0 50.073c-3.71 0-7.322-.392-10.814-.77a248 248 0 0 0-3.372-.348c-1.053-.103-2.098-.194-3.133-.286-3.867-.339-7.52-.66-11.01-1.394-4.393-.92-9.471-2.085-13.816-3.725-5.26-1.986-9.405-4.897-12.428-7.207-4.955-3.793-7.468-7.878-7.468-12.14 0-4.254 2.46-8.201 7.519-12.075 2.687-2.057 6.9-5.03 12.436-7.119 4.561-1.722 9.18-3.08 13.726-4.032 4.551-.956 9.644-1.447 14.138-1.877 4.75-.455 9.535-.684 14.222-.684 5.295 0 10.376.42 14.21.786 5.148.494 10.071 1.528 14.027 2.36 5.085 1.07 9.69 2.375 13.686 3.88 5.215 1.97 9.47 4.199 12.644 6.63 4.872 3.729 7.341 7.81 7.341 12.132 0 4.434-2.442 8.551-7.259 12.238-3.146 2.409-7.299 4.568-12.695 6.604-5.189 1.957-9.398 3.231-13.649 4.124-4.068.853-8.92 1.795-14.069 2.286-4.325.416-8.981.617-14.236.617" style="fill:#211d1d;fill-opacity:1;fill-rule:nonzero;stroke:none;stroke-width:.0352778" transform="translate(190.451 23.159)scale(.73204)"/><path d="M-123.376 115.912h-.188c-10.155-.046-20.547-2.713-30.052-7.715-8.153-4.29-15.297-10.195-19.602-16.2-8.057-11.236-12.139-38.749-12.309-39.916a.794.794 0 0 1 1.57-.23c.041.282 4.196 28.3 12.029 39.222 8.232 11.483 27.491 23.156 48.371 23.255 9.28.05 20.214-3.34 30.768-9.525 8.786-5.143 16.217-11.645 18.931-16.56 6.055-10.956 8.963-25.336 10.157-32.931a.794.794 0 0 1 1.567.247c-1.21 7.698-4.162 22.281-10.335 33.454-5.12 9.267-28.895 26.9-50.907 26.9" style="fill:#211d1d;fill-opacity:1;fill-rule:nonzero;stroke:none;stroke-width:.0352778" transform="translate(190.451 23.159)scale(.73204)"/></svg>