<svg xmlns="http://www.w3.org/2000/svg" xml:space="preserve" width="200mm" height="200mm" viewBox="0 0 200 200"><path d="M129.012 178.815c0 2.65-1.905 5.115-5.51 7.303-2.569 1.555-5.941 2.892-9.913 4.081-3.221.963-6.798 1.912-10.739 2.568-3.478.582-7.19 1.136-11.095 1.433-3.602.271-7.373.384-11.236.384-3.86 0-7.595-.427-11.193-.702-3.906-.296-7.677-.465-11.155-1.044-3.94-.656-7.648-1.358-10.87-2.321-3.975-1.19-7.136-2.907-9.7-4.463-3.606-2.187-4.767-4.254-4.767-6.9 0-2.65 1.2-5.345 4.809-7.532 2.564-1.556 5.729-3.221 9.705-4.41a89 89 0 0 1 10.798-2.512c3.478-.578 7.246-.874 11.151-1.17a148 148 0 0 1 11.222-.431c3.863 0 7.617.222 11.215.494 3.905.296 7.585.896 11.063 1.474 3.94.656 7.546 1.457 10.767 2.42 3.972 1.19 7.306 2.54 9.87 4.096 3.606 2.187 5.578 4.586 5.578 7.232" style="fill:#ce5e1d;fill-opacity:1;fill-rule:nonzero;stroke:none;stroke-width:.0352778" transform="translate(48.134 51.286)scale(.65561)"/><path d="M80.52 163.949c-3.677 0-7.43.141-11.16.427-3.53.268-7.531.571-11.073 1.16a88 88 0 0 0-10.696 2.491c-4.223 1.263-7.45 3.07-9.511 4.318-2.96 1.796-4.396 4.022-4.396 6.809 0 2.12.741 3.98 4.357 6.173 2.322 1.408 5.497 3.179 9.504 4.375 3.366 1.005 7.33 1.728 10.767 2.3 2.692.448 5.556.645 8.586.857.822.057 1.655.113 2.491.177.89.067 1.785.144 2.688.222 2.738.236 5.567.48 8.442.48 4.128 0 7.782-.127 11.173-.385 4.021-.303 7.828-.889 11.02-1.422 3.302-.55 6.583-1.333 10.633-2.543 4.152-1.242 7.33-2.55 9.716-3.997 3.386-2.053 5.104-4.265 5.104-6.576 0-2.237-1.739-4.424-5.171-6.505-2.406-1.46-5.662-2.808-9.674-4.008-3.107-.931-6.695-1.735-10.664-2.399-3.104-.515-6.97-1.16-10.985-1.464-3.013-.229-7.003-.49-11.152-.49m0 31.482c-2.945 0-5.814-.244-8.586-.483q-1.348-.118-2.674-.22c-.833-.063-1.659-.12-2.48-.18-3.07-.21-5.973-.412-8.746-.874-3.489-.582-7.518-1.312-10.975-2.346-4.19-1.252-7.49-3.09-9.895-4.55-3.63-2.199-5.175-4.481-5.175-7.624 0-3.383 1.753-6.16 5.214-8.259 2.141-1.298 5.496-3.175 9.902-4.494a89 89 0 0 1 10.904-2.537c3.616-.603 7.66-.91 11.222-1.181 3.775-.286 7.57-.43 11.29-.43 4.204 0 8.237.264 11.281.497 4.085.31 7.994.96 11.134 1.481 4.039.674 7.697 1.496 10.872 2.445 4.205 1.26 7.5 2.628 10.069 4.184 3.972 2.41 5.986 5.087 5.986 7.955 0 2.946-1.993 5.644-5.923 8.026-2.508 1.524-5.817 2.885-10.11 4.17-4.117 1.23-7.462 2.032-10.841 2.596-3.228.536-7.08 1.125-11.17 1.44-3.432.26-7.129.384-11.299.384" style="fill:#211d1d;fill-opacity:1;fill-rule:nonzero;stroke:none;stroke-width:.0352778" transform="translate(48.134 51.286)scale(.65561)"/><path d="M130.871 94.515c-1.055-1.541-2.674-3.016-4.847-4.417-2.734-1.756-6.24-3.298-10.717-4.72q-.19-.058-.381-.12c-3.362-3.584-7.878-6.667-13.843-8.463-1.637-.494-3.387-.702-5.172-.702-6.424 0-13.282 2.678-16.828 4.29-3.714.021-7.496.183-11.25.487-3.8.307-8.107.652-11.952 1.333a90 90 0 0 0-11.613 2.865c-4.689 1.489-8.262 3.609-10.541 5.073-2.187 1.407-3.81 2.836-4.886 4.307-.342-5.267-.678-10.502-.98-15.593a.5.5 0 0 1 .02-.176l.053-.17-.025-.176a7 7 0 0 1-.052-.776c0-3.02 1.51-5.302 5.203-7.877 2.642-1.838 6.7-4.347 11.02-5.828a85 85 0 0 1 11.642-3.115c2.872-.55 5.906-.879 8.227-1.104a359 359 0 0 1 3.831-.35l.985-.088c1.524-.134 2.727-.236 3.975-.317a79 79 0 0 1 5.077-.141c.035 0 1.975-.057 4.815-.057 2.293 0 5.176.035 8.121.162.106.004 10.88.149 22.18 4.153 11.899 4.212 14.319 6.77 15.92 8.463l.074.077c.759.805 2.96 4.124 2.96 6.022a7 7 0 0 1-.236 1.789l-.282 1.072h.215z" style="fill:#f3fbfa;fill-opacity:1;fill-rule:nonzero;stroke:none;stroke-width:.0352778" transform="translate(48.134 51.286)scale(.65561)"/><path d="m30.552 120.208.017.314c.787 11.864 1.662 25.562 2.205 37.088.917 19.66.268 32.96.046 36.565l-.007.06c-.01.099-.025.205-.021.268l.007.113-.021.11c-.007.038-.004.084-.004.133 0 2.629 1.789 5.222 5.317 7.709 2.32 1.633 5.496 3.69 9.496 5.076 3.366 1.171 7.32 2.004 10.746 2.664 2.699.522 5.567.751 8.6.994q1.224.094 2.467.205 1.286.117 2.59.25c2.768.28 5.626.565 8.533.565 4.124 0 7.775-.145 11.162-.441 4.102-.367 8.032-1.076 11-1.651 4.3-.836 8.124-2.085 10.625-2.953 4.134-1.436 7.306-2.956 9.701-4.642 3.415-2.4 5.147-5.017 5.147-7.776l1.277-71.942.752-14.834c0-.148.01-.293.021-.44l.028-.643c.004-.039.004-.074.007-.113l.01-.17.025-.507.007-.155.004-.06.004-.074.007-.103q0-.09.011-.162l1.274-25.238h-.216l.283-1.072c.155-.596.236-1.2.236-1.789 0-1.898-2.201-5.217-2.96-6.022l-.074-.077c-1.602-1.694-4.022-4.251-15.92-8.463-11.3-4.004-22.074-4.15-22.18-4.153a203 203 0 0 0-12.936-.105c-1.965 0-3.479.042-5.077.14-1.249.082-2.452.184-3.976.318l-.984.088a359 359 0 0 0-3.83.35c-2.322.225-5.356.553-8.228 1.104a85 85 0 0 0-11.641 3.115c-4.322 1.481-8.379 3.99-11.021 5.828-3.694 2.575-5.204 4.857-5.204 7.877 0 .23.018.476.053.776l.025.177-.053.169a.5.5 0 0 0-.021.176c.614 10.21 1.333 21.015 2.032 31.468.222 3.313.44 6.615.66 9.885m49.97 93.825c-2.991 0-5.894-.293-8.702-.575-.865-.085-1.722-.173-2.572-.25q-1.233-.106-2.452-.202c-3.083-.247-5.997-.48-8.788-1.02-3.482-.673-7.514-1.52-10.982-2.726-4.201-1.457-7.507-3.595-9.92-5.295-4.007-2.826-6.04-5.892-6.04-9.106 0-.102 0-.218.015-.349 0-.176.017-.331.035-.466.219-3.626.86-16.83-.05-36.353-.543-11.511-1.418-25.203-2.204-37.074-.007-.173-.014-.254-.014-.264-.22-3.299-.441-6.6-.66-9.917-.699-10.453-1.422-21.262-2.036-31.478a2.1 2.1 0 0 1 .043-.579 8 8 0 0 1-.046-.822c0-3.605 1.774-6.382 5.937-9.278 2.73-1.905 6.932-4.498 11.437-6.046a87 87 0 0 1 11.878-3.175c2.942-.565 6.026-.9 8.382-1.13a371 371 0 0 1 3.849-.349l.984-.084c1.535-.138 2.748-.244 4.015-.321a79 79 0 0 1 5.161-.148c.039 0 6.385-.177 13.003.109.082 0 11.127.145 22.709 4.247 12.287 4.35 14.774 6.982 16.59 8.9l.071.075c.727.77 3.433 4.52 3.433 7.2 0 .695-.088 1.4-.265 2.103l-1.322 26.165-.004.078-.011.13q.001.064-.004.127l-.004.071-.004.046-.028.586-.007.105-.01.166-.026.603c-.01.138-.017.254-.017.37l-.004.05-.064 1.168-.684 13.649-1.277 71.9c0 3.333-1.98 6.42-5.877 9.161-2.523 1.778-5.835 3.366-10.122 4.858-2.55.885-6.452 2.159-10.862 3.016-3.005.582-6.992 1.302-11.172 1.676-3.44.3-7.14.448-11.314.448" style="fill:#211d1d;fill-opacity:1;fill-rule:nonzero;stroke:none;stroke-width:.0352778" transform="translate(48.134 51.286)scale(.65561)"/><path d="M131.506 98.981c0 2.992-2.032 5.775-5.874 8.245-2.73 1.757-6.321 3.267-10.558 4.61-3.43 1.087-7.236 2.163-11.434 2.904-3.704.653-7.659 1.277-11.818 1.612-3.834.31-7.853.438-11.966.438-4.11 0-8.09-.484-11.924-.794-4.16-.335-8.174-.526-11.878-1.182-4.198-.74-8.146-1.534-11.578-2.621-4.233-1.344-7.599-3.28-10.333-5.041-3.838-2.47-6.047-5.179-6.047-8.17 0-2.992 2.251-5.66 6.093-8.129 2.73-1.756 6.103-3.633 10.336-4.977a90 90 0 0 1 11.5-2.84c3.705-.653 7.72-.988 11.875-1.32 3.839-.31 7.843-.486 11.956-.486s8.11.25 11.945.557c4.16.335 8.079 1.013 11.78 1.665 4.2.741 8.036 1.648 11.468 2.734 4.233 1.344 7.782 2.872 10.513 4.629 3.842 2.47 5.944 5.175 5.944 8.166" style="fill:#e6cbb8;fill-opacity:1;fill-rule:nonzero;stroke:none;stroke-width:.0352778" transform="translate(48.134 51.286)scale(.65561)"/><path d="M79.856 82.08c-3.916 0-7.916.159-11.885.48-3.764.303-8.026.645-11.797 1.312a89 89 0 0 0-11.391 2.812c-4.498 1.428-7.941 3.47-10.139 4.882-3.835 2.47-5.7 4.893-5.7 7.415 0 2.533 1.904 5.045 5.658 7.458 2.476 1.591 5.863 3.591 10.131 4.946 3.585 1.136 7.807 1.951 11.47 2.597 2.867.504 5.912.73 9.14.966q1.317.095 2.656.201c.946.078 1.898.166 2.861.25 2.918.269 5.934.54 8.996.54 4.4 0 8.29-.14 11.9-.43 4.282-.346 8.335-1.005 11.736-1.605 3.52-.621 7.013-1.51 11.328-2.875 4.427-1.404 7.814-2.882 10.354-4.516 3.637-2.339 5.482-4.875 5.482-7.532 0-2.578-1.866-5.087-5.553-7.454-2.568-1.65-6.036-3.178-10.311-4.533-3.31-1.048-7.13-1.958-11.356-2.706-4.064-.716-7.747-1.337-11.702-1.654-3.21-.258-7.461-.554-11.878-.554m0 35.556c-3.14 0-6.195-.278-9.148-.546-.96-.085-1.905-.173-2.846-.247-.89-.075-1.771-.138-2.646-.202-3.267-.243-6.357-.469-9.31-.99-3.715-.657-8.008-1.482-11.688-2.65-4.455-1.415-7.969-3.486-10.534-5.133-4.272-2.748-6.438-5.74-6.438-8.887 0-3.143 2.12-6.036 6.48-8.84 2.28-1.464 5.853-3.584 10.542-5.073a90 90 0 0 1 11.613-2.865c3.845-.68 8.153-1.026 11.952-1.333a150 150 0 0 1 12.023-.487c4.48 0 8.774.3 12.012.56 4.032.325 7.758.95 11.86 1.677 4.304.758 8.199 1.686 11.579 2.758 4.476 1.422 7.983 2.964 10.717 4.72 4.198 2.703 6.329 5.69 6.329 8.883 0 3.27-2.106 6.287-6.262 8.957-2.667 1.718-6.188 3.257-10.76 4.707-4.388 1.39-7.948 2.293-11.546 2.928-3.436.606-7.539 1.277-11.892 1.626-3.655.293-7.592.437-12.037.437" style="fill:#211d1d;fill-opacity:1;fill-rule:nonzero;stroke:none;stroke-width:.0352778" transform="translate(48.134 51.286)scale(.65561)"/><path d="M30.647 121.192c0 .004.01.113.021.314.783 11.79 1.658 25.407 2.202 36.866.917 19.543.268 32.77.045 36.357l-.003.063a2 2 0 0 0-.025.247l.01.127-.024.124c-.003.024 0 .067 0 .11 0 2.574 1.775 5.125 5.27 7.577 2.318 1.623 5.486 3.662 9.473 5.034 3.358 1.16 7.313 1.986 10.735 2.642 2.691.519 5.552.748 8.583.988.818.067 1.64.13 2.473.205q1.285.117 2.593.25c2.765.275 5.623.561 8.523.561 4.12 0 7.771-.145 11.155-.437 4.095-.367 8.022-1.07 10.989-1.64 4.293-.83 8.114-2.072 10.615-2.932 4.124-1.426 7.288-2.932 9.673-4.604 3.39-2.367 5.108-4.94 5.108-7.645l1.277-71.508.752-14.746c0-.148.01-.296.017-.445l.032-.638.007-.106q0-.089.01-.173l.025-.504q.001-.079.007-.152l.007-.138q.002-.052.004-.098l.01-.166.092-1.746c-1.026 1.256-2.413 2.455-4.152 3.584-2.677 1.74-6.205 3.298-10.784 4.762-4.396 1.408-7.962 2.322-11.56 2.964-3.44.61-7.543 1.284-11.907 1.64-3.658.296-7.599.441-12.044.441-3.143 0-6.202-.279-9.158-.55-.956-.088-1.905-.177-2.843-.25-.89-.075-1.771-.138-2.646-.205-3.274-.244-6.364-.473-9.32-.999-3.722-.663-8.023-1.503-11.702-2.68-4.473-1.43-7.994-3.529-10.562-5.197-1.672-1.087-3.027-2.212-4.054-3.373l.417 6.237c.222 3.299.44 6.583.66 9.84m49.875 93.365c-2.995 0-5.902-.289-8.71-.567q-1.302-.134-2.572-.251-1.24-.106-2.459-.201c-3.083-.247-5.997-.476-8.79-1.016-3.49-.667-7.522-1.513-10.997-2.713-4.209-1.45-7.525-3.58-9.941-5.274-4.036-2.83-6.086-5.905-6.086-9.137 0-.099 0-.219.018-.353-.004-.176.018-.331.032-.465.222-3.61.86-16.73-.046-36.121-.543-11.44-1.418-25.047-2.205-36.848a3 3 0 0 0-.018-.257c-.218-3.288-.437-6.576-.66-9.875a9900 9900 0 0 1-.684-10.213l-.575-8.65 2.438 8.319c.589 2.01 2.406 4.018 5.394 5.958 2.47 1.602 5.849 3.616 10.103 4.981 3.574 1.143 7.797 1.965 11.455 2.618 2.865.508 5.91.734 9.13.974l2.66.204c.945.078 1.898.166 2.861.254 2.914.268 5.927.544 8.985.544 4.396 0 8.283-.141 11.889-.438 4.283-.346 8.332-1.012 11.726-1.616 4.505-.804 8.414-1.972 11.314-2.903 4.417-1.411 7.796-2.9 10.33-4.544 2.832-1.838 4.578-3.813 5.188-5.866l.177-.59 1.968-.26-.342 6.663-.004.071-.007.13-.007.128-.004.067v.045l-.032.59-.007.098q-.001.08-.007.166l-.028.6c-.01.137-.017.25-.017.363v.053l-.067 1.164-.685 13.565-1.277 71.462c0 3.348-1.99 6.445-5.916 9.186-2.533 1.775-5.853 3.359-10.146 4.844-2.558.878-6.463 2.148-10.876 3.002-3.01.578-7 1.291-11.183 1.665-3.44.3-7.144.445-11.32.445" style="fill:#211d1d;fill-opacity:1;fill-rule:nonzero;stroke:none;stroke-width:.0352778" transform="translate(48.134 51.286)scale(.65561)"/><path d="M69.453 108.983c3.77-.455 8.272-.981 11.747-2.526.977-.434 1.958-.924 2.695-1.704.879-.931 1.323-2.18 1.743-3.39 1.143-3.288 2.29-6.573 3.433-9.86.32-.928.638-1.972.215-2.858-.727-1.513-2.96-1.38-4.466-.642-1.507.734-3.013 1.87-4.668 1.602l-13.695 12.372z" style="fill:#bae7e0;fill-opacity:1;fill-rule:nonzero;stroke:none;stroke-width:.0352778" transform="translate(48.134 51.286)scale(.65561)"/><path d="m67.428 102.188 2.529 5.92c3.658-.441 7.73-.97 10.915-2.389.833-.37 1.774-.821 2.434-1.52.78-.822 1.182-1.98 1.57-3.1l3.433-9.861c.282-.811.532-1.655.25-2.244-.138-.285-.37-.48-.71-.596-.698-.243-1.774-.113-2.673.328-.304.148-.607.314-.928.49-1.136.618-2.406 1.313-3.824 1.228zm1.52 7.67-3.46-8.093 14.41-13.021.381.063c1.034.17 2.085-.402 3.196-1.009.322-.176.653-.36.992-.522 1.02-.497 2.582-.868 3.912-.405.744.257 1.312.751 1.633 1.425.597 1.238.11 2.635-.18 3.471l-3.432 9.864c-.423 1.22-.903 2.603-1.92 3.676-.863.913-1.978 1.453-2.952 1.89-3.535 1.57-7.937 2.1-11.821 2.569z" style="fill:#211d1d;fill-opacity:1;fill-rule:nonzero;stroke:none;stroke-width:.0352778" transform="translate(48.134 51.286)scale(.65561)"/><path d="M58.763 83.015c-1.672 2.85-8.248 15.67-6.978 18.722 1.013 2.427 13.59 9.338 17.23 7.49 2.149-1.091 3.454-3.296 4.643-5.391l6.064-10.668c.402-.713.822-1.478.783-2.297-.063-1.273-1.182-2.212-2.244-2.917-5.824-3.881-19.219-5.412-19.498-4.94" style="fill:#f1faf9;fill-opacity:1;fill-rule:nonzero;stroke:none;stroke-width:.0352778" transform="translate(48.134 51.286)scale(.65561)"/><path d="M58.763 83.015h.004zm.519.719c-2.526 4.4-7.712 15.389-6.752 17.692.465 1.115 5.39 4.438 10.343 6.262 2.72 1.002 4.826 1.302 5.779.818 2-1.016 3.277-3.263 4.304-5.069l6.064-10.668c.399-.71.705-1.291.677-1.86-.035-.733-.617-1.438-1.884-2.285-5.03-3.352-16.393-4.974-18.531-4.89m8.135 26.61c-1.333 0-3.04-.38-5.105-1.143-4.526-1.668-10.438-5.157-11.27-7.154-1.662-3.983 6.938-19.29 7.026-19.442.089-.148.265-.345.618-.426 1.69-.388 14.326 1.305 20.023 5.104 1.076.716 2.52 1.867 2.6 3.55.053 1.079-.49 2.035-.885 2.733l-6.064 10.668c-1.133 1.997-2.544 4.477-4.978 5.712q-.784.397-1.965.398" style="fill:#211d1d;fill-opacity:1;fill-rule:nonzero;stroke:none;stroke-width:.0352778" transform="translate(48.134 51.286)scale(.65561)"/><path d="M89.286 88.645c.458-1.302-11.663-10.125-17.28-11.098-4.822 1.125-8.512 2.208-12.742 5.118a.328.328 0 0 0 .064.572l21.117 8.276z" style="fill:#fff;fill-opacity:1;fill-rule:nonzero;stroke:none;stroke-width:.0352778" transform="translate(48.134 51.286)scale(.65561)"/><path d="M89.286 88.645h.003zm-28.801-5.82 19.988 7.83 7.673-2.49c-1.99-2.222-11.282-8.847-16.118-9.793-4.12.963-7.641 1.937-11.543 4.452M80.42 92.37l-21.388-8.382a1.13 1.13 0 0 1-.71-.924A1.14 1.14 0 0 1 58.806 82c4.498-3.09 8.392-4.16 13.017-5.239l.159-.035.162.028c5.422.938 16.33 8.668 17.724 11.045q.354.61.18 1.115l-.134.378z" style="fill:#211d1d;fill-opacity:1;fill-rule:nonzero;stroke:none;stroke-width:.0352778" transform="translate(48.134 51.286)scale(.65561)"/><path d="M114.107 177.397c2.762-2.607 6.068-5.708 7.938-9.017.529-.931 1.026-1.912 1.153-2.974.152-1.27-.233-2.54-.614-3.76l-3.111-9.97c-.293-.935-.66-1.965-1.528-2.424-1.485-.783-3.2.653-3.972 2.142s-1.309 3.298-2.797 4.064l-3.645 18.094z" style="fill:#bae7e0;fill-opacity:1;fill-rule:nonzero;stroke:none;stroke-width:.0352778" transform="translate(48.134 51.286)scale(.65561)"/><path d="m108.438 173.146 5.556 3.249c2.678-2.533 5.634-5.38 7.349-8.41.448-.794.938-1.722 1.054-2.674.135-1.122-.232-2.293-.585-3.426l-3.112-9.966c-.254-.822-.554-1.647-1.132-1.95-.279-.149-.582-.17-.924-.06-.706.218-1.493.966-1.955 1.855-.155.3-.3.614-.455.942-.543 1.175-1.153 2.49-2.339 3.267zm5.786 5.256-7.596-4.445 3.831-19.04.346-.176c.928-.48 1.432-1.562 1.965-2.712.155-.332.314-.678.487-1.01.522-1.005 1.56-2.232 2.907-2.652.751-.237 1.5-.177 2.159.173 1.217.642 1.658 2.053 1.919 2.896l3.111 9.97c.385 1.23.822 2.631.646 4.099-.152 1.249-.723 2.346-1.252 3.273-1.902 3.366-5.123 6.41-7.966 9.095z" style="fill:#211d1d;fill-opacity:1;fill-rule:nonzero;stroke:none;stroke-width:.0352778" transform="translate(48.134 51.286)scale(.65561)"/><path d="M90.065 162.89c.35 3.285 2.696 17.505 5.532 19.199 2.261 1.347 16.478-.582 18.306-4.234 1.076-2.151.81-4.702.522-7.094-.49-4.06-.985-8.12-1.475-12.181-.099-.815-.219-1.676-.737-2.311-.808-.988-2.265-1.076-3.539-1.012-6.988.345-18.665 7.087-18.609 7.634" style="fill:#f1faf9;fill-opacity:1;fill-rule:nonzero;stroke:none;stroke-width:.0352778" transform="translate(48.134 51.286)scale(.65561)"/><path d="M90.908 163.159c.586 5.041 2.96 16.958 5.102 18.235 1.04.62 6.97.36 12.04-1.118 2.783-.815 4.653-1.828 5.13-2.784 1.005-2.007.694-4.572.444-6.632l-1.478-12.185c-.096-.804-.198-1.457-.558-1.894-.469-.572-1.354-.794-2.875-.717-6.036.3-16.129 5.758-17.805 7.095m7.645 20.168c-1.513 0-2.734-.166-3.369-.547-3.704-2.212-5.902-19.628-5.92-19.805-.02-.173.008-.437.24-.709 1.13-1.32 12.291-7.475 19.132-7.817 1.29-.06 3.132.004 4.201 1.308.685.837.815 1.927.914 2.724l1.474 12.185c.28 2.275.621 5.108-.6 7.55-.708 1.414-2.769 2.628-6.123 3.608-3.045.89-7.042 1.503-9.949 1.503" style="fill:#211d1d;fill-opacity:1;fill-rule:nonzero;stroke:none;stroke-width:.0352778" transform="translate(48.134 51.286)scale(.65561)"/><path d="M117.945 149.252c-.405-1.32-15.398-1.196-20.489 1.362-3.21 3.775-5.528 6.84-7.197 11.698a.325.325 0 0 0 .388.42l21.9-5.913z" style="fill:#fff;fill-opacity:1;fill-rule:nonzero;stroke:none;stroke-width:.0352778" transform="translate(48.134 51.286)scale(.65561)"/><path d="M117.339 149.743h.004zm-19.378 1.524c-2.738 3.228-4.989 6.106-6.63 10.445l20.727-5.598 4.684-6.569c-2.92-.6-14.33-.395-18.781 1.722m-7.395 12.283a1.13 1.13 0 0 1-1.072-1.499c1.774-5.161 4.268-8.34 7.345-11.96l.106-.123.148-.074c4.917-2.473 18.284-2.751 20.817-1.668.43.183.702.451.808.79l.116.38-5.796 8.125-.278.078-21.9 5.913a1 1 0 0 1-.294.038" style="fill:#211d1d;fill-opacity:1;fill-rule:nonzero;stroke:none;stroke-width:.0352778" transform="translate(48.134 51.286)scale(.65561)"/><path d="M47.52 147.298c-.225-.244-.638-.198-.875.11-3.242 4.197-7.337 11.26-8.265 16.04-.808 4.177 4.07 13.43 5.19 15.476.098.184.366.149.483-.06l12.375-22.087z" style="fill:#fff;fill-opacity:1;fill-rule:nonzero;stroke:none;stroke-width:.0352778" transform="translate(48.134 51.286)scale(.65561)"/><path d="M46.931 147.852h.004zm.215.23c-3.249 4.254-7.112 11.07-7.972 15.521-.558 2.868 2.05 9.165 4.628 14.055l11.635-20.761zm-3.377 31.771h-.007a1.03 1.03 0 0 1-.903-.54c-1.45-2.656-6.117-11.659-5.274-16.016.935-4.812 4.943-11.885 8.42-16.383a1.47 1.47 0 0 1 1.084-.575 1.31 1.31 0 0 1 1.02.406l9.313 9.91-12.665 22.606a1.14 1.14 0 0 1-.988.592" style="fill:#211d1d;fill-opacity:1;fill-rule:nonzero;stroke:none;stroke-width:.0352778" transform="translate(48.134 51.286)scale(.65561)"/><path d="M70.303 166.895c-2.1-4.382-3.627-11.988-6.026-14.26-1.718-1.626-12.216-4.702-16.728-5.658-.173-.035-.346.152-.318.331.684 4.357 2.664 7.97 5.599 10.894l15.67 10.781z" style="fill:#bae7e0;fill-opacity:1;fill-rule:nonzero;stroke:none;stroke-width:.0352778" transform="translate(48.134 51.286)scale(.65561)"/><path d="m53.348 157.578 15.01 10.33.992-1.147c-.737-1.644-1.407-3.648-2.06-5.592-1.097-3.288-2.237-6.685-3.567-7.944-1.372-1.302-10.276-4.082-15.56-5.285.723 3.672 2.465 6.91 5.185 9.638m15.29 12.478-16.38-11.282c-3.182-3.172-5.143-6.985-5.824-11.339-.057-.356.07-.72.338-.973a1.05 1.05 0 0 1 .942-.275c4.086.864 15.142 3.993 17.12 5.863 1.623 1.541 2.774 4.974 3.987 8.608.702 2.092 1.425 4.25 2.208 5.887l.23.477z" style="fill:#211d1d;fill-opacity:1;fill-rule:nonzero;stroke:none;stroke-width:.0352778" transform="translate(48.134 51.286)scale(.65561)"/><path d="M43.792 179.33c4.473 2.819 7.609 3.5 11.67 6.805.85.699 1.81 1.425 2.977 1.309 1.71-.173 2.988-2.007 3.947-3.623q3.355-5.64 6.714-11.282c.977-1.644 2-3.531 1.608-5.228-.32-1.39-1.51-2.237-2.628-2.985-3.549-2.367-14.072-6.441-15.575-5.923 0 0-11.42 16.838-8.713 20.927" style="fill:#ecf9f7;fill-opacity:1;fill-rule:nonzero;stroke:none;stroke-width:.0352778" transform="translate(48.134 51.286)scale(.65561)"/><path d="M44.388 178.748c1.707 1.065 3.22 1.817 4.685 2.544 2.268 1.128 4.413 2.19 6.896 4.219.819.667 1.563 1.21 2.389 1.129 1.33-.134 2.48-1.796 3.337-3.232l6.71-11.282c.942-1.587 1.838-3.252 1.517-4.635-.244-1.055-1.182-1.753-2.29-2.49-3.351-2.24-12.672-5.793-14.661-5.843-4.216 6.276-10.037 16.768-8.583 19.59m13.804 9.514c-1.4 0-2.498-.896-3.242-1.499-2.346-1.915-4.41-2.939-6.594-4.025-1.548-.77-3.15-1.563-4.995-2.727l-.148-.092-.095-.144c-2.861-4.318 6.762-18.937 8.72-21.827l.149-.222.257-.088c2.078-.713 13.212 3.965 16.288 6.018 1.016.681 2.557 1.708 2.963 3.472.455 1.965-.593 3.954-1.704 5.824l-6.71 11.282c-1.114 1.87-2.525 3.81-4.565 4.01a2.4 2.4 0 0 1-.324.018" style="fill:#211d1d;fill-opacity:1;fill-rule:nonzero;stroke:none;stroke-width:.0352778" transform="translate(48.134 51.286)scale(.65561)"/><path d="M112.354 99.846s1.513 11.398-4.918 15.86c-6.427 4.463-17.628 3.86-21.576 2.96-3.947-.903-12.287-5.231-14.492-10.653 0 0-6.974 2.116-5.531 9.923 2.003 10.838 18.908 16.648 33.88 9.483 14.969-7.162 18.077-16.087 18.077-16.087z" style="fill:#fff;fill-opacity:1;fill-rule:nonzero;stroke:none;stroke-width:.0352778" transform="translate(48.134 51.286)scale(.65561)"/><path d="M70.959 109.014c-1.573.71-5.405 3.055-4.346 8.778.712 3.859 3.492 7.2 7.828 9.408 7.144 3.637 16.7 3.45 24.934-.49 13.021-6.23 16.88-13.808 17.558-15.353l-3.644-7.69c-.113 3.89-1.073 9.68-5.401 12.685-6.611 4.586-18.013 4.036-22.2 3.08-3.99-.91-12.04-5.105-14.73-10.418m14.966 22.36c-4.357 0-8.57-.921-12.2-2.77-4.78-2.434-7.856-6.173-8.66-10.523-1.556-8.403 5.997-10.799 6.075-10.823l.688-.209.268.667c2.064 5.066 10.17 9.32 13.942 10.181 4.423 1.01 15.113 1.214 20.951-2.84 5.955-4.13 4.597-14.996 4.583-15.105l-.656-4.975 7.729 16.306-.106.307c-.134.377-3.39 9.317-18.482 16.538-4.512 2.159-9.409 3.245-14.132 3.245" style="fill:#211d1d;fill-opacity:1;fill-rule:nonzero;stroke:none;stroke-width:.0352778" transform="translate(48.134 51.286)scale(.65561)"/><path d="M96.08 127.835c9.328-3.263 17.092-12.372 17.092-12.372l-1.055 6.7s-11.726 8.579-17.07 10.861a6.7 6.7 0 0 1-1.122.34c.36-1.5 1.654-5.356 2.155-5.529" style="fill:#e7e2b9;fill-opacity:1;fill-rule:nonzero;stroke:none;stroke-width:.0352778" transform="translate(48.134 51.286)scale(.65561)"/><path d="M96.493 128.523c-.314.466-.949 2.166-1.404 3.623 4.893-2.226 14.584-9.183 16.302-10.428l.603-3.828c-2.826 2.875-8.703 8.21-15.501 10.633m-3.627 5.888.293-1.231c.014-.057 1.447-5.666 2.66-6.09 9.024-3.153 16.676-12.047 16.754-12.138l1.81-2.124-1.539 9.779-.26.194c-.484.35-11.861 8.654-17.227 10.947a7 7 0 0 1-1.26.384z" style="fill:#211d1d;fill-opacity:1;fill-rule:nonzero;stroke:none;stroke-width:.0352778" transform="translate(48.134 51.286)scale(.65561)"/><path d="M80.89 92.945c.02.272.317.441.6.332 3.372-1.316 21.279-7.486 28.165 6.696 7.613 15.684-2.522 27.05-13.409 32.046l-2.49 1.655 2.187-.244s8.075.565 15.649-5.39c7.57-5.952 12.019-11.945 11.225-23.245-.61-8.713-6.396-22.553-21.964-27.248-9.652-2.91-23.816 4.71-23.816 4.71 3.13 3.788 3.468 6.102 3.853 10.688" style="fill:#ca851a;fill-opacity:1;fill-rule:nonzero;stroke:none;stroke-width:.0352778" transform="translate(48.134 51.286)scale(.65561)"/><path d="M93.992 90.017c6.071 0 12.693 2.04 16.369 9.61 3.026 6.234 3.549 12.22 1.548 17.794-2.243 6.248-7.76 11.793-15.162 15.233 2.127-.039 8.438-.578 14.358-5.232 7.32-5.757 11.702-11.539 10.93-22.57-.537-7.627-5.649-21.798-21.407-26.55-7.913-2.385-19.216 2.677-22.37 4.222 2.621 3.426 3.03 5.888 3.372 9.857 2.085-.776 7.01-2.364 12.362-2.364m-3.373 44.796 5.299-3.51c7.101-3.26 12.393-8.513 14.51-14.415 1.848-5.16 1.35-10.735-1.482-16.573-6.565-13.519-23.788-7.624-27.17-6.304a1.25 1.25 0 0 1-1.12-.099 1.17 1.17 0 0 1-.553-.9c-.374-4.476-.663-6.61-3.672-10.255l-.61-.737.846-.455c.589-.318 14.563-7.74 24.416-4.77 16.58 5 21.957 19.918 22.521 27.947.822 11.723-3.8 17.844-11.525 23.919-7.423 5.835-15.22 5.609-16.115 5.56z" style="fill:#211d1d;fill-opacity:1;fill-rule:nonzero;stroke:none;stroke-width:.0352778" transform="translate(48.134 51.286)scale(.65561)"/><path d="m95.269 133.413 1.77-16.712-9.09-10.498-22.705-3.292-5.546 12.612 3.281 7.892 4.057 4.113s3.447 2.389 7.881 3.482 9.853.896 10.262 1.224c.819.66 4.368-3.482 4.368-3.482s-11.38-.536-15.854-2.162-8.364-5.676-6.565-12.605c1.361-5.235 7.652-4.632 10.54-3.86 4.478 1.193 7.335 3.045 10.217 7.6 3.778 5.972 3.528 8.985 1.965 12.33-1.58 3.382-7.503 8.445-14.326 9.7-.413.078-.628.537-.35.808.978.96 5.885.956 5.885.956l7.606-2.712z" style="fill:#e7e2b9;fill-opacity:1;fill-rule:nonzero;stroke:none;stroke-width:.0352778" transform="translate(48.134 51.286)scale(.65561)"/><path d="M73.88 110.404c-1.394 0-2.776.244-3.863.879-1.087.631-1.782 1.58-2.124 2.9-2.085 8.018 4.117 10.957 6.068 11.666 4.311 1.566 15.508 2.113 15.621 2.117l.226.01c.744-2.568.3-5.263-2.59-9.832-2.617-4.138-5.171-6.04-9.754-7.26a14.3 14.3 0 0 0-3.584-.48m21.389 23.009h.003zm-18.666 6.921c.999.226 2.66.388 4.318.395l7.349-2.617 6.247-5.105 1.7-16.048-8.67-10.019-21.823-3.164-5.168 11.758 3.093 7.436 3.892 3.948c.462.31 3.637 2.36 7.563 3.33 2.695.663 5.8.84 7.853.956 1.56.088 2.159.127 2.508.29.423-.17 1.38-1.002 2.388-2.05-3.354-.215-10.89-.826-14.428-2.113-2.269-.826-9.476-4.24-7.06-13.543.449-1.722 1.412-3.024 2.858-3.867 3.126-1.824 7.409-.889 8.647-.557 4.96 1.323 7.853 3.475 10.678 7.94 3.913 6.181 3.701 9.476 2.015 13.085-1.517 3.246-7.126 8.34-13.96 9.945m4.431 1.972c-1.256 0-5.298-.088-6.413-1.178a1.18 1.18 0 0 1-.304-1.214c.145-.472.561-.84 1.066-.931 5.46-1.005 10.163-4.442 12.516-7.352-2 1.817-2.758 1.545-3.111 1.295-.29-.057-1.154-.106-1.923-.148-2.11-.12-5.299-.304-8.138-1.002-4.523-1.115-7.994-3.5-8.139-3.599l-.113-.095-4.163-4.223-3.471-8.343 5.923-13.472 23.59 3.421 9.504 10.979-1.841 17.374-6.96 5.683-7.864 2.805z" style="fill:#211d1d;fill-opacity:1;fill-rule:nonzero;stroke:none;stroke-width:.0352778" transform="translate(48.134 51.286)scale(.65561)"/><path d="M88.213 133.786c2.3-2.458 2.621-6.667 2.664-7.983.003-.127-.177-.17-.254-.063-2.844 3.764-5.07 7.34-15.297 7.673-.088.004-.155.077-.137.158.476 1.88.215 3.895-.215 6.054-.018.088.063.166.158.148 5.017-.988 11.226-4 13.081-5.987" style="fill:#fff;fill-opacity:1;fill-rule:nonzero;stroke:none;stroke-width:.0352778" transform="translate(48.134 51.286)scale(.65561)"/><path d="M75.355 134.2h-.004zm.758-.033c.233 1.517.081 3.094-.18 4.625 4.734-1.136 10.121-3.845 11.705-5.542 1.334-1.425 1.944-3.538 2.223-5.207-2.42 3.059-5.415 5.712-13.748 6.124m-1.009 6.396a.912.912 0 0 1-.903-1.09c.44-2.215.65-4.032.226-5.708a.923.923 0 0 1 .875-1.14c9.401-.303 11.68-3.344 14.319-6.864l.37-.498a.94.94 0 0 1 1.07-.317.9.9 0 0 1 .602.882c-.052 1.69-.444 5.902-2.875 8.498-2.099 2.244-8.664 5.267-13.504 6.22q-.09.016-.18.017" style="fill:#211d1d;fill-opacity:1;fill-rule:nonzero;stroke:none;stroke-width:.0352778" transform="translate(48.134 51.286)scale(.65561)"/><path d="M99.887 112.567C97.31 100.862 86.344 98.18 78.932 96.8c-5.51-1.023-8.911.152-13.748 4.72-3.126 2.953-4.706 6.848-5.535 9.515-.741 2.374-1.609 5.546.716 10.59 2.321 5.045 9.303 7.659 9.303 7.659-2.24-2.402-5.415-3.323-6.738-7.892-.992-3.418-.635-7.471 1.735-11.338 4.597-7.496 17.936-5.14 24.11 2.064 5.637 6.58 6.092 17.092 2.469 22.394-2.706 3.969-7.903 6.449-13.836 7.225 2.44 1.267 13.014-2.91 15.116-4.473 6.375-4.73 9.942-12.993 7.363-24.698" style="fill:#ca851a;fill-opacity:1;fill-rule:nonzero;stroke:none;stroke-width:.0352778" transform="translate(48.134 51.286)scale(.65561)"/><path d="M74.077 104.665c5.567 0 11.699 2.744 15.297 6.942 6.054 7.066 6.188 17.978 2.519 23.35-.89 1.31-2.06 2.488-3.457 3.504 1.626-.678 2.97-1.348 3.619-1.828 6.83-5.073 9.338-13.557 7.063-23.897-2.3-10.456-11.568-13.529-20.33-15.159-5.236-.973-8.411.124-13.064 4.516-2.318 2.187-4.107 5.277-5.324 9.18-.631 2.031-1.587 5.1.678 10.025.564 1.22 1.432 2.297 2.406 3.221-.523-.8-.974-1.746-1.313-2.907-1.14-3.94-.494-8.191 1.824-11.97 1.757-2.868 4.883-4.617 8.795-4.928q.639-.049 1.287-.05m4.671 38.094c-.691 0-1.277-.1-1.704-.318l-2.226-1.153 2.487-.329c5.994-.786 10.838-3.294 13.29-6.886 3.337-4.893 3.016-15.102-2.417-21.438-3.57-4.17-9.846-6.777-15.261-6.35-2.406.19-5.673 1.072-7.578 4.18-2.085 3.398-2.67 7.2-1.654 10.71.853 2.94 2.504 4.22 4.254 5.575.78.603 1.584 1.224 2.304 1.996l2.286 2.449-3.136-1.172c-.297-.113-7.313-2.787-9.744-8.064-2.522-5.475-1.415-9.031-.752-11.155 1.295-4.163 3.228-7.479 5.747-9.853 5.03-4.752 8.671-5.994 14.432-4.921 6.086 1.132 18.743 3.485 21.58 16.369 2.416 10.978-.304 20.037-7.663 25.498-1.608 1.196-9.99 4.862-14.245 4.862" style="fill:#211d1d;fill-opacity:1;fill-rule:nonzero;stroke:none;stroke-width:.0352778" transform="translate(48.134 51.286)scale(.65561)"/><path d="M109.906 94.706c.78-.222.437-1.436-.343-1.214-.78.219-.44 1.432.343 1.214m-13.381 31.905c.78-.219.437-1.432-.342-1.214-.78.223-.441 1.436.342 1.214m-1.739-19.833c.78-.219.437-1.432-.343-1.21-.783.219-.44 1.432.343 1.21m-1.161 6.682c.78-.22.44-1.433-.342-1.21-.78.218-.438 1.432.342 1.21M83.112 84.045c.78-.219.438-1.432-.342-1.21-.78.219-.441 1.432.342 1.21m31.493 8.745c.78-.219.437-1.432-.343-1.213-.783.222-.44 1.435.343 1.213m-3.027-3.069c.783-.219.44-1.432-.342-1.214-.78.223-.438 1.436.342 1.214m5.292 16.648c.78-.22.44-1.433-.343-1.21-.78.218-.437 1.432.342 1.21m-1.718 12.618c.78-.222.441-1.435-.342-1.213-.78.219-.437 1.432.342 1.213m-4.646 5.634c.78-.218.438-1.432-.342-1.21-.78.219-.44 1.433.342 1.21m-5.09-40.534c.78-.219.44-1.432-.342-1.21-.78.219-.441 1.432.342 1.21m-4.05 3.267c.78-.219.437-1.432-.342-1.214-.78.223-.441 1.436.342 1.214M84.103 103.19c.78-.219.441-1.432-.342-1.21-.78.219-.437 1.432.342 1.21m-4.583-.215c.78-.219.438-1.432-.341-1.214-.78.223-.441 1.436.342 1.214m-4.353-2.851c.78-.218.44-1.432-.343-1.21-.78.22-.44 1.433.343 1.21m-3.468 2.361c.78-.22.437-1.433-.342-1.214-.784.222-.441 1.436.342 1.214m-4.847 3.721c.78-.218.437-1.432-.343-1.21-.78.219-.44 1.433.343 1.21m24.031 2.029c.78-.219.437-1.432-.342-1.214-.784.222-.441 1.436.342 1.214m-2.18-3.048c.783-.219.44-1.432-.343-1.21-.78.218-.437 1.432.343 1.21m8.029 10.52c.78-.223.437-1.436-.342-1.214-.78.219-.441 1.432.342 1.214m-2.36-4.802c.78-.222.437-1.435-.342-1.213-.784.218-.441 1.432.342 1.213m3.443 8.679c.78-.223.437-1.436-.342-1.214-.783.219-.441 1.432.342 1.214m1.587-36.449c.78-.22.438-1.433-.342-1.21-.78.218-.44 1.432.342 1.21m-9.401-2.664c.78-.219.437-1.432-.342-1.21-.78.219-.441 1.432.342 1.21m4.268-1.192c.78-.219.438-1.432-.345-1.21-.78.218-.438 1.432.345 1.21m11.946 9.221c.78-.222.437-1.435-.343-1.213-.783.219-.44 1.432.343 1.213m-10.831-3.4c.78-.223.438-1.436-.342-1.214-.78.219-.44 1.432.342 1.214m-5.411 1.545c.78-.222.437-1.436-.343-1.214-.783.219-.44 1.433.343 1.214m-5.644 2.399c.779-.219.437-1.433-.343-1.21-.783.218-.441 1.432.342 1.21m2.837-5.02c.78-.22.437-1.433-.343-1.21-.783.218-.44 1.432.343 1.21m32.642 18.129c.78-.222.438-1.432-.342-1.214-.78.223-.441 1.433.342 1.214m-4.604-3.62c.78-.222.441-1.432-.342-1.213-.78.222-.437 1.432.342 1.213m4.128 13.597c.78-.223.44-1.436-.342-1.214-.78.219-.441 1.432.342 1.213" style="fill:#e2994c;fill-opacity:1;fill-rule:nonzero;stroke:none;stroke-width:.0352778" transform="translate(48.134 51.286)scale(.65561)"/><path d="M61.727 101.12c-.166-.357-.558-.558-.907-.466-4.956 1.273-14.323 2.758-15.173 3.626-.617.628-8.103 9.405-10.163 13.635-.103.212.067.476.306.487 4.424.18 9.275.473 12.75-1.849a1 1 0 0 0 .11-.088l13.588-13.173c.212-.2.258-.529.124-.822z" style="fill:#fff;fill-opacity:1;fill-rule:nonzero;stroke:none;stroke-width:.0352778" transform="translate(48.134 51.286)scale(.65561)"/><path d="M61.674 102.81h.003zm-25.199 14.855c4.209.176 8.537.324 11.638-1.747l13.55-13.13-.628-1.344-.053-.05c-1.88.49-4.423 1.01-6.886 1.51-3.097.635-7.345 1.503-7.93 1.934-.6.613-7.335 8.516-9.691 12.827m3.355 1.619c-1.217 0-2.43-.05-3.599-.099l-.472-.021a1.1 1.1 0 0 1-.91-.547 1.09 1.09 0 0 1-.053-1.037c2.081-4.276 9.634-13.155 10.304-13.836.628-.639 3.006-1.175 8.693-2.336 2.441-.5 4.963-1.016 6.837-1.495.709-.184 1.464.187 1.788.882l.635 1.35c.275.586.162 1.267-.282 1.698l-13.593 13.172a1.3 1.3 0 0 1-.215.173c-2.59 1.732-5.877 2.096-9.133 2.096" style="fill:#211d1d;fill-opacity:1;fill-rule:nonzero;stroke:none;stroke-width:.0352778" transform="translate(48.134 51.286)scale(.65561)"/><path d="M67.664 129.116c3.627-3.782 9.5-12.517 9.645-13.702.208-1.715-.141-2.646-1.513-3.87q-4.799-4.281-9.593-8.562c-1.397-1.249-3.023-2.586-4.773-2.49-1.432.073-2.518 1.096-3.496 2.067q-4.645 4.624-9.295 9.25c-.681.68-1.397 1.418-1.556 2.409-.236 1.46.79 2.935 1.82 4.149.036.038.067.074.106.105.974.815 14.224 12.528 18.655 10.644" style="fill:#ecf9f7;fill-opacity:1;fill-rule:nonzero;stroke:none;stroke-width:.0352778" transform="translate(48.134 51.286)scale(.65561)"/><path d="m61.603 101.292-.13.004c-1.097.06-1.993.868-2.967 1.838l-9.296 9.246c-.684.681-1.217 1.26-1.33 1.965-.187 1.165.78 2.484 1.64 3.5l.28.24c8.357 7.179 14.985 11.105 17.405 10.34 3.747-3.962 9.077-12.108 9.307-13.127.173-1.454-.085-2.106-1.256-3.154l-9.589-8.558c-1.301-1.164-2.684-2.293-4.064-2.293m6.061 27.823h.003zm-1.08.999c-4.296 0-11.895-5.701-17.836-10.802-.12-.103-.205-.18-.257-.223a1.6 1.6 0 0 1-.202-.2c-1.086-1.281-2.296-2.985-2.003-4.802.208-1.28 1.118-2.187 1.785-2.85l9.295-9.25c.935-.932 2.22-2.209 4.022-2.304 2.036-.11 3.831 1.337 5.352 2.695l9.592 8.562c1.552 1.387 2.018 2.582 1.778 4.572-.194 1.616-6.463 10.619-9.864 14.16l-.113.12-.152.064c-.412.176-.881.258-1.397.258" style="fill:#211d1d;fill-opacity:1;fill-rule:nonzero;stroke:none;stroke-width:.0352778" transform="translate(48.134 51.286)scale(.65561)"/><path d="M35.667 118.204c-.201.088-.247.353-.095.544 3.355 4.148 9.168 13.112 13.723 14.88 3.944 1.53 15.24-3.313 17.6-4.36.205-.092.222-.378.032-.537l-18.45-15.596c-.3-.25-.696-.321-1.02-.177z" style="fill:#bae7e0;fill-opacity:1;fill-rule:nonzero;stroke:none;stroke-width:.0352778" transform="translate(48.134 51.286)scale(.65561)"/><path d="M35.667 118.204h.004zm.893.487c.652.826 1.382 1.803 2.148 2.826 3.179 4.247 7.528 10.058 10.88 11.36 2.72 1.054 10.273-1.44 16.234-4.022l-17.868-15.103c-.067-.056-.14-.067-.17-.056zm14.654 16.03c-.85 0-1.605-.102-2.212-.338-3.782-1.471-8.11-7.25-11.585-11.896-.903-1.206-1.754-2.346-2.473-3.231a1.18 1.18 0 0 1-.237-1.027c.082-.342.31-.62.632-.762l11.79-5.246c.603-.268 1.337-.151 1.87.297l18.45 15.596c.31.26.462.656.405 1.048a1.08 1.08 0 0 1-.631.843c-2.755 1.224-11.056 4.716-16.01 4.716" style="fill:#211d1d;fill-opacity:1;fill-rule:nonzero;stroke:none;stroke-width:.0352778" transform="translate(48.134 51.286)scale(.65561)"/><path d="M106.141 150.057a.77.77 0 0 0 .1-1.03c-3.32-4.491-8.669-13.25-9.893-13.83-.885-.416-12.827-5.15-17.945-5.912a.335.335 0 0 0-.364.448c1.634 4.403 3.327 9.253 7.098 11.973q.064.049.134.081l18.888 9.423c.29.145.638.095.878-.127z" style="fill:#fff;fill-opacity:1;fill-rule:nonzero;stroke:none;stroke-width:.0352778" transform="translate(48.134 51.286)scale(.65561)"/><path d="M79.083 130.223c1.539 4.16 3.168 8.407 6.527 10.83l18.909 9.434 1.054-1.005c-1.273-1.726-2.832-4.057-4.342-6.312-1.933-2.885-4.58-6.84-5.242-7.25-.879-.415-11.55-4.638-16.906-5.697m25.418 21.876c-.24 0-.48-.056-.702-.166l-18.888-9.422a2 2 0 0 1-.247-.148c-3.838-2.77-5.63-7.61-7.207-11.882l-.176-.466a1.143 1.143 0 0 1 1.241-1.527c5.158.765 17.209 5.528 18.172 5.98.871.412 2.385 2.582 5.877 7.803 1.507 2.25 3.066 4.579 4.318 6.276.48.649.395 1.552-.197 2.102l-1.104 1.027c-.3.275-.692.423-1.087.423" style="fill:#211d1d;fill-opacity:1;fill-rule:nonzero;stroke:none;stroke-width:.0352778" transform="translate(48.134 51.286)scale(.65561)"/><path d="M80.3 164.252c5.306 2.435 16.546 5.599 17.798 5.387 1.82-.31 2.618-.928 3.292-2.646l4.71-11.98c.687-1.746 1.368-3.743.557-5.433-.664-1.386-2.145-2.148-3.525-2.818l-13.158-6.372c-.97-.469-2.008-.948-3.073-.81-1.573.204-2.639 1.654-3.443 3.03a.6.6 0 0 0-.064.134c-.427 1.199-6.815 17.716-3.094 21.508" style="fill:#bae7e0;fill-opacity:1;fill-rule:nonzero;stroke:none;stroke-width:.0352778" transform="translate(48.134 51.286)scale(.65561)"/><path d="M80.784 163.586c5.235 2.367 15.568 5.256 17.117 5.256h.077c1.545-.265 2.096-.706 2.66-2.145l4.71-11.98c.656-1.669 1.241-3.412.582-4.787-.53-1.105-1.74-1.76-3.15-2.442l-13.16-6.37c-.959-.466-1.816-.844-2.613-.738-1.256.162-2.184 1.496-2.854 2.639l-.12.328c-3.895 10.548-5.098 18.076-3.25 20.239m17.22 6.865c-2.31 0-13.392-3.334-18.038-5.465l-.137-.063-.103-.106c-3.206-3.263-.25-13.78 2.79-22.028.057-.144.096-.254.117-.317q.054-.141.127-.272c.854-1.46 2.085-3.168 4.04-3.422 1.34-.173 2.603.438 3.524.886l13.158 6.37c1.627.788 3.15 1.624 3.906 3.197.938 1.962.215 4.166-.536 6.078l-4.71 11.98c-.773 1.962-1.796 2.788-3.905 3.144q-.096.017-.233.018" style="fill:#211d1d;fill-opacity:1;fill-rule:nonzero;stroke:none;stroke-width:.0352778" transform="translate(48.134 51.286)scale(.65561)"/><path d="M78.187 129.553a.376.376 0 0 0-.585.067c-2.819 4.537-9.486 12.926-9.402 17.928.074 4.332 9.603 13.988 11.631 15.992a.335.335 0 0 0 .554-.127l8.181-22.786c.13-.37.039-.78-.24-1.055z" style="fill:#ecf9f7;fill-opacity:1;fill-rule:nonzero;stroke:none;stroke-width:.0352778" transform="translate(48.134 51.286)scale(.65561)"/><path d="M78 130.502c-.575.896-1.27 1.92-2 2.992-2.977 4.381-7.055 10.378-6.992 14.04.05 3.024 5.768 9.797 10.87 14.912l7.926-22.094a.19.19 0 0 0-.046-.205zm2.068 33.944c-.3 0-.586-.116-.805-.331-2.765-2.734-11.793-12.012-11.87-16.553-.071-4.173 4-10.163 7.274-14.975.846-1.245 1.647-2.424 2.247-3.39.19-.31.508-.512.868-.554.356-.046.712.078.973.335l10.14 10.019c.497.494.666 1.242.43 1.901l-8.178 22.786a1.15 1.15 0 0 1-1.08.762" style="fill:#211d1d;fill-opacity:1;fill-rule:nonzero;stroke:none;stroke-width:.0352778" transform="translate(48.134 51.286)scale(.65561)"/><path d="M80.523 212.322c-2.907 0-5.765-.286-8.534-.565q-1.302-.132-2.59-.25-1.242-.11-2.465-.205c-3.034-.243-5.902-.472-8.601-.994-3.425-.66-7.38-1.493-10.746-2.664-4-1.386-7.175-3.443-9.496-5.076-2.936-2.071-4.668-4.216-5.165-6.393a6 6 0 0 1-.053-.776c0-.042-.003-.085 0-.11l.025-.123-.01-.127c0-.053.01-.151.024-.247l.003-.063c.106-1.704.307-5.581.392-11.275.843 1.185 2.106 2.265 3.856 3.323 2.406 1.46 5.704 3.299 9.895 4.551 3.457 1.034 7.486 1.764 10.975 2.346 2.773.462 5.676.663 8.745.875.822.06 1.648.116 2.48.18q1.327.101 2.675.219c2.772.24 5.64.483 8.586.483 4.17 0 7.867-.124 11.3-.385 4.088-.314 7.94-.903 11.169-1.439 3.38-.564 6.724-1.365 10.84-2.596 4.294-1.285 7.603-2.646 10.111-4.17 1.905-1.154 3.355-2.382 4.343-3.676l-.219 12.234q.001.456-.067.907c-.5 2.23-2.173 4.353-4.985 6.329-2.395 1.686-5.567 3.206-9.701 4.642-2.501.868-6.325 2.117-10.626 2.953-2.967.575-6.897 1.284-11 1.65-3.386.297-7.037.442-11.161.442m47.907-37.557c-.998-1.365-2.519-2.67-4.554-3.905a26 26 0 0 0-1.793-.995q.357-.538.664-1.086c.529-.928 1.1-2.025 1.252-3.274.176-1.468-.261-2.868-.646-4.1l-3.111-9.969c-.247-.797-.653-2.1-1.722-2.783a1.65 1.65 0 0 0-.61-.427c-.91-.388-3.207-.6-6.011-.6-1.711 0-3.613.078-5.5.247-1.157-1.612-2.512-3.634-3.828-5.602-3.492-5.221-5.006-7.39-5.877-7.804a.2.2 0 0 1-.046-.02q.09-.106.173-.213c2.395-.035 8.96-.624 15.258-5.573 6.47-5.087 10.763-10.206 11.504-18.62.931-.48 1.785-.97 2.568-1.478 1.74-1.129 3.126-2.328 4.152-3.584l-.092 1.746-.01.166q-.002.046-.004.098l-.007.138a2 2 0 0 0-.007.152l-.025.504q-.01.084-.01.173l-.007.106-.032.638c-.007.149-.018.297-.018.445l-.751 14.746zm-95.102-.275a425 425 0 0 0-.459-16.118c-.543-11.459-1.418-25.076-2.201-36.866-.01-.2-.021-.31-.021-.314l-.66-9.839q-.209-3.112-.416-6.237c1.026 1.16 2.381 2.286 4.053 3.373 1.432.931 3.158 1.993 5.183 2.998-1.673 2.23-3.228 4.484-4.012 6.093-.098.204-.13.434-.091.653-.085.356.003.73.24 1.023.72.885 1.57 2.025 2.473 3.231 3.474 4.646 7.803 10.425 11.585 11.896.607.236 1.362.338 2.212.338 4.836 0 12.866-3.33 15.804-4.628.346-.032.67-.11.963-.236l.152-.064.113-.12q.047-.047.095-.099c.596.275.984.424 1.051.448l3.137 1.172-.11-.117c.727.261 1.503.501 2.307.699q.212.052.424.098l-.484.713c-3.273 4.812-7.344 10.802-7.274 14.975.064 3.793 6.378 10.894 10.065 14.722-2.639.056-5.302.183-7.955.377-.23-.663-.455-1.337-.681-2.003-1.214-3.634-2.364-7.067-3.987-8.608-1.979-1.87-13.035-5-17.12-5.863a1.04 1.04 0 0 0-.818.172 1.48 1.48 0 0 0-.89.554c-3.478 4.498-7.485 11.571-8.42 16.383-.335 1.74.205 4.223 1.069 6.745q-.801.457-1.454.854c-1.707 1.037-3.002 2.237-3.873 3.595m68.093-57.012q-.03-.38-.067-.766c.847-.141 1.669-.286 2.452-.423.55-.1 1.097-.205 1.65-.314-1.23.631-2.6 1.125-4.035 1.503" style="fill:#ae6838;fill-opacity:1;fill-rule:nonzero;stroke:none;stroke-width:.0352778" transform="translate(48.134 51.286)scale(.65561)"/><path d="M80.52 193.738c-2.876 0-5.705-.244-8.443-.48-.903-.078-1.799-.155-2.688-.222-.836-.064-1.669-.12-2.49-.177-3.03-.212-5.895-.41-8.587-.857-3.436-.572-7.401-1.295-10.767-2.3-4.007-1.196-7.182-2.967-9.504-4.375-3.616-2.194-4.357-4.053-4.357-6.173 0-2.787 1.436-5.013 4.396-6.809.356-.215.744-.448 1.171-.688 1.26 3.235 2.861 6.287 3.61 7.655q.02.043.049.085.09.202.208.378l.095.144.148.092c1.845 1.164 3.447 1.958 4.995 2.727 2.184 1.087 4.248 2.11 6.594 4.025.744.603 1.841 1.5 3.242 1.5q.16 0 .324-.018c2.04-.201 3.45-2.142 4.565-4.011l6.71-11.282c1.111-1.87 2.16-3.86 1.704-5.824-.18-.78-.582-1.415-1.058-1.94-.117-.28-.226-.572-.339-.869 3.006-.211 6.026-.335 9.003-.363q.26.49.624.86l.103.107.137.063c2.382 1.094 6.46 2.501 10.178 3.616.97 5.352 2.706 12.785 5.041 14.178.635.381 1.856.547 3.37.547 2.906 0 6.903-.614 9.948-1.503 3.354-.98 5.415-2.194 6.124-3.609q.084-.174.162-.349c2.124-2.007 4.46-4.212 6.297-6.604q1.029.514 1.909 1.048c3.432 2.081 5.171 4.268 5.171 6.505 0 2.31-1.718 4.523-5.104 6.576-2.385 1.446-5.564 2.755-9.716 3.997-4.05 1.21-7.33 1.993-10.633 2.543-3.192.533-6.999 1.119-11.02 1.422-3.39.258-7.045.385-11.173.385" style="fill:#a3491e;fill-opacity:1;fill-rule:nonzero;stroke:none;stroke-width:.0352778" transform="translate(48.134 51.286)scale(.65561)"/><path d="M80.52 195.43c-2.946 0-5.815-.243-8.587-.482q-1.348-.118-2.674-.22c-.833-.063-1.659-.12-2.48-.18-3.07-.21-5.973-.412-8.746-.874-3.489-.582-7.518-1.312-10.975-2.346-4.19-1.252-7.49-3.09-9.895-4.55-1.75-1.06-3.013-2.139-3.856-3.324.039-2.614.053-5.616.021-8.964.871-1.358 2.166-2.558 3.874-3.595q.652-.397 1.453-.854.28.811.596 1.616c-.427.24-.815.473-1.171.688-2.96 1.796-4.396 4.022-4.396 6.809 0 2.12.741 3.979 4.357 6.173 2.322 1.408 5.497 3.179 9.504 4.375 3.366 1.005 7.33 1.728 10.767 2.3 2.692.448 5.556.645 8.586.857.822.057 1.655.113 2.491.177.89.067 1.785.144 2.688.222 2.738.236 5.567.48 8.442.48 4.128 0 7.782-.127 11.173-.385 4.021-.303 7.828-.889 11.02-1.422 3.302-.55 6.583-1.333 10.633-2.543 4.152-1.242 7.33-2.55 9.716-3.997 3.386-2.053 5.104-4.265 5.104-6.576 0-2.237-1.739-4.424-5.171-6.505a26 26 0 0 0-1.909-1.048q.531-.688.998-1.397a26 26 0 0 1 1.793.995c2.035 1.235 3.556 2.54 4.554 3.905l-.148 8.4q-1.484 1.943-4.343 3.676c-2.508 1.524-5.817 2.885-10.11 4.17-4.117 1.23-7.462 2.032-10.841 2.596-3.228.536-7.08 1.125-11.17 1.44-3.432.26-7.129.384-11.299.384M70.1 164.319a60 60 0 0 1-.597-1.658c2.653-.194 5.316-.32 7.955-.377.642.663 1.203 1.231 1.637 1.665q.003.001.007.007c-2.977.028-5.997.152-9.003.363" style="fill:#7e3b1a;fill-opacity:1;fill-rule:nonzero;stroke:none;stroke-width:.0352778" transform="translate(48.134 51.286)scale(.65561)"/><path d="M80.523 212.657c-2.9 0-5.758-.286-8.523-.56a246 246 0 0 0-2.593-.251c-.833-.074-1.655-.138-2.473-.205-3.03-.24-5.892-.47-8.583-.988-3.422-.656-7.377-1.481-10.735-2.642-3.987-1.372-7.155-3.411-9.472-5.034-3.147-2.205-4.897-4.491-5.218-6.802.497 2.177 2.23 4.322 5.165 6.393 2.32 1.633 5.496 3.69 9.496 5.076 3.366 1.171 7.32 2.004 10.746 2.664 2.699.522 5.567.75 8.6.994q1.224.094 2.467.205 1.286.118 2.589.25c2.77.28 5.627.565 8.534.565 4.124 0 7.775-.145 11.162-.441 4.102-.367 8.032-1.076 11-1.651 4.3-.836 8.124-2.085 10.625-2.953 4.134-1.436 7.306-2.956 9.701-4.642 2.812-1.976 4.484-4.1 4.985-6.33-.342 2.375-2.032 4.64-5.041 6.739-2.385 1.672-5.55 3.178-9.673 4.604-2.502.86-6.322 2.102-10.615 2.931-2.967.572-6.894 1.274-10.99 1.64-3.383.293-7.034.438-11.154.438" style="fill:#773319;fill-opacity:1;fill-rule:nonzero;stroke:none;stroke-width:.0352778" transform="translate(48.134 51.286)scale(.65561)"/><path d="M80.523 213.606c-3.863 0-7.596-.49-11.197-.811-3.902-.343-7.673-.537-11.155-1.207-3.937-.751-7.652-1.566-10.866-2.677-3.983-1.373-7.14-3.355-9.705-5.155-3.605-2.525-5.68-5.298-5.68-8.357 0-.102 0-.204.018-.296-.007-.145.01-.29.028-.434.194-3.161.882-16.485-.045-36.255-.52-10.943-1.323-23.64-2.205-36.865a4 4 0 0 0-.018-.286c-.44-6.615-.896-13.35-1.344-20.06.684 2.333 2.71 4.488 5.789 6.489 1.535.998 3.27 2.053 5.246 3.026-.194.254-.392.512-.582.77-2.025-1.006-3.75-2.068-5.183-3-1.672-1.086-3.026-2.211-4.053-3.372l.416 6.237c.223 3.299.441 6.583.66 9.84 0 .003.01.112.021.313.783 11.79 1.658 25.407 2.202 36.866.282 6 .416 11.405.458 16.118.032 3.348.018 6.35-.021 8.964-.085 5.694-.286 9.57-.392 11.275l-.003.063a2 2 0 0 0-.025.247l.01.127-.024.124c-.003.024 0 .067 0 .11q0 .385.053.775c.321 2.31 2.07 4.597 5.218 6.802 2.317 1.623 5.485 3.662 9.472 5.034 3.358 1.16 7.313 1.986 10.735 2.642 2.691.519 5.552.748 8.583.988.818.067 1.64.13 2.473.205q1.285.117 2.593.25c2.765.275 5.623.561 8.523.561 4.12 0 7.771-.145 11.155-.437 4.095-.367 8.022-1.07 10.989-1.64 4.293-.83 8.114-2.072 10.615-2.932 4.124-1.426 7.288-2.932 9.673-4.604 3.01-2.1 4.699-4.364 5.041-6.738q.068-.45.067-.907l.219-12.234.148-8.4.91-50.874.752-14.746c0-.148.01-.296.017-.445l.032-.638.007-.106q0-.089.01-.173l.025-.504q.001-.079.007-.152l.007-.138q.002-.052.004-.098l.01-.166.092-1.746c-1.026 1.256-2.413 2.455-4.152 3.584q-1.173.76-2.568 1.478.05-.546.078-1.115a27 27 0 0 0 1.972-1.16c3.009-1.955 4.9-4.103 5.58-6.393q.116-.011.226-.028l-.278 5.454c-.007.078-.007.173-.018.272 0 .077-.007.151-.007.24l-.028.54c-.01.095-.01.193-.021.296l-.025.62c-.01.135-.021.272-.021.406l-.064 1.16-.684 13.572-1.28 71.494c0 3.059-1.91 5.91-5.511 8.424-2.565 1.8-5.937 3.348-9.91 4.724-3.224 1.111-6.801 2.205-10.745 2.967-3.475.67-7.19 1.305-11.088 1.651-3.605.314-7.373.441-11.236.441m6.678-95.486a17 17 0 0 1-1.164-.223 15 15 0 0 1-1.743-.529q1.186-.031 2.364-.077.272.401.543.829m14.154-1.408a30 30 0 0 0-.11-.949q1.214-.201 2.396-.413a76 76 0 0 0 4.06-.846 8 8 0 0 1-.713.554q-.72.5-1.53.917a94 94 0 0 1-1.652.314c-.783.137-1.605.282-2.451.423" style="fill:#4d2919;fill-opacity:1;fill-rule:nonzero;stroke:none;stroke-width:.0352778" transform="translate(48.134 51.286)scale(.65561)"/><path d="M115.458 174.998c.113-1.506-.07-3.013-.233-4.332l-1.474-12.185c-.057-.452-.124-1.002-.296-1.545l4.624-6.484c.272.395.456.931.621 1.467l3.112 9.966c.353 1.133.72 2.304.585 3.426-.116.952-.606 1.88-1.054 2.674-1.408 2.483-3.648 4.847-5.885 7.013" style="fill:#a69e7b;fill-opacity:1;fill-rule:nonzero;stroke:none;stroke-width:.0352778" transform="translate(48.134 51.286)scale(.65561)"/><path d="M114.788 177.866c.402-.924.596-1.894.67-2.868 2.237-2.166 4.477-4.53 5.885-7.013.448-.794.938-1.722 1.054-2.674.135-1.122-.232-2.293-.585-3.426l-3.112-9.966c-.165-.536-.349-1.072-.62-1.467l.754-1.055-.116-.381a1.1 1.1 0 0 0-.198-.363c1.07.684 1.475 1.986 1.722 2.783l3.111 9.97c.385 1.23.822 2.631.646 4.099-.152 1.249-.723 2.346-1.252 3.274q-.308.547-.664 1.086-.467.709-.998 1.397c-1.838 2.392-4.173 4.597-6.297 6.604" style="fill:#4d2919;fill-opacity:1;fill-rule:nonzero;stroke:none;stroke-width:.0352778" transform="translate(48.134 51.286)scale(.65561)"/><path d="M98.444 181.708c-1.207 0-2.089-.106-2.434-.314-1.496-.893-3.108-6.982-4.142-12.287 2.812.793 5.196 1.344 6.135 1.344q.138 0 .233-.018c2.11-.356 3.132-1.182 3.905-3.143l3.002-7.634 6.872-1.856c.053.265.092.558.13.875l1.479 12.185c.25 2.06.56 4.625-.445 6.632-.476.956-2.346 1.969-5.129 2.784-3.39.987-7.165 1.432-9.606 1.432" style="fill:#c8a889;fill-opacity:1;fill-rule:nonzero;stroke:none;stroke-width:.0352778" transform="translate(48.134 51.286)scale(.65561)"/><path d="M98.553 183.327c-1.513 0-2.734-.166-3.369-.547-2.335-1.393-4.07-8.826-5.041-14.178.586.177 1.164.346 1.725.505 1.034 5.305 2.646 11.394 4.142 12.287.345.208 1.227.314 2.434.314 2.441 0 6.216-.445 9.606-1.432 2.783-.815 4.653-1.828 5.13-2.784 1.005-2.007.694-4.572.444-6.632l-1.478-12.185c-.04-.318-.078-.61-.13-.875l.744-.201.278-.078.417-.585c.172.543.24 1.093.296 1.545l1.474 12.185c.163 1.32.346 2.826.233 4.332-.074.974-.268 1.944-.67 2.868q-.079.175-.162.35c-.71 1.414-2.77 2.628-6.124 3.608-3.045.89-7.042 1.503-9.949 1.503" style="fill:#4d2919;fill-opacity:1;fill-rule:nonzero;stroke:none;stroke-width:.0352778" transform="translate(48.134 51.286)scale(.65561)"/><path d="m105.877 157.782.974-2.473c.73-1.852 1.428-3.979.617-5.89a65 65 0 0 1 4.607-.167c2.06 0 3.768.11 4.667.293l-4.684 6.569z" style="fill:#d4ab8d;fill-opacity:1;fill-rule:nonzero;stroke:none;stroke-width:.0352778" transform="translate(48.134 51.286)scale(.65561)"/><path d="m105.143 159.656.734-1.874 6.18-1.668 4.685-6.569c-.9-.183-2.607-.293-4.667-.293a65 65 0 0 0-4.607.166 3 3 0 0 0-.081-.187 4.8 4.8 0 0 0-.974-1.34l-.014-.018a63 63 0 0 1 5.5-.247c2.804 0 5.101.212 6.011.6q.393.17.61.427.134.165.198.363l.116.38-.755 1.056-4.624 6.484-.417.585-.278.078-.745.201zm12.196-9.913h.004z" style="fill:#4d2919;fill-opacity:1;fill-rule:nonzero;stroke:none;stroke-width:.0352778" transform="translate(48.134 51.286)scale(.65561)"/><path d="M42.818 175.718c-2.212-4.505-4.131-9.614-3.644-12.115.818-4.237 4.356-10.615 7.5-14.89.783 3.563 2.466 6.738 5.01 9.465-1.758 2.61-7.642 11.659-8.866 17.54" style="fill:#d4ab8d;fill-opacity:1;fill-rule:nonzero;stroke:none;stroke-width:.0352778" transform="translate(48.134 51.286)scale(.65561)"/><path d="M42.91 179.397q-.028-.042-.05-.085c-.748-1.368-2.35-4.42-3.609-7.655a41 41 0 0 1-.596-1.616c-.864-2.522-1.404-5.005-1.069-6.745.935-4.812 4.943-11.885 8.42-16.383a1.5 1.5 0 0 1 .89-.554 1.1 1.1 0 0 0-.462 1.076q.101.647.24 1.277c-3.144 4.276-6.682 10.654-7.5 14.891-.487 2.501 1.432 7.61 3.644 12.115-.31 1.478-.325 2.755.092 3.68" style="fill:#4d2919;fill-opacity:1;fill-rule:nonzero;stroke:none;stroke-width:.0352778" transform="translate(48.134 51.286)scale(.65561)"/><path d="M68.027 163.339c-3.164-1.898-11.289-5.327-14.64-5.733l-.039-.028c-2.72-2.727-4.462-5.966-5.186-9.638 5.285 1.203 14.19 3.983 15.561 5.285 1.33 1.259 2.47 4.656 3.567 7.944.243.723.487 1.454.737 2.17" style="fill:#a69e7b;fill-opacity:1;fill-rule:nonzero;stroke:none;stroke-width:.0352778" transform="translate(48.134 51.286)scale(.65561)"/><path d="M70.437 165.187c-.607-.663-1.337-1.15-1.905-1.53a17 17 0 0 0-.505-.318c-.25-.716-.494-1.447-.737-2.17-1.097-3.288-2.237-6.685-3.567-7.944-1.372-1.302-10.276-4.082-15.56-5.285.723 3.672 2.465 6.91 5.185 9.638l.04.028a5 5 0 0 0-.583-.039q-.344-.002-.56.07l-.258.089-.149.222-.155.23c-2.543-2.727-4.226-5.902-5.01-9.465q-.137-.63-.24-1.278a1.1 1.1 0 0 1 .463-1.075 1.06 1.06 0 0 1 .818-.173c4.086.864 15.142 3.993 17.12 5.863 1.623 1.542 2.774 4.974 3.987 8.608.226.666.452 1.34.68 2.003q.294.853.597 1.658c.113.297.222.59.339.868" style="fill:#4d2919;fill-opacity:1;fill-rule:nonzero;stroke:none;stroke-width:.0352778" transform="translate(48.134 51.286)scale(.65561)"/><path d="M58.195 186.647c-.762 0-1.46-.515-2.226-1.136-2.483-2.029-4.628-3.09-6.896-4.22-1.464-.726-2.978-1.478-4.685-2.543-1.454-2.822 4.367-13.314 8.583-19.59 1.99.05 11.31 3.602 14.661 5.842 1.108.738 2.046 1.436 2.29 2.49.32 1.384-.575 3.049-1.517 4.636l-6.71 11.282c-.857 1.436-2.007 3.098-3.337 3.232q-.081.006-.163.007" style="fill:#c5a888;fill-opacity:1;fill-rule:nonzero;stroke:none;stroke-width:.0352778" transform="translate(48.134 51.286)scale(.65561)"/><path d="M58.192 188.262c-1.4 0-2.498-.896-3.242-1.499-2.346-1.915-4.41-2.939-6.594-4.025-1.548-.77-3.15-1.563-4.995-2.727l-.148-.092-.095-.144a2.6 2.6 0 0 1-.208-.378c-.417-.924-.403-2.201-.092-3.68 1.224-5.88 7.108-14.929 8.865-17.54.057-.08.106-.158.155-.229l.149-.222.257-.088c.145-.05.332-.07.561-.07q.26 0 .582.038c3.351.406 11.476 3.835 14.64 5.733q.279.169.505.317c.568.381 1.298.868 1.905 1.531.476.526.878 1.16 1.058 1.94.455 1.965-.593 3.955-1.704 5.825l-6.71 11.282c-1.114 1.87-2.525 3.81-4.565 4.01a2.4 2.4 0 0 1-.324.018m-5.221-29.104c-4.216 6.276-10.037 16.768-8.583 19.59 1.707 1.065 3.22 1.817 4.685 2.543 2.268 1.13 4.413 2.191 6.896 4.22.766.62 1.464 1.136 2.226 1.136.053 0 .11-.004.163-.007 1.33-.134 2.48-1.796 3.337-3.232l6.71-11.282c.942-1.587 1.838-3.252 1.517-4.635-.244-1.055-1.182-1.753-2.29-2.49-3.351-2.24-12.672-5.793-14.661-5.843" style="fill:#4d2919;fill-opacity:1;fill-rule:nonzero;stroke:none;stroke-width:.0352778" transform="translate(48.134 51.286)scale(.65561)"/><path d="M87.956 127.87c-3.285-.215-10.679-.815-13.995-2.021a12 12 0 0 1-1.841-.86c2.032-2.696 4.064-5.684 5.16-7.628q1.28.06 2.576.06c.222 0 .44 0 .663-.004 1.948 1.002 3.796 1.704 5.168 2.015a23 23 0 0 0 2.54.412c1.179 2.128 1.743 3.814 1.87 5.303a1 1 0 0 0-.106.116l-.37.497c-.547.73-1.08 1.44-1.665 2.11m13.162-3.302a27.4 27.4 0 0 0 .388-5.475c2.325-.582 4.54-1.464 6.382-2.741a10.4 10.4 0 0 0 2.547-2.547l.85-.237a19 19 0 0 1-1.055 3.842c-2.05 2.01-5.295 4.883-9.112 7.158" style="fill:#d4ab8d;fill-opacity:1;fill-rule:nonzero;stroke:none;stroke-width:.0352778" transform="translate(48.134 51.286)scale(.65561)"/><path d="M88.227 119.845a23 23 0 0 1-2.54-.413c-1.372-.31-3.22-1.013-5.168-2.014q1.901-.004 3.775-.05a15 15 0 0 0 1.743.53c.349.08.74.155 1.164.222l.017.024q.566.896 1.01 1.7m13.278-.75a32 32 0 0 0-.085-1.616c1.436-.378 2.805-.872 4.036-1.503.54-.279 1.051-.582 1.531-.917q.374-.259.713-.554a88 88 0 0 0 2.734-.699 10.4 10.4 0 0 1-2.547 2.547c-1.842 1.277-4.057 2.16-6.382 2.741" style="fill:#4d2919;fill-opacity:1;fill-rule:nonzero;stroke:none;stroke-width:.0352778" transform="translate(48.134 51.286)scale(.65561)"/><path d="M99.777 129.225q.515-1.243.875-2.575c2.766-1.492 5.267-3.327 7.327-5.052-2.007 2.9-4.808 5.51-8.202 7.627" style="fill:#c59a64;fill-opacity:1;fill-rule:nonzero;stroke:none;stroke-width:.0352778" transform="translate(48.134 51.286)scale(.65561)"/><path d="M100.652 126.65q.276-1.018.466-2.082c3.817-2.275 7.063-5.147 9.112-7.157a21 21 0 0 1-2.25 4.187c-2.06 1.725-4.562 3.56-7.328 5.052" style="fill:#4d2919;fill-opacity:1;fill-rule:nonzero;stroke:none;stroke-width:.0352778" transform="translate(48.134 51.286)scale(.65561)"/><path d="M98.017 132.587q.26-.401.504-.818c6.506-3.465 11.328-8.608 13.388-14.348a20.3 20.3 0 0 0 1.038-4.339c.723-.219 1.435-.441 2.127-.663a66 66 0 0 0 3.556-1.239c-.222.378.028.974.518.974a.7.7 0 0 0 .184-.025c.656-.187.518-1.072-.004-1.22a46 46 0 0 0 2.692-1.16c-.685 7.979-4.763 12.833-10.915 17.673-5.006 3.934-10.287 4.929-13.088 5.165m12.33-9.204a.6.6 0 0 0-.184.028c-.716.201-.487 1.239.158 1.239a.6.6 0 0 0 .184-.029c.716-.2.487-1.238-.159-1.238m4.646-5.637c-.056 0-.12.01-.183.028-.716.201-.487 1.238.158 1.238a.7.7 0 0 0 .184-.025c.716-.204.487-1.241-.159-1.241" style="fill:#b5641d;fill-opacity:1;fill-rule:nonzero;stroke:none;stroke-width:.0352778" transform="translate(48.134 51.286)scale(.65561)"/><path d="M96.821 134.235q.64-.796 1.196-1.648c2.801-.236 8.082-1.231 13.088-5.165 6.152-4.84 10.23-9.694 10.915-17.674q.852-.4 1.64-.822a28 28 0 0 1-.077 1.115c-.741 8.414-5.034 13.533-11.504 18.62-6.297 4.95-12.863 5.538-15.258 5.574m1.7-2.466q.71-1.22 1.256-2.544c3.394-2.117 6.195-4.727 8.202-7.627a21 21 0 0 0 2.449-4.71q.582-1.635.857-3.32.84-.237 1.662-.486a20.3 20.3 0 0 1-1.038 4.34c-2.06 5.739-6.882 10.882-13.388 14.347" style="fill:#4d2919;fill-opacity:1;fill-rule:nonzero;stroke:none;stroke-width:.0352778" transform="translate(48.134 51.286)scale(.65561)"/><path d="M91.494 132.435q-.57-.211-1.175-.43c.681-1.46 1.02-3.03 1.19-4.304.588-2.741-.022-5.757-2.96-10.396q-.034-.052-.06-.1c.821-.045 1.64-.094 2.448-.154 2.31 5.207 2.335 11.334.557 15.384m-15.399-1.968a27 27 0 0 1-.99-.219c-2.163-.536-4.1-1.397-5.48-2.117a65 65 0 0 0 1.524-1.883c.91.54 1.733.885 2.276 1.083 3.111 1.132 9.313 1.739 13.046 2.018q-.565.477-1.235.903c-2.558-.826-5.013-1.514-6.714-1.764a1.13 1.13 0 0 0-.776.159c-.345.052-.645.25-.832.55-.244.391-.519.818-.819 1.27" style="fill:#c59a64;fill-opacity:1;fill-rule:nonzero;stroke:none;stroke-width:.0352778" transform="translate(48.134 51.286)scale(.65561)"/><path d="M75.15 131.874a23 23 0 0 1-2.73-.797l-2.177-2.332a11 11 0 0 0-.621-.614h.003c1.38.72 3.317 1.58 5.479 2.117q.488.118.991.219c-.296.448-.613.92-.945 1.407m11.32-2.525c-3.732-.28-9.934-.886-13.045-2.018a13.7 13.7 0 0 1-2.276-1.083c.321-.41.646-.833.97-1.26a12 12 0 0 0 1.842.861c3.316 1.206 10.71 1.806 13.995 2.021a13.4 13.4 0 0 1-1.485 1.479m5.037-1.648c.099-.758.141-1.411.155-1.873a.9.9 0 0 0-.603-.882.94.94 0 0 0-.963.201c-.127-1.489-.691-3.175-1.87-5.302a33 33 0 0 0-1.009-1.7q-.009-.011-.017-.025c-.18-.286-.364-.561-.543-.83a151 151 0 0 0 1.83-.084l.06.099c2.939 4.639 3.55 7.655 2.96 10.396" style="fill:#4d2919;fill-opacity:1;fill-rule:nonzero;stroke:none;stroke-width:.0352778" transform="translate(48.134 51.286)scale(.65561)"/><path d="M88.827 131.469c-.564-.198-1.143-.399-1.721-.596 1.093-.854 1.954-1.82 2.755-2.83-.177 1.059-.487 2.297-1.034 3.426" style="fill:#d4ab8d;fill-opacity:1;fill-rule:nonzero;stroke:none;stroke-width:.0352778" transform="translate(48.134 51.286)scale(.65561)"/><path d="M90.32 132.005c-.484-.176-.985-.356-1.493-.536.547-1.13.857-2.367 1.034-3.426-.801 1.01-1.662 1.976-2.755 2.83q-.939-.319-1.87-.621.67-.426 1.235-.903a13.4 13.4 0 0 0 1.485-1.479c.585-.67 1.118-1.379 1.665-2.11l.37-.497a.94.94 0 0 1 1.069-.318.9.9 0 0 1 .603.883 19 19 0 0 1-.155 1.873c-.17 1.274-.508 2.843-1.189 4.304" style="fill:#4d2919;fill-opacity:1;fill-rule:nonzero;stroke:none;stroke-width:.0352778" transform="translate(48.134 51.286)scale(.65561)"/><path d="M95.11 133.818c-.593-.236-1.32-.518-2.141-.832 1.855-4.29 1.94-10.559-.36-16.073a107 107 0 0 0 7.08-.896c.903 7.197-.68 13.328-4.579 17.801m1.256-8.445q-.09 0-.183.024c-.717.205-.49 1.242.155 1.242q.088 0 .187-.028c.716-.201.487-1.238-.159-1.238m1.291-7.031q-.09 0-.183.028c-.716.201-.49 1.238.155 1.238q.088 0 .187-.024c.713-.205.487-1.242-.159-1.242" style="fill:#b5641d;fill-opacity:1;fill-rule:nonzero;stroke:none;stroke-width:.0352778" transform="translate(48.134 51.286)scale(.65561)"/><path d="M96.648 134.446a48 48 0 0 0-1.538-.628c3.898-4.473 5.482-10.604 4.58-17.8q.782-.123 1.555-.255a30 30 0 0 1 .176 1.715q.063.816.085 1.615a27.4 27.4 0 0 1-.388 5.475q-.19 1.065-.466 2.082a21.3 21.3 0 0 1-2.13 5.119q-.245.416-.505.818-.556.852-1.196 1.648-.084.105-.173.211m-3.68-1.46c-.465-.173-.959-.36-1.474-.55 1.778-4.05 1.753-10.178-.557-15.385q.445-.033.885-.07.397-.032.787-.068c2.3 5.514 2.215 11.783.36 16.073m-20.44-1.792-3.136-1.172a16 16 0 0 1-1.052-.448c.395-.416.826-.903 1.28-1.442q.32.29.622.613l2.176 2.332z" style="fill:#4d2919;fill-opacity:1;fill-rule:nonzero;stroke:none;stroke-width:.0352778" transform="translate(48.134 51.286)scale(.65561)"/><path d="M96.338 126.64c-.646 0-.872-1.038-.155-1.243a.7.7 0 0 1 .183-.024c.646 0 .875 1.037.159 1.238a.7.7 0 0 1-.187.028m18.63-7.627c-.646 0-.875-1.037-.159-1.238a.7.7 0 0 1 .184-.028c.645 0 .875 1.037.158 1.241a.7.7 0 0 1-.183.025m-4.646 5.638c-.646 0-.875-1.038-.159-1.239a.6.6 0 0 1 .184-.028c.645 0 .874 1.037.158 1.238a.6.6 0 0 1-.183.029m-12.693-5.042c-.646 0-.871-1.037-.155-1.238a.7.7 0 0 1 .183-.028c.646 0 .872 1.037.159 1.242a.7.7 0 0 1-.187.024m21.519-7.454c-.49 0-.74-.596-.518-.974.236-.088.465-.18.698-.271.522.148.66 1.033.004 1.22a.7.7 0 0 1-.183.025" style="fill:#c3712e;fill-opacity:1;fill-rule:nonzero;stroke:none;stroke-width:.0352778" transform="translate(48.134 51.286)scale(.65561)"/><path d="M37.029 116.716c.977-1.599 2.367-3.514 3.77-5.338 1.147.508 2.372.984 3.677 1.4q.408.132.825.258z" style="fill:#d4ab8d;fill-opacity:1;fill-rule:nonzero;stroke:none;stroke-width:.0352778" transform="translate(48.134 51.286)scale(.65561)"/><path d="M34.704 118.233a1.07 1.07 0 0 1 .092-.653c.783-1.609 2.339-3.863 4.01-6.093.191-.257.389-.515.583-.769q.687.336 1.41.66c-1.403 1.824-2.793 3.74-3.77 5.338l-1.69.751c-.321.141-.55.42-.632.762q-.004.002-.003.004" style="fill:#4d2919;fill-opacity:1;fill-rule:nonzero;stroke:none;stroke-width:.0352778" transform="translate(48.134 51.286)scale(.65561)"/><path d="M67.473 128.139q-.012-.016-.024-.025l-16.062-13.575c1.51.31 3.069.603 4.667.889 3.704.66 7.719.854 11.878 1.192 2.452.201 4.964.473 7.532.642-1.725 2.823-5.232 7.87-7.99 10.877" style="fill:#c5a888;fill-opacity:1;fill-rule:nonzero;stroke:none;stroke-width:.0352778" transform="translate(48.134 51.286)scale(.65561)"/><path d="M67.018 130.093c.071-.028.138-.06.205-.088.342-.152.579-.466.631-.843a1.15 1.15 0 0 0-.38-1.023c2.758-3.006 6.265-8.054 7.99-10.877q.905.06 1.817.1c-1.097 1.943-3.13 4.931-5.161 7.626-.325.427-.65.85-.97 1.26a65 65 0 0 1-1.525 1.883h-.003c-.455.54-.886 1.027-1.28 1.443q-.048.052-.096.1l-.113.12-.151.063a3.1 3.1 0 0 1-.964.236" style="fill:#4d2919;fill-opacity:1;fill-rule:nonzero;stroke:none;stroke-width:.0352778" transform="translate(48.134 51.286)scale(.65561)"/><path d="M51.256 133.123c-.666 0-1.23-.077-1.668-.247-3.352-1.301-7.701-7.112-10.88-11.36-.766-1.022-1.496-2-2.148-2.825l11.197-4.981.211.053 17.854 15.092c-4.998 2.166-11.116 4.268-14.566 4.268" style="fill:#a69e7b;fill-opacity:1;fill-rule:nonzero;stroke:none;stroke-width:.0352778" transform="translate(48.134 51.286)scale(.65561)"/><path d="M51.214 134.721c-.85 0-1.605-.102-2.212-.338-3.782-1.471-8.11-7.25-11.585-11.896-.903-1.206-1.754-2.346-2.473-3.231a1.19 1.19 0 0 1-.24-1.023q0-.002.003-.004a1.1 1.1 0 0 1 .632-.762l1.69-.752 8.272-3.68a59 59 0 0 0 2.456.674l-11.197 4.982c.652.825 1.382 1.802 2.148 2.825 3.178 4.248 7.528 10.058 10.88 11.36.437.17 1.002.247 1.668.247 3.45 0 9.568-2.103 14.566-4.269l-17.854-15.091q1.657.412 3.419.776l16.062 13.575q.012.01.024.025c.293.26.438.642.381 1.023a1.08 1.08 0 0 1-.631.843q-.1.044-.205.088c-2.938 1.298-10.967 4.628-15.804 4.628m-15.547-16.517h.004z" style="fill:#4d2919;fill-opacity:1;fill-rule:nonzero;stroke:none;stroke-width:.0352778" transform="translate(48.134 51.286)scale(.65561)"/><path d="m102.998 145.799-12.675-6.135a13 13 0 0 0-1.358-.593l-.07-.074-8.609-8.505c5.606 1.365 14.884 5.044 15.703 5.429.663.409 3.309 4.364 5.242 7.25.589.878 1.182 1.767 1.767 2.628" style="fill:#d4ab8d;fill-opacity:1;fill-rule:nonzero;stroke:none;stroke-width:.0352778" transform="translate(48.134 51.286)scale(.65561)"/><path d="M106.413 147.89c-.794-.776-1.838-1.326-2.931-1.855l-.484-.236c-.585-.861-1.178-1.75-1.767-2.629-1.933-2.885-4.58-6.84-5.242-7.25-.819-.384-10.097-4.063-15.703-5.428l-1.53-1.514a1.18 1.18 0 0 0-.974-.335c-.01 0-.025.004-.036.004a1.13 1.13 0 0 1 .776-.159c1.7.25 4.156.939 6.714 1.764a145 145 0 0 1 5.083 1.753q.604.219 1.175.43c.515.191 1.01.378 1.475.551.822.314 1.548.596 2.141.833.776.307 1.32.529 1.538.628q.026.015.046.02c.871.414 2.385 2.583 5.877 7.804 1.316 1.969 2.67 3.99 3.828 5.602l.014.018" style="fill:#4d2919;fill-opacity:1;fill-rule:nonzero;stroke:none;stroke-width:.0352778" transform="translate(48.134 51.286)scale(.65561)"/><path d="M97.9 168.842c-1.516 0-11.444-2.766-16.774-5.105l.021-.053 8.153-22.722q.158.075.32.155l13.16 6.371c1.41.681 2.62 1.337 3.15 2.442.66 1.375.074 3.118-.582 4.787l-4.71 11.98c-.564 1.44-1.115 1.88-2.66 2.145z" style="fill:#a69e7b;fill-opacity:1;fill-rule:nonzero;stroke:none;stroke-width:.0352778" transform="translate(48.134 51.286)scale(.65561)"/><path d="M98.003 170.45c-.939 0-3.323-.55-6.135-1.343-.56-.16-1.14-.328-1.725-.505-3.718-1.115-7.796-2.522-10.178-3.616l-.137-.063-.103-.106a3.7 3.7 0 0 1-.624-.86q-.003-.008-.007-.008.09.085.17.166a1.14 1.14 0 0 0 1.058.303c.366-.084.663-.335.804-.68 5.33 2.338 15.258 5.104 16.775 5.104h.077c1.545-.264 2.096-.705 2.66-2.145l4.71-11.98c.656-1.669 1.241-3.411.582-4.787-.53-1.105-1.74-1.76-3.15-2.442l-13.16-6.37q-.162-.082-.32-.156l.024-.063a1.82 1.82 0 0 0-.36-1.828c.502.177.964.399 1.359.593l12.675 6.135.483.236c1.094.53 2.138 1.08 2.932 1.856.392.384.723.822.974 1.34q.043.091.08.187c.812 1.912.114 4.04-.617 5.892l-.973 2.473-.734 1.873-3.002 7.634c-.773 1.961-1.796 2.787-3.905 3.143q-.096.016-.233.018" style="fill:#4d2919;fill-opacity:1;fill-rule:nonzero;stroke:none;stroke-width:.0352778" transform="translate(48.134 51.286)scale(.65561)"/><path d="M79.877 162.446c-5.101-5.115-10.82-11.888-10.869-14.912-.063-3.662 4.015-9.659 6.992-14.04.73-1.073 1.425-2.096 2-2.992l9.758 9.645a.19.19 0 0 1 .046.205z" style="fill:#c5a888;fill-opacity:1;fill-rule:nonzero;stroke:none;stroke-width:.0352778" transform="translate(48.134 51.286)scale(.65561)"/><path d="M80.068 164.446c-.3 0-.586-.116-.805-.331q-.08-.08-.169-.166c-.434-.434-.995-1.002-1.637-1.665-3.686-3.828-10.001-10.93-10.065-14.722-.07-4.173 4-10.163 7.275-14.975l.483-.713c.332-.486.649-.96.945-1.407.3-.452.575-.879.819-1.27.187-.3.487-.498.832-.55.01 0 .025-.004.036-.004q.072-.01.144-.011c.307 0 .604.123.83.346l1.53 1.513 8.608 8.506q.036.036.07.074c.445.494.586 1.2.36 1.827l-.024.064-8.153 22.722-.021.053a1.14 1.14 0 0 1-1.058.709M78 130.502c-.575.896-1.27 1.919-2 2.991-2.977 4.382-7.055 10.379-6.992 14.04.05 3.024 5.768 9.797 10.87 14.913l7.926-22.095a.19.19 0 0 0-.046-.204z" style="fill:#4d2919;fill-opacity:1;fill-rule:nonzero;stroke:none;stroke-width:.0352778" transform="translate(48.134 51.286)scale(.65561)"/><path d="M30.647 121.192c0 .004.01.113.021.314.783 11.79 1.662 25.407 2.202 36.866.917 19.543.268 32.77.045 36.357l-.003.063a1.5 1.5 0 0 0-.025.25l.01.124-.024.124c-.003.024 0 .067 0 .11 0 2.574 1.775 5.125 5.27 7.577 2.318 1.623 5.486 3.662 9.473 5.034 3.358 1.16 7.313 1.99 10.735 2.646 2.691.515 5.552.744 8.583.984.818.067 1.64.13 2.473.205q1.285.117 2.593.25c2.765.275 5.623.561 8.523.561 4.12 0 7.771-.145 11.155-.437 4.095-.367 8.022-1.07 10.989-1.64 4.293-.83 8.114-2.072 10.615-2.932 4.124-1.426 7.288-2.932 9.673-4.6 3.39-2.371 5.108-4.943 5.108-7.649l1.277-71.508.752-14.746c0-.148.01-.296.017-.445l.032-.638.007-.106q0-.089.01-.173l.025-.5q.001-.084.007-.156l.007-.138q.002-.052.004-.098l.01-.166.092-1.746c-1.026 1.256-2.413 2.455-4.152 3.584-2.677 1.74-6.205 3.298-10.784 4.762-4.396 1.408-7.962 2.322-11.56 2.964-3.44.61-7.543 1.287-11.907 1.64-3.658.296-7.599.445-12.044.445-3.147 0-6.202-.283-9.158-.554-.956-.088-1.905-.177-2.843-.25-.89-.075-1.771-.138-2.646-.205-3.274-.244-6.364-.473-9.32-.999-3.722-.663-8.023-1.503-11.702-2.68-4.473-1.43-7.994-3.529-10.562-5.197-1.672-1.083-3.027-2.212-4.054-3.373l.417 6.237c.222 3.299.444 6.583.66 9.84zm49.876 93.366c-2.995 0-5.902-.289-8.71-.567q-1.302-.134-2.572-.251-1.24-.106-2.459-.201c-3.083-.247-5.997-.476-8.791-1.016-3.49-.667-7.521-1.513-10.996-2.713-4.209-1.45-7.525-3.58-9.942-5.274-4.035-2.83-6.085-5.905-6.085-9.137 0-.102 0-.219.018-.353-.004-.176.017-.331.035-.465.219-3.61.857-16.729-.05-36.121-.543-11.44-1.418-25.047-2.204-36.848a3 3 0 0 0-.018-.257c-.219-3.288-.437-6.573-.66-9.875a9900 9900 0 0 1-.684-10.213l-.575-8.65 2.438 8.319c.589 2.01 2.406 4.018 5.394 5.958 2.47 1.602 5.849 3.616 10.103 4.981 3.574 1.143 7.797 1.965 11.455 2.618 2.864.508 5.909.734 9.13.974l2.66.204c.945.078 1.898.166 2.86.254 2.915.268 5.927.544 8.986.544 4.396 0 8.283-.141 11.889-.438 4.282-.346 8.332-1.012 11.726-1.616 4.505-.804 8.414-1.972 11.314-2.903 4.416-1.411 7.796-2.9 10.329-4.544 2.833-1.838 4.579-3.813 5.19-5.866l.176-.59 1.968-.26-.342 6.663-.004.071-.007.13-.007.128-.004.067v.045l-.032.59-.007.098q-.001.08-.007.166l-.028.6c-.01.137-.018.25-.018.363v.053l-.067 1.164-.684 13.565-1.277 71.462c0 3.348-1.99 6.445-5.916 9.19-2.533 1.77-5.853 3.355-10.146 4.84-2.558.878-6.463 2.148-10.876 3.002-3.01.578-7 1.291-11.183 1.665-3.44.3-7.144.445-11.321.445" style="fill:#211d1d;fill-opacity:1;fill-rule:nonzero;stroke:none;stroke-width:.0352778" transform="translate(48.134 51.286)scale(.65561)"/><path d="M126.63 172.726c2.65-19.614 3.69-52.514 4.347-65.324l-.684 14.013-1.281 73.822c0 3.16-1.908 6.1-5.51 8.7-2.565 1.855-5.938 3.457-9.91 4.875-3.224 1.146-6.801 2.275-10.745 3.062-3.475.695-7.19 1.351-11.088 1.707-3.606.325-7.373.455-11.236.455s-7.596-.508-11.197-.84c-3.902-.348-7.673-.55-11.155-1.241-3.937-.78-7.652-1.62-10.866-2.766-3.983-1.418-7.14-3.468-9.705-5.323-3.605-2.607-5.68-5.468-5.68-8.63 0-.105 0-.21.018-.306-.007-.148.01-.296.028-.445.194-3.266.882-17.025-.045-37.436-.52-11.3-1.323-24.413-2.205-38.065.282 3.432 3.295 34.893 5.75 54.02 1.326 10.362 22.027 21.658 46.411 20.85 25.21-.836 43.29-10.284 44.754-21.128" style="fill:#e0f0f0;fill-opacity:1;fill-rule:nonzero;stroke:none;stroke-width:.0352778" transform="translate(48.134 51.286)scale(.65561)"/><path d="M33.053 161.024c.663 17.964.085 30.064-.12 33.518l-.007.063c-.01.1-.025.205-.021.265l.007.123-.025.12c-.003.032 0 .078 0 .124 0 2.67 1.775 5.313 5.278 7.846 2.314 1.675 5.482 3.778 9.465 5.196 3.358 1.196 7.31 2.05 10.728 2.727 2.691.533 5.552.77 8.58 1.02q1.228.099 2.472.208c.861.08 1.725.169 2.597.257 2.762.286 5.62.579 8.516.579 4.124 0 7.771-.148 11.148-.452 4.102-.377 8.025-1.1 10.985-1.69 4.293-.857 8.11-2.137 10.612-3.026 4.12-1.472 7.284-3.024 9.666-4.749 3.393-2.448 5.111-5.112 5.111-7.916l.54-31.041a252 252 0 0 1-.995 8.66c-1.608 11.903-20.82 21.14-45.68 21.965-11.512.384-22.984-1.867-32.301-6.333-8.894-4.258-14.397-9.856-15.103-15.363-.476-3.7-.966-7.825-1.453-12.1m47.47 53.979c-2.995 0-5.902-.296-8.714-.586-.864-.091-1.721-.18-2.575-.257q-1.233-.11-2.455-.208c-3.084-.254-5.998-.494-8.795-1.048-3.49-.691-7.529-1.566-11.003-2.805-4.216-1.499-7.532-3.7-9.949-5.45-4.032-2.918-6.078-6.085-6.078-9.412 0-.102 0-.226.018-.364a3 3 0 0 1 .031-.476c.223-3.729.861-17.282-.05-37.306-.539-11.811-1.417-25.862-2.2-38.047l1.926-.141c.247 2.984 3.284 34.801 5.743 53.978.614 4.77 5.853 9.952 14.02 13.864 9.045 4.333 20.196 6.513 31.404 6.142 23.53-.78 42.372-9.503 43.829-20.291 1.848-13.71 2.931-34.297 3.62-49.393l.031-1.803.579-11.86q.053-1.17.105-2.187l1.934.099-.106 2.137c-.092 1.965-.194 4.255-.304 6.791-.095 2.12-.197 4.438-.31 6.9l-1.245 71.975c0 3.446-1.987 6.635-5.913 9.465-2.533 1.834-5.853 3.467-10.15 5.002-2.557.91-6.466 2.219-10.883 3.1-3.005.6-6.995 1.338-11.186 1.722-3.44.31-7.144.459-11.324.459M79.93 97.52c-3.21 0-6.332-.302-9.352-.595-.98-.096-1.95-.19-2.914-.272-.91-.078-1.813-.148-2.706-.219-3.344-.264-6.505-.511-9.525-1.08-3.8-.715-8.191-1.618-11.952-2.892-4.561-1.542-8.153-3.803-10.774-5.598-4.346-2.981-6.55-6.216-6.55-9.614 0-3.189.899-5.669 5.51-8.897l.973 1.39c-4.05 2.837-4.79 4.752-4.79 7.507 0 2.805 1.957 5.567 5.817 8.217 2.53 1.732 5.993 3.915 10.357 5.39 3.662 1.238 7.98 2.124 11.723 2.83 2.932.55 6.047.797 9.345 1.054q1.345.106 2.717.222c.97.081 1.947.177 2.935.272 2.977.29 6.057.59 9.186.59 4.494 0 8.474-.156 12.164-.474 4.378-.374 8.523-1.093 11.998-1.75 3.598-.673 7.168-1.643 11.578-3.132 4.526-1.531 7.987-3.143 10.587-4.925 3.74-2.565 5.637-5.355 5.637-8.294 0-1.866-2.198-5.13-2.96-5.92l-.07-.073c-1.602-1.669-4.025-4.188-15.924-8.337-11.303-3.94-22.08-4.085-22.187-4.085a207 207 0 0 0-12.936-.106c-1.902 0-3.426.043-4.964.135-1.284.074-2.518.183-4.078.317l-.998.088c-.755.064-3.694.36-6.054.596-1.485.149-2.773.28-3.235.325l-.158-1.69c.458-.042 1.746-.173 3.224-.32 2.367-.24 5.31-.537 6.078-.604l.995-.085c1.573-.134 2.819-.243 4.128-.32a81 81 0 0 1 5.037-.138c.04 0 6.386-.177 13.004.105.08 0 11.123.145 22.7 4.18 12.285 4.284 14.775 6.873 16.592 8.764l.07.074c.727.755 3.433 4.448 3.433 7.094 0 3.532-2.145 6.791-6.375 9.691-2.73 1.873-6.328 3.553-11.003 5.133-4.487 1.517-8.128 2.505-11.807 3.196-3.517.663-7.715 1.39-12.168 1.775-3.735.32-7.764.476-12.308.476" style="fill:#211d1d;fill-opacity:1;fill-rule:nonzero;stroke:none;stroke-width:.0352778" transform="translate(48.134 51.286)scale(.65561)"/><path d="m72.328 70.66 51.209-19.265 1.707 1.535-53.057 19.928z" style="fill:#e6f6f4;fill-opacity:1;fill-rule:nonzero;stroke:none;stroke-width:.0352778" transform="translate(48.134 51.286)scale(.65561)"/><path d="m73.026 71.175-.039.604 50.874-19.11-.483-.434zm-1.64 2.763.243-3.796 52.067-19.586 2.928 2.635z" style="fill:#211d1d;fill-opacity:1;fill-rule:nonzero;stroke:none;stroke-width:.0352778" transform="translate(48.134 51.286)scale(.65561)"/><path d="M120.768 58.874a5.933 5.933 0 1 1 6.872-4.812 5.934 5.934 0 0 1-6.872 4.812" style="fill:#e6f6f4;fill-opacity:1;fill-rule:nonzero;stroke:none;stroke-width:.0352778" transform="translate(48.134 51.286)scale(.65561)"/><path d="M121.794 47.832a5.21 5.21 0 0 0-5.119 4.297 5.16 5.16 0 0 0 .861 3.888 5.16 5.16 0 0 0 3.359 2.137 5.206 5.206 0 0 0 6.025-4.219 5.17 5.17 0 0 0-.86-3.887 5.17 5.17 0 0 0-4.266-2.216m.007 11.864q-.577 0-1.16-.102a6.6 6.6 0 0 1-4.3-2.741 6.63 6.63 0 0 1-1.105-4.978c.639-3.616 4.1-6.04 7.719-5.405a6.64 6.64 0 0 1 4.3 2.742 6.63 6.63 0 0 1 1.104 4.977 6.68 6.68 0 0 1-6.558 5.507" style="fill:#211d1d;fill-opacity:1;fill-rule:nonzero;stroke:none;stroke-width:.0352778" transform="translate(48.134 51.286)scale(.65561)"/><path d="M79.584 55.332c-2.159-.427-6.152-.829-8.995 2.621-2.847 3.454-7.493 10.023 1.866 17.533 3.933 3.158 8.876 3.436 12.188.283 4.41-4.195 6.206-7.938 3.655-12.616-3.034-5.567-6.572-7.394-8.714-7.82" style="fill:#7c161a;fill-opacity:1;fill-rule:nonzero;stroke:none;stroke-width:.0352778" transform="translate(48.134 51.286)scale(.65561)"/><path d="M76.956 55.85c-2.42 0-4.318.865-5.754 2.611-1.915 2.322-3.824 5.144-3.478 8.492.275 2.688 2.035 5.351 5.228 7.913 3.725 2.991 8.206 3.122 11.14.328 4.675-4.445 5.656-7.716 3.507-11.66-3.2-5.87-6.776-7.143-8.166-7.419a12.7 12.7 0 0 0-2.477-.264m2.1 22.96c-2.371 0-4.859-.904-7.099-2.703-3.538-2.836-5.496-5.863-5.817-8.992-.406-3.951 1.834-7.243 3.835-9.666 2.272-2.759 5.556-3.732 9.765-2.896 1.612.32 5.736 1.76 9.256 8.22 3.147 5.774-.158 10.103-3.806 13.57-1.729 1.645-3.877 2.467-6.135 2.467" style="fill:#211d1d;fill-opacity:1;fill-rule:nonzero;stroke:none;stroke-width:.0352778" transform="translate(48.134 51.286)scale(.65561)"/><path d="M85.105 62.804s-.688 3.126-3.65 1.88c-2.527-1.058-1.726-3.062-1.726-3.062z" style="fill:#7c161a;fill-opacity:1;fill-rule:nonzero;stroke:none;stroke-width:.0352778" transform="translate(48.134 51.286)scale(.65561)"/><path d="M82.752 65.616q-.724 0-1.545-.342c-2.452-1.03-2.427-2.992-2.067-3.888a.64.64 0 0 1 .825-.356c.325.13.487.5.357.829-.089.232-.445 1.474 1.379 2.24.695.293 1.277.32 1.729.084.79-.409 1.05-1.502 1.05-1.517a.64.64 0 0 1 .76-.483c.345.074.56.413.486.759-.014.067-.384 1.682-1.71 2.37a2.7 2.7 0 0 1-1.264.304" style="fill:#211d1d;fill-opacity:1;fill-rule:nonzero;stroke:none;stroke-width:.0352778" transform="translate(48.134 51.286)scale(.65561)"/><path d="M82.23 63.58a.794.794 0 0 1-.787-.917c.082-.536 2.124-13.226 13.127-20.362a.794.794 0 1 1 .864 1.334c-10.389 6.74-12.4 19.144-12.42 19.268a.795.795 0 0 1-.784.677" style="fill:#211d1d;fill-opacity:1;fill-rule:nonzero;stroke:none;stroke-width:.0352778" transform="translate(48.134 51.286)scale(.65561)"/><path d="M50.925 68.787c-1.122 1.895-2.83 5.525-.519 9.356 2.307 3.831 6.96 10.4 17.156 4.07 4.282-2.659 6.187-7.228 4.318-11.4-2.49-5.554-5.423-8.492-10.682-7.642-6.259 1.009-9.159 3.74-10.273 5.616" style="fill:#7c161a;fill-opacity:1;fill-rule:nonzero;stroke:none;stroke-width:.0352778" transform="translate(48.134 51.286)scale(.65561)"/><path d="m50.925 68.787.684.406c-1.89 3.193-2.064 5.987-.522 8.54 1.552 2.576 3.58 5.317 6.85 6.104 2.63.635 5.726-.138 9.205-2.297 4.057-2.522 5.669-6.7 4.01-10.403-2.638-5.885-5.393-7.895-9.827-7.18-6.6 1.066-8.993 4.015-9.716 5.236zm8.861 16.856a9.4 9.4 0 0 1-2.219-.258c-3.866-.931-6.223-4.138-7.845-6.83-1.842-3.062-1.669-6.483.518-10.174.84-1.41 3.57-4.822 10.83-5.997 6.499-1.044 9.476 3.51 11.536 8.104 1.997 4.459.142 9.443-4.625 12.403-2.952 1.831-5.697 2.752-8.195 2.752" style="fill:#211d1d;fill-opacity:1;fill-rule:nonzero;stroke:none;stroke-width:.0352778" transform="translate(48.134 51.286)scale(.65561)"/><path d="M59.808 66.067s2.72 1.687.557 4.068c-1.838 2.028-3.46.607-3.46.607z" style="fill:#7c161a;fill-opacity:1;fill-rule:nonzero;stroke:none;stroke-width:.0352778" transform="translate(48.134 51.286)scale(.65561)"/><path d="M58.273 71.867a2.8 2.8 0 0 1-1.789-.646.637.637 0 1 1 .84-.96c.19.163 1.242.911 2.572-.553.504-.557.727-1.097.656-1.605-.123-.882-1.072-1.489-1.08-1.496a.636.636 0 1 1 .67-1.083c.06.039 1.461.924 1.67 2.402.126.9-.202 1.785-.974 2.636-.89.98-1.792 1.305-2.565 1.305" style="fill:#211d1d;fill-opacity:1;fill-rule:nonzero;stroke:none;stroke-width:.0352778" transform="translate(48.134 51.286)scale(.65561)"/><path d="M58.83 69.567a.8.8 0 0 1-.374-.095c-.48-.254-11.768-6.4-14.837-19.153a.79.79 0 0 1 .585-.96.8.8 0 0 1 .96.586c2.907 12.065 13.931 18.066 14.04 18.126a.793.793 0 0 1-.374 1.496" style="fill:#211d1d;fill-opacity:1;fill-rule:nonzero;stroke:none;stroke-width:.0352778" transform="translate(48.134 51.286)scale(.65561)"/><path d="M54.618 76.816a1.29 1.29 0 0 1 1.34.209c.456.395.883 1.02.431 1.77-.786 1.323-30.751 13.49-31.02 12.436-.222-.879 27.235-13.596 29.25-14.415" style="fill:#e6f6f4;fill-opacity:1;fill-rule:nonzero;stroke:none;stroke-width:.0352778" transform="translate(48.134 51.286)scale(.65561)"/><path d="M54.893 77.49c-1.88.766-16.679 7.63-24.373 11.55 8.28-2.988 23.865-9.437 25.273-10.671.078-.145.145-.392-.314-.794a.57.57 0 0 0-.586-.085m-29.4 14.531q-.075 0-.127-.007a.82.82 0 0 1-.702-.607c-.194-.762-.29-1.143 14.175-8.064 7.097-3.398 14.502-6.798 15.504-7.204a2.01 2.01 0 0 1 2.1.339c.91.797 1.12 1.781.574 2.691-.617 1.034-9.899 4.915-15.377 7.137-4.297 1.743-14.295 5.715-16.147 5.715" style="fill:#211d1d;fill-opacity:1;fill-rule:nonzero;stroke:none;stroke-width:.0352778" transform="translate(48.134 51.286)scale(.65561)"/></svg>