<svg xmlns="http://www.w3.org/2000/svg" xml:space="preserve" width="200mm" height="200mm" viewBox="0 0 200 200"><defs><clipPath id="a" clipPathUnits="userSpaceOnUse"><path d="M4185.82 21370.5c-91.25 0-179.53 13.1-264.63 21.6-92.28 9.1-181.4 14.4-263.6 32.2-93.16 20.2-180.78 41.9-256.93 71.5-93.95 36.7-168.64 89.6-229.28 137.5-85.21 67.4-134.21 141.4-134.21 223s49.94 154.4 135.16 221.7c60.65 48 135.48 99.2 229.44 135.8 76.14 29.7 162.07 57.3 255.24 77.5 82.18 17.9 171.26 26.9 263.5 36.1 34.61 3.4 69.84 6.2 105.6 8.4-17.82-135.7-74.25-266.8-108.56-346.5-18.68-43.3-26.98-63.1-27.87-75.8-1.02-14.2 5.71-29.3 19.99-44.9 38-41.4 135.83-90.6 286.51-92.9 2.26-.1 4.47-.1 6.69-.1 138.34 0 222.38 67 260.46 107.3 17.5 18.6 18.89 49.6 3.16 70.7-49.79 66.7-81.61 201.4-99.54 302.6-4.53 25.5-8.25 51.4-11.15 77.5 32.15-2.4 63.87-5.2 95.1-8.3 92.27-9.1 179.61-25.9 261.44-45.5 177.8-42.5 67.81-14 254.47-74.5 95.81-31.1 172.71-78.3 233.34-126.2 85.23-67.4 131.84-141.3 131.84-222.9s-45.07-157.5-130.3-224.9c-60.64-48-140.34-89.2-234.3-125.8-76.14-29.7-160.62-59-253.79-79.2-82.18-17.9-169.95-35-262.21-44.1-85.12-8.4-174.31-11.8-265.57-11.8"/></clipPath></defs><g style="display:inline"><g clip-path="url(#a)" transform="matrix(.02724 0 0 -.02724 -13.97 773.269)"><path d="M3037.17 21370.5h2294.82v965.301H3037.17Z" style="fill:#f3fbfd;fill-opacity:1;fill-rule:nonzero;stroke:none"/></g><path d="M-99.969 191.525c-3.06 0-6.185.16-9.288.466-2.939.29-6.27.62-9.214 1.26a59 59 0 0 0-8.894 2.698c-3.508 1.369-6.193 3.327-7.908 4.685-3.023 2.388-4.493 4.763-4.493 7.253 0 2.501 1.5 4.957 4.46 7.3 1.932 1.523 4.576 3.446 7.902 4.74 2.794 1.09 6.094 1.87 8.954 2.491 2.234.487 4.613.702 7.132.931a155 155 0 0 1 4.33.434c2.278.258 4.632.519 7.02.519 3.434 0 6.476-.134 9.297-.416 3.344-.328 6.51-.963 9.168-1.542 3.519-.762 6.574-1.873 8.843-2.759 3.454-1.347 6.096-2.762 8.08-4.332 2.867-2.265 4.321-4.745 4.321-7.366 0-2.579-1.431-4.963-4.376-7.292-2.47-1.954-5.163-3.411-8.006-4.332-2.227-.723-3.272-1.093-3.897-1.312-.962-.339-.962-.339-3.038-.833a268 268 0 0 1-1.987-.472c-3.278-.784-6.263-1.302-9.126-1.584-2.509-.25-5.83-.537-9.28-.537m0 34.227c-2.467 0-4.863-.268-7.18-.526-.75-.085-1.491-.17-2.227-.24q-1.046-.105-2.073-.194c-2.565-.233-4.987-.451-7.308-.956-2.915-.631-6.285-1.432-9.173-2.557-3.506-1.366-6.264-3.366-8.275-4.957-3.325-2.628-5.01-5.468-5.01-8.435 0-2.963 1.65-5.708 5.043-8.392 1.788-1.412 4.592-3.458 8.28-4.897a61 61 0 0 1 9.114-2.766c3.025-.656 6.4-.991 9.379-1.284a96 96 0 0 1 9.43-.47c3.513 0 6.881.287 9.423.54 2.93.29 5.978.82 9.32 1.62.82.194 1.466.35 1.985.473 2.11.5 2.15.508 3.185.875.618.215 1.653.582 3.862 1.298 3.007.973 5.853 2.512 8.458 4.572 3.269 2.586 4.926 5.422 4.926 8.431 0 3.087-1.639 5.948-4.872 8.506-2.097 1.658-4.862 3.143-8.452 4.543-3.444 1.341-6.239 2.212-9.062 2.826-2.697.586-5.916 1.228-9.333 1.566-2.869.286-5.956.424-9.44.424" style="fill:#211d1d;fill-opacity:1;fill-rule:nonzero;stroke:none;stroke-width:.0352778" transform="translate(177.214 17.496)scale(.77204)"/><path d="M-87.454 116.2c-4.17 1.246-8.421 1.98-12.559 1.958a53.5 53.5 0 0 1-12.333-1.527l.399.832c5.332 5.306 6.927 12.866 6.959 19.082l.27 52a18 18 0 0 1-.087 1.851c-.76 7.278-4.805 14.358-4.888 15.523-.088 1.227 3.483 3.986 10.101 4.088 4.79.074 7.663-2.261 8.886-3.556.386-.409.4-1.104.058-1.562-1.841-2.47-2.998-7.335-3.645-10.982a45 45 0 0 1-.677-7.684l-.153-49.209c-.034-6.463-.275-10.788 7.245-19.999z" style="fill:#fff;fill-opacity:1;fill-rule:nonzero;stroke:none;stroke-width:.0352778" transform="translate(177.214 17.496)scale(.77204)"/><path d="M-110.673 117.749c5.501 6.092 6.387 14.316 6.41 18.792l.269 52c.004.674-.027 1.323-.09 1.93-.547 5.235-2.72 10.283-4.018 13.296-.414.963-.841 1.954-.869 2.208.05.639 3.077 3.21 9.39 3.306 4.469.063 7.147-2.054 8.348-3.327.139-.148.141-.448.004-.632-1.926-2.582-3.117-7.563-3.777-11.288a45.7 45.7 0 0 1-.689-7.807l-.156-49.739c-.037-6.053-.064-10.484 6.716-19.067-3.8.988-7.46 1.474-10.88 1.464a54 54 0 0 1-10.658-1.136m11.306 92.985q-.118.001-.236-.004c-5.316-.081-8.767-1.817-10.108-3.277-.503-.55-.74-1.083-.705-1.584.032-.448.324-1.147.983-2.674 1.265-2.939 3.384-7.86 3.907-12.877.058-.554.086-1.15.082-1.77l-.268-52c-.024-4.452-.931-12.788-6.747-18.574l-.088-.088-1.114-2.318 1.485.36a53 53 0 0 0 12.167 1.506c3.851.004 8.005-.631 12.348-1.93l1.641-.49-1.296 2.46c-7.148 8.752-7.124 12.833-7.086 19.007l.003.53.153 49.212a44 44 0 0 0 .667 7.556c.633 3.57 1.755 8.322 3.512 10.675.555.745.506 1.838-.112 2.494-1.343 1.422-4.308 3.786-9.188 3.786" style="fill:#211d1d;fill-opacity:1;fill-rule:nonzero;stroke:none;stroke-width:.0352778" transform="translate(177.214 17.496)scale(.77204)"/><path d="M-45.984 61.738c-.938-2.656-2.91-5.196-5.895-7.577-2.828-2.258-6.618-4.332-11.264-6.16-3.56-1.4-7.66-2.614-12.19-3.605-3.522-.773-7.907-1.736-12.492-2.19-3.416-.343-7.942-.735-12.656-.735-4.173 0-8.435.212-12.665.635-4.001.402-8.536.854-12.592 1.743a81 81 0 0 0-12.226 3.747c-4.932 1.94-8.684 4.706-11.078 6.618-3.119 2.49-4.478 4.677-5.012 7.101q-.228-1.385-.228-1.803c0-3.467 2.03-6.755 6.204-10.057 2.343-1.852 6.013-4.53 10.81-6.403a81 81 0 0 1 12.123-3.68c4.012-.868 8.547-1.32 12.548-1.714a128 128 0 0 1 12.644-.632c4.695 0 9.218.388 12.634.727 4.541.452 8.925 1.4 12.448 2.166 4.496.974 8.562 2.166 12.086 3.538 4.556 1.778 8.255 3.779 10.998 5.945 4.01 3.171 6.043 6.572 6.043 10.11 0 .445-.097 1.267-.24 2.226" style="fill:#f3fbfd;fill-opacity:1;fill-rule:nonzero;stroke:none;stroke-width:.0352778" transform="translate(177.214 17.496)scale(.77204)"/><path d="M-152.61 68.896c1.813 8.926 4.862 20.79 9.137 26.949 7.399 10.66 24.704 21.502 43.464 21.59h.155c8.309 0 18.061-3.136 27.486-8.84 7.896-4.777 14.575-10.817 17.016-15.378 4.1-7.666 6.587-17.163 7.99-24.13l-.128-.05.036-.091.112.042q.097-.482.187-.953l.012-.049c.231-.86 1.399-6.925 1.399-8.474 0-3.538-2.033-6.939-6.043-10.11-2.743-2.166-6.442-4.167-10.998-5.945-3.524-1.372-7.59-2.564-12.086-3.538-3.523-.765-7.907-1.714-12.448-2.166-3.416-.339-7.94-.727-12.634-.727-4.165 0-8.419.212-12.644.632-4.001.395-8.536.846-12.548 1.714-4.013.872-8.092 2.11-12.123 3.68-4.797 1.873-8.467 4.55-10.81 6.403-4.174 3.302-6.204 6.59-6.204 10.057 0 .526.275 2.223.817 5.063l.556-.004v.007h-.555l.183.946.394-.018.01.205-.364.017q.144.74.31 1.57l.134.402.13-.02.006.038-.123.021.339 1.051-.18.025zh-.522zm52.763 49.989h-.169c-19.255-.092-37.035-11.243-44.648-22.214-4.439-6.396-7.56-18.553-9.395-27.63-.778-3.845-1.672-8.403-1.672-9.529 0-3.94 2.21-7.598 6.754-11.193 2.416-1.912 6.204-4.675 11.183-6.615a81.5 81.5 0 0 1 12.342-3.746c4.093-.89 8.672-1.344 12.712-1.743 4.272-.423 8.574-.639 12.787-.639 4.758 0 9.327.396 12.776.734 4.625.459 9.054 1.418 12.613 2.191 4.57.991 8.711 2.205 12.305 3.605 4.69 1.831 8.515 3.902 11.37 6.16 4.376 3.46 6.594 7.242 6.594 11.246 0 1.715-1.176 7.804-1.441 8.823-1.38 7.137-3.946 17.354-8.338 25.566-4.603 8.604-25.979 24.98-45.773 24.984" style="fill:#211d1d;fill-opacity:1;fill-rule:nonzero;stroke:none;stroke-width:.0352778" transform="translate(177.214 17.496)scale(.77204)"/><path d="M-46.073 65.407c0 3.909-2.14 7.55-6.186 10.781-2.878 2.297-6.662 4.272-11.121 6.03-3.615 1.42-7.625 2.825-12.047 3.795-3.901.854-8.068 1.672-12.447 2.11-4.04.405-8.275.571-12.607.571s-8.521-.635-12.562-1.037c-4.38-.437-8.61-.691-12.512-1.545-4.422-.967-8.581-2.008-12.196-3.43-4.46-1.756-8.005-4.293-10.884-6.59-4.045-3.227-4.999-7.601-4.999-11.514s.999-6.568 5.045-9.8c2.878-2.297 6.43-4.752 10.89-6.509 3.615-1.421 7.694-2.744 12.116-3.71 3.901-.855 8.13-1.292 12.509-1.73 4.04-.405 8.262-.635 12.593-.635 4.332 0 8.543.325 12.584.73 4.38.438 8.508 1.324 12.41 2.177 4.422.97 8.465 2.152 12.079 3.574 4.46 1.757 8.198 3.754 11.076 6.05 4.046 3.232 6.259 6.77 6.259 10.682" style="fill:#fdfae9;fill-opacity:1;fill-rule:nonzero;stroke:none;stroke-width:.0352778" transform="translate(177.214 17.496)scale(.77204)"/><path d="M-100.48 42.921c-4.127 0-8.34.212-12.522.628-3.962.395-8.452.847-12.426 1.715a79 79 0 0 0-12.005 3.683c-4.75 1.87-8.384 4.547-10.704 6.399-4.012 3.203-4.772 5.715-4.772 9.232 0 4.83 1.546 8.41 4.726 10.95 2.613 2.085 6.19 4.707 10.698 6.481 3.775 1.485 8.228 2.55 12.085 3.394 3.022.663 6.232.956 9.63 1.27.926.084 1.86.169 2.8.264.997.1 2.004.212 3.02.325 3.07.35 6.245.705 9.47.705 4.631 0 8.731-.183 12.534-.564 4.514-.452 8.783-1.316 12.364-2.1 3.708-.81 7.39-1.971 11.936-3.76 4.67-1.841 8.248-3.778 10.935-5.923 3.924-3.129 5.913-6.569 5.913-10.213 0-3.542-2.014-6.942-5.986-10.114-2.715-2.17-6.379-4.166-10.89-5.944-3.488-1.372-7.515-2.565-11.968-3.539-3.487-.765-7.826-1.714-12.327-2.166-3.383-.338-7.862-.723-12.512-.723m0 46.496c-3.306 0-6.521-.363-9.63-.712a196 196 0 0 0-5.79-.59c-3.445-.317-6.699-.613-9.809-1.294-3.913-.857-8.436-1.94-12.306-3.464-4.687-1.845-8.379-4.548-11.07-6.696-3.549-2.833-5.273-6.784-5.273-12.083 0-3.877.87-6.815 5.317-10.364 2.394-1.912 6.146-4.678 11.078-6.618a81 81 0 0 1 12.226-3.747c4.056-.889 8.59-1.34 12.592-1.743 4.23-.423 8.492-.635 12.665-.635 4.714 0 9.24.392 12.656.734 4.585.455 8.97 1.418 12.493 2.19 4.528.992 8.63 2.206 12.19 3.606 4.645 1.828 8.435 3.902 11.263 6.16 4.333 3.457 6.53 7.242 6.53 11.246 0 4.11-2.172 7.927-6.457 11.346-2.803 2.236-6.502 4.247-11.31 6.138-4.62 1.82-8.37 2.999-12.157 3.828-3.62.793-7.94 1.668-12.53 2.127-3.85.384-7.997.571-12.678.571" style="fill:#211d1d;fill-opacity:1;fill-rule:nonzero;stroke:none;stroke-width:.0352778" transform="translate(177.214 17.496)scale(.77204)"/><path d="M-99.951 117.435h-.259q-.026-.005-.052-.004h-.199l-.092-.004h-.006c-18.548-.293-35.588-11.024-42.914-21.583-3.456-4.978-6.11-13.688-7.959-21.555a14 14 0 0 0 2.345 2.37c2.692 2.15 6.384 4.852 11.07 6.697 3.871 1.524 8.394 2.607 12.307 3.464 3.11.68 6.364.977 9.808 1.295q1.382.122 2.788.26 1.487.152 3.002.329c3.11.349 6.325.712 9.631.712 4.68 0 8.828-.187 12.679-.571 4.588-.459 8.909-1.334 12.53-2.127 3.786-.83 7.536-2.008 12.157-3.828 4.807-1.89 8.506-3.902 11.308-6.138q2.11-1.684 3.533-3.49c-1.485 6.301-3.75 13.73-7.078 19.954-2.44 4.561-9.12 10.6-17.016 15.377-6.656 4.03-13.476 6.777-19.836 8.044-2.686.532-5.278.797-7.747.797" style="fill:#e1e9d2;fill-opacity:1;fill-rule:nonzero;stroke:none;stroke-width:.0352778" transform="translate(177.214 17.496)scale(.77204)"/><path d="M-99.854 117.435h-.097c2.469 0 5.06-.265 7.748-.797-2.646.525-5.21.797-7.651.797m-.256 0h-.046zm-.1 0q-.026-.005-.052-.004.026-.001.052.004m-.105-.004h-.045zm-.11 0h-.036zm-.13-.004h-.005z" style="fill:#b4bba4;fill-opacity:1;fill-rule:nonzero;stroke:none;stroke-width:.0352778" transform="translate(177.214 17.496)scale(.77204)"/><path d="M-99.85 118.158h-.163c-19.64-.092-36.83-11.49-44.055-21.9-3.839-5.532-6.686-15.558-8.512-23.739q.503.933 1.148 1.771c1.849 7.867 4.503 16.577 7.959 21.555 7.326 10.559 24.366 21.29 42.914 21.583h.006q.045.002.092.004h.199q.026-.001.052.004h.356c2.44 0 5.006-.272 7.65-.797 6.36-1.267 13.18-4.015 19.836-8.044 7.896-4.776 14.575-10.816 17.016-15.377 3.329-6.223 5.593-13.653 7.078-19.953q.62-.786 1.108-1.591c-1.487 6.734-3.87 15.01-7.547 21.886-4.726 8.837-26.118 24.6-45.138 24.6" style="fill:#81816f;fill-opacity:1;fill-rule:nonzero;stroke:none;stroke-width:.0352778" transform="translate(177.214 17.496)scale(.77204)"/><path d="M-100.48 89.417c-3.307 0-6.522-.363-9.632-.712a196 196 0 0 0-5.79-.59c-3.444-.317-6.698-.613-9.808-1.294-3.913-.857-8.436-1.94-12.306-3.464-4.687-1.845-8.379-4.548-11.07-6.696a14 14 0 0 1-2.346-2.37q-.645-.838-1.148-1.772a192 192 0 0 1-.769-3.62h.188c.616 2.587 1.935 5.127 4.526 7.194 2.879 2.296 6.424 4.833 10.884 6.59 3.615 1.421 7.774 2.462 12.196 3.429 3.902.854 8.133 1.108 12.512 1.545 4.04.402 8.231 1.034 12.562 1.034 4.332 0 8.566-.163 12.607-.568 4.379-.438 8.546-1.256 12.447-2.11 4.422-.97 8.432-2.374 12.047-3.796 4.46-1.757 8.243-3.732 11.121-6.029 3.075-2.455 5.045-5.147 5.816-8.015a136 136 0 0 1-.723 3.5 16 16 0 0 1-1.108 1.59q-1.424 1.806-3.532 3.49c-2.803 2.236-6.502 4.247-11.31 6.138-4.62 1.82-8.37 2.999-12.157 3.828-3.62.793-7.94 1.668-12.53 2.127-3.85.384-7.997.571-12.678.571" style="fill:#81816f;fill-opacity:1;fill-rule:nonzero;stroke:none;stroke-width:.0352778" transform="translate(177.214 17.496)scale(.77204)"/><path d="M-151.54 74.05c1.852 7.938 4.529 16.785 8.026 21.823 7.406 10.672 24.728 21.523 43.505 21.611h.155c8.318 0 18.08-3.136 27.512-8.847 7.903-4.784 14.59-10.827 17.034-15.396 3.373-6.307 5.653-13.846 7.138-20.203-.972 1.273-2.196 2.501-3.668 3.676-2.798 2.236-6.493 4.24-11.295 6.131-4.619 1.817-8.366 2.999-12.15 3.828-3.62.79-7.938 1.665-12.524 2.123-3.847.385-7.993.572-12.674.572-3.303 0-6.518-.363-9.628-.713a205 205 0 0 0-3-.328q-1.406-.135-2.788-.26c-3.443-.318-6.695-.615-9.802-1.296-3.913-.857-8.434-1.94-12.299-3.46-4.68-1.842-8.368-4.544-11.058-6.689a13.6 13.6 0 0 1-2.483-2.572m51.693 44.785h-.169c-19.238-.091-37.002-11.232-44.607-22.193-4.434-6.389-7.552-18.538-9.387-27.608l-.164-.812h1.545l.124.519c.673 2.826 2.076 5.055 4.291 6.826 2.616 2.089 6.197 4.71 10.71 6.488 3.777 1.489 8.233 2.554 12.094 3.397 3.024.663 6.236.956 9.636 1.27.925.085 1.858.17 2.799.265.997.098 2.003.211 3.018.324 3.072.35 6.248.706 9.476.706 4.636 0 8.737-.184 12.54-.565 4.517-.451 8.788-1.316 12.37-2.099 3.71-.815 7.394-1.975 11.943-3.764 4.676-1.841 8.257-3.782 10.948-5.93 2.979-2.378 4.858-4.953 5.585-7.659l1.315.304c-1.379 7.13-3.944 17.356-8.338 25.572-4.598 8.598-25.953 24.956-45.729 24.96" style="fill:#211d1d;fill-opacity:1;fill-rule:nonzero;stroke:none;stroke-width:.0352778" transform="translate(177.214 17.496)scale(.77204)"/><path d="M-99.953 83.526c-3.337 0-6.583-.363-9.723-.716-1.02-.113-2.03-.226-3.032-.325-.945-.095-1.884-.18-2.814-.264-3.478-.314-6.762-.61-9.901-1.292-3.951-.857-8.516-1.94-12.424-3.464-4.731-1.845-8.458-4.547-11.176-6.696q-2.4-1.901-3.948-3.898l.336 1.902a.725.725 0 0 1-1.427.254l-1.06-6.005a10.5 10.5 0 0 1-.609-3.51.724.724 0 0 1 1.438-.123l.575 3.252c.869 2.392 2.74 4.735 5.594 6.993 2.64 2.084 6.251 4.706 10.803 6.48 3.814 1.489 8.31 2.554 12.205 3.397 3.051.664 6.293.956 9.725 1.267q1.401.125 2.826.264c1.007.1 2.024.216 3.05.328 3.1.346 6.306.706 9.562.706 4.676 0 8.816-.187 12.657-.564 4.557-.452 8.869-1.316 12.485-2.1 3.745-.814 7.462-1.975 12.054-3.764 4.716-1.838 8.328-3.774 11.043-5.923 3.962-3.129 5.97-6.565 5.97-10.213 0-3.538-2.033-6.939-6.043-10.11-2.743-2.166-6.442-4.167-10.998-5.945-3.523-1.372-7.59-2.564-12.086-3.538-3.52-.765-7.902-1.714-12.448-2.166-3.415-.339-7.936-.727-12.634-.727-4.166 0-8.42.212-12.644.632a.725.725 0 0 1-.143-1.443 130 130 0 0 1 12.787-.639c4.761 0 9.329.392 12.777.734 4.628.459 9.055 1.418 12.612 2.19 4.571.992 8.711 2.206 12.305 3.606 4.69 1.831 8.515 3.902 11.37 6.16 4.376 3.46 6.595 7.242 6.595 11.246 0 4.114-2.194 7.93-6.52 11.353-2.83 2.236-6.564 4.244-11.417 6.135-4.665 1.816-8.45 2.998-12.272 3.827-3.658.794-8.02 1.669-12.65 2.127-3.89.385-8.076.572-12.8.572" style="fill:#211d1d;fill-opacity:1;fill-rule:nonzero;stroke:none;stroke-width:.0352778" transform="translate(177.214 17.496)scale(.77204)"/><path d="m-102.497 60.881 43.488-21.749 1.623 1.256-45.059 22.5z" style="fill:#e6f6f4;fill-opacity:1;fill-rule:nonzero;stroke:none;stroke-width:.0352778" transform="translate(177.214 17.496)scale(.77204)"/><path d="m-101.831 61.28.015.564 43.203-21.576-.471-.363zm-1.241 2.656-.091-3.457 44.229-22.116 2.775 2.145z" style="fill:#211d1d;fill-opacity:1;fill-rule:nonzero;stroke:none;stroke-width:.0352778" transform="translate(177.214 17.496)scale(.77204)"/><path d="M-60.846 46.16c-2.882-.25-5.023-2.865-4.782-5.846.241-2.977 2.774-5.19 5.656-4.939 2.883.247 5.024 2.865 4.783 5.842-.241 2.978-2.774 5.193-5.657 4.943" style="fill:#e6f6f4;fill-opacity:1;fill-rule:nonzero;stroke:none;stroke-width:.0352778" transform="translate(177.214 17.496)scale(.77204)"/><path d="M-60.414 36.01a4.46 4.46 0 0 0-2.888 1.07 4.77 4.77 0 0 0-1.673 3.287c-.212 2.618 1.666 4.921 4.186 5.14a4.46 4.46 0 0 0 3.274-1.051 4.78 4.78 0 0 0 1.673-3.292c.212-2.614-1.666-4.917-4.186-5.136a5 5 0 0 0-.386-.018m.014 10.824q-.25 0-.502-.022c-3.236-.278-5.65-3.217-5.379-6.55a6.08 6.08 0 0 1 2.133-4.185 5.75 5.75 0 0 1 4.233-1.354c3.236.278 5.649 3.217 5.38 6.547-.135 1.651-.892 3.136-2.134 4.184a5.75 5.75 0 0 1-3.731 1.38" style="fill:#211d1d;fill-opacity:1;fill-rule:nonzero;stroke:none;stroke-width:.0352778" transform="translate(177.214 17.496)scale(.77204)"/><path d="M-97.344 46.354c-1.934-.208-5.478-.244-7.703 3.129-2.225 3.372-5.783 9.726 3.048 15.773 3.712 2.543 8.08 2.384 10.741-.755 3.542-4.177 4.82-7.723 2.202-11.762-3.115-4.808-6.372-6.174-8.288-6.385" style="fill:#7c161a;fill-opacity:1;fill-rule:nonzero;stroke:none;stroke-width:.0352778" transform="translate(177.214 17.496)scale(.77204)"/><path d="M-98.718 46.992c-2.574 0-4.457.95-5.733 2.882-2.717 4.117-4.846 9.518 2.856 14.792 3.504 2.4 7.44 2.149 9.793-.628 3.76-4.434 4.363-7.493 2.147-10.91-3.283-5.067-6.525-5.928-7.766-6.062q-.675-.074-1.297-.074m2.027 20.758c-1.87 0-3.847-.628-5.711-1.905-9.848-6.742-5.048-14.016-3.24-16.757 1.779-2.695 4.596-3.856 8.376-3.443 1.444.158 5.193 1.125 8.81 6.706 3.22 4.97.666 9.165-2.257 12.612-1.568 1.848-3.694 2.787-5.978 2.787" style="fill:#211d1d;fill-opacity:1;fill-rule:nonzero;stroke:none;stroke-width:.0352778" transform="translate(177.214 17.496)scale(.77204)"/><path d="M-91.892 52.686s-.352 2.896-3.06 2.01c-2.304-.754-1.761-2.641-1.761-2.641z" style="fill:#7c161a;fill-opacity:1;fill-rule:nonzero;stroke:none;stroke-width:.0352778" transform="translate(177.214 17.496)scale(.77204)"/><path d="M-93.99 55.438q-.533 0-1.14-.198c-2.236-.734-2.372-2.505-2.133-3.34a.571.571 0 0 1 1.099.313c-.06.226-.278 1.394 1.39 1.94.614.202 1.115.184 1.486-.049.685-.434.828-1.478.83-1.488a.573.573 0 0 1 .637-.498.573.573 0 0 1 .496.635c-.008.067-.205 1.588-1.345 2.31q-.587.376-1.32.375" style="fill:#211d1d;fill-opacity:1;fill-rule:nonzero;stroke:none;stroke-width:.0352778" transform="translate(177.214 17.496)scale(.77204)"/><path d="M-94.422 53.617h-.03a.715.715 0 0 1-.684-.744c.026-.593.751-14.658 12.557-21.357a.71.71 0 0 1 .973.272.71.71 0 0 1-.269.97c-11.105 6.3-11.828 20.037-11.834 20.179a.714.714 0 0 1-.713.68" style="fill:#211d1d;fill-opacity:1;fill-rule:nonzero;stroke:none;stroke-width:.0352778" transform="translate(177.214 17.496)scale(.77204)"/><path d="M-120.038 58.101c-1.304 1.492-3.417 4.431-2.088 8.276 1.329 3.842 4.207 10.556 14.138 6.738 4.173-1.605 6.62-5.344 5.731-9.415-1.183-5.415-3.207-8.573-7.908-8.763-5.595-.226-8.582 1.69-9.873 3.164" style="fill:#7c161a;fill-opacity:1;fill-rule:nonzero;stroke:none;stroke-width:.0352778" transform="translate(177.214 17.496)scale(.77204)"/><path d="M-120.038 58.101h.004zm8.97-2.47c-5.272 0-7.638 2.033-8.433 2.94v.003c-2.203 2.519-2.84 4.995-1.95 7.57.904 2.615 2.198 5.462 4.94 6.735 2.145.998 4.926.854 8.266-.43 3.956-1.52 6.082-4.974 5.291-8.598-1.255-5.74-3.285-8.04-7.24-8.202q-.45-.016-.875-.017m-2.278 19.33c-1.38 0-2.64-.262-3.767-.787-3.245-1.51-4.744-4.837-5.688-7.564-1.058-3.058-.309-6.078 2.225-8.978.972-1.111 3.936-3.676 10.44-3.408 5.814.237 7.598 4.847 8.577 9.324.948 4.34-1.533 8.45-6.173 10.234-2.046.787-3.922 1.178-5.614 1.178" style="fill:#211d1d;fill-opacity:1;fill-rule:nonzero;stroke:none;stroke-width:.0352778" transform="translate(177.214 17.496)scale(.77204)"/><path d="M-111.876 57.276s2.06 2-.227 3.74c-1.946 1.48-3.103-.085-3.103-.085z" style="fill:#7c161a;fill-opacity:1;fill-rule:nonzero;stroke:none;stroke-width:.0352778" transform="translate(177.214 17.496)scale(.77204)"/><path d="M-113.718 62.222a2 2 0 0 1-.345-.021 2.55 2.55 0 0 1-1.603-.928.572.572 0 1 1 .918-.68c.137.175.91 1.025 2.3-.033.533-.406.82-.85.85-1.32.053-.825-.67-1.548-.678-1.559a.57.57 0 0 1-.007-.804.566.566 0 0 1 .805-.01c.045.042 1.102 1.086 1.02 2.437-.049.819-.486 1.545-1.298 2.166-.66.501-1.318.752-1.961.752" style="fill:#211d1d;fill-opacity:1;fill-rule:nonzero;stroke:none;stroke-width:.0352778" transform="translate(177.214 17.496)scale(.77204)"/><path d="M-113.194 60.232a.72.72 0 0 1-.463-.17c-.37-.317-9.061-7.849-9.49-19.794a.715.715 0 0 1 1.428-.053c.405 11.303 8.902 18.687 8.988 18.758.3.257.336.709.08 1.009a.71.71 0 0 1-.543.25" style="fill:#211d1d;fill-opacity:1;fill-rule:nonzero;stroke:none;stroke-width:.0352778" transform="translate(177.214 17.496)scale(.77204)"/><path d="M-117.577 67.94a1.11 1.11 0 0 1 1.197.081c.43.321.855.85.52 1.574-.588 1.263-25.962 14.802-26.28 13.864-.266-.78 22.856-14.609 24.563-15.519" style="fill:#e6f6f4;fill-opacity:1;fill-rule:nonzero;stroke:none;stroke-width:.0352778" transform="translate(177.214 17.496)scale(.77204)"/><path d="M-117.269 68.519c-1.562.832-14.056 8.332-20.511 12.527 7.045-3.408 20.226-10.555 21.347-11.776.061-.148.11-.388-.34-.727a.46.46 0 0 0-.496-.024M-142.05 84.16h-.03a.74.74 0 0 1-.68-.49c-.226-.664-.34-.999 11.82-8.481 5.968-3.673 12.208-7.377 13.055-7.828a1.77 1.77 0 0 1 1.9.134c.859.645 1.121 1.51.72 2.374-.458.984-8.309 5.281-12.948 7.754-3.704 1.972-12.422 6.537-13.837 6.537" style="fill:#211d1d;fill-opacity:1;fill-rule:nonzero;stroke:none;stroke-width:.0352778" transform="translate(177.214 17.496)scale(.77204)"/></g></svg>