<svg xmlns="http://www.w3.org/2000/svg" xml:space="preserve" width="200mm" height="200mm" viewBox="0 0 200 200"><path d="M-63.03 140.434c-1.29-22.938-9.475-39.028-12.915-43.963-.426-2.22-2.31-4.244-5.429-6.103-2.53-1.51-5.81-2.819-9.722-3.962-3.172-.928-6.717-1.693-10.594-2.318-3.419-.55-7.038-1.122-10.876-1.393-3.539-.25-7.229-.452-11.021-.434-3.796.018-7.49.187-11.028.47-3.831.306-7.532.613-10.947 1.195a87 87 0 0 0-10.594 2.505c-3.901 1.178-7.002 2.818-9.514 4.35-2.65 1.619-4.473 3.326-5.21 5.175-.216.113-.357.23-.41.342-5.902 12.326-13.571 28.41-13.293 45.12.233 14.168 3.493 28.921 11.074 41.335a63 63 0 0 0 3.546 5.21c.437.294.917.586 1.45.88 2.691 1.48 6 3.118 10.163 4.24 3.369.91 7.246 1.566 11.37 2.18 3.637.54 7.578.684 11.66.949 3.763.247 7.669.642 11.701.62 4.036-.017 7.976-.14 11.74-.42 4.075-.303 7.952-.853 11.582-1.428 4.117-.646 7.846-1.577 11.204-2.519 4.149-1.16 7.666-2.459 10.337-3.965q2.302-1.302 3.693-2.72 1.031-1.798 1.958-3.507c10.421-19.24 10.739-30.095 10.076-41.839" style="fill:#793919;fill-opacity:1;fill-rule:nonzero;stroke:none;stroke-width:.0352778" transform="translate(196.517 30.654)scale(.76349)"/><path d="M-169.438 187.406c.406.272.83.526 1.288.78 2.441 1.344 5.782 3.034 9.994 4.17 3.531.952 7.687 1.63 11.285 2.162 2.826.42 5.821.597 8.993.787.86.05 1.732.102 2.607.159.928.06 1.862.13 2.808.2 2.868.213 5.824.428 8.84.417 4.322-.017 8.143-.155 11.688-.42 4.205-.314 8.184-.892 11.522-1.418 4.43-.698 8.269-1.704 11.12-2.501 4.345-1.217 7.672-2.49 10.166-3.898 1.43-.805 2.593-1.655 3.461-2.523a169 169 0 0 0 1.902-3.407c10.336-19.09 10.65-29.634 9.987-41.438-1.224-21.717-8.897-38-12.785-43.575l-.092-.134-.028-.155c-.37-1.926-2.078-3.81-5.076-5.602-2.382-1.418-5.595-2.727-9.55-3.884-3.062-.896-6.594-1.669-10.502-2.297-3.055-.49-6.862-1.104-10.81-1.383-2.963-.211-6.896-.451-10.964-.434-3.616.018-7.306.173-10.971.47-3.468.275-7.398.592-10.88 1.185a87 87 0 0 0-10.505 2.483c-4.15 1.256-7.317 3.041-9.339 4.273-2.617 1.598-4.265 3.217-4.903 4.811l-.102.254-.244.131a1 1 0 0 0-.116.07c-5.694 11.886-13.462 28.142-13.187 44.719.18 10.784 2.226 26.641 10.964 40.954a62 62 0 0 0 3.43 5.044m45.547 10.182c-2.974 0-5.873-.216-8.682-.427-.941-.067-1.873-.138-2.797-.198a368 368 0 0 0-2.596-.159c-3.207-.19-6.234-.37-9.123-.8-3.645-.54-7.853-1.225-11.459-2.195-4.367-1.182-7.814-2.92-10.325-4.307a21 21 0 0 1-1.507-.914l-.106-.07-.074-.103a63 63 0 0 1-3.59-5.27c-7.056-11.557-10.923-25.982-11.184-41.713-.282-16.961 7.606-33.432 13.367-45.459.095-.204.254-.377.49-.536.822-1.841 2.597-3.577 5.415-5.295 2.092-1.277 5.373-3.126 9.688-4.43a89 89 0 0 1 10.685-2.527c3.55-.603 7.514-.924 11.014-1.203 3.704-.296 7.433-.455 11.084-.473 4.135-.02 8.09.223 11.077.438 4.015.282 7.857.903 10.944 1.4 3.968.639 7.563 1.426 10.682 2.336 4.138 1.21 7.373 2.53 9.899 4.04 3.355 2 5.238 4.113 5.75 6.448 1.15 1.7 11.465 17.639 12.961 44.22.653 11.632.342 22.84-10.167 42.239a159 159 0 0 1-1.969 3.524l-.045.081-.067.07c-.974.995-2.272 1.952-3.86 2.848-2.603 1.467-6.036 2.787-10.502 4.035-4.293 1.203-7.775 1.986-11.292 2.54-3.366.53-7.384 1.115-11.646 1.433-3.577.268-7.433.405-11.79.423q-.137.005-.275.004" style="fill:#211d1d;fill-opacity:1;fill-rule:nonzero;stroke:none;stroke-width:.0352778" transform="translate(196.517 30.654)scale(.76349)"/><path d="M-70.254 109.785c.014 2.59-2.075 5.01-6.036 7.165-2.819 1.534-6.53 2.857-10.905 4.039-3.545.96-7.479 1.905-11.818 2.568-3.83.582-7.92 1.143-12.22 1.45-3.969.286-8.128.416-12.382.434-4.255.018-8.375-.381-12.344-.632-4.308-.268-8.463-.416-12.298-.966-4.35-.621-8.438-1.288-11.994-2.216-4.389-1.14-7.882-2.804-10.718-4.31-3.986-2.12-6.286-4.46-6.3-7.049-.018-2.586 2.3-4.907 6.261-7.063 2.819-1.53 6.297-3.175 10.675-4.356a108 108 0 0 1 11.885-2.509c3.832-.585 7.984-.892 12.284-1.203 3.969-.282 8.114-.455 12.369-.472 4.254-.022 8.392.176 12.364.426 4.304.272 8.365.837 12.2 1.387 4.35.62 8.325 1.386 11.881 2.31 4.389 1.144 8.068 2.449 10.904 3.955 3.987 2.12 6.174 4.456 6.192 7.042" style="fill:#fff;fill-opacity:1;fill-rule:nonzero;stroke:none;stroke-width:.0352778" transform="translate(196.517 30.654)scale(.76349)"/><path d="M-123.227 95.412c-.187 0-.374.004-.565.004-4.06.018-8.205.176-12.319.473-3.895.278-8.311.596-12.224 1.192a108 108 0 0 0-11.804 2.494c-4.67 1.263-8.237 3.055-10.509 4.29-3.909 2.127-5.884 4.28-5.87 6.4.01 2.162 1.997 4.31 5.902 6.385 2.575 1.372 6.103 3.094 10.552 4.25 3.725.97 8.113 1.659 11.913 2.202 2.98.423 6.142.607 9.486.797q1.365.074 2.752.163c.98.06 1.968.13 2.967.2 3.023.22 6.148.438 9.327.427 4.554-.02 8.59-.162 12.333-.43 4.442-.32 8.64-.91 12.16-1.446 4.675-.713 8.728-1.736 11.737-2.547 4.59-1.242 8.104-2.544 10.739-3.976 3.757-2.043 5.655-4.23 5.644-6.498-.014-2.202-1.961-4.347-5.792-6.386-2.678-1.421-6.294-2.734-10.742-3.89-3.44-.897-7.409-1.67-11.797-2.294-3.433-.49-7.709-1.104-12.14-1.383-3.192-.2-7.376-.427-11.75-.427m-.688 30.78c-3.13 0-6.181-.218-9.137-.43-.995-.07-1.98-.141-2.957-.201q-1.38-.085-2.74-.162c-3.38-.194-6.57-.374-9.617-.812-3.839-.547-8.28-1.242-12.076-2.233-4.6-1.196-8.23-2.967-10.88-4.374-4.494-2.389-6.685-4.911-6.699-7.705-.017-2.755 2.16-5.285 6.654-7.73 2.342-1.273 6.01-3.118 10.837-4.42a109 109 0 0 1 11.97-2.53c3.972-.602 8.417-.923 12.34-1.206a186 186 0 0 1 12.421-.476c4.625-.024 9.063.215 12.414.427 4.495.282 8.802.9 12.26 1.394 4.444.635 8.47 1.418 11.966 2.328 4.624 1.203 8.244 2.519 11.066 4.018 4.417 2.35 6.572 4.868 6.59 7.701.014 2.865-2.148 5.5-6.428 7.828-2.74 1.493-6.36 2.833-11.066 4.107-4.526 1.22-8.199 2.018-11.903 2.582-3.549.54-7.782 1.136-12.28 1.46-3.775.272-7.842.413-12.432.434z" style="fill:#211d1d;fill-opacity:1;fill-rule:nonzero;stroke:none;stroke-width:.0352778" transform="translate(196.517 30.654)scale(.76349)"/><path d="M-137.406 115.112c-2.554-2.396-5.609-5.243-7.277-8.217-.473-.84-.91-1.718-.992-2.656-.098-1.125.325-2.226.741-3.284a6289 6289 0 0 1 3.39-8.65c.318-.812.713-1.704 1.567-2.075 1.457-.635 3.051.688 3.736 2.025.684 1.337 1.125 2.946 2.529 3.676l2.787 16.034z" style="fill:#fefaec;fill-opacity:1;fill-rule:nonzero;stroke:none;stroke-width:.0352778" transform="translate(196.517 30.654)scale(.76349)"/><path d="M-139.184 90.728q-.27-.001-.529.109c-.607.265-.92.96-1.213 1.71l-3.39 8.648c-.367.938-.784 1.996-.699 2.988.074.84.508 1.672.91 2.388 1.549 2.759 4.322 5.397 6.823 7.743l5.616-2.727-2.646-15.24c-1.107-.709-1.644-1.89-2.12-2.945-.13-.286-.26-.572-.402-.847-.423-.826-1.39-1.827-2.35-1.827m1.658 25.177-.44-.412c-2.625-2.463-5.603-5.25-7.296-8.273-.47-.836-.977-1.82-1.072-2.925-.113-1.298.363-2.511.783-3.584l3.39-8.65c.282-.723.758-1.937 1.916-2.441 1.742-.755 3.704.593 4.593 2.332.151.296.293.603.427.903.472 1.037.917 2.018 1.82 2.487l.293.152 2.928 16.852z" style="fill:#211d1d;fill-opacity:1;fill-rule:nonzero;stroke:none;stroke-width:.0352778" transform="translate(196.517 30.654)scale(.76349)"/><path d="M-113.695 103.23c-.466 2.875-3.288 15.29-6.086 16.672-2.226 1.105-15.829-1.107-17.445-4.385-.949-1.93-.596-4.162-.222-6.254l1.905-10.654c.127-.713.275-1.464.8-2.004.816-.84 2.223-.864 3.444-.762 6.713.557 17.681 6.907 17.604 7.387" style="fill:#fbf6d6;fill-opacity:1;fill-rule:nonzero;stroke:none;stroke-width:.0352778" transform="translate(196.517 30.654)scale(.76349)"/><path d="M-132.202 96.464c-.773 0-1.595.12-2.064.603-.37.381-.497.949-.62 1.658l-1.91 10.658c-.32 1.799-.719 4.039.167 5.842.384.783 1.908 1.672 4.176 2.44 4.964 1.683 11.226 2.216 12.38 1.645 2.169-1.076 4.889-11.36 5.672-15.879-1.531-1.231-11.045-6.435-16.95-6.928a11 11 0 0 0-.851-.04m10.273 24.387c-3.024 0-7.754-.843-10.947-1.926-2.716-.92-4.381-1.968-4.946-3.115-1.08-2.19-.635-4.67-.279-6.664l1.905-10.657c.124-.695.297-1.648.978-2.35 1.03-1.055 2.663-1.065 3.975-.96 6.495.544 17.156 6.442 18.038 7.568a.76.76 0 0 1 .166.589c-.025.152-2.89 15.399-6.445 17.163-.498.246-1.362.352-2.445.352" style="fill:#211d1d;fill-opacity:1;fill-rule:nonzero;stroke:none;stroke-width:.0352778" transform="translate(196.517 30.654)scale(.76349)"/><path d="M-139.977 90.23c.44-1.146 14.862-.494 19.66 1.94 2.935 3.433 5.045 6.213 6.46 10.541.07.22-.156.427-.392.36l-20.839-5.997z" style="fill:#fefdf4;fill-opacity:1;fill-rule:nonzero;stroke:none;stroke-width:.0352778" transform="translate(196.517 30.654)scale(.76349)"/><path d="m-134.682 96.503 19.96 5.74c-1.408-3.934-3.478-6.57-6.011-9.54-4.36-2.12-15.494-2.677-18.235-2.201zm20.524 7.242a1 1 0 0 1-.275-.039l-21.06-6.057-5.232-7.327.127-.332c.151-.395.55-.55.68-.6 2.315-.888 15.251-.169 19.9 2.188l.117.06.088.102c2.812 3.288 5.084 6.174 6.587 10.767a.93.93 0 0 1-.222.938 1 1 0 0 1-.71.3" style="fill:#211d1d;fill-opacity:1;fill-rule:nonzero;stroke:none;stroke-width:.0352778" transform="translate(196.517 30.654)scale(.76349)"/><path d="m-128.068 145.002-3.845-2.226 54.585-94.12 3.842 2.229z" style="fill:#e2994c;fill-opacity:1;fill-rule:nonzero;stroke:none;stroke-width:.0352778" transform="translate(196.517 30.654)scale(.76349)"/><path d="m-131.045 142.544 2.745 1.59 53.946-93.016-2.744-1.595zm3.207 3.326-4.943-2.864 55.224-95.215 4.94 2.865z" style="fill:#211d1d;fill-opacity:1;fill-rule:nonzero;stroke:none;stroke-width:.0352778" transform="translate(196.517 30.654)scale(.76349)"/><path d="M-73.253 50.282c-.282.56-1.365.585-2.413.053-1.048-.533-1.665-1.419-1.38-1.98.283-.56 1.362-.582 2.41-.049s1.669 1.418 1.383 1.976" style="fill:#71331d;fill-opacity:1;fill-rule:nonzero;stroke:none;stroke-width:.0352778" transform="translate(196.517 30.654)scale(.76349)"/><path d="M-76.364 48.705c.049.18.363.624 1.037.966.674.343 1.217.332 1.393.265-.053-.18-.363-.625-1.037-.967s-1.217-.331-1.393-.264m2.148 2.758c-.56 0-1.192-.162-1.785-.465-1.46-.741-2.198-2.022-1.711-2.978.487-.96 1.954-1.122 3.415-.377.614.31 1.136.74 1.464 1.213.42.604.508 1.246.243 1.764-.26.522-.832.83-1.566.843z" style="fill:#211d1d;fill-opacity:1;fill-rule:nonzero;stroke:none;stroke-width:.0352778" transform="translate(196.517 30.654)scale(.76349)"/><path d="M-118.758 110.141c-.257-.268-.264-.66-.017-.914 3.503-3.595 9.25-10.724 10.46-11.098.878-.275 12.629-3.165 17.575-3.288.247-.004.42.233.314.434-1.88 3.693-3.852 7.779-7.655 9.768a2 2 0 0 1-.134.057l-18.73 6.269a.82.82 0 0 1-.832-.205z" style="fill:#fefdf4;fill-opacity:1;fill-rule:nonzero;stroke:none;stroke-width:.0352778" transform="translate(196.517 30.654)scale(.76349)"/><path d="m-118.278 109.682.98 1.02a.15.15 0 0 0 .142.035l18.729-6.269.039-.014c3.425-1.795 5.298-5.4 7.087-8.922-5.136.304-15.917 2.95-16.817 3.228-.642.258-3.482 3.475-5.553 5.828-1.615 1.828-3.284 3.722-4.628 5.101zm1.083 2.389c-.392 0-.78-.156-1.058-.448l-.981-1.02c-.504-.526-.512-1.333-.018-1.841 1.323-1.359 2.981-3.235 4.587-5.052 3.633-4.12 5.312-5.955 6.152-6.216.952-.296 12.785-3.193 17.755-3.316.353-.007.692.17.879.465.18.286.197.635.046.932l-.198.391c-1.824 3.585-3.888 7.645-7.743 9.663q-.108.057-.23.099l-18.729 6.269a1.5 1.5 0 0 1-.462.074" style="fill:#211d1d;fill-opacity:1;fill-rule:nonzero;stroke:none;stroke-width:.0352778" transform="translate(196.517 30.654)scale(.76349)"/><path d="M-95.115 125.37c-5.245 1.574-16.21 3.158-17.392 2.84-1.714-.465-2.43-1.097-2.949-2.677l-3.623-11.032c-.529-1.608-1.033-3.432-.134-4.833.734-1.146 2.205-1.661 3.574-2.102q6.52-2.097 13.035-4.198c.96-.307 1.986-.621 2.995-.385 1.485.35 2.399 1.736 3.066 3.03a1 1 0 0 1 .053.124c.317 1.1 5.21 16.298 1.375 19.233" style="fill:#fefaec;fill-opacity:1;fill-rule:nonzero;stroke:none;stroke-width:.0352778" transform="translate(196.517 30.654)scale(.76349)"/><path d="M-95.115 125.37h.004zm-5.245-21.805c-.621 0-1.281.19-2.04.434l-13.035 4.198c-1.358.438-2.628.907-3.22 1.828-.73 1.139-.297 2.734.208 4.272l3.623 11.028c.44 1.35.977 1.834 2.49 2.243 1.083.247 11.642-1.242 16.905-2.794 1.937-1.69 1.341-8.445-1.608-18.143l-.092-.307c-.568-1.104-1.38-2.403-2.632-2.695a2.6 2.6 0 0 0-.6-.064m-11.635 25.34c-.314 0-.547-.017-.688-.056-1.93-.522-2.822-1.337-3.404-3.108l-3.623-11.032c-.579-1.76-1.108-3.774-.06-5.4.829-1.292 2.332-1.86 3.93-2.375l13.035-4.198c.896-.29 2.124-.684 3.344-.398 1.782.416 2.812 2.021 3.51 3.372.04.078.07.155.096.24.017.06.049.159.088.293 2.303 7.574 4.357 17.13 1.058 19.657l-.095.074-.12.031c-4.621 1.39-14.196 2.9-17.071 2.9" style="fill:#211d1d;fill-opacity:1;fill-rule:nonzero;stroke:none;stroke-width:.0352778" transform="translate(196.517 30.654)scale(.76349)"/><path d="M-90.553 95.099a.39.39 0 0 1 .557.123c2.357 4.286 8.11 12.368 7.663 16.757-.385 3.803-10.196 11.271-12.28 12.816-.18.134-.46.043-.52-.169l-6.145-20.899a.825.825 0 0 1 .307-.903z" style="fill:#fbf6d4;fill-opacity:1;fill-rule:nonzero;stroke:none;stroke-width:.0352778" transform="translate(196.517 30.654)scale(.76349)"/><path d="M-90.553 95.099h.003zm.134.73-10.157 7.528c-.06.046-.084.113-.063.18l6.008 20.443c5.284-3.965 11.366-9.39 11.638-12.068.328-3.214-3.133-8.929-5.659-13.099-.652-1.08-1.273-2.106-1.767-2.984m-4.078 28.61h.003zm-.31 1.083a1 1 0 0 1-.322-.053 1 1 0 0 1-.642-.656l-6.142-20.899a1.48 1.48 0 0 1 .547-1.622l10.418-7.726c.24-.177.543-.24.84-.177.296.064.55.25.69.512.505.917 1.186 2.039 1.902 3.224 2.77 4.572 6.216 10.266 5.846 13.921-.406 3.986-9.705 11.176-12.549 13.282a1 1 0 0 1-.589.194" style="fill:#211d1d;fill-opacity:1;fill-rule:nonzero;stroke:none;stroke-width:.0352778" transform="translate(196.517 30.654)scale(.76349)"/><path d="M-143.967 101.978c.3-.163.688-.113.896.12 2.974 3.26 9.056 8.79 9.24 9.79.133.722 1.17 10.297.539 14.167-.032.19-.286.289-.47.18-3.315-2.015-6.998-4.156-8.36-7.412a.4.4 0 0 1-.035-.113l-3.278-15.505c-.05-.24.081-.486.325-.617z" style="fill:#fff;fill-opacity:1;fill-rule:nonzero;stroke:none;stroke-width:.0352778" transform="translate(196.517 30.654)scale(.76349)"/><path d="M-143.967 101.978h.004zm-.798 1.178 3.257 15.416c1.217 2.904 4.47 4.897 7.637 6.82.427-3.97-.465-12.506-.61-13.36-.254-.61-2.882-3.217-4.801-5.122-1.542-1.532-3.133-3.112-4.28-4.364h-.01l-.081.014zm11.173 23.788a.97.97 0 0 1-.512-.141l-.352-.216c-3.225-1.954-6.88-4.166-8.28-7.507a1 1 0 0 1-.07-.229l-3.278-15.512c-.113-.525.155-1.065.66-1.337l1.146-.61c.568-.307 1.284-.197 1.7.258 1.123 1.23 2.7 2.797 4.23 4.314 3.641 3.616 5.031 5.052 5.169 5.803.162.89 1.189 10.421.543 14.394-.05.3-.25.557-.536.691a1 1 0 0 1-.42.092" style="fill:#211d1d;fill-opacity:1;fill-rule:nonzero;stroke:none;stroke-width:.0352778" transform="translate(196.517 30.654)scale(.76349)"/><path d="M-162.393 118.114c-.74-4.315-.624-13.085-.134-13.96.713-1.263 1.436-1.728 3.055-1.898q5.652-.588 11.303-1.178c1.648-.173 3.507-.296 4.734.614 1.006.74 1.285 1.961 1.507 3.094q1.062 5.384 2.12 10.767c.155.793.303 1.636-.078 2.388-.564 1.104-2.056 1.609-3.418 1.937a1 1 0 0 1-.13.02c-1.119.086-16.676 1.638-18.959-1.784" style="fill:#fefaec;fill-opacity:1;fill-rule:nonzero;stroke:none;stroke-width:.0352778" transform="translate(196.517 30.654)scale(.76349)"/><path d="M-161.765 117.85c1.394 1.71 8.23 2.253 17.97 1.414l.311-.028c1.175-.28 2.554-.71 3.006-1.598.271-.526.173-1.172.017-1.955l-2.116-10.77c-.223-1.13-.47-2.11-1.253-2.688-1.02-.755-2.667-.653-4.268-.487l-11.303 1.178c-1.39.148-1.937.483-2.547 1.566-.336.79-.547 8.89.183 13.367m9.705 3.142c-5.108 0-9.61-.596-10.887-2.508l-.077-.12-.025-.137c-.691-4.05-.73-13.201-.056-14.397.821-1.46 1.756-2.043 3.566-2.233l11.303-1.179c1.86-.194 3.792-.3 5.197.738 1.259.931 1.562 2.476 1.763 3.503l2.12 10.767c.152.776.36 1.838-.137 2.815-.698 1.372-2.427 1.94-3.856 2.282a1.3 1.3 0 0 1-.233.039l-.3.025c-2.698.233-5.626.405-8.378.405" style="fill:#211d1d;fill-opacity:1;fill-rule:nonzero;stroke:none;stroke-width:.0352778" transform="translate(196.517 30.654)scale(.76349)"/><path d="M-133.57 126.16c.101.16.003.36-.205.413-4.534 1.2-13.286 4.477-17.498 3.479-3.644-.865-9.44-9.61-10.633-11.462-.106-.162.025-.363.243-.381l21.305-1.676c.345-.028.67.12.832.374z" style="fill:#fbf6d4;fill-opacity:1;fill-rule:nonzero;stroke:none;stroke-width:.0352778" transform="translate(196.517 30.654)scale(.76349)"/><path d="M-160.964 118.82c3.051 4.638 7.31 9.983 9.846 10.586 3.122.741 9.236-1.108 13.695-2.459 1.08-.324 2.11-.638 3.002-.885l-5.662-8.798c-.021-.032-.106-.075-.222-.067zm11.54 12.082c-.731 0-1.405-.064-2.001-.205-3.806-.903-9.412-9.221-11.042-11.747a.89.89 0 0 1-.05-.875.97.97 0 0 1 .802-.526l21.307-1.679c.586-.046 1.143.215 1.443.677l5.952 9.254c.162.25.19.55.084.825a.98.98 0 0 1-.677.59c-.97.257-2.166.62-3.433 1.001-4.025 1.22-8.868 2.685-12.386 2.685" style="fill:#211d1d;fill-opacity:1;fill-rule:nonzero;stroke:none;stroke-width:.0352778" transform="translate(196.517 30.654)scale(.76349)"/><path d="M-62.842 144.812c-.036-1.457-.103-2.91-.187-4.378v-.025a150 150 0 0 0-.173-2.5c-1.722-21.59-9.43-36.686-12.743-41.438.057.31.092.62.092.938.014 2.59-1.845 5.01-5.376 7.162-1.789 1.093-3.983 2.074-6.505 2.977 1.03 14.125 1.453 54.603-26.173 64.897-23.932 8.918-49.569 2.794-66.823-5.934a80 80 0 0 0 1.34 4.008 73 73 0 0 0 2.064 5.023 67 67 0 0 0 3.817 7.211c.272.448.568.882.85 1.323a63 63 0 0 0 2.696 3.888c.437.289 13.144 20.895 45.47 21.272 28.719.335 39.909-6.935 49.332-23.283.01-.018-.18.13-.487.37.053-.046.098-.091.148-.137a10 10 0 0 0 .437-.406 156 156 0 0 0 1.482-2.642l.476-.865c1.955-3.608 3.553-6.921 4.854-10 2.826-6.672 4.266-12.246 4.932-17.343q.154-1.179.254-2.325a66 66 0 0 0 .243-5.599 91 91 0 0 0-.02-2.194" style="fill:#a35d1d;fill-opacity:1;fill-rule:nonzero;stroke:none;stroke-width:.0352778" transform="translate(196.517 30.654)scale(.76349)"/><path d="M-113.907 172.445c27.626-10.294 27.203-50.772 26.173-64.897-1.02.363-2.085.72-3.21 1.058-3.162.956-6.665 1.902-10.535 2.562-3.415.578-7.059 1.139-10.893 1.446-3.535.282-7.243.41-11.035.427-3.796.014-7.465-.385-11.007-.639-3.835-.271-7.542-.42-10.96-.97-3.878-.624-7.526-1.295-10.697-2.222-3.912-1.147-7.027-2.808-9.557-4.318-3.552-2.124-5.605-4.463-5.62-7.049a6.2 6.2 0 0 1 .23-1.799c-.13.085-.233.17-.272.254-5.2 10.858-11.769 24.638-13.067 39.194l-.004.024c-.05.582-.091 1.16-.127 1.743q-.014.222-.024.445a46 46 0 0 0-.053 1.397q-.008.248-.014.497-.018.91-.004 1.82c.116 7.084.99 14.316 2.783 21.326.222.875.462 1.75.713 2.617.112.385.24.766.356 1.15 17.254 8.728 42.89 14.852 66.823 5.934" style="fill:#b2772a;fill-opacity:1;fill-rule:nonzero;stroke:none;stroke-width:.0352778" transform="translate(196.517 30.654)scale(.76349)"/><path d="M-169.399 187.46c.078.084.173.21.356.458 4.53 6.078 17.943 20.256 44.56 20.567.603.007 1.203.01 1.792.01 28.028 0 38.18-7.976 46.68-22.57l-.135-.163.194-.18q.152-.132.286-.264c.448-.783.917-1.616 1.425-2.544l.173-.31.304-.55c1.88-3.472 3.503-6.816 4.822-9.935 2.568-6.06 4.163-11.67 4.879-17.148a56 56 0 0 0 .25-2.293c.1-1.097.166-2.19.201-3.345a77 77 0 0 0 .018-4.364 125 125 0 0 0-.342-6.657l-.018-.204c-1.633-20.528-8.452-34.11-11.33-39.028-.565 2.262-2.425 4.364-5.554 6.273-2.448 1.495-5.683 2.84-9.888 4.113-2.72.822-6.385 1.86-10.626 2.582-3.168.537-6.95 1.133-10.96 1.454-3.366.271-6.996.41-11.092.43-2.89.018-5.708-.215-8.431-.434q-1.33-.112-2.632-.204-1.234-.088-2.441-.166c-3.016-.194-5.867-.378-8.587-.815-3.429-.55-7.39-1.249-10.784-2.244-4.117-1.203-7.363-2.98-9.733-4.392-3.313-1.979-5.264-4.113-5.821-6.364-4.957 10.421-10.58 22.998-11.776 36.386a47 47 0 0 0-.127 1.742q-.014.224-.025.441-.036.69-.052 1.38l-.015.49c-.01.667-.014 1.252-.004 1.796.12 7.345 1.052 14.46 2.76 21.149a77 77 0 0 0 2.388 7.701 74 74 0 0 0 2.042 4.974 67 67 0 0 0 3.775 7.13q.266.436.554.864l.285.44a60 60 0 0 0 2.629 3.793zm46.747 22.538q-.914 0-1.849-.01c-27.287-.318-41.08-14.912-45.748-21.174q-.136-.187-.208-.279l-.029-.017-.074-.103c-.875-1.15-1.739-2.399-2.73-3.933q-.139-.219-.282-.43c-.194-.3-.392-.6-.579-.907a69 69 0 0 1-3.86-7.292 75 75 0 0 1-3.795-10.28 88 88 0 0 1-.723-2.642c-1.736-6.802-2.681-14.037-2.805-21.499-.01-.56-.007-1.164.004-1.848l.014-.501c.014-.473.028-.946.053-1.418q.015-.223.025-.452c.035-.6.08-1.192.13-1.76 1.32-14.8 8.153-29.066 13.141-39.48.127-.268.353-.437.536-.557l1.7-1.108-.567 1.948c-.138.465-.201.984-.198 1.58.014 2.18 1.782 4.336 5.257 6.41 2.293 1.369 5.429 3.087 9.38 4.24 3.316.97 7.221 1.659 10.601 2.202 2.653.427 5.468.61 8.446.8.81.054 1.63.106 2.451.166.875.06 1.757.134 2.646.205 2.692.219 5.475.437 8.305.43 4.06-.02 7.651-.158 10.978-.426 3.955-.314 7.69-.904 10.827-1.436 4.159-.71 7.768-1.729 10.442-2.54 4.082-1.235 7.204-2.53 9.543-3.958 3.344-2.036 5.03-4.23 5.016-6.513 0-.264-.028-.536-.081-.804l-.66-3.46 2.015 2.888c4.004 5.74 11.218 21.008 12.876 41.808l.018.208c.063.815.116 1.57.155 2.311.099 1.722.159 3.122.187 4.427.021.776.028 1.5.025 2.216a66 66 0 0 1-.247 5.662 59 59 0 0 1-.258 2.353c-.734 5.616-2.363 11.352-4.981 17.54-1.34 3.164-2.985 6.551-4.89 10.065-.098.183-.204.374-.307.56l-.169.311c-.455.826-.878 1.58-1.284 2.293l.007.004-.317.536c-5.19 9.003-10.661 14.616-17.738 18.19-7.38 3.725-17.074 5.475-30.399 5.475" style="fill:#211d1d;fill-opacity:1;fill-rule:nonzero;stroke:none;stroke-width:.0352778" transform="translate(196.517 30.654)scale(.76349)"/><path d="M-129.927 150.125c-19.593 0-32.847-4.128-40.774-7.814-9.662-4.491-13.666-9.218-13.832-9.416l1.02-.85c.038.046 4.035 4.741 13.465 9.105 8.717 4.036 23.985 8.611 47.223 7.472 44.584-2.184 58.11-16.147 58.243-16.288l.97.907c-.14.148-3.53 3.715-12.558 7.574-8.266 3.528-23.054 7.98-46.588 9.133q-3.72.178-7.169.177m2.011 31.482c-16.827 0-30.261-4.124-38.731-7.69-9.702-4.086-15.029-8.231-15.247-8.408l.818-1.044c.212.17 21.706 16.708 55.94 15.776 29.82-.814 46.927-8.7 55.15-12.491 1.333-.614 2.388-1.101 3.217-1.422l.48 1.235c-.79.31-1.827.786-3.14 1.393-8.304 3.828-25.58 11.793-55.672 12.612q-1.423.04-2.815.039m-57.185-38.943c-.127-.11-.356-.293-.48-.4 1.87-2.684 1.923-2.648 3.912-5.245.103.092.103.12.209.212-1.662 2.822-1.666 2.822-3.641 5.433m.557 3.407c-.215.261-.829-.18-.656-.469 2.321-3.789 2.41-3.757 5.242-7.175.19-.23.484.024.367.296-1.714 4.11-2.12 3.93-4.953 7.348m121.832-2.063c-1.552-2.572-1.538-2.586-2.967-5.225.11-.07.279-.173.381-.243 1.57 2.557 1.454 2.624 2.904 5.249-.124.085-.19.134-.318.219m-119.56 3.587c-.194-.123-.49-.317-.677-.44 2.346-3.772 2.243-3.856 4.925-7.398.176-.237.493.004.377.275-1.729 4.096-2.127 3.891-4.625 7.563m118.823.25c-2.237-3.837-2.396-3.77-4.269-7.8-.123-.264.413-.56.575-.313 2.427 3.718 2.149 3.884 4.23 7.81-.198.11-.335.191-.536.304m-116.512 1.172c-.19.275-.836-.113-.688-.41 1.993-3.971 2.081-3.95 4.618-7.598.17-.243.483-.014.391.272-1.361 4.237-1.785 4.088-4.321 7.736m114.11.085c-2.28-3.814-2.248-3.863-3.962-7.962-.117-.272.44-.55.592-.293 2.28 3.81 2.202 3.866 3.906 7.965.162.396-.364.58-.537.29m-2.428 1.157c-2.145-3.891-2.116-3.937-3.686-8.093-.106-.279.462-.54.606-.279 2.145 3.892 2.06 3.948 3.62 8.104.148.395-.377.56-.54.268m-109.319.081c-.18.286-.846-.078-.705-.385 1.838-4.042 1.93-4.021 4.325-7.764.159-.25.48-.032.399.254-1.2 4.286-1.623 4.156-4.019 7.895m106.864.991c-2.022-3.958-1.99-4.004-3.43-8.205-.094-.283.484-.526.618-.258 2.022 3.955 1.933 4.008 3.362 8.213.138.398-.398.55-.55.25m-104.461.244c-.17.289-.847-.046-.716-.36 1.686-4.106 1.778-4.092 4.036-7.92.151-.257.48-.05.409.24-1.041 4.329-1.475 4.212-3.73 8.04m101.984.748c-1.901-4.015-1.873-4.06-3.185-8.305-.088-.286.497-.508.628-.24 1.901 4.015 1.81 4.064 3.111 8.312.124.402-.412.536-.554.233m-99.546.395c-.163.293-.847-.018-.73-.332 1.544-4.166 1.636-4.156 3.756-8.057.145-.261.48-.067.42.225-.892 4.364-1.326 4.262-3.446 8.164m97.052.525c-1.792-4.067-1.76-4.11-2.956-8.389-.081-.289.512-.494.631-.222 1.793 4.064 1.7 4.113 2.886 8.393.113.405-.427.525-.56.218m-94.587.533c-.151.3-.846.01-.74-.31 1.407-4.213 1.499-4.202 3.492-8.17.134-.269.476-.085.423.207-.747 4.389-1.181 4.304-3.175 8.273m92.079.314c-1.686-4.11-1.662-4.149-2.748-8.456-.074-.296.533-.49.649-.208 1.683 4.106 1.584 4.156 2.656 8.466.103.403-.43.505-.557.198m-89.588.66c-.141.303-.84.039-.744-.282 1.273-4.255 1.361-4.251 3.228-8.28.127-.275.476-.102.437.197-.61 4.41-1.055 4.336-2.92 8.365m87.062.127c-1.584-4.149-1.563-4.188-2.54-8.52-.067-.3.543-.48.653-.194 1.584 4.149 1.481 4.195 2.448 8.53.092.402-.44.49-.56.184m-2.536.726c-1.493-4.18-1.464-4.222-2.346-8.576-.06-.296.55-.462.652-.176 1.493 4.184 1.394 4.223 2.265 8.58.081.409-.458.486-.571.172m-82.007.046c-.13.307-.843.064-.755-.26 1.143-4.294 1.235-4.29 2.977-8.376.117-.275.47-.113.438.184-.473 4.427-.917 4.367-2.66 8.452m79.467.625c-1.408-4.212-1.376-4.251-2.17-8.622-.056-.296.557-.452.653-.166 1.404 4.216 1.309 4.255 2.092 8.625.074.413-.473.48-.575.163m-76.93.194c-.124.31-.837.088-.76-.237 1.017-4.325 1.105-4.325 2.728-8.46.11-.281.473-.13.448.174-.346 4.438-.794 4.388-2.417 8.523m74.38.423c-1.324-4.24-1.3-4.28-2.001-8.664-.05-.3.571-.445.663-.152 1.32 4.24 1.214 4.28 1.909 8.668.063.41-.477.462-.572.148m-71.826.325c-.113.31-.83.106-.762-.216.896-4.353.977-4.356 2.483-8.537.102-.285.473-.14.459.163-.223 4.445-.674 4.41-2.18 8.59m69.267.243c-1.238-4.265-1.22-4.3-1.841-8.7-.046-.306.586-.437.674-.14 1.238 4.265 1.125 4.303 1.735 8.703.057.405-.476.448-.568.137m-66.7.43c-.102.314-.825.131-.768-.194.78-4.374.864-4.381 2.261-8.597.092-.289.466-.155.459.148-.103 4.449-.558 4.428-1.951 8.643m64.14.092c-1.168-4.29-1.147-4.325-1.694-8.731-.035-.307.6-.43.677-.13 1.168 4.286 1.052 4.32 1.584 8.73.05.41-.483.442-.568.131m-2.576.473c-1.09-4.304-1.062-4.34-1.535-8.756-.031-.303.597-.413.67-.116 1.094 4.303.988 4.335 1.447 8.755.046.413-.497.438-.582.117m-58.98.042c-.096.318-.823.152-.774-.176.667-4.392.748-4.4 2.036-8.65.088-.293.462-.17.466.134.01 4.452-.445 4.441-1.729 8.692m56.415.392c-1.026-4.322-1.009-4.357-1.407-8.78-.025-.311.614-.41.684-.11 1.023 4.325.907 4.357 1.295 8.78.035.41-.498.424-.572.11m-53.827.148c-.088.314-.814.17-.772-.155.56-4.406.635-4.42 1.817-8.703.08-.293.465-.18.472.127.124 4.452-.338 4.448-1.517 8.731m51.245.243c-.956-4.335-.928-4.37-1.263-8.801-.021-.304.61-.392.674-.096.96 4.336.854 4.368 1.175 8.799.028.412-.512.42-.586.098m-48.634.233c-.081.325-.818.194-.787-.137.448-4.42.537-4.431 1.609-8.742.07-.293.448-.187.466.113.232 4.445-.216 4.455-1.288 8.766m46.062.12c-.896-4.35-.875-4.385-1.146-8.816-.018-.31.62-.391.684-.088.896 4.35.783 4.382 1.04 8.812.025.413-.51.413-.578.092m-43.462.293c-.07.321-.804.212-.776-.116.346-4.431.423-4.445 1.393-8.781.067-.296.455-.201.48.106.335 4.438-.123 4.459-1.097 8.791m40.88.028c-.836-4.364-.808-4.399-1.016-8.837-.014-.303.617-.374.677-.074.836 4.36.727 4.389.924 8.826.018.413-.522.406-.585.085m-2.579.279c-.78-4.371-.751-4.406-.903-8.844-.01-.307.628-.37.68-.07.78 4.374.668 4.398.805 8.84.014.412-.525.398-.582.074m-35.68.05c-.067.324-.808.229-.787-.103.244-4.434.329-4.452 1.2-8.805.06-.297.444-.212.473.091.437 4.428-.015 4.46-.886 8.816m33.101.2c-.723-4.385-.702-4.416-.797-8.858-.007-.31.635-.363.688-.06.723 4.382.607 4.406.688 8.848.007.413-.526.391-.579.07m-30.49.096c-.057.328-.801.246-.787-.085.152-4.438.233-4.46 1.016-8.83.053-.297.441-.219.476.08.53 4.421.078 4.464-.705 8.834m27.9.12c-.666-4.393-.638-4.424-.676-8.866-.004-.307.635-.356.68-.053.67 4.392.558 4.414.586 8.855 0 .416-.54.388-.59.064m-25.283.123c-.05.325-.793.261-.786-.07.06-4.442.14-4.46.832-8.848.046-.3.438-.23.48.07.617 4.41.166 4.46-.526 8.848m22.702.063c-.618-4.399-.59-4.434-.575-8.875 0-.307.642-.346.684-.043.617 4.4.5 4.42.476 8.862 0 .413-.54.381-.585.057m-20.084.124c-.046.324-.783.275-.787-.053-.024-4.441.05-4.463.653-8.862.042-.307.437-.24.487.06.709 4.396.25 4.456-.353 8.855m17.508.032c-.568-4.407-.55-4.438-.487-8.88.004-.314.653-.346.692-.035.568 4.403.444 4.424.37 8.865-.007.41-.536.367-.575.05m-14.883.105c-.04.329-.784.293-.79-.035-.117-4.441-.04-4.466.48-8.876.034-.303.426-.247.482.053.794 4.378.343 4.449-.172 8.858m12.27.015c-.495-4.414-.47-4.445-.332-8.887.01-.307.652-.328.687-.025.494 4.417.378 4.435.23 8.873-.014.412-.55.363-.586.039m-9.656.074c-.032.328-.77.307-.784-.022-.197-4.437-.127-4.462.31-8.882.03-.307.431-.258.491.042.875 4.367.417 4.441-.017 8.862m7.048.007c-.423-4.424-.398-4.456-.187-8.894.014-.307.656-.317.685-.01.423 4.42.306 4.437.088 8.872-.021.413-.558.356-.586.032m-4.434.035c-.025.325-.762.317-.783-.01-.276-4.432-.205-4.46.155-8.887.024-.307.427-.265.49.035.953 4.35.498 4.435.138 8.862m1.824 0c-.353-4.427-.325-4.46-.043-8.894.018-.306.66-.306.685 0 .352 4.428.236 4.442-.057 8.873-.024.413-.56.346-.585.021" style="fill:#211d1d;fill-opacity:1;fill-rule:nonzero;stroke:none;stroke-width:.0352778" transform="translate(196.517 30.654)scale(.76349)"/><path d="M-63.911 160.45c-.833-1.545-1.027-2.518-1.404-3.312-.413-.878-1.006-1.573-1.845-3.313.123-.088.176-.134.3-.218.917 1.679 1.58 2.335 2.017 3.185.406.787.593 1.76 1.373 3.348-.145.099-.293.208-.441.31m-119.2-2.056c-.085-.057-.307-.198-.385-.258.967-1.763 1.097-1.69 2.141-3.407.067.049-.074-.007-.007.042-.755 1.873-.716 1.894-1.75 3.623m117.453 4.904c-2.377-3.8-2.272-3.895-4.085-7.994-.12-.276.31-.494.47-.237 2.377 3.8 2.437 3.778 4.212 7.892.183.42-.417.628-.597.339m-116.293-.621-.596-.35c1.633-3.108 1.633-3.108 3.542-6.053.123-.194.25-.081.18.134-1.07 3.348-1.369 3.231-3.126 6.269m113.26 2.113c-2.004-4.011-2.089-3.99-3.715-8.167-.11-.279.328-.476.476-.215 2.201 3.905 2.021 3.993 3.86 8.082-.205.095-.413.201-.622.3m-111.34 1.189c-.177.292-.883-.078-.749-.392 1.757-4.124 1.927-4.057 4.255-7.888.155-.258.384-.106.314.187-1.051 4.37-1.492 4.261-3.82 8.093m108.27.172c-2.042-3.99-1.93-4.074-3.383-8.314-.099-.286.35-.466.487-.198 2.043 3.99 2.103 3.972 3.52 8.227.145.434-.468.589-.624.285m-3.1 1.235c-1.895-4.064-1.79-4.141-3.087-8.431-.089-.296.377-.462.504-.184 1.898 4.064 1.947 4.054 3.207 8.354.127.434-.483.561-.625.261m-102.126.046c-.208-.095-.565-.264-.77-.36 1.79-4.11 1.754-4.13 3.913-8.057.145-.261.395-.124.325.166-1.07 4.356-1.51 4.219-3.468 8.251m98.996 1.076c-1.76-4.124-1.65-4.198-2.808-8.53-.077-.296.392-.448.512-.166 1.76 4.124 1.81 4.114 2.928 8.456.11.438-.501.547-.632.24m-95.916.25c-.152.3-.879-.006-.773-.324 1.411-4.258 1.577-4.209 3.574-8.22.137-.271.388-.137.342.163-.685 4.441-1.147 4.367-3.143 8.382m92.762.77c-1.633-4.177-1.52-4.248-2.547-8.612-.07-.296.403-.434.512-.148 1.637 4.174 1.693 4.163 2.677 8.537.103.441-.518.533-.642.223m-89.63.43c-.14.31-.885.028-.79-.296 1.242-4.308 1.418-4.262 3.26-8.35.123-.272.374-.149.338.148-.511 4.466-.966 4.413-2.808 8.498m86.466.49c-1.517-4.215-1.411-4.282-2.314-8.674-.064-.304.42-.427.525-.134 1.517 4.215 1.563 4.212 2.428 8.61.084.438-.526.509-.639.198m-83.305.59c-.127.31-.875.06-.794-.269 1.083-4.35 1.253-4.31 2.946-8.463.113-.282.37-.166.35.138-.35 4.48-.812 4.441-2.502 8.594m80.116.25c-1.408-4.255-1.291-4.322-2.081-8.735-.053-.3.426-.413.522-.12 1.407 4.258 1.46 4.251 2.208 8.672.074.444-.547.5-.65.183m-76.93.713c-.117.31-.868.088-.798-.24.935-4.385 1.101-4.354 2.646-8.562.106-.29.378-.18.364.127-.194 4.49-.667 4.466-2.212 8.675m73.734.046c-1.306-4.29-1.19-4.35-1.874-8.781-.045-.304.434-.402.523-.11 1.308 4.29 1.361 4.283 2.007 8.721.067.445-.557.49-.656.17m-3.203.68c-1.214-4.314-1.094-4.374-1.68-8.82-.042-.302.445-.39.526-.098 1.213 4.318 1.266 4.315 1.81 8.763.056.448-.568.476-.656.155m-67.318.127c-.102.314-.86.117-.8-.211.786-4.414.952-4.389 2.36-8.647.095-.29.367-.19.363.117-.042 4.494-.515 4.483-1.923 8.741m64.104.487c-1.119-4.342-1.006-4.399-1.496-8.855-.035-.306.459-.388.536-.088 1.118 4.343 1.164 4.343 1.616 8.802.046.445-.572.459-.656.141m-60.872.261c-.095.318-.854.141-.804-.183.645-4.438.811-4.42 2.081-8.717.088-.297.367-.205.374.102.099 4.494-.378 4.498-1.651 8.798m57.654.282c-1.03-4.36-.924-4.413-1.326-8.879-.028-.31.473-.381.543-.078 1.034 4.364 1.073 4.364 1.432 8.834.036.441-.571.441-.649.123m-54.409.367c-.084.318-.846.166-.807-.162.515-4.452.677-4.438 1.823-8.774.078-.3.36-.215.378.096.23 4.487-.247 4.505-1.394 8.84m51.185.12c-.953-4.381-.84-4.434-1.16-8.904-.022-.31.476-.37.54-.067.952 4.382.997 4.382 1.276 8.855.028.444-.585.437-.656.116m-3.228.427c-.875-4.399-.762-4.448-1.005-8.925-.014-.31.483-.36.543-.057.875 4.396.92 4.4 1.118 8.876.021.445-.592.427-.656.106m-44.693.007c-.074.325-.85.194-.822-.137.391-4.467.56-4.46 1.58-8.823.07-.3.35-.226.374.08.356 4.481-.113 4.513-1.132 8.88m41.465.364c-.804-4.41-.695-4.46-.86-8.936-.015-.314.486-.36.543-.05.804 4.41.846 4.414.973 8.894.014.444-.6.413-.656.092m-38.202.095c-.067.324-.836.215-.815-.113.268-4.477.427-4.473 1.33-8.862.06-.307.35-.24.384.07.48 4.47 0 4.513-.9 8.905m34.967.226c-.737-4.424-.617-4.47-.72-8.95-.003-.31.49-.346.54-.043.738 4.424.787 4.428.847 8.908.004.448-.614.41-.667.085m-31.693.148c-.057.324-.83.236-.819-.092.152-4.48.31-4.48 1.094-8.894.056-.306.349-.246.388.06.6 4.456.12 4.512-.663 8.926m28.462.12c-.667-4.431-.558-4.474-.59-8.957 0-.318.509-.346.554-.036.667 4.435.702 4.442.688 8.922 0 .441-.603.392-.652.07m-25.189.172c-.049.325-.818.254-.818-.074.042-4.483.201-4.487.875-8.918.046-.31.342-.257.388.053.709 4.438.233 4.509-.445 8.94m21.954.053c-.603-4.441-.49-4.483-.459-8.967.004-.31.505-.335.547-.025.603 4.442.646 4.449.571 8.929-.007.444-.617.388-.66.063m-18.676.156c-.043.324-.815.275-.819-.053-.067-4.48.092-4.491.663-8.936.04-.31.336-.265.392.042.811 4.42.335 4.502-.236 8.947m15.434.02c-.536-4.448-.42-4.49-.318-8.97.007-.31.505-.325.544-.018.536 4.452.582 4.46.437 8.94-.014.444-.624.377-.663.049m-12.15.117c-.035.328-.811.293-.825-.035-.173-4.48-.011-4.49.455-8.95.031-.31.324-.268.388.035.917 4.4.448 4.491-.018 8.95m8.887.007c-.448-4.462-.332-4.498-.149-8.978.014-.31.512-.314.544-.007.448 4.463.49 4.466.264 8.946-.021.441-.628.364-.66.04m-5.613.053c-.025.328-.804.314-.826-.017-.268-4.474-.105-4.488.261-8.958.025-.31.318-.275.388.025 1.013 4.378.547 4.484.177 8.95m2.346 0c-.364-4.466-.244-4.501.035-8.978.018-.307.515-.303.543.007.36 4.466.406 4.473.089 8.946-.032.445-.642.357-.667.025" style="fill:#211d1d;fill-opacity:1;fill-rule:nonzero;stroke:none;stroke-width:.0352778" transform="translate(196.517 30.654)scale(.76349)"/></svg>