<svg xmlns="http://www.w3.org/2000/svg" xml:space="preserve" width="200mm" height="200mm" viewBox="0 0 200 200"><path d="m-97.552 244.523-39.27-.8c-15.389 0-26.678-12.016-26.897-28.244l6.894-124.478 79.032.265 4.54 54.2 3.423 70.013c.751 15.37-12.333 29.044-27.722 29.044" style="fill:#6e62a9;fill-opacity:1;fill-rule:nonzero;stroke:none;stroke-width:.0352778" transform="translate(173.66 14.272)scale(.65836)"/><path d="M-163.048 215.493c.225 15.974 11.25 27.563 26.222 27.563l39.281.8c7.172-.004 14.263-3.132 19.456-8.583 5.172-5.436 7.941-12.636 7.592-19.759l-3.422-70.016-4.487-53.565-77.788-.261zm65.496 29.697h-.014l-39.271-.8c-7.599 0-14.566-2.929-19.607-8.245-5.013-5.285-7.832-12.62-7.941-20.655v-.046l6.928-125.113h.635l79.643.272 4.59 54.807 3.425 70.037c.367 7.486-2.536 15.05-7.958 20.744-5.447 5.718-12.89 8.999-20.43 8.999" style="fill:#211d1d;fill-opacity:1;fill-rule:nonzero;stroke:none;stroke-width:.0352778" transform="translate(173.66 14.272)scale(.65836)"/><path d="M-77.704 91.178c0 4.865-16.659 9.701-39.07 9.701s-40.584-3.944-40.584-8.812c0-4.865 18.172-8.81 40.583-8.81 22.412 0 39.07 3.056 39.07 7.92" style="fill:#473d8e;fill-opacity:1;fill-rule:nonzero;stroke:none;stroke-width:.0352778" transform="translate(173.66 14.272)scale(.65836)"/><path d="M-116.775 83.925c-23.523 0-39.916 4.29-39.916 8.142s16.393 8.145 39.916 8.145c23.795 0 38.404-5.263 38.404-9.034 0-3.606-13.19-7.253-38.404-7.253m0 17.62c-19.998 0-41.25-3.322-41.25-9.478s21.251-9.476 41.25-9.476c18.33 0 39.737 2.247 39.737 8.587 0 5.718-17.825 10.368-39.737 10.368" style="fill:#211d1d;fill-opacity:1;fill-rule:nonzero;stroke:none;stroke-width:.0352778" transform="translate(173.66 14.272)scale(.65836)"/><path d="M-92.024 58.726c-6.424 4.293-28.984 39.229-42.135 51.223-1.796 1.637-4.537 4.142-5.585 6.632-.377.896-.533 1.796-.342 2.646.663 3.02 12.45 7.094 15.494 7.557 8.033 1.22 17.088-2.209 23.537-7.243 6.446-5.03 12.051-12.739 16.07-19.879 4.624-8.22 7.8-20.44 4.712-29.245-2.578-7.352-8.784-11.645-10.53-12.104-.293-.078-.706.067-1.22.413" style="fill:#ce5e1d;fill-opacity:1;fill-rule:nonzero;stroke:none;stroke-width:.0352778" transform="translate(173.66 14.272)scale(.65836)"/><path d="M-92.024 58.726h.004zm1.055.211c.007 0-.183-.017-.691.328h-.004c-2.914 1.944-9.673 10.958-16.827 20.497-8.523 11.36-18.186 24.24-25.23 30.663-1.768 1.613-4.435 4.047-5.427 6.407-.349.836-.455 1.594-.307 2.258.537 2.434 11.388 6.512 14.958 7.055 7.193 1.09 16.023-1.633 23.044-7.115 7.49-5.846 13.18-14.842 15.903-19.685 4.519-8.026 7.715-20.02 4.667-28.713-2.582-7.362-8.742-11.342-10.086-11.695m-30.3 68.74a23 23 0 0 1-3.422-.255c-2.314-.35-15.208-4.332-16.03-8.054-.205-.928-.078-1.95.38-3.037 1.102-2.625 3.896-5.172 5.748-6.862 6.953-6.343 16.577-19.17 25.065-30.487 7.538-10.047 14.047-18.725 17.145-20.792.691-.466 1.262-.632 1.742-.505 2.068.543 8.365 5.066 10.979 12.517 3.182 9.077-.1 21.498-4.76 29.778-2.772 4.928-8.568 14.086-16.238 20.073-6.216 4.854-13.829 7.62-20.609 7.623" style="fill:#211d1d;fill-opacity:1;fill-rule:nonzero;stroke:none;stroke-width:.0352778" transform="translate(173.66 14.272)scale(.65836)"/><path d="M-93.35 56.542c-4.233 2.942-15.79 20.126-26.554 34.332-4.72 6.23-9.207 11.967-12.989 15.544-1.697 1.601-4.283 4.053-5.246 6.46-.345.867-.48 1.731-.282 2.546.688 2.882 12.069 6.59 14.997 6.982 7.729 1.03 16.358-2.417 22.457-7.356 6.096-4.939 11.346-12.432 15.075-19.35 4.296-7.969 7.133-19.748 4.018-28.144-2.6-7.01-8.63-11.021-10.312-11.434-.286-.067-.677.081-1.164.42" style="fill:#fcfbe7;fill-opacity:1;fill-rule:nonzero;stroke:none;stroke-width:.0352778" transform="translate(173.66 14.272)scale(.65836)"/><path d="M-93.35 56.542h.003zm1.02.155c-.036 0-.23.014-.685.328v.004c-2.836 1.968-9.416 11.014-16.383 20.588-3.288 4.519-6.685 9.19-10.036 13.614-4.227 5.577-9.07 11.846-13.053 15.614-1.669 1.577-4.191 3.961-5.105 6.25-.325.816-.41 1.553-.257 2.192.557 2.335 11.063 6.074 14.502 6.533 6.929.928 15.36-1.845 22.01-7.228 7.09-5.744 12.397-14.478 14.926-19.17 4.202-7.79 7.063-19.36 3.983-27.662-2.607-7.027-8.6-10.749-9.899-11.063zm-28.314 66.478a21 21 0 0 1-2.858-.187c-2.836-.378-14.683-4.033-15.494-7.426-.212-.882-.106-1.86.31-2.904 1.01-2.529 3.645-5.02 5.387-6.667 3.92-3.708 8.728-9.93 12.926-15.473 3.344-4.413 6.738-9.08 10.023-13.592 7.33-10.08 13.666-18.782 16.665-20.867.656-.459 1.175-.618 1.637-.508 1.986.487 8.092 4.706 10.724 11.8 3.207 8.643.279 20.606-4.05 28.628-2.572 4.773-7.973 13.656-15.222 19.526-6.004 4.865-13.444 7.67-20.048 7.67" style="fill:#211d1d;fill-opacity:1;fill-rule:nonzero;stroke:none;stroke-width:.0352778" transform="translate(173.66 14.272)scale(.65836)"/><path d="M-138.421 115.424c.688 2.882 12.069 6.59 14.997 6.982 7.729 1.03 16.358-2.417 22.457-7.356 6.096-4.939 11.346-12.432 15.075-19.35 4.296-7.969 7.133-19.748 4.018-28.144-2.6-7.01-8.63-11.021-10.312-11.434-.286-.067-.677.081-1.164.42l-.032.081c3.965 2.205 7.172 5.747 8.989 9.917 2.117 4.868 2.325 10.442 1.27 15.663-1.058 5.225-3.32 10.142-5.976 14.764-3.37 5.863-7.465 11.398-12.697 15.67-5.231 4.269-11.68 7.218-18.39 7.497-6.713.282-13.663-2.053-17.925-7.246l-.028-.01c-.345.867-.48 1.731-.282 2.546" style="fill:#fff;fill-opacity:1;fill-rule:nonzero;stroke:none;stroke-width:.0352778" transform="translate(173.66 14.272)scale(.65836)"/><path d="M-137.87 114.059q-.114.66.02 1.228c.558 2.335 11.064 6.074 14.503 6.533 6.929.928 15.36-1.845 22.01-7.228 7.09-5.744 12.397-14.478 14.926-19.17 4.202-7.79 7.063-19.36 3.983-27.662-2.335-6.297-7.39-9.937-9.349-10.855a21.63 21.63 0 0 1 7.924 9.402c2.564 5.891 2.127 11.96 1.305 16.013-.945 4.667-2.865 9.415-6.04 14.943-3.901 6.788-8.1 11.966-12.834 15.83-5.704 4.652-12.357 7.365-18.74 7.63-7.03.296-13.56-2.184-17.709-6.664m17.225 9.116c-.973 0-1.93-.06-2.857-.187-2.836-.378-14.683-4.033-15.494-7.426-.212-.882-.106-1.86.31-2.904l.223-.55.688.282.12.124c3.855 4.699 10.378 7.33 17.444 7.03 6.128-.253 12.538-2.871 18.045-7.365 4.621-3.772 8.728-8.845 12.555-15.505 3.112-5.415 4.989-10.05 5.91-14.587.786-3.888 1.21-9.702-1.232-15.31a20.4 20.4 0 0 0-8.735-9.639l-.44-.247.271-.726.148-.103c.66-.462 1.179-.62 1.64-.511 1.987.487 8.093 4.706 10.725 11.8 3.207 8.643.279 20.606-4.05 28.628-2.572 4.773-7.973 13.656-15.222 19.526-6.004 4.865-13.445 7.67-20.049 7.67" style="fill:#211d1d;fill-opacity:1;fill-rule:nonzero;stroke:none;stroke-width:.0352778" transform="translate(173.66 14.272)scale(.65836)"/><path d="M-98.772 65.393c.508-.783.96-1.746 1.608-2.413.65-.67 1.39-1.496 2.311-1.446 1.573.085 2.618 1.605 3.411 2.967q1.878 3.2 3.754 6.403c1.034 1.77 2.11 3.799 1.549 5.782-.325 1.157-1.186 2.11-2.188 2.769-1.001.66-2.148 1.055-3.29 1.408a60 60 0 0 1-18.137 2.705c-.332-.003-.861-.08-1.351-.215a.807.807 0 0 1-.403-1.291c2.265-2.738 9.254-11.356 12.736-16.669" style="fill:#c89519;fill-opacity:1;fill-rule:nonzero;stroke:none;stroke-width:.0352778" transform="translate(173.66 14.272)scale(.65836)"/><path d="M-94.927 62.169c-.571 0-1.157.603-1.672 1.14l-.11.112c-.395.406-.73.977-1.054 1.528-.16.271-.318.54-.48.79-3.86 5.895-11.875 15.635-12.774 16.729a.17.17 0 0 0-.032.165c.01.04.042.089.113.11.47.127.935.187 1.189.19a59.4 59.4 0 0 0 17.942-2.674c1.058-.331 2.17-.705 3.13-1.333.987-.65 1.671-1.507 1.925-2.41.484-1.714-.469-3.552-1.488-5.291l-3.75-6.407c-.784-1.337-1.676-2.582-2.897-2.65zm-14.478 22.034h-.353c-.42-.003-.998-.095-1.513-.236a1.43 1.43 0 0 1-.988-.953 1.45 1.45 0 0 1 .261-1.354c.9-1.087 8.872-10.778 12.693-16.616.152-.233.3-.483.448-.737.363-.618.737-1.253 1.238-1.771l.106-.11c.681-.705 1.535-1.584 2.695-1.524 2.071.11 3.324 2.248 3.927 3.278l3.75 6.403c1.153 1.975 2.23 4.085 1.612 6.276-.335 1.199-1.206 2.31-2.448 3.125-1.097.723-2.357 1.147-3.45 1.485a60.4 60.4 0 0 1-17.978 2.734" style="fill:#211d1d;fill-opacity:1;fill-rule:nonzero;stroke:none;stroke-width:.0352778" transform="translate(173.66 14.272)scale(.65836)"/><path d="M-132.403 107.776c-.712.575-1.488 1.206-1.679 2.106-.151.723.127 1.485.59 2.057.461.575 1.082.991 1.714 1.369 1.005.61 2.07 1.065 3.15 1.516 1.21.508 2.328 1.172 3.595 1.56 1.273.391 2.639.564 3.944.285s2.544-1.047 3.214-2.211c.434-.752.61-1.62.734-2.48.596-4.096-.202-8.114-.036-12.207.067-1.658.106-4.617.092-6.279-.01-.935-.307-3.687-1.305-2.173-3.479 5.277-8.354 11.892-14.013 16.457" style="fill:#e6da3f;fill-opacity:1;fill-rule:nonzero;stroke:none;stroke-width:.0352778" transform="translate(173.66 14.272)scale(.65836)"/><path d="M-132.004 108.27c-.642.522-1.312 1.058-1.457 1.743-.099.472.074 1.044.466 1.53.374.466.885.826 1.545 1.221.998.607 2.099 1.066 3.07 1.475.458.194.902.406 1.336.614.741.356 1.443.691 2.198.924 1.33.41 2.547.497 3.623.272 1.214-.261 2.258-.974 2.797-1.909.385-.67.544-1.478.653-2.254.346-2.36.212-4.763.081-7.091-.095-1.644-.19-3.344-.12-5.048.064-1.609.106-4.53.088-6.248a7.6 7.6 0 0 0-.215-1.71c-4.89 7.4-9.49 12.794-14.065 16.48m9.57 9.172q-1.323-.001-2.786-.451c-.847-.258-1.623-.632-2.374-.992-.417-.2-.85-.405-1.28-.585-1.01-.427-2.156-.907-3.236-1.563-.667-.402-1.358-.865-1.88-1.51-.632-.794-.893-1.736-.713-2.593.237-1.122 1.16-1.87 1.902-2.47 4.494-3.622 9.034-8.956 13.882-16.312.493-.748.987-.79 1.319-.691 1.04.307 1.143 2.536 1.15 3.213.014 1.736-.028 4.685-.092 6.308-.067 1.644.029 3.313.117 4.928.137 2.389.275 4.858-.088 7.345-.127.9-.318 1.849-.812 2.706-.723 1.26-2.046 2.177-3.63 2.515a7 7 0 0 1-1.478.152" style="fill:#211d1d;fill-opacity:1;fill-rule:nonzero;stroke:none;stroke-width:.0352778" transform="translate(173.66 14.272)scale(.65836)"/><path d="M-90.457 82.2c.995-.388 2.307-.766 2.84.433.105.237.148.498.134.759-.166 2.95-1.796 5.786-2.59 8.636-.465 1.662-1.178 3.468-2.734 4.212-1.802.86-2.755.032-4.519-.882-4.66-2.42-9.916-4.579-14.577-6.995-.546-.286-1.104-.575-1.52-1.027-.522-.557-.8-1.415-.335-2.11a1.065 1.065 0 0 1 1.111-.43c5.256 1.136 15.187.123 22.19-2.596" style="fill:#c89519;fill-opacity:1;fill-rule:nonzero;stroke:none;stroke-width:.0352778" transform="translate(173.66 14.272)scale(.65836)"/><path d="M-112.88 85.403a.42.42 0 0 0-.35.18c-.32.472.018 1.051.269 1.32.35.377.86.641 1.351.895 2.318 1.203 4.833 2.364 7.264 3.486 2.445 1.128 4.97 2.296 7.313 3.51q.381.201.72.388c1.319.723 1.982 1.086 3.235.483 1.358-.649 1.993-2.378 2.395-3.81.29-1.048.695-2.099 1.086-3.115.678-1.764 1.38-3.588 1.479-5.383a1 1 0 0 0-.078-.462c-.173-.389-.47-.71-2.028-.106-6.844 2.66-16.962 3.834-22.557 2.624a.5.5 0 0 0-.099-.01m18.652 11.832c-.978 0-1.796-.448-2.692-.938q-.328-.18-.699-.378c-2.317-1.2-4.83-2.36-7.26-3.482-2.445-1.129-4.97-2.296-7.316-3.513-.558-.29-1.193-.618-1.694-1.154-.677-.727-1.062-1.902-.395-2.896a1.7 1.7 0 0 1 1.771-.699c5.387 1.164 15.18.014 21.826-2.568.699-.272 2.82-1.094 3.648.769.141.321.208.68.187 1.048-.11 1.996-.85 3.916-1.563 5.771-.395 1.034-.772 2.011-1.047 3.002-.473 1.69-1.25 3.743-3.07 4.615-.631.303-1.185.423-1.696.423" style="fill:#211d1d;fill-opacity:1;fill-rule:nonzero;stroke:none;stroke-width:.0352778" transform="translate(173.66 14.272)scale(.65836)"/><path d="M-116.408 89.407a.85.85 0 0 1 1.221-.84c3.355 1.683 12.347 7.42 16.655 8.69.744.221 1.51.422 2.173.825.666.398 1.238 1.033 1.361 1.802.18 1.101-.56 2.128-1.29 2.967a36.1 36.1 0 0 1-11.55 8.795c-1.602.765-3.567 1.39-5.049.434-1.436-.931-1.707-2.896-1.841-4.614-.293-3.743-1.225-12.648-1.68-18.06" style="fill:#c89519;fill-opacity:1;fill-rule:nonzero;stroke:none;stroke-width:.0352778" transform="translate(173.66 14.272)scale(.65836)"/><path d="M-115.561 89.114a.2.2 0 0 0-.12.039.21.21 0 0 0-.095.197v.004c.23 2.702.571 6.237.9 9.655.327 3.359.634 6.534.779 8.407.123 1.591.356 3.351 1.556 4.131.984.639 2.434.483 4.427-.473a35.7 35.7 0 0 0 11.345-8.64c.643-.736 1.281-1.604 1.147-2.447-.085-.508-.473-1.006-1.062-1.362-.536-.321-1.16-.505-1.824-.699l-.204-.06c-3.027-.896-8.164-3.855-12.291-6.233-1.842-1.062-3.433-1.98-4.47-2.498a.2.2 0 0 0-.088-.021m4.424 24.084c-.794.004-1.489-.194-2.096-.585-1.823-1.186-2.021-3.73-2.127-5.098-.148-1.863-.455-5.03-.78-8.382-.331-3.422-.673-6.96-.9-9.673a1.49 1.49 0 0 1 .646-1.358 1.46 1.46 0 0 1 1.493-.1c1.069.533 2.674 1.461 4.533 2.53 4.067 2.346 9.13 5.267 12.016 6.117l.2.057c.71.211 1.443.427 2.12.829.915.55 1.518 1.369 1.662 2.25.22 1.366-.656 2.58-1.442 3.482a36.9 36.9 0 0 1-11.752 8.95c-1.368.657-2.554.981-3.573.981" style="fill:#211d1d;fill-opacity:1;fill-rule:nonzero;stroke:none;stroke-width:.0352778" transform="translate(173.66 14.272)scale(.65836)"/><path d="m-138.897-8.796 44.654 214.933c.498 2.371-.733 4.562-2.748 4.89-2.018.328-4.057-1.33-4.554-3.704L-146.2-7.607c-.462-2.198 6.805-3.563 7.303-1.189" style="fill:#e9e6f1;fill-opacity:1;fill-rule:nonzero;stroke:none;stroke-width:.0352778" transform="translate(173.66 14.272)scale(.65836)"/><path d="M-141.515-9.371a7.7 7.7 0 0 0-1.549.166c-1.573.328-2.571 1.033-2.483 1.46l44.655 214.934c.426 2.021 2.13 3.45 3.795 3.178.685-.113 1.274-.497 1.694-1.111.554-.804.737-1.89.508-2.984L-139.55-8.658c-.095-.452-.906-.713-1.965-.713m44.02 221.107c-2.149 0-4.18-1.796-4.703-4.276L-146.852-7.473c-.283-1.337 1.097-2.533 3.513-3.041 2.198-.459 4.728-.162 5.094 1.58v.004L-93.59 206c.303 1.446.046 2.907-.713 4.011-.62.91-1.538 1.503-2.578 1.676q-.308.048-.614.049" style="fill:#211d1d;fill-opacity:1;fill-rule:nonzero;stroke:none;stroke-width:.0352778" transform="translate(173.66 14.272)scale(.65836)"/><path d="M-146.122-7.561c-.275-1.034 1.083-2.283 3.037-2.794 1.951-.512 3.757-.092 4.033.942.271 1.033-1.087 2.282-3.038 2.794-1.954.511-3.76.088-4.032-.942" style="fill:#473d8e;fill-opacity:1;fill-rule:nonzero;stroke:none;stroke-width:.0352778" transform="translate(173.66 14.272)scale(.65836)"/><path d="M-141.465-9.907c-.43 0-.921.06-1.45.197-1.133.297-2.096.886-2.456 1.503q-.157.276-.109.473c.134.5 1.453.931 3.22.47 1.13-.297 2.093-.886 2.453-1.507.105-.18.144-.339.109-.47-.095-.349-.77-.666-1.767-.666m-2.262 4.177c-1.563 0-2.762-.607-3.04-1.658-.128-.48-.043-.995.243-1.49.547-.937 1.767-1.731 3.27-2.123 2.381-.624 4.466-.017 4.844 1.415.13.48.046.995-.244 1.489-.547.938-1.767 1.732-3.27 2.123a7 7 0 0 1-1.803.244" style="fill:#211d1d;fill-opacity:1;fill-rule:nonzero;stroke:none;stroke-width:.0352778" transform="translate(173.66 14.272)scale(.65836)"/><path d="M-197.342 8.317s-.614 1.157.776 5.43c1.46 4.473 2.879 4.617 2.879 4.617.66-.497 1.383-4.896 1.383-4.896l-3.867-4.248-.935-.857z" style="fill:#473d8e;fill-opacity:1;fill-rule:nonzero;stroke:none;stroke-width:.0352778" transform="translate(173.66 14.272)scale(.65836)"/><path d="M-196.802 9.545c.035.755.226 2.014.871 3.993.812 2.491 1.58 3.51 2.011 3.916.286-.758.653-2.339.903-3.778l-3.626-3.986zm3.309 9.511-.261-.028c-.434-.043-1.965-.54-3.447-5.077-1.407-4.318-.857-5.711-.73-5.944l.226-.434.91.166 1.118 1.03 4.085 4.49-.053.318c-.349 2.127-.92 4.773-1.636 5.32z" style="fill:#211d1d;fill-opacity:1;fill-rule:nonzero;stroke:none;stroke-width:.0352778" transform="translate(173.66 14.272)scale(.65836)"/><path d="M-197.134 8.395c2.554 3.648 3.61 6.936 3.45 9.959l.007.017 32.015 17.957a38.57 38.57 0 0 1 18.041 22.31l37.077 119.662c.59 1.898 2.54 3.122 4.47 2.646a3.71 3.71 0 0 0 2.67-4.706L-136.4 56.842c-1.393-4.498-3.38-8.798-6.036-12.686-4.081-5.98-9.355-10.81-15.592-14.309l-37.497-21.036a3.6 3.6 0 0 0-1.591-.451z" style="fill:#e9e6f1;fill-opacity:1;fill-rule:nonzero;stroke:none;stroke-width:.0352778" transform="translate(173.66 14.272)scale(.65836)"/><path d="m-196.587 8.01.004.004zm3.584 9.97 31.666 17.766c8.837 4.953 15.352 13.014 18.351 22.694l37.08 119.662c.501 1.616 2.114 2.579 3.673 2.198a3.02 3.02 0 0 0 1.933-1.464c.42-.737.512-1.591.261-2.399l-37-119.401c-1.428-4.607-3.428-8.816-5.947-12.503-4.022-5.89-9.193-10.636-15.367-14.104l-37.232-20.884c1.785 2.95 2.635 5.726 2.582 8.435m90.079 163.738c-1.891 0-3.655-1.277-4.259-3.22l-37.076-119.663c-2.9-9.352-9.194-17.138-17.731-21.925l-32.37-18.158.006-.43c.162-2.999-.928-6.117-3.327-9.546l-.24-.342.41-.755.437.014a4.2 4.2 0 0 1 1.873.536l37.5 21.036c6.358 3.57 11.678 8.453 15.82 14.514 2.592 3.799 4.652 8.128 6.12 12.862l36.996 119.401a4.4 4.4 0 0 1-.37 3.45 4.35 4.35 0 0 1-2.78 2.103 4.3 4.3 0 0 1-1.01.123" style="fill:#211d1d;fill-opacity:1;fill-rule:nonzero;stroke:none;stroke-width:.0352778" transform="translate(173.66 14.272)scale(.65836)"/><path d="M-151.59 35.89s1.57 4.3-.607 6.929z" style="fill:#e9e6f1;fill-opacity:1;fill-rule:nonzero;stroke:none;stroke-width:.0352778" transform="translate(173.66 14.272)scale(.65836)"/><path d="M-152.197 43.486a.667.667 0 0 1-.512-1.094c1.909-2.304.505-6.233.49-6.276a.666.666 0 0 1 .4-.854c.345-.127.73.05.853.4.07.19 1.68 4.695-.716 7.584a.66.66 0 0 1-.515.24" style="fill:#211d1d;fill-opacity:1;fill-rule:nonzero;stroke:none;stroke-width:.0352778" transform="translate(173.66 14.272)scale(.65836)"/><path d="M-144.905 42.618s.388 2.991-2.819 5.26z" style="fill:#e9e6f1;fill-opacity:1;fill-rule:nonzero;stroke:none;stroke-width:.0352778" transform="translate(173.66 14.272)scale(.65836)"/><path d="M-147.724 48.545a.669.669 0 0 1-.385-1.214c2.844-2.01 2.548-4.604 2.544-4.628a.665.665 0 0 1 .575-.748.665.665 0 0 1 .748.575c.018.14.395 3.418-3.097 5.891a.65.65 0 0 1-.385.124" style="fill:#211d1d;fill-opacity:1;fill-rule:nonzero;stroke:none;stroke-width:.0352778" transform="translate(173.66 14.272)scale(.65836)"/><path d="M-140.45 51.137s-2.155 2.138-5.266 2.138z" style="fill:#e9e6f1;fill-opacity:1;fill-rule:nonzero;stroke:none;stroke-width:.0352778" transform="translate(173.66 14.272)scale(.65836)"/><path d="M-145.713 53.942h-.004a.667.667 0 0 1 0-1.337h.004c2.805 0 4.773-1.923 4.794-1.94a.67.67 0 0 1 .946.003.67.67 0 0 1-.007.946c-.095.095-2.385 2.328-5.733 2.328" style="fill:#211d1d;fill-opacity:1;fill-rule:nonzero;stroke:none;stroke-width:.0352778" transform="translate(173.66 14.272)scale(.65836)"/><path d="m-69.83 215.479-3.422-70.012-4.382-52.293a.44.44 0 0 0-.78-.246c-3.393 4.212-18.65 7.951-38.36 7.951-20.48 0-37.406-3.295-40.178-7.574l-6.767 122.174c.22 16.228 11.508 28.243 26.896 28.243l39.271.801c15.389 0 28.473-13.673 27.722-29.044" style="fill:#6e62a9;fill-opacity:1;fill-rule:nonzero;stroke:none;stroke-width:.0352778" transform="translate(173.66 14.272)scale(.65836)"/><path d="M-163.048 215.493c.225 15.974 11.25 27.563 26.222 27.563l39.288.8c7.158 0 14.253-3.129 19.45-8.583 5.17-5.436 7.94-12.636 7.59-19.759v-.004l-3.421-70.012-4.336-51.745c-4.41 4.54-20.355 7.792-38.52 7.792-18.781 0-34.653-2.74-39.595-6.67zm65.496 29.697-39.285-.8c-7.599 0-14.566-2.929-19.607-8.245-5.013-5.285-7.832-12.62-7.941-20.655v-.046l6.879-124.22 1.115 1.718c2.314 3.573 17.765 7.27 39.616 7.27 20.55 0 34.834-3.968 37.843-7.7a1.09 1.09 0 0 1 1.182-.364c.437.134.744.515.783.97l4.378 52.292 3.425 70.037c.367 7.486-2.536 15.05-7.958 20.744-5.447 5.718-12.89 8.999-20.43 8.999" style="fill:#211d1d;fill-opacity:1;fill-rule:nonzero;stroke:none;stroke-width:.0352778" transform="translate(173.66 14.272)scale(.65836)"/><path d="M-116.62 128.752c-8.787.17-29.382 3.203-31.679 3.55-.113.013-.18.108-.148.204l.395 1.072c.078.212.177.416.307.61 2.41 3.62 6.844 6.523 13.162 8.379a49 49 0 0 0 4.618 1.104 61 61 0 0 0 2.526.423c3.46.505 7.299.773 11.504.773 5.613 0 10.636-.571 14.965-1.56a50 50 0 0 0 2.512-.638c2.833-.804 5.309-1.792 7.405-2.914a27 27 0 0 0 1.696-.991c1.602-1.023 2.91-2.13 3.906-3.291.804-.939 1.4-1.909 1.781-2.897.021-.05-.014-.102-.074-.113-1.676-.296-22.253-3.919-32.875-3.71" style="fill:#6e62a9;fill-opacity:1;fill-rule:nonzero;stroke:none;stroke-width:.0352778" transform="translate(173.66 14.272)scale(.65836)"/><path d="m-147.6 132.869.176.48c.064.176.141.328.233.469 2.357 3.538 6.78 6.343 12.795 8.107a47 47 0 0 0 4.555 1.09c.811.155 1.65.296 2.497.42 3.482.508 7.317.765 11.41.765 5.34 0 10.325-.518 14.816-1.541a53 53 0 0 0 2.476-.632c2.727-.772 5.172-1.736 7.271-2.86a24 24 0 0 0 1.655-.967c1.534-.978 2.797-2.043 3.757-3.161a10 10 0 0 0 1.375-2.043c-3.933-.68-22.32-3.768-32.021-3.577-8.248.159-26.882 2.847-30.995 3.45m31.665 12.668c-4.156 0-8.057-.264-11.603-.783a59 59 0 0 1-3.775-.674 47 47 0 0 1-3.457-.875c-6.321-1.855-11-4.843-13.532-8.646a3.6 3.6 0 0 1-.374-.752l-.395-1.072a.8.8 0 0 1 .063-.691.85.85 0 0 1 .61-.406c2.318-.346 22.91-3.383 31.765-3.556l.014.67-.014-.67c10.618-.201 30.748 3.323 33.005 3.725.23.042.424.177.537.378.11.194.123.423.046.631-.41 1.055-1.048 2.096-1.898 3.09-1.048 1.221-2.41 2.371-4.054 3.419a27 27 0 0 1-1.743 1.02c-2.183 1.17-4.72 2.169-7.535 2.966a53 53 0 0 1-2.547.65c-4.59 1.044-9.673 1.576-15.113 1.576" style="fill:#211d1d;fill-opacity:1;fill-rule:nonzero;stroke:none;stroke-width:.0352778" transform="translate(173.66 14.272)scale(.65836)"/><path d="M-116.034 125.51c-4.939.187-16.51 3.507-17.8 3.88-.064.022-.103.124-.086.226.057.283.156.819.223 1.175.046.23.102.455.173.667 1.354 3.958 3.845 7.133 7.397 9.162a16.6 16.6 0 0 0 2.593 1.206q.689.26 1.418.466c1.948.554 4.103.846 6.467.846 3.154 0 5.976-.628 8.406-1.707q.731-.322 1.415-.699a17.5 17.5 0 0 0 4.16-3.185 17 17 0 0 0 .952-1.087 16 16 0 0 0 2.194-3.598c.452-1.027.79-2.088 1.002-3.168.01-.053-.007-.11-.042-.12-.942-.328-12.503-4.29-18.472-4.064" style="fill:#473d8e;fill-opacity:1;fill-rule:nonzero;stroke:none;stroke-width:.0352778" transform="translate(173.66 14.272)scale(.65836)"/><path d="m-133.186 129.899.145.769c.042.211.092.405.148.571 1.32 3.86 3.775 6.904 7.094 8.802a16.5 16.5 0 0 0 2.498 1.16c.445.166.907.318 1.369.449 1.912.543 4.025.818 6.283.818 2.935 0 5.672-.554 8.138-1.647.463-.205.921-.43 1.359-.674a16.6 16.6 0 0 0 4-3.062q.483-.504.917-1.044a15.3 15.3 0 0 0 2.103-3.45c.367-.83.653-1.687.857-2.558-2.378-.798-12.439-4.057-17.734-3.856-4.501.173-14.64 2.998-17.177 3.722m17.537 13.906c-2.378 0-4.615-.293-6.65-.871a21 21 0 0 1-1.468-.48q-.355-.131-.702-.279a17 17 0 0 1-1.99-.977c-3.608-2.06-6.272-5.355-7.697-9.525a5 5 0 0 1-.197-.758l-.22-1.175c-.087-.448.153-.871.551-.988 1.309-.38 12.93-3.718 17.964-3.909 6.046-.225 17.437 3.655 18.714 4.1.35.12.554.497.48.882a15.7 15.7 0 0 1-1.047 3.305 16.8 16.8 0 0 1-3.278 4.879 18 18 0 0 1-4.318 3.306q-.711.392-1.464.726c-2.635 1.171-5.556 1.764-8.678 1.764" style="fill:#211d1d;fill-opacity:1;fill-rule:nonzero;stroke:none;stroke-width:.0352778" transform="translate(173.66 14.272)scale(.65836)"/><path d="m-125.305 130.308-11.095 59.88c-.257 1.955.985 3.779 2.833 4.17 3.31.702 11.652 2.674 16.567 2.674 5.22 0 14.368-2.392 17.713-3.372 1.718-.501 2.815-2.251 2.575-4.1l-10.894-60.47c-.25-1.908-2.399-2.54-4.237-2.455l-10.082.456c-1.722.077-3.143 1.432-3.38 3.217" style="fill:#b6acd2;fill-opacity:1;fill-rule:nonzero;stroke:none;stroke-width:.0352778" transform="translate(173.66 14.272)scale(.65836)"/><path d="M-125.305 130.308h.004zm13.783-3.013q-.146.001-.292.007l-10.083.455c-1.397.064-2.554 1.171-2.744 2.639l-.007.032-11.095 59.884c-.205 1.57.808 3.076 2.314 3.393l1.457.314c3.753.819 10.742 2.346 14.972 2.346 4.815 0 13.282-2.102 17.526-3.344 1.393-.41 2.296-1.86 2.099-3.372l-10.89-60.438c-.187-1.43-1.807-1.916-3.257-1.916M-117 197.7c-4.375 0-11.451-1.545-15.254-2.374l-1.45-.314c-2.184-.462-3.659-2.618-3.355-4.907l11.095-59.902c.285-2.099 1.968-3.686 4.007-3.778l10.083-.455c2.074-.096 4.614.645 4.928 3.037l10.89 60.438c.286 2.19-1.023 4.265-3.044 4.858-.473.137-11.677 3.397-17.9 3.397" style="fill:#211d1d;fill-opacity:1;fill-rule:nonzero;stroke:none;stroke-width:.0352778" transform="translate(173.66 14.272)scale(.65836)"/><path d="M-116.62 128.752c10.34-.247 28.117 2.988 32.305 4.34.338.109.677-.18.642-.551-.847-8.562-15.071-15.374-32.495-15.374-17.046.723-29.788 6.025-32.138 13.607a5.7 5.7 0 0 0-.208 2.338l.046.043c1.083-.201 22.772-4.184 31.849-4.403" style="fill:#b6acd2;fill-opacity:1;fill-rule:nonzero;stroke:none;stroke-width:.0352778" transform="translate(173.66 14.272)scale(.65836)"/><path d="M-116.62 128.752h.005zm1.14-.68c10.157 0 26.473 2.896 31.115 4.303-.497-3.82-3.902-7.412-9.627-10.128-5.99-2.847-13.864-4.413-22.176-4.413-16.87.716-29.249 5.873-31.503 13.137a5 5 0 0 0-.215 1.397c3.944-.716 22.85-4.082 31.25-4.283q.564-.012 1.156-.014m-33.15 5.792-.265-.18a.72.72 0 0 1-.282-.494 6.4 6.4 0 0 1 .233-2.614c2.423-7.81 15.278-13.335 32.748-14.076 17.738-.004 32.3 7.017 33.186 15.977a1.19 1.19 0 0 1-.438 1.048 1.13 1.13 0 0 1-1.072.201c-4.367-1.41-22.003-4.547-32.082-4.307-9.105.219-30.822 4.22-31.743 4.392z" style="fill:#211d1d;fill-opacity:1;fill-rule:nonzero;stroke:none;stroke-width:.0352778" transform="translate(173.66 14.272)scale(.65836)"/><path d="M-163.126 182.925c3.591 3.016 3.302 5.923 3.253 10.082-.053 4.61.155 9.218.307 13.825.243 7.345.338 14.715 2.01 21.94 1.849 7.98 2.593 15.44-.2 23.378-1.39 3.944-3.472 8.185-6.47 11.374-1.373 1.457-6.71 5.934-8.873 3.535-1.697-1.88.47-7.74.86-9.822.883-4.646.417-9.285-1.11-13.776-2.075-6.11-5.765-11.292-7.109-17.656-1.98-9.366-.713-19.025 2.977-27.919 1.602-3.849 6.989-18.747 14.355-14.961" style="fill:#7c70b2;fill-opacity:1;fill-rule:nonzero;stroke:none;stroke-width:.0352778" transform="translate(173.66 14.272)scale(.65836)"/><path d="M-165.504 182.981q-.747 0-1.499.279c-4.526 1.686-8.008 10.3-9.493 13.98q-.208.516-.367.904c-3.796 9.144-4.812 18.658-2.942 27.523.769 3.651 2.303 6.851 3.93 10.241 1.125 2.343 2.286 4.77 3.157 7.338 1.623 4.777 2.007 9.525 1.136 14.115-.088.469-.258 1.097-.452 1.824-.578 2.173-1.658 6.22-.568 7.426.28.314.653.469 1.14.472h.028c2.078 0 5.398-2.61 6.72-4.018 2.551-2.713 4.682-6.46 6.33-11.137 2.917-8.29 1.81-15.956.18-23.005-1.546-6.664-1.761-13.529-1.97-20.168l-.06-1.898q-.037-1.204-.08-2.41c-.134-3.75-.272-7.626-.226-11.447l.01-.773c.057-3.69.096-6.138-2.966-8.741-.678-.34-1.341-.505-2.008-.505m-5.933 85.44h-.04c-.867-.011-1.58-.318-2.12-.914-1.573-1.75-.504-5.747.276-8.665.187-.702.349-1.308.427-1.728.825-4.36.462-8.883-1.087-13.441-.847-2.49-1.99-4.879-3.097-7.19-1.588-3.309-3.228-6.734-4.033-10.54-1.93-9.127-.885-18.92 3.017-28.311.102-.254.225-.554.36-.893 1.552-3.841 5.185-12.84 10.265-14.728 1.549-.579 3.112-.47 4.65.317l.123.085c3.606 3.034 3.56 6.033 3.5 9.836l-.01.765c-.043 3.793.095 7.655.225 11.388q.043 1.204.081 2.41l.064 1.9c.204 6.577.42 13.371 1.93 19.908 1.679 7.246 2.811 15.138-.22 23.749-1.71 4.858-3.936 8.763-6.614 11.61-.885.942-4.776 4.441-7.697 4.441" style="fill:#211d1d;fill-opacity:1;fill-rule:nonzero;stroke:none;stroke-width:.0352778" transform="translate(173.66 14.272)scale(.65836)"/><path d="M-57.473 265.164c3.313-3.323 4.21-5.997 3.8-10.139-.459-4.586-.903-8.967-1.154-13.571-.398-7.338-.949-14.686.085-22.027 1.143-8.11.578-14.02-2.226-23.63-1.171-4.018-3.807-8.032-7.073-10.946-1.496-1.334-7.003-5.782-8.947-3.207-1.524 2.022.226 8.777.801 10.816 1.284 4.551.497 7.13.268 13.483-.233 6.446-1.489 10.76-2.268 17.22-1.154 9.503-3.348 19.815 1.108 28.349 1.93 3.693 8.6 18.065 15.606 13.652" style="fill:#7c70b2;fill-opacity:1;fill-rule:nonzero;stroke:none;stroke-width:.0352778" transform="translate(173.66 14.272)scale(.65836)"/><path d="M-57.473 265.16h.004zm-13.807-83.636q-.112 0-.219.01c-.42.04-.723.205-.956.512-.871 1.157-.515 5.172.91 10.23.967 3.426.8 5.74.55 9.244a122 122 0 0 0-.257 4.445c-.145 4.064-.695 7.284-1.274 10.696-.345 2.05-.709 4.166-1.001 6.583-.145 1.213-.31 2.44-.473 3.672-1.122 8.372-2.276 17.025 1.513 24.285l.445.868c1.799 3.535 6.018 11.815 10.675 13.095 1.213.335 2.35.163 3.475-.529 3.058-3.08 3.954-5.5 3.552-9.543l-.06-.635c-.44-4.402-.854-8.558-1.093-12.964l-.106-1.898c-.37-6.632-.759-13.487.197-20.264 1.119-7.958.565-13.853-2.205-23.346-1.129-3.867-3.637-7.744-6.879-10.637-1.63-1.453-4.822-3.824-6.794-3.824m11.084 85.14q-.756 0-1.524-.212c-5.225-1.436-9.63-10.086-11.511-13.776a73 73 0 0 0-.441-.857c-3.983-7.634-2.798-16.503-1.651-25.08.162-1.227.324-2.448.473-3.654.296-2.452.66-4.583 1.009-6.646.571-3.366 1.11-6.548 1.255-10.52.064-1.743.166-3.203.258-4.495.243-3.362.402-5.588-.501-8.784-.942-3.348-2.286-9.281-.691-11.395.462-.613 1.097-.963 1.89-1.04 2.897-.29 7.2 3.404 8.033 4.145 3.426 3.058 6.075 7.161 7.271 11.26 2.83 9.702 3.397 15.734 2.244 23.908-.935 6.643-.554 13.434-.184 20.003l.106 1.898c.236 4.378.65 8.52 1.087 12.908l.063.631c.441 4.424-.642 7.32-3.99 10.675l-.116.096c-.992.62-2.025.935-3.08.935" style="fill:#211d1d;fill-opacity:1;fill-rule:nonzero;stroke:none;stroke-width:.0352778" transform="translate(173.66 14.272)scale(.65836)"/><path d="M-145.604 106.838c3.232 5.14 1.768 7.962-3.51 12.82-4.318 3.975-7.464 4.367-8.42 8.9-1.694 8.008-2.28 15.12-1.338 22.694 1.376 11.063 1.888 17.18-2.314 27.68-1.421 3.559-4.3 7.369-9.433 6.942-6.406-.536-10.308-5.26-10.784-14.087-.752-13.864 3.668-27.033 10.234-39.175 2.773-5.13 5.468-9.712 6.724-15.473.963-4.424 2.755-9.14 6.724-11.889 3.926-2.723 8.477-2.737 12.117 1.588" style="fill:#a59bc9;fill-opacity:1;fill-rule:nonzero;stroke:none;stroke-width:.0352778" transform="translate(173.66 14.272)scale(.65836)"/><path d="M-152.292 104.04c-1.644 0-3.355.582-5.052 1.757-3.13 2.17-5.239 5.927-6.449 11.486-1.153 5.299-3.503 9.61-5.99 14.178q-.398.726-.8 1.468c-7.497 13.864-10.817 26.564-10.154 38.823.448 8.287 3.966 12.94 10.174 13.455 5.18.434 7.709-3.902 8.76-6.523 4.142-10.36 3.658-16.185 2.268-27.35-.896-7.2-.48-14.267 1.344-22.913.702-3.317 2.547-4.632 4.886-6.301 1.108-.794 2.367-1.69 3.74-2.953 5.09-4.688 6.378-7.204 3.418-11.934-1.795-2.12-3.909-3.193-6.145-3.193m-17.533 82.536q-.412 0-.85-.039c-6.865-.571-10.915-5.796-11.395-14.714-.678-12.51 2.695-25.443 10.315-39.529q.4-.746.797-1.471c2.442-4.48 4.749-8.714 5.86-13.825 1.284-5.902 3.574-9.928 6.996-12.298 4.575-3.172 9.436-2.533 13.006 1.707l.057.074c3.52 5.602 1.728 8.742-3.623 13.667-1.432 1.32-2.727 2.244-3.867 3.058-2.264 1.616-3.76 2.685-4.353 5.49-1.796 8.495-2.205 15.427-1.326 22.475 1.379 11.084 1.901 17.364-2.357 28.007-1.129 2.822-3.803 7.398-9.26 7.398" style="fill:#211d1d;fill-opacity:1;fill-rule:nonzero;stroke:none;stroke-width:.0352778" transform="translate(173.66 14.272)scale(.65836)"/><path d="M-85.984 108.51c5.58-7.684 14.77-2.717 17.667 4.402 2.173 5.345 4.696 12.386 7.02 17.682 3.426 7.814 5.722 11.987 7.98 20.214 1.351 4.928 3.397 10.714 3.644 15.857.37 7.758-3.111 21.167-12.188 20.81-8.922-.349-10.89-14.537-11.529-22.634-.667-8.428-1.115-15.628-.854-23.89.141-4.501.247-9.296-1.146-13.638-.988-3.083-2.085-4.498-5.059-5.772-3.658-1.566-8.46-9.006-5.535-13.031" style="fill:#a59bc9;fill-opacity:1;fill-rule:nonzero;stroke:none;stroke-width:.0352778" transform="translate(173.66 14.272)scale(.65836)"/><path d="M-85.984 108.51h.003zm6.89-3.203c-2.452 0-4.632 1.23-6.35 3.594-1.052 1.447-.84 3.306-.48 4.615.924 3.358 3.715 6.544 5.736 7.412 3.027 1.294 4.35 2.797 5.433 6.18 1.467 4.58 1.309 9.726 1.178 13.864-.272 8.594.25 16.172.854 23.816 1.136 14.373 4.798 21.78 10.887 22.02 2.271.092 4.31-.758 6.053-2.518 3.937-3.972 5.719-11.857 5.444-17.593-.19-3.955-1.454-8.255-2.674-12.414a181 181 0 0 1-.95-3.299c-1.756-6.403-3.573-10.414-5.873-15.49-.653-1.447-1.334-2.942-2.071-4.632-1.422-3.235-2.91-7.109-4.35-10.855-.942-2.445-1.83-4.756-2.677-6.84-1.683-4.139-5.482-7.345-9.24-7.804a8 8 0 0 0-.92-.056m17.59 82.842q-.191-.001-.385-.007c-6.876-.271-10.968-8.092-12.164-23.248-.61-7.687-1.133-15.3-.86-23.964.126-4.036.285-9.056-1.112-13.416-.967-3.016-2.018-4.22-4.689-5.362-2.635-1.126-5.549-4.844-6.498-8.284-.628-2.278-.391-4.265.688-5.75 2.202-3.03 5.225-4.48 8.513-4.078 4.215.512 8.456 4.057 10.311 8.622a389 389 0 0 1 2.689 6.865c1.432 3.732 2.917 7.592 4.325 10.799.737 1.682 1.414 3.171 2.067 4.617 2.325 5.13 4.163 9.183 5.944 15.688.29 1.055.607 2.135.942 3.278 1.185 4.036 2.526 8.611 2.727 12.724.29 6.03-1.62 14.351-5.828 18.595-1.922 1.94-4.166 2.921-6.67 2.921" style="fill:#211d1d;fill-opacity:1;fill-rule:nonzero;stroke:none;stroke-width:.0352778" transform="translate(173.66 14.272)scale(.65836)"/><path d="M-159.584 238.205c2.85 6.763 23.498 12.28 44.68 11.747 18.534-.465 42.36-5.697 43.43-17.444.596-6.537.356-15.484-6.407-15.131-6.766.356-75.117.892-77.251.892-2.138 0-9.596 7.72-4.452 19.936" style="fill:#8a7eb9;fill-opacity:1;fill-rule:nonzero;stroke:none;stroke-width:.0352778" transform="translate(173.66 14.272)scale(.65836)"/><path d="M-158.967 237.944c1.28 3.044 6.756 6.043 15.018 8.227 8.446 2.23 19.025 3.369 29.027 3.115 10.198-.258 20.429-1.884 28.07-4.46 6.396-2.155 14.14-6.053 14.714-12.378.604-6.64-.095-11.046-2.07-13.099-.921-.96-2.11-1.386-3.637-1.305-6.668.352-73.632.892-77.287.892-.452 0-1.856.843-3.207 2.879-1.365 2.053-4.159 7.743-.628 16.129m41.162 12.714c-20.482 0-39.525-5.383-42.393-12.196-3.782-8.981-.737-15.151.748-17.388 1.358-2.043 3.133-3.471 4.318-3.471.603 0 70.372-.53 77.216-.893 1.908-.095 3.482.476 4.67 1.711 2.259 2.346 3.077 7.105 2.438 14.147-.508 5.577-5.909 10.251-15.617 13.525-7.761 2.618-18.136 4.265-28.462 4.526-.974.025-1.951.039-2.918.039" style="fill:#211d1d;fill-opacity:1;fill-rule:nonzero;stroke:none;stroke-width:.0352778" transform="translate(173.66 14.272)scale(.65836)"/><path d="M-75.549 216.125c0 8.85-18.157 16.026-40.552 16.026-21.251-.716-37.133-5.969-40.065-13.476-.55-1.41-.36-2.98.466-4.272 5.21-8.16 18.93-13.38 39.885-13.38 22.398 0 37.246 7.154 40.266 15.102" style="fill:#b6acd2;fill-opacity:1;fill-rule:nonzero;stroke:none;stroke-width:.0352778" transform="translate(173.66 14.272)scale(.65836)"/><path d="M-115.815 201.689c-19.685 0-34.018 4.766-39.324 13.074-.723 1.136-.871 2.473-.406 3.669 2.819 7.218 18.31 12.34 39.465 13.053 10.728 0 20.825-1.651 28.406-4.647 7.207-2.85 11.37-6.702 11.455-10.593-2.787-7.031-16.316-14.556-39.596-14.556m-.286 31.133c-21.713-.734-37.673-6.192-40.686-13.907-.624-1.598-.433-3.372.523-4.872 5.637-8.826 20.002-13.688 40.449-13.688 10.605 0 20.165 1.599 27.647 4.618 6.929 2.798 11.631 6.675 13.244 10.915l.042.113v.124c0 4.572-4.368 8.819-12.302 11.955-7.732 3.055-18.005 4.742-28.917 4.742" style="fill:#211d1d;fill-opacity:1;fill-rule:nonzero;stroke:none;stroke-width:.0352778" transform="translate(173.66 14.272)scale(.65836)"/><path d="M-113.772 218.841q-.27-.001-.48-.007c-5.257-.148-42.185-.893-42.56-.903a.666.666 0 0 1-.652-.681.66.66 0 0 1 .68-.653c.371.007 37.307.755 42.57.903 5.222.142 38.274-2.677 38.609-2.705a.66.66 0 0 1 .72.606.666.666 0 0 1-.607.724c-1.33.113-31.775 2.716-38.28 2.716" style="fill:#211d1d;fill-opacity:1;fill-rule:nonzero;stroke:none;stroke-width:.0352778" transform="translate(173.66 14.272)scale(.65836)"/><path d="M-101.958 57.209s-2.42-.325-6.085-.455c-1.224-.046-.625-1.958-1.732-2.22-.858.011-4.057 2.21-4.971 2.251-.68.032.148-2.26-.423-2.635-.963.074-3.602 2.932-4.59 3.055-1.482.18-.723-2.536-1.492-3.051-1.03.215-5.038 4.244-6.043 4.533-.886.25-1.253-1.528-1.916-2.604-1.027.378-2.72 4.251-3.683 4.731-1.718.854-2.558.702-4.156.212-.575.5-1.679 3.912-2.197 4.459-.745.78-2.689.818-3.327 1.672-.699.935-2.455 5.027-2.935 6.068-.427.928-2.46 7.983-2.625 8.728-.268 1.185-1.115 11.27-1.115 11.27s1.524.41 3.539.195c1.104-.12 6.9-.37 8.16-.596 1.09-.198 5.393-1.45 6.519-1.757 1.263-.342 7.327-1.916 8.392-2.392.667-.748.452-1.961 1.535-2.656.988-.632 3.92-.572 4.681-1.316.138-.83-.748-2.082-.102-2.84.78-.914 3.7-.374 4.466-1.418.166-.787-1.245-2.794-.8-3.443.603-.886 3.02-1.094 3.598-2.015-.025-.804-.992-2.039-.593-2.71.515-.856 3.658-1.17 3.782-2.151.113-.878-1.4-1.986-.981-2.752.519-.952 2.95-1.464 3.408-2.342-.261-1.111-.977-2.29-.565-3.119 1.408-2.822 2.251-4.702 2.251-4.702" style="fill:#307956;fill-opacity:1;fill-rule:nonzero;stroke:none;stroke-width:.0352778" transform="translate(173.66 14.272)scale(.65836)"/><path d="M-148.542 92.695a10.7 10.7 0 0 0 2.762.067c.427-.046 1.5-.11 2.741-.184 1.951-.113 4.622-.271 5.373-.405.773-.142 3.34-.865 5.038-1.344l1.425-.4c.19-.049.487-.13.857-.228 1.88-.498 6.16-1.634 7.3-2.071.13-.198.214-.459.31-.752.197-.613.444-1.379 1.28-1.915.572-.367 1.5-.519 2.477-.678.61-.102 1.478-.243 1.901-.433-.025-.18-.085-.403-.137-.604-.18-.67-.424-1.59.19-2.314.543-.635 1.524-.751 2.558-.875.606-.07 1.404-.166 1.753-.391-.056-.265-.25-.745-.378-1.055-.388-.942-.754-1.835-.31-2.484.416-.61 1.267-.924 2.088-1.227.484-.18 1.066-.396 1.355-.621a7 7 0 0 0-.247-.657c-.293-.705-.62-1.502-.211-2.187.36-.596 1.238-.906 2.17-1.234.475-.17 1.347-.477 1.523-.692-.01-.187-.264-.575-.437-.84-.392-.606-.882-1.358-.47-2.113.364-.67 1.225-1.09 2.054-1.495.391-.19.945-.459 1.21-.685-.064-.211-.141-.427-.216-.642-.306-.878-.627-1.788-.215-2.617a168 168 0 0 0 1.863-3.86 76 76 0 0 0-5.133-.35c-1.118-.038-1.38-.997-1.538-1.573-.099-.37-.162-.553-.25-.627-.396.105-1.39.649-2.071 1.02-1.351.733-2.209 1.188-2.787 1.216a.87.87 0 0 1-.674-.264c-.367-.381-.318-.981-.261-1.67.01-.126.021-.285.028-.44-.44.3-1.034.787-1.443 1.118-1.2.985-1.968 1.591-2.617 1.669-.519.06-.872-.113-1.073-.275-.564-.448-.645-1.26-.72-1.976a8 8 0 0 0-.07-.575c-.628.427-1.69 1.334-2.448 1.98-1.55 1.319-2.53 2.137-3.122 2.306-1.172.336-1.719-.896-2.16-1.887q-.067-.153-.14-.31c-.378.48-.861 1.252-1.193 1.781-.847 1.358-1.397 2.205-1.993 2.501-1.711.85-2.713.805-4.191.385-.247.451-.607 1.309-.84 1.87-.504 1.199-.825 1.95-1.14 2.279-.468.493-1.188.726-1.887.956-.553.176-1.178.38-1.386.66-.522.694-1.831 3.63-2.459 5.04-.173.388-.314.706-.406.907-.377.819-2.402 7.796-2.582 8.597-.197.875-.787 7.469-1.051 10.598m1.637 1.443c-1.457 0-2.463-.261-2.516-.276l-.529-.144.046-.547c.085-1.037.857-10.17 1.126-11.363.18-.8 2.211-7.856 2.674-8.858.091-.198.229-.512.398-.893 1.013-2.265 2.046-4.544 2.607-5.295.459-.614 1.26-.871 2.036-1.122.54-.176 1.1-.36 1.34-.61.17-.19.597-1.207.875-1.88.586-1.397.967-2.272 1.365-2.622l.276-.24.349.11c1.556.476 2.184.568 3.672-.173.297-.152.999-1.277 1.464-2.021.956-1.531 1.588-2.484 2.286-2.738l.505-.187.282.459c.222.36.402.765.579 1.157.169.38.444 1.002.624 1.146.41-.165 1.722-1.284 2.6-2.032 1.71-1.46 2.797-2.36 3.46-2.5l.272-.057.23.155c.571.38.649 1.136.723 1.866.032.314.099.97.23 1.083h.027l.064-.007c.317-.05 1.337-.882 1.944-1.38 1.23-1.005 2.018-1.622 2.677-1.675l.222-.018.187.124c.604.395.537 1.22.473 2.018-.01.113-.021.25-.028.377.494-.208 1.256-.62 1.81-.924 1.35-.737 2.208-1.189 2.773-1.196h.077l.081.018c.914.215 1.14 1.047 1.291 1.598.163.6.209.6.31.603 3.66.13 6.051.448 6.153.462l.872.117-.36.804a139 139 0 0 1-2.261 4.727c-.166.332.063.974.278 1.595.124.352.25.712.339 1.083l.053.236-.113.215c-.325.625-1.108 1.01-1.937 1.415-.554.268-1.312.638-1.474.938-.004.12.26.526.416.766.338.518.72 1.107.638 1.757-.116.93-1.22 1.323-2.388 1.735-.5.177-1.34.473-1.482.674-.053.148.177.702.3 1.002.184.44.37.9.388 1.344l.004.201-.106.17c-.412.66-1.298.984-2.155 1.301-.543.201-1.217.448-1.429.702-.014.237.25.882.413 1.274.31.758.579 1.41.462 1.965l-.028.137-.085.117c-.564.772-1.697.906-2.787 1.037-.635.074-1.503.176-1.71.42-.166.197-.043.666.08 1.122.12.458.247.93.17 1.4l-.036.212-.155.151c-.554.544-1.647.72-2.804.91-.766.128-1.634.269-1.98.491-.416.265-.55.631-.737 1.206-.137.43-.296.918-.663 1.33l-.092.106-.13.06c-.84.374-4.167 1.277-7.638 2.198-.367.099-.663.176-.85.226-.293.081-.8.226-1.411.395-1.828.515-4.329 1.22-5.165 1.372-.829.152-3.323.297-5.528.427-1.224.07-2.282.134-2.677.176-.448.05-.875.068-1.267.068" style="fill:#211d1d;fill-opacity:1;fill-rule:nonzero;stroke:none;stroke-width:.0352778" transform="translate(173.66 14.272)scale(.65836)"/><path d="m-148.09 93.81-1.034-.815c.557-.713 13.811-17.48 21.935-21.922 7.994-4.367 24.081-14.189 24.243-14.288l.685 1.126c-.163.099-16.274 9.934-24.296 14.32-7.888 4.31-21.4 21.406-21.534 21.578" style="fill:#211d1d;fill-opacity:1;fill-rule:nonzero;stroke:none;stroke-width:.0352778" transform="translate(173.66 14.272)scale(.65836)"/><path d="M-135.242 78.555s9.055-6 16.633-1.492z" style="fill:#307956;fill-opacity:1;fill-rule:nonzero;stroke:none;stroke-width:.0352778" transform="translate(173.66 14.272)scale(.65836)"/><path d="M-135.242 79.215a.66.66 0 0 1-.55-.296.655.655 0 0 1 .186-.91c.381-.258 9.493-6.178 17.332-1.514.314.187.416.59.23.903a.657.657 0 0 1-.904.23c-7.136-4.244-15.846 1.418-15.931 1.478a.66.66 0 0 1-.363.11m7.045-6.259a.66.66 0 0 1-.501-1.09c.052-.057 4.98-5.902 2.554-10.943a.659.659 0 0 1 1.185-.572c2.805 5.82-2.512 12.11-2.738 12.375a.66.66 0 0 1-.5.23m5.736-3.108a.659.659 0 0 1-.265-1.263c.282-.124 6.953-2.963 12.132-.004a.659.659 0 1 1-.653 1.143c-4.6-2.628-10.893.043-10.953.067a.65.65 0 0 1-.261.057" style="fill:#211d1d;fill-opacity:1;fill-rule:nonzero;stroke:none;stroke-width:.0352778" transform="translate(173.66 14.272)scale(.65836)"/><path d="M-139.592 82.524s2.014-3.672 1.496-9.13z" style="fill:#307956;fill-opacity:1;fill-rule:nonzero;stroke:none;stroke-width:.0352778" transform="translate(173.66 14.272)scale(.65836)"/><path d="M-139.592 83.184a.7.7 0 0 1-.318-.081.664.664 0 0 1-.26-.896c.024-.046 1.908-3.588 1.417-8.753a.658.658 0 0 1 1.312-.123c.533 5.598-1.488 9.352-1.576 9.51a.66.66 0 0 1-.575.343" style="fill:#211d1d;fill-opacity:1;fill-rule:nonzero;stroke:none;stroke-width:.0352778" transform="translate(173.66 14.272)scale(.65836)"/><path d="M-106.12 103.229a38 38 0 0 0-.452-2.431c-.12-.575-.61-1.658-.434-2.226.141-.459.674-.631.963-.967.713-.822-.617-1.577-1.178-2.081-.55-.487-1.7-1.2-.628-1.665.247-.11 1.125-.265 1.217-.579.095-.32-.441-.589-.685-.74-.62-.396-2.056-.819-2.35-1.553-.366-.924 1.222-1.192 1.652-1.679.29-.332.183-.399-.145-.65-.363-.278-.793-.486-1.192-.701-.836-.448-1.86-.815-2.59-1.432-.998-.84.741-1.49 1.038-2.205.134-.321.169-.159-.106-.364-.148-.105-.416-.137-.59-.176-.521-.123-1.061-.173-1.59-.25-1.143-.166-2.025-.364-2.477-1.591-.17-.463-.004-1.486-.338-1.69-.3-.184-1.08-.04-1.405-.029-.952.025-1.915.265-2.61-.511-.35-.392-.6-.988-1.1-1.22-.354-.163-.823-.138-1.2-.156-1.119-.05-2.233-.025-3.352-.014-1.686.014-3.372.335-5.037.586-1.291.194-2.48.409-3.719.818a289 289 0 0 0-5.425 1.86c-.24.08-1.143.236-1.291.45-.117.167.077.823.112 1 .117.61.332 1.177.554 1.756.66 1.729 1.122 3.616 1.994 5.253.85 1.594 1.993 3.051 2.97 4.572.586.914 1.175 1.827 1.781 2.73.47.702.826 1.644 1.754 1.605.607-.028 1.164-.19 1.668.269.381.345.59.93.815 1.379.163.321.452 1.125.833 1.266.44.16.995-.546 1.372-.744 1.175-.61 1.457.85 1.87 1.64.176.34.437.868.878.794.395-.07.85-.691 1.126-.938.264-.24.652-.692 1.051-.66.448.039.815.628 1.069.931.222.265.663.942 1.083.91.462-.038.935-.885 1.33-1.1.91-.497 1.44.79 1.968 1.344 1.006 1.051 1.337-.381 2.106-.924.914-.656 1.676.857 2.378 1.256.6.338 1.023-.378 1.492-.734.681-.526 1.207-.47 2.05-.448.92.025 1.845.042 2.77.039" style="fill:#47b173;fill-opacity:1;fill-rule:nonzero;stroke:none;stroke-width:.0352778" transform="translate(173.66 14.272)scale(.65836)"/><path d="M-114.362 102.291c.734 0 1.348.634 1.726 1.026.183.187.388.398.522.476.091-.042.268-.215.374-.32.123-.12.254-.248.398-.357.822-.632 1.507-.61 2.3-.59l.17.008c.755.017 1.393.031 1.979.035a50 50 0 0 0-.321-1.633c-.028-.134-.092-.332-.159-.544-.212-.663-.448-1.418-.261-2.018.152-.493.533-.769.811-.97.117-.084.223-.162.283-.23a.2.2 0 0 0 .045-.066c-.017-.176-.578-.617-.79-.783a9 9 0 0 1-.377-.307q-.113-.1-.247-.212c-.505-.41-1.13-.92-1.03-1.62.039-.278.211-.666.825-.93a3 3 0 0 1 .378-.127l.084-.025-.017-.01c-.145-.092-.385-.202-.635-.322-.78-.367-1.669-.78-1.972-1.541-.47-1.175.705-1.778 1.27-2.068a6 6 0 0 0 .24-.127 9 9 0 0 0-.685-.384l-.215-.117q-.372-.193-.776-.38c-.663-.318-1.351-.643-1.923-1.126-.352-.3-.536-.642-.54-1.02-.006-.642.512-1.1.928-1.467.046-.039.1-.088.156-.138-.328-.07-.67-.116-1.03-.165-.145-.018-.29-.04-.434-.057-1.006-.148-2.389-.35-2.999-2.014-.102-.282-.12-.614-.138-.935a6 6 0 0 0-.028-.416c-.18 0-.451.02-.585.031-.142.015-.265.029-.357.029a7 7 0 0 0-.476.028c-.829.053-1.856.12-2.642-.755a5 5 0 0 1-.37-.49c-.177-.25-.343-.49-.52-.572-.162-.078-.458-.085-.719-.092q-.122 0-.233-.007a50 50 0 0 0-2.73-.017l-.582.003c-1.33.01-2.7.23-4.022.438q-.464.073-.924.14c-1.33.202-2.452.413-3.613.794-1.82.6-3.648 1.239-5.415 1.856-.078.028-.215.06-.374.102a6 6 0 0 0-.48.127c.022.117.053.24.067.297.018.074.032.137.04.18.109.564.32 1.114.521 1.647.23.596.434 1.214.635 1.81.381 1.146.773 2.328 1.327 3.365.536 1.006 1.21 1.983 1.866 2.932.356.518.727 1.055 1.076 1.594.511.798 1.146 1.785 1.774 2.72q.137.209.268.427c.378.628.583.893.91.886q.16-.008.308-.022c.54-.045 1.21-.102 1.83.463.396.356.621.843.819 1.273q.074.153.141.296c.035.067.074.156.12.251.06.138.208.462.325.628.109-.067.257-.19.349-.268.176-.145.338-.279.522-.374.451-.237.882-.282 1.277-.141.702.25 1.02 1.002 1.273 1.601.067.163.135.321.205.459.06.113.162.31.243.41.12-.093.336-.322.445-.442.11-.116.208-.222.29-.296q.056-.05.12-.113c.317-.307.796-.77 1.431-.716.657.056 1.098.624 1.387.998l.13.166q.064.076.142.176c.08.103.271.35.405.463.106-.089.258-.258.357-.367.211-.233.43-.477.687-.618 1.2-.652 2 .448 2.431 1.041.12.166.233.325.328.423.081.085.141.13.177.156.091-.078.232-.262.331-.389.205-.257.434-.55.741-.769.29-.208.568-.289.833-.289m2.24 2.832a1.3 1.3 0 0 1-.634-.18c-.304-.17-.568-.444-.826-.712-.582-.6-.73-.664-.847-.579-.151.106-.314.31-.469.508-.307.392-.688.882-1.302.914-.409.02-.8-.17-1.192-.579a5 5 0 0 1-.448-.564c-.47-.646-.603-.724-.73-.656-.067.038-.233.222-.339.342-.335.37-.716.793-1.252.836-.71.06-1.203-.582-1.531-1.006q-.061-.079-.11-.137l-.162-.205c-.099-.127-.32-.416-.448-.487-.113.053-.314.247-.416.346q-.08.074-.145.138c-.063.056-.134.134-.211.218-.329.353-.738.794-1.246.882-.906.156-1.365-.733-1.563-1.11a7 7 0 0 1-.264-.58c-.113-.268-.346-.821-.505-.878-.014-.004-.084-.004-.225.07a3 3 0 0 0-.29.223c-.38.314-.956.79-1.612.554-.571-.208-.878-.89-1.104-1.387a2 2 0 0 0-.092-.2 10 10 0 0 1-.159-.336c-.155-.331-.314-.674-.511-.854-.18-.162-.36-.162-.833-.123q-.18.017-.363.025c-1.147.046-1.697-.858-2.095-1.52-.078-.128-.152-.255-.233-.375-.635-.945-1.277-1.94-1.789-2.74a53 53 0 0 0-1.055-1.56c-.674-.977-1.372-1.99-1.944-3.062-.603-1.133-1.016-2.37-1.414-3.567-.194-.582-.395-1.189-.61-1.757-.226-.585-.456-1.192-.586-1.87q-.012-.042-.028-.116c-.138-.568-.223-1.03.017-1.38.233-.338.692-.472 1.362-.634.11-.025.201-.046.254-.067 1.771-.618 3.605-1.26 5.44-1.863 1.245-.41 2.43-.631 3.824-.843q.456-.068.914-.141c1.372-.215 2.794-.441 4.219-.452l.578-.007c.918-.007 1.867-.017 2.805.021a4 4 0 0 0 .201.008c.374.01.836.02 1.249.211.497.233.8.667 1.04 1.016.096.138.188.265.272.364.342.377.798.37 1.574.317q.264-.016.529-.028c.067 0 .162-.01.264-.021.618-.06 1.119-.089 1.5.148.497.303.529.928.557 1.478.01.18.025.455.057.547.313.846.807.998 1.954 1.164.137.021.279.039.416.056.402.053.812.11 1.228.205l.099.021c.211.039.497.095.73.268q.058.04.085.053c.38.208.497.607.289.991-.01.022-.028.053-.05.103-.158.38-.486.674-.807.956-.145.127-.37.328-.459.451l.05.043c.44.37 1.047.66 1.636.938.29.138.572.272.836.416l.209.11c.36.19.73.384 1.072.649l.028.021c.222.17.501.381.54.77.039.394-.219.687-.328.814-.226.254-.547.42-.886.593-.197.102-.55.282-.645.402.14.3.868.638 1.309.843.289.138.564.265.78.402l.094.057c.328.197 1.098.66.868 1.428-.17.579-.832.77-1.365.928-.046.01-.088.025-.123.035.127.124.3.265.412.36q.16.127.293.244c.088.077.198.162.31.254.544.427 1.218.956 1.288 1.704.025.257-.017.649-.36 1.044a2.8 2.8 0 0 1-.504.434c-.145.102-.304.218-.328.296-.064.205.155.896.26 1.231.078.24.149.466.191.667a43 43 0 0 1 .459 2.466l.11.751-.76.004a82 82 0 0 1-2.79-.035l-.173-.004c-.694-.021-1.008-.032-1.46.314-.081.064-.176.159-.279.254-.271.268-.723.71-1.301.71" style="fill:#211d1d;fill-opacity:1;fill-rule:nonzero;stroke:none;stroke-width:.0352778" transform="translate(173.66 14.272)scale(.65836)"/><path d="M-106.907 103.18c-.014-.025-1.591-2.516-4.269-4.654-1.552-1.238-3.443-2.455-5.27-3.633-2.04-1.313-3.966-2.555-5.341-3.758-4.59-4.028-19.379-7.926-19.527-7.965l.332-1.274c.62.159 15.24 4.018 20.062 8.248 1.302 1.14 3.19 2.357 5.186 3.64 1.856 1.197 3.775 2.435 5.38 3.712 2.861 2.286 4.494 4.875 4.565 4.985z" style="fill:#211d1d;fill-opacity:1;fill-rule:nonzero;stroke:none;stroke-width:.0352778" transform="translate(173.66 14.272)scale(.65836)"/><path d="M-123.555 98.678a.66.66 0 0 1-.639-.822c1.567-6.117-4.063-10.227-4.12-10.266a.66.66 0 0 1 .766-1.072c.067.045 6.417 4.684 4.632 11.666a.66.66 0 0 1-.639.494m4.523-7.673a12 12 0 0 1-3.242-.445.66.66 0 0 1 .395-1.259c.05.018 5.09 1.531 8.142-1.669a.658.658 0 1 1 .952.907c-1.887 1.98-4.318 2.466-6.247 2.466m2.632 10.477a.66.66 0 0 1-.639-.811c.928-3.891-2.138-7.295-2.17-7.33a.654.654 0 0 1 .04-.928.654.654 0 0 1 .927.038c.148.16 3.577 3.94 2.483 8.523a.66.66 0 0 1-.642.508" style="fill:#211d1d;fill-opacity:1;fill-rule:nonzero;stroke:none;stroke-width:.0352778" transform="translate(173.66 14.272)scale(.65836)"/><path d="M-131.62 85.311s3.013.233 6.792-1.841z" style="fill:#307956;fill-opacity:1;fill-rule:nonzero;stroke:none;stroke-width:.0352778" transform="translate(173.66 14.272)scale(.65836)"/><path d="M-131.32 85.978c-.204 0-.324-.01-.349-.01a.66.66 0 0 1-.607-.71.654.654 0 0 1 .706-.603c.053.003 2.9.173 6.424-1.764a.66.66 0 0 1 .896.261.66.66 0 0 1-.26.893c-3.204 1.756-5.878 1.933-6.81 1.933m-1.781 6.491a.65.65 0 0 1-.441-.173c-1.89-1.714-2.247-7.052-2.283-7.655a.66.66 0 0 1 .621-.695.654.654 0 0 1 .695.62c.085 1.49.586 5.606 1.852 6.756.269.244.29.66.046.932a.67.67 0 0 1-.49.215" style="fill:#211d1d;fill-opacity:1;fill-rule:nonzero;stroke:none;stroke-width:.0352778" transform="translate(173.66 14.272)scale(.65836)"/><path d="M-172.238 112.19s2.155.338 5.355.507c1.069.057.885 1.888 1.894 2.152.738-.004 3.126-2.074 3.91-2.106.585-.025.27 2.17.832 2.537.822-.06 2.603-2.777 3.443-2.883 1.252-.155 1.072 2.449 1.827 2.95.854-.194 3.62-4.019 4.442-4.283.723-.233 1.354 1.482 2.116 2.522.826-.349 1.613-4.053 2.36-4.501 1.337-.801 2.096-.646 3.567-.155.41-.477.762-3.74 1.118-4.258.505-.738 2.184-.755 2.586-1.567.445-.892 3.718-4.967 3.884-5.972-1.33-5.638-5.909-9.352-5.895-10.065.022-1.136 3.204-8.925 3.204-8.925s-1.394-.41-3.101-.226c-.935.102-5.92.275-6.971.48-.91.176-4.417 1.33-5.341 1.608-1.034.314-6.012 1.757-6.851 2.198-.445.713-.046 1.88-.865 2.537-.744.592-3.295.504-3.824 1.21.029.793 1.016 2.007.59 2.727-.516.87-3.144.317-3.624 1.312-.004.751 1.574 2.695 1.302 3.316-.367.843-2.423 1.016-2.762 1.894.162.77 1.22 1.969.991 2.607-.296.819-2.963 1.083-2.9 2.025.06.844 1.563 1.923 1.337 2.653-.282.91-2.3 1.373-2.54 2.212.42 1.07 1.25 2.209 1.038 3.002a114 114 0 0 0-1.122 4.491" style="fill:#307956;fill-opacity:1;fill-rule:nonzero;stroke:none;stroke-width:.0352778" transform="translate(173.66 14.272)scale(.65836)"/><path d="M-156.677 111.73c1.136 0 1.481 1.26 1.714 2.107.05.173.113.405.184.606.451-.42 1.167-1.227 1.644-1.76 1.167-1.32 1.859-2.07 2.399-2.247 1.008-.321 1.63.744 2.233 1.774l.137.237c.208-.438.434-1.03.593-1.447.511-1.333.85-2.166 1.376-2.48 1.4-.836 2.335-.758 3.531-.402.113-.434.247-1.122.339-1.587.233-1.196.377-1.891.61-2.23.36-.526 1.005-.765 1.573-.977.37-.134.872-.321.967-.512.18-.363.663-1.037 1.436-2.11.755-1.047 2.127-2.948 2.36-3.576-.928-3.73-3.299-6.537-4.72-8.227-.826-.977-1.168-1.383-1.157-1.842.02-1.047 2.077-6.25 2.956-8.428a8.3 8.3 0 0 0-2.124-.056c-.367.039-1.242.085-2.35.141-1.664.088-3.95.208-4.564.328-.635.124-2.815.815-4.117 1.228-.501.159-.917.293-1.16.367l-.713.211c-1.366.406-4.83 1.433-5.839 1.853a3.5 3.5 0 0 0-.102.62c-.06.582-.145 1.376-.84 1.93-.48.385-1.28.522-2.127.67-.413.07-1.044.184-1.38.31.053.17.135.364.212.54.286.678.642 1.521.212 2.24-.413.7-1.334.812-2.223.918-.338.042-.984.12-1.252.25.106.276.353.72.512 1.013.515.935.96 1.74.684 2.374-.286.656-1.009.967-1.711 1.267-.282.12-.72.306-.928.472.085.198.215.43.335.646.385.695.783 1.414.544 2.078-.233.652-.988.96-1.785 1.284-.343.137-.904.367-1.066.529.06.212.353.593.554.854.455.596.967 1.266.744 1.982-.218.71-.924 1.122-1.608 1.524-.237.138-.632.37-.822.544.091.208.197.423.303.631.416.833.843 1.697.632 2.49a137 137 0 0 0-.953 3.768c.875.113 2.515.297 4.586.403.963.052 1.327.896 1.567 1.456.116.276.236.558.373.67.307-.12 1.038-.606 1.493-.906 1.076-.712 1.76-1.15 2.31-1.175.907-.031 1.027 1.006 1.112 1.764.014.141.035.321.06.494.3-.271.677-.674.938-.952.903-.97 1.489-1.567 2.106-1.644q.111-.012.212-.014m1.573 4.322-.236-.155c-.515-.342-.699-1.01-.89-1.711-.094-.342-.292-1.058-.458-1.136l-.035.004c-.23.074-.907.8-1.312 1.231-.925.995-1.524 1.605-2.163 1.651l-.222.014-.187-.12c-.533-.349-.614-1.104-.695-1.838a14 14 0 0 0-.057-.465c-.374.197-.945.575-1.326.829-1.076.712-1.764 1.15-2.304 1.15h-.084l-.081-.021c-.798-.209-1.112-.939-1.341-1.475-.19-.448-.296-.65-.42-.656-3.203-.166-5.337-.501-5.426-.515l-.691-.11.152-.684c.004-.018.409-1.842 1.129-4.52.08-.31-.265-1.005-.54-1.562-.166-.332-.339-.677-.476-1.026l-.081-.209.06-.215c.19-.663.87-1.062 1.527-1.446.367-.215.914-.536 1.009-.755-.032-.17-.339-.572-.526-.815-.388-.508-.786-1.034-.829-1.62-.067-.987.974-1.41 1.895-1.784.335-.138.885-.364 1.033-.515-.017-.202-.296-.71-.451-.988-.23-.416-.47-.847-.558-1.253l-.038-.194.07-.183c.272-.702 1.058-1.04 1.753-1.337.325-.141.847-.363.992-.536-.046-.258-.388-.879-.6-1.26-.392-.712-.73-1.33-.73-1.841l.004-.148.063-.134c.406-.844 1.464-.97 2.4-1.083.394-.046 1.125-.135 1.252-.283.088-.148-.163-.737-.297-1.054-.183-.43-.37-.879-.384-1.313l-.007-.233.137-.183c.438-.586 1.394-.755 2.41-.931.554-.096 1.316-.23 1.53-.4.251-.204.3-.528.354-1.043.045-.424.098-.903.36-1.327l.095-.148.158-.085c.674-.356 3.408-1.188 6.262-2.035.307-.092.55-.162.706-.212.24-.07.649-.2 1.143-.36 1.873-.592 3.609-1.136 4.265-1.266.652-.124 2.455-.226 4.748-.346.999-.053 1.944-.102 2.272-.137 1.817-.198 3.299.229 3.362.247l.699.204-.276.678c-1.481 3.626-3.023 7.732-3.146 8.604.116.197.497.649.84 1.055 1.417 1.682 4.06 4.815 5.03 8.928l.031.127-.024.134c-.12.727-1.115 2.145-2.621 4.234-.579.804-1.179 1.637-1.323 1.922-.325.657-1.048.925-1.687 1.161-.366.138-.822.307-.945.487-.102.187-.286 1.122-.406 1.74-.296 1.523-.458 2.229-.758 2.574l-.286.332-.42-.138c-1.365-.455-1.898-.575-3.02.096-.19.169-.585 1.203-.821 1.823-.579 1.503-.964 2.442-1.62 2.72l-.48.205-.306-.423c-.25-.339-.477-.727-.695-1.101-.212-.367-.554-.953-.762-1.14-.343.24-1.179 1.186-1.747 1.824-1.41 1.588-2.092 2.297-2.677 2.431z" style="fill:#211d1d;fill-opacity:1;fill-rule:nonzero;stroke:none;stroke-width:.0352778" transform="translate(173.66 14.272)scale(.65836)"/><path d="m-171.307 112.588-.794-1.051c.124-.092 12.362-9.36 18.546-13.48 6.032-4.018 14.704-20.235 14.792-20.401l1.164.62c-.363.678-8.918 16.676-15.226 20.878-6.149 4.1-18.358 13.339-18.482 13.434" style="fill:#211d1d;fill-opacity:1;fill-rule:nonzero;stroke:none;stroke-width:.0352778" transform="translate(173.66 14.272)scale(.65836)"/><path d="M-147.149 92.07s-6.794 5.659-14.153 1.242z" style="fill:#307956;fill-opacity:1;fill-rule:nonzero;stroke:none;stroke-width:.0352778" transform="translate(173.66 14.272)scale(.65836)"/><path d="M-155.414 95.644c-1.937 0-4.064-.47-6.227-1.767a.66.66 0 0 1-.23-.904.663.663 0 0 1 .908-.225c6.858 4.117 13.13-.967 13.395-1.186a.659.659 0 0 1 .84 1.013c-.05.046-3.762 3.069-8.686 3.069m3.023 14.182a.65.65 0 0 1-.56-.314c-3.437-5.588.08-11.596.232-11.85a.66.66 0 0 1 1.132.677c-.035.053-3.256 5.585-.243 10.485.19.31.092.712-.215.906a.7.7 0 0 1-.346.096m-9.345-7.081c-1.609 0-3.408-.338-5.172-1.358a.66.66 0 0 1-.24-.9.66.66 0 0 1 .9-.24c4.413 2.555 9.324.11 9.373.085a.66.66 0 0 1 .886.286.657.657 0 0 1-.286.886c-.148.074-2.47 1.241-5.461 1.241" style="fill:#211d1d;fill-opacity:1;fill-rule:nonzero;stroke:none;stroke-width:.0352778" transform="translate(173.66 14.272)scale(.65836)"/><path d="M-144.08 88.31s-1.1 3.503.314 8.752z" style="fill:#307956;fill-opacity:1;fill-rule:nonzero;stroke:none;stroke-width:.0352778" transform="translate(173.66 14.272)scale(.65836)"/><path d="M-143.766 97.722a.656.656 0 0 1-.635-.487c-1.446-5.376-.352-8.971-.306-9.123a.66.66 0 0 1 .825-.43c.346.11.54.476.43.822-.014.053-1.016 3.425.321 8.389a.654.654 0 0 1-.465.804.6.6 0 0 1-.17.025" style="fill:#211d1d;fill-opacity:1;fill-rule:nonzero;stroke:none;stroke-width:.0352778" transform="translate(173.66 14.272)scale(.65836)"/><path d="M-161.306 54.231a37 37 0 0 0-.367 1.852c-.102.586-.067 1.436-.314 1.972-.211.452-.67.396-1.072.579-1.446.663 1.633 3.28.378 3.616-.516.138-1.733-.388-1.228.554.388.723 1.206 1.287 1.474 2.07.31.914-.765.85-1.379.96-.332.064-.6.064-.575.399.021.282.434.677.596.885.568.741 1.253 1.426 1.75 2.22.642 1.033-.892 1.216-1.598 1.604.307 1.034 2.18 1.288 2.797 2.117.406.543.43 1.33.254 1.954-.102.364-.338.572-.123.84.159.201.631.31.85.402.512.215 1.178.37 1.634.699.663.483.43 1.414.92 2.004.304.366.886.56 1.299.754.709.336 1.432.639 2.151.95 3.842 1.654 7.864 2.014 11.974 2.331.331.025.857.17 1.182.089.314-.078.236.045.356-.413.328-1.267.222-2.685.264-3.987.036-1.16.12-2.32-.084-3.471-.212-1.196-.484-2.381-.713-3.577-.243-1.277-.473-2.554-.755-3.824-.116-.519-.12-.953-.607-1.217-.688-.37-1.263-.318-1.46-1.21-.141-.621.063-1.588-.29-2.131-.384-.596-1.097.102-1.693-.042-1.323-.325.092-2.682-1.33-2.897-.98-.148-1.686.321-2.324-.674-.187-.292-.374-.878-.745-.994-.335-.106-.938.331-1.273.388-1.55.26-.618-2.946-2.325-2.156-.766.356-1.193.79-1.718-.113-.184-.314-.272-.68-.452-.995-.289-.511-.36-.56-.928-.391-.412.123-.85.328-1.29.282-.512-.053-1.027-.423-1.49-.638a78 78 0 0 0-1.746-.79" style="fill:#47b173;fill-opacity:1;fill-rule:nonzero;stroke:none;stroke-width:.0352778" transform="translate(173.66 14.272)scale(.65836)"/><path d="M-160.06 75.486c.07.025.148.053.2.07.096.033.184.064.251.092q.224.088.48.177c.42.148.896.314 1.284.596.572.413.71 1.023.811 1.471.06.268.113.505.233.646.141.173.501.328.79.455q.15.064.283.123c.585.275 1.196.54 1.785.79l.346.152c3.594 1.549 7.298 1.933 11.765 2.28.116.006.257.027.409.052.12.018.317.05.451.057.212-.85.216-1.82.22-2.763 0-.345 0-.688.01-1.023l.017-.49c.04-.991.071-1.926-.091-2.844a65 65 0 0 0-.406-2.053c-.102-.504-.208-1.009-.303-1.517l-.163-.846a89 89 0 0 0-.592-2.957q-.028-.132-.05-.254c-.08-.416-.113-.465-.226-.529a4 4 0 0 0-.437-.194c-.5-.2-1.129-.451-1.351-1.453-.07-.304-.074-.632-.078-.953-.004-.31-.007-.688-.088-.892-.07.014-.166.046-.233.067-.307.091-.684.204-1.097.102-1.16-.282-1.143-1.425-1.132-2.106.004-.233.01-.667-.064-.758 0 0-.025-.011-.077-.018a3.5 3.5 0 0 0-.688-.018c-.607.025-1.44.06-2.092-.952a4 4 0 0 1-.184-.335c-.05-.1-.13-.261-.197-.353-.1.035-.244.102-.335.144-.22.1-.424.194-.639.23-1.337.226-1.669-1.059-1.827-1.676-.046-.18-.117-.459-.184-.586-.031.011-.08.025-.144.057q-.164.076-.31.152c-.523.268-1.5.772-2.255-.533a4 4 0 0 1-.272-.593 3 3 0 0 0-.25-.525c-.028.01-.06.017-.103.031a5 5 0 0 0-.26.085c-.378.127-.801.272-1.285.222-.494-.053-.938-.293-1.326-.504-.13-.07-.254-.138-.374-.194-.37-.173-.695-.321-.995-.455-.06.31-.123.649-.19 1.033-.029.17-.046.381-.067.607-.04.501-.089 1.069-.3 1.528-.275.596-.805.733-1.122.815-.102.028-.201.052-.272.084l-.014.007c-.004.23.325.819.508 1.143.381.685.741 1.33.494 1.916-.07.166-.257.466-.716.589a1.8 1.8 0 0 1-.508.046c.085.106.18.212.275.32.346.396.74.844.931 1.412.184.526.06.893-.077 1.108-.335.532-1.01.614-1.503.67l-.099.014.05.06c.067.078.127.148.172.205.198.257.413.511.639.776.399.466.808.949 1.147 1.492.317.508.278.92.194 1.175-.191.56-.752.843-1.27 1.048.215.137.476.268.723.391.571.282 1.16.575 1.524 1.062.487.656.62 1.598.36 2.53a3 3 0 0 1-.106.292m19.127 8.276c-.236 0-.476-.035-.698-.07a5 5 0 0 0-.304-.043c-4.59-.352-8.403-.75-12.185-2.384l-.345-.148c-.6-.258-1.217-.523-1.824-.808-.078-.036-.162-.07-.247-.11-.416-.183-.935-.409-1.277-.818-.321-.385-.424-.836-.505-1.2-.084-.366-.137-.578-.3-.695-.232-.169-.596-.296-.948-.42-.191-.066-.381-.13-.55-.204l-.17-.06c-.31-.106-.702-.24-.942-.54-.399-.5-.18-.991-.074-1.227.028-.06.056-.124.077-.201.149-.523.092-1.066-.144-1.383-.177-.233-.625-.455-1.055-.67-.748-.371-1.595-.79-1.849-1.648l-.151-.512.465-.254c.209-.116.448-.204.685-.292.204-.078.571-.216.709-.325l-.039-.067c-.286-.459-.649-.885-1.03-1.333-.226-.269-.462-.544-.68-.83l-.124-.144c-.254-.293-.572-.66-.607-1.094-.046-.596.296-.96 1.02-1.08l.095-.013c.116-.022.247-.04.38-.053.131-.018.343-.043.48-.078-.113-.307-.38-.614-.666-.938-.268-.307-.55-.625-.752-1.006-.243-.455-.264-.84-.056-1.146.31-.47.889-.417 1.309-.374l.102.01a8 8 0 0 0-.307-.582c-.413-.74-.84-1.503-.607-2.215.074-.24.261-.565.713-.773a3 3 0 0 1 .49-.162c.088-.025.222-.056.254-.085.12-.257.155-.702.187-1.093.021-.244.042-.494.081-.72.134-.762.247-1.344.374-1.89l.18-.77.727.314c.518.226 1.062.47 1.76.797.141.067.293.149.445.23.296.162.6.328.832.352.198.022.455-.067.727-.162.102-.035.208-.07.31-.099.939-.278 1.292 0 1.687.695.113.198.194.399.264.575.06.156.12.3.187.417.064.113.113.169.138.2.091-.027.254-.112.377-.176q.166-.085.357-.176c.476-.222.903-.247 1.266-.074.582.279.748.91.889 1.471.06.222.166.635.261.713q0 .002.074-.008c.053-.01.205-.08.304-.127.37-.169.825-.38 1.277-.24.536.17.797.678.984 1.048.042.081.077.16.116.223.244.374.388.37.928.345.275-.01.586-.024.942.032 1.291.194 1.27 1.432 1.26 2.103-.011.656.031.78.13.804.063.018.275-.05.399-.088.388-.117 1.192-.36 1.69.413.32.497.327 1.114.335 1.661 0 .265.004.512.042.681.07.321.144.353.557.519.17.067.364.144.575.257.685.374.805.988.89 1.436q.019.106.045.219c.222.998.413 2.014.6 2.998l.159.843c.095.501.2.999.303 1.496.141.685.29 1.39.413 2.092.187 1.055.148 2.106.11 3.122l-.018.483c-.007.322-.011.653-.011.985-.004 1.04-.007 2.12-.272 3.147l-.039.148c-.056.236-.155.635-.709.723l-.091.014a1.6 1.6 0 0 1-.385.042" style="fill:#211d1d;fill-opacity:1;fill-rule:nonzero;stroke:none;stroke-width:.0352778" transform="translate(173.66 14.272)scale(.65836)"/><path d="M-140.732 83.223c-.434-.343-10.696-8.45-13.162-13.476-.462-.946-.998-2.096-1.563-3.313-1.118-2.402-2.384-5.126-3.563-7.278-1.34-2.441-2.72-4.089-2.734-4.106l1.006-.847c.06.07 1.481 1.768 2.882 4.322 1.2 2.19 2.476 4.931 3.602 7.355.564 1.21 1.097 2.353 1.552 3.284 2.332 4.76 12.693 12.94 12.795 13.025z" style="fill:#211d1d;fill-opacity:1;fill-rule:nonzero;stroke:none;stroke-width:.0352778" transform="translate(173.66 14.272)scale(.65836)"/><path d="M-149.269 75.222a.66.66 0 0 1-.56-.314c-.149-.24-3.589-5.966.027-10.926a.658.658 0 0 1 1.062.776c-3.1 4.255 0 9.409.032 9.462a.659.659 0 0 1-.56 1.002m-3.687-4.297a.64.64 0 0 1-.43-.162c-.036-.029-3.469-2.929-6.792-1.475a.66.66 0 0 1-.868-.339.66.66 0 0 1 .34-.868c4.091-1.788 8.014 1.546 8.18 1.687a.658.658 0 0 1-.43 1.157m-1.701-3.507a.655.655 0 0 1-.617-.43c-.067-.177-1.584-4.392.734-7.684a.66.66 0 0 1 1.076.758c-1.912 2.717-.59 6.435-.575 6.47a.66.66 0 0 1-.618.886m7.733 10.457a.7.7 0 0 1-.282-.064c-.057-.025-3.059-1.404-6.498-.307a.653.653 0 0 1-.826-.423.654.654 0 0 1 .427-.83c3.965-1.27 7.324.304 7.465.371.328.159.465.55.307.879a.66.66 0 0 1-.593.374m2.343 1.745a.66.66 0 0 1-.54-.278c-1.962-2.801-.222-6.921-.145-7.094a.655.655 0 0 1 .864-.342c.336.14.487.529.343.864-.018.046-1.52 3.623.017 5.814a.66.66 0 0 1-.54 1.037" style="fill:#211d1d;fill-opacity:1;fill-rule:nonzero;stroke:none;stroke-width:.0352778" transform="translate(173.66 14.272)scale(.65836)"/><path d="M-134.138 67.62c-.473.095-.953.303-1.425.366-.49.064-.565-.56-1.01-.2-.19.154-.564.899-.832.775-.325-.148-.152-.963-.579-.271-.137.225-.338.949-.702.843-.366-.11-.257-.794-.656-.508-.307.215-.451.913-.645 1.234-.332.55-.572.078-.963-.215-.34.297-.12 1.055-.318 1.436-.19.363-.511.339-.825.459-.37.14-.12-.085-.237.172-.06.131.01.42.014.565.007.201.053.44-.038.628-.113.236-.42.31-.544.54-.233.43-.084 1.227-.067 1.7.07 1.767.618 3.355 1.217 4.995.13.357.07.452.392.484.448.042 1.231-.455 1.644-.632.928-.388 1.665-.924 2.487-1.51.402-.285.811-.568 1.206-.864.12-.088.389-.226.46-.363.147-.3-.117-.568.144-.875.187-.226.6-.247.772-.48.268-.367-.158-.342-.204-.723-.074-.625 1.037-.392.832-1.108-.116-.413-.331-.511-.091-.935.07-.123.254-.279.24-.44-.018-.17-.311-.272-.371-.42-.236-.572.755-.643.519-1.179-.156-.356-.618-.23-.396-.716.173-.385.55-.381.343-.808-.081-.162-.272-.254-.343-.437-.088-.237-.02-.558-.02-.805q.001-.354-.005-.709" style="fill:#47b173;fill-opacity:1;fill-rule:nonzero;stroke:none;stroke-width:.0352778" transform="translate(173.66 14.272)scale(.65836)"/><path d="m-141.85 71.976.007.081c.01.078.018.148.021.201q.001.06.007.12c.014.201.036.476-.095.745-.113.229-.296.363-.43.458-.043.032-.11.081-.127.103-.106.197-.06.716-.032 1.058q.022.213.028.384c.064 1.662.575 3.179 1.189 4.844l.05.155c.229-.039.67-.264.895-.38.163-.082.314-.156.43-.209.848-.353 1.525-.836 2.308-1.393l.42-.3q.44-.306.868-.621.059-.044.151-.102c.043-.029.113-.071.156-.103l-.011-.091c-.021-.187-.06-.533.222-.865.166-.2.388-.293.565-.367l.056-.024a.9.9 0 0 1-.166-.438c-.077-.656.48-.903.716-1.009.036-.017.082-.035.12-.056-.024-.078-.049-.13-.074-.19-.134-.297-.233-.607.043-1.087a1 1 0 0 1 .077-.12.8.8 0 0 1-.24-.31c-.257-.625.212-1.013.41-1.175l.042-.036c-.42-.254-.53-.617-.321-1.076.091-.2.215-.335.31-.426l-.021-.022a1.1 1.1 0 0 1-.3-.42c-.099-.271-.08-.557-.063-.786q.008-.102.01-.194v-.06c-.278.085-.568.17-.871.208-.388.053-.653-.123-.804-.243a1 1 0 0 0-.096.127c-.247.338-.66.903-1.21.656a1 1 0 0 1-.134-.081c-.183.363-.518.843-1.083.673a.8.8 0 0 1-.398-.268 4 4 0 0 0-.103.25 3.3 3.3 0 0 1-.236.526c-.064.106-.261.434-.639.487a.73.73 0 0 1-.472-.095c-.007.265-.025.554-.156.804-.24.462-.635.565-.896.635zm.547 9.14q-.049 0-.102-.003c-.533-.053-.664-.339-.752-.631-.014-.046-.028-.103-.053-.17-.642-1.75-1.178-3.34-1.249-5.147q-.008-.153-.024-.338c-.046-.516-.1-1.154.151-1.62.113-.208.286-.335.413-.427.042-.031.11-.077.124-.098.01-.029 0-.156-.004-.23-.004-.056-.011-.109-.011-.162 0-.032-.007-.07-.01-.11a1.6 1.6 0 0 1-.011-.504l-.11-.173.593-.56.152.109a3 3 0 0 1 .219-.064c.225-.06.24-.074.271-.137s.042-.279.046-.42c.014-.378.028-.847.385-1.157l.3-.261.317.236q.153.119.286.244l.01.01c.036-.077.074-.176.113-.272.141-.366.304-.783.621-1.008.205-.149.413-.194.614-.138a.68.68 0 0 1 .416.35 4 4 0 0 1 .194-.402c.12-.195.342-.562.734-.509a.55.55 0 0 1 .427.31l.042-.06c.11-.151.208-.282.318-.373.55-.448 1.002-.096 1.146.02a.6.6 0 0 0 .11.075c.229-.032.476-.106.733-.184.212-.063.43-.13.657-.176l.582-.12.01.596q.005.36.004.72-.002.122-.014.254c-.007.13-.021.307.004.374l.067.06c.078.077.184.18.258.335.289.59-.06.924-.208 1.069l-.067.067c.116.081.25.205.338.406.265.606-.197.987-.391 1.15l-.064.049c.134.106.314.272.342.547.032.31-.148.54-.254.677l-.05.064c-.038.063-.041.091-.041.095.004 0 .028.053.045.092.04.088.096.208.138.363.222.787-.434 1.08-.68 1.192l-.089.04c.307.317.325.662.063 1.022-.169.233-.409.332-.6.413-.066.032-.172.074-.197.099-.004.014.004.07.007.113.018.158.046.398-.084.663-.113.222-.332.363-.512.476-.035.025-.067.042-.092.06-.293.219-.589.427-.885.639l-.42.296c-.797.568-1.549 1.104-2.494 1.5a7 7 0 0 0-.367.18c-.455.232-.967.49-1.415.49" style="fill:#211d1d;fill-opacity:1;fill-rule:nonzero;stroke:none;stroke-width:.0352778" transform="translate(173.66 14.272)scale(.65836)"/><path d="M-141.204 80.728s.557-4.212 1.548-5.736c.992-1.52 2.276-3.2 2.403-3.89z" style="fill:#47b173;fill-opacity:1;fill-rule:nonzero;stroke:none;stroke-width:.0352778" transform="translate(173.66 14.272)scale(.65836)"/><path d="m-141.2 81.222-.068-.003a.495.495 0 0 1-.423-.554c.021-.176.578-4.343 1.623-5.94.278-.428.578-.869.871-1.295.65-.95 1.386-2.022 1.46-2.417a.493.493 0 1 1 .97.18c-.105.571-.684 1.436-1.615 2.794-.29.42-.586.854-.86 1.277-.763 1.171-1.32 4.389-1.472 5.528a.49.49 0 0 1-.487.43" style="fill:#211d1d;fill-opacity:1;fill-rule:nonzero;stroke:none;stroke-width:.0352778" transform="translate(173.66 14.272)scale(.65836)"/><path d="M-147.325 93.767c.462-.137.92-.384 1.386-.487.487-.106.614.508 1.023.113.177-.17.487-.945.766-.846.335.12.233.949.596.222.12-.237.258-.974.632-.9.374.078.32.77.695.452.285-.244.374-.95.54-1.284.282-.579.56-.13.977.127.31-.321.028-1.059.194-1.457.155-.374.48-.378.783-.526.356-.173.123.074.218-.19.05-.138-.042-.42-.06-.561-.024-.201-.091-.438-.017-.632.095-.243.395-.346.497-.582.194-.448-.021-1.231-.077-1.7-.22-1.757-.9-3.292-1.64-4.876-.16-.342-.11-.44-.431-.444-.448-.007-1.186.557-1.584.765-.893.47-1.584 1.066-2.35 1.718-.377.321-.758.635-1.129.963-.112.1-.366.258-.423.403-.123.31.162.557-.07.885-.17.24-.579.296-.73.543-.233.388.19.328.264.702.127.614-.998.477-.734 1.175.152.402.378.48.17.924-.057.127-.23.3-.198.459.032.17.332.243.406.388.282.547-.699.706-.42 1.217.187.342.635.177.455.681-.138.399-.515.427-.272.833.095.158.293.232.378.409.11.226.07.55.091.797q.028.354.064.71" style="fill:#47b173;fill-opacity:1;fill-rule:nonzero;stroke:none;stroke-width:.0352778" transform="translate(173.66 14.272)scale(.65836)"/><path d="m-147.392 91.636.025.018c.095.081.24.201.335.395.12.258.127.547.13.78q-.001.1.004.19l.007.06c.272-.106.55-.218.847-.282.384-.085.663.07.825.176.032-.045.06-.095.085-.134.215-.36.579-.96 1.147-.758a1 1 0 0 1 .14.067c.156-.374.445-.879 1.024-.762.183.039.32.13.423.233l.078-.258c.056-.197.113-.384.19-.543.057-.113.223-.455.593-.54a.73.73 0 0 1 .48.053c-.014-.261-.022-.554.088-.815.201-.48.582-.614.836-.705q.06-.02.123-.046l-.017-.078c-.014-.077-.028-.148-.035-.2l-.018-.117c-.032-.201-.078-.473.032-.752.091-.236.264-.384.388-.494a1 1 0 0 0 .116-.109c.092-.208.004-.72-.056-1.058a8 8 0 0 1-.06-.381c-.208-1.651-.847-3.119-1.598-4.728a2 2 0 0 1-.064-.148c-.222.057-.645.321-.86.455-.156.096-.297.184-.413.244-.812.427-1.443.963-2.177 1.587l-.378.318c-.278.233-.553.465-.825.709l-.145.116a1.4 1.4 0 0 0-.144.117l.017.088c.036.183.106.522-.148.878-.148.215-.36.325-.529.417l-.056.028a.9.9 0 0 1 .204.42c.13.645-.402.942-.628 1.069a2 2 0 0 0-.116.063c.032.074.06.127.092.183.158.286.282.586.049 1.09a2 2 0 0 1-.067.124.8.8 0 0 1 .265.29c.31.599-.124 1.026-.307 1.206l-.04.035c.442.219.58.572.414 1.048a1.4 1.4 0 0 1-.276.451m-.363 2.773-.064-.592-.063-.717q-.009-.122-.007-.26c-.004-.128-.007-.304-.036-.368l-.07-.056a1.2 1.2 0 0 1-.286-.31c-.339-.565-.021-.928.116-1.083l.06-.071a1 1 0 0 1-.37-.377c-.318-.583.11-.999.293-1.179l.056-.056c-.141-.092-.339-.244-.388-.515-.056-.307.102-.55.198-.695l.042-.067a.4.4 0 0 0 .035-.099 2.5 2.5 0 0 1-.222-.437c-.29-.77.339-1.115.575-1.246l.085-.05c-.332-.288-.381-.63-.148-1.015.148-.244.377-.364.56-.462.064-.036.166-.085.191-.113 0-.014-.01-.07-.021-.113-.032-.155-.078-.392.028-.667.092-.233.303-.391.47-.518.031-.025.063-.05.087-.067q.419-.369.847-.727l.374-.318c.744-.631 1.446-1.23 2.357-1.707.098-.05.218-.127.349-.208.465-.29.988-.614 1.46-.614h.01c.537.003.692.282.802.564q.024.068.07.166c.787 1.686 1.457 3.228 1.683 5.02.01.099.032.212.053.335.088.508.197 1.143-.014 1.627-.095.218-.258.356-.374.458a.7.7 0 0 0-.117.113c-.007.028.014.152.025.226q.015.084.025.162c.004.028.014.067.021.11.032.148.07.324.053.497l.123.166-.543.607-.162-.096q-.105.047-.212.081c-.219.082-.23.096-.257.16-.029.066-.018.281-.011.426.021.378.042.847-.282 1.185l-.279.286-.339-.212a4 4 0 0 1-.303-.218l-.01-.007c-.032.077-.06.18-.089.278-.113.381-.236.808-.532 1.062-.194.162-.4.226-.604.19a.67.67 0 0 1-.44-.317c-.022.05-.036.099-.05.134a3 3 0 0 1-.11.282c-.102.205-.292.59-.69.572a.56.56 0 0 1-.452-.272l-.036.064c-.099.159-.183.3-.285.398-.512.494-.988.18-1.143.078a1 1 0 0 0-.113-.067c-.23.053-.466.148-.72.247-.205.081-.416.166-.639.233z" style="fill:#211d1d;fill-opacity:1;fill-rule:nonzero;stroke:none;stroke-width:.0352778" transform="translate(173.66 14.272)scale(.65836)"/><path d="M-141.529 80.404s-.282 3.323-1.587 5.602c-1.306 2.279-1.023 3.157-1.023 3.157z" style="fill:#47b173;fill-opacity:1;fill-rule:nonzero;stroke:none;stroke-width:.0352778" transform="translate(173.66 14.272)scale(.65836)"/><path d="M-144.132 89.668a.52.52 0 0 1-.48-.356c-.057-.18-.275-1.203 1.065-3.553 1.235-2.152 1.52-5.362 1.524-5.397a.5.5 0 0 1 .536-.448.49.49 0 0 1 .448.532c-.01.141-.307 3.457-1.65 5.807-1.13 1.976-.974 2.773-.974 2.783a.48.48 0 0 1-.325.607.4.4 0 0 1-.144.025" style="fill:#211d1d;fill-opacity:1;fill-rule:nonzero;stroke:none;stroke-width:.0352778" transform="translate(173.66 14.272)scale(.65836)"/></svg>