<svg xmlns="http://www.w3.org/2000/svg" xml:space="preserve" width="200mm" height="200mm" viewBox="0 0 200 200"><path d="M77.91 226.104c-3.345 0-6.584-.494-9.706-.808-3.383-.342-6.65-.54-9.666-1.21-3.415-.755-6.629-1.566-9.419-2.68-3.447-1.373-6.188-3.356-8.41-5.151-3.126-2.526-4.921-5.3-4.921-8.358s1.83-5.785 4.956-8.308c2.223-1.799 4.967-3.718 8.414-5.09a61.5 61.5 0 0 1 9.359-2.904c3.016-.67 6.28-1.009 9.666-1.35a96 96 0 0 1 9.726-.498c3.348 0 6.6.254 9.723.571 3.383.343 6.586.97 9.588 1.704 6.52 1.595 2.487.522 9.331 2.794 3.514 1.164 6.333 2.932 8.559 4.731 3.122 2.526 4.833 5.292 4.833 8.35 0 3.059-1.655 5.906-4.777 8.432-2.226 1.795-5.147 3.34-8.594 4.713-2.794 1.111-5.891 2.208-9.306 2.967-3.013.67-6.233 1.308-9.617 1.65-3.122.318-6.392.445-9.74.445" style="fill:#fcfefe;fill-opacity:1;fill-rule:nonzero;stroke:none;stroke-width:.0352778" transform="translate(37.448 11.429)scale(.7907)"/><path d="M77.91 190.474a97 97 0 0 0-9.656.49c-3.055.31-6.52.66-9.578 1.34a60 60 0 0 0-9.25 2.869c-3.648 1.453-6.442 3.538-8.227 4.977-3.154 2.55-4.688 5.084-4.688 7.747 0 2.678 1.566 5.299 4.653 7.793 2.01 1.623 4.759 3.665 8.223 5.045 2.903 1.157 6.336 1.986 9.31 2.646 2.325.515 4.798.744 7.419.987.712.067 1.436.134 2.162.205.773.078 1.553.17 2.34.258 2.366.271 4.811.55 7.291.55 3.574 0 6.735-.145 9.666-.441 3.479-.353 6.77-1.027 9.532-1.637 2.858-.635 5.694-1.538 9.197-2.935 3.592-1.432 6.34-2.935 8.403-4.604 2.996-2.416 4.512-5.066 4.512-7.867 0-2.758-1.495-5.306-4.568-7.786-2.568-2.077-5.37-3.626-8.33-4.607-2.313-.769-3.4-1.16-4.049-1.393-1.002-.36-1.002-.36-3.16-.882-.54-.13-1.21-.297-2.065-.505-3.407-.832-6.508-1.383-9.49-1.686-2.606-.261-6.06-.564-9.648-.564m0 36.357c-2.562 0-5.049-.286-7.459-.561-.78-.088-1.552-.176-2.317-.254q-1.087-.11-2.152-.205c-2.667-.247-5.186-.48-7.599-1.016-3.03-.67-6.533-1.52-9.532-2.716-3.644-1.45-6.509-3.574-8.597-5.264-3.443-2.783-5.193-5.782-5.193-8.918 0-3.129 1.71-6.032 5.228-8.872 1.86-1.503 4.77-3.673 8.6-5.2a62 62 0 0 1 9.473-2.939c3.14-.695 6.65-1.051 9.747-1.365a99 99 0 0 1 9.8-.497c3.655 0 7.155.307 9.797.575 3.044.307 6.212.871 9.684 1.718.853.208 1.524.37 2.063.5 2.195.533 2.237.544 3.31.932.641.23 1.717.617 4.014 1.38 3.126 1.033 6.082 2.666 8.788 4.854 3.386 2.737 5.1 5.736 5.1 8.914 0 3.263-1.696 6.287-5.044 8.993-2.18 1.76-5.052 3.34-8.78 4.826-3.578 1.425-6.485 2.349-9.42 3.002-2.8.62-6.145 1.305-9.698 1.665-2.98.3-6.19.448-9.814.448" style="fill:#211d1d;fill-opacity:1;fill-rule:nonzero;stroke:none;stroke-width:.0352778" transform="translate(37.448 11.429)scale(.7907)"/><path d="M88.25 123.894c-3.627 5.348-5.335 11.338-5.3 17.385l.152 46.037c.014 2.41.244 4.82.706 7.186.677 3.412 1.876 7.962 3.788 10.273.357.43.346 1.076-.056 1.457-1.27 1.214-4.258 3.397-9.24 3.33-6.875-.098-10.586-2.68-10.498-3.824.088-1.09 4.293-7.711 5.08-14.524a14 14 0 0 0 .088-1.732l-.278-48.644c-.036-5.814-1.934-11.49-5.073-15.78l-5.765-8.918c3.817 4.476 9.628 7.08 15.417 7.08h.243c6.23-.07 13.55-3.768 17.42-8.996z" style="fill:#e6f6f4;fill-opacity:1;fill-rule:nonzero;stroke:none;stroke-width:.0352778" transform="translate(37.448 11.429)scale(.7907)"/><path d="M68.529 205.777c.194.734 3.408 2.967 9.782 3.059 4.671.07 7.476-1.93 8.728-3.13.12-.112.117-.328 0-.472-1.605-1.937-2.931-5.5-3.94-10.59a39.4 39.4 0 0 1-.72-7.324l-.155-46.041c-.036-6.354 1.841-12.506 5.425-17.79l.004-.008 2.748-3.972c-3.863 2.677-8.604 4.388-12.88 4.434h-.25c-4.24 0-8.425-1.333-11.9-3.697l2.844 4.403c3.27 4.47 5.168 10.368 5.203 16.185l.279 48.645c.004.603-.025 1.217-.095 1.817-.568 4.924-2.833 9.655-4.188 12.484-.405.847-.825 1.725-.885 1.997m10.005 4.512q-.123.001-.244-.004c-5.376-.078-9.204-1.672-10.615-3.217-.43-.473-.631-.939-.596-1.387.035-.44.342-1.093 1.027-2.526 1.315-2.748 3.513-7.34 4.056-12.022.06-.544.089-1.097.085-1.644l-.279-48.645c-.035-5.528-1.834-11.123-4.935-15.356l-.025-.035-5.76-8.922 1.157-.861c3.647 4.272 9.204 6.823 14.866 6.823h.243c6.068-.067 13.155-3.726 16.838-8.7l1.178.843-6.681 9.667a29.8 29.8 0 0 0-5.175 16.968l.155 46.041c.01 2.388.243 4.763.691 7.049.95 4.783 2.205 8.223 3.637 9.948.604.737.55 1.813-.12 2.448-1.386 1.327-4.452 3.532-9.503 3.532" style="fill:#211d1d;fill-opacity:1;fill-rule:nonzero;stroke:none;stroke-width:.0352778" transform="translate(37.448 11.429)scale(.7907)"/><path d="M27.857 64.415c.067-19.49 39.511-24.207 51.343-24.154 12.644.053 49.548 4.96 49.548 24.2l-.162 1.471-8.164 11.783s-25.269 9.924-42.537 8.41C60.616 84.62 38.232 79.945 35.12 75.92c-3.112-4.03-7.264-11.505-7.264-11.505" style="fill:#f7f0f2;fill-opacity:1;fill-rule:nonzero;stroke:none;stroke-width:.0352778" transform="translate(37.448 11.429)scale(.7907)"/><path d="M28.584 64.228c.631 1.126 4.321 7.642 7.112 11.247 2.91 3.768 25.103 8.431 42.252 9.93 16.087 1.405 39.575-7.358 42.005-8.286l7.934-11.448.138-1.248c-.028-9.917-10.64-15.572-19.54-18.57-11.265-3.793-23.71-4.844-29.288-4.869-5.122-.01-17.974.935-29.86 4.717-9.39 2.984-20.577 8.621-20.753 18.527m53.114 22.783c-1.323 0-2.618-.053-3.877-.162C62.408 85.5 38.126 80.992 34.549 76.36c-3.111-4.022-7.154-11.286-7.323-11.593l-.092-.166v-.19c.028-8.625 7.556-15.575 21.763-20.09 12.061-3.839 25.096-4.82 30.303-4.788 5.666.025 18.31 1.094 29.747 4.946 13.426 4.52 20.528 11.43 20.528 19.981l-.007.081-.18 1.655-8.393 12.11-.208.082c-.963.377-22.165 8.622-38.989 8.622" style="fill:#211d1d;fill-opacity:1;fill-rule:nonzero;stroke:none;stroke-width:.0352778" transform="translate(37.448 11.429)scale(.7907)"/><path d="M121.199 76.996c-12.316 6.547-32.431 9.235-41.166 9.13-8.7-.103-32.258-2.615-45.16-10.736l-.13.067 8.513 12.898c8.862 3.238 22.659 6.353 34.188 6.646 14.442.37 27.379-3.005 35.048-5.584l8.742-12.316z" style="fill:#dfc5cc;fill-opacity:1;fill-rule:nonzero;stroke:none;stroke-width:.0352778" transform="translate(37.448 11.429)scale(.7907)"/><path d="M77.017 92.426c-11.53-.296-26.857-3.983-35.72-7.218l18.963 28.907c3.743 5.595 10.15 8.97 17.01 8.97h.244c6.544-.066 13.65-3.707 17.4-8.907l20.46-28.529c-7.7 3.239-23.915 7.144-38.357 6.777" style="fill:#9d546a;fill-opacity:1;fill-rule:nonzero;stroke:none;stroke-width:.0352778" transform="translate(37.448 11.429)scale(.7907)"/><path d="m36.888 77.39 23.975 36.326c3.62 5.412 9.754 8.647 16.408 8.647h.243c6.283-.067 13.201-3.606 16.813-8.608l24.79-34.925c-12.245 5.634-30.159 8.146-39.095 8.022-7.059-.085-29.213-2.035-43.134-9.461m40.383 46.423c-7.14 0-13.723-3.475-17.615-9.296L33.696 75.19l1.21-.635.352.223c12.352 7.77 35.504 10.515 44.782 10.624 8.12.085 28.43-2.459 40.816-9.049l.762-.405.417 1.277-26.53 37.373c-3.866 5.355-11.26 9.14-17.984 9.215zm51.477-58.626a.725.725 0 0 1-.723-.727c0-9.941-10.626-15.607-19.54-18.609-11.265-3.792-23.71-4.843-29.288-4.868-5.655-.028-18.253.857-29.648 4.307-9.341 2.83-20.485 8.301-20.52 18.299a.73.73 0 0 1-.727.723.727.727 0 0 1-.724-.727c.029-8.618 7.483-15.423 21.552-19.685 11.56-3.5 24.348-4.399 30.07-4.367 5.666.025 18.31 1.094 29.747 4.946 13.426 4.52 20.528 11.43 20.528 19.981a.726.726 0 0 1-.727.727" style="fill:#211d1d;fill-opacity:1;fill-rule:nonzero;stroke:none;stroke-width:.0352778" transform="translate(37.448 11.429)scale(.7907)"/><path d="M77.27 123.813c-7.14 0-13.722-3.475-17.614-9.296l-25.52-38.661-9.154-13.772a.727.727 0 0 1 .201-1.006.727.727 0 0 1 1.005.205l9.159 13.772 25.516 38.661c3.62 5.412 9.754 8.647 16.408 8.647h.243c6.283-.067 13.201-3.606 16.813-8.608l26.314-37.07 9.73-13.723a.725.725 0 1 1 1.182.836l-9.73 13.723-26.317 37.077c-3.867 5.355-11.26 9.14-17.985 9.215z" style="fill:#211d1d;fill-opacity:1;fill-rule:nonzero;stroke:none;stroke-width:.0352778" transform="translate(37.448 11.429)scale(.7907)"/><path d="M126.72 66.913h.004zM79.172 31.794c-4.335 0-8.76.205-13.151.614-4.16.388-8.876.825-13.05 1.676-3.788.772-7.718 2.247-11.186 3.549-.713.264-1.4.522-2.053.762-4.431 1.622-7.508 3.227-10.623 5.538-4.332 3.218-6.441 6.42-6.441 9.793 0 3.383 2.152 6.7 6.396 9.85 2.744 2.035 6.501 4.597 11.24 6.332 3.968 1.454 8.646 2.494 12.696 3.32 3.178.645 6.55.931 10.12 1.238q1.454.12 2.936.258c.667.06 1.372.127 2.095.197 3.923.381 8.372.808 12.164.808 4.438 0 7.694-.148 12.023-.55 4.738-.441 9.225-1.284 12.986-2.05 1.21-.247 2.508-.487 3.76-.72 3.62-.673 7.363-1.368 10.114-2.374 2.484-.91 5.482-2.572 7.066-3.686l6.788-6.185c1.915-2.074 2.501-3.584 2.501-6.438 0-3.44-2.113-6.752-6.276-9.846-2.854-2.116-6.703-4.07-11.444-5.806-3.662-1.341-7.895-2.505-12.573-3.458-3.662-.748-8.22-1.675-12.947-2.113-3.556-.331-8.258-.709-13.14-.709m1.143 45.385c-3.863 0-8.347-.434-12.301-.815-.723-.07-1.425-.138-2.092-.198A330 330 0 0 0 63 75.91c-3.616-.307-7.031-.6-10.29-1.263-4.104-.836-8.848-1.89-12.905-3.376-4.915-1.8-8.784-4.434-11.607-6.53-4.632-3.44-6.981-7.147-6.981-11.014 0-3.863 2.3-7.447 7.027-10.957 3.235-2.402 6.42-4.064 10.986-5.733.652-.24 1.337-.497 2.046-.762 3.517-1.319 7.503-2.815 11.405-3.609 4.248-.867 9.006-1.308 13.205-1.7 4.437-.413 8.907-.62 13.285-.62 4.943 0 9.691.38 13.275.715 4.805.445 9.405 1.383 13.102 2.135 4.752.97 9.053 2.152 12.781 3.52 4.872 1.782 8.845 3.803 11.811 6.005 4.551 3.38 6.862 7.083 6.862 11.006 0 3.221-.734 5.098-2.907 7.444l-.042.042-6.915 6.294c-1.693 1.2-4.794 2.92-7.443 3.89-2.865 1.049-6.668 1.754-10.347 2.439-1.305.24-2.54.469-3.736.712-3.8.776-8.333 1.627-13.141 2.075-4.375.405-7.67.557-12.157.557" style="fill:#211d1d;fill-opacity:1;fill-rule:nonzero;stroke:none;stroke-width:.0352778" transform="translate(37.448 11.429)scale(.7907)"/><path d="M60.807 61H59.35c-.23 0-.413-.162-.413-.366v-1.722c0-.201.183-.367.413-.367h1.457c.229 0 .412.166.412.367v1.722c0 .204-.183.367-.412.367m4.811 3.443-1.03-.893a.32.32 0 0 1 0-.5l.798-.689a.46.46 0 0 1 .582 0l1.03.893a.32.32 0 0 1 0 .5l-.797.689a.46.46 0 0 1-.583 0m6.562-.406-.533-.688a.755.755 0 0 1 .113-1.037.7.7 0 0 1 1.002.116l.533.692a.75.75 0 0 1-.113 1.033.7.7 0 0 1-1.002-.116m3.838 2.184-1.033-1.066a.437.437 0 0 1 0-.6l1.129-1.167a.403.403 0 0 1 .582 0l1.033 1.065a.437.437 0 0 1 0 .6l-1.132 1.168a.4.4 0 0 1-.579 0m4.392-1.694-.892-1.065a.49.49 0 0 1 0-.6l.526-.628a.314.314 0 0 1 .5 0l.89 1.066a.49.49 0 0 1 0 .6l-.523.627c-.14.166-.363.166-.5 0m2.247 1.986-.55-1.238a.385.385 0 0 1 .183-.504l1.383-.656a.364.364 0 0 1 .49.19l.547 1.235a.387.387 0 0 1-.18.504l-1.383.656a.365.365 0 0 1-.49-.187m6.692-3.189-1.034-1.065a.437.437 0 0 1 0-.6l.512-.529a.403.403 0 0 1 .582 0l1.033 1.065a.437.437 0 0 1 0 .6l-.515.53a.4.4 0 0 1-.578 0m-35.61-.42-1.435-.276a.425.425 0 0 1-.332-.493l.134-.738a.41.41 0 0 1 .48-.338l1.436.275c.222.042.37.264.328.494l-.134.737a.41.41 0 0 1-.477.339m31.955 4.314-.328-.339a.134.134 0 0 1 0-.19l.162-.17a.126.126 0 0 1 .184 0l.331.34c.05.052.05.14 0 .193l-.162.166a.13.13 0 0 1-.187 0m7.673-3.588-1.228-.818a.436.436 0 0 1-.12-.59l.6-.955a.403.403 0 0 1 .568-.127l1.224.822c.19.127.247.388.124.585l-.6.956a.403.403 0 0 1-.568.127m4.558 1.493-.65.08c-.098.015-.19-.06-.204-.165l-.056-.505a.18.18 0 0 1 .158-.208l.646-.08a.18.18 0 0 1 .205.161l.06.505c.01.106-.06.201-.16.212m-15.271-3.408-.649.08c-.099.015-.19-.06-.205-.165l-.056-.504a.187.187 0 0 1 .159-.212l.645-.081a.186.186 0 0 1 .205.166l.06.504a.19.19 0 0 1-.159.212m-33.51-.54-.646.081a.19.19 0 0 1-.204-.166l-.06-.504a.19.19 0 0 1 .162-.212l.645-.081a.19.19 0 0 1 .205.166l.06.504a.19.19 0 0 1-.162.212m41.448 4.219-.113-.582a.165.165 0 0 1 .123-.194l.423-.092a.164.164 0 0 1 .191.13l.116.58a.167.167 0 0 1-.127.197l-.423.088a.16.16 0 0 1-.19-.127m2.378-11.49-.117-.582a.165.165 0 0 1 .127-.194l.423-.092a.164.164 0 0 1 .19.13l.114.58c.017.091-.04.18-.124.197l-.423.088a.16.16 0 0 1-.19-.127M79.952 67.128l-.865-.578a.306.306 0 0 1-.084-.417l.423-.673a.28.28 0 0 1 .399-.089l.868.579a.303.303 0 0 1 .084.413l-.423.677a.285.285 0 0 1-.402.088m10.174-11.98-.868-.579a.307.307 0 0 1-.085-.416l.424-.674a.28.28 0 0 1 .398-.088l.868.579a.303.303 0 0 1 .085.412l-.423.678a.284.284 0 0 1-.4.088M71.856 66.486l.144-.67c.025-.102.124-.17.222-.145l.49.113a.193.193 0 0 1 .142.23l-.145.67c-.024.102-.123.17-.222.144l-.49-.112a.193.193 0 0 1-.141-.23m27.53-6.727.145-.67a.19.19 0 0 1 .226-.145l.487.113a.19.19 0 0 1 .14.23l-.144.67a.185.185 0 0 1-.222.144l-.49-.113a.196.196 0 0 1-.142-.23m-57.474.195.144-.667a.19.19 0 0 1 .226-.148l.487.116a.19.19 0 0 1 .141.23l-.145.666a.19.19 0 0 1-.222.149l-.49-.113a.2.2 0 0 1-.141-.233m26.342 3.03-.17-1.224a.42.42 0 0 1 .35-.48l1.446-.215c.222-.032.43.13.462.363l.17 1.221a.42.42 0 0 1-.35.48l-1.443.215a.416.416 0 0 1-.465-.36m-5.07-.677-1.224-.819a.43.43 0 0 1-.12-.585l.596-.96a.405.405 0 0 1 .568-.123l1.228.818c.19.127.243.392.12.586l-.6.96a.404.404 0 0 1-.568.123m-8.449-2.702-.307-1.584a.32.32 0 0 1 .24-.374l1.073-.22a.305.305 0 0 1 .36.248l.306 1.584a.316.316 0 0 1-.24.374l-1.072.222a.31.31 0 0 1-.36-.25M88.087 66.3l-1.888-.696a.43.43 0 0 1-.25-.543l.49-1.418a.41.41 0 0 1 .526-.258l1.887.695a.43.43 0 0 1 .25.544l-.49 1.421a.41.41 0 0 1-.525.254M61.64 64.387l-.7-1.323a.43.43 0 0 1 .163-.575l.324-.183a.4.4 0 0 1 .558.17l.698 1.322a.43.43 0 0 1-.162.575l-.325.184a.4.4 0 0 1-.557-.17m38.248-.723-.698-.836c-.11-.13-.036-.293.166-.363l.324-.117c.198-.07.448-.025.558.106l.698.836c.11.13.035.293-.166.363l-.324.117c-.198.07-.448.021-.558-.106m-32.6 2.554.004-.607c.003-.095.088-.137.197-.091l.173.07c.106.043.19.155.19.247l-.003.607c0 .095-.088.138-.194.092l-.173-.07c-.106-.043-.194-.156-.194-.248m21.421-9.388 1.337.177c.208.028.356.205.335.392l-.201 1.619c-.025.19-.212.325-.416.296l-1.341-.176c-.205-.028-.356-.205-.332-.392l.198-1.622c.025-.187.212-.321.42-.293m-5.006-2.343.84.963a.31.31 0 0 1-.057.473l-.811.55a.41.41 0 0 1-.53-.07l-.843-.963a.307.307 0 0 1 .057-.47l.811-.55a.415.415 0 0 1 .533.067m-7.768.127.698 1.217a.42.42 0 0 1-.13.554l-.477.307a.37.37 0 0 1-.522-.13l-.695-1.217a.416.416 0 0 1 .127-.554l.477-.31a.367.367 0 0 1 .522.133m-1.027 3.581.822 1.125c.13.177.099.43-.067.565l-1.171.963a.37.37 0 0 1-.533-.07l-.822-1.126a.42.42 0 0 1 .07-.564l1.172-.964a.365.365 0 0 1 .53.071m-4.598-1.834.692 1.11a.464.464 0 0 1-.07.565l-.551.526a.287.287 0 0 1-.459-.06l-.691-1.111a.46.46 0 0 1 .07-.561l.55-.53a.29.29 0 0 1 .46.06m2.543-1.689.36 1.224a.37.37 0 0 1-.226.455l-1.34.448a.335.335 0 0 1-.427-.236l-.36-1.225a.37.37 0 0 1 .225-.455l1.341-.448c.18-.06.37.046.427.237m-7.733 1.108.822 1.125a.42.42 0 0 1-.067.564l-.533.438a.37.37 0 0 1-.532-.07l-.822-1.13a.416.416 0 0 1 .07-.56l.53-.438a.363.363 0 0 1 .532.07m5.556-4.102.261.36c.043.052.032.134-.02.18l-.17.137a.116.116 0 0 1-.17-.021l-.26-.36a.13.13 0 0 1 .02-.18l.17-.141a.117.117 0 0 1 .17.025m-10.203 2.335 1.027.917a.42.42 0 0 1 .045.568l-.66.826a.366.366 0 0 1-.536.05l-1.026-.918a.415.415 0 0 1-.042-.565l.66-.829a.365.365 0 0 1 .532-.049m-14.012 2.632h.6c.095 0 .169.08.169.18l-.004.483a.175.175 0 0 1-.173.176h-.6c-.095 0-.169-.08-.169-.18l.004-.48c.003-.102.077-.18.173-.18m17.19-4.084.04.557a.16.16 0 0 1-.142.17l-.395.031c-.085.007-.155-.056-.162-.145l-.036-.557a.155.155 0 0 1 .138-.17l.399-.035a.156.156 0 0 1 .158.149m28.47 3.139.038.561c.004.085-.056.163-.137.17l-.399.031a.15.15 0 0 1-.159-.144l-.038-.558a.155.155 0 0 1 .137-.169l.399-.035c.081-.007.152.06.159.144M67.94 58.492l.726.65a.294.294 0 0 1 .032.398l-.469.586a.26.26 0 0 1-.377.035l-.724-.65a.294.294 0 0 1-.031-.398l.465-.585a.257.257 0 0 1 .378-.036m-16.207-2.109.727.645a.3.3 0 0 1 .028.402l-.466.583a.257.257 0 0 1-.377.035l-.727-.65A.29.29 0 0 1 50.89 57l.466-.582a.254.254 0 0 1 .377-.035m43.914 3.107.674 1.338c.106.204.331.3.504.204l1.482-.797c.173-.095.226-.339.123-.547l-.677-1.337c-.106-.208-.332-.3-.505-.204l-1.478.797c-.173.092-.229.339-.123.547m8.156 3.856 1.436-.276a.423.423 0 0 0 .328-.494l-.13-.737a.414.414 0 0 0-.48-.338l-1.436.275a.423.423 0 0 0-.328.494l.134.737a.41.41 0 0 0 .476.339m4.597-1.729.645.081c.1.014.19-.06.205-.166l.06-.504a.187.187 0 0 0-.162-.208l-.646-.081a.183.183 0 0 0-.204.162l-.06.504a.19.19 0 0 0 .162.212m7.232-1.221-.148-.67a.184.184 0 0 0-.223-.145l-.487.113a.19.19 0 0 0-.14.23l.144.67c.021.102.123.17.222.145l.49-.113a.196.196 0 0 0 .142-.23m-12.432-.169.307-1.58a.316.316 0 0 0-.24-.374l-1.073-.223a.305.305 0 0 0-.36.25l-.306 1.581a.314.314 0 0 0 .24.374l1.072.222a.305.305 0 0 0 .36-.25m-7.296 4.6.699-1.323a.43.43 0 0 0-.166-.575l-.324-.183a.405.405 0 0 0-.558.17l-.698 1.322a.436.436 0 0 0 .165.579l.325.183c.198.11.448.035.557-.173m1.165-10.375-1.03.917a.423.423 0 0 0-.043.568l.66.826a.366.366 0 0 0 .536.05l1.027-.918a.415.415 0 0 0 .042-.565l-.66-.829a.365.365 0 0 0-.532-.049m14.011 2.632-.599.003a.17.17 0 0 0-.17.177l.005.483c0 .099.077.18.173.18l.6-.004c.095 0 .169-.08.169-.18l-.007-.48c0-.098-.074-.18-.17-.18m-5.271-.26-.726.649a.29.29 0 0 0-.029.398l.466.586c.095.12.265.134.378.032l.726-.646a.3.3 0 0 0 .029-.402l-.466-.582a.257.257 0 0 0-.378-.035m-26.109-3.775-.211.61a.174.174 0 0 1-.223.113l-.434-.166a.19.19 0 0 1-.102-.232l.212-.614a.17.17 0 0 1 .219-.11l.437.166a.186.186 0 0 1 .102.233m-1.711 7.807-.211.614a.175.175 0 0 1-.223.11l-.433-.167a.186.186 0 0 1-.103-.233l.212-.61a.17.17 0 0 1 .219-.113l.437.166a.19.19 0 0 1 .102.233m23.192-5.496-.208.61a.175.175 0 0 1-.222.11l-.434-.166a.186.186 0 0 1-.103-.233l.212-.61a.17.17 0 0 1 .219-.114l.434.166a.184.184 0 0 1 .102.237M80.76 57.6l.014 1.167c.003.223-.166.406-.374.41l-1.348.024c-.211.007-.38-.169-.384-.391l-.014-1.171a.396.396 0 0 1 .374-.41l1.347-.024a.386.386 0 0 1 .385.395m3.926 1.058 1.027.917c.158.141.18.395.042.565l-.66.829a.365.365 0 0 1-.532.05l-1.03-.918a.423.423 0 0 1-.043-.568l.66-.825a.366.366 0 0 1 .536-.05m9.334-.264.096 1.524c.01.165-.106.31-.265.32l-1.005.082c-.155.014-.293-.113-.304-.279l-.095-1.524a.296.296 0 0 1 .261-.321l1.01-.078a.286.286 0 0 1 .303.276M66.48 52.647l1.647.878a.413.413 0 0 1 .165.54l-.613 1.277a.374.374 0 0 1-.512.18l-1.647-.882a.413.413 0 0 1-.166-.54l.614-1.277a.37.37 0 0 1 .511-.176m20.719 1.443.487 1.326a.413.413 0 0 1-.219.522l-.318.134c-.194.081-.412-.02-.49-.229l-.487-1.326a.414.414 0 0 1 .215-.523l.321-.13c.195-.085.413.018.49.226m-2.871-2.008-.074.572c-.01.088-.095.116-.187.06l-.152-.085c-.091-.056-.158-.17-.148-.257l.074-.568c.015-.092.096-.12.19-.064l.153.085c.091.056.158.17.144.257" style="fill:#793919;fill-opacity:1;fill-rule:nonzero;stroke:none;stroke-width:.0352778" transform="translate(37.448 11.429)scale(.7907)"/></svg>