<svg xmlns="http://www.w3.org/2000/svg" xml:space="preserve" width="200mm" height="200mm" viewBox="0 0 200 200"><g style="display:inline"><path d="M4226.66 34154.2c0-6387.6 23861.04-6559.4 23835.84 0-25.6 6647-23835.84 6266.3-23835.84 0" style="fill:#fff;fill-opacity:1;fill-rule:nonzero;stroke:none" transform="matrix(.00375 0 0 -.00375 38.64 199.802)"/><path d="M16399.7 38847.7c-21.6 0-42.8 0-64.4-.1-3082.9-5.9-6094.3-453.9-8262.11-1229.2-1164.57-416.5-2073.22-915.7-2700.73-1483.7-660.74-598.1-995.77-1264.4-995.77-1980.5 0-1049 680.08-1972.4 2021.36-2744.5 2267.66-1305.3 6074.05-1959.9 9859.85-1960 3735.3 0 7450.5 637 9650.4 1914.6 1334 774.8 2008.3 1713.2 2004.1 2789.3-7 1835-1940.8 2925.9-3561.7 3518-2077.7 758.9-4899.4 1176.1-7951 1176.1m-128.1-9698.9c-37.6 0-75.1.1-112.7.2-1927.1 6.6-3835.2 182.9-5517.9 509.8-872.26 169.4-1682.05 378.6-2406.93 621.8-756.97 253.9-1425.07 546.3-1985.72 869.1-686.07 394.9-1217.99 839.1-1580.98 1320.2-391.99 519.6-590.75 1086.3-590.75 1684.3 0 804.4 368.24 1545.6 1094.47 2203 656.83 594.6 1599.24 1113.9 2801.05 1543.8 1122.79 401.5 2437.86 714.1 3908.76 929 1422.8 207.9 2921.2 314.8 4453.8 317.7 1507.2 2.8 2965.7-95.1 4336.4-291.4 1430.6-204.8 2703.2-508.6 3782.5-902.8 2453-896 3752.8-2209.6 3758.9-3798.7 2.4-611.8-193.3-1189.1-581.7-1716.1-360-488.4-888.8-937.2-1571.8-1333.8-558.6-324.4-1225.2-616.8-1981.2-869.1-722.9-241.1-1531.6-447.1-2403.7-612.1-1643.4-311-3509.1-474.9-5402.5-474.9" style="fill:#211d1d;fill-opacity:1;fill-rule:nonzero;stroke:none" transform="matrix(.00375 0 0 -.00375 38.64 199.802)"/><path d="M4391.47 33577.4c0-6387.7 23861.03-6559.4 23835.83 0-25.5 6647-23835.83 6266.3-23835.83 0" style="fill:#ce3d49;fill-opacity:1;fill-rule:nonzero;stroke:none" transform="matrix(.00375 0 0 -.00375 38.64 199.802)"/><path d="M16564.4 38297.3h-64.4c-3085.8-6-6100.4-454.6-8270.91-1230.8-1167.84-417.7-2079.47-918.6-2709.56-1489-666.51-603.3-1004.46-1276.3-1004.46-2000.1 0-1059.2 684.54-1990.2 2034.6-2767.4 2112.61-1216.1 5766.83-1950.4 9774.93-1964.2 4019.9-13.5 7669.2 703.6 9761.8 1918.9 1342.7 779.8 2021.5 1726 2017.3 2812.2-7.1 1850.2-1950.3 2947.8-3579.1 3542.7-2080.6 760-4905.5 1177.7-7960.2 1177.7m-128-9698.9c-37.5 0-75 .1-112.6.2-1925.5 6.7-3831.9 182.8-5513 509.3-871.08 169.2-1679.73 378.1-2403.51 620.9-755.32 253.4-1421.8 545.1-1980.95 867-682.97 393.1-1212.23 835-1573.06 1313.2-388.45 514.9-585.42 1076.2-585.42 1668.4 0 796.6 365.31 1531.2 1085.77 2183.4 654.25 592.2 1593.69 1109.8 2792.21 1538.5 1121.14 400.9 2434.56 713.1 3903.76 927.7 1421.5 207.7 2918.6 314.5 4449.9 317.5 1505.2 2.8 2963.2-95.1 4332.6-291.2 1428.8-204.5 2699.7-507.9 3777.3-901.5 2441.6-891.8 3735.4-2196.9 3741.5-3773.9 2.3-606-191.7-1178.1-576.6-1700.3-357.8-485.5-883.9-931.9-1563.8-1326.7-557-323.5-1221.9-615.1-1976.3-866.8-721.7-240.8-1529.3-446.4-2400.2-611.2-1641.8-310.7-3505.8-474.5-5397.6-474.5" style="fill:#211d1d;fill-opacity:1;fill-rule:nonzero;stroke:none" transform="matrix(.00375 0 0 -.00375 38.64 199.802)"/><path d="M5806.81 34840.2s2266.08 1812.9 4078.93 2389.7c1812.86 576.8 1895.26 1895.2 3172.46 1977.6 1277.3 82.4 1585.6 694.2 2739.9 576.9 598.6-60.9 1153.9-400.4 1709.9-535.7 573-139.4 1228-222.2 1771.6-515 1071.3-576.8 2235.2-731.3 3182.9-1266.9 947.6-535.6 113.3-2503 937.3-2750.2s1194.8-947.6 1194.8-947.6z" style="fill:#ce3d49;fill-opacity:1;fill-rule:nonzero;stroke:none" transform="matrix(.00375 0 0 -.00375 38.64 199.802)"/><path d="M24594.7 33645.3c-44.3 0-87.1 23.9-109.3 65.8-3.4 6.4-359.4 658.6-1121.1 887.1-224.6 67.4-368.5 238.9-439.8 524.4-57.4 229.6-63.2 506.3-69.3 799.2-12.4 587.6-25.1 1195.2-453.6 1437.4-462.7 261.5-976.8 429.6-1521.2 607.7-547.5 179-1113.6 364.1-1659.4 658-397.2 213.9-863 312.8-1313.5 408.4-142.1 30.2-289.1 61.4-428.7 95.3-235.5 57.3-472 150.4-700.7 240.4-322.3 126.9-655.5 258.1-992.5 292.4-591.6 60.2-944.9-79-1354.1-240.1-354.5-139.6-756.3-297.8-1365.3-337.1-585.5-37.8-897.9-354.3-1293.5-754.9-424.3-429.7-905.2-916.8-1849.48-1217.2-730.01-232.3-1658.99-714.7-2686.53-1395.1-779.85-516.4-1347.03-968.8-1352.67-973.3-53.31-42.7-131.09-34-173.73 19.3s-33.99 131.1 19.31 173.7c5.7 4.6 579.97 462.7 1368.6 985.1 1062.09 703.4 1987.35 1183.2 2750.07 1425.9 886.23 281.9 1344.33 745.9 1748.53 1155.3 415.4 420.7 774.1 784.1 1453.5 827.9 570.3 36.8 936.5 181 1290.6 320.4 420.9 165.7 818.5 322.3 1469.7 256 370.8-37.7 720.2-175.2 1058.1-308.2 231.1-91 449.4-177 668.5-230.3 136.1-33.1 274.8-62.5 421.6-93.7 467.5-99.2 951-201.8 1379.5-432.5 526.3-283.5 1081.8-465.1 1618.9-640.8 556.4-181.9 1082-353.8 1566.1-627.4 551-311.4 565.9-1021.2 579-1647.4 13.1-621.2 42-1004.7 333-1092 863.6-259.1 1252.4-977.7 1268.6-1008.2 31.9-60.3 8.9-135.1-51.4-167.1-18.5-9.7-38.3-14.4-57.8-14.4" style="fill:#211d1d;fill-opacity:1;fill-rule:nonzero;stroke:none" transform="matrix(.00375 0 0 -.00375 38.64 199.802)"/><path d="M16135.1 2200.2c-697.8 0-1379.6 25.4-2030.4 87.7-705.3 67.7-1376.4 194.2-2004.7 326.1-712.2 149.6-1358.1 366.5-1940.2 586.1-718.35 271.1-1327.7 576.1-1791.28 930.8-651.61 498.7-996.2 1060.9-996.2 1664.7 0 603.9 356.43 1150.4 1007.95 1649.1 463.57 354.8 1051.44 704.2 1784.03 934.2 1427 448.1 586.1 236.9 1945.4 551.7 625.6 144.9 1293.3 268.7 1998.7 336.3 650.8 62.3 1329 112.6 2026.7 112.6s1377.4-35.5 2028.2-97.8c705.4-67.6 1386.4-135 2014.7-266.9 712.2-149.6 1369.2-353.8 1951.3-573.4 718.3-271 1290.5-650.1 1754.1-1004.9 651.6-498.7 1033.4-1037 1033.4-1640.9 0-603.8-374.6-1151.4-1026.1-1650.1-463.6-354.8-1034.6-746.4-1753-1017.5-582.1-219.6-1251.9-379.8-1964.2-529.4-628.4-132-1309.8-170.8-2015.2-238.4-650.8-62.4-1325.6-160-2023.2-160" style="fill:#fcfefe;fill-opacity:1;fill-rule:nonzero;stroke:none" transform="matrix(.00375 0 0 -.00375 38.64 199.802)"/><path d="M16135.1 9225c-747.7 0-1468-59.8-2011.9-111.9-620.8-59.5-1268-168.4-1978.6-333-177.7-41.2-317.9-73.3-430.4-99.2-450.5-103.4-450.5-103.4-659.2-174.5-135.3-46.2-361.9-123.4-844.5-274.9-616.61-193.7-1200.8-499.7-1736.31-909.5-628.63-481.1-947.36-994.7-947.36-1526.4 0-548.1 314.77-1066.9 935.59-1542 429.96-329 1003.03-626.3 1751.98-908.9 730.5-275.7 1321.9-454.4 1917.4-579.5 575.8-120.9 1262.3-253.9 1987.6-323.5 611.4-58.6 1270.7-87 2015.7-87 517.6 0 1028 55.2 1521.7 108.6 160.1 17.3 325.6 35.2 486.7 50.7 151.8 14.5 304 27.9 451.2 40.8 546.3 47.9 1062.3 93.2 1547 195 620 130.2 1335.5 294.1 1941.5 522.8 721.5 272.3 1294.7 675.1 1713.6 995.6 640.7 490.4 965.5 1004.3 965.5 1527.4 0 520.6-318.2 1017.2-972.8 1518.2-371.9 284.6-954.2 696.1-1714.8 983.1-641.1 241.9-1289.9 432.5-1928.5 566.6-638.2 134.1-1360.4 203.3-1997.6 264.4-672.7 64.5-1350.1 97.1-2013.5 97.1m0-7179.3c-754.9 0-1423.9 28.9-2045.1 88.4-740.5 71-1437.5 206-2021.7 328.7-611.6 128.5-1217.1 311.3-1963 592.8-777.59 293.4-1376.4 605-1830.68 952.7-341.64 261.4-604.38 542.6-780.92 835.8-183.06 304.1-275.88 624.2-275.88 951.5 0 325.3 95.19 643.4 282.93 945.6 176.87 284.6 441.2 562.6 785.62 826.2 564.22 431.8 1180.46 754.4 1831.63 958.9 479 150.4 703.3 226.9 837.3 272.6 223.7 76.2 232.5 78.2 689.8 183.2 112.3 25.8 252.3 57.9 429.7 99 724 167.7 1384.4 278.8 2018.9 339.6 550.8 52.8 1280.6 113.3 2041.4 113.3 673.2 0 1360.6-33.1 2043-98.5 645.2-61.9 1376.6-132 2031.6-269.5 654-137.4 1318.2-332.5 1974.1-580 798.8-301.4 1406.1-730.4 1793.5-1026.8 353.8-270.8 614.5-538.9 796.7-819.5 197.3-303.8 297.3-621.4 297.3-944.1 0-323.7-98.6-642.5-293-947.5-179.7-282.1-446.8-559.7-793.7-825.3-435.7-333.4-1033.1-752.8-1792.4-1039.3-625.5-236.1-1355.5-403.5-1987-536.1-502.8-105.6-1027.7-151.7-1583.5-200.5-146.6-12.8-298.1-26.1-448.7-40.5-159.2-15.3-323.8-33.1-483-50.3-501.8-54.3-1020.7-110.4-1554.9-110.4" style="fill:#211d1d;fill-opacity:1;fill-rule:nonzero;stroke:none" transform="matrix(.00375 0 0 -.00375 38.64 199.802)"/><path d="M13958.6 22184.7 11416 25965l8680-1096.1-1814.8-2831.2c-655-847.1-1051.4-1968.7-1058.4-3117l-58.4-9605.4c-.6-114.2 5-228.4 18.8-341.7 164.5-1344.7 1041.4-2652.4 1059.3-2867.8 18.9-226.4-754.8-736-2189.1-754.8-1037.9-13.7-1660.7 417.4-1925.7 656.7-83.8 75.6-86.9 203.7-12.6 288.7 399.1 455.8 649.7 1354.5 789.8 2028.5 97.1 466.9 145.2 942.3 146.9 1419.2l33.2 9090.3c7.3 1193.7-348.8 2376.7-1126.4 3350.3" style="fill:#e6f6f4;fill-opacity:1;fill-rule:nonzero;stroke:none" transform="matrix(.00375 0 0 -.00375 38.64 199.802)"/><path d="M14083.3 22276.1c388-486.9 683.9-1037.3 879.7-1636 187.3-572.8 280.3-1180.6 276.5-1806.7l-33.2-9089.9c-1.8-491.7-52.3-979.5-150.1-1450-143.8-692-403.7-1617.8-824.8-2098.9-17.4-19.9-22.2-52.4-.2-72.3 261.3-235.9 844.9-629.7 1820.2-616.8 732.5 9.6 1230.1 147.5 1518.5 261.6 341.3 134.9 492.7 278.6 516.8 332-17 59.5-104.8 233.3-182.8 387.6-282.4 559-754.9 1494.4-874 2468.1-14 114.2-20.7 235.9-20 361.5l58.4 9605.3c3.6 582.6 102.7 1161.6 294.6 1720.7 187.7 547 454.1 1046.4 791.9 1484.5l1679.1 2619.5-8100 1022.8zm1921.6-17079.9c-1050.6 0-1690.6 434.7-1980.8 696.8-146.4 132.2-157.4 354.1-25.2 505.1 376.9 430.6 618.5 1302.6 754.8 1958.3 93.5 450.2 141.9 917.3 143.6 1388.2l33.2 9090.3c7.5 1224.2-370.4 2349.1-1092.6 3253.4l-4 4.9-3.5 5.3-2732.4 4062.3 9260.1-1169.3-1950.5-3042.9-4.1-5.4c-645.6-834.9-1019.6-1936.9-1026.2-3023.5l-58.3-9605.3c-.7-112.5 5.2-220.9 17.6-322.1 112.6-920 569.9-1825.3 843.1-2366.2 148.7-294.3 209.3-417.3 216.8-507.4 7.4-88.7-31-180-114-271.4-146.8-161.7-421.1-314.4-772.3-430.2-416.5-137.3-919.5-213.6-1454.8-220.6-16.9-.2-33.8-.3-50.5-.3" style="fill:#211d1d;fill-opacity:1;fill-rule:nonzero;stroke:none" transform="matrix(.00375 0 0 -.00375 38.64 199.802)"/><path d="M27776.1 39208.8c-265.9-174.6-531.7-349.2-797.5-523.8-25-16.5-16.3-55.8 13.4-59.7 420.1-55 849.2-42.8 1265.7 35.6 35.5 6.7 53.8-41.3 22.7-59.8-734-435.2-1667.8-506-2465.6-196.2l-2.1-4c-560.5 295.2-1199.2 594.2-1634.9 809l2.3 4.7c-261.2 216.4-342 483.5-433.4 718.9-11.3 29.1 21 55.6 47.4 39 186.5-117.1 373-234.2 559.4-351.3 26.5-16.6 59.2 10.3 47.4 39.2-148.7 364-203.9 766-158.8 1156.6 3.5 30.1 43.3 38.3 59.5 12.6 303.3-479.7 698-901.4 1157.1-1235.1 18.2-13.3 44.4-4.2 50.6 17.5 104.5 364 209.1 728.2 313.6 1092.3 10.2 35.5 62.4 29 63.6-8 10.5-332.7 21.1-665.3 31.6-998 6.4-205 30-442.2 201.3-554.9 102.8-67.6 233.9-70.7 357-67.4 430.1 11.9 858.8 76.2 1273.7 190.7 35.5 9.8 56.8-37.7 26-57.9" style="fill:#307956;fill-opacity:1;fill-rule:nonzero;stroke:none" transform="matrix(.00375 0 0 -.00375 38.64 199.802)"/><path d="M27776.1 39208.8h.1zm-1942.6-667.2 29.9-11.5c552-214.3 1179.1-234.7 1745.8-72-211.7-4.9-423.6 6.5-634.6 34.1-69.7 9.1-124.9 59.3-140.6 128-15.8 68.8 12 138.3 70.9 177 110.9 72.9 221.8 145.7 332.7 218.6-250.4-42.2-503.7-67-757.5-74-138.9-3.8-298.3-.2-434.5 89.4-246 161.8-256.6 500.2-261.7 662.9l-11.1 349.2-134.4-468.4c-15.1-52.3-54.8-94.1-106.3-111.8s-108.4-9.2-152.4 22.8c-386.4 280.9-734.1 628.9-1018.2 1017.4 5.6-271.1 60.9-540.4 163.7-792.2 27.4-66.9 8.5-143.3-47-189.9-55.7-46.8-134.5-52.3-196-13.7l-294.3 184.8c61.8-133.3 143-262.5 277.8-374.2l5.4-4.5c117.9-57.9 250.4-122 389.8-189.4 368.7-178.3 784.8-379.6 1172.6-582.6m1010.9-461.1c-330.4 0-658.9 53.7-966.2 158.4l-10.1-18.9-118 62.1c-395.5 208.3-826.1 416.6-1206.1 600.3-153.5 74.3-298.4 144.4-425.6 207l-119.5 58.9 16.6 34.3c-203.8 200.7-289.7 427.6-366.5 630.4-9.2 24.2-18.3 48.2-27.5 71.8-26 67.1-6.3 142.9 49.1 188.8 55.6 45.8 133.9 50.9 194.9 12.6l316.5-198.7c-84.5 306.4-109.8 628.2-73.2 944.9 8 69.7 59.4 127 127.9 142.6 68.9 15.7 140.6-13.9 178.4-73.7 266.5-421.5 612.4-802.9 1005.9-1110.3l272.9 950.3c22.8 79.4 98.7 129.7 180.8 119.4 82-10.2 143.4-77.6 146-160.2l31.6-998c5.9-187.9 27-372 140.9-446.9 71.2-46.8 177.2-48.1 279.6-45.4 419 11.6 836.8 74.2 1241.5 185.9 79.6 22 162-16.6 195.9-91.6 34.1-75.2 8.7-162.6-60.4-207.9-185.1-121.6-370.3-243.2-555.4-364.8 313.7-17.8 628.2 2.6 938.4 61.1 79.7 15 158.3-29.2 186.9-105.1s-1.2-160.9-70.8-202.2c-376.9-223.4-815-360.3-1266.8-395.8-79.2-6.2-158.5-9.3-237.7-9.3" style="fill:#211d1d;fill-opacity:1;fill-rule:nonzero;stroke:none" transform="matrix(.00375 0 0 -.00375 38.64 199.802)"/><path d="M26711.1 37868.5c880.9-641 1305.6-1826.8 1244.8-2914.5-62.5-1122-1172.2-1926.5-2028.5-2654.7-856-728.1-1889.3-1209.9-2908.8-1683.1-449.5-208.6-908.3-420.2-1400.2-481.7-491.9-61.6-1031 49.7-1374.4 407.2-529.6 551.4-420.1 1434-274.8 2184.6 264.3 1366.3 529 2732.4 793.4 4098.6 123 636.5 257 1297.9 647.5 1815.2 588.6 779.9 1757.3 1078.3 2629.6 638.5 43.2-21.7 89.2-44.7 138.1-68.7 435.7-214.8 1074.4-513.8 1634.9-809 354.3-186.6 677.1-371.3 898.4-532.4" style="fill:#b61d23;fill-opacity:1;fill-rule:nonzero;stroke:none" transform="matrix(.00375 0 0 -.00375 38.64 199.802)"/><path d="M23155.8 39357.7c-624.9 0-1265.3-286.3-1647.1-792.1-381.4-505.3-510.7-1174.1-624.8-1764.1-133.9-692.2-267.9-1384.2-401.9-2076.3-130.5-674.1-261-1348.2-391.5-2022.4-152.5-788-228.7-1584.8 242.7-2075.4 284-295.8 758.8-434.2 1269.9-370.3 476.7 59.7 927.5 268.9 1363.4 471.2 998.9 463.6 2031.8 943 2880.8 1665.2 87.7 74.5 175.8 148 269.1 225.9 779.4 650.3 1662.9 1387.3 1716.1 2341.5 63.3 1131.7-405.5 2233.8-1194.1 2807.7-192.7 140.2-481.6 311.3-883.3 523-395.7 208.3-826.4 416.6-1206.5 600.4-153.4 74.3-298.4 144.4-425.5 207-49 24.2-95.8 47.5-139.1 69.3-254.7 128.4-539.9 189.4-828.2 189.4m-1794.5-9363c-483.2 0-921.3 164.6-1206.4 461.4-260.7 271.4-399.7 630.1-424.8 1096.6-21.9 405.8 47.2 832.9 117.7 1197.1 130.5 674.2 261 1348.3 391.5 2022.4 134 692.1 268 1384.1 401.9 2076.2 119.2 616.4 254.3 1315.1 670.2 1866.2 303.3 401.8 757 693.8 1277.5 822.2 525.4 129.5 1060.3 77.1 1506.4-147.8 42.6-21.4 88.7-44.4 137.1-68.2 126.3-62.3 270.8-132.2 423.9-206.2 381.8-184.7 814.6-394 1214-604.3 412.4-217.3 711.2-394.5 913.5-541.8 437.4-318.3 789.1-782.7 1017.3-1343.2 214-525.5 310.2-1105.9 278.2-1678.2-59.1-1061.4-986.4-1835-1804.6-2517.6-92.8-77.4-180.5-150.6-267.2-224.3-874.6-744-1923-1230.5-2936.9-1701.1-453.1-210.3-921.7-427.8-1436.8-492.3-91.9-11.5-183-17.1-272.5-17.1" style="fill:#211d1d;fill-opacity:1;fill-rule:nonzero;stroke:none" transform="matrix(.00375 0 0 -.00375 38.64 199.802)"/><path d="M22505.1 36915.7c-47.6-134-95.4-268.2-142.9-402.2z" style="fill:#fff;fill-opacity:1;fill-rule:nonzero;stroke:none" transform="matrix(.00375 0 0 -.00375 38.64 199.802)"/><path d="M22362.2 36379.2c-15 0-30.1 2.5-45 7.8-69.8 24.8-106.4 101.6-81.6 171.5 24.6 69.2 49.2 138.5 73.9 207.8l69 194.3c24.9 69.9 101.6 106.4 171.5 81.6s106.4-101.5 81.6-171.4l-69.1-194.5c-24.6-69.2-49.2-138.5-73.8-207.7-19.5-55-71.3-89.4-126.5-89.4" style="fill:#211d1d;fill-opacity:1;fill-rule:nonzero;stroke:none" transform="matrix(.00375 0 0 -.00375 38.64 199.802)"/><path d="M22967.2 35408.4c-39.6-99.1-79.5-198-119.1-297.1z" style="fill:#fff;fill-opacity:1;fill-rule:nonzero;stroke:none" transform="matrix(.00375 0 0 -.00375 38.64 199.802)"/><path d="M22848.1 34977c-16.6 0-33.5 3.1-49.8 9.6-68.9 27.5-102.4 105.7-74.9 174.5 19.9 49.7 39.8 99.2 59.7 148.8 19.8 49.4 39.7 98.8 59.5 148.3 27.5 68.9 105.6 102.4 174.5 74.9 68.8-27.6 102.4-105.7 74.8-174.6-19.8-49.6-39.7-99.1-59.6-148.7-19.9-49.4-39.7-98.8-59.5-148.3-21-52.5-71.4-84.5-124.7-84.5" style="fill:#211d1d;fill-opacity:1;fill-rule:nonzero;stroke:none" transform="matrix(.00375 0 0 -.00375 38.64 199.802)"/><path d="M25986.7 36297.3c-52.6-88.3-105.3-176.6-157.6-264.6z" style="fill:#fff;fill-opacity:1;fill-rule:nonzero;stroke:none" transform="matrix(.00375 0 0 -.00375 38.64 199.802)"/><path d="M25829 35898.4c-23.4 0-47 6.1-68.6 18.9-63.7 37.9-84.6 120.3-46.7 184 52.4 88.1 105 176.4 157.6 264.7 38 63.7 120.4 84.6 184.1 46.7 63.7-38 84.6-120.4 46.6-184.1-52.6-88.3-105.2-176.6-157.5-264.6-25.1-42.2-69.8-65.6-115.5-65.6" style="fill:#211d1d;fill-opacity:1;fill-rule:nonzero;stroke:none" transform="matrix(.00375 0 0 -.00375 38.64 199.802)"/><path d="M25116.8 36802.7c-47.4-75.8-95.1-151.6-142.8-227.1z" style="fill:#fff;fill-opacity:1;fill-rule:nonzero;stroke:none" transform="matrix(.00375 0 0 -.00375 38.64 199.802)"/><path d="M24973.9 36441.3c-24.6 0-49.4 6.7-71.7 20.8-62.6 39.6-81.3 122.5-41.7 185.2 47.6 75.4 95.2 151 142.5 226.6 39.4 62.9 122.2 82 185.1 42.6 62.8-39.3 81.9-122.2 42.5-185-47.5-76-95.3-151.9-143.1-227.6-25.6-40.4-69.1-62.6-113.6-62.6" style="fill:#211d1d;fill-opacity:1;fill-rule:nonzero;stroke:none" transform="matrix(.00375 0 0 -.00375 38.64 199.802)"/><path d="M27062.7 34899.4c-32.7-38.5-65.7-77.2-98.4-115.7z" style="fill:#fff;fill-opacity:1;fill-rule:nonzero;stroke:none" transform="matrix(.00375 0 0 -.00375 38.64 199.802)"/><path d="M26964.3 34649.4c-30.8 0-61.6 10.5-86.9 31.9-56.5 48.1-63.4 132.8-15.4 189.3l98.3 115.7c48 56.6 132.8 63.5 189.3 15.4 56.5-48 63.4-132.7 15.4-189.2l-98.3-115.8c-26.6-31.2-64.4-47.3-102.4-47.3" style="fill:#211d1d;fill-opacity:1;fill-rule:nonzero;stroke:none" transform="matrix(.00375 0 0 -.00375 38.64 199.802)"/><path d="M25872.2 33750c-151.1-142.3-151.1-142.3-302.5-284.7z" style="fill:#fff;fill-opacity:1;fill-rule:nonzero;stroke:none" transform="matrix(.00375 0 0 -.00375 38.64 199.802)"/><path d="M25569.7 33331c-35.7 0-71.4 14.2-97.8 42.3-50.8 54-48.2 139 5.8 189.8 151.3 142.3 151.3 142.3 302.4 284.7 54 50.8 139 48.3 189.8-5.7 50.9-53.9 48.3-138.9-5.6-189.8-151.2-142.4-151.2-142.4-302.6-284.8-25.9-24.4-59-36.5-92-36.5" style="fill:#211d1d;fill-opacity:1;fill-rule:nonzero;stroke:none" transform="matrix(.00375 0 0 -.00375 38.64 199.802)"/><path d="M23905 32630.5c-208.1-161-127.5-98.7-335.6-259.5z" style="fill:#fff;fill-opacity:1;fill-rule:nonzero;stroke:none" transform="matrix(.00375 0 0 -.00375 38.64 199.802)"/><path d="M23569.5 32236.7c-40.1 0-79.8 18-106.3 52.2-45.3 58.7-34.5 143 24.2 188.4l76.1 58.8c89.4 69.1 89.4 69.1 170 131.5l89.3 69.1c58.6 45.3 143 34.6 188.3-24.1 45.4-58.6 34.7-142.9-24-188.3l-89.2-69.1c-80.7-62.5-80.7-62.5-170.2-131.6l-76.2-58.8c-24.4-18.9-53.3-28.1-82-28.1" style="fill:#211d1d;fill-opacity:1;fill-rule:nonzero;stroke:none" transform="matrix(.00375 0 0 -.00375 38.64 199.802)"/><path d="M21825.7 31510.9c43.7 51.5 87.5 103 131.3 154.3z" style="fill:#fff;fill-opacity:1;fill-rule:nonzero;stroke:none" transform="matrix(.00375 0 0 -.00375 38.64 199.802)"/><path d="M21825.6 31376.7c-30.7 0-61.6 10.4-86.9 31.9-56.5 48-63.4 132.7-15.4 189.3 43.9 51.6 87.7 103.1 131.6 154.5 48.1 56.4 132.9 63 189.3 14.8 56.4-48.1 63-132.9 14.8-189.3-43.6-51.1-87.3-102.5-131-153.9-26.6-31.3-64.3-47.3-102.4-47.3" style="fill:#211d1d;fill-opacity:1;fill-rule:nonzero;stroke:none" transform="matrix(.00375 0 0 -.00375 38.64 199.802)"/><path d="M24366 33787.6c55.8 51.9 111.9 103.6 168.1 155.6z" style="fill:#fff;fill-opacity:1;fill-rule:nonzero;stroke:none" transform="matrix(.00375 0 0 -.00375 38.64 199.802)"/><path d="M24366 33653.3c-36 0-71.9 14.4-98.3 42.8-50.5 54.3-47.5 139.3 6.8 189.8q54.6 50.7 109.5 101.4l58.8 54.4c54.4 50.4 139.4 47.1 189.8-7.3s47.1-139.4-7.3-189.7l-59.1-54.6c-36.3-33.6-72.6-67.2-108.8-100.8-25.8-24.1-58.6-36-91.4-36" style="fill:#211d1d;fill-opacity:1;fill-rule:nonzero;stroke:none" transform="matrix(.00375 0 0 -.00375 38.64 199.802)"/><path d="M21529.6 33330.2c47.4 90.3 94.4 180.8 141.5 271.1z" style="fill:#fff;fill-opacity:1;fill-rule:nonzero;stroke:none" transform="matrix(.00375 0 0 -.00375 38.64 199.802)"/><path d="M21529.5 33195.9c-21 0-42.3 4.9-62.2 15.4-65.7 34.4-91 115.5-56.6 181.2 34.5 65.8 68.8 131.7 103.1 197.5l38.2 73.4c34.3 65.7 115.4 91.3 181.1 57 65.8-34.3 91.3-115.4 57-181.1l-38.2-73.4c-34.3-66-68.8-132.1-103.3-198-24-45.8-70.7-72-119.1-72" style="fill:#211d1d;fill-opacity:1;fill-rule:nonzero;stroke:none" transform="matrix(.00375 0 0 -.00375 38.64 199.802)"/><path d="M22955.3 33739.4c27.3 32.4 54.6 64.5 81.9 96.6z" style="fill:#fff;fill-opacity:1;fill-rule:nonzero;stroke:none" transform="matrix(.00375 0 0 -.00375 38.64 199.802)"/><path d="M22955.3 33605.1c-30.6 0-61.3 10.4-86.4 31.6-56.8 47.8-64 132.5-16.3 189.2 27.4 32.5 54.8 64.8 82.3 97.1 48 56.5 132.7 63.4 189.2 15.3 56.5-48 63.4-132.7 15.4-189.2-27.2-32-54.3-63.9-81.4-96.2-26.6-31.5-64.6-47.8-102.8-47.8" style="fill:#211d1d;fill-opacity:1;fill-rule:nonzero;stroke:none" transform="matrix(.00375 0 0 -.00375 38.64 199.802)"/><path d="M22116.5 38720.2c-33.6-110.8-67.1-221.8-100.6-332.5z" style="fill:#fff;fill-opacity:1;fill-rule:nonzero;stroke:none" transform="matrix(.00375 0 0 -.00375 38.64 199.802)"/><path d="M22015.9 38253.4c-12.9 0-26 1.9-39 5.8-70.9 21.5-111 96.5-89.5 167.4l100.6 332.5c21.5 71 96.5 111.1 167.4 89.6 71-21.5 111.1-96.5 89.6-167.5l-100.6-332.4c-17.6-58-70.9-95.4-128.5-95.4" style="fill:#211d1d;fill-opacity:1;fill-rule:nonzero;stroke:none" transform="matrix(.00375 0 0 -.00375 38.64 199.802)"/><path d="M21394.9 35328.2c-45-105.7-90-211.2-135-316.7z" style="fill:#fff;fill-opacity:1;fill-rule:nonzero;stroke:none" transform="matrix(.00375 0 0 -.00375 38.64 199.802)"/><path d="M21259.8 34877.2c-17.6 0-35.4 3.5-52.6 10.8-68.2 29.2-99.9 108-70.8 176.2l8.6 20.2c42.1 98.7 84.3 197.4 126.4 296.4 29 68.2 107.9 100 176.1 71 68.2-29.1 100-107.9 71-176.2q-63.3-148.5-126.6-296.7l-8.5-20.1c-21.8-51-71.4-81.6-123.6-81.6" style="fill:#211d1d;fill-opacity:1;fill-rule:nonzero;stroke:none" transform="matrix(.00375 0 0 -.00375 38.64 199.802)"/><path d="M20740.5 32750.5c-30.7-140.1-43.6-199.3-74.2-339.5z" style="fill:#fff;fill-opacity:1;fill-rule:nonzero;stroke:none" transform="matrix(.00375 0 0 -.00375 38.64 199.802)"/><path d="M20666.4 32276.7c-9.5 0-19.2 1.1-28.8 3.2-72.5 15.8-118.3 87.4-102.5 159.8l74.2 339.5c15.8 72.4 87.4 118.3 159.8 102.5 72.5-15.8 118.4-87.4 102.5-159.9l-74.2-339.4c-13.7-62.8-69.3-105.7-131-105.7" style="fill:#211d1d;fill-opacity:1;fill-rule:nonzero;stroke:none" transform="matrix(.00375 0 0 -.00375 38.64 199.802)"/><path d="M23604.5 38012.1c-39.7-81.8-79.3-164-119-245.8z" style="fill:#fff;fill-opacity:1;fill-rule:nonzero;stroke:none" transform="matrix(.00375 0 0 -.00375 38.64 199.802)"/><path d="M23485.4 37632c-19.6 0-39.6 4.3-58.4 13.4-66.8 32.4-94.7 112.7-62.3 179.4l58 119.9c20.3 42 40.6 84 61 126 32.3 66.7 112.6 94.6 179.4 62.3 66.7-32.4 94.6-112.7 62.2-179.4-20.3-41.9-40.6-83.9-60.9-125.8l-58-120.1c-23.3-47.9-71.1-75.7-121-75.7" style="fill:#211d1d;fill-opacity:1;fill-rule:nonzero;stroke:none" transform="matrix(.00375 0 0 -.00375 38.64 199.802)"/><path d="M24826.5 35454.2c-66.3-65.2-132.9-130.4-199.3-195.8z" style="fill:#fff;fill-opacity:1;fill-rule:nonzero;stroke:none" transform="matrix(.00375 0 0 -.00375 38.64 199.802)"/><path d="M24627.2 35124.1c-34.6 0-69.3 13.3-95.5 40-52.1 52.7-51.6 137.8 1.2 189.8 46.1 45.6 92.4 91 138.6 136.3l60.9 59.8c52.9 52 137.9 51.2 189.9-1.7s51.2-137.9-1.7-189.9l-61-59.8c-46-45.2-92.1-90.4-138-135.8-26.2-25.8-60.3-38.7-94.4-38.7" style="fill:#211d1d;fill-opacity:1;fill-rule:nonzero;stroke:none" transform="matrix(.00375 0 0 -.00375 38.64 199.802)"/><path d="m26114.5 34824.5 160.2 245.7z" style="fill:#fff;fill-opacity:1;fill-rule:nonzero;stroke:none" transform="matrix(.00375 0 0 -.00375 38.64 199.802)"/><path d="M26114.4 34690.2c-25.2 0-50.6 7-73.2 21.8-62.1 40.5-79.7 123.7-39.2 185.8l160.2 245.7c40.5 62.1 123.7 79.7 185.8 39.2 62.2-40.5 79.7-123.7 39.2-185.8l-160.2-245.8c-25.8-39.4-68.8-60.9-112.6-60.9" style="fill:#211d1d;fill-opacity:1;fill-rule:nonzero;stroke:none" transform="matrix(.00375 0 0 -.00375 38.64 199.802)"/><path d="M27290 36300.4c-11.1-12.8-21.9-25.5-32.9-38.5z" style="fill:#fff;fill-opacity:1;fill-rule:nonzero;stroke:none" transform="matrix(.00375 0 0 -.00375 38.64 199.802)"/><path d="M27257 36127.6c-30.7 0-61.6 10.5-86.9 31.9-56.5 48-63.4 132.8-15.4 189.3 11.4 13.4 22.5 26.5 34 39.7 48.6 55.9 133.4 61.9 189.4 13.2 56-48.6 61.9-133.4 13.3-189.4-10.8-12.4-21.3-24.7-32-37.3-26.6-31.3-64.4-47.4-102.4-47.4" style="fill:#211d1d;fill-opacity:1;fill-rule:nonzero;stroke:none" transform="matrix(.00375 0 0 -.00375 38.64 199.802)"/><path d="M24932 32176.4c78.8 60.2 157.7 120.5 236.5 180.8z" style="fill:#fff;fill-opacity:1;fill-rule:nonzero;stroke:none" transform="matrix(.00375 0 0 -.00375 38.64 199.802)"/><path d="M24932.1 32042.1c-40.4 0-80.4 18.1-106.8 52.7-45.1 58.9-33.8 143.2 25.1 188.2l236.6 180.9c58.9 45 143.2 33.8 188.2-25.2 45-58.9 33.8-143.1-25.1-188.2l-236.6-180.8c-24.3-18.6-53-27.6-81.4-27.6" style="fill:#211d1d;fill-opacity:1;fill-rule:nonzero;stroke:none" transform="matrix(.00375 0 0 -.00375 38.64 199.802)"/><path d="M23124.3 31221.4c45.6 27.7 91.1 55.3 136.8 83z" style="fill:#fff;fill-opacity:1;fill-rule:nonzero;stroke:none" transform="matrix(.00375 0 0 -.00375 38.64 199.802)"/><path d="M23124.4 31087.1c-45.4 0-89.7 23-115 64.7-38.4 63.4-18.2 146 45.3 184.4l136.8 83.1c63.4 38.4 146 18.1 184.4-45.3s18.2-146-45.3-184.4l-136.8-83c-21.7-13.2-45.7-19.5-69.4-19.5" style="fill:#211d1d;fill-opacity:1;fill-rule:nonzero;stroke:none" transform="matrix(.00375 0 0 -.00375 38.64 199.802)"/><path d="M21958 30767.5c27.8 26.3 55.6 52.5 83.3 78.7z" style="fill:#fff;fill-opacity:1;fill-rule:nonzero;stroke:none" transform="matrix(.00375 0 0 -.00375 38.64 199.802)"/><path d="M21958 30633.3c-35.6 0-71.2 14.1-97.6 42-50.9 54-48.5 138.9 5.4 189.9l83.3 78.6c53.9 50.9 138.9 48.5 189.8-5.4 51-53.9 48.5-138.9-5.4-189.8l-83.3-78.7c-25.9-24.5-59.1-36.6-92.2-36.6" style="fill:#211d1d;fill-opacity:1;fill-rule:nonzero;stroke:none" transform="matrix(.00375 0 0 -.00375 38.64 199.802)"/><path d="M24011 36679.1c-15.5-31.1-31-62-46.5-93.2z" style="fill:#fff;fill-opacity:1;fill-rule:nonzero;stroke:none" transform="matrix(.00375 0 0 -.00375 38.64 199.802)"/><path d="M23964.4 36451.6c-20.1 0-40.5 4.5-59.8 14.1-66.3 33-93.4 113.7-60.3 180 7.8 15.7 15.6 31.3 23.4 46.9 7.7 15.4 15.4 30.9 23.1 46.4 33.1 66.3 113.7 93.4 180.1 60.3 66.3-33 93.4-113.6 60.3-180-7.8-15.7-15.6-31.3-23.4-46.9-7.7-15.4-15.4-30.8-23.1-46.3-23.5-47.2-71-74.5-120.3-74.5" style="fill:#211d1d;fill-opacity:1;fill-rule:nonzero;stroke:none" transform="matrix(.00375 0 0 -.00375 38.64 199.802)"/><path d="M21533.2 37248.8c-33.4-93-66.5-185.9-99.9-278.8z" style="fill:#fff;fill-opacity:1;fill-rule:nonzero;stroke:none" transform="matrix(.00375 0 0 -.00375 38.64 199.802)"/><path d="M21433.3 36835.7c-15.1 0-30.4 2.5-45.4 7.9-69.8 25.1-106.1 102-81 171.8 17 47.4 34 94.8 51 142.3l48.9 136.5c25 69.7 101.9 106 171.7 80.9 69.8-25 106.1-101.9 81-171.7-16.3-45.4-32.5-90.8-48.8-136.2-17-47.5-34-95.1-51.1-142.6-19.6-54.8-71.3-88.9-126.3-88.9" style="fill:#211d1d;fill-opacity:1;fill-rule:nonzero;stroke:none" transform="matrix(.00375 0 0 -.00375 38.64 199.802)"/><path d="M24936.7 38299.8c-29.8-74.3-59.6-148.6-89.6-222.7z" style="fill:#fff;fill-opacity:1;fill-rule:nonzero;stroke:none" transform="matrix(.00375 0 0 -.00375 38.64 199.802)"/><path d="M24847 37942.8c-16.8 0-33.9 3.1-50.4 9.9-68.8 27.8-101.9 106.2-74 174.9 29.9 73.5 59.4 147.3 89 221l.4 1.2c27.6 68.8 105.8 102.2 174.6 74.7 68.8-27.6 102.3-105.8 74.7-174.6l-.4-1.1c-29.7-74.2-59.4-148.3-89.4-222.2-21.2-52.2-71.5-83.8-124.5-83.8" style="fill:#211d1d;fill-opacity:1;fill-rule:nonzero;stroke:none" transform="matrix(.00375 0 0 -.00375 38.64 199.802)"/><path d="M26620.1 37251.6c6.8-83.2 13.6-166.4 20.4-249.9z" style="fill:#fff;fill-opacity:1;fill-rule:nonzero;stroke:none" transform="matrix(.00375 0 0 -.00375 38.64 199.802)"/><path d="M26640.3 36867.4c-69.2 0-128 53.2-133.7 123.4l-20.3 249.9c-6 73.9 49 138.7 122.9 144.8 74.1 5.9 138.8-49.1 144.8-123l20.3-249.9c6-73.9-49.1-138.7-123-144.7-3.7-.3-7.4-.5-11-.5" style="fill:#211d1d;fill-opacity:1;fill-rule:nonzero;stroke:none" transform="matrix(.00375 0 0 -.00375 38.64 199.802)"/><path d="M23387.6 38802.2c63.6 29.2 126.9 58.3 190.5 87.4z" style="fill:#fff;fill-opacity:1;fill-rule:nonzero;stroke:none" transform="matrix(.00375 0 0 -.00375 38.64 199.802)"/><path d="M23387.6 38667.9c-50.9 0-99.5 29.1-122.1 78.4-30.9 67.4-1.3 147.1 66.1 178l190.6 87.4c67.4 30.9 147.1 1.3 178-66.1 30.9-67.5 1.3-147.1-66.1-178l-190.6-87.4c-18.1-8.3-37.2-12.3-55.9-12.3" style="fill:#211d1d;fill-opacity:1;fill-rule:nonzero;stroke:none" transform="matrix(.00375 0 0 -.00375 38.64 199.802)"/><path d="M20763.8 30979.1c23.9 97 47.8 194 71.7 291.1z" style="fill:#fff;fill-opacity:1;fill-rule:nonzero;stroke:none" transform="matrix(.00375 0 0 -.00375 38.64 199.802)"/><path d="M20763.9 30844.8c-10.6 0-21.4 1.3-32.2 3.9-72 17.8-116 90.5-98.3 162.5l71.7 291.1c17.8 72 90.5 116 162.5 98.2 72-17.7 116-90.4 98.3-162.4l-71.7-291.1c-15.1-61.2-69.9-102.2-130.3-102.2" style="fill:#211d1d;fill-opacity:1;fill-rule:nonzero;stroke:none" transform="matrix(.00375 0 0 -.00375 38.64 199.802)"/><path d="m10002 28177.9 2533.8-3249.6c782.4-1029.6 2263.2-1749 3627.8-1763.8 1451.1-14.9 2808.3 655.1 3598.1 1776.2l2384.3 3074c3281.9 1047 6051.6 3378.5 6352.1 6645.2 16.1 175.4-196.1 275.1-319.5 149.4-565.6-575.8-1254.3-1182.1-1801.6-1703.3-648.9-618.1-1246.3-1050.7-2163.1-1483.3-764.4-360.8-1627.8-573.5-2595.6-776.2-854.1-180.5-1779.9-232.4-2737.9-325.1-883.7-84.1-1800.9-216.3-2748.9-216.3-948.1 0-1873.9 34.6-2758.9 118.6-957.9 91.5-1868.9 263.3-2723 443.8-967.8 202.7-1845.36 496.9-2636.45 796-975.22 368.3-1803.36 782.4-2432.52 1264.5-699.62 535.3-939.59 762.4-1240.38 1261.3-42.43 70.4-151.21 38.8-149.37-43.4 78.21-3498.5 2560.2-4884 5811.12-5968" style="fill:#fff;fill-opacity:1;fill-rule:nonzero;stroke:none" transform="matrix(.00375 0 0 -.00375 38.64 199.802)"/><path d="M4356.37 33878.4c184.29-3096.6 2323.34-4429.9 5694.43-5554l44.3-14.7 2563.7-3287.9c751.1-988.3 2193-1688.5 3506.5-1702.8 15.5-.2 31.1-.3 46.5-.3 1390.2 0 2667.2 637.3 3423.6 1711l4.2 5.7 2413.8 3111.9 45.7 14.6c3642.3 1161.9 5976.9 3596.4 6245.1 6512.1.6 5.9 2.2 23.7-19.2 33.7-20.4 9.4-31.9-2.3-36.2-6.7-368.3-374.9-783.7-758.3-1185.4-1129.1-219.7-202.9-427.3-394.4-619.8-577.8-705.7-672.1-1323.6-1095.8-2203.7-1511.1-749.1-353.5-1593.1-570.6-2630-787.8-675.3-142.6-1381.8-204.9-2129.8-270.7-204.1-18-415.1-36.6-624.8-56.9-218.1-20.7-443.2-45-660.9-68.4-679.1-73.1-1381.3-148.6-2102.9-148.6-1020.7 0-1927.9 39-2773.5 119.3-1009.2 96.4-1951.6 279.8-2740.3 446.4-1077.81 225.8-2033.86 566.2-2659.19 802.7-1052.31 397.4-1860.88 818.2-2471.85 1286.3-595.56 455.8-869.76 695.8-1130.29 1073.1M16210.2 23009.7c-16.1 0-32.1.1-48.2.3-692.4 7.5-1417.9 186.3-2098.1 516.9-681.4 331.2-1252 783.1-1650.4 1307.1l-2504.73 3212.1c-907.32 304-1621.09 587.5-2242.98 890.7-753.26 367.4-1362.2 761.2-1861.63 1204-1152.16 1021.7-1730.39 2330.6-1767.75 4001.7-2.41 107.9 65.71 200.6 169.49 230.7 103.8 30.1 210.95-11.7 266.67-104.1 292.7-485.5 519.2-696 1201.96-1218.4 586.71-449.6 1369.51-856 2393.21-1242.7 615.76-232.8 1556.55-567.9 2613.56-789.3 780.6-164.9 1712.2-346.3 2706-441.2 835.7-79.3 1733.4-117.9 2744.2-117.9 705 0 1398.9 74.7 2069.9 146.9 218.6 23.5 444.6 47.8 664.4 68.7 210.8 20.4 422.5 39 627.2 57.1 738.4 65 1435.9 126.4 2093.3 265.3 1015.7 212.8 1839.9 424.2 2561.7 764.8 847.7 400.1 1442.8 808.1 2122.5 1455.4 194.3 185.1 402.7 377.5 623.3 581.1 399 368.3 811.5 749.1 1174.6 1118.7 102.3 104.2 254 131.8 386.5 70.4 133.1-61.7 210.5-196.1 197-342.3-74.5-810.3-301.2-1592.6-673.9-2325.1-350.8-689.6-831.7-1337.5-1429.6-1925.8-1109.2-1091.7-2598.7-1959.9-4309.6-2512.6L19886 24848.8c-402.2-569.8-957.8-1040.3-1607-1360.7-634.6-313.3-1349-478.3-2068.8-478.4" style="fill:#211d1d;fill-opacity:1;fill-rule:nonzero;stroke:none" transform="matrix(.00375 0 0 -.00375 38.64 199.802)"/><path d="m10002 27436.2 2533.8-3249.5c782.4-1029.6 2263.2-1749 3627.8-1763.8 1451.1-14.9 2808.3 655.1 3598.1 1776.1l2384.3 3074.1c3452.3 1101.3 6252.9 3593.1 6293.7 7130.7-538.7-753.3-662.3-1124.1-1898.3-2159.3-687-575.4-1354.5-1019.7-2271.2-1452.3-764.5-360.8-1684.1-484.6-2651.9-687.4-854.1-180.4-1779.9-232.3-2737.9-325-883.7-84.1-1800.9-216.3-2748.9-216.3-948.1 0-1873.9 34.6-2758.9 118.6-957.9 91.5-1868.9 263.3-2723 443.8-967.8 202.7-1845.36 496.8-2636.45 796-975.22 368.3-1803.36 782.4-2432.52 1264.4-810.85 620.5-1271.89 1312.7-1343.57 2055.6-216.93-3855.2 2421.39-5690.8 5764.94-6805.7" style="fill:#b61d23;fill-opacity:1;fill-rule:nonzero;stroke:none" transform="matrix(.00375 0 0 -.00375 38.64 199.802)"/><path d="M4360.54 33389.8c165.23-2739.2 1992.2-4606.4 5680.56-5836.3l35.4-11.8 2557.7-3280.2c756.5-995.4 2208.3-1700.7 3530.8-1715.1 15.5-.1 31.2-.2 46.8-.2 1400.2 0 2686.7 642.2 3448.9 1724l3.4 4.6 2407.8 3104.4 36.6 11.6c3676.8 1173 5958.7 3616.9 6188.7 6589.7-9.7-14.4-19.3-28.7-29-43-354.3-524.7-634.2-939.1-1647.4-1787.8-738.2-618.1-1425.4-1057.6-2297.9-1469.3-620.6-292.9-1333.8-431.7-2088.8-578.7-192.5-37.4-391.6-76.2-590.5-117.8-673.6-142.4-1379.2-204.5-2126.2-270.3-204.2-18-415.2-36.6-625.1-56.9-218.2-20.7-443.4-44.9-661.2-68.4-678.3-73-1379.7-148.4-2099.6-148.4-1019.7 0-1925.9 39-2770.6 119.2-1007.6 96.2-1948.9 279.3-2736.8 445.8-1075.77 225.3-2030.29 565.3-2654.66 801.4-1049.45 396.3-1855.44 815.7-2463.98 1281.9-532.58 407.6-915.28 843-1144.92 1301.6M16210.1 22299c-15.9 0-31.8.1-47.8.3-687.9 7.4-1408.8 185.1-2084.9 513.8-677.1 329.1-1244 778-1639.4 1298.1l-2510.61 3219.6c-896.69 300.8-1658.03 624.3-2326.39 988.5-759.33 413.7-1400.36 886.8-1905.27 1406-556.81 572.5-972.53 1225.6-1235.61 1940.9-283.03 769.6-399.6 1638.5-346.47 2582.6l246.44 4.9c67.6-700.5 503.52-1363 1295.66-1969.2 589.14-451.4 1374.52-859.3 2401.07-1247 616.71-233.2 1559.03-568.8 2618.18-790.7 781.3-165.1 1714.1-346.6 2709.4-441.6 836.7-79.5 1735.3-118.1 2747.1-118.1 706.7 0 1401.4 74.7 2073.2 147 218.5 23.5 444.5 47.8 664 68.7 210.7 20.4 422.3 39 627 57.1 739.4 65.1 1437.8 126.6 2097 265.9 200.8 42 400.8 81 594.2 118.6 739.4 143.9 1437.8 279.8 2030.5 559.5 852.3 402.3 1523.6 831.5 2244.6 1435.4 986.6 826.3 1257.9 1228 1601.4 1736.6 84.5 125.1 171.9 254.5 275.7 399.8l228.7 319.8-4.6-393.1c-10-872.5-186.7-1713.3-525.1-2499.2-318.8-740.2-781.7-1434.4-1376.1-2063.3-1104.3-1168.4-2639.5-2092.1-4441.8-2672.8l-2359.1-3041.6c-399.2-565.8-951-1033.1-1595.7-1351.4-630.5-311.2-1340.1-475.1-2055.3-475.1" style="fill:#211d1d;fill-opacity:1;fill-rule:nonzero;stroke:none" transform="matrix(.00375 0 0 -.00375 38.64 199.802)"/><path d="M15201.1 26299.9c-1021.8 0-1829.7 83.2-2371.5 163.5-763.9 113.2-1173.4 242.9-1190.4 248.4-81.3 26-126.1 113-100 194.3 26 81.2 113 126 194.3 99.9 3.9-1.2 409.2-129 1151.4-238.5 685-100.9 1805.2-206.4 3252.1-135.4 2380.6 116.7 3870.7 323.4 4701.6 476.3 902.3 165.9 1244.5 306.1 1247.9 307.5 78.6 32.8 169.1-4.2 202.1-82.7 32.9-78.5-3.7-168.9-82.1-202-14.3-6.1-361.4-150.3-1285.1-321.8-842.1-156.3-2353.1-367.4-4769.3-486-334.4-16.4-651.9-23.5-951-23.5" style="fill:#211d1d;fill-opacity:1;fill-rule:nonzero;stroke:none" transform="matrix(.00375 0 0 -.00375 38.64 199.802)"/><path d="M19197.2 33521.7s-1936.4 1936.5-3646.3 1854.1c-980.9-47.3-2389.6-1369.9-2945.9-1339-556.2 30.9-2008.5-370.8-2008.5-370.8z" style="fill:#ce3d49;fill-opacity:1;fill-rule:nonzero;stroke:none" transform="matrix(.00375 0 0 -.00375 38.64 199.802)"/><path d="M19197.2 33398.1c-31.6 0-63.2 12.1-87.3 36.2-4.8 4.8-486.6 483.7-1167.7 945.6-620.1 420.5-1537.4 913.4-2385.3 872.4-507.5-24.4-1159.2-425.5-1734.1-779.3-522.7-321.6-935.5-575.7-1224.6-559.6-529.9 29.4-1954.5-362.6-1968.8-366.6-65.8-18.2-133.9 20.4-152.1 86.2s20.4 133.9 86.2 152.1c60.1 16.6 1478.5 406.8 2048.4 375.1 211.8-11.8 653.8 260.2 1081.3 523.3 600.3 369.5 1280.8 788.2 1851.8 815.8 408 19.6 859.8-69.1 1343.2-263.8 381.5-153.6 784.1-373.5 1196.5-653.6 699.5-474.9 1179.8-952.6 1199.9-972.7 48.3-48.3 48.3-126.6 0-174.9-24.1-24.1-55.7-36.2-87.4-36.2" style="fill:#211d1d;fill-opacity:1;fill-rule:nonzero;stroke:none" transform="matrix(.00375 0 0 -.00375 38.64 199.802)"/></g></svg>