<svg xmlns="http://www.w3.org/2000/svg" xml:space="preserve" width="200mm" height="200mm" viewBox="0 0 200 200"><defs><clipPath id="a" clipPathUnits="userSpaceOnUse"><path d="M15061 7471.4h.3zm-1 0c-43.9.1-87.9 6-131.9 15 44-9 88-14.9 131.9-15m145.2 24.2c1.3.5 2.7 1 4 1.5-1.3-.5-2.7-1-4-1.5m-804.6 775.5c-175.8 0-347.5 5.3-511.4 18.5-28.6 2.3-56.9 5-85 7.9 36.3 109.1 81.6 188.5 129.4 272.1 36.6 64.2 74.5 130.5 112.3 215.7l3 6.8-.1 7.4c-.6 101.9-138.8 225-422.5 376.3-201 107.3-404.5 189.8-406.6 190.6l-10.6 4.3-11.1-3c-90.9-24.1-374.6-455.2-434.8-601.3-19.9-48.4-50-121.5-22.5-193.8 6.3-16.7 15-31.9 25.5-45.8-125.5 45.9-234.1 96.5-321.9 153-78.1 50.2-138.6 103.5-180.7 159.3l-11.2 224.2-2.7 49c-.1 6.2-.5 12.4-.8 18.1l-1.2 26.6-.1 1.6q-.3 2.4-.3 4.8c-.1 2.5-.3 4.9-.5 7.3l-1.1 21.8c0 2.2-.1 4.4-.2 6.5-.1.9-.2 1.7-.2 2.6l-.1 3.3c-.2 1.5-.2 3-.3 4.4-.1 2.4-.3 4.7-.5 6.8l-54.5 1078.5h9.2l-12 45.8c-6.7 25.6-10.1 51.4-10.1 76.5 0 81.2 94.1 223.1 126.6 257.4l3 3.2c68.5 72.4 171.9 181.8 680.4 361.8 482.9 171 943.3 177.3 947.9 177.3h1.3c125 5.5 247.7 7 345.5 7 121.4 0 204.5-2.4 206-2.4h1.1c82.9 0 147.5-1.8 216-6.1 53.4-3.3 105-7.9 170.3-13.6l41.6-3.7c53-4.6 109.3-9.6 163.7-14.8 99.1-9.7 228.6-23.8 351.5-47.3 164.7-31.4 332.2-76.2 497.6-133 184.7-63.5 358-170.5 470.9-249.2 158-110 222.4-207.6 222.4-336.6 0-9.9-.7-20.4-2.3-33.1l-.9-7.6 2.2-7.3c.8-2.7 1.1-5.1.9-7.5-26.2-436.2-57-897.9-86.9-1344.5-4.3-64.9-8.6-129.8-12.9-194.4-42.6-48.5-99.4-95-168.8-139.7-7.4-4.7-15-9.6-22.6-14.4-.1 3.4-.5 6.8-1.3 10.2 1.6 9.4.3 19.1-4 27.9-88.9 182.8-411.7 562.2-440.3 591.3-26.8 27.3-128.5 50.2-371.5 99.9-87.9 17.9-178.3 36.4-252.4 54-21.6 10.8-45.6 18.2-72.2 19.6-3.2.2-6.3.2-9.5.2-83 0-156.5-59.4-219.2-115.4l-409.9-365.8c-66.4-59.3-86.3-110.4-76-195.4 6.8-56.2 185-320.7 329.5-499.1-131.1-11.9-265.8-24.7-404.1-24.7"/></clipPath><clipPath id="b" clipPathUnits="userSpaceOnUse"><path d="M15061 7471.4h-1c-43.9.1-87.9 6-131.9 15-29.6 172.6-181.2 395.6-305.7 578.8-36.2 53.2-70.4 103.5-96.1 144.9-7.9 12.8-20.8 21.2-35.5 23.4-7.7 4.8-16.6 7.4-25.9 7.4-2.4 0-4.8-.2-7.3-.5-220.5-32.7-735.5-236.2-776.6-255.7-37.3-17.5-101.8-110.2-251.2-333.5-3.8-5.7-7.7-11.4-11.5-17.1-46.1 37-90.2 71.8-140 84.3-377.6 50.3-686.4 169.7-989 336.9l-7.6 423.2-18.1 360.6c42.1-55.8 102.6-109.1 180.7-159.3 87.8-56.5 196.4-107.1 321.9-153 40.1-53.5 107-88.7 173.6-120.3l506.8-240.6c57.4-27.2 120.5-52.2 179.3-52.2 27.3 0 53.7 5.4 78.2 18.5 58.9 31.6 78.4 95.4 91.3 137.6 2.8 9.5 5.8 18.7 8.8 27.7 28.1-2.9 56.4-5.6 85-7.9 163.9-13.2 335.6-18.5 511.4-18.5 138.3 0 273 12.8 404.1 24.7 33.3-41.2 64.8-77.8 92-106.1l4.9-5.1 6.5-2.8c12.6-5.3 26.3-8.7 41.2-10.1 125.6-55.4 468.6-197.7 675.3-197.7 36.4 0 68.6 4.4 94.6 14.5 161.6 62.7 346.5 309.8 495.1 508.3 38.5 51.5 75 100.2 105.6 138.2 7.9 9.7 11.9 21.5 11.6 33.4 7.6 4.8 15.2 9.7 22.6 14.4 69.4 44.7 126.2 91.2 168.8 139.7-5.1-76.3-10.2-152.4-15.2-228.1-.1-1.6-.5-5.9-.8-12.9-13.6-206.3-27.9-425.5-41.6-646-148.4-82.3-319.5-149.7-454.3-217.1-248.4-110.4-524.4-138-800.5-220.9-.4-.1-.8-.3-1.3-.4-1.3-.5-2.7-1-4-1.5-48-17.2-96-24.2-143.9-24.2z"/></clipPath></defs><path d="M.883 211.783c0 3.993 2.875 7.708 8.311 11.007 3.87 2.342 8.954 4.36 14.948 6.152 4.854 1.453 10.244 2.886 16.185 3.873 5.242.875 10.84 1.711 16.725 2.16 5.43.412 11.12.578 16.94.578s11.452-.646 16.881-1.058c5.884-.448 11.571-.702 16.813-1.577 5.941-.988 11.53-2.046 16.387-3.5 5.994-1.792 10.756-4.381 14.626-6.727 5.436-3.295 7.186-6.41 7.186-10.404 0-3.99-1.81-8.057-7.246-11.352-3.87-2.346-8.643-4.854-14.637-6.646a134 134 0 0 0-16.28-3.79c-5.243-.874-10.922-1.319-16.807-1.767a226 226 0 0 0-16.922-.645c-5.821 0-11.48.331-16.91.744-5.883.448-11.433 1.351-16.675 2.223-5.94.991-11.373 2.197-16.231 3.647-5.994 1.796-11.014 3.832-14.884 6.178-5.436 3.298-8.41 6.91-8.41 10.904" style="fill:#e6da3f;fill-opacity:1;fill-rule:nonzero;stroke:none;stroke-width:.0352778" transform="translate(59.037 53.684)scale(.5178)"/><path d="M73.993 189.367c-6.248 0-12.267.395-16.81.741-5.599.424-10.813 1.253-16.563 2.209-5.983.994-11.391 2.212-16.076 3.612-6.047 1.806-10.954 3.842-14.588 6.043-5.171 3.136-7.793 6.438-7.793 9.81 0 3.48 2.59 6.817 7.695 9.914 3.594 2.18 8.389 4.149 14.65 6.022 6.107 1.824 11.05 3.009 16.03 3.838 4.813.8 10.549 1.683 16.613 2.141 5.108.388 10.615.579 16.842.579 4.335 0 8.604-.367 12.731-.72 1.362-.116 2.713-.233 4.05-.335q1.902-.14 3.771-.271c4.562-.318 8.873-.618 12.93-1.292 5.186-.864 11.165-1.95 16.231-3.464 6.04-1.806 10.83-4.473 14.33-6.597 5.454-3.305 6.569-6.113 6.569-9.31 0-4.198-2.17-7.553-6.63-10.262-3.107-1.884-7.972-4.607-14.34-6.509a132 132 0 0 0-16.122-3.757c-5.334-.885-11.37-1.344-16.696-1.75a223 223 0 0 0-16.824-.642m0 47.463c-6.29 0-11.864-.19-17.036-.582-6.163-.47-11.97-1.358-16.838-2.17-5.09-.846-10.132-2.053-16.344-3.912-6.474-1.933-11.459-3.99-15.244-6.286-5.923-3.592-8.925-7.663-8.925-12.097 0-4.329 3.037-8.364 9.024-11.998 3.873-2.346 8.837-4.41 15.183-6.308 4.784-1.429 10.298-2.67 16.387-3.683 5.81-.966 11.084-1.802 16.789-2.236 4.59-.35 10.671-.748 17.004-.748 5.609 0 11.334.218 17.018.649 5.38.41 11.475.871 16.922 1.778a135 135 0 0 1 16.436 3.827c6.647 1.987 11.705 4.82 14.933 6.777 5.214 3.165 7.86 7.352 7.86 12.446 0 4.742-2.332 8.181-7.8 11.497-3.63 2.202-8.604 4.971-14.922 6.858-5.204 1.556-11.282 2.664-16.546 3.539-4.176.695-8.547.998-13.172 1.32-1.238.087-2.49.172-3.754.27-1.33.1-2.67.216-4.025.332-4.184.357-8.505.727-12.95.727" style="fill:#211d1d;fill-opacity:1;fill-rule:nonzero;stroke:none;stroke-width:.0352778" transform="translate(59.037 53.684)scale(.5178)"/><g clip-path="url(#a)" transform="matrix(.01827 0 0 -.01827 -165.183 274.579)"><path d="M12177 7471.4h4445.9v3752.2H12177Z" style="fill:#f3fbfa;fill-opacity:1;fill-rule:nonzero;stroke:none"/></g><path d="m-.885 105.145.096 1.729 1.033 20.63 1.93 108.437c0 4.184 2.61 8.132 7.761 11.751 3.606 2.54 8.39 4.83 14.623 7 3.771 1.305 9.535 3.188 16.023 4.451 4.47.868 10.4 1.934 16.584 2.487 5.101.448 10.605.664 16.824.664 4.382 0 8.692-.43 12.862-.85 1.313-.131 2.614-.262 3.906-.378 1.252-.11 2.494-.208 3.725-.307 4.572-.367 8.893-.716 12.96-1.5 5.166-.998 11.128-2.25 16.2-4.017 6.033-2.089 10.82-5.186 14.316-7.652 5.32-3.75 8.015-7.663 8.015-11.624 0-.074 0-.173-.004-.208l-.035-.166.014-.159c.007-.095-.014-.247-.035-.41l-.007-.084c-.332-5.443-1.313-25.499.07-55.128.815-17.371 2.138-38.026 3.324-55.94.01-.247.024-.399.028-.455.328-4.932.66-9.91.991-14.905 1.055-15.755 2.141-32.043 3.066-47.431a.7.7 0 0 0-.032-.265l-.078-.257.032-.269c.057-.448.081-.818.081-1.167 0-4.551-2.272-7.994-7.846-11.875-3.982-2.776-10.096-6.55-16.612-8.79-5.835-2.005-11.744-3.585-17.554-4.693-4.336-.829-8.904-1.326-12.4-1.669a674 674 0 0 0-5.775-.522l-1.468-.13c-2.303-.201-4.124-.364-6.008-.48-2.416-.152-4.695-.215-7.62-.215h-.038c-.096-.004-9.571-.268-19.456.162h-.046c-.162 0-16.404.222-33.44 6.255C7.187 43.515 3.54 47.375 1.123 49.928l-.106.113c-1.147 1.21-4.466 6.216-4.466 9.08 0 .886.12 1.796.356 2.7l.423 1.615h-.324l1.922 38.047q.013.112.018.24c.004.05.004.103.01.155l.004.117q.001.046.007.092.006.111.007.229l.04.769q.01.127.017.257 0 .085.01.17l.004.056.042.939c.01.2.025.42.028.638M73.99 264.872c-6.294 0-11.871-.222-17.05-.673-6.307-.565-12.319-1.648-16.848-2.526-6.65-1.295-12.531-3.214-16.376-4.548-6.467-2.247-11.459-4.646-15.265-7.327-5.874-4.13-8.855-8.784-8.855-13.832L-2.33 127.57l-1.03-20.563-.102-1.824q-.001-.263-.025-.526l-.042-.949a5 5 0 0 1-.014-.247c-.004-.052-.004-.105-.011-.158l-.004-.06-.042-.89a1 1 0 0 0-.007-.112q-.006-.095-.007-.184-.01-.106-.014-.204.002-.064-.007-.117l-.007-.088-1.986-39.356a13 13 0 0 1-.396-3.171c0-4.043 4.075-9.695 5.169-10.852l.109-.113c2.738-2.896 6.491-6.861 25.012-13.423 17.145-6.071 33.514-6.389 34.255-6.4 9.758-.426 19.113-.176 19.604-.161 2.935 0 5.33.067 7.76.218 1.92.12 3.754.279 6.076.484l1.464.13c1.876.162 3.873.339 5.8.526 3.552.346 8.198.85 12.636 1.7 5.933 1.133 11.955 2.745 17.907 4.79 6.798 2.333 13.13 6.242 17.247 9.11 6.276 4.37 8.95 8.554 8.95 13.99 0 .389-.021.787-.07 1.24q.091.44.066.874c-.927 15.395-2.014 31.69-3.069 47.445-.331 5.002-.667 9.987-.991 14.923l-.004.042a5 5 0 0 0-.025.37c-1.185 17.928-2.505 38.566-3.323 55.916-1.369 29.421-.406 49.336-.074 54.807.028.201.056.441.053.702.025.198.025.374.025.526 0 4.85-3.066 9.468-9.11 13.73-3.633 2.561-8.621 5.785-14.953 7.983-5.229 1.817-11.307 3.098-16.56 4.11-4.205.815-8.597 1.164-13.243 1.538-1.224.099-2.459.198-3.7.307-1.281.113-2.576.244-3.878.374-4.233.423-8.611.864-13.12.864" style="fill:#211d1d;fill-opacity:1;fill-rule:nonzero;stroke:none;stroke-width:.0352778" transform="translate(59.037 53.684)scale(.5178)"/><path d="M-2.87 91.422c0 4.509 3.061 8.707 8.85 12.429 4.121 2.649 9.536 4.928 15.918 6.95 5.172 1.64 10.911 3.259 17.24 4.377 5.585.984 11.547 1.93 17.815 2.434 5.782.466 11.84.657 18.041.657 6.199 0 12.196-.73 17.978-1.196 6.269-.505 12.323-.794 17.907-1.778 6.329-1.119 12.284-2.315 17.455-3.955 6.382-2.025 11.459-4.95 15.576-7.599 5.789-3.722 9.119-7.81 9.119-12.319 0-4.512-3.394-8.53-9.183-12.255-4.12-2.646-9.204-5.479-15.586-7.504a136 136 0 0 0-17.342-4.28c-5.581-.983-11.635-1.488-17.9-1.992a225 225 0 0 0-18.024-.73c-6.198 0-12.227.373-18.009.839-6.269.504-12.178 1.528-17.759 2.512-6.332 1.118-12.118 2.48-17.29 4.12-6.381 2.025-11.733 4.325-15.85 6.975C.294 82.832-2.87 86.91-2.87 91.422" style="fill:#fff;fill-opacity:1;fill-rule:nonzero;stroke:none;stroke-width:.0352778" transform="translate(59.037 53.684)scale(.5178)"/><path d="M74.994 65.937c-6.66 0-13.066.448-17.907.837-6.441.522-12.65 1.615-17.642 2.497-6.371 1.126-12.132 2.498-17.12 4.078-6.446 2.046-11.677 4.343-15.547 6.834-5.556 3.57-8.372 7.352-8.372 11.24 0 4.007 2.78 7.824 8.266 11.352 3.831 2.465 8.94 4.691 15.614 6.808 6.502 2.06 11.769 3.397 17.074 4.336 5.126.903 11.236 1.898 17.696 2.42 5.443.437 11.31.649 17.938.649 4.618 0 9.162-.413 13.558-.811 1.453-.131 2.892-.265 4.318-.378 1.344-.11 2.68-.208 4.004-.303 4.865-.36 9.458-.699 13.783-1.46 5.52-.978 11.892-2.202 17.29-3.917 6.438-2.039 11.542-5.055 15.271-7.454 5.662-3.64 8.534-7.422 8.534-11.243 0-3.803-2.812-7.458-8.597-11.18-3.313-2.127-8.499-5.206-15.283-7.358a134 134 0 0 0-17.176-4.24c-5.687-1.006-12.111-1.521-17.78-1.98a225 225 0 0 0-17.922-.727m0 53.609c-6.699 0-12.633-.216-18.143-.66-6.565-.53-12.75-1.535-17.935-2.448-5.422-.96-10.788-2.322-17.406-4.417-6.89-2.187-12.196-4.505-16.22-7.095-6.266-4.028-9.441-8.572-9.441-13.504 0-4.812 3.21-9.317 9.546-13.391 4.117-2.646 9.401-4.978 16.157-7.12 5.098-1.615 10.968-3.016 17.452-4.159 5.041-.889 11.317-1.996 17.879-2.526 4.886-.395 11.36-.846 18.111-.846 5.973 0 12.072.247 18.126.737 5.726.459 12.217.98 18.02 2.007a137 137 0 0 1 17.505 4.322c7.073 2.244 12.456 5.44 15.893 7.648 6.572 4.226 9.768 8.587 9.768 13.328 0 4.745-3.263 9.254-9.705 13.395-3.863 2.484-9.158 5.61-15.882 7.74-5.539 1.757-12.016 3.006-17.618 3.994-4.452.786-9.108 1.128-14.037 1.492-1.32.099-2.65.197-3.99.303-1.418.117-2.847.247-4.29.378-4.452.405-9.059.822-13.79.822" style="fill:#211d1d;fill-opacity:1;fill-rule:nonzero;stroke:none;stroke-width:.0352778" transform="translate(59.037 53.684)scale(.5178)"/><path d="M88.975 113.316c-5.687-.685-12.474-1.479-17.71-3.807-1.474-.656-2.956-1.397-4.063-2.568-1.327-1.404-1.997-3.288-2.629-5.112l-5.175-14.866c-.487-1.4-.963-2.974-.324-4.307 1.097-2.28 4.462-2.082 6.734-.97 2.272 1.11 4.54 2.822 7.038 2.416l20.645 18.651z" style="fill:#bae7e0;fill-opacity:1;fill-rule:nonzero;stroke:none;stroke-width:.0352778" transform="translate(59.037 53.684)scale(.5178)"/><path d="M62.45 82.098c-.445 0-.861.06-1.214.184-.511.176-.857.469-1.065.9-.427.888-.046 2.158.377 3.379l5.172 14.87c.589 1.69 1.196 3.435 2.367 4.674.995 1.051 2.417 1.735 3.672 2.293 4.802 2.134 10.94 2.931 16.454 3.598l3.817-8.922-19.597-17.706c-2.134.124-4.053-.92-5.764-1.855-.483-.261-.942-.512-1.397-.734-.903-.444-1.926-.68-2.822-.68m27.283 32.533-1.15-.137c-5.852-.706-12.484-1.503-17.811-3.874-1.471-.652-3.15-1.467-4.456-2.843-1.527-1.62-2.254-3.704-2.893-5.546l-5.175-14.87c-.437-1.259-1.168-3.365-.272-5.235.487-1.012 1.341-1.756 2.463-2.144 2.007-.699 4.364-.142 5.902.61.504.247 1.009.518 1.492.783 1.676.914 3.26 1.774 4.815 1.524l.579-.092 21.724 19.625z" style="fill:#211d1d;fill-opacity:1;fill-rule:nonzero;stroke:none;stroke-width:.0352778" transform="translate(59.037 53.684)scale(.5178)"/><path d="M105.09 74.168c2.522 4.293 12.435 23.625 10.52 28.222-1.528 3.662-20.486 14.08-25.979 11.292-3.235-1.64-5.203-4.967-6.995-8.124q-4.573-8.043-9.14-16.087c-.611-1.076-1.243-2.226-1.183-3.457.096-1.923 1.782-3.337 3.38-4.403 8.78-5.849 28.977-8.16 29.397-7.443" style="fill:#f1faf9;fill-opacity:1;fill-rule:nonzero;stroke:none;stroke-width:.0352778" transform="translate(59.037 53.684)scale(.5178)"/><path d="m104.039 74.785.004.004zm.031.459c-3.757 0-20.291 2.441-27.7 7.38-1.912 1.273-2.787 2.335-2.84 3.447-.042.853.417 1.735 1.024 2.8l9.14 16.087c1.545 2.72 3.471 6.107 6.488 7.638 1.435.73 4.61.279 8.713-1.231 7.468-2.752 14.887-7.758 15.593-9.444 1.446-3.472-6.371-20.042-10.178-26.674zm-12.026 40.125q-1.778 0-2.963-.6c-3.673-1.863-5.796-5.602-7.504-8.608l-9.14-16.09c-.6-1.051-1.418-2.49-1.337-4.117.12-2.54 2.293-4.272 3.92-5.355 8.59-5.722 27.636-8.276 30.19-7.69.525.12.797.416.928.641.134.23 13.098 23.305 10.594 29.31-1.256 3.012-10.167 8.272-16.994 10.787-3.111 1.147-5.683 1.722-7.694 1.722" style="fill:#211d1d;fill-opacity:1;fill-rule:nonzero;stroke:none;stroke-width:.0352778" transform="translate(59.037 53.684)scale(.5178)"/><path d="M59.074 82.656c-.692-1.965 17.582-15.265 26.049-16.733 7.274 1.697 12.834 3.33 19.212 7.716a.492.492 0 0 1-.095.86L72.402 86.981z" style="fill:#fff;fill-opacity:1;fill-rule:nonzero;stroke:none;stroke-width:.0352778" transform="translate(59.037 53.684)scale(.5178)"/><path d="m60.795 81.932 11.568 3.754 30.134-11.808c-5.88-3.788-11.194-5.256-17.403-6.71-7.295 1.426-21.3 11.413-24.299 14.764m11.645 6.34-14.312-4.646-.201-.565c-.18-.504-.088-1.072.272-1.682 2.099-3.585 18.542-15.237 26.716-16.655l.243-.042.24.056c6.978 1.626 12.852 3.242 19.628 7.899a1.712 1.712 0 0 1-.342 2.999z" style="fill:#211d1d;fill-opacity:1;fill-rule:nonzero;stroke:none;stroke-width:.0352778" transform="translate(59.037 53.684)scale(.5178)"/><path d="M127.855-7.437c4.261-.547 14.936-1.436 21.861 2.145.304.155.19.621-.151.614-4.664-.085-20.56-.254-21.527 1.408-.691 1.181-1.291-.505-1.654-2.015a1.745 1.745 0 0 1 1.47-2.152" style="fill:#fff;fill-opacity:1;fill-rule:nonzero;stroke:none;stroke-width:.0352778" transform="translate(59.037 53.684)scale(.5178)"/><path d="M127.855-7.437h.004zm7.93.702c-3.196 0-6.032.282-7.775.505a.5.5 0 0 0-.363.222.53.53 0 0 0-.082.437c.096.392.184.702.261.939 1.352-.653 5.056-1.344 16.256-1.323-2.73-.586-5.637-.78-8.297-.78m-7.63 2.872h.004zm-.597 2.205q-.121-.002-.208-.014c-1.157-.17-1.697-1.454-2.148-3.327a2.97 2.97 0 0 1 .437-2.392 2.97 2.97 0 0 1 2.06-1.256c4.382-.56 15.353-1.46 22.575 2.272.642.332.966 1.051.79 1.75-.18.698-.8 1.168-1.524 1.164-12.524-.23-19.364.325-20.546.953-.48.72-1.069.85-1.436.85" style="fill:#211d1d;fill-opacity:1;fill-rule:nonzero;stroke:none;stroke-width:.0352778" transform="translate(59.037 53.684)scale(.5178)"/><path d="M130.846 73.392c.53-.339.632-1.062.219-1.531-2.328-2.632-9.617-8.608-17.392-9.24-8.791-.716-17.177 3.024-20.761 9.691-.24.452.134.98.635.879a15 15 0 0 0 1.707-.466c1.948-.65 11.522-6.209 18.744-4.466 5.715 1.383 13.472 8.075 13.472 8.075z" style="fill:#fff;fill-opacity:1;fill-rule:nonzero;stroke:none;stroke-width:.0352778" transform="translate(59.037 53.684)scale(.5178)"/><path d="M110.985 66.707c1.122 0 2.23.112 3.298.37 4.886 1.182 10.986 5.88 13.17 7.659l2.557-2.23c-2.05-2.226-8.915-8.06-16.436-8.671-7.824-.639-15.166 2.448-18.806 7.768.035-.01.067-.025.102-.035.29-.095.91-.385 1.633-.716 3.09-1.433 8.96-4.145 14.482-4.145m16.489 11.239-.801-.691c-.074-.064-7.603-6.516-12.961-7.81-5.496-1.327-12.718 2.01-16.186 3.615-.853.395-1.467.677-1.887.818a16 16 0 0 1-1.849.505 1.79 1.79 0 0 1-1.81-.688 1.82 1.82 0 0 1-.14-1.958c3.728-6.943 12.54-11.091 21.932-10.33 8.502.692 16.182 7.363 18.203 9.646.434.49.632 1.143.54 1.788a2.23 2.23 0 0 1-.924 1.517z" style="fill:#211d1d;fill-opacity:1;fill-rule:nonzero;stroke:none;stroke-width:.0352778" transform="translate(59.037 53.684)scale(.5178)"/><path d="M100.243 62.113s-.607-7.669 4.808-8.46c4.636-.677 11.808 2.678 17.286 3.532 5.161.8 11.864 1.175 17.103-.61 9.289-3.165 20.084-9.374 22.274-23.41 0 0-.08-.65-1.055-1.705-1.46 3.733-5.517 9.9-11.12 14.605-5.418 4.558-11.927 5.885-15.578 6.248-5.334.536-16.644-2.184-19.558-2.92-3.365-.851-8.629-1.49-12.213 0-4.096 1.703-5.112 7.182-5.599 9.01-.486 1.823 3.652 3.71 3.652 3.71" style="fill:#fff;fill-opacity:1;fill-rule:nonzero;stroke:none;stroke-width:.0352778" transform="translate(59.037 53.684)scale(.5178)"/><path d="M107.535 49.717c-1.782 0-3.496.226-4.876.8-3.178 1.323-4.237 5.581-4.745 7.628q-.08.323-.144.568c.003.254.518.783 1.284 1.319.29-3.097 1.71-6.982 5.82-7.581 3.144-.462 7.176.726 11.078 1.873 2.25.663 4.575 1.348 6.572 1.658 4.66.723 11.31 1.217 16.52-.56 11.741-3.998 18.62-10.528 20.96-19.919-2.12 3.623-5.511 7.99-9.68 11.494-5.762 4.843-12.648 6.17-16.243 6.53-5.524.55-16.686-2.12-19.974-2.953-1.947-.494-4.315-.857-6.572-.857m-5.92 14.354-1.877-.85c-1.189-.543-5.02-2.519-4.321-5.133l.134-.533c.557-2.24 1.862-7.493 6.173-9.285 4.632-1.926 11.106-.532 12.98-.056 2.271.575 13.874 3.418 19.137 2.89 3.313-.332 9.656-1.546 14.916-5.97 5.369-4.512 9.345-10.48 10.767-14.118l.709-1.81 1.319 1.429c1.15 1.245 1.337 2.134 1.369 2.378l.021.17-.025.168c-1.806 11.572-9.574 19.774-23.086 24.377-5.68 1.934-12.749 1.426-17.68.657-2.156-.336-4.559-1.041-6.883-1.726-3.652-1.072-7.426-2.183-10.04-1.802-4.216.617-3.775 7.098-3.772 7.161z" style="fill:#211d1d;fill-opacity:1;fill-rule:nonzero;stroke:none;stroke-width:.0352778" transform="translate(59.037 53.684)scale(.5178)"/><path d="M103.41 86.056c4.929-13.194 16.098-42.015 26.501-68.728.427.946 1.62 1.496 2.353 2.092.297.24.572.254.833.148-12.845 33.034-26.529 68.224-26.571 68.344-.963 2.71-7.437 19.258-8.668 19.064-1.422-.222 4.445-17.953 5.553-20.92" style="fill:#e6f6f4;fill-opacity:1;fill-rule:nonzero;stroke:none;stroke-width:.0352778" transform="translate(59.037 53.684)scale(.5178)"/><path d="M130.349 19.558c-13.06 33.542-21.738 56.05-25.799 66.925-.96 2.568-3.08 9.091-4.448 14.034 2.018-4.555 4.43-10.636 5.277-13.014.018-.046.06-.17 26.106-67.148a9 9 0 0 0-.6-.427c-.173-.116-.353-.236-.536-.37m-32.442 88.639a1.4 1.4 0 0 1-1.231-.706c-.346-.589-.815-1.397 2.007-10.848 1.401-4.692 3.056-9.588 3.588-11.01 4.135-11.077 13.053-34.205 26.504-68.746l1.055-2.702 1.193 2.646c.162.363.726.744 1.224 1.08.208.14.42.285.624.437l2.378-.953-1.016 2.614a402145 402145 0 0 0-26.568 68.33c-.515 1.45-2.388 6.28-4.25 10.671-1.084 2.54-2.001 4.558-2.735 6.001-1.093 2.16-1.792 3.186-2.773 3.186" style="fill:#211d1d;fill-opacity:1;fill-rule:nonzero;stroke:none;stroke-width:.0352778" transform="translate(59.037 53.684)scale(.5178)"/><path d="M108.805 28.78c-1.01 3.217-2.276 9.228 2.511 14.121 4.784 4.897 14.02 13.042 26.98.035 5.451-5.464 6.682-12.94 2.432-18.496-5.659-7.398-11.06-10.745-18.595-7.63-8.968 3.704-12.33 8.784-13.328 11.97" style="fill:#cf3456;fill-opacity:1;fill-rule:nonzero;stroke:none;stroke-width:.0352778" transform="translate(59.037 53.684)scale(.5178)"/><path d="M127.505 16.848c-1.559 0-3.175.37-4.907 1.087-9.454 3.902-11.984 9.137-12.633 11.208-1.697 5.422-.97 9.645 2.22 12.908 3.22 3.291 7.203 6.66 12.354 6.685h.052c4.12 0 8.442-2.24 12.845-6.657 5.161-5.179 6.096-11.97 2.321-16.901-4.36-5.701-8.092-8.33-12.252-8.33m-2.91 34.322h-.067c-6.082-.028-10.72-3.98-14.083-7.419-3.82-3.909-4.766-9.066-2.801-15.335l1.16.363-1.16-.363c.748-2.395 3.62-8.435 14.023-12.732 9.303-3.841 15.346 1.895 20.027 8.015 4.544 5.941 3.528 14.02-2.533 20.098-4.875 4.893-9.779 7.373-14.566 7.373" style="fill:#211d1d;fill-opacity:1;fill-rule:nonzero;stroke:none;stroke-width:.0352778" transform="translate(59.037 53.684)scale(.5178)"/><path d="M117.472 23.837s3.877 3.422.49 6.996c-2.878 3.044-5.316.814-5.316.814z" style="fill:#cf3456;fill-opacity:1;fill-rule:nonzero;stroke:none;stroke-width:.0352778" transform="translate(59.037 53.684)scale(.5178)"/><path d="M114.795 33.418c-1.235 0-2.244-.54-2.805-1.05a.97.97 0 0 1-.063-1.377.98.98 0 0 1 1.376-.063c.289.254 1.876 1.432 3.954-.766.79-.836 1.157-1.682 1.115-2.586-.074-1.665-1.528-2.995-1.545-3.009a.973.973 0 1 1 1.291-1.457c.085.074 2.088 1.87 2.201 4.378.064 1.44-.49 2.79-1.647 4.015-1.358 1.436-2.717 1.915-3.877 1.915" style="fill:#211d1d;fill-opacity:1;fill-rule:nonzero;stroke:none;stroke-width:.0352778" transform="translate(59.037 53.684)scale(.5178)"/><path d="M115.712 29.224q-.272.002-.533-.124c-.578-.282-14.146-7.038-18.905-17.123a1.218 1.218 0 1 1 2.201-1.041c4.392 9.31 17.643 15.914 17.777 15.98a1.217 1.217 0 0 1-.54 2.308" style="fill:#211d1d;fill-opacity:1;fill-rule:nonzero;stroke:none;stroke-width:.0352778" transform="translate(59.037 53.684)scale(.5178)"/><path d="M144.552 13.85c-6.94-3.651-19.05-7.546-19.76-14.118-.155-1.415 1.041-4.463 1.595-5.782.078-.187.342-.16.392.038.275 1.105 1.143 3.377 3.834 5.317 9.338 6.734 35.694 13.963 32.075 32.561-1.34 6.876-3.849 9.93-4.078 10.467.427-1.58.437-8.527.06-10.894-1.4-8.763-10.097-15.473-14.118-17.59" style="fill:#f5f014;fill-opacity:1;fill-rule:nonzero;stroke:none;stroke-width:.0352778" transform="translate(59.037 53.684)scale(.5178)"/><path d="M126.62-3.246c-.441 1.316-.674 2.35-.617 2.847.483 4.491 8.029 7.966 14.093 10.76 1.81.836 3.517 1.623 5.02 2.413 3.584 1.887 13.226 8.883 14.757 18.475.176 1.111.275 3.175.289 5.27a32.6 32.6 0 0 0 1.33-4.886c2.593-13.32-11.384-20.496-22.617-26.26-3.446-1.771-6.699-3.44-8.974-5.08-1.595-1.15-2.621-2.413-3.281-3.539m33.09 46.094.018-.032-2.293-.8c.367-1.362.388-8.157.032-10.386-1.372-8.6-10.199-14.972-13.483-16.7-1.447-.763-3.126-1.539-4.907-2.357-6.968-3.21-14.863-6.848-15.494-12.71-.17-1.56.821-4.333 1.679-6.383a1.424 1.424 0 0 1 2.698.216c.251.998 1.017 2.928 3.366 4.621 2.124 1.535 5.299 3.164 8.66 4.89 11.328 5.813 26.84 13.775 23.894 28.892-1.167 6.008-3.206 9.225-3.972 10.435q-.139.21-.198.314" style="fill:#211d1d;fill-opacity:1;fill-rule:nonzero;stroke:none;stroke-width:.0352778" transform="translate(59.037 53.684)scale(.5178)"/><path d="M98.69 54.44c-.06-.278-.44-.314-.553-.049-.776 1.778-2.674 6.085-2.823 8.27-.426 6.328 13.004 16.026 21.605 17.162 8.124 1.072 12.918-1.616 13.426-1.92q.047-.025.06-.084l1.2-5.101a.136.136 0 0 0-.208-.145c-1.062.72-5.042 2.946-11.882 1.408-7.585-1.704-11.476-4.629-16.531-9.86-3.26-3.373-3.891-7.828-4.293-9.68" style="fill:#f5f014;fill-opacity:1;fill-rule:nonzero;stroke:none;stroke-width:.0352778" transform="translate(59.037 53.684)scale(.5178)"/><path d="M98.13 57.524c-.741 1.827-1.517 3.98-1.602 5.217-.353 5.243 11.942 14.74 20.553 15.875 6.692.886 10.932-.878 12.248-1.545l.558-2.374c-2.173.84-5.744 1.57-10.637.473-7.863-1.768-11.941-4.823-17.141-10.203-2.31-2.388-3.39-5.214-3.98-7.443m22.503 23.766c-1.2 0-2.49-.077-3.873-.26-4.322-.572-9.984-3.204-14.767-6.873-2.48-1.901-8.213-6.833-7.892-11.578.155-2.325 1.968-6.491 2.84-8.491l.077-.184a1.52 1.52 0 0 1 1.538-.903 1.5 1.5 0 0 1 1.323 1.182q.06.27.127.603c.399 1.986 1.143 5.69 3.853 8.488 4.97 5.143 8.618 7.878 15.924 9.518 6.36 1.429 9.973-.579 10.93-1.228a1.35 1.35 0 0 1 1.527.004c.462.32.677.882.55 1.429l-1.203 5.1a1.35 1.35 0 0 1-.614.85c-.473.28-4.148 2.343-10.34 2.343" style="fill:#211d1d;fill-opacity:1;fill-rule:nonzero;stroke:none;stroke-width:.0352778" transform="translate(59.037 53.684)scale(.5178)"/><path d="M23.355 209.645c-4.163-3.937-9.144-8.611-11.966-13.596-.794-1.404-1.546-2.882-1.736-4.484-.233-1.919.35-3.827.924-5.672q2.35-7.515 4.692-15.029c.441-1.41.995-2.963 2.3-3.655 2.237-1.178 4.826.985 5.99 3.228s1.972 4.974 4.22 6.132l5.489 27.273z" style="fill:#bae7e0;fill-opacity:1;fill-rule:nonzero;stroke:none;stroke-width:.0352778" transform="translate(59.037 53.684)scale(.5178)"/><path d="M18.91 168.095q-.409-.001-.77.194c-.874.458-1.322 1.704-1.71 2.939l-4.689 15.028c-.532 1.707-1.086 3.471-.882 5.165.173 1.435.91 2.832 1.588 4.028 2.59 4.572 7.045 8.866 11.08 12.686l8.38-4.903-5.215-25.89c-1.788-1.172-2.71-3.155-3.528-4.922-.233-.501-.451-.97-.684-1.422-.699-1.34-1.88-2.466-2.95-2.8a2.1 2.1 0 0 0-.62-.103m4.272 43.06-.843-.797c-4.283-4.047-9.137-8.636-12.009-13.71-.793-1.4-1.661-3.054-1.887-4.938-.265-2.209.391-4.318.974-6.18l4.692-15.026c.395-1.273 1.058-3.4 2.892-4.37.999-.526 2.124-.614 3.26-.262 2.025.635 3.591 2.487 4.378 4.004.261.501.5 1.02.734 1.52.8 1.733 1.563 3.37 2.963 4.09l.519.268 5.778 28.702z" style="fill:#211d1d;fill-opacity:1;fill-rule:nonzero;stroke:none;stroke-width:.0352778" transform="translate(59.037 53.684)scale(.5178)"/><path d="M59.603 187.773c-.53 4.953-4.064 26.388-8.34 28.942-3.408 2.035-24.843-.875-27.598-6.382-1.623-3.246-1.224-7.09-.79-10.693q1.114-9.187 2.23-18.369c.148-1.228.324-2.526 1.107-3.482 1.217-1.489 3.415-1.623 5.334-1.527 10.538.525 28.145 10.685 28.057 11.51" style="fill:#f1faf9;fill-opacity:1;fill-rule:nonzero;stroke:none;stroke-width:.0352778" transform="translate(59.037 53.684)scale(.5178)"/><path d="M58.393 187.642v.004zm-27.725-10.184c-1.8 0-2.896.349-3.514 1.1-.54.66-.695 1.644-.843 2.858l-2.226 18.369c-.377 3.108-.847 6.974.67 10.001.72 1.44 3.539 2.967 7.733 4.195 7.641 2.233 16.584 2.624 18.15 1.69 3.232-1.93 6.81-19.897 7.695-27.492-2.526-2.015-17.745-10.249-26.847-10.7a17 17 0 0 0-.818-.021m16.14 41.126c-4.386 0-10.407-.924-15-2.268-5.06-1.478-8.164-3.309-9.233-5.44-1.841-3.683-1.323-7.951-.906-11.384l2.226-18.369c.148-1.2.345-2.847 1.375-4.106 1.613-1.969 4.389-2.068 6.336-1.969 10.312.512 27.14 9.793 28.843 11.783.35.413.392.808.364 1.069-.028.271-3.341 26.525-8.926 29.859-.96.575-2.797.825-5.08.825" style="fill:#211d1d;fill-opacity:1;fill-rule:nonzero;stroke:none;stroke-width:.0352778" transform="translate(59.037 53.684)scale(.5178)"/><path d="M17.57 167.21c.613-1.99 23.216-1.803 30.892 2.056 4.837 5.69 8.33 10.312 10.848 17.632a.495.495 0 0 1-.59.638l-33.012-8.918z" style="fill:#fff;fill-opacity:1;fill-rule:nonzero;stroke:none;stroke-width:.0352778" transform="translate(59.037 53.684)scale(.5178)"/><path d="m26.445 177.556 31.246 8.439c-2.473-6.544-5.867-10.883-9.991-15.748-6.713-3.193-23.911-3.503-28.317-2.593zm32.403 11.212q-.224 0-.441-.057l-33.436-9.034-8.739-12.249.177-.575c.155-.511.564-.91 1.217-1.189 3.82-1.63 23.967-1.213 31.383 2.515l.219.11.162.187c4.635 5.457 8.396 10.252 11.07 18.027.208.6.067 1.26-.367 1.721a1.7 1.7 0 0 1-1.245.544" style="fill:#211d1d;fill-opacity:1;fill-rule:nonzero;stroke:none;stroke-width:.0352778" transform="translate(59.037 53.684)scale(.5178)"/><path d="M29.79 79.223c.08-.497.634-.783 1.188-.6 7.585 2.53 18.648 7.93 23.827 13.138 4.516 4.547 6.184 20.235 6.502 23.731.031.314-.335.494-.657.332L26.6 98.569z" style="fill:#fff;fill-opacity:1;fill-rule:nonzero;stroke:none;stroke-width:.0352778" transform="translate(59.037 53.684)scale(.5178)"/><path d="m27.948 97.889 32 16.213c-.874-8.287-2.903-18.358-6.007-21.48-4.823-4.851-15.378-10.14-23.026-12.736Zm32.953 19.215a1.8 1.8 0 0 1-.8-.194L25.255 99.254l3.334-20.228a1.96 1.96 0 0 1 .935-1.37 2.2 2.2 0 0 1 1.838-.186c8.135 2.71 19.096 8.195 24.303 13.434 4.716 4.744 6.438 19.935 6.854 24.479a1.54 1.54 0 0 1-.68 1.432c-.28.19-.607.29-.939.29" style="fill:#211d1d;fill-opacity:1;fill-rule:nonzero;stroke:none;stroke-width:.0352778" transform="translate(59.037 53.684)scale(.5178)"/><path d="M17.735 122.89c-1.051-7.246-5.531-18.048-4.438-22.906.783-3.482 11.342-16.154 16.19-21.142.186-.19.556-.099.673.152 2.808 6.025 3.365 12.21 2.145 18.337l-10.559 26.66z" style="fill:#bae7e0;fill-opacity:1;fill-rule:nonzero;stroke:none;stroke-width:.0352778" transform="translate(59.037 53.684)scale(.5178)"/><path d="m18.815 121.923 2.2.604 10.119-25.542c1.114-5.7.571-11.218-1.61-16.421-5.605 5.947-14.414 16.901-15.038 19.685-.61 2.698.822 7.909 2.208 12.947.819 2.977 1.662 6.05 2.12 8.727m3.661 3.528-5.831-1.598-.116-.787c-.392-2.706-1.302-6.022-2.184-9.225-1.531-5.574-2.978-10.834-2.237-14.125.903-4.004 12.118-17.209 16.507-21.724.36-.367.885-.533 1.407-.448.55.095 1.013.444 1.242.935 2.805 6.022 3.556 12.446 2.237 19.089l-.021.109z" style="fill:#211d1d;fill-opacity:1;fill-rule:nonzero;stroke:none;stroke-width:.0352778" transform="translate(59.037 53.684)scale(.5178)"/><path d="M61.367 116.187c-3.232 7.289-6.587 10.774-8.887 18.323-.487 1.588-1.072 3.302-2.632 4.139-2.29 1.227-5.425 0-7.986-1.218l-17.88-8.487c-2.606-1.235-5.474-2.734-6.41-5.19-.765-2.01.011-4.067.784-5.94 2.452-5.948 12.21-19.89 14.524-20.504 0 0 28.44 11.486 28.487 18.877" style="fill:#ecf9f7;fill-opacity:1;fill-rule:nonzero;stroke:none;stroke-width:.0352778" transform="translate(59.037 53.684)scale(.5178)"/><path d="M32.919 98.644c-2.4 1.686-11.116 14.001-13.438 19.632-.765 1.859-1.35 3.52-.769 5.044.762 2 3.278 3.334 5.793 4.526l17.879 8.485c2.275 1.08 5.111 2.198 6.89 1.245 1.104-.593 1.576-1.898 2.042-3.418 1.408-4.629 3.196-7.758 5.09-11.078 1.221-2.14 2.484-4.35 3.726-7.115-.184-1.351-2.046-4.749-13.582-10.904-5.913-3.158-11.9-5.698-13.631-6.418m14.746 41.73c-2.075 0-4.3-.881-6.326-1.84l-17.878-8.489c-2.96-1.404-5.941-3.012-7.024-5.86-.97-2.55.092-5.129.794-6.836 2.123-5.154 12.132-20.363 15.338-21.213l.392-.106.374.152c.074.028 7.253 2.939 14.344 6.724 10.008 5.338 14.884 9.68 14.905 13.275l.003.261-.106.24c-1.333 3.006-2.67 5.345-3.961 7.61-1.824 3.192-3.546 6.208-4.876 10.576-.455 1.488-1.143 3.74-3.22 4.854-.865.462-1.796.653-2.76.653" style="fill:#211d1d;fill-opacity:1;fill-rule:nonzero;stroke:none;stroke-width:.0352778" transform="translate(59.037 53.684)scale(.5178)"/><path d="M123.741 164.264c.346-.364.963-.297 1.32.165 4.893 6.326 11.066 16.976 12.463 24.187 1.22 6.29-6.138 20.246-7.82 23.33-.152.274-.555.221-.731-.093l-18.662-33.298z" style="fill:#fff;fill-opacity:1;fill-rule:nonzero;stroke:none;stroke-width:.0352778" transform="translate(59.037 53.684)scale(.5178)"/><path d="M123.741 164.264h.004zm-11.93 14.474 17.536 31.295c3.891-7.37 7.821-16.863 6.981-21.188-1.298-6.71-7.119-16.986-12.022-23.403zm17.589 34.604c-.61 0-1.182-.342-1.489-.892l-19.096-34.079 14.04-14.94c.396-.42.953-.645 1.539-.614a2.2 2.2 0 0 1 1.63.868c5.246 6.784 11.289 17.445 12.696 24.698 1.274 6.569-5.76 20.14-7.948 24.144a1.55 1.55 0 0 1-1.365.815z" style="fill:#211d1d;fill-opacity:1;fill-rule:nonzero;stroke:none;stroke-width:.0352778" transform="translate(59.037 53.684)scale(.5178)"/><path d="M89.398 193.809c3.165-6.604 5.465-18.07 9.08-21.495 2.59-2.455 18.42-7.094 25.224-8.534.262-.056.519.226.477.501-1.027 6.57-4.011 12.016-8.439 16.422l-23.622 16.253z" style="fill:#bae7e0;fill-opacity:1;fill-rule:nonzero;stroke:none;stroke-width:.0352778" transform="translate(59.037 53.684)scale(.5178)"/><path d="m90.834 193.608 1.492 1.725 22.635-15.572c4.099-4.11 6.724-8.992 7.814-14.53-7.966 1.816-21.386 6.004-23.46 7.965-2.007 1.902-3.722 7.027-5.38 11.98-.977 2.932-1.99 5.952-3.1 8.432m1.076 4.967-3.955-4.576.346-.716c1.182-2.466 2.272-5.725 3.327-8.88 1.834-5.478 3.563-10.653 6.015-12.974 2.98-2.823 19.65-7.536 25.809-8.841a1.59 1.59 0 0 1 1.418.416c.406.381.596.928.512 1.464-1.027 6.566-3.983 12.316-8.781 17.096l-.078.078-.091.063z" style="fill:#211d1d;fill-opacity:1;fill-rule:nonzero;stroke:none;stroke-width:.0352778" transform="translate(59.037 53.684)scale(.5178)"/><path d="M129.365 212.555c-6.746 4.248-11.473 5.274-17.59 10.263-1.288 1.048-2.73 2.145-4.49 1.968-2.583-.257-4.506-3.023-5.956-5.46l-10.117-17.008c-1.475-2.48-3.02-5.324-2.427-7.885.483-2.092 2.275-3.369 3.961-4.494 5.348-3.574 21.22-9.712 23.481-8.932 0 0 17.22 25.385 13.138 31.548" style="fill:#ecf9f7;fill-opacity:1;fill-rule:nonzero;stroke:none;stroke-width:.0352778" transform="translate(59.037 53.684)scale(.5178)"/><path d="M129.365 212.555h.004zm-13.843-30.42c-2.936.064-17.036 5.433-22.102 8.816-1.669 1.115-3.083 2.166-3.45 3.757-.483 2.085.928 4.7 2.29 6.985l10.117 17.011c1.288 2.163 3.023 4.671 5.027 4.872 1.245.12 2.367-.698 3.602-1.704 3.746-3.055 6.978-4.66 10.396-6.357 2.209-1.097 4.491-2.23 7.063-3.83.6-1.229.945-5.091-5.21-16.641-3.154-5.913-6.7-11.35-7.733-12.909m-7.864 43.89q-.244-.002-.494-.025c-3.072-.307-5.203-3.232-6.879-6.054L90.167 202.94c-1.675-2.815-3.252-5.814-2.568-8.777.614-2.66 2.935-4.209 4.47-5.236 4.635-3.097 21.42-10.149 24.557-9.07l.384.131.226.335c.042.064 4.385 6.484 8.167 13.575 5.334 10.008 6.964 16.33 4.978 19.329l-.145.218-.222.142c-2.78 1.75-5.193 2.949-7.529 4.11-3.295 1.636-6.406 3.181-9.94 6.064-1.123.913-2.777 2.265-4.887 2.265" style="fill:#211d1d;fill-opacity:1;fill-rule:nonzero;stroke:none;stroke-width:.0352778" transform="translate(59.037 53.684)scale(.5178)"/><path d="M102.328 94.647c.25-.537.836-.844 1.365-.706 7.475 1.923 21.593 4.163 22.878 5.468.927.945 12.216 14.178 15.32 20.556.152.318-.098.717-.465.734-6.667.275-13.977.716-19.216-2.783a1 1 0 0 1-.166-.134L101.555 97.92c-.317-.303-.392-.797-.183-1.238z" style="fill:#fff;fill-opacity:1;fill-rule:nonzero;stroke:none;stroke-width:.0352778" transform="translate(59.037 53.684)scale(.5178)"/><path d="M102.328 94.647h.004zm.095 2.511 20.422 19.795c4.678 3.125 11.208 2.9 17.55 2.635-3.527-6.449-13.55-18.232-14.625-19.346-.935-.657-7.296-1.955-11.945-2.904-3.697-.755-7.518-1.534-10.39-2.272a.13.13 0 0 0-.063.067zm32.915 24.871c-4.907 0-9.864-.547-13.769-3.157a2.3 2.3 0 0 1-.328-.265L100.75 98.75c-.666-.645-.835-1.672-.423-2.554l.956-2.039c.49-1.048 1.627-1.605 2.7-1.33 2.818.723 6.624 1.5 10.304 2.25 8.572 1.754 12.16 2.562 13.106 3.525 1.008 1.027 12.396 14.411 15.532 20.86.244.497.216 1.08-.074 1.563a1.68 1.68 0 0 1-1.376.825l-.709.032c-1.764.074-3.594.148-5.429.148" style="fill:#211d1d;fill-opacity:1;fill-rule:nonzero;stroke:none;stroke-width:.0352778" transform="translate(59.037 53.684)scale(.5178)"/><path d="M93.374 136.853c-5.464-5.701-14.323-18.87-14.541-20.655-.31-2.59.211-3.99 2.286-5.839 4.819-4.304 9.638-8.604 14.456-12.908 2.11-1.88 4.558-3.895 7.197-3.753 2.16.112 3.8 1.654 5.27 3.118l14.013 13.945c1.03 1.023 2.106 2.138 2.35 3.63.356 2.202-1.196 4.424-2.749 6.255-.05.06-.098.11-.158.159-1.464 1.231-21.442 18.888-28.124 16.048" style="fill:#ecf9f7;fill-opacity:1;fill-rule:nonzero;stroke:none;stroke-width:.0352778" transform="translate(59.037 53.684)scale(.5178)"/><path d="M94.062 135.809c3.658 1.16 13.649-4.763 26.247-15.59.187-.158.324-.278.405-.345 1.316-1.549 2.77-3.535 2.488-5.288-.173-1.07-.974-1.937-2.004-2.964L107.185 97.68c-1.47-1.464-2.822-2.68-4.476-2.769-2.142-.116-4.297 1.64-6.322 3.45L81.93 111.266c-1.767 1.577-2.155 2.561-1.887 4.787.338 1.506 8.375 13.787 14.02 19.756m.941 2.55c-.78 0-1.485-.123-2.106-.388l-.23-.099-.172-.18c-5.126-5.34-14.577-18.908-14.87-21.35-.363-2.998.339-4.801 2.681-6.893l14.46-12.905c2.297-2.05 5.003-4.233 8.069-4.064 2.72.145 4.653 2.068 6.067 3.475l14.013 13.942c1.002.998 2.377 2.367 2.688 4.3.444 2.738-1.38 5.306-3.02 7.24q-.139.164-.303.303c-.078.063-.208.176-.385.328-8.953 7.694-20.415 16.291-26.892 16.291" style="fill:#211d1d;fill-opacity:1;fill-rule:nonzero;stroke:none;stroke-width:.0352778" transform="translate(59.037 53.684)scale(.5178)"/><path d="M141.617 120.403c.303.134.37.533.14.818-5.055 6.255-13.821 19.77-20.686 22.433-5.948 2.311-22.977-4.995-26.536-6.575-.307-.134-.332-.568-.05-.808l27.817-23.51c.451-.38 1.051-.483 1.538-.267z" style="fill:#bae7e0;fill-opacity:1;fill-rule:nonzero;stroke:none;stroke-width:.0352778" transform="translate(59.037 53.684)scale(.5178)"/><path d="M96.15 136.458c8.99 3.894 20.377 7.655 24.48 6.064 5.052-1.961 11.61-10.724 16.397-17.124 1.157-1.541 2.258-3.016 3.242-4.261l-16.926-7.532c-.032-.014-.138-.01-.254.085zm22.023 8.844c-7.468 0-19.98-5.267-24.133-7.109a1.64 1.64 0 0 1-.953-1.27 1.75 1.75 0 0 1 .61-1.58l27.82-23.513c.802-.677 1.906-.853 2.816-.448l17.776 7.91c.48.211.83.631.953 1.146.13.54 0 1.104-.36 1.545-1.08 1.34-2.367 3.059-3.725 4.876-5.243 7.002-11.765 15.72-17.466 17.931-.918.357-2.053.512-3.338.512" style="fill:#211d1d;fill-opacity:1;fill-rule:nonzero;stroke:none;stroke-width:.0352778" transform="translate(59.037 53.684)scale(.5178)"/><path d="M35.363 168.423a1.166 1.166 0 0 1-.148-1.552c5.01-6.77 13.067-19.978 14.912-20.846 1.337-.631 19.34-7.772 27.058-8.915a.503.503 0 0 1 .547.674c-2.459 6.636-5.013 13.949-10.7 18.052a1.5 1.5 0 0 1-.204.123l-28.47 14.203a1.18 1.18 0 0 1-1.326-.19z" style="fill:#fff;fill-opacity:1;fill-rule:nonzero;stroke:none;stroke-width:.0352778" transform="translate(59.037 53.684)scale(.5178)"/><path d="m36.22 167.559 1.62 1.502 28.444-14.192.036-.021c5.062-3.651 7.52-10.058 9.842-16.327-8.078 1.595-24.165 7.966-25.516 8.605-.977.603-4.964 6.565-7.878 10.915-2.275 3.4-4.628 6.918-6.547 9.518m1.615 3.944a2.42 2.42 0 0 1-1.633-.639l-1.669-1.549a2.39 2.39 0 0 1-.3-3.167c1.895-2.558 4.24-6.068 6.513-9.458 5.27-7.878 7.546-11.148 8.862-11.766 1.45-.688 19.618-7.867 27.396-9.02a1.72 1.72 0 0 1 1.595.62c.384.477.49 1.105.275 1.684l-.261.702c-2.381 6.441-5.084 13.74-10.87 17.914a3 3 0 0 1-.373.225L38.9 171.252c-.338.166-.701.25-1.065.25" style="fill:#211d1d;fill-opacity:1;fill-rule:nonzero;stroke:none;stroke-width:.0352778" transform="translate(59.037 53.684)scale(.5178)"/><path d="M74.324 189.826c-8 3.669-24.941 8.438-26.832 8.117-2.745-.465-3.944-1.397-4.96-3.986q-3.55-9.031-7.105-18.062c-1.034-2.632-2.064-5.641-.84-8.192 1.002-2.088 3.235-3.238 5.317-4.247l19.84-9.606c1.457-.706 3.023-1.433 4.628-1.224 2.371.31 3.98 2.497 5.193 4.568.039.067.07.13.095.205.642 1.806 10.277 26.708 4.664 32.427" style="fill:#bae7e0;fill-opacity:1;fill-rule:nonzero;stroke:none;stroke-width:.0352778" transform="translate(59.037 53.684)scale(.5178)"/><path d="M74.324 189.826h.004zm-10.513-36.019c-1.192 0-2.48.625-3.538 1.14l-19.837 9.602c-2.127 1.03-3.954 2.018-4.752 3.68-.994 2.074-.112 4.706.879 7.221l7.101 18.063c.854 2.17 1.683 2.832 4.029 3.23 1.863.156 17.861-4.289 25.904-7.926 2.787-3.256.97-14.608-4.9-30.508-.084-.233-.148-.402-.183-.505-1.006-1.714-2.406-3.725-4.297-3.968a3 3 0 0 0-.406-.029m-16.174 45.36q-.206.002-.35-.024c-3.182-.54-4.723-1.782-5.888-4.741l-7.105-18.063c-1.132-2.882-2.222-6.205-.804-9.161 1.136-2.368 3.433-3.63 5.884-4.82l19.837-9.605c1.394-.674 3.299-1.595 5.32-1.334 2.942.385 4.798 2.96 6.085 5.161q.117.199.191.41l.176.476c4.586 12.435 9.042 28.289 4.209 33.21l-.155.162-.205.092c-7.006 3.214-23.71 8.237-27.195 8.237" style="fill:#211d1d;fill-opacity:1;fill-rule:nonzero;stroke:none;stroke-width:.0352778" transform="translate(59.037 53.684)scale(.5178)"/><path d="M77.513 137.509a.565.565 0 0 1 .882.106c4.244 6.837 14.298 19.484 14.171 27.026-.11 6.534-14.478 21.086-17.533 24.109a.51.51 0 0 1-.84-.19l-12.329-34.354a1.52 1.52 0 0 1 .363-1.591z" style="fill:#ecf9f7;fill-opacity:1;fill-rule:nonzero;stroke:none;stroke-width:.0352778" transform="translate(59.037 53.684)scale(.5178)"/><path d="m77.795 138.941-14.714 14.542a.3.3 0 0 0-.07.31L74.963 187.1c7.69-7.708 16.312-17.921 16.386-22.479.092-5.521-6.053-14.563-10.544-21.167-1.101-1.619-2.149-3.16-3.01-4.512m-2.455 49.206h.004zm-.663 1.968a1.72 1.72 0 0 1-1.626-1.143l-12.333-34.357a2.74 2.74 0 0 1 .652-2.864l15.286-15.106a1.782 1.782 0 0 1 2.773.328c.906 1.46 2.113 3.235 3.39 5.112 4.932 7.256 11.07 16.284 10.964 22.577-.113 6.844-13.726 20.832-17.896 24.956a1.72 1.72 0 0 1-1.21.497" style="fill:#211d1d;fill-opacity:1;fill-rule:nonzero;stroke:none;stroke-width:.0352778" transform="translate(59.037 53.684)scale(.5178)"/><path d="M103.566 162.112c-7.79 2.92-15.579-1.951-23.368-2.925-5.61-1.4-10.77-.11-15.914 1.178-5.57 1.397-11.12 2.794-17.194.77-4.869-.974-7.79-5.842-11.688-6.816-13.871-1.849-25.11-6.34-36.216-12.626l1.697 95.088c0 4.614 2.879 8.907 8.311 12.703 3.867 2.71 8.95 5.048 14.94 7.12 4.862 1.671 10.252 3.322 16.2 4.473 5.239 1.008 10.837 1.968 16.715 2.49 5.432.473 11.116.667 16.94.667s11.451-.744 16.884-1.228c5.88-.511 11.56-.804 16.813-1.817 5.934-1.136 11.536-2.363 16.38-4.035 6.004-2.071 10.767-5.063 14.637-7.772 5.432-3.807 8.558-7.987 8.558-12.601 0-.152 0-.307-.028-.448.014-.216-.014-.434-.039-.65-.296-4.765-1.33-24.856.067-54.659.511-10.77 1.206-22.673 1.997-35.182-5.535 3.28-12.26 5.88-17.452 8.477-8.763 3.895-18.5 4.868-28.24 7.793" style="fill:#e0c13b;fill-opacity:1;fill-rule:nonzero;stroke:none;stroke-width:.0352778" transform="translate(59.037 53.684)scale(.5178)"/><g clip-path="url(#b)" transform="matrix(.01827 0 0 -.01827 -165.183 274.579)"><path d="M12263.6 7471.4h4259.3v1367.7h-4259.3z" style="fill:#8a1652;fill-opacity:1;fill-rule:nonzero;stroke:none"/></g><path d="M147.832 146.66c.484-7.779.988-15.512 1.468-22.79.01-.246.025-.398.028-.454l.536-8.047q.886-1.006 1.531-2.05c-.26 3.916-.525 7.821-.783 11.691 0 0-.014.141-.028.438-.458 6.921-.907 13.74-1.326 20.394q-.7.417-1.426.818M.512 142.434q-.665-.365-1.326-.741L-1.044 129l-.842-16.69q.582 1.258 1.492 2.473l.638 12.721z" style="fill:#87164f;fill-opacity:1;fill-rule:nonzero;stroke:none;stroke-width:.0352778" transform="translate(59.037 53.684)scale(.5178)"/><path d="M47.661 137.936c-1.637 0-3.609-.812-5.277-1.605l-16.098-7.641c3.98 1.157 8.262 2.233 12.852 3.04 3.934.695 8.061 1.37 12.344 1.884q-.086.269-.166.544c-.466 1.52-.938 2.825-2.043 3.418-.472.254-1.02.36-1.612.36" style="fill:#8a1652;fill-opacity:1;fill-rule:nonzero;stroke:none;stroke-width:.0352778" transform="translate(59.037 53.684)scale(.5178)"/><path d="M47.665 140.374c-2.075 0-4.3-.882-6.326-1.842l-17.878-8.488c-2.35-1.115-4.71-2.356-6.125-4.244q2.186.805 4.562 1.556c1.418.448 2.882.9 4.388 1.334l16.098 7.64c1.668.795 3.64 1.606 5.277 1.606.593 0 1.14-.106 1.612-.36 1.105-.593 1.577-1.898 2.043-3.418q.08-.275.166-.544 1.228.148 2.473.276c-.106.317-.212.642-.31.977-.456 1.488-1.144 3.74-3.222 4.854-.864.462-1.795.653-2.758.653" style="fill:#87164f;fill-opacity:1;fill-rule:nonzero;stroke:none;stroke-width:.0352778" transform="translate(59.037 53.684)scale(.5178)"/><path d="M93.66 135.378c-.48-.525-.977-1.09-1.482-1.686l.794-.064c1.016-.084 2.028-.158 3.034-.232l-2.307 1.947z" style="fill:#8a1652;fill-opacity:1;fill-rule:nonzero;stroke:none;stroke-width:.0352778" transform="translate(59.037 53.684)scale(.5178)"/><path d="M94.351 138.327a4.9 4.9 0 0 1-1.453-.356l-.23-.099-.172-.18c-.96-.998-2.071-2.29-3.246-3.743q1.472-.134 2.928-.257a61 61 0 0 0 1.482 1.686c-.441.395-.656.97-.572 1.545.082.565.438 1.041.953 1.27q.148.066.31.134" style="fill:#87164f;fill-opacity:1;fill-rule:nonzero;stroke:none;stroke-width:.0352778" transform="translate(59.037 53.684)scale(.5178)"/><path d="M118.114 142.896c-5.203 0-14.428-3.172-21.963-6.438l3.993-3.373c3.715-.293 7.313-.635 10.735-1.238 6.329-1.118 12.284-2.314 17.455-3.955 3.79-1.2 7.116-2.72 10.055-4.307-.441.586-.896 1.196-1.362 1.813-4.787 6.4-11.345 15.163-16.397 17.124-.663.258-1.514.374-2.516.374" style="fill:#881652;fill-opacity:1;fill-rule:nonzero;stroke:none;stroke-width:.0352778" transform="translate(59.037 53.684)scale(.5178)"/><path d="M118.174 145.302c-7.291 0-19.392-5.02-23.823-6.975q-.162-.068-.31-.134a1.64 1.64 0 0 1-.953-1.27c-.084-.575.13-1.15.572-1.545l.039-.035 2.307-1.947c1.393-.106 2.773-.205 4.138-.31l-3.993 3.372c7.535 3.266 16.76 6.438 21.963 6.438 1.002 0 1.853-.116 2.516-.374 5.052-1.961 11.61-10.724 16.397-17.124.466-.617.92-1.228 1.362-1.813 1.7-.92 3.27-1.863 4.723-2.78.01.42-.13.836-.409 1.178-1.08 1.34-2.367 3.059-3.725 4.876-5.243 7.002-11.765 15.72-17.466 17.931-.918.357-2.053.512-3.338.512" style="fill:#87164f;fill-opacity:1;fill-rule:nonzero;stroke:none;stroke-width:.0352778" transform="translate(59.037 53.684)scale(.5178)"/><path d="M44.172 160.037a18 18 0 0 1-1.908-1.241q.254-.375.504-.755c2.914-4.35 6.9-10.312 7.878-10.915 1.256-.593 15.25-6.142 23.7-8.199L61.37 151.751q-.052.052-.106.109c-.758.268-1.453.603-2.053.893z" style="fill:#8a1652;fill-opacity:1;fill-rule:nonzero;stroke:none;stroke-width:.0352778" transform="translate(59.037 53.684)scale(.5178)"/><path d="M42.264 158.796c-.664-.484-1.299-.999-1.923-1.503l.406-.603c5.27-7.878 7.546-11.148 8.862-11.766 1.45-.688 19.618-7.867 27.396-9.02a1.72 1.72 0 0 1 1.171.243 1.4 1.4 0 0 0-.265-.021 1.78 1.78 0 0 0-1.255.519l-2.31 2.282c-8.45 2.057-22.444 7.606-23.7 8.199-.977.603-4.964 6.565-7.878 10.915q-.25.38-.504.755" style="fill:#87164f;fill-opacity:1;fill-rule:nonzero;stroke:none;stroke-width:.0352778" transform="translate(59.037 53.684)scale(.5178)"/><path d="M53.49 162.15h-.011a20 20 0 0 1-6.05-.903q-.05-.014-.103-.035l12.947-6.265c.155-.078.318-.155.48-.233l2.152 5.997c-3.09.762-6.192 1.44-9.395 1.44z" style="fill:#881652;fill-opacity:1;fill-rule:nonzero;stroke:none;stroke-width:.0352778" transform="translate(59.037 53.684)scale(.5178)"/><path d="M47.326 161.212q-.119-.037-.236-.077c-1.055-.209-2.018-.604-2.918-1.098l15.04-7.284c.599-.29 1.294-.625 2.052-.893a2.75 2.75 0 0 0-.546 2.755l.035.099a31 31 0 0 0-.48.233z" style="fill:#87164f;fill-opacity:1;fill-rule:nonzero;stroke:none;stroke-width:.0352778" transform="translate(59.037 53.684)scale(.5178)"/><path d="M90.986 161.879c-1.4-.374-2.805-.797-4.205-1.203-1.898-.543-3.796-1.055-5.698-1.362l-.074-.01a20 20 0 0 0-.455-.067l-.356-.05q-.176-.043-.346-.08a20.7 20.7 0 0 0-4.462-.527h-.258q-.153-.001-.307.004-.196.001-.388.007h-.074q-.005.005-.014.004-.233.007-.473.018c-.822.042-1.637.127-2.445.236h-.007q-.259.037-.518.078c-.043.007-.085.01-.127.018l-.198.031c-1.785.29-3.545.706-5.302 1.143l-2.268-6.325a.3.3 0 0 1 .07-.31l14.714-14.542c.861 1.351 1.909 2.893 3.01 4.512 3.806 5.599 8.805 12.95 10.18 18.426" style="fill:#8a1652;fill-opacity:1;fill-rule:nonzero;stroke:none;stroke-width:.0352778" transform="translate(59.037 53.684)scale(.5178)"/><path d="M93.603 162.503a48 48 0 0 1-2.617-.624c-1.376-5.475-6.375-12.827-10.181-18.426-1.101-1.619-2.149-3.16-3.01-4.512l-14.714 14.542a.3.3 0 0 0-.07.31l2.268 6.326q-.497.122-.995.247l-.166.042-.208.053-.208.053c-.265.067-.53.13-.797.197l-2.152-5.997-.035-.099a2.75 2.75 0 0 1 .652-2.864l12.975-12.824 2.311-2.282a1.78 1.78 0 0 1 1.468-.505q.026.001.052.007c.52.078.974.374 1.253.826.906 1.46 2.113 3.235 3.39 5.111 4.392 6.463 9.74 14.33 10.784 20.42" style="fill:#87164f;fill-opacity:1;fill-rule:nonzero;stroke:none;stroke-width:.0352778" transform="translate(59.037 53.684)scale(.5178)"/><path d="M98.292 163.033h-.035zm.01 0c1.69 0 3.384-.247 5.077-.854-1.693.607-3.387.853-5.077.853m-44.813-.881h-.01zm.021 0c3.203 0 6.304-.678 9.395-1.44.268-.067.532-.13.797-.197-3.358.84-6.713 1.637-10.192 1.637m50.01-.025.046-.014c9.74-2.925 19.477-3.898 28.24-7.793 4.755-2.378 10.791-4.756 16.026-7.659q.727-.401 1.426-.818c-5.535 3.28-12.26 5.88-17.452 8.477-8.763 3.895-18.5 4.868-28.24 7.793zm-56.43-.991c-4.869-.974-7.79-5.842-11.688-6.816-13.871-1.849-25.11-6.34-36.216-12.626q.66.375 1.326.74c10.676 5.9 21.57 10.111 34.89 11.886 1.757.44 3.313 1.669 4.94 2.974.623.504 1.258 1.02 1.922 1.503.61.448 1.241.871 1.908 1.241.9.494 1.863.89 2.918 1.098m39.69-.46c-1.897-.542-3.795-1.054-5.697-1.36 1.902.306 3.8.818 5.698 1.36m-22.87-.214.207-.053zm17.099-1.157a20 20 0 0 0-.455-.067q.228.03.455.067m-.811-.117q-.176-.043-.346-.08.17.037.346.08m-9.617-.211.198-.032zm.325-.05q.259-.042.518-.077-.259.036-.518.077m3.443-.331q.01.001.014-.004-.005.005-.014.004m.088-.004q.192-.006.388-.007-.196.001-.388.007m.953-.011h-.258z" style="fill:#891650;fill-opacity:1;fill-rule:nonzero;stroke:none;stroke-width:.0352778" transform="translate(59.037 53.684)scale(.5178)"/><path d="M143.91 104.553c-4.117 2.677-9.194 5.626-15.576 7.672-5.171 1.655-11.126 2.865-17.455 3.99-5.584.995-11.638 1.288-17.907 1.8-5.782.469-11.78 1.206-17.978 1.206-6.201 0-12.259-.194-18.04-.663-6.27-.508-12.231-1.464-17.816-2.459-6.329-1.125-12.068-2.762-17.24-4.417-6.382-2.042-11.797-4.343-15.917-7.017-4.534-2.945-7.388-6.184-8.414-9.634-.113-.018-.226-.028-.339-.046l.416 8.223c.014.117.014.258.029.41 0 .116.014.229.014.36l.042.814c.014.142.014.297.028.448l.043.935c.014.205.028.41.028.614l.095 1.75.19 3.771c1.327 2.879 3.98 5.595 7.868 8.096 4.12 2.65 9.535 4.925 15.917 6.95 5.172 1.64 10.911 3.26 17.24 4.375 5.585.987 11.547 1.93 17.815 2.437 5.782.466 11.84.653 18.041.653 6.199 0 12.196-.727 17.978-1.193 6.269-.504 12.323-.797 17.907-1.781 6.329-1.118 12.284-2.314 17.455-3.955 6.382-2.021 11.459-4.946 15.576-7.595 3.41-2.194 5.962-4.52 7.486-6.978.412-6.163.832-12.361 1.241-18.549-1.03 3.517-4.085 6.77-8.727 9.783" style="fill:#fef4eb;fill-opacity:1;fill-rule:nonzero;stroke:none;stroke-width:.0352778" transform="translate(59.037 53.684)scale(.5178)"/><path d="m-.74 106.743.095 1.715 1.038 20.514 1.926 107.784c0 4.106 2.59 7.983 7.697 11.553 3.595 2.52 8.368 4.788 14.588 6.94 3.767 1.294 9.525 3.168 16.002 4.42 4.47.86 10.392 1.919 16.573 2.47 5.094.444 10.598.66 16.81.66 4.37 0 8.678-.431 12.841-.844q1.974-.202 3.916-.378c1.252-.109 2.494-.208 3.725-.306 4.569-.364 8.883-.71 12.944-1.49 5.16-.987 11.116-2.232 16.185-3.986 6.011-2.07 10.788-5.143 14.28-7.588 5.275-3.697 7.949-7.542 7.949-11.426 0-.064.004-.124-.004-.184l-.04-.187.018-.169a2.5 2.5 0 0 0-.035-.374l-.007-.095c-.335-5.412-1.312-25.358.067-54.815.819-17.268 2.142-37.8 3.327-55.608.01-.24.025-.395.028-.455.325-4.869.656-9.786.984-14.722q.322-4.741.639-9.5c-1.552 1.75-3.595 3.447-6.114 5.084-3.873 2.515-9.18 5.676-15.92 7.835-5.553 1.778-12.034 3.037-17.643 4.04-4.46.793-9.123 1.139-14.058 1.505-1.316.1-2.646.198-3.983.307a411 411 0 0 0-4.293.381c-4.456.41-9.063.83-13.801.83-6.7 0-12.64-.216-18.158-.667-6.572-.533-12.763-1.55-17.949-2.473-5.43-.97-10.805-2.346-17.427-4.467-6.904-2.208-12.224-4.557-16.26-7.179-2.624-1.703-4.713-3.51-6.258-5.404l.134 2.635q.01.11.014.244l.01.144.008.13.003.085.011.233.039.755q.01.128.014.261c.003.053.003.106.01.159l.004.067.042.931c.01.177.029.403.029.635m74.73 158.923c-6.297 0-11.878-.219-17.064-.67-6.311-.561-12.326-1.637-16.863-2.512-6.657-1.288-12.544-3.2-16.393-4.526-6.477-2.237-11.483-4.625-15.297-7.299-5.92-4.135-8.921-8.805-8.921-13.878l-1.927-107.735-1.033-20.437-.099-1.82c0-.173-.014-.342-.025-.511v-.04l-.042-.902q-.01-.129-.014-.25c-.004-.05-.004-.1-.01-.149l-.004-.07-.046-.89q.001-.053-.004-.102a3 3 0 0 1-.007-.187q-.01-.105-.014-.2a1 1 0 0 0-.007-.107l-.007-.099-.504-9.94 2.966.387.265.893c.924 3.094 3.556 6.068 7.821 8.84 3.824 2.48 8.918 4.72 15.575 6.851 6.495 2.082 11.755 3.43 17.054 4.375 5.122.913 11.228 1.915 17.68 2.441 5.44.441 11.304.656 17.925.656 4.608 0 9.148-.416 13.54-.818 1.453-.134 2.893-.268 4.322-.381q2.017-.164 4.004-.31c4.86-.36 9.45-.703 13.768-1.472 5.514-.984 11.879-2.219 17.269-3.944 6.417-2.057 11.511-5.094 15.233-7.51 4.505-2.925 7.242-5.948 8.131-8.982l3.676-12.541-.867 13.038-1.038 15.501c-.331 4.94-.663 9.864-.987 14.74l-.004.049c0 .014-.011.134-.022.356-1.185 17.822-2.508 38.336-3.323 55.58-1.372 29.228-.409 49.012-.074 54.455.025.201.053.44.05.702.024.201.024.381.024.533 0 4.875-3.087 9.51-9.172 13.776-3.644 2.554-8.64 5.76-14.99 7.951-5.238 1.81-11.32 3.084-16.577 4.092-4.215.808-8.607 1.161-13.26 1.532q-1.835.141-3.701.303c-1.28.113-2.575.243-3.88.374-4.234.423-8.615.857-13.128.857" style="fill:#211d1d;fill-opacity:1;fill-rule:nonzero;stroke:none;stroke-width:.0352778" transform="translate(59.037 53.684)scale(.5178)"/><path d="M4.474 202.6c-3.993-29.573-5.563-79.17-6.55-98.481l1.033 21.124L.883 236.537c0 4.763 2.879 9.197 8.311 13.117 3.867 2.797 8.95 5.214 14.94 7.351 4.862 1.726 10.252 3.43 16.2 4.618 5.239 1.041 10.837 2.032 16.718 2.572 5.43.487 11.113.688 16.937.688s11.451-.766 16.884-1.266c5.88-.53 11.564-.833 16.813-1.877 5.934-1.175 11.536-2.441 16.38-4.17 6.004-2.138 10.767-5.225 14.637-8.022 5.432-3.934 8.558-8.248 8.558-13.01 0-.16 0-.318-.028-.463.014-.226-.014-.448-.039-.674-.296-4.92-1.326-25.664.067-56.437.783-17.036 1.997-36.802 3.323-57.386-.427 5.175-4.967 52.606-8.664 81.438-2.004 15.628-33.21 32.653-69.974 31.436-38.004-1.26-65.263-15.5-67.472-31.852" style="fill:#e0f0f0;fill-opacity:1;fill-rule:nonzero;stroke:none;stroke-width:.0352778" transform="translate(59.037 53.684)scale(.5178)"/><path d="m1.532 189.741.811 46.772c0 4.254 2.59 8.269 7.705 11.959 3.595 2.6 8.36 4.942 14.577 7.158 3.767 1.34 9.525 3.27 15.995 4.565 4.466.889 10.386 1.982 16.563 2.55 5.094.455 10.59.677 16.806.677 4.367 0 8.675-.44 12.838-.87 1.315-.135 2.62-.269 3.912-.389 1.256-.113 2.498-.215 3.729-.317 4.565-.374 8.88-.73 12.936-1.535 5.154-1.02 11.11-2.307 16.171-4.113 6.008-2.138 10.785-5.31 14.274-7.832 5.277-3.82 7.955-7.8 7.955-11.829 0-.067.004-.137-.004-.2l-.035-.18.014-.174c.007-.088-.014-.243-.032-.398l-.01-.095c-.311-5.21-1.182-23.467-.18-50.571a1323 1323 0 0 1-2.191 18.284c-1.066 8.298-9.363 16.743-22.769 23.16-14.05 6.731-31.344 10.118-48.697 9.546-18.235-.603-35.193-4.303-47.752-10.414-12.46-6.06-19.96-14.125-21.117-22.7-.543-4.012-1.04-8.408-1.499-13.054m72.457 76.599c-6.304 0-11.885-.226-17.067-.691-6.319-.583-12.333-1.694-16.87-2.597-6.66-1.33-12.552-3.305-16.404-4.674-6.48-2.314-11.487-4.78-15.307-7.543-5.916-4.265-8.915-9.077-8.915-14.298L-2.451 128.04c-.17-3.71-.324-7.203-.462-10.392-.17-3.839-.321-7.3-.462-10.266l-.155-3.193 2.91-.144v.004q.075 1.477.155 3.182l.879 17.988.05 2.73C1.5 150.707 3.13 181.737 5.92 202.407c2.194 16.263 30.6 29.414 66.075 30.589 16.898.56 33.708-2.73 47.343-9.26 12.312-5.895 20.214-13.713 21.135-20.903 3.71-28.949 8.29-76.88 8.66-81.375l2.907.212c-1.185 18.376-2.505 39.564-3.323 57.361-1.369 30.184-.406 50.62-.074 56.24.028.208.053.452.053.72.024.205.024.392.024.547 0 5.016-3.083 9.79-9.165 14.192-3.644 2.635-8.646 5.951-15 8.216-5.242 1.87-11.328 3.186-16.587 4.226-4.216.837-8.612 1.2-13.261 1.58-1.225.103-2.463.202-3.705.315q-1.919.182-3.877.384c-4.236.438-8.618.89-13.137.89m.897-177.124c-6.85 0-12.922-.233-18.56-.72-6.713-.574-13.038-1.672-18.34-2.67-5.546-1.044-11.035-2.53-17.802-4.819-7.048-2.385-12.474-4.914-16.59-7.736-6.375-4.371-9.607-9.289-9.607-14.609 0-3.99 4.078-9.56 5.172-10.7l.11-.112c2.737-2.85 6.49-6.756 25.008-13.208 17.141-5.977 33.506-6.294 34.244-6.305 9.765-.416 19.12-.172 19.604-.158 2.871 0 5.21.063 7.577.204 1.986.12 3.877.282 6.27.49l1.453.128c1.164.098 5.623.546 9.207.91 2.212.222 4.128.413 4.819.48l-.243 2.543c-.692-.063-2.615-.257-4.833-.48-3.574-.36-8.026-.808-9.17-.906l-1.456-.127c-2.374-.205-4.248-.367-6.198-.484-2.322-.14-4.615-.2-7.444-.2h-.039c-.095-.004-9.57-.269-19.456.158h-.045c-.163.004-16.408.219-33.45 6.16C7.175 43.31 3.525 47.11 1.108 49.62l-.106.113c-1.147 1.193-4.46 6.114-4.46 8.93 0 4.427 2.858 8.632 8.496 12.498 3.919 2.688 9.14 5.115 15.963 7.423 6.65 2.25 12.033 3.707 17.455 4.727 5.239.988 11.487 2.07 18.087 2.639 5.567.48 11.564.712 18.341.712 4.717 0 9.363-.451 13.854-.889 1.453-.14 2.956-.286 4.42-.41 1.376-.119 2.741-.225 4.092-.334 4.974-.388 9.67-.759 14.09-1.591 5.641-1.062 12.153-2.4 17.674-4.265 6.58-2.226 11.8-5.514 15.614-8.128 5.818-3.994 8.77-8.16 8.77-12.383 0-4.156-1.118-7.048-7.221-11.32l1.467-2.096c6.95 4.868 8.312 8.604 8.312 13.416 0 5.119-3.327 9.994-9.881 14.489-3.948 2.71-9.363 6.117-16.242 8.442-5.67 1.919-12.291 3.28-18.02 4.357-4.555.857-9.317 1.234-14.362 1.63a363 363 0 0 0-8.467.74c-4.554.441-9.26.896-14.1.896" style="fill:#211d1d;fill-opacity:1;fill-rule:nonzero;stroke:none;stroke-width:.0352778" transform="translate(59.037 53.684)scale(.5178)"/></svg>