<svg xmlns="http://www.w3.org/2000/svg" xml:space="preserve" width="200mm" height="200mm" viewBox="0 0 200 200"><path d="M94.763 315.726c-8.274 0-15.6-.317-22.393-.966-8.063-.776-15.692-2.254-22.09-3.595-8.49-1.785-15.856-4.382-21.325-6.445-8.343-3.147-14.731-6.463-19.53-10.136-6.987-5.348-10.529-11.204-10.529-17.41 0-6.021 3.586-11.82 10.659-17.236 5.975-4.572 12.495-7.987 19.378-10.15 5.186-1.626 7.704-2.48 9.22-2.998 1.142 13.328 1.834 21.604 1.834 22.12 0 3.308 2.159 6.384 6.241 9.119 2.904 1.943 6.722 3.612 11.223 5.097 3.647 1.203 7.694 2.392 12.156 3.21 3.936.724 8.14 1.419 12.56 1.786 4.077.342 8.349.483 12.72.483s8.6-.536 12.677-.879c4.42-.37 8.689-.582 12.626-1.305 4.462-.818 8.659-1.697 12.306-2.9 4.5-1.485 8.078-3.63 10.982-5.574 4.082-2.73 5.397-5.312 5.397-8.618 0-.536.793-9.394 2.09-23.587 3.278.988 6.557 2.1 9.818 3.33 8.484 3.2 14.974 7.786 19.118 10.958 7.362 5.634 10.94 11.243 10.94 17.145 0 5.926-3.653 11.73-10.86 17.247-4.666 3.57-11.055 8.061-19.105 11.099-6.747 2.543-14.7 4.367-21.591 5.813-5.4 1.136-11.137 1.637-17.21 2.17q-2.477.216-4.997.451c-1.784.173-3.618.37-5.393.565-5.486.593-11.159 1.206-16.922 1.206" style="fill:#fef5ed;fill-opacity:1;fill-rule:nonzero;stroke:none;stroke-width:.0352778" transform="translate(61.862 38.238)scale(.48209)"/><path d="M94.763 238.75c-8.306 0-16.309.667-22.352 1.246-6.905.663-14.1 1.873-21.997 3.7-1.97.455-3.523.815-4.77 1.1-5.019 1.15-5.019 1.15-7.352 1.948-1.5.512-4.01 1.365-9.36 3.045-6.882 2.162-13.402 5.577-19.377 10.15-7.073 5.414-10.659 11.214-10.659 17.236 0 6.205 3.542 12.061 10.528 17.41 4.8 3.672 11.188 6.988 19.53 10.135 5.47 2.063 12.837 4.66 21.326 6.445 6.398 1.34 14.027 2.819 22.09 3.595 6.793.649 14.119.966 22.393.966 5.763 0 11.436-.613 16.922-1.206a445 445 0 0 1 5.393-.565q2.52-.236 4.997-.451c6.073-.533 11.81-1.034 17.21-2.17 6.89-1.446 14.844-3.27 21.591-5.814 8.05-3.037 14.439-7.528 19.105-11.098 7.207-5.517 10.86-11.32 10.86-17.247 0-5.902-3.578-11.511-10.94-17.145-4.144-3.172-10.634-7.758-19.118-10.957-7.13-2.692-14.347-4.812-21.448-6.305-7.1-1.488-15.122-2.257-22.2-2.938-7.472-.716-15-1.08-22.372-1.08m0 79.636c-8.36 0-15.768-.32-22.647-.98-8.193-.784-15.913-2.28-22.383-3.638-8.667-1.82-16.159-4.462-21.718-6.558-8.589-3.242-15.2-6.681-20.208-10.512C.13 290.82-3.765 284.252-3.765 277.175c0-6.897 3.938-13.406 11.703-19.347 6.222-4.762 13.018-8.322 20.198-10.576 5.318-1.672 7.81-2.519 9.297-3.027 2.463-.84 2.56-.86 7.616-2.021 1.245-.286 2.797-.642 4.765-1.1 8.012-1.856 15.32-3.084 22.343-3.758 6.103-.585 14.187-1.256 22.606-1.256 7.457 0 15.07.367 22.625 1.094 7.148.684 15.25 1.46 22.494 2.98 7.234 1.521 14.582 3.68 21.84 6.418 8.812 3.327 15.518 8.06 19.795 11.335 8.065 6.173 11.986 12.47 11.986 19.258 0 6.801-4.006 13.314-11.904 19.36-4.812 3.68-11.409 8.315-19.783 11.473-6.917 2.61-14.995 4.462-21.985 5.93-5.555 1.167-11.37 1.679-17.524 2.219q-2.466.21-4.975.448c-1.768.17-3.594.367-5.36.557-5.556.603-11.302 1.224-17.209 1.224" style="fill:#211d1d;fill-opacity:1;fill-rule:nonzero;stroke:none;stroke-width:.0352778" transform="translate(61.862 38.238)scale(.48209)"/><path d="M37.917 244.06c-2.885-33.57-8.28-95.212-12.875-147.567a212750 212750 0 0 0-5.57-63.395q.103.005.208.004l-2.507-27.35a14 14 0 0 1-.224-2.446V.156c0-5.37 3.065-10.368 8.858-14.803 4.122-3.153 9.54-5.863 15.927-8.276 5.176-1.95 10.918-3.88 17.251-5.21 5.587-1.175 11.554-2.297 17.825-2.9 5.786-.554 11.849-.78 18.053-.78 6.202 0 12.203.868 17.99 1.422 6.271.603 12.33.945 17.917 2.12 6.333 1.33 12.29 2.755 17.465 4.71 6.387 2.41 11.464 5.891 15.586 9.045 5.793 4.434 9.124 9.303 9.124 14.672v2.163l-2.602 32.462a22243 22243 0 0 1-4.672 51.495c-4.937 53.883-11.145 120.597-14.458 156.764a144 144 0 0 0-11.331-2.875c-7.244-1.52-15.346-2.297-22.494-2.981a237 237 0 0 0-22.625-1.094c-8.419 0-16.503.67-22.606 1.256-7.022.674-14.33 1.902-22.343 3.757-1.968.459-3.52.815-4.765 1.1-4.703 1.08-5.115 1.176-7.132 1.857" style="fill:#fcf5ea;fill-opacity:1;fill-rule:nonzero;stroke:none;stroke-width:.0352778" transform="translate(61.862 38.238)scale(.48209)"/><path d="M94.888 288.605c-4.372 0-8.644-.141-12.721-.484-4.42-.366-8.624-1.061-12.56-1.785-4.462-.818-8.51-2.007-12.156-3.21-4.5-1.485-8.319-3.154-11.223-5.097-4.082-2.734-6.241-5.81-6.241-9.12 0-.515-.692-8.791-1.835-22.119q.072-.023.14-.046c2.333-.797 2.333-.797 7.352-1.947 1.247-.286 2.8-.646 4.77-1.1 7.897-1.828 15.092-3.038 21.997-3.701 6.043-.579 14.046-1.246 22.352-1.246 7.373 0 14.9.364 22.372 1.08 7.078.68 15.1 1.45 22.2 2.938 3.853.812 7.741 1.807 11.63 2.974-1.297 14.193-2.09 23.05-2.09 23.587 0 3.306-1.315 5.888-5.397 8.618-2.904 1.944-6.481 4.089-10.982 5.574-3.647 1.203-7.844 2.082-12.306 2.9-3.937.723-8.207.935-12.626 1.305-4.077.343-8.306.879-12.676.879" style="fill:#fceddf;fill-opacity:1;fill-rule:nonzero;stroke:none;stroke-width:.0352778" transform="translate(61.862 38.238)scale(.48209)"/><path d="m38.152 246.79-.235-2.73c2.017-.681 2.429-.777 7.132-1.856 1.245-.286 2.797-.642 4.765-1.1 8.012-1.856 15.32-3.084 22.343-3.758 6.103-.585 14.187-1.256 22.606-1.256 7.457 0 15.07.367 22.625 1.094 7.148.684 15.25 1.46 22.494 2.98 3.755.791 7.542 1.75 11.33 2.876-.083.92-.166 1.824-.247 2.702a143 143 0 0 0-11.63-2.974c-7.1-1.488-15.122-2.257-22.2-2.938-7.472-.716-15-1.08-22.372-1.08-8.306 0-16.309.667-22.352 1.246-6.905.663-14.1 1.873-21.997 3.7-1.97.455-3.523.815-4.77 1.1-5.019 1.15-5.019 1.15-7.352 1.948z" style="fill:#4b403d;fill-opacity:1;fill-rule:nonzero;stroke:none;stroke-width:.0352778" transform="translate(61.862 38.238)scale(.48209)"/><path d="m20.926 34.457 3.213 36.54 2.228 25.38c9.92 113.019 14.95 171.068 14.95 172.532 0 2.808 1.901 5.504 5.65 8.012 2.667 1.785 6.232 3.4 10.9 4.942 3.074 1.013 7.214 2.29 11.98 3.165 3.604.663 7.898 1.39 12.43 1.77 3.826.322 7.95.477 12.61.477 3.234 0 6.429-.304 9.518-.596 1.025-.096 2.04-.194 3.047-.276.948-.08 1.889-.151 2.82-.225 3.42-.261 6.65-.508 9.677-1.066 3.875-.709 8.346-1.605 12.13-2.854 4.486-1.481 8.053-3.672 10.66-5.415 3.989-2.67 4.806-4.935 4.806-7.514 0-1.168 2.978-33.436 8.244-90.368 2.745-29.69 5.858-63.344 8.558-92.808l.189-2.064a22627 22627 0 0 0 4.483-49.428l2.596-32.395V.156c0-4.667-2.895-9.246-8.603-13.614-3.726-2.854-8.826-6.438-15.247-8.858-5.388-2.035-11.753-3.492-17.268-4.653-4.312-.907-8.901-1.309-13.76-1.736a449 449 0 0 1-4.012-.36 341 341 0 0 1-4.324-.451c-4.392-.476-8.933-.967-13.538-.967-6.626 0-12.49.254-17.926.776-6.452.618-12.557 1.8-17.678 2.876-6.787 1.425-12.68 3.503-17.055 5.154-6.662 2.515-11.761 5.16-15.589 8.089C21.085-9.355 18.28-4.73 18.28.156v3.15c0 .716.066 1.44.203 2.212l.015.11 2.642 28.836zm73.962 255.478c-4.735 0-8.933-.159-12.832-.487-4.648-.388-9.023-1.129-12.69-1.803-3.843-.705-7.646-1.71-12.332-3.256-4.9-1.616-8.677-3.337-11.546-5.256-4.533-3.034-6.832-6.474-6.832-10.224-.038-1.785-5.344-62.978-14.94-172.3L21.489 71.23c-1.264-14.39-2.407-27.393-3.342-38.015l-.13-1.482.203.004-2.365-25.813a15.3 15.3 0 0 1-.235-2.618V.156c0-5.757 3.156-11.095 9.38-15.857 4.036-3.09 9.357-5.86 16.266-8.463 6.632-2.505 12.013-4.128 17.447-5.271 5.193-1.09 11.39-2.29 17.97-2.921 5.523-.53 11.47-.787 18.18-.787 4.75 0 9.363.498 13.825.981 1.414.155 2.877.31 4.292.448 1.341.127 2.672.244 3.99.36 4.94.434 9.607.843 14.074 1.781 5.615 1.179 12.104 2.667 17.661 4.766 6.746 2.544 12.055 6.273 15.926 9.236 6.4 4.897 9.645 10.188 9.645 15.727l-.004 2.268-2.601 32.463a22036 22036 0 0 1-4.485 49.442l-.189 2.067c-2.7 29.464-5.812 63.12-8.558 92.812-4.398 47.555-8.196 88.622-8.233 90.132 0 3.997-1.79 6.907-5.986 9.712-2.748 1.841-6.515 4.152-11.306 5.732-3.937 1.298-8.52 2.22-12.483 2.946-3.165.582-6.463.832-9.954 1.1q-1.39.106-2.801.223c-.997.085-2.004.18-3.02.275-3.15.296-6.408.607-9.767.607" style="fill:#211d1d;fill-opacity:1;fill-rule:nonzero;stroke:none;stroke-width:.0352778" transform="translate(61.862 38.238)scale(.48209)"/><path d="M170.62 26.763v3.15c0 5.373-3.234 10.237-8.853 14.672-3.459 2.727-7.61 5.694-12.675 8.015a52 52 0 0 1-2.448 1.034c-5.023 1.947-10.801 3.372-16.942 4.702-5.417 1.171-11.302 1.52-17.389 2.117-2.873.29-5.8.652-8.78.938-2.841.275-5.736.49-8.673.49-6.013 0-11.898-.225-17.506-.776-6.087-.61-11.877-1.735-17.293-2.906-6.152-1.33-11.718-3.257-16.74-5.204-6.194-2.416-11.452-5.13-15.453-8.28-5.619-4.438-8.588-9.43-8.588-14.802v-3.15c0-5.377 2.97-10.369 8.588-14.803 4.001-3.15 9.259-5.867 15.452-8.28 5.023-1.947 10.59-3.873 16.74-5.207 5.417-1.167 11.207-2.296 17.294-2.903 5.608-.554 11.493-.776 17.506-.776 6.023 0 11.845.871 17.453 1.425 6.087.596 11.972.945 17.39 2.117 6.14 1.33 11.918 2.758 16.941 4.706 6.194 2.413 11.121 5.895 15.123 9.045 5.619 4.438 8.854 9.31 8.854 14.676" style="fill:#ebb980;fill-opacity:1;fill-rule:nonzero;stroke:none;stroke-width:.0352778" transform="translate(61.862 38.238)scale(.48209)"/><path d="M94.86-3.908c-6.441 0-12.126.254-17.378.773-6.233.62-12.166 1.802-17.147 2.882-6.563 1.418-12.29 3.492-16.545 5.143-6.457 2.52-11.403 5.165-15.118 8.09-5.369 4.24-8.092 8.879-8.092 13.783v3.15c0 4.903 2.723 9.539 8.094 13.783 3.712 2.92 8.659 5.567 15.119 8.09 4.253 1.647 9.979 3.72 16.542 5.143 4.983 1.076 10.918 2.26 17.148 2.882 5.256.518 10.941.769 17.377.769 2.481 0 5.117-.148 8.547-.483 1.606-.156 3.218-.332 4.777-.505 1.345-.152 2.678-.3 4-.43 1.275-.127 2.538-.24 3.79-.353 4.754-.427 9.244-.833 13.454-1.743 5.34-1.157 11.507-2.614 16.747-4.646a51 51 0 0 0 2.38-1.002c5.17-2.37 9.347-5.44 12.408-7.853 5.546-4.378 8.359-8.974 8.359-13.652v-3.15c0-4.682-2.813-9.275-8.36-13.656-3.617-2.847-8.568-6.428-14.79-8.855-5.24-2.032-11.406-3.49-16.745-4.646-4.21-.91-8.7-1.313-13.455-1.743-1.251-.113-2.514-.226-3.786-.35-1.4-.14-2.836-.3-4.227-.454-4.248-.477-8.64-.967-13.099-.967m0 67.088c-6.522 0-12.29-.258-17.634-.783-6.36-.635-12.385-1.835-17.44-2.928-6.74-1.457-12.591-3.578-16.935-5.264-6.705-2.614-11.868-5.383-15.787-8.47-6.028-4.759-9.083-10.082-9.083-15.822v-3.15c0-5.74 3.055-11.064 9.082-15.826 3.92-3.087 9.084-5.856 15.785-8.47C47.195.784 53.046-1.336 59.786-2.797c5.053-1.09 11.076-2.293 17.44-2.928 5.339-.525 11.107-.783 17.634-.783 4.603 0 9.07.501 13.388.984 1.382.152 2.81.314 4.193.448q1.896.185 3.765.35c4.836.437 9.404.85 13.77 1.792 5.44 1.178 11.728 2.667 17.138 4.762 6.544 2.554 11.698 6.276 15.457 9.236 6.204 4.9 9.35 10.181 9.35 15.699v3.15c0 5.514-3.146 10.795-9.349 15.695-3.175 2.501-7.514 5.69-12.939 8.174-.828.374-1.65.723-2.515 1.062-5.411 2.095-11.701 3.584-17.14 4.762-4.367.946-8.934 1.355-13.77 1.792-1.246.113-2.503.226-3.768.35-1.31.13-2.634.278-3.97.426-1.568.173-3.19.353-4.812.508-3.515.346-6.229.498-8.798.498" style="fill:#211d1d;fill-opacity:1;fill-rule:nonzero;stroke:none;stroke-width:.0352778" transform="translate(61.862 38.238)scale(.48209)"/><path d="M126.072-44.34 104.878 86.213s19.955 2.473 26.83-3.676c6.876-6.15 24.778-132.08 24.778-132.08z" style="fill:#9b5f20;fill-opacity:1;fill-rule:nonzero;stroke:none;stroke-width:.0352778" transform="translate(61.862 38.238)scale(.48209)"/><path d="M106.293 85.126c4.42.406 19.174 1.348 24.6-3.503 1.195-1.069 5.008-9.797 14.574-67.627 4.581-27.694 8.572-55.13 9.569-62.05l-27.896 4.776zm7.508 2.808c-4.855 0-8.714-.462-9.074-.508l-1.261-.155 21.538-132.67 32.93-5.633-.236 1.662c-.045.314-4.539 31.866-9.815 63.76-10.74 64.93-14.217 68.037-15.359 69.06-4.107 3.673-12.29 4.484-18.723 4.484" style="fill:#211d1d;fill-opacity:1;fill-rule:nonzero;stroke:none;stroke-width:.0352778" transform="translate(61.862 38.238)scale(.48209)"/><path d="M138.688-45.451s-.157 3.694-4.012 2.628c-2.207-.607-3.59-4.618-1.821-6.957 2.138-2.829 7.702-3.076 8.647-.709.945 2.37 4.72 10.495-2.549 12.016-6.945 1.453-10.838-.236-12.42-5.302-.984-3.147-1.122-10.82 7.574-14.496 6.366-2.688 13.373-1.7 16.138-.593 3.911 1.57 6.669 4.336 7.11 9.723.369 4.515-1.665 7.31-5.885 8.3-3.889.914-5.607-.708-7.097-2.78-1.397-1.94-1.878-5.795-.647-7.901 1.732-2.967 5.261-2.322 7.18-1.295 1.92 1.027 3.086 5.412.844 6.569-2.241 1.153-4.343-.395-4.343-.395z" style="fill:#ca851a;fill-opacity:1;fill-rule:nonzero;stroke:none;stroke-width:.0352778" transform="translate(61.862 38.238)scale(.48209)"/><path d="M143.055-58.761c-2.618 0-5.613.412-8.472 1.619-7.648 3.231-7.846 9.916-6.882 13.003.981 3.14 3.056 6.132 11.002 4.466 1.48-.306 2.446-.92 2.95-1.873 1.235-2.325-.407-6.336-1.108-8.047l-.18-.44c-.152-.385-.75-.689-1.562-.798-1.592-.212-3.877.339-4.972 1.789-.722.956-.642 2.293-.324 3.228.313.924.914 1.654 1.495 1.813.811.222 1.417.197 1.8-.081.586-.427.663-1.411.664-1.422a1.224 1.224 0 1 1 2.445.106c-.01.219-.135 2.176-1.668 3.295-1.016.737-2.326.892-3.893.462-1.39-.385-2.572-1.651-3.162-3.387-.67-1.979-.413-4.032.69-5.492 1.752-2.315 4.988-3.041 7.251-2.738 1.465.198 2.604.829 3.22 1.764q.14-.339.32-.646c1.979-3.39 5.956-3.284 8.815-1.757 1.564.837 2.732 3.105 2.715 5.274-.011 1.588-.7 2.847-1.888 3.461-2.883 1.489-5.52-.416-5.63-.497a1.224 1.224 0 1 1 1.452-1.969c.055.04 1.54 1.073 3.056.29.46-.237.56-.84.563-1.302.01-1.334-.743-2.734-1.422-3.098-1.334-.712-4.21-1.457-5.547.833-1 1.71-.515 5.041.583 6.569 1.28 1.781 2.523 3.08 5.824 2.307 3.643-.857 5.26-3.15 4.945-7.01-.36-4.392-2.316-7.073-6.345-8.689-1.235-.494-3.738-1.033-6.735-1.033m-8.373 22.006c-4.862 0-7.926-2.201-9.318-6.653-1.193-3.821-1-12.076 8.267-15.988 6.589-2.784 13.967-1.849 17.07-.604 4.865 1.951 7.44 5.472 7.873 10.76.414 5.055-2.01 8.46-6.824 9.592-3.73.875-5.859-.324-7.427-2.07a6 6 0 0 1-.507 1.319c-.855 1.612-2.407 2.663-4.612 3.125q-2.475.514-4.522.519" style="fill:#211d1d;fill-opacity:1;fill-rule:nonzero;stroke:none;stroke-width:.0352778" transform="translate(61.862 38.238)scale(.48209)"/><path d="M144.373-43.62 121.418 86.167z" style="fill:#ca851a;fill-opacity:1;fill-rule:nonzero;stroke:none;stroke-width:.0352778" transform="translate(61.862 38.238)scale(.48209)"/><path d="M121.419 87.387q-.106.002-.215-.017a1.223 1.223 0 0 1-.992-1.418l22.956-129.787a1.226 1.226 0 0 1 1.418-.992c.665.117 1.11.752.992 1.419L122.623 86.378a1.22 1.22 0 0 1-1.204 1.01" style="fill:#211d1d;fill-opacity:1;fill-rule:nonzero;stroke:none;stroke-width:.0352778" transform="translate(61.862 38.238)scale(.48209)"/><path d="M27.87 56.42c3.999 3.154 9.255 5.864 15.452 8.277 5.02 1.95 10.592 3.88 16.736 5.21 5.42 1.171 11.209 2.297 17.293 2.9 5.614.554 11.496.78 17.514.78s11.84-.868 17.453-1.422c6.085-.603 11.962-.945 17.383-2.12 6.144-1.33 11.923-2.755 16.944-4.71 6.197-2.41 11.122-5.891 15.121-9.045 3.427-2.702 5.96-5.57 7.42-8.611-.987 10.929-2.116 23.322-3.326 36.53l-.189 2.067c-7.089 77.36-16.796 181.173-16.796 183.053 0 3.306-1.315 5.888-5.396 8.618-2.905 1.944-6.482 4.09-10.983 5.574-3.647 1.203-7.844 2.082-12.306 2.9-3.938.723-8.206.935-12.626 1.305-4.077.343-8.306.879-12.676.879-4.372 0-8.644-.141-12.721-.484-4.42-.366-8.624-1.061-12.56-1.785-4.463-.818-8.51-2.007-12.156-3.21-4.5-1.485-8.318-3.154-11.223-5.097-4.083-2.735-6.241-5.81-6.241-9.12 0-1.788-8.308-96.795-14.945-172.416l-2.228-25.38-2.025-23.032c1.41 2.946 3.786 5.74 7.08 8.34" style="fill:#a35d1d;fill-opacity:1;fill-rule:nonzero;stroke:none;stroke-width:.0352778" transform="translate(61.862 38.238)scale(.48209)"/><path d="M19.64 33.102c.08.356.193.709.301 1.058 1.152 3.768 3.822 7.313 7.929 10.552 3.999 3.157 9.255 5.867 15.452 8.276 5.02 1.954 10.592 3.88 16.736 5.214 5.42 1.171 11.209 2.297 17.293 2.896 5.614.558 11.496.784 17.514.784s11.84-.868 17.453-1.426c6.085-.6 11.962-.945 17.383-2.116 6.144-1.334 11.923-2.756 16.944-4.71 6.197-2.41 11.122-5.891 15.121-9.045 4.09-3.228 6.907-6.685 8.14-10.4a13.5 13.5 0 0 0 .7-3.933h.152l-.415 4.53-.063.708c-.34 3.807-.706 7.885-1.095 12.189-1.46 3.04-3.992 5.909-7.419 8.611-3.999 3.154-8.924 6.636-15.12 9.045-5.022 1.955-10.8 3.38-16.945 4.71-5.42 1.175-11.298 1.517-17.383 2.12-5.614.554-11.435 1.422-17.453 1.422s-11.9-.226-17.514-.78c-6.084-.603-11.873-1.729-17.293-2.9-6.144-1.33-11.715-3.26-16.736-5.21-6.197-2.413-11.453-5.123-15.452-8.276-3.295-2.6-5.672-5.394-7.081-8.34l-1.132-12.873-.186-2.11z" style="fill:#e2994c;fill-opacity:1;fill-rule:nonzero;stroke:none;stroke-width:.0352778" transform="translate(61.862 38.238)scale(.48209)"/><path d="m21.415 40.016 2.724 30.981 2.228 25.38c9.92 113.019 14.95 171.068 14.95 172.532 0 2.808 1.901 5.504 5.65 8.012 2.667 1.785 6.232 3.4 10.9 4.942 3.074 1.013 7.214 2.29 11.98 3.165 3.604.663 7.898 1.39 12.43 1.77 3.826.322 7.95.477 12.61.477 3.234 0 6.429-.304 9.518-.596 1.025-.096 2.04-.194 3.047-.276.948-.08 1.889-.151 2.82-.225 3.42-.261 6.65-.508 9.677-1.066 3.875-.709 8.346-1.605 12.13-2.854 4.486-1.481 8.053-3.672 10.66-5.415 3.989-2.67 4.806-4.935 4.806-7.514 0-1.168 2.978-33.436 8.244-90.368 2.745-29.69 5.858-63.344 8.558-92.808l.189-2.064c1.656-18.087 2.986-32.727 4.045-44.542q-2.251 3.129-5.99 6.082c-3.76 2.963-8.914 6.692-15.463 9.243-5.4 2.099-11.698 3.588-17.145 4.766-4.34.938-8.869 1.348-13.664 1.781-1.279.117-2.57.233-3.87.364-1.375.134-2.796.293-4.17.444-4.328.484-8.804.985-13.414.985-6.509 0-12.28-.258-17.645-.787-6.385-.632-12.4-1.835-17.443-2.925-5.278-1.143-10.501-2.769-16.938-5.27-6.709-2.61-11.875-5.384-15.793-8.474-2.313-1.824-4.193-3.743-5.63-5.74m73.473 249.919c-4.735 0-8.933-.159-12.832-.487-4.648-.388-9.023-1.129-12.69-1.803-3.843-.705-7.646-1.71-12.332-3.256-4.9-1.616-8.677-3.337-11.546-5.256-4.533-3.034-6.832-6.474-6.832-10.224-.038-1.785-5.344-62.978-14.94-172.3L21.489 71.23c-1.264-14.39-2.407-27.393-3.342-38.015l-.13-1.475 2.694.064.227 1.005c.87 3.831 3.479 7.486 7.756 10.859 3.708 2.924 8.65 5.57 15.11 8.082 6.302 2.448 11.402 4.04 16.537 5.15 4.969 1.076 10.89 2.258 17.142 2.875 5.276.523 10.962.777 17.383.777 4.462 0 8.863-.49 13.12-.967a331 331 0 0 1 4.202-.452c1.308-.13 2.606-.247 3.892-.363 4.712-.427 9.162-.829 13.34-1.732 5.347-1.157 11.517-2.614 16.744-4.646 6.22-2.42 11.166-6.004 14.78-8.851 5.412-4.272 8.216-8.753 8.333-13.325l.033-1.294h2.907l-.548 5.98a21650 21650 0 0 1-4.483 49.427l-.189 2.067c-2.7 29.464-5.812 63.12-8.558 92.812-4.398 47.555-8.196 88.622-8.233 90.132 0 3.997-1.79 6.907-5.986 9.712-2.748 1.841-6.515 4.152-11.306 5.732-3.938 1.298-8.52 2.22-12.483 2.946-3.165.582-6.463.832-9.954 1.1q-1.39.106-2.801.223c-.998.085-2.004.18-3.02.275-3.15.296-6.408.607-9.767.607" style="fill:#211d1d;fill-opacity:1;fill-rule:nonzero;stroke:none;stroke-width:.0352778" transform="translate(61.862 38.238)scale(.48209)"/><path d="M30.876 163.132c4.856 55.492 9.108 104.497 9.108 105.777 0 3.306 2.162 6.386 6.243 9.116 2.91 1.947 6.72 3.612 11.225 5.098 3.648 1.21 7.693 2.399 12.152 3.217 3.937.72 8.144 1.415 12.567 1.785 4.071.342 8.341.476 12.72.476 4.369 0 8.593-.532 12.674-.875 4.414-.367 8.684-.585 12.621-1.305 4.469-.818 8.666-1.693 12.306-2.9 4.504-1.488 8.08-3.63 10.99-5.577 4.081-2.73 5.396-5.306 5.396-8.611 0-1.136 3.513-39.124 7.855-86.057l-6.232 37.109c-1.378 8.209-4.771 15.998-10.102 22.394-1.785 2.141-3.529 3.806-4.989 4.67-5.702 3.38-9.251 4.499-13.81 5.335-4.026.737-17.269 2.55-27.394 2.55-9.396 0-21.287-1.965-25.305-2.702-4.558-.84-13.666-3.27-19.972-10.019-8.549-9.161-8.215-15.099-9.233-18.7z" style="fill:#fff;fill-opacity:1;fill-rule:nonzero;stroke:none;stroke-width:.0352778" transform="translate(61.862 38.238)scale(.48209)"/><path d="M36.257 209.477c3.36 38.618 5.057 58.568 5.057 59.432 0 2.808 1.902 5.504 5.653 8.012 2.67 1.785 6.235 3.4 10.901 4.939 4.56 1.51 8.254 2.487 11.976 3.171 3.616.663 7.921 1.39 12.437 1.768 3.788.317 7.912.472 12.61.472 3.242 0 6.445-.303 9.542-.596 1.016-.095 2.023-.19 3.021-.272.937-.08 1.867-.151 2.789-.222 3.429-.264 6.668-.511 9.703-1.069 4.092-.751 8.393-1.615 12.127-2.854 4.49-1.481 8.06-3.676 10.67-5.418 3.987-2.667 4.805-4.932 4.805-7.507 0-.861 1.674-19.213 4.562-50.497l-.297 1.767c-1.452 8.65-5.046 16.613-10.392 23.026-1.357 1.63-3.384 3.814-5.333 4.967-5.92 3.507-9.575 4.636-14.247 5.497-3.743.687-17.245 2.571-27.635 2.571-10.214 0-23.072-2.272-25.546-2.727-4.945-.906-14.21-3.467-20.702-10.414-7.28-7.803-8.371-13.455-9.093-17.194-.152-.787-.283-1.464-.45-2.057l-.036-.17zM94.89 289.93c-4.772 0-8.969-.159-12.83-.483-4.63-.385-9.016-1.125-12.696-1.8-4.987-.916-9.425-2.3-12.33-3.262-4.897-1.616-8.674-3.334-11.547-5.253-4.534-3.034-6.833-6.474-6.833-10.224-.03-1.393-3.263-38.922-9.103-105.66l2.642-.307L41 223.637c.186.678.327 1.411.477 2.187.704 3.648 1.668 8.64 8.425 15.883 5.97 6.388 14.617 8.766 19.24 9.616 2.434.448 15.08 2.681 25.064 2.681 10.205 0 23.475-1.855 27.154-2.53 4.37-.803 7.795-1.865 13.372-5.167 1.267-.752 2.916-2.304 4.645-4.382 5.045-6.05 8.438-13.578 9.812-21.763l6.232-37.108 2.637.342c-4.018 43.437-7.814 84.462-7.85 85.947 0 3.994-1.79 6.9-5.987 9.709-2.75 1.838-6.52 4.152-11.312 5.732-3.887 1.288-8.297 2.177-12.483 2.946-3.173.582-6.479.836-9.98 1.104q-1.374.103-2.77.219-1.484.128-2.993.271c-3.159.3-6.425.607-9.793.607" style="fill:#211d1d;fill-opacity:1;fill-rule:nonzero;stroke:none;stroke-width:.0352778" transform="translate(61.862 38.238)scale(.48209)"/><path d="M36.669 62.442c-27.17-12.745-49.081-.246-59.313 11.466-12.887 14.753-12.083 50.14-10.345 67.761 1.814 18.387 10.047 42.82 22.94 56.882 19.956 21.767 70.362 25.83 65.239-7.955-2.307-15.215-11.744-15.296-20.374-12.135-8.327 3.051-6.484 14.827-17.167 14.312-24.612-1.186-31.682-27.76-34.18-45.657-3.14-22.493-5.21-61.464 24.357-64.24 13.426-1.264 11.91 24.651 30.795 22.411 19.977-2.37 13.005-35.828-1.952-42.845" style="fill:#fef1e5;fill-opacity:1;fill-rule:nonzero;stroke:none;stroke-width:.0352778" transform="translate(61.862 38.238)scale(.48209)"/><path d="M14.036 58.484c-15.427 0-28.123 7.652-35.678 16.299-14.202 16.26-10.841 58.458-10.023 66.756 1.675 16.983 9.46 41.786 22.597 56.113 6.137 6.695 15.692 12.058 26.214 14.718 10.425 2.631 20.335 2.257 27.191-1.02 7.718-3.694 11.017-10.802 9.538-20.553-.872-5.75-2.856-9.578-5.899-11.377-3.02-1.789-7.294-1.693-12.702.29-3.178 1.164-4.686 3.827-6.282 6.646-2.065 3.647-4.396 7.764-10.68 7.764q-.354-.001-.727-.017c-11.35-.547-20.257-6.343-26.474-17.233-4.303-7.536-7.234-17.205-8.96-29.567-3.722-26.663-1.384-45.526 6.95-56.063 4.504-5.694 10.762-8.954 18.6-9.688 6.953-.656 10.365 5.073 13.66 10.616 3.777 6.35 7.683 12.911 17.104 11.796 7.645-.906 10.132-6.554 10.873-11.133 1.774-10.979-4.657-25.16-13.234-29.186-7.756-3.637-15.184-5.16-22.068-5.16m16.45 158.263c-14.585 0-31.703-6.593-41.515-17.296-13.548-14.775-21.567-40.242-23.284-57.651-.554-5.616-1.693-20.288-.312-35.21 1.44-15.576 5.134-26.865 10.979-33.557 3.624-4.149 11.552-11.652 23.93-15.304 12.003-3.542 24.435-2.363 36.95 3.507 4.795 2.25 9.011 7.041 11.87 13.494 2.727 6.149 3.77 12.9 2.86 18.524-1.253 7.75-5.936 12.492-13.186 13.353q-1.284.152-2.454.151c-9.38 0-13.542-6.999-17.25-13.232-3.135-5.27-5.843-9.815-11.124-9.328-7.087.667-12.726 3.592-16.762 8.693-7.866 9.945-10.02 28.127-6.402 54.042 4.003 28.677 15.082 43.652 32.927 44.51 5.198.25 6.86-2.681 8.964-6.396 1.68-2.97 3.586-6.336 7.682-7.835 6.195-2.269 11.232-2.297 14.973-.081 3.762 2.226 6.176 6.688 7.173 13.268 1.648 10.869-2.265 19.162-11.02 23.35-4.27 2.043-9.453 2.999-14.998 2.999M94.863 36.605c-6.71 0-12.657-.257-18.18-.787-6.58-.631-12.776-1.83-17.971-2.92-5.436-1.144-10.817-2.766-17.447-5.268-6.91-2.61-12.23-5.376-16.267-8.466C18.775 14.4 15.62 9.067 15.62 3.306V.156c0-5.757 3.156-11.095 9.38-15.857 4.035-3.09 9.356-5.856 16.266-8.463 6.63-2.505 12.011-4.128 17.447-5.271 5.194-1.09 11.392-2.29 17.97-2.921 5.525-.53 11.471-.787 18.18-.787 4.748 0 9.36.498 13.82.981 1.417.155 2.88.31 4.297.448 1.34.127 2.671.244 3.99.36 2.753.243 5.353.47 7.943.79a1.33 1.33 0 0 1 1.157 1.482 1.327 1.327 0 0 1-1.483 1.157c-2.544-.31-5.121-.54-7.85-.78-1.325-.116-2.663-.233-4.01-.36a342 342 0 0 1-4.33-.451c-4.39-.476-8.929-.967-13.533-.967-6.624 0-12.488.254-17.927.776-6.449.618-12.555 1.8-17.677 2.876-5.297 1.114-10.557 2.702-17.055 5.154-6.663 2.515-11.762 5.16-15.589 8.089C21.085-9.355 18.28-4.73 18.28.156v3.15c0 4.886 2.804 9.511 8.335 13.745 3.827 2.928 8.926 5.573 15.589 8.089 6.498 2.452 11.758 4.04 17.055 5.154 5.123 1.076 11.23 2.258 17.678 2.875 5.438.522 11.301.776 17.926.776 4.605 0 9.146-.49 13.538-.967a353 353 0 0 1 4.324-.451c1.346-.127 2.682-.243 4.006-.36 4.86-.427 9.452-.829 13.765-1.736 5.515-1.16 11.879-2.617 17.27-4.65 6.42-2.423 11.52-6.007 15.247-8.861 5.707-4.367 8.602-8.95 8.602-13.614V.156c0-4.664-2.895-9.246-8.603-13.614-2.194-1.679-5.175-3.863-8.788-5.86a1.333 1.333 0 0 1-.52-1.81 1.334 1.334 0 0 1 1.807-.521c3.809 2.106 7.028 4.477 9.119 6.078 6.4 4.897 9.645 10.188 9.645 15.727v3.15c0 5.539-3.245 10.83-9.645 15.727-3.871 2.964-9.179 6.692-15.926 9.236-5.56 2.099-12.047 3.588-17.66 4.766-4.47.938-9.138 1.348-14.08 1.781-1.318.117-2.646.233-3.985.36-1.415.134-2.878.293-4.292.448-4.462.484-9.075.981-13.824.981" style="fill:#211d1d;fill-opacity:1;fill-rule:nonzero;stroke:none;stroke-width:.0352778" transform="translate(61.862 38.238)scale(.48209)"/><path d="M149.092 52.6a52 52 0 0 1-2.448 1.034c-5.023 1.947-10.801 3.372-16.942 4.702-5.417 1.171-11.302 1.52-17.389 2.117-2.873.29-5.8.652-8.78.938l.639-7.994 6.633-7.846s6.936 1.376 17.844.4c11.865-1.066 17.34-5.19 17.34-5.19z" style="fill:#ebb980;fill-opacity:1;fill-rule:nonzero;stroke:none;stroke-width:.0352778" transform="translate(61.862 38.238)scale(.48209)"/><path d="M94.86 63.18c-6.522 0-12.29-.258-17.634-.783-6.36-.635-12.385-1.835-17.44-2.928-6.74-1.457-12.591-3.578-16.935-5.264-6.705-2.614-11.868-5.383-15.787-8.47-6.028-4.759-9.083-10.082-9.083-15.822v-3.15c0-5.74 3.055-11.064 9.082-15.826 3.92-3.087 9.084-5.856 15.785-8.47C47.195.784 53.046-1.336 59.786-2.797c5.053-1.09 11.076-2.293 17.44-2.928 5.339-.525 11.107-.783 17.634-.783 4.603 0 9.07.501 13.388.984 1.382.152 2.81.314 4.193.448 1.257.124 2.508.237 3.747.35 1.341.12 2.67.24 3.983.37l-.257 2.586c-1.305-.13-2.626-.247-3.96-.367-1.245-.113-2.502-.226-3.768-.35-1.4-.14-2.836-.3-4.227-.454-4.248-.477-8.64-.967-13.099-.967-6.441 0-12.126.254-17.378.773-6.233.62-12.166 1.802-17.147 2.882-6.563 1.418-12.29 3.492-16.545 5.143-6.457 2.52-11.403 5.165-15.118 8.09-5.369 4.24-8.092 8.879-8.092 13.783v3.15c0 4.903 2.723 9.539 8.094 13.783 3.712 2.92 8.659 5.567 15.119 8.09 4.253 1.647 9.979 3.72 16.542 5.143 4.983 1.076 10.918 2.26 17.148 2.882 5.256.518 10.941.769 17.377.769 2.481 0 5.117-.148 8.547-.483 1.606-.156 3.218-.332 4.777-.505 1.345-.152 2.678-.3 4-.43 1.275-.127 2.538-.24 3.79-.353 4.754-.427 9.244-.833 13.454-1.743 5.34-1.157 11.507-2.614 16.747-4.646a51 51 0 0 0 2.38-1.002c5.17-2.37 9.347-5.44 12.408-7.853 5.546-4.378 8.359-8.974 8.359-13.652v-3.15c0-4.682-2.813-9.275-8.36-13.656-2.715-2.138-6.413-4.883-10.941-7.144l1.161-2.325c4.74 2.367 8.576 5.214 11.389 7.426 6.204 4.9 9.35 10.181 9.35 15.699v3.15c0 5.514-3.146 10.795-9.349 15.695-3.175 2.501-7.514 5.69-12.939 8.174-.828.374-1.65.723-2.515 1.062-5.411 2.095-11.701 3.584-17.14 4.762-4.367.946-8.934 1.355-13.77 1.792-1.246.113-2.503.226-3.768.35-1.31.13-2.634.278-3.97.426-1.568.173-3.19.353-4.812.508-3.515.346-6.229.498-8.798.498" style="fill:#211d1d;fill-opacity:1;fill-rule:nonzero;stroke:none;stroke-width:.0352778" transform="translate(61.862 38.238)scale(.48209)"/><path d="m80.977 27.26-2.426-.095a.67.67 0 0 1-.657-.688l.122-3.122a.67.67 0 0 1 .708-.635l2.426.091a.677.677 0 0 1 .657.692l-.121 3.122a.673.673 0 0 1-.709.635m1.927 20.31-2.028-1.927a.73.73 0 0 1 .005-1.08l1.579-1.47a.845.845 0 0 1 1.145.003l2.027 1.926c.315.3.314.783-.004 1.08l-1.579 1.47a.845.845 0 0 1-1.145-.003m12.081-6.9-.814-1.196c-.375-.55-.18-1.429.436-1.965.615-.536 1.418-.522 1.792.028l.814 1.196c.374.55.179 1.429-.436 1.965-.616.533-1.418.522-1.792-.028m-8.67-13.377.97-.734c.448-.339 1.435.007 2.205.769s1.033 1.655.587 1.993l-.971.734c-.447.339-1.434-.007-2.204-.77-.771-.761-1.034-1.654-.587-1.992m14.005 17.692-1.327-1.51a.65.65 0 0 1 .003-.844l1.468-1.64a.493.493 0 0 1 .75.004l1.327 1.51a.65.65 0 0 1-.004.843l-1.467 1.636a.49.49 0 0 1-.75 0m9.273-1.852-1.745-2.3c-.271-.36-.269-.935.006-1.29l1.038-1.345c.274-.353.716-.353.988.004l1.745 2.3c.27.36.268.935-.006 1.29l-1.038 1.345c-.275.356-.717.353-.988-.004m5.024 7.716-.697-1.732c-.108-.272-.002-.59.237-.71l1.783-.91c.239-.123.521-.003.63.265l.696 1.736c.108.271.002.589-.237.709l-1.782.91c-.24.123-.522.003-.63-.268m7.061-.287-.647-.736a.314.314 0 0 1 .002-.41l.324-.363a.238.238 0 0 1 .366.004l.647.733c.1.113.1.3-.002.413l-.324.36a.24.24 0 0 1-.366 0m-20.087 2.924-.647-.733a.32.32 0 0 1 .002-.413l.325-.36a.24.24 0 0 1 .365 0l.647.737c.1.113.1.297-.002.41l-.324.363a.237.237 0 0 1-.366-.004m46.075-14.079-.646-.737a.314.314 0 0 1 .002-.41l.324-.363a.238.238 0 0 1 .366.004l.646.733c.1.113.1.3-.002.413l-.324.36a.24.24 0 0 1-.366 0m-2.996 5.68-1.275.17c-.198.024-.378-.135-.401-.357l-.112-1.087c-.023-.222.118-.427.317-.451l1.276-.17c.198-.024.378.134.4.357l.113 1.086c.023.223-.12.424-.317.452m-34.396-21.957-1.281.123c-.2.022-.373-.144-.388-.37l-.075-1.087c-.016-.225.133-.423.332-.44l1.282-.128c.198-.017.372.149.388.37l.074 1.091c.016.222-.133.42-.332.44M94.24 31.49l-1.28.127c-.2.017-.373-.148-.388-.37l-.075-1.09c-.016-.223.133-.42.332-.442l1.281-.123c.2-.021.373.144.388.37l.075 1.087c.016.226-.133.423-.332.44m15.911.223-1.281.123c-.2.022-.373-.144-.388-.37l-.076-1.086c-.015-.226.134-.424.333-.441l1.281-.127c.2-.018.373.148.388.37l.075 1.09c.016.226-.133.42-.332.441m-27.359.346-1.282.123c-.199.021-.372-.144-.388-.37l-.075-1.087c-.015-.226.134-.423.333-.44l1.281-.124c.199-.021.373.144.388.37l.075 1.087c.015.226-.133.42-.332.44m-7.91 16.761-1.276.17c-.199.024-.378-.135-.401-.357l-.113-1.086c-.023-.223.12-.427.317-.452l1.277-.17c.198-.024.377.135.4.357l.113 1.087c.023.222-.12.423-.317.451m57.961-.547-1.276.17c-.198.024-.377-.134-.4-.357l-.113-1.086c-.023-.222.119-.427.317-.452l1.276-.169c.198-.025.378.134.401.356l.112 1.087c.023.222-.118.423-.317.451m-34.52 1.796-1.276.17c-.198.024-.378-.135-.4-.357l-.113-1.086c-.023-.223.119-.427.317-.452l1.276-.17c.198-.024.378.135.401.357l.112 1.086c.023.223-.119.424-.317.452M55.06 42.458l-1.275.169c-.199.028-.378-.134-.401-.356l-.113-1.083c-.022-.226.12-.427.318-.455l1.276-.166c.198-.028.377.13.4.356l.113 1.083c.023.226-.119.427-.317.452m83.474 5.104-.22-1.245c-.034-.194.078-.385.25-.423l.837-.187c.172-.04.34.084.373.278l.22 1.25c.035.193-.077.38-.25.419l-.836.19c-.172.04-.34-.088-.374-.282m15.749-26.437-.177-1.252c-.027-.194.091-.381.264-.413l.843-.159c.174-.031.337.1.364.293l.177 1.252c.027.198-.09.381-.264.413l-.843.159c-.173.035-.336-.099-.364-.293M108.848 48.36l-1.703-1.253c-.265-.194-.339-.592-.166-.889l.842-1.45c.173-.3.528-.38.792-.187l1.703 1.253c.264.194.338.592.165.889l-.841 1.45c-.174.3-.528.384-.792.187m3.599-19.562-1.658-1.309c-.257-.204-.318-.607-.135-.9l.891-1.417c.183-.293.54-.364.798-.16l1.659 1.31c.257.204.318.606.135.896l-.892 1.421c-.183.29-.54.364-.798.16m-61.912 9.415-1.702-1.253c-.265-.197-.339-.596-.166-.892l.841-1.45c.174-.296.528-.381.793-.187l1.702 1.252c.265.194.339.593.166.893l-.841 1.45c-.174.296-.528.38-.793.187m50.995-5.98-1.658-1.309c-.258-.204-.318-.606-.134-.9l.89-1.417c.184-.293.541-.364.799-.16l1.658 1.31c.258.204.318.606.134.896l-.89 1.421c-.184.29-.541.364-.799.16m-8.645 14.671.293-1.436c.045-.222.243-.363.441-.31l.963.247c.198.053.322.275.276.497l-.293 1.436c-.045.222-.243.363-.44.31l-.964-.246c-.198-.053-.322-.276-.276-.498m61.402-17.692.293-1.435c.046-.223.243-.364.441-.31l.963.246c.199.053.322.275.277.497l-.293 1.436c-.046.223-.244.364-.442.31l-.963-.246c-.198-.053-.322-.275-.276-.498M111.18 16.712l.343-1.425c.053-.219.256-.353.452-.297l.954.283c.196.06.312.285.259.504l-.343 1.425c-.053.223-.255.357-.451.297l-.954-.28c-.197-.06-.313-.285-.26-.507m-37.276 2.325.342-1.426c.053-.222.256-.356.452-.296l.954.279c.196.06.312.286.259.508l-.343 1.425c-.053.219-.255.353-.451.296l-.954-.282c-.197-.06-.313-.286-.26-.504m38.685 2.303.342-1.425c.053-.222.255-.356.452-.296l.954.278c.196.06.312.286.259.508l-.343 1.426c-.053.218-.255.352-.451.296l-.955-.282c-.196-.06-.311-.286-.258-.505m36.455.84.342-1.425c.053-.223.255-.357.451-.297l.955.283c.196.056.312.282.258.504l-.342 1.425c-.053.223-.256.353-.452.297l-.954-.283c-.196-.056-.312-.285-.259-.504M58.121 46.536l.294-1.436c.045-.222.243-.363.44-.31l.964.246c.198.05.321.272.276.498l-.293 1.436c-.046.222-.243.36-.441.31l-.964-.247c-.198-.053-.321-.275-.276-.497m91.818-11.963.293-1.436c.045-.226.243-.363.44-.314l.964.25c.198.05.321.272.276.495l-.293 1.435c-.046.226-.243.364-.441.314l-.963-.25c-.198-.05-.322-.272-.276-.494M33.641 29.419l.294-1.436c.045-.222.243-.363.441-.31l.963.247c.198.049.322.271.276.497l-.293 1.436c-.045.222-.243.36-.44.31l-.964-.247c-.198-.053-.322-.275-.277-.497m53.406 12.714-.275-2.244c-.052-.426.212-.818.59-.878l2.433-.381c.378-.056.727.24.78.663l.274 2.244c.052.427-.212.818-.59.878l-2.433.381c-.379.06-.727-.24-.78-.663m-8.356-.945-2.027-1.49c-.315-.232-.403-.705-.197-1.061l1.001-1.725c.206-.353.628-.455.943-.222l2.026 1.488c.315.233.403.71.197 1.062l-1 1.725c-.207.357-.63.455-.944.223m-5.5 3.626-1.37-1.845c-.213-.286-.067-.642.326-.797l.641-.25c.394-.156.886-.05 1.099.24l1.37 1.844c.213.286.066.642-.327.798l-.64.25c-.395.155-.886.05-1.1-.24m35.364-30.96-.992-1.51c-.154-.236-.048-.529.237-.656l.465-.204c.285-.127.641-.04.795.197l.993 1.51c.154.233.048.526-.238.653l-.464.204c-.285.127-.641.04-.796-.194m-3.325 13.696-1.308-1.85c-.203-.285-.044-.63.354-.768l.649-.223c.398-.137.886-.014 1.09.272l1.307 1.849c.203.289.045.631-.353.769l-.65.222c-.398.137-.886.018-1.089-.272M85.914 49.488l.013-1.301c.002-.205.174-.293.385-.198l.342.152c.21.095.379.335.377.54l-.014 1.301c-.002.201-.174.29-.384.198l-.343-.155c-.21-.096-.378-.335-.376-.537M65.39 14.133l.059-1.302c.01-.2.184-.282.39-.18l.338.163c.206.102.367.349.358.55l-.059 1.302c-.009.204-.184.286-.39.183l-.338-.166c-.206-.098-.366-.345-.358-.55m35.23 5.179 1.27 2.434c.197.381.115.92-.184 1.207l-1.132 1.09c-.298.285-.701.211-.899-.166l-1.27-2.434c-.197-.378-.115-.918.184-1.207l1.132-1.086c.299-.29.701-.216.899.162m-34.7 25.566 2.742.155c.426.021.848.37.942.772l.357 1.528c.095.406-.175.713-.6.691l-2.743-.155c-.426-.024-.848-.37-.942-.772l-.357-1.531c-.094-.403.175-.713.6-.688m41.195-29.221.605 2.664c.094.412-.122.843-.482.956l-2.682.864c-.36.113-.728-.127-.823-.54l-.604-2.663c-.094-.413.122-.843.482-.96l2.682-.86c.36-.117.728.126.822.54m-16.847 3.128 1.525 2.484c.237.384.154.924-.184 1.206l-1.081.893c-.34.282-.806.194-1.043-.19l-1.525-2.484c-.237-.385-.155-.925.184-1.207l1.081-.892c.339-.282.805-.194 1.043.19m11.29-8.389.487.79a.31.31 0 0 1-.059.388l-.345.286c-.108.088-.257.06-.333-.063l-.487-.79a.31.31 0 0 1 .059-.389l.345-.285c.108-.089.257-.06.333.063m-20.27 4.085 1.39 1.46c.215.23.227.618.026.872l-.975 1.231c-.201.25-.54.272-.755.046l-1.39-1.46a.686.686 0 0 1-.027-.872l.976-1.23c.2-.251.539-.272.755-.047m-38.466 28.48 1.186.007c.185 0 .332.177.33.388l-.013 1.034c-.003.215-.154.384-.338.384l-1.186-.01c-.185 0-.332-.173-.33-.388l.013-1.034c.002-.212.154-.384.338-.38M87.64 11.752l.029 1.203c.004.187-.124.346-.286.353l-.789.038c-.161.011-.296-.134-.3-.32l-.028-1.204c-.005-.187.124-.345.285-.352l.789-.043c.162-.007.297.138.3.325m41.23 37.059.027 1.2c.004.187-.124.345-.286.356l-.788.039c-.162.007-.297-.138-.301-.325l-.028-1.203c-.004-.187.124-.342.286-.353l.788-.038c.162-.008.297.137.301.324M95.593 24.83l1.376 1.446a.68.68 0 0 1 .027.864l-.966 1.217c-.2.25-.534.272-.748.046l-1.377-1.446a.676.676 0 0 1-.027-.861l.967-1.22c.2-.251.534-.272.748-.047M41.442 37.004l-.421 1.312c-.066.205-.261.31-.437.236l-.856-.36c-.176-.074-.265-.3-.2-.504l.42-1.309c.066-.204.262-.31.438-.236l.855.36c.176.074.266.3.2.5m107.783-6.853-.421 1.308c-.065.205-.261.31-.437.236l-.856-.36c-.175-.074-.265-.3-.2-.504l.421-1.309c.066-.204.261-.31.437-.236l.856.36c.176.074.265.3.2.504m-44.466 8.396-.421 1.313c-.066.2-.261.307-.437.232l-.856-.36c-.176-.073-.265-.296-.2-.5l.421-1.313c.066-.204.261-.307.437-.232l.856.36c.176.07.265.296.2.5M93.833 13.572l2.493 1.588c.282.18.38.589.22.917l-1.033 2.117c-.16.328-.52.448-.802.268l-2.493-1.584c-.281-.18-.38-.593-.22-.921l1.034-2.113c.16-.328.519-.452.801-.272M31.652 34.827l-.15 1.22c-.024.191-.191.251-.373.135l-.297-.187c-.183-.117-.312-.364-.288-.554l.15-1.224c.024-.19.19-.25.373-.134l.297.19c.183.117.312.364.288.554m36.375-5.143-1.08.592c-.167.092-.313-.007-.326-.222l-.02-.353c-.014-.215.112-.465.28-.557l1.079-.593c.167-.092.314.007.326.222l.022.353c.012.215-.113.466-.28.558m36.115 18.023-1.079.596c-.167.092-.314-.01-.326-.226l-.021-.349c-.013-.219.112-.466.28-.56l1.08-.593c.167-.092.313.007.326.222l.02.353c.014.215-.112.465-.28.557M59.682 26.819l-1.318-1.252c-.606-.579-1.59-.639-2.199-.13-.608.504-.61 1.382-.003 1.96l1.317 1.256c.607.579 1.591.635 2.2.131.608-.508.61-1.386.003-1.965m16.348 1.623-1.144-.413c-.527-.19-1.368.43-1.877 1.386-.51.956-.496 1.888.03 2.078l1.146.413c.527.19 1.367-.43 1.877-1.386s.496-1.888-.031-2.078m-21.947-11.49.934-.297a.316.316 0 0 0 .211-.352l-.09-.477a.24.24 0 0 0-.314-.187l-.934.293a.32.32 0 0 0-.211.353l.09.48a.24.24 0 0 0 .314.187m9.371 23.276 1.032.77c.16.12.395.066.524-.117l.627-.893c.13-.183.104-.43-.057-.55l-1.031-.77c-.16-.12-.395-.066-.524.117l-.627.893c-.13.183-.104.43.056.55M42.552 15.833l.834-.956c.129-.148.13-.366.004-.486l-.62-.597c-.126-.123-.335-.102-.464.046l-.834.956c-.13.148-.131.367-.004.487l.619.596c.127.124.335.103.465-.046m14.051 7.187 2.105-.19c.326-.03.597-.333.603-.678l.03-1.676c.006-.346-.254-.6-.581-.571l-2.105.19c-.327.032-.597.335-.603.677l-.03 1.676c-.006.346.254.6.58.572m-16.608-.819.492-1.383c.077-.215-.02-.434-.216-.494l-.952-.285c-.196-.06-.417.067-.494.282l-.492 1.38c-.076.214.02.437.217.493l.952.286c.196.06.417-.067.493-.279m10.051.931.492-1.379c.077-.215-.02-.437-.216-.497l-.953-.286c-.196-.057-.417.067-.493.282l-.492 1.38c-.077.215.02.437.216.497l.953.286c.196.056.417-.067.493-.283m22.919 3.306.492-1.38c.077-.215-.02-.437-.216-.497l-.953-.286c-.196-.056-.417.067-.493.283l-.492 1.383c-.077.211.02.433.216.493l.953.286c.195.06.416-.067.493-.282m-28.83 6.05.444-1.397c.069-.219-.036-.434-.233-.487l-.962-.254c-.198-.053-.414.081-.484.3l-.444 1.397c-.069.215.036.434.233.487l.962.25c.198.053.415-.08.484-.296m25.813 3.38-1.52 1.577c-.235.243-.265.628-.066.857l1.483 1.704c.199.23.551.215.788-.028L72.15 38.4c.236-.244.265-.628.066-.858l-1.482-1.703c-.2-.23-.552-.216-.788.028m-3.789-12.523-2.635 1.245c-.41.194-.636.692-.505 1.112l.417 1.34c.13.42.568.603.977.41l2.635-1.246c.41-.194.635-.691.505-1.111l-.416-1.337c-.131-.423-.569-.603-.978-.413m-4.536-5.32-.68.995c-.106.152-.085.356.046.452l.638.462c.131.095.323.05.43-.106l.68-.991c.106-.152.085-.357-.047-.452l-.637-.466c-.132-.095-.324-.045-.43.106m-10.035 7.084-.319 1.34c-.05.209.064.4.253.427l.918.134c.189.029.382-.12.43-.328l.32-1.337c.049-.208-.064-.402-.253-.426l-.918-.138c-.19-.028-.382.12-.431.328m8.247 9.708-2.511.057c-.284.007-.537.26-.564.571l-.18 1.994c-.027.31.181.553.465.55l2.511-.06c.284-.004.537-.261.565-.572l.179-1.993c.028-.31-.18-.554-.465-.547m7.119-17-.503 1.125c-.079.173.033.31.25.307l.352-.007c.215-.007.454-.151.532-.324l.504-1.126c.078-.176-.033-.314-.25-.307l-.352.008c-.216.003-.455.151-.533.324" style="fill:#793919;fill-opacity:1;fill-rule:nonzero;stroke:none;stroke-width:.0352778" transform="translate(61.862 38.238)scale(.48209)"/></svg>