<svg xmlns="http://www.w3.org/2000/svg" xml:space="preserve" width="200mm" height="200mm" viewBox="0 0 200 200"><defs><clipPath id="a" clipPathUnits="userSpaceOnUse"><path d="M17287.8 4969.8c-211.2 0-415.7 23.2-613.1 37.8-218.8 16.2-430.1 25.1-625.1 58-221 37.2-428.9 77.2-609.7 132.7-223.1 68.4-400.7 167.9-544.8 258.2-28.7 17.9-54.4 35.8-77.8 53.6-68.3 102.4-131.7 208.3-190.2 317.2-406.4 755.9-581.2 1654.5-593.7 2517.1-14.9 1017.8 396.2 1997.3 712.7 2747.9 2.9 6.9 10.4 13.9 22 20.9 39.6 112.4 137.3 216.5 279.4 315 134.7 93.3 301 193.1 510.1 264.9 169.4 58.3 360.6 112.5 568.1 152.6 183 35.4 381.4 54 587 72.7 189.6 17.3 387.7 27.6 591.2 28.6 8.3.1 16.5.1 24.8.1 194.7 0 384.1-11.8 566.2-26.5 205.7-16.6 399.8-51.2 583.1-84.7 207.9-38.1 398-84.7 568-141.2 209.7-69.7 385.7-149.3 521.3-241.2 167.2-113.4 268.3-236.7 291.1-371.7 184.4-300.6 623.4-1280.5 692.6-2677.2 35.4-715.3 18.4-1376.3-540.3-2548-33.1-69.4-68-140.5-105-213.6-49.7-57.5-115.7-112.9-198-165.6-143.3-91.7-331.8-170.9-554.2-241.6-180.1-57.2-380.1-113.9-600.8-153.4-194.6-34.9-402.5-68.4-621.1-86.8-201.7-17.1-413.1-24.7-629.4-25.8z"/></clipPath></defs><g clip-path="url(#a)" transform="matrix(.01671 0 0 -.01671 -189.038 261.997)"><path d="M14018.5 4969.8h4604.302v4891.304H14018.5Z" style="fill:#eef6f6;fill-opacity:1;fill-rule:nonzero;stroke:none;stroke-width:.701031"/></g><path d="M-7.27 240.216a36 36 0 0 0 2.427 1.658c4.61 2.886 10.918 6.509 18.863 8.946 6.664 2.043 14.513 3.49 21.315 4.636 5.33.896 10.989 1.28 16.982 1.683q2.445.162 4.932.345c1.76.13 3.57.283 5.317.43 5.415.456 11.02.932 16.7.9 8.163-.042 15.388-.338 22.084-.903 7.945-.674 15.466-1.915 21.773-3.044 8.365-1.5 15.618-3.655 21.001-5.366 8.21-2.61 14.485-5.341 19.191-8.357 2.696-1.725 4.893-3.55 6.537-5.419a334 334 0 0 0 3.602-7.334c19.583-41.06 20.176-63.754 18.916-89.158-2.314-46.708-16.848-81.735-24.21-93.73l-.156-.25-.05-.29c-.705-4.187-3.944-8.261-9.623-12.113-4.491-3.045-10.555-5.846-18.02-8.326-5.779-1.92-12.453-3.577-19.83-4.925-5.778-1.055-12.968-2.37-20.422-2.97-5.602-.452-13.014-.98-20.719-.928-6.83.035-13.804.374-20.725 1.002-6.559.596-13.992 1.273-20.56 2.543-6.573 1.27-13.247 3.066-19.837 5.33-7.828 2.69-13.808 6.518-17.621 9.16-4.953 3.433-8.079 6.921-9.292 10.372l-.18.515-.47.278a2 2 0 0 0-.208.145c-10.777 25.559-25.495 60.526-24.976 96.21.483 33.27 7.665 63.736 20.764 88.102a137 137 0 0 0 6.495 10.859m86.032 21.629c-5.638 0-11.13-.466-16.45-.914-1.743-.145-3.542-.296-5.288-.427a672 672 0 0 0-4.911-.342c-6.068-.41-11.8-.797-17.28-1.718-6.9-1.164-14.872-2.635-21.702-4.727-8.283-2.54-14.817-6.29-19.58-9.275a38 38 0 0 1-2.857-1.968l-.2-.156-.142-.208a139 139 0 0 1-6.784-11.317C-29.76 206-37.066 175.051-37.56 141.3c-.529-36.378 14.38-71.733 25.263-97.55.176-.416.48-.786.92-1.125 1.539-3.944 4.897-7.673 10.249-11.38 3.961-2.745 10.177-6.721 18.362-9.533 6.724-2.31 13.536-4.141 20.246-5.44 6.72-1.298 14.23-1.982 20.86-2.585 7.01-.639 14.068-.978 20.986-1.013 7.81-.035 15.314.476 20.976.935 7.606.614 14.88 1.94 20.722 3.01 7.518 1.375 14.327 3.068 20.243 5.033 7.839 2.604 13.977 5.447 18.764 8.693 6.265 4.247 9.917 8.893 10.859 13.818 3.577 5.906 9.02 17.54 13.747 32.823 6.072 19.61 9.691 40.505 10.76 62.095.702 14.175.663 25.683-1.69 39.24-2.73 15.713-8.297 32.036-17.515 51.375a364 364 0 0 1-3.722 7.567l-.085.162-.12.141c-1.845 2.142-4.307 4.202-7.316 6.128-4.932 3.161-11.444 6.005-19.907 8.693-8.128 2.582-14.725 4.268-21.386 5.46-6.378 1.14-13.984 2.4-22.052 3.08-6.773.575-14.076.872-22.324.914q-.26.005-.518.004" style="fill:#211d1d;fill-opacity:1;fill-rule:nonzero;stroke:none;stroke-width:.0352778" transform="translate(62.528 55.645)scale(.47366)"/><path d="M180.214 73.317c.028 5.563-3.923 10.76-11.416 15.391-5.334 3.295-12.348 6.139-20.624 8.679-6.706 2.056-14.146 4.092-22.359 5.514-7.242 1.252-14.979 2.455-23.114 3.122-7.507.61-15.37.885-23.42.927s-15.84-.818-23.355-1.354c-8.142-.582-16.005-.9-23.262-2.078-8.223-1.334-15.96-2.77-22.687-4.759-8.3-2.452-14.908-6.025-20.274-9.267-7.539-4.555-11.889-9.575-11.917-15.135-.028-5.563 4.353-10.544 11.846-15.173 5.334-3.295 11.917-6.822 20.193-9.359a184 184 0 0 1 22.486-5.397c7.243-1.253 15.096-1.912 23.23-2.576a308 308 0 0 1 23.4-1.023c8.047-.042 15.876.381 23.386.918 8.142.582 15.822 1.799 23.079 2.98 8.223 1.334 15.744 2.978 22.472 4.964 8.3 2.455 15.261 5.26 20.627 8.499 7.542 4.554 11.68 9.567 11.709 15.127" style="fill:#fdf9e6;fill-opacity:1;fill-rule:nonzero;stroke:none;stroke-width:.0352778" transform="translate(62.528 55.645)scale(.47366)"/><path d="M80.01 42.343h-1.06a308 308 0 0 0-23.284 1.02c-7.362.599-15.709 1.28-23.096 2.557S17.68 49 10.27 51.272c-8.815 2.705-15.546 6.547-19.84 9.2-7.514 4.643-11.15 9.18-11.126 13.875.021 4.723 3.785 9.38 11.183 13.85 4.868 2.938 11.529 6.629 19.921 9.109 7.035 2.08 15.322 3.552 22.5 4.72 5.631.913 11.603 1.301 17.929 1.71 1.718.114 3.453.223 5.2.35 1.855.13 3.767.286 5.612.437 5.715.463 11.624.946 17.622.91 8.618-.042 16.242-.345 23.308-.92 8.389-.685 16.323-1.955 22.98-3.105 6.893-1.192 13.73-2.878 22.172-5.468 8.664-2.66 15.296-5.447 20.27-8.52 7.123-4.402 10.721-9.143 10.697-14.093-.025-4.801-3.715-9.458-10.975-13.84-5.056-3.054-11.875-5.859-20.274-8.342-6.499-1.92-13.995-3.578-22.285-4.925-6.488-1.051-14.563-2.364-22.942-2.96-6.036-.434-13.945-.917-22.21-.917m-1.294 66.124c-5.934 0-11.712-.469-17.311-.924a595 595 0 0 0-5.584-.437 737 737 0 0 0-5.183-.346c-6.4-.416-12.442-.808-18.214-1.746-7.274-1.179-15.68-2.674-22.877-4.802C.826 97.634-6.057 93.82-11.08 90.79c-8.361-5.052-12.62-10.577-12.647-16.426-.032-5.838 4.078-11.225 12.562-16.47 4.438-2.742 11.395-6.71 20.546-9.519a186 186 0 0 1 22.673-5.44c7.521-1.301 15.938-1.986 23.364-2.592 7.85-.643 15.762-.988 23.513-1.027 8.756-.046 17.16.47 23.506.92 8.512.607 16.665 1.93 23.212 2.996 8.414 1.365 16.038 3.051 22.66 5.01 8.766 2.589 15.627 5.421 20.979 8.653 8.223 4.967 12.407 10.488 12.439 16.415.032 6.078-4.05 11.69-12.136 16.686-5.196 3.214-12.058 6.103-20.972 8.837-8.57 2.632-15.522 4.343-22.546 5.56-6.72 1.16-14.74 2.445-23.248 3.14-7.144.582-14.845.889-23.538.93-.19 0-.38.005-.571.005" style="fill:#211d1d;fill-opacity:1;fill-rule:nonzero;stroke:none;stroke-width:.0352778" transform="translate(62.528 55.645)scale(.47366)"/><path d="M164.134 242.42c-5.055 3.236-11.705 6.03-19.551 8.524-6.357 2.021-13.41 4.018-21.195 5.411-6.865 1.232-14.2 2.413-21.911 3.066-7.115.6-14.573.868-22.204.907-7.63.039-15.014-.808-22.137-1.334-7.718-.571-15.173-.885-22.052-2.046-7.796-1.312-15.13-2.727-21.509-4.681-7.87-2.413-14.135-5.923-19.219-9.109-1.012-.631-2.639-1.718-2.582-1.637 18.87 28.134 24.698 44.64 85.848 45.452 54.32.72 75.488-14.901 93.31-50.02.063-.127-3.895 3.609-6.798 5.468" style="fill:#deeeee;fill-opacity:1;fill-rule:nonzero;stroke:none;stroke-width:.0352778" transform="translate(62.528 55.645)scale(.47366)"/><path d="m-3.157 246.439.314.48c15.992 24.373 24.8 37.8 80.483 38.537 51.936.68 72.489-14.316 88.357-42.474-.357.257-.706.497-1.048.712-4.932 3.161-11.444 6.004-19.907 8.693-8.128 2.582-14.725 4.268-21.386 5.46-6.378 1.14-13.984 2.4-22.052 3.08-6.773.575-14.076.872-22.324.914-5.828.028-11.486-.448-16.968-.91-1.743-.145-3.542-.296-5.288-.427a672 672 0 0 0-4.911-.342c-6.068-.41-11.8-.797-17.28-1.718-6.9-1.164-14.872-2.635-21.702-4.727-6.516-1.997-11.949-4.745-16.288-7.278m84.258 42.072q-1.729.001-3.5-.025c-57.295-.758-66.96-15.494-82.977-39.906-1.316-2.004-2.674-4.074-4.106-6.212l-.692-1.027.868-.885c.868-.882 1.87-.247 2.247-.007a177.54 177.54 0 0 0 2.216 1.425c4.61 2.886 10.918 6.509 18.863 8.946 6.664 2.043 14.513 3.49 21.315 4.636 5.33.896 10.989 1.28 16.982 1.683q2.445.162 4.932.345c1.76.13 3.57.283 5.317.43 5.415.456 11.006.936 16.7.9 8.163-.042 15.388-.338 22.084-.903 7.945-.674 15.466-1.915 21.773-3.044 8.365-1.5 15.618-3.655 21.001-5.366 8.21-2.61 14.485-5.341 19.191-8.357 2.114-1.351 4.869-3.796 6.044-4.837.666-.593 1.499-1.33 2.497-.557l.995.765-.568 1.122c-9.952 19.607-19.988 31.295-33.567 39.077-13.99 8.026-32.364 11.797-57.615 11.797" style="fill:#211d1d;fill-opacity:1;fill-rule:nonzero;stroke:none;stroke-width:.0352778" transform="translate(62.528 55.645)scale(.47366)"/><path d="M-14.266-2.181 35.285 140.03s21.322-8.343 24.875-18.224c3.552-9.885-46.793-145.687-46.793-145.687z" style="fill:#9b5f20;fill-opacity:1;fill-rule:nonzero;stroke:none;stroke-width:.0352778" transform="translate(62.528 55.645)scale(.47366)"/><path d="m-12.622-1.698 48.74 139.873c4.642-1.99 19.928-9.045 22.73-16.842.617-1.718-.297-12.527-22.07-75.621C26.353 15.5 15.477-14.133 12.722-21.602Zm47.068 143.552L-15.91-2.66l29.92-23.495.663 1.792c.127.339 12.731 34.368 24.74 69.166 24.444 70.834 22.648 75.833 22.059 77.473-3.725 10.361-24.783 18.7-25.679 19.054z" style="fill:#211d1d;fill-opacity:1;fill-rule:nonzero;stroke:none;stroke-width:.0352778" transform="translate(62.528 55.645)scale(.47366)"/><path d="M-2.236-10.133S-.391-6.35-4.83-5.325c-2.54.586-6.096-2.677-5.595-5.983.607-3.99 6.043-7.256 8.276-5.394C.082-14.842 8.266-8.754 1.81-3.289-4.353 1.932-9.168 2.348-13.5-1.864c-2.688-2.621-6.989-10.227-.272-18.62 4.918-6.145 12.467-8.956 15.836-9.345 4.766-.55 9.028.727 12.39 5.881 2.819 4.322 2.296 8.224-1.39 11.504-3.4 3.02-6 2.329-8.615 1.062-2.452-1.189-5.024-4.783-4.932-7.563.127-3.91 4.008-5.176 6.488-5.19 2.48-.01 6.022 3.747 4.406 6.121-1.62 2.37-4.561 1.961-4.561 1.961z" style="fill:#ca851a;fill-opacity:1;fill-rule:nonzero;stroke:none;stroke-width:.0352778" transform="translate(62.528 55.645)scale(.47366)"/><path d="M4.036-28.551q-.867-.001-1.81.109c-2.822.324-10.174 2.91-14.911 8.826-5.906 7.38-2.48 14.186.158 16.754C-9.838-.248-6.14 1.618.911-4.354c1.316-1.112 1.95-2.251 1.94-3.479-.025-2.995-3.842-6.12-5.475-7.454q-.232-.191-.416-.346c-.36-.3-1.126-.282-1.997.05-1.711.649-3.697 2.44-4.011 4.487-.205 1.348.603 2.646 1.429 3.408.814.755 1.81 1.157 2.476 1.005.935-.215 1.528-.571 1.76-1.058.357-.744-.102-1.771-.105-1.782a1.393 1.393 0 1 1 2.504-1.22c.11.222 1.044 2.254.117 4.201-.618 1.292-1.845 2.16-3.648 2.576-1.602.367-3.471-.258-4.999-1.676-1.746-1.62-2.6-3.814-2.29-5.874.498-3.27 3.345-5.75 5.78-6.674 1.569-.597 3.054-.582 4.18.02a6 6 0 0 1-.032-.818c.144-4.466 4.184-6.519 7.874-6.54h.017c2.018 0 4.403 1.637 5.56 3.81.85 1.594.843 3.231-.014 4.487-2.081 3.055-5.75 2.579-5.905 2.558a1.395 1.395 0 0 1-1.19-1.574 1.395 1.395 0 0 1 1.574-1.185c.078.007 2.124.24 3.217-1.369.332-.483.106-1.143-.14-1.608-.713-1.337-2.22-2.332-3.098-2.332h-.007c-1.722.01-5.006.825-5.101 3.842-.074 2.257 2.215 5.33 4.145 6.261 2.247 1.09 4.194 1.718 7.08-.85 3.186-2.83 3.56-6.004 1.15-9.698-2.388-3.665-5.288-5.365-9.25-5.365M-7.294 2.384c-2.57 0-4.95-1.083-7.176-3.25-3.264-3.178-7.546-11.546-.388-20.489 5.087-6.36 12.982-9.419 16.764-9.856 5.926-.685 10.417 1.442 13.716 6.505 3.153 4.836 2.575 9.56-1.634 13.303-3.26 2.896-6.043 2.85-8.558 1.95a7 7 0 0 1 .208 1.599c.018 2.078-.967 3.969-2.925 5.627C-.92.849-4.24 2.383-7.295 2.383" style="fill:#211d1d;fill-opacity:1;fill-rule:nonzero;stroke:none;stroke-width:.0352778" transform="translate(62.528 55.645)scale(.47366)"/><path d="m4.449-11.382 47.375 142.399z" style="fill:#ca851a;fill-opacity:1;fill-rule:nonzero;stroke:none;stroke-width:.0352778" transform="translate(62.528 55.645)scale(.47366)"/><path d="M51.824 132.41c-.586 0-1.13-.37-1.323-.956L3.126-10.944a1.39 1.39 0 0 1 .882-1.76 1.39 1.39 0 0 1 1.76.881l47.378 142.399c.24.73-.155 1.52-.885 1.76q-.22.075-.437.074" style="fill:#211d1d;fill-opacity:1;fill-rule:nonzero;stroke:none;stroke-width:.0352778" transform="translate(62.528 55.645)scale(.47366)"/><path d="M12.425 86.144S21.816 92.43 35.83 91.9c13.924-.53 20.447-4.999 20.447-4.999l14.767 26.204-45.441 11.815L6.82 112.348z" style="fill:#fdf9e6;fill-opacity:1;fill-rule:nonzero;stroke:none;stroke-width:.0352778" transform="translate(62.528 55.645)scale(.47366)"/><path d="M193.884 139.156c-1.359-27.404-6.883-49.15-12.52-65.864.038.37-3.782 10.777-11.388 15.41-5.412 3.294-12.53 6.138-20.927 8.678-6.801 2.06-14.354 4.095-22.683 5.514-7.352 1.255-15.202 2.458-23.453 3.125-7.617.614-15.6.89-23.767.931-8.167.04-16.072-.818-23.692-1.354-8.262-.579-16.239-.896-23.601-2.075-8.347-1.333-16.196-2.769-23.022-4.758C.41 96.31-6.293 92.737-11.736 89.499c-6.71-3.994-10.866-8.34-11.822-13.1-7.06 19.95-12.816 42.14-12.485 64.88.441 30.43 6.608 62.128 20.945 88.798 2.063 3.842 4.3 7.578 6.71 11.19.825.628 1.732 1.26 2.744 1.891 5.084 3.186 11.349 6.696 19.22 9.109 6.378 1.954 13.712 3.369 21.508 4.681 6.88 1.16 14.334 1.475 22.052 2.046 7.123.526 14.507 1.373 22.137 1.334 7.63-.04 15.089-.307 22.204-.907 7.712-.653 15.046-1.834 21.911-3.066 7.786-1.393 14.838-3.39 21.195-5.411 7.846-2.494 14.496-5.288 19.55-8.523 2.904-1.86 5.233-3.814 6.986-5.842a357 357 0 0 0 3.704-7.536c19.71-41.335 20.31-64.653 19.06-89.887" style="fill:#f8ecb3;fill-opacity:1;fill-rule:nonzero;stroke:none;stroke-width:.0352778" transform="translate(62.528 55.645)scale(.47366)"/><path d="M-7.27 240.216a36 36 0 0 0 2.427 1.658c4.61 2.886 10.918 6.509 18.863 8.946 6.664 2.043 14.513 3.49 21.315 4.636 5.33.896 10.989 1.28 16.982 1.683q2.445.162 4.932.345c1.76.13 3.57.283 5.317.43 5.415.456 11.006.936 16.7.9 8.163-.042 15.388-.338 22.084-.903 7.945-.674 15.466-1.915 21.773-3.044 8.365-1.5 15.618-3.655 21.001-5.366 8.21-2.61 14.485-5.341 19.191-8.357 2.696-1.725 4.893-3.55 6.537-5.419a334 334 0 0 0 3.602-7.334c19.583-41.06 20.176-63.754 18.916-89.158-1.048-21.184-4.71-41.374-11.169-61.584a42 42 0 0 1-1.361 2.519c-1.8 3.058-4.837 7.246-9.077 9.824-5.27 3.21-12.228 6.104-21.276 8.838-8.69 2.628-15.745 4.342-22.867 5.56-6.82 1.16-14.955 2.444-23.587 3.14-7.25.581-15.06.888-23.88.934-6.223.021-12.287-.455-18.15-.92a601 601 0 0 0-5.655-.438 772 772 0 0 0-5.26-.346c-6.491-.413-12.619-.804-18.475-1.743-7.38-1.178-15.903-2.674-23.206-4.798-8.847-2.578-15.829-6.388-20.92-9.419-5.362-3.192-8.988-6.487-10.97-9.987-7.794 22.962-11.311 42.26-11.046 60.442.483 33.27 7.665 63.736 20.764 88.102a137 137 0 0 0 6.495 10.859m86.035 21.629c-5.64 0-11.133-.466-16.453-.914-1.743-.145-3.542-.296-5.288-.427a672 672 0 0 0-4.911-.342c-6.068-.41-11.8-.797-17.28-1.718-6.9-1.164-14.872-2.635-21.702-4.727-8.283-2.54-14.817-6.29-19.58-9.275a38 38 0 0 1-2.857-1.968l-.2-.156-.142-.208a139 139 0 0 1-6.784-11.317C-29.76 206-37.066 175.051-37.56 141.3c-.282-19.575 3.711-40.357 12.573-65.405l1.831-5.175 1.083 5.38c.83 4.135 4.569 8.202 11.11 12.097 4.938 2.938 11.697 6.632 20.217 9.112 7.14 2.081 15.55 3.553 22.835 4.717 5.715.913 11.776 1.301 18.19 1.71 1.746.114 3.506.226 5.28.35 1.88.13 3.814.286 5.684.437 5.803.463 11.797.946 17.896.91 8.742-.045 16.478-.345 23.65-.924 8.513-.688 16.567-1.958 23.319-3.108 6.996-1.192 13.938-2.878 22.504-5.471 8.798-2.66 15.529-5.447 20.577-8.523 6.407-3.902 10.128-12.58 10.64-14.21l-1.453-13.49 4.42 13.102c7.348 21.777 11.469 43.455 12.601 66.272.702 14.175.663 25.683-1.69 39.24-2.73 15.713-8.297 32.036-17.515 51.375a364 364 0 0 1-3.722 7.567l-.085.162-.12.141c-1.845 2.142-4.307 4.202-7.316 6.128-4.932 3.161-11.444 6.005-19.907 8.693-8.128 2.582-14.725 4.268-21.386 5.46-6.378 1.14-13.984 2.4-22.052 3.08-6.773.575-14.076.872-22.324.914q-.26.005-.515.004" style="fill:#211d1d;fill-opacity:1;fill-rule:nonzero;stroke:none;stroke-width:.0352778" transform="translate(62.528 55.645)scale(.47366)"/><path d="M54.815 71.274h-2.762a.77.77 0 0 1-.78-.755v-3.56c0-.416.35-.754.78-.754h2.762c.43 0 .78.338.78.755v3.56c0 .415-.35.754-.78.754m10.404 22.01L62.9 91.1a.83.83 0 0 1 .003-1.227l1.789-1.687a.965.965 0 0 1 1.305 0l2.318 2.184c.36.339.36.889 0 1.228l-1.792 1.686a.965.965 0 0 1-1.305 0m13.727-3.944-.931-1.355c-.43-.624-.212-1.63.487-2.24.698-.614 1.612-.603 2.042.021l.932 1.358c.43.625.211 1.627-.487 2.24-.699.61-1.612.604-2.043-.024m46.655-4.844-.935-1.358c-.427-.624-.212-1.63.487-2.24.698-.614 1.612-.603 2.043.021l.93 1.358c.431.625.213 1.627-.486 2.24-.698.614-1.612.604-2.039-.02m-9.091-15.498 1.03-1.8c.476-.825 1.552-1.199 2.406-.836.854.367 1.16 1.334.688 2.163l-1.03 1.8c-.473.825-1.549 1.199-2.403.835-.857-.367-1.164-1.333-.691-2.162M60.89 71.073l1.072-.878c.494-.406 1.634-.057 2.544.776.91.832 1.249 1.838.755 2.24l-1.073.882c-.493.402-1.633.056-2.543-.78-.91-.832-1.249-1.834-.755-2.24m42.058-10.383 1.362.265c.624.124 1.083 1.22 1.023 2.452-.064 1.235-.621 2.134-1.245 2.011l-1.362-.265c-.628-.123-1.083-1.22-1.023-2.451.063-1.235.62-2.135 1.245-2.011M87.461 93.633l-1.778-2.004a.87.87 0 0 1 0-1.129l1.948-2.194a.655.655 0 0 1 1.001 0l1.782 2.004a.875.875 0 0 1 0 1.129l-1.95 2.194a.65.65 0 0 1-1.003 0m10.262-2.063-2-2.608c-.31-.405-.31-1.065 0-1.47l1.179-1.535c.31-.406.81-.406 1.121 0l2 2.61c.311.406.311 1.062 0 1.468l-1.174 1.534c-.31.406-.815.406-1.126 0m5.25 4.452-1.231-3.023c-.19-.47-.007-1.023.409-1.238l3.104-1.602c.417-.215.91-.01 1.101.459l1.231 3.023c.19.473.007 1.027-.41 1.242l-3.104 1.602c-.42.215-.91.01-1.1-.463m-5.659-23.41-1.083-2.667c-.17-.416-.007-.903.36-1.094l2.738-1.414c.367-.19.804-.007.97.41l1.086 2.663c.17.416.007.906-.36 1.097l-2.737 1.41c-.37.191-.804.008-.974-.405m20.684 15.614-2.318-2.614a1.13 1.13 0 0 1 0-1.468l1.153-1.294a.848.848 0 0 1 1.302 0l2.318 2.61c.363.406.36 1.066 0 1.471l-1.15 1.295a.852.852 0 0 1-1.305 0m-8.202 9.532-.741-.832a.36.36 0 0 1 0-.47l.367-.416a.273.273 0 0 1 .416.004l.74.832a.37.37 0 0 1 0 .47l-.37.412c-.113.13-.3.13-.412 0m30.754-10.918-.74-.833a.36.36 0 0 1 0-.47l.367-.412a.27.27 0 0 1 .416 0l.74.833a.37.37 0 0 1 0 .469l-.366.416a.273.273 0 0 1-.416-.003m-14.693-26.808-.741-.833a.37.37 0 0 1 0-.469l.367-.412a.27.27 0 0 1 .416 0l.74.832a.36.36 0 0 1 0 .47l-.366.412a.27.27 0 0 1-.416 0m1.608 32.491-2.48-1.81c-.388-.279-.497-.86-.247-1.295l1.214-2.11c.25-.433.765-.56 1.15-.278l2.48 1.81c.388.279.497.86.247 1.295l-1.214 2.11c-.247.433-.762.56-1.15.278m6.661-1.51-1.45.201c-.226.032-.434-.152-.459-.406l-.134-1.234c-.028-.254.134-.484.36-.515l1.45-.198c.226-.032.43.148.458.402l.134 1.235c.029.254-.134.487-.36.515M105.65 73.595l-1.45.198c-.225.032-.43-.148-.458-.402l-.134-1.239c-.028-.25.134-.483.36-.515l1.45-.197c.225-.032.43.152.458.402l.134 1.238c.028.254-.134.484-.36.515m-17.68-8.322-1.454.201c-.226.029-.43-.151-.459-.405l-.134-1.235c-.028-.254.134-.487.36-.515l1.453-.201c.226-.028.43.152.455.406l.134 1.234c.029.254-.134.487-.356.515M70.094 75.5l-1.454.198c-.222.032-.43-.152-.455-.406l-.134-1.235c-.028-.254.134-.483.36-.515l1.45-.197c.226-.032.43.148.459.402l.134 1.235c.028.254-.134.487-.36.518m20.147 1.136-1.453.198c-.226.032-.43-.152-.459-.406l-.134-1.235c-.025-.254.134-.483.36-.515l1.453-.197c.226-.032.43.148.459.402l.13 1.235c.029.254-.13.487-.356.518M58.23 98.22l-1.453.197c-.226.032-.43-.148-.459-.402l-.13-1.239c-.029-.254.13-.483.356-.515l1.453-.197c.226-.032.43.148.459.402l.134 1.238c.025.254-.134.483-.36.515m54.225-13.479-1.453.197c-.226.032-.43-.152-.459-.406l-.13-1.234c-.028-.254.13-.484.356-.515l1.454-.198c.225-.032.43.148.458.402l.13 1.235c.029.254-.13.487-.356.519M32.467 95.182l-1.454.197c-.226.032-.43-.151-.458-.405l-.134-1.235c-.025-.254.134-.483.36-.515l1.453-.198c.226-.031.43.149.458.403l.131 1.234c.028.254-.13.487-.356.519m88.321-1.895-.254-1.421c-.042-.219.085-.434.282-.48l.95-.219c.197-.042.387.099.426.318l.258 1.421c.042.22-.085.434-.283.48l-.952.219c-.194.046-.385-.099-.427-.318m17.875-29.537-.257-1.419c-.039-.219.085-.437.282-.48l.953-.218c.194-.046.388.095.426.317l.258 1.418c.039.223-.088.438-.282.48l-.953.219c-.197.046-.388-.095-.427-.318M96.902 97.531l-1.948-1.418c-.3-.219-.388-.674-.19-1.016l.949-1.654c.197-.339.6-.438.903-.216l1.944 1.419c.3.218.388.673.194 1.012l-.953 1.655c-.194.342-.6.437-.9.218M90.69 71.63l-1.945-1.418c-.303-.219-.388-.674-.194-1.016l.953-1.654c.194-.339.6-.438.9-.216l1.947 1.419c.3.218.388.673.19 1.012l-.949 1.655c-.197.342-.6.437-.903.218m28.173-7.725-1.944-1.419c-.303-.218-.388-.673-.194-1.012l.953-1.655c.194-.342.6-.437.9-.218l1.947 1.418c.3.219.388.674.19 1.016l-.949 1.65c-.198.343-.6.442-.903.22M78.42 76.022l-1.944-1.418c-.3-.218-.388-.674-.194-1.012l.952-1.655c.194-.342.6-.437.9-.218l1.947 1.418c.3.218.388.674.19 1.012l-.948 1.655c-.198.342-.6.437-.904.218m.297 19.932.328-1.636c.05-.254.275-.413.5-.357l1.098.279c.226.056.367.307.317.56l-.328 1.638c-.049.254-.275.416-.497.356l-1.1-.275c-.226-.06-.368-.31-.318-.565m69.829-20.45.324-1.633c.053-.254.275-.417.501-.36l1.1.278c.227.057.368.31.315.565l-.325 1.637c-.053.254-.275.412-.5.356l-1.098-.279c-.226-.056-.37-.307-.317-.564M88.714 57.936l.328-1.637c.049-.254.275-.413.5-.357l1.098.279c.225.056.367.307.317.561l-.328 1.637c-.05.254-.275.416-.5.356L89.03 58.5c-.226-.056-.367-.31-.317-.564m-42.308 4.289.324-1.633c.053-.258.276-.416.501-.36l1.101.279c.226.056.367.31.314.564l-.325 1.637c-.052.254-.275.413-.5.356l-1.098-.278c-.225-.057-.37-.31-.317-.565m48.013-.151.328-1.634c.05-.254.275-.416.501-.356l1.097.275c.226.057.367.31.318.565l-.328 1.636c-.05.254-.276.413-.501.357l-1.098-.279c-.225-.056-.366-.307-.317-.564m37.617.406.324-1.638c.053-.254.275-.412.501-.356l1.1.279c.227.056.368.307.315.564l-.325 1.634c-.053.254-.275.416-.5.36l-1.098-.28c-.226-.056-.37-.31-.317-.564M39.134 95.704l.325-1.637c.053-.254.275-.416.5-.356l1.101.275c.226.06.367.31.314.564l-.324 1.637c-.053.254-.275.413-.501.357l-1.097-.28c-.226-.056-.37-.306-.318-.56M102.75 56.32l.325-1.634c.053-.257.275-.416.501-.36l1.097.28c.23.056.37.31.318.564l-.325 1.637c-.053.254-.275.412-.5.356l-1.098-.279c-.226-.056-.37-.31-.317-.564m38.188 24.61.328-1.634c.05-.254.275-.416.5-.36l1.098.28c.226.056.367.31.317.564l-.328 1.636c-.05.254-.275.413-.5.357l-1.098-.279c-.226-.056-.367-.31-.317-.564M7.54 76.636 7.866 75c.05-.254.276-.412.501-.356l1.098.279c.225.056.366.31.317.564l-.328 1.637c-.05.254-.275.413-.501.356l-1.097-.278c-.226-.057-.367-.31-.318-.565M70.57 87.512l-.32-2.554c-.064-.483.236-.931.666-1.002l2.77-.444c.43-.07.828.268.888.751l.325 2.55c.06.484-.237.936-.667 1.003l-2.77.448c-.43.067-.828-.268-.892-.752m-11.673 1.193L56.145 86.7c-.43-.314-.55-.956-.275-1.436l1.348-2.342c.275-.484.846-.621 1.273-.307l2.752 2.004c.43.314.55.956.275 1.435l-1.348 2.343c-.275.483-.846.62-1.273.307m54.97 4.873-3.105-1.25c-.353-.14-.536-.574-.41-.97l.805-2.546c.127-.395.512-.604.865-.462l3.104 1.248c.353.141.536.579.41.974l-.809 2.547c-.123.395-.511.6-.86.459m-57.584.091-1.57-2.092c-.244-.328-.081-.733.367-.91l.73-.289c.444-.18 1.005-.06 1.249.265l1.57 2.095c.243.328.08.734-.367.91l-.73.29c-.445.18-1.006.06-1.25-.269m77.94-11.02-1.57-2.046c-.243-.318-.078-.717.367-.89l.73-.285c.448-.173 1.006-.053 1.253.264l1.57 2.046c.243.318.077.717-.371.89l-.727.282c-.448.173-1.009.056-1.252-.261M82.42 70.53l-1.57-2.046c-.243-.318-.077-.717.367-.89l.73-.282c.448-.172 1.01-.056 1.253.261l1.57 2.047c.243.317.077.716-.37.889l-.728.282c-.448.173-1.009.056-1.252-.261m23.59 15.995-1.57-2.046c-.243-.318-.077-.717.37-.89l.728-.282c.448-.173 1.008-.056 1.252.261l1.57 2.046c.243.318.077.717-.367.89l-.73.282c-.448.173-1.01.056-1.253-.261M69.268 96.812l.011-1.482c0-.23.198-.332.434-.226l.392.173c.24.106.433.381.43.61l-.007 1.482c-.004.233-.198.332-.438.226l-.391-.173c-.237-.106-.43-.378-.43-.61m7.545-35.451 1.553 2.713c.24.423.169 1.04-.156 1.38l-1.241 1.29c-.325.34-.787.272-1.03-.148l-1.553-2.713c-.24-.423-.17-1.04.155-1.383l1.242-1.287c.325-.339.787-.275 1.03.148M48.007 93.778l3.122.159c.483.028.966.42 1.076.878l.412 1.74c.11.458-.194.81-.68.786l-3.123-.162c-.483-.025-.966-.417-1.076-.875l-.412-1.74c-.11-.458.194-.81.68-.786M84.04 56.916l.807 3.002c.124.466-.102.963-.508 1.111l-3.013 1.098c-.402.148-.832-.11-.96-.579l-.804-3.002c-.127-.466.103-.963.505-1.111l3.013-1.098c.405-.148.836.11.96.579m27.64 10.534.645 2.406c.102.374-.081.772-.406.892l-2.416.879c-.325.12-.667-.088-.77-.462l-.645-2.406c-.099-.374.081-.773.406-.893l2.416-.878c.325-.12.67.088.77.462m-46.67-6.23 1.845 2.759c.286.426.22 1.044-.155 1.379l-1.192 1.065c-.37.336-.907.258-1.193-.169l-1.845-2.759c-.289-.43-.218-1.047.156-1.383l1.188-1.065c.374-.332.91-.257 1.196.173m46.197-3.937 1.848 2.755c.286.43.215 1.048-.159 1.383l-1.188 1.065c-.374.332-.91.258-1.196-.172l-1.845-2.76c-.286-.426-.22-1.043.155-1.379l1.192-1.065c.37-.335.907-.257 1.193.173m-33.722-6.107.589.879a.35.35 0 0 1-.05.44l-.38.34c-.12.109-.29.084-.382-.054l-.589-.881a.35.35 0 0 1 .05-.441l.38-.34c.12-.105.29-.08.382.057m-22.882 5.546 1.644 1.602c.258.247.29.691.071.987l-1.055 1.443c-.219.297-.603.335-.857.085l-1.648-1.602c-.254-.247-.285-.688-.067-.987l1.055-1.443c.219-.297.6-.335.857-.085M21.696 91.707l1.348.007c.212 0 .381.194.377.438l-.007 1.178c-.003.243-.176.437-.384.437l-1.351-.003c-.208 0-.378-.198-.378-.441l.01-1.179c0-.24.174-.437.385-.437m40.016-38.375.085 1.369c.014.211-.127.398-.31.412l-.893.081c-.187.018-.346-.14-.36-.352l-.085-1.37c-.01-.21.127-.398.31-.412l.897-.081c.183-.018.342.141.356.353m57.037 1.408.085 1.365c.014.211-.124.398-.307.416l-.896.078c-.184.017-.346-.142-.357-.353l-.084-1.366c-.014-.215.123-.398.307-.416l.896-.08c.183-.019.345.144.356.355M71.34 67.86l1.63 1.587c.253.247.281.684.066.977l-1.044 1.432c-.215.293-.596.332-.85.085l-1.63-1.588a.76.76 0 0 1-.067-.977l1.044-1.429c.215-.296.596-.335.85-.088m26.409-13.321-.476 1.496c-.07.233-.293.353-.494.272l-.977-.406c-.201-.085-.304-.339-.23-.571l.473-1.496c.074-.233.297-.353.498-.268l.973.405c.201.081.304.339.233.568M13.734 83.875l-.473 1.493c-.074.232-.296.352-.497.271l-.977-.406c-.201-.084-.304-.338-.23-.571l.473-1.496c.074-.233.297-.353.498-.268l.973.406c.201.08.304.338.233.571m126.626-7.422-.473 1.492c-.074.233-.296.356-.497.272l-.977-.406c-.201-.085-.304-.339-.23-.571l.473-1.496c.074-.23.297-.353.498-.268l.973.405c.201.081.307.339.233.572m-47.565 8.251L92.32 86.2c-.07.233-.293.353-.494.268l-.977-.402c-.201-.085-.304-.339-.23-.571l.473-1.496c.074-.233.297-.353.498-.268l.973.402c.201.084.304.338.233.571M68.838 55.131l2.907 1.693c.328.19.459.656.29 1.037l-1.084 2.452c-.166.381-.568.533-.9.342l-2.903-1.693c-.331-.19-.462-.656-.293-1.037l1.083-2.452c.166-.38.572-.533.9-.342m57.52 9.249 2.869 1.673c.324.187.451.646.285 1.02l-1.065 2.42c-.166.373-.565.525-.89.338l-2.864-1.672c-.324-.187-.455-.646-.289-1.023l1.069-2.417c.166-.377.56-.529.885-.338m-12.692-12.965-.166 1.394c-.025.215-.215.285-.424.151l-.338-.211c-.208-.13-.357-.413-.332-.632l.166-1.39c.025-.218.215-.285.423-.155l.339.215c.208.13.356.413.332.628M1.958 79.437l-.165 1.394c-.025.215-.216.286-.424.155l-.338-.215c-.209-.13-.357-.413-.332-.628l.166-1.394c.025-.218.215-.285.423-.155l.339.215c.208.13.356.413.331.628" style="fill:#793919;fill-opacity:1;fill-rule:nonzero;stroke:none;stroke-width:.0352778" transform="translate(62.528 55.645)scale(.47366)"/><path d="M79.224 81.822c-5.324 0-10.506-.473-15.522-.935-1.637-.148-3.33-.303-4.968-.437-1.552-.124-3.093-.237-4.617-.35-5.712-.42-11.11-.814-16.27-1.76-6.495-1.185-13.999-2.688-20.433-4.822-7.807-2.593-13.96-6.42-18.45-9.465-7.465-5.06-11.268-10.573-11.297-16.387-.031-6.195 2.442-10.114 9.455-14.972l1.725 2.487c-6.195 4.297-8.177 7.324-8.15 12.468.022 4.755 3.377 9.43 9.967 13.899 4.328 2.932 10.251 6.618 17.706 9.095 6.254 2.077 13.631 3.552 20.02 4.72 5.002.913 10.319 1.302 15.949 1.718 1.53.11 3.08.226 4.639.349 1.654.134 3.355.29 5.002.441 5.087.466 10.35.956 15.685.92 7.666-.038 14.453-.334 20.747-.906 7.464-.68 14.527-1.944 20.454-3.09 6.127-1.186 12.213-2.865 19.72-5.444 7.705-2.649 13.596-5.422 18.01-8.48 6.339-4.392 9.542-9.148 9.514-14.133-.025-4.833-3.313-9.503-9.78-13.888-4.49-3.045-10.554-5.846-18.02-8.326-5.781-1.92-12.452-3.577-19.829-4.925-5.778-1.055-12.971-2.37-20.422-2.97-5.602-.452-13.021-.97-20.719-.928-6.83.035-13.804.374-20.725 1.002-6.559.596-13.992 1.273-20.56 2.543a144 144 0 0 0-7.737 1.725l-.74-2.938a147 147 0 0 1 7.902-1.76c6.72-1.299 14.23-1.983 20.86-2.586 7.01-.639 14.068-.978 20.983-1.016 7.82-.032 15.317.48 20.98.938 7.602.614 14.876 1.94 20.721 3.01 7.518 1.375 14.327 3.065 20.243 5.033 7.835 2.6 13.973 5.447 18.764 8.693 7.341 4.974 11.077 10.488 11.11 16.38.03 6.042-3.61 11.64-10.82 16.636-4.647 3.221-10.782 6.114-18.75 8.855-7.649 2.628-13.858 4.34-20.13 5.553-6.001 1.16-13.155 2.44-20.754 3.132-6.382.579-13.254.882-21.008.921z" style="fill:#211d1d;fill-opacity:1;fill-rule:nonzero;stroke:none;stroke-width:.0352778" transform="translate(62.528 55.645)scale(.47366)"/></svg>