<svg xmlns="http://www.w3.org/2000/svg" xml:space="preserve" width="200mm" height="200mm" viewBox="0 0 200 200"><path d="M-123.511 229.41c-2.658 0-5.28-.283-7.815-.558q-1.26-.138-2.496-.26-1.168-.11-2.316-.209c-2.805-.247-5.454-.48-7.942-1.002-3.182-.667-6.855-1.51-9.966-2.685-3.705-1.397-6.648-3.464-8.798-5.111-3.288-2.516-4.956-5.154-4.956-7.839 0-2.674 1.634-5.221 4.994-7.796 1.909-1.46 4.898-3.57 8.803-5.045a68 68 0 0 1 9.9-2.91c3.277-.688 6.984-1.041 10.254-1.355 1.3-.127 2.627-.23 3.959-.307-.808 4.865-2.871 9.504-4.135 12.344-.735 1.654-1.06 2.402-1.097 2.892-.038.53.209 1.09.736 1.665 1.463 1.599 5.295 3.497 11.282 3.588h.256c5.42 0 8.716-2.536 10.209-4.067.696-.716.751-1.909.125-2.724-1.951-2.53-3.199-7.64-3.902-11.483a41 41 0 0 1-.328-2.134c1.157.085 2.35.183 3.56.3 3.19.307 6.511.864 10.158 1.71.914.213 1.634.378 2.212.509 2.31.533 2.31.533 3.382.896.695.236 1.858.635 4.335 1.411 3.165.995 6.164 2.565 8.913 4.67 3.227 2.47 4.864 5.106 4.864 7.836 0 2.812-1.616 5.475-4.803 7.916-2.208 1.687-5.15 3.214-8.994 4.664-2.526.953-5.926 2.152-9.843 2.978-2.958.62-6.483 1.301-10.204 1.658-3.138.303-6.523.448-10.347.448" style="fill:#f3fbfa;fill-opacity:1;fill-rule:nonzero;stroke:none;stroke-width:.0352778" transform="translate(178.29 46.271)scale(.63362)"/><path d="M-129.89 194.333c-1.332.077-2.66.18-3.959.307-3.27.314-6.977.667-10.254 1.354a68 68 0 0 0-9.9 2.91c-3.905 1.476-6.894 3.585-8.803 5.046-3.36 2.575-4.994 5.122-4.994 7.796 0 2.685 1.668 5.323 4.956 7.839 2.15 1.647 5.093 3.714 8.798 5.111 3.111 1.175 6.784 2.018 9.966 2.685 2.488.522 5.137.755 7.942 1.002q1.148.099 2.316.208 1.237.123 2.496.261c2.535.275 5.157.558 7.815.558 3.824 0 7.209-.145 10.347-.448 3.721-.357 7.246-1.038 10.204-1.658 3.917-.826 7.317-2.025 9.843-2.978 3.844-1.45 6.786-2.977 8.994-4.664 3.187-2.44 4.803-5.104 4.803-7.916 0-2.73-1.637-5.366-4.864-7.835-2.749-2.106-5.748-3.676-8.913-4.671-2.477-.776-3.64-1.175-4.335-1.411-1.072-.363-1.072-.363-3.382-.896a435 435 0 0 1-2.212-.508c-3.647-.847-6.969-1.404-10.157-1.711-1.21-.117-2.404-.215-3.561-.3.1.773.208 1.478.328 2.134.703 3.842 1.95 8.954 3.902 11.483.626.815.571 2.008-.125 2.724-1.516 1.552-4.893 4.148-10.465 4.067-5.987-.091-9.82-1.99-11.282-3.588-.527-.575-.775-1.135-.736-1.665.036-.49.362-1.238 1.097-2.892 1.264-2.84 3.327-7.48 4.135-12.344m6.379 36.664c-2.744 0-5.409-.29-7.986-.568q-1.249-.14-2.477-.257-1.16-.11-2.303-.209c-2.853-.25-5.547-.486-8.129-1.03-3.241-.68-6.988-1.538-10.2-2.751-3.899-1.471-6.965-3.623-9.201-5.338-3.702-2.833-5.58-5.895-5.58-9.098 0-3.2 1.838-6.163 5.617-9.056 1.989-1.52 5.107-3.722 9.207-5.27a69 69 0 0 1 10.134-2.978c3.363-.705 7.117-1.065 10.43-1.383 1.636-.155 3.317-.278 4.996-.363l.95-.05-.124.943c-.707 5.432-3.018 10.629-4.399 13.733-.457 1.03-.931 2.096-.964 2.367.09.773 3.522 3.443 10.46 3.546h.236c4.838 0 7.753-2.24 9.07-3.588.148-.155.15-.455.004-.646-2.146-2.783-3.471-8.152-4.207-12.167a46 46 0 0 1-.457-3.189l-.105-.942.945.064c1.466.095 3 .218 4.562.37 3.259.31 6.649.882 10.364 1.743.913.211 1.631.374 2.209.508 2.345.54 2.39.55 3.539.942.688.232 1.84.624 4.298 1.397 3.342 1.05 6.506 2.705 9.403 4.924 3.64 2.784 5.485 5.846 5.485 9.095 0 3.334-1.825 6.42-5.425 9.176-2.333 1.785-5.406 3.383-9.398 4.89-2.579.973-6.055 2.197-10.078 3.044-3 .628-6.579 1.323-10.378 1.686-3.188.307-6.622.455-10.498.455" style="fill:#211d1d;fill-opacity:1;fill-rule:nonzero;stroke:none;stroke-width:.0352778" transform="translate(178.29 46.271)scale(.63362)"/><path d="M-122.844 213.235h-.236c-6.938-.103-10.37-2.773-10.46-3.546.033-.271.507-1.337.964-2.367 1.38-3.104 3.692-8.3 4.4-13.733l.123-.942-.817.042c.055-.59.077-1.182.074-1.771l-.3-55.996c-.036-6.696-1.81-14.838-7.742-20.553l-.443-.893c-15.89-3.722-28.995-13.155-35.292-21.939-6.382-8.904-10.301-28.617-11.645-36.357a10.3 10.3 0 0 1-.524-3.214c0-4.212 2.663-7.966 7.208-11.444 3.233-2.473 7.224-5.116 12.234-7.006a92 92 0 0 1 13.609-4c4.382-.922 9.132-1.39 14.051-1.864 4.54-.433 9.28-.68 14.146-.68 4.865 0 9.596.349 14.135.786 4.92.47 9.557 1.422 13.94 2.343 4.967 1.044 9.508 2.317 13.568 3.849 5.01 1.89 9.209 4.042 12.442 6.515 4.544 3.479 7.03 7.292 7.03 11.5 0 1.165-.19 2.305-.551 3.423l.013.046c-1.112 7.073-4 21.89-10.246 33.196-4.129 7.468-19.689 19.54-36.425 24.38l-.472.875c-8.367 9.92-8.098 14.58-8.061 21.541l.17 52.99c.005 1.45.074 2.9.21 4.34l-.798-.053.105.942a46 46 0 0 0 .457 3.19c.735 4.014 2.061 9.383 4.206 12.166.148.19.145.49-.004.646-1.316 1.348-4.231 3.588-9.07 3.588M-182.72 58.214c.918 2.123 2.088 3.972 3.38 3.972h.177c-1.457-1.28-2.65-2.604-3.557-3.972" style="fill:#e8f7f5;fill-opacity:1;fill-rule:nonzero;stroke:none;stroke-width:.0352778" transform="translate(178.29 46.271)scale(.63362)"/><path d="M-122.846 214.028h-.246c-7.363-.112-11.335-3.083-11.238-4.402.092-1.256 4.593-8.88 5.438-16.718l.022-.219.817-.042-.124.942c-.707 5.432-3.018 10.629-4.399 13.733-.457 1.03-.931 2.096-.964 2.367.09.773 3.522 3.443 10.46 3.546h.236c4.838 0 7.753-2.24 9.07-3.588.148-.155.15-.455.004-.646-2.146-2.783-3.471-8.152-4.207-12.167a46 46 0 0 1-.457-3.189l-.105-.942.799.053q.187 1.98.543 3.933c.72 3.93 2.007 9.17 4.055 11.826.382.497.366 1.245-.064 1.686-1.34 1.372-4.46 3.828-9.64 3.828" style="fill:#526263;fill-opacity:1;fill-rule:nonzero;stroke:none;stroke-width:.0352778" transform="translate(178.29 46.271)scale(.63362)"/><path d="M-62.93 55.388h.003zm-73.258 58.508c6.796 6.625 7.859 16.006 7.885 21.022l.3 55.993c.004.727-.03 1.425-.1 2.085-.609 5.64-3.027 11.077-4.472 14.326-.458 1.03-.932 2.096-.965 2.367.09.776 3.522 3.443 10.46 3.546h.236c4.838 0 7.753-2.24 9.07-3.588.149-.155.15-.455.004-.646-2.146-2.783-3.472-8.152-4.207-12.167-.5-2.73-.758-5.56-.767-8.414l-.174-53.562c-.042-6.727-.073-11.592 8.198-21.42l.59-1.098.32-.091c15.915-4.604 31.72-16.345 35.952-24.003 6.02-10.894 8.928-25.168 10.136-32.798l-.016-.141.053-.166a10.3 10.3 0 0 0 .513-3.175c0-3.8-2.26-7.458-6.72-10.87-3.051-2.335-7.169-4.49-12.24-6.402-3.92-1.482-8.446-2.766-13.45-3.817-3.919-.822-8.794-1.845-13.853-2.332-3.8-.363-8.833-.78-14.06-.78a148 148 0 0 0-14.07.678c-4.45.427-9.496.91-13.963 1.848-4.468.939-9.007 2.272-13.493 3.965-5.34 2.015-9.424 4.9-12.031 6.897-4.64 3.553-6.897 7.088-6.897 10.813 0 .988.163 1.986.485 2.967l.027.11c.16.916.351 1.982.576 3.167l.802-.434c.854 1.288 2.004 2.572 3.42 3.814l1.577 1.383-2.275.007h-.004c-1.073 0-2.08-.776-3.05-2.364 1.879 9.296 5.387 23.379 10.462 30.459 5.355 7.468 17.69 17.614 34.828 21.629l.363.084zm13.345 100.926h-.261c-5.987-.091-9.82-1.99-11.282-3.588-.527-.575-.775-1.135-.736-1.665.037-.49.363-1.238 1.097-2.892 1.408-3.161 3.763-8.456 4.344-13.854.064-.596.095-1.238.092-1.901l-.3-55.997c-.025-4.79-1.034-13.758-7.5-19.985l-.098-.095-.34-.684c-17.378-4.17-29.914-14.524-35.39-22.162-6.435-8.974-10.37-28.56-11.773-36.629a11.1 11.1 0 0 1-.545-3.404c0-4.251 2.46-8.202 7.52-12.072 2.686-2.057 6.9-5.034 12.435-7.123a93.5 93.5 0 0 1 13.726-4.032c4.554-.956 9.646-1.443 14.138-1.873a149 149 0 0 1 14.222-.688c5.294 0 10.375.423 14.21.79 5.148.494 10.072 1.528 14.028 2.357 5.084 1.069 9.688 2.374 13.685 3.884 5.215 1.968 9.47 4.198 12.644 6.628 4.871 3.726 7.341 7.807 7.341 12.129 0 1.168-.181 2.346-.539 3.503l-.008.085c-1.211 7.704-4.163 22.285-10.336 33.457-2.158 3.905-7.288 8.932-13.723 13.445-7.122 4.991-15.226 8.97-22.855 11.221l-.407.72c-7.947 9.423-7.92 13.811-7.877 20.45l.003.572.17 52.994c.01 2.763.259 5.497.741 8.135.704 3.842 1.952 8.954 3.903 11.483.626.815.571 2.008-.125 2.724-1.492 1.527-4.787 4.067-10.204 4.067" style="fill:#211d1d;fill-opacity:1;fill-rule:nonzero;stroke:none;stroke-width:.0352778" transform="translate(178.29 46.271)scale(.63362)"/><path d="M-184.742 51.966s4.131 28.36 12.169 39.571 27.162 23.484 49.013 23.583c21.204.095 45.124-16.95 50.396-26.493 6.247-11.303 9.135-26.12 10.247-33.193.546-3.475-93.84 6.713-116.42 6.752-3.043.003-5.405-10.22-5.405-10.22" style="fill:#331a15;fill-opacity:1;fill-rule:nonzero;stroke:none;stroke-width:.0352778" transform="translate(178.29 46.271)scale(.63362)"/><path d="M-182.408 60.538c1.87 9.24 5.4 23.47 10.47 30.544 8.234 11.483 27.497 23.16 48.381 23.255 9.29.046 20.218-3.337 30.774-9.521 8.788-5.147 16.22-11.653 18.936-16.567 5.944-10.756 8.855-24.807 10.09-32.508-3.938-1.122-35.702 1.47-61.365 3.563-22.983 1.876-44.692 3.647-54.214 3.662h-.003c-1.168 0-2.2-1.013-3.07-2.428zm59.032 55.362h-.188c-10.154-.046-20.544-2.713-30.047-7.715-8.15-4.29-15.294-10.192-19.597-16.193-8.056-11.236-12.137-38.746-12.307-39.913l1.535-.29c1.069 4.625 3.147 9.617 4.64 9.617h.002c9.46-.017 32.148-1.87 54.089-3.658 14.845-1.21 30.195-2.462 41.803-3.186 19.75-1.224 20.527-.388 21.042.17a.98.98 0 0 1 .259.825c-1.21 7.698-4.163 22.278-10.334 33.45-5.12 9.265-28.889 26.893-50.897 26.893" style="fill:#211d1d;fill-opacity:1;fill-rule:nonzero;stroke:none;stroke-width:.0352778" transform="translate(178.29 46.271)scale(.63362)"/><path d="M-63.89 60.937c-.717 3.623-1.714 7.955-3.078 12.453-.888.991-1.942 1.951-3.141 2.875-3.21 2.477-7.424 4.6-12.392 6.491-4.03 1.538-8.497 3.048-13.42 4.093-4.347.92-8.992 1.802-13.871 2.271-4.5.438-9.22.61-14.043.61-4.828 0-9.498-.677-13.997-1.11-4.88-.477-9.595-.741-13.94-1.662-4.931-1.048-9.563-2.163-13.593-3.694-4.968-1.89-8.915-4.625-12.125-7.101a28 28 0 0 1-2.488-2.148c-1.466-5.102-2.595-10.21-3.382-14.221.222-.437.482-.871.761-1.295.901 2 2.025 3.687 3.262 3.687 19.245-.032 90.68-7.437 110.999-7.475 2.144 1.968 3.648 4.035 4.447 6.226" style="fill:#fde6d3;fill-opacity:1;fill-rule:nonzero;stroke:none;stroke-width:.0352778" transform="translate(178.29 46.271)scale(.63362)"/><path d="M-63.552 58.312c0 4.213-2.358 8.132-6.817 11.61-3.173 2.473-7.343 4.6-12.259 6.491-3.984 1.531-8.404 3.045-13.278 4.09-4.3.92-8.893 1.802-13.72 2.275-4.454.433-9.12.61-13.895.61-4.774 0-9.392-.681-13.846-1.115-4.828-.473-9.49-.744-13.791-1.662-4.875-1.044-9.46-2.162-13.443-3.693-4.916-1.891-8.824-4.622-11.996-7.098-4.46-3.478-7.023-7.295-7.023-11.508s2.613-7.965 7.073-11.444c3.172-2.473 7.088-5.119 12.004-7.01 3.983-1.53 8.48-2.956 13.354-3.996 4.3-.921 8.96-1.39 13.787-1.863 4.454-.434 9.106-.68 13.881-.68s9.416.348 13.87.782c4.828.473 9.378 1.425 13.678 2.346 4.875 1.044 9.33 2.318 13.314 3.849 4.917 1.89 9.037 4.04 12.21 6.516 4.458 3.478 6.897 7.288 6.897 11.5" style="fill:#fff;fill-opacity:1;fill-rule:nonzero;stroke:none;stroke-width:.0352778" transform="translate(178.29 46.271)scale(.63362)"/><path d="M-123.52 34.101c-4.55 0-9.194.23-13.805.681-4.369.427-9.32.91-13.7 1.849-4.382.935-8.836 2.272-13.236 3.961-5.239 2.015-9.245 4.9-11.803 6.897-4.556 3.553-6.77 7.091-6.77 10.823 0 3.747 2.26 7.412 6.72 10.89 2.88 2.244 6.825 5.07 11.795 6.982 4.163 1.602 9.072 2.748 13.325 3.658 3.332.713 6.87 1.03 10.617 1.366q1.531.133 3.086.282 1.65.167 3.329.353c3.385.374 6.885.762 10.441.762 5.105 0 9.626-.201 13.82-.61 4.973-.487 9.681-1.415 13.63-2.262 4.09-.875 8.148-2.124 13.16-4.053 5.15-1.98 9.095-4.064 12.059-6.379 4.323-3.369 6.515-7.07 6.515-10.989 0-3.806-2.22-7.468-6.596-10.883-2.994-2.332-7.033-4.487-12.008-6.4-3.846-1.48-8.286-2.761-13.196-3.813-3.845-.822-8.63-1.848-13.59-2.332-3.728-.363-8.665-.783-13.794-.783m0 50.074c-3.643 0-7.187-.392-10.614-.77a239 239 0 0 0-3.31-.349c-1.032-.102-2.057-.194-3.073-.286-3.795-.338-7.38-.66-10.806-1.393-4.312-.92-9.295-2.088-13.56-3.725-5.164-1.986-9.23-4.897-12.197-7.211-4.86-3.792-7.325-7.874-7.325-12.129 0-4.247 2.412-8.195 7.374-12.065 2.638-2.056 6.772-5.03 12.206-7.122a90.5 90.5 0 0 1 13.472-4.032c4.467-.956 9.465-1.447 13.875-1.877 4.662-.455 9.358-.685 13.957-.685 5.198 0 10.183.42 13.946.79 5.05.49 9.883 1.528 13.767 2.357 4.99 1.07 9.509 2.374 13.432 3.884 5.118 1.969 9.293 4.198 12.41 6.629 4.778 3.729 7.2 7.807 7.2 12.121 0 4.431-2.396 8.545-7.12 12.231-3.088 2.406-7.164 4.569-12.46 6.604-5.092 1.958-9.224 3.232-13.396 4.124-3.992.854-8.755 1.792-13.807 2.286-4.245.416-8.815.618-13.972.618" style="fill:#211d1d;fill-opacity:1;fill-rule:nonzero;stroke:none;stroke-width:.0352778" transform="translate(178.29 46.271)scale(.63362)"/><path d="M-123.494 27.765c-4.635 0-9.37.226-14.07.678-4.451.427-9.496.91-13.964 1.848s-9.008 2.272-13.492 3.965c-5.34 2.015-9.424 4.9-12.032 6.897-4.64 3.553-6.897 7.088-6.897 10.813 0 3.743 2.304 7.401 6.846 10.88 2.937 2.247 6.958 5.073 12.024 6.985 4.244 1.601 9.248 2.748 13.582 3.658 3.398.712 7.006 1.03 10.826 1.365q1.558.136 3.142.282 1.68.167 3.389.353c3.451.374 7.02.762 10.646.762 5.205 0 9.812-.201 14.085-.61 5.072-.487 9.87-1.415 13.894-2.261 4.168-.875 8.305-2.124 13.415-4.054 5.25-1.979 9.27-4.067 12.291-6.378 4.404-3.373 6.637-7.066 6.637-10.982 0-3.8-2.26-7.458-6.719-10.87-3.052-2.335-7.17-4.49-12.24-6.402-3.921-1.482-8.447-2.766-13.451-3.817-3.918-.822-8.793-1.845-13.853-2.332-3.801-.363-8.834-.78-14.06-.78m0 50.07c-3.712 0-7.324-.388-10.817-.769-1.133-.12-2.256-.243-3.37-.35a263 263 0 0 0-3.129-.281c-3.868-.34-7.522-.66-11.013-1.394-4.394-.924-9.471-2.088-13.816-3.729-5.26-1.982-9.405-4.893-12.428-7.207-4.955-3.792-7.468-7.878-7.468-12.14 0-4.25 2.46-8.201 7.52-12.071 2.687-2.057 6.9-5.034 12.435-7.123a93.5 93.5 0 0 1 13.726-4.032c4.554-.956 9.646-1.443 14.138-1.873 4.751-.459 9.536-.688 14.222-.688 5.293 0 10.374.423 14.21.79 5.148.494 10.072 1.528 14.028 2.357 5.083 1.069 9.688 2.374 13.685 3.884 5.215 1.968 9.47 4.198 12.644 6.628 4.871 3.726 7.341 7.807 7.341 12.129 0 4.438-2.442 8.555-7.259 12.241-3.146 2.406-7.299 4.569-12.695 6.604-5.188 1.958-9.398 3.228-13.649 4.12-4.067.858-8.92 1.796-14.069 2.29-4.323.413-8.98.614-14.236.614" style="fill:#211d1d;fill-opacity:1;fill-rule:nonzero;stroke:none;stroke-width:.0352778" transform="translate(178.29 46.271)scale(.63362)"/><path d="M-123.376 115.914h-.188c-10.155-.046-20.548-2.716-30.052-7.719-8.153-4.29-15.297-10.192-19.602-16.196-8.057-11.24-12.139-38.753-12.309-39.917a.793.793 0 0 1 1.57-.229c.041.282 4.196 28.296 12.028 39.222 8.233 11.483 27.492 23.156 48.372 23.251h.174c9.25 0 20.105-3.376 30.594-9.521 8.786-5.147 16.217-11.649 18.931-16.56 6.056-10.96 8.963-25.34 10.157-32.935a.796.796 0 0 1 .907-.66.79.79 0 0 1 .66.907c-1.21 7.698-4.162 22.282-10.335 33.454-5.12 9.268-28.895 26.903-50.907 26.903" style="fill:#211d1d;fill-opacity:1;fill-rule:nonzero;stroke:none;stroke-width:.0352778" transform="translate(178.29 46.271)scale(.63362)"/><path d="M-164.532 51.13c.04 3.291 6.134 6.981 11.422 6.558 5.287-.423 6.134-3.383 4.23-5.923-1.904-2.537-15.731-7.218-15.652-.635" style="fill:#71331d;fill-opacity:1;fill-rule:nonzero;stroke:none;stroke-width:.0352778" transform="translate(178.29 46.271)scale(.63362)"/><path d="M-160.085 48.547c-.765 0-1.465.089-2.05.286-1.116.381-1.63 1.108-1.615 2.29.01.829.573 1.799 1.584 2.72 2.246 2.05 5.945 3.309 8.993 3.065 2.278-.183 3.796-.868 4.277-1.933.35-.78.134-1.75-.61-2.741-1.056-1.408-6.678-3.687-10.579-3.687m6.13 9.956c-3.28 0-6.902-1.351-9.264-3.507-1.354-1.234-2.079-2.568-2.094-3.856-.022-1.845.928-3.192 2.675-3.785 4.342-1.475 12.81 1.845 14.383 3.94 1.084 1.447 1.37 3.02.784 4.322-.514 1.136-1.898 2.554-5.577 2.85a13 13 0 0 1-.907.036" style="fill:#211d1d;fill-opacity:1;fill-rule:nonzero;stroke:none;stroke-width:.0352778" transform="translate(178.29 46.271)scale(.63362)"/><path d="M-160.764 51.01s3.41-.868 4.798.995c1.983 2.656 7.496 2.416 7.496 2.416z" style="fill:#71331d;fill-opacity:1;fill-rule:nonzero;stroke:none;stroke-width:.0352778" transform="translate(178.29 46.271)scale(.63362)"/><path d="M-148.84 55.211c-1.381 0-5.859-.204-7.752-2.74-1.047-1.405-3.95-.71-3.98-.703a.781.781 0 1 1-.385-1.513c.16-.042 3.936-.974 5.618 1.28 1.419 1.902 5.418 2.163 6.835 2.107a.777.777 0 0 1 .814.747.785.785 0 0 1-.747.815c-.034 0-.177.007-.404.007" style="fill:#211d1d;fill-opacity:1;fill-rule:nonzero;stroke:none;stroke-width:.0352778" transform="translate(178.29 46.271)scale(.63362)"/><path d="M-124.076 45.136c-1.901-2.688-8.555-2.572-12.269.508-3.713 3.08-2.663 5.955.203 7.06 2.867 1.103 15.868-2.192 12.066-7.568" style="fill:#71331d;fill-opacity:1;fill-rule:nonzero;stroke:none;stroke-width:.0352778" transform="translate(178.29 46.271)scale(.63362)"/><path d="M-129.167 43.965c-2.432 0-5 .84-6.702 2.25-1.53 1.27-2.272 2.576-2.092 3.68.146.886.906 1.658 2.088 2.113 1.833.706 9.055-.79 11.198-3.545.73-.935.726-1.856-.01-2.896-.552-.78-1.686-1.323-3.193-1.521a10 10 0 0 0-1.29-.081zm-5.42 9.68c-.758 0-1.39-.081-1.822-.247-1.688-.652-2.789-1.841-3.022-3.263-.19-1.164.107-2.988 2.61-5.066 2.343-1.94 5.93-2.924 9.139-2.501 1.922.254 3.42 1.016 4.214 2.138 1.107 1.566 1.096 3.224-.031 4.674-2.133 2.738-7.801 4.265-11.088 4.265" style="fill:#211d1d;fill-opacity:1;fill-rule:nonzero;stroke:none;stroke-width:.0352778" transform="translate(178.29 46.271)scale(.63362)"/><path d="M-126.826 47.182s-1.657.653-3.812.01c-2.83-.846-6.345 2.932-7.296 4.284z" style="fill:#71331d;fill-opacity:1;fill-rule:nonzero;stroke:none;stroke-width:.0352778" transform="translate(178.29 46.271)scale(.63362)"/><path d="M-137.935 52.22a.746.746 0 0 1-.608-1.175c1.058-1.5 4.82-5.553 8.119-4.568 1.856.554 3.31.017 3.324.01a.745.745 0 1 1 .547 1.386c-.077.032-1.924.742-4.298.032-2.301-.687-5.551 2.689-6.475 3.997a.74.74 0 0 1-.61.318" style="fill:#211d1d;fill-opacity:1;fill-rule:nonzero;stroke:none;stroke-width:.0352778" transform="translate(178.29 46.271)scale(.63362)"/><path d="M-148.589 64.218c1.211 3.062 7.704 4.522 12.04 2.41 4.338-2.117 3.997-5.155 1.473-6.908-2.524-1.75-15.935-1.623-13.513 4.498" style="fill:#9b5f20;fill-opacity:1;fill-rule:nonzero;stroke:none;stroke-width:.0352778" transform="translate(178.29 46.271)scale(.63362)"/><path d="M-140.346 59.487c-2.55 0-5.393.466-6.874 1.64-.93.738-1.145 1.63-.676 2.816.352.889 1.326 1.682 2.743 2.233 2.607 1.012 5.935.924 8.278-.219 1.786-.871 2.817-1.965 2.902-3.076.07-.9-.488-1.828-1.528-2.547-.74-.515-2.688-.847-4.845-.847m-.875 8.887c-1.53 0-3.075-.269-4.471-.808-1.808-.702-3.083-1.796-3.59-3.073-.705-1.785-.301-3.394 1.136-4.533 3.35-2.657 11.466-2.258 13.494-.85 1.486 1.03 2.275 2.444 2.165 3.884-.09 1.174-.812 2.878-3.735 4.304-1.47.716-3.223 1.076-4.999 1.076" style="fill:#211d1d;fill-opacity:1;fill-rule:nonzero;stroke:none;stroke-width:.0352778" transform="translate(178.29 46.271)scale(.63362)"/><path d="M-145.126 63.287s1.573-1.052 3.821-1.094c3.294-.064 6.565 1.7 7.81.614z" style="fill:#71331d;fill-opacity:1;fill-rule:nonzero;stroke:none;stroke-width:.0352778" transform="translate(178.29 46.271)scale(.63362)"/><path d="M-145.125 64.03a.745.745 0 0 1-.415-1.365c.071-.045 1.782-1.174 4.221-1.22 1.512-.028 2.981.296 4.276.586 1.296.285 2.636.582 3.058.215a.744.744 0 1 1 .979 1.122c-.99.864-2.551.518-4.359.116-1.214-.268-2.59-.568-3.926-.547-2.006.036-3.407.96-3.42.967a.7.7 0 0 1-.414.127" style="fill:#211d1d;fill-opacity:1;fill-rule:nonzero;stroke:none;stroke-width:.0352778" transform="translate(178.29 46.271)scale(.63362)"/></svg>