<svg xmlns="http://www.w3.org/2000/svg" xml:space="preserve" width="200mm" height="200mm" viewBox="0 0 200 200"><g style="display:inline"><path d="M-64.788 165.014c0 2.162-1.367 4.176-3.952 5.965-1.839 1.27-4.256 2.364-7.105 3.334-2.309.786-4.871 1.563-7.696 2.099-2.493.473-5.155.928-7.953 1.168-2.581.225-5.286.317-8.054.317-2.767 0-5.444-.353-8.025-.575-2.799-.243-5.502-.381-7.994-.854-2.825-.536-5.483-1.111-7.791-1.898-2.85-.97-5.115-2.374-6.954-3.644-2.585-1.788-3.417-3.475-3.417-5.637 0-2.166.861-4.368 3.446-6.156 1.839-1.27 4.108-2.628 6.958-3.599a56.5 56.5 0 0 1 7.74-2.053c2.492-.476 5.194-.716 7.992-.96a94 94 0 0 1 8.045-.349c2.768 0 5.458.18 8.04.403 2.798.243 5.435.733 7.928 1.206 2.825.536 5.408 1.189 7.717 1.976 2.85.973 5.237 2.078 7.076 3.348 2.585 1.785 3.999 3.746 3.999 5.909" style="fill:#7c161a;fill-opacity:1;fill-rule:nonzero;stroke:none;stroke-width:.0352778" transform="translate(178.578 34.983)scale(.78568)"/><path d="M-99.548 152.896c-2.63 0-5.316.12-7.983.349-2.526.219-5.39.466-7.919.945a56.5 56.5 0 0 0-7.641 2.029c-3.008 1.026-5.31 2.494-6.78 3.51-2.108 1.46-3.133 3.277-3.133 5.56 0 1.735.527 3.26 3.104 5.04 1.656 1.144 3.923 2.583 6.775 3.557 2.399.815 5.235 1.404 7.693 1.87 1.92.363 3.966.525 6.131.698q.888.07 1.79.145c.638.056 1.282.12 1.931.183 1.958.19 3.981.388 6.032.388 2.955 0 5.57-.102 7.992-.31 2.874-.25 5.596-.727 7.88-1.16 3.023-.572 5.648-1.408 7.597-2.075 2.964-1.01 5.23-2.07 6.927-3.242 2.415-1.672 3.64-3.475 3.64-5.37 0-1.834-1.24-3.622-3.687-5.312-1.716-1.186-4.036-2.283-6.898-3.256-2.22-.759-4.783-1.415-7.618-1.951-2.224-.424-4.992-.95-7.856-1.196-2.157-.187-5.012-.402-7.977-.402m0 25.724c-2.121 0-4.18-.2-6.173-.395-.644-.063-1.282-.127-1.915-.18-.597-.053-1.19-.099-1.779-.148-2.206-.173-4.29-.339-6.287-.716-2.508-.476-5.406-1.076-7.89-1.923-3.021-1.03-5.399-2.54-7.132-3.736-2.614-1.81-3.73-3.672-3.73-6.233 0-2.755 1.265-5.027 3.759-6.752 1.541-1.066 3.958-2.607 7.136-3.69a58 58 0 0 1 7.839-2.078c2.6-.494 5.503-.745 8.064-.967a94 94 0 0 1 8.108-.353c3.02 0 5.916.215 8.102.406 2.937.254 5.745.787 8.001 1.213 2.902.55 5.532 1.225 7.816 2.004 3.03 1.034 5.403 2.156 7.255 3.436 2.86 1.98 4.31 4.167 4.31 6.506 0 2.395-1.434 4.603-4.264 6.561-1.809 1.25-4.191 2.37-7.283 3.422-2.963 1.013-5.367 1.665-7.795 2.127-2.32.441-5.086.925-8.025 1.179-2.465.211-5.12.317-8.117.317" style="fill:#211d1d;fill-opacity:1;fill-rule:nonzero;stroke:none;stroke-width:.0352778" transform="translate(178.578 34.983)scale(.78568)"/><path d="M-62.116 82.037c0-1.8-1.64-4.678-2.29-5.32-2.758-2.73-8.19-5.93-11.218-7.151-3.964-1.595-12.35-2.858-16.583-3.27-4.764-.466-9.295-.088-9.295-.088-3.015 0-4.42.169-7.232.444-3.047.296-5.99.596-8.703 1.178a56 56 0 0 0-8.43 2.53c-3.103 1.196-5.575 2.868-7.577 4.434-2.816 2.201-4.465 4.576-4.465 7.243q.002.352.043.705-.051.18-.041.378c.578 10.791 1.28 22.25 1.93 33.27 0 0 .006.074.012.233.632 10.7 1.21 20.976 1.58 29.83.665 15.996.174 26.78.034 29.338a2 2 0 0 0-.02.35c-.013.077-.013.158-.013.24 0 2.476 1.487 4.72 4.07 6.765 1.84 1.454 4.103 3.059 6.959 4.17 2.303.9 4.966 1.556 7.788 2.166 2.496.543 5.198.702 7.993.974 2.583.26 5.259.66 8.028.66 2.768 0 5.47-.103 8.054-.357 2.795-.282 5.457-.797 7.947-1.337 2.829-.617 5.391-1.503 7.702-2.402 2.848-1.111 5.265-2.367 7.104-3.82 2.583-2.036 3.95-4.343 3.95-6.82l.917-57.848.491-10.986.047-.938q.002-.166.013-.328l.02-.501c.007-.085.007-.166.013-.24l.02-.441c0-.067.007-.13.007-.19.007-.082.007-.16.014-.22l.947-21.04s.184-1.068.184-1.611" style="fill:#edf7f7;fill-opacity:1;fill-rule:nonzero;stroke:none;stroke-width:.0352778" transform="translate(178.578 34.983)scale(.78568)"/><path d="M-135.254 116.344q.002.008.014.247c.591 10.03 1.192 20.595 1.58 29.835.656 15.8.191 26.5.033 29.404l-.004.046c-.01.08-.02.169-.016.225l.005.081-.014.085c-.005.035-.002.074-.002.113 0 2.12 1.276 4.205 3.794 6.195 1.656 1.312 3.922 2.956 6.772 4.064 2.401.938 5.23 1.605 7.679 2.134 1.924.42 3.973.603 6.141.797q.879.078 1.77.166.925.095 1.862.201c1.978.223 4.023.455 6.094.455 2.953 0 5.564-.116 7.983-.356 2.932-.293 5.743-.86 7.865-1.323 3.073-.67 5.805-1.672 7.593-2.367 2.95-1.154 5.213-2.367 6.918-3.715 2.439-1.922 3.675-4.025 3.675-6.25l.917-57.864.537-11.927c0-.116.008-.233.014-.35l.02-.49c.005-.063.005-.091.007-.123l.008-.152.018-.409.004-.106.01-.194q.002-.068.007-.13l.957-21.11c.048-.28.174-1.094.174-1.49 0-1.53-1.49-4.226-2.076-4.804-2.582-2.558-7.859-5.736-10.979-6.992-3.873-1.56-12.105-2.805-16.383-3.221-4.644-.455-9.12-.092-9.164-.088l-.06.003c-2.717 0-4.126.138-6.459.37l-.702.068c-2.752.271-5.87.575-8.622 1.167a55 55 0 0 0-8.321 2.498c-3.279 1.263-5.79 3.073-7.393 4.329-2.816 2.201-4.186 4.381-4.186 6.67 0 .184.012.385.04.625l.013.134-.035.134a.5.5 0 0 0-.017.152c.44 8.213.958 16.905 1.458 25.315.159 2.664.317 5.317.472 7.948m35.708 75.495c-2.154 0-4.24-.233-6.257-.459-.62-.07-1.234-.14-1.843-.2q-.884-.09-1.756-.163c-2.215-.201-4.308-.388-6.32-.826-2.504-.543-5.401-1.227-7.897-2.201-3.03-1.178-5.41-2.903-7.144-4.276-2.884-2.282-4.346-4.748-4.346-7.334 0-.078 0-.173.012-.275a3 3 0 0 1 .024-.374c.158-2.918.616-13.547-.035-29.249-.387-9.225-.988-19.78-1.58-29.817a4 4 0 0 0-.012-.211c-.156-2.653-.314-5.306-.473-7.973-.5-8.41-1.017-17.106-1.458-25.322a2 2 0 0 1 .032-.463 7 7 0 0 1-.035-.66c0-2.762 1.552-5.32 4.743-7.813 1.677-1.31 4.305-3.207 7.763-4.54a57 57 0 0 1 8.54-2.562c2.831-.607 5.994-.917 8.784-1.192l.701-.067c2.369-.237 3.802-.378 6.57-.378.443-.035 4.774-.363 9.396.089 4.358.426 12.77 1.707 16.783 3.323 2.88 1.157 8.463 4.339 11.458 7.306.744.737 2.505 3.782 2.505 5.835 0 .54-.148 1.453-.187 1.69l-.95 21.04-.003.063-.006.109-.003.099-.024.533-.006.116q-.003.075-.009.148l-.018.473a5 5 0 0 0-.012.3l-.001.035-.047.942-.49 10.978-.917 57.831c0 2.678-1.422 5.161-4.226 7.373-1.819 1.44-4.203 2.724-7.29 3.93-1.833.713-4.638 1.74-7.81 2.43-2.16.474-5.024 1.052-8.03 1.352-2.469.243-5.126.36-8.126.36" style="fill:#211d1d;fill-opacity:1;fill-rule:nonzero;stroke:none;stroke-width:.0352778" transform="translate(178.578 34.983)scale(.78568)"/><path d="M-62.288 99.485v-.003l.002-.053z" style="fill:#5d5c5e;fill-opacity:1;fill-rule:nonzero;stroke:none;stroke-width:.0352778" transform="translate(178.578 34.983)scale(.78568)"/><path d="M-106.225 139.882c2.929.691 6.42 1.527 9.417 1.298.844-.067 1.707-.173 2.462-.568.903-.473 1.567-1.312 2.203-2.127q2.595-3.317 5.186-6.64c.488-.62 1.004-1.337.923-2.137-.137-1.362-1.834-1.877-3.153-1.726s-2.742.61-3.902-.052l-13.496 5.74z" style="fill:#bae7e0;fill-opacity:1;fill-rule:nonzero;stroke:none;stroke-width:.0352778" transform="translate(178.578 34.983)scale(.78568)"/><path d="M-105.588 139.345c2.833.667 5.993 1.38 8.73 1.168.714-.053 1.532-.141 2.202-.494.792-.413 1.4-1.192 1.988-1.944l5.186-6.639c.427-.547.839-1.125.785-1.661-.026-.265-.151-.484-.382-.667-.451-.364-1.268-.55-2.031-.462-.27.028-.543.074-.818.12-1.011.162-2.144.345-3.183-.103l-12.781 5.433zm7.74 2.536c-2.792 0-5.873-.727-8.408-1.323l-.606-.145-.416-7.175 14.232-6.054.288.166c.71.406 1.636.258 2.617.099q.445-.077.879-.13c.884-.1 2.143.042 3.02.747.508.413.81.956.872 1.577.112 1.111-.622 2.053-1.061 2.614l-5.186 6.64c-.644.821-1.373 1.756-2.42 2.303-.894.47-1.873.579-2.72.642q-.536.04-1.09.039" style="fill:#211d1d;fill-opacity:1;fill-rule:nonzero;stroke:none;stroke-width:.0352778" transform="translate(178.578 34.983)scale(.78568)"/><path d="M-107.252 116.965c-2.006 1.729-10.324 9.776-10.191 12.47.106 2.15 7.623 10.93 10.828 10.514 1.888-.247 3.45-1.584 4.893-2.865q3.681-3.27 7.361-6.533c.492-.438 1.006-.91 1.195-1.549.294-.998-.288-2.028-.89-2.865-3.298-4.59-12.862-9.461-13.196-9.172" style="fill:#f1faf9;fill-opacity:1;fill-rule:nonzero;stroke:none;stroke-width:.0352778" transform="translate(178.578 34.983)scale(.78568)"/><path d="M-107.048 117.67c-3.063 2.696-9.83 9.699-9.73 11.734.052 1.037 3.023 5.165 6.31 7.913 2.302 1.923 3.402 2.018 3.767 1.972 1.75-.23 3.294-1.602 4.537-2.702l7.36-6.537c.487-.43.868-.794 1-1.239.17-.578-.074-1.284-.793-2.286-2.88-4.007-10.781-8.297-12.451-8.854m.208 22.959c-1.155 0-2.66-.77-4.482-2.29-2.981-2.494-6.699-7.073-6.787-8.869-.17-3.457 10.315-12.922 10.421-13.01.111-.1.306-.201.601-.17 1.324.16 10.407 5.052 13.573 9.458.61.847 1.376 2.128.988 3.44-.25.843-.91 1.429-1.392 1.86l-7.361 6.533c-1.38 1.224-3.095 2.748-5.25 3.026q-.15.022-.311.022" style="fill:#211d1d;fill-opacity:1;fill-rule:nonzero;stroke:none;stroke-width:.0352778" transform="translate(178.578 34.983)scale(.78568)"/><path d="M-86.034 129.708c.69-.875-5.98-11-9.9-13.297-3.891-.465-6.925-.649-10.852.42a.273.273 0 0 0-.106.459l13.513 12.188z" style="fill:#fff;fill-opacity:1;fill-rule:nonzero;stroke:none;stroke-width:.0352778" transform="translate(178.578 34.983)scale(.78568)"/><path d="m-93.114 128.819 6.33.2c-.89-2.264-6.015-9.891-9.371-11.962-3.31-.395-6.182-.614-9.738.236zm7.396 1.566-7.927-.247-13.694-12.354a.93.93 0 0 1-.28-.91.93.93 0 0 1 .657-.685c4.18-1.14 7.37-.889 11.107-.44l.138.017.12.07c3.76 2.202 9.83 11.152 10.248 13.37.026.142.109.576-.161.914z" style="fill:#211d1d;fill-opacity:1;fill-rule:nonzero;stroke:none;stroke-width:.0352778" transform="translate(178.578 34.983)scale(.78568)"/><path d="m-62.286 99.429.007-.152z" style="fill:#919090;fill-opacity:1;fill-rule:nonzero;stroke:none;stroke-width:.0352778" transform="translate(178.578 34.983)scale(.78568)"/><path d="M-62.288 99.482v-.008l.002-.045z" style="fill:#3f3b3d;fill-opacity:1;fill-rule:nonzero;stroke:none;stroke-width:.0352778" transform="translate(178.578 34.983)scale(.78568)"/><path d="M-75.41 133.348c.047-.264-.175-.515-.48-.522-4.194-.099-10.612.635-14.091 2.346-3.036 1.492-6.636 9.19-7.413 10.915-.07.155.079.314.266.29l19.867-2.572z" style="fill:#fff;fill-opacity:1;fill-rule:nonzero;stroke:none;stroke-width:.0352778" transform="translate(178.578 34.983)scale(.78568)"/><path d="M-75.41 133.348h.003zm-1.244.138c-4.195 0-9.942.765-13.032 2.286-2.08 1.02-4.858 5.778-6.757 9.846l18.612-2.413 1.72-9.716q-.268-.005-.543-.004m-20.51 13.561a.92.92 0 0 1-.743-.367.85.85 0 0 1-.094-.864c1.01-2.244 4.551-9.68 7.727-11.243 3.506-1.722 9.9-2.515 14.4-2.413.35.01.674.166.889.427.203.247.287.568.232.878L-76.69 144.4l-20.352 2.639a1 1 0 0 1-.123.007" style="fill:#211d1d;fill-opacity:1;fill-rule:nonzero;stroke:none;stroke-width:.0352778" transform="translate(178.578 34.983)scale(.78568)"/><path d="M-77.188 157.831c1.801-3.503 5.926-8.195 6.246-10.873.23-1.922-2.74-10.315-4.251-13.747-.057-.13-.258-.152-.36-.046-2.453 2.56-3.823 5.616-4.305 8.96l.495 15.533z" style="fill:#bae7e0;fill-opacity:1;fill-rule:nonzero;stroke:none;stroke-width:.0352778" transform="translate(178.578 34.983)scale(.78568)"/><path d="m-78.716 157.04 1.145.092c.699-1.28 1.656-2.688 2.585-4.053 1.575-2.318 3.204-4.713 3.382-6.202.183-1.53-2.209-8.685-3.923-12.756-1.976 2.247-3.206 4.95-3.663 8.043zm1.918 1.488-3.213-.254-.515-16.185.008-.06c.523-3.627 2.032-6.766 4.484-9.327a.9.9 0 0 1 .807-.258c.288.05.53.236.644.497 1.366 3.105 4.567 11.89 4.303 14.094-.216 1.813-1.862 4.233-3.604 6.794-1.002 1.472-2.039 3-2.71 4.304z" style="fill:#211d1d;fill-opacity:1;fill-rule:nonzero;stroke:none;stroke-width:.0352778" transform="translate(178.578 34.983)scale(.78568)"/><path d="M-97.546 146.433c.306 4.307 1.345 6.699 1.145 10.971-.042.9-.056 1.88.566 2.593.913 1.044 2.679.991 4.16.84l10.33-1.059c1.506-.155 3.188-.395 4.084-1.478.733-.885.714-2.078.665-3.175-.158-3.482-2.508-12.375-3.542-13.113 0 0-16.077.657-17.408 4.42" style="fill:#ecf9f7;fill-opacity:1;fill-rule:nonzero;stroke:none;stroke-width:.0352778" transform="translate(178.578 34.983)scale(.78568)"/><path d="M-96.87 146.539c.125 1.64.357 3.002.582 4.321.348 2.036.676 3.958.553 6.576-.04.86-.038 1.616.402 2.12.7.8 2.287.751 3.59.617l10.33-1.058c1.444-.148 2.914-.367 3.638-1.242.557-.67.562-1.626.512-2.716-.148-3.27-2.254-11.098-3.158-12.467-5.966.275-15.342 1.534-16.45 3.849m3.804 15.046c-1.263 0-2.48-.247-3.27-1.15-.829-.95-.77-2.22-.73-3.063.116-2.47-.2-4.325-.535-6.29-.238-1.39-.483-2.829-.61-4.603l-.01-.138.047-.134c1.41-3.983 15.25-4.748 18.01-4.861l.228-.01.186.133c1.433 1.02 3.684 10.612 3.82 13.628.045.998.114 2.505-.817 3.63-1.045 1.26-2.885 1.545-4.529 1.715l-10.33 1.058c-.48.05-.973.085-1.46.085" style="fill:#211d1d;fill-opacity:1;fill-rule:nonzero;stroke:none;stroke-width:.0352778" transform="translate(178.578 34.983)scale(.78568)"/><path d="m-136.7 116.454-.237-4.015.157 2.656zm74.42-17.177.068-1.5z" style="fill:#d9d8d7;fill-opacity:1;fill-rule:nonzero;stroke:none;stroke-width:.0352778" transform="translate(178.578 34.983)scale(.78568)"/><path d="m-62.28 99.277.068-1.5z" style="fill:#211d1d;fill-opacity:1;fill-rule:nonzero;stroke:none;stroke-width:.0352778" transform="translate(178.578 34.983)scale(.78568)"/><path d="m-136.699 116.454-.08-1.359zm74.413-17.025.006-.152h.001z" style="fill:#7b7a7b;fill-opacity:1;fill-rule:nonzero;stroke:none;stroke-width:.0352778" transform="translate(178.578 34.983)scale(.78568)"/><path d="m-62.287 99.429.007-.152z" style="fill:#211d1d;fill-opacity:1;fill-rule:nonzero;stroke:none;stroke-width:.0352778" transform="translate(178.578 34.983)scale(.78568)"/><path d="M-62.288 99.474v-.024l.002-.021z" style="fill:#393537;fill-opacity:1;fill-rule:nonzero;stroke:none;stroke-width:.0352778" transform="translate(178.578 34.983)scale(.78568)"/><path d="M-62.287 99.45v-.021z" style="fill:#211d1d;fill-opacity:1;fill-rule:nonzero;stroke:none;stroke-width:.0352778" transform="translate(178.578 34.983)scale(.78568)"/><path d="M-97.677 158.004a.64.64 0 0 0 .378-.752c-1.11-4.416-2.44-12.689-3.166-13.5-.526-.586-7.882-7.825-11.413-9.963a.264.264 0 0 0-.4.226c-.104 3.835-.297 8.03 1.665 11.243q.033.053.075.102l11.064 12.908a.6.6 0 0 0 .682.173z" style="fill:#fff;fill-opacity:1;fill-rule:nonzero;stroke:none;stroke-width:.0352778" transform="translate(178.578 34.983)scale(.78568)"/><path d="M-111.63 134.742c-.1 3.609-.156 7.313 1.586 10.167l11.05 12.897 1.043-.412c-.425-1.697-.88-3.941-1.32-6.114-.563-2.776-1.334-6.58-1.701-7.098-.518-.575-7.033-6.978-10.658-9.44m12.62 24.408a1.28 1.28 0 0 1-.97-.448l-11.065-12.908a1.5 1.5 0 0 1-.137-.19c-1.995-3.27-1.877-7.483-1.773-11.201l.012-.406a.94.94 0 0 1 .487-.8.91.91 0 0 1 .924.02c3.562 2.16 10.992 9.452 11.564 10.09.52.579.985 2.685 2.004 7.708.439 2.166.892 4.407 1.311 6.075a1.304 1.304 0 0 1-.78 1.531l-1.114.441q-.227.089-.463.088" style="fill:#211d1d;fill-opacity:1;fill-rule:nonzero;stroke:none;stroke-width:.0352778" transform="translate(178.578 34.983)scale(.78568)"/><path d="M-120.829 160.861c3.171 3.465 10.477 9.3 11.46 9.518 1.426.325 2.193.1 3.196-.998q3.5-3.816 6.999-7.638c1.02-1.11 2.11-2.416 2.016-3.944-.078-1.252-.937-2.286-1.753-3.214l-7.766-8.847c-.571-.653-1.19-1.334-2.013-1.556-1.214-.325-2.426.448-3.423 1.245a.6.6 0 0 0-.086.081c-.666.78-10.239 11.342-8.63 15.353" style="fill:#bae7e0;fill-opacity:1;fill-rule:nonzero;stroke:none;stroke-width:.0352778" transform="translate(178.578 34.983)scale(.78568)"/><path d="M-120.249 160.509c3.177 3.432 10.088 8.914 11.043 9.225 1.185.268 1.71.102 2.542-.801l6.998-7.638c.974-1.065 1.92-2.208 1.842-3.457-.062-.998-.756-1.866-1.588-2.812l-7.766-8.85c-.459-.523-1.03-1.172-1.685-1.348-.949-.254-2.013.465-2.834 1.121-.032.04-.097.11-.185.212-5.975 6.802-9.085 12.143-8.367 14.348m11.92 10.671c-.36 0-.75-.05-1.186-.148-1.337-.303-8.84-6.48-11.806-9.723l-.082-.088-.045-.113c-1.383-3.446 3.894-10.509 8.565-15.829l.178-.204c.055-.064.112-.117.177-.17 1.065-.85 2.484-1.774 4.01-1.365 1.047.282 1.795 1.132 2.342 1.757l7.766 8.847c.96 1.094 1.83 2.195 1.917 3.613.11 1.77-1.073 3.217-2.19 4.438l-6.998 7.637c-.856.935-1.627 1.348-2.648 1.348" style="fill:#211d1d;fill-opacity:1;fill-rule:nonzero;stroke:none;stroke-width:.0352778" transform="translate(178.578 34.983)scale(.78568)"/><path d="M-112.116 133.923a.293.293 0 0 0-.45-.127c-3.406 2.576-10.779 6.894-12.197 10.71-1.229 3.306 2.906 13.533 3.8 15.674a.263.263 0 0 0 .445.071l12.738-14.767a.84.84 0 0 0 .137-.872z" style="fill:#ecf9f7;fill-opacity:1;fill-rule:nonzero;stroke:none;stroke-width:.0352778" transform="translate(178.578 34.983)scale(.78568)"/><path d="M-112.549 134.615c-.677.497-1.475 1.047-2.311 1.626-3.478 2.41-8.24 5.708-9.278 8.498-.856 2.304 1.32 9.155 3.542 14.58l12.312-14.27a.18.18 0 0 0 .026-.18zm-8.167 26.398a.7.7 0 0 1-.147-.014.92.92 0 0 1-.715-.565c-1.219-2.913-5.095-12.7-3.81-16.16 1.184-3.186 5.944-6.48 9.768-9.127a83 83 0 0 0 2.652-1.883c.238-.18.54-.24.827-.163.29.078.523.286.64.565l4.473 10.689c.22.522.122 1.14-.247 1.566l-12.738 14.767a.93.93 0 0 1-.703.325" style="fill:#211d1d;fill-opacity:1;fill-rule:nonzero;stroke:none;stroke-width:.0352778" transform="translate(178.578 34.983)scale(.78568)"/><path d="M-135.254 116.344s.007.089.014.247c.591 10.03 1.192 20.595 1.58 29.835.656 15.8.191 26.5.033 29.404l-.004.046c-.01.08-.02.169-.016.225l.005.081-.014.085c-.005.035-.002.074-.002.113 0 2.12 1.276 4.205 3.794 6.195 1.656 1.312 3.922 2.956 6.772 4.064 2.401.938 5.23 1.605 7.679 2.134 1.924.42 3.973.603 6.141.797q.879.078 1.77.166.925.095 1.862.201c1.978.223 4.023.455 6.094.455 2.953 0 5.564-.116 7.983-.356 2.932-.293 5.743-.86 7.865-1.323 3.073-.67 5.805-1.672 7.593-2.367 2.95-1.154 5.213-2.367 6.918-3.715 2.439-1.922 3.675-4.025 3.675-6.25l.917-57.864.537-11.927c0-.116.008-.233.014-.35l.02-.49c.005-.063.005-.091.007-.123l.008-.152.018-.409.004-.106.01-.194q.002-.068.007-.13l.788-17.488c-.718.974-1.65 1.913-2.79 2.805-1.968 1.538-4.56 2.914-7.924 4.212-3.225 1.242-5.844 2.05-8.49 2.618-2.526.543-5.54 1.14-8.742 1.453-2.687.261-5.579.388-8.842.388-2.313 0-4.556-.247-6.727-.486-.7-.078-1.396-.156-2.084-.223-.65-.063-1.296-.12-1.935-.18-2.405-.211-4.675-.416-6.853-.885-2.73-.586-5.886-1.323-8.594-2.367-3.288-1.267-5.874-3.122-7.758-4.597q-1.92-1.499-3.06-3.094c.393 7.095.83 14.453 1.256 21.604.159 2.664.317 5.317.472 7.948m35.708 75.495c-2.154 0-4.24-.233-6.257-.459-.62-.07-1.234-.14-1.843-.2q-.884-.09-1.756-.163c-2.215-.201-4.308-.388-6.32-.826-2.504-.543-5.401-1.227-7.897-2.201-3.03-1.178-5.41-2.903-7.144-4.276-2.884-2.282-4.346-4.748-4.346-7.334 0-.078 0-.173.012-.275a3 3 0 0 1 .024-.374c.158-2.917.616-13.547-.035-29.249-.387-9.225-.988-19.78-1.58-29.817l-.012-.211c-.156-2.653-.314-5.306-.473-7.973-.5-8.41-1.017-17.106-1.458-25.322q-.017-.304.064-.607l1.002-3.743.42 3.852c.225 2.078 1.61 4.124 4.115 6.086 1.806 1.41 4.278 3.185 7.387 4.385 2.614 1.005 5.702 1.728 8.377 2.303 2.091.448 4.319.646 6.678.857.643.06 1.293.117 1.947.18.695.071 1.396.149 2.103.226 2.131.237 4.334.48 6.566.48 3.216 0 6.062-.127 8.701-.385 3.13-.306 6.093-.892 8.58-1.428 2.57-.55 5.12-1.337 8.273-2.554 3.229-1.242 5.699-2.551 7.553-4 2.12-1.659 3.416-3.451 3.854-5.328l.13-.56.69.01.644.099-.98 21.734-.004.064-.006.106q0 .051-.003.102l-.024.533-.006.116-.009.148-.018.473a5 5 0 0 0-.012.3l-.001.035-.047.942-.49 10.978-.917 57.831c0 2.678-1.422 5.161-4.226 7.373-1.819 1.44-4.203 2.724-7.29 3.93-1.834.713-4.638 1.74-7.81 2.43-2.16.474-5.024 1.052-8.03 1.352-2.469.243-5.126.36-8.126.36" style="fill:#211d1d;fill-opacity:1;fill-rule:nonzero;stroke:none;stroke-width:.0352778" transform="translate(178.578 34.983)scale(.78568)"/><path d="M-63.002 98.73c0 2.445-1.456 4.72-4.209 6.738-1.958 1.436-4.533 2.67-7.567 3.768-2.46.889-5.189 1.764-8.198 2.37-2.655.533-5.49 1.045-8.47 1.32-2.749.25-5.63.356-8.578.356s-5.798-.395-8.547-.649c-2.98-.272-5.86-.43-8.514-.963-3.01-.607-5.84-1.256-8.3-2.145-3.034-1.097-5.447-2.681-7.405-4.117-2.753-2.018-4.336-4.233-4.336-6.678 0-2.441 1.614-4.621 4.367-6.64 1.958-1.435 4.375-2.966 7.41-4.063a58 58 0 0 1 8.244-2.321c2.655-.533 5.532-.808 8.512-1.08a93 93 0 0 1 8.57-.395c2.947 0 5.812.201 8.561.455 2.98.272 5.79.826 8.445 1.362 3.01.603 5.76 1.344 8.22 2.23 3.034 1.096 5.578 2.345 7.537 3.781 2.752 2.018 4.258 4.23 4.258 6.671" style="fill:#ecafb6;fill-opacity:1;fill-rule:nonzero;stroke:none;stroke-width:.0352778" transform="translate(178.578 34.983)scale(.78568)"/><path d="M-100.024 84.954c-2.8 0-5.662.134-8.503.392-2.69.247-5.74.529-8.435 1.069a57.6 57.6 0 0 0-8.14 2.293c-3.207 1.157-5.662 2.818-7.229 3.968-2.739 2.008-4.07 3.99-4.07 6.054 0 2.078 1.359 4.131 4.04 6.096 1.765 1.291 4.182 2.921 7.223 4.018 2.557.925 5.578 1.588 8.196 2.113 2.044.413 4.222.597 6.528.79.63.054 1.268.106 1.909.166q1.02.092 2.058.205c2.084.215 4.24.437 6.423.437 3.146 0 5.93-.112 8.512-.352 3.062-.279 5.961-.819 8.393-1.31 2.514-.504 5.01-1.227 8.094-2.342 3.159-1.139 5.575-2.338 7.386-3.668 2.596-1.902 3.912-3.973 3.912-6.153 0-2.11-1.333-4.16-3.962-6.085-1.83-1.344-4.304-2.583-7.355-3.683-2.364-.858-5.094-1.598-8.116-2.205-2.368-.476-5.314-1.07-8.368-1.351-2.297-.208-5.339-.452-8.496-.452m0 29.051c-2.258 0-4.451-.225-6.572-.448-.687-.07-1.367-.14-2.042-.2q-.957-.089-1.898-.167c-2.348-.197-4.566-.384-6.693-.81-2.67-.537-5.755-1.214-8.401-2.174-3.216-1.16-5.745-2.861-7.589-4.212-3.073-2.254-4.631-4.696-4.631-7.264 0-2.561 1.525-4.921 4.662-7.221 1.64-1.203 4.21-2.942 7.593-4.163a58 58 0 0 1 8.347-2.35c2.771-.557 5.862-.843 8.589-1.093a95 95 0 0 1 8.635-.399c3.216 0 6.3.247 8.629.459 3.13.29 6.12.889 8.521 1.372 3.092.621 5.892 1.383 8.323 2.261 3.225 1.168 5.75 2.435 7.719 3.877 3.022 2.216 4.555 4.657 4.555 7.257 0 2.667-1.516 5.13-4.506 7.324-1.923 1.407-4.459 2.674-7.75 3.863-3.153 1.14-5.713 1.88-8.3 2.399-2.47.497-5.416 1.044-8.546 1.33-2.627.243-5.454.36-8.645.36" style="fill:#211d1d;fill-opacity:1;fill-rule:nonzero;stroke:none;stroke-width:.0352778" transform="translate(178.578 34.983)scale(.78568)"/><path d="M-76.233 108.738s-6.02 7.656-11.881 6.495c-5.86-1.16-11.089-8.15-12.523-11.02-1.434-2.872-3.02-10.38-.897-14.902 0 0-4.736-2.875-8.658 2.61-5.445 7.617-.465 21.072 11.26 25.686 11.727 4.618 18.585 1.164 18.585 1.164z" style="fill:#fff;fill-opacity:1;fill-rule:nonzero;stroke:none;stroke-width:.0352778" transform="translate(178.578 34.983)scale(.78568)"/><path d="M-104.492 89.135c-1.508 0-3.446.631-5.229 3.125-2.166 3.03-2.678 7.24-1.404 11.55 1.756 5.937 6.393 10.894 12.407 13.261 10.3 4.053 16.763 1.753 17.923 1.267l2.819-6.876c-2.356 2.233-6.286 5.126-10.25 4.34-6.039-1.193-11.408-8.28-12.93-11.329-1.45-2.907-2.977-10.188-1.126-14.887a5.7 5.7 0 0 0-2.21-.451m17.2 31.47c-3.07 0-7.06-.57-11.851-2.458-6.343-2.494-11.238-7.733-13.094-14.009-1.376-4.653-.803-9.228 1.573-12.552 4.187-5.856 9.38-2.8 9.431-2.769l.446.272-.222.469c-2.003 4.265-.485 11.638.89 14.397 1.606 3.217 6.81 9.659 12.117 10.71 5.445 1.076 11.255-6.212 11.314-6.286l2.567-3.264-5.771 14.076-.194.099c-.172.085-2.698 1.316-7.207 1.316" style="fill:#211d1d;fill-opacity:1;fill-rule:nonzero;stroke:none;stroke-width:.0352778" transform="translate(178.578 34.983)scale(.78568)"/><path d="M-100.992 115.702c6.593 3.592 15.882 2.784 15.882 2.784l-4.51 3.351s-10.949-1.86-14.973-3.669a4.4 4.4 0 0 1-.761-.462c1.072-.677 4.009-2.198 4.362-2.004" style="fill:#e7e2b9;fill-opacity:1;fill-rule:nonzero;stroke:none;stroke-width:.0352778" transform="translate(178.578 34.983)scale(.78568)"/><path d="M-104.322 117.713c3.644 1.612 13.007 3.292 14.57 3.563l2.94-2.184c-3.023.053-9.347-.2-14.328-2.871-.467.092-2.025.843-3.182 1.492m14.837 4.681-.223-.038c-.45-.074-11.062-1.888-15.102-3.705a5 5 0 0 1-.855-.515l-.631-.458.659-.416c.04-.029 4.051-2.484 4.898-2.025 6.38 3.474 15.491 2.73 15.583 2.723l1.858-.162z" style="fill:#211d1d;fill-opacity:1;fill-rule:nonzero;stroke:none;stroke-width:.0352778" transform="translate(178.578 34.983)scale(.78568)"/><path d="M-87.825 86.016a.356.356 0 0 0 .101.55c2.467 1.217 15.068 8.164 10.07 20.648-5.527 13.815-17.34 14.553-25.743 11.067l-2.226-.494 1.236 1.154s3.693 5.115 11.01 6.068 13.1.035 19.423-7.137c4.875-5.532 10.22-17.166 5.245-29.168-3.085-7.443-14.68-11.31-14.68-11.31-.693 4.1-1.898 5.673-4.436 8.622" style="fill:#e6da3f;fill-opacity:1;fill-rule:nonzero;stroke:none;stroke-width:.0352778" transform="translate(178.578 34.983)scale(.78568)"/><path d="M-87.825 86.016h.004zm-15.942 32.777c.752.917 4.294 4.84 10.466 5.64 7.08.925 12.714.085 18.912-6.946 4.29-4.864 10.202-16.358 5.144-28.56-2.543-6.135-11.27-9.829-13.698-10.753-.729 3.686-2.007 5.38-4.26 8.008 3.13 1.601 15.106 8.706 10.088 21.248-2.338 5.845-5.922 9.814-10.65 11.807-4.67 1.965-10.427 1.817-15.806-.402zm14.778 7.115c-1.435 0-2.915-.123-4.462-.324-7.185-.935-10.946-5.69-11.37-6.255l-2.75-2.565 4.397.98c5.107 2.121 10.56 2.273 14.959.424 4.432-1.866 7.804-5.623 10.023-11.169 4.795-11.98-7.312-18.69-9.788-19.914a.91.91 0 0 1-.494-.642.95.95 0 0 1 .21-.808c2.497-2.9 3.63-4.35 4.303-8.336l.113-.667.642.212c.484.162 11.882 4.04 15.032 11.638 5.277 12.728-.877 24.705-5.346 29.77-5.18 5.878-9.985 7.656-15.469 7.656" style="fill:#211d1d;fill-opacity:1;fill-rule:nonzero;stroke:none;stroke-width:.0352778" transform="translate(178.578 34.983)scale(.78568)"/><path d="m-104.713 118.528 10.82-8.862 1.707-11.606-9.367-15.399-10.268 4.198-3.055 6.622-.422 4.84s.3 3.457 1.86 6.734c1.562 3.274 4.385 6.365 4.393 6.802.017.875 4.248.522 4.248.522s-5.358-7.059-6.621-10.671c-1.264-3.616-.799-8.319 4.219-11.363 3.792-2.3 6.57 1.785 7.553 3.95 1.524 3.36 1.848 6.15.577 10.56-1.667 5.778-3.581 7.418-6.35 8.477-2.8 1.069-8.765.564-12.916-2.73-.25-.198-.631-.054-.655.27-.081 1.147 2.368 4.05 2.368 4.05l5.407 2.897z" style="fill:#e7e2b9;fill-opacity:1;fill-rule:nonzero;stroke:none;stroke-width:.0352778" transform="translate(178.578 34.983)scale(.78568)"/><path d="M-104.973 90.242c-.63 0-1.266.198-1.925.6-5.9 3.577-4.533 9.073-3.973 10.675 1.22 3.486 6.482 10.442 6.535 10.51l.092.123c1.926-1.097 3.328-2.981 4.618-7.458 1.165-4.04 1.022-6.7-.548-10.156-.753-1.662-2.167-3.623-3.88-4.153a3.2 3.2 0 0 0-.919-.14m-6.067 27.011 6.148.67 10.457-8.565 1.645-11.176-9.001-14.799-9.6 3.923-2.916 6.325-.41 4.685c.044.424.405 3.556 1.803 6.488.95 1.993 2.393 3.933 3.348 5.218.722.973 1 1.358 1.077 1.65.334.156 1.39.226 2.585.188-1.48-2.015-5.035-7.028-6.061-9.963-.633-1.806-2.18-8.019 4.466-12.047 1.264-.77 2.538-.96 3.788-.575 2.617.811 4.177 3.863 4.593 4.78 1.678 3.7 1.843 6.67.606 10.957-1.706 5.92-3.749 7.73-6.7 8.858-2.731 1.045-8.71.716-13.103-2.526.292.755 1.19 2.068 2.065 3.119zm6.506 1.877-6.855-.748-5.605-3.002-.071-.084c-.61-.724-2.595-3.183-2.503-4.467a.96.96 0 0 1 .575-.815 1 1 0 0 1 1.019.131c3.684 2.925 8.693 3.517 11.512 2.89-1.136.006-2.38-.1-2.863-.533a.9.9 0 0 1-.293-.544c-.096-.19-.51-.748-.879-1.245-.982-1.32-2.465-3.316-3.464-5.412-1.588-3.33-1.902-6.784-1.915-6.932l-.004-.05.436-4.99 3.193-6.922 10.936-4.474 9.734 16.002-1.771 12.037z" style="fill:#211d1d;fill-opacity:1;fill-rule:nonzero;stroke:none;stroke-width:.0352778" transform="translate(178.578 34.983)scale(.78568)"/><path d="M-108.455 114.577c2.61-.099 5.27-2.403 6.076-3.161.078-.074.013-.205-.09-.187-3.656.547-6.894 1.351-12.191-4.508a.102.102 0 0 0-.163.014c-.88 1.393-2.21 2.437-3.708 3.464a.112.112 0 0 0-.008.18c3.09 2.385 7.98 4.276 10.084 4.198" style="fill:#fff;fill-opacity:1;fill-rule:nonzero;stroke:none;stroke-width:.0352778" transform="translate(178.578 34.983)scale(.78568)"/><path d="M-118.202 110.675h-.001m9.727 3.32.021.582zc1.618-.06 3.299-1.08 4.45-1.951-3.079.406-6.18.272-10.658-4.49-.814 1.09-1.887 1.968-2.985 2.747 3.034 2.156 7.386 3.76 9.192 3.694m-.106 1.164c-2.447 0-7.385-2.06-10.312-4.322a.69.69 0 0 1-.266-.564.7.7 0 0 1 .302-.554c1.549-1.062 2.745-2.028 3.545-3.295a.67.67 0 0 1 .518-.314.68.68 0 0 1 .565.222c4.856 5.373 7.794 4.918 11.195 4.396l.48-.074a.685.685 0 0 1 .72.381.69.69 0 0 1-.147.804c-1.025.963-3.707 3.214-6.451 3.316l-.15.004" style="fill:#211d1d;fill-opacity:1;fill-rule:nonzero;stroke:none;stroke-width:.0352778" transform="translate(178.578 34.983)scale(.78568)"/><path d="M-90.014 108.9c5.675-8.466 1.798-16.552-1.08-21.759-2.139-3.87-4.534-5.185-9.664-5.34-3.314-.1-6.417 1.276-8.42 2.366-1.778.967-4.099 2.336-5.94 6.703-1.84 4.371.09 10.05.09 10.05.309-2.747-.726-5.174 1.33-8.67a12.3 12.3 0 0 1 7.608-5.694c6.749-1.725 12.003 7.57 10.798 15.5-1.099 7.24-7.123 13.742-12.084 14.743-3.709.752-7.775-.853-11.198-3.905.466 2.194 8.222 5.976 10.2 6.297 5.994.967 12.685-1.82 18.36-10.29" style="fill:#e6da3f;fill-opacity:1;fill-rule:nonzero;stroke:none;stroke-width:.0352778" transform="translate(178.578 34.983)scale(.78568)"/><path d="M-111.83 117.244c1.478.723 2.834 1.26 3.55 1.376 6.434 1.037 12.75-2.53 17.784-10.04 5.113-7.63 2.31-14.976-1.105-21.156-2.028-3.67-4.257-4.893-9.175-5.045-2.455-.07-5.19.698-8.124 2.296-1.539.84-3.865 2.107-5.684 6.421-.475 1.129-.683 2.357-.735 3.549a10 10 0 0 1 1.121-2.688c1.756-2.981 4.584-5.101 7.964-5.962 2.462-.628 4.871.039 6.967 1.937 3.472 3.143 5.342 8.985 4.548 14.213-1.17 7.715-7.55 14.217-12.542 15.226-1.46.293-3.005.243-4.569-.127m5.754 2.71q-1.19 0-2.39-.191c-2.023-.328-10.133-4.191-10.675-6.749l-.366-1.732 1.32 1.178c3.447 3.076 7.346 4.449 10.696 3.771 4.607-.927 10.558-7.224 11.626-14.262.727-4.784-1.031-10.326-4.18-13.177-1.25-1.132-3.29-2.342-5.902-1.675-3.078.786-5.654 2.716-7.251 5.429-1.349 2.29-1.285 4.05-1.216 5.912.03.812.06 1.655-.038 2.53l-.291 2.579-.835-2.46c-.081-.239-1.979-5.943-.074-10.459 1.824-4.329 4.062-5.828 6.198-6.989 3.116-1.7 6.048-2.518 8.713-2.437 5.351.162 7.913 1.584 10.154 5.64 2.354 4.259 7.25 13.117 1.054 22.363-4.687 6.996-10.488 10.728-16.543 10.728" style="fill:#211d1d;fill-opacity:1;fill-rule:nonzero;stroke:none;stroke-width:.0352778" transform="translate(178.578 34.983)scale(.78568)"/><path d="M-74.12 104.438c.85 0 .851-1.32 0-1.32-.85 0-.852 1.32 0 1.32m-25.648 11c.85 0 .852-1.32 0-1.32-.85 0-.851 1.32 0 1.32m10.925-12.792c.85 0 .852-1.32 0-1.32-.85 0-.852 1.32 0 1.32m-4.551 3.277c.85 0 .852-1.32 0-1.32-.85 0-.851 1.32 0 1.32m12.245-23.671c.85 0 .852-1.323 0-1.323-.85 0-.851 1.323 0 1.323m10.509 23.834c.85 0 .853-1.32 0-1.32-.85 0-.85 1.32 0 1.32m.317-3.613c.85 0 .852-1.32 0-1.32-.85 0-.851 1.32 0 1.32m-7.26 13.011c.85 0 .852-1.323 0-1.323-.85 0-.851 1.323 0 1.323m-8.359 6.462c.85 0 .852-1.319 0-1.319-.85 0-.851 1.32 0 1.32m-5.668.593c.85 0 .85-1.324 0-1.324-.851 0-.853 1.323 0 1.323m21.562-27.054c.85 0 .851-1.323 0-1.323-.85 0-.852 1.323 0 1.323m-3.962-.463c.85 0 .85-1.322 0-1.322-.851 0-.852 1.322 0 1.322m-18.027-.829c.85 0 .851-1.319 0-1.319-.85 0-.852 1.32 0 1.32m-2.159-2.84c.85 0 .852-1.323 0-1.323-.85 0-.851 1.323 0 1.323m-.477-4.269c.85 0 .852-1.323 0-1.323-.85 0-.851 1.323 0 1.323m-3.133-.656c.85 0 .852-1.32 0-1.32-.85 0-.851 1.32 0 1.32m-4.631-.659c.85 0 .852-1.324 0-1.324-.85 0-.852 1.323 0 1.323m10.782 15.431c.85 0 .851-1.32 0-1.32-.85 0-.852 1.32 0 1.32m.725-3.098c.85 0 .852-1.32 0-1.32-.85 0-.851 1.32 0 1.32m-2.249 10.993c.85 0 .852-1.323 0-1.323-.85 0-.851 1.323 0 1.323m1.677-4.248c.85 0 .852-1.32 0-1.32-.85 0-.85 1.32 0 1.32m-3.443 7.186c.85 0 .852-1.319 0-1.319-.85 0-.851 1.32 0 1.32m22.464-20.677c.85 0 .851-1.32 0-1.32-.85 0-.852 1.32 0 1.32m-3.106-7.144c.85 0 .852-1.323 0-1.323-.85 0-.852 1.323 0 1.323m2.838 1.817c.85 0 .851-1.32 0-1.32-.85 0-.852 1.32 0 1.32m.477 12.545c.85 0 .851-1.323 0-1.323-.85 0-.852 1.323 0 1.323m-3.38-8.431c.85 0 .851-1.323 0-1.323-.85 0-.852 1.323 0 1.323m-3.618-2.29c.85 0 .85-1.32 0-1.32s-.852 1.32 0 1.32m-4.245-1.916c.85 0 .852-1.323 0-1.323-.85 0-.85 1.323 0 1.323m4.401-1.298c.85 0 .851-1.323 0-1.323-.85 0-.852 1.323 0 1.323m5.504 30.082c.85 0 .852-1.323 0-1.323-.85 0-.852 1.323 0 1.323m-.144-4.876c.85 0 .852-1.32 0-1.32-.85 0-.851 1.32 0 1.32m-6.026 10.509c.851 0 .853-1.319 0-1.319-.849 0-.85 1.32 0 1.32" style="fill:#fff;fill-opacity:1;fill-rule:nonzero;stroke:none;stroke-width:.0352778" transform="translate(178.578 34.983)scale(.78568)"/><path d="M-99.797 176.715c-3.31 0-7.632-.374-11.974-1.051a95 95 0 0 1-5.386-.995c-7.436-1.62-13.049-7.966-13.968-15.797-1.76-15.011-3.934-39.9-4.116-42.295l-.013-.233-.304-5.13-.166-2.786-.298-5.03q1.065 1.31 2.744 2.553.006.001.011.007l.048.036c1.844 1.35 4.373 3.051 7.589 4.212 1.96.709 4.163 1.266 6.26 1.725l.229 1.083c.426 2.007 5.515 4.819 8.662 6.096-3.125 3.087-7.744 8.058-7.63 10.361.053 1.08 1.424 3.175 3.157 5.214l-.668.462c-3.824 2.646-8.584 5.941-9.768 9.127-.39 1.051-.305 2.684.037 4.53a3 3 0 0 0-.443-.032c-1.47 0-2.941 1.093-2.858 3.21.078 2 1.463 2.97 2.849 2.97a2.87 2.87 0 0 0 1.907-.712 87 87 0 0 0 2.245 6.018c.03.303.097.59.203.85l.045.113.082.088c2.053 2.244 6.28 5.895 9.13 8.03a1.7 1.7 0 0 0-.678-.138c-.882 0-1.765.656-1.715 1.93.047 1.2.878 1.781 1.71 1.781.881 0 1.764-.656 1.715-1.926-.02-.515-.184-.914-.429-1.203.977.706 1.729 1.171 2.073 1.249.436.099.826.148 1.186.148 1.02 0 1.792-.413 2.648-1.348l6.998-7.637c.702-.766 1.43-1.623 1.847-2.593.113.29.273.571.5.832.79.904 2.006 1.15 3.27 1.15.486 0 .98-.035 1.459-.084l10.33-1.059c1.644-.169 3.484-.455 4.529-1.714.411-.497.627-1.069.737-1.637.274-.462.576-.938.893-1.422q.079.012.16.014c.44 0 .882-.328.857-.963a1.05 1.05 0 0 0-.1-.423l.317-.466c1.742-2.56 3.388-4.98 3.604-6.794.264-2.205-2.937-10.99-4.303-14.094a.87.87 0 0 0-.501-.462 1.2 1.2 0 0 0-.79-.32 53 53 0 0 0-.81-.008c-3.335 0-7.48.452-10.734 1.369l.987-1.263c.414-.53 1.091-1.397 1.072-2.43.078-.262.03-.52.01-.621-.124-.657-.741-1.902-1.647-3.384 4.678-.412 8.932-2.413 13.476-7.57 2.216-2.512 4.847-6.724 6.292-11.885q.228-.155.445-.314l.05-.04.01-.006c.017-.01.033-.025.05-.035q.002-.005.004-.004 1.71-1.276 2.758-2.664l-.06 1.33-.008.13-.009.195-.004.095v.01l-.018.41q-.005.074-.008.152c-.002.031-.002.06-.007.123l-.02.49q-.01.175-.014.35l-.041.924h-.004c-.025.518-.05 1.083-.075 1.683l-.417 9.32-.023 1.425c-.494 11.832-1.268 27.961-2.595 38.71-1.005 8.132-7.198 14.655-15.064 15.861-.791.124-1.608.237-2.459.357a136 136 0 0 0-5.197.797c-3.035.547-5.832.896-8.088 1.005a35 35 0 0 1-1.775.043m-2.962-5.542c-.696 0-1.394.515-1.355 1.52.038.949.694 1.408 1.35 1.408.698 0 1.395-.519 1.356-1.52-.038-.95-.694-1.408-1.35-1.408m13.507.243c-.44 0-.882.328-.857.963.023.6.439.89.855.89.44 0 .882-.329.857-.964-.024-.6-.44-.889-.855-.889m-6.178-4.367c-1.283 0-2.568.952-2.495 2.8.068 1.747 1.277 2.597 2.487 2.597 1.283 0 2.568-.956 2.495-2.804-.068-1.747-1.277-2.593-2.487-2.593m-22.875 1.93c-.44 0-.882.327-.857.962.024.6.439.893.854.893.441 0 .883-.328.858-.963-.024-.6-.439-.893-.855-.893m33.826-1.421c-.709 0-1.42.529-1.379 1.552.038.963.706 1.432 1.375 1.432.71 0 1.42-.529 1.38-1.549-.039-.966-.707-1.435-1.376-1.435m10.98-1.62c-.44 0-.882.328-.857.963.024.6.439.89.854.89.441 0 .883-.329.858-.964-.024-.6-.439-.889-.854-.889m-50.122-.832c-.533 0-1.067.395-1.037 1.164.029.727.53 1.076 1.033 1.076.534 0 1.067-.395 1.037-1.16-.029-.727-.53-1.08-1.033-1.08m-3.24-4.18c-.44 0-.883.327-.857.962.023.6.439.893.855.893.44 0 .882-.328.857-.963-.024-.6-.439-.893-.855-.893m46.086-.204c-.44 0-.882.328-.857.963.023.6.439.892.854.892.441 0 .883-.328.858-.963-.024-.6-.439-.892-.855-.892m10.502-2.706c-.882 0-1.765.656-1.715 1.926.047 1.2.878 1.782 1.71 1.782.881 0 1.764-.656 1.715-1.926-.048-1.2-.878-1.782-1.71-1.782m2.447-10.806c-.441 0-.883.325-.858.96.024.603.44.892.855.892.441 0 .883-.328.858-.963-.024-.6-.44-.889-.855-.889m-60.773-8.766c-.44 0-.882.328-.857.963.024.6.439.892.854.892.441 0 .883-.328.858-.963-.024-.6-.439-.892-.855-.892m5.495-7.317c-.882 0-1.765.656-1.716 1.926.048 1.203.878 1.785 1.71 1.785.882 0 1.765-.656 1.715-1.926-.047-1.2-.878-1.785-1.71-1.785m49.337-2.134c-.697 0-1.394.519-1.354 1.52.037.95.693 1.412 1.35 1.412.696 0 1.394-.519 1.355-1.524-.038-.946-.694-1.408-1.35-1.408m-56.737-2.459c-.882 0-1.766.656-1.716 1.926.048 1.2.878 1.782 1.71 1.782.882 0 1.765-.656 1.715-1.926-.047-1.2-.878-1.782-1.71-1.782m50.193-1.065c-1.062 0-2.126.79-2.065 2.321.056 1.446 1.057 2.148 2.059 2.148 1.062 0 2.126-.79 2.066-2.32-.057-1.447-1.058-2.15-2.06-2.15m12.32-1.298c-.882 0-1.765.653-1.715 1.927.048 1.2.878 1.781 1.71 1.781.882 0 1.765-.656 1.715-1.926-.048-1.2-.878-1.782-1.71-1.782m-4.038-5.044c-.882 0-1.765.656-1.715 1.926.047 1.2.878 1.781 1.71 1.781.881 0 1.764-.656 1.715-1.926-.048-1.2-.878-1.781-1.71-1.781m-54.237-.667c-.882 0-1.765.656-1.715 1.926.047 1.2.878 1.785 1.71 1.785.881 0 1.764-.656 1.714-1.926-.047-1.203-.877-1.785-1.709-1.785m7.789-.698c-.993 0-1.988.737-1.932 2.17.053 1.35.989 2.006 1.925 2.006.994 0 1.988-.737 1.932-2.17-.053-1.35-.989-2.006-1.925-2.006m52.143-4.064c-.441 0-.883.328-.858.963.024.6.44.892.855.892.441 0 .883-.328.858-.963-.024-.6-.44-.892-.855-.892m-65.722-2.77c-.44 0-.882.328-.857.963.023.6.439.893.855.893.44 0 .882-.328.857-.963-.023-.6-.439-.893-.855-.893m34.988 44.394c-.296-1.334-.6-2.837-.898-4.304-1.018-5.024-1.484-7.13-2.003-7.708-.158-.177-.836-.858-1.812-1.8 1.318.223 2.655.374 3.933.374.369 0 .733-.01 1.09-.038q.368-.027.76-.074a62 62 0 0 0-2.005 4.046l-.03.07a2.3 2.3 0 0 0-.143.322l-.046.134.01.137c.126 1.775.371 3.214.609 4.604.235 1.383.462 2.71.535 4.237" style="fill:#c12c36;fill-opacity:1;fill-rule:nonzero;stroke:none;stroke-width:.0352778" transform="translate(178.578 34.983)scale(.78568)"/><path d="m-135.254 116.344-.227-3.838-.072-1.213-.005-.078z" style="fill:#a02b36;fill-opacity:1;fill-rule:nonzero;stroke:none;stroke-width:.0352778" transform="translate(178.578 34.983)scale(.78568)"/><path d="M-97.874 140.552c-1.83 0-3.799-.335-5.704-.748l-.24-.222c.955-.593 1.796-1.34 2.539-2l7.36-6.534c.272-.24.6-.533.88-.892l6.246.197c-.141.36-.412.73-.689 1.083l-2.258 2.89q-.277.12-.535.246c-1.65.812-3.4 3.21-4.842 5.645-.564.19-1.184.254-1.742.296q-.499.04-1.015.039m1.68-6.428c-.882 0-1.765.656-1.715 1.926.048 1.2.878 1.782 1.71 1.782.882 0 1.765-.653 1.715-1.926-.047-1.2-.878-1.782-1.71-1.782" style="fill:#bd4f5c;fill-opacity:1;fill-rule:nonzero;stroke:none;stroke-width:.0352778" transform="translate(178.578 34.983)scale(.78568)"/><path d="M-97.847 141.882c-1.277 0-2.615-.152-3.933-.374a170 170 0 0 0-1.798-1.704c1.905.413 3.874.748 5.704.748.344 0 .682-.01 1.015-.039.558-.042 1.178-.106 1.742-.296a50 50 0 0 0-.88 1.552q-.392.048-.76.074-.536.04-1.09.039m8.107-7.557 2.258-2.889c.277-.353.548-.723.689-1.083l1.075.032.208-.265a.9.9 0 0 0 .15-.292c.02 1.033-.657 1.901-1.071 2.43l-.987 1.263c-.844.237-1.628.505-2.322.804" style="fill:#8d1f24;fill-opacity:1;fill-rule:nonzero;stroke:none;stroke-width:.0352778" transform="translate(178.578 34.983)scale(.78568)"/><path d="M-104.846 138.636c-2.323-2.116-4.96-4.37-6.686-5.418a.92.92 0 0 0-.638-.124.96.96 0 0 0-.798.17q-.41.307-.893.652c-1.08-1.263-1.953-2.48-2.454-3.369.306-.123.546-.427.528-.9-.024-.6-.439-.888-.855-.888h-.01c.742-2.054 4.584-6.27 7.537-9.155.256.074.475.13.649.159a15.2 15.2 0 0 0 3.488.151l10.694 9.645a8 8 0 0 1-.52.49l-7.36 6.538c-.783.691-1.685 1.492-2.682 2.05m-3.067-6.354c-.44 0-.882.328-.858.963.024.6.44.892.855.892.441 0 .883-.328.858-.963-.024-.6-.439-.892-.855-.892m8.62-3.57c-.44 0-.882.328-.857.963.024.603.44.892.855.892.441 0 .883-.328.858-.963-.024-.6-.44-.892-.855-.892m-7.268-5.733c-.88 0-1.763.656-1.713 1.923.047 1.2.877 1.781 1.708 1.781.88 0 1.764-.652 1.714-1.922-.047-1.2-.878-1.782-1.709-1.782" style="fill:#cf5363;fill-opacity:1;fill-rule:nonzero;stroke:none;stroke-width:.0352778" transform="translate(178.578 34.983)scale(.78568)"/><path d="M-103.818 139.582q-.5-.467-1.028-.946c.998-.557 1.9-1.358 2.682-2.05l7.36-6.536c.193-.17.37-.332.52-.49l.64.578.605.018c-.28.36-.608.652-.88.892l-7.36 6.534c-.743.66-1.584 1.407-2.54 2m-11.133-4.897c-1.733-2.039-3.104-4.134-3.157-5.214-.114-2.303 4.505-7.274 7.63-10.36.517.207.982.377 1.365.493-2.953 2.886-6.796 7.101-7.537 9.155-.438.004-.873.331-.849.963.024.6.439.889.855.889a.9.9 0 0 0 .33-.064c.501.89 1.375 2.106 2.454 3.37-.343.246-.71.504-1.09.768" style="fill:#8d1f24;fill-opacity:1;fill-rule:nonzero;stroke:none;stroke-width:.0352778" transform="translate(178.578 34.983)scale(.78568)"/><path d="m-86.785 129.02-6.33-.201-4.96-4.474a18 18 0 0 0 4.624 1.239q.596.078 1.179.14c-.304.124-.54.428-.522.897.024.6.439.892.854.892.441 0 .883-.328.858-.963-.014-.36-.168-.61-.38-.751.842.07 1.665.11 2.473.11.158 0 .314-.005.47-.005.843 1.316 1.472 2.448 1.734 3.115" style="fill:#d45566;fill-opacity:1;fill-rule:nonzero;stroke:none;stroke-width:.0352778" transform="translate(178.578 34.983)scale(.78568)"/><path d="m-85.718 130.385-1.075-.032-6.246-.197-.606-.018-.639-.579-10.694-9.645q.295-.023.59-.056c.876 1.005 2.975 3.087 6.313 4.487l4.96 4.474 6.33.2c-.262-.666-.89-1.799-1.733-3.114q.768-.018 1.522-.081c.906 1.481 1.523 2.727 1.647 3.383.02.102.068.36-.01.62a.9.9 0 0 1-.151.293z" style="fill:#8d1f24;fill-opacity:1;fill-rule:nonzero;stroke:none;stroke-width:.0352778" transform="translate(178.578 34.983)scale(.78568)"/><path d="m-135.481 112.506-.029-.48-.043-.733z" style="fill:#6e2c32;fill-opacity:1;fill-rule:nonzero;stroke:none;stroke-width:.0352778" transform="translate(178.578 34.983)scale(.78568)"/><path d="M-95.663 144.006c1.829-3.63 4.167-7.345 5.976-8.234 3.07-1.51 8.761-2.276 12.948-2.286a16.4 16.4 0 0 0-3.32 6.329c-.548-.762-1.407-1.136-2.268-1.136-1.428 0-2.857 1.033-2.862 3.034-3.459.356-7.764 1.03-10.474 2.293" style="fill:#e89fa8;fill-opacity:1;fill-rule:nonzero;stroke:none;stroke-width:.0352778" transform="translate(178.578 34.983)scale(.78568)"/><path d="M-98.031 145.886q.013-.036.03-.07a62 62 0 0 1 2.004-4.047c.277-.508.571-1.03.88-1.552 1.442-2.434 3.191-4.833 4.842-5.645q.258-.125.535-.247c.694-.3 1.478-.568 2.322-.804 3.254-.917 7.4-1.369 10.735-1.369q.413.001.808.007c.3.007.581.124.79.321a1 1 0 0 0-.303-.05.9.9 0 0 0-.646.273c-.244.257-.48.515-.705.783-4.187.01-9.878.776-12.948 2.286-1.81.889-4.147 4.603-5.976 8.234-1.119.522-1.965 1.143-2.368 1.88" style="fill:#5b1d22;fill-opacity:1;fill-rule:nonzero;stroke:none;stroke-width:.0352778" transform="translate(178.578 34.983)scale(.78568)"/><path d="M-75.972 154.54c-.296-3.034-1.91-9.942-3.217-12.33l-.001-.046c.457-3.094 1.687-5.796 3.663-8.043.967 2.296 2.15 5.574 2.964 8.269-.199.159-.333.42-.32.776.023.571.4.864.795.893.347 1.312.541 2.338.484 2.818-.178 1.489-1.807 3.884-3.382 6.202-.33.483-.662.974-.986 1.46" style="fill:#b79094;fill-opacity:1;fill-rule:nonzero;stroke:none;stroke-width:.0352778" transform="translate(178.578 34.983)scale(.78568)"/><path d="M-76.011 157.09c.138-.72.105-1.436.08-1.993a12 12 0 0 0-.04-.557c.323-.487.656-.978.985-1.46 1.575-2.319 3.204-4.714 3.382-6.203.057-.48-.137-1.506-.484-2.818h.06c.441 0 .883-.329.858-.964-.024-.6-.44-.892-.855-.892a.86.86 0 0 0-.538.187c-.815-2.695-1.997-5.973-2.964-8.27-1.976 2.248-3.206 4.95-3.663 8.044l.001.046a4 4 0 0 0-.286-.455l-.002-.102c-.03-.759-.248-1.373-.583-1.838a16.4 16.4 0 0 1 3.322-6.33q.338-.398.704-.782a.89.89 0 0 1 .807-.258.87.87 0 0 1 .644.497c1.366 3.105 4.567 11.89 4.304 14.094-.217 1.813-1.863 4.233-3.605 6.795l-.316.465a.83.83 0 0 0-.756-.469c-.44 0-.882.328-.857.963.02.522.338.811.695.879-.317.483-.62.96-.893 1.421" style="fill:#5b1d22;fill-opacity:1;fill-rule:nonzero;stroke:none;stroke-width:.0352778" transform="translate(178.578 34.983)scale(.78568)"/><path d="M-93.055 160.251q-.143-.001-.285-.007c.14-.275.217-.614.202-1.016-.048-1.2-.878-1.781-1.71-1.781-.313 0-.626.08-.897.246q.003-.128.01-.257c.123-2.618-.205-4.54-.553-6.576-.192-1.125-.39-2.282-.52-3.62.313-.12.562-.423.543-.902a1.1 1.1 0 0 0-.095-.413c1.715-1.436 6.716-2.389 11.394-2.886.456 1.224 1.542 1.824 2.63 1.824.909 0 1.819-.42 2.36-1.238.527 1.323 1.203 3.623 1.75 5.923a.7.7 0 0 0-.153-.014c-.44 0-.882.328-.857.963.023.6.439.892.854.892a.87.87 0 0 0 .528-.176c.32 1.527.546 2.95.591 3.944.05 1.09.045 2.046-.512 2.716-.724.875-2.194 1.094-3.637 1.242l-10.33 1.059c-.422.042-.872.077-1.313.077m6.675-8.213c-.44 0-.883.329-.858.964.024.603.44.892.855.892.441 0 .883-.328.858-.963-.024-.6-.439-.893-.855-.893" style="fill:#d99ba2;fill-opacity:1;fill-rule:nonzero;stroke:none;stroke-width:.0352778" transform="translate(178.578 34.983)scale(.78568)"/><path d="M-93.067 161.585c-1.263 0-2.48-.247-3.27-1.15a2.8 2.8 0 0 1-.499-.833c.246-.575.384-1.189.343-1.845-.029-.47-.143-.9-.316-1.309a84 84 0 0 1-.258-1.129c-.073-1.527-.3-2.854-.535-4.237-.238-1.39-.483-2.829-.61-4.603l-.01-.138.047-.134a2.3 2.3 0 0 1 .144-.321c.403-.737 1.25-1.358 2.368-1.88 2.71-1.263 7.015-1.937 10.474-2.293q0 .084.004.18c.017.43.094.81.22 1.146-4.679.497-9.68 1.45-11.395 2.886a.83.83 0 0 0-.76-.48c-.441 0-.883.328-.858.963.024.6.439.893.855.893a.9.9 0 0 0 .314-.06c.132 1.337.329 2.494.52 3.62.349 2.035.676 3.957.554 6.575l-.01.257c-.494.297-.85.861-.818 1.68.047 1.2.878 1.781 1.71 1.781.604 0 1.209-.307 1.513-.91q.142.007.285.007c.44 0 .89-.035 1.312-.078l10.33-1.058c1.444-.148 2.914-.367 3.638-1.242.557-.67.562-1.626.512-2.716-.045-.995-.271-2.417-.59-3.944.204-.159.343-.424.329-.787-.02-.526-.342-.815-.702-.878-.547-2.3-1.223-4.6-1.75-5.923.321-.484.513-1.108.501-1.87.093.123.189.279.286.455 1.307 2.388 2.92 9.296 3.217 12.33q.03.307.041.557c.025.557.058 1.273-.08 1.993-.11.568-.326 1.14-.737 1.637-1.045 1.26-2.885 1.545-4.529 1.714l-10.33 1.059c-.48.05-.973.085-1.46.085" style="fill:#5b1d22;fill-opacity:1;fill-rule:nonzero;stroke:none;stroke-width:.0352778" transform="translate(178.578 34.983)scale(.78568)"/><path d="m-63.97 104.636.06-1.33-.009.173z" style="fill:#a92c36;fill-opacity:1;fill-rule:nonzero;stroke:none;stroke-width:.0352778" transform="translate(178.578 34.983)scale(.78568)"/><path d="m-63.979 104.766.008-.13.052-1.157-.032.716-.02.44z" style="fill:#892b34;fill-opacity:1;fill-rule:nonzero;stroke:none;stroke-width:.0352778" transform="translate(178.578 34.983)scale(.78568)"/><path d="M-86.876 114.774q-.564.001-1.126-.109c-.97-.19-1.939-.564-2.881-1.065 2.945-.297 5.711-.812 8.05-1.284a43 43 0 0 0 2.112-.477 20 20 0 0 1-.619.868c-1.655 1.143-3.592 2.067-5.536 2.067" style="fill:#c12c36;fill-opacity:1;fill-rule:nonzero;stroke:none;stroke-width:.0352778" transform="translate(178.578 34.983)scale(.78568)"/><path d="m-98.77 153.735-7.406-8.438a10 10 0 0 0-.823-.865l-.03-.077-3.775-9.024c3.708 2.766 9.35 8.315 9.832 8.851.367.519 1.138 4.322 1.7 7.098.167.818.335 1.65.503 2.455m-5.284-10.135c-.441 0-.883.328-.858.963.024.6.44.893.855.893.441 0 .883-.329.858-.964-.024-.6-.44-.892-.855-.892" style="fill:#f1c2c8;fill-opacity:1;fill-rule:nonzero;stroke:none;stroke-width:.0352778" transform="translate(178.578 34.983)scale(.78568)"/><path d="M-96.81 156.448c-.353-.832-.956-1.57-1.6-2.304l-.36-.409c-.167-.804-.335-1.637-.501-2.455-.563-2.776-1.334-6.58-1.701-7.098-.481-.536-6.124-6.085-9.832-8.851l-.697-1.665a.97.97 0 0 0-.64-.565q-.015-.001-.029-.007.079-.012.157-.014c.166 0 .332.046.481.138 1.727 1.048 4.363 3.302 6.686 5.418a87 87 0 0 1 1.268 1.168c.662.617 1.273 1.2 1.798 1.704.976.942 1.654 1.623 1.812 1.8.52.578.985 2.684 2.004 7.707a244 244 0 0 0 .897 4.304q.13.589.258 1.13" style="fill:#441d1f;fill-opacity:1;fill-rule:nonzero;stroke:none;stroke-width:.0352778" transform="translate(178.578 34.983)scale(.78568)"/><path d="M-108.341 169.85c-.25 0-.532-.039-.865-.116-.7-.226-4.602-3.235-7.886-6.177.3-.127.536-.427.518-.896-.024-.6-.44-.893-.855-.893a.84.84 0 0 0-.841.71 44 44 0 0 1-1.776-1.754c.011-.01.022-.025.033-.036l12.675-14.693.16.18 7.766 8.851c.832.946 1.526 1.814 1.588 2.812.078 1.249-.868 2.392-1.842 3.457l-2.232 2.434c-.063-1.488-1.095-2.208-2.128-2.208-1.098 0-2.198.815-2.136 2.399.058 1.46 1.047 2.184 2.058 2.215l-2.56 2.798c-.597.649-1.037.917-1.677.917" style="fill:#b7aeae;fill-opacity:1;fill-rule:nonzero;stroke:none;stroke-width:.0352778" transform="translate(178.578 34.983)scale(.78568)"/><path d="M-108.33 171.18c-.359 0-.75-.05-1.185-.148-.344-.078-1.096-.543-2.073-1.249a1.6 1.6 0 0 0-.603-.444c-2.85-2.135-7.077-5.786-9.13-8.03l-.082-.088-.045-.113a3.1 3.1 0 0 1-.203-.85l.073.176a.92.92 0 0 0 .715.565q.073.015.147.014a.92.92 0 0 0 .67-.29c.518.548 1.123 1.14 1.776 1.754a1.2 1.2 0 0 0-.017.254c.024.6.44.893.855.893a.9.9 0 0 0 .34-.067c3.284 2.942 7.185 5.951 7.886 6.177.333.077.614.116.865.116.64 0 1.08-.268 1.677-.917l2.56-2.798q.036.005.07.004c1.099 0 2.198-.818 2.136-2.398v-.011l2.232-2.434c.974-1.066 1.92-2.209 1.842-3.457-.062-.999-.756-1.867-1.588-2.812l-7.766-8.851-.16-.18.063-.074a1.52 1.52 0 0 0 .276-1.49c.316.287.588.597.823.865l7.407 8.439.359.409c.644.734 1.247 1.471 1.6 2.304.175.409.288.84.317 1.308.04.657-.097 1.27-.343 1.845-.417.97-1.145 1.828-1.847 2.593l-6.998 7.638c-.856.935-1.627 1.348-2.648 1.348" style="fill:#441d1f;fill-opacity:1;fill-rule:nonzero;stroke:none;stroke-width:.0352778" transform="translate(178.578 34.983)scale(.78568)"/><path d="M-120.596 159.32c-.871-2.128-1.736-4.477-2.413-6.685q.082-.41.064-.893c-.038-.98-.39-1.714-.904-2.208-.477-2.096-.644-3.839-.289-4.795 1.037-2.79 5.8-6.089 9.278-8.498.836-.579 1.634-1.129 2.311-1.626l4.291 10.255a.18.18 0 0 1-.026.18l-4.489 5.203c-.261-1.076-1.13-1.601-2-1.601-1.07 0-2.143.797-2.083 2.342.049 1.235.781 1.933 1.62 2.113zm3.016-20.06c-.44 0-.882.329-.857.964.023.6.44.892.855.892.44 0 .882-.328.857-.963-.024-.6-.439-.892-.855-.892" style="fill:#dfbcbf;fill-opacity:1;fill-rule:nonzero;stroke:none;stroke-width:.0352778" transform="translate(178.578 34.983)scale(.78568)"/><path d="M-120.716 161.013a.7.7 0 0 1-.147-.014.92.92 0 0 1-.715-.565c-.023-.056-.048-.112-.073-.176a87 87 0 0 1-2.245-6.018c.429-.381.753-.918.887-1.605.677 2.208 1.542 4.557 2.413 6.685l5.36-6.213q.225.052.457.05c1.071 0 2.144-.794 2.083-2.34a3 3 0 0 0-.077-.564l4.49-5.203a.18.18 0 0 0 .025-.18l-4.29-10.255c-.678.497-1.476 1.047-2.312 1.626-3.478 2.41-8.24 5.708-9.278 8.498-.355.956-.188 2.7.29 4.795a2.8 2.8 0 0 0-1.503-.73c-.342-1.846-.427-3.479-.037-4.53 1.184-3.186 5.944-6.48 9.768-9.127l.668-.462a79 79 0 0 0 1.984-1.421.96.96 0 0 1 1.467.402l.697 1.665 3.776 9.024.029.077a1.52 1.52 0 0 1-.276 1.49l-.063.073-12.675 14.693-.033.036a.92.92 0 0 1-.67.289m56.616-53.499.041-.924c0-.116.008-.233.014-.35l.02-.49c.005-.063.006-.091.007-.123l.008-.152.018-.409-.018.41-.008.15c-.001.033-.002.06-.007.124l-.02.49q-.01.176-.014.35zm.149-3.32.032-.715.008-.173v-.004z" style="fill:#441d1f;fill-opacity:1;fill-rule:nonzero;stroke:none;stroke-width:.0352778" transform="translate(178.578 34.983)scale(.78568)"/><path d="m-66.783 106.054.05-.039q-.024.02-.05.039m.06-.046c.017-.01.034-.025.05-.035zm-66.496-.014c-.016-.01-.032-.025-.048-.035zm66.55-.025c1.14-.85 2.06-1.743 2.759-2.67v.008q-1.049 1.387-2.759 2.663m-66.609-.018q-1.679-1.243-2.744-2.554 1.067 1.315 2.744 2.554" style="fill:#441d1f;fill-opacity:1;fill-rule:nonzero;stroke:none;stroke-width:.0352778" transform="translate(178.578 34.983)scale(.78568)"/><path d="M-87.895 118.027c-2.253-.028-5.591-.257-8.84-1.189a24 24 0 0 0 3.55-3.048l.318-.021c1.458.974 3.025 1.715 4.64 2.032q.682.136 1.358.134c1.077 0 2.137-.24 3.15-.624a16 16 0 0 1-4.176 2.716" style="fill:#f1c2c8;fill-opacity:1;fill-rule:nonzero;stroke:none;stroke-width:.0352778" transform="translate(178.578 34.983)scale(.78568)"/><path d="M-86.869 115.935a7 7 0 0 1-1.358-.134c-1.615-.317-3.182-1.058-4.64-2.032q.755-.054 1.488-.123l.496-.046c.942.5 1.91.875 2.881 1.065q.561.11 1.126.11c1.944 0 3.881-.925 5.536-2.068a18 18 0 0 1-2.379 2.604c-1.013.384-2.073.624-3.15.624" style="fill:#441d1f;fill-opacity:1;fill-rule:nonzero;stroke:none;stroke-width:.0352778" transform="translate(178.578 34.983)scale(.78568)"/><path d="M-94.877 119.452a21 21 0 0 1-5.318-.702c.775-.32 1.54-.709 2.293-1.157 2.48.815 5.042 1.203 7.22 1.38-1.345.32-2.753.48-4.195.48" style="fill:#dcaa91;fill-opacity:1;fill-rule:nonzero;stroke:none;stroke-width:.0352778" transform="translate(178.578 34.983)scale(.78568)"/><path d="M-90.683 118.973c-2.177-.177-4.74-.565-7.22-1.38q.59-.351 1.168-.755c3.249.932 6.587 1.16 8.84 1.19l-.32.14c-.791.332-1.617.6-2.468.805" style="fill:#441d1f;fill-opacity:1;fill-rule:nonzero;stroke:none;stroke-width:.0352778" transform="translate(178.578 34.983)scale(.78568)"/><path d="M-89.062 124.74c-1.363 0-2.77-.112-4.24-.306a16.6 16.6 0 0 1-7.226-2.752c.4-.053.766-.374.743-.956-.015-.392-.2-.653-.44-.787 1.791.448 3.592.674 5.349.674 2.508 0 4.928-.459 7.11-1.376 3.568-1.503 6.483-4.13 8.703-7.839a72 72 0 0 0 4.966-1.64.65.65 0 0 0 .343.088c.337 0 .54-.204.61-.455 1.69-.667 3.157-1.358 4.427-2.088a31 31 0 0 1-1.306 3.326.83.83 0 0 0-.664-.32c-.441 0-.883.327-.858.962.022.558.382.85.766.89-1.154 2.187-2.443 4.003-3.61 5.326-4.911 5.57-9.469 7.253-14.673 7.253m-2.549-3.524c-.85 0-.852 1.323 0 1.323.85 0 .852-1.323 0-1.323m5.67-.589c-.851 0-.852 1.32 0 1.32.85 0 .85-1.32 0-1.32m6.162-1.591c-.85 0-.852 1.32 0 1.32.85 0 .852-1.32 0-1.32m2.196-4.875c-.85 0-.851 1.323 0 1.323.85 0 .852-1.323 0-1.323m3.973-.762c-.85 0-.852 1.323 0 1.323.85 0 .852-1.323 0-1.323m-27.865 7.591a16 16 0 0 1-1.53-1.358q.472-.1.94-.233.717.243 1.436.438h-.01c-.442 0-.884.328-.859.963q.005.1.023.19" style="fill:#dca739;fill-opacity:1;fill-rule:nonzero;stroke:none;stroke-width:.0352778" transform="translate(178.578 34.983)scale(.78568)"/><path d="M-88.989 125.908q-1.211-.002-2.472-.11a.85.85 0 0 0-.476-.14.9.9 0 0 0-.335.067 49 49 0 0 1-1.18-.141 18 18 0 0 1-4.623-1.239c-3.338-1.4-5.437-3.482-6.314-4.487q.696-.08 1.384-.226c.388.392.898.864 1.53 1.358.096.47.464.699.832.699q.057.002.115-.007a16.6 16.6 0 0 0 7.227 2.752c1.469.194 2.876.306 4.239.306 5.204 0 9.762-1.682 14.673-7.253 1.167-1.323 2.456-3.14 3.61-5.327q.045.005.089.004c.44 0 .882-.328.857-.963a1 1 0 0 0-.19-.571 31 31 0 0 0 1.306-3.327q.794-.454 1.49-.935c-1.446 5.161-4.077 9.374-6.293 11.885-4.544 5.158-8.798 7.158-13.476 7.571q-.754.064-1.522.081c-.157 0-.313.004-.47.004m-5.888-5.295c-1.757 0-3.558-.226-5.35-.674a.85.85 0 0 0-.403-.102q-.72-.194-1.435-.438a16 16 0 0 0 1.87-.649c1.782.47 3.573.702 5.317.702 1.442 0 2.85-.159 4.194-.48a16 16 0 0 0 2.468-.804q.16-.068.32-.141a16 16 0 0 0 4.176-2.716 18 18 0 0 0 2.38-2.604 20 20 0 0 0 .618-.868 51 51 0 0 0 1.658-.44c-2.22 3.707-5.135 6.335-8.703 7.838-2.182.917-4.602 1.376-7.11 1.376" style="fill:#441d1f;fill-opacity:1;fill-rule:nonzero;stroke:none;stroke-width:.0352778" transform="translate(178.578 34.983)scale(.78568)"/><path d="M-109.216 116.4c-2.558 0-5.32-1.061-7.896-3.047a16 16 0 0 1-.734-1.1q.312.067.617.126c.273.057.548.106.825.155q.59.302 1.195.558c2.44 1.21 5.05 2.067 6.627 2.067.05 0 .1-.004.149-.004 1.405-.053 2.794-.667 3.952-1.386.514.045 1.032.091 1.554.127-1.525 1.217-3.11 2.042-4.564 2.335a8.7 8.7 0 0 1-1.725.17" style="fill:#dcaa91;fill-opacity:1;fill-rule:nonzero;stroke:none;stroke-width:.0352778" transform="translate(178.578 34.983)scale(.78568)"/><path d="M-117.112 113.353a20 20 0 0 1-1.076-.893l-.405-.363q.376.08.747.155c.208.346.46.723.734 1.1m1.903-.26q-.606-.256-1.195-.558l.19.032q.496.27 1.005.526" style="fill:#441d1f;fill-opacity:1;fill-rule:nonzero;stroke:none;stroke-width:.0352778" transform="translate(178.578 34.983)scale(.78568)"/><path d="M-108.588 113.998c-.898 0-2.343-.367-3.933-.98q.977.089 1.985.172.94.078 1.898.166c.674.06 1.353.13 2.039.201-.612.247-1.25.417-1.877.438q-.055.005-.112.004" style="fill:#f1c2c8;fill-opacity:1;fill-rule:nonzero;stroke:none;stroke-width:.0352778" transform="translate(178.578 34.983)scale(.78568)"/><path d="M-108.582 115.159c-1.577 0-4.187-.857-6.627-2.067q-.51-.256-1.005-.526a52 52 0 0 0 3.693.452c1.59.613 3.035.98 3.933.98q.057.001.112-.004c.628-.02 1.265-.19 1.877-.437h.004q1.046.111 2.115.212c-1.159.72-2.547 1.333-3.953 1.386z" style="fill:#441d1f;fill-opacity:1;fill-rule:nonzero;stroke:none;stroke-width:.0352778" transform="translate(178.578 34.983)scale(.78568)"/><path d="M-106.093 118.796q-1.091-.001-2.188-.176c-.715-.117-2.071-.653-3.549-1.376a11.3 11.3 0 0 0 2.621.317q.994 0 1.948-.19c1.93-.392 4.066-1.602 6.03-3.387q.6.021 1.207.021c1.8 0 3.483-.038 5.081-.112-3.448 3.217-7.252 4.903-11.15 4.903m6.325-4.678c-.85 0-.851 1.32 0 1.32.85 0 .852-1.32 0-1.32" style="fill:#dca739;fill-opacity:1;fill-rule:nonzero;stroke:none;stroke-width:.0352778" transform="translate(178.578 34.983)scale(.78568)"/><path d="M-106.076 119.953q-1.19 0-2.39-.19a6 6 0 0 1-.648-.159 17 17 0 0 1-1.365-.494c-3.147-1.277-8.236-4.089-8.662-6.096l-.229-1.083q.39.085.777.166l.405.363q.531.473 1.076.893c2.576 1.986 5.338 3.048 7.896 3.048q.882 0 1.725-.17c1.453-.292 3.04-1.118 4.564-2.335q.842.06 1.695.088c-1.963 1.785-4.1 2.995-6.03 3.387a10 10 0 0 1-1.947.19c-.86 0-1.737-.105-2.621-.317 1.478.723 2.834 1.26 3.55 1.376q1.096.175 2.187.176c3.898 0 7.702-1.686 11.15-4.903a67 67 0 0 0 1.758-.103 24 24 0 0 1-3.55 3.048q-.579.404-1.167.755-1.13.674-2.293 1.157-.925.389-1.87.65a15 15 0 0 1-2.913.514q-.547.042-1.098.04" style="fill:#441d1f;fill-opacity:1;fill-rule:nonzero;stroke:none;stroke-width:.0352778" transform="translate(178.578 34.983)scale(.78568)"/><path d="M-99.768 115.438c-.851 0-.85-1.32 0-1.32.852 0 .85 1.32 0 1.32m22.185.046c-.851 0-.85-1.323 0-1.323.852 0 .85 1.323 0 1.323m-8.359 6.462c-.851 0-.85-1.319 0-1.319.852 0 .85 1.32 0 1.32m-5.668.593c-.853 0-.851-1.324 0-1.324.85 0 .85 1.323 0 1.323m18-7.817c-.852 0-.85-1.323 0-1.323.852 0 .85 1.323 0 1.323m-.144-4.876a.65.65 0 0 1-.343-.088c.325-.124.643-.243.954-.367a.6.6 0 0 1-.61.455m-6.027 10.509c-.85 0-.849-1.319 0-1.319.853 0 .851 1.32 0 1.32" style="fill:#f1c2c8;fill-opacity:1;fill-rule:nonzero;stroke:none;stroke-width:.0352778" transform="translate(178.578 34.983)scale(.78568)"/><path d="M-135.254 116.344s.007.089.014.247c.591 10.03 1.192 20.595 1.58 29.835.656 15.8.191 26.5.033 29.404l-.004.046c-.01.08-.02.169-.016.225l.005.081-.014.085c-.005.035-.002.074-.002.113 0 2.12 1.276 4.205 3.794 6.195 1.656 1.312 3.922 2.956 6.772 4.064 2.401.938 5.23 1.605 7.679 2.134 1.924.42 3.973.603 6.141.797q.879.078 1.77.166.925.095 1.862.201c1.978.223 4.023.455 6.094.455 2.953 0 5.564-.116 7.983-.356 2.932-.293 5.743-.86 7.865-1.323 3.073-.67 5.805-1.672 7.593-2.367 2.95-1.154 5.213-2.367 6.918-3.715 2.439-1.922 3.675-4.025 3.675-6.25l.917-57.864.537-11.927c0-.116.008-.233.014-.35l.02-.49c.005-.063.005-.091.007-.123l.008-.152.018-.409.004-.106.01-.194q.002-.068.007-.13l.06-1.337q-1.082 1.441-2.872 2.755c-1.924 1.407-4.459 2.674-7.75 3.863-3.154 1.14-5.714 1.88-8.3 2.399-2.47.497-5.416 1.044-8.547 1.33-2.626.243-5.454.36-8.644.36-2.259 0-4.451-.226-6.572-.449-.687-.07-1.367-.14-2.042-.2q-.957-.089-1.898-.166c-2.348-.198-4.567-.385-6.693-.812-2.67-.536-5.757-1.217-8.401-2.173-3.216-1.16-5.745-2.861-7.59-4.212-1.143-.84-2.08-1.708-2.802-2.597l.298 5.031zm35.708 75.495c-2.154 0-4.24-.233-6.257-.459-.62-.07-1.234-.14-1.843-.2q-.884-.09-1.756-.163c-2.215-.201-4.308-.388-6.32-.826-2.504-.543-5.401-1.227-7.897-2.201-3.03-1.178-5.41-2.903-7.144-4.276-2.884-2.282-4.346-4.748-4.346-7.334 0-.078 0-.173.012-.275a3 3 0 0 1 .024-.374c.158-2.917.616-13.547-.035-29.249-.387-9.225-.988-19.78-1.58-29.817a4 4 0 0 0-.012-.211c-.155-2.643-.313-5.285-.47-7.938-.165-2.766-.33-5.542-.493-8.315l1.425-.222c.427 1.644 1.731 3.274 3.876 4.847 1.766 1.291 4.183 2.921 7.224 4.018 2.556.925 5.577 1.588 8.195 2.113 2.045.413 4.223.597 6.529.79.63.054 1.267.106 1.909.166.68.06 1.366.131 2.058.205 2.084.215 4.24.438 6.423.438 3.146 0 5.93-.113 8.512-.353 3.062-.279 5.961-.819 8.393-1.31 2.514-.504 5.01-1.227 8.094-2.342 3.159-1.139 5.574-2.338 7.386-3.668 2.337-1.711 3.639-3.57 3.87-5.518l.095-.797 1.394.332-.008.592-.24 5.274-.003.064-.006.106q0 .051-.003.102l-.024.533-.006.116-.009.148-.018.473a5 5 0 0 0-.012.3l-.001.035-.047.942-.49 10.978-.917 57.831c0 2.678-1.422 5.161-4.226 7.373-1.819 1.44-4.203 2.724-7.29 3.93-1.834.713-4.638 1.74-7.81 2.43-2.16.474-5.024 1.052-8.03 1.352-2.469.243-5.126.36-8.126.36" style="fill:#211d1d;fill-opacity:1;fill-rule:nonzero;stroke:none;stroke-width:.0352778" transform="translate(178.578 34.983)scale(.78568)"/><path d="M-82.167 175.23c8.204-1.26 14.622-7.99 15.672-16.489 1.899-15.374 2.646-41.155 3.115-51.195l-.492 10.986-.916 57.848c0 2.477-1.368 4.784-3.95 6.82-1.84 1.453-4.256 2.709-7.105 3.82-2.31.9-4.873 1.785-7.702 2.402-2.49.54-5.152 1.055-7.947 1.337-2.583.254-5.286.357-8.054.357s-5.445-.4-8.027-.66c-2.795-.272-5.498-.43-7.994-.974-2.822-.61-5.485-1.266-7.788-2.166-2.856-1.111-5.12-2.716-6.96-4.17-2.582-2.046-4.07-4.29-4.07-6.766 0-.081 0-.162.015-.24a2 2 0 0 1 .02-.35c.139-2.557.63-13.341-.034-29.336-.372-8.855-.95-19.131-1.58-29.831.203 2.692 2.362 27.347 4.12 42.333.952 8.125 6.784 14.736 14.534 16.419 1.761.384 3.594.72 5.428 1.005 5.165.804 10.33 1.196 13.896 1.016 2.364-.116 5.206-.48 8.18-1.016 2.886-.511 5.366-.797 7.639-1.15" style="fill:#e0f0f0;fill-opacity:1;fill-rule:nonzero;stroke:none;stroke-width:.0352778" transform="translate(178.578 34.983)scale(.78568)"/><path d="M-133.514 150.423c.432 13.603.031 22.757-.113 25.407l-.004.042c-.01.092-.02.173-.016.23l.005.08-.014.085c-.005.035-.002.074-.002.113 0 2.12 1.276 4.205 3.794 6.198 1.656 1.31 3.923 2.953 6.772 4.06 2.402.94 5.23 1.606 7.679 2.135 1.924.42 3.973.603 6.142.797q.877.078 1.77.166.924.095 1.861.201c1.978.223 4.023.455 6.094.455 2.953 0 5.564-.116 7.983-.356 2.933-.293 5.744-.86 7.865-1.323 3.073-.67 5.805-1.672 7.593-2.367 2.95-1.15 5.213-2.367 6.918-3.715 2.439-1.922 3.675-4.025 3.675-6.251l.372-23.499c-.196 2.11-.407 4.107-.635 5.948-1.084 8.774-7.779 15.812-16.281 17.117-.799.124-1.622.24-2.48.36-1.611.226-3.279.459-5.142.79-3.094.554-5.955.91-8.271 1.023-3.586.18-8.705-.194-14.044-1.023a92 92 0 0 1-5.47-1.012c-8.042-1.747-14.11-8.598-15.1-17.043-.308-2.628-.63-5.56-.95-8.618m33.967 41.416c-2.153 0-4.239-.233-6.256-.459-.62-.07-1.234-.141-1.843-.2q-.884-.09-1.756-.163c-2.215-.201-4.308-.388-6.32-.826-2.503-.543-5.4-1.227-7.897-2.201-3.029-1.178-5.41-2.903-7.144-4.276-2.884-2.282-4.346-4.748-4.346-7.334 0-.078 0-.173.012-.275a3 3 0 0 1 .024-.374c.158-2.918.616-13.547-.035-29.249-.39-9.26-1.017-20.267-1.58-29.817l1.446-.098c.177 2.338 2.355 27.273 4.117 42.305.919 7.831 6.532 14.178 13.968 15.797a95 95 0 0 0 5.386.995c5.168.804 10.307 1.182 13.749 1.009 2.256-.11 5.053-.459 8.088-1.006a136 136 0 0 1 5.197-.797c.85-.12 1.668-.233 2.46-.356 7.864-1.207 14.058-7.73 15.062-15.861 1.328-10.75 2.102-26.878 2.596-38.71l.022-1.426.417-9.32c.026-.6.051-1.164.076-1.683l1.447.067-.074 1.651c-.066 1.545-.139 3.348-.22 5.348-.066 1.662-.14 3.479-.22 5.416l-.893 56.398c0 2.678-1.422 5.161-4.226 7.373-1.82 1.44-4.203 2.724-7.29 3.93-1.834.713-4.638 1.74-7.81 2.43-2.16.473-5.023 1.048-8.03 1.352-2.47.243-5.127.36-8.127.36m2.248-125.049c-2.4 0-4.116.14-4.144.14l-.06.004c-2.718 0-4.126.138-6.459.37l-.702.068c-2.751.271-5.87.575-8.622 1.167a55 55 0 0 0-8.321 2.498c-3.278 1.263-5.79 3.073-7.392 4.329-2.817 2.201-4.187 4.381-4.187 6.67 0 2.297 1.398 4.555 4.155 6.71 1.806 1.412 4.278 3.186 7.387 4.386 2.615 1.005 5.702 1.728 8.377 2.303 2.09.448 4.317.646 6.675.857.644.06 1.295.117 1.95.18.695.07 1.397.148 2.105.226 2.13.236 4.333.48 6.565.48 3.215 0 6.062-.127 8.7-.385 3.131-.307 6.094-.892 8.58-1.428 2.57-.55 5.12-1.337 8.273-2.551 3.229-1.245 5.7-2.554 7.553-4.004 2.67-2.088 4.025-4.367 4.025-6.773 0-1.531-1.49-4.227-2.076-4.805-2.582-2.558-7.859-5.736-10.979-6.992-3.872-1.56-12.104-2.805-16.383-3.225a53 53 0 0 0-5.02-.225m-2.673 31.834c-2.312 0-4.555-.247-6.724-.487-.702-.077-1.398-.155-2.087-.222-.652-.063-1.298-.12-1.938-.18-2.404-.211-4.673-.416-6.85-.882-2.73-.589-5.886-1.326-8.594-2.37-3.288-1.267-5.873-3.122-7.758-4.597-3.127-2.441-4.712-5.084-4.712-7.85 0-2.762 1.551-5.32 4.743-7.813 1.676-1.31 4.305-3.207 7.764-4.54a57 57 0 0 1 8.538-2.562c2.833-.607 5.995-.917 8.785-1.192l.701-.067c2.369-.237 3.802-.378 6.57-.378.443-.035 4.774-.363 9.396.089 4.359.43 12.77 1.707 16.783 3.323 2.88 1.157 8.463 4.342 11.458 7.306.744.737 2.505 3.782 2.505 5.835 0 2.875-1.542 5.538-4.582 7.916-1.967 1.538-4.56 2.914-7.924 4.212-3.225 1.242-5.844 2.05-8.49 2.618-2.526.543-5.54 1.14-8.742 1.453-2.686.261-5.579.388-8.842.388" style="fill:#211d1d;fill-opacity:1;fill-rule:nonzero;stroke:none;stroke-width:.0352778" transform="translate(178.578 34.983)scale(.78568)"/><path d="M-100.528 121.682q-.512-.346-.947-.692a1 1 0 0 1-.022-.19c-.025-.635.416-.963.857-.963h.011q.202.053.403.102c.242.134.426.395.44.787.024.582-.343.903-.742.956" style="fill:#ecce88;fill-opacity:1;fill-rule:nonzero;stroke:none;stroke-width:.0352778" transform="translate(178.578 34.983)scale(.78568)"/><path d="M-100.643 121.689a.834.834 0 0 1-.832-.699q.435.347.947.692-.058.009-.115.007m.417-1.75q-.201-.049-.403-.102c.14 0 .28.035.403.102" style="fill:#957a7d;fill-opacity:1;fill-rule:nonzero;stroke:none;stroke-width:.0352778" transform="translate(178.578 34.983)scale(.78568)"/><path d="M-78.382 151.39c-.415 0-.83-.294-.854-.893-.025-.635.416-.963.857-.963q.078 0 .153.014c.134.557.259 1.118.372 1.665a.87.87 0 0 1-.528.176" style="fill:#ebc7cb;fill-opacity:1;fill-rule:nonzero;stroke:none;stroke-width:.0352778" transform="translate(178.578 34.983)scale(.78568)"/><path d="M-77.854 151.213a57 57 0 0 0-.372-1.665c.36.063.681.353.702.878.014.364-.125.628-.33.787" style="fill:#a1777d;fill-opacity:1;fill-rule:nonzero;stroke:none;stroke-width:.0352778" transform="translate(178.578 34.983)scale(.78568)"/><path d="M-95.437 172.447c-1.21 0-2.419-.85-2.487-2.597-.073-1.848 1.212-2.8 2.495-2.8 1.21 0 2.419.846 2.487 2.592.073 1.849-1.212 2.805-2.495 2.805" style="fill:#da7d89;fill-opacity:1;fill-rule:nonzero;stroke:none;stroke-width:.0352778" transform="translate(178.578 34.983)scale(.78568)"/><path d="M-104.104 166.135c-1.011-.031-2-.755-2.058-2.215-.062-1.584 1.038-2.399 2.136-2.399 1.033 0 2.065.72 2.128 2.208z" style="fill:#d9d3d2;fill-opacity:1;fill-rule:nonzero;stroke:none;stroke-width:.0352778" transform="translate(178.578 34.983)scale(.78568)"/><path d="M-104.033 166.139q-.036.001-.07-.004l2.205-2.406v.01c.062 1.581-1.037 2.4-2.135 2.4" style="fill:#957a7d;fill-opacity:1;fill-rule:nonzero;stroke:none;stroke-width:.0352778" transform="translate(178.578 34.983)scale(.78568)"/><path d="M-99.294 130.568c-.416 0-.832-.289-.855-.892-.025-.635.416-.963.857-.963.416 0 .832.293.855.892.025.635-.416.963-.857.963" style="fill:#e59da5;fill-opacity:1;fill-rule:nonzero;stroke:none;stroke-width:.0352778" transform="translate(178.578 34.983)scale(.78568)"/><path d="M-117.092 163.557a70 70 0 0 1-1.178-1.08.84.84 0 0 1 .841-.709c.416 0 .83.293.855.893.018.469-.217.769-.518.896" style="fill:#d9d3d2;fill-opacity:1;fill-rule:nonzero;stroke:none;stroke-width:.0352778" transform="translate(178.578 34.983)scale(.78568)"/><path d="M-117.432 163.624c-.416 0-.83-.293-.855-.893a1 1 0 0 1 .017-.254q.57.534 1.178 1.08a.9.9 0 0 1-.34.067" style="fill:#957a7d;fill-opacity:1;fill-rule:nonzero;stroke:none;stroke-width:.0352778" transform="translate(178.578 34.983)scale(.78568)"/><path d="M-96.2 137.832c-.83 0-1.661-.582-1.709-1.782-.05-1.27.833-1.926 1.716-1.926.831 0 1.662.582 1.709 1.782.05 1.273-.833 1.926-1.715 1.926" style="fill:#d99ba2;fill-opacity:1;fill-rule:nonzero;stroke:none;stroke-width:.0352778" transform="translate(178.578 34.983)scale(.78568)"/><path d="M-123.622 167.345c-.503 0-1.005-.349-1.034-1.076-.03-.769.504-1.164 1.037-1.164.503 0 1.005.353 1.033 1.08.03.765-.503 1.16-1.036 1.16m5.139-45.409c-.936 0-1.872-.656-1.924-2.007-.057-1.433.938-2.17 1.931-2.17.936 0 1.872.656 1.925 2.007.056 1.433-.938 2.17-1.932 2.17" style="fill:#da7d89;fill-opacity:1;fill-rule:nonzero;stroke:none;stroke-width:.0352778" transform="translate(178.578 34.983)scale(.78568)"/><path d="M-85.189 141.713c.005-2 1.434-3.034 2.862-3.034.86 0 1.72.374 2.267 1.136a18 18 0 0 0-.348 1.541 84 84 0 0 0-4.78.357" style="fill:#f3cad0;fill-opacity:1;fill-rule:nonzero;stroke:none;stroke-width:.0352778" transform="translate(178.578 34.983)scale(.78568)"/><path d="M-79.475 141.755a1.3 1.3 0 0 0-.276-.286l-.186-.134-.228.01q-.111.007-.243.011.142-.786.348-1.541c.335.465.553 1.08.583 1.838z" style="fill:#a1777d;fill-opacity:1;fill-rule:nonzero;stroke:none;stroke-width:.0352778" transform="translate(178.578 34.983)scale(.78568)"/><path d="M-82.336 144.863c-1.088 0-2.174-.6-2.63-1.824a78 78 0 0 1 4.545-.35c.128.195.28.516.446.936-.542.818-1.452 1.238-2.361 1.238" style="fill:#ebc7cb;fill-opacity:1;fill-rule:nonzero;stroke:none;stroke-width:.0352778" transform="translate(178.578 34.983)scale(.78568)"/><path d="M-79.975 143.625c-.167-.42-.318-.741-.446-.935-1.38.063-2.944.18-4.545.349a3.7 3.7 0 0 1-.22-1.147l-.003-.18a84 84 0 0 1 4.78-.356l.244-.01.228-.01.186.133q.133.096.276.286c.012.762-.18 1.386-.5 1.87" style="fill:#a1777d;fill-opacity:1;fill-rule:nonzero;stroke:none;stroke-width:.0352778" transform="translate(178.578 34.983)scale(.78568)"/><path d="M-125.803 154.952c-1.386 0-2.77-.97-2.85-2.97-.083-2.117 1.39-3.21 2.86-3.21q.222 0 .442.031c.32 1.726.865 3.638 1.455 5.437a2.87 2.87 0 0 1-1.907.712" style="fill:#da7d89;fill-opacity:1;fill-rule:nonzero;stroke:none;stroke-width:.0352778" transform="translate(178.578 34.983)scale(.78568)"/><path d="M-123.01 152.635a43 43 0 0 1-.839-3.101c.513.494.866 1.227.904 2.208q.018.483-.064.893" style="fill:#efdadd;fill-opacity:1;fill-rule:nonzero;stroke:none;stroke-width:.0352778" transform="translate(178.578 34.983)scale(.78568)"/><path d="M-123.896 154.24c-.59-1.8-1.135-3.712-1.455-5.437a2.8 2.8 0 0 1 1.502.73c.221.974.508 2.022.84 3.102-.134.687-.458 1.224-.887 1.605" style="fill:#957a7d;fill-opacity:1;fill-rule:nonzero;stroke:none;stroke-width:.0352778" transform="translate(178.578 34.983)scale(.78568)"/><path d="M-115.237 153.107c-.838-.18-1.57-.878-1.619-2.113-.06-1.545 1.012-2.342 2.084-2.342.87 0 1.738.525 2 1.601z" style="fill:#efdadd;fill-opacity:1;fill-rule:nonzero;stroke:none;stroke-width:.0352778" transform="translate(178.578 34.983)scale(.78568)"/><path d="M-114.78 153.157c-.153 0-.307-.014-.457-.05l2.464-2.854q.066.258.077.565c.06 1.545-1.012 2.339-2.083 2.339" style="fill:#957a7d;fill-opacity:1;fill-rule:nonzero;stroke:none;stroke-width:.0352778" transform="translate(178.578 34.983)scale(.78568)"/><path d="M-80.316 129.937c-1.002 0-2.002-.702-2.06-2.149-.06-1.53 1.004-2.32 2.067-2.32 1.001 0 2.002.701 2.059 2.148.06 1.53-1.004 2.32-2.066 2.32" style="fill:#da7d89;fill-opacity:1;fill-rule:nonzero;stroke:none;stroke-width:.0352778" transform="translate(178.578 34.983)scale(.78568)"/><path d="M-106.565 126.684c-.831 0-1.66-.582-1.708-1.781-.05-1.267.833-1.923 1.714-1.923.831 0 1.661.582 1.708 1.782.05 1.27-.833 1.922-1.714 1.922" style="fill:#e59da5;fill-opacity:1;fill-rule:nonzero;stroke:none;stroke-width:.0352778" transform="translate(178.578 34.983)scale(.78568)"/><path d="M-74.959 155.683q-.08-.002-.16-.015c.298-.455.608-.913.919-1.372.057.117.093.258.099.423.025.635-.417.964-.858.964" style="fill:#da7d89;fill-opacity:1;fill-rule:nonzero;stroke:none;stroke-width:.0352778" transform="translate(178.578 34.983)scale(.78568)"/><path d="M-75.118 155.668c-.357-.067-.675-.356-.695-.878-.025-.635.416-.963.857-.963.302 0 .604.155.756.47-.311.458-.62.916-.918 1.371" style="fill:#a1777d;fill-opacity:1;fill-rule:nonzero;stroke:none;stroke-width:.0352778" transform="translate(178.578 34.983)scale(.78568)"/><path d="M-73.5 167.79c-.416 0-.831-.29-.855-.89-.025-.634.417-.962.858-.962.415 0 .83.29.854.889.025.635-.416.963-.857.963m-44.806 3.044c-.416 0-.831-.292-.855-.892-.025-.635.417-.963.858-.963.415 0 .83.293.854.892.025.635-.416.963-.857.963" style="fill:#da7d89;fill-opacity:1;fill-rule:nonzero;stroke:none;stroke-width:.0352778" transform="translate(178.578 34.983)scale(.78568)"/><path d="M-117.582 141.116c-.416 0-.832-.292-.855-.892-.025-.635.416-.963.857-.963.416 0 .831.293.855.892.025.635-.416.963-.857.963" style="fill:#efdadd;fill-opacity:1;fill-rule:nonzero;stroke:none;stroke-width:.0352778" transform="translate(178.578 34.983)scale(.78568)"/><path d="M-116.315 130.547c-.286-.508-.45-.906-.462-1.143-.01-.18.035-.395.126-.645h.01c.415 0 .83.289.854.889.019.472-.221.776-.527.9" style="fill:#e59da5;fill-opacity:1;fill-rule:nonzero;stroke:none;stroke-width:.0352778" transform="translate(178.578 34.983)scale(.78568)"/><path d="M-116.645 130.61c-.416 0-.831-.289-.855-.888-.024-.632.41-.96.849-.963-.09.25-.135.465-.126.645.012.237.176.635.462 1.143a.9.9 0 0 1-.33.064" style="fill:#bd757d;fill-opacity:1;fill-rule:nonzero;stroke:none;stroke-width:.0352778" transform="translate(178.578 34.983)scale(.78568)"/><path d="M-107.915 134.138c-.416 0-.831-.292-.855-.892-.025-.635.417-.963.858-.963.416 0 .83.293.854.892.025.635-.416.963-.857.963" style="fill:#e59da5;fill-opacity:1;fill-rule:nonzero;stroke:none;stroke-width:.0352778" transform="translate(178.578 34.983)scale(.78568)"/><path d="M-80.775 162.576c-.416 0-.831-.293-.855-.893-.025-.635.417-.963.857-.963.416 0 .832.293.855.893.025.635-.416.963-.857.963" style="fill:#da7d89;fill-opacity:1;fill-rule:nonzero;stroke:none;stroke-width:.0352778" transform="translate(178.578 34.983)scale(.78568)"/><path d="M-104.056 145.456c-.416 0-.831-.293-.855-.893-.025-.635.417-.963.858-.963.416 0 .831.293.855.892.025.635-.417.964-.858.964" style="fill:#f8dde1;fill-opacity:1;fill-rule:nonzero;stroke:none;stroke-width:.0352778" transform="translate(178.578 34.983)scale(.78568)"/><path d="M-70.779 112.16c-.384-.038-.744-.331-.766-.889-.025-.635.417-.963.858-.963a.83.83 0 0 1 .664.321 32 32 0 0 1-.756 1.531" style="fill:#ecce88;fill-opacity:1;fill-rule:nonzero;stroke:none;stroke-width:.0352778" transform="translate(178.578 34.983)scale(.78568)"/><path d="M-70.69 112.164q-.045.001-.089-.004.39-.74.756-1.531c.109.141.18.331.19.571.025.635-.416.963-.857.963" style="fill:#957a7d;fill-opacity:1;fill-rule:nonzero;stroke:none;stroke-width:.0352778" transform="translate(178.578 34.983)scale(.78568)"/><path d="M-96.809 147.24q-.034-.343-.061-.701a1.9 1.9 0 0 1 .51-.614q.083.175.095.412c.019.48-.23.784-.544.904" style="fill:#ebc7cb;fill-opacity:1;fill-rule:nonzero;stroke:none;stroke-width:.0352778" transform="translate(178.578 34.983)scale(.78568)"/><path d="M-97.123 147.3c-.416 0-.831-.292-.855-.892-.025-.635.417-.963.858-.963.305 0 .61.159.76.48a1.9 1.9 0 0 0-.51.614q.028.359.061.702a.9.9 0 0 1-.314.06" style="fill:#a1777d;fill-opacity:1;fill-rule:nonzero;stroke:none;stroke-width:.0352778" transform="translate(178.578 34.983)scale(.78568)"/><path d="M-132.057 112.781c-.416 0-.831-.293-.855-.892-.025-.635.417-.963.858-.963.415 0 .83.292.854.892.025.635-.416.963-.857.963" style="fill:#da7d89;fill-opacity:1;fill-rule:nonzero;stroke:none;stroke-width:.0352778" transform="translate(178.578 34.983)scale(.78568)"/><path d="M-72.088 144.059c-.395-.029-.772-.321-.794-.893-.014-.356.12-.617.319-.776.178.59.338 1.15.475 1.669" style="fill:#d8c0c2;fill-opacity:1;fill-rule:nonzero;stroke:none;stroke-width:.0352778" transform="translate(178.578 34.983)scale(.78568)"/><path d="M-72.028 144.059h-.06a50 50 0 0 0-.475-1.67.86.86 0 0 1 .538-.186c.416 0 .831.293.855.892.025.635-.417.964-.858.964" style="fill:#a1777d;fill-opacity:1;fill-rule:nonzero;stroke:none;stroke-width:.0352778" transform="translate(178.578 34.983)scale(.78568)"/><path d="M-86.383 153.894c-.416 0-.83-.29-.855-.893-.025-.635.417-.963.858-.963.416 0 .831.293.855.893.025.635-.417.963-.858.963" style="fill:#ebc7cb;fill-opacity:1;fill-rule:nonzero;stroke:none;stroke-width:.0352778" transform="translate(178.578 34.983)scale(.78568)"/><path d="M-126.861 162.78c-.416 0-.832-.292-.855-.892-.025-.635.416-.963.857-.963.416 0 .831.293.855.892.025.635-.416.963-.857.963m59.034-13.72c-.416 0-.83-.288-.854-.892-.025-.635.416-.96.857-.96.416 0 .831.29.855.89.025.635-.417.963-.858.963m-16.655 21.481c-.668 0-1.337-.47-1.375-1.433-.04-1.023.67-1.552 1.38-1.552.668 0 1.337.47 1.374 1.436.04 1.02-.67 1.549-1.379 1.549m-4.771 2.727c-.416 0-.831-.29-.855-.89-.025-.634.417-.963.857-.963.416 0 .831.29.855.89.025.634-.417.963-.857.963m-13.51.832c-.657 0-1.313-.458-1.35-1.407-.04-1.006.658-1.52 1.355-1.52.657 0 1.312.458 1.35 1.407.04 1.002-.658 1.52-1.355 1.52m28.993-42.178c-.657 0-1.313-.462-1.35-1.411-.04-1.002.658-1.52 1.354-1.52.657 0 1.313.462 1.35 1.407.04 1.005-.658 1.524-1.354 1.524m3.493 29.799c-.831 0-1.662-.582-1.709-1.781-.05-1.27.833-1.927 1.715-1.927.832 0 1.663.583 1.71 1.782.05 1.27-.833 1.926-1.716 1.926m-1.757-38.89c-.831 0-1.662-.582-1.709-1.782-.05-1.27.833-1.926 1.715-1.926.832 0 1.662.582 1.71 1.782.05 1.27-.834 1.926-1.716 1.926m4.039 5.045c-.832 0-1.662-.582-1.71-1.782-.05-1.273.833-1.926 1.716-1.926.831 0 1.662.582 1.709 1.781.05 1.27-.833 1.927-1.715 1.927m-44.88 45.035c-.831 0-1.662-.582-1.709-1.781-.05-1.274.833-1.93 1.715-1.93.232 0 .464.046.678.138l.603.444c.245.29.408.688.429 1.203.05 1.27-.834 1.926-1.716 1.926" style="fill:#da7d89;fill-opacity:1;fill-rule:nonzero;stroke:none;stroke-width:.0352778" transform="translate(178.578 34.983)scale(.78568)"/><path d="m-111.588 169.783-.603-.444c.227.095.434.243.603.444" style="fill:#957a7d;fill-opacity:1;fill-rule:nonzero;stroke:none;stroke-width:.0352778" transform="translate(178.578 34.983)scale(.78568)"/><path d="M-130.508 130.24c-.831 0-1.662-.582-1.71-1.781-.05-1.27.834-1.926 1.716-1.926.831 0 1.662.582 1.709 1.781.05 1.27-.833 1.926-1.715 1.926m7.4 4.597c-.831 0-1.662-.582-1.71-1.785-.05-1.27.834-1.926 1.716-1.926.832 0 1.662.585 1.709 1.785.05 1.27-.833 1.926-1.715 1.926" style="fill:#da7d89;fill-opacity:1;fill-rule:nonzero;stroke:none;stroke-width:.0352778" transform="translate(178.578 34.983)scale(.78568)"/><path d="M-93.34 160.244c-.817-.028-1.568-.201-1.993-.688-.396-.451-.438-1.108-.412-1.863.271-.165.584-.247.897-.247.832 0 1.662.583 1.71 1.782.015.402-.061.74-.202 1.016" style="fill:#ebc7cb;fill-opacity:1;fill-rule:nonzero;stroke:none;stroke-width:.0352778" transform="translate(178.578 34.983)scale(.78568)"/><path d="M-94.853 161.154c-.832 0-1.663-.582-1.71-1.781-.032-.819.324-1.383.818-1.68-.026.755.016 1.412.412 1.863.425.487 1.176.66 1.993.688-.304.603-.909.91-1.513.91" style="fill:#a1777d;fill-opacity:1;fill-rule:nonzero;stroke:none;stroke-width:.0352778" transform="translate(178.578 34.983)scale(.78568)"/><path d="M-126.27 122.169c-.832 0-1.663-.586-1.71-1.785-.05-1.27.833-1.927 1.715-1.927.832 0 1.663.583 1.71 1.786.05 1.27-.833 1.926-1.715 1.926" style="fill:#da7d89;fill-opacity:1;fill-rule:nonzero;stroke:none;stroke-width:.0352778" transform="translate(178.578 34.983)scale(.78568)"/><path d="M-91.94 127.513c-.415 0-.83-.293-.854-.892-.019-.47.218-.773.522-.896q.408.042.81.074c.212.14.366.391.38.751.025.635-.417.963-.858.963" style="fill:#e89fa8;fill-opacity:1;fill-rule:nonzero;stroke:none;stroke-width:.0352778" transform="translate(178.578 34.983)scale(.78568)"/><path d="M-91.461 125.799a33 33 0 0 1-.811-.074.9.9 0 0 1 .335-.067.85.85 0 0 1 .476.14" style="fill:#957a7d;fill-opacity:1;fill-rule:nonzero;stroke:none;stroke-width:.0352778" transform="translate(178.578 34.983)scale(.78568)"/><path d="M-128.6 140.298c-.415 0-.83-.293-.854-.893-.025-.635.417-.963.858-.963.415 0 .83.293.855.893.024.635-.417.963-.858.963m62.264-24.748c-.416 0-.832-.292-.856-.892-.025-.635.417-.963.858-.963.416 0 .831.293.855.892.025.635-.417.964-.857.964" style="fill:#da7d89;fill-opacity:1;fill-rule:nonzero;stroke:none;stroke-width:.0352778" transform="translate(178.578 34.983)scale(.78568)"/></g></svg>