<svg xmlns="http://www.w3.org/2000/svg" xml:space="preserve" width="200mm" height="200mm" viewBox="0 0 200 200"><path d="M22.468 272.096c-35.048 17.032 13.411 35.377 41.227 36.798 16.769.854 86.119-1.174 85.387-23.622-.898-27.552-108.798-21.833-126.614-13.176" style="fill:#fde8d5;fill-opacity:1;fill-rule:nonzero;stroke:none;stroke-width:.0352778" transform="translate(67.659 64.523)scale(.40881)"/><path d="M82.705 266.286q-2.184 0-4.418.028c-23.968.325-47.715 3.323-55.238 6.978-5.795 2.815-12.474 7.299-11.384 12.654.98 4.816 7.982 10.068 19.212 14.408 10.172 3.933 22.773 6.695 32.886 7.21 7.202.367 23.916.184 40.44-1.834 20.252-2.477 34.135-6.904 40.148-12.806 2.38-2.339 3.492-4.826 3.402-7.61-.119-3.626-2.444-6.83-6.913-9.528-10.08-6.082-31.124-9.5-58.135-9.5m-11.72 44.09c-2.977 0-5.484-.056-7.358-.155-10.375-.53-23.292-3.359-33.71-7.384-8.68-3.355-19.345-8.918-20.86-16.362-1.147-5.64 3.17-10.883 12.83-15.575 15.224-7.401 94.715-12.845 120.327 2.61 5.29 3.19 8.048 7.134 8.198 11.72.115 3.517-1.298 6.745-4.197 9.592-6.527 6.406-20.553 10.964-41.689 13.547-12.404 1.517-24.93 2.007-33.54 2.007" style="fill:#211d1d;fill-opacity:1;fill-rule:nonzero;stroke:none;stroke-width:.0352778" transform="translate(67.659 64.523)scale(.40881)"/><path d="M53.014 281.706c-1.867.783-1.944 2.956-.103 3.778 8.426 3.76 19.643 5.482 32.604 5.888 8.033.25 17.053-1.955 23.363-3.997 2.143-.692 2.224-3.133.142-3.94-7.05-2.735-13.2-4.76-15.85-9.917-4.14-8.058-4.206-20.105-4.622-28.424-1.257-25.124 9.637-10.706 2.345-30.36-.18-.483-.57-.91-1.092-1.185l-8.694-4.61a3.19 3.19 0 0 0-2.903 0l-8.71 4.62c-.55.29-.95.738-1.117 1.253-5.424 16.824 3.352 5.397 5.92 30.127.603 5.807-1.663 16.64-2.249 22.405-.593 5.839-12.493 11.62-19.034 14.362" style="fill:#fde8d5;fill-opacity:1;fill-rule:nonzero;stroke:none;stroke-width:.0352778" transform="translate(67.659 64.523)scale(.40881)"/><path d="M79.656 209.919c-.29 0-.58.063-.828.198l-8.712 4.617c-.238.124-.415.307-.473.487-2.561 7.945-1.846 8.851-.12 11.042 1.914 2.427 4.805 6.096 6.097 18.539.438 4.215-.532 10.678-1.387 16.383-.353 2.356-.687 4.579-.861 6.293-.627 6.163-11.137 11.804-19.844 15.455-.383.16-.624.427-.627.695-.002.25.199.484.552.639 7.73 3.45 18.23 5.34 32.104 5.775 8.53.264 18.014-2.35 22.911-3.93.446-.145.728-.42.736-.713.008-.289-.24-.56-.665-.723q-.788-.308-1.56-.603c-6.605-2.533-12.308-4.724-14.992-9.948-3.827-7.448-4.278-17.826-4.64-26.166q-.062-1.457-.127-2.798c-.645-12.876 1.844-15.867 3.66-18.051 1.42-1.708 2.203-2.65-1.234-11.913-.065-.173-.24-.353-.468-.473l-8.694-4.607a1.75 1.75 0 0 0-.828-.198m7.123 82.804q-.656 0-1.306-.021c-14.225-.445-25.054-2.41-33.104-6.005-1.328-.592-2.143-1.781-2.128-3.1.016-1.345.881-2.54 2.259-3.119 11.037-4.625 17.85-9.585 18.225-13.268.18-1.778.519-4.032.877-6.42.79-5.271 1.775-11.836 1.372-15.713-1.212-11.677-3.817-14.98-5.54-17.166-2.302-2.921-3.198-4.587-.323-13.505.273-.85.898-1.566 1.758-2.025l8.712-4.618a4.49 4.49 0 0 1 4.15 0l8.693 4.611c.813.43 1.422 1.104 1.716 1.898 3.804 10.252 2.938 11.952.785 14.538-1.536 1.849-3.64 4.378-3.048 16.217.045.9.086 1.842.128 2.816.35 8.082.787 18.136 4.349 25.068 2.219 4.318 7.483 6.34 13.578 8.678.517.201 1.04.399 1.569.607 1.499.579 2.404 1.838 2.363 3.277-.041 1.433-1.053 2.674-2.578 3.168-4.815 1.56-13.942 4.082-22.507 4.082" style="fill:#211d1d;fill-opacity:1;fill-rule:nonzero;stroke:none;stroke-width:.0352778" transform="translate(67.659 64.523)scale(.40881)"/><path d="M98.69 218.333c0 8.145-8.14 14.753-18.182 14.753-10.04 0-18.18-6.608-18.18-14.753 0-8.15 8.14-14.753 18.18-14.753 10.041 0 18.181 6.604 18.181 14.753" style="fill:#fde8d5;fill-opacity:1;fill-rule:nonzero;stroke:none;stroke-width:.0352778" transform="translate(67.659 64.523)scale(.40881)"/><path d="M80.508 204.91c-9.291 0-16.85 6.021-16.85 13.423 0 7.401 7.559 13.423 16.85 13.423s16.85-6.022 16.85-13.423c0-7.402-7.558-13.423-16.85-13.423m0 29.506c-10.758 0-19.51-7.214-19.51-16.083 0-8.87 8.752-16.083 19.51-16.083s19.511 7.214 19.511 16.083-8.752 16.083-19.51 16.083" style="fill:#211d1d;fill-opacity:1;fill-rule:nonzero;stroke:none;stroke-width:.0352778" transform="translate(67.659 64.523)scale(.40881)"/><path d="M89.643 210.547s-3.107 2.783-8.334 2.505c-5.126-.276-8.475-2.505-8.475-2.505v-23.382h16.81z" style="fill:#fde8d5;fill-opacity:1;fill-rule:nonzero;stroke:none;stroke-width:.0352778" transform="translate(67.659 64.523)scale(.40881)"/><path d="M74.165 209.778c1.116.589 3.734 1.76 7.215 1.944 3.554.19 5.98-1.172 6.933-1.831v-21.396H74.165zm7.878 4.621q-.394 0-.804-.021c-5.428-.29-8.993-2.625-9.143-2.727l-.592-.395v-25.421h19.47v25.305l-.443.395c-.137.123-3.262 2.864-8.488 2.864" style="fill:#211d1d;fill-opacity:1;fill-rule:nonzero;stroke:none;stroke-width:.0352778" transform="translate(67.659 64.523)scale(.40881)"/><path d="M168.771 30.186c-1.62-8.947-10.901-17.188-26.546-23.442C125.295-.03 102.813-3.76 78.919-3.76c-17.399 0-34.05 1.98-48.352 5.666L25.439-8.468C40.996-12.416 59.5-14.54 78.92-14.54c24.977 0 48.44 3.513 66.066 9.898 16.953 6.139 26.676 14.464 26.676 22.843 0 .458-.047.924-.094 1.32l-.069.585-.082.307-.019.077a12 12 0 0 1-.397 1.468l-.024.078zm-179.605-.505c-.594-2.092-1.187-4.19-1.776-6.286l-.069-.19c-.759-1.676-1.144-3.36-1.144-5.003 0-8.379 9.723-16.704 26.676-22.843q.904-.327 1.828-.645l5.108 10.46a109 109 0 0 0-4.176 1.57C.263 12.882-8.962 20.929-10.834 29.68" style="fill:#fde9d5;fill-opacity:1;fill-rule:nonzero;stroke:none;stroke-width:.0352778" transform="translate(67.659 64.523)scale(.40881)"/><path d="M24.62 181.57c2.331 1.707 16.428 10.657 57.304 11.966 22.693.727 36.516-2.618 44.116-5.55 6.832-2.634 9.978-5.414 10.851-6.286 4.267-49.537 18.752-103.036 34.085-159.663l.024-.078c.162-.476.296-.97.397-1.468l.02-.077.081-.307.07-.586c.045-.395.093-.86.093-1.32 0-8.378-9.723-16.703-26.676-22.841-17.626-6.386-41.09-9.9-66.066-9.9-24.977 0-48.44 3.514-66.066 9.9C-4.1 1.498-13.823 9.823-13.823 18.202c0 1.644.385 3.327 1.144 5.002l.069.19c2.442 8.697 4.944 17.368 7.365 25.75C7.098 91.911 18.758 132.311 24.62 181.57m63.596 14.728c-2.05 0-4.172-.032-6.378-.102-46.253-1.482-58.856-12.47-59.37-12.94l-.368-.335-.058-.494C16.227 133.14 4.556 92.697-7.802 49.881c-2.412-8.357-4.906-17-7.343-25.675-.888-1.993-1.339-4.01-1.339-6.004 0-9.705 10.097-18.704 28.43-25.344 17.91-6.487 41.695-10.06 66.973-10.06s49.063 3.573 66.972 10.06c18.334 6.64 28.43 15.639 28.43 25.344l-.002.226.386.02-.71 2.618q-.181.87-.461 1.708c-15.345 56.667-29.837 110.194-34.031 159.61l-.035.413-.262.318c-.462.564-11.288 13.183-50.989 13.183" style="fill:#211d1d;fill-opacity:1;fill-rule:nonzero;stroke:none;stroke-width:.0352778" transform="translate(67.659 64.523)scale(.40881)"/><path d="M166.947 42.078c-1.268 2.067-3.004 4.025-5.147 5.874a25.5 25.5 0 0 1 2.68 3.365c.813-3.058 1.635-6.135 2.467-9.24m-175.791-.62q1.223 4.253 2.443 8.474a29 29 0 0 1 2.731-3.027c-2.135-1.725-3.878-3.542-5.174-5.447" style="fill:#fdf8e4;fill-opacity:1;fill-rule:nonzero;stroke:none;stroke-width:.0352778" transform="translate(67.659 64.523)scale(.40881)"/><path d="M167.807 33.015c0 19.64-33.704 33.334-86.295 33.334-49.092 0-91.48-13.695-91.48-33.334 0-19.636 39.796-35.553 88.887-35.553s88.888 15.917 88.888 35.553" style="fill:#e2994c;fill-opacity:1;fill-rule:nonzero;stroke:none;stroke-width:.0352778" transform="translate(67.659 64.523)scale(.40881)"/><path d="M78.919-1.317c-23.591 0-45.752 3.665-62.4 10.325C.225 15.524-8.748 24.051-8.748 33.015c0 8.749 9.416 16.873 26.515 22.881 16.95 5.955 39.587 9.232 63.745 9.232 25.45 0 47.035-3.185 62.424-9.218 14.818-5.806 22.65-13.723 22.65-22.895 0-8.964-8.973-17.49-25.267-24.007-16.648-6.66-38.809-10.325-62.4-10.325m2.593 68.887c-24.426 0-47.351-3.33-64.554-9.374-18.15-6.374-28.146-15.317-28.146-25.181 0-10.03 9.518-19.36 26.801-26.271C32.543-.03 55.025-3.76 78.92-3.76s46.377 3.73 63.306 10.503c17.283 6.91 26.801 16.242 26.801 26.271 0 10.259-8.368 18.962-24.2 25.167-15.669 6.142-37.563 9.388-63.314 9.388" style="fill:#211d1d;fill-opacity:1;fill-rule:nonzero;stroke:none;stroke-width:.0352778" transform="translate(67.659 64.523)scale(.40881)"/><path d="M81.512 66.349c-41.908 0-80.076-9.807-90.356-24.892 13.056 45.364 26.012 88.304 32.208 140.815 0 0 11.975 15.187 58.27 16.669 44.798 1.432 56.543-16.67 56.543-16.67 3.677-43.317 14.952-88.695 28.77-140.193-9.045 14.735-41.155 24.271-85.435 24.271" style="fill:#ce5e1d;fill-opacity:1;fill-rule:nonzero;stroke:none;stroke-width:.0352778" transform="translate(67.659 64.523)scale(.40881)"/><path d="M24.637 181.704c.841.896 4.108 4.029 11.326 7.26 7.886 3.528 22.219 7.895 45.714 8.647 40.68 1.298 53.593-13.699 55.206-15.815 3.668-42.715 14.825-87.803 27.185-134.105-5.59 5.404-14.518 9.951-26.258 13.328-15.153 4.356-34.62 6.66-56.298 6.66-20.68 0-41.06-2.427-57.385-6.833C10.509 57.17.273 52.344-5.944 46.716l.693 2.403c12.356 42.813 24.029 83.263 29.888 132.585m61.894 18.644q-2.4 0-4.939-.078c-46.38-1.485-58.768-16.534-59.272-17.173l-.233-.296-.044-.374c-5.816-49.294-17.49-89.743-29.85-132.57q-1.156-4.004-2.316-8.03l-2.295-7.972 4.673 6.854C-3.02 47.645 8.546 53.882 24.82 58.277c16.106 4.347 36.24 6.742 56.692 6.742 43.05 0 75.352-9.056 84.302-23.636l4.792-7.807-2.374 8.848c-12.987 48.4-24.957 95.528-28.73 139.96l-.027.332-.182.282c-.128.195-3.231 4.876-11.984 9.331-7.354 3.743-20.252 8.02-40.778 8.02" style="fill:#211d1d;fill-opacity:1;fill-rule:nonzero;stroke:none;stroke-width:.0352778" transform="translate(67.659 64.523)scale(.40881)"/><path d="M37.985 132.52c10.718-7.987 11.25-7.366 30.6-13.939 16.312-5.542 48.605-10.23 50.174-16.122l-14.453-9.92s-24.81 10.908-31.208 12.404c1.718-6.745-47.068 2.826-53.81 12.199-.324.448 18.697 15.378 18.697 15.378" style="fill:#fff;fill-opacity:1;fill-rule:nonzero;stroke:none;stroke-width:.0352778" transform="translate(67.659 64.523)scale(.40881)"/><path d="M21.04 117.114c2.499 2.265 11.06 9.108 16.968 13.751 8.561-6.329 10.676-7.034 22.499-10.96 2.202-.735 4.699-1.564 7.656-2.566 5.825-1.979 13.715-3.862 21.345-5.683 6.869-1.637 13.972-3.334 19.274-5.041 5.292-1.704 7.39-2.977 8.213-3.771l-12.83-8.809c-4.09 1.789-24.842 10.802-30.768 12.185l-2.105.494.517-2.029c-.255-.187-1.415-.793-5.625-.68-12.555.335-38.928 6.914-45.144 13.109m16.924 17.057-.79-.621a1174 1174 0 0 1-9.481-7.529 377 377 0 0 1-6.465-5.284c-.929-.78-1.642-1.4-2.12-1.842-.685-.631-1.622-1.496-.885-2.522 4.264-5.927 21.647-10.495 26.873-11.751 10.778-2.597 23.49-4.36 27.594-2.445.619.29 1.086.68 1.384 1.14 7.731-2.332 29.471-11.875 29.703-11.977l.669-.293 15.821 10.858-.24.893c-1.157 4.346-12.12 7.168-29.91 11.412-7.572 1.807-15.401 3.676-21.11 5.613-2.965 1.009-5.466 1.838-7.673 2.572-12.101 4.021-13.656 4.537-22.565 11.176z" style="fill:#211d1d;fill-opacity:1;fill-rule:nonzero;stroke:none;stroke-width:.0352778" transform="translate(67.659 64.523)scale(.40881)"/><path d="M3.834 58.433S.697 47.313 23.21 33.6c3.17-1.93 23.143-9.37 23.143-9.37.66-.173 15.265 7.99 14.809 14.979 0 0-32.265 6.406-41.086 25.619-3.863 8.41-3.185 11.825-3.185 11.825z" style="fill:#fff;fill-opacity:1;fill-rule:nonzero;stroke:none;stroke-width:.0352778" transform="translate(67.659 64.523)scale(.40881)"/><path d="m5.067 57.9 10.8 15.07c.404-2.017 1.261-4.868 3.016-8.692 3.797-8.269 12.046-15.222 24.519-20.666 7.314-3.196 13.858-4.864 16.396-5.446-.886-5.236-11.045-11.59-13.387-12.556-5.808 2.17-20.064 7.617-22.518 9.112C4.287 46.664 4.853 56.43 5.067 57.9m14.298 24.476-3.541-4.96L2.633 59.01l-.062-.222c-.14-.494-3.142-12.241 19.956-26.31 3.24-1.972 22.548-9.172 23.368-9.476l.124-.042c.413-.11.88-.23 3.95 1.598a48 48 0 0 1 5.753 4.036c4.69 3.866 6.96 7.464 6.75 10.7l-.066 1.005-.988.197c-.316.064-31.713 6.506-40.149 24.878-3.557 7.747-3.092 11.014-3.086 11.046z" style="fill:#211d1d;fill-opacity:1;fill-rule:nonzero;stroke:none;stroke-width:.0352778" transform="translate(67.659 64.523)scale(.40881)"/><path d="M3.698-35.315a4.14 4.14 0 0 0-.231 4.04c7.235 14.81 51.405 105.24 78.833 161.473 5.147 10.548 8.852 21.7 11.663 33.094a24.4 24.4 0 0 0 2.06 5.415c4.328 8.301 12.37 12.665 17.96 9.748 5.591-2.914 6.615-12.005 2.287-20.306-1.146-2.198-2.553-4.117-4.105-5.701-10.632-10.83-20.003-22.818-26.722-36.428a614633 614633 0 0 0-74.56-150.946c-1.425-2.886-5.452-3.101-7.185-.389" style="fill:#e3f5f2;fill-opacity:1;fill-rule:nonzero;stroke:none;stroke-width:.0352778" transform="translate(67.659 64.523)scale(.40881)"/><path d="M7.18-35.897a2.77 2.77 0 0 0-2.36 1.299 2.82 2.82 0 0 0-.158 2.737 393335 393335 0 0 1 78.834 161.474c4.807 9.856 8.653 20.768 11.758 33.362a23 23 0 0 0 1.948 5.119c3.983 7.634 11.235 11.754 16.167 9.182 4.931-2.571 5.704-10.876 1.722-18.513-1.06-2.032-2.364-3.842-3.875-5.38-11.929-12.153-20.75-24.183-26.966-36.774A604524 604524 0 0 0 9.691-34.337a2.75 2.75 0 0 0-2.352-1.553q-.08-.006-.16-.007m103.06 216.57c-5.521 0-11.746-4.353-15.395-11.352a25.6 25.6 0 0 1-2.173-5.708c-3.06-12.41-6.843-23.149-11.567-32.833C52.238 71.602 4.298-26.544 2.272-30.693a5.5 5.5 0 0 1 .306-5.338 5.4 5.4 0 0 1 4.907-2.519 5.39 5.39 0 0 1 4.591 3.03c10.982 22.23 48.814 98.803 74.56 150.951 6.09 12.333 14.75 24.137 26.479 36.086 1.695 1.728 3.153 3.753 4.335 6.018 4.66 8.936 3.38 18.849-2.851 22.098-1.353.706-2.83 1.04-4.36 1.04" style="fill:#211d1d;fill-opacity:1;fill-rule:nonzero;stroke:none;stroke-width:.0352778" transform="translate(67.659 64.523)scale(.40881)"/><path d="M16.427-37.505c-.695 7.203-7.1 12.481-14.305 11.786-7.204-.695-12.481-7.098-11.787-14.305.696-7.204 7.1-12.481 14.305-11.786s12.483 7.101 11.787 14.305" style="fill:#e3f5f2;fill-opacity:1;fill-rule:nonzero;stroke:none;stroke-width:.0352778" transform="translate(67.659 64.523)scale(.40881)"/><path d="M3.373-50.54c-5.989 0-11.127 4.565-11.713 10.646-.624 6.463 4.127 12.228 10.59 12.852 6.465.625 12.23-4.127 12.853-10.59.624-6.463-4.127-12.231-10.59-12.852a11 11 0 0 0-1.14-.056m.02 26.214q-.695.002-1.398-.067c-7.924-.765-13.748-7.835-12.984-15.758.765-7.924 7.834-13.748 15.757-12.982 7.924.765 13.748 7.831 12.984 15.755-.72 7.454-7.019 13.052-14.36 13.052" style="fill:#211d1d;fill-opacity:1;fill-rule:nonzero;stroke:none;stroke-width:.0352778" transform="translate(67.659 64.523)scale(.40881)"/><path d="M114.65 82.136c-9.16 1.245-18.229 1.926-27.253 1.725-9.02-.275-17.97-1.33-26.769-3.306-8.8-1.95-17.428-4.797-25.877-8.23a201 201 0 0 1-12.514-5.613c-.978-.497-1.96-.987-2.937-1.485C-1.137 56.658 8.937 44.4 8.937 44.4S4.59 47.324 2.746 54.721C.626 63.227 7.1 84.531 7.1 84.531s12.981 9.172 17.867 11.617c4.883 2.452 9.932 4.533 15.08 6.311 5.16 1.75 10.431 3.133 15.753 4.237 10.65 2.201 21.564 2.935 32.343 2.35 10.14-.67 19.952-1.778 29.463-4.848 1.033-.331 1.683-1.393 1.54-2.494-.82-6.31-2.157-13.229-4.498-19.568" style="fill:#e6da3f;fill-opacity:1;fill-rule:nonzero;stroke:none;stroke-width:.0352778" transform="translate(67.659 64.523)scale(.40881)"/><path d="M8.23 83.72c2.15 1.51 13.04 9.108 17.325 11.253 4.626 2.322 9.647 4.424 14.923 6.245 4.845 1.643 10.092 3.055 15.589 4.19 10.324 2.138 21.093 2.918 32.006 2.325 9.33-.614 19.328-1.622 29.13-4.783.428-.138.703-.6.642-1.076-.924-7.112-2.258-13.113-4.073-18.299-9.55 1.26-18.198 1.782-26.405 1.598-9.334-.282-18.423-1.407-27.026-3.337-8.399-1.863-16.932-4.576-26.084-8.297a200 200 0 0 1-12.6-5.648 130 130 0 0 0-1.48-.748q-.716-.365-1.43-.723c-7.593-3.193-12.06-7.303-13.277-12.21a11.2 11.2 0 0 1-.328-2.508 21.6 21.6 0 0 0-1.122 3.337c-1.847 7.412 3.32 25.647 4.21 28.68m72.792 26.833c-8.68 0-17.22-.86-25.487-2.572-5.602-1.16-10.954-2.6-15.908-4.279-5.392-1.859-10.52-4.007-15.248-6.378C19.463 94.86 6.877 85.98 6.343 85.603l-.367-.257-.131-.434C5.575 84.03-.71 63.16 1.472 54.404c1.944-7.796 6.537-10.964 6.732-11.095l7.446-5.013-5.699 6.936c-.028.035-3.063 3.845-1.925 8.371 1.019 4.06 4.983 7.564 11.782 10.414l.087.039 1.464.74 1.473.745a197 197 0 0 0 12.416 5.567c9.012 3.662 17.408 6.332 25.665 8.167 8.443 1.894 17.366 2.995 26.524 3.274 8.356.183 17.204-.374 27.035-1.715l1.043-.141.365.988c2.066 5.595 3.56 12.09 4.568 19.854.226 1.74-.8 3.387-2.438 3.912-10.074 3.25-20.266 4.28-29.78 4.907q-3.617.197-7.208.198" style="fill:#211d1d;fill-opacity:1;fill-rule:nonzero;stroke:none;stroke-width:.0352778" transform="translate(67.659 64.523)scale(.40881)"/><path d="M125.96 141.575c-4.299.23-7.537.716-11.675.95-4.142.176-8.266.398-12.477.363-8.416-.022-17.005-1.277-25.58-3.2a202 202 0 0 1-12.823-3.531c-4.261-1.344-8.489-2.9-12.701-4.534a239 239 0 0 1-12.496-5.372c-2.044-.981-4.114-1.93-6.122-2.96l-3-1.531-1.61-1.115c-1.212-1.094-4.474-3.792-4.008-4.784 1.57-3.344 15.966-8.311 15.966-8.311s-16.251 5.045-20.283 7.976c-1.697 1.238 3.249 28.106 4.246 28.325 1.516.963 13.48 7.814 18.093 10.005a161 161 0 0 0 14.132 6.025 154 154 0 0 0 14.757 4.727c5.027 1.32 10.153 2.424 15.37 3.172 5.216.769 10.538 1.157 15.9 1.266a73.8 73.8 0 0 0 16.157-1.53c5.344-1.151 8.892-2.075 13.737-4.742z" style="fill:#e6da3f;fill-opacity:1;fill-rule:nonzero;stroke:none;stroke-width:.0352778" transform="translate(67.659 64.523)scale(.40881)"/><path d="M24.317 142.877c2.167 1.323 13.401 7.733 17.737 9.793a161 161 0 0 0 14.024 5.98 152 152 0 0 0 14.639 4.688c5.437 1.425 10.416 2.456 15.218 3.143 4.88.717 10.175 1.14 15.742 1.253a72.5 72.5 0 0 0 15.863-1.507c4.785-1.03 8.12-1.848 12.47-4.12l-5.046-19.16a160 160 0 0 0-4.949.424c-1.782.173-3.624.35-5.655.466l-1.969.084c-3.446.152-7.01.307-10.594.279-7.794-.021-16.254-1.076-25.856-3.231a202 202 0 0 1-12.925-3.56c-3.732-1.175-7.794-2.625-12.787-4.561a237 237 0 0 1-12.575-5.408c-.62-.297-1.227-.583-1.833-.872-1.428-.677-2.904-1.376-4.335-2.11l-3.146-1.619-1.744-1.22-.492-.438c-2.725-2.406-4.594-4.237-3.824-5.88l.024-.05c-.871.42-1.603.815-2.14 1.171-.634 3.048 2.881 23.506 4.153 26.455m78.557 27.492q-.624 0-1.247-.01c-5.68-.117-11.085-.547-16.069-1.278-4.897-.702-9.973-1.75-15.511-3.203a155 155 0 0 1-14.888-4.77 162 162 0 0 1-14.24-6.07c-4.594-2.184-16.173-8.806-18.111-10.005-.671-.31-.966-1.126-1.373-2.618-.3-1.09-.66-2.639-1.043-4.477-.914-4.392-1.815-9.708-2.352-13.878-1.1-8.548-.336-9.102.34-9.592 4.159-3.027 19.993-7.962 20.666-8.17l.817 2.494c-6.358 2.194-13.66 5.538-15.045 7.366.482.811 2.368 2.476 3.024 3.058q.252.218.45.399l1.468 1.012 2.923 1.493c1.396.72 2.853 1.407 4.262 2.077q.917.434 1.832.872c3.888 1.81 7.953 3.56 12.412 5.334 4.929 1.912 8.939 3.344 12.61 4.501a199 199 0 0 0 12.734 3.507c9.396 2.11 17.67 3.143 25.279 3.164 3.525.032 7.051-.127 10.464-.275l1.954-.085c1.96-.112 3.696-.278 5.533-.458 1.91-.184 3.883-.374 6.127-.494l1.067-.057 6.117 23.224-.898.494c-5.107 2.811-8.897 3.753-14.094 4.875a75.3 75.3 0 0 1-15.208 1.57" style="fill:#211d1d;fill-opacity:1;fill-rule:nonzero;stroke:none;stroke-width:.0352778" transform="translate(67.659 64.523)scale(.40881)"/><path d="M65.742 143.505c-1.291.339-.777 2.399.517 2.06 1.292-.338.777-2.402-.517-2.06m6.534 11.835c-1.291.34-.777 2.403.517 2.064 1.292-.338.777-2.402-.517-2.063m10.044 4.509c-1.292.338-.777 2.402.517 2.063 1.292-.342.776-2.402-.517-2.064m-60.217-32.551c-1.292.34-.777 2.403.517 2.064 1.291-.339.777-2.402-.517-2.064m8.872 4.816c-1.29.338-.776 2.402.518 2.06 1.291-.339.776-2.399-.518-2.06m-1.89-6.83c-1.292.339-.777 2.402.517 2.064 1.292-.342.777-2.403-.517-2.064m-4.336-3.076c-1.292.338-.777 2.402.516 2.064 1.292-.34.777-2.403-.516-2.064m.938 14.407c-1.292.339-.777 2.403.517 2.064 1.291-.342.776-2.402-.517-2.064m15.201 5.168c-1.292.34-.777 2.403.517 2.064 1.292-.338.777-2.402-.517-2.064m-.148-9.119c-1.291.339-.776 2.403.518 2.064 1.291-.339.776-2.403-.518-2.064m-9.665 7.666c-1.292.339-.777 2.402.517 2.06 1.291-.338.777-2.399-.517-2.06m6.465-4.078c-1.292.339-.776 2.402.516 2.064 1.292-.343.777-2.403-.516-2.064m16.083 11.532c-1.291.339-.777 2.4.517 2.06 1.292-.338.776-2.402-.517-2.06m-2.667-9.924c-1.29.34-.776 2.4.518 2.06 1.291-.338.776-2.402-.518-2.06m-5.25 3.941c-1.292.339-.777 2.403.517 2.064 1.291-.339.776-2.403-.517-2.064m14.362-1.019c-1.292.338-.777 2.398.516 2.06 1.292-.339.777-2.403-.516-2.06m7.985 9.807c-1.29.338-.776 2.402.518 2.064 1.291-.34.776-2.403-.518-2.064m-6.973-2.932c-1.292.339-.777 2.403.516 2.064 1.292-.339.777-2.402-.517-2.064m-.007 4.946c-1.292.339-.777 2.403.517 2.064 1.291-.339.776-2.403-.517-2.064m19.868 1.747c-1.29.338-.776 2.402.518 2.063 1.291-.339.776-2.402-.517-2.064m1.181-10.932c-1.292.338-.777 2.402.517 2.064 1.291-.34.776-2.403-.517-2.064m-7.652 2.191c-1.291.338-.776 2.402.517 2.063 1.292-.338.777-2.402-.516-2.063m15.222-45.936c-1.292.339-.777 2.403.517 2.06 1.292-.335.776-2.398-.517-2.06M88.618 89.7c-1.292.338-.777 2.398.517 2.06 1.292-.34.777-2.403-.517-2.06m-6.506 10.311c-1.29.342-.776 2.402.518 2.064 1.291-.339.776-2.403-.518-2.064m14.814-8.463c-1.292.339-.777 2.402.516 2.06 1.292-.339.777-2.402-.516-2.06m4.006 3.891c-1.291.339-.776 2.402.518 2.064 1.291-.339.776-2.403-.518-2.064m7.051 1.813c-1.291.339-.776 2.403.517 2.064 1.292-.339.777-2.402-.517-2.064m2.625-8.015c-1.291.339-.776 2.403.518 2.064 1.291-.339.776-2.402-.518-2.064M95.07 101.923c-1.29.339-.776 2.403.518 2.064 1.291-.339.776-2.403-.517-2.064m6.432-14.873c-1.292.339-.777 2.402.517 2.06 1.29-.338.776-2.399-.517-2.06m10.17 10.7c-1.291.338-.776 2.402.517 2.063 1.292-.338.777-2.402-.517-2.063M24.007 75.885c-1.291.338-.776 2.398.517 2.06 1.292-.339.777-2.403-.517-2.06m5.953 6.678c-1.291.338-.776 2.402.517 2.063 1.292-.338.777-2.402-.517-2.063m7.809-3.697c-1.292.338-.777 2.402.517 2.06 1.291-.339.776-2.4-.517-2.06m-20.949-.364c-1.292.339-.777 2.403.517 2.064 1.292-.342.776-2.402-.517-2.064m-4.35-10.947c-1.291.34-.776 2.403.518 2.06 1.291-.334.777-2.398-.517-2.06M9.587 74.54c-1.292.34-.777 2.4.517 2.06 1.291-.338.777-2.398-.517-2.06m14.086 13.519c-1.291.339-.776 2.402.517 2.064 1.292-.343.777-2.403-.517-2.064m10.313 7.003c-1.292.338-.777 2.398.517 2.06 1.29-.339.776-2.403-.517-2.06m9.488-9.084c-1.292.338-.777 2.402.517 2.06 1.291-.339.776-2.403-.517-2.06m-8.731 3.573c-1.292.339-.776 2.4.517 2.06 1.292-.338.777-2.402-.517-2.06m10.87 2.822c-1.292.343-.777 2.403.517 2.064 1.292-.339.777-2.402-.517-2.064m3.639 5.274c-1.291.34-.776 2.403.517 2.06 1.292-.338.777-2.398-.517-2.06m9.915-8.096c-1.292.339-.777 2.403.516 2.06 1.292-.338.777-2.398-.516-2.06m-7.503-6.456c-1.291.339-.776 2.403.518 2.06 1.291-.338.776-2.398-.518-2.06m9.219 18.278c-1.292.338-.777 2.402.516 2.06 1.292-.339.777-2.402-.516-2.06m18.918-8.446c-1.291.339-.776 2.403.517 2.064 1.292-.342.777-2.402-.517-2.064m-8.371-4.946c-1.292.339-.777 2.403.517 2.06 1.292-.338.777-2.398-.517-2.06m-3.811 6.129c-1.292.338-.777 2.401.517 2.063 1.291-.342.776-2.403-.517-2.064m6.417 7.109c-1.292.338-.777 2.402.517 2.06 1.292-.339.776-2.403-.517-2.06m12.782 48.842c-1.291.338-.776 2.402.517 2.063 1.291-.338.776-2.402-.517-2.063m8.183 2.067c-1.291.339-.776 2.399.517 2.06 1.292-.339.777-2.402-.517-2.06m15.937 2.409c-1.292.339-.777 2.403.517 2.064 1.291-.339.776-2.402-.518-2.064m5.7-5.708c-1.292.34-.777 2.403.517 2.064 1.292-.338.777-2.402-.517-2.064m-14.104 2.054c-1.29.338-.776 2.402.518 2.063 1.291-.342.776-2.402-.518-2.063m4.707-3.983c-1.292.338-.777 2.402.517 2.063 1.291-.338.776-2.402-.517-2.063m-15.673-.649c-1.291.338-.776 2.402.517 2.063 1.292-.338.777-2.402-.517-2.063m6.405-.766c-1.292.339-.777 2.403.516 2.064 1.292-.339.777-2.403-.516-2.064m24.084 11.448c-1.292.338-.777 2.399.516 2.06 1.292-.339.777-2.399-.516-2.06m.58-6.929c-1.292.339-.777 2.403.517 2.06 1.291-.338.776-2.402-.517-2.06m-5.948 6.139c-1.291.338-.777 2.402.517 2.063 1.291-.338.776-2.402-.517-2.063m9.747 4.035c-1.291.339-.776 2.403.517 2.064 1.291-.339.777-2.402-.517-2.064m-9.205 1.683c-1.291.339-.776 2.402.518 2.064 1.29-.339.776-2.403-.518-2.064m-6.214-2.032c-1.291.339-.777 2.402.517 2.06 1.292-.338.777-2.399-.517-2.06m-5.623 4.59c-1.292.338-.777 2.402.517 2.06 1.291-.339.776-2.399-.517-2.06m1.33-7.493c-1.292.338-.777 2.402.517 2.063 1.291-.338.776-2.402-.517-2.063m-9.836 1.298c-1.291.339-.777 2.402.517 2.064 1.292-.339.777-2.403-.517-2.064m-7.207-.307c-1.292.342-.777 2.402.516 2.064 1.292-.339.777-2.403-.517-2.064m9.165 4.558c-1.292.339-.777 2.399.517 2.06 1.291-.339.777-2.402-.517-2.06m-6.658.462c-1.292.342-.777 2.402.517 2.064 1.292-.339.777-2.403-.517-2.064" style="fill:#e3daac;fill-opacity:1;fill-rule:nonzero;stroke:none;stroke-width:.0352778" transform="translate(67.659 64.523)scale(.40881)"/><path d="M81.512 65.019c-6.798 0-13.563-.265-20.155-.78l-4.57-9.253q.158-.085.294-.176l28.997 8.872-.828 1.312q-1.855.026-3.738.025m-33.575-2.198a213 213 0 0 1-10.125-1.616 160 160 0 0 1-11.882-2.769c4.009-4.43 9.337-7.91 14.644-10.576.46.91.952 1.873 1.416 2.78z" style="fill:#e1994c;fill-opacity:1;fill-rule:nonzero;stroke:none;stroke-width:.0352778" transform="translate(67.659 64.523)scale(.40881)"/><path d="M37.812 61.205a169 169 0 0 1-11.98-2.66l.098-.109a160 160 0 0 0 11.882 2.77" style="fill:#684c39;fill-opacity:1;fill-rule:nonzero;stroke:none;stroke-width:.0352778" transform="translate(67.659 64.523)scale(.40881)"/><path d="M81.512 66.349q-.902-.001-1.8-.007c-5.071-.064-11.192-.388-17.801-.98l-.554-1.123c6.592.515 13.357.78 20.155.78q1.882.001 3.738-.025l-.843 1.34h-.172q-1.354.016-2.723.015m-33.073-2.501c-7.942-1.073-16.045-2.494-23.489-4.276q.429-.524.883-1.026c3.793.994 7.803 1.883 11.98 2.66a213 213 0 0 0 10.124 1.615z" style="fill:#684c39;fill-opacity:1;fill-rule:nonzero;stroke:none;stroke-width:.0352778" transform="translate(67.659 64.523)scale(.40881)"/><path d="m22.139 58.874-.62-.16q-.382-.101-.766-.214a25 25 0 0 1-.698-.212c-4.479-1.411-9.096-3.895-12.254-6.036-.134-1.595.195-3.048.632-4.216 1.588-2.254 3.894-4.801 7.232-7.542 2.646 1.609 6.234 3.323 10.022 3.764 2.452.286 4.289.441 5.964.441 2.234 0 4.181-.275 6.918-.885.058.148.368.783.814 1.679-7.634 3.827-13.404 8.304-17.244 13.38" style="fill:#f0cb9e;fill-opacity:1;fill-rule:nonzero;stroke:none;stroke-width:.0352778" transform="translate(67.659 64.523)scale(.40881)"/><path d="M24.95 59.572q-1.423-.339-2.811-.698c3.84-5.077 9.61-9.554 17.244-13.381.336.674.75 1.496 1.19 2.367-5.306 2.667-10.634 6.145-14.643 10.576l-.097.11q-.454.502-.883 1.026M8.433 48.036c.636-1.697 1.503-2.787 1.518-2.804l4.52-5.5q.558.37 1.194.762c-3.338 2.741-5.644 5.288-7.232 7.542" style="fill:#684c39;fill-opacity:1;fill-rule:nonzero;stroke:none;stroke-width:.0352778" transform="translate(67.659 64.523)scale(.40881)"/><path d="M58.797 65.065a300 300 0 0 1-7.197-.808c-1.39-2.847-2.78-5.69-4.159-8.516a18.6 18.6 0 0 0 3.54.332 18 18 0 0 0 3.237-.28z" style="fill:#e2c799;fill-opacity:1;fill-rule:nonzero;stroke:none;stroke-width:.0352778" transform="translate(67.659 64.523)scale(.40881)"/><path d="M61.91 65.361q-1.54-.138-3.113-.296l-4.579-9.271c1.036-.187 1.929-.462 2.568-.808zM51.6 64.257a355 355 0 0 1-3.161-.41l-.502-1.026L41.99 50.64c.961 1.877 1.807 3.503 2.033 3.884.974.571 2.158.966 3.418 1.217z" style="fill:#684c39;fill-opacity:1;fill-rule:nonzero;stroke:none;stroke-width:.0352778" transform="translate(67.659 64.523)scale(.40881)"/><path d="m3.374 49.289-.067-.043c-.34-.236-.666-.43-.98-.62q-.56-.36-1.094-.73L11.298 37.36s.768.681 2.076 1.616a51 51 0 0 0-3.401 3.14l-1.77 1.192c-.144.099-2.718 1.873-4.829 5.98" style="fill:#e1994c;fill-opacity:1;fill-rule:nonzero;stroke:none;stroke-width:.0352778" transform="translate(67.659 64.523)scale(.40881)"/><path d="M3.372 49.292q-.002 0-.002-.003l-.063-.043.067.043zm-1.045-.667a9 9 0 0 1-1.095-.73h.001q.533.37 1.094.73m7.646-6.508a51 51 0 0 1 3.4-3.14q.294.212.62.434z" style="fill:#684c39;fill-opacity:1;fill-rule:nonzero;stroke:none;stroke-width:.0352778" transform="translate(67.659 64.523)scale(.40881)"/><path d="M7.8 52.252c-1.776-1.203-3.245-2.127-4.428-2.96q0-.004.002-.003c2.11-4.107 4.685-5.881 4.83-5.98l1.769-1.192 4.02-2.706q.231.159.477.32l-4.519 5.5c-.015.018-.882 1.108-1.518 2.805-.437 1.168-.766 2.621-.633 4.216" style="fill:#684c39;fill-opacity:1;fill-rule:nonzero;stroke:none;stroke-width:.0352778" transform="translate(67.659 64.523)scale(.40881)"/><path d="M86.587 197.688q-2.384 0-4.91-.077c-23.495-.752-37.828-5.12-45.714-8.647-7.218-3.231-10.485-6.364-11.326-7.26-5.86-49.322-17.532-89.772-29.888-132.585l-.693-2.402c2.186 1.979 4.87 3.86 8.024 5.623q-.335.974-.608 2.064C-.71 63.16 5.576 84.03 5.845 84.912l.13.434.368.258c.534.377 13.12 9.256 18.036 11.719 4.729 2.37 9.856 4.519 15.248 6.378q1.963.667 4.006 1.28c-3.717.943-10.298 2.773-15.954 5.204-3.832 1.44-7.572 3.023-9.3 4.283-.675.49-1.44 1.044-.339 9.592.537 4.17 1.438 9.486 2.352 13.878.383 1.838.744 3.387 1.043 4.477.407 1.492.702 2.307 1.373 2.618 1.938 1.199 13.517 7.82 18.112 10.004a162 162 0 0 0 14.24 6.072 155 155 0 0 0 14.887 4.77c5.538 1.453 10.614 2.5 15.511 3.202 3.084.452 6.33.79 9.702 1.01 3.693 6.543 9.662 10.583 14.98 10.583 1.53 0 3.006-.335 4.359-1.041 3.72-1.937 5.675-6.251 5.656-11.317 4.147-.95 7.552-1.986 11.921-4.392l.898-.494-6.117-23.223-1.067.056c-2.244.12-4.218.31-6.127.494-1.837.18-3.573.346-5.533.459l-1.954.084c-2.696.117-5.461.24-8.242.272-7.264-8.608-13.002-17.237-17.398-26.141l-.171-.346 3.653-.875c13.83-3.298 23.533-5.74 27.712-8.703q.09-.028.18-.06c1.639-.525 2.664-2.173 2.438-3.912-1.008-7.765-2.502-14.26-4.568-19.854l-.364-.988-1.044.141c-8.618 1.175-16.479 1.746-23.917 1.746q-1.571 0-3.118-.031a144 144 0 0 1-17.844-1.634l-6.868-13.903c6.163.441 12.46.667 18.787.667 21.677 0 41.145-2.304 56.298-6.66 11.74-3.377 20.669-7.924 26.258-13.328-12.36 46.302-23.517 91.39-27.185 134.105-1.546 2.028-13.474 15.892-50.296 15.892m-1.354-57.58c-2.795-.455-5.69-1.02-8.7-1.697a199 199 0 0 1-12.734-3.507c-3.671-1.157-7.681-2.59-12.61-4.501a266 266 0 0 1-4.918-2.014c3.836-2.265 7.253-3.398 15.063-5.994 2.207-.734 4.708-1.563 7.673-2.572a112 112 0 0 1 5.879-1.788c2.148 4.402 4.23 8.667 6.218 12.745a140 140 0 0 1 4.129 9.328M55.3 77.906c-6.463-1.718-13.073-3.962-20.053-6.798a197 197 0 0 1-12.416-5.567l-1.325-.67a26.3 26.3 0 0 1 2.48-4.064l.14.039c7.642 2.063 16.175 3.69 25.21 4.84z" style="fill:#ce5e1e;fill-opacity:1;fill-rule:nonzero;stroke:none;stroke-width:.0352778" transform="translate(67.659 64.523)scale(.40881)"/><path d="M86.612 199.022q-2.418-.002-4.977-.081c-46.296-1.482-58.27-16.67-58.27-16.67-6.197-52.51-19.153-95.45-32.21-140.814 2.393 3.51 6.292 6.735 11.4 9.617q-.248.606-.475 1.266c-3.154-1.764-5.838-3.644-8.024-5.623l.693 2.402c12.356 42.813 24.029 83.263 29.888 132.585.841.896 4.108 4.029 11.326 7.26 7.886 3.528 22.219 7.895 45.714 8.647q2.526.077 4.91.077c36.822 0 48.75-13.864 50.296-15.893 3.668-42.714 14.825-87.802 27.185-134.104-5.59 5.404-14.518 9.951-26.258 13.327-15.153 4.357-34.62 6.66-56.298 6.66-6.326 0-12.624-.225-18.787-.666l-.68-1.38c5.758.431 11.67.671 17.666.71q.925.01 1.801.01c.91 0 1.821 0 2.723-.017 42.87-.381 73.854-9.825 82.712-24.257-13.818 51.498-25.093 96.876-28.77 140.194 0 0-10.866 16.75-51.565 16.75M49.337 65.686c-9.035-1.15-17.568-2.777-25.21-4.84l-.14-.04q.427-.58.885-1.139c7.225 1.93 15.24 3.479 23.77 4.597z" style="fill:#503428;fill-opacity:1;fill-rule:nonzero;stroke:none;stroke-width:.0352778" transform="translate(67.659 64.523)scale(.40881)"/><path d="M43.332 127.126a232 232 0 0 1-4.555-2.057q-.914-.438-1.832-.872c-1.409-.67-2.866-1.358-4.262-2.077l-2.923-1.493-1.467-1.012q-.2-.18-.45-.399c-.657-.582-2.543-2.247-3.025-3.058 1.386-1.828 8.687-5.172 15.045-7.366l-.014-.043a148 148 0 0 1 9.1-2.29q3.227.828 6.586 1.521a123 123 0 0 0 15.513 2.188l2.668 5.468a108 108 0 0 0-5.553 1.704c-2.957 1.001-5.454 1.83-7.656 2.564-8.955 2.974-12.34 4.1-17.175 7.222m41.941-14.454-1.065-2.159q2.008-.047 4.022-.158c3.378-.223 6.842-.498 10.356-.904a718 718 0 0 1-9.078 2.205c-1.407.335-2.824.674-4.235 1.016" style="fill:#ebbb94;fill-opacity:1;fill-rule:nonzero;stroke:none;stroke-width:.0352778" transform="translate(67.659 64.523)scale(.40881)"/><path d="M46.271 128.388q-1.493-.63-2.94-1.262c4.836-3.123 8.221-4.248 17.176-7.222 2.202-.734 4.699-1.563 7.656-2.565a109 109 0 0 1 5.553-1.703l1.17 2.398a112 112 0 0 0-5.879 1.789c-2.965 1.009-5.466 1.838-7.673 2.572-7.81 2.596-11.227 3.729-15.063 5.993m40.194-13.303-1.192-2.413c1.411-.342 2.828-.68 4.235-1.016 3.04-.723 6.124-1.46 9.078-2.205 6.323-.73 12.807-1.887 19.244-3.944-4.179 2.964-13.882 5.405-27.712 8.703-1.215.29-2.436.582-3.653.875m-58.786-4.9c5.656-2.43 12.237-4.261 15.954-5.203q2.6.784 5.317 1.478a148 148 0 0 0-9.1 2.29l-.804-2.452c-.394.12-5.971 1.859-11.367 3.887" style="fill:#503428;fill-opacity:1;fill-rule:nonzero;stroke:none;stroke-width:.0352778" transform="translate(67.659 64.523)scale(.40881)"/><path d="M19.142 63.731c-6.255-2.737-9.97-6.057-11.05-9.874 3.599 1.616 7.609 3.098 11.963 4.431q.35.111.698.212.677.206 1.364.402a29.3 29.3 0 0 0-2.975 4.83" style="fill:#ebbb94;fill-opacity:1;fill-rule:nonzero;stroke:none;stroke-width:.0352778" transform="translate(67.659 64.523)scale(.40881)"/><path d="m21.507 64.87-.148-.073-1.464-.741-.087-.039q-.338-.142-.666-.286a29.3 29.3 0 0 1 2.975-4.83c.905.262 1.823.52 2.755.766q-.457.56-.886 1.14a26.3 26.3 0 0 0-2.479 4.064" style="fill:#503428;fill-opacity:1;fill-rule:nonzero;stroke:none;stroke-width:.0352778" transform="translate(67.659 64.523)scale(.40881)"/><path d="M110.145 178.042c-3.942 0-8.466-2.956-11.664-7.782q1.557.068 3.146.098.623.01 1.247.011a75 75 0 0 0 14.758-1.482c-.095 3.821-1.55 6.975-4.263 8.39-.996.518-2.085.765-3.224.765m-9.58-36.477c-3.899-.067-7.975-.399-12.29-.995a143 143 0 0 0-4.78-10.957l-9.39-19.244q3.442.182 6.917.183h.237l2.991 6.057c4.199 8.502 9.586 16.75 16.316 24.956M66.357 80.372q-2.752-.493-5.444-1.097-1.115-.249-2.235-.519l-6.884-14.1q3.53.412 7.161.73c2.479 5.016 4.953 10.03 7.402 14.986" style="fill:#dab88e;fill-opacity:1;fill-rule:nonzero;stroke:none;stroke-width:.0352778" transform="translate(67.659 64.523)scale(.40881)"/><path d="M110.24 180.674c-5.318 0-11.287-4.04-14.98-10.584q1.592.1 3.22.17c3.199 4.826 7.723 7.782 11.665 7.782 1.139 0 2.228-.247 3.224-.766 2.713-1.414 4.168-4.568 4.263-8.389l.45-.088a150 150 0 0 0 2.173-.483c.019 5.066-1.936 9.38-5.656 11.317-1.353.706-2.83 1.04-4.36 1.04m-7.535-39.094q-.446.001-.892-.004-.62 0-1.246-.01c-6.73-8.206-12.117-16.454-16.316-24.956-.98-1.986-1.977-4.008-2.99-6.057a140 140 0 0 0 2.948-.04l1.065 2.16 1.363 2.758c4.396 8.905 10.134 17.534 17.398 26.141q-.665.006-1.33.007m-14.43-1.008q-1.5-.21-3.041-.462a140 140 0 0 0-4.129-9.328l-10.056-20.612q1.525.116 3.058.2l9.39 19.245c1.71 3.51 3.3 7.15 4.778 10.957M69.593 80.915q-1.628-.254-3.236-.543c-2.449-4.957-4.923-9.97-7.402-14.986 1.023.088 2.057.173 3.09.247q.34.686.68 1.38zm-10.915-2.159q-1.683-.401-3.377-.85l-5.964-12.22-.695-1.422q1.565.207 3.152.392c2.293 4.699 4.593 9.408 6.884 14.1" style="fill:#503428;fill-opacity:1;fill-rule:nonzero;stroke:none;stroke-width:.0352778" transform="translate(67.659 64.523)scale(.40881)"/><path d="M81.022 107.927c-8.495 0-16.862-.843-24.955-2.518-5.497-1.136-10.744-2.548-15.59-4.191-5.275-1.82-10.296-3.923-14.922-6.245C21.271 92.828 10.38 85.23 8.23 83.72c-.89-3.034-6.057-21.27-4.21-28.681.247-.988.542-1.894.866-2.716l.295.148c.05.564.142 1.146.29 1.739 1.216 4.907 5.683 9.017 13.277 12.21l1.43.723c.488.243.976.49 1.48.748 4.032 1.982 8.27 3.88 12.6 5.648 9.151 3.721 17.684 6.434 26.083 8.297 8.603 1.93 17.692 3.055 27.026 3.337q1.598.033 3.22.035c7.247 0 14.875-.54 23.185-1.633 1.815 5.186 3.149 11.187 4.073 18.299.061.476-.214.938-.641 1.076-9.803 3.16-19.802 4.17-29.131 4.783q-3.538.192-7.051.194m14.328-6.04q-.132 0-.28.036c-1.193.314-.843 2.1.239 2.1q.132 0 .28-.036c1.193-.314.843-2.1-.239-2.1m-34.188-.553q-.132 0-.28.039c-1.194.314-.844 2.099.238 2.099.089 0 .182-.01.28-.039 1.194-.314.844-2.099-.238-2.099m13.153-.155a1 1 0 0 0-.28.039c-1.193.314-.843 2.099.239 2.099q.132.002.28-.04c1.193-.31.843-2.098-.239-2.098m8.077-1.203q-.132-.001-.28.035c-1.193.314-.843 2.103.238 2.103q.133 0 .28-.04c1.194-.313.844-2.098-.238-2.098m7.58-.342q-.132.001-.28.038c-1.193.314-.843 2.1.238 2.1a1 1 0 0 0 .28-.04c1.194-.31.844-2.098-.238-2.098m21.98-1.92q-.132 0-.279.036c-1.194.314-.844 2.099.238 2.099q.132.001.28-.036c1.193-.313.843-2.099-.239-2.099m-62.42-.105q-.133.001-.28.038c-1.194.314-.844 2.1.238 2.1q.132.002.279-.04c1.195-.31.844-2.098-.237-2.098m58.73-.392q-.132-.001-.279.035c-1.194.314-.844 2.103.238 2.103q.132 0 .279-.039c1.194-.314.844-2.099-.238-2.099m-7.05-1.813q-.133-.001-.28.035c-1.193.314-.843 2.103.238 2.103q.133-.001.28-.04c1.193-.313.844-2.098-.238-2.098m-66.947-.381a1 1 0 0 0-.28.039c-1.193.31-.844 2.099.238 2.099q.132-.001.28-.04c1.193-.313.844-2.098-.238-2.098m33.633-.95q-.132 0-.28.036c-1.194.314-.843 2.1.238 2.1q.132 0 .28-.036c1.193-.314.844-2.1-.238-2.1m12.183-1.185q-.133.001-.28.04c-1.194.313-.844 2.098.237 2.098q.133.001.28-.035c1.194-.314.844-2.103-.237-2.103m-34.189-.55q-.132-.001-.28.035c-1.193.314-.843 2.103.239 2.103q.132 0 .28-.039c1.193-.314.843-2.099-.239-2.099m51.313-.829a1 1 0 0 0-.28.039c-1.194.314-.843 2.099.238 2.099.088 0 .182-.01.28-.039 1.194-.31.844-2.099-.238-2.099m-8.308-1.848a1 1 0 0 0-.279.038c-1.194.31-.844 2.1.238 2.1q.132-.001.28-.04c1.193-.313.843-2.098-.239-2.098m-29.45-.149q-.135 0-.28.04c-1.194.313-.845 2.098.237 2.098.089 0 .182-.01.28-.039 1.193-.31.843-2.099-.238-2.099m-24.424 0a1 1 0 0 0-.28.04c-1.193.31-.843 2.098.239 2.098q.132 0 .279-.039c1.194-.314.844-2.099-.238-2.099m75.866-.31q-.133-.001-.28.035c-1.193.314-.843 2.103.238 2.103q.133 0 .28-.039c1.193-.314.843-2.1-.238-2.1m-86.936-1.18q-.132 0-.279.038c-1.194.314-.844 2.099.238 2.099q.132.001.28-.035c1.193-.314.843-2.103-.239-2.103m47.758-.077q-.133.001-.28.038c-1.194.314-.844 2.1.238 2.1q.132.002.28-.04c1.193-.31.843-2.098-.238-2.098m30.072-.932q-.132 0-.28.039c-1.193.314-.843 2.099.238 2.099.089 0 .182-.01.28-.039 1.193-.31.843-2.099-.238-2.099M43.753 85.94a1 1 0 0 0-.279.039c-1.194.314-.845 2.099.237 2.099q.133.002.28-.04c1.194-.31.844-2.098-.238-2.098m8.191-2.882a1.2 1.2 0 0 0-.28.038c-1.193.314-.844 2.1.238 2.1q.133.002.28-.04c1.193-.31.844-2.098-.238-2.098m-21.704-.53q-.133-.001-.28.036c-1.194.314-.844 2.099.238 2.099q.133.001.28-.036c1.193-.314.844-2.099-.238-2.099m7.808-3.7q-.133 0-.28.039c-1.193.314-.844 2.099.238 2.099a1 1 0 0 0 .28-.04c1.194-.31.844-2.098-.238-2.098m-20.949-.364q-.132 0-.28.04c-1.193.313-.843 2.098.238 2.098q.133.001.28-.035c1.194-.314.844-2.103-.238-2.103m7.187-2.617a1 1 0 0 0-.28.039c-1.193.314-.843 2.099.239 2.099q.133.002.28-.04c1.193-.313.843-2.098-.239-2.098m-14.42-1.344a1 1 0 0 0-.28.038c-1.193.314-.843 2.1.238 2.1q.133.002.28-.04c1.194-.313.844-2.098-.238-2.098m2.884-6.985q-.133.001-.28.038c-1.193.314-.843 2.1.238 2.1a1 1 0 0 0 .28-.04c1.193-.31.844-2.098-.238-2.098" style="fill:#ddab2e;fill-opacity:1;fill-rule:nonzero;stroke:none;stroke-width:.0352778" transform="translate(67.659 64.523)scale(.40881)"/><path d="M81.022 110.552q-3.475-.002-6.916-.183a146 146 0 0 1-3.058-.202 123 123 0 0 1-15.513-2.187c-2.238-.462-4.436-.97-6.585-1.52q-2.716-.694-5.317-1.478a119 119 0 0 1-4.006-1.28c-5.392-1.86-10.52-4.008-15.248-6.38-4.916-2.462-17.502-11.34-18.036-11.718l-.367-.258-.131-.434C5.575 84.03-.71 63.16 1.472 54.404q.273-1.09.608-2.064.226-.658.475-1.266 1.127.635 2.33 1.249a22 22 0 0 0-.865 2.716c-1.847 7.412 3.32 25.647 4.21 28.68 2.15 1.51 13.04 9.11 17.325 11.254 4.626 2.322 9.647 4.424 14.923 6.245 4.845 1.643 10.092 3.055 15.589 4.19 8.093 1.676 16.46 2.52 24.955 2.52 2.342 0 4.692-.068 7.05-.195 9.33-.614 19.33-1.622 29.132-4.783.427-.138.702-.6.64-1.076-.923-7.112-2.257-13.113-4.072-18.299-8.31 1.094-15.938 1.633-23.186 1.633q-1.62-.002-3.219-.035c-9.334-.282-18.423-1.407-27.026-3.337-8.399-1.863-16.932-4.576-26.084-8.297a200 200 0 0 1-12.6-5.648 130 130 0 0 0-1.48-.748q-.716-.365-1.43-.723c-7.593-3.193-12.06-7.303-13.277-12.21a11 11 0 0 1-.289-1.74q1.407.71 2.912 1.387c1.08 3.817 4.794 7.137 11.05 9.874q.327.143.665.286l.087.039 1.464.74.148.075 1.325.67a197 197 0 0 0 12.416 5.567c6.98 2.836 13.59 5.08 20.053 6.798q1.695.449 3.377.85a133 133 0 0 0 7.68 1.616q1.607.29 3.235.543c5.797.903 11.769 1.45 17.844 1.634q1.547.03 3.118.031c7.438 0 15.3-.571 23.917-1.746l1.043-.141.365.988c2.066 5.595 3.56 12.09 4.568 19.854.226 1.74-.8 3.387-2.438 3.912q-.09.032-.18.06c-6.437 2.057-12.921 3.214-19.244 3.944-3.514.406-6.978.681-10.356.904q-2.015.111-4.022.158-1.477.036-2.949.04z" style="fill:#503428;fill-opacity:1;fill-rule:nonzero;stroke:none;stroke-width:.0352778" transform="translate(67.659 64.523)scale(.40881)"/><path d="M102.858 167.744q-.591 0-1.181-.01c-5.567-.113-10.862-.536-15.742-1.253-4.802-.688-9.781-1.718-15.218-3.143a152 152 0 0 1-14.639-4.688 161 161 0 0 1-14.024-5.98c-4.336-2.06-15.57-8.47-17.737-9.793-1.272-2.95-4.787-23.407-4.153-26.455.537-.356 1.269-.751 2.14-1.171l-.024.05c-.77 1.643 1.1 3.474 3.824 5.88l.492.438 1.744 1.22 3.146 1.62c1.43.733 2.907 1.432 4.335 2.11.606.288 1.213.574 1.833.87a237 237 0 0 0 12.575 5.409c4.993 1.936 9.055 3.386 12.787 4.561a202 202 0 0 0 12.925 3.56c9.602 2.155 18.062 3.21 25.856 3.231q.432.005.863.004c3.292 0 6.561-.141 9.731-.282l1.969-.085c2.03-.116 3.873-.293 5.655-.466 1.57-.151 3.185-.307 4.95-.423l5.045 19.16c-4.35 2.271-7.685 3.09-12.47 4.12a72.6 72.6 0 0 1-14.682 1.517m2.814-3.366q-.132 0-.28.04c-1.193.313-.843 2.098.238 2.098.089 0 .182-.01.28-.039 1.194-.31.844-2.099-.238-2.099m-13.207-1.478q-.132-.001-.279.035c-1.194.314-.844 2.103.238 2.103q.132 0 .28-.039c1.193-.314.843-2.099-.239-2.099m6.658-.466a1 1 0 0 0-.28.04c-1.193.31-.843 2.098.238 2.098q.133-.001.28-.038c1.194-.314.844-2.1-.238-2.1m18.387-.613q-.133.001-.28.038c-1.193.314-.843 2.1.238 2.1q.133 0 .28-.036c1.193-.314.843-2.102-.238-2.102m9.204-1.683q-.132 0-.28.039c-1.193.314-.843 2.099.239 2.099q.132.001.28-.036c1.193-.314.843-2.102-.239-2.102M82.6 159.81q-.132 0-.28.04c-1.193.313-.843 2.098.239 2.098q.132.001.279-.035c1.194-.314.844-2.103-.238-2.103m28.697-.02q-.133 0-.28.038c-1.194.314-.844 2.099.238 2.099.088 0 .182-.01.28-.039 1.193-.31.844-2.099-.238-2.099m-14.13-1.601q-.132-.001-.279.035c-1.194.314-.844 2.102.237 2.102q.134-.001.28-.038c1.194-.314.844-2.1-.237-2.1m-7.208-.306q-.133-.001-.28.035c-1.194.314-.843 2.103.238 2.103q.132-.001.28-.04c1.193-.313.843-2.098-.238-2.098m32.376-.988a1 1 0 0 0-.28.039c-1.193.314-.844 2.099.238 2.099.089 0 .182-.01.28-.04 1.194-.313.844-2.098-.238-2.098m-15.332-.004q-.133-.001-.28.035c-1.194.314-.844 2.1.238 2.1q.132 0 .279-.036c1.194-.314.844-2.1-.237-2.1m9.965-.786q-.133 0-.28.039c-1.194.314-.844 2.1.238 2.1q.132 0 .28-.036c1.193-.314.843-2.103-.238-2.103m-44.413-.797q-.132-.001-.28.035c-1.193.314-.843 2.103.239 2.103q.132 0 .28-.039c1.193-.314.843-2.1-.239-2.1m38.662-.803q-.133-.001-.28.035c-1.193.314-.844 2.099.238 2.099q.132.001.28-.035c1.193-.314.844-2.1-.238-2.1m-29.997-.186q-.132-.001-.28.035c-1.193.314-.843 2.099.239 2.099q.132.001.279-.035c1.194-.314.844-2.1-.238-2.1m-19.869-1.746q-.133 0-.28.036c-1.193.314-.844 2.102.238 2.102q.133 0 .28-.039c1.194-.314.844-2.099-.238-2.099m33.93-.48a1 1 0 0 0-.28.04c-1.194.31-.844 2.098.238 2.098q.133-.001.28-.038c1.193-.314.843-2.1-.238-2.1m7.532-1.245q-.132 0-.28.04c-1.194.313-.844 2.098.238 2.098q.132.001.28-.035c1.193-.314.844-2.103-.238-2.103m-34.48-.293q-.132.001-.28.04c-1.193.313-.843 2.098.239 2.098q.131.001.279-.035c1.193-.314.844-2.103-.238-2.103m18.764-.525q-.132-.001-.279.035c-1.194.314-.844 2.1.238 2.1q.132 0 .279-.036c1.194-.314.844-2.1-.238-2.1m35.818-.06q-.132-.002-.28.04c-1.193.31-.843 2.099.238 2.099q.133 0 .28-.04c1.194-.313.844-2.098-.238-2.098m-5.999-1.171q-.132-.001-.279.035c-1.194.314-.844 2.099.238 2.099q.132.001.28-.035c1.193-.314.843-2.1-.239-2.1m-63.013-1.047a1 1 0 0 0-.28.04c-1.194.31-.844 2.098.238 2.098q.133 0 .28-.039c1.193-.314.843-2.099-.238-2.099m7.455-.127q-.131.001-.279.04c-1.194.313-.844 2.098.238 2.098q.133.001.28-.035c1.193-.314.843-2.103-.239-2.103m46.16-.755q-.13 0-.278.036c-1.194.314-.845 2.099.237 2.099q.133.002.28-.036c1.194-.314.843-2.099-.238-2.099m-15.672-.652q-.133 0-.28.039c-1.194.314-.844 2.099.238 2.099q.132 0 .279-.036c1.194-.314.844-2.102-.237-2.102m-17.097-.639q-.132-.001-.28.036c-1.194.314-.843 2.099.238 2.099q.132 0 .28-.036c1.194-.314.844-2.099-.238-2.099m23.5-.123q-.13-.001-.278.035c-1.195.314-.845 2.103.237 2.103q.132 0 .28-.04c1.193-.313.844-2.098-.238-2.098m-32.23-1.983a1 1 0 0 0-.279.039c-1.194.31-.844 2.099.238 2.099q.132 0 .28-.039c1.193-.314.843-2.099-.239-2.099m16.38-.085q-.133 0-.28.036c-1.193.314-.843 2.099.238 2.099q.133.001.28-.035c1.194-.314.844-2.1-.238-2.1m-36.416-1.619q-.133 0-.28.04c-1.193.313-.843 2.098.238 2.098q.133.001.28-.035c1.194-.314.843-2.103-.238-2.103m-4.817-.017q-.133.001-.28.038c-1.194.314-.844 2.1.237 2.1q.133 0 .28-.036c1.194-.314.844-2.102-.237-2.102m19.18-1.002a1 1 0 0 0-.28.039c-1.194.31-.845 2.099.237 2.099q.133-.001.28-.04c1.194-.313.844-2.098-.238-2.098m-28.993-.452q-.133 0-.28.039c-1.193.314-.843 2.099.238 2.099a1 1 0 0 0 .28-.039c1.194-.31.844-2.099-.238-2.099m19.882-2.47q-.132-.002-.28.04c-1.193.314-.844 2.099.238 2.099q.133-.001.28-.04c1.193-.313.844-2.098-.238-2.098m-25.27-1.246q-.132.001-.279.04c-1.195.313-.844 2.098.237 2.098q.133.001.28-.035c1.194-.314.844-2.103-.238-2.103m11.853-.363q-.133 0-.28.039c-1.193.314-.843 2.099.238 2.099q.133.001.28-.035c1.194-.314.844-2.103-.238-2.103m3.2-3.588q-.131 0-.279.04c-1.193.313-.843 2.098.238 2.098q.133.001.28-.035c1.194-.314.844-2.103-.238-2.103m-9.765-.55q-.132 0-.28.039c-1.193.314-.844 2.099.238 2.099.089 0 .182-.01.28-.04 1.193-.31.844-2.098-.238-2.098m-8.873-4.812q-.133-.001-.28.035c-1.193.314-.843 2.1.239 2.1q.132 0 .279-.036c1.194-.314.844-2.099-.238-2.099m6.983-2.018q-.133 0-.28.039c-1.194.314-.844 2.099.237 2.099q.133.001.28-.035c1.194-.314.844-2.103-.237-2.103m-4.337-3.073q-.132 0-.28.036c-1.194.314-.843 2.102.238 2.102q.133 0 .28-.039c1.193-.313.844-2.099-.238-2.099" style="fill:#ddab2e;fill-opacity:1;fill-rule:nonzero;stroke:none;stroke-width:.0352778" transform="translate(67.659 64.523)scale(.40881)"/><path d="M102.874 170.369q-.623 0-1.247-.01a155 155 0 0 1-6.367-.268 121 121 0 0 1-9.702-1.01c-4.897-.702-9.973-1.75-15.511-3.203a155 155 0 0 1-14.888-4.77 162 162 0 0 1-14.24-6.07c-4.594-2.184-16.173-8.806-18.111-10.006-.671-.31-.966-1.125-1.373-2.617-.3-1.09-.66-2.639-1.043-4.477-.914-4.392-1.815-9.708-2.352-13.878-1.1-8.548-.336-9.102.34-9.592 1.727-1.26 5.467-2.844 9.3-4.283 5.395-2.028 10.972-3.768 11.366-3.888l.803 2.452.014.043c-6.358 2.194-13.66 5.538-15.045 7.366.482.811 2.368 2.476 3.024 3.058q.252.218.45.399l1.468 1.012 2.923 1.493c1.396.72 2.853 1.407 4.262 2.077q.917.434 1.832.872a232 232 0 0 0 7.494 3.32 266 266 0 0 0 4.918 2.014c4.929 1.912 8.939 3.344 12.61 4.501a199 199 0 0 0 12.734 3.507c3.01.677 5.905 1.242 8.7 1.697 1.027.169 2.04.32 3.041.462 4.316.596 8.392.928 12.292.995q.626.01 1.246.01.446.005.892.004.665-.001 1.33-.007c2.78-.031 5.546-.155 8.242-.271l1.954-.085c1.96-.113 3.696-.279 5.533-.459 1.91-.183 3.883-.374 6.127-.494l1.067-.056 6.117 23.223-.898.494c-4.37 2.406-7.774 3.443-11.921 4.392-.7.163-1.422.321-2.173.484l-.45.088a75 75 0 0 1-14.758 1.481m-80.57-55.118c-.871.42-1.603.815-2.14 1.171-.634 3.048 2.881 23.506 4.153 26.455 2.167 1.323 13.401 7.733 17.737 9.793a161 161 0 0 0 14.024 5.98 152 152 0 0 0 14.639 4.688c5.437 1.425 10.416 2.456 15.218 3.143 4.88.717 10.175 1.14 15.742 1.253q.59.01 1.18.01c4.87 0 9.807-.508 14.683-1.517 4.785-1.03 8.12-1.848 12.47-4.12l-5.046-19.16a160 160 0 0 0-4.949.424c-1.782.173-3.624.35-5.655.466l-1.969.084c-3.17.141-6.439.283-9.73.283q-.432.001-.864-.004c-7.794-.022-16.254-1.076-25.856-3.232a202 202 0 0 1-12.925-3.56c-3.732-1.174-7.794-2.624-12.787-4.56a237 237 0 0 1-12.575-5.409c-.62-.296-1.227-.582-1.833-.871-1.428-.678-2.904-1.376-4.335-2.11l-3.146-1.62-1.744-1.22q-.212-.186-.492-.437c-2.725-2.406-4.594-4.237-3.824-5.881z" style="fill:#503428;fill-opacity:1;fill-rule:nonzero;stroke:none;stroke-width:.0352778" transform="translate(67.659 64.523)scale(.40881)"/><path d="M65.98 145.604c-1.082 0-1.432-1.789-.238-2.099a1 1 0 0 1 .28-.039c1.081 0 1.431 1.785.237 2.1q-.145.037-.28.038m6.535 11.839c-1.082 0-1.432-1.788-.238-2.102q.147-.037.28-.036c1.08 0 1.431 1.785.237 2.1a1.2 1.2 0 0 1-.28.038m10.045 4.505c-1.082 0-1.432-1.785-.238-2.099q.147-.037.28-.039c1.08 0 1.43 1.789.237 2.103q-.146.036-.28.035M22.34 129.397c-1.081 0-1.431-1.785-.237-2.099q.145-.036.28-.035c1.081 0 1.43 1.785.237 2.1q-.146.035-.28.034m8.873 4.816c-1.082 0-1.431-1.785-.238-2.1q.148-.037.28-.038c1.082 0 1.431 1.789.238 2.099a1 1 0 0 1-.28.039m-1.891-6.83c-1.081 0-1.43-1.785-.237-2.099q.147-.038.28-.039c1.081 0 1.43 1.789.237 2.103q-.147.035-.28.035m-4.336-3.073c-1.081 0-1.432-1.788-.237-2.102q.145-.036.279-.035c1.082 0 1.431 1.785.237 2.099q-.145.037-.279.038m.938 14.404c-1.081 0-1.432-1.785-.237-2.099q.146-.038.28-.039c1.081 0 1.431 1.789.237 2.103a1 1 0 0 1-.28.035m15.201 5.168c-1.081 0-1.431-1.785-.237-2.099q.147-.037.28-.038c1.081 0 1.43 1.788.237 2.102a1 1 0 0 1-.28.035m-.147-9.119c-1.081 0-1.431-1.785-.238-2.099q.147-.038.28-.039c1.082 0 1.432 1.789.238 2.103q-.147.036-.28.035m-9.666 7.666c-1.081 0-1.431-1.785-.237-2.099q.146-.038.279-.039c1.082 0 1.432 1.789.238 2.1a1 1 0 0 1-.28.038m6.465-4.079c-1.081 0-1.431-1.784-.237-2.098q.145-.038.279-.039c1.082 0 1.432 1.789.237 2.103q-.145.036-.279.035m16.083 11.532c-1.081 0-1.43-1.788-.237-2.099a1 1 0 0 1 .28-.039c1.081 0 1.431 1.785.237 2.1a1.2 1.2 0 0 1-.28.038m-2.666-9.923c-1.082 0-1.431-1.785-.238-2.1q.148-.04.28-.038c1.082 0 1.431 1.785.238 2.099a1.2 1.2 0 0 1-.28.039m-5.251 3.94c-1.081 0-1.431-1.785-.237-2.099q.145-.038.279-.039c1.081 0 1.432 1.789.238 2.103a1 1 0 0 1-.28.035m14.362-1.02c-1.082 0-1.431-1.788-.237-2.098a1 1 0 0 1 .28-.04c1.08 0 1.43 1.786.236 2.1q-.146.038-.279.039m7.987 9.807c-1.082 0-1.432-1.785-.239-2.1q.148-.037.28-.038c1.082 0 1.431 1.789.238 2.103q-.147.035-.28.035m-6.974-2.932c-1.082 0-1.432-1.785-.238-2.099q.147-.038.28-.039c1.081 0 1.431 1.789.237 2.103a1 1 0 0 1-.28.035m-.006 4.95c-1.083 0-1.432-1.789-.238-2.103q.145-.036.28-.035c1.08 0 1.43 1.785.237 2.099q-.147.038-.28.039m19.87 1.742c-1.082 0-1.432-1.785-.238-2.099q.146-.035.28-.035c1.08 0 1.43 1.785.237 2.1q-.146.035-.28.034m1.182-10.932c-1.082 0-1.432-1.785-.238-2.1q.145-.035.279-.034c1.082 0 1.432 1.785.238 2.099q-.147.035-.28.035m-7.651 2.191c-1.081 0-1.432-1.785-.237-2.1a1 1 0 0 1 .279-.035c1.082 0 1.432 1.785.237 2.1q-.145.036-.279.035m15.222-45.936c-1.081 0-1.43-1.785-.237-2.099q.147-.037.28-.038c1.08 0 1.43 1.788.237 2.099a1 1 0 0 1-.28.038m-1.074-9.973c-1.082 0-1.432-1.788-.238-2.099a1 1 0 0 1 .28-.038c1.081 0 1.43 1.785.237 2.099q-.146.037-.28.038m-6.505 10.316c-1.081 0-1.431-1.789-.238-2.103a1 1 0 0 1 .28-.035c1.082 0 1.432 1.785.238 2.099a1.2 1.2 0 0 1-.28.039m14.813-8.467c-1.081 0-1.432-1.785-.237-2.1q.146-.04.279-.038c1.082 0 1.432 1.789.237 2.1a1 1 0 0 1-.279.038m4.007 3.895c-1.081 0-1.431-1.789-.238-2.103q.147-.036.28-.035c1.082 0 1.431 1.785.238 2.099q-.147.037-.28.039m7.05 1.813c-1.08 0-1.43-1.789-.237-2.103q.147-.035.28-.035c1.081 0 1.431 1.785.237 2.1q-.147.037-.28.038m2.626-8.015c-1.081 0-1.431-1.789-.238-2.103q.147-.036.28-.035c1.081 0 1.431 1.785.238 2.099q-.147.038-.28.039m-15.537 12.682c-1.082 0-1.432-1.785-.238-2.099q.145-.036.279-.035c1.082 0 1.432 1.785.238 2.099a1 1 0 0 1-.28.035m6.432-14.873c-1.081 0-1.431-1.785-.237-2.099q.146-.038.28-.039c1.08 0 1.43 1.789.237 2.1a1 1 0 0 1-.28.038m10.17 10.7c-1.08 0-1.43-1.785-.237-2.1q.146-.035.28-.035c1.081 0 1.431 1.786.237 2.1q-.145.035-.28.035M24.245 77.984c-1.082 0-1.432-1.785-.238-2.1.098-.028.19-.038.28-.038 1.081 0 1.431 1.785.237 2.099a1 1 0 0 1-.28.039m5.954 6.678c-1.082 0-1.432-1.785-.238-2.1q.147-.035.28-.035c1.082 0 1.431 1.785.237 2.1q-.145.035-.279.035m7.808-3.697c-1.082 0-1.431-1.785-.237-2.1q.146-.037.279-.038c1.082 0 1.432 1.788.238 2.099a1 1 0 0 1-.28.039m-20.949-.364c-1.081 0-1.43-1.785-.237-2.099q.146-.038.28-.039c1.08 0 1.43 1.789.237 2.103a1 1 0 0 1-.28.035m-4.349-10.946c-1.081 0-1.431-1.786-.237-2.1q.145-.037.279-.038c1.082 0 1.431 1.788.238 2.099a1 1 0 0 1-.28.039M9.824 76.64c-1.081 0-1.431-1.786-.237-2.1a1 1 0 0 1 .28-.038c1.08 0 1.43 1.785.237 2.099a1 1 0 0 1-.28.038M23.91 90.158c-1.081 0-1.43-1.785-.237-2.1q.147-.037.28-.038c1.081 0 1.431 1.789.237 2.103q-.146.036-.28.035m10.313 7.002c-1.082 0-1.431-1.788-.237-2.098a1 1 0 0 1 .28-.04c1.08 0 1.43 1.786.237 2.1a1.2 1.2 0 0 1-.28.039m9.488-9.084c-1.082 0-1.431-1.785-.237-2.1a1 1 0 0 1 .28-.038c1.08 0 1.43 1.788.237 2.099a1 1 0 0 1-.28.039M34.98 91.65c-1.081 0-1.431-1.788-.237-2.099a1 1 0 0 1 .28-.039c1.081 0 1.431 1.785.237 2.1a1.2 1.2 0 0 1-.28.038m10.87 2.826c-1.081 0-1.431-1.789-.237-2.103q.146-.035.28-.035c1.08 0 1.43 1.785.237 2.1q-.146.037-.28.038m3.64 5.27c-1.082 0-1.432-1.785-.238-2.099q.147-.037.28-.038c1.081 0 1.432 1.788.237 2.099a1 1 0 0 1-.279.038m9.914-8.096c-1.082 0-1.431-1.785-.237-2.099q.145-.038.28-.039c1.08 0 1.43 1.789.236 2.1a1 1 0 0 1-.279.038m-7.502-6.456c-1.082 0-1.431-1.785-.238-2.099a1.2 1.2 0 0 1 .28-.038c1.082 0 1.431 1.788.238 2.099a1 1 0 0 1-.28.038m9.218 18.278c-1.082 0-1.432-1.785-.237-2.1q.146-.037.28-.038c1.08 0 1.43 1.785.236 2.099a1 1 0 0 1-.279.039m18.918-8.446c-1.081 0-1.43-1.785-.237-2.099q.147-.038.28-.039c1.081 0 1.431 1.789.237 2.103a1 1 0 0 1-.28.035m-8.37-4.946c-1.082 0-1.432-1.785-.238-2.099q.147-.038.28-.039c1.081 0 1.43 1.79.237 2.1a1 1 0 0 1-.28.038m-3.811 6.128c-1.081 0-1.432-1.785-.237-2.099q.146-.036.28-.035c1.08 0 1.43 1.785.237 2.099a1 1 0 0 1-.28.035m6.418 7.109c-1.082 0-1.432-1.785-.238-2.1a1 1 0 0 1 .28-.038c1.08 0 1.43 1.788.237 2.099a1 1 0 0 1-.28.039m12.783 48.842c-1.082 0-1.432-1.785-.238-2.1q.146-.036.28-.035c1.08 0 1.431 1.785.237 2.1q-.146.036-.28.035m8.184 2.067c-1.082 0-1.432-1.789-.238-2.1a1 1 0 0 1 .28-.038c1.081 0 1.431 1.785.237 2.1q-.145.037-.28.038m15.937 2.409c-1.082 0-1.431-1.785-.237-2.099q.145-.036.279-.035c1.082 0 1.431 1.785.238 2.1a1 1 0 0 1-.28.034m5.7-5.708c-1.082 0-1.432-1.785-.238-2.099q.146-.035.28-.035c1.081 0 1.431 1.785.237 2.1q-.146.035-.28.034m-14.103 2.053c-1.082 0-1.432-1.784-.238-2.098q.147-.039.28-.04c1.082 0 1.431 1.79.238 2.103a1 1 0 0 1-.28.036m4.706-3.983c-1.082 0-1.431-1.785-.237-2.1q.145-.036.279-.035c1.081 0 1.432 1.785.238 2.1a1 1 0 0 1-.28.035m-15.672-.649c-1.082 0-1.432-1.785-.238-2.1q.147-.037.28-.038c1.081 0 1.431 1.788.237 2.102a1 1 0 0 1-.28.036m6.405-.762c-1.082 0-1.432-1.789-.237-2.103q.145-.036.279-.035c1.082 0 1.431 1.785.237 2.099q-.145.038-.28.039m24.085 11.443c-1.082 0-1.431-1.784-.237-2.098a1 1 0 0 1 .28-.04c1.08 0 1.43 1.786.236 2.1a1 1 0 0 1-.279.039m.58-6.929c-1.081 0-1.43-1.788-.237-2.099q.146-.04.279-.039c1.082 0 1.432 1.785.238 2.1a1.2 1.2 0 0 1-.28.038m-5.947 6.138c-1.082 0-1.432-1.785-.238-2.098q.147-.039.28-.04c1.08 0 1.43 1.79.237 2.103a1 1 0 0 1-.28.036m9.748 4.035c-1.082 0-1.432-1.785-.238-2.099q.146-.037.28-.039c1.081 0 1.43 1.79.237 2.103a1 1 0 0 1-.28.035m-9.204 1.684c-1.081 0-1.431-1.786-.238-2.1q.147-.038.28-.039c1.081 0 1.431 1.789.238 2.103q-.147.035-.28.035m-6.214-2.032c-1.082 0-1.432-1.785-.238-2.099q.147-.038.28-.039c1.082 0 1.431 1.789.237 2.1a1 1 0 0 1-.28.038m-5.623 4.59c-1.081 0-1.431-1.785-.237-2.1q.145-.037.279-.038c1.082 0 1.432 1.788.238 2.099a1 1 0 0 1-.28.039m1.33-7.493c-1.081 0-1.43-1.785-.237-2.1q.147-.036.28-.035c1.081 0 1.43 1.785.237 2.1a1 1 0 0 1-.28.035m-9.836 1.301c-1.081 0-1.43-1.788-.237-2.102q.147-.036.28-.035c1.081 0 1.431 1.785.237 2.099a1.2 1.2 0 0 1-.28.038m-7.207-.306c-1.081 0-1.432-1.79-.238-2.103q.147-.036.28-.035c1.081 0 1.431 1.785.237 2.099q-.145.038-.279.039m9.164 4.554c-1.081 0-1.431-1.789-.237-2.1a1 1 0 0 1 .279-.038c1.082 0 1.432 1.785.238 2.1q-.147.037-.28.038m-6.657.466c-1.082 0-1.432-1.789-.238-2.103q.146-.036.28-.035c1.081 0 1.43 1.785.237 2.099q-.146.037-.28.039" style="fill:#dca96b;fill-opacity:1;fill-rule:nonzero;stroke:none;stroke-width:.0352778" transform="translate(67.659 64.523)scale(.40881)"/><path d="M81.512 66.353a157 157 0 0 1-1.8-.011q.898.006 1.8.007 1.369.001 2.723-.014c-.902.018-1.812.018-2.723.018" style="fill:#895433;fill-opacity:1;fill-rule:nonzero;stroke:none;stroke-width:.0352778" transform="translate(67.659 64.523)scale(.40881)"/><path d="M24.636 181.704c.842.896 4.11 4.029 11.327 7.26 7.886 3.528 22.22 7.895 45.714 8.647 40.68 1.298 53.593-13.699 55.206-15.815 3.667-42.715 14.825-87.803 27.185-134.105-5.59 5.404-14.517 9.951-26.258 13.328-15.153 4.356-34.62 6.66-56.298 6.66-20.68 0-41.06-2.427-57.386-6.833C10.51 57.17.273 52.344-5.944 46.716l.693 2.403c12.356 42.813 24.029 83.263 29.887 132.585m61.895 18.644q-2.4 0-4.939-.078c-46.38-1.485-58.768-16.534-59.272-17.173l-.233-.296-.044-.374c-5.816-49.294-17.49-89.743-29.85-132.57q-1.156-4.004-2.316-8.03l-2.295-7.972 4.673 6.854c4.726 6.936 16.29 13.173 32.565 17.568 16.106 4.347 36.24 6.742 56.692 6.742 43.05 0 75.353-9.056 84.302-23.636l4.792-7.807-2.374 8.848c-12.988 48.4-24.957 95.528-28.73 139.96l-.028.332-.18.282c-.129.195-3.232 4.876-11.985 9.331-7.354 3.743-20.252 8.02-40.778 8.02" style="fill:#211d1d;fill-opacity:1;fill-rule:nonzero;stroke:none;stroke-width:.0352778" transform="translate(67.659 64.523)scale(.40881)"/><path d="M124.26 182.42c-7.892 4.223-21.118 8.34-42.275 7.645-20.838-.685-34.195-4.438-42.43-8.128-6.908-3.094-11.715-9.465-13.12-16.902-2.513-13.307-6.982-25.633-12.33-37.437 3.779 17.332 6.98 35.352 9.26 54.674 0 0 11.975 15.187 58.27 16.669 44.797 1.432 56.542-16.67 56.542-16.67 1.116-13.147 2.942-26.493 5.317-40.138-3.283 8.364-5.968 16.594-7.673 24.677-1.403 6.653-5.567 12.403-11.56 15.61" style="fill:#fde8d5;fill-opacity:1;fill-rule:nonzero;stroke:none;stroke-width:.0352778" transform="translate(67.659 64.523)scale(.40881)"/><path d="M24.637 181.704c.841.896 4.108 4.029 11.326 7.26 7.886 3.528 22.22 7.895 45.714 8.647 22.693.726 36.556-3.698 44.192-7.536 7.102-3.57 10.264-7.302 11.014-8.283.696-8.1 1.666-16.418 2.938-25.15a126 126 0 0 0-2.699 10.443c-1.506 7.136-5.965 13.155-12.235 16.51-7.404 3.958-20.866 8.526-42.946 7.8-17.567-.579-32.01-3.352-42.93-8.241-7.187-3.221-12.377-9.903-13.883-17.872-1.501-7.948-3.743-15.871-6.897-24.289 2.698 13.847 4.81 27.273 6.406 40.71m61.894 18.644q-2.399.002-4.939-.081c-46.38-1.482-58.767-16.531-59.272-17.17l-.232-.296-.045-.37c-2.107-17.865-5.13-35.709-9.238-54.547l-2.68-12.287 5.191 11.454c6.198 13.674 10.146 25.665 12.426 37.737 1.345 7.116 5.964 13.074 12.356 15.935 10.454 4.685 24.953 7.454 41.93 8.012 21.494.709 34.488-3.68 41.605-7.486 5.575-2.985 9.543-8.347 10.886-14.711 1.59-7.535 4.12-15.678 7.737-24.889l4.803-12.237-2.254 12.95c-2.501 14.365-4.235 27.457-5.302 40.023l-.029.331-.181.283c-.128.194-3.231 4.875-11.984 9.33-7.354 3.743-20.252 8.02-40.778 8.02m-7.612-215c-24.99 0-48.466 3.517-66.104 9.906-17 6.16-26.748 14.524-26.748 22.948s9.749 16.789 26.748 22.945c17.638 6.388 41.114 9.91 66.104 9.91s48.466-3.522 66.104-9.91c17-6.156 26.749-14.52 26.749-22.945 0-8.424-9.75-16.789-26.75-22.948-17.637-6.39-41.114-9.906-66.103-9.906m0 68.146c-25.266 0-49.037-3.57-66.935-10.05-18.286-6.626-28.357-15.59-28.357-25.242S-6.303-.414 11.984-7.04c17.898-6.48 41.67-10.055 66.935-10.055s49.037 3.574 66.935 10.055C164.14-.414 174.21 8.55 174.21 18.2c0 9.653-10.07 18.617-28.357 25.242-17.898 6.48-41.67 10.05-66.935 10.05" style="fill:#211d1d;fill-opacity:1;fill-rule:nonzero;stroke:none;stroke-width:.0352778" transform="translate(67.659 64.523)scale(.40881)"/><path d="M20.752 17.006c-1.573 2.47-4.467 8.128-4.067 11.049 0 0 9.347 7.387 21.603 10.703 10.31 2.787 21.726 1.838 24.151.745 0 0 1.607-9.727.809-18.796 0 0-10.231 2.942-19.917.215-9.328-2.628-14.634-11.564-15.2-11.854-1.152-.582-5.918 5.641-7.379 7.938" style="fill:#e6da3f;fill-opacity:1;fill-rule:nonzero;stroke:none;stroke-width:.0352778" transform="translate(67.659 64.523)scale(.40881)"/><path d="M17.87 27.416c1.946 1.443 10.325 7.345 20.737 10.16 9.526 2.576 19.699 1.835 22.731 1.013.32-2.237 1.217-9.363.796-16.344-3.23.716-11.289 2.067-19.135-.145-8.054-2.268-13.163-8.893-15.086-11.388l-.188-.243c-1.327 1.009-4.4 4.773-5.94 7.193-1.643 2.582-3.896 7.27-3.915 9.754m35.19 14.408c-4.562 0-10.007-.508-15.092-1.884-12.356-3.34-21.653-10.615-22.043-10.922l-.387-.307-.067-.49c-.578-4.23 4.2-11.797 4.248-11.875.772-1.213 2.363-3.383 3.909-5.186 2.504-2.92 3.875-3.781 5.057-3.182.348.177.554.445 1.167 1.239 1.788 2.317 6.538 8.477 13.811 10.526 9.221 2.597 19.147-.186 19.247-.211l1.427-.41.13 1.479c.803 9.12-.753 18.697-.82 19.103l-.107.645-.598.268c-1.498.678-5.231 1.207-9.882 1.207" style="fill:#211d1d;fill-opacity:1;fill-rule:nonzero;stroke:none;stroke-width:.0352778" transform="translate(67.659 64.523)scale(.40881)"/><path d="M24.788 25.677c-1.29.339-.776 2.403.518 2.064 1.291-.339.776-2.402-.518-2.064m6.022-1.58c-1.291.338-.776 2.402.517 2.064 1.292-.34.777-2.403-.517-2.064m-3.216-10.693c-1.292.339-.777 2.402.517 2.06 1.291-.338.776-2.399-.517-2.06m-3.769 6.301c-1.291.338-.776 2.402.518 2.06 1.291-.339.776-2.403-.518-2.06m28.261 9.616c-1.291.34-.776 2.403.517 2.06 1.292-.338.777-2.402-.517-2.06m3.209 3.553c-1.292.339-.777 2.402.517 2.064 1.291-.339.776-2.403-.517-2.064m1.852-4.699c-1.291.339-.776 2.402.517 2.064 1.292-.339.777-2.403-.517-2.064m-17.309 4.911c-1.292.338-.777 2.398.517 2.06 1.291-.339.777-2.403-.517-2.06m8.087.257c-1.291.339-.776 2.402.517 2.064 1.291-.342.777-2.403-.517-2.064m-1.551-6.188c-1.292.339-.777 2.403.517 2.064 1.291-.339.776-2.402-.517-2.064m-5.191.632c-1.291.338-.776 2.402.518 2.06 1.291-.339.776-2.399-.518-2.06m-6.267-3.669c-1.292.342-.777 2.402.517 2.064 1.291-.339.777-2.403-.517-2.064m-1.178 5.256c-1.292.339-.777 2.403.517 2.06 1.291-.338.776-2.398-.517-2.06m-5.855-10.551c-1.291.338-.777 2.402.517 2.06 1.291-.339.777-2.399-.517-2.06" style="fill:#e3daac;fill-opacity:1;fill-rule:nonzero;stroke:none;stroke-width:.0352778" transform="translate(67.659 64.523)scale(.40881)"/><path d="M117.417 24.22c.524.177-.1.663-.679.554-3.46-.663-16.875-.296-23.385 3.676 3.948.72 13.963 1.94 22.14-.138.348-.091.68.142.449.314-1.773 1.334-4.853 4.026-5.358 6.936a22 22 0 0 0-.042 7.098c.03.18.405.25.616.12 2.164-1.337 9.144-6.763 12.458-11.331.068-.096.31-.053.28.05-.655 2.274-1.46 8.099 5.72 11.94a.58.58 0 0 0 .49.004c1.275-.667 6.696-4.16 1.711-13.398-.08-.152.137-.3.4-.261 2.379.314 11.539 1.188 20.614-2.558.22-.088.193-.286-.051-.356-1.884-.537-8.818-2.184-19.81-1.083-.385.035-.594-.254-.27-.381 2.825-1.098 8.7-3.655 11.59-6.876.156-.176-.178-.367-.482-.275-2.502.737-9.488 2.843-14.788 4.854-.611.233-1.359-.162-1.004-.533 2.269-2.363 5.908-7.006 5.294-11.941-.022-.177-.393-.261-.612-.141-2.295 1.26-11.04 6.34-11.31 10.869-.02.345-.809.465-1.145.176-2.682-2.296-9.05-7.108-16.619-8.407-.322-.056-.596.149-.41.31 2.095 1.814 6.49 8.136 14.203 10.778" style="fill:#9b5f20;fill-opacity:1;fill-rule:nonzero;stroke:none;stroke-width:.0352778" transform="translate(67.659 64.523)scale(.40881)"/><path d="M123.753 30.408c.179 0 .36.042.529.123.466.23.702.748.56 1.239-.735 2.557-1.048 7.316 5.019 10.682.679-.399 2.14-1.46 2.75-3.454.702-2.29.143-5.143-1.66-8.488a1.11 1.11 0 0 1 .064-1.167c.275-.4.798-.607 1.333-.537 2.26.3 9.71.985 17.616-1.573-3.243-.61-9-1.26-16.896-.47-.71.071-1.335-.317-1.482-.93-.136-.565.175-1.115.756-1.345 1.804-.702 5.541-2.275 8.498-4.31-3.266 1.005-7.772 2.448-11.47 3.852-.825.314-1.801.06-2.223-.575-.327-.494-.263-1.122.158-1.563 1.959-2.04 5.07-5.934 5.089-10.097-4.679 2.674-9.844 6.633-10.022 9.624-.028.49-.342.907-.837 1.115-.53.226-1.36.243-1.932-.247-2.132-1.824-7.441-5.93-13.871-7.68 2.361 2.547 6.277 6.717 12.004 8.678.722.25.961.9.824 1.415-.215.811-1.212 1.192-2.007 1.04-2.78-.532-13.08-.384-19.896 2.213 4.336.543 11.98 1.086 18.593-.597.684-.172 1.375.106 1.644.667.232.483.084 1.055-.36 1.39-1.343 1.013-4.517 3.651-4.98 6.318a21.2 21.2 0 0 0-.18 5.726c2.642-1.824 8.528-6.565 11.444-10.587.216-.296.57-.462.935-.462m6.11 14.076a1.54 1.54 0 0 1-.711-.173c-5.467-2.928-6.677-6.936-6.659-9.941-3.68 4.064-8.947 8.092-10.817 9.246a1.53 1.53 0 0 1-1.41.081 1.17 1.17 0 0 1-.696-.875 23.1 23.1 0 0 1 .043-7.43c.365-2.102 1.872-4.053 3.404-5.556-8.628 1.457-17.909-.063-19.84-.416l-2.544-.462 2.207-1.348c5.41-3.302 15.027-4.176 20.598-4.074-4.266-2.325-7.27-5.56-9.23-7.673-.654-.706-1.22-1.316-1.638-1.676a1.12 1.12 0 0 1-.295-1.33c.246-.518.869-.808 1.515-.695 7.35 1.26 13.514 5.627 16.736 8.326 1.06-4.572 8.435-9.067 11.698-10.859a1.56 1.56 0 0 1 1.414-.014c.364.187.601.515.65.896.541 4.354-1.914 8.428-4.12 11.123 5.011-1.82 10.901-3.598 13.36-4.325.622-.183 1.301.04 1.613.533.269.427.22.967-.119 1.344-1.902 2.124-4.964 3.944-7.758 5.306 8.634-.36 14.139.96 15.786 1.432.526.148.885.568.914 1.07.028.493-.27.941-.757 1.146-8.095 3.337-16.213 3.104-19.858 2.762 1.521 3.277 1.907 6.191 1.146 8.671-.885 2.89-3.045 4.28-3.932 4.741-.214.113-.457.17-.7.17" style="fill:#211d1d;fill-opacity:1;fill-rule:nonzero;stroke:none;stroke-width:.0352778" transform="translate(67.659 64.523)scale(.40881)"/><path d="M128.233 29.082c-1.934 1.118-5.079 1.11-7.025-.011-1.945-1.125-1.955-2.939-.022-4.057 1.934-1.115 5.079-1.111 7.025.014 1.946 1.122 1.956 2.939.022 4.054" style="fill:#71331d;fill-opacity:1;fill-rule:nonzero;stroke:none;stroke-width:.0352778" transform="translate(67.659 64.523)scale(.40881)"/><path d="M124.678 25.166c-1.095 0-2.187.233-3 .702-.604.349-.95.772-.95 1.164 0 .395.354.829.973 1.185 1.643.95 4.408.953 6.04.014.604-.349.95-.772.95-1.164 0-.398-.354-.829-.973-1.185-.825-.476-1.934-.716-3.04-.716m.063 5.736c-1.446 0-2.895-.325-4.025-.977-1.245-.72-1.959-1.775-1.959-2.893 0-1.129.688-2.149 1.937-2.872 2.24-1.29 5.758-1.287 8.01.014 1.244.72 1.958 1.771 1.958 2.893 0 1.13-.688 2.149-1.937 2.868-1.115.646-2.549.967-3.984.967" style="fill:#211d1d;fill-opacity:1;fill-rule:nonzero;stroke:none;stroke-width:.0352778" transform="translate(67.659 64.523)scale(.40881)"/><path d="M93.905 9.026c-.09 3.45-1.163 6.131-4.453 7.049-3.29.92-6.632-.741-7.464-3.715-.83-2.974 1.163-6.128 4.453-7.049 3.291-.92 5.87 1.016 7.464 3.715" style="fill:#9b5f20;fill-opacity:1;fill-rule:nonzero;stroke:none;stroke-width:.0352778" transform="translate(67.659 64.523)scale(.40881)"/><path d="M88.078 5.865c-.448 0-.923.064-1.425.205-1.403.391-2.582 1.249-3.32 2.416-.72 1.14-.929 2.442-.587 3.662.713 2.55 3.627 3.972 6.494 3.172 2.534-.71 3.734-2.59 3.871-6.086-.875-1.414-2.537-3.369-5.033-3.369m-.45 11.25c-2.965 0-5.624-1.781-6.397-4.543-.463-1.655-.188-3.405.773-4.925.946-1.496 2.446-2.597 4.226-3.094 3.242-.907 6.288.578 8.352 4.074l.114.194-.005.226c-.112 4.325-1.756 6.872-5.028 7.786a7.6 7.6 0 0 1-2.035.282" style="fill:#211d1d;fill-opacity:1;fill-rule:nonzero;stroke:none;stroke-width:.0352778" transform="translate(67.659 64.523)scale(.40881)"/><path d="M88.727 1.265c-.553-.699-8.95 8.876-8.95 8.876-8.824 4.205-7.887 3.718-9.888 5.073-1.55 1.048-1.793 3.355-.346 4.54.373.307.826.519 1.377.565 2.48.194 10.707-4.763 10.707-4.763s5.682 2.381 9.734 3.535c.601.173.997-.61.51-1.002-1.754-1.408-4.165-3.52-5.325-5.316.348-.307.638-.568.7-.628.124-.124 2.479-2.138 3.858-3.316.317-.269.062-.727-.374-.674l-3.967.483c1.26-2.473 3.272-5.722 1.964-7.373" style="fill:#71331d;fill-opacity:1;fill-rule:nonzero;stroke:none;stroke-width:.0352778" transform="translate(67.659 64.523)scale(.40881)"/><path d="M88.32 2.359c-1.41 1.15-4.899 4.864-7.93 8.318l-.11.127-2.374 1.133c-5.846 2.783-5.846 2.783-7.14 3.665l-.42.29a2.17 2.17 0 0 0-.946 1.696c-.016.36.048 1.034.66 1.535.279.229.581.352.924.38 1.608.128 7.128-2.783 10.222-4.645l.355-.212.381.159c.051.02 4.67 1.95 8.48 3.15-1.665-1.4-3.546-3.168-4.562-4.738l-.38-.589.525-.466c.33-.293.607-.54.671-.6.036-.035.135-.133 2.826-2.437l-4.163.508.697-1.369q.233-.454.491-.942c.848-1.612 1.962-3.725 1.792-4.963M71.048 21.137q-.1.002-.193-.007a3.23 3.23 0 0 1-1.83-.744c-.85-.695-1.308-1.743-1.257-2.872a3.83 3.83 0 0 1 1.662-2.978l.415-.282c1.398-.956 1.398-.956 7.359-3.792l2.069-.988C87.264.376 88.28.408 88.665.411a.92.92 0 0 1 .702.346c1.393 1.76.117 4.438-1.162 6.883l2.426-.297c.576-.07 1.109.223 1.331.73.21.477.078 1.03-.327 1.376a451 451 0 0 0-3.822 3.285c-.023.02-.066.063-.179.162.962 1.256 2.617 2.847 4.748 4.558.524.42.674 1.129.366 1.725-.307.593-.97.882-1.61.699-3.494-.999-8.092-2.854-9.444-3.408-1.94 1.15-8.08 4.667-10.645 4.667" style="fill:#211d1d;fill-opacity:1;fill-rule:nonzero;stroke:none;stroke-width:.0352778" transform="translate(67.659 64.523)scale(.40881)"/><path d="M72.966 16.364c.834 1.298.567 2.956-.597 3.708-1.163.747-2.783.3-3.618-.995-.834-1.298-.567-2.957.596-3.708 1.164-.748 2.784-.3 3.619.995" style="fill:#83482f;fill-opacity:1;fill-rule:nonzero;stroke:none;stroke-width:.0352778" transform="translate(67.659 64.523)scale(.40881)"/><path d="M70.602 15.824a1.5 1.5 0 0 0-.813.233c-.365.236-.608.62-.683 1.09-.081.501.037 1.03.332 1.485a2.13 2.13 0 0 0 1.215.921c.457.127.91.067 1.275-.17.365-.236.608-.62.683-1.09.08-.5-.037-1.03-.332-1.488-.404-.625-1.055-.98-1.677-.98m.52 5.426q-.448.002-.901-.124a3.75 3.75 0 0 1-2.156-1.608 3.76 3.76 0 0 1-.571-2.628c.15-.935.651-1.715 1.412-2.205 1.54-.992 3.669-.434 4.746 1.238a3.76 3.76 0 0 1 .57 2.632c-.15.931-.65 1.71-1.411 2.201a3.1 3.1 0 0 1-1.69.494" style="fill:#211d1d;fill-opacity:1;fill-rule:nonzero;stroke:none;stroke-width:.0352778" transform="translate(67.659 64.523)scale(.40881)"/><path d="m78.524 33.036 2.861 4.4c.142.215.478.366.883.39l8.898.594c1.042.07 1.307.85.41 1.206l-7.898 3.15c-.16.064-.293.149-.387.247l-3.302 3.415c-.462.476-1.627.501-2.04.039l-3.408-3.803c-.126-.141-.339-.243-.6-.296l-6.836-1.348c-.953-.19-.965-.963-.02-1.231l6.268-1.785c.313-.088.55-.247.65-.438l2.326-4.423c.328-.625 1.814-.702 2.195-.117" style="fill:#71331d;fill-opacity:1;fill-rule:nonzero;stroke:none;stroke-width:.0352778" transform="translate(67.659 64.523)scale(.40881)"/><path d="M82.07 36.987h.003zm-14.043 3.39 6.072 1.2c.44.088.803.279 1.05.554l3.408 3.803c.148.106.71.074.845-.064l3.302-3.415a2 2 0 0 1 .672-.437l7.09-2.826-8.252-.55c-.675-.043-1.226-.321-1.513-.762l-2.84-4.364c-.171-.099-.669-.074-.825.046l-2.31 4.392c-.206.395-.615.695-1.15.847zm10.884 7.25-.054-.003c-.64-.011-1.178-.226-1.515-.6l-3.41-3.803c.005.007-.049-.025-.149-.042l-6.836-1.348c-.984-.194-1.357-.822-1.379-1.344-.022-.53.307-1.193 1.294-1.475l6.268-1.781a.6.6 0 0 0 .171-.074l2.306-4.385c.292-.554.954-.907 1.773-.946.806-.039 1.491.247 1.828.766l2.836 4.357a.7.7 0 0 0 .278.067l8.898.589c.924.063 1.591.554 1.701 1.252.08.508-.152 1.175-1.042 1.528l-7.899 3.15c-.075.032-.104.056-.104.056l-3.3 3.415c-.378.388-.998.618-1.665.621" style="fill:#211d1d;fill-opacity:1;fill-rule:nonzero;stroke:none;stroke-width:.0352778" transform="translate(67.659 64.523)scale(.40881)"/><path d="M84.09 41.887c-2.67 1.46-7.128 1.26-9.753-.257-2.626-1.514-1.47-4.604 1.138-6.11 2.609-1.507 5.011-2.152 7.637-.635s3.671 5.528.978 7.002" style="fill:#9b5f20;fill-opacity:1;fill-rule:nonzero;stroke:none;stroke-width:.0352778" transform="translate(67.659 64.523)scale(.40881)"/><path d="M80.066 34.864c-1.227 0-2.56.458-4.17 1.386-1.317.762-2.202 1.983-2.202 3.04 0 .66.358 1.204 1.064 1.613 2.431 1.404 6.603 1.517 8.928.244.928-.508 1.13-1.345 1.138-1.958.015-1.348-.882-2.854-2.133-3.574-.862-.497-1.714-.751-2.625-.751m-.486 8.865c-2.024 0-4.093-.462-5.664-1.369-1.23-.709-1.906-1.8-1.906-3.07 0-1.664 1.195-3.432 3.044-4.497 2.369-1.369 5.228-2.515 8.479-.639 1.773 1.024 2.997 3.101 2.975 5.052-.017 1.503-.732 2.717-2.013 3.419-1.348.737-3.114 1.104-4.915 1.104" style="fill:#211d1d;fill-opacity:1;fill-rule:nonzero;stroke:none;stroke-width:.0352778" transform="translate(67.659 64.523)scale(.40881)"/></svg>