<svg xmlns="http://www.w3.org/2000/svg" xml:space="preserve" width="200mm" height="200mm" viewBox="0 0 200 200"><path d="M-124.76 226.108c-3.347 0-6.584-.494-9.705-.812-3.384-.342-6.652-.54-9.667-1.206-3.417-.759-6.63-1.57-9.422-2.681-3.445-1.373-6.184-3.359-8.408-5.154-3.125-2.526-4.922-5.3-4.922-8.358 0-3.055 1.83-5.782 4.957-8.308 2.223-1.795 4.968-3.718 8.414-5.09a61 61 0 0 1 9.36-2.904c3.013-.666 6.28-1.009 9.663-1.35a98 98 0 0 1 4.062-.325 13 13 0 0 1-.081 1.213c-.542 4.682-2.741 9.278-4.056 12.023-.686 1.436-.992 2.088-1.028 2.526-.034.448.167.913.598 1.386 1.41 1.545 5.238 3.14 10.615 3.221h.242c5.052 0 8.118-2.205 9.503-3.531.673-.635.726-1.708.12-2.445-1.431-1.725-2.688-5.168-3.636-9.948a37 37 0 0 1-.586-4.375c1.251.092 2.484.208 3.697.328 3.384.346 6.587.97 9.588 1.704 6.52 1.595 2.486.526 9.331 2.794 3.514 1.164 6.333 2.935 8.557 4.731 3.124 2.526 4.835 5.295 4.835 8.35 0 3.059-1.654 5.906-4.779 8.432-2.223 1.795-5.146 3.34-8.591 4.713-2.792 1.115-5.89 2.212-9.307 2.97-3.014.667-6.233 1.309-9.616 1.651-3.122.314-6.392.445-9.739.445" style="fill:#fcfefe;fill-opacity:1;fill-rule:nonzero;stroke:none;stroke-width:.0352778" transform="translate(179.594 45.55)scale(.64417)"/><path d="M-124.76 190.474a96 96 0 0 0-9.657.493c-3.057.307-6.52.66-9.58 1.337a60 60 0 0 0-9.248 2.869c-3.648 1.453-6.442 3.538-8.227 4.98-3.154 2.548-4.688 5.08-4.688 7.744 0 2.678 1.566 5.299 4.653 7.793 2.01 1.626 4.76 3.665 8.222 5.045 2.905 1.157 6.336 1.986 9.31 2.646 2.324.515 4.799.744 7.418.987.715.067 1.437.134 2.164.209q1.159.117 2.34.257c2.365.268 4.812.547 7.292.547 3.572 0 6.733-.141 9.666-.441 3.478-.35 6.77-1.023 9.532-1.637 3.659-.811 6.836-1.993 9.195-2.932 3.593-1.432 6.342-2.938 8.405-4.607 2.994-2.416 4.51-5.062 4.51-7.867 0-2.755-1.495-5.302-4.566-7.786-2.57-2.077-5.372-3.626-8.33-4.607-2.314-.765-3.401-1.157-4.05-1.39-1.001-.36-1.001-.36-3.16-.885-.54-.13-1.212-.293-2.065-.501-3.407-.833-6.51-1.387-9.489-1.686-2.607-.265-6.06-.568-9.648-.568m0 36.357c-2.563 0-5.052-.282-7.459-.558-.78-.091-1.553-.18-2.32-.257q-1.084-.105-2.151-.205c-2.667-.247-5.186-.48-7.599-1.016-3.03-.67-6.532-1.517-9.533-2.713-3.642-1.453-6.507-3.577-8.595-5.263-3.445-2.783-5.192-5.786-5.192-8.922 0-3.129 1.71-6.029 5.226-8.872 1.858-1.5 4.77-3.673 8.602-5.197a61.5 61.5 0 0 1 9.47-2.938c3.142-.699 6.651-1.051 9.748-1.365a98 98 0 0 1 9.802-.501c3.653 0 7.153.307 9.794.575 3.046.307 6.214.871 9.686 1.721.852.208 1.524.37 2.063.501 2.193.533 2.235.54 3.31.928.642.233 1.718.617 4.015 1.38 3.124 1.036 6.08 2.67 8.785 4.857 3.388 2.734 5.102 5.733 5.102 8.911 0 3.263-1.697 6.29-5.046 8.996-2.178 1.76-5.05 3.337-8.78 4.823-3.579 1.425-6.483 2.353-9.417 3.002-2.803.62-6.148 1.305-9.7 1.665-2.982.303-6.191.448-9.812.448" style="fill:#211d1d;fill-opacity:1;fill-rule:nonzero;stroke:none;stroke-width:.0352778" transform="translate(179.594 45.55)scale(.64417)"/><path d="M-114.421 123.897c-3.629 5.345-5.336 11.335-5.301 17.382l.154 46.037a38.5 38.5 0 0 0 .706 7.186c.676 3.412 1.873 7.962 3.788 10.273.356.43.344 1.076-.059 1.457-1.269 1.217-4.257 3.4-9.237 3.33-6.877-.098-10.59-2.677-10.5-3.824.089-1.09 4.292-7.711 5.08-14.52.066-.579.095-1.154.09-1.736l-.279-48.64c-.036-5.818-1.933-11.494-5.075-15.78l-5.763-8.922c3.818 4.476 9.628 7.08 15.415 7.08h.243c6.232-.07 13.55-3.768 17.422-8.996z" style="fill:#e6f6f4;fill-opacity:1;fill-rule:nonzero;stroke:none;stroke-width:.0352778" transform="translate(179.594 45.55)scale(.64417)"/><path d="M-134.144 205.78c.195.73 3.41 2.967 9.785 3.06 4.672.07 7.475-1.934 8.725-3.13.12-.113.12-.332 0-.476-1.604-1.933-2.93-5.497-3.939-10.59a39.3 39.3 0 0 1-.72-7.324l-.154-46.038a31.24 31.24 0 0 1 5.426-17.794l.004-.004 2.746-3.972c-3.863 2.677-8.604 4.385-12.88 4.43h-.25c-4.24 0-8.426-1.33-11.9-3.693l2.844 4.4c3.271 4.472 5.167 10.37 5.203 16.185l.279 48.644c.006.603-.026 1.217-.094 1.82-.57 4.925-2.835 9.656-4.188 12.482-.406.85-.826 1.725-.887 2m10.006 4.509h-.242c-5.376-.081-9.205-1.676-10.615-3.221-.431-.473-.632-.939-.597-1.387.035-.437.34-1.09 1.028-2.526 1.314-2.744 3.513-7.34 4.055-12.022.061-.54.09-1.094.084-1.644l-.278-48.645c-.034-5.524-1.833-11.123-4.935-15.356l-.025-.035-5.762-8.919 1.16-.864c3.646 4.272 9.202 6.826 14.864 6.826h.243c6.069-.067 13.155-3.729 16.84-8.703l1.177.843-6.683 9.67a29.8 29.8 0 0 0-5.173 16.969l.154 46.04c.012 2.385.245 4.76.692 7.05.948 4.78 2.205 8.222 3.635 9.948.607.737.554 1.81-.119 2.444-1.385 1.327-4.451 3.532-9.503 3.532" style="fill:#211d1d;fill-opacity:1;fill-rule:nonzero;stroke:none;stroke-width:.0352778" transform="translate(179.594 45.55)scale(.64417)"/><path d="M-174.813 64.415c.067-19.487 39.51-24.204 51.34-24.154 12.645.053 49.55 4.963 49.55 24.204l.642 1.534-8.968 11.716s-25.271 9.924-42.54 8.414c-17.267-1.51-39.648-6.184-42.761-10.21-3.113-4.025-7.263-11.504-7.263-11.504" style="fill:#e2994c;fill-opacity:1;fill-rule:nonzero;stroke:none;stroke-width:.0352778" transform="translate(179.594 45.55)scale(.64417)"/><path d="M-174.087 64.232c.63 1.122 4.322 7.638 7.11 11.243 2.912 3.768 25.104 8.431 42.252 9.93 16.126 1.412 39.689-7.397 42.024-8.29l8.59-11.225-.536-1.28v-.145c0-9.945-10.625-15.61-19.54-18.613-11.264-3.792-23.71-4.843-29.29-4.868h-.172c-5.24 0-17.93.977-29.686 4.717-9.39 2.988-20.578 8.621-20.752 18.531m53.116 22.779c-1.326 0-2.622-.05-3.88-.162-15.414-1.344-39.693-5.857-43.272-10.485-3.111-4.025-7.153-11.289-7.324-11.596l-.092-.166.001-.187c.03-8.628 7.555-15.575 21.764-20.094 12.06-3.834 25.088-4.805 30.304-4.783 5.666.02 18.306 1.09 29.745 4.942C-80.372 48.978-73.28 55.832-73.2 64.317l.751 1.788-9.345 12.213-.19.075c-.964.377-22.164 8.618-38.987 8.618" style="fill:#211d1d;fill-opacity:1;fill-rule:nonzero;stroke:none;stroke-width:.0352778" transform="translate(179.594 45.55)scale(.64417)"/><path d="m-81.438 77.105-26.319 37.073c-3.753 5.2-10.856 8.84-17.402 8.908h-.243c-6.86 0-13.269-3.373-17.01-8.971L-167.93 75.46l.13-.07c12.902 8.12 36.463 10.636 45.161 10.738 8.733.102 28.85-2.582 41.166-9.133z" style="fill:#ce5e1d;fill-opacity:1;fill-rule:nonzero;stroke:none;stroke-width:.0352778" transform="translate(179.594 45.55)scale(.64417)"/><path d="m-165.785 77.394 23.978 36.322c3.618 5.412 9.752 8.647 16.405 8.647h.243c6.286-.067 13.203-3.606 16.814-8.608l24.79-34.925c-12.243 5.637-30.164 8.139-39.092 8.022-7.063-.081-29.215-2.032-43.138-9.458m40.383 46.419c-7.138 0-13.722-3.475-17.612-9.296l-25.96-39.324 1.206-.639.354.223c13.343 8.4 37.406 10.54 44.784 10.625 8.119.103 28.428-2.459 40.815-9.049l.762-.405.416 1.28-26.53 37.37c-3.866 5.355-11.26 9.144-17.984 9.215z" style="fill:#211d1d;fill-opacity:1;fill-rule:nonzero;stroke:none;stroke-width:.0352778" transform="translate(179.594 45.55)scale(.64417)"/><path d="M-123.5 31.794c-4.333 0-8.757.208-13.15.617-4.16.385-8.876.826-13.051 1.676-3.789.77-7.72 2.244-11.189 3.546q-1.07.404-2.052.765c-4.427 1.62-7.504 3.224-10.619 5.539-4.335 3.217-6.442 6.42-6.442 9.79 0 3.386 2.151 6.699 6.395 9.849 2.744 2.039 6.502 4.6 11.24 6.336 3.968 1.45 8.644 2.49 12.696 3.316 3.176.645 6.548.935 10.117 1.238a318 318 0 0 1 5.032.459c3.924.377 8.372.808 12.168.808 4.435 0 7.693-.152 12.02-.554 4.74-.441 9.225-1.28 12.986-2.05 1.21-.247 2.507-.487 3.76-.72 3.62-.67 7.364-1.365 10.116-2.374 3.676-1.344 6.092-3.224 8.428-5.045.56-.437 1.14-.885 1.725-1.322 4.113-3.052 6.202-6.4 6.202-9.942 0-3.44-2.114-6.752-6.276-9.842-2.854-2.12-6.703-4.071-11.444-5.807-3.665-1.34-7.895-2.505-12.574-3.46-3.661-.745-8.218-1.673-12.947-2.114-3.552-.328-8.254-.709-13.14-.709m1.145 45.388c-3.866 0-8.35-.433-12.308-.814-.722-.071-1.421-.138-2.088-.202-.983-.091-1.96-.172-2.927-.257-3.612-.307-7.025-.596-10.283-1.26-4.105-.84-8.848-1.894-12.905-3.38-4.913-1.795-8.783-4.433-11.607-6.529-4.63-3.44-6.98-7.144-6.98-11.014 0-3.86 2.3-7.443 7.028-10.953 3.235-2.403 6.418-4.064 10.985-5.737.65-.236 1.333-.494 2.041-.758 3.52-1.323 7.508-2.819 11.408-3.613 4.253-.864 9.01-1.308 13.207-1.696a144 144 0 0 1 13.285-.625c4.946 0 9.691.385 13.274.716 4.808.448 9.407 1.383 13.103 2.138 4.749.967 9.05 2.152 12.781 3.517 4.872 1.782 8.844 3.803 11.811 6.005 4.55 3.38 6.861 7.083 6.861 11.006 0 4.029-2.286 7.765-6.787 11.106-.571.427-1.143.871-1.697 1.301-2.423 1.888-4.932 3.839-8.823 5.264-2.864 1.048-6.67 1.757-10.348 2.438-1.305.243-2.537.472-3.735.716-3.8.772-8.333 1.626-13.142 2.07-4.376.41-7.67.561-12.154.561" style="fill:#211d1d;fill-opacity:1;fill-rule:nonzero;stroke:none;stroke-width:.0352778" transform="translate(179.594 45.55)scale(.64417)"/><path d="m-140.327 93.125-22.628-37.095.988-1.535 23.419 38.439z" style="fill:#e6f6f4;fill-opacity:1;fill-rule:nonzero;stroke:none;stroke-width:.0352778" transform="translate(179.594 45.55)scale(.64417)"/><path d="m-162.1 56.04 22.153 36.315.186-.017-22.223-36.477zm21.394 37.856-23.105-37.878 1.861-2.889 24.615 40.404z" style="fill:#211d1d;fill-opacity:1;fill-rule:nonzero;stroke:none;stroke-width:.0352778" transform="translate(179.594 45.55)scale(.64417)"/><path d="M-125.592 96.455c.503 1.944 1.089 5.552-1.789 8.35-2.877 2.794-8.398 7.415-15.557-.653-3.009-3.39-3.539-7.874-.953-11.077 3.441-4.265 6.634-6.124 10.904-4.082 5.081 2.431 6.896 5.54 7.395 7.462" style="fill:#a82025;fill-opacity:1;fill-rule:nonzero;stroke:none;stroke-width:.0352778" transform="translate(179.594 45.55)scale(.64417)"/><path d="M-136.319 88.866c-2.301 0-4.455 1.482-7.016 4.657-2.302 2.85-1.928 6.932.931 10.157 2.443 2.751 4.888 4.194 7.269 4.282 2.954.11 5.327-1.795 7.257-3.669 1.924-1.87 2.446-4.374 1.595-7.658-.324-1.253-1.657-4.438-7.012-7-1.061-.507-2.056-.769-3.024-.769m1.423 20.529q-.145-.001-.293-.007c-2.785-.103-5.571-1.704-8.283-4.763-3.338-3.76-3.73-8.583-.974-11.998 2.85-3.535 6.478-6.805 11.767-4.279 5.896 2.822 7.404 6.484 7.778 7.927.977 3.771.31 6.812-1.982 9.042-1.965 1.908-4.638 4.078-8.013 4.078" style="fill:#211d1d;fill-opacity:1;fill-rule:nonzero;stroke:none;stroke-width:.0352778" transform="translate(179.594 45.55)scale(.64417)"/><path d="M-131.331 98.494q-.215 0-.451-.043c-.754-.144-1.417-.635-1.971-1.46-.555-.83-.751-1.672-.584-2.515.289-1.45 1.578-2.322 1.632-2.357a.57.57 0 1 1 .634.949c-.207.141-1.986 1.422-.734 3.284.378.565.794.893 1.237.978.514.095.923-.166.928-.17a.57.57 0 0 1 .794.148.57.57 0 0 1-.146.794 2.5 2.5 0 0 1-1.34.392" style="fill:#211d1d;fill-opacity:1;fill-rule:nonzero;stroke:none;stroke-width:.0352778" transform="translate(179.594 45.55)scale(.64417)"/><path d="M-131.75 95.922a.71.71 0 0 1-.679-.494.717.717 0 0 1 .46-.9c.107-.031 10.664-3.548 15.167-13.846a.715.715 0 0 1 .94-.37.717.717 0 0 1 .368.942c-4.768 10.9-15.579 14.488-16.037 14.636a.8.8 0 0 1-.218.032" style="fill:#211d1d;fill-opacity:1;fill-rule:nonzero;stroke:none;stroke-width:.0352778" transform="translate(179.594 45.55)scale(.64417)"/><path d="M-132.051 107.913a1 1 0 0 1 .054-1.069c.281-.388.746-.776 1.393-.487 1.135.508 6.355 11.684 5.526 11.98-.69.247-6.137-8.914-6.973-10.424" style="fill:#e6f6f4;fill-opacity:1;fill-rule:nonzero;stroke:none;stroke-width:.0352778" transform="translate(179.594 45.55)scale(.64417)"/><path d="M-131.417 107.56c.804 1.454 3.156 5.355 4.85 7.878-1.277-3.13-3.616-7.814-4.368-8.435-.103-.039-.242-.057-.476.264a.27.27 0 0 0-.006.293m6.248 11.54c-.512 0-1.274-.702-3.953-4.929-1.53-2.41-3.108-5.087-3.563-5.909a1.73 1.73 0 0 1 .102-1.845c.596-.822 1.447-1.093 2.275-.72 1.494.667 6.107 10.778 6.042 12.468-.023.614-.44.811-.568.853a1 1 0 0 1-.335.082" style="fill:#211d1d;fill-opacity:1;fill-rule:nonzero;stroke:none;stroke-width:.0352778" transform="translate(179.594 45.55)scale(.64417)"/><path d="M-125.158 122.363h-.244c-6.653 0-12.787-3.235-16.405-8.647l-23.978-36.322c5.511 2.939 12.314 5.02 18.959 6.467l4.133 6.776a27 27 0 0 0-1.753 1.99c-2.756 3.415-2.364 8.237.974 11.998 2.712 3.059 5.498 4.66 8.283 4.763q.148.007.293.007a8.1 8.1 0 0 0 2.607-.438 169 169 0 0 0 3.167 5.214c2.679 4.226 3.441 4.928 3.953 4.928a1 1 0 0 0 .335-.08c.128-.043.545-.24.568-.854.052-1.337-2.826-7.948-4.77-10.979a23 23 0 0 0 2.153-1.87c2.292-2.23 2.96-5.27 1.982-9.041-.163-.628-.543-1.683-1.41-2.907 2.348-1.443 5.122-3.577 7.506-6.6 9.583-.49 24.576-3.024 35.25-7.938l-24.79 34.925c-3.61 5.002-10.528 8.54-16.813 8.608" style="fill:#d47323;fill-opacity:1;fill-rule:nonzero;stroke:none;stroke-width:.0352778" transform="translate(179.594 45.55)scale(.64417)"/><path d="M-125.158 123.086h-.244c-6.86 0-13.269-3.373-17.01-8.971L-167.93 75.46l.13-.07c5.528 3.478 13.01 5.93 20.443 7.602l.53.868c-6.644-1.447-13.447-3.528-18.958-6.467l23.978 36.322c3.618 5.412 9.752 8.647 16.405 8.647h.243c6.286-.067 13.203-3.606 16.814-8.608l24.79-34.925c-10.674 4.914-25.667 7.447-35.25 7.937q.296-.376.585-.769c9.94-.62 26.203-3.393 36.747-9.002l.035.109-26.319 37.073c-3.753 5.2-10.856 8.84-17.401 8.908" style="fill:#544135;fill-opacity:1;fill-rule:nonzero;stroke:none;stroke-width:.0352778" transform="translate(179.594 45.55)scale(.64417)"/><path d="M-127.236 92.225c-1.171-1.284-2.898-2.66-5.443-3.877-1.307-.625-2.513-.896-3.63-.896-1.472 0-2.791.473-3.988 1.22l-2.43-3.99c8.594 1.574 16.393 2.128 20.08 2.17q.296.005.606.004.622 0 1.293-.014c-2.122 2.409-4.482 4.162-6.488 5.383" style="fill:#d47323;fill-opacity:1;fill-rule:nonzero;stroke:none;stroke-width:.0352778" transform="translate(179.594 45.55)scale(.64417)"/><path d="M-122.041 86.856q-.31.001-.606-.004c-3.687-.042-11.486-.596-20.08-2.17l-.511-.839c8.438 1.598 16.319 2.233 20.599 2.286l.496.003q.942 0 2.03-.042-.314.386-.635.752-.672.014-1.293.014" style="fill:#544135;fill-opacity:1;fill-rule:nonzero;stroke:none;stroke-width:.0352778" transform="translate(179.594 45.55)scale(.64417)"/><path d="m-141.609 89.632-3.793-6.22q.118.028.235.05l3.692 6.06z" style="fill:#e3e0cd;fill-opacity:1;fill-rule:nonzero;stroke:none;stroke-width:.0352778" transform="translate(179.594 45.55)scale(.64417)"/><path d="m-142.693 90.637-4.133-6.776-.531-.868q.979.217 1.955.42l3.793 6.219a17 17 0 0 0-1.084 1.005m1.218-1.114-3.692-6.061q.968.201 1.929.38l.51.84 2.431 3.99q-.61.383-1.178.85" style="fill:#544135;fill-opacity:1;fill-rule:nonzero;stroke:none;stroke-width:.0352778" transform="translate(179.594 45.55)scale(.64417)"/><path d="M-134.892 107.966q-.12-.002-.243-.004c-2.38-.088-4.826-1.531-7.269-4.283-2.859-3.224-3.233-7.306-.931-10.156 2.562-3.175 4.715-4.657 7.016-4.657.968 0 1.963.261 3.024.77 2.214 1.06 3.74 2.225 4.793 3.315-2.008 1.094-3.428 1.567-3.467 1.577a.717.717 0 0 0-.46.9.71.71 0 0 0 .68.494q.109 0 .218-.032c.171-.057 1.783-.59 3.984-1.803.785 1.076 1.122 1.997 1.264 2.547.85 3.285.329 5.79-1.595 7.659a22 22 0 0 1-2.004 1.75c-.16-.173-.304-.293-.426-.346a1.8 1.8 0 0 0-.733-.166c-.576 0-1.122.307-1.542.886-.261.36-.365.804-.305 1.238a6.7 6.7 0 0 1-2.004.31m2.503-15.942a.6.6 0 0 0-.316.096c-.054.035-1.343.906-1.632 2.356-.167.843.029 1.686.584 2.515.554.826 1.217 1.316 1.97 1.461q.238.042.452.042a2.5 2.5 0 0 0 1.339-.391.57.57 0 0 0-.648-.942 1.38 1.38 0 0 1-.928.17c-.443-.086-.86-.414-1.237-.978-1.252-1.863.527-3.143.734-3.284a.57.57 0 0 0-.318-1.045" style="fill:#ba3d3a;fill-opacity:1;fill-rule:nonzero;stroke:none;stroke-width:.0352778" transform="translate(179.594 45.55)scale(.64417)"/><path d="M-134.896 109.395q-.145-.001-.293-.007c-2.785-.103-5.571-1.704-8.283-4.763-3.338-3.76-3.73-8.583-.974-11.998a27 27 0 0 1 1.753-1.99c.35-.352.71-.691 1.084-1.005l.134-.11q.57-.466 1.178-.85c1.197-.747 2.516-1.22 3.988-1.22 1.117 0 2.323.272 3.63.896 2.545 1.217 4.272 2.593 5.443 3.877q-.663.403-1.266.727c-1.052-1.09-2.579-2.255-4.793-3.316-1.061-.508-2.056-.77-3.024-.77-2.301 0-4.455 1.482-7.016 4.657-2.302 2.85-1.928 6.932.931 10.157 2.443 2.751 4.888 4.194 7.269 4.282l.243.004c.7 0 1.368-.112 2.004-.31q.044.32.203.607c.09.166.225.402.396.695a8.1 8.1 0 0 1-2.607.437m5.86-2.208c-.311-.487-.598-.879-.846-1.143a22 22 0 0 0 2.004-1.75c1.924-1.87 2.446-4.374 1.595-7.659-.142-.55-.479-1.47-1.264-2.547q.594-.328 1.235-.72c.868 1.225 1.248 2.28 1.411 2.907.977 3.772.31 6.812-1.982 9.042a23 23 0 0 1-2.153 1.87" style="fill:#544135;fill-opacity:1;fill-rule:nonzero;stroke:none;stroke-width:.0352778" transform="translate(179.594 45.55)scale(.64417)"/><path d="M-131.331 98.494q-.215 0-.451-.043c-.754-.144-1.417-.635-1.971-1.46-.555-.83-.751-1.672-.584-2.515.289-1.45 1.578-2.322 1.632-2.357a.569.569 0 1 1 .634.949c-.207.141-1.986 1.422-.734 3.284.378.565.794.893 1.237.978a1.35 1.35 0 0 0 .928-.17.574.574 0 0 1 .794.148.57.57 0 0 1-.146.794 2.5 2.5 0 0 1-1.34.392" style="fill:#544135;fill-opacity:1;fill-rule:nonzero;stroke:none;stroke-width:.0352778" transform="translate(179.594 45.55)scale(.64417)"/><path d="M-131.75 95.922a.71.71 0 0 1-.679-.494.717.717 0 0 1 .46-.9c.039-.01 1.459-.483 3.467-1.576.4-.216.825-.459 1.266-.727 2.006-1.22 4.366-2.974 6.488-5.383q.32-.366.634-.752a81 81 0 0 0 1.894-.092q-.289.392-.585.77c-2.384 3.023-5.158 5.157-7.507 6.6q-.642.39-1.235.72c-2.2 1.213-3.813 1.746-3.984 1.802a.8.8 0 0 1-.218.032" style="fill:#544135;fill-opacity:1;fill-rule:nonzero;stroke:none;stroke-width:.0352778" transform="translate(179.594 45.55)scale(.64417)"/><path d="M-126.567 115.438c-1.694-2.523-4.046-6.424-4.85-7.878a.27.27 0 0 1 .006-.293c.166-.225.285-.285.376-.285.037 0 .07.01.1.02.752.622 3.091 5.307 4.368 8.436" style="fill:#e3e0cd;fill-opacity:1;fill-rule:nonzero;stroke:none;stroke-width:.0352778" transform="translate(179.594 45.55)scale(.64417)"/><path d="M-125.169 119.1c-.512 0-1.274-.702-3.953-4.929a169 169 0 0 1-3.167-5.214c-.17-.293-.306-.529-.396-.695a1.7 1.7 0 0 1-.203-.607c-.06-.433.043-.878.305-1.238.42-.578.966-.885 1.542-.885q.364 0 .733.166c.122.052.266.172.426.345.248.265.535.656.846 1.143 1.944 3.03 4.822 9.642 4.77 10.979-.023.614-.44.811-.568.853a1 1 0 0 1-.335.082m-5.866-12.118c-.091 0-.21.06-.376.285a.27.27 0 0 0-.006.293c.804 1.454 3.156 5.355 4.85 7.878-1.277-3.13-3.616-7.814-4.368-8.435a.3.3 0 0 0-.1-.021" style="fill:#544135;fill-opacity:1;fill-rule:nonzero;stroke:none;stroke-width:.0352778" transform="translate(179.594 45.55)scale(.64417)"/><path d="m-165.785 77.394 23.978 36.322c3.618 5.412 9.752 8.647 16.405 8.647h.243c6.286-.067 13.203-3.606 16.814-8.608l24.79-34.925c-12.243 5.637-30.164 8.139-39.092 8.022-7.063-.081-29.215-2.032-43.138-9.458m40.383 46.419c-7.138 0-13.722-3.475-17.612-9.296l-25.96-39.324 1.206-.639.355.223c13.342 8.4 37.405 10.54 44.783 10.629 8.119.099 28.428-2.46 40.815-9.049l.762-.41.416 1.281-26.53 37.37c-3.866 5.355-11.26 9.144-17.984 9.215zm51.478-58.625a.724.724 0 0 1-.723-.723c0-9.945-10.625-15.61-19.54-18.613-11.264-3.792-23.71-4.843-29.29-4.868-5.642-.021-18.25.857-29.645 4.307-9.343 2.83-20.488 8.301-20.522 18.302a.723.723 0 0 1-.725.72h-.002a.72.72 0 0 1-.722-.727c.03-8.614 7.482-15.423 21.552-19.681 11.56-3.5 24.346-4.392 30.072-4.367 5.665.02 18.306 1.09 29.745 4.942 13.43 4.523 20.528 11.434 20.528 19.985a.725.725 0 0 1-.727.723" style="fill:#211d1d;fill-opacity:1;fill-rule:nonzero;stroke:none;stroke-width:.0352778" transform="translate(179.594 45.55)scale(.64417)"/><path d="M-125.402 123.813c-7.138 0-13.722-3.475-17.612-9.296l-25.52-38.657-9.155-13.773a.725.725 0 0 1 1.207-.804l9.156 13.776 25.52 38.657c3.617 5.412 9.751 8.647 16.404 8.647h.243c6.286-.067 13.203-3.606 16.814-8.608l26.315-37.07 9.341-13.402a.725.725 0 1 1 1.19.83l-9.346 13.405-26.321 37.08c-3.867 5.355-11.26 9.144-17.985 9.215z" style="fill:#211d1d;fill-opacity:1;fill-rule:nonzero;stroke:none;stroke-width:.0352778" transform="translate(179.594 45.55)scale(.64417)"/><path d="M-156.582 57.155c0 2.583-2.156 4.675-4.817 4.675s-4.817-2.092-4.817-4.675 2.157-4.674 4.817-4.674 4.817 2.092 4.817 4.674" style="fill:#e6f6f4;fill-opacity:1;fill-rule:nonzero;stroke:none;stroke-width:.0352778" transform="translate(179.594 45.55)scale(.64417)"/><path d="M-161.399 53.208c-2.257 0-4.093 1.77-4.093 3.947s1.836 3.948 4.093 3.948 4.093-1.771 4.093-3.948-1.836-3.947-4.093-3.947m0 9.345c-3.056 0-5.542-2.42-5.542-5.398s2.486-5.397 5.542-5.397 5.542 2.42 5.542 5.397-2.486 5.398-5.542 5.398" style="fill:#211d1d;fill-opacity:1;fill-rule:nonzero;stroke:none;stroke-width:.0352778" transform="translate(179.594 45.55)scale(.64417)"/></svg>