<svg xmlns="http://www.w3.org/2000/svg" xml:space="preserve" width="200mm" height="200mm" viewBox="0 0 200 200"><g style="display:inline"><path d="M-94.677 222.949c-3.22 0-6.333-.463-9.336-.762-3.255-.321-6.399-.508-9.299-1.136-3.286-.713-6.377-1.479-9.063-2.523-3.315-1.294-5.95-3.16-8.09-4.85-3.005-2.378-4.734-4.989-4.734-7.867 0-2.88 1.762-5.447 4.769-7.821 2.138-1.694 4.779-3.5 8.094-4.791a59.6 59.6 0 0 1 9.004-2.734c2.898-.628 6.041-.95 9.295-1.274a103 103 0 0 1 3.726-.296c-.629 4.787-2.62 9.412-3.83 12.224-.659 1.53-.951 2.226-.984 2.674-.035.5.202 1.033.706 1.584 1.34 1.46 4.792 3.196 10.108 3.277q.118.002.235.004c4.88 0 7.846-2.364 9.189-3.785.617-.656.667-1.75.112-2.494-1.758-2.353-2.88-7.105-3.512-10.676q-.239-1.351-.394-2.734 1.703.128 3.356.293c3.255.325 6.336.914 9.222 1.605 6.273 1.5 2.393.494 8.978 2.629 3.38 1.097 6.092 2.762 8.232 4.452 3.006 2.377 4.65 4.984 4.65 7.863s-1.59 5.556-4.596 7.934c-2.14 1.693-4.951 3.147-8.266 4.438-2.686 1.048-5.666 2.081-8.953 2.794-2.9.631-5.996 1.235-9.25 1.556-3.004.296-6.15.416-9.37.416" style="fill:#f3fbfd;fill-opacity:1;fill-rule:nonzero;stroke:none;stroke-width:.0352778" transform="translate(170.6 19.367)scale(.74536)"/><path d="M-94.677 189.449c-3.06 0-6.185.155-9.288.465-2.94.29-6.272.621-9.214 1.26a59 59 0 0 0-8.894 2.699c-3.508 1.368-6.193 3.326-7.908 4.684-3.024 2.389-4.493 4.763-4.493 7.254 0 2.5 1.5 4.956 4.46 7.299 1.931 1.527 4.575 3.446 7.902 4.74 2.794 1.091 6.094 1.874 8.954 2.492 2.235.486 4.615.702 7.134.93a154 154 0 0 1 4.33.435c2.276.257 4.63.518 7.017.518 3.435 0 6.476-.134 9.297-.416 3.344-.328 6.511-.963 9.168-1.542 2.747-.596 5.475-1.446 8.844-2.758 3.453-1.348 6.096-2.763 8.08-4.332 2.867-2.265 4.32-4.745 4.32-7.366 0-2.58-1.43-4.964-4.375-7.292-2.47-1.955-5.163-3.412-8.006-4.332-2.227-.724-3.273-1.094-3.897-1.313-.962-.338-.962-.338-3.038-.832-.52-.124-1.167-.275-1.987-.473-3.278-.783-6.263-1.302-9.126-1.584-2.51-.25-5.833-.536-9.28-.536m0 34.226c-2.467 0-4.862-.268-7.18-.525-.748-.085-1.491-.17-2.227-.24q-1.044-.104-2.07-.194c-2.566-.233-4.99-.452-7.311-.956-2.916-.632-6.285-1.433-9.174-2.558-3.505-1.365-6.263-3.365-8.275-4.956-3.324-2.629-5.01-5.469-5.01-8.435 0-2.964 1.65-5.708 5.044-8.393 1.788-1.411 4.592-3.457 8.28-4.897a61 61 0 0 1 9.114-2.765c3.024-.656 6.4-.992 9.378-1.284a96 96 0 0 1 9.43-.47c3.51 0 6.88.286 9.424.54 2.929.29 5.977.819 9.32 1.62.82.193 1.465.349 1.984.472 2.111.501 2.151.508 3.185.875.618.215 1.653.582 3.863 1.298 3.007.974 5.853 2.516 8.458 4.572 3.268 2.586 4.926 5.422 4.926 8.432 0 3.086-1.64 5.947-4.872 8.505-2.097 1.658-4.862 3.143-8.452 4.544-3.443 1.34-6.238 2.212-9.062 2.826-2.697.585-5.915 1.227-9.333 1.566-2.869.286-5.957.423-9.44.423" style="fill:#211d1d;fill-opacity:1;fill-rule:nonzero;stroke:none;stroke-width:.0352778" transform="translate(170.6 19.367)scale(.74536)"/><path d="M-82.162 114.124c-4.17 1.245-8.422 1.979-12.559 1.958-4.252-.018-8.387-.572-12.333-1.524l.398.829c5.333 5.305 6.927 12.865 6.96 19.085l.27 51.996a17 17 0 0 1-.088 1.852c-.759 7.278-4.805 14.358-4.888 15.522-.087 1.228 3.484 3.986 10.102 4.089 4.789.074 7.663-2.262 8.885-3.556.387-.41.402-1.104.059-1.563-1.842-2.47-2.998-7.334-3.645-10.982a45 45 0 0 1-.678-7.683l-.153-49.21c-.034-6.462-.274-10.787 7.246-19.998z" style="fill:#fff;fill-opacity:1;fill-rule:nonzero;stroke:none;stroke-width:.0352778" transform="translate(170.6 19.367)scale(.74536)"/><path d="M-105.38 115.672c5.5 6.093 6.385 14.316 6.408 18.793l.27 52c.003.673-.027 1.322-.09 1.929-.547 5.235-2.72 10.283-4.018 13.296-.413.963-.841 1.955-.869 2.209.05.638 3.078 3.21 9.39 3.305 4.454.064 7.147-2.053 8.348-3.327.139-.148.14-.448.004-.631-1.927-2.582-3.118-7.564-3.777-11.289a45.7 45.7 0 0 1-.69-7.807l-.155-49.738c-.037-6.054-.064-10.481 6.716-19.068-3.801.988-7.458 1.471-10.881 1.464a54 54 0 0 1-10.656-1.136m11.304 92.986-.235-.004c-5.316-.082-8.767-1.817-10.108-3.278-.504-.55-.741-1.083-.706-1.584.033-.448.325-1.143.984-2.674 1.266-2.938 3.383-7.86 3.907-12.876.058-.554.085-1.15.082-1.771l-.269-52c-.023-4.452-.93-12.788-6.746-18.573l-.088-.089-1.114-2.317 1.485.36a53 53 0 0 0 12.166 1.506c3.847.017 8.005-.632 12.349-1.93l1.641-.49-1.296 2.459c-7.149 8.752-7.124 12.83-7.086 19.007l.003.53.153 49.212c.008 2.565.233 5.105.667 7.557.632 3.57 1.755 8.322 3.512 10.675.555.744.505 1.838-.112 2.494-1.343 1.421-4.309 3.785-9.189 3.785" style="fill:#211d1d;fill-opacity:1;fill-rule:nonzero;stroke:none;stroke-width:.0352778" transform="translate(170.6 19.367)scale(.74536)"/><path d="M-94.565 115.358h-.153a53 53 0 0 1-12.166-1.506l-1.485-.36.402.836c-13.87-3.602-25.27-12.164-30.81-20.147-4.428-6.378-7.537-18.743-9.28-27.358-.473-2.335-1.658-8.205-1.658-9.387 0-3.909 2.394-7.394 6.48-10.626 2.906-2.296 6.493-4.752 10.996-6.509 3.649-1.421 7.767-2.744 12.232-3.714 3.94-.854 8.209-1.288 12.63-1.729 4.08-.402 8.342-.631 12.716-.631s8.625.324 12.705.73c4.422.437 8.59 1.323 12.53 2.176 4.465.97 8.547 2.152 12.196 3.574 4.503 1.753 8.277 3.754 11.184 6.05 4.084 3.228 6.319 6.77 6.319 10.679 0 1.637-1.181 7.757-1.425 8.66-1.388 7.187-3.924 17.262-8.269 25.386-3.631 6.788-17.102 17.667-31.775 22.345l.468-.889-1.641.49c-4.287 1.281-8.392 1.93-12.196 1.93m53.082-48.235-.006.018zm-106.859-4.628v.007z" style="fill:#f3fbfd;fill-opacity:1;fill-rule:nonzero;stroke:none;stroke-width:.0352778" transform="translate(170.6 19.367)scale(.74536)"/><path d="M-94.559 116.082h-.162c-4.58-.022-9.028-.657-13.246-1.754l-.402-.836 1.485.36a53 53 0 0 0 12.166 1.506h.153c3.804 0 7.909-.649 12.196-1.93l1.641-.49-.468.89c-4.425 1.41-8.956 2.254-13.363 2.254" style="fill:#8c9799;fill-opacity:1;fill-rule:nonzero;stroke:none;stroke-width:.0352778" transform="translate(170.6 19.367)scale(.74536)"/><path d="M-147.318 66.82c1.813 8.925 4.862 20.789 9.137 26.948 7.399 10.661 24.704 21.502 43.463 21.59h.156c8.309 0 18.061-3.136 27.486-8.84 7.896-4.777 14.575-10.816 17.015-15.378 4.102-7.67 6.587-17.162 7.99-24.126l-.128-.05.036-.091.112.042q.098-.486.188-.956l.012-.05c.23-.86 1.399-6.925 1.399-8.473 0-3.539-2.033-6.94-6.044-10.11-2.742-2.17-6.442-4.167-10.997-5.945-3.525-1.372-7.591-2.565-12.087-3.538-3.52-.766-7.903-1.715-12.448-2.167-3.415-.338-7.937-.726-12.633-.726-4.167 0-8.42.211-12.644.631-4.002.395-8.538.847-12.548 1.715-4.014.871-8.092 2.11-12.123 3.68-4.797 1.872-8.467 4.55-10.81 6.402-4.175 3.302-6.204 6.59-6.204 10.058 0 .525.274 2.222.817 5.062l.555-.003v.007h-.554l.182.945.394-.017.01.204-.364.018.31 1.57.134.402.13-.021.007.038-.124.022.34 1.05-.181.03zh-.522zm52.763 49.988h-.17c-19.254-.091-37.035-11.243-44.647-22.214-4.439-6.396-7.56-18.553-9.395-27.626-.779-3.849-1.672-8.407-1.672-9.532 0-3.937 2.21-7.603 6.754-11.194 2.416-1.912 6.204-4.674 11.183-6.614 4.101-1.599 8.254-2.861 12.342-3.747 4.092-.889 8.67-1.344 12.712-1.743 4.27-.423 8.573-.638 12.787-.638 4.76 0 9.328.395 12.776.734 4.628.458 9.055 1.418 12.612 2.19 4.571.992 8.71 2.205 12.306 3.61 4.69 1.827 8.515 3.897 11.37 6.155 4.376 3.461 6.594 7.243 6.594 11.247 0 1.714-1.176 7.803-1.442 8.823-1.38 7.136-3.945 17.353-8.337 25.566-4.603 8.604-25.979 24.98-45.773 24.983" style="fill:#211d1d;fill-opacity:1;fill-rule:nonzero;stroke:none;stroke-width:.0352778" transform="translate(170.6 19.367)scale(.74536)"/><path d="M-46.967 74.112c-2.878 2.296-6.662 4.272-11.122 6.029-3.614 1.421-7.624 2.825-12.046 3.795-3.902.854-8.068 1.673-12.447 2.11-4.041.406-8.275.572-12.607.572s-8.521-.635-12.562-1.038c-4.38-.437-8.61-.691-12.512-1.545-4.423-.97-8.582-2.007-12.196-3.429-4.46-1.757-8.005-4.29-10.884-6.59-2.592-2.067-3.91-4.607-4.527-7.193h-.187c1.743 8.615 4.852 20.98 9.28 27.358 7.225 10.41 24.415 21.809 44.056 21.9 19.06.092 40.56-15.737 45.3-24.599 4.345-8.124 6.881-18.2 8.27-25.386-.771 2.869-2.741 5.56-5.816 8.016" style="fill:#fdddc1;fill-opacity:1;fill-rule:nonzero;stroke:none;stroke-width:.0352778" transform="translate(170.6 19.367)scale(.74536)"/><path d="M-146.145 72.192c1.848 7.874 4.504 16.592 7.964 21.576 7.399 10.661 24.704 21.502 43.463 21.59 8.341.04 18.16-3.1 27.642-8.84 7.896-4.777 14.575-10.816 17.015-15.378 3.332-6.226 5.597-13.66 7.082-19.967-.951 1.214-2.131 2.385-3.536 3.503-2.802 2.24-6.501 4.244-11.308 6.138-3.112 1.225-7.306 2.766-12.158 3.828-3.621.794-7.943 1.669-12.53 2.127-3.85.385-7.997.572-12.678.572-3.305 0-6.52-.364-9.63-.713-1.01-.116-2.012-.23-3.004-.328-.936-.092-1.865-.176-2.786-.261-3.445-.317-6.7-.614-9.81-1.295-3.913-.857-8.436-1.94-12.306-3.464-4.687-1.845-8.378-4.547-11.07-6.696a13.7 13.7 0 0 1-2.35-2.392m51.59 44.616h-.17c-19.254-.091-37.035-11.243-44.647-22.214-4.439-6.396-7.56-18.553-9.395-27.626l-.176-.872h1.646l.132.558c.67 2.812 2.068 5.034 4.274 6.798 2.613 2.085 6.19 4.706 10.697 6.48 3.775 1.486 8.228 2.551 12.086 3.394 3.022.663 6.232.956 9.631 1.27.925.085 1.858.17 2.798.265q1.498.15 3.022.328c3.07.346 6.244.702 9.468.702 4.632 0 8.732-.184 12.535-.565 4.512-.451 8.782-1.312 12.363-2.099 4.752-1.04 8.875-2.557 11.937-3.76 4.67-1.838 8.248-3.775 10.935-5.923 2.97-2.371 4.843-4.94 5.568-7.634l1.411.324c-1.379 7.137-3.945 17.367-8.342 25.59-4.603 8.605-25.979 24.98-45.773 24.984" style="fill:#211d1d;fill-opacity:1;fill-rule:nonzero;stroke:none;stroke-width:.0352778" transform="translate(170.6 19.367)scale(.74536)"/><path d="M-40.781 63.33c0 3.91-2.14 7.55-6.186 10.782-2.878 2.296-6.662 4.272-11.122 6.029-3.614 1.421-7.624 2.825-12.046 3.795-3.902.854-8.068 1.673-12.447 2.11-4.041.406-8.275.572-12.607.572s-8.522-.635-12.562-1.038c-4.38-.437-8.61-.691-12.512-1.545-4.423-.97-8.582-2.007-12.196-3.429-4.46-1.757-8.005-4.29-10.884-6.59-4.045-3.228-5-7.606-5-11.514 0-3.913 1-6.569 5.045-9.8 2.879-2.297 6.43-4.752 10.891-6.51 3.615-1.42 7.693-2.744 12.116-3.71 3.9-.854 8.13-1.292 12.509-1.73a126 126 0 0 1 12.593-.634c4.332 0 8.543.328 12.584.73 4.38.438 8.508 1.323 12.41 2.177 4.422.97 8.465 2.152 12.078 3.573 4.46 1.757 8.199 3.754 11.077 6.05 4.046 3.232 6.259 6.77 6.259 10.683" style="fill:#fdfae9;fill-opacity:1;fill-rule:nonzero;stroke:none;stroke-width:.0352778" transform="translate(170.6 19.367)scale(.74536)"/><path d="M-95.189 40.845c-4.126 0-8.339.211-12.521.628-3.963.395-8.454.846-12.426 1.714-3.975.871-8.014 2.11-12.005 3.68-4.75 1.87-8.385 4.55-10.704 6.402-4.012 3.204-4.773 5.715-4.773 9.233 0 4.826 1.546 8.41 4.727 10.95 2.613 2.085 6.19 4.706 10.697 6.48 3.777 1.486 8.229 2.551 12.086 3.394 3.021.663 6.231.956 9.63 1.27q1.387.126 2.8.261 1.494.156 3.017.328c3.071.35 6.247.706 9.472.706 4.633 0 8.733-.184 12.534-.565 4.511-.451 8.782-1.312 12.364-2.099 3.709-.811 7.39-1.972 11.937-3.76 4.67-1.838 8.247-3.775 10.935-5.923 3.923-3.13 5.913-6.57 5.913-10.213 0-3.542-2.014-6.943-5.986-10.114-2.715-2.17-6.379-4.167-10.89-5.945-3.489-1.372-7.515-2.564-11.969-3.538-3.486-.766-7.825-1.715-12.327-2.166-3.381-.335-7.859-.723-12.511-.723m0 46.496c-3.307 0-6.524-.364-9.634-.713-1.01-.116-2.01-.23-3-.328-.937-.092-1.867-.176-2.788-.261-3.444-.317-6.697-.614-9.807-1.295-3.913-.857-8.435-1.94-12.307-3.464-4.687-1.845-8.378-4.547-11.07-6.696-3.548-2.832-5.272-6.784-5.272-12.082 0-3.877.87-6.816 5.317-10.365 2.393-1.912 6.146-4.678 11.078-6.618a81 81 0 0 1 12.226-3.747c4.054-.889 8.59-1.34 12.592-1.742 4.23-.42 8.491-.635 12.665-.635 4.716 0 9.24.391 12.656.734 4.585.458 8.97 1.418 12.493 2.19 4.528.992 8.629 2.205 12.189 3.606 4.646 1.827 8.435 3.901 11.263 6.16 4.334 3.456 6.531 7.242 6.531 11.246 0 4.106-2.173 7.927-6.458 11.345-2.803 2.24-6.502 4.247-11.308 6.138-4.621 1.817-8.37 2.999-12.158 3.828-3.623.794-7.945 1.669-12.53 2.127-3.85.385-7.997.572-12.678.572" style="fill:#211d1d;fill-opacity:1;fill-rule:nonzero;stroke:none;stroke-width:.0352778" transform="translate(170.6 19.367)scale(.74536)"/><path d="M-94.661 34.95c-4.167 0-8.42.211-12.644.631-4.001.395-8.536.843-12.548 1.715-4.014.871-8.093 2.11-12.123 3.68-4.797 1.872-8.467 4.55-10.81 6.402-4.175 3.302-6.204 6.59-6.204 10.058 0 3.485 2.072 6.89 6.158 10.121 2.639 2.085 6.251 4.706 10.803 6.48 3.813 1.49 8.31 2.551 12.204 3.398 3.052.663 6.293.956 9.725 1.266q1.401.127 2.827.265c1.006.099 2.022.215 3.047.328 3.1.346 6.308.705 9.565.705 4.676 0 8.816-.183 12.657-.564 4.558-.452 8.869-1.316 12.485-2.099 3.745-.815 7.462-1.972 12.054-3.764 4.716-1.838 8.328-3.775 11.043-5.923 3.961-3.13 5.97-6.565 5.97-10.213 0-3.539-2.033-6.94-6.044-10.11-2.742-2.167-6.442-4.167-10.997-5.945-3.523-1.372-7.59-2.565-12.087-3.538-3.52-.766-7.903-1.715-12.448-2.167-3.414-.338-7.936-.726-12.633-.726m0 46.5c-3.338 0-6.586-.364-9.726-.717-1.019-.113-2.029-.226-3.03-.324-.945-.096-1.884-.18-2.814-.265-3.478-.314-6.762-.61-9.9-1.291-3.952-.857-8.517-1.94-12.424-3.464-4.732-1.845-8.458-4.548-11.176-6.696-4.45-3.52-6.708-7.306-6.708-11.257 0-3.937 2.21-7.603 6.754-11.194 2.416-1.912 6.204-4.674 11.183-6.614 4.1-1.599 8.253-2.861 12.342-3.747 4.093-.889 8.672-1.344 12.712-1.743a130 130 0 0 1 12.787-.638c4.76 0 9.329.395 12.776.734 4.628.458 9.055 1.418 12.612 2.19 4.572.992 8.712 2.205 12.306 3.61 4.69 1.827 8.515 3.897 11.37 6.155 4.376 3.461 6.594 7.243 6.594 11.247 0 4.113-2.194 7.93-6.52 11.352-2.83 2.237-6.564 4.244-11.416 6.135-4.666 1.817-8.45 2.999-12.273 3.828-3.656.793-8.018 1.668-12.65 2.123-3.888.388-8.075.575-12.8.575" style="fill:#211d1d;fill-opacity:1;fill-rule:nonzero;stroke:none;stroke-width:.0352778" transform="translate(170.6 19.367)scale(.74536)"/><path d="m-89.067 60.812 1.3-.053a.367.367 0 0 0 .353-.381l-.065-1.729a.37.37 0 0 0-.38-.352l-1.3.052a.37.37 0 0 0-.353.381l.066 1.73a.365.365 0 0 0 .38.352m.659 8.717 1.05-1.104a.414.414 0 0 0-.023-.596l-.872-.784a.44.44 0 0 0-.614.025l-1.05 1.104a.414.414 0 0 0 .022.597l.873.783a.44.44 0 0 0 .614-.025m-8.006-3.019.413-.678c.19-.31.07-.794-.27-1.08-.34-.282-.769-.26-.96.05l-.413.677c-.19.314-.07.794.27 1.08.34.285.769.26.96-.05m-20.553-.109.414-.677c.19-.31.07-.794-.27-1.076-.34-.286-.77-.265-.96.049l-.413.677c-.19.31-.07.794.27 1.076.34.286.769.265.96-.05m-1.161-5.527-.517-.854c-.238-.391-.75-.554-1.146-.36s-.522.67-.284 1.062l.517.854c.238.395.751.557 1.146.363.396-.194.523-.67.284-1.065m26.198-.042-.52-.406c-.24-.187-.769.003-1.182.423-.412.423-.553.917-.314 1.104l.52.406c.24.187.769-.003 1.182-.423.413-.424.554-.918.314-1.104m-19.971-4.251-.635.155c-.292.07-.488.614-.436 1.21.052.6.33 1.026.623.956l.635-.155c.292-.071.487-.614.436-1.214-.052-.596-.33-1.023-.623-.952m13.037 13.543.8-1.01a.43.43 0 0 0-.02-.546l-.957-1.03a.3.3 0 0 0-.471.021l-.8 1.005a.43.43 0 0 0 .02.547l.957 1.034a.303.303 0 0 0 .47-.021m-4.863-.808.892-1.305a.64.64 0 0 0-.026-.717l-.581-.723c-.154-.19-.39-.18-.53.021l-.891 1.306a.64.64 0 0 0 .026.716l.581.723c.154.19.39.18.53-.021m-2.388 2.261.524-1.492c.08-.233-.015-.498-.215-.593l-1.49-.723c-.2-.095-.428.014-.51.247l-.523 1.492c-.081.233.015.498.215.596l1.49.717c.2.098.428-.011.51-.244m-2.918-9.31.46-1.316c.072-.204-.013-.44-.19-.525l-1.313-.635c-.176-.085-.377.01-.45.215l-.46 1.316c-.073.204.013.44.189.526l1.314.635c.176.084.377-.011.45-.216m-4.294 5.804 1.043-1.313a.56.56 0 0 0-.027-.712l-.565-.607a.392.392 0 0 0-.614.024l-1.042 1.313a.564.564 0 0 0 .027.712l.565.607c.177.19.452.18.613-.024m4.034 4.48.333-.42a.18.18 0 0 0-.008-.23l-.18-.193a.127.127 0 0 0-.196.007l-.333.42a.18.18 0 0 0 .008.229l.18.194c.057.06.144.056.196-.007m-14.665-4.724.333-.42a.18.18 0 0 0-.01-.229l-.18-.194a.125.125 0 0 0-.195.01l-.333.417a.18.18 0 0 0 .008.23l.18.193c.057.06.145.057.197-.007m1.269-11.134.333-.42a.18.18 0 0 0-.008-.225l-.18-.194c-.057-.06-.144-.06-.196.007l-.333.42a.18.18 0 0 0 .01.225l.18.195c.056.063.143.056.195-.008m4.987 13.646 1.134-.924a.5.5 0 0 0 .092-.635l-.609-1.002c-.126-.208-.37-.258-.546-.113l-1.134.924a.5.5 0 0 0-.092.635l.609 1.002c.126.208.37.258.546.113m-3.16-.607.686.07c.107.011.2-.08.208-.204l.04-.603c.009-.127-.07-.233-.178-.244l-.686-.07c-.107-.01-.2.081-.208.204l-.04.604c-.008.123.071.233.178.243m7.924-6.83.687.07c.106.011.2-.08.208-.204l.04-.603c.008-.123-.072-.233-.178-.243l-.687-.071c-.107-.01-.2.081-.208.205l-.04.603c-.008.123.071.233.178.243m8.165-4.378.687.07c.106.011.2-.08.208-.204l.04-.603c.008-.123-.071-.233-.178-.243l-.687-.07c-.106-.012-.2.08-.208.204l-.04.603c-.008.123.071.233.178.243m8.594 4.632.686.067c.107.014.2-.08.208-.204l.04-.6c.009-.127-.071-.236-.178-.247l-.686-.067c-.107-.01-.2.081-.209.205l-.04.603c-.008.123.072.233.179.243m-9.455.932.687.07c.107.01.2-.08.208-.204l.04-.604c.008-.123-.071-.232-.178-.243l-.687-.07c-.106-.011-.2.08-.208.204l-.04.603c-.008.124.072.233.178.244m14.806.338.686.07c.107.011.2-.08.209-.204l.04-.603c.008-.123-.072-.233-.178-.243l-.687-.071c-.107-.01-.2.081-.208.205l-.04.603c-.008.123.071.233.178.243m5.795 7.373.687.067c.106.015.2-.08.208-.204l.04-.6c.008-.127-.072-.236-.178-.247l-.687-.067c-.107-.01-.2.081-.208.205l-.04.603c-.008.123.071.233.178.243m-25.751-5.527.687.07c.107.01.2-.081.208-.205l.04-.603c.008-.123-.071-.233-.178-.243l-.687-.067c-.106-.015-.2.077-.208.204l-.04.6c-.008.127.072.236.178.243m37.813 3.563.687.07c.107.012.2-.08.208-.204l.04-.603c.008-.123-.072-.233-.178-.243l-.687-.07c-.106-.011-.2.08-.208.204l-.04.603c-.008.123.072.233.178.243m-41.576.752.094-.695c.015-.11-.048-.212-.141-.23l-.452-.088c-.093-.017-.18.057-.195.163l-.095.695c-.014.109.05.208.142.229l.452.088c.093.018.18-.056.195-.162m-14.097-11.843.094-.695c.015-.11-.048-.208-.141-.226l-.452-.088c-.093-.021-.18.053-.195.162l-.095.692c-.014.11.05.212.142.23l.452.087c.093.018.18-.056.195-.162m25.41 13.451.89-.723a.394.394 0 0 0 .071-.497l-.477-.787c-.099-.162-.29-.2-.428-.088l-.889.727a.39.39 0 0 0-.072.494l.478.786c.098.163.29.201.428.088m-2.704-10.53.889-.723c.138-.113.17-.335.072-.498l-.478-.786c-.098-.163-.29-.201-.427-.088l-.89.726a.39.39 0 0 0-.071.494l.477.787c.098.162.29.201.428.088m34.611 3.99.889-.723c.138-.113.17-.335.072-.498l-.477-.786c-.099-.163-.29-.201-.428-.089l-.889.727c-.138.113-.17.335-.072.498l.477.783c.099.162.29.2.428.088m-48.003-7.211.889-.723c.138-.113.17-.335.072-.497l-.478-.787c-.098-.162-.29-.201-.427-.088l-.89.726a.39.39 0 0 0-.071.494l.477.787c.098.162.29.201.428.088m19.243 5.126.889-.727c.138-.113.17-.335.072-.497l-.478-.787c-.098-.159-.29-.2-.428-.088l-.888.727c-.138.113-.17.335-.073.497l.478.783c.098.163.29.201.428.092m5.375 7.518-.183-.79c-.029-.124-.137-.198-.242-.163l-.512.155c-.104.032-.167.156-.138.28l.183.79c.029.12.137.193.242.162l.512-.156c.105-.031.167-.158.138-.278m-33.216-8.619-.183-.786c-.029-.124-.137-.198-.242-.166l-.511.155c-.106.032-.167.159-.14.282l.185.787c.028.124.137.198.242.166l.51-.155c.106-.032.168-.16.14-.283m22.668-7.493-.184-.79c-.028-.123-.137-.197-.242-.166l-.511.156c-.105.035-.168.158-.139.282l.184.79c.028.12.137.194.242.162l.51-.155c.106-.032.168-.159.14-.279m19.978 1.285-.183-.79c-.029-.12-.138-.195-.242-.163l-.512.155c-.105.032-.167.159-.139.279l.184.79c.028.124.137.198.242.162l.511-.155c.105-.032.168-.155.14-.278m-22.587.832-.184-.787c-.028-.123-.136-.197-.242-.165l-.51.155c-.106.032-.168.159-.14.282l.184.787c.029.123.137.197.242.166l.512-.156c.105-.031.167-.158.138-.282m-17.684.907-.183-.787c-.029-.123-.137-.198-.242-.166l-.511.159c-.106.028-.168.155-.14.279l.184.79c.029.12.137.194.242.162l.512-.155c.105-.032.167-.159.138-.282m49.453 12.216-.184-.79c-.028-.12-.137-.194-.242-.162l-.511.155c-.106.032-.168.159-.14.279l.185.79c.028.124.136.198.242.166l.51-.159c.106-.032.168-.155.14-.279m-35.792-15.762-.184-.786c-.028-.124-.137-.198-.242-.166l-.51.155c-.106.032-.168.159-.14.282l.184.787c.029.123.137.197.242.166l.511-.155c.105-.032.167-.16.139-.283m-12.362 10.509-.183-.79c-.029-.123-.137-.194-.242-.162l-.512.155c-.105.032-.167.155-.138.279l.183.79c.029.124.137.194.242.162l.511-.155c.106-.032.168-.159.14-.278m60.948-4.685-.184-.79c-.028-.124-.137-.198-.242-.166l-.511.158c-.105.032-.167.156-.139.28l.184.79c.028.12.136.193.242.162l.511-.156c.105-.031.167-.158.139-.278m-29.05 6.9.105-1.249c.02-.236-.129-.448-.332-.473l-1.31-.165c-.204-.025-.385.148-.405.384l-.106 1.245c-.02.237.128.448.332.473l1.31.166c.204.025.385-.145.406-.381m6.831.011 1.258-1.027c.196-.159.242-.473.103-.702l-.676-1.111c-.14-.23-.41-.286-.606-.127l-1.258 1.026c-.195.159-.24.477-.102.702l.676 1.115c.14.23.41.282.605.124m-25.764 3.403 1.437-.662c.163-.074.24-.29.175-.48l-.426-1.22c-.067-.191-.252-.286-.415-.209l-1.437.663c-.163.078-.24.293-.175.48l.427 1.224c.066.19.251.282.414.205m27.085-1.041.7-1.048c.109-.162.024-.356-.19-.433l-.348-.131c-.213-.078-.475-.007-.584.155l-.7 1.048c-.108.162-.023.356.19.437l.348.124c.214.081.476.01.584-.152m-36.859-3.884.7-1.023c.11-.159.024-.35-.19-.427l-.347-.123c-.213-.074-.475-.007-.584.151l-.7 1.023c-.11.16-.025.35.189.427l.348.124c.213.074.475.007.584-.152m18.992-4.696.7-1.022c.11-.16.024-.35-.189-.424l-.348-.123c-.213-.078-.475-.01-.584.148l-.7 1.027c-.11.158-.025.349.19.423l.347.123c.213.078.475.007.584-.151m-5.653 6.046.7-1.023c.11-.159.025-.35-.189-.427l-.348-.123c-.213-.074-.475-.007-.584.152l-.7 1.023c-.11.158-.024.349.19.426l.347.124c.213.074.475.007.584-.152m17.469 4.304-.031-.72c-.005-.112-.099-.155-.21-.098l-.18.088c-.11.056-.197.194-.192.307l.031.72c.005.112.1.158.21.102l.18-.092c.111-.056.197-.194.192-.307m9.534-17.776-.032-.724c-.005-.109-.098-.155-.209-.098l-.181.091c-.11.057-.197.19-.192.304l.032.72c.005.112.099.158.21.102l.18-.092c.11-.056.197-.19.192-.303m-18.881 2.865-.68 1.35a.61.61 0 0 0 .098.667l.606.603c.16.16.376.117.482-.091l.68-1.348a.61.61 0 0 0-.098-.667l-.607-.603c-.16-.159-.375-.12-.481.088m19.293 13.035-1.466.138a.585.585 0 0 0-.49.448l-.163.854c-.043.222.107.388.334.367l1.466-.138a.58.58 0 0 0 .49-.445l.163-.853c.043-.226-.106-.392-.334-.37m-22.774-15.057-.324 1.474c-.05.23.065.466.259.53l1.437.476c.193.063.39-.07.44-.297l.324-1.474c.05-.23-.065-.47-.258-.533l-1.437-.476c-.193-.064-.39.07-.441.3m-12.806 5.641-.26 1.182c-.04.183.052.373.207.423l1.152.384c.155.05.313-.056.353-.24l.26-1.181c.04-.184-.052-.374-.207-.427l-1.152-.381c-.155-.053-.313.056-.354.24m21.836-3.909-.817 1.376a.54.54 0 0 0 .099.667l.58.493c.18.156.43.11.558-.105l.818-1.373a.546.546 0 0 0-.1-.67l-.579-.494c-.181-.155-.431-.11-.559.106m-21.8-1.04-.817 1.375a.54.54 0 0 0 .098.667l.58.494c.181.155.432.11.559-.106l.817-1.372a.546.546 0 0 0-.099-.67l-.58-.495c-.18-.155-.43-.109-.558.106m15.75-3.605-.262.44a.17.17 0 0 0 .032.212l.185.16c.058.049.138.035.179-.036l.26-.437a.18.18 0 0 0-.031-.216l-.185-.155c-.058-.05-.138-.035-.179.032m10.864 2.265-.744.808a.385.385 0 0 0-.015.48l.523.68c.108.141.289.155.404.028l.745-.811a.385.385 0 0 0 .015-.48l-.523-.68c-.108-.142-.289-.152-.405-.025m21.269 14.206-.636.025c-.099.003-.174.102-.169.222l.026.571c.005.117.09.209.188.205l.635-.025c.1-.007.175-.105.17-.222l-.026-.571c-.005-.12-.09-.212-.188-.205m-24.674-15.72-.015.667c-.002.102.066.19.153.194l.423.021c.086.007.159-.074.16-.176l.016-.667c.002-.102-.066-.19-.154-.194l-.422-.025c-.087-.003-.159.078-.161.18m-26.802 1.761-.014.666c-.002.103.066.19.153.194l.422.022c.087.007.16-.075.162-.177l.014-.667c.002-.102-.066-.19-.153-.194l-.422-.024c-.087-.004-.16.077-.162.18m22.54 5.478-.738.805a.38.38 0 0 0-.014.476l.518.674c.107.14.286.151.4.028l.738-.804a.38.38 0 0 0 .015-.477l-.518-.674c-.107-.14-.286-.151-.4-.028m-12.666-5.972.25.72c.039.109.146.165.239.12l.451-.216c.093-.046.137-.17.098-.282l-.25-.716c-.038-.113-.145-.166-.238-.124l-.452.216c-.092.045-.136.172-.098.282m42.229 11.13.25.716c.039.113.145.166.238.123l.452-.215c.093-.046.137-.173.098-.282l-.25-.72c-.038-.109-.145-.165-.238-.12l-.452.216c-.093.042-.137.169-.098.282m-56.72-1.849.25.716c.039.113.146.166.239.124l.451-.215c.093-.046.137-.173.098-.282l-.25-.72c-.039-.11-.145-.166-.238-.12l-.452.215c-.092.042-.136.17-.098.282m22.523 3.112.25.716c.039.113.145.166.238.123l.452-.215c.093-.046.137-.173.098-.282l-.25-.72c-.039-.109-.146-.165-.238-.12l-.452.216c-.093.042-.137.169-.098.282m5.576-12.651-1.336.879c-.15.098-.204.324-.118.508l.554 1.17c.086.18.278.248.43.149l1.335-.878c.152-.1.205-.325.118-.508l-.553-1.172c-.086-.18-.279-.247-.43-.148m-26.886 5.581-1.317.864c-.15.1-.201.325-.117.505l.547 1.154c.085.18.274.246.423.148l1.318-.868c.15-.095.201-.321.117-.501l-.546-1.154c-.085-.18-.275-.247-.425-.148m5.734-6.54.104.673c.016.106.106.135.202.067l.156-.109a.36.36 0 0 0 .144-.314l-.104-.67c-.016-.106-.107-.138-.202-.07l-.156.112a.35.35 0 0 0-.144.31m54.976 10.954.104.674c.016.106.106.134.202.067l.155-.11a.36.36 0 0 0 .145-.313l-.104-.674c-.016-.102-.107-.134-.202-.067l-.156.113a.35.35 0 0 0-.144.31m-14.017-1.019-.018-1.01c-.01-.461.335-.888.768-.948.434-.06.792.265.8.73l.02 1.006c.008.465-.336.889-.77.952-.432.06-.79-.268-.8-.73m-7.485-.081.613-.23c.283-.105.733.24 1.006.77.274.529.266 1.044-.016 1.15l-.614.229c-.283.106-.733-.237-1.006-.77-.273-.528-.266-1.043.017-1.15m8.982-7.023-.501-.162a.18.18 0 0 1-.113-.198l.048-.264a.128.128 0 0 1 .168-.103l.5.162a.18.18 0 0 1 .114.198l-.048.261c-.016.085-.09.13-.168.106m-4.77 11.733-.539.448c-.083.067-.21.043-.283-.056l-.352-.483c-.072-.1-.064-.233.02-.304l.538-.444c.084-.07.211-.046.283.053l.353.483c.072.099.063.233-.02.303m10.95-12.354-.447-.526c-.07-.084-.07-.204-.002-.271l.332-.328c.068-.07.18-.057.249.024l.446.526c.07.085.071.205.003.272l-.332.331c-.068.067-.18.057-.25-.028m-7.957 5.013-1.128-.106c-.176-.017-.32-.183-.324-.377l-.016-.928c-.003-.19.137-.332.312-.314l1.128.106c.175.014.32.183.323.374l.016.928c.003.19-.136.331-.311.317m9.328-1.486-.263-.765c-.041-.12.01-.24.116-.275l.51-.159c.105-.031.223.04.265.16l.263.761c.041.12-.01.244-.116.275l-.51.159c-.105.032-.223-.039-.265-.155m-5.387.515-.263-.766c-.04-.116.01-.24.116-.271l.51-.159c.106-.032.224.035.265.155l.264.766c.04.116-.011.24-.116.271l-.51.16c-.106.03-.224-.036-.265-.156m-12.283 1.831-.264-.766c-.04-.116.01-.24.116-.271l.51-.16c.106-.034.224.036.265.156l.264.762c.04.12-.011.244-.116.275l-.51.159c-.106.032-.224-.035-.265-.155m15.911 1.817-.264-.766c-.041-.12.01-.24.116-.275l.51-.155c.106-.036.224.035.265.155l.264.762c.04.12-.011.243-.116.275l-.51.159c-.106.032-.224-.039-.265-.155m-9.614.596.843.84c.13.13.154.345.051.472l-.762.974c-.103.13-.292.13-.423-.004l-.843-.843c-.13-.13-.153-.342-.051-.473l.762-.97c.103-.13.292-.13.423.004m-2.649-4.128 1.412.692c.22.106.34.38.27.614l-.223.744c-.07.233-.304.332-.523.226l-1.413-.692a.534.534 0 0 1-.27-.614l.223-.74a.364.364 0 0 1 .524-.23m2.431-2.942.364.547c.057.085.046.197-.024.25l-.343.258c-.07.053-.173.028-.23-.06l-.364-.547c-.057-.085-.045-.197.025-.25l.342-.258c.07-.053.173-.028.23.06m7.161 4.805.17.74c.027.114-.034.22-.135.237l-.492.074c-.101.014-.205-.067-.231-.18l-.17-.74c-.027-.117.033-.223.134-.237l.493-.077c.1-.015.204.067.23.183m-4.636 4.212 1.562-.018c.177-.003.34.156.364.353l.153 1.277c.024.198-.1.36-.277.364l-1.561.017c-.177.004-.34-.155-.363-.352l-.154-1.278c-.024-.197.1-.36.276-.363m-5.381-9.133.27.62c.042.1-.018.173-.134.17l-.189-.004c-.116-.003-.244-.08-.286-.18l-.27-.62c-.041-.1.019-.173.134-.173l.189.007c.116 0 .244.081.286.18" style="fill:#793919;fill-opacity:1;fill-rule:nonzero;stroke:none;stroke-width:.0352778" transform="translate(170.6 19.367)scale(.74536)"/></g></svg>