<svg xmlns="http://www.w3.org/2000/svg" xml:space="preserve" width="200mm" height="200mm" viewBox="0 0 200 200"><g style="display:inline"><path d="m-95.819 94.941-.713-.007c-6.261-.074-12.537-.14-18.824-.208-21.83-.233-44.4-.47-66.48-1.076l-.682-.018-1.485-17.413 1.524-.13 1.365 16.051c21.851.593 44.179.83 65.776 1.059 6.046.063 12.09.127 18.115.197.847-9.874 1.415-17.29 1.4-17.843a.76.76 0 0 0 .618.688l.282-1.503c.667.127.639.758.617 1.178-.01.257-.035.635-.067 1.118-.067.963-.169 2.346-.3 4.05-.282 3.591-.666 8.266-1.086 13.152z" style="fill:#211d1d;fill-opacity:1;fill-rule:nonzero;stroke:none;stroke-width:.0352778" transform="translate(210.924 -1.881)scale(.79991)"/><path d="M-180.662 97.439c4.364 51.255 11.208 131.833 11.208 133.152 0 1.648 1.076 3.228 3.196 4.696 1.51 1.04 3.524 1.986 6.156 2.882 1.739.593 4.078 1.337 6.77 1.849 2.032.384 4.459.808 7.02 1.033 2.162.187 4.494.275 7.126.275 1.824 0 3.63-.176 5.376-.345q.87-.087 1.722-.163c.536-.045 1.072-.088 1.598-.13 1.933-.152 3.754-.296 5.465-.62 2.187-.417 4.713-.94 6.85-1.666 2.533-.864 4.548-2.145 6.019-3.16 2.258-1.564 2.723-2.89 2.723-4.407 0-.681 1.683-19.516 4.657-52.747 2.512-28.046 5.338-59.613 7.147-80.448q-1.223 1.626-3.111 3.168c-2.127 1.729-5.041 3.909-8.75 5.398-3.054 1.227-6.617 2.099-9.697 2.786-2.455.55-5.016.787-7.726 1.041q-1.09.1-2.194.212c-.776.077-1.563.17-2.353.26-2.448.283-4.981.576-7.592.576-3.683 0-6.946-.152-9.98-.462-3.612-.367-7.013-1.07-9.864-1.708-2.988-.666-5.944-1.615-9.581-3.08-3.796-1.523-6.72-3.143-8.936-4.949q-2.016-1.643-3.249-3.443m41.476 145.419c-2.678 0-5.052-.096-7.257-.286-2.631-.23-5.104-.66-7.175-1.052-2.173-.412-4.325-1.001-6.978-1.905-2.77-.941-4.904-1.947-6.53-3.069-2.561-1.77-3.856-3.774-3.856-5.955-.025-1.22-4.36-52.673-11.596-137.64l-.07-.85 1.615.043.092.635c.353 2.452 1.866 4.78 4.495 6.918 2.095 1.707 4.89 3.252 8.537 4.716 3.56 1.43 6.442 2.357 9.345 3.006 2.808.628 6.152 1.32 9.687 1.68 2.981.303 6.195.45 9.825.45 2.522 0 5.01-.285 7.415-.564q1.2-.138 2.378-.26c.737-.078 1.475-.145 2.201-.212 2.664-.25 5.176-.484 7.536-1.013 3.023-.674 6.509-1.527 9.461-2.713 3.518-1.41 6.312-3.503 8.354-5.164 2.364-1.926 3.856-3.934 4.438-5.966l1.496.279c-1.785 20.652-4.812 54.458-7.483 84.29-2.483 27.766-4.632 51.748-4.65 52.616 0 2.325-1.012 4.018-3.379 5.655-1.556 1.076-3.686 2.427-6.396 3.351-2.23.759-4.819 1.295-7.062 1.718-1.789.343-3.652.49-5.624.646q-.787.063-1.587.13c-.565.046-1.136.103-1.708.16-1.781.176-3.623.356-5.524.356" style="fill:#211d1d;fill-opacity:1;fill-rule:nonzero;stroke:none;stroke-width:.0352778" transform="translate(210.924 -1.881)scale(.79991)"/><path d="M-126.373 93.079a5077 5077 0 0 1-29.86-.403c-1.103-.211-2.19-.437-3.248-.666-3.577-.78-6.827-1.905-9.751-3.045-3.609-1.407-6.671-2.991-9.003-4.833-1.781-1.407-3.104-2.914-3.944-4.498l-.3-3.545-.737.063a8 8 0 0 1-.025-.663c0-3.136 1.792-5.972 5.066-8.562 2.328-1.841 5.355-3.443 8.968-4.85 2.924-1.14 6.194-2.089 9.775-2.865 3.157-.684 6.502-1.397 10.047-1.746 3.27-.325 6.678-.586 10.185-.586s6.921.184 10.192.508c3.545.353 6.97.702 10.128 1.387a65 65 0 0 1 9.804 2.977c3.612 1.408 6.487 3.376 8.82 5.218 3.273 2.589 5.192 5.383 5.192 8.52l-.141.75a.76.76 0 0 1-.618-.687c.008.225-.084 1.605-.254 3.834-.87 1.644-2.282 3.197-4.145 4.671-2.332 1.842-5.2 3.874-8.812 5.281-2.925 1.14-6.29 1.972-9.87 2.748-2.36.515-4.87.755-7.47.992" style="fill:#fff;fill-opacity:1;fill-rule:nonzero;stroke:none;stroke-width:.0352778" transform="translate(210.924 -1.881)scale(.79991)"/><path d="M-139.2 94.158c-3.507 0-6.936-.134-10.206-.455a76 76 0 0 1-6.826-1.027c9.987.17 19.978.293 29.859.403-.875.08-1.764.158-2.66.247-3.27.324-6.66.832-10.167.832m-42.979-14.524c-.593-1.122-.942-2.286-1.037-3.482l.737-.063zm86.102-.247c.17-2.23.262-3.609.254-3.834a.76.76 0 0 0 .618.688l.141-.752c0 1.351-.353 2.65-1.013 3.898" style="fill:#68666a;fill-opacity:1;fill-rule:nonzero;stroke:none;stroke-width:.0352778" transform="translate(210.924 -1.881)scale(.79991)"/><path d="M-139.2 57.646c-3.757 0-7.377.31-10.11.578-3.366.335-6.502.984-9.96 1.732-3.598.784-6.847 1.736-9.662 2.833-3.634 1.415-6.587 3.01-8.77 4.738-3.214 2.54-4.773 5.143-4.773 7.962 0 2.865 1.587 5.57 4.716 8.043 2.16 1.708 5.042 3.253 8.806 4.72 3.669 1.433 6.642 2.36 9.634 3.01 2.896.628 6.346 1.32 9.99 1.68 3.073.302 6.386.45 10.129.45 2.6 0 5.165-.285 7.645-.564.825-.092 1.64-.183 2.448-.26a174 174 0 0 1 2.268-.213c2.745-.25 5.338-.486 7.772-1.012 3.115-.677 6.713-1.528 9.758-2.716 3.626-1.412 6.509-3.507 8.615-5.169 3.228-2.554 4.864-5.235 4.864-7.969 0-2.72-1.601-5.313-4.903-7.92-1.87-1.478-4.794-3.616-8.619-5.104a64 64 0 0 0-9.69-2.943c-3.207-.698-6.837-1.054-10.04-1.372-3.38-.335-6.784-.504-10.118-.504m0 37.274c-3.796 0-7.158-.148-10.28-.458-3.722-.367-7.225-1.07-10.164-1.708-3.072-.667-6.117-1.616-9.867-3.076-3.905-1.524-6.914-3.143-9.197-4.946-3.513-2.78-5.298-5.888-5.298-9.243 0-3.27 1.802-6.35 5.358-9.161 2.336-1.849 5.33-3.472 9.162-4.964 2.89-1.125 6.216-2.103 9.892-2.9 3.506-.762 6.689-1.418 10.132-1.76 2.769-.272 6.438-.59 10.262-.59 3.383 0 6.837.173 10.27.512 3.241.325 6.92.688 10.212 1.4a66 66 0 0 1 9.92 3.013c4.015 1.563 7.066 3.793 9.014 5.33 3.69 2.918 5.482 5.903 5.482 9.12 0 3.225-1.831 6.308-5.447 9.165-2.187 1.732-5.19 3.91-9.006 5.398-3.144 1.224-6.812 2.095-9.987 2.783-2.526.55-5.165.787-7.96 1.04-.744.068-1.498.139-2.253.213-.805.077-1.613.169-2.428.26-2.522.283-5.132.572-7.817.572" style="fill:#211d1d;fill-opacity:1;fill-rule:nonzero;stroke:none;stroke-width:.0352778" transform="translate(210.924 -1.881)scale(.79991)"/><path d="M-94.669 68.832c.692-2.247-4.05-8.66-4.702-10.065-1.01-2.162-2.97-1.393-3.814-3.877-.444-1.305-.607-2.226-1.482-2.575-.716-.286-1.33.603-2.222-.166-.86-.74-.917-1.756-1.602-2.755-.995-1.453-2.321-1.817-3.563-1.654-1.009.134-2.321.797-3.309.155-.543-.356-.808-1.21-1.288-1.658-.91-.85-2.06-.526-2.952-1.457-1.136-1.189-1.203-3.528-2.46-3.542-1.093-.014-2-.614-3.012-1.083-1.04-.483-2.296-2.148-3.38-2.06-3.34.264-2.811 1.428-3.383 1.668-1.76.741-2.624-.977-4.413-.825-.949.081-1.887 1.069-2.783 1.157-.886.088-.723-.91-1.52-1.683-1.694-1.637-2.654 1.51-4.439.98-1.333-.398-1.848-1.407-3.309-1.079-.666.152-1.372.512-2.025.583-1.263.134-2.212.497-3.457.571-1.654.106-2.762 3.584-4.487 4.322-1.496.638-2.572 1.11-3.99 1.975-.716.438-1.584.356-2.258 1.013-.571.557-.847 1.859-1.432 2.335-.9.727-2.046-.25-2.981-.039-.716.162-1.2.956-1.849 1.404-1.1.762-2.18.988-3.16 2.18-1.61 1.962-9.127 7.73-9.035 15.389l1.365 21.879a8.5 8.5 0 0 0-.176 1.721c0 3.137 1.679 6.054 4.857 8.643 2.262 1.842 5.232 3.426 8.735 4.833 2.84 1.14 5.99 2.269 9.465 3.045 3.062.684 6.336 1.34 9.776 1.693 3.175.325 6.501.455 9.902.455 3.404 0 6.696-.508 9.867-.829 3.443-.352 6.767-.554 9.832-1.238 3.472-.78 6.738-1.609 9.578-2.752 3.503-1.407 6.29-3.44 8.551-5.28 3.179-2.59 5.003-5.433 5.003-8.57 0-.61 1.552-22.814 1.552-22.814" style="fill:#fff;fill-opacity:1;fill-rule:nonzero;stroke:none;stroke-width:.0352778" transform="translate(210.924 -1.881)scale(.79991)"/><path d="m-182.253 68.02 1.372 21.958-.021.095a8 8 0 0 0-.162 1.573c0 2.883 1.545 5.599 4.593 8.083 2.095 1.71 4.893 3.252 8.548 4.723 3.563 1.429 6.445 2.357 9.352 3.006 2.808.628 6.16 1.32 9.69 1.68 2.982.306 6.199.454 9.83.454 2.521 0 5.012-.29 7.418-.564.797-.092 1.591-.184 2.378-.265q1.106-.11 2.198-.212c2.663-.246 5.182-.483 7.545-1.012 3.024-.677 6.513-1.528 9.469-2.713 3.52-1.414 6.318-3.506 8.36-5.175 3.144-2.561 4.739-5.253 4.739-8.005 0-.617 1.393-20.588 1.555-22.863l.004-.085.025-.077c.423-1.37-2.244-5.595-3.525-7.627-.557-.89-.963-1.532-1.146-1.923-.37-.8-.882-1.073-1.528-1.418-.79-.42-1.774-.946-2.314-2.53a26 26 0 0 1-.183-.564c-.314-.97-.47-1.408-.879-1.57-.063-.025-.219.021-.384.067-.455.13-1.221.353-2.043-.356-.638-.55-.91-1.193-1.175-1.81-.162-.381-.314-.737-.554-1.087-.716-1.047-1.682-1.499-2.868-1.344-.229.032-.5.1-.786.173-.903.23-2.025.512-3.013-.13-.441-.286-.716-.738-.956-1.133-.152-.243-.293-.472-.434-.603-.307-.29-.667-.388-1.125-.515-.558-.152-1.253-.342-1.852-.97-.572-.596-.893-1.376-1.179-2.067-.229-.558-.515-1.25-.765-1.253-1.03-.01-1.88-.437-2.699-.85-.201-.099-.402-.201-.61-.296-.487-.226-.967-.628-1.433-1.016-.511-.427-1.21-1.006-1.587-.981-2.053.162-2.314.628-2.487.938-.113.205-.286.515-.67.674-1.285.54-2.244.064-3.017-.317-.55-.272-1.023-.505-1.619-.455-.321.028-.737.268-1.136.5-.511.293-1.04.6-1.637.66-1.03.102-1.397-.67-1.615-1.132-.127-.272-.251-.533-.48-.752-.427-.416-.59-.38-1.45.293-.646.508-1.531 1.203-2.688.86-.579-.172-1.01-.433-1.394-.662-.568-.343-.91-.547-1.552-.402-.24.052-.497.144-.773.24-.43.148-.871.303-1.333.352-.543.057-1.023.159-1.528.268-.606.13-1.234.265-1.961.307-.54.035-1.22.984-1.817 1.824-.709.995-1.443 2.018-2.434 2.441-1.531.656-2.558 1.112-3.895 1.926-.38.233-.776.346-1.125.448-.413.117-.74.212-1.006.466-.18.177-.366.579-.532.935-.254.536-.512 1.094-.946 1.443-.818.667-1.735.42-2.406.24-.328-.088-.666-.18-.874-.134-.247.056-.526.331-.822.624-.237.23-.48.47-.773.67-.41.283-.804.49-1.185.695-.685.36-1.274.674-1.828 1.348-.31.381-.79.857-1.4 1.457-2.632 2.61-7.536 7.468-7.472 13.448m43.201 43.019c-3.68 0-6.943-.149-9.976-.459-3.606-.367-7.007-1.069-9.86-1.707-2.985-.667-5.938-1.616-9.575-3.077-3.792-1.524-6.71-3.14-8.925-4.946-3.401-2.769-5.126-5.866-5.126-9.204 0-.592.06-1.188.176-1.774l-1.365-21.816c-.078-6.6 5.115-11.747 7.902-14.51.558-.553 1.037-1.026 1.298-1.347.741-.903 1.52-1.313 2.272-1.711.36-.19.699-.37 1.038-.607.19-.13.38-.317.582-.515.405-.399.867-.85 1.517-.998.557-.127 1.097.017 1.57.144.606.163.895.215 1.118.036.176-.142.38-.579.547-.932.229-.494.465-.998.836-1.358.525-.512 1.132-.684 1.619-.826.296-.084.554-.155.765-.289 1.422-.864 2.491-1.34 4.082-2.018.617-.264 1.231-1.122 1.82-1.954.826-1.154 1.68-2.35 2.907-2.427.621-.035 1.168-.155 1.75-.279.522-.11 1.058-.226 1.676-.29.296-.03.642-.15 1.009-.281.303-.106.613-.216.935-.286 1.206-.272 1.957.176 2.617.575.339.205.656.395 1.058.515.417.123.798-.152 1.383-.614.73-.575 1.962-1.538 3.352-.19.42.402.628.85.783 1.174.05.103.113.237.155.307h.004c.286-.028.677-.254 1.055-.472.515-.297 1.097-.632 1.74-.688.997-.085 1.767.296 2.384.6.72.356 1.136.536 1.74.31l.038-.074c.395-.706 1.034-1.471 3.64-1.68.96-.074 1.807.632 2.629 1.316.395.328.8.667 1.115.812.218.102.433.211.649.317.733.37 1.368.688 2.067.695 1.206.014 1.676 1.15 2.088 2.149.247.6.505 1.22.886 1.619.32.339.705.44 1.189.575.543.152 1.164.321 1.732.854.282.264.483.589.677.903.17.278.346.568.512.677.458.296 1.143.124 1.866-.06.314-.081.638-.166.952-.204 1.722-.23 3.235.469 4.255 1.961.32.466.518.928.691 1.337.226.53.403.949.787 1.277.222.194.31.176.695.064.339-.096.8-.23 1.326-.018 1.059.423 1.366 1.372 1.718 2.47.057.172.113.352.177.543.356 1.04.885 1.323 1.623 1.718.705.377 1.584.846 2.162 2.085.145.306.568.98 1.058 1.76 2.23 3.535 4.188 6.865 3.708 8.735-.434 6.18-1.538 22.084-1.545 22.694 0 3.203-1.774 6.276-5.27 9.126-2.124 1.729-5.038 3.906-8.739 5.394-3.051 1.224-6.61 2.096-9.694 2.784-2.452.55-5.013.786-7.726 1.04q-1.085.1-2.187.212c-.78.078-1.563.17-2.357.261-2.448.282-4.977.572-7.584.572" style="fill:#211d1d;fill-opacity:1;fill-rule:nonzero;stroke:none;stroke-width:.0352778" transform="translate(210.924 -1.881)scale(.79991)"/><path d="M-63.903 15.08s.515 1.093-.872 5.009c-1.453 4.106-2.734 4.19-2.734 4.19-.575-.482-1.086-4.585-1.086-4.585l3.612-3.817.865-.766z" style="fill:#f4fbfd;fill-opacity:1;fill-rule:nonzero;stroke:none;stroke-width:.0352778" transform="translate(210.924 -1.881)scale(.79991)"/><path d="M-67.865 19.93c.166 1.249.42 2.614.639 3.359.402-.413 1.065-1.352 1.799-3.43.582-1.636.808-2.74.889-3.45zm.124 5.059-.212-.18c-.519-.437-.967-2.13-1.327-5.03l-.038-.325 3.877-4.096 1.02-.9.924-.14.218.465c.152.318.53 1.655-.843 5.539-1.492 4.205-2.935 4.621-3.34 4.65z" style="fill:#211d1d;fill-opacity:1;fill-rule:nonzero;stroke:none;stroke-width:.0352778" transform="translate(210.924 -1.881)scale(.79991)"/><path d="M-64.094 15.143c-2.41 3.298-3.464 6.318-3.415 9.126l-.01.018-29.33 15.607c-7.959 4.233-13.967 11.373-16.92 20.108l-37.133 109.823c-.592 1.743-2.381 2.816-4.103 2.311-1.866-.547-2.878-2.596-2.247-4.459l37.053-109.583c1.397-4.124 3.32-8.05 5.827-11.571 3.856-5.412 8.75-9.72 14.464-12.764l34.357-18.28c.47-.251.95-.36 1.443-.368z" style="fill:#f4fbfd;fill-opacity:1;fill-rule:nonzero;stroke:none;stroke-width:.0352778" transform="translate(210.924 -1.881)scale(.79991)"/><path d="m-65.847 16.455-33.718 17.943c-5.645 3.005-10.425 7.228-14.217 12.544-2.375 3.334-4.304 7.165-5.73 11.385l-37.052 109.583a2.84 2.84 0 0 0 .166 2.205c.342.652.91 1.122 1.598 1.326 1.32.388 2.73-.427 3.21-1.848l37.134-109.824c3.012-8.907 9.144-16.196 17.265-20.514l28.96-15.409c.052-2.417.835-4.85 2.384-7.39m-88.283 156.531c-.356 0-.72-.05-1.076-.155a4.06 4.06 0 0 1-2.476-2.05 4.3 4.3 0 0 1-.258-3.337l37.056-109.58c1.471-4.356 3.464-8.315 5.92-11.761 3.923-5.504 8.876-9.871 14.714-12.986l34.36-18.28a3.8 3.8 0 0 1 1.772-.449l.448-.01.43.814-.268.378c-2.25 3.083-3.323 5.927-3.277 8.689l.007.444-.402.223-29.33 15.606c-7.793 4.15-13.678 11.145-16.57 19.703l-37.137 109.823c-.604 1.785-2.205 2.928-3.913 2.928" style="fill:#211d1d;fill-opacity:1;fill-rule:nonzero;stroke:none;stroke-width:.0352778" transform="translate(210.924 -1.881)scale(.79991)"/><path d="M-105.884 39.153s-1.548 3.944.321 6.452z" style="fill:#f4fbfd;fill-opacity:1;fill-rule:nonzero;stroke:none;stroke-width:.0352778" transform="translate(210.924 -1.881)scale(.79991)"/><path d="M-105.56 46.202a.6.6 0 0 1-.482-.24c-2.047-2.745-.466-6.855-.396-7.028a.597.597 0 1 1 1.111.437c-.013.036-1.4 3.666.244 5.875a.598.598 0 0 1-.476.956" style="fill:#211d1d;fill-opacity:1;fill-rule:nonzero;stroke:none;stroke-width:.0352778" transform="translate(210.924 -1.881)scale(.79991)"/><path d="M-112.103 45.175s-.445 2.766 2.363 4.974z" style="fill:#f4fbfd;fill-opacity:1;fill-rule:nonzero;stroke:none;stroke-width:.0352778" transform="translate(210.924 -1.881)scale(.79991)"/><path d="M-109.74 50.784a.63.63 0 0 1-.391-.137c-3.066-2.413-2.618-5.444-2.6-5.57a.634.634 0 0 1 1.252.197c-.017.106-.324 2.448 2.131 4.378a.634.634 0 0 1-.392 1.132" style="fill:#211d1d;fill-opacity:1;fill-rule:nonzero;stroke:none;stroke-width:.0352778" transform="translate(210.924 -1.881)scale(.79991)"/><path d="M-116.379 52.936s1.87 2.057 4.664 2.16z" style="fill:#f4fbfd;fill-opacity:1;fill-rule:nonzero;stroke:none;stroke-width:.0352778" transform="translate(210.924 -1.881)scale(.79991)"/><path d="M-111.715 55.783h-.025c-3.051-.11-5.066-2.29-5.15-2.381a.69.69 0 0 1 1.02-.931c.017.017 1.724 1.844 4.18 1.933.38.014.68.335.666.716a.69.69 0 0 1-.691.663" style="fill:#211d1d;fill-opacity:1;fill-rule:nonzero;stroke:none;stroke-width:.0352778" transform="translate(210.924 -1.881)scale(.79991)"/><path d="M-118.697 59.995s1.553 1.5 4.728.596z" style="fill:#f4fbfd;fill-opacity:1;fill-rule:nonzero;stroke:none;stroke-width:.0352778" transform="translate(210.924 -1.881)scale(.79991)"/><path d="M-115.91 61.572c-2.116 0-3.21-1.023-3.266-1.08a.691.691 0 0 1 .952-.998c.067.057 1.369 1.2 4.068.434a.691.691 0 1 1 .377 1.33c-.8.226-1.51.314-2.13.314" style="fill:#211d1d;fill-opacity:1;fill-rule:nonzero;stroke:none;stroke-width:.0352778" transform="translate(210.924 -1.881)scale(.79991)"/><path d="m-117.102 67.852 16.16-.396-.948 38.499-32.893 16.302-18.821-23.964 16.729-23.174z" style="fill:#fff;fill-opacity:1;fill-rule:nonzero;stroke:none;stroke-width:.0352778" transform="translate(210.924 -1.881)scale(.79991)"/><path d="M-165.796 27.871c6.223 5.267 26.056 45.008 38.467 59.217 1.693 1.94 4.283 4.908 5.115 7.68.3.999.37 1.976.088 2.869-.994 3.16-13.617 6.29-16.813 6.466-8.446.466-17.477-4.149-23.647-10.21-6.17-6.057-11.197-14.89-14.636-22.948-3.962-9.281-6.012-22.69-1.927-31.792 3.415-7.595 10.277-11.543 12.132-11.853.314-.05.724.148 1.221.571" style="fill:#e6da3f;fill-opacity:1;fill-rule:nonzero;stroke:none;stroke-width:.0352778" transform="translate(210.924 -1.881)scale(.79991)"/><path d="M-166.918 27.966c-1.414.237-8.195 3.853-11.617 11.466-4.04 8.996-1.94 22.175 1.93 31.249 2.335 5.468 7.32 15.691 14.488 22.733 6.717 6.597 15.593 10.442 23.14 10.019 3.753-.208 15.405-3.443 16.21-5.998.222-.702.19-1.534-.092-2.473-.79-2.635-3.31-5.52-4.978-7.433-6.646-7.612-15.35-22.4-23.03-35.447-6.448-10.957-12.54-21.307-15.363-23.696-.487-.416-.684-.42-.688-.42m26.822 76.843c-7.648 0-16.334-3.923-22.962-10.436-7.335-7.203-12.411-17.603-14.782-23.163-3.99-9.342-6.131-22.962-1.922-32.332 3.46-7.698 10.442-11.875 12.636-12.242.526-.084 1.087.145 1.767.724 2.996 2.536 8.859 12.502 15.653 24.038 7.648 12.996 16.32 27.728 22.885 35.246 1.743 2 4.378 5.016 5.25 7.93.36 1.203.39 2.3.087 3.264-1.17 3.728-14.315 6.766-17.42 6.939-.391.021-.793.032-1.192.032" style="fill:#211d1d;fill-opacity:1;fill-rule:nonzero;stroke:none;stroke-width:.0352778" transform="translate(210.924 -1.881)scale(.79991)"/><path d="M-164.198 25.677c4.089 3.588 14.32 23.184 24.031 39.511 4.258 7.158 8.33 13.765 11.885 17.988 1.591 1.895 4.026 4.784 4.777 7.461.272.967.325 1.902.039 2.756-1.006 3.012-13.17 5.792-16.239 5.902-8.113.3-16.7-4.29-22.52-10.217-5.818-5.923-10.493-14.488-13.657-22.281-3.648-8.975-5.39-21.876-1.316-30.537 3.401-7.228 10.05-10.89 11.836-11.155.3-.045.691.156 1.164.572" style="fill:#fcfbe7;fill-opacity:1;fill-rule:nonzero;stroke:none;stroke-width:.0352778" transform="translate(210.924 -1.881)scale(.79991)"/><path d="M-165.277 25.723c-1.366.2-7.945 3.556-11.36 10.805-4.029 8.566-2.236 21.259 1.33 30.036 2.149 5.288 6.763 15.19 13.526 22.08 6.339 6.453 14.785 10.294 22.052 10.03 3.609-.13 14.855-3.038 15.67-5.479.226-.674.212-1.478-.046-2.388-.716-2.55-3.087-5.366-4.653-7.229-3.746-4.448-8.131-11.659-11.945-18.072-3.023-5.084-6.071-10.44-9.017-15.614-6.251-10.979-12.153-21.343-14.89-23.75-.473-.416-.664-.42-.667-.42m24.842 74.21c-7.426 0-15.875-3.94-22.235-10.417-6.915-7.042-11.607-17.11-13.79-22.483-3.67-9.031-5.493-22.13-1.302-31.037 3.443-7.317 10.202-11.197 12.308-11.508.501-.07 1.03.159 1.669.72 2.893 2.543 8.572 12.516 15.145 24.066 2.945 5.172 5.99 10.52 9.01 15.597 3.788 6.367 8.138 13.529 11.825 17.903 1.637 1.947 4.113 4.886 4.9 7.694.324 1.157.335 2.205.028 3.122-1.16 3.479-13.928 6.223-16.806 6.329q-.375.014-.752.014" style="fill:#211d1d;fill-opacity:1;fill-rule:nonzero;stroke:none;stroke-width:.0352778" transform="translate(210.924 -1.881)scale(.79991)"/><path d="M-123.466 93.393c-1.006 3.012-13.17 5.792-16.239 5.902-8.113.3-16.7-4.29-22.52-10.217-5.818-5.923-10.492-14.488-13.657-22.281-3.648-8.975-5.39-21.876-1.316-30.537 3.401-7.228 10.05-10.89 11.836-11.155.3-.045.691.156 1.164.572l.021.088c-4.328 1.944-8.008 5.398-10.311 9.673-2.685 4.985-3.465 10.93-2.897 16.627.568 5.7 2.41 11.2 4.696 16.425 2.896 6.625 6.576 12.975 11.564 18.094 4.988 5.115 11.37 8.943 18.295 9.945 6.921 1.002 14.358-.773 19.297-5.881l.028-.01c.272.966.325 1.9.039 2.755" style="fill:#fff;fill-opacity:1;fill-rule:nonzero;stroke:none;stroke-width:.0352778" transform="translate(210.924 -1.881)scale(.79991)"/><path d="M-165.771 25.857c-2.04.705-7.761 4.078-10.866 10.671-4.029 8.566-2.236 21.259 1.33 30.036 2.149 5.288 6.763 15.19 13.526 22.08 6.339 6.453 14.785 10.294 22.052 10.03 3.609-.13 14.855-3.038 15.67-5.479.134-.395.184-.836.148-1.312-4.752 4.35-11.761 6.31-19.01 5.263-6.587-.952-13.212-4.55-18.649-10.128-4.515-4.629-8.34-10.608-11.69-18.277-2.731-6.245-4.238-11.522-4.746-16.613-.437-4.42-.278-10.954 2.967-16.986 2.135-3.958 5.39-7.21 9.268-9.285m25.336 74.076c-7.426 0-15.875-3.94-22.235-10.417-6.915-7.042-11.607-17.11-13.79-22.483-3.67-9.031-5.493-22.13-1.302-31.037 3.443-7.317 10.202-11.197 12.308-11.508.501-.07 1.03.159 1.669.72l.141.127.201.783-.476.215c-4.216 1.895-7.775 5.232-10.023 9.402-3.097 5.753-3.245 12.022-2.825 16.27.494 4.956 1.972 10.114 4.646 16.235 3.295 7.531 7.038 13.387 11.444 17.907 5.246 5.383 11.617 8.85 17.935 9.764 7.281 1.055 14.295-1.076 18.76-5.697l.11-.113.762-.24.205.607c.324 1.157.335 2.205.028 3.122-1.16 3.479-13.928 6.223-16.806 6.329q-.375.014-.752.014" style="fill:#211d1d;fill-opacity:1;fill-rule:nonzero;stroke:none;stroke-width:.0352778" transform="translate(210.924 -1.881)scale(.79991)"/><path d="M-159.474 35.71c-.452-.89-.822-1.965-1.425-2.748s-1.288-1.746-2.248-1.789c-1.637-.074-2.871 1.443-3.834 2.815-1.51 2.156-3.024 4.311-4.534 6.463-1.252 1.785-2.568 3.846-2.19 6.026.218 1.273 1.012 2.381 1.986 3.192.97.808 2.12 1.351 3.267 1.852a60.9 60.9 0 0 0 18.513 4.788c.343.031.896.003 1.419-.089.596-.105.889-.814.546-1.34-2.067-3.168-8.435-13.12-11.5-19.17" style="fill:#e6da3f;fill-opacity:1;fill-rule:nonzero;stroke:none;stroke-width:.0352778" transform="translate(210.924 -1.881)scale(.79991)"/><path d="M-163.263 31.843c-1.22 0-2.244 1.214-3.168 2.533l-.512.73c-1.34 1.913-2.68 3.821-4.021 5.733-1.231 1.757-2.406 3.63-2.078 5.525.173.998.797 1.99 1.753 2.787.932.776 2.043 1.29 3.105 1.753a60 60 0 0 0 18.309 4.734c.257.025.74.007 1.238-.08.067-.011.099-.06.117-.1a.22.22 0 0 0-.018-.211c-.822-1.26-8.135-12.524-11.54-19.23v-.004a24 24 0 0 1-.416-.892c-.278-.625-.571-1.27-.938-1.75l-.099-.13c-.494-.643-1.051-1.37-1.647-1.394zm13.638 25.15a4 4 0 0 1-.374-.014 61.3 61.3 0 0 1-18.722-4.844c-1.1-.476-2.363-1.062-3.429-1.95-1.202-1.002-1.99-2.276-2.218-3.592-.417-2.399.91-4.54 2.303-6.526 1.34-1.912 2.681-3.82 4.022-5.733l.511-.73c.727-1.04 2.233-3.196 4.414-3.105 1.224.057 2.014 1.094 2.652 1.923l.1.127c.465.603.786 1.323 1.1 2.021.13.286.257.572.392.837 3.369 6.646 10.646 17.85 11.465 19.106.286.444.331.995.123 1.478-.2.47-.617.8-1.114.893-.41.07-.847.109-1.225.109" style="fill:#211d1d;fill-opacity:1;fill-rule:nonzero;stroke:none;stroke-width:.0352778" transform="translate(210.924 -1.881)scale(.79991)"/><path d="M-128.93 84.577c.68.691 1.421 1.45 1.527 2.43.085.79-.282 1.577-.819 2.142-.532.568-1.22.945-1.912 1.284-1.104.55-2.254.924-3.418 1.295-1.305.42-2.53 1.008-3.88 1.294-1.359.286-2.788.328-4.114-.11-1.326-.433-2.53-1.382-3.104-2.698-.374-.85-.47-1.8-.512-2.73-.201-4.445 1.027-8.661 1.274-13.06.098-1.782.356-4.953.54-6.728.102-1.002.69-3.916 1.57-2.194 3.068 6.015 7.45 13.603 12.847 19.075" style="fill:#e6da3f;fill-opacity:1;fill-rule:nonzero;stroke:none;stroke-width:.0352778" transform="translate(210.924 -1.881)scale(.79991)"/><path d="M-142.29 65.978a8.6 8.6 0 0 0-.388 1.785 172 172 0 0 0-.54 6.7c-.103 1.823-.37 3.637-.635 5.386-.37 2.477-.752 5.038-.635 7.603.039.843.116 1.725.451 2.49.462 1.059 1.471 1.93 2.7 2.332 1.086.357 2.352.388 3.767.089.804-.17 1.563-.456 2.367-.759.466-.176.952-.356 1.446-.515 1.045-.335 2.23-.716 3.323-1.256.724-.356 1.292-.688 1.726-1.146.455-.48.695-1.083.638-1.61-.081-.75-.72-1.4-1.337-2.028-4.36-4.416-8.576-10.657-12.883-19.07m2.885 27.933q-1.255-.001-2.353-.356c-1.608-.53-2.889-1.648-3.51-3.073-.423-.966-.522-2-.564-2.97-.124-2.695.268-5.32.649-7.864.257-1.718.525-3.496.62-5.263.1-1.75.353-4.91.544-6.76.095-.927.437-3.107 1.531-3.312.36-.067.875.032 1.309.886 4.276 8.375 8.438 14.559 12.728 18.905v.003c.71.717 1.588 1.61 1.718 2.83.099.924-.264 1.898-.998 2.674-.607.642-1.373 1.065-2.106 1.429-1.186.585-2.42.98-3.507 1.33-.466.148-.935.324-1.386.493-.815.307-1.658.625-2.565.815q-1.103.234-2.11.233" style="fill:#211d1d;fill-opacity:1;fill-rule:nonzero;stroke:none;stroke-width:.0352778" transform="translate(210.924 -1.881)scale(.79991)"/><path d="M-169.793 52.827c-.988-.515-2.307-1.059-2.98.169a1.8 1.8 0 0 0-.216.797c-.127 3.175 1.273 6.379 1.81 9.511.314 1.831.867 3.835 2.402 4.794 1.782 1.112 2.85.325 4.773-.472 5.07-2.1 10.732-3.863 15.805-5.962.592-.247 1.199-.501 1.679-.939.596-.543.973-1.428.557-2.222a1.095 1.095 0 0 0-1.104-.579c-5.56.667-15.741-1.453-22.726-5.097" style="fill:#e6da3f;fill-opacity:1;fill-rule:nonzero;stroke:none;stroke-width:.0352778" transform="translate(210.924 -1.881)scale(.79991)"/><path d="M-171.56 52.922c-.36 0-.508.19-.625.399a1.2 1.2 0 0 0-.134.5c-.077 1.937.466 3.962.991 5.924.3 1.129.614 2.296.812 3.446.268 1.577.751 3.496 2.095 4.336 1.224.765 1.94.448 3.37-.183.25-.11.51-.223.79-.34 2.55-1.057 5.288-2.042 7.934-2.994 2.628-.946 5.348-1.926 7.87-2.97.533-.22 1.087-.449 1.485-.812.388-.356.667-.928.413-1.415a.42.42 0 0 0-.427-.222c-5.923.713-16.291-1.609-23.117-5.168-.702-.367-1.154-.501-1.457-.501m4.48 16.397c-.628 0-1.295-.176-2.053-.653-1.796-1.121-2.392-3.393-2.71-5.249-.187-1.09-.476-2.173-.786-3.323-.55-2.057-1.119-4.188-1.034-6.329a2.5 2.5 0 0 1 .3-1.09c1.051-1.923 3.182-.808 3.884-.444 6.618 3.453 16.637 5.707 22.33 5.023a1.78 1.78 0 0 1 1.782.938c.586 1.122.07 2.329-.702 3.03-.571.523-1.263.809-1.873 1.063-2.55 1.054-5.285 2.039-7.93 2.991-2.632.95-5.356 1.926-7.874 2.97-.272.114-.522.223-.762.329-.879.388-1.687.744-2.572.744" style="fill:#211d1d;fill-opacity:1;fill-rule:nonzero;stroke:none;stroke-width:.0352778" transform="translate(210.924 -1.881)scale(.79991)"/><path d="M-143.638 63.251c.123-.702-.54-1.28-1.182-1.023-3.644 1.447-13.536 6.647-18.13 7.557-.793.158-1.604.296-2.334.652-.727.36-1.383.978-1.591 1.792-.297 1.158.366 2.332 1.04 3.31 2.95 4.268 6.742 7.905 11.074 10.615 1.577.987 3.552 1.862 5.182.99 1.584-.846 2.064-2.92 2.374-4.74.681-3.976 2.547-13.41 3.567-19.153" style="fill:#e6da3f;fill-opacity:1;fill-rule:nonzero;stroke:none;stroke-width:.0352778" transform="translate(210.924 -1.881)scale(.79991)"/><path d="m-144.502 62.839-.067.014c-1.126.448-2.868 1.263-4.883 2.205-4.515 2.116-10.135 4.748-13.367 5.386l-.215.043c-.702.137-1.369.268-1.954.557-.646.318-1.097.812-1.235 1.351-.23.896.346 1.898.942 2.759 2.882 4.177 6.643 7.782 10.876 10.432 1.958 1.224 3.433 1.541 4.509.966 1.32-.705 1.739-2.571 2.028-4.265.342-1.99.98-5.351 1.658-8.915.688-3.623 1.4-7.37 1.909-10.24a.25.25 0 0 0-.088-.248.17.17 0 0 0-.113-.045m-6.548 25.336c-1.171 0-2.519-.48-4.07-1.45-4.386-2.744-8.284-6.48-11.269-10.805-.723-1.045-1.502-2.428-1.14-3.856.237-.925.946-1.736 1.948-2.23.745-.363 1.531-.518 2.29-.667l.211-.042c3.07-.61 8.608-3.203 13.057-5.285 2.035-.952 3.796-1.778 4.956-2.24a1.52 1.52 0 0 1 1.531.24 1.6 1.6 0 0 1 .558 1.528c-.508 2.878-1.22 6.628-1.909 10.258-.677 3.553-1.316 6.911-1.654 8.89-.247 1.45-.71 4.146-2.72 5.222a3.7 3.7 0 0 1-1.789.437" style="fill:#211d1d;fill-opacity:1;fill-rule:nonzero;stroke:none;stroke-width:.0352778" transform="translate(210.924 -1.881)scale(.79991)"/><path d="m-110.73 100.258-6.372-12.961-5.8-1.475-5.891-.392-3.803.688-3.517-1.573-16.066-3.242-14.732-2.748-9.03 2.064-2.855 8.247 17.777 12.669 19.106 6.385 24.335-3.044z" style="fill:#fff;fill-opacity:1;fill-rule:nonzero;stroke:none;stroke-width:.0352778" transform="translate(210.924 -1.881)scale(.79991)"/><path d="M-102.744 142.051c-2.261 1.842-5.048 3.874-8.551 5.281-2.84 1.143-6.107 1.972-9.582 2.752-3.062.684-6.385.885-9.828 1.235-3.172.324-6.463.832-9.867.832-3.401 0-6.728-.13-9.903-.455-3.44-.353-6.713-1.009-9.775-1.693-3.475-.776-6.625-1.905-9.465-3.045-3.066-1.23-5.726-2.596-7.857-4.155 3.51 41.36 7.352 86.843 7.352 87.788 0 1.93 1.22 3.73 3.528 5.324 1.644 1.136 3.8 2.11 6.343 2.977 2.064.702 4.35 1.397 6.872 1.877 2.226.42 4.604.826 7.101 1.04 2.304.202 4.717.283 7.19.283 2.47 0 4.861-.314 7.165-.512 2.498-.218 4.91-.342 7.137-.762 2.522-.48 4.893-.99 6.956-1.693 2.544-.868 4.565-2.12 6.21-3.256 2.306-1.595 3.047-3.1 3.047-5.034 0-.97 4.297-48.55 8.061-90.791a19.6 19.6 0 0 1-2.134 2.007" style="fill:#fcf8df;fill-opacity:1;fill-rule:nonzero;stroke:none;stroke-width:.0352778" transform="translate(210.924 -1.881)scale(.79991)"/><path d="M-101.224 100.215c-2.26 1.842-5.048 3.874-8.55 5.281-2.84 1.143-6.107 1.972-9.579 2.752-3.065.684-6.389.886-9.832 1.235-3.171.324-6.463.832-9.867.832-3.4 0-6.727-.13-9.902-.455-3.44-.352-6.714-1.009-9.776-1.693-3.475-.776-6.625-1.905-9.465-3.045-3.503-1.407-6.473-2.991-8.735-4.833-2.755-2.243-4.381-4.734-4.77-7.4h-.116c1.07 12.547 2.622 30.79 4.244 49.914 2.131 1.559 4.791 2.924 7.857 4.155 2.84 1.14 5.99 2.269 9.465 3.045 3.062.684 6.336 1.34 9.775 1.693 3.175.325 6.502.455 9.903.455 3.404 0 6.695-.508 9.867-.832 3.443-.35 6.766-.55 9.828-1.235 3.475-.78 6.742-1.609 9.582-2.752 3.503-1.407 6.29-3.44 8.551-5.28q1.201-.98 2.134-2.008a17356 17356 0 0 0 4.075-46.175c-.65 2.272-2.28 4.381-4.689 6.346" style="fill:#fffefa;fill-opacity:1;fill-rule:nonzero;stroke:none;stroke-width:.0352778" transform="translate(210.924 -1.881)scale(.79991)"/><path d="M-180.662 97.439c4.364 51.255 11.208 131.833 11.208 133.152 0 1.648 1.076 3.228 3.196 4.696 1.51 1.04 3.524 1.986 6.156 2.882 1.739.593 4.078 1.337 6.77 1.849 2.032.384 4.459.811 7.02 1.033 2.162.187 4.494.275 7.126.275 1.824 0 3.63-.176 5.376-.345q.87-.087 1.722-.163.81-.067 1.598-.13c1.933-.152 3.754-.296 5.465-.62 2.187-.417 4.713-.94 6.85-1.666 2.533-.864 4.548-2.145 6.019-3.16 2.258-1.564 2.723-2.89 2.723-4.407 0-.639 1.52-17.484 4.209-47.198 2.586-28.568 5.768-63.737 7.712-86.057-.826 1.073-1.902 2.145-3.228 3.228-2.127 1.732-5.041 3.909-8.75 5.398-3.054 1.227-6.617 2.099-9.697 2.786-2.455.55-5.016.787-7.726 1.041q-1.09.1-2.19.212c-.78.077-1.567.17-2.357.26-2.448.283-4.981.576-7.592.576-3.683 0-6.946-.152-9.98-.462-3.612-.367-7.013-1.07-9.867-1.708-2.985-.666-5.941-1.615-9.578-3.08-3.796-1.523-6.72-3.143-8.936-4.949q-2.016-1.643-3.249-3.443m41.476 145.419c-2.678 0-5.052-.096-7.257-.286-2.631-.23-5.104-.66-7.175-1.052-2.173-.412-4.325-1.001-6.975-1.905-2.772-.941-4.907-1.947-6.533-3.069-2.561-1.77-3.856-3.774-3.856-5.955-.025-1.217-4.36-52.673-11.596-137.64l-.07-.85 1.615.043.092.635c.353 2.452 1.866 4.776 4.495 6.918 2.095 1.707 4.89 3.252 8.537 4.716 3.56 1.43 6.442 2.357 9.345 3.006 2.808.628 6.152 1.32 9.687 1.68 2.981.306 6.195.45 9.825.45 2.522 0 5.01-.285 7.415-.56a154 154 0 0 1 4.58-.476c2.663-.25 5.175-.484 7.535-1.013 3.023-.674 6.509-1.524 9.461-2.713 3.518-1.41 6.312-3.503 8.354-5.164 2.501-2.04 3.99-3.98 4.547-5.934l1.496.275c-1.898 21.975-5.302 59.588-8.036 89.81-2.247 24.818-4.188 46.253-4.205 47.068 0 2.325-1.013 4.018-3.38 5.655-1.556 1.076-3.686 2.427-6.396 3.351-2.23.759-4.819 1.295-7.062 1.722-1.789.339-3.652.487-5.624.642q-.788.063-1.587.13-.847.075-1.708.16c-1.781.176-3.623.356-5.524.356" style="fill:#211d1d;fill-opacity:1;fill-rule:nonzero;stroke:none;stroke-width:.0352778" transform="translate(210.924 -1.881)scale(.79991)"/><path d="M-139.2 94.924c-3.796 0-7.158-.152-10.28-.462-3.722-.367-7.225-1.07-10.164-1.708-3.072-.667-6.117-1.616-9.867-3.076-3.905-1.524-6.914-3.143-9.197-4.946-3.517-2.78-5.298-5.888-5.298-9.243a.765.765 0 1 1 1.53 0c0 2.861 1.588 5.57 4.717 8.043 2.16 1.708 5.042 3.253 8.806 4.72 3.669 1.433 6.642 2.36 9.634 3.01 2.896.628 6.346 1.32 9.99 1.68 3.073.302 6.386.45 10.129.45 2.6 0 5.165-.285 7.645-.564.825-.092 1.64-.183 2.448-.26a174 174 0 0 1 2.268-.213c2.745-.25 5.338-.486 7.772-1.012 3.115-.677 6.713-1.528 9.758-2.716 3.626-1.412 6.509-3.507 8.615-5.169 3.228-2.554 4.864-5.235 4.864-7.969a.765.765 0 1 1 1.531 0c0 3.225-1.834 6.308-5.45 9.165-2.187 1.732-5.19 3.91-9.006 5.398-3.144 1.224-6.812 2.095-9.987 2.783-2.526.55-5.165.787-7.96 1.04-.744.068-1.498.139-2.253.213-.805.077-1.613.169-2.428.26-2.522.283-5.132.576-7.817.576" style="fill:#211d1d;fill-opacity:1;fill-rule:nonzero;stroke:none;stroke-width:.0352778" transform="translate(210.924 -1.881)scale(.79991)"/><path d="M-175.37 168.82c2.744 32.406 5.15 61.024 5.15 61.771 0 1.93 1.22 3.73 3.528 5.324 1.644 1.136 3.8 2.11 6.346 2.977 2.06.706 4.347 1.4 6.869 1.877 2.223.423 4.604.826 7.101 1.044 2.304.198 4.717.279 7.19.279 2.47 0 4.858-.31 7.165-.512 2.494-.215 4.91-.342 7.133-.762 2.526-.48 4.9-.99 6.957-1.696 2.547-.865 4.568-2.117 6.212-3.257 2.307-1.59 3.052-3.097 3.052-5.027 0-.663 1.986-22.846 4.438-50.253l-3.52 21.668c-.78 4.798-2.7 9.345-5.712 13.077-1.01 1.253-1.994 2.226-2.82 2.73-3.223 1.973-5.23 2.625-7.806 3.116-2.275.43-9.761 1.489-15.483 1.489-5.313 0-12.034-1.15-14.306-1.58-2.575-.488-7.725-1.91-11.289-5.85-4.833-5.348-4.642-8.816-5.217-10.922z" style="fill:#f4fbfd;fill-opacity:1;fill-rule:nonzero;stroke:none;stroke-width:.0352778" transform="translate(210.924 -1.881)scale(.79991)"/><path d="M-172.573 193.687c1.648 19.558 3.045 36.308 3.045 36.904 0 1.673 1.086 3.274 3.228 4.756 1.513 1.044 3.534 1.99 6.177 2.893 2.578.878 4.667 1.45 6.773 1.852 2.046.384 4.484.811 7.034 1.03 2.142.187 4.474.279 7.13.279 1.834 0 3.644-.177 5.398-.35q.862-.085 1.707-.158.794-.068 1.577-.131c1.94-.152 3.771-.3 5.49-.624 2.313-.438 4.748-.946 6.86-1.669 2.54-.864 4.566-2.148 6.044-3.172 2.282-1.576 2.751-2.924 2.751-4.459 0-.515 1.006-11.881 2.73-31.178l-.44 2.706c-.819 5.034-2.843 9.666-5.853 13.398-.765.95-1.905 2.216-2.998 2.886-3.341 2.042-5.401 2.702-8.04 3.203-2.113.402-9.74 1.5-15.61 1.5-5.768 0-13.036-1.323-14.436-1.588-2.787-.53-8.012-2.021-11.67-6.068-4.1-4.537-4.713-7.82-5.119-9.99a15 15 0 0 0-.254-1.21l-.017-.085zm33.387 49.093c-2.695 0-5.07-.092-7.25-.279-2.61-.226-5.09-.66-7.172-1.051-2.815-.536-5.323-1.344-6.963-1.905-2.763-.942-4.893-1.944-6.513-3.062-2.54-1.753-3.827-3.736-3.827-5.892-.014-.78-1.842-22.697-5.147-61.711l1.372-.155 4.981 35.45c.106.392.184.822.268 1.277.403 2.142.95 5.073 4.784 9.32 3.387 3.744 8.287 5.137 10.908 5.635 1.376.26 8.53 1.566 14.175 1.566 5.771 0 13.275-1.083 15.356-1.478 2.473-.47 4.413-1.09 7.574-3.023.72-.441 1.658-1.355 2.642-2.576 2.861-3.545 4.784-7.955 5.564-12.753l3.524-21.67 1.369.172c-2.272 25.39-4.42 49.368-4.435 50.197 0 2.296-1.002 3.972-3.351 5.595-1.549 1.069-3.68 2.42-6.382 3.34-2.194.752-4.685 1.27-7.048 1.719-1.792.338-3.659.487-5.638.645a127 127 0 0 0-3.26.286c-1.784.173-3.63.353-5.531.353" style="fill:#211d1d;fill-opacity:1;fill-rule:nonzero;stroke:none;stroke-width:.0352778" transform="translate(210.924 -1.881)scale(.79991)"/><path d="M-131.622 73.006c1.598-5.458 4.413-3.37 7.415-4.71 2.857-1.274 3.746-5.923 6.907-5.196 1.13.26 2.233 1.326 3.44 1.072 1.323-.275 2.046-2.081 3.5-1.556 2.067.748 6.233 3.172 6.614 5.31z" style="fill:#fff;fill-opacity:1;fill-rule:nonzero;stroke:none;stroke-width:.0352778" transform="translate(210.924 -1.881)scale(.79991)"/><path d="M-131.622 73.732a.7.7 0 0 1-.201-.031.726.726 0 0 1-.494-.9c1.245-4.247 3.333-4.449 5.351-4.643.812-.077 1.648-.158 2.466-.522 1.02-.455 1.806-1.492 2.568-2.49 1.168-1.538 2.491-3.281 4.795-2.752.504.116.973.35 1.425.575.614.31 1.196.6 1.704.494.363-.074.72-.37 1.097-.688.653-.543 1.549-1.291 2.797-.84 1.722.621 6.6 3.168 7.08 5.86a.725.725 0 1 1-1.425.258c-.292-1.627-3.894-3.94-6.148-4.756-.427-.155-.717.039-1.376.593-.473.395-1.01.843-1.729.991-1.002.212-1.877-.23-2.65-.614-.394-.197-.765-.384-1.1-.462-1.323-.303-2.124.646-3.316 2.216-.833 1.093-1.774 2.331-3.133 2.938-1.033.459-2.032.558-2.914.642-1.887.18-3.132.304-4.102 3.61a.73.73 0 0 1-.695.521" style="fill:#211d1d;fill-opacity:1;fill-rule:nonzero;stroke:none;stroke-width:.0352778" transform="translate(210.924 -1.881)scale(.79991)"/><path d="M-145.356 45.362c-.737 0-.737 1.178 0 1.178.734 0 .734-1.178 0-1.178m-28.346 36.198c-1.125.244-.762 2.05.364 1.81 1.125-.243.762-2.053-.364-1.81m39.649-23.794c-1.623-.886-2.96 1.714-1.334 2.603 1.623.886 2.96-1.714 1.334-2.603m4.307 1.354c-1.622-.885-2.96 1.715-1.333 2.604 1.623.889 2.96-1.715 1.333-2.604m-20.891 22.208c-1.591.942-.18 3.5 1.415 2.56 1.594-.941.183-3.499-1.415-2.56m4.731-.752c-.992.582-.113 2.173.878 1.588.988-.582.113-2.173-.878-1.588m13.074-17.476c-.519-.283-.953.317-.784.755-.292-.085-.508.373-.204.54.226.123.42-.089.409-.29l.046.035c.645.357 1.182-.684.533-1.04m.832 1.206c-.324-.176-.589.342-.264.519.324.18.589-.343.264-.519m3.327-15.042c-.37 0-.37.589 0 .589.367 0 .367-.59 0-.59m3.704.001c-.367 0-.367.589 0 .589s.37-.59 0-.59m1.569 1.99c-.366 0-.366.59 0 .59.368 0 .368-.59 0-.59m-1.996 1.401c-.367 0-.367.589 0 .589s.367-.59 0-.59m-3.708-1.326c-.366 0-.366.59 0 .59.367 0 .367-.59 0-.59m-2.423.441c-.367 0-.367.59 0 .59s.367-.59 0-.59m-14.362 32.953c-.317.187-.035.699.282.512.318-.187.036-.699-.282-.512m3.422-1.679a.27.27 0 0 0-.134.201.25.25 0 0 0-.236.018c-.318.187-.036.702.282.511a.26.26 0 0 0 .134-.2c.07.031.152.031.236-.018.321-.187.04-.699-.282-.512m.921-2.494c-.318.19-.035.702.286.512.317-.187.035-.699-.286-.512m-20.422.24c-.367 0-.367.589 0 .589s.367-.59 0-.59m10.915 4.689c-.318.187-.036.699.282.512s.035-.699-.282-.512m-4.844-2.233c-.321.19-.039.702.282.512.318-.187.035-.699-.282-.512m1.873 1.609c-.638.377-.074 1.4.565 1.026.638-.377.074-1.4-.565-1.026m.427-2.202c-.638.378-.074 1.401.565 1.027.635-.377.07-1.4-.565-1.026m-11.366-5.398c-.734 0-.734 1.178 0 1.178.733 0 .733-1.178 0-1.178m56.084-2.431c-.053 0-.099.011-.144.015.254-.336.116-.97-.427-.97-.702 0-.727 1.072-.078 1.16-.24.18-.388.455-.434.755-.05.141-.05.3 0 .44.078.509.441.957 1.083.957 1.468 0 1.471-2.357 0-2.357m-3.969 2.505c-.733 0-.733 1.178 0 1.178.734 0 .734-1.178 0-1.178m11.265-2.357c-.734 0-.734 1.179 0 1.179.733 0 .733-1.178 0-1.178m-4.135 3.534c-.734 0-.734 1.179 0 1.179s.734-1.179 0-1.179m-13.832-5.45c-.734 0-.734 1.178 0 1.178.733 0 .737-1.178 0-1.178m17.113-13.589c-.173 0-.3.067-.392.166a.52.52 0 0 0-.3.155l-.07.074c-.519.536.29 1.369.808.833l.07-.074c.604-.127.572-1.154-.116-1.154m-6.131.222c-.738 0-.738 1.179 0 1.179.733 0 .733-1.179 0-1.179" style="fill:#e9dba5;fill-opacity:1;fill-rule:nonzero;stroke:none;stroke-width:.0352778" transform="translate(210.924 -1.881)scale(.79991)"/><path d="M-107.214 59.833c-.737 0-.737 1.182 0 1.182.734 0 .734-1.182 0-1.182m-20.214 4.053c-.649-.352-1.185.688-.536 1.045.649.352 1.185-.688.536-1.045m-4.102-7.577c-.65-.353-1.186.688-.537 1.044.65.353 1.185-.688.536-1.044m-9.859.194c-.65-.357-1.186.684-.534 1.04.65.357 1.182-.684.533-1.04m4.413 2.247c-.649-.356-1.181.684-.532 1.04.649.357 1.182-.684.532-1.04m10.016-10.442c-.734 0-.738 1.178 0 1.178.734 0 .734-1.178 0-1.178m5.701-.223c-.734 0-.734 1.179 0 1.179.733 0 .737-1.179 0-1.179m-4.777 2.875c-.734 0-.734 1.179 0 1.179s.737-1.178 0-1.178m-54.021 21.569c-.529.525.258 1.375.79.85.53-.523-.257-1.376-.79-.85m32.064-29.232c-.734 0-.737 1.178 0 1.178.734 0 .734-1.178 0-1.178m5.204-1.989c-.734 0-.734 1.181 0 1.181.733 0 .737-1.181 0-1.181m-37.67 33.556c-.53.525.261 1.376.79.85.53-.522-.257-1.376-.79-.85m44.016 10.121c-.67 0-.674 1.083 0 1.083s.674-1.083 0-1.083m-3.231-1.471c-.734 0-.738 1.178 0 1.178.733 0 .733-1.178 0-1.178m29.323-4.125c-2.202 0-2.205 3.536 0 3.536s2.208-3.535 0-3.535m7.842-17.717c-1.468 0-1.468 2.357 0 2.357s1.47-2.357 0-2.357m-13.974 18.158c-1.467 0-1.467 2.356 0 2.356s1.471-2.356 0-2.356m-20.475-26.155c-.97-.533-1.774 1.03-.8 1.563.973.529 1.777-1.03.8-1.563m-33.341 26.698c-1.485.321-1.005 2.706.483 2.385 1.486-.321 1.006-2.706-.483-2.385" style="fill:#e9dba5;fill-opacity:1;fill-rule:nonzero;stroke:none;stroke-width:.0352778" transform="translate(210.924 -1.881)scale(.79991)"/><path d="M-116.696 87.861s-2.925-5.969-9.056-3.905-6.774 3.609-9.052.589c-3.056-4.043-5.564-8.597-10.552-8.692-3.993-.071-6.865 3.548-9.151 2.917-2.145-.593-9.557-9.077-14.094-.829 0 0-7.13.713-7.2 2.628z" style="fill:#fff;fill-opacity:1;fill-rule:nonzero;stroke:none;stroke-width:.0352778" transform="translate(210.924 -1.881)scale(.79991)"/><path d="M-116.696 88.584a.73.73 0 0 1-.653-.405c-.113-.23-2.734-5.366-8.17-3.535-1.49.5-2.657.973-3.595 1.35-2.893 1.172-4.216 1.708-6.269-1.012a97 97 0 0 1-1.256-1.71c-2.466-3.405-4.794-6.622-8.731-6.693-1.88-.035-3.574.882-5.055 1.69-1.493.811-2.9 1.58-4.273 1.2-.6-.166-1.326-.681-2.335-1.39-2.078-1.472-4.928-3.479-7.465-2.897-1.337.307-2.501 1.355-3.468 3.108l-.183.335-.377.036c-3.602.363-6.527 1.354-6.552 1.933a.734.734 0 0 1-.747.698.725.725 0 0 1-.699-.751c.081-2.184 4.988-3.006 7.479-3.28 1.14-1.934 2.561-3.109 4.223-3.49 3.171-.73 6.452 1.588 8.625 3.122.752.533 1.531 1.08 1.884 1.178.808.223 1.912-.377 3.193-1.075 1.559-.85 3.489-1.898 5.775-1.867 4.66.085 7.313 3.75 9.88 7.296.407.56.816 1.129 1.236 1.683 1.386 1.834 1.69 1.71 4.572.546.956-.388 2.144-.871 3.676-1.386 6.656-2.237 9.902 4.209 9.934 4.272a.725.725 0 0 1-.65 1.044" style="fill:#211d1d;fill-opacity:1;fill-rule:nonzero;stroke:none;stroke-width:.0352778" transform="translate(210.924 -1.881)scale(.79991)"/><path d="M-143.624 49.535c.811-1.915 2.374-1.492 3.923-.956 1.168.402 1.245.36 2.24.07.812-.232 1.16-.906 2.11-.44z" style="fill:#fff;fill-opacity:1;fill-rule:nonzero;stroke:none;stroke-width:.0352778" transform="translate(210.924 -1.881)scale(.79991)"/><path d="M-143.624 50.258a.726.726 0 0 1-.667-1.005c1.122-2.642 3.532-1.806 4.826-1.358.918.317.918.317 1.725.081l.078-.021c.18-.053.346-.145.519-.244.472-.268 1.121-.638 2.11-.151.359.176.507.61.33.97a.726.726 0 0 1-.97.328c-.3-.145-.37-.106-.754.113-.219.123-.487.275-.833.377l-.077.021c-1.076.31-1.341.332-2.6-.105-1.792-.621-2.516-.628-3.02.554a.72.72 0 0 1-.667.44" style="fill:#211d1d;fill-opacity:1;fill-rule:nonzero;stroke:none;stroke-width:.0352778" transform="translate(210.924 -1.881)scale(.79991)"/></g></svg>