<svg xmlns="http://www.w3.org/2000/svg" xml:space="preserve" width="200mm" height="200mm" viewBox="0 0 200 200"><path d="M116.477 224.358s10.885 1.81 16.005 7.387c5.745 6.262 11.799 27.986-15.082 37.017-13.56 4.554-36.324 11.885-57.092 12.02-30.246.19-59.185-10.976-68.796-16.924-16.071-9.94-13.002-19.932-9.234-27.904 5.335-11.286 16.313-14.672 16.313-14.672H116.17z" style="fill:#eff9f8;fill-opacity:1;fill-rule:nonzero;stroke:none;stroke-width:.0352778" transform="translate(77.826 47.273)scale(.51363)"/><path d="M-1.21 222.499c-1.34.469-10.724 4.06-15.411 13.973-3.703 7.835-6.384 16.976 8.773 26.353 8.888 5.5 36.936 16.74 67.366 16.74h.782c21.524-.139 45.291-8.122 56.713-11.957 10.223-3.436 16.646-9.207 18.575-16.7 2.048-7.952-1.368-15.47-4.003-18.337-4.78-5.211-15.203-6.993-15.308-7.01l-.919-.152-.29-2.91zm60.733 59.503c-30.96 0-59.57-11.49-68.651-17.106-7.55-4.671-11.678-9.751-12.618-15.533-.826-5.077 1.014-9.892 2.924-13.931 5.5-11.635 16.586-15.17 17.055-15.315l.175-.052H117.27l.327 3.27c2.814.582 11.275 2.68 15.782 7.588 3.736 4.071 6.606 12.672 4.566 20.592-1.495 5.806-6.206 13.716-20.157 18.4-11.542 3.878-35.558 11.942-57.472 12.083z" style="fill:#211d1d;fill-opacity:1;fill-rule:nonzero;stroke:none;stroke-width:.0352778" transform="translate(77.826 47.273)scale(.51363)"/><path d="M139.561 61.004c0 5.726-3.214 11.053-9.293 15.78-4.325 3.362-10.01 6.255-16.71 8.823-5.43 2.081-11.456 4.138-18.1 5.556-5.861 1.252-12.122 2.448-18.701 3.09-6.071.593-12.432.833-18.94.833s-12.804-.924-18.875-1.517c-6.58-.642-12.937-1.009-18.799-2.261C13.498 89.893 7.25 88.373 1.82 86.29c-6.701-2.568-12.028-6.283-16.352-9.645-6.078-4.727-9.573-9.916-9.573-15.642 0-5.722 3.562-10.827 9.64-15.554 4.325-3.362 9.663-6.957 16.364-9.525 5.43-2.081 11.559-4.014 18.203-5.433 5.861-1.252 12.214-1.89 18.794-2.53a195 195 0 0 1 18.921-.927c6.508 0 12.836.476 18.906 1.066 6.58.642 12.783 1.936 18.646 3.189 6.644 1.418 12.718 3.146 18.148 5.228 6.702 2.572 12.318 5.493 16.642 8.855 6.078 4.727 9.403 9.909 9.403 15.631" style="fill:#389f9f;fill-opacity:1;fill-rule:nonzero;stroke:none;stroke-width:.0352778" transform="translate(77.826 47.273)scale(.51363)"/><path d="M57.816 28.252c-6.197 0-12.523.31-18.803.921-5.95.579-12.694 1.235-18.658 2.508-5.968 1.274-12.03 3.083-18.021 5.38-7.122 2.73-12.572 6.646-16.052 9.352-6.171 4.798-9.171 9.571-9.171 14.591 0 5.045 3.063 9.984 9.103 14.683 3.918 3.044 9.283 6.875 16.041 9.468 5.667 2.173 12.35 3.73 18.142 4.964 4.534.966 9.354 1.397 14.457 1.852q2.086.183 4.206.388c1.501.145 3.044.314 4.537.48 4.61.504 9.379 1.03 14.22 1.03 6.956 0 13.113-.272 18.822-.826 6.776-.66 13.187-1.922 18.565-3.072 5.566-1.186 11.092-2.883 17.918-5.5 7.006-2.685 12.37-5.514 16.399-8.647 5.854-4.554 8.823-9.539 8.823-14.82 0-5.122-3.005-10.061-8.933-14.668-4.07-3.165-9.564-6.086-16.33-8.682-5.237-2.008-11.282-3.747-17.967-5.176-5.237-1.118-11.754-2.508-18.51-3.164-5.078-.494-11.803-1.062-18.788-1.062m0 68.051c-4.973 0-9.809-.533-14.486-1.044a324 324 0 0 0-4.506-.48 701 701 0 0 0-4.186-.384c-5.179-.46-10.07-.897-14.75-1.895-5.882-1.256-12.681-2.84-18.504-5.073-7.057-2.706-12.613-6.67-16.665-9.821-6.664-5.182-10.042-10.767-10.042-16.602 0-5.82 3.307-11.222 10.11-16.513 3.603-2.801 9.251-6.855 16.675-9.702 6.109-2.342 12.294-4.187 18.385-5.489 6.098-1.302 12.916-1.965 18.93-2.55a198 198 0 0 1 19.04-.932c7.089 0 13.89.572 19.023 1.072 6.894.67 13.485 2.078 18.782 3.207 6.808 1.454 12.976 3.232 18.33 5.285 6.99 2.681 12.695 5.718 16.954 9.031 6.55 5.094 9.872 10.679 9.872 16.591 0 6.071-3.284 11.702-9.763 16.74-4.22 3.284-9.789 6.226-17.022 8.999-6.948 2.663-12.586 4.395-18.28 5.609-5.445 1.164-11.94 2.441-18.838 3.115-5.789.56-12.023.836-19.059.836" style="fill:#211d1d;fill-opacity:1;fill-rule:nonzero;stroke:none;stroke-width:.0352778" transform="translate(77.826 47.273)scale(.51363)"/><path d="M134.594 75.599c.742 5.757-3.087 12.28-10.558 11.401-3.097-.363-5.288-1.824-6.651-3.796a18 18 0 0 1-7.468.674c-1.704-.197-3.36-.674-4.93-1.354-2.409.72-4.893.938-7.454.645l-4.023-.088a14.2 14.2 0 0 1-4.18-.988c-2.79 8.262-10.617 14.08-19.784 13.004-4.33-.508-8.37-2.72-11.37-5.895a18.4 18.4 0 0 1-3.517-.067c-3.12-.367-6.085-1.623-8.627-3.479-3.838 4.537-9.642 7.204-16.108 6.445-3.9-.458-7.557-2.307-10.44-4.988a18 18 0 0 1-3.084-.081C6.75 85.9-1.5 76.332.115 66.419c.185-1.136.472-2.236.833-3.298-1.956-3.33-2.898-7.218-2.254-11.17 1.62-9.944 10.27-17.497 20.612-16.287 2.254.265 4.426 1.002 6.417 2.081 3.793-3.697 9.05-5.767 14.84-5.087 1.551.18 3.59 2.706 5.033 3.292 3.807-3.828 9.149-5.994 15.047-5.302 5.405.631 10.369 3.915 13.408 8.42.5-.25.84-.314 1.343-.455 4.853-1.365 9.22-1.069 14.07 8.513 2.694-.956 5.561-2.364 8.45-2.036 1.34.029 2.338.445 3.945 1.182 1.798.141 3.469.6 5.025 1.344a18 18 0 0 1 7.36-.635c7.326.857 13.834 6.587 15.843 13.628 6.505 2.159 7.669 10.04 4.507 14.99" style="fill:#bae7e0;fill-opacity:1;fill-rule:nonzero;stroke:none;stroke-width:.0352778" transform="translate(77.826 47.273)scale(.51363)"/><path d="m58.662 87.946.398.42c2.934 3.1 6.708 5.062 10.627 5.524 8.139.953 15.743-4.057 18.49-12.185l.41-1.217 1.194.476c1.254.501 2.494.794 3.791.9l4.098.095c2.377.272 4.722.067 6.969-.603l.425-.127.407.176c1.522.66 3.065 1.087 4.588 1.267 2.377.275 4.72.067 6.965-.632l.854-.264.508.737c1.28 1.852 3.283 2.984 5.792 3.28 2.692.315 5.017-.43 6.722-2.155 1.911-1.933 2.865-4.953 2.487-7.88l-.057-.442.238-.37c1.57-2.459 1.94-5.69.965-8.432-.578-1.63-1.885-3.774-4.83-4.748l-.61-.205-.177-.617c-1.883-6.604-8.113-11.97-14.814-12.753a16.8 16.8 0 0 0-6.865.59l-.453.137-.425-.201a13 13 0 0 0-4.596-1.235l-.215-.014-.196-.092c-1.584-.723-2.39-1.044-3.465-1.069l-.112-.007c-2.07-.24-4.272.604-6.4 1.411-.506.194-1.007.385-1.503.561l-1.01.36-.483-.956c-4.694-9.27-8.508-9.06-12.655-7.892l-.29.082c-.34.091-.545.144-.838.292l-.956.477-.598-.886c-2.946-4.367-7.634-7.316-12.54-7.895-5.265-.617-10.253 1.143-14.043 4.953l-.57.575-.75-.303c-.792-.321-1.579-.978-2.411-1.673-.75-.624-1.777-1.478-2.307-1.541-5.166-.603-10.083 1.083-13.848 4.752l-.643.628-.788-.43c-1.932-1.048-3.942-1.701-5.978-1.94C9.932 35.794 1.467 42.5-.105 52.144c-.565 3.472.162 7.053 2.102 10.358l.282.48-.178.526a19.6 19.6 0 0 0-.785 3.108c-.674 4.134.479 8.435 3.246 12.104 2.953 3.912 7.431 6.568 11.98 7.101.887.106 1.83.13 2.88.078l.514-.025.376.35c2.801 2.6 6.265 4.257 9.754 4.666 5.747.674 11.227-1.52 15.037-6.021l.732-.865.916.667c2.463 1.8 5.247 2.924 8.05 3.253 1.058.127 2.163.144 3.284.063zm13.014 8.495q-1.129-.001-2.272-.134c-4.308-.505-8.446-2.58-11.713-5.857-1.079.05-2.144.015-3.173-.105-2.876-.339-5.721-1.397-8.293-3.077-4.302 4.576-10.234 6.77-16.442 6.043-3.841-.451-7.64-2.208-10.748-4.96a19 19 0 0 1-2.776-.109c-5.273-.62-10.245-3.556-13.64-8.057-3.172-4.202-4.488-9.162-3.706-13.96.159-.973.397-1.968.711-2.97-2.025-3.67-2.762-7.63-2.132-11.5C-.726 40.821 8.918 33.218 19.448 34.457c2.068.24 4.106.85 6.07 1.813 4.211-3.771 9.57-5.482 15.186-4.823 1.249.145 2.435 1.133 3.582 2.089.37.31.772.642 1.128.9 4.196-3.842 9.744-5.66 15.37-5 5.298.621 10.359 3.648 13.715 8.16l.303-.084.262-.07c5.514-1.553 10.197-.731 14.984 8.17l.46-.173c2.273-.868 4.849-1.849 7.488-1.567 1.488.046 2.6.483 4.178 1.203 1.67.155 3.283.575 4.806 1.245a19.3 19.3 0 0 1 7.405-.55c7.554.886 14.33 6.565 16.69 13.903 2.722 1.087 4.752 3.207 5.752 6.026 1.17 3.295.792 7.154-.978 10.18.325 3.518-.887 7.113-3.218 9.47-1.57 1.59-4.36 3.372-8.736 2.86-2.901-.338-5.295-1.58-6.976-3.609a19.2 19.2 0 0 1-7.144.487 18.7 18.7 0 0 1-4.865-1.277 19.8 19.8 0 0 1-7.459.575l-4.037-.092a15.2 15.2 0 0 1-3.359-.652C86.92 91.452 79.691 96.44 71.676 96.44" style="fill:#211d1d;fill-opacity:1;fill-rule:nonzero;stroke:none;stroke-width:.0352778" transform="translate(77.826 47.273)scale(.51363)"/><path d="M220.702-7.103s.586 2.152-3.326 8.731c-4.103 6.89-6.52 6.597-6.52 6.597-.906-1.076-.462-8.657-.462-8.657l8.022-5.613 1.874-1.076z" style="fill:#aad9cf;fill-opacity:1;fill-rule:nonzero;stroke:none;stroke-width:.0352778" transform="translate(77.826 47.273)scale(.51363)"/><path d="M211.58.228c-.117 2.398-.106 5.051.067 6.438.882-.55 2.49-1.98 4.68-5.662 1.733-2.91 2.534-4.88 2.897-6.11l-.155.088zm-.657 9.218q-.126-.002-.211-.014l-.477-.057-.306-.367c-1.01-1.192-.964-5.831-.748-9.51l.035-.59L217.81-7.1l2.18-1.252 1.654.07.233.858c.12.444.522 2.991-3.457 9.673-3.86 6.48-6.52 7.197-7.497 7.197" style="fill:#211d1d;fill-opacity:1;fill-rule:nonzero;stroke:none;stroke-width:.0352778" transform="translate(77.826 47.273)scale(.51363)"/><path d="M220.325-7.057c-5.61 5.108-8.597 10.177-9.465 15.26l-.021.03-59.944 17.846c-16.266 4.844-29.883 15.61-38.351 30.325L11.71 232.524c-1.69 2.94-5.39 4.238-8.422 2.724a6.33 6.33 0 0 1-2.675-8.826l100.6-175.715c4-6.95 8.917-13.357 14.785-18.821 9.025-8.407 19.603-14.457 31.283-17.942l70.215-20.91c.96-.282 1.89-.31 2.811-.151z" style="fill:#eff9f8;fill-opacity:1;fill-rule:nonzero;stroke:none;stroke-width:.0352778" transform="translate(77.826 47.273)scale(.51363)"/><path d="m219.51-7.96-.007.003h.004zm-2.455 2.398-69.426 20.673c-11.554 3.447-21.917 9.388-30.802 17.664-5.563 5.182-10.461 11.42-14.56 18.538L1.67 227.028a5.06 5.06 0 0 0-.463 4.026 5.1 5.1 0 0 0 2.625 3.108c2.41 1.199 5.408.215 6.824-2.244l100.832-176.12c8.626-14.987 22.497-25.955 39.06-30.883l59.25-17.646c.924-4.445 3.313-8.671 7.257-12.83M6.007 237.108a7.26 7.26 0 0 1-3.262-.77 7.5 7.5 0 0 1-3.869-4.582 7.57 7.57 0 0 1 .683-5.941L100.156 50.103c4.221-7.334 9.271-13.762 15.012-19.11 9.162-8.533 19.849-14.661 31.765-18.217L217.15-8.13a7.2 7.2 0 0 1 3.365-.187 1.253 1.253 0 0 1 .628 2.163c-5.256 4.783-8.226 9.55-9.084 14.562l-.127.748-.748.24-59.942 17.85C135.28 32 121.912 42.569 113.6 57.012L12.767 233.128c-1.456 2.533-4.086 3.98-6.76 3.98" style="fill:#211d1d;fill-opacity:1;fill-rule:nonzero;stroke:none;stroke-width:.0352778" transform="translate(77.826 47.273)scale(.51363)"/><path d="M134.32 21.578s-4.34 6.498-.303 12.488z" style="fill:#fff;fill-opacity:1;fill-rule:nonzero;stroke:none;stroke-width:.0352778" transform="translate(77.826 47.273)scale(.51363)"/><path d="M134.018 35.283a1.22 1.22 0 0 1-1.01-.536c-4.442-6.59.104-13.554.3-13.847a1.218 1.218 0 0 1 2.026 1.351c-.158.24-3.827 5.913-.308 11.134a1.218 1.218 0 0 1-1.008 1.898" style="fill:#211d1d;fill-opacity:1;fill-rule:nonzero;stroke:none;stroke-width:.0352778" transform="translate(77.826 47.273)scale(.51363)"/><path d="M120.68 30.252s-1.615 4.911 3.925 10.496z" style="fill:#fff;fill-opacity:1;fill-rule:nonzero;stroke:none;stroke-width:.0352778" transform="translate(77.826 47.273)scale(.51363)"/><path d="M124.605 41.965c-.313 0-.626-.12-.864-.36-5.996-6.043-4.293-11.504-4.218-11.734a1.218 1.218 0 0 1 2.316.751c-.06.198-1.246 4.354 3.63 9.268a1.217 1.217 0 0 1-.864 2.075" style="fill:#211d1d;fill-opacity:1;fill-rule:nonzero;stroke:none;stroke-width:.0352778" transform="translate(77.826 47.273)scale(.51363)"/><path d="M110.08 42.748s2.783 4.364 7.957 5.524z" style="fill:#fff;fill-opacity:1;fill-rule:nonzero;stroke:none;stroke-width:.0352778" transform="translate(77.826 47.273)scale(.51363)"/><path d="M118.038 49.49q-.132-.001-.268-.029c-5.599-1.26-8.592-5.863-8.716-6.057a1.218 1.218 0 0 1 2.05-1.312c.026.038 2.603 3.961 7.2 4.991a1.218 1.218 0 0 1-.266 2.406" style="fill:#211d1d;fill-opacity:1;fill-rule:nonzero;stroke:none;stroke-width:.0352778" transform="translate(77.826 47.273)scale(.51363)"/><path d="M103.364 54.661s2.386 3.246 8.608 2.734z" style="fill:#fff;fill-opacity:1;fill-rule:nonzero;stroke:none;stroke-width:.0352778" transform="translate(77.826 47.273)scale(.51363)"/><path d="M110.67 58.669c-5.8 0-8.18-3.14-8.286-3.285a1.218 1.218 0 0 1 1.954-1.453c.1.13 2.17 2.695 7.534 2.254a1.217 1.217 0 1 1 .2 2.424q-.733.061-1.402.06" style="fill:#211d1d;fill-opacity:1;fill-rule:nonzero;stroke:none;stroke-width:.0352778" transform="translate(77.826 47.273)scale(.51363)"/><path d="M132.698 74.932c1.408-5.63-1.636-12.552-9.158-12.552-3.118 0-5.465 1.196-7.049 2.995a18 18 0 0 0-7.338-1.538c-1.716 0-3.415.279-5.054.772a18.5 18.5 0 0 0-7.328-1.51l-4.006-.38a14.3 14.3 0 0 0-4.266.493c-1.81-8.53-8.906-15.218-18.136-15.218-4.36 0-8.629 1.728-11.98 4.53-1.127-.216-14.327-5.624-17.067-4.075-3.284-4.953-4.143-2.096-10.653-2.096-3.927 0-7.775 1.411-10.951 3.74a18 18 0 0 0-3.072-.279c-9.716 0-19.025 8.544-18.575 18.574.051 1.15.209 2.279.443 3.376-2.33 3.08-3.718 6.83-3.54 10.83.451 10.065 8.162 18.577 18.576 18.577 2.27 0 4.512-.48 6.616-1.323 3.336 4.117 8.316 6.784 14.145 6.784 1.563 0 3.111-.232 4.612-.645 3.336 4.247 8.39 7.02 14.328 7.02 5.442 0 10.754-2.681 14.298-6.805.508.042 1.023.067 1.545.067 6.082 0 12.002-3.348 15.471-8.311q3.847 1.894 8.206 1.912l4.006.38a14.2 14.2 0 0 0 5.146-.75 18 18 0 0 0 7.236 1.488c7.377 0 14.508-4.928 17.322-11.691 6.713-1.387 8.787-9.077 6.223-14.365" style="fill:#fff;fill-opacity:1;fill-rule:nonzero;stroke:none;stroke-width:.0352778" transform="translate(77.826 47.273)scale(.51363)"/><path d="m39.375 104.6.5.635c3.32 4.227 8.068 6.555 13.37 6.555 4.94 0 9.94-2.385 13.375-6.382l.404-.469.62.05c.49.042.977.063 1.444.063 5.569 0 11.115-2.985 14.474-7.793l.598-.854.938.462a17.3 17.3 0 0 0 7.671 1.786l.112.007 3.97.377c1.597.057 3.17-.176 4.673-.691l.446-.152.433.19a16.8 16.8 0 0 0 6.75 1.387c6.747 0 13.56-4.604 16.199-10.943l.247-.593.63-.13c3.04-.628 4.587-2.604 5.35-4.153 1.287-2.614 1.296-5.863.024-8.487l-.193-.4.107-.426c.716-2.865.122-5.976-1.552-8.12-1.492-1.913-3.714-2.922-6.425-2.922-2.526 0-4.648.893-6.135 2.582l-.59.67-.817-.36a16.8 16.8 0 0 0-6.845-1.435c-1.533 0-3.115.243-4.703.72l-.425.13-.408-.176a17.3 17.3 0 0 0-6.85-1.411l-.112-.004-3.97-.38a13.1 13.1 0 0 0-3.87.454l-1.24.332-.267-1.256c-1.781-8.393-8.75-14.252-16.945-14.252-3.946 0-7.923 1.506-11.199 4.247l-.443.37-.568-.109c-.32-.06-.908-.268-2.328-.776-10.116-3.62-13.148-3.866-13.91-3.436l-.987.557-.626-.941c-1.769-2.667-2.252-2.572-4.578-2.114-1.195.237-2.832.561-5.061.561-3.513 0-7.147 1.246-10.232 3.503l-.415.304-.507-.085a17 17 0 0 0-2.87-.26c-4.579 0-9.336 2.116-12.725 5.658C.738 60.013-.907 64.147-.72 68.335c.046 1.02.187 2.088.418 3.175l.116.547-.335.44c-2.313 3.06-3.452 6.53-3.295 10.044.438 9.762 8.063 17.41 17.36 17.41 2.049 0 4.122-.413 6.163-1.231l.833-.332.565.695c3.312 4.085 8 6.332 13.2 6.332 1.397 0 2.84-.2 4.29-.6zm13.87 9.624c-5.713 0-11.055-2.49-14.779-6.865-1.401.325-2.798.49-4.161.49-5.655 0-10.778-2.32-14.52-6.558-2.064.727-4.16 1.097-6.241 1.097-10.602 0-19.296-8.67-19.791-19.741-.176-3.912 1.018-7.765 3.456-11.169a22 22 0 0 1-.36-3.034c-.218-4.858 1.666-9.63 5.305-13.434 3.897-4.078 9.177-6.413 14.486-6.413.881 0 1.792.07 2.77.215 3.41-2.374 7.385-3.676 11.253-3.676 1.99 0 3.43-.286 4.588-.515 2.696-.533 4.296-.674 6.562 2.41 2.675-.424 7.758 1.09 14.832 3.62.537.19 1.085.387 1.475.521 3.612-2.84 7.935-4.395 12.243-4.395 8.959 0 16.625 6.1 19.036 14.982 1.137-.212 2.28-.3 3.412-.257l.07.007 3.95.374a19.7 19.7 0 0 1 7.341 1.439 18.6 18.6 0 0 1 4.981-.702c2.444 0 4.808.44 7.039 1.312 1.906-1.817 4.427-2.77 7.348-2.77 4.407 0 6.97 2.1 8.344 3.857 2.04 2.614 2.826 6.325 2.094 9.782 1.405 3.21 1.332 7.088-.215 10.227-1.322 2.681-3.585 4.548-6.415 5.313-3.199 7.013-10.59 11.864-18.195 11.864a19.2 19.2 0 0 1-7.29-1.408c-1.66.512-3.386.738-5.139.67l-.07-.003-3.949-.378a19.7 19.7 0 0 1-7.755-1.608c-3.85 4.963-9.837 8.008-15.862 8.008q-.507 0-1.031-.029c-3.875 4.248-9.367 6.767-14.812 6.767" style="fill:#211d1d;fill-opacity:1;fill-rule:nonzero;stroke:none;stroke-width:.0352778" transform="translate(77.826 47.273)scale(.51363)"/><path d="M130.268 76.784c-4.325 3.362-10.01 6.255-16.71 8.823-5.43 2.081-11.456 4.138-18.1 5.556-5.861 1.249-12.121 2.448-18.701 3.09-6.071.593-12.432.833-18.94.833s-12.804-.924-18.875-1.517c-6.58-.642-12.937-1.009-18.799-2.261C13.498 89.893 7.25 88.373 1.82 86.29c-6.701-2.568-12.028-6.283-16.352-9.645-6.078-4.727-9.573-9.916-9.573-15.642v11.08c0 5.726 3.495 10.916 9.573 15.643 4.324 3.362 9.65 7.073 16.352 9.645 5.43 2.081 11.68 3.598 18.324 5.016 5.862 1.253 12.218 1.62 18.8 2.262 6.07.592 12.365 1.517 18.873 1.517 6.51 0 12.87-.24 18.94-.833 6.58-.642 12.84-1.841 18.702-3.09 6.644-1.418 12.67-3.475 18.1-5.556 6.7-2.569 12.385-5.461 16.71-8.823q2.264-1.759 3.99-3.627c3.486-3.768 3.772-5.793 4.534-10.929.277-1.866.77-10.393.77-12.305 0 5.726-3.215 11.053-9.294 15.78" style="fill:#eff9f8;fill-opacity:1;fill-rule:nonzero;stroke:none;stroke-width:.0352778" transform="translate(77.826 47.273)scale(.51363)"/><path d="M-22.89 69.404v2.68c0 5.046 3.064 9.984 9.104 14.683 3.918 3.045 9.283 6.876 16.041 9.469 5.666 2.17 12.35 3.729 18.142 4.964 4.533.966 9.353 1.397 14.456 1.852q2.085.183 4.207.388c1.502.144 3.045.314 4.538.48 4.61.504 9.379 1.03 14.218 1.03 6.955 0 13.111-.272 18.823-.826 6.775-.66 13.187-1.923 18.565-3.073 5.566-1.185 11.092-2.882 17.918-5.5 7.007-2.688 12.371-5.513 16.399-8.646 1.451-1.129 2.745-2.304 3.844-3.492 3.214-3.475 3.466-5.172 4.212-10.21l.01-.07c.071-.48.157-1.412.244-2.565-1.614 2.505-3.89 4.9-6.816 7.179-4.22 3.28-9.788 6.223-17.021 8.996-6.95 2.667-12.588 4.395-18.282 5.609-5.446 1.164-11.942 2.441-18.837 3.115-5.79.56-12.025.836-19.059.836-4.973 0-9.81-.533-14.486-1.044-1.485-.166-3.02-.335-4.506-.48a701 701 0 0 0-4.187-.384c-5.178-.46-10.07-.897-14.748-1.895-5.883-1.256-12.682-2.84-18.505-5.073-7.057-2.706-12.613-6.67-16.665-9.821-3.39-2.635-5.93-5.377-7.608-8.202m80.706 37.98c-4.973 0-9.808-.533-14.484-1.044a388 388 0 0 0-4.508-.48 700 700 0 0 0-4.188-.385c-5.178-.458-10.069-.896-14.747-1.894-5.884-1.256-12.683-2.84-18.505-5.073-7.058-2.706-12.613-6.671-16.665-9.821-6.664-5.183-10.042-10.767-10.042-16.602v-11.08h2.434c0 5.044 3.063 9.983 9.103 14.682 3.918 3.044 9.284 6.875 16.041 9.468 5.667 2.173 12.351 3.73 18.142 4.964 4.534.966 9.353 1.397 14.456 1.852q2.086.183 4.207.388c1.501.145 3.044.314 4.536.48 4.611.504 9.38 1.03 14.22 1.03 6.955 0 13.112-.272 18.823-.826 6.774-.66 13.186-1.922 18.565-3.072 5.565-1.186 11.092-2.883 17.918-5.5 7.006-2.685 12.37-5.514 16.399-8.647 5.74-4.466 8.707-9.345 8.82-14.513l.004-.296v-.01h2.434v.01q0 .222-.006.444c-.058 2.54-.507 10.21-.777 12.03l-.01.07c-.761 5.133-1.108 7.48-4.833 11.505-1.19 1.287-2.581 2.55-4.137 3.76-4.22 3.285-9.788 6.227-17.022 9-6.949 2.663-12.587 4.395-18.281 5.609-5.445 1.164-11.942 2.44-18.838 3.115-5.79.56-12.024.836-19.058.836" style="fill:#211d1d;fill-opacity:1;fill-rule:nonzero;stroke:none;stroke-width:.0352778" transform="translate(77.826 47.273)scale(.51363)"/><path d="M130.268 87.865c-4.325 3.362-10.01 6.254-16.71 8.823-5.43 2.081-11.456 4.138-18.1 5.556-5.861 1.249-12.121 2.448-18.701 3.09-6.071.593-12.432.833-18.94.833s-12.804-.925-18.875-1.517c-6.58-.642-12.937-1.01-18.8-2.262-6.644-1.418-12.893-2.935-18.323-5.016-6.701-2.572-12.028-6.283-16.352-9.645a38 38 0 0 1-3.344-2.914c6.722 72.771 13.224 142.695 13.224 144.35 0 3.827 1.52 6.812 6.243 9.973 3.36 2.247 7.499 4.727 12.706 6.445 4.219 1.393 9.074 2.41 14.237 3.358 4.555.836 9.493 1.08 14.606 1.51 4.717.395 9.609 1.013 14.665 1.013 5.058 0 10-.159 14.717-.558 5.112-.426 9.976-1.227 14.53-2.063 5.163-.95 9.845-2.325 14.064-3.715 5.207-1.718 9.623-3.651 12.984-5.899 4.723-3.16 7.22-6.724 7.22-10.548 0-1.647 6.071-71.412 12.418-143.901a34 34 0 0 1-3.47 3.087" style="fill:#cdeee8;fill-opacity:1;fill-rule:nonzero;stroke:none;stroke-width:.0352778" transform="translate(77.826 47.273)scale(.51363)"/><path d="M-16.378 87.805c1.154 12.495 2.3 24.881 3.404 36.819 6.091 65.867 9.538 103.202 9.538 104.539 0 3.086.97 5.792 5.703 8.96 3.032 2.029 7.183 4.58 12.41 6.304 4.394 1.45 9.581 2.487 14.075 3.313 3.515.646 7.255.931 11.215 1.238q1.624.12 3.274.258 1.747.15 3.527.32c3.58.34 7.281.689 11.036.689 5.403 0 10.183-.18 14.615-.55 5.259-.442 10.237-1.285 14.413-2.054 5.532-1.016 10.335-2.494 13.902-3.672 5.425-1.789 9.576-3.673 12.688-5.754 4.433-2.967 6.68-6.174 6.68-9.536 0-1.4 4.086-48.785 12.146-140.853-.4.338-.812.674-1.233.998-4.22 3.285-9.787 6.227-17.022 9-6.949 2.663-12.587 4.395-18.28 5.609-5.446 1.164-11.942 2.44-18.838 3.115-5.79.56-12.025.836-19.059.836-4.973 0-9.808-.533-14.484-1.044a388 388 0 0 0-4.508-.48 700 700 0 0 0-4.188-.385c-5.178-.458-10.069-.896-14.747-1.894-5.884-1.256-12.683-2.84-18.505-5.073-7.058-2.706-12.613-6.671-16.665-9.821q-.56-.437-1.097-.882m74.182 164.874c-3.87 0-7.63-.356-11.266-.699a263 263 0 0 0-3.5-.317 390 390 0 0 0-3.257-.258c-4.025-.31-7.827-.603-11.468-1.27-4.576-.84-9.865-1.901-14.399-3.397-5.506-1.817-9.84-4.477-13.001-6.593-4.755-3.182-6.784-6.467-6.784-10.982-.03-1.616-4.431-49.21-9.527-104.313-1.196-12.93-2.44-26.377-3.691-39.924l-.306-3.31 2.371 2.33a38 38 0 0 0 3.238 2.821c3.918 3.045 9.283 6.876 16.041 9.469 5.666 2.17 12.35 3.729 18.142 4.964 4.533.966 9.353 1.397 14.456 1.852q2.086.183 4.207.388c1.502.144 3.045.314 4.538.48 4.61.504 9.379 1.03 14.218 1.03 6.955 0 13.111-.272 18.823-.826 6.775-.66 13.187-1.923 18.565-3.073 5.566-1.185 11.092-2.882 17.918-5.5 7.007-2.688 12.371-5.513 16.399-8.646a33 33 0 0 0 3.344-2.977l2.382-2.445-.297 3.4c-10.227 116.798-12.395 142.667-12.414 143.8 0 4.22-2.61 8.11-7.76 11.557-3.298 2.205-7.642 4.18-13.28 6.043-3.64 1.2-8.547 2.713-14.225 3.754-4.233.776-9.285 1.633-14.648 2.08-4.5.378-9.348.562-14.819.562" style="fill:#211d1d;fill-opacity:1;fill-rule:nonzero;stroke:none;stroke-width:.0352778" transform="translate(77.826 47.273)scale(.51363)"/><path d="M50.694 82.354a1.218 1.218 0 0 1-.035-2.434c5.305-.159 6.166-2.226 6.955-5.616.442-1.898.006-3.768-1.26-5.405-2.365-3.058-7.215-4.974-12.975-5.122-6.384-.162-9.095 3.637-10.715 5.905-.794 1.115-1.368 1.92-2.28 2.05l-.207.032-.205-.039c-2.181-.43-2.965-1.171-3.872-2.028-.516-.487-1.1-1.038-2.142-1.7-1.695-1.073-4.239-1.913-6.296-1.042-2.041.861-5.388 3.317-6.241 4.848a1.217 1.217 0 1 1-2.127-1.182c1.25-2.247 5.165-4.957 7.42-5.91 2.484-1.047 5.679-.588 8.547 1.232 1.24.783 1.944 1.45 2.51 1.983.694.656 1.083 1.023 2.194 1.305.199-.236.48-.628.718-.963 1.776-2.487 5.089-7.12 12.759-6.922 6.483.166 12.03 2.43 14.837 6.061 1.73 2.237 2.32 4.812 1.706 7.45-.892 3.832-2.27 7.29-9.254 7.497z" style="fill:#211d1d;fill-opacity:1;fill-rule:nonzero;stroke:none;stroke-width:.0352778" transform="translate(77.826 47.273)scale(.51363)"/><path d="M87.937 88.877c2.094-.363 2.55-7.193-.638-10.29-2.528-2.456-7.464-3.475-10.653-2.276-2.28.86-5.771 3.175-10.016 1.549-2.402-.92-2.55-5.281-8.468-5.19-8.56.131-5.92 10.287-10.745 10.287-4.108 0-4.24-5.496-7.376-6.646-3.383-1.238-6.343-1.947-12.02-.638-2.479.575-5.098 2.55-6.828 8.65z" style="fill:#fff;fill-opacity:1;fill-rule:nonzero;stroke:none;stroke-width:.0352778" transform="translate(77.826 47.273)scale(.51363)"/><path d="M87.936 90.094a1.217 1.217 0 0 1-.24-2.41c.15-.109.495-.694.63-1.837.234-1.972-.253-4.812-1.875-6.386-2.151-2.092-6.62-3.048-9.376-2.01-.367.137-.794.328-1.247.532-2.256 1.01-5.666 2.533-9.633 1.013-1.157-.445-1.868-1.373-2.556-2.272-1.136-1.485-2.212-2.886-5.458-2.836-4.051.06-5.026 2.688-6.058 5.471-.837 2.258-1.786 4.816-4.706 4.816-3.008 0-4.365-2.258-5.455-4.075-.708-1.178-1.377-2.293-2.339-2.646-3.045-1.115-5.813-1.866-11.327-.593-2.68.618-4.62 3.168-5.932 7.797a1.214 1.214 0 0 1-1.504.836 1.216 1.216 0 0 1-.838-1.503c1.576-5.556 4.103-8.668 7.726-9.504 6.157-1.421 9.4-.532 12.712.681 1.77.65 2.736 2.258 3.589 3.68 1.078 1.792 1.817 2.892 3.368 2.892 1.115 0 1.573-.934 2.424-3.228 1.091-2.942 2.586-6.97 8.302-7.059 4.48-.063 6.183 2.163 7.43 3.793.547.716.98 1.28 1.492 1.478 3.026 1.157 5.656-.018 7.77-.963.486-.219.946-.424 1.382-.59 3.638-1.368 9.101-.204 11.93 2.544 2.54 2.466 3.171 7.042 2.3 9.867-.595 1.927-1.697 2.389-2.301 2.495q-.106.016-.21.017" style="fill:#211d1d;fill-opacity:1;fill-rule:nonzero;stroke:none;stroke-width:.0352778" transform="translate(77.826 47.273)scale(.51363)"/><path d="M118.077 78.678s-.638-8.65-11.838-9.288c-10.782-.614-12.383 7.105-12.383 7.105z" style="fill:#fff;fill-opacity:1;fill-rule:nonzero;stroke:none;stroke-width:.0352778" transform="translate(77.826 47.273)scale(.51363)"/><path d="M118.075 79.895c-.63 0-1.162-.483-1.212-1.121-.026-.318-.757-7.603-10.693-8.167-9.625-.544-11.109 6.067-11.122 6.135a1.22 1.22 0 0 1-1.44.945 1.22 1.22 0 0 1-.944-1.44c.018-.088 1.95-8.738 13.645-8.07 12.126.69 12.974 10.314 12.982 10.413.05.67-.455 1.252-1.125 1.302z" style="fill:#211d1d;fill-opacity:1;fill-rule:nonzero;stroke:none;stroke-width:.0352778" transform="translate(77.826 47.273)scale(.51363)"/><path d="M25.424-23.077s-3.737 1.556-9.104 4.434c-1.79.964-2.53-2.286-4.338-1.732-1.216.734-3.967 6.558-5.239 7.384-.95.617-1.682-3.362-2.81-3.422-1.32.91-2.71 7.214-4.03 8.216-1.971 1.5-3.156-3.034-4.687-3.125C-6.08-10.155-8.454-1.025-9.66.228c-1.056 1.1-3.071-1.143-4.919-2.131-1.156 1.4-.346 8.371-1.323 9.86-1.75 2.663-3.082 3.147-5.783 3.782-.404 1.2.868 7.013.58 8.226-.414 1.74-3.167 3.426-3.368 5.18-.221 1.925.685 9.26.867 11.154.162 1.683 3.148 13.497 3.53 14.704.608 1.922 7.83 17.092 7.83 17.092s2.529-.692 5.235-2.688c1.48-1.09 9.583-6.297 11.197-7.677 1.398-1.196 6.517-6.586 7.878-7.965 1.525-1.546 8.9-8.876 10.03-10.446.328-1.63-.995-3.193-.02-5.09.887-1.733 5.139-4.1 5.606-5.8-.497-1.31-2.812-2.36-2.519-3.99.353-1.962 4.995-3.63 5.216-5.772-.419-1.26-4.12-2.956-4.029-4.258.125-1.778 3.413-4.092 3.473-5.902-.709-1.125-3.127-2.092-3.111-3.383.02-1.658 4.261-4.738 3.619-6.248-.576-1.354-3.666-1.679-3.709-3.122-.053-1.802 3.007-4.568 2.927-6.209-1.301-1.375-3.315-2.465-3.415-4-.344-5.221-.709-8.622-.709-8.622" style="fill:#307956;fill-opacity:1;fill-rule:nonzero;stroke:none;stroke-width:.0352778" transform="translate(77.826 47.273)scale(.51363)"/><path d="M-20.549 12.712c.037.847.23 2.308.357 3.27.294 2.22.45 3.51.271 4.266-.268 1.129-1.116 2.078-1.936 2.998-.63.706-1.345 1.503-1.406 2.036-.162 1.418.416 6.706.694 9.25.077.702.14 1.28.176 1.65.142 1.482 3.069 13.16 3.479 14.454.405 1.28 4.422 9.888 7.3 15.949a17.7 17.7 0 0 0 3.881-2.155c.575-.424 2.059-1.412 3.777-2.555 2.699-1.795 6.395-4.254 7.352-5.069.99-.847 4.065-4.032 6.1-6.142.735-.762 1.347-1.393 1.703-1.757l1.04-1.044c2.26-2.272 7.393-7.426 8.69-9.027.015-.367-.078-.79-.183-1.267-.235-1.065-.527-2.392.245-3.898.528-1.03 1.736-2.025 3.015-3.083.756-.625 1.825-1.507 2.287-2.11a11 11 0 0 0-.634-.667c-.838-.832-1.985-1.972-1.695-3.588.254-1.414 1.641-2.458 2.983-3.467.768-.579 1.774-1.337 2.109-1.912-.31-.318-.94-.801-1.35-1.115-1.371-1.048-2.666-2.04-2.57-3.404.088-1.263 1.057-2.442 1.994-3.581.49-.596 1.125-1.365 1.372-1.909-.231-.215-.543-.451-.83-.67-1.029-.783-2.195-1.669-2.178-3.055.014-1.203 1.03-2.399 2.105-3.669.543-.638 1.432-1.69 1.564-2.155-.198-.23-.87-.565-1.248-.755-1.099-.554-2.467-1.242-2.51-2.741-.039-1.306.853-2.643 1.715-3.934.36-.54.908-1.362 1.122-1.887a26 26 0 0 0-.781-.685c-1.143-.97-2.439-2.074-2.543-3.658a266 266 0 0 0-.542-6.91 128 128 0 0 0-7.48 3.714c-1.719.924-2.986-.321-3.665-.988-.318-.314-.586-.568-.765-.638-.473.518-1.404 2.056-2.042 3.111-1.332 2.201-2.19 3.577-3.019 4.117a1.56 1.56 0 0 1-1.285.201c-.904-.254-1.344-1.175-1.854-2.24-.06-.124-.13-.275-.205-.427-.352.776-.744 1.827-1.021 2.568-.909 2.438-1.51 3.962-2.4 4.64-.73.553-1.414.592-1.86.525-1.236-.18-2.05-1.298-2.767-2.282-.126-.173-.29-.4-.452-.604-.53 1.164-1.247 3.21-1.767 4.692C-7.363-1.593-8.053.312-8.781 1.071c-1.472 1.53-3.416.134-4.835-.886q-.146-.103-.291-.208c-.12.984-.162 2.37-.191 3.334-.08 2.674-.162 4.364-.786 5.316-1.742 2.65-3.222 3.443-5.665 4.085m7.643 56.826-.438-.921c-.743-1.56-7.275-15.3-7.891-17.247-.41-1.295-3.406-13.127-3.581-14.955-.035-.363-.097-.93-.173-1.619-.448-4.099-.871-8.234-.692-9.793.149-1.298 1.094-2.356 2.008-3.38.59-.66 1.258-1.407 1.384-1.94.076-.416-.16-2.201-.316-3.38-.333-2.515-.522-4.095-.232-4.952l.216-.642.659-.156c2.59-.606 3.553-.994 5.043-3.263.28-.476.345-2.628.388-4.053.09-3.027.204-4.932 1.014-5.916l.635-.77.879.473c.623.332 1.225.766 1.808 1.186.511.367 1.334.96 1.732 1.076.45-.678 1.352-3.25 1.96-4.985 1.36-3.884 2.09-5.796 2.904-6.527l.379-.342.51.029c1.197.074 1.956 1.114 2.69 2.123.298.41.839 1.15 1.124 1.295l.063-.046C-.435-9.517.313-11.52.76-12.716c.93-2.494 1.549-4.053 2.481-4.699l.341-.233.414.021c1.27.064 1.906 1.394 2.467 2.569.055.116.12.247.185.38.514-.715 1.192-1.837 1.694-2.666 1.332-2.202 2.19-3.577 3.015-4.071l.127-.078.143-.046c1.562-.476 2.658.6 3.312 1.245.22.216.584.572.737.614.001-.003.027-.01.07-.035 5.357-2.875 9.056-4.42 9.211-4.487l1.504-.625.174 1.62c.004.035.372 3.485.713 8.674.037.558.916 1.306 1.692 1.965.47.399.956.815 1.394 1.277l.31.328.021.448c.059 1.207-.756 2.428-1.619 3.722-.537.805-1.266 1.898-1.306 2.449.17.197.79.508 1.17.698.937.473 2 1.005 2.44 2.046.642 1.507-.638 3.016-1.993 4.618-.538.631-1.43 1.686-1.523 2.106.113.265.825.808 1.213 1.104.642.487 1.304.992 1.707 1.634l.198.314-.013.374c-.044 1.33-1.053 2.557-2.029 3.743-.556.673-1.304 1.584-1.429 2.099.219.342 1.079 1.001 1.606 1.404 1.094.84 2.04 1.562 2.347 2.49l.083.247-.027.261c-.17 1.64-1.699 2.79-3.177 3.905-.783.59-1.966 1.482-2.052 1.955-.064.36.51.928 1.016 1.432.567.565 1.153 1.15 1.442 1.909l.142.37-.105.385c-.352 1.28-1.783 2.462-3.299 3.714-.984.812-2.1 1.736-2.399 2.318-.354.692-.243 1.312-.033 2.261.164.748.35 1.591.164 2.516l-.052.257-.154.212c-.894 1.245-4.91 5.327-9.118 9.553-.448.448-.805.808-1.033 1.037-.352.357-.957.985-1.683 1.736-2.191 2.272-5.191 5.38-6.27 6.3-1.07.914-4.531 3.218-7.586 5.25-1.692 1.122-3.153 2.095-3.68 2.483-2.856 2.107-5.524 2.85-5.637 2.883z" style="fill:#211d1d;fill-opacity:1;fill-rule:nonzero;stroke:none;stroke-width:.0352778" transform="translate(77.826 47.273)scale(.51363)"/><path d="m-9.974 67.979-2.41-.336c.208-1.488 5.188-36.632 13.132-49.815C8.55 4.884 23.397-22.64 23.545-22.915l2.143 1.154c-.149.279-15.023 27.855-22.855 40.848-7.69 12.756-12.756 48.532-12.807 48.892" style="fill:#211d1d;fill-opacity:1;fill-rule:nonzero;stroke:none;stroke-width:.0352778" transform="translate(77.826 47.273)scale(.51363)"/><path d="M-4.436 35.357s7.967-16.175 22.593-16.051z" style="fill:#307956;fill-opacity:1;fill-rule:nonzero;stroke:none;stroke-width:.0352778" transform="translate(77.826 47.273)scale(.51363)"/><path d="M-4.437 36.574a1.217 1.217 0 0 1-1.09-1.757c.337-.684 8.415-16.728 23.513-16.728h.181a1.217 1.217 0 0 1-.01 2.434h-.165c-13.58 0-21.26 15.215-21.336 15.37a1.22 1.22 0 0 1-1.093.681M.432 21.708q-.11-.001-.222-.017a1.22 1.22 0 0 1-.977-1.419C-.736 20.1 1.402 7.713-6.206 2.577A1.217 1.217 0 0 1-4.843.559c8.949 6.043 6.576 19.58 6.47 20.154-.107.586-.62.995-1.195.995m5.618-9.246a1.216 1.216 0 0 1-.98-1.937C5.373 10.112 12.6.415 22.559.323a1.215 1.215 0 0 1 1.228 1.206 1.22 1.22 0 0 1-1.206 1.228c-8.728.081-15.482 9.116-15.549 9.207a1.22 1.22 0 0 1-.982.498" style="fill:#211d1d;fill-opacity:1;fill-rule:nonzero;stroke:none;stroke-width:.0352778" transform="translate(77.826 47.273)scale(.51363)"/><path d="M-7.353 44.681s-.18-6.946-5.489-14.34z" style="fill:#307956;fill-opacity:1;fill-rule:nonzero;stroke:none;stroke-width:.0352778" transform="translate(77.826 47.273)scale(.51363)"/><path d="M-7.353 45.898a1.216 1.216 0 0 1-1.216-1.182c-.002-.07-.257-6.699-5.262-13.666a1.215 1.215 0 0 1 .28-1.697 1.214 1.214 0 0 1 1.698.279c5.465 7.609 5.71 14.717 5.717 15.017A1.217 1.217 0 0 1-7.32 45.9z" style="fill:#211d1d;fill-opacity:1;fill-rule:nonzero;stroke:none;stroke-width:.0352778" transform="translate(77.826 47.273)scale(.51363)"/><path d="M-29.34 114.5s3.371-1.313 8.102-3.75c1.578-.812 2.847 1.968 4.511 1.502 1.06-.62 2.748-5.588 3.845-6.29.82-.522 2.206 2.886 3.313 2.939 1.128-.773 1.413-6.153 2.525-7.003 1.665-1.273 3.584 2.607 5.089 2.695 1.062-.995 1.824-8.787 2.784-9.853.84-.935 3.18.992 5.144 1.845.886-1.192-1.082-7.158-.384-8.424 1.25-2.268 2.464-2.678 4.983-3.207.19-1.023-2.032-5.997-1.956-7.034.107-1.485 2.498-2.914 2.397-4.413-.112-1.648-2.235-7.92-2.733-9.54-.443-1.439-5.347-11.553-5.923-12.587-.918-1.647-10.51-14.65-10.51-14.65s-2.342.578-4.635 2.271c-1.254.928-8.252 5.341-9.588 6.513-1.157 1.016-5.221 5.602-6.31 6.773-1.223 1.316-7.152 7.546-7.985 8.883-.043 1.393 1.508 2.734.882 4.353-.57 1.478-4.303 3.479-4.469 4.932.705 1.118 3.133 2.032 3.125 3.422-.011 1.676-4.242 3.08-4.095 4.907.62 1.083 4.507 2.55 4.639 3.662.18 1.52-2.625 3.485-2.377 5.027.88.97 3.394 1.806 3.598 2.91.262 1.419-3.34 4.03-2.46 5.324.788 1.16 3.849 1.453 4.135 2.688.356 1.542-2.15 3.891-1.795 5.295 1.499 1.182 3.641 2.124 4 3.433 1.218 4.466 2.149 7.376 2.149 7.376" style="fill:#307956;fill-opacity:1;fill-rule:nonzero;stroke:none;stroke-width:.0352778" transform="translate(77.826 47.273)scale(.51363)"/><path d="M-34.241 103.098c.285.2.588.398.884.592 1.314.861 2.671 1.754 3.042 3.112.73 2.677 1.361 4.805 1.744 6.064a105 105 0 0 0 6.776-3.2c1.493-.769 2.755.17 3.59.787.321.24.704.526.964.61.362-.494.956-1.7 1.331-2.466.954-1.94 1.578-3.153 2.374-3.661 1.379-.879 2.496.631 3.235 1.63.1.133.222.3.349.465.178-.607.35-1.369.474-1.912.492-2.17.837-3.535 1.695-4.188 1.821-1.393 3.606.35 4.672 1.394.17.166.393.384.608.579.294-1.006.616-2.608.833-3.69.632-3.147.973-4.597 1.593-5.289 1.244-1.383 3.153-.303 4.837.653l.186.102c-.077-.751-.226-1.661-.334-2.321-.4-2.434-.6-3.856-.089-4.787 1.278-2.318 2.688-3.048 4.676-3.553-.206-.723-.557-1.735-.8-2.43-.69-1.983-1.049-3.052-.997-3.757.079-1.098.817-1.997 1.47-2.787.376-.459.947-1.154.926-1.454-.08-1.178-1.532-5.687-2.23-7.853-.195-.603-.354-1.097-.451-1.414C6.728 63.06 1.91 53.08 1.294 51.973c-.618-1.108-6.078-8.615-9.91-13.818a13.7 13.7 0 0 0-3.449 1.827c-.494.363-1.712 1.164-3.254 2.173-2.313 1.517-5.48 3.595-6.254 4.272-.803.706-3.342 3.514-4.859 5.19-.588.649-1.077 1.192-1.363 1.499-.184.198-.474.504-.836.893-1.603 1.703-5.652 6.014-6.783 7.493.066.257.205.567.35.892.405.903.961 2.141.411 3.567-.378.98-1.421 1.859-2.526 2.79-.492.413-1.233 1.037-1.623 1.489.2.17.435.346.656.511.997.748 2.239 1.676 2.23 3.133-.01 1.408-1.26 2.353-2.47 3.27-.412.31-1.179.893-1.492 1.288.388.286 1.04.677 1.477.938 1.544.925 2.878 1.722 3.021 2.925.146 1.227-.647 2.296-1.414 3.33-.265.356-.701.945-.885 1.34.27.188.614.392.931.583 1.158.688 2.355 1.4 2.577 2.603.219 1.186-.62 2.276-1.508 3.43-.344.447-.894 1.163-1.038 1.537.286.226.975.508 1.41.688 1.174.484 2.504 1.03 2.8 2.304.287 1.245-.423 2.505-1.05 3.62-.218.387-.546.97-.684 1.358m4.137 13.006-.394-1.234c-.01-.028-.954-2.985-2.165-7.426-.13-.473-1.227-1.193-2.028-1.718-.52-.339-1.057-.692-1.551-1.083l-.325-.254-.101-.402c-.294-1.161.359-2.322.99-3.44.287-.512.805-1.432.806-1.81-.219-.2-.926-.49-1.36-.67-.999-.41-2.032-.836-2.603-1.676-.971-1.429.247-3.012 1.227-4.282.338-.441.885-1.154 1.013-1.503-.233-.265-.952-.692-1.398-.956-.687-.41-1.398-.833-1.874-1.355l-.244-.268-.057-.36c-.207-1.291.657-2.455 1.418-3.482.302-.406.835-1.125.936-1.485-.32-.325-1.256-.886-1.837-1.231-1.177-.706-2.193-1.313-2.632-2.078l-.136-.236-.022-.272c-.13-1.616 1.312-2.706 2.585-3.669.518-.392 1.379-1.044 1.502-1.362-.068-.268-.865-.864-1.252-1.153-.631-.473-1.284-.963-1.682-1.595l-.228-.363.049-.424c.143-1.255 1.395-2.31 2.72-3.429.665-.56 1.67-1.407 1.823-1.802.176-.455-.023-.942-.361-1.697-.295-.656-.629-1.4-.602-2.258l.01-.324.174-.28c.678-1.09 3.908-4.578 7.297-8.187.36-.381.646-.685.827-.882.282-.303.763-.836 1.342-1.475 2.187-2.416 4.22-4.65 5.059-5.383.836-.734 3.339-2.392 6.524-4.48 1.39-.91 2.703-1.771 3.143-2.096 2.46-1.817 4.962-2.448 5.067-2.476l.789-.194.482.652c.986 1.34 9.665 13.113 10.593 14.782.618 1.11 5.542 11.253 6.024 12.823.095.307.25.79.44 1.383 1.135 3.517 2.25 7.07 2.343 8.431.086 1.263-.743 2.272-1.475 3.165-.371.451-.876 1.065-.92 1.393.032.41.533 1.849.866 2.805.856 2.455 1.215 3.612 1.07 4.392l-.148.797-.798.17c-2.447.515-3.186.836-4.145 2.56-.12.48.166 2.216.337 3.26.438 2.67.67 4.357-.065 5.345l-.576.776-.886-.388c-.646-.279-1.297-.65-1.926-1.005-.56-.314-1.438-.815-1.907-.953-.293.737-.674 2.639-.937 3.951-.699 3.482-1.084 5.08-1.84 5.79l-.382.356-.52-.032c-1.07-.06-1.943-.917-2.788-1.743-.405-.395-1.143-1.115-1.477-1.2-.273.41-.61 1.892-.814 2.791-.505 2.226-.861 3.623-1.777 4.251l-.339.233-.41-.021c-1.112-.057-1.883-1.097-2.628-2.106-.105-.141-.233-.314-.358-.477-.351.597-.802 1.51-1.11 2.138-.983 2-1.58 3.158-2.386 3.63l-.136.078-.15.042c-1.373.385-2.464-.423-3.258-1.012-.35-.261-.878-.653-1.024-.579-4.733 2.438-8.077 3.747-8.217 3.803z" style="fill:#211d1d;fill-opacity:1;fill-rule:nonzero;stroke:none;stroke-width:.0352778" transform="translate(77.826 47.273)scale(.51363)"/><path d="m-27.556 114.337-2.247-.935c.098-.236 9.896-23.752 15.316-34.837 5.27-10.773 4.142-41.243 4.13-41.55l2.432-.095c.05 1.277 1.163 31.39-4.375 42.714-5.388 11.018-15.158 34.47-15.256 34.703" style="fill:#211d1d;fill-opacity:1;fill-rule:nonzero;stroke:none;stroke-width:.0352778" transform="translate(77.826 47.273)scale(.51363)"/><path d="M-10.2 64.684s-5.008 13.79-19.252 13.613z" style="fill:#307956;fill-opacity:1;fill-rule:nonzero;stroke:none;stroke-width:.0352778" transform="translate(77.826 47.273)scale(.51363)"/><path d="M-29.19 79.518q-.138.001-.277-.004a1.218 1.218 0 0 1 .015-2.434h.015c13.218.162 18.045-12.682 18.092-12.813.23-.631.928-.956 1.56-.73.632.233.958.928.728 1.563-.054.148-1.367 3.704-4.517 7.264-4.146 4.684-9.54 7.154-15.616 7.154m25.77 15.275c-.194 0-.39-.05-.573-.144-9.66-5.176-9.645-16.803-9.64-17.294a1.22 1.22 0 0 1 1.231-1.206 1.22 1.22 0 0 1 1.204 1.231c0 .106.012 10.654 8.354 15.12a1.22 1.22 0 0 1-.576 2.293m-27.314-.109a1.218 1.218 0 0 1-.004-2.434c8.39-.029 13.35-7.582 13.399-7.66a1.218 1.218 0 0 1 2.05 1.313c-.228.356-5.7 8.749-15.44 8.78z" style="fill:#211d1d;fill-opacity:1;fill-rule:nonzero;stroke:none;stroke-width:.0352778" transform="translate(77.826 47.273)scale(.51363)"/><path d="M-8.944 56.725s1.352 5.94 7.767 12.284z" style="fill:#307956;fill-opacity:1;fill-rule:nonzero;stroke:none;stroke-width:.0352778" transform="translate(77.826 47.273)scale(.51363)"/><path d="M-1.177 70.23c-.31 0-.619-.12-.856-.354-6.592-6.519-8.04-12.625-8.098-12.883a1.22 1.22 0 0 1 .917-1.457 1.22 1.22 0 0 1 1.456.914c.013.056 1.385 5.708 7.437 11.694a1.217 1.217 0 0 1-.856 2.085" style="fill:#211d1d;fill-opacity:1;fill-rule:nonzero;stroke:none;stroke-width:.0352778" transform="translate(77.826 47.273)scale(.51363)"/><path d="M57.94 46.367a67 67 0 0 0-2.676-3.104c-.657-.723-2.265-1.87-2.487-2.83-.18-.772.438-1.463.574-2.187.332-1.774-2.203-1.75-3.432-1.996-1.194-.244-3.44-.304-2.294-1.867.267-.363 1.395-1.319 1.266-1.845-.132-.543-1.127-.472-1.603-.49-1.218-.046-3.63.543-4.665-.264-1.3-1.013.751-2.724.959-3.786.14-.72-.07-.723-.748-.808-.753-.095-1.543-.035-2.297-.007-1.574.053-3.344.385-4.905.113-2.135-.374-.188-2.755-.36-4.029-.078-.575.11-.374-.455-.434-.3-.031-.714.152-.996.24-.849.261-1.664.639-2.487.97-1.778.717-3.206 1.175-4.878-.208-.63-.522-1.248-2.127-1.901-2.141-.58-.01-1.577.85-2.037 1.132-1.346.837-2.526 1.983-4.166 1.454-.83-.272-1.688-.914-2.601-.83-.643.06-1.296.488-1.851.78-1.64.861-3.222 1.835-4.813 2.78-2.406 1.43-4.555 3.302-6.732 5.052-1.688 1.358-3.213 2.664-4.647 4.283-2.104 2.374-4.165 4.787-6.224 7.204-.273.32-1.439 1.29-1.471 1.725-.025.338.802 1.114.997 1.337.68.78 1.462 1.414 2.265 2.06 2.39 1.923 4.63 4.24 7.248 5.856 2.551 1.577 5.408 2.713 8.08 4.075a273 273 0 0 0 4.836 2.423c1.264.61 2.558 1.662 3.856.833.85-.547 1.514-1.246 2.615-1.013.834.18 1.626.847 2.322 1.299.503.324 1.59 1.238 2.255 1.118.762-.138.97-1.616 1.346-2.212 1.17-1.86 2.796 0 4.048.787.538.338 1.356.874 1.925.398.508-.423.644-1.697.828-2.282.176-.565.358-1.542.958-1.824.672-.321 1.693.219 2.31.44.539.191 1.738.798 2.312.4.633-.441.597-2.05.984-2.689.891-1.474 2.723-.07 3.944.279 2.325.663 1.604-1.665 2.245-3.087.768-1.704 3.125-.17 4.46-.187 1.149-.017 1.157-1.397 1.527-2.3.54-1.323 1.34-1.68 2.565-2.353a146 146 0 0 0 4.001-2.265" style="fill:#47b173;fill-opacity:1;fill-rule:nonzero;stroke:none;stroke-width:.0352778" transform="translate(77.826 47.273)scale(.51363)"/><path d="M19.483 59.582q.322 0 .68.074c.888.187 1.63.706 2.283 1.161.154.106.303.212.448.307.107.067.237.159.383.265.193.137.578.409.865.56.077-.172.16-.395.217-.55.125-.346.255-.698.443-.998.471-.748 1.076-1.196 1.799-1.327 1.267-.236 2.372.593 3.26 1.256.243.184.472.353.668.477l.042.028c.122.077.334.208.506.293.09-.258.177-.646.225-.861.055-.244.107-.476.17-.681q.038-.117.075-.254c.206-.727.517-1.827 1.522-2.304 1.034-.49 2.17-.035 2.922.268.115.046.223.092.32.127.1.036.221.085.355.138.19.074.57.23.837.293.064-.208.126-.505.168-.706.108-.522.22-1.062.485-1.5 1.23-2.031 3.445-1.054 4.508-.585.308.134.599.265.813.325q.161.046.255.06c.05-.194.09-.498.12-.716.076-.55.16-1.172.426-1.76.958-2.128 3.218-1.493 4.431-1.15.372.105.788.222 1.043.243.077-.163.164-.477.22-.678.077-.282.157-.575.275-.864.668-1.63 1.734-2.212 2.863-2.826l.243-.13c1.045-.575 1.93-1.07 2.735-1.531-.5-.59-1.06-1.22-1.725-1.955-.15-.165-.404-.395-.673-.638-.87-.787-1.856-1.683-2.1-2.734-.203-.882.123-1.616.361-2.152.088-.201.179-.406.203-.536l.008-.046c-.272-.208-1.252-.346-1.682-.406a14 14 0 0 1-.803-.127c-.16-.032-.34-.06-.528-.092-1.094-.173-2.455-.391-2.924-1.534-.19-.462-.272-1.21.418-2.152a4 4 0 0 1 .346-.399c-.256.007-.575.035-.907.067-1.451.13-3.097.279-4.208-.585-1.745-1.362-.525-3.274.062-4.191l.126-.198c-.345-.007-.708.01-1.084.025l-.399.017c-.451.014-.926.053-1.428.1-1.224.101-2.49.21-3.728-.008-.795-.138-1.37-.497-1.712-1.065-.578-.967-.207-2.089.091-2.988l.03-.089c-.45.16-.899.346-1.37.544-.224.091-.447.187-.672.278-1.596.642-3.781 1.528-6.11-.398-.395-.328-.702-.798-.999-1.253-.089-.134-.213-.324-.324-.48-.237.145-.531.357-.701.48a13 13 0 0 1-.497.343c-.224.137-.442.285-.66.434-1.161.783-2.607 1.76-4.522 1.139a8 8 0 0 1-.954-.395c-.427-.198-.868-.402-1.16-.378-.27.025-.708.269-1.059.463l-.338.183c-1.325.695-2.646 1.485-3.925 2.247l-.832.498c-1.887 1.121-3.666 2.575-5.387 3.979q-.602.494-1.204.977c-1.734 1.397-3.163 2.632-4.499 4.142-2.1 2.367-4.189 4.815-6.209 7.186-.113.13-.267.279-.462.469-.117.113-.323.31-.498.494.103.113.207.222.266.282.09.095.165.173.211.226.62.709 1.378 1.32 2.111 1.912.826.663 1.64 1.38 2.425 2.07 1.5 1.317 3.05 2.682 4.699 3.698 1.601.991 3.385 1.827 5.11 2.635.95.445 1.932.907 2.884 1.39 1.78.91 3.266 1.665 4.814 2.413.248.12.499.258.749.395 1.1.6 1.532.759 1.92.508q.214-.14.417-.286c.594-.416 1.37-.963 2.427-.963m4.88 4.908c-.927 0-1.823-.639-2.497-1.119a8 8 0 0 0-.296-.204q-.251-.167-.516-.353c-.464-.325-.99-.692-1.396-.776-.333-.07-.543.035-1.201.5-.164.114-.331.234-.505.343-1.668 1.069-3.247.208-4.4-.423-.216-.117-.43-.233-.644-.34a262 262 0 0 1-4.858-2.433c-.915-.466-1.879-.918-2.81-1.355-1.788-.84-3.637-1.704-5.357-2.766-1.823-1.129-3.452-2.557-5.027-3.944a77 77 0 0 0-2.345-2.004c-.815-.656-1.659-1.333-2.418-2.204q-.047-.053-.133-.142c-.692-.72-1.217-1.33-1.16-2.084.053-.727.612-1.316 1.458-2.131.128-.124.24-.23.3-.297 2.028-2.377 4.125-4.836 6.24-7.22 1.448-1.638 2.964-2.95 4.794-4.421q.596-.483 1.191-.97c1.789-1.46 3.64-2.97 5.682-4.184l.828-.494c1.306-.78 2.657-1.588 4.041-2.314.095-.05.193-.106.293-.16.55-.306 1.234-.684 2.011-.754.945-.088 1.758.29 2.41.593.247.112.48.222.679.285.752.244 1.343-.12 2.41-.84.243-.165.489-.33.74-.486.095-.06.217-.148.355-.247.853-.617 1.573-1.08 2.348-1.069 1.033.021 1.62.92 2.139 1.714.15.23.4.61.513.706 1.101.91 1.916.716 3.646.018q.323-.133.644-.268c.62-.258 1.26-.526 1.938-.738.05-.014.104-.035.161-.053.345-.12.818-.285 1.323-.232.073.007.12.007.15.007.79-.022 1.343.5 1.37 1.298 0 .039.002.092.014.173.096.712-.138 1.418-.365 2.102-.084.258-.213.646-.257.893.925.159 2.024.067 3.088-.025.51-.042 1.038-.088 1.55-.106l.382-.014c.68-.032 1.384-.06 2.11.032l.057.007c.487.06 1.093.134 1.502.698.42.579.288 1.256.231 1.542-.113.579-.456 1.115-.788 1.637-.172.265-.47.734-.554.991.463.226 1.777.106 2.43.05.532-.05 1.035-.096 1.47-.078q.079-.001.177.004c.665.007 2.223.024 2.562 1.41.253 1.034-.592 1.93-1.213 2.583.236.05.494.092.674.12.223.035.437.07.627.11.19.035.414.066.654.098 1.154.162 2.59.363 3.351 1.418.267.37.549.999.382 1.895-.078.412-.234.762-.372 1.076-.082.183-.234.525-.214.614.093.331.951 1.107 1.364 1.481.313.282.608.55.839.805a64 64 0 0 1 2.726 3.164l.876 1.094-1.208.712c-1.165.688-2.41 1.394-4.035 2.286l-.251.134c-1.014.554-1.433.78-1.773 1.612-.063.152-.12.364-.182.586-.218.794-.673 2.445-2.454 2.47-.592.014-1.214-.17-1.814-.336-.419-.12-1.288-.363-1.518-.264 0 .003-.015.024-.035.07-.12.265-.177.685-.232 1.087-.116.847-.26 1.894-1.16 2.483-.605.396-1.356.455-2.298.184-.375-.106-.756-.275-1.125-.438-.377-.165-1.158-.508-1.395-.448 0 0-.02.022-.048.067-.054.106-.133.487-.185.738-.166.793-.372 1.781-1.145 2.321-1.02.71-2.354.173-3.151-.148-.101-.039-.192-.078-.267-.106-.124-.042-.262-.099-.41-.159-.235-.095-.691-.278-.934-.307-.098.184-.203.554-.258.748q-.049.177-.094.321c-.033.106-.074.29-.117.48-.178.8-.4 1.796-1.09 2.374-1.234 1.03-2.691.117-3.313-.275l-.041-.025c-.281-.176-.561-.388-.833-.592-.358-.268-1.09-.819-1.362-.812.003.004-.074.07-.176.233-.051.081-.152.356-.22.536-.292.801-.735 2.004-1.94 2.223a2 2 0 0 1-.34.032" style="fill:#211d1d;fill-opacity:1;fill-rule:nonzero;stroke:none;stroke-width:.0352778" transform="translate(77.826 47.273)scale(.51363)"/><path d="m-9.248 47.165-.654-2.346c1.025-.286 25.234-6.989 35.713-4.953 2.81.546 6.527.709 10.46.882 3.663.162 7.45.328 10.824.822 6.037.885 10.562 3.238 10.751 3.34l-1.133 2.152c-.042-.02-4.364-2.261-9.971-3.083-3.25-.476-6.975-.638-10.578-.797-4.026-.177-7.83-.346-10.817-.928-9.918-1.926-34.35 4.84-34.595 4.91" style="fill:#211d1d;fill-opacity:1;fill-rule:nonzero;stroke:none;stroke-width:.0352778" transform="translate(77.826 47.273)scale(.51363)"/><path d="M28.596 54.7c-.53 0-1.018-.35-1.17-.886-2.85-9.994-14.27-11.172-14.386-11.183a1.213 1.213 0 0 1-1.1-1.322 1.215 1.215 0 0 1 1.326-1.101c.537.05 13.2 1.358 16.5 12.94a1.22 1.22 0 0 1-1.17 1.552m-4.648-12.834a1.217 1.217 0 0 1-.27-2.403c.11-.024 8.506-2.06 10.18-9.112a1.216 1.216 0 1 1 2.368.56c-2.03 8.556-11.6 10.831-12.006 10.927a1.2 1.2 0 0 1-.272.028m17.247 10.869a1.22 1.22 0 0 1-1.165-.868c-1.913-6.315-9.081-8.583-9.153-8.604a1.217 1.217 0 0 1 .714-2.328c.345.105 8.485 2.684 10.77 10.23a1.217 1.217 0 0 1-1.166 1.57" style="fill:#211d1d;fill-opacity:1;fill-rule:nonzero;stroke:none;stroke-width:.0352778" transform="translate(77.826 47.273)scale(.51363)"/><path d="M6.409 42.007s4.51-2.187 8.194-8.318z" style="fill:#307956;fill-opacity:1;fill-rule:nonzero;stroke:none;stroke-width:.0352778" transform="translate(77.826 47.273)scale(.51363)"/><path d="M6.41 43.224a1.218 1.218 0 0 1-.535-2.31c.064-.032 4.264-2.16 7.684-7.853a1.218 1.218 0 0 1 2.087 1.255c-3.825 6.368-8.51 8.69-8.707 8.785-.17.084-.352.123-.53.123M9.722 53.78q-.125-.001-.254-.029c-4.194-.889-9.196-8.276-9.752-9.116a1.22 1.22 0 0 1 .342-1.69 1.22 1.22 0 0 1 1.687.343c1.892 2.854 5.798 7.567 8.228 8.082a1.219 1.219 0 0 1-.251 2.41" style="fill:#211d1d;fill-opacity:1;fill-rule:nonzero;stroke:none;stroke-width:.0352778" transform="translate(77.826 47.273)scale(.51363)"/><path d="M-62.133 22.283c.31.999.66 1.983 1.024 2.964.343.92 1.103 2.113 1.195 3.083.078.825-.629 1.125-1.05 1.728-1.52 2.163 5.085 3.334 3.564 4.865-.625.632-2.807.893-1.298 1.82 1.16.713 2.809.844 3.845 1.74 1.214 1.051-.388 1.859-1.17 2.53-.426.363-.808.592-.493 1.05.266.385 1.19.607 1.594.773 1.435.586 2.986.991 4.36 1.715 1.79.945-.258 2.494-.945 3.64 1.304 1.22 4.202.018 5.781.692 1.034.44 1.727 1.545 1.998 2.589.158.61-.008 1.097.527 1.305.393.156 1.16-.08 1.55-.13.914-.124 2.002-.459 2.927-.367 1.357.137 1.799 1.669 2.998 2.102.74.269 1.735.064 2.493-.003 1.295-.113 2.585-.282 3.875-.437 6.89-.84 12.957-3.69 19.114-6.675.495-.24 1.369-.473 1.767-.857.386-.374.376-.134.163-.893-.586-2.088-1.923-4.032-2.952-5.93-.919-1.697-1.77-3.433-3.023-4.907-1.306-1.538-2.687-3.013-4.014-4.533-1.417-1.623-2.815-3.267-4.28-4.848-.602-.649-.97-1.266-1.888-1.238-1.297.039-2.075.596-3.107-.515-.715-.772-1.234-2.325-2.193-2.811-1.049-.533-1.489 1.065-2.463 1.354-2.17.642-2.113-3.923-4.328-3.04-1.53.61-2.15 1.869-3.893.98-.517-.265-1.274-.949-1.902-.804-.57.13-1.066 1.26-1.5 1.619-2.006 1.672-3.346-3.704-5.134-1.143-.801 1.146-1.052 2.127-2.558 1.273-.526-.3-.957-.751-1.48-1.05-.843-.488-.988-.502-1.66.214-.488.522-.944 1.186-1.61 1.49-.777.348-1.826.25-2.673.327-1.055.099-2.109.201-3.16.328" style="fill:#47b173;fill-opacity:1;fill-rule:nonzero;stroke:none;stroke-width:.0352778" transform="translate(77.826 47.273)scale(.51363)"/><path d="M-39.056 51.049q.227 0 .453.02c1.209.12 1.937.9 2.468 1.472.303.325.565.603.823.698.322.117.952.043 1.458-.017.179-.021.352-.043.514-.057 1.067-.091 2.158-.229 3.214-.356l.62-.078c6.43-.783 12.052-3.323 18.732-6.558.198-.098.413-.18.64-.268.158-.063.406-.159.593-.247-.414-1.35-1.198-2.702-1.958-4.014-.28-.484-.57-.985-.837-1.478l-.387-.72c-.772-1.443-1.501-2.808-2.494-3.98-.745-.878-1.534-1.753-2.297-2.603-.572-.635-1.144-1.27-1.706-1.916l-.944-1.086c-1.074-1.238-2.185-2.519-3.312-3.733q-.15-.164-.289-.324c-.45-.512-.503-.53-.669-.526-.263.007-.51.046-.771.085-.87.127-2.063.307-3.265-.988-.36-.388-.645-.864-.92-1.326-.224-.37-.513-.854-.763-1.1-.067.066-.138.144-.195.204-.35.377-.828.892-1.541 1.104-1.997.589-2.992-1.182-3.526-2.134-.176-.31-.464-.826-.638-.964l-.058.022c-.352.14-.658.335-.982.543-.876.56-2.074 1.33-3.916.388a6 6 0 0 1-.556-.332 7 7 0 0 0-.478-.289c-.098.124-.213.29-.293.402-.222.318-.452.646-.742.89-1.82 1.513-3.422-.107-4.192-.886-.18-.184-.453-.459-.644-.603a2 2 0 0 0-.079.105q-.17.245-.31.47c-.549.86-1.57 2.458-3.848 1.164a7.4 7.4 0 0 1-.9-.635 5.5 5.5 0 0 0-.695-.484l-.054.057q-.152.166-.303.342c-.418.48-.938 1.08-1.694 1.422-.778.353-1.627.377-2.376.398-.237.008-.47.015-.688.036-.607.053-1.148.106-1.646.158.157.456.334.946.539 1.493.097.264.248.578.407.913.365.762.778 1.627.859 2.484.107 1.14-.562 1.81-.962 2.208a4 4 0 0 0-.267.283c.257.317 1.11.818 1.588 1.104 1.148.677 2.233 1.316 2.375 2.423.041.321.023.953-.569 1.549a2.8 2.8 0 0 1-.486.377l.41.138c.839.282 1.789.6 2.557 1.263.737.639.874 1.305.86 1.753-.037 1.076-.919 1.768-1.592 2.276.124.042.236.08.326.12.5.204 1.015.384 1.56.575.964.338 1.96.688 2.908 1.189.922.486 1.228 1.143 1.323 1.608.19.932-.283 1.757-.816 2.466.361 0 .751-.025 1.106-.05 1.07-.07 2.177-.144 3.133.262 1.277.547 2.286 1.817 2.698 3.404q.053.213.079.395c.08-.014.158-.032.218-.042.167-.035.32-.064.442-.081.25-.032.532-.085.83-.145.598-.116 1.26-.243 1.925-.243m4.24 4.685c-.44 0-.893-.05-1.325-.205-.81-.296-1.344-.868-1.774-1.33-.44-.47-.661-.68-.93-.706-.455-.045-1.075.075-1.673.191-.32.06-.65.127-.974.17-.077.01-.173.028-.279.049-.555.113-1.246.254-1.87.01-1.067-.412-1.17-1.386-1.215-1.802-.014-.127-.026-.237-.05-.332-.178-.684-.648-1.503-1.297-1.778-.42-.18-1.267-.124-2.015-.07-1.406.091-3 .2-4.121-.85l-.717-.675.505-.843c.207-.342.48-.68.745-1.005.199-.247.537-.663.68-.928l-.004-.003c-.788-.417-1.658-.72-2.578-1.045a34 34 0 0 1-1.675-.617 4 4 0 0 0-.286-.102c-.63-.216-1.416-.484-1.849-1.108-.416-.607-.653-1.538.58-2.565l.123-.102c.15-.13.325-.265.508-.402.137-.103.347-.261.507-.399-.404-.286-.98-.476-1.585-.68-.652-.216-1.327-.442-1.95-.826-.769-.473-1.138-1.048-1.099-1.711.059-.984.932-1.408 1.593-1.715-.242-.155-.519-.317-.74-.448-1.175-.695-2.507-1.481-2.78-2.748-.093-.43-.099-1.09.4-1.803.192-.271.406-.483.578-.656.084-.084.206-.204.255-.271-.05-.438-.358-1.08-.63-1.648a14 14 0 0 1-.492-1.111 56 56 0 0 1-1.045-3.03l-.432-1.394 1.451-.173c.932-.11 1.916-.211 3.193-.331.279-.025.562-.032.837-.043.546-.014 1.11-.031 1.444-.183.272-.124.559-.452.862-.801q.181-.212.364-.41c1.163-1.237 1.975-1.118 3.156-.437.333.194.62.417.872.618.213.166.413.32.6.43.118.067.205.106.265.13.096-.123.226-.327.328-.486q.166-.267.366-.554c.522-.748 1.143-1.157 1.845-1.22 1.126-.092 1.946.733 2.605 1.4.248.25.651.66.862.755l.042-.032c.053-.053.204-.268.305-.413.397-.568.892-1.273 1.702-1.457.962-.222 1.818.332 2.383.695.129.085.262.17.343.212.597.303.735.215 1.496-.272.368-.236.826-.529 1.394-.755 2.117-.843 3.2 1.087 3.72 2.015.186.331.494.878.675.998l.038-.01c.089-.04.313-.28.447-.424.44-.473 1.468-1.58 2.912-.85.906.462 1.444 1.358 1.918 2.152.211.353.43.716.616.917.33.356.404.342 1.123.237a9 9 0 0 1 1.054-.11c1.358-.035 2.057.766 2.574 1.355q.116.133.245.271c1.153 1.246 2.278 2.544 3.365 3.796l.94 1.08c.553.635 1.117 1.263 1.681 1.89.775.862 1.576 1.75 2.344 2.657 1.16 1.369 1.986 2.91 2.784 4.406l.38.706c.252.466.52.928.804 1.418.87 1.503 1.77 3.059 2.25 4.766l.072.247c.116.388.332 1.115-.452 1.753a2 2 0 0 0-.11.096c-.45.434-1.072.677-1.62.889-.18.07-.35.134-.46.19-6.887 3.337-12.696 5.955-19.499 6.784l-.618.078c-1.076.13-2.188.268-3.296.367-.14.01-.29.028-.444.045-.38.046-.807.096-1.246.096" style="fill:#211d1d;fill-opacity:1;fill-rule:nonzero;stroke:none;stroke-width:.0352778" transform="translate(77.826 47.273)scale(.51363)"/><path d="M-8.415 46.755c-.913-.127-22.431-3.171-30.19-8.332a315 315 0 0 1-5.011-3.436c-3.61-2.509-7.701-5.352-11.188-7.447-3.933-2.368-7.296-3.581-7.33-3.592l.817-2.293c.146.053 3.614 1.298 7.767 3.796 3.556 2.138 7.682 5.006 11.323 7.535a335 335 0 0 0 4.97 3.412c7.301 4.858 28.96 7.916 29.177 7.948z" style="fill:#211d1d;fill-opacity:1;fill-rule:nonzero;stroke:none;stroke-width:.0352778" transform="translate(77.826 47.273)scale(.51363)"/><path d="M-27.878 42.579c-.194 0-.39-.046-.573-.145-.418-.222-10.208-5.588-9.164-15.805a1.216 1.216 0 1 1 2.422.247c-.88 8.612 7.803 13.364 7.89 13.413a1.217 1.217 0 0 1-.575 2.29m-20.932.913a1.216 1.216 0 0 1-.982-1.933c4.415-6.047 12.9-4.537 13.258-4.47.661.124 1.096.759.973 1.418a1.22 1.22 0 0 1-1.419.974c-.073-.014-7.343-1.284-10.845 3.514a1.22 1.22 0 0 1-.985.497m6.685-7.592a1.2 1.2 0 0 1-.773-.278c-.245-.201-5.994-5.017-5.42-11.737a1.216 1.216 0 1 1 2.426.208c-.467 5.457 4.491 9.606 4.541 9.648a1.218 1.218 0 0 1-.774 2.16m9.54 13.871a1.216 1.216 0 0 1-.904-2.032c4.659-5.172 10.833-5.73 11.093-5.75a1.217 1.217 0 0 1 .2 2.426c-.077.008-5.501.53-9.484 4.953a1.22 1.22 0 0 1-.905.403" style="fill:#211d1d;fill-opacity:1;fill-rule:nonzero;stroke:none;stroke-width:.0352778" transform="translate(77.826 47.273)scale(.51363)"/><path d="M-17.481 44.963c-.17 0-.343-.035-.508-.11-5.217-2.401-6.173-9.831-6.212-10.145a1.218 1.218 0 0 1 2.417-.293c.008.064.836 6.396 4.813 8.227a1.217 1.217 0 0 1-.51 2.321" style="fill:#211d1d;fill-opacity:1;fill-rule:nonzero;stroke:none;stroke-width:.0352778" transform="translate(77.826 47.273)scale(.51363)"/><path d="M-5.043 20.512c-.676.43-1.297 1.034-1.995 1.408-.728.388-1.21-.536-1.685.282-.204.353-.347 1.725-.835 1.697-.592-.039-.805-1.411-1.056-.081-.082.427.032 1.672-.599 1.718-.632.046-.863-1.08-1.314-.406-.346.519-.166 1.686-.277 2.297-.19 1.051-.839.462-1.621.24-.351.656.437 1.704.352 2.413-.08.67-.592.822-1.012 1.196-.49.433-.233-.064-.263.405-.015.24.26.646.351.865.13.31.344.656.312 1.001-.04.43-.47.73-.527 1.154-.11.804.59 1.958.896 2.681 1.146 2.702 2.93 4.844 4.827 7.038.411.473.374.656.888.515.72-.197 1.643-1.429 2.182-1.94 1.212-1.154 2.043-2.42 2.973-3.81.457-.681.923-1.358 1.365-2.05.132-.208.47-.575.495-.832.056-.55-.512-.819-.291-1.443.163-.462.79-.738.917-1.2.2-.726-.448-.437-.741-1.002-.481-.924 1.379-1.217.643-2.212-.425-.571-.82-.592-.693-1.393.037-.233.23-.586.11-.825-.126-.254-.64-.24-.823-.434-.7-.748.796-1.443.118-2.135-.455-.462-1.095.007-1.039-.878.044-.702.634-.917.06-1.454-.222-.208-.576-.236-.788-.48-.276-.313-.364-.85-.508-1.234a61 61 0 0 0-.422-1.1" style="fill:#47b173;fill-opacity:1;fill-rule:nonzero;stroke:none;stroke-width:.0352778" transform="translate(77.826 47.273)scale(.51363)"/><path d="M-14.007 34.923c.018.31.364 1.03.536 1.387.104.215.2.42.276.596 1.043 2.459 2.681 4.47 4.56 6.64.268-.24.613-.622.809-.837.201-.222.39-.43.568-.596 1.07-1.02 1.825-2.145 2.698-3.45l.475-.706c.326-.483.663-.984.977-1.474.05-.078.118-.173.195-.276l.034-.046c-.165-.331-.42-.93-.146-1.707.124-.35.33-.617.527-.825a2 2 0 0 1-.283-.41c-.574-1.104.108-1.954.476-2.339-.403-.409-.8-.938-.658-1.954a1.6 1.6 0 0 1-.389-.3c-.748-.797-.533-1.654-.3-2.173-.883-.388-.98-1.231-.948-1.75a2.6 2.6 0 0 1 .12-.62 2 2 0 0 1-.55-.435c-.329-.373-.485-.814-.6-1.188-.261.19-.535.374-.835.532a2.02 2.02 0 0 1-1.305.215c-.193.695-.589 1.909-1.755 1.909h-.006c-.146.72-.525 1.552-1.591 1.633q-.225.015-.42-.02a5.6 5.6 0 0 1-.064.916c-.122.674-.426 1.147-.902 1.408q-.226.12-.447.166c.082.314.133.652.09 1.005-.113.946-.677 1.418-1.075 1.708l.068.148q.034.08.074.166c.152.324.38.818.325 1.414-.049.522-.297.9-.46 1.147zm5.128 11.275c-.669 0-1.062-.377-1.361-.769a4 4 0 0 0-.169-.212c-2.044-2.36-3.834-4.543-5.027-7.362-.063-.145-.143-.31-.229-.487-.395-.822-.887-1.842-.753-2.83.065-.483.298-.835.451-1.068l.03-.046c-.021-.05-.047-.106-.068-.152a7 7 0 0 1-.117-.26l-.068-.131c-.106-.201-.237-.448-.313-.73l-.417-.318.876-1.803.427.113q.084-.063.16-.116c.052-.04.118-.085.164-.12-.026-.124-.097-.332-.147-.48-.214-.632-.508-1.496-.059-2.335l.463-.868.945.271q.058.015.115.036c.006-.692.027-1.464.436-2.075.38-.568.845-.723 1.169-.751.199-.018.377.003.535.05a3 3 0 0 1 .026-.167c.074-.391.25-1.315 1.14-1.53a1.25 1.25 0 0 1 .69.02 2.3 2.3 0 0 1 .205-.486c.343-.593 1.013-1.217 2.256-.826l.03.01c.272-.161.554-.38.852-.61s.605-.465.943-.68l1.24-.783.542 1.361c.149.37.291.748.432 1.122.049.134.094.282.139.434.032.106.081.272.123.374l.017.007c.18.078.454.198.708.437.817.766.67 1.553.503 1.994.17.084.346.204.513.377.798.812.521 1.708.277 2.212.238.13.485.335.649.663.302.607.122 1.186.025 1.496l-.01.028c.122.12.285.286.456.515.613.83.557 1.676-.167 2.523.652.546.582 1.294.46 1.735-.154.565-.54.932-.794 1.175l-.051.05c.134.264.312.673.257 1.22-.052.522-.362.935-.588 1.238q-.056.07-.092.127c-.331.519-.678 1.03-1.013 1.528l-.469.698c-.915 1.366-1.778 2.653-3.044 3.86a10 10 0 0 0-.444.469c-.65.716-1.386 1.528-2.255 1.764q-.332.089-.599.088" style="fill:#211d1d;fill-opacity:1;fill-rule:nonzero;stroke:none;stroke-width:.0352778" transform="translate(77.826 47.273)scale(.51363)"/><path d="M-8.298 45.01s-1.616-6.862-.972-9.808 1.648-6.304 1.443-7.45z" style="fill:#47b173;fill-opacity:1;fill-rule:nonzero;stroke:none;stroke-width:.0352778" transform="translate(77.826 47.273)scale(.51363)"/><path d="M-8.3 46.23a1.22 1.22 0 0 1-1.183-.939c-.172-.73-1.66-7.221-.976-10.35.183-.836.393-1.697.596-2.533.396-1.633.94-3.87.837-4.445a1.218 1.218 0 0 1 2.397-.427c.183 1.03-.211 2.741-.869 5.447-.2.822-.406 1.669-.583 2.48-.48 2.19.536 7.433.967 9.267a1.215 1.215 0 0 1-.905 1.464 1 1 0 0 1-.28.036" style="fill:#211d1d;fill-opacity:1;fill-rule:nonzero;stroke:none;stroke-width:.0352778" transform="translate(77.826 47.273)scale(.51363)"/><path d="M-10.135 68.843c.637-.483 1.204-1.14 1.868-1.57.692-.448 1.25.43 1.654-.427.174-.367.198-1.75.688-1.76.593-.014.922 1.333 1.06-.01.044-.435-.175-1.662.449-1.765.625-.099.952 1.002 1.344.293.3-.547.02-1.697.08-2.31.1-1.066.796-.533 1.595-.378.294-.684-.582-1.662-.557-2.374.023-.674.52-.872.906-1.277.451-.477.237.042.227-.427-.005-.24-.314-.625-.423-.833-.155-.3-.4-.624-.396-.97.003-.434.405-.769.426-1.196.04-.811-.754-1.901-1.121-2.593-1.372-2.596-3.332-4.579-5.41-6.6-.45-.438-.43-.625-.929-.441-.701.257-1.515 1.566-2.008 2.124-1.11 1.252-1.83 2.582-2.637 4.046-.398.72-.805 1.432-1.185 2.159-.114.219-.42.614-.423.871-.008.554.58.773.414 1.415-.123.473-.724.8-.812 1.273-.137.741.483.4.824.935.558.879-1.27 1.327-.452 2.258.472.533.867.522.81 1.33-.017.233-.18.603-.04.833.147.243.658.183.857.36.761.687-.67 1.506.065 2.137.493.424 1.09-.102 1.11.787.015.702-.554.967.065 1.453.238.19.593.187.826.41.301.289.435.815.611 1.188.168.353.338.71.514 1.059" style="fill:#47b173;fill-opacity:1;fill-rule:nonzero;stroke:none;stroke-width:.0352778" transform="translate(77.826 47.273)scale(.51363)"/><path d="M-11 65.333c.182.08.39.2.584.384.36.35.553.773.7 1.14a7 7 0 0 1 .786-.604 2 2 0 0 1 1.282-.328c.133-.709.425-1.954 1.592-2.05.083-.73.39-1.594 1.445-1.763a1.7 1.7 0 0 1 .422-.018 5.5 5.5 0 0 1-.015-.917c.064-.68.326-1.178.778-1.478q.215-.142.431-.205a2.7 2.7 0 0 1-.176-.995c.033-.949.554-1.47.926-1.795a2 2 0 0 1-.08-.138 3 3 0 0 0-.089-.159c-.179-.314-.448-.783-.444-1.382.004-.526.22-.921.361-1.182.02-.04.046-.085.064-.12-.045-.31-.45-.999-.652-1.337-.122-.208-.236-.399-.326-.572-1.25-2.36-3.053-4.223-5.111-6.226-.246.264-.557.67-.735.903-.18.236-.352.462-.514.645-.98 1.105-1.635 2.293-2.395 3.666l-.405.73c-.286.515-.582 1.044-.855 1.566-.042.081-.103.18-.17.29l-.03.049c.193.314.498.893.291 1.686a2.3 2.3 0 0 1-.454.868c.11.106.218.23.316.385.665 1.05.06 1.958-.275 2.37.436.374.877.868.822 1.891.138.064.28.148.414.268.812.73.672 1.602.483 2.138.914.31 1.083 1.143 1.095 1.662.005.24-.025.451-.066.628m.434 5.365-.657-1.308q-.27-.541-.527-1.087a7 7 0 0 1-.175-.416 5 5 0 0 0-.155-.364l-.017-.003a2.4 2.4 0 0 1-.743-.378c-.88-.691-.8-1.488-.672-1.943a2 2 0 0 1-.542-.328c-.865-.745-.665-1.658-.465-2.18a1.57 1.57 0 0 1-.703-.607c-.353-.579-.223-1.172-.153-1.493l.007-.024c-.131-.113-.308-.261-.498-.477-.682-.772-.698-1.622-.049-2.529-.696-.487-.69-1.238-.606-1.69.106-.571.458-.973.69-1.238l.048-.053c-.157-.254-.37-.646-.361-1.192.007-.526.281-.963.48-1.284q.05-.076.081-.135c.288-.55.592-1.097.886-1.622l.4-.72c.795-1.44 1.545-2.797 2.704-4.106.103-.117.248-.307.401-.508.587-.77 1.253-1.637 2.099-1.948 1.02-.377 1.589.046 2.01.512.05.053.109.12.186.194 2.239 2.18 4.208 4.202 5.638 6.904.074.14.168.3.269.469.463.783 1.04 1.76.992 2.755-.024.487-.225.857-.359 1.104l-.026.046c.026.05.057.103.08.145q.075.129.14.25c.018.032.047.078.078.124.123.194.275.427.375.702l.442.279-.718 1.873-.435-.074-.15.127c-.049.042-.11.095-.153.134.036.12.125.324.187.465.267.61.634 1.447.258 2.322l-.387.903-.964-.187q-.06-.012-.118-.025c.052.688.097 1.457-.258 2.103-.329.596-.78.79-1.1.85a1.4 1.4 0 0 1-.538-.007 3 3 0 0 1-.01.166c-.042.402-.137 1.337-1.006 1.626a1.27 1.27 0 0 1-.69.039c-.04.18-.088.345-.162.5-.292.622-.906 1.299-2.177 1.017l-.031-.007c-.257.183-.52.426-.798.68a13 13 0 0 1-.881.759z" style="fill:#211d1d;fill-opacity:1;fill-rule:nonzero;stroke:none;stroke-width:.0352778" transform="translate(77.826 47.273)scale(.51363)"/><path d="M-8.996 44.702s1.513 5.32.83 9.624.267 5.5.267 5.5z" style="fill:#47b173;fill-opacity:1;fill-rule:nonzero;stroke:none;stroke-width:.0352778" transform="translate(77.826 47.273)scale(.51363)"/><path d="M-8.852 60.584c-.3-.38-1.228-1.965-.516-6.448.634-3.994-.785-9.05-.799-9.102a1.216 1.216 0 1 1 2.341-.663c.065.225 1.58 5.63.863 10.146-.556 3.5.063 4.614.07 4.624a.4.4 0 0 0-.052-.074z" style="fill:#211d1d;fill-opacity:1;fill-rule:nonzero;stroke:none;stroke-width:.0352778" transform="translate(77.826 47.273)scale(.51363)"/></svg>