<svg xmlns="http://www.w3.org/2000/svg" xml:space="preserve" width="200mm" height="200mm" viewBox="0 0 200 200"><path d="M634.593 9.56c0 2.6-1.874 5.023-5.416 7.171-2.518 1.528-5.835 2.844-9.74 4.011-3.164.946-6.674 1.88-10.548 2.523-3.415.571-7.062 1.115-10.897 1.407-3.539.268-7.246.378-11.039.378s-7.46-.42-11-.692c-3.834-.289-7.538-.458-10.953-1.026-3.873-.642-7.514-1.334-10.679-2.28-3.905-1.167-7.01-2.857-9.532-4.384-3.541-2.149-4.68-4.177-4.68-6.777 0-2.604 1.177-5.253 4.72-7.401 2.522-1.528 5.633-3.161 9.538-4.329a87 87 0 0 1 10.608-2.47c3.415-.567 7.12-.86 10.95-1.15 3.539-.268 7.236-.423 11.028-.423s7.483.219 11.018.487c3.838.29 7.45.878 10.869 1.45 3.87.642 7.408 1.429 10.576 2.374 3.905 1.168 7.176 2.498 9.698 4.025 3.542 2.149 5.479 4.505 5.479 7.105" style="fill:#ce5e1d;fill-opacity:1;fill-rule:nonzero;stroke:none;stroke-width:.0352778" transform="translate(-280.455 161.388)scale(.64889)"/><path d="M586.953-5.05c-3.612 0-7.302.142-10.964.42-3.468.265-7.398.562-10.876 1.144a86 86 0 0 0-10.51 2.444c-4.144 1.242-7.316 3.017-9.34 4.244-2.908 1.764-4.322 3.951-4.322 6.685 0 2.085.726 3.913 4.282 6.068 2.28 1.383 5.401 3.122 9.335 4.297 3.305.988 7.2 1.697 10.576 2.258 2.646.44 5.458.635 8.435.843q1.213.083 2.448.176 1.31.101 2.64.22c2.69.228 5.47.468 8.296.468 4.054 0 7.645-.123 10.975-.377 3.948-.3 7.687-.872 10.827-1.397 3.246-.54 6.467-1.309 10.446-2.501 4.078-1.217 7.204-2.502 9.546-3.923 3.327-2.018 5.013-4.191 5.013-6.46 0-2.197-1.707-4.35-5.08-6.392-2.364-1.436-5.563-2.759-9.504-3.937-3.051-.914-6.576-1.707-10.474-2.357-3.051-.508-6.85-1.139-10.791-1.439-2.964-.222-6.883-.483-10.958-.483m0 30.931c-2.896 0-5.715-.24-8.438-.476-.882-.074-1.757-.152-2.625-.215-.818-.064-1.633-.12-2.437-.176-3.017-.209-5.867-.406-8.59-.861-3.43-.568-7.388-1.288-10.781-2.304-4.117-1.231-7.36-3.034-9.723-4.47-3.563-2.162-5.083-4.402-5.083-7.493 0-3.32 1.721-6.046 5.122-8.11 2.102-1.273 5.4-3.119 9.73-4.413a87 87 0 0 1 10.71-2.494c3.552-.593 7.521-.893 11.028-1.161 3.7-.279 7.433-.423 11.087-.423 4.131 0 8.093.26 11.081.487 3.715.282 7.155.829 10.94 1.46 3.969.66 7.563 1.468 10.678 2.399 4.135 1.238 7.37 2.582 9.892 4.11 3.902 2.367 5.881 4.999 5.881 7.817 0 2.89-1.954 5.542-5.817 7.885-2.463 1.496-5.712 2.833-9.93 4.096-4.047 1.21-7.332 1.996-10.651 2.547-3.175.529-6.96 1.111-10.972 1.414-3.376.258-7.006.381-11.102.381" style="fill:#211d1d;fill-opacity:1;fill-rule:nonzero;stroke:none;stroke-width:.0352778" transform="translate(-280.455 161.388)scale(.64889)"/><path d="M636.42-73.259c-1.037-1.513-2.628-2.963-4.766-4.335-2.685-1.729-6.128-3.246-10.527-4.64-3.323-1.054-7.147-1.964-11.374-2.712-4.032-.71-7.69-1.327-11.648-1.644-3.186-.258-7.405-.55-11.804-.55-3.891 0-7.867.158-11.811.476-3.733.303-7.962.642-11.744 1.308a90 90 0 0 0-11.405 2.816c-4.608 1.464-8.118 3.545-10.355 4.984-2.151 1.383-3.746 2.787-4.8 4.234-.34-5.176-.668-10.319-.967-15.321a.5.5 0 0 1 .02-.17l.054-.17-.022-.175a6 6 0 0 1-.052-.759c0-2.967 1.481-5.21 5.111-7.74 2.597-1.806 6.58-4.269 10.827-5.725a83.6 83.6 0 0 1 11.437-3.06c2.826-.542 5.803-.863 8.082-1.086 1.235-.12 2.49-.229 3.76-.342l.971-.085c1.496-.13 2.678-.236 3.902-.313a79 79 0 0 1 4.992-.138c.031 0 1.943-.056 4.737-.056 2.255 0 5.08.035 7.97.162.102 0 10.689.144 21.787 4.074 11.691 4.138 14.069 6.654 15.642 8.319l.07.074c.749.787 2.908 4.05 2.908 5.916 0 .579-.078 1.168-.233 1.757l-.275 1.055h.211z" style="fill:#f3fbfa;fill-opacity:1;fill-rule:nonzero;stroke:none;stroke-width:.0352778" transform="translate(-280.455 161.388)scale(.64889)"/><path d="M537.864-48.018c0 .004.011.11.018.307.773 11.656 1.633 25.111 2.166 36.435.9 19.308.261 32.378.046 35.924l-.007.056c-.01.106-.025.205-.021.265l.007.113-.021.105q-.005.061-.004.13c0 2.583 1.76 5.13 5.224 7.575 2.28 1.605 5.398 3.623 9.328 4.988 3.305 1.147 7.19 1.965 10.558 2.614 2.653.515 5.468.741 8.45.978.8.067 1.608.13 2.42.2q1.263.119 2.546.248c2.717.271 5.528.553 8.382.553 4.054 0 7.642-.14 10.965-.43 4.028-.363 7.891-1.058 10.805-1.623 4.23-.822 7.984-2.05 10.439-2.9 4.06-1.414 7.18-2.903 9.529-4.56 3.358-2.361 5.058-4.93 5.058-7.642l1.256-70.676.738-14.57c0-.144.01-.289.02-.433l.029-.632.007-.11q0-.084.01-.168l.025-.501q.001-.075.007-.149v-.06l.004-.077a1 1 0 0 0 .007-.099l.01-.159 1.253-24.79h-.211l.275-1.054q.233-.887.233-1.757c0-1.866-2.16-5.13-2.907-5.916l-.07-.074c-1.574-1.665-3.952-4.18-15.643-8.319-11.098-3.93-21.685-4.074-21.788-4.074a199 199 0 0 0-12.707-.106c-1.93 0-3.415.042-4.992.138-1.224.077-2.405.183-3.901.314l-.97.084c-1.27.113-2.526.222-3.761.342-2.279.223-5.256.544-8.082 1.087a83.6 83.6 0 0 0-11.437 3.059c-4.248 1.457-8.23 3.919-10.827 5.725-3.63 2.53-5.112 4.773-5.112 7.74 0 .226.018.466.053.759l.021.176-.052.17a.5.5 0 0 0-.022.169c.604 10.04 1.313 20.665 2 30.942.216 3.245.434 6.48.646 9.684m49.093 92.17c-2.939 0-5.793-.286-8.552-.561q-1.274-.132-2.526-.247-1.21-.104-2.405-.198c-3.03-.243-5.892-.472-8.636-1.002-3.422-.66-7.384-1.495-10.788-2.68-4.128-1.43-7.377-3.532-9.748-5.2-3.937-2.777-5.933-5.786-5.933-8.947 0-.099 0-.215.017-.342-.004-.17.018-.325.032-.459.219-3.563.847-16.542-.046-35.715-.533-11.307-1.393-24.754-2.166-36.417a3 3 0 0 0-.018-.261q-.317-4.843-.645-9.712c-.685-10.28-1.397-20.91-2-30.953a2.2 2.2 0 0 1 .042-.568 8 8 0 0 1-.046-.808c0-3.542 1.743-6.269 5.831-9.116 2.681-1.87 6.809-4.416 11.24-5.937a85.5 85.5 0 0 1 11.67-3.122c2.893-.554 5.92-.882 8.234-1.108q1.861-.18 3.778-.342l.97-.085c1.506-.134 2.695-.24 3.944-.317a79 79 0 0 1 5.07-.141c.038-.004 6.268-.177 12.774.106.08 0 10.932.14 22.306 4.17 12.072 4.275 14.516 6.86 16.302 8.748l.067.07c.716.756 3.369 4.439 3.369 7.074 0 .68-.085 1.376-.254 2.064l-1.302 25.703-.004.078-.01.13c0 .043-.005.081-.005.12l-.004.074-.004.043-.028.578-.007.103c-.004.052-.004.105-.01.162l-.025.592a5 5 0 0 0-.018.367v.046l-.063 1.147-.674 13.409-1.256 70.633c0 3.277-1.94 6.308-5.772 9-2.48 1.75-5.732 3.308-9.94 4.772-2.51.868-6.34 2.12-10.672 2.964-2.953.575-6.872 1.277-10.979 1.647-3.376.297-7.01.438-11.112.438" style="fill:#211d1d;fill-opacity:1;fill-rule:nonzero;stroke:none;stroke-width:.0352778" transform="translate(-280.455 161.388)scale(.64889)"/><path d="M637.04-68.87c0 2.938-1.996 5.672-5.767 8.1-2.685 1.725-6.213 3.21-10.372 4.53-3.372 1.068-7.112 2.123-11.236 2.85-3.637.642-7.524 1.256-11.606 1.587-3.768.304-7.719.427-11.758.427-4.04 0-7.945-.476-11.716-.78-4.082-.328-8.03-.518-11.666-1.16-4.124-.727-8.005-1.507-11.374-2.576-4.16-1.319-7.468-3.224-10.15-4.949-3.774-2.427-5.944-5.09-5.944-8.03 0-2.938 2.212-5.559 5.984-7.983 2.684-1.728 6-3.573 10.16-4.89a88 88 0 0 1 11.295-2.79c3.641-.642 7.582-.97 11.667-1.298 3.767-.303 7.704-.476 11.744-.476s7.969.243 11.737.547c4.085.328 7.934.995 11.57 1.637 4.125.726 7.896 1.615 11.265 2.684 4.163 1.32 7.648 2.819 10.333 4.544 3.771 2.427 5.835 5.087 5.835 8.026" style="fill:#fcf7cd;fill-opacity:1;fill-rule:nonzero;stroke:none;stroke-width:.0352778" transform="translate(-280.455 161.388)scale(.64889)"/><path d="M586.3-85.475c-3.848 0-7.774.158-11.676.472-3.694.297-7.885.635-11.589 1.291a87 87 0 0 0-11.19 2.763c-4.42 1.4-7.8 3.407-9.959 4.794-3.768 2.423-5.602 4.808-5.602 7.285 0 2.487 1.873 4.953 5.56 7.327 2.43 1.563 5.757 3.528 9.952 4.858 3.52 1.114 7.669 1.915 11.267 2.55 2.815.498 5.807.716 8.975.95q1.296.095 2.614.2c.931.074 1.87.16 2.815.244 2.865.26 5.828.532 8.834.532 4.318 0 8.142-.14 11.69-.426 4.206-.34 8.189-.985 11.53-1.577 4.43-.78 8.272-1.92 11.126-2.826 4.35-1.376 7.677-2.83 10.174-4.434 3.574-2.297 5.387-4.788 5.387-7.398 0-2.533-1.834-4.996-5.454-7.324-2.522-1.623-5.933-3.122-10.131-4.452-3.25-1.03-7.007-1.926-11.159-2.66-3.99-.702-7.61-1.312-11.493-1.626-3.154-.25-7.331-.543-11.67-.543m0 34.932c-3.083 0-6.082-.272-8.985-.537q-1.41-.128-2.798-.247c-.871-.067-1.743-.134-2.603-.197-3.21-.237-6.241-.459-9.141-.97-3.651-.646-7.87-1.457-11.483-2.604-4.381-1.39-7.832-3.425-10.347-5.045-4.198-2.698-6.325-5.633-6.325-8.727 0-3.09 2.081-5.93 6.367-8.686 2.237-1.439 5.747-3.52 10.355-4.984a90 90 0 0 1 11.405-2.816c3.782-.666 8.011-1.005 11.744-1.308 3.944-.318 7.92-.477 11.81-.477 4.4 0 8.62.293 11.805.55 3.958.318 7.616.936 11.648 1.645 4.227.748 8.05 1.658 11.374 2.713 4.4 1.393 7.842 2.91 10.527 4.639 4.127 2.652 6.22 5.588 6.22 8.724 0 3.214-2.068 6.173-6.15 8.798-2.624 1.686-6.081 3.2-10.572 4.625-4.311 1.365-7.81 2.254-11.342 2.875-3.38.596-7.408 1.256-11.684 1.598-3.591.29-7.461.43-11.825.43" style="fill:#211d1d;fill-opacity:1;fill-rule:nonzero;stroke:none;stroke-width:.0352778" transform="translate(-280.455 161.388)scale(.64889)"/><path d="M537.96-47.05c0 .003.01.112.017.306.773 11.585 1.634 24.963 2.166 36.216.9 19.195.261 32.191.046 35.719l-.007.063c-.01.096-.024.19-.021.244l.007.123-.021.12c-.004.025-.004.067-.004.11 0 2.529 1.743 5.034 5.182 7.443 2.272 1.595 5.387 3.595 9.303 4.946 3.305 1.14 7.186 1.955 10.544 2.597 2.65.508 5.465.733 8.446.97q1.197.095 2.416.2c.844.075 1.694.16 2.551.244 2.716.272 5.521.55 8.371.55 4.05 0 7.635-.14 10.958-.43 4.025-.356 7.884-1.048 10.795-1.608 4.219-.815 7.972-2.036 10.428-2.883 4.053-1.4 7.161-2.878 9.504-4.519 3.33-2.325 5.016-4.85 5.016-7.51l1.256-70.253.737-14.485q.002-.216.022-.434l.028-.627.007-.106q0-.085.01-.17l.025-.494q.001-.078.007-.151l.007-.138.004-.095.01-.159.089-1.718c-1.006 1.235-2.367 2.413-4.078 3.52-2.632 1.708-6.096 3.24-10.594 4.679-2.907.931-6.826 2.102-11.356 2.91-3.383.603-7.416 1.267-11.698 1.612-3.592.293-7.461.438-11.832.438-3.09 0-6.093-.275-8.996-.544a215 215 0 0 0-2.794-.246c-.875-.071-1.74-.135-2.6-.202-3.214-.24-6.251-.462-9.158-.98-3.655-.653-7.878-1.475-11.494-2.632-4.395-1.408-7.853-3.468-10.375-5.105q-2.468-1.604-3.983-3.312.206 3.1.416 6.191zm48.998 91.721c-2.942 0-5.796-.285-8.559-.56q-1.27-.127-2.526-.244-1.21-.1-2.402-.194c-3.034-.243-5.898-.473-8.647-1.002-3.425-.656-7.39-1.485-10.805-2.663-4.138-1.426-7.39-3.518-9.765-5.183-3.969-2.78-5.98-5.8-5.98-8.974 0-.1 0-.22.018-.35-.004-.169.018-.324.032-.455.218-3.549.846-16.44-.046-35.486-.533-11.24-1.394-24.606-2.166-36.198-.007-.166-.014-.244-.014-.254l-.646-9.631-.677-10.104-.565-8.494 2.396 8.17c.578 1.979 2.36 3.947 5.298 5.852 2.424 1.577 5.744 3.553 9.928 4.893 3.51 1.126 7.655 1.93 11.25 2.572 2.811.501 5.803.723 8.967.96.865.063 1.736.127 2.614.2.928.075 1.867.163 2.812.248 2.865.264 5.824.536 8.826.536 4.318 0 8.14-.141 11.681-.43 4.205-.343 8.184-.995 11.522-1.591 4.42-.787 8.262-1.934 11.112-2.847 4.34-1.39 7.659-2.85 10.15-4.466 2.78-1.807 4.494-3.747 5.094-5.761l.173-.579 1.936-.254-.335 6.54-.007.068q-.001.064-.007.134l-.004.12-.004.067-.004.05-.028.578-.007.095c-.004.053-.004.106-.01.162l-.025.59a5 5 0 0 0-.018.356v.053l-.067 1.139-.67 13.328-1.256 70.203c0 3.291-1.954 6.332-5.814 9.027-2.487 1.743-5.747 3.299-9.966 4.756-2.512.864-6.346 2.113-10.685 2.949-2.953.571-6.873 1.27-10.986 1.637-3.38.296-7.017.437-11.12.437" style="fill:#211d1d;fill-opacity:1;fill-rule:nonzero;stroke:none;stroke-width:.0352778" transform="translate(-280.455 161.388)scale(.64889)"/><path d="M577.192-54.604c3.704-.448 8.128-.963 11.54-2.48.959-.427 1.926-.91 2.649-1.676.864-.913 1.298-2.141 1.71-3.33q1.687-4.841 3.373-9.687c.318-.91.628-1.937.212-2.805-.713-1.485-2.907-1.358-4.389-.635-1.478.727-2.96 1.842-4.586 1.577L574.25-61.487z" style="fill:#bae7e0;fill-opacity:1;fill-rule:nonzero;stroke:none;stroke-width:.0352778" transform="translate(-280.455 161.388)scale(.64889)"/><path d="m575.202-61.278 2.484 5.817c3.595-.438 7.595-.956 10.724-2.346.819-.367 1.743-.812 2.392-1.496.762-.808 1.16-1.944 1.542-3.044l3.369-9.691c.279-.794.526-1.623.247-2.202-.134-.278-.36-.472-.695-.589-.688-.236-1.743-.105-2.628.325-.297.148-.593.31-.91.48-1.115.606-2.364 1.29-3.758 1.21zm1.493 7.531-3.398-7.948 14.157-12.788.374.06c1.016.162 2.046-.399 3.14-.995.318-.17.642-.349.97-.511 1.006-.487 2.54-.85 3.849-.395.73.254 1.284.737 1.602 1.397.585 1.22.109 2.592-.177 3.41l-3.369 9.688c-.42 1.2-.892 2.561-1.887 3.616-.85.896-1.944 1.429-2.904 1.852-3.47 1.545-7.792 2.068-11.606 2.526z" style="fill:#211d1d;fill-opacity:1;fill-rule:nonzero;stroke:none;stroke-width:.0352778" transform="translate(-280.455 161.388)scale(.64889)"/><path d="M566.69-80.113c-1.644 2.797-8.103 15.395-6.855 18.39.995 2.388 13.35 9.176 16.927 7.359 2.11-1.069 3.393-3.239 4.561-5.295l5.955-10.481c.399-.702.808-1.45.769-2.254-.06-1.253-1.157-2.174-2.201-2.869-5.722-3.81-18.881-5.316-19.156-4.85" style="fill:#f1faf9;fill-opacity:1;fill-rule:nonzero;stroke:none;stroke-width:.0352778" transform="translate(-280.455 161.388)scale(.64889)"/><path d="M566.69-80.113h.004zm.508.705c-2.48 4.322-7.574 15.117-6.629 17.378.455 1.1 5.292 4.36 10.157 6.153 2.674.987 4.745 1.28 5.68.804 1.964-.995 3.22-3.203 4.226-4.978l5.958-10.48c.392-.696.692-1.27.667-1.825-.046-.938-1.08-1.732-1.852-2.247-4.94-3.291-16.101-4.882-18.207-4.805m7.994 26.141c-1.309 0-2.985-.374-5.013-1.122-4.449-1.637-10.255-5.066-11.074-7.027-1.633-3.912 6.816-18.951 6.9-19.1.089-.148.265-.338.607-.42 1.662-.38 14.076 1.285 19.675 5.014 1.058.705 2.473 1.834 2.554 3.489.05 1.058-.484 1.996-.872 2.684l-5.958 10.481c-1.111 1.958-2.498 4.396-4.89 5.61-.511.26-1.157.391-1.93.391" style="fill:#211d1d;fill-opacity:1;fill-rule:nonzero;stroke:none;stroke-width:.0352778" transform="translate(-280.455 161.388)scale(.64889)"/><path d="M596.676-74.582c.452-1.28-11.458-9.948-16.976-10.904-4.737 1.104-8.36 2.17-12.516 5.027a.32.32 0 0 0 .06.56l20.747 8.132z" style="fill:#fff;fill-opacity:1;fill-rule:nonzero;stroke:none;stroke-width:.0352778" transform="translate(-280.455 161.388)scale(.64889)"/><path d="M596.676-74.582h.004zm-28.296-5.722 19.635 7.698 7.54-2.448c-1.955-2.184-11.082-8.693-15.834-9.62-4.046.945-7.507 1.904-11.341 4.37m19.586 9.38-21.012-8.233a1.11 1.11 0 0 1-.695-.907 1.11 1.11 0 0 1 .473-1.048c4.417-3.034 8.245-4.085 12.788-5.147l.16-.035.158.028c5.327.921 16.04 8.516 17.41 10.852.232.398.292.765.176 1.093l-.13.37z" style="fill:#211d1d;fill-opacity:1;fill-rule:nonzero;stroke:none;stroke-width:.0352778" transform="translate(-280.455 161.388)scale(.64889)"/><path d="M567.783-72.366c-3.21-8.597-10.488-27.38-17.268-44.785-.275.617-1.051.973-1.531 1.361-.194.16-.374.166-.543.1a126823 126823 0 0 1 17.314 44.534c.628 1.764 4.844 12.548 5.648 12.421.928-.145-2.896-11.698-3.62-13.631" style="fill:#e6f6f4;fill-opacity:1;fill-rule:nonzero;stroke:none;stroke-width:.0352778" transform="translate(-280.455 161.388)scale(.64889)"/><path d="M549.492-115.18c16.972 43.646 17 43.727 17.01 43.756.551 1.548 2.125 5.514 3.437 8.477-.889-3.217-2.272-7.468-2.896-9.14-2.65-7.095-8.305-21.763-16.814-43.611-.116.085-.236.166-.345.24a6 6 0 0 0-.392.279m21.88 57.242c-.643 0-1.094-.67-1.81-2.078-.477-.938-1.076-2.254-1.779-3.912-1.217-2.857-2.434-6.004-2.776-6.964-.085-.218-6.068-15.617-17.307-44.513l-.66-1.704 1.549.62c.13-.098.271-.193.406-.281.324-.22.691-.47.797-.706l.776-1.725.688 1.764c8.763 22.496 14.573 37.57 17.272 44.792.346.928 1.425 4.12 2.339 7.176 1.838 6.16 1.53 6.685 1.309 7.07a.92.92 0 0 1-.805.461" style="fill:#211d1d;fill-opacity:1;fill-rule:nonzero;stroke:none;stroke-width:.0352778" transform="translate(-280.455 161.388)scale(.64889)"/><path d="M561.87-119.55c.071-.24-.115-.487-.401-.522-3.944-.501-10.058-.459-13.501.758-2.999 1.065-7.12 7.733-8.015 9.232-.081.134.042.293.222.29l18.962-.406z" style="fill:#f9f1ae;fill-opacity:1;fill-rule:nonzero;stroke:none;stroke-width:.0352778" transform="translate(-280.455 161.388)scale(.64889)"/><path d="M561.871-119.55h.004zm-5.525-.028c-3.002 0-6.092.3-8.11 1.012-1.961.695-4.89 4.533-7.034 7.959l17.339-.37 2.44-8.355a42 42 0 0 0-4.635-.246m-16.178 10.58c-.374 0-.72-.195-.903-.509a.97.97 0 0 1 .007-.98c1.171-1.962 5.242-8.442 8.431-9.575 3.49-1.235 9.617-1.337 13.864-.797.381.046.713.25.918.56.19.29.243.643.148.971l-2.896 9.913-19.544.416z" style="fill:#211d1d;fill-opacity:1;fill-rule:nonzero;stroke:none;stroke-width:.0352778" transform="translate(-280.455 161.388)scale(.64889)"/><path d="M557.877-97.396c2.032-3.02 6.361-6.897 6.918-9.306.396-1.729-1.608-9.677-2.705-12.954-.043-.124-.23-.162-.335-.078-2.555 2.1-4.135 4.749-4.904 7.754l-1.006 14.214z" style="fill:#efd83e;fill-opacity:1;fill-rule:nonzero;stroke:none;stroke-width:.0352778" transform="translate(-280.455 161.388)scale(.64889)"/><path d="m556.689-98.419.832.152c.776-1.083 1.785-2.244 2.766-3.373 1.69-1.94 3.436-3.947 3.732-5.242.297-1.28-1.2-7.782-2.41-11.673-1.946 1.802-3.28 4.053-3.975 6.702zm1.559 1.898-3.242-.593 1.076-15.063c.847-3.299 2.586-6.047 5.168-8.167a1.01 1.01 0 0 1 .928-.187.98.98 0 0 1 .663.624c.83 2.477 3.224 11.208 2.727 13.381-.388 1.68-2.184 3.743-4.082 5.927-1.08 1.245-2.197 2.53-2.949 3.644z" style="fill:#211d1d;fill-opacity:1;fill-rule:nonzero;stroke:none;stroke-width:.0352778" transform="translate(-280.455 161.388)scale(.64889)"/><path d="M539.776-109.782c-.12 3.958.632 6.24.04 10.118-.124.815-.23 1.71.289 2.42.762 1.04 2.43 1.164 3.838 1.171q4.92.026 9.835.046c1.432.007 3.041-.05 3.987-.949.776-.734.87-1.824.927-2.83.18-3.188-1.192-11.532-2.095-12.304 0 0-15.212-.974-16.82 2.328" style="fill:#f3e264;fill-opacity:1;fill-rule:nonzero;stroke:none;stroke-width:.0352778" transform="translate(-280.455 161.388)scale(.64889)"/><path d="M540.563-109.563c-.035 1.474.053 2.72.141 3.923.134 1.901.265 3.7-.102 6.096-.116.74-.18 1.386.141 1.83.543.741 1.997.844 3.203.847l9.836.046c1.287.007 2.716-.046 3.436-.73.54-.508.628-1.34.68-2.297.18-3.14-1.061-10.057-1.735-11.497-5.948-.342-14.355-.014-15.6 1.782m13.374 14.33h-.162l-9.836-.046c-1.675-.007-3.52-.19-4.477-1.5-.737-1.005-.55-2.208-.43-3.005.339-2.22.219-3.934.088-5.743-.091-1.299-.187-2.64-.137-4.28l.004-.169.077-.155c1.754-3.595 14.955-2.939 17.583-2.773l.264.018.201.173c1.316 1.125 2.537 10.089 2.371 12.954-.053.945-.134 2.374-1.171 3.358-1.108 1.055-2.822 1.168-4.375 1.168" style="fill:#211d1d;fill-opacity:1;fill-rule:nonzero;stroke:none;stroke-width:.0352778" transform="translate(-280.455 161.388)scale(.64889)"/><path d="M550.166-115.906c.723-.427.734-1.037.667-1.418-7.553-19.385-10.62-25.492-10.62-25.492l-2.003 1.482s2.73 5.969 10.15 25.04c.162.204.86.952 1.806.388" style="fill:#e6f6f4;fill-opacity:1;fill-rule:nonzero;stroke:none;stroke-width:.0352778" transform="translate(-280.455 161.388)scale(.64889)"/><path d="M549.047-116.71c.336.349.607.187.713.123.243-.145.328-.29.3-.533-5.92-15.194-9.091-22.228-10.15-24.486l-.716.53c.844 1.918 3.793 8.787 9.853 24.366m.427 1.806c-.726 0-1.347-.413-1.732-.89l-.077-.095-.046-.116c-7.317-18.817-10.1-24.941-10.129-24.998l-.268-.585 3.274-2.424.423.84c.032.063 3.175 6.36 10.65 25.562l.043.148c.166.931-.215 1.75-1.04 2.24a2.13 2.13 0 0 1-1.098.318" style="fill:#211d1d;fill-opacity:1;fill-rule:nonzero;stroke:none;stroke-width:.0352778" transform="translate(-280.455 161.388)scale(.64889)"/><path d="M545.241-139.923c-.494 2.734-3.253 4.53-6.167 4.004-2.91-.522-4.875-3.165-4.381-5.902.49-2.734 3.249-4.526 6.163-4.004 2.914.525 4.875 3.168 4.385 5.902" style="fill:#e6f6f4;fill-opacity:1;fill-rule:nonzero;stroke:none;stroke-width:.0352778" transform="translate(-280.455 161.388)scale(.64889)"/><path d="M539.847-145.123c-2.138 0-4.011 1.414-4.374 3.443-.413 2.3 1.266 4.537 3.743 4.981 2.476.445 4.83-1.065 5.245-3.365.413-2.3-1.266-4.534-3.746-4.982a5 5 0 0 0-.868-.077m.236 10.09a6.4 6.4 0 0 1-1.15-.107c-3.337-.6-5.591-3.658-5.023-6.822.568-3.161 3.746-5.246 7.087-4.643 3.337.6 5.592 3.662 5.024 6.823-.501 2.794-3.045 4.748-5.938 4.748" style="fill:#211d1d;fill-opacity:1;fill-rule:nonzero;stroke:none;stroke-width:.0352778" transform="translate(-280.455 161.388)scale(.64889)"/><path d="M619.949 8.166c2.716-2.565 5.962-5.61 7.8-8.858.518-.918 1.005-1.877 1.132-2.921.148-1.25-.23-2.498-.607-3.698-1.016-3.263-2.035-6.53-3.055-9.793-.286-.92-.645-1.93-1.5-2.38-1.456-.77-3.142.638-3.9 2.102-.76 1.464-1.285 3.242-2.749 3.997l-3.58 17.773z" style="fill:#bae7e0;fill-opacity:1;fill-rule:nonzero;stroke:none;stroke-width:.0352778" transform="translate(-280.455 161.388)scale(.64889)"/><path d="m614.378 3.989 5.458 3.193c2.632-2.487 5.535-5.289 7.221-8.266.441-.78.921-1.69 1.037-2.625.13-1.104-.229-2.254-.575-3.365l-3.055-9.793c-.254-.805-.547-1.616-1.114-1.916-.276-.144-.572-.162-.907-.06-.695.219-1.468.953-1.923 1.828-.151.292-.293.6-.444.924-.533 1.153-1.133 2.445-2.3 3.21zm5.684 5.161L612.6 4.786l3.768-18.704.339-.173c.91-.473 1.407-1.538 1.93-2.667.151-.324.306-.663.476-.988.515-.991 1.534-2.197 2.854-2.61.74-.233 1.474-.173 2.123.17 1.196.63 1.63 2.017 1.888 2.846l3.055 9.793c.377 1.214.808 2.586.635 4.025-.148 1.232-.713 2.308-1.228 3.221-1.873 3.306-5.038 6.294-7.828 8.933z" style="fill:#211d1d;fill-opacity:1;fill-rule:nonzero;stroke:none;stroke-width:.0352778" transform="translate(-280.455 161.388)scale(.64889)"/><path d="M596.33-6.086c.346 3.228 2.65 17.198 5.437 18.86 2.219 1.326 16.185-.569 17.98-4.16 1.059-2.113.801-4.622.516-6.967l-1.45-11.97c-.099-.801-.215-1.644-.723-2.269-.794-.97-2.226-1.054-3.479-.994-6.865.342-18.337 6.963-18.28 7.5" style="fill:#f1faf9;fill-opacity:1;fill-rule:nonzero;stroke:none;stroke-width:.0352778" transform="translate(-280.455 161.388)scale(.64889)"/><path d="M597.16-5.822c.574 4.95 2.906 16.658 5.012 17.914 1.023.61 6.848.353 11.825-1.1 2.738-.801 4.572-1.796 5.042-2.73.987-1.976.68-4.495.437-6.52l-1.453-11.97c-.096-.79-.198-1.432-.547-1.863-.596-.726-1.898-.748-2.826-.702-5.927.293-15.843 5.659-17.49 6.971m7.51 19.812c-1.489 0-2.685-.162-3.313-.536-3.637-2.173-5.796-19.28-5.813-19.456a.9.9 0 0 1 .236-.698c1.111-1.295 12.076-7.345 18.792-7.677 1.27-.063 3.08 0 4.131 1.28.67.823.801 1.895.896 2.679l1.45 11.97c.272 2.236.61 5.02-.592 7.418-.695 1.387-2.717 2.579-6.012 3.542-2.995.875-6.921 1.478-9.775 1.478" style="fill:#211d1d;fill-opacity:1;fill-rule:nonzero;stroke:none;stroke-width:.0352778" transform="translate(-280.455 161.388)scale(.64889)"/><path d="M623.72-19.485c-.399-1.295-15.127-1.175-20.13 1.34-3.15 3.708-5.429 6.721-7.07 11.49-.08.24.142.48.385.413l21.513-5.81z" style="fill:#fff;fill-opacity:1;fill-rule:nonzero;stroke:none;stroke-width:.0352778" transform="translate(-280.455 161.388)scale(.64889)"/><path d="M623.124-19.002h.004zm-19.036 1.496c-2.688 3.168-4.9 5.997-6.512 10.263l20.362-5.5 4.6-6.453c-2.868-.592-14.076-.391-18.45 1.69m-7.264 12.069a1.112 1.112 0 0 1-1.051-1.475c1.743-5.07 4.19-8.191 7.214-11.747l.102-.124.145-.07c4.83-2.428 17.96-2.703 20.45-1.64.424.183.692.444.794.775l.117.374-5.698 7.984-21.787 5.884a1 1 0 0 1-.286.039" style="fill:#211d1d;fill-opacity:1;fill-rule:nonzero;stroke:none;stroke-width:.0352778" transform="translate(-280.455 161.388)scale(.64889)"/><path d="M615.758-76.818c-.053-.325-.413-.512-.773-.392-4.946 1.648-12.153 5.168-15.526 8.562-2.945 2.96-4.032 13.183-4.24 15.462-.018.205.222.321.43.215l22.187-11.239z" style="fill:#fff;fill-opacity:1;fill-rule:nonzero;stroke:none;stroke-width:.0352778" transform="translate(-280.455 161.388)scale(.64889)"/><path d="M615.024-76.388c-4.981 1.693-11.86 5.14-15.004 8.297-2.025 2.036-3.344 8.601-3.916 14.002l20.853-10.57zm-19.537 24.254c-.219 0-.43-.064-.614-.187a1.01 1.01 0 0 1-.444-.935c.271-2.96 1.393-12.859 4.466-15.953 3.394-3.411 10.537-6.988 15.84-8.752a1.43 1.43 0 0 1 1.196.12c.328.197.546.522.61.892l2.173 13.18-22.708 11.508a1.14 1.14 0 0 1-.519.127" style="fill:#211d1d;fill-opacity:1;fill-rule:nonzero;stroke:none;stroke-width:.0352778" transform="translate(-280.455 161.388)scale(.64889)"/><path d="M623.614-48.363c.684-4.724 3.602-11.762 2.89-14.93-.509-2.268-7.391-10.523-10.549-13.776-.12-.123-.363-.063-.44.099-1.828 3.926-2.191 7.959-1.398 11.949L621-47.647z" style="fill:#bae7e0;fill-opacity:1;fill-rule:nonzero;stroke:none;stroke-width:.0352778" transform="translate(-280.455 161.388)scale(.64889)"/><path d="m614.883-65.244 6.593 16.644 1.433-.395c.3-1.746.85-3.746 1.382-5.687.904-3.284 1.835-6.678 1.44-8.434-.41-1.814-6.15-8.954-9.8-12.831-1.422 3.394-1.775 6.989-1.048 10.703m8.731 16.88h.004zm-3.09 1.67-7.183-18.172c-.864-4.329-.37-8.513 1.457-12.44.148-.32.452-.546.808-.606.342-.06.684.05.917.293 2.858 2.939 10.167 11.543 10.756 14.153.484 2.145-.458 5.574-1.457 9.204-.575 2.089-1.167 4.248-1.425 6.012l-.074.515z" style="fill:#211d1d;fill-opacity:1;fill-rule:nonzero;stroke:none;stroke-width:.0352778" transform="translate(-280.455 161.388)scale(.64889)"/><path d="M595.18-52.73c2.106 4.744 4.294 7.02 5.793 11.937.317 1.034.698 2.152 1.714 2.696 1.493.8 3.535 0 5.204-.794q5.826-2.762 11.652-5.528c1.697-.805 3.567-1.782 4.173-3.383.501-1.31-.007-2.65-.508-3.87-1.598-3.877-7.955-12.961-9.465-13.36 0 0-18.531 7.482-18.563 12.301" style="fill:#ecf9f7;fill-opacity:1;fill-rule:nonzero;stroke:none;stroke-width:.0352778" transform="translate(-280.455 161.388)scale(.64889)"/><path d="M595.985-52.882c.81 1.806 1.633 3.245 2.43 4.642 1.231 2.16 2.4 4.202 3.316 7.215.304.994.61 1.845 1.33 2.23 1.157.62 3.01-.107 4.491-.812l11.649-5.528c1.566-.745 3.28-1.644 3.775-2.95.38-.994-.004-2.074-.501-3.287-1.51-3.662-7.169-11.663-8.763-12.792-6.876 2.811-17.368 8.184-17.727 11.282m8.124 15.91c-.628 0-1.235-.124-1.796-.427-1.354-.723-1.802-2.19-2.099-3.16-.867-2.848-1.99-4.813-3.178-6.894-.84-1.475-1.711-2.999-2.579-4.957l-.07-.158v-.17c.031-5.087 15.882-11.747 19.06-13.031l.247-.1.254.068c2.088.554 8.608 10.467 9.994 13.825.459 1.112 1.15 2.794.519 4.456-.706 1.852-2.65 2.903-4.58 3.817l-11.648 5.531c-1.32.625-2.77 1.2-4.124 1.2" style="fill:#211d1d;fill-opacity:1;fill-rule:nonzero;stroke:none;stroke-width:.0352778" transform="translate(-280.455 161.388)scale(.64889)"/><path d="M554.537-21.404c-.226-.236-.628-.194-.861.106-3.186 4.124-7.21 11.063-8.121 15.762-.794 4.1 4 13.194 5.098 15.201.098.18.36.145.476-.06l12.157-21.7z" style="fill:#fff;fill-opacity:1;fill-rule:nonzero;stroke:none;stroke-width:.0352778" transform="translate(-280.455 161.388)scale(.64889)"/><path d="M554.17-20.635c-3.196 4.18-6.989 10.876-7.835 15.25-.547 2.816 2.014 9 4.547 13.805l11.43-20.394zm-3.32 31.21h-.004a1.02 1.02 0 0 1-.892-.53c-1.422-2.61-6.008-11.455-5.18-15.734.918-4.727 4.859-11.673 8.273-16.093a1.45 1.45 0 0 1 1.062-.568c.378-.022.748.127 1.006.402l9.147 9.733L551.82 9.993c-.201.36-.572.582-.97.582" style="fill:#211d1d;fill-opacity:1;fill-rule:nonzero;stroke:none;stroke-width:.0352778" transform="translate(-280.455 161.388)scale(.64889)"/><path d="M576.917-2.153c-2.064-4.304-3.563-11.776-5.92-14.005-1.686-1.602-12.001-4.622-16.436-5.563-.169-.036-.338.148-.31.328.67 4.279 2.614 7.828 5.5 10.7l15.391 10.59z" style="fill:#bae7e0;fill-opacity:1;fill-rule:nonzero;stroke:none;stroke-width:.0352778" transform="translate(-280.455 161.388)scale(.64889)"/><path d="m560.259-11.304 14.75 10.146.97-1.125c-.724-1.616-1.383-3.585-2.022-5.493-1.08-3.228-2.194-6.569-3.503-7.807-1.351-1.277-10.096-4.008-15.29-5.193.713 3.609 2.424 6.79 5.095 9.472M575.28.956 559.19-10.13c-3.126-3.115-5.052-6.865-5.722-11.14-.053-.35.07-.71.331-.957.254-.24.6-.342.928-.272 4.011.85 14.877 3.923 16.817 5.761 1.595 1.514 2.724 4.886 3.92 8.456.684 2.054 1.396 4.177 2.166 5.786l.225.47z" style="fill:#211d1d;fill-opacity:1;fill-rule:nonzero;stroke:none;stroke-width:.0352778" transform="translate(-280.455 161.388)scale(.64889)"/><path d="M550.871 10.064c4.396 2.766 7.48 3.436 11.466 6.685.836.684 1.778 1.397 2.924 1.284 1.683-.166 2.935-1.968 3.88-3.56q3.293-5.54 6.59-11.08c.964-1.616 1.97-3.472 1.585-5.137-.318-1.365-1.482-2.197-2.583-2.931-3.485-2.329-13.825-6.33-15.3-5.821 0 0-11.218 16.542-8.562 20.56" style="fill:#ecf9f7;fill-opacity:1;fill-rule:nonzero;stroke:none;stroke-width:.0352778" transform="translate(-280.455 161.388)scale(.64889)"/><path d="M551.457 9.492c1.676 1.045 3.164 1.785 4.604 2.501 2.23 1.105 4.332 2.152 6.777 4.142.8.653 1.53 1.193 2.346 1.108 1.305-.127 2.437-1.764 3.273-3.175l6.594-11.08c.928-1.56 1.806-3.194 1.492-4.555-.24-1.034-1.16-1.722-2.25-2.449-3.292-2.197-12.45-5.686-14.405-5.74-4.141 6.167-9.86 16.475-8.431 19.248m13.56 9.345c-1.375 0-2.451-.878-3.185-1.47-2.304-1.881-4.328-2.886-6.477-3.955-1.52-.755-3.094-1.535-4.907-2.678l-.145-.092-.091-.14c-2.812-4.245 6.639-18.606 8.562-21.443l.151-.218.247-.085c2.043-.706 12.982 3.891 16.002 5.91 1.002.67 2.512 1.678 2.914 3.41.448 1.934-.582 3.884-1.672 5.722l-6.593 11.081c-1.094 1.838-2.484 3.747-4.484 3.944q-.163.015-.321.014" style="fill:#211d1d;fill-opacity:1;fill-rule:nonzero;stroke:none;stroke-width:.0352778" transform="translate(-280.455 161.388)scale(.64889)"/><path d="M568.493-66.771c-.166-.346-.547-.547-.893-.459-4.872 1.253-14.072 2.713-14.905 3.563-.607.618-7.962 9.24-9.983 13.399-.103.204.063.465.3.476 4.346.176 9.108.466 12.523-1.813q.057-.043.11-.088l13.349-12.94c.208-.201.254-.522.12-.808z" style="fill:#fff;fill-opacity:1;fill-rule:nonzero;stroke:none;stroke-width:.0352778" transform="translate(-280.455 161.388)scale(.64889)"/><path d="M568.44-65.11h.004zm-24.755 14.595c4.131.17 8.386.317 11.434-1.718l13.31-12.898-.617-1.32-.05-.049c-1.848.48-4.346.992-6.762 1.486-3.048.62-7.222 1.47-7.797 1.898-.589.603-7.204 8.364-9.518 12.6m3.295 1.592c-1.196 0-2.385-.05-3.538-.099l-.459-.018a1.11 1.11 0 0 1-.9-.54 1.08 1.08 0 0 1-.049-1.019c2.046-4.201 9.465-12.922 10.125-13.592.614-.628 2.953-1.154 8.54-2.297 2.396-.49 4.876-.995 6.714-1.468.699-.176 1.44.187 1.757.868l.624 1.327c.268.575.16 1.245-.275 1.668l-13.353 12.94q-.1.095-.215.173c-2.543 1.697-5.771 2.057-8.97 2.057" style="fill:#211d1d;fill-opacity:1;fill-rule:nonzero;stroke:none;stroke-width:.0352778" transform="translate(-280.455 161.388)scale(.64889)"/><path d="M574.324-39.269c3.563-3.71 9.334-12.294 9.476-13.458.204-1.686-.138-2.6-1.49-3.803q-4.708-4.209-9.422-8.41c-1.372-1.228-2.967-2.54-4.688-2.449-1.404.075-2.477 1.08-3.433 2.032q-4.567 4.546-9.133 9.088c-.67.667-1.372 1.393-1.528 2.367-.233 1.436.776 2.882 1.789 4.075.032.039.063.07.102.106.956.8 13.974 12.304 18.327 10.452" style="fill:#ecf9f7;fill-opacity:1;fill-rule:nonzero;stroke:none;stroke-width:.0352778" transform="translate(-280.455 161.388)scale(.64889)"/><path d="M568.373-66.598c-.043 0-.089 0-.13.003-1.08.057-1.959.85-2.918 1.803l-9.13 9.084c-.67.67-1.196 1.235-1.306 1.93-.187 1.146.762 2.44 1.613 3.44q.088.078.271.232c8.21 7.056 14.718 10.915 17.103 10.16 3.676-3.891 8.915-11.892 9.137-12.894.173-1.429-.078-2.07-1.231-3.1l-9.42-8.411c-1.28-1.14-2.638-2.247-3.99-2.247m5.952 27.33h.004zm-1.062.984c-4.223 0-11.687-5.603-17.522-10.619l-.25-.212a1.5 1.5 0 0 1-.198-.197c-1.07-1.26-2.258-2.935-1.969-4.717.201-1.26 1.097-2.152 1.753-2.8l9.13-9.089c.921-.913 2.18-2.17 3.955-2.26 1.993-.107 3.76 1.308 5.256 2.645l9.423 8.41c1.524 1.362 1.983 2.54 1.746 4.491-.19 1.591-6.35 10.432-9.69 13.914l-.113.116-.149.064q-.609.256-1.372.254" style="fill:#211d1d;fill-opacity:1;fill-rule:nonzero;stroke:none;stroke-width:.0352778" transform="translate(-280.455 161.388)scale(.64889)"/><path d="M542.888-49.986c-.198.088-.24.346-.092.533 3.295 4.078 9.007 12.883 13.48 14.619 3.877 1.506 14.972-3.253 17.293-4.283.201-.092.215-.37.032-.53l-18.126-15.317c-.293-.247-.684-.317-1.002-.176z" style="fill:#bae7e0;fill-opacity:1;fill-rule:nonzero;stroke:none;stroke-width:.0352778" transform="translate(-280.455 161.388)scale(.64889)"/><path d="M543.766-49.506c.642.811 1.359 1.77 2.114 2.776 3.118 4.17 7.394 9.881 10.685 11.158 2.67 1.038 10.093-1.414 15.95-3.95L554.96-54.36c-.067-.057-.138-.068-.166-.053zm14.397 15.744c-.836 0-1.577-.102-2.173-.331-3.715-1.443-7.966-7.123-11.38-11.684-.886-1.186-1.726-2.304-2.431-3.179a1.16 1.16 0 0 1-.233-1.005 1.09 1.09 0 0 1 .62-.748l11.586-5.154c.59-.265 1.312-.148 1.835.292l18.125 15.322c.304.254.455.642.399 1.03a1.06 1.06 0 0 1-.62.825c-2.707 1.203-10.863 4.632-15.728 4.632" style="fill:#211d1d;fill-opacity:1;fill-rule:nonzero;stroke:none;stroke-width:.0352778" transform="translate(-280.455 161.388)scale(.64889)"/><path d="M612.124-18.695a.76.76 0 0 0 .099-1.012c-3.263-4.41-8.516-13.018-9.72-13.582-.87-.413-12.6-5.066-17.627-5.81a.33.33 0 0 0-.36.44c1.605 4.322 3.27 9.088 6.974 11.762q.063.047.13.081l18.553 9.254a.76.76 0 0 0 .865-.124z" style="fill:#fff;fill-opacity:1;fill-rule:nonzero;stroke:none;stroke-width:.0352778" transform="translate(-280.455 161.388)scale(.64889)"/><path d="M612.124-18.695h.004zm-26.582-19.484c1.51 4.086 3.112 8.259 6.41 10.64l18.578 9.268 1.037-.988c-1.253-1.693-2.784-3.983-4.269-6.202-1.898-2.833-4.494-6.717-5.15-7.123-.861-.405-11.342-4.554-16.606-5.595m24.973 21.492a1.56 1.56 0 0 1-.695-.166l-18.552-9.254a2 2 0 0 1-.244-.148c-3.767-2.72-5.528-7.475-7.08-11.67l-.173-.458a1.12 1.12 0 0 1 1.217-1.5c5.073.752 16.91 5.43 17.855 5.874.857.406 2.342 2.537 5.775 7.666 1.481 2.212 3.009 4.498 4.243 6.167.47.635.385 1.524-.197 2.063l-1.083 1.01a1.59 1.59 0 0 1-1.066.416" style="fill:#211d1d;fill-opacity:1;fill-rule:nonzero;stroke:none;stroke-width:.0352778" transform="translate(-280.455 161.388)scale(.64889)"/><path d="M586.738-4.75c5.214 2.392 16.253 5.5 17.484 5.292 1.788-.303 2.572-.91 3.235-2.6q2.312-5.884 4.628-11.768c.674-1.715 1.344-3.676.547-5.338-.653-1.358-2.106-2.11-3.464-2.77q-6.465-3.126-12.93-6.257c-.948-.459-1.968-.932-3.016-.798-1.545.201-2.593 1.627-3.383 2.978a1 1 0 0 0-.063.13c-.417 1.182-6.696 17.406-3.038 21.132" style="fill:#bae7e0;fill-opacity:1;fill-rule:nonzero;stroke:none;stroke-width:.0352778" transform="translate(-280.455 161.388)scale(.64889)"/><path d="M587.214-5.406c5.24 2.371 15.678 5.278 16.891 5.165 1.517-.257 2.057-.691 2.611-2.106l4.628-11.769c.646-1.64 1.221-3.351.572-4.706-.519-1.083-1.711-1.725-3.094-2.395l-12.93-6.258c-.973-.473-1.78-.83-2.567-.727-1.235.162-2.145 1.471-2.801 2.593l-.12.324c-3.825 10.362-5.006 17.76-3.19 19.88m16.913 6.745c-2.269 0-13.152-3.274-17.72-5.366l-.13-.064-.103-.102c-3.15-3.21-.247-13.54 2.74-21.643.054-.141.093-.247.114-.31.035-.092.074-.18.127-.268.84-1.433 2.046-3.112 3.965-3.362 1.316-.17 2.558.43 3.464.871l12.93 6.258c1.594.773 3.09 1.595 3.83 3.14.925 1.926.216 4.092-.521 5.969l-4.629 11.772c-.758 1.93-1.764 2.738-3.838 3.09q-.091.016-.23.015" style="fill:#211d1d;fill-opacity:1;fill-rule:nonzero;stroke:none;stroke-width:.0352778" transform="translate(-280.455 161.388)scale(.64889)"/><path d="M584.66-38.838a.37.37 0 0 0-.575.067c-2.765 4.455-9.317 12.696-9.235 17.614.07 4.254 9.436 13.737 11.426 15.71a.335.335 0 0 0 .547-.124l8.033-22.388a.99.99 0 0 0-.233-1.037z" style="fill:#ecf9f7;fill-opacity:1;fill-rule:nonzero;stroke:none;stroke-width:.0352778" transform="translate(-280.455 161.388)scale(.64889)"/><path d="M584.477-37.907c-.561.882-1.245 1.887-1.962 2.942-2.924 4.304-6.932 10.196-6.872 13.794.05 2.967 5.67 9.624 10.679 14.647l7.79-21.703a.2.2 0 0 0-.047-.204zm2.032 33.348c-.293 0-.575-.113-.79-.324-2.717-2.689-11.586-11.804-11.663-16.263-.067-4.1 3.933-9.984 7.147-14.711.833-1.224 1.616-2.378 2.209-3.33a1.16 1.16 0 0 1 1.806-.215l9.962 9.842c.49.487.656 1.22.424 1.87l-8.037 22.383a1.11 1.11 0 0 1-1.058.748" style="fill:#211d1d;fill-opacity:1;fill-rule:nonzero;stroke:none;stroke-width:.0352778" transform="translate(-280.455 161.388)scale(.64889)"/><path d="M586.957 42.474c-2.854 0-5.666-.283-8.382-.554q-1.284-.13-2.547-.247c-.811-.07-1.62-.134-2.42-.201-2.981-.237-5.796-.463-8.45-.978-3.368-.649-7.252-1.467-10.558-2.614-3.93-1.365-7.048-3.383-9.327-4.988-2.886-2.032-4.586-4.138-5.073-6.276a5 5 0 0 1-.057-.765c0-.043 0-.085.004-.11l.021-.12-.007-.123c-.004-.053.011-.148.022-.244l.007-.063c.102-1.676.3-5.482.384-11.077.826 1.164 2.068 2.226 3.786 3.266 2.363 1.436 5.605 3.239 9.722 4.47 3.394 1.016 7.352 1.736 10.781 2.304 2.723.455 5.574.652 8.59.86.804.057 1.62.113 2.438.177.868.063 1.743.141 2.624.215 2.724.236 5.543.476 8.439.476 4.096 0 7.726-.123 11.102-.38 4.01-.304 7.796-.886 10.971-1.415 3.32-.55 6.604-1.337 10.65-2.547 4.22-1.263 7.469-2.6 9.931-4.096 1.87-1.136 3.295-2.343 4.265-3.613l-.215 12.02q0 .448-.063.896c-.494 2.187-2.138 4.272-4.9 6.212-2.35 1.658-5.468 3.147-9.529 4.562-2.455.85-6.209 2.077-10.439 2.9-2.914.564-6.777 1.259-10.805 1.622-3.323.29-6.911.43-10.965.43m47.064-36.897q-1.476-2.011-4.477-3.834-.824-.502-1.76-.977.349-.53.656-1.066c.515-.914 1.08-1.99 1.228-3.22.173-1.44-.258-2.812-.635-4.026l-3.055-9.793c-.244-.78-.646-2.06-1.694-2.734a1.6 1.6 0 0 0-.6-.42c-.892-.38-3.15-.589-5.905-.589-1.68 0-3.549.078-5.4.243-1.137-1.584-2.47-3.57-3.761-5.503-3.433-5.13-4.918-7.26-5.775-7.666-.946-.444-12.782-5.122-17.855-5.873a1.1 1.1 0 0 0-.758.155c-.339.05-.635.247-.818.54-.593.952-1.376 2.106-2.209 3.33-3.214 4.727-7.214 10.611-7.147 14.71.063 3.73 6.269 10.704 9.892 14.464-2.597.057-5.214.18-7.818.374-.226-.652-.448-1.315-.667-1.972-1.195-3.57-2.324-6.942-3.919-8.456-1.94-1.838-12.806-4.91-16.817-5.76a1.02 1.02 0 0 0-.804.173 1.45 1.45 0 0 0-.875.543c-3.415 4.42-7.355 11.366-8.273 16.093-.331 1.711.201 4.149 1.052 6.625-.526.297-1.002.583-1.43.84-1.678 1.02-2.948 2.198-3.802 3.535a424 424 0 0 0-.452-15.84c-.532-11.253-1.393-24.63-2.166-36.216-.007-.194-.017-.303-.017-.307l-.642-9.599q-.212-3.09-.417-6.191 1.517 1.71 3.983 3.312c1.408.914 3.101 1.955 5.09 2.946-1.643 2.187-3.17 4.406-3.94 5.983a1.04 1.04 0 0 0-.088.642c-.085.35.004.716.233 1.002.705.875 1.545 1.993 2.43 3.179 3.415 4.561 7.666 10.24 11.381 11.684.596.229 1.337.331 2.173.331 4.752 0 12.64-3.27 15.526-4.544.342-.035.66-.109.945-.232l.149-.064.113-.116c2.413-2.516 6.3-7.832 8.343-11.183 1.009.049 2.032.08 3.062.08 3.355 0 6.417-.084 9.285-.257.487.939.974 1.789 1.45 2.625 1.189 2.081 2.31 4.046 3.178 6.893.297.97.745 2.438 2.1 3.161.56.303 1.167.427 1.795.427 1.355 0 2.805-.575 4.124-1.2l11.649-5.531c1.93-.914 3.873-1.965 4.579-3.817.278-.734.3-1.471.194-2.163.303-1.435.74-3.026 1.168-4.579.229-.832.455-1.654.66-2.452 2.056-.867 3.81-1.778 5.298-2.744 1.71-1.108 3.073-2.286 4.078-3.52l-.088 1.717-.01.159c0 .028-.005.06-.005.095l-.007.138q-.006.074-.007.151l-.024.494q-.01.085-.011.17l-.007.106-.028.627c-.01.145-.021.29-.021.434l-.738 14.485z" style="fill:#ebe368;fill-opacity:1;fill-rule:nonzero;stroke:none;stroke-width:.0352778" transform="translate(-280.455 161.388)scale(.64889)"/><path d="M586.953 24.217c-2.825 0-5.605-.24-8.297-.469q-1.33-.118-2.639-.219-1.235-.093-2.448-.176c-2.977-.208-5.789-.402-8.435-.843-3.376-.561-7.27-1.27-10.576-2.258-3.934-1.175-7.056-2.914-9.335-4.297-3.556-2.155-4.282-3.983-4.282-6.068 0-2.734 1.414-4.92 4.321-6.685.35-.211.734-.44 1.15-.677 1.238 3.178 2.808 6.177 3.542 7.521.018.028.035.06.053.085q.089.195.205.37l.091.141.145.092c1.813 1.143 3.387 1.923 4.907 2.678 2.148 1.069 4.173 2.074 6.477 3.954.734.593 1.81 1.471 3.186 1.471q.157.001.32-.014c2-.197 3.39-2.106 4.484-3.944l6.594-11.08c1.09-1.838 2.12-3.79 1.672-5.723-.176-.765-.571-1.39-1.04-1.905a29 29 0 0 1-.332-.853c2.949-.208 5.916-.328 8.84-.36.173.32.378.607.618.85l.102.102.13.064c2.343 1.072 6.35 2.459 10.002 3.552.952 5.257 2.656 12.56 4.95 13.928.627.374 1.823.536 3.312.536 2.854 0 6.78-.603 9.775-1.478 3.295-.963 5.317-2.155 6.012-3.542.056-.113.113-.23.162-.342 2.085-1.972 4.378-4.142 6.184-6.491q1.013.507 1.877 1.03c3.373 2.043 5.08 4.195 5.08 6.392 0 2.269-1.686 4.442-5.013 6.46-2.342 1.421-5.468 2.706-9.546 3.923-3.98 1.192-7.2 1.961-10.446 2.5-3.14.526-6.88 1.098-10.827 1.398-3.33.254-6.921.377-10.975.377" style="fill:#e0bf3a;fill-opacity:1;fill-rule:nonzero;stroke:none;stroke-width:.0352778" transform="translate(-280.455 161.388)scale(.64889)"/><path d="M586.953 25.882c-2.896 0-5.715-.24-8.438-.476-.882-.074-1.757-.152-2.625-.215-.818-.064-1.633-.12-2.437-.176-3.017-.209-5.867-.406-8.59-.861-3.43-.568-7.388-1.288-10.781-2.304-4.117-1.231-7.36-3.034-9.723-4.47-1.718-1.04-2.96-2.102-3.785-3.266.035-2.569.05-5.514.02-8.802q1.284-2.005 3.804-3.535a58 58 0 0 1 1.429-.84c.183.53.377 1.062.585 1.588-.416.236-.8.466-1.15.677-2.907 1.764-4.321 3.951-4.321 6.685 0 2.085.726 3.913 4.282 6.068 2.28 1.383 5.401 3.122 9.335 4.297 3.305.988 7.2 1.697 10.576 2.258 2.646.44 5.458.635 8.435.843q1.213.083 2.448.176 1.31.101 2.64.22c2.69.228 5.47.468 8.296.468 4.054 0 7.645-.123 10.975-.377 3.948-.3 7.687-.872 10.827-1.397 3.246-.54 6.467-1.309 10.446-2.501 4.078-1.217 7.204-2.502 9.546-3.923 3.327-2.018 5.013-4.191 5.013-6.46 0-2.197-1.707-4.35-5.08-6.392a27 27 0 0 0-1.877-1.03c.346-.452.678-.907.981-1.372q.936.475 1.76.977c2 1.213 3.493 2.494 4.477 3.834l-.148 8.255c-.97 1.27-2.395 2.477-4.265 3.613-2.463 1.496-5.712 2.833-9.93 4.096-4.047 1.21-7.332 1.996-10.651 2.547-3.175.529-6.96 1.111-10.972 1.414-3.376.258-7.006.381-11.102.381M576.716-4.682a51 51 0 0 1-.586-1.627c2.604-.194 5.221-.317 7.818-.374a100 100 0 0 0 1.609 1.64c-2.925.033-5.891.153-8.84.36" style="fill:#bab241;fill-opacity:1;fill-rule:nonzero;stroke:none;stroke-width:.0352778" transform="translate(-280.455 161.388)scale(.64889)"/><path d="M586.957 42.802c-2.85 0-5.655-.28-8.371-.55-.858-.085-1.708-.17-2.551-.244-.811-.07-1.62-.138-2.417-.201-2.98-.237-5.796-.462-8.445-.97-3.359-.642-7.24-1.457-10.545-2.597-3.915-1.351-7.03-3.351-9.302-4.946-3.09-2.166-4.812-4.41-5.126-6.678.487 2.138 2.187 4.244 5.073 6.276 2.279 1.605 5.397 3.623 9.327 4.988 3.306 1.147 7.19 1.965 10.559 2.614 2.653.515 5.468.741 8.449.978.8.067 1.609.13 2.42.2q1.263.119 2.547.248c2.716.271 5.528.554 8.382.554 4.053 0 7.641-.142 10.964-.43 4.029-.364 7.892-1.06 10.806-1.624 4.23-.822 7.983-2.05 10.439-2.9 4.06-1.414 7.179-2.903 9.528-4.56 2.762-1.941 4.406-4.026 4.9-6.213-.338 2.332-2 4.55-4.953 6.614-2.342 1.64-5.45 3.119-9.504 4.52-2.455.846-6.209 2.067-10.428 2.882-2.91.56-6.77 1.252-10.795 1.608-3.323.29-6.907.43-10.957.43" style="fill:#b4a838;fill-opacity:1;fill-rule:nonzero;stroke:none;stroke-width:.0352778" transform="translate(-280.455 161.388)scale(.64889)"/><path d="M586.957 43.736c-3.796 0-7.461-.483-11.003-.797-3.831-.335-7.532-.525-10.954-1.185-3.87-.741-7.518-1.538-10.675-2.632-3.912-1.347-7.017-3.295-9.536-5.062-3.541-2.48-5.58-5.204-5.58-8.21 0-.102 0-.2.02-.292-.01-.141.008-.282.025-.424.194-3.107.865-16.196-.046-35.616-.508-10.753-1.298-23.227-2.162-36.216-.01-.194-.021-.286-.021-.286-.43-6.495-.879-13.113-1.32-19.703.674 2.29 2.664 4.41 5.69 6.375 1.507.977 3.21 2.015 5.151 2.97-.19.251-.384.505-.571.759-1.99-.991-3.683-2.032-5.09-2.946q-2.469-1.604-3.984-3.312.206 3.1.417 6.191l.642 9.6c0 .003.01.112.017.306.773 11.585 1.634 24.963 2.166 36.216.275 5.895.41 11.208.452 15.84.028 3.288.014 6.233-.021 8.802-.085 5.595-.283 9.401-.385 11.077l-.007.063c-.01.096-.025.19-.021.244l.007.123-.021.12c-.004.025-.004.067-.004.11q-.001.38.056.765c.314 2.269 2.036 4.512 5.126 6.678 2.272 1.595 5.387 3.595 9.303 4.946 3.305 1.14 7.186 1.955 10.544 2.597 2.65.508 5.465.733 8.446.97q1.197.095 2.416.2c.843.075 1.694.16 2.55.244 2.717.272 5.522.55 8.372.55 4.05 0 7.634-.14 10.958-.43 4.025-.356 7.884-1.048 10.795-1.608 4.219-.815 7.972-2.036 10.428-2.883 4.053-1.4 7.161-2.878 9.504-4.519 2.952-2.063 4.614-4.282 4.953-6.614q.063-.449.063-.896l.215-12.02.148-8.255.893-49.978.737-14.485c0-.144.01-.289.021-.434l.029-.627.007-.106q0-.085.01-.17l.025-.494q.001-.078.007-.151l.007-.138.004-.095.01-.159.089-1.718c-1.006 1.235-2.367 2.413-4.078 3.52-1.49.967-3.242 1.878-5.3 2.745q.152-.582.287-1.143c1.686-.744 3.196-1.534 4.505-2.384 2.952-1.92 4.812-4.029 5.482-6.28l.222-.024-.272 5.355c-.01.077-.01.17-.02.268 0 .074-.008.148-.008.233l-.028.532c-.01.092-.01.19-.018.293l-.028.607c-.007.134-.017.265-.017.399l-.064 1.143-.674 13.331-1.256 70.235c0 3.005-1.873 5.803-5.415 8.276-2.519 1.767-5.831 3.291-9.736 4.639-3.165 1.09-6.678 2.166-10.555 2.914-3.412.66-7.06 1.284-10.89 1.623-3.543.31-7.247.433-11.04.433m-.655-93.556a63 63 0 0 1-3.062-.081c.194-.325.374-.632.532-.914q1.26.06 2.53.06c3.005 0 5.955-.07 8.823-.233q.228.47.462.91c-2.868.173-5.93.258-9.285.258" style="fill:#6c662e;fill-opacity:1;fill-rule:nonzero;stroke:none;stroke-width:.0352778" transform="translate(-280.455 161.388)scale(.64889)"/><path d="M621.275 5.81c.11-1.482-.067-2.964-.226-4.259l-1.45-11.97c-.056-.444-.12-.984-.289-1.516l4.544-6.372c.265.388.444.914.61 1.44l3.055 9.793c.346 1.111.706 2.261.575 3.365-.116.935-.596 1.845-1.037 2.625-1.383 2.441-3.584 4.766-5.782 6.893" style="fill:#c9e39b;fill-opacity:1;fill-rule:nonzero;stroke:none;stroke-width:.0352778" transform="translate(-280.455 161.388)scale(.64889)"/><path d="M620.619 8.628c.395-.91.586-1.866.656-2.819 2.198-2.127 4.4-4.452 5.782-6.893.441-.78.921-1.69 1.037-2.625.13-1.104-.229-2.254-.575-3.365l-3.055-9.793c-.166-.526-.345-1.052-.61-1.44l.74-1.037-.116-.374a1 1 0 0 0-.194-.356c1.048.674 1.45 1.954 1.694 2.734l3.055 9.793c.377 1.214.808 2.586.635 4.025-.148 1.232-.713 2.307-1.228 3.221a20 20 0 0 1-.656 1.066c-.303.465-.635.92-.98 1.372-1.807 2.35-4.1 4.519-6.185 6.491" style="fill:#6c662e;fill-opacity:1;fill-rule:nonzero;stroke:none;stroke-width:.0352778" transform="translate(-280.455 161.388)scale(.64889)"/><path d="M604.56 12.403c-1.185 0-2.05-.11-2.388-.31-1.47-.88-3.051-6.862-4.067-12.073 2.762.78 5.1 1.32 6.022 1.32q.138 0 .229-.015c2.074-.352 3.08-1.16 3.838-3.09l2.95-7.5 6.748-1.824c.056.261.095.55.13.861l1.454 11.97c.243 2.025.55 4.544-.437 6.52-.47.934-2.304 1.929-5.042 2.73-3.326.973-7.038 1.41-9.436 1.41" style="fill:#eaefa7;fill-opacity:1;fill-rule:nonzero;stroke:none;stroke-width:.0352778" transform="translate(-280.455 161.388)scale(.64889)"/><path d="M604.67 13.99c-1.489 0-2.685-.162-3.313-.536-2.293-1.369-3.997-8.671-4.95-13.928q.865.26 1.698.494c1.016 5.21 2.596 11.194 4.067 12.072.339.201 1.203.31 2.389.31 2.398 0 6.11-.437 9.436-1.41 2.738-.801 4.572-1.796 5.042-2.73.987-1.976.68-4.495.437-6.52l-1.453-11.97a9 9 0 0 0-.131-.86l1.005-.272.413-.575c.17.532.233 1.072.29 1.517l1.45 11.97c.158 1.294.335 2.776.225 4.257-.07.953-.26 1.909-.656 2.819a8 8 0 0 1-.162.342c-.695 1.387-2.717 2.579-6.012 3.542-2.995.875-6.921 1.478-9.775 1.478" style="fill:#6c662e;fill-opacity:1;fill-rule:nonzero;stroke:none;stroke-width:.0352778" transform="translate(-280.455 161.388)scale(.64889)"/><path d="m611.863-11.103.96-2.434c.712-1.817 1.404-3.905.606-5.786a64 64 0 0 1 4.523-.162c2.025 0 3.704.106 4.586.29l-4.6 6.452z" style="fill:#f6f3ac;fill-opacity:1;fill-rule:nonzero;stroke:none;stroke-width:.0352778" transform="translate(-280.455 161.388)scale(.64889)"/><path d="m611.143-9.265.72-1.838 6.075-1.64 4.6-6.453c-.882-.183-2.561-.289-4.586-.289-1.39 0-2.946.05-4.523.162a4.6 4.6 0 0 0-1.037-1.5q-.01-.008-.014-.017a62 62 0 0 1 5.401-.243c2.755 0 5.013.208 5.906.59q.386.169.6.419.134.163.193.356l.117.374-.741 1.037-4.544 6.372-.413.575-1.005.271zm11.98-9.737h.005z" style="fill:#6c662e;fill-opacity:1;fill-rule:nonzero;stroke:none;stroke-width:.0352778" transform="translate(-280.455 161.388)scale(.64889)"/><path d="M623.702-52.508c-.427-.91-1.1-2.128-1.905-3.454a67 67 0 0 0 3.147-1.136c-.208.794-.43 1.609-.653 2.416-.197.72-.398 1.45-.589 2.174" style="fill:#c9e39b;fill-opacity:1;fill-rule:nonzero;stroke:none;stroke-width:.0352778" transform="translate(-280.455 161.388)scale(.64889)"/><path d="M624.655-49.683c-.127-.871-.459-1.672-.713-2.293a10 10 0 0 0-.24-.532c.19-.724.392-1.454.59-2.174.222-.807.444-1.622.652-2.416q.941-.371 1.824-.759c-.088.374-.187.755-.286 1.143a146 146 0 0 1-.66 2.452c-.426 1.553-.864 3.144-1.167 4.58" style="fill:#6c662e;fill-opacity:1;fill-rule:nonzero;stroke:none;stroke-width:.0352778" transform="translate(-280.455 161.388)scale(.64889)"/><path d="M604.113-38.56c-.385 0-.745-.07-1.052-.236-.72-.384-1.026-1.235-1.33-2.23-.917-3.012-2.085-5.055-3.316-7.214-.515-.903-1.044-1.827-1.573-2.854.409-.032.815-.06 1.217-.095 4.082-.332 7.97-.953 11.606-1.602 3.867-.688 7.394-1.665 10.594-2.674.96 1.549 1.768 3.013 2.216 4.093.497 1.213.882 2.293.5 3.287-.493 1.306-2.208 2.205-3.774 2.95l-11.649 5.528c-1.086.518-2.374 1.047-3.44 1.047" style="fill:#e7efa7;fill-opacity:1;fill-rule:nonzero;stroke:none;stroke-width:.0352778" transform="translate(-280.455 161.388)scale(.64889)"/><path d="M604.109-36.972c-.628 0-1.235-.124-1.796-.427-1.354-.723-1.802-2.19-2.099-3.16-.867-2.848-1.99-4.813-3.178-6.894-.476-.836-.963-1.686-1.45-2.625a27 27 0 0 1-.462-.91q.864-.048 1.718-.106c.529 1.027 1.058 1.951 1.573 2.854 1.231 2.16 2.4 4.202 3.316 7.215.304.994.61 1.845 1.33 2.23.307.165.667.235 1.052.235 1.065 0 2.353-.529 3.44-1.047l11.648-5.528c1.566-.745 3.28-1.644 3.775-2.95.38-.994-.004-2.074-.501-3.287-.448-1.08-1.256-2.544-2.216-4.093l.642-.204q.451-.144.896-.293c.805 1.326 1.478 2.543 1.905 3.454q.139.287.24.532c.254.621.586 1.422.713 2.293.106.692.084 1.43-.194 2.163-.706 1.852-2.65 2.903-4.58 3.817l-11.648 5.531c-1.32.625-2.77 1.2-4.124 1.2" style="fill:#6c662e;fill-opacity:1;fill-rule:nonzero;stroke:none;stroke-width:.0352778" transform="translate(-280.455 161.388)scale(.64889)"/><path d="M549.915 6.515c-2.173-4.428-4.057-9.444-3.58-11.9.804-4.166 4.282-10.431 7.37-14.629.768 3.5 2.42 6.618 4.92 9.3-1.725 2.56-7.507 11.45-8.71 17.229" style="fill:#f6f3ac;fill-opacity:1;fill-rule:nonzero;stroke:none;stroke-width:.0352778" transform="translate(-280.455 161.388)scale(.64889)"/><path d="M550.007 10.13c-.018-.024-.035-.056-.053-.084-.734-1.344-2.304-4.343-3.542-7.521a39 39 0 0 1-.585-1.588c-.85-2.476-1.383-4.914-1.052-6.625.918-4.727 4.858-11.673 8.273-16.093a1.45 1.45 0 0 1 .875-.544 1.1 1.1 0 0 0-.455 1.055q.1.635.236 1.256c-3.087 4.198-6.565 10.463-7.37 14.63-.476 2.455 1.408 7.471 3.581 11.899-.303 1.453-.317 2.71.092 3.616" style="fill:#6c662e;fill-opacity:1;fill-rule:nonzero;stroke:none;stroke-width:.0352778" transform="translate(-280.455 161.388)scale(.64889)"/><path d="M574.68-5.645c-3.108-1.863-11.091-5.236-14.382-5.634l-.04-.025c-2.67-2.681-4.38-5.863-5.093-9.472 5.193 1.185 13.938 3.916 15.289 5.193 1.309 1.238 2.424 4.579 3.503 7.807.24.709.48 1.425.723 2.13" style="fill:#c9e39b;fill-opacity:1;fill-rule:nonzero;stroke:none;stroke-width:.0352778" transform="translate(-280.455 161.388)scale(.64889)"/><path d="M577.047-3.829c-.596-.652-1.312-1.132-1.873-1.506a10 10 0 0 0-.494-.31c-.243-.706-.483-1.422-.723-2.131-1.08-3.228-2.194-6.569-3.503-7.807-1.351-1.277-10.096-4.008-15.29-5.193.713 3.609 2.424 6.79 5.095 9.472l.039.025a5 5 0 0 0-.572-.04c-.222 0-.41.026-.554.075l-.247.085-.151.218q-.07.102-.149.226c-2.5-2.68-4.152-5.8-4.92-9.299a21 21 0 0 1-.237-1.256 1.1 1.1 0 0 1 .455-1.055 1.02 1.02 0 0 1 .804-.173c4.011.85 14.877 3.923 16.817 5.761 1.595 1.514 2.724 4.886 3.92 8.456.218.657.44 1.32.666 1.972a51 51 0 0 0 .917 2.48" style="fill:#6c662e;fill-opacity:1;fill-rule:nonzero;stroke:none;stroke-width:.0352778" transform="translate(-280.455 161.388)scale(.64889)"/><path d="M565.014 17.253c-.744 0-1.432-.508-2.176-1.118-2.445-1.99-4.548-3.037-6.777-4.142-1.44-.716-2.928-1.456-4.604-2.5-1.429-2.774 4.29-13.082 8.431-19.248 1.955.053 11.113 3.542 14.404 5.74 1.09.726 2.011 1.414 2.25 2.448.315 1.361-.563 2.995-1.491 4.554l-6.594 11.08c-.836 1.412-1.968 3.049-3.273 3.176q-.085.01-.17.01" style="fill:#e7efa7;fill-opacity:1;fill-rule:nonzero;stroke:none;stroke-width:.0352778" transform="translate(-280.455 161.388)scale(.64889)"/><path d="M565.018 18.837c-1.376 0-2.452-.878-3.186-1.47-2.304-1.881-4.328-2.886-6.477-3.955-1.52-.755-3.094-1.535-4.907-2.678l-.145-.092-.091-.14a3 3 0 0 1-.205-.371c-.41-.907-.395-2.163-.092-3.616 1.203-5.779 6.985-14.669 8.71-17.23.053-.08.103-.159.149-.226l.151-.218.247-.085q.22-.074.554-.074.255 0 .572.039c3.291.398 11.274 3.771 14.382 5.634q.277.163.494.31c.561.374 1.277.854 1.873 1.506.47.515.865 1.14 1.041 1.905.448 1.934-.582 3.885-1.672 5.722l-6.593 11.081c-1.094 1.838-2.484 3.747-4.484 3.944q-.163.015-.321.014m-5.13-28.592c-4.141 6.166-9.86 16.474-8.431 19.247 1.676 1.045 3.164 1.785 4.604 2.502 2.23 1.104 4.332 2.151 6.777 4.141.744.61 1.432 1.118 2.176 1.118q.085 0 .17-.01c1.305-.127 2.437-1.764 3.273-3.175l6.594-11.08c.928-1.56 1.806-3.194 1.492-4.555-.24-1.034-1.16-1.722-2.25-2.449-3.292-2.197-12.45-5.686-14.405-5.74" style="fill:#6c662e;fill-opacity:1;fill-rule:nonzero;stroke:none;stroke-width:.0352778" transform="translate(-280.455 161.388)scale(.64889)"/><path d="M544.225-51.45c.963-1.566 2.328-3.45 3.708-5.242 1.125.5 2.328.966 3.612 1.379q.399.126.808.25z" style="fill:#f6f3ac;fill-opacity:1;fill-rule:nonzero;stroke:none;stroke-width:.0352778" transform="translate(-280.455 161.388)scale(.64889)"/><path d="M541.946-49.958a1.04 1.04 0 0 1 .088-.642c.77-1.577 2.297-3.796 3.94-5.983.188-.254.382-.508.572-.758q.672.332 1.387.649c-1.38 1.792-2.745 3.676-3.708 5.242l-1.658.74c-.314.138-.54.414-.62.749z" style="fill:#6c662e;fill-opacity:1;fill-rule:nonzero;stroke:none;stroke-width:.0352778" transform="translate(-280.455 161.388)scale(.64889)"/><path d="m574.137-40.228-.025-.021-15.78-13.339c1.482.307 3.017.596 4.587.875 3.637.65 7.584.84 11.666 1.171 2.413.194 4.879.462 7.401.628-1.693 2.777-5.136 7.737-7.849 10.686" style="fill:#e7efa7;fill-opacity:1;fill-rule:nonzero;stroke:none;stroke-width:.0352778" transform="translate(-280.455 161.388)scale(.64889)"/><path d="m573.689-38.306.201-.088c.339-.151.568-.458.621-.825a1.13 1.13 0 0 0-.374-1.01c2.713-2.948 6.156-7.908 7.85-10.685q.889.06 1.784.099c-.158.282-.338.59-.532.914-2.043 3.351-5.93 8.667-8.344 11.183l-.112.116-.149.064a3.2 3.2 0 0 1-.945.232" style="fill:#6c662e;fill-opacity:1;fill-rule:nonzero;stroke:none;stroke-width:.0352778" transform="translate(-280.455 161.388)scale(.64889)"/><path d="M558.202-35.328c-.653 0-1.206-.078-1.637-.244-3.291-1.277-7.567-6.988-10.685-11.158-.755-1.005-1.472-1.965-2.114-2.776l11-4.897.208.053 17.54 14.827c-4.91 2.128-10.922 4.195-14.312 4.195" style="fill:#c9e39b;fill-opacity:1;fill-rule:nonzero;stroke:none;stroke-width:.0352778" transform="translate(-280.455 161.388)scale(.64889)"/><path d="M558.163-33.762c-.836 0-1.577-.102-2.173-.331-3.715-1.443-7.966-7.123-11.38-11.684-.886-1.186-1.726-2.304-2.431-3.179a1.16 1.16 0 0 1-.233-1.002v-.003a1.09 1.09 0 0 1 .62-.748l1.659-.741 8.128-3.612q1.17.347 2.413.66l-11 4.896c.642.811 1.359 1.77 2.114 2.776 3.118 4.17 7.394 9.881 10.685 11.158.43.166.984.244 1.637.244 3.39 0 9.402-2.067 14.312-4.195l-17.54-14.827c1.083.272 2.205.522 3.359.762l15.78 13.339q.014.01.024.02c.29.258.427.632.374 1.01a1.06 1.06 0 0 1-.62.825l-.202.088c-2.886 1.274-10.774 4.544-15.526 4.544m14.926-5.277" style="fill:#6c662e;fill-opacity:1;fill-rule:nonzero;stroke:none;stroke-width:.0352778" transform="translate(-280.455 161.388)scale(.64889)"/><path d="m609.034-22.875-12.45-6.029c-.388-.19-.843-.41-1.337-.582-.021-.025-.046-.05-.067-.074l-8.456-8.354c5.507 1.34 14.623 4.953 15.424 5.33.656.406 3.252 4.29 5.15 7.123.579.864 1.164 1.74 1.736 2.586" style="fill:#f6f3ac;fill-opacity:1;fill-rule:nonzero;stroke:none;stroke-width:.0352778" transform="translate(-280.455 161.388)scale(.64889)"/><path d="M612.392-20.822c-.783-.765-1.81-1.305-2.878-1.824l-.48-.23c-.572-.846-1.157-1.72-1.736-2.585-1.898-2.833-4.494-6.717-5.15-7.123-.801-.377-9.917-3.99-15.424-5.33l-1.506-1.489a1.15 1.15 0 0 0-.956-.328l-.032.004a1.1 1.1 0 0 1 .759-.155c5.072.751 16.908 5.429 17.854 5.873.857.406 2.342 2.537 5.775 7.666 1.29 1.933 2.624 3.92 3.76 5.503z" style="fill:#6c662e;fill-opacity:1;fill-rule:nonzero;stroke:none;stroke-width:.0352778" transform="translate(-280.455 161.388)scale(.64889)"/><path d="M604.024-.237c-1.499 0-11.243-2.724-16.474-5.017q.012-.026.017-.053l8.012-22.32c.106.05.208.099.314.152l12.93 6.258c1.382.67 2.574 1.312 3.093 2.395.65 1.355.074 3.066-.572 4.706l-4.628 11.77c-.554 1.414-1.094 1.848-2.61 2.105-.025 0-.05.004-.082.004" style="fill:#c9e39b;fill-opacity:1;fill-rule:nonzero;stroke:none;stroke-width:.0352778" transform="translate(-280.455 161.388)scale(.64889)"/><path d="M604.127 1.34c-.921 0-3.26-.54-6.022-1.32a95 95 0 0 1-1.697-.494c-3.651-1.093-7.659-2.48-10.001-3.552l-.13-.064-.103-.102a3.7 3.7 0 0 1-.618-.85q.001-.001-.004-.007.088.085.166.166a1.12 1.12 0 0 0 1.04.296c.36-.081.65-.328.791-.667 5.232 2.293 14.976 5.017 16.475 5.017.032 0 .056-.004.081-.004 1.517-.257 2.057-.691 2.61-2.106l4.629-11.769c.646-1.64 1.22-3.351.571-4.706-.518-1.083-1.71-1.725-3.093-2.395l-12.93-6.258a13 13 0 0 0-.314-.152l.025-.063a1.79 1.79 0 0 0-.356-1.796c.494.173.949.391 1.337.582l12.45 6.029.48.23c1.068.518 2.095 1.058 2.878 1.823a4.6 4.6 0 0 1 1.037 1.5c.797 1.88.106 3.968-.607 5.785l-.96 2.434-.72 1.838-2.948 7.5c-.759 1.93-1.764 2.738-3.839 3.09q-.09.016-.229.015" style="fill:#6c662e;fill-opacity:1;fill-rule:nonzero;stroke:none;stroke-width:.0352778" transform="translate(-280.455 161.388)scale(.64889)"/><path d="M586.322-6.524c-5.01-5.023-10.63-11.68-10.679-14.647-.06-3.598 3.948-9.49 6.872-13.794.717-1.055 1.401-2.06 1.962-2.942l9.588 9.476a.2.2 0 0 1 .046.204z" style="fill:#e7efa7;fill-opacity:1;fill-rule:nonzero;stroke:none;stroke-width:.0352778" transform="translate(-280.455 161.388)scale(.64889)"/><path d="M586.509-4.559c-.293 0-.575-.113-.79-.324q-.078-.08-.166-.166a97 97 0 0 1-1.605-1.634c-3.623-3.76-9.829-10.735-9.892-14.463-.067-4.1 3.933-9.984 7.147-14.711.833-1.224 1.616-2.378 2.209-3.33.183-.293.48-.49.818-.54l.032-.004q.069-.009.137-.007c.307 0 .6.117.819.335l1.506 1.489 8.456 8.354.067.074c.438.483.579 1.178.356 1.796l-.024.063-8.012 22.32a1.12 1.12 0 0 1-1.058.748m-2.032-33.348c-.561.882-1.245 1.887-1.962 2.942-2.924 4.304-6.932 10.196-6.872 13.794.05 2.967 5.67 9.624 10.679 14.647l7.79-21.703a.2.2 0 0 0-.047-.204z" style="fill:#6c662e;fill-opacity:1;fill-rule:nonzero;stroke:none;stroke-width:.0352778" transform="translate(-280.455 161.388)scale(.64889)"/><path d="M537.96-47.05c0 .003.01.112.017.306.773 11.585 1.634 24.963 2.166 36.216.9 19.195.261 32.191.046 35.719l-.007.063c-.01.096-.024.19-.021.244l.007.123-.021.12c-.004.025-.004.067-.004.11 0 2.529 1.743 5.034 5.182 7.443 2.272 1.595 5.387 3.595 9.303 4.946 3.305 1.14 7.186 1.955 10.544 2.597 2.65.508 5.465.733 8.446.97q1.197.095 2.416.2c.847.075 1.694.16 2.551.244 2.716.272 5.521.55 8.371.55 4.05 0 7.635-.14 10.958-.43 4.025-.356 7.884-1.048 10.795-1.608 4.219-.815 7.972-2.036 10.428-2.883 4.053-1.4 7.161-2.878 9.504-4.519 3.33-2.325 5.016-4.85 5.016-7.51l1.256-70.253.737-14.485q.002-.216.022-.434l.028-.627.007-.106q0-.085.01-.17l.025-.494q.001-.078.007-.151l.007-.138.004-.095.01-.159.089-1.718c-1.006 1.235-2.367 2.413-4.078 3.52-2.632 1.712-6.096 3.24-10.594 4.682-2.907.928-6.826 2.1-11.356 2.907-3.383.603-7.416 1.267-11.698 1.612-3.592.293-7.461.438-11.832.438-3.09 0-6.093-.279-8.996-.544a215 215 0 0 0-2.794-.246c-.875-.071-1.74-.135-2.6-.202-3.214-.236-6.251-.465-9.158-.98-3.655-.653-7.878-1.475-11.494-2.632-4.395-1.408-7.853-3.468-10.375-5.105-1.644-1.065-2.974-2.173-3.983-3.312q.206 3.099.416 6.195zm48.997 91.721c-2.942 0-5.796-.285-8.558-.56q-1.271-.127-2.526-.244-1.212-.1-2.403-.194c-3.034-.243-5.898-.473-8.646-.998-3.426-.657-7.391-1.49-10.806-2.667-4.138-1.426-7.39-3.518-9.765-5.183-3.969-2.78-5.98-5.8-5.98-8.974 0-.1 0-.22.018-.35-.004-.169.018-.324.032-.455.219-3.549.847-16.44-.046-35.486-.533-11.24-1.393-24.606-2.166-36.198-.007-.166-.014-.244-.014-.254l-.646-9.631-.677-10.104-.565-8.494 2.396 8.17c.578 1.979 2.36 3.947 5.299 5.852 2.423 1.577 5.743 3.553 9.927 4.893 3.51 1.126 7.659 1.93 11.25 2.572 2.811.501 5.803.723 8.967.96q1.297.095 2.615.2c.927.075 1.866.163 2.811.248 2.865.264 5.825.536 8.827.536 4.318 0 8.138-.141 11.68-.43 4.205-.343 8.185-.995 11.522-1.591 4.42-.787 8.262-1.934 11.112-2.847 4.34-1.39 7.66-2.85 10.15-4.466 2.78-1.807 4.494-3.747 5.094-5.761l.173-.579 1.936-.254-.335 6.54-.004.068-.01.134-.004.12-.004.067-.004.05-.028.578c-.004.028-.004.063-.007.095-.004.053-.004.106-.011.162l-.025.59c-.01.133-.017.246-.017.356v.053l-.067 1.139-.67 13.328-1.257 70.203c0 3.291-1.954 6.332-5.813 9.027-2.487 1.743-5.747 3.299-9.966 4.756-2.512.864-6.347 2.113-10.686 2.949-2.953.571-6.872 1.274-10.985 1.637-3.38.296-7.017.437-11.12.437" style="fill:#211d1d;fill-opacity:1;fill-rule:nonzero;stroke:none;stroke-width:.0352778" transform="translate(-280.455 161.388)scale(.64889)"/><path d="M632.254 3.576c2.603-19.272 3.626-51.59 4.268-64.174l-.674 13.766-1.255 72.524c0 3.1-1.874 5.99-5.416 8.544-2.518 1.824-5.831 3.397-9.736 4.79-3.165 1.126-6.678 2.237-10.555 3.01-3.412.68-7.06 1.323-10.89 1.676-3.543.32-7.247.448-11.039.448-3.796 0-7.461-.498-11.003-.826-3.831-.342-7.536-.54-10.954-1.22-3.87-.766-7.518-1.591-10.675-2.717-3.912-1.393-7.017-3.404-9.536-5.228-3.541-2.565-5.58-5.376-5.58-8.477 0-.106 0-.208.02-.304a2.3 2.3 0 0 1 .025-.437c.19-3.207.865-16.725-.046-36.777-.508-11.102-1.298-23.982-2.162-37.395.275 3.373 3.235 34.28 5.644 53.069 1.306 10.181 21.643 21.276 45.597 20.482 24.765-.818 42.527-10.1 43.967-20.754" style="fill:#e0f0f0;fill-opacity:1;fill-rule:nonzero;stroke:none;stroke-width:.0352778" transform="translate(-280.455 161.388)scale(.64889)"/><path d="M540.32-7.946c.652 17.66.084 29.56-.117 32.953l-.004.06a2 2 0 0 0-.024.265l.007.12-.022.116c-.004.032 0 .078 0 .12 0 2.629 1.743 5.221 5.186 7.712 2.272 1.644 5.38 3.708 9.296 5.101 3.302 1.178 7.179 2.015 10.54 2.681 2.647.526 5.458.755 8.436 1.002q1.202.094 2.42.205c.847.077 1.697.166 2.55.254 2.717.279 5.521.568 8.368.568 4.05 0 7.631-.145 10.954-.445 4.022-.37 7.881-1.083 10.792-1.661 4.219-.843 7.969-2.1 10.42-2.974 4.05-1.443 7.159-2.97 9.501-4.664 3.33-2.402 5.02-5.02 5.02-7.779l.53-30.494c-.3 3.03-.625 5.895-.978 8.51-1.58 11.694-20.454 20.767-44.877 21.575-11.306.378-22.578-1.834-31.732-6.216-8.735-4.184-14.143-9.687-14.838-15.095a899 899 0 0 1-1.429-11.914Zm46.637 53.055c-2.946 0-5.8-.293-8.562-.575-.85-.088-1.693-.177-2.53-.254q-1.206-.106-2.402-.201c-3.034-.25-5.898-.487-8.65-1.034-3.425-.677-7.39-1.535-10.809-2.755-4.142-1.475-7.398-3.634-9.772-5.352-3.962-2.868-5.972-5.98-5.972-9.25 0-.098 0-.218.017-.352a3 3 0 0 1 .032-.473c.219-3.658.843-16.976-.046-36.647-.533-11.56-1.355-24.796-2.166-37.377l1.894-.137c.24 2.931 3.228 34.18 5.641 53.026.603 4.685 5.75 9.779 13.773 13.62 8.886 4.255 19.84 6.4 30.85 6.033 23.114-.765 41.628-9.334 43.057-19.932 1.82-13.469 2.878-33.687 3.556-48.517l.031-1.778.572-11.674q.053-1.137.102-2.127l1.898.095-.102 2.082c-.092 1.933-.19 4.187-.3 6.688-.092 2.085-.19 4.364-.304 6.791l-1.224 70.697c0 3.387-1.954 6.523-5.806 9.303-2.491 1.799-5.75 3.408-9.973 4.914-2.512.892-6.35 2.177-10.69 3.044-2.956.59-6.875 1.313-10.992 1.69-3.38.307-7.017.452-11.123.452m-.582-115.415c-3.157 0-6.223-.296-9.19-.586-.963-.091-1.916-.187-2.861-.268q-1.341-.11-2.66-.215c-3.284-.257-6.389-.5-9.356-1.058-3.732-.706-8.046-1.591-11.74-2.84-4.484-1.517-8.012-3.736-10.583-5.503-4.273-2.929-6.439-6.104-6.439-9.44 0-3.137.886-5.571 5.416-8.743l.956 1.366c-3.98 2.783-4.706 4.667-4.706 7.376 0 2.752 1.922 5.468 5.715 8.068 2.483 1.704 5.884 3.845 10.174 5.299 3.598 1.213 7.838 2.085 11.518 2.776 2.878.544 5.937.783 9.176 1.037q1.325.105 2.67.22c.953.08 1.912.172 2.882.267 2.925.283 5.952.579 9.028.579 4.417 0 8.325-.152 11.948-.466 4.304-.367 8.375-1.076 11.787-1.718 4.526-.85 8.456-2.092 11.373-3.08 4.449-1.502 7.85-3.086 10.404-4.836 3.672-2.519 5.535-5.26 5.535-8.146 0-1.834-2.16-5.041-2.907-5.817l-.067-.074c-1.577-1.637-3.955-4.114-15.646-8.188-11.116-3.877-21.689-4.011-21.794-4.015a203 203 0 0 0-12.707-.102c-1.867 0-3.362.039-4.88.13-1.259.075-2.469.18-4.003.314l-.981.085c-.737.064-3.598.35-5.895.582-1.482.148-2.773.279-3.231.321l-.16-1.658c.46-.042 1.747-.173 3.225-.32 2.3-.234 5.168-.523 5.916-.586l.981-.085a153 153 0 0 1 4.05-.318 81 81 0 0 1 4.953-.134c.039 0 6.269-.173 12.774.106.078 0 10.929.141 22.303 4.106 12.065 4.206 14.51 6.75 16.294 8.608l.071.074c.713.741 3.373 4.371 3.373 6.971 0 3.468-2.107 6.671-6.262 9.518-2.681 1.842-6.216 3.49-10.81 5.041-2.97 1.006-6.97 2.269-11.602 3.14-3.454.653-7.574 1.365-11.952 1.743-3.67.317-7.624.469-12.09.469" style="fill:#211d1d;fill-opacity:1;fill-rule:nonzero;stroke:none;stroke-width:.0352778" transform="translate(-280.455 161.388)scale(.64889)"/></svg>