<svg xmlns="http://www.w3.org/2000/svg" xml:space="preserve" width="200mm" height="200mm" viewBox="0 0 200 200"><path d="M129.205 269.206c5.394 2.617 9.412 7.38 8.12 12.686-1.51 6.201-8.935 10.093-15.843 12.594-27.22 9.87-58.462 10.629-85.365 2.081-3.976-1.266-7.94-2.77-10.978-5.246-3.041-2.48-5.049-6.106-4.332-9.736.663-3.39 3.598-6.297 7.062-8.16 3.468-1.86 7.45-2.822 11.384-3.683 24.871-5.457 38.051-8.153 68.309-6.117 4.085.275 18.14 3.877 21.643 5.58" style="fill:#e6f6f4;fill-opacity:1;fill-rule:nonzero;stroke:none;stroke-width:.0352778" transform="translate(60.07 39.302)scale(.50473)"/><path d="M89.235 264.15c-17.872 0-29.923 2.435-49.72 6.777-3.938.865-7.751 1.785-11.07 3.567-3.507 1.884-5.917 4.621-6.45 7.327-.568 2.9.893 6.1 3.91 8.558 2.941 2.4 6.822 3.835 10.58 5.031 26.718 8.491 57.548 7.74 84.585-2.064 8.89-3.224 13.963-7.175 15.074-11.74 1.234-5.07-3.253-9.26-7.469-11.31-3.33-1.62-17.197-5.19-21.194-5.461-6.869-.462-12.824-.685-18.246-.685m-13.907 39.554c-13.557 0-27.012-1.986-39.581-5.98-3.983-1.27-8.121-2.808-11.377-5.46-3.726-3.038-5.504-7.116-4.756-10.912.681-3.46 3.479-6.742 7.68-8.996 3.599-1.93 7.588-2.9 11.698-3.803 26.035-5.711 38.802-8.149 68.65-6.142 4.273.29 18.522 3.965 22.095 5.701 6.622 3.221 10.065 8.742 8.767 14.069-1.334 5.482-6.766 9.881-16.605 13.448-14.82 5.373-30.766 8.075-46.57 8.075" style="fill:#211d1d;fill-opacity:1;fill-rule:nonzero;stroke:none;stroke-width:.0352778" transform="translate(60.07 39.302)scale(.50473)"/><path d="M98.263 278.23c-4.996 6.494-11.98 6.981-21.037 7.119-6.353.099-13.031-.79-16.393-3.775 5.242-4.91 8.862-9.292 10.569-17.367 2.159-10.23 1.27-24.564 1.2-35.243-.22-32.67-.706-66.971-.84-100.933l11.2-.896c.847 34.29-.26 65.69-.853 97.9-.134 7.447 1.09 24.465 1.661 31.894.794 10.287 14.203 21.107 14.493 21.3" style="fill:#fff;fill-opacity:1;fill-rule:nonzero;stroke:none;stroke-width:.0352778" transform="translate(60.07 39.302)scale(.50473)"/><path d="M62.713 281.461c2.925 1.831 7.99 2.773 14.496 2.674 8.671-.13 14.823-.62 19.35-5.743-3.274-2.804-13.286-12.11-13.999-21.368-.546-7.105-1.802-24.44-1.665-32.014.127-6.774.275-13.621.42-20.246.533-24.458 1.083-49.735.466-76.317l-8.799.706c.082 19.449.276 39.18.466 58.272.134 13.726.275 27.922.367 41.529.014 2.13.06 4.385.11 6.773.197 9.567.423 20.412-1.334 28.73-1.605 7.585-4.854 12.132-9.878 17.004m13.582 5.108c-5.535 0-12.513-.75-16.267-4.085l-.998-.885.974-.91c5.397-5.056 8.622-9.222 10.21-16.733 1.7-8.046 1.477-18.743 1.283-28.18-.05-2.395-.095-4.66-.11-6.805-.09-13.606-.232-27.798-.37-41.522-.19-19.466-.391-39.592-.469-59.41l-.003-1.126 13.603-1.09.032 1.28c.666 27.108.105 52.836-.438 77.714-.144 6.621-.293 13.469-.416 20.239-.138 7.468 1.111 24.712 1.658 31.781.744 9.67 13.571 20.08 13.98 20.402l1.052.709-.79 1.023c-5.246 6.819-12.418 7.447-21.982 7.591q-.466.009-.949.007" style="fill:#211d1d;fill-opacity:1;fill-rule:nonzero;stroke:none;stroke-width:.0352778" transform="translate(60.07 39.302)scale(.50473)"/><path d="M112.48 5.547q-1.28-1.287-3.116-2.41C102.51-1.053 90.537-2.92 78.302-2.92c-3.573 0-7.168.159-10.664.466-.194-2.763-.138-5.236.106-7.095l.324-2.455-2.219 1.097c-1.63.808-2.219 1.62-2.36 1.849l-.084.13-.05.152a45 45 0 0 0-1.714 7.01C53.837-.656 46.958 1.229 42.548 3.74a17 17 0 0 0-2.49 1.697c.85-11.416 1.806-22.8 3.023-33.634l.028-.222-.053-.222c-.472-2.025.452-4.367 2.752-6.96 4.24-4.777 17.036-8.195 31.122-8.315.272 0 .54-.004.808-.004 13.674 0 24.723 3.172 29.623 8.513.6.656 1.344 1.714 1.467 3.037.035.353.028.73-.014 1.178l-.021.22.053.214c2.303 9.5 3.125 25.002 3.633 36.305" style="fill:#fff;fill-opacity:1;fill-rule:nonzero;stroke:none;stroke-width:.0352778" transform="translate(60.07 39.302)scale(.50473)"/><path d="M37.027 47.682c-2.346 30.488 1.27 53.806 11.38 73.385 6.517 12.633 15.608 21.435 24.314 23.541 5.236 1.27 10.354.155 15.216-3.309 14.27-10.185 23.41-41.931 26.073-60.784 1.397-9.888 1.722-20.969.995-33.88-.289-5.172-.67-10.517-1.037-15.681-.43-6.079-.875-12.365-1.164-18.246-.067-1.351-.134-2.882-.208-4.554-.505-11.41-1.263-28.656-3.75-38.912l-.053-.215.021-.219a6 6 0 0 0 .014-1.178c-.123-1.323-.868-2.381-1.467-3.037-4.996-5.444-16.383-8.636-30.43-8.51-14.087.12-26.883 3.54-31.123 8.316-2.3 2.593-3.224 4.935-2.752 6.96l.053.222-.028.222c-1.884 16.743-3.136 34.795-4.35 52.25-.54 7.772-1.097 15.808-1.704 23.63m39.885 100.05q-2.381.001-4.804-.585c-9.434-2.286-19.16-11.585-26.021-24.881-10.34-20.031-14.048-43.794-11.663-74.786.607-7.81 1.164-15.843 1.704-23.608 1.206-17.41 2.459-35.411 4.335-52.15-.564-2.833.575-5.881 3.39-9.056 5.507-6.206 20.571-9.088 33.052-9.194 7.109-.05 24.469.734 32.378 9.356 1.253 1.362 1.993 2.935 2.145 4.554.042.462.046.928.004 1.454 2.508 10.523 3.27 27.767 3.775 39.204.07 1.665.141 3.192.205 4.54.289 5.853.733 12.122 1.164 18.186.367 5.179.748 10.53 1.037 15.723.737 13.081.402 24.331-1.016 34.392-1.545 10.94-4.833 23.696-8.795 34.128-3.64 9.589-9.779 22.3-18.348 28.413-4.025 2.871-8.227 4.31-12.541 4.31" style="fill:#211d1d;fill-opacity:1;fill-rule:nonzero;stroke:none;stroke-width:.0352778" transform="translate(60.07 39.302)scale(.50473)"/><path d="M35.726 47.58c.91-11.758 1.696-23.71 2.543-35.563 2.177 23.58 73.6 25.389 75.872 1.27.54 10.654 1.549 22.186 2.17 33.274.649 11.56.546 23.124-1.006 34.138-2.635 18.644-11.758 51.061-26.61 61.662-16.68 11.892-33.108-4.526-41.448-20.694C35.422 98.761 33.74 73.375 35.726 47.58" style="fill:#fdfcee;fill-opacity:1;fill-rule:nonzero;stroke:none;stroke-width:.0352778" transform="translate(60.07 39.302)scale(.50473)"/><path d="M36.936 47.675c-2.346 30.505 1.273 53.838 11.39 73.435 6.53 12.657 15.643 21.473 24.374 23.59 5.264 1.273 10.407.155 15.293-3.327 14.291-10.202 23.442-41.977 26.11-60.843 1.396-9.896 1.72-20.984.994-33.899-.29-5.168-.667-10.506-1.034-15.667-.271-3.834-.55-7.75-.79-11.595-5.482 8.523-20.634 12.403-35.327 12.403h-.078c-10.036-.01-19.614-1.718-26.959-4.815-5.62-2.367-9.617-5.412-11.843-8.975l-.412 5.92c-.547 7.817-1.108 15.903-1.718 23.773m39.976 99.967q-2.37 0-4.783-.582c-9.409-2.279-19.114-11.564-25.961-24.836-10.333-20.013-14.037-43.762-11.656-74.736.61-7.86 1.175-15.942 1.718-23.756.275-3.937.547-7.874.83-11.8l2.42-.028c1.053 11.426 20.11 17.423 38.391 17.441h.078c9.112 0 17.578-1.475 23.854-4.152 4.752-2.025 10.538-5.757 11.13-12.023l2.42.053c.29 5.67.717 11.72 1.133 17.568.367 5.172.744 10.517 1.034 15.703.737 13.077.405 24.32-1.013 34.374-1.545 10.933-4.833 23.686-8.791 34.11-3.637 9.575-9.768 22.271-18.316 28.37-4.008 2.858-8.192 4.294-12.489 4.294" style="fill:#211d1d;fill-opacity:1;fill-rule:nonzero;stroke:none;stroke-width:.0352778" transform="translate(60.07 39.302)scale(.50473)"/><path d="M38.213 11.071c.324 24.68 74.877 26.695 75.984 1.598.921-20.807-76.185-16.93-75.984-1.598" style="fill:#fff;fill-opacity:1;fill-rule:nonzero;stroke:none;stroke-width:.0352778" transform="translate(60.07 39.302)scale(.50473)"/><path d="M39.426 11.054c.152 11.627 18.846 17.998 37.229 18.284 17.12.258 35.807-4.854 36.329-16.722.127-2.857-1.517-5.348-4.886-7.408-13.843-8.46-51.287-6.794-64.347.642-1.99 1.132-4.353 2.956-4.325 5.204m38.552 20.722q-.677 0-1.358-.01c-18.955-.294-39.441-6.89-39.62-20.68-.036-2.756 1.83-5.229 5.548-7.346 13.86-7.891 52.113-9.592 66.816-.603 4.18 2.554 6.216 5.779 6.047 9.585-.275 6.244-4.688 11.349-12.76 14.76-6.583 2.78-15.3 4.294-24.673 4.294" style="fill:#211d1d;fill-opacity:1;fill-rule:nonzero;stroke:none;stroke-width:.0352778" transform="translate(60.07 39.302)scale(.50473)"/><path d="M118.819-37.245c-1.238-2.463-6.477-5.666-12.305-6.072-4.523-.314-10.93 2.308-14.654 4.21-.318.161-.49.581-.18.722 2.303 1.048 9.493-.79 14.834-.518 6.798.342 8.41 5.478 8.417 6.477.014 1.555 1.711-.07 2.815-1.52.741-.974 1.542-2.364 1.073-3.3" style="fill:#fff;fill-opacity:1;fill-rule:nonzero;stroke:none;stroke-width:.0352778" transform="translate(60.07 39.302)scale(.50473)"/><path d="M117.637-36.653h.004zm-12.259-3.601c.41 0 .808.01 1.203.028 5.93.303 8.583 3.933 9.39 6.343.223-.24.47-.53.724-.865.886-1.16.967-1.795.939-1.908-.999-1.98-5.744-4.964-11.212-5.341-2.942-.205-7.016.998-10.643 2.526.938-.074 1.95-.187 2.917-.29 2.128-.232 4.498-.493 6.682-.493m9.945 9.796c-.244 0-.42-.06-.543-.099-.346-.116-1.158-.529-1.168-1.859-.004-.039-.882-4.85-7.165-5.168-2.283-.116-5.038.184-7.465.452-3.489.38-6.244.68-7.85-.05a1.58 1.58 0 0 1-.938-1.41c-.014-.692.403-1.356 1.062-1.69 2.191-1.119 9.765-4.738 15.35-4.354 6.184.43 11.92 3.863 13.395 6.798.624 1.245.218 2.822-1.203 4.692-1.732 2.275-2.83 2.688-3.475 2.688" style="fill:#211d1d;fill-opacity:1;fill-rule:nonzero;stroke:none;stroke-width:.0352778" transform="translate(60.07 39.302)scale(.50473)"/><path d="M71.695 47.848c-.304-.589-.025-1.404.589-1.725 3.443-1.792 13.063-4.999 20.373-2.303 8.269 3.048 13.885 10.664 13.68 19.318-.014.582-.624.987-1.022.66a13 13 0 0 1-1.292-1.239c-1.418-1.534-7.168-11.603-14.555-12.873-5.842-1.009-16.25 2.759-16.25 2.759z" style="fill:#fff;fill-opacity:1;fill-rule:nonzero;stroke:none;stroke-width:.0352778" transform="translate(60.07 39.302)scale(.50473)"/><path d="M87.252 48.194c.861 0 1.683.056 2.442.187 6.575 1.132 11.736 8.357 14.216 11.829.47.66.875 1.227 1.08 1.45-.43-7.328-5.419-13.882-12.792-16.599-7.172-2.646-16.573.815-19.304 2.233l.004.008.05.13 1.107 3.334c2.568-.836 8.46-2.572 13.197-2.572m18.387 17.043a1.8 1.8 0 0 1-1.16-.417 14 14 0 0 1-1.43-1.365c-.313-.338-.723-.913-1.29-1.707-2.276-3.186-7.007-9.811-12.513-10.76-5.43-.935-15.477 2.663-15.58 2.702l-1.276.459-1.926-5.807c-.55-1.224-.015-2.752 1.21-3.394 3.213-1.672 13.331-5.358 21.441-2.367 8.912 3.285 14.757 11.56 14.542 20.588a2.13 2.13 0 0 1-1.228 1.891 1.85 1.85 0 0 1-.79.177" style="fill:#211d1d;fill-opacity:1;fill-rule:nonzero;stroke:none;stroke-width:.0352778" transform="translate(60.07 39.302)scale(.50473)"/><path d="M104.986 49.1s4.484-7.902.022-11.09c-3.817-2.731-13.297-.802-18.655-2.27-5.052-1.378-11.264-3.887-15.057-8.057-6.724-7.397-11.924-20.147-6.685-36.046 0 0 .406-.657 1.824-1.359-.603 4.608-.124 12.933 2.49 20.373 2.53 7.2 7.698 11.434 10.792 13.406 4.52 2.879 16.076 4.886 19.075 5.362 3.464.55 8.52 2.152 10.975 5.292 2.808 3.591.906 9.863.405 12.019-.497 2.155-5.186 2.37-5.186 2.37" style="fill:#fff;fill-opacity:1;fill-rule:nonzero;stroke:none;stroke-width:.0352778" transform="translate(60.07 39.302)scale(.50473)"/><path d="M64.897-4.578c-4.029 16.457 3.683 27.308 7.376 31.372 3.73 4.1 9.903 6.435 14.429 7.673 2.092.572 5.045.586 7.899.6 4.438.021 8.629.042 11.176 1.866 3.697 2.643 2.571 7.55 1.443 10.467.892-.25 1.58-.603 1.665-.97q.067-.286.162-.663c.6-2.424 1.848-7.468-.321-10.241-2.1-2.681-6.615-4.24-10.142-4.802-3.398-.543-14.849-2.543-19.576-5.552-3.07-1.958-8.626-6.39-11.331-14.083-1.845-5.253-2.664-11.021-2.78-15.667m37.758 55.107 1.181-2.081c.057-.099 3.779-6.95.403-9.363-1.863-1.337-5.821-1.354-9.649-1.372-3.027-.018-6.16-.032-8.587-.695-4.864-1.33-11.532-3.877-15.684-8.446-2.73-3.002-6.36-8.113-8.135-15.412-1.708-7.01-1.312-14.394 1.171-21.936l.05-.152.084-.13c.141-.23.73-1.041 2.36-1.849l2.22-1.097-.325 2.455c-.59 4.509-.081 12.62 2.427 19.76 2.441 6.946 7.475 10.957 10.259 12.731 4.406 2.808 16.24 4.801 18.57 5.172 1.95.31 8.576 1.647 11.807 5.782 2.964 3.789 1.507 9.677.805 12.506l-.152.624c-.692 2.981-5.465 3.352-6.414 3.394z" style="fill:#211d1d;fill-opacity:1;fill-rule:nonzero;stroke:none;stroke-width:.0352778" transform="translate(60.07 39.302)scale(.50473)"/><path d="M90.438-20.358c8.11-.882 24.447-1.795 28.462-8.488.878-1.464.427-6.22.19-8.195-.031-.292-.55-.695-.716-.448-.307.462-.733 1.817-1.823 2.995-1.49 1.613-3.948 3.13-6.537 3.768C98.114-27.8 70.7-31.54 64.403-10.17c-2.328 7.906-1.644 12.245-1.711 12.916.43-1.87 3.986-9.271 5.539-11.628 5.76-8.724 17.504-10.964 22.207-11.476" style="fill:#f5f014;fill-opacity:1;fill-rule:nonzero;stroke:none;stroke-width:.0352778" transform="translate(60.07 39.302)scale(.50473)"/><path d="M118.029-34.2a7 7 0 0 1-.508.606c-1.757 1.901-4.512 3.492-7.19 4.149-2.833.698-6.52 1.03-10.417 1.383-13.209 1.188-29.648 2.67-34.241 18.266a46 46 0 0 0-1.2 5.06c.999-2.015 2.008-3.892 2.657-4.873 6.293-9.539 19.322-11.645 23.163-12.065.822-.088 1.725-.176 2.692-.271 8.047-.798 21.512-2.131 24.78-7.581.274-.456.43-2.057.264-4.675M63.979 3.041l-2.603-.427c.004-.067-.007-.212-.014-.413-.067-1.608-.247-5.888 1.774-12.742 5.102-17.325 23.273-18.962 36.538-20.158 3.799-.342 7.387-.666 10.026-1.312 2.166-.533 4.476-1.86 5.88-3.38.635-.688 1.013-1.481 1.288-2.06.148-.31.261-.557.406-.772.352-.53.991-.773 1.63-.618.765.184 1.41.893 1.502 1.648.55 4.656.427 7.694-.374 9.027-3.95 6.587-17.691 7.948-26.786 8.848-.956.095-1.852.183-2.667.272-3.552.388-15.582 2.314-21.244 10.893-1.517 2.297-4.967 9.515-5.355 11.194" style="fill:#211d1d;fill-opacity:1;fill-rule:nonzero;stroke:none;stroke-width:.0352778" transform="translate(60.07 39.302)scale(.50473)"/><path d="M110.32 41.6c.198-.268.558-.137.526.191-.219 2.23-.723 7.638-1.71 10.03-2.869 6.925-19.933 12.262-28.248 9.743-7.85-2.377-10.76-8.152-11.06-8.692-.02-.035-.02-.074-.01-.117l1.542-5.951c.035-.141.204-.187.26-.067.586 1.231 3.017 5.32 9.953 6.65 7.694 1.471 12.689.046 19.92-3.334 4.661-2.18 7.515-6.65 8.827-8.452" style="fill:#f5f014;fill-opacity:1;fill-rule:nonzero;stroke:none;stroke-width:.0352778" transform="translate(60.07 39.302)scale(.50473)"/><path d="M111.39 42.38v.004zm-40.404 9.853.003.007zm.113.85v.004zm.112-.444c1.119 1.92 4.047 5.838 10.062 7.659 7.994 2.42 24.18-3.038 26.638-8.985.54-1.299.935-3.705 1.21-5.878-1.647 2.025-3.965 4.364-7.07 5.814-7.454 3.485-12.703 4.97-20.729 3.436-4.896-.938-7.754-3.193-9.334-5.034zm14.637 10.876c-2.004 0-3.827-.226-5.34-.684-7.328-2.22-10.697-7.215-11.805-9.26l-.032-.057a1.48 1.48 0 0 1-.134-1.09l1.542-5.952c.159-.61.68-1.061 1.298-1.118a1.43 1.43 0 0 1 1.436.815c.515 1.083 2.685 4.71 9.01 5.92 7.355 1.407 12.023.077 19.11-3.235 3.909-1.828 6.505-5.482 7.902-7.447q.23-.324.417-.583c.448-.613 1.206-.85 1.894-.585.68.257 1.09.935 1.016 1.68l-.021.232c-.247 2.494-.752 7.68-1.785 10.174-2.113 5.101-9.716 8.107-12.884 9.162-4.007 1.333-8.1 2.028-11.624 2.028" style="fill:#211d1d;fill-opacity:1;fill-rule:nonzero;stroke:none;stroke-width:.0352778" transform="translate(60.07 39.302)scale(.50473)"/><path d="M76.884 145.208q-2.078 0-4.184-.508c-8.731-2.117-17.843-10.933-24.373-23.59-10.118-19.597-13.737-42.93-11.391-73.435.61-7.87 1.17-15.956 1.718-23.773q.202-2.934.409-5.867c3.782 6.05 12.35 10.026 22.214 12.08 3.634.761 7.514 1.273 11.522 1.505q.553.036 1.108.06c3.841 2.678 8.47 4.347 12.096 5.338 2.428.663 5.56.677 8.587.695 3.828.018 7.786.035 9.649 1.372 2.134 1.524 1.432 4.82.613 7.066a16.2 16.2 0 0 1-2.97 2.212 22.8 22.8 0 0 0-8.767-5.782c-2.208-.815-4.56-1.132-6.886-1.132-6.22 0-12.216 2.282-14.555 3.5q-.368.196-.65.483c-.458.162-.818.55-.945 1.04l-1.542 5.952c-.095.37-.049.755.134 1.09l.032.056c1.108 2.046 4.477 7.042 11.804 9.26 1.514.46 3.337.685 5.341.685 3.525 0 7.617-.695 11.624-2.028a40 40 0 0 0 3.21-1.228c.403.547.763 1.051 1.077 1.489.568.793.977 1.368 1.29 1.707.491.533.97.991 1.43 1.365.335.276.74.417 1.16.417.265 0 .536-.057.79-.177a2.14 2.14 0 0 0 1.228-1.89 20.3 20.3 0 0 0-.886-6.428c1.56-1.242 2.88-2.713 3.585-4.417.631-1.52 1.065-4.05 1.361-6.354.727-2.96 1.909-8.47-.91-12.075-2.684-3.433-7.704-4.935-10.449-5.528q1.186-.419 2.293-.886c4.96-2.095 8.54-4.833 10.626-8.078.24 3.831.515 7.74.786 11.56.367 5.161.745 10.499 1.034 15.667.727 12.915.402 24.003-.995 33.899-2.667 18.866-11.818 50.64-26.109 60.843-3.584 2.55-7.306 3.835-11.109 3.835m10.354-92.562c-1.679 0-3.453-.183-5.415-.557a18 18 0 0 1-1.436-.335c2.24-.508 4.703-.921 6.83-.921.72 0 1.404.05 2.029.155 1.04.18 2.053.56 3.03 1.087a22.5 22.5 0 0 1-5.038.571" style="fill:#fdfae5;fill-opacity:1;fill-rule:nonzero;stroke:none;stroke-width:.0352778" transform="translate(60.07 39.302)scale(.50473)"/><path d="M76.898 146.425c-12.266 0-23.3-12.453-29.65-24.758-11.827-22.906-13.51-48.292-11.523-74.087.811-10.456 1.52-21.064 2.264-31.623q.447 1.079 1.073 2.078-.207 2.933-.41 5.867c-.546 7.817-1.107 15.903-1.717 23.773-2.346 30.505 1.273 53.838 11.39 73.435 6.53 12.657 15.643 21.473 24.374 23.59q2.106.508 4.184.508c3.803 0 7.525-1.284 11.11-3.835 14.29-10.202 23.441-41.977 26.108-60.843 1.397-9.896 1.722-20.984.995-33.899-.29-5.168-.667-10.506-1.034-15.667-.271-3.82-.546-7.729-.786-11.56q.64-.995 1.09-2.053c.564 9.486 1.4 19.519 1.944 29.21.649 11.56.546 23.124-1.006 34.138-2.635 18.644-11.758 51.061-26.61 61.662-3.983 2.84-7.951 4.064-11.797 4.064M72.8 31.62c-4.008-.232-7.888-.744-11.522-1.506 3.719.773 7.624 1.274 11.522 1.506" style="fill:#6f6c62;fill-opacity:1;fill-rule:nonzero;stroke:none;stroke-width:.0352778" transform="translate(60.07 39.302)scale(.50473)"/><path d="M73.907 31.68q-.554-.024-1.108-.06c-3.898-.232-7.803-.733-11.522-1.506-9.863-2.053-18.432-6.029-22.214-12.079a14 14 0 0 1-1.073-2.078c.092-1.312.187-2.628.28-3.94 1.008 10.94 16.918 17.19 33.915 18.344q.827.7 1.722 1.32m26.451-3.313c-.56-.12-1.027-.201-1.358-.254-.275-.042-.681-.11-1.19-.198 9.064-2.72 15.668-7.56 16.331-14.63q.105 2.011.226 4.065-.45 1.058-1.09 2.053c-2.085 3.245-5.666 5.983-10.626 8.078q-1.107.466-2.293.886" style="fill:#6f6c62;fill-opacity:1;fill-rule:nonzero;stroke:none;stroke-width:.0352778" transform="translate(60.07 39.302)scale(.50473)"/><path d="M104.99 61.66c-.205-.223-.61-.79-1.08-1.45q-.363-.512-.8-1.112c.455-.243.91-.497 1.361-.772.276 1.086.452 2.201.519 3.334m-9.366-10.573c-1.796-1.32-3.79-2.336-5.93-2.706-.759-.13-1.58-.187-2.442-.187-3.591 0-7.849.998-10.816 1.845-1.58-1.009-2.547-2.134-3.1-2.963 2.31-1.101 7.584-2.985 12.91-2.985 2.033 0 4.068.275 5.952.97a20.25 20.25 0 0 1 7.169 4.509 51 51 0 0 1-3.743 1.517" style="fill:#fefef3;fill-opacity:1;fill-rule:nonzero;stroke:none;stroke-width:.0352778" transform="translate(60.07 39.302)scale(.50473)"/><path d="M105.64 65.237c-.42 0-.826-.141-1.162-.417a14 14 0 0 1-1.428-1.365c-.314-.339-.723-.914-1.291-1.707-.314-.438-.674-.942-1.076-1.489a35 35 0 0 0 2.427-1.16c.292.398.557.772.8 1.11.47.66.875 1.228 1.08 1.45a18 18 0 0 0-.519-3.333 22 22 0 0 0 2.3-1.584c.628 2.056.939 4.219.886 6.427a2.13 2.13 0 0 1-1.228 1.891 1.85 1.85 0 0 1-.79.177M92.276 52.075c-.977-.526-1.99-.907-3.03-1.087a12 12 0 0 0-2.029-.155c-2.127 0-4.59.413-6.83.92-1.619-.444-2.917-1.054-3.95-1.714 2.966-.847 7.224-1.845 10.815-1.845.861 0 1.683.056 2.442.187 2.14.37 4.134 1.386 5.93 2.706-1.14.405-2.247.737-3.348.988m7.09-2.505a20.25 20.25 0 0 0-7.168-4.509c-1.884-.695-3.92-.97-5.951-.97-5.327 0-10.601 1.884-12.912 2.985a7 7 0 0 1-.522-.907 1.43 1.43 0 0 0-1.295-.822 1.5 1.5 0 0 0-.494.085q.282-.286.65-.484c2.339-1.217 8.336-3.5 14.555-3.5 2.325 0 4.678.318 6.886 1.133a22.8 22.8 0 0 1 8.767 5.782q-.461.262-.949.49-.804.377-1.566.717" style="fill:#6f6c62;fill-opacity:1;fill-rule:nonzero;stroke:none;stroke-width:.0352778" transform="translate(60.07 39.302)scale(.50473)"/><path d="M108.31 42.144c-.025-1.951-.66-3.87-2.533-5.21-2.547-1.825-6.738-1.846-11.176-1.867-2.854-.014-5.807-.028-7.899-.6-2.903-.793-6.488-2.039-9.666-3.915q.456.006.914.007c4.663 0 9.295-.385 13.606-1.164 3.002.66 5.666 1.11 7.028 1.33 3.527.56 8.043 2.12 10.142 4.8.988 1.264 1.266 2.996 1.22 4.739a1.7 1.7 0 0 0-.694.56l-.417.583q-.238.339-.525.737" style="fill:#fefef3;fill-opacity:1;fill-rule:nonzero;stroke:none;stroke-width:.0352778" transform="translate(60.07 39.302)scale(.50473)"/><path d="M104.852 46.151c.819-2.247 1.52-5.542-.613-7.066-1.863-1.337-5.821-1.354-9.649-1.372-3.027-.018-6.16-.032-8.587-.695-3.626-.991-8.255-2.66-12.096-5.338a23 23 0 0 1-1.722-1.319 79 79 0 0 0 4.85.19c3.18 1.877 6.764 3.123 9.667 3.916 2.092.572 5.045.586 7.899.6 4.438.021 8.629.042 11.176 1.866 1.873 1.34 2.508 3.26 2.533 5.21-.84 1.158-1.99 2.643-3.458 4.008m6.865-.18c.19-1.47.329-2.85.424-3.82l.021-.233c.074-.744-.335-1.422-1.016-1.68a1.6 1.6 0 0 0-.568-.105c-.219 0-.434.046-.631.13.045-1.742-.233-3.474-1.221-4.737-2.1-2.681-6.615-4.24-10.142-4.802-1.362-.218-4.026-.67-7.028-1.33a57 57 0 0 0 6.255-1.478c.508.089.914.156 1.189.198.331.053.797.134 1.358.254 2.745.593 7.765 2.095 10.45 5.528 2.818 3.605 1.636 9.116.91 12.075" style="fill:#6f6c62;fill-opacity:1;fill-rule:nonzero;stroke:none;stroke-width:.0352778" transform="translate(60.07 39.302)scale(.50473)"/><path d="M85.848 60.887c-1.683 0-3.245-.184-4.575-.59-6.015-1.82-8.943-5.739-10.062-7.658l.777-2.988c1.58 1.841 4.438 4.096 9.334 5.034 2.134.41 4.075.603 5.91.603 5.065 0 9.348-1.481 14.82-4.039 3.104-1.45 5.422-3.789 7.069-5.814-.275 2.173-.67 4.58-1.21 5.878-2.05 4.96-13.631 9.574-22.063 9.574" style="fill:#f5f23e;fill-opacity:1;fill-rule:nonzero;stroke:none;stroke-width:.0352778" transform="translate(60.07 39.302)scale(.50473)"/><path d="M85.848 63.515c-2.004 0-3.827-.226-5.34-.684-7.328-2.22-10.697-7.215-11.805-9.26l-.032-.057a1.48 1.48 0 0 1-.134-1.09l1.542-5.952a1.5 1.5 0 0 1 .946-1.04q.168-.06.352-.078c.046-.007.096-.007.141-.007.55 0 1.052.31 1.295.822.102.215.268.53.522.907.554.829 1.52 1.954 3.101 2.963 1.034.66 2.332 1.27 3.951 1.714q.679.189 1.436.336c1.962.374 3.736.557 5.415.557 1.743 0 3.387-.198 5.038-.571 1.1-.251 2.208-.583 3.348-.988a51 51 0 0 0 3.743-1.517q.762-.34 1.566-.716.488-.23.949-.49c1.108-.632 2.095-1.401 2.97-2.213 1.468-1.365 2.618-2.85 3.458-4.007q.286-.398.525-.737.23-.324.417-.583c.186-.257.426-.444.694-.56.198-.085.413-.131.632-.131.187 0 .381.035.568.106.68.257 1.09.935 1.016 1.679l-.021.233c-.096.97-.233 2.35-.424 3.82-.296 2.304-.73 4.834-1.361 6.354-.706 1.704-2.025 3.175-3.585 4.417a22 22 0 0 1-2.3 1.584c-.451.275-.906.529-1.361.772a35 35 0 0 1-2.427 1.161 40 40 0 0 1-3.21 1.228c-4.008 1.333-8.1 2.028-11.625 2.028m-13.86-13.864-.777 2.988c1.119 1.92 4.047 5.838 10.062 7.659 1.33.405 2.893.589 4.575.589 8.432 0 20.013-4.614 22.063-9.574.54-1.299.935-3.705 1.21-5.878-1.647 2.025-3.965 4.364-7.07 5.814-5.471 2.558-9.754 4.04-14.82 4.04-1.834 0-3.775-.195-5.909-.604-4.896-.938-7.754-3.193-9.334-5.034m-1.002 2.582.003.007z" style="fill:#6f6c62;fill-opacity:1;fill-rule:nonzero;stroke:none;stroke-width:.0352778" transform="translate(60.07 39.302)scale(.50473)"/><path d="M36.936 47.675c-2.346 30.505 1.273 53.838 11.39 73.435 6.53 12.657 15.643 21.473 24.374 23.59 5.264 1.273 10.407.155 15.293-3.327 14.291-10.202 23.442-41.977 26.11-60.843 1.396-9.896 1.72-20.984.994-33.899-.29-5.168-.667-10.506-1.034-15.667-.271-3.834-.55-7.75-.79-11.595-5.482 8.523-20.634 12.403-35.327 12.403h-.074c-10.04-.01-19.618-1.718-26.963-4.815-5.62-2.367-9.617-5.412-11.843-8.975l-.412 5.92c-.544 7.817-1.108 15.903-1.718 23.773m39.976 99.967q-2.37 0-4.783-.582c-9.409-2.279-19.114-11.564-25.961-24.836-10.333-20.013-14.037-43.762-11.656-74.736h.004c.606-7.86 1.17-15.942 1.714-23.756.275-3.937.547-7.874.83-11.8l2.42-.025c1.054 11.423 20.111 17.42 38.392 17.438h.078c9.112 0 17.578-1.475 23.854-4.149 4.752-2.028 10.538-5.76 11.13-12.026l2.42.053c.29 5.67.717 11.72 1.133 17.568.367 5.172.744 10.517 1.034 15.703.737 13.077.405 24.32-1.013 34.374-1.545 10.933-4.833 23.686-8.791 34.11-3.637 9.575-9.768 22.271-18.316 28.37-4.008 2.858-8.192 4.294-12.489 4.294" style="fill:#211d1d;fill-opacity:1;fill-rule:nonzero;stroke:none;stroke-width:.0352778" transform="translate(60.07 39.302)scale(.50473)"/><path d="M98.047 99.954c2.336.137 2.117 3.94-.225 3.799-2.336-.138-2.114-3.94.225-3.8" style="fill:#fff;fill-opacity:1;fill-rule:nonzero;stroke:none;stroke-width:.0352778" transform="translate(60.07 39.302)scale(.50473)"/><path d="M97.924 100.313c-.59 0-.92.31-1.1.582a1.86 1.86 0 0 0-.103 1.778c.152.307.473.681 1.122.717.96.053 1.436-.688 1.481-1.454.046-.765-.338-1.563-1.298-1.62q-.053-.004-.102-.003m.025 3.81-.149-.004c-.78-.046-1.393-.444-1.732-1.121a2.59 2.59 0 0 1 .148-2.505c.417-.628 1.08-.95 1.852-.903 1.39.08 2.05 1.263 1.983 2.388-.063 1.087-.804 2.145-2.102 2.145" style="fill:#7c9b8d;fill-opacity:1;fill-rule:nonzero;stroke:none;stroke-width:.0352778" transform="translate(60.07 39.302)scale(.50473)"/><path d="M66.371 124.934c3.892.23 3.525 6.568-.374 6.336-3.894-.23-3.527-6.566.374-6.336" style="fill:#fff;fill-opacity:1;fill-rule:nonzero;stroke:none;stroke-width:.0352778" transform="translate(60.07 39.302)scale(.50473)"/><path d="M66.16 125.294c-1.083 0-1.7.578-2.032 1.08-.6.91-.678 2.229-.187 3.202.282.568.875 1.26 2.078 1.33 1.21.07 1.87-.543 2.219-1.072.6-.914.677-2.23.19-3.203-.286-.568-.878-1.263-2.078-1.334q-.095-.005-.19-.004zm.042 6.346q-.113.001-.226-.004c-1.21-.074-2.162-.688-2.688-1.732-.61-1.217-.515-2.798.233-3.93.642-.977 1.665-1.475 2.872-1.404 1.206.07 2.162.688 2.684 1.732.61 1.217.519 2.794-.23 3.93-.602.914-1.537 1.408-2.645 1.408" style="fill:#7c9b8d;fill-opacity:1;fill-rule:nonzero;stroke:none;stroke-width:.0352778" transform="translate(60.07 39.302)scale(.50473)"/><path d="M88.992 115.913c3.89.23 3.524 6.569-.374 6.336-3.895-.23-3.528-6.565.374-6.336" style="fill:#fff;fill-opacity:1;fill-rule:nonzero;stroke:none;stroke-width:.0352778" transform="translate(60.07 39.302)scale(.50473)"/><path d="M88.787 116.273c-1.637 0-2.466 1.355-2.544 2.656-.077 1.352.635 2.854 2.396 2.957 1.75.113 2.642-1.302 2.723-2.65.081-1.35-.635-2.854-2.392-2.96q-.094-.004-.183-.003m.032 6.347q-.11.001-.226-.004c-2.156-.131-3.179-1.976-3.076-3.73.105-1.756 1.344-3.467 3.496-3.337 2.155.127 3.182 1.972 3.076 3.73-.099 1.693-1.252 3.34-3.27 3.34" style="fill:#7c9b8d;fill-opacity:1;fill-rule:nonzero;stroke:none;stroke-width:.0352778" transform="translate(60.07 39.302)scale(.50473)"/><path d="M77.025 118.647c2.55.152 2.311 4.304-.247 4.152-2.55-.151-2.307-4.303.247-4.152" style="fill:#fff;fill-opacity:1;fill-rule:nonzero;stroke:none;stroke-width:.0352778" transform="translate(60.07 39.302)scale(.50473)"/><path d="M76.891 119.007c-.66 0-1.03.35-1.231.653-.37.56-.416 1.372-.116 1.972.172.342.529.762 1.256.804.733.042 1.132-.328 1.344-.649.37-.56.42-1.372.116-1.972-.17-.346-.53-.762-1.256-.804q-.059-.005-.113-.004m.025 4.16q-.08.001-.159-.005c-.836-.05-1.5-.476-1.863-1.203a2.78 2.78 0 0 1 .16-2.702c.444-.677 1.163-1.02 1.992-.974.84.05 1.503.477 1.867 1.203.42.836.352 1.923-.16 2.703-.419.635-1.068.977-1.837.977" style="fill:#7c9b8d;fill-opacity:1;fill-rule:nonzero;stroke:none;stroke-width:.0352778" transform="translate(60.07 39.302)scale(.50473)"/><path d="M99.585 113.426c1.168.067 1.055 1.969-.112 1.902-1.168-.071-1.059-1.972.112-1.902" style="fill:#fff;fill-opacity:1;fill-rule:nonzero;stroke:none;stroke-width:.0352778" transform="translate(60.07 39.302)scale(.50473)"/><path d="M99.522 113.786c-.459 0-.505.5-.508.557-.004.06-.021.59.48.618.487.042.543-.494.547-.554s.02-.59-.48-.617zm.014 1.905h-.085c-.815-.05-1.203-.737-1.164-1.39s.508-1.288 1.32-1.242c.811.05 1.199.738 1.16 1.39-.035.628-.469 1.242-1.231 1.242" style="fill:#7c9b8d;fill-opacity:1;fill-rule:nonzero;stroke:none;stroke-width:.0352778" transform="translate(60.07 39.302)scale(.50473)"/><path d="M95.532 125.251c1.168.07 1.058 1.972-.11 1.902-1.167-.067-1.058-1.969.11-1.902" style="fill:#fff;fill-opacity:1;fill-rule:nonzero;stroke:none;stroke-width:.0352778" transform="translate(60.07 39.302)scale(.50473)"/><path d="M95.472 125.615a.45.45 0 0 0-.399.208.76.76 0 0 0-.042.709.46.46 0 0 0 .413.257c.504.04.543-.494.547-.553.003-.06.02-.59-.48-.621zm.014 1.905-.085-.004a1.18 1.18 0 0 1-1.02-.66 1.47 1.47 0 0 1 .086-1.432c.24-.367.638-.561 1.086-.537h.004c.811.05 1.2.738 1.16 1.39-.035.628-.469 1.242-1.23 1.242" style="fill:#7c9b8d;fill-opacity:1;fill-rule:nonzero;stroke:none;stroke-width:.0352778" transform="translate(60.07 39.302)scale(.50473)"/><path d="M111.206 73.079c1.168.07 1.058 1.972-.113 1.901-1.168-.067-1.055-1.968.113-1.901" style="fill:#fff;fill-opacity:1;fill-rule:nonzero;stroke:none;stroke-width:.0352778" transform="translate(60.07 39.302)scale(.50473)"/><path d="M111.146 73.442c-.462 0-.505.498-.508.558s-.021.589.48.617c.487.039.543-.494.547-.557.004-.06.017-.586-.48-.618zm.014 1.905-.088-.003c-.815-.046-1.2-.734-1.16-1.387.038-.652.497-1.294 1.315-1.241.815.049 1.203.733 1.164 1.39-.039.627-.472 1.241-1.231 1.241" style="fill:#7c9b8d;fill-opacity:1;fill-rule:nonzero;stroke:none;stroke-width:.0352778" transform="translate(60.07 39.302)scale(.50473)"/><path d="M106.546 66.196c1.167.067 1.058 1.969-.113 1.898-1.168-.067-1.055-1.968.113-1.898" style="fill:#fff;fill-opacity:1;fill-rule:nonzero;stroke:none;stroke-width:.0352778" transform="translate(60.07 39.302)scale(.50473)"/><path d="M106.486 66.556c-.462 0-.505.501-.508.557-.004.06-.021.59.476.618.494.046.547-.494.55-.554s.018-.59-.48-.617zm.014 1.905h-.088c-.815-.05-1.2-.737-1.161-1.39s.508-1.288 1.316-1.242c.815.05 1.203.738 1.164 1.39-.039.628-.473 1.242-1.231 1.242" style="fill:#7c9b8d;fill-opacity:1;fill-rule:nonzero;stroke:none;stroke-width:.0352778" transform="translate(60.07 39.302)scale(.50473)"/><path d="M106.073 78.91c1.168.07 1.058 1.972-.113 1.902-1.168-.067-1.058-1.969.113-1.902" style="fill:#fff;fill-opacity:1;fill-rule:nonzero;stroke:none;stroke-width:.0352778" transform="translate(60.07 39.302)scale(.50473)"/><path d="M106.013 79.274a.45.45 0 0 0-.402.211.76.76 0 0 0-.039.706.46.46 0 0 0 .41.257c.493.036.543-.493.546-.553s.021-.59-.476-.618zm.01 1.905-.084-.004a1.18 1.18 0 0 1-1.02-.66 1.48 1.48 0 0 1 .085-1.432 1.2 1.2 0 0 1 1.09-.536c.815.05 1.2.737 1.16 1.39-.034.628-.468 1.242-1.23 1.242" style="fill:#7c9b8d;fill-opacity:1;fill-rule:nonzero;stroke:none;stroke-width:.0352778" transform="translate(60.07 39.302)scale(.50473)"/><path d="M103.72 87.889c1.168.067 1.058 1.968-.113 1.901-1.168-.07-1.058-1.972.113-1.901" style="fill:#fff;fill-opacity:1;fill-rule:nonzero;stroke:none;stroke-width:.0352778" transform="translate(60.07 39.302)scale(.50473)"/><path d="M103.66 88.248c-.462 0-.504.501-.508.558-.004.06-.021.589.476.617a.45.45 0 0 0 .438-.208.75.75 0 0 0 .042-.706.46.46 0 0 0-.41-.257zm.007 1.905h-.081c-.815-.049-1.2-.737-1.164-1.39.039-.652.511-1.294 1.32-1.238.45.025.821.265 1.019.66a1.48 1.48 0 0 1-.085 1.432 1.18 1.18 0 0 1-1.009.536" style="fill:#7c9b8d;fill-opacity:1;fill-rule:nonzero;stroke:none;stroke-width:.0352778" transform="translate(60.07 39.302)scale(.50473)"/><path d="M85.59 79.609c1.168.067 1.056 1.968-.112 1.901-1.168-.07-1.058-1.972.113-1.901" style="fill:#fff;fill-opacity:1;fill-rule:nonzero;stroke:none;stroke-width:.0352778" transform="translate(60.07 39.302)scale(.50473)"/><path d="M85.527 79.969c-.458 0-.504.5-.508.557-.003.06-.017.59.48.617a.45.45 0 0 0 .437-.208.75.75 0 0 0 .043-.705.46.46 0 0 0-.41-.258zm.01 1.905h-.08c-.815-.05-1.203-.738-1.165-1.39.04-.653.512-1.288 1.32-1.239.451.025.822.265 1.02.66a1.48 1.48 0 0 1-.085 1.432 1.18 1.18 0 0 1-1.01.537" style="fill:#7c9b8d;fill-opacity:1;fill-rule:nonzero;stroke:none;stroke-width:.0352778" transform="translate(60.07 39.302)scale(.50473)"/><path d="M90.762 91.36c1.172.07 1.059 1.972-.109 1.901-1.171-.07-1.058-1.968.11-1.901" style="fill:#fff;fill-opacity:1;fill-rule:nonzero;stroke:none;stroke-width:.0352778" transform="translate(60.07 39.302)scale(.50473)"/><path d="M90.702 91.723c-.462 0-.504.498-.508.558-.003.06-.02.589.48.617.19.014.339-.06.438-.208a.75.75 0 0 0 .042-.706.46.46 0 0 0-.413-.26zm.011 1.905-.085-.003c-.811-.05-1.2-.734-1.16-1.387.039-.656.504-1.294 1.316-1.241a1.19 1.19 0 0 1 1.02.66c.221.444.19 1.019-.086 1.435a1.18 1.18 0 0 1-1.005.536" style="fill:#7c9b8d;fill-opacity:1;fill-rule:nonzero;stroke:none;stroke-width:.0352778" transform="translate(60.07 39.302)scale(.50473)"/><path d="M88.297 98.846c1.167.07 1.058 1.968-.113 1.901-1.168-.07-1.055-1.972.113-1.901" style="fill:#fff;fill-opacity:1;fill-rule:nonzero;stroke:none;stroke-width:.0352778" transform="translate(60.07 39.302)scale(.50473)"/><path d="M88.237 99.21c-.463 0-.505.497-.508.557s-.022.585.476.617a.46.46 0 0 0 .44-.208.75.75 0 0 0 .04-.71q-.118-.239-.41-.257zm.007 1.904-.081-.004c-.815-.05-1.2-.734-1.161-1.39.039-.652.508-1.29 1.316-1.238.451.025.822.268 1.02.66a1.47 1.47 0 0 1-.085 1.432c-.226.346-.59.54-1.01.54" style="fill:#7c9b8d;fill-opacity:1;fill-rule:nonzero;stroke:none;stroke-width:.0352778" transform="translate(60.07 39.302)scale(.50473)"/><path d="M80.955 110.071c1.168.067 1.059 1.969-.113 1.898-1.167-.067-1.058-1.968.113-1.898" style="fill:#fff;fill-opacity:1;fill-rule:nonzero;stroke:none;stroke-width:.0352778" transform="translate(60.07 39.302)scale(.50473)"/><path d="M80.892 110.431c-.459 0-.505.501-.508.557-.004.06-.018.59.48.618a.45.45 0 0 0 .437-.208.75.75 0 0 0 .042-.706.46.46 0 0 0-.409-.257zm.01 1.905h-.08c-.816-.05-1.204-.737-1.165-1.39s.512-1.291 1.32-1.242c.45.029.821.268 1.019.66a1.49 1.49 0 0 1-.085 1.436 1.18 1.18 0 0 1-1.009.536" style="fill:#7c9b8d;fill-opacity:1;fill-rule:nonzero;stroke:none;stroke-width:.0352778" transform="translate(60.07 39.302)scale(.50473)"/><path d="M52.79 120.909c1.167.07 1.054 1.972-.113 1.901-1.168-.067-1.059-1.968.112-1.901" style="fill:#fff;fill-opacity:1;fill-rule:nonzero;stroke:none;stroke-width:.0352778" transform="translate(60.07 39.302)scale(.50473)"/><path d="M52.726 121.272c-.462 0-.505.5-.508.557-.004.06-.021.59.48.618.508.046.543-.494.547-.554.003-.06.02-.59-.48-.621zm.014 1.905-.085-.004c-.815-.046-1.203-.734-1.164-1.387.039-.652.505-1.29 1.32-1.241.815.05 1.2.737 1.16 1.39-.035.628-.469 1.241-1.23 1.241" style="fill:#7c9b8d;fill-opacity:1;fill-rule:nonzero;stroke:none;stroke-width:.0352778" transform="translate(60.07 39.302)scale(.50473)"/><path d="M49.58 112.971c1.167.07 1.057 1.972-.114 1.902-1.167-.067-1.058-1.969.113-1.902" style="fill:#fff;fill-opacity:1;fill-rule:nonzero;stroke:none;stroke-width:.0352778" transform="translate(60.07 39.302)scale(.50473)"/><path d="M49.52 113.334c-.463 0-.505.501-.509.558-.003.06-.021.589.476.617.501.039.544-.494.55-.554.004-.06.018-.589-.479-.617zm.01 1.905h-.085c-.815-.049-1.2-.737-1.164-1.39.039-.652.511-1.284 1.32-1.241.814.05 1.202.737 1.163 1.39-.038.628-.472 1.241-1.234 1.241" style="fill:#7c9b8d;fill-opacity:1;fill-rule:nonzero;stroke:none;stroke-width:.0352778" transform="translate(60.07 39.302)scale(.50473)"/><path d="M64.47 115.031c1.168.067 1.058 1.969-.113 1.902-1.168-.07-1.058-1.972.113-1.902" style="fill:#fff;fill-opacity:1;fill-rule:nonzero;stroke:none;stroke-width:.0352778" transform="translate(60.07 39.302)scale(.50473)"/><path d="M64.41 115.391c-.462 0-.505.501-.508.557-.004.06-.021.59.476.618.498.046.543-.494.547-.554.003-.06.021-.59-.476-.617zm.01 1.905h-.084c-.815-.05-1.203-.737-1.164-1.39.038-.652.504-1.287 1.32-1.242.814.05 1.202.738 1.163 1.39-.039.628-.472 1.242-1.234 1.242" style="fill:#7c9b8d;fill-opacity:1;fill-rule:nonzero;stroke:none;stroke-width:.0352778" transform="translate(60.07 39.302)scale(.50473)"/><path d="M55.601 97.336c1.168.067 1.055 1.968-.113 1.901-1.168-.07-1.058-1.972.113-1.901" style="fill:#fff;fill-opacity:1;fill-rule:nonzero;stroke:none;stroke-width:.0352778" transform="translate(60.07 39.302)scale(.50473)"/><path d="M55.538 97.7a.45.45 0 0 0-.4.207.75.75 0 0 0-.041.706q.12.242.412.261c.198.01.339-.06.438-.208a.76.76 0 0 0 .042-.71.46.46 0 0 0-.413-.257zm.01 1.904-.081-.003a1.19 1.19 0 0 1-1.02-.66 1.48 1.48 0 0 1 .085-1.436c.24-.367.639-.554 1.09-.532a1.18 1.18 0 0 1 1.016.66 1.47 1.47 0 0 1-.084 1.432c-.226.345-.59.54-1.006.54" style="fill:#7c9b8d;fill-opacity:1;fill-rule:nonzero;stroke:none;stroke-width:.0352778" transform="translate(60.07 39.302)scale(.50473)"/><path d="M43.148 62.093c2.335.138 2.117 3.941-.226 3.803-2.335-.14-2.113-3.94.226-3.803" style="fill:#fff;fill-opacity:1;fill-rule:nonzero;stroke:none;stroke-width:.0352778" transform="translate(60.07 39.302)scale(.50473)"/><path d="M43.025 62.453c-.59 0-.921.314-1.101.582-.332.505-.374 1.235-.106 1.778.155.307.476.681 1.125.716.657.04 1.016-.292 1.203-.578.332-.505.378-1.235.106-1.775-.155-.306-.473-.68-1.125-.72q-.053-.004-.102-.003m.024 3.81-.148-.003c-.78-.046-1.393-.445-1.732-1.122a2.58 2.58 0 0 1 .148-2.501c.413-.632 1.076-.95 1.852-.907.78.046 1.394.441 1.732 1.118a2.58 2.58 0 0 1-.144 2.505c-.392.59-.995.91-1.708.91" style="fill:#7c9b8d;fill-opacity:1;fill-rule:nonzero;stroke:none;stroke-width:.0352778" transform="translate(60.07 39.302)scale(.50473)"/><path d="M55.964 105.89c2.336.138 2.114 3.941-.225 3.804-2.336-.138-2.117-3.94.225-3.803" style="fill:#fff;fill-opacity:1;fill-rule:nonzero;stroke:none;stroke-width:.0352778" transform="translate(60.07 39.302)scale(.50473)"/><path d="M55.841 106.25c-.893 0-1.337.72-1.38 1.458-.045.765.34 1.566 1.299 1.622.97.064 1.436-.691 1.481-1.453.043-.766-.338-1.566-1.301-1.623zm.021 3.81c-.05 0-.095 0-.144-.003-1.39-.081-2.05-1.267-1.983-2.392.063-1.126.86-2.216 2.25-2.138 1.39.081 2.05 1.266 1.983 2.392-.063 1.083-.808 2.141-2.106 2.141" style="fill:#7c9b8d;fill-opacity:1;fill-rule:nonzero;stroke:none;stroke-width:.0352778" transform="translate(60.07 39.302)scale(.50473)"/><path d="M47.141 82.95c2.336.137 2.114 3.94-.225 3.803-2.336-.138-2.117-3.94.225-3.803" style="fill:#fff;fill-opacity:1;fill-rule:nonzero;stroke:none;stroke-width:.0352778" transform="translate(60.07 39.302)scale(.50473)"/><path d="M47.018 83.313c-.893 0-1.337.72-1.38 1.453-.045.77.34 1.567 1.299 1.623.96.06 1.436-.688 1.482-1.453.045-.766-.34-1.567-1.299-1.623zm.021 3.806q-.07 0-.144-.003c-1.39-.081-2.05-1.266-1.983-2.392s.86-2.212 2.25-2.138c1.39.085 2.05 1.267 1.983 2.392-.063 1.087-.804 2.142-2.106 2.142" style="fill:#7c9b8d;fill-opacity:1;fill-rule:nonzero;stroke:none;stroke-width:.0352778" transform="translate(60.07 39.302)scale(.50473)"/><path d="M70.39 137.256c2.338.138 2.116 3.94-.223 3.803-2.335-.137-2.116-3.94.223-3.803" style="fill:#fff;fill-opacity:1;fill-rule:nonzero;stroke:none;stroke-width:.0352778" transform="translate(60.07 39.302)scale(.50473)"/><path d="M70.266 137.616c-.586 0-.92.314-1.097.582a1.85 1.85 0 0 0-.106 1.778c.152.307.473.681 1.125.72.96.053 1.436-.692 1.482-1.457.042-.766-.339-1.563-1.302-1.62q-.051-.004-.102-.003m.025 3.81q-.073.001-.145-.004c-.78-.046-1.397-.444-1.736-1.122a2.58 2.58 0 0 1 .149-2.5c.416-.632 1.08-.95 1.855-.908 1.39.082 2.05 1.263 1.983 2.389-.064 1.086-.808 2.145-2.106 2.145" style="fill:#7c9b8d;fill-opacity:1;fill-rule:nonzero;stroke:none;stroke-width:.0352778" transform="translate(60.07 39.302)scale(.50473)"/><path d="M63.532 77.108c2.335.137 2.113 3.94-.226 3.8-2.336-.139-2.113-3.941.226-3.8" style="fill:#fff;fill-opacity:1;fill-rule:nonzero;stroke:none;stroke-width:.0352778" transform="translate(60.07 39.302)scale(.50473)"/><path d="M63.408 77.467c-.59 0-.92.31-1.1.583-.332.504-.375 1.234-.106 1.778.155.306.476.677 1.125.716.96.056 1.436-.688 1.482-1.454.045-.765-.34-1.563-1.299-1.619q-.053-.004-.102-.003m.021 3.81-.144-.003c-.78-.05-1.394-.445-1.733-1.122a2.58 2.58 0 0 1 .149-2.505c.412-.628 1.076-.949 1.852-.906 1.39.084 2.05 1.266 1.982 2.392-.063 1.086-.804 2.145-2.106 2.145" style="fill:#7c9b8d;fill-opacity:1;fill-rule:nonzero;stroke:none;stroke-width:.0352778" transform="translate(60.07 39.302)scale(.50473)"/><path d="M95.289 70.32c2.335.138 2.113 3.94-.226 3.803-2.336-.137-2.117-3.94.226-3.803" style="fill:#fff;fill-opacity:1;fill-rule:nonzero;stroke:none;stroke-width:.0352778" transform="translate(60.07 39.302)scale(.50473)"/><path d="M95.162 70.68a1.26 1.26 0 0 0-1.098.582 1.85 1.85 0 0 0-.105 1.778c.155.307.472.681 1.125.72.656.035 1.012-.297 1.203-.582a1.86 1.86 0 0 0 .102-1.775c-.151-.307-.472-.68-1.122-.72q-.052-.004-.105-.003m.024 3.81c-.05 0-.095 0-.144-.003-.78-.046-1.397-.445-1.736-1.122a2.58 2.58 0 0 1 .148-2.501c.416-.632 1.08-.95 1.856-.907.78.046 1.393.444 1.732 1.118a2.59 2.59 0 0 1-.148 2.505c-.388.589-.992.91-1.708.91" style="fill:#7c9b8d;fill-opacity:1;fill-rule:nonzero;stroke:none;stroke-width:.0352778" transform="translate(60.07 39.302)scale(.50473)"/><path d="M75.935 99.121c2.336.138 2.113 3.94-.226 3.803-2.335-.138-2.113-3.94.226-3.803" style="fill:#fff;fill-opacity:1;fill-rule:nonzero;stroke:none;stroke-width:.0352778" transform="translate(60.07 39.302)scale(.50473)"/><path d="M75.812 99.48c-.59 0-.921.315-1.1.586a1.86 1.86 0 0 0-.103 1.775c.151.307.472.68 1.122.72.656.042 1.016-.297 1.203-.583.331-.504.377-1.234.105-1.774-.155-.307-.472-.68-1.125-.72l-.102-.003m.02 3.81q-.068 0-.144-.003c-.78-.046-1.393-.445-1.732-1.118a2.59 2.59 0 0 1 .148-2.505c.417-.632 1.08-.95 1.852-.907.78.046 1.394.445 1.733 1.118.388.777.331 1.782-.145 2.505-.392.593-.995.91-1.711.91" style="fill:#7c9b8d;fill-opacity:1;fill-rule:nonzero;stroke:none;stroke-width:.0352778" transform="translate(60.07 39.302)scale(.50473)"/><path d="M41.303 71.964c1.168.07 1.058 1.972-.11 1.902-1.17-.067-1.058-1.969.11-1.902" style="fill:#fff;fill-opacity:1;fill-rule:nonzero;stroke:none;stroke-width:.0352778" transform="translate(60.07 39.302)scale(.50473)"/><path d="M41.243 72.328a.45.45 0 0 0-.399.208.76.76 0 0 0-.042.709.46.46 0 0 0 .413.257.45.45 0 0 0 .437-.208.75.75 0 0 0 .043-.705c-.082-.163-.22-.247-.413-.261zm.01 1.905-.084-.004a1.17 1.17 0 0 1-1.016-.66 1.47 1.47 0 0 1 .085-1.432c.24-.367.638-.557 1.086-.536.452.028.822.268 1.02.66.222.444.19 1.019-.085 1.435-.226.343-.59.537-1.005.537" style="fill:#7c9b8d;fill-opacity:1;fill-rule:nonzero;stroke:none;stroke-width:.0352778" transform="translate(60.07 39.302)scale(.50473)"/><path d="M46.231 93.85c1.168.068 1.059 1.969-.113 1.898-1.167-.067-1.058-1.968.113-1.898" style="fill:#fff;fill-opacity:1;fill-rule:nonzero;stroke:none;stroke-width:.0352778" transform="translate(60.07 39.302)scale(.50473)"/><path d="M46.171 94.21a.45.45 0 0 0-.398.212.75.75 0 0 0-.043.706.46.46 0 0 0 .41.257c.497.046.543-.494.546-.554s.022-.589-.476-.617zm.01 1.905h-.084a1.19 1.19 0 0 1-1.02-.66 1.49 1.49 0 0 1 .085-1.435 1.19 1.19 0 0 1 1.09-.536c.815.049 1.203.737 1.165 1.39-.04.627-.473 1.241-1.235 1.241" style="fill:#7c9b8d;fill-opacity:1;fill-rule:nonzero;stroke:none;stroke-width:.0352778" transform="translate(60.07 39.302)scale(.50473)"/><path d="M49.957 71.827c1.167.07 1.058 1.972-.113 1.901-1.168-.067-1.059-1.968.113-1.901" style="fill:#fff;fill-opacity:1;fill-rule:nonzero;stroke:none;stroke-width:.0352778" transform="translate(60.07 39.302)scale(.50473)"/><path d="M49.897 72.19a.45.45 0 0 0-.403.212.76.76 0 0 0-.038.705.46.46 0 0 0 .409.258.44.44 0 0 0 .437-.208.75.75 0 0 0 .043-.706.45.45 0 0 0-.41-.258zm.007 1.905-.081-.004a1.18 1.18 0 0 1-1.02-.66A1.48 1.48 0 0 1 48.888 72a1.19 1.19 0 0 1 1.09-.536c.451.028.822.268 1.02.66a1.49 1.49 0 0 1-.085 1.436 1.19 1.19 0 0 1-1.01.536" style="fill:#7c9b8d;fill-opacity:1;fill-rule:nonzero;stroke:none;stroke-width:.0352778" transform="translate(60.07 39.302)scale(.50473)"/><path d="M66.498 91.515c2.932.176 2.657 4.95-.282 4.777-2.931-.177-2.656-4.95.282-4.777" style="fill:#fff;fill-opacity:1;fill-rule:nonzero;stroke:none;stroke-width:.0352778" transform="translate(60.07 39.302)scale(.50473)"/><path d="M66.343 91.875a1.67 1.67 0 0 0-1.46.776c-.434.66-.49 1.616-.134 2.321.2.41.628.903 1.488.953.861.05 1.344-.388 1.591-.77.438-.659.494-1.615.138-2.32-.205-.41-.628-.904-1.489-.953q-.07-.007-.134-.007m.028 4.784c-.06 0-.116 0-.176-.004-.945-.056-1.69-.536-2.099-1.355-.473-.945-.402-2.17.18-3.051.5-.762 1.305-1.154 2.244-1.097.945.056 1.69.54 2.099 1.354.472.946.398 2.17-.18 3.052-.473.713-1.2 1.1-2.068 1.1" style="fill:#7c9b8d;fill-opacity:1;fill-rule:nonzero;stroke:none;stroke-width:.0352778" transform="translate(60.07 39.302)scale(.50473)"/><path d="M75.78 79.429c3.743.222 3.387 6.315-.36 6.092-3.743-.222-3.387-6.31.36-6.092" style="fill:#fff;fill-opacity:1;fill-rule:nonzero;stroke:none;stroke-width:.0352778" transform="translate(60.07 39.302)scale(.50473)"/><path d="M75.586 79.789c-1.566 0-2.357 1.294-2.43 2.54-.078 1.29.606 2.73 2.285 2.829 1.68.095 2.526-1.245 2.604-2.536.077-1.292-.607-2.727-2.286-2.83zm.028 6.103q-.104-.001-.215-.007c-2.085-.124-3.073-1.905-2.97-3.599.098-1.693 1.308-3.34 3.372-3.22 2.085.123 3.073 1.905 2.97 3.598-.095 1.633-1.206 3.228-3.157 3.228" style="fill:#7c9b8d;fill-opacity:1;fill-rule:nonzero;stroke:none;stroke-width:.0352778" transform="translate(60.07 39.302)scale(.50473)"/><path d="M81.036 134.028c2.544.149 2.304 4.287-.243 4.135-2.544-.148-2.3-4.286.243-4.135" style="fill:#fff;fill-opacity:1;fill-rule:nonzero;stroke:none;stroke-width:.0352778" transform="translate(60.07 39.302)scale(.50473)"/><path d="M80.902 134.388c-.652 0-1.026.346-1.224.65a2.06 2.06 0 0 0-.116 1.964c.173.339.529.755 1.252.798.727.045 1.125-.329 1.337-.646a2.06 2.06 0 0 0 .117-1.965c-.173-.339-.53-.755-1.253-.797q-.059-.005-.113-.004m.025 4.145c-.053 0-.102-.004-.155-.007-.836-.05-1.496-.476-1.86-1.2-.42-.832-.352-1.915.16-2.69.444-.678 1.15-1.02 1.986-.974.836.049 1.495.476 1.859 1.202.42.833.356 1.913-.16 2.692-.415.632-1.06.977-1.83.977" style="fill:#7c9b8d;fill-opacity:1;fill-rule:nonzero;stroke:none;stroke-width:.0352778" transform="translate(60.07 39.302)scale(.50473)"/><path d="M46.545 101.774c1.168.07 1.059 1.968-.113 1.901-1.167-.07-1.058-1.972.113-1.901" style="fill:#fff;fill-opacity:1;fill-rule:nonzero;stroke:none;stroke-width:.0352778" transform="translate(60.07 39.302)scale(.50473)"/><path d="M46.485 102.137a.46.46 0 0 0-.402.208.76.76 0 0 0-.039.706c.078.162.219.25.41.261.493.032.543-.497.546-.557s.022-.59-.476-.618zm.01 1.905-.084-.004a1.19 1.19 0 0 1-1.02-.66 1.49 1.49 0 0 1 .085-1.435c.24-.364.639-.558 1.09-.533.815.05 1.2.734 1.161 1.386-.035.632-.47 1.246-1.231 1.246" style="fill:#7c9b8d;fill-opacity:1;fill-rule:nonzero;stroke:none;stroke-width:.0352778" transform="translate(60.07 39.302)scale(.50473)"/><path d="M104.965 100.55c1.168.067 1.055 1.968-.113 1.901-1.167-.07-1.058-1.972.113-1.901" style="fill:#fff;fill-opacity:1;fill-rule:nonzero;stroke:none;stroke-width:.0352778" transform="translate(60.07 39.302)scale(.50473)"/><path d="M104.902 100.91c-.459 0-.505.5-.508.557-.004.06-.021.59.48.617a.44.44 0 0 0 .437-.208.75.75 0 0 0 .042-.705.46.46 0 0 0-.409-.258zm.01 1.905h-.08c-.816-.05-1.204-.738-1.165-1.39.039-.653.505-1.295 1.32-1.239.448.025.821.265 1.019.66.219.441.187 1.02-.085 1.432a1.18 1.18 0 0 1-1.009.537" style="fill:#7c9b8d;fill-opacity:1;fill-rule:nonzero;stroke:none;stroke-width:.0352778" transform="translate(60.07 39.302)scale(.50473)"/><path d="M81.188-14.886a65 65 0 0 1-2.49-.046c-15.999-.586-34.326-4.103-37.794-12.213-1.347-3.143-.409-6.562 2.78-10.157a1.305 1.305 0 0 1 1.954 1.732c-2.462 2.777-3.248 5.264-2.335 7.398 2.424 5.67 16.687 9.941 35.49 10.633 10.124.367 20.32-1.62 31.171-6.078a1.306 1.306 0 1 1 .991 2.416c-10.315 4.24-20.08 6.315-29.767 6.315" style="fill:#211d1d;fill-opacity:1;fill-rule:nonzero;stroke:none;stroke-width:.0352778" transform="translate(60.07 39.302)scale(.50473)"/></svg>