<svg xmlns="http://www.w3.org/2000/svg" xml:space="preserve" width="200mm" height="200mm" viewBox="0 0 200 200"><g style="display:inline"><path d="M27420.8 36449.8c-94.4 0-185.7 13.5-273.8 22.1-95.4 9.4-187.6 14.8-272.7 33-96.3 20.7-187 42.9-265.8 73.2-97.2 37.5-174.4 91.7-237.2 140.7-88.1 69-138.8 144.7-138.8 228.2s51.7 158 139.8 226.9c62.8 49.1 140.2 101.5 237.4 139 78.7 30.4 167.7 58.6 264 79.3 85.1 18.2 177.2 27.5 272.6 36.9 37.7 3.7 76 6.7 115 8.9-.3-11.1-1-22.2-2.3-33.1-15.3-127.7-77.3-253.1-114.4-328-19.9-40.3-28-57.1-29-69.3-1-12 4.3-24.5 15.8-37.1 38.9-42.8 146.8-86.9 300.2-89 2.3-.1 4.5-.1 6.8-.1 142.2 0 228.6 60.1 267.6 96.3 19.2 17.6 20.7 47.3 3.4 67.7-40.3 47-75.8 140.9-102.5 271.4-7.8 39-13.4 78.9-16.5 119.2 35.4-2.5 70.3-5.6 104.6-9 95.5-9.3 185.9-26.4 270.5-46.5 184-43.5 70.2-14.3 263.3-76.3 99.1-31.8 178.6-80.1 241.4-129.1 88.1-69 136.4-144.6 136.4-228.1s-46.7-161.2-134.8-230.2c-62.8-49-145.2-91.2-242.4-128.7-78.8-30.4-166.2-60.4-262.6-81-85-18.3-175.8-35.8-271.2-45.1-88.1-8.7-180.4-12.2-274.8-12.2" style="fill:#fcfefe;fill-opacity:1;fill-rule:nonzero;stroke:none" transform="matrix(.0258 0 0 -.0258 -608.186 1131.44)"/><path d="M27420.8 37422.5c-89.8 0-181.5-4.5-272.5-13.4-86.2-8.5-184-18.1-270.4-36.6s-174.2-44.9-261-78.4c-103-39.7-181.8-96.6-232.2-136-88.9-69.6-132.1-138.6-132.1-211.1 0-72.8 44.1-144.3 131.1-212.3 56.7-44.4 134.3-100.1 232.1-137.8 82-31.6 178.8-54.3 262.8-72.3 65.6-14.1 135.4-20.4 209.4-27 20.1-1.8 40.5-3.6 61-5.6 21.8-2.2 43.7-4.6 65.9-7 66.8-7.4 135.9-15.1 205.9-15.1 100.8 0 190 4 272.8 12.1 98.2 9.6 191.1 28 269 44.7 80.6 17.3 160.7 42 259.5 80.2 101.4 39.1 179 80.2 237.3 125.8 84.3 65.9 127.1 138 127.1 214.3 0 75.1-42.1 144.5-128.7 212.2-72.6 56.7-151.7 99.1-235.2 125.9-65.3 20.9-95.9 31.6-114.2 38-28.3 9.8-28.3 9.8-89.2 24.1-15.3 3.6-34.2 8.1-58.3 13.8-96.2 22.7-183.8 37.8-267.8 46-73.6 7.2-171.1 15.5-272.3 15.5m0-992.8c-72.3 0-142.5 7.8-210.4 15.3-21.9 2.4-43.7 4.8-65.3 6.9-20.4 2-40.7 3.8-60.7 5.6-75.2 6.8-146.3 13.1-214.3 27.7-85.4 18.4-184.2 41.5-268.8 74.2-102.7 39.6-183.5 97.5-242.3 143.6-97.3 76.1-146.6 158.2-146.6 244 0 85.7 48.2 165.1 147.5 242.8 52.4 40.9 134.5 100.2 242.5 141.9 88.8 34.2 178.6 61.1 267.1 80.1 88.6 19.1 187.6 28.7 274.9 37.3 92.3 9 185.3 13.6 276.4 13.6 102.9 0 201.7-8.3 276.2-15.6 85.9-8.5 175.2-23.8 273.2-47 24-5.7 42.9-10.1 58.1-13.7 61.9-14.5 63-14.8 93.3-25.3 18.1-6.3 48.5-16.9 113.3-37.7 88-28.3 171.4-72.8 247.7-132.5 95.6-74.8 144.1-156.9 144.1-243.9 0-89.3-48-172.1-142.5-246-61.5-48.1-142.4-91.1-247.6-131.7-100.9-38.9-182.8-64.2-265.6-81.9-79-17-173.3-35.7-273.5-45.5-84-8.2-174.6-12.2-276.7-12.2" style="fill:#211d1d;fill-opacity:1;fill-rule:nonzero;stroke:none" transform="matrix(.0258 0 0 -.0258 -608.186 1131.44)"/><path d="M27712.5 39240.9c-102.4-146-150.5-309.6-149.5-474.7l4.3-1257.2c.4-65.8 6.9-131.6 19.9-196.2 19.1-93.1 52.9-217.4 106.9-280.5 10-11.8 9.7-29.4-1.7-39.8-35.8-33.2-120.1-92.8-260.6-90.9-194 2.7-298.7 73.1-296.2 104.4 2.5 29.7 121.1 210.6 143.4 396.5 1.8 15.8 2.6 31.5 2.5 47.4l-7.9 1328.3c-1 158.8-54.5 313.8-143.2 430.9l-162.5 243.5c107.7-122.2 271.6-193.3 434.8-193.3h6.9c175.8 1.9 382.3 102.9 491.5 245.6z" style="fill:#e6f6f4;fill-opacity:1;fill-rule:nonzero;stroke:none" transform="matrix(.0258 0 0 -.0258 -608.186 1131.44)"/><path d="M27155.8 37004.9c6.5-20.1 98.2-80.7 276.3-83.2 132.1-1.6 211.3 52.8 246.7 85.5 3.2 3.1 3.2 8.3 0 12.1-45.4 52.9-82.8 150.3-111.3 289.5-13.1 65-20 132.4-20.3 200.1l-4.3 1257.2c-1.1 173.7 51.9 341.9 153.1 486.3l.1.1 77.1 108c-108.9-73.2-242.8-120-363.4-121.3h-7.1c-119.6 0-237.8 36.5-335.8 101.2l79.9-119.7c92.4-122.2 145.9-283.4 146.9-442.4l7.9-1328.3c.2-16.6-.7-33.4-2.7-49.8-16.1-134.6-80-263.9-118.2-341.1-11.3-22.9-23-46.5-24.9-54.2m282.6-123.5c-2.3 0-4.5 0-6.8.1-153.4 2.1-261.3 46.2-300.2 89-11.5 12.6-16.8 25.1-15.8 37.1 1 12.2 9.1 29 29 69.3 37.1 74.9 99.1 200.3 114.4 328 1.7 14.7 2.5 29.8 2.4 44.8l-7.9 1328.3c-.9 150.7-51.7 303.4-139.1 418.9l-.7 1-162.6 243.6 31.8 24.4c103-116.8 259.9-186.5 419.8-186.5h6.9c171.4 1.9 371.5 101.8 475.5 237.7l32.4-23.9-188.6-264c-96.4-137.5-146.8-297.6-145.8-462.9l4.3-1257.2c.4-65.1 6.9-129.8 19.5-192.3 26.7-130.5 62.2-224.4 102.5-271.4 17.3-20.4 15.8-50.1-3.4-67.7-39-36.2-125.4-96.3-267.6-96.3" style="fill:#211d1d;fill-opacity:1;fill-rule:nonzero;stroke:none" transform="matrix(.0258 0 0 -.0258 -608.186 1131.44)"/><path d="M26008.8 40865c1.9 532.2 1114.6 661 1448.3 659.7 356.8-1.5 1397.9-135.5 1397.9-661l18.1-41.8-253-320s-712.9-271-1200.1-229.7c-487.1 41.2-1118.5 168.8-1206.3 278.7-87.8 110-204.9 314.1-204.9 314.1" style="fill:#fcf7e8;fill-opacity:1;fill-rule:nonzero;stroke:none" transform="matrix(.0258 0 0 -.0258 -608.186 1131.44)"/><path d="M26029 40870.3c18-31.1 121.9-208.5 200.4-306.8 82.2-102.9 708.5-230.3 1192.3-271.3 455.7-38.6 1120.9 202.4 1186.1 226.5l242.1 306.2-15 34.7v4.1c0 271.2-299.8 425.9-551.3 507.9-317.9 103.6-669.1 132.3-826.5 133-144.7.9-507.2-25.6-842.7-128.9-264.8-81.5-580.4-235.2-585.4-505.4m1495.9-622.5c-36.5 0-72.1 1.4-106.6 4.3-434.7 36.8-1119.4 159.9-1220.3 286.3-87.8 109.9-201.8 308.3-206.6 316.6l-2.7 4.7v5.4c.8 235.8 213.1 425.7 613.9 549.1 336.3 103.5 699.6 130.6 849.7 130.6h4.9c159.8-.7 516.3-29.9 838.9-135 376.5-122.7 576.6-310 579-541.8l21.2-49.2-263.8-333.8-5.2-1.9c-6.7-2.6-624.9-235.3-1102.4-235.3" style="fill:#211d1d;fill-opacity:1;fill-rule:nonzero;stroke:none" transform="matrix(.0258 0 0 -.0258 -608.186 1131.44)"/><path d="m28643 40518.6-742.5-1012.4c-105.9-142-306.3-241.4-490.9-243.3h-6.9c-193.5 0-374.3 92.2-479.8 245l-719.9 1055.6 3.7 1.9c363.9-221.8 1028.6-290.4 1274-293.2 246.4-2.9 813.9 70.5 1161.3 249.4z" style="fill:#f4eab2;fill-opacity:1;fill-rule:nonzero;stroke:none" transform="matrix(.0258 0 0 -.0258 -608.186 1131.44)"/><path d="m26263.5 40510.5 676-991.2c102.1-147.9 275.3-236.3 463.2-236.3h6.9c177.5 1.8 372.9 98.6 474.8 235.2l698.8 953c-345.3-153.9-850.9-222.3-1102.8-219.1-199.2 2.2-824.3 55.5-1216.9 258.4m1139.2-1267.7c-201.1 0-386.7 94.8-496.4 253.7l-732.8 1074.5 34 17.4 9.6-5.8c376.5-229.4 1055.6-287.9 1263.8-290.3 229.4-2.6 802.3 67.1 1151.9 247.1l20.8 10.8 11.7-35.1-748.6-1020.8c-109-146.2-317.4-249.6-506.9-251.5zM28855 40843.6c-11.1 0-20.1 9-20.1 20.1 0 271.2-299.8 425.9-551.3 507.9-317.8 103.6-669.1 132.3-826.5 133-159.6.6-515.1-23.4-836.6-117.7-263.6-77.2-578.1-226.6-579-499.3-.1-11.1-9.1-20.1-20.2-20.1s-20.1 9.1-20.1 20.2c.9 235.5 211.1 421.5 607.9 537.8 326.1 95.6 686.8 120.1 848.1 119.3 159.8-.7 516.3-29.9 838.9-135 378.8-123.5 579-312.3 579-546.1 0-11.1-9-20.1-20.1-20.1" style="fill:#211d1d;fill-opacity:1;fill-rule:nonzero;stroke:none" transform="matrix(.0258 0 0 -.0258 -608.186 1131.44)"/><path d="M27402.7 39242.8c-201.1 0-386.7 94.8-496.4 253.7l-719.9 1055.7-258.3 376.1c-6.3 9.1-4 21.6 5.2 27.9s21.7 4 28-5.2l258.3-376.1 719.9-1055.6c102.1-147.9 275.3-236.3 463.2-236.3h6.9c177.5 1.8 372.9 98.6 474.8 235.2l742.3 1012.3 263.5 365.9c6.5 9 19.1 11.1 28.1 4.6s11.1-19.1 4.6-28.1l-263.6-366.1-742.6-1012.5c-109-146.2-317.4-249.6-506.9-251.5z" style="fill:#211d1d;fill-opacity:1;fill-rule:nonzero;stroke:none" transform="matrix(.0258 0 0 -.0258 -608.186 1131.44)"/><path d="M28231.2 40800s56.3-263.4-72-372.3c-128.3-109-369.5-104.3-455.9-86.6-86.5 17.7-274.2 111.3-332.9 235.4 0 0-144.9-54.9-97.6-235 65.7-250 440.1-370.9 745.7-192.2s353.3 388.5 353.3 388.5z" style="fill:#fff;fill-opacity:1;fill-rule:nonzero;stroke:none" transform="matrix(.0258 0 0 -.0258 -608.186 1131.44)"/><path d="M27361.8 40549.8c-33-19.3-102.8-76.6-69.5-203.2 25.3-96.5 103-177.9 213.1-223.5 157.2-65 345.2-48.7 502.9 43.5 262.8 153.7 330.4 332 342 368.9l-87.1 162.2c3.7-90.1-8.5-215.3-91-285.4-133.2-113.1-380.5-109.8-473-90.9-87.2 17.8-267.7 108-337.4 228.4m345.8-506.2c-75 0-149 14-217.5 42.4-121.9 50.4-208.2 141.7-236.7 250.4-51.4 195.3 108.3 258.3 109.9 258.9l17.4 6.6 7.9-16.8c54.7-115.7 236.5-207.5 318.7-224.3 96.2-19.6 323.6-15.7 438.9 82.2 117.8 100 65.8 350.3 65.3 352.8l-29.7 138.7 211.3-393.8-1.6-7.3c-2.1-9-53.3-220.5-362.9-401.5-100-58.5-211.6-88.3-321-88.3" style="fill:#211d1d;fill-opacity:1;fill-rule:nonzero;stroke:none" transform="matrix(.0258 0 0 -.0258 -608.186 1131.44)"/><path d="M27941.4 40136.6c193 83.5 340.1 301.4 340.1 301.4l-8.5-156.4s-233.1-208.9-342.8-266.4c-6.5-3.4-14.4-6.2-23.3-8.8 4.6 35.2 24.2 125.7 34.5 130.2" style="fill:#e7e2b9;fill-opacity:1;fill-rule:nonzero;stroke:none" transform="matrix(.0258 0 0 -.0258 -608.186 1131.44)"/><path d="M27941.4 40136.6h.1zm8-18.4v-.1zm4.7 2c-5.5-11.9-14.7-48.3-21.1-80.5 100 57.6 284.3 219.3 320.4 251.3l4.5 81.9c-56.7-70.6-168.1-192.4-303.8-252.7m-71-141.6 3.9 30.4c.2 1.3 18 133.8 46.4 146.1 185.5 80.2 330 292 331.5 294.2l40.7 60.2-12.9-237.4-6.2-5.5c-9.6-8.6-236.3-211.2-346.9-269.2-7.3-3.7-16.1-7.1-27.1-10.3z" style="fill:#211d1d;fill-opacity:1;fill-rule:nonzero;stroke:none" transform="matrix(.0258 0 0 -.0258 -608.186 1131.44)"/><path d="M27542.7 40934.2c1.1-6.3 7.8-9.9 13.6-7.2 69.5 33.4 440.1 191.4 617.3-132.1 196.1-358 2.9-630.3-219.8-755.3l-49.9-40.5 46.4 7.4s174.1-6.4 323.8 138.2c149.7 144.5 232.4 287.3 191.7 549-31.5 201.8-184.4 518.5-527.8 614.6-212.9 59.6-500.2-129-500.2-129 74.9-85.4 87.1-138.8 104.9-245.1" style="fill:#e6da3f;fill-opacity:1;fill-rule:nonzero;stroke:none" transform="matrix(.0258 0 0 -.0258 -608.186 1131.44)"/><path d="M27838.8 41015.4c125.4 0 262.3-46.3 352.5-210.9 199.7-364.5 9.3-644.7-218.2-777 50.1 3.9 176.2 24.6 287.1 131.6 144 139.1 225.4 276.6 185.7 531.5-27.5 176.6-166.5 501.3-513.3 598.3-170.6 47.8-397.3-74.7-464.3-114.5 62.3-76.5 76.5-133 92-223.4 48.1 21.8 158 64.4 278.5 64.4m-5.9-1048 111 89.7c215.6 121 400.5 384.2 212.1 728.1-168.1 306.9-521.9 156.9-591.1 123.7-8.4-4.1-18-3.9-26.3.4s-14.2 12.4-15.7 21.6c-17.4 103.7-28.2 153-100.2 235.1l-15.3 17.4 19.4 12.7c12 7.9 297.5 193 516.6 131.6 366.5-102.6 513.3-444.8 542.2-630.9 42.4-272.1-44.1-418.6-197.5-566.6-147-141.9-314.7-144.2-336.5-143.8z" style="fill:#211d1d;fill-opacity:1;fill-rule:nonzero;stroke:none" transform="matrix(.0258 0 0 -.0258 -608.186 1131.44)"/><path d="m27935.8 40006.4 2.8 389.6-216.8 236.2-493.3 57.7-92.2-297.5 86.8-180.5 95.5-92.2s78.9-52.6 176.2-74.4c97.3-21.7 212.9-12.6 222.4-19.9 18.9-14.6 86.2 84.5 86.2 84.5s-244.9 3-344.1 37.1-191.1 124.9-167.1 287.3c18.2 122.7 154.1 113.9 217.6 98.4 98.4-24.1 163.6-64.7 234.8-168.1 93.5-135.6 94.5-205.7 68.1-284.7-26.8-79.9-143-202.3-286.5-237.1-8.7-2.1-12.3-13-5.8-19.1 23-21.4 128-17.3 128-17.3l157.3 69.3z" style="fill:#e7e2b9;fill-opacity:1;fill-rule:nonzero;stroke:none" transform="matrix(.0258 0 0 -.0258 -608.186 1131.44)"/><path d="M27437.7 40521.4c-31.3 0-62.4-5.9-85.6-21.5-22.3-15-35.4-37.4-40-68.6-27.7-187.6 110.7-250.5 153.7-265.2 95.1-32.7 335.4-36.1 337.9-36.1h1c9.6 59.2-6.2 121.1-76.6 223.2-64.6 93.7-123 135.5-223 159.9-20.4 5-43.9 8.3-67.4 8.3m120.3-690.5c21.4-3.7 53.7-5.6 85.9-4.5l150.2 66.2 121.6 122.2 2.7 373.4-206.3 224.9-469.3 54.9-85-274 81.9-170.2 91.5-88.3c10.9-6.9 82.7-51.4 168-70.5 58.7-13.2 125.3-14.7 169.4-15.7 31.6-.7 45.3-1.1 53.7-4.1 8.6 5.5 25.1 23.4 42.3 45.5-73.8 2.4-233.9 10.5-311.8 37.3-50.5 17.4-212.8 90.9-180.5 309.2 6.3 42.4 25.6 74.7 57.3 96.1 64.8 43.6 158 25.5 185 18.9 109.6-26.7 176.5-74.5 246.6-176.2 96.8-140.3 99.1-217.1 70.5-302.5-25.4-76.1-132.8-197.4-273.7-242.6m66.9-45c-37.4 0-97 3.3-118.3 23.1-8.2 7.7-11.5 19.3-8.6 30.3 3 11.4 12 20.2 23.4 23 101.8 24.7 188.5 96.3 236.5 160.5-11.1-10-21.9-17.1-31.3-18.5-6.5-1.1-12.9 0-18.4 3-6.2 1-24.4 1.4-40.6 1.8-45.6 1.1-114.6 2.6-177.2 16.6-99.8 22.3-179.6 75.1-182.9 77.3l-2.8 2.2-98.1 94.7-91.9 190.9 99.6 321.1 517.3-60.6 227.1-247.6-2.9-405.6-138.6-139.3-164.2-72.3-3.8-.2c-5.7-.2-14.2-.4-24.3-.4" style="fill:#211d1d;fill-opacity:1;fill-rule:nonzero;stroke:none" transform="matrix(.0258 0 0 -.0258 -608.186 1131.44)"/><path d="M27785.5 39991.9c44.1 59 42.1 157 40.2 187.6-.2 3-4.1 3.8-5.6 1.2-53-89.7-93.1-174.6-311.5-190.7-1.9-.2-3.2-2-2.6-3.9 14.1-43.2 12.8-90.3 8.1-140.8-.2-2 1.7-3.7 3.7-3.2 105.4 27 232.1 102.2 267.7 149.8" style="fill:#fff;fill-opacity:1;fill-rule:nonzero;stroke:none" transform="matrix(.0258 0 0 -.0258 -608.186 1131.44)"/><path d="M27525.1 39992.4h.1zm5.7-20.7c7.5-33.8 7.6-69.1 5.4-103.5 97.2 30.5 203.5 96 233.1 135.7 23.3 31.1 32.3 75.4 35.5 112.5-44.8-69-105.9-128.2-274-144.7m-17.9-110.1h-.1zm4.2-39.7c-5.4 0-10.7 1.9-14.9 5.5-5.8 4.8-8.8 12.2-8.1 19.7 4.8 51.8 5.4 94.2-7.2 132.8-2.2 6.7-1.2 14 2.7 19.9 4 6 10.4 9.7 17.5 10.2 198.3 14.6 240.2 86.3 288.8 169.2l6.9 11.8c5.2 8.8 15.4 13.1 25.4 10.7 9.9-2.4 17-10.8 17.6-21 2.4-39.4 2.8-137.9-44.2-200.9-41.5-55.5-174.4-130.4-278.8-157.2-1.8-.5-3.8-.7-5.7-.7" style="fill:#211d1d;fill-opacity:1;fill-rule:nonzero;stroke:none" transform="matrix(.0258 0 0 -.0258 -608.186 1131.44)"/><path d="M27990.9 40494.3c-79.8 269.7-320.4 322.9-482 348.8-120.2 19.2-190.5-10.9-284.6-121-60.7-71.1-86.3-162.9-98.5-225.5-10.9-55.7-22.8-130.1 37.5-245.4 60.4-115.2 215.4-170.1 215.4-170.1-53 53.9-123 72.7-160.9 177.7-28.4 78.6-29.3 173 13.4 264.7 82.7 177.9 373.3 134.2 520.7-28 134.6-148.1 166.4-391.8 100-518-49.7-94.4-155.7-156.2-281.2-179.2 55-27.4 272.6 78.4 314.4 116.4 126.6 115.1 185.6 309.9 105.8 579.6" style="fill:#e6da3f;fill-opacity:1;fill-rule:nonzero;stroke:none" transform="matrix(.0258 0 0 -.0258 -608.186 1131.44)"/><path d="M27436.2 40658.6c117 0 246.9-57.5 330.6-149.6 144.7-159.1 170.3-412.8 102.9-540.9-14.7-27.9-34.3-53.6-58.2-76.5 27.3 14.5 49.2 28.1 60 37.9 134.9 122.8 170.5 321.3 100.1 559.1-71.1 240.5-275.4 304.1-465.9 334.6-112.2 18-176.9-9.8-266.1-114.1-44.7-52.4-76.3-125.1-94.1-216.4-9.3-47.6-23.3-119.6 35.7-232.1 10-19.2 23-36.7 37.6-52.5-7.3 13-14 27.5-19.9 43.9-32.8 90.6-27.8 190.1 14 280 31.2 67 92.8 110.6 173.6 122.9 16.2 2.5 32.8 3.7 49.7 3.7m158.3-884.6c-12.9 0-24.1 2-32.7 6.3l-54.1 26.9 59.4 10.9c125.3 22.9 222.6 84.4 267 168.7 61.1 116.1 32.6 352.5-97 495.2-87.3 96-228.9 150.7-344.5 133.2-47.4-7.3-110.8-30.5-143.2-100.2-37.3-80.2-41.8-168.8-12.7-249.4 24.4-67.5 62.4-95.8 102.7-125.7 18-13.4 36.6-27.3 53.7-44.6l61.2-62.2-82.3 29.1c-6.6 2.3-163.2 58.9-226.5 179.7-65.5 125-49.2 208.6-39.5 258.5 19.1 98.2 53.8 177.1 103 234.8 99.1 115.9 175.5 148.1 303.1 127.7 133.1-21.3 410.2-65.6 498.1-362.9 75-253.4 35.3-466.5-111.6-600.2-32.9-29.9-212.9-125.8-304.1-125.8" style="fill:#211d1d;fill-opacity:1;fill-rule:nonzero;stroke:none" transform="matrix(.0258 0 0 -.0258 -608.186 1131.44)"/><path d="M28163 40913c23.6 0 23.6 36.7 0 36.7s-23.6-36.7 0-36.7M27943.4 40161c23.6 0 23.7 36.7 0 36.7-23.6 0-23.6-36.7 0-36.7M27864.5 40620.1c23.6 0 23.6 36.7 0 36.7s-23.6-36.7 0-36.7M27853.7 40464c23.6 0 23.7 36.6 0 36.6-23.6 0-23.6-36.6 0-36.6M27566.7 41138.4c23.6 0 23.6 36.6 0 36.6s-23.6-36.6 0-36.6M28259.6 40961.3c23.6 0 23.7 36.7 0 36.7-23.6 0-23.6-36.7 0-36.7M28188.4 41030.1c23.6 0 23.6 36.7 0 36.7s-23.6-36.7 0-36.7M28336.7 40647.8c23.6 0 23.7 36.7 0 36.7-23.6 0-23.6-36.7 0-36.7M28326.4 40353.4c23.6 0 23.6 36.7 0 36.7s-23.6-36.7 0-36.7M28238.7 40218.7c23.6 0 23.7 36.7 0 36.7-23.6 0-23.6-36.7 0-36.7M28044.5 41155.8c23.6 0 23.6 36.7 0 36.7s-23.6-36.7 0-36.7M27964.6 41076.6c23.6 0 23.7 36.7 0 36.7-23.6 0-23.6-36.7 0-36.7M27628.2 40694.6c23.6 0 23.6 36.7 0 36.7s-23.7-36.7 0-36.7M27529.6 40695.8c23.5 0 23.6 36.7 0 36.7s-23.7-36.7 0-36.7M27430.3 40758.4c23.6 0 23.7 36.7 0 36.7-23.6 0-23.6-36.7 0-36.7M27361 40700.7c23.6 0 23.6 36.7 0 36.7s-23.7-36.7 0-36.7M27265 40610.3c23.6 0 23.6 36.7 0 36.7s-23.7-36.7 0-36.7M27784 40583.1c23.6 0 23.6 36.6 0 36.6s-23.7-36.6 0-36.6M27730.9 40652c23.6 0 23.7 36.7 0 36.7-23.6 0-23.6-36.7 0-36.7M27925 40414.4c23.6 0 23.6 36.7 0 36.7s-23.6-36.7 0-36.7M27864.3 40524c23.6 0 23.7 36.6 0 36.6-23.6 0-23.6-36.6 0-36.6M27956.3 40325.3c23.6 0 23.6 36.7 0 36.7s-23.6-36.7 0-36.7M27913.7 41172.9c23.6 0 23.7 36.7 0 36.7-23.6 0-23.6-36.7 0-36.7M27706.8 41227c23.6 0 23.6 36.7 0 36.7s-23.7-36.7 0-36.7M27795.7 41258.3c23.6 0 23.6 36.6 0 36.6s-23.7-36.6 0-36.6M28070.9 41054c23.6 0 23.7 36.7 0 36.7-23.6 0-23.6-36.7 0-36.7M27831.8 41124.1c23.6 0 23.6 36.6 0 36.6s-23.6-36.6 0-36.6M27719.1 41083.7c23.6 0 23.6 36.7 0 36.7s-23.6-36.7 0-36.7M27603.2 41023.3c23.6 0 23.7 36.6 0 36.6-23.6 0-23.6-36.6 0-36.6M27653.4 41142.2c23.7 0 23.7 36.7 0 36.7-23.5 0-23.6-36.7 0-36.7M28390.8 40748.2c23.6 0 23.6 36.7 0 36.7s-23.7-36.7 0-36.7M28284.6 40828.5c23.6 0 23.6 36.6 0 36.6s-23.7-36.6 0-36.6M28401.5 40516.1c23.6 0 23.7 36.7 0 36.7-23.6 0-23.6-36.7 0-36.7" style="fill:#fff;fill-opacity:1;fill-rule:nonzero;stroke:none" transform="matrix(.0258 0 0 -.0258 -608.186 1131.44)"/><path d="M27409.6 39283h-6.9c-187.9 0-361.1 88.4-463.2 236.3l-676 991.2c250.4-129.4 595.5-198 864.3-231.2 5.1-12.1 11-24.5 17.7-37.4 63.3-120.8 219.9-177.4 226.5-179.7l82.3-29.1-3.2 3.1c12.7-3.9 25.8-7.5 39.3-10.5 21.6-4.8 43.9-8.1 65.8-10.5-15.2-2.2-31.5-3.9-49.1-5.2-7.1-.5-13.5-4.2-17.5-10.2-3.9-5.9-4.9-13.2-2.7-19.9 12.6-38.6 12-81 7.2-132.8-.4-4.7.6-9.4 2.9-13.5-.6-9.2 2.8-18.2 9.6-24.6.6-.5 1.3-1.1 2-1.6l-.9-.2 3.2-1.6c4.3-3 9.6-5.5 15.5-7.7l35.4-17.6c8.6-4.3 19.7-6.3 32.6-6.3h.1c91.2 0 271.2 95.9 304.1 125.8 28.7 26.1 53.3 55.2 73.8 87.1 53.7 3.3 192.1 23.9 315.7 143.3 93.9 90.6 162.7 180.6 192.3 299.2 35.5 13.2 69.9 27.1 102.8 41.8l-698.8-953c-100.7-135-292.7-231.1-468.6-235.1-2 0-4.1 0-6.2-.1" style="fill:#f7f0c4;fill-opacity:1;fill-rule:nonzero;stroke:none" transform="matrix(.0258 0 0 -.0258 -608.186 1131.44)"/><path d="m27884.4 39518.2 698.8 953c-32.9-14.7-67.3-28.6-102.8-41.8 1.9 7.8 3.7 15.6 5.2 23.6 42.6 16 83.6 33.2 122.2 51.7zm-756.6 761.1c-268.8 33.2-613.9 101.8-864.3 231.2l-24.6 36.1c242-135.4 597.1-210 880.5-246.1 2.5-6.9 5.3-14 8.4-21.2" style="fill:#5a5758;fill-opacity:1;fill-rule:nonzero;stroke:none" transform="matrix(.0258 0 0 -.0258 -608.186 1131.44)"/><path d="M27409.6 39262.9h-6.9c-193.5 0-374.3 92.2-479.8 245l-719.9 1055.6 3.7 1.9c10.5-6.4 21.2-12.7 32.2-18.8l24.6-36.1 676-991.2c102.1-147.9 275.3-236.3 463.2-236.3h6.9c2.1.1 4.2.1 6.2.1 175.9 4 367.9 100.1 468.6 235.1l723.4 986.5c11.6 5.5 23 11.1 34.2 16.9l1-3-742.5-1012.4c-105.9-142-306.3-241.4-490.9-243.3" style="fill:#5a5758;fill-opacity:1;fill-rule:nonzero;stroke:none" transform="matrix(.0258 0 0 -.0258 -608.186 1131.44)"/><path d="M27766.1 40130.9c-71.9 2.4-228 10.3-300.3 35.2-28.2 9.7-97.6 40.1-134.1 113 58.6-4.3 109.3-6.5 149-6.9 4.5-.1 9.2-.1 14-.1 71.1 0 165.8 5.8 272.8 18.1 20.5-37.2 32-68.5 36.9-96.8-.6-.8-1.1-1.6-1.6-2.4l-6.9-11.8c-9.8-16.7-19.3-32.9-29.8-48.3m279.8 90.4c2.3 35.6 1.6 72.8-2.1 111.3 51.7 9.9 103.9 21.2 155.9 33.8-38.3-44.3-91.5-99-153.8-145.1" style="fill:#fffffd;fill-opacity:1;fill-rule:nonzero;stroke:none" transform="matrix(.0258 0 0 -.0258 -608.186 1131.44)"/><path d="M28028.1 40113.2q7.2 26.55 11.7 54.6c49.9 33.1 94.8 72.1 132.6 109.8-36.9-64.5-87.6-119.8-144.3-164.4" style="fill:#eee9ca;fill-opacity:1;fill-rule:nonzero;stroke:none" transform="matrix(.0258 0 0 -.0258 -608.186 1131.44)"/><path d="M28039.8 40167.8c2.8 17.4 4.8 35.2 6.1 53.5 62.3 46.1 115.5 100.8 153.8 145.1 4.4 1.1 8.8 2.1 13.2 3.2-10.3-32.4-24-63.1-40.5-92-37.8-37.7-82.7-76.7-132.6-109.8" style="fill:#5a5758;fill-opacity:1;fill-rule:nonzero;stroke:none" transform="matrix(.0258 0 0 -.0258 -608.186 1131.44)"/><path d="M27996.7 40030.1c2.7 5.5 5.4 11.1 7.9 16.8 115.6 75.6 216.9 190.1 254.8 334.6 61.7 16.3 122.3 34.6 180.5 54.9-28.3-109.5-92.5-193.1-179.7-277.3-96.2-92.8-204-120.7-263.5-129m242 225.3c-23.6 0-23.6-36.7 0-36.7s23.7 36.7 0 36.7m87.7 134.7c-23.6 0-23.6-36.7 0-36.7s23.6 36.7 0 36.7" style="fill:#ece46c;fill-opacity:1;fill-rule:nonzero;stroke:none" transform="matrix(.0258 0 0 -.0258 -608.186 1131.44)"/><path d="M27972.4 39986.9q13.35 20.85 24.3 43.2c59.5 8.3 167.3 36.2 263.5 129 87.2 84.2 151.4 167.8 179.7 277.3 15.4 5.4 30.7 10.9 45.7 16.6-1.5-8-3.3-15.8-5.2-23.6-29.6-118.6-98.4-208.6-192.3-299.2-123.6-119.4-262-140-315.7-143.3m32.2 60c9.3 21.2 17.2 43.3 23.5 66.3 56.7 44.6 107.4 99.9 144.3 164.4 16.5 28.9 30.2 59.6 40.5 92 15.6 3.9 31.1 7.8 46.5 11.9-37.9-144.5-139.2-259-254.8-334.6" style="fill:#5a5758;fill-opacity:1;fill-rule:nonzero;stroke:none" transform="matrix(.0258 0 0 -.0258 -608.186 1131.44)"/><path d="M27605.3 39826.5c-18 .7-34.6 2.2-47.3 4.4 26.1 8.3 51 19.3 74.5 32.1 73.3 34.3 141.4 79.9 169.1 116.8 34.2 45.8 43.3 110.3 44.8 157.3 4.9 46.2-3.8 95.2-36.1 158.2 9.5 1.2 19 2.5 28.7 3.8 36.6-116 33.9-238.5-4.9-312.3-39.8-75.5-122-132.7-228.8-160.3m69.7 222.7c-2.1 0-4.2.1-6.4.1-44.1 1-110.7 2.5-169.4 15.7-47.1 10.5-90.1 28.8-121 44.2-12.7 11.2-25.9 21.1-38.8 30.7-40.3 29.9-78.3 58.2-102.7 125.7-2.6 7.4-5 14.9-7.1 22.4 19.1-2 37.8-3.7 55.8-5.3 38.7-101.4 131.4-142.3 167.4-154.7 68.5-23.5 200.4-32.7 281.5-36.2-16-16-35-30.4-59.3-42.6" style="fill:#eee9ca;fill-opacity:1;fill-rule:nonzero;stroke:none" transform="matrix(.0258 0 0 -.0258 -608.186 1131.44)"/><path d="M27526.4 39797.9c-5.9 2.2-11.2 4.7-15.5 7.7zm-17.8 9.5c-.7.5-1.4 1.1-2 1.6-6.8 6.4-10.2 15.4-9.6 24.6 1.4-2.3 3.1-4.5 5.2-6.2 4.2-3.6 9.5-5.5 14.9-5.5 1.9 0 3.9.2 5.7.7 34.9 8.9 72.9 23.3 109.7 40.4-23.5-12.8-48.4-23.8-74.5-32.1 12.7-2.2 29.3-3.7 47.3-4.4-12.4-3.2-25.2-6-38.2-8.4zm47.6 207.8c-21.9 2.4-44.2 5.7-65.8 10.5-13.5 3-26.6 6.6-39.3 10.5l-58 59.1c-4.9 4.9-9.8 9.5-14.9 13.9 30.9-15.4 73.9-33.7 121-44.2 58.7-13.2 125.3-14.7 169.4-15.7 2.2 0 4.3-.1 6.4-.1-30.1-15.1-68.4-26.9-118.8-34m178.1 76.6c-81.1 3.5-213 12.7-281.5 36.2-36 12.4-128.7 53.3-167.4 154.7 15.9-1.3 31.4-2.5 46.3-3.6 36.5-72.9 105.9-103.3 134.1-113 72.3-24.9 228.4-32.8 300.3-35.2-9.5-13.7-19.7-26.9-31.8-39.1m112.1 45.3c.6 17.6 0 32.8-.6 43.6-.6 10.2-7.7 18.6-17.6 21-1.8.5-3.7.7-5.5.7-7.1 0-13.9-3.3-18.3-9-4.9 28.3-16.4 59.6-36.9 96.8 14.1 1.6 28.3 3.3 42.8 5.1 32.3-63 41-112 36.1-158.2" style="fill:#5a5758;fill-opacity:1;fill-rule:nonzero;stroke:none" transform="matrix(.0258 0 0 -.0258 -608.186 1131.44)"/><path d="M27536.2 39868.2c2.2 34.4 2.1 69.7-5.4 103.5 168.1 16.5 229.2 75.7 274 144.7-3.2-37.1-12.2-81.4-35.5-112.5-29.6-39.7-135.9-105.2-233.1-135.7" style="fill:#fffffd;fill-opacity:1;fill-rule:nonzero;stroke:none" transform="matrix(.0258 0 0 -.0258 -608.186 1131.44)"/><path d="M27517.1 39821.9c-5.4 0-10.7 1.9-14.9 5.5-2.1 1.7-3.8 3.9-5.2 6.2-2.3 4.1-3.3 8.8-2.9 13.5 4.8 51.8 5.4 94.2-7.2 132.8-2.2 6.7-1.2 14 2.7 19.9 4 6 10.4 9.7 17.5 10.2 17.6 1.3 33.9 3 49.1 5.2 50.4 7.1 88.7 18.9 118.8 34 24.3 12.2 43.3 26.6 59.3 42.6 12.1 12.2 22.3 25.4 31.8 39.1 10.5 15.4 20 31.6 29.8 48.3l6.9 11.8c.5.8 1 1.6 1.6 2.4 4.4 5.7 11.2 9 18.3 9 1.8 0 3.7-.2 5.5-.7 9.9-2.4 17-10.8 17.6-21 .6-10.8 1.2-26 .6-43.6-1.5-47-10.6-111.5-44.8-157.3-27.7-36.9-95.8-82.5-169.1-116.8-36.8-17.1-74.8-31.5-109.7-40.4-1.8-.5-3.8-.7-5.7-.7m287.7 294.5c-44.8-69-105.9-128.2-274-144.7 7.5-33.8 7.6-69.1 5.4-103.5 97.2 30.5 203.5 96 233.1 135.7 23.3 31.1 32.3 75.4 35.5 112.5m-279.7-124h.1z" style="fill:#5a5758;fill-opacity:1;fill-rule:nonzero;stroke:none" transform="matrix(.0258 0 0 -.0258 -608.186 1131.44)"/><path d="M27811.5 39891.6c23.9 22.9 43.5 48.6 58.2 76.5 42.5 80.8 48 211.3 10.1 336.7 40.5 6 82.1 12.7 124.2 20.4 15.3-165.1-29.8-302.3-132.5-395.7-10.8-9.8-32.7-23.4-60-37.9m131.9 306.1c-23.6 0-23.6-36.7 0-36.7s23.7 36.7 0 36.7m-724.6 10.4c-14.6 15.8-27.6 33.3-37.6 52.5-6.3 11.9-11.7 23.3-16.4 34.4 7.4-.9 14.8-1.7 22.1-2.5q4.8-20.55 12-40.5c5.9-16.4 12.6-30.9 19.9-43.9" style="fill:#ece46c;fill-opacity:1;fill-rule:nonzero;stroke:none" transform="matrix(.0258 0 0 -.0258 -608.186 1131.44)"/><path d="M27594.4 39774c-12.9 0-24 2-32.6 6.3l-35.4 17.6-15.5 7.7-3.2 1.6.9.2 58.5 10.7c13 2.4 25.8 5.2 38.2 8.4 106.8 27.6 189 84.8 228.8 160.3 38.8 73.8 41.5 196.3 4.9 312.3q20.25 2.7 40.8 5.7c37.9-125.4 32.4-255.9-10.1-336.7-14.7-27.9-34.3-53.6-58.2-76.5 27.3 14.5 49.2 28.1 60 37.9 102.7 93.4 147.8 230.6 132.5 395.7 13.2 2.3 26.5 4.8 39.8 7.4 3.7-38.5 4.4-75.7 2.1-111.3-1.3-18.3-3.3-36.1-6.1-53.5q-4.5-28.05-11.7-54.6c-6.3-23-14.2-45.1-23.5-66.3-2.5-5.7-5.2-11.3-7.9-16.8q-10.95-22.35-24.3-43.2c-20.5-31.9-45.1-61-73.8-87.1-32.9-29.9-212.9-125.8-304.1-125.8zm-140.1 259.1-82.3 29.1c-6.6 2.3-163.2 58.9-226.5 179.7-6.7 12.9-12.6 25.3-17.7 37.4-3.1 7.2-5.9 14.3-8.4 21.2 15.3-1.9 30.5-3.8 45.4-5.5 4.7-11.1 10.1-22.5 16.4-34.4 10-19.2 23-36.7 37.6-52.5-7.3 13-14 27.5-19.9 43.9q-7.2 19.95-12 40.5c14.5-1.6 28.7-3.1 42.7-4.5 2.1-7.5 4.5-15 7.1-22.4 24.4-67.5 62.4-95.8 102.7-125.7 12.9-9.6 26.1-19.5 38.8-30.7 5.1-4.4 10-9 14.9-13.9l58-59.1z" style="fill:#5a5758;fill-opacity:1;fill-rule:nonzero;stroke:none" transform="matrix(.0258 0 0 -.0258 -608.186 1131.44)"/><path d="M27943.4 40161c-23.6 0-23.6 36.7 0 36.7 23.7 0 23.6-36.7 0-36.7M28326.4 40353.4c-23.6 0-23.6 36.7 0 36.7s23.6-36.7 0-36.7M28238.7 40218.7c-23.6 0-23.6 36.7 0 36.7 23.7 0 23.6-36.7 0-36.7" style="fill:#fffffd;fill-opacity:1;fill-rule:nonzero;stroke:none" transform="matrix(.0258 0 0 -.0258 -608.186 1131.44)"/><path d="m26263.5 40510.5 676-991.2c102.1-147.9 275.3-236.3 463.2-236.3h6.9c177.5 1.8 372.9 98.6 474.8 235.2l698.8 953c-345.3-153.9-850.9-222.3-1102.8-219.1-199.2 2.2-824.3 55.5-1216.9 258.4m1139.2-1267.7c-201.1 0-386.7 94.8-496.4 253.7l-732.8 1074.5 34 17.4 9.6-5.8c376.5-229.4 1055.6-287.9 1263.8-290.3 229.4-2.6 802.3 67.2 1151.9 247.1l20.8 10.8 11.7-35.1-748.6-1020.8c-109-146.2-317.4-249.6-506.9-251.5z" style="fill:#211d1d;fill-opacity:1;fill-rule:nonzero;stroke:none" transform="matrix(.0258 0 0 -.0258 -608.186 1131.44)"/><path d="M25965.3 40948c24.2-22.2 30.5-26.7 51.7-41.6 6.7-4.7 14.8-10.4 25.3-18 77.5-55.6 183.6-125.6 317.3-173 112-39.7 243.9-68.1 358.3-90.6 89.6-17.7 184.8-25.5 285.5-33.8 27.4-2.3 55-4.6 82.9-7.1 18.8-1.7 38.6-3.5 59-5.4 110.7-10.4 236.3-22.1 343.4-22.1 125.2 0 217.1 4.1 339.2 15.1 133.7 12 260.3 35 366.4 56 34.1 6.7 70.7 13.3 106.1 19.6 102.1 18.4 207.8 37.3 285.5 64.9 103.8 36.8 172 88.1 237.9 137.8 15.8 11.9 32.2 24.2 48.7 36.1 116 83.4 174.8 174.5 174.8 271 0 93.7-59.6 184-177 268.4-80.5 57.9-189.2 111.2-322.9 158.6-103.5 36.7-222.8 68.5-354.9 94.5-103.3 20.4-231.9 45.7-365.3 57.7-100.2 9.1-232.9 19.4-370.8 19.4-122.3 0-247.2-5.6-371.1-16.8-117.4-10.6-250.4-22.5-368.3-45.8-119.3-23.5-289.3-87.9-408.6-140.3-148.2-65.2-406.7-221.2-435.2-392.9-12.2-73.1 18.8-144.3 92.1-211.7m1523.4-431.8c-109 0-235.5 11.8-347.1 22.2-20.4 1.9-40.1 3.8-59 5.5-27.7 2.5-55.2 4.7-82.5 7-101.9 8.4-198.1 16.3-290 34.4-115.8 22.8-249.5 51.7-364 92.2-138.5 49.1-247.6 121-327.2 178.3-10.4 7.4-18.4 13-25 17.7-21.6 15.2-29.7 20.9-55.8 44.8-83.9 77.3-119.1 160.7-104.6 248 38.6 232.3 415.8 404.3 458.7 423.1 58.8 25.9 262.8 112.6 417 143 119.9 23.6 254.1 35.7 372.5 46.4 125.1 11.2 251.2 17 374.7 17 139.5 0 273.3-10.5 374.4-19.6 135.5-12.2 265.3-37.8 369.5-58.3 133.9-26.4 255.2-58.7 360.5-96 137.3-48.7 249.4-103.8 333-164 128.5-92.3 193.7-193.6 193.7-301 0-110.1-64.5-212.3-191.5-303.6-16.2-11.7-32.4-23.8-48-35.6-68.4-51.5-139-104.8-248.7-143.6-80.8-28.7-188.1-47.9-291.8-66.6-36.8-6.6-71.6-12.8-105.4-19.5-107.2-21.1-235-44.4-370.6-56.6-123.4-11.1-216.3-15.2-342.8-15.2" style="fill:#211d1d;fill-opacity:1;fill-rule:nonzero;stroke:none" transform="matrix(.0258 0 0 -.0258 -608.186 1131.44)"/></g></svg>