<svg xmlns="http://www.w3.org/2000/svg" xml:space="preserve" width="200mm" height="200mm" viewBox="0 0 200 200"><g style="display:inline"><path d="M26338.9 1164.49c-76.6 0-152.3 8.21-225.4 16.1-24.2 2.61-48.3 5.19-72.1 7.5-22.4 2.11-44.6 4.1-66.7 6.01-81 7.11-157.4 13.79-229.2 28.91-91.9 19.29-197.8 43.59-287.6 77.5-106.9 40.27-191.8 100-253.9 147.5-94.9 72.58-143 148.71-143 226.21 0 77.07 47.2 150.66 144.1 224.88 55.1 42.11 141.3 103.09 254 145.59 95 35.82 191.1 64.1 285.7 83.9 94.5 19.93 201.5 30.12 295.9 39.22 37.5 3.6 75.8 6.6 114.2 8.79-23.3-140.31-82.8-274.22-119.3-356.21-21.2-47.58-30.6-69.3-31.6-83.4-1.2-15.27 6-31.48 21.2-48.08 42.2-46.1 152.7-100.9 325.5-103.4 2.3-.12 4.6-.12 6.8-.12 156.5 0 252.1 73.2 295.2 117.42 20.1 20.59 21.6 55.08 3.6 78.48-56.3 73.12-92.3 220.62-112.6 331.41-3.5 18.9-6.6 39.21-9.5 61.6 33.3-2.39 67.7-5.32 102.8-8.71 92-8.79 187.8-25 293-49.3 26.4-6.09 47.2-10.9 63.8-14.69 66.7-15.31 66.7-15.31 97.6-25.9 20.1-6.79 53.7-18.2 125.1-40.7 91.4-28.71 177.9-73.98 257.2-134.69 93.1-71.33 140.3-147.3 140.3-226.09 0-81.21-46.6-158.01-138.5-228.44-63.7-48.79-148.6-92.77-259.5-134.57-108.2-40.9-195.8-67.42-284.1-85.9-85.3-17.93-186.9-37.61-294.4-47.93-90.5-8.67-188.2-12.89-298.6-12.89" style="fill:#fffdf4;fill-opacity:1;fill-rule:nonzero;stroke:none" transform="matrix(.02713 0 0 -.02713 -614.53 223.23)"/><path d="M26154.9 2176.6c-38.4-2.19-76.7-5.19-114.2-8.79-94.4-9.1-201.4-19.29-295.9-39.22-94.6-19.8-190.7-48.08-285.7-83.9-112.7-42.5-198.9-103.48-254-145.59-96.9-74.22-144.1-147.81-144.1-224.88 0-77.5 48.1-153.63 143-226.21 62.1-47.5 147-107.23 253.9-147.5 89.8-33.91 195.7-58.21 287.6-77.5 71.8-15.12 148.2-21.8 229.2-28.91 22.1-1.91 44.3-3.9 66.7-6.01 23.8-2.31 47.9-4.89 72.1-7.5 73.1-7.89 148.8-16.1 225.4-16.1 110.4 0 208.1 4.22 298.6 12.89 107.5 10.32 209.1 30 294.4 47.93 88.3 18.48 175.9 45 284.1 85.9 110.9 41.8 195.8 85.78 259.5 134.57 91.9 70.43 138.5 147.23 138.5 228.44 0 78.79-47.2 154.76-140.3 226.09-79.3 60.71-165.8 105.98-257.2 134.69-71.4 22.5-105 33.91-125.1 40.7-30.9 10.59-30.9 10.59-97.6 25.9-16.6 3.79-37.4 8.6-63.8 14.69-105.2 24.3-201 40.51-293 49.3-35.1 3.39-69.5 6.32-102.8 8.71 2.9-22.39 6-42.7 9.5-61.6 20.3-110.79 56.3-258.29 112.6-331.41 18-23.4 16.5-57.89-3.6-78.48-43.8-44.8-141.5-119.53-302-117.3-172.8 2.5-283.3 57.3-325.5 103.4-15.2 16.6-22.4 32.81-21.2 48.08 1 14.1 10.4 35.82 31.6 83.4 36.5 81.99 96 215.9 119.3 356.21m184-1057.89c-79.1 0-156 8.4-230.3 16.41-24.1 2.58-47.9 5.19-71.5 7.38-22.3 2.19-44.5 4.1-66.4 6.02-82.4 7.26-160.2 14.1-234.7 29.68-93.5 19.69-201.6 44.5-294.3 79.42-112.5 42.5-201 104.57-265.5 153.98-106.8 81.8-161 170.12-161 262.62 0 92.26 53.1 177.77 162.1 261.17 57.4 43.91 147.3 107.5 265.7 152.11 97.1 36.72 195.5 65.59 292.4 85.9 97 20.39 205.3 30.82 300.9 40 47.3 4.49 95.8 8.01 144.2 10.51l27.4 1.4-3.6-27.22c-20.4-156.8-87.1-306.68-126.9-396.29-13.2-29.69-26.9-60.39-27.8-68.28 2.6-22.31 101.6-99.3 301.8-102.31h6.8c139.6 0 223.7 64.57 261.7 103.59 4.3 4.42 4.4 13.09.1 18.6-61.9 80.31-100.1 235.19-121.4 351.09-5 27.42-9.3 57.5-13.2 91.99l-3 27.11 27.3-1.68c42.1-2.81 86.4-6.4 131.6-10.7 94.1-9.1 191.9-25.51 299.1-50.31 26.3-6.1 47-10.9 63.7-14.69 67.7-15.62 69-15.9 102.1-27.23 19.9-6.68 53.1-17.96 124-40.27 96.5-30.31 187.8-78.12 271.3-142.11 105.1-80.31 158.3-168.59 158.3-262.38 0-96.21-52.6-185.31-156.5-264.81-67.3-51.52-156-97.61-271.2-141.13-110.5-41.68-200.1-68.67-290.8-87.77-86.5-18.21-189.7-38.21-299.4-48.71-92-8.79-191.1-13.09-303-13.09" style="fill:#211d1d;fill-opacity:1;fill-rule:nonzero;stroke:none" transform="matrix(.02713 0 0 -.02713 -614.53 223.23)"/><path d="M26358.2 1631.21h-6.8c-200.2 3.01-299.2 80-301.8 102.31.9 7.89 14.6 38.59 27.8 68.28 39.8 89.61 106.5 239.49 126.9 396.29l3.6 27.22-23.6-1.21c1.6 16.92 2.3 33.99 2.2 51.1l-8.7 1615.7c-1 193.2-52.2 428.2-223.4 593.01l-12.8 25.78c-458.5 107.42-836.6 379.61-1018.3 633.12-184.2 256.8-297.2 825.71-336 1048.99-9.9 30.19-15.1 61.09-15.1 92.69 0 121.53 76.8 229.92 208 330.2 93.2 71.4 208.4 147.69 353 202.3 117.1 44.22 249.3 85.2 392.6 115.31 126.5 26.61 263.5 40.2 405.5 53.79 130.9 12.5 267.7 19.61 408.2 19.61 140.3 0 276.8-10.11 407.8-22.61 142-13.6 275.8-41.1 402.2-67.7 143.4-30.08 274.4-66.8 391.5-110.98 144.6-54.61 265.8-116.6 359.1-188 131.1-100.39 202.8-210.39 202.8-331.92 0-33.59-5.5-66.48-15.9-98.71l.4-1.29c-32.1-204.1-115.4-631.6-295.7-957.77-119.1-215.63-568.1-563.91-1051-703.63l-13.6-25.28c-241.4-286.21-233.7-420.62-232.6-621.4l4.9-1529.11c.1-41.79 2.1-83.59 6.1-125.19l-23.1 1.48 3-27.11c3.9-34.49 8.2-64.57 13.2-91.99 21.3-115.9 59.5-270.78 121.4-351.09 4.3-5.51 4.2-14.18-.1-18.6-38-39.02-122.1-103.59-261.7-103.59M24630.5 6104.3c26.5-61.29 60.3-114.69 97.6-114.69 1.6 0 3.4.08 5.1.08-42.1 36.91-76.5 75-102.7 114.61" style="fill:#e8f7f5;fill-opacity:1;fill-rule:nonzero;stroke:none" transform="matrix(.02713 0 0 -.02713 -614.53 223.23)"/><path d="M26358.1 1608.28h-7.1c-212.4 3.2-327 88.91-324.2 127.03 2.6 36.17 132.5 256.17 156.9 482.39.2 2.1.4 4.21.6 6.4l23.6 1.21-3.6-27.22c-20.4-156.8-87.1-306.68-126.9-396.29-13.2-29.69-26.9-60.39-27.8-68.28 2.6-22.31 101.6-99.3 301.8-102.31h6.8c139.6 0 223.7 64.57 261.7 103.59 4.3 4.42 4.4 13.09.1 18.6-61.9 80.31-100.1 235.19-121.4 351.09-5 27.42-9.3 57.5-13.2 91.99l-3 27.11 23.1-1.48c3.6-38.13 8.8-75.9 15.7-113.52 20.7-113.39 57.8-264.61 116.9-341.21 11.1-14.29 10.6-35.9-1.8-48.59-38.6-39.57-128.7-110.51-278.2-110.51" style="fill:#526263;fill-opacity:1;fill-rule:nonzero;stroke:none" transform="matrix(.02713 0 0 -.02713 -614.53 223.23)"/><path d="M28087 6185.78h.1zm-2113.8-1688.16c196.1-191.21 226.7-461.84 227.5-606.6l8.6-1615.71c.2-20.9-.8-41.09-2.9-60.11-17.5-162.82-87.3-319.69-129-413.4-13.2-29.69-26.9-60.39-27.8-68.28 2.6-22.31 101.6-99.3 301.8-102.31h6.8c139.6 0 223.7 64.57 261.7 103.59 4.3 4.42 4.4 13.09.1 18.6-61.9 80.31-100.1 235.19-121.3 351.09-14.5 78.71-21.9 160.39-22.2 242.7l-5 1545.51c-1.2 194.1-2.1 334.49 236.6 618.08l17 31.72 9.2 2.62c459.2 132.77 915.3 471.6 1037.4 692.58 173.7 314.41 257.6 726.28 292.5 946.52l-.5 4.06 1.5 4.61c9.8 30.31 14.8 61.09 14.8 91.6 0 109.73-65.2 215.2-193.9 313.71-88 67.39-206.9 129.61-353.2 184.81-113.1 42.58-243.7 79.69-388.1 110-113.1 23.79-253.8 53.28-399.7 67.3-109.7 10.47-254.9 22.58-405.6 22.58-133.9 0-270.5-6.6-406-19.61-128.5-12.26-274.1-26.29-403-53.4-128.8-26.99-259.8-65.47-389.3-114.37-154.1-58.13-271.9-141.41-347.1-198.91-133.9-102.5-199-204.61-199-312.11 0-28.47 4.7-57.19 13.9-85.51l.8-3.2c4.6-26.37 10.2-57.19 16.7-91.37l23.1 12.5c24.6-37.22 57.8-74.21 98.7-110l45.3-39.72-65.5-.39h-.1c-30.9 0-60 22.42-87.9 68.2 54.2-268.28 155.4-674.69 301.8-878.91 154.5-215.5 510.4-508.28 1004.9-624.1l10.5-2.5zm385-2912.23c-2.5 0-5 0-7.5.12-172.8 2.5-283.3 57.3-325.5 103.4-15.2 16.6-22.4 32.81-21.2 48.08 1 14.1 10.4 35.82 31.6 83.4 40.6 91.33 108.6 244.02 125.3 399.73 1.9 17.26 2.8 35.78 2.7 55l-8.7 1615.66c-.7 138.2-29.8 397.03-216.4 576.6l-2.8 2.82-9.8 19.68c-501.4 120.43-863.2 419.1-1021.2 639.53-185.6 258.87-299.2 824.11-339.7 1056.88-10.4 32.42-15.7 65.43-15.7 98.2 0 122.7 71 236.72 217 348.4 77.5 59.3 199 145.2 358.8 205.51 131.7 49.61 264.9 88.79 396 116.29 131.4 27.61 278.3 41.72 408 54.1 137 13.2 275.1 19.8 410.4 19.8 152.7 0 299.3-12.11 410-22.69 148.4-14.3 290.5-44.1 404.7-68.09 146.7-30.82 279.6-68.51 394.9-112.03 150.5-56.8 273.2-121.17 364.9-191.29 140.5-107.5 211.8-225.27 211.8-350 0-33.71-5.3-67.58-15.6-101.09l-.2-2.62c-35-222.07-120.1-642.89-298.3-965.19-62.2-112.7-210.3-257.7-395.9-387.89-205.5-144.11-439.3-258.91-659.5-323.79l-11.7-20.82c-229.3-271.88-228.5-398.48-227.3-590.08l.1-16.53 4.9-1529.1c.2-79.57 7.4-158.59 21.4-234.68 20.3-110.79 56.3-258.29 112.6-331.41 18-23.4 16.5-57.89-3.6-78.48-43.1-44.1-138.1-117.42-294.5-117.42" style="fill:#211d1d;fill-opacity:1;fill-rule:nonzero;stroke:none" transform="matrix(.02713 0 0 -.02713 -614.53 223.23)"/><path d="M24708.5 5652.5c-4.2 14.61-8.3 29.22-12.2 43.79-1.7 5.9-3.3 11.8-4.8 17.69-2.8 10.43-5.5 20.63-8.2 30.9-3.3 12.5-6.4 24.81-9.5 37.23-.8 3.2-1.7 6.41-2.5 9.61-12.7 51.29-24.3 101.09-34.6 148.28-.8 3.52-1.5 6.99-2.3 10.39-2 9.3-4 18.4-5.9 27.5-2.4 11.52-4.8 22.89-7.1 34.02-.2 1.37-.5 2.7-.8 4.11-32.2 156.87-48.4 268.47-48.4 268.47s29.3-126.79 74.2-214.1l.3-.51c1.8-3.59 3.7-7.18 5.7-10.66l1-1.92c1.9-3.32 3.7-6.4 5.6-9.6l1-1.49c2-3.4 4.1-6.6 6.2-9.73.8-1.17 1.6-2.38 2.5-3.47 1.3-1.92 2.6-3.71 3.9-5.51 1-1.41 2-2.7 3-3.98 1.2-1.53 2.4-2.93 3.6-4.3 1.1-1.33 2.1-2.62 3.2-3.83 1.3-1.29 2.5-2.58 3.7-3.91 1.1-.97 2.1-2.07 3.2-3.08 2.1-2.11 4.3-3.99 6.5-5.7.9-.79 1.8-1.29 2.7-2 1.5-1.09 2.9-2.11 4.4-3 1-.71 2.1-1.22 3.1-1.8 1.4-.78 2.8-1.49 4.2-2.11 1.1-.51 2.1-.9 3.1-1.29 1.6-.59 3.1-1.02 4.7-1.41.9-.31 1.8-.5 2.7-.7 2.5-.51 4.9-.78 7.4-.78 9.6.08 19.7.19 30.2.27 3 0 6.2.12 9.2.12 7.7.2 15.5.31 23.6.51 3.7.08 7.6.19 11.4.27 8 .24 16.3.43 24.7.7 3.8.12 7.6.24 11.4.43 9.3.28 18.7.59 28.4.98 3.3.12 6.5.2 9.8.39 12.4.43 25 1.02 38 1.6l2.1.12c44.1 1.99 92 4.49 143 7.38l.7.12c675.3 39.22 1909.8 157.19 2574.4 192.62 5.6.27 11.3.58 16.9.9 7.8.39 15.5.78 23.2 1.17 8.3.43 16.4.82 24.4 1.21 6.1.31 12.1.51 18 .82 9.9.39 19.6.9 29.1 1.29 4 .19 8.2.27 12.2.51 12.8.46 25.2.97 37.4 1.36l2.5.12c49.7 1.8 94.1 2.81 132.2 2.81l.1-.11c101.2.19 158.7-5.98 156.4-20.71-6.9-43.71-16.1-97.69-28.2-158.71l.1-.08c-1.1-5.31-2.2-10.82-3.3-16.09-1.2-6.21-2.5-12.31-3.8-18.59-.8-4.03-1.6-8.13-2.5-12.11-2.3-10.9-4.6-21.8-7-33.01-.2-1.02-.4-1.92-.7-2.89-47-215.31-125.3-490.2-250.3-716.29-152.1-275.43-842.3-767.23-1454.2-764.42-630.5 2.9-1182.3 357-1414.2 680.51-87.3 121.68-158.6 313.6-213.6 505.47l-.1.12c-.4 1.4-.7 2.69-1.1 4.1" style="fill:#e3f4d7;fill-opacity:1;fill-rule:nonzero;stroke:none" transform="matrix(.02713 0 0 -.02713 -614.53 223.23)"/><path d="M28069.1 6101.41c0-121.53-68.1-234.61-196.8-335-91.5-71.41-211.8-132.82-353.7-187.31-114.9-44.22-242.5-87.89-383.1-118.01-124.1-26.48-256.6-51.99-395.9-65.58-128.5-12.5-263.1-17.62-400.9-17.62s-271 19.61-399.5 32.23c-139.3 13.59-273.9 21.36-398 47.89-140.6 30.08-272.9 62.38-387.9 106.6-141.8 54.49-254.6 133.28-346.1 204.69-128.7 100.39-202.6 210.58-202.6 332.11 0 121.48 75.4 229.88 204 330.19 91.6 71.41 204.5 147.7 346.4 202.31 114.9 44.18 244.7 85.19 385.3 115.31 124.1 26.56 258.6 40.19 397.9 53.79 128.5 12.5 262.7 19.69 400.5 19.69 137.7 0 271.7-10.2 400.2-22.7 139.3-13.59 270.6-41.09 394.7-67.7 140.6-30.11 269.2-66.79 384.1-111.01 141.9-54.57 260.8-116.6 352.3-188.01 128.7-100.39 199.1-210.39 199.1-331.87" style="fill:#fff;fill-opacity:1;fill-rule:nonzero;stroke:none" transform="matrix(.02713 0 0 -.02713 -614.53 223.23)"/><path d="M26338.7 6799.8c-131.3 0-265.3-6.6-398.3-19.6-126-12.31-268.9-26.29-395.3-53.29-126.5-27.11-254.9-65.62-381.9-114.41-151.1-58.09-266.7-141.41-340.5-198.91-131.4-102.5-195.3-204.61-195.3-312.18 0-108.01 65.2-213.71 193.9-314.03 83.1-64.76 196.9-146.29 340.3-201.48 120-46.1 261.7-79.18 384.4-105.51 96.1-20.59 198.3-29.69 306.4-39.37 29.4-2.62 59.1-5.24 89-8.21 31.7-3.12 63.6-6.6 95.9-10.11 97.7-10.79 198.7-22 301.4-22 147.3 0 277.7 5.78 398.7 17.58 143.5 14.02 279.3 40.82 393.3 65.24 118 25.27 235.1 61.28 379.7 116.87 148.6 57.23 262.4 117.42 347.9 184.1 124.6 97.23 187.9 203.79 187.9 316.92 0 109.8-64 215.39-190.3 313.79-86.3 67.42-202.9 129.49-346.4 184.68-111 42.74-239.1 79.73-380.7 110-110.9 23.83-249 53.32-392.1 67.31-107.6 10.51-250.1 22.61-398 22.61m0-1444.8c-105.2 0-207.5 11.21-306.4 22.19-32.1 3.51-63.9 7.03-95.4 10.11-29.8 2.9-59.3 5.51-88.6 8.09-109.5 9.81-213 19.1-311.9 40.2-124.5 26.71-268.3 60.31-391.3 107.61-149 57.31-266.4 141.29-352 208.09-140.3 109.41-211.4 227.23-211.4 350.12 0 122.57 69.6 236.6 212.9 348.28 76.1 59.29 195.4 145.19 352.2 205.51 129.1 49.68 259.9 88.9 388.7 116.4 129 27.62 273.2 41.68 400.4 54.1 134.5 13.21 270 19.81 402.8 19.81 149.9 0 293.8-12.11 402.4-22.7 145.8-14.29 285.2-44.1 397.3-68.12 143.9-30.78 274.3-68.48 387.5-112.07 147.8-56.84 268.3-121.14 358.2-191.33 137.9-107.58 207.8-225.27 207.8-349.88 0-127.89-69.1-246.72-205.5-353.01-89.1-69.49-206.7-131.92-359.6-190.7-146.9-56.49-266.1-93.21-386.5-118.91-115.3-24.69-252.7-51.8-398.5-66.09-122.4-11.92-254.3-17.7-403.1-17.7" style="fill:#211d1d;fill-opacity:1;fill-rule:nonzero;stroke:none" transform="matrix(.02713 0 0 -.02713 -614.53 223.23)"/><path d="M26339.5 6982.89c-133.8 0-270.4-6.6-406.1-19.61-128.4-12.26-274-26.29-402.9-53.4-128.8-26.99-259.8-65.47-389.3-114.37-154-58.13-271.9-141.41-347.1-198.91-133.9-102.5-199-204.61-199-312.11 0-107.89 66.4-213.59 197.5-313.9 84.7-64.81 200.7-146.29 346.9-201.49 122.5-46.21 266.9-79.3 392-105.58 98-20.63 202.1-29.73 312.3-39.42 30-2.62 60.2-5.31 90.7-8.2 32.3-3.09 64.9-6.6 97.8-10.2 99.6-10.7 202.5-21.91 307.2-21.91 150.2 0 283.1 5.82 406.4 17.62 146.4 13.98 284.8 40.78 400.9 65.19 154.1 32.38 287.8 79.49 387.1 116.99 151.4 57.19 267.4 117.43 354.6 184.11 127.1 97.18 191.5 203.78 191.5 316.79 0 109.73-65.2 215.2-193.9 313.71-88 67.39-206.9 129.61-353.1 184.81-113.2 42.58-243.8 79.69-388.2 110-113.1 23.79-253.8 53.28-399.7 67.3-109.6 10.47-254.8 22.58-405.6 22.58m0-1444.8c-107.1 0-211.3 11.21-312.1 22.11-32.7 3.59-65.2 7.1-97.3 10.19-30.3 2.89-60.5 5.51-90.3 8.13-111.6 9.76-217 19.1-317.8 40.19-126.7 26.68-273.2 60.27-398.6 107.58-151.8 57.3-271.4 141.21-358.6 208.01-143 109.41-215.5 227.18-215.5 350.19 0 122.7 71 236.72 217 348.4 77.5 59.3 199.1 145.2 358.8 205.51 131.6 49.61 264.9 88.79 396 116.29 131.4 27.61 278.3 41.72 408 54.1 137.1 13.2 275.1 19.8 410.4 19.8 152.8 0 299.3-12.11 410-22.69 148.4-14.3 290.5-44.1 404.7-68.09 146.7-30.82 279.6-68.51 394.9-112.03 150.5-56.8 273.2-121.09 364.9-191.29 140.5-107.5 211.8-225.27 211.8-350 0-128.01-70.5-246.79-209.5-353.2-90.8-69.38-210.6-131.8-366.3-190.51-100.8-38.08-236.7-85.9-393.8-118.98-117.4-24.61-257.3-51.68-406-66.02-124.7-11.87-259-17.69-410.7-17.69" style="fill:#211d1d;fill-opacity:1;fill-rule:nonzero;stroke:none" transform="matrix(.02713 0 0 -.02713 -614.53 223.23)"/><path d="M26342.9 4439.41h-5.5c-293 1.29-592.8 78.29-867.1 222.58-235.3 123.79-441.4 294.22-565.6 467.42-232.5 324.3-350.3 1118.21-355.2 1151.8-1.8 12.5 6.9 24.1 19.4 25.98 12.6 1.79 24.1-6.88 25.9-19.38 1.2-8.12 121.1-816.52 347.1-1131.72 237.5-331.29 793.3-668.2 1395.7-670.89 1.7-.08 3.4-.08 5-.08 266.9 0 580.2 97.5 882.8 274.76 253.5 148.52 467.9 336.14 546.3 477.82 174.7 316.21 258.6 731.09 293.1 950.31 1.9 12.5 13.6 21.09 26.1 19.1s21-13.71 19.1-26.21c-35-222.19-120.1-643.01-298.3-965.31-147.7-267.39-833.7-776.18-1468.8-776.18" style="fill:#211d1d;fill-opacity:1;fill-rule:nonzero;stroke:none" transform="matrix(.02713 0 0 -.02713 -614.53 223.23)"/></g></svg>