<svg xmlns="http://www.w3.org/2000/svg" xml:space="preserve" width="200mm" height="200mm" viewBox="0 0 200 200"><g style="display:inline"><path d="M9248.59 31520.8c0-863.2 3121.01-886.4 3117.71 0-3.3 898.2-3117.71 846.8-3117.71 0" style="fill:#fff;fill-opacity:1;fill-rule:nonzero;stroke:none" transform="matrix(.0288 0 0 -.0288 -211.586 975.502)"/><path d="M10840.3 32155.4c-2.5 0-4.9 0-7.4-.1-403.2-.7-797.1-61.2-1080.71-165.9-220.71-81.5-483.67-229-483.67-468.6 0-145.4 93.08-272.8 276.79-378.5 277.07-159.5 749.69-255.8 1264.29-257.6 515.7-2.1 988 92.2 1262.4 251.5 182.6 106 274.9 235.4 274.4 384.5-1.7 436.5-780.4 634.7-1506.1 634.7m-18.1-1310.7c-495 0-992.4 87.8-1296.81 263-196.87 113.4-296.8 252.4-296.8 413.1 0 207.8 176.29 382.8 509.81 506 287.8 106.3 686.7 167.7 1094.4 168.4 407.3.9 784.1-56.6 1062-161.5 320.7-121 490.7-298.4 491.5-512.8.6-164.5-98.4-305.5-294.3-419.2-295.3-171.5-781.3-257-1269.8-257" style="fill:#211d1d;fill-opacity:1;fill-rule:nonzero;stroke:none" transform="matrix(.0288 0 0 -.0288 -211.586 975.502)"/><path d="M9270.12 31442.8c0-863.1 3121.08-886.3 3117.78 0-3.4 898.3-3117.78 846.8-3117.78 0" style="fill:#e8ead3;fill-opacity:1;fill-rule:nonzero;stroke:none" transform="matrix(.0288 0 0 -.0288 -211.586 975.502)"/><path d="M10861.9 32077.4h-7.4c-403.3-.7-797.2-61.2-1080.71-166-220.7-81.5-483.67-228.9-483.67-468.6 0-145.4 93.08-272.7 276.79-378.5 277.07-159.5 749.69-255.8 1264.29-257.6 515.8-2.1 988 92.2 1262.4 251.6 182.6 106 274.9 235.4 274.3 384.5-1.6 436.4-780.4 634.6-1506 634.6m-18.1-1310.7c-495 0-992.51 87.8-1296.81 263.1-196.99 113.3-296.79 252.3-296.79 413 0 207.9 176.21 382.9 509.68 506 287.82 106.3 686.72 167.7 1094.52 168.5 406.6.7 784-56.6 1061.9-161.5 320.8-121.1 490.7-298.4 491.5-512.9.6-164.4-98.4-305.4-294.2-419.1-295.3-171.5-781.4-257.1-1269.8-257.1" style="fill:#211d1d;fill-opacity:1;fill-rule:nonzero;stroke:none" transform="matrix(.0288 0 0 -.0288 -211.586 975.502)"/><path d="M13337.7 30944.8c-49.2-63.8-105.9-121.2-170.6-169.5-213-159-483.5-232.9-744.9-209.8-341.3 30.3-664 228.3-857.3 520.5s-255 672.2-169.6 1014.9c39.9 160.6 110.9 313.2 209.4 444.2 214.1 284.5 561.9 456.3 910.7 449.7 348.8-6.5 690.3-191.2 894.2-483.6 181.4-260 235.4-585.8 189-898.9-34.8-234.6-115.5-479.1-260.9-667.5" style="fill:#307956;fill-opacity:1;fill-rule:nonzero;stroke:none" transform="matrix(.0288 0 0 -.0288 -211.586 975.502)"/><path d="M12496.2 32978.2c-336.5 0-671.5-168.6-878.1-443.2-95.3-126.7-166.8-278.2-206.6-438.2-84.8-340.6-22.2-715 167.3-1001.5 192.9-291.5 508.7-483.3 844.9-513.1 259.5-22.9 526.8 52.3 733.3 206.5 61.3 45.7 117.6 101.7 167.4 166.3 163.5 211.9 230.3 475.7 257.6 659.7 48.9 329.8-17.2 644.7-186.1 886.9-200.5 287.4-538.1 470-880.8 476.5-6.3.1-12.6.1-18.9.1m19.7-2433.6c-31.8 0-63.5 1.4-95.2 4.2-346.3 30.7-671.4 228.1-869.8 527.9-194.7 294.3-259 678.7-171.9 1028.2 40.9 164.3 114.3 320 212.3 450.2 216.8 288.2 570.6 463.3 924.4 456.5 353.3-6.6 701.1-194.7 907.7-490.8 173.8-249.2 241.9-572.7 191.7-911-27.8-187.9-96.3-457.7-264.2-675.3-51.6-67-110.1-125.1-173.8-172.6-187.8-140.3-424.4-217.3-661.2-217.3" style="fill:#211d1d;fill-opacity:1;fill-rule:nonzero;stroke:none" transform="matrix(.0288 0 0 -.0288 -211.586 975.502)"/><path d="M13300.8 30980.9c-47.1-61.1-101.3-115.9-163.2-162.2-203.8-152.2-462.6-222.9-712.8-200.7-326.6 28.9-635.4 218.4-820.4 498-184.9 279.6-243.9 643.2-162.3 971.1 38.3 153.8 106.2 299.8 200.4 425.1 204.9 272.2 537.7 436.6 871.5 430.3 333.7-6.2 660.5-183 855.7-462.8 173.5-248.7 225.2-560.5 180.8-860.1-33.3-224.4-110.5-458.4-249.7-638.7" style="fill:#fff;fill-opacity:1;fill-rule:nonzero;stroke:none" transform="matrix(.0288 0 0 -.0288 -211.586 975.502)"/><path d="M12495.6 32926.1c-321.8 0-642.2-161.3-839.8-423.9-91.2-121.1-159.5-266.1-197.6-419.1-81.1-325.7-21.3-683.8 160.1-957.9 184.4-278.8 486.4-462.2 808-490.7 248.2-22 503.9 50 701.3 197.5 58.6 43.7 112.4 97.2 160.1 159 156.3 202.7 220.2 455 246.3 631 46.8 315.4-16.4 616.6-177.9 848.2-191.8 275-514.6 449.6-842.4 455.7-6 .2-12.1.2-18.1.2m18.8-2328.7c-30.4 0-60.8 1.3-91.1 4-331.5 29.4-642.8 218.3-832.7 505.4-186.4 281.8-247.9 649.7-164.6 984.4 39.2 157.3 109.4 306.3 203.3 431 207.6 275.9 546.9 443.4 885 436.9 338.3-6.3 671.2-186.4 869-469.9 166.4-238.5 231.6-548.2 183.6-872-26.7-180-92.2-438.2-252.9-646.5-49.5-64.2-105.5-119.8-166.5-165.3-179.8-134.3-406.3-208-633.1-208" style="fill:#211d1d;fill-opacity:1;fill-rule:nonzero;stroke:none" transform="matrix(.0288 0 0 -.0288 -211.586 975.502)"/><path d="M13125.4 32655.7c11.5-9.4 22.7-19.2 33.5-29.3 149.9-138.9 254.3-329.5 292.3-533.8 72.6-390.4-29.4-779.8-281.5-1080.8-132.4-158-304.6-288.2-508-322.4-221.5-37.3-451.6 31.8-639.2 153.4-295.8 191.6-508.6 525.4-533.1 885.2-13.9 202.9 28.7 411.6 122.5 590.6 87.4 166.7 223.9 277.5 375.6 377 167.3 109.8 351 175.3 551.5 168.2 205.8-7.3 423.4-73.9 586.4-208.1" style="fill:#e7e2b9;fill-opacity:1;fill-rule:nonzero;stroke:none" transform="matrix(.0288 0 0 -.0288 -211.586 975.502)"/><path d="M12509.9 32847.9c-172.9 0-345.5-55.8-513.4-166-132.4-86.9-279.8-198.9-370.1-370.9-91.5-174.6-134.3-381.2-120.6-581.8 23.4-343.3 224.8-677.7 525.6-872.6 202.7-131.4 425.6-185 627.6-151 223.9 37.6 394.5 193 498.1 316.7 247.8 295.9 349.1 684.9 278 1067.3-37.5 201.4-139.5 387.8-287.3 524.8-10.5 9.6-21.5 19.3-32.8 28.6-148.5 122.2-358.6 196.6-576.6 204.4-9.5.3-19 .5-28.5.5m28.1-2185.1c-174 0-356.2 57.1-524.5 166.2-309.3 200.4-516.4 544.5-540.5 897.9-14.1 206.6 30 419.5 124.3 599.3 93.8 178.8 245.3 294 381.1 383.1 183 120.1 371.8 177.6 561.1 170.9 225.1-8 442.5-85.2 596.4-211.8 11.8-9.8 23.3-19.8 34.2-29.9 152.9-141.8 258.5-334.6 297.3-542.9 72.9-392.1-31-791-285.1-1094.4-153.7-183.5-332.8-296.9-517.8-328-41.5-7-83.7-10.4-126.5-10.4" style="fill:#211d1d;fill-opacity:1;fill-rule:nonzero;stroke:none" transform="matrix(.0288 0 0 -.0288 -211.586 975.502)"/><path d="M11611.5 32164.9c-16.9-43.4-29.5-97.1-1.3-133.8 19.7-25.4 52.9-34 83.7-41 162.6-36.8 509.6-128.1 670.7-166.8 31.2-7.5 55.1 28.5 37 55.8l-141.6 195c-13.1 17.9-24.5 37.1-34 57.2-43.1 91.1-80.9 188.9-125.2 278.2-20.2 40.7-41 82.1-72.5 114.1-31.6 32-76.4 53.6-119.9 45.2-50.1-9.7-85.4-54.9-116.1-96.9-39.6-54.2-79.2-108.5-113.1-166.6-26.1-44.8-48.8-91.8-67.7-140.4" style="fill:#8da14c;fill-opacity:1;fill-rule:nonzero;stroke:none" transform="matrix(.0288 0 0 -.0288 -211.586 975.502)"/><path d="M11626.8 32159c-21.2-54.8-22.4-93.3-3.5-117.8 15.6-20.4 42.9-27.9 74.3-35 95.4-21.7 251-61.2 401.5-99.4 104.3-26.5 202.8-51.5 269.4-67.5 11-2.6 17.4 5.1 19.1 7.5 3.9 5.6 6 14.6.3 23.3l-141.2 194.3c-13.9 19.1-25.8 39.2-35.6 59.9-19.2 40.6-37.6 83.1-55.4 124.2-22.2 51.3-45.2 104.3-69.7 153.7-19.4 39-39.4 79.4-69.4 109.9-31.6 32-70.9 47.2-105 40.5-43-8.3-74.7-47.5-106-90.4-38.7-52.9-78.6-107.5-112.2-165.1-25.6-44-48-90.5-66.6-138.1m746.2-353.1c-4 0-8.1.4-12.2 1.4-66.8 16.1-165.4 41.1-269.8 67.6-150.2 38.2-305.7 77.7-400.7 99.2-36.3 8.3-70.8 18-93.1 47-26.5 34.5-26.8 83.4-1 149.8 19.2 49.2 42.3 97.3 68.8 142.7 34.5 59.1 74.9 114.4 114 168 33.9 46.4 71.6 92.7 126.3 103.3 45 8.8 95.3-9.8 134.7-49.7 33.7-34.3 55.9-79 75.5-118.4 24.9-50.1 48-103.6 70.4-155.3 17.7-40.8 36-83.1 54.9-123.2 8.9-18.8 19.8-37.1 32.5-54.6l141.6-194.9c12.6-19.1 12.3-42.8-.4-60.9-9.9-14.2-25.2-22-41.5-22" style="fill:#211d1d;fill-opacity:1;fill-rule:nonzero;stroke:none" transform="matrix(.0288 0 0 -.0288 -211.586 975.502)"/><path d="M11576.2 31882.3c-25.8-75.7-39.1-221-6.6-313.4 43.7-124.5 91.7-229.7 219.5-219.4 88.7 7.1 205.9 54.3 278.4 107.6 105 77.1 210 154.2 315.1 231.4 17 12.5 36.5 30.8 26 52.9-4.9 10.3-14.7 17.4-25.6 19.7l-749.2 155.1c-24.7 5.1-49.2-9.3-57.6-33.9" style="fill:#8da14c;fill-opacity:1;fill-rule:nonzero;stroke:none" transform="matrix(.0288 0 0 -.0288 -211.586 975.502)"/><path d="M11576.2 31882.3h.1zm47.5 18.5c-14.2 0-27-9.2-32-23.8-23.3-68.4-38.6-211.7-6.6-302.7 42-119.6 86.3-217.9 202.7-208.4 83 6.6 196.6 50.5 270 104.4l315 231.4c27 19.8 22.8 28.8 21 32.6-2.6 5.4-7.9 9.4-14.2 10.7l-749.1 155.1c-2.3.5-4.5.7-6.8.7m148.1-568.5c-125.7 0-174.9 109.2-217.7 231.1-32.6 92.8-22 240.6 6.5 324.3 11 32.2 44 51.3 76.5 44.6l749.2-155.1c16.3-3.4 30.2-14.1 37.1-28.7 11.8-24.8 1.3-49.5-31.1-73.3l-315-231.4c-77.8-57.1-198.4-103.6-286.9-110.7-6.4-.5-12.6-.8-18.6-.8" style="fill:#211d1d;fill-opacity:1;fill-rule:nonzero;stroke:none" transform="matrix(.0288 0 0 -.0288 -211.586 975.502)"/><path d="M12621 31744.8c-25.8-1.3-32.9-33.9-10.5-46.9 154.6-89.9 293-205.4 416.9-332.4 26.2-26.8 52.6-54.7 86.1-73.2 22.5-12.4 48.4-20 73.7-17.7 23.5 2.1 45.2 12.6 62.8 27.1 17.6 14.6 31.2 33 42.7 52.4 27.4 46.3 43 98.3 57.7 149.8 8.7 30.3 16.2 60.9 22.4 91.8 6.2 31.3 13.2 74.2-12.4 100-24 24.2-65.3 22.8-96.7 24.8-51.4 3.3-102.7 3-154.1 5.3-69.4 3.2-138.8 6.2-208.1 9.4-4.9.2-9.8.4-14.6.6-57.1 2.6-114.1 5.2-171.2 7.9-31.5 1.4-63.4 2.8-94.7 1.1" style="fill:#8da14c;fill-opacity:1;fill-rule:nonzero;stroke:none" transform="matrix(.0288 0 0 -.0288 -211.586 975.502)"/><path d="M12621 31744.8h.1zm30.8-15.6c-10 0-20-.2-29.9-.8-5.9-.3-7.6-3.9-8.1-6.1-.4-1.5-1.1-6.7 5-10.2 143.2-83.3 284.7-196.1 420.4-335.1l3.5-3.7c24-24.6 48.9-50.1 78.8-66.6 15.3-8.5 38.8-18.1 64.2-15.8 23.6 2.2 42.3 14 53.8 23.5 14 11.6 26.8 27.3 39.1 48 25.5 43.2 40.5 91.7 56 146 8.7 30.5 16.2 60.9 22.1 90.6 6.6 33.3 10.3 66.7-8 85.2-16.4 16.5-46.7 18-73.4 19.3-4.3.2-8.6.4-12.6.6-28.9 1.9-58.5 2.6-87 3.2-21.9.6-44.5 1.1-66.8 2.1l-91.8 4.1c-38.8 1.7-77.6 3.5-116.4 5.2l-30.1 1.4c-51.9 2.4-103.8 4.7-155.7 7.2-20.7.9-41.9 1.9-63.1 1.9m526.2-471.5c-29.3 0-55.2 10.7-72.4 20.2-34.1 18.9-60.7 46.1-86.4 72.5l-3.6 3.6c-133.6 136.9-272.7 247.9-413.4 329.7-16.6 9.6-24.8 28.3-20.4 46.3 4.3 18 19.4 30.2 38.3 31.2 32.6 1.8 66.5.3 96.3-1.1 51.9-2.4 103.8-4.8 155.8-7.2l30-1.3c38.8-1.8 77.6-3.5 116.3-5.2l91.9-4.1c21.9-1.1 44.4-1.6 66-2.1 28.9-.7 58.8-1.4 88.3-3.3 4-.2 8-.4 12.2-.6 31.1-1.5 69.7-3.4 95.1-29 33.1-33.4 22.6-86.4 16.9-114.8-6.1-30.5-13.7-61.8-22.7-93.1-16.2-56.6-31.8-107.2-59.3-153.7-14.3-24.1-29.5-42.6-46.4-56.6-21.7-17.9-46.5-28.6-71.8-30.9-3.6-.3-7.2-.5-10.7-.5" style="fill:#211d1d;fill-opacity:1;fill-rule:nonzero;stroke:none" transform="matrix(.0288 0 0 -.0288 -211.586 975.502)"/><path d="M12564.7 31689c-15.5 11.9-37.1-2.5-32.9-22 35.4-168.5 74.6-336.3 108.8-505 13.2-64.8 24.8-130.2 43.3-193.7 7.4-25.5 16.3-51.4 33.5-71.3 28.7-33 76.2-43.1 118.6-35.8 56.7 9.7 106.9 44.8 154.6 75.8 36.5 23.7 72.2 49 104.8 78.2 25.3 22.9 66.4 55.7 61.5 95.3-3.8 31.5-29.1 57.5-56.1 79.9-17.2 14.2-35.1 27-48.6 38.8-93.3 81.6-181.6 168-271.2 253.9-69.5 71.5-137.7 145.7-216.3 205.9" style="fill:#8da14c;fill-opacity:1;fill-rule:nonzero;stroke:none" transform="matrix(.0288 0 0 -.0288 -211.586 975.502)"/><path d="m12552.3 31676.9-2.2-.7c-1.2-.8-3-2.5-2.3-5.8 15.3-72.6 31.5-146.3 47.2-217.5 20.8-94.2 42.2-191.5 61.7-287.6 2.5-12.1 4.9-24.2 7.3-36.3 10.2-51.7 20.8-105.1 35.7-156.1 6.4-22.1 14.6-47.1 30.1-65.1 26.9-30.9 71-36 103.4-30.4 48.9 8.3 93.8 37.6 137.1 66l11.3 7.4c43.4 28.2 75.1 51.8 102.8 76.7l6 5.4c22.7 20.1 53.7 47.6 50.2 75.6-3.3 27.1-28.6 51.3-50.3 69.2-7.5 6.2-15.1 12.2-22.5 17.9-9.5 7.4-18.5 14.4-26.4 21.2-78.4 68.6-154.4 141.6-227.9 212.3-14.6 14.1-29.2 28.1-43.8 42.1-10.2 10.4-19.9 20.5-29.6 30.5-58.4 60.6-118.8 123.2-185.4 174.2-.4.3-1.2 1-2.4 1m257.4-834.4c-41.8 0-80.3 15.7-104.7 43.8-19.9 23-29.5 52-36.9 77.4-15.2 52.4-26 106.5-36.4 158.9-2.4 12-4.8 24.1-7.2 36.2-19.4 95.8-40.9 193-61.6 287-15.7 71.3-31.9 145.1-47.2 217.8-3.4 15.9 3.2 31.8 16.8 40.4 13.2 8.3 29.8 7.5 42.2-2 68.6-52.5 129.8-116 189.1-177.4 9.6-10.1 19.3-20.1 29-30.1 14.2-13.6 28.9-27.6 43.5-41.7 73.2-70.4 148.9-143.2 226.7-211.2 7.2-6.3 15.8-13 25-20.1 7.6-5.9 15.5-12 23.2-18.4 26.5-21.9 57.3-52 62-90.6 5.6-45.2-34.4-80.7-60.9-104.2l-6-5.3c-28.9-26-61.9-50.6-106.8-79.8l-11.2-7.3c-46.2-30.2-93.9-61.4-149.5-70.9-9.8-1.7-19.5-2.5-29.1-2.5" style="fill:#211d1d;fill-opacity:1;fill-rule:nonzero;stroke:none" transform="matrix(.0288 0 0 -.0288 -211.586 975.502)"/><path d="M11910.1 31162c-13.1-64.2 56-137.5 102.7-179.4 46.8-41.9 105.9-64.2 163.7-85.7 67.8-25.2 135.7-50.4 203.6-75.6 44-16.3 98.4-30.6 133 3.3 28.1 27.6 28.5 73.9 26.8 114.4-6.1 142.1-41.6 646.5-54.3 694.1-6.8 25.5-36.6 35.6-56.6 19.2-45.5-37.1-112-99.6-142-127.9-81.4-77-162.9-154-244.4-231-40.9-38.7-120.9-74.6-132.5-131.4" style="fill:#8da14c;fill-opacity:1;fill-rule:nonzero;stroke:none" transform="matrix(.0288 0 0 -.0288 -211.586 975.502)"/><path d="M11926.2 31158.7c-8.5-41.6 26.2-99.7 97.6-163.9 45-40.4 102.6-61.8 158.4-82.5 67.9-25.2 135.8-50.4 203.6-75.6 39.2-14.6 87.8-27.8 115.7-.3 23.3 22.8 23.5 64.5 21.9 101.9-6.2 147.6-41.7 645.7-53.7 690.6-1.8 6.8-6.5 12-13 14-6 2-12.4.8-17.4-3.3-31.7-25.9-79.2-68.7-141-127.2-81.5-77-162.9-153.9-244.4-230.9-13.3-12.6-29.7-24.3-47.1-36.8-36.3-26-73.8-52.8-80.6-86m531.5-371.3c-28.1 0-57.5 8.9-83.3 18.4-67.9 25.3-135.8 50.5-203.7 75.7-55.8 20.8-119.2 44.3-168.8 88.9-82.8 74.3-119.2 139.9-107.9 194.9 9.3 45.8 54.2 77.9 93.7 106.2 16.4 11.7 32 22.8 43.7 33.9 81.4 77 162.9 153.9 244.4 230.9 62.3 59 110.4 102.3 142.8 128.8 13.5 11.1 31.6 14.5 48.2 9.1 17.1-5.5 30-19.3 34.7-36.9 13.3-50.2 49.1-562.7 54.8-697.6 1.9-44.5 1.1-94.5-31.7-126.8-19.2-18.8-42.5-25.5-66.9-25.5" style="fill:#211d1d;fill-opacity:1;fill-rule:nonzero;stroke:none" transform="matrix(.0288 0 0 -.0288 -211.586 975.502)"/><path d="M12616.3 31901.4c-14.9-24.4-29.6-55.5-11.1-77.2 13.5-16 39.1-18.9 61.8-19.6 220.8-6.4 416.2 82 588.2 162.2 40.5 18.9 81.9 38.7 108.9 73.2 26.7 34.3 32.8 80.4 22.5 122.3-5.4 21.6-19.5 41.9-30.6 61.4-6.5 11.3-13 22.5-19.7 33.7-6.4 10.5-12.8 21-19.4 31.5-27.5 43.6-57.5 86.7-89.7 129.1-17.6 23.1-36.1 46.2-58.7 65.3-21.3 17.9-50.5 35.8-78.6 37.4-26.4 1.6-52.5-6.4-74-19.7-31.4-19.5-54.4-49.3-75.9-79.5-36.8-52-70.4-106.8-104.3-162.2-71.6-116.8-144.7-236.1-219.4-357.9" style="fill:#8da14c;fill-opacity:1;fill-rule:nonzero;stroke:none" transform="matrix(.0288 0 0 -.0288 -211.586 975.502)"/><path d="M12630.3 31892.8c-17.7-28.9-21.7-47.3-12.6-58 9.5-11.1 31.6-13.2 49.8-13.7 222.1-6.6 421 86.1 580.8 160.6 36.4 17 77.8 36.3 102.8 68.5 22 28.2 29.3 68.6 19.5 108.1-3.6 14.7-12.7 30-21.5 44.7-2.5 4.2-5 8.4-7.4 12.6-6.4 11.1-12.9 22.2-19.5 33.4-6.3 10.3-12.7 20.7-19.2 31.1-27.2 43-57.1 86.1-88.9 128-16.5 21.6-34.4 44.3-56.2 62.6-24 20.2-49.2 32.4-69 33.6-21.6 1.3-44.4-4.9-64.3-17.2-29.6-18.4-51.4-47.2-71.2-75.1-36.6-51.8-70.7-107.4-103.7-161.3zm59.6-104.9q-11.7 0-23.4.3c-26.5.8-56.1 4.4-73.9 25.3-28.7 33.8-.8 79.3 9.7 96.4v.1l219.4 357.9c33.2 54.3 67.6 110.4 104.9 163.1 20.8 29.3 45.9 62.4 80.7 84 25.6 15.9 55.3 23.7 83.5 22.1 36.7-2.1 71-26.8 88.3-41.3 24.3-20.4 43.6-44.7 61.1-67.8 32.5-42.7 62.9-86.5 90.6-130.4 6.6-10.5 13.2-21.1 19.6-31.7 6.7-11.4 13.3-22.7 19.8-34 2.3-4 4.7-8 7.1-12.1 10-16.7 20.4-34.1 25.2-53.6 12.2-49.2 2.7-100.1-25.4-136.2-30-38.4-75.1-59.5-114.9-78.1-157.4-73.3-352-164-572.3-164" style="fill:#211d1d;fill-opacity:1;fill-rule:nonzero;stroke:none" transform="matrix(.0288 0 0 -.0288 -211.586 975.502)"/><path d="M12177.9 32659.4c-16.1-31.7-18.1-69.4-12.3-104.9 13.7-83.8 49.6-161.4 80.1-238.6 11.1-28.1 22.8-55.9 35-83.3 21.7-48.4 45.1-95.6 70.2-141.8 24.2-44.6 50.1-88.1 77.5-130.5 18.2-28 50.1-96.4 92.3-91.6 45.2 5 59 85.8 72.2 119 16.1 40.2 29.6 81.8 45.4 122.6 21.3 54.6 48.3 107.3 75.8 160 39.4 75.7 80.7 152.4 106.9 235.8 13 41.3 25.3 85.5 25.9 129.4 1.1 81.9-47.7 127.6-123.3 142.6-66.6 13.3-135.3 10-203 5.7-108.4-6.8-285.4-11.9-342.7-124.4" style="fill:#8da14c;fill-opacity:1;fill-rule:nonzero;stroke:none" transform="matrix(.0288 0 0 -.0288 -211.586 975.502)"/><path d="M12192.5 32652c-16.4-32.4-14.9-69.4-10.7-94.8 11-67.4 37.3-132.1 62.8-194.7 5.5-13.6 11-27.1 16.4-40.6 10.8-27.4 22.5-55.2 34.8-82.6 21.3-47.7 44.7-95 69.5-140.6 23.9-44 49.8-87.5 76.9-129.4 3-4.6 6.3-10.2 9.9-16.4 15.6-26.5 41.8-70.6 66.8-67.9 25.2 2.8 40 50.5 49.8 82 3.1 9.9 6 19.3 9 26.8 8.5 21.3 16.5 43.5 24.1 65 6.8 18.8 13.8 38.3 21.2 57.4 21 54 47.1 105.2 76.5 161.7l8.2 15.6c36.2 69.5 73.7 141.2 97.6 217.5 11.9 37.7 24.6 81.6 25.1 124.7 1 69.1-36 111.6-110 126.3-63.2 12.6-127.4 9.9-198.8 5.4l-16.3-1c-104.5-6.3-262.5-15.8-312.8-114.4m323.8-800c-42.8 0-72.5 50.3-92.5 84.2-3.4 5.7-6.5 11-9.2 15.2-27.6 42.6-53.9 86.9-78.2 131.6-25.2 46.3-49 94.4-70.7 142.9-12.4 27.8-24.3 56.1-35.3 84-5.3 13.3-10.7 26.8-16.2 40.2-26.2 64.3-53.2 130.7-64.9 201.8-4.9 30.2-6.5 74.7 13.9 115 58.8 115.4 228.1 125.6 340.1 132.3l16.3 1c73.7 4.7 140.1 7.4 207.2-5.9 89.2-17.8 137.7-74.3 136.5-159.1-.6-47.5-14.1-94.1-26.6-134-24.9-79.1-63-152.2-99.9-222.9l-8.1-15.6c-29-55.7-54.7-106-75.1-158.4-7.2-18.7-14.1-38-20.8-56.6-7.8-21.8-15.9-44.3-24.6-66.1-2.5-6.3-5.2-15.1-8.1-24.3-13.1-42.1-31-99.7-77.5-105q-3.15-.3-6.3-.3" style="fill:#211d1d;fill-opacity:1;fill-rule:nonzero;stroke:none" transform="matrix(.0288 0 0 -.0288 -211.586 975.502)"/><path d="M10806.2 27202.8c-91.3 0-180.5 3.4-265.6 11.9-92.2 9.1-180 26.2-262.2 44-93.2 20.3-177.6 49.6-253.8 79.2-93.9 36.7-173.58 77.9-234.29 125.8-85.19 67.4-130.31 143.4-130.31 225s46.6 155.4 131.91 222.8c60.59 48 137.5 95.2 233.29 126.2 186.7 60.6 76.7 32.1 254.5 74.6 81.8 19.6 169.1 36.3 261.4 45.4 85.1 8.5 173.8 15.3 265.1 15.3 91.2 0 180.2-4.8 265.3-13.3 92.2-9.1 181.3-18.2 263.5-36 93.2-20.2 179.1-47.8 255.2-77.5 94-36.6 168.8-87.9 229.5-135.8 85.2-67.4 135.1-140.1 135.1-221.7s-49-155.6-134.2-223c-60.6-48-135.3-100.9-229.3-137.5-76.1-29.7-163.7-51.3-256.9-71.6-82.2-17.8-171.3-23-263.6-32.2-85.1-8.4-173.4-21.6-264.6-21.6" style="fill:#fcfefe;fill-opacity:1;fill-rule:nonzero;stroke:none" transform="matrix(.0288 0 0 -.0288 -211.586 975.502)"/><path d="M10806.2 28152.4c-97.7 0-191.9-8.1-263.1-15.1-81.1-8-165.7-22.7-258.6-45-23.3-5.5-41.6-9.9-56.3-13.4-58.9-13.9-58.9-13.9-86.2-23.5-17.7-6.3-47.3-16.7-110.5-37.2-80.48-26.1-156.89-67.5-226.89-122.8-83.52-66-124.02-133.6-124.02-206.7 0-74.3 41.21-144.6 122.5-208.9 56.21-44.4 131.13-84.6 229.01-122.7 95.5-37.3 172.8-61.4 250.7-78.3 75.3-16.3 165-34.3 259.8-43.7 80-7.9 166.2-11.8 263.6-11.8 67.6 0 134.3 7.5 198.9 14.7 21.4 2.4 42.7 4.8 63.7 6.9 19.8 1.9 39.5 3.7 59 5.5 71.4 6.5 138.9 12.6 202.3 26.3 81 17.6 174.6 39.8 253.8 70.6 94.3 36.8 169.2 91.2 224 134.5 83.9 66.3 126.4 135.9 126.4 206.9 0 70.6-41.7 137.8-127.4 205.6-48.6 38.4-124.7 94-224.1 132.8-83.9 32.6-168.7 58.4-252.2 76.5-83.4 18.1-177.8 27.4-261.1 35.7-88 8.7-176.5 13.1-263.3 13.1m0-970.1c-98.8 0-186.3 3.9-267.6 11.9-96.9 9.6-188.1 27.9-264.6 44.5-80 17.3-159.2 42-256.8 80.1-101.81 39.7-180.21 81.8-239.58 128.8-91.72 72.5-138.13 153.6-138.13 241.1 0 85.3 46.99 165.6 139.61 238.9 73.91 58.4 154.49 102 239.8 129.7 62.6 20.3 92 30.6 109.5 36.8 29.3 10.3 30.4 10.6 90.4 24.8 14.6 3.5 32.9 7.8 56.1 13.4 94.8 22.6 181.2 37.7 264.2 45.9 72.1 7.1 167.6 15.3 267.1 15.3 88.1 0 178-4.5 267.3-13.3 84.4-8.4 180.1-17.8 265.9-36.5 85.5-18.5 172.5-44.9 258.3-78.4 104.6-40.7 184-98.7 234.7-138.8 96.2-76.1 143-153.9 143-237.8 0-84.2-47.8-164.6-142-239.1-57-45.1-135.2-101.8-234.6-140.6-81.9-31.9-177.4-54.5-260-72.4-65.9-14.3-134.6-20.5-207.3-27.1-19.4-1.8-38.9-3.6-58.6-5.5-20.9-2.1-42-4.4-63.3-6.8-65.6-7.4-133.5-14.9-203.4-14.9" style="fill:#211d1d;fill-opacity:1;fill-rule:nonzero;stroke:none" transform="matrix(.0288 0 0 -.0288 -211.586 975.502)"/><path d="m10521.5 29903.3-332.6 510.9 1135.4-148.1-237.4-382.6c-85.7-114.5-137.5-266.1-138.4-421.2l-7.7-1298c-.1-15.4.7-30.9 2.5-46.2 21.5-181.7 136.2-358.4 138.6-387.5 2.4-30.6-98.8-99.5-286.4-102-135.7-1.9-217.2 56.4-251.9 88.7-10.9 10.2-11.3 27.5-1.6 39 52.2 61.6 85 183.1 103.3 274.1 12.7 63.1 19 127.4 19.2 191.8l4.3 1228.4c1 161.3-45.6 321.2-147.3 452.7" style="fill:#e6f6f4;fill-opacity:1;fill-rule:nonzero;stroke:none" transform="matrix(.0288 0 0 -.0288 -211.586 975.502)"/><path d="M10538.3 29915.2c99.9-129.5 152.1-290.2 151.1-464.7l-4.4-1228.4c-.2-66.3-6.8-132.2-19.6-195.7-18.8-93.4-52.7-218.4-107.7-283.4-2.8-3.3-2.9-8.1-.1-10.7 33.6-31.3 108-83.2 231.6-83.2h6c170.5 2.3 259.4 61 266 80.5-1.7 7.2-13.6 31.4-24.1 52.8-36.9 75.5-98.6 201.9-114.2 333.3-1.8 15.4-2.7 31.8-2.6 48.7l7.6 1298c.9 155.3 52.7 312.9 142 432.7l220.1 354.7-1059.5 138.2zm250.9-2307.2c-137.7 0-221.6 58.8-259.6 94.3-18.9 17.6-20.3 47.2-3.3 67.3 49.4 58.3 81 176.2 98.9 264.9 12.2 60.9 18.5 124.1 18.8 187.8l4.3 1228.4c1 165.6-48.5 317.8-143 440.1l-1 1.3-356.9 548.2 1211.1-158-255.1-411.1c-84.6-113-133.5-262-134.4-409.1l-7.6-1297.9c-.1-15.3.7-30 2.3-43.7 14.7-124.5 74.6-246.9 110.3-320 19.4-39.7 27.4-56.3 28.3-68.3 1-12.1-4.3-24.7-15.9-37.3-38-41.8-142.6-84.9-290.6-86.9z" style="fill:#211d1d;fill-opacity:1;fill-rule:nonzero;stroke:none" transform="matrix(.0288 0 0 -.0288 -211.586 975.502)"/><path d="m10004 30713.2 331.4-439.1c102.3-139.1 296-236.4 474.5-238.4 189.8-2 367.4 88.6 470.7 240.1l311.8 415.4c429.3 141.4 791.6 456.5 830.9 897.9 2.1 23.7-25.7 37.2-41.8 20.2-74-77.8-164.1-159.7-235.7-230.2-84.8-83.5-163-141.9-282.9-200.4-100-48.7-212.9-77.5-339.5-104.9-111.7-24.4-232.8-31.4-358.1-43.9-115.6-11.4-235.6-29.2-359.6-29.2s-245.1 4.6-360.8 16c-125.3 12.3-244.5 35.6-356.2 60-126.59 27.3-241.4 67.1-344.91 107.5-127.5 49.8-235.78 105.7-318.09 170.9-91.48 72.3-122.89 103-162.3 170.4-5.51 9.5-19.81 5.3-19.49-5.8 10.19-472.8 334.88-660 760.09-806.5" style="fill:#fff;fill-opacity:1;fill-rule:nonzero;stroke:none" transform="matrix(.0288 0 0 -.0288 -211.586 975.502)"/><path d="M9265.9 31482.7c24.41-418.1 304.1-598.3 744.8-750.1l5.9-2 335.2-444.1c98.3-133.7 286.8-228.3 458.4-230.2 2-.1 4-.1 6-.1 181.6 0 348.5 86.1 447.4 231.1l316.3 421.3 6.1 2.1c476.4 157 781.7 486 816.8 880.2.3 3.1-1.3 4.5-2.6 5.1-1.9.9-3 0-3.8-.8-48.2-50.7-102.5-102.5-155.1-152.6-28.7-27.4-55.9-53.3-81.1-78.1-92.3-90.8-173.1-148.1-288.3-204.3-98-47.8-208.5-77.1-344.2-106.5-88.4-19.3-180.8-27.7-278.7-36.6-27-2.4-54.2-4.9-81.7-7.7-28.5-2.8-57.3-6-86.4-9.2-88.9-9.9-180.7-20.1-275.2-20.1-133.5 0-252.2 5.3-362.8 16.1-132.1 13.1-255.4 37.9-358.6 60.4-141.02 30.5-266.1 76.5-347.89 108.5-137.7 53.7-243.52 110.6-323.52 173.9-77.3 61.1-113.2 93.5-146.99 143.7m1550.3-1467.5h-6.5c-183.7 2.1-385.5 103.5-490.8 246.7l-327.49 433.9c-454.03 157.2-758.01 358.2-768.13 823.4-.27 14.6 8.91 27 22.81 30.9 13.71 3.9 27.82-1.8 35.12-14.2 38.28-65.6 67.89-94.1 157.19-164.7 76.72-60.7 179.1-115.6 312.89-167.9 80.51-31.4 203.51-76.7 341.71-106.6 102.1-22.3 223.9-46.7 353.9-59.6 109.2-10.7 226.6-15.9 358.8-15.9 92.2 0 182.9 10.1 270.7 19.8 29.2 3.3 58.2 6.5 86.9 9.3 27.5 2.8 54.9 5.3 82 7.7 96.6 8.8 187.8 17.1 273.7 35.9 132.8 28.7 240.6 57.3 334.9 103.3 110.9 54 188.7 109.1 277.5 196.6 25.5 25 52.7 51 81.6 78.5 52.2 49.8 106.1 101.2 153.6 151.2 13.3 13.9 33.1 17.8 50.5 10 18-8.1 28.4-26.3 26.6-46.2-18.8-211.8-113.9-410.3-275-574.1-145.1-147.5-339.9-264.8-563.7-339.5l-308-410.3c-106-155.5-285.6-248.2-480.8-248.2" style="fill:#211d1d;fill-opacity:1;fill-rule:nonzero;stroke:none" transform="matrix(.0288 0 0 -.0288 -211.586 975.502)"/><path d="m10004 30613 331.4-439.1c102.3-139.2 296-236.4 474.5-238.4 189.8-2 367.4 88.5 470.7 240l311.8 415.4c451.6 148.9 817.9 485.6 823.2 963.6-79.5-91.5-182.7-190-269.8-275.6-84.8-83.5-163-142-282.9-200.4-100-48.8-212.9-77.5-339.5-104.9-111.7-24.4-232.8-31.4-358.1-43.9-115.6-11.4-235.6-29.3-359.6-29.3s-245.1 4.7-360.8 16.1c-125.3 12.3-244.5 35.5-356.2 59.9-126.59 27.4-241.4 67.2-344.91 107.6-127.5 49.8-235.78 105.7-318.09 170.9-106.09 83.8-166.4 177.4-175.82 277.7-28.28-520.9 316.72-769 754.12-919.6" style="fill:#d3d6ac;fill-opacity:1;fill-rule:nonzero;stroke:none" transform="matrix(.0288 0 0 -.0288 -211.586 975.502)"/><path d="M9271.91 31397.1c29.18-357.3 267.19-602.3 738.79-764.7l5.9-2 335.2-444.2c98.3-133.6 286.8-228.2 458.4-230.1 184-2.3 353.4 84.4 453.4 231l316.3 421.3 6.1 2c479.5 158.1 777 487.3 806.7 887.8-59.9-65.1-128.5-132.2-190.4-192.7-14.3-14-28.4-27.8-42.1-41.2-92.3-90.9-173.1-148.1-288.3-204.3-98-47.8-208.5-77.1-344.2-106.5-88.3-19.3-180.8-27.7-278.6-36.6-27-2.4-54.3-4.9-81.8-7.7-28.5-2.8-57.3-6-86.4-9.2-88.9-9.9-180.7-20.1-275.2-20.1-133.5 0-252.2 5.3-362.8 16.1-132.1 13-255.4 37.8-358.6 60.4-141.02 30.5-266.1 76.5-347.89 108.5-137.7 53.7-243.52 110.6-323.52 173.9-63.01 49.8-110.08 102.7-140.98 158.3m1544.29-1482.2c-2.2 0-4.3.1-6.5.1-183.7 2-385.5 103.5-490.8 246.7l-327.61 433.9c-344.3 119.5-794.1 347.1-761.88 938.1l40.98.8c8.71-93.6 65.31-182.3 168.01-263.5 76.72-60.7 179.1-115.6 312.89-167.9 80.51-31.4 203.59-76.7 341.71-106.6 102.1-22.3 224-46.8 353.9-59.6 109.3-10.7 226.6-15.9 358.8-15.9 92.2 0 182.9 10.1 270.7 19.8 29.2 3.3 58.2 6.5 86.9 9.3 27.5 2.8 54.9 5.3 82 7.7 96.6 8.8 187.8 17.1 273.7 35.9 132.8 28.7 240.6 57.3 334.9 103.2 110.9 54.1 188.7 109.2 277.5 196.7 13.7 13.4 27.8 27.2 42.2 41.3 75 73.4 160 156.6 226.5 233.1l36.7 42.2-.6-55.9c-2.6-229.1-88.9-443.2-249.7-618.9-144.6-158.1-345.6-283.2-581.5-361.9l-308-410.3c-106-155.5-285.6-248.3-480.8-248.3" style="fill:#211d1d;fill-opacity:1;fill-rule:nonzero;stroke:none" transform="matrix(.0288 0 0 -.0288 -211.586 975.502)"/><path d="M10681.7 30459.7c-291.6 0-456.1 53.2-463.9 55.8-10.7 3.5-16.6 15.1-13 25.9 3.5 10.8 15.1 16.6 25.9 13.1 2.1-.7 213.7-68.8 575.7-50.5 596 30.2 776.1 105.1 777.9 105.8 10.4 4.5 22.5-.3 27-10.7 4.5-10.3-.2-22.4-10.6-26.9-7.3-3.2-185.8-78.5-792.2-109.3-44.6-2.2-86.9-3.2-126.8-3.2" style="fill:#211d1d;fill-opacity:1;fill-rule:nonzero;stroke:none" transform="matrix(.0288 0 0 -.0288 -211.586 975.502)"/><path d="M9248.59 31520.8c0-863.2 3121.01-886.4 3117.71 0-3.3 898.2-3117.71 846.8-3117.71 0" style="fill:#fff;fill-opacity:1;fill-rule:nonzero;stroke:none" transform="matrix(.0288 0 0 -.0288 -211.586 975.502)"/><path d="M10840.3 32155.4c-2.5 0-4.9 0-7.4-.1-403.2-.7-797.1-61.2-1080.71-165.9-220.71-81.5-483.67-229-483.67-468.6 0-145.4 93.08-272.8 276.79-378.5 277.07-159.5 749.69-255.8 1264.29-257.6 515.7-2.1 988 92.2 1262.4 251.5 182.6 106 274.9 235.4 274.4 384.5-1.7 436.5-780.4 634.7-1506.1 634.7m-18.1-1310.7c-495 0-992.4 87.8-1296.81 263-196.87 113.4-296.8 252.4-296.8 413.1 0 207.8 176.29 382.8 509.81 506 287.8 106.3 686.7 167.7 1094.4 168.4 407.3.9 784.1-56.6 1062-161.5 320.7-121 490.7-298.4 491.5-512.8.6-164.5-98.4-305.5-294.3-419.2-295.3-171.5-781.3-257-1269.8-257" style="fill:#211d1d;fill-opacity:1;fill-rule:nonzero;stroke:none" transform="matrix(.0288 0 0 -.0288 -211.586 975.502)"/><path d="M9270.12 31442.8c0-863.1 3121.08-886.3 3117.78 0-3.4 898.3-3117.78 846.8-3117.78 0" style="display:inline;fill:#e9c6af;fill-opacity:1;fill-rule:nonzero;stroke:none" transform="matrix(.0288 0 0 -.0288 -211.586 975.502)"/><path d="M10861.9 32077.4h-7.4c-403.3-.7-797.2-61.2-1080.71-166-220.7-81.5-483.67-228.9-483.67-468.6 0-145.4 93.08-272.7 276.79-378.5 277.07-159.5 749.69-255.8 1264.29-257.6 515.8-2.1 988 92.2 1262.4 251.6 182.6 106 274.9 235.4 274.3 384.5-1.6 436.4-780.4 634.6-1506 634.6m-18.1-1310.7c-495 0-992.51 87.8-1296.81 263.1-196.99 113.3-296.79 252.3-296.79 413 0 207.9 176.21 382.9 509.68 506 287.82 106.3 686.72 167.7 1094.52 168.5 406.6.7 784-56.6 1061.9-161.5 320.8-121.1 490.7-298.4 491.5-512.9.6-164.4-98.4-305.4-294.2-419.1-295.3-171.5-781.4-257.1-1269.8-257.1" style="fill:#211d1d;fill-opacity:1;fill-rule:nonzero;stroke:none" transform="matrix(.0288 0 0 -.0288 -211.586 975.502)"/><path d="M13337.7 30944.8c-49.2-63.8-105.9-121.2-170.6-169.5-213-159-483.5-232.9-744.9-209.8-341.3 30.3-664 228.3-857.3 520.5s-255 672.2-169.6 1014.9c39.9 160.6 110.9 313.2 209.4 444.2 214.1 284.5 561.9 456.3 910.7 449.7 348.8-6.5 690.3-191.2 894.2-483.6 181.4-260 235.4-585.8 189-898.9-34.8-234.6-115.5-479.1-260.9-667.5" style="fill:#307956;fill-opacity:1;fill-rule:nonzero;stroke:none" transform="matrix(.0288 0 0 -.0288 -211.586 975.502)"/><path d="M12496.2 32978.2c-336.5 0-671.5-168.6-878.1-443.2-95.3-126.7-166.8-278.2-206.6-438.2-84.8-340.6-22.2-715 167.3-1001.5 192.9-291.5 508.7-483.3 844.9-513.1 259.5-22.9 526.8 52.3 733.3 206.5 61.3 45.7 117.6 101.7 167.4 166.3 163.5 211.9 230.3 475.7 257.6 659.7 48.9 329.8-17.2 644.7-186.1 886.9-200.5 287.4-538.1 470-880.8 476.5-6.3.1-12.6.1-18.9.1m19.7-2433.6c-31.8 0-63.5 1.4-95.2 4.2-346.3 30.7-671.4 228.1-869.8 527.9-194.7 294.3-259 678.7-171.9 1028.2 40.9 164.3 114.3 320 212.3 450.2 216.8 288.2 570.6 463.3 924.4 456.5 353.3-6.6 701.1-194.7 907.7-490.8 173.8-249.2 241.9-572.7 191.7-911-27.8-187.9-96.3-457.7-264.2-675.3-51.6-67-110.1-125.1-173.8-172.6-187.8-140.3-424.4-217.3-661.2-217.3" style="fill:#211d1d;fill-opacity:1;fill-rule:nonzero;stroke:none" transform="matrix(.0288 0 0 -.0288 -211.586 975.502)"/><path d="M13300.8 30980.9c-47.1-61.1-101.3-115.9-163.2-162.2-203.8-152.2-462.6-222.9-712.8-200.7-326.6 28.9-635.4 218.4-820.4 498-184.9 279.6-243.9 643.2-162.3 971.1 38.3 153.8 106.2 299.8 200.4 425.1 204.9 272.2 537.7 436.6 871.5 430.3 333.7-6.2 660.5-183 855.7-462.8 173.5-248.7 225.2-560.5 180.8-860.1-33.3-224.4-110.5-458.4-249.7-638.7" style="fill:#fff;fill-opacity:1;fill-rule:nonzero;stroke:none" transform="matrix(.0288 0 0 -.0288 -211.586 975.502)"/><path d="M12495.6 32926.1c-321.8 0-642.2-161.3-839.8-423.9-91.2-121.1-159.5-266.1-197.6-419.1-81.1-325.7-21.3-683.8 160.1-957.9 184.4-278.8 486.4-462.2 808-490.7 248.2-22 503.9 50 701.3 197.5 58.6 43.7 112.4 97.2 160.1 159 156.3 202.7 220.2 455 246.3 631 46.8 315.4-16.4 616.6-177.9 848.2-191.8 275-514.6 449.6-842.4 455.7-6 .2-12.1.2-18.1.2m18.8-2328.7c-30.4 0-60.8 1.3-91.1 4-331.5 29.4-642.8 218.3-832.7 505.4-186.4 281.8-247.9 649.7-164.6 984.4 39.2 157.3 109.4 306.3 203.3 431 207.6 275.9 546.9 443.4 885 436.9 338.3-6.3 671.2-186.4 869-469.9 166.4-238.5 231.6-548.2 183.6-872-26.7-180-92.2-438.2-252.9-646.5-49.5-64.2-105.5-119.8-166.5-165.3-179.8-134.3-406.3-208-633.1-208" style="fill:#211d1d;fill-opacity:1;fill-rule:nonzero;stroke:none" transform="matrix(.0288 0 0 -.0288 -211.586 975.502)"/><path d="M13125.4 32655.7c11.5-9.4 22.7-19.2 33.5-29.3 149.9-138.9 254.3-329.5 292.3-533.8 72.6-390.4-29.4-779.8-281.5-1080.8-132.4-158-304.6-288.2-508-322.4-221.5-37.3-451.6 31.8-639.2 153.4-295.8 191.6-508.6 525.4-533.1 885.2-13.9 202.9 28.7 411.6 122.5 590.6 87.4 166.7 223.9 277.5 375.6 377 167.3 109.8 351 175.3 551.5 168.2 205.8-7.3 423.4-73.9 586.4-208.1" style="fill:#e7e2b9;fill-opacity:1;fill-rule:nonzero;stroke:none" transform="matrix(.0288 0 0 -.0288 -211.586 975.502)"/><path d="M12509.9 32847.9c-172.9 0-345.5-55.8-513.4-166-132.4-86.9-279.8-198.9-370.1-370.9-91.5-174.6-134.3-381.2-120.6-581.8 23.4-343.3 224.8-677.7 525.6-872.6 202.7-131.4 425.6-185 627.6-151 223.9 37.6 394.5 193 498.1 316.7 247.8 295.9 349.1 684.9 278 1067.3-37.5 201.4-139.5 387.8-287.3 524.8-10.5 9.6-21.5 19.3-32.8 28.6-148.5 122.2-358.6 196.6-576.6 204.4-9.5.3-19 .5-28.5.5m28.1-2185.1c-174 0-356.2 57.1-524.5 166.2-309.3 200.4-516.4 544.5-540.5 897.9-14.1 206.6 30 419.5 124.3 599.3 93.8 178.8 245.3 294 381.1 383.1 183 120.1 371.8 177.6 561.1 170.9 225.1-8 442.5-85.2 596.4-211.8 11.8-9.8 23.3-19.8 34.2-29.9 152.9-141.8 258.5-334.6 297.3-542.9 72.9-392.1-31-791-285.1-1094.4-153.7-183.5-332.8-296.9-517.8-328-41.5-7-83.7-10.4-126.5-10.4" style="fill:#211d1d;fill-opacity:1;fill-rule:nonzero;stroke:none" transform="matrix(.0288 0 0 -.0288 -211.586 975.502)"/><path d="M11611.5 32164.9c-16.9-43.4-29.5-97.1-1.3-133.8 19.7-25.4 52.9-34 83.7-41 162.6-36.8 509.6-128.1 670.7-166.8 31.2-7.5 55.1 28.5 37 55.8l-141.6 195c-13.1 17.9-24.5 37.1-34 57.2-43.1 91.1-80.9 188.9-125.2 278.2-20.2 40.7-41 82.1-72.5 114.1-31.6 32-76.4 53.6-119.9 45.2-50.1-9.7-85.4-54.9-116.1-96.9-39.6-54.2-79.2-108.5-113.1-166.6-26.1-44.8-48.8-91.8-67.7-140.4" style="fill:#8da14c;fill-opacity:1;fill-rule:nonzero;stroke:none" transform="matrix(.0288 0 0 -.0288 -211.586 975.502)"/><path d="M11626.8 32159c-21.2-54.8-22.4-93.3-3.5-117.8 15.6-20.4 42.9-27.9 74.3-35 95.4-21.7 251-61.2 401.5-99.4 104.3-26.5 202.8-51.5 269.4-67.5 11-2.6 17.4 5.1 19.1 7.5 3.9 5.6 6 14.6.3 23.3l-141.2 194.3c-13.9 19.1-25.8 39.2-35.6 59.9-19.2 40.6-37.6 83.1-55.4 124.2-22.2 51.3-45.2 104.3-69.7 153.7-19.4 39-39.4 79.4-69.4 109.9-31.6 32-70.9 47.2-105 40.5-43-8.3-74.7-47.5-106-90.4-38.7-52.9-78.6-107.5-112.2-165.1-25.6-44-48-90.5-66.6-138.1m746.2-353.1c-4 0-8.1.4-12.2 1.4-66.8 16.1-165.4 41.1-269.8 67.6-150.2 38.2-305.7 77.7-400.7 99.2-36.3 8.3-70.8 18-93.1 47-26.5 34.5-26.8 83.4-1 149.8 19.2 49.2 42.3 97.3 68.8 142.7 34.5 59.1 74.9 114.4 114 168 33.9 46.4 71.6 92.7 126.3 103.3 45 8.8 95.3-9.8 134.7-49.7 33.7-34.3 55.9-79 75.5-118.4 24.9-50.1 48-103.6 70.4-155.3 17.7-40.8 36-83.1 54.9-123.2 8.9-18.8 19.8-37.1 32.5-54.6l141.6-194.9c12.6-19.1 12.3-42.8-.4-60.9-9.9-14.2-25.2-22-41.5-22" style="fill:#211d1d;fill-opacity:1;fill-rule:nonzero;stroke:none" transform="matrix(.0288 0 0 -.0288 -211.586 975.502)"/><path d="M11576.2 31882.3c-25.8-75.7-39.1-221-6.6-313.4 43.7-124.5 91.7-229.7 219.5-219.4 88.7 7.1 205.9 54.3 278.4 107.6 105 77.1 210 154.2 315.1 231.4 17 12.5 36.5 30.8 26 52.9-4.9 10.3-14.7 17.4-25.6 19.7l-749.2 155.1c-24.7 5.1-49.2-9.3-57.6-33.9" style="fill:#8da14c;fill-opacity:1;fill-rule:nonzero;stroke:none" transform="matrix(.0288 0 0 -.0288 -211.586 975.502)"/><path d="M11576.2 31882.3h.1zm47.5 18.5c-14.2 0-27-9.2-32-23.8-23.3-68.4-38.6-211.7-6.6-302.7 42-119.6 86.3-217.9 202.7-208.4 83 6.6 196.6 50.5 270 104.4l315 231.4c27 19.8 22.8 28.8 21 32.6-2.6 5.4-7.9 9.4-14.2 10.7l-749.1 155.1c-2.3.5-4.5.7-6.8.7m148.1-568.5c-125.7 0-174.9 109.2-217.7 231.1-32.6 92.8-22 240.6 6.5 324.3 11 32.2 44 51.3 76.5 44.6l749.2-155.1c16.3-3.4 30.2-14.1 37.1-28.7 11.8-24.8 1.3-49.5-31.1-73.3l-315-231.4c-77.8-57.1-198.4-103.6-286.9-110.7-6.4-.5-12.6-.8-18.6-.8" style="fill:#211d1d;fill-opacity:1;fill-rule:nonzero;stroke:none" transform="matrix(.0288 0 0 -.0288 -211.586 975.502)"/><path d="M12621 31744.8c-25.8-1.3-32.9-33.9-10.5-46.9 154.6-89.9 293-205.4 416.9-332.4 26.2-26.8 52.6-54.7 86.1-73.2 22.5-12.4 48.4-20 73.7-17.7 23.5 2.1 45.2 12.6 62.8 27.1 17.6 14.6 31.2 33 42.7 52.4 27.4 46.3 43 98.3 57.7 149.8 8.7 30.3 16.2 60.9 22.4 91.8 6.2 31.3 13.2 74.2-12.4 100-24 24.2-65.3 22.8-96.7 24.8-51.4 3.3-102.7 3-154.1 5.3-69.4 3.2-138.8 6.2-208.1 9.4-4.9.2-9.8.4-14.6.6-57.1 2.6-114.1 5.2-171.2 7.9-31.5 1.4-63.4 2.8-94.7 1.1" style="fill:#8da14c;fill-opacity:1;fill-rule:nonzero;stroke:none" transform="matrix(.0288 0 0 -.0288 -211.586 975.502)"/><path d="M12621 31744.8h.1zm30.8-15.6c-10 0-20-.2-29.9-.8-5.9-.3-7.6-3.9-8.1-6.1-.4-1.5-1.1-6.7 5-10.2 143.2-83.3 284.7-196.1 420.4-335.1l3.5-3.7c24-24.6 48.9-50.1 78.8-66.6 15.3-8.5 38.8-18.1 64.2-15.8 23.6 2.2 42.3 14 53.8 23.5 14 11.6 26.8 27.3 39.1 48 25.5 43.2 40.5 91.7 56 146 8.7 30.5 16.2 60.9 22.1 90.6 6.6 33.3 10.3 66.7-8 85.2-16.4 16.5-46.7 18-73.4 19.3-4.3.2-8.6.4-12.6.6-28.9 1.9-58.5 2.6-87 3.2-21.9.6-44.5 1.1-66.8 2.1l-91.8 4.1c-38.8 1.7-77.6 3.5-116.4 5.2l-30.1 1.4c-51.9 2.4-103.8 4.7-155.7 7.2-20.7.9-41.9 1.9-63.1 1.9m526.2-471.5c-29.3 0-55.2 10.7-72.4 20.2-34.1 18.9-60.7 46.1-86.4 72.5l-3.6 3.6c-133.6 136.9-272.7 247.9-413.4 329.7-16.6 9.6-24.8 28.3-20.4 46.3 4.3 18 19.4 30.2 38.3 31.2 32.6 1.8 66.5.3 96.3-1.1 51.9-2.4 103.8-4.8 155.8-7.2l30-1.3c38.8-1.8 77.6-3.5 116.3-5.2l91.9-4.1c21.9-1.1 44.4-1.6 66-2.1 28.9-.7 58.8-1.4 88.3-3.3 4-.2 8-.4 12.2-.6 31.1-1.5 69.7-3.4 95.1-29 33.1-33.4 22.6-86.4 16.9-114.8-6.1-30.5-13.7-61.8-22.7-93.1-16.2-56.6-31.8-107.2-59.3-153.7-14.3-24.1-29.5-42.6-46.4-56.6-21.7-17.9-46.5-28.6-71.8-30.9-3.6-.3-7.2-.5-10.7-.5" style="fill:#211d1d;fill-opacity:1;fill-rule:nonzero;stroke:none" transform="matrix(.0288 0 0 -.0288 -211.586 975.502)"/><path d="M12564.7 31689c-15.5 11.9-37.1-2.5-32.9-22 35.4-168.5 74.6-336.3 108.8-505 13.2-64.8 24.8-130.2 43.3-193.7 7.4-25.5 16.3-51.4 33.5-71.3 28.7-33 76.2-43.1 118.6-35.8 56.7 9.7 106.9 44.8 154.6 75.8 36.5 23.7 72.2 49 104.8 78.2 25.3 22.9 66.4 55.7 61.5 95.3-3.8 31.5-29.1 57.5-56.1 79.9-17.2 14.2-35.1 27-48.6 38.8-93.3 81.6-181.6 168-271.2 253.9-69.5 71.5-137.7 145.7-216.3 205.9" style="fill:#8da14c;fill-opacity:1;fill-rule:nonzero;stroke:none" transform="matrix(.0288 0 0 -.0288 -211.586 975.502)"/><path d="m12552.3 31676.9-2.2-.7c-1.2-.8-3-2.5-2.3-5.8 15.3-72.6 31.5-146.3 47.2-217.5 20.8-94.2 42.2-191.5 61.7-287.6 2.5-12.1 4.9-24.2 7.3-36.3 10.2-51.7 20.8-105.1 35.7-156.1 6.4-22.1 14.6-47.1 30.1-65.1 26.9-30.9 71-36 103.4-30.4 48.9 8.3 93.8 37.6 137.1 66l11.3 7.4c43.4 28.2 75.1 51.8 102.8 76.7l6 5.4c22.7 20.1 53.7 47.6 50.2 75.6-3.3 27.1-28.6 51.3-50.3 69.2-7.5 6.2-15.1 12.2-22.5 17.9-9.5 7.4-18.5 14.4-26.4 21.2-78.4 68.6-154.4 141.6-227.9 212.3-14.6 14.1-29.2 28.1-43.8 42.1-10.2 10.4-19.9 20.5-29.6 30.5-58.4 60.6-118.8 123.2-185.4 174.2-.4.3-1.2 1-2.4 1m257.4-834.4c-41.8 0-80.3 15.7-104.7 43.8-19.9 23-29.5 52-36.9 77.4-15.2 52.4-26 106.5-36.4 158.9-2.4 12-4.8 24.1-7.2 36.2-19.4 95.8-40.9 193-61.6 287-15.7 71.3-31.9 145.1-47.2 217.8-3.4 15.9 3.2 31.8 16.8 40.4 13.2 8.3 29.8 7.5 42.2-2 68.6-52.5 129.8-116 189.1-177.4 9.6-10.1 19.3-20.1 29-30.1 14.2-13.6 28.9-27.6 43.5-41.7 73.2-70.4 148.9-143.2 226.7-211.2 7.2-6.3 15.8-13 25-20.1 7.6-5.9 15.5-12 23.2-18.4 26.5-21.9 57.3-52 62-90.6 5.6-45.2-34.4-80.7-60.9-104.2l-6-5.3c-28.9-26-61.9-50.6-106.8-79.8l-11.2-7.3c-46.2-30.2-93.9-61.4-149.5-70.9-9.8-1.7-19.5-2.5-29.1-2.5" style="fill:#211d1d;fill-opacity:1;fill-rule:nonzero;stroke:none" transform="matrix(.0288 0 0 -.0288 -211.586 975.502)"/><path d="M11910.1 31162c-13.1-64.2 56-137.5 102.7-179.4 46.8-41.9 105.9-64.2 163.7-85.7 67.8-25.2 135.7-50.4 203.6-75.6 44-16.3 98.4-30.6 133 3.3 28.1 27.6 28.5 73.9 26.8 114.4-6.1 142.1-41.6 646.5-54.3 694.1-6.8 25.5-36.6 35.6-56.6 19.2-45.5-37.1-112-99.6-142-127.9-81.4-77-162.9-154-244.4-231-40.9-38.7-120.9-74.6-132.5-131.4" style="fill:#8da14c;fill-opacity:1;fill-rule:nonzero;stroke:none" transform="matrix(.0288 0 0 -.0288 -211.586 975.502)"/><path d="M11926.2 31158.7c-8.5-41.6 26.2-99.7 97.6-163.9 45-40.4 102.6-61.8 158.4-82.5 67.9-25.2 135.8-50.4 203.6-75.6 39.2-14.6 87.8-27.8 115.7-.3 23.3 22.8 23.5 64.5 21.9 101.9-6.2 147.6-41.7 645.7-53.7 690.6-1.8 6.8-6.5 12-13 14-6 2-12.4.8-17.4-3.3-31.7-25.9-79.2-68.7-141-127.2-81.5-77-162.9-153.9-244.4-230.9-13.3-12.6-29.7-24.3-47.1-36.8-36.3-26-73.8-52.8-80.6-86m531.5-371.3c-28.1 0-57.5 8.9-83.3 18.4-67.9 25.3-135.8 50.5-203.7 75.7-55.8 20.8-119.2 44.3-168.8 88.9-82.8 74.3-119.2 139.9-107.9 194.9 9.3 45.8 54.2 77.9 93.7 106.2 16.4 11.7 32 22.8 43.7 33.9 81.4 77 162.9 153.9 244.4 230.9 62.3 59 110.4 102.3 142.8 128.8 13.5 11.1 31.6 14.5 48.2 9.1 17.1-5.5 30-19.3 34.7-36.9 13.3-50.2 49.1-562.7 54.8-697.6 1.9-44.5 1.1-94.5-31.7-126.8-19.2-18.8-42.5-25.5-66.9-25.5" style="fill:#211d1d;fill-opacity:1;fill-rule:nonzero;stroke:none" transform="matrix(.0288 0 0 -.0288 -211.586 975.502)"/><path d="M12616.3 31901.4c-14.9-24.4-29.6-55.5-11.1-77.2 13.5-16 39.1-18.9 61.8-19.6 220.8-6.4 416.2 82 588.2 162.2 40.5 18.9 81.9 38.7 108.9 73.2 26.7 34.3 32.8 80.4 22.5 122.3-5.4 21.6-19.5 41.9-30.6 61.4-6.5 11.3-13 22.5-19.7 33.7-6.4 10.5-12.8 21-19.4 31.5-27.5 43.6-57.5 86.7-89.7 129.1-17.6 23.1-36.1 46.2-58.7 65.3-21.3 17.9-50.5 35.8-78.6 37.4-26.4 1.6-52.5-6.4-74-19.7-31.4-19.5-54.4-49.3-75.9-79.5-36.8-52-70.4-106.8-104.3-162.2-71.6-116.8-144.7-236.1-219.4-357.9" style="fill:#8da14c;fill-opacity:1;fill-rule:nonzero;stroke:none" transform="matrix(.0288 0 0 -.0288 -211.586 975.502)"/><path d="M12630.3 31892.8c-17.7-28.9-21.7-47.3-12.6-58 9.5-11.1 31.6-13.2 49.8-13.7 222.1-6.6 421 86.1 580.8 160.6 36.4 17 77.8 36.3 102.8 68.5 22 28.2 29.3 68.6 19.5 108.1-3.6 14.7-12.7 30-21.5 44.7-2.5 4.2-5 8.4-7.4 12.6-6.4 11.1-12.9 22.2-19.5 33.4-6.3 10.3-12.7 20.7-19.2 31.1-27.2 43-57.1 86.1-88.9 128-16.5 21.6-34.4 44.3-56.2 62.6-24 20.2-49.2 32.4-69 33.6-21.6 1.3-44.4-4.9-64.3-17.2-29.6-18.4-51.4-47.2-71.2-75.1-36.6-51.8-70.7-107.4-103.7-161.3zm59.6-104.9q-11.7 0-23.4.3c-26.5.8-56.1 4.4-73.9 25.3-28.7 33.8-.8 79.3 9.7 96.4v.1l219.4 357.9c33.2 54.3 67.6 110.4 104.9 163.1 20.8 29.3 45.9 62.4 80.7 84 25.6 15.9 55.3 23.7 83.5 22.1 36.7-2.1 71-26.8 88.3-41.3 24.3-20.4 43.6-44.7 61.1-67.8 32.5-42.7 62.9-86.5 90.6-130.4 6.6-10.5 13.2-21.1 19.6-31.7 6.7-11.4 13.3-22.7 19.8-34 2.3-4 4.7-8 7.1-12.1 10-16.7 20.4-34.1 25.2-53.6 12.2-49.2 2.7-100.1-25.4-136.2-30-38.4-75.1-59.5-114.9-78.1-157.4-73.3-352-164-572.3-164" style="fill:#211d1d;fill-opacity:1;fill-rule:nonzero;stroke:none" transform="matrix(.0288 0 0 -.0288 -211.586 975.502)"/><path d="M12177.9 32659.4c-16.1-31.7-18.1-69.4-12.3-104.9 13.7-83.8 49.6-161.4 80.1-238.6 11.1-28.1 22.8-55.9 35-83.3 21.7-48.4 45.1-95.6 70.2-141.8 24.2-44.6 50.1-88.1 77.5-130.5 18.2-28 50.1-96.4 92.3-91.6 45.2 5 59 85.8 72.2 119 16.1 40.2 29.6 81.8 45.4 122.6 21.3 54.6 48.3 107.3 75.8 160 39.4 75.7 80.7 152.4 106.9 235.8 13 41.3 25.3 85.5 25.9 129.4 1.1 81.9-47.7 127.6-123.3 142.6-66.6 13.3-135.3 10-203 5.7-108.4-6.8-285.4-11.9-342.7-124.4" style="fill:#8da14c;fill-opacity:1;fill-rule:nonzero;stroke:none" transform="matrix(.0288 0 0 -.0288 -211.586 975.502)"/><path d="M12192.5 32652c-16.4-32.4-14.9-69.4-10.7-94.8 11-67.4 37.3-132.1 62.8-194.7 5.5-13.6 11-27.1 16.4-40.6 10.8-27.4 22.5-55.2 34.8-82.6 21.3-47.7 44.7-95 69.5-140.6 23.9-44 49.8-87.5 76.9-129.4 3-4.6 6.3-10.2 9.9-16.4 15.6-26.5 41.8-70.6 66.8-67.9 25.2 2.8 40 50.5 49.8 82 3.1 9.9 6 19.3 9 26.8 8.5 21.3 16.5 43.5 24.1 65 6.8 18.8 13.8 38.3 21.2 57.4 21 54 47.1 105.2 76.5 161.7l8.2 15.6c36.2 69.5 73.7 141.2 97.6 217.5 11.9 37.7 24.6 81.6 25.1 124.7 1 69.1-36 111.6-110 126.3-63.2 12.6-127.4 9.9-198.8 5.4l-16.3-1c-104.5-6.3-262.5-15.8-312.8-114.4m323.8-800c-42.8 0-72.5 50.3-92.5 84.2-3.4 5.7-6.5 11-9.2 15.2-27.6 42.6-53.9 86.9-78.2 131.6-25.2 46.3-49 94.4-70.7 142.9-12.4 27.8-24.3 56.1-35.3 84-5.3 13.3-10.7 26.8-16.2 40.2-26.2 64.3-53.2 130.7-64.9 201.8-4.9 30.2-6.5 74.7 13.9 115 58.8 115.4 228.1 125.6 340.1 132.3l16.3 1c73.7 4.7 140.1 7.4 207.2-5.9 89.2-17.8 137.7-74.3 136.5-159.1-.6-47.5-14.1-94.1-26.6-134-24.9-79.1-63-152.2-99.9-222.9l-8.1-15.6c-29-55.7-54.7-106-75.1-158.4-7.2-18.7-14.1-38-20.8-56.6-7.8-21.8-15.9-44.3-24.6-66.1-2.5-6.3-5.2-15.1-8.1-24.3-13.1-42.1-31-99.7-77.5-105q-3.15-.3-6.3-.3" style="fill:#211d1d;fill-opacity:1;fill-rule:nonzero;stroke:none" transform="matrix(.0288 0 0 -.0288 -211.586 975.502)"/><path d="M10806.2 27202.8c-91.3 0-180.5 3.4-265.6 11.9-92.2 9.1-180 26.2-262.2 44-93.2 20.3-177.6 49.6-253.8 79.2-93.9 36.7-173.58 77.9-234.29 125.8-85.19 67.4-130.31 143.4-130.31 225s46.6 155.4 131.91 222.8c60.59 48 137.5 95.2 233.29 126.2 186.7 60.6 76.7 32.1 254.5 74.6 81.8 19.6 169.1 36.3 261.4 45.4 85.1 8.5 173.8 15.3 265.1 15.3 91.2 0 180.2-4.8 265.3-13.3 92.2-9.1 181.3-18.2 263.5-36 93.2-20.2 179.1-47.8 255.2-77.5 94-36.6 168.8-87.9 229.5-135.8 85.2-67.4 135.1-140.1 135.1-221.7s-49-155.6-134.2-223c-60.6-48-135.3-100.9-229.3-137.5-76.1-29.7-163.7-51.3-256.9-71.6-82.2-17.8-171.3-23-263.6-32.2-85.1-8.4-173.4-21.6-264.6-21.6" style="fill:#fcfefe;fill-opacity:1;fill-rule:nonzero;stroke:none" transform="matrix(.0288 0 0 -.0288 -211.586 975.502)"/><path d="M10806.2 28152.4c-97.7 0-191.9-8.1-263.1-15.1-81.1-8-165.7-22.7-258.6-45-23.3-5.5-41.6-9.9-56.3-13.4-58.9-13.9-58.9-13.9-86.2-23.5-17.7-6.3-47.3-16.7-110.5-37.2-80.48-26.1-156.89-67.5-226.89-122.8-83.52-66-124.02-133.6-124.02-206.7 0-74.3 41.21-144.6 122.5-208.9 56.21-44.4 131.13-84.6 229.01-122.7 95.5-37.3 172.8-61.4 250.7-78.3 75.3-16.3 165-34.3 259.8-43.7 80-7.9 166.2-11.8 263.6-11.8 67.6 0 134.3 7.5 198.9 14.7 21.4 2.4 42.7 4.8 63.7 6.9 19.8 1.9 39.5 3.7 59 5.5 71.4 6.5 138.9 12.6 202.3 26.3 81 17.6 174.6 39.8 253.8 70.6 94.3 36.8 169.2 91.2 224 134.5 83.9 66.3 126.4 135.9 126.4 206.9 0 70.6-41.7 137.8-127.4 205.6-48.6 38.4-124.7 94-224.1 132.8-83.9 32.6-168.7 58.4-252.2 76.5-83.4 18.1-177.8 27.4-261.1 35.7-88 8.7-176.5 13.1-263.3 13.1m0-970.1c-98.8 0-186.3 3.9-267.6 11.9-96.9 9.6-188.1 27.9-264.6 44.5-80 17.3-159.2 42-256.8 80.1-101.81 39.7-180.21 81.8-239.58 128.8-91.72 72.5-138.13 153.6-138.13 241.1 0 85.3 46.99 165.6 139.61 238.9 73.91 58.4 154.49 102 239.8 129.7 62.6 20.3 92 30.6 109.5 36.8 29.3 10.3 30.4 10.6 90.4 24.8 14.6 3.5 32.9 7.8 56.1 13.4 94.8 22.6 181.2 37.7 264.2 45.9 72.1 7.1 167.6 15.3 267.1 15.3 88.1 0 178-4.5 267.3-13.3 84.4-8.4 180.1-17.8 265.9-36.5 85.5-18.5 172.5-44.9 258.3-78.4 104.6-40.7 184-98.7 234.7-138.8 96.2-76.1 143-153.9 143-237.8 0-84.2-47.8-164.6-142-239.1-57-45.1-135.2-101.8-234.6-140.6-81.9-31.9-177.4-54.5-260-72.4-65.9-14.3-134.6-20.5-207.3-27.1-19.4-1.8-38.9-3.6-58.6-5.5-20.9-2.1-42-4.4-63.3-6.8-65.6-7.4-133.5-14.9-203.4-14.9" style="fill:#211d1d;fill-opacity:1;fill-rule:nonzero;stroke:none" transform="matrix(.0288 0 0 -.0288 -211.586 975.502)"/><path d="m10521.5 29903.3-332.6 510.9 1135.4-148.1-237.4-382.6c-85.7-114.5-137.5-266.1-138.4-421.2l-7.7-1298c-.1-15.4.7-30.9 2.5-46.2 21.5-181.7 136.2-358.4 138.6-387.5 2.4-30.6-98.8-99.5-286.4-102-135.7-1.9-217.2 56.4-251.9 88.7-10.9 10.2-11.3 27.5-1.6 39 52.2 61.6 85 183.1 103.3 274.1 12.7 63.1 19 127.4 19.2 191.8l4.3 1228.4c1 161.3-45.6 321.2-147.3 452.7" style="fill:#e6f6f4;fill-opacity:1;fill-rule:nonzero;stroke:none" transform="matrix(.0288 0 0 -.0288 -211.586 975.502)"/><path d="M10538.3 29915.2c99.9-129.5 152.1-290.2 151.1-464.7l-4.4-1228.4c-.2-66.3-6.8-132.2-19.6-195.7-18.8-93.4-52.7-218.4-107.7-283.4-2.8-3.3-2.9-8.1-.1-10.7 33.6-31.3 108-83.2 231.6-83.2h6c170.5 2.3 259.4 61 266 80.5-1.7 7.2-13.6 31.4-24.1 52.8-36.9 75.5-98.6 201.9-114.2 333.3-1.8 15.4-2.7 31.8-2.6 48.7l7.6 1298c.9 155.3 52.7 312.9 142 432.7l220.1 354.7-1059.5 138.2zm250.9-2307.2c-137.7 0-221.6 58.8-259.6 94.3-18.9 17.6-20.3 47.2-3.3 67.3 49.4 58.3 81 176.2 98.9 264.9 12.2 60.9 18.5 124.1 18.8 187.8l4.3 1228.4c1 165.6-48.5 317.8-143 440.1l-1 1.3-356.9 548.2 1211.1-158-255.1-411.1c-84.6-113-133.5-262-134.4-409.1l-7.6-1297.9c-.1-15.3.7-30 2.3-43.7 14.7-124.5 74.6-246.9 110.3-320 19.4-39.7 27.4-56.3 28.3-68.3 1-12.1-4.3-24.7-15.9-37.3-38-41.8-142.6-84.9-290.6-86.9z" style="fill:#211d1d;fill-opacity:1;fill-rule:nonzero;stroke:none" transform="matrix(.0288 0 0 -.0288 -211.586 975.502)"/><path d="m10004 30713.2 331.4-439.1c102.3-139.1 296-236.4 474.5-238.4 189.8-2 367.4 88.6 470.7 240.1l311.8 415.4c429.3 141.4 791.6 456.5 830.9 897.9 2.1 23.7-25.7 37.2-41.8 20.2-74-77.8-164.1-159.7-235.7-230.2-84.8-83.5-163-141.9-282.9-200.4-100-48.7-212.9-77.5-339.5-104.9-111.7-24.4-232.8-31.4-358.1-43.9-115.6-11.4-235.6-29.2-359.6-29.2s-245.1 4.6-360.8 16c-125.3 12.3-244.5 35.6-356.2 60-126.59 27.3-241.4 67.1-344.91 107.5-127.5 49.8-235.78 105.7-318.09 170.9-91.48 72.3-122.89 103-162.3 170.4-5.51 9.5-19.81 5.3-19.49-5.8 10.19-472.8 334.88-660 760.09-806.5" style="fill:#fff;fill-opacity:1;fill-rule:nonzero;stroke:none" transform="matrix(.0288 0 0 -.0288 -211.586 975.502)"/><path d="M9265.9 31482.7c24.41-418.1 304.1-598.3 744.8-750.1l5.9-2 335.2-444.1c98.3-133.7 286.8-228.3 458.4-230.2 2-.1 4-.1 6-.1 181.6 0 348.5 86.1 447.4 231.1l316.3 421.3 6.1 2.1c476.4 157 781.7 486 816.8 880.2.3 3.1-1.3 4.5-2.6 5.1-1.9.9-3 0-3.8-.8-48.2-50.7-102.5-102.5-155.1-152.6-28.7-27.4-55.9-53.3-81.1-78.1-92.3-90.8-173.1-148.1-288.3-204.3-98-47.8-208.5-77.1-344.2-106.5-88.4-19.3-180.8-27.7-278.7-36.6-27-2.4-54.2-4.9-81.7-7.7-28.5-2.8-57.3-6-86.4-9.2-88.9-9.9-180.7-20.1-275.2-20.1-133.5 0-252.2 5.3-362.8 16.1-132.1 13.1-255.4 37.9-358.6 60.4-141.02 30.5-266.1 76.5-347.89 108.5-137.7 53.7-243.52 110.6-323.52 173.9-77.3 61.1-113.2 93.5-146.99 143.7m1550.3-1467.5h-6.5c-183.7 2.1-385.5 103.5-490.8 246.7l-327.49 433.9c-454.03 157.2-758.01 358.2-768.13 823.4-.27 14.6 8.91 27 22.81 30.9 13.71 3.9 27.82-1.8 35.12-14.2 38.28-65.6 67.89-94.1 157.19-164.7 76.72-60.7 179.1-115.6 312.89-167.9 80.51-31.4 203.51-76.7 341.71-106.6 102.1-22.3 223.9-46.7 353.9-59.6 109.2-10.7 226.6-15.9 358.8-15.9 92.2 0 182.9 10.1 270.7 19.8 29.2 3.3 58.2 6.5 86.9 9.3 27.5 2.8 54.9 5.3 82 7.7 96.6 8.8 187.8 17.1 273.7 35.9 132.8 28.7 240.6 57.3 334.9 103.3 110.9 54 188.7 109.1 277.5 196.6 25.5 25 52.7 51 81.6 78.5 52.2 49.8 106.1 101.2 153.6 151.2 13.3 13.9 33.1 17.8 50.5 10 18-8.1 28.4-26.3 26.6-46.2-18.8-211.8-113.9-410.3-275-574.1-145.1-147.5-339.9-264.8-563.7-339.5l-308-410.3c-106-155.5-285.6-248.2-480.8-248.2" style="fill:#211d1d;fill-opacity:1;fill-rule:nonzero;stroke:none" transform="matrix(.0288 0 0 -.0288 -211.586 975.502)"/><path d="m10004 30613 331.4-439.1c102.3-139.2 296-236.4 474.5-238.4 189.8-2 367.4 88.5 470.7 240l311.8 415.4c451.6 148.9 817.9 485.6 823.2 963.6-79.5-91.5-182.7-190-269.8-275.6-84.8-83.5-163-142-282.9-200.4-100-48.8-212.9-77.5-339.5-104.9-111.7-24.4-232.8-31.4-358.1-43.9-115.6-11.4-235.6-29.3-359.6-29.3s-245.1 4.7-360.8 16.1c-125.3 12.3-244.5 35.5-356.2 59.9-126.59 27.4-241.4 67.2-344.91 107.6-127.5 49.8-235.78 105.7-318.09 170.9-106.09 83.8-166.4 177.4-175.82 277.7-28.28-520.9 316.72-769 754.12-919.6" style="display:inline;fill:#deaa87;fill-opacity:1;fill-rule:nonzero;stroke:none" transform="matrix(.0288 0 0 -.0288 -211.586 975.502)"/><path d="M9271.91 31397.1c29.18-357.3 267.19-602.3 738.79-764.7l5.9-2 335.2-444.2c98.3-133.6 286.8-228.2 458.4-230.1 184-2.3 353.4 84.4 453.4 231l316.3 421.3 6.1 2c479.5 158.1 777 487.3 806.7 887.8-59.9-65.1-128.5-132.2-190.4-192.7-14.3-14-28.4-27.8-42.1-41.2-92.3-90.9-173.1-148.1-288.3-204.3-98-47.8-208.5-77.1-344.2-106.5-88.3-19.3-180.8-27.7-278.6-36.6-27-2.4-54.3-4.9-81.8-7.7-28.5-2.8-57.3-6-86.4-9.2-88.9-9.9-180.7-20.1-275.2-20.1-133.5 0-252.2 5.3-362.8 16.1-132.1 13-255.4 37.8-358.6 60.4-141.02 30.5-266.1 76.5-347.89 108.5-137.7 53.7-243.52 110.6-323.52 173.9-63.01 49.8-110.08 102.7-140.98 158.3m1544.29-1482.2c-2.2 0-4.3.1-6.5.1-183.7 2-385.5 103.5-490.8 246.7l-327.61 433.9c-344.3 119.5-794.1 347.1-761.88 938.1l40.98.8c8.71-93.6 65.31-182.3 168.01-263.5 76.72-60.7 179.1-115.6 312.89-167.9 80.51-31.4 203.59-76.7 341.71-106.6 102.1-22.3 224-46.8 353.9-59.6 109.3-10.7 226.6-15.9 358.8-15.9 92.2 0 182.9 10.1 270.7 19.8 29.2 3.3 58.2 6.5 86.9 9.3 27.5 2.8 54.9 5.3 82 7.7 96.6 8.8 187.8 17.1 273.7 35.9 132.8 28.7 240.6 57.3 334.9 103.2 110.9 54.1 188.7 109.2 277.5 196.7 13.7 13.4 27.8 27.2 42.2 41.3 75 73.4 160 156.6 226.5 233.1l36.7 42.2-.6-55.9c-2.6-229.1-88.9-443.2-249.7-618.9-144.6-158.1-345.6-283.2-581.5-361.9l-308-410.3c-106-155.5-285.6-248.3-480.8-248.3" style="fill:#211d1d;fill-opacity:1;fill-rule:nonzero;stroke:none" transform="matrix(.0288 0 0 -.0288 -211.586 975.502)"/><path d="M10681.7 30459.7c-291.6 0-456.1 53.2-463.9 55.8-10.7 3.5-16.6 15.1-13 25.9 3.5 10.8 15.1 16.6 25.9 13.1 2.1-.7 213.7-68.8 575.7-50.5 596 30.2 776.1 105.1 777.9 105.8 10.4 4.5 22.5-.3 27-10.7 4.5-10.3-.2-22.4-10.6-26.9-7.3-3.2-185.8-78.5-792.2-109.3-44.6-2.2-86.9-3.2-126.8-3.2" style="fill:#211d1d;fill-opacity:1;fill-rule:nonzero;stroke:none" transform="matrix(.0288 0 0 -.0288 -211.586 975.502)"/></g></svg>