<svg xmlns="http://www.w3.org/2000/svg" xml:space="preserve" width="200mm" height="200mm" viewBox="0 0 200 200"><g style="display:inline"><path d="M95.342 143.998c-3.676 0-7.43.14-11.158.427-3.532.268-7.532.571-11.074 1.16a88 88 0 0 0-10.696 2.49c-4.223 1.264-7.45 3.07-9.511 4.319-2.96 1.796-4.396 4.022-4.396 6.808 0 2.12.741 3.98 4.357 6.174 2.321 1.408 5.496 3.179 9.504 4.375 3.365 1.005 7.33 1.728 10.767 2.3 2.691.448 5.556.645 8.586.857.822.056 1.655.113 2.49.176.89.067 1.786.145 2.69.223 2.737.236 5.566.48 8.441.48 4.128 0 7.782-.128 11.173-.385 4.021-.304 7.828-.89 11.02-1.422 3.302-.55 6.583-1.333 10.633-2.543 4.152-1.242 7.33-2.551 9.716-3.997 3.386-2.054 5.104-4.266 5.104-6.576 0-2.237-1.739-4.424-5.172-6.505-2.405-1.46-5.662-2.809-9.673-4.008-3.108-.931-6.695-1.736-10.664-2.399-3.105-.515-6.971-1.16-10.986-1.464-3.012-.23-7.002-.49-11.15-.49m0 31.482c-2.947 0-5.815-.244-8.588-.484-.9-.077-1.788-.151-2.674-.218-.832-.064-1.658-.12-2.48-.18-3.069-.212-5.972-.413-8.745-.875-3.489-.582-7.518-1.313-10.975-2.346-4.19-1.253-7.49-3.09-9.895-4.551-3.63-2.198-5.176-4.48-5.176-7.624 0-3.383 1.754-6.159 5.214-8.258 2.142-1.298 5.497-3.175 9.903-4.494a89 89 0 0 1 10.904-2.537c3.616-.603 7.66-.91 11.222-1.182 3.775-.285 7.57-.43 11.29-.43 4.204 0 8.236.264 11.28.497 4.086.31 7.995.96 11.135 1.482 4.039.674 7.697 1.496 10.872 2.445 4.205 1.26 7.5 2.628 10.068 4.184 3.973 2.41 5.987 5.087 5.987 7.955 0 2.945-1.993 5.644-5.923 8.025-2.508 1.524-5.817 2.886-10.11 4.17-4.118 1.232-7.462 2.032-10.842 2.597-3.227.536-7.08 1.125-11.168 1.44-3.433.26-7.13.384-11.3.384" style="fill:#211d1d;fill-opacity:1;fill-rule:nonzero;stroke:none;stroke-width:.0352778" transform="translate(35.139 60.629)scale(.6905)"/><path d="M145.694 74.564c-1.055-1.542-2.674-3.016-4.847-4.417-2.734-1.757-6.24-3.298-10.718-4.72q-.19-.06-.38-.12c-3.362-3.584-7.878-6.667-13.844-8.463-1.636-.494-3.386-.702-5.171-.702-6.424 0-13.282 2.678-16.828 4.29-3.714.02-7.496.183-11.25.487-3.8.307-8.107.652-11.952 1.333a90 90 0 0 0-11.613 2.865c-4.689 1.488-8.262 3.609-10.541 5.073-2.188 1.407-3.81 2.836-4.886 4.307-.343-5.267-.678-10.502-.981-15.593a.5.5 0 0 1 .021-.176l.053-.17-.025-.176a7 7 0 0 1-.053-.776c0-3.02 1.51-5.302 5.204-7.878 2.642-1.838 6.7-4.346 11.02-5.827a85 85 0 0 1 11.642-3.115c2.872-.55 5.906-.879 8.227-1.105a359 359 0 0 1 3.831-.349l.985-.088c1.524-.134 2.726-.236 3.975-.318a79 79 0 0 1 5.077-.14c.035 0 1.975-.057 4.815-.057 2.293 0 5.175.035 8.121.162.106.004 10.88.148 22.18 4.152 11.898 4.212 14.319 6.77 15.92 8.463l.074.078c.759.804 2.96 4.124 2.96 6.022a7 7 0 0 1-.236 1.789l-.283 1.072h.216z" style="fill:#f3fbfa;fill-opacity:1;fill-rule:nonzero;stroke:none;stroke-width:.0352778" transform="translate(35.139 60.629)scale(.6905)"/><path d="m45.375 100.257.017.314c.787 11.864 1.662 25.562 2.205 37.087.917 19.66.268 32.96.046 36.566l-.007.06c-.01.099-.025.204-.021.268l.007.113-.021.11c-.007.038-.004.084-.004.133 0 2.628 1.789 5.221 5.316 7.708 2.322 1.634 5.497 3.69 9.497 5.077 3.366 1.171 7.32 2.004 10.746 2.663 2.699.522 5.567.752 8.6.995q1.223.094 2.467.205 1.286.117 2.589.25c2.77.279 5.627.565 8.534.565 4.124 0 7.775-.145 11.161-.441 4.103-.367 8.033-1.076 11-1.651 4.3-.836 8.125-2.085 10.626-2.953 4.134-1.436 7.306-2.956 9.701-4.643 3.415-2.398 5.147-5.016 5.147-7.775l1.277-71.942.752-14.834c0-.148.01-.293.02-.441l.03-.642.006-.113.01-.17.025-.507q.004-.08.007-.156l.004-.06.004-.074q.004-.053.007-.102 0-.09.011-.162l1.273-25.238h-.215l.283-1.072c.155-.597.236-1.2.236-1.789 0-1.898-2.201-5.218-2.96-6.022l-.074-.078c-1.602-1.693-4.023-4.25-15.922-8.463-11.3-4.004-22.073-4.148-22.179-4.152a203 203 0 0 0-12.936-.106c-1.965 0-3.479.043-5.077.141-1.249.082-2.451.184-3.975.318l-.985.088a359 359 0 0 0-3.83.35c-2.322.225-5.356.553-8.228 1.104A85 85 0 0 0 58.904 43.9c-4.322 1.481-8.379 3.99-11.021 5.827-3.694 2.576-5.204 4.858-5.204 7.878 0 .23.018.476.053.776l.025.176-.053.17a.5.5 0 0 0-.021.176c.614 10.21 1.333 21.015 2.032 31.468.222 3.313.44 6.615.66 9.885m49.97 93.825c-2.991 0-5.894-.293-8.702-.575-.865-.085-1.722-.173-2.572-.25q-1.234-.106-2.452-.202c-3.083-.247-5.997-.48-8.788-1.02-3.482-.673-7.514-1.52-10.982-2.726-4.201-1.457-7.507-3.595-9.92-5.296-4.007-2.825-6.04-5.891-6.04-9.105 0-.102 0-.219.015-.35 0-.175.017-.33.035-.465.219-3.626.86-16.83-.05-36.354-.543-11.51-1.418-25.202-2.204-37.073-.007-.173-.014-.254-.014-.265-.219-3.298-.441-6.6-.66-9.916-.699-10.453-1.422-21.262-2.036-31.478a2.1 2.1 0 0 1 .043-.579 8 8 0 0 1-.046-.822c0-3.605 1.774-6.382 5.937-9.278 2.73-1.905 6.932-4.498 11.437-6.047a87 87 0 0 1 11.878-3.175c2.942-.564 6.026-.9 8.382-1.129a371 371 0 0 1 3.85-.349l.983-.084c1.535-.138 2.748-.244 4.015-.322a79 79 0 0 1 5.161-.148c.039 0 6.385-.176 13.003.11.082 0 11.127.144 22.709 4.247 12.287 4.35 14.774 6.982 16.59 8.9l.072.075c.726.769 3.432 4.519 3.432 7.2 0 .695-.088 1.4-.265 2.103l-1.322 26.165-.004.078-.011.13q.001.064-.004.127l-.004.07-.004.047-.028.585q-.004.053-.007.106l-.01.166-.026.603c-.01.138-.017.254-.017.37l-.004.05-.064 1.168-.684 13.649-1.277 71.9c0 3.333-1.98 6.42-5.877 9.161-2.523 1.778-5.835 3.365-10.122 4.858-2.55.885-6.452 2.159-10.862 3.016-3.005.582-6.992 1.302-11.172 1.676-3.44.3-7.14.448-11.314.448" style="fill:#211d1d;fill-opacity:1;fill-rule:nonzero;stroke:none;stroke-width:.0352778" transform="translate(35.139 60.629)scale(.6905)"/><path d="M146.329 79.03c0 2.992-2.032 5.775-5.874 8.245-2.73 1.756-6.322 3.266-10.558 4.61-3.43 1.087-7.236 2.163-11.434 2.904-3.704.652-7.659 1.277-11.818 1.612-3.835.31-7.853.437-11.966.437-4.11 0-8.09-.483-11.924-.793-4.16-.335-8.174-.526-11.878-1.182-4.198-.741-8.146-1.535-11.578-2.621-4.234-1.344-7.6-3.281-10.333-5.041-3.838-2.47-6.047-5.18-6.047-8.17 0-2.992 2.251-5.66 6.093-8.129 2.73-1.757 6.103-3.633 10.336-4.977a90 90 0 0 1 11.5-2.84c3.705-.653 7.72-.988 11.875-1.32 3.838-.31 7.842-.487 11.956-.487s8.11.25 11.945.558c4.16.335 8.079 1.012 11.78 1.665 4.2.74 8.035 1.647 11.468 2.734 4.233 1.344 7.782 2.872 10.513 4.628 3.841 2.47 5.944 5.176 5.944 8.167" style="fill:#e6cbb8;fill-opacity:1;fill-rule:nonzero;stroke:none;stroke-width:.0352778" transform="translate(35.139 60.629)scale(.6905)"/><path d="M94.679 62.129c-3.916 0-7.916.158-11.885.48-3.764.303-8.026.645-11.797 1.312a89 89 0 0 0-11.391 2.811c-4.498 1.43-7.941 3.472-10.14 4.883-3.834 2.47-5.7 4.893-5.7 7.415 0 2.533 1.905 5.045 5.659 7.458 2.476 1.59 5.863 3.591 10.131 4.946 3.585 1.136 7.807 1.95 11.47 2.596 2.867.505 5.912.73 9.14.967q1.317.094 2.656.201c.945.078 1.898.166 2.861.25 2.917.269 5.934.54 8.996.54 4.399 0 8.29-.14 11.899-.43 4.283-.346 8.336-1.006 11.737-1.605 3.52-.621 7.013-1.51 11.328-2.875 4.427-1.404 7.814-2.883 10.354-4.516 3.637-2.339 5.482-4.875 5.482-7.532 0-2.579-1.866-5.087-5.553-7.454-2.568-1.651-6.036-3.179-10.312-4.533-3.309-1.048-7.13-1.958-11.356-2.706-4.063-.716-7.746-1.337-11.701-1.655-3.21-.257-7.461-.553-11.878-.553m0 35.556c-3.14 0-6.195-.279-9.148-.547-.96-.084-1.905-.173-2.847-.247-.889-.074-1.77-.137-2.645-.2-3.267-.244-6.357-.47-9.31-.992-3.715-.656-8.008-1.482-11.688-2.65-4.455-1.414-7.969-3.485-10.534-5.132-4.272-2.748-6.438-5.74-6.438-8.887 0-3.143 2.12-6.036 6.48-8.84 2.28-1.464 5.853-3.585 10.542-5.073a90 90 0 0 1 11.613-2.865c3.845-.68 8.153-1.026 11.952-1.333 4.015-.325 8.061-.487 12.023-.487 4.48 0 8.773.3 12.012.56 4.032.325 7.758.95 11.86 1.676 4.304.759 8.199 1.687 11.578 2.76 4.477 1.42 7.984 2.962 10.718 4.72 4.198 2.702 6.329 5.69 6.329 8.882 0 3.27-2.106 6.287-6.262 8.957-2.667 1.718-6.188 3.256-10.76 4.706-4.388 1.39-7.948 2.293-11.546 2.928-3.436.607-7.54 1.277-11.892 1.627-3.655.292-7.592.437-12.037.437" style="fill:#211d1d;fill-opacity:1;fill-rule:nonzero;stroke:none;stroke-width:.0352778" transform="translate(35.139 60.629)scale(.6905)"/><path d="M45.47 101.241c0 .004.01.113.021.314.783 11.79 1.658 25.407 2.201 36.865.918 19.544.268 32.77.046 36.358l-.003.063a2 2 0 0 0-.025.247l.01.127-.024.124c-.004.024 0 .067 0 .109 0 2.575 1.774 5.126 5.27 7.578 2.318 1.622 5.486 3.661 9.473 5.034 3.358 1.16 7.313 1.986 10.735 2.642 2.691.519 5.552.748 8.583.988.818.067 1.64.13 2.473.204q1.285.118 2.593.25c2.765.276 5.623.562 8.523.562 4.12 0 7.771-.145 11.154-.438 4.096-.367 8.023-1.069 10.99-1.64 4.293-.83 8.113-2.07 10.615-2.932 4.124-1.425 7.288-2.931 9.673-4.603 3.39-2.368 5.108-4.94 5.108-7.645l1.277-71.508.751-14.746c0-.148.011-.297.018-.445l.032-.638q.004-.053.007-.106 0-.09.01-.173l.025-.504q.001-.079.007-.152l.007-.138c0-.035.004-.067.004-.099l.01-.165.092-1.747c-1.026 1.256-2.413 2.456-4.152 3.585-2.677 1.739-6.205 3.298-10.784 4.762-4.396 1.408-7.962 2.321-11.56 2.963-3.44.61-7.543 1.285-11.907 1.64-3.658.297-7.599.442-12.044.442-3.143 0-6.202-.279-9.158-.55-.956-.089-1.905-.177-2.843-.251-.89-.074-1.771-.138-2.646-.205-3.274-.243-6.364-.472-9.32-.998-3.722-.663-8.023-1.503-11.702-2.681-4.473-1.429-7.994-3.528-10.562-5.196q-2.512-1.631-4.054-3.373c.138 2.081.279 4.163.416 6.237.223 3.299.441 6.583.66 9.84m49.876 93.365c-2.995 0-5.902-.289-8.71-.568q-1.302-.133-2.572-.25-1.24-.106-2.459-.201c-3.083-.247-5.997-.477-8.791-1.016-3.489-.667-7.521-1.514-10.996-2.713-4.209-1.45-7.525-3.58-9.941-5.274-4.036-2.83-6.086-5.906-6.086-9.137 0-.099 0-.219.018-.353-.004-.176.017-.332.032-.466.222-3.608.86-16.728-.046-36.12-.544-11.441-1.418-25.048-2.205-36.848a3 3 0 0 0-.018-.258c-.219-3.288-.437-6.575-.66-9.874-.229-3.397-.458-6.809-.684-10.213l-.575-8.65 2.438 8.319c.589 2.01 2.406 4.018 5.394 5.958 2.47 1.602 5.849 3.616 10.103 4.981 3.574 1.143 7.797 1.965 11.455 2.618 2.865.508 5.909.734 9.13.973l2.66.205c.945.078 1.898.166 2.86.254 2.915.268 5.928.543 8.986.543 4.396 0 8.283-.14 11.889-.437 4.282-.346 8.332-1.013 11.726-1.616 4.505-.804 8.414-1.972 11.314-2.903 4.416-1.411 7.796-2.9 10.329-4.544 2.833-1.838 4.579-3.813 5.19-5.867l.176-.589 1.968-.26-.342 6.663-.004.07q-.004.063-.007.131-.004.064-.007.127l-.004.067v.046l-.032.59q-.004.046-.007.098-.001.08-.007.166l-.028.6c-.01.137-.018.25-.018.363v.053l-.067 1.164-.684 13.564-1.277 71.463c0 3.347-1.99 6.445-5.916 9.186-2.533 1.774-5.853 3.358-10.146 4.844-2.558.878-6.463 2.148-10.876 3.002-3.01.578-7 1.29-11.183 1.665-3.44.3-7.144.444-11.32.444" style="fill:#211d1d;fill-opacity:1;fill-rule:nonzero;stroke:none;stroke-width:.0352778" transform="translate(35.139 60.629)scale(.6905)"/><path d="M84.275 89.031c3.772-.455 8.273-.98 11.748-2.525.977-.434 1.958-.925 2.695-1.704.879-.932 1.323-2.18 1.743-3.39 1.143-3.288 2.29-6.573 3.432-9.86.321-.929.639-1.973.216-2.858-.727-1.514-2.96-1.38-4.467-.642-1.506.734-3.012 1.87-4.667 1.601L81.28 82.025z" style="fill:#bae7e0;fill-opacity:1;fill-rule:nonzero;stroke:none;stroke-width:.0352778" transform="translate(35.139 60.629)scale(.6905)"/><path d="m82.25 82.237 2.53 5.92c3.658-.441 7.73-.97 10.915-2.389.832-.37 1.774-.822 2.434-1.52.78-.822 1.182-1.98 1.57-3.101l3.432-9.86c.283-.812.533-1.655.25-2.244-.137-.286-.37-.48-.708-.596-.699-.244-1.775-.113-2.674.328-.304.148-.607.314-.928.49-1.136.618-2.406 1.313-3.824 1.228zm1.521 7.67-3.46-8.093 14.41-13.021.381.063c1.034.17 2.085-.402 3.196-1.009.321-.176.653-.36.992-.522 1.02-.497 2.582-.868 3.912-.406.744.258 1.312.752 1.633 1.426.597 1.238.11 2.635-.18 3.47l-3.432 9.865c-.423 1.22-.903 2.603-1.92 3.676-.864.913-1.978 1.453-2.952 1.89-3.535 1.57-7.937 2.1-11.822 2.569z" style="fill:#211d1d;fill-opacity:1;fill-rule:nonzero;stroke:none;stroke-width:.0352778" transform="translate(35.139 60.629)scale(.6905)"/><path d="M73.586 63.063c-1.672 2.85-8.248 15.67-6.978 18.722 1.013 2.428 13.59 9.338 17.23 7.49 2.148-1.09 3.454-3.295 4.643-5.39l6.064-10.669c.402-.712.822-1.478.783-2.296-.064-1.274-1.182-2.212-2.244-2.918-5.824-3.88-19.22-5.411-19.498-4.939" style="fill:#f1faf9;fill-opacity:1;fill-rule:nonzero;stroke:none;stroke-width:.0352778" transform="translate(35.139 60.629)scale(.6905)"/><path d="M73.586 63.063h.004zm.519.72c-2.526 4.4-7.712 15.388-6.752 17.692.465 1.115 5.39 4.438 10.343 6.262 2.72 1.002 4.826 1.302 5.779.818 2-1.016 3.277-3.263 4.304-5.07l6.064-10.667c.398-.71.705-1.291.677-1.86-.035-.733-.617-1.439-1.884-2.285-5.03-3.352-16.393-4.975-18.531-4.89m8.135 26.61c-1.334 0-3.041-.38-5.105-1.143-4.526-1.668-10.438-5.157-11.271-7.154-1.662-3.983 6.94-19.29 7.027-19.442.088-.148.265-.345.618-.427 1.69-.388 14.326 1.306 20.023 5.105 1.076.716 2.52 1.866 2.6 3.549.053 1.08-.49 2.036-.885 2.734l-6.064 10.668c-1.133 1.997-2.544 4.477-4.978 5.712q-.784.397-1.965.398" style="fill:#211d1d;fill-opacity:1;fill-rule:nonzero;stroke:none;stroke-width:.0352778" transform="translate(35.139 60.629)scale(.6905)"/><path d="M104.109 68.694c.458-1.302-11.663-10.125-17.28-11.099-4.822 1.126-8.512 2.209-12.742 5.12a.328.328 0 0 0 .064.57l21.117 8.277z" style="fill:#fff;fill-opacity:1;fill-rule:nonzero;stroke:none;stroke-width:.0352778" transform="translate(35.139 60.629)scale(.6905)"/><path d="M104.109 68.694h.003zm-28.801-5.821 19.988 7.832 7.673-2.491c-1.99-2.222-11.282-8.848-16.118-9.793-4.12.963-7.641 1.937-11.543 4.452m19.935 9.546-21.389-8.382a1.13 1.13 0 0 1-.709-.924 1.14 1.14 0 0 1 .484-1.066c4.498-3.09 8.392-4.159 13.017-5.238l.159-.036.162.029c5.422.938 16.33 8.667 17.724 11.045q.354.61.18 1.115l-.134.377z" style="fill:#211d1d;fill-opacity:1;fill-rule:nonzero;stroke:none;stroke-width:.0352778" transform="translate(35.139 60.629)scale(.6905)"/><path d="M128.93 157.446c2.762-2.607 6.068-5.708 7.938-9.017.529-.932 1.026-1.912 1.153-2.974.152-1.27-.233-2.54-.614-3.76l-3.111-9.97c-.293-.935-.66-1.965-1.528-2.424-1.485-.783-3.2.653-3.972 2.141-.773 1.49-1.309 3.299-2.798 4.064l-3.644 18.094z" style="fill:#bae7e0;fill-opacity:1;fill-rule:nonzero;stroke:none;stroke-width:.0352778" transform="translate(35.139 60.629)scale(.6905)"/><path d="m123.26 153.195 5.557 3.249c2.678-2.533 5.634-5.38 7.348-8.41.449-.794.939-1.722 1.055-2.675.134-1.121-.233-2.293-.585-3.425l-3.112-9.966c-.254-.822-.554-1.647-1.132-1.95-.279-.149-.582-.17-.924-.06-.706.218-1.493.966-1.955 1.855-.155.3-.3.614-.455.942-.543 1.174-1.154 2.49-2.339 3.266zm5.785 5.256-7.595-4.445 3.831-19.04.346-.176c.928-.48 1.432-1.563 1.965-2.713.155-.331.314-.677.487-1.009.522-1.005 1.56-2.233 2.907-2.652.751-.237 1.499-.177 2.159.172 1.217.642 1.658 2.054 1.919 2.897l3.111 9.97c.385 1.23.822 2.63.646 4.098-.152 1.25-.723 2.346-1.252 3.274-1.902 3.366-5.123 6.41-7.966 9.095z" style="fill:#211d1d;fill-opacity:1;fill-rule:nonzero;stroke:none;stroke-width:.0352778" transform="translate(35.139 60.629)scale(.6905)"/><path d="M104.888 142.94c.35 3.284 2.695 17.504 5.532 19.198 2.261 1.347 16.478-.582 18.305-4.234 1.076-2.152.812-4.702.523-7.094-.49-4.06-.985-8.121-1.475-12.182-.099-.814-.219-1.675-.737-2.31-.808-.988-2.265-1.076-3.539-1.013-6.988.346-18.665 7.088-18.609 7.634" style="fill:#f1faf9;fill-opacity:1;fill-rule:nonzero;stroke:none;stroke-width:.0352778" transform="translate(35.139 60.629)scale(.6905)"/><path d="M105.731 143.208c.586 5.04 2.96 16.958 5.102 18.235 1.04.62 6.97.36 12.04-1.119 2.783-.815 4.653-1.827 5.13-2.783 1.005-2.007.694-4.572.444-6.632l-1.478-12.185c-.096-.805-.198-1.457-.558-1.895-.469-.571-1.354-.793-2.875-.716-6.036.3-16.129 5.758-17.805 7.095m7.645 20.168c-1.513 0-2.734-.166-3.369-.547-3.704-2.212-5.902-19.629-5.92-19.805-.02-.173.007-.437.24-.709 1.13-1.32 12.291-7.475 19.131-7.818 1.292-.06 3.133.004 4.202 1.31.684.835.815 1.925.914 2.723l1.474 12.185c.279 2.275.621 5.108-.6 7.55-.708 1.414-2.769 2.627-6.124 3.608-3.044.889-7.041 1.503-9.948 1.503" style="fill:#211d1d;fill-opacity:1;fill-rule:nonzero;stroke:none;stroke-width:.0352778" transform="translate(35.139 60.629)scale(.6905)"/><path d="M132.768 129.301c-.405-1.32-15.399-1.196-20.49 1.362-3.21 3.774-5.527 6.84-7.196 11.698a.325.325 0 0 0 .388.42l21.9-5.913z" style="fill:#fff;fill-opacity:1;fill-rule:nonzero;stroke:none;stroke-width:.0352778" transform="translate(35.139 60.629)scale(.6905)"/><path d="M132.161 129.791h.004zm-19.378 1.524c-2.737 3.228-4.988 6.107-6.628 10.446l20.725-5.598 4.685-6.57c-2.92-.599-14.33-.394-18.782 1.722M105.39 143.6a1.13 1.13 0 0 1-1.072-1.5c1.774-5.16 4.268-8.339 7.345-11.958l.105-.124.149-.074c4.917-2.473 18.284-2.752 20.817-1.669.43.184.702.452.808.79l.116.382-5.796 8.124-.279.078-21.9 5.912a1 1 0 0 1-.293.04" style="fill:#211d1d;fill-opacity:1;fill-rule:nonzero;stroke:none;stroke-width:.0352778" transform="translate(35.139 60.629)scale(.6905)"/><path d="M62.343 127.347c-.226-.244-.638-.198-.875.109-3.242 4.198-7.337 11.26-8.265 16.04-.808 4.178 4.07 13.431 5.19 15.477.098.184.366.148.482-.06l12.376-22.087z" style="fill:#fff;fill-opacity:1;fill-rule:nonzero;stroke:none;stroke-width:.0352778" transform="translate(35.139 60.629)scale(.6905)"/><path d="M61.754 127.9h.004zm.215.23c-3.249 4.254-7.112 11.07-7.972 15.522-.558 2.868 2.05 9.165 4.628 14.055l11.635-20.761zM58.592 159.9h-.007a1.03 1.03 0 0 1-.903-.54c-1.45-2.656-6.117-11.66-5.274-16.016.935-4.812 4.942-11.885 8.42-16.383a1.47 1.47 0 0 1 1.084-.575 1.31 1.31 0 0 1 1.02.406l9.313 9.91-12.665 22.605a1.14 1.14 0 0 1-.988.593" style="fill:#211d1d;fill-opacity:1;fill-rule:nonzero;stroke:none;stroke-width:.0352778" transform="translate(35.139 60.629)scale(.6905)"/><path d="M85.126 146.943c-2.1-4.381-3.627-11.987-6.026-14.259-1.718-1.626-12.217-4.702-16.729-5.658-.172-.036-.345.151-.317.331.684 4.357 2.663 7.97 5.599 10.894l15.67 10.78z" style="fill:#bae7e0;fill-opacity:1;fill-rule:nonzero;stroke:none;stroke-width:.0352778" transform="translate(35.139 60.629)scale(.6905)"/><path d="m68.171 137.627 15.01 10.329.992-1.147c-.737-1.644-1.407-3.647-2.06-5.591-1.097-3.288-2.237-6.685-3.567-7.945-1.372-1.301-10.276-4.081-15.56-5.284.722 3.672 2.465 6.91 5.185 9.638m15.29 12.477-16.38-11.282c-3.182-3.171-5.143-6.985-5.824-11.338-.057-.356.07-.72.338-.973.254-.244.61-.346.942-.276 4.085.865 15.141 3.994 17.12 5.864 1.623 1.541 2.773 4.974 3.987 8.607.702 2.092 1.425 4.251 2.208 5.888l.23.476z" style="fill:#211d1d;fill-opacity:1;fill-rule:nonzero;stroke:none;stroke-width:.0352778" transform="translate(35.139 60.629)scale(.6905)"/><path d="M58.614 159.379c4.474 2.819 7.61 3.5 11.67 6.805.85.698 1.81 1.425 2.978 1.309 1.71-.173 2.988-2.008 3.947-3.623q3.355-5.641 6.714-11.282c.977-1.644 2-3.531 1.608-5.228-.32-1.39-1.51-2.237-2.628-2.985-3.549-2.367-14.072-6.441-15.575-5.923 0 0-11.42 16.838-8.714 20.927" style="fill:#ecf9f7;fill-opacity:1;fill-rule:nonzero;stroke:none;stroke-width:.0352778" transform="translate(35.139 60.629)scale(.6905)"/><path d="M59.21 158.797c1.708 1.065 3.221 1.817 4.685 2.543 2.269 1.13 4.414 2.191 6.897 4.22.819.666 1.563 1.21 2.389 1.128 1.33-.134 2.48-1.795 3.337-3.231l6.71-11.282c.942-1.587 1.838-3.252 1.517-4.635-.244-1.055-1.182-1.754-2.29-2.491-3.351-2.24-12.672-5.793-14.661-5.842-4.216 6.276-10.037 16.768-8.583 19.59m13.804 9.514c-1.4 0-2.498-.896-3.242-1.5-2.346-1.915-4.41-2.938-6.594-4.024-1.548-.77-3.15-1.563-4.995-2.727l-.148-.092-.095-.145c-2.861-4.318 6.762-18.937 8.72-21.826l.148-.222.258-.088c2.078-.713 13.211 3.965 16.288 6.018 1.016.68 2.557 1.707 2.963 3.471.455 1.965-.593 3.955-1.704 5.825l-6.71 11.281c-1.115 1.87-2.526 3.81-4.565 4.012q-.165.019-.324.017" style="fill:#211d1d;fill-opacity:1;fill-rule:nonzero;stroke:none;stroke-width:.0352778" transform="translate(35.139 60.629)scale(.6905)"/><path d="M127.177 79.895s1.513 11.398-4.918 15.86c-6.428 4.463-17.628 3.86-21.576 2.96-3.947-.903-12.287-5.231-14.492-10.654 0 0-6.974 2.117-5.532 9.924 2.004 10.837 18.91 16.648 33.881 9.483 14.969-7.162 18.077-16.087 18.077-16.087z" style="fill:#fff;fill-opacity:1;fill-rule:nonzero;stroke:none;stroke-width:.0352778" transform="translate(35.139 60.629)scale(.6905)"/><path d="M85.782 89.063c-1.574.71-5.405 3.055-4.346 8.777.712 3.86 3.492 7.2 7.828 9.409 7.143 3.637 16.7 3.45 24.934-.49 13.021-6.23 16.88-13.808 17.558-15.353l-3.644-7.69c-.113 3.89-1.073 9.68-5.401 12.685-6.611 4.586-18.013 4.036-22.2 3.08-3.99-.91-12.041-5.105-14.73-10.418m14.966 22.36c-4.357 0-8.57-.921-12.2-2.77-4.78-2.434-7.856-6.174-8.66-10.523-1.556-8.404 5.997-10.799 6.075-10.824l.688-.208.268.667c2.063 5.066 10.17 9.32 13.942 10.181 4.423 1.01 15.113 1.214 20.951-2.84 5.955-4.13 4.597-14.996 4.583-15.106l-.657-4.974 7.73 16.306-.106.306c-.134.378-3.39 9.317-18.482 16.539-4.512 2.159-9.409 3.245-14.132 3.245" style="fill:#211d1d;fill-opacity:1;fill-rule:nonzero;stroke:none;stroke-width:.0352778" transform="translate(35.139 60.629)scale(.6905)"/><path d="M110.903 107.884c9.328-3.263 17.092-12.372 17.092-12.372l-1.055 6.7s-11.726 8.579-17.07 10.861a6.7 6.7 0 0 1-1.122.339c.36-1.5 1.654-5.355 2.155-5.528" style="fill:#e7e2b9;fill-opacity:1;fill-rule:nonzero;stroke:none;stroke-width:.0352778" transform="translate(35.139 60.629)scale(.6905)"/><path d="M111.316 108.572c-.314.465-.95 2.166-1.404 3.623 4.893-2.226 14.584-9.183 16.302-10.428l.603-3.828c-2.826 2.875-8.703 8.21-15.501 10.633m-3.627 5.888.293-1.232c.014-.056 1.446-5.665 2.66-6.088 9.024-3.154 16.676-12.048 16.753-12.14l1.81-2.123-1.538 9.779-.261.194c-.483.349-11.86 8.653-17.226 10.946a7 7 0 0 1-1.26.385z" style="fill:#211d1d;fill-opacity:1;fill-rule:nonzero;stroke:none;stroke-width:.0352778" transform="translate(35.139 60.629)scale(.6905)"/><path d="M95.712 72.994c.022.272.318.441.6.332 3.373-1.316 21.28-7.486 28.166 6.696 7.613 15.684-2.522 27.05-13.41 32.046l-2.49 1.654 2.188-.243s8.075.564 15.649-5.39c7.57-5.952 12.019-11.946 11.225-23.245-.61-8.714-6.396-22.553-21.964-27.249-9.652-2.91-23.816 4.71-23.816 4.71 3.13 3.789 3.468 6.103 3.852 10.69" style="fill:#ca851a;fill-opacity:1;fill-rule:nonzero;stroke:none;stroke-width:.0352778" transform="translate(35.139 60.629)scale(.6905)"/><path d="M108.815 70.066c6.071 0 12.693 2.04 16.369 9.61 3.026 6.233 3.548 12.22 1.548 17.794-2.243 6.248-7.76 11.793-15.162 15.233 2.127-.039 8.438-.579 14.358-5.232 7.32-5.757 11.702-11.54 10.929-22.57-.536-7.628-5.648-21.799-21.407-26.55-7.912-2.385-19.215 2.677-22.37 4.222 2.622 3.426 3.031 5.888 3.373 9.857 2.085-.776 7.01-2.364 12.362-2.364m-3.373 44.796 5.299-3.51c7.101-3.26 12.393-8.513 14.51-14.415 1.848-5.16 1.35-10.735-1.482-16.573-6.565-13.519-23.788-7.624-27.171-6.304a1.25 1.25 0 0 1-1.118-.1 1.17 1.17 0 0 1-.554-.899c-.374-4.477-.663-6.61-3.673-10.255l-.61-.737.847-.455c.589-.318 14.562-7.74 24.415-4.77 16.581 4.999 21.957 19.918 22.522 27.947.822 11.723-3.8 17.844-11.525 23.918-7.423 5.835-15.22 5.61-16.115 5.56z" style="fill:#211d1d;fill-opacity:1;fill-rule:nonzero;stroke:none;stroke-width:.0352778" transform="translate(35.139 60.629)scale(.6905)"/><path d="m110.092 113.461 1.77-16.71-9.09-10.5-22.705-3.29-5.546 12.61 3.281 7.893 4.057 4.113s3.447 2.388 7.881 3.482 9.853.896 10.262 1.224c.819.66 4.368-3.482 4.368-3.482s-11.381-.536-15.854-2.162c-4.473-1.627-8.365-5.677-6.565-12.605 1.361-5.235 7.651-4.632 10.54-3.86 4.477 1.193 7.335 3.045 10.217 7.6 3.778 5.972 3.528 8.985 1.965 12.329-1.58 3.383-7.504 8.445-14.326 9.701-.413.078-.628.536-.35.808.978.96 5.885.956 5.885.956l7.606-2.713z" style="fill:#e7e2b9;fill-opacity:1;fill-rule:nonzero;stroke:none;stroke-width:.0352778" transform="translate(35.139 60.629)scale(.6905)"/><path d="M88.703 90.453c-1.394 0-2.777.244-3.863.879-1.087.631-1.782 1.58-2.124 2.9-2.085 8.018 4.117 10.957 6.068 11.666 4.31 1.566 15.508 2.113 15.62 2.116l.227.011c.744-2.568.3-5.263-2.59-9.832-2.617-4.138-5.171-6.04-9.754-7.26a14.3 14.3 0 0 0-3.584-.48m21.389 23.008h.004zm-18.666 6.922c.999.226 2.66.388 4.318.395l7.349-2.618 6.247-5.104 1.7-16.048-8.67-10.02-21.823-3.164-5.169 11.759 3.094 7.436 3.891 3.948c.463.31 3.638 2.36 7.564 3.33 2.695.663 5.8.84 7.853.956 1.559.088 2.159.127 2.508.29.423-.17 1.38-1.003 2.388-2.05-3.355-.216-10.89-.826-14.428-2.114-2.269-.825-9.476-4.24-7.06-13.543.449-1.721 1.412-3.023 2.858-3.866 3.126-1.824 7.408-.89 8.647-.558 4.96 1.323 7.853 3.475 10.678 7.941 3.913 6.181 3.7 9.476 2.015 13.085-1.517 3.246-7.126 8.34-13.96 9.945m4.431 1.972c-1.256 0-5.299-.088-6.413-1.178a1.18 1.18 0 0 1-.304-1.214c.145-.473.561-.84 1.066-.931 5.46-1.006 10.163-4.442 12.516-7.352-2 1.817-2.759 1.545-3.111 1.294-.29-.056-1.154-.105-1.923-.148-2.11-.12-5.299-.303-8.139-1.002-4.522-1.114-7.993-3.5-8.138-3.598l-.113-.095-4.163-4.223-3.471-8.343 5.923-13.473 23.59 3.422 9.504 10.979-1.841 17.374-6.96 5.683-7.864 2.805h-.159" style="fill:#211d1d;fill-opacity:1;fill-rule:nonzero;stroke:none;stroke-width:.0352778" transform="translate(35.139 60.629)scale(.6905)"/><path d="M103.036 113.835c2.3-2.459 2.621-6.667 2.664-7.983.004-.127-.177-.17-.254-.064-2.844 3.765-5.07 7.342-15.297 7.673-.088.004-.155.078-.137.16.476 1.88.215 3.894-.216 6.053-.017.088.064.166.16.148 5.016-.988 11.225-4 13.08-5.987" style="fill:#fff;fill-opacity:1;fill-rule:nonzero;stroke:none;stroke-width:.0352778" transform="translate(35.139 60.629)scale(.6905)"/><path d="M90.177 114.248h-.003zm.759-.032c.233 1.517.081 3.094-.18 4.625 4.734-1.136 10.121-3.845 11.705-5.542 1.334-1.425 1.944-3.538 2.223-5.207-2.42 3.059-5.416 5.711-13.748 6.124m-1.009 6.396a.912.912 0 0 1-.903-1.09c.44-2.215.649-4.032.226-5.708a.923.923 0 0 1 .875-1.14c9.401-.303 11.68-3.344 14.319-6.864l.37-.498a.94.94 0 0 1 1.07-.317.9.9 0 0 1 .602.882c-.053 1.69-.444 5.902-2.875 8.498-2.099 2.244-8.664 5.267-13.504 6.22q-.09.016-.18.017" style="fill:#211d1d;fill-opacity:1;fill-rule:nonzero;stroke:none;stroke-width:.0352778" transform="translate(35.139 60.629)scale(.6905)"/><path d="M114.71 92.616c-2.576-11.705-13.544-14.387-20.955-15.766-5.51-1.023-8.912.152-13.748 4.72-3.126 2.953-4.706 6.848-5.535 9.515-.741 2.374-1.609 5.545.716 10.59 2.321 5.045 9.303 7.659 9.303 7.659-2.24-2.403-5.416-3.323-6.738-7.892-.992-3.418-.635-7.472 1.735-11.338 4.597-7.497 17.935-5.14 24.11 2.064 5.636 6.579 6.092 17.092 2.469 22.394-2.706 3.969-7.903 6.449-13.836 7.225 2.44 1.266 13.014-2.91 15.116-4.473 6.375-4.731 9.941-12.993 7.363-24.698" style="fill:#ca851a;fill-opacity:1;fill-rule:nonzero;stroke:none;stroke-width:.0352778" transform="translate(35.139 60.629)scale(.6905)"/><path d="M88.9 84.713c5.567 0 11.698 2.745 15.297 6.943 6.053 7.066 6.188 17.978 2.519 23.35-.89 1.31-2.06 2.488-3.458 3.504 1.627-.678 2.97-1.348 3.62-1.828 6.83-5.073 9.338-13.557 7.063-23.897-2.3-10.456-11.568-13.529-20.331-15.159-5.235-.974-8.41.124-13.063 4.516-2.318 2.187-4.107 5.277-5.324 9.179-.631 2.032-1.587 5.101.677 10.026.565 1.22 1.433 2.297 2.406 3.22-.522-.8-.973-1.745-1.312-2.906-1.14-3.94-.494-8.192 1.824-11.97 1.757-2.868 4.882-4.618 8.795-4.928.427-.032.853-.05 1.287-.05m4.671 38.093c-.691 0-1.277-.098-1.704-.317l-2.226-1.154 2.487-.328c5.994-.786 10.838-3.295 13.29-6.886 3.337-4.893 3.016-15.102-2.417-21.438-3.57-4.17-9.846-6.777-15.261-6.35-2.406.19-5.673 1.072-7.578 4.18-2.085 3.397-2.67 7.2-1.654 10.71.853 2.94 2.504 4.22 4.254 5.574.78.604 1.584 1.224 2.304 1.997l2.286 2.448-3.137-1.17c-.296-.114-7.313-2.788-9.743-8.065-2.523-5.476-1.415-9.032-.752-11.155 1.295-4.163 3.228-7.48 5.747-9.853 5.03-4.752 8.671-5.994 14.432-4.922 6.086 1.133 18.743 3.486 21.58 16.37 2.416 10.978-.304 20.037-7.663 25.498-1.608 1.196-9.99 4.861-14.245 4.861" style="fill:#211d1d;fill-opacity:1;fill-rule:nonzero;stroke:none;stroke-width:.0352778" transform="translate(35.139 60.629)scale(.6905)"/><path d="M124.728 74.755c.78-.223.438-1.436-.342-1.214-.78.219-.44 1.432.342 1.214M111.348 106.66c.78-.219.437-1.433-.343-1.214-.78.222-.44 1.436.343 1.214M109.608 86.827c.78-.22.438-1.433-.342-1.21-.783.218-.44 1.432.342 1.21M108.448 93.508c.78-.219.44-1.432-.342-1.21-.78.219-.438 1.432.342 1.21M97.935 64.094c.78-.22.437-1.433-.342-1.21-.78.218-.441 1.432.342 1.21M129.427 72.839c.78-.219.438-1.432-.342-1.214-.783.223-.44 1.436.342 1.214M126.4 69.77c.784-.219.442-1.432-.342-1.214-.78.222-.437 1.436.343 1.214M131.692 86.417c.78-.218.441-1.432-.342-1.21-.78.22-.437 1.433.342 1.21M129.974 99.036c.78-.222.441-1.436-.342-1.213-.78.218-.437 1.432.342 1.213M125.328 104.67c.78-.219.438-1.432-.342-1.21-.78.219-.441 1.432.342 1.21M120.238 64.136c.78-.219.44-1.432-.343-1.21-.78.219-.44 1.432.343 1.21M116.188 67.403c.78-.22.437-1.433-.342-1.214-.78.222-.441 1.436.342 1.214M98.926 83.239c.78-.219.441-1.432-.342-1.21-.78.219-.437 1.432.342 1.21M94.344 83.024c.78-.22.437-1.433-.342-1.214-.78.222-.441 1.436.342 1.214M89.99 80.173c.78-.219.441-1.432-.342-1.21-.78.219-.44 1.432.342 1.21M86.523 82.533c.78-.218.437-1.432-.343-1.213-.783.222-.44 1.436.343 1.213M81.675 86.255c.78-.219.438-1.432-.342-1.21-.78.219-.44 1.432.342 1.21M105.707 88.284c.78-.22.437-1.433-.343-1.214-.783.222-.44 1.436.343 1.214M103.527 85.236c.783-.22.44-1.433-.343-1.21-.78.218-.437 1.432.343 1.21M111.556 95.755c.78-.222.437-1.435-.342-1.213-.78.219-.441 1.432.342 1.213M109.196 90.954c.78-.222.437-1.436-.343-1.213-.783.218-.44 1.432.343 1.213M112.639 99.632c.78-.222.437-1.435-.342-1.213-.784.219-.441 1.432.342 1.213M114.226 63.183c.78-.218.438-1.432-.342-1.21-.78.22-.44 1.433.342 1.21M104.825 60.52c.78-.219.437-1.432-.342-1.21-.78.219-.441 1.432.342 1.21M109.093 59.328c.78-.22.438-1.433-.345-1.21-.78.218-.438 1.432.345 1.21M121.038 68.55c.78-.223.438-1.437-.342-1.214-.783.218-.44 1.432.342 1.213M110.208 65.148c.78-.222.438-1.435-.342-1.213-.78.219-.441 1.432.342 1.213M104.797 66.694c.78-.223.437-1.436-.343-1.214-.783.219-.44 1.432.343 1.214M99.152 69.092c.78-.218.438-1.432-.342-1.21-.783.22-.441 1.433.342 1.21M101.988 64.072c.78-.218.438-1.432-.342-1.21-.783.22-.44 1.433.342 1.21M134.63 82.202c.78-.223.438-1.433-.341-1.214-.78.222-.441 1.432.342 1.214M130.027 78.582c.78-.222.441-1.432-.342-1.213-.78.222-.437 1.432.342 1.213M134.155 92.178c.78-.222.44-1.436-.343-1.213-.78.218-.44 1.432.343 1.213" style="fill:#e2994c;fill-opacity:1;fill-rule:nonzero;stroke:none;stroke-width:.0352778" transform="translate(35.139 60.629)scale(.6905)"/><path d="M76.55 81.168c-.166-.356-.558-.557-.907-.466-4.957 1.274-14.323 2.76-15.173 3.627-.617.628-8.103 9.405-10.164 13.635-.102.211.067.476.307.487 4.424.18 9.275.472 12.75-1.849a1 1 0 0 0 .11-.088L77.06 83.34c.212-.201.258-.529.124-.822z" style="fill:#fff;fill-opacity:1;fill-rule:nonzero;stroke:none;stroke-width:.0352778" transform="translate(35.139 60.629)scale(.6905)"/><path d="M76.497 82.858h.003zM51.298 97.713c4.208.177 8.537.325 11.638-1.746l13.55-13.13-.628-1.344-.053-.05c-1.88.49-4.424 1.01-6.886 1.51-3.097.635-7.345 1.503-7.93 1.933-.6.614-7.335 8.516-9.691 12.827m3.355 1.62c-1.217 0-2.431-.05-3.599-.1l-.472-.02a1.1 1.1 0 0 1-.91-.547 1.09 1.09 0 0 1-.053-1.037c2.08-4.276 9.634-13.156 10.304-13.836.628-.639 3.006-1.175 8.693-2.336 2.44-.5 4.963-1.016 6.836-1.496.71-.183 1.464.187 1.789.882l.635 1.352c.275.585.162 1.266-.282 1.696L64 97.064a1.3 1.3 0 0 1-.215.173c-2.59 1.732-5.877 2.095-9.133 2.095" style="fill:#211d1d;fill-opacity:1;fill-rule:nonzero;stroke:none;stroke-width:.0352778" transform="translate(35.139 60.629)scale(.6905)"/><path d="M82.487 109.164c3.626-3.781 9.5-12.516 9.645-13.701.208-1.715-.141-2.646-1.514-3.87q-4.798-4.281-9.592-8.562c-1.397-1.25-3.023-2.586-4.773-2.49-1.432.073-2.519 1.096-3.496 2.066q-4.645 4.626-9.295 9.25c-.681.681-1.397 1.418-1.556 2.41-.237 1.46.79 2.935 1.82 4.148.035.04.067.074.106.106.974.815 14.224 12.527 18.655 10.643" style="fill:#ecf9f7;fill-opacity:1;fill-rule:nonzero;stroke:none;stroke-width:.0352778" transform="translate(35.139 60.629)scale(.6905)"/><path d="M76.426 81.34c-.042 0-.085.005-.13.005-1.098.06-1.994.868-2.967 1.838l-9.296 9.246c-.684.681-1.217 1.26-1.33 1.965-.187 1.164.78 2.484 1.64 3.5l.28.24c8.356 7.179 14.985 11.105 17.405 10.34 3.747-3.962 9.077-12.108 9.307-13.127.172-1.454-.085-2.106-1.256-3.154l-9.589-8.559c-1.302-1.164-2.685-2.293-4.064-2.293m6.06 27.824h.004zm-1.08.998c-4.296 0-11.895-5.7-17.836-10.802-.12-.102-.205-.18-.258-.222a1.6 1.6 0 0 1-.2-.201c-1.087-1.28-2.297-2.985-2.004-4.801.208-1.281 1.118-2.188 1.785-2.85l9.295-9.25c.935-.932 2.22-2.209 4.022-2.304 2.035-.11 3.831 1.337 5.352 2.695l9.592 8.562c1.552 1.386 2.017 2.582 1.778 4.572-.194 1.616-6.463 10.618-9.864 14.16l-.113.12-.152.064c-.412.176-.882.257-1.397.257" style="fill:#211d1d;fill-opacity:1;fill-rule:nonzero;stroke:none;stroke-width:.0352778" transform="translate(35.139 60.629)scale(.6905)"/><path d="M50.49 98.253c-.201.088-.247.353-.095.543 3.355 4.149 9.168 13.113 13.723 14.88 3.944 1.532 15.24-3.312 17.6-4.36.204-.092.222-.377.032-.536L63.3 93.184c-.3-.25-.696-.321-1.02-.177z" style="fill:#bae7e0;fill-opacity:1;fill-rule:nonzero;stroke:none;stroke-width:.0352778" transform="translate(35.139 60.629)scale(.6905)"/><path d="M50.49 98.253h.003zm.892.487c.653.825 1.383 1.803 2.149 2.826 3.178 4.247 7.528 10.057 10.88 11.36 2.72 1.054 10.272-1.44 16.234-4.023L62.777 93.801c-.067-.056-.141-.067-.17-.056zm14.655 16.03c-.85 0-1.605-.102-2.212-.339-3.782-1.47-8.11-7.25-11.585-11.895-.903-1.207-1.754-2.346-2.473-3.232a1.18 1.18 0 0 1-.237-1.026c.081-.342.31-.621.632-.762l11.79-5.246c.603-.268 1.337-.152 1.87.296l18.45 15.597c.31.26.462.656.405 1.047-.053.378-.289.692-.631.844-2.755 1.224-11.056 4.716-16.01 4.716" style="fill:#211d1d;fill-opacity:1;fill-rule:nonzero;stroke:none;stroke-width:.0352778" transform="translate(35.139 60.629)scale(.6905)"/><path d="M120.964 130.105a.77.77 0 0 0 .1-1.03c-3.32-4.49-8.669-13.25-9.893-13.829-.885-.416-12.827-5.15-17.946-5.912a.335.335 0 0 0-.363.448c1.633 4.402 3.327 9.253 7.098 11.973q.064.049.134.081l18.888 9.423c.289.145.638.095.878-.127z" style="fill:#fff;fill-opacity:1;fill-rule:nonzero;stroke:none;stroke-width:.0352778" transform="translate(35.139 60.629)scale(.6905)"/><path d="M93.906 110.272c1.538 4.16 3.168 8.407 6.527 10.83l18.909 9.434 1.054-1.006c-1.273-1.725-2.832-4.057-4.342-6.31-1.934-2.887-4.58-6.841-5.243-7.25-.878-.417-11.55-4.64-16.905-5.698m25.418 21.876c-.24 0-.48-.056-.702-.166l-18.888-9.423a2 2 0 0 1-.247-.148c-3.838-2.769-5.63-7.61-7.207-11.881l-.176-.466a1.143 1.143 0 0 1 1.241-1.527c5.158.765 17.209 5.528 18.172 5.98.871.412 2.385 2.581 5.877 7.803 1.507 2.25 3.066 4.579 4.318 6.275.48.65.395 1.553-.197 2.103l-1.105 1.027c-.3.275-.691.423-1.086.423" style="fill:#211d1d;fill-opacity:1;fill-rule:nonzero;stroke:none;stroke-width:.0352778" transform="translate(35.139 60.629)scale(.6905)"/><path d="M95.123 144.301c5.306 2.434 16.546 5.599 17.798 5.387 1.82-.31 2.618-.928 3.291-2.646l4.71-11.98c.688-1.746 1.369-3.743.557-5.433-.663-1.386-2.145-2.148-3.524-2.819q-6.581-3.185-13.158-6.37c-.97-.47-2.008-.95-3.073-.812-1.574.204-2.639 1.654-3.443 3.03a.6.6 0 0 0-.064.134c-.427 1.2-6.815 17.717-3.094 21.51" style="fill:#bae7e0;fill-opacity:1;fill-rule:nonzero;stroke:none;stroke-width:.0352778" transform="translate(35.139 60.629)scale(.6905)"/><path d="M95.607 143.634c5.235 2.368 15.568 5.257 17.116 5.257h.078c1.545-.265 2.096-.706 2.66-2.145l4.71-11.98c.656-1.67 1.241-3.412.582-4.788-.53-1.104-1.74-1.76-3.15-2.44l-13.16-6.372c-.959-.466-1.816-.843-2.613-.737-1.256.162-2.184 1.495-2.854 2.638l-.12.329c-3.895 10.548-5.098 18.076-3.25 20.238m17.22 6.865c-2.311 0-13.392-3.333-18.038-5.464l-.137-.064-.103-.105c-3.206-3.264-.25-13.78 2.79-22.028.057-.145.096-.254.117-.317q.053-.142.127-.272c.854-1.46 2.085-3.168 4.04-3.422 1.34-.173 2.603.437 3.524.886l13.158 6.37c1.627.787 3.15 1.623 3.906 3.197.938 1.961.215 4.166-.537 6.078l-4.71 11.98c-.772 1.962-1.795 2.787-3.904 3.144q-.096.016-.233.017" style="fill:#211d1d;fill-opacity:1;fill-rule:nonzero;stroke:none;stroke-width:.0352778" transform="translate(35.139 60.629)scale(.6905)"/><path d="M93.01 109.602a.376.376 0 0 0-.585.067c-2.82 4.537-9.487 12.926-9.402 17.928.074 4.332 9.603 13.988 11.631 15.992a.335.335 0 0 0 .554-.127l8.18-22.786c.131-.37.04-.78-.239-1.055z" style="fill:#ecf9f7;fill-opacity:1;fill-rule:nonzero;stroke:none;stroke-width:.0352778" transform="translate(35.139 60.629)scale(.6905)"/><path d="M92.823 110.55c-.575.897-1.27 1.92-2 2.992-2.977 4.382-7.056 10.38-6.992 14.041.05 3.023 5.768 9.797 10.869 14.912l7.927-22.095a.19.19 0 0 0-.046-.204zm2.067 33.944c-.3 0-.585-.116-.804-.331-2.766-2.734-11.793-12.013-11.87-16.553-.071-4.173 4-10.163 7.273-14.975.847-1.246 1.648-2.424 2.248-3.39.19-.31.508-.512.867-.554.357-.046.713.077.974.335l10.139 10.019c.497.494.667 1.242.43 1.901l-8.177 22.786a1.15 1.15 0 0 1-1.08.762" style="fill:#211d1d;fill-opacity:1;fill-rule:nonzero;stroke:none;stroke-width:.0352778" transform="translate(35.139 60.629)scale(.6905)"/><path d="M95.346 192.37c-2.907 0-5.765-.285-8.534-.564q-1.302-.133-2.59-.25-1.243-.11-2.465-.205c-3.034-.243-5.902-.473-8.601-.995-3.426-.66-7.38-1.492-10.746-2.663-4-1.387-7.175-3.443-9.497-5.077-2.935-2.07-4.667-4.215-5.164-6.392a6 6 0 0 1-.053-.776c0-.042-.004-.085 0-.11l.025-.123-.011-.127c0-.053.01-.152.025-.247l.003-.063c.106-1.704.307-5.581.392-11.275.843 1.185 2.106 2.265 3.856 3.323 2.406 1.46 5.704 3.298 9.895 4.55 3.457 1.034 7.486 1.765 10.975 2.347 2.773.462 5.676.663 8.745.875.822.06 1.648.116 2.48.18q1.327.1 2.674.218c2.773.24 5.641.484 8.587.484 4.17 0 7.867-.124 11.3-.385 4.088-.314 7.94-.903 11.168-1.44 3.38-.564 6.724-1.364 10.841-2.596 4.294-1.284 7.603-2.646 10.11-4.17q2.86-1.731 4.344-3.675l-.22 12.234q.001.456-.066.907c-.501 2.23-2.173 4.353-4.985 6.328-2.395 1.687-5.567 3.207-9.701 4.643-2.501.868-6.326 2.117-10.626 2.953-2.967.575-6.897 1.284-11 1.65-3.386.297-7.037.442-11.161.442m47.907-37.557c-.999-1.365-2.519-2.67-4.555-3.905a26 26 0 0 0-1.792-.995q.356-.538.664-1.087c.529-.928 1.1-2.025 1.252-3.273.176-1.468-.261-2.869-.646-4.1l-3.111-9.97c-.247-.797-.653-2.098-1.722-2.783a1.65 1.65 0 0 0-.61-.427c-.91-.388-3.207-.6-6.011-.6-1.711 0-3.613.078-5.5.248-1.157-1.613-2.512-3.634-3.828-5.602-3.492-5.222-5.006-7.391-5.877-7.804a.2.2 0 0 1-.046-.021q.089-.105.173-.212c2.395-.035 8.96-.624 15.258-5.574 6.47-5.087 10.763-10.205 11.504-18.62q1.394-.717 2.568-1.477c1.739-1.13 3.125-2.329 4.152-3.585l-.092 1.747-.01.165c0 .032-.004.064-.004.1l-.007.137a2 2 0 0 0-.007.152l-.025.504q-.01.084-.01.173c-.005.035-.005.07-.008.106l-.031.638c-.007.148-.018.297-.018.445l-.751 14.746zm-95.102-.275a425 425 0 0 0-.459-16.119c-.543-11.458-1.418-25.075-2.201-36.865-.01-.201-.021-.31-.021-.314-.22-3.256-.438-6.54-.66-9.839-.138-2.074-.279-4.156-.416-6.237 1.026 1.16 2.38 2.286 4.053 3.373 1.432.93 3.157 1.993 5.182 2.998-1.672 2.23-3.228 4.484-4.01 6.093-.1.204-.131.434-.092.652-.085.357.003.73.24 1.023.72.886 1.57 2.025 2.472 3.232 3.475 4.646 7.804 10.424 11.586 11.895.606.237 1.361.34 2.212.34 4.836 0 12.865-3.331 15.804-4.63.346-.031.67-.109.963-.236l.152-.063.113-.12q.047-.047.095-.099c.596.275.984.423 1.051.448l3.136 1.171-.109-.116c.727.26 1.503.5 2.307.698q.211.052.424.1l-.484.712c-3.274 4.812-7.345 10.802-7.274 14.975.063 3.793 6.378 10.894 10.065 14.722-2.64.056-5.303.183-7.955.377-.23-.663-.456-1.337-.681-2.004-1.214-3.633-2.364-7.066-3.987-8.607-1.979-1.87-13.035-5-17.12-5.864a1.04 1.04 0 0 0-.818.173 1.48 1.48 0 0 0-.89.554c-3.478 4.498-7.485 11.571-8.42 16.383-.335 1.74.204 4.223 1.069 6.745q-.801.457-1.454.854c-1.707 1.037-3.002 2.237-3.873 3.595m68.093-57.013q-.03-.38-.067-.765c.847-.141 1.669-.286 2.452-.424.55-.098 1.097-.204 1.65-.314-1.23.632-2.6 1.126-4.035 1.503" style="fill:#ae6838;fill-opacity:1;fill-rule:nonzero;stroke:none;stroke-width:.0352778" transform="translate(35.139 60.629)scale(.6905)"/><path d="M95.342 173.786c-2.875 0-5.704-.243-8.442-.48-.903-.077-1.8-.155-2.688-.222-.836-.063-1.669-.12-2.49-.176-3.031-.212-5.896-.41-8.587-.857-3.436-.572-7.402-1.295-10.767-2.3-4.008-1.196-7.183-2.967-9.504-4.375-3.616-2.194-4.357-4.053-4.357-6.174 0-2.786 1.436-5.012 4.396-6.808.356-.215.744-.448 1.171-.688 1.26 3.235 2.861 6.286 3.609 7.655q.022.042.05.085.09.202.208.377l.095.145.148.092c1.845 1.164 3.447 1.958 4.995 2.727 2.184 1.086 4.248 2.11 6.594 4.025.744.603 1.841 1.5 3.242 1.5q.16 0 .324-.018c2.04-.201 3.45-2.142 4.565-4.011L84.614 153c1.111-1.87 2.16-3.86 1.704-5.825-.18-.78-.582-1.414-1.058-1.94-.117-.279-.226-.571-.339-.868 3.006-.211 6.025-.335 9.003-.363.173.324.38.614.624.86l.103.106.137.064c2.381 1.094 6.46 2.501 10.178 3.616.97 5.352 2.706 12.785 5.041 14.178.635.381 1.856.547 3.37.547 2.906 0 6.903-.614 9.947-1.503 3.355-.98 5.416-2.194 6.125-3.609q.083-.174.162-.35c2.124-2.006 4.459-4.211 6.297-6.603.684.342 1.323.691 1.909 1.048 3.432 2.081 5.171 4.268 5.171 6.505 0 2.31-1.718 4.522-5.104 6.576-2.385 1.446-5.564 2.755-9.716 3.997-4.05 1.21-7.33 1.993-10.633 2.543-3.192.533-6.999 1.118-11.02 1.422-3.39.257-7.045.384-11.173.384" style="fill:#a3491e;fill-opacity:1;fill-rule:nonzero;stroke:none;stroke-width:.0352778" transform="translate(35.139 60.629)scale(.6905)"/><path d="M95.342 175.48c-2.946 0-5.814-.244-8.587-.484-.9-.077-1.788-.151-2.674-.218-.832-.064-1.658-.12-2.48-.18-3.069-.212-5.972-.413-8.745-.875-3.489-.582-7.518-1.313-10.975-2.346-4.19-1.253-7.49-3.09-9.895-4.551-1.75-1.058-3.013-2.138-3.856-3.323.039-2.614.053-5.616.021-8.964.871-1.358 2.166-2.558 3.873-3.595q.653-.398 1.454-.854.28.811.596 1.616c-.427.24-.815.473-1.171.688-2.96 1.795-4.396 4.022-4.396 6.808 0 2.12.741 3.98 4.357 6.174 2.321 1.408 5.496 3.179 9.504 4.375 3.365 1.005 7.33 1.728 10.767 2.3 2.691.448 5.556.645 8.586.857.822.056 1.655.113 2.49.176.89.067 1.786.145 2.69.223 2.737.236 5.566.48 8.441.48 4.128 0 7.782-.128 11.173-.385 4.021-.304 7.828-.89 11.02-1.422 3.302-.55 6.583-1.333 10.633-2.543 4.152-1.242 7.33-2.551 9.716-3.997 3.386-2.054 5.104-4.266 5.104-6.576 0-2.237-1.739-4.424-5.172-6.505a26 26 0 0 0-1.908-1.048q.531-.688.998-1.397a26 26 0 0 1 1.792.995c2.036 1.234 3.556 2.54 4.555 3.905l-.148 8.4c-.988 1.294-2.438 2.522-4.343 3.675-2.508 1.524-5.817 2.886-10.11 4.17-4.118 1.232-7.462 2.032-10.842 2.597-3.227.536-7.08 1.125-11.168 1.44-3.433.26-7.13.384-11.3.384m-10.421-31.112a60 60 0 0 1-.596-1.658c2.653-.194 5.316-.32 7.955-.377.642.663 1.203 1.23 1.637 1.665q.003.001.007.007c-2.978.028-5.997.151-9.003.363" style="fill:#7e3b1a;fill-opacity:1;fill-rule:nonzero;stroke:none;stroke-width:.0352778" transform="translate(35.139 60.629)scale(.6905)"/><path d="M95.346 192.706c-2.9 0-5.758-.286-8.524-.561a246 246 0 0 0-2.592-.25c-.833-.075-1.655-.138-2.473-.205-3.03-.24-5.892-.47-8.583-.988-3.422-.656-7.377-1.482-10.736-2.642-3.986-1.373-7.154-3.412-9.472-5.034-3.146-2.205-4.896-4.491-5.217-6.802.497 2.177 2.23 4.322 5.164 6.392 2.322 1.634 5.497 3.69 9.497 5.077 3.366 1.171 7.32 2.004 10.746 2.663 2.699.522 5.567.752 8.6.995q1.223.094 2.467.205 1.286.117 2.589.25c2.77.279 5.627.565 8.534.565 4.124 0 7.775-.145 11.161-.441 4.103-.367 8.033-1.076 11-1.651 4.3-.836 8.125-2.085 10.626-2.953 4.134-1.436 7.306-2.956 9.701-4.643 2.812-1.975 4.484-4.099 4.985-6.328-.342 2.374-2.032 4.639-5.041 6.738-2.385 1.672-5.55 3.178-9.673 4.603-2.502.861-6.322 2.103-10.616 2.932-2.966.571-6.893 1.273-10.989 1.64-3.383.293-7.034.438-11.154.438" style="fill:#773319;fill-opacity:1;fill-rule:nonzero;stroke:none;stroke-width:.0352778" transform="translate(35.139 60.629)scale(.6905)"/><path d="M95.346 193.655c-3.863 0-7.596-.49-11.198-.812-3.901-.342-7.672-.536-11.154-1.206-3.937-.752-7.652-1.566-10.866-2.678-3.983-1.372-7.14-3.355-9.705-5.154-3.605-2.526-5.68-5.299-5.68-8.357 0-.102 0-.205.018-.296-.007-.145.01-.29.028-.434.194-3.161.882-16.486-.046-36.255-.518-10.944-1.323-23.64-2.204-36.866-.008-.194-.018-.285-.018-.285-.441-6.615-.896-13.35-1.344-20.06.684 2.333 2.71 4.488 5.789 6.488 1.534.999 3.27 2.053 5.246 3.027-.194.254-.392.512-.582.77-2.025-1.006-3.75-2.068-5.183-3-1.672-1.086-3.027-2.211-4.053-3.372.137 2.081.279 4.163.416 6.237l.66 9.84c0 .003.01.112.021.313.783 11.79 1.658 25.407 2.201 36.865.283 6.001.417 11.406.459 16.119.032 3.348.018 6.35-.021 8.964-.085 5.694-.286 9.57-.392 11.275l-.003.063a2 2 0 0 0-.025.247l.01.127-.024.124c-.004.024 0 .067 0 .109q0 .385.053.776c.32 2.31 2.07 4.597 5.217 6.802 2.318 1.622 5.486 3.661 9.473 5.034 3.358 1.16 7.313 1.986 10.735 2.642 2.691.519 5.552.748 8.583.988.818.067 1.64.13 2.473.204q1.285.118 2.593.25c2.765.276 5.623.562 8.523.562 4.12 0 7.771-.145 11.154-.438 4.096-.367 8.023-1.069 10.99-1.64 4.293-.83 8.113-2.07 10.615-2.932 4.124-1.425 7.288-2.931 9.673-4.603 3.009-2.1 4.699-4.364 5.04-6.738q.07-.451.068-.907l.219-12.234.148-8.4.91-50.874.751-14.746c0-.148.011-.297.018-.445l.032-.638q.004-.053.007-.106 0-.09.01-.173l.025-.504q.001-.079.007-.152l.007-.138c0-.035.004-.067.004-.099l.01-.165.092-1.747c-1.026 1.256-2.413 2.456-4.152 3.585q-1.173.76-2.568 1.478.05-.548.077-1.115a27 27 0 0 0 1.972-1.16c3.01-1.955 4.9-4.103 5.581-6.393q.116-.012.226-.028l-.278 5.454c-.007.077-.007.173-.018.271 0 .078-.007.152-.007.24l-.028.54c-.01.095-.01.194-.021.296l-.025.621c-.01.134-.021.272-.021.406l-.064 1.16-.684 13.572-1.28 71.494c0 3.058-1.91 5.909-5.511 8.424-2.565 1.8-5.937 3.348-9.91 4.724-3.224 1.111-6.801 2.205-10.745 2.967-3.475.67-7.19 1.305-11.088 1.65-3.606.315-7.373.442-11.236.442m6.678-95.487a17 17 0 0 1-1.164-.222 15 15 0 0 1-1.743-.529q1.186-.03 2.364-.078.272.401.543.83m14.153-1.408a30 30 0 0 0-.109-.95q1.214-.2 2.395-.412a76 76 0 0 0 4.06-.847 8 8 0 0 1-.712.554q-.72.501-1.53.918c-.555.109-1.101.215-1.652.313-.783.138-1.605.283-2.452.424" style="fill:#4d2919;fill-opacity:1;fill-rule:nonzero;stroke:none;stroke-width:.0352778" transform="translate(35.139 60.629)scale(.6905)"/><path d="M130.281 155.047c.113-1.507-.07-3.013-.233-4.332l-1.474-12.185c-.057-.452-.124-1.002-.297-1.545l4.625-6.485c.272.396.455.932.621 1.468l3.112 9.966c.352 1.132.72 2.304.585 3.425-.116.953-.606 1.88-1.054 2.675-1.408 2.483-3.648 4.847-5.885 7.013" style="fill:#a69e7b;fill-opacity:1;fill-rule:nonzero;stroke:none;stroke-width:.0352778" transform="translate(35.139 60.629)scale(.6905)"/><path d="M129.61 157.915c.403-.924.597-1.895.671-2.868 2.237-2.166 4.477-4.53 5.884-7.013.449-.794.939-1.722 1.055-2.675.134-1.121-.233-2.293-.585-3.425l-3.112-9.966c-.166-.536-.349-1.072-.62-1.468l.754-1.054-.116-.381a1.1 1.1 0 0 0-.198-.364c1.07.685 1.475 1.986 1.722 2.784l3.111 9.97c.385 1.23.822 2.631.646 4.099-.152 1.248-.723 2.345-1.252 3.273q-.308.549-.664 1.087-.467.709-.998 1.397c-1.838 2.392-4.173 4.597-6.297 6.604" style="fill:#4d2919;fill-opacity:1;fill-rule:nonzero;stroke:none;stroke-width:.0352778" transform="translate(35.139 60.629)scale(.6905)"/><path d="M113.267 161.757c-1.207 0-2.089-.106-2.434-.314-1.496-.893-3.108-6.982-4.142-12.288 2.812.794 5.196 1.344 6.135 1.344q.137-.001.233-.017c2.11-.356 3.132-1.182 3.905-3.143l3.002-7.635 6.872-1.855c.053.264.092.557.13.875l1.479 12.185c.25 2.06.56 4.625-.445 6.632-.476.956-2.346 1.968-5.13 2.783-3.39.988-7.164 1.433-9.605 1.433" style="fill:#c8a889;fill-opacity:1;fill-rule:nonzero;stroke:none;stroke-width:.0352778" transform="translate(35.139 60.629)scale(.6905)"/><path d="M113.376 163.376c-1.513 0-2.734-.166-3.369-.547-2.335-1.393-4.071-8.826-5.041-14.178.585.176 1.164.346 1.725.504 1.034 5.306 2.646 11.395 4.142 12.288.345.208 1.227.314 2.434.314 2.44 0 6.216-.445 9.606-1.433 2.783-.815 4.653-1.827 5.13-2.783 1.005-2.007.694-4.572.444-6.632l-1.478-12.185c-.04-.318-.078-.61-.13-.875l.743-.201.28-.078.415-.585c.173.543.24 1.093.297 1.545l1.474 12.185c.163 1.319.346 2.825.233 4.332-.074.973-.268 1.944-.67 2.868q-.079.174-.162.35c-.71 1.414-2.77 2.627-6.125 3.608-3.044.889-7.041 1.503-9.948 1.503" style="fill:#4d2919;fill-opacity:1;fill-rule:nonzero;stroke:none;stroke-width:.0352778" transform="translate(35.139 60.629)scale(.6905)"/><path d="m120.7 137.831.973-2.473c.73-1.852 1.43-3.98.618-5.891a65 65 0 0 1 4.607-.166c2.06 0 3.768.11 4.667.293l-4.685 6.569z" style="fill:#d4ab8d;fill-opacity:1;fill-rule:nonzero;stroke:none;stroke-width:.0352778" transform="translate(35.139 60.629)scale(.6905)"/><path d="m119.966 139.704.734-1.873 6.18-1.668 4.685-6.57c-.9-.183-2.607-.292-4.667-.292a65 65 0 0 0-4.607.166 3 3 0 0 0-.081-.187 4.8 4.8 0 0 0-.974-1.34q-.005-.007-.014-.018a63 63 0 0 1 5.5-.247c2.804 0 5.1.211 6.011.6.261.112.466.257.61.426q.134.166.198.364l.116.38-.755 1.056-4.625 6.484-.416.585-.279.078-.744.2zm12.196-9.913h.004z" style="fill:#4d2919;fill-opacity:1;fill-rule:nonzero;stroke:none;stroke-width:.0352778" transform="translate(35.139 60.629)scale(.6905)"/><path d="M57.64 155.766c-2.211-4.505-4.13-9.613-3.643-12.114.818-4.237 4.356-10.615 7.5-14.89.783 3.562 2.465 6.737 5.009 9.464-1.757 2.61-7.641 11.66-8.865 17.54" style="fill:#d4ab8d;fill-opacity:1;fill-rule:nonzero;stroke:none;stroke-width:.0352778" transform="translate(35.139 60.629)scale(.6905)"/><path d="M57.732 159.446q-.027-.042-.049-.085c-.748-1.369-2.35-4.42-3.609-7.655a41 41 0 0 1-.596-1.616c-.864-2.522-1.404-5.006-1.069-6.745.935-4.812 4.942-11.885 8.42-16.383.227-.293.544-.487.89-.554a1.105 1.105 0 0 0-.462 1.076q.101.646.24 1.277c-3.144 4.276-6.682 10.654-7.5 14.891-.487 2.501 1.432 7.61 3.644 12.114-.31 1.479-.325 2.756.091 3.68" style="fill:#4d2919;fill-opacity:1;fill-rule:nonzero;stroke:none;stroke-width:.0352778" transform="translate(35.139 60.629)scale(.6905)"/><path d="M82.85 143.387c-3.164-1.898-11.289-5.327-14.64-5.732l-.039-.028c-2.72-2.727-4.463-5.966-5.186-9.638 5.285 1.203 14.189 3.983 15.561 5.284 1.33 1.26 2.47 4.657 3.567 7.945.243.723.487 1.453.737 2.17" style="fill:#a69e7b;fill-opacity:1;fill-rule:nonzero;stroke:none;stroke-width:.0352778" transform="translate(35.139 60.629)scale(.6905)"/><path d="M85.26 145.236c-.607-.663-1.337-1.15-1.905-1.531a17 17 0 0 0-.505-.318c-.25-.716-.494-1.446-.737-2.17-1.097-3.287-2.237-6.684-3.567-7.944-1.372-1.301-10.276-4.081-15.56-5.284.722 3.672 2.465 6.91 5.185 9.638l.039.028a5 5 0 0 0-.582-.039q-.344-.002-.561.07l-.258.089-.148.222q-.073.106-.155.23c-2.544-2.728-4.226-5.903-5.01-9.466q-.137-.63-.24-1.277a1.1 1.1 0 0 1 .463-1.076 1.06 1.06 0 0 1 .818-.173c4.085.865 15.141 3.994 17.12 5.864 1.623 1.541 2.773 4.974 3.987 8.607.226.667.452 1.341.68 2.004q.294.853.597 1.658c.113.297.222.59.339.868" style="fill:#4d2919;fill-opacity:1;fill-rule:nonzero;stroke:none;stroke-width:.0352778" transform="translate(35.139 60.629)scale(.6905)"/><path d="M73.018 166.695c-.762 0-1.46-.515-2.226-1.135-2.483-2.029-4.628-3.09-6.897-4.22-1.464-.726-2.977-1.478-4.684-2.543-1.454-2.822 4.367-13.314 8.583-19.59 1.99.05 11.31 3.602 14.661 5.842 1.108.737 2.046 1.436 2.29 2.49.32 1.384-.575 3.049-1.517 4.636l-6.71 11.282c-.857 1.436-2.007 3.097-3.337 3.231q-.082.006-.163.007" style="fill:#c5a888;fill-opacity:1;fill-rule:nonzero;stroke:none;stroke-width:.0352778" transform="translate(35.139 60.629)scale(.6905)"/><path d="M73.015 168.311c-1.4 0-2.498-.896-3.242-1.5-2.346-1.915-4.41-2.938-6.594-4.024-1.548-.77-3.15-1.563-4.995-2.727l-.148-.092-.095-.145a2.6 2.6 0 0 1-.209-.377c-.416-.924-.402-2.201-.091-3.68 1.224-5.88 7.108-14.93 8.865-17.54q.083-.121.155-.229l.148-.222.258-.088c.145-.05.332-.071.56-.071q.26 0 .583.039c3.351.405 11.476 3.834 14.64 5.732q.279.17.505.318c.568.38 1.298.868 1.905 1.531.476.526.878 1.16 1.058 1.94.455 1.965-.593 3.955-1.704 5.825l-6.71 11.281c-1.115 1.87-2.526 3.81-4.565 4.012-.109.014-.218.017-.324.017m-5.221-29.104c-4.216 6.276-10.037 16.767-8.583 19.59 1.707 1.065 3.22 1.817 4.684 2.543 2.269 1.13 4.414 2.191 6.897 4.22.766.62 1.464 1.135 2.226 1.135.053 0 .11-.004.163-.007 1.33-.134 2.48-1.795 3.337-3.231l6.71-11.282c.942-1.587 1.838-3.252 1.517-4.635-.244-1.055-1.182-1.754-2.29-2.491-3.351-2.24-12.672-5.793-14.661-5.842" style="fill:#4d2919;fill-opacity:1;fill-rule:nonzero;stroke:none;stroke-width:.0352778" transform="translate(35.139 60.629)scale(.6905)"/><path d="M102.779 107.92c-3.285-.216-10.679-.816-13.995-2.022a12 12 0 0 1-1.842-.861c2.032-2.695 4.064-5.683 5.162-7.627q1.278.06 2.575.06c.222 0 .44 0 .663-.004 1.947 1.002 3.796 1.704 5.168 2.014a23 23 0 0 0 2.54.413c1.179 2.127 1.743 3.814 1.87 5.302a1 1 0 0 0-.106.117l-.37.497c-.547.73-1.08 1.44-1.665 2.11m13.162-3.302c.307-1.736.437-3.567.388-5.475 2.325-.582 4.54-1.464 6.382-2.741a10.4 10.4 0 0 0 2.547-2.548q.427-.117.85-.236a19 19 0 0 1-1.055 3.842c-2.05 2.01-5.295 4.882-9.112 7.158" style="fill:#d4ab8d;fill-opacity:1;fill-rule:nonzero;stroke:none;stroke-width:.0352778" transform="translate(35.139 60.629)scale(.6905)"/><path d="M103.05 99.893a23 23 0 0 1-2.54-.412c-1.372-.31-3.22-1.013-5.168-2.015 1.267-.004 2.526-.017 3.775-.049a15 15 0 0 0 1.743.53c.349.08.74.154 1.164.221q.008.016.017.025.566.895 1.01 1.7m13.278-.75a32 32 0 0 0-.085-1.617c1.436-.377 2.805-.871 4.036-1.502.54-.28 1.051-.583 1.53-.918q.376-.258.714-.554a88 88 0 0 0 2.734-.698 10.4 10.4 0 0 1-2.548 2.547c-1.841 1.277-4.056 2.159-6.381 2.741" style="fill:#4d2919;fill-opacity:1;fill-rule:nonzero;stroke:none;stroke-width:.0352778" transform="translate(35.139 60.629)scale(.6905)"/><path d="M114.6 109.274q.514-1.243.875-2.575c2.766-1.493 5.267-3.327 7.327-5.052-2.007 2.9-4.808 5.51-8.202 7.627" style="fill:#c59a64;fill-opacity:1;fill-rule:nonzero;stroke:none;stroke-width:.0352778" transform="translate(35.139 60.629)scale(.6905)"/><path d="M115.475 106.699q.276-1.018.466-2.082c3.817-2.275 7.062-5.147 9.112-7.158a21 21 0 0 1-2.25 4.188c-2.06 1.725-4.562 3.56-7.328 5.052" style="fill:#4d2919;fill-opacity:1;fill-rule:nonzero;stroke:none;stroke-width:.0352778" transform="translate(35.139 60.629)scale(.6905)"/><path d="M112.84 112.636q.26-.401.504-.819c6.506-3.464 11.328-8.607 13.388-14.347a20.3 20.3 0 0 0 1.037-4.34c.724-.218 1.436-.44 2.128-.662a66 66 0 0 0 3.556-1.239c-.223.378.028.974.518.974a.7.7 0 0 0 .184-.025c.656-.187.518-1.072-.004-1.22a46 46 0 0 0 2.691-1.161c-.684 7.98-4.762 12.834-10.915 17.674-5.005 3.934-10.287 4.928-13.088 5.165m12.33-9.204a.6.6 0 0 0-.183.028c-.717.201-.487 1.238.158 1.238a.6.6 0 0 0 .184-.028c.716-.201.487-1.238-.16-1.238m4.647-5.638c-.056 0-.12.011-.183.029-.717.2-.487 1.238.158 1.238a.7.7 0 0 0 .184-.025c.716-.204.487-1.242-.159-1.242" style="fill:#b5641d;fill-opacity:1;fill-rule:nonzero;stroke:none;stroke-width:.0352778" transform="translate(35.139 60.629)scale(.6905)"/><path d="M111.644 114.283q.64-.795 1.196-1.647c2.8-.237 8.082-1.231 13.088-5.165 6.152-4.84 10.23-9.694 10.915-17.674q.852-.4 1.64-.822c-.017.377-.046.751-.077 1.115-.741 8.414-5.034 13.532-11.504 18.62-6.298 4.949-12.863 5.538-15.258 5.573m1.7-2.466q.71-1.218 1.256-2.543c3.394-2.117 6.195-4.727 8.202-7.627a20.9 20.9 0 0 0 2.449-4.71q.582-1.636.857-3.32.841-.237 1.661-.486a20.3 20.3 0 0 1-1.037 4.339c-2.06 5.74-6.882 10.883-13.388 14.347" style="fill:#4d2919;fill-opacity:1;fill-rule:nonzero;stroke:none;stroke-width:.0352778" transform="translate(35.139 60.629)scale(.6905)"/><path d="M106.317 112.484q-.572-.213-1.175-.43c.681-1.46 1.02-3.03 1.19-4.304.588-2.741-.022-5.757-2.96-10.397q-.034-.052-.06-.098c.821-.046 1.64-.096 2.448-.156 2.31 5.207 2.335 11.335.557 15.385m-15.399-1.968a27 27 0 0 1-.991-.22c-2.163-.535-4.1-1.396-5.479-2.116a65 65 0 0 0 1.524-1.884c.91.54 1.732.886 2.276 1.083 3.111 1.133 9.313 1.74 13.045 2.018q-.564.478-1.234.903c-2.558-.825-5.013-1.513-6.714-1.763a1.133 1.133 0 0 0-.776.159c-.346.052-.645.25-.832.55-.244.391-.519.818-.819 1.27" style="fill:#c59a64;fill-opacity:1;fill-rule:nonzero;stroke:none;stroke-width:.0352778" transform="translate(35.139 60.629)scale(.6905)"/><path d="M89.973 111.923a23.274 23.274 0 0 1-2.73-.797l-2.177-2.332a11 11 0 0 0-.621-.614h.003c1.38.72 3.316 1.58 5.479 2.117q.487.117.991.219c-.296.448-.614.92-.945 1.407m11.32-2.526c-3.732-.278-9.934-.885-13.045-2.018a13.7 13.7 0 0 1-2.276-1.083c.321-.409.646-.832.97-1.259.738.423 1.4.698 1.842.86 3.316 1.207 10.71 1.807 13.995 2.022a13.4 13.4 0 0 1-1.486 1.478m5.038-1.647c.099-.759.141-1.411.155-1.873a.9.9 0 0 0-.603-.882.94.94 0 0 0-.963.201c-.127-1.489-.691-3.175-1.87-5.302a33 33 0 0 0-1.009-1.7q-.008-.01-.017-.026c-.18-.285-.364-.56-.544-.829q.922-.036 1.831-.084.029.046.06.099c2.939 4.639 3.55 7.655 2.96 10.396" style="fill:#4d2919;fill-opacity:1;fill-rule:nonzero;stroke:none;stroke-width:.0352778" transform="translate(35.139 60.629)scale(.6905)"/><path d="M103.65 111.518c-.564-.198-1.143-.4-1.722-.597 1.094-.853 1.955-1.82 2.756-2.829-.177 1.058-.487 2.297-1.034 3.426" style="fill:#d4ab8d;fill-opacity:1;fill-rule:nonzero;stroke:none;stroke-width:.0352778" transform="translate(35.139 60.629)scale(.6905)"/><path d="M105.142 112.054c-.483-.177-.984-.357-1.492-.537.547-1.128.857-2.367 1.034-3.425-.801 1.009-1.662 1.976-2.756 2.83q-.937-.319-1.87-.622.672-.424 1.235-.903a13.4 13.4 0 0 0 1.486-1.478c.585-.67 1.118-1.38 1.665-2.11l.37-.497a.94.94 0 0 1 1.069-.318.9.9 0 0 1 .603.883 19 19 0 0 1-.155 1.873c-.17 1.273-.508 2.843-1.189 4.304" style="fill:#4d2919;fill-opacity:1;fill-rule:nonzero;stroke:none;stroke-width:.0352778" transform="translate(35.139 60.629)scale(.6905)"/><path d="M109.933 113.867a163 163 0 0 0-2.141-.833c1.855-4.29 1.94-10.558-.36-16.072 2.434-.219 4.798-.536 7.08-.896.903 7.196-.68 13.328-4.579 17.801m1.256-8.446q-.089-.001-.184.025c-.716.205-.49 1.242.156 1.242q.088 0 .187-.028c.716-.201.486-1.238-.16-1.238m1.292-7.031q-.09 0-.183.028c-.717.201-.49 1.238.155 1.238q.088.001.187-.025c.712-.204.487-1.241-.159-1.241" style="fill:#b5641d;fill-opacity:1;fill-rule:nonzero;stroke:none;stroke-width:.0352778" transform="translate(35.139 60.629)scale(.6905)"/><path d="M111.471 114.495a48 48 0 0 0-1.538-.628c3.898-4.473 5.482-10.604 4.579-17.801q.783-.122 1.556-.254a30 30 0 0 1 .176 1.714q.063.816.085 1.616a27.4 27.4 0 0 1-.388 5.475q-.19 1.065-.466 2.082a21.3 21.3 0 0 1-2.13 5.118 20.19 20.19 0 0 1-1.873 2.678m-3.68-1.46c-.466-.173-.96-.36-1.475-.55 1.778-4.05 1.753-10.179-.557-15.386q.445-.031.885-.07.397-.03.787-.067c2.3 5.514 2.215 11.783.36 16.073m-20.44-1.793-3.137-1.17a16 16 0 0 1-1.05-.449c.394-.416.825-.903 1.28-1.443q.318.291.62.614l2.177 2.332z" style="fill:#4d2919;fill-opacity:1;fill-rule:nonzero;stroke:none;stroke-width:.0352778" transform="translate(35.139 60.629)scale(.6905)"/><path d="M111.16 106.688c-.645 0-.87-1.037-.155-1.242a.7.7 0 0 1 .184-.025c.645 0 .875 1.038.159 1.239a.7.7 0 0 1-.187.028M129.79 99.06c-.645 0-.874-1.036-.158-1.237a.7.7 0 0 1 .183-.029c.646 0 .875 1.038.16 1.242a.7.7 0 0 1-.184.025M125.145 104.698c-.646 0-.875-1.037-.159-1.238a.6.6 0 0 1 .183-.028c.646 0 .875 1.037.16 1.238a.6.6 0 0 1-.184.028M112.452 99.657c-.646 0-.872-1.037-.155-1.238a.7.7 0 0 1 .183-.028c.646 0 .871 1.037.159 1.241a.7.7 0 0 1-.187.025M133.971 92.203c-.49 0-.74-.596-.518-.974.236-.088.465-.18.698-.271.522.148.66 1.033.004 1.22a.7.7 0 0 1-.183.025" style="fill:#c3712e;fill-opacity:1;fill-rule:nonzero;stroke:none;stroke-width:.0352778" transform="translate(35.139 60.629)scale(.6905)"/><path d="M51.852 96.764c.977-1.598 2.367-3.513 3.77-5.337 1.147.508 2.371.984 3.677 1.4q.407.132.825.258z" style="fill:#d4ab8d;fill-opacity:1;fill-rule:nonzero;stroke:none;stroke-width:.0352778" transform="translate(35.139 60.629)scale(.6905)"/><path d="M49.527 98.281a1.07 1.07 0 0 1 .092-.652c.783-1.609 2.338-3.863 4.01-6.093.191-.257.389-.515.583-.769.458.222.928.445 1.41.66-1.403 1.824-2.793 3.74-3.77 5.337l-1.69.752c-.321.14-.55.42-.632.762-.003 0-.003.004-.003.004" style="fill:#4d2919;fill-opacity:1;fill-rule:nonzero;stroke:none;stroke-width:.0352778" transform="translate(35.139 60.629)scale(.6905)"/><path d="M82.296 108.187q-.012-.014-.024-.024L66.21 94.588c1.51.31 3.069.603 4.667.889 3.704.66 7.719.853 11.878 1.192 2.452.201 4.964.473 7.532.642-1.725 2.822-5.232 7.87-7.99 10.876" style="fill:#c5a888;fill-opacity:1;fill-rule:nonzero;stroke:none;stroke-width:.0352778" transform="translate(35.139 60.629)scale(.6905)"/><path d="M81.841 110.142q.105-.044.205-.089c.342-.151.578-.465.631-.843a1.15 1.15 0 0 0-.38-1.023c2.758-3.005 6.265-8.054 7.99-10.876q.905.06 1.817.099c-1.098 1.944-3.13 4.932-5.162 7.627-.324.427-.649.85-.97 1.26a65 65 0 0 1-1.524 1.883h-.003c-.455.54-.886 1.027-1.28 1.443l-.096.099-.113.12-.152.063a3.1 3.1 0 0 1-.963.237" style="fill:#4d2919;fill-opacity:1;fill-rule:nonzero;stroke:none;stroke-width:.0352778" transform="translate(35.139 60.629)scale(.6905)"/><path d="M66.08 113.172c-.668 0-1.232-.078-1.67-.247-3.35-1.302-7.7-7.112-10.88-11.36-.765-1.022-1.495-2-2.148-2.825l11.198-4.981.211.053 17.854 15.091c-4.999 2.166-11.116 4.269-14.566 4.269" style="fill:#a69e7b;fill-opacity:1;fill-rule:nonzero;stroke:none;stroke-width:.0352778" transform="translate(35.139 60.629)scale(.6905)"/><path d="M66.037 114.77c-.85 0-1.605-.102-2.212-.339-3.782-1.47-8.11-7.25-11.585-11.895-.903-1.207-1.754-2.346-2.473-3.232a1.19 1.19 0 0 1-.24-1.023q0-.002.003-.004c.081-.342.31-.62.632-.762l1.69-.751 8.272-3.68a59 59 0 0 0 2.456.674L51.382 98.74c.653.826 1.383 1.803 2.149 2.826 3.178 4.248 7.528 10.058 10.88 11.36.437.169 1.001.247 1.668.247 3.45 0 9.567-2.103 14.566-4.269L62.791 93.812q1.656.411 3.419.776l16.062 13.575q.012.01.024.024c.293.261.438.642.381 1.023-.053.378-.289.692-.631.843q-.1.044-.205.089c-2.938 1.298-10.968 4.628-15.804 4.628M50.49 98.253h.003z" style="fill:#4d2919;fill-opacity:1;fill-rule:nonzero;stroke:none;stroke-width:.0352778" transform="translate(35.139 60.629)scale(.6905)"/><path d="m117.821 125.847-12.675-6.134a13 13 0 0 0-1.358-.593q-.036-.038-.071-.074l-8.608-8.506c5.606 1.366 14.884 5.045 15.702 5.43.664.409 3.31 4.363 5.243 7.25.589.878 1.181 1.767 1.767 2.627" style="fill:#d4ab8d;fill-opacity:1;fill-rule:nonzero;stroke:none;stroke-width:.0352778" transform="translate(35.139 60.629)scale(.6905)"/><path d="M121.236 127.94c-.794-.777-1.838-1.327-2.932-1.856l-.483-.237c-.586-.86-1.178-1.75-1.767-2.628-1.934-2.886-4.58-6.84-5.243-7.25-.818-.384-10.096-4.063-15.702-5.429l-1.53-1.513a1.18 1.18 0 0 0-.974-.335q-.018.002-.036.004a1.13 1.13 0 0 1 .776-.159c1.7.25 4.156.938 6.714 1.764a145 145 0 0 1 5.083 1.753q.603.219 1.175.43c.515.191 1.009.378 1.475.55.822.315 1.548.597 2.14.833.777.307 1.32.53 1.54.628q.024.016.045.022c.871.412 2.385 2.582 5.877 7.803 1.316 1.969 2.67 3.99 3.828 5.602q.01.011.014.018" style="fill:#4d2919;fill-opacity:1;fill-rule:nonzero;stroke:none;stroke-width:.0352778" transform="translate(35.139 60.629)scale(.6905)"/><path d="M112.723 148.89c-1.517 0-11.444-2.765-16.774-5.104l.021-.053 8.153-22.722q.158.075.32.155l13.16 6.371c1.41.681 2.62 1.337 3.15 2.441.66 1.376.074 3.119-.582 4.788l-4.71 11.98c-.564 1.44-1.115 1.88-2.66 2.145z" style="fill:#a69e7b;fill-opacity:1;fill-rule:nonzero;stroke:none;stroke-width:.0352778" transform="translate(35.139 60.629)scale(.6905)"/><path d="M112.826 150.5c-.939 0-3.323-.55-6.135-1.345-.561-.158-1.14-.328-1.725-.504-3.718-1.115-7.797-2.522-10.178-3.616l-.137-.064-.103-.105a3.7 3.7 0 0 1-.624-.861q-.004-.006-.007-.007.09.085.17.166a1.14 1.14 0 0 0 1.057.303c.367-.085.664-.335.805-.68 5.33 2.338 15.257 5.104 16.774 5.104h.078c1.545-.265 2.095-.706 2.66-2.145l4.71-11.98c.656-1.669 1.241-3.412.582-4.788-.53-1.104-1.74-1.76-3.15-2.44l-13.16-6.372q-.163-.08-.32-.155l.024-.064a1.82 1.82 0 0 0-.36-1.827c.501.176.964.399 1.359.593l12.675 6.134.483.237c1.094.529 2.138 1.08 2.932 1.855.391.385.723.822.974 1.34q.043.091.08.188c.812 1.912.114 4.04-.617 5.891l-.973 2.473-.734 1.874-3.002 7.634c-.773 1.961-1.796 2.787-3.906 3.143q-.094.016-.232.017" style="fill:#4d2919;fill-opacity:1;fill-rule:nonzero;stroke:none;stroke-width:.0352778" transform="translate(35.139 60.629)scale(.6905)"/><path d="M94.7 142.495c-5.101-5.115-10.82-11.889-10.87-14.912-.063-3.662 4.016-9.66 6.993-14.04.73-1.073 1.425-2.096 2-2.992l9.758 9.645a.19.19 0 0 1 .046.204z" style="fill:#c5a888;fill-opacity:1;fill-rule:nonzero;stroke:none;stroke-width:.0352778" transform="translate(35.139 60.629)scale(.6905)"/><path d="M94.89 144.495c-.3 0-.585-.116-.804-.331q-.08-.08-.17-.166c-.433-.434-.994-1.002-1.636-1.665-3.687-3.828-10.001-10.93-10.065-14.722-.07-4.173 4-10.163 7.274-14.975q.245-.359.484-.713c.331-.487.649-.96.945-1.407.3-.452.575-.879.819-1.27.187-.3.487-.498.832-.55.01 0 .025-.005.036-.005q.072-.01.144-.01c.307 0 .603.123.83.345l1.53 1.514 8.608 8.505.07.074c.445.494.586 1.2.36 1.828l-.024.063-8.153 22.723-.021.053a1.14 1.14 0 0 1-1.058.709m-2.068-33.945c-.575.896-1.27 1.92-2 2.992-2.977 4.381-7.056 10.379-6.992 14.04.05 3.024 5.768 9.797 10.869 14.912l7.927-22.094a.19.19 0 0 0-.046-.205z" style="fill:#4d2919;fill-opacity:1;fill-rule:nonzero;stroke:none;stroke-width:.0352778" transform="translate(35.139 60.629)scale(.6905)"/><path d="M45.47 101.241c0 .004.01.113.021.314.783 11.79 1.662 25.407 2.201 36.865.918 19.544.268 32.77.046 36.358l-.003.063a1.5 1.5 0 0 0-.025.25l.01.124-.024.124c-.004.024 0 .067 0 .109 0 2.575 1.774 5.126 5.27 7.578 2.318 1.622 5.486 3.661 9.473 5.034 3.358 1.16 7.313 1.99 10.735 2.646 2.691.515 5.552.744 8.583.984.818.067 1.64.13 2.473.204q1.285.118 2.593.25c2.765.276 5.623.562 8.523.562 4.12 0 7.771-.145 11.154-.438 4.096-.367 8.023-1.069 10.99-1.64 4.293-.83 8.113-2.07 10.615-2.932 4.124-1.425 7.288-2.931 9.673-4.6 3.39-2.37 5.108-4.942 5.108-7.648l1.277-71.508.751-14.746c0-.148.011-.297.018-.445l.032-.638q.004-.053.007-.106 0-.09.01-.173l.025-.5q.001-.084.007-.156l.007-.138c0-.035.004-.067.004-.099l.01-.165.092-1.747c-1.026 1.256-2.413 2.456-4.152 3.585-2.677 1.739-6.205 3.298-10.784 4.762-4.396 1.408-7.962 2.321-11.56 2.963-3.44.61-7.543 1.288-11.907 1.64-3.658.297-7.599.445-12.044.445-3.147 0-6.202-.282-9.158-.553-.956-.089-1.905-.177-2.843-.251-.89-.074-1.771-.138-2.646-.205-3.274-.243-6.364-.472-9.32-.998-3.722-.663-8.023-1.503-11.702-2.681-4.473-1.429-7.994-3.528-10.562-5.196-1.673-1.083-3.027-2.212-4.054-3.373.138 2.081.279 4.163.416 6.237.223 3.299.445 6.583.66 9.84zm49.876 93.366c-2.995 0-5.902-.289-8.71-.568q-1.303-.133-2.572-.25-1.24-.106-2.46-.201c-3.082-.247-5.996-.477-8.79-1.016-3.49-.667-7.522-1.514-10.996-2.713-4.21-1.45-7.525-3.58-9.942-5.274-4.035-2.83-6.085-5.906-6.085-9.137 0-.102 0-.219.018-.353-.004-.176.017-.332.035-.466.219-3.608.857-16.728-.05-36.12-.543-11.441-1.418-25.048-2.204-36.848a3 3 0 0 0-.018-.258c-.219-3.288-.438-6.572-.66-9.874-.23-3.397-.458-6.808-.684-10.213l-.575-8.65 2.438 8.319c.589 2.01 2.405 4.018 5.393 5.958 2.47 1.602 5.85 3.616 10.104 4.981 3.574 1.143 7.796 1.965 11.455 2.618 2.864.508 5.909.734 9.13.974q1.316.1 2.66.204c.945.078 1.898.166 2.86.254 2.915.268 5.927.543 8.986.543 4.395 0 8.283-.14 11.888-.437 4.283-.346 8.333-1.013 11.727-1.616 4.505-.804 8.414-1.972 11.313-2.903 4.417-1.411 7.797-2.9 10.33-4.544 2.833-1.838 4.579-3.813 5.19-5.867l.175-.589 1.969-.26-.342 6.663-.004.07q-.004.063-.007.131-.004.064-.007.127l-.004.067v.046l-.032.59q-.004.046-.007.098-.001.08-.007.166l-.028.6c-.01.137-.018.25-.018.363v.053l-.067 1.164-.684 13.564-1.277 71.463c0 3.347-1.99 6.445-5.916 9.19-2.533 1.77-5.853 3.354-10.146 4.84-2.558.878-6.463 2.148-10.876 3.002-3.01.578-7 1.29-11.183 1.665-3.44.3-7.144.444-11.321.444" style="fill:#211d1d;fill-opacity:1;fill-rule:nonzero;stroke:none;stroke-width:.0352778" transform="translate(35.139 60.629)scale(.6905)"/><path d="M141.454 152.775c2.649-19.615 3.69-52.515 4.346-65.324l-.685 14.012-1.28 73.823c0 3.16-1.909 6.1-5.51 8.7-2.565 1.855-5.938 3.456-9.91 4.875-3.224 1.146-6.802 2.275-10.746 3.062-3.474.695-7.19 1.35-11.087 1.707-3.606.325-7.373.455-11.236.455s-7.596-.508-11.198-.84c-3.901-.349-7.672-.55-11.154-1.241-3.937-.78-7.652-1.62-10.866-2.766-3.983-1.418-7.14-3.468-9.705-5.323-3.605-2.607-5.68-5.468-5.68-8.63 0-.105 0-.211.018-.306-.007-.148.01-.297.028-.445.194-3.267.882-17.025-.046-37.437-.518-11.3-1.323-24.412-2.204-38.064.282 3.432 3.294 34.893 5.75 54.02 1.326 10.362 22.027 21.658 46.411 20.85 25.21-.836 43.29-10.284 44.754-21.128" style="fill:#e0f0f0;fill-opacity:1;fill-rule:nonzero;stroke:none;stroke-width:.0352778" transform="translate(35.139 60.629)scale(.6905)"/><path d="M47.876 141.073c.663 17.964.084 30.064-.12 33.518l-.007.063c-.01.099-.025.205-.021.265l.007.123-.025.12c-.003.032 0 .078 0 .124 0 2.67 1.774 5.312 5.278 7.845 2.314 1.676 5.482 3.779 9.465 5.197 3.358 1.196 7.31 2.05 10.728 2.727 2.691.532 5.552.769 8.58 1.02q1.228.098 2.472.207 1.29.124 2.597.258c2.762.286 5.62.579 8.516.579 4.124 0 7.771-.149 11.147-.452 4.103-.378 8.026-1.1 10.986-1.69 4.293-.857 8.11-2.138 10.611-3.027 4.12-1.47 7.285-3.023 9.667-4.748 3.393-2.448 5.111-5.112 5.111-7.916l.54-31.041a252 252 0 0 1-.995 8.66c-1.608 11.903-20.82 21.139-45.681 21.964-11.511.385-22.983-1.866-32.3-6.332-8.894-4.258-14.397-9.857-15.103-15.363-.476-3.701-.966-7.825-1.453-12.1m47.47 53.979c-2.995 0-5.902-.297-8.714-.586q-1.296-.14-2.575-.257-1.233-.11-2.456-.209c-3.083-.254-5.997-.493-8.794-1.047-3.49-.692-7.529-1.567-11.004-2.805-4.215-1.5-7.531-3.7-9.948-5.45-4.032-2.918-6.078-6.086-6.078-9.412 0-.103 0-.226.017-.364a3 3 0 0 1 .032-.476c.222-3.729.86-17.283-.05-37.306-.539-11.811-1.417-25.862-2.2-38.047l1.926-.141c.247 2.984 3.284 34.801 5.743 53.978.614 4.77 5.852 9.952 14.02 13.864 9.044 4.332 20.196 6.513 31.404 6.142 23.53-.78 42.372-9.504 43.829-20.292 1.848-13.709 2.931-34.297 3.62-49.392l.03-1.803.58-11.86q.052-1.17.105-2.187l1.934.098-.106 2.138c-.092 1.965-.194 4.255-.304 6.791-.095 2.12-.197 4.438-.31 6.9l-1.245 71.974c0 3.447-1.987 6.636-5.913 9.465-2.533 1.835-5.853 3.468-10.15 5.003-2.557.91-6.466 2.219-10.883 3.1-3.005.6-6.995 1.338-11.186 1.722-3.44.31-7.144.459-11.324.459M94.753 77.57c-3.21 0-6.332-.304-9.352-.596-.98-.096-1.951-.191-2.914-.272-.91-.078-1.813-.148-2.706-.219-3.344-.264-6.505-.511-9.525-1.08-3.8-.715-8.191-1.619-11.952-2.892-4.561-1.542-8.153-3.803-10.774-5.599-4.346-2.98-6.551-6.216-6.551-9.613 0-3.189.9-5.67 5.51-8.897l.974 1.39c-4.05 2.836-4.79 4.752-4.79 7.507 0 2.805 1.957 5.567 5.817 8.216 2.53 1.732 5.993 3.916 10.357 5.39 3.662 1.239 7.98 2.124 11.723 2.83 2.932.55 6.047.797 9.345 1.055q1.345.105 2.716.222c.97.081 1.948.176 2.936.272 2.977.289 6.057.589 9.186.589 4.494 0 8.474-.155 12.164-.473 4.378-.374 8.523-1.093 11.998-1.75 3.598-.673 7.168-1.644 11.578-3.132 4.526-1.531 7.987-3.144 10.587-4.925 3.74-2.565 5.637-5.355 5.637-8.294 0-1.866-2.198-5.13-2.96-5.92l-.07-.074c-1.602-1.668-4.025-4.187-15.925-8.336-11.303-3.94-22.08-4.085-22.186-4.085-6.59-.282-12.873-.11-12.936-.106-1.902 0-3.426.043-4.964.134-1.284.074-2.519.184-4.078.318l-.998.088c-.755.063-3.694.36-6.054.596-1.485.148-2.773.279-3.235.325l-.159-1.69c.459-.042 1.747-.173 3.225-.321 2.367-.24 5.31-.536 6.078-.603l.995-.085c1.573-.134 2.819-.243 4.127-.321a81 81 0 0 1 5.038-.138c.039 0 6.385-.176 13.004.106.08 0 11.123.145 22.7 4.18 12.284 4.283 14.775 6.873 16.592 8.764l.07.074c.727.755 3.433 4.448 3.433 7.094 0 3.531-2.145 6.791-6.375 9.69-2.73 1.874-6.329 3.553-11.003 5.134-4.487 1.517-8.128 2.505-11.807 3.196-3.518.663-7.716 1.39-12.168 1.774-3.736.321-7.764.477-12.308.477" style="fill:#211d1d;fill-opacity:1;fill-rule:nonzero;stroke:none;stroke-width:.0352778" transform="translate(35.139 60.629)scale(.6905)"/><path d="m87.15 50.71 51.21-19.266 1.707 1.535L87.01 52.907z" style="fill:#e6f6f4;fill-opacity:1;fill-rule:nonzero;stroke:none;stroke-width:.0352778" transform="translate(35.139 60.629)scale(.6905)"/><path d="m87.85 51.224-.04.603 50.874-19.11-.483-.433zm-1.641 2.762.243-3.795 52.067-19.587 2.928 2.636z" style="fill:#211d1d;fill-opacity:1;fill-rule:nonzero;stroke:none;stroke-width:.0352778" transform="translate(35.139 60.629)scale(.6905)"/><path d="M135.59 38.923a5.933 5.933 0 1 1 6.872-4.812 5.934 5.934 0 0 1-6.872 4.812" style="fill:#e6f6f4;fill-opacity:1;fill-rule:nonzero;stroke:none;stroke-width:.0352778" transform="translate(35.139 60.629)scale(.6905)"/><path d="M136.617 27.88a5.21 5.21 0 0 0-5.119 4.298 5.16 5.16 0 0 0 .861 3.887 5.16 5.16 0 0 0 3.358 2.138 5.206 5.206 0 0 0 6.026-4.219 5.17 5.17 0 0 0-.86-3.888 5.17 5.17 0 0 0-4.266-2.215m.007 11.865q-.578 0-1.16-.102a6.6 6.6 0 0 1-4.3-2.742 6.63 6.63 0 0 1-1.105-4.977c.638-3.616 4.1-6.04 7.719-5.405a6.64 6.64 0 0 1 4.3 2.741 6.63 6.63 0 0 1 1.104 4.978 6.68 6.68 0 0 1-6.558 5.507" style="fill:#211d1d;fill-opacity:1;fill-rule:nonzero;stroke:none;stroke-width:.0352778" transform="translate(35.139 60.629)scale(.6905)"/><path d="M94.407 35.381c-2.159-.427-6.152-.829-8.996 2.621-2.847 3.454-7.493 10.023 1.867 17.533 3.933 3.158 8.875 3.436 12.188.282 4.41-4.194 6.205-7.937 3.655-12.615-3.034-5.567-6.572-7.394-8.714-7.821" style="fill:#7c161a;fill-opacity:1;fill-rule:nonzero;stroke:none;stroke-width:.0352778" transform="translate(35.139 60.629)scale(.6905)"/><path d="M91.779 35.9c-2.42 0-4.318.864-5.754 2.61-1.915 2.321-3.824 5.144-3.478 8.491.275 2.689 2.035 5.352 5.228 7.913 3.725 2.992 8.206 3.122 11.14.328 4.675-4.445 5.656-7.715 3.507-11.659-3.2-5.87-6.777-7.144-8.166-7.419a12.7 12.7 0 0 0-2.477-.264m2.099 22.958c-2.37 0-4.858-.903-7.098-2.702-3.538-2.836-5.496-5.863-5.817-8.992-.406-3.951 1.834-7.243 3.835-9.666 2.271-2.76 5.556-3.733 9.764-2.897 1.613.321 5.737 1.76 9.257 8.22 3.147 5.775-.158 10.104-3.806 13.571-1.729 1.644-3.877 2.466-6.135 2.466" style="fill:#211d1d;fill-opacity:1;fill-rule:nonzero;stroke:none;stroke-width:.0352778" transform="translate(35.139 60.629)scale(.6905)"/><path d="M99.928 42.853s-.688 3.125-3.651 1.88c-2.526-1.058-1.725-3.062-1.725-3.062z" style="fill:#7c161a;fill-opacity:1;fill-rule:nonzero;stroke:none;stroke-width:.0352778" transform="translate(35.139 60.629)scale(.6905)"/><path d="M97.575 45.664q-.725.002-1.545-.342c-2.452-1.03-2.427-2.991-2.067-3.887a.64.64 0 0 1 .825-.357c.325.13.487.501.357.83-.089.232-.445 1.474 1.379 2.24.695.292 1.277.32 1.728.084.79-.409 1.052-1.503 1.052-1.517a.64.64 0 0 1 .758-.483c.346.074.561.413.487.758-.014.067-.384 1.683-1.71 2.371a2.7 2.7 0 0 1-1.264.303" style="fill:#211d1d;fill-opacity:1;fill-rule:nonzero;stroke:none;stroke-width:.0352778" transform="translate(35.139 60.629)scale(.6905)"/><path d="M97.053 43.629a.794.794 0 0 1-.787-.917c.081-.536 2.124-13.226 13.127-20.363a.794.794 0 1 1 .864 1.334c-10.389 6.741-12.4 19.145-12.42 19.269a.795.795 0 0 1-.784.677" style="fill:#211d1d;fill-opacity:1;fill-rule:nonzero;stroke:none;stroke-width:.0352778" transform="translate(35.139 60.629)scale(.6905)"/><path d="M65.748 48.836c-1.122 1.894-2.83 5.524-.52 9.356 2.308 3.83 6.961 10.4 17.157 4.07 4.282-2.66 6.187-7.228 4.318-11.401-2.491-5.553-5.423-8.491-10.683-7.641-6.258 1.009-9.158 3.74-10.272 5.616" style="fill:#7c161a;fill-opacity:1;fill-rule:nonzero;stroke:none;stroke-width:.0352778" transform="translate(35.139 60.629)scale(.6905)"/><path d="m65.748 48.836.684.406c-1.891 3.192-2.064 5.986-.522 8.54 1.552 2.576 3.58 5.317 6.85 6.103 2.629.635 5.726-.137 9.205-2.296 4.057-2.523 5.669-6.7 4.01-10.404-2.638-5.884-5.393-7.895-9.828-7.179-6.6 1.066-8.992 4.015-9.715 5.236zm8.861 16.856a9.4 9.4 0 0 1-2.219-.258c-3.866-.931-6.223-4.138-7.845-6.83-1.842-3.062-1.67-6.484.518-10.174.84-1.41 3.57-4.822 10.83-5.997 6.499-1.044 9.476 3.51 11.536 8.103 1.997 4.46.141 9.444-4.625 12.404-2.952 1.83-5.697 2.752-8.195 2.752" style="fill:#211d1d;fill-opacity:1;fill-rule:nonzero;stroke:none;stroke-width:.0352778" transform="translate(35.139 60.629)scale(.6905)"/><path d="M74.63 46.116s2.72 1.686.558 4.068c-1.838 2.028-3.46.606-3.46.606z" style="fill:#7c161a;fill-opacity:1;fill-rule:nonzero;stroke:none;stroke-width:.0352778" transform="translate(35.139 60.629)scale(.6905)"/><path d="M73.096 51.916a2.8 2.8 0 0 1-1.789-.646.637.637 0 1 1 .84-.96c.19.163 1.242.91 2.572-.553.504-.558.726-1.097.656-1.605-.124-.882-1.073-1.49-1.08-1.496a.636.636 0 1 1 .67-1.083c.06.039 1.461.924 1.67 2.402.126.9-.202 1.785-.974 2.635-.89.981-1.793 1.306-2.565 1.306" style="fill:#211d1d;fill-opacity:1;fill-rule:nonzero;stroke:none;stroke-width:.0352778" transform="translate(35.139 60.629)scale(.6905)"/><path d="M73.653 49.616a.8.8 0 0 1-.374-.096c-.48-.254-11.768-6.4-14.837-19.152a.79.79 0 0 1 .585-.96.8.8 0 0 1 .96.586c2.907 12.065 13.93 18.066 14.04 18.126a.793.793 0 0 1-.374 1.496" style="fill:#211d1d;fill-opacity:1;fill-rule:nonzero;stroke:none;stroke-width:.0352778" transform="translate(35.139 60.629)scale(.6905)"/><path d="M69.441 56.865a1.29 1.29 0 0 1 1.34.208c.456.395.883 1.02.431 1.771-.787 1.323-30.752 13.49-31.02 12.436-.222-.879 27.235-13.596 29.25-14.415" style="fill:#e6f6f4;fill-opacity:1;fill-rule:nonzero;stroke:none;stroke-width:.0352778" transform="translate(35.139 60.629)scale(.6905)"/><path d="M69.716 57.539c-1.88.765-16.68 7.63-24.373 11.55 8.28-2.988 23.865-9.437 25.273-10.672.077-.144.145-.391-.314-.793a.57.57 0 0 0-.586-.085m-29.4 14.53q-.075 0-.127-.006a.82.82 0 0 1-.702-.607c-.194-.762-.29-1.143 14.174-8.064 7.098-3.398 14.503-6.799 15.505-7.204a2.01 2.01 0 0 1 2.099.338c.91.798 1.122 1.782.575 2.692-.617 1.034-9.899 4.914-15.378 7.137-4.296 1.743-14.294 5.715-16.146 5.715" style="fill:#211d1d;fill-opacity:1;fill-rule:nonzero;stroke:none;stroke-width:.0352778" transform="translate(35.139 60.629)scale(.6905)"/></g></svg>