<svg xmlns="http://www.w3.org/2000/svg" xml:space="preserve" width="200mm" height="200mm" viewBox="0 0 200 200"><defs><clipPath id="b" clipPathUnits="userSpaceOnUse"><path d="M32039.9 29855.9c-97.1 0-190.9 13.5-281.5 22.2-98.1 9.4-192.9 14.8-280.3 33.2-99.1 20.8-192.3 43.1-273.3 73.6-99.9 37.7-179.4 92.2-243.8 141.6-90.7 69.3-142.8 145.5-142.8 229.5s53.1 158.9 143.8 228.3c64.5 49.4 144.1 102.1 244 139.8 81 30.6 172.4 59 271.5 79.8 87.4 18.3 182.1 27.7 280.2 37.1 36.9 3.5 74.5 6.5 112.7 8.7-19-139.6-79-274.4-115.4-356.3-19.9-44.8-28.8-65.1-29.7-78.4-1.1-14.4 5.6-29.6 19.9-45.2 39.6-43.3 143.5-94.7 305.7-97.1 2.4 0 4.7-.1 7.1-.1 146.8 0 236.1 68.8 276.5 110.3 18.9 19.4 20.4 51.7 3.4 73.8-52.9 68.6-86.7 207.1-105.7 311.2-4.9 26.2-8.8 52.8-11.9 79.7 34.3-2.5 68.2-5.5 101.5-8.7 98.1-9.4 191.1-26.6 278.1-46.7 189.1-43.8 72.1-14.5 270.6-76.8 101.9-32 183.7-80.6 248.2-130 90.6-69.3 140.2-145.4 140.2-229.4s-47.9-162.2-138.6-231.5c-64.5-49.4-149.2-91.8-249.2-129.5-80.9-30.6-170.8-60.8-269.9-81.6-87.4-18.3-180.7-35.9-278.9-45.3-90.5-8.7-185.4-12.2-282.4-12.2"/></clipPath></defs><g style="display:inline"><g clip-path="url(#b)" transform="matrix(.02562 0 0 -.02562 -720.838 956.303)"><path d="M30818.2 29855.9h2440.7v993.797h-2440.7z" style="fill:#f3fbfd;fill-opacity:1;fill-rule:nonzero;stroke:none"/></g><path d="M32039.9 30833.1c-92.4 0-186.6-4.5-280.1-13.5-88.7-8.5-189.2-18.1-277.9-36.8-88.9-18.6-179.1-45.1-268.3-78.8-105.8-39.9-186.8-97.2-238.6-136.8-91-69.7-135.3-138.7-135.3-211.2 0-72.7 45.2-144.2 134.3-212.5 58.3-44.5 138.1-100.6 238.4-138.5 84.3-31.8 183.8-54.6 270.1-72.7 67.5-14.2 139.3-20.5 215.4-27.1 20.7-1.8 41.5-3.7 62.6-5.7 22.3-2.1 44.9-4.6 67.6-7 68.7-7.5 139.8-15.2 211.8-15.2 103.6 0 195.3 4 280.4 12.2 100.9 9.6 196.4 28.1 276.5 45 82.9 17.4 165.1 42.2 266.7 80.6 104.2 39.3 183.9 80.6 243.8 126.4 86.3 66.1 130.1 138.3 130.1 214.5 0 74-44.3 145.5-131.8 212.4-74.5 57-155.8 99.6-241.5 126.5-67.1 21.1-98.7 31.8-117.5 38.2-29 9.9-29 9.9-91.7 24.3-15.6 3.6-35.1 8.1-59.9 13.8-98.8 22.9-188.8 38.1-275.2 46.3-75.7 7.3-175.8 15.6-279.9 15.6m0-998.7c-74.4 0-146.6 7.8-216.4 15.3-22.6 2.5-45 4.9-67.1 7-21 2-41.7 3.8-62.3 5.6-77.4 6.8-150.4 13.2-220.4 27.9-87.9 18.5-189.5 41.8-276.5 74.6-105.6 39.9-188.7 98.2-249.3 144.6-100.3 76.8-151.2 159.8-151.2 246.6 0 86.7 49.8 167 152.2 245.4 53.9 41.2 138.4 100.9 249.5 142.8 91.2 34.4 183.7 61.6 274.6 80.7 91.1 19.1 192.9 28.9 282.7 37.5 94.8 9.1 190.5 13.7 284.2 13.7 105.9 0 207.4-8.4 284-15.8 88.3-8.4 180.2-23.9 280.8-47.2 24.7-5.7 44.2-10.2 59.9-13.8 63.5-14.6 64.7-14.9 95.9-25.5 18.6-6.3 49.8-17 116.5-37.9 90.5-28.4 176.3-73.3 254.8-133.4 98.6-75.5 148.6-158.4 148.6-246.5 0-90.3-49.5-174-147-248.6-63.2-48.4-146.5-91.7-254.7-132.5-103.7-39.2-187.9-64.6-273.1-82.5-81.2-17.1-178.2-35.9-281.2-45.7-86.5-8.3-179.5-12.3-284.5-12.3" style="fill:#211d1d;fill-opacity:1;fill-rule:nonzero;stroke:none" transform="matrix(.02562 0 0 -.02562 -720.838 956.303)"/><path d="M32417.2 33031.7c-125.7-36.4-253.9-57.8-378.6-57.2-128.2.6-252.9 16.7-371.9 44.5l12-24.2c160.8-154.8 208.9-375.5 209.9-556.9l8.1-1517.4c.1-18.1-.7-36.1-2.6-54-22.9-212.4-144.9-419-147.4-453.1-2.6-35.7 105-116.2 304.5-119.2 144.4-2.2 231.1 65.9 267.9 103.7 11.7 12 12.1 32.2 1.8 45.6-55.5 72.1-90.4 214-109.9 320.5-13.5 73.8-20.2 148.9-20.4 224.2l-4.6 1436.1c-1 188.6-8.3 314.8 218.4 583.6z" style="fill:#fff;fill-opacity:1;fill-rule:nonzero;stroke:none" transform="matrix(.02562 0 0 -.02562 -720.838 956.303)"/><path d="M31717.5 32986c165.2-177.8 191.9-417.4 192.6-548l8.1-1517.4c.1-19.6-.8-38.6-2.8-56.4-16.4-153-82-300.3-121.1-388.3-12.5-27.9-25.3-56.8-26.2-64.2 2.4-20.9 95.5-93.2 283.5-96 2.1-.1 4.2-.1 6.3-.1 131.2 0 210.2 60.7 245.9 97.3 4 4.2 4 12.3.1 17.5-58.2 75.4-94.1 220.9-114 329.8-13.6 73.9-20.6 150.6-20.8 227.9l-4.7 1451.5c-1.1 176.7-2 305.9 201.9 556-114.5-28.7-224.6-43-327.8-42.6-106.2.5-213.9 11.6-321 33m340.5-2713.4c-2.4 0-4.7.1-7.1.1-162.2 2.4-266.1 53.8-305.7 97.1-14.3 15.6-21 30.8-19.9 45.2.9 13.3 9.8 33.6 29.7 78.4 38.1 85.7 101.9 229.1 117.7 375.4 1.7 16.2 2.6 33.6 2.5 51.6l-8.1 1517.4c-.7 129.8-28.1 372.8-203.3 541.6l-2.7 2.5-33.9 68.5 44.4-10.4c122.2-28.7 245.7-43.4 367.1-44 116.4-.8 241.5 18.4 372.5 56.3l49.2 14.2-39.6-72.5c-215.3-255.3-214.6-374.2-213.4-554.1l.1-15.5 4.6-1436.1c.2-74.8 7-149 20.1-220.4 19-104.1 52.8-242.6 105.7-311.2 17-22.1 15.5-54.4-3.4-73.8-40.4-41.5-129.7-110.3-276.5-110.3" style="fill:#211d1d;fill-opacity:1;fill-rule:nonzero;stroke:none" transform="matrix(.02562 0 0 -.02562 -720.838 956.303)"/><path d="M32045.8 32996h-7.1c-121.4.6-244.9 15.3-367.1 44l-44.4 10.4 12.3-24.8c-418.3 105.1-762.1 355-929.1 588-133.6 186.2-227.3 547-279.8 798.4-14.3 68.2-50 239.4-50 273.9 0 114.1 72.2 215.9 195.3 310.1 87.6 67.1 195.8 138.7 331.5 190 110 41.5 234.2 80 368.8 108.3 118.8 24.9 247.5 37.7 380.8 50.5 123 11.8 251.5 18.5 383.4 18.5 131.8 0 260-9.6 383-21.3 133.3-12.8 259-38.7 377.8-63.6 134.6-28.3 257.6-62.8 367.7-104.3 135.7-51.2 249.5-109.5 337.1-176.5 123.2-94.3 190.5-197.6 190.5-311.7 0-47.8-35.6-226.3-42.9-252.7-41.9-209.7-118.3-503.7-249.3-740.8-109.5-198.2-515.8-515.8-958.3-652.2l14.4 26.3-49.2-14.2c-128.4-37.1-251-56.3-365.4-56.3m1597.8 1407.2c-.4-1-.8-1.9-1.2-2.9.4 1 .8 1.9 1.2 2.9m-3221.6 135.1v-.2z" style="fill:#f3fbfd;fill-opacity:1;fill-rule:nonzero;stroke:none" transform="matrix(.02562 0 0 -.02562 -720.838 956.303)"/><path d="M32043.5 32974.5h-4.9c-138 .6-272 19.2-399.1 51.1l-12.3 24.8 44.4-10.4c122.2-28.7 245.7-43.4 367.1-44h7.1c114.4 0 237 19.2 365.4 56.3l49.2 14.2-14.4-26.3c-133.3-41.1-269.8-65.7-402.5-65.7" style="fill:#8c9799;fill-opacity:1;fill-rule:nonzero;stroke:none" transform="matrix(.02562 0 0 -.02562 -720.838 956.303)"/><path d="M30452.5 34412c54.7-260.3 146.5-606.3 275.3-785.9 223.1-311.2 745-627.5 1310.9-630.1h4.6c250.7 0 544.9 91.5 829.1 258 238.1 139.5 439.5 315.7 513.1 448.8 123.6 223.7 198.5 500.8 240.8 704l-3.8 1.5 1 2.6 3.4-1.3c1.9 9.5 3.8 18.7 5.6 27.8l.4 1.5c6.9 25.1 42.1 201.9 42.1 247 0 103-61.2 202.1-182 294.6-82.7 63.3-194.3 121.7-331.7 173.5-106.3 40.1-228.9 74.9-364.6 103.4-106.2 22.3-238.3 50-375.4 63.2-102.9 9.8-239.3 21.2-380.9 21.2-125.7 0-254-6.2-381.3-18.4-120.7-11.6-257.4-24.7-378.4-50.1-121.1-25.4-244.1-61.6-365.7-107.5-144.7-54.6-255.4-132.8-326-186.8-125.8-96.3-186.9-192.2-186.9-293.1 0-15.2 8.2-64.2 24.4-146.2l.3-1.5 16.7.1v-.2h-16.7l6.9-27.5 10.4.4.3-5.9-9.2-.5 14.2-56.9-19.9-3.4 19.9 3.4.2-.4 1.2.2-1.2-.3 7.9-32.1-5.4-.8zh-15.7zm1591.1-1459h-5.1c-275.2 1.3-556.9 73.6-814.4 209.1-221 116.3-414.6 276.3-531.2 439-133.9 186.7-228 541.6-283.4 806.5-23.5 112.3-50.4 245.5-50.4 278.3 0 115.2 66.7 222.3 203.8 327.2 72.8 55.7 186.9 136.3 337 193 123.6 46.6 248.7 83.4 371.9 109.2 123.4 26 261.4 39.2 383.2 50.9 128.7 12.3 258.4 18.5 385.4 18.5 143.4 0 281.1-11.4 385-21.4 139.5-13.3 272.9-41.3 380.2-63.9 137.7-28.9 262.5-64.3 370.8-105.2 141.4-53.3 256.6-113.7 342.7-179.6 132-101 198.9-211.6 198.9-328.7 0-50.1-35.4-227.8-43.5-257.7-41.6-208.2-119-506.5-251.4-746.2-138.8-251.1-783-729-1379.5-729" style="fill:#211d1d;fill-opacity:1;fill-rule:nonzero;stroke:none" transform="matrix(.02562 0 0 -.02562 -720.838 956.303)"/><path d="M33664.7 34513.9c0-114.1-64.5-220.3-186.4-314.6-86.8-67-200.9-124.7-335.3-175.9-109-41.5-229.9-82.5-363.2-110.8-117.6-24.9-243.3-48.8-375.3-61.6-121.8-11.8-249.4-16.6-380-16.6s-257 18.4-378.8 30.2c-132 12.8-259.6 20.1-377.2 45.1-133.3 28.3-258.7 58.5-367.7 100.1-134.5 51.2-241.3 125.2-328.1 192.3-122 94.2-150.7 221.9-150.7 336s30.1 191.7 152.1 286c86.7 67 193.8 138.7 328.3 189.9 108.9 41.5 231.9 80.1 365.3 108.4 117.6 24.9 245.1 37.6 377.1 50.4 121.8 11.8 249 18.5 379.7 18.5 130.5 0 257.5-9.5 379.3-21.3 132.1-12.8 256.5-38.6 374.2-63.5 133.3-28.3 255.2-62.8 364.1-104.3 134.5-51.3 247.2-109.5 334-176.6 121.9-94.2 188.6-197.5 188.6-311.7" style="fill:#eec7a2;fill-opacity:1;fill-rule:nonzero;stroke:none" transform="matrix(.02562 0 0 -.02562 -720.838 956.303)"/><path d="M32024.5 35169.8c-124.5 0-251.5-6.2-377.7-18.4-119.4-11.6-254.8-24.6-374.7-50.1-119.9-25.4-241.7-61.5-362.1-107.4-143.2-54.6-252.8-132.8-322.8-186.8-120.8-93.4-143.7-166.6-143.7-269 0-140.6 46.5-245 142.3-319 78.8-60.9 186.7-137.5 322.7-189.3 113.8-43.3 248.1-74.4 364.5-99.1 91.1-19.3 187.9-27.9 290.4-37 27.9-2.4 56.1-4.9 84.4-7.7 30.1-2.9 60.4-6.2 91-9.5 92.6-10.2 188.4-20.6 285.7-20.6 139.6 0 263.3 5.4 378 16.5 136.1 13.1 264.8 38.3 372.8 61.2 111.9 23.8 222.9 57.6 360 109.9 140.9 53.6 248.8 110.2 329.8 172.8 118.2 91.4 178.2 191.5 178.2 297.6 0 103.1-60.7 202.2-180.4 294.7-81.9 63.3-192.4 121.6-328.4 173.5-105.2 40.1-226.7 74.8-361 103.3-105.1 22.3-236 50.1-371.8 63.2-101.9 9.9-237 21.2-377.2 21.2m0-1356.9c-99.7 0-196.6 10.6-290.4 20.8-30.4 3.4-60.6 6.6-90.4 9.5-28.3 2.8-56.3 5.2-84.1 7.7-103.8 9.2-201.9 17.9-295.6 37.8-117.9 25-254.2 56.5-370.8 101-141.3 53.8-252.5 132.7-333.7 195.4-107 82.7-159 198.2-159 353 0 113.4 26.2 199.3 160.4 303 72.1 55.7 185.2 136.4 333.8 193 122.5 46.6 246.4 83.4 368.5 109.3 122.3 25.9 258.9 39.1 379.5 50.8 127.5 12.3 256 18.6 381.8 18.6 142.1 0 278.4-11.4 381.4-21.4 138.2-13.4 270.3-41.4 376.5-63.9 136.5-29 260.1-64.4 367.4-105.2 140-53.4 254.2-113.8 339.4-179.7 130.8-101 197-211.6 197-328.7 0-120.1-65.5-231.7-194.8-331.6-84.4-65.3-195.9-123.8-340.8-179-139.2-53.1-252.2-87.5-366.4-111.7-109.1-23.2-239.4-48.6-377.6-62-116.1-11.2-241.1-16.7-382.1-16.7" style="fill:#211d1d;fill-opacity:1;fill-rule:nonzero;stroke:none" transform="matrix(.02562 0 0 -.02562 -720.838 956.303)"/><path d="M33478.3 34199.3c-86.8-67-200.9-124.7-335.3-175.9-109-41.5-229.9-82.5-363.2-110.8-117.6-24.9-243.3-48.8-375.3-61.6-121.8-11.8-249.4-16.6-380-16.6s-257 18.4-378.8 30.2c-132 12.8-259.6 20.1-377.2 45.1-133.3 28.3-258.7 58.5-367.7 100.1-134.5 51.2-241.3 125.2-328.1 192.3-78.1 60.3-117.9 134.4-136.5 209.9h-5.6c52.5-251.4 146.2-612.2 279.8-798.4 217.8-303.8 736-636.4 1328.2-639.1 574.6-2.6 1222.8 459.3 1365.7 717.9 131 237.1 228.6 672.9 270.4 882.6-12.7-46-14.8-170.6-68.8-243.6-48.7-65.9-85.9-99.8-127.6-132.1" style="fill:#ce5e1d;fill-opacity:1;fill-rule:nonzero;stroke:none" transform="matrix(.02562 0 0 -.02562 -720.838 956.303)"/><path d="M30487.7 34256.1c55.7-229.9 135.8-484.5 240.1-630 223.1-311.2 745-627.5 1310.9-630.1h4.6c250.7 0 544.9 91.5 829.1 258 238.1 139.5 439.5 315.7 513.1 448.8 80.3 145.4 148 366.1 198.5 566.4-31.9-37-60.4-62-92.6-86.9-84.4-65.3-195.9-123.8-340.8-179-139.3-53.1-252.3-87.5-366.4-111.7-109.2-23.2-239.4-48.6-377.6-62-116.1-11.2-241.1-16.7-382.1-16.7-99.6 0-196.6 10.6-290.3 20.8-30.4 3.3-60.6 6.6-90.5 9.5-28.3 2.8-56.3 5.3-84.1 7.7-103.8 9.2-201.9 17.9-295.6 37.8-117.9 25-254.3 56.6-370.8 101-141.3 53.8-252.5 132.7-333.7 195.4-27.4 21.2-51.4 44.9-71.8 71m1555.9-1303.1h-5.1c-275.2 1.3-556.9 73.6-814.4 209.1-221 116.3-414.6 276.3-531.2 439-133.9 186.7-228 541.6-283.4 806.5l-5.4 25.9h49l4-16.4c20.1-81.9 62.3-146.7 128.7-198 78.8-60.9 186.7-137.4 322.7-189.3 113.8-43.3 248.1-74.4 364.5-99.1 91.1-19.3 187.9-27.9 290.4-37 27.9-2.4 56-4.9 84.4-7.7 30.1-2.9 60.4-6.2 91.1-9.5 92.6-10.2 188.3-20.6 285.6-20.6 139.7 0 263.3 5.4 378 16.5 136 13.1 264.8 38.3 372.8 61.2 111.9 23.8 222.9 57.6 360 109.9 140.9 53.6 248.8 110.2 329.8 172.8 41.8 32.3 77.1 65 123.5 127.8 9.7 13.1 17.6 28.2 24.1 44.4 13.7 59.2 25.5 114.5 35.3 162.9 1.9 11.3 3.7 21.2 6 29.3l41.8-9.9c-1.8-8.8-3.6-17.9-5.5-27.2-1.2-7.3-2.4-15.4-3.6-24.1-6.2-42.5-14-96-32.9-144-52.7-228.7-132.2-515.2-230.7-693.5-138.8-251.1-783-729-1379.5-729" style="fill:#211d1d;fill-opacity:1;fill-rule:nonzero;stroke:none" transform="matrix(.02562 0 0 -.02562 -720.838 956.303)"/><path d="M32040.4 33984.8c-100.6 0-198.5 10.6-293.1 20.9-30.7 3.3-61.2 6.6-91.4 9.5-28.5 2.7-56.8 5.2-84.8 7.7-104.8 9.2-203.8 17.8-298.4 37.7-119.1 25-256.7 56.6-374.4 101-142.6 53.8-254.9 132.7-336.8 195.4-134.3 102.7-202.4 213.4-202.4 328.9 0 115.2 66.7 222.3 203.8 327.2 72.8 55.7 186.9 136.4 337 193 123.6 46.6 248.7 83.4 371.9 109.2 123.4 26 261.4 39.2 383.2 50.9 128.7 12.3 258.4 18.5 385.4 18.5 41 0 66.1.6 84.5 1 42 1 53.2 1.3 139-7 11.8-1.1 20.5-11.6 19.3-23.4-1.1-11.8-11.5-20.5-23.4-19.3-83.3 7.9-93 7.7-133.9 6.8-18.6-.5-44.1-1-85.5-1-125.7 0-254-6.2-381.3-18.4-120.7-11.6-257.4-24.7-378.4-50.1-121.1-25.5-244.1-61.6-365.7-107.5-144.7-54.6-255.4-132.8-326-186.9-125.8-96.2-186.9-192.1-186.9-293 0-101.4 62.4-200.6 185.5-294.8 79.6-60.9 188.5-137.5 325.8-189.3 115-43.4 250.6-74.5 368.1-99.1 92.1-19.4 189.8-27.9 293.4-37 28.1-2.5 56.5-5 85.1-7.7 30.4-2.9 61-6.2 91.9-9.6 93.5-10.1 190.2-20.6 288.5-20.6 141 0 265.9 5.4 381.7 16.5 137.4 13.2 267.4 38.4 376.5 61.3 112.9 23.7 225 57.6 363.5 109.8 142.3 53.7 251.2 110.3 333.1 172.9 119.3 91.4 179.8 191.5 179.8 297.6 0 11.9 9.7 21.5 21.5 21.5 11.9 0 21.5-9.6 21.5-21.5 0-120.2-66.2-231.8-196.7-331.7-85.2-65.3-197.8-123.8-344-179-140.6-53-254.7-87.5-369.9-111.7-110.2-23.1-241.7-48.6-381.3-62-117.1-11.2-243.3-16.7-385.7-16.7" style="fill:#211d1d;fill-opacity:1;fill-rule:nonzero;stroke:none" transform="matrix(.02562 0 0 -.02562 -720.838 956.303)"/></g></svg>