<svg xmlns="http://www.w3.org/2000/svg" xml:space="preserve" width="200mm" height="200mm" viewBox="0 0 200 200"><g style="display:inline"><path d="M102.471 192.475c-9.905-.002-19.902-1.69-29.16-5.046-4.361-1.582-9.05-4.039-10.004-7.954-.816-3.353 1.723-6.359 5.128-8.013 2.214-1.076 11.09-3.351 13.67-3.525 4.314-.291 8.079-.428 11.502-.428 11.742 0 19.478 1.623 31.639 4.29 2.484.546 5 1.153 7.19 2.329 2.19 1.173 4.04 3.011 4.461 5.153.451 2.293-.816 4.584-2.736 6.148-1.92 1.566-4.423 2.515-6.934 3.312-7.842 2.494-16.265 3.734-24.756 3.734" style="fill:#fcfefe;fill-opacity:1;fill-rule:nonzero;stroke:none;stroke-width:.0195288"/><path d="M68.73 172.065c-2.696 1.31-5.563 3.996-4.77 7.25.71 2.917 3.934 5.434 9.58 7.483 9.205 3.335 19.107 5.015 28.921 5.015 8.415 0 16.765-1.234 24.563-3.713 2.38-.755 4.841-1.665 6.713-3.192 1.933-1.575 2.868-3.63 2.5-5.498-.34-1.736-1.88-3.49-4.12-4.69-2.108-1.131-4.521-1.717-7.015-2.264-16.304-3.576-24.298-5.103-42.951-3.847-2.532.17-11.312 2.431-13.422 3.456m33.732 21.091c-9.972 0-20.03-1.704-29.38-5.095-6.182-2.241-9.593-4.997-10.428-8.428-.809-3.318 1.345-6.763 5.488-8.776 2.25-1.094 11.226-3.408 13.918-3.59 18.838-1.27 26.896.272 43.33 3.877 2.59.568 5.102 1.177 7.363 2.392 2.629 1.41 4.38 3.457 4.804 5.616.464 2.361-.646 4.904-2.97 6.798-2.046 1.668-4.649 2.635-7.156 3.432-7.927 2.52-16.417 3.774-24.969 3.774" style="fill:#211d1d;fill-opacity:1;fill-rule:nonzero;stroke:none;stroke-width:.0195288"/><path d="M87.977 177.162c3.157 4.101 7.568 4.41 13.286 4.496 4.013.06 8.231-.5 10.354-2.385-3.311-3.1-5.597-5.868-6.674-10.969-1.365-6.46-1.097-16.244-1.052-22.99.14-20.633 3.988-8.588 1.534-25.308l-3.988-4.5-4.295 4.96c-2.684 14.725 1.008 4.662 1.38 25.003.087 4.705-1.031 13.547-1.392 18.24-.5 6.497-8.968 13.328-9.153 13.453" style="fill:#e6f6f4;fill-opacity:1;fill-rule:nonzero;stroke:none;stroke-width:.0195288"/><path d="M88.919 177.254c2.89 3.332 6.81 3.648 12.354 3.732 4.203.063 7.461-.56 9.309-1.767-3.21-3.097-5.281-5.964-6.297-10.776-1.233-5.837-1.152-14.166-1.086-20.857q.012-1.186.02-2.275c.068-10.153 1.03-12.51 1.731-14.229.669-1.64 1.04-2.55-.16-10.78l-3.347-3.776-3.672 4.241c-1.326 7.316-1.025 8.194-.372 10.102.643 1.877 1.615 4.715 1.796 14.586.06 3.32-.457 8.537-.914 13.14-.191 1.929-.372 3.75-.48 5.165-.454 5.888-6.91 11.819-8.882 13.494m12.934 5.082q-.306 0-.6-.006c-6.012-.092-10.521-.487-13.809-4.758l-.437-.568.583-.392c.236-.184 8.394-6.773 8.87-12.954.11-1.431.291-3.26.483-5.196.453-4.566.967-9.741.907-12.981-.176-9.661-1.107-12.378-1.723-14.176-.714-2.086-1.073-3.133.354-10.96l.033-.181 4.917-5.677 4.63 5.224.03.197c1.288 8.778.867 9.81.104 11.682-.66 1.619-1.565 3.835-1.631 13.73q-.009 1.093-.02 2.278c-.065 6.628-.146 14.873 1.056 20.567 1.008 4.771 3.054 7.412 6.476 10.618l.538.504-.55.49c-2.351 2.086-6.734 2.558-10.211 2.558" style="fill:#211d1d;fill-opacity:1;fill-rule:nonzero;stroke:none;stroke-width:.0195288"/><path d="M109.413 114.944a8.13 8.13 0 1 1-16.26 0 8.13 8.13 0 0 1 16.26 0" style="fill:#e6f6f4;fill-opacity:1;fill-rule:nonzero;stroke:none;stroke-width:.0195288"/><path d="M101.284 107.486c-4.112 0-7.458 3.345-7.458 7.458s3.346 7.458 7.458 7.458 7.457-3.346 7.457-7.458c0-4.113-3.345-7.458-7.457-7.458m0 16.26c-4.854 0-8.802-3.95-8.802-8.802 0-4.853 3.948-8.802 8.802-8.802s8.802 3.949 8.802 8.802-3.949 8.801-8.802 8.801" style="fill:#211d1d;fill-opacity:1;fill-rule:nonzero;stroke:none;stroke-width:.0195288"/><path d="M104.965 108.501s-1.39 1.535-3.726 1.38c-2.293-.15-3.79-1.38-3.79-1.38V95.616h7.516z" style="fill:#e6f6f4;fill-opacity:1;fill-rule:nonzero;stroke:none;stroke-width:.0195288"/><path d="M98.121 108.156c.48.314 1.631.954 3.162 1.056a4.2 4.2 0 0 0 3.01-.998V96.288H98.12zm3.447 2.41q-.183 0-.374-.012c-2.479-.164-4.104-1.477-4.172-1.533l-.245-.201V94.944h8.86v13.817l-.174.191c-.062.07-1.49 1.613-3.895 1.613" style="fill:#211d1d;fill-opacity:1;fill-rule:nonzero;stroke:none;stroke-width:.0195288"/><path d="M105.637 103.305v-8.36h-8.86v8.121c-15.6-1.103-19.882-4.995-19.882-4.995-2.898-24.556-9.365-44.055-15.43-65.654-.34-.748-.523-1.515-.523-2.298 0-7.794 17.444-14.112 38.961-14.112 21.518 0 38.961 6.318 38.961 14.112 0 .205-.018.408-.042.61l.042.003-.12.445a6 6 0 0 1-.182.674c-6.704 24.756-12.402 46.025-14.116 66.22 0 0-3.973 4.849-18.809 5.234" style="fill:#fcfefe;fill-opacity:1;fill-rule:nonzero;stroke:none;stroke-width:.0195288"/><path d="M103.74 103.328q-1.257 0-2.61-.041a131 131 0 0 1-3.009-.135v-6.864h6.172v7.038q-.274.002-.553.002" style="fill:#edf9f7;fill-opacity:1;fill-rule:nonzero;stroke:none;stroke-width:.0195288"/><path d="M104.293 103.326v-7.038H98.12v6.864q-.686-.04-1.344-.086v-8.122h8.86v8.36q-.658.018-1.344.022" style="fill:#6f7273;fill-opacity:1;fill-rule:nonzero;stroke:none;stroke-width:.0195288"/><path d="M77.529 97.713c1.058.758 6.939 4.367 23.623 4.9 16.404.524 21.78-3.982 22.644-4.831 1.772-20.517 7.77-42.665 14.117-66.107l.012-.04q.099-.29.16-.593l.042-.156.027-.234c.019-.16.038-.35.038-.533 0-3.416-3.998-6.822-10.968-9.347-7.287-2.64-16.99-4.093-27.32-4.093-10.332 0-20.034 1.453-27.322 4.093-6.97 2.525-10.968 5.931-10.968 9.347 0 .664.156 1.343.463 2.02l.035.096c1.011 3.602 2.048 7.193 3.05 10.665 5.109 17.703 9.936 34.425 12.367 54.813m26.219 6.289a82 82 0 0 1-2.64-.043c-19.2-.615-24.452-5.197-24.666-5.39l-.186-.17-.03-.25C73.82 77.747 68.987 61 63.87 43.273c-.998-3.458-2.03-7.036-3.04-10.626-.372-.84-.56-1.689-.56-2.528 0-4.074 4.21-7.843 11.854-10.612 7.43-2.691 17.296-4.172 27.78-4.172 10.482 0 20.348 1.48 27.778 4.172 7.63 2.765 11.84 6.524 11.855 10.59l.194.01-.333 1.226q-.076.362-.193.713c-6.353 23.464-12.353 45.627-14.09 66.081l-.017.21-.132.16c-.193.236-4.714 5.503-21.218 5.505" style="fill:#211d1d;fill-opacity:1;fill-rule:nonzero;stroke:none;stroke-width:.0195288"/><path d="M67.773 54.5c3.824 13.698 7.232 27.56 9.122 43.57 0 0 4.96 6.29 24.133 6.904 18.553.594 23.418-6.903 23.418-6.903 1.169-13.774 4.197-28.055 8.128-43.596-5.615 4.28-16.85 6.935-31.75 6.935-13.88 0-26.46-2.645-33.051-6.91" style="fill:#e2e390;fill-opacity:1;fill-rule:nonzero;stroke:none;stroke-width:.0195288"/><path d="M136.361 40.008c-.525.855-1.244 1.666-2.132 2.431q.64.682 1.11 1.395.506-1.9 1.022-3.826M63.555 39.75q.506 1.76 1.012 3.511c.33-.427.71-.845 1.13-1.255-.884-.715-1.605-1.467-2.142-2.256" style="fill:#fdfae9;fill-opacity:1;fill-rule:nonzero;stroke:none;stroke-width:.0195288"/><path d="M134.23 42.44c-5.448 4.698-17.484 7.62-33.253 7.62-15.168 0-29.152-3.102-35.28-8.054-.42.41-.8.828-1.13 1.255 1.085 3.76 2.16 7.494 3.206 11.24 6.59 4.264 19.171 6.909 33.05 6.909 14.9 0 26.136-2.654 31.751-6.935.88-3.482 1.804-7.025 2.766-10.641a10.6 10.6 0 0 0-1.11-1.395" style="fill:#fefaec;fill-opacity:1;fill-rule:nonzero;stroke:none;stroke-width:.0195288"/><path d="M77.537 97.78c.84.869 6.49 5.978 23.512 6.523 9.356.298 15.074-1.52 18.223-3.098 2.874-1.441 4.182-2.945 4.52-3.378 1.512-17.566 6.077-36.091 11.15-55.118-2.343 2.124-5.945 3.917-10.615 5.259-6.286 1.808-14.36 2.763-23.35 2.763-8.575 0-17.027-1.006-23.799-2.833-5.434-1.469-9.576-3.379-12.19-5.605l.171.597c5.116 17.725 9.949 34.47 12.378 54.89m25.567 7.9q-1.02 0-2.097-.034c-19.265-.617-24.43-6.892-24.64-7.16l-.118-.148-.022-.189c-2.408-20.406-7.242-37.155-12.36-54.888l-.958-3.323-1.16-4.031 2.361 3.464c1.941 2.85 6.707 5.416 13.419 7.228 6.66 1.799 14.988 2.789 23.448 2.789 17.788 0 31.127-3.73 34.811-9.732l2.422-3.946-1.2 4.472c-5.377 20.04-10.333 39.553-11.894 57.946l-.015.167-.091.141c-.2.307-4.904 7.243-21.906 7.243" style="fill:#211d1d;fill-opacity:1;fill-rule:nonzero;stroke:none;stroke-width:.0195288"/><path d="M136.717 36.254c0 8.132-13.959 13.805-35.74 13.805-20.332 0-37.888-5.673-37.888-13.805s16.482-14.726 36.814-14.726 36.814 6.593 36.814 14.726" style="fill:#fff;fill-opacity:1;fill-rule:nonzero;stroke:none;stroke-width:.0195288"/><path d="M99.903 22.202c-9.75 0-18.906 1.513-25.782 4.265-6.583 2.632-10.36 6.2-10.36 9.787 0 3.547 3.86 6.855 10.87 9.318 7.003 2.46 16.36 3.816 26.346 3.816 10.52 0 19.439-1.317 25.793-3.807 4.23-1.66 9.275-4.622 9.275-9.327 0-3.587-3.776-7.155-10.36-9.787-6.876-2.752-16.032-4.265-25.782-4.265m1.074 28.53c-10.134 0-19.649-1.382-26.791-3.891-7.59-2.666-11.769-6.427-11.769-10.587 0-4.227 3.98-8.147 11.205-11.037 7.03-2.812 16.364-4.36 26.281-4.36s19.25 1.548 26.281 4.36c7.226 2.89 11.205 6.81 11.205 11.037 0 4.324-3.502 7.982-10.129 10.58-6.508 2.55-15.597 3.897-26.283 3.897" style="fill:#211d1d;fill-opacity:1;fill-rule:nonzero;stroke:none;stroke-width:.0195288"/><path d="M99.903 16.679c-10.33 0-20.033 1.453-27.32 4.093-6.971 2.525-10.969 5.931-10.969 9.347s3.998 6.821 10.968 9.346c7.288 2.64 16.99 4.093 27.321 4.093s20.034-1.453 27.321-4.093c6.97-2.525 10.968-5.93 10.968-9.346s-3.998-6.822-10.968-9.347c-7.287-2.64-16.99-4.093-27.32-4.093m0 28.223c-10.483 0-20.348-1.482-27.779-4.173-7.644-2.77-11.855-6.537-11.855-10.61 0-4.074 4.21-7.841 11.855-10.61 7.43-2.693 17.296-4.174 27.78-4.174 10.482 0 20.348 1.48 27.778 4.174 7.645 2.769 11.855 6.536 11.855 10.61s-4.21 7.84-11.855 10.61c-7.43 2.69-17.296 4.173-27.779 4.173" style="fill:#211d1d;fill-opacity:1;fill-rule:nonzero;stroke:none;stroke-width:.0195288"/><path d="M97.064 32.54c-2.786 1.539-7.267 1.445-10.009-.209s-2.706-4.241.08-5.78c2.785-1.537 7.266-1.444 10.008.21 2.742 1.655 2.707 4.242-.08 5.78M116.996 32.808c-2.053 1.132-5.355 1.062-7.375-.157-2.02-1.218-1.994-3.124.058-4.257s5.355-1.064 7.375.154c2.02 1.219 1.994 3.125-.058 4.26M130.995 36.55c-1.27.7-3.236.704-4.39.01-1.155-.698-1.061-1.83.21-2.533s3.236-.705 4.391-.008c1.155.695 1.06 1.83-.21 2.53" style="fill:#793919;fill-opacity:1;fill-rule:nonzero;stroke:none;stroke-width:.0195288"/></g></svg>