<svg xmlns="http://www.w3.org/2000/svg" xml:space="preserve" width="200mm" height="200mm" viewBox="0 0 200 200"><defs><clipPath id="f" clipPathUnits="userSpaceOnUse"><path d="M32039.9 29855.9c-97.1 0-190.9 13.5-281.5 22.2-98.1 9.4-192.9 14.8-280.3 33.2-99.1 20.8-192.3 43.1-273.3 73.6-99.9 37.7-179.4 92.2-243.8 141.6-90.7 69.3-142.8 145.5-142.8 229.5s53.1 158.9 143.8 228.3c64.5 49.4 144.1 102.1 244 139.8 81 30.6 172.4 59 271.5 79.8 87.4 18.3 182.1 27.7 280.2 37.1 36.9 3.5 74.5 6.5 112.7 8.7-19-139.6-79-274.4-115.4-356.3-19.9-44.8-28.8-65.1-29.7-78.4-1.1-14.4 5.6-29.6 19.9-45.2 39.6-43.3 143.5-94.7 305.7-97.1 2.4 0 4.7-.1 7.1-.1 146.8 0 236.1 68.8 276.5 110.3 18.9 19.4 20.4 51.7 3.4 73.8-52.9 68.6-86.7 207.1-105.7 311.2-4.9 26.2-8.8 52.8-11.9 79.7 34.3-2.5 68.2-5.5 101.5-8.7 98.1-9.4 191.1-26.6 278.1-46.7 189.1-43.8 72.1-14.5 270.6-76.8 101.9-32 183.7-80.6 248.2-130 90.6-69.3 140.2-145.4 140.2-229.4s-47.9-162.2-138.6-231.5c-64.5-49.4-149.2-91.8-249.2-129.5-80.9-30.6-170.8-60.8-269.9-81.6-87.4-18.3-180.7-35.9-278.9-45.3-90.5-8.7-185.4-12.2-282.4-12.2"/></clipPath></defs><g style="display:inline"><g style="display:inline"><path d="M26338.9 1164.49c-76.6 0-152.3 8.21-225.4 16.1-24.2 2.61-48.3 5.19-72.1 7.5-22.4 2.11-44.6 4.1-66.7 6.01-81 7.11-157.4 13.79-229.2 28.91-91.9 19.29-197.8 43.59-287.6 77.5-106.9 40.27-191.8 100-253.9 147.5-94.9 72.58-143 148.71-143 226.21 0 77.07 47.2 150.66 144.1 224.88 55.1 42.11 141.3 103.09 254 145.59 95 35.82 191.1 64.1 285.7 83.9 94.5 19.93 201.5 30.12 295.9 39.22 37.5 3.6 75.8 6.6 114.2 8.79-23.3-140.31-82.8-274.22-119.3-356.21-21.2-47.58-30.6-69.3-31.6-83.4-1.2-15.27 6-31.48 21.2-48.08 42.2-46.1 152.7-100.9 325.5-103.4 2.3-.12 4.6-.12 6.8-.12 156.5 0 252.1 73.2 295.2 117.42 20.1 20.59 21.6 55.08 3.6 78.48-56.3 73.12-92.3 220.62-112.6 331.41-3.5 18.9-6.6 39.21-9.5 61.6 33.3-2.39 67.7-5.32 102.8-8.71 92-8.79 187.8-25 293-49.3 26.4-6.09 47.2-10.9 63.8-14.69 66.7-15.31 66.7-15.31 97.6-25.9 20.1-6.79 53.7-18.2 125.1-40.7 91.4-28.71 177.9-73.98 257.2-134.69 93.1-71.33 140.3-147.3 140.3-226.09 0-81.21-46.6-158.01-138.5-228.44-63.7-48.79-148.6-92.77-259.5-134.57-108.2-40.9-195.8-67.42-284.1-85.9-85.3-17.93-186.9-37.61-294.4-47.93-90.5-8.67-188.2-12.89-298.6-12.89" style="fill:#fffdf4;fill-opacity:1;fill-rule:nonzero;stroke:none" transform="matrix(.02713 0 0 -.02713 -614.53 223.23)"/><path d="M26154.9 2176.6c-38.4-2.19-76.7-5.19-114.2-8.79-94.4-9.1-201.4-19.29-295.9-39.22-94.6-19.8-190.7-48.08-285.7-83.9-112.7-42.5-198.9-103.48-254-145.59-96.9-74.22-144.1-147.81-144.1-224.88 0-77.5 48.1-153.63 143-226.21 62.1-47.5 147-107.23 253.9-147.5 89.8-33.91 195.7-58.21 287.6-77.5 71.8-15.12 148.2-21.8 229.2-28.91 22.1-1.91 44.3-3.9 66.7-6.01 23.8-2.31 47.9-4.89 72.1-7.5 73.1-7.89 148.8-16.1 225.4-16.1 110.4 0 208.1 4.22 298.6 12.89 107.5 10.32 209.1 30 294.4 47.93 88.3 18.48 175.9 45 284.1 85.9 110.9 41.8 195.8 85.78 259.5 134.57 91.9 70.43 138.5 147.23 138.5 228.44 0 78.79-47.2 154.76-140.3 226.09-79.3 60.71-165.8 105.98-257.2 134.69-71.4 22.5-105 33.91-125.1 40.7-30.9 10.59-30.9 10.59-97.6 25.9-16.6 3.79-37.4 8.6-63.8 14.69-105.2 24.3-201 40.51-293 49.3-35.1 3.39-69.5 6.32-102.8 8.71 2.9-22.39 6-42.7 9.5-61.6 20.3-110.79 56.3-258.29 112.6-331.41 18-23.4 16.5-57.89-3.6-78.48-43.8-44.8-141.5-119.53-302-117.3-172.8 2.5-283.3 57.3-325.5 103.4-15.2 16.6-22.4 32.81-21.2 48.08 1 14.1 10.4 35.82 31.6 83.4 36.5 81.99 96 215.9 119.3 356.21m184-1057.89c-79.1 0-156 8.4-230.3 16.41-24.1 2.58-47.9 5.19-71.5 7.38-22.3 2.19-44.5 4.1-66.4 6.02-82.4 7.26-160.2 14.1-234.7 29.68-93.5 19.69-201.6 44.5-294.3 79.42-112.5 42.5-201 104.57-265.5 153.98-106.8 81.8-161 170.12-161 262.62 0 92.26 53.1 177.77 162.1 261.17 57.4 43.91 147.3 107.5 265.7 152.11 97.1 36.72 195.5 65.59 292.4 85.9 97 20.39 205.3 30.82 300.9 40 47.3 4.49 95.8 8.01 144.2 10.51l27.4 1.4-3.6-27.22c-20.4-156.8-87.1-306.68-126.9-396.29-13.2-29.69-26.9-60.39-27.8-68.28 2.6-22.31 101.6-99.3 301.8-102.31h6.8c139.6 0 223.7 64.57 261.7 103.59 4.3 4.42 4.4 13.09.1 18.6-61.9 80.31-100.1 235.19-121.4 351.09-5 27.42-9.3 57.5-13.2 91.99l-3 27.11 27.3-1.68c42.1-2.81 86.4-6.4 131.6-10.7 94.1-9.1 191.9-25.51 299.1-50.31 26.3-6.1 47-10.9 63.7-14.69 67.7-15.62 69-15.9 102.1-27.23 19.9-6.68 53.1-17.96 124-40.27 96.5-30.31 187.8-78.12 271.3-142.11 105.1-80.31 158.3-168.59 158.3-262.38 0-96.21-52.6-185.31-156.5-264.81-67.3-51.52-156-97.61-271.2-141.13-110.5-41.68-200.1-68.67-290.8-87.77-86.5-18.21-189.7-38.21-299.4-48.71-92-8.79-191.1-13.09-303-13.09" style="fill:#211d1d;fill-opacity:1;fill-rule:nonzero;stroke:none" transform="matrix(.02713 0 0 -.02713 -614.53 223.23)"/><path d="M26358.2 1631.21h-6.8c-200.2 3.01-299.2 80-301.8 102.31.9 7.89 14.6 38.59 27.8 68.28 39.8 89.61 106.5 239.49 126.9 396.29l3.6 27.22-23.6-1.21c1.6 16.92 2.3 33.99 2.2 51.1l-8.7 1615.7c-1 193.2-52.2 428.2-223.4 593.01l-12.8 25.78c-458.5 107.42-836.6 379.61-1018.3 633.12-184.2 256.8-297.2 825.71-336 1048.99-9.9 30.19-15.1 61.09-15.1 92.69 0 121.53 76.8 229.92 208 330.2 93.2 71.4 208.4 147.69 353 202.3 117.1 44.22 249.3 85.2 392.6 115.31 126.5 26.61 263.5 40.2 405.5 53.79 130.9 12.5 267.7 19.61 408.2 19.61 140.3 0 276.8-10.11 407.8-22.61 142-13.6 275.8-41.1 402.2-67.7 143.4-30.08 274.4-66.8 391.5-110.98 144.6-54.61 265.8-116.6 359.1-188 131.1-100.39 202.8-210.39 202.8-331.92 0-33.59-5.5-66.48-15.9-98.71l.4-1.29c-32.1-204.1-115.4-631.6-295.7-957.77-119.1-215.63-568.1-563.91-1051-703.63l-13.6-25.28c-241.4-286.21-233.7-420.62-232.6-621.4l4.9-1529.11c.1-41.79 2.1-83.59 6.1-125.19l-23.1 1.48 3-27.11c3.9-34.49 8.2-64.57 13.2-91.99 21.3-115.9 59.5-270.78 121.4-351.09 4.3-5.51 4.2-14.18-.1-18.6-38-39.02-122.1-103.59-261.7-103.59M24630.5 6104.3c26.5-61.29 60.3-114.69 97.6-114.69 1.6 0 3.4.08 5.1.08-42.1 36.91-76.5 75-102.7 114.61" style="fill:#e8f7f5;fill-opacity:1;fill-rule:nonzero;stroke:none" transform="matrix(.02713 0 0 -.02713 -614.53 223.23)"/><path d="M26358.1 1608.28h-7.1c-212.4 3.2-327 88.91-324.2 127.03 2.6 36.17 132.5 256.17 156.9 482.39.2 2.1.4 4.21.6 6.4l23.6 1.21-3.6-27.22c-20.4-156.8-87.1-306.68-126.9-396.29-13.2-29.69-26.9-60.39-27.8-68.28 2.6-22.31 101.6-99.3 301.8-102.31h6.8c139.6 0 223.7 64.57 261.7 103.59 4.3 4.42 4.4 13.09.1 18.6-61.9 80.31-100.1 235.19-121.4 351.09-5 27.42-9.3 57.5-13.2 91.99l-3 27.11 23.1-1.48c3.6-38.13 8.8-75.9 15.7-113.52 20.7-113.39 57.8-264.61 116.9-341.21 11.1-14.29 10.6-35.9-1.8-48.59-38.6-39.57-128.7-110.51-278.2-110.51" style="fill:#526263;fill-opacity:1;fill-rule:nonzero;stroke:none" transform="matrix(.02713 0 0 -.02713 -614.53 223.23)"/><path d="M28087 6185.78h.1zm-2113.8-1688.16c196.1-191.21 226.7-461.84 227.5-606.6l8.6-1615.71c.2-20.9-.8-41.09-2.9-60.11-17.5-162.82-87.3-319.69-129-413.4-13.2-29.69-26.9-60.39-27.8-68.28 2.6-22.31 101.6-99.3 301.8-102.31h6.8c139.6 0 223.7 64.57 261.7 103.59 4.3 4.42 4.4 13.09.1 18.6-61.9 80.31-100.1 235.19-121.3 351.09-14.5 78.71-21.9 160.39-22.2 242.7l-5 1545.51c-1.2 194.1-2.1 334.49 236.6 618.08l17 31.72 9.2 2.62c459.2 132.77 915.3 471.6 1037.4 692.58 173.7 314.41 257.6 726.28 292.5 946.52l-.5 4.06 1.5 4.61c9.8 30.31 14.8 61.09 14.8 91.6 0 109.73-65.2 215.2-193.9 313.71-88 67.39-206.9 129.61-353.2 184.81-113.1 42.58-243.7 79.69-388.1 110-113.1 23.79-253.8 53.28-399.7 67.3-109.7 10.47-254.9 22.58-405.6 22.58-133.9 0-270.5-6.6-406-19.61-128.5-12.26-274.1-26.29-403-53.4-128.8-26.99-259.8-65.47-389.3-114.37-154.1-58.13-271.9-141.41-347.1-198.91-133.9-102.5-199-204.61-199-312.11 0-28.47 4.7-57.19 13.9-85.51l.8-3.2c4.6-26.37 10.2-57.19 16.7-91.37l23.1 12.5c24.6-37.22 57.8-74.21 98.7-110l45.3-39.72-65.5-.39h-.1c-30.9 0-60 22.42-87.9 68.2 54.2-268.28 155.4-674.69 301.8-878.91 154.5-215.5 510.4-508.28 1004.9-624.1l10.5-2.5zm385-2912.23c-2.5 0-5 0-7.5.12-172.8 2.5-283.3 57.3-325.5 103.4-15.2 16.6-22.4 32.81-21.2 48.08 1 14.1 10.4 35.82 31.6 83.4 40.6 91.33 108.6 244.02 125.3 399.73 1.9 17.26 2.8 35.78 2.7 55l-8.7 1615.66c-.7 138.2-29.8 397.03-216.4 576.6l-2.8 2.82-9.8 19.68c-501.4 120.43-863.2 419.1-1021.2 639.53-185.6 258.87-299.2 824.11-339.7 1056.88-10.4 32.42-15.7 65.43-15.7 98.2 0 122.7 71 236.72 217 348.4 77.5 59.3 199 145.2 358.8 205.51 131.7 49.61 264.9 88.79 396 116.29 131.4 27.61 278.3 41.72 408 54.1 137 13.2 275.1 19.8 410.4 19.8 152.7 0 299.3-12.11 410-22.69 148.4-14.3 290.5-44.1 404.7-68.09 146.7-30.82 279.6-68.51 394.9-112.03 150.5-56.8 273.2-121.17 364.9-191.29 140.5-107.5 211.8-225.27 211.8-350 0-33.71-5.3-67.58-15.6-101.09l-.2-2.62c-35-222.07-120.1-642.89-298.3-965.19-62.2-112.7-210.3-257.7-395.9-387.89-205.5-144.11-439.3-258.91-659.5-323.79l-11.7-20.82c-229.3-271.88-228.5-398.48-227.3-590.08l.1-16.53 4.9-1529.1c.2-79.57 7.4-158.59 21.4-234.68 20.3-110.79 56.3-258.29 112.6-331.41 18-23.4 16.5-57.89-3.6-78.48-43.1-44.1-138.1-117.42-294.5-117.42" style="fill:#211d1d;fill-opacity:1;fill-rule:nonzero;stroke:none" transform="matrix(.02713 0 0 -.02713 -614.53 223.23)"/><path d="M24708.5 5652.5c-4.2 14.61-8.3 29.22-12.2 43.79-1.7 5.9-3.3 11.8-4.8 17.69-2.8 10.43-5.5 20.63-8.2 30.9-3.3 12.5-6.4 24.81-9.5 37.23-.8 3.2-1.7 6.41-2.5 9.61-12.7 51.29-24.3 101.09-34.6 148.28-.8 3.52-1.5 6.99-2.3 10.39-2 9.3-4 18.4-5.9 27.5-2.4 11.52-4.8 22.89-7.1 34.02-.2 1.37-.5 2.7-.8 4.11-32.2 156.87-48.4 268.47-48.4 268.47s29.3-126.79 74.2-214.1l.3-.51c1.8-3.59 3.7-7.18 5.7-10.66l1-1.92c1.9-3.32 3.7-6.4 5.6-9.6l1-1.49c2-3.4 4.1-6.6 6.2-9.73.8-1.17 1.6-2.38 2.5-3.47 1.3-1.92 2.6-3.71 3.9-5.51 1-1.41 2-2.7 3-3.98 1.2-1.53 2.4-2.93 3.6-4.3 1.1-1.33 2.1-2.62 3.2-3.83 1.3-1.29 2.5-2.58 3.7-3.91 1.1-.97 2.1-2.07 3.2-3.08 2.1-2.11 4.3-3.99 6.5-5.7.9-.79 1.8-1.29 2.7-2 1.5-1.09 2.9-2.11 4.4-3 1-.71 2.1-1.22 3.1-1.8 1.4-.78 2.8-1.49 4.2-2.11 1.1-.51 2.1-.9 3.1-1.29 1.6-.59 3.1-1.02 4.7-1.41.9-.31 1.8-.5 2.7-.7 2.5-.51 4.9-.78 7.4-.78 9.6.08 19.7.19 30.2.27 3 0 6.2.12 9.2.12 7.7.2 15.5.31 23.6.51 3.7.08 7.6.19 11.4.27 8 .24 16.3.43 24.7.7 3.8.12 7.6.24 11.4.43 9.3.28 18.7.59 28.4.98 3.3.12 6.5.2 9.8.39 12.4.43 25 1.02 38 1.6l2.1.12c44.1 1.99 92 4.49 143 7.38l.7.12c675.3 39.22 1909.8 157.19 2574.4 192.62 5.6.27 11.3.58 16.9.9 7.8.39 15.5.78 23.2 1.17 8.3.43 16.4.82 24.4 1.21 6.1.31 12.1.51 18 .82 9.9.39 19.6.9 29.1 1.29 4 .19 8.2.27 12.2.51 12.8.46 25.2.97 37.4 1.36l2.5.12c49.7 1.8 94.1 2.81 132.2 2.81l.1-.11c101.2.19 158.7-5.98 156.4-20.71-6.9-43.71-16.1-97.69-28.2-158.71l.1-.08c-1.1-5.31-2.2-10.82-3.3-16.09-1.2-6.21-2.5-12.31-3.8-18.59-.8-4.03-1.6-8.13-2.5-12.11-2.3-10.9-4.6-21.8-7-33.01-.2-1.02-.4-1.92-.7-2.89-47-215.31-125.3-490.2-250.3-716.29-152.1-275.43-842.3-767.23-1454.2-764.42-630.5 2.9-1182.3 357-1414.2 680.51-87.3 121.68-158.6 313.6-213.6 505.47l-.1.12c-.4 1.4-.7 2.69-1.1 4.1" style="fill:#e3f4d7;fill-opacity:1;fill-rule:nonzero;stroke:none" transform="matrix(.02713 0 0 -.02713 -614.53 223.23)"/><path d="M28069.1 6101.41c0-121.53-68.1-234.61-196.8-335-91.5-71.41-211.8-132.82-353.7-187.31-114.9-44.22-242.5-87.89-383.1-118.01-124.1-26.48-256.6-51.99-395.9-65.58-128.5-12.5-263.1-17.62-400.9-17.62s-271 19.61-399.5 32.23c-139.3 13.59-273.9 21.36-398 47.89-140.6 30.08-272.9 62.38-387.9 106.6-141.8 54.49-254.6 133.28-346.1 204.69-128.7 100.39-202.6 210.58-202.6 332.11 0 121.48 75.4 229.88 204 330.19 91.6 71.41 204.5 147.7 346.4 202.31 114.9 44.18 244.7 85.19 385.3 115.31 124.1 26.56 258.6 40.19 397.9 53.79 128.5 12.5 262.7 19.69 400.5 19.69 137.7 0 271.7-10.2 400.2-22.7 139.3-13.59 270.6-41.09 394.7-67.7 140.6-30.11 269.2-66.79 384.1-111.01 141.9-54.57 260.8-116.6 352.3-188.01 128.7-100.39 199.1-210.39 199.1-331.87" style="fill:#fff;fill-opacity:1;fill-rule:nonzero;stroke:none" transform="matrix(.02713 0 0 -.02713 -614.53 223.23)"/><path d="M26338.7 6799.8c-131.3 0-265.3-6.6-398.3-19.6-126-12.31-268.9-26.29-395.3-53.29-126.5-27.11-254.9-65.62-381.9-114.41-151.1-58.09-266.7-141.41-340.5-198.91-131.4-102.5-195.3-204.61-195.3-312.18 0-108.01 65.2-213.71 193.9-314.03 83.1-64.76 196.9-146.29 340.3-201.48 120-46.1 261.7-79.18 384.4-105.51 96.1-20.59 198.3-29.69 306.4-39.37 29.4-2.62 59.1-5.24 89-8.21 31.7-3.12 63.6-6.6 95.9-10.11 97.7-10.79 198.7-22 301.4-22 147.3 0 277.7 5.78 398.7 17.58 143.5 14.02 279.3 40.82 393.3 65.24 118 25.27 235.1 61.28 379.7 116.87 148.6 57.23 262.4 117.42 347.9 184.1 124.6 97.23 187.9 203.79 187.9 316.92 0 109.8-64 215.39-190.3 313.79-86.3 67.42-202.9 129.49-346.4 184.68-111 42.74-239.1 79.73-380.7 110-110.9 23.83-249 53.32-392.1 67.31-107.6 10.51-250.1 22.61-398 22.61m0-1444.8c-105.2 0-207.5 11.21-306.4 22.19-32.1 3.51-63.9 7.03-95.4 10.11-29.8 2.9-59.3 5.51-88.6 8.09-109.5 9.81-213 19.1-311.9 40.2-124.5 26.71-268.3 60.31-391.3 107.61-149 57.31-266.4 141.29-352 208.09-140.3 109.41-211.4 227.23-211.4 350.12 0 122.57 69.6 236.6 212.9 348.28 76.1 59.29 195.4 145.19 352.2 205.51 129.1 49.68 259.9 88.9 388.7 116.4 129 27.62 273.2 41.68 400.4 54.1 134.5 13.21 270 19.81 402.8 19.81 149.9 0 293.8-12.11 402.4-22.7 145.8-14.29 285.2-44.1 397.3-68.12 143.9-30.78 274.3-68.48 387.5-112.07 147.8-56.84 268.3-121.14 358.2-191.33 137.9-107.58 207.8-225.27 207.8-349.88 0-127.89-69.1-246.72-205.5-353.01-89.1-69.49-206.7-131.92-359.6-190.7-146.9-56.49-266.1-93.21-386.5-118.91-115.3-24.69-252.7-51.8-398.5-66.09-122.4-11.92-254.3-17.7-403.1-17.7" style="fill:#211d1d;fill-opacity:1;fill-rule:nonzero;stroke:none" transform="matrix(.02713 0 0 -.02713 -614.53 223.23)"/><path d="M26339.5 6982.89c-133.8 0-270.4-6.6-406.1-19.61-128.4-12.26-274-26.29-402.9-53.4-128.8-26.99-259.8-65.47-389.3-114.37-154-58.13-271.9-141.41-347.1-198.91-133.9-102.5-199-204.61-199-312.11 0-107.89 66.4-213.59 197.5-313.9 84.7-64.81 200.7-146.29 346.9-201.49 122.5-46.21 266.9-79.3 392-105.58 98-20.63 202.1-29.73 312.3-39.42 30-2.62 60.2-5.31 90.7-8.2 32.3-3.09 64.9-6.6 97.8-10.2 99.6-10.7 202.5-21.91 307.2-21.91 150.2 0 283.1 5.82 406.4 17.62 146.4 13.98 284.8 40.78 400.9 65.19 154.1 32.38 287.8 79.49 387.1 116.99 151.4 57.19 267.4 117.43 354.6 184.11 127.1 97.18 191.5 203.78 191.5 316.79 0 109.73-65.2 215.2-193.9 313.71-88 67.39-206.9 129.61-353.1 184.81-113.2 42.58-243.8 79.69-388.2 110-113.1 23.79-253.8 53.28-399.7 67.3-109.6 10.47-254.8 22.58-405.6 22.58m0-1444.8c-107.1 0-211.3 11.21-312.1 22.11-32.7 3.59-65.2 7.1-97.3 10.19-30.3 2.89-60.5 5.51-90.3 8.13-111.6 9.76-217 19.1-317.8 40.19-126.7 26.68-273.2 60.27-398.6 107.58-151.8 57.3-271.4 141.21-358.6 208.01-143 109.41-215.5 227.18-215.5 350.19 0 122.7 71 236.72 217 348.4 77.5 59.3 199.1 145.2 358.8 205.51 131.6 49.61 264.9 88.79 396 116.29 131.4 27.61 278.3 41.72 408 54.1 137.1 13.2 275.1 19.8 410.4 19.8 152.8 0 299.3-12.11 410-22.69 148.4-14.3 290.5-44.1 404.7-68.09 146.7-30.82 279.6-68.51 394.9-112.03 150.5-56.8 273.2-121.09 364.9-191.29 140.5-107.5 211.8-225.27 211.8-350 0-128.01-70.5-246.79-209.5-353.2-90.8-69.38-210.6-131.8-366.3-190.51-100.8-38.08-236.7-85.9-393.8-118.98-117.4-24.61-257.3-51.68-406-66.02-124.7-11.87-259-17.69-410.7-17.69" style="fill:#211d1d;fill-opacity:1;fill-rule:nonzero;stroke:none" transform="matrix(.02713 0 0 -.02713 -614.53 223.23)"/><path d="M26342.9 4439.41h-5.5c-293 1.29-592.8 78.29-867.1 222.58-235.3 123.79-441.4 294.22-565.6 467.42-232.5 324.3-350.3 1118.21-355.2 1151.8-1.8 12.5 6.9 24.1 19.4 25.98 12.6 1.79 24.1-6.88 25.9-19.38 1.2-8.12 121.1-816.52 347.1-1131.72 237.5-331.29 793.3-668.2 1395.7-670.89 1.7-.08 3.4-.08 5-.08 266.9 0 580.2 97.5 882.8 274.76 253.5 148.52 467.9 336.14 546.3 477.82 174.7 316.21 258.6 731.09 293.1 950.31 1.9 12.5 13.6 21.09 26.1 19.1s21-13.71 19.1-26.21c-35-222.19-120.1-643.01-298.3-965.31-147.7-267.39-833.7-776.18-1468.8-776.18" style="fill:#211d1d;fill-opacity:1;fill-rule:nonzero;stroke:none" transform="matrix(.02713 0 0 -.02713 -614.53 223.23)"/></g><path d="M32444.1 34699.4c-38.1 68.3-67.6 141.2-86.1 218.2-60.9 253.2-24.5 528.1 94.6 759.3 155.4 301.8 472.4 574.6 804.5 645.2s692.5-11.5 964.4-214.7c127.5-95.3 236.1-216 315.2-354 171.7-300.1 173.5-730.8 36.2-1048.1s-426.5-548.9-762.8-629.2c-299-71.4-608.5-2-868.8 154.7-195 117.5-384.8 266.5-497.2 468.6" style="fill:#307956;fill-opacity:1;fill-rule:nonzero;stroke:none" transform="matrix(.02888 0 0 -.02888 -823.95 1054.295)"/><path d="M33496.6 36330.7c-79.4 0-158.6-8.1-236.1-24.6-312.6-66.5-631.5-322.3-793.4-636.7-118.3-229.7-152.2-502.4-93.2-748 17.5-72.8 45.9-144.8 84.5-214.1 93.7-168.6 254.5-319.8 491.4-462.5 273.9-165 578.1-219.2 856.5-152.8 337.6 80.6 618.6 312.3 751.6 619.8 140.9 325.8 126.4 750.8-35.4 1033.4-76.5 133.6-183.9 254.2-310.8 349.1-205.8 153.8-461.2 236.4-715.1 236.4m72.3-2299c-213.9 0-433.2 63-636 185.1-241.9 145.7-406.5 300.9-503.1 474.6-40 71.9-69.5 146.7-87.7 222.3-60.8 253.2-25.9 534.1 95.9 770.7 166.2 322.6 494 585.3 815.7 653.7 334.6 71.2 700.1-10.2 977.6-217.6 130.4-97.5 240.9-221.6 319.5-359 166.7-291 181.9-728 37.1-1062.7-137.1-316.9-426.4-555.6-774-638.6-80.1-19.1-162.1-28.5-245-28.5" style="fill:#211d1d;fill-opacity:1;fill-rule:nonzero;stroke:none" transform="matrix(.02888 0 0 -.02888 -823.95 1054.295)"/><path d="M32490 34720c-36.4 65.4-64.7 135.1-82.4 208.8-58.2 242.3-23.4 505.3 90.5 726.6 148.8 288.7 433.3 502.7 751.1 570.3 317.7 67.5 662.6-11 922.8-205.5 122-91.2 226-206.6 301.6-338.7 164.4-287.1 184.8-652.2 53.4-955.9-131.3-303.6-411.2-538.7-733.1-615.5-286.1-68.3-582.2-2-831.3 148-186.6 112.4-365.1 268.6-472.6 461.9" style="fill:#fff;fill-opacity:1;fill-rule:nonzero;stroke:none" transform="matrix(.02888 0 0 -.02888 -823.95 1054.295)"/><path d="M33478.4 36233.3c-76 0-151.7-7.7-225.9-23.5-316.8-67.3-593.5-277.4-740-561.9-113.1-219.7-145.6-480.4-89.2-715.3 16.8-69.7 44-138.5 80.8-204.8 120.9-217.1 320.6-367.7 466.9-455.8 262-157.8 552.9-209.7 819.2-146.2 316.2 75.6 592.9 307.9 722 606.3s108.9 659.1-52.6 941.3c-73.1 127.7-175.9 243.1-297.3 333.8-196.8 147.1-441.1 226.1-683.9 226.1m84.8-2166.3c-204.9 0-414.7 60.3-608.9 177.3-149.7 90.1-354.2 244.4-478.5 467.8-38.3 68.8-66.5 140.4-83.9 212.9-58.3 242.4-24.8 511.3 91.8 737.8 151 293 435.8 509.3 762.1 578.7 320.4 68.1 670.2-9.8 935.9-208.3 124.9-93.4 230.7-212.2 305.9-343.7 166.6-290.9 187.4-662.7 54.3-970.3s-418.2-547-744.2-624.9c-76.6-18.2-155.2-27.3-234.5-27.3" style="fill:#211d1d;fill-opacity:1;fill-rule:nonzero;stroke:none" transform="matrix(.02888 0 0 -.02888 -823.95 1054.295)"/><path d="M34042.1 34269.8c-12.7-7.1-25.6-13.8-38.6-20-179.7-86.8-388.2-112.9-583.8-73.2-373.7 75.8-680.8 311.4-852.9 652.3-90.3 179-140.9 384.4-94.6 583.2 50.4 216.7 198.4 402.4 377 530.1 281.5 201.1 657.9 274.4 986.4 165.7 185.2-61.3 354.4-176.5 477.8-327.7 114.9-141 161.8-306.6 192.9-481.8 34.4-193.5 23.3-385.8-58.6-566.9-84-186-225.1-361.2-405.6-461.7" style="fill:#e7e2b9;fill-opacity:1;fill-rule:nonzero;stroke:none" transform="matrix(.02888 0 0 -.02888 -823.95 1054.295)"/><path d="M33517.3 36141.9c-229 0-463.8-73.5-658.8-212.8-193-137.9-324.7-322.8-370.7-520.6-51-219.1 22.6-432.2 93.3-572.4 169.1-334.9 475.9-569.6 841.8-643.8 192.7-39.1 396.5-13.6 573.6 71.9 12.6 6.1 25.3 12.7 37.8 19.6 164.4 91.6 309.8 257.1 398.8 454.3 74.6 164.9 93.9 352.5 57.5 557.5-27.2 153-71 329-189.6 474.4-120.3 147.5-287.4 262.1-470.5 322.7-99.9 33.1-205.9 49.2-313.2 49.2m84.4-1999.5c-62 0-124.1 6.1-185.2 18.5-375.6 76.2-690.5 317-864 660.8-104.9 207.8-138 413.2-95.9 594.1 47.8 205.3 183.9 396.9 383.3 539.4 294.4 210.4 677.9 274.7 1000.7 167.9 188.8-62.5 361.1-180.7 485.2-332.8 123.3-151.2 168.4-332.1 196.3-489.1 37.6-211.5 17.5-405.4-59.8-576.3-91.8-203.3-242.1-374.3-412.4-469.1-13-7.3-26.3-14.1-39.5-20.5-127.3-61.4-267.9-92.9-408.7-92.9" style="fill:#211d1d;fill-opacity:1;fill-rule:nonzero;stroke:none" transform="matrix(.02888 0 0 -.02888 -823.95 1054.295)"/><g clip-path="url(#f)" transform="matrix(.02888 0 0 -.02888 -823.95 1054.295)"><path d="M30818.2 29855.9h2440.7v993.797h-2440.7z" style="fill:#f3fbfd;fill-opacity:1;fill-rule:nonzero;stroke:none"/></g><path d="M32039.9 30833.1c-92.4 0-186.6-4.5-280.1-13.5-88.7-8.5-189.2-18.1-277.9-36.8-88.9-18.6-179.1-45.1-268.3-78.8-105.8-39.9-186.8-97.2-238.6-136.8-91-69.7-135.3-138.7-135.3-211.2 0-72.7 45.2-144.2 134.3-212.5 58.3-44.5 138.1-100.6 238.4-138.5 84.3-31.8 183.8-54.6 270.1-72.7 67.5-14.2 139.3-20.5 215.4-27.1 20.7-1.8 41.5-3.7 62.6-5.7 22.3-2.1 44.9-4.6 67.6-7 68.7-7.5 139.8-15.2 211.8-15.2 103.6 0 195.3 4 280.4 12.2 100.9 9.6 196.4 28.1 276.5 45 82.9 17.4 165.1 42.2 266.7 80.6 104.2 39.3 183.9 80.6 243.8 126.4 86.3 66.1 130.1 138.3 130.1 214.5 0 74-44.3 145.5-131.8 212.4-74.5 57-155.8 99.6-241.5 126.5-67.1 21.1-98.7 31.8-117.5 38.2-29 9.9-29 9.9-91.7 24.3-15.6 3.6-35.1 8.1-59.9 13.8-98.8 22.9-188.8 38.1-275.2 46.3-75.7 7.3-175.8 15.6-279.9 15.6m0-998.7c-74.4 0-146.6 7.8-216.4 15.3-22.6 2.5-45 4.9-67.1 7-21 2-41.7 3.8-62.3 5.6-77.4 6.8-150.4 13.2-220.4 27.9-87.9 18.5-189.5 41.8-276.5 74.6-105.6 39.9-188.7 98.2-249.3 144.6-100.3 76.8-151.2 159.8-151.2 246.6 0 86.7 49.8 167 152.2 245.4 53.9 41.2 138.4 100.9 249.5 142.8 91.2 34.4 183.7 61.6 274.6 80.7 91.1 19.1 192.9 28.9 282.7 37.5 94.8 9.1 190.5 13.7 284.2 13.7 105.9 0 207.4-8.4 284-15.8 88.3-8.4 180.2-23.9 280.8-47.2 24.7-5.7 44.2-10.2 59.9-13.8 63.5-14.6 64.7-14.9 95.9-25.5 18.6-6.3 49.8-17 116.5-37.9 90.5-28.4 176.3-73.3 254.8-133.4 98.6-75.5 148.6-158.4 148.6-246.5 0-90.3-49.5-174-147-248.6-63.2-48.4-146.5-91.7-254.7-132.5-103.7-39.2-187.9-64.6-273.1-82.5-81.2-17.1-178.2-35.9-281.2-45.7-86.5-8.3-179.5-12.3-284.5-12.3" style="fill:#211d1d;fill-opacity:1;fill-rule:nonzero;stroke:none" transform="matrix(.02888 0 0 -.02888 -823.95 1054.295)"/><path d="M32417.2 33031.7c-125.7-36.4-253.9-57.8-378.6-57.2-128.2.6-252.9 16.7-371.9 44.5l12-24.2c160.8-154.8 208.9-375.5 209.9-556.9l8.1-1517.4c.1-18.1-.7-36.1-2.6-54-22.9-212.4-144.9-419-147.4-453.1-2.6-35.7 105-116.2 304.5-119.2 144.4-2.2 231.1 65.9 267.9 103.7 11.7 12 12.1 32.2 1.8 45.6-55.5 72.1-90.4 214-109.9 320.5-13.5 73.8-20.2 148.9-20.4 224.2l-4.6 1436.1c-1 188.6-8.3 314.8 218.4 583.6z" style="fill:#fff;fill-opacity:1;fill-rule:nonzero;stroke:none" transform="matrix(.02888 0 0 -.02888 -823.95 1054.295)"/><path d="M31717.5 32986c165.2-177.8 191.9-417.4 192.6-548l8.1-1517.4c.1-19.6-.8-38.6-2.8-56.4-16.4-153-82-300.3-121.1-388.3-12.5-27.9-25.3-56.8-26.2-64.2 2.4-20.9 95.5-93.2 283.5-96 2.1-.1 4.2-.1 6.3-.1 131.2 0 210.2 60.7 245.9 97.3 4 4.2 4 12.3.1 17.5-58.2 75.4-94.1 220.9-114 329.8-13.6 73.9-20.6 150.6-20.8 227.9l-4.7 1451.5c-1.1 176.7-2 305.9 201.9 556-114.5-28.7-224.6-43-327.8-42.6-106.2.5-213.9 11.6-321 33m340.5-2713.4c-2.4 0-4.7.1-7.1.1-162.2 2.4-266.1 53.8-305.7 97.1-14.3 15.6-21 30.8-19.9 45.2.9 13.3 9.8 33.6 29.7 78.4 38.1 85.7 101.9 229.1 117.7 375.4 1.7 16.2 2.6 33.6 2.5 51.6l-8.1 1517.4c-.7 129.8-28.1 372.8-203.3 541.6l-2.7 2.5-33.9 68.5 44.4-10.4c122.2-28.7 245.7-43.4 367.1-44 116.4-.8 241.5 18.4 372.5 56.3l49.2 14.2-39.6-72.5c-215.3-255.3-214.6-374.2-213.4-554.1l.1-15.5 4.6-1436.1c.2-74.8 7-149 20.1-220.4 19-104.1 52.8-242.6 105.7-311.2 17-22.1 15.5-54.4-3.4-73.8-40.4-41.5-129.7-110.3-276.5-110.3" style="fill:#211d1d;fill-opacity:1;fill-rule:nonzero;stroke:none" transform="matrix(.02888 0 0 -.02888 -823.95 1054.295)"/><path d="M32045.8 32996h-7.1c-121.4.6-244.9 15.3-367.1 44l-44.4 10.4 12.3-24.8c-418.3 105.1-762.1 355-929.1 588-133.6 186.2-227.3 547-279.8 798.4-14.3 68.2-50 239.4-50 273.9 0 114.1 72.2 215.9 195.3 310.1 87.6 67.1 195.8 138.7 331.5 190 110 41.5 234.2 80 368.8 108.3 118.8 24.9 247.5 37.7 380.8 50.5 123 11.8 251.5 18.5 383.4 18.5 131.8 0 260-9.6 383-21.3 133.3-12.8 259-38.7 377.8-63.6 134.6-28.3 257.6-62.8 367.7-104.3 135.7-51.2 249.5-109.5 337.1-176.5 123.2-94.3 190.5-197.6 190.5-311.7 0-47.8-35.6-226.3-42.9-252.7-41.9-209.7-118.3-503.7-249.3-740.8-109.5-198.2-515.8-515.8-958.3-652.2l14.4 26.3-49.2-14.2c-128.4-37.1-251-56.3-365.4-56.3m1597.8 1407.2c-.4-1-.8-1.9-1.2-2.9.4 1 .8 1.9 1.2 2.9m-3221.6 135.1v-.2z" style="fill:#f3fbfd;fill-opacity:1;fill-rule:nonzero;stroke:none" transform="matrix(.02888 0 0 -.02888 -823.95 1054.295)"/><path d="M32043.5 32974.5h-4.9c-138 .6-272 19.2-399.1 51.1l-12.3 24.8 44.4-10.4c122.2-28.7 245.7-43.4 367.1-44h7.1c114.4 0 237 19.2 365.4 56.3l49.2 14.2-14.4-26.3c-133.3-41.1-269.8-65.7-402.5-65.7" style="fill:#8c9799;fill-opacity:1;fill-rule:nonzero;stroke:none" transform="matrix(.02888 0 0 -.02888 -823.95 1054.295)"/><path d="M30452.5 34412c54.7-260.3 146.5-606.3 275.3-785.9 223.1-311.2 745-627.5 1310.9-630.1h4.6c250.7 0 544.9 91.5 829.1 258 238.1 139.5 439.5 315.7 513.1 448.8 123.6 223.7 198.5 500.8 240.8 704l-3.8 1.5 1 2.6 3.4-1.3c1.9 9.5 3.8 18.7 5.6 27.8l.4 1.5c6.9 25.1 42.1 201.9 42.1 247 0 103-61.2 202.1-182 294.6-82.7 63.3-194.3 121.7-331.7 173.5-106.3 40.1-228.9 74.9-364.6 103.4-106.2 22.3-238.3 50-375.4 63.2-102.9 9.8-239.3 21.2-380.9 21.2-125.7 0-254-6.2-381.3-18.4-120.7-11.6-257.4-24.7-378.4-50.1-121.1-25.4-244.1-61.6-365.7-107.5-144.7-54.6-255.4-132.8-326-186.8-125.8-96.3-186.9-192.2-186.9-293.1 0-15.2 8.2-64.2 24.4-146.2l.3-1.5 16.7.1v-.2h-16.7l6.9-27.5 10.4.4.3-5.9-9.2-.5 14.2-56.9-19.9-3.4 19.9 3.4.2-.4 1.2.2-1.2-.3 7.9-32.1-5.4-.8zh-15.7zm1591.1-1459h-5.1c-275.2 1.3-556.9 73.6-814.4 209.1-221 116.3-414.6 276.3-531.2 439-133.9 186.7-228 541.6-283.4 806.5-23.5 112.3-50.4 245.5-50.4 278.3 0 115.2 66.7 222.3 203.8 327.2 72.8 55.7 186.9 136.3 337 193 123.6 46.6 248.7 83.4 371.9 109.2 123.4 26 261.4 39.2 383.2 50.9 128.7 12.3 258.4 18.5 385.4 18.5 143.4 0 281.1-11.4 385-21.4 139.5-13.3 272.9-41.3 380.2-63.9 137.7-28.9 262.5-64.3 370.8-105.2 141.4-53.3 256.6-113.7 342.7-179.6 132-101 198.9-211.6 198.9-328.7 0-50.1-35.4-227.8-43.5-257.7-41.6-208.2-119-506.5-251.4-746.2-138.8-251.1-783-729-1379.5-729" style="fill:#211d1d;fill-opacity:1;fill-rule:nonzero;stroke:none" transform="matrix(.02888 0 0 -.02888 -823.95 1054.295)"/><path d="M33664.7 34513.9c0-114.1-64.5-220.3-186.4-314.6-86.8-67-200.9-124.7-335.3-175.9-109-41.5-229.9-82.5-363.2-110.8-117.6-24.9-243.3-48.8-375.3-61.6-121.8-11.8-249.4-16.6-380-16.6s-257 18.4-378.8 30.2c-132 12.8-259.6 20.1-377.2 45.1-133.3 28.3-258.7 58.5-367.7 100.1-134.5 51.2-241.3 125.2-328.1 192.3-122 94.2-150.7 221.9-150.7 336s30.1 191.7 152.1 286c86.7 67 193.8 138.7 328.3 189.9 108.9 41.5 231.9 80.1 365.3 108.4 117.6 24.9 245.1 37.6 377.1 50.4 121.8 11.8 249 18.5 379.7 18.5 130.5 0 257.5-9.5 379.3-21.3 132.1-12.8 256.5-38.6 374.2-63.5 133.3-28.3 255.2-62.8 364.1-104.3 134.5-51.3 247.2-109.5 334-176.6 121.9-94.2 188.6-197.5 188.6-311.7" style="fill:#eec7a2;fill-opacity:1;fill-rule:nonzero;stroke:none" transform="matrix(.02888 0 0 -.02888 -823.95 1054.295)"/><path d="M32024.5 35169.8c-124.5 0-251.5-6.2-377.7-18.4-119.4-11.6-254.8-24.6-374.7-50.1-119.9-25.4-241.7-61.5-362.1-107.4-143.2-54.6-252.8-132.8-322.8-186.8-120.8-93.4-143.7-166.6-143.7-269 0-140.6 46.5-245 142.3-319 78.8-60.9 186.7-137.5 322.7-189.3 113.8-43.3 248.1-74.4 364.5-99.1 91.1-19.3 187.9-27.9 290.4-37 27.9-2.4 56.1-4.9 84.4-7.7 30.1-2.9 60.4-6.2 91-9.5 92.6-10.2 188.4-20.6 285.7-20.6 139.6 0 263.3 5.4 378 16.5 136.1 13.1 264.8 38.3 372.8 61.2 111.9 23.8 222.9 57.6 360 109.9 140.9 53.6 248.8 110.2 329.8 172.8 118.2 91.4 178.2 191.5 178.2 297.6 0 103.1-60.7 202.2-180.4 294.7-81.9 63.3-192.4 121.6-328.4 173.5-105.2 40.1-226.7 74.8-361 103.3-105.1 22.3-236 50.1-371.8 63.2-101.9 9.9-237 21.2-377.2 21.2m0-1356.9c-99.7 0-196.6 10.6-290.4 20.8-30.4 3.4-60.6 6.6-90.4 9.5-28.3 2.8-56.3 5.2-84.1 7.7-103.8 9.2-201.9 17.9-295.6 37.8-117.9 25-254.2 56.5-370.8 101-141.3 53.8-252.5 132.7-333.7 195.4-107 82.7-159 198.2-159 353 0 113.4 26.2 199.3 160.4 303 72.1 55.7 185.2 136.4 333.8 193 122.5 46.6 246.4 83.4 368.5 109.3 122.3 25.9 258.9 39.1 379.5 50.8 127.5 12.3 256 18.6 381.8 18.6 142.1 0 278.4-11.4 381.4-21.4 138.2-13.4 270.3-41.4 376.5-63.9 136.5-29 260.1-64.4 367.4-105.2 140-53.4 254.2-113.8 339.4-179.7 130.8-101 197-211.6 197-328.7 0-120.1-65.5-231.7-194.8-331.6-84.4-65.3-195.9-123.8-340.8-179-139.2-53.1-252.2-87.5-366.4-111.7-109.1-23.2-239.4-48.6-377.6-62-116.1-11.2-241.1-16.7-382.1-16.7" style="fill:#211d1d;fill-opacity:1;fill-rule:nonzero;stroke:none" transform="matrix(.02888 0 0 -.02888 -823.95 1054.295)"/><path d="M34159.2 35807.6c-32.2 31.3-75.1 62.4-118.3 50-29.9-8.7-50.1-36-67.8-61.7-93.9-135.4-305.4-419.8-400.4-553.2-18.3-25.9 4.6-60.8 35.6-54.3l226.3 58.6c20.8 5.4 42.1 8.9 63.5 10.2 97 6.2 198 5.1 294 13.2 43.6 3.6 88.2 7.5 128.5 24.7 40.2 17.2 76.3 50.4 85.1 93.2 10.2 49.5-16.5 98.3-42.3 141.8-33.1 55.9-66.4 112-105.2 164.2-29.9 40.4-63.1 78.3-99 113.3" style="fill:#8da14c;fill-opacity:1;fill-rule:nonzero;stroke:none" transform="matrix(.02888 0 0 -.02888 -823.95 1054.295)"/><path d="M34061 35844.4c-5.4 0-10.6-.7-15.6-2.2-24-6.9-41.7-30.2-59.2-55.4-55.1-79.5-148.7-207.6-239.3-331.5-62.7-85.8-121.9-166.8-161.1-221.9-6.9-9.7-2.1-18.7-.4-21.2 1.6-2.5 7.9-10.6 19.6-8.1l225.6 58.4c22.1 5.7 44.5 9.3 66.5 10.7 43.3 2.8 87.9 4.1 131 5.4 53.9 1.6 109.6 3.3 162.6 7.7 41.9 3.5 85.3 7.2 123.6 23.5 40.4 17.3 68.7 47.9 75.7 81.8 8.8 42.6-14 85.9-40.3 130.3-32.4 54.6-65.8 111-104.3 162.9-29.4 39.5-62.1 76.9-97.4 111.3-33.3 32.4-61.9 48.3-87 48.3m-459.9-672.7c-17.2 0-33 8.4-42.5 22.9-11.6 17.7-11.1 40.2 1 57.3 39.4 55.4 98.7 136.5 161.5 222.3 90.4 123.7 183.9 251.7 238.8 330.8 20.9 30.2 42.5 58.1 76.6 68 40.7 11.7 84.5-5.9 133.8-53.9 36.5-35.6 70.4-74.3 100.8-115.2 39.5-53.2 73.4-110.4 106.1-165.7 28.5-48 55.3-99.3 44.2-153.1-9.1-44.2-44.5-83.3-94.5-104.8-43.1-18.3-91.1-22.3-133.5-25.9-53.9-4.5-110-6.2-164.3-7.8-42.9-1.3-87.2-2.6-129.9-5.3-20.1-1.3-40.4-4.6-60.6-9.8l-226.3-58.6c-3.7-.8-7.5-1.2-11.2-1.2" style="fill:#211d1d;fill-opacity:1;fill-rule:nonzero;stroke:none" transform="matrix(.02888 0 0 -.02888 -823.95 1054.295)"/><path d="M33921.7 35943.1c-57.4 51.3-181.3 116.4-275.6 120.4-126.8 5.4-238.2-.2-277.2-120.9-27.1-83.8-29.3-208.3-9.3-294.2l86.7-372.9c4.7-20.3 13.6-44.7 37.2-43.2 11 .7 21 7.1 27.1 16.3l419.5 629.4c13.8 20.7 10.3 48.4-8.4 65.1" style="fill:#8da14c;fill-opacity:1;fill-rule:nonzero;stroke:none" transform="matrix(.02888 0 0 -.02888 -823.95 1054.295)"/><path d="M33591.6 36048.9c-97.9 0-177.2-17.6-207.4-111.2-25.5-78.6-29.2-198.8-9-285.7l86.7-372.9c7.4-31.7 16.6-31.1 20.6-30.8 5.6.4 11.2 3.8 14.8 9.2l419.5 629.3c9.3 14.1 6.9 33.1-5.7 44.3-51.9 46.3-173 112.5-265.6 116.4-18.5.8-36.5 1.4-53.9 1.4m-110.4-832.7c-24.9 0-41.9 18.7-50.5 55.6l-86.7 372.9c-21.4 92-17.3 219.3 9.7 302.8 42.4 131.6 162.9 137.6 293.1 132 94.7-4 222-67.7 285.6-124.5 24.4-21.8 29.2-58.7 11-85.9l-419.5-629.4c-9-13.6-23.8-22.3-39.3-23.4-1.2-.1-2.3-.1-3.4-.1" style="fill:#211d1d;fill-opacity:1;fill-rule:nonzero;stroke:none" transform="matrix(.02888 0 0 -.02888 -823.95 1054.295)"/><path d="M33404.6 35033.3c7.9 23.1-18.4 41.4-37.8 26.6-133.8-102.1-284.5-180.5-440.2-242-32.9-13-66.8-25.8-95-48.3-18.8-15.1-34.7-34.9-41.6-58-6.3-21.3-4.7-44.3 2-65.1 6.6-20.8 18.1-39.6 31.1-56.9 31.3-41.2 71.8-74.2 112.1-106.2 23.7-18.8 48.1-36.8 73.2-53.7 25.4-17.1 60.8-39.1 92.7-26.2 29.7 12 43.1 48.7 55.9 75.5 21 43.8 38.7 88.9 58.9 133.1 27.2 59.6 54.3 119.3 81.5 178.9l5.7 12.6c22.3 49 44.7 98.1 67.2 147.1 12.3 27.1 24.8 54.5 34.3 82.6" style="fill:#8da14c;fill-opacity:1;fill-rule:nonzero;stroke:none" transform="matrix(.02888 0 0 -.02888 -823.95 1054.295)"/><path d="M33382 35049.6c-1.6 0-3.6-.5-5.7-2.1-124-94.7-273.4-176.8-444-244.1l-4.5-1.8c-30.2-11.9-61.4-24.2-86.4-44.2-12.8-10.2-29.5-27.2-36.4-50.3-6.4-21.4-2.5-42.2 1.8-55.8 5.4-16.6 14.8-33.7 28.8-52.3 29.2-38.4 66.8-69.5 109.3-103.3 23.8-19 48.1-36.8 72.2-53 27.2-18.3 55.4-33.9 78.2-24.7 20.1 8.1 32.1 34 42.6 56.9 1.7 3.7 3.4 7.4 5 10.8 11.8 24.7 22.8 50.3 33.4 75.1 8.2 18.9 16.6 38.6 25.4 57.8l35.2 77.4c15.4 33.9 30.8 67.7 46.2 101.5l5.7 12.5c22.4 49.1 44.8 98.2 67.2 147.2 12 26.2 24.4 53.4 33.8 81.1 1.8 5.4-1 8.4-2.8 9.7-.9.6-2.7 1.6-5 1.6m-301.2-665.6c-32.4 0-62.9 20.5-81.1 32.7-24.8 16.7-49.8 35-74.3 54.5-44.2 35.2-83.4 67.6-114.7 109-16.2 21.4-27.2 41.5-33.6 61.5-8.2 25.6-8.9 51.4-2 74.4 9.1 30.8 30.5 52.7 46.8 65.7 28.7 23 62.1 36.2 94.5 48.9l4.5 1.8c167.9 66.2 314.7 146.9 436.4 239.9 14.4 10.9 33.6 11.3 48 1 14.4-10.4 19.9-28.1 14.1-45.1-9.9-29.3-23.2-58.4-34.9-84.1-22.4-49-44.8-98.1-67.2-147.1l-5.7-12.5c-15.4-33.9-30.8-67.7-46.2-101.5l-35.3-77.5c-8.6-18.9-17-38.4-25-57.2-10.8-25-21.9-51-34-76.2-1.6-3.3-3.2-6.8-4.8-10.4-12.3-26.7-27.6-60-59.4-72.8-8.7-3.6-17.5-5-26.1-5" style="fill:#211d1d;fill-opacity:1;fill-rule:nonzero;stroke:none" transform="matrix(.02888 0 0 -.02888 -823.95 1054.295)"/><path d="M33375.1 35103.3c15.9 9.3 10.9 33.5-7.8 37.1-161.4 31.5-323.3 59.4-484.3 92.1-61.9 12.5-123.7 26.6-186.4 34-25.1 2.9-51.1 4.8-74.7-2.9-39.3-12.9-64.9-50.8-73.4-90.6-11.4-53.3 2-110.3 12.6-163.7 8.1-40.8 17.8-81.4 32.2-120.9 11.2-30.7 25.8-78.9 62.5-89.3 29.2-8.4 61 4.2 90.3 19.5 18.6 9.8 36.2 20.7 51.4 28.2 104.9 51.5 212.3 96.8 319.6 143.4 87.6 34.4 177.1 66.6 258 113.1" style="fill:#8da14c;fill-opacity:1;fill-rule:nonzero;stroke:none" transform="matrix(.02888 0 0 -.02888 -823.95 1054.295)"/><path d="M33375.1 35103.3h.1zm-714.3 150.1c-11.7 0-23.3-1.2-34-4.7-36.6-11.9-56.6-48.6-63-79-9.8-45.9.3-96.1 10.1-144.7l2.5-12.6c9.6-48.6 19.4-85.1 31.6-118.6l2.7-7.4c9.8-27.3 23.2-64.8 49.4-72.3 25.1-7.2 55.3 6.1 78.8 18.4 8.1 4.3 16 8.8 23.6 13.1 9.9 5.6 19.3 10.9 28.1 15.2 88.2 43.3 179.5 82.8 267.9 121.1 17.4 7.5 34.9 15.1 52.4 22.7 12.7 5 25 9.7 37.3 14.5 74 28.7 150.6 58.4 219.1 97.8.6.3 2 1.2 1.6 3.6-.1.9-.9 3.8-4.6 4.6-69.5 13.6-140.2 26.7-208.7 39.4-90.4 16.7-184 34.1-275.7 52.7-11.6 2.4-23.2 4.7-34.7 7.1-49.3 10.2-100.1 20.7-150.4 26.7-10.8 1.2-22.4 2.4-34 2.4m14.5-472.6c-7.9 0-15.9 1-23.8 3.3-41.6 11.8-58.9 59.9-70.3 91.8l-2.5 7.2c-12.9 35-23 73-33 123.2l-2.5 12.5c-10.4 51.7-21.1 105.2-10 157.4 10.6 49.6 42.7 88.8 83.9 102.2 27.3 9 56.3 6.6 81.4 3.6 51.6-6.1 103.1-16.7 153-27 11.5-2.4 23.1-4.8 34.6-7.2 91.5-18.5 184.9-35.8 275.2-52.6 68.5-12.7 139.4-25.8 209-39.4 15.3-3 26.9-14.8 29.4-30.1 2.5-14.5-4.1-28.6-16.8-35.9-70.6-40.6-148.3-70.7-223.4-99.8-12.2-4.8-24.5-9.5-36.7-14.3-17-7.4-34.4-15-51.9-22.5-88-38.1-179-77.5-266.5-120.4-8-4-17-9-26.4-14.4-7.9-4.5-16.2-9.1-24.6-13.6-22.3-11.7-50-24-78.1-24" style="fill:#211d1d;fill-opacity:1;fill-rule:nonzero;stroke:none" transform="matrix(.02888 0 0 -.02888 -823.95 1054.295)"/><path d="M33171.7 35923.7c-52 35.5-144.8-4-200.8-33.4-56-29.5-99.5-77.8-141.6-125-49.5-55.6-99.1-111.2-148.7-166.7-32-36-66.5-82.7-50-127.8 13.4-36.7 54.4-53.6 91.2-66.6 129-45.2 592.5-192.5 640-197.5 25.4-2.7 46.3 22 39.7 47-14.9 56.6-44.1 142.4-57.4 181-36 105.2-72.1 210.4-108.2 315.6-18.2 52.9-18.2 141.9-64.2 173.4" style="fill:#8da14c;fill-opacity:1;fill-rule:nonzero;stroke:none" transform="matrix(.02888 0 0 -.02888 -823.95 1054.295)"/><path d="M33119.7 35921.3c-35.6 0-83.9-15.4-141.2-45.5-54.1-28.4-96.3-75.7-137-121.4-49.5-55.6-99.1-111.2-148.6-166.7-28.9-32.5-60.4-74.4-46.9-111.3 10.9-29.8 47.6-44.9 81.2-56.7 134-47 591.7-192 636.3-196.8 6.6-.7 13 2 17.6 7.3 4.7 5.6 6.4 12.6 4.6 19.3-10.4 39.4-29.6 100-57 179.9l-108.3 315.6c-5.9 17.2-9.8 37-14 58-8.2 41.8-17.5 89.1-44 107.2-10.9 7.4-25.3 11.1-42.7 11.1m245.8-731.2q-2.7 0-5.4.3c-50.1 5.3-521.2 155.4-643.7 198.4-40.7 14.3-85.4 33.1-101.1 76.4-19.5 53.1 18.2 105 53.1 144.3 49.6 55.5 99.1 111.1 148.7 166.7 40.7 45.6 86.8 97.4 146.2 128.5 99.4 52.3 172.6 63.2 217.6 32.5 37.5-25.7 48.2-79.9 57.6-127.8 4-19.9 7.7-38.7 12.8-53.8l108.3-315.6c27.7-80.7 47.2-141.9 57.8-182.1 4.5-17 .2-35.3-11.5-49-10.3-12-25.1-18.8-40.4-18.8" style="fill:#211d1d;fill-opacity:1;fill-rule:nonzero;stroke:none" transform="matrix(.02888 0 0 -.02888 -823.95 1054.295)"/><path d="M33544.5 34979.3c-16.3 22.1-38.6 46.5-64.2 38.4-18.9-6-30.5-27.3-39.1-46.9-83.4-191.1-74-395.2-63.7-575.8 2.4-42.6 5.3-86.2 26.4-122.7 20.9-36.1 59.3-58.6 100-65.1 21-3.3 43.9 1.5 65 4.1 12.3 1.4 24.5 3 36.7 4.7 11.5 1.7 23.1 3.4 34.6 5.3 48.2 7.9 96.8 18.2 145.7 30.7 26.6 6.8 53.5 14.4 78.2 27.2 23.4 12 49.4 31 60.8 55 10.6 22.6 12.8 48.4 8.6 72.1-6.2 34.8-24.4 66.1-43.5 96.1-33 51.6-69.6 101.4-106.6 151.7-77.9 106.1-157.6 214.5-238.9 325.2" style="fill:#8da14c;fill-opacity:1;fill-rule:nonzero;stroke:none" transform="matrix(.02888 0 0 -.02888 -823.95 1054.295)"/><path d="M33490.3 35003.6c-1.8 0-3.6-.3-5.3-.8-13.1-4.1-22.6-22.6-29.5-38.3-83.8-192.2-72-400.9-62.4-568.6 2.2-38.4 4.7-81.8 24.3-115.7 17.3-29.9 50.5-51.4 89-57.5 14.2-2.3 30.9 0 47 2.3 4.6.6 9.2 1.2 13.7 1.8 12.1 1.4 24.2 3 36.3 4.7 11.4 1.6 22.9 3.4 34.3 5.2 47.6 7.8 96.1 18.1 144.3 30.4 24.9 6.4 51.2 13.7 75 26 26.2 13.5 45.8 30.9 53.8 47.8 8.6 18.4 11.2 40.6 7.3 62.7-5.8 32.8-23.6 62.6-41.3 90.4-32.8 51.4-70 101.9-106 150.8l-238.9 325.2c-16.7 22.8-30.1 33.6-41.6 33.6m29.1-813.1c-6 0-12 .4-17.9 1.3-47.7 7.6-89.2 34.8-111.2 72.7-23.3 40.4-26 87.8-28.4 129.6-9.8 171-21.9 383.8 65 582.9 9.5 21.7 23.6 47.7 48.7 55.6 39.8 12.6 70.1-28.6 81.5-44v-.1l238.9-325.2c36.3-49.3 73.8-100.2 107.1-152.5 18.6-29.1 39-63.3 45.8-101.8 5-28.3 1.5-57.3-9.9-81.5-14.8-31.4-48.8-52.4-67.7-62.2-26.7-13.8-54.9-21.6-81.5-28.4-49.1-12.6-98.6-23.1-147.1-31-11.6-1.9-23.3-3.7-34.9-5.4-12.4-1.7-24.7-3.3-37-4.8-4.3-.5-8.7-1.1-13.1-1.7-12.5-1.7-25.4-3.5-38.3-3.5" style="fill:#211d1d;fill-opacity:1;fill-rule:nonzero;stroke:none" transform="matrix(.02888 0 0 -.02888 -823.95 1054.295)"/><path d="M34384.8 35108.5c-22.1 26.3-54.8 42-88.5 49.6-79.5 18.1-161.9 13.5-241.8 13.7-29.1.1-58.2-.5-87.1-1.7-51.1-2.2-101.8-6.3-152.2-12.5-48.7-5.9-97.1-13.7-144.9-23.3-31.8-6.4-104.4-10.7-116.1-51.1-12.5-43.2 54-85.3 78.4-109.6 29.7-29.4 61.5-56.9 91.8-86.3 40.4-39.4 77-83.4 113.4-127.8 52.3-63.7 104.8-129.5 169-183.9 31.7-26.9 66.3-54.4 105-70.9 72.2-30.9 131.1-2.9 172.9 60.8 36.9 56.2 59.8 120.3 81.5 183.8 34.7 101.7 96.8 265.7 18.6 359.2" style="fill:#8da14c;fill-opacity:1;fill-rule:nonzero;stroke:none" transform="matrix(.02888 0 0 -.02888 -823.95 1054.295)"/><path d="M34048.9 35155.8c-26.6 0-53.8-.6-80.8-1.7-50.4-2.1-101.2-6.3-150.9-12.4-48-5.8-96.4-13.6-143.7-23.1-5.2-1.1-11.5-2.1-18.3-3.2-29.4-4.6-78.6-12.4-85.6-36.7s29.7-55.2 53.9-75.7c7.7-6.5 14.9-12.6 20.4-18 15.7-15.6 32.4-31 48.6-45.9 14.2-13 28.8-26.5 43-40.3 40-39 75.6-81.5 114.6-129.1l10.9-13.2c47.9-58.5 97.5-118.9 156.1-168.7 29-24.6 63.1-52.2 101-68.4 60.8-26 112.3-7.5 153.3 54.9 35 53.3 56.7 113.2 79.6 180.2l5.3 15.3c33.7 98.1 84.8 246.4 16.2 328.4-22.4 26.8-55.7 38.9-79.7 44.3-63.9 14.5-131.2 14-196.2 13.5-14.1-.1-28.2-.3-42.2-.2zm120-679.8c-20.4 0-41.6 4.6-63.4 14-42 17.9-78.4 47.3-109.1 73.4-60.8 51.6-111.3 113.2-160.2 172.8l-10.8 13.2c-38.4 46.8-73.4 88.6-112.2 126.4-13.9 13.5-28.4 26.9-42.4 39.8-16.4 15.1-33.3 30.7-49.5 46.7-4.5 4.5-11.3 10.2-18.4 16.2-32.5 27.4-76.9 64.8-64.1 109.1 12.7 43.9 72.1 53.3 111.4 59.5 6.3 1 12.1 1.9 16.9 2.9 48.2 9.7 97.4 17.6 146.2 23.5 50.6 6.2 102.2 10.4 153.4 12.6 29.4 1.2 59 1.8 87.8 1.7 13.9 0 27.9.1 41.9.2 66.8.5 136 1 203.5-14.3 28.8-6.5 69-21.3 97.1-54.9h.1c80.2-95.9 25.6-254.5-10.5-359.5l-5.3-15.2c-23.6-69.1-46.1-130.9-83.2-187.4-34.9-53.3-79.5-80.7-129.2-80.7" style="fill:#211d1d;fill-opacity:1;fill-rule:nonzero;stroke:none" transform="matrix(.02888 0 0 -.02888 -823.95 1054.295)"/><path d="M33478.3 34199.3c-86.8-67-200.9-124.7-335.3-175.9-109-41.5-229.9-82.5-363.2-110.8-117.6-24.9-243.3-48.8-375.3-61.6-121.8-11.8-249.4-16.6-380-16.6s-257 18.4-378.8 30.2c-132 12.8-259.6 20.1-377.2 45.1-133.3 28.3-258.7 58.5-367.7 100.1-134.5 51.2-241.3 125.2-328.1 192.3-78.1 60.3-117.9 134.4-136.5 209.9h-5.6c52.5-251.4 146.2-612.2 279.8-798.4 217.8-303.8 736-636.4 1328.2-639.1 574.6-2.6 1222.8 459.3 1365.7 717.9 131 237.1 228.6 672.9 270.4 882.6-12.7-46-14.8-170.6-68.8-243.6-48.7-65.9-85.9-99.8-127.6-132.1" style="fill:#ce5e1d;fill-opacity:1;fill-rule:nonzero;stroke:none" transform="matrix(.02888 0 0 -.02888 -823.95 1054.295)"/><path d="M30487.7 34256.1c55.7-229.9 135.8-484.5 240.1-630 223.1-311.2 745-627.5 1310.9-630.1h4.6c250.7 0 544.9 91.5 829.1 258 238.1 139.5 439.5 315.7 513.1 448.8 80.3 145.4 148 366.1 198.5 566.4-31.9-37-60.4-62-92.6-86.9-84.4-65.3-195.9-123.8-340.8-179-139.3-53.1-252.3-87.5-366.4-111.7-109.2-23.2-239.4-48.6-377.6-62-116.1-11.2-241.1-16.7-382.1-16.7-99.6 0-196.6 10.6-290.3 20.8-30.4 3.3-60.6 6.6-90.5 9.5-28.3 2.8-56.3 5.3-84.1 7.7-103.8 9.2-201.9 17.9-295.6 37.8-117.9 25-254.3 56.6-370.8 101-141.3 53.8-252.5 132.7-333.7 195.4-27.4 21.2-51.4 44.9-71.8 71m1555.9-1303.1h-5.1c-275.2 1.3-556.9 73.6-814.4 209.1-221 116.3-414.6 276.3-531.2 439-133.9 186.7-228 541.6-283.4 806.5l-5.4 25.9h49l4-16.4c20.1-81.9 62.3-146.7 128.7-198 78.8-60.9 186.7-137.4 322.7-189.3 113.8-43.3 248.1-74.4 364.5-99.1 91.1-19.3 187.9-27.9 290.4-37 27.9-2.4 56-4.9 84.4-7.7 30.1-2.9 60.4-6.2 91.1-9.5 92.6-10.2 188.3-20.6 285.6-20.6 139.7 0 263.3 5.4 378 16.5 136 13.1 264.8 38.3 372.8 61.2 111.9 23.8 222.9 57.6 360 109.9 140.9 53.6 248.8 110.2 329.8 172.8 41.8 32.3 77.1 65 123.5 127.8 9.7 13.1 17.6 28.2 24.1 44.4 13.7 59.2 25.5 114.5 35.3 162.9 1.9 11.3 3.7 21.2 6 29.3l41.8-9.9c-1.8-8.8-3.6-17.9-5.5-27.2-1.2-7.3-2.4-15.4-3.6-24.1-6.2-42.5-14-96-32.9-144-52.7-228.7-132.2-515.2-230.7-693.5-138.8-251.1-783-729-1379.5-729" style="fill:#211d1d;fill-opacity:1;fill-rule:nonzero;stroke:none" transform="matrix(.02888 0 0 -.02888 -823.95 1054.295)"/><path d="M32040.4 33984.8c-100.6 0-198.5 10.6-293.1 20.9-30.7 3.3-61.2 6.6-91.4 9.5-28.5 2.7-56.8 5.2-84.8 7.7-104.8 9.2-203.8 17.8-298.4 37.7-119.1 25-256.7 56.6-374.4 101-142.6 53.8-254.9 132.7-336.8 195.4-134.3 102.7-202.4 213.4-202.4 328.9 0 115.2 66.7 222.3 203.8 327.2 72.8 55.7 186.9 136.4 337 193 123.6 46.6 248.7 83.4 371.9 109.2 123.4 26 261.4 39.2 383.2 50.9 128.7 12.3 258.4 18.5 385.4 18.5 41 0 66.1.6 84.5 1 42 1 53.2 1.3 139-7 11.8-1.1 20.5-11.6 19.3-23.4-1.1-11.8-11.5-20.5-23.4-19.3-83.3 7.9-93 7.7-133.9 6.8-18.6-.5-44.1-1-85.5-1-125.7 0-254-6.2-381.3-18.4-120.7-11.6-257.4-24.7-378.4-50.1-121.1-25.5-244.1-61.6-365.7-107.5-144.7-54.6-255.4-132.8-326-186.9-125.8-96.2-186.9-192.1-186.9-293 0-101.4 62.4-200.6 185.5-294.8 79.6-60.9 188.5-137.5 325.8-189.3 115-43.4 250.6-74.5 368.1-99.1 92.1-19.4 189.8-27.9 293.4-37 28.1-2.5 56.5-5 85.1-7.7 30.4-2.9 61-6.2 91.9-9.6 93.5-10.1 190.2-20.6 288.5-20.6 141 0 265.9 5.4 381.7 16.5 137.4 13.2 267.4 38.4 376.5 61.3 112.9 23.7 225 57.6 363.5 109.8 142.3 53.7 251.2 110.3 333.1 172.9 119.3 91.4 179.8 191.5 179.8 297.6 0 11.9 9.7 21.5 21.5 21.5 11.9 0 21.5-9.6 21.5-21.5 0-120.2-66.2-231.8-196.7-331.7-85.2-65.3-197.8-123.8-344-179-140.6-53-254.7-87.5-369.9-111.7-110.2-23.1-241.7-48.6-381.3-62-117.1-11.2-243.3-16.7-385.7-16.7" style="fill:#211d1d;fill-opacity:1;fill-rule:nonzero;stroke:none" transform="matrix(.02888 0 0 -.02888 -823.95 1054.295)"/></g></svg>