<svg xmlns="http://www.w3.org/2000/svg" xml:space="preserve" width="200mm" height="200mm" viewBox="0 0 200 200"><defs><clipPath id="c" clipPathUnits="userSpaceOnUse"><path d="M680 18750h2310v970H680Z"/></clipPath><clipPath id="d" clipPathUnits="userSpaceOnUse"><path d="M1835.82 18750.5c-91.25 0-179.53 13.1-264.65 21.6-92.26 9.1-181.37 14.4-263.59 32.2-93.17 20.2-180.78 41.9-256.92 71.5-93.941 36.7-168.629 89.6-229.289 137.5-85.199 67.4-134.18 141.4-134.18 223s49.918 154.4 135.149 221.7c60.629 48 135.469 99.2 229.42 135.8 76.13 29.7 162.07 57.3 255.23 77.5 82.19 17.9 171.29 26.9 263.52 36.1 34.61 3.4 69.84 6.2 105.58 8.4-17.81-135.7-74.21-266.8-108.55-346.5-18.67-43.3-26.95-63.1-27.85-75.8-1.02-14.2 5.7-29.3 20-44.9 37.97-41.4 135.82-90.6 286.48-92.9 2.27-.1 4.49-.1 6.68-.1 138.36 0 222.38 67 260.47 107.3 17.5 18.6 18.91 49.6 3.16 70.7-49.76 66.7-81.6 201.4-99.53 302.6-4.53 25.5-8.24 51.4-11.17 77.5 32.19-2.4 63.91-5.2 95.12-8.3 92.26-9.1 179.61-25.9 261.44-45.5 177.82-42.5 67.82-14 254.46-74.5 95.82-31.1 172.73-78.3 233.36-126.2 85.23-67.4 131.83-141.3 131.83-222.9s-45.08-157.5-130.31-224.9c-60.63-48-140.31-89.2-234.3-125.8-76.13-29.7-160.62-59-253.79-79.2-82.18-17.9-169.96-35-262.18-44.1-85.12-8.4-174.34-11.8-265.59-11.8"/></clipPath></defs><g style="display:inline"><g clip-path="url(#c)" transform="matrix(.03067 0 0 -.03067 43.74 768.122)"><g clip-path="url(#d)"><path d="M687.191 18750.5h2294.8v965.273h-2294.8z" style="fill:#f3fbfd;fill-opacity:1;fill-rule:nonzero;stroke:none"/></g></g><path d="M1835.82 19700.1c-86.76 0-175.31-4.5-263.28-13.2-83.32-8.2-177.74-17.6-261.17-35.7-83.48-18.1-168.28-43.8-252.15-76.5-99.419-38.8-175.548-94.3-224.138-132.8-85.703-67.7-127.383-135-127.383-205.6 0-70.9 42.531-140.5 126.403-206.9 54.808-43.2 129.73-97.7 224.018-134.4 79.22-30.9 172.78-53 253.83-70.6 63.32-13.8 130.75-19.9 202.15-26.4 19.53-1.7 39.26-3.5 59.1-5.5 21.02-2.1 42.23-4.4 63.64-6.8 64.57-7.3 131.32-14.7 198.98-14.7 97.38 0 183.59 3.8 263.56 11.8 94.76 9.3 184.57 27.3 259.88 43.7 99.72 21.6 186.36 53.1 250.66 78.2 97.89 38.2 172.81 78.3 229.03 122.8 81.28 64.2 122.5 134.5 122.5 208.8 0 73.1-40.55 140.7-124.03 206.7-70.04 55.4-146.37 96.7-226.95 122.8-63.13 20.5-92.77 31-110.47 37.2-27.27 9.6-27.27 9.6-86.09 23.6-14.73 3.4-33.09 7.8-56.33 13.4-92.93 22.2-177.54 36.9-258.71 44.9-71.1 7.1-165.28 15.2-263.05 15.2m0-970.2c-69.96 0-137.85 7.6-203.52 14.9-21.25 2.4-42.3 4.8-63.16 6.8-19.73 2-39.34 3.8-58.75 5.5-72.69 6.6-141.37 12.8-207.15 27.1-82.65 17.9-178.16 40.6-260.04 72.5-99.368 38.7-177.54 95.4-234.571 140.5-94.219 74.5-142.027 155-142.027 239.1 0 84 46.796 161.8 143.007 237.9 50.661 40 130.161 98 234.691 138.8 85.86 33.4 172.77 59.8 258.36 78.4 85.74 18.6 181.4 28.1 265.86 36.4 89.25 8.9 179.21 13.3 267.3 13.3 99.57 0 195.04-8.1 267.11-15.3 83.05-8.2 169.45-23.2 264.18-45.9 23.24-5.5 41.56-9.9 56.25-13.4 59.84-14.2 60.98-14.4 90.27-24.8 17.54-6.1 46.88-16.5 109.49-36.8 85.28-27.6 165.9-71.2 239.77-129.6 92.66-73.3 139.65-153.7 139.65-239 0-87.5-46.49-168.6-138.13-241.1-59.45-47-137.81-89.1-239.57-128.8-97.61-38-176.83-62.7-256.87-80.1-76.49-16.6-167.7-34.8-264.57-44.4-81.29-8.1-168.83-12-267.58-12" style="fill:#211d1d;fill-opacity:1;fill-rule:nonzero;stroke:none" transform="matrix(.03067 0 0 -.03067 43.74 768.122)"/><path d="M2190.59 21835.3c-118.25-35.3-238.75-56.1-356.02-55.5-120.51.6-237.77 16.2-349.61 43.3l11.33-23.6c151.13-150.4 196.33-364.7 197.26-540.9l7.62-1474c.08-17.5-.62-35.1-2.46-52.5-21.48-206.3-136.21-407-138.55-440-2.46-34.8 98.75-113 286.32-115.9 135.79-2.1 217.23 64.1 251.92 100.8 10.94 11.6 11.37 31.3 1.64 44.3-52.23 70-85 207.9-103.32 311.3-12.7 71.6-18.99 144.6-19.22 217.8l-4.34 1394.9c-.93 183.2-7.77 305.8 205.39 566.9z" style="fill:#fff;fill-opacity:1;fill-rule:nonzero;stroke:none" transform="matrix(.03067 0 0 -.03067 43.74 768.122)"/><path d="M1532.38 21791.4c155.98-172.7 181.06-405.8 181.72-532.7l7.62-1474c.12-19.1-.78-37.5-2.58-54.7-15.47-148.4-77.07-291.5-113.87-376.9-11.72-27.3-23.82-55.4-24.61-62.6 1.37-18.1 87.19-91 266.18-93.7 126.64-1.8 202.57 58.2 236.6 94.3 3.94 4.2 4.02 12.7.11 17.9-54.6 73.2-88.35 214.4-107.07 320-12.69 71.8-19.25 146.3-19.53 221.3l-4.41 1409.9c-1.06 171.6-1.84 297.2 190.39 540.5-107.73-28-211.48-41.8-308.44-41.5-99.92.5-201.29 11.3-302.11 32.2m320.47-2635.8c-2.19 0-4.41 0-6.68.1-150.66 2.3-248.51 51.5-286.48 92.9-14.3 15.6-21.02 30.7-20 44.9.9 12.7 9.18 32.5 27.85 75.8 35.86 83.3 95.94 222.8 110.74 365 1.64 15.7 2.42 32.6 2.34 50.2l-7.61 1474c-.67 126.2-26.37 362.5-191.21 526.5l-2.5 2.5-31.6 65.7 42.1-10.2c114.85-27.8 230.86-42.1 344.89-42.7 109.18-.1 226.87 17.9 350 54.7l46.52 13.9-36.72-69.7c-202.65-248.1-201.95-363.8-200.86-538.8l.08-15 4.34-1395c.23-72.7 6.6-144.7 18.9-214.2 17.93-101.2 49.77-235.9 99.53-302.6 15.75-21.1 14.34-52.1-3.16-70.7-38.09-40.3-122.11-107.3-260.47-107.3" style="fill:#211d1d;fill-opacity:1;fill-rule:nonzero;stroke:none" transform="matrix(.03067 0 0 -.03067 43.74 768.122)"/><path d="M3366.09 23379.1c-26.56 75.3-82.46 147.3-167.11 214.8-80.15 64-187.57 122.8-319.25 174.6-100.94 39.7-217.19 74.1-345.55 102.2-99.88 21.9-224.14 49.2-354.14 62.1-96.84 9.7-225.12 20.8-358.71 20.8-118.32 0-239.1-6-359.06-18-113.4-11.4-241.96-24.2-356.92-49.4-114.799-25.2-231.401-60.9-346.561-106.2-139.809-55-246.168-133.4-314.019-187.6-88.399-70.6-126.961-132.6-142.071-201.3-4.301 26.2-6.449 43.2-6.449 51.1 0 98.3 57.539 191.5 175.859 285.1 66.411 52.5 170.43 128.4 306.411 181.5 114.25 44.5 229.88 79.6 343.67 104.3 113.71 24.6 242.22 37.4 355.66 48.6 119.77 11.9 240.35 17.9 358.4 17.9 133.09 0 261.33-11 358.13-20.6 128.74-12.8 253-39.7 352.85-61.4 127.46-27.6 242.73-61.4 342.61-100.3 129.14-50.4 234.03-107.1 311.76-168.5 113.67-89.9 171.29-186.3 171.29-286.6 0-12.6-2.73-35.9-6.8-63.1" style="fill:#f3fbfd;fill-opacity:1;fill-rule:nonzero;stroke:none" transform="matrix(.03067 0 0 -.03067 43.74 768.122)"/><path d="M343.629 23176.2c51.41-253 137.82-589.3 258.992-763.9 209.719-302.2 700.269-609.5 1232.069-612h4.37c235.55 0 511.99 88.9 779.14 250.6 223.83 135.4 413.17 306.6 482.35 435.9 116.25 217.3 186.72 486.5 226.48 684l-3.63 1.4 1.01 2.6 3.17-1.2c1.87 9.1 3.63 18.1 5.31 27l.35 1.4c6.56 24.4 39.65 196.3 39.65 240.2 0 100.3-57.62 196.7-171.29 286.6-77.73 61.4-182.62 118.1-311.76 168.5-99.88 38.9-215.15 72.7-342.61 100.3-99.85 21.7-224.11 48.6-352.85 61.4-96.8 9.6-225.04 20.6-358.13 20.6-118.05 0-238.63-6-358.4-17.9-113.44-11.2-241.95-24-355.66-48.6-113.79-24.7-229.42-59.8-343.67-104.3-135.981-53.1-240-129-306.411-181.5-118.32-93.6-175.859-186.8-175.859-285.1 0-14.9 7.77-63 23.16-143.5l15.75.1v-.2h-15.75c1.641-8.6 3.36-17.5 5.199-26.8l11.172.5.27-5.8-10.313-.5c2.742-14 5.672-28.8 8.75-44.5l3.832-11.4 3.668.6.203-1.1-3.519-.6 9.609-29.8-5.121-.7zh-14.797zm1495.631-1417h-4.77c-545.82 2.6-1049.842 318.7-1265.619 629.7-125.82 181.3-214.262 525.9-266.332 783.2-22.027 109-47.379 238.2-47.379 270.1 0 111.7 62.61 215.4 191.442 317.3 68.519 54.2 175.859 132.5 316.988 187.5 116.25 45.4 233.992 81.1 349.89 106.2 116.01 25.2 245.82 38.1 360.31 49.4 121.09 12 243.05 18.1 362.46 18.1 134.88 0 264.41-11.2 362.19-20.8 131.09-13 256.64-40.2 357.5-62.1 129.57-28.1 246.95-62.5 348.83-102.2 132.93-51.9 241.36-110.6 322.3-174.6 124.02-98.1 186.91-205.3 186.91-318.8 0-48.6-33.32-221.2-40.86-250.1-39.14-202.3-111.83-491.9-236.32-724.7-130.51-243.9-736.45-708.1-1297.54-708.2" style="fill:#211d1d;fill-opacity:1;fill-rule:nonzero;stroke:none" transform="matrix(.03067 0 0 -.03067 43.74 768.122)"/><path d="M3363.55 23275.1c0-110.8-60.62-214-175.31-305.6-81.6-65.1-188.86-121.1-315.27-170.9-102.46-40.3-216.13-80.1-341.49-107.6-110.58-24.2-228.71-47.4-352.81-59.8-114.57-11.5-234.57-16.2-357.34-16.2-122.81 0-241.56 18-356.1 29.4-124.18 12.4-244.1 19.6-354.68 43.8-125.351 27.4-243.249 56.9-345.71 97.2-126.442 49.8-226.949 121.7-308.508 186.8-114.691 91.5-141.723 215.5-141.723 326.4s28.321 186.2 143.012 277.8c81.559 65.1 182.258 134.7 308.711 184.5 102.457 40.3 218.047 77.8 343.438 105.2 110.54 24.2 230.43 36.6 354.57 49 114.53 11.5 234.18 18 356.99 18 122.77 0 242.15-9.2 356.68-20.7 124.14-12.4 241.17-37.5 351.76-61.7 125.39-27.5 239.96-61 342.42-101.3 126.4-49.8 232.38-106.4 313.98-171.5 114.69-91.6 177.38-191.9 177.38-302.8" style="fill:#fdfae9;fill-opacity:1;fill-rule:nonzero;stroke:none" transform="matrix(.03067 0 0 -.03067 43.74 768.122)"/><path d="M1821.33 23912.5c-116.99 0-236.41-6-354.96-17.8-112.31-11.2-239.57-24-352.23-48.6-112.69-24.7-227.191-59.8-340.308-104.4-134.613-53-237.66-128.9-303.402-181.4-113.711-90.8-135.27-162-135.27-261.7 0-136.9 43.82-238.4 133.981-310.4 74.058-59.1 175.468-133.4 303.199-183.7 107.039-42.1 233.25-72.3 342.58-96.2 85.67-18.8 176.68-27.1 273.01-36 26.21-2.4 52.69-4.8 79.34-7.5 28.28-2.8 56.83-6 85.62-9.2 87.03-9.9 177.03-20 268.44-20 131.29 0 247.5 5.2 355.27 16 127.97 12.8 248.99 37.3 350.51 59.5 105.08 23 209.45 55.9 338.32 106.6 132.38 52.2 233.79 107.1 309.96 167.9 111.25 88.7 167.62 186.2 167.62 289.5 0 100.4-57.07 196.8-169.65 286.7-76.99 61.5-180.82 118.1-308.71 168.5-98.87 38.9-213.05 72.7-339.26 100.3-98.83 21.7-221.84 48.6-349.41 61.4-95.9 9.6-222.89 20.5-354.65 20.5m0-1318c-93.71 0-184.88 10.3-273.05 20.2-28.59 3.3-56.99 6.5-85.08 9.3-26.56 2.6-52.93 5.1-79.02 7.4-97.66 9-189.88 17.4-278.05 36.7-110.9 24.3-239.099 55-348.829 98.2-132.852 52.3-237.5 128.9-313.781 189.8-100.59 80.3-149.461 192.3-149.461 342.5 0 109.9 24.652 193.2 150.711 293.8 67.851 54.2 174.21 132.6 314.019 187.6 115.16 45.3 231.762 81 346.561 106.2 114.96 25.2 243.52 38 356.92 49.4 119.96 12 240.74 18 359.06 18 133.59 0 261.87-11.1 358.71-20.8 130-12.9 254.26-40.2 354.14-62.1 128.36-28.1 244.61-62.5 345.55-102.2 131.68-51.8 239.1-110.6 319.25-174.6 122.86-98 185.12-205.3 185.12-318.8 0-116.5-61.56-224.7-183.05-321.6-79.45-63.4-184.29-120.4-320.54-174-131.02-51.6-237.31-85-344.65-108.5-102.62-22.5-225.12-47.3-355.16-60.3-109.18-10.9-226.72-16.2-359.37-16.2" style="fill:#211d1d;fill-opacity:1;fill-rule:nonzero;stroke:none" transform="matrix(.03067 0 0 -.03067 43.74 768.122)"/><path d="M1836.33 21800.3h-7.35c-.5.1-.97.1-1.48.1h-5.62c-.9 0-1.76.1-2.62.1h-.2c-525.74 8.3-1008.751 312.5-1216.439 611.8-97.973 141.1-173.211 388-225.59 611 18.867-24.5 41.02-46.8 66.489-67.2 76.281-60.9 180.929-137.5 313.781-189.8 109.73-43.2 237.929-73.9 348.829-98.2 88.17-19.3 180.39-27.7 278.05-36.7 26.09-2.3 52.46-4.8 79.02-7.4 28.09-2.8 56.49-6 85.08-9.3 88.17-9.9 179.34-20.2 273.05-20.2 132.65 0 250.19 5.3 359.37 16.2 130.04 13 252.54 37.8 355.16 60.3 107.34 23.5 213.63 56.9 344.65 108.5 136.25 53.6 241.09 110.6 320.54 174 39.85 31.8 73.25 64.8 100.12 98.9-42.07-178.6-106.29-389.2-200.62-565.6-69.18-129.3-258.52-300.5-482.35-435.9-188.67-114.2-381.99-192.1-562.26-228-76.17-15.1-149.61-22.6-219.61-22.6" style="fill:#e1e9d2;fill-opacity:1;fill-rule:nonzero;stroke:none" transform="matrix(.03067 0 0 -.03067 43.74 768.122)"/><path d="M1839.06 21800.3h-2.73c70 0 143.44 7.5 219.61 22.6-74.96-14.9-147.7-22.6-216.88-22.6m-7.22 0h-1.33zm-2.86 0c-.5.1-.97.1-1.48.1.51 0 .98 0 1.48-.1m-2.96.1h-1.29zm-3.13 0h-1.01zm-3.63.1h-.2z" style="fill:#b4bba4;fill-opacity:1;fill-rule:nonzero;stroke:none" transform="matrix(.03067 0 0 -.03067 43.74 768.122)"/><path d="M1839.18 21779.8h-4.61c-556.76 2.6-1044.019 325.7-1248.832 620.8-108.789 156.8-189.488 441-241.25 672.9 9.492-17.6 20.313-34.4 32.543-50.2 52.379-223 127.617-469.9 225.59-611 207.688-299.3 690.699-603.5 1216.439-611.8h.2c.86 0 1.72-.1 2.62-.1h5.62c.51 0 .98 0 1.48-.1h10.08c69.18 0 141.92 7.7 216.88 22.6 180.27 35.9 373.59 113.8 562.26 228 223.83 135.4 413.17 306.6 482.35 435.9 94.33 176.4 158.55 387 200.62 565.6 11.72 14.8 22.19 29.9 31.41 45.1-42.15-190.9-109.69-425.5-213.91-620.4-133.98-250.5-740.39-697.3-1279.49-697.3" style="fill:#81816f;fill-opacity:1;fill-rule:nonzero;stroke:none" transform="matrix(.03067 0 0 -.03067 43.74 768.122)"/><path d="M1821.33 22594.5c-93.71 0-184.88 10.3-273.05 20.2-28.59 3.3-56.99 6.5-85.08 9.3-26.56 2.6-52.93 5.1-79.02 7.4-97.66 9-189.88 17.4-278.05 36.7-110.9 24.3-239.099 55-348.829 98.2-132.852 52.3-237.5 128.9-313.781 189.8-25.469 20.4-47.622 42.7-66.489 67.2-12.23 15.8-23.051 32.6-32.543 50.2-7.968 35.7-15.226 70.1-21.789 102.6h5.313c17.457-73.3 54.84-145.3 128.32-203.9 81.559-65.1 182.066-137 308.508-186.8 102.461-40.3 220.359-69.8 345.71-97.2 110.58-24.2 230.5-31.4 354.68-43.8 114.54-11.4 233.29-29.3 356.1-29.3 122.77 0 242.77 4.6 357.34 16.1 124.1 12.4 242.23 35.6 352.81 59.8 125.36 27.5 239.03 67.3 341.49 107.6 126.41 49.8 233.67 105.8 315.27 170.9 87.15 69.6 143.01 145.9 164.85 227.2-6.06-31.3-12.86-64.5-20.51-99.2-9.22-15.2-19.69-30.3-31.41-45.1-26.87-34.1-60.27-67.1-100.12-98.9-79.45-63.4-184.29-120.4-320.54-174-131.02-51.6-237.31-85-344.65-108.5-102.62-22.5-225.12-47.3-355.16-60.3-109.18-10.9-226.72-16.2-359.37-16.2" style="fill:#81816f;fill-opacity:1;fill-rule:nonzero;stroke:none" transform="matrix(.03067 0 0 -.03067 43.74 768.122)"/><path d="M373.98 23030.1c52.469-225 128.36-475.8 227.5-618.6 209.93-302.5 700.94-610.1 1233.21-612.6h4.37c235.78 0 512.5 88.9 779.89 250.8 224.02 135.6 413.55 306.9 482.85 436.4 95.58 178.8 160.23 392.5 202.34 572.7-27.58-36.1-62.26-70.9-103.98-104.2-79.3-63.4-184.07-120.2-320.2-173.8-130.9-51.5-237.11-85-344.37-108.5-102.62-22.4-225-47.2-355.04-60.2-109.07-10.9-226.57-16.2-359.22-16.2-93.67 0-184.81 10.3-272.93 20.2-28.63 3.3-56.95 6.5-85.08 9.3-26.56 2.6-52.89 5-79.02 7.4-97.58 9-189.77 17.4-277.85 36.7-110.899 24.3-239.071 55-348.641 98.1-132.649 52.2-237.188 128.8-313.43 189.6-27.109 21.7-50.629 46-70.399 72.9m1465.28-1269.5h-4.77c-545.35 2.6-1048.869 318.4-1264.451 629.1-125.699 181.1-214.098 525.5-266.09 782.6l-4.648 23h43.789l3.512-14.7c19.058-80.1 58.867-143.3 121.636-193.5 74.141-59.2 175.672-133.5 303.602-183.9 107.07-42.2 233.36-72.4 342.81-96.3 85.74-18.8 176.76-27.1 273.16-36 26.21-2.4 52.66-4.8 79.34-7.5 28.24-2.8 56.76-6 85.55-9.2 87.07-9.9 177.1-20 268.63-20 131.37 0 247.65 5.2 355.43 16 128.04 12.8 249.1 37.3 350.62 59.5 105.2 23.1 209.61 56 338.6 106.7 132.5 52.2 234.02 107.2 310.31 168.1 84.45 67.4 137.69 140.4 158.32 217.1l37.27-8.6c-39.07-202.1-111.8-492-236.33-724.9-130.35-243.7-735.71-707.4-1296.29-707.5" style="fill:#211d1d;fill-opacity:1;fill-rule:nonzero;stroke:none" transform="matrix(.03067 0 0 -.03067 43.74 768.122)"/><path d="M1836.25 22761.5c-94.57 0-186.6 10.3-275.59 20.3-28.9 3.2-57.57 6.4-85.93 9.2-26.84 2.7-53.44 5.1-79.81 7.5-98.55 8.9-191.68 17.3-280.66 36.6-111.99 24.3-241.408 55-352.151 98.2-134.097 52.3-239.769 128.9-316.8 189.8-45.348 35.9-82.688 72.8-111.911 110.5l9.532-53.9c1.949-11.2-5.508-21.8-16.68-23.8-11.211-1.9-21.84 5.5-23.789 16.6l-30.039 170.2c-11.481 32.7-17.262 65.8-17.262 99.5 0 10.6 8.16 19.5 18.75 20.4 10.578 1 20.149-6.4 22.031-16.9l16.289-92.2c24.61-67.8 77.649-134.2 158.551-198.2 74.809-59.1 177.231-133.4 306.25-183.7 108.09-42.2 235.549-72.4 345.939-96.3 86.52-18.8 178.4-27.1 275.66-35.9 26.49-2.4 53.21-4.8 80.12-7.5 28.55-2.8 57.38-6.1 86.48-9.3 87.86-9.8 178.75-20 271.02-20 132.58 0 249.92 5.3 358.79 16 129.18 12.8 251.41 37.3 353.91 59.5 106.17 23.1 211.52 56 341.67 106.7 133.72 52.1 236.1 107 313.05 167.9 112.31 88.7 169.22 186.1 169.22 289.5 0 100.3-57.62 196.7-171.29 286.6-77.73 61.4-182.62 118.1-311.76 168.5-99.88 38.9-215.11 72.7-342.61 100.3-99.77 21.7-223.99 48.6-352.85 61.4-96.76 9.6-224.97 20.6-358.13 20.6-118.09 0-238.67-6-358.4-17.9-11.21-1.1-21.33 7.1-22.46 18.4s7.11 21.4 18.44 22.5c121.05 12 243.01 18.1 362.42 18.1 134.96 0 264.45-11.1 362.19-20.8 131.21-13 256.68-40.2 357.5-62.1 129.61-28.1 246.95-62.5 348.83-102.2 132.93-51.9 241.36-110.6 322.3-174.6 124.02-98.1 186.91-205.3 186.91-318.8 0-116.6-62.18-224.8-184.84-321.8-80.19-63.4-186.02-120.3-323.59-173.9-132.23-51.5-239.53-85-347.89-108.5-103.68-22.5-227.31-47.3-358.56-60.3-110.23-10.9-228.94-16.2-362.85-16.2" style="fill:#211d1d;fill-opacity:1;fill-rule:nonzero;stroke:none" transform="matrix(.03067 0 0 -.03067 43.74 768.122)"/><path d="m1764.14 23403.4 1232.74 616.5 46.01-35.6-1277.27-637.8z" style="fill:#e6f6f4;fill-opacity:1;fill-rule:nonzero;stroke:none" transform="matrix(.03067 0 0 -.03067 43.74 768.122)"/><path d="m1783.05 23392.1.39-16 1224.68 611.6-13.35 10.3zm-35.2-75.3-2.58 98 1253.71 626.9 78.68-60.8z" style="fill:#211d1d;fill-opacity:1;fill-rule:nonzero;stroke:none" transform="matrix(.03067 0 0 -.03067 43.74 768.122)"/><path d="M2944.8 23820.7c-81.68 7.1-142.38 81.2-135.54 165.7 6.83 84.4 78.63 147.1 160.35 140 81.72-7 142.38-81.2 135.55-165.6-6.84-84.4-78.64-147.2-160.36-140.1" style="fill:#e6f6f4;fill-opacity:1;fill-rule:nonzero;stroke:none" transform="matrix(.03067 0 0 -.03067 43.74 768.122)"/><path d="M2957.07 24108.4c-29.8 0-58.55-10.6-81.87-30.3-27.62-23.3-44.46-56.4-47.43-93.2-6.01-74.2 47.23-139.5 118.68-145.7 33.63-2.9 66.6 7.7 92.77 29.8 27.62 23.4 44.45 56.5 47.42 93.3 6.02 74.1-47.23 139.4-118.63 145.6-3.67.3-7.31.5-10.94.5m.35-306.8c-4.69 0-9.45.2-14.22.6-91.72 7.9-160.11 91.2-152.46 185.7 3.79 46.7 25.28 88.8 60.47 118.6 33.79 28.5 76.37 42.2 120 38.4 91.72-7.9 160.12-91.2 152.46-185.6-3.79-46.8-25.23-88.9-60.47-118.6-30.08-25.5-67.18-39.1-105.78-39.1" style="fill:#211d1d;fill-opacity:1;fill-rule:nonzero;stroke:none" transform="matrix(.03067 0 0 -.03067 43.74 768.122)"/><path d="M1910.23 23815.2c-54.84 5.9-155.31 6.9-218.35-88.7-63.09-95.6-163.95-275.7 86.4-447.1 105.2-72.1 229.02-67.6 304.45 21.4 100.39 118.4 136.65 218.9 62.43 333.4-88.32 136.3-180.63 175-234.93 181" style="fill:#7c161a;fill-opacity:1;fill-rule:nonzero;stroke:none" transform="matrix(.03067 0 0 -.03067 43.74 768.122)"/><path d="M1871.29 23797.1c-73.01 0-126.37-26.9-162.54-81.7-76.99-116.7-137.34-269.8 80.98-419.3 99.29-68 210.89-60.9 277.57 17.8 106.61 125.7 123.68 212.4 60.86 309.3-93.04 143.6-184.92 168-220.11 171.8-12.78 1.4-25.04 2.1-36.76 2.1m57.42-588.4c-53.01 0-109.02 17.8-161.87 54-279.14 191.1-143.09 397.3-91.88 475 50.47 76.4 130.31 109.3 237.46 97.6 40.94-4.5 147.23-31.9 249.73-190.1 91.33-140.9 18.9-259.8-63.99-357.5-44.41-52.4-104.68-79-169.45-79" style="fill:#211d1d;fill-opacity:1;fill-rule:nonzero;stroke:none" transform="matrix(.03067 0 0 -.03067 43.74 768.122)"/><path d="M2064.77 23635.7s-9.97-82.1-86.72-57c-65.32 21.4-49.96 74.9-49.96 74.9z" style="fill:#7c161a;fill-opacity:1;fill-rule:nonzero;stroke:none" transform="matrix(.03067 0 0 -.03067 43.74 768.122)"/><path d="M2005.31 23557.7c-10.08 0-20.86 1.9-32.3 5.6-63.4 20.8-67.27 71-60.47 94.7 2.46 8.6 11.44 13.6 20.04 11.1 8.59-2.4 13.55-11.4 11.09-20-1.68-6.4-7.89-39.5 39.42-55 17.42-5.7 31.6-5.2 42.11 1.4 19.41 12.3 23.47 41.9 23.51 42.2 1.13 8.9 9.26 15.2 18.09 14.1 8.82-1.2 15.11-9.2 14.06-18-.24-1.9-5.82-45-38.16-65.5-11.06-7.1-23.56-10.6-37.39-10.6" style="fill:#211d1d;fill-opacity:1;fill-rule:nonzero;stroke:none" transform="matrix(.03067 0 0 -.03067 43.74 768.122)"/><path d="M1993.05 23609.3h-.86c-11.17.5-19.85 9.9-19.38 21.1.74 16.8 21.29 415.5 355.94 605.4 9.73 5.5 22.07 2.1 27.58-7.7 5.51-9.7 2.11-22-7.62-27.5-314.8-178.6-335.27-568-335.47-572-.47-10.8-9.41-19.3-20.19-19.3" style="fill:#211d1d;fill-opacity:1;fill-rule:nonzero;stroke:none" transform="matrix(.03067 0 0 -.03067 43.74 768.122)"/><path d="M1266.91 23482.2c-36.95-42.3-96.83-125.6-59.18-234.6 37.66-108.9 119.26-299.2 400.75-191 118.32 45.5 187.69 151.5 162.5 266.9-33.56 153.5-90.94 243-224.18 248.4-158.64 6.4-243.28-47.9-279.89-89.7" style="fill:#7c161a;fill-opacity:1;fill-rule:nonzero;stroke:none" transform="matrix(.03067 0 0 -.03067 43.74 768.122)"/><path d="M1266.91 23482.2h.12zm254.26 70c-149.41 0-216.48-57.6-239.02-83.3v-.1c-62.42-71.4-80.51-141.6-55.27-214.6 25.62-74.1 62.3-154.8 140.03-190.9 60.79-28.3 139.61-24.2 234.3 12.2 112.15 43.1 172.42 141 150 243.7-35.59 162.7-93.12 227.9-205.23 232.5-8.52.3-16.8.5-24.81.5m-64.53-547.9c-39.18 0-74.84 7.4-106.8 22.3-91.99 42.8-134.49 137.1-161.25 214.4-29.96 86.7-8.75 172.3 63.09 254.5 27.58 31.5 111.56 104.2 295.94 96.6 164.8-6.7 215.39-137.4 243.12-264.3 26.88-123-43.47-239.5-175-290.1-57.97-22.3-111.17-33.4-159.1-33.4" style="fill:#211d1d;fill-opacity:1;fill-rule:nonzero;stroke:none" transform="matrix(.03067 0 0 -.03067 43.74 768.122)"/><path d="M1498.28 23505.6s58.4-56.7-6.4-106c-55.16-42-87.97 2.4-87.97 2.4z" style="fill:#7c161a;fill-opacity:1;fill-rule:nonzero;stroke:none" transform="matrix(.03067 0 0 -.03067 43.74 768.122)"/><path d="M1446.09 23365.4c-3.28-.1-6.56.2-9.8.6-28.2 4.1-43.75 24.1-45.43 26.3-5.31 7.2-3.79 17.4 3.4 22.7s17.3 3.8 22.65-3.4c3.87-5 25.75-29.1 65.16.9 15.12 11.5 23.24 24.1 24.1 37.4 1.53 23.4-18.98 43.9-19.22 44.2-6.33 6.2-6.44 16.5-.19 22.8 6.21 6.4 16.4 6.6 22.81.3 1.29-1.2 31.25-30.8 28.95-69.1-1.41-23.2-13.79-43.8-36.84-61.4-18.71-14.2-37.34-21.3-55.59-21.3" style="fill:#211d1d;fill-opacity:1;fill-rule:nonzero;stroke:none" transform="matrix(.03067 0 0 -.03067 43.74 768.122)"/><path d="M1460.94 23421.8c-4.65 0-9.34 1.6-13.13 4.8-10.47 9-256.83 222.5-268.98 561.1-.39 11.2 8.32 20.6 19.49 21 11.13.4 20.55-8.4 20.94-19.5 11.48-320.4 252.38-529.7 254.8-531.7 8.52-7.3 9.49-20.1 2.27-28.6-4.03-4.7-9.69-7.1-15.39-7.1" style="fill:#211d1d;fill-opacity:1;fill-rule:nonzero;stroke:none" transform="matrix(.03067 0 0 -.03067 43.74 768.122)"/><path d="M1336.68 23203.3c10.86 5.8 24.06 5.2 33.94-2.3 12.15-9.1 24.22-24.1 14.73-44.6-16.64-35.8-735.94-419.6-744.959-393-7.539 22.1 647.889 414.1 696.289 439.9" style="fill:#e6f6f4;fill-opacity:1;fill-rule:nonzero;stroke:none" transform="matrix(.03067 0 0 -.03067 43.74 768.122)"/><path d="M1345.43 23186.9c-44.3-23.6-398.442-236.2-581.45-355.1 199.731 96.6 573.36 299.2 605.16 333.8 1.72 4.2 3.09 11-9.69 20.6-3.9 3-9.29 3.2-14.02.7m-702.461-443.4h-.899c-10.941.6-17.109 7.6-19.261 13.9-6.399 18.8-9.61 28.3 335.043 240.4 169.178 104.1 346.058 209.1 370.078 221.9 17.34 9.3 38.48 7.8 53.87-3.8 24.33-18.3 31.75-42.8 20.43-67.3-13.01-27.9-235.55-149.7-367.07-219.8-105-55.9-352.109-185.3-392.191-185.3" style="fill:#211d1d;fill-opacity:1;fill-rule:nonzero;stroke:none" transform="matrix(.03067 0 0 -.03067 43.74 768.122)"/></g></svg>