<svg xmlns="http://www.w3.org/2000/svg" width="200mm" height="200mm" viewBox="0 0 200 200"><g style="display:inline"><path d="M35633.1 2667c-215.8-317.2 286.6-712.9 600.5-926.8 449.3-306.2 981-467.3 1516.2-534.9 535.3-67.6 1077.2-45.6 1615.3-10.7 924.1 59.8 1869.9 164 2698.1 589.2 126.8 65.1 253.1 140 343.3 252.3s138.7 269.8 91.2 407c-42.1 122-152.7 208.4-271.6 251.1-118.9 42.8-247 48.1-372.9 52.8-1968.7 73.4-3974 417.4-5909 37.9-81.5-16-263.6-48.1-311.1-117.9" style="fill:#bae7e0;fill-opacity:1;fill-rule:nonzero;stroke:none" transform="matrix(.01823 0 0 -.01823 -611.663 148)"/><path d="M35633.1 2667h.1zm31.6-21.5c-181.1-266.2 221.1-622.1 590.4-873.8 405.3-276.2 909.8-454 1499.5-528.5 553.8-69.9 1120.5-42.1 1608.1-10.5 854.4 55.3 1836.8 150.6 2683 585.1 120.6 61.9 244.2 134.1 331 242.2 72.1 89.7 132.2 234.1 85 370.6-34.3 99-127.2 184.1-248.5 227.7-115.2 41.4-240.4 46.1-361.5 50.6-535.4 19.9-1082.5 60.6-1611.5 99.8-1418 105.3-2884.3 214.2-4288.7-61.3l-13.1-2.5c-71.1-13.8-237.5-46.1-273.7-99.4m2851.8-1522.3c-253.5 0-513.6 11.7-771.4 44.3-601.9 75.9-1117.6 258-1533 541.1-228.6 155.8-394.3 297.1-506.7 431.8-174.2 208.9-209.2 393.3-103.9 548 49.8 73.2 192.5 106.2 322.3 131.4l13 2.6c1414.5 277.4 2886 168.1 4309 62.5 528.4-39.2 1074.7-79.8 1608.8-99.7 121-4.5 258.1-9.6 384.4-55 145-52.1 252.5-152.2 294.8-274.6 48.1-138.8 10.7-308.7-97.5-443.4-95.8-119.3-227.6-196.6-355.7-262.3-859.2-441.2-1850.9-537.7-2713-593.5-265.2-17.1-553.6-33.2-851.1-33.2" style="fill:#211d1d;fill-opacity:1;fill-rule:nonzero;stroke:none" transform="matrix(.01823 0 0 -.01823 -611.663 148)"/><path d="M35697.1 2223.4c573.9-588.2 1823-830.3 2920.6-799.6 1147 32.2 2250.1 167.2 3280.3 491.9 147.4 46.4 296.8 98.4 417.7 194.7 121 96.3 209.9 245.9 194.7 399.7-28.9 291.4-374.5 421.8-661.6 479.5-1747.9 351.3-3561.1 375.3-5317.7 70.3-365.8-63.5-895.8-169.7-911-540.6-3.2-76.4 23.6-241.2 77-295.9" style="fill:#f1faf9;fill-opacity:1;fill-rule:nonzero;stroke:none" transform="matrix(.01823 0 0 -.01823 -611.663 148)"/><path d="M39003.8 3235.6c-823.2 0-1646.8-71.1-2466.2-213.3-302.2-52.5-864.8-150.1-879.4-504.6-3.1-75.7 25.3-225.7 66.2-267.6 572.8-587.1 1782.4-790.5 2717.5-790.5 59.4 0 117.7.8 174.7 2.4 1266.6 35.5 2336.2 195.8 3269.9 490.1 141.6 44.6 289.6 95.9 405.5 188.2 123.9 98.6 193 238.9 180.4 366-26.7 269.1-357.9 391-631.1 445.9-940 188.9-1888.4 283.4-2837.5 283.4m-569.6-1852.5c-515.6 0-1035.6 59.7-1482.4 171.4-566.9 141.6-1010.3 363.7-1282.1 642.2-64.6 66.3-91.1 243.5-87.8 324.2 17.1 416 619.2 520.5 942.7 576.6 876.5 152.2 1774.5 223.3 2669.1 211.5s1790.5-106.7 2662.7-281.9c427.9-86 667.2-263.5 692-513.3 15.1-152.6-64.9-318.7-208.9-433.3-126.1-100.4-281.6-154.5-430.1-201.3-940.5-296.4-2016.9-457.8-3290.7-493.5-61.3-1.7-122.9-2.6-184.5-2.6" style="fill:#211d1d;fill-opacity:1;fill-rule:nonzero;stroke:none" transform="matrix(.01823 0 0 -.01823 -611.663 148)"/><path d="M36745 3427.3c-197.6-114-375.8-283-494.4-496.6-118.5-213.7-153.1-506-30.3-716.5 112.5-192.8 325.1-273.8 526-306.1 400.2-64.4 817.2 15.9 1176.8 226.6 194.9 114.2 384.6 284.6 440.4 526.5 82.9 359.5-177 728-485 848.1-307.9 120.1-652.3 96.2-965.4-5.1-43.6-14.1-127.7-53.6-168.1-76.9" style="fill:#acb26c;fill-opacity:1;fill-rule:nonzero;stroke:none" transform="matrix(.01823 0 0 -.01823 -611.663 148)"/><path d="M36745 3427.3h.1zm684.9 124.9c-191.2 0-367.8-39.9-505.1-84.3-40.4-13.1-122.1-51.5-160.7-73.7-204.6-118-370.6-284.7-480.1-482.1-103.5-186.5-153.2-468.7-30.7-678.6 88.6-151.9 256.5-248.7 499.1-287.7 391-62.9 799.9 15.9 1151.4 221.8 235.3 137.9 377.4 306.9 422.5 502.2 79 342.3-174.9 692.1-461.7 803.9-146.2 57-294.4 78.5-434.7 78.5m-412.3-1703.9c-92.8 0-185.5 7.3-277.3 22.1-266.3 42.8-452.3 152-553 324.6-137.6 235.8-84.1 548.7 29.9 754.2 116.3 209.5 292.2 386.2 508.8 511.2 42.8 24.7 128.7 65.1 175.3 80.1 249.9 80.9 624.6 147.3 991.1 4.4 161.6-63.1 310.2-190.6 407.8-350 105.7-172.6 141.4-365.2 100.5-542.3-50-216.6-204.2-401.9-458.3-550.8-284.3-166.7-604.8-253.5-924.8-253.5" style="fill:#211d1d;fill-opacity:1;fill-rule:nonzero;stroke:none" transform="matrix(.01823 0 0 -.01823 -611.663 148)"/><path d="M39659.5 4106c214.2-1.7 442.2-59.7 646.9-184.3 204.8-124.7 385.3-356.8 399.9-595.1 13.4-218.4-110.1-389.7-250-514-278.6-247.6-646.5-380.3-1037.9-374.2-212.1 3.3-449.7 56.8-620.3 235.8-253.6 265.9-244.1 704.8-66.7 955.4s458.8 396.3 756.5 460.9c41.4 9 127.8 15.9 171.6 15.5" style="fill:#acb26c;fill-opacity:1;fill-rule:nonzero;stroke:none" transform="matrix(.01823 0 0 -.01823 -611.663 148)"/><path d="M39656 4067.9c-42.5 0-122.8-6.6-160-14.7-225.3-48.9-535.5-166-733.5-445.6-164.9-233.1-178.9-653.1 63.2-907.1 137.9-144.6 337.6-220 593.3-223.9 8.3-.2 16.6-.2 24.9-.2 372.1-.1 721.8 129 987.1 364.7 167.9 149.2 247.7 311.8 237.2 483.2-14.7 238.5-202.3 455.5-381.6 564.8-189.2 115.1-406.1 176.9-627.4 178.8zM39443.9 2400c-8.7 0-17.4.1-26.1.2-277 4.3-494.8 87.6-647.4 247.6-124.4 130.5-197.4 311-205.4 508.3-7.6 182.9 41.7 363.5 135.2 495.6 212.1 299.7 541 424.3 779.6 476.2 44.6 9.6 133.6 16.8 180 16.3 235.1-1.9 465.6-67.6 666.5-189.9 196.3-119.6 401.8-359.3 418.1-625.3 12.1-196-76.3-379.4-262.7-545-279.3-248.2-647-384-1037.8-384" style="fill:#211d1d;fill-opacity:1;fill-rule:nonzero;stroke:none" transform="matrix(.01823 0 0 -.01823 -611.663 148)"/><path d="M36358.5 2679.7c-31-131.1.9-276.1 81.9-383.7 104.7-139.2 297.7-204 466-159.1 168.2 44.9 302.6 195.2 331.2 367s-48.4 356.2-188.9 459c-140.6 102.9-319.3 137.5-467.8 46.6-121.7-74.5-198.9-230.4-222.4-329.8" style="fill:#c03222;fill-opacity:1;fill-rule:nonzero;stroke:none" transform="matrix(.01823 0 0 -.01823 -611.663 148)"/><path d="M36358.5 2679.7h.1zm411.1 344.3c-59.8 0-117.3-15.6-168.8-47.1-113.9-69.8-185.1-221.2-205.2-306-27.9-118.3.9-253.1 75.3-352 95.4-126.8 270.4-186.5 425.6-145.1 152.4 40.6 277.2 179 303.4 336.4 26.2 157.1-43.6 326.7-173.8 421.9-83.2 60.9-172.2 91.9-256.5 91.9m27.3-939.4c-149.1 0-297.4 69.4-387.1 188.4-89 118.3-122 273.6-88.5 415.5 27.6 116.5 114.3 276.8 239.7 353.6 149.1 91.3 344.7 72.8 510.2-48.4 152.9-111.8 234.9-311.2 204.1-496-31.5-189-175.8-348.8-359.1-397.7-39.1-10.4-79.2-15.4-119.3-15.4" style="fill:#211d1d;fill-opacity:1;fill-rule:nonzero;stroke:none" transform="matrix(.01823 0 0 -.01823 -611.663 148)"/><path d="M39799.6 2841.2c-74-247.2 31.4-523.2 222.7-708.5 191.4-185.2 468.1-284.7 744.4-295.5 291.8-11.3 595.8 78.6 795 276.6 199.3 198 272.7 510.1 141.1 751.9-81.5 149.7-160.8 277.6-307.8 375.3-140.9 93.5-295.5 166.9-464.1 203.9s-653.3 15.6-780.1-93.9c-145.8-125.9-294.6-320.4-351.2-509.8" style="fill:#acb26c;fill-opacity:1;fill-rule:nonzero;stroke:none" transform="matrix(.01823 0 0 -.01823 -611.663 148)"/><path d="M39799.6 2841.2h.1zm916.6 582.4c-201.8 0-459.5-31.6-540.5-101.5-125.4-108.3-280.5-294.4-339.5-491.9-65.5-218.6 18-481.6 212.7-670 175.7-170.1 437.9-273.9 719.3-284.8 300.8-11.7 587.5 87.6 766.6 265.5 195.2 193.9 251.7 491.1 134.4 706.6-77.2 141.8-152.7 266.9-295.4 361.7-148.2 98.4-300 165.2-451.1 198.4-47.8 10.5-122.3 16-206.5 16m99.5-1625.5c-16.8 0-33.6.3-50.5 1-299.9 11.6-580.4 123.2-769.4 306.2-214.9 208-306.3 501.2-232.8 746.8 63.8 213.2 229.2 412.5 362.8 527.8 147.1 127.1 652.7 137.6 813.3 102.3 160.4-35.3 320.9-105.7 477-209.4 157-104.3 241.1-243.4 320.2-388.8 67.7-124.3 87.5-268.9 57.5-418.2-28.5-141.3-101.3-275.9-205.1-379.1-183.7-182.5-469.8-288.6-773-288.6" style="fill:#211d1d;fill-opacity:1;fill-rule:nonzero;stroke:none" transform="matrix(.01823 0 0 -.01823 -611.663 148)"/><path d="M40027.3 2581.1c121.1-298.6 459.5-329.7 640.7-243.9s280.8 311.3 228 504.7c-52.8 193.3-175.6 297-397.7 330.8-70 10.6-237.2 33.8-364-107-105.2-117-166.2-338.8-107-484.6" style="fill:#c03222;fill-opacity:1;fill-rule:nonzero;stroke:none" transform="matrix(.01823 0 0 -.01823 -611.663 148)"/><path d="M40062.6 2595.5c55.7-137.2 156.4-200.7 231-229.8 115.2-44.8 255.7-42.5 358.1 6 162.6 77.1 255.7 283.5 207.4 460.1-48.7 178.5-161.7 272-366.5 303.1-64.3 9.8-215.1 32.7-329.9-94.8-91.4-101.5-155-309.1-100.1-444.6m406.2-337.9c-69.2 0-139.5 12.3-202.9 37-127.1 49.5-221.9 143.6-274 272.2-68.7 169.3 5.7 404.1 114 524.4 142.3 158.1 328.2 129.9 398.2 119.2 235.5-35.8 371.7-149.7 428.7-358.5 58.5-214.2-50.6-455.5-248.4-549.2-63.4-30-138.8-45.1-215.6-45.1" style="fill:#211d1d;fill-opacity:1;fill-rule:nonzero;stroke:none" transform="matrix(.01823 0 0 -.01823 -611.663 148)"/><path d="M39533.2 3675.3c35.5-129.8-71.6-216.5-228-259.3-156.5-42.7-345.6-82.9-381.1 46.9s82.3 307.8 238.7 350.6c156.5 42.7 334.9-8.4 370.4-138.2" style="fill:#c9cc9d;fill-opacity:1;fill-rule:nonzero;stroke:none" transform="matrix(.01823 0 0 -.01823 -611.663 148)"/><path d="M38918.1 3152.3c-8.7-5.8 4.1-22.2 14.5-21.7 10.5.4 21.7 18 12.5 22.9-6 3.2-21.4 2.5-27-1.2" style="fill:#fff;fill-opacity:1;fill-rule:nonzero;stroke:none" transform="matrix(.01823 0 0 -.01823 -611.663 148)"/><path d="M38932.3 3168.7h-1.5c-6.2-.3-17-2.6-19.9-15-2.9-13 3.8-27.2 16-33.8 2.7-1.4 5.1-2.1 6.3-2.4 1.3.4 3.5 1.3 6.1 3l-21.2 31.8 21.2-31.8c11.6 7.7 16.9 22.5 12.8 35.1-3.7 11.2-13.4 13.1-19.8 13.1m-.2-76.3c-25.8 0-46.2 19.9-52.6 39.3-6.5 20 .4 41 17.4 52.3 17.5 11.7 47.8 13.1 66.3 3.1 18-9.7 26.9-29.9 22.2-50.4s-24.1-43-51-44.3z" style="fill:#211d1d;fill-opacity:1;fill-rule:nonzero;stroke:none" transform="matrix(.01823 0 0 -.01823 -611.663 148)"/><path d="M40558.2 3262c42.9 5.6 83.6-2.4 124-11.8 40.6-9.1 79.7-24.3 118-41.8 76.3-35.6 146.2-89.3 201.8-157.7 55.1-68.8 91.8-153.6 107.1-241 3-21.9 6.3-43.9 8.8-65.9l.2-65.9c1.1-22-2.6-44.1-5.5-66.2-3.3-22-5-44.3-12.3-65.7-19.6-87.8-64.9-170.3-124.5-237.9-60.1-67.8-135.7-120.2-217.7-154.2-164.6-67.7-353.4-60-507.6 13.6l3.2-1.1c-29.8 11.7-52.6 25.2-76.2 41.2-23 15.8-44.8 32.8-64.9 51.5-39.9 37.8-73.9 80.7-99.4 127.6 19.9-17.8 39.5-35.3 60.6-50.6 20.4-16 42.5-29.7 64.5-42.5 21.8-13.2 44.6-24.2 67.7-33.8 22.6-9.1 47.8-18 68.1-22.3l3.2-1.1c145.6-39 300.1-27.8 429.6 34.3 128.3 62.1 229.7 172 265.5 309 6.6 16.4 7.7 34.4 11.2 51.8 3.1 17.5 7.4 34.9 7.1 53.1l2.7 54.2-3.5 53.7c-7.9 70.9-29.5 139.7-67.9 201.1-37.3 62.3-91.6 115.2-153.3 160.4-31.5 21.6-64.6 42-99.8 59-34.9 16.4-72.1 33.2-109.6 39l-1.3.2c-2.7.4-4.5 2.9-4.1 5.6.4 2.2 2.1 3.9 4.3 4.2m-3731-114.1c49.5 5 99.2-5.9 147.5-17.4 48.6-12.1 96.2-29.3 141.5-52.1 90.9-44.4 175.9-110.5 235-200.1 59.5-88.9 87.7-199.2 88.5-304.6 1.4-105.9-26.4-214.8-82.2-307.4-55.3-93-136.4-168.9-229.3-219.6-92.8-51-197.4-78.5-301.8-78.9-104.3-1.1-208.1 24.9-298 75.8-44.3 25.9-84.5 57.4-119.5 93.6-35.4 35.8-66 75.8-89.5 119.4 67.9-71.6 146.9-128.7 232.6-167 85.4-37.4 179.9-51.3 271.2-43.7 91.3 7.9 180.5 36 257.1 83.3 76.7 47.2 140.1 113.6 181 191.6 41.5 77.9 60.5 165.3 65.9 255 5.8 90.2-8.7 178.8-49.9 258.8-41.6 79.1-106.7 148.6-185.6 201.3-39.3 26.6-81.7 49.3-125.6 69.3-22.1 9.9-44.7 18.7-67.8 26.2-23.2 7-46.5 15.1-71.1 16.5" style="fill:#c9cc9d;fill-opacity:1;fill-rule:nonzero;stroke:none" transform="matrix(.01823 0 0 -.01823 -611.663 148)"/><path d="M36848.8 3311.2c-19.7-4.2-29.4 22.6-11.9 32.4 120.3 66.8 340.2 169.4 545 162.4 169.9-5.8 305.2-34.9 391.1-59.3 19.4-5.5 15.5-34-4.7-34.1-297.1-1.2-603.6-34.9-919.5-101.4" style="fill:#d8dbb5;fill-opacity:1;fill-rule:nonzero;stroke:none" transform="matrix(.01823 0 0 -.01823 -611.663 148)"/></g></svg>