<svg xmlns="http://www.w3.org/2000/svg" width="200mm" height="200mm" viewBox="0 0 200 200"><g style="display:inline"><path d="M39505 17334c111.1 424.3 261.8 755.7 267.9 1145.3-6.9 68.2-54.8 161.1-120 232.2-52.6 4.9-104.1 7-153.6 5.9-328.9-7.1-708.9-75.5-1011.6-253.3-302.8-177.9-600.6-521.8-715.4-937.6-43.5-157.3-131.9-826.4-39.2-936.3 26.2-31.1 60.7-46.9 99.5-52.2 107.8-14.5 249.3 51.8 341.9 95.2 292.1 136.9 680.2 259.8 1148.8 356.5 43.4 126.5 143.3 212.2 181.7 344.3" style="fill:#ce5e1d;fill-opacity:1;fill-rule:nonzero;stroke:none" transform="matrix(.03528 0 0 -.03528 -1266.428 721.432)"/><path d="M39505 17334h.1zm20.2 1357.5c-8.5 0-16.9-.1-25.3-.3-222.5-4.7-648.1-43.6-999-249.6-330.4-194.1-599.9-547.4-703.4-922-45.1-162.8-125.2-816.9-44.4-912.6 20.4-24.2 47.6-38.3 83-43.1 100.2-13.5 236.9 50.6 327.4 93 296.5 139 690.5 261.8 1140.2 355.4 21.8 57.2 54 106.3 85.3 153.9 36.9 56.2 71.7 109.4 90.8 174.7 33 126.1 69.4 243.6 104.5 357.2 81.2 262.3 157.9 510.1 162.5 780-6.7 60.5-48.9 142.9-106.5 208.3-39.4 3.4-78 5.1-115.1 5.1m-1660.9-2181.6c-12 0-23.7.7-35.2 2.2-48.2 6.5-87.2 27.1-116 61.2-104.7 124.2-6.3 814.5 34 960.2 107 387.2 385.7 752.4 727.3 953.1 361.1 212.1 796.8 252 1024.3 256.9 49.9 1.1 102.6-.9 156.6-6l10.1-1 6.8-7.4c69.5-75.7 119.2-172.8 126.7-247.2l.2-1.5-.1-1.5c-4.3-278-82.3-529.7-164.8-796.3-35-113.1-71.2-230.2-104-355.2l-.2-.7c-21.2-73.1-59.9-132.1-97.3-189.2-33.5-51-65.1-99.2-84.7-156.3l-4.8-14.1-14.6-3c-451.7-93.2-846.9-215.8-1143-354.5-86.4-40.6-212.7-99.7-321.3-99.7" style="fill:#211d1d;fill-opacity:1;fill-rule:nonzero;stroke:none" transform="matrix(.03528 0 0 -.03528 -1266.428 721.432)"/><path d="M39749.1 18260.6c-55.8-291.9-345.1-1429.1-405.2-1430-87.5-16.5-122.6-13.9-208.2-31.5-69.9-14.3-658.5-129-812.7-197-53-23.5-122.9-54.2-192.4-71.7-47.4-12.4-94.9-18.1-136.8-11.5-37.2 6.1-70.1 22-94.6 52.4-87.5 107.6 5.7 747.8 49.3 897.7 115.4 396.2 405.5 719.5 698.2 883.2 292.9 163.3 658.2 220.1 973.8 219.3 41.7-.1 84.7-2.8 128.4-7.3 13.1-30.1 21.4-59.3 23.9-84.8-1.1-74.5-10.1-147.2-23.7-218.8" style="fill:#f9f6c3;fill-opacity:1;fill-rule:nonzero;stroke:none" transform="matrix(.03528 0 0 -.03528 -1266.428 721.432)"/><path d="M39749.1 18260.6h.1zm-134.8 286.4c-214.9 0-619.2-28.6-955.7-216.2-250.3-140-562.2-441.8-686.6-868.7-45.1-155.3-130-781.7-53.8-875.4 19.2-23.8 45.2-38 79.5-43.6 34.9-5.5 77.6-1.8 126.7 11 68.9 17.4 138.1 48 188.7 70.4 95.2 42 360.7 106.9 789.1 192.8 12.9 2.6 22.6 4.6 28.6 5.8 45.8 9.4 78.2 13.3 109.6 17 27.6 3.2 56.2 6.6 95 13.8 64.5 77.3 328.4 1091.3 389.6 1411.3 14.6 76.2 22.2 145.9 23.3 213.2-2 18.8-7.6 40.3-16.4 62.8-39.1 3.7-76.5 5.7-111.5 5.8zm-1583.4-2055.4c-14.3 0-28 1.1-40.9 3.1-46.2 7.5-83.1 28.1-109.9 61.2-98.4 121.1 4.5 781 44.9 919.9 107.5 369.1 379.5 713.1 709.7 897.8 346.2 193 759.9 222.4 979.7 222.4h6.1c41-.1 85-2.7 131-7.5l14.2-1.5 5.7-13.1c14.1-32.5 23.1-64.3 25.8-92.1l.1-1.4v-1.4c-1.1-70.5-9-143.5-24.2-223-29.7-155.7-118.2-518.4-201.4-825.9-163.6-605-200.5-623-225.2-623.9-41.5-7.8-71.4-11.4-100.3-14.8-31.8-3.7-61.8-7.3-105.6-16.3-6-1.2-15.8-3.2-28.8-5.8-424.9-85.3-686.9-149-778.9-189.6-49.2-21.8-123.6-54.7-196.3-73-38.3-10-73.7-15.1-105.7-15.1" style="fill:#211d1d;fill-opacity:1;fill-rule:nonzero;stroke:none" transform="matrix(.03528 0 0 -.03528 -1266.428 721.432)"/><path d="M39749 18564.1c-43.9 4.6-87 7.2-128.6 7.3-315.5.9-680.9-55.8-973.6-219.4s-582.7-486.7-698.2-883c-43.7-150-137-790.1-49.5-897.8 24.7-30.4 57.6-46.4 94.8-52.3l.1 1.6c-98.3 338.2-43.8 730.9 97.7 1044.5 141.4 313.6 371.2 545.5 623.4 685 252.3 139.4 526.5 191.8 798 201 86 2.9 172.3 1.2 258.1-7 .6 11.8 1.5 23.4 1.7 35.3-2.6 25.6-11 54.7-23.9 84.8" style="fill:#fff;fill-opacity:1;fill-rule:nonzero;stroke:none" transform="matrix(.03528 0 0 -.03528 -1266.428 721.432)"/><path d="M39613.6 18543.9c-215 0-618.2-28.6-953.4-215.9-318.8-178.2-581.3-510.3-685.2-866.7-51.9-178.1-126.9-783.8-54.5-872.7 9.7-12 21.1-21.5 34.5-28.6-77 312.5-36.3 688.4 111.6 1016.3 134.2 297.6 359.9 545.4 635.2 697.7 229.4 126.9 494.5 193.8 810.4 204.5 81.1 2.8 159.3 1.2 233-4.6.1 1.4.1 2.8.2 4.2-2 17.8-7.4 38.3-15.7 60.3-38.4 3.5-75.1 5.4-109.4 5.5zM38018.7 16487l-29.1 4.7c-46.8 7.4-84.4 28.4-111.9 62.2-99.3 122.2 3.9 783.6 44.5 922.8 107.7 369.8 380.2 714.4 711.2 899.3 345.9 193.4 759.8 222.9 980.3 222.9h6.8c40.9-.1 85.1-2.6 131.4-7.4l16-1.7 6.4-14.8c14.4-33.8 23.2-65 26-92.9l.1-1.6v-1.6c-.1-8.2-.6-16.4-1.1-24.5l-.6-11.7-1.4-28.8-28.7 2.7c-79.6 7.6-165.3 9.9-254.5 6.9-307-10.4-564-75.1-785.6-197.6-265.1-146.6-482.3-385.3-611.8-672.2-150.1-333-186.2-716.3-96.3-1025.5l1.5-4.9z" style="fill:#211d1d;fill-opacity:1;fill-rule:nonzero;stroke:none" transform="matrix(.03528 0 0 -.03528 -1266.428 721.432)"/><path d="M39143.6 16818.8c-62.8-16.9-145.7-34.4-215.4-57.6-.6-.1-417-118.4-588.9-164.8-56.1-15.1-136-36.5-205.5-54-9.2 28.5-14.5 59.2-18.9 89.6-9.5 63.7-12.5 127.5-15.1 191.4-3 71.9-13.1 142.4-10.8 214.9 2.3 72.4 14.2 145.1 41.8 205.5 28 60.3 73.3 106.8 126.1 116.4 33.9 5.9 68.9-3.2 103-14.9 161.7-55.9 615.4-366 677.5-401.6 34.9-20.1 176.1-106 106.2-124.9" style="fill:#ce3745;fill-opacity:1;fill-rule:nonzero;stroke:none" transform="matrix(.03528 0 0 -.03528 -1266.428 721.432)"/><path d="M38928.2 16761.2h.1zm-649.2 568.7c-5.6 0-11.2-.4-16.6-1.4-38.8-7-77.1-43.8-102.4-98.3-23.3-50.8-36.3-115.7-38.8-192.9-1.4-44.3 2-87.4 5.5-133 2-25.9 4.1-52.7 5.2-79.6 2.8-67.2 5.8-127.8 14.8-187.9 2.7-18.3 5.7-37.1 9.9-55.4 61.4 15.7 127.4 33.5 174.3 46.1 148.4 40.1 483.6 135 582.7 163.1 2.3.6 4 1.1 5 1.4 47.6 15.8 101.5 29.1 149.1 40.8 18.5 4.5 36.2 8.9 52.7 13.2-17.3 16.9-53.1 43.3-99 69.7-15.5 8.9-52 32.6-102.6 65.5-157.2 102.2-449.8 292.3-569.4 333.6-23.3 8-47.6 15.1-70.4 15.1m-166.5-826.1-9.3 28.6c-10.2 31.3-15.7 64.1-20.2 95-9.4 63.2-12.6 125.5-15.4 194.7-1.1 25.6-3.1 51.8-5.1 77.2-3.5 45.3-7.2 92.2-5.7 140 2.8 85.8 17.8 159.1 44.7 217.9 34.6 74.7 89.2 123.7 149.7 134.7 42.1 7.4 83.8-4.1 119.1-16.2 127.2-43.9 424.1-236.8 583.6-340.5 47.8-31.1 85.6-55.6 99.5-63.6 148.5-85.4 143.2-126 141.2-141.3-1.6-12-9.2-33.6-42.6-42.6-21.3-5.7-44.4-11.4-68.9-17.4-48.9-12.1-99.5-24.5-144.8-39.6l-7.1-2.1c-99.3-28.1-434.7-123.1-583.5-163.3-55.1-14.8-136.3-36.6-206-54.1z" style="fill:#211d1d;fill-opacity:1;fill-rule:nonzero;stroke:none" transform="matrix(.03528 0 0 -.03528 -1266.428 721.432)"/><path d="M39412.6 17037.9c-6.8 11.7-20.4 88.2-23.8 121.7-29 286.8-111.4 553.4-140 840.1-11.1 108.7-29.6 174.3 26.9 247.5 48.7 63 126.1 61 194.8 49.6 91.4-15.2 196-16 288.3-35.7-22.2-312.7-320.2-1268.1-346.2-1223.2" style="fill:#ce3745;fill-opacity:1;fill-rule:nonzero;stroke:none" transform="matrix(.03528 0 0 -.03528 -1266.428 721.432)"/><path d="M39404.3 18270.8c-48.3 0-80.5-13.9-103.2-43.3-40.4-52.4-35.1-97.8-25.3-180.3 1.7-13.9 3.4-28.6 5-44.2 14.2-142.2 42.4-282.4 69.6-417.9 27.4-136.5 55.8-277.6 70.4-422.2 1-10 2.7-22.4 4.8-35.2 80 208.1 268.9 828.8 298.5 1107.2-42.1 7.2-87 11.3-130.7 15.3-42.7 3.9-86.9 8-128.2 14.9-22.8 3.7-42.9 5.7-60.9 5.7m10.6-1266.7c-12.2 0-23.7 6.5-30.2 17.6-12.6 21.9-26.2 116.9-28 134.7-14.3 141.5-42.3 281-69.4 416-27.6 137.1-56.1 278.9-70.6 424.1-1.5 15.2-3.2 29.5-4.8 43.2-10.2 86-18.3 153.9 38.3 227.2 60.9 78.8 157.9 72.9 225.5 61.7 39-6.5 80.1-10.3 123.6-14.3 55.3-5.1 112.6-10.3 166.2-21.8l27.4-5.8-2-27.9c-14.1-198.8-130.7-608.8-166.2-729.7-38.7-132.2-78.4-256.9-111.6-351-58.7-165.7-72-168.8-90.5-173.1-2.6-.6-5.2-.9-7.7-.9" style="fill:#211d1d;fill-opacity:1;fill-rule:nonzero;stroke:none" transform="matrix(.03528 0 0 -.03528 -1266.428 721.432)"/><path d="M39298.5 16846.5c24.1-16.7 50.5-6.8 47.2 29.2-18.4 205.3-198.5 1175-204.6 1217.1-6.2 42.1-22.4 84.3-49.8 106.8-38.9 32.1-87.3 16.2-128.7-3.2-180.9-85.1-328.8-209.3-466.3-387.2-50.1-64.8-99.9-151.4-83.5-246.4 15.8-92.3 86-147.3 148.8-190.1 136.7-93.4 539.6-389.6 736.9-526.2" style="fill:#ce3745;fill-opacity:1;fill-rule:nonzero;stroke:none" transform="matrix(.03528 0 0 -.03528 -1266.428 721.432)"/><path d="M39039.2 18185.8c-16.3 0-36.5-6.1-62.9-18.5-174.3-82.1-318.8-202.1-454.5-377.8-63.5-82.1-88.8-154.5-77.3-221.3 13.8-80.1 77-129.2 135.2-168.9 67.2-45.9 198.1-140.3 336.7-240.3 145.7-105.2 296.3-213.9 397-283.7-15.3 163.4-129.8 798.4-178.8 1070.4-16.2 89.7-24 133.2-25.4 142.4-5.7 39.2-20.1 71.6-38.3 86.7-8.9 7.3-19.1 11-31.7 11m282-1315h.1zm-.1-64.3c-13.7 0-28 4.6-41 13.6-101.2 70-253.8 180.1-401.4 286.6-138.2 99.8-268.8 194-335.3 239.4-74.2 50.6-145.2 111.2-162.4 211.2-14.7 85.6 14.7 174.4 89.8 271.6 142.3 184.1 294.2 310.1 478.1 396.7 28.2 13.2 102.9 48.3 162.9-1.1 42.1-34.7 56.4-94.5 61.1-127 1.3-8.6 11.3-63.9 25-140.3 53.7-297.5 165.3-916.5 179.9-1078.6 2.6-29-7.8-52.6-28.5-64.7-8.6-5-18.2-7.4-28.2-7.4" style="fill:#211d1d;fill-opacity:1;fill-rule:nonzero;stroke:none" transform="matrix(.03528 0 0 -.03528 -1266.428 721.432)"/></g></svg>