<svg xmlns="http://www.w3.org/2000/svg" width="200mm" height="200mm" viewBox="0 0 200 200"><g style="display:inline"><path d="M46103 5688.6c6.6-.3 13.2-.8 19.7-1.1 41.6-2.6 83.5-5.3 125.6-8.3 537.9-38.1 1103.1-120.1 1586.7-500.1 476.4-374.2 844.3-962.1 887.3-1572.4 9.3-132 14.1-500.6 69.8-610.6 61.8-122.5 184.2-235.7 249.3-289.9 65-54.2 82.3-214.6 60.7-296.5-32.2-121.8-188.4-210.4-308.6-247.9-290.9-90.6-439.7-292.2-641.7-520.4-443.6-501.2-1171.5-745.298-1841-791.599-7.9-.602-16-1.199-24-1.699z" style="fill:#e0c13b;fill-opacity:1;fill-rule:nonzero;stroke:none" transform="matrix(.01861 0 0 -.01861 -765.058 160.634)"/><path d="m46132.3 5658.7 181.5-4780.598C47076.5 932 47738.5 1216.9 48130.8 1660c22.4 25.4 44.2 50.4 65.6 75 173.1 198.9 322.6 370.7 588.7 453.7 124.5 38.7 262.4 124.3 289.8 228.2 19.2 72.7 3.8 221.6-51.5 267.7-54.7 45.5-189.2 165.8-256.4 298.8-47.4 93.6-59.4 349.9-67.4 519.5-1.9 40.8-3.5 76-5.3 101.8-39.7 563.9-375.7 1158.7-876.7 1552.3-494 388.2-1070.1 458.6-1571.3 494.2-38.2 2.7-76.2 5.1-114 7.5m127.5-4840.298-1.1 28.7-185 4871.298 50.5-2.9c41.9-2.6 83.9-5.3 126-8.2 509.6-36.2 1095.7-108.1 1602.2-506.1 244.4-192 456.4-436 613.1-705.7 165.6-284.9 264.1-591.6 284.9-886.8 1.8-26.5 3.5-62 5.4-103.2 7.3-154.8 19.4-413.9 61.3-496.8 62.5-123.6 190.2-237.6 242.2-280.9 76.8-64 93-238.1 70-325.3-35.2-133.1-198.4-227.3-327.5-267.5-250.8-78.2-395.5-244.4-563-436.9-21.5-24.7-43.4-49.9-65.9-75.4-212.5-239.9-497.2-433-846.4-573.8-307.6-123.998-658.1-202.599-1013.7-227.201-8-.597-16.3-1.199-24.4-1.699z" style="fill:#211d1d;fill-opacity:1;fill-rule:nonzero;stroke:none" transform="matrix(.01861 0 0 -.01861 -765.058 160.634)"/><path d="M46248.3 5679.2c218.1-21.1 433.2-77.9 635-171.3 608.6-281.4 1082-887.3 1240-1586.6 140.4-621.7 12-1267.4-284.3-1811.9-222-407.8-531.5-798.7-916.2-1035.7-130.2-80.2-269-142.798-416-182.497-64.7-17.5-130.1-31.203-196-41.402-426.6-66.598-872.6 15.699-1256.8 227.699-579.1 319.4-1010.4 935.5-1149.8 1626.3-139.4 690.6 12.8 1442.5 397.9 2011.8 180.3 266.8 409.6 495 672.5 661.6 345.6 219 748.9 323.9 1148.1 310.3 41.9-1.4 83.9-4.2 125.6-8.3" style="fill:#fcf8cf;fill-opacity:1;fill-rule:nonzero;stroke:none" transform="matrix(.01861 0 0 -.01861 -765.058 160.634)"/><path d="M46052.1 5661.6c-378.7 0-744.8-105.6-1063-307.3-254.7-161.4-484.5-387.5-664.6-653.9-383.7-567.3-530.9-1311.7-393.7-1991.3 139.5-691.3 564.2-1292.4 1136.3-1607.9 294.2-162.302 623.8-246.899 951.4-246.899 96.6 0 192.9 7.398 288.2 22.199 65.4 10.199 130.4 23.902 193.1 40.902 138.9 37.5 276.4 97.898 408.8 179.398 433.2 266.8 732.1 705 906.6 1025.6 312.9 575 413 1211.8 281.7 1792.9-155.9 689.9-625.2 1290.7-1224.9 1568-196.6 90.9-407.3 147.8-626.4 169-40.4 4-82 6.7-123.8 8.1-23.2.8-46.5 1.2-69.7 1.2m-33.6-4861.498c-336.7 0-675.3 86.898-977.6 253.598-286.9 158.3-545.8 394.1-748.8 682.1-201.8 286.1-345.1 619-414.4 962.6-140 693.5 10.2 1453.3 401.9 2032.4 184.3 272.5 419.6 503.9 680.5 669.3 346.9 219.8 749.1 328.7 1163.6 314.4 42.9-1.4 85.7-4.2 127.2-8.3 225.1-21.8 441.8-80.3 643.8-173.7 614.7-284.2 1095.6-899.3 1255-1605.2 134.2-594.1 32.3-1244.2-286.9-1830.8-177.6-326.4-482.4-772.7-925.8-1045.9-136.8-84.202-279.1-146.702-423.1-185.498-64.6-17.5-131.5-31.7-198.9-42.102-98-15.301-197.1-22.898-296.5-22.898" style="fill:#211d1d;fill-opacity:1;fill-rule:nonzero;stroke:none" transform="matrix(.01861 0 0 -.01861 -765.058 160.634)"/><path d="M48016.7 3103.7c77.4 430.8 21.7 889.1-155.9 1283.1-12.9 28.6-26.6 56.8-41.1 84.7-205.4 395.5-560.9 703.1-937.5 885.3-366.9 177.2-755.2 198.8-1145.4 120.2-353.4-71.1-687-176.7-969.9-431.8-303.7-273.7-533.9-647.6-655.1-1055.9-214.7-724.3-61.6-1551 348.4-2167.2 260-390.8 637.2-713.6 1075.2-821.3 402.3-98.8 816.1 15.6 1176.1 217.1 685.9 383.7 1157.2 1062.6 1305.2 1885.8M46310.8 849.801c-426.6-66.598-872.6 15.699-1256.8 227.699-579.1 319.4-1010.4 935.5-1149.8 1626.3-139.4 690.6 12.8 1442.5 397.9 2011.8 180.3 266.8 409.6 495 672.5 661.6 345.6 219 748.9 323.9 1148.1 310.3 41.6-2.6 83.5-5.3 125.6-8.3 218.1-21.1 433.2-77.9 635-171.3 608.6-281.4 1082-887.3 1240-1586.6 140.4-621.7 12-1267.4-284.3-1811.9-222-407.8-531.5-798.7-916.2-1035.7-130.2-80.2-269-142.798-416-182.497-64.7-17.5-130.1-31.203-196-41.402" style="fill:#fff;fill-opacity:1;fill-rule:nonzero;stroke:none" transform="matrix(.01861 0 0 -.01861 -765.058 160.634)"/><path d="M48016.7 3103.7h.1zM46151 5489.4c-131.9 0-268-14.1-408.1-42.3-324.1-65.3-664.2-161.9-955.6-424.6-296.6-267.4-526.1-637.4-646.2-1041.9-205.5-692.9-73.4-1513.5 344.6-2141.6 281.4-423 656.8-710.2 1057-808.6 443.1-108.798 872.1 56.4 1153.9 214.2 674.7 377.3 1144.8 1056.9 1290 1864.5 76.5 426.2 22 875.5-153.6 1265.1-12.3 27.2-25.8 55.2-40.4 83.2-187.3 360.8-524 678.6-923.8 871.9-220.7 106.6-461 160.1-717.8 160.1m-313.7-4555.002c-106 0-209.4 12.204-309.1 36.704-415.2 102.098-803.5 398.298-1093.4 834.098-427.8 642.7-562.7 1483-352.3 2192.8 123.3 415.1 359 795.1 663.9 1069.9 303.1 273.3 667.7 375.3 984.4 439.1 426.5 85.9 818.3 44.6 1164.6-122.7 411.4-198.9 758.1-526.5 951.4-898.8 15.1-29 29.2-58 41.9-86.1 180.6-400.9 236.7-862.9 158-1301.1-74.3-413.7-227.7-790.4-455.8-1119.7-227.9-329.1-518.7-594-864.5-787.4-303.9-170.1-606.1-256.802-889.1-256.802m214.3 4723.802c-377.4 0-742.9-105.5-1060.7-306.8-254.2-161.2-483.7-386.9-663.5-652.9-383.2-566.6-530.2-1310-393.2-1988.7 139.3-690.3 563.4-1290.6 1134.5-1605.6 380.3-209.802 819.8-289.501 1237.4-224.298h.1c65.3 10.2 130.1 23.899 192.7 40.801 138.6 37.399 275.8 97.697 407.9 178.997 432.6 266.5 731.1 704.1 905.4 1024.3 312.5 574.3 412.4 1210.2 281.3 1790.6-155.6 688.8-624.2 1288.7-1223 1565.6-196.2 90.7-406.5 147.5-625.2 168.6-41.1 2.9-83 5.6-124.5 8.2-23.1.8-46.2 1.2-69.2 1.2m-33.1-4861.501c-337.2 0-676.5 87.004-979.3 254.001-287.3 158.5-546.6 394.7-750 683.1-202 286.5-345.5 619.9-414.9 963.9-140.2 694.4 10.3 1455.2 402.5 2035 184.5 272.9 420.1 504.7 681.5 670.3 347.5 220.2 750.6 329.2 1165.5 315 42.5-2.6 84.5-5.3 126.6-8.3 226.3-21.9 443.3-80.5 645.8-174.1 615.6-284.6 1097.2-900.6 1256.9-1607.6 134.4-594.8 32.3-1245.9-287.3-1833.2-177.8-326.7-482.9-773.6-927-1047.1-137.1-84.399-279.7-146.997-424-186.001-64.7-17.5-131.7-31.699-199.3-42.097-98.1-15.301-197.5-22.903-297-22.903" style="fill:#211d1d;fill-opacity:1;fill-rule:nonzero;stroke:none" transform="matrix(.01861 0 0 -.01861 -765.058 160.634)"/><path d="M46016.1 4250.9c-2.6 58.9-4.1 117.9-4.3 177.1-.7 162.8-10.4 330.1 22.2 492.3 13.8 68.4 42.5 135.3 91.5 180.4 173.5 160.4 480.7 36.2 671.2-33 119-43.4 239.1-89.1 344.5-163.4 119.7-84.2 172.8-203.6 115.9-351-30.3-78.9-81-149.7-130.9-214.7-100.9-131.1-222.9-238.7-341.4-346-82.3-74.7-163.9-149.6-236.9-232.5-54.6-61.9-105.5-127-160.1-187.7-44.9-50-122.6-185.8-203.6-160.9-75.7 23.3-84.6 171-97 235.5-18.6 97.2-33.9 195.5-45.7 294.5-12.1 102.4-20.6 205.6-25.4 309.4" style="fill:#efd83e;fill-opacity:1;fill-rule:nonzero;stroke:none" transform="matrix(.01861 0 0 -.01861 -765.058 160.634)"/><path d="M46050.7 4252.5c4.8-102.6 13.3-205.9 25.2-306.9 11.7-97.5 26.9-195.8 45.3-292.1 2.1-10.9 4.1-23.9 6.2-37.6 8.4-55.3 24.2-158.1 67-171.3 41.2-12.6 99.5 63.7 134.3 109.3 11.9 15.6 23.2 30.3 33.3 41.6 28.9 32.1 57.3 66.3 84.9 99.3 24.2 29 49.3 59.1 75 88.2 72.3 82 151.3 155.1 239.7 235.2l23 20.8c109 98.6 221.7 200.5 314.1 320.8 45.5 59.1 96.4 128.6 126.1 205.9 47.8 124 13 228.3-103.5 310.3-99.3 70-211.1 113.5-336.5 159.1l-28.6 10.5c-182.2 66.8-457.7 167.9-607.2 29.6-49.1-45.2-71.2-112.9-81.1-161.8-26.1-130.3-24.2-267.2-22.4-399.6.4-28.7.8-57.2.9-85.6.2-56.4 1.7-115.5 4.3-175.7m154.4-878.9c-10.1 0-20.5 1.5-31.1 4.8-84.4 25.9-102.9 146.9-115.1 227-2 13.1-3.9 25.4-5.7 35-18.7 98-34.2 197.9-46.1 297-12.1 102.7-20.8 207.6-25.6 311.9v.1c-2.7 61.1-4.1 121.2-4.4 178.5-.1 28.2-.5 56.5-.9 84.9-1.8 136.1-3.8 276.7 23.8 414.3 11.9 59 39.3 141.3 102 199 180.6 167 480 57.2 678.1-15.5l28.4-10.4c130.1-47.4 246.5-92.7 352.7-167.6 141.7-99.7 187.2-238.8 128.3-391.8-31.5-81.8-83.9-155.7-135.8-223.3-96.3-125.2-211.4-229.2-322.7-329.9l-22.9-20.7c-86.8-78.7-164.3-150.4-234.3-229.7-25-28.4-49.8-58.1-73.7-86.8-28-33.5-56.9-68.2-86.5-101.2-8.3-9.2-18.8-22.9-29.8-37.4-45.4-59.4-105.5-138.2-178.7-138.2" style="fill:#211d1d;fill-opacity:1;fill-rule:nonzero;stroke:none" transform="matrix(.01861 0 0 -.01861 -765.058 160.634)"/><path d="M45874.4 3979.7c-10.3 42.2-17.3 85.6-20.1 129.1-12.8 197.3-12.2 402.8-28.5 597.9-7.4 88.7-15.3 179.3-47.9 261-32.8 81.8-95.3 154.6-175.5 172.1-92.5 20.2-183.3-34.9-264.2-87.9-104-68.2-208.3-136.5-305.4-216.2-74.9-61.4-145.2-129.4-210.1-203-58.2-65.9-115.7-153.5-91.9-241.1 16.7-60.8 68-101.3 116.2-137.3 254.3-189.2 788.5-615.8 1039.1-807.2 48.5-37.1 113.5 10.1 100.9 73z" style="fill:#efd83e;fill-opacity:1;fill-rule:nonzero;stroke:none" transform="matrix(.01861 0 0 -.01861 -765.058 160.634)"/><path d="M45562.2 5109.4c-66.7 0-135.1-40.7-205-86.5-102-66.8-206.9-135.6-302.5-214-73.1-60-142.5-127-206-199.1-72.7-82.4-100.3-150.8-84.4-209.1 13.2-48.1 54.6-82.2 103.4-118.6 149.1-110.9 389.2-299.3 621.4-481.6 161.6-126.8 314.2-246.5 418-325.9 12.3-9.3 23.2-6.1 30.2-1.7 9.6 6 19.5 20 15.9 39.8l-112.5 458.7c-11 45.3-18.1 90.8-21 135.2-5.7 87.7-8.8 178.2-11.8 265.8-3.7 109.8-7.6 223.4-16.6 331.4-7.1 85.1-14.5 173.1-45.6 251.1-32 79.8-89.8 137.7-150.7 151-10.9 2.4-21.8 3.5-32.8 3.5m361.2-1710.1c-20.4 0-40.7 6.8-58.3 20.3-104.2 79.6-257 199.5-418.8 326.4-231.8 182-471.6 370.1-620 480.5-57.1 42.6-109.9 86.6-128.9 156-22.5 82.6 10 171.9 99.3 273.1 66 74.9 138 144.5 214.1 206.9 98.4 80.7 204.9 150.5 307.9 218.1 71.7 46.9 179.4 117.4 291.1 93 84.3-18.4 159.1-90.5 200.2-193 35-87.6 43.1-185 50.3-271 9.2-109.7 13.1-224.2 16.9-334.8 3-87.1 6.1-177.1 11.7-263.7 2.6-40.4 9-81.9 19.1-123.2l113-461c9-45.1-9.5-89.4-47.1-112.8-15.8-9.9-33.2-14.8-50.5-14.8" style="fill:#211d1d;fill-opacity:1;fill-rule:nonzero;stroke:none" transform="matrix(.01861 0 0 -.01861 -765.058 160.634)"/><path d="M47843.7 3500.3c-3.7 23.8-7.9 47.7-12.2 71.6-18 99.7-40.4 200.3-67.4 301.4-14.7 55-30.9 110.7-57 162.1-24.6 48.7-62.7 102.9-109.9 127.1-44.1 22.7-94.3 28.1-140 20.1-67-11.6-126.4-48-183.4-86.7-98-66.3-192.3-140.2-287.7-214.9-201-157.3-406.3-318.1-616-482.4-41.8-32.8-87.9-78-70.7-131.3 12.5-39 54.5-63.5 93-81.8 374.5-178.2 768.8-165.4 1117.7-149.9 82.2 3.7 166.5 8.4 235.9 50.5 68.7 41.9 110 120.6 120.4 204.2 5.3 43.1-5.4 90.6-11.4 134.4-3.4 25.1-7.2 50.4-11.3 75.6" style="fill:#efd83e;fill-opacity:1;fill-rule:nonzero;stroke:none" transform="matrix(.01861 0 0 -.01861 -765.058 160.634)"/><path d="M47497.4 4151.4q-17.1 0-34.2-3c-62.3-10.7-120.4-47.5-169.9-81.2-97.1-65.6-188.7-137.4-285.7-213.3-201.2-157.5-406.4-318.3-616.2-482.6-48.5-38-67.3-67.7-59.1-93.4 8.7-26.7 44.6-46.7 75-61.1 375.7-178.8 778-160.9 1101.3-146.6 73.1 3.3 155.9 6.9 219.4 45.5 55.4 33.9 94.3 100.7 104 178.9 3.6 29.1-1.8 63.3-7 96.4-1.5 9.8-3 19.5-4.3 29-3.4 24.9-7.2 50-11.2 74.7v.2c-3.5 21.8-7.4 45-12.1 70.9-17.8 99-40.3 199.4-66.8 298.5-13.7 51.4-29.2 105.7-54.4 155.5-27.5 54.3-62.1 95.1-94.8 111.9-25.4 13-54.4 19.7-84 19.7m-284.6-1159c-264.1 0-555 28.4-835.3 161.8-42.9 20.4-94.3 50.5-111.1 102.5-26.9 83.6 52.4 145.8 82.3 169.2 209.7 164.3 415 325 616.1 482.4 93.8 73.5 190.6 149.3 289.6 216.3 55.5 37.7 121.1 79 196.9 92.1 55.9 9.8 113.3 1.5 161.7-23.4 62.2-31.8 105-102.7 125-142.2 28.3-55.7 45.6-116.4 59.6-168.9 26.9-101 49.8-203.3 68-304.1 4.8-26.3 8.8-50 12.3-72.3 4.1-25.3 8-51 11.4-76.5 1.2-9 2.7-18.2 4.2-27.6 5.9-37.8 12-76.8 7.3-115.6-12.3-99-63.4-184.8-136.7-229.5-78.8-47.9-171.1-52-252.5-55.6-93.8-4.2-194.2-8.6-298.8-8.6" style="fill:#211d1d;fill-opacity:1;fill-rule:nonzero;stroke:none" transform="matrix(.01861 0 0 -.01861 -765.058 160.634)"/><path d="m44651.9 4113.8 1111.1-794.9c16.2-11.7 27.5-30.6 28.9-51.6 3.1-45.1-39.8-62.5-75.2-71.7-218.1-56.8-436.1-113.6-654.1-170.4-150.6-39.3-339.9-152.9-487.5-102.2-212.7 73.1-253.3 402.4-245.5 645.3 5.7 180.3 118.6 418.2 207.9 528.8 29 35.8 77.8 42.9 114.4 16.7" style="fill:#efd83e;fill-opacity:1;fill-rule:nonzero;stroke:none" transform="matrix(.01861 0 0 -.01861 -765.058 160.634)"/><path d="M44603.6 4094.8c-14.5 0-28.8-6.7-39.2-19.5-80.3-99.4-194.6-331.4-200.2-508.1-5.1-159.2 6.4-537.3 222.1-611.4 93.5-32.1 212.1 12.3 326.7 55.3 49.3 18.4 95.8 35.9 140.8 47.6l119.7 31.2c178.2 46.4 356.3 92.9 534.4 139.2 51 13.3 49.9 28.6 49.4 35.9-.6 10.1-6 19.7-14.5 25.7l-1111.1 794.9c-8.7 6.2-18.4 9.2-28.1 9.2m52.9-1219.1c-31.8 0-62.8 4.3-92.7 14.5-259.4 89.1-274.5 504.7-268.9 679.2 5.8 181.7 116.5 426.7 215.7 549.5 40.5 50 109.9 59.9 161.4 23h.1l1111.1-794.9c25.1-17.9 41.2-46.9 43.3-77.4 3.6-52.9-30.4-89.1-101.1-107.5-178.2-46.4-356.3-92.8-534.4-139.2l-119.7-31.2c-41.5-10.9-86.4-27.7-133.9-45.5-89.6-33.6-188.2-70.5-280.9-70.5" style="fill:#211d1d;fill-opacity:1;fill-rule:nonzero;stroke:none" transform="matrix(.01861 0 0 -.01861 -765.058 160.634)"/><path d="M47298.7 2583.6c-85.9 44.7-174.2 82.7-260.7 125.7-117 58-234.1 115.7-350.9 173.7-8.2 4.1-16.4 8.1-24.5 12.2-96.2 47.8-192.4 95.4-288.6 143.2-53.1 26.3-106.8 52.9-161.7 73.4-45.1 17.1-79.1-36.5-49.4-77 205-279.1 365.2-592.4 492.7-915.5 27-68.3 53.7-138.7 98.9-197.5 30.2-39.3 69.5-72.6 114.5-87.6 41.7-13.8 86-11.2 125.9 1.9s75.6 36.1 108.4 62.6c78 63 139.4 145.6 199.3 227.7 35.1 48.2 68.5 97.9 99.8 149.2 31.6 51.8 72.2 124.3 45.5 190.2-24.9 61.8-96.6 90.6-149.2 117.8" style="fill:#efd83e;fill-opacity:1;fill-rule:nonzero;stroke:none" transform="matrix(.01861 0 0 -.01861 -765.058 160.634)"/><path d="M46195.4 3080.4c-2.5 0-4.4-1.1-6.1-3.3-3.4-4.5-5-12.9 1.5-21.8 190.2-258.9 357.4-569.5 497.1-923.3l3.8-9.6c24.6-62.6 50.2-127.3 90.3-179.5 20.3-26.5 53.7-61.1 98-75.9 40.3-13.3 78.9-6.2 104.1 2 31.4 10.3 62.3 28.3 97.4 56.6 71.6 57.9 127.5 131.3 193.1 221.2 35.9 49.3 68.9 98.8 98.2 146.8 33.5 55 62 112.4 43 159.3-16.9 41.9-67.5 67.1-112.1 89.4-7.2 3.6-14.2 7.1-21 10.6-48.5 25.2-99 48.8-147.8 71.7-36.9 17.3-75 35.1-112.3 53.7-54 26.7-108 53.4-162.1 80.1-62.9 31.2-125.9 62.3-188.8 93.5l-9.2 4.6-15.6 7.8-288.3 143.1c-51.3 25.4-104.4 51.7-158.4 72-1.9.7-3.4 1-4.8 1m732-1290.1c-23.8 0-47.1 3.7-69.2 11-61 20.4-105 65.3-131.2 99.4-46 59.9-73.4 129.3-99.8 196.3l-3.8 9.6c-137.5 348.2-301.8 653.6-488.4 907.7-23.7 32.2-24 74.3-.8 104.7 21.2 28 56.8 37.9 90.4 25.2 57.2-21.4 114.4-49.7 164.8-74.7l288.6-143.3c5.2-2.7 10.2-5.1 15.2-7.6l9.4-4.6c62.8-31.2 125.7-62.3 188.7-93.4 54-26.8 108.1-53.5 162.1-80.3 36.6-18.2 74.4-35.9 110.9-52.9 49.4-23.2 100.5-47.1 150.3-73 6.4-3.3 13.1-6.7 20-10.1 52.9-26.4 118.8-59.3 145.5-125.5 34.6-85.6-19.2-173.8-48.1-221.2-30.3-49.7-64.4-100.7-101.4-151.6-54-74-121.2-166-205.5-234.3-41.3-33.3-80.3-55.7-119.4-68.5-26.2-8.6-52.5-12.9-78.3-12.9" style="fill:#211d1d;fill-opacity:1;fill-rule:nonzero;stroke:none" transform="matrix(.01861 0 0 -.01861 -765.058 160.634)"/><path d="M46664.3 1747.1c-19.9 38.7-42 75.2-57.3 106.8-105.6 218-199.1 440.8-295.3 663.7-71.4 181.8-138.8 367.5-233.4 535.5-18.6 33.4-65.3 23.6-71.2-14.9-52.1-331.6-97-664.7-151.3-995.6-20.8-127.4-44.5-254.3-55.4-383.3-4.4-51.8-6.4-105.3 9.8-154.2 27.2-81.5 101.9-135.5 179.5-154.3 103.7-25.1 213.3.6 315.9 20.7 78.5 15.4 156.7 34.3 232.1 62.7 59 22.2 151.4 50.6 169.6 126.1 14.4 59.9-11.6 125.9-43 186.8" style="fill:#efd83e;fill-opacity:1;fill-rule:nonzero;stroke:none" transform="matrix(.01861 0 0 -.01861 -765.058 160.634)"/><path d="m46045.4 3038.8-.3-.1c-1.9-.3-3.3-2.5-3.8-5.8-22.4-142.7-43.8-288-64.6-428.6-27.4-186.1-55.8-378.6-86.7-567.3-3.9-23.8-7.9-47.7-11.9-71.5-16.9-101.1-34.4-205.7-43.2-309.1-3.7-44.6-6.5-95.9 8.2-140.4 25.1-75.4 96.4-117.4 154.7-131.5 88.2-21.4 184.1-2.3 276.8 16.2l24.3 4.8c92.7 18.2 162.6 37 226.6 61.1 4.6 1.7 9.3 3.5 14.2 5.3 54.1 19.9 121.4 44.8 133.9 96.5 12.4 51.3-14.9 114-40.1 162.8-8.7 17-18 33.7-27 49.9-11.2 20.3-21.9 39.5-30.7 57.7-89.5 184.8-171.7 376.2-251.3 561.4-14.9 34.5-29.7 69.1-44.6 103.7l-.5 1.1c-9.9 25.4-19.8 50.8-29.7 76.3-59.7 153.6-121.4 312.4-201.6 454.8-1.2 2.3-2.1 2.7-2.7 2.7m37.7-1733.1c-33.8 0-67.7 3.3-101.6 11.5-97.4 23.5-175.6 91.4-204.1 177-18.9 56.9-15.9 116.6-11.6 168 9.1 106.3 26.8 212.3 44 314.7 4 23.8 7.9 47.5 11.8 71.3 30.9 188.2 59.2 380.4 86.6 566.2 20.7 140.7 42.2 286.2 64.6 429.2 5.1 32.8 28.7 57.7 60 63.3 30.5 5.5 60.2-9 75.8-36.9 82.5-146.7 145.1-307.8 205.7-463.6 9.8-25.2 19.5-50.4 29.4-75.6 14.9-34.4 29.7-68.9 44.5-103.3 79.2-184.4 161.1-375.1 250-558.5 8-16.5 18.2-34.9 28.9-54.4 9.3-16.6 18.8-33.7 28-51.7 30.7-59.5 63.6-137.2 45.9-210.7-21.2-87.8-115.2-122.4-177.3-145.3q-7.2-2.7-13.8-5.1c-66.8-25.2-142.3-45.6-237.7-64.3l-24.1-4.8c-67.2-13.3-135.9-27-205-27" style="fill:#211d1d;fill-opacity:1;fill-rule:nonzero;stroke:none" transform="matrix(.01861 0 0 -.01861 -765.058 160.634)"/><path d="M45905.2 3011.7c5.4 51.3-38.8 92.2-84.3 77.6-102.7-32.9-258.8-96.1-329.1-124.7-191.3-77.9-382.7-155.9-574-233.7-96.1-39.1-198.9-83.9-256.9-177.9-65.5-106.4-54.3-251.1-2.3-362.1 52.1-111 138.7-195.9 223.3-278.3 99.6-96.9 199.3-193.6 298.9-290.4 64.5-62.7 148.2-129.5 230.3-94.2 66.7 28.8 98.4 112.3 122.5 186.9 84.9 261.6 361.4 1201.1 371.6 1296.8" style="fill:#efd83e;fill-opacity:1;fill-rule:nonzero;stroke:none" transform="matrix(.01861 0 0 -.01861 -765.058 160.634)"/><path d="M45905.2 3011.7h.1zm-65.4 45.9c-2.6 0-5.4-.4-8.3-1.3-106-33.9-272.1-101.6-326.7-123.8l-574-233.7c-101.7-41.4-190-82.3-240.4-164-53.4-86.7-53.5-215.9-.4-329.2 50-106.7 134.5-188.8 216.1-268.1 65.8-64.1 131.6-128 197.5-192l101.3-98.4c83.9-81.6 143.2-108.4 192.5-87.2 53.3 23 81.2 97.5 103.2 165.6 88 271.1 360.4 1198.4 370.2 1289.8 1.5 14.2-3.6 27.6-13.7 35.8-4 3.2-9.9 6.5-17.3 6.5m-476.4-1574.3c-77.7 0-149.7 58.6-206.7 114.1l-101.4 98.4c-65.8 64-131.7 128-197.5 192-82.1 79.8-175.1 170.2-230.6 288.4-62.7 133.9-61.1 288.9 4.2 395 66.4 107.6 186 156.2 273.3 191.8l574 233.7c55.2 22.4 223.1 90.8 331.7 125.6 31.4 10 64.4 3.7 90.4-17.5 28.3-23 42.9-59.2 38.9-96.8-10.9-102.1-292.7-1055.9-373.2-1303.8-26.6-82.5-61.7-173.5-141.7-208-20.8-8.9-41.3-12.9-61.4-12.9" style="fill:#211d1d;fill-opacity:1;fill-rule:nonzero;stroke:none" transform="matrix(.01861 0 0 -.01861 -765.058 160.634)"/><path d="M48007.1 1735.3c-3.2-3.3-6.6-6.7-10-10.1z" style="fill:#fff;fill-opacity:1;fill-rule:nonzero;stroke:none" transform="matrix(.01861 0 0 -.01861 -765.058 160.634)"/><path d="M47997.1 1694.7c-7.9 0-15.7 2.9-21.6 8.9-12 11.9-12 31.2-.1 43.2l10.2 10.1c11.9 12 31.3 11.9 43.2 0 11.9-12 11.9-31.3-.1-43.2l-10-10.1c-6-5.9-13.8-8.9-21.6-8.9" style="fill:#211d1d;fill-opacity:1;fill-rule:nonzero;stroke:none" transform="matrix(.01861 0 0 -.01861 -765.058 160.634)"/><path d="M48421.7 2139.7v10.1z" style="fill:#fff;fill-opacity:1;fill-rule:nonzero;stroke:none" transform="matrix(.01861 0 0 -.01861 -765.058 160.634)"/><path d="M48421.7 2109.2c-16.9 0-30.6 13.7-30.6 30.5v10.1c0 16.9 13.7 30.6 30.6 30.6s30.5-13.7 30.5-30.6v-10.1c0-16.8-13.6-30.5-30.5-30.5" style="fill:#211d1d;fill-opacity:1;fill-rule:nonzero;stroke:none" transform="matrix(.01861 0 0 -.01861 -765.058 160.634)"/><path d="M48603.6 2250.8v10.2z" style="fill:#fff;fill-opacity:1;fill-rule:nonzero;stroke:none" transform="matrix(.01861 0 0 -.01861 -765.058 160.634)"/><path d="M48603.6 2220.3c-16.9 0-30.6 13.7-30.6 30.5v10.2c0 16.9 13.7 30.6 30.6 30.6s30.5-13.7 30.5-30.6v-10.2c0-16.8-13.6-30.5-30.5-30.5" style="fill:#211d1d;fill-opacity:1;fill-rule:nonzero;stroke:none" transform="matrix(.01861 0 0 -.01861 -765.058 160.634)"/><path d="M48391.3 2341.8v-10.1z" style="fill:#fff;fill-opacity:1;fill-rule:nonzero;stroke:none" transform="matrix(.01861 0 0 -.01861 -765.058 160.634)"/><path d="M48391.3 2301.2c-16.9 0-30.6 13.7-30.6 30.5v10.1c0 16.9 13.7 30.6 30.6 30.6 16.8 0 30.5-13.7 30.5-30.6v-10.1c0-16.8-13.7-30.5-30.5-30.5" style="fill:#211d1d;fill-opacity:1;fill-rule:nonzero;stroke:none" transform="matrix(.01861 0 0 -.01861 -765.058 160.634)"/><path d="M47471.4 1290.6h-20.2z" style="fill:#fff;fill-opacity:1;fill-rule:nonzero;stroke:none" transform="matrix(.01861 0 0 -.01861 -765.058 160.634)"/><path d="M47471.4 1260h-20.2c-16.8 0-30.5 13.7-30.5 30.6s13.7 30.5 30.5 30.5h20.2c16.9 0 30.6-13.6 30.6-30.5s-13.7-30.6-30.6-30.6" style="fill:#211d1d;fill-opacity:1;fill-rule:nonzero;stroke:none" transform="matrix(.01861 0 0 -.01861 -765.058 160.634)"/><path d="M47885.8 1533.2h-10.1z" style="fill:#fff;fill-opacity:1;fill-rule:nonzero;stroke:none" transform="matrix(.01861 0 0 -.01861 -765.058 160.634)"/><path d="M47885.8 1502.7h-10.1c-16.8 0-30.5 13.6-30.5 30.5s13.7 30.5 30.5 30.5h10.1c16.9 0 30.6-13.6 30.6-30.5s-13.7-30.5-30.6-30.5" style="fill:#211d1d;fill-opacity:1;fill-rule:nonzero;stroke:none" transform="matrix(.01861 0 0 -.01861 -765.058 160.634)"/><path d="M47865.6 1654.5h-10.1z" style="fill:#fff;fill-opacity:1;fill-rule:nonzero;stroke:none" transform="matrix(.01861 0 0 -.01861 -765.058 160.634)"/><path d="M47865.6 1624h-10.1c-16.8 0-30.5 13.6-30.5 30.5s13.7 30.6 30.5 30.6h10.1c16.9 0 30.6-13.7 30.6-30.6s-13.7-30.5-30.6-30.5" style="fill:#211d1d;fill-opacity:1;fill-rule:nonzero;stroke:none" transform="matrix(.01861 0 0 -.01861 -765.058 160.634)"/><path d="M49007.9 2604.6h-10.1z" style="fill:#fff;fill-opacity:1;fill-rule:nonzero;stroke:none" transform="matrix(.01861 0 0 -.01861 -765.058 160.634)"/><path d="M49007.9 2574.1h-10.1c-16.9 0-30.5 13.7-30.5 30.5 0 16.9 13.6 30.6 30.5 30.6h10.1c16.9 0 30.5-13.7 30.5-30.6 0-16.8-13.6-30.5-30.5-30.5" style="fill:#211d1d;fill-opacity:1;fill-rule:nonzero;stroke:none" transform="matrix(.01861 0 0 -.01861 -765.058 160.634)"/></g></svg>