<svg xmlns="http://www.w3.org/2000/svg" width="200mm" height="200mm" viewBox="0 0 200 200"><path d="M8413.52 6187.6s-136.19 5.5-172.01 86.3c-35.81 80.8 51.26 244.5 102.18 258s179.28-1.7 217.2-51 32.08-244.1-31.97-278.5-115.4-14.8-115.4-14.8" style="display:inline;fill:#811632;fill-opacity:1;fill-rule:nonzero;stroke:none" transform="matrix(.03528 0 0 -.03528 -210.738 310.289)"/><path d="M8424.13 6216.2c2.7-.9 41.18-13.3 90.35 13.1 9.77 5.3 23.31 25.2 31.98 65.6 14.38 67 6.4 146.3-9.79 167.4-27.67 36-140.32 52-185.15 40.1-8.55-2.3-35.73-28.4-59.85-78.7-26.25-54.7-34.98-108.7-22.23-137.4 27.35-61.7 144.15-68.2 145.32-68.2l4.97-.2zm27.34-64.6c-20.45 0-35.82 3.5-43.49 5.7-25.76 1.8-154.89 15.1-194.39 104.2-29.25 66 6.34 153.9 22.99 188.6 10.97 22.8 50.55 98.5 99.29 111.4 58.84 15.5 201.22.5 249.24-62 32.73-42.6 36.42-146 21.08-217.4-8.07-37.6-25.52-86.6-62.83-106.6-34.94-18.8-67.13-23.9-91.89-23.9" style="display:inline;fill:#211d1d;fill-opacity:1;fill-rule:nonzero;stroke:none" transform="matrix(.03528 0 0 -.03528 -210.738 310.289)"/><path d="M8178.85 6486.3s-136.19 5.5-172 86.3c-35.82 80.8 51.26 244.6 102.18 258.1s179.28-1.7 217.2-51.1c37.92-49.3 32.08-244.1-31.98-278.5-64.04-34.3-115.4-14.8-115.4-14.8" style="display:inline;fill:#fff;fill-opacity:1;fill-rule:nonzero;stroke:none" transform="matrix(.03528 0 0 -.03528 -210.738 310.289)"/><path d="M8189.43 6515c2.47-.9 41.04-13.4 90.38 13 9.78 5.3 23.32 25.3 31.99 65.6 14.38 67 6.4 146.4-9.79 167.4-27.67 36-140.31 52-185.15 40.1-8.55-2.2-35.75-28.4-59.88-78.7-26.23-54.7-34.95-108.6-22.21-137.4 22.93-51.7 112.71-66.7 145.37-68.2l4.92-.2zm27.38-64.7c-20.45 0-35.82 3.5-43.49 5.7-25.76 1.8-154.9 15.2-194.4 104.3-29.24 65.9 6.32 153.8 22.97 188.5 10.97 22.9 50.56 98.5 99.31 111.4 58.85 15.6 201.23.5 249.25-61.9 32.71-42.6 36.42-146.1 21.08-217.5-8.07-37.6-25.52-86.6-62.83-106.6-34.95-18.7-67.14-23.9-91.89-23.9" style="display:inline;fill:#211d1d;fill-opacity:1;fill-rule:nonzero;stroke:none" transform="matrix(.03528 0 0 -.03528 -210.738 310.289)"/><path d="M8640.53 6167.6c10.65-54.9-25.74-106.3-79.15-141.8-62.48-41.7-148.27-61.5-209.09-39.6-36.27 13.1-64.95 40.5-83.27 74.3l-.81 1.4c-29.15 54.2-32.02 124.5 1.79 178.1 10.75 17.1 25.86 34 43.56 49.3 22.47 19.6 49.25 36.9 77.04 49.6 62.54 28.5 129.94 33.9 164.4-10.8 26.77-34.7 77.13-116.9 85.53-160.5" style="fill:#811632;fill-opacity:1;fill-rule:nonzero;stroke:none" transform="matrix(.03528 0 0 -.03528 -210.738 310.289)"/><path d="m8294.83 6076.9 1.05-1.8c15.65-28.9 39.36-50.3 66.77-60.2 48.71-17.5 123.46-2.6 181.77 36.3 48.6 32.3 73.29 73.6 66.12 110.6-6.86 35.5-52.53 112.4-79.72 147.7-25.19 32.6-82.39 22.2-127.53 1.6-25.09-11.4-49.15-26.9-69.62-44.8-15.92-13.8-28.97-28.5-37.83-42.6-26.12-41.4-26.5-99-1.01-146.8m113.83-130.2c-23.92 0-46.61 3.5-66.75 10.8-41.34 14.9-76.65 46.1-99.46 87.9l-1.14 2c-36.03 67-34.92 149 2.84 208.9 12.02 19.1 29.1 38.5 49.4 56.1 24.81 21.7 54.02 40.4 84.4 54.3 86.04 39.3 161.28 31.8 201.22-19.9 26.93-34.9 81.35-121.6 91.36-173.4 12.01-62-22.47-126.7-92.25-173-52.06-34.8-114.14-53.7-169.62-53.7" style="fill:#211d1d;fill-opacity:1;fill-rule:nonzero;stroke:none" transform="matrix(.03528 0 0 -.03528 -210.738 310.289)"/><path d="M9080.37 6319.6c-6.61-36.9-28.44-72.7-61.65-89.9-33.13-17.2-89.96-17.9-131.46 5.1l-3.93-7.4c-.33 2.3-.65 4.7-.97 7-4.72 31.9-14.81 65.1-28.76 98.7 52.5 40.4 86.89 96.7 68.47 152.3-1.44 4.3-3 8.6-4.86 13l.16.1c24.08 17.8 77.37 19.6 101.17 2.7 15.2-10.8 26.65-25.8 35.58-42.5 5.09-9.4 9.38-19.3 12.99-29.3 12.78-34.8 19.83-72.8 13.26-109.8" style="fill:#811632;fill-opacity:1;fill-rule:nonzero;stroke:none" transform="matrix(.03528 0 0 -.03528 -210.738 310.289)"/><path d="M8909.2 6258c32.45-14.7 73.68-12.5 95.48-1.2 22.72 11.8 40.19 37.9 45.61 68.2 4.9 27.6.91 59.2-11.85 93.9-3.44 9.5-7.18 17.9-11.15 25.2-7.84 14.6-16.47 25.1-26.47 32.2-8.61 6.2-29.31 7.5-45.96 4.6 11.12-53.2-12.34-109.9-64.78-157.2 8.42-22.7 14.82-44.7 19.12-65.7m-43.23-129-13.88 101.3c-4.08 27.5-13.08 58.3-26.7 91.1l-8.99 21.6 18.58 14.3c18.2 14 76.19 63.9 58.1 118.5-1.16 3.4-2.43 7-3.98 10.6l-11.97 28.2 25.4 10.7c35.76 23.7 100.51 24.4 133.71.8 17.61-12.5 32.68-30.3 44.8-53 5.35-9.8 10.35-21 14.79-33.3 16.49-44.9 21.43-87.1 14.61-125.5l-.01-.1c-8.81-49.3-37.85-91-77.67-111.6-36.63-19-87.98-21-131.59-6.9z" style="fill:#211d1d;fill-opacity:1;fill-rule:nonzero;stroke:none" transform="matrix(.03528 0 0 -.03528 -210.738 310.289)"/><path d="M8883.33 6227.4c8.89-72.6-11.73-137.8-82.57-183.9-70.04-45.4-160.45-51.4-236.29-22.5l-3.09 4.8c53.41 35.5 89.8 86.9 79.15 141.8-8.4 43.6-58.76 125.8-85.53 160.5l10.26 9.6c34.63-38.8 84.11-64 136.62-62.9 49.55 1.1 107.14 23.9 151.72 58.3 13.95-33.6 24.04-66.8 28.76-98.7.32-2.3.64-4.7.97-7" style="fill:#811632;fill-opacity:1;fill-rule:nonzero;stroke:none" transform="matrix(.03528 0 0 -.03528 -210.738 310.289)"/><path d="M8622.6 6037c56.55-9 115.3 2.2 161.54 32.2 54.65 35.5 77.2 86 68.9 154.2l-.95 6.9c-2.58 17.4-7.13 36.1-13.57 55.8-43.56-25.6-92.25-40.9-135.96-41.8-21.86-.5-43.65 2.9-64.55 9.7 15.32-28.7 28.15-58 32.52-80.6 9.1-47-8.49-95.5-47.93-136.4m37.95-64c-36.18 0-72.62 6.4-106.94 19.4l-9.46 3.6-24.63 38.7 24.96 16.6c48.54 32.2 73.23 73.5 66.06 110.5-6.86 35.5-52.53 112.4-79.72 147.7l-16.97 22 53.39 49.9 20.82-23.3c30.66-34.4 71.57-53.7 113.19-52.7 42.17.9 93.41 20.8 133.68 51.9l31.58 24.4 15.3-36.9c15.55-37.4 25.9-73.1 30.76-105.9l1.08-7.8c11.34-92.6-21.04-164.3-96.25-213.2-45.77-29.7-101-44.9-156.85-44.9" style="fill:#211d1d;fill-opacity:1;fill-rule:nonzero;stroke:none" transform="matrix(.03528 0 0 -.03528 -210.738 310.289)"/><path d="M8165.94 6425.9c11.96-15.6 26.1-29.5 42.05-41 12.75-9.5 26.73-17.4 41.4-23.3l.23-.1c26.11-18.8 48.4-43.2 62-69.8l1.94-2.4c-17.7-15.3-32.81-32.2-43.56-49.3-33.81-53.6-30.94-123.9-1.79-178.1l.81-1.4-6.68-4c-48.55-47.7-121.43-35.9-177.01 2.8-57.29 40-82.06 108.1-93.75 178.1-19.6 117.4 142.19 209.4 174.36 188.5" style="fill:#cf3456;fill-opacity:1;fill-rule:nonzero;stroke:none" transform="matrix(.03528 0 0 -.03528 -210.738 310.289)"/><path d="M8149.34 6398.5c-15.82-2.4-55.19-19.8-88.65-54.8-21.88-22.9-46.47-59.1-39.42-101.4 12.92-77.4 39.5-129.2 81.27-158.3 35.98-25.1 89.5-42.2 128.84-14.3-24.97 62.1-20.47 133 13.15 186.4 8.05 12.8 18.39 25.7 30.46 38.1-10.32 14.8-24 28.7-39.86 40.6l-9.08 3.6-.26.7c-12.51 6-24.48 13.3-35.71 21.6-14.92 10.8-28.64 23.5-40.74 37.8m34.25-403.1c-37.65 0-77.96 13.1-115.47 39.2-55.76 38.9-90.5 103.6-106.22 197.8-13.92 83.4 45.17 155 105.11 194.2 17.91 11.7 79.15 48.1 115.38 24.5l4.31-2.8 3.14-4.1c10.24-13.4 22.29-25.2 35.82-35 7.59-5.6 15.5-10.5 23.7-14.6l3.44 1.6 11.45-8.2 8.59-3.5 1.51-3.9c26.4-20.4 48.3-45.7 62.46-72.2l18.75-22.5-22.27-19.3c-15.86-13.8-28.94-28.5-37.83-42.6-26.21-41.6-26.6-99.4-1.02-147.3l15.78-26.5-29.5-17.8c-26.49-24.6-60.55-37-97.13-37" style="fill:#211d1d;fill-opacity:1;fill-rule:nonzero;stroke:none" transform="matrix(.03528 0 0 -.03528 -210.738 310.289)"/><path d="M9107.46 6558.7c-3.27-32.7-26.18-77.9-51.62-99l-1.72-1c-8.93 16.7-20.38 31.7-35.58 42.5-23.8 16.9-77.09 15.1-101.17-2.7l-.16-.1c-23.58 58.6-79.31 129.5-132.87 153.4-10.11 4.5-21.12 7.1-32.67 8.1-7.41.7-15.01.6-22.74-.1-.35 4.1.81 16.9 3.76 21.6 4.62-.8 9.17-1.3 13.81-1.4 54.66-1.3 113.41 43.2 153.95 100.7 50.42-5.5 133.75-38.9 165.31-78.4 31.51-39.7 46.78-92.2 41.7-143.6" style="fill:#811632;fill-opacity:1;fill-rule:nonzero;stroke:none" transform="matrix(.03528 0 0 -.03528 -210.738 310.289)"/><path d="M8971.54 6543.5c24.4 0 48.37-5.8 64.7-17.4 7.26-5.1 14.09-11.2 20.45-18.1 10.54 17 18.76 37.7 20.37 53.7 4.32 43.7-8.51 88-35.2 121.6-22.04 27.5-82.93 55-127.94 64.3-28.48-36.3-61.04-63.8-94.38-80.3 45.57-29.1 87.36-81.3 112.65-129 12.45 3.4 25.96 5.2 39.35 5.2m70.58-127.1-14.92 27.9c-7.75 14.4-16.38 24.9-26.38 32-12.71 9.1-51.75 7.7-65.23-2.4l-2.93-2.1-32.01-13.6-11.77 28.8c-22.91 56.9-75.39 118.3-116.99 136.9-6.63 2.9-14.38 4.8-23 5.6-5.29.5-11.09.4-17.12-.1l-30.73-2.9-2.55 30.7c-.42 5.1-.25 26.6 8.26 40.3l11.01 17.8 20.52-3.9c2.75-.5 5.74-.8 9.44-.9 38.75-.9 89.52 33.5 127.77 87.8l10.35 14.6 17.88-1.9c52.38-5.6 146.14-39.9 185.9-89.7 36.55-45.9 54.11-106.3 48.24-165.6l-.01-.1c-4.13-41.4-31.61-93.9-62.54-119.4l-5.87-3.9z" style="fill:#211d1d;fill-opacity:1;fill-rule:nonzero;stroke:none" transform="matrix(.03528 0 0 -.03528 -210.738 310.289)"/><path d="M8571.11 6768c-46.72 56-23.74 164.1 27.91 240.7l.4.4c1.54 2 3.01 4.2 4.34 6.4l.32.4c25.34 35.4 56.93 63.1 90.21 74.1 105.74 35 231.58-35.1 254.57-143.9 10.52-49.4-11.32-112.9-48.41-165.4-40.54-57.5-99.29-102-153.95-100.7-4.64.1-9.19.6-13.81 1.4l-2.1.3c-60.22 11.9-120.16 39.2-159.48 86.3" style="fill:#db5e80;fill-opacity:1;fill-rule:nonzero;stroke:none" transform="matrix(.03528 0 0 -.03528 -210.738 310.289)"/><path d="M8736.17 6711.3h.08zm-1.09.2 3.12-.5c2.76-.5 5.78-.8 9.51-1h1.52c39.1 0 88.79 34.3 126.62 88 34.97 49.5 51.66 103.8 43.57 141.8-9.04 42.8-38.26 81.1-80.19 105.1-43.06 24.8-92.44 30.8-135.47 16.5-24.74-8.2-50.71-29.6-73.4-60.5l-3.5-8-2.98-1.3-.69-.9c-48.73-73.1-61.77-164-28.98-203.4 30.76-36.8 80.75-63.7 140.87-75.8m13.71-61.7c-1 0-1.99 0-2.98.1-6.59.2-11.98.8-17.2 1.7l-2.21.3-1.64.3c-74.19 14.6-136.97 48.9-176.76 96.6-58.29 69.8-31.01 192 26.07 276.7l1.96 2.6 1.43 2.1.96 1.6 4.42 7.5 1.59.7c21.89 29 55.91 63.8 100.41 78.5 59.24 19.7 126.46 11.9 184.36-21.4 56.78-32.5 96.54-85.4 109.11-144.8 11.64-54.6-8.27-125.3-53.27-189-50.25-71.3-115.92-113.5-176.25-113.5" style="fill:#211d1d;fill-opacity:1;fill-rule:nonzero;stroke:none" transform="matrix(.03528 0 0 -.03528 -210.738 310.289)"/><path d="M8297.61 6921.3c44.23-29.2 97.18-44.7 135.67-28.9 60.41 24.9 124.79 64.6 165.74 116.3-51.65-76.6-74.63-184.7-27.91-240.7 39.32-47.1 99.26-74.4 159.48-86.3l2.1-.3c-2.95-4.7-4.11-17.5-3.76-21.6-75.12-6.3-165.03-70.4-198.54-140.1l-4.19 2c-2.98 1.6-5.95 3.1-8.92 4.6l-3.12.5c4.16 30.1-1.1 59.6-18.86 84.7-26.84 37.6-100.1 98.2-141.91 117.3-45.71 20.8-96.51 5.7-138.28-27.5l-.18.2c66.74 52.1 115.28 149.6 82.68 219.8" style="fill:#2f1418;fill-opacity:1;fill-rule:nonzero;stroke:none" transform="matrix(.03528 0 0 -.03528 -210.738 310.289)"/><path d="M8736.24 6711.7h.09zm-426.04 57.2c19.27-.1 38.09-4.2 55.87-12.3 46.5-21.3 124.26-85.5 154.1-127.4 8.96-12.6 15.64-26.5 19.96-41.2 31.33 35.5 73.18 65.7 116.33 84-44.4 18-81.86 44.2-108.8 76.5-33.3 39.9-38.76 96.8-26.71 154.1-29-17.7-56.34-30.3-76.03-38.4-30.07-12.4-67.6-11.1-106.54 2.6-1.06-32.9-11.51-66.7-28.18-97.9m234.55-289.8-36.85 17.7-28.18 3.9 4.18 30.2c3.36 24.4-1.19 45.5-13.52 62.9-23.67 33.2-92.78 90.3-129.69 107.2-44.13 20.1-89.21-9.8-106.55-23.6l-23.58-18.8-38.89 47.5 24.47 19.5c56.25 43.9 99.31 127.8 73.77 182.9l-45.35 97.7 89.88-59.4c39.84-26.3 81.92-36.5 107.23-26.1 64.72 26.6 120.65 65.6 153.43 107l49.26-36.1c-49.29-73.1-62.66-164.6-29.8-204 30.68-36.7 80.57-63.6 140.57-75.7l52.01-.7-27.08-43.6c-.36-1.9-.66-4.7-.65-6.1l2.54-30.4-30.46-1.8c-63.57-5.3-144.67-62.7-173.57-122.8z" style="fill:#211d1d;fill-opacity:1;fill-rule:nonzero;stroke:none" transform="matrix(.03528 0 0 -.03528 -210.738 310.289)"/><path d="M8433.28 6892.4c-38.49-15.8-91.44-.3-135.67 28.9-2.5 5.6-5.61 11-9.32 16.2-13.05 18.7-37.6 41.3-64.71 62.4-2.95 5.8-5.27 11.6-7 17.4-26.28 88.9 49.65 182.2 135.6 218.6 63.2 26.8 137.67 33.1 197.07 1.3 57.07-30.3 90.38-162.7 54.83-221.3l-.32-.4c-1.47-2.1-2.97-4.2-4.34-6.4l-.4-.4c-40.95-51.7-105.33-91.4-165.74-116.3" style="fill:#cf3456;fill-opacity:1;fill-rule:nonzero;stroke:none" transform="matrix(.03528 0 0 -.03528 -210.738 310.289)"/><path d="M8320.79 6942.3c37.93-23.3 76.99-32 101.02-22.1 64.56 26.6 120.37 65.5 153.25 106.7.92 1.4 1.87 2.8 2.83 4.1l1 1.5c12.22 21.2 13.02 62.2 1.93 102.6-10.01 36.5-27.95 66.1-45.72 75.6-45.83 24.5-109.81 23.5-171.16-2.5-73.68-31.3-139.93-109.8-118.5-182.4.66-2.2 1.46-4.4 2.38-6.6 21.96-17.5 49.2-41.6 65.15-64.5 2.84-3.9 5.46-8.1 7.82-12.4m112.49-49.9h.1zm-34.31-36.3c-36.56 0-78.05 13.8-117.94 40.1l-7.28 4.8-3.59 8c-1.69 3.7-3.85 7.5-6.43 11.1-10.18 14.6-31.5 35-58.63 56.1l-5.24 4.1-3.04 5.9c-3.73 7.2-6.79 14.8-9.09 22.5-31.27 105.8 53.09 212.7 152.7 254.9 79.09 33.6 160.38 33.6 223 .2 33.09-17.6 60.6-58.7 75.44-112.7 15.81-57.6 12.81-113-7.94-148.9l-4.07-9.3-3.03-1.5-1.4-1.7c-53.23-67.1-134.18-107.2-177.67-125.1h-.03c-13.86-5.7-29.31-8.5-45.76-8.5" style="fill:#211d1d;fill-opacity:1;fill-rule:nonzero;stroke:none" transform="matrix(.03528 0 0 -.03528 -210.738 310.289)"/><path d="M8160.33 6628.3c-136.46 182.2-493.77 2.3-387.23-227.7 67.87-146.6 282.73-171.8 375.74-26.2 53.2 83.2 24.45 161.6 11.49 253.9" style="fill:#cf3456;fill-opacity:1;fill-rule:nonzero;stroke:none" transform="matrix(.03528 0 0 -.03528 -210.738 310.289)"/><path d="M8004.39 6672.9c-42.3 0-85.84-13.1-122.5-35-67.06-40-128.63-122.9-81.48-224.7 28-60.4 88.35-100.9 157.51-105.6 67.46-4.6 129.45 26.5 165.56 83 37.28 58.3 27.53 113.6 15.2 183.7-2.38 13.5-4.83 27.4-6.98 41.7-32.93 40.1-79.33 56.9-127.31 56.9m-33.22-425.9c-5.74 0-11.5.2-17.31.6-91.1 6.1-170.83 59.9-208.08 140.3-59.86 129.3 9.73 244.7 105.25 301.7 103.35 61.7 251.05 66.7 333.39-43.3l4.64-6.2 1.08-7.7c2.27-16.1 5.09-32.2 7.82-47.7 12.86-73 26.15-148.5-23.75-226.5-45.02-70.5-120.02-111.2-203.04-111.2" style="fill:#211d1d;fill-opacity:1;fill-rule:nonzero;stroke:none" transform="matrix(.03528 0 0 -.03528 -210.738 310.289)"/><path d="M8917.21 6498.4c1.86-4.4 3.42-8.7 4.86-13 18.42-55.6-15.97-111.9-68.47-152.3-44.58-34.4-102.17-57.2-151.72-58.3-52.51-1.1-101.99 24.1-136.62 62.9-32.78 36.7-52.17 85.6-48.23 135.8.46 6.3 1.55 12.7 3.24 19 2.35 9.1 5.73 18.2 10.12 27.2 33.51 69.7 123.42 133.8 198.54 140.1 7.73.7 15.33.8 22.74.1 11.55-1 22.56-3.6 32.67-8.1 53.56-23.9 109.29-94.8 132.87-153.4" style="fill:#811632;fill-opacity:1;fill-rule:nonzero;stroke:none" transform="matrix(.03528 0 0 -.03528 -210.738 310.289)"/><path d="M8741.37 6629.8c-3.1 0-6.32-.1-9.6-.4-63.85-5.4-144.95-62.8-173.85-122.9-3.54-7.3-6.22-14.5-8.07-21.6-1.27-4.8-2.04-9.3-2.35-13.6-3.12-39.7 11.67-80.9 40.55-113.2 30.67-34.4 71.67-53.9 113.2-52.7 42.17.9 93.41 20.8 133.68 51.9 18.25 14 76.24 63.9 58.15 118.5-1.16 3.4-2.43 7-3.98 10.6l-.22.6c-22.91 56.9-75.39 118.3-116.99 136.9-6.63 2.9-14.38 4.8-23 5.6-2.41.2-4.93.3-7.52.3m-42.74-385.6c-57.82 0-114.52 26.6-156.16 73.2-39.92 44.7-60.29 102.4-55.89 158.5.57 7.9 1.97 16.2 4.17 24.4 2.82 11 6.95 22.1 12.2 32.8 38.17 79.4 138.43 150 223.41 157.1 9.43.9 18.94 1 27.99.2 15.41-1.4 29.66-5 42.44-10.7 63.56-28.4 123.97-108.5 148.65-169.6 2.13-5.1 3.93-10.1 5.59-15 20.8-62.7-8.68-132.3-78.81-186.2-50.79-39.2-114.23-63.4-169.66-64.6-1.31-.1-2.62-.1-3.93-.1" style="fill:#211d1d;fill-opacity:1;fill-rule:nonzero;stroke:none" transform="matrix(.03528 0 0 -.03528 -210.738 310.289)"/><path d="M8297.61 6921.3c32.6-70.2-15.94-167.7-82.68-219.8-7.19-5.7-14.51-10.7-22.06-15.2-43.08-25.5-94.86-32.8-143.01-23.6-1.12.2-2.28.5-3.52.8-43.31 9-83.44 31.5-111.4 65.8-51.16 63.1-57.63 160.1-15.3 231.9 42.44 71.8 136.95 131 210.82 97.9 24.73-11.1 54.76-15 87.05-40.1 14.83-5.8 42.15-35.5 55.78-49.5 12.25-12.5 14.8-27 24.32-48.2" style="fill:#cf3456;fill-opacity:1;fill-rule:nonzero;stroke:none" transform="matrix(.03528 0 0 -.03528 -210.738 310.289)"/><path d="M8085.14 7038.4c-51.44 0-110.1-42.6-139.59-92.5-35.96-61-30.59-144.1 12.78-197.7 22.55-27.6 56.02-47.3 94.16-55.3l2.79-.6c42.71-8.1 87.16-.9 122.22 19.9 6.38 3.8 12.7 8.1 18.83 13 56.46 44 99.61 128.2 73.98 183.5l-.14.3c-3.06 6.8-5.46 12.9-7.67 18.6-4.33 11.1-6.6 16.7-10.77 20.9l-5.64 5.9c-8.59 8.9-31.43 32.6-39.77 36.6l-4.15 1.6-3.16 2.6c-18.41 14.4-35.78 20.2-54.17 26.4-8.77 3-17.83 6-26.69 10-10.37 4.7-21.51 6.8-33.01 6.8m5.47-409.7c-15.39 0-30.92 1.5-46.41 4.5-.76.1-1.8.3-2.87.6l-1.02.2c-51.73 10.8-97.4 37.9-128.7 76.3-59.62 73.5-66.96 183-17.9 266.2 49.89 84.3 159.28 150.3 249.08 110 6.2-2.8 13.53-5.2 21.3-7.8 19.5-6.6 43.6-14.7 69.01-33.8 16.66-8.3 35.47-27.1 56.36-48.8l5.37-5.5c12.92-13.3 18.44-27.5 23.78-41.2 1.84-4.7 3.83-9.9 6.38-15.6 39.27-84.9-15.67-196.8-91.53-256-8.14-6.4-16.67-12.3-25.28-17.4-35.21-20.9-75.81-31.7-117.57-31.7" style="fill:#211d1d;fill-opacity:1;fill-rule:nonzero;stroke:none" transform="matrix(.03528 0 0 -.03528 -210.738 310.289)"/><path d="M8249.62 6361.5c31.75-13.3 66.79-17.9 101.32-10.7 10.45 2.2 20.81 5.5 30.91 9.8 59.58 25.3 111.24 84.6 128 145.5 1.94 6.9 3.32 13.8 4.31 20.7 4.16 30.1-1.1 59.6-18.86 84.7-26.84 37.6-100.1 98.2-141.91 117.3-45.71 20.8-96.51 5.7-138.28-27.5-31.99-25.4-58.7-61.4-73.78-100.1-8.43-21.7-13.34-44.1-13.46-66-.29-40.1 14.16-77.9 37.81-109l.26-.3c11.96-15.6 26.1-29.5 42.05-41 12.75-9.5 26.73-17.4 41.4-23.3z" style="fill:#db5e80;fill-opacity:1;fill-rule:nonzero;stroke:none" transform="matrix(.03528 0 0 -.03528 -210.738 310.289)"/><path d="M8261.28 6389.2c27.59-11.5 56.47-14.5 83.51-8.9 8.28 1.7 16.75 4.4 25.34 8 50.7 21.5 96.25 73.3 110.7 125.8 1.53 5.4 2.68 10.9 3.53 16.9 3.36 24.3-1.22 45.6-13.62 63.1-23.7 33.2-92.91 90.4-129.86 107.3-44.36 20.2-89.61-9.8-107.02-23.7-27.99-22.2-51.47-54-64.48-87.4-7.48-19.2-11.32-37.8-11.42-55.3-.22-31.7 10.73-63 31.68-90.6 10.44-13.6 22.49-25.4 36.02-35.2 11.04-8.1 22.76-14.7 35.07-19.7zm56.62-71.9c-26.73 0-53.81 5.5-79.87 16.4l-.21.1c-16.89 6.9-32.95 15.9-47.74 26.9-18 13-34.25 28.9-48.03 46.9-29.41 38.6-44.61 82.7-44.28 127.8.14 24.8 5.36 50.6 15.51 76.7 17.01 43.7 46.54 83.8 83.13 112.8 55.1 43.8 116.89 55.2 169.47 31.3 46.45-21.3 124.12-85.5 153.93-127.2 21.29-30.1 29.63-66.8 24.17-106.4-1.26-8.8-2.94-16.8-5.14-24.7-19.27-69.9-77.64-136.3-145.22-165-12.33-5.2-24.66-9.1-36.69-11.6-12.81-2.6-25.89-4-39.03-4" style="fill:#211d1d;fill-opacity:1;fill-rule:nonzero;stroke:none" transform="matrix(.03528 0 0 -.03528 -210.738 310.289)"/><path d="M8979.02 5816.3s12.87 145.5 101.18 179.7c88.32 34.3 259.16-67.3 271.01-122.5s-10.94-191.8-65.69-229.9-262.99-21.9-296.52 48.4-9.98 124.3-9.98 124.3" style="fill:#811632;fill-opacity:1;fill-rule:nonzero;stroke:none" transform="matrix(.03528 0 0 -.03528 -210.738 310.289)"/><path d="M9007.13 5804.3c-1.01-2.5-16.87-43.9 9.45-99.1 5.33-11.2 26.52-27.3 70-38.8 71.5-18.9 157.75-14.2 181.5 2.3 40.54 28.2 63.8 149.3 53.26 198.4-2.13 9.9-28.48 40.5-82.38 69.6-57.74 31.1-115.72 43.3-147.71 30.8-57.59-22.3-78.57-118.7-81.8-153.9l-.45-4.9zm178.29-211.2c-39.25 0-80.44 5.2-114.5 14.3-39.37 10.4-90.32 31.3-109.48 71.5-33.26 69.7-18.32 127.1-12.39 144.4 3.09 26.7 23.58 163.8 120.12 201.2 71.24 27.6 162.75-14.6 198.79-34.1 23.72-12.8 101.96-58.5 113.11-110.5 13.59-63.3-9.47-213.6-78.11-261.4-25.57-17.8-70.13-25.4-117.54-25.4" style="fill:#211d1d;fill-opacity:1;fill-rule:nonzero;stroke:none" transform="matrix(.03528 0 0 -.03528 -210.738 310.289)"/><path d="M9310.76 6052.3s12.86 145.5 101.17 179.7c88.32 34.2 259.16-67.3 271.01-122.5s-10.94-191.8-65.68-229.9c-54.76-38.1-262.99-21.9-296.52 48.4s-9.98 124.3-9.98 124.3" style="fill:#fff;fill-opacity:1;fill-rule:nonzero;stroke:none" transform="matrix(.03528 0 0 -.03528 -210.738 310.289)"/><path d="M9310.76 6052.3h.09zm27.68-11.8c-1.11-2.8-16.86-44.3 9.47-99.5 5.37-11.3 26.66-27.5 70.29-39 71.59-19 158.04-14.3 181.87 2.3 40.65 28.3 64.01 149.7 53.45 198.9-2.15 10-28.58 40.7-82.63 69.8-57.85 31.3-115.97 43.4-148.07 30.9-68.93-26.7-81.97-153-82.08-154.3l-.43-4.9zm178.74-211c-39.2 0-80.37 5.3-114.41 14.3-39.28 10.4-90.1 31.2-109.2 71.2-33.22 69.7-18.25 127.1-12.35 144.2 3.07 26.5 23.48 163.5 119.84 200.9 71.07 27.5 162.43-14.7 198.41-34.1 23.68-12.7 101.79-58.4 112.9-110.2 13.57-63.2-9.44-213.3-77.93-260.9-25.5-17.8-69.94-25.4-117.26-25.4" style="fill:#211d1d;fill-opacity:1;fill-rule:nonzero;stroke:none" transform="matrix(.03528 0 0 -.03528 -210.738 310.289)"/><path d="M8946.09 5574.3c-59.35-8.6-112.49 33-147.76 91.9-41.47 69.1-58.33 161.9-31.74 225.9 15.86 38.2 46.66 67.5 83.78 85.3l1.52.8c59.47 28.5 134.87 28 190.59-10.9 17.72-12.4 35-29.5 50.53-49.2 19.86-25 37.01-54.6 49.13-85 27.39-68.4 29.66-140.8-19.85-175.4-38.51-26.9-129.16-76.6-176.2-83.4" style="fill:#db5e80;fill-opacity:1;fill-rule:nonzero;stroke:none" transform="matrix(.03528 0 0 -.03528 -210.738 310.289)"/><path d="M8939.78 5968.2c-25.18 0-50.99-5.7-74.9-17.1l-1.44-.8c-32.3-15.5-56.82-40.3-69.06-69.8-21.6-51.9-9.37-133.7 29.75-198.7 15.7-26.3 58.56-86.2 117.65-77.7h.03c38.76 5.6 123.92 50.8 163.25 78.3 37.44 26.2 29.28 89.2 9.14 139.5-11.04 27.7-26.51 54.5-44.78 77.5-14.1 17.9-29.36 32.8-44.19 43.2-24.29 17-54.38 25.6-85.45 25.6m-9.58-425.1c-59.6 0-116.19 38.3-157.7 107.7-49.07 81.6-62.63 183.3-33.71 252.9 17.85 42.9 52.65 78.6 98.03 100.6l1.2.7c73.56 35.1 160.23 29.9 221.69-13.1 19.62-13.7 39.3-32.7 56.95-55.2 21.78-27.4 40.28-59.4 53.44-92.4 37.19-92.9 25.77-171.9-30.55-211.3-37.34-26-134.24-80.6-189.13-88.5-6.76-1-13.52-1.4-20.22-1.4" style="fill:#211d1d;fill-opacity:1;fill-rule:nonzero;stroke:none" transform="matrix(.03528 0 0 -.03528 -210.738 310.289)"/><path d="M9086.41 5095.7c-39.21 9-76.41 34.2-93.12 70.6-16.67 36.3-14.6 97.2 12.19 140.5l-7.77 4.6 7.59.6c34.37 3.5 70.42 12.6 107.1 25.8 40.53-58.3 99.13-97.9 159.53-81.1 4.66 1.4 9.37 2.8 14.16 4.6l.07-.2c17.93-26.7 17.13-83.8-2.18-108.4-12.36-15.7-29.05-27.2-47.34-35.9-10.28-5-21.18-9.1-32.04-12.5-37.86-11.9-78.88-17.5-118.19-8.6" style="fill:#9f1d3b;fill-opacity:1;fill-rule:nonzero;stroke:none" transform="matrix(.03528 0 0 -.03528 -210.738 310.289)"/><path d="M9093.21 5125.5c29.65-6.7 64.06-4 102.22 8 10.43 3.2 19.78 6.8 27.91 10.7 16.35 7.8 28.28 16.7 36.64 27.4 7.71 9.8 10.24 33.9 7.35 52.8-57.73-10.2-117.9 17.9-166.05 77.4-25.61-8.2-50.23-14.1-73.57-17.7-18.14-34.7-17.95-80.4-6.66-105 11.71-25.6 39.36-46.1 72.16-53.6m33.65-64.7c-16.36 0-32.12 1.7-47.21 5.2h-.04c-51.69 11.8-94.34 44.5-114.09 87.6-18.43 40.1-17.72 95.4.11 141.2l-65.41 38.6 102.27 9.1c30.01 2.9 63.57 11.1 99.54 24l22.05 8 13.39-19.2c14.26-20.6 65.53-86.1 126.25-69.1 3.76 1 7.75 2.3 11.81 3.8l28.85 10.6 9.39-26c23.16-38.8 20.73-107-5.75-140.8-14.14-18-33.72-33-58.24-44.6-10.73-5.2-22.94-10-36.15-14-30.36-9.6-59.4-14.4-86.77-14.4" style="fill:#211d1d;fill-opacity:1;fill-rule:nonzero;stroke:none" transform="matrix(.03528 0 0 -.03528 -210.738 310.289)"/><path d="M9286.09 5261.3c-4.79-1.8-9.5-3.2-14.16-4.6-60.4-16.8-119 22.8-159.53 81.1-34.56 49.5-56.02 112.3-54.68 165.4 1.51 56.2 31.02 107.9 74.33 143 40.96 33.2 94.22 51.5 147.74 44.7 6.73-.8 13.51-2.3 20.2-4.4 9.62-3 19.23-7.1 28.63-12.2 72.88-39.4 136.88-138.9 139.83-219.7.37-8.3.08-16.4-1.01-24.3-1.71-12.3-5.06-24-10.41-34.6-28.31-56.1-107.03-112.2-170.94-134.4" style="fill:#db5e80;fill-opacity:1;fill-rule:nonzero;stroke:none" transform="matrix(.03528 0 0 -.03528 -210.738 310.289)"/><path d="M9257.73 5662.2c-37.31 0-75.3-13.9-106.72-39.4-38.95-31.5-61.99-75.4-63.2-120.4-1.15-45.7 17.72-102.2 49.26-147.4 14.34-20.6 65.76-86.3 126.76-69.3 3.78 1.1 7.79 2.3 11.85 3.8l.52.2c62.63 21.8 131.7 75.5 153.96 119.6 3.64 7.2 6.15 15.7 7.47 25.1.8 5.8 1.05 12.2.75 18.9-2.54 69.3-60.51 160.1-124.08 194.5-7.7 4.2-15.45 7.5-23.21 10-5.17 1.6-10.12 2.7-14.89 3.3-6.12.7-12.28 1.1-18.47 1.1m-13.87-439.4c-55.92 0-112.26 34.7-156.17 97.8-39.08 55.9-61.54 124.5-60.06 183.3 1.69 62.7 32.84 123.1 85.47 165.7 49.31 40 111.45 58.7 170.47 51.2 8.31-1 16.95-2.9 25.5-5.6 11.46-3.5 22.97-8.5 34.05-14.5 82.3-44.6 152.1-154.5 155.41-245 .45-10.1.03-20.1-1.27-29.5-2.23-16.1-6.72-30.9-13.35-44.1-33.3-65.9-121.48-126-187.67-149.2-5.43-1.9-10.77-3.6-16.03-5.1-12.01-3.3-24.17-5-36.35-5" style="fill:#211d1d;fill-opacity:1;fill-rule:nonzero;stroke:none" transform="matrix(.03528 0 0 -.03528 -210.738 310.289)"/><path d="M8997.71 5311.4c-78.16-5.9-146.91 19.5-192.59 97.7-45.06 77.3-46.85 174.4-12.13 254.1l5.34 3c35.27-58.9 88.41-100.5 147.76-91.9 47.04 6.8 137.69 56.5 176.2 83.4l9.76-11.5c-43.31-35.1-72.82-86.8-74.33-143-1.34-53.1 20.12-115.9 54.68-165.4-36.68-13.2-72.73-22.3-107.1-25.8z" style="fill:#cf3456;fill-opacity:1;fill-rule:nonzero;stroke:none" transform="matrix(.03528 0 0 -.03528 -210.738 310.289)"/><path d="M8805.6 5605.4c-14.11-62.1-5.33-128.2 25.52-181.1 35.8-61.3 89.47-88.4 164.12-82.9l7.28.6c19.96 2 41.47 6.3 64.22 12.7-26 48.3-40.3 101.9-39.11 149.2.69 25.5 6.23 50.5 16.1 74.2-33.4-16.2-67.89-29.9-93.34-33.6-52.13-7.5-103.01 14.3-144.79 60.9m170.79-325c-86.93 0-153.22 38.1-197.26 113.5-48.11 82.5-53.36 190.3-13.73 281.3l3.98 9.2 39.64 22.6 15.15-25.3c15.66-26.2 58.52-86.1 117.61-77.6 38.79 5.6 123.96 50.8 163.28 78.3l22.44 15.6 47.43-55.8-23.93-19.4c-38.94-31.5-61.98-75.4-63.19-120.4-1.15-45.7 17.72-102.2 49.26-147.4l22.51-32.2-36.97-13.3c-40.67-14.7-79.13-23.9-114.32-27.4l-8.35-.8q-12.015-.9-23.55-.9" style="fill:#211d1d;fill-opacity:1;fill-rule:nonzero;stroke:none" transform="matrix(.03528 0 0 -.03528 -210.738 310.289)"/><path d="M9246.7 6069.2c-17.31-12-32.83-26.5-46.02-42.9-10.75-13.2-19.91-27.8-27.04-43.2l-.12-.2c-21.37-27-48.65-49.6-77.89-62.8l-2.62-2c-15.53 19.7-32.81 36.8-50.53 49.2-55.72 38.9-131.12 39.4-190.59 10.9l-1.52-.8-3.95 7.4c-48.6 54.4-32.26 131.8 12.04 189.3 45.67 59.3 119.83 82.4 195.36 91.3 126.71 15 216.99-162.8 192.88-196.2" style="fill:#cf3456;fill-opacity:1;fill-rule:nonzero;stroke:none" transform="matrix(.03528 0 0 -.03528 -210.738 310.289)"/><path d="M9246.7 6069.2h.1zm-306.87-41c43.38 0 85.56-12.3 119.88-36.3 13.59-9.4 27.21-21.5 40.17-35.5 17.25 10.6 33.81 25.3 47.96 42.6h.02c1.21 2.5 2.46 5 3.76 7.5l.72 1.3c7.09 13.2 15.48 25.8 25.03 37.5 12.48 15.6 27.01 29.8 43.17 42.1-1.18 16.3-17.09 59.3-52.8 97.9-24.1 26-62.75 55.8-110.38 50.2-84.13-9.9-141.39-36-175.06-79.7-29.45-38.3-51-96.5-21.02-141.2 25.63 9.1 52.32 13.6 78.55 13.6m147.74-151.8-18.2 23.1c-14.05 17.8-29.31 32.7-44.14 43.1-43.98 30.7-106.91 34.1-160.35 8.5l-.24-.2-26.52-14.2-16.63 30.9c-50.29 59.3-45.22 149.1 13.12 224.9 44.07 57.2 114.61 90.8 215.67 102.8 88.94 10.4 161.85-55.8 200.41-121.4 11.45-19.5 46.78-85.9 20.41-122.3l-3.01-4.2-4.23-2.9c-15.02-10.5-28.36-22.9-39.67-37-6.97-8.6-13.02-17.5-18.16-26.9l1.19-3.6-7.88-10-3.92-8.4-3.99-1.3c-23.1-27.3-51.24-49.5-80.27-63.2h-.07z" style="fill:#211d1d;fill-opacity:1;fill-rule:nonzero;stroke:none" transform="matrix(.03528 0 0 -.03528 -210.738 310.289)"/><path d="M9340.93 5054.6c-34.83 5.1-82.08 32-103.31 60.3l-.98 1.9c18.29 8.7 34.98 20.2 47.34 35.9 19.31 24.6 20.11 81.7 2.18 108.4l-.07.2c63.91 22.2 142.63 78.3 170.94 134.4 5.35 10.6 8.7 22.3 10.41 34.6 1.09 7.9 1.38 16 1.01 24.3 4.47.2 18.02-1.7 22.96-5.1-1.15-4.9-1.83-9.8-2.25-14.7-4.16-58.5 40.47-123.6 99.94-169.9-8.36-53.7-48.44-141.2-92.33-173-44.02-31.7-101.05-45.4-155.84-37.3" style="fill:#811632;fill-opacity:1;fill-rule:nonzero;stroke:none" transform="matrix(.03528 0 0 -.03528 -210.738 310.289)"/><path d="M9345.38 5084.8c47.14-7 95.79 4.7 133.54 31.9 31.27 22.6 64.4 87.9 76.55 136.2-38.94 33.4-67.43 71.1-83.15 108.8-33.14-48.7-93.13-92.3-146.74-117.2 9.01-37.8 2.92-84.6-17.56-110.7-6.37-8.1-13.85-15.6-22.39-22.4 18.38-13.1 41.64-23.9 59.76-26.6zm26.74-63.1c-11.89 0-23.8.9-35.64 2.6l-.02.1c-43.61 6.4-97.76 38.1-123.27 72.1l-3.64 6.1-14.62 28.1 28.58 13.6c16.18 7.7 28.11 16.6 36.47 27.3 10.95 13.9 11.46 56.7.83 72.5l-2.1 3.1-11.78 32.6 29.11 10.3c62.55 21.8 131.5 75.3 153.72 119.4 3.62 7.2 6.12 15.6 7.42 25 .8 5.7 1.05 12.1.75 18.8l-1.37 30.7 30.76 1.1c5.24.2 27.62-1 41.4-10.4l17.23-11.9-4.8-20.3c-.72-3.1-1.21-6.3-1.56-10.4-3.03-42.6 31.61-99 88.29-143.1l14.18-11.1-2.77-17.8c-8.64-55.4-49.8-153.3-104.61-193-41.02-29.5-91.5-45.4-142.56-45.4" style="fill:#211d1d;fill-opacity:1;fill-rule:nonzero;stroke:none" transform="matrix(.03528 0 0 -.03528 -210.738 310.289)"/><path d="M9592.37 5618c62.3 47.2 176.79 17.1 256.17-42.1l.47-.4c2.03-1.8 4.25-3.5 6.61-5l.43-.4c36.53-28.9 64.58-64.1 74.65-100.3 32.15-115-49.36-246.1-167.01-265.2-53.37-8.7-120.25 17.9-174.59 60.3-59.47 46.3-104.1 111.4-99.94 169.9.42 4.9 1.1 9.8 2.25 14.7l.4 2.2c15.78 63.9 48.15 126.6 100.56 166.3" style="fill:#811632;fill-opacity:1;fill-rule:nonzero;stroke:none" transform="matrix(.03528 0 0 -.03528 -210.738 310.289)"/><path d="m9521.78 5445.7-.63-3.2c-.72-3.1-1.21-6.3-1.56-10.4-3.03-42.6 31.61-99 88.29-143.1 51.6-40.3 109.41-61.1 150.87-54.2 46.73 7.5 89.65 37.2 117.82 81.2 28.92 45.3 37.93 98.3 24.72 145.6-7.62 27.3-29.59 56.6-61.98 82.8l-7.94 4.1-1.06 2.8-1.2 1h-.08c-76.29 56.4-173.92 74.9-218.22 41.4-41.35-31.3-72.93-83.9-89.03-148m220.97-273.3c-53.62 0-116.17 24.5-172.43 68.4-74.5 58-116.24 131.3-111.63 196.1.58 6.8 1.45 12.7 2.66 18.2l.46 2.4.35 1.6c19.34 78.2 59.04 143.4 111.77 183.3 77.06 58.3 205.66 23 292.87-42l2.67-2.2c.82-.7 1.7-1.4 2.63-2l1.17-.8 7.61-4.9.59-1.7c29.77-24.7 65.26-62.7 78.66-110.8 17.88-64 6.19-135-32.08-194.9-37.52-58.7-95.65-98.3-159.47-108.6-8.32-1.4-16.96-2.1-25.83-2.1" style="fill:#211d1d;fill-opacity:1;fill-rule:nonzero;stroke:none" transform="matrix(.03528 0 0 -.03528 -210.738 310.289)"/><path d="M9770.38 5903c-33.51-45.9-52.86-101.7-37.87-143.7 23.58-66 62.84-136.9 116.03-183.4-79.38 59.2-193.87 89.3-256.17 42.1-52.41-39.7-84.78-102.4-100.56-166.3l-.4-2.2c-4.94 3.4-18.49 5.3-22.96 5.1-2.95 80.8-66.95 180.3-139.83 219.7l2.34 4.4c1.8 3.1 3.61 6.2 5.41 9.3l.61 3.3c32.02-6 63.92-1.9 91.65 15.9 41.65 26.8 110.22 102.1 132.81 145.9 24.63 47.9 11.06 103-22.4 149.4l.24.2c52.35-74.1 154.26-131 231.1-99.7" style="fill:#2f1418;fill-opacity:1;fill-rule:nonzero;stroke:none" transform="matrix(.03528 0 0 -.03528 -210.738 310.289)"/><path d="M9395.88 5661.9c39.32-37 71.66-86.9 89.01-137.3 21.61 48.8 52.23 89.4 89.3 117.4 45.19 34.2 108.15 36.2 170.07 18.8-18.96 33.8-32.01 65.7-40.09 88.3-11.81 33.1-8.07 73.8 9.57 115.4-37.28 2.2-75.26 16.1-109.61 37.3-.57-21.8-5.84-42.9-15.93-62.5-24.96-48.4-97.27-127.8-143.28-157.4-15.11-9.7-31.59-16.4-49.04-20m122.31-267.3-41.86 28.7c-2.15.6-5.83 1.2-7.48 1.2l-30.09-1.1-.39 30.1c-2.53 69.1-60.5 159.9-124.07 194.3l-26.35 14.3 19.78 36.5 5.21 27.8 29.57-5.5c26.58-5 50.08-1.1 69.9 11.6 37.01 23.9 102.19 95.5 122.28 134.4 24.45 47.5-5.89 98.4-20.07 118l-17.44 24.2 48.75 35.8 17.93-24.8c44.71-63.3 133.79-114.2 195.15-89.2l98.27 40-62.6-85.6c-30.68-42-43.95-87.5-33.82-115.9 25.41-71.1 64.59-133.3 107.49-170.8l-37.8-46.8c-76.63 57.1-175.33 76.1-220.02 42.2-41.42-31.3-73.07-84-89.19-148.3z" style="fill:#211d1d;fill-opacity:1;fill-rule:nonzero;stroke:none" transform="matrix(.03528 0 0 -.03528 -210.738 310.289)"/><path d="M9732.51 5759.3c-14.99 42 4.36 97.8 37.87 143.7 6.08 2.4 12.02 5.5 17.82 9.2 20.67 13 46.14 38.1 70.09 66.1 6.3 2.8 12.66 5 18.94 6.6 96.51 23.6 192.47-62.4 227.07-156.3 25.5-69 28.4-149.1-8.6-211-35.4-59.6-178.75-88.5-239.65-47.5l-.43.4c-2.22 1.7-4.34 3.4-6.61 5l-.47.4c-53.19 46.5-92.45 117.4-116.03 183.4" style="fill:#811632;fill-opacity:1;fill-rule:nonzero;stroke:none" transform="matrix(.03528 0 0 -.03528 -210.738 310.289)"/><path d="M9874.07 5594.8c22.5-14.4 66.9-17.4 111.12-7.5 40.01 8.9 73.01 27 84.31 45.9 28.8 48.2 31.1 117.3 6.2 184.8-30 81.2-111.59 156.6-191.21 137.2-2.61-.6-5.23-1.5-7.84-2.4-19.77-22.6-46.92-50.6-72.18-66.5-4.51-2.9-9.23-5.5-14.03-7.8-27.3-40-38.72-82.2-29.16-109 25.32-70.8 64.27-132.8 106.95-170.2 1.48-1.1 2.93-2.2 4.38-3.3zm60.3-74.5c-37.04 0-69.97 8-93.82 23.5l-9.18 4.7-1.58 3.1-1.97 1.9c-68.68 60.3-107.2 148.3-124.07 195.5-17.21 48.2-1.52 112.5 41.96 172l5.23 7.2 8.25 3.2c4.2 1.7 8.43 3.9 12.56 6.5 16.26 10.2 39.29 32.1 63.35 60.2l4.39 5.2 6.15 2.8c7.86 3.5 16.03 6.4 24.26 8.4 114 27.9 223.2-67.3 263.1-175.3 31.7-85.9 27.7-172.4-11-237.3-20.3-34.1-65.3-61.2-123.45-74.2-22.08-5-43.76-7.4-64.18-7.4" style="fill:#211d1d;fill-opacity:1;fill-rule:nonzero;stroke:none" transform="matrix(.03528 0 0 -.03528 -210.738 310.289)"/><path d="M9770.38 5903c-76.84-31.3-178.75 25.6-231.1 99.7-5.69 8-10.71 16.1-15.1 24.4-25.18 47.4-30.33 103.2-18 154.3.27 1.2.63 2.4.97 3.7 11.87 45.9 37.98 87.7 76.12 115.9 70.18 51.6 174.35 53.6 249.06 4.6 74.64-49.1 133.28-153.3 94.01-230.7-13.12-25.9-18.8-57.8-47.37-91.1-6.88-15.6-40.09-43.3-55.74-57.2-14.09-12.5-29.73-14.5-52.85-23.6" style="fill:#cf3456;fill-opacity:1;fill-rule:nonzero;stroke:none" transform="matrix(.03528 0 0 -.03528 -210.738 310.289)"/><path d="M9710.41 6311c-39.31 0-78.31-11.5-109.32-34.2-31.19-23.1-54.22-58.3-64.8-99.2l-.77-2.9c-11.08-45.9-5.49-94.4 15.25-133.5 3.78-7.1 8.04-14 13.04-21 44.76-63.4 133.85-114.3 195.2-89.3l.32.1c7.38 2.9 14.06 5.2 20.2 7.2 12.43 4.2 18.63 6.4 23.73 10.9l6.53 5.8c10.17 8.8 37.16 32.5 41.75 41.3l1.8 4 2.79 3.2c16.53 19.2 23.75 37.7 31.39 57.2 3.59 9.2 7.31 18.7 11.97 27.9 30.69 60.5-19.48 149.7-83.7 191.9-31.12 20.4-68.39 30.6-105.38 30.6m13.7-446.8c-78.61 0-162.2 54.3-209.41 121.1-6.41 9-12.2 18.4-17.13 27.7-27.92 52.6-35.27 114.9-20.65 175.4.16.8.45 1.9.76 3l.28 1.1c14.07 54.4 45.1 101.5 87.43 132.7 81.06 59.6 197.59 61.8 283.44 5.6 86.96-57.2 151.57-176.5 104.35-269.5-3.34-6.6-6.37-14.4-9.6-22.6-7.98-20.4-17.86-45.7-39.39-71.7-9.55-17.1-30.51-36.2-54.76-57.4l-6.24-5.5c-14.5-12.9-29.77-18-44.53-23-5.2-1.7-10.85-3.6-17.1-6-18.4-7.5-37.78-10.9-57.45-10.9" style="fill:#211d1d;fill-opacity:1;fill-rule:nonzero;stroke:none" transform="matrix(.03528 0 0 -.03528 -210.738 310.289)"/><path d="M9463.66 6064.9c201.98 136.8 27.66 528.4-224.02 426.1-160.34-65.2-198.27-293.9-47.19-400.9 86.41-61.2 171.74-34.4 271.21-25.2" style="fill:#cf3456;fill-opacity:1;fill-rule:nonzero;stroke:none" transform="matrix(.03528 0 0 -.03528 -210.738 310.289)"/><path d="M9321.27 6477.6c-22.03 0-45.52-4.4-70.29-14.5-66.88-27.2-113.79-90.4-122.4-165-8.41-72.9 21.97-141.4 81.26-183.4 61.24-43.4 121.35-35.7 197.42-26 14.75 1.8 29.92 3.8 45.54 5.4 85.32 63.1 83.87 182.2 37.3 269.4-31.11 58.2-90.64 114.1-168.83 114.1m142.39-412.7h.09zm-141.41-43.8c-48.81 0-98.12 9.7-147.19 44.4-77.53 54.9-117.26 144.5-106.28 239.5 11.14 96.5 72.26 178.4 159.53 213.9 140.17 57 259.16-22.7 314.88-127.1 60.34-112.9 58.19-270-62.65-351.8l-6.41-4.4-7.71-.7c-17.44-1.6-34.78-3.8-51.55-5.9-30.53-3.9-61.48-7.9-92.62-7.9" style="display:inline;fill:#211d1d;fill-opacity:1;fill-rule:nonzero;stroke:none" transform="matrix(.03528 0 0 -.03528 -210.738 310.289)"/><path d="M9173.52 5982.9c-15.79-33.3-22.51-70.6-16.54-107.9 1.74-11.3 4.78-22.6 8.84-33.6 24.07-65.1 84.95-123.4 149.22-144.4 7.3-2.5 14.6-4.3 21.94-5.7 32.02-6 63.92-1.9 91.65 15.9 41.65 26.8 110.22 102.1 132.81 145.9 24.63 47.9 11.06 103-22.4 149.4-25.53 35.6-62.71 66-103.41 84.1-22.74 10.1-46.46 16.5-69.93 17.8-42.93 2.3-84.13-11.2-118.62-34.9l-.38-.3c-17.31-12-32.83-26.5-46.02-42.9-10.75-13.2-19.91-27.8-27.04-43.2z" style="fill:#db5e80;fill-opacity:1;fill-rule:nonzero;stroke:none" transform="matrix(.03528 0 0 -.03528 -210.738 310.289)"/><path d="M9200.71 5970c-13.91-29.4-18.75-60.6-14.01-90.3 1.41-9.1 3.88-18.4 7.37-27.9 20.71-56 74.31-107.9 130.33-126.2 5.82-2 11.76-3.5 18.29-4.8 26.38-4.9 49.89-1 69.72 11.7 37.01 23.9 102.19 95.5 122.28 134.4 24.45 47.5-5.89 98.4-20.07 118-22.55 31.4-55.79 58.4-91.22 74.2-20.4 9.1-40.34 14.2-59.3 15.2-34.4 1.8-69-8.4-99.95-29.6-15.32-10.7-28.67-23.1-39.96-37.2-9.42-11.6-17.18-23.9-23.24-37zm163.2-311.4c-10.6 0-21.44 1-32.45 3.1-9.31 1.8-17.73 4-25.92 6.7-73.31 24-140.86 89.3-167.95 162.5-4.88 13.3-8.37 26.6-10.36 39.5-6.65 41.6-.05 85 19.09 125.4l.1.2c8.17 17.6 18.58 34.2 30.95 49.3 14.73 18.4 32.35 34.9 52.17 48.6 42.51 29.3 90.04 43.1 137.8 40.5 26.3-1.4 53.42-8.2 80.55-20.3 45.54-20.3 86.6-53.7 115.6-94 43.65-60.6 52.67-126.5 24.71-180.8-24.96-48.4-97.27-127.8-143.28-157.4-24.07-15.4-51.62-23.3-81.01-23.3" style="fill:#211d1d;fill-opacity:1;fill-rule:nonzero;stroke:none" transform="matrix(.03528 0 0 -.03528 -210.738 310.289)"/><path d="M9869.66 4759s-39.42 144 31.24 210 266.7 33.1 297.3-15.3c30.7-48.3 57.6-187.6 19.8-244.7-37.8-57-238.72-119.9-295.02-65.2s-53.32 115.2-53.32 115.2" style="fill:#811632;fill-opacity:1;fill-rule:nonzero;stroke:none" transform="matrix(.03528 0 0 -.03528 -285.797 290.69)"/><path d="M9900.18 4757.7c-.06-3-.24-49 44.08-92 8.54-8.3 32.86-15.5 75.54-10.9 74.9 8 155.7 45.5 172.7 71.1 28.3 42.7 7.3 168.2-20.1 211.5-5.4 8.5-40.2 27.6-100 35.2-65.6 8.4-124.76-1.7-150.65-25.9-55.62-51.9-22.98-178.4-22.63-179.7l1.29-4.7zm94.69-165.4c-41.15 0-73.02 10-93.17 29.6-55.95 54.3-62.06 114.8-62.56 133.1-6.44 26.2-35.83 164.7 40.91 236.3 39.83 37.2 114.66 52.9 200.15 41.9 26.5-3.4 115.2-18 143.8-63.1 35-55.2 66.5-207 19.4-278-33-49.7-138.4-89.6-217.1-98.1-11-1.1-21.5-1.7-31.43-1.7" style="fill:#211d1d;fill-opacity:1;fill-rule:nonzero;stroke:none" transform="matrix(.03528 0 0 -.03528 -285.797 290.69)"/><path d="M10097.1 5109.6s-39.4 144.1 31.2 210c70.7 66 266.7 33.1 297.3-15.2 30.7-48.4 57.7-187.7 19.8-244.8-37.8-57-238.7-119.9-295-65.2s-53.3 115.2-53.3 115.2" style="fill:#fff;fill-opacity:1;fill-rule:nonzero;stroke:none" transform="matrix(.03528 0 0 -.03528 -285.797 290.69)"/><path d="M10127.6 5108.3c-.1-3-.2-48.9 44.1-92 8.5-8.3 32.8-15.5 75.5-10.9 74.9 8 155.7 45.5 172.8 71.1 28.3 42.7 7.2 168.2-20.2 211.5-5.4 8.5-40.2 27.6-100 35.3-65.6 8.3-124.8-1.8-150.6-26-55.7-51.9-23-178.4-22.7-179.7l1.3-4.7zm94.7-165.4c-41.2 0-73 10-93.2 29.6-55.9 54.3-62 114.8-62.5 133.2-6.5 26.2-35.9 164.6 40.9 236.3 39.8 37.2 114.6 52.8 200.1 41.8 26.5-3.4 115.2-18 143.9-63.1 34.9-55.2 66.5-207 19.4-277.9-33-49.8-138.4-89.7-217.2-98.2-11-1.1-21.5-1.7-31.4-1.7" style="fill:#211d1d;fill-opacity:1;fill-rule:nonzero;stroke:none" transform="matrix(.03528 0 0 -.03528 -285.797 290.69)"/><path d="M9924.4 4515c-52.58-30.5-117.09-10.8-171 32.4-63.29 50.4-111.94 133-109.65 204.2 1.37 42.5 19.88 82.1 48.33 113.2l1.14 1.3c45.68 49.6 116.52 77.5 182.5 61.2 20.98-5.2 43.22-15 64.75-28 27.47-16.5 54-38.3 76.13-62.9 49.8-55.1 77.6-123.5 43.4-175.3-26.5-40.2-93.91-121.9-135.6-146.1" style="fill:#db5e80;fill-opacity:1;fill-rule:nonzero;stroke:none" transform="matrix(.03528 0 0 -.03528 -285.797 290.69)"/><path d="m9715.73 4846.1-1.45-1.6c-25.01-27.4-39.38-60.7-40.44-93.9-1.87-58.1 38.56-132 98.32-179.6 23.89-19.2 84.94-60.3 137.12-30l.02.1c34.45 19.9 98.4 95.4 125.6 136.6 26.3 39.9-3.7 97.7-40.65 138.5-20.11 22.4-44.05 42.1-69.27 57.3-19.52 11.8-39.01 20.3-56.46 24.6-51.78 12.7-111.69-7.6-152.79-52m153.19-375.7c-43.3 0-90.18 18.2-134.34 53.5-74.78 59.6-123.39 151.5-120.91 228.6 1.52 47.4 21.35 94.3 55.85 132.2l1.56 1.8c55.77 60.5 138.92 88 211.85 70 23.28-5.7 48.57-16.6 73.13-31.5 30.17-18.1 58.84-41.8 82.84-68.4 67.4-74.5 84.7-153.8 46.3-212.1-25.8-38.9-97.13-127.3-145.67-155.5-21.51-12.5-45.46-18.6-70.61-18.6" style="fill:#211d1d;fill-opacity:1;fill-rule:nonzero;stroke:none" transform="matrix(.03528 0 0 -.03528 -285.797 290.69)"/><path d="M10225.2 4109.9c-39.9-6.2-83.7 3.9-112.2 32.5-28.5 28.5-48.1 87.5-38.3 139l-8.9 1.4c2.3 1.2 4.6 2.4 6.9 3.5 31 16.2 61.5 38.5 91.2 65 58.6-40.5 127.6-56.5 178.2-17.6 3.9 3 7.8 6.2 11.7 9.7l.1-.1c26.2-18.8 45.7-73.8 36.3-104.6-6-19.7-17.6-37-31.6-52.2-7.9-8.6-16.7-16.6-25.7-23.9-31.2-25.7-67.7-46.5-107.7-52.7" style="fill:#9f1d3b;fill-opacity:1;fill-rule:nonzero;stroke:none" transform="matrix(.03528 0 0 -.03528 -285.797 290.69)"/><path d="M10103.6 4268.6c-5.1-40.6 11.4-85.1 31-104.7 19.8-19.8 52.7-29 85.9-23.9 30.2 4.8 61.5 20.3 93 46.2 8.7 7 16.2 14 22.5 20.9 12.7 13.8 20.9 27 25 40.5 3.8 12.5-2.2 36.8-11.6 54.1-50.5-31.3-116.7-27-182.8 11.6-21.2-17.5-42.3-32.5-63-44.7m98.4-191.1c-42.8 0-82.8 15.4-110.6 43.3-31.5 31.5-50.4 84.7-49.8 135l-73.01 12 90.21 45.7c27 14.2 55.6 34.6 84.8 60.6l17.9 15.9 19.8-13.6c20.5-14.2 91.4-57.5 142.2-18.4 3.2 2.4 6.5 5.1 9.8 8.1l23.6 21.3 18.3-22c35.2-28.3 57-93.9 44.2-135.6-6.8-22.3-19.7-43.8-38.4-64-8.2-9-17.9-18.1-28.8-27-40-32.8-81.2-52.7-122.3-59.1-9.4-1.5-18.7-2.2-27.9-2.2" style="fill:#211d1d;fill-opacity:1;fill-rule:nonzero;stroke:none" transform="matrix(.03528 0 0 -.03528 -285.797 290.69)"/><path d="M10353.8 4343.4c-3.9-3.5-7.8-6.7-11.7-9.7-50.6-38.9-119.6-22.9-178.2 17.6-49.9 34.3-92.2 86.3-109.7 137.6-18.5 54.5-9.1 115 19 164.9 26.7 47.2 70.1 84.7 122.7 98.4 6.6 1.7 13.5 2.8 20.5 3.3 10.1.8 20.5.5 31.1-.9 82.3-10.3 177.5-81.5 208.8-157.6 3.3-7.8 5.9-15.7 7.7-23.7 2.7-12.4 3.7-24.8 2.4-37-6.7-64.3-60.6-147.6-112.6-192.9" style="fill:#db5e80;fill-opacity:1;fill-rule:nonzero;stroke:none" transform="matrix(.03528 0 0 -.03528 -285.797 290.69)"/><path d="M10227.3 4725.8c-2.9 0-5.8-.1-8.6-.3-5.4-.4-10.4-1.2-15.1-2.4-42.3-11-80.2-41.6-104.1-84.1-25.6-45.3-31.7-96.5-16.8-140.4 15.1-44.2 52.8-91.2 98.3-122.5 20.6-14.3 91.8-57.7 142.8-18.5 3.2 2.5 6.5 5.2 9.8 8.1l.4.4c44.7 38.9 96.6 116.3 102.5 173.4.9 8.4.2 17.6-1.9 27.3-1.3 5.9-3.4 12.2-6.1 18.5-26.9 65.4-113.2 130.5-184.7 139.4-5.6.8-11.1 1.1-16.5 1.1m47.2-444.4c-40.3 0-84.4 15.2-127.7 45.1-56.4 38.8-101.7 95.9-121.1 152.7-20.4 60.2-12.7 129.2 21.3 189.4 32 56.6 83.5 97.7 141.3 112.7 8.2 2.2 17 3.6 26 4.2 12 1 24.6.6 37.2-1.1 93-11.6 197.5-90.6 232.6-175.9 4-9.5 7.1-19.2 9.2-28.6 3.6-16.1 4.6-31.8 3.1-46.7-7.9-75.2-69-165.5-122.6-212.3-4.4-4-8.8-7.5-13.2-11-24.9-19-54.3-28.5-86.1-28.5" style="fill:#211d1d;fill-opacity:1;fill-rule:nonzero;stroke:none" transform="matrix(.03528 0 0 -.03528 -285.797 290.69)"/><path d="M10065.8 4282.8c-71.2-35-144.61-36.5-215.08 21.1-69.56 57-105.58 149.2-101.25 238.6l3.93 4.9c53.91-43.2 118.42-62.9 171-32.4 41.69 24.2 109.1 105.9 135.6 146.1l13.2-7.3c-28.1-49.9-37.5-110.4-19-164.9 17.5-51.3 59.8-103.3 109.7-137.6-29.7-26.5-60.2-48.8-91.2-65-2.3-1.1-4.6-2.3-6.9-3.5" style="fill:#cf3456;fill-opacity:1;fill-rule:nonzero;stroke:none" transform="matrix(.03528 0 0 -.03528 -285.797 290.69)"/><path d="M9781.44 4493.3c8.37-65.7 40.19-126.6 88.36-166.1 55.01-45 114.72-50.7 182.5-17.5l6.7 3.4c18.4 9.6 37.5 22.2 57 37.4-41.9 36.5-74.6 82.7-90.3 128.7-8.3 24.5-11.9 50.4-11.1 76.6-25.39-28-52.68-53.8-75.09-66.8-45.62-26.6-102.24-24.4-158.07 4.3m187.73-265.4c-48.57 0-94.55 17.6-137.5 52.7-74.19 60.8-117.2 161.7-112.26 263.3l.47 9.7 28.75 36.2 23.58-18.9c23.83-19.1 84.9-60.2 137.07-29.9 34.47 20 98.42 95.5 125.62 136.7l15.4 23.2 64.1-35.5-15-26.4c-25.5-45.3-31.6-96.5-16.7-140.4 15.1-44.2 52.8-91.2 98.3-122.5l31.6-21.8-28.7-25.5c-32.9-29.3-65.6-52.6-97.3-69.1l-7.5-3.9c-37.9-18.6-74.6-27.9-109.93-27.9" style="fill:#211d1d;fill-opacity:1;fill-rule:nonzero;stroke:none" transform="matrix(.03528 0 0 -.03528 -285.797 290.69)"/><path d="M10031.1 5101.7c-12-18-21.5-37.7-28-58.4-5.4-16.7-8.83-34-10.07-51.5l-.02-.2c-10.48-33.9-28.04-65.8-50.78-89.5l-1.76-2.8c-21.53 13-43.77 22.8-64.75 28-65.98 16.3-136.82-11.6-182.5-61.2l-1.14-1.3-6.3 5.5c-64.8 33.8-76.87 114-55.7 185.7 21.83 74 83.18 123.9 150.79 160.9 113.46 62 261.03-74.2 250.23-115.2" style="fill:#cf3456;fill-opacity:1;fill-rule:nonzero;stroke:none" transform="matrix(.03528 0 0 -.03528 -285.797 290.69)"/><path d="M9844.71 5202.8c-16.37 0-33.18-3.5-49.39-12.3-75.55-41.3-120.16-88.1-136.37-143-14.16-47.9-13.87-112 29.78-143.7 54.77 48.3 128.61 68.9 194.2 52.7 16.03-3.9 33.01-10.3 50.04-18.8 12.54 16.8 22.97 37.2 30.18 59.3l1.19 10.4c1.94 15.2 5.35 30.4 10.16 45.2 6.23 19.8 14.93 38.9 25.9 56.9-6.36 14.9-36.36 50.5-84.17 74.4-19.61 9.8-44.97 18.9-71.52 18.9m-149.06-380.1-27.17 22.8c-69 38.2-95.41 123.7-67.27 219.1 20.95 70.9 75 129.4 165.23 178.7 97.88 53.5 198.49-15.1 226.99-37.4 38.57-30.2 76.37-75.4 66.77-111.9l-1.3-4.8-2.8-4.2a203 203 0 0 1-24.3-50.8c-3.4-10.6-5.9-21.4-7.4-32.2l2.5-2.7-4.1-13.3-.7-9.4-3.2-2.6c-11.9-34.6-30.38-66.3-52.64-90.3l-15.76-25.7-25.61 15.5c-19.43 11.8-38.92 20.3-56.37 24.6-51.78 12.7-111.69-7.6-152.79-52z" style="fill:#211d1d;fill-opacity:1;fill-rule:nonzero;stroke:none" transform="matrix(.03528 0 0 -.03528 -285.797 290.69)"/><path d="M10478.3 4166.2c-34.5-8.1-88.2-.3-118.2 18.8l-1.5 1.5c14 15.2 25.6 32.5 31.6 52.2 9.4 30.8-10.1 85.8-36.3 104.6l-.1.1c52 45.3 105.9 128.6 112.6 192.9 1.3 12.2.3 24.6-2.4 37-1.8 8-4.4 15.9-7.7 23.7 4.1 1.8 17.5 5.1 23.3 3.7.7-5.1 1.8-10 3.1-14.9 16.8-57.5 81.7-103 153.8-125 11.1-54.5 4.5-153.3-25.4-200.2-30-46.9-78.6-81.5-132.8-94.4" style="fill:#9f1d3b;fill-opacity:1;fill-rule:nonzero;stroke:none" transform="matrix(.03528 0 0 -.03528 -285.797 290.69)"/><path d="M10405.8 4199c21.8-5.7 47.5-7.3 65.5-3.1 46.6 11.2 88.2 40.7 114.1 81.1 21.6 33.8 29.6 109.6 23.8 160.7-47.7 17.2-87.9 42.8-116.2 73.1-13.5-59.6-54.9-124.6-96.8-168.8 22.1-32.6 33.2-79.7 23.2-112.2-3.2-10.5-7.7-20.8-13.6-30.8m41.9-66.5c-36.9 0-77.5 9.9-104 26.8l-5.6 4.5-23 20.7 21 22.7c12.6 13.7 20.8 26.9 24.9 40.4 5.5 17.9-9.2 59.6-24.9 70.8l-3.2 2.3-21.6 26 22.4 19.7c44.6 38.9 96.4 116.1 102.3 173.1.9 8.4.3 17.6-1.9 27.2-1.3 5.9-3.3 12.1-6 18.5l-11.6 27.6 27.4 12.2c4.9 2.1 26.5 9.4 42.8 5.4l20.6-4.9 2.6-20.9c.4-3.2 1.1-6.6 2.3-10.7 12.2-42 64.6-83 133.2-103.9l17.4-5.3 3.6-17.8c11.5-56 7.6-164.6-29.5-222.8-34.4-53.7-89.6-92.9-151.5-107.6h-.1c-11.5-2.7-24.3-4-37.6-4" style="fill:#211d1d;fill-opacity:1;fill-rule:nonzero;stroke:none" transform="matrix(.03528 0 0 -.03528 -285.797 290.69)"/><path d="M10514.6 4800c41.7 68.6 159.7 82.8 255 56.1l.6-.3c2.5-.9 5.2-1.7 7.9-2.3l.6-.2c44.4-13.9 83.2-37 105.4-67.9 70.8-97.9 40.8-254.1-62.7-316.6-46.9-28.4-119-28.1-184.9-8-72.1 22-137 67.5-153.8 125-1.3 4.9-2.4 9.8-3.1 14.9l-.4 2.3c-7.8 67.1.3 139.3 35.4 197" style="fill:#db5e80;fill-opacity:1;fill-rule:nonzero;stroke:none" transform="matrix(.03528 0 0 -.03528 -285.797 290.69)"/><path d="M10509.1 4606.6v-.1zm-.1 1.1.5-3.2c.4-3.2 1.1-6.6 2.2-10.7 12.4-42.2 64.8-83.3 133.6-104.2 62.5-19.1 124-17.1 160.5 5 41.6 25.1 71.6 70.1 82.5 123.6 11.1 54.6.7 109.1-28.6 149.6-16.8 23.3-47.7 43.1-87.2 55.9l-9.1 1-2 2.3-1.3.4-.2.1c-81.7 22.4-185.7 12.5-219.6-43.1-27.9-46-39-108.7-31.3-176.7m219-191.3c-31.8 0-65.9 5.1-100.3 15.6-89 27.1-155.6 82.8-173.9 145.4-1.8 6.7-3.1 12.5-3.8 18.1l-.5 2.5-.2 1.6c-9.5 81.7 4.6 158.4 39.6 216v.1c51.3 84.3 184.2 98.8 288.8 69.3l3.5-1.1c.9-.4 1.9-.6 2.9-.9l1.4-.3 9.1-1.9 1.1-1.4c36.7-12.5 83.3-35.5 112.8-76.4 39.1-54 53.3-125.8 38.8-196.9-14.2-69.8-54.4-129.3-110.3-163-29.3-17.7-67.2-26.7-109-26.7" style="fill:#211d1d;fill-opacity:1;fill-rule:nonzero;stroke:none" transform="matrix(.03528 0 0 -.03528 -285.797 290.69)"/><path d="M10580.6 5139.7c-15.2-56.5-13.5-117.3 15.4-151.8 45.4-54.3 107.3-107.4 173.6-131.8-95.3 26.7-213.3 12.5-255-56.1-35.1-57.7-43.2-129.9-35.4-197l.4-2.3c-5.8 1.4-19.2-1.9-23.3-3.7-31.3 76.1-126.5 147.3-208.8 157.6l.7 5.1c.6 3.6 1.2 7.3 1.8 10.9l-.6 3.4c32.1 6.3 60.5 22.3 80.2 49.7 29.6 41.3 67.2 139.2 72.9 189.6 6.1 55.1-26.1 102.7-73.9 134.6l.2.2c75.3-51.2 190.9-67.3 251.8-8.4" style="fill:#2f1418;fill-opacity:1;fill-rule:nonzero;stroke:none" transform="matrix(.03528 0 0 -.03528 -285.797 290.69)"/><path d="M10314.6 4767.7c49.8-20.4 97.7-55.8 131.9-97.3 3 54.7 17.3 104.8 42 145.5 30.4 50 89.3 75.5 154.1 81.9-30.3 25.5-54.2 51.6-70 70.4-22.7 27.2-33.6 67.3-31.8 113.3-35.6-11.6-76-12.5-115.5-5.1 7.4-21.3 10.1-43.7 7.5-66.5-6.2-55.5-45.8-158.4-78.3-204-11-15.2-24.4-28-39.9-38.2m124.7-211.6-11.3 29.3c-26.7 65-112.8 129.9-184.3 138.9l-30.3 3.8 5.6 42.3-4.8 27.8 29.3 5.8c26.5 5.2 47.2 17.8 61.3 37.5 26.4 36.9 62.2 130.2 67.3 175.2 6.2 55-40.2 92.3-60.4 105.7l-24.9 16.6 32.9 51.8 26.3-17.4c63.9-43.5 164.9-58.6 213.4-11.8l79.4 76.7-28.7-106.6c-14-52-10.3-100.8 9.3-124.2 48.9-58.4 107.5-103.1 160.8-122.8l-18.9-58c-81.7 22.9-186.6 13.3-220.6-42.6-27.9-45.8-39-108.4-31.3-176.3l15-49.2-49.3 11.8c-2.2-.3-5.6-1.1-7.1-1.6z" style="fill:#211d1d;fill-opacity:1;fill-rule:nonzero;stroke:none" transform="matrix(.03528 0 0 -.03528 -285.797 290.69)"/><path d="M10596 4987.9c-28.9 34.5-30.6 95.3-15.4 151.8 4.9 4.5 9.4 9.7 13.5 15.4 14.8 20.3 29.7 53.9 42.3 89.6 4.9 5.2 10.1 9.6 15.4 13.5 82.1 58.9 202.5 12.7 268.1-64.1 48.3-56.5 79.4-132 66.6-205.2-12.1-70.3-136.2-151.9-207.8-135.6l-.6.2c-2.6.8-5.2 1.7-7.9 2.3l-.6.3c-66.3 24.4-128.2 77.5-173.6 131.8" style="fill:#cf3456;fill-opacity:1;fill-rule:nonzero;stroke:none" transform="matrix(.03528 0 0 -.03528 -285.797 290.69)"/><path d="M10786.5 4882.5c25.6-5.3 66.1 7.4 103.7 32.5 36.4 24.2 62.6 55.3 66.7 79 10 57.6-12.4 125-59.8 180.5-56.8 66.3-159.9 107.8-227.7 59.2-2.4-1.7-4.7-3.6-7-5.6-10.5-29-26-66.1-44-90.7-3.3-4.6-6.8-8.9-10.6-13-11.7-49.3-7.5-94.8 11.3-117.2 48.8-58.3 107.2-103 160.5-122.7l5.1-1.5zm11.9-61.3c-8.6 0-16.8.8-24.5 2.4l-10.5 1.1-2 2.3-3.2 1.2c-85.6 31.9-152.8 101.6-185.3 140.3-32.9 39.4-40.9 106.3-21.3 179l2.2 8.2 6.2 5.8c3.4 3.3 6.7 7.1 9.7 11.2 11.7 16.1 25.6 45.9 38.3 82l2.2 6.1 4.5 4.7c6 6.4 12.6 12.1 19.5 17.1 96.9 69.5 233 19.5 308.6-69 59.9-69.9 86.6-153.7 73.4-229.9-7-40.4-41.6-84.8-92.7-118.8-42.4-28.3-87.3-43.7-125.1-43.7" style="fill:#211d1d;fill-opacity:1;fill-rule:nonzero;stroke:none" transform="matrix(.03528 0 0 -.03528 -285.797 290.69)"/><path d="M10580.6 5139.7c-60.9-58.9-176.5-42.8-251.8 8.4-8.2 5.5-15.7 11.4-22.8 17.7-40.4 35.9-64.9 87.3-71.4 140.8-.2 1.3-.3 2.6-.5 4-5.1 48.4 4.6 98.2 30.4 139.5 47.5 75.7 144.4 116.8 231.8 98.1 87.3-18.9 179.1-96.5 169.7-185.4-3.1-29.7 2.8-62.4-12.2-105-.9-17.5-22.2-56.5-32-75.7-8.8-17.2-22.7-25-41.2-42.4" style="fill:#cf3456;fill-opacity:1;fill-rule:nonzero;stroke:none" transform="matrix(.03528 0 0 -.03528 -285.797 290.69)"/><path d="M10453.2 5522.6c-64.2 0-128.9-33.8-163.2-88.5-21.3-34.1-30.5-76.9-25.9-120.4l.3-3.1c5.9-48.2 28.3-92.7 61.6-122.3 6.1-5.5 12.5-10.4 19.6-15.2 64.2-43.7 165.5-58.8 214.1-11.8l.3.2c5.8 5.6 11.3 10.2 16.3 14.5 10.3 8.8 15.4 13.3 18.7 19.8l4.1 8c6.5 12.4 23.6 45.6 24.7 55.8l.2 4.3 1.4 3.9c8.8 24.9 9.1 46.4 9.3 67.2.1 10.1.2 20.5 1.3 31 7.5 69.8-71 136.5-146.1 152.8-12.1 2.6-24.4 3.8-36.7 3.8m22-450.5c-56.9 0-117 19.6-163.3 51.1-9.2 6.2-18 13-25.9 20.1-44.7 39.8-73.6 96.5-81.3 159.7-.1.8-.2 1.9-.3 3l-.2 1.2c-6 57 6.4 113.3 34.8 158.9 53.9 85.9 164.8 132.7 263.6 111.5 101.8-22 204.6-111.6 193.3-217.9-.8-7.7-.9-16.3-1-25.4-.3-22.5-.6-50.3-11.5-83.1-2.8-19.7-15.6-45.8-30.8-75.1l-4-7.7c-8.9-17.5-21.3-28-33.3-38.3-4.3-3.6-8.9-7.5-13.9-12.2-33.2-32.1-78.6-45.8-126.2-45.8" style="fill:#211d1d;fill-opacity:1;fill-rule:nonzero;stroke:none" transform="matrix(.03528 0 0 -.03528 -285.797 290.69)"/><path d="M10235.9 5179.2c140.9 206.9-161 516-360.67 323.4-127.21-122.7-81.84-355.8 97.59-401.3 102.58-26.1 173.08 31.7 263.08 77.9" style="fill:#cf3456;fill-opacity:1;fill-rule:nonzero;stroke:none" transform="matrix(.03528 0 0 -.03528 -285.797 290.69)"/><path d="M10017 5533.4c-40.21 0-81.97-14.9-120.86-52.4-54.68-52.8-76.05-133-55.75-209.4 19.09-72 70.06-123.4 139.83-141.1 72.48-18.5 126.08 11.5 193.88 49.4 13.2 7.3 26.8 14.9 40.9 22.3 59.3 95 11.8 213.2-64.7 277.8-36.4 30.6-83.7 53.4-133.3 53.4m5.9-468.6c-18.3 0-37.35 2.2-57.48 7.3-90.22 22.9-158.72 91.7-183.22 184-25.89 97.6 1.76 200.3 72.14 268.2 95.42 92 226.86 92.7 334.76 1.7 98.3-83 156.9-238.7 71.7-363.8l-4.3-6.3-6.8-3.5c-15.8-8.1-31.3-16.7-46.2-25.1-55.3-30.9-112.1-62.5-180.6-62.5" style="fill:#211d1d;fill-opacity:1;fill-rule:nonzero;stroke:none" transform="matrix(.03528 0 0 -.03528 -285.797 290.69)"/><path d="M9993.01 4991.6c-3.01-37.9 3.87-76.1 22.69-109.5 5.6-10.2 12.4-19.8 20.1-28.8 45.6-53.3 123.3-86.2 191-82.1 7.7.4 15.2 1.4 22.6 2.8 32.1 6.3 60.5 22.3 80.2 49.7 29.6 41.3 67.2 139.2 72.9 189.6 6.1 55.1-26.1 102.7-73.9 134.6-36.5 24.4-82.1 39.5-126.6 41.5-24.9 1.1-49.4-1.7-71.9-9.3-41-13.9-74.8-42.4-98.8-78l-.2-.4c-12-18-21.5-37.7-28-58.4-5.4-16.7-8.83-34-10.07-51.5z" style="fill:#db5e80;fill-opacity:1;fill-rule:nonzero;stroke:none" transform="matrix(.03528 0 0 -.03528 -285.797 290.69)"/><path d="M10215.3 4740.7c-73.9 0-153.8 36.4-202.3 93-9.3 10.8-17.23 22.2-23.64 33.8-20.84 37.1-29.99 80.9-26.36 126.5l60-4.8c-2.7-33.7 3.9-65.6 18.9-92.4q6.9-12.3 16.8-24c39.1-45.6 107.6-75.2 166.3-71.6 6.1.4 12.2 1.1 18.7 2.4 26.5 5.2 47.3 17.9 61.5 37.7 26.4 36.9 62.3 130.4 67.4 175.4 6.1 55.2-40.4 92.6-60.7 106.1-32.1 21.5-72.7 34.8-111.3 36.5-22.3 1-42.7-1.5-60.8-7.7-33-11.2-61.9-34.1-83.5-66.3-10.7-16.1-18.8-33.1-24.5-51.1-4.8-14.7-7.7-29.6-8.7-44.5l-60.09 4.3c1.41 19.8 5.27 39.5 11.49 58.6 7.26 23.1 17.89 45.3 31.5 65.7l.6.9c28.8 42.9 68.2 74 113.9 89.4 25.1 8.6 53 12.2 82.8 10.9 50.1-2.3 100.5-18.8 142.1-46.6 62.2-41.5 93.9-100.9 87-162.9-6.3-55.5-45.8-158.3-78.3-203.8-23.2-32.2-57.3-53.5-98.9-61.7-9.4-1.8-18.1-2.9-26.8-3.4-4.3-.2-8.7-.3-13.1-.4" style="fill:#211d1d;fill-opacity:1;fill-rule:nonzero;stroke:none" transform="matrix(.03528 0 0 -.03528 -285.797 290.69)"/><path d="M10514.6 4800c41.7 68.6 159.7 82.8 255 56.1l.6-.3c2.5-.9 5.2-1.7 7.9-2.3l.6-.2c44.4-13.9 83.2-37 105.4-67.9 70.8-97.9 40.8-254.1-62.7-316.6-46.9-28.4-119-28.1-184.9-8-72.1 22-137 67.5-153.8 125-1.3 4.9-2.4 9.8-3.1 14.9l-.4 2.3c-7.8 67.1.3 139.3 35.4 197" style="fill:#db5e80;fill-opacity:1;fill-rule:nonzero;stroke:none" transform="matrix(.03528 0 0 -.03528 -285.797 290.69)"/><path d="M10509.1 4606.6v-.1zm-.1 1.1.5-3.2c.4-3.2 1.1-6.6 2.2-10.7 12.4-42.2 64.8-83.3 133.6-104.2 62.5-19.1 124-17.1 160.5 5 41.6 25.1 71.6 70.1 82.5 123.6 11.1 54.6.7 109.1-28.6 149.6-16.8 23.3-47.7 43.1-87.2 55.9l-9.1 1-2 2.3-1.3.4-.2.1c-81.7 22.4-185.7 12.5-219.6-43.1-27.9-46-39-108.7-31.3-176.7m219-191.3c-31.8 0-65.9 5.1-100.3 15.6-89 27.1-155.6 82.8-173.9 145.4-1.8 6.7-3.1 12.5-3.8 18.1l-.5 2.5-.2 1.6c-9.5 81.7 4.6 158.4 39.6 216v.1c51.3 84.3 184.2 98.8 288.8 69.3l3.5-1.1c.9-.4 1.9-.6 2.9-.9l1.4-.3 9.1-1.9 1.1-1.4c36.7-12.5 83.3-35.5 112.8-76.4 39.1-54 53.3-125.8 38.8-196.9-14.2-69.8-54.4-129.3-110.3-163-29.3-17.7-67.2-26.7-109-26.7" style="display:inline;fill:#211d1d;fill-opacity:1;fill-rule:nonzero;stroke:none" transform="matrix(.03528 0 0 -.03528 -285.797 290.69)"/></svg>