<svg xmlns="http://www.w3.org/2000/svg" width="200mm" height="200mm" viewBox="0 0 200 200"><g style="display:inline"><path d="M44122.8 6491.4c-217.5-12.7-435-25.4-652.6-38.2l-8.3-6.6c-66.9 84.1-145.4 159.2-227 219-177.8 130-360.3 262.6-564.3 340.6l4.2 11.1c-91.2 163.8-138.4 351.8-135.2 539.3 54.5-176.6 163.3-336 307.8-451.2 7.8 124.6 15.5 249.1 23.3 373.6 76.5-162.7 153-325.2 229.5-487.9 72.6 226.7 239.2 421.8 451.9 528.8-90-222.8-135.1-463.6-132-703.8 145.1-23 297.9 6.3 424.3 81.2-28.8-108.8-101.7-205.4-198.5-262.9 159-47.7 318-95.3 476.9-143" style="fill:#307956;fill-opacity:1;fill-rule:nonzero;stroke:none" transform="matrix(.02417 0 0 -.02417 -934.402 247.817)"/><path d="M42711.3 7032.8c201.5-82.3 384.6-216.3 547-335.2 78.2-57.3 152.7-127.5 216.8-204.3l167.4 9.8c84.6 4.9 169.1 9.9 253.6 14.9l-261.6 78.4c-15.1 4.5-26.1 17.5-28 33.2-2 15.6 5.6 30.9 19.1 38.9 60 35.7 109.5 87.2 143.4 147.8-112.1-44.4-235-58.4-355.1-39.4-19.1 3-33.3 19.4-33.5 38.7-2.7 206.7 30.4 416.7 96 613.7-157.4-107.5-280.6-269.7-338.4-450.3-4.9-15.5-18.9-26.4-35.2-27.5-16.3-1-31.5 8-38.5 22.7l-163.6 347.8-13.7-219c-.9-14.8-10-27.8-23.5-33.8-13.5-6.1-29.3-4-40.8 5.2-87.4 69.6-162.5 155.1-221.2 250.6 21.3-100.6 57.6-198 108-288.4.7-1.3 1.3-2.5 1.8-3.8m750.6-625.9c-11.6 0-23.2 5.2-31.1 15-63.6 79.9-139.5 153.1-219.4 211.6-165.5 121.1-353 258.4-555 335.6-18.2 6.9-28.3 25.9-24.8 44.4-89.4 166.7-134.9 354.3-131.7 543.7.3 19.5 14.8 35.9 34.1 38.7 19.4 2.7 37.8-9 43.5-27.6 44.3-143.5 126.6-275.9 235.3-380l18.3 293.2c1.1 18.1 14.4 33.1 32.2 36.5 17.7 3.4 35.6-5.7 43.3-22.1l189.7-403.1c87.2 198.8 242.9 364.4 437.9 462.6 14.8 7.4 32.6 4.9 44.7-6.3 12.2-11.2 16.1-28.7 10-44.1-83.2-206-127.6-431.4-129.2-654 125.3-12.3 256.4 16.4 364.5 80.5 13.8 8.2 31.3 7.2 44.2-2.5 12.8-9.7 18.5-26.2 14.4-41.8-24.4-92.2-77.1-175.6-148.7-237.8l400.1-119.9c18.5-5.6 30.3-23.5 28.1-42.7-2.3-19.1-17.9-33.9-37.1-35-159.4-9.3-318.7-18.6-478-28l-162.3-9.5c-6.9-4.9-15-7.4-23-7.4" style="fill:#211d1d;fill-opacity:1;fill-rule:nonzero;stroke:none" transform="matrix(.02417 0 0 -.02417 -934.402 247.817)"/><path d="M43661.9 5964.7c3.1-187.6-126.6-341.5-260-468.5-328.7-313-721.5-564.2-1153.5-737.6-202.3-81.3-446.8-142.4-648-28-166.2 94.5-122.3 293.6-124.6 472.4-2.1 178.9 30.6 303.9 74.9 516.1 40.9 195.8 59.2 388.1 100.9 559.1 40.1 164.2 138.8 411.5 221.5 557.5 112.3 198.2 478.3 269.1 715.8 198.3 27.7-8.3 54.9-17.5 81.7-27.8 204-78 386.5-210.6 564.3-340.6 81.6-59.8 160.1-134.9 227-219 116-145.6 197.3-317.8 200-481.9" style="fill:#c22126;fill-opacity:1;fill-rule:nonzero;stroke:none" transform="matrix(.02417 0 0 -.02417 -934.402 247.817)"/><path d="M42392 7029.8c-197.9 0-414.8-72.2-492.4-209.2-81.6-144.2-179.6-390.7-218.4-549.6-22.5-92.6-38.1-191-54.5-295.2-13.5-85.4-27.5-173.8-46.1-262.9-5.8-28.1-11.5-54.7-16.9-80-35.6-167.2-59.2-277.7-57.3-429.5.4-33-.8-66.8-1.8-99.5-4.8-143.2-9.3-278.4 110.9-346.8 154.6-87.9 352-78.4 621.5 29.8 431 173.1 815.9 419.1 1143.8 731.4 118.2 112.5 253.5 264.9 250.5 445.9-2.3 145.3-71 309.9-193.3 463.4-64.1 80.5-140.6 154.3-221.2 213.3-165.9 121.5-354 259.1-557.1 336.7-25.7 9.9-52.5 19-79.5 27.1-56.5 16.8-121.3 25.1-188.2 25.1m-537.4-2393.2c-91 0-183.1 18.4-269.3 67.4-152.3 86.6-147 246.9-141.8 402 1.1 32 2.2 65.1 1.8 96.6-2 158.7 23.5 278 58.6 443 5.4 25.3 11.1 51.8 16.9 79.8 18.3 87.6 32.2 175.2 45.5 260 16.7 105.4 32.4 205 55.6 300 40.6 166.3 139.2 414.6 224.6 565.4 119.1 210.2 501.6 286.8 751.2 212.5 28.5-8.6 56.7-18.2 83.9-28.6 210.7-80.5 402.3-220.8 571.3-344.5 84.9-62.2 165.4-139.8 232.9-224.5 130.7-164 204.1-341.8 206.6-500.5 3.4-204.7-142.2-370-269.5-491.2-333.5-317.6-724.9-567.8-1163.2-743.8-112.1-45-257.2-93.6-405.1-93.6" style="fill:#211d1d;fill-opacity:1;fill-rule:nonzero;stroke:none" transform="matrix(.02417 0 0 -.02417 -934.402 247.817)"/><path d="M42062.7 5250.1c-30.6-35.7-57.4-74.3-79.4-116.4 41 92.9 115 267 62 330.4-52.9 63.4-117.8 50.7-224.3 48.3 66.4 8 164.8 20.5 222 55.2s99.6 103.2 82.7 167.8c-16.4 62.8-78.3 86.6-142.9 91.4s-132.9-2.1-194-23.7c158.2 72.5 347.5 101.9 426.2 258.4-95.7 59.2-210.7 86.8-322.7 77.3 79.1 8.1 159.8 16.6 232 49.9 72.1 33.4 135.4 96.7 146.8 175.4 15.9 110.3-93.5 145.9-204 203.6 255-86.4 319.1-54.4 486.6-42.7-93.1-43.5-168.9-135.6-207.1-234.5-56.2-145.9-54-306.5-75.6-461.4-28.4-204.7-100-403-208.3-579" style="fill:#c7616f;fill-opacity:1;fill-rule:nonzero;stroke:none" transform="matrix(.02417 0 0 -.02417 -934.402 247.817)"/><path d="M42041.4 5521.9c11.9-8.5 23.3-19.1 34.4-32.3 18-21.6 26.4-49.3 27.6-81.5 64.2 134.9 108 279.9 128.3 426.4 6.1 43.8 10.4 89.3 14.5 133.2 10.5 112.2 21.4 228.2 63.4 337.1 24.4 63.3 61.3 120.9 106 167.5-41.5-3.3-82.4-4.2-131.1 1.3 21.8-30.1 32.8-67.1 25.8-115.2-12.3-85.5-75.6-162.4-169.4-205.7q-6.3-3-12.9-5.7c37.6-13.4 73.8-30.7 107.8-51.7 17.5-10.8 23.9-33.2 14.6-51.6-46.8-93.2-126.8-145.3-215-184.8 68.6-16.3 113.6-55.6 128.7-113.4 23.4-89.4-35.7-172.5-100.5-211.8-6.9-4.2-14.4-8.2-22.2-11.8m-58.2-427.9c-5.7 0-11.6 1.2-17.1 3.9-19.3 9.3-27.8 32.2-19.1 51.8 88.4 200.2 85.7 267.6 67.9 288.9-32.1 38.4-67.4 38.6-151.3 35.5-13.2-.5-27-1-41.7-1.4-21.4-.7-39 15.8-40.5 36.9s13.9 39.7 34.9 42.2c54.1 6.5 154.9 18.7 206.1 49.8 40.7 24.7 77.3 76.5 64.9 123.8-11.9 45.4-65 58.7-107.5 61.8-63.3 4.7-124.8-2.7-177.8-21.5-20-7.1-42 2.8-50 22.5s.9 42.2 20.2 51c40.1 18.4 82 34 122.6 49.2 106.2 39.7 207.3 77.4 265.2 158.6-81.2 41.5-173.6 59.9-264.4 52.3-21.9-2-40.8 14.2-42.9 35.8-2 21.7 13.9 41 35.5 43.2 75.1 7.7 152.6 15.6 219.4 46.5 53.5 24.7 114.2 75.7 124.2 145 8.7 60.7-33 87.9-137.6 139.8-14.9 7.4-30.2 14.9-45.5 22.9-18.4 9.6-26.3 31.8-18.1 50.8 8.1 19.1 29.5 28.7 49.2 22 200-67.8 274.1-60.1 386.2-48.4 26.3 2.7 53.5 5.5 85 7.7 19.2 1.4 36.4-11.1 41.2-29.6 4.8-18.6-4.3-37.9-21.7-46-78.8-36.8-150.4-118.3-186.8-212.8-38.1-98.7-48-204.2-58.5-315.9-4.2-44.8-8.5-91.1-14.8-136.7-29-208.4-102.9-413.9-213.9-594.3-1-1.8-2.3-3.5-3.6-5.1-29.8-34.7-54.8-71.3-74.4-108.9-7.1-13.5-20.9-21.3-35.3-21.3" style="fill:#211d1d;fill-opacity:1;fill-rule:nonzero;stroke:none" transform="matrix(.02417 0 0 -.02417 -934.402 247.817)"/><path d="M43117.4 5576.3c-39.9 69.4-102.7 122.3-178.4 106.9s-134.7-78.3-165.8-149c-31.3-70.6-39.1-149.1-46.6-226-9.4 41.4-6.5 77-7.2 124.3-.6 41.8-22.1 80.7-62.8 90.3-59.5 14-112.2-38.4-151.1-85.7-79.3-96.6-112.1-181.3-191.5-277.9 17.6 76.4 13.5 131.6-49.6 168-55.5 31.9-194.3-82.6-261.1-164.5 19.5 27.4 41.8 58.7 59.4 87.4 89.9 105 211.7 184.4 334.7 250.8 164.9 89 340.4 162.7 484.5 282.4 102.9 85.3 189 201.2 222.2 328.2l3.1-.8c9-176 1.3-358.4 10.2-534.4" style="fill:#c7616f;fill-opacity:1;fill-rule:nonzero;stroke:none" transform="matrix(.02417 0 0 -.02417 -934.402 247.817)"/><path d="M42636.9 5564.8c9.4 0 19-1.1 28.8-3.4 24.2-5.7 44.9-18.8 60.7-37.2 3.2 8.8 6.7 17.5 10.4 26.1 40.2 91 112.8 155.2 194.3 171.8 50.5 10.3 99.6-2.1 142.9-34.5-1 52.2-1.2 104.5-1.4 155.8-.1 31.9-.2 64.2-.5 96.6-41.9-67.8-97.7-131.6-164.8-187.3-96-79.7-205.7-139.7-314.4-195.6 13.8 4.8 28.5 7.7 44 7.7m-377.8-194.1c8.8-1.6 17.2-4.6 25.1-9.1 37.5-21.6 58.5-49.2 69.1-79 7.7 12.1 15.1 24.1 22.7 36.4 28.3 45.7 57.5 92.9 98.9 143.2 14.2 17.4 40.8 49.8 76.1 73.5-3.6-1.8-7.1-3.6-10.6-5.4-41-20.8-83.4-42.3-124.1-64.3-59.3-32-111.4-63.5-157.2-95.3m54.9-251.2c-5.9 0-11.9 1.3-17.5 4.1-16.5 8.1-25.3 26.5-21.2 44.5 18.4 79.8 4.1 104.6-30.8 124.7-24.1 9-132.7-59.9-210.4-155.2-13.6-16.6-37.9-19.4-54.9-6.4s-20.7 37.1-8.2 54.6c17 23.9 40.4 56.6 57.9 85.1 1.1 1.7 2.3 3.4 3.7 5 79.5 92.9 189.4 175.5 346 259.9 41.6 22.5 84.4 44.3 125.8 65.3 121.7 61.9 247.5 125.8 352.2 212.7 105.9 87.9 180.2 197.2 209.1 307.8 5.6 21.2 27.2 33.9 48.4 28.4l3.1-.9c16.8-4.3 28.8-19.1 29.7-36.3 4.5-89 4.8-180.6 5.1-269.1.3-87.7.6-178.3 5.1-265.4.9-18.3-10.9-34.9-28.5-40.1s-36.5 2.4-45.6 18.3c-17.9 31.1-66.8 102-136.1 87.8-56.3-11.4-107.7-58.6-137.4-126.1-29-65.5-36.3-140.9-43.4-213.8-1.9-19.4-17.6-34.6-37-35.8-19.5-1.2-36.9 11.9-41.2 30.9-8.3 36.3-8.2 68.4-8.1 102.3 0 9.6.1 19.6-.1 30.2-.3 20.6-8.9 46.7-32.2 52.2-29.8 7-65.1-16-111.3-72.3-38-46.3-64.5-89.2-92.7-134.7-28.2-45.6-57.4-92.9-98.8-143.2-7.7-9.4-19.1-14.5-30.7-14.5" style="display:inline;fill:#211d1d;fill-opacity:1;fill-rule:nonzero;stroke:none" transform="matrix(.02417 0 0 -.02417 -934.402 247.817)"/></g></svg>