<svg xmlns="http://www.w3.org/2000/svg" width="200mm" height="200mm" viewBox="0 0 200 200"><g style="display:inline"><path d="M20840.2 1834s127-72.2 121.5-166.7c-5.5-94.6-168.8-207.8-224-195.7-55.1 12.1-169.9 89.6-181.9 155.2-11.9 65.6 89.3 248.3 167.2 249.7 77.9 1.3 117.2-42.5 117.2-42.5" style="fill:#352f4b;fill-opacity:1;fill-rule:nonzero;stroke:none" transform="matrix(.03528 0 0 -.03528 -651.4 147.006)"/><path d="M20726.4 1845.9h-2.9c-12.4-.2-35.8-12.8-64.3-47.6-46.9-57.2-78.5-137.6-73.3-166 8.8-48.6 109.4-120.1 158.4-130.9 9.9-2.1 48.7 9.1 97.5 46.1 52.3 39.6 87.4 87.3 89.4 121.6 4.3 73.5-105 137.7-106.1 138.3l-4.3 2.4-3.2 3.6c-2 2.1-32.2 32.5-91.2 32.5m20.5-405.7c-5.4-.1-10.7.5-15.7 1.6-63.2 13.9-190.5 97.3-205.4 179.5-10.2 56 36.8 155.6 86.1 215.8 25.9 31.5 66 69.1 110.6 69.9 77.5 1.2 123.3-36.1 136.5-48.7 23-13.9 139.2-89.4 133.2-192.8-4.5-76.3-80.9-142-113.5-166.7-19.4-14.7-81.7-58.6-131.8-58.6" style="fill:#211d1d;fill-opacity:1;fill-rule:nonzero;stroke:none" transform="matrix(.03528 0 0 -.03528 -651.4 147.006)"/><path d="M20917.2 1434.2s127-72.1 121.5-166.7c-5.5-94.5-168.8-207.8-224-195.7-55.1 12.2-169.9 89.6-181.9 155.2-11.9 65.6 89.3 248.4 167.2 249.7s117.2-42.5 117.2-42.5" style="fill:#fff;fill-opacity:1;fill-rule:nonzero;stroke:none" transform="matrix(.03528 0 0 -.03528 -651.4 147.006)"/><path d="M20803.4 1446.6h-2.9c-12.5-.2-36-12.9-64.7-47.8-47-57.2-78.5-137.8-73.3-166.4 8.8-48.7 109.6-120.4 158.7-131.2 10-2.1 48.9 9.1 97.9 46.2 52.4 39.7 87.5 87.5 89.5 121.9 3.7 61.9-75.5 121.1-106.3 138.7l-4.2 2.4-3.1 3.5c-1.9 1.9-32.1 32.7-91.6 32.7m20.5-405.8c-5.4 0-10.6.5-15.6 1.6-63.1 13.9-190.2 97.2-205.1 179.3-10.1 55.8 36.8 155.3 86.1 215.3 25.8 31.4 65.8 69 110.2 69.8 77 1.2 123.1-36.1 136.2-48.6 22.9-13.8 139.1-89.3 133-192.4-4.4-76.1-80.7-141.7-113.3-166.4-19.4-14.7-81.6-58.6-131.5-58.6" style="fill:#211d1d;fill-opacity:1;fill-rule:nonzero;stroke:none" transform="matrix(.03528 0 0 -.03528 -651.4 147.006)"/><path d="M20633.7 1964.4c16.8 57.5 76.7 88.6 145 96.2 80 9.1 171.5-14.1 218.6-64.8 28.2-30.3 42-70.5 42.9-111.7l.1-1.7c1.2-65.9-30.6-134.3-89.1-168.8-18.6-11-41.3-19.7-65.7-25.6-31-7.7-65-11-97.7-9.4-73.6 3.5-140.4 31.4-151.4 90.8-8.5 46.2-16.1 149.3-2.7 195" style="fill:#66617b;fill-opacity:1;fill-rule:nonzero;stroke:none" transform="matrix(.03528 0 0 -.03528 -651.4 147.006)"/><path d="M20814.1 2032.1c-10.7 0-21.4-.6-32-1.8-30.3-3.4-102.4-17.4-119.1-74.5-11-37.6-5.2-133.7 3.5-180.8 8.2-44.7 68.8-63.4 122.7-65.9 29.8-1.5 60.5 1.5 89 8.5 22.1 5.4 41.9 13.1 57.5 22.3 45.9 27.1 74.9 82.5 74.1 141.4l-.1 1.2c-.8 36.7-13.1 69.2-34.7 92.5-32.9 35.3-96 57.1-160.9 57.1m-10.2-384.5c-5.9 0-11.8.2-17.6.5-100.1 4.7-167.4 48-179.9 115.8-8.3 44.8-17.6 155.7-2 209 18.7 64.1 82.6 108.3 170.9 118.1 94.8 10.7 193-19.2 244.4-74.5 31.8-34.2 50-81 51-131.8l.1-1.8c1.5-80.7-39.4-157.5-104.1-195.7-20.6-12.1-46.2-22.1-74-28.9-28.4-7-58.8-10.7-88.8-10.7" style="fill:#211d1d;fill-opacity:1;fill-rule:nonzero;stroke:none" transform="matrix(.03528 0 0 -.03528 -651.4 147.006)"/><path d="M20140.1 2035.4c24.4 31.9 62.7 55.3 102.8 55.4 40 .1 94.5-27.1 122.8-69.4l7.4 5.2c-.9-2.4-1.7-4.8-2.6-7.2-11.1-32.7-17.8-69.3-21-108.2-69.8-12.7-130.3-49.5-140-111.5-.7-4.7-1.3-9.6-1.7-14.7h-.2c-31.7-5.2-83.4 19.2-97.8 47-9.1 17.7-12.6 37.7-13 58-.2 11.4.6 23 2 34.3 4.9 39.4 16.8 79 41.3 111.1" style="fill:#2d2842;fill-opacity:1;fill-rule:nonzero;stroke:none" transform="matrix(.03528 0 0 -.03528 -651.4 147.006)"/><path d="M20164.3 2016.8c-18.4-24.2-30.2-56.6-35.1-96.3-1.5-10.8-2-20.8-1.8-29.8.3-18.2 3.4-32.7 9.6-44.7 5.7-11.1 26.6-23.4 45-28.6 14.7 56.7 65.2 99.8 139.3 118.9 3.2 26.7 8.1 51.6 14.5 74.3-24 30.8-65.6 49.6-92.7 49.6h-.1c-28.1 0-58.2-16.7-78.7-43.4m71.6-265.4-27.9 2.8c-44.8-4.8-105.6 25.7-125.3 63.7-10.5 20.4-16 44.4-16.4 71.6-.3 11.9.5 25 2.2 38.7 6.3 50.4 22.2 92.7 47.3 125.7 32.2 42.1 79.7 67.3 127.1 67.4h.2c44.1 0 94-23.5 128.2-58.7l62.1 43.5-34.1-96.9c-9.7-28.4-16.2-62.4-19.4-100.5l-1.9-23.3-23-4.2c-24.6-4.5-105.5-23.9-115.3-86.2-.6-3.9-1.1-8-1.4-12.3z" style="fill:#211d1d;fill-opacity:1;fill-rule:nonzero;stroke:none" transform="matrix(.03528 0 0 -.03528 -651.4 147.006)"/><path d="M20207.8 1785c.4 5.1 1 10 1.7 14.7 9.7 62 70.2 98.8 140 111.5 59.4 10.9 125.4 4.4 173.1-18.9 50.6-24.7 85.4-73 99.3-127 13.3-51 7.8-107.1-20.6-152.9-3.5-5.8-7.7-11.4-12.4-16.6-6.7-7.5-14.4-14.5-23-20.9-66.1-50-183.2-66.9-257.9-36.1-7.7 3.1-15 6.8-21.7 11-10.5 6.7-19.8 14.6-27.2 23.9-39.3 49-57.6 143.9-51.3 211.3" style="fill:#66617b;fill-opacity:1;fill-rule:nonzero;stroke:none" transform="matrix(.03528 0 0 -.03528 -651.4 147.006)"/><path d="M20406.8 1885.8c-17.3 0-34.8-1.5-51.8-4.6-24.6-4.5-105.5-23.9-115.3-86.2-.6-3.9-1.1-8-1.4-12.3l-.1-.6c-6.1-65.9 13.9-150.9 44.8-189.3 5-6.3 11.6-12.1 19.6-17.2 5-3.1 10.6-6 16.8-8.4 64-26.5 170.5-11.5 228.1 32 7 5.3 13.2 10.9 18.6 17 3.6 4 6.6 8 9.1 12.1 22.7 36.7 29 83.8 17.2 129.4-12.6 48.4-42.9 87.5-83.2 107.2-28.1 13.7-64.7 20.9-102.4 20.9m-11.5-392.9c-35.6 0-70 5.7-99 17.7-9.3 3.7-18.3 8.3-26.4 13.4-13.7 8.8-25.4 19-34.6 30.6-46.3 57.7-64.4 163-57.9 232.9.4 5.8 1.1 11.4 1.9 16.8 10.9 69.1 72.4 120.2 164.7 137 67.3 12.3 139 4.3 192-21.5 56.4-27.6 98.5-81.1 115.5-146.8 16-61.6 7.1-126-24.2-176.7-4.4-7.2-9.7-14.3-15.8-21-8-8.9-17.2-17.4-27.4-24.9-48.9-37-121.2-57.5-188.8-57.5" style="fill:#211d1d;fill-opacity:1;fill-rule:nonzero;stroke:none" transform="matrix(.03528 0 0 -.03528 -651.4 147.006)"/><path d="M20373.1 2026.6c27.1 73.5 78.7 125.5 168.8 134.6 89 8.9 178.1-29.8 236.2-94.5l.6-6.1c-68.3-7.6-128.2-38.7-145-96.2-13.4-45.7-5.8-148.8 2.7-195l-14.5-4.1c-13.9 54-48.7 102.3-99.3 127-47.7 23.3-113.7 29.8-173.1 18.9 3.2 38.9 9.9 75.5 21 108.2.9 2.4 1.7 4.8 2.6 7.2" style="fill:#352f4b;fill-opacity:1;fill-rule:nonzero;stroke:none" transform="matrix(.03528 0 0 -.03528 -651.4 147.006)"/><path d="M20407 1947c46.8 0 92.4-9.4 129-27.2 22.6-11 42.9-26.2 60.2-44.7-.9 36.8 1 73.4 8.2 97.8 14.5 49.7 56.1 87.4 115.2 106.4-50.5 38.3-114 57.5-174.6 51.5-70.5-7.1-117.3-44.6-143.2-114.6l-2.5-7c-6.4-18.7-11.4-39.8-15-63 7.6.5 15.2.8 22.7.8m193.2-219.6-7.8 30.3c-12.6 48.4-42.9 87.5-83.2 107.2-41 20-100.1 26.2-154.2 16.3l-39.2-7.2 3.3 39.7c3.5 43.1 11.1 82 22.5 115.5l2.8 7.9c34.3 92.9 99.7 144.9 194.5 154.5 95.1 9.5 195.5-30.5 261.9-104.4l6.8-7.6 4.2-46-29.7-3.3c-30.3-3.4-102.4-17.4-119.1-74.5-11-37.6-5.2-133.7 3.5-180.8l5-27.4z" style="fill:#211d1d;fill-opacity:1;fill-rule:nonzero;stroke:none" transform="matrix(.03528 0 0 -.03528 -651.4 147.006)"/><path d="M20959.1 1485.4c-3.7 20.8-10.4 40.9-19.9 59.7-7.5 15.3-17 29.7-28 42.5l-.2.3c-15.7 30.6-24.9 64.8-24.8 96.9l-.7 3.2c24.4 5.9 47.1 14.6 65.7 25.6 58.5 34.5 90.3 102.9 89.1 168.8l-.1 1.7 8.3.5c69.7 21.7 133.3-25.3 167.3-89.5 35-66.2 25.2-143.2 1.9-215.6-38.9-121.5-238.2-129.8-258.6-94.1" style="fill:#2b2640;fill-opacity:1;fill-rule:nonzero;stroke:none" transform="matrix(.03528 0 0 -.03528 -651.4 147.006)"/><path d="M20986.9 1502c15.6-5.6 61.4-8.9 111.1 7.7 33.4 11.1 76.2 33.9 90.7 79.1 25.8 80.5 25.8 143.3.1 192-22.4 42.4-66.1 85.9-118.8 77.6-6.3-71.4-45.2-136.9-103.3-171.2-14.2-8.3-30.8-15.7-48.7-21.7 2.5-19.9 8.9-40.8 18.7-60.6l6.2-7.7-.1-.2c9.1-11.9 17.1-24.8 23.8-38.4 9-17.7 15.8-36.8 20.3-56.6m37.1-65.6c-31.6 0-75.3 5.6-91.4 34l-2.6 4.5-.9 5.1c-3.3 18-9 35.2-17.2 51.4-4.8 9.7-10.4 18.9-16.7 27.3l-3.8.4-5.9 11.6-6.1 7.1.5 4.2c-15.3 32.4-23.8 67.2-24.2 99.4v.1l-6.4 29.1 29 7.1c22 5.3 41.8 13 57.4 22.2 45.9 27.1 74.9 82.5 74.1 141.4l-1.7 31.3 35 2.3c75 21.2 154.9-20.8 199.7-105.5 33.8-64 35.1-142.2 4-239.3-27.4-85.5-118.2-124.3-194-132.2-6.3-.7-16.6-1.5-28.8-1.5" style="fill:#211d1d;fill-opacity:1;fill-rule:nonzero;stroke:none" transform="matrix(.03528 0 0 -.03528 -651.4 147.006)"/><path d="M19997 1820.9c19.1 29.5 63.1 61.4 97.7 69l2.1.1c.4-20.3 3.9-40.3 13-58 14.4-27.8 66.1-52.2 97.8-47h.2c-6.3-67.4 12-162.3 51.3-211.3 7.4-9.3 16.7-17.2 27.2-23.9 6.7-4.2 14-7.9 21.7-11-1.7-4.1-9.1-15.7-14.2-18.7-4 3-8.1 5.7-12.5 8.1-51.4 28-129.2 14.5-196-20.4-45.4 29.9-108.4 102.7-119.1 155.8-10.6 53.2.7 110.8 30.8 157.3" style="fill:#1b192d;fill-opacity:1;fill-rule:nonzero;stroke:none" transform="matrix(.03528 0 0 -.03528 -651.4 147.006)"/><path d="M20022.6 1804.3c-25.9-40-35.5-89.1-26.4-134.7 7.6-37.9 53.3-95.1 92.1-126.2 46.6 21.5 92.7 32 133.6 30.4-30.6 50.4-45.4 123.1-45.8 182.2-38.1 7.5-78.1 32.5-93.4 61.9q-7.05 13.8-11.1 29.7c-19.5-11.3-39-27.9-49-43.3m60.9-331.9-15.1 9.9c-46.8 30.9-118.8 109-132.1 175.3-12.2 61.1.6 126.7 35 179.9 24 37 75.3 73.1 116.9 82.2l7.1.8 31.5 1.6.6-31.6c.3-18 3.4-32.5 9.6-44.5 8.2-15.8 46.9-34 65.6-30.9l4.1.7 34.1-3.5-2.6-30.2c-6.1-65.9 13.9-150.9 44.8-189.3 5-6.3 11.6-12.1 19.6-17.2 5-3.1 10.6-6 16.8-8.4l28.6-11.6-11.8-28.5c-2-4.8-12.4-24.7-26.7-33.2l-17.9-10.8-16.5 12.8c-2.5 1.9-5.3 3.7-8.8 5.7-37.5 20.5-103.2 12.4-166.9-20.9z" style="fill:#211d1d;fill-opacity:1;fill-rule:nonzero;stroke:none" transform="matrix(.03528 0 0 -.03528 -651.4 147.006)"/><path d="M20405.2 1358.2c17.1-76.2-57.8-167.9-144.7-215.5l-.6-.3q-3.6-1.65-7.2-3.9l-.5-.3c-41.5-21.2-85.2-32.1-122.3-26.2-117.9 18.4-203.4 147-171.9 262 14.2 52.2 66.1 102 127.3 133.8 66.8 34.9 144.6 48.4 196 20.4 4.4-2.4 8.5-5.1 12.5-8.1l1.9-1.3c51.5-40.9 95.2-96.4 109.5-160.6" style="fill:#1b192d;fill-opacity:1;fill-rule:nonzero;stroke:none" transform="matrix(.03528 0 0 -.03528 -651.4 147.006)"/><path d="m20276.7 1494.8.1-.1zm-61.5 18c-34.3 0-75.4-11-115.8-32.1-58-30.2-100.9-74.2-111.9-114.7-12.6-45.7-3.4-97 25-141 29.1-45 73.7-75.3 122.1-82.9 28.1-4.3 63.8 3.4 101 22l6.7 5.3 3-.1 1.8.9h.1c82.9 46 140.3 127.2 128.2 181.4-11.3 50.6-46 101.2-97.8 142.5l-2.5 1.8c-2.5 1.9-5.3 3.7-8.8 5.7-13.7 7.5-31.3 11.2-51.1 11.2m-64.2-433c-8.6 0-17.2.6-25.9 2-65.6 10.3-125.3 50.4-163.9 110.1-37.9 58.5-49.8 127.8-32.7 190.2 15.6 57.2 68.9 114.4 142.6 152.8 83.7 43.7 167.8 51.2 224.9 20.1 6-3.4 10.9-6.5 15.4-9.9l1.9-1.4 1.3-1c63.2-50.1 106-113.2 120.4-177.8 21.1-94.3-64.4-196.7-159.8-249l-3.1-1.5-2.7-1.5-1.4-.9-7.2-4.5-1.7.1c-28.8-14-67.6-27.8-108.1-27.8" style="fill:#211d1d;fill-opacity:1;fill-rule:nonzero;stroke:none" transform="matrix(.03528 0 0 -.03528 -651.4 147.006)"/><path d="M20590.6 1078c-27.8 49.5-70.6 90.3-115.1 94.1-69.8 5.9-150.6-.3-215-29.4 86.9 47.6 161.8 139.3 144.7 215.5-14.3 64.2-58 119.7-109.5 160.6l-1.9 1.3c5.1 3 12.5 14.6 14.2 18.7 74.7-30.8 191.8-13.9 257.9 36.1l3-4c2.1-2.9 4.1-5.9 6.2-8.8l2.8-1.9c-18.8-26.7-28.3-57.4-23.6-90 7.1-49 47.2-142.7 77.6-181.4 33.3-42.3 89.1-52.8 145.2-41.6l.1-.3c-89.1-16.9-183.2-86-186.6-168.9" style="fill:#211d1d;fill-opacity:1;fill-rule:nonzero;stroke:none" transform="matrix(.03528 0 0 -.03528 -651.4 147.006)"/><path d="M20427.8 1204.2c19.4 0 36.6-.9 50.3-2.1 35-3 70.5-23.3 101-56.6 17.4 33 45.9 61.8 79.4 84.2-19.6 9.6-36.6 23.2-50.2 40.5-33.7 42.8-76 141.5-83.8 195.7-2.5 17.8-1.8 35.5 2.2 52.9-50-20.4-108.9-29.1-161.9-24 35.5-39.9 59.6-84.6 69.8-130 12.4-55.3-12-113.4-53.6-162.5 16.5 1.4 32.3 1.9 46.8 1.9m188.5-233.497-52 92.597c-25.4 45.3-61.3 76.3-91.4 78.8-75.2 6.4-148.1-3.4-200-26.9l-26.8 53.9c83.7 45.9 142 127.9 129.7 182.6-11.3 50.7-46.1 101.4-97.9 142.7l-45 24.3 43.4 25.9c1.4 1.8 3.4 4.9 4.1 6.4l11.5 27.8 27.6-12.2c63.9-26.3 170.6-11.3 228.2 32.3l23.9 18 25.1-33.2 23.1-16.2-17.3-24.6c-15.5-22.1-21.7-45.1-18.4-68.5 6.3-43.5 44.4-132.6 71.5-167 33-41.9 91.9-35.5 115.7-30.7l29 5.8 12.8-59.2-30.3-6c-76.1-14.4-159.4-74.3-162.1-140.5z" style="fill:#211d1d;fill-opacity:1;fill-rule:nonzero;stroke:none" transform="matrix(.03528 0 0 -.03528 -651.4 147.006)"/><path d="M20475.5 1172.1c44.5-3.8 87.3-44.6 115.1-94.1-.4-6.5-.1-13.2.9-20 3.3-24.2 15.6-57.8 31-91.199 0-6.899-.6-13.598-1.8-20-18.6-97.602-136.7-149.199-236.5-141.699-73.3 5.398-147.4 36-188.4 95.398-39.4 56.902-6.2 199.4 56.4 237.7l.5.3c2.4 1.3 4.9 2.5 7.2 3.9l.6.3c64.4 29.1 145.2 35.3 215 29.4" style="fill:#1b192d;fill-opacity:1;fill-rule:nonzero;stroke:none" transform="matrix(.03528 0 0 -.03528 -651.4 147.006)"/><path d="M20267.2 1111.6c-22.4-14.4-43.7-53.6-53-98-8.5-40.1-5.8-77.6 6.7-95.698 32-46.203 93.9-77 165.6-82.402 86.3-6.301 188.8 36.5 204.2 117 .5 2.699.8 5.402 1.1 8.203-12.4 27.297-26.6 63.697-30.6 93.197-.7 5.3-1.2 10.7-1.3 16-25 41.5-58.6 69.3-87 71.8-74.9 6.3-147.5-3.4-199.3-26.7-1.6-.8-3.2-1.7-4.9-2.6zm136.7-337.799c-7.4 0-14.7.301-21.9.801-91.3 6.796-168.3 46.398-211.3 108.5-22.6 32.699-28.6 84.8-16.3 143.098 13.1 62.3 43 113.3 80.1 137l7.8 6.2 3-.1 3.5 1.6c82.7 37.4 179.2 35.9 229.3 31.7 51-4.4 103-45.4 139.1-109.6l4.3-7.8-.4-8.8c-.3-4.5 0-9.3.7-14.1 2.5-19.1 12.9-49.1 28.5-82.698l2.8-6.102v-6.801c0-8.597-.8-17.199-2.4-25.496-20.5-108-137.6-167.402-246.8-167.402" style="fill:#211d1d;fill-opacity:1;fill-rule:nonzero;stroke:none" transform="matrix(.03528 0 0 -.03528 -651.4 147.006)"/><path d="M20590.6 1078c3.4 82.9 97.5 152 186.6 168.9q14.4 2.7 28.5 3.6c53.6 3.2 106.5-15.3 147.8-47.7 1-.7 1.9-1.6 3-2.4 36.8-29.9 64-71 73.8-117.4 17.8-85.199-23.6-180.801-99.2-228.5-75.6-47.5-194.7-57.602-248.9 10.301-18.1 22.601-44.8 41.101-63.2 80.902-11.3 12.699-22.8 54.397-28.9 74.397-5.5 18-.8 33.1.5 57.9" style="fill:#2b2640;fill-opacity:1;fill-rule:nonzero;stroke:none" transform="matrix(.03528 0 0 -.03528 -651.4 147.006)"/><path d="M20817.5 1220.3c-3.3 0-6.7-.1-10-.3-7.9-.5-16.2-1.5-24.5-3.1-76.1-14.4-159.2-74.2-161.9-140.1v-.4c-.4-7.9-1.2-14.9-1.8-21.4-1.4-13-2-19.5 0-25.9l2.5-8.4c3.9-12.9 14.1-47.098 20.2-54.899l3-3.399 1.7-3.902c10.6-23 24.4-37.199 39-52.199 6.9-7.102 14-14.403 20.4-22.5 42.2-52.801 143.9-44.199 208.8-3.399 64.7 40.801 100.7 123.398 85.5 196.398-8 37.8-30.4 73.3-63.1 99.9l-2.3 1.8c-34.3 26.9-76.5 41.8-117.5 41.8m-18.7-434.597c-54.8 0-106.9 18-140.4 60-4.6 5.797-10.4 11.699-16.6 18.098-15.3 15.699-34.2 35.199-48.9 65.699-11.7 15.801-20.4 42.801-29.6 73.7l-2.4 8c-5.7 18.6-4 34.7-2.4 50.2.6 5.4 1.2 11.4 1.6 18.1 4.2 99.3 110.7 178.3 211.4 197.4 10.9 2.1 21.8 3.5 32.4 4.1 59.5 3.6 119.4-15.7 168.5-54.1.5-.5 1.4-1.2 2.4-2l.8-.7c43.7-35.4 73.7-83.3 84.6-134.9 20.6-98.597-25.8-205.8-112.8-260.597-42.9-27.004-96.9-43-148.6-43" style="fill:#211d1d;fill-opacity:1;fill-rule:nonzero;stroke:none" transform="matrix(.03528 0 0 -.03528 -651.4 147.006)"/><path d="M20865.2 1289.9c40.6-240.6 469.2-244.6 480.6 26.9 7.3 172.9-185.1 302.4-345.1 209.3-91.5-53.2-102.6-141.9-135.5-236.2" style="fill:#352f4b;fill-opacity:1;fill-rule:nonzero;stroke:none" transform="matrix(.03528 0 0 -.03528 -651.4 147.006)"/><path d="M20896.7 1287.6c22-103.5 130.8-151.5 229.1-145.3 84.3 5.3 184.4 54.5 189.5 175.8 3 71.9-34.9 140.7-99.1 179.4-62.6 37.8-137.5 38.6-200.1 2.2-64.8-37.6-82.7-95.4-105.4-168.5-4.4-14.2-9-28.8-14-43.6m212.4-206.9c-122.3 0-251 67.6-274 204.1l-1.3 7.7 2.5 7.4c5.8 16.6 11 33.2 16 49.4 23.5 75.5 47.8 153.6 133.1 203.2 82.2 47.9 180.3 46.8 262.4-2.7 83.2-50.2 132.5-140 128.5-234.3-6.3-151.5-128.4-226.8-246.7-234.2-6.8-.4-13.6-.6-20.5-.6" style="fill:#211d1d;fill-opacity:1;fill-rule:nonzero;stroke:none" transform="matrix(.03528 0 0 -.03528 -651.4 147.006)"/><path d="M20911 1587.9c-23.7 28.1-54.9 49.7-91.3 59.8-11 3.1-22.5 5-34.2 5.9-69.2 5.1-147.5-26.1-193.4-75.8-5.2-5.7-9.9-11.5-14.2-17.6-18.8-26.7-28.3-57.4-23.6-90 7.1-49 47.2-142.7 77.6-181.4 33.3-42.3 89.1-52.8 145.2-41.6 43 8.4 86.1 29.6 119.5 59.1 18.6 16.5 34.3 35.4 45.2 56.3 19.9 38.1 24.7 81.2 17.4 122.4l-.1.4c-3.7 20.8-10.4 40.9-19.9 59.7-7.5 15.3-17 29.7-28 42.5z" style="fill:#66617b;fill-opacity:1;fill-rule:nonzero;stroke:none" transform="matrix(.03528 0 0 -.03528 -651.4 147.006)"/><path d="M20736.3 1212.4c-53.4 0-98.8 19.9-128.4 57.5-33.7 42.8-76 141.7-83.9 195.9-5.4 38.7 4.5 77.3 28.9 111.9 5.5 7.8 11 14.5 16.9 20.9 52.3 56.8 140 91.1 217.9 85.5 14.2-1.1 27.7-3.5 40.3-7 40.7-11.2 77.5-35.3 106.4-69.6l-46.7-39.3c-20.9 24.7-47.2 42.1-76.1 50.1-8.9 2.4-18.4 4.1-28.4 4.8-59.4 4.4-128.7-22.7-168.6-66-4.2-4.5-8-9.2-11.8-14.6-15.4-21.9-21.6-44.8-18.3-68 6.3-43.5 44.4-132.4 71.4-166.8 32.9-41.8 91.6-35.3 115.3-30.6 37.8 7.5 76.1 26.5 105.1 52.1 16.7 14.8 29.6 30.8 38.4 47.5 16 30.5 21 66.1 14.4 103-3.3 18.3-9 35.5-17.2 51.7-6.5 13.3-14.5 25.4-23.9 36.4l46.4 39.7c12.7-14.8 23.5-31.2 32.2-48.9 10.7-21.1 18.3-44 22.6-67.7 9-50.9 1.9-100-20.4-142.5-12.2-23.4-29.7-45.2-52-65-37.4-33-84.9-56.6-133.7-66.2-16.1-3.2-31.8-4.8-46.8-4.8" style="fill:#211d1d;fill-opacity:1;fill-rule:nonzero;stroke:none" transform="matrix(.03528 0 0 -.03528 -651.4 147.006)"/><path d="M20840.2 1834s127-72.2 121.5-166.7c-5.5-94.6-168.8-207.8-224-195.7-55.1 12.1-169.9 89.6-181.9 155.2-11.9 65.6 89.3 248.3 167.2 249.7 77.9 1.3 117.2-42.5 117.2-42.5" style="fill:#352f4b;fill-opacity:1;fill-rule:nonzero;stroke:none" transform="matrix(.03528 0 0 -.03528 -605.48 126.188)"/><path d="M20726.4 1845.9h-2.9c-12.4-.2-35.8-12.8-64.3-47.6-46.9-57.2-78.5-137.6-73.3-166 8.8-48.6 109.4-120.1 158.4-130.9 9.9-2.1 48.7 9.1 97.5 46.1 52.3 39.6 87.4 87.3 89.4 121.6 4.3 73.5-105 137.7-106.1 138.3l-4.3 2.4-3.2 3.6c-2 2.1-32.2 32.5-91.2 32.5m20.5-405.7c-5.4-.1-10.7.5-15.7 1.6-63.2 13.9-190.5 97.3-205.4 179.5-10.2 56 36.8 155.6 86.1 215.8 25.9 31.5 66 69.1 110.6 69.9 77.5 1.2 123.3-36.1 136.5-48.7 23-13.9 139.2-89.4 133.2-192.8-4.5-76.3-80.9-142-113.5-166.7-19.4-14.7-81.7-58.6-131.8-58.6" style="fill:#211d1d;fill-opacity:1;fill-rule:nonzero;stroke:none" transform="matrix(.03528 0 0 -.03528 -605.48 126.188)"/><path d="M20917.2 1434.2s127-72.1 121.5-166.7c-5.5-94.5-168.8-207.8-224-195.7-55.1 12.2-169.9 89.6-181.9 155.2-11.9 65.6 89.3 248.4 167.2 249.7s117.2-42.5 117.2-42.5" style="fill:#fff;fill-opacity:1;fill-rule:nonzero;stroke:none" transform="matrix(.03528 0 0 -.03528 -605.48 126.188)"/><path d="M20803.4 1446.6h-2.9c-12.5-.2-36-12.9-64.7-47.8-47-57.2-78.5-137.8-73.3-166.4 8.8-48.7 109.6-120.4 158.7-131.2 10-2.1 48.9 9.1 97.9 46.2 52.4 39.7 87.5 87.5 89.5 121.9 3.7 61.9-75.5 121.1-106.3 138.7l-4.2 2.4-3.1 3.5c-1.9 1.9-32.1 32.7-91.6 32.7m20.5-405.8c-5.4 0-10.6.5-15.6 1.6-63.1 13.9-190.2 97.2-205.1 179.3-10.1 55.8 36.8 155.3 86.1 215.3 25.8 31.4 65.8 69 110.2 69.8 77 1.2 123.1-36.1 136.2-48.6 22.9-13.8 139.1-89.3 133-192.4-4.4-76.1-80.7-141.7-113.3-166.4-19.4-14.7-81.6-58.6-131.5-58.6" style="fill:#211d1d;fill-opacity:1;fill-rule:nonzero;stroke:none" transform="matrix(.03528 0 0 -.03528 -605.48 126.188)"/><path d="M20633.7 1964.4c16.8 57.5 76.7 88.6 145 96.2 80 9.1 171.5-14.1 218.6-64.8 28.2-30.3 42-70.5 42.9-111.7l.1-1.7c1.2-65.9-30.6-134.3-89.1-168.8-18.6-11-41.3-19.7-65.7-25.6-31-7.7-65-11-97.7-9.4-73.6 3.5-140.4 31.4-151.4 90.8-8.5 46.2-16.1 149.3-2.7 195" style="fill:#66617b;fill-opacity:1;fill-rule:nonzero;stroke:none" transform="matrix(.03528 0 0 -.03528 -605.48 126.188)"/><path d="M20814.1 2032.1c-10.7 0-21.4-.6-32-1.8-30.3-3.4-102.4-17.4-119.1-74.5-11-37.6-5.2-133.7 3.5-180.8 8.2-44.7 68.8-63.4 122.7-65.9 29.8-1.5 60.5 1.5 89 8.5 22.1 5.4 41.9 13.1 57.5 22.3 45.9 27.1 74.9 82.5 74.1 141.4l-.1 1.2c-.8 36.7-13.1 69.2-34.7 92.5-32.9 35.3-96 57.1-160.9 57.1m-10.2-384.5c-5.9 0-11.8.2-17.6.5-100.1 4.7-167.4 48-179.9 115.8-8.3 44.8-17.6 155.7-2 209 18.7 64.1 82.6 108.3 170.9 118.1 94.8 10.7 193-19.2 244.4-74.5 31.8-34.2 50-81 51-131.8l.1-1.8c1.5-80.7-39.4-157.5-104.1-195.7-20.6-12.1-46.2-22.1-74-28.9-28.4-7-58.8-10.7-88.8-10.7" style="fill:#211d1d;fill-opacity:1;fill-rule:nonzero;stroke:none" transform="matrix(.03528 0 0 -.03528 -605.48 126.188)"/><path d="M20140.1 2035.4c24.4 31.9 62.7 55.3 102.8 55.4 40 .1 94.5-27.1 122.8-69.4l7.4 5.2c-.9-2.4-1.7-4.8-2.6-7.2-11.1-32.7-17.8-69.3-21-108.2-69.8-12.7-130.3-49.5-140-111.5-.7-4.7-1.3-9.6-1.7-14.7h-.2c-31.7-5.2-83.4 19.2-97.8 47-9.1 17.7-12.6 37.7-13 58-.2 11.4.6 23 2 34.3 4.9 39.4 16.8 79 41.3 111.1" style="fill:#2d2842;fill-opacity:1;fill-rule:nonzero;stroke:none" transform="matrix(.03528 0 0 -.03528 -605.48 126.188)"/><path d="M20164.3 2016.8c-18.4-24.2-30.2-56.6-35.1-96.3-1.5-10.8-2-20.8-1.8-29.8.3-18.2 3.4-32.7 9.6-44.7 5.7-11.1 26.6-23.4 45-28.6 14.7 56.7 65.2 99.8 139.3 118.9 3.2 26.7 8.1 51.6 14.5 74.3-24 30.8-65.6 49.6-92.7 49.6h-.1c-28.1 0-58.2-16.7-78.7-43.4m71.6-265.4-27.9 2.8c-44.8-4.8-105.6 25.7-125.3 63.7-10.5 20.4-16 44.4-16.4 71.6-.3 11.9.5 25 2.2 38.7 6.3 50.4 22.2 92.7 47.3 125.7 32.2 42.1 79.7 67.3 127.1 67.4h.2c44.1 0 94-23.5 128.2-58.7l62.1 43.5-34.1-96.9c-9.7-28.4-16.2-62.4-19.4-100.5l-1.9-23.3-23-4.2c-24.6-4.5-105.5-23.9-115.3-86.2-.6-3.9-1.1-8-1.4-12.3z" style="fill:#211d1d;fill-opacity:1;fill-rule:nonzero;stroke:none" transform="matrix(.03528 0 0 -.03528 -605.48 126.188)"/><path d="M20207.8 1785c.4 5.1 1 10 1.7 14.7 9.7 62 70.2 98.8 140 111.5 59.4 10.9 125.4 4.4 173.1-18.9 50.6-24.7 85.4-73 99.3-127 13.3-51 7.8-107.1-20.6-152.9-3.5-5.8-7.7-11.4-12.4-16.6-6.7-7.5-14.4-14.5-23-20.9-66.1-50-183.2-66.9-257.9-36.1-7.7 3.1-15 6.8-21.7 11-10.5 6.7-19.8 14.6-27.2 23.9-39.3 49-57.6 143.9-51.3 211.3" style="fill:#66617b;fill-opacity:1;fill-rule:nonzero;stroke:none" transform="matrix(.03528 0 0 -.03528 -605.48 126.188)"/><path d="M20406.8 1885.8c-17.3 0-34.8-1.5-51.8-4.6-24.6-4.5-105.5-23.9-115.3-86.2-.6-3.9-1.1-8-1.4-12.3l-.1-.6c-6.1-65.9 13.9-150.9 44.8-189.3 5-6.3 11.6-12.1 19.6-17.2 5-3.1 10.6-6 16.8-8.4 64-26.5 170.5-11.5 228.1 32 7 5.3 13.2 10.9 18.6 17 3.6 4 6.6 8 9.1 12.1 22.7 36.7 29 83.8 17.2 129.4-12.6 48.4-42.9 87.5-83.2 107.2-28.1 13.7-64.7 20.9-102.4 20.9m-11.5-392.9c-35.6 0-70 5.7-99 17.7-9.3 3.7-18.3 8.3-26.4 13.4-13.7 8.8-25.4 19-34.6 30.6-46.3 57.7-64.4 163-57.9 232.9.4 5.8 1.1 11.4 1.9 16.8 10.9 69.1 72.4 120.2 164.7 137 67.3 12.3 139 4.3 192-21.5 56.4-27.6 98.5-81.1 115.5-146.8 16-61.6 7.1-126-24.2-176.7-4.4-7.2-9.7-14.3-15.8-21-8-8.9-17.2-17.4-27.4-24.9-48.9-37-121.2-57.5-188.8-57.5" style="fill:#211d1d;fill-opacity:1;fill-rule:nonzero;stroke:none" transform="matrix(.03528 0 0 -.03528 -605.48 126.188)"/><path d="M20373.1 2026.6c27.1 73.5 78.7 125.5 168.8 134.6 89 8.9 178.1-29.8 236.2-94.5l.6-6.1c-68.3-7.6-128.2-38.7-145-96.2-13.4-45.7-5.8-148.8 2.7-195l-14.5-4.1c-13.9 54-48.7 102.3-99.3 127-47.7 23.3-113.7 29.8-173.1 18.9 3.2 38.9 9.9 75.5 21 108.2.9 2.4 1.7 4.8 2.6 7.2" style="fill:#352f4b;fill-opacity:1;fill-rule:nonzero;stroke:none" transform="matrix(.03528 0 0 -.03528 -605.48 126.188)"/><path d="M20407 1947c46.8 0 92.4-9.4 129-27.2 22.6-11 42.9-26.2 60.2-44.7-.9 36.8 1 73.4 8.2 97.8 14.5 49.7 56.1 87.4 115.2 106.4-50.5 38.3-114 57.5-174.6 51.5-70.5-7.1-117.3-44.6-143.2-114.6l-2.5-7c-6.4-18.7-11.4-39.8-15-63 7.6.5 15.2.8 22.7.8m193.2-219.6-7.8 30.3c-12.6 48.4-42.9 87.5-83.2 107.2-41 20-100.1 26.2-154.2 16.3l-39.2-7.2 3.3 39.7c3.5 43.1 11.1 82 22.5 115.5l2.8 7.9c34.3 92.9 99.7 144.9 194.5 154.5 95.1 9.5 195.5-30.5 261.9-104.4l6.8-7.6 4.2-46-29.7-3.3c-30.3-3.4-102.4-17.4-119.1-74.5-11-37.6-5.2-133.7 3.5-180.8l5-27.4z" style="fill:#211d1d;fill-opacity:1;fill-rule:nonzero;stroke:none" transform="matrix(.03528 0 0 -.03528 -605.48 126.188)"/><path d="M20959.1 1485.4c-3.7 20.8-10.4 40.9-19.9 59.7-7.5 15.3-17 29.7-28 42.5l-.2.3c-15.7 30.6-24.9 64.8-24.8 96.9l-.7 3.2c24.4 5.9 47.1 14.6 65.7 25.6 58.5 34.5 90.3 102.9 89.1 168.8l-.1 1.7 8.3.5c69.7 21.7 133.3-25.3 167.3-89.5 35-66.2 25.2-143.2 1.9-215.6-38.9-121.5-238.2-129.8-258.6-94.1" style="fill:#2b2640;fill-opacity:1;fill-rule:nonzero;stroke:none" transform="matrix(.03528 0 0 -.03528 -605.48 126.188)"/><path d="M20986.9 1502c15.6-5.6 61.4-8.9 111.1 7.7 33.4 11.1 76.2 33.9 90.7 79.1 25.8 80.5 25.8 143.3.1 192-22.4 42.4-66.1 85.9-118.8 77.6-6.3-71.4-45.2-136.9-103.3-171.2-14.2-8.3-30.8-15.7-48.7-21.7 2.5-19.9 8.9-40.8 18.7-60.6l6.2-7.7-.1-.2c9.1-11.9 17.1-24.8 23.8-38.4 9-17.7 15.8-36.8 20.3-56.6m37.1-65.6c-31.6 0-75.3 5.6-91.4 34l-2.6 4.5-.9 5.1c-3.3 18-9 35.2-17.2 51.4-4.8 9.7-10.4 18.9-16.7 27.3l-3.8.4-5.9 11.6-6.1 7.1.5 4.2c-15.3 32.4-23.8 67.2-24.2 99.4v.1l-6.4 29.1 29 7.1c22 5.3 41.8 13 57.4 22.2 45.9 27.1 74.9 82.5 74.1 141.4l-1.7 31.3 35 2.3c75 21.2 154.9-20.8 199.7-105.5 33.8-64 35.1-142.2 4-239.3-27.4-85.5-118.2-124.3-194-132.2-6.3-.7-16.6-1.5-28.8-1.5" style="fill:#211d1d;fill-opacity:1;fill-rule:nonzero;stroke:none" transform="matrix(.03528 0 0 -.03528 -605.48 126.188)"/><path d="M19997 1820.9c19.1 29.5 63.1 61.4 97.7 69l2.1.1c.4-20.3 3.9-40.3 13-58 14.4-27.8 66.1-52.2 97.8-47h.2c-6.3-67.4 12-162.3 51.3-211.3 7.4-9.3 16.7-17.2 27.2-23.9 6.7-4.2 14-7.9 21.7-11-1.7-4.1-9.1-15.7-14.2-18.7-4 3-8.1 5.7-12.5 8.1-51.4 28-129.2 14.5-196-20.4-45.4 29.9-108.4 102.7-119.1 155.8-10.6 53.2.7 110.8 30.8 157.3" style="fill:#1b192d;fill-opacity:1;fill-rule:nonzero;stroke:none" transform="matrix(.03528 0 0 -.03528 -605.48 126.188)"/><path d="M20022.6 1804.3c-25.9-40-35.5-89.1-26.4-134.7 7.6-37.9 53.3-95.1 92.1-126.2 46.6 21.5 92.7 32 133.6 30.4-30.6 50.4-45.4 123.1-45.8 182.2-38.1 7.5-78.1 32.5-93.4 61.9q-7.05 13.8-11.1 29.7c-19.5-11.3-39-27.9-49-43.3m60.9-331.9-15.1 9.9c-46.8 30.9-118.8 109-132.1 175.3-12.2 61.1.6 126.7 35 179.9 24 37 75.3 73.1 116.9 82.2l7.1.8 31.5 1.6.6-31.6c.3-18 3.4-32.5 9.6-44.5 8.2-15.8 46.9-34 65.6-30.9l4.1.7 34.1-3.5-2.6-30.2c-6.1-65.9 13.9-150.9 44.8-189.3 5-6.3 11.6-12.1 19.6-17.2 5-3.1 10.6-6 16.8-8.4l28.6-11.6-11.8-28.5c-2-4.8-12.4-24.7-26.7-33.2l-17.9-10.8-16.5 12.8c-2.5 1.9-5.3 3.7-8.8 5.7-37.5 20.5-103.2 12.4-166.9-20.9z" style="fill:#211d1d;fill-opacity:1;fill-rule:nonzero;stroke:none" transform="matrix(.03528 0 0 -.03528 -605.48 126.188)"/><path d="M20405.2 1358.2c17.1-76.2-57.8-167.9-144.7-215.5l-.6-.3q-3.6-1.65-7.2-3.9l-.5-.3c-41.5-21.2-85.2-32.1-122.3-26.2-117.9 18.4-203.4 147-171.9 262 14.2 52.2 66.1 102 127.3 133.8 66.8 34.9 144.6 48.4 196 20.4 4.4-2.4 8.5-5.1 12.5-8.1l1.9-1.3c51.5-40.9 95.2-96.4 109.5-160.6" style="fill:#1b192d;fill-opacity:1;fill-rule:nonzero;stroke:none" transform="matrix(.03528 0 0 -.03528 -605.48 126.188)"/><path d="m20276.7 1494.8.1-.1zm-61.5 18c-34.3 0-75.4-11-115.8-32.1-58-30.2-100.9-74.2-111.9-114.7-12.6-45.7-3.4-97 25-141 29.1-45 73.7-75.3 122.1-82.9 28.1-4.3 63.8 3.4 101 22l6.7 5.3 3-.1 1.8.9h.1c82.9 46 140.3 127.2 128.2 181.4-11.3 50.6-46 101.2-97.8 142.5l-2.5 1.8c-2.5 1.9-5.3 3.7-8.8 5.7-13.7 7.5-31.3 11.2-51.1 11.2m-64.2-433c-8.6 0-17.2.6-25.9 2-65.6 10.3-125.3 50.4-163.9 110.1-37.9 58.5-49.8 127.8-32.7 190.2 15.6 57.2 68.9 114.4 142.6 152.8 83.7 43.7 167.8 51.2 224.9 20.1 6-3.4 10.9-6.5 15.4-9.9l1.9-1.4 1.3-1c63.2-50.1 106-113.2 120.4-177.8 21.1-94.3-64.4-196.7-159.8-249l-3.1-1.5-2.7-1.5-1.4-.9-7.2-4.5-1.7.1c-28.8-14-67.6-27.8-108.1-27.8" style="fill:#211d1d;fill-opacity:1;fill-rule:nonzero;stroke:none" transform="matrix(.03528 0 0 -.03528 -605.48 126.188)"/><path d="M20590.6 1078c-27.8 49.5-70.6 90.3-115.1 94.1-69.8 5.9-150.6-.3-215-29.4 86.9 47.6 161.8 139.3 144.7 215.5-14.3 64.2-58 119.7-109.5 160.6l-1.9 1.3c5.1 3 12.5 14.6 14.2 18.7 74.7-30.8 191.8-13.9 257.9 36.1l3-4c2.1-2.9 4.1-5.9 6.2-8.8l2.8-1.9c-18.8-26.7-28.3-57.4-23.6-90 7.1-49 47.2-142.7 77.6-181.4 33.3-42.3 89.1-52.8 145.2-41.6l.1-.3c-89.1-16.9-183.2-86-186.6-168.9" style="fill:#211d1d;fill-opacity:1;fill-rule:nonzero;stroke:none" transform="matrix(.03528 0 0 -.03528 -605.48 126.188)"/><path d="M20427.8 1204.2c19.4 0 36.6-.9 50.3-2.1 35-3 70.5-23.3 101-56.6 17.4 33 45.9 61.8 79.4 84.2-19.6 9.6-36.6 23.2-50.2 40.5-33.7 42.8-76 141.5-83.8 195.7-2.5 17.8-1.8 35.5 2.2 52.9-50-20.4-108.9-29.1-161.9-24 35.5-39.9 59.6-84.6 69.8-130 12.4-55.3-12-113.4-53.6-162.5 16.5 1.4 32.3 1.9 46.8 1.9m188.5-233.497-52 92.597c-25.4 45.3-61.3 76.3-91.4 78.8-75.2 6.4-148.1-3.4-200-26.9l-26.8 53.9c83.7 45.9 142 127.9 129.7 182.6-11.3 50.7-46.1 101.4-97.9 142.7l-45 24.3 43.4 25.9c1.4 1.8 3.4 4.9 4.1 6.4l11.5 27.8 27.6-12.2c63.9-26.3 170.6-11.3 228.2 32.3l23.9 18 25.1-33.2 23.1-16.2-17.3-24.6c-15.5-22.1-21.7-45.1-18.4-68.5 6.3-43.5 44.4-132.6 71.5-167 33-41.9 91.9-35.5 115.7-30.7l29 5.8 12.8-59.2-30.3-6c-76.1-14.4-159.4-74.3-162.1-140.5z" style="fill:#211d1d;fill-opacity:1;fill-rule:nonzero;stroke:none" transform="matrix(.03528 0 0 -.03528 -605.48 126.188)"/><path d="M20475.5 1172.1c44.5-3.8 87.3-44.6 115.1-94.1-.4-6.5-.1-13.2.9-20 3.3-24.2 15.6-57.8 31-91.199 0-6.899-.6-13.598-1.8-20-18.6-97.602-136.7-149.199-236.5-141.699-73.3 5.398-147.4 36-188.4 95.398-39.4 56.902-6.2 199.4 56.4 237.7l.5.3c2.4 1.3 4.9 2.5 7.2 3.9l.6.3c64.4 29.1 145.2 35.3 215 29.4" style="fill:#1b192d;fill-opacity:1;fill-rule:nonzero;stroke:none" transform="matrix(.03528 0 0 -.03528 -605.48 126.188)"/><path d="M20267.2 1111.6c-22.4-14.4-43.7-53.6-53-98-8.5-40.1-5.8-77.6 6.7-95.698 32-46.203 93.9-77 165.6-82.402 86.3-6.301 188.8 36.5 204.2 117 .5 2.699.8 5.402 1.1 8.203-12.4 27.297-26.6 63.697-30.6 93.197-.7 5.3-1.2 10.7-1.3 16-25 41.5-58.6 69.3-87 71.8-74.9 6.3-147.5-3.4-199.3-26.7-1.6-.8-3.2-1.7-4.9-2.6zm136.7-337.799c-7.4 0-14.7.301-21.9.801-91.3 6.796-168.3 46.398-211.3 108.5-22.6 32.699-28.6 84.8-16.3 143.098 13.1 62.3 43 113.3 80.1 137l7.8 6.2 3-.1 3.5 1.6c82.7 37.4 179.2 35.9 229.3 31.7 51-4.4 103-45.4 139.1-109.6l4.3-7.8-.4-8.8c-.3-4.5 0-9.3.7-14.1 2.5-19.1 12.9-49.1 28.5-82.698l2.8-6.102v-6.801c0-8.597-.8-17.199-2.4-25.496-20.5-108-137.6-167.402-246.8-167.402" style="fill:#211d1d;fill-opacity:1;fill-rule:nonzero;stroke:none" transform="matrix(.03528 0 0 -.03528 -605.48 126.188)"/><path d="M20590.6 1078c3.4 82.9 97.5 152 186.6 168.9q14.4 2.7 28.5 3.6c53.6 3.2 106.5-15.3 147.8-47.7 1-.7 1.9-1.6 3-2.4 36.8-29.9 64-71 73.8-117.4 17.8-85.199-23.6-180.801-99.2-228.5-75.6-47.5-194.7-57.602-248.9 10.301-18.1 22.601-44.8 41.101-63.2 80.902-11.3 12.699-22.8 54.397-28.9 74.397-5.5 18-.8 33.1.5 57.9" style="fill:#2b2640;fill-opacity:1;fill-rule:nonzero;stroke:none" transform="matrix(.03528 0 0 -.03528 -605.48 126.188)"/><path d="M20817.5 1220.3c-3.3 0-6.7-.1-10-.3-7.9-.5-16.2-1.5-24.5-3.1-76.1-14.4-159.2-74.2-161.9-140.1v-.4c-.4-7.9-1.2-14.9-1.8-21.4-1.4-13-2-19.5 0-25.9l2.5-8.4c3.9-12.9 14.1-47.098 20.2-54.899l3-3.399 1.7-3.902c10.6-23 24.4-37.199 39-52.199 6.9-7.102 14-14.403 20.4-22.5 42.2-52.801 143.9-44.199 208.8-3.399 64.7 40.801 100.7 123.398 85.5 196.398-8 37.8-30.4 73.3-63.1 99.9l-2.3 1.8c-34.3 26.9-76.5 41.8-117.5 41.8m-18.7-434.597c-54.8 0-106.9 18-140.4 60-4.6 5.797-10.4 11.699-16.6 18.098-15.3 15.699-34.2 35.199-48.9 65.699-11.7 15.801-20.4 42.801-29.6 73.7l-2.4 8c-5.7 18.6-4 34.7-2.4 50.2.6 5.4 1.2 11.4 1.6 18.1 4.2 99.3 110.7 178.3 211.4 197.4 10.9 2.1 21.8 3.5 32.4 4.1 59.5 3.6 119.4-15.7 168.5-54.1.5-.5 1.4-1.2 2.4-2l.8-.7c43.7-35.4 73.7-83.3 84.6-134.9 20.6-98.597-25.8-205.8-112.8-260.597-42.9-27.004-96.9-43-148.6-43" style="fill:#211d1d;fill-opacity:1;fill-rule:nonzero;stroke:none" transform="matrix(.03528 0 0 -.03528 -605.48 126.188)"/><path d="M20865.2 1289.9c40.6-240.6 469.2-244.6 480.6 26.9 7.3 172.9-185.1 302.4-345.1 209.3-91.5-53.2-102.6-141.9-135.5-236.2" style="fill:#352f4b;fill-opacity:1;fill-rule:nonzero;stroke:none" transform="matrix(.03528 0 0 -.03528 -605.48 126.188)"/><path d="M20896.7 1287.6c22-103.5 130.8-151.5 229.1-145.3 84.3 5.3 184.4 54.5 189.5 175.8 3 71.9-34.9 140.7-99.1 179.4-62.6 37.8-137.5 38.6-200.1 2.2-64.8-37.6-82.7-95.4-105.4-168.5-4.4-14.2-9-28.8-14-43.6m212.4-206.9c-122.3 0-251 67.6-274 204.1l-1.3 7.7 2.5 7.4c5.8 16.6 11 33.2 16 49.4 23.5 75.5 47.8 153.6 133.1 203.2 82.2 47.9 180.3 46.8 262.4-2.7 83.2-50.2 132.5-140 128.5-234.3-6.3-151.5-128.4-226.8-246.7-234.2-6.8-.4-13.6-.6-20.5-.6" style="fill:#211d1d;fill-opacity:1;fill-rule:nonzero;stroke:none" transform="matrix(.03528 0 0 -.03528 -605.48 126.188)"/><path d="M20911 1587.9c-23.7 28.1-54.9 49.7-91.3 59.8-11 3.1-22.5 5-34.2 5.9-69.2 5.1-147.5-26.1-193.4-75.8-5.2-5.7-9.9-11.5-14.2-17.6-18.8-26.7-28.3-57.4-23.6-90 7.1-49 47.2-142.7 77.6-181.4 33.3-42.3 89.1-52.8 145.2-41.6 43 8.4 86.1 29.6 119.5 59.1 18.6 16.5 34.3 35.4 45.2 56.3 19.9 38.1 24.7 81.2 17.4 122.4l-.1.4c-3.7 20.8-10.4 40.9-19.9 59.7-7.5 15.3-17 29.7-28 42.5z" style="fill:#66617b;fill-opacity:1;fill-rule:nonzero;stroke:none" transform="matrix(.03528 0 0 -.03528 -605.48 126.188)"/><path d="M20736.3 1212.4c-53.4 0-98.8 19.9-128.4 57.5-33.7 42.8-76 141.7-83.9 195.9-5.4 38.7 4.5 77.3 28.9 111.9 5.5 7.8 11 14.5 16.9 20.9 52.3 56.8 140 91.1 217.9 85.5 14.2-1.1 27.7-3.5 40.3-7 40.7-11.2 77.5-35.3 106.4-69.6l-46.7-39.3c-20.9 24.7-47.2 42.1-76.1 50.1-8.9 2.4-18.4 4.1-28.4 4.8-59.4 4.4-128.7-22.7-168.6-66-4.2-4.5-8-9.2-11.8-14.6-15.4-21.9-21.6-44.8-18.3-68 6.3-43.5 44.4-132.4 71.4-166.8 32.9-41.8 91.6-35.3 115.3-30.6 37.8 7.5 76.1 26.5 105.1 52.1 16.7 14.8 29.6 30.8 38.4 47.5 16 30.5 21 66.1 14.4 103-3.3 18.3-9 35.5-17.2 51.7-6.5 13.3-14.5 25.4-23.9 36.4l46.4 39.7c12.7-14.8 23.5-31.2 32.2-48.9 10.7-21.1 18.3-44 22.6-67.7 9-50.9 1.9-100-20.4-142.5-12.2-23.4-29.7-45.2-52-65-37.4-33-84.9-56.6-133.7-66.2-16.1-3.2-31.8-4.8-46.8-4.8" style="fill:#211d1d;fill-opacity:1;fill-rule:nonzero;stroke:none" transform="matrix(.03528 0 0 -.03528 -605.48 126.188)"/><path d="M20840.2 1834s127-72.2 121.5-166.7c-5.5-94.6-168.8-207.8-224-195.7-55.1 12.1-169.9 89.6-181.9 155.2-11.9 65.6 89.3 248.3 167.2 249.7 77.9 1.3 117.2-42.5 117.2-42.5" style="fill:#352f4b;fill-opacity:1;fill-rule:nonzero;stroke:none" transform="matrix(.03528 0 0 -.03528 -609.439 178.473)"/><path d="M20726.4 1845.9h-2.9c-12.4-.2-35.8-12.8-64.3-47.6-46.9-57.2-78.5-137.6-73.3-166 8.8-48.6 109.4-120.1 158.4-130.9 9.9-2.1 48.7 9.1 97.5 46.1 52.3 39.6 87.4 87.3 89.4 121.6 4.3 73.5-105 137.7-106.1 138.3l-4.3 2.4-3.2 3.6c-2 2.1-32.2 32.5-91.2 32.5m20.5-405.7c-5.4-.1-10.7.5-15.7 1.6-63.2 13.9-190.5 97.3-205.4 179.5-10.2 56 36.8 155.6 86.1 215.8 25.9 31.5 66 69.1 110.6 69.9 77.5 1.2 123.3-36.1 136.5-48.7 23-13.9 139.2-89.4 133.2-192.8-4.5-76.3-80.9-142-113.5-166.7-19.4-14.7-81.7-58.6-131.8-58.6" style="fill:#211d1d;fill-opacity:1;fill-rule:nonzero;stroke:none" transform="matrix(.03528 0 0 -.03528 -609.439 178.473)"/><path d="M20917.2 1434.2s127-72.1 121.5-166.7c-5.5-94.5-168.8-207.8-224-195.7-55.1 12.2-169.9 89.6-181.9 155.2-11.9 65.6 89.3 248.4 167.2 249.7s117.2-42.5 117.2-42.5" style="fill:#fff;fill-opacity:1;fill-rule:nonzero;stroke:none" transform="matrix(.03528 0 0 -.03528 -609.439 178.473)"/><path d="M20803.4 1446.6h-2.9c-12.5-.2-36-12.9-64.7-47.8-47-57.2-78.5-137.8-73.3-166.4 8.8-48.7 109.6-120.4 158.7-131.2 10-2.1 48.9 9.1 97.9 46.2 52.4 39.7 87.5 87.5 89.5 121.9 3.7 61.9-75.5 121.1-106.3 138.7l-4.2 2.4-3.1 3.5c-1.9 1.9-32.1 32.7-91.6 32.7m20.5-405.8c-5.4 0-10.6.5-15.6 1.6-63.1 13.9-190.2 97.2-205.1 179.3-10.1 55.8 36.8 155.3 86.1 215.3 25.8 31.4 65.8 69 110.2 69.8 77 1.2 123.1-36.1 136.2-48.6 22.9-13.8 139.1-89.3 133-192.4-4.4-76.1-80.7-141.7-113.3-166.4-19.4-14.7-81.6-58.6-131.5-58.6" style="fill:#211d1d;fill-opacity:1;fill-rule:nonzero;stroke:none" transform="matrix(.03528 0 0 -.03528 -609.439 178.473)"/><path d="M20633.7 1964.4c16.8 57.5 76.7 88.6 145 96.2 80 9.1 171.5-14.1 218.6-64.8 28.2-30.3 42-70.5 42.9-111.7l.1-1.7c1.2-65.9-30.6-134.3-89.1-168.8-18.6-11-41.3-19.7-65.7-25.6-31-7.7-65-11-97.7-9.4-73.6 3.5-140.4 31.4-151.4 90.8-8.5 46.2-16.1 149.3-2.7 195" style="fill:#66617b;fill-opacity:1;fill-rule:nonzero;stroke:none" transform="matrix(.03528 0 0 -.03528 -609.439 178.473)"/><path d="M20814.1 2032.1c-10.7 0-21.4-.6-32-1.8-30.3-3.4-102.4-17.4-119.1-74.5-11-37.6-5.2-133.7 3.5-180.8 8.2-44.7 68.8-63.4 122.7-65.9 29.8-1.5 60.5 1.5 89 8.5 22.1 5.4 41.9 13.1 57.5 22.3 45.9 27.1 74.9 82.5 74.1 141.4l-.1 1.2c-.8 36.7-13.1 69.2-34.7 92.5-32.9 35.3-96 57.1-160.9 57.1m-10.2-384.5c-5.9 0-11.8.2-17.6.5-100.1 4.7-167.4 48-179.9 115.8-8.3 44.8-17.6 155.7-2 209 18.7 64.1 82.6 108.3 170.9 118.1 94.8 10.7 193-19.2 244.4-74.5 31.8-34.2 50-81 51-131.8l.1-1.8c1.5-80.7-39.4-157.5-104.1-195.7-20.6-12.1-46.2-22.1-74-28.9-28.4-7-58.8-10.7-88.8-10.7" style="fill:#211d1d;fill-opacity:1;fill-rule:nonzero;stroke:none" transform="matrix(.03528 0 0 -.03528 -609.439 178.473)"/><path d="M20140.1 2035.4c24.4 31.9 62.7 55.3 102.8 55.4 40 .1 94.5-27.1 122.8-69.4l7.4 5.2c-.9-2.4-1.7-4.8-2.6-7.2-11.1-32.7-17.8-69.3-21-108.2-69.8-12.7-130.3-49.5-140-111.5-.7-4.7-1.3-9.6-1.7-14.7h-.2c-31.7-5.2-83.4 19.2-97.8 47-9.1 17.7-12.6 37.7-13 58-.2 11.4.6 23 2 34.3 4.9 39.4 16.8 79 41.3 111.1" style="fill:#2d2842;fill-opacity:1;fill-rule:nonzero;stroke:none" transform="matrix(.03528 0 0 -.03528 -609.439 178.473)"/><path d="M20164.3 2016.8c-18.4-24.2-30.2-56.6-35.1-96.3-1.5-10.8-2-20.8-1.8-29.8.3-18.2 3.4-32.7 9.6-44.7 5.7-11.1 26.6-23.4 45-28.6 14.7 56.7 65.2 99.8 139.3 118.9 3.2 26.7 8.1 51.6 14.5 74.3-24 30.8-65.6 49.6-92.7 49.6h-.1c-28.1 0-58.2-16.7-78.7-43.4m71.6-265.4-27.9 2.8c-44.8-4.8-105.6 25.7-125.3 63.7-10.5 20.4-16 44.4-16.4 71.6-.3 11.9.5 25 2.2 38.7 6.3 50.4 22.2 92.7 47.3 125.7 32.2 42.1 79.7 67.3 127.1 67.4h.2c44.1 0 94-23.5 128.2-58.7l62.1 43.5-34.1-96.9c-9.7-28.4-16.2-62.4-19.4-100.5l-1.9-23.3-23-4.2c-24.6-4.5-105.5-23.9-115.3-86.2-.6-3.9-1.1-8-1.4-12.3z" style="fill:#211d1d;fill-opacity:1;fill-rule:nonzero;stroke:none" transform="matrix(.03528 0 0 -.03528 -609.439 178.473)"/><path d="M20207.8 1785c.4 5.1 1 10 1.7 14.7 9.7 62 70.2 98.8 140 111.5 59.4 10.9 125.4 4.4 173.1-18.9 50.6-24.7 85.4-73 99.3-127 13.3-51 7.8-107.1-20.6-152.9-3.5-5.8-7.7-11.4-12.4-16.6-6.7-7.5-14.4-14.5-23-20.9-66.1-50-183.2-66.9-257.9-36.1-7.7 3.1-15 6.8-21.7 11-10.5 6.7-19.8 14.6-27.2 23.9-39.3 49-57.6 143.9-51.3 211.3" style="fill:#66617b;fill-opacity:1;fill-rule:nonzero;stroke:none" transform="matrix(.03528 0 0 -.03528 -609.439 178.473)"/><path d="M20406.8 1885.8c-17.3 0-34.8-1.5-51.8-4.6-24.6-4.5-105.5-23.9-115.3-86.2-.6-3.9-1.1-8-1.4-12.3l-.1-.6c-6.1-65.9 13.9-150.9 44.8-189.3 5-6.3 11.6-12.1 19.6-17.2 5-3.1 10.6-6 16.8-8.4 64-26.5 170.5-11.5 228.1 32 7 5.3 13.2 10.9 18.6 17 3.6 4 6.6 8 9.1 12.1 22.7 36.7 29 83.8 17.2 129.4-12.6 48.4-42.9 87.5-83.2 107.2-28.1 13.7-64.7 20.9-102.4 20.9m-11.5-392.9c-35.6 0-70 5.7-99 17.7-9.3 3.7-18.3 8.3-26.4 13.4-13.7 8.8-25.4 19-34.6 30.6-46.3 57.7-64.4 163-57.9 232.9.4 5.8 1.1 11.4 1.9 16.8 10.9 69.1 72.4 120.2 164.7 137 67.3 12.3 139 4.3 192-21.5 56.4-27.6 98.5-81.1 115.5-146.8 16-61.6 7.1-126-24.2-176.7-4.4-7.2-9.7-14.3-15.8-21-8-8.9-17.2-17.4-27.4-24.9-48.9-37-121.2-57.5-188.8-57.5" style="fill:#211d1d;fill-opacity:1;fill-rule:nonzero;stroke:none" transform="matrix(.03528 0 0 -.03528 -609.439 178.473)"/><path d="M20373.1 2026.6c27.1 73.5 78.7 125.5 168.8 134.6 89 8.9 178.1-29.8 236.2-94.5l.6-6.1c-68.3-7.6-128.2-38.7-145-96.2-13.4-45.7-5.8-148.8 2.7-195l-14.5-4.1c-13.9 54-48.7 102.3-99.3 127-47.7 23.3-113.7 29.8-173.1 18.9 3.2 38.9 9.9 75.5 21 108.2.9 2.4 1.7 4.8 2.6 7.2" style="fill:#352f4b;fill-opacity:1;fill-rule:nonzero;stroke:none" transform="matrix(.03528 0 0 -.03528 -609.439 178.473)"/><path d="M20407 1947c46.8 0 92.4-9.4 129-27.2 22.6-11 42.9-26.2 60.2-44.7-.9 36.8 1 73.4 8.2 97.8 14.5 49.7 56.1 87.4 115.2 106.4-50.5 38.3-114 57.5-174.6 51.5-70.5-7.1-117.3-44.6-143.2-114.6l-2.5-7c-6.4-18.7-11.4-39.8-15-63 7.6.5 15.2.8 22.7.8m193.2-219.6-7.8 30.3c-12.6 48.4-42.9 87.5-83.2 107.2-41 20-100.1 26.2-154.2 16.3l-39.2-7.2 3.3 39.7c3.5 43.1 11.1 82 22.5 115.5l2.8 7.9c34.3 92.9 99.7 144.9 194.5 154.5 95.1 9.5 195.5-30.5 261.9-104.4l6.8-7.6 4.2-46-29.7-3.3c-30.3-3.4-102.4-17.4-119.1-74.5-11-37.6-5.2-133.7 3.5-180.8l5-27.4z" style="fill:#211d1d;fill-opacity:1;fill-rule:nonzero;stroke:none" transform="matrix(.03528 0 0 -.03528 -609.439 178.473)"/><path d="M20959.1 1485.4c-3.7 20.8-10.4 40.9-19.9 59.7-7.5 15.3-17 29.7-28 42.5l-.2.3c-15.7 30.6-24.9 64.8-24.8 96.9l-.7 3.2c24.4 5.9 47.1 14.6 65.7 25.6 58.5 34.5 90.3 102.9 89.1 168.8l-.1 1.7 8.3.5c69.7 21.7 133.3-25.3 167.3-89.5 35-66.2 25.2-143.2 1.9-215.6-38.9-121.5-238.2-129.8-258.6-94.1" style="fill:#2b2640;fill-opacity:1;fill-rule:nonzero;stroke:none" transform="matrix(.03528 0 0 -.03528 -609.439 178.473)"/><path d="M20986.9 1502c15.6-5.6 61.4-8.9 111.1 7.7 33.4 11.1 76.2 33.9 90.7 79.1 25.8 80.5 25.8 143.3.1 192-22.4 42.4-66.1 85.9-118.8 77.6-6.3-71.4-45.2-136.9-103.3-171.2-14.2-8.3-30.8-15.7-48.7-21.7 2.5-19.9 8.9-40.8 18.7-60.6l6.2-7.7-.1-.2c9.1-11.9 17.1-24.8 23.8-38.4 9-17.7 15.8-36.8 20.3-56.6m37.1-65.6c-31.6 0-75.3 5.6-91.4 34l-2.6 4.5-.9 5.1c-3.3 18-9 35.2-17.2 51.4-4.8 9.7-10.4 18.9-16.7 27.3l-3.8.4-5.9 11.6-6.1 7.1.5 4.2c-15.3 32.4-23.8 67.2-24.2 99.4v.1l-6.4 29.1 29 7.1c22 5.3 41.8 13 57.4 22.2 45.9 27.1 74.9 82.5 74.1 141.4l-1.7 31.3 35 2.3c75 21.2 154.9-20.8 199.7-105.5 33.8-64 35.1-142.2 4-239.3-27.4-85.5-118.2-124.3-194-132.2-6.3-.7-16.6-1.5-28.8-1.5" style="fill:#211d1d;fill-opacity:1;fill-rule:nonzero;stroke:none" transform="matrix(.03528 0 0 -.03528 -609.439 178.473)"/><path d="M19997 1820.9c19.1 29.5 63.1 61.4 97.7 69l2.1.1c.4-20.3 3.9-40.3 13-58 14.4-27.8 66.1-52.2 97.8-47h.2c-6.3-67.4 12-162.3 51.3-211.3 7.4-9.3 16.7-17.2 27.2-23.9 6.7-4.2 14-7.9 21.7-11-1.7-4.1-9.1-15.7-14.2-18.7-4 3-8.1 5.7-12.5 8.1-51.4 28-129.2 14.5-196-20.4-45.4 29.9-108.4 102.7-119.1 155.8-10.6 53.2.7 110.8 30.8 157.3" style="fill:#1b192d;fill-opacity:1;fill-rule:nonzero;stroke:none" transform="matrix(.03528 0 0 -.03528 -609.439 178.473)"/><path d="M20022.6 1804.3c-25.9-40-35.5-89.1-26.4-134.7 7.6-37.9 53.3-95.1 92.1-126.2 46.6 21.5 92.7 32 133.6 30.4-30.6 50.4-45.4 123.1-45.8 182.2-38.1 7.5-78.1 32.5-93.4 61.9q-7.05 13.8-11.1 29.7c-19.5-11.3-39-27.9-49-43.3m60.9-331.9-15.1 9.9c-46.8 30.9-118.8 109-132.1 175.3-12.2 61.1.6 126.7 35 179.9 24 37 75.3 73.1 116.9 82.2l7.1.8 31.5 1.6.6-31.6c.3-18 3.4-32.5 9.6-44.5 8.2-15.8 46.9-34 65.6-30.9l4.1.7 34.1-3.5-2.6-30.2c-6.1-65.9 13.9-150.9 44.8-189.3 5-6.3 11.6-12.1 19.6-17.2 5-3.1 10.6-6 16.8-8.4l28.6-11.6-11.8-28.5c-2-4.8-12.4-24.7-26.7-33.2l-17.9-10.8-16.5 12.8c-2.5 1.9-5.3 3.7-8.8 5.7-37.5 20.5-103.2 12.4-166.9-20.9z" style="fill:#211d1d;fill-opacity:1;fill-rule:nonzero;stroke:none" transform="matrix(.03528 0 0 -.03528 -609.439 178.473)"/><path d="M20405.2 1358.2c17.1-76.2-57.8-167.9-144.7-215.5l-.6-.3q-3.6-1.65-7.2-3.9l-.5-.3c-41.5-21.2-85.2-32.1-122.3-26.2-117.9 18.4-203.4 147-171.9 262 14.2 52.2 66.1 102 127.3 133.8 66.8 34.9 144.6 48.4 196 20.4 4.4-2.4 8.5-5.1 12.5-8.1l1.9-1.3c51.5-40.9 95.2-96.4 109.5-160.6" style="fill:#1b192d;fill-opacity:1;fill-rule:nonzero;stroke:none" transform="matrix(.03528 0 0 -.03528 -609.439 178.473)"/><path d="m20276.7 1494.8.1-.1zm-61.5 18c-34.3 0-75.4-11-115.8-32.1-58-30.2-100.9-74.2-111.9-114.7-12.6-45.7-3.4-97 25-141 29.1-45 73.7-75.3 122.1-82.9 28.1-4.3 63.8 3.4 101 22l6.7 5.3 3-.1 1.8.9h.1c82.9 46 140.3 127.2 128.2 181.4-11.3 50.6-46 101.2-97.8 142.5l-2.5 1.8c-2.5 1.9-5.3 3.7-8.8 5.7-13.7 7.5-31.3 11.2-51.1 11.2m-64.2-433c-8.6 0-17.2.6-25.9 2-65.6 10.3-125.3 50.4-163.9 110.1-37.9 58.5-49.8 127.8-32.7 190.2 15.6 57.2 68.9 114.4 142.6 152.8 83.7 43.7 167.8 51.2 224.9 20.1 6-3.4 10.9-6.5 15.4-9.9l1.9-1.4 1.3-1c63.2-50.1 106-113.2 120.4-177.8 21.1-94.3-64.4-196.7-159.8-249l-3.1-1.5-2.7-1.5-1.4-.9-7.2-4.5-1.7.1c-28.8-14-67.6-27.8-108.1-27.8" style="fill:#211d1d;fill-opacity:1;fill-rule:nonzero;stroke:none" transform="matrix(.03528 0 0 -.03528 -609.439 178.473)"/><path d="M20590.6 1078c-27.8 49.5-70.6 90.3-115.1 94.1-69.8 5.9-150.6-.3-215-29.4 86.9 47.6 161.8 139.3 144.7 215.5-14.3 64.2-58 119.7-109.5 160.6l-1.9 1.3c5.1 3 12.5 14.6 14.2 18.7 74.7-30.8 191.8-13.9 257.9 36.1l3-4c2.1-2.9 4.1-5.9 6.2-8.8l2.8-1.9c-18.8-26.7-28.3-57.4-23.6-90 7.1-49 47.2-142.7 77.6-181.4 33.3-42.3 89.1-52.8 145.2-41.6l.1-.3c-89.1-16.9-183.2-86-186.6-168.9" style="fill:#211d1d;fill-opacity:1;fill-rule:nonzero;stroke:none" transform="matrix(.03528 0 0 -.03528 -609.439 178.473)"/><path d="M20427.8 1204.2c19.4 0 36.6-.9 50.3-2.1 35-3 70.5-23.3 101-56.6 17.4 33 45.9 61.8 79.4 84.2-19.6 9.6-36.6 23.2-50.2 40.5-33.7 42.8-76 141.5-83.8 195.7-2.5 17.8-1.8 35.5 2.2 52.9-50-20.4-108.9-29.1-161.9-24 35.5-39.9 59.6-84.6 69.8-130 12.4-55.3-12-113.4-53.6-162.5 16.5 1.4 32.3 1.9 46.8 1.9m188.5-233.497-52 92.597c-25.4 45.3-61.3 76.3-91.4 78.8-75.2 6.4-148.1-3.4-200-26.9l-26.8 53.9c83.7 45.9 142 127.9 129.7 182.6-11.3 50.7-46.1 101.4-97.9 142.7l-45 24.3 43.4 25.9c1.4 1.8 3.4 4.9 4.1 6.4l11.5 27.8 27.6-12.2c63.9-26.3 170.6-11.3 228.2 32.3l23.9 18 25.1-33.2 23.1-16.2-17.3-24.6c-15.5-22.1-21.7-45.1-18.4-68.5 6.3-43.5 44.4-132.6 71.5-167 33-41.9 91.9-35.5 115.7-30.7l29 5.8 12.8-59.2-30.3-6c-76.1-14.4-159.4-74.3-162.1-140.5z" style="fill:#211d1d;fill-opacity:1;fill-rule:nonzero;stroke:none" transform="matrix(.03528 0 0 -.03528 -609.439 178.473)"/><path d="M20475.5 1172.1c44.5-3.8 87.3-44.6 115.1-94.1-.4-6.5-.1-13.2.9-20 3.3-24.2 15.6-57.8 31-91.199 0-6.899-.6-13.598-1.8-20-18.6-97.602-136.7-149.199-236.5-141.699-73.3 5.398-147.4 36-188.4 95.398-39.4 56.902-6.2 199.4 56.4 237.7l.5.3c2.4 1.3 4.9 2.5 7.2 3.9l.6.3c64.4 29.1 145.2 35.3 215 29.4" style="fill:#1b192d;fill-opacity:1;fill-rule:nonzero;stroke:none" transform="matrix(.03528 0 0 -.03528 -609.439 178.473)"/><path d="M20267.2 1111.6c-22.4-14.4-43.7-53.6-53-98-8.5-40.1-5.8-77.6 6.7-95.698 32-46.203 93.9-77 165.6-82.402 86.3-6.301 188.8 36.5 204.2 117 .5 2.699.8 5.402 1.1 8.203-12.4 27.297-26.6 63.697-30.6 93.197-.7 5.3-1.2 10.7-1.3 16-25 41.5-58.6 69.3-87 71.8-74.9 6.3-147.5-3.4-199.3-26.7-1.6-.8-3.2-1.7-4.9-2.6zm136.7-337.799c-7.4 0-14.7.301-21.9.801-91.3 6.796-168.3 46.398-211.3 108.5-22.6 32.699-28.6 84.8-16.3 143.098 13.1 62.3 43 113.3 80.1 137l7.8 6.2 3-.1 3.5 1.6c82.7 37.4 179.2 35.9 229.3 31.7 51-4.4 103-45.4 139.1-109.6l4.3-7.8-.4-8.8c-.3-4.5 0-9.3.7-14.1 2.5-19.1 12.9-49.1 28.5-82.698l2.8-6.102v-6.801c0-8.597-.8-17.199-2.4-25.496-20.5-108-137.6-167.402-246.8-167.402" style="fill:#211d1d;fill-opacity:1;fill-rule:nonzero;stroke:none" transform="matrix(.03528 0 0 -.03528 -609.439 178.473)"/><path d="M20590.6 1078c3.4 82.9 97.5 152 186.6 168.9q14.4 2.7 28.5 3.6c53.6 3.2 106.5-15.3 147.8-47.7 1-.7 1.9-1.6 3-2.4 36.8-29.9 64-71 73.8-117.4 17.8-85.199-23.6-180.801-99.2-228.5-75.6-47.5-194.7-57.602-248.9 10.301-18.1 22.601-44.8 41.101-63.2 80.902-11.3 12.699-22.8 54.397-28.9 74.397-5.5 18-.8 33.1.5 57.9" style="fill:#2b2640;fill-opacity:1;fill-rule:nonzero;stroke:none" transform="matrix(.03528 0 0 -.03528 -609.439 178.473)"/><path d="M20817.5 1220.3c-3.3 0-6.7-.1-10-.3-7.9-.5-16.2-1.5-24.5-3.1-76.1-14.4-159.2-74.2-161.9-140.1v-.4c-.4-7.9-1.2-14.9-1.8-21.4-1.4-13-2-19.5 0-25.9l2.5-8.4c3.9-12.9 14.1-47.098 20.2-54.899l3-3.399 1.7-3.902c10.6-23 24.4-37.199 39-52.199 6.9-7.102 14-14.403 20.4-22.5 42.2-52.801 143.9-44.199 208.8-3.399 64.7 40.801 100.7 123.398 85.5 196.398-8 37.8-30.4 73.3-63.1 99.9l-2.3 1.8c-34.3 26.9-76.5 41.8-117.5 41.8m-18.7-434.597c-54.8 0-106.9 18-140.4 60-4.6 5.797-10.4 11.699-16.6 18.098-15.3 15.699-34.2 35.199-48.9 65.699-11.7 15.801-20.4 42.801-29.6 73.7l-2.4 8c-5.7 18.6-4 34.7-2.4 50.2.6 5.4 1.2 11.4 1.6 18.1 4.2 99.3 110.7 178.3 211.4 197.4 10.9 2.1 21.8 3.5 32.4 4.1 59.5 3.6 119.4-15.7 168.5-54.1.5-.5 1.4-1.2 2.4-2l.8-.7c43.7-35.4 73.7-83.3 84.6-134.9 20.6-98.597-25.8-205.8-112.8-260.597-42.9-27.004-96.9-43-148.6-43" style="fill:#211d1d;fill-opacity:1;fill-rule:nonzero;stroke:none" transform="matrix(.03528 0 0 -.03528 -609.439 178.473)"/><path d="M20865.2 1289.9c40.6-240.6 469.2-244.6 480.6 26.9 7.3 172.9-185.1 302.4-345.1 209.3-91.5-53.2-102.6-141.9-135.5-236.2" style="fill:#352f4b;fill-opacity:1;fill-rule:nonzero;stroke:none" transform="matrix(.03528 0 0 -.03528 -609.439 178.473)"/><path d="M20896.7 1287.6c22-103.5 130.8-151.5 229.1-145.3 84.3 5.3 184.4 54.5 189.5 175.8 3 71.9-34.9 140.7-99.1 179.4-62.6 37.8-137.5 38.6-200.1 2.2-64.8-37.6-82.7-95.4-105.4-168.5-4.4-14.2-9-28.8-14-43.6m212.4-206.9c-122.3 0-251 67.6-274 204.1l-1.3 7.7 2.5 7.4c5.8 16.6 11 33.2 16 49.4 23.5 75.5 47.8 153.6 133.1 203.2 82.2 47.9 180.3 46.8 262.4-2.7 83.2-50.2 132.5-140 128.5-234.3-6.3-151.5-128.4-226.8-246.7-234.2-6.8-.4-13.6-.6-20.5-.6" style="fill:#211d1d;fill-opacity:1;fill-rule:nonzero;stroke:none" transform="matrix(.03528 0 0 -.03528 -609.439 178.473)"/><path d="M20911 1587.9c-23.7 28.1-54.9 49.7-91.3 59.8-11 3.1-22.5 5-34.2 5.9-69.2 5.1-147.5-26.1-193.4-75.8-5.2-5.7-9.9-11.5-14.2-17.6-18.8-26.7-28.3-57.4-23.6-90 7.1-49 47.2-142.7 77.6-181.4 33.3-42.3 89.1-52.8 145.2-41.6 43 8.4 86.1 29.6 119.5 59.1 18.6 16.5 34.3 35.4 45.2 56.3 19.9 38.1 24.7 81.2 17.4 122.4l-.1.4c-3.7 20.8-10.4 40.9-19.9 59.7-7.5 15.3-17 29.7-28 42.5z" style="fill:#66617b;fill-opacity:1;fill-rule:nonzero;stroke:none" transform="matrix(.03528 0 0 -.03528 -609.439 178.473)"/><path d="M20736.3 1212.4c-53.4 0-98.8 19.9-128.4 57.5-33.7 42.8-76 141.7-83.9 195.9-5.4 38.7 4.5 77.3 28.9 111.9 5.5 7.8 11 14.5 16.9 20.9 52.3 56.8 140 91.1 217.9 85.5 14.2-1.1 27.7-3.5 40.3-7 40.7-11.2 77.5-35.3 106.4-69.6l-46.7-39.3c-20.9 24.7-47.2 42.1-76.1 50.1-8.9 2.4-18.4 4.1-28.4 4.8-59.4 4.4-128.7-22.7-168.6-66-4.2-4.5-8-9.2-11.8-14.6-15.4-21.9-21.6-44.8-18.3-68 6.3-43.5 44.4-132.4 71.4-166.8 32.9-41.8 91.6-35.3 115.3-30.6 37.8 7.5 76.1 26.5 105.1 52.1 16.7 14.8 29.6 30.8 38.4 47.5 16 30.5 21 66.1 14.4 103-3.3 18.3-9 35.5-17.2 51.7-6.5 13.3-14.5 25.4-23.9 36.4l46.4 39.7c12.7-14.8 23.5-31.2 32.2-48.9 10.7-21.1 18.3-44 22.6-67.7 9-50.9 1.9-100-20.4-142.5-12.2-23.4-29.7-45.2-52-65-37.4-33-84.9-56.6-133.7-66.2-16.1-3.2-31.8-4.8-46.8-4.8" style="fill:#211d1d;fill-opacity:1;fill-rule:nonzero;stroke:none" transform="matrix(.03528 0 0 -.03528 -609.439 178.473)"/></g></svg>