<svg xmlns="http://www.w3.org/2000/svg" width="200mm" height="200mm" viewBox="0 0 200 200"><g style="display:inline"><path d="M5880.89 15848.6c0-108.4-61.86-209.4-178.84-298.9-83.22-63.7-192.61-118.4-321.57-167.1-104.49-39.4-220.44-78.3-348.3-105.2-112.79-23.7-233.26-46.4-359.88-58.5-116.83-11.2-239.23-15.8-364.48-15.8-125.24 0-246.38 17.5-363.21 28.7-126.63 12.2-248.95 19.1-361.76 42.8-127.87 26.9-248.12 55.7-352.62 95.1-128.96 48.6-231.46 118.9-314.68 182.6-116.96 89.6-184.22 187.9-184.22 296.3s68.55 205 185.53 294.5c83.22 63.7 185.93 131.8 314.89 180.4 104.49 39.5 222.43 76.1 350.29 103 112.79 23.6 235.05 35.7 361.67 47.9 116.83 11.2 238.85 17.5 364.11 17.5 125.24 0 246.99-9 363.82-20.2 126.64-12.1 246.5-34.3 358.8-60.4 244.02-56.5 93.07-18.6 349.25-99 131.5-41.3 237.03-104 320.25-167.7 116.96-89.5 180.95-187.6 180.95-296" style="fill:#f1faf9;fill-opacity:1;fill-rule:nonzero;stroke:none" transform="matrix(.01973 0 0 -.01973 13.994 491.407)"/><path d="M4307.82 16465.4c-119.07 0-240.72-5.8-361.58-17.4-114.45-11-244.17-23.4-358.75-47.5-114.68-24.1-231.22-58.3-346.38-101.8-136.69-51.6-241.32-125.5-308.14-176.6-117.84-90.2-175.12-179.7-175.12-273.5 0-94.4 58.48-186.9 173.81-275.2 75.27-57.6 178.29-130 307.94-178.9 108.8-41.1 237.33-70.5 348.7-93.9 87.06-18.3 179.69-26.4 277.77-35 26.8-2.4 53.83-4.8 81.07-7.4 28.87-2.7 58.01-5.9 87.4-9.1 88.64-9.6 180.3-19.5 273.28-19.5 133.76 0 252.16 5.1 361.96 15.7 130.25 12.4 253.54 36.3 356.95 58.1 107.01 22.4 213.23 54.5 344.39 104 134.54 50.8 237.52 104.2 314.82 163.4 111.77 85.5 168.44 179 168.44 277.8 0 95.8-57.39 188.3-170.55 274.9-96.24 73.7-201.24 128.7-312.09 163.5-86.59 27.2-127.26 41.1-151.55 49.3-37.53 12.8-37.53 12.8-118.42 31.4-20.21 4.6-45.38 10.4-77.31 17.8-127.66 29.6-243.9 49.1-355.35 59.8-97.67 9.4-227 20.1-361.29 20.1m0-1288.8c-95.84 0-188.94 10.1-278.99 19.8-29.17 3.2-58.09 6.3-86.74 9-27.1 2.6-54 5-80.65 7.3-99.71 8.8-193.88 17-284.04 36-113.35 23.8-244.36 53.8-356.53 96.2-136.12 51.3-243.28 126.6-321.44 186.4-129.13 98.8-194.61 205.6-194.61 317.3 0 111.4 64.09 214.7 195.92 315.6 69.48 53.2 178.41 130.1 321.65 184.1 117.7 44.4 236.87 79.5 354.2 104.1 117.47 24.7 248.76 37.3 364.59 48.4 122.53 11.7 245.89 17.7 366.64 17.7 136.54 0 267.51-10.9 366.35-20.4 113.79-10.9 232.29-30.8 362.26-60.9 31.89-7.4 57.02-13.2 77.21-17.8 81.98-18.8 83.55-19.2 123.65-32.9 24.07-8.2 64.36-21.9 150.34-48.9 116.76-36.7 227.26-94.5 328.42-171.9 126.97-97.2 191.35-203.9 191.35-317.1 0-116.2-63.66-223.8-189.24-319.9-81.46-62.4-188.86-118.3-328.32-170.9-133.8-50.5-242.43-83.3-352.21-106.3-104.85-22.1-229.94-46.3-362.8-59-111.5-10.7-231.55-15.9-367.01-15.9" style="fill:#211d1d;fill-opacity:1;fill-rule:nonzero;stroke:none" transform="matrix(.01973 0 0 -.01973 13.994 491.407)"/><path d="M4868.18 15947.3c-114.68 89.8-186.71 266.8-226.97 399.5-27.89 92-41.7 185.6-42.21 279.5l-2.56 481c-98.02-14.7-203.3-22.2-316.44-21.2-104.51 1-202.07 10.3-293.2 26.5l5.06-570.7c.2-22.5-1.41-45-5.39-67.3-47.29-264.9-299.28-522.4-304.44-564.8-5.42-44.6 216.94-145 629.13-148.7 298.27-2.7 477.26 82.2 553.42 129.3 24.08 14.9 24.98 40.2 3.6 56.9" style="fill:#caede7;fill-opacity:1;fill-rule:nonzero;stroke:none" transform="matrix(.01973 0 0 -.01973 13.994 491.407)"/><path d="M3709.67 15908.9c22.88-28.8 205.87-117.7 601.73-121.3 288.93-2.4 461.77 77.4 539.22 125.4 4.53 2.8 6.27 5.5 6.33 6.6s-1.25 3.8-5.1 6.8h-.01c-120.13 94.1-194.64 276.4-236 412.7-28.24 93.1-42.83 189.7-43.35 287.1l-2.4 450.6c-92.99-12.3-190.54-18.2-290.34-17.2-91.26.9-180.64 8.2-266.16 21.7l4.78-539.2c.22-25.1-1.73-49.3-5.8-72.2-34.39-192.6-170.3-377-251.51-487.1-21.07-28.6-44.68-60.6-51.39-73.9m615.35-174.4c-4.68 0-9.37 0-14.1.1-339.49 3-583.58 74.1-640.89 139.3-11.11 12.7-15.93 25.8-14.32 39.1 2.25 18.5 17.86 40.5 62.66 101.2 78.47 106.5 209.78 284.6 241.99 465 3.5 19.6 5.18 40.7 4.98 62.5l-5.34 602.6 31.44-5.6c92.07-16.3 189.23-25.1 288.8-26.1 107.98-1 213.03 6 312.27 20.9l30.28 4.6 2.73-511.6c.49-92.3 14.31-183.8 41.06-272 39.14-129 108.73-300.8 217.95-386.3h-.01c17.19-13.5 26.44-32.2 25.38-51.5s-12.49-37.1-31.37-48.8c-81.04-50.2-259.85-133.4-553.51-133.4" style="fill:#211d1d;fill-opacity:1;fill-rule:nonzero;stroke:none" transform="matrix(.01973 0 0 -.01973 13.994 491.407)"/><path d="M4113.11 16918.9c66.28-31.4 145.7-46.2 213.16-48.7 67.46-3.2 145.81 19.8 194.95 34.3 58.09 17.3 102.51 62.4 143.48 78.7 40.98 16.3 86.98-4.9 102.76-47.2l5.39-12.5 3.39-8.5c1.92-5.5 3.46-10.9 4.82-16.3 2.54-10.8 4.16-21.9 4.54-33.1.53-22.3-3.66-44.8-10.8-65.1-14.91-40.9-39.87-70.1-63.41-92.1-48.08-43-95.11-64-139.56-80.2-89.26-31.4-172.65-39-254.29-39.1-81.65-.1-165.7 7.9-253.2 36.2-43.3 13.7-88.3 33.9-132.77 64-11.05 7.6-22.18 15.6-33.31 25.6-10.85 8.9-22.12 20.4-32.49 32.2-10.68 12.6-21.1 25.4-30.92 42.1-4.59 7.4-9.65 17.9-13.86 27-2.33 5.4-4.7 11.3-6.69 17l-3.46 10.8-1.62 5.8c-.82 2.9-2.28 8.2-3.1 12.2-15.05 59.7 19.54 120.6 77.28 136.2 57.73 15.6 190.61-60.7 229.71-79.3" style="fill:#f9fdfd;fill-opacity:1;fill-rule:nonzero;stroke:none" transform="matrix(.01973 0 0 -.01973 13.994 491.407)"/><path d="M3901.76 16973.9c-4.27 0-8.11-.4-11.46-1.3-43.75-11.8-69.98-58.5-58.47-104.1l.27-1.2c.68-3.3 1.9-7.7 2.58-10l4.89-16.1c1.53-4.3 3.65-9.6 5.73-14.4 4.8-10.4 8.95-18.6 12.1-23.6 9.1-15.5 18.73-27.3 28.65-39.1 10.45-11.8 20.33-21.6 28.95-28.6l1.06-.9c9.51-8.6 19.08-15.6 30.51-23.5 38.14-25.8 80.52-46.2 125.81-60.6 73.74-23.8 151.16-34.9 243.61-34.9h1.52c64.69.1 151.05 4.4 245.53 37.6 40.94 14.9 85.35 34.4 130.66 75 27.31 25.5 45.29 51.4 56.19 81.3 6.41 18.3 9.63 37.6 9.2 55.5-.29 8.7-1.59 18-3.84 27.6-1.17 4.7-2.43 9-3.87 13.1l-8.77 21c-5.25 14.1-15.46 25.1-28.74 31-12.6 5.6-26.58 5.9-39.37.8-14.5-5.7-31.2-16.9-48.9-28.7-27.72-18.5-59.14-39.5-96.85-50.7-48.98-14.5-130.97-38.8-203.73-35.4-79.26 2.9-160.75 21.6-223.28 51.3-6.17 2.9-14.61 7.2-24.68 12.4-36.95 18.9-129.82 66.5-175.3 66.5m414.22-411.3c-98.15 0-180.74 11.9-259.79 37.4-50.01 15.9-96.97 38.6-139.47 67.3-11.42 7.8-23.53 16.5-35.75 27.5-10.72 8.8-22.51 20.5-35.07 34.7-11.39 13.5-23.01 27.8-33.89 46.3-4.11 6.6-9.01 16.1-15.11 29.3-2.98 6.9-5.54 13.3-7.61 19.3l-5.61 18.3c-.84 2.9-2.43 8.8-3.41 13.4-18.18 73.3 24.88 148.5 96.22 167.7 54.27 14.7 144.45-28.1 224.75-69.2 9.49-4.9 17.43-8.9 23.23-11.7 56.26-26.7 130.16-43.5 202.76-46.2 64.09-3 140.69 19.7 186.46 33.3 30 8.9 56.67 26.7 82.47 43.9 20.08 13.4 39.05 26.1 58.74 33.9 26.16 10.4 54.74 9.8 80.5-1.6 26.2-11.6 46.29-33 56.65-60.3l9.2-22.2c2.04-5.7 3.85-11.8 5.54-18.6 3.13-13.3 4.88-26.2 5.31-38.6.58-24.5-3.67-50.3-12.28-74.8-13.79-37.9-36.77-71.3-70.35-102.6-52.4-47-102.34-69-148.56-85.8-102.31-36-194.45-40.7-263.34-40.7z" style="fill:#211d1d;fill-opacity:1;fill-rule:nonzero;stroke:none" transform="matrix(.01973 0 0 -.01973 13.994 491.407)"/><path d="M4113.11 16653.2c66.28-31.4 145.7-46.2 213.16-48.7 67.46-3.2 145.81 19.8 194.95 34.3 58.09 17.3 102.51 62.3 143.48 78.6 40.98 16.3 86.98-4.8 102.76-47.1l5.39-12.5 3.39-8.5c1.92-5.5 3.46-10.9 4.82-16.4 2.54-10.7 4.16-21.8 4.54-33 .53-22.3-3.66-44.8-10.8-65.1-14.91-40.9-39.87-70.1-63.41-92.1-48.08-43-95.11-64-139.56-80.2-89.26-31.4-172.65-39-254.29-39.1-81.65-.1-165.7 7.9-253.2 36.1-43.3 13.8-88.3 34-132.77 64.1-11.05 7.5-22.18 15.5-33.31 25.6-10.85 8.9-22.12 20.4-32.49 32.1-10.68 12.7-21.1 25.5-30.92 42.2-4.59 7.4-9.65 17.8-13.86 27-2.33 5.3-4.7 11.3-6.69 16.9l-3.46 10.9-1.62 5.8c-.82 2.8-2.28 8.2-3.1 12.2-15.05 59.6 19.54 120.6 77.28 136.2 57.73 15.5 190.61-60.7 229.71-79.3" style="fill:#f9fdfd;fill-opacity:1;fill-rule:nonzero;stroke:none" transform="matrix(.01973 0 0 -.01973 13.994 491.407)"/><path d="M3901.76 16708.2c-4.27 0-8.11-.4-11.46-1.3-43.75-11.8-69.98-58.5-58.47-104.1l.27-1.2c.67-3.3 1.89-7.7 2.57-10l4.9-16.1c1.53-4.4 3.65-9.6 5.73-14.4 4.8-10.4 8.95-18.6 12.1-23.7 9.1-15.4 18.73-27.2 28.65-39 10.48-11.8 20.36-21.6 28.95-28.6l1.06-.9c9.51-8.6 19.08-15.6 30.51-23.5 38.14-25.8 80.52-46.2 125.81-60.6 73.74-23.8 151.2-34.9 243.74-34.9h1.39c64.69 0 151.05 4.4 245.53 37.6 40.94 14.9 85.35 34.4 130.66 75 27.3 25.4 45.28 51.4 56.19 81.3 6.41 18.3 9.63 37.6 9.2 55.5-.29 8.7-1.59 18-3.84 27.6-1.17 4.7-2.43 9-3.87 13.1l-8.77 21c-5.25 14.1-15.46 25.1-28.74 31-12.6 5.6-26.58 5.9-39.37.8-14.5-5.8-31.22-16.9-48.91-28.7-27.72-18.5-59.14-39.5-96.84-50.7-48.97-14.5-130.99-38.8-203.73-35.4-79.26 2.9-160.75 21.6-223.28 51.3-6.17 2.9-14.61 7.2-24.68 12.4-36.95 18.9-129.82 66.5-175.3 66.5m414.36-411.4c-98.25 0-180.88 12-259.93 37.5-50.01 15.9-96.97 38.6-139.47 67.3-11.42 7.8-23.53 16.5-35.75 27.5-10.68 8.8-22.47 20.4-35.07 34.7-11.39 13.5-23.01 27.8-33.89 46.2-4.11 6.7-9.01 16.2-15.11 29.4-2.98 6.9-5.54 13.3-7.61 19.3l-5.61 18.3c-.83 2.9-2.43 8.7-3.41 13.4-18.18 73.3 24.88 148.5 96.23 167.7 54.21 14.6 144.44-28.1 224.74-69.2 9.49-4.9 17.43-9 23.23-11.7 56.26-26.7 130.16-43.6 202.76-46.2 64.1-3 140.7 19.7 186.46 33.3 30 8.9 56.66 26.7 82.45 43.9 20.09 13.4 39.07 26.1 58.76 33.9 26.16 10.4 54.74 9.8 80.5-1.6 26.2-11.6 46.29-33 56.65-60.3l9.2-22.2c2.04-5.8 3.85-11.9 5.54-18.6 3.13-13.3 4.88-26.2 5.31-38.6.58-24.5-3.67-50.3-12.28-74.8-13.79-37.9-36.77-71.4-70.35-102.7-52.4-46.9-102.34-68.9-148.56-85.8-102.31-35.9-194.45-40.6-263.34-40.7z" style="fill:#211d1d;fill-opacity:1;fill-rule:nonzero;stroke:none" transform="matrix(.01973 0 0 -.01973 13.994 491.407)"/><path d="M4113.11 16417.6c66.28-31.5 145.7-46.3 213.16-48.7 67.46-3.2 145.81 19.8 194.95 34.3 58.09 17.2 102.51 62.3 143.48 78.6 40.98 16.3 86.98-4.8 102.76-47.2l5.39-12.4 3.39-8.6c1.92-5.4 3.46-10.8 4.82-16.3 2.54-10.8 4.16-21.8 4.54-33 .53-22.3-3.66-44.8-10.8-65.2-14.91-40.9-39.87-70-63.41-92-48.08-43-95.11-64.1-139.56-80.3-89.26-31.3-172.65-39-254.29-39.1-81.65-.1-165.7 7.9-253.2 36.2-43.3 13.8-88.3 34-132.77 64-11.05 7.6-22.18 15.6-33.31 25.7-10.85 8.8-22.12 20.4-32.49 32.1-10.68 12.7-21.1 25.5-30.92 42.2-4.59 7.4-9.65 17.8-13.86 27-2.33 5.3-4.7 11.2-6.69 16.9l-3.46 10.9-1.62 5.8c-.82 2.8-2.28 8.2-3.1 12.2-15.05 59.6 19.54 120.6 77.28 136.2 57.73 15.5 190.61-60.7 229.71-79.3" style="fill:#f9fdfd;fill-opacity:1;fill-rule:nonzero;stroke:none" transform="matrix(.01973 0 0 -.01973 13.994 491.407)"/><path d="M3901.77 16472.6c-4.27 0-8.12-.4-11.47-1.3-43.75-11.8-69.98-58.5-58.47-104.2l.27-1.1c.67-3.3 1.9-7.7 2.58-10.1l4.89-16c1.41-4 3.48-9.3 5.73-14.4 4.82-10.5 8.96-18.6 12.1-23.7 9.12-15.4 18.74-27.2 28.65-39 10.45-11.8 20.34-21.6 28.96-28.6l1.05-1c9.54-8.6 19.09-15.6 30.49-23.4 38.15-25.8 80.53-46.2 125.83-60.6 73.75-23.9 151.17-34.9 243.61-34.9h1.52c64.68 0 151.03 4.4 245.53 37.6 40.93 14.9 85.33 34.4 130.66 75 27.3 25.4 45.28 51.4 56.19 81.3 6.41 18.3 9.63 37.6 9.2 55.5-.29 8.6-1.59 18-3.84 27.5-1.17 4.7-2.43 9-3.87 13.2l-8.77 21c-5.25 14.1-15.45 25.1-28.73 31-12.6 5.6-26.59 5.9-39.38.8-14.5-5.8-31.21-16.9-48.91-28.8-27.72-18.5-59.13-39.4-96.84-50.6-48.98-14.5-130.98-38.9-203.73-35.4-79.25 2.9-160.73 21.6-223.28 51.3-6.18 2.9-14.64 7.2-24.74 12.4-36.93 18.9-129.77 66.5-175.23 66.5m414.2-411.4c-98.13 0-180.72 11.9-259.78 37.5-50.02 15.9-96.99 38.6-139.47 67.3-11.39 7.8-23.49 16.4-35.76 27.5-10.7 8.8-22.49 20.4-35.06 34.7-11.37 13.4-22.99 27.7-33.89 46.2-4.1 6.6-9 16.1-15.11 29.4-2.97 6.8-5.53 13.3-7.62 19.3l-5.6 18.3c-.84 2.9-2.43 8.7-3.41 13.3-18.18 73.4 24.88 148.5 96.23 167.8 54.2 14.6 144.4-28.1 224.68-69.2 9.51-4.9 17.47-9 23.29-11.7 56.27-26.7 130.18-43.6 202.76-46.2 64.05-3 140.69 19.7 186.46 33.2 30 8.9 56.67 26.7 82.46 44 20.09 13.4 39.06 26 58.75 33.9 26.16 10.4 54.76 9.8 80.5-1.6 26.21-11.7 46.29-33.1 56.65-60.3l9.2-22.2c2.04-5.8 3.85-11.9 5.54-18.6 3.13-13.3 4.88-26.2 5.31-38.6.58-24.5-3.67-50.3-12.28-74.8-13.79-37.9-36.77-71.4-70.35-102.7-52.56-47-104.56-69.7-148.56-85.8-102.33-35.9-194.47-40.6-263.34-40.7z" style="fill:#211d1d;fill-opacity:1;fill-rule:nonzero;stroke:none" transform="matrix(.01973 0 0 -.01973 13.994 491.407)"/><path d="M5979.96 20992.5c-28.57-42.2-118.32-405.9-151.1-858.6-51.02-704.7-43.61-1624.9-66.12-1881.9-36.97-422.1-411.54-1175.9-1482.74-1165.9-1071.2 10.1-1421.56 885.1-1430.68 1293.2-6.03 269.8-22.93 1035.6-96.32 1702.2-56.05 509.1-173.85 986.2-173.85 986.2s3407.76-64.9 3400.81-75.2" style="fill:#ecf9f7;fill-opacity:1;fill-rule:nonzero;stroke:none" transform="matrix(.01973 0 0 -.01973 13.994 491.407)"/><path d="M2612.88 21040.6c27.53-117.8 119.33-527.9 166.47-956.2 73.24-665.2 90.07-1418 96.41-1701.4l.07-3.1c4.25-190.1 88.26-508.4 311.04-779.6 180.28-219.5 516.31-482.2 1093.37-487.7 460.82-4.3 844.45 138.5 1109.91 412.8 288.05 297.8 337.79 633.2 346.18 728.9 9.08 103.7 13.22 314.6 18.46 581.7 7.71 392.5 17.3 881 47.62 1299.8 27.47 379.4 97.17 715 138.52 832.9-285.93 12-2242.83 51.2-3328.05 71.9m1687.66-3981.1c-6.93 0-13.83 0-20.79.1-597.53 5.6-946.41 278.8-1133.86 507-231.36 281.7-318.64 613.6-323.08 812.1l-.07 3.1c-6.32 282.7-23.11 1033.9-96.09 1696.8-55.2 501.4-172.06 978-173.24 982.8l-8.28 33.5 34.52-.7c8.49-.1 858.59-16.3 1698.42-33.6 493.27-10.2 886.53-18.7 1168.86-25.4 167.67-3.9 297.59-7.3 386.14-9.9 162.29-4.8 162.29-4.8 170.44-20.5l7.26-14-8.86-13.1c-23.8-35.2-113.69-391.1-146.61-845.7-30.22-417.5-39.79-905.2-47.49-1297.1-5.26-268-9.42-479.8-18.65-585.2-8.77-100.1-60.71-450.9-360.9-761.1-271.78-280.9-661.42-429.1-1127.72-429.1" style="fill:#211d1d;fill-opacity:1;fill-rule:nonzero;stroke:none" transform="matrix(.01973 0 0 -.01973 13.994 491.407)"/><path d="M5936.63 21153.7c72.93-71.9 79.37-183.8 9-257.8-250.38-263.2-925.47-450.4-1617.28-447.4-801.41 3.6-1588.65 180.2-1740.63 587.4-30.79 82.5 3.82 174.3 82.87 223.1 421.07 259.9 930.41 325.1 1615.2 325.1 905.84 0 1361.04-144.8 1650.84-430.4" style="fill:#caede7;fill-opacity:1;fill-rule:nonzero;stroke:none" transform="matrix(.01973 0 0 -.01973 13.994 491.407)"/><path d="M4285.79 21557.6c-648.84 0-1169.46-54.6-1601.27-321.2-68.59-42.3-98.17-121-71.96-191.2 155.06-415.4 988.05-566.9 1715.91-570.1 5.49-.1 11.03-.1 16.52-.1 675.34 0 1338.49 183.8 1581.43 439.2 59.43 62.5 55.82 157.3-8.4 220.6-300.71 296.4-788.85 422.8-1632.23 422.8m58.99-1135.6h-16.55c-745.56 3.3-1600.85 163.9-1765.34 604.6-35.19 94.3 3.37 199.1 93.78 254.9 442.44 273.2 971.25 329.1 1629.12 329.1 446.92 0 794.78-35.6 1063.42-109 256.9-70.2 449.47-174.7 606.03-329 83.98-82.8 88.2-212.3 9.6-294.9-124.43-130.9-357.13-248.4-655.24-330.9-291.23-80.6-633.23-124.8-964.82-124.8" style="fill:#211d1d;fill-opacity:1;fill-rule:nonzero;stroke:none" transform="matrix(.01973 0 0 -.01973 13.994 491.407)"/><path d="M5593.79 20466.4c21.82 35.5 69.75 45.1 102.66 19.5 260.59-202.8 676.9 6 946.47-78.7 595.51-187 537.43-1322.8 448.77-1779.1-55.89-287.7-152.75-634.1-392.88-823-347.82-273.5-728.01-117.5-1098.51 6.3-114.02 38.1-176.32 162.7-135.63 275.8 12.64 35.2 28.4 67.3 47.3 96.5 57.34 88.5 174.44 116.5 268.93 69.7 389.65-193.1 754.07-376.8 961.46 203.3 67.08 187.6 137.8 821.4 53.48 1239.4-47.66 236.3-285.05 385.2-518.26 324.2-180.84-47.4-412.24-132.4-600.72-275-32.91-24.9-79.89-16.9-102.19 17.8-134.05 208.8-126.96 465.4 19.12 703.3" style="fill:#f9fdfd;fill-opacity:1;fill-rule:nonzero;stroke:none" transform="matrix(.01973 0 0 -.01973 13.994 491.407)"/><path d="M5684.65 18249.6c-59.71 0-116.92-28.6-150.43-80.3-17.69-27.3-32.7-58-44.6-91.1-16.98-47.2-14.15-98.3 7.97-143.9 22.6-46.6 62.06-81.3 111.12-97.7 23.94-8 47.92-16.2 71.92-24.3 338.1-114.7 687.7-233.4 1001.79 13.7 236.89 186.3 329.25 529.2 383.25 807.1 76.65 394.5 162.05 1562.6-430.7 1748.8-105.97 33.3-237.5 18.8-376.75 3.4-204.78-22.6-416.55-46-578.05 79.6-9.59 7.5-21.54 10.4-33.69 8.2-12.47-2.3-23.44-9.8-30.09-20.6-140.7-229.1-147.77-475.1-19.41-675 6.66-10.4 16.99-17.3 29.11-19.5 12.34-2.2 24.68.8 34.77 8.5 200.01 151.3 442.12 235.5 610.01 279.4 119.63 31.3 243.55 12.4 348.92-53.4 105.72-65.9 177.48-169.3 202.04-291.1 86.69-429.9 12.96-1064.9-54.51-1253.6-73.59-205.9-171.25-331-298.56-382.4-202.94-81.9-441.57 36.4-694.2 161.6l-5.43 2.6c-27.2 13.5-56.13 20-84.48 20m575.9-622.8c-198.2-.1-399.44 68.2-596.96 135.3-23.93 8.1-47.83 16.2-71.7 24.2-62.71 20.9-113.14 65.3-142.02 124.8-28.4 58.6-32 124.3-10.15 185.1 13.28 36.9 30.1 71.2 50 101.9 64.08 98.9 194.31 132.9 302.96 79.1l5.42-2.7c241.67-119.8 469.95-232.9 650.81-159.9 112.46 45.4 200.28 160.2 268.48 351 67.27 188.2 134.18 820.1 52.46 1225.3-21.65 107.3-84.91 198.5-178.13 256.6-92.87 58-202.03 74.7-307.42 47.1-163.25-42.7-398.37-124.3-591.44-270.4-21.69-16.4-49.39-23.1-76.06-18.4-26.43 4.7-49.92 20.4-64.44 43-139.8 217.7-132.93 484.3 18.84 731.4 14.53 23.7 38.52 40.1 65.82 45.1 26.74 4.9 54.37-1.9 75.71-18.5 144.51-112.4 345.39-90.2 539.67-68.8 144.95 16 281.86 31.1 398.46-5.5 266.81-83.8 439.46-364 499.29-810.4 48.72-363.5 12.98-765.4-32.43-999.1-55.75-286.9-151.89-641.6-402.52-838.7-147.48-116-300.15-157.5-454.65-157.5" style="fill:#211d1d;fill-opacity:1;fill-rule:nonzero;stroke:none" transform="matrix(.01973 0 0 -.01973 13.994 491.407)"/><path d="M3317.19 20277.1c-97.65 36-200.67-38.5-197.68-142.6 12.92-448.6 31.39-1317.1 59-1579.4 53.34-506.7 306.67-1100 700-1093.3 393.34 6.6-53.33 473.3-220 786.6-150.17 282.4-200.69 1533.7-241.67 1905.2-6.15 55.7-43.32 103.1-96.02 122.2-1.21.4-2.42.9-3.63 1.3M5143.51 16230.1s-240-20-173.33-133.3c66.67-113.4 306.67-146.7 306.67-253.4 0-106.6-593.34-166.6-586.67-273.3 4.57-73.2 826.67-66.7 1000 180s-240 506.7-546.67 480" style="fill:#fff;fill-opacity:1;fill-rule:nonzero;stroke:none" transform="matrix(.01973 0 0 -.01973 13.994 491.407)"/></g></svg>