<svg xmlns="http://www.w3.org/2000/svg" width="200mm" height="200mm" viewBox="0 0 200 200"><g style="display:inline"><path d="M32044.1 42462.6c-70.6 0-140.1 1.7-208.2 5.1-307.6 15.1-586.2 63.1-807.9 134.1-208.5 66.6-366.6 153.3-451.2 251.8-7.8 27.4-15.5 54.8-23.2 82.2l-1.4 3.7c-12.1 26.8-18.3 53.6-18.3 79.8 0 134.7 157.7 269 432.6 368.6 287.5 104.1 670.2 161.5 1077.6 161.5 407.5 0 790.2-57.4 1077.6-161.5 274.9-99.6 432.6-233.9 432.6-368.6 0-7.2-.7-14.6-1.5-20.9-.6-4.8-1.7-11.6-2.3-14l-.4-1.6c-1.6-7.8-3.7-15.7-6.3-23.4l-.5-1.5c-8.9-32.8-17.7-65.4-26.6-98.1-189.2-229.7-776.9-397.2-1472.6-397.2" style="fill:#fcfefe;fill-opacity:1;fill-rule:nonzero;stroke:none" transform="matrix(.02395 0 0 -.02395 -667.374 1068.728)"/><path d="M31161.9 40350.8c34.5-34.5 262.6-234.7 933.5-256.2 657.2-21 863.1 217.1 890.9 253.9 69.7 809.8 306.4 1683.9 557 2609.4l.5 1.5c2.6 7.7 4.7 15.6 6.3 23.4l.4 1.6c.6 2.4 1.7 9.2 2.3 14 .8 6.3 1.5 13.7 1.5 20.9 0 134.7-157.7 269-432.6 368.6-287.4 104.1-670.1 161.5-1077.6 161.5-407.4 0-790.1-57.4-1077.6-161.5-274.9-99.6-432.6-233.9-432.6-368.6 0-26.2 6.2-53 18.3-79.8l1.4-3.7c39.9-142.1 80.7-283.7 120.3-420.7 201.7-698.9 392.2-1359.1 488-2164.3m1014.9-310.6c-26.9 0-54.6.5-83.1 1.4-759.5 24.3-969.1 270.3-977.6 280.7l-4.9 6-.9 7.7c-95 804.7-285.6 1465.2-487.4 2164.4-39.4 136.5-80.1 277.5-119.9 419.1-14.6 33.1-22.1 66.7-22.1 99.8 0 160.6 166.1 309.3 467.6 418.5 293.1 106.1 682.2 164.6 1095.6 164.6 413.5 0 802.6-58.5 1095.7-164.6 301.5-109.2 467.5-257.9 467.5-418.5 0-10-.9-19.4-1.8-27.2v-.3c-.3-2.1-1.7-13-3.6-20.3-2-9.5-4.5-19-7.6-28.3-250.6-925.5-487.3-1799.6-555.8-2606.3l-.5-6.5-3.5-5.4c-7.6-12.1-187.6-284.7-857.7-284.8" style="fill:#211d1d;fill-opacity:1;fill-rule:nonzero;stroke:none" transform="matrix(.02395 0 0 -.02395 -667.374 1068.728)"/><path d="M32175.3 40093.3c-21.4 0-43.1.3-64.7.9h-.3c-1.5 0-3 0-4.6.1h-.9c-1.3 0-2.6.1-3.8.1-.4 0-.8 0-1.2.1-1.4 0-2.9 0-4.4.1-1.3 0-2.6.1-3.9.1-1.2.1-2.4.1-3.6.1-.1 0-.3 0-.4.1-1.2 0-2.4 0-3.5.1h-.5c-1.1 0-2.3.1-3.4.1-.3 0-.7 0-1 .1-1 0-1.9 0-2.9.1-1.2 0-2.4.1-3.6.1h-.3c-40.6 1.6-81 3.9-120.4 6.9-560.6 42.8-758.1 216.6-790 248.5-95.8 805.2-286.3 1465.4-488 2164.3-31.9 110.5-64.7 224.1-97.1 338.5 84.6-98.5 242.7-185.2 451.2-251.8 221.7-71 500.3-119 807.9-134.1 68.1-3.4 137.6-5.1 208.2-5.1 695.7 0 1283.4 167.5 1472.6 397.2-240.5-889.1-463.2-1730.2-530.4-2511.3-25.4-33.7-200.3-236.3-734.5-254l-8.8-.2c-22.3-.7-44.9-1-67.7-1" style="fill:#e9f7f5;fill-opacity:1;fill-rule:nonzero;stroke:none" transform="matrix(.02395 0 0 -.02395 -667.374 1068.728)"/><path d="M32175.9 40093.3c-21.3 0-43 .3-65.3.9 21.6-.6 43.3-.9 64.7-.9 22.8 0 45.4.3 67.7 1l8.8.2c-24.6-.8-49.8-1.2-75.9-1.2m-65.6.9c-1.5 0-3 0-4.6.1 1.6-.1 3.1-.1 4.6-.1m-5.5.1c-1.3 0-2.6.1-3.8.1 1.2 0 2.5-.1 3.8-.1m-5 .2c-1.4 0-2.9 0-4.4.1-1.3 0-2.6.1-3.9.1 1.3 0 2.6-.1 3.9-.1 1.5-.1 3-.1 4.4-.1m-11.9.3c-.2 0-.2 0-.4.1.1-.1.3-.1.4-.1m-3.9.2h-.5zm-3.9.1c-.3 0-.6 0-1 .1.3-.1.7-.1 1-.1m-3.9.2c-1.2 0-2.4.1-3.6.1 1.2 0 2.4-.1 3.6-.1m-3.9.1c-41.8 1.6-82 4-120.4 6.9 39.4-3 79.8-5.3 120.4-6.9" style="fill:#a5b5b1;fill-opacity:1;fill-rule:nonzero;stroke:none" transform="matrix(.02395 0 0 -.02395 -667.374 1068.728)"/><path d="M32176.4 40066.8c-26.5 0-53.7.4-81.8 1.3-28.2.9-55.7 2.1-82.4 3.6-191.6 10.8-344.3 36.3-465 67.4-313.2 80.8-410.6 200-410.6 200-114.2 968-369.1 1736.9-608.2 2588.2 11.6-25.2 27.8-49.8 48.4-73.7 32.4-114.4 65.2-228 97.1-338.5 201.7-698.9 392.2-1359.1 488-2164.3 31.9-31.9 229.4-205.7 790-248.5 38.4-2.9 78.6-5.3 120.4-6.9h.3c1.2 0 2.4-.1 3.6-.1 1-.1 1.9-.1 2.9-.1.4-.1.7-.1 1-.1 1.1 0 2.3-.1 3.4-.1h.5c1.1-.1 2.3-.1 3.5-.1.2-.1.2-.1.4-.1 1.2 0 2.4 0 3.6-.1 1.3 0 2.6-.1 3.9-.1 1.5-.1 3-.1 4.4-.1.4-.1.8-.1 1.2-.1 1.2 0 2.5-.1 3.8-.1h.9c1.6-.1 3.1-.1 4.6-.1h.3c22.3-.6 44-.9 65.3-.9 26.1 0 51.3.4 75.9 1.2 534.2 17.7 709.1 220.3 734.5 254 67.2 781.1 289.9 1622.2 530.4 2511.3 23 27.9 40.1 56.6 50.8 86.1-263.8-974.3-487.9-1811.7-555.4-2606.8 0 0-171.8-272.3-835.7-272.3" style="fill:#7a8a8a;fill-opacity:1;fill-rule:nonzero;stroke:none" transform="matrix(.02395 0 0 -.02395 -667.374 1068.728)"/><path d="M32012.2 40071.7c-191.6 10.8-344.3 36.3-465 67.4-66.2 521.8-399.7 1956.3-519.2 2462.7 221.7-71 500.3-119 807.9-134.1z" style="fill:#fff;fill-opacity:1;fill-rule:nonzero;stroke:none" transform="matrix(.02395 0 0 -.02395 -667.374 1068.728)"/><path d="M31161.9 40350.8c34.5-34.5 262.6-234.7 933.5-256.2 657.2-21 863.1 217.1 890.9 253.9 66 766.5 281 1588.7 515.8 2457.1-91.1-88.1-239-166.8-432.9-228.8-283.3-90.7-647.3-140.7-1025.1-140.7-653.1 0-1220.8 147.4-1452.1 363.8 27.5-96.2 55-191.6 81.9-284.8 201.7-698.9 392.2-1359.1 488-2164.3m1014.9-310.6c-26.9 0-54.6.5-83.1 1.4-759.5 24.3-969.1 270.3-977.6 280.7l-4.9 6-.9 7.7c-95 804.7-285.6 1465.1-487.4 2164.4-39.4 136.6-80.2 278-120 419.8l49.6 18.2c117.5-256.1 758.8-449.2 1491.6-449.2 372.4 0 730.7 49 1008.9 138.1 270.4 86.5 444.2 202.8 489.6 327.6l50.5-16c-250-923.1-486.1-1795.1-554.6-2602l-.5-6.5-3.5-5.4c-7.6-12.1-187.6-284.8-857.7-284.8" style="fill:#211d1d;fill-opacity:1;fill-rule:nonzero;stroke:none" transform="matrix(.02395 0 0 -.02395 -667.374 1068.728)"/><path d="M32044.1 43549.4c-407.4 0-790.1-57.4-1077.6-161.5-274.9-99.6-432.6-233.9-432.6-368.6s157.7-269.1 432.6-368.7c287.5-104.1 670.2-161.4 1077.6-161.4 407.5 0 790.2 57.3 1077.6 161.4 274.9 99.6 432.6 234 432.6 368.7s-157.7 269-432.6 368.6c-287.4 104.1-670.1 161.5-1077.6 161.5m0-1113.3c-413.4 0-802.5 58.5-1095.6 164.7-301.5 109.2-467.6 257.8-467.6 418.5 0 160.6 166.1 309.3 467.6 418.5 293.1 106.1 682.2 164.6 1095.6 164.6 413.5 0 802.6-58.5 1095.7-164.6 301.5-109.2 467.5-257.9 467.5-418.5 0-160.7-166-309.3-467.5-418.5-293.1-106.2-682.2-164.7-1095.7-164.7" style="fill:#211d1d;fill-opacity:1;fill-rule:nonzero;stroke:none" transform="matrix(.02395 0 0 -.02395 -667.374 1068.728)"/><path d="M32113.5 39665.9c0-51.1-41.4-92.5-92.5-92.5s-92.5 41.4-92.5 92.5 41.4 92.5 92.5 92.5 92.5-41.4 92.5-92.5m-595-2240.8s-313.3-166.7-236.7-273.3c76.7-106.7 446.7-243.4 683.4-266.7 0 0-756.7-20-983.4 96.7-86.1 44.3-146.6 223.3 0 303.3 146.7 80 536.7 140 536.7 140" style="fill:#fff;fill-opacity:1;fill-rule:nonzero;stroke:none" transform="matrix(.02395 0 0 -.02395 -667.374 1068.728)"/><path d="M30803 37444.5c-134.3-65.3-234.5-183.9-202.3-316.1 37.6-154.4 222.6-251.3 394.6-313.7 678.1-245.9 1456.3-264.8 2126.5-51.8 99.1 31.5 197.8 68.9 273.5 130.6 75.8 61.8 125.7 152.1 107.9 242.5-16.6 84.5-89.6 157-175.9 203.3-86.4 46.4-185.6 70.3-283.6 91.8-619.5 135.9-947.9 203.1-1701.5 152.4-101.8-6.9-451.9-96.6-539.2-139" style="display:inline;fill:#e6f6f4;fill-opacity:1;fill-rule:nonzero;stroke:none" transform="matrix(.02395 0 0 -.02395 -667.374 1068.728)"/><path d="m30803 37444.5 11.6-23.9c-106.3-51.6-219.4-157.5-188.1-285.9 28-115.1 155.1-214.4 377.9-295.1 674.2-244.4 1443.1-263.2 2109.4-51.4 93.9 29.8 191 65.7 264.8 125.9 76.2 62.2 113.1 143.2 98.6 216.8-13.4 68.5-74.2 137.7-162.5 185.1-83.1 44.6-178.3 67.6-276.7 89.2-643.1 141.1-958.3 201.4-1694.1 151.8-99.8-6.7-446.1-95.9-529.3-136.4zm1342.1-855.7c-393.4 0-790 67.2-1158.8 201-243.8 88.3-378.4 197.1-411.3 332.4-31.9 130.9 53 266.7 216.4 346.1 88.8 43.2 442.8 134.5 549 141.6 742.9 50.1 1060.8-10.7 1709-152.9 102.1-22.4 201.2-46.5 290.4-94.3 103.7-55.6 172.7-136.4 189.5-221.5 18.3-93.2-25.5-193.5-117.2-268.2-80.7-65.8-183.3-103.9-282.2-135.4-312.7-99.3-647.5-148.8-984.8-148.8" style="display:inline;fill:#211d1d;fill-opacity:1;fill-rule:nonzero;stroke:none" transform="matrix(.02395 0 0 -.02395 -667.374 1068.728)"/><path d="M31573.7 37219.6c124.5-161.8 298.5-173.9 524.1-177.3 158.2-2.4 324.6 19.7 408.3 94-130.6 122.4-220.7 231.5-263.2 432.7-53.8 254.8-43.3 640.7-41.5 906.7 5.5 813.9 157.3 338.8 60.5 998.3l-157.3 177.4-169.4-195.6c-105.8-580.8 39.8-183.9 54.5-986.1 3.4-185.6-40.7-534.3-55-719.5-19.7-256.2-353.7-525.7-361-530.6" style="display:inline;fill:#f6fcfb;fill-opacity:1;fill-rule:nonzero;stroke:none" transform="matrix(.02395 0 0 -.02395 -667.374 1068.728)"/><path d="M31610.9 37216c114-131.4 268.6-143.9 487.3-147.2 165.9-2.6 294.2 22.1 367.1 69.7-126.6 122.2-208.3 235.3-248.4 425-48.6 230.3-45.4 558.9-42.8 822.8.3 31.1.6 61 .8 89.6 2.7 400.5 40.6 493.4 68.3 561.2 26.4 64.7 41 100.6-6.4 425.2l-131.9 148.9-144.9-167.3c-52.3-288.5-40.4-323.2-14.6-398.4 25.3-74.1 63.7-186 70.8-575.3 2.4-130.9-18-336.7-36.1-518.3-7.5-76.1-14.6-147.9-18.9-203.7-17.9-232.4-272.5-466.1-350.3-532.2m510.1-200.4c-8 0-15.9.1-23.6.2-237.2 3.6-415 19.2-544.7 187.6l-17.2 22.5 23 15.4c9.3 7.3 331 267.1 349.8 511 4.3 56.4 11.5 128.5 19.1 204.8 17.8 180.1 38.1 384.3 35.8 512.1-7 381-43.7 488.2-68 559.1-28.2 82.3-42.3 123.6 13.9 432.3l1.3 7.1 194 224 182.6-206.1 1.2-7.8c50.8-346.2 34.2-386.9 4.1-460.7-26.1-63.9-61.7-151.3-64.4-541.6-.2-28.6-.4-58.6-.7-89.7-2.6-261.4-5.8-586.7 41.6-811.3 39.8-188.2 120.5-292.4 255.5-418.8l21.2-19.9-21.8-19.3c-92.7-82.3-265.5-100.9-402.7-100.9" style="display:inline;fill:#211d1d;fill-opacity:1;fill-rule:nonzero;stroke:none" transform="matrix(.02395 0 0 -.02395 -667.374 1068.728)"/><path d="M32419.2 39673.6c0-177.1-143.5-320.6-320.6-320.6s-320.7 143.5-320.7 320.6 143.6 320.7 320.7 320.7 320.6-143.6 320.6-320.7" style="display:inline;fill:#e6f6f4;fill-opacity:1;fill-rule:nonzero;stroke:none" transform="matrix(.02395 0 0 -.02395 -667.374 1068.728)"/><path d="M32098.6 39967.8c-162.2 0-294.2-132-294.2-294.2s132-294.1 294.2-294.1 294.1 131.9 294.1 294.1-131.9 294.2-294.1 294.2m0-641.3c-191.4 0-347.2 155.7-347.2 347.1s155.8 347.2 347.2 347.2 347.1-155.8 347.1-347.2-155.7-347.1-347.1-347.1" style="display:inline;fill:#211d1d;fill-opacity:1;fill-rule:nonzero;stroke:none" transform="matrix(.02395 0 0 -.02395 -667.374 1068.728)"/><path d="M32094.6 40068.1c-51.7 1.6-100.7 4.4-147.3 7.9v-148.3s59.1-48.5 149.5-54.4c92.2-6.1 147 54.4 147 54.4v140.1c-47.1-1.4-96.7-1.4-149.2.3" style="display:inline;fill:#f6fcfb;fill-opacity:1;fill-rule:nonzero;stroke:none" transform="matrix(.02395 0 0 -.02395 -667.374 1068.728)"/><path d="M31973.8 39941.4c19-12.4 64.4-37.7 124.7-41.7 61.2-4 103 25.7 118.8 39.3v101.6c-40.5-.7-82-.3-123.6 1-40.3 1.3-80.5 3.3-119.9 5.9zm136-95.1c-4.8 0-9.7.2-14.7.5-97.8 6.4-161.9 58.2-164.6 60.4l-9.7 8v189.5l28.6-2.2c47.6-3.7 96.8-6.3 146-7.9 49.9-1.6 99.6-1.7 147.6-.3l27.3.8v-177.6l-6.9-7.6c-2.4-2.7-58.7-63.6-153.6-63.6" style="display:inline;fill:#211d1d;fill-opacity:1;fill-rule:nonzero;stroke:none" transform="matrix(.02395 0 0 -.02395 -667.374 1068.728)"/></g></svg>