<svg xmlns="http://www.w3.org/2000/svg" width="200mm" height="200mm" viewBox="0 0 200 200"><g style="display:inline"><path d="M4189.95 25839.2c-482.16 0-967.68 75.3-1417.46 225.1-215.38 71.8-446.69 183.8-493.01 364-39.65 154.2 86.56 293.3 255.34 370.4 109.7 50.1 549.06 157 676.72 165.7 227.59 15.4 424.21 22.7 602.43 22.7 48.16 0 94.93-.5 140.65-1.6-.3-3.4-.59-6.7-.88-9.9-16.84-190.1-296.21-408.3-349.87-443l-27.92-16.3 21.43-24.2c130.28-147.1 308.61-160.6 546.32-163.8 7.77-.1 15.66-.2 23.69-.2 137.4 0 310.53 16.2 403.39 87.9l26.49 20.4-25.96 21.1c-135.19 110.1-215.98 200.6-255.61 363.7-11.03 45.3-18.81 94.5-24.22 146.2 337.14-29 644.36-88.8 1052.52-170.2 122.74-24.5 247-51.8 355.02-105.4s199.17-137.8 219.52-236.3c21.8-105.5-41.35-211.3-136.62-283.9-95.28-72.6-219.28-116.9-343.6-154.3-395.55-118.9-820.63-178.1-1248.37-178.1" style="fill:#f0faf9;fill-opacity:1;fill-rule:nonzero;stroke:none" transform="matrix(.02313 0 0 -.02313 7.185 789.28)"/><path d="M2545.84 26774.5c-135.41-61.8-279.7-187.9-240.68-339.6 34.86-135.6 194.92-251.9 475.71-345.4 845.72-281.8 1811.54-298.9 2649.81-46.8 118.64 35.7 241.36 78.5 335.18 150 97.33 74.2 144.7 170.4 126.72 257.4-16.73 81-93.49 162.5-205.34 217.9-104.87 52.1-224.66 78.5-348.43 103.2-806.24 160.9-1201.62 229.3-2125.47 166.7-125.78-8.5-562.46-115.4-667.5-163.4m1643.78-962.3c-484.48 0-972.05 75.9-1425.51 227-303.19 101-470.11 226.1-510.31 382.5-38.83 151 67.15 308.4 270 401.1 111.01 50.7 553.35 159.1 685.96 168 930.61 63.1 1328.39-5.8 2139.42-167.6 127.41-25.4 250.94-52.7 361.62-107.6 128.23-63.6 213.41-156.5 233.71-254.7 22.21-107.5-32.56-223.6-146.52-310.4-100.54-76.6-228.61-121.5-352.03-158.6-398.93-119.9-826.43-179.7-1256.34-179.7" style="fill:#211d1d;fill-opacity:1;fill-rule:nonzero;stroke:none" transform="matrix(.02313 0 0 -.02313 7.185 789.28)"/><path d="M4289.93 26814.9c-54.1 222.6-31.85 534.5-30.05 766.9 3.52 455.1 9.77 924.8 14.68 1397.7-44.77-3.7-89.83-5.8-135.14-5.8-48.78 0-97.26 1.6-145.45 4.6 4.29-443.2 18.57-873.7 27.77-1311 3.42-162.1-27.27-532.4-41.58-694.1-19.83-223.8-355.6-459.2-362.94-463.5 125.19-141.3 300.1-151.9 526.83-154.9 159.12-2.1 326.38 17.2 410.52 82.1-131.28 106.9-221.92 202.2-264.64 378" style="fill:#f6fcfb;fill-opacity:1;fill-rule:nonzero;stroke:none" transform="matrix(.02313 0 0 -.02313 7.185 789.28)"/><path d="M3657.34 26506c114.33-111.1 269.16-121.8 487.06-124.7 163.45-2.3 290.99 18.4 365.37 58.3-124.76 105.5-205.58 204.4-245.6 369-44.11 181.5-38.51 417.7-33.55 626.1 1.22 52 2.38 101 2.74 147.3 2.3 296.6 5.82 606 9.24 905.2 1.75 153.9 3.53 308.6 5.15 463.7-37.05-2.5-73.37-3.8-108.33-3.8-38.7 0-77.75 1.1-118.65 3.2 3.03-284.3 10.14-567.7 17.02-842.1 3.63-144.1 7.36-293 10.47-440.3 3.47-165-28-542.4-41.7-697-17.82-201.4-266.22-403-349.22-464.9m510.05-177.9c-8.03 0-15.92.1-23.69.2-237.71 3.2-416.04 16.7-546.32 163.8l-21.43 24.2 27.92 16.3c53.66 34.7 333.03 252.9 349.87 443 13.61 153.7 44.92 528.8 41.5 691.2-3.1 147.2-6.83 296.1-10.45 440.1-7.12 283.6-14.49 577-17.33 871.2l-.27 28.4 28.41-1.7c50.31-3.1 97.36-4.6 143.82-4.6 42.57 0 87.29 1.9 132.93 5.7l29.04 2.4-.31-29.1c-1.71-164.7-3.59-329.1-5.45-492.6-3.41-299.2-6.95-608.5-9.23-905-.37-46.7-1.54-96-2.77-148.1-4.88-205.2-10.4-437.7 32.07-612.3 39.63-163.1 120.42-253.6 255.61-363.7l25.96-21.1-26.49-20.4c-92.86-71.7-265.99-87.9-403.39-87.9" style="fill:#211d1d;fill-opacity:1;fill-rule:nonzero;stroke:none" transform="matrix(.02313 0 0 -.02313 7.185 789.28)"/><path d="M6082.03 31217.8c-67.05 572.3-302.66 966.5-471.79 1448.3-6.1 17.4-19.41 33.3-39.02 47.9-29.3 47.3-69.91 96.3-122.98 147.1-261.21 249.7-982.31 338-1308.9 361.3-442.63 31.5-1310.51-47.3-1667.77-384.3-91.49-86.3-129.7-171.4-124.82-252.7-105.04-338.8-263.99-534.6-380.11-1162.2-252.74-1366.1 865.19-2449.5 2172.78-2449.5 1104.92 0 2072.24 1137.6 1942.61 2244.1" style="fill:#f6fcfb;fill-opacity:1;fill-rule:nonzero;stroke:none" transform="matrix(.02313 0 0 -.02313 7.185 789.28)"/><path d="M3937.85 33202.6c-485.81 0-1154.74-107.1-1448.08-383.8-81.94-77.3-121.15-155.3-116.56-231.8l.3-4.8-1.43-4.6c-35.75-115.3-77.45-213.7-121.6-317.9-84.95-200.5-181.26-427.8-257.77-841.3-109.77-593.4 38.74-1171.3 418.17-1627.4 411.99-495.2 1058.18-790.8 1728.54-790.8 504.39 0 1011 244.3 1389.96 670.2 391.32 439.8 588.07 1017.1 526.31 1544.3-46.66 398.3-173.31 703.8-307.41 1027.2-55.29 133.4-112.47 271.3-163.06 415.4-4.17 11.9-14.21 23.8-29.85 35.5l-4.03 3-2.65 4.3c-28.57 46-68.55 93.7-118.79 141.8-281.65 269.3-1126.04 342.2-1292.45 354-61.45 4.4-128.56 6.7-199.6 6.7m201.57-4255.5c-342 0-685.27 75.3-992.74 217.7-302.03 139.9-570.57 344.7-776.57 592.3-389.68 468.4-542.24 1061.8-429.54 1670.9 77.56 419.3 175.06 649.4 261.09 852.4 43.04 101.5 83.72 197.5 118.38 308.4-3.73 91.3 41.11 181.6 133.34 268.6 204.53 192.9 556.26 289.8 815.3 337.1 338.27 61.8 672.54 68.6 872.54 54.3 238.25-17 1037.94-93.8 1325.34-368.6 51.97-49.7 93.87-99.5 124.59-148 21.99-17.3 36.82-36.6 44.1-57.3 50.11-142.7 107-280 162.02-412.7 129.57-312.5 263.58-635.7 311.1-1041.4 32.68-279-1.25-563.9-100.86-846.8-93.8-266.3-245.44-521.8-438.51-738.8-389.01-437.3-910.07-688.1-1429.58-688.1" style="fill:#211d1d;fill-opacity:1;fill-rule:nonzero;stroke:none" transform="matrix(.02313 0 0 -.02313 7.185 789.28)"/><path d="M4139.42 29000.2c-670.36 0-1316.55 295.6-1728.54 790.8-379.43 456.1-527.94 1034-418.17 1627.4 76.51 413.5 172.82 640.8 257.77 841.3 37.99 89.6 74.17 175 106.3 270.6 95.98-315.4 838.5-562.4 1614.77-582.3 37.44-1 74.81-1.5 112.13-1.5 798.71.1 1553.42 218.8 1546.66 587.9 38.23-100.2 78.56-197.5 117.94-292.5 134.1-323.4 260.75-628.9 307.41-1027.2 61.76-527.2-134.99-1104.5-526.31-1544.3-378.96-425.9-885.57-670.2-1389.96-670.2" style="fill:#eaf8f5;fill-opacity:1;fill-rule:nonzero;stroke:none" transform="matrix(.02313 0 0 -.02313 7.185 789.28)"/><path d="M4139.42 28973.7c-1307.59 0-2425.52 1083.4-2172.78 2449.5 116.12 627.6 275.07 823.4 380.11 1162.2 1.12-18.6 4.5-37 10.03-55.1-32.13-95.6-68.31-181-106.3-270.6-84.95-200.5-181.26-427.8-257.77-841.3-109.77-593.4 38.74-1171.3 418.17-1627.4 411.99-495.2 1058.18-790.8 1728.54-790.8 504.39 0 1011 244.3 1389.96 670.2 391.32 439.8 588.07 1017.1 526.31 1544.3-46.66 398.3-173.31 703.8-307.41 1027.2-39.38 95-79.71 192.3-117.94 292.5-1.04 56.4-19.88 116.4-59.12 179.6 19.61-14.6 32.92-30.5 39.02-47.9 169.13-481.8 404.74-876 471.79-1448.3 129.63-1106.5-837.69-2244.1-1942.61-2244.1" style="fill:#616c6e;fill-opacity:1;fill-rule:nonzero;stroke:none" transform="matrix(.02313 0 0 -.02313 7.185 789.28)"/><path d="M2705.71 32212.4c-147.2-343.7-321.4-866.5-267.2-1324 67.62-571 626.37-1136.4 900.07-1382.2 39.94-35.9 101.49 4.8 84.05 55.6-106.84 311.2-306.8 956.5-314.12 1446.6-3.3 220.3 183 689.5 314.2 991.8z" style="fill:#fff;fill-opacity:1;fill-rule:nonzero;stroke:none" transform="matrix(.02313 0 0 -.02313 7.185 789.28)"/><path d="M2343.2 32491.1c-28.6-80.1-59.99-154.2-92.72-231.4-84.96-200.5-181.26-427.8-257.77-841.3-109.78-593.4 38.74-1171.3 418.17-1627.4 411.99-495.2 1058.17-790.8 1728.54-790.8 504.39 0 1011 244.3 1389.96 670.2 391.32 439.8 588.07 1017.1 526.32 1544.3-46.67 398.3-173.33 703.8-307.42 1027.2-31.87 76.9-64.36 155.3-95.86 235.5-6.22-33.6-18.52-66.5-36.9-98.5-84.89-148.1-298.32-270.2-617.22-353.2-294.72-76.6-659.57-113.7-1027.43-104.2-403.98 10.4-812.69 83.4-1121.3 200.3-271 102.7-446.12 231.3-506.37 369.3m1796.22-3544c-341.99 0-685.28 75.3-992.74 217.7-302.04 139.9-570.57 344.7-776.56 592.3-389.69 468.4-542.24 1061.8-429.55 1670.9 77.57 419.3 175.07 649.4 261.09 852.4 43.61 102.9 84.81 200.1 119.77 312.9l43.07 138.9 8.72-145.2c9.04-150.4 184.88-298 495.13-415.6 303.27-114.9 705.62-186.7 1103.89-196.9 771.04-19.8 1442.8 161.3 1597.27 430.8 51.66 90 44.65 189.2-20.82 294.8l-73.72 118.8 112.1-83.6c24.25-18.1 40.46-38.4 48.18-60.4 50.11-142.7 107-280 162.02-412.7 129.58-312.5 263.57-635.7 311.09-1041.4 32.69-279-1.24-563.9-100.85-846.8-93.81-266.3-245.44-521.8-438.51-738.8-389.01-437.3-910.07-688.1-1429.58-688.1" style="fill:#211d1d;fill-opacity:1;fill-rule:nonzero;stroke:none" transform="matrix(.02313 0 0 -.02313 7.185 789.28)"/><path d="M3230.65 26807.5c26.06 5 39.89-32.5 17.46-47.4-111.26-73.8-249.74-193.9-201.78-311.6 21.21-52.1 177.84-142 381.18-209 175.6-57.9 388.33-64.1 545.68-62.7 28.6.3 34.18-43.6 6.49-50.9-123.22-32.7-299.43-79.5-484.15-72.2-488.02 19.3-690.94 165.7-786.02 235.6-118.25 86.9-87.96 285.4 38.82 375.5 83.02 59 325.09 112.7 482.32 142.7M5335.97 26647.3c-8.57 7.2-1.62 21 9.23 18.4 114.38-28 405.43-122.1 281.65-334.8-49.23-84.5-252.41-140.1-348.12-162-11.14-2.6-17.84 11.9-8.71 18.7 59.85 44.9 166.12 135.5 194.33 230.8 23.21 78.5-37.5 153-128.38 228.9" style="fill:#fff;fill-opacity:1;fill-rule:nonzero;stroke:none" transform="matrix(.02313 0 0 -.02313 7.185 789.28)"/></g></svg>