<svg xmlns="http://www.w3.org/2000/svg" width="200mm" height="200mm" viewBox="0 0 200 200"><g style="display:inline"><path d="M17171.6 16664.9c0-78.9-60.9-152.3-176-217.4-81.9-46.4-189.5-86.2-316.4-121.6-102.8-28.7-216.9-57-342.8-76.5-111-17.3-229.5-33.8-354.1-42.6-115-8.1-235.4-11.5-358.7-11.5-123.2 0-242.4 12.8-357.4 20.9-124.6 8.9-245 13.9-356 31.2-125.8 19.5-244.1 40.4-347 69.1-126.9 35.4-227.7 86.5-309.6 132.9-115.1 65.1-152.2 126.6-152.2 205.5 0 78.8 38.3 159.1 153.4 224.2 81.9 46.4 183 95.9 309.9 131.3 102.8 28.7 218.9 55.3 344.7 74.8 111 17.3 231.3 26.1 355.9 34.9 115 8.1 235.1 12.8 358.3 12.8 123.3 0 243.1-6.6 358-14.7 124.7-8.9 242.1-26.7 353.1-43.9 125.9-19.6 240.9-43.4 343.7-72.1 126.9-35.4 233.3-75.7 315.2-122 115.1-65.1 178-136.5 178-215.3" style="fill:#fff;fill-opacity:1;fill-rule:nonzero;stroke:none" transform="matrix(.01915 0 0 -.01915 -198.766 492.437)"/><path d="M15623.6 17106.4c-117.4 0-237.3-4.3-356.4-12.7-112.8-8-240.7-17.1-353.7-34.6-113.1-17.6-228.1-42.6-341.7-74.3-134.9-37.6-238-91.5-303.9-128.7-94.2-53.3-140-119.1-140-201.2 0-62.4 23.6-117.3 138.7-182.5 74.2-41.9 175.7-94.7 303.8-130.4 107.5-30 234.1-51.4 343.9-68.5 86-13.3 177.4-19.2 274.2-25.5 26.3-1.7 52.8-3.4 79.6-5.3 28.4-2.1 57-4.3 85.9-6.7 87.4-6.9 177.8-14.2 269.6-14.2 131.8 0 248.6 3.8 356.8 11.4 128.5 9.1 250 26.5 352 42.4 105.5 16.3 210.3 39.8 339.7 75.8 132.7 37.1 234.3 76 310.5 119.1 107.8 61 162.5 126.4 162.5 194.4 0 65.8-55.4 130.4-164.6 192.2-77 43.6-181 83.8-309.2 119.6-99.3 27.7-213.9 51.7-340.6 71.4-99.3 15.4-222.7 34.6-350.9 43.6-96.3 6.9-223.8 14.7-356.2 14.7m0-937.6c-93.9 0-185.4 7.3-273.9 14.4-28.7 2.3-57.1 4.6-85.4 6.6-26.6 1.9-53.1 3.6-79.3 5.3-97.9 6.4-190.5 12.4-278.8 26.1-111.3 17.3-239.9 39-350.1 69.8-133.5 37.2-238.8 91.9-315.6 135.3-116.1 65.7-165.6 134-165.6 228.6 0 101.4 56.2 184.7 166.9 247.3 68.3 38.6 175.3 94.5 315.8 133.7 115.6 32.2 232.6 57.7 347.8 75.5 115.2 17.9 244.2 27.1 358 35.1 120.4 8.6 241.6 12.9 360.2 12.9 134.1 0 262.8-7.9 359.9-14.8 130.4-9.2 255.1-28.6 355.3-44.2 128.8-20 245.5-44.4 346.7-72.7 134.2-37.4 239.3-78.1 321.1-124.4 127.1-71.9 191.5-152.1 191.5-238.4 0-88.5-63.7-169.4-189.4-240.5-80-45.3-185.5-85.8-322.4-124-131.4-36.7-238.1-60.5-345.8-77.2-103-16-226-33.6-356.3-42.8-109.6-7.8-227.5-11.6-360.6-11.6" style="fill:#211d1d;fill-opacity:1;fill-rule:nonzero;stroke:none" transform="matrix(.01915 0 0 -.01915 -198.766 492.437)"/><path d="M14027.7 18439.2c0-.1.3-3.3.6-9.2 26.3-365.5 53.1-750.6 70.4-1087.3 29.2-576.4 8.5-966.6 1.4-1072.5l-.1-1.8c-.4-2.9-.8-5.8-.7-7.3l.2-3.8-.8-3.6v-3.2c0-76.1 56.9-151.6 169.2-224.3 74.1-47.9 175.6-108.2 303.5-149 107.6-34.3 234-58.8 343.4-78.1 86.4-15.4 178-22.1 275-29.2 26-2 52.2-3.9 78.5-6 27.4-2.3 55-4.8 82.8-7.4 88.4-8.1 179.7-16.5 272.6-16.5 131.8 0 248.4 4.2 356.5 12.9 131 10.8 256.6 31.5 351.5 48.4 137.5 24.6 259.6 61.2 339.6 86.7 132.1 42.2 233.5 86.7 310 136.2 108.7 70.2 163.8 146.3 163.8 226.3l40.8 2109.1 24 434.9c0 4.4.3 8.7.6 13.1l1 18.9c.1 1 .1 2 .2 3.1l.3 5.1.8 14.8c.1 1.6.1 3.1.2 4.5l.3 4.3c.1 1 .1 1.9.1 2.8.1 1.7.2 3.3.4 4.8l40.6 738.1h-7.3l9.6 33.7c4.9 17.3 7.4 34.7 7.4 51.6 0 54.7-66.2 154.4-91 172.3-150.1 108.5-347.2 197.8-554.8 251.5-283.8 73.3-647.2 120.5-670 123.4-209 8.3-409 3.2-411 3.1-122.2 0-185-5.1-289.1-13.5l-31.5-2.5c-122.8-9.9-261.9-21-385.2-42.7-123.1-21.6-248.3-52.3-372-91.3-147-46.4-259.4-112.8-331.2-158.7-125.5-80.4-186.6-159.4-186.6-241.6 0-6.6.6-13.7 1.7-22.2l.8-6-1.9-5.8c-.4-1.4-.6-2.6-.5-3.9 19.6-299 42.6-615.6 64.8-921.7 7.1-97.4 14.2-194.4 21.1-290.5m1596-2752.2c-95.3 0-187.9 8.5-277.4 16.7-27.7 2.6-55.1 5.1-82.3 7.4-26.2 2.1-52.3 4-78.1 5.9-98.4 7.2-191.3 14.1-280.3 29.9-111.2 19.7-239.8 44.6-350.3 79.8-133.8 42.7-239.3 105.3-316.2 155-128.3 83.2-193.4 173.6-193.4 268.8 0 3 0 6.5.5 10.4 0 5.2.6 9.9 1.1 13.8 7.1 106.5 27.5 493.5-1.5 1065.3-17.3 336.2-44 721-70.4 1086.7-.2 4.9-.4 7.2-.5 7.6-7 97.1-14.1 194.1-21.1 291.5-22.3 306.3-45.3 623-64.9 922.2-.4 5.8 0 11.6 1.3 17.4-1 8.7-1.5 16.4-1.5 23.9 0 101.7 69.1 195.4 211.1 286.2 74.3 47.6 190.8 116.3 343.8 164.6 125.8 39.7 253.3 71 378.8 93.1 125.7 22 266.1 33.3 390 43.2l31.5 2.5c105.5 8.6 169.1 13.7 292.7 13.7 1.3 0 203.7 5.3 415-3.2l2.2-.2c3.8-.4 382.9-48.6 677.7-124.8 213.9-55.3 417.3-147.5 572.7-259.8 33.7-24.4 112.9-138.1 112.9-215.3 0-20.6-2.8-41.5-8.3-62.2l-42.3-766.9-.1-2c-.1-1.2-.2-2.6-.3-4 0-1.2-.1-2.4-.2-3.6l-.1-2v-1.4l-1-17.4c-.1-.9-.1-1.9-.2-2.9-.1-1.6-.2-3.2-.3-4.9l-.9-17.7c-.3-3.9-.5-7.3-.5-10.7l-.1-1.6-2.1-34.2-21.8-400.1-40.8-2107.7c0-98.6-63.3-189.7-188-270.3-80.5-52-186.1-98.6-322.7-142.2-81.4-25.9-205.8-63.3-346.4-88.4-96-17.1-223.2-38.1-356.5-49-109.6-8.9-227.6-13.1-360.8-13.1" style="fill:#211d1d;fill-opacity:1;fill-rule:nonzero;stroke:none" transform="matrix(.01915 0 0 -.01915 -198.766 492.437)"/><path d="M14027.7 18439.2c0-.1.3-3.3.6-9.2 25.1-347.8 53.1-749.5 70.4-1087.3 29.2-576.5 8.5-966.6 1.4-1072.5l-.1-1.8c-.4-2.9-.8-5.8-.7-7.3l.2-3.8-.8-3.6v-3.2c0-76.1 56.9-151.6 169.2-224.3 74.1-47.9 175.6-108.2 303.5-149 107.6-34.3 234-58.8 343.4-78.1 86.3-15.4 177.9-22.1 274.8-29.2 26.1-2 52.3-3.9 78.7-6 27.5-2.3 55.1-4.8 83-7.4 88.3-8.1 179.6-16.5 272.4-16.5 131.8 0 248.4 4.2 356.5 12.9 131 10.8 256.6 31.5 351.5 48.4 137.5 24.6 259.6 61.2 339.6 86.7 132.1 42.2 233.5 86.7 310 136.2 108.7 70.2 163.8 146.3 163.8 226.3l40.8 2109.1 24 434.9c0 4.4.3 8.7.6 13.1l1 18.9c.1 1 .1 2 .2 3.1l.3 5.1.8 14.8c.1 1.6.1 3.1.2 4.5l.3 4.2c0 1 .1 2 .1 2.9.1 1.7.2 3.3.4 4.8l35.8 649.9c-33.4-40.8-78.9-79.8-136.3-116.6-87.1-55.7-201.9-105.6-351-152.7-143.1-45.1-259.3-74.4-376.6-95-112.2-19.8-246.1-41.4-388.2-52.8-119.3-9.6-247.8-14.2-392.7-14.2-102.4 0-202.1 9-298.4 17.7-31.3 2.8-62.3 5.6-93 8.1-29.1 2.3-57.9 4.4-86.5 6.5-106.6 7.9-207.4 15.3-303.7 32.2-121.2 21.2-261.3 48.1-381.3 86-145.4 45.8-260 113.1-343.5 166.6-64.2 41-113.8 83.8-148.5 127.9 17.6-262.3 37.5-535 56.7-799.8 7.1-97.4 14.2-194.4 21.1-290.5m1596-2752.2c-95.2 0-187.8 8.5-277.3 16.7-27.7 2.6-55.1 5.1-82.4 7.4-26.2 2.1-52.4 4-78.2 5.9-98.4 7.2-191.3 14.1-280.2 29.9-111.2 19.7-239.8 44.6-350.3 79.8-133.8 42.7-239.3 105.3-316.2 155-128.3 83.1-193.4 173.6-193.4 268.8 0 2.8 0 6.4.5 10.4 0 5.2.6 9.8 1.1 13.8 7.1 106.5 27.5 493.4-1.5 1065.3-17.4 337.3-45.3 738.6-70.4 1086.7-.2 4.9-.4 7.2-.5 7.6-7 97.1-14 194.1-21.1 291.5-22.3 306.3-45.3 623-64.9 922.2-.5 7.9.5 15.9 3.1 23.8l36.1 110.5 15.3-115.2c10-75 71.7-149.4 183.5-220.9 80.9-51.7 191.5-116.7 331-160.7 117-36.9 255-63.3 374.5-84.3 93.6-16.5 193.1-23.8 298.4-31.5 28.7-2.1 57.7-4.2 86.8-6.6 30.9-2.5 62.1-5.3 93.6-8.1 95.1-8.6 193.6-17.5 293.6-17.5 143.5 0 270.6 4.6 388.5 14 139.9 11.2 272.2 32.7 383.2 52.2 115 20.1 229.1 49 369.9 93.4 144.6 45.6 255.2 93.6 338.3 146.8 94.7 60.6 152.6 125.8 172 193.8l5.5 19.3 22.8-.2 25.3-2.5-43.8-794.1-.1-2c-.1-1.3-.2-2.6-.3-4 0-1.2-.1-2.4-.2-3.6l-.1-2v-1.4l-1-17.4c-.1-.9-.1-1.9-.2-2.9-.1-1.6-.2-3.2-.3-4.9l-.9-17.7c-.3-3.9-.5-7.3-.5-10.7l-.1-1.6-2.1-34.2-21.8-400.1-40.8-2107.7c0-98.6-63.3-189.7-188-270.3-80.5-52-186.1-98.6-322.7-142.2-81.4-25.9-205.8-63.3-346.4-88.4-96-17.1-223.2-38.1-356.5-49-109.6-8.9-227.6-13.1-360.8-13.1" style="fill:#211d1d;fill-opacity:1;fill-rule:nonzero;stroke:none" transform="matrix(.01915 0 0 -.01915 -198.766 492.437)"/><path d="M15623.7 15740h-10.4c-89.3.6-177.1 8.7-262.2 16.5-26.8 2.5-53.3 4.9-79.8 7.1l-3 .3c-1.7.1-3.5.3-5.3.4-24.6 2-49 3.8-73.2 5.6-97 7.1-188.6 13.8-275 29.2-109.4 19.3-235.8 43.8-343.4 78.1-127.9 40.8-229.4 101.1-303.5 149-75.2 48.8-125.6 98.7-150.7 149.3-12.3 24.9-18.5 49.9-18.5 75v3.2l.8 3.6-.2 3.8c-.1.1-.1.3-.1.4 0 1.6.4 4.3.8 6.9l.1 1.8c2.9 43.1 8 133.2 11.2 263.7 26.7-38.8 69-73.5 129.2-107.6 76.8-43.4 182.1-98.1 315.6-135.3 110.2-30.8 238.8-52.5 350.1-69.8 88.3-13.7 180.9-19.7 278.8-26.1 26.2-1.7 52.7-3.4 79.3-5.3 28.3-2 56.7-4.3 85.4-6.6 88.5-7.1 180-14.4 273.9-14.4 133.1 0 251 3.8 360.6 11.6 130.3 9.2 253.3 26.8 356.3 42.8 107.7 16.7 214.4 40.5 345.8 77.2 136.9 38.2 242.4 78.7 322.4 124 62.9 35.6 110.3 73.7 142 113.9l-5.6-287.8c0-67.8-39.6-132.8-117.9-193.8-14-10.9-29.4-21.8-45.9-32.5-76.5-49.5-177.9-94-310-136.2-80-25.5-202.1-62.1-339.6-86.7-94.9-16.9-220.5-37.6-351.5-48.4-108.1-8.7-224.7-12.9-356.5-12.9m1531.7 1042.5c-31.9 42.4-81.6 82.7-148.8 120.8-81.8 46.3-186.9 87-321.1 124.4-101.2 28.3-217.9 52.7-346.7 72.7-100.2 15.6-224.9 35-355.3 44.2-97.1 6.9-225.8 14.8-359.9 14.8-118.6 0-239.8-4.3-360.2-12.9-113.8-8-242.8-17.2-358-35.1-115.2-17.8-232.2-43.3-347.8-75.5-140.5-39.2-247.5-95.1-315.8-133.7-57.4-32.5-100.1-70.4-128-113.6-.4 156.4-4.4 342.7-15.1 554.1-17.3 336.7-44.1 721.8-70.4 1087.3-.3 5.9-.6 9.1-.6 9.2-6.9 96.1-14 193.1-21.1 290.5-19.2 264.8-39 537.5-56.7 799.8 34.7-44.1 84.3-86.9 148.5-127.9 83.5-53.5 198.1-120.8 343.5-166.6 120-37.9 260.1-64.8 381.3-86 96.3-16.9 197.1-24.3 303.7-32.2 28.6-2.1 57.4-4.2 86.5-6.5 30.7-2.5 61.7-5.3 93-8.1 96.3-8.7 196-17.7 298.4-17.7 144.9 0 273.4 4.6 392.7 14.2 142.1 11.4 276 33 388.2 52.8 117.3 20.6 233.5 49.9 376.6 95 149.1 47.1 263.9 97 351 152.7 57.4 36.8 102.9 75.7 136.3 116.6l-35.8-649.9c-.2-1.5-.3-3.1-.4-4.8v-.9c0-.5-.1-1-.1-1.5v-.4l-.3-4.3c-.1-1.3-.1-2.7-.2-4.2v-.3l-.8-14.8v-.4c-.2-1.5-.2-3.1-.3-4.7-.1-1.1-.1-2.1-.2-3.1l-1-18.9c-.3-4.1-.6-8.2-.6-12.3v-.8l-24-434.9z" style="fill:#f5fcfb;fill-opacity:1;fill-rule:nonzero;stroke:none" transform="matrix(.01915 0 0 -.01915 -198.766 492.437)"/><path d="M15623.6 16221.8c-91.8 0-182.2 7.3-269.6 14.2-28.9 2.4-57.5 4.6-85.9 6.7-26.8 1.9-53.3 3.6-79.6 5.3-96.8 6.3-188.2 12.2-274.2 25.5-109.8 17.1-236.4 38.5-343.9 68.5-128.1 35.7-229.6 88.5-303.8 130.4-115.1 65.2-138.7 120.1-138.7 182.5 0 82.1 45.8 147.9 140 201.2 65.9 37.2 169 91.1 303.9 128.7 113.6 31.7 228.6 56.7 341.7 74.3 113 17.5 240.9 26.6 353.7 34.6 119.1 8.4 239 12.7 356.4 12.7 132.4 0 259.9-7.8 356.2-14.7 128.2-9 251.6-28.2 350.9-43.6 126.7-19.7 241.3-43.7 340.6-71.4 128.2-35.8 232.2-76 309.2-119.6 109.2-61.8 164.6-126.4 164.6-192.2 0-68-54.7-133.4-162.5-194.4-76.2-43.1-177.8-82-310.5-119.1-129.4-36-234.2-59.5-339.7-75.8-102-15.9-223.5-33.3-352-42.4-108.2-7.6-225-11.4-356.8-11.4" style="fill:#f5fcfb;fill-opacity:1;fill-rule:nonzero;stroke:none" transform="matrix(.01915 0 0 -.01915 -198.766 492.437)"/><path d="M15623.6 16168.8c-93.9 0-185.4 7.3-273.9 14.4-28.7 2.3-57.1 4.6-85.4 6.6-26.6 1.9-53.1 3.6-79.3 5.3-97.9 6.4-190.5 12.4-278.8 26.1-111.3 17.3-239.9 39-350.1 69.8-133.5 37.2-238.8 91.9-315.6 135.3-60.2 34.1-102.5 68.8-129.2 107.6 1.5 65.6 2.6 141.5 2.6 226.8 0 9.2 0 18.5-.1 27.9 27.9 43.2 70.6 81.1 128 113.6 68.3 38.6 175.3 94.5 315.8 133.7 115.6 32.2 232.6 57.7 347.8 75.5 115.2 17.9 244.2 27.1 358 35.1 120.4 8.6 241.6 12.9 360.2 12.9 134.1 0 262.8-7.9 359.9-14.8 130.4-9.2 255.1-28.6 355.3-44.2 128.8-20 245.5-44.4 346.7-72.7 134.2-37.4 239.3-78.1 321.1-124.4 67.2-38.1 116.9-78.4 148.8-120.8l-4.7-244.2c-31.7-40.2-79.1-78.3-142-113.9-80-45.3-185.5-85.8-322.4-124-131.4-36.7-238.1-60.5-345.8-77.2-103-16-226-33.6-356.3-42.8-109.6-7.8-227.5-11.6-360.6-11.6m0 937.6c-117.4 0-237.3-4.3-356.4-12.7-112.8-8-240.7-17.1-353.7-34.6-113.1-17.6-228.1-42.6-341.7-74.3-134.9-37.6-238-91.5-303.9-128.7-94.2-53.3-140-119.1-140-201.2 0-62.4 23.6-117.3 138.7-182.5 74.2-41.9 175.7-94.7 303.8-130.4 107.5-30 234.1-51.4 343.9-68.5 86-13.3 177.4-19.2 274.2-25.5 26.3-1.7 52.8-3.4 79.6-5.3 28.4-2.1 57-4.3 85.9-6.7 87.4-6.9 177.8-14.2 269.6-14.2 131.8 0 248.6 3.8 356.8 11.4 128.5 9.1 250 26.5 352 42.4 105.5 16.3 210.3 39.8 339.7 75.8 132.7 37.1 234.3 76 310.5 119.1 107.8 61 162.5 126.4 162.5 194.4 0 65.8-55.4 130.4-164.6 192.2-77 43.6-181 83.8-309.2 119.6-99.3 27.7-213.9 51.7-340.6 71.4-99.3 15.4-222.7 34.6-350.9 43.6-96.3 6.9-223.8 14.7-356.2 14.7" style="fill:#b1b7b4;fill-opacity:1;fill-rule:nonzero;stroke:none" transform="matrix(.01915 0 0 -.01915 -198.766 492.437)"/><path d="M15613.3 15740c-89.2.6-177 8.7-262 16.5-26.9 2.5-53.5 4.9-80 7.1 26.5-2.2 53-4.6 79.8-7.1 85.1-7.8 172.9-15.9 262.2-16.5m-350.3 24.3c-24.6 2-49.1 3.8-73.4 5.6-96.9 7.1-188.5 13.8-274.8 29.2-109.4 19.3-235.8 43.8-343.4 78.1-127.9 40.8-229.4 101.1-303.5 149-75.2 48.8-125.6 98.7-150.7 149.3 25.1-50.6 75.5-100.5 150.7-149.3 74.1-47.9 175.6-108.2 303.5-149 107.6-34.3 234-58.8 343.4-78.1 86.4-15.4 178-22.1 275-29.2 24.2-1.8 48.6-3.6 73.2-5.6m-1164.3 488.6v.6zm15.2 507.8c0 162-3.8 357.9-15.2 582-17.3 337.8-45.3 739.5-70.4 1087.3-.3 5.9-.6 9.1-.6 9.2-6.9 96.1-14 193.1-21.1 290.5-19.2 264.8-39.1 537.5-56.7 799.8 17.7-262.3 37.5-535 56.7-799.8 7.1-97.4 14.2-194.4 21.1-290.5 0-.1.3-3.3.6-9.2 26.3-365.5 53.1-750.6 70.4-1087.3 10.7-211.4 14.7-397.7 15.1-554.1.1-9.4.1-18.7.1-27.9m3097.6 2065.8c.1 1 .1 2 .2 3.1.1 1.6.1 3.2.3 4.7-.2-1.5-.2-3.1-.3-4.7-.1-1.1-.1-2.1-.2-3.1m1.3 23.3c.1 1.5.1 2.9.2 4.2l.3 4.3v.4-.5l-.3-4.2c0-1.3-.1-2.7-.2-4.2m.6 10.4v.9c.1 1.7.2 3.3.4 4.8l35.8 649.9-35.8-649.9c-.2-1.5-.3-3.1-.4-4.8z" style="fill:#a3a7a5;fill-opacity:1;fill-rule:nonzero;stroke:none" transform="matrix(.01915 0 0 -.01915 -198.766 492.437)"/><path d="M14027.7 18439.2c0-.1.3-3.3.6-9.2 25.1-347.8 53.1-749.5 70.4-1087.3 29.2-576.5 8.5-966.6 1.4-1072.5l-.1-1.8c-.4-2.9-.8-5.8-.7-7.3l.2-3.8-.8-3.6v-3.2c0-76.1 56.9-151.6 169.2-224.3 74.1-47.9 175.6-108.2 303.5-149 107.6-34.3 234-58.8 343.4-78.1 86.3-15.4 177.9-22.1 274.8-29.2 26.1-2 52.3-3.9 78.7-6 27.5-2.3 55.1-4.8 83-7.4 88.3-8.1 179.6-16.5 272.4-16.5 131.8 0 248.4 4.2 356.5 12.9 131 10.8 256.6 31.5 351.5 48.4 137.5 24.6 259.6 61.2 339.6 86.7 132.1 42.2 233.5 86.7 310 136.2 108.7 70.2 163.8 146.3 163.8 226.3l40.8 2109.1 24 434.9c0 4.4.3 8.7.6 13.1l1 18.9c.1 1 .1 2 .2 3.1l.3 5.1.8 14.8c.1 1.6.1 3.1.2 4.5l.3 4.2c0 1 .1 2 .1 2.9.1 1.7.2 3.3.4 4.8l35.8 649.9c-33.4-40.8-78.9-79.8-136.3-116.6-87.1-55.7-201.9-105.6-351-152.7-143.1-45.1-259.3-74.4-376.6-95-112.2-19.8-246.1-41.4-388.2-52.8-119.3-9.6-247.8-14.2-392.7-14.2-102.4 0-202.1 9-298.4 17.7-31.3 2.8-62.3 5.6-93 8.1-29.1 2.3-57.9 4.4-86.5 6.5-106.6 7.9-207.4 15.3-303.7 32.2-121.2 21.2-261.3 48.1-381.3 86-145.4 45.8-260 113.1-343.5 166.6-64.2 41-113.8 83.8-148.5 127.9 17.6-262.3 37.5-535 56.7-799.8 7.1-97.4 14.2-194.4 21.1-290.5m1596-2752.2c-95.2 0-187.8 8.5-277.3 16.7-27.7 2.6-55.1 5.1-82.4 7.4-26.2 2.1-52.4 4-78.2 5.9-98.4 7.2-191.3 14.1-280.2 29.9-111.2 19.7-239.8 44.6-350.3 79.8-133.8 42.7-239.3 105.3-316.2 155-128.3 83.1-193.4 173.6-193.4 268.8 0 2.8 0 6.4.5 10.4 0 5.2.6 9.8 1.1 13.8 7.1 106.5 27.5 493.4-1.5 1065.3-17.4 337.3-45.3 738.6-70.4 1086.7-.2 4.9-.4 7.2-.5 7.6-7 97.1-14 194.1-21.1 291.5-22.3 306.3-45.3 623-64.9 922.2-.5 7.9.5 15.9 3.1 23.8l36.1 110.5 15.3-115.2c10-75 71.7-149.4 183.5-220.9 80.9-51.7 191.5-116.7 331-160.7 117-36.9 255-63.3 374.5-84.3 93.6-16.5 193.1-23.8 298.4-31.5 28.7-2.1 57.7-4.2 86.8-6.6 30.9-2.5 62.1-5.3 93.6-8.1 95.1-8.6 193.6-17.5 293.6-17.5 143.5 0 270.6 4.6 388.5 14 139.9 11.2 272.2 32.7 383.2 52.2 115 20.1 229.1 49 369.9 93.4 144.6 45.6 255.2 93.6 338.3 146.8 94.7 60.6 152.6 125.8 172 193.8l5.5 19.3 22.8-.2 25.3-2.5-43.8-794.1-.1-2c-.1-1.3-.2-2.6-.3-4 0-1.2-.1-2.4-.2-3.6l-.1-2v-1.4l-1-17.4c-.1-.9-.1-1.9-.2-2.9-.1-1.6-.2-3.2-.3-4.9l-.9-17.7c-.3-3.9-.5-7.3-.5-10.7l-.1-1.6-2.1-34.2-21.8-400.1-40.8-2107.7c0-98.6-63.3-189.7-188-270.3-80.5-52-186.1-98.6-322.7-142.2-81.4-25.9-205.8-63.3-346.4-88.4-96-17.1-223.2-38.1-356.5-49-109.6-8.9-227.6-13.1-360.8-13.1" style="fill:#211d1d;fill-opacity:1;fill-rule:nonzero;stroke:none" transform="matrix(.01915 0 0 -.01915 -198.766 492.437)"/><path d="M15604.8 19137.5c-100 0-198.5 8.9-293.6 17.5-31.5 2.8-62.7 5.6-93.6 8.1-29.1 2.4-58.1 4.5-86.8 6.6-105.3 7.7-204.8 15-298.4 31.5-119.5 21-257.5 47.4-374.5 84.3-139.5 44-250.1 109-331 160.7-111.3 71.3-173 145.2-183.4 219.9l-.1 1c-1.1 8.5-1.7 15.6-1.7 22.2 0 82.2 61.1 161.2 186.6 241.6 71.8 45.9 184.2 112.3 331.2 158.7 123.7 39 248.9 69.7 372 91.3 123.3 21.7 262.4 32.8 385.2 42.7l31.5 2.5c104.1 8.4 166.9 13.5 289.1 13.5 1.1 0 63 1.6 153.7 1.6 72.8 0 164.2-1 257.3-4.7 22.8-2.9 386.2-50.1 670-123.4 207.6-53.7 404.7-143 554.8-251.5 24.8-17.9 91-117.6 91-172.3 0-16.9-2.5-34.3-7.4-51.6-19.4-68-77.3-133.2-172-193.8-83.1-53.2-193.7-101.2-338.3-146.8-140.8-44.4-254.9-73.3-369.9-93.4-111-19.5-243.3-41-383.2-52.2-117.9-9.4-245-14-388.5-14" style="fill:#e5f6f4;fill-opacity:1;fill-rule:nonzero;stroke:none" transform="matrix(.01915 0 0 -.01915 -198.766 492.437)"/><path d="M17256.7 19637.7c4.9 17.3 7.4 34.7 7.4 51.6 0 54.7-66.2 154.4-91 172.3-150.1 108.5-347.2 197.8-554.8 251.5-283.8 73.3-647.2 120.5-670 123.4-93.1 3.7-184.5 4.7-257.3 4.7-90.7 0-152.6-1.6-153.7-1.6-122.2 0-185-5.1-289.1-13.5l-31.5-2.5c-122.8-9.9-261.9-21-385.2-42.7-123.1-21.6-248.3-52.3-372-91.3-147-46.4-259.4-112.8-331.2-158.7-125.5-80.4-186.6-159.4-186.6-241.6 0-6.6.6-13.7 1.7-22.2l.1-1c0 .3-.1.6-.1 1l-13 97.6c27.6 67.3 91.7 129.6 183.7 188.5 89.2 57.1 199.2 118 337.4 161.6 112 35.4 238.4 68.2 375.4 92.2 120.9 21.3 252 32.1 387.6 43 125.3 10 187.8 16.1 322.1 16.1 0 0 62.5 1.7 154.6 1.7 73.2 0 165.1-1.1 259.3-4.8 0 0 377.7-47.6 674.4-124.2 228.6-59.1 425.4-155.8 563.7-255.7 30.5-22 102-128.3 102-193.8 0-11-.8-21.9-2.5-32.8l-3.1.3-22.8.2z" style="fill:#606e6f;fill-opacity:1;fill-rule:nonzero;stroke:none" transform="matrix(.01915 0 0 -.01915 -198.766 492.437)"/><path d="M15604.8 19111c-134.3 0-264.1 15.7-389.3 25.7-135.7 10.9-266.8 17.1-387.7 38.4-137 24-265.9 49.8-377.9 85.1-138.2 43.6-248.1 106.6-337.2 163.7-125.4 80.2-197.5 168.3-197.5 265.4 0 25.8 5.2 50.9 15.2 75.4l13-97.6c10-75 71.7-149.4 183.5-220.9 80.9-51.7 191.5-116.7 331-160.7 117-36.9 255-63.3 374.5-84.3 93.6-16.5 193.1-23.8 298.4-31.5 28.7-2.1 57.7-4.2 86.8-6.6 30.9-2.5 62.1-5.3 93.6-8.1 95.1-8.6 193.6-17.5 293.6-17.5 143.5 0 270.6 4.6 388.5 14 139.9 11.2 272.2 32.7 383.2 52.2 115 20.1 229.1 49 369.9 93.4 144.6 45.6 255.2 93.6 338.3 146.8 94.7 60.6 152.6 125.8 172 193.8l5.5 19.3 22.8-.2 3.1-.3c-13.3-84.7-78-163.9-189.1-235-89.2-57-206.4-106.1-344.7-149.7-111.9-35.3-236.2-70.2-373.2-94.2-120.9-21.3-250-41.6-385.7-52.5-125.2-10-256.4-14.1-390.6-14.1" style="fill:#606e6f;fill-opacity:1;fill-rule:nonzero;stroke:none" transform="matrix(.01915 0 0 -.01915 -198.766 492.437)"/><path d="M15691.3 20241.2c-90.8 0-152.9-1.6-154-1.6-122.2 0-185.2-5.1-289.4-13.5l-31.2-2.5c-122.8-9.9-261.9-21-385.2-42.7-123.1-21.6-248.3-52.3-372-91.3-147-46.4-259.4-112.8-331.2-158.7-125.5-80.4-186.6-159.4-186.6-241.6 0-82.7 62.3-164.5 185.2-243.1 80.9-51.7 191.5-116.7 331-160.7 117-36.9 255-63.3 374.5-84.3 93.6-16.5 193.1-23.8 298.4-31.5 28.7-2.1 57.7-4.2 86.8-6.6 30.9-2.4 62.1-5.3 93.6-8.1 95.1-8.6 193.6-17.5 293.6-17.5 143.6 0 270.7 4.6 388.5 14 139.9 11.2 272.2 32.7 383.2 52.2 114.9 20.1 229 48.9 369.9 93.4 144.6 45.6 255.2 93.6 338.3 146.8 119.1 76.1 179.4 158.7 179.4 245.4 0 54.7-66.2 154.4-91 172.3-150.1 108.5-347.2 197.8-554.8 251.5-283.7 73.3-647.2 120.5-670 123.4-93 3.7-184.2 4.7-257 4.7m-86.5-1156.7c-102.4 0-202.1 9-298.4 17.7-31.3 2.8-62.3 5.6-93 8.1-29.1 2.3-57.9 4.4-86.5 6.5-106.7 7.9-207.4 15.3-303.7 32.2-121.2 21.3-261.3 48.1-381.3 85.9-145.4 45.9-259.9 113.2-343.5 166.7-139.1 89-209.7 185.8-209.7 287.7 0 101.7 69.1 195.4 211.1 286.2 74.3 47.6 190.8 116.4 343.8 164.6 125.9 39.7 253.3 71 378.8 93.1 125.7 22 266.1 33.3 390 43.2l31.3 2.5c105.5 8.5 169.2 13.7 292.9 13.7 1.3 0 203.7 5.3 415-3.2l2.2-.2c3.8-.4 382.9-48.6 677.7-124.8 213.9-55.3 417.3-147.5 572.7-259.8 33.7-24.4 112.9-138.1 112.9-215.3 0-105.9-68.6-203.5-203.8-290.1-87.1-55.7-201.9-105.6-351-152.6-143.2-45.2-259.3-74.6-376.7-95.1-112.1-19.7-246-41.4-388.1-52.8-119.2-9.6-247.7-14.2-392.7-14.2" style="fill:#211d1d;fill-opacity:1;fill-rule:nonzero;stroke:none" transform="matrix(.01915 0 0 -.01915 -198.766 492.437)"/><path d="M14245.4 19162.1c-67.6-107.8-163.4-207.3-255.6-306.2-5.6-5.9-3.6-111.4 3.7-107.5 152 82.5 248.7 335 266.7 407.9 2.2 8.6-10.1 13.4-14.8 5.8" style="fill:#bae7e0;fill-opacity:1;fill-rule:nonzero;stroke:none" transform="matrix(.01915 0 0 -.01915 -198.766 492.437)"/><path d="M14007.2 18846c-1.6-11.9-1.4-43.7 0-66.2 96.4 66.6 170.1 207.3 208.3 304.4-56.5-75.9-124.1-148.2-189.9-218.6zm-14-117.2c-6.2-.1-12.3 2.8-16.4 8.1-10.7 13.8-14.6 118.2-1.4 132.4l21.6 23c83.8 89.7 170.5 182.4 231.8 280.2 7.2 11.6 21.8 16.1 34.5 10.7 12.4-5.3 19.1-18.6 15.9-31.6-15.3-61.9-112.8-331.6-276.3-420.4-3.1-1.6-6.4-2.4-9.7-2.4" style="fill:#211d1d;fill-opacity:1;fill-rule:nonzero;stroke:none" transform="matrix(.01915 0 0 -.01915 -198.766 492.437)"/><path d="M16190.9 16903.6c264.4 293 437.7 615.8 550.7 924.2l2.2.7c130.5-76.7 276.1-135.4 436.9-164.9 1.7-.4 2.6 1.8 1.2 2.7-139.2 89.2-270.8 186.1-395.3 290.2l-.5 1.6c192.1 604.2 162.5 1126.6 155.3 1219-.1 1.8-2.8 1.8-3 0-45.1-363.1-143.9-725.3-301.3-1086.3-.4-1-1.7-1.3-2.5-.5-264.8 246-669.3 795-724.9 871.1-2.7 3.6-8.6 2-8.8-2.4-5.5-100.6 217.1-656.9 669.2-1011.8l.5-1.8c-143.9-299.6-328.8-598.4-557.3-896.1l-2.3-.2c-365.9 312.2-684.5 662.8-955 1052.4l-.1 1.6c245.4 419.6 340.1 811.6 333.6 853.2h-.2c-134.5-244.1-260-495-419.5-722.8-.6-.9-2-.9-2.6 0-172.4 264.4-323.7 545.9-453.4 844.9-1 2.3-4.4 1.4-4.1-1 12.8-86.1 86.2-521.3 331.9-1017.7l-.1-1.6c-145.2-278.3-362.1-494.1-650.9-679.8-.9-.6-2.1-.5-2.5.5-40.1 92.8-71.2 168-105.9 263.4-.6 1.6-3.1 1.2-3.1-.4.3-72.3 57.5-562.5 57.7-563.4 79.8-276.1 266.4-438.7 701.6-792.4 2.9-2.3 7.1 1.6 4.5 4.2-291.4 286.6-590 780.2-615.2 938.2 152.1 32.5 553.2 411.5 695.6 671.5.6.9 2.1.8 2.6-.2 204.1-364.1 503.4-744.1 939.7-1032.8l.3-2.1c-169.5-204.2-359.9-407.9-572.1-611-3.4-3.3.6-8.6 4.9-6.6 300.4 143.1 546.5 317.2 748 508.5l1.9.3c221.8-122.8 474.8-222.5 763.4-287.9 1.7-.4 2.7 1.8 1.2 2.7-219.7 133.6-427.1 277.1-622.1 430.7z" style="fill:#c7ece6;fill-opacity:1;fill-rule:nonzero;stroke:none" transform="matrix(.01915 0 0 -.01915 -198.766 492.437)"/><path d="m14953.8 18244.8-.1-.2zm29.7-.5.1-.1zm1815.5-272.6.2-.2zm-246.1-17.8v-.1zm181-142.3.2-.1zm-530.8-894.7.1-.1zm-352.3-39.6-.1-.1zm209.5-135.7-.2-.1zm-1135.8 1178.5c7.7 0 14.8-4.1 18.5-10.8 241.3-430.7 555.3-775.9 933.4-1026.1 5-3.3 8.3-8.6 9.2-14.5s-.9-11.9-4.7-16.5c-151.1-182-319.8-364.5-502.4-543.6 245.2 126.4 465.1 281.3 654.8 461.3 6.6 6.4 16.6 7.7 24.7 3.2 199.8-110.6 417.2-197.4 647.7-258.7-184.2 116.5-361 241.2-526.7 371.7-4.6 3.5-7.5 8.9-8 14.7s1.4 11.6 5.3 15.9c235.4 260.8 419.3 569.5 546.9 917.8 2.2 5.9 6.8 10.5 12.8 12.6 5.9 2.1 12.4 1.5 17.9-1.8 107.4-63.1 219.6-110.4 334.8-141-108.5 73.5-214 153-314.7 237.2-6.5 5.4-9.2 14.3-6.6 22.5 131.7 414.2 158.8 788.8 160.4 1012.5-54-301.8-145.4-601.5-272.7-893.6-2.7-6.2-8.4-10.8-15.1-12.2s-13.7.5-18.7 5.2c-232.8 216.2-575.6 669.2-691.6 825.4 45-171.2 254.7-626.4 652.5-938.7 7.9-6.2 10.3-16.8 6-25.7-145.4-302.8-333.6-605.4-559.4-899.5-3.5-4.6-8.8-7.6-14.6-8.2-5.7-.6-11.5 1.2-15.9 4.9-366.6 312.9-689 668.2-958.4 1056.3-4.6 6.7-5 15.5-.9 22.5 177 302.7 270.5 578.6 309.2 727.2-9.2-17-18.4-34-27.4-50.8-102.8-190.3-209-387.1-334.9-567-4-5.8-10.4-9.1-17.7-9.1-7.1.2-13.6 3.8-17.4 9.7-147 225.4-279.7 465.4-395.4 715.1 39.2-184.4 126.4-511.4 303.8-869.7 3-6.1 2.8-13.1-.4-19.2-141.4-271.3-350.4-489.7-657.6-687.3-5.4-3.5-11.9-4.4-18-2.5-5.9 1.8-10.7 6.1-13.1 11.8-22.3 51.6-42.2 98.5-61.8 147.6 15.5-160.1 44.8-412.5 47.8-436.3 67.3-231.5 215.7-384.8 519.4-637.5-231.2 278.3-444.7 639.8-467.2 780.4l-2.9 18.4 18.2 3.9c139.8 29.8 537.2 396.4 682.6 661.7 3.6 6.6 10.6 10.8 18.2 10.8zm372.3-1692.9c-7.7 0-15 3.7-19.6 10.3-6.6 9.6-5.3 22.4 3.1 30.4 203.7 195 391.2 394.7 557.6 593.9-367.7 247.3-674.8 583.7-913.4 1000.7-147.9-247.4-506.8-592.4-674-648 40.8-166.9 319.6-628.5 606.1-910.4 8.4-8.3 8.9-21.7.9-30.6-8.1-9.2-21.9-10.3-31.4-2.7-431.6 350.8-625.9 517.8-708.1 802.2-.5 2-58.2 494.6-58.4 568.7-.1 10.2 7.2 19 17.3 20.7 10.2 1.9 20.1-3.8 23.7-13.5 32.9-90.5 62.1-161.6 97-242.8 288.7 188.8 487 397 622.4 653.2-244.2 496.5-317.4 932.5-329.6 1015.3-1.6 10.8 4.8 20.8 15.4 23.9 10.5 3 21.6-2.3 26-12.3 124.5-287 271.5-562.6 437.2-819.5 118.1 172.1 219.3 359.6 317.3 541.2 28 51.8 56.9 105.4 85.8 157.8l6.7 12.2 27.6-4.6 2.4-13.8c8.6-55.1-98.2-455.9-330.1-856.3 262.5-376.4 575.5-721.8 930.6-1026.9 215.8 283 396.4 573.7 537.3 864.5-438.4 350.5-671.5 905.3-665.2 1019.3.5 10.1 7.5 18.9 17.3 21.8 9.9 3 20.7-.6 26.8-9 44.9-61.5 438.5-596.5 703.9-850.8 147.9 345.2 245.3 700.8 289.6 1057.4 1.3 10.8 10.6 18.9 21.4 18.5 10.8-.2 19.7-8.6 20.5-19.4 7.7-97.9 36-614.3-152.5-1214.8 122.3-101.5 251.4-196 384-281 8.4-5.4 11.9-16.1 8.3-25.4-3.7-9.4-13.5-15-23.5-13.1-146.4 26.9-289.2 79.6-424.7 156.6-126.6-338.4-306.2-639.6-534.1-896 189.2-147.9 392.6-288.3 605-417.4 8.9-5.5 12.5-16.3 8.6-25.9-4-9.6-14.2-15-24.3-12.6-270.9 61.4-525.5 156.8-757.1 283.5-213.1-200.3-463.2-369.5-743.5-503-3.3-1.5-6.8-2.3-10.3-2.3" style="fill:#211d1d;fill-opacity:1;fill-rule:nonzero;stroke:none" transform="matrix(.01915 0 0 -.01915 -198.766 492.437)"/><path d="M16397.7 16292.4c365.3 46 651.2 291.3 697.9 601.1 84.6 560.3 117.8 1500 138.7 1865.9l-21.9-400.3-40.8-2108.6c0-90.3-60.9-174.3-175.9-248.5-81.9-53-189.6-98.8-316.4-139.3-102.9-32.7-217-65-343-87.5-110.9-19.7-229.4-38.5-353.9-48.7-115.1-9.3-235.4-13-358.7-13s-242.5 14.5-357.5 24c-124.5 10-244.8 15.7-356 35.5-125.7 22.2-244.2 46.2-346.8 79-127.2 40.5-228 99-309.9 152-115 74.5-181.3 156.2-181.3 246.5 0 3 0 6 .6 8.7-.3 4.3.3 8.6.9 12.8 6.2 93.3 28.1 486.3-1.5 1069.3-16.5 322.8-42.3 697.3-70.3 1087.3 9-98.1 105.2-996.7 183.4-1543 42.5-296.1 302.2-537 647.3-598.4 78.4-14 160.1-26.3 241.7-36.7 230.1-29.3 460.1-43.5 618.9-37 105.2 4.3 231.8 17.5 364.3 37 128.5 18.7 238.9 29.2 340.2 41.9" style="fill:#f0faf9;fill-opacity:1;fill-rule:nonzero;stroke:none" transform="matrix(.01915 0 0 -.01915 -198.766 492.437)"/><path d="M14098.9 17338c28.9-573.9 8.3-962.2 1.2-1067.8l-.1-1.9c-.4-2.8-.8-5.7-.7-7.2l.2-3.8-.8-3.6v-3.2c0-76.1 56.9-151.6 169.2-224.3 74.1-47.9 175.6-108.2 303.5-149 107.6-34.3 234-58.8 343.4-78.1 86.3-15.4 177.9-22.1 274.9-29.2 26-2 52.2-3.9 78.6-6 27.4-2.3 54.9-4.8 82.7-7.4 88.4-8.1 179.8-16.5 272.7-16.5 131.8 0 248.5 4.2 356.5 12.9 131 10.8 256.6 31.5 351.5 48.4 137.5 24.6 259.6 61.2 339.6 86.7 132.1 42.2 233.5 86.7 310 136.2 108.7 70.2 163.8 146.3 163.8 226.3l19.1 988.8c-12.5-126-26.6-244.8-42.4-349.8-48.2-319.7-344.7-576.1-720.8-623.4-35.5-4.4-72-8.6-110-13-72-8.2-146.4-16.7-229.7-28.8-137.3-20.2-264.2-33.1-367-37.3-156.8-6.4-389.8 7.5-623.3 37.2-84 10.7-165.8 23.1-243.1 36.9-355.9 63.3-624.7 312.8-668.8 620.7-19.5 135.9-40.1 294-60.2 456.2m1524.8-1651c-95.4 0-188 8.5-277.6 16.8-27.6 2.5-54.9 5-82.1 7.3-26.2 2.1-52.3 4-78.2 5.9-98.4 7.2-191.3 14.1-280.2 29.9-111.2 19.7-239.7 44.5-350.3 79.8-133.8 42.7-239.3 105.3-316.2 155-128.3 83.2-193.4 173.6-193.4 268.8 0 3 0 6.5.5 10.4 0 5.2.6 9.8 1.1 13.8 7.1 106.5 27.5 493.5-1.5 1065.3-17.3 337.4-45.3 738.6-70.4 1086.7l52.8 4.3c7.9-85.2 104.9-993.7 183.4-1541.7 40.9-285.2 292.3-516.7 625.6-576 76.4-13.6 157.3-25.9 240.5-36.5 230.8-29.4 460.4-43.1 614.4-36.8 101 4.1 226 16.8 361.5 36.7 84.1 12.2 159 20.8 231.4 29.1 37.8 4.3 74.1 8.5 109.4 12.9 352.7 44.4 630.3 282.4 675 578.7 59.1 391.6 93.6 979.4 115.5 1410.6l1 51.6 18.6 339.4c1.1 22.1 2.3 42.8 3.3 61.9l53-3-3.3-60.5c-3-56.2-6.2-121.8-9.8-194.5-3-60.5-6.2-126.8-9.8-197.3l-39.8-2055.6c0-98.6-63.3-189.7-188-270.3-80.5-52-186.1-98.6-322.7-142.2-81.4-25.9-205.8-63.3-346.4-88.4-96-17.1-223.2-38.1-356.5-49-109.5-8.8-227.5-13.1-360.8-13.1" style="fill:#211d1d;fill-opacity:1;fill-rule:nonzero;stroke:none" transform="matrix(.01915 0 0 -.01915 -198.766 492.437)"/></g></svg>