<svg xmlns="http://www.w3.org/2000/svg" width="200mm" height="200mm" viewBox="0 0 200 200"><g style="display:inline"><path d="M23228.3 14754.5c0-103.2-58.9-199.4-170.3-284.7-79.3-60.6-183.5-112.8-306.4-159.2-99.5-37.5-210-74.6-331.8-100.2-107.5-22.6-222.3-44.2-342.9-55.8-111.3-10.6-227.9-15-347.2-15-119.4 0-234.8 16.7-346.1 27.4-120.6 11.5-237.1 18.2-344.6 40.8-121.8 25.5-236.4 52.9-336 90.5-122.8 46.4-220.5 113.4-299.8 174-111.4 85.3-175.5 179-175.5 282.2 0 103.3 65.3 195.4 176.8 280.7 79.3 60.7 177.1 125.5 300 171.9 99.5 37.5 211.9 72.4 333.7 98 107.5 22.6 223.9 34.1 344.6 45.7 111.3 10.6 227.5 16.7 346.9 16.7 119.3 0 235.3-8.6 346.6-19.3 120.6-11.5 234.8-32.7 341.8-57.5 232.5-53.8 88.7-17.7 332.7-94.3 125.3-39.4 225.9-99.1 305.2-159.8 111.4-85.3 172.3-178.8 172.3-282.1" style="fill:#ebf8f6;fill-opacity:1;fill-rule:nonzero;stroke:none" transform="matrix(.02153 0 0 -.02153 -367.481 497.195)"/><path d="M21729.7 15341c-113.4 0-229.3-5.6-344.4-16.6-109-10.5-232.5-22.3-341.6-45.2-109.3-23-220.3-55.6-329.9-96.9-130-49.1-229.6-119.5-293.2-168.2-111.9-85.6-166.4-170.5-166.4-259.6 0-89.4 55.6-177.3 165.1-261.1 71.7-54.8 169.7-123.7 293.1-170.3 103.6-39.1 226-67.1 332-89.4 83-17.4 171.3-25.2 264.8-33.4 25.4-2.2 51.1-4.4 77-6.9q41.1-4.05 83.1-8.7c84.5-9.1 171.8-18.6 260.4-18.6 127.4 0 240.1 4.9 344.7 14.9 124 11.9 241.4 34.7 339.9 55.4 101.9 21.3 203 51.9 328 99 128 48.4 226 99.2 299.6 155.5 106.1 81.2 159.9 169.9 159.9 263.6 0 91-54.5 178.8-162 261-91.5 70.1-191.4 122.4-296.9 155.6-82.6 25.9-121.3 39.1-144.4 47-35.7 12.2-35.7 12.2-112.9 29.9-19.2 4.4-43.1 9.9-73.5 16.9-121.5 28.1-232.2 46.8-338.4 56.9-93 9-216.2 19.2-344 19.2m0-1227.9c-91.5 0-180.3 9.6-266.1 18.9-27.8 3-55.3 6-82.5 8.6-25.7 2.5-51.3 4.7-76.6 6.9-95.1 8.4-184.9 16.2-271 34.3-108 22.7-232.8 51.3-339.8 91.7-129.9 49-232.1 120.8-306.6 177.8-123.3 94.4-185.9 196.4-185.9 303.2 0 106.7 61.2 205.4 187.2 301.7 66.2 50.8 170.1 124.1 306.7 175.7 112.2 42.3 225.7 75.7 337.7 99.2s237.1 35.5 347.4 46.1c116.8 11.1 234.4 16.8 349.5 16.8 130.1 0 254.9-10.3 349.1-19.4 108.5-10.4 221.4-29.4 345.3-58 30.3-7.1 54.2-12.5 73.4-17 78.3-17.9 79.8-18.3 118.1-31.3 22.9-7.8 61.2-20.9 143.2-46.6 111.4-35 216.8-90.2 313.3-164.1 121.3-92.8 182.8-194.8 182.8-303.1 0-111-60.9-213.9-180.8-305.7-77.7-59.5-180.1-112.8-313.1-163-127.6-48.1-231.2-79.4-335.8-101.3-99.9-21-219.1-44.1-345.8-56.3-106.2-10.1-220.6-15.1-349.7-15.1" style="fill:#211d1d;fill-opacity:1;fill-rule:nonzero;stroke:none" transform="matrix(.02153 0 0 -.02153 -367.481 497.195)"/><path d="m22074.1 18036 386.9 646.2-1341.6-212.9 229.8-425.9c178.6-190.3 223.3-2594.9 223.3-2594.9.1-22.2-.7-44.4-2.9-66.4-25.4-261.2-160.9-515.2-163.7-557-2.9-44 116.7-142.9 338.4-146.6 160.4-2.6 256.7 81.1 297.6 127.6 13 14.6 13.4 39.5 1.9 56-61.6 88.6-100.4 263.1-122 394-15 90.7-22.5 183-22.7 275.6 0 0-76.9 2173.9 175 2504.3" style="fill:#d3f0eb;fill-opacity:1;fill-rule:nonzero;stroke:none" transform="matrix(.02153 0 0 -.02153 -367.481 497.195)"/><path d="M21370.9 18059c31.5-34.3 117.7-156 183.4-1383 33.2-618.3 44.6-1221 44.7-1227 .2-24.4-.9-47.6-3-69.5-18.3-187.7-91-368.6-134.5-476.8-13.9-34.6-28.3-70.4-29.2-79.4.9-23 99.9-114.8 312.4-118.3h7c144 0 231 74 270.3 118.6 4.7 5.3 4.8 16.7.1 23.4-64.5 92.6-104.4 271.2-126.5 404.8-15 90.8-22.8 185-23 279.9-3.2 88.1-74.1 2181.1 179.5 2519.2l357 596.2-1248.6-198.1zm380.9-3407.1c-2.7 0-5.3.1-8 .1-173.8 2.9-290.1 63.3-336.9 114.1-19.2 20.9-28.7 41.9-27.5 60.8 1.1 15.9 10.9 40.8 32.9 95.6 42.4 105.5 113.4 282 130.9 462.2 2 20 2.9 41.5 2.8 63.6-17.9 962.2-90.2 2442.8-216.1 2577l-2.4 2.5-1.6 3-247.6 458.8 1434.7 227.6-417.8-697.2c-243.3-319.2-170.4-2465.7-169.6-2487.3.3-93 7.8-184.3 22.3-272.3 21.2-128.1 58.9-298.6 117.7-383.1 18.7-26.9 17.1-65.1-3.8-88.8-45.3-51.3-145.3-136.6-310-136.6" style="fill:#211d1d;fill-opacity:1;fill-rule:nonzero;stroke:none" transform="matrix(.02153 0 0 -.02153 -367.481 497.195)"/><path d="M19911.2 20363.9c-22.6.1-38.9-21.5-32.7-43.2 59.5-206.6 321.9-1097.5 534.1-1470.4 240.8-423.2 704.5-876.7 1359.3-880.5 635.3-3.7 1158.2 619.7 1351.1 1014.9 236.3 484 412.9 1369.5 412.9 1369.5z" style="fill:#ebf8f6;fill-opacity:1;fill-rule:nonzero;stroke:none" transform="matrix(.02153 0 0 -.02153 -367.481 497.195)"/><path d="M19911.1 20337.4c-3.2 0-5.1-1.8-5.9-2.9-1-1.3-2-3.5-1.2-6.4 51.5-179.1 319.1-1091.3 531.6-1464.7 115.1-202.2 551.6-862.6 1336.4-867.1h5.4c611.4 0 1125.2 597.3 1321.8 1000 207.1 424.1 370.1 1169.4 404.1 1331.5zm1866.3-2394.1h-5.7c-305.4 1.8-591.5 98.7-850.4 288.1-264.9 193.9-435.4 436.4-531.8 605.8-210 369.1-463.7 1223.2-536.4 1476.2-5.3 18.4-1.8 37.7 9.8 53 11.5 15.3 29.1 24 48.2 24h.2l3656.9-9.7-6.3-31.7c-1.8-8.8-180-894.5-415-1376-202.5-414.7-733.8-1029.7-1369.5-1029.7" style="fill:#211d1d;fill-opacity:1;fill-rule:nonzero;stroke:none" transform="matrix(.02153 0 0 -.02153 -367.481 497.195)"/><path d="M20258.5 20228.4s166.7-840 393.3-1260c254-470.6 586.7-626.6 746.7-700 0 0-306.7 560-386.7 973.4-53.2 274.9 60 680 60 680z" style="fill:#fff;fill-opacity:1;fill-rule:nonzero;stroke:none" transform="matrix(.02153 0 0 -.02153 -367.481 497.195)"/><path d="M23562.1 20433.3c0-1077.1-3713.5-1073.4-3689.3 0 24.6 1093.2 3689.3 1054.8 3689.3 0" style="fill:#d3f0eb;fill-opacity:1;fill-rule:nonzero;stroke:none" transform="matrix(.02153 0 0 -.02153 -367.481 497.195)"/><path d="M21700.4 21212.4c-463.7 0-895.4-67.1-1220.7-190.3-260.9-98.7-573.5-281.2-580.4-589.4-4.1-181.5 104.3-339.5 322.2-469.7 320.8-191.7 871.1-307.4 1472-309.6h17.3c594 0 1143.8 111.1 1473.5 298.1 233.1 132.3 351.3 294.4 351.3 481.8 0 291.2-296.8 470.6-545.7 569.9-324.5 129.4-763.1 203.6-1235.1 208.9-18.2.2-36.3.3-54.4.3m10.3-1612.1c-5.8 0-11.5 0-17.4.1-610 2.2-1170.4 120.7-1499 317-235.5 140.8-352.6 314.5-348.1 516.5 13.2 585.7 999 841.5 1909.2 831.2 882.9-9.9 1833.2-274.5 1833.2-831.8 0-207.9-127.2-385.5-378.1-527.9-337.3-191.4-897-305.1-1499.8-305.1" style="fill:#211d1d;fill-opacity:1;fill-rule:nonzero;stroke:none" transform="matrix(.02153 0 0 -.02153 -367.481 497.195)"/><path d="M21084 15057.5c26.1 4.8 39.7-30 17.1-44-111.6-69.5-250.7-182.3-203.5-291.7 20.9-48.4 176.9-131.3 379.7-192.5 175.2-52.9 387.8-57.4 545-55.2 28.6.4 33.9-40.4 6.2-47.4-123.3-31.2-299.7-75.9-484.3-70.2-487.7 15.1-689.6 150.3-784.2 214.9-117.7 80.3-86.2 265.5 41.1 350.2 83.3 55.5 325.6 107 482.9 135.9M22642.6 15010.6c-8.5 7.2-1.6 21.1 9.3 18.4 114.3-28 405.4-122.1 281.6-334.7-49.2-84.6-252.4-140.1-348.1-162.1-11.1-2.5-17.8 11.9-8.7 18.8 59.8 44.9 166.1 135.5 194.3 230.8 23.2 78.4-37.5 152.9-128.4 228.8" style="fill:#fff;fill-opacity:1;fill-rule:nonzero;stroke:none" transform="matrix(.02153 0 0 -.02153 -367.481 497.195)"/></g></svg>