<svg xmlns="http://www.w3.org/2000/svg" width="200mm" height="200mm" viewBox="0 0 200 200"><path d="M15416.6 14520.2c0-140.6-80.3-271.5-232-387.7-108-82.6-249.9-153.6-417.2-216.8-135.6-51.1-286-101.6-451.9-136.5-146.3-30.7-302.6-60.2-466.9-75.9-151.6-14.6-310.4-20.5-472.9-20.5s-319.7 22.8-471.2 37.3c-164.3 15.7-323 24.8-469.4 55.5-165.9 34.9-321.9 72.2-457.5 123.3-167.3 63.2-300.3 154.4-408.2 237-151.8 116.2-239 243.7-239 384.3 0 140.7 88.9 266.1 240.7 382.2 107.9 82.6 241.2 170.9 408.5 234.1 135.6 51.1 288.6 98.7 454.5 133.5 146.3 30.7 304.9 46.4 469.2 62.2 151.6 14.5 309.9 22.8 472.4 22.8s320.5-11.8 472-26.3c164.3-15.7 319.8-44.6 465.5-78.3 316.6-73.3 120.8-24.1 453.1-128.5 170.7-53.6 307.6-135 415.5-217.6 151.8-116.1 234.8-243.4 234.8-384.1" style="fill:#e9f8f5;fill-opacity:1;fill-rule:nonzero;stroke:none" transform="matrix(.01808 0 0 -.01808 -141.78 438.364)"/><path d="M13375.7 15316.8c-154.4 0-312.1-7.6-468.8-22.6-148.3-14.3-316.4-30.4-465-61.6s-299.6-75.6-448.8-131.9c-176.9-66.7-312.3-162.4-398.8-228.6-151.9-116.3-225.7-231.3-225.7-351.9 0-121.1 75.3-240.2 224-354 97.4-74.5 230.8-168.2 398.5-231.5 141-53.2 307.6-91.4 451.9-121.7 112.8-23.7 232.9-34.2 360.1-45.4 34.7-3 69.7-6.1 105-9.5 37.5-3.6 76-7.8 113.3-11.8 114.9-12.4 233.8-25.3 354.3-25.3 173.4 0 326.9 6.6 469.2 20.3 168.9 16.2 328.7 47.1 462.7 75.3 177.6 37.3 331.8 91.7 446.3 134.9 174.2 65.7 307.5 134.8 407.5 211.3 144 110.3 217 230.5 217 357.4 0 124.9-71.9 240.6-219.8 353.8-124.5 95.3-260.3 166.4-403.7 211.5-112.4 35.3-165.2 53.3-196.7 64-48.5 16.5-48.5 16.5-153.4 40.6-26.2 6-58.8 13.5-100.2 23.1-165.4 38.3-316 63.7-460.5 77.5-126.6 12.1-294.3 26.1-468.4 26.1m0-1672.2c-124.6 0-245.6 13.1-362.6 25.8-37 4-75.2 8.1-112.3 11.7-35 3.3-69.9 6.4-104.4 9.4-129.5 11.4-251.9 22.1-369.1 46.8-147.2 30.9-317.3 69.9-463.1 124.9-177.1 66.8-316.4 164.6-418 242.4-168.6 129-254 268.5-254 414.6 0 145.9 83.6 280.9 255.7 412.5 90.3 69.2 231.9 169.2 418.2 239.5 152.9 57.7 307.7 103.2 460.1 135.2 152.8 32 323.1 48.4 473.5 62.8 159 15.2 319.2 22.9 476 22.9 177.3 0 347.4-14.1 475.7-26.4 147.8-14.2 301.7-40 470.5-79.1 41.3-9.6 73.9-17.1 100-23.1 106.7-24.4 108.7-24.9 160.9-42.7 31.2-10.6 83.4-28.5 195-63.5 151.9-47.7 295.7-122.9 427.3-223.7 165.7-126.8 249.7-266.2 249.7-414.4 0-151.9-83.1-292.6-247-418-106-81.1-245.7-153.8-426.9-222.2-173.9-65.6-315-108.2-457.6-138.1-136-28.6-298.4-60.1-471.1-76.6-144.8-13.9-300.6-20.7-476.5-20.7" style="fill:#211d1d;fill-opacity:1;fill-rule:nonzero;stroke:none" transform="matrix(.01808 0 0 -.01808 -141.78 438.364)"/><path d="M14137.6 18716.4c-192.5-192.3-490.9-320.7-768.6-323.5-285.1-2.9-554.9 107.8-742.6 299.4l249.4-389.2c152.6-197.3 244.9-458.5 246.6-725.9l13.6-2237.2c.1-26.6-1.2-53.2-4.4-79.6-38.3-313.2-242.6-617.8-246.7-667.9-4.4-52.8 175.8-171.4 509.8-175.8 241.8-3.2 386.8 97.2 448.5 152.9 19.6 17.6 20.3 47.5 3 67.3-93 106.1-151.4 315.5-184 472.4-22.6 108.8-33.8 219.5-34.2 330.6l-7.7 2117.2c-1.7 278 81.2 553.5 262.3 780.3z" style="fill:#fff;fill-opacity:1;fill-rule:nonzero;stroke:none" transform="matrix(.01808 0 0 -.01808 -141.78 438.364)"/><path d="M12923.5 14591.1c14.6-29.9 160.9-132.2 471.7-136.2 226.4-3.4 361.8 88.3 422.4 143.1 4.2 3.7 3.2 9.9-.2 13.7-98.4 112.4-159 328.4-192.6 489.9-22.8 109.7-34.6 223.5-35 338.1l-7.7 2117.2c-1.9 301.6 91.4 579.2 269.7 803.1l119.4 177.5c-181-112.4-399.1-180.7-601.8-182.8-210.5-2.2-414.4 55.6-585.5 162.6l123.2-192.2c159.4-206.8 251.8-479.3 253.4-747.7l13.6-2237.2c.2-29.3-1.4-57.7-4.6-84.4-27.8-227.2-138-445.3-203.8-575.6-17.8-35.2-37.8-74.8-42.2-89.1m482.5-212.7c-3.9 0-7.8 0-11.8.1-267.1 3.5-453.7 79-520.3 152.3-19.7 21.8-28.9 43.6-27.1 64.9 1.8 21.4 16 50.1 50.7 118.9 63.6 125.9 170 336.5 196.2 550.4 2.9 23.5 4.2 48.7 4.1 74.8l-13.6 2237.1c-1.6 252.6-88.5 508.8-238.6 702.9l-1.9 2.7-449.5 701.2 259.5-264.7c182-185.8 442.4-291 714.9-287.9 263.6 2.7 554.8 125.3 742 312.4l58.7-48.4-256.9-381.6c-167.8-210.2-255.7-471.7-254-756.2l7.8-2117.3c.4-109.5 11.6-218.2 33.4-322.9 31.7-152.5 87.8-355.2 175.3-455.1 31.1-35.5 28.3-89.6-6.1-120.7-67.8-61.3-217.4-162.9-462.8-162.9" style="fill:#211d1d;fill-opacity:1;fill-rule:nonzero;stroke:none" transform="matrix(.01808 0 0 -.01808 -141.78 438.364)"/><path d="M16146.8 21146.9c1.5 15.5 2.5 31 2.5 46.6 0 191.1-112.8 364-319 521.8-146.7 112.3-337.2 209.9-564.5 295.6-184.2 69.5-390.2 127.3-615.6 174.6-198.8 41.8-409.2 85-632.4 106.4-111.1 10.7-224.8 20.1-340.6 26.6-70.1 4.2-141 6.9-212.7 8.2-4.4.1-8.8.1-13.2.2-23.4.4-46.8.6-70.4.6-1.4 0-2.9.1-4.4.1h-3c-20.8 0-41.4-.2-62-.4-198-2-391.2-12.8-576.8-30.6-223.2-21.4-438.7-42.7-637.5-84.5-225.4-47.3-433.2-111.9-617.4-181.4-227.3-85.8-408.4-205.7-555.1-318-206.1-157.8-327-328.1-327-519.2 0-25.2 2.2-50 6.3-74.6v-.5c9.3-824 567.5-1339.3 1371.6-1595.8l555.5-716c183.8-261.1 500.1-417.2 837.9-413.7 317.8 3.3 662.8 171 845 410.7l590.1 756.8c778.8 259.6 1366.2 681.3 1342.8 1585.2z" style="fill:#caede7;fill-opacity:1;fill-rule:nonzero;stroke:none" transform="matrix(.01808 0 0 -.01808 -141.78 438.364)"/><path d="M13373.5 22289.4c-20.6 0-41.1-.2-61.6-.4-190-1.9-382.9-12.1-573.6-30.4-201.9-19.4-430.7-41.3-633.2-83.8-202.6-42.6-408.4-103.1-611.8-179.8-242-91.3-427.2-222.1-545.4-312.6-209.9-160.7-312-320.6-312-488.9 0-22.3 1.9-45.3 5.7-68.4l.6-3.1v-3.1c10.6-938 737.3-1366.1 1345.1-1559.9l11.2-3.6 563.9-726.9c177.6-252.2 478.6-400.9 806.2-397.4 305.3 3.1 640.4 165.8 815 395.6l597.5 766.2 10.9 3.7c930.4 310.2 1336.4 787.6 1316.7 1548l-.1 3.5.2 2.4c1.5 16.6 2.3 30.2 2.3 43 0 171.8-102.3 337.1-304 491.5-138.3 105.8-324.9 203.5-554.8 290.2-177.8 67.1-383 125.3-609.9 172.9-177.7 37.4-398.9 83.8-628.3 105.8-125.7 12-236.6 20.7-339 26.5-69.9 4.1-140.9 6.9-211.3 8.1l-13.1.2c-23.2.4-46.5.6-69.8.6l-4.4.1h-3m-15.7-3934.8c-347.6 0-667.3 159.9-857.4 429.2l-547.7 706c-421.7 136.2-754.4 335.4-989.1 592.1-258.9 283.2-392.7 630.9-397.8 1033.7-4.2 26.2-6.3 52.4-6.3 77.9 0 193.7 111.9 373.4 342 549.6 122.1 93.3 313.4 228.5 564.8 323.3 207 78.2 416.7 139.8 623.1 183.1 206.6 43.4 437.8 65.6 641.7 85.1 192.7 18.5 387.9 28.8 580 30.7 20.7.3 41.5.4 62.4.4h7.6c23.6 0 47.2-.3 70.8-.6l13.3-.2c71.4-1.3 143.5-4.1 214.3-8.3 103.3-5.8 215.2-14.5 341.9-26.7 233.7-22.4 457.1-69.3 636.7-107 230.7-48.5 439.7-107.8 621.2-176.3 236.8-89.3 430-190.6 574.2-301 221.6-169.5 333.9-355.3 333.9-552.1 0-14.5-.7-29.7-2.4-47.7 11.2-435.7-113.5-782.6-381.1-1060.9-218.7-227.4-538.3-409.7-976.8-557.1l-583-747.7c-187.7-247-547.4-422-874.7-425.4-3.9 0-7.8-.1-11.6-.1" style="fill:#211d1d;fill-opacity:1;fill-rule:nonzero;stroke:none" transform="matrix(.01808 0 0 -.01808 -141.78 438.364)"/><path d="M13464.5 22326.7c71.7-1.3 142.6-4.2 212.7-8.2-70.1 4.2-141 6.9-212.7 8.2" style="fill:#fff;fill-opacity:1;fill-rule:nonzero;stroke:none" transform="matrix(.01808 0 0 -.01808 -141.78 438.364)"/><path d="M13675.1 22280.4c-75.2 4.2-144.3 6.9-211.1 8.1h-.2l1.4 76.4c71.4-1.3 143.5-4.1 214.3-8.3z" style="fill:#211d1d;fill-opacity:1;fill-rule:nonzero;stroke:none" transform="matrix(.01808 0 0 -.01808 -141.78 438.364)"/><path d="M13380.9 22327.5" style="fill:#fff;fill-opacity:1;fill-rule:nonzero;stroke:none" transform="matrix(.01808 0 0 -.01808 -141.78 438.364)"/><path d="M13450.8 22288.7c-23.3.4-46.5.6-69.9.6l.1 76.4q35.55 0 70.8-.6h.1z" style="fill:#211d1d;fill-opacity:1;fill-rule:nonzero;stroke:none" transform="matrix(.01808 0 0 -.01808 -141.78 438.364)"/><path d="M13375.1 22327.6h-1.6c-20.8 0-41.4-.2-62-.5 21.1.3 42.3.4 63.6.5" style="fill:#fff;fill-opacity:1;fill-rule:nonzero;stroke:none" transform="matrix(.01808 0 0 -.01808 -141.78 438.364)"/><path d="m13311.8 22289-.8 76.3c20.8.3 41.6.4 62.5.4h1.6v-76.3c-21.1 0-42.2-.2-63.3-.4" style="fill:#211d1d;fill-opacity:1;fill-rule:nonzero;stroke:none" transform="matrix(.01808 0 0 -.01808 -141.78 438.364)"/><path d="M16146.8 21146.9c-16.3-173.4-123.5-335.3-312.8-480.1-146.7-112.3-339.5-208.8-566.8-294.6-184.2-69.5-388.5-138.1-613.9-185.4-198.8-41.8-411.2-81.8-634.3-103.2-206-19.7-421.7-27.8-642.5-27.8s-434.3 30.9-640.2 50.7c-223.2 21.3-438.8 33.6-637.7 75.4-225.3 47.3-437.3 98-621.5 167.5-227.3 85.8-408 209.7-554.7 322-178.9 137-291.8 285.6-318.4 447.5v-.5c9.3-824 567.5-1339.3 1371.6-1595.8l555.5-716c183.8-261.1 500.1-417.2 837.9-413.7 317.8 3.3 662.8 170.9 845 410.7l590.1 756.8c778.8 259.6 1366.2 681.3 1342.8 1585.2z" style="fill:#e9f8f5;fill-opacity:1;fill-rule:nonzero;stroke:none" transform="matrix(.01808 0 0 -.01808 -141.78 438.364)"/><path d="M10660.8 20884.5c118-776.7 771.8-1148.6 1326.5-1325.5l11.2-3.6 563.9-726.9c177.6-252.2 479-401.1 806.2-397.4 305.2 3.1 640.4 165.8 815 395.6l597.5 766.2 10.9 3.7c823 274.4 1235.8 679.6 1306.4 1295.9-55.1-89.7-135.6-175.3-241.2-256-142.9-109.4-331.5-207.5-576.5-300-235.5-88.8-426.6-146.5-619.6-187.1-184.5-38.8-404.7-81.4-638.5-103.8-196.3-18.8-407.6-28-646.1-28-168.5 0-332.5 17.8-491 34.9-50.3 5.5-102.4 11.1-152.8 15.9-47.8 4.6-95.2 8.8-142.1 12.9-175.5 15.4-341.3 29.9-499.8 63.2-199.4 41.9-429.9 94.8-627.2 169.2-238.9 90.2-427.1 222.3-564.4 327.4-102.5 78.4-182.1 159.8-238.4 243.4m2697-2529.9c-347.6 0-667.3 159.9-857.4 429.2l-547.7 706c-421.7 136.2-754.4 335.4-989.1 592.1-259.4 283.7-393.2 632.3-397.8 1036.1v1.2l75.8 5.9c23.9-144.8 126.2-287.3 304-423.4 133.1-101.9 315.4-229.9 545-316.6 192.4-72.6 419.3-124.6 615.9-165.8 154-32.4 317.6-46.7 490.8-61.9 47.1-4.2 94.7-8.3 142.6-12.9 50.9-4.9 103.2-10.6 153.8-16.1 156.5-16.9 318.4-34.4 482.8-34.4 236 0 445 9 638.8 27.6 230 22.1 447.6 64.2 630.1 102.6 189.1 39.7 376.7 96.3 608.3 183.8 238 89.7 420.2 184.3 557.1 289.1 182.6 139.7 282.8 292.2 298 453.4l72.3-2.3 3.9.2v-1.6c11.3-436.1-113.3-783.4-381.1-1061.9-218.7-227.4-538.3-409.7-976.8-557.1l-583-747.7c-187.7-247-547.4-422-874.7-425.4-3.9 0-7.8-.1-11.6-.1" style="fill:#211d1d;fill-opacity:1;fill-rule:nonzero;stroke:none" transform="matrix(.01808 0 0 -.01808 -141.78 438.364)"/><path d="M13597.4 19293.5c-71.1 0-146.3 1.7-225.8 5.6-1079.8 53-1397.8 182.8-1410.8 188.3-19.5 8.2-28.5 30.6-20.3 50.1 8.2 19.3 30.5 28.4 49.9 20.3 4-1.6 325.3-130.4 1385-182.4 644.4-31.7 1021.1 85.8 1024.8 87 20.1 6.4 41.6-4.7 48-24.7 6.4-20.1-4.6-41.6-24.7-48-13.8-4.5-306.8-96.2-826.1-96.2" style="fill:#211d1d;fill-opacity:1;fill-rule:nonzero;stroke:none" transform="matrix(.01808 0 0 -.01808 -141.78 438.364)"/><path d="M12424.7 15007.1c35.4 6.8 54.3-44.2 23.7-64.4-151.5-100.6-340.1-264.1-274.8-424.4 28.9-71 242.2-193.5 519.1-284.7 239.2-78.8 528.9-87.3 743.1-85.3 39 .3 46.6-59.3 8.9-69.3-167.8-44.6-407.8-108.3-659.3-98.4-664.6 26.3-941 225.7-1070.4 320.9-161.1 118.3-119.8 388.6 52.8 511.3 113.1 80.4 442.7 153.5 656.9 194.3M14760.6 14857.1c-11.7 9.7-2.2 28.6 12.5 25 155.8-38.1 552.1-166.3 383.6-455.9-67.1-115.1-343.7-190.7-474.1-220.6-15.2-3.5-24.3 16.2-11.8 25.5 81.5 61.1 226.2 184.5 264.6 314.3 31.6 106.8-51.1 208.3-174.8 311.7M12564.7 19121s211.1-422.1 463-456.2c252-34 415.4 47.7 388.1 183.9-8.7 43.5-173.7-19.2-360.8 34-224.3 63.8-479.1 230.9-490.3 238.3M11250.6 20237.7s416.9-389.5 803-503.9c345-102.1 1191.7-147.3 1320.5-115.7 166.5 40.8 172.5 108.9 65.4 149.8-107 40.8-1046.9 68.1-1296.7 108.9-249.8 40.9-892.2 360.9-892.2 360.9" style="fill:#fff;fill-opacity:1;fill-rule:nonzero;stroke:none" transform="matrix(.01808 0 0 -.01808 -141.78 438.364)"/><path d="M11395.6 21620.5c-32.2 0-63.8 8.1-87.5 24.1l-.1.1c-52.8 35.7-44.8 95.2 17.2 126.6 116.8 59.1 325.4 150.2 628.8 230 313.9 82.6 778.5 164.5 1386.5 164.5 213 0 443.5-10.1 691.4-33.6 70.3-6.7 116.9-50.5 102.7-97.4-12.4-41.1-67.3-70.6-128.1-70.6q-8.7 0-17.7.9c-236.3 22.5-455.6 32-657.4 32-561.1 0-988-73.7-1276.6-148.5-285.1-73.8-478.5-158.8-580.8-210.4-23.5-11.9-51.1-17.7-78.4-17.7" style="fill:#eef9f8;fill-opacity:1;fill-rule:nonzero;stroke:none" transform="matrix(.01808 0 0 -.01808 -141.78 438.364)"/></svg>