<svg xmlns="http://www.w3.org/2000/svg" width="200mm" height="200mm" viewBox="0 0 200 200"><g style="display:inline"><path d="m5759.32 8469.7-143.68 301.7c-9.87 20.7-18.82 41.8-26.82 63.3-46.95 125.6-51.25 263.1-20.3 393.6l70.14 295.7s-.61.1-1.63.2c.98 8.3 1.63 16.7 1.63 25.2 0 89-56.57 169.5-159.99 243-73.58 52.3-169.13 97.7-283.15 137.7-92.38 32.4-195.72 59.3-308.78 81.3-99.74 19.5-205.27 39.6-317.24 49.6-103.28 9.2-210.93 16.6-321.66 16.6-110.74 0-218.64-5.3-321.94-14.5-111.94-9.9-220.03-19.8-319.76-39.3-113.05-22-217.32-52.1-309.71-84.5-114.02-39.9-204.82-95.8-278.4-148.1-101.17-71.9-161.2-149.4-163.79-236-.18-1.5-.18-3-.18-4.5l-.07-1.3.02-.4-.02-.5.07-.8c.19-22 3.98-43.5 11.19-64.5 29.69-125.7 103.84-337.8 60.27-529.9-54.02-238.1-208.23-484.6-274.87-721.5-111.13-395-78.24-816.7 94.4-1189 180.34-388.8 393.22-832.6 442.54-870.4 63.45-48.5 141.58-102.1 240.09-139.2 79.49-30.1 171.36-52 268.73-72.5 86.14-18 179.38-23.3 275.82-32.5 89.12-8.7 181.44-22 276.98-22 95.53 0 188.77 3.5 277.89 11.9 96.44 9.4 188.3 26.6 274.23 44.7 97.59 20.6 186.02 50.2 265.74 80.2 98.28 37.1 181.68 79 245.13 127.6 46.88 35.8 239.63 425.5 411.8 786.9 6.83 14.3 13.47 28.7 19.93 43.2 207.54 465.3 207.27 997 15.39 1469" style="fill:#bae7e0;fill-opacity:1;fill-rule:nonzero;stroke:none" transform="matrix(.0227 0 0 -.0227 3.705 326.09)"/><path d="m2880.43 9548.9.06-1c.16-18.9 3.44-37.7 9.76-56.1l.73-2.5c4.71-20 10.7-42.7 17.03-66.6 34.28-129.9 81.24-307.9 43.27-475.2-29.56-130.4-88.82-263.8-146.13-392.8-48.52-109.2-98.7-222.1-129.06-330-109.57-389.5-76.56-805.3 92.94-1170.8 342.31-738.1 417.99-847.6 434.62-860.5 57.06-43.7 135.16-98.5 233.34-135.5 82.82-31.3 180.35-53.6 264.83-71.3 66.31-13.9 136.94-20.1 211.73-26.6 20.23-1.7 40.63-3.5 61.18-5.5 21.3-2 42.71-4.4 64.3-6.7 68.2-7.5 138.73-15.1 210.18-15.1 101.85 0 191.94 3.8 275.39 11.8 101.13 9.8 198.11 28.8 271.28 44.2 105.97 22.4 200.21 55.8 261.88 79 101.67 38.4 179.65 78.9 238.38 123.9 15.93 12.2 87.15 112.2 404.01 777.3 6.73 14.1 13.28 28.3 19.63 42.6 200.69 449.8 206.29 977.4 15.35 1447.5l-143.35 301a820 820 0 0 0-27.72 65.4c-47.33 126.7-54.68 268.1-21.26 409l66.52 280.4 1.46 12.5c.98 8.3 1.45 15.5 1.45 22.1 0 76.7-50.08 151.3-148.87 221.5-68.81 48.9-161.87 94.1-276.57 134.2-88.89 31.2-191.54 58.2-305.1 80.4-89.03 17.3-199.83 38.9-314.53 49.1-86.33 7.7-200.64 16.5-319.32 16.5-105.37 0-212.9-4.8-319.59-14.3-101.16-9-215.81-19.2-317.05-38.9-101.36-19.8-204.33-47.9-306.04-83.5-120.56-42.3-212.88-102.8-271.82-144.7-100.56-71.5-150.49-141.9-152.69-215.3l-.18-2.4v-1.4zm1368.78-3669.1c-74.32 0-146.29 7.8-215.9 15.4-21.4 2.4-42.62 4.7-63.64 6.7-20.36 2-40.62 3.7-60.7 5.5-76.43 6.6-148.6 12.9-218 27.5-86.44 18.1-186.44 41-272.62 73.5-104.64 39.5-186.88 97.2-246.82 143.1-16.2 12.4-65.5 50.1-450.44 880.2-174.81 376.9-208.85 805.7-95.87 1207.3 31.39 111.6 82.35 226.3 131.63 337.2 56.28 126.7 114.48 257.7 142.89 383 35.1 154.7-9.95 325.4-42.84 450-6.29 23.8-12.24 46.4-17.07 66.7-7.81 23.1-11.89 47-12.19 70.8l-.06 1.9-.04.6.03.2.08 2.3c-.01 1.3.03 3.2.21 5.2 3.08 90.7 60.29 174.4 174.86 255.8 61.56 43.8 158.1 107.1 284.98 151.5 104.09 36.5 209.54 65.3 313.39 85.5 103.93 20.3 220.03 30.7 322.47 39.8 108.26 9.6 217.35 14.5 324.28 14.5 120.77 0 236.59-8.9 324.01-16.7 117.45-10.5 229.72-32.4 319.95-50 116.05-22.6 221.18-50.3 312.46-82.3 121.06-42.4 215.84-88.5 289.72-141 113.54-80.7 171.11-169.8 171.11-264.6l-.01-1.8 6.17-.7-77.03-324.7c-30.99-130.7-24.3-261.5 19.35-378.3 7.71-20.6 16.43-41.2 25.93-61.1l144.3-303.2c196.6-483.5 190.87-1026.5-15.74-1489.7-6.55-14.6-13.28-29.2-20.2-43.8-356.55-748.3-402.38-783.3-419.62-796.5-62.87-48.1-145.25-91.1-251.84-131.3-63.3-23.9-160.1-58.2-269.61-81.3-74.52-15.7-173.35-35-277.12-45.2-85.2-8.1-176.92-12-280.46-12" style="fill:#211d1d;fill-opacity:1;fill-rule:nonzero;stroke:none" transform="matrix(.0227 0 0 -.0227 3.705 326.09)"/><path d="M5469.8 6987.6c-73 45.1-167.8 84.3-280.92 118.7-91.66 27.9-194.18 51.1-306.34 70.1-98.95 16.8-203.64 34.2-314.73 42.8-102.45 7.9-209.27 14.3-319.11 14.3-109.87 0-216.91-4.5-319.38-12.5-111.06-8.5-218.29-17.1-317.23-33.9-112.16-19-215.61-44.9-307.27-72.8-113.11-34.5-203.2-82.6-276.2-127.7-102.61-63.4-136.77-141.5-136.77-218.3 0-17.4 1.81-34 5.67-50 10.81-22.6 21.55-45 32.18-67.1 21.31-28.1 52.89-55.1 97.78-82.8 72.99-45.1 162.91-94.9 276.02-129.3 91.66-27.9 197.13-48.3 309.29-67.3 98.96-16.8 206.25-21.7 317.32-30.3 102.47-7.9 208.73-20.3 318.59-20.3 109.87 0 217.23 3.2 319.7 11.1 111.06 8.6 216.73 24.7 315.67 41.5 112.15 19 213.86 46.5 305.51 74.4 113.12 34.5 209.07 73.2 282.07 118.3 44.1 27.2 79.2 56 104.97 86 16.5 33.6 33.25 67.9 50.1 102.6 1.09 7.6 1.79 15.3 1.79 23 0 76.7-56.13 146.1-158.71 209.5" style="fill:#def4f0;fill-opacity:1;fill-rule:nonzero;stroke:none" transform="matrix(.0227 0 0 -.0227 3.705 326.09)"/><path d="M2952.62 6665.4c19.57-25.1 48.7-49.4 88.93-74.2 65.89-40.7 156.1-91.9 269.76-126.5 95.51-29.1 208.26-49.9 305.96-66.5 76.44-13 157.74-18.7 243.82-24.8 23.49-1.7 47.2-3.3 71.09-5.2 25.27-2 50.75-4.2 76.48-6.4 77.84-6.8 158.34-13.8 240.04-13.8 117.45 0 221.35 3.6 317.63 11 114.35 8.9 222.52 25.8 313.26 41.2 93.88 15.9 187.08 38.6 302.19 73.7 117.92 35.9 208.15 73.6 275.79 115.4 40.38 24.9 72.85 51.2 96.54 78.1 15.38 31.3 30.95 63.2 46.63 95.5.67 5.5.98 10.5.98 15.2 0 64-49.11 126.9-146 186.7-68.33 42.2-160.73 81.2-274.64 115.9-88.31 26.9-190.26 50.2-303.02 69.3-88.4 15-198.44 33.7-312.31 42.5-85.65 6.6-199.08 14.2-317.05 14.2-104.63 0-211.41-4.2-317.32-12.3-100.44-7.8-214.29-16.6-314.82-33.7-100.65-17-202.91-41.3-303.94-72.1-119.77-36.4-211.41-88.7-269.93-124.8-83.48-51.6-124.06-115.5-124.06-195.5 0-14.6 1.41-28.1 4.32-41 9.96-20.9 19.87-41.6 29.67-61.9m1296.08-371c-84.03 0-165.71 7.1-244.7 14-25.55 2.2-50.87 4.5-75.96 6.4-23.77 1.8-47.35 3.5-70.74 5.2-87.4 6.1-169.97 12-248.98 25.4-99.38 16.8-214.22 38.1-312.62 68.1-119.54 36.4-213.66 89.7-282.31 132.1-47.03 29-81.39 58.3-105.02 89.4l-1.64 2.2-1.17 2.4c-10.63 22.1-21.38 44.5-32.21 67.2l-1.2 2.5-.67 2.8c-4.31 17.9-6.42 36.3-6.42 56.2 0 98.7 50.29 179.8 149.48 241.1 61.06 37.7 156.76 92.2 282.48 130.5 103.2 31.4 207.7 56.2 310.59 73.6 102.92 17.5 218.05 26.4 319.64 34.2 107.29 8.4 215.44 12.6 321.45 12.6 119.79 0 234.57-7.7 321.18-14.4 116.29-9 227.66-27.9 317.14-43.1 115-19.5 219.18-43.3 309.66-70.9 119.99-36.5 213.92-76.3 287.19-121.5 113.74-70.3 171.43-148.4 171.43-232.3 0-8.4-.68-17.2-2.07-26.8l-.59-4.1-1.83-3.8c-16.86-34.8-33.62-69.1-50.15-102.7l-1.5-3.1-2.22-2.6c-27.48-32-64.9-62.7-111.22-91.3-71.62-44.2-165.95-83.8-288.34-121.1-117.37-35.7-212.61-58.9-308.84-75.3-91.92-15.5-201.59-32.7-318.07-41.7-97.67-7.5-202.92-11.2-321.77-11.2" style="fill:#211d1d;fill-opacity:1;fill-rule:nonzero;stroke:none" transform="matrix(.0227 0 0 -.0227 3.705 326.09)"/><path d="M2872.83 6832.8c-32.65 69.2-67.29 143.2-103.48 221.3-169.46 365.4-202.46 781.1-92.91 1170.5 30.35 107.9 80.52 220.8 129.04 330 57.31 129 116.59 262.4 146.15 392.8 30.79 135.7 5.77 278.4-23.09 396.7 21.06-20.3 45.34-40.2 72.81-59.8 69.27-49.2 164.23-111.1 284.89-153.4 99.35-34.8 215.23-59.5 315.5-79 79.78-15.6 163.05-22.4 251.21-29.5 23.59-2 47.4-3.9 71.39-6 25.31-2.3 50.84-4.8 76.61-7.4 79.66-8 162.05-16.3 246.89-16.3 119.85 0 226.03 4.2 324.63 13 117.62 10.5 228.23 30.4 320.94 48.5 97.09 18.9 193.22 45.9 311.67 87.4 123.55 43.2 218.72 89.3 290.97 140.6 27.23 19.3 51.21 39.3 71.92 59.9l-25.52-107.6c-33.44-141-26.09-282.5 21.28-409.2 8.25-22.1 17.58-44.1 27.73-65.4l143.35-301c190.88-470.1 185.29-997.5-15.35-1447.3-6.35-14.2-12.9-28.4-19.64-42.6-20-41.9-39.45-82.6-58.19-121.5-23.24 57.8-76.03 112.4-157.76 162.9-73.27 45.2-167.2 85-287.19 121.5-90.48 27.6-194.66 51.4-309.66 70.9-89.48 15.2-200.85 34.1-317.14 43.1-86.61 6.7-201.39 14.4-321.18 14.4-106.01 0-214.16-4.2-321.45-12.6-101.59-7.8-216.72-16.7-319.64-34.2-102.89-17.4-207.39-42.2-310.59-73.6-125.72-38.3-221.42-92.8-282.48-130.5-76.65-47.4-124.1-106.6-141.71-176.6" style="fill:#dbf3ef;fill-opacity:1;fill-rule:nonzero;stroke:none" transform="matrix(.0227 0 0 -.0227 3.705 326.09)"/><path d="M4248.7 6348c-81.7 0-162.2 7-240.04 13.8-25.73 2.2-51.21 4.4-76.48 6.4-23.89 1.9-47.6 3.5-71.09 5.2-86.08 6.1-167.38 11.8-243.82 24.8-97.7 16.6-210.45 37.4-305.96 66.5-113.66 34.6-203.87 85.8-269.76 126.5-40.23 24.8-69.36 49.1-88.93 74.2-9.8 20.3-19.71 41-29.67 61.9-2.91 12.9-4.32 26.4-4.32 41 0 80 40.58 143.9 124.06 195.5 58.52 36.1 150.16 88.4 269.93 124.8 101.03 30.8 203.29 55.1 303.94 72.1 100.53 17.1 214.38 25.9 314.82 33.7 105.91 8.1 212.69 12.3 317.32 12.3 117.97 0 231.4-7.6 317.05-14.2 113.87-8.8 223.91-27.5 312.31-42.5 112.76-19.1 214.71-42.4 303.02-69.3 113.91-34.7 206.31-73.7 274.64-115.9 96.89-59.8 146-122.7 146-186.7 0-4.7-.31-9.7-.98-15.2-.54-1.1-1.08-2.2-1.63-3.3-15.13-31.2-30.16-62-45-92.2-23.69-26.9-56.16-53.2-96.54-78.1-67.64-41.8-157.87-79.5-275.79-115.4-115.11-35.1-208.31-57.8-302.19-73.7-90.74-15.4-198.91-32.3-313.26-41.2-96.28-7.4-200.18-11-317.63-11" style="fill:#effaf8;fill-opacity:1;fill-rule:nonzero;stroke:none" transform="matrix(.0227 0 0 -.0227 3.705 326.09)"/><path d="M4248.7 6348c-81.7 0-162.2 7-240.04 13.8-25.73 2.2-51.21 4.4-76.48 6.4-23.89 1.9-47.6 3.5-71.09 5.2-86.08 6.1-167.38 11.8-243.82 24.8-97.7 16.6-210.45 37.4-305.96 66.5-113.66 34.6-203.87 85.8-269.76 126.5-40.23 24.8-69.36 49.1-88.93 74.2-10.21 21.2-20.54 42.7-30.93 64.5-15.73 32.9-32.03 67.3-48.86 102.9 17.61 70 65.06 129.2 141.71 176.6 61.06 37.7 156.76 92.2 282.48 130.5 103.2 31.4 207.7 56.2 310.59 73.6 102.92 17.5 218.05 26.4 319.64 34.2 107.29 8.4 215.44 12.6 321.45 12.6 119.79 0 234.57-7.7 321.18-14.4 116.29-9 227.66-27.9 317.14-43.1 115-19.5 219.18-43.3 309.66-70.9 119.99-36.5 213.92-76.3 287.19-121.5 81.73-50.5 134.52-105.1 157.76-162.9-13.39-27.8-26.42-54.8-39.01-80.7-.63-1.3-1.25-2.6-1.88-3.9.67 5.5.98 10.5.98 15.2 0 64-49.11 126.9-146 186.7-68.33 42.2-160.73 81.2-274.64 115.9-88.31 26.9-190.26 50.2-303.02 69.3-88.4 15-198.44 33.7-312.31 42.5-85.65 6.6-199.08 14.2-317.05 14.2-104.63 0-211.41-4.2-317.32-12.3-100.44-7.8-214.29-16.6-314.82-33.7-100.65-17-202.91-41.3-303.94-72.1-119.77-36.4-211.41-88.7-269.93-124.8-83.48-51.6-124.06-115.5-124.06-195.5 0-14.6 1.41-28.1 4.32-41 9.96-20.9 19.87-41.6 29.67-61.9 19.57-25.1 48.7-49.4 88.93-74.2 65.89-40.7 156.1-91.9 269.76-126.5 95.51-29.1 208.26-49.9 305.96-66.5 76.44-13 157.74-18.7 243.82-24.8 23.49-1.7 47.2-3.3 71.09-5.2 25.27-2 50.75-4.2 76.48-6.4 77.84-6.8 158.34-13.8 240.04-13.8 117.45 0 221.35 3.6 317.63 11 114.35 8.9 222.52 25.8 313.26 41.2 93.88 15.9 187.08 38.6 302.19 73.7 117.92 35.9 208.15 73.6 275.79 115.4 40.38 24.9 72.85 51.2 96.54 78.1 14.84 30.2 29.87 61 45 92.2-15.12-31.2-30.15-62-45-92.2-23.69-26.9-56.16-53.2-96.54-78.1-67.64-41.8-157.87-79.5-275.79-115.4-115.11-35.1-208.31-57.8-302.19-73.7-90.74-15.4-198.91-32.3-313.26-41.2-96.28-7.4-200.18-11-317.63-11" style="fill:#868385;fill-opacity:1;fill-rule:nonzero;stroke:none" transform="matrix(.0227 0 0 -.0227 3.705 326.09)"/><path d="M2952.62 6665.4c19.57-25.1 48.7-49.4 88.93-74.2 65.89-40.7 156.1-91.9 269.76-126.5 95.51-29.1 208.26-49.9 305.96-66.5 76.44-13 157.74-18.7 243.82-24.8 23.49-1.7 47.2-3.3 71.09-5.2 25.27-2 50.75-4.2 76.48-6.4 77.84-6.8 158.34-13.8 240.04-13.8 117.45 0 221.35 3.6 317.63 11 114.35 8.9 222.52 25.8 313.26 41.2 93.88 15.9 187.08 38.6 302.19 73.7 117.92 35.9 208.15 73.6 275.79 115.4 40.38 24.9 72.85 51.2 96.54 78.1 16 32.6 32.2 65.8 48.51 99.4 30.23 62.3 62.93 130.3 97.2 202.2 6.74 14.2 13.29 28.4 19.64 42.6 200.64 449.8 206.23 977.2 15.35 1447.3l-143.35 301a816 816 0 0 0-27.73 65.4c-47.37 126.7-54.72 268.2-21.28 409.2l25.52 107.6c-20.71-20.6-44.69-40.6-71.92-59.9-72.25-51.3-167.42-97.4-290.97-140.6-118.45-41.5-214.58-68.5-311.67-87.4-92.71-18.1-203.32-38-320.94-48.5-98.6-8.8-204.78-13-324.63-13-84.84 0-167.23 8.3-246.89 16.3-25.77 2.6-51.3 5.1-76.61 7.4-23.99 2.1-47.8 4-71.39 6-88.16 7.1-171.43 13.9-251.21 29.5-100.27 19.5-216.15 44.2-315.5 79-120.66 42.3-215.62 104.2-284.89 153.4-27.47 19.6-51.75 39.5-72.81 59.8 28.86-118.3 53.88-261 23.09-396.7-29.56-130.4-88.84-263.8-146.15-392.8-48.52-109.2-98.69-222.1-129.04-330-109.55-389.4-76.55-805.1 92.91-1170.5 54.84-118.3 106.11-227.4 152.34-324.2 10.39-21.8 20.72-43.3 30.93-64.5m1296.08-371c-84.03 0-165.71 7.1-244.7 14-25.55 2.2-50.87 4.5-75.96 6.4-23.77 1.8-47.35 3.5-70.74 5.2-87.4 6.1-169.97 12-248.98 25.4-99.38 16.8-214.22 38.1-312.62 68.1-119.54 36.4-213.66 89.7-282.31 132.1-47.03 29-81.39 58.3-105.02 89.4l-1.64 2.2-1.17 2.4c-10.63 22.1-21.38 44.5-32.21 67.2-46.33 97-97.67 206.3-152.6 324.8-174.83 377-208.88 805.8-95.88 1207.5 31.4 111.6 82.36 226.3 131.66 337.3 56.26 126.6 114.46 257.6 142.86 382.8 35.09 154.7-9.95 325.3-42.83 449.9-6.42 24.3-12.49 47.3-17.36 68l51.38 14.8c19.08-55.4 66.78-110.6 141.8-163.9 66.39-47.2 157.24-106.5 271.57-146.5 96.13-33.7 209.65-57.8 308.04-77 76.85-15 158.68-21.7 245.31-28.8 23.72-1.9 47.66-3.8 71.79-6 25.5-2.3 51.24-4.8 77.2-7.4 78.36-7.9 159.39-16.1 241.55-16.1 118.24 0 222.88 4.2 319.88 12.9 115.18 10.2 224.08 29.8 315.43 47.7 121.06 23.6 226.18 58 304.22 85.3 118.73 41.6 209.55 85.4 277.65 133.8 88.11 62.6 137.04 130.3 145.4 201.4l3.1 26.3 58.17-6.3-77.12-325.2c-30.98-130.6-24.29-261.3 19.33-378.1 7.72-20.6 16.44-41.2 25.92-61.1l144.31-303.1c196.64-483.7 190.9-1026.8-15.75-1490-6.55-14.7-13.28-29.3-20.2-43.8-34.33-72.1-67.08-140.2-97.37-202.6-16.86-34.8-33.62-69.1-50.15-102.7l-1.5-3.1-2.22-2.6c-27.48-32-64.9-62.7-111.22-91.3-71.62-44.2-165.95-83.8-288.34-121.1-117.37-35.7-212.61-58.9-308.84-75.3-91.92-15.5-201.59-32.7-318.07-41.7-97.67-7.5-202.92-11.2-321.77-11.2" style="fill:#211d1d;fill-opacity:1;fill-rule:nonzero;stroke:none" transform="matrix(.0227 0 0 -.0227 3.705 326.09)"/><path d="M5471.65 6566.5c-73-45.1-168.95-83.8-282.07-118.3-91.65-27.9-193.35-55.4-305.51-74.5-98.94-16.7-204.6-32.8-315.67-41.4-102.47-7.9-209.84-11.1-319.7-11.1s-216.12 12.4-318.59 20.3c-111.08 8.6-218.36 13.5-317.32 30.3-112.15 19-217.63 39.4-309.29 67.3-113.12 34.4-203.03 84.2-276.03 129.3-44.88 27.7-76.45 54.7-97.77 82.8 119.86-248.8 225.08-453.6 257.89-478.8 63.46-48.5 141.58-102.1 240.09-139.3 79.49-30 171.36-52 268.73-72.3 86.13-18.1 179.37-23.4 275.82-32.6 89.12-8.7 181.44-22 276.98-22 95.53 0 188.77 3.5 277.89 11.9 96.44 9.4 188.31 26.6 274.22 44.7 97.6 20.6 186.02 50.2 265.75 80.2 98.28 37.1 181.67 79 245.13 127.6 33.61 25.7 142.2 233.3 264.42 481.9-25.77-30-60.87-58.8-104.97-86" style="fill:#fff;fill-opacity:1;fill-rule:nonzero;stroke:none" transform="matrix(.0227 0 0 -.0227 3.705 326.09)"/><path d="M3009.77 6547.8c144.75-294.4 183.78-346.1 194.1-354.1 57.04-43.7 135.1-98.5 233.25-135.5 82.8-31.2 180.31-53.5 264.77-71.2 66.29-14 136.92-20.1 211.69-26.6 20.22-1.8 40.63-3.6 61.19-5.5 21.29-2.1 42.71-4.4 64.3-6.8 68.2-7.4 138.71-15.1 210.14-15.1 101.84 0 191.92 3.9 275.36 11.8 101.11 9.9 198.07 28.8 271.23 44.2 105.95 22.4 200.18 55.9 261.84 79.1 101.63 38.3 179.58 78.9 238.29 123.8 10.54 8 50.59 60.2 200.03 358.3-3.36-2.2-6.78-4.3-10.24-6.5-71.63-44.2-165.94-83.8-288.34-121.1-117.37-35.7-212.61-58.9-308.84-75.3-91.92-15.5-201.59-32.7-318.07-41.7-97.67-7.5-202.93-11.2-321.77-11.2-84.04 0-165.72 7.1-244.71 14-25.54 2.2-50.85 4.5-75.94 6.4-23.77 1.8-47.37 3.5-70.75 5.2-87.41 6.1-169.97 12-248.98 25.4-99.37 16.8-214.22 38.1-312.62 68-119.53 36.4-213.66 89.8-282.3 132.2-1.22.7-2.43 1.5-3.63 2.2m1239.44-668.4c-74.34 0-146.32 7.9-215.94 15.5-21.39 2.3-42.61 4.6-63.64 6.7-20.34 1.9-40.61 3.7-60.7 5.4-76.42 6.7-148.61 13-218.03 27.5-86.46 18.1-186.48 41-272.68 73.6-104.69 39.4-186.95 97.2-246.91 143.1-14.44 11-48.25 36.9-265.74 488.4l-115.66 240.1 161.12-212.3c19.58-25.8 49.19-50.7 90.52-76.2 65.89-40.7 156.11-91.9 269.75-126.5 95.52-29.1 208.27-49.9 305.97-66.5 76.44-13 157.74-18.7 243.82-24.8 23.49-1.7 47.2-3.4 71.09-5.2 25.26-2 50.75-4.2 76.47-6.4 77.85-6.8 158.35-13.9 240.05-13.9 117.45 0 221.35 3.7 317.64 11.1 114.34 8.9 222.52 25.8 313.25 41.2 93.89 15.9 187.08 38.6 302.19 73.7 117.93 35.9 208.14 73.6 275.79 115.4 41.63 25.7 74.85 52.8 98.74 80.6l137.26 159.8-92.91-189c-197.76-402.3-249.35-473.9-272.2-491.4-62.9-48.1-145.31-91.1-251.93-131.4-63.32-23.8-160.13-58.1-269.67-81.3-74.53-15.7-173.37-35-277.16-45.1-85.2-8.1-176.93-12.1-280.49-12.1" style="fill:#211d1d;fill-opacity:1;fill-rule:nonzero;stroke:none" transform="matrix(.0227 0 0 -.0227 3.705 326.09)"/><path d="M3375.75 8876.5c-34.46 12.2-72.8.1-93.79-29.8-183.9-262.6-537.65-884.8-376.78-1528.3 10-40 104.62-221.4 278.33-150 121.67 50 256.67 156.7 167.5 262.5-142.12 168.7-146.53 558.4 77.35 1346.3 11.69 41.1-10.6 84.5-50.96 98.7z" style="fill:#fff;fill-opacity:1;fill-rule:nonzero;stroke:none" transform="matrix(.0227 0 0 -.0227 3.705 326.09)"/></g></svg>