<svg xmlns="http://www.w3.org/2000/svg" width="200mm" height="200mm" viewBox="0 0 200 200"><g style="display:inline"><path d="M25403.6 21024.5c0 118.6 70 226 198 323.9 91.1 69.7 209.3 130.3 350.5 183.6 114.3 43.1 242.2 79 382.1 108.4 123.5 25.9 254.1 52.7 392.7 66 127.8 12.3 261.1 22.1 398.1 22.1 137.1 0 270.6-6.9 398.5-19.2 138.5-13.3 272.3-26.5 395.8-52.4 139.9-29.4 269-69.5 383.3-112.6 141.1-53.3 253.5-127.8 344.6-197.5 128-97.9 203-203.7 203-322.3s-43.6-426-51.3-626.4c-133.7-1503.8-480.5-5198.3-480.5-5251.2 0-73.1-29-130.1-119.2-190.4-64.2-43-143.2-90.4-242.7-123.2-80.6-26.5-173.3-45.9-271.9-64-87-16-181.3-20.7-279-28.9-90-7.5-183.4-19.4-280-19.4s-191 3.1-281.1 10.7c-97.6 8.1-190.5 23.4-277.5 39.4-98.6 18.1-188 44.4-268.6 71-99.4 32.8-183.7 69.7-247.9 112.6-90.2 60.4-137.9 128.4-137.9 201.5 0 52.3-321.2 3708.6-453.3 5210-26.9 244.1-55.7 539.7-55.7 658.3" style="fill:#ddf4f0;fill-opacity:1;fill-rule:nonzero;stroke:none" transform="matrix(.02665 0 0 -.02665 -622.838 584.525)"/><path d="M27125 21702c-147.1 0-288.6-11.7-395.6-22-142.2-13.6-279.4-42.4-389.7-65.6-140.8-29.6-268.1-65.7-378.3-107.2-142.4-53.8-258-114.3-343.7-179.8-124.5-95.3-187.6-197.2-187.6-302.9 0-136 38.9-503.6 55.6-655.4 169.3-1925.2 453.4-5161.6 453.4-5212.9 0-63.1 42.4-123.5 126.1-179.5 59.2-39.6 138.2-75.4 241.6-109.5 100.9-33.3 182.7-54.9 265-70 79.7-14.6 174.6-30.7 274.9-39.1 84.6-7.1 175.8-10.6 278.9-10.6 71.5 0 142.1 6.7 210.4 13.2 22.7 2.1 45.2 4.2 67.4 6.1 21 1.8 41.8 3.4 62.4 4.9 75.6 5.8 147 11.3 214 23.6 85.8 15.8 184.7 35.6 268.4 63.2 99.5 32.8 178.5 81.4 236.2 120 89.2 59.7 107.5 110.5 107.5 168.4 0 25.7 65.8 738.4 182.1 1995.9 107.7 1164.9 229.8 2485.2 298.4 3257 4 102.2 17.3 233.5 29.1 349.3 11.4 112.2 22.2 218.2 22.2 275.4 0 103.5-63 202.1-192.6 301.3-73.3 56-188 137.1-337.9 193.6-126.1 47.6-253.8 85.2-379.4 111.5-125.6 26.4-267.6 40-392.8 52-132.3 12.7-265.5 19.1-396 19.1m.6-7007.5c-104.6 0-197.2 3.5-283.3 10.7-102.6 8.6-199.2 25-280.1 39.8-84.8 15.6-168.7 37.8-272.1 71.9-107.9 35.6-191.1 73.5-254.4 115.8-99.3 66.4-149.6 141.6-149.6 223.5-.9 45.3-170.3 1992.1-453.2 5207.7-20.8 189-55.8 527-55.8 660.6 0 123.1 70.1 239.2 208.4 345 89.7 68.7 209.9 131.7 357.2 187.3 112.8 42.5 242.7 79.4 386.1 109.5 111.6 23.4 250.4 52.6 395.6 66.5 108.1 10.4 251.3 22.3 400.6 22.3 132.2 0 267.1-6.5 401-19.4 126.7-12.1 270.2-25.9 398.7-52.9 128.3-26.9 258.6-65.2 387.3-113.7 156.4-59.1 275.4-143.1 351.3-201.2 143.6-109.9 213.4-222.2 213.4-343.4 0-59.9-10.4-162.2-22.4-280.7-11.8-115.4-25.1-246.1-28.9-346.7l-.1-1.4c-68.6-771.8-190.8-2092.5-298.5-3257.8-97.2-1051.1-181.2-1958.9-181.9-1991.2 0-87.3-39.2-150.8-131-212.3-60.5-40.5-143.5-91.4-249.1-126.3-86.8-28.6-187.9-48.9-275.4-64.9-69.8-12.8-142.5-18.4-219.6-24.3-20.5-1.6-41.1-3.2-61.9-4.9-22.1-1.9-44.4-4-66.9-6.1-69.5-6.6-141.4-13.4-215.4-13.4" style="fill:#211d1d;fill-opacity:1;fill-rule:nonzero;stroke:none" transform="matrix(.02665 0 0 -.02665 -622.838 584.525)"/><path d="M27125.6 14721c-96.6 0-191 3.1-281.1 10.7-97.6 8.1-190.5 23.4-277.5 39.4-98.6 18.1-188 44.4-268.6 71-99.4 32.8-183.7 69.7-247.9 112.6-90.2 60.4-137.9 128.4-137.9 201.5 0 52.3-321.2 3708.6-453.3 5210-26.9 244-55.7 539.6-55.7 658.3 0-48.2 11.1-95 32.9-140.1 11.8-167.8 36.7-401.8 49.2-515.3 169.3-1925.2 453.4-5161.6 453.4-5212.9 0-63.1 42.4-123.5 126.1-179.5 59.2-39.6 138.2-75.4 241.6-109.5 100.9-33.3 182.7-54.9 265-70 79.7-14.6 174.6-30.7 274.9-39.1 84.6-7.1 175.8-10.6 278.9-10.6 71.5 0 142.1 6.7 210.4 13.2 22.7 2.1 45.2 4.2 67.4 6.1 21 1.8 41.8 3.4 62.4 4.9 75.6 5.8 147 11.3 214 23.6 85.8 15.8 184.7 35.6 268.4 63.2 99.5 32.8 178.5 81.4 236.2 120 89.2 59.7 107.5 110.5 107.5 168.4 0 25.7 65.8 738.4 182.1 1995.9 107.7 1164.9 229.8 2485.2 298.4 3257 4 102.2 17.3 233.5 29.1 349.3 4.8 47.5 9.5 93.8 13.4 135.8 23.1 44.8 35.3 91.3 35.3 139.6 0-118.6-43.6-426-51.3-626.4-133.7-1503.8-480.5-5198.3-480.5-5251.2 0-73.1-29-130.1-119.2-190.4-64.2-43-143.3-90.4-242.7-123.2-80.6-26.5-173.3-45.9-271.9-64-87-16-181.3-20.7-279-28.9-90-7.5-183.4-19.4-280-19.4" style="fill:#c5ceca;fill-opacity:1;fill-rule:nonzero;stroke:none" transform="matrix(.02665 0 0 -.02665 -622.838 584.525)"/><path d="M25441.2 20822.7c12.8-159.5 33.5-353.5 44.5-453.6 169.3-1925.2 453.4-5161.6 453.4-5212.9 0-63.1 42.4-123.5 126.1-179.5 59.2-39.6 138.2-75.4 241.6-109.5 100.9-33.3 182.7-54.9 265-70 79.7-14.6 174.6-30.7 274.9-39.1 84.6-7.1 175.8-10.6 278.9-10.6 71.5 0 142.1 6.7 210.4 13.2 22.7 2.1 45.2 4.2 67.4 6.1 21 1.8 41.8 3.4 62.4 4.9 75.6 5.8 147 11.3 214 23.6 85.8 15.8 184.7 35.6 268.4 63.2 99.5 32.8 178.5 81.4 236.2 120 89.2 59.7 107.5 110.5 107.5 168.4 0 25.7 65.8 738.4 182.1 1995.7 107.7 1165 229.8 2485.4 298.4 3257.2 4 102.2 17.3 233.5 29.1 349.3 2.6 25.8 5.2 51.2 7.6 75.7-34.8-49.9-83-98.5-144.4-145.5-85.3-65.4-202.4-147.6-351.1-203.7-122.6-46.3-265.9-79.1-389.8-105.1-98.5-20.7-201.5-29.8-310.6-39.3-29.2-2.6-58.6-5.2-88.2-8-31.3-3-62.9-6.4-94.8-9.9-98.5-10.6-200.4-21.7-305.2-21.7-148.2 0-279.4 5.7-401.4 17.4-145.3 13.9-282.1 40.4-396.7 64.5-119.9 25.2-238.7 61.1-385.1 116.3-152.4 57.5-269.7 118.5-358.6 186.6-60.6 46.4-108 95.2-142 146.3m1684.4-6128.2c-104.6 0-197.2 3.5-283.3 10.7-102.6 8.6-199.2 25-280.1 39.8-84.8 15.6-168.7 37.8-272.1 71.9-107.9 35.6-191.1 73.4-254.4 115.8-99.3 66.4-149.6 141.6-149.6 223.5-.9 45.3-170.3 1992.1-453.2 5207.7-20.8 189-55.8 526.9-55.8 660.6h53c0-109 62.4-211.9 185.3-306 84.8-64.9 197.7-123.4 345.2-179.1 96.7-36.5 227-82.5 377.2-114 113.2-23.8 248.2-49.9 390.9-63.6 120.2-11.5 249.8-17.1 396.3-17.1 102 0 202.4 10.8 299.5 21.3 32.1 3.5 63.9 7 95.5 10 29.7 2.8 59.3 5.4 88.5 8 107.5 9.4 209 18.3 304.4 38.4 122 25.6 262.7 57.8 382 102.8 142.2 53.7 255.1 133 337.6 196.2 126.9 97.1 191.2 199.1 191.2 303.1h53c0-59.9-10.4-162.2-22.4-280.7-11.8-115.4-25.1-246.1-28.9-346.7l-.1-1.4c-68.6-771.8-190.8-2092.6-298.5-3257.9-97.2-1051.1-181.2-1958.8-181.9-1991.1 0-87.3-39.2-150.8-131-212.3-60.5-40.5-143.5-91.4-249.1-126.3-86.8-28.6-187.9-48.9-275.4-64.9-69.8-12.8-142.5-18.4-219.6-24.3-20.4-1.6-41.1-3.2-61.9-4.9-22.1-1.9-44.4-4-66.9-6.1-69.5-6.6-141.4-13.4-215.4-13.4" style="fill:#211d1d;fill-opacity:1;fill-rule:nonzero;stroke:none" transform="matrix(.02665 0 0 -.02665 -622.838 584.525)"/><path d="M25711.3 17493.2c107.3-1226 201.2-2308.8 201.2-2337 0-73.1 47.8-141.1 138-201.5 64.2-42.9 148.4-79.8 248-112.6 80.6-26.7 169.9-53 268.4-71.1 87-15.9 180-31.2 277.7-39.4 90-7.5 184.3-10.5 281-10.5 96.6 0 189.9 11.7 280.1 19.3 97.5 8.1 191.9 12.9 278.8 28.8 98.8 18.2 191.5 37.5 271.9 64.1 99.5 32.9 178.6 80.2 242.8 123.2 90.2 60.3 119.3 117.3 119.3 190.3 0 25.1 77.6 864.4 173.5 1901.4l-137.7-819.9c-30.4-181.4-105.4-353.5-223.2-494.8-39.4-47.3-77.9-84.1-110.2-103.2-126-74.7-204.4-99.3-305.1-117.9-89-16.3-381.6-56.3-605.3-56.3-207.6 0-470.3 43.4-559.1 59.7-100.7 18.5-301.9 72.3-441.2 221.4-188.9 202.4-181.6 333.5-204 413.2z" style="fill:#fff;fill-opacity:1;fill-rule:nonzero;stroke:none" transform="matrix(.02665 0 0 -.02665 -622.838 584.525)"/><path d="M25818.2 16572.2c80.2-920.8 120.8-1396.2 120.8-1416 0-63.1 42.4-123.5 126.1-179.5 59.3-39.6 138.3-75.4 241.6-109.5 100.9-33.4 182.6-55 265-70.2 80-14.6 175.2-30.7 275.1-39 83.8-7.1 175-10.5 278.8-10.5 71.9 0 142.7 6.7 211.3 13.2 22.4 2.1 44.6 4.2 66.6 6 20.6 1.7 41.1 3.3 61.4 4.9 75.9 5.8 147.6 11.3 214.9 23.6 90.4 16.6 185.6 35.8 268.3 63.2 99.6 32.9 178.7 81.5 236.5 120.1 89.2 59.7 107.4 110.4 107.4 168.3 0 19.7 39.9 455.6 108.2 1194.9l-19.8-117.8c-32-190.5-111.2-366-229-507.3-29.8-35.8-74.3-83.8-117-109.1-130.5-77.2-211-102.1-313.8-121-82.6-15.2-380.6-56.8-610.1-56.8-225.3 0-509.2 50.1-563.8 60.1-109 20.1-313 76.5-455.8 229.3-160.3 171.8-184.3 296.1-200.2 378.4-3.3 17.4-6.3 32.5-10 45.7l-.7 3.4zm1307.4-1877.5c-105.3 0-198 3.4-283.2 10.6-102.2 8.5-199 24.9-280.2 39.7-110.1 20.3-208 50.8-272 72-108 35.6-191.2 73.5-254.4 115.8-99.3 66.4-149.7 141.6-149.7 223.4-.6 29.8-72 859.1-201.1 2334.7l52.4 6.1 194.7-1341.2c4.1-14.8 7.2-31.1 10.5-48.3 15.6-80.9 37-191.7 186.9-352.3 132.5-141.8 324.2-194.5 426.7-213.4 53.9-9.9 333.6-59.3 554.3-59.3 225.8 0 519.2 41 600.5 55.9 96.9 17.8 172.8 41.4 296.4 114.6 28.3 16.7 65 51.3 103.4 97.4 111.8 134.2 187 300.9 217.5 482.3l137.7 819.9 52.3-6.8c-88.8-960.3-172.7-1867.3-173.4-1899.2 0-87.2-39.2-150.6-131-212-60.5-40.5-143.6-91.5-249.2-126.4-85.7-28.4-183-48-275.4-64.9-70-12.9-143-18.5-220.4-24.4-20.2-1.6-40.5-3.1-61-4.8-21.8-1.9-43.9-4-66.1-6.1-69.7-6.5-141.9-13.3-216.2-13.3" style="fill:#211d1d;fill-opacity:1;fill-rule:nonzero;stroke:none" transform="matrix(.02665 0 0 -.02665 -622.838 584.525)"/><path d="M25783.5 20305.1c51.7-28.3 305.5-113.8 361.7-126.7 80-18.3 77.7-20.5 81.4-91l203.2-3793.7c9-168.4-266.7-221.6-328.9-62.6-1.2 3.1-2.3 6.3-3.4 9.5-41.5 130.4-319 2991.5-402.6 3859.6-10.1 105.2-16.4 262.5 88.6 204.9m2696.7 41.7c-9.7-9.8-101.9-73.6-193.7-117.7-31.7-15.2-52.1-47.1-53.2-82.3l-111.7-3480.3c-4.9-158.8 57.9-195.8 74.9-43.3.4 3 .7 6.1 1 9.1 11.7 124.6 289 2814.6 322.8 3634.9 4.1 99.4-14.4 105.5-40.1 79.6" style="fill:#fff;fill-opacity:1;fill-rule:nonzero;stroke:none" transform="matrix(.02665 0 0 -.02665 -622.838 584.525)"/><path d="M25870.3 21172.4c-18.2 0-36.3 5.9-50.3 17.6-32.2 26.9-29.6 72.9 5.6 97.8 66.4 47 185.5 119.9 360.5 185.3 192.2 71.8 483.8 145.1 873.3 145.1 106 0 219.2-5.4 339.7-17.8 41.4-4.2 70.2-37.4 63.5-73.7-5.9-32.4-38-56-74.4-56-2.8 0-5.7.1-8.6.4-114.9 11.8-222.8 17-323.4 17-360.2 0-628.8-66.3-805.8-131.4-164.5-60.5-274.8-128.5-332.9-169.6-13.9-9.8-30.6-14.7-47.2-14.7" style="fill:#f4fbfa;fill-opacity:1;fill-rule:nonzero;stroke:none" transform="matrix(.02665 0 0 -.02665 -622.838 584.525)"/></g></svg>