<svg xmlns="http://www.w3.org/2000/svg" width="200mm" height="200mm" viewBox="0 0 200 200"><g style="display:inline"><path d="M27842 43043.9c0 90.1-48.2 171.6-136.3 246-62.6 53-144 99-241.1 139.4-78.7 32.8-166.7 60.1-263 82.4-85 19.7-174.9 40.1-270.2 50.2-88 9.3-179.7 16.7-274 16.7s-186.2-5.2-274.2-14.5c-95.3-10.1-187.4-20.2-272.4-39.9-96.2-22.3-185-52.8-263.7-85.5-97.1-40.5-174.5-97.1-237.2-150-85.7-72.4-136.8-150.5-139.4-237.7-.3-2.3-.4-4.7-.3-7.1 0-6.5.4-13 .9-19.4 17.9-445.9 39.6-3565.1 59.6-3931.9 0 0 .2-2.6.4-7.9 19.7-361.9 37.8-709.3 49.4-1008.8 20.8-540.9 5.4-905.5 1.1-992.1-.4-3.9-.9-7.8-.6-11.8-.5-2.5-.5-5.3-.5-8.1 0-83.7 46.6-159.6 127.4-228.7 57.6-49.2 128.4-103.5 217.7-141 72.1-30.4 155.5-52.7 243.8-73.3 78.1-18.4 162.6-23.7 250.1-33 80.8-8.8 164.6-22.2 251.2-22.2s171.2 3.4 252 12c87.5 9.5 170.8 26.9 248.7 45.2 88.5 20.9 168.7 50.8 241.1 81.2 89.1 37.6 164.7 80.1 222.3 129.2 80.8 68.9 123.6 146.9 123.6 230.6l28.7 1956.3 15.3 371.4 1.5 31.7c0 3.8.2 7.5.4 11.2l.6 16.9c.2 2.8.2 5.6.4 8.1l.7 14.9c0 2.3.2 4.4.2 6.5.2 2.7.2 5.3.4 7.4l29.3 3500c4 18.3 6.1 36.8 6.1 55.6" style="fill:#d3f0eb;fill-opacity:1;fill-rule:nonzero;stroke:none" transform="matrix(.0222 0 0 -.0222 -491.694 1002.916)"/><path d="M25557.1 39094.1c.1 0 .3-2.9.5-8.4 18.5-339.1 37.3-696.4 49.4-1008.8 20.6-534.1 6-896.1 1.1-994.4l-.1-1.5c-.4-2.9-.7-5.7-.6-7.5l.2-2.9-.5-2.9c-.1-1.1 0-2.5 0-3.8 0-71.4 39.7-141.6 118-208.6 51.6-44.1 122.2-99.5 210.8-136.7 74.9-31.5 163.1-54.1 239.5-71.9 59.9-14.1 123.8-20.3 191.5-26.9 18.3-1.7 36.8-3.5 55.4-5.5 19.4-2.1 38.8-4.5 58.4-6.9 61.7-7.5 125.5-15.2 190-15.2 92.2 0 173.7 3.9 249.2 11.9 91.5 9.9 179.2 29.1 245.5 44.7 95.7 22.5 181 56.3 236.8 79.8 91.8 38.7 162.3 79.6 215.3 124.9 75.9 64.7 114.4 135.4 114.4 210.4l28.6 1956.7 16.9 403.4c0 4 .2 8 .4 11.9l.7 17.5c.1 1.1.1 2.1.1 3.2l.3 4.5.5 13.9c.1 1.4.1 2.7.2 4.1l.3 6.5c0 1.4.1 2.7.2 3.9l29.3 3501.8.6 2.7c3.6 16.7 5.5 33.5 5.5 49.9 0 79.8-41.5 153.7-126.9 225.8-58.2 49.2-137 94.7-234.2 135.2-75.4 31.4-162.5 58.6-258.8 80.9-75.6 17.6-169.7 39.4-267 49.7-73.3 7.7-170.4 16.6-271.2 16.6-89.4 0-180.7-4.8-271.4-14.4-85.9-9.1-183.3-19.4-269.2-39.3s-173.2-48.3-259.5-84.2c-102-42.5-180.3-103.5-230.3-145.7-85.2-72-127.7-143.4-130-218.3l-.2-2.1c-.1-1-.1-2-.1-3v-1.2c0-5.3.3-10.9.8-17.2l.1-1.1c8.5-211.7 17.7-1011.5 27.4-1858.3 10.7-924.5 21.6-1880.5 32.1-2073.2m1113.6-2555c-67.7 0-133.1 8-196.4 15.7-19.4 2.4-38.6 4.7-57.7 6.8-18.3 1.9-36.7 3.7-54.8 5.5-69.5 6.7-135.2 13.1-198.5 27.9-78.6 18.4-169.5 41.7-247.9 74.7-95.4 40.1-170.2 98.7-224.7 145.3-90.7 77.6-136.7 161.3-136.7 248.9 0 2.7 0 5.9.4 9.4-.1 4.7.4 9 .7 12.6 5 98.7 19.3 458.4-1.1 989-12.1 312-30.9 669-49.4 1008.3-.2 4.7-.3 6.9-.4 7.2-10.6 194.3-21.6 1151-32.2 2076.3-9.7 845.6-18.9 1644.5-27.4 1856.2-.6 7.3-.9 14-.9 20.4-.1 3.1 0 6.2.3 9.5 3.1 90.4 51.8 174.2 148.8 256.2 52.7 44.4 135.3 108.8 244.1 154.1 89 37.1 179.2 66.4 268 87 89 20.6 188.1 31.1 275.5 40.3 92.5 9.8 185.7 14.8 277 14.8 103.2 0 202.1-9.1 276.8-17 100.5-10.6 196.4-32.8 273.4-50.7 99.2-23 189.1-51.2 267.2-83.7 103.6-43.2 184.8-90.1 248-143.6 96.7-81.7 145.7-171.3 145.7-266.3 0-19.3-2.1-39-6.2-58.5l-29.2-3498.6-.1-1.2-.2-2.2c0-1.1 0-2.3-.1-3.6-.1-1.1-.1-2.2-.2-3.3v-3.2l-.7-15.9c-.1-.9-.1-1.9-.2-2.9 0-1.5-.1-3-.2-4.5l-.6-16.5c-.2-3.7-.4-6.9-.4-10.2v-1.2l-1.5-31.8-15.4-371.2-28.6-1955.6c0-90.8-44.7-175.2-132.9-250.4-57.3-48.9-132.3-92.5-229.3-133.4-57.5-24.2-145.5-59.1-245.2-82.6-67.7-15.9-157.5-35.5-251.9-45.7-77.5-8.3-160.8-12.3-254.9-12.3" style="fill:#211d1d;fill-opacity:1;fill-rule:nonzero;stroke:none" transform="matrix(.0222 0 0 -.0222 -491.694 1002.916)"/><path d="M27758.4 37448.3c0-73.1-42.8-141.2-123.7-201.7-57.5-43-133.2-79.9-222.3-112.7-72.3-26.6-152.5-52.9-240.9-71-78-16-161.3-31.4-248.8-39.6-80.8-7.5-165.4-10.6-252-10.6s-170.4 11.8-251.2 19.4c-87.5 8.2-172.1 12.9-250.1 28.9-88.4 18.1-171.6 37.5-243.8 64.1-89.2 32.9-160.1 80.3-217.6 123.3-80.9 60.4-107 117.5-107 190.6 0 73.2 27 147.7 107.9 208.1 57.5 43 128.5 88.9 217.7 121.8 72.3 26.6 153.8 51.3 242.2 69.4 78 16 162.5 24.2 250.1 32.4 80.8 7.5 165.2 11.8 251.8 11.8s170.7-6.1 251.5-13.6c87.6-8.2 170.1-24.8 248.1-40.7 88.4-18.2 169.3-40.3 241.5-66.9 89.2-32.8 163.9-70.2 221.5-113.2 80.8-60.4 125.1-126.6 125.1-199.8" style="fill:#fff;fill-opacity:1;fill-rule:nonzero;stroke:none" transform="matrix(.0222 0 0 -.0222 -491.694 1002.916)"/><path d="M26670.7 37856.1c-82.2 0-166-3.9-249.3-11.7-79-7.4-168.5-15.8-247.3-32-78.9-16.1-159.1-39.1-238.4-68.3-93.5-34.5-165.2-83.9-211-118.1-65.4-48.9-97.2-110-97.2-187 0-58.5 16.3-109.7 96.3-169.4 51.6-38.6 122.2-87 210.9-119.7 74.8-27.5 163.3-47.3 240-63 59.7-12.3 123.6-17.8 191.2-23.6 18.5-1.5 37.2-3.1 56.1-4.9 20-1.9 40.1-4 60.5-6.1 61.1-6.5 124.3-13.2 188.2-13.2 92.2 0 173.8 3.5 249.5 10.6 89.8 8.4 174.7 24.4 246 39 73.6 15.1 146.7 36.7 237 70 92.4 34 162.9 69.7 215.7 109.1 75 56 113.1 116.8 113.1 180.5 0 62.7-37.5 121.1-114.5 178.7-53.4 39.8-125.7 76.7-214.8 109.5-69.2 25.5-149.2 47.6-237.7 65.8-69.4 14.2-155.8 31.9-245.2 40.3-67.4 6.3-156.7 13.5-249.1 13.5m0-869.8c-66.7 0-131.3 6.8-193.7 13.4-20.2 2.1-40.2 4.2-59.9 6.1-18.7 1.7-37.3 3.3-55.7 4.9-69.2 5.9-134.5 11.5-197.3 24.4-78.7 16.1-169.6 36.5-247.7 65.2-95.1 35.1-169.8 86.3-224.3 126.9-82.3 61.6-117.5 124.9-117.5 211.8 0 93.5 39.9 170.6 118.5 229.3 48.4 36.2 124.4 88.5 224.4 125.4 81.7 30.1 164.5 53.8 246 70.5 81.6 16.8 172.6 25.3 252.9 32.8 85 7.9 170.5 12 254.3 12 94.6 0 185.4-7.4 254-13.8 92.2-8.6 180.2-26.7 250.9-41.2 91.1-18.6 173.7-41.5 245.4-67.9 95.2-35.1 169.8-73.3 228.1-116.8 90-67.3 135.7-141.6 135.7-221 0-81.3-45.2-156.3-134.3-222.8-56.9-42.6-131.8-80.6-229-116.4-92.9-34.3-168.4-56.5-244.7-72.1-72.6-14.9-159.4-31.3-251.7-40-77.3-7.2-160.6-10.7-254.4-10.7" style="fill:#211d1d;fill-opacity:1;fill-rule:nonzero;stroke:none" transform="matrix(.0222 0 0 -.0222 -491.694 1002.916)"/><path d="M26670.7 36592.2c-64.5 0-128.3 7.7-190 15.2-19.6 2.4-39 4.8-58.4 6.9-18.6 2-37.1 3.8-55.4 5.5-67.7 6.6-131.6 12.8-191.5 26.9-76.4 17.8-164.6 40.4-239.5 71.9-88.6 37.2-159.2 92.6-210.8 136.7-78.3 67-118 137.2-118 208.6 0 1.3-.1 2.7 0 3.8l.5 2.9-.2 2.9c-.1 1.8.2 4.6.6 7.5l.1 1.5c1.8 37.3 5.1 112.4 7.3 220.5 18.6-26.4 43.9-51.2 76.7-75.8 54.5-40.6 129.2-91.8 224.3-126.9 78.1-28.7 169-49.1 247.7-65.2 62.8-12.9 128.1-18.5 197.3-24.4 18.4-1.6 37-3.2 55.7-4.9 19.7-1.9 39.7-4 59.9-6.1 62.4-6.6 127-13.4 193.7-13.4 93.8 0 177.1 3.5 254.4 10.7 92.3 8.7 179.1 25.1 251.7 40 76.3 15.6 151.8 37.8 244.7 72.1 97.2 35.8 172.1 73.8 229 116.4 35.2 26.2 63.5 53.8 84.9 82.6l-3.5-244.2c0-75-38.5-145.7-114.4-210.4-53-45.3-123.5-86.2-215.3-124.9-55.8-23.5-141.1-57.3-236.8-79.8-66.3-15.6-154-34.8-245.5-44.7-75.5-8-157-11.9-249.2-11.9" style="fill:#eaf8f6;fill-opacity:1;fill-rule:nonzero;stroke:none" transform="matrix(.0222 0 0 -.0222 -491.694 1002.916)"/><path d="M26670.7 36565.7c-86.6 0-170.4 13.4-251.2 22.2-87.5 9.3-172 14.6-250.1 33-88.3 20.6-171.7 42.9-243.8 73.3-89.3 37.5-160.1 91.8-217.7 141-80.8 69.1-127.4 145-127.4 228.7 0 2.8 0 5.6.5 8.1-.3 4 .2 7.9.6 11.8 1.9 38.1 6 130.1 8.1 267.2 6.4-16.7 14.9-32.6 25.7-48-2.2-108.1-5.5-183.2-7.3-220.5l-.1-1.5c-.4-2.9-.7-5.7-.6-7.5l.2-2.9-.5-2.9c-.1-1.1 0-2.5 0-3.8 0-71.4 39.7-141.6 118-208.6 51.6-44.1 122.2-99.5 210.8-136.7 74.9-31.5 163.1-54.1 239.5-71.9 59.9-14.1 123.8-20.3 191.5-26.9 18.3-1.7 36.8-3.5 55.4-5.5 19.4-2.1 38.8-4.5 58.4-6.9 61.7-7.5 125.5-15.2 190-15.2 92.2 0 173.7 3.9 249.2 11.9 91.5 9.9 179.2 29.1 245.5 44.7 95.7 22.5 181 56.3 236.8 79.8 91.8 38.7 162.3 79.6 215.3 124.9 75.9 64.7 114.4 135.4 114.4 210.4l3.5 244.2c10.9 14.6 19.9 29.4 27.2 44.6l-4.2-288.8c0-83.7-42.8-161.7-123.6-230.6-57.6-49.1-133.2-91.6-222.3-129.2-72.4-30.4-152.6-60.3-241.1-81.2-77.9-18.3-161.2-35.7-248.7-45.2-80.8-8.6-165.4-12-252-12" style="fill:#a0a3a2;fill-opacity:1;fill-rule:nonzero;stroke:none" transform="matrix(.0222 0 0 -.0222 -491.694 1002.916)"/><path d="M27739.4 37580.3c-22.1 30.8-52.2 60.5-90.3 89-58.3 43.5-132.9 81.7-228.1 116.8-71.7 26.4-154.3 49.3-245.4 67.9-70.7 14.5-158.7 32.6-250.9 41.2-68.6 6.4-159.4 13.8-254 13.8-83.8 0-169.3-4.1-254.3-12-80.3-7.5-171.3-16-252.9-32.8-81.5-16.7-164.3-40.4-246-70.5-100-36.9-176-89.2-224.4-125.4-31.4-23.4-56.6-49.8-75.5-78.9-.6 139.5-3.5 303.3-10.6 487.5-12.1 312.4-30.9 669.7-49.4 1008.8-.2 5.5-.4 8.4-.5 8.4-10.5 192.7-21.4 1148.7-32.1 2073.2-8.5 745.7-16.7 1455.1-24.3 1758.3 23.6-44.9 60.4-87.5 108.3-128 62.6-52.9 139.8-111.4 236.9-151.8 78.7-32.8 169.3-56.7 265.6-79 84.9-19.7 177-25.5 272.4-35.6 88-9.3 179.2-23.9 273.5-23.9s186.5 3.8 274.5 13.1c95.3 10.1 186 29 271 48.7 96.3 22.3 183.6 54.7 262.3 87.5 97.1 40.4 179.5 85.9 242.1 138.8 44.8 37.9 78.8 78.1 101.4 120.4l-28.6-3426.3c-.1-1.2-.2-2.5-.2-3.9l-.3-6.5c-.1-1.4-.1-2.7-.2-4.1l-.5-13.9-.3-4.5c0-1.1 0-2.1-.1-3.2l-.7-17.5c-.2-3.9-.4-7.9-.4-11.9l-16.9-403.4z" style="fill:#eaf8f6;fill-opacity:1;fill-rule:nonzero;stroke:none" transform="matrix(.0222 0 0 -.0222 -491.694 1002.916)"/><path d="M27765.3 37536c-6.8 15-15.5 29.8-25.9 44.3l21.1 1440.3 16.9 403.4c0 4 .2 8 .4 11.9l.7 17.5c.1 1.1.1 2.1.1 3.2l.3 4.5.5 13.9c.1 1.4.1 2.7.2 4.1l.3 6.5c0 1.4.1 2.7.2 3.9l28.6 3426.3c10.4 19.4 18.4 39.3 23.9 59.5.3.8.9 1.2 1.5 1.2.8 0 1.7-.6 1.7-1.6l-29.2-3486.6c-.2-2.1-.2-4.7-.4-7.4 0-2.1-.2-4.2-.2-6.5l-.7-14.9c-.2-2.5-.2-5.3-.4-8.1l-.6-16.9c-.2-3.7-.4-7.4-.4-11.2l-1.5-31.7-15.3-371.4zm-2174.1.6c0 149.9-2.7 331.6-10.7 539.3-11.6 299.5-29.7 646.9-49.4 1008.8-.2 5.3-.4 7.9-.4 7.9-20 366.8-41.7 3485.9-59.6 3931.9 2.8-34.1 12.9-67.1 29.6-98.9 7.6-303.2 15.8-1012.6 24.3-1758.3 10.7-924.5 21.6-1880.5 32.1-2073.2.1 0 .3-2.9.5-8.4 18.5-339.1 37.3-696.4 49.4-1008.8 7.1-184.2 10-348 10.6-487.5q-16.35-25.05-26.4-52.8" style="fill:#a0a3a2;fill-opacity:1;fill-rule:nonzero;stroke:none" transform="matrix(.0222 0 0 -.0222 -491.694 1002.916)"/><path d="M26670.7 37039.1c-63.9 0-127.1 6.7-188.2 13.2-20.4 2.1-40.5 4.2-60.5 6.1-18.9 1.8-37.6 3.4-56.1 4.9-67.6 5.8-131.5 11.3-191.2 23.6-76.7 15.7-165.2 35.5-240 63-88.7 32.7-159.3 81.1-210.9 119.7-80 59.7-96.3 110.9-96.3 169.4 0 77 31.8 138.1 97.2 187 45.8 34.2 117.5 83.6 211 118.1 79.3 29.2 159.5 52.2 238.4 68.3 78.8 16.2 168.3 24.6 247.3 32 83.3 7.8 167.1 11.7 249.3 11.7 92.4 0 181.7-7.2 249.1-13.5 89.4-8.4 175.8-26.1 245.2-40.3 88.5-18.2 168.5-40.3 237.7-65.8 89.1-32.8 161.4-69.7 214.8-109.5 77-57.6 114.5-116 114.5-178.7 0-63.7-38.1-124.5-113.1-180.5-52.8-39.4-123.3-75.1-215.7-109.1-90.3-33.3-163.4-54.9-237-70-71.3-14.6-156.2-30.6-246-39-75.7-7.1-157.3-10.6-249.5-10.6" style="fill:#fafdfd;fill-opacity:1;fill-rule:nonzero;stroke:none" transform="matrix(.0222 0 0 -.0222 -491.694 1002.916)"/><path d="M26670.7 36986.3c-66.7 0-131.3 6.8-193.7 13.4-20.2 2.1-40.2 4.2-59.9 6.1-18.7 1.7-37.3 3.3-55.7 4.9-69.2 5.9-134.5 11.5-197.3 24.4-78.7 16.1-169.6 36.5-247.7 65.2-95.1 35.1-169.8 86.3-224.3 126.9-32.8 24.6-58.1 49.4-76.7 75.8-10.8 15.4-19.3 31.3-25.7 48 .9 54.8 1.4 116.9 1.5 185.6q10.05 27.75 26.4 52.8c18.9 29.1 44.1 55.5 75.5 78.9 48.4 36.2 124.4 88.5 224.4 125.4 81.7 30.1 164.5 53.8 246 70.5 81.6 16.8 172.6 25.3 252.9 32.8 85 7.9 170.5 12 254.3 12 94.6 0 185.4-7.4 254-13.8 92.2-8.6 180.2-26.7 250.9-41.2 91.1-18.6 173.7-41.5 245.4-67.9 95.2-35.1 169.8-73.3 228.1-116.8 38.1-28.5 68.2-58.2 90.3-89 10.4-14.5 19.1-29.3 25.9-44.3l-2.7-183.3c-7.3-15.2-16.3-30-27.2-44.6-21.4-28.8-49.7-56.4-84.9-82.6-56.9-42.6-131.8-80.6-229-116.4-92.9-34.3-168.4-56.5-244.7-72.1-72.6-14.9-159.4-31.3-251.7-40-77.3-7.2-160.6-10.7-254.4-10.7m0 869.8c-82.2 0-166-3.9-249.3-11.7-79-7.4-168.5-15.8-247.3-32-78.9-16.1-159.1-39.1-238.4-68.3-93.5-34.5-165.2-83.9-211-118.1-65.4-48.9-97.2-110-97.2-187 0-58.5 16.3-109.7 96.3-169.4 51.6-38.6 122.2-87 210.9-119.7 74.8-27.5 163.3-47.3 240-63 59.7-12.3 123.6-17.8 191.2-23.6 18.5-1.5 37.2-3.1 56.1-4.9 20-1.9 40.1-4 60.5-6.1 61.1-6.5 124.3-13.2 188.2-13.2 92.2 0 173.8 3.5 249.5 10.6 89.8 8.4 174.7 24.4 246 39 73.6 15.1 146.7 36.7 237 70 92.4 34 162.9 69.7 215.7 109.1 75 56 113.1 116.8 113.1 180.5 0 62.7-37.5 121.1-114.5 178.7-53.4 39.8-125.7 76.7-214.8 109.5-69.2 25.5-149.2 47.6-237.7 65.8-69.4 14.2-155.8 31.9-245.2 40.3-67.4 6.3-156.7 13.5-249.1 13.5" style="fill:#a0a3a2;fill-opacity:1;fill-rule:nonzero;stroke:none" transform="matrix(.0222 0 0 -.0222 -491.694 1002.916)"/><path d="M27858.2 42968.4v-.1zm-2301.1-3874.3c.1-.1.3-3 .5-8.4 18.5-339.1 37.3-696.4 49.4-1008.8 20.6-534.1 6-896.1 1.1-994.4l-.1-1.5c-.4-2.9-.7-5.7-.6-7.5l.2-2.9-.5-2.9c-.1-1.1 0-2.5 0-3.8 0-71.4 39.7-141.6 118-208.6 51.6-44.1 122.2-99.4 210.8-136.7 74.9-31.5 163.1-54.1 239.5-71.9 59.9-14.1 123.8-20.3 191.5-26.9 18.3-1.7 36.8-3.5 55.4-5.5 19.4-2.1 38.8-4.5 58.4-6.9 61.7-7.5 125.5-15.2 190-15.2 92.2 0 173.7 3.9 249.2 11.9 91.5 9.9 179.2 29.1 245.5 44.7 95.7 22.5 181 56.3 236.8 79.8 91.8 38.7 162.3 79.6 215.3 124.9 75.9 64.7 114.4 135.4 114.4 210.4l28.6 1956.7 16.9 403.4c0 4 .2 7.9.4 11.9l.7 17.5c.1 1.1.1 2.2.1 3.2l.3 4.5.5 13.9c.1 1.4.1 2.7.2 4.1l.3 6.5c0 1.4.1 2.7.2 3.9l28.2 3375.4c-22-31.2-50-61.1-83.9-89.7l-17.1 20.2 17.1-20.2c-61.8-52.3-143.3-99.1-249-143.1-101.2-42.2-183.4-69.6-266.5-88.8-79.2-18.4-173.7-38.6-274.2-49.2-84.3-9-175-13.3-277.3-13.3-72.7 0-143.1 8.4-211.1 16.6-21.9 2.6-43.7 5.2-65.2 7.4-20.4 2.2-40.6 4.1-60.6 6.1-75.4 7.3-146.6 14.2-215 30-85.7 19.9-184.7 45-269.8 80.4-103.4 43.1-184.6 106-243.9 156.1-36.7 31-66.8 63.1-89.9 95.9 7.3-327.2 15-1000.3 23.1-1706 10.7-924.5 21.7-1880.5 32.1-2073.2m1113.6-2555c-67.7 0-133.1 8-196.4 15.7-19.4 2.3-38.6 4.7-57.7 6.8-18.3 1.9-36.7 3.7-54.8 5.5-69.5 6.7-135.2 13.1-198.5 27.9-78.6 18.4-169.5 41.7-247.9 74.7-95.4 40.1-170.2 98.7-224.7 145.3-90.7 77.6-136.7 161.3-136.7 248.9 0 2.7 0 5.9.4 9.4-.1 4.7.4 9 .7 12.6 5 98.8 19.3 458.4-1.1 989-12.1 312-30.9 669-49.4 1008.3-.2 4.7-.3 6.9-.3 7.2-10.7 194.3-21.7 1151-32.3 2076.3-9.7 846.4-18.9 1645.8-27.4 1856.8l52.9 3.2c5.8-71.4 49.1-141.7 128.6-208.8 56.3-47.6 133.3-107.3 230-147.6 81.5-34 177.8-58.3 261.4-77.7 65-15.1 134.5-21.8 208.1-28.9 20.2-2 40.6-4 61.1-6.1 21.8-2.3 43.7-5 65.9-7.6 66.5-7.9 135.3-16.2 204.8-16.2 100.4 0 189.3 4.3 271.7 13 97.6 10.3 190.2 30.1 267.8 48.1 80.1 18.6 159.7 45.2 258.1 86.1 100.6 41.9 177.6 86 235.2 134.7 61.5 51.9 100.8 108 116.9 166.6 3.6 13.5 16.8 22.3 30.8 20.4s24.4-13.9 24.4-28l-29.2-3487.9-.1-1.2-.2-2.2c0-1.1-.1-2.3-.1-3.6 0-1.1-.1-2.2-.1-3.3l-.1-2.1v-1.1l-.7-15.9c-.1-.9-.1-1.9-.2-2.9 0-1.5-.1-3-.2-4.6l-.6-16.4c-.2-3.7-.4-6.9-.4-10.2v-1.2l-1.5-31.7-15.4-371.3-28.6-1955.6c0-90.8-44.7-175.2-132.9-250.4-57.3-48.9-132.3-92.5-229.3-133.4-57.5-24.2-145.5-59.1-245.2-82.6-67.7-15.9-157.5-35.5-251.9-45.7-77.5-8.3-160.8-12.3-254.9-12.3" style="fill:#211d1d;fill-opacity:1;fill-rule:nonzero;stroke:none" transform="matrix(.0222 0 0 -.0222 -491.694 1002.916)"/><path d="M27214.5 37102.8c256.8 42.6 457.6 270.2 490.5 557.6 59.4 519.9 82.7 1391.7 97.4 1731.2l-15.3-371.4-28.7-1956.3c0-83.7-42.8-161.7-123.6-230.6-57.6-49.1-133.2-91.6-222.4-129.2-72.3-30.4-152.5-60.3-241-81.2-77.9-18.3-161.2-35.7-248.7-45.2-80.8-8.6-165.4-12.1-252-12.1s-170.4 13.5-251.2 22.3c-87.5 9.3-172 14.6-250.1 33-88.3 20.6-171.7 42.9-243.8 73.3-89.3 37.5-160.1 91.8-217.7 141-80.8 69.1-127.4 145-127.4 228.7 0 2.8 0 5.6.5 8.1-.2 4 .2 7.9.6 11.8 4.3 86.6 19.7 451.2-1.1 992.1-11.6 299.5-29.7 646.9-49.4 1008.8 6.3-91 73.9-924.8 128.9-1431.6 29.8-274.7 212.3-498.2 454.8-555.2 55.2-12.9 112.5-24.4 169.9-34 161.6-27.1 323.3-40.4 434.8-34.3 74 3.9 162.9 16.2 256 34.3 90.3 17.3 167.9 27.1 239 38.9" style="fill:#d3f0eb;fill-opacity:1;fill-rule:nonzero;stroke:none" transform="matrix(.0222 0 0 -.0222 -491.694 1002.916)"/><path d="M25614.3 37836.2c8.9-401.5-2.1-671-6.2-753.7l-.1-1.5c-.3-2.8-.7-5.7-.6-7.6l.2-2.9-.5-2.8c-.1-1.2 0-2.5 0-3.8 0-71.4 39.7-141.6 118-208.6 51.6-44.1 122.2-99.4 210.8-136.7 74.9-31.5 163.1-54.1 239.5-71.9 59.9-14.1 123.8-20.3 191.5-26.9 18.3-1.7 36.8-3.5 55.4-5.5 19.4-2.1 38.8-4.5 58.4-6.9 61.7-7.5 125.5-15.2 190-15.2 92.2 0 173.7 3.9 249.2 11.9 91.5 9.9 179.2 29.1 245.5 44.7 95.7 22.5 181 56.3 236.8 79.8 91.8 38.7 162.3 79.6 215.3 124.9 75.9 64.7 114.4 135.4 114.4 210.4l10.2 695.3c-3.5-35.2-7.1-69.2-10.8-101.8-34-297.5-244.7-536.3-512.4-580.8-25-4.1-50.8-8-77.6-12.1-50.4-7.6-102.6-15.5-160.8-26.6-97-18.9-186.8-30.9-259.5-34.8-112.6-6.1-273.2 6.5-440.7 34.6-59.2 10-116.9 21.6-171.5 34.4-253.1 59.4-444 291.8-475.1 578.1-6.4 58.2-12.8 120.8-19.4 186m1056.4-1297.1c-67.7 0-133.1 8-196.4 15.7-19.4 2.3-38.6 4.7-57.7 6.8-18.3 1.9-36.7 3.7-54.8 5.5-69.5 6.7-135.2 13.1-198.5 27.9-78.6 18.4-169.5 41.7-247.9 74.7-95.4 40.1-170.2 98.7-224.7 145.3-90.7 77.6-136.7 161.3-136.7 248.9 0 2.7 0 5.9.4 9.4-.1 4.7.4 9 .7 12.6 5 98.8 19.3 458.4-1.1 989-12.1 312-30.9 669-49.4 1008.3l52.9 3.3c5.6-78.9 73.6-921.3 128.9-1430.5 28.6-264.1 203.3-478 434.5-532.3 53.5-12.6 110.1-23.9 168.2-33.7 161.3-27 321.7-39.7 429-34 70.4 3.8 157.6 15.5 252.4 33.9 59.3 11.4 111.9 19.4 162.9 27.1 26.5 4 52.1 7.8 76.8 11.9 244.5 40.6 437.1 260.4 468.4 534.6 41.6 363.4 65.8 909 81.2 1309.2l.7 47.9 13.1 314.9c.8 20.4 1.6 39.5 2.3 57.2l53-2.2-2.3-56.1c-2.1-52.2-4.3-113-6.9-180.4-2-56.2-4.3-117.7-6.9-183.2l-27.9-1907.3c0-90.8-44.7-175.2-132.9-250.4-57.3-48.9-132.3-92.5-229.3-133.4-57.5-24.2-145.5-59.1-245.2-82.6-67.7-15.9-157.5-35.5-251.9-45.7-77.5-8.3-160.8-12.3-254.9-12.3" style="fill:#211d1d;fill-opacity:1;fill-rule:nonzero;stroke:none" transform="matrix(.0222 0 0 -.0222 -491.694 1002.916)"/><path d="M25902 42510.1c50.5-18.7 105.7-35.2 162.6-45.6 79.9-14.5 136.9-83.5 136.6-162.5l-17.9-4248.5c-.8-188.6-279.2-230-332-48.5-1 3.6-2 7.2-2.8 10.9-33.9 148.3-144.5 3360.4-177.4 4334.9-3.9 118.2 117.3 201.5 230.9 159.3m1687 46.4c-15.1-16.4-31.7-30.9-48.8-39.9-24.1-12.7-41.2-73.2-41.1-142.4l5.4-3721.2c.2-165.2 83.9-201.5 99.8-42.5.3 3.2.6 6.4.8 9.6 10.2 129.9 43.5 2943.3 53.4 3796.9 1.2 103.5-35.3 176.4-69.5 139.5" style="fill:#fff;fill-opacity:1;fill-rule:nonzero;stroke:none" transform="matrix(.0222 0 0 -.0222 -491.694 1002.916)"/><path d="M25777.2 43052.6c-17.9 0-35.6 7.4-48.3 21.6h-.1c-26.3 29.2-20.9 74.9 11.5 97.1 61.1 41.8 169.9 105.4 327 157.2 137.3 45.3 329.7 86.7 574 86.7 146 0 310.7-14.8 493.2-52.5 35.8-7.4 58.8-42.6 50.5-78.4-6.9-29.9-33.5-50.4-63.1-50.4-4.3 0-8.7.5-13.1 1.4-173.7 35.9-329.8 50-467.7 50-223.8 0-399.7-37.1-525.4-77.8-147.7-47.8-248.5-107.1-302-143.6-11.1-7.6-23.8-11.3-36.5-11.3" style="fill:#f1faf9;fill-opacity:1;fill-rule:nonzero;stroke:none" transform="matrix(.0222 0 0 -.0222 -491.694 1002.916)"/></g></svg>