<svg xmlns="http://www.w3.org/2000/svg" width="200mm" height="200mm" viewBox="0 0 200 200"><g style="display:inline"><path d="M22659.1 37062.9c0-84.3-48.1-162.7-139-232.3-64.7-49.5-149.7-92.1-250-129.9-81.2-30.7-171.3-60.9-270.7-81.8-87.7-18.4-181.4-36.1-279.8-45.5-90.8-8.7-186-12.3-283.3-12.3-97.4 0-191.6 13.7-282.4 22.4-98.4 9.4-193.5 14.8-281.2 33.2-99.4 20.9-192.9 43.3-274.1 73.9-100.3 37.8-179.9 92.5-244.6 142-91 69.6-143.2 146-143.2 230.3s53.2 159.4 144.2 229c64.7 49.5 144.5 102.4 244.8 140.2 81.2 30.7 172.9 59.1 272.3 80 87.7 18.4 182.7 27.8 281.1 37.3 90.8 8.7 185.7 13.6 283.1 13.6 97.3 0 192-7 282.8-15.7 98.4-9.4 191.6-26.7 278.9-46.9 189.7-44 72.4-14.5 271.5-77 102.2-32.1 184.3-80.9 249-130.4 90.9-69.6 140.6-145.9 140.6-230.1" style="fill:#e7f7f4;fill-opacity:1;fill-rule:nonzero;stroke:none" transform="matrix(.01891 0 0 -.01891 -305.397 883.498)"/><path d="M21436.3 37536.5c-92.5 0-186.8-4.5-280.6-13.5-88.8-8.5-189.4-18.2-278.2-36.8-88.9-18.7-179.2-45.2-268.4-78.9-105.5-39.8-186.4-97-238-136.5-90.1-68.9-133.8-136.9-133.8-207.9 0-71.4 44.7-141.8 132.8-209.2 58.2-44.6 137.8-100.5 237.9-138.3 84.2-31.8 183.8-54.6 270.2-72.7 67.3-14.2 139.2-20.5 215.3-27.2 20.8-1.8 41.8-3.6 63-5.7 22.4-2.1 45.1-4.6 68-7 68.7-7.5 139.8-15.2 211.8-15.2 103.8 0 195.6 4 280.8 12.2 101 9.6 196.6 28.2 276.8 45 106.2 22.3 198.4 54.8 266.9 80.7 104 39.2 183.6 80.5 243.2 126.1 85.4 65.3 128.6 136.4 128.6 211.3 0 73.6-42.6 142-130.2 209.1-74.3 56.8-155.3 99.2-240.8 126.1-67.4 21.1-99.1 31.9-118 38.4-28.9 9.8-28.9 9.8-91.5 24.2-15.7 3.6-35.3 8.1-60.1 13.8-98.9 23-189 38.1-275.4 46.4-75.8 7.3-176.2 15.6-280.3 15.6m0-1001.9c-74.8 0-147.4 7.9-217.5 15.4-22.7 2.5-45.2 4.9-67.4 7.1-21 2-41.9 3.8-62.5 5.6-77.8 6.8-151.2 13.3-221.6 28.1-88.4 18.5-190.5 41.9-278.1 75-106.5 40.2-190.3 99-251.3 145.8-102 78-153.7 162.5-153.7 251.3 0 88.6 50.6 170.4 154.7 250 54.3 41.6 139.4 101.7 251.5 144 91.8 34.6 184.7 61.9 276.2 81.2 91.7 19.2 193.9 29 284.1 37.7 95.4 9.1 191.5 13.7 285.6 13.7 106.3 0 208.3-8.4 285.3-15.8 88.8-8.5 181.1-24 282.4-47.5 24.8-5.7 44.3-10.2 60-13.8 64-14.7 65.3-15 96.7-25.7 18.7-6.4 50-17.1 116.8-38 91.4-28.7 177.9-74 257.1-134.6 100.2-76.8 151-161.3 151-251.2 0-92.3-50.2-177.5-149.4-253.4-63.8-48.8-147.8-92.5-256.7-133.6-104.4-39.4-189.1-65-274.7-83-81.6-17.1-179.1-36-282.7-45.9-86.8-8.3-180.3-12.4-285.8-12.4" style="fill:#211d1d;fill-opacity:1;fill-rule:nonzero;stroke:none" transform="matrix(.01891 0 0 -.01891 -305.397 883.498)"/><path d="M21833.7 40509.6c200 506.8-871.5 46.5-871.5 46.5-25.8-8.8 223.8-334.2 307.5-400.3 13.2-10.4 20.7-26.4 20.8-43.3l6.9-2439.6c.1-19.8-.6-39.6-2.5-59.2-22.4-233-141.5-459.6-143.9-496.9-2.6-39.2 102.5-127.5 297.4-130.8 141-2.3 225.6 72.3 261.6 113.8 11.4 13.1 11.9 35.3 1.7 50-54.2 79-88.2 234.7-107.3 351.5-13.1 80.9-19.7 163.3-19.9 245.9l-4 2373.5c0 25.4 10.8 49.7 30 66.1 71.8 61.5 159.8 162 223.2 322.8" style="fill:#f6fcfb;fill-opacity:1;fill-rule:nonzero;stroke:none" transform="matrix(.01891 0 0 -.01891 -305.397 883.498)"/><path d="M20993.4 40540.5c38.1-69.1 220.5-306.9 292.7-363.9 19.6-15.5 30.8-38.8 30.9-64l7-2439.6c.1-21.5-.8-42.3-2.7-61.8-16.1-167.8-80.1-329.5-118.4-426.1-12.1-30.5-24.6-62.1-25.5-70.1 2.4-22.4 91.6-99.4 271.4-102.5 129-2.3 206.5 64.7 241.2 104.7 3 3.5 3.6 12.3-.1 17.6-57 83-92.2 242.8-111.6 362.2-13.3 81.2-20.1 165.3-20.3 250.1l-4 2373.6c-.1 33.4 14.2 64.9 39.3 86.3 92.7 79.3 165.3 184.4 215.8 312.4 31 78.5 30.6 134-1.1 164.8-116.8 113.3-608.8-57.8-814.6-143.7m461.6-3581h-7c-152.7 2.6-253.9 54.4-297.8 102-18 19.5-26.8 39.2-25.7 57 1 14.6 9.6 37 29.1 86.1 37.2 94 99.5 251.3 114.9 411.6 1.7 17.8 2.5 36.9 2.4 56.6l-6.9 2439.6c0 9-4 17.2-10.8 22.6-45.9 36.3-131.7 138.9-191.3 215.8-133.6 172.6-129.5 196.1-127.6 207.5 1.8 10.3 8.4 18.6 17.9 22.4 76.1 32.7 725.1 304.2 892.7 141.5 48.6-47.1 53.1-121.9 13.5-222.3-53.7-136.1-131.3-248.2-230.6-333.2-13.3-11.3-20.8-28.1-20.8-46l4-2373.5c.2-81.9 6.8-163.3 19.6-241.6 26.7-163.6 62.3-281.4 103-340.8 17.1-24.9 15.6-60.3-3.5-82.4-40.2-46.2-128.9-122.9-275.1-122.9" style="fill:#211d1d;fill-opacity:1;fill-rule:nonzero;stroke:none" transform="matrix(.01891 0 0 -.01891 -305.397 883.498)"/><path d="M22363.9 43551.2c9.9-.3 16-10.9 11.2-19.6-51-91.2-333.1-515.5-320.1-759.2 10.1-190.9 415.2-1138.6 389.4-1495.5s-287.3-994.2-1035-985.7c-747.8 8.5-992.4 748.3-998.8 1093.3-7.4 402.3 378.1 1121.9 365.5 1362.4-10.6 203-253.3 682.4-329 827.5-9.9 18.9 4.3 41.4 25.6 40.6z" style="fill:#e9f8f5;fill-opacity:1;fill-rule:nonzero;stroke:none" transform="matrix(.01891 0 0 -.01891 -305.397 883.498)"/><path d="M22362.9 43524.7h.1zm-1891.2 63.8-1.1-.6v-1.3c96.3-184.5 321.4-635.6 332-838.3 5.9-112.8-67.5-314.7-152.4-548.4-101.8-280-217.1-597.2-213-814.9 6.3-344.7 252.4-1059.1 972.5-1067.3 4.9 0 9.7-.1 14.6-.1 730.5 0 969.5 627.3 993.7 961.2 15.6 216.6-132.7 660.3-251.9 1016.7-74.6 223.3-133.6 399.7-137.6 475.5-11.6 218.2 200.4 569 290.9 718.8 8.3 13.6 15.5 25.6 21.5 35.7l-1869 63zm952-3323.9c-4.9 0-9.7 0-14.6.1-421.5 4.8-667.2 237.6-799.1 432.1-161.7 238.5-222.8 519.3-225.9 687.3-4.2 227.5 112.9 549.6 216.2 833.9 79.6 218.8 154.7 425.5 149.3 527.6-10.3 197.7-252.2 674.9-326 816.5-9.1 17.3-8.3 37.5 2.1 54 10.5 16.6 28.2 26 47.9 25.4l1891.2-63.8c14-.4 26.5-8 33.3-20.2 6.9-12.1 6.9-26.7.1-38.9-7.2-13-18.8-32-33.4-56.2-88-145.6-294.1-486.7-283.4-688.6 3.7-68.6 64.6-250.7 135-461.5 120.7-360.9 270.9-810.1 254.5-1037.3-6.1-84.7-42.5-381.5-252.6-644.5-191.3-239.6-465.9-365.9-794.6-365.9" style="fill:#211d1d;fill-opacity:1;fill-rule:nonzero;stroke:none" transform="matrix(.01891 0 0 -.01891 -305.397 883.498)"/><path d="M22354.5 43658.8c41.6-45 43.6-119.3 2.9-165.1-146-164.6-532.9-281.3-929.2-279.4-460.4 2.2-912.7 113-1001.9 368.3-18.3 52.5 1 111.3 47.1 142.5 242.5 163.8 560.4 163.3 954.8 163.3 521.7 0 759.3-49.7 926.3-229.6" style="fill:#d3f0eb;fill-opacity:1;fill-rule:nonzero;stroke:none" transform="matrix(.01891 0 0 -.01891 -305.397 883.498)"/><path d="M21424.5 43861.9c-391.8 0-701.2 0-936.3-158.8-36.2-24.4-51.3-70.4-36.9-111.8 89.2-255.4 563.2-348.5 977-350.5 386.2-1.9 768.5 111.9 909.2 270.5 31.2 35.1 30 94.3-2.5 129.4-155.3 167.5-375.6 221.2-906.8 221.2zm13.6-674.1h-10.1c-431.9 2.1-928.4 104.6-1026.7 386-22.4 64.1 1.1 135.4 57.2 173.3 248.5 167.8 565.2 167.8 966 167.8h3.7c548.7 0 778.5-57.8 945.7-238.1 51.1-55.1 52.6-145.2 3.3-200.7-151.1-170.3-536.3-288.3-939.1-288.3" style="fill:#211d1d;fill-opacity:1;fill-rule:nonzero;stroke:none" transform="matrix(.01891 0 0 -.01891 -305.397 883.498)"/><path d="M20882.3 37327.9c19.6.8 25.9-26.2 8-34.1-89.2-39.1-203.1-107.2-180-192.4 10.2-37.7 115.8-114.9 258.1-181.2 122.9-57.2 278.3-82.9 393.9-97.9 21-2.7 20.6-33.1-.5-35.4-93.7-9.9-227.8-24-362.6-.4-356 62.4-489.8 182.9-552.4 240.2-77.8 71.3-35.2 203.7 67.1 252.5 66.9 31.9 250 44.1 368.4 48.7M22118.6 37238.3c-6.4 5.3-1.2 15.6 6.8 13.6 84.8-20.7 300.4-90.4 208.7-248-36.5-62.6-187-103.7-257.9-120-8.3-1.9-13.2 8.8-6.5 13.9 44.4 33.2 123.1 100.4 144 171 17.2 58.1-27.8 113.3-95.1 169.5M21108.3 41209.6c192.4-232.8 191.8-326.2 28.9-432.5-105-68.5-312.4-13.1-411.9 354.8-99.6 367.8 58.9 528.7 252.4 809 8.8-204.8-112.3-437.6 130.6-731.3" style="fill:#fff;fill-opacity:1;fill-rule:nonzero;stroke:none" transform="matrix(.01891 0 0 -.01891 -305.397 883.498)"/></g></svg>