<svg xmlns="http://www.w3.org/2000/svg" width="200mm" height="200mm" viewBox="0 0 200 200"><g style="display:inline"><path d="M22917.7 26514.9c0-103.2-58.9-199.4-170.4-284.7-79.2-60.6-183.5-112.8-306.3-159.2-99.6-37.5-210-74.6-331.9-100.2-107.4-22.6-222.2-44.2-342.8-55.8-111.3-10.6-227.9-15-347.3-15-119.3 0-234.7 16.7-346 27.4-120.6 11.5-237.2 18.2-344.7 40.8-121.8 25.5-236.3 52.9-335.9 90.5-122.9 46.4-220.5 113.4-299.8 174-111.4 85.3-175.5 179-175.5 282.2 0 103.3 65.3 195.4 176.7 280.7 79.3 60.7 177.2 125.5 300 171.9 99.6 37.5 212 72.4 333.8 98 107.4 22.6 223.9 34.1 344.5 45.7 111.3 10.6 227.6 16.7 346.9 16.7 119.4 0 235.4-8.6 346.6-19.3 120.7-11.5 234.9-32.7 341.9-57.5 232.5-53.8 88.7-17.7 332.7-94.3 125.3-39.4 225.8-99.1 305.1-159.8 111.5-85.3 172.4-178.8 172.4-282.1" style="fill:#e9f8f5;fill-opacity:1;fill-rule:nonzero;stroke:none" transform="matrix(.02234 0 0 -.02234 -378.441 770.008)"/><path d="M21419 27101.4c-113.4 0-229.3-5.6-344.3-16.6-109-10.5-232.5-22.3-341.7-45.2-109.2-23-220.1-55.6-329.8-97-130.1-49-229.7-119.4-293.2-168.1-112-85.6-166.4-170.5-166.4-259.6 0-89.4 55.6-177.3 165.1-261.1 71.6-54.8 169.7-123.7 293.1-170.3 103.6-39.1 226-67.1 332-89.4 82.9-17.4 171.2-25.2 264.6-33.4 25.5-2.2 51.2-4.4 77.1-6.9 27.5-2.7 55.3-5.7 83.3-8.7 84.4-9.1 171.7-18.6 260.2-18.6 127.4 0 240.2 4.9 344.8 14.9 124 11.9 241.4 34.7 339.9 55.4 101.9 21.3 203 51.9 327.9 99.1 128.1 48.3 226.1 99.1 299.6 155.4 106.2 81.2 160 169.9 160 263.6 0 91-54.5 178.8-162 261-91.6 70.1-191.5 122.4-296.9 155.6-82.6 25.9-121.3 39.1-144.5 47-35.6 12.1-35.6 12.1-112.7 29.8-19.3 4.5-43.2 10-73.6 17-121.5 28.1-232.2 46.8-338.4 56.9-93 9-216.2 19.2-344.1 19.2m0-1227.9c-91.3 0-180.1 9.6-265.9 18.9-27.8 3-55.3 6-82.6 8.6-25.8 2.5-51.4 4.7-76.7 6.9-95.1 8.4-184.9 16.2-270.9 34.3-108 22.7-232.9 51.3-339.9 91.7-129.8 49-232 120.8-306.5 177.8-123.4 94.4-185.9 196.4-185.9 303.2 0 106.7 61.2 205.4 187.1 301.7 66.3 50.7 170.2 124.1 306.8 175.7 112.2 42.3 225.8 75.7 337.6 99.2 112.1 23.5 237.2 35.5 347.5 46.1 116.7 11.1 234.3 16.8 349.4 16.8 130.2 0 255-10.3 349.2-19.4 108.5-10.4 221.4-29.4 345.3-58 30.3-7.1 54.2-12.6 73.4-17 78.3-17.9 79.8-18.3 118-31.3 23-7.8 61.3-20.9 143.3-46.6 111.3-35 216.7-90.2 313.2-164.1 121.3-92.8 182.8-194.8 182.8-303.1 0-111-60.8-213.9-180.7-305.7-77.8-59.5-180.2-112.8-313.2-163-127.5-48.1-231.1-79.4-335.7-101.3-99.9-21-219.2-44.1-345.8-56.3-106.2-10.1-220.7-15.1-349.8-15.1" style="fill:#211d1d;fill-opacity:1;fill-rule:nonzero;stroke:none" transform="matrix(.02234 0 0 -.02234 -378.441 770.008)"/><path d="M21978.5 29596.3c-141.3-141.2-360.5-235.5-564.4-237.6-209.4-2.1-407.4 79.2-545.3 219.9l183.2-285.8c112-144.9 179.8-336.7 181-533.1l10-1642.8c.1-19.5-.9-39-3.2-58.4-28.2-230-178.1-453.7-181.2-490.5-3.2-38.7 129.1-125.9 374.4-129.1 177.5-2.3 284 71.4 329.3 112.3 14.4 13 14.9 34.9 2.2 49.4-68.3 78-111.1 231.7-135.1 346.9-16.6 79.9-24.8 161.2-25.1 242.7l-5.7 1554.8c-1.2 204.1 59.7 406.5 192.7 573z" style="fill:#fff;fill-opacity:1;fill-rule:nonzero;stroke:none" transform="matrix(.02234 0 0 -.02234 -378.441 770.008)"/><path d="M21085.2 26566.8c10.2-25 127.6-98.6 348.2-101.5 166.3-2.1 266.6 65.2 311.2 105.5 3.8 3.4 3 9 0 12.4-72 82.3-116.5 240.6-141.1 359-16.7 80.4-25.3 163.9-25.6 247.9l-5.7 1554.8c-1.3 221.1 67 424.6 197.7 588.7l92 136.7c-133.9-84.8-296.5-136.4-447.5-138-156.4-1.6-308.6 42.2-435.2 123.1l94.4-147.3c116.9-151.7 184.6-351.4 185.8-548.2l10-1642.8c.1-21.5-1-42.3-3.4-61.8-20.4-166.6-101.2-326.6-149.5-422.2-13.4-26.4-28.4-56.2-31.3-66.3m356.1-154.4c-2.9 0-5.7 0-8.6.1-195.7 2.6-332.3 57.7-380.9 111.3-14.2 15.6-20.8 31.2-19.5 46.4 1.2 15.4 11.6 36.4 37 86.8 46.8 92.5 125 247.3 144.2 404.7 2.1 17.3 3.2 35.8 3 55.1l-9.9 1642.8c-1.2 185.8-65.1 374.3-175.5 517.1l-1.4 1.9-321.6 501.7 179.6-183.2c134-136.8 326.1-214.3 526.2-211.9 193.9 1.9 408.2 92.2 545.9 229.8l40.6-33.4-188.5-280.1c-123.5-154.7-188.1-347.1-186.9-556.4l5.7-1554.8c.3-80.5 8.6-160.4 24.6-237.4 23.3-112.1 64.6-261.3 129.1-334.9 22.6-25.8 20.7-63.8-4.3-86.4-49.7-44.8-159.2-119.2-338.8-119.2" style="fill:#211d1d;fill-opacity:1;fill-rule:nonzero;stroke:none" transform="matrix(.02234 0 0 -.02234 -378.441 770.008)"/><path d="M23453.9 31381.1c1.1 11.3 1.8 22.7 1.8 34.2 0 140.3-82.8 267.3-234.2 383.2-107.7 82.4-247.6 154.1-414.5 217-135.3 51.1-286.5 93.5-452.1 128.2-146 30.7-300.5 62.5-464.4 78.2-81.5 7.8-165 14.7-250 19.5-51.5 3.1-103.6 5.1-156.2 6-3.3.1-6.5.1-9.7.2-17.2.2-34.4.4-51.7.4-1.1 0-2.2.1-3.3.1h-2.2c-15.2 0-30.4-.2-45.5-.3-145.4-1.5-287.3-9.4-423.6-22.5-163.9-15.7-322.1-31.3-468.1-62-165.5-34.8-318.1-82.2-453.4-133.2-166.9-63-299.9-151.1-407.6-233.5-151.4-115.9-240.1-241-240.1-381.3 0-18.5 1.6-36.8 4.6-54.8v-.3c6.8-605.2 416.7-983.5 1007.2-1171.9l407.9-525.8c135-191.7 367.2-306.3 615.3-303.8 233.4 2.4 486.7 125.6 620.5 301.6l433.3 555.7c572 190.7 1003.3 500.4 986.1 1164.1z" style="fill:#f6fcfb;fill-opacity:1;fill-rule:nonzero;stroke:none" transform="matrix(.02234 0 0 -.02234 -378.441 770.008)"/><path d="M21417.5 32221.5c-15.4 0-30.4-.1-45.3-.3-139.6-1.3-281.3-8.9-421.3-22.3-148.4-14.2-316.5-30.3-465.2-61.5-148.9-31.3-300.1-75.7-449.5-132.1-177.9-67.1-314-163.3-400.9-229.8-154.5-118.3-229.7-236.1-229.7-360.2 0-16.5 1.4-33.5 4.2-50.5l.4-4.3c7.8-689.7 542-1004.4 988.8-1146.9l7.8-2.5 413.7-533.3c130.7-185.7 352.1-295.1 593.4-292.6 224.5 2.3 471.1 122.1 599.6 291.2l438.4 562.3 7.6 2.5c684 228 982.5 579.1 968 1138.2l-.1 1.7.1 2.5c1.2 12.1 1.7 22.2 1.7 31.7 0 126.6-75.3 248.5-223.8 362.1-101.7 77.8-238.9 149.6-407.8 213.3-130.6 49.3-281.4 92.1-448.1 127.1-130.5 27.4-293 61.5-461.5 77.7-92.4 8.8-173.9 15.2-249 19.4-51.3 3.1-103.5 5.1-155.2 6l-9.7.2c-17 .2-34.1.4-51.3.4h-5zm-11.6-2889.3c-254.8 0-489.1 117.1-628.4 314.5l-402.5 518.9c-309.6 99.9-553.9 246-726.1 434.5-189.9 207.6-288 462.7-291.7 758.2-3.1 19.1-4.6 38.3-4.6 57 0 141.7 81.9 273.3 250.5 402.3 89.5 68.6 229.9 167.7 414.3 237.3 152 57.3 305.9 102.5 457.4 134.3 151.6 31.9 321.3 48.2 471 62.5 141.5 13.6 284.8 21.2 425.8 22.6 15.2.2 30.5.3 45.8.3l5.5-.1c17.4 0 34.8-.1 52.1-.4l9.8-.2c52.4-.9 105.3-2.9 157.2-6 75.8-4.3 157.9-10.7 251.1-19.6 171.4-16.5 335.5-50.9 467.3-78.6 169.4-35.6 322.8-79.1 456-129.3 173.7-65.6 315.4-139.9 421.2-220.9 162.3-124.2 244.6-260.2 244.6-404.2 0-10.7-.5-21.8-1.7-34.9 8.2-319.6-83.3-574.1-279.5-778.1-160.5-166.9-395.1-300.7-717.1-408.9l-428.4-549.4c-137.5-181-401.2-309.3-641.1-311.8z" style="fill:#211d1d;fill-opacity:1;fill-rule:nonzero;stroke:none" transform="matrix(.02234 0 0 -.02234 -378.441 770.008)"/><path d="M21484.3 32247.4c52.6-.9 104.6-3.1 156.2-6-51.5 3.1-103.6 5.1-156.2 6" style="fill:#fff;fill-opacity:1;fill-rule:nonzero;stroke:none" transform="matrix(.02234 0 0 -.02234 -378.441 770.008)"/><path d="M21639 32215c-55.3 3.1-106 5.1-155.2 6l.9 52.8h.1c52.4-.9 105.3-2.9 157.2-6z" style="fill:#211d1d;fill-opacity:1;fill-rule:nonzero;stroke:none" transform="matrix(.02234 0 0 -.02234 -378.441 770.008)"/><path d="M21422.9 32248c17.3 0 34.5-.1 51.7-.4-17.2.2-34.4.4-51.7.4" style="fill:#fff;fill-opacity:1;fill-rule:nonzero;stroke:none" transform="matrix(.02234 0 0 -.02234 -378.441 770.008)"/><path d="M21474.2 32221.2h-.1c-17 .2-34.1.4-51.3.4l.1 52.9c17.4-.1 34.8-.2 52.1-.5z" style="fill:#211d1d;fill-opacity:1;fill-rule:nonzero;stroke:none" transform="matrix(.02234 0 0 -.02234 -378.441 770.008)"/><path d="M21418.6 32248.1h-1.2c-15.2 0-30.4-.2-45.5-.3 15.5.1 31.1.3 46.7.3" style="fill:#fff;fill-opacity:1;fill-rule:nonzero;stroke:none" transform="matrix(.02234 0 0 -.02234 -378.441 770.008)"/><path d="m21372.1 32221.3-.6 52.9q22.95.3 45.9.3h1.2v-52.9q-23.25 0-46.5-.3" style="fill:#211d1d;fill-opacity:1;fill-rule:nonzero;stroke:none" transform="matrix(.02234 0 0 -.02234 -378.441 770.008)"/><path d="M23453.9 31381.1c-12-127.4-90.6-246.2-229.7-352.6-107.7-82.4-249.3-153.3-416.2-216.3-135.2-51-285.3-101.4-450.8-136.2-146-30.6-301.9-60-465.8-75.7-151.2-14.5-309.7-20.4-471.8-20.4s-318.9 22.7-470.1 37.1c-163.9 15.8-322.2 24.8-468.2 55.4-165.5 34.8-321.2 72-456.5 123.1-166.9 63-299.6 154-407.3 236.4-131.4 100.6-214.2 209.8-233.8 328.6v-.3c6.8-605.2 416.7-983.5 1007.2-1171.9l407.9-525.8c135-191.7 367.2-306.3 615.3-303.8 233.4 2.4 486.7 125.6 620.5 301.6l433.3 555.7c572 190.7 1003.3 500.4 986.1 1164.1z" style="fill:#e9f8f5;fill-opacity:1;fill-rule:nonzero;stroke:none" transform="matrix(.02234 0 0 -.02234 -378.441 770.008)"/><path d="M19422.9 31195c84-575.8 566.7-850.8 976.1-981.4l7.8-2.5 413.7-533.3c130.8-185.7 352.9-295 593.4-292.6 224.5 2.3 471.1 122.1 599.6 291.2l438.4 562.3 7.6 2.5c608.2 202.7 911.6 502.7 961.1 959.8-40.4-67.9-100.6-132.6-180.2-193.6-104.8-80.2-243.2-152.1-423-220-172.9-65.2-313.1-107.6-454.8-137.3-135.4-28.5-297.1-59.8-468.7-76.2-144.1-13.8-299.2-20.6-474.3-20.6-123.6 0-244 13.1-360.3 25.7-37 4-75.3 8.1-112.3 11.7-35.1 3.3-69.9 6.4-104.3 9.4-128.9 11.3-250.6 22-366.9 46.4-146.4 30.7-315.5 69.5-460.3 124.2-175.3 66.1-313.4 163.1-414.1 240.1-77.5 59.3-137.1 120.9-178.5 184.2m1983-1862.8c-254.8 0-489.1 117.1-628.4 314.5l-402.5 518.9c-309.6 99.9-553.9 246-726.1 434.5-190.2 208-288.4 463.7-291.7 759.8v1l52.6 3.9c17.6-106.7 92.9-211.7 223.8-311.9 97.9-74.8 231.8-168.9 400.6-232.6 141.4-53.4 308.1-91.6 452.5-121.9 113.2-23.8 233.4-34.3 360.6-45.5 34.6-3 69.5-6.1 104.7-9.5 37.4-3.5 75.8-7.7 113-11.7 114.9-12.5 233.8-25.3 354.6-25.3 173.4 0 326.9 6.6 469.3 20.3 168.9 16.2 328.8 47.1 462.8 75.3 138.9 29.1 276.7 70.8 447 135 174.9 66 308.8 135.5 409.4 212.6 134.4 102.8 208.2 215.2 219.4 334l46.6-1.5 6.3.3.1-1.5c8.3-319.8-83.2-574.4-279.5-778.6-160.5-166.9-395.1-300.7-717.1-408.9l-428.4-549.4c-137.5-181-401.2-309.3-641.1-311.8z" style="fill:#211d1d;fill-opacity:1;fill-rule:nonzero;stroke:none" transform="matrix(.02234 0 0 -.02234 -378.441 770.008)"/><path d="M21581.9 30021.7c-52.2 0-107.5 1.3-165.8 4.1-792.7 38.9-1025.9 134.1-1035.5 138.2-13.4 5.6-19.7 21.1-14 34.6 5.7 13.4 21.1 19.7 34.6 14.1 2.2-1 237.9-95.9 1017.5-134.1 473.5-23.2 750.4 63.1 753.2 64 13.9 4.4 28.7-3.3 33.2-17.2 4.4-13.9-3.2-28.7-17.1-33.2-10.2-3.2-225.1-70.5-606.1-70.5" style="fill:#211d1d;fill-opacity:1;fill-rule:nonzero;stroke:none" transform="matrix(.02234 0 0 -.02234 -378.441 770.008)"/><path d="M20720.7 26872.5c26 5 39.8-32.5 17.4-47.4-111.2-73.8-249.7-193.9-201.8-311.6 21.2-52.1 177.9-142 381.2-209 175.6-57.9 388.3-64.1 545.7-62.7 28.6.3 34.2-43.6 6.5-50.9-123.2-32.7-299.4-79.5-484.2-72.2-488 19.3-690.9 165.7-786 235.6-118.2 86.9-88 285.4 38.8 375.5 83 59 325.1 112.7 482.4 142.7M22436 26762.3c-8.6 7.2-1.6 21 9.2 18.4 114.4-28 405.4-122.1 281.6-334.8-49.2-84.5-252.4-140.1-348.1-162-11.1-2.6-17.8 11.9-8.7 18.7 59.9 44.9 166.1 135.5 194.3 230.8 23.3 78.5-37.4 153-128.3 228.9M20823.5 29893.4s155-310 340-335 305 35 285 135c-6.4 32-127.6-14-265 25-164.7 46.8-351.8 169.6-360 175" style="fill:#fff;fill-opacity:1;fill-rule:nonzero;stroke:none" transform="matrix(.02234 0 0 -.02234 -378.441 770.008)"/></g></svg>