<svg xmlns="http://www.w3.org/2000/svg" width="200mm" height="200mm" viewBox="0 0 200 200"><g style="display:inline"><path d="M10067.2 14842.8c-341.27 0-685.7 58.1-1004.65 173.8-150.3 54.5-311.84 139.2-344.71 274.1-28.12 115.4 59.36 219 176.7 276.1 76.27 37 382.07 115.4 470.99 121.4 148.68 10 278.36 14.7 396.35 14.7 18.43 0 36.61-.1 54.5-.3-81.67-163.1-256.86-305.2-263.81-310.7l-22.87-15.4 17.18-22.3c114.16-148.3 270.27-162 478.32-165.2 6.8-.1 13.6-.2 20.6-.2 120.4 0 272.3 16.4 354.1 89l21.6 19.2-21.1 19.8c-117.2 109.8-187.3 200.3-221.9 363.1 212-24.6 413.3-67.8 673.4-124.8 85.6-18.8 172.3-39.7 247.7-80.2 75.5-40.5 139.2-103.8 153.7-177.6 15.6-79-28.1-157.9-94.2-211.8-66.2-53.9-152.4-86.6-238.9-114.1-270.2-85.9-560.4-128.6-853-128.6" style="fill:#e6f6f4;fill-opacity:1;fill-rule:nonzero;stroke:none" transform="matrix(.02211 0 0 -.02211 -120.77 519.214)"/><path d="M9764.3 15676.6c-117.95 0-247.53-4.8-396.99-14.9-87-5.9-388.71-83.6-461.17-118.8-91.76-44.6-189.38-135.8-162.53-246 24.2-99.3 134.55-185.3 327.98-255.4 316.76-114.8 657.54-172.6 995.31-172.6 289.6 0 576.9 42.4 845.2 127.7 81.8 26 166.2 57.2 230.2 109.4 65.7 53.5 97.4 123.1 85 186.2-11.5 58.9-64 118.4-140.2 159.3-72.3 38.8-155.2 58.9-240.9 77.7-430.7 94.5-693 147.4-1081.9 147.4m302.6-860.7c-343.96 0-690.86 58.8-1013.38 175.7-214.14 77.7-332.37 173.4-361.44 292.8-28.24 115.9 46.68 236.1 190.87 306.2 77.74 37.8 387.78 117.7 480.8 124 649.45 43.7 927.35-9.3 1493.85-133.6 89.5-19.7 176.3-40.8 254.6-82.8 91.4-49 152.3-120.4 167.2-195.8 16.2-82.6-22.5-171.4-103.6-237.5-70.8-57.8-160.9-91.2-247.6-118.8-273.4-86.9-566.3-130.2-861.3-130.2" style="fill:#211d1d;fill-opacity:1;fill-rule:nonzero;stroke:none" transform="matrix(.02211 0 0 -.02211 -120.77 519.214)"/><path d="M9567.83 15370.3c108.76-141.3 260.74-151.9 457.77-154.9 138.3-2.1 283.6 17.2 356.7 82.2-114.1 106.8-192.8 202.2-229.9 377.9-47.1 222.6-27.7 534.5-26.2 766.9 4.8 710.9 15.4 1457.3 18.3 2196.3l-243.75 19.5c-18.39-746.1 5.74-1429.5 18.57-2130.3 2.98-162.1-23.69-532.3-36.13-694.1-17.23-223.8-308.99-459.2-315.36-463.5" style="fill:#f6fcfb;fill-opacity:1;fill-rule:nonzero;stroke:none" transform="matrix(.02211 0 0 -.02211 -120.77 519.214)"/><path d="M9604.9 15366.8c98.55-111.4 232.39-122.1 421.1-125 141.7-2.1 251.8 18.4 315.4 58.2-109.3 106-180 205-214.9 370-38.2 181.1-33.4 417-29.1 625.2 1.1 52 2.1 101.1 2.4 147.4 2 296.1 5.1 605 8 903.7 4.2 415.5 8.4 844.8 10.2 1268l-191.5 15.3c-13.44-578.4-1.46-1128.4 10.15-1660.6 3.15-144.1 6.4-293.2 9.1-440.6 3.02-164.7-24.32-542-36.22-696.6-15.47-201.2-233.38-403.9-304.63-465m440.9-178c-7 0-13.8.1-20.6.2-208.05 3.2-364.16 16.9-478.32 165.2l-17.18 22.3 22.87 15.4c8.81 6.9 288.08 233.6 304.27 444 11.84 153.8 39.04 529.1 36.07 691.5-2.7 147.3-5.95 296.3-9.09 440.4-11.81 541.4-24.02 1101.2-9.49 1691.1l.69 27.9 295.98-23.7-.1-24.5c-1.7-431.3-6-869.3-10.2-1292.8-3-298.7-6-607.5-8-903.6-.3-46.7-1.4-95.9-2.4-148-4.3-205.4-9.1-438.1 27.9-613.2 34.6-163.5 104.7-254.1 222.2-364.2l21.1-19.8-21.6-19.2c-81.8-72.6-233.7-89-354.1-89" style="fill:#211d1d;fill-opacity:1;fill-rule:nonzero;stroke:none" transform="matrix(.02211 0 0 -.02211 -120.77 519.214)"/><path d="M10928.7 20389.3c-43.9 565.9-168.8 1140.4-231.1 1678 .5 45.1-18.1 95.5-60.8 151.1-178 232-1032.47 289.7-1220.6-41.5-8.03-32-9.61-61.8-5.69-89.6-70.04-251.5-132.04-716.9-162.06-949.6-30.13-234.1-59.52-480.1-73.29-726.2-14.15-251.6-11.94-503.1 21.85-742.9 57.32-405.6 255.89-1111.1 579-1341.7 362.99-258.8 720.49 98.5 901.99 450.3 257.3 498.5 293.9 1050.8 250.7 1612.1" style="fill:#d7f2ed;fill-opacity:1;fill-rule:nonzero;stroke:none" transform="matrix(.02211 0 0 -.02211 -120.77 519.214)"/><path d="M9441.06 22166.9c-6.23-26.4-7.69-51.9-4.3-75.9l.76-5.5-1.48-5.3c-73.24-263.1-139.52-777-161.29-945.9-27.89-216.7-58.84-469.2-73.11-724.3-15.81-281-8.74-522.3 21.64-737.7 57.99-410.5 257.16-1101.8 568.14-1323.8 106.25-75.8 218.18-100.1 332.68-72.4 190 46 388.2 237.9 530.3 513.2 220.1 426.5 298.9 934.2 247.9 1598-25.6 329.4-79.2 664.7-131 989-38.1 238.5-74.1 463.7-100 687.9l-.2 1.7v1.7c.4 40.9-18.2 86.2-55.3 134.6-91.8 119.7-394.9 197.3-689.84 177-238.94-16.6-415.34-93.9-484.9-212.3m591.34-3955c-93.47 0-184.52 31.2-271.77 93.4-349.94 249.8-538.86 998.6-589.87 1359.6-30.85 218.9-38.08 463.6-22.08 748.1 14.39 256.9 45.46 510.5 73.47 728 37.74 292.7 95.4 708.3 161.38 948.2-3.5 30.2-1.16 61.8 6.96 94.1l.88 3.5 1.78 3.1c77.21 136 270.09 224.2 529.15 242.2 316.1 21.9 632.3-63.1 735.6-197.6 44-57.4 66.3-113.2 66.3-165.8 25.8-222.5 61.6-446.7 99.5-684 52-325.4 105.7-661.8 131.4-993.3v-.1c51.9-674-28.7-1190.7-253.6-1626.3-149-288.8-360.2-490.9-565-540.4-34.9-8.5-69.7-12.7-104.1-12.7" style="fill:#211d1d;fill-opacity:1;fill-rule:nonzero;stroke:none" transform="matrix(.02211 0 0 -.02211 -120.77 519.214)"/><path d="M10033.1 18265c-82.77 0-163.76 27.9-241.68 83.5-310.98 222-510.15 913.3-568.14 1323.8-30.38 215.4-37.45 456.7-21.64 737.7 14.27 255.1 45.22 507.6 73.11 724.3 20.63 160 81.2 629.7 149.81 902.4 28.1-66.3 91.25-118.7 175.15-157.9 56.8-26.5 123-46.8 194.41-61.2 87.78-17.7 183.19-26.4 278.08-26.4 270.6 0 536.6 70.7 607.2 205.1 25.1-201.9 57.7-405.6 91.9-620 51.8-324.3 105.4-659.6 131-989 51-663.8-27.8-1171.5-247.9-1598-142.1-275.3-340.3-467.2-530.3-513.2-30.6-7.4-60.9-11.1-91-11.1" style="fill:#e6f7f4;fill-opacity:1;fill-rule:nonzero;stroke:none" transform="matrix(.02211 0 0 -.02211 -120.77 519.214)"/><path d="M10032.8 18238.5c-83.74 0-170.09 26.6-256.79 88.4-323.1 230.6-521.7 936-579 1341.7-33.8 239.7-36 491.3-21.89 742.9 13.79 246 43.19 492.1 73.28 726.1 30.11 232.8 92.12 698.2 162.11 949.7 2.49-17.7 7.24-34.5 14.05-50.6-68.61-272.7-129.18-742.4-149.81-902.4-27.89-216.7-58.84-469.2-73.11-724.3-15.81-281-8.74-522.3 21.64-737.7 57.99-410.5 257.16-1101.8 568.14-1323.8 77.92-55.6 158.91-83.5 241.68-83.5 30.1 0 60.4 3.7 91 11.1 190 46 388.2 237.9 530.3 513.2 220.1 426.5 298.9 934.2 247.9 1598-25.6 329.4-79.2 664.7-131 989-34.2 214.4-66.8 418.1-91.9 620 11.6 22 17.9 45.7 18.2 71 62.3-537.6 187.2-1112.1 231.1-1678 43.2-561.3 6.6-1113.7-250.8-1612.2-138.1-267.7-378.2-538.6-645.1-538.6" style="fill:#bbc9c5;fill-opacity:1;fill-rule:nonzero;stroke:none" transform="matrix(.02211 0 0 -.02211 -120.77 519.214)"/><path d="M9718.51 18888.4c-539.14 492.1-309.62 2374.9-118.8 2990.4 56.8-26.5 123-46.8 194.4-61.2-238.57-709.2-155.36-2936.9-75.6-2929.2" style="fill:#fff;fill-opacity:1;fill-rule:nonzero;stroke:none" transform="matrix(.02211 0 0 -.02211 -120.77 519.214)"/><path d="M9414.91 21996.9c-64.59-276.5-120.5-710.2-140.16-862.6-27.89-216.7-58.84-469.2-73.12-724.3-15.8-281-8.72-522.3 21.64-737.7 58-410.5 257.16-1101.9 568.15-1323.8 106.26-75.8 218.18-100.1 332.68-72.4 190 46 388.2 237.9 530.3 513.2 220.1 426.4 298.9 934.2 247.9 1598-25.6 329.3-79.2 664.7-131 989-31.9 199.8-62.3 390.3-86.6 578.7-89.2-117.4-313.8-174.3-511.9-187.1-318.42-20.5-653.47 52.9-757.89 229m617.49-3785c-93.46 0-184.52 31.2-271.77 93.4-349.94 249.8-538.86 998.6-589.87 1359.6-30.85 218.9-38.07 463.6-22.08 748.1 14.38 256.9 45.47 510.5 73.47 728 38.01 294.8 96.23 714.3 162.81 953.4l34.08 122.4 17.72-125.8c27.73-196.9 394.26-292 732.64-270.1 248.6 16 500.1 98.5 501.7 246.7l52.9 2.7c25.8-223 61.7-447.7 99.7-685.7 52-325.3 105.7-661.7 131.4-993.2v-.1c51.9-674-28.7-1190.7-253.6-1626.3-149-288.8-360.2-490.9-565-540.4-34.9-8.5-69.7-12.7-104.1-12.7" style="fill:#211d1d;fill-opacity:1;fill-rule:nonzero;stroke:none" transform="matrix(.02211 0 0 -.02211 -120.77 519.214)"/><path d="M9502.41 15538c19.63.8 25.93-26.2 7.95-34.1-89.19-39.2-203.09-107.2-180-192.4 10.21-37.7 115.88-115 258.16-181.2 122.87-57.3 278.28-83 393.85-97.9 21.03-2.7 20.63-33.2-.46-35.4-93.75-9.9-227.8-24.1-362.56-.4-356.01 62.4-489.83 182.8-552.4 240.1-77.82 71.3-35.24 203.8 67.01 252.5 66.95 31.9 250.03 44.2 368.45 48.8" style="fill:#fff;fill-opacity:1;fill-rule:nonzero;stroke:none" transform="matrix(.02211 0 0 -.02211 -120.77 519.214)"/></g></svg>