<svg xmlns="http://www.w3.org/2000/svg" width="200mm" height="200mm" viewBox="0 0 200 200"><g style="display:inline"><path d="M28608 9199.2c0 95.6-57.1 182.2-161.4 261.1-74.3 56.2-170.7 105-285.7 147.9-93.2 34.8-197.5 63.7-311.5 87.4-100.6 20.9-207.1 42.5-320.1 53.2-104.1 9.9-212.8 17.8-324.5 17.8s-220.5-5.6-324.7-15.5c-113-10.7-222-21.3-322.6-42.2-114.1-23.7-219.3-56-312.5-90.8-115-42.9-206.6-102.9-280.8-159.1-104.4-78.9-165.5-164.2-165.5-259.8 0-8.5.6-16.8 1.5-25.2-1.2-4.4-1.7-9-1.5-13.7 21.5-387.1 47.5-798.2 71.6-1193.6 0 0 .2-2.7.5-8.4 23.3-383.9 44.8-752.5 58.5-1070.2 24.7-573.9 6.4-960.8 1.3-1052.6-.5-4.1-1-8.3-.8-12.5-.5-2.7-.5-5.7-.5-8.6 0-88.9 55.2-169.4 150.9-242.7 68.2-52.1 152.1-109.7 257.9-149.6 85.4-32.2 184.1-55.9 288.7-77.8 92.5-19.4 192.7-25.1 296.3-34.9 95.7-9.4 194.9-23.6 297.5-23.6s202.8 3.6 298.5 12.8c103.6 10 202.3 28.5 294.6 48 104.8 22.1 199.8 53.8 285.4 86.1 105.6 39.8 195.2 84.9 263.4 137.1 95.7 73 146.4 155.7 146.4 244.6l34 2075.5 18.2 394 1.7 33.7c0 4 .2 7.9.5 11.8l.7 18c.3 3 .3 5.9.5 8.6l.8 15.8c0 2.4.2 4.7.2 6.8.2 3 .2 5.7.5 7.9l35.1 754.8-.2.1c4.6 19 7.1 38.2 7.1 57.8" style="fill:#d3f0eb;fill-opacity:1;fill-rule:nonzero;stroke:none" transform="matrix(.02302 0 0 -.02302 -526.11 313.583)"/><path d="M25896.7 7968.4c.1 0 .3-3.2.6-8.9 20.8-342.4 44.1-737.6 58.5-1070.3 24.3-567 7.1-951 1.2-1055.2l-.1-1.5c-.4-3.2-.7-6.1-.6-7.9l.2-3.2-.6-3.2c-.1-1.1 0-2.5 0-3.8 0-75.7 47.2-150.2 140.4-221.6 61.4-47 145.4-106.1 251.1-145.9 89.1-33.6 194-57.6 284.8-76.6 71.4-15 147.4-21.6 227.8-28.6 21.7-1.9 43.5-3.8 65.6-5.9 22.8-2.3 45.8-4.8 68.9-7.3 73.4-8 149.2-16.2 226.1-16.2 109.5 0 206.3 4.1 296 12.7 108.7 10.5 213 30.9 291.6 47.5 114 24.1 215.3 60 281.6 85 109.4 41.3 193.3 84.9 256.6 133.3 90.2 68.9 136 144.1 136 223.6l33.9 2076 20 427.9c0 4.3.3 8.5.5 12.8l.8 18.5c.1 1.1.1 2.2.2 3.2 0 1.7.1 3.4.2 5l.7 14.7c.1 1.5.1 2.9.2 4.3l.2 4.1c.1 1.1.1 2.1.2 3 0 1.6.1 3.2.2 4.5l33.8 726.4h-6l7.9 32.8c4.1 17.3 6.2 34.7 6.2 51.6 0 84.6-49.3 163.1-150.8 240-69.5 52.5-163.3 101-279 144.2-89.6 33.4-193.1 62.4-307.6 86.2-89.7 18.6-201.4 41.8-317.2 52.8-87 8.2-202.3 17.7-322 17.7-106.2 0-214.6-5.2-322.2-15.4-102-9.6-217.6-20.6-319.7-41.8-102.2-21.2-206-51.4-308.6-89.6-121.6-45.4-214.7-110.4-274.2-155.4-104.2-78.9-154.9-157-154.9-238.7 0-6.5.4-13.6 1.4-22.2l.6-5.2-1.4-4.9q-.75-2.55-.6-5.1c16.3-294.2 35.5-605.6 54-906.7 5.9-96.1 11.8-191.8 17.5-286.7m1323.9-2709.2c-79.8 0-157.1 8.5-231.8 16.6-23 2.5-45.7 5-68.3 7.2-21.8 2.1-43.6 4-65.1 5.8-82.1 7.2-159.6 13.9-234.1 29.6-92.8 19.4-200.1 44-292.6 78.9-112.2 42.3-200.3 104.2-264.6 153.4-107 81.9-161.3 170.6-161.3 263.7 0 2.8 0 6.3.5 10-.1 5 .4 9.6.8 13.4 5.9 104.7 22.9 486-1.3 1049.1-14.4 332.2-37.6 727.3-58.5 1069.8-.2 4.9-.4 7.2-.4 7.6-5.9 95.6-11.7 191.4-17.7 287.5-18.5 301.2-37.6 612.7-53.9 907-.3 5.7 0 11.3 1.1 16.9-.8 8.6-1.2 16.2-1.2 23.5 0 99.4 57.5 191.3 176 281 62.1 47 159.5 115 287.6 162.8 105.1 39.2 211.5 70.1 316.3 91.8 104.9 21.8 222.1 32.9 325.5 42.7 109.2 10.4 219.3 15.7 327.2 15.7 121.9 0 238.8-9.7 327.1-18 118.6-11.2 231.9-34.8 322.9-53.7 117.1-24.3 223.2-54.1 315.4-88.4 122.1-45.6 217.8-95.2 292.4-151.6 114-86.4 171.9-181.3 171.9-282.3 0-20-2.4-40.4-7-60.6l-35.2-755-.1-2.2c0-1.2-.1-2.6-.2-4 0-1.1-.1-2.2-.2-3.4v-2.2l-.1-1.3-.8-16.9c-.1-.9-.1-2-.2-3 0-1.6-.1-3.2-.2-4.8l-.7-17.5c-.3-3.9-.5-7.3-.5-10.7v-1.3l-1.7-33.7-18.3-393.9-33.9-2074.8c0-96.4-52.8-185.8-156.8-265.2-67.4-51.6-155.8-97.7-270.1-140.8-67.9-25.6-171.8-62.5-289.3-87.3-80-16.8-186.2-37.6-297.5-48.4-91.4-8.7-189.9-13-301.1-13" style="fill:#211d1d;fill-opacity:1;fill-rule:nonzero;stroke:none" transform="matrix(.02302 0 0 -.02302 -526.11 313.583)"/><path d="M28508.9 6222.2c0-77.6-50.7-149.9-146.5-213.9-68.1-45.6-157.7-84.9-263.3-119.7-85.6-28.2-180.6-56.1-285.3-75.3-92.4-17-191-33.3-294.7-42-95.7-8-196-11.2-298.6-11.2-102.5 0-201.7 12.5-297.4 20.5-103.7 8.7-203.9 13.7-296.3 30.7-104.7 19.2-203.2 39.8-288.8 68-105.6 34.9-189.6 85.2-257.7 130.8-95.8 64.1-126.7 124.7-126.7 202.3s31.9 156.7 127.7 220.8c68.2 45.6 152.3 94.3 257.9 129.1 85.6 28.3 182.2 54.5 286.9 73.7 92.4 17 192.5 25.7 296.2 34.3 95.7 8 195.6 12.6 298.2 12.6s202.3-6.5 298-14.5c103.7-8.7 201.5-26.2 293.9-43.2 104.7-19.2 200.4-42.7 286-70.9 105.6-34.9 194.1-74.5 262.3-120.1 95.8-64.1 148.2-134.4 148.2-212" style="fill:#fff;fill-opacity:1;fill-rule:nonzero;stroke:none" transform="matrix(.02302 0 0 -.02302 -526.11 313.583)"/><path d="M27220.5 6656.5c-97.5 0-197.1-4.2-296-12.5-93.7-7.9-199.9-16.7-293.6-34-93.9-17.2-189.2-41.7-283.4-72.8-111.5-36.8-196.9-89.5-251.5-126-78-52.2-116-117.2-116-198.8 0-62.1 19.6-116.5 115-180.3 61.4-41.1 145.4-92.7 251.3-127.7 89-29.3 194.1-50.4 285.3-67.1 71.2-13.1 147-18.9 227.3-25.1 22-1.7 44.1-3.4 66.4-5.2 23.6-2 47.4-4.3 71.5-6.5 72.6-6.9 147.7-14 223.7-14 109.5 0 206.4 3.7 296.4 11.2 106.6 8.9 207.5 26 292.1 41.6 112.1 20.5 209.5 50.6 281.8 74.4 109.9 36.2 193.9 74.4 256.9 116.5 89.4 59.8 134.8 124.4 134.8 192 0 65.5-45.9 129.4-136.5 190-63.6 42.6-149.7 82-255.9 117-82.3 27.1-177.3 50.7-282.5 70-82.5 15.2-185.1 34-291.3 42.9-79.9 6.7-185.8 14.4-295.8 14.4m0-922.9c-78.5 0-154.9 7.3-228.7 14.2-23.8 2.3-47.5 4.5-70.9 6.5-22.2 1.9-44.2 3.6-66 5.2-81.7 6.3-158.9 12.2-232.9 25.8-92.9 17-200.3 38.6-292.3 68.9-111.9 37-199.9 91-264.1 134-97 64.9-138.4 131.9-138.4 224.2 0 99.1 46.9 180.8 139.4 242.7 57.1 38.2 146.7 93.5 264.4 132.3 96.4 31.8 194.1 56.9 290.4 74.6 96.2 17.7 203.8 26.7 298.7 34.7 100.4 8.4 201.4 12.6 300.4 12.6 112 0 219.2-7.8 300.2-14.5 108.8-9.2 212.9-28.2 296.4-43.6 107.6-19.7 205-43.9 289.6-71.8 112.2-37 200.1-77.3 268.7-123.2 106.1-71.1 159.9-149.7 159.9-234 0-86.3-53.2-165.7-158.2-235.9-67-44.9-155.3-85-269.8-122.8-73.9-24.4-173.5-55.1-288.7-76.2-85.9-15.8-188.4-33.1-297.3-42.3-91.4-7.6-189.8-11.4-300.8-11.4" style="fill:#211d1d;fill-opacity:1;fill-rule:nonzero;stroke:none" transform="matrix(.02302 0 0 -.02302 -526.11 313.583)"/><path d="M27220.6 5312.3c-76.9 0-152.7 8.2-226.1 16.2-23.1 2.5-46.1 5-68.9 7.3-22.1 2.1-43.9 4-65.6 5.9-80.4 7-156.4 13.6-227.8 28.6-90.8 19-195.7 43-284.8 76.6-105.7 39.8-189.7 98.9-251.1 145.9-93.2 71.4-140.4 145.9-140.4 221.6 0 1.3-.1 2.7 0 3.8l.6 3.2-.2 3.2c-.1 1.8.2 4.7.6 7.9l.1 1.5c2.3 41 6.4 125.2 9 246.8 22.5-32.8 55.2-62.9 99.6-92.6 64.2-43 152.2-97 264.1-134 92-30.3 199.4-51.9 292.3-68.9 74-13.6 151.2-19.5 232.9-25.8 21.8-1.6 43.8-3.3 66-5.2 23.4-2 47.1-4.2 70.9-6.5 73.8-6.9 150.2-14.2 228.7-14.2 111 0 209.4 3.8 300.8 11.4 108.9 9.2 211.4 26.5 297.3 42.3 115.2 21.1 214.8 51.8 288.7 76.2 114.5 37.8 202.8 77.9 269.8 122.8 47 31.4 83.6 64.7 109.7 99.6l-4.4-271.5c0-79.5-45.8-154.7-136-223.6-63.3-48.4-147.2-92-256.6-133.3-66.3-25-167.6-60.9-281.6-85-78.6-16.6-182.9-37-291.6-47.5-89.7-8.6-186.5-12.7-296-12.7m1270.5 1037.6c-26.6 37-65.2 72.5-115.7 106.3-68.6 45.9-156.5 86.2-268.7 123.2-84.6 27.9-182 52.1-289.6 71.8-83.5 15.4-187.6 34.4-296.4 43.6-81 6.7-188.2 14.5-300.2 14.5-99 0-200-4.2-300.4-12.6-94.9-8-202.5-17-298.7-34.7-96.3-17.7-194-42.8-290.4-74.6-117.7-38.8-207.3-94.1-264.4-132.3-42.3-28.3-75.1-60.8-98.2-97.2-.5 151.1-3.9 329.6-12.6 531.3-14.4 332.7-37.7 727.9-58.5 1070.3-.3 5.7-.5 8.9-.6 8.9-5.7 94.9-11.6 190.6-17.5 286.7-16.9 274.4-34.3 557.2-49.6 827.9 27.6-51.1 73.1-99.4 133.4-145 74.2-56.2 165.7-118.2 280.7-161.1 93.2-34.8 200.4-60.1 314.5-83.8 100.6-20.9 209.7-27.1 322.7-37.8 104.2-9.8 212.2-25.3 323.9-25.3 111.8 0 220.9 4 325.1 13.9 113 10.7 220.4 30.7 321 51.6 114.1 23.7 217.5 58 310.7 92.8 115 42.9 212.6 91.2 286.8 147.4 54.8 41.4 96 85.6 122.7 132.1l-31.6-679.4c-.1-1.3-.2-2.9-.2-4.5-.1-.9-.1-1.9-.2-3l-.2-4.1c-.1-1.4-.1-2.8-.2-4.3l-.7-14.7c-.1-1.6-.2-3.3-.2-5-.1-1-.1-2.1-.2-3.2l-.8-18.5c-.2-4.3-.5-8.5-.5-12.8l-20-427.9z" style="fill:#e8f7f5;fill-opacity:1;fill-rule:nonzero;stroke:none" transform="matrix(.02302 0 0 -.02302 -526.11 313.583)"/><path d="M27220.6 5285.8c-102.6 0-201.8 14.2-297.5 23.6-103.6 9.8-203.8 15.5-296.3 34.9-104.6 21.9-203.3 45.6-288.7 77.8-105.8 39.9-189.7 97.5-257.9 149.6-95.7 73.3-150.9 153.8-150.9 242.7 0 2.9 0 5.9.5 8.6-.2 4.2.3 8.4.8 12.5 2.3 41.5 7.3 143.2 9.8 295.2 6.2-17.4 14.7-34 25.6-49.9-2.6-121.6-6.7-205.8-9-246.8l-.1-1.5c-.4-3.2-.7-6.1-.6-7.9l.2-3.2-.6-3.2c-.1-1.1 0-2.5 0-3.8 0-75.7 47.2-150.2 140.4-221.6 61.4-47 145.4-106.1 251.1-145.9 89.1-33.6 194-57.6 284.8-76.6 71.4-15 147.4-21.6 227.8-28.6 21.7-1.9 43.5-3.8 65.6-5.9 22.8-2.3 45.8-4.8 68.9-7.3 73.4-8 149.2-16.2 226.1-16.2 109.5 0 206.3 4.1 296 12.7 108.7 10.5 213 30.9 291.6 47.5 114 24.1 215.3 60 281.6 85 109.4 41.3 193.3 84.9 256.6 133.3 90.2 68.9 136 144.1 136 223.6l4.4 271.5c10.9 14.6 20 29.4 27.3 44.6l-5.2-316.1c0-88.9-50.7-171.6-146.4-244.6-68.2-52.2-157.8-97.3-263.4-137.1-85.6-32.3-180.6-64-285.4-86.1-92.3-19.5-191-38-294.6-48-95.7-9.2-195.9-12.8-298.5-12.8m-1278.7 1017.3c.2 161.5-2.9 358.7-12.6 585-13.7 317.7-35.2 686.3-58.5 1070.2-.3 5.7-.5 8.4-.5 8.4-24.1 395.4-50.1 806.5-71.6 1193.6-.2 4.7.3 9.3 1.5 13.7 3.6-31.3 13.5-61.6 29.4-91 15.3-270.7 32.7-553.5 49.6-827.9 5.9-96.1 11.8-191.8 17.5-286.7.1 0 .3-3.2.6-8.9 20.8-342.4 44.1-737.6 58.5-1070.3 8.7-201.7 12.1-380.2 12.6-531.3-11.1-17.4-19.9-35.7-26.5-54.8m2575 2.5c-6.7 15-15.3 29.7-25.8 44.3l25.2 1540.5 20 427.9c0 4.3.3 8.5.5 12.8l.8 18.5c.1 1.1.1 2.2.2 3.2 0 1.7.1 3.4.2 5l.7 14.7c.1 1.5.1 2.9.2 4.3l.2 4.1c.1 1.1.1 2.1.2 3 0 1.6.1 3.2.2 4.5l31.6 679.4c13.8 24 23.8 48.5 29.8 73.6l.2-.1-35.1-754.8c-.3-2.2-.3-4.9-.5-7.9 0-2.1-.2-4.4-.2-6.8l-.8-15.8c-.2-2.7-.2-5.6-.5-8.6l-.7-18c-.3-3.9-.5-7.8-.5-11.8l-1.7-33.7-18.2-394z" style="fill:#b5bcb9;fill-opacity:1;fill-rule:nonzero;stroke:none" transform="matrix(.02302 0 0 -.02302 -526.11 313.583)"/><path d="M27220.5 5786.5c-76 0-151.1 7.1-223.7 14-24.1 2.2-47.9 4.5-71.5 6.5-22.3 1.8-44.4 3.5-66.4 5.2-80.3 6.2-156.1 12-227.3 25.1-91.2 16.7-196.3 37.8-285.3 67.1-105.9 35-189.9 86.6-251.3 127.7-95.4 63.8-115 118.2-115 180.3 0 81.6 38 146.6 116 198.8 54.6 36.5 140 89.2 251.5 126 94.2 31.1 189.5 55.6 283.4 72.8 93.7 17.3 199.9 26.1 293.6 34 98.9 8.3 198.5 12.5 296 12.5 110 0 215.9-7.7 295.8-14.4 106.2-8.9 208.8-27.7 291.3-42.9 105.2-19.3 200.2-42.9 282.5-70 106.2-35 192.3-74.4 255.9-117 90.6-60.6 136.5-124.5 136.5-190 0-67.6-45.4-132.2-134.8-192-63-42.1-147-80.3-256.9-116.5-72.3-23.8-169.7-53.9-281.8-74.4-84.6-15.6-185.5-32.7-292.1-41.6-90-7.5-186.9-11.2-296.4-11.2" style="fill:#f4fbfa;fill-opacity:1;fill-rule:nonzero;stroke:none" transform="matrix(.02302 0 0 -.02302 -526.11 313.583)"/><path d="M27220.5 5733.6c-78.5 0-154.9 7.3-228.7 14.2-23.8 2.3-47.5 4.5-70.9 6.5-22.2 1.9-44.2 3.6-66 5.2-81.7 6.3-158.9 12.2-232.9 25.8-92.9 17-200.3 38.6-292.3 68.9-111.9 37-199.9 91-264.1 134-44.4 29.7-77.1 59.8-99.6 92.6-10.9 15.9-19.4 32.5-25.6 49.9.9 51.8 1.4 109.4 1.5 172.4 6.6 19.1 15.4 37.4 26.5 54.8 23.1 36.4 55.9 68.9 98.2 97.2 57.1 38.2 146.7 93.5 264.4 132.3 96.4 31.8 194.1 56.9 290.4 74.6 96.2 17.7 203.8 26.7 298.7 34.7 100.4 8.4 201.4 12.6 300.4 12.6 112 0 219.2-7.8 300.2-14.5 108.8-9.2 212.9-28.2 296.4-43.6 107.6-19.7 205-43.9 289.6-71.8 112.2-37 200.1-77.3 268.7-123.2 50.5-33.8 89.1-69.3 115.7-106.3 10.5-14.6 19.1-29.3 25.8-44.3l-2.8-175.1c-7.3-15.2-16.4-30-27.3-44.6-26.1-34.9-62.7-68.2-109.7-99.6-67-44.9-155.3-85-269.8-122.8-73.9-24.4-173.5-55.1-288.7-76.2-85.9-15.8-188.4-33.1-297.3-42.3-91.4-7.6-189.8-11.4-300.8-11.4m0 922.9c-97.5 0-197.1-4.2-296-12.5-93.7-7.9-199.9-16.7-293.6-34-93.9-17.2-189.2-41.7-283.4-72.8-111.5-36.8-196.9-89.5-251.5-126-78-52.2-116-117.2-116-198.8 0-62.1 19.6-116.5 115-180.3 61.4-41.1 145.4-92.7 251.3-127.7 89-29.3 194.1-50.4 285.3-67.1 71.2-13.1 147-18.9 227.3-25.1 22-1.7 44.1-3.4 66.4-5.2 23.6-2 47.4-4.3 71.5-6.5 72.6-6.9 147.7-14 223.7-14 109.5 0 206.4 3.7 296.4 11.2 106.6 8.9 207.5 26 292.1 41.6 112.1 20.5 209.5 50.6 281.8 74.4 109.9 36.2 193.9 74.4 256.9 116.5 89.4 59.8 134.8 124.4 134.8 192 0 65.5-45.9 129.4-136.5 190-63.6 42.6-149.7 82-255.9 117-82.3 27.1-177.3 50.7-282.5 70-82.5 15.2-185.1 34-291.3 42.9-79.9 6.7-185.8 14.4-295.8 14.4" style="fill:#b5bcb9;fill-opacity:1;fill-rule:nonzero;stroke:none" transform="matrix(.02302 0 0 -.02302 -526.11 313.583)"/><path d="M25896.7 7968.4c.1-.1.3-3.2.6-8.9 20.8-342.4 44.1-737.6 58.5-1070.3 24.3-567 7.1-951 1.2-1055.2l-.1-1.5c-.4-3.2-.7-6.1-.6-7.9l.2-3.2-.6-3.2c-.1-1.1 0-2.5 0-3.8 0-75.7 47.2-150.2 140.4-221.6 61.4-47 145.4-106.1 251.1-145.9 89.1-33.6 194-57.6 284.8-76.6 71.4-15 147.3-21.6 227.8-28.6 21.7-1.9 43.5-3.8 65.6-5.9 22.8-2.3 45.8-4.8 68.9-7.3 73.4-8 149.2-16.2 226.1-16.2 109.5 0 206.3 4.1 296 12.7 108.7 10.5 213 30.9 291.6 47.5 114 24.1 215.3 60 281.6 85 109.4 41.3 193.3 84.9 256.6 133.3 90.2 68.9 136 144.1 136 223.6l33.9 2075.9 20 428c0 4.3.2 8.5.5 12.8l.8 18.5c.1 1.1.1 2.2.2 3.2 0 1.7.1 3.4.2 5l.7 14.7c.1 1.5.1 2.9.2 4.3l.2 4.1c.1 1.1.1 2.1.2 3 0 1.6.1 3.1.2 4.5l29.3 628c-26.8-35.5-61.6-69.5-104.4-101.9-72.8-55.1-168.9-104.5-293.5-151-119.6-44.6-216.6-73.6-314.6-93.9-93.5-19.5-205.2-40.9-323.9-52.1-99.5-9.4-206.7-14-327.6-14-85.6 0-168.7 8.9-249.1 17.5-26 2.8-51.8 5.5-77.3 7.9-24.2 2.3-48.1 4.4-71.9 6.5-89 7.7-173.1 15-253.7 31.7-101.2 21-218.1 47.5-318.4 85-121.8 45.4-217.6 111.9-287.4 164.7-47.9 36.3-86 73.8-114.3 112.4 14.5-254.2 30.7-517.9 46.5-774.1 5.9-96.1 11.8-191.8 17.5-286.7m1323.9-2709.2c-79.8 0-157.1 8.5-231.8 16.6-23 2.5-45.7 5-68.3 7.2-21.8 2.1-43.6 4-65.1 5.8-82.1 7.2-159.6 13.9-234.1 29.6-92.8 19.4-200.1 44-292.6 78.9-112.2 42.3-200.3 104.2-264.6 153.4-107 81.9-161.3 170.6-161.3 263.7 0 2.8 0 6.3.5 10-.1 5 .4 9.6.8 13.4 5.9 104.7 22.9 486-1.3 1049.1-14.4 332.3-37.6 727.3-58.5 1069.8-.2 4.9-.4 7.2-.4 7.6-5.9 95.6-11.7 191.4-17.7 287.5-18.5 301.2-37.6 612.7-53.9 907-.4 7.5.4 15 2.4 22.3l36.7 131.9 15.2-136c8.3-74.4 59.6-147.6 152.4-217.9 67-50.6 158.6-114.3 273.9-157.4 97-36.1 211.5-62.1 310.7-82.7 77.5-16.1 160.1-23.2 247.5-30.8 23.9-2.1 48-4.2 72.3-6.5 25.7-2.4 51.7-5.2 77.9-8 79-8.4 160.7-17.2 243.5-17.2 119.3 0 224.8 4.5 322.6 13.8 116.2 11 226 32 318.2 51.2 95.2 19.8 189.8 48 306.7 91.7 119.8 44.6 211.4 91.6 280.1 143.6 78.5 59.4 126.6 123.6 142.8 190.8l4.9 20.3 24.8-.3 23.8-3.4-36.4-780.6-.1-2.2c0-1.2-.1-2.6-.2-4 0-1.1-.1-2.3-.1-3.4l-.1-2.2-.1-1.3-.8-16.9c-.1-.9-.1-2-.2-3 0-1.6-.1-3.2-.2-4.8l-.7-17.5c-.3-3.9-.5-7.3-.5-10.7v-1.3l-1.7-33.7-18.3-393.9-33.9-2074.8c0-96.4-52.8-185.8-156.8-265.2-67.4-51.6-155.8-97.7-270.1-140.8-67.9-25.6-171.8-62.5-289.3-87.3-80-16.9-186.1-37.6-297.5-48.4-91.4-8.7-189.9-13-301.1-13" style="fill:#211d1d;fill-opacity:1;fill-rule:nonzero;stroke:none" transform="matrix(.02302 0 0 -.02302 -526.11 313.583)"/><path d="M27864.7 5855.6c304.1 45.2 542 286.7 580.9 591.7 70.4 551.5 98.1 1476.4 115.5 1836.6l-18.2-394-34-2075.5c0-88.9-50.7-171.6-146.4-244.7-68.2-52.1-157.8-97.2-263.4-137-85.6-32.3-180.6-64-285.4-86.2-92.3-19.4-191-37.9-294.6-47.9-95.7-9.1-195.9-12.8-298.5-12.8s-201.8 14.2-297.5 23.6c-103.6 9.8-203.8 15.5-296.3 34.9-104.6 21.9-203.3 45.6-288.7 77.8-105.8 39.9-189.7 97.4-257.9 149.6-95.7 73.3-150.9 153.8-150.9 242.7 0 2.9 0 5.9.5 8.6-.2 4.2.3 8.3.8 12.5 5.1 91.8 23.4 478.7-1.3 1052.6-13.7 317.7-35.1 686.3-58.5 1070.2 7.5-96.5 87.5-981.1 152.7-1518.8 35.3-291.4 251.4-528.6 538.7-589 65.3-13.8 133.2-25.9 201.2-36.1 191.4-28.8 382.9-42.9 515-36.5 87.6 4.2 193 17.3 303.2 36.5 107 18.4 198.9 28.7 283.1 41.2" style="fill:#fff;fill-opacity:1;fill-rule:nonzero;stroke:none" transform="matrix(.02302 0 0 -.02302 -526.11 313.583)"/><path d="M25960.8 6757.2c16.6-494.4 1.5-827.3-3.8-923.2l-.2-1.5c-.4-3.2-.7-6.1-.6-7.9l.2-3.2-.6-3.2c-.1-1.1 0-2.5 0-3.8 0-75.7 47.2-150.3 140.5-221.7 61.4-47 145.4-106 251.1-145.9 89.1-33.6 194-57.6 284.8-76.6 71.4-15 147.3-21.6 227.8-28.6 21.6-1.9 43.5-3.8 65.6-5.9 22.8-2.2 45.8-4.7 68.9-7.3 73.4-8 149.2-16.2 226.1-16.2 109.4 0 206.2 4.1 296 12.7 108.7 10.5 213 30.9 291.6 47.5 114 24.1 215.3 60 281.6 85 109.4 41.3 193.3 84.9 256.6 133.3 90.3 69 136.1 144.2 136.1 223.7l13.9 853.9c-7.5-79.7-15.7-155.1-24.6-224.4-40.1-314.9-288.2-567.6-603.2-614.4-29.5-4.4-60-8.5-91.7-12.8-59.8-8.1-121.7-16.5-190.8-28.4-114.6-19.9-220.5-32.6-306.4-36.8-132.8-6.4-322.5 7-520.3 36.7-69.9 10.6-138.1 22.8-202.7 36.4-297.9 62.7-522.7 308.5-559.4 611.7-11.9 97.7-24.2 206.9-36.5 320.9m1259.8-1497.9c-79.8 0-157.1 8.5-231.8 16.6-23 2.5-45.7 5-68.3 7.2-21.8 2.1-43.6 4-65.1 5.8-82.1 7.2-159.6 13.9-234.1 29.6-92.8 19.4-200.1 44-292.5 78.9-112.2 42.2-200.4 104.1-264.7 153.3-106.9 82-161.2 170.7-161.2 263.7 0 2.8 0 6.3.5 10-.1 5 .4 9.6.8 13.4 5.9 104.7 22.9 486-1.3 1049.1-14.4 332.2-37.6 727.2-58.5 1069.8l52.7 3.7c6.5-83.8 87.2-977.5 152.6-1517.7 34-280.8 242.2-508.4 517.9-566.4 63.6-13.4 130.8-25.4 199.7-35.8 191.7-28.8 382.3-42.3 509.9-36.2 83.7 4 187.4 16.5 299.9 36.1 70.1 12.1 132.4 20.5 192.7 28.7 31.5 4.2 61.7 8.3 91.1 12.7 291.6 43.3 521.3 277.3 558.5 568.8 49.2 385.6 77.9 964.4 96.2 1388.8l.8 50.9 15.5 334.2c.9 21.6 1.9 41.9 2.8 60.6v.1l52.8-2.5-2.8-59.7c-2.5-55.3-5.1-119.9-8.1-191.5-2.5-59.5-5.2-124.8-8.2-194.1l-33.1-2023.5c0-96.3-52.7-185.7-156.8-265.2-67.4-51.5-155.7-97.6-270-140.7-68-25.6-171.9-62.5-289.4-87.3-80-16.9-186.1-37.6-297.4-48.4-91.5-8.7-190-13-301.1-13" style="fill:#211d1d;fill-opacity:1;fill-rule:nonzero;stroke:none" transform="matrix(.02302 0 0 -.02302 -526.11 313.583)"/><path d="M26095.1 8705.2c49.6-23.2 296.8-104.8 351.8-119.3 78.4-20.6 76-21.6 75.6-64l-34-2456c-.9-101.3-264.3 75.3-316.7 177.4-1 2-2 4.1-2.8 6.1-33.7 82.6-141.8 1818.1-173.9 2344.6-3.9 63.9-1 158.1 100 111.2M28436.5 8793.3c-7.3-5.4-78.4-42.8-149.9-70.5-24.7-9.6-39.8-26.6-39.5-43.8l31.1-1707c1.6-77.9 52.8-91.7 61.1-16.1.1 1.5.3 3 .4 4.5 5.1 61.7 132.8 1394 131.5 1796.8-.2 48.8-15.1 50.5-34.7 36.1" style="fill:#fff;fill-opacity:1;fill-rule:nonzero;stroke:none" transform="matrix(.02302 0 0 -.02302 -526.11 313.583)"/></g></svg>