<svg xmlns="http://www.w3.org/2000/svg" width="200mm" height="200mm" viewBox="0 0 200 200"><g style="display:inline"><path d="M16939.5 38163.2c0-77.6-50.7-149.8-146.5-213.9-68.1-45.6-157.7-84.8-263.3-119.7-85.6-28.2-180.6-56.1-285.3-75.3-92.4-17-191-33.2-294.7-41.9-95.7-8.1-196-11.3-298.5-11.3-102.6 0-201.8 12.5-297.5 20.5-103.7 8.7-203.9 13.7-296.3 30.7-104.7 19.2-203.2 39.8-288.8 68.1-105.6 34.8-189.6 85.1-257.7 130.7-95.8 64.1-126.7 124.7-126.7 202.3s31.9 156.7 127.7 220.8c68.2 45.6 152.3 94.3 257.9 129.1 85.6 28.3 182.2 54.5 286.9 73.7 92.4 17 192.5 25.7 296.2 34.4 95.7 8 195.7 12.5 298.3 12.5 102.5 0 202.2-6.4 297.9-14.5 103.7-8.6 201.5-26.2 293.9-43.2 104.7-19.2 200.4-42.7 286-70.9 105.6-34.8 194.1-74.5 262.3-120.1 95.8-64.1 148.2-134.3 148.2-212" style="fill:#fff;fill-opacity:1;fill-rule:nonzero;stroke:none" transform="matrix(.02105 0 0 -.02105 -229.4 967.161)"/><path d="M15651.2 38597.5c-97.6 0-197.2-4.2-296.1-12.5-93.6-7.8-199.8-16.7-293.6-34-93.8-17.2-189.2-41.7-283.4-72.8-111.5-36.7-196.9-89.5-251.5-126-78-52.2-115.9-117.2-115.9-198.8 0-62.1 19.5-116.5 114.9-180.3 61.4-41.1 145.4-92.7 251.3-127.7 89-29.3 194.2-50.4 285.3-67.1 71.2-13.1 147.1-18.9 227.4-25.1 21.9-1.7 44-3.4 66.3-5.2 23.6-2 47.5-4.3 71.6-6.5 72.6-6.9 147.6-14 223.7-14 109.5 0 206.4 3.7 296.3 11.2 106.6 8.9 207.5 26 292.1 41.6 87.6 16 174.4 39 281.8 74.4 109.9 36.3 193.9 74.4 256.9 116.5 89.4 59.8 134.8 124.5 134.8 192 0 65.5-45.9 129.5-136.5 190.1-63.6 42.5-149.7 81.9-255.9 116.9-82.3 27.2-177.3 50.7-282.5 70-82.4 15.2-185.1 34-291.3 42.9-80 6.7-185.9 14.4-295.7 14.4m0-922.8c-78.6 0-154.9 7.2-228.7 14.1-23.9 2.3-47.5 4.5-71 6.5-22.2 1.9-44.2 3.6-66 5.2-81.7 6.3-158.9 12.2-232.9 25.8-92.8 17.1-200.2 38.6-292.3 69-111.9 36.9-199.9 90.9-264.1 133.9-97 64.9-138.4 131.9-138.4 224.2 0 99.2 46.9 180.8 139.4 242.7 57.2 38.2 146.7 93.5 264.4 132.3 96.5 31.9 194.2 57 290.4 74.6 96.3 17.7 203.8 26.7 298.7 34.7 100.4 8.4 201.4 12.7 300.5 12.7 111.8 0 219.1-7.8 300.1-14.6 108.8-9.1 212.9-28.2 296.5-43.6 107.5-19.7 204.9-43.9 289.5-71.8 112.2-37 200.1-77.3 268.7-123.2 106.1-71 159.9-149.7 159.9-234 0-86.3-53.2-165.7-158.2-235.9-67-44.8-155.2-85-269.8-122.8-109.7-36.2-198.7-59.7-288.7-76.2-85.9-15.8-188.5-33.1-297.3-42.3-91.4-7.6-189.8-11.3-300.7-11.3" style="fill:#211d1d;fill-opacity:1;fill-rule:nonzero;stroke:none" transform="matrix(.02105 0 0 -.02105 -229.4 967.161)"/><path d="m17341.7 43031 .9 9.3-1.3.3c-6.6 102.2-71.3 195.8-185.4 282-88.1 66.7-203.7 124.8-342.3 175.9-112.5 41.6-238.7 76.1-377.1 104.4-122.2 25.1-251.7 51-389.3 63.9-126.9 11.8-259.3 21.4-395.6 21.4s-269-6.8-396-18.6c-137.5-12.8-270.3-25.7-392.6-50.7-138.4-28.4-265.7-67-378.2-108.5-138.6-51.2-248.1-122.6-336.3-189.3-114.2-86.3-183.1-178.7-190.2-280.8l-.5-10.2c-.1-5-.3-10.1-.1-15.2.5-15.9 2.6-31.6 5.9-47L14115 41345c1.1-37.4 11.6-73.5 30.7-108.2 60.1-109.4 89.1-233.1 96.3-357.6 18.6-320.1 39.4-650.9 58.9-971.5 0 0 .2-2.7.5-8.3 23.4-384 44.8-752.6 58.6-1070.3 24.6-573.9 6.4-1299 1.2-1390.8-.5-4.2-1-8.4-.8-12.5-.4-2.7-.4-5.7-.4-8.7 0-88.8 55.1-169.3 150.8-242.6 68.2-52.2 152.1-109.8 257.9-149.6 85.4-32.3 184.1-55.9 288.7-77.8 92.5-19.4 192.7-25.1 296.3-34.9 95.7-9.4 194.9-23.7 297.5-23.7s202.8 3.7 298.5 12.8c103.6 10.1 202.3 28.6 294.6 48 104.8 22.2 199.8 53.9 285.5 86.2 105.5 39.8 195.1 84.9 263.3 137 95.7 73.1 146.4 494 146.4 582.9l34 2075.5 18.2 394 1.7 33.7c0 4 .2 7.9.5 11.9l.7 17.9c.3 3 .3 5.9.5 8.6l.8 15.8c0 2.4.2 4.7.2 6.9.3 2.9.3 5.6.5 7.9l25.4 545c5.4 117.1 38.6 232.7 104.9 329.3 31.2 45.6 48 93.5 49.5 143.1l158.6 1617c3.8 17.4 6.3 35.1 6.8 52.9.2 5.4.1 10.7-.1 16.1" style="fill:#caede7;fill-opacity:1;fill-rule:nonzero;stroke:none" transform="matrix(.02105 0 0 -.02105 -229.4 967.161)"/><path d="M14327.4 39909.4s.2-3.1.5-8.9c20.8-342.5 44.1-737.9 58.5-1070.3 25-581.9 6.2-1305.8 1.3-1393.4l-.2-1.6c-.3-3-.7-6-.6-7.9l.2-3.2-.6-3.1c-.1-1.1 0-2.5 0-3.9 0-75.6 47.2-150.1 140.4-221.6 61.4-46.9 145.5-106 251.2-145.8 89.1-33.7 193.9-57.6 284.7-76.6 71.4-15 147.4-21.7 227.8-28.7 21.7-1.8 43.6-3.8 65.6-5.8 22.8-2.3 45.8-4.8 69-7.3 73.3-8 149.1-16.3 226-16.3 109.5 0 206.3 4.2 296 12.7 108.8 10.6 213 31 291.6 47.6 114 24 215.3 60 281.6 85 109.4 41.3 193.3 84.9 256.6 133.3 79.6 60.8 136 451.1 136 561.8l34 2076 19.9 428c0 4.2.3 8.5.5 12.7l.8 18.5c.1 1.1.1 2.2.2 3.2.1 1.7.1 3.4.3 5l.7 14.7c0 1.5 0 3 .1 4.4l.2 4c.1 1 .1 2 .2 2.9 0 1.7.1 3.2.2 4.7l25.4 544.3c6 128.6 43.8 247.3 109.5 343.1 28.5 41.6 43.6 85 44.9 128.9l.1 1.8 158.7 1618.6.4 1.6c3.6 16.4 5.7 32.6 6.2 48 .2 4.8 0 9.6-.1 14.4v2.4l-.4 6.3c-5.8 90.9-64.6 179.3-174.8 262.6-82.9 62.7-195.8 120.6-335.5 172.2-108.5 40-234.1 74.8-373.3 103.3-109.2 22.4-245.2 50.2-386.4 63.4-106.3 9.9-247 21.3-393.2 21.3-129.7 0-262.1-6.2-393.5-18.5-124.4-11.6-265.3-24.8-389.7-50.3-124.3-25.4-250.3-61.6-374.5-107.4-147.1-54.3-258.4-131.9-329.4-185.6-114.8-86.7-173.6-172.3-179.8-261.4l-.4-9.6c-.1-4.5-.3-8.8-.1-13.2.4-13.7 2.2-27.5 5.3-42.2l.5-3.2 151.5-1624.5c.9-32.4 10.2-64.7 27.5-96.2 57.9-105.6 91.4-229.7 99.5-368.9 13.2-227.6 27.7-463.5 41.7-691.6 5.8-93.7 11.5-187.1 17.2-279.7m1323.8-3047.4c-79.7 0-157 8.4-231.8 16.6-22.9 2.5-45.7 5-68.3 7.2-21.8 2-43.5 3.9-65.1 5.8-82.1 7.2-159.6 13.9-234.1 29.6-92.7 19.4-200.1 44-292.5 78.9-112.2 42.2-200.4 104.1-264.7 153.3-107 82-161.3 170.7-161.3 263.7 0 2.9 0 6.3.5 10.1-.1 5 .4 9.6.9 13.4 4.9 90.7 23.5 809.1-1.3 1387.4-14.4 331.9-37.7 727-58.6 1069.7-.2 5-.4 7.4-.4 7.7-5.7 93.3-11.5 186.7-17.2 280.4-14 228.2-28.5 464.1-41.8 691.8-7.6 131.3-38.9 247.8-93 346.4-21.3 38.7-32.7 78.8-34 119.4l-151.1 1620.5c-3.6 17-5.7 33.9-6.2 50.2-.2 5.4-.1 10.8.1 16.1l.5 11.3c7.3 106 73 204.2 200.8 300.8 73.6 55.6 189.3 136.2 343 192.9 126.6 46.8 255.2 83.7 382.1 109.7 127.3 26 269.7 39.4 395.5 51.1 133 12.4 267.1 18.7 398.4 18.7 148.4 0 290.7-11.5 398.1-21.5 144.2-13.5 281.7-41.6 392.1-64.3 141.8-29 270-64.5 381-105.5 144.6-53.4 262.1-113.8 349.1-179.6 115.8-87.5 181-182.5 194-282.5l5.3-1.5-2.9-29.7c.1-5.3.2-10.6 0-16-.5-18.2-2.9-37.1-7.1-56.2l-158.3-1614.6c-1.8-53.9-20-106.5-54.1-156.3-60.1-87.8-94.8-196.9-100.4-315.6l-25.5-546.7-.1-2.3c0-1.2-.1-2.5-.2-3.9 0-1.2-.1-2.3-.1-3.5l-.1-2.2-.1-1.3-.8-16.9c-.1-1-.1-2-.1-3-.1-1.6-.2-3.2-.3-4.7l-.7-17.5c-.3-4-.5-7.4-.5-10.8v-1.3l-1.7-33.7-18.3-393.9-33.9-2074.7c0-68.6-45.2-518.3-156.8-603.5-67.4-51.6-155.7-97.7-270.1-140.9-67.9-25.5-171.8-62.4-289.3-87.2-80-16.9-186.1-37.6-297.5-48.5-91.4-8.7-189.9-12.9-301.1-12.9" style="fill:#211d1d;fill-opacity:1;fill-rule:nonzero;stroke:none" transform="matrix(.02105 0 0 -.02105 -229.4 967.161)"/><path d="M17141.1 42707.8c-90.6-65-208.6-120.7-347.2-170.2-112-40-236.1-79.5-372.4-106.6-120.2-24-248.4-46.9-383-59.2-124.1-11.3-254-15.9-386.9-15.9-133 0-261.6 17.7-385.7 29-134.6 12.3-264.6 19.3-384.8 43.3-136.4 27.1-264.8 56.3-376.9 96.2-138.4 49.5-249.6 121.1-340.2 186.1-90.9 65.2-168.9 199.4-192.8 243.2-1.7 3.1-6.4 1.6-6.1-1.9L14115 41345c1.1-37.4 11.6-73.5 30.7-108.2 58.5-106.5 88.7-226.3 95.7-347.7 18.8-323.1 39.8-657.4 59.5-981.4 0 0 .2-2.7.5-8.3 23.4-384 44.8-752.6 58.6-1070.3 24.6-573.9 6.4-1299 1.2-1390.8-.5-4.2-1-8.4-.8-12.5-.4-2.7-.4-5.7-.4-8.7 0-88.8 55.1-169.3 150.8-242.6 68.2-52.2 152.1-109.8 257.9-149.6 85.4-32.3 184.1-55.9 288.7-77.8 92.5-19.4 192.7-25.1 296.3-34.9 95.7-9.4 194.9-23.7 297.5-23.7s202.8 3.7 298.5 12.8c103.6 10.1 202.3 28.6 294.6 48 104.8 22.2 199.8 53.9 285.5 86.2 105.5 39.8 195.1 84.9 263.3 137 95.7 73.1 146.4 494 146.4 582.9l34 2075.5 18.2 394 1.7 33.7c0 4 .2 7.9.5 11.9l.7 17.9c.3 3 .3 5.9.5 8.6l.8 15.8c0 2.4.2 4.7.2 6.9.3 2.9.3 5.6.5 7.9l24.7 531.8c5.8 123.4 41.1 244.6 109 347.7 29.1 44 44.7 90.1 46.1 137.9l158.6 1617c-20.5-91.7-86.5-177.2-193.9-254.2" style="fill:#ecf9f7;fill-opacity:1;fill-rule:nonzero;stroke:none" transform="matrix(.02105 0 0 -.02105 -229.4 967.161)"/><path d="M14327.4 39909.4c0-.1.2-3.2.5-8.9 20.8-342.5 44.1-737.9 58.5-1070.3 25-581.9 6.2-1305.8 1.3-1393.4l-.2-1.6c-.3-3-.7-6-.6-7.9l.2-3.2-.6-3.1c-.1-1.1 0-2.5 0-3.9 0-75.6 47.2-150.1 140.4-221.6 61.4-46.9 145.5-106 251.2-145.8 89.1-33.7 193.9-57.6 284.7-76.6 71.4-15 147.4-21.7 227.8-28.7 21.7-1.8 43.6-3.8 65.6-5.8 22.8-2.3 45.8-4.8 69-7.3 73.3-8 149.1-16.3 226-16.3 109.5 0 206.3 4.2 296 12.7 108.8 10.6 213 31 291.6 47.6 114 24 215.3 60 281.6 85 109.4 41.3 193.3 84.9 256.6 133.3 79.6 60.8 136 451.1 136 561.8l34 2076 19.9 428c0 4.2.3 8.5.5 12.7l.8 18.5c.1 1.1.1 2.2.2 3.2.1 1.7.1 3.4.3 5l.7 14.7c0 1.5 0 3 .1 4.4l.2 4c.1 1 .1 2 .2 2.9 0 1.7.1 3.2.2 4.7l24.8 531.2c6.1 133 45.3 257.8 113.3 361 26.4 40.1 40.4 81.8 41.7 124.1l.1 1.8 144 1468.8c-34.2-45.5-80.1-89-137.4-130.1-88.4-63.5-204.1-120.3-353.7-173.7-143.3-51.1-259.4-84.3-376.3-107.6-111.5-22.3-244.6-46.7-385.7-59.6-118.3-10.7-245.6-16-389.3-16-101.6 0-200.4 10.2-296 20-31 3.2-61.7 6.3-92.1 9.1-28.8 2.6-57.4 5-85.7 7.4-105.9 8.8-206 17.2-301.9 36.3-120.8 24-260.5 54.4-380.6 97.3-145.9 52.1-261.9 128.6-346.7 189.4-57.7 41.5-109.6 107.5-147.7 164.5l140.6-1507.6c.9-32.4 10.2-64.7 27.5-96.2 57.9-105.6 91.2-226.4 98.9-358.9 13.4-230.4 28-469.4 42.2-700.5 5.8-94.1 11.6-187.8 17.3-280.8m1323.8-3047.4c-79.7 0-157 8.4-231.8 16.6-22.9 2.5-45.7 5-68.3 7.2-21.8 2-43.5 3.9-65.1 5.8-82.1 7.2-159.6 13.9-234.1 29.6-92.7 19.4-200.1 44-292.5 78.9-112.2 42.2-200.4 104.1-264.7 153.3-107 82-161.3 170.7-161.3 263.7 0 2.9 0 6.3.5 10.1-.1 5 .4 9.6.9 13.4 4.9 90.7 23.5 809.1-1.3 1387.4-14.4 331.9-37.7 727-58.6 1069.7-.2 5-.4 7.4-.4 7.7-5.7 93.6-11.5 187.4-17.3 281.6-14.2 231.1-28.9 470.1-42.2 700.6-7.3 124.6-38.4 237.8-92.5 336.4-21.2 38.7-32.7 78.8-34 119.4l-149.8 1606c-1.3 14.2 7.3 27 21 31.2 13.6 4.2 27.9-1.7 34.7-14.2 21.5-39.2 98.1-172 185.1-234.4 82-58.8 194-132.7 333.7-182.6 116.8-41.7 254.2-71.5 373.1-95.2 92.9-18.6 191.5-26.8 295.9-35.5 28.5-2.3 57.2-4.7 86.1-7.4 30.6-2.8 61.6-5.9 92.8-9.2 94.2-9.6 191.6-19.7 290.5-19.7 142 0 267.8 5.2 384.5 15.8 138.6 12.7 270 36.8 380.2 58.8 114.2 22.8 228 55.3 368.7 105.6 144.9 51.7 256.3 106.2 340.7 166.8 102.8 73.7 164.5 153.9 183.4 238.4l52.2-8.4-158.4-1616.1c-1.7-51.9-18.7-102.7-50.4-150.8-62.7-95.2-98.9-210.8-104.7-334.3l-24.9-533.6-.1-2.2c0-1.2-.1-2.5-.2-3.9 0-1.2-.1-2.3-.1-3.5l-.1-2.2-.1-1.3-.8-16.9c-.1-1-.1-2-.1-3l-.3-4.8-.7-17.4c-.3-4-.5-7.4-.5-10.8v-1.3l-1.7-33.7-18.3-393.9-33.9-2074.7c0-68.6-45.2-518.3-156.8-603.5-67.4-51.6-155.7-97.7-270.1-140.9-67.9-25.5-171.8-62.4-289.3-87.2-80-16.9-186.1-37.6-297.5-48.5-91.4-8.7-189.9-12.9-301.1-12.9" style="fill:#211d1d;fill-opacity:1;fill-rule:nonzero;stroke:none" transform="matrix(.02105 0 0 -.02105 -229.4 967.161)"/><path d="M15090.4 40353c0 666 332.9 793.7 476.8 806.3 125.5 11 333.9-58.8 409.4-159.7 75.4-101 144.1-255.9 160.3-380.9 111.2-857.6 75.8-1574.4 56.8-2382.2-4.8-201.7-85.2-510.5-273.6-583-108.1-41.6-474.8-2.7-566.4 68.1-40.5 31.4-125.9 48.2-226.3 625.8-100.4 577.1-36.9 1576-37 2005.6" style="fill:#f9fdfd;fill-opacity:1;fill-rule:nonzero;stroke:none" transform="matrix(.02105 0 0 -.02105 -229.4 967.161)"/><path d="M15594.1 41133.9c-8.6 0-16.8-.3-24.6-1-75.6-6.7-452.6-75.4-452.5-779.8 0-103.6-3.7-238.7-7.9-395.1-13.2-493.8-31.4-1170.2 44.4-1606.1 90.9-522.6 168.1-575.7 205.2-601.3 4-2.7 7.8-5.3 11.2-8 81.3-62.9 435.1-105 540.7-64.3 179 68.8 252.4 379.3 256.6 558.8 2.1 90 4.4 178.8 6.7 266.8 18.2 694.9 35.3 1351.3-63.3 2111.4-14.9 114.5-78.7 266-155.3 368.4-64.5 86.2-243.4 150.2-361.2 150.2m183.7-3523.4c-156.8 0-368.3 34.5-440.3 90.2-2.7 2.1-5.7 4.1-8.9 6.3-49.6 34.1-132.6 91.3-227.3 635.8-76.7 441.2-58.5 1120.5-45.2 1616.6 4.2 156 7.8 290.8 7.8 393.6 0 750.7 417.3 825.4 501 832.7 132.7 11.7 350.6-60.2 432.9-170.3 82.7-110.6 149.2-268.7 165.4-393.3 99.1-764.1 81.9-1422.5 63.7-2119.6-2.3-87.9-4.6-176.7-6.7-266.6-4.7-201-86-528.4-290.5-607.1-32.6-12.5-87.7-18.3-151.9-18.3" style="fill:#211d1d;fill-opacity:1;fill-rule:nonzero;stroke:none" transform="matrix(.02105 0 0 -.02105 -229.4 967.161)"/><path d="M16279.4 40383.4c4.8 557.8 147.5 780.9 430.8 873.3 247.3 80.7 308.2-37.1 314.5-150.6 8.1-145.8-42.4-359-47.6-473-35.5-782-54-1548.3-100.9-2319.4-11.7-192.6-1.3-418.1-167.1-507.7-95.2-51.4-212.8-115.8-343.3 51.6-57.6 74-88.7 386.1-119.5 704-38.9 401.9 30.1 1461.9 33.1 1821.8" style="fill:#dbf3ef;fill-opacity:1;fill-rule:nonzero;stroke:none" transform="matrix(.02105 0 0 -.02105 -229.4 967.161)"/><path d="M16306 40383.2c-1-113.8-8.5-295.9-17.1-506.8-19-462.8-42.7-1038.7-16.2-1312.2 26.8-276.7 60.2-621.1 114.1-690.3 116.1-149.1 213.9-96.3 308.5-45.2l1.2.6c133.6 72.2 141.8 248.1 149.8 418.3 1 22.8 2.1 45.5 3.4 67.7 29.7 487.4 48.3 982.8 66.4 1461.9 10.6 280 21.5 569.6 34.6 857.1 2 45.4 11 105.7 20.5 169.6 14.9 100.3 31.8 213.9 27 300.8-3.4 61.9-22.8 105.4-57.6 129.2-46 31.5-120.7 30.7-222.1-2.4-244-79.6-407.5-254.3-412.5-848.3m239.5-2659.5c-62.7 0-131.1 28.5-200.6 117.6-58.9 75.7-87.7 333.3-125 717.8-26.8 277.1-3.1 855.1 16 1319.4 8.6 210.5 16.1 392.2 17 505.1 4.6 535.5 134.7 795.8 449.1 898.3 117.9 38.5 208.2 37.1 268.5-4.2 48.5-33.1 76.4-91.9 80.7-170.1 5.1-92.2-12.3-208.7-27.6-311.5-9.3-62.5-18-121.5-20-164.2-13-287.3-23.9-576.8-34.5-856.7-18.1-479.4-36.8-975.2-66.4-1463.1-1.4-22-2.4-44.4-3.5-67-8.2-176.2-17.5-376-177.5-462.4l-1.2-.6c-47.7-25.8-108-58.4-175-58.4" style="fill:#211d1d;fill-opacity:1;fill-rule:nonzero;stroke:none" transform="matrix(.02105 0 0 -.02105 -229.4 967.161)"/><path d="M14976.6 40424.7c-13.5 557.7-159.8 778.5-444.5 866.4-248.6 76.8-307.6-42-312.1-155.5-5.7-146 48.1-358.4 55.1-472.2 47.8-781.4 78.5-1547.3 137.6-2317.6 14.7-192.4 7.9-418 175.1-504.9 96-49.9 290.2-198.6 418-29.1 56.5 74.9 40.1 465.1 32.8 791.9-9.1 403.7-53.2 1461.2-62 1821" style="fill:#dbf3ef;fill-opacity:1;fill-rule:nonzero;stroke:none" transform="matrix(.02105 0 0 -.02105 -229.4 967.161)"/><path d="M14393.3 41289.1c-37.7 0-68.2-8.1-91.2-24.4-34.4-24.3-53.1-68.2-55.6-130.2-3.4-86.9 15.3-200.3 31.8-300.3 10.5-63.7 20.5-123.9 23.2-169.2 17.6-287.2 33.1-576.5 48.1-856.3 25.7-478.8 52.2-973.9 89.5-1460.9 1.7-22.2 3.1-44.8 4.6-67.6 10.6-170 21.6-345.8 156.4-415.8 13-6.8 27.7-15.3 43.3-24.3 128.8-74.3 251.7-131.1 341.3-12.3 45 59.8 36.6 399.7 29.8 672.8-.8 34.6-1.7 68.9-2.4 102.5-4.9 214.5-19.5 611.4-33.6 995.2-12.5 338-24.3 657.2-28.4 825.8-14.4 593.9-180.7 766-425.9 841.7-50.3 15.6-94 23.3-130.9 23.3m465.1-3583.3c-88.4 0-177.8 51.6-241.5 88.4-15 8.7-29.3 16.9-41.3 23.1-161.4 83.9-173.8 283.5-184.9 459.6-1.4 22.6-2.8 44.9-4.4 66.9-37.4 487.5-64 983-89.6 1462.1-15 279.7-30.5 568.9-48.1 855.9-2.6 42.6-12.3 101.4-22.6 163.8-16.9 102.5-36.1 218.7-32.5 311 3.1 78.2 30.1 137.5 78 171.4 59.6 42.2 149.9 45.1 268.4 8.5 316-97.6 450.2-355.8 463.2-891.1 4.1-168.3 15.9-487.4 28.4-825.1 14.1-384 28.8-781.1 33.6-996 .7-33.6 1.6-67.9 2.4-102.4 9.5-381.5 11.8-636.7-40.5-706-50.3-66.8-109.2-90.1-168.6-90.1" style="display:inline;fill:#211d1d;fill-opacity:1;fill-rule:nonzero;stroke:none" transform="matrix(.02105 0 0 -.02105 -229.4 967.161)"/></g></svg>