<svg xmlns="http://www.w3.org/2000/svg" width="200mm" height="200mm" viewBox="0 0 200 200"><g style="display:inline"><path d="M9890.73 25571.3c-422.96 0-849.68 72.1-1244.96 215.4-186.25 67.5-386.43 172.5-427.15 339.6-34.86 143.2 73.55 271.5 218.97 342.2 94.5 45.9 473.42 143 583.62 150.4 184.18 12.4 344.89 18.3 491.07 18.3 501.32 0 831.62-69.3 1350.82-183.2 106.1-23.3 213.5-49.2 306.9-99.4 93.5-50.1 172.6-128.6 190.6-220 19.2-97.9-34.9-195.7-116.9-262.5-81.9-66.8-188.8-107.4-296-141.4-334.8-106.4-694.5-159.4-1056.97-159.4" style="display:inline;fill:#f1faf9;fill-opacity:1;fill-rule:nonzero;stroke:none" transform="matrix(.02113 0 0 -.02113 -106.794 732.28)"/><path d="M9515.44 26608.8c-146.26 0-306.95-6-492.31-18.5-108.07-7.3-482.93-103.9-573-147.7-115.09-55.9-237.47-170.5-203.63-309.5 30.35-124.5 167.97-232 409.05-319.4 729.9-264.6 1562.15-284.9 2283.45-55.7 101.7 32.3 206.7 71.2 286.6 136.3 82.5 67.3 122.5 155.1 106.8 234.8-14.6 74.1-80.3 149-175.9 200.2-90 48.3-193.1 73.3-299.6 96.7-534 117.1-859.26 182.8-1341.46 182.8m374.91-1066.6c-425.77 0-855.16 72.8-1254.36 217.5-263.94 95.7-409.59 213.4-445.26 359.9-34.51 141.7 57.46 288.7 234.31 374.7 96.08 46.7 479.28 145.5 594.24 153.3 804.29 54.1 1148.32-11.7 1849.92-165.6 110.6-24.2 217.9-50.3 314.4-102.1 112.2-60.2 187-147.6 205.1-239.8 19.8-100.8-27.6-209.3-126.8-290.3-87.3-71.1-198.4-112.4-305.5-146.5-338.5-107.5-700.9-161.1-1066.05-161.1" style="fill:#211d1d;fill-opacity:1;fill-rule:nonzero;stroke:none" transform="matrix(.02113 0 0 -.02113 -106.794 732.28)"/><path d="M9271.88 26225.1c134.79-175.2 323.13-188.3 567.28-192 171.34-2.6 351.44 21.3 442.04 101.8-141.4 132.4-239 250.5-284.96 468.3-58.27 275.9-46.82 693.6-44.88 981.6 5.93 880.9 170.24 366.7 65.54 1080.6l-170.32 192.1-183.38-211.8c-114.6-628.7 43.05-199.1 58.94-1067.5 3.68-200.8-44.04-578.4-59.46-778.8-21.35-277.4-382.89-569-390.8-574.3" style="fill:#e6f6f4;fill-opacity:1;fill-rule:nonzero;stroke:none" transform="matrix(.02113 0 0 -.02113 -106.794 732.28)"/><path d="M9312.13 26221.1c123.4-142.2 290.79-155.7 527.46-159.3 179.41-2.7 318.51 23.9 397.41 75.5-137 132.2-225.5 254.6-268.84 460-52.65 249.3-49.16 604.8-46.35 890.6.32 33.6.64 66.1.85 97.1 2.92 433.5 43.95 534 73.91 607.5 28.53 70 44.33 108.8-6.88 460.2l-142.86 161.2-156.79-181.1c-56.62-312.3-43.77-349.8-15.86-431.3 27.46-80.1 68.95-201.2 76.66-622.8 2.59-141.6-19.51-364.4-39.01-561-8.17-82.3-15.88-160.1-20.53-220.5-19.36-251.5-294.93-504.5-379.17-576.1m552.19-216.9c-8.69 0-17.21.1-25.6.2-256.67 3.9-449.21 20.8-589.58 203.1l-18.68 24.3 24.91 16.7c10.1 7.9 358.38 289.1 378.69 553.1 4.7 61.1 12.44 139.1 20.65 221.8 19.34 195 41.27 416 38.74 554.3-7.55 412.5-47.28 528.5-73.57 605.2-30.51 89.1-45.83 133.8 15.09 467.9l1.4 7.8 209.96 242.4 197.67-223 1.2-8.5c55.1-374.8 37.1-418.8 4.5-498.7-28.2-69.1-66.79-163.8-69.64-586.2-.21-31.1-.52-63.6-.86-97.3-2.77-282.9-6.23-635 45.1-878.1 43-203.7 130.4-316.5 276.5-453.4l23-21.5-23.5-20.9c-100.4-89.1-287.5-109.2-435.98-109.2" style="fill:#211d1d;fill-opacity:1;fill-rule:nonzero;stroke:none" transform="matrix(.02113 0 0 -.02113 -106.794 732.28)"/><path d="M10187.1 28881.5c0-191.7-155.4-347.1-347.07-347.1-191.7 0-347.1 155.4-347.1 347.1s155.4 347.1 347.1 347.1c191.67 0 347.07-155.4 347.07-347.1" style="fill:#f5fcfb;fill-opacity:1;fill-rule:nonzero;stroke:none" transform="matrix(.02113 0 0 -.02113 -106.794 732.28)"/><path d="M9840.03 29199.9c-175.57 0-318.4-142.9-318.4-318.4 0-175.6 142.83-318.4 318.4-318.4s318.37 142.8 318.37 318.4c0 175.5-142.8 318.4-318.37 318.4m0-694.2c-207.22 0-375.8 168.6-375.8 375.8s168.58 375.8 375.8 375.8c207.17 0 375.77-168.6 375.77-375.8s-168.6-375.8-375.77-375.8" style="fill:#211d1d;fill-opacity:1;fill-rule:nonzero;stroke:none" transform="matrix(.02113 0 0 -.02113 -106.794 732.28)"/><path d="M9997.2 29156.5s-59.32-65.5-159.1-58.9c-97.87 6.4-161.8 58.9-161.8 58.9v550.1h320.9z" style="fill:#e6f6f4;fill-opacity:1;fill-rule:nonzero;stroke:none" transform="matrix(.02113 0 0 -.02113 -106.794 732.28)"/><path d="M9705 29171.3c20.5-13.4 69.65-40.8 134.98-45.1 66.23-4.3 111.44 27.8 128.52 42.6v509.1H9705Zm147.18-102.9c-5.22 0-10.53.2-15.96.6-105.86 6.9-175.23 63-178.13 65.4l-10.49 8.6v592.3h378.3v-589.8l-7.4-8.2c-2.7-3-63.63-68.9-166.32-68.9" style="fill:#211d1d;fill-opacity:1;fill-rule:nonzero;stroke:none" transform="matrix(.02113 0 0 -.02113 -106.794 732.28)"/><path d="M11090.5 32976.5c-1.3 9.6-7.3 19-16.5 28.2-19.3 55.7-64.8 107.3-133 155.3-65.8 46.2-151.2 86.3-253 121.3-82.5 28.4-174.7 51.9-275.6 70.9-89 16.8-183.2 34.3-283 42.5-92.1 7.7-188.16 13.7-286.9 13.1h-2.27c-97.94-.7-193.35-5.9-284.71-14.6-99.78-9.5-196.12-19-284.97-36.9-36.99-7.4-72.91-15.8-107.65-25-150.16-35-296.82-103.8-439.95-206.5-62.5-44.9-96.18-82.7-111.28-127.2-2.64 0-4.2-.1-4.31-.4-130.46-378.3-119.33-891.9-113.22-1404.7 5.19-434.7 77.23-887.5 244.74-1268.4 24.12-54.9 50.23-108.3 78.41-159.9 2.11-5.2 1.24-2.5 1.89-3.6 220.48-401.9 440.45-722.5 1037.11-732 552.31-8.9 848.01 295.6 1056.21 797.2.2.6 1 2.2 2.2 5.4 15.2 36.8 249.4 671.7 273 1408.1 22.5 704-21.2 1185.8-97.2 1337.2" style="fill:#f4fbfa;fill-opacity:1;fill-rule:nonzero;stroke:none" transform="matrix(.02113 0 0 -.02113 -106.794 732.28)"/><path d="m8841.58 30174.8.84-1.5c220.16-401.3 434.64-708.9 1014.3-718.2 7.99-.1 15.99-.2 23.89-.2 478.59 0 780.69 234.9 1007.39 781.1l.6 1.3c.2.5.6 1.4 1.1 2.9l.5 1.1c2.4 6 247.1 652.2 271 1398.8 25.2 787.8-32.2 1200.7-94.4 1324.6l-2 3.9-.6 4.3c-.1.8-1 5.1-8.9 13l-4.4 4.3-2 5.8c-16.9 48.8-58.3 96.7-123.2 142.3-61.3 43.1-144.2 82.8-246.3 117.9-79.3 27.3-170.7 50.9-271.9 70-79.4 15-178.1 33.6-280.3 42.1-76.9 6.4-178.74 13.6-284.53 13h-2.24c-93.3-.7-188.3-5.5-282.4-14.5-90.08-8.6-192.18-18.3-282.25-36.5-35.12-7-70.83-15.3-106.15-24.6-146.81-34.2-291.66-102.3-431.22-202.4-58.31-42-88.71-76.1-101.63-114.2l-6.05-17.8h-4.13c-118.43-359.2-112.42-850.3-106.59-1325.4l.64-53.1c5.67-475.2 89.53-910.2 242.5-1258.1 24.02-54.6 50.07-107.7 77.41-157.8zm1038.28-772.9c-7.96 0-15.95 0-23.99.2-283.38 4.5-498.26 76-676.22 225-166.76 139.7-280.53 332.7-382.65 518.8-1.69 2.4-2.83 4.9-3.66 6.8-27.82 51.1-54.3 105.1-78.74 160.7-196.86 447.7-242.96 942.5-246.97 1278.7l-.65 53.1c-5.97 487.2-12.14 991 115.32 1360.6 1.5 4.3 4.14 8.8 8.79 12.4 18.38 44.2 53.96 83.2 116.38 128.1 145.28 104.3 296.48 175.2 449.41 210.9 35.59 9.3 72.31 17.8 108.43 25.1 92.78 18.7 196.33 28.6 287.69 37.3 95.64 9.1 192.22 14 287.05 14.7h1.99c107.99.8 211.46-6.7 289.56-13.1 104.9-8.7 205.2-27.7 285.7-42.9 103.7-19.6 197.7-43.8 279.4-71.9 108.3-37.3 193.2-78.1 259.5-124.7 71.8-50.5 119.1-105.2 140.8-162.7 10-11.1 16.3-22.3 18.9-34 81.9-169 119.5-683.8 98.3-1346.6-24.1-754.8-263.8-1388.5-274.6-1416.4-1.3-3.5-2.2-5.5-2.7-6.6-233.1-561.6-559.8-813.5-1057.04-813.5" style="fill:#211d1d;fill-opacity:1;fill-rule:nonzero;stroke:none" transform="matrix(.02113 0 0 -.02113 -106.794 732.28)"/><path d="M9162.9 33331.3c34.74 9.2 70.66 17.6 107.65 25 88.85 17.9 185.19 27.4 284.97 36.9 92.07 8.8 188.25 14 286.99 14.6 98.73.6 194.79-5.4 286.89-13.1 99.8-8.2 194-25.7 283-42.5 100.9-19 193.1-42.5 275.6-70.9 101.8-35 187.2-75.1 253-121.3 92.5-65.1 143.2-136.7 143.5-216.1s-48.1-153.7-140.1-219.9c-65.4-47-151.5-87.7-253-123.9-82.3-29.4-173.5-58.5-274.3-78.8-88.8-17.9-183.7-35.1-283.5-44.6-92.1-8.8-188.55-12.7-287.29-13.4-98.73-.6-194.28 11.7-286.4 19.4-99.87 8.2-196.32 12.8-285.32 29.6-100.88 19-195.76 39.5-278.26 67.9-101.8 35.1-182.82 86.1-248.61 132.4-92.47 65-145.78 136.7-146.1 216.2-.32 79.4 29.38 129.9 121.33 196 143.13 102.7 289.79 171.5 439.95 206.5" style="fill:#dbf3ef;fill-opacity:1;fill-rule:nonzero;stroke:none" transform="matrix(.02113 0 0 -.02113 -106.794 732.28)"/><path d="M9855.89 33381.3h-13.22c-93.81-.6-189.58-5.5-284.64-14.5-90.08-8.6-192.18-18.3-282.24-36.5-35.12-7-70.84-15.3-106.16-24.6l-.71-.2c-146.1-34-290.95-102.1-430.51-202.2-83.76-60.3-110.56-102.7-110.28-174.4.27-66.4 45.64-131.9 134.84-194.6 59.2-41.7 140.2-94 241.99-129 85.66-29.5 186.86-50.4 274.56-67 68.46-12.9 141.42-18.4 218.66-24.2 21.12-1.6 42.44-3.2 63.92-5 22.77-1.9 45.76-4.1 68.94-6.3 69.82-6.6 142.08-13.4 215.11-12.9 105.34.6 198.55 4.9 284.95 13.1 102.5 9.8 199.5 27.9 280.8 44.3 84 16.9 167.5 40.9 270.6 77.7 105.4 37.7 186.1 77.1 246.4 120.6 85.9 61.8 129.4 128.5 129.1 198.2-.3 67.5-44.8 132.9-132.3 194.5-61.3 43.1-144.2 82.8-246.3 117.9-79.3 27.3-170.7 50.9-271.9 70-79.4 15-178.1 33.6-280.3 42.1-73.7 6.1-170.35 13-271.31 13m-16.65-944.5c-73.21 0-144.33 6.7-213.18 13.2-22.99 2.2-45.77 4.4-68.35 6.2-21.34 1.8-42.53 3.4-63.52 5-78.76 5.9-153.15 11.5-224.52 25-89.57 16.9-193.11 38.4-281.96 69-108.1 37.2-193.19 92-255.24 135.7-104.08 73.2-157.02 153.2-157.36 237.8-.36 90.1 34.27 147.1 132.36 217.6 145.17 104.2 296.24 175.1 449.05 210.8 36.19 9.5 72.79 18 108.79 25.2 92.78 18.7 196.33 28.6 287.69 37.3 96.62 9.2 193.97 14.1 289.35 14.7 107.93.7 211.15-6.7 289.25-13.1 104.9-8.7 205.2-27.7 285.7-42.9 103.7-19.6 197.7-43.8 279.4-71.9 108.3-37.3 193.2-78.1 259.5-124.7 102.4-72 154.5-152 154.8-237.7.4-87.8-50.5-169.1-151.1-241.5-64.5-46.3-149.4-88-259.6-127.4-105.6-37.7-191.3-62.4-277.9-79.8-82.7-16.7-181.4-35.1-286.3-45-88-8.4-182.7-12.8-289.63-13.5z" style="fill:#211d1d;fill-opacity:1;fill-rule:nonzero;stroke:none" transform="matrix(.02113 0 0 -.02113 -106.794 732.28)"/><path d="M9795.18 28851.8c0-58.9-38.8-106.7-86.67-106.7s-86.66 47.8-86.66 106.7 38.79 106.6 86.66 106.6 86.67-47.7 86.67-106.6M8979.99 32407.2c90.08-31.6 201.53-65.2 305.01-81 79.02-12.1 133.33-85.8 120.83-164.8-33.77-213.3-84.4-616.1-67.32-1033 7.65-186.6 64.14-434.4 131.33-670.2 44.54-156.3-163.59-255.8-256.34-122.4-181.64 261.4-350.63 566.4-384.99 832.6-53.32 413.3-48.89 857.6-40 1108 3.44 97.1 99.85 163 191.48 130.8M9063.33 26440.9c23.01-.7 28.73-32.3 7.34-40.8-117.13-46.7-295.24-133-252.75-212.1 44.31-82.4 273.96-195.9 486.14-273.8 23.85-8.8 14.7-44.5-10.42-40.8-239.14 35.6-585.33 100.4-717.05 191.5-79.68 55.2-104.62 216 39.32 300.8 121.19 71.4 324.76 78.4 447.42 75.2" style="fill:#fff;fill-opacity:1;fill-rule:nonzero;stroke:none" transform="matrix(.02113 0 0 -.02113 -106.794 732.28)"/></g></svg>