<svg xmlns="http://www.w3.org/2000/svg" width="200mm" height="200mm" viewBox="0 0 200 200"><g style="display:inline"><path d="M20301 5671.6c-765.6-471.2 673.8-909 1147.4-931.5 516.4-24.6 1938.9-49.5 2161.6 530 117.4 305.7-456.6 579.9-1160.2 623.1-866.4 53.1-1920.1-80.9-2148.8-221.6" style="fill:#f6fcfb;fill-opacity:1;fill-rule:nonzero;stroke:none" transform="matrix(.01856 0 0 -.01856 -305.258 280.324)"/><path d="m20301 5671.6 13.9-22.6c-160-98.4-228-199.2-202.1-299.6 34.7-134.6 234-276.7 561.2-400.1 304-114.7 615.2-175.1 775.6-182.7 447.5-21.3 857.6-8.1 1186.1 38.2 538.1 75.9 857.6 235.6 949.5 474.8 23.9 62.2 16 124.8-23.5 186.2-131 203.9-588.9 368.7-1113.5 400.9-856.3 52.6-1906.3-78-2133.3-217.7zm1558.6-968.1c-147.7 0-287.8 4.2-412.5 10.1-368.2 17.5-1296.8 277.7-1385.7 622.6-32.3 125.5 43.6 245.9 225.7 358 233.3 143.6 1299.2 278.5 2164.4 225.4 548.9-33.6 1013-204.5 1154.8-425.1 49.1-76.4 58.7-155.1 28.4-233.9-176.9-460.6-1063.7-557.1-1775.1-557.1" style="fill:#211d1d;fill-opacity:1;fill-rule:nonzero;stroke:none" transform="matrix(.01856 0 0 -.01856 -305.258 280.324)"/><path d="M22417.3 5433.6c-145 81.6-255.8 146.2-310.6 293.9-38.6 104.2-54.5 227.2-60.8 352.3-62.8-7.3-121.7-10.5-172.1-7.5-51.5 3.1-118 15.1-192.8 32.8-6.6-82.5-13.5-157.2-18.6-209.8-15.2-157.5-252.4-316.1-395.2-397.7-49.6-28.3-47.2-100.8 4.2-125.7 168.1-81.5 380.8-93.3 641.7-101.1 174.1-5.2 363.6 26.3 495.2 69.7 42.1 13.9 47.7 71.4 9 93.1" style="fill:#fff;fill-opacity:1;fill-rule:nonzero;stroke:none" transform="matrix(.01856 0 0 -.01856 -305.258 280.324)"/><path d="M21704.8 6072.5c-6-72.7-12-136.8-16.1-179.8-16.4-170.1-262.9-334.9-408.4-418-14.6-8.4-23-23.5-22.4-40.4.5-16.8 9.9-31.3 25-38.6 162.1-78.6 372.6-90.8 631-98.5 157.7-4.7 343.9 21.5 486.1 68.4 14.1 4.7 16.4 17.3 16.8 21.1.4 3.7.5 16.6-12.5 23.9-141.2 79.4-263.1 148-322.3 307.7-32.8 88.4-52.3 194.5-60.9 332.3-56.8-5.6-106.8-7.2-148.9-4.7-43.4 2.6-99.6 11.5-167.4 26.6m245.7-828.7c-12.9 0-25.6.2-38.2.6-264.8 7.9-481 20.6-652.4 103.7-32.6 15.8-53.6 48.2-54.9 84.4-1.2 36.3 17.6 70 49.1 88 232.4 132.8 371.7 270.3 382 377.3 4.7 48.7 11.7 124.6 18.6 209.4l2.5 30.7 29.9-7.1c78.3-18.5 141.7-29.3 188.3-32.1 45.7-2.7 102.1-.2 167.4 7.4l28 3.3 1.5-28.2c7.4-146 26.2-255.4 59.2-344.5 50-134.7 146.1-194.2 298.7-280 27.2-15.3 42.2-44.1 39.2-75.2-3-31-23.3-56.3-52.8-66.1-136.3-44.9-311.4-71.6-466.1-71.6" style="fill:#211d1d;fill-opacity:1;fill-rule:nonzero;stroke:none" transform="matrix(.01856 0 0 -.01856 -305.258 280.324)"/><path d="M24097.7 7925.6c-58.7 618.3-370.9 1338.3-553.2 1857.5-6.6 18.7-20.9 35.9-42 51.7-31.6 50.9-75.4 103.7-132.6 158.4-281.5 269.2-1058.7 364.3-1410.7 389.4-477.1 34-1412.5-50.9-1797.5-414.1-101.5-95.7-142.1-190-134-279.9-100.8-363.9-222.9-587.8-410.2-1245.1-190.3-1127.4 185.8-1669.2 1245.8-2071.7 201.9-76.7 770.3-285.2 1010.5-299.5 215-12.8 583.6 86.2 751.1 144.5 1113.8 387.5 1541 989.8 1472.8 1708.8" style="fill:#f6fcfb;fill-opacity:1;fill-rule:nonzero;stroke:none" transform="matrix(.01856 0 0 -.01856 -305.258 280.324)"/><path d="M19643.4 8437.7c-181.7-1078.7 151.6-1631.9 1229.3-2041.1 174.4-66.3 762.3-283.5 1002.7-297.8 205.2-12.3 563.3 81.2 740.8 143 1037.1 360.9 1526.7 926.6 1455.1 1681.3-46.4 489-257.6 1055.8-427.4 1511.2-44.8 120.4-87.2 234.1-124.4 340-4.6 13.2-15.7 26.4-32.9 39.2l-4 3-2.7 4.3c-30.8 49.8-74 101.3-128.3 153.2-304.1 290.8-1214.8 369.4-1394.3 382.2-519.6 37-1414.6-64.8-1777.4-407-91.2-86-133.5-172.9-125.8-258.2l.5-4.8-1.3-4.7c-44.5-160.6-93.1-293.9-149.3-448.3-73-200.7-155.9-428.2-260.6-795.5m2269.4-2393c-14 0-27.6.4-40.6 1.1-241.1 14.4-792.5 215.4-1018.3 301.2-557 211.5-908.1 457.7-1104.9 774.8-204.6 329.7-254.7 751.1-157.7 1326.1l.7 2.9c105.4 370 188.7 598.8 262.2 800.6 55.3 151.8 103.1 283.2 146.7 439.8-7.3 100.6 40.6 200.4 142.6 296.6 220.1 207.5 598.7 311.8 877.7 362.8 364.4 66.5 724.4 73.8 939.9 58.5 256.6-18.3 1117.9-101 1427.1-396.7 56.1-53.6 101.2-107.2 134.2-159.5 23.5-18.4 39.4-39 47.1-61 37.1-105.5 79.3-218.9 124.1-339 170.8-458.4 383.4-1028.9 430.5-1524.8 74.2-782.2-427.3-1366.4-1490.5-1736.4-170.3-59.2-504.4-147-720.8-147" style="fill:#211d1d;fill-opacity:1;fill-rule:nonzero;stroke:none" transform="matrix(.01856 0 0 -.01856 -305.258 280.324)"/><path d="M24097.7 7925.6c-58.7 618.3-370.9 1338.3-553.2 1857.5-6.6 18.7-20.9 35.9-42 51.7 331.6-534.6-688.1-852.3-1724.1-825.7-878.9 22.6-1717.6 315.1-1750.7 679.5-100.8-363.9-222.9-587.8-410.2-1245.1-190.3-1127.4 185.8-1669.2 1245.8-2071.7 201.9-76.7 770.3-285.2 1010.5-299.5 215-12.8 583.6 86.2 751.1 144.5 1113.8 387.5 1541 989.8 1472.8 1708.8" style="fill:#e9f8f5;fill-opacity:1;fill-rule:nonzero;stroke:none" transform="matrix(.01856 0 0 -.01856 -305.258 280.324)"/><path d="M20288.5 9355.4c-147.2-343.7-329.2-1162.5-275-1620 90-760 1345-1200 1345-1200s-580 575-590 1245c-3.3 220.3 228.8 987.7 360 1290l-410 80z" style="fill:#fff;fill-opacity:1;fill-rule:nonzero;stroke:none" transform="matrix(.01856 0 0 -.01856 -305.258 280.324)"/><path d="M19643.4 8437.7c-181.7-1078.7 151.6-1631.9 1229.3-2041.1 174.4-66.3 762.3-283.5 1002.7-297.8 205.2-12.3 563.3 81.2 740.8 143 1037.1 360.9 1526.7 926.6 1455.1 1681.3-46.4 489-257.6 1055.8-427.4 1511.2-19 50.9-37.5 100.7-55.4 149.1-6.4-37.1-19.8-73.4-40.1-108.8-91.2-159.1-320.8-290.4-663.9-379.7-317.5-82.6-710.6-122.5-1106.8-112.3-759.1 19.5-1592.8 253.6-1750.9 607.9-37.2-122.3-77.5-232.9-122.8-357.3-73-200.7-155.9-428.2-260.6-795.5m2269.4-2393c-14 0-27.6.4-40.6 1.1-241.1 14.4-792.5 215.4-1018.3 301.2-557 211.5-908.1 457.7-1104.9 774.8-204.6 329.7-254.7 751.1-157.7 1326.1l.7 2.9c105.4 370 188.7 598.8 262.2 800.6 55.8 153.3 104 285.7 148 444.3l38.8 140.1 13.1-144.8c30.2-332 820.1-632.1 1724.9-655.4 831.8-21.4 1556.6 174.3 1723.4 465.3 56.1 97.8 48.5 205.5-22.5 319.9l-73.7 118.9 112.1-83.7c25.8-19.2 43.1-40.8 51.2-64.1 37.1-105.5 79.3-218.9 124.1-339 170.8-458.4 383.4-1028.9 430.5-1524.8 74.2-782.2-427.3-1366.4-1490.5-1736.4-170.3-59.2-504.4-147-720.8-147" style="fill:#211d1d;fill-opacity:1;fill-rule:nonzero;stroke:none" transform="matrix(.01856 0 0 -.01856 -305.258 280.324)"/><path d="M21230.6 5690.7c-90.8-42.2-686.7-246.6-226.2-437.2 491.1-203.3 1537.3-376.3 1837.3 27-298.4-401.2-1062.2-389.2-1310-353.3-246.2 35.6-1105 113.8-1116.4 478.8-10.4 333.2 615.7 323.6 815.3 284.7" style="fill:#fff;fill-opacity:1;fill-rule:nonzero;stroke:none" transform="matrix(.01856 0 0 -.01856 -305.258 280.324)"/></g></svg>