<svg xmlns="http://www.w3.org/2000/svg" width="200mm" height="200mm" viewBox="0 0 200 200"><g style="display:inline"><path d="M34084.3 15142c0-119-67.9-229.7-196.2-327.9-91.3-69.9-211.4-130-352.9-183.4-114.6-43.2-241.8-85.9-382.1-115.4-123.7-26-255.9-50.9-394.8-64.2-128.2-12.3-262.5-17.3-399.9-17.3s-270.4 19.2-398.5 31.5c-139 13.3-273.2 21-396.9 47-140.3 29.4-272.3 61-386.9 104.2-141.5 53.4-254 130.6-345.3 200.5-128.3 98.2-202.1 206-202.1 325 0 118.9 75.2 224.9 203.6 323.1 91.3 69.9 204 144.6 345.4 198 114.7 43.2 244.1 83.4 384.4 112.9 123.7 26 257.9 39.3 396.8 52.6 128.2 12.2 262 19.2 399.5 19.2 137.4 0 271-9.9 399.1-22.2 139-13.3 270.5-37.6 393.7-66.2 267.7-62 102.1-20.4 383.2-108.7 144.3-45.3 260-114.1 351.3-184 128.4-98.2 198.6-205.8 198.6-324.7" style="fill:#ebf8f6;fill-opacity:1;fill-rule:nonzero;stroke:none" transform="matrix(.0257 0 0 -.0257 -731.315 562.776)"/><path d="M32358.4 15821.3c-130.8 0-264.4-6.4-397-19.1-125.6-12.1-267.9-25.7-393.9-52.2-126-26.4-254-64-380.4-111.7-150.3-56.8-265.3-138-338.7-194.2-130-99.5-193.2-198.3-193.2-302.1 0-104.4 64.5-206.6 191.7-304 82.8-63.3 196-142.9 338.5-196.7 119.6-45.1 260.7-77.4 383-103.1 95.7-20.1 197.5-29 305.3-38.5 29.3-2.6 58.9-5.2 88.7-8 31.6-3 63.5-6.5 95.7-10 97.4-10.5 198.1-21.4 300.3-21.4 146.8 0 276.8 5.6 397.3 17.2 143 13.7 278.4 39.9 392 63.7 117.5 24.7 234.2 60 378.2 114.3 147.9 55.8 261.1 114.6 346.1 179.6 123.2 94.4 185.8 197.6 185.8 306.9 0 106-63.3 208.2-188.2 303.7-105.8 81-221.2 141.5-343.2 179.8-95 29.8-139.6 45-166.2 54.1-41.3 14-41.3 14-130.2 34.5-22.2 5-49.8 11.4-84.8 19.5-140.1 32.4-267.7 53.9-390.2 65.6-107.2 10.3-249.2 22.1-396.6 22.1m0-1414c-105.1 0-207.2 11-306 21.7-31.9 3.5-63.6 6.9-95.1 9.9-29.6 2.8-59.1 5.4-88.3 8-109.3 9.6-212.7 18.6-311.5 39.4-124.2 26.1-267.8 59-390.8 105.4-149 56.3-266.4 138.7-352 204.2-141 107.9-212.5 224.4-212.5 346.1 0 121.4 70 234 213.9 344.2 76.1 58.2 195.4 142.5 352.3 201.7 128.9 48.6 259.6 87 388.2 114 128.9 27.1 272.8 40.9 399.7 53.1 134.3 12.8 269.6 19.4 402.1 19.4 149.6 0 293.3-12 401.7-22.4 124.8-11.9 254.7-33.8 397.1-66.7 34.9-8.1 62.5-14.5 84.6-19.6 89.9-20.6 91.6-21 135.5-35.9 26.4-9.1 70.6-24.1 165-53.8 127.9-40.1 248.8-103.4 359.6-188.2 138.6-106.1 208.9-222.5 208.9-345.8 0-126.7-69.5-244.1-206.6-349-89.2-68.2-206.8-129.4-359.6-187.1-146.6-55.3-265.7-91.3-386-116.5-115-24.2-252.2-50.8-397.8-64.7-122.2-11.7-253.9-17.4-402.4-17.4" style="fill:#211d1d;fill-opacity:1;fill-rule:nonzero;stroke:none" transform="matrix(.0257 0 0 -.0257 -731.315 562.776)"/><path d="m32787 18369.9 500.8 744.6-1709.6-215.9 357.5-557.6c129-166.9 207-387.8 208.4-613.9l11.5-1891.9c.2-22.5-.9-45-3.7-67.3-32.4-264.9-205.1-522.4-208.6-564.8-3.7-44.7 148.7-145 431.2-148.7 204.4-2.7 327 82.2 379.2 129.3 16.5 14.9 17.2 40.1 2.5 56.9-78.6 89.8-128 266.8-155.6 399.5-19.1 92-28.5 185.6-28.9 279.5l-6.5 1790.5c-1.4 235.1 68.7 468.1 221.8 659.8" style="fill:#fff;fill-opacity:1;fill-rule:nonzero;stroke:none" transform="matrix(.0257 0 0 -.0257 -731.315 562.776)"/><path d="M32787 18369.9h.1zm-817.2-3168.5c7.5-28.8 139.9-117.1 405-120.6 3.1-.1 6.2-.1 9.2-.1 187.9 0 301 76.5 352 122.6 5.6 5 5.7 13.7.3 19.9-82.3 94.1-133.3 275.7-161.5 411.5-19.2 92.4-29.1 188.2-29.5 284.8l-6.5 1790.5c-1.6 253.7 76.9 487.3 226.9 675.6l467.8 695.4-1610.4-203.4 334.2-521.4c134.2-174 211.9-403.1 213.3-629l11.4-1891.9c.2-24.5-1.1-48.3-3.9-70.6-23.3-191.1-116.2-375-171.7-484.8-16.9-33.4-34.3-67.9-36.6-78.5m414.2-173.5h-9.9c-224.1 3-380.3 65.9-435.7 126.9-15.6 17.2-22.8 34.1-21.5 50.4 1.5 17 14 42.5 42.3 98.5 54 106.8 144.2 285.5 166.5 467.4 2.4 20.1 3.6 41.6 3.5 63.9l-11.5 1891.9c-1.3 214.9-75.3 432.8-202.9 597.9l-1.4 1.9-380 592.9 1808.8 228.4-534.5-794.6c-142.8-178.8-217.6-401.2-216.1-643.2l6.5-1790.5c.4-93 9.9-185.3 28.4-274.2 27-129.6 74.8-302.1 149.6-387.5 24.6-28.1 22.5-69.4-4.7-93.9-56.7-51.2-181.8-136.2-387.4-136.2" style="fill:#211d1d;fill-opacity:1;fill-rule:nonzero;stroke:none" transform="matrix(.0257 0 0 -.0257 -731.315 562.776)"/><path d="M33696.9 21134c14.3-.4 23-15.7 16.1-28.1-73.1-130.7-477.1-738.4-458.6-1087.5 14.5-273.5 594.9-1631.1 557.9-2142.4-37-511.2-411.5-1424.2-1482.7-1412s-1421.6 1072-1430.7 1566.2c-10.7 576.2 541.6 1607 523.5 1951.7-18 344.6-503.3 1245.8-503.3 1245.8z" style="fill:#ebf8f6;fill-opacity:1;fill-rule:nonzero;stroke:none" transform="matrix(.0257 0 0 -.0257 -731.315 562.776)"/><path d="M30964 21199.7c95.7-181.8 468.8-907.9 484.9-1216.5 8.4-159.3-96.4-447.4-217.7-781.1-146-401.9-311.6-857.5-305.8-1171.4 9.2-497.4 364.5-1528.4 1404.5-1540.2 7-.1 14.1-.1 21.1-.1 1054.9 0 1400 905.5 1434.9 1387.5 22.6 312.6-190.3 949.3-361.4 1461-106.6 319-190.9 571-196.6 678.1-16.4 309 286 809.4 415.1 1023 16.8 27.8 30.7 50.8 40.6 67.9zm1386.1-4762.3c-6.9 0-13.9 0-20.8.1-598.8 6.8-947.9 337.6-1135.3 613.9-230.3 339.7-317.2 739.3-321.6 978.3-6 323.8 161.3 784.2 309 1190.5 114.3 314.6 222.3 611.7 214.6 760.3-17.6 334.8-495.4 1225.7-500.3 1234.7l-21.8 40.6 2823.9-95.3c16.1-.5 30.4-9.2 38.2-23.1 7.9-13.9 7.9-30.5.1-44.5-10.3-18.4-26.8-45.7-47.7-80.3-126.6-209.5-423.1-700.1-407.5-992.8 5.3-99.9 92.7-361.4 193.9-664.1 172.6-516.1 387.3-1158.4 364-1481.6-8.8-120.5-60.4-542.8-359.3-916.9-271.9-340.4-662.1-519.8-1129.4-519.8" style="fill:#211d1d;fill-opacity:1;fill-rule:nonzero;stroke:none" transform="matrix(.0257 0 0 -.0257 -731.315 562.776)"/><path d="M33683.4 21288c60.2-64.9 65.5-165.9 7.5-232.7-206.6-237.7-763.6-406.7-1334.4-403.9-661.2 3.2-1310.8 162.6-1436.1 530.3-25.5 74.5 3.1 157.3 68.3 201.4 347.4 234.6 802.8 233.9 1367.8 233.9 747.4 0 1087.8-71.1 1326.9-329" style="fill:#d3f0eb;fill-opacity:1;fill-rule:nonzero;stroke:none" transform="matrix(.0257 0 0 -.0257 -731.315 562.776)"/><path d="M32351.3 21590.5c-563.2 0-1008.1 0-1347.7-229.4-55.7-37.6-79.6-107.9-58.1-170.9 127.3-373.3 812.4-509.4 1411.1-512.3 4.5-.1 9.2-.1 13.7-.1 555.6 0 1101 165.2 1300.6 394.9 47.7 54.9 44.7 141.6-6.9 197.3-225 242.6-542.7 320.5-1307.5 320.5zm18.8-965.7h-13.7c-617 3-1324.8 148.6-1461.1 548.3-29.2 85.6 3.1 180.9 78.6 231.9 353.1 238.5 805.1 238.5 1377.4 238.6h5.2c782.3 0 1109.5-82 1346.4-337.6 70.9-76.5 74.4-191.7 8-268.1-103.2-118.7-296-225.3-543-300.1-240.8-73-523.6-113-797.8-113" style="fill:#211d1d;fill-opacity:1;fill-rule:nonzero;stroke:none" transform="matrix(.0257 0 0 -.0257 -731.315 562.776)"/><path d="M31651.9 15478.6c28.8 1.1 38.1-38.5 11.7-50.1-131.1-57.6-298.4-157.5-264.5-282.7 15-55.4 170.3-168.8 379.3-266.2 180.5-84 408.8-121.8 578.5-143.7 30.9-4 30.3-48.8-.6-52.1-137.8-14.5-334.7-35.3-532.6-.6-523 91.7-719.6 268.6-811.5 352.9-114.3 104.7-51.8 299.2 98.4 370.8 98.4 46.9 367.3 64.9 541.3 71.7M31973 17487.3c348.3-270.6 377.1-404 178.7-607.1-128-131.1-441.1-118-699.9 374.6-258.7 492.7-43.4 1246 143.4 1707 77.6-289.2-61.6-1133 377.8-1474.5M31678.7 20029.4c-91.2 172.6-173.6 357.2-246.9 553.9-12.8 34.3 20.7 67.7 55 55.2 114.9-42.1 229.1-63.3 318.7-70.7 26-2.1 43.9-26.7 38.1-52.1-30.4-133-63.4-300.2-84.5-471.2-5.1-41.7-60.8-52.2-80.4-15.1" style="fill:#fff;fill-opacity:1;fill-rule:nonzero;stroke:none" transform="matrix(.0257 0 0 -.0257 -731.315 562.776)"/></g></svg>