<svg xmlns="http://www.w3.org/2000/svg" width="200mm" height="200mm" viewBox="0 0 200 200"><g style="display:inline"><path d="M17209.9 26544c0-119-67.9-229.7-196.2-327.9-91.3-69.9-211.3-130-352.8-183.3-114.7-43.3-241.9-86-382.2-115.5-123.7-26-255.9-50.9-394.8-64.2-128.2-12.3-262.5-17.3-399.9-17.3s-270.3 19.2-398.5 31.5c-138.9 13.3-273.1 21-396.9 47-140.3 29.4-272.2 61-386.9 104.3-141.5 53.4-253.9 130.5-345.2 200.4-128.4 98.2-202.1 206-202.1 325 0 118.9 75.2 224.9 203.5 323.2 91.3 69.8 204 144.5 345.5 197.9 114.6 43.2 244 83.4 384.3 112.9 123.8 26 257.9 39.3 396.8 52.6 128.2 12.3 262.1 19.3 399.5 19.3s271-10 399.2-22.2c138.9-13.3 270.4-37.7 393.6-66.3 267.8-62 102.2-20.4 383.2-108.6 144.3-45.3 260.1-114.2 351.4-184 128.3-98.2 198.5-205.9 198.5-324.8" style="fill:#e9f8f5;fill-opacity:1;fill-rule:nonzero;stroke:none" transform="matrix(.01918 0 0 -.01918 -197.017 687.178)"/><path d="M15484 27223.3c-130.8 0-264.3-6.4-397-19.1-125.5-12-267.9-25.7-393.8-52.1-126-26.5-254-64.1-380.5-111.8-150.2-56.7-265.3-138-338.7-194.2-130-99.5-193.1-198.3-193.1-302.1 0-104.3 64.5-206.6 191.7-304 82.7-63.3 195.9-142.8 338.5-196.6 119.5-45.1 260.7-77.5 382.9-103.2 95.8-20.1 197.5-29 305.2-38.4 29.4-2.6 59-5.2 88.8-8.1 31.7-3 63.6-6.5 95.9-10 97.3-10.5 198-21.4 300.1-21.4 146.8 0 276.8 5.6 397.4 17.2 143 13.7 278.4 39.9 391.9 63.8 150.6 31.6 281.2 77.7 378.2 114.3 147.9 55.8 261.1 114.5 346.1 179.6 123.3 94.3 185.8 197.5 185.8 306.8 0 106-63.3 208.2-188.1 303.7-105.9 81-221.3 141.5-343.2 179.8-95 29.8-139.6 45-166.3 54.1-41.2 14.1-41.2 14.1-130.1 34.5-22.2 5.1-49.8 11.4-84.8 19.5-140.2 32.5-267.8 53.9-390.3 65.7-107.2 10.3-249.2 22-396.6 22m0-1414c-105 0-207.1 11-305.8 21.7-32 3.5-63.8 6.9-95.2 9.9-29.7 2.9-59.2 5.5-88.4 8-109.4 9.6-212.6 18.7-311.5 39.4-124.2 26.1-267.8 59.1-390.7 105.5-149.1 56.2-266.5 138.6-352 204.1-141.1 107.9-212.6 224.4-212.6 346.1 0 121.4 70 234 214 344.2 76.1 58.2 195.4 142.5 352.2 201.7 129 48.7 259.6 87 388.3 114.1 128.8 27 272.7 40.8 399.7 53 134.3 12.8 269.5 19.4 402 19.4 149.6 0 293.3-11.9 401.7-22.3 124.8-12 254.7-33.8 397.1-66.8 35-8.1 62.6-14.5 84.7-19.5 89.9-20.7 91.6-21.1 135.5-36 26.4-9 70.6-24.1 165-53.7 127.8-40.2 248.7-103.5 359.5-188.3 138.6-106.1 208.9-222.4 208.9-345.8 0-126.6-69.5-244-206.6-349-89.1-68.2-206.8-129.4-359.5-187-146.8-55.4-265.9-91.4-386.1-116.6-115-24.2-252.1-50.7-397.8-64.7-122.2-11.7-253.8-17.4-402.4-17.4" style="fill:#211d1d;fill-opacity:1;fill-rule:nonzero;stroke:none" transform="matrix(.01918 0 0 -.01918 -197.017 687.178)"/><path d="m15912.7 29772 500.8 744.5-1709.6-215.9 357.4-557.6c129-166.8 207.1-387.7 208.5-613.9l11.5-1891.9c.1-22.5-1-45-3.7-67.3-32.4-264.8-205.1-522.4-208.7-564.8-3.7-44.6 148.7-145 431.2-148.7 204.4-2.7 327.1 82.2 379.3 129.3 16.5 14.9 17.1 40.2 2.5 56.9-78.6 89.8-128 266.8-155.6 399.5-19.1 92-28.6 185.6-28.9 279.6l-6.6 1790.4c-1.4 235.1 68.7 468.1 221.9 659.9" style="fill:#d3f0eb;fill-opacity:1;fill-rule:nonzero;stroke:none" transform="matrix(.01918 0 0 -.01918 -197.017 687.178)"/><path d="M15095.5 26603.4c7.6-28.7 140.1-117 404.9-120.5 193.4-2.8 309.3 75.7 361.2 122.5 5.5 5 5.6 13.6.3 19.7-82.4 94.2-133.3 275.8-161.6 411.6-19.2 92.5-29.1 188.3-29.4 284.9l-6.6 1790.4c-1.5 253.8 77 487.4 227 675.7l467.6 695.2-1610.1-203.3 334.2-521.3c134.2-174 211.9-403.2 213.3-629.1l11.5-1891.8c.1-24.6-1.2-48.4-3.9-70.7-23.4-191.1-116.3-375-171.8-484.8-16.8-33.4-34.2-67.9-36.6-78.5m414.1-173.6c-3.3 0-6.5 0-9.9.1-224.1 2.9-380.3 65.8-435.7 126.9-15.7 17.2-22.9 34.1-21.5 50.5 1.4 17 14 42.4 42.3 98.5 53.9 106.7 144.2 285.4 166.4 467.3 2.5 20.1 3.7 41.6 3.5 64l-11.5 1891.8c-1.3 214.9-75.2 432.8-202.9 597.9l-1.3 1.9-380.1 593 1809.1 228.4-534.6-794.7c-142.8-178.8-217.5-401.2-216.1-643.2l6.6-1790.4c.3-93.1 9.9-185.3 28.4-274.3 26.9-129.6 74.7-302 149.5-387.4 24.6-28.2 22.6-69.5-4.7-94-56.7-51.3-181.9-136.3-387.5-136.3" style="fill:#211d1d;fill-opacity:1;fill-rule:nonzero;stroke:none" transform="matrix(.01918 0 0 -.01918 -197.017 687.178)"/><path d="M16822.6 32536.1c14.2-.5 22.9-15.8 16-28.2-73.1-130.7 313.1-2195.9 276.2-2707.1-37-511.3-588.4-1946.9-1659.6-1934.8-1071.2 12.2-1684.5 1461.7-1693.6 1955.9-10.7 576.2 283.1 2807.9 283.1 2807.9z" style="fill:#e9f8f5;fill-opacity:1;fill-rule:nonzero;stroke:none" transform="matrix(.01918 0 0 -.01918 -197.017 687.178)"/><path d="M14067.9 32602.5c-31.5-242.2-289.7-2244.4-279.8-2780.1 4.5-243.7 161.6-727.6 444-1144.3 240.3-354.8 647.6-779 1223.4-785.6h13c1026 0 1581.6 1381.6 1619.8 1910.2 19.1 263.6-77.1 955.5-161.9 1566-91.7 660.1-143.7 1049.3-115.4 1141.2zm1400.9-4763.1c-4.6 0-9.2.1-13.9.1-598.7 6.8-1019.3 443.6-1266.8 808.8-291.1 429.8-448.3 915.5-453.1 1173.1-10.5 571.5 280.5 2789.5 283.4 2811.8l3.2 23.9 2801.9-94.5c16-.6 30.3-9.2 38.2-23.2 7.8-13.9 7.8-30.5 0-44.5-30.3-56.6 48.1-620.9 117.2-1118.9 85.2-613.1 181.8-1307.9 162.3-1577.2-20-277-179.7-770-446.2-1176.2-235-358.2-637.8-783.2-1226.2-783.2" style="fill:#211d1d;fill-opacity:1;fill-rule:nonzero;stroke:none" transform="matrix(.01918 0 0 -.01918 -197.017 687.178)"/><path d="M16809.1 32690c60.1-64.9 65.5-165.9 7.4-232.7-206.6-237.7-763.6-406.7-1334.4-403.9-661.2 3.2-1310.7 162.7-1436.1 530.3-25.4 74.5 3.1 157.3 68.4 201.4 347.4 234.7 802.7 234 1367.7 234 747.4 0 1087.9-71.2 1327-329.1" style="fill:#d3f0eb;fill-opacity:1;fill-rule:nonzero;stroke:none" transform="matrix(.01918 0 0 -.01918 -197.017 687.178)"/><path d="M15477 32992.5c-563.3 0-1008.2 0-1347.8-229.4-55.7-37.6-79.6-107.9-58.1-170.8 127.3-373.4 812.4-509.5 1411.2-512.4 560.4-2.7 1113 163.3 1314.2 394.8 47.8 55 44.8 141.6-6.9 197.3-225 242.7-542.7 320.6-1307.5 320.5zm18.7-965.7c-4.6 0-9.1 0-13.7.1-617 3-1324.8 148.6-1461.1 548.2-29.2 85.6 3.1 181 78.6 232 353.1 238.5 805.2 238.5 1377.5 238.5h5.1c782.3 0 1109.5-82 1346.4-337.5 71-76.5 74.4-191.8 8-268.2-103.2-118.7-296-225.3-542.9-300.1-240.9-73-523.7-113-797.9-113" style="fill:#211d1d;fill-opacity:1;fill-rule:nonzero;stroke:none" transform="matrix(.01918 0 0 -.01918 -197.017 687.178)"/><path d="M16318.5 26895.1s-240-20-173.3-133.3c66.6-113.4 306.6-146.7 306.6-253.4 0-106.6-593.3-166.6-586.6-273.3 4.6-73.2 826.6-66.7 1000 180 173.3 246.7-240 506.7-546.7 480m-1678.1 4916.3c-99.6 26.9-200.2-39.9-213.9-142.1-44.7-333.7-131.1-1057.6-154.1-1825.4-12-400.3 228.3-963.9 461.7-990.7 525.8-60.3 465.8 641.8 242.3 1149.6-71.4 162.5-121.8 333.6-151.1 508.6-82 489.9-62.3 934.7-58.7 1132 1.5 78.3-50.5 147.5-126.2 168" style="fill:#fff;fill-opacity:1;fill-rule:nonzero;stroke:none" transform="matrix(.01918 0 0 -.01918 -197.017 687.178)"/></g></svg>