<svg xmlns="http://www.w3.org/2000/svg" width="200mm" height="200mm" viewBox="0 0 200 200"><g style="display:inline"><path d="M25436.3 32426c9.3-141.1.8-767-13.1-1482-2.5-127.1-58.4-267.4-61.2-397.9-3.9-184.2 45.3-359.1 41.3-539.4-18.9-831.3-125.1-928.5-62.4-1523.5 52.8-502.1 226.9-725.7 242.4-1025.1 27.7-540.9 7.2-905.6 1.4-992.1-.6-3.9-1.1-7.9-.9-11.8-.5-2.6-.5-5.4-.5-8.2 0-83.7 62-159.5 169.7-228.7 76.7-49.1 171.1-103.4 290.1-141 96.1-30.4 207.1-52.6 324.7-73.3 104.1-18.3 216.8-23.6 333.3-32.9 107.7-8.8 219.3-22.3 334.7-22.3s228.1 3.5 335.8 12.1c116.5 9.5 227.5 26.9 331.4 45.2 117.9 20.9 224.7 50.8 321.1 81.2 118.7 37.6 219.5 80 296.2 129.2 107.7 68.9 164.7 146.8 164.7 230.5l23.3 1193.4s181.8 668.5 204.4 891.3c38.1 376.3-78.5 1476-78.5 1476l61.7 579.3-80.8 428.7-26.5 1393.4s-3170.3 290.7-3152.3 17.9" style="fill:#eacbc0;fill-opacity:1;fill-rule:nonzero;stroke:none" transform="matrix(.02616 0 0 -.02616 -606.89 870.873)"/><path d="M26187.4 32516.3c-537.3 0-684.5-44.7-719-78.4-5.9-5.7-5.7-8.9-5.6-10.1 8.1-123 3.7-622.4-13.1-1484.3-1.3-65.8-16.3-135-30.9-201.9-14.2-65.4-29-133.1-30.3-196.1-1.9-90.4 9.5-180.6 20.6-268 11.2-88.2 22.7-179.5 20.7-271.4-8.2-357.4-32.7-582.6-52.4-763.5-26.5-243.5-45.7-419.5-10.2-756.7 28.2-267.4 90.7-453.9 145.9-618.4 47.9-142.8 89.3-266.2 96.7-408.1 27.3-534.7 7.9-896.9 1.3-995.2l-.2-1.9c-.3-2.3-.7-5.1-.6-6.3l.2-3.8-.8-3.7c0-.4.1-1.4.1-2.5 0-69.8 53-139.3 157.5-206.4 69.3-44.4 164.2-100.3 283.8-138 100.6-31.9 218.9-54.5 321.3-72.5 80.7-14.2 166.4-20.5 257.1-27.1 24.4-1.7 49-3.5 73.7-5.5 25.7-2.1 51.5-4.5 77.5-6.8 82.7-7.6 168.2-15.4 255.1-15.4 123.4 0 232.5 3.9 333.7 12 122.7 10 240.2 29.2 328.8 44.9 128.7 22.8 243 56.8 317.8 80.4 123.6 39.1 218.4 80.3 289.9 126.2 101.2 64.7 152.5 134.8 152.5 208.2l23.4 1197.2.8 3.1c1.8 6.7 181.6 669 203.6 887.1 37.4 369.3-77.3 1459.5-78.4 1470.5l-.3 2.8.3 2.8 61.2 575.4-80.5 427.1v2.2l-26 1369.7c-131.3 11.7-788.9 69-1460.8 104.1-388.9 20.3-686.7 28.3-914.4 28.3m848.4-6595c-89.3 0-176 7.9-259.9 15.6-25.8 2.3-51.5 4.7-76.9 6.8-24.6 1.9-49.1 3.7-73.3 5.5-92.1 6.7-179.1 13-262.5 27.7-104.1 18.3-224.5 41.4-328.1 74.1-125.5 39.7-224.3 97.8-296.4 144-120.7 77.5-181.9 162-181.9 251 0 2.7 0 6.1.5 9.9-.1 4.9.5 9.3 1 12.8 6.6 98.9 25.7 457.9-1.5 988-6.9 134.6-47.3 254.8-93.9 394-56.1 167.1-119.6 356.5-148.4 629.7-36.1 342.8-16.7 521.1 10.2 767.9 19.6 179.9 44 403.9 52.1 759 2 87.9-8.8 173.2-20.3 263.6-11.3 89.2-23 181.4-21 275.7 1.4 68.2 16.7 138.4 31.5 206.3 14.7 67.4 28.5 131 29.7 191.7 16.8 860.4 21.2 1358.2 13.2 1479.7-.9 13.1 2.1 32.7 21.5 51.6 36.3 35.4 138.3 83.4 602.9 92.1 270.3 5 630.4-4.1 1070.4-27.1 748.5-39.1 1479.1-105.7 1486.4-106.4l23.6-2.1 26.8-1415 81.1-430.4-.4-3.8-61.3-576.5c7.8-74.9 115.5-1109.7 78.2-1478.6-22-217-189.2-836.5-204.4-892.5l-23.2-1190.1c0-92.2-59.5-177.2-176.9-252.3-75.5-48.4-174.4-91.7-302.5-132.2-76.3-24-192.8-58.7-324.5-82-89.8-15.8-208.9-35.4-333.8-45.5-102.7-8.2-213.2-12.2-338-12.2" style="fill:#211d1d;fill-opacity:1;fill-rule:nonzero;stroke:none" transform="matrix(.02616 0 0 -.02616 -606.89 870.873)"/><path d="M28596.4 32447.2c0-90.2-62-174-179.4-248.5-83.5-52.9-193.3-98.4-322.7-138.9-104.8-32.7-221.1-65.1-349.4-87.4-113.2-19.7-234.1-38.6-361.1-48.7-117.2-9.3-240.1-13.1-365.7-13.1-125.7 0-247.2 14.6-364.4 23.9-127.1 10.1-249.8 15.9-363 35.6-128.3 22.3-249 46.2-353.8 79-129.4 40.4-232.3 98.9-315.8 151.8-117.3 74.4-184.8 156.2-184.8 246.3s68.8 170.4 186.2 244.8c83.5 53 186.5 109.5 315.9 150 104.8 32.7 223.2 63.2 351.5 85.5 113.1 19.7 235.8 29.8 362.8 39.9 117.3 9.3 239.7 14.6 365.4 14.6 125.6 0 247.8-7.5 365-16.9 127.1-10 246.8-30.4 360-50.1 128.3-22.4 245.6-49.6 350.4-82.4 129.4-40.4 237.9-86.4 321.4-139.4 117.3-74.4 181.5-155.9 181.5-246" style="fill:#d8a591;fill-opacity:1;fill-rule:nonzero;stroke:none" transform="matrix(.02616 0 0 -.02616 -606.89 870.873)"/><path d="M27018.1 32955.5c-119.7 0-242-4.9-363.3-14.6-114.9-9.1-245.2-19.4-360.4-39.5-115.3-20-232.4-48.6-348.1-84.7-137.4-43-242.5-104.5-309.7-147.1-116.9-74.1-173.8-146.9-173.8-222.4 0-76 58.1-151.3 172.5-223.9 75.6-47.9 179.1-108.1 309.5-148.9 109.4-34.2 238.5-58.7 350.4-78.2 87.7-15.3 180.8-22 279.3-29.2 26.9-1.9 54-3.9 81.3-6.1 28.9-2.3 58.1-4.9 87.5-7.5 89.1-8 181.2-16.3 274.8-16.3 134.4 0 253.3 4.3 363.6 13 130.9 10.4 254.7 30.3 358.6 48.4 107.5 18.7 214.3 45.4 346.1 86.6 135.2 42.3 238.7 86.8 316.4 136 110.9 70.3 167.1 146.4 167.1 226.1 0 77.2-56.9 152.4-169.2 223.7-78.5 49.7-184.5 95.6-315.1 136.4-101.1 31.7-217.9 59.1-347 81.6-101.2 17.6-227.1 39.5-357.6 49.8-98.1 7.8-228 16.8-362.9 16.8m0-1071.4c-96 0-189.3 8.4-279.5 16.5-29.3 2.6-58.3 5.2-87 7.5-27.2 2.1-54.2 4.1-80.9 6.1-99.9 7.2-194.3 14.1-284.6 29.8-113.5 19.7-244.8 44.7-357.1 79.8-136.3 42.6-243.7 105.1-322.1 154.7-130.8 83-197.1 173.4-197.1 268.7 0 95.1 64.9 182.5 198.5 267.2 69.6 44.1 178.8 108 322.2 152.9 117.9 36.8 237.3 65.9 354.8 86.3 117.7 20.5 249.3 31 365.3 40.2 122.7 9.7 246.4 14.7 367.5 14.7 136.8 0 268-9.1 367.1-16.9 133-10.6 260.2-32.7 362.5-50.5 131.4-22.9 250.4-50.9 353.8-83.2 136.9-42.8 244-89.3 327.6-142.3 128.6-81.6 193.8-171.9 193.8-268.4 0-99.1-64.5-190.2-191.7-270.8-81.7-51.8-189.3-98.2-328.9-141.8-134.2-42-243-69.2-352.9-88.3-105.1-18.3-230.5-38.4-363.5-49-111.7-8.9-232-13.2-367.8-13.2" style="fill:#211d1d;fill-opacity:1;fill-rule:nonzero;stroke:none" transform="matrix(.02616 0 0 -.02616 -606.89 870.873)"/><path d="M27338.6 29809.7c72.1 260.4 317.1 887.9 606 894.9 288.9 7.1 511.1-561.6 542.6-655.3 55.7-165.9-1049.9-678.7-1148.6-570.8-50.6 55.2-22.1 251.4 0 331.2" style="fill:#d8a591;fill-opacity:1;fill-rule:nonzero;stroke:none" transform="matrix(.02616 0 0 -.02616 -606.89 870.873)"/><path d="M27364.1 29802.6c-26.4-95.6-42.3-266.5-6-306.2 9.5-10.4 84-18.9 311.6 65 170.8 63 372.9 158.7 527.5 249.8 225.8 133.1 272 208.4 264.9 229.6-55.8 166.2-269 637.4-512.3 637.4-1.5 0-3 0-4.6-.1-114.3-2.8-239.4-120-361.8-338.9-103.4-184.9-182.7-404.6-219.3-536.6m26.3-365.3c-50 0-64.3 15.6-71.4 23.3-66.7 72.9-21.7 299.5-5.9 356.2 69.7 251.7 319 906.7 630.9 914.3 2 .1 4 .1 6 .1 332.3 0 560-666.7 562.3-673.5 8.5-25.2 34.3-102.1-288.2-292.1-157.1-92.7-362.5-190-536.1-253.9-157.4-58-246.3-74.4-297.6-74.4" style="fill:#211d1d;fill-opacity:1;fill-rule:nonzero;stroke:none" transform="matrix(.02616 0 0 -.02616 -606.89 870.873)"/><path d="M26805 29732.2c-72.1 260.4-317.1 887.9-606 894.9s-511.1-561.6-542.6-655.3c-55.7-166 1049.9-678.7 1148.6-570.8 50.6 55.2 22.1 251.4 0 331.2" style="fill:#d8a591;fill-opacity:1;fill-rule:nonzero;stroke:none" transform="matrix(.02616 0 0 -.02616 -606.89 870.873)"/><path d="M26193.8 30600.7c-243.3 0-456.4-471.2-512.2-637.4-7.2-21.2 39-96.5 264.8-229.6 154.6-91.2 356.8-186.9 527.6-249.8 227.6-83.9 302-75.4 311.5-65 36.4 39.7 20.5 210.6-6 306.2-36.5 131.9-115.9 351.6-219.3 536.6-122.4 218.9-247.5 336.1-361.8 338.9-1.5 0-3.1.1-4.6.1m559.4-1240.9c-51.3 0-140.1 16.3-297.6 74.4-173.5 63.9-379 161.2-536.1 253.8-322.5 190.1-296.7 267-288.2 292.2 2.3 6.8 233.1 681.8 568.4 673.4 311.9-7.6 561.2-662.6 630.9-914.3 15.7-56.7 60.7-283.3-6-356.2-7.1-7.8-21.4-23.3-71.4-23.3" style="fill:#211d1d;fill-opacity:1;fill-rule:nonzero;stroke:none" transform="matrix(.02616 0 0 -.02616 -606.89 870.873)"/><path d="M28364 30578.7c-264.4 286.4-786 675.4-1118.2-228.9-1.5-4.1-110.4-450.1-205-410.8-101.9 42.3-294.1 896-722.2 917.1-315.9 15.6-577.1-354.4-692.3-549.4-26.4-44.7-94.1-34.2-105.4 16.5-21 95-33 228.2 15 356.8 79.6 212.8 346.6 407.6 624.1 482.6 457.1 123.6 734.5-291.9 834.7-481.4 20.2-38.2 73.7-41.3 98.1-5.7 115.3 168.6 385.4 534.3 568.2 550.6 201.1 17.8 619.4 25.9 850.9-447.5 15.6-31.9 22.1-77.3 24-128.6 3.5-91.9-109.5-138.8-171.9-71.3" style="fill:#f4e0d9;fill-opacity:1;fill-rule:nonzero;stroke:none" transform="matrix(.02616 0 0 -.02616 -606.89 870.873)"/><path d="M26299 30883.1c6.9 0 13.9-.2 20.9-.5 312.4-15.4 498.1-433.8 620.9-710.7 41.3-93.2 88.2-198.8 110.1-208.5 1-.4 2.5-1 6.6 1 42.5 21.2 105.8 173 161.2 386.6 1.2 4.8 2 7.5 2.2 7.9 124.9 340 289.7 532.7 489.8 572.5 253.9 50.6 506-154.1 672.7-334.7 25.2-27.3 58.4-27 81-17.7 22.7 9.4 46.5 32.7 45 70-2 54.2-9 92.8-21.3 118-237.1 484.9-679.4 445.6-824.8 432.7-119.8-10.7-325-212.2-548.6-539.1-16.8-24.5-44.5-38-74-36.4-29.5 1.7-55.5 18.4-69.4 44.6-95.4 180.4-364.7 587.1-804.3 468.3-278.4-75.3-533.4-271.4-606.2-466.4-46.6-124.5-33.3-254.6-14-341.8 4.2-18.8 20.3-22.8 25.1-23.5 4.9-.8 21.6-2.1 31.6 14.8 125.4 212.2 380.3 562.9 695.5 562.9m753.8-973.1c-7.5 0-15 1.5-22.2 4.5-39.4 16.4-72.7 88.1-138.3 235.9-117.5 265-295.2 665.4-575 679.2-308.4 15.3-569.9-370-668.2-536.4-17.6-29.9-51.2-45.7-85.5-40.2-34.2 5.5-61.1 30.7-68.5 64.5-20.9 94.1-35.1 235.1 16 371.7 79.7 213.2 343.7 418.4 642 499 476.6 128.8 763.7-303 865.1-494.6 5.2-9.9 14.5-15.9 25.6-16.5 11.1-.7 20.9 4.3 27.1 13.4 138.7 202.7 399.5 545.2 587.7 562 104.9 9.3 263.1 15.2 425.1-40.9 196.5-68 348.5-209.8 452-421.4 15.8-32.4 24.3-76.6 26.7-139.1 2-53.2-28.5-100.7-77.7-121.1-49.2-20.3-104.2-8.2-140.2 30.8-157.6 170.6-393.6 364.4-623.4 318.7-180.6-36-332-217-450.1-537.8l-1-4c-44.4-171.1-113.1-383-188.9-420.7-9.4-4.7-18.9-7-28.3-7" style="fill:#211d1d;fill-opacity:1;fill-rule:nonzero;stroke:none" transform="matrix(.02616 0 0 -.02616 -606.89 870.873)"/><path d="M27161.4 29424.1c-53.6 77-167.7 76-220.1-1.8-185.5-275.9-537.5-823.7-469.4-912.7 32.1-42.1 190.4-64.5 278.3-91.6 86.5-26.7 194-118.2 287.1-123.3 81.7-4.5 184.9 102.7 237.9 119.8 174.7 56.3 405.2-42.3 327.6 239.5-53.4 194.3-295.9 561-441.4 770.1" style="fill:#f4e0d9;fill-opacity:1;fill-rule:nonzero;stroke:none" transform="matrix(.02616 0 0 -.02616 -606.89 870.873)"/><path d="M27052 29454.7h-.9c-35.8-.2-67.8-17.5-87.8-47.2-422.8-628.7-494.6-850.1-470.4-881.8 16.7-21.9 109.1-43.7 170.2-58.1 34.8-8.1 67.6-15.9 94.9-24.3 37.6-11.6 76.6-33.3 117.9-56.3 55.8-31 113.5-63.2 162.9-65.9 43.2-2.4 100.7 38.1 147.2 70.6 31.1 21.7 58 40.6 81 48 52.7 17 109.9 20.7 160.3 24 68.5 4.4 127.6 8.3 151 41.2 18.2 25.6 17.9 73.4-1 142.1-52.7 191.5-296.8 559.6-437.7 762-20.2 29.1-52.1 45.7-87.6 45.7m-9.7-1186.7c-2.2 0-4.3.1-6.4.2-61.6 3.4-124.8 38.5-185.8 72.5-38.8 21.6-75.4 42-107.7 52-25.6 7.8-57.6 15.4-91.4 23.4-103.9 24.4-173.9 43-200.2 77.4-21.8 28.6-88.3 115.5 468.5 943.6 29.5 43.8 78.6 70.2 131.4 70.6h1.3c52.3 0 101.2-25.5 131.1-68.5 142.8-205.1 390.5-579 445.3-778.1 24-87.3 21.8-146.6-6.9-186.9-38.1-53.5-112.2-58.3-190.7-63.4-49.7-3.2-101.1-6.6-147.5-21.6-15.4-4.9-40.4-22.4-66.9-41-51.3-35.8-114.7-80.2-174.1-80.2" style="fill:#211d1d;fill-opacity:1;fill-rule:nonzero;stroke:none" transform="matrix(.02616 0 0 -.02616 -606.89 870.873)"/><path d="M28078.5 30010.5c0-95.3-77.3-172.6-172.7-172.6-95.3 0-172.6 77.3-172.6 172.6 0 95.4 77.3 172.7 172.6 172.7 95.4 0 172.7-77.3 172.7-172.7" style="fill:#eacbc0;fill-opacity:1;fill-rule:nonzero;stroke:none" transform="matrix(.02616 0 0 -.02616 -606.89 870.873)"/><path d="M27905.8 30156.7c-80.5 0-146.1-65.6-146.1-146.2s65.6-146.1 146.1-146.1c80.6 0 146.2 65.5 146.2 146.1s-65.6 146.2-146.2 146.2m0-345.3c-109.8 0-199.1 89.3-199.1 199.1s89.3 199.2 199.1 199.2c109.9 0 199.2-89.4 199.2-199.2s-89.3-199.1-199.2-199.1" style="fill:#211d1d;fill-opacity:1;fill-rule:nonzero;stroke:none" transform="matrix(.02616 0 0 -.02616 -606.89 870.873)"/><path d="M26471.9 29947.1c0-110.9-90-200.8-200.9-200.8s-200.8 89.9-200.8 200.8 89.9 200.8 200.8 200.8 200.9-89.9 200.9-200.8" style="fill:#eacbc0;fill-opacity:1;fill-rule:nonzero;stroke:none" transform="matrix(.02616 0 0 -.02616 -606.89 870.873)"/><path d="M26271 30121.4c-96.1 0-174.3-78.2-174.3-174.3s78.2-174.3 174.3-174.3c96.2 0 174.3 78.2 174.3 174.3s-78.1 174.3-174.3 174.3m0-401.6c-125.3 0-227.3 101.9-227.3 227.3s102 227.3 227.3 227.3c125.4 0 227.4-101.9 227.4-227.3s-102-227.3-227.4-227.3" style="fill:#211d1d;fill-opacity:1;fill-rule:nonzero;stroke:none" transform="matrix(.02616 0 0 -.02616 -606.89 870.873)"/><path d="M25880.2 27753.9c-23.7-316.8 331.2-687 1099.3-637.7s1255.8 352.5 1235.7 620.1c-27.2 362.9-2307 391.8-2335 17.6" style="fill:#f4e0d9;fill-opacity:1;fill-rule:nonzero;stroke:none" transform="matrix(.02616 0 0 -.02616 -606.89 870.873)"/><path d="M25906.6 27751.9c-9.2-123.2 42.3-248.1 144.9-351.8 110.1-111.3 376.8-292.8 926.3-257.5 613.8 39.5 987.2 231.3 1131.8 397.6 56.5 64.9 83.9 132 79.2 194.1-11 146.4-536 261-1195.3 261h-1.1c-618.6-.1-1075.2-102.5-1085.8-243.4m935.5-666.7c-477.8 0-721.7 169.9-828.3 277.6-113.6 114.8-170.4 254.4-160 393.1 7.3 98.3 132.8 174.2 372.8 225.7 200.2 43 472.1 66.6 765.8 66.7h1c307.7 0 611.4-26.6 833.6-73 267.5-55.9 407-135.7 414.7-237 5.7-76.5-26.1-157.1-92.1-232.9-193.5-222.5-641.3-381.8-1168.4-415.7-48.4-3.1-94.8-4.5-139.1-4.5" style="fill:#211d1d;fill-opacity:1;fill-rule:nonzero;stroke:none" transform="matrix(.02616 0 0 -.02616 -606.89 870.873)"/><path d="M27092.9 27568.6c-15.2 0-30.4.1-45.7.3-661 7-1169.6 158.2-1174.6 159.7l15.2 50.6c5-1.5 506.9-150.6 1159.9-157.5 15.2-.2 30.3-.2 45.3-.2 630.7 0 1109.9 138.7 1114.8 140.1l14.9-50.7c-5-1.4-491-142.3-1129.8-142.3" style="fill:#211d1d;fill-opacity:1;fill-rule:nonzero;stroke:none" transform="matrix(.02616 0 0 -.02616 -606.89 870.873)"/><path d="M28481.2 29640.7c-269.1-304.2-840.3-385.9-988.6-402.3-10.5-1.2-13-15.3-3.5-20 113.9-56.5 498.2-234.8 654.2-147.5 142.9 80 294.6 413.4 355.4 558.8 4.6 11-9.6 19.9-17.5 11" style="fill:#f4e0d9;fill-opacity:1;fill-rule:nonzero;stroke:none" transform="matrix(.02616 0 0 -.02616 -606.89 870.873)"/><path d="M27549.4 29218.7c219.4-103.2 474.1-184.4 581-124.7 85.8 48.1 199.7 220.9 310.5 468.7-260.7-234.2-695.5-317.5-891.5-344m482.7-197.8c-181.5 0-436 114.8-554.8 173.8-14.9 7.4-22.9 23.3-20 39.7 2.9 16.3 15.9 28.5 32.4 30.3 162.2 18 711.5 99.5 971.6 393.5 12.1 13.7 32 16.6 47.4 6.9s21.5-28.9 14.5-45.7c-74.8-178.6-221.8-490.3-366.9-571.6-33.9-18.9-76.5-26.9-124.2-26.9" style="fill:#211d1d;fill-opacity:1;fill-rule:nonzero;stroke:none" transform="matrix(.02616 0 0 -.02616 -606.89 870.873)"/><path d="M26582.7 29191.8c-209 37.9-775.8 174.8-976.5 568.4-7.2 14.2-28.7 8.6-27.8-7.4 8.9-165 52.1-549.2 260-642.7 136.4-61.3 566.5 16.6 744.6 52.7 15.9 3.3 15.7 26.1-.3 29" style="fill:#f4e0d9;fill-opacity:1;fill-rule:nonzero;stroke:none" transform="matrix(.02616 0 0 -.02616 -606.89 870.873)"/><path d="M25608.4 29701.9c14.5-176 65.1-488.6 240.9-567.6 84.8-38.2 333.1-22 670 42.9-245.5 51.3-706.8 189.4-910.9 524.7m393.1-641c-72.7 0-134.1 7.1-173.9 25-221.7 99.7-266.6 498.6-275.7 665.5-1 19.6 11.5 36.9 30.4 42 19 5.1 38.6-3.6 47.5-21.2 193.1-378.5 734-513.7 957.6-554.3 19.8-3.6 33.7-20.1 33.9-40.1.2-20.1-13.4-36.9-33.1-40.9-159.9-32.5-407.5-76-586.7-76" style="fill:#211d1d;fill-opacity:1;fill-rule:nonzero;stroke:none" transform="matrix(.02616 0 0 -.02616 -606.89 870.873)"/><path d="M26283 26985.8c-17.1 17 1 45.1 23.5 36.8 163.8-60.6 500.7-167.7 773.4-140.8 268.1 26.4 601 147.3 769.2 214.2 22.8 9 41.3-20 23.6-36.9-196.7-187.9-679.3-636.3-825-652.9-146.1-16.8-587.2 403.7-764.7 579.6" style="fill:#d8a591;fill-opacity:1;fill-rule:nonzero;stroke:none" transform="matrix(.02616 0 0 -.02616 -606.89 870.873)"/><path d="m26301.7 27004.7-18.7-18.9zm13.7-13.6c360-355.3 638.9-569.2 729.3-558.6 94.1 10.8 390.4 246.3 794.2 630.9-178.8-70.1-496.6-182.3-756.4-208-265.8-26.2-587.7 70.7-767.1 135.7m724.4-611.9c-150.4 0-502.8 317.6-775.4 587.8-16.5 16.3-19.3 41.3-6.9 60.9 12.5 19.5 36.4 27.6 58.2 19.5 170.9-63.2 497.2-165.3 761.6-139.2 263.3 25.9 590.4 144.2 762 212.4 22 8.7 46.3.9 59.1-19s9.7-45.3-7.4-61.7c-250.4-239.2-692.5-643.1-840.3-660.1-3.5-.4-7.1-.6-10.9-.6" style="fill:#211d1d;fill-opacity:1;fill-rule:nonzero;stroke:none" transform="matrix(.02616 0 0 -.02616 -606.89 870.873)"/><path d="m28482.9 32431.8.1.1c14.6 20.5 10.5 50.6-10.6 72.5-57.8 60.3-190 150.9-375.9 221.4-259.7 98.6-685.8 192.8-1288.7 151.6-44.4-3-81.4-23.9-74.9-60.4 6.3-35 45.2-60.9 87.8-58 563.5 38.6 964.5-57.7 1205-147.7 174.8-65.4 291.6-136.6 353-179.4 30.9-21.5 75.4-21.5 104.2-.1" style="fill:#eacbc0;fill-opacity:1;fill-rule:nonzero;stroke:none" transform="matrix(.02616 0 0 -.02616 -606.89 870.873)"/><path d="M27040 29305s-210-735-120-840 133 118 153.3 240c26.7 160 41.7 675-33.3 600" style="fill:#fbf3f1;fill-opacity:1;fill-rule:nonzero;stroke:none" transform="matrix(.02616 0 0 -.02616 -606.89 870.873)"/><path d="M26780.8 27330.5c96.3 5.2 192.8 9.9 288.2 16.4 95.5 6.5 190.4 14.5 284.4 26.3 93.9 11.7 186.8 26.9 278 47.9 45.4 10.9 90.8 22.5 135.1 37 44.5 14.2 88.1 30.8 131.8 49.1l.7.3c14.5 6.1 31.2-.7 37.3-15.2 5-11.8 1.4-25-7.9-32.9-39-32.8-82.4-60-127.3-83.7-45.1-23.6-92.3-42.2-140.1-58.5-95.9-32-194.8-51.4-293.8-62.2-99.1-11-198.5-13.3-297.3-8.8-49.4 2.5-98.7 6.6-147.7 13.1-49.1 6.8-97.5 14.3-146.3 26.9-12 3.1-19.3 15.4-16.2 27.4 2.5 9.7 11 16.3 20.6 16.9zM26170.1 27826.4c29.7 15.2 60.6 26.2 91.8 36.8 31.2 10.1 62.8 19.2 94.7 26.7 63.8 15.3 128.6 25.8 193.6 33.1 32.5 3.3 65.1 6.4 97.7 8 32.6 2.2 65.3 2.5 98 2.9 32.7.3 65.4-1.5 98-2.7 32.6-2.3 65.2-5 97.7-9.5l.1-10c-32.3-6-64.5-9.7-96.7-13.9-32.2-4.3-64.3-7.8-96.3-11.7l-191.9-21.7-191.4-22.8c-63.8-8-127.8-16-192.2-24.7z" style="fill:#fefbfb;fill-opacity:1;fill-rule:nonzero;stroke:none" transform="matrix(.02616 0 0 -.02616 -606.89 870.873)"/></g></svg>