<svg xmlns="http://www.w3.org/2000/svg" width="200mm" height="200mm" viewBox="0 0 200 200"><g style="display:inline"><path d="M33422.5 6415.1s210.6-35 309.7-142.9c111.1-121.1 228.3-541.4-291.8-716.1-262.4-88.1-702.8-230-1104.6-232.5-585.1-3.8-1145 212.3-1331 327.3-310.9 192.4-251.5 385.7-178.6 539.9 103.2 218.4 315.6 283.9 315.6 283.9h2274.8z" style="fill:#f4fafa;fill-opacity:1;fill-rule:nonzero;stroke:none" transform="matrix(.01902 0 0 -.01902 -513.946 292.49)"/><path d="M31146.1 6448.2c-27.1-9.6-206.3-79-295.9-268.7-71.1-150.4-122.6-325.9 168.6-506 171.7-106.3 713.6-323.5 1301.7-323.5 5.1 0 10.1 0 15.2.1 415.9 2.6 875.4 157 1096.3 231.1 196.7 66.1 320.3 177.1 357.4 321 39.3 152.8-26.2 297-76.7 352.1-91.7 99.8-292.5 134.4-294.5 134.7l-20 3.3-5.6 55.9zM32320.6 5297c-599.6 0-1153.8 222.6-1329.7 331.4-146.9 90.8-227.1 189.8-245.5 302.5-16.1 99.1 19.7 192.7 56.8 271.3 107 226.3 322.7 295 331.8 297.8l3.8 1.2h2302.8l6.3-63.8c56.8-11.9 218.2-52.9 304.8-147.3 72.8-79.3 128.8-246.8 89-401.1-29.1-113.1-120.7-266.9-391.9-358-223.4-75.1-688.3-231.2-1112.8-233.9-5.1-.1-10.3-.1-15.4-.1" style="fill:#211d1d;fill-opacity:1;fill-rule:nonzero;stroke:none" transform="matrix(.01902 0 0 -.01902 -513.946 292.49)"/><path d="M33796.8 9576.3c-136-1551.9-280.6-3209.4-280.6-3244.7 0-74.1-48.3-143-139.7-204.1-65-43.5-150.5-80.9-251.2-114.1-81.6-27-172.2-53.6-272.1-71.9-88.1-16.2-182.2-31.7-281.1-40-91.3-7.6-186.9-10.7-284.7-10.7s-192.5 11.9-283.7 19.6c-51.8 4.3-102.7 7.7-152 12.2-44.9 4.2-88.7 9.3-130.6 17-80.4 14.7-157 30.4-226.4 50-16.8 4.7-33.2 9.6-49.1 14.9-100.7 33.3-180.8 81.3-245.8 124.8-91.4 61.1-120.8 118.8-120.8 192.9 0 35.2-152.3 1669.8-295 3217.2 2281 239.2 1792.9 275.9 3012.8 36.9" style="fill:#deefef;fill-opacity:1;fill-rule:nonzero;stroke:none" transform="matrix(.01902 0 0 -.01902 -513.946 292.49)"/><path d="M30812.8 9515.8c36.1-390.9 72.7-786.8 107.2-1160.5 118.5-1281 185.5-2007 185.5-2033.1 0-58.8 18.5-110.3 109-170.8 58.5-39.2 138.6-88.4 239.4-121.7 14.4-4.8 30.1-9.5 47.9-14.6 75.7-21.3 159.5-37.6 224.1-49.4 35.9-6.6 75.4-11.7 128.3-16.7 29.2-2.7 59-4.9 89.3-7.3 20.6-1.5 41.4-3.1 62.4-4.9 22.1-1.8 44.3-3.9 66.7-6 69.7-6.6 141.8-13.5 214.8-13.5 104.4 0 196.8 3.5 282.5 10.6 101.9 8.6 198 24.9 278.5 39.7 108.5 19.9 205.2 50 268.6 71 104.8 34.5 184.8 70.8 244.8 111 84.9 56.7 127.9 118 127.9 182 0 10.9 0 44.1 278.6 3223.3-88.9 17.5-168.6 33.4-240.9 47.9-699.5 140.2-699.5 140.2-1682.2 27.3-266.5-30.6-596.8-68.5-1032.4-114.3m1474.6-3651.5c-75.5 0-148.9 7-219.8 13.7-22.2 2.1-44.3 4.2-66.1 6-20.8 1.8-41.5 3.3-62.1 4.9-30.5 2.3-60.6 4.6-90.1 7.3-54.5 5.1-95.5 10.5-133 17.4-65.7 12-151.1 28.6-228.8 50.5-18.7 5.2-35.1 10.2-50.3 15.3-106.8 35.3-190.9 86.9-252.1 127.9-92.9 62.1-132.6 126.4-132.6 214.9-.7 32.5-86.2 957.4-185.2 2028.2-35.4 382-72.9 787.2-109.7 1186.6l-2.4 26 26 2.8c448.3 47 786.3 85.8 1057.9 117 991 113.8 991 113.8 1698.7-28 78.5-15.7 165.8-33.2 264.1-52.5l23.4-4.5-2.1-23.8c-185.5-2116.2-279.8-3207.2-280.5-3242.5 0-82.7-51-158.8-151.5-226-63.9-42.8-148.2-81.2-257.6-117.2-64.8-21.5-164-52.4-275.6-72.8-81.8-15.1-179.5-31.6-283.7-40.4-87.2-7.2-181-10.8-286.9-10.8" style="fill:#211d1d;fill-opacity:1;fill-rule:nonzero;stroke:none" transform="matrix(.01902 0 0 -.01902 -513.946 292.49)"/><path d="m31965.2 9288.4-113.5-3365.8c-44.9 4.2-88.7 9.3-130.6 17-80.4 14.7-157 30.4-226.4 50l-262.9 3392.1z" style="fill:#fbfefe;fill-opacity:1;fill-rule:nonzero;stroke:none" transform="matrix(.01902 0 0 -.01902 -513.946 292.49)"/><path d="M30812.8 9515.8c36.3-393.8 73.2-792.7 108-1168.9 118-1275.6 184.7-1998.6 184.7-2024.7 0-58.8 18.6-110.3 109-170.9 58.5-39.1 138.6-88.3 239.4-121.6 84.8-28 185.1-48 272-64 67.8-12.5 140.1-18 216.6-23.9 21-1.6 42.1-3.2 63.4-5 22.5-1.9 45.2-4 68.2-6.2 69.2-6.5 140.8-13.3 213.3-13.3 104.5 0 196.9 3.5 282.5 10.7 101.6 8.5 197.8 24.8 278.6 39.6 83.4 15.3 166.2 37.2 268.5 71 104.7 34.5 184.8 70.8 244.8 110.9 84.9 56.8 127.9 118.1 127.9 182.1 0 29.6 93.8 1114 278.6 3223.3-88.9 17.5-168.5 33.4-240.8 47.9-699.6 140.2-699.6 140.2-1682.2 27.3-266.5-30.6-596.8-68.5-1032.5-114.3m1474.6-3651.5c-75 0-147.9 6.9-218.3 13.5-22.8 2.2-45.3 4.3-67.6 6.2-21.2 1.8-42.2 3.4-63 5-78 6-151.6 11.6-222.2 24.6-88.7 16.3-191.2 36.8-279 65.8-106.9 35.3-190.9 86.9-252.2 127.9-92.9 62.1-132.6 126.4-132.6 214.9-.7 32.4-85.8 953.4-184.5 2019.9-35.5 384.4-73.3 792.6-110.4 1194.9l-2.4 26 26 2.8c448.3 47 786.4 85.8 1058 117 991 113.8 991 113.8 1698.7-28 78.5-15.8 165.7-33.2 264-52.5l23.4-4.6-2.1-23.7c-231-2635.1-280-3217.8-280.5-3242.5 0-82.7-50.9-158.8-151.4-226-64.1-42.9-148.4-81.2-257.7-117.3-104.6-34.5-189.6-57-275.6-72.7-82-15.1-179.8-31.7-283.7-40.4-87-7.3-180.9-10.8-286.9-10.8" style="fill:#211d1d;fill-opacity:1;fill-rule:nonzero;stroke:none" transform="matrix(.01902 0 0 -.01902 -513.946 292.49)"/><path d="M33869.1 9575.6c0 110.7-3166.4 110.7-3166.4 0v-214.4c0-110.8 67.6-211.2 185.2-302.6 83.6-65.1 186.7-136.9 316.4-186.6 105-40.3 225.9-69.7 354.5-97.1 113.4-24.2 236.4-31.3 363.7-43.7 117.4-11.5 239.2-29.4 365.1-29.4s249 4.7 366.5 16.1c127.3 12.4 248.4 35.6 361.8 59.8 128.5 27.4 245.1 67.2 350.1 107.5 129.7 49.7 239.7 105.6 323.3 170.7 29.2 22.7 55 46.1 77.3 70.2 67.4 72.9 72.9 112 87.7 211.4 5.3 36.1 14.8 201.1 14.8 238.1" style="fill:#f4fafa;fill-opacity:1;fill-rule:nonzero;stroke:none" transform="matrix(.01902 0 0 -.01902 -513.946 292.49)"/><path d="M30729.2 9564.9v-203.7c0-96.6 58.8-191.4 174.9-281.7 75.7-58.8 179.3-132.8 309.6-182.8 109.5-41.9 238.7-72 350.6-95.9 87.5-18.7 180.6-27 279.3-35.8 26.9-2.4 54.1-4.8 81.4-7.5 29-2.8 58.3-6 87.8-9.3 89.2-9.8 181.3-19.9 274.8-19.9 134.5 0 253.5 5.2 363.9 16 130.9 12.7 254.9 37.1 358.8 59.3 137.8 29.4 257.4 72.3 346.3 106.3 135.3 51.9 238.8 106.5 316.5 166.9 27.9 21.8 52.9 44.4 74 67.3 61.6 66.5 66.4 99.1 80.7 195.9l.2 1.4c4.8 32.4 13.2 174.1 14.5 223.5-77.1 33.2-635 67.2-1556.6 67.2-922.3 0-1480.3-34.1-1556.7-67.2m1558.4-889.6c-96.4 0-190 10.3-280.6 20.3-29.3 3.2-58.3 6.4-87.1 9.2-27.2 2.6-54.3 5-81 7.4-100.3 9-195 17.4-285.7 36.8-113.9 24.3-245.6 55-358.4 98.2-136.9 52.5-244.6 129.4-323.2 190.5-129.7 100.8-195.4 209.7-195.4 323.5v214.4c0 33.3 37.2 48 159.4 62.6 84.2 10.1 205.5 18.9 360.6 26.1 287.5 13.4 674.5 20.8 1089.7 20.8 415.1 0 802.1-7.4 1089.7-20.8 155.1-7.2 276.4-16 360.6-26.1 122.2-14.6 159.4-29.3 159.4-62.6 0-36.7-9.5-204.2-15.1-242l-.2-1.4c-14.9-99.9-21.6-145.5-94.3-224.1-23.1-25-50.2-49.6-80.4-73.1-81.9-63.7-189.8-120.8-330.1-174.6-90.6-34.7-212.8-78.4-354.1-108.6-105.4-22.5-231.2-47.2-364.8-60.3-112.1-10.9-232.8-16.2-369-16.2" style="fill:#211d1d;fill-opacity:1;fill-rule:nonzero;stroke:none" transform="matrix(.01902 0 0 -.01902 -513.946 292.49)"/><path d="M33869.1 9575.6c0-110.8-62.2-213.9-179.8-305.3-83.6-65.1-193.6-121-323.3-170.7-105-40.3-221.6-80.1-350.1-107.5-113.4-24.2-234.5-47.4-361.8-59.8-117.5-11.5-240.6-16.1-366.5-16.1s-247.7 17.9-365.1 29.3c-127.3 12.4-250.3 19.5-363.7 43.7-128.6 27.5-249.5 56.9-354.5 97.1-129.7 49.8-232.8 121.6-316.4 186.6-117.6 91.5-185.2 191.9-185.2 302.7 0 110.7 68.9 209.4 186.5 300.9 83.7 65 186.9 134.5 316.6 184.2 105 40.3 223.6 77.8 352.1 105.2 113.4 24.2 236.4 36.5 363.7 48.9 117.4 11.5 240.1 18 366 18s248.4-9.2 365.8-20.7c127.3-12.4 247.3-37.4 360.7-61.6 128.6-27.5 246.1-60.9 351.1-101.2 129.7-49.7 238.3-106.3 322-171.3 117.6-91.5 181.9-191.7 181.9-302.4" style="fill:#bcdedd;fill-opacity:1;fill-rule:nonzero;stroke:none" transform="matrix(.01902 0 0 -.01902 -513.946 292.49)"/><path d="M32287.6 10206.3c-119.8 0-242.1-6-363.5-17.8-115-11.2-245.4-23.9-360.6-48.5-115.3-24.6-232.5-59.6-348.2-104-137.4-52.7-242.7-128.2-309.8-180.5-118.7-92.2-176.3-183.8-176.3-279.9 0-96.7 58.8-191.4 174.9-281.7 75.7-58.9 179.3-132.8 309.6-182.8 109.5-42 238.7-72 350.6-95.9 87.5-18.7 180.6-27 279.3-35.8 26.9-2.4 54.1-4.8 81.4-7.5 29-2.8 58.3-6 87.8-9.3 89.2-9.8 181.3-19.9 274.8-19.9 134.5 0 253.5 5.2 363.9 16 130.9 12.7 254.9 37.1 358.8 59.3 137.8 29.4 257.4 72.3 346.3 106.3 135.2 51.9 238.8 106.5 316.5 166.9 112.5 87.5 169.5 183.2 169.5 284.4 0 98.1-57.7 192.9-171.6 281.5-78.6 61-184.6 117.4-315.2 167.4-101.2 38.8-218 72.5-347.2 100-101.3 21.7-227.3 48.6-357.8 61.2-98.2 9.6-228.2 20.6-363.2 20.6m0-1316.6c-96.4 0-190 10.3-280.6 20.2-29.3 3.3-58.3 6.4-87.1 9.3-27.2 2.6-54.3 5-81 7.4-100.3 8.9-195 17.4-285.7 36.7-113.9 24.4-245.6 55-358.4 98.3-136.9 52.5-244.6 129.3-323.2 190.4-129.7 100.9-195.4 209.7-195.4 323.6 0 113.6 64.3 218.8 196.7 321.8 69.9 54.3 179.4 132.9 323.4 188.1 118.3 45.4 238.1 81.1 356.1 106.3 118.2 25.2 250.2 38.1 366.6 49.4 123.1 12 247.1 18.1 368.6 18.1 137.3 0 269-11.1 368.4-20.8 133.4-13 261.1-40.2 363.7-62.1 131.8-28.2 251.3-62.6 355-102.4 135.5-51.9 246.1-110.8 328.8-175.1 127.5-99.2 192.1-208 192.1-323.3 0-118.5-63.9-228.2-190-326.2-81.9-63.7-189.8-120.8-330.1-174.6-90.6-34.7-212.8-78.5-354.1-108.6-105.4-22.5-231.2-47.3-364.8-60.3-112.1-10.9-232.8-16.2-369-16.2" style="fill:#211d1d;fill-opacity:1;fill-rule:nonzero;stroke:none" transform="matrix(.01902 0 0 -.01902 -513.946 292.49)"/><path d="M31492 5866.4c-39.3-42.7-104.6-134.3-92.3-262.1.3-2.8.8-5.6 1.4-8.3l4.1-18.5c5.1-23.1 22.4-41.5 45.1-48.1l220.5-64.3c34.4-10.1 70.4 9.8 80.3 44.2 19 66.1 50.1 170 76.8 238.9 14.4 37-7.4 78.2-46.1 86.8l-227.9 50.9c-22.6 5-46.2-2.4-61.9-19.5M31313.5 8970.9s-37.5-40-15-72.5 687.5-125 687.5-125-10 62.5 10 72.5z" style="fill:#fff;fill-opacity:1;fill-rule:nonzero;stroke:none" transform="matrix(.01902 0 0 -.01902 -513.946 292.49)"/></g></svg>