<svg xmlns="http://www.w3.org/2000/svg" width="200mm" height="200mm" viewBox="0 0 200 200"><g style="display:inline"><path d="M11289.6 7398.2c-79.2-914.3-643.9-1385-690.8-1420.8-63.4-48.6-146.8-90.5-245.1-127.6-79.7-30-168.1-59.6-265.7-80.2-85.9-18.1-177.79-35.3-274.29-44.6-89.1-8.5-182.3-12-277.9-12-53.8 0-106.5 4.2-158.3 9.5-40.1 4-79.6 8.7-118.6 12.5-96.5 9.2-189.7 14.5-275.9 32.6-97.3 20.4-189.2 42.3-268.7 72.4-32 12.1-61.9 25.9-89.9 40.8-57.9 30.7-107.4 65.7-150.2 98.4-49.3 37.8-589.6 568.4-648.4 1297.4-82.4 1020 320.6 1975.1 314.8 2078.7-5.1 92.8 323.8 118.8 757.2 112.9 119.5-1.6 246.9-5.6 377.5-11.4 770.49-33.6 1649.99-126 1649.99-126s425.6-1225.6 364.3-1932.6" style="fill:#eacbc0;fill-opacity:1;fill-rule:nonzero;stroke:none" transform="matrix(.02399 0 0 -.02399 -127.126 329.384)"/><path d="M8878.51 9201.8s-620-680-643.21-1733.6c-12.58-571 302.98-1107.8 569.97-1065 406.58 65.2 59.91 785.2 33.24 1378.6-34.77 773.6 240 1386.6 240 1386.6z" style="fill:#fff;fill-opacity:1;fill-rule:nonzero;stroke:none" transform="matrix(.02399 0 0 -.02399 -127.126 329.384)"/><path d="M8167.1 9356.8c1.54-27.8-15.22-85.5-53.27-213.4-105.24-353.7-324.21-1089.6-261.62-1864.6 30.32-375.5 192.71-694.3 323.6-895.6 139.89-215.1 285.74-360.8 314.54-382.9 57.05-43.6 135.12-98.5 233.32-135.5 82.8-31.3 180.33-53.6 264.81-71.3 66.31-13.9 136.94-20.1 211.73-26.6 20.22-1.7 40.62-3.5 61.18-5.5 21.3-2 42.71-4.4 64.3-6.7 68.21-7.5 138.73-15.1 210.16-15.1 101.86 0 191.94 3.8 275.39 11.8 101.2 9.8 198.16 28.8 271.26 44.2 106 22.4 200.2 55.8 261.9 79 101.6 38.4 179.6 78.9 238.3 123.9 6.1 4.6 599.5 467.8 680.5 1402 56.4 650.1-308.3 1759.8-357.5 1905.7-105.4 10.8-687.2 69.3-1284.36 105.9-1146.82 70.2-1399.06 3.5-1447.35-42.4-7.22-6.9-6.98-11.2-6.89-12.9m1368.75-3670.2c-74.31 0-146.29 7.8-215.89 15.4-21.4 2.3-42.62 4.6-63.65 6.7-20.35 1.9-40.62 3.7-60.7 5.4-76.42 6.7-148.6 13-218.01 27.6-86.45 18.1-186.47 41-272.63 73.5-104.67 39.4-186.9 97.2-246.84 143-21.43 16.4-172.68 159.2-326.75 396.1-134.23 206.4-300.79 533.6-332 920.2-63.38 784.9 157.5 1527.2 263.65 1884 28.03 94.2 52.25 175.6 51.15 195.4-.77 13.9 2.65 34.5 23.27 54.2 35.72 34 130.93 80 543.51 86.7 239.57 3.9 557.07-6.2 943.77-29.9 657.87-40.2 1296.97-107 1303.37-107.7l16.7-1.8 5.5-15.9c4.3-12.3 426.8-1239.1 365.7-1943.6-83-957.3-694.9-1434.8-701.1-1439.5-62.8-48.1-145.2-91.1-251.8-131.4-63.3-23.8-160.1-58.1-269.7-81.3-74.4-15.7-173.23-35-277.09-45.1-85.18-8.1-176.9-12-280.46-12" style="fill:#211d1d;fill-opacity:1;fill-rule:nonzero;stroke:none" transform="matrix(.02399 0 0 -.02399 -127.126 329.384)"/><path d="M10925.3 9356.2c0-89-54.7-171.8-158.1-245.3-73.6-52.3-170.3-97.3-284.3-137.2-92.4-32.4-194.9-64.4-308-86.4-99.7-19.5-206.21-38.1-318.16-48.1-103.29-9.2-211.52-12.9-322.26-12.9-110.73 0-217.83 14.4-321.12 23.6-111.97 9.9-220.11 15.7-319.85 35.1-113.06 22.1-219.38 45.7-311.77 78-114.02 40-204.65 97.7-278.22 150-103.41 73.5-162.88 154.2-162.88 243.2s60.61 168.3 164.03 241.8c73.58 52.3 164.39 108.2 278.41 148.1 92.38 32.4 196.66 62.5 309.71 84.5 99.72 19.5 207.82 29.4 319.76 39.4 103.3 9.2 211.19 14.4 321.93 14.4 110.73 0 218.39-7.4 321.67-16.6 111.97-10 217.45-30.1 317.25-49.6 113-22 216.4-48.9 308.8-81.3 114-39.9 209.5-85.4 283.1-137.7 103.4-73.4 160-154 160-243" style="fill:#d8a591;fill-opacity:1;fill-rule:nonzero;stroke:none" transform="matrix(.02399 0 0 -.02399 -127.126 329.384)"/><path d="M9534.48 9857.9c-105.32 0-212.84-4.8-319.58-14.3-101.19-9-215.88-19.2-317.03-39-101.37-19.7-204.33-47.8-306.02-83.5-120.6-42.2-212.89-102.8-271.83-144.7-102.87-73.1-152.88-145.1-152.88-220.2 0-75.5 51.05-150 151.73-221.6 66.4-47.2 157.28-106.5 271.64-146.5 96.16-33.7 209.7-57.9 308.07-77.1 76.94-15 158.86-21.6 245.59-28.7 23.64-1.9 47.5-3.9 71.54-6 25.47-2.3 51.17-4.9 77.09-7.5 78.4-7.9 159.48-16 241.68-16 118.29 0 222.93 4.2 319.91 12.8 115.17 10.3 224.11 29.9 315.51 47.7 121 23.6 226.1 58 304.2 85.4 118.8 41.6 209.6 85.4 277.7 133.8 97.6 69.3 147 144.5 147 223.7 0 76.7-50.1 151.3-148.8 221.4-68.9 49-161.9 94.1-276.6 134.3-89 31.2-191.6 58.2-305.1 80.3-89 17.4-199.8 39-314.5 49.2-86.32 7.7-200.64 16.5-319.32 16.5m0-1058.1c-84.86 0-167.28 8.3-246.98 16.3-25.73 2.6-51.22 5.1-76.49 7.4-23.91 2.1-47.64 4-71.15 6-88.24 7.2-171.59 13.9-251.43 29.5-100.23 19.6-216.1 44.2-315.45 79-120.62 42.3-215.57 104.2-284.82 153.4-115.47 82.1-174.02 171.2-174.02 264.8 0 93.5 57.3 179.7 175.18 263.4 61.55 43.8 158.06 107.1 285 151.6 104.09 36.4 209.53 65.2 313.4 85.5 103.85 20.2 220 30.6 322.49 39.7 108.29 9.6 217.39 14.5 324.27 14.5 120.76 0 236.6-8.9 324.02-16.7 117.44-10.5 229.7-32.4 320-50 115.9-22.6 221.1-50.2 312.4-82.3 121.1-42.4 215.9-88.5 289.8-141.1 113.5-80.7 171.1-169.7 171.1-264.6 0-97.3-56.9-187.1-169.3-266.9-72.2-51.4-167.4-97.4-290.9-140.6-79.7-28-187.2-63.2-311.6-87.4-92.7-18.1-203.33-38-320.91-48.5-98.55-8.7-204.73-13-324.61-13" style="fill:#211d1d;fill-opacity:1;fill-rule:nonzero;stroke:none" transform="matrix(.02399 0 0 -.02399 -127.126 329.384)"/><path d="M11081.4 8746.9c298.7-146.4 800.6 3.2 1072.7-346.7 571.8-735.3-229.4-2539-1226.7-1900.6-47.7 30.5-74.4 87.4-61.6 142.6 20.9 90.4 98.4 151.1 228.3 143.5 49.8-2.9 220.1-61.8 294-53.6 118.1 13.1 233.9 70.4 320.8 150.3 252.3 232.1 322.3 784.3 226.4 1103.6-157.5 524.2-833.2 147.2-1166.1 505.2-2 183.9 102 269.1 312.2 255.7" style="fill:#eacbc0;fill-opacity:1;fill-rule:nonzero;stroke:none" transform="matrix(.02399 0 0 -.02399 -127.126 329.384)"/><path d="M11072.8 6759.8c-97.3 0-162.8-44.3-181.2-123.6-9.9-42.8 10.2-88.8 50.1-114.3 457.3-292.7 805.2-29.9 971.9 152.8 386.7 423.8 566.8 1262.7 219.6 1709.2-162.6 209-412 232.2-653.3 254.6-148.7 13.9-289.3 26.9-405.3 82.2-101.4 5.8-175.7-13.1-220.8-55.9-37.7-35.7-57.2-90.5-58.1-163 141.7-145.4 349.7-157.8 551-169.8 256.5-15.3 521.7-31.1 614-338.3 101.7-338.7 23.3-894.2-233.9-1130.8-94.2-86.7-216.6-144-335.8-157.2-51-5.6-134.4 15.4-208 33.9-38.2 9.6-74.2 18.7-90.4 19.6q-10.05.6-19.8.6m275.8-420.2c-144.4 0-291.6 45.5-435.4 137.6-58.8 37.6-88.2 106.3-73.2 171 25.6 110.5 121.2 171.9 255.7 163.9 21.1-1.2 56-10 100.2-21.1 62.4-15.7 147.8-37.2 189.3-32.6 108.1 12 219.6 64.3 305.7 143.5 239.4 220.1 314.3 759.4 219 1076.5-81.6 271.8-306.2 285.2-566.3 300.7-215.1 12.8-437.5 26-593.8 194l-6.9 7.5-.2 10.3c-1 93 24.1 164.4 74.6 212.4 57 54.1 146.4 77.7 265.8 70l5.2-.3 4.7-2.3c108.2-53 246-65.8 391.8-79.4 240.7-22.4 513.6-47.7 690.2-274.9 168.4-216.5 231.8-533.6 178.5-892.9-50-337.8-196.1-660.3-400.7-884.6-181.1-198.4-389.5-299.3-604.2-299.3" style="fill:#211d1d;fill-opacity:1;fill-rule:nonzero;stroke:none" transform="matrix(.02399 0 0 -.02399 -127.126 329.384)"/><path d="M11671.2 8474.9c-32.5-1.6-186.9-74.7 26.7-127.6 66.2-16.5 180-93.9 267.6-197.2 97.5-115 161.6-273.8 174.8-375.6 0 0 59 244.6-89.2 492.6-71.1 119-271.7 213.2-379.9 207.8" style="fill:#fff;fill-opacity:1;fill-rule:nonzero;stroke:none" transform="matrix(.02399 0 0 -.02399 -127.126 329.384)"/></g></svg>