<svg xmlns="http://www.w3.org/2000/svg" width="200mm" height="200mm" viewBox="0 0 200 200"><g style="display:inline"><path d="M5553.41 37162.1c0-103.3-58.94-199.4-170.38-284.7-79.28-60.7-183.5-112.9-306.36-159.2-99.56-37.6-210.02-74.7-331.84-100.3-107.46-22.5-222.23-44.2-342.86-55.7-111.3-10.7-227.92-15.1-347.25-15.1-119.31 0-234.73 16.7-346.02 27.4-120.66 11.6-237.19 18.2-344.66 40.8-121.82 25.6-236.39 53-335.94 90.5-122.87 46.4-220.53 113.4-299.81 174.1-111.43 85.2-175.51 178.9-175.51 282.2s65.31 195.3 176.76 280.6c79.28 60.7 177.14 125.5 300 171.9 99.55 37.5 211.91 72.5 333.72 98 107.46 22.6 223.94 34.1 344.57 45.7 111.3 10.7 227.56 16.7 346.89 16.7 119.32 0 235.32-8.6 346.62-19.2 120.65-11.6 234.85-32.8 341.84-57.5 232.48-53.9 88.67-17.8 332.73-94.4 125.28-39.3 225.82-99.1 305.11-159.8 111.43-85.3 172.39-178.7 172.39-282" style="fill:#e7f7f4;fill-opacity:1;fill-rule:nonzero;stroke:none" transform="matrix(.02154 0 0 -.02154 11.747 978.095)"/><path d="M4054.72 37748.5c-113.5 0-229.36-5.6-344.36-16.6-109-10.4-232.53-22.3-341.65-45.2-109.21-22.9-220.17-55.6-329.81-96.9-130.09-49.1-229.67-119.5-293.25-168.1-111.94-85.7-166.35-170.6-166.35-259.6 0-89.5 55.54-177.3 165.1-261.2 71.63-54.8 169.67-123.7 293.06-170.3 103.62-39.1 225.99-67.1 332.03-89.4 82.89-17.4 171.14-25.1 264.57-33.3 25.5-2.3 51.24-4.5 77.17-7 27.51-2.6 55.26-5.6 83.27-8.7 84.42-9.1 171.72-18.5 260.22-18.5 127.36 0 240.12 4.8 344.72 14.8 124.01 11.9 241.43 34.7 339.94 55.4 101.85 21.4 202.98 51.9 327.92 99.1 128.09 48.3 226.1 99.2 299.62 155.4 106.15 81.3 159.97 170 159.97 263.7 0 90.9-54.5 178.7-161.98 261-91.59 70-191.49 122.4-296.95 155.5-82.53 25.9-121.28 39.1-144.42 47-35.69 12.2-35.69 12.2-112.73 29.9-19.25 4.4-43.22 9.9-73.61 16.9-121.5 28.2-232.19 46.8-338.39 57-93.03 8.9-216.22 19.1-344.09 19.1m0-1227.9c-91.37 0-180.11 9.6-265.92 18.9-27.79 3-55.34 6-82.63 8.6-25.79 2.5-51.38 4.7-76.74 7-95.06 8.3-184.84 16.2-270.84 34.2-108.01 22.7-232.86 51.4-339.85 91.7-129.86 49-232.05 120.8-306.57 177.8-123.36 94.4-185.9 196.5-185.9 303.3 0 106.6 61.22 205.3 187.15 301.7 66.25 50.7 170.12 124 306.76 175.6 112.17 42.3 225.77 75.7 337.63 99.2 112.01 23.5 237.11 35.5 347.49 46.1 116.67 11.2 234.24 16.8 349.42 16.8 130.11 0 254.94-10.3 349.15-19.3 108.55-10.4 221.49-29.4 345.29-58.1 30.36-7 54.29-12.5 73.51-17 78.21-17.9 79.7-18.3 117.97-31.3 22.93-7.8 61.29-20.9 143.21-46.6 111.37-35 216.78-90.2 313.28-164 121.29-92.9 182.79-194.8 182.79-303.1 0-111.1-60.82-214-180.77-305.8-77.69-59.4-180.12-112.8-313.12-162.9-127.59-48.2-231.14-79.4-335.75-101.4-99.94-21-219.17-44.1-345.78-56.2-106.3-10.2-220.71-15.2-349.78-15.2" style="fill:#211d1d;fill-opacity:1;fill-rule:nonzero;stroke:none" transform="matrix(.02154 0 0 -.02154 11.747 978.095)"/><path d="M5901.6 42934.6c-107.72 82.4-247.61 154.1-414.51 217-135.26 51.1-286.54 93.5-452.06 128.2-146 30.7-300.5 62.5-464.41 78.2-151.2 14.5-308.81 26.1-470.91 26.1-162.12 0-320.07-8.2-471.29-22.7-163.88-15.7-322.13-31.3-468.13-62-165.49-34.8-340.55-108.5-475.81-159.6-166.91-62.9-277.44-124.7-385.16-207.1-151.41-115.9-240.13-241-240.13-381.3 0-41 7.65-80.9 21.97-119.8l8.42-20.8c18.94-43.4 46.44-85.5 81.87-126.3l1205.84-1860.3 310.37-484.3c112.03-144.8 179.83-336.7 181.03-533.1l9.98-1642.7c.12-19.6-.84-39.1-3.21-58.5-28.14-230-178.11-453.6-181.17-490.5-3.23-38.7 129.1-125.8 374.4-129.1 177.5-2.3 284.03 71.4 329.36 112.3 14.32 13 14.86 34.9 2.14 49.4-68.25 78-111.11 231.7-135.08 347-16.59 79.8-24.82 161.1-25.11 242.7l-5.69 1554.7c-1.24 204.1 59.66 406.5 192.64 573l434.87 646.5 379.53 551.2 727.14 1056c109.63 101.8 167.33 213.7 167.33 332.6 0 140.3-82.82 267.3-234.22 383.2" style="fill:#f6fcfb;fill-opacity:1;fill-rule:nonzero;stroke:none" transform="matrix(.02154 0 0 -.02154 11.747 978.095)"/><path d="M3721.02 37214c9.3-21.8 115.66-98.4 348.01-101.5 166.74-2.1 266.58 65.2 311.24 105.5 3.73 3.4 2.92 8.9-.03 12.3-72.04 82.2-116.48 240.6-141.09 359-16.73 80.4-25.36 163.9-25.67 248l-5.68 1554.7c-1.34 221.1 67.03 424.7 197.77 588.8l434.25 645.6 1108.49 1609.8 2.13 2c105.42 97.9 158.86 203.3 158.86 313.2 0 126.6-75.3 248.5-223.81 362.1-101.67 77.8-238.86 149.6-407.76 213.3-130.62 49.3-281.41 92.1-448.13 127.1-130.54 27.4-292.98 61.5-461.5 77.7-126.64 12.1-294.33 26-468.39 26-154.44 0-312.16-7.6-468.76-22.6-148.31-14.2-316.39-30.3-465.2-61.6-134.93-28.3-275.04-82.5-398.64-130.3-25.43-9.8-49.93-19.3-73.26-28-157.78-59.6-267.41-118.5-378.42-203.5-154.57-118.3-229.72-236.1-229.72-360.2 0-36.8 6.84-74 20.34-110.6l8.1-20.1c17.29-39.6 43.4-79.8 77.32-118.8l2.24-3 1205.83-1860.3 309.81-483.4c116.93-151.6 184.66-351.4 185.86-548.2l9.97-1642.8c.13-21.5-1.01-42.3-3.41-61.8-20.38-166.6-101.21-326.6-149.49-422.2-13.35-26.4-28.35-56.1-31.26-66.2m355.97-154.5h-8.65c-195.67 2.6-332.32 57.8-380.95 111.4-14.22 15.6-20.8 31.3-19.53 46.4 1.29 15.5 11.66 36.5 37.09 86.8 46.73 92.5 124.94 247.4 144.19 404.7 2.12 17.3 3.13 35.9 3.01 55.1l-9.98 1642.8c-1.14 185.8-65.09 374.3-175.49 517l-1.35 1.9-310.36 484.3-1204.76 1858.6c-36.86 42.7-65.43 87-84.94 131.7l-8.7 21.5c-15.94 43.3-23.9 86.6-23.9 129.7 0 141.7 81.96 273.3 250.53 402.3 115.42 88.4 228.97 149.5 391.92 211 23.2 8.7 47.57 18.1 72.87 27.9 125.49 48.5 267.71 103.5 406.87 132.7 151.7 31.9 321.35 48.2 471.03 62.5 158.28 15.2 317.7 22.9 473.82 22.9 176.31 0 345.63-14.1 473.44-26.3 171.48-16.5 335.53-50.9 467.34-78.6 169.39-35.6 322.79-79.1 455.95-129.4 173.76-65.5 315.5-139.8 421.28-220.8 162.31-124.2 244.6-260.2 244.6-404.2 0-124.5-58.41-242.2-173.63-350.1l-1105.03-1604.7-435.99-648.1c-123.51-154.6-188.11-347-186.85-556.3l5.69-1554.7c.29-80.6 8.55-160.5 24.56-237.4 23.31-112.2 64.63-261.3 129.08-334.9 22.63-25.9 20.73-63.9-4.33-86.5-49.64-44.9-159.16-119.2-338.83-119.2" style="fill:#211d1d;fill-opacity:1;fill-rule:nonzero;stroke:none" transform="matrix(.02154 0 0 -.02154 11.747 978.095)"/><path d="M4005.49 40006.7c-79.27 4-156.37 20.9-228.59 49.3-9.29 3.7-18.58 7.6-27.69 11.7 52.4-23.3 107.8-40.3 164.9-50.5 30.01-5.4 60.51-8.9 91.38-10.5m-424.07 1750.9c-4.34.4-8.67.8-13.01 1.1-1.72.2-3.44.4-5.16.5 6.06-.5 12.1-1.1 18.17-1.6m-33.34 3c-3.33.2-6.65.5-9.98.8l-3.03.3c4.33-.4 8.66-.8 13.01-1.1m-97.75 8.6c-5.11.5-10.22 1-15.32 1.4-1.8.2-3.6.4-5.4.5-3.63.4-7.26.8-10.87 1.1 10.49-1 21.03-2 31.59-3m-68.43 6.7c-13.84 1.4-27.55 3-41.19 4.5l-4.7.6c15.21-1.8 30.5-3.5 45.89-5.1m-64.59 7.4c-3.67.4-7.32.9-10.94 1.3 3.64-.4 7.29-.9 10.94-1.3m-33.25 4.3-4.65.6c-3.18.5-6.37.9-9.52 1.4 4.71-.7 9.44-1.3 14.17-2m-122.76 20.9c-20.21 4.2-40.24 8.5-60.17 12.9 19.88-4.3 39.93-8.6 60.17-12.9" style="fill:#def4f0;fill-opacity:1;fill-rule:nonzero;stroke:none" transform="matrix(.02154 0 0 -.02154 11.747 978.095)"/><path d="M3914.11 40017.2c-57.1 10.2-112.5 27.2-164.9 50.5l-684.59 1761.8c11.59-2.6 23.3-5.2 35.09-7.8 20.41-4.5 40.9-8.9 61.59-13.2q38.865-8.1 78.9-14.4c7.91-1.3 15.81-2.5 23.71-3.6 5.1-.8 10.29-1.6 15.5-2.3 6.69-.9 13.41-1.8 20.1-2.7 7.1-.9 14.3-1.9 21.6-2.7 6.5-.8 13.1-1.6 19.6-2.4 15.91-1.8 31.9-3.6 48.09-5.2 13.51-1.4 27.11-2.7 40.81-4.1 1.8-.1 3.6-.3 5.4-.5 17.69-1.6 35.5-3.2 53.4-4.8 16.4-1.5 33.01-2.9 49.69-4.4 10.1-.9 20.22-1.7 30.31-2.7 11.6-1 23.2-2 34.79-3.1z" style="fill:#fff;fill-opacity:1;fill-rule:nonzero;stroke:none" transform="matrix(.02154 0 0 -.02154 11.747 978.095)"/><path d="M4042 40005.8h7.81c116.7 1.3 238.4 35.4 347.6 93.1 59.02 31.2 114.42 69.3 163.43 112.7-49.01-43.4-104.41-81.5-163.43-112.7-109.2-57.7-230.9-91.8-347.6-93.1z" style="fill:#f0faf9;fill-opacity:1;fill-rule:nonzero;stroke:none" transform="matrix(.02154 0 0 -.02154 11.747 978.095)"/><path d="M4042.14 40005.8c-12.26 0-24.48.3-36.65.9-30.87 1.6-61.37 5.1-91.38 10.5-57.1 10.2-112.5 27.2-164.9 50.5 52.4-23.3 107.8-40.3 164.9-50.5l-310.91 1738.4c8.81-.8 17.61-1.6 26.41-2.5 151.2-14.5 348.8-37.2 510.91-37.2 162.09 0 279.79 5.9 430.98 20.4 163.91 15.7 319.81 45.1 465.81 75.8 165.5 34.8 363.2 63.8 498.39 114.8 161.07 60.8 254.25 148.8 357.35 229l-1053.23-1529.5-278.98-414.8c-49.01-43.4-104.41-81.5-163.43-112.7-109.2-57.7-230.9-91.8-347.6-93.1z" style="fill:#e1f5f2;fill-opacity:1;fill-rule:nonzero;stroke:none" transform="matrix(.02154 0 0 -.02154 11.747 978.095)"/><path d="m4560.84 40211.6 278.98 414.8 1053.23 1529.5c3.74 3 7.49 5.9 11.26 8.7 23.2 17.7 44.4 35.8 64.21 54.1l-1298.21-1885.3c-30.74-43.9-67.79-84.8-109.47-121.8" style="fill:#a1b3af;fill-opacity:1;fill-rule:nonzero;stroke:none" transform="matrix(.02154 0 0 -.02154 11.747 978.095)"/><path d="M3749.21 40067.7c-69.59 30.8-134.15 72.4-191.1 123.5l-158.57 247.4L2257.83 42200c12.7-10.8 25.96-21.4 39.78-32 107.7-82.5 240.4-173.5 407.3-236.5 108.6-40.9 230.3-73 359.71-102z" style="fill:#e1f5f2;fill-opacity:1;fill-rule:nonzero;stroke:none" transform="matrix(.02154 0 0 -.02154 11.747 978.095)"/><path d="M3558.11 40191.2c-46.82 42-88.5 90.5-123.6 144.6l-1252.29 1932.1c-.19.3-.27.6-.27.9 0 .8.74 1.5 1.54 1.5.38 0 .78-.2 1.13-.6 21.87-23.7 46.29-46.9 73.21-69.7l1141.71-1761.4z" style="fill:#a1b3af;fill-opacity:1;fill-rule:nonzero;stroke:none" transform="matrix(.02154 0 0 -.02154 11.747 978.095)"/><path d="M3914.11 40017.2c-57.1 10.2-112.5 27.2-164.9 50.5l-684.59 1761.8c11.59-2.7 23.3-5.2 35.09-7.8 20.41-4.5 40.9-8.9 61.59-13.2q38.865-8.1 78.9-14.4c7.91-1.3 15.71-2.5 23.71-3.6 5.1-.8 10.29-1.6 15.5-2.3 6.69-.9 13.41-1.8 20.1-2.7 7.1-.9 14.3-1.9 21.6-2.7 6.5-.8 13-1.6 19.6-2.4 15.91-1.8 31.9-3.6 48.09-5.2 13.51-1.4 27.11-2.7 40.81-4.1 1.8-.1 3.6-.3 5.4-.5 17.69-1.6 35.5-3.2 53.4-4.8 16.4-1.5 33.01-2.9 49.69-4.4 10.1-.9 20.22-1.7 30.31-2.7 11.6-1 23.2-2 34.79-3.1z" style="fill:#f7fcfb;fill-opacity:1;fill-rule:nonzero;stroke:none" transform="matrix(.02154 0 0 -.02154 11.747 978.095)"/><path d="m2204.26 42282.7.37-.6zm98.32-151.7 1154.18-1780.8c73.92-114 178.75-203.3 303.16-258.2 50.61-22.5 104.03-38.9 158.85-48.7 43.04-7.7 87.09-11.5 130.75-11 110.35 1.3 226.37 32.4 335.5 90.1 109.23 57.7 200.37 135.9 263.57 226.2l1192.85 1732.3c-80.97-64.7-167.35-130.1-296.37-178.8-102.12-38.5-237.57-64.4-368.56-89.5-46.73-9-90.87-17.4-133.75-26.4-135.38-28.5-296.94-59.8-468.72-76.3-155.97-14.9-273.46-20.5-433.53-20.5-137.89 0-297.85 16-438.97 30-25.76 2.6-50.69 5-74.46 7.3-8.87.9-17.56 1.7-26.26 2.5-11.64 1.1-23.16 2.1-34.68 3.1-7.01.7-13.68 1.3-20.35 1.8l-32.55 2.9c-9.13.8-18.22 1.6-27.24 2.4l-53.37 4.8c-1.9.2-3.21.4-4.52.5l-1.2.1-18.41 1.8c-7.51.7-14.98 1.5-22.43 2.3-16.19 1.5-32.31 3.4-48.35 5.2l-19.18 2.3c-5.64.7-10.91 1.3-16.12 2l-26.54 3.5c-5.4.8-10.79 1.6-16.08 2.4-7.73 1.1-15.76 2.3-23.89 3.7-26.82 4.2-53.8 9.1-80.01 14.6-20.79 4.3-41.4 8.7-61.9 13.2l-8.91 2c-8.88 1.9-17.72 3.9-26.49 5.9-150.75 33.8-266.17 66.5-363.03 103-163.52 61.7-294.49 150.1-392.99 224.3m1739.49-2151.7c-44.45 0-89.03 4-132.67 11.8-58.98 10.6-116.52 28.2-170.96 52.4-133.82 59.1-246.63 155.2-326.17 277.9l-1252.31 1932.1c-7.98 12-5.42 28.1 6.15 37.2 11.58 9.2 27.9 7.9 37.95-2.9 30.98-33.6 67.85-66.8 109.64-98.7 97.76-74.9 231.59-169 400.58-232.8 94.47-35.5 207.64-67.6 356.13-100.9 8.76-2 17.35-3.9 26.01-5.8l8.99-2c20.31-4.5 40.7-8.8 61.29-13.1 25.38-5.3 51.49-10.1 77.63-14.2 7.85-1.3 15.42-2.4 23.19-3.5 5.41-.9 10.41-1.6 15.42-2.3l26.33-3.5c4.86-.6 9.77-1.3 14.73-1.8l19.88-2.4c15.59-1.8 31.46-3.6 47.53-5.2 7.5-.8 14.9-1.5 22.33-2.2l18.01-1.8 6.16-.6 52.86-4.8c9.01-.8 18.03-1.6 27.09-2.4l32.47-2.8c6.9-.6 13.8-1.2 20.7-1.9 11.33-1 23.01-2 34.69-3.1 8.79-.8 17.69-1.6 26.6-2.5 23.66-2.3 48.65-4.8 74.47-7.3 139.9-14 298.46-29.8 433.72-29.8 158.22 0 274.34 5.5 428.47 20.3 169.17 16.2 328.92 47.2 462.88 75.4 43.34 9.1 89.77 18 134.68 26.6 128.79 24.6 261.97 50.1 359.81 87 131.09 49.5 217.25 118.7 300.57 185.6 19.9 15.9 40.47 32.5 61.27 48.4 21.2 16.2 41.58 33.3 62.33 52.5l174.85 161.6-1433.22-2081.4c-68.12-97.4-165.71-181.3-282.35-242.9-116.56-61.6-240.94-94.9-359.69-96.2z" style="fill:#211d1d;fill-opacity:1;fill-rule:nonzero;stroke:none" transform="matrix(.02154 0 0 -.02154 11.747 978.095)"/><path d="M3403.99 37454.2c26.07 4.8 39.67-30.1 17.16-44.1-111.65-69.4-250.77-182.2-203.55-291.6 20.89-48.5 176.9-131.4 379.72-192.6 175.17-52.8 387.74-57.4 545.02-55.1 28.59.4 33.9-40.4 6.18-47.4-123.35-31.2-299.75-75.9-484.33-70.2-487.65 15-689.58 150.3-784.18 214.9-117.67 80.3-86.21 265.4 41.05 350.2 83.33 55.5 325.59 106.9 482.93 135.9m1558.65-46.9c-8.58 7.2-1.62 21 9.23 18.4 114.38-28 405.42-122.1 281.64-334.8-49.22-84.5-252.4-140.1-348.12-162-11.13-2.6-17.84 11.9-8.7 18.7 59.84 44.9 166.12 135.5 194.32 230.8 23.22 78.5-37.49 153-128.37 228.9" style="fill:#fff;fill-opacity:1;fill-rule:nonzero;stroke:none" transform="matrix(.02154 0 0 -.02154 11.747 978.095)"/></g></svg>