<svg xmlns="http://www.w3.org/2000/svg" width="200mm" height="200mm" viewBox="0 0 200 200"><g style="display:inline"><path d="M33556.5 26546.6c0-95.8-54.7-185-158.1-264.1-73.5-56.2-170.2-104.6-284.1-147.6-92.3-34.9-194.8-69.3-307.8-93-99.6-20.9-206.1-41-318-51.7-103.2-9.9-211.4-13.9-322-13.9-110.7 0-217.7 15.5-321 25.3-111.9 10.8-219.9 16.9-319.6 37.9-113 23.7-219.3 49.1-311.6 84-113.9 42.9-204.5 105.1-278.1 161.3-103.3 79.2-162.7 166-162.7 261.8s60.5 181.2 163.9 260.3c73.5 56.3 164.3 116.4 278.2 159.4 92.4 34.8 196.6 67.2 309.6 90.9 99.6 21 207.7 31.6 319.5 42.4 103.3 9.9 211.1 15.5 321.8 15.5 110.6 0 218.2-8 321.4-17.9 112-10.7 217.9-30.3 317.1-53.3 215.6-50 82.2-16.5 308.6-87.5 116.2-36.5 209.4-91.9 283-148.2 103.3-79.1 159.9-165.8 159.9-261.6" style="fill:#edf9f7;fill-opacity:1;fill-rule:nonzero;stroke:none" transform="matrix(.02202 0 0 -.02202 -607.656 762.612)"/><path d="M32166.5 27088.6c-105.2 0-212.6-5.2-319.2-15.4-101.1-9.7-215.6-20.7-316.7-41.9-101.2-21.3-204-51.5-305.6-89.8-120.4-45.5-212.6-110.6-271.5-155.7-103.3-79-153.5-157.3-153.5-239.2 0-82.3 51.3-163.3 152.4-240.7 66.3-50.8 157.1-114.5 271.3-157.6 95.9-36.3 209.3-62.3 307.6-82.9 76.8-16.1 158.6-23.3 245.1-30.9 23.7-2.1 47.6-4.2 71.7-6.5 25.5-2.4 51.3-5.2 77.3-8 78.2-8.5 159.1-17.2 241.1-17.2 118 0 222.6 4.5 319.5 13.8 114.9 11 223.8 32.1 315.1 51.3 94.4 19.8 188.1 48.1 303.8 91.8 118.6 44.7 209.4 91.8 277.4 143.9 98 75 147.6 156.7 147.6 243 0 84.9-48.9 163.5-149.4 240.5-84.8 64.9-177.3 113.3-274.8 144-76.6 24-112.6 36.3-134.1 43.6-33 11.2-33 11.2-104.3 27.6-17.8 4.1-40.1 9.2-68.3 15.7-112.6 26.1-215.2 43.4-313.6 52.8-86.2 8.3-200.4 17.8-318.9 17.8m0-1138.9c-84.9 0-167.2 9-246.8 17.6-25.8 2.8-51.4 5.5-76.7 8-23.9 2.2-47.7 4.3-71.2 6.4-88.2 7.7-171.5 15-251.4 31.8-100.2 21.1-216.1 47.7-315.5 85.1-120.6 45.6-215.6 112.2-284.8 165.2-114.9 87.9-173.1 183.1-173.1 282.8 0 99.5 57 191.6 174.3 281.3 61.5 47.1 158 115.3 285 163.2 104.1 39.3 209.6 70.3 313.4 92.1 104 21.8 220.1 32.9 322.5 42.8 108.3 10.3 217.4 15.6 324.3 15.6 120.8 0 236.6-9.6 324-18 100.7-9.6 205.5-27.3 320.5-53.9 28.1-6.5 50.3-11.6 68.2-15.7 72.6-16.7 74-17 109.6-29.1 21.2-7.3 56.8-19.4 132.7-43.2 103.5-32.5 201.5-83.8 291.2-152.5 113-86.5 170.3-181.6 170.3-282.6 0-103.7-56.7-199.6-168.4-285.1-72.3-55.3-167.4-104.8-291-151.4-118.3-44.7-214.5-73.7-311.6-94.1-92.8-19.5-203.4-40.9-320.9-52.2-98.7-9.5-204.8-14.1-324.6-14.1" style="fill:#211d1d;fill-opacity:1;fill-rule:nonzero;stroke:none" transform="matrix(.02202 0 0 -.02202 -607.656 762.612)"/><path d="M32703.8 26945.6c-18.5 32.2-21.7 75.1-61.3 107.7-28.2 23.1-64.9 43.3-108.6 61-35.4 14.3-75.1 26.2-118.4 36-38.3 8.6-78.7 17.5-121.7 22-39.6 4-80.9 7.3-123.3 7.3-42.5 0-83.9-2.3-123.5-6.4-42.9-4.4-84.4-8.8-122.6-17.4-43.4-9.8-83.4-23.1-118.8-37.4-43.7-17.7-78.5-42.5-106.8-65.7-39.6-32.5-36.4-78.2-52.8-112.1-22.3-45.9-14.8-269.9 0-312.9 12.8-37.5 17.7-62.6 52.4-102.8 32.7-37.8 63-48.7 106.7-66.4 35.4-14.3 76.2-24.8 119.6-34.6 38.2-8.6 79.7-11.1 122.6-15.5 39.6-4.1 80.7-10.5 123.2-10.5 42.4 0 83.9 1.7 123.5 5.7 43 4.5 83.8 12.7 122.1 21.3 43.3 9.8 82.6 24 118.1 38.3 43.7 17.7 80.8 37.6 109 60.8 39.7 32.6 50.6 71.2 60.6 108.7 24.9 93.2 22.8 273.5 0 312.9" style="fill:#d3f0eb;fill-opacity:1;fill-rule:nonzero;stroke:none" transform="matrix(.02202 0 0 -.02202 -607.656 762.612)"/><path d="M32170.5 27153.1c-39.8 0-80.5-2.1-120.8-6.3-38.3-3.9-81.7-8.4-119.5-16.9-38-8.5-76.5-20.7-114.6-36.1-44.1-17.9-78.2-43.7-99.9-61.6-20-16.3-25.5-37.4-32-61.9-3.6-13.7-7.3-27.8-13.9-41.3-17.2-35.5-13.2-250.4 1.3-292.7 1.7-5.2 3.4-10.1 4.9-14.9 9.6-29.1 15.9-48.4 42.5-79.1 26.8-31.1 50.6-40.7 90-56.6l6.5-2.6c35.8-14.5 78.4-25 115.5-33.3 28.4-6.4 59.2-9.3 91.9-12.4q13.65-1.2 27.6-2.7c9.9-1 19.9-2.1 29.9-3.3 29.6-3.4 60.1-7 90.6-7 44.7 0 84.3 1.9 120.8 5.6 43.2 4.5 84.4 13 118.9 20.8 45.2 10.2 84.7 25.1 114 37 43.9 17.8 77.4 36.3 102.2 56.7 33.9 27.8 43 62 51.8 95 24.4 91.6 19.7 263.3 2.7 292.8-7.2 12.4-12.1 25.4-16.9 38-8.8 23.1-17.1 45-38.3 62.5-25.1 20.6-59.4 39.7-101.8 56.9-33.2 13.4-71.6 25.1-114.3 34.7-33.6 7.6-75.5 17.1-118.5 21.5-32.7 3.3-76 7.2-120.6 7.2m0-781.7c-33.6 0-65.7 3.7-96.7 7.3-9.8 1.2-19.5 2.3-29.2 3.3-9.1.9-18.2 1.8-27.2 2.6-34.4 3.3-66.9 6.3-98.6 13.5-39.1 8.8-84.4 19.9-123.7 35.8l-6.4 2.6c-42 17-75.2 30.3-110.4 71.1-33.5 38.8-42.3 65.9-52.7 97.2-1.5 4.6-3 9.3-4.7 14.3-15.5 45.2-25.3 278.4 1.2 333.1 4.3 8.8 7.2 19.9 10.3 31.6 7.3 27.7 16.4 62.2 49.6 89.4 24.5 20.1 62.8 49.2 113.7 69.7 40.7 16.5 82.1 29.6 122.8 38.8 40.9 9.2 86 13.8 125.8 17.9 42.1 4.3 84.5 6.5 126.2 6.5 47.1 0 92.1-4 126-7.5 42.7-4.3 81.8-12.7 124.8-22.4 45.4-10.3 86.7-22.8 122.5-37.4 48.1-19.4 85.8-40.7 115.5-65 32.2-26.5 44.5-58.7 54.3-84.7 4.2-11.1 8.2-21.6 13.2-30.3 29.6-51.2 26.8-242.2 2.6-332.9-9.9-37.3-22.3-83.7-69.4-122.4-29-23.8-66.9-45-115.9-64.9-31.2-12.6-73.3-28.5-122.2-39.5-36.1-8.2-79.2-17.1-125.1-21.8-38.4-4-79.8-5.9-126.3-5.9" style="fill:#211d1d;fill-opacity:1;fill-rule:nonzero;stroke:none" transform="matrix(.02202 0 0 -.02202 -607.656 762.612)"/><path d="M33691.6 32600.3c0 106.6-62.9 203.2-178 291.2-81.8 62.7-188.2 117.2-315.1 165-102.8 38.8-217.8 71.1-343.6 97.5-111 23.3-228.4 47.4-353 59.4-114.9 11-234.7 19.9-357.9 19.9-123.3 0-243.3-6.3-358.3-17.3-124.6-12-244.9-23.9-355.8-47.2-125.8-26.4-241.9-62.4-344.7-101.2-126.9-47.9-227.9-114.9-309.8-177.5-115.1-88.1-182.5-183.2-182.5-289.8-13.6-2.5 478.1-5224.8 478.1-5284.4 0-65.7 26.1-117 107.2-171.2 57.7-38.7 128.8-81.3 218.2-110.8 72.4-23.9 155.8-41.3 244.4-57.6 78.3-14.3 163-18.5 250.9-25.9 80.9-6.8 164.9-17.4 251.7-17.4 86.9 0 171.8 2.7 252.7 9.5 87.8 7.4 171.3 21.2 249.5 35.5 88.7 16.3 169.1 39.9 241.5 63.8 89.4 29.5 165.3 62.7 223 101.3 81 54.2 123.9 115.4 123.9 181.1 0 59.2 457.6 5253.4 457.6 5253.4h-.9c.6 7.5.9 15.1.9 22.7" style="fill:#d3f0eb;fill-opacity:1;fill-rule:nonzero;stroke:none" transform="matrix(.02202 0 0 -.02202 -607.656 762.612)"/><path d="M30619.4 32587.9c8.1-164.7 184.6-2073.5 314.5-3477.9 104.5-1130.3 163.6-1770.9 163.6-1794.1 0-51.2 16.3-96.2 95.5-149.2 51.7-34.6 122.6-78.2 211.7-107.6 75.1-24.7 163.9-42.5 240.9-56.7 60.1-11 124.2-15.9 192.1-21.1 18.5-1.5 37.3-2.9 56.2-4.5 20-1.7 40.2-3.6 60.6-5.5 61.3-5.8 124.7-11.8 188.9-11.8 92.6 0 174.5 3.1 250.5 9.5 90 7.5 175.4 21.9 247 35.1 94.6 17.4 176.9 42.7 237.9 62.9 92.7 30.5 163.5 62.6 216.5 98.1 74.5 49.8 112.2 103.4 112.2 159.1 0 58 414.9 4770 455.2 5227.2h-.8l2.3 28.4c.6 7.5.9 14.2.9 20.5 0 94.1-56.3 185-167.6 270.2-76.8 58.7-180.5 113-308.3 161.2-99 37.4-213.3 69.8-339.7 96.3-99.1 20.8-222.4 46.7-350.1 59-96.1 9.2-223.3 19.8-355.4 19.8-117.3 0-236.9-5.8-355.8-17.2-112.6-10.8-240.2-23-352.9-46.7-112.8-23.7-227.5-57.4-340.7-100.1-134.4-50.8-237.3-123.5-303.1-173.8-115.8-88.6-172.1-176.5-172.1-268.7zm1524-5681.4c-66.7 0-131.4 6.1-193.9 12-20.2 1.9-40.2 3.8-60.1 5.5-18.7 1.5-37.3 3-55.8 4.4-69.3 5.3-134.7 10.3-197.5 21.9-78.8 14.4-169.9 32.7-248 58.5-95.2 31.4-170.1 77.3-224.6 113.8-83.4 55.8-119 113.6-119 193.3-.7 29.8-76.1 845.1-163.4 1789.2-71.1 768.2-151.6 1638.9-213.6 2320.4-33.8 371.8-58.4 647.1-75.3 841.6-9.3 106.7-16.1 188.6-20.4 243.4-2.3 28.6-3.9 50.6-4.8 65.5-.5 8.9-1 17.1-.5 24.3h-.1c0 109.8 63.1 211.5 192.9 310.8 68.4 52.4 175.6 128.1 316.6 181.3 115.8 43.7 233 78.1 348.5 102.4 115.6 24.3 244.8 36.7 358.8 47.6 120.5 11.5 241.9 17.4 360.8 17.4 134.3 0 263.2-10.7 360.4-20 130.7-12.6 255.6-38.8 356-59.9 129.1-27.1 246-60.3 347.5-98.6 132.7-50 240.9-106.8 321.8-168.7 123.7-94.7 187.1-198.5 188.5-308.7l2.4-.1-2.5-28.5c-4.6-51.8-455.9-5175.1-457.6-5251.3 0-74.3-45.6-142.7-135.7-203-57.1-38.1-132.1-72.3-229.4-104.4-93.1-30.7-168.6-50.7-245-64.7-72.8-13.3-159.7-28.1-252-35.8-77.5-6.5-160.9-9.6-255-9.6" style="fill:#211d1d;fill-opacity:1;fill-rule:nonzero;stroke:none" transform="matrix(.02202 0 0 -.02202 -607.656 762.612)"/><path d="M33284.5 28022.1c0-68.7-44.8-132.8-129.7-189.6-60.4-40.4-138.9-189-232.5-219.9-75.8-25-159.9-49.7-252.7-66.7-81.9-15.1-169.3-29.5-261.2-37.2-84.8-7.1-173.6-10-264.5-10s-178.8 11.2-263.5 18.3c-91.9 7.7-180.7 12.1-262.6 27.1-92.8 17.1-180 35.3-255.8 60.3-93.6 30.9-168.9 189.4-229.3 229.8-84.9 56.8-112.2 110.4-112.2 179.2s28.3 138.8 113.2 195.6c60.3 40.4 134.9 83.6 228.5 114.5 75.8 25 161.4 48.2 254.2 65.3 81.8 15 170.5 22.7 262.4 30.4 84.8 7.1 173.3 11.1 264.2 11.1s179.3-5.7 264-12.8c91.9-7.7 178.6-23.3 260.4-38.3 92.8-17.1 177.6-37.8 253.4-62.9 93.6-30.8 172.1-65.9 232.4-106.4 84.9-56.7 131.3-119 131.3-187.8" style="fill:#fff;fill-opacity:1;fill-rule:nonzero;stroke:none" transform="matrix(.02202 0 0 -.02202 -607.656 762.612)"/><path d="M32143 28403.9c-86.3 0-174.4-3.7-262-11.1-82.9-6.9-176.9-14.8-259.9-30-83-15.3-167.3-36.9-250.7-64.4-98.5-32.5-173.9-79.1-222.1-111.3-68.2-45.7-101.4-102.5-101.4-173.7 0-54 17.1-101.4 100.5-157.2 27.5-18.4 54-53.3 84.8-93.7 41.8-54.8 89.1-116.8 138-133 78.7-25.9 171.8-44.6 252.4-59.4 63-11.5 130.1-16.7 201.2-22.2 19.4-1.4 39-2.9 58.8-4.6 20.9-1.8 42.1-3.8 63.4-5.8 64.3-6 130.7-12.3 197.9-12.3 96.9 0 182.7 3.2 262.3 9.9 94.3 7.9 183.6 23 258.6 36.8 77.4 14.2 154.3 34.5 249.2 65.8 50.1 16.5 99 76.3 142.2 129.1 30.7 37.5 57.2 69.9 83.9 87.7 78.3 52.4 118 108.8 118 167.6 0 57-40.2 112.8-119.5 165.9-56.2 37.6-132.2 72.3-226 103.2-72.8 24.1-156.9 44.9-250 62-72.9 13.4-163.7 30.1-257.8 37.9-70.7 6-164.5 12.8-261.8 12.8m.9-931.6c-69.7 0-137.4 6.4-202.8 12.6-21.2 2-42.2 4-62.9 5.7-19.7 1.7-39.2 3.2-58.5 4.7-72.5 5.5-140.9 10.8-206.6 22.8-82.4 15.2-177.7 34.3-259.4 61.2-64.5 21.3-117.1 90.3-163.5 151.2-26.8 35.1-52.1 68.3-72.2 81.7-86.9 58.2-123.9 118.3-123.9 201.2 0 88.9 42 162.1 124.9 217.6 50.7 33.9 130.2 83 234.9 117.6 85.6 28.2 172.3 50.5 257.7 66.2 85.5 15.6 180.8 23.6 265 30.7 89 7.5 178.7 11.2 266.4 11.2 99.3 0 194.4-6.9 266.2-12.9 96.7-8.1 188.9-25 263-38.6 95.4-17.6 181.9-39 256.9-63.8 99.7-32.9 177.9-68.7 238.8-109.5 95-63.5 143.1-134.1 143.1-209.8 0-77.5-47.6-148.7-141.5-211.5-20.2-13.5-45.5-44.5-72.4-77.3-47.8-58.3-101.9-124.4-166.5-145.8-97.4-32.1-176.4-52.9-256.3-67.6-76.2-14-167.1-29.4-263.7-37.5-81-6.8-168.3-10.1-266.7-10.1" style="fill:#211d1d;fill-opacity:1;fill-rule:nonzero;stroke:none" transform="matrix(.02202 0 0 -.02202 -607.656 762.612)"/><path d="M32143.4 26959.5c-64.2 0-127.6 6-188.9 11.8-20.4 1.9-40.6 3.8-60.6 5.5-18.9 1.6-37.7 3-56.2 4.5-67.9 5.2-132 10.1-192.1 21.1-77 14.2-165.8 32-240.9 56.7-89.1 29.4-160 73-211.7 107.6-79.2 53-95.5 98-95.5 149.2 0 12.5-17.1 204.1-49.3 554.9 18.2-20.2 41.3-39.5 69.8-58.6 20.1-13.4 45.4-46.6 72.2-81.7 46.4-60.9 99-129.9 163.5-151.2 81.7-26.9 177-46 259.4-61.2 65.7-12 134.1-17.3 206.6-22.8 19.3-1.5 38.8-3 58.5-4.7 20.7-1.7 41.7-3.7 62.9-5.7 65.4-6.2 133.1-12.6 202.8-12.6 98.4 0 185.7 3.3 266.7 10.1 96.6 8.1 187.5 23.5 263.7 37.5 79.9 14.7 158.9 35.5 256.3 67.6 64.6 21.4 118.7 87.5 166.5 145.8 26.9 32.8 52.2 63.8 72.4 77.3 34.5 23.1 62.7 47.3 84.7 72.5-28.8-333.9-46.7-546.8-46.7-558.9 0-55.7-37.7-109.3-112.2-159.1-53-35.5-123.8-67.6-216.5-98.1-61-20.2-143.3-45.5-237.9-62.9-71.6-13.2-157-27.6-247-35.1-76-6.4-157.9-9.5-250.5-9.5m1132.2 1171.3c-23.9 35.4-59.9 69.1-107.7 101.1-60.9 40.8-139.1 76.6-238.8 109.5-75 24.8-161.5 46.2-256.9 63.8-74.1 13.6-166.3 30.5-263 38.6-71.8 6-166.9 12.9-266.2 12.9-87.7 0-177.4-3.7-266.4-11.2-84.2-7.1-179.5-15.1-265-30.7-85.4-15.7-172.1-38-257.7-66.2-104.7-34.6-184.2-83.7-234.9-117.6-42.3-28.3-74-61.3-94.8-98.5-24.5 265.9-54.8 593.4-90.3 977.5-115.2 1245.2-267 2886.9-305.6 3357.9 30.6-56 80.3-108.9 145.8-159.1 81.9-62.6 182.8-131.8 309.6-179.7 102.8-38.8 221.2-67.1 347-93.5 111-23.3 231.3-30.2 355.9-42.1 114.9-11 234.1-28.3 357.4-28.3 123.2 0 243.6 4.5 358.6 15.5 124.5 12 243.1 34.3 354 57.6 125.8 26.4 239.9 64.7 342.7 103.5 126.9 47.9 234.5 101.8 316.4 164.4 62.9 48.2 109.6 99.7 139 153.9-51.4-583.4-267.2-3035.5-379.1-4329.3" style="fill:#e9f7f5;fill-opacity:1;fill-rule:nonzero;stroke:none" transform="matrix(.02202 0 0 -.02202 -607.656 762.612)"/><path d="M32143.4 26933c-86.8 0-170.8 10.6-251.7 17.4-87.9 7.4-172.6 11.6-250.9 25.9-88.6 16.3-172 33.7-244.4 57.6-89.4 29.5-160.5 72.1-218.2 110.8-81.1 54.2-107.2 105.5-107.2 171.2 0 12.2-20.6 241.2-53.4 597.7 8.1-14.8 18.2-29.1 30.6-42.8 32.2-350.8 49.3-542.4 49.3-554.9 0-51.2 16.3-96.2 95.5-149.2 51.7-34.6 122.6-78.2 211.7-107.6 75.1-24.7 163.9-42.5 240.9-56.7 60.1-11 124.2-15.9 192.1-21.1 18.5-1.5 37.3-2.9 56.2-4.5 20-1.7 40.2-3.6 60.6-5.5 61.3-5.8 124.7-11.8 188.9-11.8 92.6 0 174.5 3.1 250.5 9.5 90 7.5 175.4 21.9 247 35.1 94.6 17.4 176.9 42.7 237.9 62.9 92.7 30.5 163.5 62.6 216.5 98.1 74.5 49.8 112.2 103.4 112.2 159.1 0 12.1 17.9 225 46.7 558.9 11.9 13.8 22 27.8 30.2 42.2-30.9-358.3-50.4-588.9-50.4-601.1 0-65.7-42.9-126.9-123.9-181.1-57.7-38.6-133.6-71.8-223-101.3-72.4-23.9-152.8-47.5-241.5-63.8-78.2-14.3-161.7-28.1-249.5-35.5-80.9-6.8-165.8-9.5-252.7-9.5m-1141 1146c-134.6 1463.5-419.9 4519.4-409.5 4521.3 0-46 12.3-90.1 35.4-132.4 38.6-471 190.4-2112.7 305.6-3357.9 35.5-384.1 65.8-711.6 90.3-977.5-9.5-17-16.8-34.8-21.8-53.5m2296 8.8c-5.7 14.6-13.3 28.9-22.8 43 111.9 1293.8 327.7 3745.9 379.1 4329.3 20.5 37.9 32.7 77.1 36 117.5h.9s-267.1-3032.6-393.2-4489.8" style="fill:#c2ccc8;fill-opacity:1;fill-rule:nonzero;stroke:none" transform="matrix(.02202 0 0 -.02202 -607.656 762.612)"/><path d="M32143.9 27525.2c-67.2 0-133.6 6.3-197.9 12.3-21.3 2-42.5 4-63.4 5.8-19.8 1.7-39.4 3.2-58.8 4.6-71.1 5.5-138.2 10.7-201.2 22.2-80.6 14.8-173.7 33.5-252.4 59.4-48.9 16.2-96.2 78.2-138 133-30.8 40.4-57.3 75.3-84.8 93.7-83.4 55.8-100.5 103.2-100.5 157.2 0 71.2 33.2 128 101.4 173.7 48.2 32.2 123.6 78.8 222.1 111.3 83.4 27.5 167.7 49.1 250.7 64.4 83 15.2 177 23.1 259.9 30 87.6 7.4 175.7 11.1 262 11.1 97.3 0 191.1-6.8 261.8-12.8 94.1-7.8 184.9-24.5 257.8-37.9 93.1-17.1 177.2-37.9 250-62 93.8-30.9 169.8-65.6 226-103.2 79.3-53.1 119.5-108.9 119.5-165.9 0-58.8-39.7-115.2-118-167.6-26.7-17.8-53.2-50.2-83.9-87.7-43.2-52.8-92.1-112.6-142.2-129.1-94.9-31.3-171.8-51.6-249.2-65.8-75-13.8-164.3-28.9-258.6-36.8-79.6-6.7-165.4-9.9-262.3-9.9" style="fill:#f1faf9;fill-opacity:1;fill-rule:nonzero;stroke:none" transform="matrix(.02202 0 0 -.02202 -607.656 762.612)"/><path d="M32143.9 27472.3c-69.7 0-137.4 6.4-202.8 12.6-21.2 2-42.2 4-62.9 5.7-19.7 1.7-39.2 3.2-58.5 4.7-72.5 5.5-140.9 10.8-206.6 22.8-82.4 15.2-177.7 34.3-259.4 61.2-64.5 21.3-117.1 90.3-163.5 151.2-26.8 35.1-52.1 68.3-72.2 81.7-28.5 19.1-51.6 38.4-69.8 58.6-12.4 13.7-22.5 28-30.6 42.8-4.8 52.5-9.8 107.7-15.2 165.4 5 18.7 12.3 36.5 21.8 53.5 20.8 37.2 52.5 70.2 94.8 98.5 50.7 33.9 130.2 83 234.9 117.6 85.6 28.2 172.3 50.5 257.7 66.2 85.5 15.6 180.8 23.6 265 30.7 89 7.5 178.7 11.2 266.4 11.2 99.3 0 194.4-6.9 266.2-12.9 96.7-8.1 188.9-25 263-38.6 95.4-17.6 181.9-39 256.9-63.8 99.7-32.9 177.9-68.7 238.8-109.5 47.8-32 83.8-65.7 107.7-101.1 9.5-14.1 17.1-28.4 22.8-43-4.9-56.7-9.6-110.9-14-162.5-8.2-14.4-18.3-28.4-30.2-42.2-22-25.2-50.2-49.4-84.7-72.5-20.2-13.5-45.5-44.5-72.4-77.3-47.8-58.3-101.9-124.4-166.5-145.8-97.4-32.1-176.4-52.9-256.3-67.6-76.2-14-167.1-29.4-263.7-37.5-81-6.8-168.3-10.1-266.7-10.1m-.9 931.6c-86.3 0-174.4-3.7-262-11.1-82.9-6.9-176.9-14.8-259.9-30-83-15.3-167.3-36.9-250.7-64.4-98.5-32.5-173.9-79.1-222.1-111.3-68.2-45.7-101.4-102.5-101.4-173.7 0-54 17.1-101.4 100.5-157.2 27.5-18.4 54-53.3 84.8-93.7 41.8-54.8 89.1-116.8 138-133 78.7-25.9 171.8-44.6 252.4-59.4 63-11.5 130.1-16.7 201.2-22.2 19.4-1.4 39-2.9 58.8-4.6 20.9-1.8 42.1-3.8 63.4-5.8 64.3-6 130.7-12.3 197.9-12.3 96.9 0 182.7 3.2 262.3 9.9 94.3 7.9 183.6 23 258.6 36.8 77.4 14.2 154.3 34.5 249.2 65.8 50.1 16.5 99 76.3 142.2 129.1 30.7 37.5 57.2 69.9 83.9 87.7 78.3 52.4 118 108.8 118 167.6 0 57-40.2 112.8-119.5 165.9-56.2 37.6-132.2 72.3-226 103.2-72.8 24.1-156.9 44.9-250 62-72.9 13.4-163.7 30.1-257.8 37.9-70.7 6-164.5 12.8-261.8 12.8" style="fill:#c2ccc8;fill-opacity:1;fill-rule:nonzero;stroke:none" transform="matrix(.02202 0 0 -.02202 -607.656 762.612)"/><path d="M30633 32411.7c44.9-534.1 189.9-2101.9 300.9-3301.7 104.5-1130.3 163.6-1770.9 163.6-1794.1 0-51.2 16.3-96.2 95.5-149.2 51.7-34.7 122.6-78.2 211.7-107.6 75.1-24.8 163.9-42.5 240.9-56.7 60.1-11 124.2-15.9 192.1-21.1 18.5-1.5 37.3-2.9 56.2-4.5 20-1.7 40.2-3.6 60.6-5.5 61.3-5.8 124.7-11.8 189-11.8 92.5 0 174.4 3.1 250.4 9.5 90 7.5 175.4 21.9 247 35.1 94.6 17.4 176.8 42.7 237.9 62.9 92.7 30.5 163.5 62.6 216.5 98.1 74.5 49.8 112.2 103.4 112.2 159.1 0 54.1 360.6 4152.5 442.1 5078.3-29.7-40.8-69-80-117.8-117.3-80.2-61.4-185.9-116.4-323.1-168.2-88.7-33.4-208.3-75.6-346.6-104.6-103.2-21.7-226.3-45.5-357-58.1-109.7-10.5-227.8-15.6-361.1-15.6-94.4 0-186 9.9-274.6 19.5-28.7 3.1-57.2 6.2-85.3 8.9-26.6 2.5-53.1 4.9-79.2 7.2-98.2 8.6-190.9 16.7-279.7 35.3-111.5 23.5-240.4 53-350.8 94.7-134 50.6-239.5 124.6-316.4 183.5-52.3 40-94 81.4-125 123.9m1510.5-5505.2c-66.8 0-131.5 6.1-194 12-20.2 1.9-40.2 3.8-60.1 5.5-18.7 1.5-37.3 3-55.8 4.4-69.3 5.3-134.7 10.3-197.5 21.9-78.8 14.4-169.9 32.7-248 58.5-95.2 31.4-170.1 77.3-224.6 113.8-83.4 55.8-119 113.6-119 193.3-.7 29.8-76.1 845.1-163.4 1789.2-71.1 768.2-151.6 1638.9-213.6 2320.4-33.8 371.8-58.4 647.1-75.3 841.6-9.3 106.7-16.1 188.6-20.4 243.4-2.3 28.6-3.9 50.6-4.8 65.5-.4 7.8-.9 15.1-.6 21.6v2.7h.1c1.1 13.5 6 23.2 21.6 26l31.3 5.8v-31.8c0-92.7 57.5-183.7 170.8-270.4 74.1-56.7 175.4-127.9 302.9-176 107.1-40.4 233.5-69.4 343-92.4 85.7-18 176.9-26 273.4-34.4 26.3-2.3 52.9-4.7 79.6-7.2 28.4-2.7 57.1-5.8 86-9 87.2-9.4 177.4-19.2 268.9-19.2 131.6 0 248 5.1 356 15.4 128.1 12.3 249.4 35.8 351.2 57.2 134.8 28.3 251.8 69.6 338.8 102.3 132.3 50 233.6 102.5 309.6 160.7 101.9 78 157.3 162.9 164.6 252.5l2 24.7 54.4-.8-2.5-28.4c-4.6-51.8-455.9-5175.1-457.5-5251.3 0-74.3-45.7-142.7-135.8-203-57.1-38.1-132.1-72.3-229.4-104.4-93.1-30.7-168.6-50.7-245-64.7-72.8-13.3-159.7-28.1-252-35.8-77.5-6.5-160.9-9.6-254.9-9.6" style="fill:#211d1d;fill-opacity:1;fill-rule:nonzero;stroke:none" transform="matrix(.02202 0 0 -.02202 -607.656 762.612)"/><path d="M33415 29425.4c-96.5-1102.3-180.9-2075.8-180.9-2101.2 0-65.7-43-126.9-124-181.1-57.8-38.6-133.5-71.7-223-101.3-72.5-24-152.8-47.6-241.4-63.9-78.2-14.3-161.8-28.1-249.6-35.4-80.9-6.8-165.7-9.5-252.7-9.5-86.8 0-170.7 10.6-251.8 17.4-87.7 7.3-172.5 11.6-250.7 25.9-88.7 16.3-172.1 33.7-244.4 57.7-89.5 29.5-160.5 72.1-218.4 110.7-81 54.2-107.1 105.4-107.1 171.1 0 22.5-69.8 777.2-156.1 1709.5l123.8-737.2c27.4-163.1 94.8-317.8 200.7-444.8 35.4-42.6 70.1-75.7 99.1-92.8 113.3-67.1 183.8-89.3 274.3-106 80-14.6 343.1-50.6 544.2-50.6 186.6 0 422.8 39 502.7 53.7 90.5 16.6 271.4 64.9 396.7 199 169.8 181.9 163.2 299.9 183.4 371.5z" style="fill:#fff;fill-opacity:1;fill-rule:nonzero;stroke:none" transform="matrix(.02202 0 0 -.02202 -607.656 762.612)"/><path d="M31006.8 28318.8c57.3-621.3 90.6-985.8 90.6-1003 0-51.2 16.2-96.1 95.4-149.1 51.9-34.7 122.8-78.2 212-107.7 74.2-24.6 159.6-41.8 240.9-56.7 60.3-11 124.6-16 192.7-21.2 18.3-1.4 36.8-2.8 55.4-4.4 19.9-1.6 39.9-3.5 60.1-5.4 61.5-5.8 125.1-11.8 189.5-11.8 93.4 0 175.3 3 250.5 9.3 89.7 7.5 175.2 22 247.1 35.1 73.9 13.6 147.2 33.1 237.8 63 92.7 30.6 163.5 62.7 216.6 98.2 74.5 49.8 112.3 103.3 112.3 159.1 0 17.2 33.7 413.5 100.4 1180.7l-42.9-294c-3.3-11.8-5.9-25.2-8.9-40.8-14.3-74.3-36-186.6-180.6-341.6-129-138-313-188.9-411.3-206.9-49.1-9.1-304.6-54.1-507.4-54.1-206.4 0-474.6 37.4-548.9 51-92.9 17.1-165.4 39.5-283.1 109.2-38.7 22.9-79 66.3-105.9 98.7-106.2 127.4-177.6 285.6-206.4 457.4zm1136.6-1412.2c-66.9 0-131.7 6.1-194.4 12-20.1 1.9-39.9 3.8-59.6 5.5-18.5 1.5-36.8 2.9-55 4.3-69.6 5.4-135.2 10.4-198.2 21.9-83.2 15.3-170.8 32.9-248.1 58.6-95.1 31.4-170 77.3-224.6 113.9-83.4 55.7-119 113.4-119 193-.7 29.4-76.1 844.3-155.9 1707.1l52.4 6.8 123.8-737.2c27.3-162.6 94.7-312.1 194.9-432.3 34.3-41.2 67.1-72.1 92.2-87 110.9-65.6 178.9-86.7 265.7-102.7 73.1-13.4 336.7-50.2 539.4-50.2 198.2 0 449.5 44.4 497.9 53.3 91.8 16.8 263.6 64.1 382.2 191 134.2 143.8 153.3 243 167.3 315.5 3 15.4 5.8 30 9.5 43.4l175 1205.7 52.4-6.1c-116-1325.7-180.2-2071.2-180.8-2099.1 0-74.3-45.7-142.6-135.7-202.9-57.1-38.1-132.1-72.3-229.4-104.4-57.7-19-145.8-46.5-244.9-64.7-73.1-13.4-160.2-28.1-252.2-35.8-76.7-6.5-160-9.6-254.9-9.6" style="fill:#211d1d;fill-opacity:1;fill-rule:nonzero;stroke:none" transform="matrix(.02202 0 0 -.02202 -607.656 762.612)"/><path d="M30963.5 32086.66c51.7-24.715 305.5-99.384 361.7-110.65 80-15.982 77.7-17.904 81.4-79.473l203.2-3313.148c9-147.068-266.7-193.529-328.9-54.67-1.2 2.707-2.3 5.502-3.4 8.297-41.5 113.882-319 2612.563-402.6 3370.699-10.1 91.875-16.4 229.249 88.6 178.945" style="fill:#fff;fill-opacity:1;fill-rule:nonzero;stroke:none;stroke-width:.934521" transform="matrix(.02202 0 0 -.02202 -607.656 762.612)"/><path d="M33470.2 32166.8c-9.7-9.8-101.9-73.6-193.7-117.7-31.7-15.2-52.1-47.1-53.2-82.3l-111.7-3480.3c-4.9-158.8 57.9-195.8 74.9-43.3.4 3 .7 6.1 1 9.1 11.7 124.6 289 2814.6 322.8 3634.9 4.1 99.4-14.4 105.5-40.1 79.6m-2036.1-5367.7c15.9 5.4 29.2-13.1 18.9-26.3-49.1-63-121-177.1-67.8-251 59.9-83.4 407-256.4 668.7-339.1 18.9-6 13.4-33.9-6.3-32.4-261.4 20.5-717.4 73.2-962.4 201.5-85.9 44.9-146.7 223.3 0 303.3 103.6 56.5 263.8 114.7 348.9 144" style="fill:#fff;fill-opacity:1;fill-rule:nonzero;stroke:none" transform="matrix(.02202 0 0 -.02202 -607.656 762.612)"/></g></svg>