<svg xmlns="http://www.w3.org/2000/svg" width="200mm" height="200mm" viewBox="0 0 200 200"><g style="display:inline"><path d="M19056.5 1670.4c-2.4 0-4.9.3-7.3.8-19.1 4-31.3 22.7-27.3 41.7 1.2 5.7 117.7 565.9 118.1 907.5.4 368.8-390.2 1909.4-394.2 1924.9-4.8 18.9 6.6 38.1 25.5 42.9s38.1-6.6 42.9-25.5c16.2-63.7 396.8-1564.8 396.3-1942.4-.4-348.9-114.7-898.6-119.5-921.8-3.5-16.7-18.2-28.1-34.5-28.1" style="fill:#211d1d;fill-opacity:1;fill-rule:nonzero;stroke:none" transform="matrix(.03528 0 0 -.03528 -570.985 224.778)"/><path d="M18400.8 4560.7c44.1-103.9 88.1-203.5 136.5-297.9 48.2-94.5 97.6-185.9 153.6-273.7 6.3-11.4 13.8-22 21.3-32.7l21.3-32.7c14.3-21.8 27.7-44.2 43.5-65 15.4-21.1 29.4-43.5 44.1-65.3 15.2-21.6 31.7-42.2 46.5-64.6 15.2-21.9 29.8-44.8 46.8-65.7 16-21.8 32-44.1 47.5-67.3 31.8-45.6 66.5-89.4 96-142.8l1.3-2.4c8-14.5 2.8-32.6-11.7-40.6-7.3-4.1-15.7-4.7-23.1-2.4-29.1 8.8-57.5 19.3-85.2 31.3-27.3 12.3-56.1 23.5-81.3 39.6-50.7 31.4-103.3 62.7-147.5 103.6-23.2 19.4-45.3 40-67.6 60.6-20.1 22.5-41 44.5-60.5 67.7-9.7 11.7-20 22.9-29.2 35-9.1 12.1-17.5 24.8-26.2 37.2-17.2 25.2-35.6 49.5-50 76.4-62.6 104.3-107.5 219.5-133.1 338.1-24 119-32 241.4.6 363.1 4.1 15.6 20.1 24.8 35.7 20.7 9-2.4 15.8-8.8 19.3-16.7z" style="fill:#307956;fill-opacity:1;fill-rule:nonzero;stroke:none" transform="matrix(.03528 0 0 -.03528 -570.985 224.778)"/><path d="m18662.9 3662.5 8.6-7.9c19.4-17.8 37.7-34.6 57-50.8l1.1-1c38.3-35.5 84.9-64.3 129.9-92.1l13.3-8.3c18.2-11.5 38.4-20.4 59.8-29.7 6.1-2.7 12.2-5.4 18.2-8.1 26-11.3 53.6-21.4 81.8-30l1.3.1.6 2.2-1.3 2.4c-21.2 38.3-45.7 72.3-69.4 105.2-8.4 11.7-16.8 23.4-25.1 35.2-16.3 24.4-32.7 47.1-46.6 66.2-13.5 16.6-25.4 34.1-36.9 51l-10.8 15.9c-8.8 13.2-17.8 25.3-27.2 38.1-6.5 8.7-12.9 17.4-19.1 26.2-5.5 8-10.5 15.7-15.5 23.3-9.6 14.6-18.6 28.3-28.4 41.7-12.1 16-23.1 33.1-33.7 49.6-3.5 5.6-7 11.1-10.6 16.6l-21.1 32.3c-7.7 11-15.4 21.9-22.2 34-48.8 76.6-96.4 161.5-154.4 275.4-52 101.2-98.6 208.3-137.4 299.7l-1.4 3.5c-1.1.5-1.6.2-1.8-.3-27.5-102.9-27.5-214.2-.1-350.2 25.2-117.1 68.9-228 129.6-329.2l.7-1.2c10.1-18.9 22.4-36.5 35.5-55.1 4.3-6.2 8.6-12.4 12.9-18.7 2.8-3.9 5.8-8.3 8.9-12.8 5.4-7.8 10.8-15.7 16.6-23.3 5.4-7.2 11.4-14.1 17.7-21.5 3.6-4.1 7.1-8.2 10.6-12.4 12.5-15 26.2-29.9 39.3-44.4 6.6-7.2 13.1-14.4 19.6-21.6m370.1-284.4c-5.6 0-11.3.8-16.8 2.4-30.3 9.3-60 20.2-88.2 32.5-6.2 2.8-12.1 5.3-18 7.9-22.5 9.8-45.7 20-67.3 33.8l-12.9 8c-47.1 29.1-95.8 59.2-138.1 98.2-20.1 16.9-39.6 34.8-58.4 52.1l-11.6 10.9q-9.9 11.1-20.1 22.2c-13.6 14.9-27.6 30.3-41 46.2-3.3 4-6.6 7.9-10 11.8-6.6 7.7-13.5 15.7-20 24.3-6.2 8.3-12.1 16.8-18 25.3-2.9 4.2-5.8 8.4-8.8 12.6-4.4 6.5-8.6 12.5-12.8 18.5-13.3 19-27 38.6-38.6 60.2-63.8 106.4-109.6 222.8-136.2 346.1-29.2 145.3-28.9 264.8.9 376.4 8.2 30.6 39.7 48.8 70.3 40.6 17.1-4.5 30.9-16.5 37.9-32.7l1.5-3.6c38.4-90.5 84.5-196.4 135.6-296.1 57.4-112.6 104.4-196.3 152.3-271.5l.9-1.5c5.4-9.8 12.2-19.4 19.3-29.5l.9-1.3 21.4-32.7c3.7-5.7 7.3-11.4 10.9-17.1 10.5-16.3 20.3-31.7 31.4-46.3 10.9-14.9 20.7-29.9 30.3-44.4q7.2-11.1 14.7-22.2c5.7-8 11.9-16.3 18-24.7 9.5-12.8 19.3-26.1 28.6-40 3.4-5 7.1-10.4 10.8-15.9 11.5-16.8 22.3-32.8 34.4-47.6l.9-1.2c14.4-19.7 31.4-43.2 48.2-68.3 7.7-11.1 16-22.5 24.3-34 24.6-34.3 50.1-69.7 72.9-110.8l1.3-2.4c7.5-13.6 9.3-29.3 5-44.2-4.3-15-14.1-27.3-27.7-34.8-8.6-4.8-18.4-7.2-28.2-7.2" style="fill:#211d1d;fill-opacity:1;fill-rule:nonzero;stroke:none" transform="matrix(.03528 0 0 -.03528 -570.985 224.778)"/><path d="M19560.5 3988.8c-63.8-77.9-124.4-154.9-174.9-234.6-51.1-79.4-95.8-160.4-128.8-246.7-9.9-21-16-43.3-23.2-65.3-6.7-22.2-16.2-43.7-20-66.8l-16.9-68.3c-4.8-23-7-46.6-11.5-70.1-4.3-23.6-8.8-47.3-9.7-71.5-2-24.2-4.2-48.5-7.2-73.2-3.9-49.3-2.8-99.2-8.7-151.5l-.4-3.4c-1.8-15.8-16-27.1-31.7-25.3-10.6 1.1-19.2 7.9-23.1 17-10.8 24.5-20.3 49.6-29.3 75.1-4.6 12.7-9.2 25.5-13.3 38.5-4.6 12.8-8.6 25.8-10.7 39.2-5.5 26.6-10.2 53.5-14.8 80.6-1.9 13.5-5.1 27.1-5.8 40.8l-1.6 41.3c-.8 27.7-1.6 55.5-.9 83.3l9.3 83.4c2.6 28 10.1 55.1 17 82.4 7.5 27.2 13 55 24.5 80.9 36.7 106.8 98 204.9 175 285.5 19 20.4 40.4 38.6 60.9 57.1 21.6 17.4 43.6 34.3 66.7 49.5 46.7 30.2 95.1 55.4 150.9 71 15.4 4.4 31.4-4.6 35.8-20.1 2.6-9.4.3-19-5.4-26.1z" style="fill:#307956;fill-opacity:1;fill-rule:nonzero;stroke:none" transform="matrix(.03528 0 0 -.03528 -570.985 224.778)"/><path d="M19256.8 3507.5h.1zm-200.6-181.5c-.7-26.4.1-53.1 1-80.5l1.5-41.2c.4-6.7 1.7-14.6 3.1-22.8.9-5.1 1.8-10.1 2.5-15.2 4.1-24.5 8.9-51.7 14.5-78.7l.2-1.3c1.5-9.7 4.4-20.2 9.4-34.2 4.6-14.4 9.5-27.9 13.3-38.2 10.2-29.1 19.3-52.4 28.5-73.5l1.3 3.6c3.3 29 4.4 58.1 5.4 86.2.8 21.1 1.5 42.9 3.3 64.4l.1 1.1c2.9 24.2 5.1 48.7 7 71.5 1 24.5 5.2 48 9.3 70.7l.8 4.1c2.1 10.8 3.6 21.3 5.2 32.4 1.9 12.5 3.8 25.5 6.4 38.5l.3 1 16.6 67.3c3 17.6 8.6 33.5 14 49 2.3 6.7 4.6 13.4 6.7 20.2 1.6 5 3 9.5 4.5 14 5.5 17.8 11.3 36.1 19.7 54.1 30.7 80 72.3 159.8 131 251 52 82 115.7 162.5 176.8 237.2l2.3 2.7c-.1 1-.5 1.3-1 1.2-46.7-13.1-92.2-34.6-143.2-67.6-19.2-12.7-39.5-27.8-63.7-47.3l-11.7-10.5c-15.9-14.2-32.4-28.9-46.8-44.4-76-79.5-134.4-174.7-169-275.4l-.9-2.3c-7.8-17.4-12.6-36.4-17.7-56.5-1.8-6.8-3.5-13.6-5.3-20.3l-2.2-8.8c-6.1-23.7-11.8-46.2-13.9-68.8zm74.6-442.4c-2.2 0-4.3.1-6.5.4-20.1 2.2-37.6 15.2-45.8 33.7-9.8 22.5-19.3 46.9-30 77.1-3.8 10.5-8.9 24.7-13.6 39.2-3.8 10.8-8.9 26.1-11.6 42.8-5.7 27.7-10.5 55.3-14.8 81-.8 5.2-1.5 9.6-2.3 14.1-1.6 9.5-3.3 19.3-3.9 29.8l-1.6 41.9c-.9 28.7-1.7 56.8-.9 85.1l.1 2.4 9.4 83.3c2.4 26.5 9 52.3 15.3 77.1l2.4 9.1c1.9 7 3.5 13.5 5.2 19.9 5.3 21.2 10.9 43 20.3 64.4 37.3 108 99.8 209.9 180.9 294.7 15.9 17.1 33.4 32.7 50.3 47.8l13.2 11.7c25.9 20.9 47.8 37.2 68.9 51.1 56.1 36.4 106.5 60.1 158.8 74.7 30.5 8.5 62.1-9.3 70.6-39.7 5-17.8 1.1-37-10.5-51.4l-2.4-2.9c-69.3-84.7-125.2-156.5-172.9-231.8-56.9-88.4-97-165.1-126.2-241.7l-.9-2c-7-14.8-12-30.9-17.4-47.9-1.5-4.7-2.9-9.4-4.5-14.1-2.1-6.9-4.6-14.3-7.2-21.7-4.9-14.2-9.6-27.6-11.7-40.8l-.5-2.2-16.8-67.8c-2.3-11.2-3.9-22.6-5.7-34.7-1.6-11.3-3.4-22.9-5.6-34.6l-.7-3.8c-4-21.9-7.7-42.6-8.5-63.4l-.1-1.3c-1.9-23.4-4.2-48.5-7.2-73.6-1.6-20.1-2.3-40.1-3.1-61.3-1-29.2-2.1-59.4-5.6-90.6l-.4-3.4c-1.7-15.1-9.2-28.7-21.1-38.1-10.2-8.2-22.6-12.5-35.4-12.5" style="fill:#211d1d;fill-opacity:1;fill-rule:nonzero;stroke:none" transform="matrix(.03528 0 0 -.03528 -570.985 224.778)"/><path d="M19877 3042.9c-88.5-8.8-174.7-21.6-250.9-45-76.7-23-143.1-57.3-197.4-104.6-54.6-47-98.5-108.2-134.8-180.8-37.2-72.3-65.6-154.4-98.4-241.7l-.1-.4c-5.8-15.2-22.8-22.9-38-17.2-9.4 3.6-16 11.6-18.3 20.7-22.8 94.4-22.5 194.3 2.6 293.6 24.3 98.5 78.6 198.2 163.2 269.7 83.6 72.6 191.2 111.9 293.8 119 103.5 6.7 202.8-10.9 292.3-58.6 14.1-7.5 19.5-25.1 11.9-39.2-4.7-8.8-13.3-14.2-22.5-15.2z" style="fill:#307956;fill-opacity:1;fill-rule:nonzero;stroke:none" transform="matrix(.03528 0 0 -.03528 -570.985 224.778)"/><path d="M19640.2 3129.4c-13.1 0-26.3-.5-39.7-1.3-102.1-7.1-203.2-48-277.1-112.2-74.4-62.9-129.2-153.5-154.3-255.2-23.8-94.3-24.7-188.5-2.5-280.2l.7-.9 1.6.8c5.6 14.9 11 29.2 16.2 43.5 26.7 71.9 51.9 139.8 83.7 201.5 39.8 79.7 86.1 141.7 141.5 189.3 55.6 48.4 125.5 85.6 207.7 110.3 67.9 20.8 149.3 35.4 256.2 46l3.5.3v1.4c-70.7 37.6-150.5 56.7-237.5 56.7m-472.5-706.3c-6.7 0-13.6 1.2-20.2 3.7-17.8 6.7-31.2 21.7-35.8 40.3-24.3 100.8-23.4 204.1 2.6 307.3 28 113.1 89.2 214.1 172.4 284.4 83.9 72.9 194.1 117.6 310.1 125.6 113.3 7.3 216.7-13.6 307.5-61.9 13.4-7.2 23.3-19.2 27.8-33.8 4.4-14.6 2.9-30.1-4.2-43.6-9-16.7-25.6-27.9-44.5-29.9l-3.7-.4c-103-10.2-180.9-24.2-245.3-43.9-74.6-22.4-137.5-55.7-187.1-98.9-49.8-42.8-91.6-99-128.2-172.1-30.3-59-55-125.4-81-195.7-5.3-14.3-10.7-28.7-16.2-43.3-8.8-23.4-30.9-37.8-54.2-37.8" style="fill:#211d1d;fill-opacity:1;fill-rule:nonzero;stroke:none" transform="matrix(.03528 0 0 -.03528 -570.985 224.778)"/><path d="M19066.5 4876.1c39.6-42.2 65.6-88.1 89-137.1 23.6-48.6 39.8-99.9 53.2-151.9 25.6-104.4 31.8-212.1 26-317.9-1.9-26.4-4-52.8-6.7-79.2-3.7-26.1-8.5-52-13.3-77.9-8.1-52.2-25.1-102.1-40-152.1-16.5-49.6-38.2-97.4-59.8-144.6-24.7-46-51.1-91.1-81.8-133.6-9.4-13.1-27.7-16.1-40.7-6.6-8.3 5.9-12.5 15.3-12.1 24.7l.1 2.1c2.2 52.1 9.3 101.6 17.1 150.4 4.8 49.4 13.3 97.5 20 145.3 2.6 24.1 6.2 47.9 9.4 71.7 1.8 11.9 4.1 23.7 5.4 35.6 1 11.9 2.3 23.7 3.7 35.5 2.6 23.7 5.7 47.3 8.9 70.8 1.5 23.6 3.7 47.2 6.1 70.7 7.2 94.1 10.5 188 6.1 282.1-4.7 93.2-15.5 190-38.2 281.5l-1 4.1c-3.8 15.3 5.6 30.7 20.9 34.5 10.4 2.6 20.8-.9 27.7-8.1" style="fill:#47b173;fill-opacity:1;fill-rule:nonzero;stroke:none" transform="matrix(.03528 0 0 -.03528 -570.985 224.778)"/><path d="m19045.6 4856.8.8-4.5c20.6-83.6 33.4-177.5 38.8-286.8 4.1-86.1 2.1-179.5-6.1-285.7-2.3-23-4.6-46.8-6.1-70.3l-.2-2c-3-22.2-6.1-46.1-8.7-70-1.4-11.8-2.7-23.3-3.7-34.9-1-8.9-2.3-17-3.6-25.1-.7-4.1-1.3-8.1-1.9-12.2l-2.4-17.1c-2.5-17.5-5-35.7-6.9-53.4-2.2-15.9-4.5-30.7-6.7-45.7-4.9-32.4-10-66-13.3-99.5l-.3-1.7c-8.5-53.6-14.6-99.2-16.7-147.2l-.1-2 1.7-.4c26.1 36.2 51.3 77.4 79.4 129.7 20.9 45.7 42.4 92.9 58.3 140.9 2.5 8.5 5.4 17.9 8.3 27.2 12.5 41.1 24.3 79.8 30.6 120.3 4.8 26 9.6 51.9 13.2 77.6 2.7 25.2 4.7 52.1 6.5 77.3 6.2 111.5-2.3 215.6-25.2 309-15.2 59.1-31.5 105.7-51.2 146.4-20.5 42.8-44.8 88-84.2 130zm-36.3-1215.4c-11.9 0-23.6 3.7-33.4 10.9-15.7 11.2-24.6 29.4-23.8 48.7v2.2c2.3 50.4 8.6 97.6 17.4 152.8 3.4 34.6 8.6 68.7 13.6 101.6 2.2 14.7 4.4 29.4 6.5 44.1 1.9 17.7 4.5 36.3 7 54.3l2.4 17.2c.6 4.7 1.4 9.1 2.1 13.4 1.2 7.2 2.3 14.3 3.1 21.5 1 11.4 2.3 23.6 3.8 35.8 2.5 23.9 5.7 47.9 8.8 70.2 1.5 24.1 3.8 48.1 6.1 70.7 7.9 103.2 9.9 194.3 5.9 277.9-5.3 105.6-17.5 196-37.3 276.1l-1 4.1c-3.6 14.7-1.3 30 6.5 43 7.9 12.9 20.3 22.1 35 25.7 19.9 4.9 41-1.3 55-16.2h.1c44.7-47.7 72.6-99.7 93.9-144.2 21.3-44.1 38.8-94 55-157.1 24.4-99.1 33.4-208.9 26.9-326.4-1.9-26.2-4-53.5-6.9-80.6-3.9-27.9-8.8-54.5-13.6-80.2-6.7-43.6-19.7-86.1-32.2-127.3-2.9-9.2-5.7-18.4-8.4-27.7-17.3-51.9-39.6-100.9-61.2-148.2l-.8-1.6c-29.5-54.9-56.1-98.4-83.8-136.8-9-12.5-22.2-20.7-37.4-23.1-3.1-.5-6.2-.8-9.3-.8" style="fill:#211d1d;fill-opacity:1;fill-rule:nonzero;stroke:none" transform="matrix(.03528 0 0 -.03528 -570.985 224.778)"/><path d="M18487 3143.8c59 .4 113.2-11.6 166.7-29.2 26.5-9.1 52.3-20 77.9-31.9 24.7-13 50.1-25.8 73.7-41.2 95.2-60.8 178.3-143.8 238.2-241.5 17.1-23 28.6-49.5 41.9-74.7 12.8-25.5 26-50.8 34.6-78 9.4-26.8 18.1-53.8 26.9-80.5 6.5-27.5 11.6-55.2 16.3-82.7l6.8-41.3c2-13.7 1.6-27.8 2.4-41.6.9-27.8 1.5-55.4 1.1-82.8.5-13.6-.9-27.3-3.1-41-1.6-13.6-3.8-27.2-6.1-40.7-4.2-27-9.1-53.7-15.6-80-3.9-15.6-19.7-25.1-35.3-21.2-9.3 2.3-16.4 8.9-19.8 17.2l-1.4 3.3c-20.1 49.7-32 98.3-48.5 145-9.2 23.1-17.4 46.1-25.3 68.8-6.9 23.1-17.1 44.9-26.9 66.5-10.1 21.5-17.7 43.7-27.8 64.7-11 20.6-21.9 41-32.2 61.5-8.8 21.3-23 39.7-34.4 59.4-11.7 19.5-22.7 39.5-36.7 57.4-50.7 75.4-110.4 143.7-175.5 210.7-64.5 67.7-137.8 131.5-214.7 199.9l-2.7 2.4c-12.1 10.8-13.2 29.4-2.4 41.6 5.7 6.5 13.8 9.8 21.9 9.9" style="fill:#47b173;fill-opacity:1;fill-rule:nonzero;stroke:none" transform="matrix(.03528 0 0 -.03528 -570.985 224.778)"/><path d="M19045.2 2378.5c8.8-24.9 16.3-45.9 24.8-67.1l.4-1c6.6-19 12.6-38.3 18.4-57.1 8.8-28.4 17.8-57.7 29.6-86.7l1.3-3.3c1-.5 1.5-.2 1.6.2 5.6 22.6 10.4 47.2 15.1 77.6 1.9 11.2 4.3 25.6 6 39.7 2.4 15.7 3.3 26.7 2.9 36.6v1.4c.4 27.8-.3 55.6-1.1 81.5-.2 4.3-.4 9.4-.5 14.6-.3 8.5-.5 16.5-1.6 23.9l-6.8 40.6c-4 23.6-9 51.6-15.6 79.8l-2.9 8.7c-7.5 23.1-15.3 46.9-23.4 70.1-7.6 23.7-18.6 45.6-30.2 68.8l-3 5.9c-3.1 5.8-6.3 12.3-9.6 18.7-9.4 18.7-18.3 36.4-29.7 51.8l-1.4 2c-56.8 92.6-136.1 173-229.4 232.5-19 12.4-39.8 23.3-59.9 33.9l-11.1 5.8c-28.4 13.1-52.1 22.8-74.6 30.4-58.1 19.3-108.3 28.2-157.3 27.8l-1-.4.1-1.8 25-22.2c69.4-61.6 135-119.8 194-181.7 75.8-78.1 132.4-146 177.9-213.6 12.1-15.6 21.8-32 31.2-47.9 2.3-3.8 4.6-7.7 6.9-11.5 3.9-6.7 7.8-12.8 11.7-18.9 8.5-13.4 17.4-27.2 24.2-43.3 8.2-16.4 16.8-32.5 25.8-49.6l6.1-11.5c5.6-11.6 10.4-23.3 15-34.6 4.3-10.5 8.4-20.5 13-30.2l2.5-5.6c9.2-20.4 18.8-41.4 25.6-64.3m75.2-272.1c-4.5 0-9.1.6-13.7 1.7-17.7 4.4-32.3 17-39.2 33.8l-1.4 3.5c-12.7 31.2-22.1 61.7-31.3 91.3-5.8 18.8-11.3 36.7-17.5 54.4-8.8 22.1-16.6 43.8-25.6 69.4l-.4 1.3c-5.8 19.4-14.2 38-23.1 57.7l-2.4 5.2c-5 10.7-9.6 21.8-13.9 32.5-4.5 10.9-8.7 21.1-13.4 31l-5.4 10.1c-8.9 16.8-18.2 34.3-26.8 51.6l-.8 1.8c-5 11.9-12.3 23.4-20.1 35.5-4.4 6.8-8.7 13.6-12.7 20.6-2.1 3.5-4.5 7.5-6.8 11.4-9.1 15.3-17.7 29.8-27.8 42.7l-1.2 1.6c-43.7 65-98.4 130.8-172.2 206.8-57.7 60.5-122.4 117.9-190.9 178.7l-25 22.2c-23.8 21.1-25.9 57.7-4.8 81.5 10.8 12.1 26.3 19.2 42.6 19.4h.2c55.4.4 111.3-9.4 175.7-30.7 24.8-8.5 50.4-18.9 80.9-33l1.4-.7 11.6-6.1c21.3-11.2 43.3-22.7 64.4-36.5 99.8-63.7 185-150 246.1-249.3 14-19 24.3-39.4 34.2-59q4.5-9.3 9.3-18.3l3.2-6.4c12.1-24.1 24.7-49 33.3-76.2 8.1-23 16-47.1 23.6-70.4l3.9-12.2c7.1-30.1 12.4-59.6 16.6-84.5l6.9-41.3c1.6-11.2 1.9-21.3 2.2-31 .1-4.6.2-9.1.5-13.6.9-27.2 1.6-55.5 1.2-84.2.4-13.5-.7-27.6-3.5-45.6-1.7-14.4-4.2-29.6-6.1-41.1-5-31.7-10.1-57.9-16.1-82.1-6.5-26-29.9-43.5-55.7-43.5" style="fill:#211d1d;fill-opacity:1;fill-rule:nonzero;stroke:none" transform="matrix(.03528 0 0 -.03528 -570.985 224.778)"/><path d="M18159.3 3757c127.8 14.7 252.8-6.6 373.6-46.4 120.1-41 234.1-105.5 333-189.6 49.2-42.2 93.9-89.9 134.1-140.7 39.6-51.6 73.4-107.2 101.6-165 54.4-116.6 85-242.6 81.9-368.1-.4-16.1-13.9-28.9-30-28.5-10.6.3-19.7 6.1-24.6 14.6l-.3.5c-60.2 104.6-117.4 201.3-182.3 289.7-66 87.5-138 166.4-218.8 237.4-81.3 70.2-170.3 132.8-266.7 188.3-96 55.6-199.8 105.4-307.1 151.6l-2.5 1.2c-14.6 6.3-21.4 23.2-15.1 37.8 4.2 9.8 13.3 16.1 23.2 17.2" style="fill:#47b173;fill-opacity:1;fill-rule:nonzero;stroke:none" transform="matrix(.03528 0 0 -.03528 -570.985 224.778)"/><path d="m18162.6 3729-.6-.3 3-1.9c119.9-51.7 221.4-101.8 310-153.2 98-56.4 189.2-120.8 271-191.3 81.1-71.3 153.9-150.4 222.8-241.9 67.6-92 125.8-190.9 184.3-292.5l1.1-1 1 1c2.9 115.3-24.5 238.2-79.2 355.5-27.8 57-60.9 110.8-98.4 159.7-40.7 51.5-84.6 97.5-130.1 136.5-94.8 80.6-206.8 144.3-323.7 184.3-130.9 43.1-249.1 57.9-361.2 45.1m991.6-938.5h-1.4c-20.2.5-38.2 11.2-48.3 28.7-58 100.7-115.3 198.1-181 287.5-66.4 88.2-136.6 164.5-214.6 233-78.9 68.1-167.2 130.4-262.2 185-86.7 50.3-186.2 99.4-304.1 150.2l-2.7 1.2c-28.8 12.4-42.2 46-29.7 74.9 8 18.7 25.6 31.7 45.8 34.1h.1c120.4 13.8 246.6-1.8 385.6-47.7 123.9-42.3 242.2-109.7 342.4-194.9 48.4-41.4 94.8-90 138.1-144.7 40-52.2 75.1-109.3 104.8-170.1 58.6-125.6 87.8-257.3 84.7-381.2-.8-31.2-26.4-56-57.5-56" style="fill:#211d1d;fill-opacity:1;fill-rule:nonzero;stroke:none" transform="matrix(.03528 0 0 -.03528 -570.985 224.778)"/><path d="M18831 4141.4c-39.6 40.2-71.2 83.4-100.7 127.5-29.2 44.2-55.5 89.6-79 136.3-23 46.9-44.8 94.4-62.8 143.9-18.6 50.3-34.4 97.9-47 160.7-21.2 118.4-16.1 224.1-8.1 326.6 3.9 51.2 10.1 101.8 16.8 152.5 6.9 50.8 14.2 101.7 25.5 154.2l.2 1c4.6 21.4 25.7 35 47.1 30.4 12-2.6 21.7-10.6 26.9-20.7 50.2-98 77.5-203.2 97.8-305.2 20.6-101.8 32.1-201.9 51.7-284.6 2.1-10.6 5.2-20 7.6-30.1 3.1-10.9 7-22.2 9.8-33.6 6.4-23.3 13.9-46.7 20-70.9 13.6-47.9 24.9-97.4 35.5-147.3 19.3-100.5 34.9-203.3 28.9-314.4-1.2-22.5-20.5-39.8-43-38.6-10.6.6-20 5.1-26.9 12.1z" style="fill:#47b173;fill-opacity:1;fill-rule:nonzero;stroke:none" transform="matrix(.03528 0 0 -.03528 -570.985 224.778)"/><path d="M18614.6 5347.1c-2.8 0-5-1-6.1-1.8-1.5-1-4.1-3.2-5-7.2l-.2-1c-11.3-52.5-18.6-103.9-25.1-152-6.3-47.6-12.7-99-16.7-150.9-7.6-97.3-13.2-202.1 7.8-319.4 11.7-58.6 26.8-104.8 45.7-155.9 15.2-41.8 34.2-85.3 61.6-141.3 22.7-45.1 48.8-90 77.3-133.2 25.2-37.7 56.6-81.9 97.2-123.2l.5-.4c1.3-1.4 4.1-3.3 8.1-3.5 7-.7 13 5 13.3 12 6 109.5-10.2 212.5-28.5 307.4-9.1 43.2-20.5 94.6-34.9 145-3.8 15-7.9 29.3-12 43.2-2.7 9.3-5.4 18.6-8 27.9-1.9 7.5-4 14.2-6 20.9-1.3 4.2-2.6 8.3-3.7 12.4l-.3 1.2c-.9 3.7-1.9 7.3-2.9 10.9-1.7 6.3-3.5 12.9-5 20.3-10.9 46.1-19.4 97.9-28.4 152.8-7 42.9-14.3 87.2-23.2 131.7-17 85.3-43.2 196.2-95.3 297.9-1.5 3-4.5 5.3-7.7 6zm245.8-1246.3c-1.2 0-2.5 0-3.7.1-17.2.9-33.4 8.2-45.5 20.4l-.3.3c-43.9 44.6-77.3 91.5-104.1 131.6-29.8 45.1-56.9 92-80.7 139.3-19.3 39.2-43.8 91.1-64.1 147-19.8 53.4-35.6 102-48.1 164.8-22.4 124.4-16.5 233.3-8.7 334.3 4.1 53.2 10.6 105.4 17 154 6.7 49.3 14.2 101.9 25.9 156.5l.2 1c3.8 17.6 14.3 32.8 29.5 42.6 15.3 9.9 33.4 13.2 51.1 9.4 19.9-4.3 36.7-17.1 46.1-35.3 55.3-108 82.7-223.8 100.4-312.7 9.2-45.5 16.5-90.3 23.6-133.7 8.8-53.9 17.2-104.7 27.9-149.9 1.4-6.7 2.9-12.2 4.3-17.6 1.1-3.9 2.1-7.8 3.1-11.8 1-3.6 2.2-7.2 3.3-10.8 2.3-7.7 4.7-15.5 6.6-23.2 2.3-8.3 4.9-17.3 7.6-26.4 4.2-14.3 8.5-29.2 12.4-44.4 14.5-51.1 26.2-103.8 35.7-148.4 19.1-99 35.8-206.1 29.5-321.7-2-36.8-32.5-65.4-69-65.4" style="fill:#211d1d;fill-opacity:1;fill-rule:nonzero;stroke:none" transform="matrix(.03528 0 0 -.03528 -570.985 224.778)"/></g></svg>