<svg xmlns="http://www.w3.org/2000/svg" width="200mm" height="200mm" viewBox="0 0 200 200"><path d="M7660.02 3079.9s432.78-559.4 704.46-707.4c315.25-171.8 692.24-255 1135.32-197.8 247.19 32 462.39 248.1 466.78 275.5 4.38 27.5 8.62 432.8-205.52 652.1-215 220.3-679.97 568-1190.64 433.4s-910.4-455.8-910.4-455.8" style="fill:#418533;fill-opacity:1;fill-rule:nonzero;stroke:none" transform="matrix(.03528 0 0 -.03528 -189.495 205.896)"/><path d="M9937.73 2459.7h-.01zm-2234.56 614.7c86.06-108.2 444.71-549.1 675.92-675.1 333.32-181.6 709.05-246.9 1116.79-194.3 229.11 29.6 421.36 221.2 440.86 252.9 5.29 55.8-5.86 426.7-197.54 623.1-133.18 136.4-610.56 570.3-1160.99 425.2-428.69-113-781.89-362.1-875.04-431.8m1523.95-948.2c-315.23 0-609.3 73.5-877.26 219.5-274.15 149.3-696.17 692.4-714 715.5l-18.35 23.7 23.37 18.8c4.05 3.2 410.71 326.8 921.75 461.6 582.44 153.5 1081.28-299.2 1220.29-441.6 218.38-223.8 221.28-631.4 213.82-678.3-7.58-47.5-242.79-268.6-493.02-301-93.85-12.1-186.12-18.2-276.6-18.2" style="fill:#211d1d;fill-opacity:1;fill-rule:nonzero;stroke:none" transform="matrix(.03528 0 0 -.03528 -189.495 205.896)"/><path d="M9945.24 2436.3c-5.55 2.4-558.9 237.3-945.27 411-380.45 171-1391.09 192-1401.25 192.2l1.15 61.1c42.01-.8 1033.4-21.5 1425.14-197.6 385.8-173.4 938.55-408.1 944.09-410.4z" style="fill:#211d1d;fill-opacity:1;fill-rule:nonzero;stroke:none" transform="matrix(.03528 0 0 -.03528 -189.495 205.896)"/><path d="M8522.65 2991.4s475.57-167 521.04-573.4z" style="fill:#307956;fill-opacity:1;fill-rule:nonzero;stroke:none" transform="matrix(.03528 0 0 -.03528 -189.495 205.896)"/><path d="M9043.65 2387.5c-15.35 0-28.57 11.5-30.32 27.1-42.84 382.9-496.23 546.4-500.8 548-15.92 5.6-24.29 23-18.7 39 5.59 15.9 23.03 24.3 38.94 18.6 20.16-7 494.21-178.2 541.27-598.8 1.88-16.7-10.19-31.8-26.96-33.7-1.15-.1-2.3-.2-3.43-.2M8979.09 2874.9c-16.59 0-27.1.5-29.51.7-16.84 1-29.64 15.5-28.6 32.4 1.05 16.8 15.57 29.6 32.35 28.6 3.57-.3 357.86-18.9 476.27 212 7.7 15 26.09 21 41.12 13.2 15.01-7.6 20.94-26.1 13.24-41.1-116.38-226.9-410.02-245.8-504.87-245.8M9551.52 2324.5c-15.11 0-28.25 11.2-30.25 26.6-31.72 244.3-306.53 401.7-309.3 403.3-14.7 8.3-19.9 26.9-11.62 41.6s26.92 19.9 41.6 11.6c12.41-7 304.28-174.3 339.91-448.7 2.17-16.7-9.63-32-26.37-34.2-1.33-.2-2.65-.2-3.97-.2" style="fill:#211d1d;fill-opacity:1;fill-rule:nonzero;stroke:none" transform="matrix(.03528 0 0 -.03528 -189.495 205.896)"/><path d="M8254.07 3041.2s192.23 28.2 379.67 200.3z" style="fill:#307956;fill-opacity:1;fill-rule:nonzero;stroke:none" transform="matrix(.03528 0 0 -.03528 -189.495 205.896)"/><path d="M8254.03 3010.6c-14.9 0-27.95 11-30.18 26.2-2.45 16.6 9.07 32.1 25.73 34.6 1.84.3 185.92 29.6 363.5 192.6 12.43 11.4 31.75 10.6 43.16-1.8 11.41-12.5 10.59-31.8-1.84-43.2-192.15-176.4-387.66-206.8-395.89-208-1.5-.2-3-.4-4.48-.4" style="fill:#211d1d;fill-opacity:1;fill-rule:nonzero;stroke:none" transform="matrix(.03528 0 0 -.03528 -189.495 205.896)"/><path d="M8405.19 3119.7s-462.26 691.8-1062.63 679.6c-600.38-12.3-862.67-373.2-894.64-427.1-31.97-53.8 116.95-651.2 793.38-838.9 276.96-76.9 1166.47-9.4 1163.89 586.4" style="fill:#418533;fill-opacity:1;fill-rule:nonzero;stroke:none" transform="matrix(.03528 0 0 -.03528 -189.495 205.896)"/><path d="M6475.02 3358c-5.41-22.9 12.79-133.4 89.83-272.7 81.22-146.7 278.16-409.8 684.62-522.6 181.05-50.2 660.42-35.7 931.23 171.1 126.8 96.8 192 223.4 193.9 376.4-51.65 73.5-480.18 658.7-1016.44 658.7-5.01 0-9.95-.1-14.98-.2-606.28-12.3-852-385.1-868.16-410.7m1006.66-881c-101.16 0-188.72 10.2-248.55 26.8-516.28 143.3-713.71 511.2-774.62 662.8-33.8 84.1-58.3 185.1-36.86 221.2 2.54 4.3 261.99 428.6 920.28 442 253.41 5.2 522.24-113.5 777.51-343 191.26-172 306.34-343 311.15-350.1l5.11-7.7.04-9.2c.76-177.3-72.57-323.5-217.96-434.6-202.29-154.5-504.65-208.2-736.1-208.2" style="fill:#211d1d;fill-opacity:1;fill-rule:nonzero;stroke:none" transform="matrix(.03528 0 0 -.03528 -189.495 205.896)"/><path d="M7734.17 2920.6c-121.6 0-257.45 9.3-405.92 33.3-345.19 55.8-874.35 369-896.71 382.4l31.25 52.5c5.37-3.2 541.54-320.7 875.2-374.6 640.93-103.6 1049.3 77.4 1053.35 79.3l25.35-55.6c-13.3-6.1-263.16-117.3-682.52-117.3" style="fill:#211d1d;fill-opacity:1;fill-rule:nonzero;stroke:none" transform="matrix(.03528 0 0 -.03528 -189.495 205.896)"/><path d="M7741.69 2930.3c-2.07 0-4.18.2-6.29.7-4.14.8-102.45 22.4-197.15 125.9-85.16 93.1-184.36 274-173.3 607.4.56 16.9 14.94 30 31.54 29.6 16.86-.6 30.08-14.7 29.52-31.6-8.14-245.4 45.26-439.4 154.44-561 81.53-90.8 166.78-110.4 167.63-110.6 16.42-3.6 26.91-19.8 23.38-36.2-3.07-14.4-15.68-24.2-29.77-24.2M6951.9 2717.8c-5.22 0-10.49 1.4-15.33 4.2-14.58 8.4-19.53 27.2-11.05 41.7 129.55 222.8 438.72 239.1 451.81 239.7 16.79.9 31.13-12.3 31.88-29.2.76-16.8-12.28-31.1-29.12-31.8-2.92-.2-289.13-15.7-401.76-209.4-5.66-9.7-15.91-15.2-26.43-15.2" style="fill:#211d1d;fill-opacity:1;fill-rule:nonzero;stroke:none" transform="matrix(.03528 0 0 -.03528 -189.495 205.896)"/><path d="M7196.3 2987.6c-4.39 0-8.83 1-13.06 3-12.89 6.1-315.54 154.5-305.79 585.8.37 16.7 13.97 29.9 30.52 29.9h.7c16.87-.4 30.23-14.4 29.85-31.3-8.86-392.1 268.08-527.9 270.87-529.2 15.25-7.2 21.76-25.4 14.54-40.7-5.23-11-16.2-17.5-27.63-17.5" style="fill:#211d1d;fill-opacity:1;fill-rule:nonzero;stroke:none" transform="matrix(.03528 0 0 -.03528 -189.495 205.896)"/><path d="M7929.66 2960.2s-157.08-65.8-300.9-273.1z" style="fill:#307956;fill-opacity:1;fill-rule:nonzero;stroke:none" transform="matrix(.03528 0 0 -.03528 -189.495 205.896)"/><path d="M7628.74 2656.6c-6.01 0-12.07 1.8-17.38 5.5-13.86 9.6-17.3 28.6-7.69 42.5 147.2 212.1 307.43 281 314.18 283.8 15.56 6.5 33.46-.8 39.98-16.3 6.51-15.6-.78-33.5-16.3-40-1.62-.7-151.39-66-287.66-262.4-5.94-8.5-15.45-13.1-25.13-13.1" style="fill:#211d1d;fill-opacity:1;fill-rule:nonzero;stroke:none" transform="matrix(.03528 0 0 -.03528 -189.495 205.896)"/><path d="M8232.82 3110.7s741.38-424.9 795.77-850.9c37.59-294.4-199.08-656.4-348.95-851.9-56.9-74.3-184.05-71.7-254.51 5.8-167.43 183.9-434.11 494.3-486.59 658.4-77.67 243 179.01 942.5 294.28 1038.6" style="fill:#69ac33;fill-opacity:1;fill-rule:nonzero;stroke:none" transform="matrix(.03528 0 0 -.03528 -189.495 205.896)"/><path d="M8240 3059.6c-47.53-61.6-123.95-222.2-188.32-425.2-78.14-246.5-106.1-452.1-74.82-550 37.61-117.7 207.37-346.3 478.02-643.7 28.15-30.9 70.18-48.4 112.37-46.5 34.14 1.4 62.72 15 80.46 38.1 142.76 186.3 376.9 540.9 340.98 822.4-45.49 356.3-616.39 724.1-748.69 804.9m321.44-1746c-62.62 0-124.12 26.9-166.07 73-196.84 216.3-442.54 508.7-495.16 673.3-84.37 264 183.59 979 306.85 1081.7l21.48 18 24.28-14c30.98-17.7 759.41-439.9 815.69-880.7 39.57-310.1-206.64-685.4-356.93-881.5-32.03-41.8-83.4-67.2-140.94-69.6-3.06-.1-6.13-.2-9.2-.2" style="fill:#211d1d;fill-opacity:1;fill-rule:nonzero;stroke:none" transform="matrix(.03528 0 0 -.03528 -189.495 205.896)"/><path d="m8572.88 1334.1-42.25 46.6c-.04 0 45.43 47.2 41.44 188.6-2.52 89-16.9 190.3-30.8 288.4-15.56 109.6-30.25 213.2-28.25 295.5 6.65 272.4-324.31 924.3-327.65 930.8l55.98 28.6c13.95-27.3 341.55-672.7 334.51-960.9-1.88-77.1 12.46-178.2 27.64-285.2 14.15-99.8 28.79-202.9 31.4-295.4 4.83-171.2-55.16-230.7-62.02-237" style="fill:#211d1d;fill-opacity:1;fill-rule:nonzero;stroke:none" transform="matrix(.03528 0 0 -.03528 -189.495 205.896)"/><path d="M8185.63 2017.8c-13.2 0-25.48 8.4-29.84 21.6-5.44 16.5 3.52 34.2 20 39.7 284.86 93.9 263.05 394.6 261.99 407.4-1.45 17.3 11.37 32.5 28.64 34 17.26 1.6 32.47-11.3 33.98-28.6.32-3.6 27.72-362.8-304.92-472.5-3.27-1.1-6.59-1.6-9.85-1.6M8858.46 1866.3c-3.62 0-7.29.6-10.88 2-262.71 96.9-326.82 311.3-329.43 320.4-4.78 16.7 4.88 34.1 21.57 38.9 16.67 4.8 34.04-4.8 38.84-21.5 2.44-8.3 59.36-193.5 290.79-278.9 16.28-6 24.61-24.1 18.59-40.3-4.68-12.7-16.69-20.6-29.48-20.6" style="fill:#211d1d;fill-opacity:1;fill-rule:nonzero;stroke:none" transform="matrix(.03528 0 0 -.03528 -189.495 205.896)"/><path d="M8310.27 1679.1c-13 0-25.17 8.2-29.68 21.1-5.7 16.4 2.97 34.3 19.36 40 179.88 62.6 214.06 315.4 214.38 318 2.2 17.2 17.95 29.4 35.15 27.2 17.21-2.2 29.4-17.9 27.2-35.1-1.52-12-39.81-294.2-256.08-369.4-3.42-1.2-6.9-1.8-10.33-1.8" style="fill:#211d1d;fill-opacity:1;fill-rule:nonzero;stroke:none" transform="matrix(.03528 0 0 -.03528 -189.495 205.896)"/><path d="M8416.46 2671.2s89.29-118.7 293.26-208.1z" style="fill:#307956;fill-opacity:1;fill-rule:nonzero;stroke:none" transform="matrix(.03528 0 0 -.03528 -189.495 205.896)"/><path d="M8709.71 2431.6c-4.22 0-8.5.9-12.61 2.7-209.11 91.7-301.91 212.9-305.76 218.1-10.43 13.8-7.64 33.5 6.23 44 13.85 10.4 33.52 7.6 43.97-6.2 1.16-1.5 88.24-113.9 280.8-198.3 15.9-7 23.13-25.6 16.17-41.5-5.18-11.7-16.71-18.8-28.8-18.8M8115.45 2531.8h-1.39c-17.34.8-30.78 15.4-30.03 32.8 5.1 117 202.83 266.1 225.35 282.7 13.97 10.3 33.63 7.4 43.95-6.6 10.3-14 7.34-33.6-6.62-43.9-75.76-56-197.02-169.3-199.88-234.9-.74-16.9-14.65-30.1-31.38-30.1" style="fill:#211d1d;fill-opacity:1;fill-rule:nonzero;stroke:none" transform="matrix(.03528 0 0 -.03528 -189.495 205.896)"/><path d="M8234.58 3024.8s460.01 402.8 566.43 640c149.55 333.4-4.14 778.9-80.52 954.6-9.65 22.2-29 37.5-50.75 26.9-151.5-73.7-647.84-333.6-719.26-604.6-84.45-320.4 284.1-1016.9 284.1-1016.9" style="fill:#69ac33;fill-opacity:1;fill-rule:nonzero;stroke:none" transform="matrix(.03528 0 0 -.03528 -189.495 205.896)"/><path d="M8681.55 4607.3c-301.06-147.3-639.25-375-692.16-575.8-67.43-255.8 178.67-783 257.35-941.8 111.97 101.9 433.64 404.5 517.56 591.6 150.87 336.3-23.63 790.8-80.71 922.1-.68 1.6-1.38 2.8-2.04 3.9M8222.82 2961l-23.8 44.9c-15.35 29.1-374.89 714.3-287.44 1046.1 73.67 279.5 542.43 534 740.55 630.5 17.91 8.7 37.73 9.8 55.79 3.1 21.25-7.8 38.81-25.6 49.47-50.1 60.4-139 244.69-620.8 80.32-987.2-108.75-242.4-557.57-637.1-576.62-653.8z" style="fill:#211d1d;fill-opacity:1;fill-rule:nonzero;stroke:none" transform="matrix(.03528 0 0 -.03528 -189.495 205.896)"/><path d="m8257.46 3062.5-61.09 1.2c.48 25.7 12.98 632.3 129.91 864.2 21.98 43.6 49.5 95.6 78.63 150.5 57.56 108.7 122.8 231.8 169.4 335.7 53.09 118.4 85.11 229.1 85.43 230.2l58.72-16.9c-1.34-4.6-33.46-115.7-88.41-238.3-47.41-105.7-113.16-229.8-171.16-339.2-28.98-54.8-56.35-106.4-78.06-149.5-110.68-219.5-123.26-831.7-123.37-837.9" style="fill:#211d1d;fill-opacity:1;fill-rule:nonzero;stroke:none" transform="matrix(.03528 0 0 -.03528 -189.495 205.896)"/><path d="M8277.55 3591.4c-3.7 0-7.46.7-11.11 2.1-15.69 6.2-23.45 23.8-17.33 39.5 4.77 12.3 120.11 299.9 404.85 305h.56c16.61 0 30.23-13.3 30.53-30 .31-16.8-13.12-30.7-29.99-31-243.36-4.5-348.02-263.6-349.04-266.2-4.74-12-16.27-19.4-28.47-19.4M8333.28 3848.2h-2.02c-16.82 1.1-29.57 15.6-28.49 32.5.13 2.1 11.28 210.2-135.56 292.5-14.72 8.2-19.97 26.9-11.72 41.6s26.84 19.9 41.58 11.7c180.73-101.3 167.32-339.7 166.67-349.8-1.06-16.1-14.5-28.5-30.46-28.5M8415.25 4009.2c-5.64 0-11.35 1.6-16.45 4.9-14.18 9.1-18.33 27.9-9.25 42.1 4.74 7.4 118.2 181.6 304.81 188.1 16.88.7 31-12.6 31.58-29.5.59-16.9-12.61-31-29.47-31.6-154.15-5.3-254.48-158.4-255.48-160-5.84-9-15.69-14-25.74-14M8245.09 3430.4c-14.2 0-26.91 9.9-29.88 24.3-.32 1.6-33.08 152.1-170.63 248.9-13.79 9.7-17.1 28.7-7.39 42.5s28.76 17.1 42.56 7.4c158-111.2 193.85-279.4 195.3-286.5 3.37-16.5-7.3-32.6-23.82-36-2.06-.4-4.12-.6-6.14-.6M8246.11 3294.8c-3.1 0-6.25.5-9.36 1.5-16.06 5.2-24.89 22.4-19.72 38.5 48.58 151 249.76 201.9 258.3 204 16.38 4 32.92-6 36.94-22.4 4.01-16.4-5.99-32.9-22.35-36.9-1.77-.5-176.65-45.1-214.73-163.5-4.17-12.9-16.17-21.2-29.08-21.2" style="fill:#211d1d;fill-opacity:1;fill-rule:nonzero;stroke:none" transform="matrix(.03528 0 0 -.03528 -189.495 205.896)"/><path d="M8242.82 3075s233.08-191 348.02-171.4 313.71 93.6 328.39 147.3-123.37 217.8-261.19 244.4c-99.77 19.3-320.52-20.6-415.22-220.3" style="fill:#84c645;fill-opacity:1;fill-rule:nonzero;stroke:none" transform="matrix(.03528 0 0 -.03528 -189.495 205.896)"/><path d="M8271.63 3081.3c72.45-56.8 235.35-168.9 315.36-155.1 126.43 21.6 300.34 94.9 310.14 130.7 1.26 4.6-.99 20.8-18.56 49.1-42.29 68-135.47 149.5-224.88 166.8-81.32 15.8-286.12-11.9-382.06-191.5m302.01-202c-124.41 0-322.02 158.9-345.34 178l-13.85 11.3 7.67 16.2c94.26 198.8 318.39 256.6 440.27 233 102.16-19.7 207.68-111.4 255.09-187.6 21.75-35 29.77-63.7 23.85-85.4-20.79-76-259.44-148.9-346.63-163.8-6.74-1.1-13.78-1.7-21.06-1.7" style="fill:#211d1d;fill-opacity:1;fill-rule:nonzero;stroke:none" transform="matrix(.03528 0 0 -.03528 -189.495 205.896)"/><path d="M8250.49 3078.9s179.41 64.8 263.34 56.8c83.93-8.1 177.37-34.2 208.55-24.7z" style="fill:#47b173;fill-opacity:1;fill-rule:nonzero;stroke:none" transform="matrix(.03528 0 0 -.03528 -189.495 205.896)"/><path d="M8250.5 3056c-9.39 0-18.19 5.8-21.55 15.1-4.3 11.9 1.87 25.1 13.76 29.4 7.53 2.7 185.21 66.4 273.3 58 34.35-3.3 70.36-9.6 102.13-15.1 39.39-6.9 84-14.6 97.54-10.5 12.08 3.7 24.91-3.1 28.61-15.2s-3.11-24.9-15.21-28.6c-22.88-7-58.24-1.4-118.79 9.2-30.95 5.3-66.05 11.4-98.63 14.6-77.8 7.3-251.65-54.9-253.39-55.5-2.57-1-5.19-1.4-7.77-1.4" style="fill:#211d1d;fill-opacity:1;fill-rule:nonzero;stroke:none" transform="matrix(.03528 0 0 -.03528 -189.495 205.896)"/><path d="M8244.27 3072.1s-167.3 154.2-314.49 141.6c-147.19-12.7-321.81-159.3-321.69-202.9.13-43.6 214.74-207.5 319.88-207.6 105.14-.2 319.29 159 316.3 268.9" style="fill:#84c645;fill-opacity:1;fill-rule:nonzero;stroke:none" transform="matrix(.03528 0 0 -.03528 -189.495 205.896)"/><path d="M7631.15 3011.2c11.1-34.9 200.77-185 296.85-185.1h.12c57.04 0 159.27 57.3 227.99 127.8 38.23 39.3 61.33 78 64.82 108.2-33.83 28.9-170.85 138.8-289.2 128.7-134.87-11.5-292.81-144.9-300.58-179.6m296.97-230.9h-.19c-111.33.1-342.57 168-342.75 230.4-.18 63.3 191.72 212.8 342.64 225.8 155.51 13.4 324.84-141 331.97-147.6l7.11-6.5.27-9.7c1.54-56.7-41.7-113.2-78.24-150.7-66.96-68.8-181.08-141.7-260.81-141.7" style="fill:#211d1d;fill-opacity:1;fill-rule:nonzero;stroke:none" transform="matrix(.03528 0 0 -.03528 -189.495 205.896)"/><path d="M8231.13 3064.1s-126.55-41.1-248.29-36.6c-121.75 4.6-151.75-25.8-151.75-25.8z" style="fill:#47b173;fill-opacity:1;fill-rule:nonzero;stroke:none" transform="matrix(.03528 0 0 -.03528 -189.495 205.896)"/><path d="m7846.58 2984.9.82.7-32.6 32.2c6.19 6.3 43.52 37.4 168.89 32.6 116.35-4.2 239.13 35.1 240.36 35.5 12.03 3.9 24.96-2.7 28.87-14.7 3.91-12.1-2.68-25-14.72-28.9-5.32-1.7-131.72-42.3-256.22-37.6-105.48 4-135.12-19.6-135.4-19.8" style="fill:#211d1d;fill-opacity:1;fill-rule:nonzero;stroke:none" transform="matrix(.03528 0 0 -.03528 -189.495 205.896)"/></svg>