<svg xmlns="http://www.w3.org/2000/svg" width="200mm" height="200mm" viewBox="0 0 200 200"><g style="display:inline"><path d="M17077.9 19070.4c-4.4 12.2 4.7 25.7 19.8 28.5 207.1 38.5 530.9 56 716.5 3.7 162-45.7 399.5-378.8 451.3-453.7 4.6-6.7-1.6-15.4-11-15.8l-1004.7-39.6z" style="fill:#fff;fill-opacity:1;fill-rule:nonzero;stroke:none" transform="matrix(.03528 0 0 -.03528 -497.716 718.958)"/><path d="m17120.7 19064.2 155.6-431.4 928 36.6c-124.1 172.6-292.8 366.1-400.5 396.4-170 47.9-474.5 35.1-683.1-1.6m102.7-510-181.4 503.3c-5.7 15.7-4.1 33.3 4.3 48.1 9.2 16 25.4 27.3 44.4 30.8 222.7 41.5 546.3 55.8 733.9 2.9 171-48.2 404.7-370.9 472.3-468.7 9.7-14 11-32.3 3.3-47.7-8.2-16.5-25.2-27.2-44.2-27.9z" style="fill:#211d1d;fill-opacity:1;fill-rule:nonzero;stroke:none" transform="matrix(.03528 0 0 -.03528 -497.716 718.958)"/><path d="M17353.9 17932.9c-116.2 150.3-356.7 337.7-393.2 461.1-26.1 88.5 56.8 507.5 105.3 681.2 1.9 6.6 11.6 9.3 17.5 5.1 141.3-100.7 232.6-233.3 282.2-386.9l94.7-734.8z" style="fill:#c9edf5;fill-opacity:1;fill-rule:nonzero;stroke:none" transform="matrix(.03528 0 0 -.03528 -497.716 718.958)"/><path d="M17092.3 19025.9c-53-205.4-114.6-554.6-94.9-621.1 19.7-66.8 118.2-165.7 213.4-261.3 55.8-56 113.3-113.7 157.7-167.8l49.6 12-89.8 697.3c-45.3 138.1-124.5 252.6-236 340.9m246.5-1136-15.1 19.6c-43.2 55.8-106.1 119-167 180.1-106.6 107.1-207.4 208.2-232.6 293.6-30.4 103 61.1 544.5 105.2 702.3 4.1 14.8 15.5 26.8 30.5 32 15.5 5.6 32.7 3.2 45.9-6.1 142.4-101.5 242.1-238.2 296.4-406.3l1-3.3 99.5-772.3z" style="fill:#211d1d;fill-opacity:1;fill-rule:nonzero;stroke:none" transform="matrix(.03528 0 0 -.03528 -497.716 718.958)"/><path d="M18275.7 18634c17.8-205.2-15.3-326.2 27.4-525.6 9-41.9 17.2-88-8.2-126.5-37.2-56.5-125.2-68.4-199.8-73.2-173.4-11.3-346.8-22.5-520.2-33.8-75.9-4.9-161.1-7.2-213.8 36.5-43.2 35.7-51.4 91.9-57.3 143.9-18.9 165.2 29.3 602.8 74.9 645.8 0 0 802.1 99.1 897-67.1" style="fill:#e4f6fa;fill-opacity:1;fill-rule:nonzero;stroke:none" transform="matrix(.03528 0 0 -.03528 -497.716 718.958)"/><path d="M17401 18665.2c-31.7-73.3-78.2-440-59.3-605.5 5.7-50 13-93.5 43.7-118.9 41.3-34.1 118.1-32.2 187-27.8l520.2 33.8c64.9 4.2 142.9 14.4 170.4 56.1 16.5 25 11 58.9 2.7 97.5-26.3 123-24.8 216.6-23.2 315.8 1 62.9 2.1 127.9-4.1 204.6-20.1 24.1-103.7 77.3-445.5 70.9-172.2-3.2-338.6-20.5-391.9-26.5m107.8-831c-64.2 0-125.7 9.4-172.1 47.8-56.9 47.1-65.3 120.4-70.8 169-17 147.9 20.7 615.7 86.6 677.9l9.1 8.5 12.4 1.6c2.1.2 205 25 416.9 29 401.1 7.6 487.7-62 517.9-115.1l4.2-7.3.7-8.3c7.4-85 6.3-154.8 5.2-222.4-1.6-94.6-3-184 21.5-298.5 8.7-40.5 21.8-101.8-13.6-155.5-45.8-69.4-141.5-84.6-229.2-90.3l-520.3-33.8c-22.8-1.4-45.8-2.6-68.5-2.6" style="fill:#211d1d;fill-opacity:1;fill-rule:nonzero;stroke:none" transform="matrix(.03528 0 0 -.03528 -497.716 718.958)"/><path d="M16573.3 17451.1c-16.8 2.1-32.5-8.6-36.4-25.1-55.6-232.2-195-648-180.3-703.9 10.7-40.5 184.3-561.3 300.3-749.7 5.7-9.3 19.2-9.1 24.6.4 99.1 174.4 211.2 363.3 196.5 561.6-.2 2.2-.6 4.4-1.1 6.6l-211.3 876.9c-3.2 13.5-14.5 23.6-28.3 25.3z" style="fill:#fff;fill-opacity:1;fill-rule:nonzero;stroke:none" transform="matrix(.03528 0 0 -.03528 -497.716 718.958)"/><path d="M16632.6 17405.3h.1zm-239-673.4v-.1zm.2-.8c12.4-45.5 163.5-497.6 275.1-703.2 92.3 162.5 183.9 330.3 171 503.6l-210.6 874.2-56.4 7c-21.4-88.7-54.3-202.6-86.2-312.7-40.9-141-96.7-333.9-92.9-368.9m275.3-803.8c-18.4 0-35.1 9.4-44.7 25.1-118.8 192.8-291.5 710.3-304.7 760-10.7 40.7 18.7 150.1 93.6 408.9 32.2 111.1 65.5 226 86.4 313.6 8.5 35.3 42.1 58.6 78.3 54.1l64-7.9c29.4-3.6 53.8-25.4 60.7-54.2l211.3-876.9c1.1-4.3 1.7-8.6 2-12.8 15.1-202.8-94.3-395.1-190.7-564.7l-10.6-18.6c-9.3-16.3-26-26.2-44.7-26.5z" style="fill:#211d1d;fill-opacity:1;fill-rule:nonzero;stroke:none" transform="matrix(.03528 0 0 -.03528 -497.716 718.958)"/><path d="M17748.5 16996.3c-66.4 240.5-271.9 695.1-313.4 730.3-60.1 51-102.3 60-177 34.9-173.9-58.5-347.7-117-521.5-175.5-76-25.5-160.1-58.1-193.1-131.2-27-59.8-11.3-129.2 4.8-192.8l153.6-605.7c11.2-44.5 24.1-91.7 57.9-122.8 50-45.8 126.8-40.8 193.9-29.3 2.1.3 4.1.8 6.1 1.6 50.9 19.1 767.1 264.4 788.7 490.5" style="fill:#c9edf5;fill-opacity:1;fill-rule:nonzero;stroke:none" transform="matrix(.03528 0 0 -.03528 -497.716 718.958)"/><path d="M17326.9 17736.8c-16.3 0-34.3-4-56.7-11.5l-521.4-175.4c-71.9-24.2-144.2-52.7-170.5-110.8-21-46.5-9.2-103.5 7-167.7l153.6-605.7c11.4-45.1 22.1-81.5 46.7-104 38.7-35.5 106.7-29.3 161.6-19.9 2.1.8 6.9 2.6 13.6 5 443.1 159.6 728.1 329.9 748.8 446.7-67.3 238.2-261.9 665.7-299.9 704.6-31.4 26.7-54.5 38.7-82.8 38.7m-452.6-1278.7c-50.1 0-100.6 10.9-140.3 47.3-43.4 39.8-58.3 98.6-69.1 141.5l-153.6 605.7c-19.1 75.5-33.7 149-2.6 217.9 38.9 86.1 131.7 123.5 215.7 151.7l521.5 175.5c86.9 29.2 142.9 18.3 213.9-42 56.5-47.9 263.4-524.1 325.5-749.3l1.9-6.8-.7-7c-18.8-196.6-445.3-390-799.8-517.6-6.3-2.3-10.8-3.9-13.5-5-4.2-1.5-8.5-2.7-13-3.5-26.9-4.6-56.3-8.4-85.9-8.4" style="fill:#211d1d;fill-opacity:1;fill-rule:nonzero;stroke:none" transform="matrix(.03528 0 0 -.03528 -497.716 718.958)"/><path d="M16671.5 15972.6c-.8-10.4 8.1-18.7 18.4-17.2 225.8 32.6 683.7 45.2 845 185.6 139.8 121.5 193.4 698.8 203.2 820.3.9 10.6-9.5 18.4-19.4 14.7l-970.4-359.3c-15.7-5.8-26.6-20.2-27.9-36.8z" style="fill:#e4f6fa;fill-opacity:1;fill-rule:nonzero;stroke:none" transform="matrix(.03528 0 0 -.03528 -497.716 718.958)"/><path d="m17696.9 16927.2-935.4-346.3c-1.7-.6-2.9-2.2-3.1-4.1l-46.6-579.9c44.1 5.6 95 10.9 148.4 16.3 224.7 23.1 532.4 54.6 649.7 156.6 96 83.5 159.7 451.8 187 757.4m-1025.4-954.6h.1zm16-55.6c-13.7 0-26.9 5.2-37.1 14.7-12.1 11.4-18.3 27.4-16.9 44l48.8 607.2c2.6 31.4 23.2 58.7 52.7 69.6l970.4 359.3c17 6.3 35.7 3.5 50.1-7.4s22.1-28.1 20.7-46.1c-13.5-166.1-68.7-717.8-216.2-846.1-135.5-117.9-444.1-149.5-692-174.9-64-6.6-124.5-12.8-172.6-19.7-2.7-.4-5.3-.6-7.9-.6" style="fill:#211d1d;fill-opacity:1;fill-rule:nonzero;stroke:none" transform="matrix(.03528 0 0 -.03528 -497.716 718.958)"/><path d="M16905.7 17819.1c-6.6-162.2-13.8-355.8-67.9-508.9-15.2-43.2-32.9-86.7-63.5-120.6-36.7-40.7-88.4-63.8-138.6-85.8-136.2-59.8-272.4-119.7-408.6-179.5-38.4-16.9-81.8-33.9-121-18.8-66.8 25.8-68.8 121.4-42.4 188.1 26.3 66.7 69.6 134.7 52.5 204.3l480.9 625.2z" style="fill:#c9edf5;fill-opacity:1;fill-rule:nonzero;stroke:none" transform="matrix(.03528 0 0 -.03528 -497.716 718.958)"/><path d="M16156.8 17288.1c7.8-60.5-17.5-117.1-40-167.6-6.4-14.2-12.4-27.6-17.6-40.9-15.4-39-17.5-84.2-5.1-112.3 5.7-13.1 14.2-21.7 25.8-26.2 24.8-9.6 59 3.7 91.9 18.2l408.6 179.4c46 20.3 93.7 41.2 125.5 76.4 27.1 30 43 71.3 55.9 107.8 49.1 139.1 58.1 312.8 64.6 469.2l-255.7 86.1zm-18.1-426.6c-15.2 0-30.9 2.4-46.3 8.4-30.7 11.8-54.3 34.9-68.3 66.7-24.6 56.2-14 125.2 4 171 5.9 14.9 12.5 29.7 18.9 44.1 21.9 48.8 42.5 94.9 32.1 137.1l-4.4 17.8 508.8 661.4 361.5-121.8-1.5-35.5c-6.4-159-14.5-356.9-69.7-513.3-15.3-43.3-34.7-93-71.2-133.4-42.8-47.5-100.6-72.8-151.5-95.2l-408.6-179.4c-25.5-11.2-63.4-27.9-103.8-27.9" style="fill:#211d1d;fill-opacity:1;fill-rule:nonzero;stroke:none" transform="matrix(.03528 0 0 -.03528 -497.716 718.958)"/><path d="M15763.3 18186.9c115.7 80.9 639.8 404.4 774 360.5 106.9-35 443.8-547.4 377.3-708.9-39.1-95.1-128.8-158.2-213.9-215.9-144.8-98.1-289.5-196.2-434.2-294.3-29-19.7-60.1-40.1-95.1-41.1-54.5-1.7-98.2 42.8-131.9 85.6-185 235-295.5 800.6-276.2 814.1" style="fill:#e4f6fa;fill-opacity:1;fill-rule:nonzero;stroke:none" transform="matrix(.03528 0 0 -.03528 -497.716 718.958)"/><path d="M15799.4 18165.3c5-96 109.8-565.2 270.1-768.9 24.5-31.1 61.7-71.8 100.7-71.1 23.2.7 46.7 15.4 74.9 34.6l434.1 294.3c73.1 49.5 164 111.1 200.1 198.9 8 19.5 18.8 81.9-54.3 240.5-94.1 204.1-251 401.6-299.6 417.5-16.7 5.5-92.5 12.2-364.2-130.9-154.7-81.5-300.5-173.4-361.8-214.9m369-916.4c-71.6 0-124.9 57-158.9 100.3-181.5 230.6-296.6 765-285.7 838.8 2.4 16.5 10.9 25.5 17.6 30.2 6.1 4.3 631 423.3 807.8 365.5 88.8-29.1 258.4-270.1 345.1-458.1 63-136.7 81.7-238.1 55.6-301.6-44.8-109-146.3-177.8-227.8-233l-434.2-294.3c-28.7-19.5-68.1-46.2-115.3-47.7-1.4 0-2.8-.1-4.2-.1" style="fill:#211d1d;fill-opacity:1;fill-rule:nonzero;stroke:none" transform="matrix(.03528 0 0 -.03528 -497.716 718.958)"/><path d="M16106.1 16905.5c-53.9-24-470.7 462.7-531.1 698.7 31.6 209.3 65.4 370.1 175 560.2 5.5 9.5 19.8 9.1 24.6-.7l423.9-871.9z" style="fill:#fff;fill-opacity:1;fill-rule:nonzero;stroke:none" transform="matrix(.03528 0 0 -.03528 -497.716 718.958)"/><path d="M15614 17606.4c57.1-203.5 360.9-565.1 465.6-647.7l78.6 328.7-397.5 817.5c-90.8-171.4-120-322.6-146.7-498.5m492.1-700.9h.1zm-4.2-39q-14.7 0-31.5 8.1c-106.3 51.4-473.9 491.5-532.4 720.1l-1.9 7.5 1.2 7.7c30.3 201.1 62.9 371.1 179.7 573.6 9.6 16.7 27.7 26.6 47 26 19.3-.7 36.5-11.9 44.9-29.1l430-884.2-100-417.9-17.2-7.7c-6.2-2.8-12.9-4.1-19.8-4.1" style="fill:#211d1d;fill-opacity:1;fill-rule:nonzero;stroke:none" transform="matrix(.03528 0 0 -.03528 -497.716 718.958)"/></g></svg>