<svg xmlns="http://www.w3.org/2000/svg" width="200mm" height="200mm" viewBox="0 0 200 200"><g style="display:inline"><path d="M48968.7 6984.1c-4.4 12.2 4.7 25.6 19.8 28.4 207.1 38.6 530.9 56 716.5 3.7 162-45.6 399.5-378.7 451.3-453.6 4.6-6.7-1.5-15.4-11-15.8l-1004.7-39.6z" style="fill:#fff;fill-opacity:1;fill-rule:nonzero;stroke:none" transform="matrix(.06964 0 0 -.06964 -3349.015 546.93)"/><path d="m49001.6 6983.6 160.4-444.7 947 37.3c-125.5 176.4-300.6 378.9-412.3 410.4-173.4 48.8-485.5 35-695.1-3m117.7-508.1-179.6 498.1c-5 13.8-3.6 29.1 3.8 42 8.2 14.2 22.5 24.1 39.3 27.2 221.9 41.3 544.1 55.6 730.6 3.1 168.7-47.6 401-368.5 468.2-465.8 8.4-12 9.4-27.1 2.9-40.2-7.1-14.1-21.6-23.2-38-23.9z" style="fill:#211d1d;fill-opacity:1;fill-rule:nonzero;stroke:none" transform="matrix(.06964 0 0 -.06964 -3349.015 546.93)"/><path d="M49244.7 5846.5c-116.2 150.3-356.7 337.7-393.1 461.2-26.1 88.4 56.7 507.5 105.3 681.2 1.8 6.6 11.5 9.2 17.4 5 141.3-100.6 232.6-233.2 282.2-386.8l94.7-734.8z" style="fill:#c9edf5;fill-opacity:1;fill-rule:nonzero;stroke:none" transform="matrix(.06964 0 0 -.06964 -3349.015 546.93)"/><path d="M48978.9 6952.2c-54-204.5-118.7-564.9-97.8-635.8 20.3-68.6 119.4-168.2 215.3-264.5 56.9-57.1 115.6-116 160.2-170.8l60.5 14.6-90.8 704.6c-46.9 143.4-130 261.7-247.4 351.9m253.6-1140.3-12.2 15.8c-43.4 56.1-106.5 119.5-167.5 180.7-106 106.5-206.1 207-230.8 290.5-30 101.8 61.2 541.1 105.2 698.3 3.5 12.4 13.1 22.6 25.8 27.1 13.4 4.7 28 2.7 39.2-5.3 141.1-100.5 239.9-235.9 293.7-402.5l.8-2.7.4-2.8 98.2-762.2z" style="fill:#211d1d;fill-opacity:1;fill-rule:nonzero;stroke:none" transform="matrix(.06964 0 0 -.06964 -3349.015 546.93)"/><path d="M50166.5 6547.6c17.8-205.1-15.3-326.1 27.4-525.5 9-42 17.2-88-8.2-126.6-37.2-56.5-125.2-68.3-199.8-73.1-173.4-11.3-346.8-22.5-520.2-33.8-75.9-4.9-161.1-7.2-213.8 36.4-43.1 35.7-51.3 92-57.3 144-18.9 165.1 29.3 602.7 74.9 645.7 0 0 802.1 99.2 897-67.1" style="fill:#e4f6fa;fill-opacity:1;fill-rule:nonzero;stroke:none" transform="matrix(.06964 0 0 -.06964 -3349.015 546.93)"/><path d="M49286.5 6585.7c-34.2-67.1-79.3-455.9-61.3-613.2 5.9-51.6 13.5-96.5 46.4-123.7 43.3-35.9 121.8-34 192.1-29.4l520.2 33.7c66.6 4.4 146.8 15 176.1 59.4 18 27.4 12.4 62.9 3.7 103.1-26.1 122.2-24.6 215.4-23 314.1 1 63.7 2.1 129.6-4.3 207.6-21.5 28.4-107.7 81.9-453 75.4-177.6-3.3-348.9-21.5-396.9-27m113.2-830.5c-62.8 0-122.7 9.1-167.5 46.1-54.6 45.2-62.8 116.8-68.2 164.2-18.2 159.1 24.9 615.6 84.4 671.7l7.3 6.9 10 1.2c2.1.3 204.6 25.1 416.1 29.1 298.2 5.5 465.5-30.9 511.4-111.5l3.4-5.8.6-6.8c7.3-84.6 6.2-154.2 5.1-221.6-1.5-95.1-3-184.9 21.7-300.2 8.4-39.3 21.2-98.7-12.6-149.9-43.9-66.7-137.6-81.4-223.5-87l-520.2-33.8c-22.7-1.4-45.5-2.6-68-2.6" style="fill:#211d1d;fill-opacity:1;fill-rule:nonzero;stroke:none" transform="matrix(.06964 0 0 -.06964 -3349.015 546.93)"/></g></svg>