<svg xmlns="http://www.w3.org/2000/svg" width="200mm" height="200mm" viewBox="0 0 200 200"><path d="M4333.65 32342.7c-386.37 20.9-1369.34-2.2-1505.18 460.9 135.84-463.1 1118.81-440 1505.18-460.9m1850.33 3332.7c3.38 288.7 6.05 578.5 12.46 867.9-6.41-289.4-9.08-579.2-12.46-867.9m94.64 4165.9c.35 25.8.55 51.6.55 77.2 0-25.6-.2-51.4-.55-77.2m-1753.66 1629.8c-348.22 0-591.53 73.4-718.1 199.5-17.79-99.7-21.93-72.6-87.05-165 140.36 199 132.38 415.1 141.55 648.3 16.97 432 61.12 886.1 39.81 1317.4-8.87 179.6-166.33 481.6 81.07 585.3 25.9 10.8 58.2 15.2 94.5 15.2 145.7 0 355.71-70.2 473.9-71.9 65.03-1 130.95-5.2 196.61-5.2 54.33 0 108.47 2.9 161.77 12.7 75.01 13.8 138.72 58.4 210.26 58.4 20.58 0 41.81-3.7 64.14-12.9 221.42-91 109.99-324.9 87.45-483.6-61.86-435.7 28.32-921.6 34.83-1361.3 2.95-199.5-14.2-396.2 61.45-578.6-215.63-61.3-447.47-139.7-679.9-153.4-56.38-3.3-110.51-4.9-162.29-4.9m884.54 74.5-.36.6c.11-.2.25-.4.36-.6m-.79 1.3c-.07.1-.14.2-.21.4.07-.2.14-.3.21-.4m-.82 1.4c-.02 0-.04 0-.06.1.02 0 .05-.1.06-.1" style="fill:#f9fdfc;fill-opacity:1;fill-rule:nonzero;stroke:none" transform="matrix(.01492 0 0 -.01492 31.994 673.633)"/><path d="M6196.44 36543.3c3.72 167.9 8.7 335.7 15.8 503.1 36.75 864.9 33.72 1731.7 61.48 2597.3 2.13 66.5 4.01 132.4 4.9 197.6-.89-65.2-2.77-131.1-4.9-197.6-27.76-865.7-24.73-1732.4-61.48-2597.3-7.1-167.4-12.08-335.2-15.8-503.1m82.73 3375.2c.02 435.1-57.37 837.8-392.53 1183-151.96 156.5-360.63 252-476.4 442.9 115.77-190.9 324.44-286.4 476.4-442.9 335.16-345.2 392.55-747.9 392.53-1183m-3091.78 1110c151.46 179.3 379.63 273.5 520.73 461.1-141.1-187.6-369.26-281.8-520.73-461.1m2222.85 515.9c-.25.4-.49.8-.74 1.2.25-.4.49-.8.74-1.2m-1.1 1.8c-.14.2-.28.5-.43.7.15-.2.29-.5.43-.7m-.64 1.1c-.21.3-.4.6-.61 1 .2-.4.41-.7.61-1m-.67 1.1c-15.9 26.6-29.33 53.7-40.68 81h.08c11.34-27.3 24.7-54.3 40.6-81" style="fill:#e4f6f4;fill-opacity:1;fill-rule:nonzero;stroke:none" transform="matrix(.01492 0 0 -.01492 31.994 673.633)"/><path d="M4553.93 32337c-73.56 0-147.02 1.8-220.28 5.7-386.37 20.9-1369.34-2.2-1505.18 460.9-3.26 11.1-6.03 22.5-8.3 34.2-29.36 151.5-39.44 316.4-39.49 485.9-.1 320.7 35.69 657.4 44.57 949.3 8.37 274.8 154.26 444.3 154.01 709.8-.01 8-.15 16.1-.43 24.3-6.87 199.9-13.02 399.8-17.07 599.8-8.92 442.6-21.57 885.2-29.3 1327.7-15.1 866.2-40.14 1732.3-51.82 2598.6-1.78 132.3-6.33 265.4-6.3 397.5.07 392.2 40.43 775.2 313.05 1097.8 151.47 179.3 379.63 273.5 520.73 461.1 3.97 5.3 7.86 10.6 11.69 16 65.12 92.4 69.26 65.3 87.05 165 126.57-126.1 369.88-199.5 718.1-199.5 51.78 0 105.91 1.6 162.29 4.9 232.43 13.7 464.27 92.1 679.9 153.4 11.35-27.3 24.78-54.4 40.68-81 .02-.1.04-.1.06-.1.21-.4.4-.7.61-1 .07-.2.14-.3.21-.4.15-.2.29-.5.43-.7l.36-.6c.25-.4.49-.8.74-1.2 115.77-190.9 324.44-286.4 476.4-442.9 335.16-345.2 392.55-747.9 392.53-1183 0-25.6-.2-51.4-.55-77.2-.89-65.2-2.77-131.1-4.9-197.6-27.76-865.6-24.73-1732.4-61.48-2597.3-7.1-167.4-12.08-335.2-15.8-503.1-6.41-289.4-9.08-579.2-12.46-867.9-2.61-222.9-6.45-445.6-11.28-668.5-.09-4.5-.14-8.9-.14-13.4.16-248.7 153.85-427.1 153.74-671.6v-1.5c-.12-36.4-.17-72.8-.17-109.2-.02-309.5 3.44-618.9 3.5-928.4.01-42.4-.04-84.9-.18-127.4 0-1.1-.01-2.1-.01-3.2-.01-71.9 7.16-146.6 7.18-218.9.03-111.8-17.01-217.7-104-298.6-204.81-190.3-626.64-224.8-889.18-250-261.35-25.1-526.06-47.7-789.51-47.7" style="fill:#dff4f1;fill-opacity:1;fill-rule:nonzero;stroke:none" transform="matrix(.01492 0 0 -.01492 31.994 673.633)"/><path d="M3938.18 41227.9s-685.84-627.4-685.84-1357 0-2889.3 43.78-3473 58.37-1765.6 58.37-1765.6l627.47-146s-43.78 5121.9 43.78 5545.1c87.55 423.2 262.66 1240.3-87.56 1196.5M5791.43 35026.2l-1.7.1c-48.34.9-86.79 40.8-85.87 89.2l97.28 5117c.92 48.3 41.07 86.2 89.21 85.8 48.34-.9 86.79-40.8 85.87-89.2l-97.28-5117c-.91-47.7-39.93-85.9-87.51-85.9M3198.84 34671.2s-87.55-496.2-77.82-802.6c9.72-306.5 9.72-1342.5 9.72-1342.5s233.48-102.1 335.63-121.6c102.14-19.5 330.75-43.8 330.75-43.8l43.78 2149.9-379.4 87.6z" style="fill:#fff;fill-opacity:1;fill-rule:nonzero;stroke:none" transform="matrix(.01492 0 0 -.01492 31.994 673.633)"/><path d="M4733.78 34393.9c-484.2 0-1076.61 85-1602.49 274.4-14.02 5.1-21.3 20.6-16.25 34.6 5.06 14 20.55 21.3 34.55 16.2 862.04-310.6 1901.87-338.2 2332.24-169.1 13.82 5.5 29.54-1.4 34.99-15.3 5.46-13.8-1.38-29.5-15.26-35-174.89-68.7-447.73-105.8-767.78-105.8" style="fill:#231f20;fill-opacity:1;fill-rule:nonzero;stroke:none" transform="matrix(.01492 0 0 -.01492 31.994 673.633)"/><path d="M4076.42 44044.9c-32.69 0-61.4-3.8-83.73-13.2-164.32-68.8-127.2-237.6-91.3-400.7 12.55-57 24.4-110.9 26.74-158.4 15.25-308.6-2.99-631.1-20.63-942.9-7.03-124.3-14.29-252.8-19.17-376.9-.92-23.3-1.66-46.5-2.4-69.4-6.74-209.7-13.11-407.6-144.07-593.3-78-110.6-185.35-190.1-289.16-267-86.05-63.7-175.03-129.6-244.7-212-323.28-382.6-313.05-863-303.16-1327.7 1.07-50 2.13-100 2.8-149.8 6.7-496.9 17.98-1002 28.88-1490.6 8.11-363.1 16.49-738.6 22.93-1107.9 4.4-252 10.5-508.2 16.39-756 4.47-187.3 9.08-381.1 12.91-571.6 3.51-173.4 8.77-358.3 17.06-599.5 5.19-151-36.35-272.7-76.51-390.5-35.93-105.2-73.07-214.1-77.06-345.3-3.64-119.6-11.63-244.5-20.1-376.6-23.14-361.3-47.06-734.9 14.54-1052.7 81.98-422.9 899.04-451.7 1338-467.1 55.01-1.9 106.98-3.8 150.42-6.1 336.9-18.2 681.58 10.7 1005.77 41.8l26.16 2.5c261.14 24.9 655.78 62.6 847.22 240.5 105.91 98.4 99.07 238.6 91.82 387-1.84 37.5-3.74 76.3-3.61 114 .63 195.3-.49 393.9-1.57 585.9-1.07 189.8-2.17 386-1.6 579.1.36 117.7-36.12 218.6-74.75 325.4-40.2 111.1-81.77 226-78.83 361.6 4.98 229.8 8.78 454.6 11.27 668.2l1.61 140.3c4.57 404.1 9.29 822 26.69 1231.5 20.69 487.2 28.89 983.4 36.83 1463.2 6.15 371.7 12.5 756 24.62 1133.9 19.04 593.6 2.96 1044.2-379.45 1438.1-57.18 58.9-124.4 110.3-189.42 160-106.63 81.6-216.9 166-290.71 287.7-109.38 180.3-108.76 379.2-108.14 571.4.11 35.1.22 70.4-.3 105.8-2.27 153.4-15.09 316.4-27.49 474-23.43 297.8-47.65 605.7-7.07 891.5 4.5 31.7 12.19 65.3 20.33 100.8 32.57 142.2 66.24 289.3-91.33 354.1-57.09 23.5-106.43 4.6-163.59-17.4-30.17-11.5-61.36-23.5-95.64-29.8-92.84-17.1-187.82-13.7-279.7-10.4-28.09 1-56.12 2-83.99 2.5-57.49.8-133.33 16.6-213.62 33.4-88.3 18.4-184.83 38.6-260.19 38.6M4553.38 32310c-73.85 0-147.66 1.8-221.19 5.8-42.93 2.3-92.27 4-149.4 6-453.97 16-1298.97 45.7-1389.12 510.8-62.91 324.7-38.77 701.8-15.41 1066.4 8.43 131.7 16.4 256.1 20.01 374.8 4.24 139.3 42.72 252.1 79.93 361.2 40.37 118.3 78.5 230.1 73.65 371.1-8.3 241.5-13.57 426.6-17.07 600.3-3.84 190.5-8.45 384.1-12.91 571.4-5.9 247.9-12 504.2-16.4 756.3-6.44 369.3-14.82 744.7-22.93 1107.7-10.9 488.7-22.18 993.9-28.88 1491-.67 49.8-1.74 99.6-2.8 149.5-10.11 474.6-20.56 965.5 315.9 1363.6 73.73 87.3 165.27 155.1 253.81 220.6 105 77.8 204.18 151.2 277.17 254.7 121.64 172.4 127.76 362.6 134.23 563.9.74 23.1 1.49 46.4 2.41 69.8 4.9 124.6 12.18 253.3 19.22 377.9 17.56 310.4 35.71 631.4 20.61 937.2-2.12 42.9-13.5 94.6-25.55 149.4-36.84 167.4-82.7 375.8 123.16 462.1 89.28 37.4 234.95 7 375.82-22.4 77.69-16.2 151.08-31.5 203.41-32.3 28.24-.4 56.63-1.4 85.11-2.4 88.96-3.2 180.95-6.5 267.97 9.5 29.4 5.4 58.23 16.5 86.12 27.2 62.22 23.8 126.55 48.4 203.44 16.8 199.87-82.2 157.48-267.3 123.42-416-7.88-34.4-15.33-66.9-19.51-96.4-39.73-279.9-15.75-584.8 7.44-879.6 12.46-158.5 25.36-322.4 27.65-477.5.53-35.7.42-71.3.3-106.8-.61-193.3-1.18-375.9 100.32-543.2 68.53-113 169.97-190.6 277.36-272.8 66.56-50.9 135.4-103.6 195.34-165.3 427.94-440.7 410.27-991.5 394.68-1477.5-12.1-377.4-18.45-761.5-24.59-1133-7.95-480.2-16.16-976.7-36.88-1464.6-17.36-408.6-22.08-826.1-26.64-1229.9l-1.6-140.2c-2.51-213.8-6.3-438.8-11.29-668.7-2.72-125.6 35.33-230.8 75.63-342.2 38.51-106.5 78.35-216.6 77.97-343.8h-27 27c-.59-192.9.51-389 1.58-578.7 1.09-192.1 2.21-390.9 1.58-586.4-.12-36.3 1.74-74.3 3.54-111.2 7.53-154.2 15.33-313.6-108.98-429.2-204.85-190.4-610.46-229-878.86-254.6l-26.12-2.5c-255.8-24.6-524.39-47.8-792.65-47.8" style="fill:#231f20;fill-opacity:1;fill-rule:nonzero;stroke:none" transform="matrix(.01492 0 0 -.01492 31.994 673.633)"/><path d="M5939.37 37835.8c-2.92-.7-5.69-1.4-8.61-2.3-58.67-15.5-117.33-30.1-175.98-43.6-609.82-141.7-1228.24-178.9-1853.81-95.9-232.45 30.8-750.92 28.9-800.38 317.1-42.9 249.1-6.42 550.1-9.49 802.4-2.19 182.9-76.17 569.7 44.8 709.3 103.31 119.6 285.28 48.5 418.36 30.7 183.28-24.7 367.43-42.2 551.59-58.4 358.68-31.8 709.62-28.3 1068.3 1.9 158.47 13.3 316.94 27 474.54 48.6 44.65 6.1 92.51 16.6 139.94 23.5 61.58 8.9 122.57 11.8 174.96-8.5 37.94-14.6 71.21-41.5 97.04-87.1 59.82-105.9 24.51-301.9 26.41-425.3 2.48-151.2 4.82-302.4 4.38-453.7-.44-193.4 82-696.1-152.05-758.7" style="fill:#c03222;fill-opacity:1;fill-rule:nonzero;stroke:none" transform="matrix(.01492 0 0 -.01492 31.994 673.633)"/><path d="m3247.48 39593.6 4.86-1775.4 316.17-92.4 393.99-38.9 29.19 1824-437.44 42.5zM5963.59 39560.6l-32.83-1727.1c-58.67-15.5-117.33-30.1-175.98-43.6l33.85 1779.2z" style="fill:#c7616f;fill-opacity:1;fill-rule:nonzero;stroke:none" transform="matrix(.01492 0 0 -.01492 31.994 673.633)"/><path d="M3341.47 39032c6.29-5.7 11.66-18.2 16.07-37.4 4.4-19.2 13.23-70.7 26.47-154.5 18.91-117.2 33.08-197 42.54-239.2 15.12-59.2 35.44-118 60.97-176.3 25.52-58.3 43.63-87.4 54.35-87.4l.95.5.94.4q13.23 9.45 48.69 118.2c23.62 72.5 45.2 150.9 64.74 235.4 15.12 64.9 33.87 132.6 56.25 203.2 22.36 70.6 37.65 109.7 45.85 117.2 6.92 6.3 14.79 9.5 23.63 9.5 8.18 0 16.37-3.3 24.57-10 8.18-6.6 12.29-15.9 12.29-27.8 0-15.8-11.98-62.1-35.92-139-23.32-73.1-40.33-134.6-51.04-184.3-10.72-49.2-26.79-109.8-48.22-182-21.42-72.2-37.8-120.8-49.15-146-22.06-47.9-46-75.7-71.84-83.2-7.57-1.9-14.82-2.9-21.74-2.9-20.79 0-42.23 11.4-64.28 34.1-27.1 26.4-55.15 79-84.12 157.8-22.08 58.6-38.76 112.5-50.1 161.7-11.35 49.1-23.33 122.2-35.92 219.3-1.9 11.9-4.42 31-7.57 57.2-3.16 26.1-5.36 43-6.61 50.5-5.06 34.7-7.57 58-7.57 70 0 17 4.09 28.8 12.29 35.4 8.18 6.7 15.43 10 21.75 10 6.28 0 13.53-3.5 21.73-10.4M4042.78 38689c-23.33 5.1-42.23 7.6-56.72 7.6-31.52 0-60.5-27.7-86.97-83-15.76-32.7-23.63-77.4-23.63-133.9 0-32.1 4.09-61.7 12.29-88.7 7.56-25.2 18.74-47.9 33.56-68.4 14.8-20.4 30.39-34.4 46.79-42 13.23-6.9 29.31-10.3 48.21-10.3 34.65 0 63.64 10.3 86.96 31.1 18.27 15.1 34.18 41 47.74 77.8 13.55 36.8 22.53 78.8 26.94 125.9q1.89 14.25 1.89 38.7c0 34.6-11.67 64.4-34.98 89.6-14.5 16.3-29.15 28.5-43.95 36.3-14.82 7.9-34.19 14.3-58.13 19.3m-56.72 85.1c1.25 0 3.78.2 7.56.5 3.79.3 6.62.4 8.5.4 52.95 0 97.05-10.3 132.35-31.1 16.38-9.5 36.23-26.4 59.55-50.6 23.31-24.3 38.12-43.4 44.43-57.2 13.23-29 19.85-65.9 19.85-110.6 0-51.7-8.36-103.8-25.05-156.4-16.71-52.7-38.61-92.8-65.7-120.6-18.91-19.5-42.53-34.6-70.89-45.3s-57.05-16.1-86.03-16.1q-41.595 0-70.89 13.2c-59.24 26.5-103.68 84.2-133.28 173-7.56 22.1-11.35 48.2-11.35 78.5v23.6c0 46 2.2 78.5 6.62 97.4 4.4 22.6 14.32 48.6 29.77 77.9 15.44 29.3 30.4 51.6 44.91 66.7 33.39 34.6 69.95 53.5 109.65 56.7M4659.79 38632.5c-10.85 4.1-24.46 5.8-40.83 5.3-22.68-.8-46.16-5.6-70.46-14.6-24.29-9-42.53-20-54.72-32.9-35.34-37.7-53.84-98.4-55.49-182.1-.54-22.7-.7-36.5-.54-41.5.54-16.4 3.96-34.2 10.27-53.5 9.72-27.4 22.58-49.4 38.59-66.2 15.99-16.8 33.8-26.1 53.41-27.9 1.25 0 2.99-.1 5.21-.4 2.21-.2 3.94-.3 5.21-.3q58.575 1.95 135.69 101.7 23.505 32.85 43.62 54.3l16.45 17.5.85 60.4c1.29 56.7 1.82 88.8 1.57 96.3l-1.14 34.9-34.76 21.5c-23.14 13.7-40.8 22.9-52.93 27.5m133.2 292.8c7.31 7.9 15.37 11.9 24.2 12.2 11.34.4 21.33-6.3 29.97-19.8 4.01-6.9 6.11-13.4 6.32-19.7.04-1.3-.94-10.1-2.91-26.6-9.39-79.1-16.29-195-20.74-347.8-2.3-64.3-2.49-125.8-.56-184.4 1.69-51.7 4.93-92.5 9.7-122.6 4.18-31.4 6.42-51.5 6.7-60.3q.75-22.8-7.44-32.4c-5.44-7.1-14.78-10.9-28-11.4-8.2-.2-15.82 1.4-22.86 5-15.39 7.7-25.5 37-30.31 87.9-3.54 30.8-5.68 47.7-6.41 50.8l-.98.9c-4.4-.1-17.89-12.2-40.42-36.3-20.06-22.7-38.11-39.5-54.13-50.5-16.05-10.9-36.56-20.2-61.51-28-13.1-4.2-26.26-6.5-39.49-7-30.87-1-60.77 7.4-89.73 25-28.95 17.6-52.15 42.3-69.58 73.8-15.44 28.5-25.32 51.5-29.69 69.1-4.36 17.5-7.15 45.1-8.4 82.9-1.86 75.6 7.81 136.8 28.98 183.5 16.44 36.5 37.1 65.2 61.96 86.2q37.26 31.5 97.23 48.6c24.36 7.1 47.23 11 68.66 11.7 35.27 1.2 72.19-9.6 110.77-32.3q21.24-13.5 29.76-13.2h.93c1.84 2 5.13 35.8 9.92 101.5 4.36 58.8 8.3 97.3 11.81 115.4 3.5 18 8.92 30.7 16.25 37.8M5069.15 38972.3c11.34 0 20.16-3.1 26.47-9.4.62-.7 1.72-1.6 3.31-2.9 1.56-1.2 2.36-2 2.36-2.3 0-.4.47-1.5 1.42-3.3.94-1.9 1.42-4.2 1.42-6.7s.15-5.8.46-9.9.48-9.3.48-15.6c0-10.1-1.58-67.7-4.73-173-1.89-59.8-2.83-107.7-2.83-143.7 0-18.2.31-27.7.94-28.3 0-.6.62-1 1.89-1 6.93 0 40.65 27.8 101.15 83.2 33.39 29.6 66 55.2 97.84 76.6 31.81 21.4 53.08 32.1 63.8 32.1 23.31 0 34.98-10.4 34.98-31.2 0-10-2.84-18.2-8.52-24.5-5.66-6.4-20.79-18.3-45.37-36-28.99-20.8-61.44-47.9-97.36-81.3-39.08-36.5-63.03-58.2-71.84-65.2-8.83-6.9-20.18-18.6-34.03-35-13.87-16.4-20.79-26.4-20.79-30.2 0-15.1 46.93-53.3 140.84-114.4 59.23-38.4 97.51-64.4 114.85-78 17.33-13.5 25.99-25.3 25.99-35.4 0-3.8-2.21-10.1-6.61-18.9-6.94-13.3-16.39-19.9-28.36-19.9q-23.64 0-76.56 36c-11.99 8.8-40.66 27.4-86.03 55.7-45.37 28.4-74.99 48.2-88.85 59.6-11.98 9.4-18.59 14.2-19.85 14.2-2.53 0-4.42-21.8-5.67-65.3-.64-30.8-1.75-50.1-3.31-57.6-1.59-7.6-4.89-14.2-9.93-19.9-7.56-8.8-17.02-13.2-28.36-13.2-10.72 0-20.48 4.4-29.3 13.2l-12.29 12.3 3.78 149.4c6.93 305.6 14.19 484.9 21.75 537.8 3.14 23.3 7.56 37.8 13.23 43.5s13.54 8.5 23.63 8.5M5750 38801.1c-38.39-2-84.68-32.9-138.88-92.7-25.64-27.9-44.04-52-55.25-72.5-11.2-20.5-19.22-44.5-24.04-71.9-3.42-18.5-4.56-38.1-3.44-58.8 1.66-30.9 8.34-58.1 20.03-81.8 11.69-23.6 26.6-39.7 44.74-48.2 11-5.1 22.78-7.3 35.38-6.6 24.54 1.3 50.31 11.9 77.34 31.6 27.01 19.8 50.69 45.7 71.06 77.7 13.38 20.9 21.43 35.2 24.18 42.9 2.73 7.8 4.76 22.7 6.1 44.9 4.5 45 9.91 85.1 16.23 120.1l13.05 73.6-17.79 14.2c-12.54 10.1-24.61 17.3-36.21 21.7-11.59 4.4-22.44 6.4-32.5 5.8m-53.85 68.1c16.72 6 31.36 9.3 43.96 10 27.05 1.4 56.49-6.1 88.31-22.7l29.29-16.4 13.19 18.7c8.83 11.8 18.58 18 29.29 18.6 10.06.6 18.24-2 24.56-7.7 6.29-5.6 9.72-13.5 10.26-23.5.41-7.6-.47-14.9-2.6-21.9-10.73-35.3-21.04-83.9-30.95-145.6-12.68-80.9-17.33-152.4-13.96-214.7 1.12-20.8 3.22-42.1 6.3-64 3.18-23.9 5.11-42 5.79-54.6 1.26-23.3-3.32-38.1-13.7-44.3-7.35-4.2-14.49-6.5-21.4-6.9-11.33-.6-21.21 4.1-29.63 14.1-8.44 9.9-14.41 24-17.9 42.1-2.94 19.4-7.24 28.9-12.91 28.6-3.78-.2-8.59-4.6-14.44-13.1-6.45-9.2-22.78-22.3-48.98-39.5-26.22-17.2-46.46-27.8-60.77-31.7-12.42-3.8-25.55-6.1-39.38-6.9-28.96-1.6-53.75 1.8-74.39 10.2-25.19 10.6-48.82 30.3-70.88 59.1-22.08 28.8-36.49 59.1-43.26 90.9-2.49 11.2-4.17 24.7-5.02 40.5-2.01 37.1 0 70 6.02 98.7 14.87 75.3 54.55 140.9 119.06 196.7 29.54 25.6 44.92 38.8 46.15 39.5 21.07 18.8 47.06 34.1 77.99 45.8" style="fill:#fff;fill-opacity:1;fill-rule:nonzero;stroke:none" transform="matrix(.01492 0 0 -.01492 31.994 673.633)"/><path d="M3304.27 39563.9c-57.59 0-109.48-14.1-148-58.7-84.59-97.7-63.74-347.3-48.51-529.5 5.04-60.3 9.79-117.2 10.33-161.9 1.01-83.2-2.19-169.8-5.56-261.3-6.73-182.9-13.69-372.1 14.6-536.8 38.53-224.3 408.79-259 653.81-282 45.23-4.2 87.94-8.2 123.65-13 664.92-88.2 1347.19-40.6 2027.87 141.2l6.96-26.1-6.96 26.1c169.99 45.5 150.51 378.4 137.63 598.8-3.07 52.4-5.72 97.8-5.62 133.9.42 148.4-1.96 299.4-4.24 445.4l-.12 7.7c-.54 34.2 1.65 73 3.97 114.1 6.03 106.8 12.87 227.9-27 298.4-65.24 115.3-185.16 93.7-312.13 70.8-24.04-4.4-48.89-8.8-72.57-12.1-154.5-21.2-306.98-34.7-476.02-48.9-378.14-31.7-729.08-32.3-1072.89-1.8-167.13 14.8-361.45 32.8-552.82 58.5-27.3 3.6-55.75 9.3-85.87 15.3-54.39 10.9-109.67 21.9-160.51 21.9m1254.4-1940.2c-221.79 0-442.41 14.5-661.17 43.5-34.69 4.6-76.9 8.6-121.6 12.8-261.41 24.5-656.45 61.5-701.98 326.6-29.25 170.2-22.18 362.2-15.34 547.8 3.35 91 6.51 176.8 5.52 258.8-.52 42.7-5.19 98.7-10.14 158-16.91 202.4-37.97 454.4 61.49 569.4 93.07 107.5 241.01 78.1 359.88 54.4 29.26-5.9 56.9-11.4 82.52-14.8 190.25-25.6 383.85-43.5 550.39-58.3 340.69-30.2 688.61-29.6 1063.61 2 168.25 14.1 319.99 27.5 473.19 48.5 22.56 3.1 45.76 7.3 70.32 11.7 126.82 22.9 284.63 51.3 368.72-97.3 47.67-84.3 40.36-213.8 33.9-328-2.25-40.1-4.4-78-3.89-110.2l.12-7.7c2.3-146.3 4.67-297.6 4.25-446.5-.1-34.4 2.51-79 5.52-130.6 13.92-237.8 34.94-597.2-177.59-654-463.72-123.9-928.26-186.1-1387.72-186.1" style="fill:#231f20;fill-opacity:1;fill-rule:nonzero;stroke:none" transform="matrix(.01492 0 0 -.01492 31.994 673.633)"/><path d="M5414.04 43677.9c13.14-316.8 10.8-681.5-.72-1075.1 0-132.8-88.43-248.6-216.12-285.1-322.78-92.4-650.08-106.5-981.77-48-76.02 13.3-152.34 30.5-228.95 51.5-30.79 8.5-59.24 21.5-84.78 38.2-82.15 53.7-134.54 145.7-134.54 247.8-15.47 374.9-16.34 732.8 3.65 1066.4.15 34.9 6.71 69.6 19.12 102.2l-4.24 116.6-3.94 13.7c-4.96 17.3-18.53 52.1-18.67 70l4.08 576.5h1646.16l13.27-561.9c0-32.8-20.57-121.1-34.58-150.9l-1.17-74.5 1.32-2.1c14.3-26.3 21.88-55.6 21.88-85.3" style="fill:#c03222;fill-opacity:1;fill-rule:nonzero;stroke:none" transform="matrix(.01492 0 0 -.01492 31.994 673.633)"/><path d="M4215.43 44533.1v-2263.4c-76.02 13.3-152.34 30.5-228.95 51.5-30.79 8.5-59.24 21.5-84.78 38.2v2173.7z" style="fill:#c7616f;fill-opacity:1;fill-rule:nonzero;stroke:none" transform="matrix(.01492 0 0 -.01492 31.994 673.633)"/><path d="m3794 44525.7-3.93-549.7c.1-8.7 7.61-31.5 12.1-45 2.18-6.6 4.15-12.7 5.53-17.4l4.9-17 4.52-125.3-1.96-5.2c-11.37-29.6-17.19-60.8-17.29-92.6l-.05-1.5c-19.04-316.2-20.23-664.1-3.65-1063.6.02-122 82.04-228.9 199.46-261.1 409.44-112.3 811.89-113.6 1196.18-3.7 115.7 33.1 196.5 139.7 196.5 259.2 12.65 429.5 12.86 780.5.69 1073.9 0 26.4-6.41 51.4-18.56 73.4l-4.63 8.4 1.24 87.6 2.51 5.3c12.58 26.6 32.03 111.2 32.03 139.4l-12.65 534.9zm813.79-2317.6c-206.75 0-416.72 29-628.45 87.1-140.8 38.7-239.14 167-239.14 312.1-16.62 399.9-15.41 749.3 3.68 1067.2.21 36.2 6.57 71.7 18.89 105.7l-3.88 107.8-3.05 10.6c-1.23 4.2-3 9.5-4.94 15.4-8.28 25.1-14.63 45.6-14.83 61.9l4.33 603.7h1699.27l13.91-588.2c.01-34.8-19.08-119.9-34.7-157.4l-.88-62.1c15.07-29 22.99-61.4 22.98-94.1 12.19-293.5 11.97-645.8-.69-1075.8.02-142.7-96.89-270.6-235.63-310.3-194.93-55.7-394.36-83.6-596.87-83.6" style="fill:#231f20;fill-opacity:1;fill-rule:nonzero;stroke:none" transform="matrix(.01492 0 0 -.01492 31.994 673.633)"/><path d="M5426.43 44558.3c0-82.9-164.35-149.7-391.11-191.5-128.55-23.8-280.61-35.6-445.07-35.6-164.45 0-316.18 13.6-444.73 37.3-226.77 41.9-375.08 106.9-375.08 189.8 0 82.8 146.9 155.5 373.67 197.3 128.55 23.8 281.69 37 446.14 37 164.46 0 317.93-11.5 446.48-35.2 226.76-41.9 389.7-116.3 389.7-199.1" style="fill:#d58992;fill-opacity:1;fill-rule:nonzero;stroke:none" transform="matrix(.01492 0 0 -.01492 31.994 673.633)"/><path d="M4590.25 44765.6c-159.34 0-311.92-12.6-441.25-36.5-259.49-47.9-351.56-122-351.56-170.8 0-61.4 131.95-122.4 352.98-163.2 130.49-24.1 282.58-36.9 439.83-36.9 166.09 0 314.19 11.8 440.17 35.1 272.36 50.3 369 120.3 369 165 0 50.4-115.03 125.9-367.6 172.6-123.13 22.7-275.83 34.7-441.57 34.7m0-461.4c-160.48 0-315.97 13.1-449.64 37.8-263.54 48.6-397.17 121.4-397.17 216.3 0 131.2 247.96 196.6 395.76 223.9 132.51 24.5 288.49 37.4 451.05 37.4 168.97 0 325.06-12.3 451.38-35.7 123.81-22.8 411.79-90.6 411.79-225.6 0-117.2-224.7-183.3-413.21-218.1-129.19-23.9-280.58-36-449.96-36" style="fill:#231f20;fill-opacity:1;fill-rule:nonzero;stroke:none" transform="matrix(.01492 0 0 -.01492 31.994 673.633)"/><path d="M4590.25 44765.6c-159.34 0-311.92-12.6-441.25-36.5-259.49-47.9-351.56-122-351.56-170.8 0-61.4 131.95-122.4 352.98-163.2 130.49-24.1 282.58-36.9 439.83-36.9 166.09 0 314.19 11.8 440.17 35.1 272.36 50.3 369 120.3 369 165 0 50.4-115.03 125.9-367.6 172.6-123.13 22.7-275.83 34.7-441.57 34.7m0-461.4c-160.48 0-315.97 13.1-449.64 37.8-263.54 48.6-397.17 121.4-397.17 216.3 0 131.2 247.96 196.6 395.76 223.9 132.51 24.5 288.49 37.4 451.05 37.4 168.97 0 325.06-12.3 451.38-35.7 123.81-22.8 411.79-90.6 411.79-225.6 0-117.2-224.7-183.3-413.21-218.1-129.19-23.9-280.58-36-449.96-36" style="fill:#231f20;fill-opacity:1;fill-rule:nonzero;stroke:none" transform="matrix(.01492 0 0 -.01492 31.994 673.633)"/><path d="M4601.45 43684.8c-402.03 0-738.46 85-810.45 193.9-1.4-25.9-.7-77.7 4.2-103.9 76.74-107.2 404.31-183.8 802.05-183.8 404.49 0 728.63 65.7 795.14 171.6 1.67 19.5-1.48 53.1-2.24 85.3-106.59-94.8-421.55-163.1-788.7-163.1" style="fill:#211d1d;fill-opacity:1;fill-rule:nonzero;stroke:none" transform="matrix(.01492 0 0 -.01492 31.994 673.633)"/><path d="M3820.76 43785.7c68.41-84.1 353.38-167.7 776.5-167.7 388.29 0 701.2 62.9 768.57 153.6.16 7-.09 15.7-.51 25.2-140.08-84.3-434.32-139-763.87-139-351.72 0-653.65 62.3-783.18 156.5.55-10.6 1.37-20.5 2.49-28.6m776.5-221.7c-409.34 0-740.48 78.4-824.01 195l-3.49 4.9-1.11 5.9c-5.34 28.7-6.11 82.5-4.61 110.3l4.4 81.6 45.07-68.1c59.08-89.4 369.95-181.8 787.94-181.8 350.38 0 667.32 64.3 770.76 156.2l43.54 38.8 1.38-58.3c.28-11.4.85-22.9 1.4-33.9 1.05-21.5 1.98-40 .76-54.3l-.56-6.5-3.48-5.5c-85.26-135.9-478.45-184.3-817.99-184.3M4666.75 42521c-10.75 0-21.41.1-32.05.2-363.67 4.6-742.23 83.9-880.57 184.3l31.73 43.7c128.28-93.1 501.44-169.6 849.53-174 374.92-4.7 696.51 70.4 750.97 140.7l42.7-33c-79.71-103-443.74-161.9-762.31-161.9" style="fill:#231f20;fill-opacity:1;fill-rule:nonzero;stroke:none" transform="matrix(.01492 0 0 -.01492 31.994 673.633)"/><path d="M5976.24 34471.7s87.55-9.7 97.28-272.4c9.73-262.6 0-1381.4 0-1381.4s-38.92-97.2-126.47-126.4 29.19 1780.2 29.19 1780.2" style="fill:#fff;fill-opacity:1;fill-rule:nonzero;stroke:none" transform="matrix(.01492 0 0 -.01492 31.994 673.633)"/></svg>