<svg xmlns="http://www.w3.org/2000/svg" xml:space="preserve" width="200mm" height="200mm" viewBox="0 0 200 200"><path d="M23592.1 3061.1c-263.4.1-782.2 344.2-971.4 490.8-241.2 187-397.9 268.9-540.5 268.9-150 0-284.4-90.7-485.1-245.3-226.6-174.7-699-511.2-989.2-511.2-44.7 0-85.1 8-119.6 25.8-104.2 181.8-167.1 405-188.2 668.8-84 1055-109.3 4270.5-66 5811.5 6.3 225.7-1.3 428.8-8 608.1-19.6 524.9-32.6 871.7 315 1145 73.5 57.8 146 107.3 216.1 155.3 149.1 102 290 198.3 412.1 354.1 83.5 106.6 137.6 206.3 173.3 309.3 209.5-78 500.3-157.1 825.6-161.4 7.4-.1 14.8-.2 22.2-.2h.9c182.5.1 377.4 29.2 564.1 71.4l3.9.9c.9.2 1.7.4 2.5.6 1.9.4 3.8.8 5.6 1.3 28.1-61.9 62.1-124 102.7-188.8 129.2-206 300.3-301.4 498.4-411.9 23.2-13 46.8-26.2 70.9-39.8 384.1-217.7 384.5-590.8 385.2-1268 .1-131.1.3-279.8 3.5-437.9 30.8-1494.3 77-4667.2 31.6-5979.4l26.5-.9-26.5.9c-9.3-268.6-69.4-477.9-163.4-640.9-26.5-18.7-61.2-27-102.2-27" style="fill:#f6f4b2;fill-opacity:1;fill-rule:nonzero;stroke:none" transform="matrix(.01376 0 0 -.01376 -203.412 226.537)"/><path d="M21793.1 2496c-234.1 0-522.3 22-780.3 131.4-230 97.6-405.9 252.4-526.5 462.7 34.5-17.8 74.9-25.8 119.6-25.8 290.2 0 762.6 336.5 989.2 511.2 200.7 154.6 335.1 245.3 485.1 245.3 142.6 0 299.3-81.9 540.5-268.9 189.2-146.6 708-490.7 971.4-490.8 41 0 75.7 8.3 102.2 27-325.4-564-1057-574.9-1495.6-581.5l-47.3-.7c-33.3-.5-70.9-2.1-114.4-3.8-69.8-2.8-152.7-6.1-243.9-6.1" style="fill:#e7d96c;fill-opacity:1;fill-rule:nonzero;stroke:none" transform="matrix(.01376 0 0 -.01376 -203.412 226.537)"/><path d="M22792 12060.9c-75.1 163.4-104.6 315.7-112.8 499.4-21.4 470.6-32.5 928.4-25.2 1391.8 2.8 168.9 21 298-34.3 457.8-270.4 64.6-918.4 70.5-1185.5-4.1-44.9-186.4-52.5-400.6-45.5-585.2 16.8-446.9 24-858.8-8-1307.5-9.4-130.5-25.5-246.9-65.3-361.4 211-80.9 512.2-166.5 850.8-170.9 201.6-2.7 419.6 31.3 625.8 80.1" style="fill:#ecf9f7;fill-opacity:1;fill-rule:nonzero;stroke:none" transform="matrix(.01376 0 0 -.01376 -203.412 226.537)"/><path d="M20884.2 3364.4c-164.4 0-298.8 132-301.3 296.9l-98.2 6577.5c-6 402.9 156.3 794.9 445.3 1075.5 119.5 116 310.3 113.2 426.2-6.2 116-119.5 113.2-310.3-6.2-426.2-170.4-165.5-266.1-396.6-262.6-634.1l98.3-6577.5c2.4-166.4-130.5-303.4-296.9-305.8-1.5-.1-3.1-.1-4.6-.1m2503.4 165.7c-91.1 0-165 73.9-165 165.1v6583.7c0 91.2 73.9 165.1 165 165.1 91.2 0 165.1-73.9 165.1-165.1V3695.2c0-91.2-73.9-165.1-165.1-165.1" style="fill:#fff;fill-opacity:1;fill-rule:nonzero;stroke:none" transform="matrix(.01376 0 0 -.01376 -203.412 226.537)"/><path d="M23387.6 10436.8c-87 0-157.8-70.8-157.8-157.9V3695.2c0-87.1 70.8-157.9 157.8-157.9 87.1 0 157.9 70.8 157.9 157.9v6583.7c0 87.1-70.8 157.9-157.9 157.9m0-6913.8c-94.9 0-172.2 77.2-172.2 172.2v6583.7c0 95 77.3 172.2 172.2 172.2 95 0 172.3-77.2 172.3-172.2V3695.2c0-95-77.3-172.2-172.3-172.2" style="fill:#f8ecb3;fill-opacity:1;fill-rule:nonzero;stroke:none" transform="matrix(.01376 0 0 -.01376 -203.412 226.537)"/><path d="M21456.5 14384.2c-35.1-154-49.3-348.1-41.3-562.6 17.7-470.5 23.1-873.4-8-1310.4-18.5-259.3-63.7-453.4-239.9-678.3-122.1-155.8-263-252.1-412.1-354.1-70.1-48-142.6-97.5-216.1-155.3-347.6-273.3-334.6-620.1-315-1145 6.7-179.3 14.3-382.4 8-608.1-43.3-1541-18-4756.5 66-5811.5 45.4-568.9 285.8-949.5 714.7-1131.5 358.5-152.1 775.2-135.3 1024.2-125.3 43.5 1.7 81.1 3.3 114.4 3.8l47.3.7c565.3 8.5 1617.5 24.1 1659 1222.4l26.5-.9-26.5.9c45.4 1312.2-.8 4485.1-31.6 5979.4-3.2 158.1-3.4 306.8-3.5 437.9-.7 677.2-1.1 1050.3-385.2 1268-24.1 13.6-47.7 26.8-70.9 39.8-198.1 110.5-369.2 205.9-498.4 411.9-142.8 227.7-203.2 422.1-215.5 693.1-23.8 525.4-31.8 968.2-25.1 1393.4.5 31.5 1.5 61.6 2.5 90.8 4.2 120.1 7.8 224.4-30.7 344.1-262 57.5-874.6 65.1-1142.8-3.2m336-11941.4c-238.8 0-533.9 22.6-800.4 135.7-448.6 190.3-699.9 586-746.9 1176.1-84.2 1056.5-109.5 4275.1-66.2 5817.2 6.3 224-1.3 426.3-8 604.7-19.5 521.8-33.6 898.8 335.3 1188.8 74.9 58.8 148.1 108.9 218.9 157.3 145.7 99.6 283.3 193.7 400.3 343.1 167.8 214.2 210.9 400.3 228.7 649.2 31 434.7 25.6 835.9 7.9 1304.7-8.6 229.7 7 429.1 46.3 592.4l3.7 15.1 15 4.2c278.2 77.9 932 68.2 1198.9 4.5l14.1-3.4 4.8-13.8c46.5-134.9 42.7-247.2 38.2-377.1-1-28.9-2-58.7-2.5-89.8-6.7-424.1 1.3-865.9 25-1390.2 12-264.4 68.2-445.2 207.5-667.2 122-194.6 279.7-282.5 479.3-393.9 23.3-13 47-26.2 71.2-39.9 411-232.9 411.4-639.9 412.1-1314.1.1-131 .3-279.4 3.5-436.9 30.8-1494.8 77-4668.9 31.6-5982.4-18.7-539.2-241.9-910.2-663.5-1102.8-350.9-160.4-770.3-166.6-1047.8-170.7l-47.2-.8c-32.7-.5-70-2-113.2-3.8-70.6-2.8-154.4-6.2-246.6-6.2" style="fill:#231f20;fill-opacity:1;fill-rule:nonzero;stroke:none" transform="matrix(.01376 0 0 -.01376 -203.412 226.537)"/><path d="m21369.3 15460.8-7.5-1911.3c-.3-47.9 228.6-270.1 707-270.1 368.4 0 619.6 179 619.6 228.3v1967.1c0 58.2-47.6 105.2-105.9 104.5l-1110.1-14.5c-56.9-.8-102.8-47.1-103.1-104" style="fill:#e0c13b;fill-opacity:1;fill-rule:nonzero;stroke:none" transform="matrix(.01376 0 0 -.01376 -203.412 226.537)"/><path d="m21395.9 15460.7-7.6-1911.3c8.6-40.1 222.6-243.5 680.5-243.5 352.7 0 580.5 167.4 593 203.2v1965.7c0 21-8.2 40.7-23.1 55.5-15 14.7-34.8 22.3-55.8 22.4l-1110.1-14.5c-42.2-.5-76.7-35.4-76.9-77.6zm672.9-2207.9c-445.7 0-652.1 184.6-688.9 221.6-29.8 29.9-44.8 55.2-44.7 75.3l7.6 1911.2c.3 71 58.3 129.5 129.3 130.4l1110.1 14.5h1.8c34.6 0 67.2-13.3 92-37.7 25.1-24.9 38.9-58 38.9-93.3v-1967.1c0-73.9-279.6-254.9-646.1-254.9" style="fill:#231f20;fill-opacity:1;fill-rule:nonzero;stroke:none" transform="matrix(.01376 0 0 -.01376 -203.412 226.537)"/><path d="M21562.7 13580.5h-3.4c-163.7 4.3-129.2 284.4-129.2 284.4v1326.8c71.7-33.5 161.1-56.6 266.1-72l-7.6-1280.7s21.2-258.6-125.9-258.5" style="fill:#f6eebe;fill-opacity:1;fill-rule:nonzero;stroke:none" transform="matrix(.01376 0 0 -.01376 -203.412 226.537)"/><path d="M22752.9 15750.2v-315c0-49.3 0-203.4-90.8-239.9-99-39.7-352.8-107.9-601.6-102.2-128.5 2.9-244.6 10-346.4 24-123 16.9-225.4 43.6-304 84.4-6.8 3.5-13.4 7.1-19.7 10.8-93 54-93.2 216.8-93 264.7l8.3 259.2c.3 55.3 47.8 100.5 107.7 103.6 1.8.2 3.6.3 5.5.3l305.8 3.6 912.1 10.9c63.9.8 116.1-46.2 116.1-104.4" style="fill:#e0c13b;fill-opacity:1;fill-rule:nonzero;stroke:none" transform="matrix(.01376 0 0 -.01376 -203.412 226.537)"/><path d="M21714.1 15117.1c-6 .9-12 1.7-17.9 2.6-105 15.4-194.4 38.5-266.1 72-6.9 3.2-13.5 6.5-20 9.8.9 25 3.3 41.4 3.3 41.4v513.6l314.3-60.3-10.2-479.2s4.5-46.4-3.4-99.9" style="fill:#f6eebe;fill-opacity:1;fill-rule:nonzero;stroke:none" transform="matrix(.01376 0 0 -.01376 -203.412 226.537)"/><path d="M21305.8 15736.1h.1zm1332.5 98.3h-1.3l-1217.9-14.5c-51.1-.7-92.9-38.3-93.1-83.9v-.5l-8.3-259.1c-.8-163.5 44.6-224.3 82.8-246.6 126.2-73.2 329.9-109.1 660.4-116.5 238.2-5.2 485.5 57.4 593.7 100.9 51.8 20.8 78.1 95.2 78.1 221v315c0 20.8-8.7 40.9-24.4 56.4-17.9 17.7-43.4 27.8-70 27.8m-548.9-762c-9.8 0-19.6.1-29.4.4-337.8 7.5-547.4 45.2-679.8 122-69.1 40.1-103.7 135.1-103 282.4l8.3 259.3c.5 67.5 60.2 123 133.1 123.9l1218 14.5c37.9.5 74.4-14 100.2-39.5 23.5-23.2 36.4-53.5 36.4-85.2v-315c0-53.7 0-217.1-103.4-258.6-106.9-43-345.5-104.2-580.4-104.2" style="fill:#231f20;fill-opacity:1;fill-rule:nonzero;stroke:none" transform="matrix(.01376 0 0 -.01376 -203.412 226.537)"/><path d="M22752.9 15790.1c0-72-142.8-130-339.8-166.4-111.7-20.6-243.9-30.8-386.8-30.8s-274.7 11.7-386.4 32.4c-197.1 36.4-326 92.8-326 164.8 0 72.1 127.7 135.2 324.7 171.6 111.7 20.6 244.8 32.1 387.7 32.1s276.3-10 388-30.6c197-36.4 338.6-101 338.6-173.1" style="fill:#f3e368;fill-opacity:1;fill-rule:nonzero;stroke:none" transform="matrix(.01376 0 0 -.01376 -203.412 226.537)"/><path d="M22026.3 15967.2c-138.2 0-270.6-10.9-382.8-31.6-209.3-38.7-303-100.9-303-145.5 0-39.9 79.9-97.3 304.2-138.7 113.2-20.9 245.2-32 381.6-32 144.1 0 272.6 10.2 381.9 30.4 234.8 43.4 318.2 102.7 318.2 140.3 0 42.6-99.2 106.8-316.9 147-106.9 19.7-239.4 30.1-383.2 30.1m0-400.9c-139.6 0-274.9 11.4-391.3 32.9-230.6 42.6-347.6 106.8-347.6 190.9 0 116.3 217 173.8 346.4 197.7 115.4 21.3 251.1 32.5 392.5 32.5 147 0 282.8-10.7 392.8-31 108.4-20 360.4-79.5 360.4-199.2 0-103.9-196.7-162-361.6-192.5-112.5-20.8-244.2-31.3-391.6-31.3" style="fill:#231f20;fill-opacity:1;fill-rule:nonzero;stroke:none" transform="matrix(.01376 0 0 -.01376 -203.412 226.537)"/><path d="M20373.8 9193.8c0 89.6 83.6 155.7 170.8 134.9 249.5-59.8 770.2-155.9 1547.5-158.5 753.2-2.5 1223.3 81.2 1453.2 137.4 86.9 21.2 170.8-44 171.6-133.5l23.4-2645c.6-64.3-43.1-120.6-105.6-135.8-250.4-61.2-899.8-205.4-1492.4-214.6-612.7-9.6-1398.4 212.7-1670.6 296.1-58.3 17.8-97.9 71.6-97.9 132.5z" style="fill:#fff;fill-opacity:1;fill-rule:nonzero;stroke:none" transform="matrix(.01376 0 0 -.01376 -203.412 226.537)"/><path d="M20512 9306c-24.8 0-49-8.3-69-24.1-27.2-21.4-42.7-53.5-42.7-88.1V6607.3c0-49.6 31.8-92.6 79.2-107.2 293.2-89.8 1029-295.2 1623.5-295.2 13.1 0 26 .1 38.9.3 589.2 9.2 1235.8 152.6 1486.5 213.8 50.7 12.4 85.8 57.6 85.4 109.9l-23.4 2645c-.4 34.4-16.1 66.3-43.3 87.5-27.2 21.1-62.1 28.5-95.5 20.4-215.7-52.7-692.3-141-1459.6-138.2-784.6 2.6-1310.2 100.9-1553.6 159.2-8.8 2.1-17.6 3.2-26.4 3.2m1591.2-3154.2c-601.9 0-1343.7 207-1639.3 297.6-69.8 21.4-116.7 84.8-116.7 157.9v2586.5c0 51 22.9 98.3 62.9 129.8 39.9 31.5 91.2 42.8 140.6 30.9 241.3-57.8 762.2-155.2 1541.5-157.8 762.1-1.9 1233.5 84.5 1446.8 136.6 49.3 12.1 100.6 1.2 140.7-30s63.3-78.2 63.7-128.9l23.4-2645c.7-77.1-51-143.7-125.8-161.9-252.4-61.7-903.7-206.1-1498.3-215.4-13.1-.2-26.3-.3-39.5-.3" style="fill:#231f20;fill-opacity:1;fill-rule:nonzero;stroke:none" transform="matrix(.01376 0 0 -.01376 -203.412 226.537)"/><path d="M21278 8829.6c6.7 5.8 14.4 8.5 23 7.9q15.45-1.05 24.9-14.7c3.7-4.8 5.3-11.6 4.7-20.2-.8-12.6-4.8-37.1-11.9-73.5-13.2-67.8-23-147.8-29.3-240.2-3.9-57.4-4.7-99.2-2.4-125.3 6.4-82.9 22.2-131.5 47.1-145.9 8.9-4.6 17.4-7.2 25.4-7.8 10.4-.7 18.8 1.1 25.5 5.2q20.7 12.45 39.6 67.8c12.6 36.9 32.6 112.1 59.9 225.6 14.3 57.3 23.2 91.1 26.8 101.5s8.7 18.6 15.5 24.5q16.5 14.4 30.3 13.5c19.5-1.3 29.9-18.5 31.1-51.4 3.8-87.9 9.4-159.2 16.6-213.9 14.3-95.5 44.6-158.7 90.9-189.5l19-13.4 11.8 8.7c14.5 9.4 29.1 32.6 43.7 69.7 14.6 37 25.5 78.4 32.6 124 5 30.2 9.2 71.2 12.7 122.8 3.7 55.1 5.9 108 6.5 158.7.5 33.4 1.6 61.9 3.2 85.4.8 12.6 1.6 19.5 2.2 20.6q2.4 8.55 13.5 13.8c7.5 3.6 14.9 5.1 22.4 4.6 2.8-.2 6-1 9.3-2.4 10.1-4.7 16.6-12.5 19.6-23.4q4.5-16.35 4.8-63.9c.5-34-2.2-96.1-8.4-186.2-6-88.4-11.2-144.3-15.7-167.6q-11.25-63.3-35.4-120.9c-16.2-38.4-32.9-66.2-50.2-83.5-10-10.2-22.5-18.5-37.6-24.7q-22.65-9.15-39.9-8.1l-6 .5c-32.5 6.8-63.9 28.2-94.3 64.3-35.3 40.5-58.5 93.1-69.7 157.8-4.4 28-7.5 42.1-9.2 42.2-2.3.1-10.3-23.9-23.9-71.9-12-40.7-22.6-70.4-31.6-89.1-9.1-18.7-20.6-34.2-34.7-46.5-25.2-22-53.5-31.9-85.1-29.7-16.1 1.1-31.6 5-46.8 11.8-12.3 5.5-25 15.3-38.2 29.4-13.1 14.2-22.7 28.1-28.7 41.8-26.4 61.1-35.6 150.6-27.6 268.2 5.2 76.9 17.3 160.9 36.1 251.8 11.2 54.6 20.5 85.1 27.9 91.6m682-385.2c5.2 5.2 13.5 7.8 25 7.8 11 0 19.3-4.7 25.1-13.9 5.2-9.2 8.7-27 10.8-53.4 2-26.5 3.8-84.3 5.6-173.5l2.6-141.5-11.3-11.2c-6.9-6.9-15.2-10.4-25-10.4-8.6 0-16.5 3-23.7 9.1-7.2 6-11.7 14.2-13.4 24.6-1.7 9.2-2.6 71-2.6 185.5v76.8c0 61.5 2.3 94.9 6.9 100.1m-5.2 71.6c-1.7 5.2-2.5 10.1-2.5 14.7 0 8.6 2.7 15.5 8.2 20.7q8.1 7.8 23.7 7.8c9.8 0 17.5-2.6 23.3-7.8 5.7-5.2 8.6-11.8 8.6-19.8 0-5.8-1.1-11-3.4-15.6-5.2-12.6-15-19-29.4-19-13.8 0-23.3 6.4-28.5 19m148.5 38.8c5.1 5.8 13.5 8.7 25 8.7 8 0 14.7-1.8 19.8-5.2 9.8-6.5 15-35.9 15.6-88v-10.4c0-24.1 2.3-36.2 6.9-36.2 1.7 0 4.9 2.6 9.5 7.8 8 9.1 27.3 24.5 57.8 46.1s53.2 36.4 68.2 44.5c28.1 14.3 56.6 21.5 85.4 21.5 25.9 0 50-5.5 72.5-16.6q41.4-19.2 63-56.1c14.3-24.6 24.7-60.2 31-106.7 6.3-46.7 10.4-113.1 12.1-199.4q.9-23.25.9-55.2c0-26.5-3.2-42.9-9.5-49.2-6.4-6.3-15.3-9.5-26.8-9.5-9.8 0-17.5 2.6-23.3 7.8-6.3 5.7-10.3 16.1-12.1 31q-2.55 22.5-6 126.9-3.45 89.7-6.9 123c-2.3 22.1-6.9 45.3-13.8 69.4-4.6 15.5-11.1 27.3-19.4 35.4-8.4 8-20.9 14.4-37.6 19-11.5 2.8-21.2 4.3-29.3 4.3-24.7 0-56.7-13.2-95.8-39.7-42.6-29.3-76.8-61.3-102.7-95.8l-14.6-20.7v-119.1c0-54.6-.5-88.9-1.3-102.7-.9-13.8-3.6-24.7-8.2-32.8-5.8-12.6-14.1-18.9-25.1-18.9-4.6 0-8.6.3-12 .8-6.9 1.2-13 4.3-18.2 9.5-4.6 4.6-7.4 25-8.6 61.3-1.1 36.2-2.6 163.4-4.3 381.4v23.3c0 21.8 2.6 35.4 7.8 40.5m793.9 3.4c-15.3 7.9-33.9 12-55.8 12.1l-11.2-.5c-16.1-.7-29.1-3.6-38.9-8.6-9.9-5.1-21.1-14.5-33.7-28.3-20.3-22.3-33.2-49.3-38.7-81.2-2.3-12.8-3.4-20.6-3.2-23.5.1-3.5 1.4-6.3 3.8-8.5 13.1-10.3 43.9-15.8 92.3-16.5 8.6-.2 18.4-.1 29.3.4 13.8.6 27.7 5 41.8 13.1 13.5 7.5 25.8 18.7 36.9 33.7 11.1 14.8 17.6 28.4 19.3 40.5.5 1.8.7 4.4.5 7.8-1.1 24.7-15.2 44.6-42.4 59.5m-120.1 79.2c11.3 4.5 27.6 7.3 48.8 8.3 29.9 1.3 56.2-1.5 79-8.6 18.1-5.5 36.1-15.9 54.1-31.2 18-15.4 31.4-31.7 40.2-49.2 8.9-18.6 13.8-36.5 14.6-53.8 1.5-33.9-11.7-67.8-39.5-101.9-36-43.7-82-66.8-137.7-69.3-1.7-.1-4.7-.1-9.1 0q-6.45.15-9.9 0-41.55.75-71.1 7.2c-8.8 2.5-17.5 3.5-26.1 3.1l-2.6-.1c-1.1-1.8.6-10.6 5.1-26.5 4.5-16 9.6-30.7 15.4-44.3 5.1-12.4 13.6-24.5 25.4-36.4 11.7-11.8 23.8-20.4 36.1-25.6 14.1-5.7 27.7-8.2 40.9-7.6 36.8 1.6 64.6 18.4 83.3 50.4 9.1 14.8 16.2 24.3 21.2 28.6 6.1 4.8 12.6 7.4 19.5 7.7 9.2.5 17.5-2.6 25-9.2s11.5-14.7 11.9-24.5c.6-12.6-4.9-28.2-16.5-46.5-11.5-18.4-25.1-33.1-40.7-44.2-33-22.8-63.5-34.8-91.7-36.1-1.7-.1-4.2 0-7.3.1-3.2.2-6 .2-8.3.1-42.6.4-80.9 14.8-115 43.2q-36 30.3-57.9 85.5c-14.6 36.7-22.9 76.7-24.8 119.8-.8 17.2-.2 36.5 1.7 57.9 4.7 48.6 18.9 90.7 42.7 126.4 23.7 35.6 54.8 61.2 93.3 76.7" style="fill:#1b192d;fill-opacity:1;fill-rule:nonzero;stroke:none" transform="matrix(.01376 0 0 -.01376 -203.412 226.537)"/><path d="M21694.4 7083.1c-138.3-227.5-398.9-316.6-569.5-206.9-170.5 109.6-192.1 380.1-48.1 604s426.1 321.3 573 181.5c165.9-157.9 174.7-364.6 44.6-578.6" style="fill:#ddea63;fill-opacity:1;fill-rule:nonzero;stroke:none" transform="matrix(.01376 0 0 -.01376 -203.412 226.537)"/><path d="M21694.4 7083.1h.2zm-217 617c-13 0-25.3-.8-36.6-2.2-126.6-15.1-260.7-106.2-341.6-232.1-66.6-103.4-98.4-220-89.8-328.4 8.4-105.6 54.5-190.4 129.9-238.9 63.6-40.9 145-52.7 229.2-33.3 120 27.7 230.6 112.1 303.2 231.7 126 207.2 111.7 401-40.2 545.6-47.7 45.4-105.5 57.6-154.1 57.6m-187-897.1c-65.7 0-127.5 17.2-179.8 50.8-89.7 57.7-144.4 156.9-154.1 279.4-9.6 119.9 25.2 248.2 98 361.4 90.5 140.7 236.1 238.8 380 256 91.8 11.1 174.8-13.7 233.6-69.6 171.9-163.7 189.3-380.9 49-611.7-80.1-131.7-202.8-225-336.7-255.9-30.4-7-60.6-10.4-90-10.4" style="fill:#231f20;fill-opacity:1;fill-rule:nonzero;stroke:none" transform="matrix(.01376 0 0 -.01376 -203.412 226.537)"/><path d="M21521.3 7628.9c-11.6-14.5-5.6-39.8 13.5-56.6 19.1-16.7 44.1-18.5 55.7-4 11.7 14.5 5.7 39.8-13.4 56.5-19.1 16.8-44.1 18.6-55.8 4.1" style="fill:#ddea63;fill-opacity:1;fill-rule:nonzero;stroke:none" transform="matrix(.01376 0 0 -.01376 -203.412 226.537)"/><path d="M21542 7612c-.6-2.8 1.3-11.8 10.3-19.7 8.2-7.2 16-7.9 18-7 .4 1.7-1.2 11.2-10.7 19.6-7.7 6.7-15.1 7.8-17.6 7.1m26.2-80c-17.6 0-35.9 7.2-50.9 20.4-30.1 26.4-37.5 67.3-16.6 93.1 9 11.3 22.4 18.2 37.5 19.5 19.1 1.7 39.8-5.7 56.4-20.2 30.1-26.4 37.4-67.3 16.6-93.2-9-11.2-22.4-18.1-37.5-19.4-1.8-.2-3.6-.2-5.5-.2" style="fill:#231f20;fill-opacity:1;fill-rule:nonzero;stroke:none" transform="matrix(.01376 0 0 -.01376 -203.412 226.537)"/><path d="M21725.4 7798.5s-48-150.6-169.5-199.9z" style="fill:#ddea63;fill-opacity:1;fill-rule:nonzero;stroke:none" transform="matrix(.01376 0 0 -.01376 -203.412 226.537)"/><path d="M21556 7572c-10.5 0-20.5 6.3-24.7 16.6-5.5 13.6 1.1 29.1 14.7 34.6 108.6 44.1 153.7 182 154.1 183.4 4.5 13.9 19.4 21.7 33.4 17.2 14-4.4 21.7-19.4 17.2-33.4-2.1-6.6-53.3-163.1-184.8-216.4-3.2-1.3-6.6-2-9.9-2" style="fill:#231f20;fill-opacity:1;fill-rule:nonzero;stroke:none" transform="matrix(.01376 0 0 -.01376 -203.412 226.537)"/><path d="M22741.5 6917c-213.1 40.7-353.8 206.5-317 359.1 36.9 152.6 238.6 239.2 450.5 193.4 212-45.7 365.1-225 298.5-368.3-75.2-161.9-231.5-222.5-432-184.2" style="fill:#ddea63;fill-opacity:1;fill-rule:nonzero;stroke:none" transform="matrix(.01376 0 0 -.01376 -203.412 226.537)"/><path d="M22746.5 6943c192.1-36.6 335.1 23.6 402.9 169.4 25.2 54 10 106.5-7.2 140.9-44.4 89.4-151.5 164.1-272.8 190.3-197.6 42.7-385.6-35.3-419.1-173.7-12.9-53.5-1.5-109.9 32.9-163.3 52.2-80.9 150.6-142 263.3-163.6m106.8-63.8q-55.35 0-116.7 11.7c-126.8 24.2-238.2 94.1-298 186.9-41.9 65-56.1 137.6-39.9 204.5 40.2 166.3 256.3 261.9 482 213.2 136.4-29.5 257.7-115.2 309.1-218.5 32-64.4 34.7-129.1 7.8-187-64.2-138.2-184.4-210.8-344.3-210.8" style="fill:#231f20;fill-opacity:1;fill-rule:nonzero;stroke:none" transform="matrix(.01376 0 0 -.01376 -203.412 226.537)"/><path d="M22549.1 7301.7c12.5-6.4 14.6-25.5 4.8-42.6-9.9-17.1-28-25.7-40.5-19.2-12.5 6.4-14.7 25.5-4.8 42.6 9.8 17.1 27.9 25.7 40.5 19.2" style="fill:#ddea63;fill-opacity:1;fill-rule:nonzero;stroke:none" transform="matrix(.01376 0 0 -.01376 -203.412 226.537)"/><path d="M22522.4 7211.2c-7.3 0-14.5 1.6-21.2 5-11.2 5.8-19.4 16-23.1 28.7-4.7 15.9-2 34.5 7.4 50.8 17.2 29.7 50.3 42.7 75.7 29.6 11.2-5.7 19.4-15.9 23.2-28.6 4.7-15.9 1.9-34.4-7.5-50.9-12.6-21.8-34-34.6-54.5-34.6" style="fill:#231f20;fill-opacity:1;fill-rule:nonzero;stroke:none" transform="matrix(.01376 0 0 -.01376 -203.412 226.537)"/><path d="M22352.2 7357.2s75.4-88.7 179-86.4z" style="fill:#ddea63;fill-opacity:1;fill-rule:nonzero;stroke:none" transform="matrix(.01376 0 0 -.01376 -203.412 226.537)"/><path d="M22527.2 7244.2c-112.4 0-191.8 91.8-195.2 95.8-9.5 11.2-8.1 27.9 3 37.4 11.2 9.5 27.9 8.2 37.4-3 1-1.1 68.8-79.1 158.2-77.1 14.6.4 26.8-11.3 27.2-25.9.3-14.7-11.3-26.8-26-27.2z" style="fill:#231f20;fill-opacity:1;fill-rule:nonzero;stroke:none" transform="matrix(.01376 0 0 -.01376 -203.412 226.537)"/><path d="M21584.4 7116c165.4 122.2 392.6 96.1 499.3-47.6 106.7-143.8 56.2-355.5-112.8-473-169.1-117.5-415.2-90-495.7 68-91.1 178.5-46.5 337.6 109.2 452.6" style="fill:#fbf4cd;fill-opacity:1;fill-rule:nonzero;stroke:none" transform="matrix(.01376 0 0 -.01376 -203.412 226.537)"/><path d="M21584.4 7116h.1zm234.4 51.1c-74.9 0-152.6-23.7-218.7-72.5-149.7-110.6-184.7-255.5-101.3-419.2 28.9-56.6 84.4-97.8 156.4-115.8 98.6-24.8 213.7-2.7 300.5 57.6 82.8 57.5 138.7 142.3 153.5 232.6 12.1 73.8-4.5 145.8-46.8 202.8-56.1 75.4-147.5 114.5-243.6 114.5m-79.3-670.9c-32.9 0-65.6 3.9-97.2 11.9-87.1 21.8-154.8 72.7-190.8 143.2-95.4 187.2-53.8 359.8 117.1 486 174 128.5 419.6 104.2 536.4-53.1 50.9-68.6 71.1-154.9 56.6-243-17.1-104.4-81.1-201.9-175.6-267.6-72.7-50.6-160.2-77.4-246.5-77.4" style="fill:#231f20;fill-opacity:1;fill-rule:nonzero;stroke:none" transform="matrix(.01376 0 0 -.01376 -203.412 226.537)"/><path d="M22028.9 6959c-13.1-4-30.6 9.1-39.1 29.3-8.4 20.2-4.6 39.9 8.6 44 13.1 4 30.6-9.1 39.1-29.3 8.4-20.2 4.6-39.9-8.6-44" style="fill:#ddea63;fill-opacity:1;fill-rule:nonzero;stroke:none" transform="matrix(.01376 0 0 -.01376 -203.412 226.537)"/><path d="M22024 6931.7c-23.2 0-46.9 18.1-58.7 46.4-8.2 19.7-8.7 40.1-1.3 55.9 5.4 11.6 14.9 20 26.5 23.6 26.8 8.3 57.5-10.8 71.5-44.4 8.2-19.7 8.7-40.1 1.3-55.9-5.4-11.7-14.9-20-26.5-23.6-4.2-1.3-8.5-2-12.8-2" style="fill:#231f20;fill-opacity:1;fill-rule:nonzero;stroke:none" transform="matrix(.01376 0 0 -.01376 -203.412 226.537)"/><path d="M22196.9 7058.2s-121.6 13.8-183.3-62.6z" style="fill:#ddea63;fill-opacity:1;fill-rule:nonzero;stroke:none" transform="matrix(.01376 0 0 -.01376 -203.412 226.537)"/><path d="M22013.6 6969.1c-5.8 0-11.7 1.9-16.7 5.9-11.4 9.2-13.1 25.9-3.9 37.3 70 86.7 201.3 72.9 206.9 72.2 14.6-1.6 25-14.8 23.4-29.4-1.7-14.5-14.7-25.1-29.4-23.3-1.2.1-108.1 10.9-159.6-52.8-5.3-6.5-12.9-9.9-20.7-9.9" style="fill:#231f20;fill-opacity:1;fill-rule:nonzero;stroke:none" transform="matrix(.01376 0 0 -.01376 -203.412 226.537)"/></svg>