<svg xmlns="http://www.w3.org/2000/svg" xml:space="preserve" width="200mm" height="200mm" viewBox="0 0 200 200"><g style="display:inline"><path d="M4553.99 12936.8h.55zm0 0h-11.9zm-1806.08 806.1c-2.63 61.4-14.07 328.5-30.53 710.5 16.46-382 27.9-649.1 30.53-710.5m-145.27 3382.5c-10.64 248.7-20.78 485.8-29.97 700.1 15.97-213.9 19.33-451.4 29.97-700.1m3909.12 673.2c5.92 320.3-77.59 431.2-456.12 665.6 377.88-225 462.13-342.2 456.12-665.6m-3941.61 123.8c-.73 192.4 31.16 304.7 158.11 422.5-90.84-103.4-153.3-237.2-158.11-422.5m3095.37 774.1c-174.64 106.3-401.58 253.7-443.16 325.2-154.64-32.6-386.8-111.6-573.98-121.5-26.59-1.4-52.67-2.1-78.17-2.1-351.47 0-598.53 127.1-715.39 194-51.3-100.4-286.7-237-455.43-327.4 207.64 116.2 562.82 339.5 560.05 553.6l58.45 1914H5035.2l49.82-1957.6c-.85-172 343.17-424.5 580.5-578.2" style="fill:#f6fcfb;fill-opacity:1;fill-rule:nonzero;stroke:none" transform="matrix(.01755 0 0 -.01755 20.293 418.584)"/><path d="M5874.63 18573.3s-583.05 329.4-652.27 448.4c-154.64-32.6-386.8-111.6-573.98-121.5-393.06-20.8-668.22 120.1-793.56 191.9-73.1-143.1-519.98-359.6-615.19-411.4-294.12-160-707.86-307.6-666.96-855.2 15.97-213.9 19.33-451.4 29.97-700.1 39.53-918.5 85.4-1987.6 114.74-2672 18.81-436.6 31.07-723 31.1-724 11.33-319.9 821.24-788.7 1793.61-792.6 949.2-3.8 1729.73 446.9 1776.09 755.9l39.2 828.4 123.39 2605.7 28.85 608.6c19.76 419.8-71.68 504.3-634.99 837.9" style="fill:#321418;fill-opacity:1;fill-rule:nonzero;stroke:none" transform="matrix(.01755 0 0 -.01755 20.293 418.584)"/><path d="M5997.07 13709.4c-.15 0-.28 0-.43.1h-.7c-62.51.5-111.87 52.2-110.27 115.4l90.26 3564.2c1.8 71.1 56.81 128.5 123.04 128.5h.95c66.66-.6 119-59.1 116.91-130.5l-104.37-3564.4c-1.84-62.8-53.41-113.3-115.39-113.3m-2420.01-299.2c-11.78 0-23.88 1.9-35.98 5.9-35.98 12-76.53 27.6-119.92 47.6-107.34 49.5-249.76 157.1-329.96 221-38.78 30.9-62.58 79.5-64.36 131.4l-131.26 3822c-2.85 82.9 12.51 165.3 47.68 236.2 54.24 109.4 129.57 148.8 209.98 148.8 34.02 0 68.96-7.1 103.57-18.9 204.55-69.9 345.63-292.2 351.09-538.2l87.09-3923.6c1.67-75.3-53.47-132.2-117.93-132.2" style="fill:#69141f;fill-opacity:1;fill-rule:nonzero;stroke:none" transform="matrix(.01755 0 0 -.01755 20.293 418.584)"/><path d="m6480.68 17126.8-123.3-2605.7c-63.93-59.2-140.53-117.8-229.47-173.3h-.12c-69.82-43.5-147.09-85.1-232.03-123.4-316.65-143.7-738.03-244.6-1259.25-242.8-340.32 1.2-632.62 38.3-885.67 93.9h-.11c-291.18 63.8-530.78 152.4-731.13 238.9-112.4 48.5-212.46 96.5-302.19 139-29.35 684.4-75.27 1753.4-114.74 2672 87.39-34 193.13-73.9 316.43-115.2 207.46-69.3 464.06-142.8 765.7-199.4h.11c258.05-48.5 549.02-84.7 870.44-96.2 608.17-21.2 1064.9 76.2 1408.34 193.8h.11c87.72 30 168.22 61.5 241.71 92.5 105.06 44.3 196.23 87.8 275.17 125.9" style="fill:#ecf9f7;fill-opacity:1;fill-rule:nonzero;stroke:none" transform="matrix(.01755 0 0 -.01755 20.293 418.584)"/><path d="m6205.51 17000.9-77.72-2653.1c-69.82-43.5-147.09-85.1-232.03-123.4l67.93 2684h.11c87.72 30 168.22 61.5 241.71 92.5m-2521.6-2902.1c-291.18 63.8-463.96 129.1-664.31 215.6l-100.5 2695.8c207.46-69.3 403.88-130.9 705.51-187.4z" style="fill:#fff;fill-opacity:1;fill-rule:nonzero;stroke:none" transform="matrix(.01755 0 0 -.01755 20.293 418.584)"/><path d="m6473.23 17123.9-4.22-116.8c-75.49-36.3-163.66-79.4-266.95-123.6-72.6-31.1-152.76-62.9-241.38-93.5-303.52-104.7-705.66-194.9-1241.22-194.9-54.26 0-109.52.9-166.22 2.9-320.2 11.2-608.39 46.7-865.54 95-294.97 55.5-549.24 128-764.27 200.4-122.3 41.1-231.81 82.3-329.09 120.2l30.57 113.2c409.26-159.8 1054.88-375.7 1932.67-406.6 982.06-34.5 1596 249.7 1915.65 403.7m-104.95-2588.4c-51.93-48.3-130.31-113.1-240.27-181.2-65.71-40.5-142.64-82.3-232.03-122.3-281.07-125.7-684.77-233.8-1245.23-233.8h-14.46c-338.66 1.3-631.51 37.8-885.89 92.8-290.41 62.8-530.56 149.5-731.24 234.9-114.3 48.7-215.81 96.8-306.53 139.8l7.45 139.9 45.03-29.3c75.05-35.7 157.65-74.9 249.05-114.9 198.9-87.2 439.27-178.1 733.13-244.1 253.94-57.2 547.79-95.7 889.34-96.8h12.78c458.18 0 901.01 101.5 1250.46 265.7 83.27 39.1 161.21 81.8 232.81 127.5 80.83 51.6 153.66 107 216.81 165.6z" style="fill:#a24985;fill-opacity:1;fill-rule:nonzero;stroke:none" transform="matrix(.01755 0 0 -.01755 20.293 418.584)"/><path d="M5899.87 14387.8c83.27 39 161.21 81.7 232.81 127.4l-4.67-160.9-.22-6.5c-69.82-43.5-147.09-85.1-232.03-123.4l.22 7.6zm305.64 2613.1-3.45-119.3c-72.6-31.1-152.76-62.9-241.38-93.5l3.01 120.3h.11c87.72 30 168.22 61.5 241.71 92.5m-2578.26-299.2c-271.65 55.4-508.01 119.3-706.04 191.7l-4 116.8c191.07-69.3 427.4-142.8 705.2-199.4zm55.88-2626.2c-268.17 63.8-488.84 152.4-673.35 238.9l-.41 11.5 3.98 138c185.53-84.1 397.15-162.6 667.78-228.7l1.69-144.2z" style="fill:#e5c6db;fill-opacity:1;fill-rule:nonzero;stroke:none" transform="matrix(.01755 0 0 -.01755 20.293 418.584)"/><path d="m2737.41 14466.7 10.24-4.9c382.98-181.8 961.73-456.5 1888.89-459.7h12.87c696.58 0 1325.85 197 1687.84 528.4l121.34 2562.8c-332.81-159.8-932.61-433.4-1903.9-399.2-869.47 30.6-1514.06 240.1-1930.14 400.7 38.98-905.8 83.82-1951.1 112.86-2628.1m1912.99-505.8c-4.69 0-9.31.1-14.01.1-936.35 3.2-1520.1 280.3-1906.38 463.6l-32.64 15.5-.53 12.4c-29.35 684.5-75.23 1753.5-114.75 2672l-1.36 31.5 29.4-11.4c412.03-160.9 1062.05-378.3 1946-409.4 992.39-34.8 1592.99 254.7 1915.72 410.2l31.1 14.9-125.42-2648.5-6.16-5.8c-166.73-154.6-397.12-286-666.22-379.8-314.47-109.7-669.31-165.3-1054.75-165.3" style="fill:#231f20;fill-opacity:1;fill-rule:nonzero;stroke:none" transform="matrix(.01755 0 0 -.01755 20.293 418.584)"/><path d="M3029.04 16604c4.63-.5 9.7-1.5 15.23-3.2 13.08-4 23.81-9.5 32.17-16.4 5.31-4.5 10.56-11.5 15.76-21 5.21-9.6 8.09-17.6 8.65-24.1.53-5.6-.08-11.2-1.85-17.1-3-9.9-7.46-15.6-13.38-17.3-2.09-.7-5.61-.2-10.56 1.3-4.07 1.2-7.23 4.1-9.46 8.8-2.25 4.6-2.7 9.2-1.38 13.5 1.15 3.8.12 9-3.08 15.7-3.21 6.7-7.07 11.5-11.56 14.5-2.86 2.1-6.45 3.9-10.82 5.2-14.54 4.4-32.23 2.6-53.06-5.3-20.85-8-38.8-20-53.83-36.1-22.08-23.4-38.4-50.6-49.02-81.3-.35-1.2-1-3-1.95-5.6-.94-2.6-1.58-4.5-1.93-5.6q-26.13-85.95 22.41-131.7c5.91-5.6 11.49-9.2 16.73-10.8 3.19-.9 5.85-1.6 7.98-1.9 8.7-1.7 15.91-2 21.65-.9s12.53 4.2 20.38 9.1 13.59 9.2 17.26 12.8c3.64 3.7 7.85 9.7 12.63 18.1 9.1 15.4 18.46 21.6 28.06 18.6 4.35-1.3 8.06-4.8 11.09-10.5 2.83-5.3 3.76-9.5 2.8-12.7-.28-.9-1.32-3.3-3.13-7.2-7.99-17.9-20.84-33.5-38.55-46.9-17.71-13.3-35.16-20.6-52.34-21.7-8.82-.8-20.85.9-36.05 5.2-13.95 4.3-24.68 9.8-32.16 16.5-22.57 20.8-37.08 44.4-43.49 70.9-6.44 26.4-5.37 57.3 3.2 92.8.6 3 1.82 7.6 3.68 13.7 10.77 35.4 27.7 66.8 50.76 94.1s47.34 45.8 72.85 55.6c9.71 3.7 20.85 6.6 33.43 8.9 12.59 2.2 22.87 2.8 30.88 2m102.26-127.1c4.04 2.5 8.86 3 14.47 1.7 5.62-1.4 9.4-3.9 11.32-7.5 2.02-3.3 1.53-13-1.46-29.2l-4.17-22.9 16.54 8.2c12.04 5.8 25.35 10.4 39.93 13.7 10.89 2.4 18.62 3.6 23.19 3.8 4.56.1 12.39-.9 23.46-2.9 4.2-.7 8.96-1.7 14.29-3 7.07-1.8 13.1-4.6 18.07-8.7 9.25-6.9 16.3-14.6 21.15-22.9 4.84-8.4 6.55-15.5 5.12-21.4l-.54-1.3-.56-1.3c-4.66-8.9-11.27-12.3-19.82-10.2-5.92 1.5-11.62 5.7-17.12 12.6-6.99 9.9-15.21 15.9-24.65 18.2-3.56.9-7.65 1.4-12.3 1.6-31.47 1.7-62.64-11.3-93.5-39.2l-10.11-8.8c-3.95-16.2-9.62-40.8-17-73.7-7.39-32.9-13.07-57.7-17.1-74.2l-6.71-4.5c-4.55-3.2-9.49-4.2-14.8-2.9-4.74 1.1-8.39 4-11 8.7-4.18 7.3-.77 33.5 10.22 78.7 2.15 8.9 8.84 35.1 20.06 78.6 12.88 49.1 20.93 79.1 24.19 89.9 3.24 10.7 6.19 17.1 8.83 18.9m356.66-129.1c-6.87 6-15.9 10.4-27.13 13.2l-5.8 1.2c-8.35 1.6-15.38 1.8-21.06.4-5.69-1.4-12.64-4.8-20.85-10.3-13.2-8.8-23.21-21.1-30.03-36.8-2.79-6.3-4.33-10.1-4.62-11.6-.35-1.8-.05-3.4.91-4.9 5.43-6.9 20.54-13.6 45.28-20.1 4.42-1.1 9.46-2.3 15.12-3.4 7.16-1.4 14.83-.9 23.06 1.5 7.87 2.2 15.59 6.4 23.17 12.6 7.57 6.2 12.58 12.4 15.01 18.4.48.8.89 2.2 1.25 4 2.53 12.8-2.25 24.7-14.31 35.8m-51.72 55.7c6.37.9 15.07.3 26.11-1.9 15.49-3 28.65-7.8 39.45-14.3 8.6-5.1 16.55-12.7 23.84-22.8 7.3-10.1 12.12-20.2 14.48-30.3 2.22-10.6 2.46-20.4.7-29.4-3.48-17.6-14.49-33.4-33.06-47.4-23.97-17.8-50.42-23.9-79.33-18.2-.89.1-2.44.5-4.65 1.1s-3.92 1-5.1 1.3c-14.14 3.7-26.02 7.9-35.61 12.6-4.18 2.3-8.5 4-12.98 4.9l-1.34.2c-.78-.8-1.02-5.5-.72-14.2.28-8.8 1.06-17 2.33-24.7 1.1-7 3.92-14.3 8.47-21.9 4.54-7.5 9.65-13.4 15.33-17.6 6.5-4.7 13.18-7.7 20.04-9.1 19.08-3.7 35.43 1.4 49.05 15.4 6.54 6.5 11.35 10.5 14.45 12.1 3.75 1.7 7.42 2.2 10.99 1.5 4.76-.9 8.66-3.6 11.69-7.9q4.53-6.45 3.03-14.1c-1.3-6.5-6.07-13.8-14.3-21.8-8.23-7.9-17.05-13.8-26.46-17.5-19.77-7.6-36.96-9.9-51.56-7-.9.2-2.15.5-3.76 1-1.62.4-3.02.8-4.2 1-21.84 5.6-39.72 17.8-53.65 36.6-9.75 13.4-16.07 30.4-18.94 51.2-2.89 20.7-2.12 42.2 2.29 64.6 1.76 8.9 4.48 18.7 8.15 29.5 8.52 24.3 21.1 44.1 37.75 59.4s35.82 24.6 57.51 27.7m409.68-74.6c5.64.8 12.97.5 21.99-.8l4.96-.7c19.73-3.7 35.31-14 46.74-30.6 5.06-7.5 8.82-15.1 11.25-22.8 2.42-7.7 4.43-18.9 6.02-33.6 1.41-11.5 1.73-21.7.93-30.5-.79-8.8-3.37-30.5-7.71-65.2-1.55-13-3.62-28.5-6.19-46.6-3.96-27.6-8.53-43.5-13.73-47.7-3.49-2.9-8.24-3.9-14.26-3-6.31.9-10.44 3.1-12.38 6.8-1.75 2.7-2.29 8.1-1.6 16.1s3.46 29.1 8.32 63c4.6 34.4 7.28 56.3 8.03 65.9s.68 19.8-.22 30.7c-1.5 15.2-3.42 26.5-5.73 33.9-2.33 7.4-5.81 13.1-10.45 17.2-4.89 4.4-10.81 7-17.72 8-5.12.8-11.42.8-18.89 0-12.13-1.1-25.81-9.2-41.04-24.5q-22.845-23.1-40.65-57.3c-4.69-9.2-7.88-17-9.58-23.5-1.69-6.5-4.88-23-9.57-49.3-5.07-29.1-8.68-46.7-10.81-53s-6.04-10.1-11.75-11.5c-4.14-.9-7.1-1.2-8.91-1-2.7.4-6.14 3.2-10.31 8.4l-6.19 8.2 13.03 78.3q7.605 46.8 8.52 53.1c2.66 18.7 3.78 32.9 3.36 42.8-.96 17-3.14 29.1-6.59 36.2-3.43 7.1-9.06 11.2-16.88 12.3-12.04 1.7-25.41-2.2-40.13-11.8-14.72-9.5-27.74-22.7-39.04-39.5l-8.96-14.4-9.49-69.5-4.39-30.7c-2.57-18.1-4.5-29.4-5.76-34-1.27-4.5-3.16-8-5.65-10.4-3.57-3.5-7.15-5-10.75-4.5-.31.1-.98.2-2.02.5-1.03.3-1.84.5-2.44.6-5.98 1.2-10.29 4.2-12.95 9.2-1.95 3.7-2.6 9.2-2 16.7.6 7.4 3.23 27.4 7.86 59.9 14.54 101.6 24.94 159.4 31.23 173.2 4.16 7.7 9.86 11.1 17.08 10 4.21-.6 7.87-2.9 10.96-7.1 2.84-3.8 4.1-11 3.8-21.7l-.91-16 13.89 10.1c20.18 14.5 41.51 21 63.99 19.3 1.21-.2 2.64-.3 4.32-.4s2.82-.2 3.43-.2c5.71-.9 12.47-4 20.3-9.4 13.92-10 22.71-24.7 26.36-44.3.38-1.6.78-3.6 1.2-6.1.4-2.6.78-4.7 1.14-6.4.38-1.8.67-3 .88-3.6.43-1.3.8-2 1.09-2 1.51-.2 5.91 3.8 13.22 11.9 21.58 24.3 45.5 38 71.75 41.3m280.43-68.5c-7.46 5.2-16.89 8.7-28.34 10.4l-5.89.5c-8.48.8-15.48.2-21-1.7-5.51-1.9-12.07-6.1-19.68-12.4-12.23-10.1-20.93-23.4-26.11-39.7-2.13-6.5-3.25-10.5-3.4-12-.16-1.8.3-3.4 1.4-4.7 6.12-6.4 21.83-11.5 47.1-15.4 4.52-.7 9.65-1.3 15.4-1.9 7.27-.6 14.85.7 22.79 3.9 7.59 3 14.84 7.9 21.75 14.9 6.9 7 11.25 13.6 13.05 19.9.38.8.66 2.2.84 4q1.785 19.5-17.91 34.2m-57.17 50.1c6.25 1.6 14.97 1.8 26.17.8 15.73-1.5 29.31-4.9 40.72-10.2 9.07-4.2 17.75-10.9 26.04-20.2 8.3-9.3 14.13-18.9 17.51-28.7 3.31-10.3 4.55-20.1 3.71-29.1-1.65-17.9-10.99-34.7-28.02-50.6-22.01-20.2-47.7-29-77.05-26.3-.91.1-2.49.4-4.74.7-2.26.4-4 .6-5.2.7-14.44 2.3-26.69 5.2-36.72 8.9-4.4 1.9-8.88 3.1-13.41 3.5l-1.36.2c-.69-.9-.44-5.6.74-14.3s2.8-16.7 4.85-24.2c1.8-6.9 5.37-13.9 10.67-20.9 5.29-7.1 10.98-12.4 17.05-16.1 6.96-3.9 13.91-6.3 20.88-6.9 19.36-1.8 35.09 5 47.2 20.3 5.84 7.1 10.23 11.6 13.15 13.5 3.55 2.1 7.14 3 10.77 2.6 4.84-.4 8.98-2.6 12.43-6.6 3.44-4 4.93-8.5 4.46-13.7-.62-6.6-4.61-14.4-11.98-23.1-7.38-8.8-15.55-15.5-24.53-20.2-18.89-9.5-35.76-13.6-50.58-12.3-.9.1-2.19.3-3.83.6q-2.475.45-4.29.6c-22.29 3.3-41.32 13.6-57.11 31-11.07 12.3-19.11 28.6-24.09 48.9-4.99 20.3-6.44 41.8-4.34 64.5.84 9 2.53 19.1 5.08 30.2 5.98 25.1 16.47 46.1 31.46 63 15 16.9 33.11 28.1 54.36 33.4m418.48-75.5c-5.09 2.3-11.59 3.6-19.48 3.9-10.93.4-22.39-1.2-34.38-4.7-11.98-3.5-21.12-8.2-27.41-14-18.25-17-29.16-45.6-32.74-85.8-.99-10.9-1.54-17.5-1.62-20-.29-7.8.78-16.5 3.17-26 3.76-13.5 9.22-24.5 16.37-33.1 7.13-8.6 15.39-13.7 24.76-15.3.61 0 1.44-.1 2.5-.3s1.89-.3 2.5-.3c18.83-.7 41.72 14.1 68.65 44.4 8.27 10 15.85 18.2 22.78 24.7l8.49 7.9 2.41 29c2.5 27.2 3.83 42.6 3.95 46.3l.6 16.8-16 11.5c-10.69 7.4-18.88 12.4-24.55 15m73.78 136.5c3.77 3.5 7.78 5.1 12.04 5 5.47-.2 10.05-3.7 13.77-10.5 1.69-3.5 2.49-6.7 2.38-9.7-.02-.6-.79-4.8-2.28-12.7-7.14-37.8-14.3-93.3-21.5-166.6-3.24-30.9-5.36-60.5-6.38-88.7-.89-24.9-.7-44.7.61-59.4.96-15.2 1.38-24.9 1.22-29.2q-.39-10.95-4.65-15.3c-2.85-3.3-7.47-4.8-13.85-4.6-3.95.2-7.55 1.2-10.83 3.2-7.15 4.2-11.04 18.6-11.67 43.3-.69 14.9-1.15 23.1-1.39 24.6l-.45.5c-2.13.1-9.01-5.3-20.65-16.1q-15.6-15.45-27.72-22.5c-8.08-4.7-18.25-8.6-30.51-11.5-6.45-1.6-12.86-2.2-19.24-2-14.87.5-28.99 5.5-42.33 15-13.35 9.4-23.69 22-31.03 37.8-6.49 14.2-10.48 25.6-12 34.2q-2.265 12.9-1.29 40.2c1.6 36.4 8.28 65.5 20.02 87.3 9.12 17 20.01 30.1 32.66 39.4s28.77 16 48.39 20.2c11.95 2.6 23.08 3.7 33.42 3.3 17.01-.6 34.41-7 52.22-19.2 6.51-4.8 11.14-7.2 13.87-7.3h.46c.94.8 3.64 17 8.13 48.5 4.05 28.1 7.22 46.5 9.51 55.1 2.28 8.5 5.31 14.4 9.07 17.7m202.52-135.6c-7.92 4.5-17.65 7-29.2 7.6h-5.92c-8.51-.1-15.43-1.3-20.73-3.8-5.32-2.4-11.45-7.2-18.41-14.2-11.2-11.3-18.59-25.3-22.18-42q-2.235-10.05-2.22-12.3.015-2.7 1.83-4.5c6.71-5.8 22.84-9.4 48.37-10.8 4.56-.3 9.72-.4 15.5-.4 7.3 0 14.73 2 22.31 6 7.29 3.7 14.02 9.3 20.23 17 6.19 7.6 9.89 14.6 11.08 21 .3.9.45 2.3.44 4.1-.06 13.1-7.09 23.8-21.1 32.3m-61.71 44.4c6.07 2.1 14.72 3.2 25.97 3.3 15.8.1 29.64-2 41.51-6.2 9.42-3.3 18.73-9.2 27.87-17.7 9.15-8.5 15.87-17.4 20.16-26.8 4.3-10 6.46-19.6 6.49-28.7.08-17.9-7.59-35.6-23.03-53-19.97-22.2-44.7-33.4-74.17-33.5-.92-.1-2.51 0-4.79.2-2.28.1-4.03.2-5.25.2-14.58.8-27.05 2.6-37.39 5.3-4.57 1.5-9.13 2.2-13.69 2.2h-1.37c-.6-.9.1-5.6 2.11-14.1s4.39-16.4 7.16-23.7c2.46-6.7 6.66-13.3 12.62-19.8 5.95-6.5 12.11-11.2 18.51-14.3 7.31-3.3 14.45-4.9 21.45-4.9 19.44.1 34.44 8.4 45.03 24.8 5.13 7.6 9.07 12.5 11.79 14.6 3.34 2.5 6.82 3.7 10.47 3.7q7.29 0 13.02-5.4c3.81-3.6 5.72-8 5.74-13.2.04-6.7-3.2-14.7-9.71-24.2-6.49-9.4-13.98-16.9-22.47-22.4-17.88-11.3-34.27-17-49.16-17.1-.91 0-2.2.1-3.88.2-1.67.2-3.11.3-4.33.3-22.5 1.1-42.43 9.5-59.81 25.3-12.21 11.1-21.76 26.6-28.68 46.3-6.92 19.8-10.41 41-10.5 63.8-.04 9.1.67 19.3 2.15 30.6 3.55 25.5 11.97 47.4 25.28 65.7 13.29 18.3 30.26 31.1 50.9 38.5m397.04 111.7c4.49 1.2 9.61 2 15.37 2.4 13.65.9 25.61-.4 35.91-3.9 6.55-2.3 13.96-7 22.2-14.1 8.25-7 13.79-13.5 16.63-19.4 2.48-5 3.93-10.5 4.35-16.6.69-10.3-1.42-17.3-6.34-21-1.74-1.3-5.18-2.2-10.34-2.5-4.24-.3-8.24 1.3-11.98 4.9-3.75 3.5-5.77 7.6-6.09 12.1-.27 4-3.09 8.5-8.47 13.6-5.37 5.1-10.69 8.3-15.95 9.4-3.41 1-7.4 1.4-11.94 1-15.16-1-31.07-8.9-47.72-23.8-16.65-14.8-29.16-32.4-37.51-52.8-12.28-29.8-17.93-60.9-16.92-93.5.09-1.2.14-3.2.19-5.9.02-2.7.09-4.7.17-5.9 4.09-59.7 26.65-98.1 67.72-115.1 7.52-3.1 14.02-4.5 19.48-4.1 3.33.2 6.05.5 8.15 1 8.73 1.5 15.57 3.8 20.54 6.9 4.98 3 10.24 8.3 15.83 15.7 5.6 7.3 9.44 13.4 11.56 18.1s3.92 11.9 5.4 21.4c3.06 17.6 9.59 26.7 19.59 27.4 4.55.3 9.25-1.7 14.12-5.9 4.52-4 6.91-7.6 7.14-10.9.06-.9-.06-3.5-.38-7.8-1.11-19.6-7.55-38.8-19.37-57.6-11.81-18.7-25.55-31.7-41.2-38.9-7.96-3.9-19.82-6.5-35.56-7.9-14.55-1-26.52.3-35.91 4-28.5 11.4-50.44 28.3-65.84 50.7-15.39 22.4-25.39 51.8-30 88-.51 3-.99 7.7-1.42 14.1-2.52 37 2.14 72.3 14 106s27.98 59.7 48.37 77.8c7.75 6.9 17.12 13.6 28.09 20.2 10.97 6.5 20.35 10.8 28.13 12.9m292.68-107.5c-18.4-2.3-39.7-18.6-63.88-49.1-11.44-14.2-19.54-26.4-24.28-36.6-4.73-10.2-7.84-22-9.28-35.3-1.07-9.1-.99-18.5.22-28.5 1.77-14.8 5.85-27.7 12.23-38.7 6.37-11 14.06-18.3 23.06-21.8 5.45-2.1 11.2-2.8 17.24-2 11.76 1.4 23.82 7.3 36.2 17.6 12.37 10.4 22.95 23.6 31.73 39.7 5.77 10.5 9.19 17.6 10.27 21.4 1.06 3.8 1.58 11.1 1.51 21.8.74 21.8 2.06 41.2 3.99 58.3l3.95 35.8-9.03 6.3c-6.35 4.4-12.38 7.5-18.11 9.3-5.72 1.8-10.99 2.3-15.82 1.8m-28.07 31c7.85 3.4 14.8 5.5 20.83 6.2 12.97 1.6 27.37-1.1 43.21-8.1l14.62-7 5.76 9.5c3.86 5.9 8.36 9.2 13.49 9.8 4.83.6 8.85-.3 12.06-2.9 3.21-2.5 5.11-6.2 5.69-11 .44-3.6.25-7.1-.55-10.6-4.04-17.3-7.46-41-10.27-71-3.52-39.3-3.49-73.9.11-103.8 1.2-9.9 2.88-20.2 5.07-30.6 2.29-11.4 3.79-20 4.51-26.1 1.35-11.1-.38-18.4-5.18-21.7-3.41-2.3-6.76-3.6-10.08-4-5.43-.7-10.34 1.3-14.7 5.8-4.38 4.5-7.69 11.1-9.95 19.7-2.03 9.2-4.41 13.7-7.12 13.4-1.82-.2-4-2.5-6.54-6.8-2.81-4.6-10.25-11.5-22.31-20.6s-21.48-14.8-28.23-17.2c-5.86-2.2-12.11-3.7-18.74-4.5-13.88-1.7-25.92-.8-36.11 2.5-12.47 4.3-24.47 13.1-35.98 26.2-11.55 13.2-19.45 27.3-23.7 42.4-1.57 5.3-2.81 11.7-3.71 19.3-2.15 17.8-2.22 33.7-.25 47.7 4.77 36.7 21.77 69.5 51.04 98.4 13.4 13.3 20.38 20.1 20.96 20.5 9.54 9.7 21.56 17.9 36.07 24.5m198.48 44.8c9.22 3.7 18.77 6.5 28.65 8.2s19.79 2.4 29.74 1.9c27.64-2.9 51.92-15.6 72.81-38.2 8.42-9.3 13.25-17.6 14.5-24.8.63-3.5.33-7.1-.89-10.7-2.02-4.4-4.82-6.9-8.42-7.5-.3-.1-.9-.1-1.83-.1-.92 0-1.69-.1-2.29-.2-4.54-.5-7.95 0-10.2 1.5-2.26 1.4-6.96 5.8-14.11 13.3-8.9 10.1-17.24 17.1-25.05 21-13.54 6.6-29.32 8.3-47.36 5.2q-14.88-2.55-26.58-10.2c-8.63-5.5-11.5-16.6-8.58-33.4 1.36-7.8 4.82-13.5 10.39-17.2 6.74-5 25.82-11.8 57.26-20.5 24.29-6.6 43.37-14.4 57.28-23.4 13.9-9 26.39-21.3 37.44-36.9 6.71-10.3 11.11-21.4 13.2-33.4 2.25-12.8 2.06-24.1-.56-33.8-7.62-27-28.31-46-62.07-57.1-5.83-2-11.42-3.4-16.79-4.3-21.21-3.7-40.47-.9-57.79 8.4-17.31 9.3-31.13 24.2-41.46 44.6-4.76 9.7-7.62 17.3-8.62 23-2.5 14.4 2.46 22.7 14.88 24.8 10.95 1.9 18.39-3.1 22.29-15.1 8.14-23.5 20.95-38.4 38.45-44.6 5.28-1.9 13.93-1.8 25.96.3 10.52 1.9 18.75 4.4 24.7 7.6 7.95 4.1 13.93 8.9 17.97 14.2 3.28 4.3 5.12 7.5 5.54 9.5q.615 3.15-1.17 13.5c-1.57 9-4.35 16.5-8.34 22.6-4 6.1-10.76 12.6-20.3 19.6-10.25 7.5-28.69 15-55.33 22.7-34.14 10.1-57.25 19.7-69.3 28.7-12.06 9-19.6 22.2-22.62 39.5-6.88 39.6 5.99 66.6 38.6 81.3m222.39 42.3c9 4.2 18.39 7.4 28.16 9.7 9.78 2.2 19.64 3.4 29.6 3.5 27.76-1.5 52.67-12.9 74.72-34.4q13.335-13.35 15.78-24c.81-3.5.71-7.1-.33-10.8-1.79-4.5-4.46-7.1-8.01-7.9-.31-.1-.91-.1-1.83-.2-.93-.1-1.69-.2-2.27-.3-4.51-.7-7.94-.4-10.26.9-2.35 1.4-7.28 5.5-14.79 12.6-9.43 9.7-18.12 16.2-26.12 19.7-13.86 5.9-29.72 6.8-47.57 2.7-9.82-2.3-18.48-6.1-26.01-11.6-8.34-5.9-10.61-17.2-6.82-33.8 1.76-7.7 5.52-13.2 11.27-16.6 6.99-4.6 26.41-10.5 58.26-17.5 24.6-5.3 44.07-12.1 58.42-20.3 14.35-8.3 27.47-19.9 39.32-35 7.25-9.9 12.23-20.7 14.94-32.6 2.92-12.7 3.32-24 1.21-33.8-6.2-27.3-25.87-47.4-59-60.3-5.71-2.2-11.21-4-16.54-5.2q-31.47-7.2-58.14 5.4c-17.78 8.4-32.36 22.6-43.74 42.4-5.27 9.4-8.54 16.9-9.82 22.5-3.26 14.3 1.27 22.8 13.56 25.6 10.84 2.5 18.53-2.2 23.06-13.9 9.34-23.1 22.93-37.3 40.73-42.6 5.37-1.6 14-1 25.9 1.7 10.41 2.4 18.5 5.3 24.27 8.8 7.72 4.6 13.46 9.7 17.2 15.2 3.05 4.4 4.74 7.7 5.04 9.8.29 2.1-.33 6.5-1.89 13.3-2.03 8.9-5.2 16.3-9.5 22.2-4.31 5.9-11.4 12-21.3 18.5-10.63 6.9-29.44 13.5-56.44 19.8-34.62 8.3-58.19 16.6-70.7 25-12.52 8.4-20.74 21.1-24.66 38.3-8.95 39.1 2.48 66.8 34.3 83.2m193.61-31.4c1.92 3.3 5.81 5.8 11.68 7.4 5.56 1.5 10.46.3 14.67-3.6q5.865-6 12.9-25.8c4.68-13.2 13.64-42.4 26.85-87.6l20.9-71.8-4.15-7.3c-2.58-4.5-6.35-7.4-11.33-8.7-4.41-1.2-8.86-.8-13.36 1.3s-7.91 5.7-10.22 10.7c-2.15 4.5-11.14 35.9-26.98 94.2l-10.63 39.2c-8.51 31.4-11.97 48.7-10.33 52m-12.55 35.8c-1.6 2.4-2.71 4.7-3.35 7.1-1.2 4.4-.77 8.3 1.31 11.7 2.07 3.4 5.74 5.8 11.03 7.2 4.97 1.4 9.29 1.1 12.94-.7 3.65-1.9 6.04-4.8 7.16-8.9.79-3 .91-5.8.38-8.4-.88-7.2-5-11.8-12.33-13.8-7.04-1.9-12.76 0-17.14 5.8m110.72 71.1c8.59 5.1 17.65 9.1 27.19 12.2s19.25 5.2 29.16 6.2c27.78 1 53.62-8.1 77.51-27.5 9.64-8.1 15.6-15.6 17.86-22.5 1.12-3.5 1.34-7.1.64-10.8-1.38-4.6-3.8-7.5-7.26-8.6-.3-.1-.9-.2-1.82-.4-.91-.1-1.66-.3-2.24-.5-4.42-1.1-7.86-1.1-10.3 0-2.44 1.2-7.73 4.9-15.85 11.2-10.25 8.8-19.51 14.6-27.78 17.3-14.34 4.6-30.21 4.1-47.62-1.6-9.58-3.1-17.87-7.7-24.86-13.8-7.78-6.7-9.02-18.1-3.76-34.3 2.44-7.5 6.68-12.7 12.72-15.5 7.37-4 27.24-8.1 59.6-12.3q37.44-4.5 60-15c15.03-6.9 29.15-17.3 42.31-31.3 8.1-9.2 14.03-19.5 17.79-31.1 4.05-12.4 5.46-23.6 4.25-33.6-3.73-27.7-21.51-49.5-53.35-65.3-5.49-2.7-10.82-5-16-6.6-20.48-6.7-39.95-6.7-58.4.1-18.47 6.8-34.26 19.6-47.38 38.3-6.07 8.9-10 16.1-11.8 21.6-4.5 13.8-.77 22.7 11.23 26.6 10.57 3.5 18.63-.5 24.2-11.8 11.39-22.1 26.18-35.1 44.4-38.7 5.48-1.1 14.03.2 25.63 4 10.16 3.3 17.95 7 23.39 11 7.27 5.2 12.53 10.8 15.76 16.6 2.65 4.7 4.02 8.1 4.14 10.2.11 2.2-.91 6.5-3.07 13.2-2.83 8.7-6.65 15.7-11.46 21.2-4.82 5.4-12.44 10.9-22.87 16.5q-16.815 8.85-57.99 14.7c-35.24 5.1-59.46 11.3-72.67 18.5-13.22 7.2-22.54 19.2-28 36q-18.615 57.15 26.7 85.8m-2609.75 20.8 34.18-65.2z" style="fill:#100f0d;fill-opacity:1;fill-rule:nonzero;stroke:none" transform="matrix(.01755 0 0 -.01755 20.293 418.584)"/><path d="m3485.01 16508.4 27.4-68.7c2.66-6.7-.59-14.2-7.24-16.9-5.81-2.3-12.29-.1-15.62 4.9l-40.97 61.6c-6.32 9.5-3.74 22.4 5.78 28.7 9.51 6.3 22.34 3.7 28.67-5.8.78-1.2 1.47-2.5 1.98-3.8" style="fill:#231f20;fill-opacity:1;fill-rule:nonzero;stroke:none" transform="matrix(.01755 0 0 -.01755 20.293 418.584)"/><path d="M4458.95 15053.2c-.79 64.8-73.8 123.4-144.09 141.1-7.58 2-15.05 3.4-22.48 4.3-42.42 5.3-84.79-6.4-118.32-29.5l-2.43-1.8c-29.89-21.4-52.42-52-61.26-87.7-16.05-65.5 14.59-142.1 73.39-183 58.89-41 153.11-54.9 197.57-4.8 14.9 16.7 36.51 29.7 52.03 59.8 9.27 9.3 19.31 41.2 24.63 56.5 4.78 13.7 1.41 25.7.96 45.1" style="fill:#352f4b;fill-opacity:1;fill-rule:nonzero;stroke:none" transform="matrix(.01755 0 0 -.01755 20.293 418.584)"/><path d="M4272.46 15179.3c-30.37 0-61.18-9.6-86.72-27.2l-2.21-1.6c-26.93-19.2-45.84-46.2-53.19-75.8-14.05-57.3 13.36-125.1 65.19-161.3 51.93-36.1 134.68-48.2 170.42-8 5.23 5.9 10.98 11.2 16.55 16.3 11.53 10.7 23.46 21.6 32.59 39.3l1.44 2.8 2.24 2.3c5.07 5.6 14.19 32.4 17.62 42.4l2.17 6.4c1.88 5.4 1.58 10.7.76 21.3-.38 5-.79 10.4-.95 16.5v.3c-.65 53.4-66.98 105.9-128.54 121.4-6.77 1.7-13.47 3-19.95 3.8-5.76.7-11.58 1.1-17.42 1.1m26.34-340.3c-43.83 0-90.72 15.6-126.77 40.7-65.27 45.4-99.6 131.6-81.64 204.8 9.73 39.2 34.32 74.6 69.27 99.5 1.51 1.1 2.23 1.7 2.93 2.1 38.99 26.9 86.03 38.7 132.33 32.9 8.19-1 16.62-2.6 25.02-4.7 77.64-19.6 158.56-85 159.57-160.7.12-5.3.49-10 .83-14.3.95-12.4 1.86-24.2-2.93-38l-2.09-6c-8.01-23.5-15.48-44.1-24.92-55.5-12.27-22.8-27.62-36.9-40.02-48.3-5.05-4.7-9.83-9.1-13.69-13.4-24.31-27.4-59.95-39.1-97.89-39.1" style="fill:#231f20;fill-opacity:1;fill-rule:nonzero;stroke:none" transform="matrix(.01755 0 0 -.01755 20.293 418.584)"/><path d="M3554.48 14997.4c-81.84 10.9-136.6-30.8-169.54-69.3-38.73-44.9-32.62-115.5-14.81-165.2 10.62-29.6 34.17-54.6 63.65-72.2l1.21-.7c47.27-28 109.57-36.9 158.1-15.5 15.43 6.8 30.81 17 44.92 29.4 18.02 15.7 33.81 35.2 46.08 55.6 27.05 45 37.91 87.1 9.13 149-15.27 32.9-53.76 77.6-138.74 88.9" style="fill:#771549;fill-opacity:1;fill-rule:nonzero;stroke:none" transform="matrix(.01755 0 0 -.01755 20.293 418.584)"/><path d="M3528.51 14978.6c-48.65 0-91.62-21.4-127.96-63.9-32.84-38.1-26.48-101.8-11.06-144.8 8.49-23.7 27.95-45.5 54.81-61.5l1.11-.7c44.67-26.4 99.36-32 139.38-14.4 13.09 5.8 26.79 14.8 39.64 26.1 15.88 13.8 30.4 31.4 42.03 50.7 24.43 40.7 33.58 74.9 8.1 129.7-11.25 24.3-42.16 66.5-122.79 77.2h-.01c-7.88 1-15.64 1.6-23.25 1.6m4.84-336.4c-36.69 0-75.26 10.2-108.83 30.1l-1.16.7c-35.15 20.9-60.89 50.4-72.58 83-20.08 56-25.74 134.1 18.57 185.6 50.91 59.4 115.86 85.8 187.84 76.2 100.1-13.3 139.88-68.8 154.68-100.6 34.86-75 15.73-125.2-10.15-168.3-13.82-23-31.17-43.9-50.18-60.5-15.92-14-33.28-25.3-50.17-32.7-20.54-9.1-43.88-13.5-68.02-13.5" style="fill:#231f20;fill-opacity:1;fill-rule:nonzero;stroke:none" transform="matrix(.01755 0 0 -.01755 20.293 418.584)"/><path d="M3429.76 14789.1s-1.83 29.4-19.16 36.7c-10.21 4.3-46.33-20.9-74.25-42.3-11.22-8.6-2.04-25.6 13.24-24.5l69.35 4.9c7.05.5 12.12 5.7 11.7 11.9z" style="fill:#9b5f20;fill-opacity:1;fill-rule:nonzero;stroke:none" transform="matrix(.01755 0 0 -.01755 20.293 418.584)"/><path d="M3404.7 14804.2c-5.36-2.3-16.56-8.4-37.43-23.4l42.22 3-.25 3.9c-.47 6.2-2.53 12.9-4.54 16.5m-56.4-65.9c-15.63 0-29.9 9.5-35.3 23.8-5.26 13.8-1.01 28.6 10.83 37.7 60.01 46 79.57 51.3 94.71 44.9 28.2-11.8 31.46-49.7 31.74-54.3l.88-13.2c1.16-17.7-12.35-32.5-30.77-33.8l-69.34-5c-.92 0-1.84-.1-2.75-.1" style="fill:#231f20;fill-opacity:1;fill-rule:nonzero;stroke:none" transform="matrix(.01755 0 0 -.01755 20.293 418.584)"/><path d="M5548.68 14903.6c67.81-47.1 135.56-35 182.44-15.9 54.99 22.3 81.8 87.8 88.67 140.2 4.1 31.2-5.4 64.2-23.6 93.3l-.72 1.2c-29.27 46.5-80.61 82.9-133.54 86.1-16.84 1-35.2-1.1-53.41-5.7-23.22-5.7-46.16-15.8-66.4-28.4-44.62-27.6-73.5-60.1-76.22-128.3-1.44-36.2 12.35-93.6 82.78-142.5" style="fill:#352f4b;fill-opacity:1;fill-rule:nonzero;stroke:none" transform="matrix(.01755 0 0 -.01755 20.293 418.584)"/><path d="M5560.4 14920.5c48.34-33.5 103.14-38.2 162.94-13.7 46.64 18.9 70.11 78.4 76.06 123.7 3.27 25-4.06 53.3-20.65 79.8l16.71 12.1-17.4-10.9c-27.61 43.8-73.68 73.8-117.36 76.4-14.37.9-30.61-.9-47.16-5-20.46-5.1-41.39-14.1-60.58-26-40.3-24.9-64.1-51.2-66.5-111.6-1.07-26.7 7.12-78.4 73.95-124.8zm90.28-70.2c-40.39 0-78.8 12.2-113.74 36.4h-.01c-82.94 57.6-92.98 125.1-91.58 160.2 3.29 82.7 43.24 118.5 85.94 145 22.79 14.1 47.78 24.8 72.27 30.9 20.54 5.1 41.18 7.3 59.59 6.2 56.5-3.4 115.27-40.9 149.72-95.6l1.11-1.9c21.29-34 30.72-71.9 26.21-106.3-7.75-59-38.43-131.1-101.35-156.5-30.01-12.3-59.59-18.4-88.16-18.4" style="fill:#231f20;fill-opacity:1;fill-rule:nonzero;stroke:none" transform="matrix(.01755 0 0 -.01755 20.293 418.584)"/><path d="M5754.81 15031.9s-11.83-27 .27-41.4c7.13-8.5 50.76-2.6 85.37 3.7 13.92 2.5 13.52 21.8-.57 27.8l-63.94 27.3c-6.5 2.8-13.37.5-15.86-5.2z" style="fill:#9b5f20;fill-opacity:1;fill-rule:nonzero;stroke:none" transform="matrix(.01755 0 0 -.01755 20.293 418.584)"/><path d="M5770.17 15007c5.82-.4 18.53-.2 43.99 3.6l-38.94 16.7-1.53-3.6c-2.44-5.7-3.66-12.6-3.52-16.7m4.73-41.4c-20.5 0-29.54 4.5-35.57 11.6-19.65 23.4-5.23 58.6-3.39 62.9l5.26 12.1c7.04 16.2 25.83 23.3 42.81 16.1l63.95-27.4c15.38-6.5 24.86-22.3 23.06-38.3-1.66-14.8-12.22-26-26.89-28.7-31.95-5.8-53.82-8.3-69.23-8.3" style="fill:#231f20;fill-opacity:1;fill-rule:nonzero;stroke:none" transform="matrix(.01755 0 0 -.01755 20.293 418.584)"/><path d="M3589.35 15078.5c-23.99-59.4 20.15-137.8 77.4-178.1 6.17-4.3 12.43-8.2 18.85-11.5 36.63-19.4 79.67-23.2 119.03-13.6.92.2 1.86.5 2.87.8 35.38 9.2 67.57 29.5 89.22 58.9 39.6 54.3 40.9 134.6 2.97 192.1-38.02 57.5-118.5 102.5-178.1 72-19.95-10.2-44.58-14.6-70.19-36.7-12-5.3-33.31-31-43.98-43.1-9.59-10.9-11.09-23-18.07-40.8" style="fill:#931657;fill-opacity:1;fill-rule:nonzero;stroke:none" transform="matrix(.01755 0 0 -.01755 20.293 418.584)"/><path d="M3763.6 15188.3c-11.51 0-22.58-2.4-32.65-7.5-6.97-3.5-14.23-6.4-21.25-9.2-14.6-5.7-29.7-11.7-44.86-24.8l-2.3-2-2.77-1.2c-6.85-3.4-25.53-24.9-32.56-32.9l-4.34-5c-3.84-4.4-5.59-9.3-8.9-19.3-1.55-4.7-3.26-9.8-5.47-15.4l-.09-.2c-20.26-50.2 20.64-118.7 70.16-153.5 5.47-3.9 11.02-7.3 16.61-10.2 30.74-16.2 68.87-20.5 104.57-11.8l2.67.7c31.97 8.4 59.63 26.6 77.73 51.2 34.56 47.4 35.56 118.3 2.37 168.6-26.3 39.7-75.74 72.5-118.92 72.5m-1.2-338.7c-30.3 0-59.94 7.1-86.39 21.1-7.16 3.7-14.28 8.1-21.14 13-63.66 44.7-112.74 132.6-84.64 202.4 1.9 4.8 3.35 9.2 4.7 13.3 3.87 11.6 7.54 22.7 17.07 33.5l4.17 4.8c16.25 18.6 30.88 34.8 43.74 41.9 19.77 16.5 39.09 24.1 54.7 30.3 6.4 2.5 12.45 4.9 17.65 7.6 70.26 35.9 160.92-13 204.59-79 42.32-64.2 40.84-154.8-3.52-215.6-23.71-32.3-59.43-56-100.62-66.7l-3.31-.9c-15.61-3.8-31.39-5.7-47-5.7" style="fill:#231f20;fill-opacity:1;fill-rule:nonzero;stroke:none" transform="matrix(.01755 0 0 -.01755 20.293 418.584)"/><path d="M3861.01 15019.9c9.74 16.7 2.42 39.1-16.37 50.1s-41.92 6.3-51.67-10.4c-9.74-16.7-2.42-39.1 16.37-50.1 18.79-10.9 41.92-6.3 51.67 10.4" style="fill:#9b5f20;fill-opacity:1;fill-rule:nonzero;stroke:none" transform="matrix(.01755 0 0 -.01755 20.293 418.584)"/><path d="M3823.08 15055.4c-1.23 0-2.45-.2-3.61-.4-2.27-.4-6.42-1.8-8.74-5.8-3.94-6.7.18-16.8 8.98-21.9 8.78-5.2 19.57-3.8 23.53 3 2.19 3.7 1.61 7.7.73 10.4-1.5 4.6-5.04 8.8-9.7 11.5-3.51 2.1-7.44 3.2-11.19 3.2m7.7-72.3c-10.7 0-21.71 2.8-31.81 8.7-28.54 16.6-39.2 51.7-23.76 78.2 7.71 13.2 20.56 22.2 36.15 25.3 14.74 3 30.21.3 43.66-7.5 13.43-7.9 23.4-20.1 28.06-34.3 4.94-15.1 3.4-30.7-4.32-44-9.98-17.1-28.46-26.4-47.98-26.4" style="fill:#231f20;fill-opacity:1;fill-rule:nonzero;stroke:none" transform="matrix(.01755 0 0 -.01755 20.293 418.584)"/><path d="M3984.77 14759.2c13.74 62.5-42.89 132.5-106.05 162.6-6.81 3.3-13.63 6-20.52 8.3-39.34 12.9-82.41 9.5-119.62-6.6-.87-.3-1.75-.8-2.71-1.2-33.33-15-61.69-40.3-78.11-73-29.99-60.1-17.85-139.6 29.15-189.9 47.09-50.3 133.95-81.2 187.63-41.3 17.96 13.4 41.51 21.9 63.06 48 10.94 7.2 27.67 36.1 36.16 49.8 7.65 12.4 7.1 24.5 11.01 43.3" style="fill:#352f4b;fill-opacity:1;fill-rule:nonzero;stroke:none" transform="matrix(.01755 0 0 -.01755 20.293 418.584)"/><path d="M3807.97 14917.4c-20.66 0-41.7-4.3-61.23-12.8l-2.53-1.1c-30.13-13.6-54.36-36.2-68.07-63.5-26.17-52.4-15.33-122.5 25.81-166.6 41.27-44.1 117.26-70.8 160.29-38.8 6.29 4.7 12.97 8.7 19.43 12.7 13.44 8.1 27.32 16.5 40.08 31.9l1.94 2.3 2.53 1.7c6.17 4.5 20.99 28.7 26.56 37.9l3.49 5.7c3.05 4.9 3.95 10.1 5.55 20.4.74 4.9 1.57 10.2 2.81 16.2l.05.2c11.61 52.8-40.17 113.6-94.81 139.6-6.16 3-12.06 5.4-18.04 7.3-13.93 4.6-28.79 6.9-43.86 6.9m7.3-338.2c-51.75 0-107.27 27.5-143.37 66.1-52.46 56.2-66.14 145.8-32.54 213.2 17.95 35.7 49.22 65 88.05 82.6 1.74.8 2.54 1.1 3.34 1.4 43.17 18.7 90.83 21.2 133.88 7.1 7.57-2.5 15.32-5.6 22.99-9.3 70.25-33.4 133.32-111.9 117.27-185.4-1.07-5.1-1.77-9.7-2.42-13.9-1.87-12.2-3.64-23.6-11.22-35.9l-3.35-5.5c-12.89-21.1-24.59-39.4-36.09-48.6-16.74-19.5-34.5-30.3-48.87-39-5.89-3.5-11.45-6.9-16.13-10.4-21.03-15.6-45.82-22.4-71.54-22.4" style="fill:#231f20;fill-opacity:1;fill-rule:nonzero;stroke:none" transform="matrix(.01755 0 0 -.01755 20.293 418.584)"/><path d="M3899.94 14754.9c-1.84-7-7-11.7-11.5-10.6-4.51 1.2-6.67 7.9-4.82 14.9 1.84 7 6.99 11.7 11.5 10.5s6.67-7.8 4.82-14.8" style="fill:#7c161a;fill-opacity:1;fill-rule:nonzero;stroke:none" transform="matrix(.01755 0 0 -.01755 20.293 418.584)"/><path d="M3880.05 14760.1c-.42-1.8 2.31-8.3 9.8-10.2 7.51-2 13.11 2.2 13.66 4.1.4 1.8-2.34 8.3-9.86 10.2-7.46 2-13.04-2.2-13.6-4.1m9.81-36.5c-2.2 0-4.43.3-6.64.9-6.86 1.7-12.69 6.2-16.42 12.6-4.5 7.7-5.61 17.7-3.07 27.3 4.81 18.3 20.95 29.4 36.61 25.2 15.75-4.1 24.29-21.7 19.49-40-4.14-15.6-16.58-26-29.97-26" style="fill:#231f20;fill-opacity:1;fill-rule:nonzero;stroke:none" transform="matrix(.01755 0 0 -.01755 20.293 418.584)"/><path d="M4807.77 15010.9c13.62 20.9 11.42 45.2-5.03 57.9l-.5.4c-16.79 12.7-34.09 27-41.04 29.9-7 2.9-160.47 46.7-164.72 50.3-4.29 3.6-9.81 9-15.15 15.2-10.78 12.5-19.83 29.9-19.06 43.5 0 0 .93-1.2 2.31-3 1.47-1.7 3.48-3.9 5.59-6 4.18-4.2 9.13-7.3 10.51-4.9 0 0 .07 3.7.17 9.6.12 5.8.5 13.9 1.21 22.7 1.22 17.3 4.23 37.3 6.84 47 0 0 9.87-1.4 20.55-3.2 10.75-1.8 22.36-3.8 24.96-8.6 0 0 10.28 59.3 12.69 75.6 2.24 16.1 7.29 35.8 15.67 51.2 8.87-2.2 18.1-3.6 27.48-4.4 0 0 47.06 96 49.24 91.2 2.22-4.8 4.73-10.3 4.85-13 0 0 29.94 59.7 38.24 79.9 8.48 20.4 16.93 39.5 15.94 31.2-.69-8.3-1.86-19.6-1.87-31.2-.71-23.3 5.2-139.2 14.22-141.1 9.06-1.9 64.38 109.9 65.76 110.3 0 0 9.69 79.4 12.19 90.1 0 0 2.92-19.9 7.81-16.8 1.17.8 3.46 6.7 6.25 15.3 2.91 8.6 6.35 19.9 9.72 31.2 6.96 22.7 13.72 45.9 17.21 49.2 6.53 6.7 45.33-61.3 50.03-57.4 4.72 4 50.51 100.9 61.95 102.7 0 0 7.06-52.5 10.19-57.8 3.13-5.4 6.2-23.6 20.39 1.9 14.2 25.4 26.79 52.6 39.54 59.8 0 0 19.85-56 29.1-51.3 9.24 4.6 106.93 65.5 131.59 62.2 0 0-58.23-108.5-51.03-122.9.9-1.8 1.89-3.4 2.94-4.9 6.07-8.5 5.12-20-3.5-25.9-12.17-8.3-23.1-18.5-20.29-27.3 5.88-18.5 34.23-15.3 40.04-11.8 0 0-9.54-52.8-111.04-82.9-36.6-10.8-63.82-47.7-57.07-80.6 6.31-30.9 30.47-47.3 43.67-31.6 0 0 8.91-2.5-3.17-30.8-12.08-28.4-31.44-20.5-24.83-35.6 6.6-15.1 42.81-12.6 55.75 10.1 12.93 22.6 35.59 118.5 52.4 127.9 0 0 4.12 3.6 6.3-9.6 0 0 51.48 97.1 85.52 101.1 0 0-2.64-31.4-8.35-44.5-5.71-13.2 14.47 42.9 51.09 65.4 0 0-2.24-22.9-5.74-37 0 0 47.72 42.3 86.08 54.1 0 0 7.96-10.3-17.72-98.6 0 0 21.38 10.8 33.35 13.3 0 0-13.28-41.5-23.56-67.6l80.89 23.1s-.15-4.1-.37-10.6c-.31-6.5-.78-15.4-2.07-24.8-2.33-18.7-6.53-39.7-11.74-47.5 0 0 11.83 2.7 22.69 5.6 2.8.7 5.64 1.3 8.01 2 2.45.7 5.04 1.3 7.09 1.8 3.85 1.1 7.51 1.5 8.96 1.3 0 0 .19-2.8-.01-7.2-.22-4.3-.68-10.2-1.59-16.5-1.53-12.7-6.18-26.5-10.91-31.1 0 0 73.52-6.8 79.05-5.9 5.22 1.2 11.32 2.3 16.56 4.2 2.82.9 5.6 1.9 8.28 2.8 2.61 1.1 5.13 2.2 7.54 3.3 2.44 1.1 4.94 2.2 7.1 3.3 2.13 1.2 4.1 2.4 5.87 3.4 3.63 2 6.58 3.7 8.41 4.5 0 0 .2-3.9-.1-11.3-.11-1.8-.23-3.9-.37-6.1-.32-2.2-.73-4.5-1.22-7.1-1.02-5-2.14-11.1-4.44-17.1-2.15-6.1-4.67-13.1-8.2-19.7-1.7-3.3-3.53-6.8-5.47-10.3-1.98-3.4-4.15-6.6-6.37-10-2.24-3.3-4.55-6.7-6.96-9.9-2.42-3.1-4.91-6.2-7.43-9.2-5.07-6.2-10.24-11.4-15.28-16.2 0 0 4.92-4 11.97-7.6 6.96-3.8 16.49-6.2 24.2-4.8 0 0-2.38-2.9-6.68-7.6-4.37-4.9-10.43-10.8-17.93-17.5-7.65-7-16.03-13.3-25.32-19.8-4.49-3-9.03-5.8-13.63-8.4-4.62-2.6-9.19-4.9-13.45-6.5 0 0 1.19-2.9 3.27-7.3 2.12-4.3 5.01-10.1 8.78-15.7 7.43-11.1 17.87-21.8 27.34-20.8 0 0-3.08-2.2-8.76-5.9-5.63-3.6-14.18-9-23.85-14.1-20.07-11.2-46.34-22.8-72.64-29.8 0 0 1.95-3.2 4.92-8 3.13-4.7 7.24-11.2 12.35-17.4 10.26-12.3 22.61-24.8 30.54-24.8 7.67 0-23.21-7.7-51.84-11.7-29.23-4.3-56.33-5.9-60.35-6.3-1.99-.1-4.37-.9-5.93-2-1.58-1.1-2.95-2.7-3.89-4.5-1.86-3.6-1.94-8.3 1.78-12.8 1.62-2.4 4.85-4.6 7.91-6.9 3.12-2.2 6.41-4.3 9.43-6.1 2.94-1.9 5.87-3.4 8-4.5 2.14-1 3.43-1.6 3.43-1.6s-3.97-.4-10.1-1c-2.9-.2-6.32-.5-10.03-.8-3.63-.2-8.05-.5-10.94-.6-12.98-.3-26.94-.2-30.8 1.4 0 0 9.16-19.7 19.09-41.1 2.41-5.4 4.88-10.9 7.25-16.2 2.45-5.3 4.24-10.5 7.28-15 5.39-9.1 9.55-16.5 10.74-20 0 0-1.7-.3-4.73-.8-2.86-.4-6.98-.9-12.01-1.6-7.93-1-18.72-2.2-30.14-3-22.85-1.6-48.24-1.9-58.41 3.6l1.59-25.6s-42.15 14.7-58.74 33.5c0 0-7.79-21.3-1.5-31.3 6.28-10-36.06 12.5-56.25 50-20.18 37.5-34.37 70.8-47.98 69.3s-28.61 3.2-15.72-21.9c12.89-25 13.75-30.7 13.75-30.7s-9.63-.9-22.51 1c-12.88 1.8 100.89-48.1 115.55-71.7 0 0 6.15-.9-19.51-18.5-25.65-17.6 42.83-47.5 52.66-54.4l-9.34-18.2s49.42-39.4 57.19-53.7c0 0-23.61-10.1-33.36-13.6 0 0 2.82-23.5 1.28-32.1-1.55-8.6-134.82 11.2-134.82 11.2l-4.71-39.5s-34.62 30.7-43.84 38.3-22.2 7.5-29.26-10.4-1.82-49.3-2.5-52c-.7-2.7-40.53 36.9-45.11 47.2-4.58 10.2-15.58 27.9-26.75 18.4s-10.42-64.3-19.1-68.9c-4.38-2.3-13.44 9.1-23.32 21.2-9.84 12.2-48.85 19.3-48.49 11.6.33-7.7-49.76 37.5-49.76 37.5s6.92 24.4 11.29 50.7c4.38 26.4 6.27 54.8-2.89 62.9-9.31 8.2-20.85 10.1-30.96 3.4-10.1-6.7-18.8-22-21.46-48.6-2.61-26.5-7.02-28.8-10.84-24.4-3.79 4.4-6.76 15.5-6.76 15.5s-3.16-5.6-13.89-18.5c-10.74-12.8-45.56-60.6-78.4-89.6 0 0-11.05 53.5-20.43 59.9-18.72 12.5-25.03 41.6-27.14 49 0 0-28.2-19.9-41.5-22.5-13.39-2.7-29.54-5.7-43.92-7.5 0 0 12.73 15.5 23.49 32.7 10.81 17.1 19.67 35.6 13.9 41-5.79 5.4-21.07 5.6-37.16 4.2-16.1-1.4-33.03-4.3-41.8-6.7 0 0 9.98 11.5 21.87 25.6 11.8 14.1 25.66 30.7 33.91 40.5-6.42 2.3-12.7 4.9-18.96 7.4 10.99 7.7 21.77 15.6 32.4 23.7 0 0-10.64 2.3-23.72 4.7-13.11 2.3-28.59 4.8-39.15 3.6 0 0 2.53 4.2 8.59 11.2 6.07 7 15.58 16.6 29.38 28.1.18 4.9-2.02 13.6-2.02 13.6s9.82 4.1 20.11 9.5c10.36 5.5 21.18 12.4 23.88 17.1 5.39 9.5-.33 18.6-.33 18.6s18.7 2.1 39.65 4.8c20.83 2.5 44.51 5.6 53.84 3.6 9.44-2.1 21.95-.2 32.85 2.8 10.84 3 20.14 6.9 24.06 8.8 3.97 1.8 18.35 23.8 32.72 46.2 3.19 5 6.39 10 9.5 14.8" style="fill:#69ac33;fill-opacity:1;fill-rule:nonzero;stroke:none" transform="matrix(.01755 0 0 -.01755 20.293 418.584)"/><path d="M4946.52 15668.7v-.1zm-168.5-93.6-.05-.6zm331.08-199.9 12.73-2.8c6.5-1.8 12.05-6.6 15.21-13.2 2.19-4.5 3.19-9.7 2.96-15.7 1.04 3.1 2.06 6.2 3.07 9.3 17.64 53.9 27.18 79.2 42.11 88.6 3.34 2.3 7.18 3.5 11.12 3.8 8.98 15.3 20.55 33.4 33.44 49.3-18.52-17.2-47.84-35.7-94.18-49.4-26.84-8-47.22-35-42.77-56.8 2.23-10.9 7.07-17.3 10.13-19.9zm-499.88-209.6.4-.3zm913.16-165.4h.97zm-765.64-31.7-.28-.1zm158.83-357.5c16.94 0 39.82-7 52.33-18.2 3.01 20 6.26 37 17.11 46.2 7.74 6.6 17.17 9 26.56 6.9 16.31-3.7 26.56-19.7 32.28-32.5.95-1.7 3.28-4.6 6.33-8 .79 4.2 1.88 8.2 3.37 12 7.64 19.3 20.62 25.2 27.69 27.1 11.43 2.9 23.75-.1 33.78-8.4 3.07-2.5 8.72-7.4 14.98-12.9l2.59 21.6 20.93-3.1c40.29-6 87.34-11.6 111.17-12.9-.27 3.6-.64 7.4-1.07 11l-1.97 16.4 15.5 5.5c1.41.5 3.21 1.2 5.24 1.9-10.14 9.4-23.21 20.5-35.01 29.9l-13.15 10.5 7.96 15.5c-28.11 15.6-50.4 30.8-51.54 52.1-.33 6.3 1.12 18.3 14.62 27.6l1.37.9c-19.53 13.2-55.44 31.8-71.28 39.9-29.62 15.3-40.7 21-35.11 38.5l5.29 16.6 4.9-.6c-3.88 7.7-10.48 22.7-2.66 35.9 7.67 13.1 22.21 13.5 30.02 13.7 1.73.1 3.53.1 5.31.3 25.08 2.7 39-23.9 58.17-60.7 3.22-6.2 6.58-12.7 10.15-19.3 5.26-9.8 12.29-18.2 19.13-24.9.45 1.4.86 2.6 1.2 3.5l11.86 32.4 22.84-25.8c4.3-4.9 12.12-10 20.71-14.6l-1.81 28.9 32.65-17.7c.22-.1 9.15-3.9 47.14-1.2 5.6.4 11.03.9 16.03 1.4-.98 2.1-1.83 4.1-2.65 6-.55 1.3-1.12 2.6-1.72 3.9l-26.33 57.3-22.55 48.5 47.91-20.4c.68-.1 1.94-.2 4.05-.3-2.2 7.7-1.49 15.9 2.32 23.2 2.42 4.7 6 8.8 10.32 11.8 4.49 3.2 10.37 5.3 16.07 5.7l3.1.3c8.6.6 31.45 2.2 55.92 5.9 3.31.4 6.59.9 9.78 1.4l-1.29 1.6c-5.24 6.3-9.46 12.7-12.53 17.4l-6.38 10.2-14.69 23.5 26.84 7.2c21.52 5.8 46.31 16 68.01 27.9 1.58.9 3.15 1.7 4.66 2.6-2.24 2.7-4.44 5.7-6.59 8.9-4.4 6.5-7.77 13.4-10.01 17.9-2.58 5.3-3.95 8.7-3.95 8.7l-7.77 19.3 19.3 7.6c3.12 1.2 6.76 3 10.83 5.3 4.21 2.4 8.28 4.8 12.33 7.6 9.6 6.7 16.42 12 22.3 17.3-5.58 3.3-9.48 6.4-10.01 6.9l-18.23 14.6 16.92 16.2c4.06 3.9 8.85 8.7 13.57 14.4 2.55 3.1 4.89 5.9 7.16 8.8 1.8 2.4 3.67 5.2 5.5 7.9l1.23 1.8c1.73 2.7 3.44 5.2 4.99 7.9 1.63 3 3.33 6.2 4.93 9.3 2.95 5.5 5.07 11.3 7.02 16.9l-5.01-1.7c-4.83-1.8-10.27-3-15.07-4l-3.48-.7c-3.95-.7-9.33-1.7-85.5 5.5l-44.53 4.1 31.5 30.5c1.22 2 3.34 7.7 4.67 14.5-10.17-2.6-19.39-4.7-19.39-4.7l-50.25-11.5 28.54 42.9c1.75 3 5.64 16.2 8.46 38.8.24 1.8.46 3.5.64 5.2-16.55-4.8-37.44-10.8-52.97-15.3l-40.15-11.6 15.3 38.9c2.76 7 5.75 15.2 8.64 23.4l-32.24-16.2 13.2 45.3c7.96 27.4 12.45 46.6 14.97 59.8-21.03-12.4-41.5-28.9-49.92-36.4l-49.56-44 3.42 13.8c-5.42-5.1-11.75-5.6-15.64-5.3l-14.8 1.3-3.41 14.5-.06.2c-12.55-16.4-26.34-37.8-37.95-59.8l-28.55-53.8-2.17 13.1c-3.03-8.8-5.85-17.4-8.07-24.2-7.61-23.2-14.18-43.3-20.24-53.9-12.56-22.1-37.69-30.8-56.84-29.9-16.72.9-30.03 9-35.61 21.8-6.87 15.7-2.48 28.6 13.05 38.3 3.94 2.4 7.4 4.6 10.71 11.3-19.47 5.8-35.35 26.2-40.74 52.5-8.72 42.5 23.97 90.4 71.39 104.4 43.73 13 67.99 30.1 81.27 43.7-11.83 4.7-20.36 13.5-24.03 25-5.26 16.5 3.41 32.9 25.76 48.8-1.34 2.1-2.56 4.1-3.69 6.4-3.59 7.1-9.79 19.5 27.82 96.3-15.88-7.9-37.83-19.9-68.04-37.6-6.44-3.7-10.97-6.3-12.69-7.2-5.94-3-12.98-3.3-19.34-.8-4.48 1.8-12.57 5.1-24.65 29.9-2.84-5.1-5.61-10.2-7.99-14.6-2.61-4.9-5.26-9.8-7.96-14.6-4.1-7.4-13.35-24.8-31.45-23.8-15.97.9-22.04 15.2-24.32 20.6l-.61 1.4c-.87 1.4-2.16 3.6-4.29 13.4-6.19-11.3-12.13-22.6-15.97-29.9-14.17-26.9-16.23-30.5-20.66-34.2l-6.91-5.8-9.56 1c-11.86 1.5-18.04 10.3-34.54 33.7-1.33 1.9-2.86 4-4.47 6.3-1.08-3.5-2.16-7.1-3.15-10.3l-2.13-7c-3.42-11.5-6.93-23-9.93-31.8-5.03-15.5-7.83-21.5-14.35-25.8-1.21-.8-2.47-1.5-3.75-2-2.2-16.5-4.83-37.2-7.21-56.6l-1.59-13.2-4.9-1.5c-1.47-2.8-3.32-6.4-5.47-10.5-50.16-95.4-59.08-106.8-78.46-102.8-17.29 3.7-22.08 18.1-27.03 81-.56 7.4-1.08 14.8-1.51 22.1-7.94-16.2-14.77-29.8-15.36-31l-35.44-70.7-1.22 27.4c-5.77-11.3-11.77-23.4-17.34-34.7l-6.19-12.7-14 1.2c-4.65.4-9.19.9-13.61 1.6-3.32-9.3-5.95-20-7.45-30.8-2.44-16.5-12.38-73.7-12.8-76.2l-10-57.6-25.9 46.9c-3.69 1-9.71 2-12.66 2.5l-.75.1c-1.15-7.7-2.19-16.6-2.79-25.1-.68-8.5-1.05-16.1-1.16-21.6l-.27-15-2.69-4.6c-.86-1.5-1.86-2.8-2.99-4l1.47-1.8c4.34-5.1 8.21-8.8 10.67-11 12.96-4.7 70.62-21.7 105.85-32.1 41.5-12.2 52.39-15.5 55.67-16.8 7.36-3.1 16.88-10.4 33.08-22.9 4.07-3.2 8.29-6.5 12.48-9.7 25.83-19.8 29.93-55.7 10.33-85.8l-9.44-14.7c-27.87-43.5-33.58-50.2-41.47-53.8-5.82-2.8-16.18-6.9-27.09-10-11.57-3.1-28.32-6.2-42.81-3-5.88 1.1-28.79-1.7-42.47-3.4l-4.44-.6c-7.05-.9-13.87-1.7-19.81-2.4-.78-3.5-2.1-7.1-4.1-10.6-1.84-3.2-6.65-11.6-32.15-25.2-2.46-1.2-4.87-2.5-7.15-3.6l-.02-2-.34-9.2-7.04-5.9c-2.92-2.4-5.6-4.7-8.05-6.9 13.44-2.4 24.23-4.8 24.23-4.8l43.22-9.6-35.2-26.9-1.91-1.4 10.67-3.8-39.84-47.7c20.91.6 33.91-2.5 42.35-10.3 15.58-14.7 7.19-37.2-5.38-58.7 7.2 3.5 18.25 10.1 27.58 16.7l23.63 16.6 8.73-30.5c1.83-6.9 7.41-27.7 18.04-34.8 3.74-2.6 11.22-7.6 20.17-36.7 16.59 18.2 32.03 37.9 41.82 50.4 4.08 5.2 7.35 9.4 9.61 12.1 8.95 10.8 11.91 15.6 11.95 15.7l24.92 41.3.31-1.1c6.05 12.3 13.62 19.7 20.22 24.1 17.3 11.4 39.22 9.4 55.84-5.1 14.24-12.6 17.08-37.1 9.65-81.7-2.57-15.6-5.99-30.4-8.47-40.4 9.52-8.3 19.36-16.5 25.98-21.6 2.66.5 5.63.8 8.82.8m62.09-77.6c-13.87 0-25.21 14-37.09 28.6-3.38 3.2-14.27 6.6-21.36 7.7l-3.41-1.8c-12.82-6-21.25-4.1-71.93 41.6l-9.49 8.6 3.5 12.3c.06.3 6.67 23.7 10.77 48.5 5.04 30.3 3.15 42 2.31 45.3-2.58 1.7-3.8.9-4.51.5-4.44-3-10.34-13.5-12.34-33.5-1.97-20-5.1-38.4-21.5-43.6-4.87-1.6-11.36-1.7-17.53 1.5-1.68-2.1-3.68-4.6-5.95-7.5-15.42-19.7-44.13-56.4-71.77-80.8l-26.58-23.4-7.18 34.7c-4.18 20.2-10.51 41.9-14.08 48.5-11.79 8.8-19.5 21.4-24.56 33-8.91-5-18.63-9.7-26.29-11.2-17.4-3.5-32.7-6.1-45.38-7.7l-50.99-6.3 32.54 39.7c.13.2 12.09 14.8 22 30.6 3.78 6 6.43 10.8 8.29 14.5-3.22 0-7.29-.2-12.39-.7-15.42-1.3-30.92-4.1-38.22-6l-65.33-17.6 44.51 51c.05 0 9.91 11.3 21.62 25.2l15.55 18.6-27.63 11.1 23.47 16.6c-3.34.2-6.44.2-8.81 0l-41.49-4.8 21.5 35.8c.57.9 3.8 6.1 10.67 14.1 4.51 5.2 11.91 13.1 23.03 22.9l-.07.3-4.27 17.1 16.24 6.9c.1 0 9.2 3.8 18.56 8.8 6.75 3.5 11.58 6.6 14.32 8.7l-16.69 26.4 33.19 2.8c.06 0 18.59 2 39.32 4.7l4.52.5c27.54 3.4 45.07 5.2 56.35 2.7 3.64-.8 11.63-.5 22.96 2.6 7.79 2.2 14.42 4.8 18 6.4 5.99 7.3 21.54 31.5 26.91 39.9l9.58 14.9c7.58 11.6 7.44 24.4-.32 30.4-4.72 3.6-9.05 6.9-13.24 10.2-8.58 6.6-20.32 15.7-23.89 17.5-2.87 1-27.46 8.2-51.25 15.2-112.78 33.3-113.83 34.2-118.82 38.5-5.45 4.5-11.73 10.8-17.35 17.4-5.94 6.9-25.41 31.7-23.92 58l3.12 55.3 17.89-23.3c1.56 14.4 3.96 28.9 6.31 37.6l4.75 17.5 18.04-2.6s10.08-1.4 21.03-3.3c1.79-.3 3.62-.6 5.46-.9 3.12 18.3 7.07 41.6 8.41 50.7 1.39 10 5.97 36 17.95 58l7.6 14 15.41-3.8c3.35-.9 6.87-1.6 10.53-2.2 42.36 86 47.01 89.8 59.49 89.8h.4c9.15 18.6 20.86 42.8 25.42 53.9 15.21 36.6 20.89 50.3 39.99 45.3 8.82-2.3 17.01-10.7 15.41-24.3l-.28-3.3c-.64-7.3-1.45-16.5-1.46-25.5-.47-15.6 1.56-57.1 4.47-89.4 10.53 18.9 21.66 40 26.97 50.2 3.44 6.5 5.99 11.4 8.07 15 2.41 19.6 9.66 77.9 12.08 88.2l24.74 104.7 7.14-48.5c6.69 21.1 9.75 27.9 14.82 32.8 4.25 4.4 10.63 6.7 17.27 6.2 13.89-1.1 22.65-12.8 42.88-41.5l.71-1 .94 1.8c36.98 70.2 46.15 82.9 61.3 85.3l20.77 3.2 2.79-20.8c1.2-8.8 2.6-18.4 3.97-27.1 11.33 20.9 21.78 38.4 35.7 46.2l21.28 12 8.17-23.1c4.15-11.6 9.34-23.9 13.52-32.2 75.2 43.9 110.86 59.3 130.47 56.7l29.53-3.9-14.08-26.2c-21.76-40.6-45.34-91-48.79-107.1 5.88-8.8 8.23-19.5 6.44-29.5-1.78-10-7.38-18.7-15.77-24.4-2.33-1.6-4.23-3-5.79-4.2 1.71 0 3.36.2 4.58.5l37.7 22.6-8.09-44.7c-.51-2.8-3.34-15.4-15.1-31.4 12.98 12.8 26.66 22 39.96 23.6l14.47 1.7c6.51 6.5 13.3 12.2 19.93 16.3l35.25 21.6-2.86-29.4c16.16 10.8 35.06 21.6 52.66 27l13.66 4.2 8.72-11.3c3.93-5.2 11.45-15-3.69-77.5l33.38 7-10.79-33.7c-.31-.9-4.56-14.2-10.09-30.3 44.65 12.8 45.22 12.6 48.43 12.7l20.66-.6-1.08-31.4c-.39-8.3-.92-17.1-2.23-26.7-.63-5.1-1.42-10.6-2.39-16.2l1.13.3 1.96.5c3.27.9 10.87 2.6 17.27 1.6l15.9-2.7 1.27-16.2s.29-3.7.01-9.5c-.21-4.4-.7-11.2-1.77-18.6-.1-.9-.62-4.8-1.79-10.1 21.88-1.9 41.26-3.3 46.99-3.4l2.06.5c3.6.7 7.31 1.5 9.95 2.5l16.68 6.6c1.31.6 2.6 1.1 3.77 1.7l5.34 3.1c4.16 2.3 7.61 4.2 9.74 5.2l27.67 13.1 1.67-30.7s.25-4.6-.08-13.1l-.59-8.4c-.36-2.4-.81-5-1.36-7.8l-.29-1.5c-1.07-5.3-2.41-12-5.13-19.1-2.33-6.7-5.13-14.3-9.31-22.1-1.57-3.1-3.51-6.8-5.59-10.5-2.15-3.8-4.29-7-6.5-10.4l-1.42-2.1c-2.26-3.3-4.6-6.8-7.04-10-1.23-1.6-2.45-3.1-3.65-4.6l52.05 9-35.47-42.9s-2.61-3.1-7.33-8.3c-4.83-5.4-11.41-11.8-19.41-19-7.21-6.6-15.41-13-27.24-21.3-3.88-2.6-7.6-4.9-11.31-7.1l1.5-2.3c4.68-7 8.49-10.5 10.29-11.7l76.5 8.3-64.57-45.8s-3.33-2.3-9.43-6.3c-5.92-3.8-14.96-9.5-25.35-15.1-10.18-5.6-28.17-14.8-50.02-22.9l.78-1c10.27-12.3 15.71-16.4 17.52-17.5 11.86-1.5 18.34-10.5 18.89-19.3 1.03-16.5-5.09-24.1-70.75-33.2-13.24-1.9-25.99-3.3-36.51-4.3l67.94-33.4-94.02-9c-2.97-.2-6.23-.4-8.87-.5l12.27-27c.69-1.4 1.4-3.1 2.11-4.7 1.27-3 2.38-5.6 3.46-7.2l.68-1.1c7.66-13 10.93-19.2 12.5-23.9l7.79-23.2-41.16-6.1c-11.46-1.4-21.93-2.4-31.53-3.1-15.89-1.1-28.14-1.3-37.71-.8l1.88-30.3-29.23 10.2c-2.69 1-17.26 6.2-33.02 14.4-.43-1.6-1.08-3.2-1.94-4.8l-5.93-10.6-12.67-.3c-3.36-3.5-7.59-7-12.47-10.6 6.29-4.8 17.01-11.3 32.03-19.5 5.74-3 9.52-5.1 12.28-7l14.72-10.3-9.93-19.4c17.97-14.9 42.49-36.6 49.37-49.3l10.79-19.8-20.73-8.9c-.62-.3-10.09-4.3-19.58-8.2.5-7.9.65-16.4-.38-22.2-4.18-23.3-26.55-21.9-90.59-14.5-16.9 2-33.86 4.2-46.54 6l-6.89-57.7-29.42 26.1c-.31.3-28.76 25.6-40.43 35.5-3.43-9.2-1.89-28.7-1.3-36 .48-6.2.73-9.3-.28-13.3l-3.6-14.2-14.78-1.3c-18.09-1.4-51.87 39.9-62.34 54.6-.61-3.7-1.13-7.2-1.54-10-3.43-23.1-5.68-38.4-19.02-45.5-3.93-2-7.64-2.9-11.18-2.9" style="fill:#231f20;fill-opacity:1;fill-rule:nonzero;stroke:none" transform="matrix(.01755 0 0 -.01755 20.293 418.584)"/><path d="M4827.92 15016.6h-.61c-11.35.3-20.29 9.8-19.96 21.1 1.3 44.3 24.85 200.2 89.26 310.9 99.71 171.4 250.08 313.3 256.43 319.3 8.31 7.7 21.32 7.3 29.08-1s7.35-21.3-.93-29.1c-1.53-1.4-152.41-143.8-249.01-309.9-59.68-102.6-82.54-251.6-83.7-291.4-.33-11.1-9.47-19.9-20.56-19.9" style="fill:#231f20;fill-opacity:1;fill-rule:nonzero;stroke:none" transform="matrix(.01755 0 0 -.01755 20.293 418.584)"/><path d="M5141.46 14697c-2.88 0-5.81.6-8.6 1.9-4.54 2.1-112.12 51.8-180.23 102.7-70.9 52.9-140.78 220.5-143.73 227.7l-6.4 15.5 13.88 9.4c7.12 4.8 175.56 118.2 279.23 130.6 34.3 4.1 75.09 1 118.29-2.3 89.05-6.9 189.93-14.6 279.14 33.5 10 5.4 22.48 1.7 27.87-8.3s1.66-22.5-8.33-27.9c-99.86-53.9-211.86-45.2-301.83-38.4-41.14 3.2-80.01 6.2-110.25 2.6-77.66-9.3-204.61-87.4-246.88-114.6 23.88-54 77.33-160.3 123.62-194.9 64.69-48.2 171.76-97.8 172.84-98.3 10.32-4.7 14.82-16.9 10.08-27.3-3.48-7.5-10.93-11.9-18.7-11.9" style="fill:#231f20;fill-opacity:1;fill-rule:nonzero;stroke:none" transform="matrix(.01755 0 0 -.01755 20.293 418.584)"/><path d="M4729 14660.2c-10.55 0-19.53 8.1-20.46 18.8-5.54 63.6-8.14 124.2 20.41 166.6 62.75 93.2 78.48 193.6 78.63 194.6 1.7 11.2 12.19 19 23.41 17.3s18.95-12.2 17.26-23.4c-.67-4.5-17.31-110.7-85.18-211.5-21.05-31.2-18.42-84-13.56-140 .99-11.3-7.38-21.3-18.71-22.3zm111.12 481.4c-2.92 0-5.88.6-8.69 1.9-106.17 49.5-112.87 157.1-101.58 207 2.5 11.1 13.5 18 24.6 15.5 11.06-2.5 18-13.5 15.54-24.5-1.03-4.7-23.4-113 78.83-160.7 10.3-4.8 14.75-17.1 9.95-27.4-3.5-7.4-10.91-11.8-18.65-11.8m403.5-143.3c-3.22 0-6.5.8-9.55 2.4-69.72 36.6-98.68 152.2-99.88 157.2-2.69 11 4.05 22.1 15.09 24.8 11 2.7 22.16-4 24.87-15.1 6.99-28.4 34.84-107.3 79.05-130.5 10.06-5.3 13.93-17.7 8.65-27.8-3.67-7-10.83-11-18.23-11" style="fill:#231f20;fill-opacity:1;fill-rule:nonzero;stroke:none" transform="matrix(.01755 0 0 -.01755 20.293 418.584)"/><path d="M5198.35 15142.4c-3.32 0-6.68.9-9.81 2.6-9.98 5.4-13.66 17.9-8.23 27.9 2.06 3.7 51.34 92.6 145.14 124.5 10.82 3.7 22.46-2.1 26.1-12.8 3.67-10.8-2.08-22.5-12.83-26.1-78.78-26.8-121.85-104.5-122.28-105.3a20.55 20.55 0 0 0-18.09-10.8m-173.71-251.3c-2.4 0-4.83.4-7.21 1.3-37.04 13.9-103.59 7.3-126.11 3.7-11.27-1.9-21.79 5.7-23.62 16.9-1.84 11.2 5.74 21.8 16.94 23.6 3.74.6 92.27 14.9 147.21-5.7 10.64-3.9 16.04-15.8 12.05-26.4-3.09-8.3-10.93-13.4-19.26-13.4m-79.27-229.9c-6.35 0-12.61 2.9-16.63 8.4-46.55 63.8 16.59 156.3 19.3 160.2 6.47 9.3 19.29 11.6 28.62 5.2 9.34-6.5 11.65-19.3 5.17-28.7-13.78-20-44.18-79.1-19.87-112.5 6.7-9.1 4.69-22-4.48-28.7-3.66-2.7-7.91-3.9-12.11-3.9m-258.41 181.7c-10.42 0-19.35 7.8-20.43 18.4-1.16 11.3 7.04 21.4 18.34 22.6 44.57 4.6 82.23 16.7 82.6 16.9 10.83 3.5 22.41-2.4 25.94-13.2s-2.35-22.4-13.14-25.9c-1.7-.6-42.04-13.7-91.18-18.7zm191.89 345.1c-6.84 0-13.53 3.4-17.44 9.7-6.04 9.6-3.14 22.3 6.48 28.3.75.5 76.14 48.1 120.28 99.6 7.37 8.6 20.37 9.7 29 2.2 8.62-7.4 9.62-20.3 2.22-29-48.24-56.3-126.33-105.6-129.63-107.6-3.4-2.2-7.18-3.2-10.91-3.2m83.5 204.7c-4.52 0-9.06 1.5-12.86 4.6-54.6 43.8-6.5 167.6 3.7 191.9 4.38 10.5 16.48 15.4 26.9 11.1 10.48-4.4 15.43-16.4 11.06-26.9-19.78-47.4-38.5-125.9-15.91-144.1 8.86-7.1 10.27-20 3.16-28.9-4.06-5-10.04-7.7-16.05-7.7" style="fill:#231f20;fill-opacity:1;fill-rule:nonzero;stroke:none" transform="matrix(.01755 0 0 -.01755 20.293 418.584)"/><path d="M5517.66 14912.3c-41.49-24.5-52.24-93.3-37.6-145.2 1.57-5.6 3.42-11 5.58-16.1 12.35-29.3 35.59-52.3 62.95-65.4l2.03-.9c24.86-11.3 52.98-14.5 79.25-7 48.21 14 86.25 62.1 90.88 115.2 4.55 53.2-21.37 119.1-70.18 129.2-16.32 3.4-32.71 12.6-57.87 11.4-9.46 2.5-33.77-2.8-45.59-5.1-10.64-2-17.11-8.6-29.45-16.1" style="fill:#931657;fill-opacity:1;fill-rule:nonzero;stroke:none" transform="matrix(.01755 0 0 -.01755 20.293 418.584)"/><path d="M5585.78 14913.7c-6.71 0-23.34-3.2-29.95-4.5l-4.9-1c-3.14-.6-6.13-2.5-12.03-6.6-3.15-2.1-6.58-4.4-10.57-6.9l-.2-.1c-32.13-19-40.56-78.4-28.28-121.9 1.34-4.8 2.92-9.4 4.75-13.7 9.9-23.5 29.16-43.5 52.83-54.8l1.8-.8c21.25-9.7 44.36-11.8 64.99-5.9 40.14 11.6 72.13 52.5 76.04 97.2 3.83 44.7-17.36 99.7-53.86 107.3-5.99 1.3-11.68 3-17.18 4.8-11.17 3.5-21.75 6.8-35.59 6.2l-3.17-.2-3.06.8zm14.64-260.6c-19.63 0-39.56 4.3-58.35 12.9l-2.56 1.2c-32.91 15.7-58.85 42.6-72.83 75.8-2.48 5.9-4.65 12.2-6.44 18.6-16.69 59.2-3.75 138.4 46.84 168.4 3.26 2 6.07 3.9 8.66 5.7 7.79 5.2 15.84 10.7 27.55 12.9l4.62 1c19.02 3.7 34.77 6.4 46.45 4.6 19.99.4 34.96-4.3 47.21-8.2 4.74-1.5 9.23-2.9 13.19-3.7 60.33-12.5 91.88-88.2 86.48-151.1-5.41-62-48.86-116.8-105.65-133.3-11.4-3.2-23.23-4.8-35.17-4.8" style="fill:#231f20;fill-opacity:1;fill-rule:nonzero;stroke:none" transform="matrix(.01755 0 0 -.01755 20.293 418.584)"/><path d="M5532.52 14769.2s-7.95 20.5-21.87 21.7c-8.21.7-28.12-25.3-43.08-46.7-6.01-8.7 4.34-18.7 14.93-14.4l48.04 19.1c4.88 2 7.31 6.8 5.6 11.1z" style="fill:#9b5f20;fill-opacity:1;fill-rule:nonzero;stroke:none" transform="matrix(.01755 0 0 -.01755 20.293 418.584)"/><path d="M5522.92 14768h-.02zm-12.07-1.5c-1.26-1.4-2.73-3-4.47-5l5.99 2.3zm-33.35-58.3c-9.91 0-19.54 4.4-25.77 12.2-8.34 10.5-8.74 24.5-1.03 35.5 33.81 48.6 47.62 56.7 61.76 55.5 25.26-2.2 37.05-29.1 39.21-34.7l3.6-9.1c5.9-15-1.64-31.6-17.13-37.8l-48.02-19.1a32.9 32.9 0 0 0-12.62-2.5" style="fill:#231f20;fill-opacity:1;fill-rule:nonzero;stroke:none" transform="matrix(.01755 0 0 -.01755 20.293 418.584)"/><path d="M4582.61 14830c-16.32-126.9-166.03-195.7-269.31-120.3-70.81 51.8-111.2 142.5-55.21 231 71.34 112.8 250.14 110.5 310.75-18.8 15.17-32.4 17.58-62.3 13.77-91.9" style="fill:#352f4b;fill-opacity:1;fill-rule:nonzero;stroke:none" transform="matrix(.01755 0 0 -.01755 20.293 418.584)"/><path d="M4409.29 15001.7c-54.77 0-105.35-27-133.82-72-53.28-84.2-6.38-162.2 49.96-203.4 41.37-30.2 95.22-35.7 144.04-14.7 51.15 21.9 85.82 67.2 92.74 121 3.79 29.4-.03 55-11.99 80.6-24.21 51.6-72.97 84.6-130.43 88.2-3.51.2-7.02.3-10.5.3m.01-343.9c-38.49 0-76.16 11.9-108.14 35.3-76.25 55.7-124.53 157.3-60.46 258.6 38.31 60.6 107.94 95.4 181.66 90.7 72.69-4.5 134.42-46.3 165.1-111.8 15.44-32.9 20.38-65.7 15.55-103.2-8.8-68.4-52.65-125.8-117.3-153.6-24.88-10.7-50.83-16-76.41-16" style="fill:#231f20;fill-opacity:1;fill-rule:nonzero;stroke:none" transform="matrix(.01755 0 0 -.01755 20.293 418.584)"/><path d="m4335.84 15021.3.79-.7c12.71-10.6 28.23-17.3 44.63-19.4 10.19-1.3 18.52-5.8 22.95-13.5 9.83-17.1-3.19-43-29.07-57.9s-54.82-13.1-64.64 3.9c-4.16 7.2-4.16 16-.86 24.8 4.69 12.6 6.48 26 2.87 38.9l-2.05 7.3c-4.18 15 13.43 26.5 25.38 16.6" style="fill:#9b5f20;fill-opacity:1;fill-rule:nonzero;stroke:none" transform="matrix(.01755 0 0 -.01755 20.293 418.584)"/><path d="m4335.83 15021.3-13.13-15.9.86-.5zm-2.17-24c2.83-14.5 1.24-29.9-4.74-46-1.2-3.2-1.42-5.9-.59-7.3 2.58-4.5 18.83-6.6 36.54 3.6 17.73 10.3 24.1 25.3 21.52 29.8-.92 1.6-3.9 2.9-7.75 3.4-16.16 2.1-31.5 7.8-44.98 16.5m6.38-98.2c-20.41 0-38.16 8.4-47.36 24.3-7.09 12.3-7.89 27.4-2.29 42.3 3.65 9.8 4.43 18.6 2.32 26.1l-2.05 7.4c-4.32 15.4 1.84 31.7 15.3 40.4 13.43 8.7 30.72 7.7 43.01-2.5l.46-.4c10.04-8.3 21.83-13.4 34.45-15.1 17.07-2.2 30.62-10.6 38.16-23.6 15.73-27.4-.36-65.1-36.64-86-15.05-8.7-30.88-12.9-45.36-12.9" style="fill:#231f20;fill-opacity:1;fill-rule:nonzero;stroke:none" transform="matrix(.01755 0 0 -.01755 20.293 418.584)"/><path d="M4851.69 15036.3c-13.08 63.5-95.92 107.2-168.29 111.2-7.81.4-15.42.4-22.88-.1-42.64-2.9-82.02-22.4-110.54-51.5l-2.06-2.2c-25.27-26.7-41.56-61-43.46-97.7-3.31-67.4 41.35-136.8 106.88-165.8 65.59-29 160.74-24.8 194.87 32.9 11.44 19.3 30.18 36.1 39.7 68.6 7.33 10.9 11.11 44.2 13.43 60.2 2.08 14.4-3.51 25.5-7.65 44.4" style="fill:#352f4b;fill-opacity:1;fill-rule:nonzero;stroke:none" transform="matrix(.01755 0 0 -.01755 20.293 418.584)"/><path d="M4672.38 15127.2c-3.55 0-7.03-.1-10.43-.3-35.94-2.5-71.38-19-97.28-45.4l-1.88-2c-22.77-24-36.22-54.1-37.79-84.6-2.89-58.9 36.92-120.3 94.68-145.9 57.83-25.5 141.39-21.7 168.83 24.6 4.02 6.7 8.66 13 13.15 19.1 9.3 12.6 18.91 25.7 24.52 44.8l.89 3 1.75 2.6c3.92 6.6 7.79 34.6 9.25 45.2l.9 6.5c.82 5.7-.49 10.8-3.3 21.1-1.33 4.8-2.76 10.1-4.08 16l-.04.3c-10.79 52.3-85.91 91.2-149.29 94.8-3.34.1-6.63.2-9.88.2m23.88-335.2c-32.01 0-64.83 6.8-93.23 19.4-72.72 32.2-122.81 110.3-119.12 185.6 2.09 40.3 19.52 79.7 49.09 110.9l2.43 2.5c33.2 33.9 77.19 54.4 123.69 57.5 8.24.6 16.84.6 25.5.1 79.93-4.4 171.81-53.3 187.19-127.4 1.13-5.1 2.39-9.7 3.53-13.8 3.31-12.1 6.44-23.5 4.35-37.9l-.88-6.3c-3.39-24.6-6.83-46.2-13.93-59.2-7.72-24.7-20.09-41.5-30.1-55.1-4.08-5.5-7.92-10.7-10.88-15.7-24.98-42.2-75.21-60.6-127.64-60.6" style="fill:#231f20;fill-opacity:1;fill-rule:nonzero;stroke:none" transform="matrix(.01755 0 0 -.01755 20.293 418.584)"/><path d="M4663.26 15079.8s29.48 1.2 37.12 18.4c4.5 10.1-19.9 46.8-40.67 75.2-8.36 11.4-25.55 2.6-24.8-12.7l3.42-69.5c.35-7 5.41-12.2 11.68-11.9z" style="fill:#9b5f20;fill-opacity:1;fill-rule:nonzero;stroke:none" transform="matrix(.01755 0 0 -.01755 20.293 418.584)"/><path d="m4656.4 15142.5 2.08-42.3 3.85.2c6.25.3 12.96 2.2 16.64 4.2-2.26 5.4-8.01 16.7-22.57 37.9m-6.85-83.8c-17.07 0-30.88 13.6-31.76 31.5l-3.42 69.4c-.82 16.8 9.22 32.2 24.42 37.6 13.97 4.9 28.7.4 37.51-11.7 44.68-61 49.54-80.7 42.87-95.7-12.41-27.9-50.43-30.3-55.03-30.5l-13.21-.6z" style="fill:#231f20;fill-opacity:1;fill-rule:nonzero;stroke:none" transform="matrix(.01755 0 0 -.01755 20.293 418.584)"/><path d="M4633 14580.5c-94.31 86.4-64.36 248.5 56.82 289.4 83.07 28.1 180.48 8.9 220.61-87.9 51.14-123.3-53.8-268.1-194.39-243.2-35.19 6.2-61.02 21.5-83.04 41.7" style="fill:#352f4b;fill-opacity:1;fill-rule:nonzero;stroke:none" transform="matrix(.01755 0 0 -.01755 20.293 418.584)"/><path d="M4646.89 14595.7c21.88-20.1 45-31.7 72.74-36.6 56.17-9.9 111.19 10.9 147.24 55.8 36.85 45.9 46.26 106.9 24.56 159.2-38.17 92.1-128.94 98.7-195.02 76.3-48.55-16.4-84.08-57.2-95.04-109.2-11.49-54.5 5.52-108.9 45.52-145.5m100.54-80.2c-11.56 0-23.24 1-34.98 3.1-35.78 6.3-65.45 21.2-93.35 46.7-50.83 46.6-72.51 115.5-57.98 184.4 14 66.4 59.65 118.6 122.1 139.7 89.47 30.2 200.31 11.2 246.21-99.5 27.46-66.3 15.78-143.2-30.48-200.8-38.09-47.4-93-73.6-151.52-73.6" style="fill:#231f20;fill-opacity:1;fill-rule:nonzero;stroke:none" transform="matrix(.01755 0 0 -.01755 20.293 418.584)"/><path d="m4814.37 14785-.2-1c-3.19-16.2-1.64-33.1 4.37-48.5 3.73-9.5 3.74-19-.89-26.6-10.27-16.8-39.25-17.8-64.73-2.2-25.48 15.5-37.83 41.8-27.56 58.6 4.33 7.1 12.02 11.3 21.38 12.6 13.25 1.9 25.9 6.8 35.48 16.1l5.47 5.3c11.13 10.9 29.66.9 26.68-14.3" style="fill:#9b5f20;fill-opacity:1;fill-rule:nonzero;stroke:none" transform="matrix(.01755 0 0 -.01755 20.293 418.584)"/><path d="m4794.14 14787.9 20.24-2.9-20.19 3.9zm-1.85-12.5c-11.37-9.4-25.68-15.4-42.63-17.8-3.38-.5-5.91-1.7-6.77-3.1-2.68-4.4 3.3-19.6 20.76-30.3 17.43-10.7 33.75-9 36.46-4.6.95 1.6.68 4.8-.73 8.5a107.2 107.2 0 0 0-7.09 47.3m-3.17-100.3c-15.01 0-31.44 4.6-46.93 14-35.71 21.8-50.82 60-34.39 86.9 7.41 12.1 20.19 20 36.01 22.3 10.37 1.5 18.46 5 24.06 10.4l5.46 5.4c11.49 11.2 28.72 13.5 42.82 5.9 14.07-7.6 21.47-23.2 18.42-38.9l-.22-1.1a66.27 66.27 0 0 1 3.36-37c6.24-16 5.35-32-2.5-44.8-9.32-15.3-26.47-23.1-46.09-23.1" style="fill:#231f20;fill-opacity:1;fill-rule:nonzero;stroke:none" transform="matrix(.01755 0 0 -.01755 20.293 418.584)"/><path d="M4380.5 14459.2c-94.31 86.4-64.36 248.5 56.82 289.4 83.08 28.1 180.48 8.9 220.61-87.9 51.14-123.3-53.8-268.1-194.38-243.2-35.2 6.3-61.03 21.5-83.05 41.7" style="fill:#771549;fill-opacity:1;fill-rule:nonzero;stroke:none" transform="matrix(.01755 0 0 -.01755 20.293 418.584)"/><path d="M4394.38 14474.4c21.9-20.1 45.01-31.7 72.75-36.6 56.15-9.9 111.19 10.9 147.24 55.8 36.85 45.9 46.26 106.9 24.57 159.2-38.19 92.1-128.95 98.7-195.03 76.4-48.54-16.5-84.08-57.3-95.04-109.3-11.49-54.5 5.52-108.9 45.51-145.5m100.53-80.2c-11.54 0-23.22 1-34.96 3.1-35.77 6.3-65.43 21.2-93.34 46.7h-.01c-50.84 46.6-72.51 115.5-57.98 184.4 13.99 66.4 59.65 118.6 122.11 139.7 89.49 30.3 200.28 11.2 246.21-99.5 27.46-66.2 15.77-143.2-30.5-200.8-38.08-47.4-93-73.6-151.53-73.6" style="fill:#231f20;fill-opacity:1;fill-rule:nonzero;stroke:none" transform="matrix(.01755 0 0 -.01755 20.293 418.584)"/><path d="m4561.87 14663.7-.2-1c-3.19-16.2-1.64-33.1 4.37-48.5 3.73-9.5 3.74-19-.89-26.6-10.26-16.8-39.24-17.8-64.73-2.2-25.48 15.6-37.83 41.8-27.56 58.6 4.33 7.1 12.03 11.3 21.38 12.6 13.25 1.9 25.9 6.8 35.48 16.1l5.47 5.4c11.13 10.8 29.67.9 26.68-14.4" style="fill:#9b5f20;fill-opacity:1;fill-rule:nonzero;stroke:none" transform="matrix(.01755 0 0 -.01755 20.293 418.584)"/><path d="m4541.63 14666.7 20.24-3-20.19 4zm-1.84-12.5c-11.37-9.5-25.68-15.5-42.63-17.9-3.38-.5-5.9-1.6-6.74-3-1.18-1.9-.61-6 1.42-10.3 3.46-7.4 10.5-14.7 19.3-20.1 17.46-10.6 33.77-9 36.45-4.6.97 1.6.7 4.8-.71 8.5-5.92 15.1-8.32 31.3-7.09 47.4m-3.16-100.4c-15.01 0-31.45 4.6-46.93 14-15.74 9.7-28.19 23-35.08 37.7-8.14 17.3-7.87 35.2.69 49.2 7.4 12.1 20.19 20 36.02 22.3 10.34 1.5 18.44 5 24.04 10.5l5.46 5.3c11.49 11.2 28.73 13.6 42.83 5.9 14.06-7.6 21.46-23.2 18.41-38.9l-.11-.6c-2.53-12.8-1.38-25.6 3.25-37.5 6.25-16 5.36-31.9-2.5-44.8-9.31-15.2-26.46-23.1-46.08-23.1" style="fill:#231f20;fill-opacity:1;fill-rule:nonzero;stroke:none" transform="matrix(.01755 0 0 -.01755 20.293 418.584)"/><path d="m4026.84 21233.8-46.84-1916c3.12-239.6-493.56-537.6-867.42-740.8-19.21-10.4-34.92-19-46.35-25.4-341.38-191.2-491.52-293.8-473.01-725.2l29.98-700.1c39.52-918.6 85.39-1987.6 114.74-2672 18.72-434.7 31.05-723 31.1-724.2 10.7-302.4 809.32-768.9 1773.13-772.7h11.74c424.37 0 852.17 91.7 1206.01 258.7 308.61 145.6 514.49 328.9 537.76 478.7l191.4 4041.5c19.46 413.6-93.33 530.5-551.9 776.2-35.99 20.1-874.07 490.8-872.74 762.3l-27.28 1948.3zm527.35-8317.6H4542c-447.65 1.8-897.29 101.2-1266.08 279.9-332.08 160.9-542.06 365-547.99 532.6-.11 2.6-12.25 286.3-31.09 723.8-29.35 684.5-75.23 1753.5-114.75 2672l-29.98 700.1c-19.51 454.7 146.63 568.4 494.01 762.9 11.56 6.5 27.42 15.1 46.81 25.6 563.42 306.3 848.04 543.5 845.94 704.9l47.84 1957.4 1091.01-11.6 27.85-1988.8c-1-205.8 614.21-594.1 851.34-726.4 469.35-251.4 593.64-381.1 573.25-814.2l-191.64-4044.7c-46.93-312.8-815.85-773.5-1784.33-773.5" style="fill:#231f20;fill-opacity:1;fill-rule:nonzero;stroke:none" transform="matrix(.01755 0 0 -.01755 20.293 418.584)"/><path d="M5096.45 21469.8v-2083.1s-145.2-97.8-530.37-94.6c-101.61.8-190.89 10.6-267.23 24.4-108.78 19.8-191.33 47.9-245.66 70.5-51.17 21.3-107.56 44.2-107.56 44.2l33.22 2089.1 74.34-3.4 245.66-11z" style="fill:#771549;fill-opacity:1;fill-rule:nonzero;stroke:none" transform="matrix(.01755 0 0 -.01755 20.293 418.584)"/><path d="M4362.02 21492.7v-2189.4c-108.77 19.8-191.32 47.9-245.65 70.6v2129.8z" style="fill:#fbcedd;fill-opacity:1;fill-rule:nonzero;stroke:none" transform="matrix(.01755 0 0 -.01755 20.293 418.584)"/><path d="M3981.59 19441.9c47.15-25.2 257.66-126.6 584.68-129.3 320.41-2.3 472.64 66.2 509.64 86v2051.6l-1076.62 48.6zm602.81-170.5c-6.11 0-12.23 0-18.47.1-383.53 3.1-606.35 135.1-615.66 140.7l-10.03 6.1.11 11.7 18.18 2111.8 1158.51-52.3v-2113.7l-9.07-6.1c-6.05-4.1-150.26-98.3-523.57-98.3" style="fill:#231f20;fill-opacity:1;fill-rule:nonzero;stroke:none" transform="matrix(.01755 0 0 -.01755 20.293 418.584)"/><path d="m5167 21784.8-.53-176.9c0-99.7-66.44-186.9-162.36-214.4-239.23-68.4-481.94-79.8-727.8-37.8-60.65 10.2-121.4 23.8-182.47 40.5-17.38 4.8-33.69 11.5-48.97 19.9-70.12 38.5-115.92 112.5-115.92 195.2l2.84 170.2c0 26.3 4.95 52.3 14.32 76.9l-3.16 87.6-3.05 10.3c-3.69 13.1-5.69 26.5-5.9 40.1l-5.05 446.1h1237.52V21978c0-24.7-5.47-49.2-16.01-71.5l-.73-56 .84-1.6c10.85-19.7 16.43-41.8 16.43-64.1" style="fill:#771549;fill-opacity:1;fill-rule:nonzero;stroke:none" transform="matrix(.01755 0 0 -.01755 20.293 418.584)"/><path d="m3949.75 22421.9 4.82-425.2c.18-11.7 1.9-23.4 5.12-34.8l3.72-12.6 3.4-94.4-1.49-3.9c-8.6-22.5-12.96-45.9-12.96-69.5l-2.84-170.6c0-73.3 40.33-141.1 105.24-176.7 14.21-7.9 29.15-13.9 44.48-18.1 60.91-16.7 121.62-30.2 180.5-40.1 244.44-41.8 486.23-29.2 718.71 37.3 86.82 24.9 147.46 104.9 147.46 194.6l.52 176.9c-.01 19-4.81 37.7-13.88 54.2l-3.46 6.4.87 65.8 1.9 4.1c9.18 19.5 14.05 41.1 14.05 62.7v443.9zm610.74-1111.2c-95.24 0-191.23 8.3-287.64 24.7-60.17 10.2-122.24 24-184.46 41-18.44 5-36.45 12.4-53.45 21.7-78.04 42.8-126.56 124.5-126.56 213.2l2.85 170.6c0 26.9 4.77 53.8 14.17 79.8l-2.92 80.9-2.31 7.9c-4.25 15.1-6.5 30.3-6.74 45.6l-5.28 466.9h1278.89v-485c0-26-5.54-52.2-16.06-76.1l-.61-46.4c11.23-21.6 17.19-46 17.19-70.7l-.52-177c0-107.9-72.89-204.2-177.26-234.1-146.7-41.9-297.02-63-449.29-63" style="fill:#231f20;fill-opacity:1;fill-rule:nonzero;stroke:none" transform="matrix(.01755 0 0 -.01755 20.293 418.584)"/><path d="M4276.31 21355.7c-60.65 10.2-121.4 23.8-182.47 40.5-17.38 4.8-33.69 11.5-48.97 19.9l-25.06 932.6 51.81 93.8 3.47 6.3 33.49-6.3 148.15-27.9z" style="fill:#fbcedd;fill-opacity:1;fill-rule:nonzero;stroke:none" transform="matrix(.01755 0 0 -.01755 20.293 418.584)"/><path d="M4556.17 21790c-302.24 0-555.17 63.9-609.29 145.7-1.05-19.5-.53-58.4 3.15-78.1 57.7-80.6 303.96-138.1 602.98-138.1 304.09 0 547.78 49.3 597.78 129 1.26 14.6-1.11 39.9-1.69 64.1-80.13-71.3-316.91-122.6-592.93-122.6" style="fill:#71331d;fill-opacity:1;fill-rule:nonzero;stroke:none" transform="matrix(.01755 0 0 -.01755 20.293 418.584)"/><path d="M3969.51 21866c51.46-63.2 265.57-126 583.5-126 291.73 0 526.84 47.2 577.55 115.3.1 5.1-.08 11.5-.37 18.4-105.53-63.3-326.54-104.3-574.02-104.3-264.04 0-490.77 46.7-588.49 117.3.41-7.7 1.02-14.9 1.83-20.7m583.5-167.1c-307.81 0-556.85 59-619.69 146.7l-2.67 3.7-.83 4.5c-4.04 21.6-4.61 62.1-3.49 83l3.37 62.2 34.33-51.9c44.38-67.1 278-136.6 592.14-136.6 263.34 0 501.54 48.3 579.26 117.4l33.18 29.5 1.05-44.4c.21-8.5.63-17.2 1.05-25.4.8-16.2 1.5-30.1.58-40.9l-.42-4.9-2.66-4.3c-64.17-102.2-359.86-138.6-615.2-138.6" style="fill:#231f20;fill-opacity:1;fill-rule:nonzero;stroke:none" transform="matrix(.01755 0 0 -.01755 20.293 418.584)"/><path d="M4611.59 21580.9c-8.09 0-16.11 0-24.1.1-273.48 3.5-558.14 63.1-662.17 138.7l24.17 33.2c96.39-70 376.87-127.4 638.51-130.7 281.44-3.6 523.45 52.8 564.36 105.7l32.53-25.2c-59.98-77.5-333.74-121.8-573.3-121.8" style="fill:#231f20;fill-opacity:1;fill-rule:nonzero;stroke:none" transform="matrix(.01755 0 0 -.01755 20.293 418.584)"/><path d="m3949.79 22421.9 4.79-425.2c.14-11.8 1.86-23.4 5.12-34.7l3.7-12.7 3.39-94.4-1.5-3.9c-8.52-22.2-12.89-45.6-12.99-69.5l-2.75-170.6c0-90.4 61.57-170.6 149.73-194.8 307.76-84.5 610.27-85.4 899.14-2.8 86.86 24.9 147.53 104.9 147.53 194.6l.5 176.9c.01 18.8-4.79 37.6-13.91 54.2l-3.5 6.3.93 66 1.9 4c9.21 19.5 14.08 41.2 14.08 62.7v443.9zm611.15-1111c-155.47 0-313.34 21.9-472.54 65.5-105.98 29.1-179.98 125.7-179.98 234.9l2.76 170.6c.09 27.2 4.87 54.1 14.2 79.8l-2.91 81-2.28 7.9c-4.3 14.8-6.56 30.2-6.73 45.6l-5.28 466.8h1278.9v-485c0-26.1-5.56-52.3-16.1-76.1l-.66-46.4c11.33-21.8 17.29-46.2 17.26-70.8l-.5-176.8c0-108-72.93-204.2-177.35-234.1-146.58-41.9-296.53-62.9-448.79-62.9" style="fill:#231f20;fill-opacity:1;fill-rule:nonzero;stroke:none" transform="matrix(.01755 0 0 -.01755 20.293 418.584)"/><path d="M5166.51 22446.6c0-97.6-277.02-176.8-618.76-176.8-341.73 0-618.77 79.2-618.77 176.8 0 97.7 277.04 176.8 618.77 176.8 341.74 0 618.76-79.1 618.76-176.8" style="fill:#ead1e3;fill-opacity:1;fill-rule:nonzero;stroke:none" transform="matrix(.01755 0 0 -.01755 20.293 418.584)"/><path d="M4547.75 22602.9c-352.53 0-598.2-82.4-598.2-156.3s245.67-156.2 598.2-156.2 598.2 82.3 598.2 156.2-245.67 156.3-598.2 156.3m0-353.6c-309.93 0-639.33 69.1-639.33 197.3s329.4 197.4 639.33 197.4c309.94 0 639.33-69.2 639.33-197.4s-329.39-197.3-639.33-197.3" style="fill:#231f20;fill-opacity:1;fill-rule:nonzero;stroke:none" transform="matrix(.01755 0 0 -.01755 20.293 418.584)"/></g></svg>