<svg xmlns="http://www.w3.org/2000/svg" xml:space="preserve" width="200mm" height="200mm" viewBox="0 0 200 200"><g style="display:inline"><path d="M11441.1 17461.9c-819.2 0-1538.93 126.1-1940.48 315.8-65.36 30.9-122.36 63.5-169.95 97.4-87.36 62.5-139.59 162.7-142.11 269.9l-27.45 1160.5c0 34.4 19.36 65.8 50.25 81 48 23.9 74.5 76.8 70.39 130.2l-351.43 4480.6c-27.04 344 191.02 659.7 522.18 756.3l733 213.8c271.9 79.5 439.7 351.5 388.4 630l-45.1 238.1c-40.7 215.4-33 437.1 22.5 649l74.9 286.2c200.2-74.1 466.8-131.3 813-131.3 43.1 0 87.4.9 133 2.7 285.7 11.7 537.2 47.1 752.7 93l63-270.9c39.1-168.7 43.6-343.8 13.1-514.4l-62.3-348.3c-51-277.9 115.9-549.5 386.9-629.4l728-214.6c334.3-98.7 552-420.3 519.1-767.3l-420.1-4436.5c-7.3-76.8 34.9-149.8 105-181.9 32.4-14.7 53.1-46.9 53.1-82.4 0 0-13.7-857.2-21.8-1176.6-1.8-75.3-33.9-147.3-90.7-196.7-297.3-259.7-1126.5-448.1-2109-454-16-.2-32-.2-48.1-.2" style="fill:#eaf8f6;fill-opacity:1;fill-rule:nonzero;stroke:none" transform="matrix(.01546 0 0 -.01546 -77.042 461.035)"/><path d="M9497.53 24221.4c198.77 124.3 522.57 296.1 868.17 354.2 50.5 8.5 102.1 7.8 152.1-2.8 123.7-26.1 393.2-81.5 616-116.4 189-29.5 331.3-187.5 340.6-378.5l248-5084.8s-1524.5 26.5-1948.69 212.1c-205.96 400.4-411.92 3743.9-464.44 4651.7-8.49 146.8 63.56 286.6 188.26 364.5" style="fill:#fff;fill-opacity:1;fill-rule:nonzero;stroke:none" transform="matrix(.01546 0 0 -.01546 -77.042 461.035)"/><path d="m11501.4 17477.4-12.2-15.3c-16-.2-32-.2-48.1-.2-819.2 0-1538.94 126.1-1940.48 315.8l-49.45 1573.3s565.53-309.3 1281.43-327l715.8-17.7z" style="fill:#fff;fill-opacity:1;fill-rule:nonzero;stroke:none" transform="matrix(.01546 0 0 -.01546 -77.042 461.035)"/><path d="M11380.3 18979.6c-1393.96 0-2030.72 393.6-2037.08 397.6-11.43 7.3-14.81 22.4-7.57 33.9 7.25 11.4 22.4 14.8 33.83 7.6 6.36-4.1 652.12-401.8 2073.72-389.8 504.2 4.2 948.2 52.2 1319.5 142.5 13.1 3.1 26.4-4.9 29.6-18.1 3.2-13.1-4.9-26.4-18.1-29.6-374.9-91.2-822.6-139.6-1330.6-143.9-21.2-.2-42.4-.2-63.3-.2" style="fill:#231f20;fill-opacity:1;fill-rule:nonzero;stroke:none" transform="matrix(.01546 0 0 -.01546 -77.042 461.035)"/><path d="m13472.8 23099.8-339.1-2629.9c-26.1-202.6-164.3-372.9-357.2-440.3l-1076.6-375.4c-3.2-1.1-6.4-2.1-9.5-3.1-115.8-38.2-241.3-35.9-355.7 6.7l-1276.5 473.6c-194.08 72.1-329.83 248.8-349.32 454.8l-244.32 2578.5c-34.2 360.5 289.93 651.8 644.94 579.1 471.5-96.6 934.9-151.9 1389-161.2 453.8-9.4 898.4 27.4 1332.8 114.9 362.1 72.9 688.7-231.4 641.5-597.7" style="fill:#bbe9f2;fill-opacity:1;fill-rule:nonzero;stroke:none" transform="matrix(.01546 0 0 -.01546 -77.042 461.035)"/><path d="M11690.4 19651.1c-115.8-38.2-241.3-35.9-355.7 6.7l-1276.5 473.6c-194.08 72.1-329.83 248.8-349.32 454.8l-244.32 2578.5c-34.2 360.5 289.93 651.8 644.94 579.1 471.5-96.6 934.9-151.9 1389-161.2z" style="fill:#d3f0f6;fill-opacity:1;fill-rule:nonzero;stroke:none" transform="matrix(.01546 0 0 -.01546 -77.042 461.035)"/><path d="M12576.5 20811.7h.1zm-1038.2-485.3 52.5-15.6c1.9-.5 4.2-.9 6.7-1l18.2-.6 16.6-7.5c15.9-7.1 32.3-13.9 49-20.3 53.8-20.2 111.3-34.6 170.1-42.7 60.1-8.5 121-8.8 181.1-.9 65.9 8.6 126.7 29 180.8 60.6 57.7 33 109 87.1 138.1 145.4l3 5.5c.5 1 2.1 5.3 3.3 8.3s2.3 5.9 3.5 8.8l9.4 24.5 3.2 10.2c2.4 7.8 4.8 15.6 7 23.6 3.1 12.1 6.5 23.9 9.9 35.7 4.3 14.8 8.3 28.9 11.7 43l.9 3.5c5.8 20.2 11.3 40.4 16.7 60.6 7.6 28 15.4 56.8 24 85.7-3.7-3-7.4-6.1-11.2-9.5l-345.4-300.7 213.9 437.7c3.7 7.5 7.3 15 11 22.5-3.7-2.1-7.3-4.3-11-6.5l-190.8-114.6 52.9 216.2c6.4 26.3 12 52.5 16.9 78.3-9.9-10.2-20.4-20.8-31.6-31.9l-186.1-186 28.3 261.6c7.5 69.8 7.4 142 3 211.3-28.2-71.1-62.8-146-104.9-220l-98.3-172.5-69.3 186c-23.8 63.8-55 159.5-77.6 271.9-18.7-63.9-35.6-134.7-49.7-209.4l-57.8-306.2-119.1 287.9c-7.8 18.9-15.7 36.6-23.5 53.3 12.5-89.3 23-192.5 28-307.1l26.3-596.3-210.2 571.4c-36.6 40.2-141.3 158.4-242.9 305.8 5.2-46 11.6-92.9 19.3-138.8l76.9-455.1-228.1 360.5c5.7-38.3 13.1-78.2 22.8-119.1l52.5-222.4-192.7 122.8c-20.5 13-41.5 24.3-62.6 33.4-29.8 12.8-59.5 21.7-88.1 26.4-25.2 4-49.9 5-73.5 2.8l.4-.3c55.4-36.7 94.3-77.6 122-109.1 33-36.8 62.7-77.5 90.3-116 4.9-6.5 8.9-12.3 12.6-18l30.8-45.2 21.3-32.3c2.6-4.1 6.3-9.4 9.9-14.5l16.6-23.5c40.2-54.3 85.1-98.3 133.4-130.9l23.3-15.1c4.5-2.9 10.3-5.9 16-9l4.6-2.5c11.9-6.8 26.6-13.1 42.1-19.8 29.8-11.7 60.4-19.9 90.9-24.5 29.6-4 60.3-4.4 90-1 28.4 3.3 56.2 10.3 82.5 20.8 10.5 4.2 21.2 9.3 32.6 15.4l54.5 29.6 48.1-39.1c2.7-2.1 4.4-2.9 8.7-2.7 20.1.6 34.7 6.4 47.3 18.8zm406.8-279.9c-39.9 0-79.8 2.8-119.3 8.4-72.1 9.9-143 27.7-210.3 53-10.6 4.1-21.1 8.2-31.3 12.5-37.1-22.7-79.8-35.2-126.1-36.7-26.5-.9-52 3.2-75.9 12.1-1.7-.7-3.3-1.4-5-2-41.7-16.7-85.5-27.8-130.4-33-45.2-5.2-91.4-4.6-137.4 1.7-46.2 6.9-90.9 19-134.3 36.2l-2.3 1c-18.8 8-40 17.1-60.9 28.9l-2.1 1.1c-8.4 4.6-17.9 9.7-27.7 15.9l-26.4 17c-66.4 44.7-127.1 103.9-180.3 175.9l-18.7 26.5c-5.3 7.6-10.7 15.4-13.6 19.9l-52.2 77.6c-1.9 3.1-4 6-6.1 8.8l-1 1.4c-24.8 34.6-51.3 70.9-78.7 101.5-31 35.2-56.4 58.2-85.5 77.5-16.6 10.9-34.4 20.2-53.9 28.3-25.6 9.9-47.3 15.9-70.4 19.4l-134.6 20.5 68.3 117.8c16 27.7 36.8 48.1 53.1 62.8l1.9 1.7c8.2 7 17.2 14 27.5 21.3l1.6 1.2c11.2 7.7 22 13.9 30.1 18.5 41.5 23.1 87.9 38.4 138.2 45.8 46.2 6.7 94.4 6.1 143.2-1.7 16.3-2.7 32.7-6.2 49.1-10.5-24.9 198.7-8.5 345.5-7.7 353.3l33.7 289.9 89.8-164.4c-3.7 93.6-3.2 157-3.2 162.7l6.1 607 175.6-581.1c42.9-142.2 145.6-300.3 238.4-423.9-29.3 196.5-67.7 313.4-68.2 315.1l-58.8 176.3 176.3-59c14-4.7 108.9-40.9 213.6-190 39.7 133 96.4 270.8 174.3 350.1l176.5 179.9-17.7-251.4c-7.9-112.1 6.2-225 26.5-321.5 71.6 187.5 94.9 342.7 95.3 344.8l61.1 419.1 119.7-406.2c3.1-10.7 58-199.5 73.5-424.5 16.7 23.3 25.9 40.7 36.2 60.3 3.5 6.6 7.1 13.3 10.9 20.4l179.1 328.8-4.8-374.4c-.1-6.1-1.6-107.1-19.9-240 67.6 31.3 112.5 47 115.6 48.1l245.6 85.3-136.1-221.5c-12.2-19.8-24.2-40.6-36-62h.3c3.2-.1 6.4-.2 9.6-.4l6.1-.3c4.8-.3 12-.8 20.8-2.3 14.8-2.6 37-7.6 58.9-21.1l115.7-71.2-108.3-81.9c-1.9-1.4-6-7.7-8.3-11.3l-10.4-19.4c-1.2-2.9-2.5-5.9-3.7-8.7-8.1-18.8-15.3-39.1-23.9-67.7-9.5-31.2-17.9-62-26.7-94.7-5.6-20.4-11.1-40.8-16.9-61.2-4.2-17.1-8.8-33.1-13.2-48.6-3-10.5-6-21-8.9-31.9-2.8-10.5-5.9-20.8-9.1-31.1l-5.7-18-12.5-32.3c-.8-2-1.6-4.1-2.4-6.1-3.3-8.3-7.6-19.4-14.3-31.4-45.7-90.1-122.1-170.4-210-220.6-74.8-43.8-159-72.2-249.6-84-37-4.9-74.3-7.3-111.5-7.3" style="fill:#fff;fill-opacity:1;fill-rule:nonzero;stroke:none" transform="matrix(.01546 0 0 -.01546 -77.042 461.035)"/><path d="M11318.5 20940s-345.5 366.9-439.4 677.4c0 0-6.8-688.9 162.5-938.3 169.4-249.4 439.4-180.8 439.4-180.8z" style="fill:#47b173;fill-opacity:1;fill-rule:nonzero;stroke:none" transform="matrix(.01546 0 0 -.01546 -77.042 461.035)"/><path d="M10906.2 21481.2c7.6-211.8 37.7-614.5 155.7-788.3 127.3-187.5 316.1-184.1 385.9-175.4l-150.6 409.4c-33.1 35.6-267.9 292.9-391 554.3m491.1-1015.5c-99.3 0-260.7 29.9-376 199.6-171.7 252.9-167 923.9-166.7 952.3l1.6 160.4 46.4-153.5c91.1-301.5 430.3-664.1 433.8-667.7l3.4-3.6 173.6-472-26.4-6.6c-1-.3-36.4-8.9-89.7-8.9" style="fill:#231f20;fill-opacity:1;fill-rule:nonzero;stroke:none" transform="matrix(.01546 0 0 -.01546 -77.042 461.035)"/><path d="M11709.8 21747.8c-160.2-163.2-242.5-700.3-231.1-750.6s34.3-439.4 34.3-439.4l317.4 544.7s-143.5 320.4-120.6 645.3" style="fill:#307956;fill-opacity:1;fill-rule:nonzero;stroke:none" transform="matrix(.01546 0 0 -.01546 -77.042 461.035)"/><path d="M11682.8 21672c-122.5-199.1-188.4-628.1-180.2-669.4 8.6-37.9 22.5-243.8 30-362.5l270.3 464c-23.6 56.3-119.3 300.5-120.1 567.9m-189.5-1196.7-4.8 81.1c-6.3 107.6-24.7 395.7-33.7 435.4-13.2 58 72 604.5 237.5 773.2l46.7 47.5-4.7-66.4c-22.2-315.2 117-630.5 118.4-633.6l5.2-11.5z" style="fill:#231f20;fill-opacity:1;fill-rule:nonzero;stroke:none" transform="matrix(.01546 0 0 -.01546 -77.042 461.035)"/><path d="M12016 21751.3s180.7-613.4-23.7-925.6c-131.1-200.3-478-472.1-495.3-544.8-78.4 262-51.1 441.9 141.9 644.9 304.4 320.1 377.1 825.5 377.1 825.5" style="fill:#47b173;fill-opacity:1;fill-rule:nonzero;stroke:none" transform="matrix(.01546 0 0 -.01546 -77.042 461.035)"/><path d="M12018.6 21637.6c-39.2-168.6-139.3-494.6-361.9-728.7-166.3-174.9-209.7-332.9-150.9-567.6 31 37.8 83.4 89.1 158 161.3 106.7 103.3 239.5 231.9 308 336.5 145.7 222.5 87.1 611.3 46.8 798.5m-518.9-1451.2-26.2 87.5c-84.1 281-42.7 468.6 147.7 668.8 295.5 310.8 369.8 807.1 370.5 812.1l16 111.3 31.8-107.9c7.5-25.5 181.5-627.9-26.7-946-71.5-109.1-206.4-239.8-314.9-344.8-80-77.4-170.6-165.2-177-192.2z" style="fill:#231f20;fill-opacity:1;fill-rule:nonzero;stroke:none" transform="matrix(.01546 0 0 -.01546 -77.042 461.035)"/><path d="M11497.8 20281.7s404.9-81.3 646.8 161.7c146.9 147.4 248.1 448.1 381.4 665.2 0 0-373.8-129.5-606.1-409.6-194.5-234.4-422.1-417.3-422.1-417.3" style="fill:#307956;fill-opacity:1;fill-rule:nonzero;stroke:none" transform="matrix(.01546 0 0 -.01546 -77.042 461.035)"/><path d="M11556 20298.5c115.4-11.6 392.3-17.4 571.3 162.2 88.5 88.9 159.8 235.2 235.3 390 34.2 70 69.2 141.8 106.3 208.5-116.2-50.3-362.4-173.7-530.2-375.9-143.6-173.2-307-319.8-382.7-384.8m102.1-54.9c-92.6 0-158.5 12.7-165.1 14l-51.5 10.3 40.9 32.9c2.3 1.8 228.1 184.2 418.6 413.9 234 282 601.5 411.7 617 417l64.9 22.5-36-58.5c-49.6-80.8-95.7-175.2-140.2-266.5-77.3-158.6-150.4-308.4-244.7-403.1-151.2-151.8-359.8-182.5-503.9-182.5" style="fill:#231f20;fill-opacity:1;fill-rule:nonzero;stroke:none" transform="matrix(.01546 0 0 -.01546 -77.042 461.035)"/><path d="M11504.8 20306.1c-18.3-29.4-43.2-53.6-70.6-74.5-27.5-21.2-58.4-38.4-91.7-51.8-33.2-13.3-69.1-22.5-106.4-26.8-37.2-4.3-75.8-3.8-114.2 1.4-38.3 5.8-76.2 16.1-112.5 30.5-17.8 7.6-35.9 15.4-52.6 24.9-8.5 4.6-17.1 9.2-25.2 14.3l-24.1 15.6c-63.6 42.8-115.3 96.8-157.5 153.9l-15.2 21.7c-5 7.2-10.7 15.3-13.5 19.6l-20.7 31.5-20.7 30.6-10.4 14.9c-3.3 5.3-6.8 10.1-10.3 14.9-27.8 38.8-55.1 76-85 109.4-29.8 33.8-61.7 65.2-103.2 92.8-20.8 13.6-44.2 26.2-70.8 37.2-26.8 10.4-56.3 19.7-91 25 9.1 15.6 21.6 28.3 35 40.3 6.8 5.8 13.9 11.3 21.4 16.6 7.4 5.1 15.2 9.7 23.2 14.3 32 17.8 68.3 29.3 106.1 34.8 37.7 5.5 76.9 4.6 115-1.5 38.1-6.3 75.1-17.9 110-32.8 69.9-30.4 129.9-74.7 180.2-124.4 25.5-24.8 48-51.3 68.9-78.5 10.8-13.5 19.8-27.7 29.7-41.6l11.6-16.9 9.9-14.8c26.6-38.9 53.6-74.8 82.5-105.8l10.7-11.9c3.7-3.9 7.6-7.1 11.2-11.1 7.2-7.9 15.3-14.1 22.8-21.7 15.9-13.4 32.3-27 50.4-39.2 36-24.1 78.7-45.4 129.9-60.8 25.6-7.9 53.1-13.9 82.5-19.3 29.6-5 60.4-8.6 94.6-10.8" style="fill:#47b173;fill-opacity:1;fill-rule:nonzero;stroke:none" transform="matrix(.01546 0 0 -.01546 -77.042 461.035)"/><path d="M10353.8 20807.1c17.9-4.7 36-10.6 55.2-18 27.3-11.2 51.8-24.1 75.4-39.6 48.3-32.1 83.2-68.8 108.2-97.1 31.2-34.9 59.9-74.2 86.5-111.4 3.7-4.8 7.5-10.2 11.1-16l30.7-44.9 20.9-31.7c2.5-4 7.1-10.5 11.5-16.8l16.8-23.8c44.9-60.8 95.8-110.6 151.1-147.8l23.7-15.3c6.5-4.1 13.6-7.9 20.6-11.7l3-1.6c15.9-9 33.4-16.6 50.3-23.8 34.6-13.7 70.6-23.5 106.7-28.9 36.1-4.9 72.5-5.4 107.9-1.3 34.5 4 68.2 12.5 100 25.2 31.9 12.8 60.7 29.1 85.8 48.4 14.9 11.4 27.7 22.9 38.8 34.6-17.8 1.9-34.9 4.3-51.9 7.2-33.8 6.1-60.9 12.4-85.5 19.9-49.4 14.9-95.3 36.4-136.5 63.9-19 12.8-35.7 26.6-52.5 40.8l-1.6 1.5c-3 3-6 5.7-9 8.4-4.7 4.3-9.6 8.7-14.6 14.2-1.3 1.4-2.8 2.9-4.4 4.3-2.2 2.1-4.4 4.2-6.5 6.5l-11 12c-26.9 29-53.8 63.5-84.6 108.5l-21.5 31.8c-3.1 4.3-6.3 9.1-9.6 13.9-6.3 9.2-12.3 17.9-18.9 26.2-23.1 30-44.9 54.8-66.9 76.2-53.4 52.7-111.5 92.9-172.9 119.5-35 15-70.1 25.4-104.2 31.1-37 5.9-73.2 6.4-107.5 1.4-36.2-5.3-69.1-16.1-97.7-32-5.9-3.3-13.8-7.9-21.3-13-7.1-5.2-13.6-10.2-19.3-15-2-1.9-4.1-3.8-6.3-5.8m831.3-681.5c-22.1 0-44.3 1.5-66.5 4.5-40.2 6-79.8 16.8-118.3 32-19 8.2-37.8 16.3-55.6 26.4l-2.5 1.3c-7.8 4.2-15.8 8.6-23.7 13.5l-24.3 15.8c-60.3 40.5-115.3 94.3-163.9 160l-17.2 24.4c-4.8 6.8-9.8 14.1-12.5 18.2l-51.2 76.2c-3.6 5.6-6.7 10-9.9 14.2-26.1 36.5-53.8 74.5-83.6 107.7-34.7 39.5-64.2 66-98.5 88.8-20.9 13.6-42.7 25.1-66.6 34.9-29.9 11.7-57.2 19.1-85.2 23.4l-35.6 5.4 18 31.1c11.2 19.4 26.4 34.3 39.8 46.4 7.2 6.1 14.7 12 23.5 18.2 9.4 6.5 18.5 11.8 25.4 15.7 33.9 18.9 72.5 31.6 114.6 37.7 39.3 5.7 80.5 5.2 122.5-1.5 38.1-6.3 77-17.9 115.7-34.5 67-29.1 130.2-72.6 187.8-129.5 23.6-22.9 46.9-49.4 71.2-80.9 7.4-9.4 14.2-19.2 20.7-28.8 3.1-4.5 6.3-9 9.5-13.5l21.9-32.4c29.2-42.7 54.7-75.4 80-102.8l10.9-11.9c1.3-1.4 2.9-2.9 4.4-4.3 2.3-2.2 4.5-4.3 6.7-6.7 3.5-3.8 7.3-7.2 11.3-10.9 3.4-3.1 6.8-6.2 10.2-9.5 15.4-13 30.8-25.7 47.4-36.9 37.5-25 77.9-43.9 123.3-57.7 22.8-6.9 48.1-12.8 79.8-18.5 28.9-4.9 59-8.4 91.8-10.5l40.9-2.7-21.7-34.7c-18-29-43.1-55.5-76.5-81.1-28.6-22-61.4-40.5-97.4-55-36-14.4-73.9-24-112.7-28.5-17.8-2-35.8-3-53.9-3" style="fill:#231f20;fill-opacity:1;fill-rule:nonzero;stroke:none" transform="matrix(.01546 0 0 -.01546 -77.042 461.035)"/><path d="M11475 20285.7c64.7 13.9 125.7 24.2 185.4 35.7 59.5 10.9 117 22.2 171.9 34.8 54.9 12.5 106.9 27.1 153.9 44.3 47.3 16.9 88.1 37.9 120.1 60.8 4.3 2.6 7.8 5.8 11.4 8.8l11 8.7c3.1 3.2 6.3 6.4 9.5 9.4 1.6 1.6 3.3 3 5 4.5l4.2 4.9c2.8 3.2 5.6 6.4 8.6 9.5 2.5 3.4 4.9 6.9 7.5 10.2s5.5 6.4 7.4 10.3c2.3 3.7 4.6 7.2 7.1 10.7l1.9 2.7 1.5 3 3.2 5.9 3.3 5.9 1.7 2.9.9 1.5c.3.4.6.9 1.1 2 7.3 14.8 14.2 29.6 21.9 44.1 14.2 29.3 33 57.8 50.9 85.6 38.6 55.4 84.9 108.1 143.5 150.7 14 10.8 30.6 20.3 46.3 29.2 8 4.4 16.8 8.4 25.3 12.1 4.3 1.8 8.4 3.6 12.8 5.3l13.4 4.7c4.5 1.6 9 2.8 13.5 4.1 4.5 1.2 9.4 2.1 14 3.1 4.7 1 9.2 1.9 13.9 2.5l14.3 1.2 7 .4c2.4-.1 4.9-.2 7.3-.3 4.8-.4 9.3-.4 14.1-1.3 9.3-1.6 18.6-4 26.4-8.8-14.3-10.8-23.1-23.8-31.2-36.4l-5.7-9.5-5.1-9.9c-1.7-3.3-3.3-6.2-4.8-9.6s-2.8-6.9-4.3-10c-11.3-26.1-20-52.3-28-78.9-16.1-52.7-29.4-106-44.5-159-6.7-27.4-14.9-53.1-22.1-80.5-3.6-13.6-8-26.8-12-40.1l-5.4-14.3-5.8-14.9c-4.1-9.9-7.4-20-12.9-29.4-38.7-77.4-103.7-143.6-174.3-184-70.7-41.3-144.8-63.3-215.6-72.5-71-9.3-139.8-8.3-205.8.9-66.1 9.1-129.7 25.2-190.6 48.1-60.8 23.2-119.7 51-173.1 90.9" style="fill:#47b173;fill-opacity:1;fill-rule:nonzero;stroke:none" transform="matrix(.01546 0 0 -.01546 -77.042 461.035)"/><path d="m12170.3 20574-.4-.5zm-.5-.6-.3-.6zm-.5-1-.1-.3zm-631.4-298.9c33.9-20 72.8-38.2 118.9-55.8 59.1-22.2 121.4-37.9 185.3-46.7 66-9.3 133-9.6 199.2-.9 75.1 9.8 144.5 33.2 206.5 69.4 69.3 39.6 129.2 102.9 164.6 173.8l.8 1.4c3.1 5.3 5.5 11.5 8.1 18 1.1 2.8 2.2 5.6 3.4 8.5l10.6 27.6 3.7 12.1c2.7 8.7 5.4 17.5 7.8 26.4 3 11.6 6.3 22.9 9.5 34.2 4.5 15.6 8.7 30.3 12.5 45.8 6 21.4 11.6 41.9 17.1 62.4 8.7 32.1 17.7 65.3 27.7 98 6.7 22.3 16.1 51.8 29 81.4 1.1 2.4 1.8 4.1 2.5 5.8l1.8 4.3c1.3 3 2.7 5.6 4.1 8.3l7.2 14 5.7 9.5c2.1 3.2 4.1 6.4 6.3 9.6h-1.3l-19.9-1.4c-2.4-.4-6-1.1-9.6-1.9l-5.1-1c-2.9-.6-5.9-1.2-8.7-2l-3.3-.9c-2.8-.8-5.6-1.6-8.3-2.6l-13.7-4.7c-2.1-.8-4.8-2-7.5-3.2l-3.8-1.6c-9.3-4-16.9-7.6-23.2-11-15.1-8.7-30.5-17.5-42.9-27.1-50.8-37-95.9-84.4-138.3-145.3l-2.9-4.5c-16.4-25.4-33.4-51.7-46.1-77.8-5.6-10.5-10.3-20.3-15.1-30.2l-6.9-14.1c-.8-1.8-1.7-3.2-2.3-4.3l-13.3-22.9c-2-2.8-3.9-5.7-5.8-8.6-2.5-4.8-5.5-8.5-7.8-11.3l-1.5-1.9c-2-2.6-3.6-4.8-5.2-7.1l-4-5.1c-2.7-2.8-5.3-5.6-7.8-8.6l-8-8.5-2.6-2.3c-3.2-3.1-6.1-6-9-8.9l-2.4-2.3-11.1-8.6c-3.4-3-7.6-6.7-13-10.1-34.6-24.6-77.9-46.5-125.3-63.4-45.7-16.7-98.5-31.9-156.8-45.1-48.3-11.1-101.7-21.9-172.9-35.1-19.3-3.7-38.9-7.3-58.7-10.9-22.3-4.1-45.1-8.3-68.2-12.8m407.2-158.7c-36.7 0-73.4 2.5-109.8 7.7-67.3 9.2-133.2 25.8-195.8 49.3-74.1 28.4-131 58.3-179.2 94.3l-43.3 32.3 52.8 11.3c44 9.5 86.4 17.3 127.4 24.8 19.7 3.6 39.2 7.2 58.6 10.9 70.6 13.1 123.3 23.7 171 34.7 56.3 12.8 107.1 27.4 151 43.4 43.7 15.6 83.2 35.6 114.2 57.7l1.6 1.1c2.1 1.3 4.4 3.3 7.1 5.5l1.8 1.6 9.8 7.7c2.9 3 6 6 9.1 8.9 1.2 1.2 2.7 2.6 4.3 4l2.9 3.4c2.9 3.3 5.6 6.4 8.5 9.4l.6.8c2.2 3.1 4.3 6.1 6.7 9.1l1.9 2.4c.9 1 1.8 2 2.5 3.2l1.4 2.5q3.75 5.85 7.8 11.7l1.3 2.1 17 32.2c5.1 10.4 10.2 20.8 15.6 31 13.6 28 31.4 55.6 48.6 82.2l3.3 5.2c46.2 66.2 95 117.4 149.7 157.3 14.5 11.1 31.3 20.8 47.6 30.1l1.4.8c7.5 4.1 16.5 8.3 27.3 13l3.6 1.5c3.3 1.5 6.6 2.9 10.1 4.2l14.2 5c3.5 1.2 7.4 2.4 11.2 3.4l3.3 1c4.3 1.2 8.3 2 12.1 2.8l5.3 1.1c4.8 1 9.5 1.9 14.3 2.5l23.9 1.8h.9c2.4 0 4.9-.2 7.3-.3l5-.3c4.4-.3 8.6-.6 13.2-1.4 9.8-1.7 22.9-4.6 34.8-12l30.6-18.8-28.6-21.6c-11-8.3-18-18.6-25.4-30.1l-11.1-20.4c-1-1.8-1.9-3.5-2.7-5.4l-1.4-3.2c-1-2.6-2.1-5.1-3.2-7.4-11.5-26.5-20.3-54.3-26.7-75.4-9.7-32-18.6-64.8-27.2-96.6-5.6-20.7-11.2-41.4-17.1-62-3.8-15.5-8.3-31.4-12.7-46.8-3.2-11-6.3-22-9.3-33.3-2.6-9.5-5.4-18.9-8.3-28.3l-4.4-14.1-11.3-29.5c-1.3-3-2.3-5.5-3.2-8-3-7.4-6.2-15.8-11-24.1-39.7-79.1-106.6-149.6-183.7-193.7-67.4-39.4-143-64.9-224.6-75.5-34.1-4.5-68.3-6.7-102.6-6.7" style="fill:#231f20;fill-opacity:1;fill-rule:nonzero;stroke:none" transform="matrix(.01546 0 0 -.01546 -77.042 461.035)"/><path d="M10758.2 21319.4s-56.8-488.5 196.4-882.1c52.9-82.1 155.7-201.4 317.6-209.1 151.6-7.3 276.8 64.4 193.5 191.2-50.4 76.7-135.9 135.5-215.1 201-201.5 166.7-492.4 699-492.4 699" style="fill:#87d5ab;fill-opacity:1;fill-rule:nonzero;stroke:none" transform="matrix(.01546 0 0 -.01546 -77.042 461.035)"/><path d="M10778 21234.3c-3.5-154.1 12.7-496.8 197.3-783.7 55.6-86.5 152.5-191 298.1-197.9 88.3-4.3 163.3 20.3 186.6 61.1 14.1 24.7 9.1 55.7-14.8 92.1-38 57.8-97.7 105.4-161 155.8-16.4 13.1-32.9 26.3-49.2 39.8-159.6 132-369.1 479.8-457 632.8m515.6-1031.2q-11.1 0-22.5.6c-166.5 7.9-275.2 124.2-337.1 220.3-255 396.5-202.5 878-200.1 898.2l8.9 76.6 36.9-67.6c2.9-5.3 291-530.1 486.6-691.9 16-13.3 32.3-26.3 48.5-39.2 63.5-50.6 129.1-102.9 171.4-167.2 43.4-66.2 32.9-114.5 16.4-143.4-30.9-54.1-109.9-86.4-209-86.4" style="fill:#231f20;fill-opacity:1;fill-rule:nonzero;stroke:none" transform="matrix(.01546 0 0 -.01546 -77.042 461.035)"/><path d="M11664.7 20234.1c-99.8-53.1-206.9 25.1-158.4 124.6 92.4 189.6 226.1 414.8 398.1 578.2 356.9 339.3 356.2 367 402.7 452.4 0 0-6.1-491.9-189.2-726.2-97.2-124.4-262.6-327.6-453.2-429" style="fill:#87d5ab;fill-opacity:1;fill-rule:nonzero;stroke:none" transform="matrix(.01546 0 0 -.01546 -77.042 461.035)"/><path d="M12277.1 21289.1c-42.3-60-125-150.6-355.8-369.9-141.6-134.6-273.8-326.7-393-571.3-15.6-32-11.9-62.5 10.1-83.8 23.1-22.3 67.5-33.5 114.8-8.3 174.9 93 329.9 274.6 445.4 422.4 126.6 161.9 166.2 456.5 178.5 610.9m-678.8-1096.6c-35.5 0-69.1 12.3-93.9 36.3-37.2 35.9-45 89.8-20.2 140.6 121.8 249.8 257.5 446.7 403.3 585.3 325.6 309.5 350.2 356 387.5 426.5 3.4 6.4 6.8 12.9 10.6 19.8l47.3 86.9-1.3-98.9c-.2-20.4-8.3-503-194.3-741-118.5-151.6-278-338.2-461.1-435.5-25.2-13.5-52.1-20-77.9-20" style="fill:#231f20;fill-opacity:1;fill-rule:nonzero;stroke:none" transform="matrix(.01546 0 0 -.01546 -77.042 461.035)"/><path d="M11226.2 21564.7s152.6-457.6 91.5-1098.4c-15.3-161.6 33.6-293.3 137.4-289.9 274.6 9.2 213.5 561.4 79.3 945.9-134.3 384.5-308.2 442.4-308.2 442.4" style="fill:#87d5ab;fill-opacity:1;fill-rule:nonzero;stroke:none" transform="matrix(.01546 0 0 -.01546 -77.042 461.035)"/><path d="M11266.7 21512.2c38.4-145.7 123.6-542.7 75.5-1048.2-10-105 8.1-193.3 48.4-236.2 17.8-18.9 38.8-27.5 63.6-26.9 48.4 1.6 85.5 22.2 113.3 62.7 104.7 152.9 50.9 543.6-56.3 850.6-85.7 245.5-186.3 353.2-244.5 398m184.4-1360.4c-36.9 0-70.1 14.6-96.2 42.4-50.6 53.8-73 153.9-61.6 274.4 59.9 628.3-88.8 1083.9-90.4 1088.4l-15.5 46.5 46.6-15.5c7.5-2.5 186.9-66.3 323.5-457.6 107.9-308.8 169.7-720.5 50.4-894.5-36.7-53.6-87.9-81.9-152-84-1.6 0-3.2-.1-4.8-.1" style="fill:#231f20;fill-opacity:1;fill-rule:nonzero;stroke:none" transform="matrix(.01546 0 0 -.01546 -77.042 461.035)"/><path d="M9999.45 23730.6c-125.29 0-245.91-45.8-341.88-132-122.7-110.2-184.16-267.5-168.6-431.7l244.33-2578.3c18.52-195.5 149.39-365.8 333.4-434.1l1276.5-473.8c112-41.6 235.9-42.8 348.7-3.4l1076.5 375.5c185.2 64.6 315.9 225.7 341 420.2l339.1 2629.9c21.5 166.6-36.6 327.9-159.5 442.4-123 114.5-288 161.2-452.8 128-838.1-168.7-1757.2-153.1-2731.7 46.5-35.1 7.2-70.2 10.8-105.05 10.8m1522.85-4131c-66.5 0-133.1 11.7-196.2 35.1l-1276.5 473.8c-201.51 74.8-344.84 261.4-365.13 475.4l-244.33 2578.4c-17.04 179.8 50.27 352.1 184.66 472.8 134.32 120.6 312.75 169 489.6 132.8 968-198.3 1880.5-213.9 2712.1-46.5 180.5 36.4 361.3-14.7 495.9-140.3 134.6-125.4 198.3-302 174.8-484.5l-339.2-2629.8c-27.4-213.2-170.6-389.5-373.5-460.3L11708 19631c-60-21-122.8-31.4-185.7-31.4" style="fill:#231f20;fill-opacity:1;fill-rule:nonzero;stroke:none" transform="matrix(.01546 0 0 -.01546 -77.042 461.035)"/><path d="M11971.5 28023.3h-.3l-965.5-8.3c-16.7-.2-31.2-11.6-35.4-27.7l-395.2-1509c-54.3-207.1-61.9-427.8-22.2-638.2l45-238.1c53.8-292.1-120.5-574.9-405.5-658.1l-733.08-213.9c-318.29-92.9-530.5-400.2-504.58-730.7l351.43-4480.7c5.07-64.7-28.66-126.6-83.94-154-22.59-11.3-36.62-33.9-36.62-59.1l27.51-1159.9c2.36-99.6 51.61-193.2 131.75-250.5 347.48-248.2 1170.33-408.7 2096.23-408.7 973.7 0 1834.1 180.1 2141 448.2 50.5 44.1 80.5 109.3 82.3 178.9 8 315.5 21.5 1167.7 21.7 1176.3 0 25.4-15.2 49-38.6 59.7-79.6 36.4-127.5 119.4-119.3 206.5l420.2 4436.4c31.7 334.6-179.3 646.5-501.7 741.5l-728 214.7c-283.9 83.7-457.6 366.3-404.1 657.3l62.3 348.1c30.1 168.4 25.8 338.2-12.9 504.7l-356.6 1536.2c-3.9 16.7-18.6 28.4-35.9 28.4m-530.4-10585.9c-935.5 0-1769.48 164-2124.75 417.8-92.62 66.2-149.54 174.3-152.27 289.3l-27.51 1160.4c-.01 44.6 24.46 84 63.85 103.6 37.52 18.6 60.38 61.4 56.85 106.3l-351.43 4480.6c-27.72 353.6 199.27 682.4 539.75 781.7l733.01 213.9c260.8 76.1 420.3 334.9 371.1 602l-45 238c-41.1 217.5-33.2 445.6 22.9 659.8l395.2 1508.8c9.7 37.5 43.6 64.1 82.5 64.4l965.5 8.4h.8c40.1 0 74.4-27.2 83.6-66.4l356.6-1536.2c40.1-173 44.6-349.5 13.4-524.4l-62.3-348.2c-49-266.4 109.9-525 369.6-601.6l728-214.6c344.9-101.7 570.6-435.3 536.7-793.2l-24.4 2.3 24.4-2.3-420.2-4436.4c-6.2-66.4 30.3-129.6 90.9-157.3 40.8-18.7 67.2-59.8 67.2-104.7-.1-9-13.6-861.4-21.7-1177.2-2.1-83.2-38.2-161.4-99-214.6-315.2-275.3-1188.6-460.2-2173.3-460.2" style="fill:#231f20;fill-opacity:1;fill-rule:nonzero;stroke:none" transform="matrix(.01546 0 0 -.01546 -77.042 461.035)"/><path d="m10273 28234.9 329.5-645.3s82.4-192.3 851.3-219.7c768.9-27.5 972.1 232.9 972.1 232.9l300.6 658.9c7.9 17.2-4.7 36.8-23.6 36.8l-2439.9 5c-13.7 0-22.2-15-15.1-26.7z" style="fill:#e6e9e7;fill-opacity:1;fill-rule:nonzero;stroke:none" transform="matrix(.01546 0 0 -.01546 -77.042 461.035)"/><path d="m10520.5 28140.1 300.5-680.5s353.5-44.2 375.6-44.2-44.2 618.7-44.2 618.7-521.4 57.4-631.9 106m2037.1 35.4-296.1-676.1s-128.1-57.4-185.6-66.3l137 640.8s154.7-8.9 344.7 101.6" style="fill:#fff;fill-opacity:1;fill-rule:nonzero;stroke:none" transform="matrix(.01546 0 0 -.01546 -77.042 461.035)"/><path d="m10275.2 28278.9 19.7-32.9 330.2-646.8c.6-1.1 96.9-178.6 829.6-204.8 708.8-25.2 929.6 198.7 950.3 221.7l299.2 655.8-.1 1.4-1.3.7zm1290.6-935.6c-36.2 0-73.8.7-112.9 2.1-752.4 26.9-861.1 208.5-872.5 233.6l-328.8 644-24.8 41.2c-7.8 13-8 29.2-.5 42.4s21.5 21.4 36.7 21.4h.1l2439.8-4.9c17.3-.1 33.1-8.8 42.5-23.3 9.3-14.5 10.6-32.6 3.4-48.3L12447 27590l-1.7-2.3c-8.2-10.5-199-244.4-879.5-244.4" style="fill:#231f20;fill-opacity:1;fill-rule:nonzero;stroke:none" transform="matrix(.01546 0 0 -.01546 -77.042 461.035)"/><path d="M12730.5 28315.7c11.3-8.2 13.8-24 5.8-35.5-61.8-88.3-264.2-159.2-559.6-201.4-192.2-27.4-423.8-42.7-681.4-42.7-242.2 0-462 15.8-648.1 42.5-309.7 44.4-526.6 118.8-599.1 200.9-11.6 13-11.6 32.9.8 45.1 108.9 107.9 349.6 176.8 706.3 208.9 157.8 14.2 338.2 21.2 540.1 21.2 212.9 0 393.6-8.4 548.2-25 329.4-35.4 539.5-107.7 687-214" style="fill:#b9dcdd;fill-opacity:1;fill-rule:nonzero;stroke:none" transform="matrix(.01546 0 0 -.01546 -77.042 461.035)"/><path d="M11495.3 28530.2c-200.9 0-381.9-7.1-537.9-21.1-355.8-32.1-588.4-100-691.2-201.9-2.9-2.9-2.8-8 .2-11.4 69.3-78.3 287.7-150.4 584.3-193 193-27.6 415.9-42.2 644.6-42.2 248.9 0 483.3 14.7 678 42.5 288.9 41.2 486.8 110.9 542.8 191.2v1.5c-152.4 109.8-367 176.4-675.3 209.6-155.9 16.7-334.3 24.8-545.5 24.8m0-518.6c-231 0-456.3 14.7-651.5 42.7-312.4 44.8-536.3 120.9-614.1 209-20.3 22.9-19.5 57.5 1.9 78.7 111.2 110.2 353.9 182.8 721.4 215.9 157.4 14.2 339.9 21.4 542.3 21.4 212.9 0 393.1-8.3 550.8-25.2 317.1-34.1 539.1-103.5 698.7-218.5 22.1-15.9 27.2-47 11.6-69.4-83.1-118.8-359.2-180.7-576.2-211.6-196.9-28.2-433.7-43-684.9-43" style="fill:#231f20;fill-opacity:1;fill-rule:nonzero;stroke:none" transform="matrix(.01546 0 0 -.01546 -77.042 461.035)"/><path d="M12176.7 28078.8c-192.2-27.4-423.8-42.7-681.4-42.7-242.2 0-462 15.8-648.1 42.5 21.5 160.4 58 315.9 108 454.9 111.5 310.8 290 539.4 515.7 558.3 155.5 13 414-237 572.6-562.1 68.8-141.3 118.9-296.7 133.2-450.9" style="fill:#e6e9e7;fill-opacity:1;fill-rule:nonzero;stroke:none" transform="matrix(.01546 0 0 -.01546 -77.042 461.035)"/><path d="M10874.9 28099.5c187.3-25.5 401.2-38.9 620.4-38.9 239 0 464.6 13.6 654.6 39.3-15.7 134-59.9 278.4-128.5 419.1-166.6 341.5-418.4 559.5-548.5 548.3-196.5-16.4-376.8-214-494.7-542.1-46-128.2-81.6-274.9-103.3-425.7m620.4-87.9c-231 0-456.3 14.7-651.5 42.7l-24.1 3.4 3.2 24.1c22.1 165 58.8 319.8 109.2 460 126.4 352.1 317 556.1 536.7 574.4 167.4 14 435-244.3 596.7-575.7 75.1-154.2 122-313 135.6-459.4l2.2-23.2-23.1-3.3c-196.9-28.2-433.7-43-684.9-43" style="fill:#231f20;fill-opacity:1;fill-rule:nonzero;stroke:none" transform="matrix(.01546 0 0 -.01546 -77.042 461.035)"/><path d="M10480.9 28033.3c-2.5 0-5 .3-7.5 1.1-25.2 8-38.6 12.8-38.6 12.8-12.9 4.6-19.6 18.8-15 31.7s18.8 19.6 31.7 15c.3-.1 13-4.6 36.9-12.2 13-4.1 20.3-18.1 16.1-31.1-3.3-10.6-13.1-17.3-23.6-17.3m157.3-44.3c-2 0-4.1.3-6.1.8-27 6.8-53.8 13.9-79.6 21.1-13.2 3.7-20.9 17.4-17.2 30.6s17.3 20.9 30.6 17.2c25.4-7.1 51.7-14.1 78.3-20.8 13.3-3.4 21.3-16.8 18-30.1-2.8-11.3-12.9-18.8-24-18.8m1700.5-20.9c-11.3 0-21.5 7.8-24.1 19.2-3.1 13.4 5.3 26.7 18.6 29.8 27 6.1 53.4 12.7 78.6 19.3 13.2 3.4 26.8-4.4 30.3-17.7 3.5-13.2-4.4-26.8-17.7-30.3-25.6-6.7-52.6-13.4-80.1-19.7-1.9-.4-3.7-.6-5.6-.6m-1541.1-15.3c-1.7 0-3.3.2-5 .5-26.9 5.5-54 11.3-80.5 17.3-13.3 3.1-21.7 16.3-18.6 29.7 3 13.4 16.2 21.8 29.6 18.7 26.1-5.9 52.8-11.7 79.4-17.1 13.4-2.7 22.1-15.8 19.3-29.2-2.4-11.8-12.7-19.9-24.2-19.9m1380.9-16.8c-11.8 0-22.3 8.5-24.4 20.5-2.3 13.5 6.7 26.4 20.2 28.7 26.7 4.6 53.5 9.6 79.7 14.9 13.5 2.7 26.5-6 29.2-19.5 2.7-13.4-6-26.5-19.5-29.2-26.6-5.3-53.8-10.4-80.9-15.1-1.4-.2-2.9-.3-4.3-.3m-1220.1-12.2c-1.3 0-2.6.1-3.9.4-27.1 4.2-54.4 8.8-81.1 13.7-13.5 2.4-22.4 15.3-20 28.8 2.4 13.4 15.2 22.4 28.8 20 26.4-4.8 53.3-9.3 80-13.6 13.6-2.1 22.8-14.8 20.7-28.3-2-12.2-12.5-21-24.5-21m1058.5-12.1c-12.3 0-23 9.2-24.6 21.7-1.7 13.6 7.9 26 21.5 27.7 26.9 3.5 54 7.2 80.4 11.2 13.5 1.9 26.2-7.4 28.2-20.9s-7.3-26.2-20.9-28.2c-26.7-4-54.1-7.8-81.4-11.3-1.1-.1-2.1-.2-3.2-.2m-896.5-9.8c-1 0-1.9.1-2.8.2-27.2 3.1-54.7 6.5-81.7 10.1-13.6 1.9-23.1 14.4-21.2 27.9 1.8 13.6 14.2 23.2 27.9 21.3 26.6-3.6 53.7-7 80.5-10 13.6-1.5 23.4-13.8 21.9-27.4-1.5-12.7-12.2-22.1-24.6-22.1m734-7.3c-12.7 0-23.6 9.7-24.7 22.7-1.1 13.6 9 25.6 22.6 26.8 27.8 2.3 54.7 4.9 80.9 7.7 13.6 1.3 25.8-8.5 27.2-22.1 1.5-13.6-8.4-25.8-22-27.2q-39.75-4.2-81.9-7.8zm-571.3-7.3-1.7.1c-27.2 1.8-54.8 4-82 6.4-13.6 1.2-23.7 13.3-22.5 26.9 1.3 13.7 13.4 23.7 26.9 22.5 26.9-2.4 54.1-4.5 80.9-6.3 13.7-1 24-12.8 23.1-26.4-.8-13.1-11.8-23.2-24.7-23.2m408.3-3.3c-13.2 0-24.2 10.4-24.8 23.6-.6 13.7 10 25.3 23.7 25.9 27.6 1.3 54.7 2.8 81.1 4.5 13.6.8 25.4-9.4 26.3-23.1s-9.5-25.5-23.1-26.4c-26.7-1.7-54.1-3.2-82.1-4.5zm-245.1-3.8h-.4c-27.2.6-54.9 1.4-82.3 2.6-13.7.6-24.3 12.2-23.7 25.9s12 24.4 25.8 23.7c27-1.2 54.3-2 81.1-2.6 13.7-.2 24.6-11.6 24.3-25.2-.2-13.6-11.3-24.4-24.8-24.4m81.7-.5c-13.6 0-24.7 11-24.7 24.6-.1 13.7 10.9 24.9 24.6 25q17.4 0 35.1.3c15.5.3 30.9.6 46.1 1 13.8.6 25-10.4 25.4-24.1s-10.4-25.1-24.1-25.5c-15.4-.4-30.9-.7-46.6-1-12-.1-23.8-.3-35.6-.3zm968.7 130.3c-10.6 0-20.4 6.9-23.7 17.5-4 13.1 3.3 27 16.3 31 23.8 7.4 36.4 12.1 36.5 12.1 12.9 4.7 27.1-1.8 31.9-14.7 4.7-12.8-1.9-27.1-14.7-31.8-.5-.2-13.7-5.1-38.9-12.9-2.5-.8-5-1.2-7.4-1.2" style="fill:#46acd7;fill-opacity:1;fill-rule:nonzero;stroke:none" transform="matrix(.01546 0 0 -.01546 -77.042 461.035)"/><path d="M11461.7 29017.3c-261.2-27.1-430.2-595.5-525.6-875.3 98.1-28.1 200.6-27.1 295.9 3.3-22 365.2 229.7 872 229.7 872m318.2-289.4s265.1-402.2 269.5-583.3c0 0-181.1-35.4-260.7-22.1 0 0 132.6 176.7-8.8 605.4m-879.4-2174.1c-204.6 31.5-243-322.6-198.8-525.9 44.2-203.2 282.8-561.2 282.8-561.2s0 543.5-88.4 693.8c-69.6 118.2 119.3 375.6 4.4 393.3" style="fill:#fff;fill-opacity:1;fill-rule:nonzero;stroke:none" transform="matrix(.01546 0 0 -.01546 -77.042 461.035)"/><text xml:space="preserve" x="10068.304" y="-22420.332" style="font-style:normal;font-variant:normal;font-weight:400;font-stretch:normal;font-size:684.588px;line-height:1.25;font-family:sans-serif;-inkscape-font-specification:&quot;sans-serif, Normal&quot;;font-variant-ligatures:normal;font-variant-caps:normal;font-variant-numeric:normal;font-variant-east-asian:normal;fill:#000;fill-opacity:1;stroke:none;stroke-width:17.1147" transform="translate(-77.042 461.035)scale(.01546)"><tspan x="10068.304" y="-22420.332" style="font-style:normal;font-variant:normal;font-weight:400;font-stretch:normal;font-size:912.784px;font-family:Chilanka;-inkscape-font-specification:&quot;Chilanka, Normal&quot;;font-variant-ligatures:normal;font-variant-caps:normal;font-variant-numeric:normal;font-variant-east-asian:normal">Mezcal</tspan></text></g></svg>