<svg xmlns="http://www.w3.org/2000/svg" width="200mm" height="200mm" viewBox="0 0 200 200"><defs><clipPath id="a" clipPathUnits="userSpaceOnUse"><path d="M12768.1 25436.4c-714.9 0-1223.4 251.2-1475.8 393.8 154.7 166.6 249.3 331.2 247.7 484.9l97.9 4001.1 2100.4-22.2 57-4069.6c-.7-143.9 106.1-322.4 318.7-533.5-323.4-70.5-798.2-229.8-1182.4-250.2-55.6-2.9-110.1-4.3-163.5-4.3"/></clipPath></defs><g clip-path="url(#a)" transform="matrix(.00882 0 0 -.00882 -12.077 306.687)"><path d="M11292.3 25436.4H14114v4879.82h-2821.7z" style="fill:#f6fcfb;fill-opacity:1;fill-rule:nonzero;stroke:none"/></g><path d="M15497.2 24756.6s-1219.9 689.4-1364.7 938.3c-323.5-68.3-809.3-233.4-1200.9-254.2-822.3-43.6-1398.1 251.3-1660.3 401.5-153-299.5-1087.9-752.3-1287.15-860.7-615.35-334.8-1481-643.6-1395.43-1789.3 33.42-447.6 40.44-944.5 62.73-1464.9 82.69-1921.7 178.68-4158.4 240.06-5590.4 39.34-913.5 65-1512.7 65.07-1514.7 23.68-669.3 1718.22-1650.2 3752.62-1658.3 1986-8 3619 935 3716 1581.5l82 1733.2 258.2 5451.7 60.4 1273.3c41.3 878.3-150 1055.2-1328.6 1753" style="fill:#ce5e1d;fill-opacity:1;fill-rule:nonzero;stroke:none" transform="matrix(.00882 0 0 -.00882 -12.077 306.687)"/><path d="M15753.4 14580.4h-2.4c-130.8 1.3-234 109.3-230.7 241.5l19.8 780.5c172.6 77.1 334.9 162.1 485.1 253.8l-30.4-1038.9c-3.8-131.4-111.8-236.9-241.4-236.9m-68.3 6747 24.1 951.7c3.7 148.7 118.8 268.8 257.4 268.8h2c139.4-1.1 248.9-123.5 244.6-273l-22.1-753.2c-7-2.9-14-5.9-21-8.9-25.9-10.9-51.6-21.6-77.2-32.1-125.5-51.3-261.3-103-407.8-153.3m-4994.9-7373.1c-24.7 0-50 4-75.3 12.4-75.3 25.1-160.1 57.6-250.9 99.5-224.6 103.6-522.58 328.8-690.38 462.4-81.13 64.6-130.93 166.5-134.65 275l-34.23 996.5c486.41-210 937.36-361.6 1407.86-472.9l24.3-1096.2c3.5-157.6-111.9-276.7-246.7-276.7m93.2 7191.2c-490.5 98.1-967.63 225.6-1454.05 388.2-7.3 2.5-14.54 4.9-21.78 7.3l-43.23 1259c-5.96 173.4 26.17 345.9 99.77 494.3 113.46 228.7 271.07 311.3 439.31 311.3 71.18 0 144.27-14.8 216.68-39.5 428-146.3 723.2-611.4 734.6-1126.2z" style="fill:#df9552;fill-opacity:1;fill-rule:nonzero;stroke:none" transform="matrix(.00882 0 0 -.00882 -12.077 306.687)"/><path d="m16765.2 21730.2-258-5451.6c-133.7-124-294-246.6-480.1-362.7h-.2c-146.1-90.9-307.8-177.9-485.5-258.2-662.5-300.5-1544.1-511.7-2634.6-508-712.1 2.6-1323.6 80.3-1853 196.6h-.3c-609.2 133.5-1110.5 318.9-1529.67 499.9-235.18 101.4-444.54 201.9-632.26 290.7-61.42 1432-157.48 3668.7-240.07 5590.5 182.84-71.2 404.06-154.7 662.03-241 434.07-145.1 970.97-298.9 1602.07-417.3h.2c539.9-101.4 1148.7-177.2 1821.2-201.2 1272.4-44.4 2228 159.3 2946.5 405.5h.3c183.5 62.8 351.9 128.6 505.7 193.5 219.8 92.6 410.5 183.8 575.7 263.3" style="fill:#ecf9f7;fill-opacity:1;fill-rule:nonzero;stroke:none" transform="matrix(.00882 0 0 -.00882 -12.077 306.687)"/><path d="m11058.9 15396.1 5.5-1.1c579.8-127.4 1199.7-193.1 1842.6-195.4 9.1-.1 18.4-.1 27.5-.1 965.9 0 1859.6 174 2586.3 503.6 169 76.4 330.4 162.2 479.7 255.2l12.3 7.5c166.3 104.7 316.1 217.5 445.6 335.6l253.1 5347.7c-153.7-73.6-318.7-150.7-502.7-228.1-173.5-73.3-339.9-137-508.9-194.8l-8.1-2.7c-809.4-276.2-1664.3-411.7-2603.1-411.7-116.6 0-234.3 2.1-353.5 6.3-615.1 21.9-1228.8 89.6-1824.1 201.2l-4.7.8c-545.1 102.3-1071.26 239.3-1608.68 419.1-235.06 78.6-435.62 153.5-593.13 214.2 81.26-1891.1 174.85-4070.2 235.51-5484.3l34.18-16.2c168.85-80.1 360.23-170.8 569.29-261 523.63-226 1005.23-383.6 1515.33-495.8m1875.6-296.3h-27.9c-648.1 2.4-1273.2 68.5-1858.4 196.6l-5.4 1.2c-518.4 113.6-1007.3 273.4-1538.74 502.8-210.67 90.8-402.91 182-572.51 262.4l-88.51 41.9-1.29 30.1c-61.41 1432-157.48 3668.6-240.06 5590.5l-3.28 76.3 71.19-27.7c165.32-64.4 389.72-149.8 659.75-240.2 531.54-177.7 1052.05-313.4 1590.95-414.7l4.7-.9c591.8-111.2 1202-178.6 1813.7-200.4 1070.3-37.3 2028.2 94.4 2928.7 402.8l8.1 2.7c164 56.4 325.9 118.4 494.6 189.6 212.4 89.5 392.5 175.2 573.5 262.4l75.4 36.3-262.9-5555.6-15-13.9c-140.5-130.3-304.6-254.2-487.6-368.4l-12.4-7.5c-149.6-92.4-310.8-177.8-479.2-253.8-739.4-335.4-1647.4-512.5-2627.4-512.5" style="fill:#231f20;fill-opacity:1;fill-rule:nonzero;stroke:none" transform="matrix(.00882 0 0 -.00882 -12.077 306.687)"/><path d="m16189.5 21466.9-162.6-5551c-146.1-90.9-307.8-177.9-485.5-258.2l142.1 5615.7h.3c183.5 62.8 351.9 128.6 505.7 193.5M10913.7 15395c-609.2 133.6-970.7 270.2-1389.87 451.2l-210.3 5640.2c434.07-145.1 845.07-273.8 1476.07-392.2z" style="fill:#fff;fill-opacity:1;fill-rule:nonzero;stroke:none" transform="matrix(.00882 0 0 -.00882 -12.077 306.687)"/><path d="m16749.6 21724.2-8.8-244.3c-158-76-342.4-166.1-558.5-258.7-151.9-65.1-319.6-131.6-505-195.6-635.1-219.1-1476.5-407.8-2597-407.8-113.5 0-229.1 1.9-347.8 6.1-669.9 23.5-1272.8 97.7-1810.9 198.9-617.1 116.1-1149.11 267.7-1598.99 419.2-255.88 86-485.01 172.1-688.55 251.4l63.97 236.8c856.27-334.2 2207.07-786 4043.57-850.7 2054.7-72.1 3339.2 522.5 4008 844.7m-219.6-5415.6c-108.6-100.9-272.6-236.6-502.7-378.9-137.4-84.9-298.4-172.4-485.4-255.9-588.1-263.1-1432.7-489.2-2605.3-489.2h-30.3c-708.5 2.5-1321.3 79.1-1853.5 194-607.6 131.4-1110.03 312.9-1529.91 491.5-239.13 101.9-451.51 202.6-641.32 292.6l15.58 292.7 94.2-61.4c157.03-74.7 329.86-156.6 521.07-240.3 416.16-182.4 919.08-372.7 1533.88-510.8 531.3-119.6 1146.1-200.1 1860.7-202.4h26.8c958.6 0 1885.1 212.3 2616.2 555.9 174.2 81.7 337.3 171 487.1 266.6 169.1 108 321.5 224 453.6 346.6z" style="fill:#4266b9;fill-opacity:1;fill-rule:nonzero;stroke:none" transform="matrix(.00882 0 0 -.00882 -12.077 306.687)"/><path d="M15550 15996.4c174.2 81.7 337.3 171 487.1 266.6l-9.8-333.3-.4-13.8c-146.1-90.9-307.8-177.9-485.5-258.2l.5 16.1zm639.5 5470.5-7.2-245.7c-151.9-65.1-319.6-131.6-505-195.6l6.2 247.8h.3c183.5 62.8 351.9 128.6 505.7 193.5m-5395-619.4c-568.4 116.1-1062.22 243-1476.55 394.5l-8.36 244.4c399.77-145.1 894.21-298.9 1475.41-417.3zm117.6-5501.2c-561.1 133.5-1022.79 318.9-1408.84 499.9l-.86 23.9 8.34 288.7c388.18-175.9 830.96-340.1 1397.16-478.3l3.5-301.9z" style="fill:#46acd7;fill-opacity:1;fill-rule:nonzero;stroke:none" transform="matrix(.00882 0 0 -.00882 -12.077 306.687)"/><path d="m8940.04 16169.1 17.74-8.4c800.72-380.1 2010.82-954.4 3949.02-961.2h27c1454.4 0 2768.2 410.8 3524.6 1101.9l253.2 5347.7c-335.9-161.1-820.2-385-1450.5-557.9-786.9-215.7-1613.1-305-2525.7-273-1813.5 63.7-3159.55 499.3-4030.85 835.1 81.35-1891.1 174.87-4070.2 235.49-5484.2m3995.76-1069.3h-29.3c-1960.6 6.8-3182.74 586.9-3991.48 970.8l-72.04 34.2-1.28 30c-61.39 1432-157.38 3668.6-240.06 5590.4l-3.29 76.4 71.24-27.8c861.62-336.3 2220.91-791 4069.21-855.9 2074.4-72.8 3330.2 532.3 4004.9 857.4l75.5 36.3-263.1-5555.7-15-13.8c-349.5-324.3-832.3-599.6-1396.2-796.3-658.7-229.6-1401.9-346-2209.1-346" style="fill:#231f20;fill-opacity:1;fill-rule:nonzero;stroke:none" transform="matrix(.00882 0 0 -.00882 -12.077 306.687)"/><path d="M11735.4 16130.2c-670.7 74-1093.6 764.6-1004.4 1348.3 10.7 70.3 24.1 128.6 39 178.5.5 2 1.2 4 1.7 5.9 1.3 4 2.5 7.8 3.7 11.7 1.2 3.8 2.4 7.6 3.6 11.3 1.6 4.9 3.2 9.6 4.9 14.3l3.3 9.6c3.7 10.3 7.5 20.1 11.2 29.7 3.8 9.5 7.6 18.7 11.5 27.5 53.7 124.1 71.1 185.6 131.6 308.7l.3 2c8.9 37.3 106.1 139 259.5 238.5 154.2 100.1 365.3 197.9 600.9 225.8 47.3 3.4 82.4 6.4 93.6 7.2h.5l2.1.2c133.5 6.5 246.4.1 344.7-18.2 266.6-49.5 426.5-186.3 603.7-388.2 29.3-41.7 57.9-86.9 86.2-135.4 258.5-443.3 294.6-680.4 259.7-979.6-23.4-200.8-169.9-478.1-484.4-670.1-35.5-21.7-73-42.2-112.7-61.4-279.1-135-690.8-185-860.2-166.3" style="fill:#ce5e1d;fill-opacity:1;fill-rule:nonzero;stroke:none" transform="matrix(.00882 0 0 -.00882 -12.077 306.687)"/><path d="M12796.2 16707.5c-77.8 0-164.9 99-189.6 124.6-148.7 154.3-200.6 273.4-254.6 474.2-52.9 196.7-139.9 381.5-281.9 535.6-92.4 100.1-387.5 266-161.7 416.8 43.7 29.2 96.1 40.8 151.4 40.8 146.2 0 313-80.9 395.5-131.5 162.8-99.9 276.9-261.8 342.9-423.3 69.9-171.2 150.8-371.1 170.3-556.7 14.8-140.8-12.3-287.4-89-423.6-23.4-41.5-52.6-56.9-83.3-56.9" style="fill:#d87e26;fill-opacity:1;fill-rule:nonzero;stroke:none" transform="matrix(.00882 0 0 -.00882 -12.077 306.687)"/><path d="M11868.4 16123.1c-45.3 0-89.7 2.3-133 7.1 22.7-2.5 49.7-3.8 80.2-3.8 197.1 0 538.3 53.2 780 170.1 37.2 18 72.5 37.2 106 57.3-232.4-139.9-548.7-230.7-833.2-230.7m-135.8 7.4c-.1 0-.2.1-.4.1.2 0 .3-.1.4-.1m969 223.3c.7.5 1.4.9 2.1 1.3-.7-.4-1.4-.8-2.1-1.3m3.5 2.1.9.6zm-1845.6 1531.6-.6 27.4c15.3 30.9 31.7 61 49.4 90.3-18.9-42.4-33.3-78.7-48.8-117.7" style="fill:#caa27d;fill-opacity:1;fill-rule:nonzero;stroke:none" transform="matrix(.00882 0 0 -.00882 -12.077 306.687)"/><path d="M10723.7 17419.5c13 169.2 59.1 341.7 135.2 495.4l.6-27.4c-14.3-35.7-29.4-73.6-49.6-120.5-3.9-8.8-7.7-18-11.5-27.5-3.7-9.6-7.5-19.4-11.2-29.7l-3.3-9.6c-1.7-4.7-3.3-9.4-4.9-14.3-1.2-3.7-2.4-7.5-3.6-11.3-1.2-3.9-2.4-7.7-3.7-11.7-.5-1.9-1.2-3.9-1.7-5.9-14.9-49.9-28.3-108.2-39-178.5-3-19.6-5.4-39.2-7.3-59" style="fill:#d8a582;fill-opacity:1;fill-rule:nonzero;stroke:none" transform="matrix(.00882 0 0 -.00882 -12.077 306.687)"/><path d="M11815.6 16126.4c-30.5 0-57.5 1.3-80.2 3.8-.9.1-1.8.2-2.8.3-.1 0-.2.1-.4.1-519.6 59-920.3 508.2-998.9 1013.1-13.8 88.4-16.8 181.6-9.6 275.8 1.9 19.8 4.3 39.4 7.3 59 10.7 70.3 24.1 128.6 39 178.5.5 2 1.2 4 1.7 5.9 1.3 4 2.5 7.8 3.7 11.7 1.2 3.8 2.4 7.6 3.6 11.3 1.6 4.9 3.2 9.6 4.9 14.3l3.3 9.6c3.7 10.3 7.5 20.1 11.2 29.7 3.8 9.5 7.6 18.7 11.5 27.5 20.2 46.9 35.3 84.8 49.6 120.5 15.5 39 29.9 75.3 48.8 117.7 76.3 125.8 174.6 234.2 293 311-77.5-329.8-286.4-672.8-272-1014.8 13.5-319.8 173.8-595.9 423.3-790.6 209.3-163.4 465.2-211.4 727.7-211.4 211.9 0 428.3 31.3 628 58.5-.8-.5-1.5-1-2.3-1.4l-.9-.6c-.5-.2-.9-.5-1.4-.8-.7-.4-1.4-.8-2.1-1.3-33.5-20.1-68.8-39.3-106-57.3-241.7-116.9-582.9-170.1-780-170.1" style="fill:#bf501f;fill-opacity:1;fill-rule:nonzero;stroke:none" transform="matrix(.00882 0 0 -.00882 -12.077 306.687)"/><path d="M12000 18536.9c-345.8 0-712.5-132.6-958.6-373-228.9-223.7-332.3-704.6-285.2-1013.4 79.9-523.7 492.8-942.9 981.8-996.8 285.5-31.5 616.8 36.3 886.4 181.3 302.1 162.5 494.7 403.3 542.2 678 87 503.3-231.9 1187.9-656.2 1408.6-150.2 78-327.4 115.3-510.4 115.3m-120.9-2438c-49.7 0-98.6 2.6-146.2 7.9-510 56.2-940.3 492.2-1023.4 1036.5-48.8 320.4 59.6 820.5 299 1054.3 180.2 176.1 443.7 307.3 723.1 360.1 293 55.3 577.3 21.8 800.6-94.3 215.5-112.1 414.4-341.9 545.6-630.5 128.2-282 177.5-583.7 135.3-827.9-50.1-289.3-251.2-542-566.4-711.6-232.7-125.2-510.4-194.5-767.6-194.5" style="fill:#100f0d;fill-opacity:1;fill-rule:nonzero;stroke:none" transform="matrix(.00882 0 0 -.00882 -12.077 306.687)"/><path d="M12933.5 17514.9c8.6-34 61.5-20.7 52.9 13.4-8.6 34-61.5 20.7-52.9-13.4m-18.6 227.9c8.6-34 61.5-20.7 52.9 13.4-8.6 34-61.5 20.7-52.9-13.4m178.4-628.5c8.6-34 61.5-20.7 52.9 13.4-8.6 34-61.5 20.7-52.9-13.4m-651.2 1107.8c8.6-34 61.5-20.7 52.9 13.4-8.6 34-61.5 20.7-52.9-13.4m158.3 32.6c8.6-34 61.5-20.8 52.9 13.3s-61.5 20.8-52.9-13.3m-1058.7-99.7c8.6-34.1 61.5-20.8 52.9 13.3s-61.5 20.8-52.9-13.3m-223.3 109c8.5-34 61.4-20.7 52.8 13.4-8.5 34-61.4 20.7-52.8-13.4m422-315.6c8.6-34 61.5-20.7 52.9 13.4-8.6 34-61.5 20.7-52.9-13.4m-120.2 395.5c8.6-34 61.5-20.7 52.9 13.4-8.6 34-61.5 20.7-52.9-13.4m92.4-139.8c8.6-34 61.5-20.7 52.9 13.4-8.6 34-61.5 20.7-52.9-13.4m156.8 215.3c8.5-34 61.4-20.7 52.8 13.4-8.6 34-61.5 20.7-52.8-13.4m-167.3-752.6c8.6-34 61.5-20.7 52.9 13.4-8.6 34-61.5 20.7-52.9-13.4m443.6-359.1c8.6-34.1 61.5-20.8 52.9 13.3-8.6 34-61.5 20.7-52.9-13.3m-964.7 194.8c8.6-34 61.5-20.7 52.9 13.3-8.6 34.1-61.5 20.8-52.9-13.3m-110.4 152.1c8.6-34 61.5-20.7 52.9 13.3-8.6 34.1-61.5 20.8-52.9-13.3m334.3-222.1c8.6-34.1 61.5-20.8 52.9 13.3-8.6 34-61.5 20.7-52.9-13.3m156.8 400.5c8.6-34 61.5-20.7 52.9 13.3-8.6 34.1-61.5 20.8-52.9-13.3m59.9-279.1c-1.1-1.8-2.2-3.7-3.3-5.5-7.5-12.7-3.2-29.9 9.5-37.4 12.6-7.6 29.8-3.3 37.4 9.4 1.1 1.9 2.1 3.7 3.2 5.6 7.6 12.6 3.3 29.8-9.4 37.3-12.7 7.6-29.8 3.3-37.4-9.4m263.9-75.2c8.6-34 61.5-20.7 52.9 13.4-8.6 34-61.5 20.7-52.9-13.4m552.9-741.8c8.6-34 61.5-20.7 52.9 13.4-8.6 34-61.5 20.7-52.9-13.4m146.3-345.5c8.6-34.1 61.5-20.8 52.9 13.3-8.6 34-61.5 20.7-52.9-13.3m-108.2 156.4c8.6-34.1 61.5-20.8 52.9 13.3-8.6 34-61.5 20.7-52.9-13.3m319.7 1407.2c8.6-34 61.5-20.7 52.9 13.4-8.6 34-61.5 20.7-52.9-13.4m203.8-738.8c8.6-34 61.5-20.7 52.9 13.4-8.6 34-61.5 20.7-52.9-13.4m-1129.2-831c8.6-34 61.5-20.7 52.9 13.4-8.6 34-61.5 20.7-52.9-13.4m-121.6 445c8.6-34 61.5-20.7 52.9 13.3-8.6 34.1-61.5 20.8-52.9-13.3m-151.5-310.1c8.6-34.1 61.5-20.8 52.9 13.3-8.6 34-61.5 20.8-52.9-13.3m-429.1 1588.7c8.6-34 61.5-20.7 52.9 13.4-8.6 34-61.5 20.7-52.9-13.4m227.5-177c8.6-34 61.5-20.7 52.9 13.4-8.6 34-61.5 20.7-52.9-13.4m-259.6 20.5c8.5-34 61.4-20.7 52.8 13.4-8.6 34-61.5 20.7-52.8-13.4m974.5 421.9c8.6-34 61.5-20.7 52.9 13.3-8.6 34.1-61.5 20.8-52.9-13.3m202.4 32.2c8.6-34 61.5-20.7 52.9 13.4-8.6 34-61.5 20.7-52.9-13.4m325.7-341.6c8.6-34.1 61.5-20.8 52.9 13.3-8.6 34-61.5 20.8-52.9-13.3m-650.8-1178.9c8.6-34.1 61.5-20.8 52.9 13.3-8.6 34-61.5 20.7-52.9-13.3m2.4 380.3c8.6-34 61.5-20.7 52.9 13.4-8.6 34-61.5 20.7-52.9-13.4m371.4-319.8c8.6-34 61.5-20.7 52.9 13.4-8.6 34-61.5 20.7-52.9-13.4m-70.5 237c8.6-34 61.5-20.7 52.9 13.4-8.6 34-61.5 20.7-52.9-13.4m528.7-565.4c8.6-34 61.5-20.7 52.9 13.4-8.6 34-61.5 20.7-52.9-13.4m-114.3-128.6c8.6-34 61.5-20.7 52.9 13.4-8.6 34-61.5 20.7-52.9-13.4m368.6 986.8c8.6-34 61.5-20.7 52.9 13.4-8.6 34-61.5 20.7-52.9-13.4m-478.8-806.9c8.6-34.1 61.5-20.8 52.9 13.3s-61.5 20.8-52.9-13.3m477.6 224.2c8.6-34.1 61.5-20.8 52.9 13.3-8.6 34-61.5 20.7-52.9-13.3m-637.5-499.4c8.6-34.1 61.5-20.8 52.9 13.3s-61.5 20.8-52.9-13.3m-217 376.5c8.6-34 61.5-20.7 52.9 13.4-8.6 34-61.5 20.7-52.9-13.4m-145.9-313.4c8.6-34 61.5-20.7 52.9 13.3-8.6 34.1-61.5 20.8-52.9-13.3m125.9-72.5c8.5-34 61.5-20.7 52.8 13.4-8.5 34-61.4 20.7-52.8-13.4m85.6 144.6c8.6-34 61.5-20.7 52.9 13.4-8.6 34-61.5 20.7-52.9-13.4m-286.8 96.4c8.6-34 61.5-20.7 52.9 13.4-8.6 34-61.5 20.7-52.9-13.4m140.2 391.7c8.6-34 61.5-20.7 52.9 13.3-8.6 34.1-61.5 20.8-52.9-13.3m-353.9 27.9c8.5-34.1 61.4-20.8 52.8 13.3-8.5 34-61.4 20.7-52.8-13.3m-29.9-438.9c8.6-34 61.5-20.7 52.9 13.4-8.6 34-61.5 20.7-52.9-13.4m-237.8 347.8c8.6-34 61.5-20.7 52.9 13.4-8.6 34-61.5 20.7-52.9-13.4m-294-211.9c8.6-34 61.5-20.7 52.9 13.4-8.6 34-61.5 20.7-52.9-13.4m249.3-19.7c8.6-34 61.5-20.7 52.9 13.4-8.6 34-61.5 20.7-52.9-13.4m-448.9 374.5c8.5-34 61.4-20.7 52.8 13.4-8.6 34-61.5 20.7-52.8-13.4m160 138.6c8.6-34 61.5-20.7 52.9 13.4-8.6 34-61.5 20.7-52.9-13.4m-150.9 192.3c8.6-34 61.5-20.7 52.9 13.4-8.6 34-61.5 20.7-52.9-13.4m204.4-460.1c8.6-34 61.5-20.7 52.9 13.4-8.6 34-61.5 20.7-52.9-13.4m252 209c8.6-34.1 61.5-20.8 52.9 13.3-8.6 34-61.5 20.8-52.9-13.3m-272.5 578.1c8.6-34 61.5-20.7 52.9 13.4-8.6 34-61.5 20.7-52.9-13.4m722.6-689.6c8.5-34 61.4-20.7 52.8 13.4-8.5 34-61.5 20.7-52.8-13.4m-3.4 656.9c8.6-34 61.5-20.7 52.9 13.3-8.6 34.1-61.5 20.8-52.9-13.3m164.9-188.8c8.6-34 61.5-20.8 52.9 13.3s-61.5 20.8-52.9-13.3m-370.5-216.1c8.6-34 61.5-20.7 52.9 13.4-8.6 34-61.5 20.7-52.9-13.4" style="fill:#cc9c18;fill-opacity:1;fill-rule:nonzero;stroke:none" transform="matrix(.00882 0 0 -.00882 -12.077 306.687)"/><path d="M11181.7 16502.9c8.6-34 61.5-20.7 52.9 13.4-8.6 34-61.5 20.7-52.9-13.4m843-308.6c8.6-34 61.5-20.7 52.9 13.4-8.6 34-61.5 20.7-52.9-13.4m-464 52.6c8.6-34 61.5-20.7 52.9 13.3-8.6 34.1-61.5 20.8-52.9-13.3m716.6-4.1c8.6-34 61.5-20.7 52.9 13.4-8.6 34-61.5 20.7-52.9-13.4m-1441.5 752.4c8.6-34.1 61.5-20.8 52.9 13.3-8.6 34-61.5 20.7-52.9-13.3m-1.7 295.4c8.6-34 61.5-20.7 52.9 13.3-8.6 34.1-61.5 20.8-52.9-13.3m-22.6 175.2c8.6-34.1 61.5-20.8 52.9 13.3-8.6 34-61.5 20.8-52.9-13.3m149.2 352.2c8.6-34 61.5-20.8 52.9 13.3s-61.5 20.8-52.9-13.3m-44.9-195.4c8.6-34.1 61.5-20.8 52.9 13.3s-61.5 20.8-52.9-13.3m369.3-1253.8c8.6-34 61.5-20.7 52.9 13.3-8.6 34.1-61.5 20.8-52.9-13.3m169.2-15.5c8.6-34 61.5-20.7 52.9 13.4-8.6 34-61.5 20.7-52.9-13.4m382.9-121.7c8.6-34 61.5-20.7 52.9 13.4-8.6 34-61.5 20.7-52.9-13.4m-865.2 454.5c8.6-34 61.5-20.7 52.9 13.4-8.6 34-61.5 20.7-52.9-13.4m126.3-91.8c8.6-34 61.5-20.8 52.9 13.3s-61.5 20.8-52.9-13.3m-162.1 1368.5c8.5-34.1 61.4-20.8 52.8 13.3-8.6 34-61.5 20.7-52.8-13.3" style="fill:#cd681c;fill-opacity:1;fill-rule:nonzero;stroke:none" transform="matrix(.00882 0 0 -.00882 -12.077 306.687)"/><path d="M12855.9 17095c8.5-34 61.4-20.7 52.8 13.4-8.5 34-61.4 20.7-52.8-13.4m-462.9 386.8c8.6-34 61.5-20.7 52.9 13.4-8.6 34-61.5 20.7-52.9-13.4m223.4-201.9c8.6-34.1 61.5-20.8 52.9 13.3-8.6 34-61.5 20.7-52.9-13.3m181-487.3c8.6-34 61.5-20.8 52.9 13.3s-61.5 20.8-52.9-13.3m59.8 468.9c8.6-34.1 61.5-20.8 52.9 13.3-8.6 34-61.5 20.7-52.9-13.3m-190.9 493.7c8.6-34.1 61.5-20.8 52.9 13.3-8.6 34-61.5 20.7-52.9-13.3m-280.7 276c8.6-34 61.5-20.7 52.9 13.4-8.6 34-61.5 20.7-52.9-13.4m31.4-217.1c8.6-34 61.5-20.7 52.9 13.4-8.6 34-61.5 20.7-52.9-13.4m-204-48.1c8.6-34 61.5-20.7 52.9 13.4-8.6 34-61.5 20.7-52.9-13.4m529.8-279.2c8.6-34.1 61.5-20.8 52.8 13.3-8.5 34-61.4 20.7-52.8-13.3m-272.8-334.6c8.6-34 61.5-20.7 52.9 13.4-8.6 34-61.5 20.7-52.9-13.4m228.7-203.8c8.6-34.1 61.5-20.8 52.9 13.3s-61.5 20.8-52.9-13.3m-728.1 1081.1c8.6-34.1 61.5-20.8 52.9 13.3-8.6 34-61.5 20.7-52.9-13.3m223.3-56c8.6-34.1 61.5-20.8 52.9 13.3-8.6 34-61.5 20.8-52.9-13.3m41.7 150.6c8.6-34.1 61.5-20.8 52.9 13.3s-61.5 20.8-52.9-13.3m-210.9 92.6c8.6-34 61.5-20.7 52.9 13.4-8.6 34-61.5 20.7-52.9-13.4m518.9-652.4c8.6-34 61.5-20.7 52.9 13.3-8.6 34.1-61.5 20.8-52.9-13.3m-1.9 396.1c8.6-34 61.5-20.7 52.9 13.3-8.6 34.1-61.5 20.8-52.9-13.3" style="fill:#efd83e;fill-opacity:1;fill-rule:nonzero;stroke:none" transform="matrix(.00882 0 0 -.00882 -12.077 306.687)"/><path d="M10724.2 18355.6c-62.2-32.6-121.5-32.1-121.5-32.1s48.5 155.7 63.7 179.9c125.2 199.7 220 200.8 447.2 263.5 0 0-57.5-237.3-389.4-411.3" style="fill:#47b173;fill-opacity:1;fill-rule:nonzero;stroke:none" transform="matrix(.00882 0 0 -.00882 -12.077 306.687)"/><path d="M10724.2 18355.6h.1zm351.7 376.7c-12.1-3.2-23.7-6.3-35-9.2-171.5-44.8-249.8-65.2-354.5-232.2-7.8-12.4-31.3-81-50.4-140.3 20.7 3.6 48.8 11 77.3 25.9 238.1 124.9 330.7 282.9 362.6 355.8m-473-432.3h-.4c-7.5 0-14.5 3.6-18.9 9.7-4.4 6-5.6 13.7-3.4 20.9 8.2 26.5 50.2 159.8 66.2 185.4 114.6 182.8 209.8 207.7 382.6 252.8 24.3 6.3 50.3 13.1 78.3 20.8 8.1 2.3 16.7 0 22.7-5.8s8.5-14.4 6.5-22.5c-2.4-10.1-63.9-249.6-401.3-426.6-64.6-33.8-125.9-34.7-132.3-34.7" style="fill:#100f0d;fill-opacity:1;fill-rule:nonzero;stroke:none" transform="matrix(.00882 0 0 -.00882 -12.077 306.687)"/><path d="M11073.1 18883.9c1.2-1.9-286.6-173.5-683.7 18.5-130.8 63.2-275.1 316.6-275.1 316.6s463.6 106 706.3-33.7c152.6-87.7 236.2-276.1 252.5-301.4" style="fill:#47b173;fill-opacity:1;fill-rule:nonzero;stroke:none" transform="matrix(.00882 0 0 -.00882 -12.077 306.687)"/><path d="M10151.7 19202.5c41.2-66.6 150.4-231.7 247.9-278.9 326.9-158 575-62.4 641.4-30.4-29.8 55.7-107.5 200-232.1 271.6-196 112.8-549.3 58.1-657.2 37.7m614.4-413.8c-110.6 0-243 22.8-387 92.4-135.8 65.6-279.3 315.7-285.3 326.3-3.7 6.5-4.1 14.3-1.1 21.1 3 6.9 9 11.9 16.3 13.5 19.3 4.5 475.5 106.4 723.4-36.3 137.2-78.9 219.7-233.3 250.8-291.4 4.3-8 8-14.9 9.7-17.6l.2-.3c5.6-8.9 4.5-20.5-2.5-28.4-12.7-14.1-137.4-79.3-324.5-79.3" style="fill:#100f0d;fill-opacity:1;fill-rule:nonzero;stroke:none" transform="matrix(.00882 0 0 -.00882 -12.077 306.687)"/><path d="M11566.1 18337.7c-66.4-20.6-125.6-63.6-165.8-120.2z" style="fill:#fff;fill-opacity:1;fill-rule:nonzero;stroke:none" transform="matrix(.00882 0 0 -.00882 -12.077 306.687)"/><path d="M11400.3 18193.9c-4.7 0-9.5 1.4-13.6 4.4-10.7 7.5-13.2 22.2-5.6 32.9 43.3 61 106.5 106.8 178 129 12.5 3.8 25.7-3.1 29.5-15.6 3.9-12.4-3.1-25.6-15.5-29.5-61.7-19.1-116.2-58.6-153.5-111.3-4.6-6.4-11.9-9.9-19.3-9.9" style="fill:#100f0d;fill-opacity:1;fill-rule:nonzero;stroke:none" transform="matrix(.00882 0 0 -.00882 -12.077 306.687)"/><path d="M11574.3 18330.4c9.3-34.9 18.7-69.8 28-104.8z" style="fill:#fff;fill-opacity:1;fill-rule:nonzero;stroke:none" transform="matrix(.00882 0 0 -.00882 -12.077 306.687)"/><path d="M11602.3 18202c-10.4 0-20 7-22.8 17.6l-28 104.8c-3.4 12.6 4.1 25.5 16.7 28.8 12.6 3.4 25.5-4.1 28.9-16.7l28-104.8c3.4-12.5-4.1-25.5-16.7-28.8-2-.6-4.1-.9-6.1-.9" style="fill:#100f0d;fill-opacity:1;fill-rule:nonzero;stroke:none" transform="matrix(.00882 0 0 -.00882 -12.077 306.687)"/><path d="M11577.9 18353.5c1.4.1 2.8.2 4.3.3 84.6 4.9 170.6-17.9 241.5-64.4z" style="fill:#fff;fill-opacity:1;fill-rule:nonzero;stroke:none" transform="matrix(.00882 0 0 -.00882 -12.077 306.687)"/><path d="M11823.6 18265.8c-4.4 0-8.9 1.2-12.9 3.9-66.7 43.7-147.4 65.2-227.1 60.5-1.5-.1-2.7-.2-4-.2-13-1-24.3 8.7-25.2 21.7-1 13 8.7 24.3 21.7 25.3 1.7.1 3.3.3 5 .3 89.5 5.4 180.4-18.9 255.5-68.2 10.9-7.1 13.9-21.8 6.8-32.7-4.5-6.9-12.1-10.6-19.8-10.6" style="fill:#100f0d;fill-opacity:1;fill-rule:nonzero;stroke:none" transform="matrix(.00882 0 0 -.00882 -12.077 306.687)"/><path d="M11584.1 18350.6c-.7 1.1-1.3 2.1-1.9 3.2-25.2 41.2-50.2 82.5-73.1 124.9-17.6 32.5-34 65.7-48.1 99.9-32.9 79.9-53.4 166.5-46.7 252.7z" style="fill:#fff;fill-opacity:1;fill-rule:nonzero;stroke:none" transform="matrix(.00882 0 0 -.00882 -12.077 306.687)"/><path d="m11563.9 18338.3 20.2 12.3-20.3-12c-.7 1.2-1.5 2.4-2.2 3.6-26.6 43.6-50.8 83.7-73.3 125.3-19.7 36.4-35.8 69.8-49.1 102.1-38.5 93.4-54.7 182-48.4 263.5 1 13 12.3 22.7 25.4 21.7 12.9-1 22.7-12.4 21.6-25.4-5.7-74 9.4-155.4 45-241.8 12.7-30.7 28.1-62.6 47-97.7 22-40.6 45.8-80.1 72.5-123.8l1.7-2.9z" style="fill:#100f0d;fill-opacity:1;fill-rule:nonzero;stroke:none" transform="matrix(.00882 0 0 -.00882 -12.077 306.687)"/><path d="M11421.8 18705.5c-37.4 60.9-98.2 100.1-165.9 126.1-41.1 15.9-84.7 26.8-127.3 35-16.4 3.1-35.8 7.1-57.2 11.8-125.7 27.5-321.5 79.4-404.4 131.9z" style="fill:#fff;fill-opacity:1;fill-rule:nonzero;stroke:none" transform="matrix(.00882 0 0 -.00882 -12.077 306.687)"/><path d="M11421.8 18681.9c-7.9 0-15.6 4-20.1 11.3-30.9 50.3-81.4 88.4-154.3 116.4-35.3 13.6-75.6 24.7-123.2 33.8-17.3 3.3-37.3 7.5-57.9 12-71.1 15.5-311.2 71.2-412 135-11 7-14.2 21.5-7.3 32.5 7 11.1 21.6 14.3 32.6 7.4 74.9-47.5 254.1-97.7 396.8-128.8 20.2-4.4 39.7-8.5 56.7-11.7 50.4-9.7 93.3-21.5 131.3-36.2 81.7-31.4 141.4-77.1 177.5-135.7 6.8-11.1 3.4-25.6-7.7-32.5-3.9-2.3-8.2-3.5-12.4-3.5" style="fill:#100f0d;fill-opacity:1;fill-rule:nonzero;stroke:none" transform="matrix(.00882 0 0 -.00882 -12.077 306.687)"/><path d="M11255.9 18831.6c-49.1-20.3-97-43.5-143.3-69.5-104.5-58.4-201.3-130.6-287-214.4z" style="fill:#fff;fill-opacity:1;fill-rule:nonzero;stroke:none" transform="matrix(.00882 0 0 -.00882 -12.077 306.687)"/><path d="M10825.6 18524.1c-6.1 0-12.2 2.4-16.9 7.1-9.1 9.4-8.9 24.3.4 33.4 87 85.1 185.2 158.4 292 218.1 47.3 26.5 96.3 50.3 145.8 70.7 12.1 5 25.8-.8 30.8-12.8s-.7-25.8-12.8-30.8c-47.7-19.7-95.1-42.7-140.8-68.3-103.1-57.6-198-128.5-282-210.6-4.6-4.5-10.5-6.8-16.5-6.8" style="fill:#100f0d;fill-opacity:1;fill-rule:nonzero;stroke:none" transform="matrix(.00882 0 0 -.00882 -12.077 306.687)"/><path d="M12620.4 16595.2c212.9 161.7 1569.9 460.8 2104.1 748.5 73 39.2 184.5 99.2 274.1 101.3 32.3.8 61.8-6.1 85.6-24 84.2-63.6 60.4-522 36.2-632.3-64.1-291.4-283.7-554.7-519.6-707.2-235.8-152.4-543.2-240-813-280.8-310.7-47.1-725.8 9.7-957.1 234.4-193 187.6-246.4 458-238.4 524 1.3 11.1 11 23.2 28.1 36.1" style="fill:#cd681c;fill-opacity:1;fill-rule:nonzero;stroke:none" transform="matrix(.00882 0 0 -.00882 -12.077 306.687)"/><path d="M12620.4 16595.2h.1zm2382.8 826.3c-1.3 0-2.7 0-4.1-.1-83.9-1.9-191.9-60.1-263.4-98.5-286.5-154.3-803.9-310.6-1260.3-448.5-382.9-115.7-744.6-224.9-840.7-298h-.1c-17.5-13.2-18.9-20.1-18.9-20.2-6.2-50.8 38.1-316.2 231.5-504.2 227.5-221.1 634.6-273.8 937.1-228 182.7 27.7 530.1 100.5 803.7 277.3 256.8 166 451.9 431.3 509.3 692.5 27.8 126.2 39.1 558.3-27.3 608.3-17 12.9-39.5 19.4-66.8 19.4m-1425.3-1659.7c-273.3-.1-575.6 73.6-763.6 256.4-195.6 190.1-254.9 466-245.5 543.7 2.2 17.7 14.4 34.8 37.3 52.1 103 78.2 451.8 183.6 855.6 305.6 454.4 137.3 969.3 292.8 1251.6 444.8 75.5 40.6 189.5 102 284.7 104.2 40.1 1 73.9-8.8 100.4-28.8 103.9-78.4 63.4-572.5 45-656.1-60-272.9-263-549.5-529.8-722-281-181.6-635.8-256.1-822.2-284.3-67.1-10.2-139.2-15.6-213.5-15.6" style="fill:#100f0d;fill-opacity:1;fill-rule:nonzero;stroke:none" transform="matrix(.00882 0 0 -.00882 -12.077 306.687)"/><path d="M15040.3 17324.5c-22.5 14.2-.4 49.2 22.1 34.9s.4-49.2-22.1-34.9m-1981.4-1396.4c-22.4 14.3-.3 49.3 22.2 35s.3-49.2-22.2-35m117.6 172.4c-22.4 14.3-.3 49.2 22.2 34.9 22.5-14.2.3-49.2-22.2-34.9m1590.8 219.7c-22.4 14.3-.3 49.2 22.2 34.9 22.5-14.2.3-49.2-22.2-34.9m-64.5-102.7c-22.5 14.3-.4 49.2 22.1 35 22.5-14.3.4-49.2-22.1-35m162.9 185.5c-22.5 14.2-.3 49.2 22.2 34.9 22.4-14.3.3-49.2-22.2-34.9m-262.9-245.6c-22.5 14.3-.4 49.2 22.1 34.9 22.5-14.2.4-49.2-22.1-34.9m303.7 350.7c-22.5 14.3-.4 49.2 22.2 34.9 22.4-14.2.3-49.2-22.2-34.9m80.9 72.4c-22.5 14.3-.4 49.3 22.1 35s.4-49.3-22.1-35m-1.9 120c-22.5 14.3-.3 49.3 22.2 35 22.4-14.3.3-49.3-22.2-35m52.4 98.5c-22.5 14.2-.4 49.2 22.2 34.9 22.4-14.3.3-49.2-22.2-34.9m-7.6 102.1c-22.4 14.3-.3 49.3 22.2 35s.3-49.2-22.2-35m-649.2-876c-22.4 14.3-.3 49.3 22.2 35s.3-49.2-22.2-35m-319.2-120.5c-22.5 14.3-.4 49.3 22.1 35s.4-49.2-22.1-35m441.1 178.6c-22.4 14.3-.3 49.2 22.2 34.9 22.5-14.2.4-49.2-22.2-34.9m-610.3-214.9c-22.5 14.3-.4 49.2 22.2 35 22.4-14.3.3-49.2-22.2-35m325 78.5c-22.5 14.3-.4 49.2 22.1 35 22.5-14.3.4-49.3-22.1-35m-479.2-109.2c-22.5 14.3-.4 49.3 22.1 35s.4-49.2-22.1-35m-149.1-25.2c-22.5 14.3-.3 49.2 22.2 34.9 22.5-14.2.3-49.2-22.2-34.9m1461 1297.4c-22.4 14.3-.3 49.2 22.2 34.9s.3-49.2-22.2-34.9m-1635.9-1277.4c-22.5 14.2-.4 49.2 22.1 34.9s.4-49.2-22.1-34.9m1676.2 1374.7c-19-18.6-48 10.9-29 29.6 19 18.6 48-10.9 29-29.6m-1841.3-1355.4c-22.5 14.3-.4 49.3 22.1 35s.4-49.2-22.1-35m1829.8 1151.2c-19-18.7-48 10.8-29 29.5 19 18.6 48-10.8 29-29.5m-2083.5-897.8c1.5-.9 2.9-1.9 4.4-2.8 22.4-14.3.3-49.2-22.2-34.9-1.5.9-2.9 1.8-4.4 2.8-22.4 14.2-.3 49.2 22.2 34.9" style="fill:#cc9c18;fill-opacity:1;fill-rule:nonzero;stroke:none" transform="matrix(.00882 0 0 -.00882 -12.077 306.687)"/><path d="M12570.2 16670.1c143.7 105.1 817 268 1389 444 250.7 77.1 483.4 153 641 234.1 70.6 36.2 178.5 91.7 264.5 92 31 .1 59.2-7 81.7-24.7 79.8-62.6 49.8-502.1 24.8-607.5-65.9-278.4-280.7-526.9-509.3-668.8-228.7-141.8-524.8-219.9-784.3-253.9-298.8-39.3-696.1 23.2-914.4 243.3-182.2 183.8-229.3 444.3-220.6 507.4 1.5 10.7 11 22.1 27.6 34.1" style="fill:#fcf8cf;fill-opacity:1;fill-rule:nonzero;stroke:none" transform="matrix(.00882 0 0 -.00882 -12.077 306.687)"/><path d="M12570.2 16670.1h.1zm2295.1 746.5h-.6c-80.3-.3-184.7-53.9-253.7-89.4-166.4-85.6-420.1-166.5-644.9-235.7-178.2-54.8-364.5-107.9-544.6-159.2-381.5-108.7-741.8-211.3-837.4-281.2-16.6-12.1-18.1-18.3-18.1-18.4-6.7-48.5 31.6-303.6 214-487.5 214.5-216.4 603.9-274.6 894.6-236.5 175.6 23 509.8 86.2 774.8 250.6 248.7 154.2 439.8 404.9 498.9 654.1 28.5 120.4 46.2 534.3-16.5 583.5-16.6 13.1-39 19.7-66.5 19.7m-1360.7-1565.9c-269.8 0-573.9 75.5-758.1 261.3-184.9 186.4-237.5 452.7-227.3 527.2 2.4 17.3 14.6 33.6 37.1 50 102.5 74.9 449.9 173.9 852.2 288.5 180 51.2 366 104.2 543.7 158.9 222.9 68.6 474.3 148.8 637.2 232.6 73.1 37.5 183.5 94.3 275.2 94.6 38.5.1 71.1-9.9 96.4-29.8 98.7-77.4 52.2-551.4 33.2-631.5-61.8-260.9-261.1-522.8-519.9-683.3-272.6-169.1-614.2-233.8-793.6-257.3-55.7-7.3-115.1-11.2-176.1-11.2" style="fill:#100f0d;fill-opacity:1;fill-rule:nonzero;stroke:none" transform="matrix(.00882 0 0 -.00882 -12.077 306.687)"/><path d="M14946.4 17415.5c79.8-62.6 49.8-502.1 24.8-607.5-65.9-278.4-280.7-526.9-509.3-668.8-228.7-141.8-524.8-219.9-784.3-253.9-298.8-39.3-696.1 23.2-914.4 243.3-182.2 183.8-229.3 444.3-220.6 507.4 1.5 10.7 11 22.1 27.6 34.1h2.8c17.6-165.4 85.8-323.1 190.9-441.7 122.5-138.2 291-220.7 464.6-255.2 173.7-34.5 353.1-23.7 528.5 4.6 222.5 36 444.1 101.2 641.2 222.4s369.1 301.9 462.5 527.7c93.3 225.8 109.5 495.1 4 711.1v1.2c31 .1 59.2-7 81.7-24.7" style="fill:#fff;fill-opacity:1;fill-rule:nonzero;stroke:none" transform="matrix(.00882 0 0 -.00882 -12.077 306.687)"/><path d="M12560.6 16621.1c-.3-70.2 44.5-306.3 216-479.2 215.7-217.5 606.7-276.2 898.6-237.9 176 23.1 510.9 86.4 776.7 251.3 249.7 154.8 441.6 406.6 501 657 29.5 124.6 47.2 537-18.2 588.3-11 8.7-24.3 14.6-39.8 17.8 87.1-202.2 81.4-460.3-16.8-697.7-88.5-214.1-255.5-404.7-470-536.6-178.4-109.7-390.4-183.3-648.1-224.9-209.8-33.9-379.9-35.4-535.2-4.5-134.8 26.8-326.7 93.9-475.1 261.2-98 110.6-164.2 253-189.1 405.2m943.9-765.7c-268.7 0-571.4 75.1-754.7 259.9-183.7 185.3-236 449.4-225.9 523.3 2.2 15.9 13.7 31.2 35.2 46.8l5.1 3.8 25.8-.7 1.8-16.4c17.2-162 83.4-315.1 186.2-431.1 141.4-159.5 325-223.6 454.2-249.3 150.7-29.9 316.5-28.4 521.8 4.7 252.7 40.9 460.2 112.8 634.3 219.8 207.8 127.8 369.4 312.1 454.9 518.9 98.8 239 100.5 499.1 4.5 695.7l-1.9 3.8-.1 24.4h19.6c37.3 0 68.5-9.6 92.7-28.7 91.3-71.7 54.9-528.5 31.6-626.7-61.6-259.8-260-520.5-517.8-680.4-271.8-168.6-612.7-233.2-791.7-256.6-55.6-7.3-114.7-11.2-175.6-11.2" style="fill:#100f0d;fill-opacity:1;fill-rule:nonzero;stroke:none" transform="matrix(.00882 0 0 -.00882 -12.077 306.687)"/><path d="M12910.2 16736c-30.4-6.9-65.7-9.3-94.4-22.5-28.7-13.1-63.3-27.3-73.5-59.5-17.2-54.9 16.2-111.2 47.9-156.8 49.8-71.7 99.5-143.3 149.2-215 41.2-59.4 89.9-123.5 157.9-131.3 39.6-4.5 79.6 12 112.5 37.4s59.5 59.3 84.9 93.5c130.1 176.1 235.7 373.8 312 583.9 4.1 11.4 8.4 30.5 10.5 49.1 2.3 21.3-15.9 37.8-34.5 31.2-112.7-40.3-465.5-162.9-672.5-210" style="fill:#c89519;fill-opacity:1;fill-rule:nonzero;stroke:none" transform="matrix(.00882 0 0 -.00882 -12.077 306.687)"/><path d="M12910.2 16736h.1zm680.8 187.9-.4-.1c-44.9-16.1-445.2-158.5-675.1-210.8h-.1c-10-2.3-20.4-4.1-30.4-5.8-20.8-3.6-42.3-7.3-59.4-15.1l-4.8-2.2c-24.3-11.1-49.5-22.5-56-43-13.6-43.4 13.5-91.2 44.8-136.3l16.2-23.3c44.3-63.9 88.7-127.8 133-191.7 40.1-57.8 84.1-114.7 141.1-121.2 30-3.4 63.9 8.2 95.5 32.6 31.4 24.2 56.9 57.2 80.3 88.9 129.1 174.7 233.1 369.2 308.8 577.9 3.2 8.7 7.2 25.6 9.3 43.6.3 3.1-.8 5.2-2 6.1zm-480.7-797.3c-5.3 0-10.5.3-15.7.9-76.7 8.7-128.3 74.5-174.6 141.2-44.3 63.9-88.6 127.8-133 191.7l-16.2 23.3c-36.3 52.4-70.8 114.4-51 177.4 12.8 40.5 50.9 57.8 81.5 71.8l4.7 2.1c22.6 10.3 47.2 14.6 70.9 18.7 9.9 1.7 19.3 3.3 28.1 5.3 227.2 51.7 625.1 193.2 669.7 209.2 15.9 5.6 33.2 2.8 46.4-7.7 14.3-11.3 21.6-29.4 19.5-48.3-2.1-19.2-6.7-40.6-11.7-54.4-77.3-213.1-183.4-411.6-315.3-590-24.2-32.8-53.2-70.2-89.3-98.2-36.4-28-76.3-43-114-43" style="fill:#100f0d;fill-opacity:1;fill-rule:nonzero;stroke:none" transform="matrix(.00882 0 0 -.00882 -12.077 306.687)"/><path d="M14635.6 17313c26.7 16.6 55.9 34.6 85.9 28.9 24.1-4.5 43.9-24.4 55.8-47.9 11.7-23.6 16.6-50.5 20.3-77.2 6-42.7 6.4-85.3 6.7-128.3.3-48.3 6.5-95.5 2.5-144.1-4.1-48.8-16.1-97.8-41.1-138.7-25.1-40.9-64.2-72.9-108.4-80.1-28.6-4.6-57.5 1.1-85.4 8.5-133.2 35-246.5 116.6-374.2 166.3-51.6 20.2-143 58.9-193.8 81.9-28.6 12.9-109.3 60.3-50.3 74 206 47.6 470.6 124.8 682 256.7" style="fill:#c89519;fill-opacity:1;fill-rule:nonzero;stroke:none" transform="matrix(.00882 0 0 -.00882 -12.077 306.687)"/><path d="M13963.9 17034.4c11.3-9.6 31.7-22.5 49.7-30.6 52.6-23.8 142.6-61.9 192.7-81.4 53.3-20.8 104.4-47.1 153.8-72.6 72.8-37.4 141.5-72.8 217.8-92.9 24.7-6.5 50.9-12 75.6-8 34.6 5.6 69 31.4 92.1 69.1 20.7 33.9 33.4 77.1 37.7 128.4 2.4 29.1.9 57.7-.6 88-.9 17.6-1.8 35.7-1.9 54-.3 38.7-.6 82.6-6.6 125.1-3.9 28.1-8.4 50.6-18.1 69.9s-24.3 32.6-39 35.4c-21.1 3.9-45.5-11.2-69-25.8-171.2-106.8-395-191.4-684.2-258.6m671.7-334c-24.3 0-47.7 5-69.7 10.9-81.3 21.3-155.6 59.6-227.4 96.6-48.3 24.9-98.3 50.7-149.3 70.5-50.7 19.8-141.9 58.3-195 82.4-21 9.5-89 43.5-85.1 82.9 1.2 12.4 9 28.6 39.2 35.6 286.4 66.1 507.2 149.1 674.8 253.7 28.4 17.6 63.6 39.5 102.8 32.1 29.5-5.6 55.9-27.7 72.4-60.6 13.3-26.5 18.7-56.2 22.6-84.5 6.4-45.5 6.8-91.1 7-131.3.1-17.3 1-34.9 1.9-51.9 1.6-30.5 3.2-62 .5-94.3-4.9-58.7-19.9-108.9-44.5-149.2-30.6-49.9-76.1-83.1-124.8-91-8.5-1.3-17-1.9-25.4-1.9" style="fill:#100f0d;fill-opacity:1;fill-rule:nonzero;stroke:none" transform="matrix(.00882 0 0 -.00882 -12.077 306.687)"/><path d="M13320.9 16224.1c-24.4-28.8-52.5-68.5-22.4-103 5.9-6.8 13.4-11.8 21.5-14.9 92.6-34.2 200.2-16.8 297.7-28.2 57-6.6 121.3-6.6 163.8 36.5 49.3 50 35.8 93.8 30.1 166.6-15.4 192.1-15.3 401.1-30.7 593.2-1.8 22.6-3.7 45.6-12.2 66-10.5 25.3-33.3 46.5-60.5 39.9-14.1-3.4-24.8-16.4-27.3-32.1-31.5-195.2-188-521.2-360-724" style="fill:#c89519;fill-opacity:1;fill-rule:nonzero;stroke:none" transform="matrix(.00882 0 0 -.00882 -12.077 306.687)"/><path d="M13338.9 16208.8c-35-41.3-34.4-58.8-22.6-72.2 3.1-3.6 7.3-6.5 12-8.3 55.6-20.5 117.1-21.2 182.3-21.8 36.3-.4 73.7-.8 109.8-5 48.1-5.6 108-7.3 144.3 29.5 34.5 35 31.5 64.6 26.1 118.3-.9 9.4-1.9 19.4-2.8 29.9-7.7 96.5-11.6 198.7-15.3 297.6-3.8 98.4-7.6 200.1-15.3 295.6-1.6 20.5-3.3 41.6-10.5 58.8-4.7 11.5-17.1 29.9-33.1 26-4.6-1.1-8.6-6.5-9.6-12.8-33.5-207.6-197.4-537.5-365.3-735.6m328.1-157.6c-18 0-35.6 1.5-52 3.4-33.7 3.9-68.3 4.3-104.9 4.7-66.3.7-134.9 1.4-198.3 24.8-12.1 4.6-22.8 12-31.1 21.5-46.2 52.9 3.5 111.6 22.2 133.7 163.3 192.6 322.4 512.2 354.7 712.5 4.1 25.5 21.8 45.7 45.1 51.3 35.6 8.6 70.9-13 87.8-53.8 10-24.1 12.1-50.1 14-73.1 7.7-96.6 11.6-198.8 15.3-297.6 3.8-98.4 7.6-200.1 15.3-295.6.8-10.3 1.8-19.9 2.7-29 5.6-56.5 10.5-105.3-39.5-156.1-36.5-37-85-46.7-131.3-46.7" style="fill:#100f0d;fill-opacity:1;fill-rule:nonzero;stroke:none" transform="matrix(.00882 0 0 -.00882 -12.077 306.687)"/><path d="M13869.9 17014.3c-19.6 10.9-42.8-6.2-41.1-30.4 9.2-137.6 71.7-522.7 56.3-687.3-2.7-28.5-6.1-57.3-2.2-85.5 3.9-28.1 16.1-56.3 38.2-71 31.5-20.9 72.3-9.5 107.3 4.1 153.4 60 295.8 154.6 415.8 276.2 43.7 44.3 87.8 103.2 77 166.8-10.4 61.7-67.2 97.6-118.2 125.4-111.2 60.6-372.8 213-533.1 301.7" style="fill:#c89519;fill-opacity:1;fill-rule:nonzero;stroke:none" transform="matrix(.00882 0 0 -.00882 -12.077 306.687)"/><path d="m13857.3 16994.1-1.5-.6c-1.9-1.1-3.8-3.9-3.5-8 2.9-42.5 10.9-109.4 20.3-186.8 20.8-173.3 46.8-388.8 36-504.3l-.8-7.8c-2.4-25.4-4.7-49.4-1.5-72.3 3.4-24.8 13.8-45.2 27.9-54.5 22.5-15 55.9-5.2 85.7 6.4 149.5 58.5 290.4 152.1 407.5 270.7 54.7 55.5 77.8 103.4 70.5 146.3-8.7 51.5-59.4 83.1-106.2 108.7-55.8 30.4-149.4 83.9-248.5 140.5-100.7 57.5-204.7 117-284.7 161.3h-.1zm104.6-889.1c-18.6 0-37 4.2-53.9 15.5-25.5 17-43.2 48.8-48.5 87.4-3.9 28.3-1.2 56.2 1.3 83.1l.8 7.8c10.3 110.4-15.3 323.2-35.9 494.2-9.4 78.1-17.5 145.6-20.5 189.3-1.4 20.7 8.3 40.3 25.3 51.1 15.7 9.9 34.7 10.5 50.8 1.6 80.3-44.5 184.5-104 285.3-161.6 98.9-56.5 192.3-109.9 247.7-140.1 60.7-33.1 118.5-73.3 130.2-142.2 9.9-59-17.4-120.3-83.5-187.3-121.7-123.3-268.3-220.7-424-281.5-22.6-8.9-49-17.3-75.1-17.3m-4365.41 4454.6c-7.15 6.8-26.67 14.5-58.48 23.1-3.73.7-8.34 1.8-13.84 3.3s-9.21 2.4-11.07 2.8c-15.47 3.2-33.35 1.8-53.7-4.2-52.16-14.9-101.54-73.3-148.6-175.5-12.02-26-20.23-46.3-24.62-61s-11.08-42.5-18.95-82.7c-9.65-49.2-14.17-87.6-14.44-113.8-.29-26.1 4.43-54.4 13.06-84 9.39-32.2 24.13-59.5 44.84-80.5 20.7-21.1 44.89-34.5 72.43-40.2 23.06-4.8 45.76-4 68.1 2.3 46.68 13 88.74 39.3 125.54 78.8 28.21 30.3 50.02 63.9 65.56 100.2 15.53 36.3 28.11 83.7 37.81 142.2 2.08 12.6 3.14 19 5.22 31.6 4.9 29.5 4.81 58.4-.18 86.5-13.9 67.7-43.49 124.7-88.68 171.1m-97.45 111.7c8.22.2 31.75-2.8 70.18-9.3l14.79-3c19.72-4 38.54-13.4 56.48-27.6 17.26-13.7 38.31-39.2 62.78-76.6 16.43-24.2 27.62-42.6 33.57-55.3 5.9-12.7 12.25-31.9 18.96-57.6 9.5-36.4 14.86-64.9 16.05-85.5 1.2-20.5-1.16-49.3-7.11-86.2-1.33-8.3-2-12.4-3.34-20.7-13.69-76.8-32.94-139.7-57.94-188.6-25.02-48.9-61.69-94.2-110.33-135.7-24.82-21.7-55.33-39.5-91.62-53.4-36.25-13.8-68.28-19.9-94.91-17.5-12.97 1.1-23.2 2.7-30.27 4.2-67.53 13.9-119.66 49-155.88 104.5-11.39 17.5-22.52 43.3-33.32 77.4s-16.89 64.4-18.53 90.6c-1.77 28.3 3.33 74 15.4 136.8 6.8 35.4 13.18 62.5 19.44 80.7 6.92 20.1 13.99 44 21.25 70 3.53 12.7 13.71 34.2 29.78 64 16.07 29.9 31.35 53.6 44.57 71.1 13.07 17.2 28.61 35.3 46.76 53.2 18.14 17.9 33.04 30.3 44.56 37.4 12.29 7.5 29.52 14 51.59 19.2 22.06 5.2 41.36 7.6 57.09 7.9m379.48-263.3c7.99 6 17.91 7.9 29.78 5.8 11.84-2.1 20-7.3 24.68-14.6 4.42-6.8 5.31-28.3 1.74-64.3-1.94-20.4-2.93-30.6-4.89-51 13.27 8.3 19.89 12.4 33.12 20.6 24.11 14.8 51.15 27.3 80.75 36.9 22 7.1 38 11.1 47.5 12.2 9.4 1.2 26 .2 49.2-2 8.7-.9 18.9-2.1 30.1-3.9 15-2.5 28.1-7.6 39.2-15.5 20.5-13.4 36.7-28.8 48.4-46.2 11.8-17.3 16.8-32.7 15.1-45.9-.1-.6-.4-1.6-.9-2.9s-.8-2.2-.9-2.9c-7.9-20.4-20.9-29.1-39.2-26.3-12.6 2-26.1 10.2-38.2 24.3-16.6 19.3-34.8 32-54.9 35.3-7.6 1.2-16.2 1.6-25.9 1.2-65.9-2-128.53-35.9-188.53-101.8-7.89-8.4-11.85-12.6-19.74-20.9-5.55-36.3-13.28-91.2-23.18-164.6-9.87-73.5-17.64-128.6-23.28-165.6-5.42-4.3-8.13-6.5-13.56-10.8-9.14-7.9-19.51-10.7-31.15-8.7-10.32 1.9-18.66 7.8-25.05 17.8-10.19 15.4-7.33 73.5 8.52 174.3 3.11 19.8 12.77 78.6 29.54 175.7 18.93 109.5 31.26 176.6 36.35 200.8 5.07 24.2 10.19 38.5 15.4 43m731.98-208.5c-38.4 5.1-89.7-18.2-154.7-69.6-30.6-23.9-53.5-45.4-68.5-64.4-15-19.1-27.5-42.5-37.6-69.9-6.8-18.5-11.8-38.8-14.6-60.6-4.2-32.5-2.6-62.2 4.7-89.3q11.1-40.5 36.3-59.4c10.2-7.6 21.7-12.3 34.6-14.1 25.2-3.6 53.3 2.2 84.3 17.5 30.9 15.2 59.5 37.7 85.7 67.2 17.2 19.2 27.8 32.7 31.9 40.2s8.5 23.3 14 45.6c11.2 45.6 24.7 87 37 122.5 10.3 29.7 15.4 44.6 25.6 74.4-6.1 7.3-9.1 10.9-15.2 18.1-10.8 12.9-21.5 22.7-32.3 29.5q-16.05 10.2-31.2 12.3m-41.3 81.3c17.6 3 32.6 3.7 45.2 2 27-3.6 54.7-17.1 83.4-40.3 10.5-9 15.7-13.5 26.2-22.5 6.5 6.8 9.8 10.3 16.2 17.1 10.8 10.8 21.5 15.5 32.2 14.2 10-1.3 17.7-5.4 23-12.5 5.3-7 7.4-15.9 6.3-26.5-.9-8-2.9-15.4-6.2-22.4-16.5-35-35-84-55.1-146.6-26.3-82-43.1-156.1-50.3-221.9-2.3-21.8-3.8-44.6-4.5-68.1-.7-25.3-1.9-44.8-3.3-58.1-2.7-24.5-10-39.3-21.5-43.7-8.1-3-15.9-4-23.1-3.1-11.7 1.5-21 8.3-27.8 20.3-6.9 12-10.9 28.2-10.9 47.4 0 20.4-2.3 31.6-8.1 32.3-3.9.5-9.6-3.2-17-10.8-8.1-8.4-27.1-19-56.9-31.8-29.7-12.8-52.6-19.5-67.6-21-13.2-1.3-27.2-1.2-41.5.8-29.7 4.3-54.6 12.8-73.8 25.9-23.6 16-43.9 41.8-60.8 76.4-16.8 34.6-25.5 69.2-26.1 103.7-.4 12.2.6 26.6 2.8 43.1 5.1 39.1 13.6 72.9 25.1 101.5 29.4 75.2 81.5 135 155.8 180.2 34 20.7 51.6 31.4 52.9 31.9 24.3 15.4 52.8 26.2 85.4 32.5m321-43.8c6.3 5.7 15.8 8.3 28.3 6.8 8.9-1 15.9-3.8 21.2-8.4 9.9-8.8 12.3-43.3 7.1-103.7-.5-4.8-.7-7.1-1.2-11.9-2.7-28-1.5-42.2 3.5-42.8q2.85-.3 11.4 7.8c9.8 9.7 32.8 25.1 68.6 46.4q53.7 32.1 79.5 43.5c32.4 13.5 64.3 18.7 95.8 15.6 28.3-2.8 54.4-12.1 77.8-26.7 28.6-17.8 50.5-41.3 64.2-71.2s22-72.1 25.1-126.7c3-54.6 1-132.6-3.6-232-.8-17.9-1.9-39.4-3.7-64.1-2.3-30.6-7.2-49.3-14.9-56s-18-9.5-31-8.4c-11.1 1-19.6 4.8-25.6 11.3-6.7 7.3-10.3 19.7-10.9 37.2s1.2 66.9 4.7 147.5c2.9 69.3 3.9 117.2 3.4 143-.6 25.9-3.5 53.4-9 81.9-3.6 18.3-9.7 32.7-18.2 42.9-8.4 10.2-21.8 19.1-39.5 25.9-12.2 4.6-23 7.2-31.9 8.1-27.2 2.7-63.9-9.1-109.5-35.3-49.9-28.7-91.3-61.8-123.8-98.5-7.4-8.9-11.1-13.3-18.6-22.1-5.3-55.1-7.9-82.6-13.3-137.6-6.1-63.2-10.4-102.7-12.9-118.6-2.5-15.8-7.4-28.2-12.9-36.8-8.1-12.9-18-20.2-30.4-18.8-5.2.6-9.7 1.5-13.5 2.6-7.6 2.2-14.1 6.7-19.3 13.3-4.7 6-5.5 30-2.6 71.9 2.9 42 16.2 189.1 39.8 441.2 1.1 10.7 1.6 16.1 2.7 26.9 2.5 25.2 7.3 40.5 13.2 45.8m874.5-173.8c-9.1 4.7-20.6 7.3-33.9 8.2-36.7 2.3-69.7-4.8-98.6-21.5-29.7-17.2-52-39-66.8-65-14.7-26.1-23.5-60.4-26.3-103.1-1.7-26 2.1-50.7 11.6-74.2 15-38.7 36.1-58.9 63.1-60.8 1.2-.1 1.8-.2 2.9-.2 34.9-1.8 80.4 22.9 136 74.3 19.5 18.1 29.3 27.1 48.7 45.3 2.7 29.1 4 43.7 6.6 72.9 3 29.1 4.5 43.7 7.5 72.8-7.2 8.5-10.8 12.7-18 21.2-13.2 15.5-24.2 25.7-32.8 30.1m91.9 103c3.8 1.8 8.3 2.5 13.3 2.3 14.5-.8 24.7-7.1 30.5-18.8 1.7-4.1 2.1-15.2 1.3-33.2-.9-18.7-3.1-46.1-6.7-81.9-5.6-54.5-11.2-136.3-16.3-245.1-.8-16.8-1.1-25.2-1.9-42-1.9-40.1-2.8-60.1-4.7-100.2-3.4-84.8-8.3-138.2-14.9-160.3-6.6-22-14.4-41.2-23.4-57.4s-21.7-30.1-38.1-41.5c-16.3-11.4-34.3-20.3-53.8-26.4-26.7-8.5-58.4-10.4-94.8-6-36.4 4.5-68.8 18.7-97 41.9-20.5 17-32.3 35.9-34.9 56.9-2.5 21-.3 35.6 6.8 43.7 7.7 8.8 17.9 12.7 30.3 11.8 18.2-1.3 33.1-15.4 44.6-42.3 4.6-11.1 14-20.6 28.4-28.6 14.3-8.1 30.2-13.3 46-13.7 33.6-.9 59.5 7.6 73.7 21.5 14.2 13.8 24.7 33.8 31.6 59.8s13 89.8 18.2 191.2c.8 16.7.4 27.1-1.4 31.2-.5 2.1-1.5 3.1-2.7 3.2q-6.75.3-32.1-19.2c-54.6-39.5-104.1-57.6-148.2-54.5-40.1 2.8-76.7 23.3-107.2 61.1-36.6 45.5-52.2 103.6-47.4 171.6.1 2 .5 5.5 1.1 10.5.7 4.9 1.2 8.8 1.3 11.4 11.1 94.3 50.8 160.3 117.7 199 52.1 30.1 103.6 43.8 154.7 40.5 30.3-1.9 56.1-9.8 77.6-23.9 4.9-2.9 8.3-5 10.1-6.1 1.9-1.1 3.6-1.7 5.2-1.8 1.5-.1 2.7.4 3.3 1.3.7 1 1.4 2.5 2.2 4.4q10.05 30.6 27.6 39.6m410.7-117.4c-16.2 10.5-36.3 16.8-60.4 19l-12.3.5c-17.8.6-32.3-1.5-43.5-6.5-11.3-4.9-24.5-14.7-39.6-29.5-24.4-23.7-41.1-53.8-50.1-90.2-3.8-14.5-5.7-23.5-5.9-26.8-.1-4 1-7.4 3.5-10.2 13.6-13.3 47.4-22.7 100.8-28.2 9.6-1 20.5-1.7 32.7-2.2 15.3-.5 31.2 3.5 47.4 11.5 15.3 7.5 30.1 19.4 43.6 35.7 13.6 16.3 21.7 31.4 24.6 45.4q1.05 3 1.2 9c.8 28.7-13.3 52.8-42 72.5m-125.1 102.7c12.8 4.2 30.8 5.8 54.2 5 32.7-1.2 61.3-6.9 85.7-16.9 19.3-8 38.3-21.6 56.8-40.8 18.6-19.2 32.4-39.4 40.5-60.2 8.6-21.9 12.5-43.4 12.1-63.4-.8-39.5-17.8-78-51.4-115.1-43.2-47.6-96.5-70.5-158.8-68.2-2 0-5.4.3-10.2.8s-8.5.9-11 1c-30.8 3.1-57.1 8.2-78.7 15.1-9.5 3.7-19.1 5.9-28.7 6.3-1.1 0-1.7.1-2.9.1-1.3-1.9-.3-12.4 3.2-31.2 3.5-18.9 7.9-36.6 13-52.8 4.7-14.8 13-29.8 25.1-44.7s24.8-26.1 38.2-33.1c15.1-8 30.4-12.2 45.3-12.7 41.4-1.5 74.1 15.5 97.6 50.9 11.4 16.3 20.1 27 26 31.3 7 5.1 14.7 7.6 22.5 7.4 10.3-.3 19.4-4.6 27.3-12.8s11.7-18 11.5-29.4c-.4-14.7-7.7-32.2-22.1-52.5-14.4-20.4-30.9-36.3-49.4-47.8-38.9-23.6-74.5-34.8-106.3-33.7-2 .1-4.8.4-8.3.8q-5.4.75-9.3.9c-48.1 4.4-90.1 24.9-125.7 61.2-25 25.9-43.9 60.9-56.6 105s-17.9 91.2-15.8 141.3c.8 20 3.3 42.4 7.6 66.8 9.8 55.6 29.9 103 59.3 141.7 29.5 38.8 65.8 65.3 109.3 79.7m841 203.5c9.3 2.1 19.9 3.3 31.8 3.4 28 .4 52.4-3.8 73.2-12.8 13.2-5.7 27.9-16.8 44.2-33.1 16.2-16.4 27-31.3 32.3-44.4 4.6-11.3 7.1-23.6 7.4-37 .5-22.7-4.6-37.9-15.1-45.5q-5.55-4.05-21.6-4.5c-8.9-.2-17 3.9-24.3 12.1q-11.1 12.3-11.4 27.3c-.2 8.7-5.5 18.9-16.1 30.8-10.5 11.8-21.6 19.1-31.8 22.5-6.8 2.2-15.1 3.7-24.5 3.6-31.4-.5-65-16-101.1-46.4-36.2-30.4-64.4-67.4-84.5-110.9-29.3-63.6-45.6-131.1-48.1-202.6 0-2.7-.2-7-.5-13s-.4-10.4-.4-13.1c0-131.6 42.3-219.3 127.6-262 15.6-7.9 29.2-11.8 40.9-11.6 7.1 0 13 .4 17.5 1.2 18.8 2.2 33.6 6.4 44.6 12.6 10.9 6.2 22.8 17 35.5 32.6s21.6 28.5 26.6 38.6 9.4 25.8 13.7 46.4c8 38 23.2 57.6 44.3 58.1 9.7.2 19.4-4.6 29.3-14.4 9.2-9.2 13.9-17.4 14-24.7.1-2-.5-7.7-1.6-17.1-4.2-42.9-19.8-84.4-46.9-124.4-27.2-40.1-58-67.1-92.3-81-17.5-7.6-43.5-12.4-77-13.1-31-.7-56.8 4.1-76.3 13.3-59.5 29.1-103.9 69.5-133.2 121-29.4 51.5-46.1 117.4-50.3 197.6-.6 6.7-.9 17-.8 31.1.2 81.5 15.4 158.3 44.8 230.4 29.5 72.2 66.3 126.7 110.6 163.7 16.8 14.1 36.9 27.7 60.2 40.6s43.2 21.1 59.3 24.7m680.7-188.6c7.3 6.9 14.7 10.8 22.2 11.2 7.6.5 16.3-2.7 24.2-9.6 7.3-6.4 11.2-15.8 11.8-26.5.6-12-1.9-38.6-7.5-79.7-15.4-111.4-21.5-206.4-17.8-285.2 2.8-58.7 11.2-110.8 25.1-156.1 3.2-13.2 5-22.2 5.2-26.9 1.5-29.3-10.9-44.8-36.9-46.2-29.3-1.6-49.6 28.5-60.8 90.1-3.3 16.6-5.9 24.8-7.8 24.7q-3-.15-21.3-26.1c-37.3-55.4-85.1-84.4-143.1-86.7-24.7-1.1-44.7 1.7-59.9 8.2-15.2 6.4-32.9 19.7-52.9 39.7-31.5 31-54.4 73.1-68.6 126.2-7.1 24.5-11.5 69.2-13.1 134-1.4 56.1-.4 110.5 3 163.1 3.4 52.5 8.8 85 16 97.2 6.7 11.5 17.2 17.6 31.7 18.1s24.1-4.6 28.9-15.1q4.05-7.8 4.5-21.9c.2-8-.8-27.1-3.1-57.2-3.2-42.3-3.9-91.1-2.3-146.6 2-67.5 6.6-114.1 13.8-140 11.6-41.6 26.1-72.3 43.6-91.7 18.1-20 37-29.6 56.4-28.8 44.7 1.8 81.9 34.1 111 96.7s45.4 115 48.4 156.4c2.1 29.3 7.2 74.5 16 134.8 8.7 60.3 15 99.6 19.4 117 3.1 12.1 8 21.1 13.9 26.9m148.2 13.8c6.5 7.8 15.8 12 27.7 12.8 12 .8 21-2.3 27-8.2 5.8-5.6 11.1-26.4 15.1-62.3 2.3-20.3 3.5-30.5 5.8-50.8 11.2 11.2 16.8 16.8 27.9 28 20.4 20.2 44.1 38.9 70.8 55.4 20 12.2 34.7 20 43.7 23.4 8.9 3.3 25.2 6.5 48.2 9.8 8.7 1.3 18.8 2.5 30.2 3.5 15.1 1.2 28.8-.6 41.3-5.6 22.7-8.1 41.7-19.2 56.7-33.3 15.1-14.1 23.1-27.8 24.2-41.1 0-.7-.1-1.7-.3-3.1s-.3-2.4-.2-3q-5.25-32.7-32.7-35.1c-12.7-1.1-27.5 3.6-42.3 14.5-20.1 14.8-40.4 22.7-60.7 21.1-7.6-.6-16-2.3-25.4-5.1-63.7-17.8-117.5-65.9-162.1-144.6-5.9-10.1-8.9-15.1-14.9-25.2 2.2-36.7 6-92 11.7-165.9 5.6-74 9.5-129.6 11.7-167-4.3-5.5-6.5-8.3-10.9-13.8q-10.8-14.85-28.5-15.9c-10.4-.7-19.7 3-28 11.2-13.1 12.5-22.4 69.9-27.9 171.9-1.1 20.1-3.9 79.7-7.8 178.3-4.3 111.3-6.3 179.7-6.4 204.5 0 24.7 2 39.9 6.1 45.6m755.4-26.7c-38.5-4.3-83.6-39.4-136.2-105.1-24.8-30.7-42.7-57.2-53.3-79.3-10.7-22.2-17.9-48.1-22.1-77.2-2.8-19.6-3.4-40.6-1.6-62.5 2.7-32.7 10.4-61.3 23.2-85.9s28.6-41 47.6-49.1c11.5-4.9 23.7-6.7 36.7-5.4 25.2 2.5 51.4 15 78.4 37.3 26.9 22.4 50.1 51.1 69.5 86.2 12.8 22.9 20.3 38.5 22.7 46.9 2.5 8.3 3.4 24.7 4.1 47.8 1.5 47.1 6 90.7 10.6 128.2 3.9 31.5 5.8 47.3 9.5 78.8-7.4 5.6-11.2 8.4-18.6 14-13.2 9.9-25.6 16.9-37.5 20.9s-22.9 5.5-33 4.4m-57.1 69.3c16.5 7.2 31 11.5 43.5 12.8 27.1 3 56.9-3.4 89.7-19.1 12.1-6.2 18.1-9.4 30.2-15.6 4.9 8.2 7.4 12.4 12.2 20.6 8.3 13.1 17.7 20.3 28.4 21.5 10 1.2 18.4-.9 25-6.5q10.05-8.4 11.7-24.3c.8-8 .4-15.8-1.4-23.4-8.8-38.1-16.6-90.2-23.2-156.2-8.6-86.2-9.5-162.5-2.8-228.2 2.2-22 5.5-44.5 9.8-67.5 4.5-24.9 7.4-44.1 8.8-57.4 2.5-24.6-1.5-40.7-11.9-47.8-7.2-4.9-14.7-7.8-21.8-8.6-11.7-1.3-22.2 3-31.3 13-9.2 10.1-16.5 24.9-20.5 43.6-4.3 19.9-8.9 30.2-14.7 29.5-3.8-.4-8.6-5.4-14.2-14.6-6.2-10.1-22.5-25-48.8-44.7-26.3-19.6-47.2-31.7-61.5-36.8-12.6-4.4-26.2-7.7-40.5-9.2-29.9-3-55.9-.6-77.3 7.4-26.3 10-51.4 30.2-75 59.8-23.6 29.7-39.2 61.3-47 94.8-2.9 11.8-5 26-6.3 42.7-3 39.3-1.9 74.3 3.4 104.9 13 80.4 51.3 151.2 114.2 213.2 28.8 28.4 43.7 43 44.9 43.8 20.4 20.9 45.9 38.3 76.4 52.3m489 36.8c14.5 7.4 32.7 12.6 54.7 15.7 25.7 3.7 47.2 3.6 64.2.3 21.4-4.3 42.6-14.6 63-31.2 20.4-16.7 31.6-32.5 33.6-47.7 1.2-9.3-1.5-18.2-8.2-26.6-6.6-8.4-14.7-13.3-24.1-14.7-11.4-1.7-23.8 4.8-37.1 17.8-11.9 11.7-23.9 18.9-34.5 21.8-10.6 2.8-25.4 2.9-44.3.2-34.7-4.9-65.5-28-92.8-69.5-15.4-22.9-24.9-45.1-28.6-66.4-3.6-21.4-3.1-52.6 1.6-93.8.6-5.5.9-8.3 1.5-13.9 4.1-35.2 9.7-61.5 16.9-79.1 7.2-17.5 20.9-35.9 38.6-54.9 24.9-26.6 51.1-39.6 78.8-35.7 5.8.8 10.3 1.8 13.4 2.9 16.5 5 29.7 12.1 39.7 21.3s21.3 24.8 33.5 46.8c12.8 23.3 22.3 38.6 28.8 43.7 5.4 4.3 11.8 6.8 17.6 7.6 10.8 1.6 21-.9 30.3-7.6 9.4-6.6 14.8-16 16.4-27.9 1.4-10.6-5.1-29.8-19.6-57.6-14.4-27.8-29.3-48.9-44.6-63.2-29.8-29.3-65.9-47-108-52.9-7.7-1.1-15.3-1.4-22.6-1.1 2.1-5.8 3.8-12.7 5.4-20.5 1.3-5.8 2.8-9.2 4.2-10q2.1-1.2 10.2-2.1c16.5-.4 29.2-5.1 38.1-12.9 9.2-8.1 15.3-19.7 17.2-35 2.1-17.2-1.7-32-11.5-44.1-8.6-10.6-23.1-17.4-43.3-20.2-9.2-1.2-17.5-.7-25.1 1.6-13.8 4.2-21.1 10.3-22 18.2-.3 2.7.4 5.7 1 8.2 1.2 4.8 2.4 9.5 5.1 11.8 2.7 2.4 7.3 4 13.8 4.9 5.2.8 9.4.7 11.8.7 7.3-.3 12.2.6 12.9.7 5.2.7 8.9 2.6 11.2 5.6q3.45 4.5 3 7.5c-.2 2-1.9 4.8-4.7 6.4-2.8 1.7-9.5 1.7-17.9.6-6.6-1-9.9-1.4-16.6-2.3-6.5-.9-11.9.4-16.3 3.8-2.9 2.3-4.9 5.6-6.1 9.8-1.1 4.2-2.7 14.6-4.6 31.2-2 17.2-2.7 28.4-2.9 32.8-.1 2.5.1 5.1 1.2 7.3-2.9.8-4.3 1.2-7.2 2-43.1 14.4-81.7 48.4-114.8 101.8-27.2 44-43.2 90.9-48.6 140-2.5 23.2-3.3 49-2.6 77.3 1.1 48.4 15 95.5 41.6 141q39.9 68.25 99.3 99.6m610.8 43.3c-38.2-6.8-81.4-44.7-130.3-113.8-23.1-32.2-39.5-59.8-48.9-82.6s-15.3-49.1-17.8-78.4c-1.7-19.9-1.2-40.8 1.9-62.6 4.5-32.4 13.7-60.5 27.9-84.2 14.1-23.7 30.9-39.1 50.3-46 11.8-4.1 24.1-5.2 37-3 25.1 4.2 50.6 18.3 76.3 42.4 25.7 24 47.3 54.2 64.8 90.5 11.5 23.7 18.1 39.8 20.1 48.3s2 24.9 1.5 48c-1.2 47.1.9 91 3.5 128.7 2.1 31.7 3.1 47.5 5.1 79.2-7.8 5.1-11.7 7.7-19.4 12.8-13.7 9-26.6 15.2-38.7 18.5-12.1 3.2-23.2 4-33.3 2.2m-60.9 65.5q24.15 12.3 42.9 15.6c26.8 4.7 57 .3 90.7-13.2 12.4-5.5 18.6-8.2 31.1-13.7 4.4 8.5 6.6 12.8 11.1 21.4 7.5 13.6 16.5 21.3 27.1 23.3 10 1.9 18.5.2 25.4-4.9 7-5.2 11.3-13 13-23.5q1.95-11.85 0-23.4c-6.7-38.6-11.6-91.2-14.6-157.4-3.8-86.7-.5-162.9 9.8-228.1 3.5-21.7 8.1-44.1 13.6-66.7 5.9-24.6 9.9-43.6 11.9-56.8 3.9-24.3.8-40.7-9.2-48.5-6.9-5.3-14.2-8.6-21.3-9.9-11.6-2.2-22.3 1.5-32.1 10.9-9.7 9.5-17.8 23.8-22.9 42.2-5.3 19.6-10.5 29.6-16.3 28.5-3.8-.6-8.3-5.9-13.4-15.5-5.6-10.5-21.1-26.5-46.3-47.8-25.3-21.3-45.4-34.7-59.5-40.7-12.3-5.2-25.8-9.4-40-11.8-29.7-5-55.8-4.3-77.7 2.4-26.8 8.2-53.1 26.7-78.3 54.8s-42.6 58.6-52.3 91.6c-3.5 11.6-6.3 25.6-8.6 42.2q-7.8 58.5-2.4 105c8.5 81 42.9 154.2 102.3 220.2 27.3 30.2 41.4 45.8 42.5 46.6 19.3 22.2 43.8 41.2 73.5 57.2m570.9 39.9c-24 .3-43.2-.9-57.6-3.8-31.3-6.4-54.9-41.1-71.4-104.1-9.8-37.2-9.8-85.3.3-144.4 5.7-33.4 15.2-63.4 28.2-90 12.2-24.7 27.6-46.2 46.3-64.5s37.7-29.3 55.1-34.1c14.4-4 31.7-4.7 50.9-.8 35.1 7.3 62.5 25.2 82.3 51 15 19.5 26.7 50.1 33.2 91.3 6.6 41.2 7.4 86.8 2.6 136.8-.6 10-2.5 23.6-5.6 40.6-6.8 35.9-24.3 64.4-52.3 85.6-17.6 13.9-34.4 23.4-50.6 28.4-16.2 5.1-36.7 7.6-61.4 8m-71.9 76.9c1.2.3 3.7 1 7.4 2.1 3.6 1.1 6.4 1.8 8.3 2.2 52.2 10.8 97.7 9.2 136.6-4.9 18-6.4 40.9-19.7 68.7-39.8 27.8-20.2 46.3-36.8 55.3-49.8 18.9-27.2 32.9-64 41.8-110.5 10.3-53.6 12.4-109.7 6-168.1-6.4-58.3-20.6-105-42.8-139.8-15.4-24.4-36.5-45.4-63.3-62.7-26.8-17.2-55.1-29-84.6-35.1-28.3-5.8-53.3-6.2-74.8-1-65.2 15.4-120.7 66.7-166.2 153.6-11.5 21.5-19.8 48.1-25.1 79.7-1.6 9.9-2.4 14.8-4.1 24.7-8 48-11 82.7-10.3 102.9.9 24.1 5.8 53.6 16.1 87.2 10.2 33.6 21.1 59.7 32.8 78.3 26.9 42.7 59.6 69.7 98.2 81" style="fill:#100f0d;fill-opacity:1;fill-rule:nonzero;stroke:none" transform="matrix(.00882 0 0 -.00882 -12.077 306.687)"/><path d="M11540 26315.1c5.3-506.4-1035.1-1130.9-1818.38-1556.7-40.88-22.2-73.15-39.7-96.93-53-711.68-398.6-1024.71-612.6-986.15-1511.1l62.73-1464.8c82.68-1921.8 178.66-4158.5 240.06-5590.4 39.18-910 65-1512.7 65.08-1515.2 22.3-630.1 1690.09-1602.1 3702.99-1610.2h24.5c886.9 0 1781 191.6 2520.4 540.6 321.6 151.8 596.6 327.1 795.2 507.1 190.3 172.4 302.9 341.4 326 489l81.9 1730.6 258.2 5451.7 60.4 1273.2c40.5 861.4-194.7 1105.2-1151.1 1617.6-5.3 3-459.8 257.3-908 575.7-612.8 435.3-922.8 780.3-921.6 1025.2l-57 4069.6-2100.4 22.2zM12733.9 12914h-24.9c-937.6 3.7-1879.4 211.9-2651.9 586.2-338.63 164.1-623.86 352.8-824.81 545.7-206.69 198.4-319.26 397.1-325.54 574.5-.22 5.5-25.64 599.3-65.05 1514.4-61.39 1432-157.38 3668.6-240.06 5590.4l-62.74 1464.9c-19.67 458.3 47.67 756.2 225.11 996.1 177.22 239.6 460.3 409.3 811.96 606.2 24.32 13.6 56.84 31.3 98.01 53.7 217.84 118.4 671.12 364.8 1061.62 644 463.7 331.5 707.4 616.7 704.7 824.6v1.9l100.3 4100.4 2296-24.3 58.4-4167.8c-2.1-427.3 1282.5-1237.6 1777.7-1513.9 482.3-258.4 798.7-458 986.4-712.8 175.9-238.7 238.6-527.5 216.5-997l-60.4-1273.2-258.2-5451.7-82.1-1735.8-.4-2.5c-25.7-171.1-149.5-361.5-358.1-550.5-205.8-186.5-489.2-367.4-819.6-523.4-752.4-355.1-1661.6-550.1-2562.9-550.1" style="fill:#231f20;fill-opacity:1;fill-rule:nonzero;stroke:none" transform="matrix(.00882 0 0 -.00882 -12.077 306.687)"/><path d="M13869.1 30817v-4358.4s-303.8-204.7-1109.7-198.1c-212.6 1.8-399.4 22.3-559.1 51.1-227.6 41.5-400.3 100.3-514 147.6-107 44.5-225 92.5-225 92.5l69.5 4370.8 155.5-7.1 514-23.1z" style="fill:#4266b9;fill-opacity:1;fill-rule:nonzero;stroke:none" transform="matrix(.00882 0 0 -.00882 -12.077 306.687)"/><path d="M12332.5 30864.8v-4580.7c-227.6 41.4-400.3 100.2-514 147.6v4456.2z" style="fill:#46acd7;fill-opacity:1;fill-rule:nonzero;stroke:none" transform="matrix(.00882 0 0 -.00882 -12.077 306.687)"/><path d="M11543.4 26578c104.6-55.1 541.6-262.1 1216.5-267.6 663.6-5.5 977.9 133.7 1059.4 177v4281.9l-2239 101.2zm1254.2-367.5c-12.7 0-25.5 0-38.6.1-804.2 6.6-1272 283.7-1291.5 295.5l-24.3 14.7 38.3 4454 2437.5-110.2v-4432.5l-22-14.8c-12.7-8.6-316.2-206.8-1099.4-206.8" style="fill:#231f20;fill-opacity:1;fill-rule:nonzero;stroke:none" transform="matrix(.00882 0 0 -.00882 -12.077 306.687)"/><path d="m14016.7 31475.9-1.1-370.1c0-208.6-139-391-339.7-448.5-500.6-143.2-1008.3-167-1522.8-79.1-126.8 21.3-253.9 49.7-381.7 84.8-36.4 9.9-70.5 24-102.5 41.6-146.7 80.4-242.5 235.3-242.5 408.2l5.9 356.3c0 55 10.4 109.5 30 160.8l-6.6 183.3-6.4 21.6c-7.7 27.3-11.9 55.5-12.3 83.9l-10.6 933.2h2589.2v-971.7c0-51.8-11.5-102.9-33.5-149.6l-1.6-117.2 1.8-3.3c22.7-41.2 34.4-87.5 34.4-134.2" style="fill:#4266b9;fill-opacity:1;fill-rule:nonzero;stroke:none" transform="matrix(.00882 0 0 -.00882 -12.077 306.687)"/><path d="M12153.1 30578.2c-126.8 21.3-253.9 49.7-381.7 84.8-36.4 9.9-70.5 24-102.5 41.6l-52.4 1951.2 108.4 196.1 7.3 13.2 70-13.2 310-58.4z" style="fill:#46acd7;fill-opacity:1;fill-rule:nonzero;stroke:none" transform="matrix(.00882 0 0 -.00882 -12.077 306.687)"/><path d="M12738.7 31486.8c-632.4 0-1161.6 133.6-1274.8 304.9-2.2-40.7-1.1-122.2 6.6-163.5 120.7-168.5 636-289 1261.6-289 636.2 0 1146.1 103.3 1250.7 270 2.6 30.6-2.4 83.4-3.6 134-167.6-149.1-663-256.4-1240.5-256.4" style="fill:#71331d;fill-opacity:1;fill-rule:nonzero;stroke:none" transform="matrix(.00882 0 0 -.00882 -12.077 306.687)"/><path d="M11517.8 31648.6c108.3-130.4 553.4-259.5 1214.3-259.5 704.1 0 1111.2 120.9 1201.5 236.8.1 7.2 0 15.5-.3 24.5-225.9-129.8-683.5-213.5-1194.6-213.5-543.1 0-1011.4 94.6-1223.6 238.8.7-9.9 1.6-19.1 2.7-27.1m1214.3-359.2c-646.1 0-1169.4 124.5-1302.1 309.8l-6.5 9-2 10.9c-8.5 45.7-9.8 131.1-7.4 175.3l8.2 150.7 83.2-125.9c91.8-138.9 578.2-282.6 1233.2-282.6 549.4 0 1045.9 100.3 1207.4 243.9l80.4 71.5 2.6-107.6c.4-17.6 1.3-35.6 2.2-53.1 1.7-34 3.1-63.4 1.1-86.4l-1-12-6.4-10.2c-135.7-216.3-756.9-293.3-1292.9-293.3" style="fill:#231f20;fill-opacity:1;fill-rule:nonzero;stroke:none" transform="matrix(.00882 0 0 -.00882 -12.077 306.687)"/><path d="M12854.3 31042.5c-16.8 0-33.5.1-50.2.3-573.4 7.3-1170.6 132.5-1389.3 291.3l58.6 80.7c200.7-145.8 785.8-265.4 1332-272.3 587.3-7.6 1090.6 109.2 1175.2 218.5l78.9-61.1c-126.8-163.7-702.2-257.4-1205.2-257.4" style="fill:#231f20;fill-opacity:1;fill-rule:nonzero;stroke:none" transform="matrix(.00882 0 0 -.00882 -12.077 306.687)"/><path d="m11476.9 32801.9 10-882.6c.2-23.9 3.7-47.7 10.4-70.7l7.9-27.5 7.2-199.6-3.6-9.5c-17.5-45.8-26.5-93.9-26.7-143l-5.8-356.9c0-186 126.8-351.2 308.3-401 642.7-176.3 1274.3-178.3 1877.5-5.8 178.8 51.1 303.7 215.9 303.7 400.6l1.1 370c0 38.3-9.8 76.4-28.3 110l-8.2 15 2 141.2 4.6 9.8c18.9 39.8 28.8 84.2 28.8 128.2v921.8zm1271.8-2324.3c-325.9 0-656.8 45.8-990.5 137.3-224.7 61.7-381.6 266.4-381.6 498l5.8 357.1c.2 57.1 10.2 113.7 29.7 167.9l-6.1 167.3-4.5 15.7c-9.2 31.6-14 64.4-14.4 97.3l-11.1 983.5h2689.5v-1021.6c0-54.9-11.6-110.2-33.7-160.7l-1.3-93.8c23.7-46.3 36.1-97.9 36.1-149.8l-1.1-370.1c0-228.8-154.6-433-376-496.3-307.2-87.8-621.7-131.8-940.8-131.8" style="fill:#231f20;fill-opacity:1;fill-rule:nonzero;stroke:none" transform="matrix(.00882 0 0 -.00882 -12.077 306.687)"/><path d="M14015.7 32860.6c0-204.3-579.6-369.9-1294.6-369.9s-1294.6 165.6-1294.6 369.9 579.6 369.9 1294.6 369.9 1294.6-165.6 1294.6-369.9" style="fill:#46acd7;fill-opacity:1;fill-rule:nonzero;stroke:none" transform="matrix(.00882 0 0 -.00882 -12.077 306.687)"/><path d="M12721.1 33180.6c-771.2 0-1244.8-186.3-1244.8-320 0-133.6 473.6-320 1244.8-320s1244.7 186.4 1244.7 320c0 133.7-473.5 320-1244.7 320m0-739.7c-651.8 0-1344.5 147.1-1344.5 419.7 0 272.7 692.7 419.8 1344.5 419.8 651.7 0 1344.4-147.1 1344.4-419.8 0-272.6-692.7-419.7-1344.4-419.7" style="fill:#231f20;fill-opacity:1;fill-rule:nonzero;stroke:none" transform="matrix(.00882 0 0 -.00882 -12.077 306.687)"/></svg>