<svg xmlns="http://www.w3.org/2000/svg" width="200mm" height="200mm" viewBox="0 0 200 200"><path d="M32130.8 11922.6c-221.1 0-420.1 29.8-564.4 59.5-108.5 22.3-186 44.7-218.4 54.4-5 39.6-7.5 77.8-5.1 114.3 3.8 61.7 12.2 124.4 26 193.1.7-.4 1.5-.8 2.3-1.1 151.9-71.7 378.9-178.9 792-178.9 13.8 0 27.9.1 42.1.4 347.7 6 558.7 76.8 742.9 141.2 3.8-35.9 6-70.5 6.5-105 .6-45.3-4.2-98.4-10.8-155.4-148.9-100-452.3-118.5-785.3-122.3-9.3-.1-18.6-.2-27.8-.2m-801.4-841.9s-706.4-569-724.6-1284.4c-18.3-725.4 165.8-5919.6 165.8-5919.6l673.4-184.3s-143.9 5808-47.1 6220.9c95.9 409.4 285 1189.8-67.5 1167.4" style="fill:#fff;fill-opacity:1;fill-rule:nonzero;stroke:none" transform="matrix(.01402 0 0 -.01402 -350.299 222.93)"/><path d="M32173 2358.1c-132.6 0-265.5 4.5-397.3 15.9-321.4 27.8-1380.6 162.7-1515 732.4-23 97.1-16.1 202.1-7.9 292.9 13.7 150.5 45.6 251.9 76.3 350 36.2 115.1 70.3 223.8 68.9 393.6-.4 62.6-17.8 451.8-41.8 990.5-62.4 1398.4-166.9 3738.7-157.2 4361.3.7 49.5 1.1 99.2 1.5 148.8 3.4 477.9 6.7 929.4 344.7 1282.1 73.1 76.1 219.6 158.5 361.3 238.1 168.4 94.7 342.6 192.5 422.6 293.3 100.3 126.4 69.7 291.5 40.2 451.1-8.2 44.1-16.2 87.1-21.3 128.4 32.4-9.7 109.9-32.1 218.4-54.4 144.3-29.7 343.3-59.5 564.4-59.5 9.2 0 18.5.1 27.8.2 333 3.8 636.4 22.3 785.3 122.3-2.9-25.1-6.2-51.1-9.6-77.4-25-197-53.4-420.1 36.1-567 70-114.9 235.8-226.7 396.2-334.8 110.5-74.4 214.8-144.7 275.7-208.3 382.4-399.2 401.8-838.1 387.5-1414.7-13.2-530.6-114.2-2415.8-187.9-3792.3-46-858.3-82.3-1536.2-83.8-1628.6-2.4-146.6 25.8-256.1 53-361.9 26.4-102.5 51.4-199.3 51.8-330.1 1.3-423.6-25.9-493.2-88.1-551.1-207.3-192-623.1-371-908-391-224.9-15.6-458.8-29.8-693.8-29.8m-1601 4759.5c47.9-1527.6 91.3-3025.7 80.7-3111.4-22.7-182.2-193-585.3-123.4-756.3 55.1-135.3 402.1-276 595.4-276 52.9 0 94.3 10.5 115.1 34.6 72.4 83.9 13.4 508.8-19.3 745.1l223.5-61.2s-40.5 1636-64.1 3233.1c313.1-43.3 614.5-64.2 913.3-64.2 375 0 745.9 33 1130.6 96.3 12.8 2.1 25.4 4.7 37.3 7.9l-164.4-2687.4c-4.6-74.5 43-142.2 106.3-151.1 3.8-.5 7.6-.9 11.3-.9.8-.1 1.7-.1 2.5-.1 57.4 0 104.7 51 108.6 120l322.7 5781.2c3.1 55.6-38.7 105.4-93.3 111.4q-5.4.6-10.8.6c-49.9 0-91-38.6-94.2-90.4l-31.2-510.7c-53.5 25.3-113.7 40.6-173.8 40.6-17 0-34.1-1.3-50.9-3.8-116.5-17.7-227.1-34.2-334.2-48.8-280.8-38.3-537.7-64-813.4-64-28.9 0-58.1.3-87.5.9-254.4 5-520.7 34-787.5 73.3 5.4 193.6 13.6 326.2 25.6 377 94.6 403.6 279.6 1167.8-52.9 1167.8-4.7 0-9.6-.1-14.6-.4 0 0-116.2-93.6-255.5-252.6-14.5 3.3-30 4.9-46.4 4.9-105.1 0-244.3-66.5-373.4-174.4-121.3-101.4-188.9-255.6-183.6-413.6 5.1-153 13.1-394.8 23.1-696.3-46.2-42.8-74.5-97.5-74.6-155.3 0-1.9 0-3.7.1-5.6l28.7-969.4 33.4-1127.8c1.5-49 20.3-95.3 52.4-134.7 5.9-7.1 12.1-14 18.8-20.4 6.2-6.3 12.6-12.1 19.5-17.8z" style="fill:#eaf8f6;fill-opacity:1;fill-rule:nonzero;stroke:none" transform="matrix(.01402 0 0 -.01402 -350.299 222.93)"/><path d="m31444 3692.4-223.5 61.2c-10.7 77.6-18.6 134.9-18.1 153.1.9 34.3-1.9 1498.1-4.6 3046.2 61.1-10 121.9-19.1 182.1-27.4 23.6-1597.1 64.1-3233.1 64.1-3233.1m-72.7 5843.9c-59.2 8.7-118.4 17.9-177.5 27.5-.7 603.7-.7 1007.7.5 1020.5 13.8 149.5-36.9 224.8-120.4 243.8 139.3 159 255.5 252.6 255.5 252.6 5 .3 9.9.4 14.6.4 332.5 0 147.5-764.2 52.9-1167.8-12-50.8-20.2-183.4-25.6-377" style="fill:#eaf8f6;fill-opacity:1;fill-rule:nonzero;stroke:none" transform="matrix(.01402 0 0 -.01402 -350.299 222.93)"/><path d="M31528.6 11714.5c99.6-17.5 179.7 241 179.7 241s-240.8 45-266.9 54.2c-26 9.1 9.7-281.7 87.2-295.2m-874.5-1055.9c-121.3-101.4-188.9-255.6-183.6-413.6 34.4-1028.8 202-6079.5 182.2-6238.8-22.7-182.2-193-585.3-123.4-756.3 70.2-172.4 613.8-353.4 710.5-241.4 96.1 111.4-39.5 824.9-37.4 898.2 2 73-12.9 6625.5-8.1 6677.6 31.6 342.7-275.6 295.5-540.2 74.3m2760.2-6532.5c-3.7 0-7.5.4-11.3.9-63.3 8.9-110.9 76.6-106.3 151.1l353.1 5770.7c3.4 55.6 50.4 95.8 105 89.8s96.4-55.8 93.3-111.4L33525.4 4246c-4-70-52.6-121.4-111.1-119.9" style="fill:#fff;fill-opacity:1;fill-rule:nonzero;stroke:none" transform="matrix(.01402 0 0 -.01402 -350.299 222.93)"/><path d="m33889.9 3330.1 18.5.1c-.4 136.9-27.2 240.7-53.4 342.1-26.1 101.6-51.5 200.8-51.6 332.5 0 5.5.1 11 .2 16.5.4 29.5 4.7 123.7 11.9 266.6 25 500.5 85.3 1601.6 141.6 2671.2 56.4 1069.6 108.8 2107.5 118.2 2482.7 1.9 77.2 3.4 153.6 3.4 229.1 0 220.3-13.3 433.2-70.4 637.2-57.1 203.9-158.4 398.7-333.2 581-39.4 41.1-93.6 83.1-154.8 126.6-91.8 65.2-199.2 133.4-294 202.7-47.4 34.6-91.7 69.4-129 104-37.4 34.5-67.9 68.9-88.1 102s-33.8 71.7-42.4 114.1c-8.5 42.5-12 88.8-12 137 0 87.2 11.2 180.8 22.6 270.2 11.3 89.4 22.7 174.5 22.8 246.1 0 3.1-.1 6.2-.1 9.3-2.7 182.2-48.9 345.4-93.6 503.7-44.9 158.4-88.3 311.8-88.3 475.2 0 44.9 3.3 90.5 10.7 137.3 4.8 30.7 6.8 60.6 6.8 90.2 0 56.7-7.3 111.9-15.6 168.9-8.4 57-17.9 115.9-22.7 180.3-.7 9-2.5 17.3-5.7 24.8-4.8 11.2-13.4 20.3-23.6 25.5s-21.2 6.9-32.3 6.9c-17.4 0-35.7-4.1-55.1-9.8-29-8.6-60.3-21.3-90.3-32.2-29.9-11.1-58.7-20.3-80.3-22.6-26.2-2.8-52.7-4-79.5-4-87 0-176.7 12.5-265.9 19.5-25.1 1.9-60.2 10.4-99.8 22.3-59.5 18-129.6 43.3-196.9 64.4-33.7 10.5-66.7 19.9-97.6 26.8s-59.7 11.2-85.4 11.2c-20.7 0-39.6-2.7-56.1-10.4-8.3-3.9-15.8-9.1-22.2-15.7-6.3-6.6-11.3-14.7-14.7-23.7-55-147.5-73.8-335.8-73.9-492.6 0-23 .4-45.3 1.2-66.7.5-13 .7-25.9.7-38.8.1-187.7-48.7-360.9-101.3-536.6-52.4-175.7-108.7-354-121.3-551.4-.6-10.3-.9-20.6-.9-31.1 0-72.4 14.3-148.4 28.3-223.9 13.9-75.5 27.6-150.4 27.6-219.4 0-36.4-3.8-71.1-13-103.5s-23.8-62.5-45.9-90.4c-33.8-42.8-89.4-87.3-156-131.7-100-66.7-224.9-133.5-340.2-199.4-57.7-33-113-65.8-161.8-98.6-48.9-32.8-91.2-65.4-123.1-98.6-96.9-101.1-167.5-211-218.7-326.7-76.9-173.5-110.3-360.1-125.4-551.8s-11.8-388.5-14.9-583.1c-.4-26.9-.6-57.1-.6-90.2 0-520.3 49.6-1782.5 99.3-2941.8 24.9-579.6 49.8-1133.4 68.6-1555.6 9.5-211.1 17.3-389.2 22.9-521.3 5.6-131.9 8.8-218.1 9-243.9 0-3 .1-6 .1-8.9-.1-148.3-28.1-246.3-60.6-350.4-32.5-104-69.5-213.9-84.6-379.9-4-43.6-8-93.2-8-145.2 0-52.8 4.1-108.1 16.9-162.3 34-143.9 122.7-261.6 241.7-357.1 178.7-143.2 425.9-238.2 669.1-301.5s482.4-94.7 644.7-108.7c133.3-11.5 267.1-16.1 400.8-16.1 233.6 0 466.9 14.1 697.2 30.1 144.7 10.1 322.2 59.2 492 131.3 169.7 72.3 331.4 167.5 443.8 271.7 17.9 16.6 34.2 35 47.6 59.3 20.2 36.6 33.7 85.2 42.5 162.1 8.7 77 12.6 182.9 12.6 335.1v28.1zh-18.5c0-9.5.1-18.9.1-28 0-202-7.2-321.2-22.4-395.8-7.6-37.3-17-63.3-28.1-83.5-11.2-20.2-24.2-34.9-40.5-50.1-107.6-99.9-266.5-193.9-433.1-264.7-166.7-71-341.4-118.9-480.1-128.5-230-16-462.5-30-694.6-30-132.9 0-265.6 4.6-397.7 16-214.1 18.5-565 67.8-877 181-156 56.6-302.2 129.2-416.7 221.2-114.6 92-197.2 202.7-228.9 336.7-11.9 50.4-15.9 102.9-15.9 153.8 0 50.1 3.9 98.6 7.8 141.8 14.8 162.1 50.4 267.6 83.1 372.2 32.7 104.5 62.3 208.4 62.3 361.5 0 3-.1 6.1-.1 9.2-.2 27.4-3.5 113-9 245.2-19.6 462.3-67.2 1489.5-110 2514.7-42.9 1025.2-80.8 2048.7-80.8 2502.4q0 49.5.6 89.7c4 260.4-2.8 522.3 36.6 767.4 19.7 122.6 50.8 241 100.5 353.1s117.7 218 211.7 316c38.4 40.2 97.6 82.6 166.7 125.6 103.6 64.5 229.5 130.7 343.4 198 57 33.7 110.9 67.6 157.8 102s86.7 69.2 115.4 105.3c25.3 31.9 42.1 66.8 52.5 103.3s14.4 74.7 14.4 113.6c0 73.8-14.3 150.6-28.3 226.1s-27.7 149.7-27.6 217.2q0 14.55.9 28.8c12.1 191.7 67.1 367 119.8 543.1 52.6 176 102.8 352.9 102.8 547.2 0 13.3-.2 26.7-.7 40.1-.8 21-1.2 42.9-1.2 65.4 0 153.7 19 339.2 71.6 479.7 1.7 4.6 4 8.1 6.8 11.1 4.3 4.4 10.2 8 18.9 10.6 8.5 2.6 19.6 4 32.6 4 28.7.1 66.3-6.8 107.6-17.7 62.1-16.2 132.6-41.1 198.1-62.8 32.8-10.9 64.4-21 93.3-28.8 28.9-7.9 55.1-13.5 77.8-15.3 87.7-6.8 178.3-19.5 268.8-19.6 27.9 0 55.8 1.3 83.5 4.3 18.6 2 38.2 7.3 58.4 13.9 30.3 9.8 62 22.7 90.9 33 14.5 5.1 28.3 9.5 40.7 12.6 12.3 3.2 23.3 4.9 31.7 4.8 4.8 0 8.7-.5 11.6-1.4 4.4-1.3 6.4-2.8 8.4-5.4 1.9-2.6 4-7.4 4.7-16.2 5-66.3 14.7-126.2 23-182.9 8.3-56.6 15.2-110 15.2-163.5 0-27.9-1.8-55.8-6.4-84.4-7.7-48.8-11.1-96.4-11.1-143.1.1-170 44.9-327 89.7-485.3s89.6-318 92.2-494.2v.1c0-2.9.1-5.9.1-8.8 0-67.7-11.2-152-22.6-241.5-11.3-89.5-22.8-184.4-22.8-274.8 0-50 3.6-98.6 12.7-144.3 9.3-45.6 24.2-88.3 47.2-126.1 30.4-49.8 78.4-98.1 135.4-145.8 85.5-71.4 191.7-141.3 290.5-208.1 49.4-33.4 97-66 139-97.4 42-31.5 78.5-61.8 105.8-90.3 170.5-178.1 268.5-366.5 324.3-565.4 55.7-198.9 69.1-408.4 69-627.2 0-75-1.5-151.1-3.4-228.2-10.7-427.4-77.6-1722.3-142.4-2940.1-32.4-609-64.2-1198.8-88.2-1651.4-12-226.3-22-418.4-29.2-561.4-7.2-143.2-11.4-236.9-11.9-267.9-.1-5.7-.2-11.5-.2-17.1 0-136.6 26.7-240.3 52.8-341.7 26.2-101.6 51.8-201 52.2-333z" style="fill:#231f20;fill-opacity:1;fill-rule:nonzero;stroke:none" transform="matrix(.01402 0 0 -.01402 -350.299 222.93)"/><path d="m33807.4 9302-73.7-1286.5-.1-3-1.4-22.8-45.2-788.4c-4.2-109.4-94.4-201.8-225.9-235.8-11.9-3.2-24.5-5.8-37.3-7.9-750.2-123.4-1447.9-131.6-2226.2-4.7-11 1.8-22.1 3.7-33.2 5.6-142.7 23.8-288 52.2-436.8 85.2-61.3 13.4-114.6 39.6-155.7 74-6.9 5.7-13.3 11.5-19.5 17.8-6.7 6.4-12.9 13.3-18.8 20.4-32.1 39.4-50.9 85.7-52.4 134.7l-33.4 1127.8-28.7 969.4c-1.8 59.8 26.8 116.7 74.5 161 71 66.1 184.6 104.3 303.3 83.3 130.7-23.4 263.4-46.9 396.7-68.3 325.6-52.7 654.3-94.7 965.2-100.8 309.5-6.2 590.7 20.8 900.9 63.1 107.1 14.6 217.7 31.1 334.2 48.8 76.4 11.7 156.1-4.4 224.7-36.8 109.7-51.7 192.2-145.3 188.8-236.1" style="fill:#cb4828;fill-opacity:1;fill-rule:nonzero;stroke:none" transform="matrix(.01402 0 0 -.01402 -350.299 222.93)"/><path d="M33059.7 9526.1c-132.8-184.5-327.9-375.7-600.9-468.1-515.6-174.5-1420.3-122.1-2011-639.6l-28.7 969.4c-1.8 59.8 26.8 116.7 74.5 161 71 66.1 184.6 104.3 303.3 83.3 130.7-23.4 263.4-46.9 396.7-68.3 325.6-52.7 654.3-94.7 965.2-100.8 309.5-6.2 590.7 20.8 900.9 63.1" style="fill:#f1df57;fill-opacity:1;fill-rule:nonzero;stroke:none" transform="matrix(.01402 0 0 -.01402 -350.299 222.93)"/><path d="m33733.6 8012.5-1.4-22.8-45.2-788.4c-4.2-109.4-94.4-201.8-225.9-235.8-11.9-3.2-24.5-5.8-37.3-7.9-750.2-123.4-1447.9-131.6-2226.2-4.7-11 1.8-22.1 3.7-33.2 5.6 131.4 169.3 316 336.3 565.6 420.8 513.4 173.8 1412.7 122.6 2003.6 633.2" style="fill:#fff;fill-opacity:1;fill-rule:nonzero;stroke:none" transform="matrix(.01402 0 0 -.01402 -350.299 222.93)"/><path d="M33470.2 8222.4c0-282.8-614-512-1371.4-512s-1371.4 229.2-1371.4 512 614 512 1371.4 512 1371.4-229.2 1371.4-512" style="fill:#211d1d;fill-opacity:1;fill-rule:nonzero;stroke:none" transform="matrix(.01402 0 0 -.01402 -350.299 222.93)"/><path d="M32098.8 8697.9c-723.6 0-1334.9-217.7-1334.9-475.5s611.3-475.5 1334.9-475.5 1334.9 217.7 1334.9 475.5-611.3 475.5-1334.9 475.5m0-1024c-789.5 0-1407.9 240.9-1407.9 548.5s618.4 548.5 1407.9 548.5c789.4 0 1407.9-240.9 1407.9-548.5s-618.5-548.5-1407.9-548.5" style="fill:#e0c13b;fill-opacity:1;fill-rule:nonzero;stroke:none" transform="matrix(.01402 0 0 -.01402 -350.299 222.93)"/><path d="M31099 8450.3c5.3.7 11.5.9 18.5.5 16.4-.8 30.9-4 43.4-9.5 8-3.6 17.1-10 27.1-19.2q15.15-13.95 20.4-24.6c3.1-6.1 5-12.6 5.6-19.7 1-11.9-1.4-19.6-7.2-23.2-2.1-1.3-6.2-1.8-12.4-1.5-5 .3-9.9 2.7-14.4 7.3-4.6 4.6-7.1 9.5-7.6 14.8-.4 4.5-3.9 10.1-10.5 16.7-6.6 6.7-13.3 10.9-19.4 13.1-4.1 1.5-9 2.6-14.4 2.8-18.2 1-37.2-5.8-56.7-20.5-19.4-14.6-33.8-33-42.9-55.1-13.5-32.4-18.8-67.3-16.2-104.8.2-1.4.4-3.7.5-6.8.2-3.2.3-5.4.5-6.9 7.4-69.1 35.7-116.6 84.1-142 8.9-4.7 16.5-7.2 22.8-7.6 3.9-.2 7.1-.2 9.5 0 10.1.5 18 2.2 23.7 5 5.6 2.8 11.6 8.1 17.9 15.8s10.7 14.2 13 19.3c2.4 5.1 4.2 13.1 5.8 23.8 2.9 19.6 10.6 29.3 22.3 28.7 5.3-.2 10.9-3.1 16.7-8.6 5.4-5.2 8.2-9.7 8.6-13.5q.15-1.65-.3-9c-.9-22.3-8.1-43.4-21.4-63.4-13.3-19.9-28.8-32.9-46.7-39-9.1-3.3-22.9-4.9-40.9-4.1-16.7.8-30.8 4.2-41.8 9.7-33.5 17.3-59.8 40-78.8 68.1-19 28-32.2 63.2-39.5 105.5-.7 3.5-1.5 9-2.4 16.4-4.8 42.8-1.1 82.7 11.5 119.6 12.7 36.9 30.9 64.3 54.8 82.1 9.1 6.8 20.1 13.2 33.2 19.1 13 5.9 24.2 9.4 33.6 10.7m347.3-124.1c-4.8 14.8-8.2 23.5-9.8 26.1h-.6c-1.4 0-3.5-2.4-6-7.4-2.6-5-3.8-8.7-3.6-11.2 0-.3-4.8-13.1-14.3-38.3-8.5-22.7-16.8-46.9-24.8-72.5-8.1-25.5-11.9-39.7-11.7-42.5.2-3.2 3.8-4.2 10.9-3.1 3.5.6 22 1.2 55.3 2.2 31.2.9 46.9 2 46.9 3-.3 3.5-3.4 13.7-9.4 30.3-4.8 13.4-10.7 33.6-18 60.4-7.2 26.8-12.2 44.6-14.9 53m-32.6 98.8c4.9 3.6 11.1 5.3 18.8 5 7.7-.2 14.7-3.6 20.9-10.1 15.2-14.9 31.8-56.7 49.5-125.5 4.2-15.9 18.7-62.2 43.3-138.4 13.1-40.9 21.9-67.8 26.1-80.5 10.8-32.2 16.3-50.3 16.5-54.5.3-6-1.6-11-5.8-15.1s-9.2-6-15.2-5.9c-2.4.1-5.1.7-8 1.8-5.3 2.3-10.1 7.8-14.3 16.5-4.1 8.7-11.3 28.2-21.5 58.7-7.8 22.9-11.8 34.3-19.8 57.3q-2.25 2.1-19.8 2.7c-19.9.7-44.9.3-74.9-1.2s-46.2-3.3-48.4-5.7c-5-5-13-31.3-23.7-78.7-4.3-17.3-8.2-28.8-11.8-34.6-3.5-5.8-8.6-8.6-15.3-8.3-11.6.5-17.9 8-19.1 22.4-.8 9.5 6.7 45.9 23.2 109.3 16.4 63.4 32.3 115.1 46.4 154.6 11.4 32.1 19.7 56.9 25.1 73.5 10.8 32.1 20.1 51 27.8 56.7m360.7 1.3c5.5.9 11.7 1.4 18.6 1.3 16.5-.3 30.9-3 43.1-8 7.7-3.3 16.4-9.4 25.9-18.2 9.5-8.9 15.8-16.9 18.8-23.9 2.7-5.9 4.1-12.5 4.3-19.4.2-12-2.7-19.8-8.8-23.6-2.2-1.4-6.3-2-12.5-1.9-5.1 0-9.8 2.3-14 6.7-4.3 4.4-6.5 9.3-6.6 14.5-.2 4.6-3.3 10.1-9.4 16.4-6.2 6.4-12.7 10.4-18.7 12.4-4 1.3-8.8 2.2-14.3 2.3-18.2.3-37.7-7.3-58.3-22.6-20.5-15.4-36.1-34.3-46.8-56.8-15.7-32.9-23.4-68.1-23.3-105.6.1-1.4.1-3.7 0-6.8 0-3.2 0-5.4.1-6.8 2.8-69 28-115.5 75-139.2 8.6-4.3 16-6.6 22.4-6.7 3.8-.1 7 0 9.5.4 10.2.8 18.2 2.8 24.1 5.9 5.9 3 12.3 8.5 19.1 16.5 6.9 7.9 11.6 14.5 14.3 19.7s5.1 13.3 7.4 24.1c4.3 19.7 12.6 29.7 24.3 29.6q8.1-.15 16.2-8.1c5.1-4.9 7.7-9.3 7.7-13.2.1-1.1-.2-4-.8-8.9-2.4-22.4-11-43.9-25.7-64.3-14.7-20.5-31.2-34.1-49.6-40.8-9.4-3.7-23.4-5.8-41.4-5.6-16.7.1-30.6 3-41.3 8.1-32.5 16.1-57.4 37.8-74.6 65.2-17.3 27.3-28.2 62.1-32.6 104.2-.6 3.5-1 9-1.3 16.3-2 42.8 4.4 82.8 19.6 120.3 15.2 37.4 35.3 65.5 60.6 84.2 9.5 7.1 21.1 13.9 34.6 20.3 13.4 6.4 25 10.4 34.4 12m171-9.5c4.2 5.3 9.8 7.8 16.4 7.8 9.5-.1 16.1-4.8 19.9-14.3 1.5-3.9 2.9-22.4 4.1-55.7s2.4-65.4 3.6-96.4 2.4-46.5 3.5-46.5c1 0 9.8 1.8 26.3 5.7 14.6 3.4 35.9 7.1 63.7 11.1 27.9 4 46.5 6.1 55.9 6.2h3.2l1-.5h1.1q2.7 0 3.6 5.7c.5 3.9 1.1 14.7 2.1 32.1 1.5 28.6 2.5 52.2 2.6 70.4.2 29.1 1.9 48.1 5.1 57.3 3.1 9.1 9.7 13.7 19.5 13.7 10.7.1 17.6-4.8 20.7-14.6.7-2.1 1-10.3.9-24.7-.1-8.7-.7-26.1-1.7-52-2.1-51.8-3.1-116.3-4.3-192.3-1.3-81.2-3.2-124.6-4.6-129.2-3.6-9.5-10.1-14.4-19.6-14.8h-3.2q-15.15-.15-18 16.2c-1.8 10.8-2.6 43-2.3 96.6.2 37.6.4 56.4.6 94.1-4.1-.7-6.1-1-10.2-1.6-1.4-.4-4.9-.9-10.2-1.4q-8.1-.75-20.1-2.1c-8.1-.9-15.4-1.9-21.8-2.9-30.4-4.2-53.1-8.2-68-12-10.5-2.5-15.7-3.7-26.2-6.2-.7-15.5-1.1-23.3-1.8-38.8-1.4-34.7-2.5-57.9-3.5-69.4-1.2-13.9-2.4-22.8-3.2-26.5-.8-3.6-3-6.9-6.5-9.6-4.8-3.9-9.8-5.7-14.7-5.7-11.2.1-18.3 5.9-21.3 17.5-.4.7-.6 4-.7 10-.2 10.8.2 23.1 1 36.7 4.2 73.5 5.9 151.6 4.7 234.3-.1 4.5-.3 10.7-.5 18.3-.3 7.7-.4 13.2-.5 16.3-.4 12.1-1 25.6-1.2 40-.2 14 1.3 23.2 4.6 27.2m476.9-98.7c-3.3 14.6-5.9 23.2-7.3 25.6h-.5c-1.5 0-3.7-2.6-6.8-7.7-3.1-5.2-4.6-9-4.7-11.4 0-.4-6.1-13.4-18-39.2-10.9-23.3-21.6-48-32.1-74-10.6-26.1-15.8-40.5-15.9-43.3-.1-3.2 3.5-4 10.6-2.5 3.6.8 22.3 2.4 55.8 5.1 31.5 2.6 47.3 4.6 47.3 5.6.2 3.5-2 13.5-6.4 29.9-3.5 13.1-7.5 33.1-12.1 59.6-4.7 26.5-7.9 44-9.9 52.3m-23 97.3c5.2 3.9 11.7 5.9 19.4 6.1 7.7.1 14.3-2.9 20-9.1 13.7-14.1 26.3-55.1 37.3-123.1 2.7-15.7 12.8-61.4 29.9-136.4 9.2-40.4 15.4-66.8 18.3-79.4 7.8-31.6 11.5-49.5 11.3-53.7-.3-6-2.7-11.1-7.3-15.5-4.6-4.3-9.9-6.5-15.8-6.7-2.5 0-5.1.5-7.8 1.4-5.2 2-9.4 7.3-12.8 15.7-3.3 8.5-8.5 27.8-15.8 57.7-5.7 22.6-8.5 33.8-14.2 56.4-1.4 1.4-8 1.9-19.7 1.7-19.9-.4-45-2.2-75.3-5.3s-46.7-5.9-49.2-8.3c-5.5-5.4-16.1-32.1-31.5-80.3-6-17.5-11.1-29.3-15.2-35.3-4.2-6-9.6-9-16.2-9.1-11.6-.1-17.3 7-17 21.4.1 9.4 11.2 46.4 34 110.9 22.7 64.5 43.7 117.1 61.7 157.5 14.7 32.8 25.4 58.1 32.4 75.1 14.1 32.7 25.3 52.2 33.5 58.3m361.8 20.8c5.5 1.2 11.8 2 18.8 2.3q24.6.9 42.3-5.7c7.4-2.8 15.5-8.5 24.1-16.8 8.7-8.4 14.1-16.1 16.5-22.9 2.1-5.9 2.9-12.3 2.4-19.3-1-12-4.7-20-11.1-24.1-2.3-1.5-6.5-2.4-12.7-2.6-5.1-.3-9.5 1.7-13.4 5.9-3.8 4.3-5.6 9-5.2 14.3q.45 6.75-7.8 15.9c-5.5 6.1-11.6 9.7-17.4 11.4-3.9 1.1-8.6 1.7-14.1 1.5-18.2-.7-38.5-9.3-60.6-25.8s-39.6-36.4-52.5-59.5c-18.9-33.9-30.1-69.5-33.6-107.1-.1-1.4-.3-3.7-.6-6.8-.4-3.2-.6-5.5-.7-6.9-3.9-69 16.8-114.3 61.5-135.4 8.2-3.9 15.5-5.8 21.8-5.5 3.9.1 7.1.4 9.6.8 10.3 1.5 18.5 3.9 24.7 7.2 6.2 3.4 13.1 9.3 20.7 17.6 7.7 8.4 13.1 15.2 16.3 20.6s6.4 13.7 9.7 24.5c6.2 20.1 15.6 30.6 27.3 31 5.3.3 10.5-2.1 15.4-7.2 4.6-4.7 6.7-8.9 6.4-12.8-.1-1-.6-4-1.7-9-4.6-22.6-15.3-44.5-32-65.8-16.7-21.4-34.6-35.9-53.6-43.6-9.8-4.3-23.8-6.9-42-7.9-2.1-.1-3.2-.1-5.3-.2.2-2.4.4-5.2.5-8.4.2-3.1.6-4.9 1.3-5.4.6-.5 2.3-1.1 5.1-1.7 8.6-1.1 14.9-4.2 18.8-8.7 4-4.7 6-11.2 5.4-19.2-.6-9.1-4.1-16.7-10.4-22.5-5.5-5.1-13.7-7.8-24.5-8.2-4.8-.2-9.1.5-12.8 2.2-6.8 2.9-10 6.4-9.8 10.6.1 1.4.8 2.9 1.3 4.3 1.1 2.4 2.2 4.8 3.8 5.9s4.2 1.7 7.7 1.8c2.8.1 4.9-.1 6.2-.3 3.8-.5 6.4-.3 6.8-.3 2.8.1 4.9.9 6.4 2.4 1.5 1.4 2.3 2.7 2.4 3.7 0 1.1-.6 2.6-1.9 3.6-1.3 1.1-4.8 1.4-9.3 1.3-3.6-.2-5.4-.2-8.9-.4-3.5-.1-6.2.9-8.2 2.9-1.3 1.4-2.1 3.2-2.3 5.4-.2 2.3 0 7.8.5 16.6.6 8.4.9 13.8 1.1 16.3-5.6.8-10.4 2.2-14.5 4.2-30.9 14.3-53.8 34.8-68.4 61.3s-22.1 60.8-22.5 102.8c-.1 3.4 0 8.9.3 16.2 2.2 42.8 12.6 83.3 31.5 121.7 18.8 38.3 41.8 67.5 68.9 87.7q15.45 11.55 36.6 22.2c14.2 7.2 26.1 11.8 35.7 13.9m329.4-93.2c-2.4 14.4-4.4 23-5.6 25.3h-.5c-1.5-.1-3.9-2.7-7.3-8-3.4-5.2-5.2-9.1-5.5-11.6 0-.3-6.9-13.6-20.6-39.8-12.3-23.7-24.7-48.8-36.9-75.3-12.3-26.5-18.5-41.2-18.8-44-.3-3.1 3.2-3.8 10.5-2 3.6.8 22.3 3.1 56 7.2 31.5 3.7 47.4 6.3 47.5 7.3.4 3.6-1.1 13.5-4.4 29.6-2.6 13.1-5.2 32.9-8.1 59.3-2.8 26.3-4.9 43.7-6.3 52m-16.5 96.5c5.5 4.2 12.1 6.4 19.8 6.9 7.7.4 14.1-2.4 19.3-8.4 12.8-13.6 22.6-54.2 29-121.9 1.6-15.6 8.6-60.9 20.7-135.4 6.5-40 10.8-66.3 13-78.7 5.6-31.4 8.1-49.3 7.6-53.5-.7-5.9-3.5-11.2-8.3-15.7-4.9-4.5-10.3-6.9-16.2-7.3-2.5-.1-5 .3-7.7 1.1q-7.5 2.7-11.7 15.3c-2.7 8.4-6.7 27.4-11.9 57.1-4.2 22.4-6.2 33.6-10.4 56q-1.95 1.95-19.5.9c-19.9-1.1-45.1-3.8-75.5-8.1-30.5-4.2-47-7.6-49.7-10.1-5.8-5.6-18.2-32.7-36.8-81.5-7.2-17.8-13-29.8-17.6-36-4.5-6.1-10.1-9.4-16.8-9.7-11.5-.5-16.7 6.4-15.5 20.8.8 9.5 14.3 46.8 41.4 112.3 27 65.4 51.5 118.8 72.2 159.9 16.8 33.5 29.2 59.2 37.4 76.4 16.1 33.3 28.6 53.2 37.2 59.6m-1876.4-1486.6c-153.4 25-309.7 55.2-470 90.8-8.6 1.9-17.1 4-25.4 6.4 8.3-2.4 16.8-4.5 25.4-6.4 148.8-33 294.1-61.4 436.8-85.2 11.1-1.9 22.2-3.8 33.2-5.6m-4 2610.9c-69.1 11.1-138 22.8-206.5 34.7 68.6-11.9 137.4-23.5 206.5-34.7" style="fill:#fff;fill-opacity:1;fill-rule:nonzero;stroke:none" transform="matrix(.01402 0 0 -.01402 -350.299 222.93)"/><path d="M31164.4 6958.5c-142.7 23.8-288 52.2-436.8 85.2-8.6 1.9-17.1 4-25.4 6.4-50.7 14.6-95 38-130.3 67.5-14.6 468.7-29.6 936.6-43.5 1366.5 200.3 152 430.4 247.7 666.2 314.4.1-50.2.2-101.1.2-152.5-309.7-99.8-503.9-251.2-503.9-423.6 0-172.6 194.8-324.2 505.3-424.1.4-262.6.9-531 1.3-798.6-11.4-13.7-22.4-27.4-33.1-41.2" style="fill:#df917c;fill-opacity:1;fill-rule:nonzero;stroke:none" transform="matrix(.01402 0 0 -.01402 -350.299 222.93)"/><path d="M30528.4 8484.1c-12.9 397-24.8 761.6-34.8 1064.6 57.7 53.8 143.6 89.1 237.5 89.1 21.6 0 43.5-1.8 65.7-5.8 63-11.2 126.5-22.5 190.3-33.5 68.5-11.9 137.4-23.6 206.5-34.7.3-228.1.6-486.8 1-765.3-235.8-66.7-465.9-162.4-666.2-314.4" style="fill:#f7ed9b;fill-opacity:1;fill-rule:nonzero;stroke:none" transform="matrix(.01402 0 0 -.01402 -350.299 222.93)"/><path d="M31197.6 6952.9c-11 1.8-22.1 3.7-33.2 5.6 10.7 13.8 21.7 27.5 33.1 41.2.1-15.6.1-31.2.1-46.8" style="fill:#fff;fill-opacity:1;fill-rule:nonzero;stroke:none" transform="matrix(.01402 0 0 -.01402 -350.299 222.93)"/><path d="M31196.1 7875.6c-264.2 87.5-432.2 211.7-432.2 346.8 0 134.9 167.5 258.9 431.1 346.4 0-50.7.1-101.9.2-153.7-2.2 2.3-4.5 4.6-7.2 7-10 9.2-19.1 15.6-27.1 19.2-12.5 5.5-27 8.7-43.4 9.5-2.3.2-4.5.2-6.6.2-4.4 0-8.3-.2-11.9-.7-9.4-1.3-20.6-4.8-33.6-10.7-13.1-5.9-24.1-12.3-33.2-19.1-23.9-17.8-42.1-45.2-54.8-82.1-12.6-36.9-16.3-76.8-11.5-119.6.9-7.4 1.7-12.9 2.4-16.4 7.3-42.3 20.5-77.5 39.5-105.5 19-28.1 45.3-50.8 78.8-68.1 11-5.5 25.1-8.9 41.8-9.7 3.1-.1 6.2-.2 9.1-.2 13.6 0 24.3 1.6 31.8 4.3 9.5 3.2 18.3 8.4 26.5 15.5zm-70.7 188.4c-1.5 0-3.3 0-5.2.1-6.3.4-13.9 2.9-22.8 7.6-48.4 25.4-76.7 72.9-84.1 142-.2 1.5-.3 3.7-.5 6.9-.1 3.1-.3 5.4-.5 6.8-2.6 37.5 2.7 72.4 16.2 104.8 9.1 22.1 23.5 40.5 42.9 55.1 18.3 13.8 36.1 20.6 53.3 20.6 1.1 0 2.3 0 3.4-.1 5.4-.2 10.3-1.3 14.4-2.8 6.1-2.2 12.8-6.4 19.4-13.1 6.6-6.6 10.1-12.2 10.5-16.7.5-5.3 3-10.2 7.6-14.8 4.5-4.6 9.4-7 14.4-7.3h.9q.15-102.3.3-206.7c-2.5-4.6-4.4-10.7-5.5-18.4-1.6-10.7-3.4-18.7-5.8-23.8-2.3-5.1-6.7-11.6-13-19.3s-12.3-13-17.9-15.8c-5.7-2.8-13.6-4.5-23.7-5-1.2-.1-2.7-.1-4.3-.1" style="fill:#79787b;fill-opacity:1;fill-rule:nonzero;stroke:none" transform="matrix(.01402 0 0 -.01402 -350.299 222.93)"/><path d="M31196.2 7798.3c-310.5 99.9-505.3 251.5-505.3 424.1 0 172.4 194.2 323.8 503.9 423.6.1-25.6.1-51.3.2-77.2-263.6-87.5-431.1-211.5-431.1-346.4 0-135.1 168-259.3 432.2-346.8 0-25.7.1-51.4.1-77.3" style="fill:#eedd89;fill-opacity:1;fill-rule:nonzero;stroke:none" transform="matrix(.01402 0 0 -.01402 -350.299 222.93)"/><path d="M31137.5 8018.9c-2.9 0-6 .1-9.1.2-16.7.8-30.8 4.2-41.8 9.7-33.5 17.3-59.8 40-78.8 68.1-19 28-32.2 63.2-39.5 105.5-.7 3.5-1.5 9-2.4 16.4-4.8 42.8-1.1 82.7 11.5 119.6 12.7 36.9 30.9 64.3 54.8 82.1 9.1 6.8 20.1 13.2 33.2 19.1 13 5.9 24.2 9.4 33.6 10.7 3.6.5 7.5.7 11.9.7 2.1 0 4.3 0 6.6-.2 16.4-.8 30.9-4 43.4-9.5 8-3.6 17.1-10 27.1-19.2 2.7-2.4 5-4.7 7.2-7 0-20.6.1-41.3.1-62h-.9c-5 .3-9.9 2.7-14.4 7.3-4.6 4.6-7.1 9.5-7.6 14.8-.4 4.5-3.9 10.1-10.5 16.7-6.6 6.7-13.3 10.9-19.4 13.1-4.1 1.5-9 2.6-14.4 2.8-1.1.1-2.3.1-3.4.1-17.2 0-35-6.8-53.3-20.6-19.4-14.6-33.8-33-42.9-55.1-13.5-32.4-18.8-67.3-16.2-104.8.2-1.4.4-3.7.5-6.8.2-3.2.3-5.4.5-6.9 7.4-69.1 35.7-116.6 84.1-142 8.9-4.7 16.5-7.2 22.8-7.6 1.9-.1 3.7-.1 5.2-.1 1.6 0 3.1 0 4.3.1 10.1.5 18 2.2 23.7 5 5.6 2.8 11.6 8.1 17.9 15.8s10.7 14.2 13 19.3c2.4 5.1 4.2 13.1 5.8 23.8 1.1 7.7 3 13.8 5.5 18.4.1-35.7.1-71.6.2-107.7-8.2-7.1-17-12.3-26.5-15.5-7.5-2.7-18.2-4.3-31.8-4.3m2323.7-1053.5c69.5 18.1 127.4 52.4 167.2 96.8-39.8-44.5-97.8-78.8-167.2-96.8m344.4 2305.7 1.8 30.9v1.6-1.6zm-36.2 145.1c-33.9 48.8-87.9 92.2-150.8 121.9 63-29.6 116.9-73.1 150.8-121.9" style="fill:#fff;fill-opacity:1;fill-rule:nonzero;stroke:none" transform="matrix(.01402 0 0 -.01402 -350.299 222.93)"/><path d="m33515.7 7855.7 102.9 1682.4c62.9-29.7 116.9-73.1 150.8-121.9 24.9-35.8 39-74.4 38-112.6v-1.6l-1.8-30.9-72.1-1258.7c-68.8-59.4-141.8-111.2-217.8-156.7" style="fill:#df917c;fill-opacity:1;fill-rule:nonzero;stroke:none" transform="matrix(.01402 0 0 -.01402 -350.299 222.93)"/><path d="m33461.2 6965.4 54.5 890.3c76 45.5 149 97.3 217.8 156.7l-46.5-811.1c-2-51.6-23.1-99.4-58.6-139.1-39.8-44.4-97.7-78.7-167.2-96.7" style="fill:#fff;fill-opacity:1;fill-rule:nonzero;stroke:none" transform="matrix(.01402 0 0 -.01402 -350.299 222.93)"/><path d="M30730.4 9610.9c-78.7 0-154.6-26.6-211.2-75.4-48.8-42.1-74.8-94.3-73.2-147l62.2-2097c3-103.3 93.6-192.3 225.3-221.5 944.4-209.7 1772.8-236.2 2685.9-85.8 137.7 22.7 236.6 112.4 240.5 218.2l120.6 2101.1c1.7 47.7-27.2 102.1-79.3 148.6-82.8 73.8-201.9 111.5-303.3 96.1-467.1-70.8-829.5-120.2-1239.7-112.1-434 8.6-893.9 85-1366.2 169.3-20.5 3.7-41.2 5.5-61.6 5.5m1563.1-2776.1c-511 0-1021.8 60.4-1571.7 182.5-156.3 34.7-263.8 144.2-267.6 272.6l-62.2 2097c-2 69.3 30.6 136.5 92 189.4 83.5 72.1 202.2 102.9 317.5 82.3 470.1-84 927.7-160 1357.8-168.6 406-8.1 766.1 41.2 1230.5 111.6 116.7 17.8 253.1-25.2 347.3-109.2 65.1-58.1 99.7-126 97.3-191.4l-120.6-2101.2c-4.9-131.2-122.3-241.9-285.6-268.8-388.3-64-761.6-96.2-1134.7-96.2m64-3252c-551.7 0-1244.1 108.2-1826.7 344.7-13.8 5.6-20.4 21.3-14.8 35.1s21.3 20.5 35.2 14.9c899.6-365.2 2061.3-421.9 2541.2-244.4 14 5.1 29.5-2 34.7-16s-2-29.5-16-34.7c-176.3-65.2-442.7-99.6-753.6-99.6" style="fill:#231f20;fill-opacity:1;fill-rule:nonzero;stroke:none" transform="matrix(.01402 0 0 -.01402 -350.299 222.93)"/><path d="M31683.5 13844.4c-25.5 0-43.4-5.9-48.9-20.7-51-136.6-77.1-339.1-69.8-541.6 8-221.6-52.6-423.8-111.2-619.3-23.3-77.6-47.3-157.8-66.9-238.4-24.6-101.7-38.5-188.6-43.8-273.6-4.8-74.5 10.4-156.2 26.4-242.7 29.5-159.6 60.1-324.7-40.2-451.1-80-100.8-254.2-198.6-422.6-293.3-141.7-79.6-288.2-162-361.3-238.1-338-352.7-341.3-804.2-344.7-1282.1-.4-49.6-.8-99.3-1.5-148.8-9.7-622.6 94.8-2962.9 157.2-4361.3 24-538.7 41.4-927.9 41.8-990.5 1.4-169.8-32.7-278.5-68.9-393.6-30.7-98.1-62.6-199.5-76.3-350-8.2-90.8-15.1-195.8 7.9-292.9 134.4-569.7 1193.6-704.6 1515-732.4 365.5-31.6 739.4-10.5 1091.1 13.9 284.9 20 700.7 199 908 391 62.2 57.9 89.4 127.5 88.1 551.1-.4 130.8-25.4 227.6-51.8 330.1-27.2 105.8-55.4 215.3-53 361.9 1.5 92.4 37.8 770.3 83.8 1628.6 73.7 1376.5 174.7 3261.7 187.9 3792.3 14.3 576.6-5.1 1015.5-387.5 1414.7-60.9 63.6-165.2 133.9-275.7 208.3-160.4 108.1-326.2 219.9-396.2 334.8-89.5 146.9-61.1 370-36.1 567 11 86.1 21.3 167.5 20.4 232.8-.7 47.6-4.5 95.6-11.6 146.7-16.7 120.3-49.4 235.8-81 347.5-56.1 198-114 402.8-78.2 629.7 14.3 90.1 2 172.8-12.2 268.5-7.6 50.6-15.3 102.9-19.7 160.4-.2 3.2-1.1 11-4.3 13-15.8 10-76.6-12.8-116.9-27.9-39.8-15-81.1-30.5-115.8-34.2-90.4-9.8-182.8-.9-272.3 7.8-27.2 2.6-54.5 5.3-81.6 7.4-53.1 4.1-130.9 30.3-213.3 58-84 28.3-199 67-264.3 67m489.4-11540.3c-133.9 0-268.3 4.6-401.8 16.1-330.6 28.6-1420.2 168.8-1563 773.8-24.8 104.9-17.7 215.1-9.1 310.2 14.3 156.3 47 260.5 78.6 361.3 34.9 110.9 67.8 215.7 66.5 377-.5 61.6-17.9 450.4-41.9 988.5-62.4 1399-166.9 3740.4-157.2 4364.5.8 49.4 1.1 98.9 1.5 148.4 3.4 467.4 6.9 950.8 359.8 1319 78.5 82 221.9 162.5 373.8 247.9 163.8 92.1 333.3 187.3 406.7 279.8 85 107.1 58 253.1 29.4 407.7-15.9 85.9-32.4 174.7-27.2 255.9 5.5 88.2 19.9 178.1 45.3 282.9 19.8 82 44.1 162.9 67.6 241.2 60 200.1 116.6 389.2 109 601.8-2.9 78.4-6 350.7 73.1 562.5 38 101.4 212.4 42.7 381.1-14 79-26.6 153.7-51.8 200.2-55.4 27.4-2.1 55-4.8 82.6-7.5 86.7-8.4 176.4-17.1 261.3-7.9 28 3 65.9 17.3 102.6 31.1 67.8 25.5 126.4 47.5 165 22.9 11.9-7.7 26.7-23.3 29-54.4 4.3-55.6 11.9-106.9 19.3-156.5 14.3-96 27.7-186.6 12.2-285-34.1-215.1 19.8-405.2 76.8-606.5 32.1-113.4 65.3-230.8 82.5-354.8 7.4-53.3 11.3-103.4 12-153.3 1.1-69.1-9.5-152.3-20.7-240.4-23.9-188.2-51-401.4 28.6-532.2 63.9-104.7 224.7-213.1 380.3-318 112.9-76.1 219.6-148 284.5-215.7 427.5-446.3 414.2-981.4 402.5-1453.5-13.3-531.3-114.3-2417-188-3793.8-46-857.7-82.3-1535.2-83.7-1626.6-2.3-139.3 23.8-240.4 51.3-347.5 26.1-101.3 53-205.9 53.5-343.4 1.3-423.7-23.9-515.1-105.4-590.8-218.5-202.5-640.6-384.3-941-405.3-225.9-15.7-461-30-697.6-30" style="fill:#231f20;fill-opacity:1;fill-rule:nonzero;stroke:none" transform="matrix(.01402 0 0 -.01402 -350.299 222.93)"/><path d="M32966.1 12340.4c-186.4-65.2-400.8-142.9-761.2-149.1-185.1-3.2-333.4 14.9-454.8 42.4-134.1 30.4-235.3 72.5-317.1 110-33.9 15.5-64.5 30.4-92.7 43.4 62 303.6 177.5 587.4 158.2 921.8-10.7 184.7 0 435 60.8 623.6 43.7 135.5 434.4-86.5 586-99.3 121.9-10.2 246.5-31.5 366.9-17.3 98.8 11.6 273.7 140.3 280.3 27.8 11.1-186.8 53.1-329.3 27.6-489.3-60.6-380.3 104.1-656.1 146-1014" style="fill:#f1df57;fill-opacity:1;fill-rule:nonzero;stroke:none" transform="matrix(.01402 0 0 -.01402 -350.299 222.93)"/><path d="M31752.4 12261.1c-133.6 30.7-234 72.9-314.1 109.9 27.5 132.6 97.8 359.9 104.7 438.9 15 168.3 21.1 308 23.5 378.8 19.4-11.1 40.5-19.8 63-25.9 65.7-17.6 131.1-32 196.3-43.3z" style="fill:#f7ed9b;fill-opacity:1;fill-rule:nonzero;stroke:none" transform="matrix(.01402 0 0 -.01402 -350.299 222.93)"/><path d="M31371.1 12402.5c7.5-3.6 15.2-7.2 23.1-10.9 152.5-72 383.1-180.7 810.2-173.4 343 6 550.4 76.8 732.2 140.5-15.8 120.1-45.5 232.6-74.3 341.6-55.7 211.2-108.3 410.6-68.9 658.3 16.1 101.1 4.4 194.3-9.3 302.1-7.2 57.1-14.7 116.2-18.6 181.4-.2 4.5-1.3 15.2-5.9 18.1-17.1 10.8-80.3-15-122.2-32.1-42-17.1-85.5-34.8-122-39.1-95.1-11.1-192.3-1-286.3 8.8-28.8 3-57.5 6-86 8.4-56.1 4.7-138.5 34.7-225.9 66.4-117.3 42.7-263.4 95.8-316.4 69.9-8.1-4-13-9.7-15.8-18.4-74.8-231.9-64.5-528.3-59.5-613.7 14-243.7-42.8-462.9-97.7-674.8-19.7-76.1-40-154.6-56.7-233.1m792.1-238.6c-413.1 0-640.1 107.2-792 178.9-14.7 6.9-28.7 13.5-42.2 19.7l-19.4 8.9 4.3 21c17.7 86.9 40 173.2 61.7 256.7 53.8 207.9 109.5 422.9 96 658.2-5.1 87.7-15.6 392.6 62 633.4 7.3 22.5 22.3 39.9 43.5 50.2 73.6 36.1 212-14.2 358.6-67.5 83.8-30.5 163-59.3 211.9-63.4 28.9-2.4 57.9-5.4 87.1-8.5 91.1-9.5 185.3-19.3 274.4-8.8 29.2 3.4 69.2 19.7 107.9 35.4 67.3 27.5 130.9 53.4 171.4 27.8 19-12 29.4-32.4 31-60.6 3.8-63.4 11.2-121.6 18.3-177.8 13.6-107.3 26.4-208.6 9-317.4-37.6-236.4 13.6-430.5 67.9-636 30.9-117.3 62.9-238.5 78.3-370.6l2.5-21.4-32.1-11.3c-187.8-65.8-400.7-140.4-758-146.5-14.2-.3-28.3-.4-42.1-.4" style="fill:#231f20;fill-opacity:1;fill-rule:nonzero;stroke:none" transform="matrix(.01402 0 0 -.01402 -350.299 222.93)"/><path d="M32875.4 13995.2c10-233.3 9.7-246.2 2.9-462.1-1-33.8-2.1-72.6-3.5-118 0-113.1-77.2-211.8-188.6-242.8-281.7-78.7-567.4-90.8-856.9-40.9-66.3 11.3-132.9 26-199.8 43.9-26.9 7.2-51.7 18.2-74 32.5-71.7 45.8-117.4 124.1-117.4 211.1-2.3 55.4-4.3 100.4-5.9 138.2-7.4 179.9-5.3 199.7 9.1 434.5.1 29.7 5.8 59.3 16.7 87l-3.7 99.3-3.5 11.7c-4.3 14.8-16.1 44.3-16.3 59.6l3.6 491.1h1436.7l11.6-478.6c0-28-18-103.2-30.2-128.6l-1-63.5 1.1-1.7c12.5-22.4 19.1-47.3 19.1-72.7" style="fill:#cb4828;fill-opacity:1;fill-rule:nonzero;stroke:none" transform="matrix(.01402 0 0 -.01402 -350.299 222.93)"/><path d="M31829.3 13118.9c-1.1.2-2.3.4-3.5.6l1.1 12.3c.8-.1 1.6-.3 2.4-.4zm-262.8 69.8c-3.7 2.2-7.4 4.4-11 6.7v12.4q5.55-3.6 11.4-6.9c-.1-3.8-.3-7.8-.4-12.2" style="fill:#f7ed9b;fill-opacity:1;fill-rule:nonzero;stroke:none" transform="matrix(.01402 0 0 -.01402 -350.299 222.93)"/><path d="M31825.8 13119.5c-65.2 11.3-130.6 25.7-196.3 43.3-22.5 6.1-43.6 14.8-63 25.9.1 4.4.3 8.4.4 12.2 19.2-11 40.2-19.6 62.6-25.6 66.1-17.7 131.8-32.3 197.4-43.5z" style="fill:#fcf6c8;fill-opacity:1;fill-rule:nonzero;stroke:none" transform="matrix(.01402 0 0 -.01402 -350.299 222.93)"/><path d="M31829.3 13131.4c-.8.1-1.6.3-2.4.4-65.6 11.2-131.3 25.8-197.4 43.5-22.4 6-43.4 14.6-62.6 25.6q-5.85 3.3-11.4 6.9v1515.9h273.8z" style="fill:#df917c;fill-opacity:1;fill-rule:nonzero;stroke:none" transform="matrix(.01402 0 0 -.01402 -350.299 222.93)"/><path d="m31464.9 14713.3-3.4-464.2c.1-6.6 6.8-26.3 10.4-36.9 1.9-5.7 3.6-10.8 4.8-15l4.5-14.9 4-108.3-2.1-5.2c-9.7-24.8-14.7-50.8-14.8-77.3v-1.6l-1.7-27.4c-14.6-236.5-14.6-236.5-4-484.2l2.5-58.3c0-102.1 70.5-191.6 171.4-218.6 356.8-95.6 707.5-96.6 1042.5-3.1 99.4 27.7 168.8 116.9 168.8 216.8l3.3 107.3c7.1 226.4 7.3 235.2-2.7 471.6 0 21.9-5.4 42.4-15.6 60.6l-4.7 8.2 1.1 76.8 2.7 5.3c10.8 22.3 27.5 93.2 27.5 116.8l-11 451.6zm706.8-1638.4c-180.7 0-364.1 24.8-549.2 74.3-124.4 33.4-211.4 144.3-211.4 269.7l-2.4 57.1c-10.8 250.6-10.8 250.6 4 489.9l1.6 26.6c.2 31 5.8 61.4 16.5 90.6l-3.3 90.4-2.5 8.4c-1.1 3.5-2.6 8-4.3 13-7.4 21.7-13 39.5-13.2 54.1l3.8 518.3h1489.8l12.3-504.9c0-30.6-16.4-102-30.3-135.2l-.8-50.8c13.2-25.1 20.1-53 20.1-81.2 10.1-237.3 9.8-246.2 2.6-474.4l-3.2-106.5c0-123.3-85.7-233.8-208.3-268.1-170.4-47.5-344.8-71.3-521.8-71.3" style="fill:#231f20;fill-opacity:1;fill-rule:nonzero;stroke:none" transform="matrix(.01402 0 0 -.01402 -350.299 222.93)"/><path d="M32886.2 14745.1c0-70.6-143.4-127.5-341.3-163.1-112.2-20.3-244.9-30.3-388.4-30.3-143.6 0-276 11.6-388.2 31.8-197.9 35.6-327.3 91-327.3 161.6s128.2 132.4 326.1 168.1c112.2 20.2 245.8 31.5 389.4 31.5 143.5 0 277.4-9.8 389.6-30 197.9-35.7 340.1-99 340.1-169.6" style="fill:#95b396;fill-opacity:1;fill-rule:nonzero;stroke:none" transform="matrix(.01402 0 0 -.01402 -350.299 222.93)"/><path d="M32886.2 14745.1c0-70.6-143.4-127.5-341.3-163.1-112.2-20.3-244.9-30.3-388.4-30.3-143.6 0-276 11.6-388.2 31.8-197.9 35.6-327.3 91-327.3 161.6s128.2 132.4 326.1 168.1c112.2 20.2 245.8 31.5 389.4 31.5 143.5 0 277.4-9.8 389.6-30 197.9-35.7 340.1-99 340.1-169.6" style="fill:#de8b75;fill-opacity:1;fill-rule:nonzero;stroke:none" transform="matrix(.01402 0 0 -.01402 -350.299 222.93)"/><path d="M32156.5 14917.7c-139 0-271.9-10.7-384.6-31-210-37.9-304-98.4-304-141.6 0-38.7 80.2-94.5 305.2-135.1 113.7-20.5 246.3-31.3 383.4-31.3 144.7 0 273.8 10 383.6 29.8 220.5 39.8 319.1 97.2 319.1 136.6 0 42.6-109.2 105.4-317.9 143-107.3 19.4-240.4 29.6-384.8 29.6m0-393c-140.3 0-276.1 11.1-393 32.2-231.9 41.8-349.5 105.1-349.5 188.2 0 114.8 218.2 171.2 348.3 194.7 115.8 20.9 252.1 31.9 394.2 31.9 147.6 0 284-10.5 394.4-30.4 109-19.7 362.3-78.1 362.3-196.2 0-82.4-122.3-146.2-363.5-189.7-113-20.4-245.3-30.7-393.2-30.7" style="fill:#231f20;fill-opacity:1;fill-rule:nonzero;stroke:none" transform="matrix(.01402 0 0 -.01402 -350.299 222.93)"/><path d="M32166.2 14001.1c-350.8 0-644.5 72.4-707.3 165.1-1.2-22-.6-66.1 3.7-88.5 66.9-91.2 352.8-156.5 700-156.5 353 0 635.9 55.9 693.9 146.2 1.5 16.6-1.3 45.2-1.9 72.6-93.1-80.7-367.9-138.9-688.4-138.9" style="fill:#71331d;fill-opacity:1;fill-rule:nonzero;stroke:none" transform="matrix(.01402 0 0 -.01402 -350.299 222.93)"/><path d="M31488.1 14088.9c60.3-70.7 307.5-140.7 674.5-140.7 390.9 0 617 65.6 667.3 128.4.1 4 0 8.6-.2 13.7-124.7-70.6-379.2-116.2-663.5-116.2-302.2 0-562.6 51.6-679.6 130.1.4-5.6.9-10.8 1.5-15.3m674.5-194.7c-358.2 0-648.3 67.4-721.8 167.5l-3.6 5-1.2 5.9c-4.7 24.9-5.4 71.2-4 95.1l4.4 79.9 44.8-66.2c51.1-75.4 321.3-153.3 685-153.3 305.2 0 580.9 54.4 670.7 132.3l43.3 37.6 1.4-57.4c.2-9.6.7-19.4 1.2-28.8.9-18.4 1.7-34.3.6-46.8l-.6-6.6-3.6-5.6c-75.1-116.9-419.5-158.6-716.6-158.6m-701.6-379.6c.3-6.6.6-13.4.9-20.5l3.2-74.1c0-77.1 39.2-147.5 104.9-189.4 20.4-13.1 42.7-22.9 66.5-29.3 66.1-17.7 132.5-32.3 197.4-43.3 287.7-49.5 572-36 845 40.3 99.5 27.7 168.9 116.9 168.9 216.8l2.1 69.1c-118.6-70.1-406.8-108.2-654.6-105.3-290.3 3.6-591.8 60.4-734.3 135.7m710.1-439.8c-114.6 0-230.2 10-346.4 30-66.4 11.3-134.4 26.2-202.2 44.4-29.2 7.8-56.6 19.9-81.6 35.9-81.2 51.8-129.8 139.2-129.8 233.8l-3.1 72.9c-1 23.6-2 44.8-2.7 64.2l-1 23.5 42.6 7.6 9.2-6.5c111.7-79.1 436.6-144 739.8-147.7 326.8-4.1 605.8 59.3 652.9 118.6l10.2 12.8 47-9.1-4.2-140.9c0-123.3-85.7-233.8-208.4-268-170.5-47.6-345.2-71.5-522.3-71.5" style="fill:#231f20;fill-opacity:1;fill-rule:nonzero;stroke:none" transform="matrix(.01402 0 0 -.01402 -350.299 222.93)"/></svg>