<svg xmlns="http://www.w3.org/2000/svg" xml:space="preserve" width="200mm" height="200mm" viewBox="0 0 200 200"><g style="display:inline"><path d="M11336.6 12936.8h.5zm0 0h-8.9zm-9.6 0h-.8zm-121.1 2.8c-917.7 39.3-1662.43 482.2-1674.76 788.9 12.35-306.7 757.06-749.6 1674.76-788.9m-1674.79 789.8c-.04 1-11.68 273-29.67 691 17.99-418 29.64-690 29.67-691m-145.84 3396c-10.65 248.7-20.79 485.8-29.98 700.1 15.98-213.9 19.33-451.4 29.98-700.1m3909.13 673.2c5.9 320.2-77.6 431.1-455.9 665.4 377.7-224.9 461.9-342 455.9-665.4m-3941.62 123.8c-.72 192.4 31.16 304.8 158.08 422.5-90.8-103.4-153.25-237.2-158.08-422.5m3095.22 774.2c-174.6 106.3-401.4 253.7-443 325.1-154.6-32.6-386.8-111.6-574-121.5-26.6-1.4-52.6-2.1-78.1-2.1-351.5 0-598.6 127.1-715.5 194-51.2-100.4-286.4-236.8-455.1-327.3 207.7 116.3 562.5 339.4 559.8 553.5l58.4 1914h1017.3l49.8-1957.6c-.8-172 343.1-424.4 580.4-578.1" style="fill:#f6fcfb;fill-opacity:1;fill-rule:nonzero;stroke:none" transform="matrix(.0179 0 0 -.0179 -102.696 420.872)"/><path d="M12657.2 18573.3s-583 329.4-652.2 448.4c-154.6-32.6-386.8-111.6-574-121.5-393-20.8-668.2 120.1-793.6 191.9-73.1-143.1-519.9-359.6-615.2-411.4-294.07-160-707.8-307.6-666.91-855.2 15.98-213.9 19.33-451.4 29.98-700.1 39.53-918.5 85.4-1987.6 114.75-2672 18.79-436.6 31.06-723 31.09-724 11.32-319.9 821.19-788.7 1793.59-792.6 949.2-3.8 1729.7 446.9 1776.1 755.9l39.2 828.4 123.4 2605.7 28.8 608.6c19.8 419.8-71.6 504.3-635 837.9" style="fill:#319d6b;fill-opacity:1;fill-rule:nonzero;stroke:none" transform="matrix(.0179 0 0 -.0179 -102.696 420.872)"/><path d="M12779.7 13709.4c-.2 0-.3 0-.4.1h-.7c-62.5.5-111.9 52.2-110.3 115.4l90.3 3564.2c1.8 71.1 56.8 128.5 123 128.5h.9c66.7-.6 119-59.1 117-130.5l-104.4-3564.4c-1.9-62.8-53.4-113.3-115.4-113.3m-2420-299.2c-11.8 0-23.9 1.9-36 5.9-36 12-76.5 27.6-119.9 47.6-107.4 49.5-249.77 157.1-329.98 221-38.77 30.9-62.57 79.5-64.36 131.4l-131.26 3822c-2.85 82.9 12.51 165.3 47.69 236.2 54.23 109.4 129.57 148.8 209.98 148.8 34.02 0 68.93-7.1 103.53-18.9 204.6-69.9 345.7-292.2 351.1-538.2l87.1-3923.6c1.7-75.3-53.5-132.2-117.9-132.2" style="fill:#56b65b;fill-opacity:1;fill-rule:nonzero;stroke:none" transform="matrix(.0179 0 0 -.0179 -102.696 420.872)"/><path d="m13263.3 17126.8-123.3-2605.7c-63.9-59.2-140.5-117.8-229.5-173.3h-.1c-69.8-43.5-147.1-85.1-232-123.4-316.7-143.7-738-244.6-1259.3-242.8-340.3 1.2-632.6 38.3-885.6 93.9h-.1c-291.2 63.8-530.8 152.4-731.17 238.9-112.41 48.5-212.47 96.5-302.19 139-29.36 684.4-75.27 1753.4-114.74 2672 87.39-34 193.12-73.9 316.42-115.2 207.46-69.3 464.08-142.8 765.68-199.4h.1c258.1-48.5 549.1-84.7 870.5-96.2 608.1-21.2 1064.9 76.2 1408.3 193.8h.1c87.7 30 168.2 61.5 241.7 92.5 105.1 44.3 196.3 87.8 275.2 125.9" style="fill:#ecf9f7;fill-opacity:1;fill-rule:nonzero;stroke:none" transform="matrix(.0179 0 0 -.0179 -102.696 420.872)"/><path d="m12988.1 17000.9-77.7-2653.1c-69.8-43.5-147.1-85.1-232-123.4l67.9 2684h.1c87.7 30 168.2 61.5 241.7 92.5m-2521.6-2902.1c-291.1 63.8-463.9 129.1-664.27 215.6l-100.51 2695.8c207.46-69.3 403.88-130.9 705.48-187.4z" style="fill:#fff;fill-opacity:1;fill-rule:nonzero;stroke:none" transform="matrix(.0179 0 0 -.0179 -102.696 420.872)"/><path d="m13255.9 17123.9-4.3-116.8c-75.5-36.3-163.6-79.4-266.9-123.6-72.6-31.1-152.8-62.9-241.4-93.5-303.5-104.7-705.7-194.9-1241.2-194.9-54.3 0-109.5.9-166.2 2.9-320.2 11.2-608.4 46.7-865.6 95-294.9 55.5-549.22 128-764.24 200.4-122.3 41.1-231.82 82.3-329.1 120.2l30.57 113.2c409.26-159.8 1054.87-375.7 1932.67-406.6 982.1-34.5 1596 249.7 1915.7 403.7m-105-2588.4c-51.9-48.3-130.3-113.1-240.3-181.2-65.7-40.5-142.6-82.3-232-122.3-281.1-125.7-684.8-233.8-1245.2-233.8h-14.5c-338.6 1.3-631.5 37.8-885.9 92.8-290.4 62.8-530.5 149.5-731.22 234.9-114.29 48.7-215.8 96.8-306.52 139.9l7.45 139.8 45.02-29.3c75.05-35.7 157.66-74.9 249.05-114.9 198.9-87.2 439.32-178.1 733.12-244.1 253.9-57.2 547.8-95.7 889.4-96.8h12.7c458.2 0 901.1 101.5 1250.5 265.7 83.3 39.1 161.2 81.8 232.8 127.5 80.8 51.6 153.7 107 216.8 165.6z" style="fill:#6bcbe3;fill-opacity:1;fill-rule:nonzero;stroke:none" transform="matrix(.0179 0 0 -.0179 -102.696 420.872)"/><path d="M12682.5 14387.8c83.3 39 161.2 81.7 232.8 127.4l-4.7-160.9-.2-6.5c-69.8-43.5-147.1-85.1-232-123.4l.2 7.6zm305.6 2613.1-3.4-119.3c-72.6-31.1-152.8-62.9-241.4-93.5l3 120.3h.1c87.7 30 168.2 61.5 241.7 92.5m-2578.2-299.2c-271.7 55.4-508.04 119.3-706.07 191.7l-4 116.8c191.08-69.3 427.37-142.8 705.17-199.4zm55.9-2626.2c-268.2 63.8-488.88 152.4-673.4 238.9l-.41 11.5 3.99 138c185.53-84.1 397.12-162.6 667.82-228.7l1.6-144.2z" style="fill:#d0f0f6;fill-opacity:1;fill-rule:nonzero;stroke:none" transform="matrix(.0179 0 0 -.0179 -102.696 420.872)"/><path d="m9520.04 14466.7 10.24-4.9c382.98-181.8 961.72-456.5 1888.92-459.7h12.8c696.6 0 1325.9 197 1687.8 528.4l121.4 2562.8c-332.8-159.8-932.5-433.3-1903.9-399.2-869.5 30.6-1514.04 240.1-1930.13 400.7 38.98-905.8 83.84-1951.1 112.87-2628.1m1912.96-505.8c-4.7 0-9.3.1-14 .1-936.3 3.2-1520.08 280.3-1906.36 463.6l-32.64 15.5-.54 12.4c-29.35 684.5-75.22 1753.5-114.74 2672l-1.36 31.5 29.39-11.4c412.04-160.9 1062.05-378.3 1946.05-409.4 992.2-34.7 1592.9 254.7 1915.7 410.2l31.1 14.9-125.4-2648.5-6.2-5.8c-166.7-154.6-397.1-286-666.2-379.8-314.5-109.7-669.3-165.3-1054.8-165.3" style="fill:#231f20;fill-opacity:1;fill-rule:nonzero;stroke:none" transform="matrix(.0179 0 0 -.0179 -102.696 420.872)"/><path d="M9800.11 16582.2c4.28-.5 8.99-1.5 14.1-3 12.13-3.7 22.06-8.8 29.8-15.3 4.93-4.1 9.79-10.6 14.61-19.5 4.81-8.8 7.47-16.2 7.99-22.3.49-5.1-.09-10.4-1.73-15.8-2.8-9.2-6.94-14.5-12.42-16.1-1.94-.6-5.21-.2-9.78 1.2-3.78 1.2-6.7 3.9-8.77 8.2s-2.49 8.5-1.25 12.6c1.06 3.5.11 8.3-2.86 14.5-2.96 6.2-6.53 10.7-10.7 13.4-2.64 2-5.97 3.6-10.01 4.9-13.47 4.1-29.87 2.4-49.2-4.9-19.31-7.4-35.96-18.5-49.92-33.4-20.47-21.7-35.63-46.8-45.49-75.3-.33-1.1-.94-2.8-1.81-5.2-.88-2.4-1.47-4.1-1.8-5.2-16.19-53.1-9.3-93.8 20.66-122 5.48-5.2 10.64-8.6 15.5-10.1 2.95-.9 5.43-1.5 7.39-1.8 8.06-1.6 14.75-1.8 20.07-.8q7.965 1.5 18.9 8.4c7.27 4.5 12.61 8.5 15.99 11.9 3.39 3.4 7.3 8.9 11.73 16.7 8.46 14.2 17.13 20 26.01 17.3 4.05-1.3 7.47-4.5 10.28-9.8 2.62-4.9 3.48-8.8 2.58-11.8-.24-.8-1.22-3-2.9-6.6-7.42-16.6-19.34-31.1-35.77-43.5-16.44-12.3-32.6-19-48.53-20.1-8.18-.7-19.31.9-33.4 4.9-12.93 4-22.86 9.1-29.8 15.3-20.9 19.3-34.32 41.2-40.25 65.7-5.94 24.5-4.92 53.2 3.05 86.1q.825 4.2 3.42 12.6c10.01 32.9 25.72 62 47.12 87.3 21.4 25.2 43.92 42.4 67.57 51.4 9 3.4 19.33 6.1 31 8.2 11.66 2 21.19 2.6 28.62 1.9m94.59-118c3.76 2.2 8.23 2.7 13.42 1.4s8.69-3.6 10.46-6.9c1.86-3.1 1.36-12.1-1.48-27.1l-3.96-21.2 15.36 7.5q16.785 8.1 37.08 12.6c10.09 2.1 17.27 3.3 21.5 3.4s11.48-.9 21.72-2.8c3.9-.7 8.3-1.6 13.2-2.8q9.9-2.55 16.8-8.1c8.5-6.5 15-13.6 19.5-21.4 4.4-7.8 6-14.4 4.6-19.9l-.5-1.1-.5-1.2c-4.4-8.2-10.5-11.3-18.4-9.4-5.5 1.4-10.8 5.3-15.8 11.8-6.5 9.1-14.1 14.8-22.8 16.9-3.3.8-7.09 1.4-11.4 1.6q-43.74 2.55-86.82-36l-9.41-8.1c-3.72-15-9.09-37.8-16.05-68.3-6.99-30.5-12.36-53.3-16.16-68.7l-6.25-4.1c-4.22-3-8.8-3.9-13.72-2.7-4.38 1.1-7.76 3.9-10.16 8.2-3.85 6.8-.58 31.1 9.79 72.9 2.04 8.2 8.34 32.5 18.93 72.8 12.14 45.4 19.72 73.2 22.79 83.1 3.05 10 5.81 15.9 8.26 17.6m329.8-121.6c-6.3 5.7-14.7 9.8-25 12.5l-5.4 1.1q-11.55 2.4-19.5.6c-5.3-1.3-11.8-4.4-19.4-9.4-12.3-8.2-21.7-19.5-28.1-34-2.6-5.8-4.1-9.3-4.4-10.7q-.45-2.55.9-4.5c4.9-6.5 18.9-12.8 41.8-18.9 4.1-1.1 8.7-2.2 14-3.3 6.6-1.4 13.7-1 21.4 1.2 7.3 2 14.5 5.8 21.5 11.5 7.1 5.8 11.8 11.5 14.1 17 .4.8.8 2 1.1 3.7 2.5 11.8-1.9 22.9-13 33.2m-47.5 52c5.9.8 13.9.2 24.1-1.9 14.4-2.9 26.5-7.4 36.5-13.5 7.9-4.8 15.3-11.9 22-21.3q10.05-14.1 13.2-28.2c2-9.9 2.1-18.9.4-27.2-3.3-16.3-13.6-30.9-30.9-43.7-22.4-16.4-46.9-21.9-73.7-16.4-.8.2-2.2.5-4.3 1.1-2 .6-3.6 1-4.7 1.2-13.1 3.5-24 7.5-32.9 11.9-3.9 2.2-7.9 3.8-12 4.6l-1.3.3c-.7-.8-.9-5.2-.7-13.3.2-8 .9-15.7 2-22.8.9-6.5 3.5-13.3 7.7-20.3q6.3-10.65 14.1-16.5c6-4.4 12.1-7.2 18.5-8.5 17.7-3.6 32.8 1 45.6 13.9 6.1 6 10.6 9.6 13.4 11.1 3.5 1.6 6.9 2 10.2 1.3 4.4-.9 8-3.3 10.8-7.4 2.8-4 3.7-8.3 2.7-13-1.2-6.1-5.7-12.8-13.4-20.1-7.7-7.4-15.9-12.7-24.6-16.1-18.4-6.9-34.3-8.9-47.8-6.2-.9.2-2 .5-3.5 1-1.5.4-2.8.7-3.9 1-20.2 5.2-36.7 16.7-49.5 34.2-8.9 12.5-14.7 28.3-17.2 47.6-2.6 19.2-1.7 39.1 2.5 59.8q2.55 12.45 7.8 27.3c8.1 22.5 19.8 40.8 35.4 54.9 15.5 14 33.3 22.5 53.5 25.2m378.9-72.5c5.2.6 12 .3 20.4-1l4.5-.7c18.3-3.6 32.6-13.2 43.1-28.8 4.6-7 8-14.1 10.2-21.2 2.1-7.2 3.9-17.6 5.2-31.2 1.2-10.7 1.4-20.2.6-28.3q-1.2-12.15-7.8-60.3c-1.6-12.1-3.6-26.4-6.2-43.1-3.9-25.6-8.3-40.3-13.2-44.2-3.2-2.6-7.6-3.5-13.2-2.6-5.9.9-9.7 3-11.4 6.4-1.6 2.6-2.1 7.5-1.4 15 .8 7.4 3.5 26.9 8.4 58.3 4.6 31.8 7.3 52.1 8.1 61 .7 8.8.8 18.3 0 28.4-1.2 14.1-2.9 24.7-4.9 31.5-2.1 6.9-5.3 12.2-9.6 16-4.4 4.1-9.9 6.7-16.3 7.7-4.7.7-10.6.7-17.5.1-11.2-.8-24-8.3-38.3-22.3-14.2-14.1-27-31.6-38.2-52.7-4.4-8.5-7.5-15.7-9.1-21.7s-4.8-21.2-9.4-45.6c-4.9-26.9-8.5-43.2-10.5-49s-5.7-9.3-11-10.5c-3.8-.8-6.6-1.1-8.3-.9-2.5.4-5.6 3-9.4 7.9l-5.7 7.7 12.8 72.4c5 28.9 7.9 45.2 8.5 49.2 2.6 17.2 3.8 30.4 3.5 39.6-.7 15.8-2.7 27-5.8 33.6s-8.3 10.4-15.5 11.5c-11.1 1.7-23.6-1.8-37.3-10.5s-25.9-20.8-36.6-36.2l-8.4-13.3-9.5-64.3-4.3-28.4c-2.6-16.8-4.5-27.2-5.7-31.4-1.2-4.3-3-7.5-5.4-9.7-3.3-3.2-6.6-4.5-10-4-.2 0-.9.2-1.8.5-1 .3-1.7.5-2.3.5-5.5 1.2-9.5 4.1-11.9 8.7-1.8 3.4-2.3 8.6-1.7 15.4.6 6.9 3.3 25.4 7.9 55.5 14.4 94.1 24.6 147.5 30.6 160.3 3.9 7.1 9.2 10.1 15.9 9.1 3.9-.6 7.3-2.9 10.1-6.7 2.6-3.6 3.7-10.3 3.3-20.2l-1-14.8 13 9.3c18.8 13.2 38.7 18.9 59.5 17.2 1.1-.2 2.4-.3 4-.4 1.5-.1 2.6-.2 3.2-.3 5.2-.8 11.5-3.8 18.7-8.9 12.8-9.3 20.8-23.1 24-41.3.3-1.4.7-3.3 1-5.7.4-2.3.7-4.3 1.1-5.9.3-1.6.5-2.7.7-3.3.4-1.2.7-1.8 1-1.9 1.4-.2 5.5 3.4 12.4 10.9 20.2 22.3 42.5 34.8 66.9 37.6m259-66.8c-6.9 4.9-15.6 8.3-26.2 10l-5.4.5c-7.9.9-14.3.4-19.5-1.3-5.1-1.7-11.3-5.4-18.4-11.2-11.5-9.3-19.7-21.4-24.7-36.5q-3-9-3.3-11.1c-.2-1.7.2-3.1 1.2-4.4 5.6-5.9 20.1-10.9 43.5-14.8 4.2-.7 8.9-1.4 14.2-1.9 6.8-.7 13.8.4 21.2 3.3q10.65 3.9 20.4 13.5c6.4 6.4 10.6 12.5 12.3 18.2.4.9.6 2.1.8 3.8 1.3 12-4.1 22.6-16.1 31.9m-52.4 47.2c5.8 1.3 13.9 1.5 24.3.4 14.6-1.6 27.1-4.9 37.6-10 8.3-4 16.3-10.4 23.9-19.1s12.8-17.7 15.8-26.7c3-9.7 4-18.7 3.1-27.1-1.7-16.6-10.6-32.1-26.6-46.5q-31.05-27.75-71.7-23.4c-.9.1-2.3.3-4.4.7s-3.7.6-4.8.7c-13.4 2.3-24.7 5.2-34 8.7-4 1.9-8.1 3-12.3 3.5l-1.3.1c-.6-.8-.5-5.2.5-13.2 1-8.1 2.4-15.6 4.2-22.6q2.4-9.6 9.6-19.5t15.6-15c6.4-3.8 12.8-6 19.3-6.7 17.9-1.9 32.6 4.1 44 18.2q8.25 9.75 12.3 12.3c3.3 1.9 6.7 2.7 10.1 2.3q6.6-.6 11.4-6.3c3.1-3.7 4.4-8 3.9-12.7q-.9-9.3-11.4-21.3c-6.9-8.1-14.6-14.2-22.9-18.4-17.7-8.6-33.3-12.2-47.1-10.7-.8.1-2 .3-3.5.6s-2.9.5-4 .6q-30.9 4.95-52.5 29.4c-10.1 11.5-17.4 26.7-21.7 45.6-4.4 18.9-5.5 38.8-3.2 59.9q1.35 12.6 5.1 27.9c5.8 23.2 15.8 42.5 29.9 58s31.1 25.6 50.8 30.3m386.7-76.1c-4.7 2.2-10.7 3.6-18 3.9-10.1.6-20.7-.7-31.9-3.7-11.2-3.1-19.7-7.3-25.6-12.6q-25.8-23.1-31.8-78.9c-1.1-10.1-1.7-16.3-1.8-18.5-.4-7.3.5-15.4 2.5-24.2 3.3-12.6 8.2-22.9 14.7-31 6.4-8.1 14-12.9 22.7-14.5.5 0 1.3-.1 2.3-.3.9-.2 1.7-.3 2.3-.4 17.4-.9 38.8 12.5 64.3 40.1 7.8 9.1 15 16.6 21.5 22.5l8 7.1 2.7 26.9c2.8 25.2 4.2 39.5 4.4 42.8l.9 15.6-14.7 10.9c-9.8 7-17.3 11.8-22.5 14.3m70.6 125.3c3.6 3.2 7.3 4.7 11.2 4.5 5.1-.3 9.3-3.7 12.6-10 1.6-3.2 2.2-6.2 2.1-9-.1-.6-.8-4.5-2.3-11.8-7.3-34.8-14.8-86.2-22.7-154-3.5-28.6-5.9-56-7.3-82.1-1.3-23.1-1.4-41.4-.4-55 .6-14.1.8-23.2.6-27.1-.3-6.8-1.8-11.5-4.5-14.2q-4.05-4.35-12.9-3.9c-3.7.2-7 1.2-10 3.1-6.6 4-9.9 17.4-10.1 40.3-.4 13.8-.7 21.4-.9 22.9l-.4.4c-2 .1-8.5-4.8-19.4-14.6q-14.7-14.1-26.1-20.4c-7.5-4.3-17-7.6-28.4-10.1-6-1.4-12-1.9-17.9-1.6-13.8.7-26.8 5.6-39 14.6-12.2 8.9-21.6 20.8-28.1 35.5-5.8 13.3-9.3 23.9-10.6 31.9s-1.4 20.4-.5 37.3c2.1 33.7 8.7 60.6 19.9 80.6q13.2 23.4 30.9 36c11.9 8.3 27 14.3 45.2 17.8 11.1 2.3 21.5 3.1 31 2.6 15.8-.8 31.8-7 48.1-18.6 6-4.6 10.2-6.9 12.8-7.1h.4c.9.8 3.6 15.7 8.3 44.8 4.2 26.1 7.4 43 9.7 50.9s5.2 13.4 8.7 16.3m186.1-129.5c-7.2 4.3-16.2 6.9-26.9 7.6l-5.5.1c-7.9.2-14.3-.8-19.3-3-4.9-2.2-10.7-6.4-17.3-12.8-10.6-10.2-17.7-23.1-21.4-38.5-1.5-6.2-2.3-10-2.3-11.4 0-1.7.5-3.1 1.6-4.2 6.1-5.5 21-9.1 44.6-10.9 4.2-.4 9-.6 14.4-.7 6.7-.1 13.7 1.6 20.8 5.1 6.8 3.3 13.1 8.4 19 15.3s9.5 13.4 10.7 19.3c.3.8.5 2.1.5 3.7.2 12.2-6.1 22.3-18.9 30.4m-56.3 42.4c5.7 1.9 13.7 2.7 24.2 2.5 14.6-.2 27.4-2.4 38.3-6.6 8.7-3.2 17.2-8.9 25.5-16.9s14.3-16.5 18.1-25.3c3.8-9.3 5.6-18.2 5.5-26.7-.3-16.6-7.8-32.8-22.4-48.6-19-20.2-42.1-30.1-69.4-29.6q-1.35 0-4.5.3c-2.1.1-3.7.3-4.8.3-13.5 1-25.1 2.9-34.6 5.6q-6.3 2.25-12.6 2.4h-1.3c-.6-.8 0-5.2 1.7-13.1s3.7-15.3 6.1-22.1c2.2-6.2 6-12.4 11.3-18.6 5.4-6.1 11.1-10.7 16.9-13.6 6.7-3.2 13.3-4.9 19.8-5 18-.3 32.1 7.1 42.2 22.1 4.9 6.9 8.7 11.4 11.2 13.3 3.2 2.2 6.4 3.3 9.8 3.2 4.5-.1 8.5-1.8 12-5.3 3.4-3.4 5.1-7.5 5-12.3-.1-6.2-3.3-13.6-9.5-22.2-6.2-8.7-13.3-15.4-21.2-20.4-16.8-10.1-32.1-15-45.9-14.8q-1.35 0-3.6.3c-1.6.2-2.9.2-4 .3q-31.35 2.25-54.9 24.6c-11.1 10.6-19.7 25.1-25.7 43.5-6 18.5-8.8 38.2-8.5 59.3.2 8.5 1.1 17.9 2.7 28.3 3.8 23.6 12 43.8 24.7 60.4 12.7 16.7 28.6 28.3 47.9 34.7m512.9 82.9q5.7 4.5 12.9 4.8c8.4.4 15.7-3.9 22-12.9 9.5-13.9 16.3-61.1 20.1-141.6.5-11.8 1.4-35.4 2.5-70.9 1.3-45.1 1.9-72.4 1.8-82s-1.2-16-3.2-19.2c-3.1-4.9-8-7.6-14.7-7.9-4.7-.2-8.4 1-11.1 3.7-2 1.9-3.5 9-4.3 21.4q-1.35 18.6-6 117.3c-4.3 89.5-7.3 136-9.2 139.6q-1.05 2.4-1.8 2.4c-1.4-.1-7-8.4-16.6-24.9-5.7-10.4-19.1-32.1-40.1-64.9q-5.85-9.15-12.9-20.7c-4.7-7.7-9.2-15-13.6-22q-6.45-10.5-8.4-13.5c-8.9-14.8-16-22.4-21.4-22.6-2.5-.1-5.5.6-8.9 2.1-6.4 2.5-11.8 6.3-16.2 11.3-4.5 5-11.3 15.1-20.5 30.5-16.9 28-32.6 52.9-47.4 74.7-14.7 21.9-23.2 32.8-25.4 32.7l-.4-.1c-1.9-2-2.6-22.2-2.2-60.6.4-38.3 1.7-80.7 3.9-127.1l4.1-94.5-4.9-4.1q-4.8-4.05-8.7-4.2c-2.8-.1-6.2 1.3-10.3 4.2-2.6 1.8-4.4 4.1-5.4 6.7s-2.1 8-3.3 16.1c-3.5 26.1-6.4 63-8.7 110.8-3.4 72.3-3.9 124.8-1.5 157.3 1.2 16.4 3.6 28.2 7.2 35.2 3.6 7.1 9.2 10.8 16.8 11.2 5.9.3 10.8-.5 14.9-2.2 3.7-1.8 9.9-6.9 18.4-15.2 8.6-8.4 15.1-15.5 19.6-21.5 17.6-26 39.5-60 65.7-102.2l9.1-14.8 3.6 5.2c3.5 4.7 13.3 20.9 29.7 48.6 16.3 27.7 27.8 47.8 34.6 60.3 15.6 28.3 29 46.2 40.2 53.5m216.7-94.6q-11.55 5.25-27.6 4.5l-5.5-.6c-7.8-.8-14.1-2.5-18.8-5.3-4.7-2.7-9.9-7.6-15.7-14.7-9.3-11.4-14.9-25-16.7-40.7-.8-6.3-1.1-10.2-1-11.6.2-1.7.9-3 2.1-4q10.05-7.05 45.6-5.7c4.2.2 9 .5 14.3 1.1q10.05.9 20.1 7.5 9.6 6 17.1 17.4c5.1 7.6 7.8 14.4 8.4 20.4.2.8.2 2.1 0 3.8-1.2 12.1-8.6 21.4-22.3 27.9m-60.9 35.5q8.1 3.75 23.7 5.4c14.5 1.4 27.5.7 38.8-2.1q13.5-3.3 27.3-13.8c9.2-7 16.2-14.7 21-23 4.8-8.8 7.7-17.4 8.5-25.9 1.7-16.5-3.8-33.5-16.5-50.9-16.5-22.3-38.3-34.8-65.5-37.5-.8-.1-2.3-.2-4.4-.2-2.1-.1-3.7-.2-4.9-.3-13.5-.5-25.2 0-34.9 1.6-4.4.9-8.7 1.2-12.9.8l-1.2-.1c-.5-.9.6-5.2 3.2-12.9 2.6-7.6 5.5-14.7 8.7-21.2 2.8-5.9 7.3-11.6 13.4-17.1 6-5.5 12.2-9.3 18.3-11.5 7.1-2.5 13.8-3.3 20.3-2.7 17.9 1.8 31 10.8 39.3 26.9 4.1 7.5 7.3 12.3 9.6 14.5 2.8 2.6 5.9 4 9.3 4.4 4.5.4 8.7-.9 12.5-3.9s6-6.9 6.5-11.6c.6-6.2-1.7-13.9-6.8-23.2-5.2-9.3-11.4-16.9-18.8-22.7q-23.25-18-43.8-20.1c-.9-.1-2.1-.1-3.6-.2-1.6 0-2.9 0-4-.2-20.9-.9-40 5.1-57.5 18.1-12.2 9.2-22.4 22.6-30.5 40.2-8.2 17.6-13.3 36.9-15.4 57.9-.8 8.4-1.1 17.9-.7 28.4 1 23.9 6.8 44.8 17.5 62.9 10.6 18 25.1 31.4 43.5 40m148.5 10.1c2.1 3.2 5.9 5.2 11.5 6 3.9.6 7.2.2 10-1.1 5.2-2.4 9.8-16.3 13.9-41.5l.7-5c1.8-11.7 3.7-17.4 6-17 .8.1 2.1 1.6 4 4.4 3.2 5 11.5 13.9 24.7 26.5 13.2 12.7 23.1 21.5 29.8 26.5 12.6 8.9 25.9 14.5 39.8 16.6 12.5 1.8 24.6.9 36.3-2.8 14.3-4.3 25.8-11.8 34.6-22.7 8.7-10.9 16.3-27.3 22.7-49.5 6.4-22.1 13.1-54 20.2-95.6 1.4-7.5 2.9-16.4 4.4-26.7 1.9-12.8 1.6-21-1.1-24.5-2.6-3.5-6.7-5.7-12.2-6.5-4.8-.7-8.7 0-11.9 2.1-3.5 2.3-6.1 7-8.1 14.1-1.9 7.2-5.9 27.5-12 61-5.4 28.8-9.5 48.5-12.2 59.1-2.7 10.5-6.6 21.4-11.7 32.6-3.4 7.2-7.4 12.5-12 15.8s-11.1 5.4-19.5 6.4c-5.8.6-10.6.6-14.5 0-12-1.8-26.5-10.5-43.6-26.1-18.5-17.3-32.7-35.2-42.8-53.8l-5.6-11.1 8.6-57.6c3.9-26.5 6.2-43.1 6.8-49.9.5-6.7 0-12.2-1.6-16.4-1.9-6.6-5.5-10.2-10.8-11-2.2-.4-4.2-.5-5.9-.5-3.4.1-6.6 1.2-9.5 3.3-2.5 1.9-5.4 11.6-8.6 29.1-3.1 17.4-13 78.9-29.5 184.4l-1.7 11.2c-1.6 10.6-1.3 17.4.8 20.2m290.1 136.1c2.6 4.2 5.9 6.8 9.7 7.5 3.9.8 8-.3 12.3-3.1l6.5-4.4 18.2-104.9 4.7.1c3.7.1 14 1.6 31 4.4 17.8 3 28.3 3.5 31.6 1.5 3.6-2.4 5.9-6 6.8-10.7 1-4.9.1-9.6-2.8-13.9-2.7-4-9.3-7-19.7-9.1-1.2-.2-3.6-.6-7.3-1.2-3.8-.6-6.9-1.2-9.4-1.6l-32.5-5.6 1.9-16.1q1.8-17.7 9.9-58.5c5.3-27.1 10.9-46.3 16.5-57.5 5.5-11.4 11-18.9 16.6-22.7 4.3-2.9 7.7-4.4 10.2-4.6 2.5-.3 8.1.5 17 2.2 9.9 2 17 2.6 21.2 1.7s7.3-3.8 9.5-8.8c.5-1 .9-2.3 1.2-4 2.3-11.7-7-20.4-28-26-.8-.1-2-.4-3.5-.9-1.5-.4-2.5-.7-3.1-.8-5.5-1.1-12.7-.7-21.7 1.3-20.6 5.1-36.1 16.7-46.6 34.7-9.8 17.8-17.5 40.6-23 68.2-2.4 12.2-4.2 22.1-5.5 29.9l-10 57-11.1-2.6c-13.5-2.7-21.3 1.1-23.3 11.3q-2.85 14.55 18.9 21.9c5.9 2 9.4 3.6 10.5 4.6 1.1 1.1 1.7 3.5 1.8 7.3 0 5.4-1.2 18.5-3.7 39.1q-3.75 30.9-6.3 43.8c-1.8 9.1-1.3 15.9 1.5 20.5m130.9 34.6c2.4 3.5 5.4 5.7 9.2 6.7 3.9.9 7.6.1 11.1-2.5 3.6-2.6 6.5-6.7 8.7-12.2q3.75-7.8 18.9-61.5l14.7-51.6 7.6 11.1c6.1 8.4 13.5 16 22.4 22.8 9 6.7 22.5 12.4 40.6 17.1q27.15 7.05 51.6-6.9c18-10.6 30.9-30.3 38.8-59.1l1.3-5.3q5.55-22.2 15.6-68.4c6.7-30.9 10.5-49.8 11.4-56.9 1.1-6.7.4-12.4-2-17.2-2.5-4.8-5.9-7.8-10.2-8.9q-6.6-1.65-13.2 2.4-4.65 2.7-6.6 7.2c-1.4 3-3.7 11-6.9 23.8-3.7 14.8-8.7 38.2-15 70.3-2.2 12.5-4.5 23.5-6.9 33.1-5.8 22.9-12.4 37.7-19.8 44.3-7.5 6.5-18.7 8-33.8 4.6l-1.7-.4c-12.5-3.2-22.7-8.3-30.3-15.3-7.7-7-14.5-17.5-20.3-31.4-5.6-13.6-8.1-24.3-7.6-32.2.5-7.8 5.1-29.5 13.7-65.1l15.3-62.8-3.5-7c-2.9-4.8-6.6-7.8-11.3-8.9-5.2-1.3-10.1-.2-14.7 3.2l-6 4.7-22.7 99.7c-5.1 21.3-12.3 51.6-21.7 90.8s-14.8 61.8-16.3 67.8l-14.8 59zm367.6-34.3c-8.3 1.8-17.6 1.3-28-1.5l-5.2-1.7c-7.5-2.4-13.3-5.5-17.3-9.1-3.9-3.7-8-9.6-12.2-17.8-6.7-13.1-9.3-27.6-7.7-43.3.6-6.4 1.1-10.2 1.5-11.5.5-1.7 1.5-2.8 2.9-3.5 7.6-3.2 22.8-1.8 45.8 4.1 4.1 1.1 8.7 2.4 13.8 4.1 6.4 2 12.4 5.9 18 11.6 5.3 5.3 9.7 12.2 13 20.6 3.3 8.5 4.6 15.7 3.9 21.7 0 .9-.3 2.2-.8 3.8-3.7 11.5-13 19-27.7 22.5m-67.1 21.8c4.8 3.6 12.1 7 22 10.2 14 4.6 26.8 6.6 38.4 6.3 9.3-.3 19.1-2.9 29.6-7.8s18.9-10.8 25.4-17.9c6.6-7.7 11.2-15.5 13.8-23.5 5.2-15.8 3.4-33.6-5.4-53.3-11.3-25.3-30-42.1-55.9-50.6-.9-.2-2.3-.6-4.3-1.1-2.1-.6-3.7-1-4.7-1.3-13.1-3.4-24.7-5.4-34.5-5.9-4.5 0-8.7-.6-12.7-1.9l-1.3-.4c-.2-1 1.7-4.9 5.9-11.9 4.2-6.9 8.5-13.2 13-18.8 4.1-5.2 9.6-9.9 16.7-13.9 7.1-4.1 13.9-6.6 20.4-7.4 7.4-.9 14.2-.3 20.3 1.7 17.2 5.5 28.1 17.1 32.8 34.6q3.6 12.3 6.3 16.2c2.2 3.1 4.9 5.2 8.2 6.2 4.2 1.4 8.6 1.1 13-1.1 4.4-2.1 7.3-5.4 8.8-10 1.9-5.9 1.3-13.9-1.8-24.1q-4.5-15.3-13.5-26.1c-12.6-15.1-25.4-24.7-38.5-29-.8-.2-2-.5-3.5-.9-1.6-.3-2.8-.7-3.9-1q-30.3-8.1-60 5.4c-13.9 6.4-26.7 17.4-38.4 32.9-11.6 15.4-20.7 33.2-27.2 53.3-2.7 8-4.9 17.2-6.8 27.6-4.1 23.5-2.8 45.2 3.8 65.1 6.5 19.9 17.9 36.1 34 48.4m-2638.9 42.2 34.2-65.2z" style="fill:#100f0d;fill-opacity:1;fill-rule:nonzero;stroke:none" transform="matrix(.0179 0 0 -.0179 -102.696 420.872)"/><path d="m10267.6 16508.4 27.4-68.7c2.7-6.7-.6-14.2-7.2-16.9-5.8-2.3-12.3-.1-15.6 4.9l-41 61.6c-6.3 9.5-3.7 22.4 5.8 28.7s22.3 3.7 28.7-5.8c.7-1.2 1.4-2.5 1.9-3.8" style="fill:#231f20;fill-opacity:1;fill-rule:nonzero;stroke:none" transform="matrix(.0179 0 0 -.0179 -102.696 420.872)"/><path d="M10529 15290.9s42.4 24.3 109.2 54.7c22.3 10.1-2.2 40.1 16.4 53.2 15.9 6.4 90.4-8.9 107.6-2.7 12.8 4.7-18.6 39.7-10.6 50.8 18.3 6.1 87-25.4 106.1-20 28.7 8-4.4 51.3 6.2 66.4 20.5 4 122.8-38.1 143.4-35.6 18.1 2.2 12.4 37.1 17.1 61.6 21.6 1 80.1-56 101.2-57.3 37.7-2.3 52.1 6.8 78.2 27.9 14.1-4.7 58.4-57.8 71.9-63.7 19.2-8.4 55.3 5.7 73.1-4.8 19.5-11.6 80.6-72.1 96.8-87.2 14.3-13.5 101.4-125.4 109.7-137.5 13.2-19.4 99.6-195.1 99.6-195.1s-25.3-19-64-30.5c-21.2-6.2-130-46-154.8-51.5-21.5-4.8-109.8-15-132.7-18.1-25.8-3.5-148.8-21.4-171.8-20.9-17.5 8.4-22.1 32-47 36.2-22.6 3.9-76.4-19.6-95.6-12-8.4 14-.8 43.3-18.1 52.1-20.8 10.6-70.9-21.5-92.4-8.5-8.6 12.9 3.4 59.9-9.3 68.3-17.4 11.4-63.4-3.3-80.6 8.9-5.2 14.7 4 44.4-8.1 53.4-15.5 11.6-75.7-6.7-84.9 10-8.2 15.1 11.9 46.6-1.2 57.2-16.3 13.3-64.8 3.9-79.3 16.3-3.1 22 1.9 48.8-11.5 60.6-45.8 40.2-74.6 67.8-74.6 67.8" style="fill:#307956;fill-opacity:1;fill-rule:nonzero;stroke:none" transform="matrix(.0179 0 0 -.0179 -102.696 420.872)"/><path d="M11078.9 14937.8c3.2 0 6.3-.2 9.2-.7 22.1-3.8 33.6-17.6 41.9-27.6 2.7-3.3 5.1-6.2 7.4-8.2 26.9 1.5 112.1 13.4 145.7 18.1l17.5 2.4c6.1.9 16.6 2.2 29.3 3.8 32.5 4 86.8 10.8 101.7 14.1 14.4 3.2 64.8 20.7 101.5 33.5 24.4 8.5 43.7 15.2 52 17.6 18.1 5.4 33.1 12.7 43.2 18.3-33.4 67.8-81.6 163.8-90 176-8.9 12.9-94.3 122.4-106.8 134.1-3.2 2.9-8.1 7.7-14.1 13.4-19.6 18.9-65.4 63-79.1 71.1-3.6 2.1-17.4.9-25.6.2-15.4-1.3-31.3-2.7-45.3 3.4-9.4 4.2-20.6 15.2-39.6 34.2-6.6 6.7-16.1 16.4-23.3 22.8-21.8-16.1-42-25.1-80.2-22.9-15.2 1-32.1 12.6-58.5 31.5-6.6 4.7-15.5 11.1-23.5 16.3-1.4-21-5.1-48.6-32.5-51.9-13-1.7-33.5 4.3-77.1 18.1-14.2 4.5-32.9 10.4-47 14.1 4.1-15.1 13.5-52.4-22.4-62.4-14.4-4-33.8 1.2-64.2 10.1-5.5 1.7-12.5 3.7-19.3 5.6 4.8-10.5 8.5-21.2 4.2-31.9-2.7-6.6-8-11.6-14.8-14.1-12.3-4.5-32.1-2.8-63.2.3-12 1.2-28.7 2.8-38.3 2.8.1-1.8.3-4 .4-5.6 1.2-11.7 3.6-36.1-21.4-47.5-35.4-16.1-64-30.5-82.7-40.4 12.8-11.8 31-28.4 53.2-47.8 16.1-14.2 16.7-35.9 17.2-54.9 0-2.4.1-4.7.2-6.9 5.8-.8 14.1-1.2 19.8-1.5 19.4-1.1 39.5-2.2 53-13.1 16.8-13.7 12.1-35.4 9-49.7-.6-2.9-1.5-7-2-10.2 6.7-.5 17.4.1 24.5.6 21 1.2 40.8 2.4 53.9-7.4 15.8-11.8 15.2-31.8 14.8-47.8-.1-2-.2-4.3-.2-6.6 6.3-.4 15.1.1 21.2.3 18.5.9 37.7 1.8 51.9-7.5 16.5-10.9 15.9-32.9 15.4-54.2-.1-3.9-.3-9.3-.2-13.8 7.5 1 18.7 4.2 25.6 6.2 20.5 5.8 41.7 11.9 58.9 3.1 20.5-10.3 22.8-32.2 24.3-46.7.1-1.3.3-2.8.5-4.3 8.6 1.1 21.1 4.1 29.6 6.1 16 3.9 31.3 7.5 44.3 7.5m53.4-77.8h-1.1l-4.5.1-4 1.9c-11.3 5.5-18.5 14.2-24.3 21.2-6.8 8.2-10.4 12.2-17.2 13.3-6.4 1.2-24.1-3.1-37-6.2-25-5.9-46.4-11-62.8-4.6l-6.4 2.6-3.6 5.9c-5.7 9.5-6.8 20.4-7.8 30-.5 4.4-1.2 11.5-2.4 14.3-5.6.6-19.8-3.5-28.6-6-22.6-6.4-46-13.1-64.8-1.7l-3.9 2.4-2.6 3.9c-7.4 11.2-7 27-6.6 43.6.2 5.7.4 14.4-.1 19.6-6 .9-17 .4-24.1 0-19.4-.8-39.4-1.7-53.9 8.6l-5.3 3.8-2.1 6.1c-3.4 9.5-3.1 20-2.8 30.1.2 3.8.3 9.6 0 13.4-6.3.6-17.7-.1-25.1-.5-25.8-1.6-52.5-3.2-63.8 17.3-7.5 13.8-4 29.5-1.3 42.1.7 3.1 1.6 7.2 2 10.3-6.3 1.6-18.3 2.3-26 2.7-19.5 1-38 2-50.4 12.6l-6.1 5.1-1 7.8c-1.1 7.8-1.3 15.5-1.5 22.9s-.6 22.6-3.2 25.1c-45.6 40-74.9 68-75.2 68.3l-19.8 19 23.8 13.7c1.8 1 43.1 24.7 108.9 54.7 0 2-.3 4.8-.5 6.8-1.1 11.3-3.2 32.2 15.6 45.5l4.2 2.2c12 4.8 30.8 3.3 63 .1 7.8-.8 18.4-1.8 27.5-2.4-6.4 13.6-12.5 29.5-2.7 43.3l3.9 5.5 6.4 2.1c14.6 4.8 34.5-.6 65.6-9.8 11.3-3.3 29-8.5 38.1-9.7-.7 3.9-2.1 9.1-3.1 12.6-4 14.7-8.5 31.5 1.3 45.5l4.8 6.8 8.2 1.6c14.3 2.8 36.9-3.6 85.1-18.9 17.5-5.6 42.6-13.5 54.8-15.8.9 5 1.3 12.5 1.6 18 .5 8.7 1 17.7 2.6 26.3l3.1 16 16.2.7c17.3 1 36.6-12.2 66.4-33.5 11.7-8.4 31.4-22.5 37.7-23.9 30.5-1.8 40.1 4.6 63.4 23.5l8.7 7 10.7-3.5c11-3.6 22.7-14.6 46.7-38.9 9.2-9.2 23.1-23.2 27.5-25.8 3.8-1.6 15.9-.6 24.7.2 16.4 1.4 35.1 3 50.1-5.8 16.4-9.7 51.8-43.3 86.6-76.8 5.9-5.6 10.6-10.2 13.7-13.1 16.8-15.7 106-131.2 112.7-140.9 13.7-20 92.2-179.5 101.1-197.6l7.5-15.3-13.6-10.2c-1.1-.9-28.7-21.4-70.5-33.8-7.4-2.2-28.2-9.4-50.2-17.1-50.6-17.6-90.5-31.4-106.1-34.8-15.5-3.4-58.8-8.9-105.5-14.8-12.5-1.5-22.9-2.8-28.9-3.6l-17.3-2.4c-69.5-9.7-136.4-18.7-156.5-18.7" style="fill:#231f20;fill-opacity:1;fill-rule:nonzero;stroke:none" transform="matrix(.0179 0 0 -.0179 -102.696 420.872)"/><path d="M11634.3 14975.6c-3.7 2.1-371.7 206.8-546 224.2-179 18-545.7 72.6-549.4 73.1l6.1 40.7c3.6-.6 369.4-55 547.5-72.8 182.7-18.3 546.5-220.7 561.9-229.3z" style="fill:#231f20;fill-opacity:1;fill-rule:nonzero;stroke:none" transform="matrix(.0179 0 0 -.0179 -102.696 420.872)"/><path d="M11293.4 15159.6s-209.3 39.1-317.6-100.1z" style="fill:#307956;fill-opacity:1;fill-rule:nonzero;stroke:none" transform="matrix(.0179 0 0 -.0179 -102.696 420.872)"/><path d="M10975.8 15038.9c-4.4 0-8.9 1.5-12.6 4.4-9 6.9-10.6 19.9-3.6 28.8 114.6 147.4 328.6 109.4 337.6 107.7 11.2-2.1 18.5-12.9 16.4-24-2-11.2-12.8-18.6-23.9-16.5-2 .4-198.5 35-297.7-92.4-4-5.2-10.1-8-16.2-8m143.6 159.3c-3.1 0-6.3.7-9.2 2.2-6.3 3.1-153.3 78.6-141.9 210.4 1 11.4 11.1 19.7 22.2 18.8 11.4-1 19.7-11 18.8-22.3-9.1-104.4 118.1-169.5 119.3-170.1 10.2-5.1 14.3-17.5 9.2-27.7-3.6-7.1-10.9-11.3-18.4-11.3m-341.1-75.2c-4.5 0-9.1 1.5-12.9 4.5-8.8 7.2-10.2 20.1-3.1 29 77 95.5 223.3 95.1 229.6 95.2 11.4-.2 20.5-9.5 20.4-20.8s-9.3-20.4-20.6-20.4h-.2c-4.1 0-133.5-.8-197.2-79.8-4-5.1-10-7.7-16-7.7" style="fill:#231f20;fill-opacity:1;fill-rule:nonzero;stroke:none" transform="matrix(.0179 0 0 -.0179 -102.696 420.872)"/><path d="M11401.6 15121.1s-63 50.9-91.7 153.5z" style="fill:#307956;fill-opacity:1;fill-rule:nonzero;stroke:none" transform="matrix(.0179 0 0 -.0179 -102.696 420.872)"/><path d="M11401.5 15100.6c-4.5 0-9 1.5-12.8 4.5-2.8 2.3-68.5 56.3-98.6 163.9-3.1 11 3.3 22.3 14.2 25.4 11 3 22.3-3.3 25.4-14.3 26.4-94.3 84.3-142.5 84.9-143 8.7-7.2 10.1-20.1 2.9-28.9-4-5-10-7.6-16-7.6" style="fill:#231f20;fill-opacity:1;fill-rule:nonzero;stroke:none" transform="matrix(.0179 0 0 -.0179 -102.696 420.872)"/><path d="M12212.5 14834.7s-37.4-22.6-95.4-50.1c-19.3-9.1-3.1-40.8-19.8-53.2-13.7-5.7-72.3 13.5-87 8.1-10.9-4 10.2-41.3 2.4-52.1-15.6-5.2-67.5 30.2-83.7 25.7-24.2-6.8-2.7-52.4-13.1-67.2-17.2-3-95 44.9-112.1 43.4-14.9-1.3-14.6-37.1-21.4-61.7-17.6 0-58.1 60.9-75.1 63.3-30.3 4.2-43.2-4.4-67-24.5-10.9 5.5-40.3 61.7-50.5 68.4-14.5 9.4-45.6-3.1-58.7 8.5-14.4 12.7-56.7 77.2-67.9 93.4-10 14.4-67 132.4-72.2 145.2-8.4 20.3-57 203.1-57 203.1s22.8 18 55.7 27.7c17.9 5.3 111.2 40.3 132 44.6 18 3.8 90.9 9.7 109.9 11.7 21.3 2.3 123.4 14.2 142 12.7 13.2-9.5 14-33.6 33.7-39.2 17.9-5.1 64.4 16.1 79.1 7.3 5.1-14.5-4.7-44 8.3-53.7 15.6-11.8 60.2 18.3 76.1 3.9 5.3-13.5-10.2-60.6-.8-69.8 12.7-12.4 51.8.2 64.3-13.1 2.4-15.1-8.7-44.8 0-54.6 11.2-12.5 62.3 3.1 67.7-14.4 4.8-15.7-15.4-46.7-6.1-58.2 11.6-14.3 52.2-7.2 62.5-20.5-.3-22.5-7.6-49.4 1.9-62.1 32.2-43.2 52.2-72.6 52.2-72.6" style="fill:#307956;fill-opacity:1;fill-rule:nonzero;stroke:none" transform="matrix(.0179 0 0 -.0179 -102.696 420.872)"/><path d="M11693.4 14712.5c5.1 0 10.7-.4 16.7-1.3 14.7-2 27-14.6 47.6-36.8 3.1-3.2 6.8-7.3 10.6-11.2 3.9 21.5 10.4 44.5 33.7 46.6 12.6 1 28.4-5.8 64.1-23 8.9-4.3 21.2-10.2 31.4-14.6v.6c-1.8 18-5 51.5 26 60.1 14.4 4 30.5-2.7 55.6-14 3-1.3 6.7-3 10.4-4.6-3.6 14.7-7.2 36.8 13.7 44.5 12 4.5 28.7 1.7 54.8-3.2 7.9-1.5 19.7-3.7 27.3-4.5.1 2.4.3 5.5.3 7.7.6 12.9 1.5 34.3 22.7 44.4 32.3 15.3 58.2 29.2 74.4 38.2-8.9 12.7-22.3 31.4-38.9 53.6-11.4 15.2-9.4 35.6-7.4 55.4.2 2.3.5 4.5.7 6.7-3.8.7-8.2 1.3-11.5 1.7-16.2 2.1-34.6 4.5-45.6 18.2-11.8 14.5-6.2 33.5-1.7 48.7.9 3 2.1 7.2 3 10.7-4.6.3-10.3.2-14.4.1-17.9-.2-36.6-.4-47.9 12.3-11.6 13-8.9 31.7-6.6 48.2.3 1.9.6 4 .9 6.1-3.9.3-8.5.3-11.8.3-15.8.1-33.7.2-45.9 12.1-12.6 12.3-9.7 32.1-6.5 55 .5 3.4 1.1 7.8 1.6 11.9-4.7-1-10.2-2.5-14.2-3.7-18.1-5.1-38.5-10.9-54.2.9-16.4 12.4-15.6 33.5-15.1 48.9l.1 2c-5.9-1-12.9-2.6-17.9-3.8-17.6-4-34.3-7.8-47.7-4-20.1 5.7-28.5 21.9-34.1 32.6-.9 1.7-2.1 4-3.2 5.9-24.9-.9-92-8.4-116-11l-14.6-1.6c-5-.5-13.7-1.3-24.2-2.3-26.7-2.5-71.5-6.6-83.7-9.1-11.7-2.5-56.2-18.3-85.6-28.7-21-7.5-37.6-13.4-44.8-15.5-15.8-4.7-29.2-11.6-37.9-16.9 18.9-70.7 47-173.4 52.4-186.4 5.6-13.6 61.4-128.9 70.1-141.2 2.2-3.2 5.6-8.3 9.8-14.5 13.5-20 45.1-66.8 54.8-75.3 1.7-.4 10.5-.1 15.8.2 13.2.6 28.1 1.2 40.6-6.9 8.1-5.3 15.6-16.7 29.4-38.1 3.4-5.5 8.2-12.9 12.4-19.1 15 11 29.6 17.7 50.5 17.7m104.7-105.5h-15.7c-17.3.1-32.1 15-54.8 39.4-7.4 8-19.6 21.1-24.8 24.3-20.3 2.5-27.3-1.5-49.2-20l-10.3-8.7-12.1 6c-9.9 4.9-18 16.5-35.4 43.7-5.6 8.7-13.9 21.7-17.7 26-2.8.7-10.8.3-15.8.1-14.1-.7-31.8-1.5-44.8 10.1-12.6 11-36.3 45.6-61.7 83-4 6-7.3 10.9-9.5 14.1-11.7 16.8-69.1 136.2-74.4 149-8.6 21-52.8 186.8-57.8 205.7l-3.5 13 10.6 8.4c1.1.9 26.4 20.7 62.6 31.4 6.2 1.8 24 8.1 42.7 14.8 43.4 15.4 77.6 27.4 91 30.2 13.4 2.7 49.4 6.2 88.4 9.8 10.2.9 18.7 1.7 23.6 2.2l14.4 1.6c68.2 7.5 116.5 12.3 131.4 11.1l5.7-.5 4.6-3.3c9.4-6.8 14.4-16.4 18.4-24.1 4-7.6 6.2-11.2 8.9-12 4.2-.8 18.7 2.6 27.3 4.5 21.5 5 41.8 9.6 56.7.7l6.4-3.8 2.5-7.1c3.3-9.4 2.9-19.6 2.6-29.6-.2-3.7-.4-9.1-.1-12.9 4.9.8 12.2 2.8 17 4.2 19 5.4 42.6 12 59.3-3l3.5-3.2 1.8-4.5c4.4-11.2 2.4-25.9-.1-42.9-.8-5.6-1.9-13.9-2.3-19.7 4.3-.4 10.2-.4 14.2-.4 16.5-.1 35.2-.2 47.6-13.4l4.3-4.6 1-6.3c1.4-9.1 0-19.3-1.4-29.2-.6-3.7-1.4-9.1-1.6-13.3 4.5-.3 10.6-.2 14.8-.1 20.2.3 47.8.6 55.3-23.6 4-13.2-.2-27.5-4-40.1-.9-3.3-2.3-8-3.1-11.6 4.5-1.2 11.6-2.2 16.4-2.8 15.6-2 33.4-4.3 43.6-17.5l4.4-5.7-.1-7.2c0-7.7-.8-15.4-1.6-22.9-.8-8.7-2.3-23.1-.4-27 32-42.7 51.8-71.8 52.6-73l12.2-18-18.6-11.2c-1.5-.9-38.2-23-95.6-50.3-.4-2.3-.6-6.6-.7-9.7-.5-12.1-1.3-30.4-17.3-42.3l-2-1.5-2.4-1c-11.9-4.9-27.7-2.2-54.7 2.8-5.5 1.1-12.9 2.5-19.5 3.5 3.8-14.5 7.6-30.5-1.4-43.2l-3.9-5.4-6.4-2.1c-15.5-5.2-33.8 3.1-57 13.5-7.1 3.2-17.8 8-24.7 10.3-.1-4.5.5-10.7.9-15 1.5-14.9 2.9-30.4-5.7-42.7l-4.9-6.9-8.4-1.5c-14-2.4-31.5 5.1-71.1 24.1-11.5 5.6-27.4 13.3-37.2 17-1.4-5.5-2.7-13-3.6-18.6-1.4-8.7-2.9-17.6-5.2-26z" style="fill:#231f20;fill-opacity:1;fill-rule:nonzero;stroke:none" transform="matrix(.0179 0 0 -.0179 -102.696 420.872)"/><path d="M12196.6 14813c-2.9.7-292.9 74.3-435 101.3-147.9 28.2-419.7 253-431.2 262.5l26.3 31.7c2.7-2.3 275.1-227.6 412.6-253.8 143.3-27.2 434.6-101.1 437.5-101.8z" style="fill:#231f20;fill-opacity:1;fill-rule:nonzero;stroke:none" transform="matrix(.0179 0 0 -.0179 -102.696 420.872)"/><path d="M11608.1 15006.4s165.1-50.2 270.1 85.7z" style="fill:#307956;fill-opacity:1;fill-rule:nonzero;stroke:none" transform="matrix(.0179 0 0 -.0179 -102.696 420.872)"/><path d="M11679.6 14977.2c-45 0-76.8 9.3-77.5 9.6-10.9 3.3-17 14.8-13.7 25.6 3.3 10.9 14.8 17.1 25.6 13.7 6.2-1.8 153.2-44.1 247.9 78.6 6.9 9 19.8 10.6 28.8 3.7 9-7 10.7-19.9 3.7-28.9-65.2-84.4-152.6-102.3-214.8-102.3m145.2-260.1c-1.2 0-2.5.2-3.8.4-11.2 2.1-18.5 12.9-16.4 24.1 20.4 107-73.9 178.8-74.8 179.5-9.1 6.8-11 19.7-4.2 28.8s19.7 10.9 28.8 4.1c4.7-3.5 115.8-88.2 90.6-220.1-1.9-9.9-10.5-16.8-20.2-16.8m28.4 180.7c-6 0-9.7.3-10.5.3-11.3.9-19.8 10.7-19 22.1.8 11.3 10.8 19.7 22 19 1.4-.2 105.3-6.3 166.4 70.4 7.1 8.9 20 10.4 28.9 3.3s10.3-20 3.3-28.9c-63.1-79.2-159.2-86.2-191.1-86.2" style="fill:#231f20;fill-opacity:1;fill-rule:nonzero;stroke:none" transform="matrix(.0179 0 0 -.0179 -102.696 420.872)"/><path d="M11525 15050.9s44.9-54.8 55.6-160.5z" style="fill:#307956;fill-opacity:1;fill-rule:nonzero;stroke:none" transform="matrix(.0179 0 0 -.0179 -102.696 420.872)"/><path d="M11580.6 14869.9c-10.4 0-19.3 7.9-20.4 18.5-9.9 97.3-50.8 149-51.2 149.5-7.1 8.9-5.7 21.8 3.1 28.9 8.8 7.2 21.6 5.9 28.8-2.9 2-2.4 48.9-60.9 60.2-171.4 1.1-11.3-7.1-21.4-18.4-22.5z" style="fill:#231f20;fill-opacity:1;fill-rule:nonzero;stroke:none" transform="matrix(.0179 0 0 -.0179 -102.696 420.872)"/><path d="M10928.7 14491.6c-3.5 15.6-6.2 31.5-8.7 47.3-1.8 11.3-.4 34.7-7.6 43.6-5.8 7.1-16.8 6.2-24.6 10-18.8 9.5.3 33.2 7.2 46.6 6.7 13 23 34.7-.1 34.9-5.3.1-22.6-3.8-26.5 1.1-4.1 5.1 4 14.1 7.4 18.7 8.7 11.8 32.2 30.4 32.5 45.9.3 19.5-30.9 12.2-42.2 17.8-7.7 3.7-6.2 5.8-1.9 12.8 4.7 7.8 11.2 14.8 17.1 21.8 12.3 14.5 28.6 28.9 37.7 45.6 12.6 22.8-24.1 21.2-34.6 31.9-4.7 4.8-4.2 1.6-.6 7.3 2 3.1 6.8 5.7 9.7 7.8 8.8 6.1 18.3 11.2 27.6 16.6 19.9 11.8 34.8 22 34.5 47.6-.1 9.7-10.3 26.9-5.5 33.2 4.2 5.5 19.6 8.9 25.7 11.2 17.8 6.8 37.2 9.9 44.6 29.2 3.7 9.7 4.2 22.4 11.8 30.4 5.4 5.7 14.2 8.8 21.1 12 20.2 9.4 41 17.5 61.7 25.9 31.2 12.6 64.7 19.6 97.1 27.8 25.2 6.4 48.7 11.6 74.4 13.7 37.8 3.1 75.5 5.5 113.3 7.8 5 .4 22.7 4.5 27 1.7 3.3-2.1 4.3-15.4 4.9-18.9 2.1-11.9 2.1-23.8 2.1-36 0-36.2 4.6-73.8 0-110-4.5-35.3-15.3-70.3-22.7-105.2-4.4-21-8.9-42-13.8-63-3.7-16.2-3.7-35.9-21.1-42.3-11.4-4.2-22.8-5.5-28.9-17.6-4.6-9.1-4.4-21.4-5.4-31.1-.7-7.1-.4-23.8-6.5-29.3-7-6.2-22.2 2.3-30.6 2.9-25.9 2.1-20.9-26.4-22.9-43.8-.9-7.5-2.1-19-10.8-21-7.7-1.8-20.5 5.9-27.3 8.3-6.5 2.3-16.9 7.5-24.1 3.9-7.9-4.1-10.6-17.6-13.1-25-2.3-6.5-5.7-22.1-13.7-24.7-8.8-2.9-23.4 8.8-32.2 9.7-20.3 2-21-25.2-26.9-39.3-11.3-26.7-27.4-3.4-45.4.6-21.5 4.8-25-28.3-35.1-40.8-8.7-10.8-21.6-1.1-32.7 1.8-16.3 4.3-25.6-.7-41-7.6-16.9-7.5-33.8-14.8-50.9-21.8" style="fill:#47b173;fill-opacity:1;fill-rule:nonzero;stroke:none" transform="matrix(.0179 0 0 -.0179 -102.696 420.872)"/><path d="M10902.1 14609.6c7.2-1.7 18.2-4.2 26.3-14.2 9.3-11.4 10.3-28.2 11.1-43 .2-3.9.4-7.5.8-10.3 1.3-8 2.5-15.2 3.7-21.8 10 4.3 19.4 8.4 27.3 11.9l3 1.4c15.1 6.7 29.4 13.1 51.5 7.3 3.5-.9 7.1-2.3 10.8-3.7.8-.3 1.9-.8 2.9-1.1 1.1 2.2 2.2 4.9 3.2 7.1 6 14.3 18.6 44 50.2 36.9 8.3-1.8 15.5-5.9 21.2-9.1l1.7-.9c.6 1.9 1.2 4.3 1.8 6.6 3.7 13.7 12.3 45.8 45.1 42.5 7.1-.7 13.5-3.7 19.6-6.6l2-1c.6 1.7 1.1 3.3 1.4 4.3.5 1.7 1 3.3 1.4 4.5s.8 2.4 1.2 3.8c2.9 9.5 7.8 25.4 22.1 32.7 14.2 7.3 28.8 1.7 37.5-1.7l2.7-1c2.3-.8 5.1-2.1 8.2-3.4.7-.4 1.6-.8 2.6-1.2.4 3.3.5 6.3.6 9.5.5 13.4 1.2 31.9 14.5 43.8 5.4 4.7 14.9 10.2 30 8.9 4.8-.3 9.4-1.7 13.9-3.1h.2c.2 2 .3 4.1.4 5.4.2 2.2.3 4.1.5 5.7.2 2 .3 4.1.5 6.2.6 9.5 1.5 21.3 6.9 32 8.8 17.6 24.4 22.5 34.7 25.8 1.8.6 3.6 1.2 5.5 1.9 2.7 1 4.1 6.2 6.2 17.5.6 3.5 1.2 6.9 2 10.2 4.8 20.8 9.2 41.6 13.7 62.5 2.6 12.4 5.6 24.8 8.7 37.3 5.6 22.9 10.9 44.5 13.7 66.3 2.9 22.3 1.9 45.3.9 69.6-.5 12.4-1.1 25.2-1 37.9 0 10.8 0 22-1.8 32.3l-.3 1.7-1.7-.3c-3.6-.5-6.6-1-8.4-1.1-37.2-2.3-75.4-4.8-112.9-7.8-23.5-1.9-45.4-6.6-71-13.1-6-1.5-12.1-3-18.1-4.5-25.7-6.3-52.3-12.8-76.4-22.5l-10.4-4.2c-16.7-6.7-34-13.7-50.4-21.3l-4.3-1.9c-3.4-1.5-8.9-3.9-10.5-5.5-1.4-1.6-2.8-7.1-3.8-11.2-1-3.8-2-8.2-3.7-12.5-9.5-24.9-31.6-32.4-47.7-37.9-2.9-1-5.9-2-8.8-3.1-1.8-.7-4.3-1.5-7.2-2.4-1.1-.3-2.7-.8-4.4-1.4l.3-.8c2.1-6.5 4.3-13.3 4.4-20.3.5-39-26.7-55-44.7-65.6l-7.6-4.4c-1.5-.9-3-1.7-4.5-2.5 8.5-3.8 16.7-9.5 20.7-19.7 2.5-6.3 4-16.5-3-29.2-7.6-13.9-18.8-25.8-28.7-36.4-3.9-4.3-7.9-8.4-11.4-12.6l-3.2-3.7-.7-.8c14.7-2.2 36.2-9.2 35.8-34.9-.3-17.8-13.8-33.1-25.5-45.6 11.3-2.1 17.3-8.4 20.4-13.7 9-15.8-.5-32.6-7.5-44.9-1.1-2-2.1-3.8-3-5.5-1.3-2.6-3.1-5.6-5-8.7-1.6-2.8-4.4-7.5-6.2-11.4m11.9-146.2-5.4 23.7c-3.1 14.1-5.9 29.1-8.9 48.6-.6 3.8-1 8.9-1.3 14.3-.3 5.2-.8 14.2-2 18.6-1.1.3-2.5.7-3.5.9-4.1.9-9.2 2.1-14.2 4.6-11.6 5.8-16.3 14.6-18.1 20.9-5.2 17.4 5 34.5 12.4 46.9 1.4 2.4 2.7 4.7 3.8 6.6.5 1.2 1.2 2.4 1.9 3.6-9.6 0-19.7 1.7-26.5 10.3-13.4 17 1.1 35.8 5.8 42l1.2 1.5c3.3 4.5 7.6 9.1 12.2 13.9 3.2 3.4 8.7 9.3 12.5 14.2-1.3.1-2.5.2-3.5.3-7.9.5-16 1.1-23.4 4.7-3.5 1.7-12.8 6.3-16 17.1-3.1 10.6 1.9 18.9 5.2 24.3 5.2 8.5 11.2 15.4 16.4 21.5l3 3.5c4 4.6 8.3 9.3 12.8 14.1 6.6 7.1 13.5 14.5 18.6 21.7l-2.4.9c-8.3 2.8-17.8 5.9-24.8 13.1l-1 .8c-4.9 4.1-7.7 9.1-8.3 14.9-.5 5.8 1.2 11.3 5.3 16.2l.7.9c3.9 6.2 9.8 10 13.6 12.5l1.6 1c7.2 5.1 14.6 9.3 21.8 13.4l7.2 4.2c20.4 12 24.5 17 24.4 29.6-.2 1.1-1.5 5.2-2.4 7.9-3.5 10.8-8.4 25.6 1 37.9 7.1 9.5 19.9 13.4 30.1 16.5 1.8.6 3.4 1.1 4.6 1.5 3.4 1.3 6.8 2.5 10.2 3.7 14.2 4.8 20.2 7.4 22.6 13.6.9 2.4 1.5 5.1 2.2 7.8 2.1 8.5 5 20.1 13.9 29.5 7.2 7.6 16.3 11.6 23.7 14.8l3.6 1.6c17.4 8.1 35.2 15.3 52.4 22.2l10.3 4.1c26.9 10.9 54.9 17.7 82 24.4 6 1.4 11.9 2.9 17.8 4.4 27.6 6.9 51.4 12 77.8 14.2 37.8 3.1 76.2 5.5 113.4 7.9 1.2.1 2.8.3 4.7.6 15.2 2.5 25.9 3.7 35-2.2 10.6-7 12.3-20.1 13.7-30.6l.3-2c2.4-13.9 2.4-27.6 2.4-39.6 0-11.8.5-23.6 1-36.1 1-24.9 2.1-50.7-1.2-76.5-3-24.1-8.9-47.9-14.6-71-2.9-12-5.9-23.9-8.4-35.9-4.5-21.1-8.9-42.2-13.8-63.3-.6-2.7-1.1-5.5-1.7-8.2-2.8-15.8-7.2-39.6-32.4-48.8q-3.6-1.35-7.2-2.4c-8.3-2.7-9.6-3.5-10.4-5.1-1.8-3.5-2.3-10.4-2.7-16.6q-.3-3.9-.6-7.5-.15-1.65-.3-3.9c-.7-12-1.7-28.5-13-38.5-13.4-11.9-30.4-6.8-40.6-3.8-1.6.5-3.1 1-4.4 1.4-.7-3.6-.9-9.3-1-13.1-.2-4.5-.4-8.7-.8-12.6-1.1-9.5-4-33.3-26.5-38.6-12.5-2.9-25 2.8-34.1 6.9q-2.7 1.35-4.8 2.1c-1.1.4-2.4.9-3.8 1.5-1 .3-2.2.8-3.5 1.3-.7-2.1-1.5-4.4-1.9-6-.6-1.9-1.2-3.7-1.7-5.3-.3-.8-.6-1.9-1-3-3.3-10.9-8.8-29-25.7-34.5-13-4.2-25.4 1.7-34.5 6-1.2.5-2.7 1.2-4 1.8-1.3-3.1-2.6-8-3.5-11.3-1.3-4.8-2.6-9.8-4.6-14.4-5.1-12.3-12.7-20.3-22.4-23.6-14.5-5-27.2 2.1-36.3 7.3-2.6 1.4-5.5 3-7.7 4-1.9-3.1-4.3-8.5-5.8-12.1-3.1-7.2-6.3-14.7-11.3-20.9-16-19.8-38.3-11-47.7-7.3-2.1.9-4.1 1.7-6.1 2.2-7.9 2.1-11.3.8-24.3-5l-3.1-1.5c-14-6.2-32.5-14.3-51.5-22z" style="fill:#231f20;fill-opacity:1;fill-rule:nonzero;stroke:none" transform="matrix(.0179 0 0 -.0179 -102.696 420.872)"/><path d="m10950.3 14496.6-40.4 8c.5 2.5 12.8 62.9 50.3 127.1 20.8 35.6 47.6 72.7 73.6 108.6 27.7 38.3 53.9 74.4 69.7 104.5 60.1 114.7 304.2 296.9 314.6 304.6l24.5-33.1c-2.4-1.8-246.9-184.2-302.7-290.6-17.2-32.7-44.2-70-72.8-109.5-25.4-35.1-51.6-71.4-71.4-105.3-34-58.2-45.3-113.8-45.4-114.3" style="fill:#231f20;fill-opacity:1;fill-rule:nonzero;stroke:none" transform="matrix(.0179 0 0 -.0179 -102.696 420.872)"/><path d="M11214.1 14698.2c-6.3 0-12.6 3-16.6 8.5-85.2 116.8-.4 249.2 3.3 254.8 6.2 9.5 18.9 12.2 28.5 6 9.5-6.3 12.1-19 5.9-28.5-3-4.6-72.7-114.4-4.5-208.1 6.7-9.2 4.7-22-4.5-28.7-3.6-2.7-7.9-4-12.1-4m-205.4 89.6c-20.2 0-41.3 3.6-62.6 13-10.4 4.5-15.2 16.6-10.6 27 4.6 10.5 16.7 15.2 27.1 10.6 74.9-32.8 153.7 30.5 154.5 31.1 8.7 7.2 21.7 5.9 28.9-2.9s5.9-21.7-2.9-28.9c-3.1-2.6-62.1-49.9-134.4-49.9m93-194.8c-6.5 0-12.9 3-16.9 8.7-54.8 77.9-16.6 176.2-14.9 180.4 4.2 10.5 16.1 15.6 26.7 11.5 10.5-4.2 15.7-16.2 11.5-26.7-.3-.8-31.5-82 10.4-141.5 6.5-9.3 4.3-22.1-5-28.7-3.6-2.5-7.7-3.7-11.8-3.7" style="fill:#231f20;fill-opacity:1;fill-rule:nonzero;stroke:none" transform="matrix(.0179 0 0 -.0179 -102.696 420.872)"/><path d="M11273.9 15009.9s-54-27.2-138.3-18.6z" style="fill:#307956;fill-opacity:1;fill-rule:nonzero;stroke:none" transform="matrix(.0179 0 0 -.0179 -102.696 420.872)"/><path d="M11168.3 14969.1c-11 0-22.6.5-34.8 1.7-11.3 1.2-19.6 11.3-18.4 22.6s11.3 19.3 22.5 18.4c76.6-7.8 126.6 16.3 127.1 16.5 10.1 5 22.5.9 27.5-9.3 5.1-10.1 1-22.4-9.1-27.5-2.1-1-45.5-22.4-114.8-22.4m178.5-85.8c-3.1 0-6.3.7-9.2 2.2-10.2 5.1-14.3 17.4-9.2 27.6 12 23.7-.7 90.5-13.5 130.3-3.5 10.9 2.4 22.4 13.2 25.9 10.9 3.5 22.4-2.4 25.9-13.2 3.7-11.5 35.4-113.4 11.2-161.5-3.6-7.2-10.9-11.3-18.4-11.3" style="fill:#231f20;fill-opacity:1;fill-rule:nonzero;stroke:none" transform="matrix(.0179 0 0 -.0179 -102.696 420.872)"/><path d="M11604 15797.8c7-10 13.5-20.3 19.8-30.6 6-9.8 11.4-25.5 19.7-33.2 7-6.6 15.1-2 23.8-2.3 31.4-.9-7.2-71.7 18.4-68.2 10.5 1.5 29.2 20.3 26.5-.6-2-16-13.2-32.5-12.6-48.6.6-19 20.1-9.5 32.1-6.9 6.6 1.5 11.6 3.5 13.5-2.8 1.5-5.2-3.3-15.5-4.8-20.5-5.3-17.7-13.2-35.3-16.7-53.4-4.7-23.6 25-15.2 40.7-16.8 1.6-21-31.3-39.9-36.8-59.6-3.7-12.9 1.4-27.3 9-37.2 4.5-5.8 10.2-7.7 8.2-14.3-1.6-4.8-9.5-10.3-12.9-13.7-7.9-7.8-19.2-15.7-25.2-25.1-9-13.8 1.9-28.8-3-43.2-3.1-8.9-12.4-16.9-18.7-23.6-10.8-11.4-22-22.4-33.1-33.5-59.3-59.2-131-96.5-204.7-133.6-6-2.9-14.7-9.5-21.2-10.6-6.3-1-4.1-2.6-9.5 4.8-14.9 20.3-22.9 46.7-32.8 69.9-8.8 20.7-18.5 41-22.8 63.3-4.5 23.3-7.8 46.8-11.9 70.1-4.5 24.9-9.2 49.7-12.9 74.8-1.5 10.3-4.5 18.1 2.7 26.6 10 12 21 15.4 18.4 33.1-1.8 12.2-12.3 28.1-9.6 40.6 2.9 13.7 21 6.5 31 13.7 22.1 16-20.5 47.8 4.2 62.5 17.1 10.1 33.4 7.1 38.2 29.8 1.4 6.8.8 18.8 6.8 23.7 5.5 4.5 19.6 1.2 26.2 2.7 30.5 7.2-9.2 57.9 27.8 56.7 16.7-.6 27.6-5.1 31 15.2 1.1 7.1.2 14.3 1.3 21.4 1.8 11.5 2.8 12.9 14.4 14.2 8.5.9 18.1.5 25.8 4.7 9.1 4.9 16 15.5 23.1 22.9 8.8 9.3 17.6 18.6 26.6 27.6" style="fill:#47b173;fill-opacity:1;fill-rule:nonzero;stroke:none" transform="matrix(.0179 0 0 -.0179 -102.696 420.872)"/><path d="M11354.8 15416.1c.1-1.3.5-3.7.8-5.5.3-1.7.6-3.4.9-5.2 2.7-19 6.2-38.3 9.6-56.9l3.1-17.3c1.8-9.9 3.4-19.9 5-29.8 2.2-13.4 4.3-26.7 6.9-40 3.3-16.9 10.3-33.2 17.7-50.4l3.8-8.7c2.6-6.1 5-12.3 7.5-18.6 5.5-14.1 11.2-28.6 18.5-40.5l1.7 1c2.7 1.6 5.3 3.2 7.6 4.3 79.5 40.1 144.7 75 199.5 129.8l5 5c9.3 9.2 18.6 18.5 27.6 28 1.4 1.5 2.9 3 4.5 4.6 3.3 3.3 8.8 8.9 9.7 11.6.6 1.7 0 6-.5 9.8-1.4 9.5-3.4 23.8 5.7 37.9 5.7 8.9 13.7 15.8 20.8 22 2.6 2.3 5.1 4.4 7.3 6.6l2 1.8c-12.3 16.6-16.7 36.9-11.7 54.3 3.7 13.2 13.1 23.6 22.2 33.7l.5.6c-7.6 1.4-14.9 4.5-20.5 11-4.6 5.4-9.4 14.8-6.5 29.5 2.5 12.9 6.8 25 10.9 36.7 1.4 3.8 2.8 7.7 4.1 11.5-8.7-1.5-18.5-1.2-27.1 5-5.4 4-11.9 11.6-12.4 25.7-.3 10.6 2.5 20.4 5.6 29.3-10.2 0-17 4.7-20.2 7.9-11.5 11.6-8.9 28.6-6.5 45.2.6 4 1.4 9.7 1.8 14.3-7.7-.9-19.6-1.3-30.3 8.7-8.2 7.7-13.4 18.3-18 27.7-1.8 3.5-3.4 6.9-5.1 9.7q-2.85 4.65-5.4 8.7c-2.9-3-5.7-6-8.6-9-1.7-1.8-3.5-3.9-5.2-6-5.8-7-13.1-15.6-23.1-20.9-9.8-5.3-19.9-6-28-6.6l-1.9-.2c0-1.5-.1-3.1-.1-4.9 0-4.1-.1-8.8-.9-13.8-5.9-35.8-33.7-33.7-45.5-32.8l-1.9.1c.1-1.3.3-2.6.4-3.8 1.4-12.1 5-44.5-27.4-52.1-5.2-1.2-10.3-1-15.3-.9l-.9.1-.2-1.6c-.3-3-.7-5.8-1.2-8.2-5.7-27.1-24.1-33.8-36.3-38.3-3-1.1-5.9-2.2-8.6-3.5.7-2.3 1.9-5.2 2.8-7.4 4.7-11.5 15.6-38.3-8.4-55.6-7.3-5.3-15.2-6.7-21.5-7.4.8-2.7 1.9-5.6 2.8-7.8 2.3-6.2 4.7-12.6 5.7-19.5 3.4-23.6-8.8-35.3-17-42.9-1.8-1.8-3.9-3.7-5.8-6m66.6-318c-11.5 0-17.4 8.3-19.8 11.7l-1.7 2.3c-12.7 17.4-20.5 37.3-28.1 56.6-2.3 5.9-4.6 11.8-7 17.4l-3.7 8.6c-8 18.4-16.3 37.5-20.4 58.9-2.6 13.7-4.9 27.5-7.1 41.2-1.6 9.8-3.2 19.5-4.9 29.2l-3.1 17.2c-3.4 19-7 38.6-9.9 58.2-.2 1.4-.4 2.8-.6 4.1-1.7 9.7-4.3 24.2 7.9 38.8 3.4 3.9 6.7 7.1 9.3 9.6 1.8 1.7 4.2 4 4.8 4.9-.1 0 0 .8-.2 2.3-.4 2.5-2.1 7-3.6 10.9-3.9 10.4-8.7 23.4-5.8 37 4.9 22.8 26.3 25 34.4 25.9l1.6.1c-.7 2.2-1.8 4.8-2.6 6.7-4.9 12.1-16.4 40.3 11.4 56.8 6.8 4.1 13.2 6.4 18.3 8.3 9.3 3.4 9.3 3.4 10.3 8.2.2 1.2.3 2.6.5 4.1.9 8.3 2.4 22.3 13.4 31.2 9.4 7.7 21.2 7.3 30 7h1.1c-.1 2.4-.5 5.3-.7 7.3-1.3 11.5-3.1 27.2 7.9 39.1 6.9 7.5 16.5 11.2 29.4 10.7 2.9-.1 5.6-.3 8.1-.5l2-.2c.2 1.9.2 4.1.3 6.4 0 4 .1 8.6.9 13.5 2.8 18 9 28.8 32.5 31.4 2.2.3 4.4.4 6.7.6 4.4.3 9.5.7 11.6 1.8 3 1.6 7.4 6.9 11 11.1 2.3 2.8 4.6 5.5 6.8 7.9 8.9 9.4 17.9 18.7 27.1 27.9l17.4 17.5 14-20.2c6.3-9 12.6-18.8 20.5-31.7 2.3-3.8 4.6-8.4 6.9-13.1 2.2-4.4 4.9-10.1 7.3-13.5l.9.1c3.1.5 6.8 1 11.4.9 12.7-.4 20.4-6.4 24.5-11.4 11.3-13.5 8.9-32.4 6.4-49.3 7.2 2.3 15.5 3 23.6-2.6 5.8-4.1 12.4-12.3 10.2-28.7-1.2-9.3-4.4-18-7.2-25.6-1.1-2.9-2.1-5.8-3-8.4 1.7.4 3.4.9 4.9 1.2l1.8.4c25.7 6.1 33.6-10.1 35.7-17.3 3.2-10.6-.7-21.4-3.6-29.3-.4-1.2-.8-2.3-1.1-3.1-2-6.9-4.4-13.7-6.9-20.5-2.8-8.1-5.6-15.9-7.6-23.4 1.9 0 3.7.1 5.2.2 5.2.2 10.6.4 15.7-.2l17.2-1.7 1.2-17.2c1.6-20.6-12.8-36.5-24.4-49.3-5-5.7-12-13.4-13.1-17.4-1.5-5.1.8-12.9 5.5-19.1l2-2.1c3.7-3.4 14.8-14.1 9.5-30.9-2.9-9.1-10.4-15.5-15.8-20.1l-2.3-2.1c-2.8-2.7-5.9-5.4-9.1-8.2-5.3-4.6-10.7-9.3-13.3-13.3-.7-1.2-.1-5.8.5-9.7 1.1-7.6 2.6-18-1.3-29.1-3.9-11.6-12.5-20.2-19.4-27.2-1.3-1.3-2.6-2.5-3.7-3.7-9.3-9.9-18.9-19.5-28.5-29.1l-5-5c-59.1-59-127.2-95.6-210.1-137.3-1.4-.8-3.1-1.8-4.8-2.8-6.2-3.8-13.9-8.5-22.4-9.8l-1.2-.3c-2.4-.6-4.6-.8-6.6-.8" style="fill:#231f20;fill-opacity:1;fill-rule:nonzero;stroke:none" transform="matrix(.0179 0 0 -.0179 -102.696 420.872)"/><path d="m11434 15112.9-35.4 21c1.4 2.3 134.4 227.7 144 329.8 1.9 20.4 3.7 44.8 5.6 71.1 3.8 52.4 8.1 111.8 15 160.8 8 57.5 22.6 99.7 23.2 101.5l38.8-13.6c-.1-.4-13.9-40.3-21.3-93.6-6.6-47.6-10.9-106.3-14.7-158.1-1.9-26.6-3.7-51.3-5.7-71.9-10.4-111.2-143.8-337.4-149.5-347" style="fill:#231f20;fill-opacity:1;fill-rule:nonzero;stroke:none" transform="matrix(.0179 0 0 -.0179 -102.696 420.872)"/><path d="M11524.4 15318.2q-1.95 0-3.9.3c-11.1 2.2-18.4 12.9-16.3 24.1.9 4.9 19.8 112.8-61.9 162.7-9.8 5.9-12.8 18.5-6.9 28.2s18.6 12.8 28.3 6.9c106.3-64.9 82-199.8 80.9-205.5-1.9-9.9-10.5-16.7-20.2-16.7" style="fill:#231f20;fill-opacity:1;fill-rule:nonzero;stroke:none" transform="matrix(.0179 0 0 -.0179 -102.696 420.872)"/><path d="M11562.3 15423.9c-3.2 0-6.5.8-9.6 2.5-10 5.3-13.8 17.8-8.5 27.8 2.1 4 52.6 96.6 143.9 96.6h1.6c11.4-.1 20.5-9.5 20.3-20.8-.1-11.3-9.3-20.3-20.5-20.3h-1.4c-66.9 0-107.2-74.1-107.6-74.9-3.7-6.9-10.8-10.9-18.2-10.9" style="fill:#231f20;fill-opacity:1;fill-rule:nonzero;stroke:none" transform="matrix(.0179 0 0 -.0179 -102.696 420.872)"/><path d="M11569.2 15500.2c-11.3 0-20.5 9.1-20.6 20.3 0 .8-1.7 73.7-52.2 105.7-9.6 6.1-12.4 18.8-6.3 28.4 6 9.6 18.8 12.5 28.3 6.4 69.6-44.1 71.3-136.1 71.3-140 .1-11.4-9-20.7-20.3-20.8zm-69.5-247.8c-5 0-10 1.8-14 5.5-8.3 7.8-8.8 20.7-1.1 29 2.2 2.4 54.9 58.3 139.8 65.9 11.4.9 21.3-7.3 22.3-18.6s-7.3-21.3-18.6-22.4c-68.7-6.1-112.9-52.4-113.4-52.9-4-4.3-9.5-6.5-15-6.5" style="fill:#231f20;fill-opacity:1;fill-rule:nonzero;stroke:none" transform="matrix(.0179 0 0 -.0179 -102.696 420.872)"/><path d="M11468.7 15202.9c-1.7 0-3.3.2-5 .7-11.1 2.8-17.7 14-14.9 25 11.8 46.5-37.8 96.9-38.3 97.4-8.1 8-8.2 21-.2 29.1 7.9 8.1 20.9 8.2 29 .2 2.8-2.7 67.1-67 49.3-136.8-2.3-9.3-10.7-15.6-19.9-15.6" style="fill:#231f20;fill-opacity:1;fill-rule:nonzero;stroke:none" transform="matrix(.0179 0 0 -.0179 -102.696 420.872)"/><path d="M11160.6 15270.4c9 3.3 19.2 4.9 27.9 8.9 9 4.1 4.1 15.2 15.2 13.9 4.8-.5 18.6-8.9 22-4.1 4.1 5.9-7 17.6 7.1 10.6 4.6-2.3 15.3-12.2 20.4-6.5 5.2 5.6-3.5 15.8 6.1 15.3 7.4-.4 16.9-10.4 23.3-13.7 11.2-5.6 10.6 4.7 14.4 13.7 8.7-1.3 12.5-16.2 19.7-20.4 6.8-4 12-.3 18.6 1.1 7.7 1.5 1.2 2.6 5.7-.4 2.4-1.6 4.1-7.1 5.4-9.5 1.9-3.4 3.5-7.9 7-10 4.3-2.7 10.2-.7 14.6-3.2 8.3-4.7 13.7-19.4 18.1-27.4 16.4-30 23-62.1 29.1-95.5 1.3-7.3 3.2-8.2-1.9-12.1-7.2-5.4-25.6-5.4-34.3-6.9-19.8-3.3-37.7-2.2-57.5-1.1-9.7.5-19.5.9-29.2 1.6-2.9.2-8.9-.4-11.4 1.2-5.5 3.4-3.8 10.6-11.2 13-5.5 1.7-12.7-2.3-18-.2-8.2 3.2-.7 7.3-3.7 14.1-5 11.1-21.6-4.5-25.3 9.6-2.1 8 .6 11.9-7.7 16.4-2.4 1.3-7.2 2-8.5 4.8-1.4 3 2.6 7.7 2.2 10.8-1.7 12-19.3 2.7-20.7 14-.9 7.6 8.3 10.3-.3 16.1-6.9 4.5-13.3.5-13.9 9.7-.3 3.6 2.1 7.1 1.4 10.9-.8 4.8-5.1 9.4-7.6 13.5-2.4 3.9-4.8 7.8-7 11.8" style="fill:#47b173;fill-opacity:1;fill-rule:nonzero;stroke:none" transform="matrix(.0179 0 0 -.0179 -102.696 420.872)"/><path d="m11352.4 15305.9.1-.1zm-59.8-160.6 1.2-.1c7.1-.5 14.1-.9 21.2-1.2l9.8-.5c18.2-1 34-1.8 50.8 1 2.7.5 6.3.8 10.2 1.2 1.9.2 4.9.5 7.8.8-5.6 30.2-11.9 57.5-25.5 82.3-1.2 2-2.4 4.5-3.6 7.1-1.5 3.1-4.1 8.4-6.1 11.3-4 .2-9.9.9-15.9 4.6-6.9 4.3-10.4 10.4-12.6 14.6-6.1-1.1-14.6-1.4-23.6 3.9-2.6 1.5-4.7 3.3-6.6 5.2l-1.7-.8c-5.2-2.2-13.7-3.8-24.6 1.8-1.7.8-3.4 1.8-4.9 2.9l-.1-.1c-7.8-8.5-17.7-10.6-29.6-6.3-9.3-8.4-21.9-6-30.2-3.3-2.6-3.4-6.3-6.7-11.5-9.1-1.7-.8-3.4-1.4-5-2.1 1.4-2.9 2.7-6.2 3.4-9.9.3-1.8.4-3.5.4-5.1 1-.6 2.1-1.2 3.2-1.9 3.7-2.5 13.2-10 12.9-22.3 11.9-4.9 15.9-14.2 17-22 .2-1.1.3-2.2.3-3.2 7.3-5.3 10.3-11.5 11.7-16.6 15.2-.3 22.4-8.7 25.8-16.3l.5-1.3c2.7-.1 5.6-.5 8.6-1.4 9-2.8 14-8.7 16.7-13.2m57.5-43.8c-9.1 0-18.2.4-27.5.9l-9.6.5c-7.4.4-14.8.7-22.2 1.3h-1.4c-5 0-12.5 0-19.3 4.1-4.6 2.9-7.5 6.4-9.5 9.6-4.5-.6-10.4-.8-16.5 1.7-3.6 1.4-12.9 6-15.9 16.2-18 1.5-23.7 14.9-25.4 21.3-.4 1.7-.7 3.3-1 4.8-4.4 1.9-10.5 5.6-13.9 13-1.4 3-2.1 5.9-2.2 8.6-13.1 4.7-17.2 14.4-18.1 22.5-.2 1.4-.2 2.7-.2 4-10.5 5.3-13.6 14.9-14.2 22.7-.2 3.7.3 6.9.8 9.3l-.8 1.1c-1.1 1.7-2.2 3.3-3.2 4.8-2.4 4-4.9 8.1-7.2 12.2l-12.2 21 22.8 8.5c4.4 1.7 9.1 3 13.8 4.3 3.4.9 6.6 1.8 9.4 2.8 7.5 16.8 21.6 17.9 29.5 17l2.6-.5c1.3 1.9 2.8 3.3 4.3 4.5 9.3 7.4 19.8 4.5 25.7 1.9l1.6 1.9c3.5 3.7 9.8 8 20.1 7.5 7.6-.4 14.2-3.7 19.8-7.4l4 9.6 15.9-2.4c13.2-2 20.4-12 24.9-18.8l1.6 4.1 33.3-6.5v-9.4c1.9-2.8 3.1-5.6 4.1-7.8l.5-1.3.7-1.2c3.5-.3 8.2-1.2 12.9-3.9 12-6.8 18.6-20.3 23.4-30.1.9-2 1.8-3.8 2.6-5.3 17.7-32.2 24.6-65.1 31.3-101.8.2-1 .4-1.9.6-2.6 1.9-7.9 3-19.5-10.4-29.5-9.9-7.5-23.7-8.8-36-9.9-2.7-.3-5.3-.5-7.2-.8-11.3-1.9-21.9-2.5-32.3-2.5" style="fill:#231f20;fill-opacity:1;fill-rule:nonzero;stroke:none" transform="matrix(.0179 0 0 -.0179 -102.696 420.872)"/><path d="M11411.7 15127.7s-51.4 63.9-83.5 78.7c-32.1 14.7-70.7 29-79.8 39.1z" style="fill:#47b173;fill-opacity:1;fill-rule:nonzero;stroke:none" transform="matrix(.0179 0 0 -.0179 -102.696 420.872)"/><path d="M11411.7 15107.2c-6 0-11.9 2.6-16 7.6-18.7 23.3-56 63.6-76.1 72.9-8.8 4-18.2 8.1-27.2 12-31.7 13.7-50.1 21.9-59.3 32-7.6 8.4-6.9 21.4 1.5 29 8.4 7.7 21.4 7 29.1-1.4 4.7-4.5 28.9-14.9 45-21.9 9.3-4 19-8.2 28.1-12.4 35.4-16.3 85.4-77.5 90.9-84.4 7.2-8.8 5.8-21.8-3.1-28.9-3.8-3.1-8.3-4.5-12.9-4.5" style="fill:#231f20;fill-opacity:1;fill-rule:nonzero;stroke:none" transform="matrix(.0179 0 0 -.0179 -102.696 420.872)"/><path d="M11646.1 14976.4c-9.2-2.6-19.6-3.4-28.5-6.6-9.4-3.4-5.4-14.9-16.3-12.6-4.7.9-17.7 10.5-21.5 5.9-4.5-5.5 5.5-18.1-8-9.9-4.4 2.6-14.1 13.4-19.7 8.2s2.2-16.1-7.4-14.7c-7.3 1-15.8 11.8-21.9 15.6-10.6 6.5-10.9-3.8-15.5-12.5-8.5 2.1-11 17.3-17.8 22.1-6.4 4.6-11.9 1.3-18.6.5-7.8-.9-1.4-2.5-5.6.9-2.2 1.7-3.4 7.3-4.6 9.9-1.6 3.5-2.8 8.1-6 10.6-4 3-10.1 1.6-14.3 4.4-7.8 5.4-11.9 20.6-15.6 29-13.7 31.3-17.4 63.9-20.6 97.9-.7 7.3-2.6 8.4 2.9 11.9 7.6 4.8 25.8 3.2 34.6 3.9 19.9 1.7 37.7-.9 57.2-3.7 9.7-1.3 19.3-2.5 28.9-4 2.9-.5 8.8-.4 11.2-2.2 5.2-3.9 2.8-11 10-13.9 5.3-2.2 12.9 1.1 17.9-1.4 7.9-3.9.1-7.4 2.5-14.4 4-11.5 21.8 2.6 24.3-11.7 1.4-8.3-1.7-11.9 6.2-17.1 2.3-1.5 6.9-2.5 8-5.5 1.2-3.1-3.2-7.5-3-10.7.6-12 18.9-4.3 19.2-15.7.3-7.7-9-9.6-1-16.1 6.4-5.1 13.1-1.6 13-10.9 0-3.6-2.7-6.9-2.4-10.7.4-4.9 4.3-9.9 6.4-14.2q3.15-6.15 6-12.3" style="fill:#47b173;fill-opacity:1;fill-rule:nonzero;stroke:none" transform="matrix(.0179 0 0 -.0179 -102.696 420.872)"/><path d="M11517 14984.9c4.7 0 10.3-1.3 16.6-5.2 1.6-1 3.1-2 4.5-3.2h.1c8.4 7.9 18.5 9.1 29.9 3.8 10 7.6 22.2 4.2 30.3.7 2.9 3.2 6.8 6.2 12.2 8.2 1.7.6 3.5 1.1 5.2 1.6-1.2 3-2.2 6.5-2.6 10.3-.1 1.9-.1 3.6.1 5.2-1 .7-2 1.4-3.1 2.2-3.4 2.8-12.2 11.1-10.8 23.4-11.5 5.9-14.7 15.5-15.1 23.3 0 1.2 0 2.3.1 3.3-6.9 5.9-9.4 12.3-10.3 17.6-15 1.6-21.4 10.6-24.2 18.5l-.4 1.3c-2.6.3-5.4 1-8.3 2.1-8.9 3.7-13.2 9.8-15.6 14.7l-1.1.1c-6.8 1.2-13.6 2.1-20.5 3l-10.2 1.4c-18 2.5-33.5 4.6-50.4 3.2-2.8-.2-6.3-.2-10.2-.3-2 0-5 0-7.9-.1 3-30.8 7-58.6 18.4-84.6.9-2.1 1.9-4.7 2.9-7.4 1.3-3.2 3.3-8.7 5.1-11.7 3.9-.7 9.7-1.9 15.4-6.1 6.4-4.8 9.4-11.2 11.2-15.6 6.2.7 14.6.1 23.1-5.9 2.4-1.7 4.4-3.6 6.1-5.7l1.7.7c2.1.7 4.8 1.2 7.8 1.2m29.2-58.9c-1.3 0-2.8.1-4.3.3-7.5 1-13.7 4.8-19 9l-4.8-9.3-15.6 3.8c-12.9 3.2-19.3 13.7-23.1 20.9l-2-3.9-32.5 9.3.8 9.4c-1.6 2.9-2.6 5.9-3.4 8.2l-.5 1.4-.5 1.2c-3.5.6-8.1 1.9-12.5 5-11.3 7.8-16.5 21.2-20.6 32.1-.8 2-1.5 3.9-2.2 5.5-14.7 33.6-18.8 67.1-22.3 104.3-.1 1.1-.2 2-.4 2.7-.8 5.1-2.9 18.6 12.8 28.5 10.5 6.6 24.4 6.7 36.7 6.9 2.7 0 5.3 0 7.3.1 21.4 1.8 39.8-.8 59.4-3.5l10-1.3c7.2-1 14.4-2 21.6-3.1l1.4-.2c4.9-.4 12.3-1 18.7-5.8 4.4-3.2 7-7 8.7-10.3 4.6.2 10.3-.2 16.2-3.1 3.5-1.7 12.4-7.1 14.5-17.6 17.7-3 22.2-16.8 23.3-23.4.3-1.8.5-3.4.6-4.9 4.3-2.3 9.9-6.5 12.7-14.1 1.2-3.2 1.6-6.2 1.5-8.9 12.5-5.7 15.8-15.8 16-24 0-1.4 0-2.7-.2-4 10-6.2 12.3-16 12.2-23.8-.1-3.8-.9-6.9-1.6-9.3l.7-1.2c1-1.8 2-3.5 2.8-5.1 2.1-4.2 4.1-8.4 6.1-12.7l10.3-22-23.3-6.5c-4.6-1.3-9.4-2.2-14.2-3.1-3.4-.6-6.6-1.2-9.5-2-8.9-16.2-23-16.1-30.9-14.5l-2.5.7c-1.4-1.8-3-3.1-4.6-4.2-9.9-6.5-20-2.7-25.7.3l-1.7-1.8c-3.3-2.9-8.6-6-16.4-6" style="fill:#231f20;fill-opacity:1;fill-rule:nonzero;stroke:none" transform="matrix(.0179 0 0 -.0179 -102.696 420.872)"/><path d="M11414.1 15136.5s37.9-52 82.9-76c44.9-24 48.9-41.5 48.9-41.5z" style="fill:#47b173;fill-opacity:1;fill-rule:nonzero;stroke:none" transform="matrix(.0179 0 0 -.0179 -102.696 420.872)"/><path d="M11525.8 15014.5v-.1zm.7-2.2h.1zm19.4-13.8c-8.8 0-16.7 5.6-19.5 14.1-1 1.7-8.5 13.4-39.1 29.8-48.6 25.9-88.2 79.7-89.8 82-6.7 9.2-4.7 22 4.4 28.7 9.2 6.7 22.1 4.7 28.8-4.4.3-.5 35.8-48.6 76-70 48-25.7 57.4-47.1 59.2-55.1 2.6-11.1-4.4-22.1-15.5-24.6-1.5-.4-3-.5-4.5-.5" style="fill:#231f20;fill-opacity:1;fill-rule:nonzero;stroke:none" transform="matrix(.0179 0 0 -.0179 -102.696 420.872)"/><path d="m10809.5 21233.8-46.9-1916c3.1-239.6-493.5-537.6-867.39-740.8-19.21-10.4-34.92-19-46.35-25.4-341.38-191.2-491.52-293.8-473.02-725.2l29.99-700.1c39.52-918.6 85.39-1987.6 114.74-2672 18.45-428.7 31.05-722.9 31.1-724.2 10.69-302.4 809.33-768.9 1773.13-772.7h11.7c424.4 0 852.2 91.7 1206 258.7 308.6 145.6 514.5 328.9 537.8 478.7l191.4 4041.5c19.5 413.6-93.3 530.5-551.9 776.2-36 20.1-874.1 490.8-872.7 762.3l-27.3 1948.3zm527.3-8317.6h-12.2c-447.6 1.8-897.3 101.2-1266.1 279.9-332.04 160.9-542.02 365-547.94 532.6-.13 3.1-12.37 288.9-31.1 723.8-29.35 684.5-75.22 1753.5-114.74 2672l-29.99 700.1c-19.5 454.7 146.63 568.4 494.02 762.9 11.55 6.5 27.42 15.1 46.81 25.6 563.44 306.3 848.04 543.5 845.94 704.9l47.8 1957.4 1091.1-11.6 27.8-1988.8c-1-205.8 614.2-594.1 851.3-726.4 469.4-251.4 593.7-381.1 573.3-814.2l-191.7-4044.7c-46.9-312.8-815.9-773.5-1784.3-773.5" style="fill:#231f20;fill-opacity:1;fill-rule:nonzero;stroke:none" transform="matrix(.0179 0 0 -.0179 -102.696 420.872)"/><path d="M11879.1 21469.8v-2083.1s-145.2-97.8-530.4-94.6c-101.6.8-190.9 10.6-267.2 24.4-108.8 19.8-191.3 47.9-245.7 70.5-51.2 21.3-107.5 44.2-107.5 44.2l33.2 2089.1 74.3-3.4 245.7-11z" style="fill:#46acd7;fill-opacity:1;fill-rule:nonzero;stroke:none" transform="matrix(.0179 0 0 -.0179 -102.696 420.872)"/><path d="M11144.6 21492.7v-2189.4c-108.7 19.8-191.3 47.9-245.6 70.6v2129.8z" style="fill:#a4e1ed;fill-opacity:1;fill-rule:nonzero;stroke:none" transform="matrix(.0179 0 0 -.0179 -102.696 420.872)"/><path d="M10764.2 19441.9c47.2-25.2 257.7-126.6 584.7-129.3 320.8-2.6 472.6 66.2 509.6 86v2051.6l-1076.6 48.6zm602.8-170.5c-6.1 0-12.2 0-18.5.1-383.5 3.1-606.3 135.1-615.6 140.7l-10 6.1.1 11.7 18.2 2111.8 1158.5-52.3v-2113.7l-9.1-6.1c-6.1-4.1-150.3-98.3-523.6-98.3" style="fill:#231f20;fill-opacity:1;fill-rule:nonzero;stroke:none" transform="matrix(.0179 0 0 -.0179 -102.696 420.872)"/><path d="m11949.6 21784.8-.5-176.9c0-99.7-66.4-186.9-162.4-214.4-239.2-68.4-481.9-79.8-727.8-37.8-60.6 10.2-121.4 23.8-182.4 40.5-17.4 4.8-33.7 11.5-49 19.9-70.1 38.5-115.9 112.5-115.9 195.2l2.8 170.2c0 26.3 5 52.3 14.3 76.9l-3.1 87.6-3.1 10.3c-3.7 13.1-5.7 26.5-5.9 40.1l-5 446.1h1237.5V21978c0-24.7-5.5-49.2-16-71.5l-.7-56 .8-1.6c10.8-19.7 16.4-41.8 16.4-64.1" style="fill:#46acd7;fill-opacity:1;fill-rule:nonzero;stroke:none" transform="matrix(.0179 0 0 -.0179 -102.696 420.872)"/><path d="m10732.4 22421.9 4.8-425.2c.2-11.7 1.9-23.4 5.1-34.8l3.7-12.6 3.4-94.3-1.5-4c-8.6-22.5-12.9-45.9-12.9-69.5l-2.9-170.6c0-73.3 40.4-141.1 105.3-176.7 14.2-7.9 29.1-13.9 44.5-18.1 60.9-16.7 121.6-30.2 180.5-40.1 244.4-41.8 486.2-29.2 718.7 37.3 86.8 24.9 147.4 104.9 147.4 194.6l.6 176.9c-.1 19-4.9 37.7-13.9 54.2l-3.5 6.5.9 65.7 1.9 4.1c9.2 19.4 14 41.1 14 62.7v443.9zm610.7-1111.2c-95.2 0-191.2 8.3-287.6 24.7-60.2 10.2-122.3 24-184.5 41-18.4 5-36.4 12.4-53.4 21.7-78.1 42.8-126.6 124.5-126.6 213.2l2.8 170.6c0 26.9 4.8 53.8 14.2 79.8l-2.9 81-2.3 7.8c-4.3 15.1-6.5 30.4-6.7 45.6l-5.3 466.9h1278.9v-485c0-26.1-5.6-52.3-16.1-76.1l-.6-46.4c11.2-21.5 17.2-46 17.2-70.7l-.5-177c0-107.9-72.9-204.2-177.3-234.1-146.7-41.9-297-63-449.3-63" style="fill:#231f20;fill-opacity:1;fill-rule:nonzero;stroke:none" transform="matrix(.0179 0 0 -.0179 -102.696 420.872)"/><path d="M11058.9 21355.7c-60.6 10.2-121.4 23.8-182.4 40.5-17.4 4.8-33.7 11.5-49 19.9l-25.1 932.6 51.8 93.8 3.5 6.3 33.5-6.3 148.2-27.9z" style="fill:#a4e1ed;fill-opacity:1;fill-rule:nonzero;stroke:none" transform="matrix(.0179 0 0 -.0179 -102.696 420.872)"/><path d="M11338.8 21790c-302.2 0-555.2 63.9-609.3 145.7-1.1-19.5-.5-58.4 3.2-78.1 57.7-80.6 303.9-138.1 602.9-138.1 304.1 0 547.8 49.3 597.8 129 1.3 14.6-1.1 39.9-1.7 64.1-80.1-71.3-316.9-122.6-592.9-122.6" style="fill:#71331d;fill-opacity:1;fill-rule:nonzero;stroke:none" transform="matrix(.0179 0 0 -.0179 -102.696 420.872)"/><path d="M10752.1 21866c51.5-63.2 265.6-126 583.5-126 291.8 0 526.9 47.2 577.6 115.3.1 5.1-.1 11.5-.4 18.4-105.5-63.3-326.5-104.3-574-104.3-264 0-490.8 46.7-588.5 117.3.4-7.6 1-14.9 1.8-20.7m583.5-167.1c-307.8 0-556.8 59-619.7 146.7l-2.6 3.7-.9 4.5c-4 21.6-4.6 62.1-3.4 83l3.3 62.2 34.4-51.9c44.3-67.1 277.9-136.6 592.1-136.6 263.3 0 501.5 48.3 579.3 117.4l33.1 29.5 1.1-44.4c.2-8.5.6-17.1 1-25.4.8-16.2 1.5-30.1.6-40.9l-.4-4.9-2.7-4.3c-64.1-102.2-359.8-138.6-615.2-138.6" style="fill:#231f20;fill-opacity:1;fill-rule:nonzero;stroke:none" transform="matrix(.0179 0 0 -.0179 -102.696 420.872)"/><path d="M11394.2 21580.9c-8.1 0-16.1 0-24.1.1-273.4 3.5-558.1 63.1-662.2 138.7l24.2 33.2c96.4-70 376.9-127.4 638.5-130.7 281.5-3.6 523.5 52.8 564.4 105.7l32.5-25.2c-60-77.5-333.7-121.8-573.3-121.8" style="fill:#231f20;fill-opacity:1;fill-rule:nonzero;stroke:none" transform="matrix(.0179 0 0 -.0179 -102.696 420.872)"/><path d="m10732.4 22421.9 4.8-425.2c.1-11.8 1.9-23.4 5.1-34.7l3.7-12.7 3.4-94.4-1.5-3.9c-8.5-22.3-12.9-45.7-13-69.5l-2.7-170.6c0-90.4 61.6-170.6 149.7-194.8 307.8-84.5 610.3-85.4 899.1-2.8 86.9 24.9 147.6 104.9 147.6 194.6l.5 176.9c0 18.8-4.8 37.6-13.9 54.2l-3.5 6.3.9 66 1.9 4c9.2 19.5 14.1 41.2 14.1 62.7v443.9zm611.1-1111c-155.4 0-313.3 21.9-472.5 65.5-105.9 29.1-180 125.7-180 234.9l2.8 170.6c.1 27.2 4.9 54.1 14.2 79.8l-2.9 81-2.3 7.9c-4.3 14.8-6.5 30.1-6.7 45.6l-5.3 466.8h1278.9v-485c0-26.1-5.5-52.3-16.1-76.1l-.7-46.4c11.4-21.8 17.3-46.2 17.3-70.8l-.5-176.8c0-108-72.9-204.2-177.3-234.1-146.6-41.9-296.6-62.9-448.9-62.9" style="fill:#231f20;fill-opacity:1;fill-rule:nonzero;stroke:none" transform="matrix(.0179 0 0 -.0179 -102.696 420.872)"/><path d="M11949.1 22446.6c0-97.6-277-176.8-618.7-176.8-341.8 0-618.8 79.2-618.8 176.8 0 97.7 277 176.8 618.8 176.8 341.7 0 618.7-79.1 618.7-176.8" style="fill:#d7f2f7;fill-opacity:1;fill-rule:nonzero;stroke:none" transform="matrix(.0179 0 0 -.0179 -102.696 420.872)"/><path d="M11330.4 22602.9c-352.5 0-598.2-82.4-598.2-156.3s245.7-156.2 598.2-156.2 598.2 82.3 598.2 156.2-245.7 156.3-598.2 156.3m0-353.6c-310 0-639.4 69.1-639.4 197.3s329.4 197.4 639.4 197.4c309.9 0 639.3-69.2 639.3-197.4s-329.4-197.3-639.3-197.3" style="fill:#231f20;fill-opacity:1;fill-rule:nonzero;stroke:none" transform="matrix(.0179 0 0 -.0179 -102.696 420.872)"/></g></svg>