<svg xmlns="http://www.w3.org/2000/svg" xml:space="preserve" width="200mm" height="200mm" viewBox="0 0 200 200"><path d="M0 0h30000v60000H0Z" style="fill:#fff;fill-opacity:1;fill-rule:nonzero;stroke:none" transform="matrix(.00303 0 0 -.00303 54.58 195.577)"/><path d="M24751.5 3844.3c185 1344.3 3129 20693.1 2682.1 23629.8-349 2293.9-7952.5 8076.9-8502.1 9111.8-591.5 1113.9-891.5 2352.2-907.7 3603.8-30.9 2383.9-113.5 5097-34.7 7480.9 28.9 875 171.2 1637.9-134.3 2514.9-474.3 222.8-5085.4 314.8-5701.8 19.8-243.4-1084.1-275.1-2288.5-233-3262 101.2-2338.3 65.4-4688.7-15.2-7030.7-43.5-1263.9-331.3-2457.7-997.6-3536.7-664.1-1075.4-8095.73-6594.1-8328.91-8774.1-457.52-4277.3 2895.72-22883.2 2915.08-23526.6C5538.99 2559 11076.7 1180 15307.9 1180c3977.2 0 9254 1287.6 9443.6 2664.3" style="fill:#331a15;fill-opacity:1;fill-rule:nonzero;stroke:none" transform="matrix(.00303 0 0 -.00303 54.58 195.577)"/><path d="M12254.8 50118.5c-243.3-1125-252.6-2341.3-216.8-3170.1 87.5-2021.9 82.8-4193.1-15.1-7039.9-47.9-1390.1-379.9-2565.9-1015.2-3594.7-230.7-373.6-1199.23-1221.5-2425.4-2295.1-1179.48-1032.6-2647.38-2317.8-3804.38-3495-631.5-642.6-1106.58-1185.3-1452.42-1659.3-383.62-525.8-595.52-954.9-629.78-1275.2-357.9-3346.1 1654.44-15668.5 2513.74-20930.4 268.51-1644.2 397.77-2440.8 401.96-2580.1 19.01-631.9 1234.45-1344.4 3251.28-1905.9 1967.3-547.7 4376.7-874.7 6445.2-874.7 1933.2 0 4217.9 303.5 6111.5 811.9 1933.7 519.1 3135.6 1173.5 3215.1 1750.4l117-16.1-117 16.1c19.6 142.6 69.1 479.6 143.9 989.7 313.4 2134.5 1047.1 7133.2 1653.3 11931.4 755.4 5978.9 1053.2 9570.5 885.2 10674.8-51 334.8-277.6 780-673.7 1323.4-356.1 488.7-839.4 1047.4-1477.5 1708.2-1169 1210.6-2644.7 2534-3830.4 3597.4-1340.8 1202.5-2309.5 2071.3-2508.1 2445.2-296.1 557.6-524.9 1155.5-679.9 1777.1-152.1 609.6-233.4 1242.3-241.6 1880.5-7.1 543.6-16.6 1093-26.7 1674.7-33.8 1951.1-68.8 3968.7-7.9 5811.8 6.1 184.6 17.3 365.1 28 539.7 39.1 631.7 76.1 1229.3-138.1 1880.2-293.5 87.1-1439.4 163.3-2705.1 177-1374.4 14.9-2472.2-46-2801.1-153m3053.1-49056.6c-1031.8 0-2182.7 83.1-3328.2 240.3-1122.8 154-2222.56 376.4-3180.34 643-1265.49 352.4-3393.08 1097.1-3424.05 2126.4-3.9 129.9-169.62 1144.7-398.97 2549.1-433.35 2653.5-1158.61 7094.7-1722.48 11243.3-681.74 5015.7-948.55 8296.3-793 9750.4 71.77 671 774.59 1676.9 2148.59 3074.8 1163.22 1183.6 2634.8 2472 3817.23 3507.2 1163.3 1018.6 2167.92 1898.2 2380.02 2241.5 613.1 992.9 933.7 2130.8 980.1 3478.7 97.7 2840.5 102.4 5006.1 15.2 7021.6-37.1 858-26.3 2125.8 235.7 3293l12.6 55.9 51.7 24.7c432 206.8 2372.1 202.2 2956.4 195.9 908-9.9 2529.4-66.3 2846.6-215.3l45-21.1 16.4-47c249.4-716 210.1-1351.6 168.5-2024.6-10.7-172.9-21.7-351.7-27.7-533-60.8-1837-25.8-3851.6 8-5799.8 10.1-581.9 19.6-1131.6 26.7-1675.7 16.2-1251.6 325.3-2479.1 893.9-3549.9 178.9-336.9 1234.7-1283.7 2457.2-2380.1 1188.5-1066 2667.7-2392.6 3842.6-3609.3 1385-1434.2 2109.5-2467.9 2214.8-3160 171.4-1126-126.2-4739.4-884.3-10740-606.5-4800.5-1340.5-9800.9-1653.9-11936.1-74.9-509.5-124.3-846.1-143.7-987.6-129-936.8-2178-1621.5-3387.8-1946.4-1912.5-513.4-4220.1-819.9-6172.8-819.9" style="fill:#231f20;fill-opacity:1;fill-rule:nonzero;stroke:none" transform="matrix(.00303 0 0 -.00303 54.58 195.577)"/><path d="M11165 3521.6c-13.9 0-27.8.6-41.9 1.8-1483.08 128.3-3299.3 981.1-3943 1304.3-149 74.8-247.07 222.6-258.91 388.9L3987.08 26418.9c-37.7 272.4 178.62 494.2 429.05 494.2 53.79 0 109.17-10.3 163.93-32.4 2270.31-919 5530.04-842.4 6437.14-1025.2 218.7-44 376.3-235.2 378.9-458.3l28.6-2523.5c-2878.99-1377-4867-4316.9-4867-7720.9 0-3473.5 2069.72-6462.6 5043.4-7802.6l38-3349.8c3-266.3-213.1-478.8-474.1-478.8M9289.95 27313.4c-2061.45 0-4948.88 889-4753.87 1650.3 446.88 1744.9 8098.12 6620.5 8098.12 6620.5 208.3 53.6 354.8 76 457.5 76 325.6 0 209.5-225.3 221.6-395.2 1.9-26.5-11-150.6-38.5-349.4-15.3-7.8-30.6-15.8-45.7-23.8-1246.9-660.8-2095.9-1971.4-2095.9-3480.6 0-471.2 82.9-923.2 234.2-1342 114.7-315.9 268.5-613 455.7-885.4-397.4-920.1-870.3-1612.6-1413.7-1752.2-317.5-81.6-701.47-118.2-1119.45-118.2m4023.35 9675.3c-375 0-679.1 259.1-679.1 578.8v4336.8c8-2.8 16.2-5.5 24.3-8.2 320.4-107.4 770.4-228.5 1334-306.3v-4022.3c0-319.7-304.1-578.8-679.2-578.8" style="fill:#633a1c;fill-opacity:1;fill-rule:nonzero;stroke:none" transform="matrix(.00303 0 0 -.00303 54.58 195.577)"/><path d="M19399.3 3532.9c-860.2 0-1515.3 90.9-1512.4 263.3 9.5 570.9 4240.3 894.9 4694.8 1269.8 935.8 771.8 2745.2 18513.8 3032.5 20205.6 1564.1-63.8-1107.1-19886.5-2352.6-20996.8-569.4-507.6-2480.7-741.9-3862.3-741.9" style="fill:#56311b;fill-opacity:1;fill-rule:nonzero;stroke:none" transform="matrix(.00303 0 0 -.00303 54.58 195.577)"/><path d="M18053.4 51674.4v-9512.8s-802.9-552.3-2932.6-534.5c-561.8 4.8-1055.5 60.1-1477.6 138-601.5 111.7-1057.9 270.5-1358.3 398.3-283 120.1-428.5 212.3-428.5 212.3l17.4 9583.5 411.1-19 1358.3-62.4z" style="fill:#fbf6d4;fill-opacity:1;fill-rule:nonzero;stroke:none" transform="matrix(.00303 0 0 -.00303 54.58 195.577)"/><path d="M11944 42425.7c60.3-34.2 186.8-101.8 375.1-181.7 273.8-116.5 728.5-279.2 1340.1-392.9 467.6-86.3 959.6-132.2 1462.3-136.5 1081.6-9.1 1807.8 132.8 2226.8 253.4 342 98.4 540.1 198.9 617.6 242.9v9379.9l-4326.8 199.5-1358.2 62.5-319.7 14.8zm3275.5-886.5c-32.9 0-65.9.1-99.4.4-512.9 4.3-1015.1 51.2-1492.8 139.4-627.3 116.6-1094.9 284-1376.7 403.9-286.2 121.5-434.9 214.9-441.1 218.8l-40.7 25.9 17.7 9723.3 1860.7-85.7 4493.7-207.2v-9642.4l-37.9-26.1c-8.7-5.9-217.8-147.7-692.8-285.9-418.6-121.8-1134.6-264.4-2190.7-264.4" style="fill:#231f20;fill-opacity:1;fill-rule:nonzero;stroke:none" transform="matrix(.00303 0 0 -.00303 54.58 195.577)"/><path d="M13992.5 41828.3c-526.3 74.8-947.5 187.9-1249.2 288.5-37.6 12.5-74 25.1-109.1 37.5v9201.4c4.2-1.3 8.3-2.5 12.5-3.8 66.8-31 135.5-59 205.6-83.7 307.2-108.2 687-209.3 1140.2-273.4z" style="fill:#fffdf3;fill-opacity:1;fill-rule:nonzero;stroke:none" transform="matrix(.00303 0 0 -.00303 54.58 195.577)"/><path d="M11974.9 42443.6c106.7-59.4 367.5-193.2 768.4-326.8 493.8-164.6 1307.3-362.7 2378.6-371.7 1776.8-15 2609.4 371.3 2813.5 483.8v9332.6l-5943.4 274.3zm3247-935.1c-33.7 0-67.6.1-102 .4-1107.5 9.3-1949.8 215.7-2461.4 387.2-559 187.4-853 372.2-865.2 380l-54.9 34.9 17.8 9772.2 6415.4-296.1v-9687.3l-51.1-35.2c-33.5-23.1-832.2-556.1-2898.6-556.1" style="fill:#231f20;fill-opacity:1;fill-rule:nonzero;stroke:none" transform="matrix(.00303 0 0 -.00303 54.58 195.577)"/><path d="M18381.5 52254.5c-285.1-480.5-733.7-842.6-1264.6-1016.6-498-163.2-1200.1-312.9-2100.3-312.9-928.8 0-1648.7 161.7-2164.3 343.2-577.2 203.3-1050.3 625.9-1317 1176.7-124.7 257.6-257.9 535.8-347.9 732.2-71.8 157-99.2 330.4-78.8 501.8l489.3 4126.1h6842.7l542-4116.2c25.7-195.2-10.5-393-103.5-566.4-128.2-239.2-324.6-576.4-497.6-867.9" style="fill:#fbf6d4;fill-opacity:1;fill-rule:nonzero;stroke:none" transform="matrix(.00303 0 0 -.00303 54.58 195.577)"/><path d="M12634.2 51355.7c-28.9 8.9-59.3 17.8-91.4 26.8-21.2 5.9-60.7 37.1-110.3 82.6 65.3-39 132.5-74.8 201.7-107.4z" style="fill:#fffdf3;fill-opacity:1;fill-rule:nonzero;stroke:none" transform="matrix(.00303 0 0 -.00303 54.58 195.577)"/><path d="M12646.7 51351.9c-4.2 1.3-8.3 2.5-12.5 3.8v2c4.1-1.9 8.3-3.9 12.5-5.8" style="fill:#fffffc;fill-opacity:1;fill-rule:nonzero;stroke:none" transform="matrix(.00303 0 0 -.00303 54.58 195.577)"/><path d="M13218.9 57805h-388.4l143.2 216.9z" style="fill:#fff;fill-opacity:1;fill-rule:nonzero;stroke:none" transform="matrix(.00303 0 0 -.00303 54.58 195.577)"/><path d="M13356.7 51143.1c-298.8 51.4-443.2 126.2-710 208.8-4.2 1.9-8.4 3.9-12.5 5.8-69.2 32.6-136.4 68.4-201.7 107.4-175.6 161.3-478.2 502.8-544.1 539.8l558.6 5219 383.5 581.1h388.4l584.7-517.2z" style="fill:#fffdf3;fill-opacity:1;fill-rule:nonzero;stroke:none" transform="matrix(.00303 0 0 -.00303 54.58 195.577)"/><path d="m11702.8 57686.9-477-4021.9c-17.7-149.7 6.1-301.4 69-438.7 76.8-167.6 193.5-413.2 346.8-730 254.7-525.9 698.6-922.5 1250-1116.7 634.2-223.3 1349.1-336.5 2125-336.5 747.6 0 1441.9 103.3 2063.5 307 502.3 164.7 928.4 507.3 1199.8 964.7 221.6 373.4 388.2 663.9 495.1 863.3 81.8 152.7 113.1 323.9 90.5 495.3l-528.5 4013.5zm3313.8-6880c-802.7 0-1544 117.7-2203.5 349.9-301.9 106.3-575.9 268.3-814.4 481.3-238.6 213.2-430.2 467.3-569.7 755.3-154.1 318.2-271.5 565.4-348.9 734.6-81 176.7-111.7 372-88.8 564.8l501.6 4230.3h7051.2l555.6-4218.9c29.1-220.7-11.2-441.2-116.5-637.6-108.5-202.5-276.8-496-500.1-872.4l-101.6 60.3 101.6-60.3c-300.6-506.6-772.8-886.1-1329.4-1068.5-645.4-211.6-1364.4-318.8-2137.1-318.8" style="fill:#231f20;fill-opacity:1;fill-rule:nonzero;stroke:none" transform="matrix(.00303 0 0 -.00303 54.58 195.577)"/><path d="M18440.8 57828.6c0-551.4-1531.8-998.3-3421.3-998.3-1889.6 0-3421.4 446.9-3421.4 998.3 0 551.3 1531.8 998.3 3421.4 998.3 1889.5 0 3421.3-447 3421.3-998.3" style="fill:#fff;fill-opacity:1;fill-rule:nonzero;stroke:none" transform="matrix(.00303 0 0 -.00303 54.58 195.577)"/><path d="M15019.5 58708.8c-903 0-1750.5-102.2-2386.2-287.7-565.7-165-917.1-392.1-917.1-592.5 0-200.5 351.4-427.5 917.1-592.6 635.7-185.5 1483.2-287.6 2386.2-287.6 902.9 0 1750.4 102.1 2386.1 287.6 565.7 165.1 917.1 392.1 917.1 592.6 0 200.4-351.4 427.5-917.1 592.5-635.7 185.5-1483.2 287.7-2386.1 287.7m0-1996.6c-924.8 0-1795.7 105.5-2452.4 297.1-711.2 207.5-1087.1 490.8-1087.1 819.3 0 328.4 375.9 611.8 1087.1 819.3 656.7 191.6 1527.6 297.1 2452.4 297.1 924.7 0 1795.6-105.5 2452.3-297.1 711.2-207.5 1087.1-490.9 1087.1-819.3 0-328.5-375.9-611.8-1087.1-819.3-656.7-191.6-1527.6-297.1-2452.3-297.1" style="fill:#231f20;fill-opacity:1;fill-rule:nonzero;stroke:none" transform="matrix(.00303 0 0 -.00303 54.58 195.577)"/><path d="m15064.5 56793-16-4341.2z" style="fill:#f8ecb3;fill-opacity:1;fill-rule:nonzero;stroke:none" transform="matrix(.00303 0 0 -.00303 54.58 195.577)"/><path d="M15048.5 52333.7h-.4c-65.2.3-117.9 53.3-117.7 118.6l16 4341.1c.2 65.1 53.1 117.7 118.1 117.7h.4c65.2-.2 117.9-53.3 117.7-118.5l-16-4341.2c-.2-65.1-53-117.7-118.1-117.7" style="fill:#231f20;fill-opacity:1;fill-rule:nonzero;stroke:none" transform="matrix(.00303 0 0 -.00303 54.58 195.577)"/><path d="m16484.9 56936.6 319.3-4405z" style="fill:#f8ecb3;fill-opacity:1;fill-rule:nonzero;stroke:none" transform="matrix(.00303 0 0 -.00303 54.58 195.577)"/><path d="M16804 52413.5c-61.3 0-113.1 47.4-117.6 109.6l-319.3 4405c-4.7 65.1 44.2 121.6 109.3 126.3 64.9 4.7 121.6-44.2 126.3-109.2l319.2-4405c4.8-65.1-44.2-121.7-109.2-126.4q-4.35-.3-8.7-.3" style="fill:#231f20;fill-opacity:1;fill-rule:nonzero;stroke:none" transform="matrix(.00303 0 0 -.00303 54.58 195.577)"/><path d="m17650 57192 542.7-4213.5z" style="fill:#f8ecb3;fill-opacity:1;fill-rule:nonzero;stroke:none" transform="matrix(.00303 0 0 -.00303 54.58 195.577)"/><path d="M18192.5 52860.4c-58.5 0-109.3 43.5-117 103l-542.6 4213.5c-8.3 64.7 37.4 123.9 102.1 132.2 64.7 8.4 123.8-37.3 132.2-102l542.6-4213.5c8.4-64.7-37.3-123.9-102-132.2-5.1-.7-10.2-1-15.3-1" style="fill:#231f20;fill-opacity:1;fill-rule:nonzero;stroke:none" transform="matrix(.00303 0 0 -.00303 54.58 195.577)"/><path d="m13660 56936.6-255.4-4405z" style="fill:#f8ecb3;fill-opacity:1;fill-rule:nonzero;stroke:none" transform="matrix(.00303 0 0 -.00303 54.58 195.577)"/><path d="M13404.7 52413.5c-2.3 0-4.6.1-6.9.2-65.1 3.8-114.9 59.6-111.1 124.8l255.4 4405c3.7 65.1 59.5 114.8 124.7 111.1 65.1-3.8 114.9-59.7 111.1-124.8l-255.4-4405c-3.6-62.8-55.7-111.3-117.8-111.3" style="fill:#231f20;fill-opacity:1;fill-rule:nonzero;stroke:none" transform="matrix(.00303 0 0 -.00303 54.58 195.577)"/><path d="m12415.1 57176-383-4165.6z" style="fill:#f8ecb3;fill-opacity:1;fill-rule:nonzero;stroke:none" transform="matrix(.00303 0 0 -.00303 54.58 195.577)"/><path d="M12032.2 52892.3c-3.6 0-7.3.2-11 .5-64.9 6-112.7 63.5-106.8 128.5l383.1 4165.6c6 64.9 63.4 112.8 128.4 106.7 65-5.9 112.8-63.4 106.8-128.4l-383-4165.6c-5.7-61.3-57.2-107.3-117.5-107.3" style="fill:#231f20;fill-opacity:1;fill-rule:nonzero;stroke:none" transform="matrix(.00303 0 0 -.00303 54.58 195.577)"/><path d="M19006.7 31411.2c0-2134.2-1698.2-3872-3817.7-3935.1-39.6-1.4-79.2-2-119.4-2-1702.6 0-3153.1 1081.5-3702.2 2595.1-151.3 418.8-234.2 870.8-234.2 1342 0 1509.2 849 2819.8 2095.9 3480.6 549 291.1 1175.3 455.8 1840.5 455.8 1372.6 0 2581.7-702.9 3285.9-1767.7 411.8-621.9 651.2-1366.9 651.2-2168.7" style="fill:#912c34;fill-opacity:1;fill-rule:nonzero;stroke:none" transform="matrix(.00303 0 0 -.00303 54.58 195.577)"/><path d="M15069.6 27474.1c-1347.2 0-2536.6 677.2-3246.5 1709.7-187.2 272.4-341 569.5-455.7 885.4-151.3 418.8-234.2 870.8-234.2 1342 0 1509.2 849 2819.8 2095.9 3480.6 549 291.1 1175.3 455.8 1840.5 455.8 1372.6 0 2581.7-702.9 3285.9-1767.7-342.7 194.4-901.8 430.1-1599.8 430.1-436 0-926.2-91.9-1451.8-343.3-1756.9-840.8-1954.2-3960.1-114.9-6190.6-39.6-1.4-79.2-2-119.4-2" style="fill:#a24954;fill-opacity:1;fill-rule:nonzero;stroke:none" transform="matrix(.00303 0 0 -.00303 54.58 195.577)"/><path d="M15069.8 35229.7c-2105.7 0-3818.7-1713.1-3818.7-3818.7 0-2105.7 1713-3818.8 3818.7-3818.8s3818.8 1713.1 3818.8 3818.8c0 2105.6-1713.1 3818.7-3818.8 3818.7m0-7873.7c-547.4 0-1078.4 107.2-1578.4 318.7-482.9 204.3-916.5 496.6-1288.9 869-372.3 372.3-664.7 806-868.9 1288.9-211.5 500-318.7 1031-318.7 1578.4 0 547.3 107.2 1078.4 318.7 1578.4 204.2 482.9 496.6 916.5 868.9 1288.9 372.4 372.3 806 664.7 1288.9 868.9 500 211.5 1031 318.7 1578.4 318.7s1078.4-107.2 1578.4-318.7c482.9-204.2 916.5-496.6 1288.9-868.9 372.4-372.4 664.7-806 869-1288.9 211.4-500 318.7-1031.1 318.7-1578.4 0-547.4-107.3-1078.4-318.7-1578.4-204.3-482.9-496.6-916.6-869-1288.9-372.4-372.4-806-664.7-1288.9-869-500-211.5-1031-318.7-1578.4-318.7" style="fill:#231f20;fill-opacity:1;fill-rule:nonzero;stroke:none" transform="matrix(.00303 0 0 -.00303 54.58 195.577)"/><path d="M17857.5 31411c0-1539.6-1248.1-2787.7-2787.7-2787.7s-2787.7 1248.1-2787.7 2787.7 1248.1 2787.7 2787.7 2787.7 2787.7-1248.1 2787.7-2787.7" style="fill:#7c161a;fill-opacity:1;fill-rule:nonzero;stroke:none" transform="matrix(.00303 0 0 -.00303 54.58 195.577)"/><path d="M15069.8 34080.6c-1472 0-2669.6-1197.6-2669.6-2669.6 0-1472.1 1197.6-2669.6 2669.6-2669.6s2669.6 1197.5 2669.6 2669.6c0 1472-1197.6 2669.6-2669.6 2669.6m0-5575.5c-776.2 0-1505.9 302.3-2054.7 851.1-548.9 548.9-851.1 1278.6-851.1 2054.8 0 776.1 302.2 1505.9 851.1 2054.7 548.8 548.8 1278.5 851.1 2054.7 851.1s1505.9-302.3 2054.7-851.1c548.9-548.8 851.1-1278.6 851.1-2054.7 0-776.2-302.2-1505.9-851.1-2054.8-548.8-548.8-1278.5-851.1-2054.7-851.1" style="fill:#231f20;fill-opacity:1;fill-rule:nonzero;stroke:none" transform="matrix(.00303 0 0 -.00303 54.58 195.577)"/><path d="M23667 15152.8c0-4724.8-3829.8-8554.6-8554.6-8554.6-1251.3 0-2440 268.8-3511.3 752-2973.68 1340-5043.4 4329.1-5043.4 7802.6 0 3404 1988.01 6343.9 4867.2 7721 1116.6 534.3 2367.2 833.7 3687.5 833.7 4724.8 0 8554.6-3829.8 8554.6-8554.7" style="fill:#fbf6d4;fill-opacity:1;fill-rule:nonzero;stroke:none" transform="matrix(.00303 0 0 -.00303 54.58 195.577)"/><path d="M11601.1 7350.2c-2973.68 1340-5043.4 4329.1-5043.4 7802.6 0 3404 1988.01 6343.9 4867.2 7721z" style="fill:#fffdf3;fill-opacity:1;fill-rule:nonzero;stroke:none" transform="matrix(.00303 0 0 -.00303 54.58 195.577)"/><path d="M15112.4 23589.4c-4652 0-8436.59-3784.6-8436.59-8436.6 0-4651.9 3784.59-8436.5 8436.59-8436.5 4651.9 0 8436.5 3784.6 8436.5 8436.5 0 4652-3784.6 8436.6-8436.5 8436.6m0-17109.3c-1170.8 0-2306.6 229.3-3375.9 681.6-1032.8 436.8-1960.25 1062.1-2756.71 1858.6-796.46 796.4-1421.77 1723.9-1858.59 2756.7-452.28 1069.3-681.61 2205.1-681.61 3375.8 0 1170.8 229.33 2306.6 681.61 3375.9 436.82 1032.8 1062.13 1960.3 1858.59 2756.7 796.46 796.5 1723.91 1421.8 2756.71 1858.6 1069.3 452.3 2205.1 681.6 3375.9 681.6 1170.7 0 2306.5-229.3 3375.8-681.6 1032.8-436.8 1960.3-1062.1 2756.7-1858.6 796.5-796.4 1421.8-1723.9 1858.6-2756.7 452.3-1069.3 681.6-2205.1 681.6-3375.9 0-1170.7-229.3-2306.5-681.6-3375.8-436.8-1032.8-1062.1-1960.3-1858.6-2756.7-796.4-796.5-1723.9-1421.8-2756.7-1858.6-1069.3-452.3-2205.1-681.6-3375.8-681.6" style="fill:#231f20;fill-opacity:1;fill-rule:nonzero;stroke:none" transform="matrix(.00303 0 0 -.00303 54.58 195.577)"/><path d="M9707.97 19997.5c23.07 26 51.16 37.8 77.65 34.9 17.71-1.9 33.35-5.2 46.1-8.3 42.09-10.2 184.98-26.7 423.98-50.4 102.2-10.1 153.3-15 255.6-24.6 107.6-10 161.4-14.9 269-24.4 155-13.7 251.7-23.9 290.1-31.5s68.1-20 89-37.1c31.1-29.2 45-65.7 41.5-109.8-3-37.5-18.9-68.3-47.7-92.7-16-14.6-24-22-40-36.7-470.4 38.2-705.5 60-1175.21 109.1-1.81-55.8-2.71-83.7-4.49-139.5-1.34-77.8-8.01-233.2-19.73-466.4-11.72-233.3-20.17-376.4-25.63-429.2-2.58-25-3.86-37.5-6.48-62.6 201.64-22.2 302.54-32.8 504.34-53 201.7-21.6 302.6-31.8 504.5-51.4 16.1-21.3 24.1-32 40.3-53.3 20.7-26.1 29.8-55.7 27.1-88.8-2.9-35.2-21.8-69.2-56.7-101.8-22.3-18.1-91.8-22.3-208.4-12.1-116.7 10.1-224.1 20.9-322.1 32.3-197.3 21.1-295.9 32.2-493.03 55.1-18.02-202.1-27.05-303.2-45.01-505.4-7.98-99.2-19.95-227.9-36.22-386.3-12.44-120.9-32.24-193.4-57.73-217.4-31.4-29.4-67.03-43-106.74-38.8s-76.37 25.9-109.88 65.1a15995 15995 0 0 0-44.01 51.4c30.36 331.6 45.6 497.4 76.09 829 77.68 820.9 115.18 1392.8 112.65 1715.7-.71 13.4-.03 30 2.15 49.8 2.69 24.2 15.56 52.7 39 79.1m2584.43-306.2c-70.5 15.1-121.3 23.8-152.4 25.7-33.3 2-80.3-.7-141.1-7.9-146.1-17.3-226.8-36-241.6-57.1-7.5-10.6-14.7-66.6-21.6-168.1-25.1-363.9-33.5-731.3-24.1-1101.9 1.1-43.9 1.7-66 2.9-109.9 31.5-2.1 47.3-3.2 78.9-5.3 54.9-3.6 126.4 1.8 214.5 16.3 307.7 43 539.1 120.9 693.7 230.7s241.1 258.9 260.6 446.1c.9 19.9 1.4 29.9 2.2 49.7 7.8 176.7-46.1 322.8-160.3 438.9s-284.6 196.5-511.7 242.8m-423.9 268.9c78.4 14.4 158.8 19.5 240.7 14.4 11-.7 29.8-2.3 56.3-5 26.4-2.8 47.4-4.6 62.9-5.5 342.2-29.2 602.7-136.5 784.1-319.3 156.2-157.4 241.4-352.9 248.2-587.6 1.5-17.8 1.7-45.5.3-83-4.8-125.9-37.4-248.5-99.2-364.5-74.9-140.4-177.4-255-303.8-342.2-126.5-87.3-295.9-157.8-508.3-210.3-72.8-18.6-109.3-27.8-182.3-46.2 54.4-40.4 81.6-60.5 136.2-100.7 426-311.6 664.5-486.5 704.5-532.4 19.8-27.3 29.1-57.6 27.7-90.8-1.4-33.1-11.9-62.5-31.7-88.3-19.8-25.7-46.2-41.2-79.1-46.4-9.5-1.8-21.2-2.4-35.2-1.8-21 1-51.9 14.5-92.9 40.7-40.8 26.2-129.2 88.9-264 188.7-444.9 328-690.3 512.5-748.1 545.1-30.8 16.6-46.3 25-77 41.7-11.4-169.5-17.1-254.2-28.5-423.6-12.2-183.1-25-295.2-38.3-336.4s-43.8-65.8-91.2-73.6c-7.2-1.7-19.1-2-35.3-.9-58.5 4.1-100.2 28.2-125.2 72.1-14.6 25.4-8.5 245.4 8.8 651 18.3 427.9 24.1 708.8 26.5 832.8 5.8 298.6 22.5 627.8 49.2 987.3 5.9 79.3 10.8 124.7 13.5 135.3 3.6 14.6 49.8 40.6 139.2 76.4 89.4 35.7 170.2 59.8 242 73m1793.5-163.7c24.9 14.7 85 20.6 180.3 18 108.6-3 269.7-11.9 482.1-24.1 172.6-9.9 276.6-16.2 310.9-21.1 34.3-4.8 62.4-21.4 84.5-44 28.3-29 46-62.9 45.6-101.5-.3-38.8-17.3-73.8-51-104-24.5-21.9-56.1-32.6-94.1-32.1-31.3.3-57.3 2.2-76.9 4.2-32.6 3.3-169.5 10.8-407.9 26.9-114.9 7.8-172.4 11.8-287.3 20.2-2.8-202.9-4.2-304.4-6.9-507.3-4.7-338.3-4.6-509.7-.2-514.2 4.1-.1 6.2-.2 10.3-.3 22.7-.6 73.4 4.3 150.4 12.8 104 11.6 202.8 15.5 293.8 13.9 17.7-.3 26.5-.4 44.3-.8 90.8-3.7 147.6-8.3 170.3-14.1 22.6-5.9 46.7-21.2 67.7-45.7 27-31.6 40.2-65.1 39.9-95-.4-29.9-14.4-57.9-42.1-84-23.1-21.9-46.8-34.3-70.8-37.3-24-2.9-90.9-6-197.2-5.2-149.4 1.1-268.7-2.5-353.7-15.9-52.3-6.7-78.4-10-130.8-16.5-6.2-180.4-9.3-270.5-15.5-450.8-1.4-54.4-2.1-81.6-3.6-136-5.7-212.1-4.9-330.3 4.7-345.1 8.5-13.1 74-21.9 188.2-24.6 85.2-1.9 127.8-2.8 213-4.4 63 1 137.5.8 223.7-.5 107.1-1.5 178.9-14.2 205.8-39.1 29.8-27.6 44.7-67.2 44.3-108.2-.4-40.8-14-71.1-39.5-90.8-33-25.5-83.6-43.3-151.6-51.3-68-7.9-193.5-11.7-376.2-10.1-63.2 1.3-94.9 2-158.1 3.5-98.4 2.3-164 6.3-196.6 11.6-32.7 5.3-71.6 16.4-116.8 33.2-45.1 16.8-82.2 49.1-111.1 96.2-33.1 54.1-51.9 130-55.7 227.4 17.4 444.2 26 666.2 43.2 1110.3 23.3 642.9 40.6 1019.9 52.1 1131.3 11.4 111.3 39.8 181.7 85.1 211.3 1.4 1.2 2.1 1.9 3.4 3.2m1464.1-66.9c15.6 11.1 36.8 16.6 63.4 16.6 39.9-.1 77.7-18.9 113.3-56.3 40.1-42 174.2-247.5 409.4-614.4 235.3-366.8 450.6-705.1 643.4-1014.6 159.1-255.2 245.4-382.2 254.7-381.9q17.25.45 12.9 166.2c-7.8 287.3.8 774.8 21.1 1460.2 5.8 196.8 15.5 317.3 29.8 360.8s53.6 66.3 118.1 68.3c46.6 1.4 83.2-13 108.1-43 20.9-25.3 32.3-66.4 34.2-121.6 2-57.5-1.6-339.7-12-846.5-6.9-336.4-11.4-665.5-12.2-985.8-.8-344.7-7-541.2-19.5-588-16.7-62.3-55.6-94.6-116.4-96.4-14-.4-24.6.4-31.6 2.4-30.7 8-74.3 39.9-130.7 96-56.4 56-105.2 116.7-146.2 182-275.8 438-535.7 856.8-781.3 1255.8-245.5 399.1-369.7 602-380.9 606.4-4.6 2.2-9.5-48.1-15-150.9-5.4-102.8-10.9-259.8-16.3-470.9-5.4-211.2-9-471.7-14.6-777.7-7.2-394.2-14.7-599.1-16.9-610.2-7-37.6-22.8-67.5-47.3-89.5-24.6-22.1-52.1-33.1-82.4-33.1-37.5.1-70.2 14.6-98.1 43.3-16.8 17.4-25.1 26-41.9 43.3 3.3 407.3 4.9 610.9 8 1018.1 5.4 700.9 11.2 1110.9 17.3 1230.3 6.1 119.3 24.6 202 56.1 245.1 36.8 50.5 62.4 79.4 73.5 86m3044.9 116.9c32.8 8.5 70.3 14.1 112.5 16.7 99.7 6.1 187.1-3.7 262.3-29.8 47.8-16.8 101.9-50.8 162.4-102s101.2-98.5 122.3-141c18-36.3 29-76.6 32.2-120.7 5.4-75-10-125.9-46.4-152.9-12.8-9.8-38.3-16-76.3-18.7-31.4-2.1-60.9 9.7-88.6 35.5-27.6 25.9-42.4 55.4-44.7 88.4-1.9 28.7-22.6 61.6-62.1 99-39.4 37.2-79.7 59.3-116.9 68.8-24.6 6.3-54.3 9.9-87.8 7.8-111.3-6.9-228.5-63.6-352.7-170-124.2-106.5-218.8-233.2-283.9-380-95.3-214.8-143.5-440.6-141.8-677.3.4-8.9.4-23.3.2-43.2-.3-19.9-.1-34.4.3-43.1 19.9-435 183.8-718.4 495.8-845.4 57.2-23.5 106.7-34.1 148.6-31.7 25.5 1.5 46.4 3.8 62.5 7 67 10.5 119.6 27 157.9 49.2 38.2 22.3 79 60.2 122.1 114 43.1 53.6 72.7 97.7 89.1 132 16.3 34.3 29.7 87 41.9 155.6 22.4 126.9 73.5 194.4 149.3 199.7 34.4 2.4 70-11.8 106.8-42.4 34.4-28.6 52.4-55 54.2-79.2.5-6.6-.4-25.6-2.8-56.7-8.2-142.5-57.3-282.4-148.2-419.4s-197.1-231.6-318-283.4c-61.5-28.3-154-48.4-274.3-56.4-111.1-7.4-204.2 4.2-275.8 31.4-217.6 86.1-382.7 212.7-495.4 378.2-112.8 165.5-182 380.8-208.5 645.3-3.2 22-5.6 56.2-7.4 102.6-10.6 269.4 32.3 525.6 126.8 768.6s217.5 428.9 369.5 558.3c57.8 49.4 127.2 97.3 208.2 143.8 80.9 46.4 149.9 76.9 206.7 91.4m1037.2 25.2c23.1 35 55.8 54.3 95.6 57.6 57.6 4.7 99.9-21.8 127-79.4 10.9-23.5 28-139.6 51.2-348.5 23.2-208.8 46-410.4 68.2-604.9 22.1-194.4 36.7-291.4 43.5-290.8s61.7 17.2 163.8 50.8c90.9 30 223.3 65.9 396.5 108.1 173.1 42.3 288.9 67 347.8 73.1 8.1.8 12.2 1.2 20.4 2.1 2.2.2 4.6-.7 7.1-2.6 2.7.3 4.1.4 6.8.7 11.3 1.2 17.4 14 18.3 38.6.8 24.5-2.7 92.3-9.2 202.3-10.6 180.6-20.8 329.1-32.8 443.4-19.1 182.5-22.2 303.3-9.4 362.5s49.1 91.9 108.8 98.3c64.2 7 109.6-19.2 136.3-78.5 5.9-12.7 13.8-64.1 23.8-154.2 6-54.9 15.8-164 29.3-327.1 26.9-326.2 69.1-730.8 119.4-1207.9 53.7-509.9 74.3-783.5 68.1-813.1-16.8-61.9-56.5-97.4-119.3-106.3-8.3-.9-12.5-1.4-20.9-2.3-67.7-7.2-111.5 22.8-131.4 89.6s-47.2 268.4-82.2 604.8c-24.6 236.2-36.9 354.3-61.5 590.4-25.5-6.7-38.2-10-63.8-16.6-8.9-3.2-30.2-8.2-64-14.9-33.9-6.8-76-15.5-126.7-26.1-50.7-10.5-96.2-21.1-136.6-31.6-191.1-45-333.6-83.3-427.4-115.9-65.7-21.7-98.6-32.6-164.4-54.1 2.8-98.3 4.1-147.4 6.9-245.7 6.8-219.1 10.2-365.6 9-438.5-1.5-88.5-4.9-145.2-8.7-168.8-3.9-23.6-16.8-45.4-38.5-64.7-30.3-27-62.2-41.7-94.7-44.3-74.6-6.1-124 26.7-148.2 98-2.7 4.2-5.4 25.1-8.4 62.5-5.3 68.3-7.8 145.8-7.6 232.3-1.5 465.6-23.5 958.3-64.7 1478.5-2.3 28.6-5.8 67.2-10.8 115.6-5 48.3-8 82.8-9.8 102.4-7.1 75.8-16 160.5-23.2 250.9-6.9 88.1-1.7 146.9 16.4 174.3M8476.32 15765.2c16.96 18.7 38.85 26.7 63.85 24 36.09-3.9 60.38-25 72.72-63.6 4.89-15.7 6.42-88.9 4.52-219.5-1.97-130.7-3.65-257-5.21-378.7q-2.34-182.55 3.93-183.3c4.21-.4 38.84 3.3 103.62 11.8 57.73 7.5 141.14 13.7 250.09 18.5 108.89 4.9 181.46 5.7 217.84 2.1 5.02-.4 7.54-.7 12.56-1.2 1.37-.1 2.74-.9 4.08-2.4 1.72-.2 2.53-.3 4.24-.4 6.95-.7 11.75 6.3 14.43 21.3 2.71 14.8 6.42 56.7 12.1 124.8 9.32 111.6 16.02 203.7 18.7 275 4.3 113.9 13.06 188.1 26.25 222.6 13.12 34.5 38.52 50 76.06 46.4 40.36-3.9 66.05-25.6 77.24-65.1 2.47-8.5 2.69-40.9.62-97.2-1.24-34.3-5.07-102.2-11.59-203.3-13.03-202.6-23.75-454.9-36-752.6-13.09-318.2-25-487.9-31.24-505.2-15.46-35.7-42.14-52.5-80.2-50.2-5.05.5-7.58.7-12.63 1.2-40.77 3.9-64.24 27.5-70.32 70.8-6.15 43.3-5.21 169.9 2.74 379.8 5.58 147.4 8.35 221.1 13.93 368.5-16.02-.9-24.03-1.4-40.05-2.3-5.68-.8-19.02-1.3-40.06-1.3-21.07.1-47.41-.1-78.99-.4-31.61-.3-60.07-1.2-85.44-2.7-119.52-4.5-208.92-11-268.3-19.9-41.52-5.5-62.26-8.3-103.77-13.7-5.9-60.6-8.86-90.8-14.75-151.4-12.69-135.1-21.88-225.2-28.18-269.8-7.64-54.1-13.87-88.4-17.99-102.4-4.14-14-13.43-25.8-27.89-35.2-20.2-13-40.28-18.4-59.92-16.3-44.89 4.9-72.01 30.7-81.29 77.2-1.28 2.8-1.41 16-.41 39.3 1.84 42.4 5.98 90.3 12.53 143.3 33.36 285.7 56.86 590.4 70.64 914 .75 17.9 1.4 41.9 1.99 72.2.59 30.2 1.31 51.7 1.65 63.8 1.35 47.5 2.19 100.3 4.55 156.6 2.34 54.8 10.11 90.3 23.35 104.9m1752.48-782.6c-35.8 23.5-80.1 38.8-133.1 46-10.9.9-16.3 1.4-27.2 2.3-39.2 3.3-71.16.4-95.97-8.4-24.82-9-53.87-27.8-87-56.6-53.43-46.3-89.84-106.4-109.26-180.4-8.04-29.6-12.16-47.8-12.41-54.6-.28-8.3 2.28-15.4 7.7-21.4 29.87-28.8 103.87-51.6 221.01-68.7 20.93-3 44.73-5.8 71.33-8 33.6-2.8 68.4 3.7 103.8 18.2 33.8 13.9 66.1 36.6 95.9 68.6s47.9 62.2 54.4 90.6c1.5 4 2.4 10.2 2.7 18.4 1.8 59-28.9 110.3-91.9 154m-276.38 225.4c28.28 7.2 68.18 8.6 119.78 4.2 72.6-6 135.9-21 189.7-44.4 42.7-18.7 84.5-48.8 125.3-90.5 40.7-41.8 71-85 88.6-128.8 18.5-46.1 26.7-90.8 25.5-132-2.4-81-40.5-158.3-114.3-230.6-95-92.9-211.6-133.8-347.5-122.4-4.3.3-11.6 1.2-22.1 2.8s-18.63 2.6-24.2 3.1c-67.15 9.8-124.38 23-171.61 39.5-20.79 8.7-41.71 14-62.71 15.9-2.5.2-3.78.3-6.27.5-2.99-3.8-.56-25.4 7.23-64.6 7.8-39.3 17.71-76.1 28.96-109.9 10.26-31 28.46-62.8 54.8-94.7 26.4-31.9 54.18-56.2 83.17-72.2 32.88-18.1 65.96-28.3 98.33-31 89.8-7.6 160.6 23.8 212.1 94 25 32.4 44 53.2 56.8 61.5 15.3 9.9 32.1 13.9 48.9 12.6 22.5-1.8 42.2-11.5 59.3-29.4 17.1-17.8 25.2-38.5 24.5-61.8-.9-30.2-17.1-65.5-48.6-105.6s-67.4-71-107.5-92.6c-84.6-44.2-161.3-63.3-230.3-57.6-4.1.4-10.2 1.3-17.8 2.6-7.8 1.3-14.4 2.2-20 2.6-103.94 14.4-194.78 60.8-272.4 139.2-54.48 55.8-95.88 129.7-124.28 221.8-28.43 92.1-40.78 189.6-37.09 292.6 1.46 41.1 6.42 87 15.39 136.9 20.42 113.4 63.5 209 127.84 285.8 64.34 76.9 144.45 127.7 240.46 152.5m760.78-44.1c15.8 14 37 20 63.5 18.1s45.8-10.9 58.1-24.9c11.5-13.2 19.4-57.1 21.6-131.6 1.3-42.1 2-63.3 3.3-105.5l66.5 49c48.6 35.2 104.3 66.2 166.4 91.8 46.3 19 80.2 30.4 100.6 34.5 20.4 4.2 57 5.4 108.3 5.3 19.4 0 42-.5 67.1-2.1 33.6-2.1 63.4-10.2 89.7-24.2 48.4-23.6 87.7-52.2 117.7-85.6s44.7-63.9 44.1-91.3c0-1.4-.4-3.5-1.1-6.2-.9-2.7-1.2-4.8-1.3-6.1-12.1-43.3-38.6-63.7-79.2-61.3-28 1.7-59.1 15.9-89.3 42.6-41.1 36.4-84.2 58.9-128.9 61.8-16.8 1-35.7.2-56.8-2.6-143.3-16.8-270.9-98.9-383-246.4-14.9-18.8-22.3-28.2-37.2-46.9-2.1-75.6-3.8-189.6-5.2-342.3-1.4-152.6-3.2-267.3-5.4-344.3-10.4-9.9-15.6-14.9-26-24.9-17.5-18-38.8-26.1-64.2-24.3-22.5 1.6-41.9 12-58.4 31.1-25.9 29.4-35.8 149.1-29.7 359.3 1.1 41.1 5.6 163.7 14.7 366.3 10.3 228.5 18.4 368.9 22.6 419.4s11.4 81 21.5 91.3m1706.2-350c-30.6 16.5-58.5 25.4-83.6 26.7-18.3.8-36.6-1-54.8-5.7-30.9-8-71.4-32.6-121.3-73.4s-90.7-83.7-122.5-128.8c-20.2-26.5-32.2-47.8-36-64.1-3.9-16.3-9.2-62.6-14.5-137.5-4.6-65.3-6.2-100.7-6.3-104.9-.7-30.2 5.2-50.4 17.6-60.7 22.1-19 46.7-48.7 74.3-84.4 28.7-37.1 70.3-77.1 120.2-119.5s88.8-69 116.8-80c15.3-6.2 33.6-9.9 54.7-10.9 56.3-2.6 102.3 10.4 136 39.2 31.3 26.8 57.2 74.7 77.4 142 20.1 67.1 30.8 138.5 32.1 214.1.8 48.1-2.7 93-10.4 134.5-16.8 91.5-38.7 160.3-65.9 206.2-27.2 45.8-65.3 81.6-113.8 107.2m-468.6 718.8c43.3-2.3 69.9-30.5 80-84.7 2.4-16.7 2.8-65.5 1.2-146.5q-2.1-101.1-5.4-156.6c-2.1-37-3.8-86.4-5.1-148.3-1.6-76.9-1-115.4 1.9-115.6 5.5-.3 27.5 14.4 65.8 44 76.5 56.6 151.8 85.9 225.8 87.8 10.1-.5 15.2-.8 25.2-1.3 62.7-2.9 124.1-21.6 184.3-55.9 60.1-34.3 108.6-78.7 145.6-132.2 35.2-51 65-123.8 88.7-218.3 23.7-94.4 34.9-182.9 33.6-265.4-.3-23.3-1.3-40.4-2.9-51.4-9.8-87.6-29.2-168.3-58.5-242-29.4-73.7-63.3-129-101.8-165.8-65.8-60.5-152.8-88.3-261-83.2-15.2.7-22.7 1.1-37.9 1.8-42.2 2-89.1 16.2-136.3 43.7-53.9 31.4-103.5 70.2-147.6 110.7-49.3 45.3-78.1 68.1-85 68.4-5.7.3-8.9-20.1-9.7-61.3q-2.55-117.45-47.4-137.7c-14.2-6.2-29.8-8.7-46.7-7.8-26.8 1.5-47.7 9.5-63 24.1-11.1 7.5-17.9 16.5-20.5 27-2.6 10.4-3.5 31.4-2.8 63 .4 20.6.6 30.9 1.1 51.5 4.3 71.3 17.8 263.1 39.9 575.5 22.3 312.3 36.3 514.4 40.5 604.3 7 151.4 11.6 246.2 16.6 281.7 4.9 35.5 14.5 59.8 28.8 72.7 14.2 13 31.7 18.9 52.6 17.8m1732.1-707.1c-85.5 2.2-192.6-56.6-321.6-176.3-61.1-55.8-105.6-104.9-133.5-147.2-27.9-42.4-49.1-93.3-64.1-151.5-10.3-39.4-15.9-82-16.6-127.3-.9-67.3 10-127.9 32.5-181.6s53.3-91.5 92.5-113.4c23.8-13.2 49.8-20.2 77.9-21.1 55-1.7 114 16.4 177.1 54.5 63.2 38 119.7 90 169.7 156.2 32.7 43.1 52.7 72.8 59.9 89.2 7.2 16.2 13 49.5 19.9 96.4 14.2 95.5 34.1 183.3 53.1 258.5 15.7 63.2 23.6 94.7 39.3 157.9-15 13.5-22.5 20.3-37.5 33.9-26.5 24-52.2 41.7-77.3 53.4s-48.9 17.8-71.3 18.4m-109.7 157.6c37.9 10 70.9 14.6 98.8 13.9 60.2-1.6 124.4-23.2 192.7-64.7 25-16.3 37.5-24.4 62.6-40.7 12.7 15.4 19.1 23.1 31.8 38.5 21.2 24.3 43.7 36.2 67.6 35.7 22.3-.5 40.1-7.4 53.3-20.7s19.8-31 19.6-53c-.1-16.5-3.1-32.3-8.8-47.2-28.6-75.1-58.5-179.2-88.8-311.7-39.5-173.4-59.7-328.6-60.9-464.7-.3-45.4 1.6-92.3 5.2-140.4 3.9-52 5.6-92.1 5.3-119.7-.4-50.8-12.9-82.5-36.8-94-16.7-8-33.3-11.6-48.8-11.2-25.4.6-46.8 12.4-64.2 35.6-17.4 23.1-29.7 55.4-34 94.6-4.6 41.7-12 64.2-24.7 64.6-8.5.2-19.8-8.6-34.1-25.9-15.5-18.9-54-44.7-115-77.4-60.9-32.7-108.3-51.5-140.3-57.8-27.9-5.5-57.9-8.6-88.9-7.6-64.9 2-120.3 14-164.6 36.3-54.4 27.4-104.4 75.5-149.3 142.3-44.8 67-72.3 135.8-82.5 206.2-3.9 25-5.6 54.6-5.1 89 1.2 81 10.7 152.1 28.4 213.4 44.5 160.5 142.5 295.1 293.8 404.3 69.3 49.9 105.4 75.6 108.2 77 49.5 36.9 109.3 65.4 179.5 85.3m739.8 369.1c3 17.8 12.9 33.1 30 45.9 17 12.8 35.4 19 55.1 18.7 11.3-.1 23.9-3.7 38-10.8 26.7-15.5 40-54.2 39.6-116.1-.1-19.3-.9-33.7-2.4-43.3-4.4-41.1-8.8-300.1-14.7-775.2-4.3-337.6-8-541.1-9.8-609.2-1.8-67.9-8.2-106.7-17.8-116.2-12.9-12.8-31.5-20.1-55.7-19.8-28.6.5-51.3 9.8-68.4 27.9-11.3 12.6-19 28.2-23.2 46.8s-8.1 59.1-12 120.9c-3.7 57.7-5.3 153.3-4.4 286.7 1.4 213 6.8 446.3 16.3 699.8s19.3 401.5 29.4 443.9m881.5 16.2c9.8 12.4 27.9 18.5 54.2 18.5 15.2 0 29.7-3.5 43.5-10.4 67.6-37.2 105.6-404.2 114.2-1101.2 2.5-164.1 3.9-246.2 6.4-410.3 77 .8 115.4 1.4 192.4 2.4 188.8 4.9 300.2 8.6 333.9 10.4 56.2 3.1 87.4 5 93 5 35.2.4 59.9-4.1 74.1-13.6 28.2-17.5 42.5-42.1 42.6-73.7.2-39.9-19.4-66.9-58.9-81.1-23.9-8.5-163.4-19.2-414.6-26-157.2-4.3-246.9-4.9-266.7-4.9-69.8 0-114.7 2.8-134.9 8.3-20.3 5.5-33.8 17.3-40.8 35.2-4.2 11-8.3 194.5-9.9 548.4-2.2 456.8-15.6 769.9-43.3 936.3-7 44-10.4 73.6-10.4 88.8 0 24.7 8.4 47.3 25.2 67.9m1145.6-673.3c11.8 12.6 32.7 19.1 60.8 19.5 26.7.5 47.9-10.4 61.2-31.9 13-21 21.8-64.2 27.2-127.4 5.3-63.2 10.8-201.2 16.6-414.2 3.5-135.2 5.2-202.8 8.6-338-10.9-11-16.3-16.4-27.2-27.4-16.9-16.7-37.3-25.3-61.2-25.7-21.2-.4-40.6 6.5-58.3 20.7-17.8 14.1-28.6 33.9-33.1 58.3-4.1 21.7-7.4 169.6-9 443.2-.4 73.4-.6 110.1-1.1 183.5-.8 147 4.2 227.5 15.5 239.4m-13.7 171c-4.3 12.3-6.4 23.9-6.5 34.9-.1 20.7 6.4 37.3 19.6 49.8 13.2 12.6 32.5 19.1 57.7 19.5 23.7.4 42.7-5.5 56.8-17.6 14-12.1 21.2-27.9 21.3-47.1q.15-20.55-8.1-37.2c-12.5-30.5-36.2-46-71.2-46.6-33.6-.6-56.8 14.2-69.6 44.3m1070.1-45c-26.9 18.4-47.8 29.4-62.5 33.1-14.7 3.6-39.6 5.7-74.6 6-9.3-.3-13.9-.4-23.1-.7-67.3-2-135-27.4-203.1-75.7-84.6-60.1-139.4-154.1-163.4-282.5-8.1-40.1-11.9-78-11.6-113.7.9-100.4 34.7-184 101.4-249.2 52.2-50.9 106.3-75.6 161.2-74.1 11.3.3 19.7 1.3 25.3 2.8 36.6 5.1 84.2 23.3 143 54.6 58.7 31.4 109 64.1 148.6 98.5 41.7 36.3 65.4 55.8 70.9 56 9.9.3 19.2 92.7 28 277.3 3.3 66.1 5 99.2 8.3 165.3-13.6 13.5-20.4 20.3-34.1 33.9-22.7 21.2-37.5 31.7-44.5 31.5-7.1-.3-30.3 12-69.8 36.9m221.4 263.2c16.7 7.5 34.2 7.9 52.3 1.9 19.3-6.4 32.7-16 39.2-29.5 6.4-13.5 10-41.6 10.6-84.2.6-37.1-.9-89.5-4-156.8-15.4-336.9-20.3-644.4-18.4-918.6 1.9-285.1-.2-433.8-4.2-443.5-5.3-12.6-12.7-23.9-21.6-33.8-8.8-9.9-29.2-14.9-60.6-14.6s-51.4 4.5-59.9 12.4c-8.5 8-15.9 18.1-21.4 30.2-7.2 16-12.2 138.5-15.2 366.6-1.9 144.3-5.6 216.4-11.2 216.2-5.7-.2-33-14.9-81.9-44-109-65.3-210.1-99.3-303-101.8-49.4-1.4-95.3 7.2-137.7 25.2-36.8 15.7-76.9 41.4-120.1 77.6-43.3 36.1-76.4 71.1-99.1 104.9-54.2 80-81.7 176.4-82.6 289.1-2.2 274.9 105.4 468.6 322.2 582.8 83.4 42 160.6 64.2 231.9 66.2 67 2 135.9-14 205.9-45.2 61-27.1 95.5-40.1 101.1-40 6.9.3 13.6 16.8 18.2 48.2 6.9 47.4 26.1 78.5 59.5 90.7m1175.4-9c16.4 14.3 33.1 22.4 49.9 23.3s35.8-5.5 52.9-19.8c15.6-13 23.8-32.4 24.3-54.4.5-24.6-6.7-79.5-21.7-164.1-41.2-229.3-60.3-425-56.9-587.1 2.6-121 17.5-228.1 44.9-321.5 6.2-27.2 9.5-45.6 9.6-55.2 1.3-60.4-26.2-92.2-82.5-95.3-63.5-3.4-105.6 58.3-126.5 185.2-6.3 34-11.6 50.9-15.8 50.7s-20.1-18.2-47.5-54c-83.7-114.3-188.4-174.5-313.8-180.3-53.6-2.5-96.7 2.9-129.3 15.8-32.7 13-70.5 40-113.4 80.8-67.3 63.1-115.9 149.1-145.7 258-14.9 50.2-23.3 142-25.4 275.3-1.8 115.5 1.8 227.3 10.6 335.7 8.8 108.3 21.8 175.2 37.8 200.5 15.1 23.7 38.6 36.7 70.8 38.1 32.2 1.3 53.4-8.8 63.5-30.4 5.8-10.8 8.9-25.7 9.2-45 .3-16.4-2.6-55.8-8.6-117.9-8.3-87-11.6-187.6-9.7-301.6 2.3-138.8 11-234.7 25.9-287.7 24-85.5 54.5-148.4 91.8-187.8 38.6-41 79.3-60.5 121.5-58.5 97.1 4.5 179 71.4 245.5 200.6 66.4 129.2 104.9 237.3 113.7 322.4 6.3 60.4 20.1 153.4 42.8 277.8 22.7 124.3 38.9 205.1 49.7 240.9 7.5 25 18.9 43.6 32.4 55.5m951.1-149.9c-37 18.1-82 26.6-135.3 25.8-10.9-.7-16.3-1-27.2-1.8-39.2-2.6-70.9-10.2-95.1-22.7-24.2-12.6-52-35.7-83.4-69.4-50.5-54.1-83.3-119.5-98.3-196-6.3-30.7-9.3-49.5-9.2-56.3.3-8.2 3.2-15 9-20.1 31.4-24.2 106.5-35.8 224.1-35.2 21 .1 44.9.9 71.5 2.6 33.7 2.3 68 14 102.4 33.8 32.8 18.9 63.7 46.3 91.5 82.7 27.8 36.3 44.1 69.1 48.9 98.3 1.2 4.2 1.8 10.5 1.6 18.7-1.6 59.1-35.2 105.5-100.5 139.6m-288.4 183c27.7 11.4 67.3 18.8 119 22.2 72.7 4.8 136.6-.5 191.5-15.9 43.7-12.1 87.1-35.9 130.1-71.3 43-35.5 75.7-74 95.7-114.9 21.2-43.1 31.9-86.4 33.1-127.6 2.3-81-31.1-163.7-100.4-246.8-89.2-106.8-202.8-165-338.9-174-4.3-.3-11.6-.5-22.2-.5-10.5 0-18.6-.1-24.2-.5-67.5-.4-125.3 4.2-173.3 13.6-21.2 5.5-42.3 7.6-63.4 6.4-2.5-.2-3.8-.3-6.3-.4-2.7-4.3.9-25.5 11-63.3 10.1-38 22.1-73.1 35.3-105.1 12-29.3 32-58.2 60.1-86 28.2-27.8 57.3-47.9 87-59.4 33.9-13.1 67.4-18.4 99.8-16.2 89.9 5.9 158.6 47.9 205.8 125.4 22.9 36 40.6 59.6 53 69.8 14.7 12.1 31.1 18.6 48 19.9 22.4 1.5 42.6-5.2 60.7-20.5 18-15.1 27.3-34.5 28-57.8.8-30.2-13.2-67.7-42.2-112.4-29.1-44.8-63-80.9-101.7-108.4-81.7-56.6-157-87.2-226-91.8-4.2-.3-10.2-.3-17.9-.2q-11.7.3-20.1-.3c-104.3-1.3-197.6 31.3-279.4 97.7-57.6 47.4-103.1 114.8-136.8 202.2-33.7 87.5-51.7 182.7-54.1 285.8-.9 41.2 1.4 87.6 7.4 138.6 13.7 116.1 51.1 217.7 110.7 303.8 59.6 86.2 136.5 148.8 230.7 187.9m1633.6 132.8c16.2 15 32.7 23.7 49.5 25.2 16.7 1.5 35.8-4.2 53.1-17.9 15.7-12.4 24.2-31.5 25-53.4.9-24.7-5.5-79.8-19.3-165-38-230.7-54.3-427-48.5-589 4.2-120.8 20.7-227.3 49.3-319.7 6.7-27 10.1-45.2 10.4-54.8 2.2-60.4-24.9-93.2-81.1-98.3-63.3-5.7-106.3 54.5-128.9 180.5-6.8 33.8-12.3 50.6-16.5 50.2-4.3-.4-19.9-19-46.7-55.7-82-117.3-185.7-181.4-310.9-191.7-53.5-4.4-96.6-.6-129.4 11.2s-71 37.3-114.5 76.6c-68 60.7-117.8 144.9-149.1 252.6-15.6 49.7-25.3 141.2-29.2 274.4-3.5 115.4-1.5 227.3 5.8 336 7.3 108.5 19.2 175.9 34.9 201.8 14.7 24.3 38.1 38.1 70.2 40.6 32.1 2.6 53.4-6.8 63.9-28 5.9-10.6 9.2-25.4 9.8-44.7q.75-24.6-6.9-118.2c-7.1-87.3-9-187.9-5.5-301.9 4.3-138.6 14.3-234.2 29.9-286.6 25.2-84.6 56.6-146.4 94.4-184.5 39.2-39.5 80.1-57.5 122.2-54.1 97 8.1 177.8 77.9 242.4 209.5 64.5 131.6 101.4 240.9 109 326.5 5.4 60.5 17.9 154.1 38.9 279.2 20.9 125.1 35.9 206.5 46.1 242.6 7.2 25.3 18.3 44.3 31.7 56.6m328.1 40.9c14.8 16.6 35.4 26.2 61.9 28.7 26.5 2.6 46.3-3.1 59.4-14.8 12.3-11.2 23-53.6 30-127.3 4.1-41.7 6.2-62.6 10.3-104.4 25.1 24 37.7 36 62.8 60 46 43.1 99.3 83.4 159.3 119.3 44.8 26.7 77.7 43.8 97.8 51.4 19.9 7.5 56.1 15 107.1 23.5 19.4 3.2 41.7 6.5 66.8 9.2 33.5 3.6 63.7.6 90.7-8.9 49.6-15.3 90.5-37.1 122.5-65.2q48-42.3 49.8-83.4c0-1.4-.2-3.5-.8-6.3s-.8-5-.8-6.3c-9.2-45.1-34.1-69.9-74.6-74.3-27.9-3.1-59.9 5.8-91.6 27.3-43 29.2-87.4 44.3-132 39.6-16.7-1.8-35.5-5.8-56.3-12.1-141.2-41-262.6-144.1-364.3-309.8-13.5-21.2-20.3-31.8-33.8-52.9 2.9-75.5 8.6-189.2 17.3-341.3 8.6-152 14.3-266.4 17.3-343.3-9.7-11.7-14.6-17.5-24.3-29.2-16.1-20.9-36.9-32.5-62.2-35-22.4-2.2-42.4 4.9-60 21.1-27.7 24.9-45.4 142.3-53.2 352.3-1.5 41.1-5.1 163.8-9.4 366.8-4.8 229.1-6 369.9-5.1 420.9s6 82.5 15.4 94.4" style="fill:#100f0d;fill-opacity:1;fill-rule:nonzero;stroke:none" transform="matrix(.00303 0 0 -.00303 54.58 195.577)"/><path d="M15618 10815.6c0-200.9-363.7-1035.6-363.7-1035.6s-363.7 834.7-363.7 1035.6 162.8 363.7 363.7 363.7 363.7-162.8 363.7-363.7m-193.4 1020.6c0-94.1-76.3-170.3-170.3-170.3s-170.3 76.2-170.3 170.3c0 94 76.3 170.3 170.3 170.3s170.3-76.3 170.3-170.3m-170.3-2894.9c.1 87.1 8.6 174.3 20.8 261.3 12.6 87.1 31.5 173.7 57.1 259.4 26 85.6 59.6 170.2 105.1 250.8 45.3 80.5 99.5 159.8 170.3 229.7 70.2 69.5 158.5 128.8 256.9 160.8 48.9 16.1 99.6 26.6 150.2 30.7 50.7 4.6 100.5 3.1 151.7-2.7 101.5-11.2 206.9-44 296.3-106 90.2-60.5 159.7-148.8 201-243.2 41.7-94.8 57.7-195 55.9-291.5-2.1-96.6-20.4-190.7-54.2-278.2-33.7-87.2-81.1-169.2-144.9-236.9-62.8-68.1-143.9-120.9-233.4-144.7-44.3-12.3-91.6-16.3-135.8-15.8-44.7-.1-89.8 3.5-134.4 12.7-88.3 17-179.6 57.7-242 136.4-62.4 78-142.5 325.5-46.8 471.8 61.4 93.8 127.4 117 227.1 121.6 87 4.1 194.6-50.5 194.6-157.5 0-259.8-251.4-156.4-295.4-193.5-52.2-43.9-51.4-133.4-16.3-200.3 33.9-68.3 108.2-114.9 188.7-131.9 40.4-8.9 82.4-11.9 124.4-11.9 42.6-.1 82.4 5.7 121.5 17.6 38.7 12.5 74.9 31.9 107.4 55.8 32.1 24.7 60.7 53.8 84.7 86.4 47.9 65.4 79.3 142.5 94.4 221.5 31.3 157.7 3 325.6-75 444.5-77.9 120.5-199.9 179.2-341.9 187.9-35.2 2.1-72.5 1.6-108.5-.3-35.9-2.4-71.3-5.7-106.2-11.8-69.9-11.5-139.9-31.7-207-68.2-67.3-35.7-129.1-88.7-180.7-152-51.4-63.5-95.5-135.3-133.2-211.1-74.6-152.3-125.8-319.8-152.4-491.4m472.6 1232.5c29.5 74.8 62.3 148.5 97.1 221.6s72.3 145.2 113.4 216.2c40.9 71.1 85.3 141.1 137.7 208.5 28.4 36.1 58.1 72.1 92.4 106.5 47 47.1 125.9 36.3 157.2-22.4 24.5-46 8.6-102.5-35.6-130-31.9-19.9-63.9-43.7-94.8-68.7-58.7-47.3-114.7-102-168.2-159.4-53.9-57.3-105.7-117.6-155.4-180-49.7-62.3-98.1-126.2-143.8-192.3m917.5-1281.2c236.8 121.6 457.3 271.2 653.8 441.3 97.2 86 189.1 176.6 268.5 274.6 79.7 97.5 148.7 201 198.9 309 26.1 53.5 45.6 108.7 62.1 163.3 15.9 53.5 24.1 114.1 35 171.5 14.1 116.1 16.2 230.2-1.2 338.5-18.5 108-53.5 209.7-103.1 301.5-13.1 22.6-26.2 45.1-40.2 66.6-15 21-28.7 42.5-45.1 61.8-15.3 20.1-32.3 38.3-48.5 55.6-8.4 7.9-266.6 268.7-73.1 462.6 234.7 235.2 480.4-24.2 534.6-116.8 21.6-36.9 44.2-72.3 62.6-109.4 19.7-36.5 35.5-74.5 51.8-111.9 15.3-38 28.8-76.5 41.6-114.9 48.2-155 69.4-316 65.4-473.1-5.1-157.4-37.7-308.6-83.8-450.5-26.9-69.9-50.3-138.5-85.8-207.7-35.1-67.4-73.6-132.1-117.6-191.3-86.5-119.8-188.1-222.2-295.6-312.5-107.3-90.8-222.4-167.9-339.8-237.8-236.1-137.4-484.7-244.5-740.5-320.4" style="fill:#912c34;fill-opacity:1;fill-rule:nonzero;stroke:none" transform="matrix(.00303 0 0 -.00303 54.58 195.577)"/><path d="M17005.2 9423.3c55.6 95.4 103.7 194.5 137.6 296.6 33.6 101.8 53.1 206.8 48.7 308.2-4 101.4-30.5 197.8-74.9 284.6-27 53.2-60.4 102.9-98.2 149.8-40.3 49.9-31.3 123.3 18.6 163.6 57.6 46.5 143.5 28.7 177.8-36.9 34.6-66.2 63.4-135.7 83.6-208.3 33.4-118.4 41.3-243.9 22.2-361.8-18.5-118.3-63.2-227.2-118.7-325.6-56-98.6-123.7-187.4-196.7-270.2m2020.3 85.4c0-71.9-58.3-130.2-130.2-130.2-72 0-130.3 58.3-130.3 130.2 0 72 58.3 130.3 130.3 130.3 71.9 0 130.2-58.3 130.2-130.3m-424.7-195.1c30.8-123.9-44.7-249.3-168.6-280.1-123.9-30.7-543.2 102-543.2 102s307.9 315.9 431.7 346.7c123.9 30.7 249.3-44.7 280.1-168.6m-3346.5-372.5c-.1 87.2-8.6 174.4-20.8 261.4-12.6 87.1-31.5 173.6-57.1 259.4-26 85.5-59.6 170.1-105.1 250.8-45.4 80.5-99.5 159.8-170.3 229.7-70.2 69.5-158.5 128.7-256.8 160.8-49 16-99.7 26.6-150.3 30.7-50.7 4.5-100.5 3-151.7-2.8-101.5-11.1-206.9-44-296.3-105.9-90.3-60.6-159.7-148.8-201-243.2-41.7-94.8-57.7-195-55.9-291.5 2.1-96.6 20.4-190.7 54.2-278.2 33.7-87.2 81.1-169.2 144.9-236.9 62.8-68.1 143.9-120.9 233.4-144.7 44.3-12.3 91.6-16.3 135.8-15.8 44.7-.1 89.8 3.5 134.4 12.6 88.3 17.1 179.6 57.8 242 136.4 62.4 78 142.5 325.6 46.8 471.9-61.4 93.8-127.4 117-227.1 121.6-87 4.1-194.6-50.6-194.6-157.5 0-259.8 251.4-156.4 295.4-193.5 52.2-43.9 51.4-133.5 16.3-200.4-33.9-68.2-108.2-114.8-188.7-131.8-40.4-8.9-82.4-11.9-124.4-12-42.6 0-82.4 5.8-121.5 17.7-38.7 12.5-74.9 31.8-107.4 55.8-32.1 24.7-60.7 53.8-84.7 86.4-47.9 65.4-79.2 142.5-94.4 221.5-31.3 157.7-3 325.6 75 444.5 77.9 120.5 199.9 179.2 341.9 187.8 35.2 2.2 72.5 1.7 108.5-.3 35.9-2.4 71.3-5.7 106.2-11.7 69.9-11.5 139.9-31.7 207-68.2 67.3-35.8 129.1-88.7 180.7-152 51.4-63.5 95.5-135.3 133.2-211.2 74.6-152.3 125.8-319.7 152.4-491.4m-472.6 1232.6c-29.5 74.8-62.3 148.5-97.1 221.5-34.8 73.2-72.3 145.3-113.4 216.3-40.9 71.1-85.3 141.1-137.7 208.5-28.4 36.1-58.1 72.1-92.4 106.5-47 47-125.9 36.3-157.2-22.5-24.5-46-8.6-102.4 35.6-130 31.9-19.8 63.9-43.6 94.8-68.6 58.7-47.3 114.7-102 168.2-159.4 53.9-57.3 105.7-117.7 155.4-180s98.1-126.2 143.8-192.3m-917.5-1281.2c-236.8 121.6-457.3 271.2-653.8 441.3-97.2 86-189.1 176.5-268.5 274.6-79.7 97.5-148.7 201-198.9 308.9-26.1 53.5-45.6 108.7-62.1 163.4-15.9 53.5-24.1 114.1-35 171.5-14.1 116.1-16.2 230.2 1.2 338.5 18.5 108 53.5 209.7 103.1 301.5 13.1 22.6 26.2 45 40.2 66.6 15 21 28.7 42.5 45.1 61.7 15.3 20.1 32.3 38.3 48.6 55.6 8.3 8 266.5 268.8 73 462.6-234.7 235.3-480.4-24.1-534.6-116.7-21.6-37-44.2-72.3-62.6-109.4-19.7-36.5-35.5-74.5-51.8-112-15.3-37.9-28.8-76.4-41.6-114.8-48.2-155-69.4-316-65.4-473.1 5.1-157.4 37.7-308.6 83.8-450.6 26.9-69.8 50.3-138.4 85.8-207.6 35.1-67.5 73.6-132.1 117.6-191.3 86.5-119.8 188.1-222.2 295.6-312.5 107.3-90.9 222.4-167.9 339.8-237.9 236.1-137.4 484.7-244.4 740.5-320.3" style="fill:#912c34;fill-opacity:1;fill-rule:nonzero;stroke:none" transform="matrix(.00303 0 0 -.00303 54.58 195.577)"/><path d="M13503.4 9423.2c-55.5 95.3-103.7 194.5-137.6 296.5-33.6 101.9-53.1 206.9-48.7 308.3 3.9 101.4 30.5 197.7 74.9 284.6 27 53.1 60.4 102.9 98.2 149.7 40.3 49.9 31.3 123.4-18.6 163.6-57.6 46.6-143.5 28.8-177.8-36.8-34.6-66.2-63.4-135.8-83.6-208.3-33.4-118.4-41.3-244-22.2-361.8 18.5-118.3 63.2-227.3 118.7-325.7 56-98.5 123.7-187.4 196.7-270.1m-2020.3 85.4c0-71.9 58.3-130.3 130.2-130.3 72 0 130.3 58.4 130.3 130.3s-58.3 130.2-130.3 130.2c-71.9 0-130.2-58.3-130.2-130.2m424.7-195.1c-30.7-123.9 44.7-249.3 168.6-280.1s543.2 101.9 543.2 101.9-307.9 315.9-431.7 346.7c-123.9 30.8-249.3-44.7-280.1-168.5" style="fill:#912c34;fill-opacity:1;fill-rule:nonzero;stroke:none" transform="matrix(.00303 0 0 -.00303 54.58 195.577)"/></svg>