<svg xmlns="http://www.w3.org/2000/svg" xml:space="preserve" width="200mm" height="200mm" viewBox="0 0 200 200"><g style="display:inline"><path d="M10716 41246.6c-252.7 0-480.8 34.3-646.3 68.6-129.87 26.9-221.16 53.7-255.46 64.1-6.17 41.1-10.19 81.4-10.24 119.8-.01 5.7.08 11.4.25 17.1 3.23 102.8 16.68 202.9 35.41 300.9 5.93-2.8 11.96-5.7 18.09-8.5 175.75-83 438.45-207 916.35-207 16 0 32.3.2 48.7.4 401.1 6.9 645.1 88.4 857.8 162.8 7-59 11.1-119.1 11-180.5-.1-53.9-6.5-116.4-15-183.5-171.9-123.1-525.4-147.2-913.8-153.8-15.7-.3-31.3-.4-46.8-.4m-791.1 2007.9c-16.32 88.7-23.93 176.4-.24 248.7-4.1-87.3-3.79-142.2.24-248.7m-94.23-2991.3s-771.06-642.3-752.71-1415.1c17.9-753.6 427.01-5399.6 427.01-5399.6l639.73-130.2s-294.88 5227.3-201.87 5662.9c94.27 441.4 286.67 1310.4-112.16 1282" style="fill:#fff;fill-opacity:1;fill-rule:nonzero;stroke:none" transform="matrix(.0144 0 0 -.0144 -54.351 656.083)"/><path d="M11716.6 40658.3c-16 74.2-57.8 145.3-63.8 212-14.6 161.1 25.8 297.5 30.6 394.5 4.1 82.4 21 158.2 25.2 162.1-156.7-145.9-531.4-172.9-945.8-179.9-271.3-4.6-517.5 31.8-693.1 68.2-167.2 34.6-270.46 69.2-270.48 68.5-8.21-262 152.84-457.1-6.56-669.6-158.07-210.7-692.6-419.3-867.08-612.1-405.43-448.1-329.18-1025.6-303.9-1575.4 40.77-886.1 481.84-4700 493.39-4875.7 16.03-243.9-80.1-341.2-82.32-585-1.75-190.5-25.91-153.1-37.33-115.7-11.37 37.2-10.13 74.4 38.35-113.1 108.83-421 1045.03-510.2 1437.63-527.9 331.4-15 665.8 8.1 993.8 34.5 256.9 20.7 643 156.9 847.2 314 144.1 110.8 93.7 107.6 106 432.5 7.9 210.9-88.6 315.3-76 534.3 11 191.9 417.5 4029.9 479.6 4893.8 39.6 551.9 59.9 1073-369.2 1534.9-163.4 175.8-610.4 390.6-736.2 605.1" style="fill:#ca851a;fill-opacity:1;fill-rule:nonzero;stroke:none" transform="matrix(.0144 0 0 -.0144 -54.351 656.083)"/><path d="M9086.54 39783.5c-130.56-113.3-197.28-283.6-182.1-455.8 95.68-1085.6 496.77-5652.4 484.08-5779.4-14.41-144.1-158.52-461.1-86.46-590.8 72.05-129.7 581.22-254.6 667.7-168.2 86.44 86.5-57.66 634.1-57.66 691.8 0 57.6-219.6 6167.8-216.15 6225.3 22.94 382.3-322.24 326.5-609.41 77.1M11997 33699.6c-3.5 0-7.1.2-10.6.5-59.4 5.8-102.9 58.7-97.1 118.1l518.7 5331.9c5.8 59.4 58.7 103 118.1 97.1 59.4-5.8 102.9-58.6 97.1-118.1l-518.8-5331.9c-5.4-55.8-52.5-97.6-107.4-97.6m-1958.2 7297.2c115.3-19.8 201.7 286.4 201.7 286.4s-280.96 52.2-311.58 63 20.05-334 109.88-349.4" style="fill:#dfb45c;fill-opacity:1;fill-rule:nonzero;stroke:none" transform="matrix(.0144 0 0 -.0144 -54.351 656.083)"/><path d="M10165.5 43671.6c-18.3 0-33.8-2.6-45.5-8.3-10.5-5.2-17.1-12.8-20.7-24-87-269.5-75-614.1-69.3-713.3 16.3-281.8-49.4-535.4-112.91-780.6-52.08-201.1-105.93-409-112.84-629.2-2.83-90.5 18.69-192.9 39.5-292 39.28-186.8 79.88-379.9-29.76-526.1-87.48-116.6-281.91-230.2-469.94-340-164.55-96.2-319.98-187-398.71-274-359.71-397.6-331.95-907.1-305.11-1399.8 2.85-52.4 5.7-104.6 8.08-156.5 29.71-645.6 274.54-2868.8 406.07-4063.1 50.66-460 84.13-763.9 87.3-812 8.95-136.3-18.7-223.2-47.97-315.4-24.31-76.4-49.43-155.5-55.22-271.2-3.43-68.7-4.97-148 20.43-220.2 148.14-420.8 1119.48-496.8 1413.68-510.1 332.8-15 671.8 8.8 990.5 34.5 263.1 21.1 636.9 159.6 833.2 308.6 57.2 43.4 83.5 95.6 95.4 412.3 3.8 98.7-16.1 172.3-37.2 250.1-22.3 82.7-45.5 168.2-38.7 284.8 4 70.4 61.2 630.6 133.5 1339.9 129.4 1268.2 306.6 3005.1 346.1 3554.3 35.1 489.4 75 1044.2-362.2 1514.8-65.6 70.6-180.1 148.9-301.3 231.8-177.8 121.5-361.6 247.1-438.3 378-98.4 167.7-62.1 429.2-30.1 659.8 14.4 103.2 27.9 200.6 28.1 279.6.4 214.7-50.3 413.4-99.4 605.6-63.2 247.5-128.6 503.5-82.8 791.6 18.7 117.8 5 226-10.8 351.2-8.4 66.3-17 134.8-21.5 210.3-.5 9-2.5 20.6-9 24.7-21.9 13.7-93.7-15.5-146.1-36.9-48.4-19.7-98.4-40.1-140.1-45-109.7-12.9-222.1-1.2-330.8 10.2-32.9 3.5-66.9 7-99.9 9.8-64.4 5.4-159.9 40.1-260.9 76.8-111.4 40.5-244.9 89-324.8 89m523.1-11393.8c-72.9 0-145.8 1.5-218.4 4.8-302.6 13.6-1302.35 93.3-1461.58 545.6-28.6 81.3-27.07 166.8-23.36 240.6 6.11 122.6 32.31 205 57.64 284.7 27.7 87.2 53.86 169.5 45.57 295.7-3.08 46.9-38.32 366.8-87.09 809.6-131.59 1195-376.55 3419.2-406.33 4066.6-2.38 51.8-5.21 103.8-8.06 156-27.44 503.6-55.8 1024.4 318.81 1438.5 84.27 93.1 243.14 185.9 411.37 284.2 183.45 107.2 373.15 218 454.17 326 95.14 126.9 58.75 299.9 20.23 483.2-21.46 102.1-43.65 207.6-40.61 304.5 7.1 226.2 61.71 437.1 114.51 641 62.47 241.2 127.08 490.7 111.28 764.1-5.85 101.5-17.99 454.5 71.75 732.8 8.2 25.2 24.3 43.9 48 55.5 83.5 40.9 250.5-19.8 412-78.5 97.6-35.5 189.8-69 247.1-73.8 33.7-2.8 67.9-6.4 101-9.8 105.9-11.1 215.3-22.6 319-10.4 34.5 4.1 81.2 23.1 126.2 41.5 77 31.3 149.6 61 194.7 32.6 20.6-13 32-35.4 33.8-66.7 4.4-73.7 12.9-141.3 21.2-206.7 15.7-123.9 30.4-241 10.5-366.3-44-277.2 17.1-516.6 81.8-770.1 49.9-195.3 101.5-397.3 101.1-618.8-.2-82.6-14-181.8-28.5-286.8-30.9-222.1-65.9-473.8 23.2-625.6 70.7-120.5 249.4-242.7 422.3-360.9 123.8-84.6 240.7-164.5 310.4-239.5 453-487.7 412.2-1054.7 376.3-1555-39.6-550-216.8-2287.3-346.2-3555.8-72.3-708.7-129.4-1268.4-133.4-1337.6-6.2-107.9 14.8-185.6 37-267.8 21.2-78.2 43.1-159.2 39-266-12.2-323.3-38.4-393.5-116.5-452.7-203.1-154.3-589.4-297.5-861.2-319.4-251-20.2-514.7-39.3-778.7-39.3" style="fill:#231f20;fill-opacity:1;fill-rule:nonzero;stroke:none" transform="matrix(.0144 0 0 -.0144 -54.351 656.083)"/><path d="m12549.2 38371.1-201.7-2040.8c-7.8-100.5-101.8-186.2-235.1-219.4-12.2-3-24.9-5.6-37.9-7.7-757.7-124.4-1461.5-143.4-2253.09-41.1-156.92 20.3-317.32 45.2-482.31 75.2-63.27 11.4-118.89 34.5-162.55 65.4-58.95 41.5-96.13 97.3-101.45 158.5l-177.7 2056.7c-5.32 62.2 22.64 121.8 72.2 168.5 73.94 70 196.13 111.5 326.85 90.8 143.81-22.9 289.49-45.8 435.48-66.7 355.47-51.1 712.57-90.8 1048.97-93.4 449.3-3.5 843.9 54.2 1334.1 130.8 82.7 13 168-2.7 240.8-35.6 116-52.1 200.6-148 193.4-241.2" style="fill:#316039;fill-opacity:1;fill-rule:nonzero;stroke:none" transform="matrix(.0144 0 0 -.0144 -54.351 656.083)"/><path d="M9821.41 36062.1c-156.92 20.3-317.32 45.2-482.31 75.2-63.27 11.4-118.89 34.5-162.55 65.4-72.78 848.8-150.16 1735.2-206.95 2383.7 61 57.8 154.85 96.1 259.22 96.1 22.14 0 44.74-1.7 67.63-5.3 143.81-22.9 289.49-45.8 435.48-66.7 24.5-707 58.07-1657.7 89.48-2548.4m2290.99 48.8 243.4 2501.4c111.5-50.1 193.9-140.5 193.8-230.3 0-3.6-.1-7.3-.4-10.9l-201.7-2040.8c-7.8-100.5-101.8-186.2-235.1-219.4" style="fill:#83a586;fill-opacity:1;fill-rule:nonzero;stroke:none" transform="matrix(.0144 0 0 -.0144 -54.351 656.083)"/><path d="M9385.22 37767.1c6 6.3 12.85 9.2 20.55 8.6 9.25-.6 16.72-5.8 22.41-15.4 3.33-5.2 4.78-12.4 4.32-21.6-.69-13.5-4.11-39.7-10.21-78.7q-17.13-108.6-24.69-256.8c-3.13-61.3-3.61-106-1.42-133.8 6.32-88.5 20.69-140.4 43.1-155.6 8-4.9 15.59-7.6 22.79-8.1 9.24-.7 16.8 1.2 22.71 5.7 12.31 9 23.98 33.2 35.03 72.8 11.02 39.5 28.4 120 52.13 241.4 12.41 61.3 20.17 97.5 23.32 108.7 3.15 11.1 7.71 19.9 13.72 26.2 9.8 10.4 18.82 15.3 27.04 14.7 17.45-1.3 26.84-19.5 28.14-54.7 3.97-93.9 9.36-170 16.19-228.4 13.35-102 40.85-169.2 82.48-201.8l17.06-14.2 10.53 9.4c12.89 10.2 25.77 35.1 38.62 74.8 12.84 39.7 22.32 83.9 28.42 132.8 4.21 32.3 7.75 76.1 10.57 131.3 3 58.9 4.58 115.4 4.77 169.6q.42 53.55 2.34 91.2c.69 13.5 1.32 20.9 1.9 22.1 1.32 6 5.31 11 11.97 14.8 6.62 3.8 13.28 5.5 19.97 5 2.57-.2 5.35-1 8.37-2.4 9.04-5 14.92-13.3 17.68-24.9s4.3-34.3 4.65-68.2c.72-36.4-1.38-102.7-6.29-199-4.82-94.5-9.15-154.2-13-179.2-6.44-45.1-16.76-88.2-30.96-129.4-14.22-41.1-29.02-71-44.39-89.6-8.82-11-19.96-19.9-33.45-26.6-13.48-6.7-25.37-9.7-35.64-9l-5.39.4c-29.02 7.1-57.25 29.7-84.68 68.1q-47.745 64.35-63.33 168c-4.16 29.9-6.99 44.9-8.54 45-2.05.2-9.03-25.5-20.93-77-10.48-43.6-19.7-75.4-27.67-95.4-7.99-20-18.25-36.7-30.78-50-22.34-23.6-47.64-34.4-75.88-32.3-14.38 1-28.34 5.1-41.89 12.3-11.06 5.7-22.52 16.1-34.37 31.1-11.87 15.1-20.52 29.8-25.97 44.4-24 65.1-32.78 160.6-26.36 286.4 4.19 82.2 14.43 172 30.74 269.3 9.67 58.4 17.79 91.1 24.32 98m632.18-67.7c5.8 5.9 12.3 8.7 19.5 8.5 7.2-.3 13.3-4.3 18.2-11.9 4.9-7.5 8-17.8 9.2-30.8 1.7-12.3 2.4-59.1 2.2-140.3l-.3-117.1 19.1 18.6c14.8 14.2 31.7 25.6 50.8 34.4 19 8.7 45.6 12.5 79.8 11.5 34.2-1.1 63.3-16.3 87.2-45.5 26.3-33.1 39.1-82.2 38.2-147.3l-.3-12c-.9-33.2-3.3-84.1-7.1-152.9-3.7-68.7-6.6-110.7-8.6-126-1.4-14.7-5.5-26.4-12.2-35-6.6-8.6-14.1-12.8-22.3-12.5-8.3.4-15.6 4.7-22.1 12.9-4.4 5.7-7.1 12.1-7.9 19.2-.8 7.2-.8 25.1 0 54 .9 33.2 4 85.3 9.1 156.5 2.3 27.5 3.8 52.1 4.4 73.6 1.5 51.6-2.7 86.5-12.5 104.7-9.7 18.3-28.8 28.3-57 30l-3.1.1c-23.7 1-44-3.6-61-13.6-17.1-10.1-34.2-28-51.4-53.7-16.6-25.2-26.5-46.2-29.6-62.9-3-16.9-5.9-65.2-8.7-145l-4.8-140.9-9.6-12.5q-11.25-12.45-24.3-12c-9.8.4-17.88 5.7-24.27 15.8l-8.12 13.2 10.22 222.8c1.87 47.9 4.45 115.8 7.71 203.6s5.06 138.5 5.46 152l3.8 132.6zm414.6-352.9c4.7 5.5 12.1 8.3 22.4 8.3 9.8 0 17.3-4.9 22.4-14.7 4.6-9.9 7.8-29 9.7-57.2 1.7-28.3 3.4-90.1 5-185.3l2.3-151.2-10-12c-6.2-7.4-13.7-11.1-22.4-11.1-7.7 0-14.8 3.3-21.3 9.7-6.4 6.5-10.4 15.2-11.9 26.3-1.6 9.8-2.3 75.9-2.3 198.2v82.1c0 65.7 2 101.4 6.1 106.9m-4.6 76.5c-1.5 5.5-2.3 10.8-2.3 15.7 0 9.2 2.4 16.6 7.3 22.1 4.9 5.6 12 8.3 21.3 8.3 8.7 0 15.6-2.7 20.8-8.3 5.1-5.5 7.7-12.6 7.7-21.2 0-6.1-1-11.7-3.1-16.6-4.6-13.5-13.4-20.3-26.2-20.3-12.4 0-20.9 6.8-25.5 20.3m216.1 38.7c16.5 4.3 33.2 6.4 50.2 6.4s33.7-2.1 50.1-6.4q67.95-23.1 110.4-101.4c11.3-21.6 17-39.7 17-54.4 0-7.4-1.5-14.5-4.6-21.2-4.7-8-10.1-12-16.3-12-.5 0-1.5.1-3 .4-1.6.4-2.9.5-3.9.5-7.7.6-13.2 2.8-16.6 6.5-3.3 3.6-9.9 14.1-19.7 31.3-11.9 23.4-23.7 40.3-35.6 50.7-20.7 17.8-46.5 26.8-77.5 26.8-17.1 0-32.8-3.7-47.3-11.1q-24-12-24-63.6 0-24 12.3-37.8c9.8-12.3 39.6-32.6 89.6-60.9 38.5-21.5 68.1-43.6 88.7-66.3 20.6-22.8 37.8-51.7 51.7-86.7 8.2-22.7 12.4-46.4 12.4-71 0-26.4-3.6-48.9-10.8-67.3-20.6-51-60.6-81.7-120.1-92.2-10.3-1.8-20-2.8-29.3-2.8q-54.6 0-93.9 36.9c-26.2 24.6-44.9 59-56.2 103.3-5.2 20.9-7.7 37.2-7.7 48.8 0 29.5 10.7 44.3 32 44.3 18.8 0 29.8-12.6 32.8-37.8 6.7-49.8 23.8-83.9 51.2-102.3 8.2-5.6 22.7-8.3 43.4-8.3 18.1 0 32.5 2.1 43.4 6.4 14.4 5.5 25.8 12.9 34.1 22.1q10.05 11.1 12 17.1c1.3 4 1.9 13 1.9 27.2 0 18.4-2.4 34.4-7.3 47.9s-14.3 28.9-28.2 46.1c-14.9 18.5-43.5 40-85.7 64.6-54 31.9-89.8 59-107.2 81.1-17.5 22.1-26.3 51-26.3 86.7 0 81.1 29.4 130.6 88 148.4m329.4 192.6c9.3.7 16.6-1.8 22.1-7.5.5-.6 1.5-1.4 2.8-2.6 1.4-1.1 2-1.8 2.1-2.1 0-.3.4-1.4 1.3-3.1.9-1.8 1.4-4 1.5-6.4s.4-5.7.9-9.6c.5-4 .9-9 1.2-15.2.6-9.8 2.3-66 5.3-168.6 1.6-58.4 3.4-105.1 5.3-140 1-17.8 1.7-27 2.3-27.6 0-.6.5-.9 1.6-.8 5.6.4 31.6 29.6 78 87.4 25.6 30.9 50.8 57.8 75.6 80.6 24.8 22.9 41.6 34.7 50.3 35.3 19 1.5 29.1-7.9 30.2-28.1.5-9.8-1.4-18-5.7-24.5-4.3-6.4-16-19.1-35-37.8-22.6-22-47.6-50.5-75.1-85.2-29.9-38.1-48.2-60.8-55.1-68.1-6.8-7.3-15.4-19.3-25.8-36.1-10.5-16.9-15.6-27.1-15.4-30.8.8-14.7 41.1-48.9 120.8-102.4 50.3-33.7 82.9-56.6 97.7-68.7s22.5-23 23.1-32.8c.2-3.7-1.3-10-4.4-18.8-5-13.4-12.3-20.4-22.1-21.2-12.8-1-34.3 9.1-64.3 30.2-10.2 7.8-34.5 24.1-73 48.8s-63.7 42.2-75.5 52.4c-10.3 8.4-15.9 12.6-17 12.5-2-.1-2.4-21.4-1.1-63.8q1.65-45.15.3-56.4c-.9-7.4-3.2-14.1-7-19.9-5.7-9-13.2-13.9-22.4-14.7q-13.2-.9-24.6 11.1l-10.7 11.2-4.8 145.6c-10.5 297.8-14 472.8-10.7 524.8 1.4 22.9 4.2 37.3 8.5 43.1 4.3 5.9 10.6 9.2 18.8 9.8m580.4-243.3c-14 7.8-30.8 11.2-50.4 10.5l-10-1.1c-14.3-1.5-25.8-5.1-34.4-11-8.7-5.8-18.3-16.4-29.1-31.7-17.3-24.6-27.8-54.1-31.5-88.4q-2.4-20.55-2.1-25.2c.3-3.6 1.5-6.6 3.8-8.8 12.1-10.5 39.8-15 83.1-13.6 7.7.2 16.4.8 26.2 1.8 12.3 1.3 24.5 6.5 36.8 15.8 11.8 8.7 22.3 21.2 31.7 37.6 9.4 16.3 14.7 31.1 15.8 44.2.4 1.8.4 4.6.2 8.3-1.9 26.3-15.3 46.8-40.1 61.6m-110.4 79.2c10 5.3 24.4 9 43.4 11 26.6 2.7 50.3.9 70.9-5.6 16.4-5.1 32.9-15.5 49.5-31q24.9-23.25 37.8-50.7c8.6-19.4 13.6-38.3 14.9-56.7 2.7-36.2-7.8-73-31.4-110.6-30.6-48.2-70.8-74.9-120.5-80.1-1.5-.1-4.2-.3-8.1-.3-3.9-.1-6.8-.3-8.9-.5-24.7-.7-46 .8-63.8 4.5-7.9 2.2-15.7 3-23.4 2.2l-2.3-.3c-.9-1.9.9-11.3 5.5-28.1s9.7-32.3 15.4-46.5c5.1-13.1 13.1-25.6 24-37.8 11-12.1 22.1-20.7 33.3-25.7 12.8-5.4 25.1-7.6 36.8-6.3 32.9 3.4 57 22.5 72.6 57.5 7.6 16.2 13.5 26.7 17.8 31.4 5.3 5.5 11 8.6 17.2 9.2 8.2.9 15.7-2 22.7-8.7 6.9-6.7 10.8-15.3 11.5-25.7 1-13.4-3.3-30.2-13-50.4q-14.4-30.15-34.8-48.9c-28.5-25.8-55.4-40-80.5-42.6-1.6-.2-3.8-.2-6.6-.2s-5.3-.1-7.3-.3c-38.1-1.5-73 12.2-104.5 41-22.1 20.5-40.4 50-54.9 88.6-14.4 38.7-23.3 80.9-26.6 126.8-1.3 18.4-1.6 39.1-.6 62 2.4 52 13.5 97.6 33.4 136.7s46.7 67.8 80.5 86.1m611.6 101.7q3 2.1 9.9 2.4 12.3.6 22.8-9.9c3.7-3.5 5.7-9.2 6-17.2.1-1.2-.1-9.9-.6-25.9-1.8-21.6 0-104.6 5.2-248.8 3.1-99.5 4.9-161.3 5.2-185.3.4-23.9-.8-41.2-3.5-51.8-16.5-84.6-82.5-130.1-198.2-136.8-78.7-2.2-115.7 10.6-111.1 38.6-.6 16.5 6 28.6 19.6 36 6.5 3.5 12.7 5.3 18.3 5.6 4.1.2 14.7-.8 31.8-2.9 25.9-3.6 47.6-5 65-4.1 37 2 64.7 13.3 83 33.9 12.8 15.4 21.7 33.9 26.6 55.4 4.8 21.4 6.6 51.5 5.2 90.2-.7 17.8-1.4 31.9-2.3 42.3-3.9 50.3-6.1 75.4-6.6 75.4l-29.6-36.7c-35.5-44.2-70.2-67.3-104.1-69-8.2-.5-17 0-26.3 1.4-72.1 12.4-117 66-134.9 160.9-7.1 40.2-11.4 78.8-12.7 115.6-1.9 51.6 1.3 83.4 9.6 95.5 4.9 6.5 11.3 9.9 19 10.3 8.2.4 15.3-2.6 21.2-9.1 4.3-4.7 7-10.5 8.3-17.5s2.5-25.3 3.6-54.8c3.6-100.1 17-163.7 40.1-190.7 18.3-21.9 41.9-32 70.7-30.5 5.1.3 11.2 1.8 18.4 4.6 8.5 4.8 21.7 18 39.4 39.8 17.3 22.4 32.2 51.1 44.8 86.1 17.8 50 28.7 95.3 32.9 136 2.9 33.9 10.6 54.2 23.3 61" style="fill:#fff;fill-opacity:1;fill-rule:nonzero;stroke:none" transform="matrix(.0144 0 0 -.0144 -54.351 656.083)"/><path d="M9437.13 36262.9c-2.09 0-4.21.2-6.33.7-61.31 12.1-94.83 19.7-96.23 20.1-17.47 4-28.38 21.4-24.38 38.8 4 17.5 21.41 28.4 38.89 24.4.33 0 34.08-7.7 94.31-19.7 17.59-3.4 29.03-20.5 25.54-38.1-3.05-15.5-16.62-26.2-31.8-26.2m352.42-60.4c-1.6 0-3.2.1-4.82.3-68.71 10.2-136.87 21.2-202.58 32.7-17.66 3.1-29.48 19.9-26.4 37.5 3.08 17.7 19.85 29.5 37.56 26.4 65.17-11.3 132.78-22.2 200.96-32.4 17.74-2.6 29.97-19.1 27.34-36.8-2.39-16.2-16.25-27.7-32.06-27.7m1932.45-12.9c-15.5 0-29.2 11.1-32 26.9-3.1 17.7 8.8 34.5 26.4 37.6 67.2 11.6 134.3 24.7 199.4 38.6 17.5 3.8 34.8-7.3 38.6-24.9 3.7-17.5-7.4-34.8-24.9-38.5-66-14.2-134-27.4-201.9-39.2-1.9-.3-3.8-.5-5.6-.5m-1577.7-32.3c-1.2 0-2.3 0-3.5.2-67.6 7.2-136.1 15.3-203.69 24.1-17.77 2.3-30.31 18.6-27.99 36.4s18.64 30.3 36.38 28c67.1-8.8 135.1-16.8 202.2-24 17.8-1.9 30.7-17.9 28.8-35.7-1.7-16.6-15.8-29-32.2-29m1223.5-17.2c-16.4 0-30.5 12.4-32.2 29.1-1.9 17.8 11 33.8 28.9 35.6 66.5 7 134.3 15.5 201.5 25.3 17.7 2.6 34.2-9.8 36.8-27.5 2.5-17.8-9.8-34.2-27.5-36.8-68-9.8-136.7-18.4-204-25.5-1.2-.2-2.3-.2-3.5-.2m-867.2-13.1-2.1.1c-67.5 4.3-136.3 9.5-204.5 15.5-17.9 1.6-31.1 17.3-29.5 35.2 1.5 17.8 17.4 31 35.2 29.4 67.7-5.9 136-11.1 202.9-15.3 17.9-1.1 31.5-16.5 30.4-34.4-1.1-17.2-15.4-30.5-32.4-30.5m510.5-11.5c-17.4 0-31.9 13.9-32.4 31.5-.6 17.9 13.5 32.9 31.4 33.4 66.5 2.1 134.7 5.7 202.7 10.8 17.7 1.3 33.4-12.1 34.8-30 1.3-17.8-12.1-33.4-30-34.8-68.9-5.1-138.1-8.8-205.5-10.8zm-153.2-2h-.2c-33.2.2-66.7.7-99.4 1.7-35.7 1-71.1 2.3-106.1 3.8-17.9.7-31.8 15.9-31 33.8s15.9 31.8 33.8 31c34.7-1.5 69.8-2.7 105.1-3.8 32.2-.9 65.2-1.4 97.9-1.6 18-.1 32.4-14.7 32.3-32.6 0-17.9-14.6-32.3-32.4-32.3m1213.8 149.6c-14.5 0-27.7 9.8-31.5 24.6-4.3 17.4 6.3 35 23.6 39.4 59 14.7 92.4 24.6 92.7 24.7 17.2 5.1 35.3-4.7 40.4-21.8 5.1-17.2-4.7-35.3-21.9-40.4-1.4-.4-34.8-10.3-95.4-25.5-2.6-.7-5.3-1-7.9-1m-2385.31 169.7c-1.88 0-3.79.2-5.71.5-60.32 10.7-95.99 17.8-96.34 17.9-17.58 3.5-28.99 20.6-25.49 38.2 3.5 17.5 20.65 28.9 38.17 25.4.35 0 35.44-7 95.02-17.6 17.65-3.1 29.42-20 26.28-37.6-2.8-15.8-16.49-26.8-31.93-26.8m383.81-59.6c-1.5 0-2.9.1-4.4.3-63.4 8.5-128.33 17.8-192.9 27.9-17.72 2.7-29.85 19.3-27.1 37 2.74 17.7 19.32 29.9 37.05 27.1 64.12-9.9 128.55-19.3 191.55-27.6 17.8-2.4 30.3-18.8 27.9-36.5-2.2-16.3-16.1-28.2-32.1-28.2m1355.3-23.6c-16.4 0-30.4 12.3-32.2 28.9-2 17.8 10.9 33.8 28.7 35.8 63.1 6.8 127.7 14.7 192 23.4 17.8 2.5 34.1-10 36.5-27.8s-10-34.1-27.8-36.5c-64.8-8.8-130-16.7-193.7-23.7-1.2-.1-2.3-.1-3.5-.1m-969.2-18.4-2.7.1c-62.4 5.1-127.7 11.4-194.2 18.6-17.8 2-30.7 18-28.8 35.8 2 17.9 18.1 30.7 35.9 28.8 65.8-7.2 130.6-13.4 192.3-18.4 17.9-1.5 31.2-17.2 29.8-35-1.4-17-15.6-29.9-32.3-29.9m582-12.1c-17.3 0-31.6 13.6-32.4 31-.8 17.9 13.1 33.1 31 33.9 61.9 2.8 126.7 6.8 192.7 12.1 17.7 1.4 33.5-11.9 34.9-29.8 1.5-17.9-11.9-33.5-29.8-34.9-66.7-5.3-132.3-9.5-194.9-12.3zm-202.7-4.8c-29.9 0-59.5.3-88 1-32 .8-65.3 1.9-99.1 3.5-17.9.8-31.7 16-30.9 33.9s16.1 31.6 33.9 30.9c33.3-1.5 66.1-2.6 97.7-3.4 27.9-.7 57-1 86.4-1h8.6c17.9 0 32.4-14.5 32.4-32.4.1-17.9-14.4-32.5-32.4-32.5zm974.6 87.3c-15.7 0-29.4 11.3-32 27.2-2.9 17.7 9.1 34.4 26.8 37.3 59.6 9.7 94.7 16.3 95.1 16.3 17.6 3.4 34.6-8.2 37.9-25.8s-8.3-34.6-25.9-37.9c-1.4-.3-36.2-6.9-96.7-16.7-1.8-.3-3.5-.4-5.2-.4m-2318.85 1766.2c-2.05 0-4.14.2-6.23.6-60.27 11.7-95.73 19.4-96.08 19.5-17.52 3.8-28.64 21-24.83 38.6 3.81 17.5 21.05 28.6 38.61 24.8.34-.1 35.19-7.6 94.68-19.2 17.6-3.4 29.1-20.5 25.67-38.1-3-15.5-16.59-26.2-31.82-26.2m2205.45-58.5c-16 0-30 11.8-32.2 28.1-2.4 17.8 10.1 34.1 27.9 36.5 64.4 8.7 130 18.1 194.7 27.8 17.8 2.8 34.3-9.5 37-27.2s-9.6-34.3-27.3-36.9c-65.1-9.9-131-19.3-195.8-28-1.4-.2-2.9-.3-4.3-.3m-1865.47-.5c-1.64 0-3.3.1-4.98.4-64.89 9.9-130.6 20.8-195.3 32.2-17.65 3.1-29.45 19.9-26.34 37.6 3.11 17.6 19.91 29.5 37.6 26.3 64.24-11.3 129.48-22.1 193.91-32 17.72-2.7 29.87-19.3 27.14-37-2.46-16-16.28-27.5-32.03-27.5m1522.67-40.5c-16.4 0-30.5 12.4-32.2 29.1-1.9 17.8 11.1 33.8 28.9 35.6 63 6.5 128.7 14 195.4 22.1 17.8 2.2 34-10.5 36.2-28.3 2.1-17.8-10.5-34-28.3-36.1-67.1-8.2-133.3-15.7-196.6-22.3-1.1-.1-2.3-.1-3.4-.1m-1180.5-4.8c-1.2 0-2.4 0-3.6.2-63.8 7-129.9 15.1-196.6 24.2-17.77 2.4-30.2 18.7-27.79 36.5 2.42 17.8 18.81 30.2 36.54 27.8 66.15-9 131.75-17.1 194.95-24 17.8-2 30.6-18 28.7-35.8-1.9-16.6-15.9-28.9-32.2-28.9m836.5-23.9c-17 0-31.3 13.3-32.4 30.6-1 17.8 12.6 33.2 30.5 34.3 62.2 3.7 128.1 8.6 195.9 14.5 17.8 1.5 33.6-11.7 35.1-29.5 1.6-17.9-11.6-33.6-29.5-35.2-68.4-5.9-134.9-10.8-197.6-14.6zm-492.6-4.3-1.7.1c-62.9 3.1-129.5 7.7-197.9 13.7-17.9 1.5-31.1 17.3-29.5 35.1 1.5 17.9 17.1 31.1 35.1 29.6 67.6-5.9 133.4-10.5 195.6-13.6 17.9-.9 31.7-16.1 30.8-34-.9-17.4-15.2-30.9-32.4-30.9m203.1-5.4c-18.5 0-37.1.2-55.8.5-17.9.2-32.2 15-32 32.9.3 17.8 14.8 32 32.5 32h.5c33.2-.5 66-.6 98.5-.1 31.2.4 63.8 1.2 97 2.3 17.5.6 33-13.4 33.6-31.3s-13.4-33-31.3-33.6c-33.7-1.1-66.8-1.9-98.4-2.4-14.8-.2-29.7-.3-44.6-.3m1316.8 130.1c-15.6 0-29.4 11.3-32 27.2-2.9 17.7 9.1 34.4 26.8 37.3 60.5 9.9 95.3 16.2 95.5 16.2 17.7 3.2 34.5-8.6 37.7-26.2 3.1-17.7-8.6-34.5-26.2-37.7 0 0-35.3-6.3-96.5-16.3-1.8-.3-3.5-.5-5.3-.5m-2812.76 254.9c-2.81 0-5.65.4-8.48 1.2-59.9 16.1-93.29 26.3-94.68 26.7-17.15 5.2-26.8 23.4-21.58 40.5 5.23 17.1 23.35 26.8 40.51 21.6.33-.1 33.89-10.3 92.65-26.2 17.31-4.6 27.56-22.4 22.89-39.7-3.9-14.5-17-24.1-31.31-24.1m386.39-90.8c-2.15 0-4.33.2-6.52.7-65.16 13.3-130.73 27.6-194.87 42.7-17.46 4-28.29 21.5-24.19 39 4.08 17.4 21.6 28.3 39.01 24.2 63.52-14.9 128.46-29.2 193.01-42.3 17.57-3.6 28.91-20.7 25.33-38.3-3.13-15.4-16.66-26-31.77-26m2168.47-3.9c-15.5 0-29.2 11-31.9 26.8-3.1 17.7 8.6 34.5 26.3 37.6 64.9 11.4 130.3 23.7 194.5 36.4 17.5 3.5 34.6-7.9 38.1-25.5s-7.9-34.7-25.5-38.2c-64.6-12.8-130.5-25.1-195.8-36.6-2-.4-3.8-.5-5.7-.5m-392.5-60c-16.1 0-30.1 11.9-32.2 28.3-2.2 17.8 10.3 34.1 28.1 36.3 64.1 8.3 129.9 17.6 195.8 27.7 17.7 2.6 34.3-9.5 37-27.2s-9.4-34.3-27.2-37c-66.3-10.2-132.8-19.5-197.3-27.8q-2.1-.3-4.2-.3m-1384.7-3.5c-1.5 0-3.04.1-4.57.3-64.65 9.1-130.98 19.5-197.17 30.9-17.66 3-29.5 19.8-26.46 37.5 3.05 17.7 19.82 29.5 37.51 26.5 65.51-11.4 131.15-21.6 195.09-30.6 17.8-2.4 30.1-18.9 27.7-36.6-2.3-16.2-16.2-28-32.1-28m989.7-36.4c-16.9 0-31.1 13-32.3 30.1-1.3 17.9 12.2 33.5 30 34.7 63.8 4.5 130.1 10.3 196.8 17.1 17.9 1.8 33.8-11.2 35.6-29 1.8-17.9-11.2-33.8-29-35.6-67.4-6.9-134.3-12.7-198.8-17.2zm-595-4.3h-2.1c-64.6 4.1-131.6 9.8-199 16.8-17.8 1.9-30.8 17.8-28.9 35.6 1.8 17.9 17.9 30.9 35.6 29 66.6-6.9 132.7-12.5 196.5-16.6 17.9-1.1 31.4-16.6 30.3-34.5-1.1-17.1-15.4-30.3-32.4-30.3m264.1-8.7c-22.1 0-44.2.2-66.3.5-17.9.3-32.2 15.1-31.9 33.1.3 17.9 15.5 32.3 33 31.8 56.3-.9 113.4-.6 167.9 1q14.4.3 28.8.9c18 .7 33-13.4 33.6-31.3.7-17.9-13.4-33-31.3-33.6-9.7-.3-19.5-.7-29.2-.9-34.1-1-69.3-1.5-104.6-1.5m1507.4 190.3c-14.9 0-28.3 10.3-31.7 25.4-3.9 17.5 7.1 34.8 24.6 38.7 59.5 13.4 93.6 21.9 94 22 17.4 4.3 35-6.2 39.3-23.6 4.4-17.4-6.2-35-23.6-39.4-1.4-.3-35.1-8.8-95.5-22.3-2.4-.5-4.8-.8-7.1-.8" style="fill:#c89519;fill-opacity:1;fill-rule:nonzero;stroke:none" transform="matrix(.0144 0 0 -.0144 -54.351 656.083)"/><path d="M9229.16 38655.8c-91.54 0-179.58-31.3-239.73-87.2-46.72-43.5-69.97-96.2-65.46-148.4l177.66-2056.6c8.19-94.9 105.53-175.3 242.22-200.1 963.85-174.9 1804.65-185.4 2726.35-34 140.2 23 243.2 106.5 250.6 202.9l201.9 2041.3c3.6 47.3-22 99.2-72.3 145.7-85.3 78.8-218.4 119.9-331.3 102.2-504.6-79-896.1-134.5-1338.5-131.1-469.5 3.7-971.94 77.9-1488.4 160.3-21 3.4-42.12 5-63.04 5M10814 35970.3c-478.8 0-961.6 46.8-1479.67 140.8-160.67 29.1-275.54 128.8-285.82 247.9l-177.67 2056.6c-5.95 68.9 23.27 137.1 82.28 192 85.63 79.7 218.8 116.4 347.48 95.9 514.37-82.1 1014.6-156 1480.5-159.7 438.2-3.5 827.7 51.9 1329.8 130.5 130.1 20.4 277.5-25.1 375.7-115.7 62.5-57.8 94.2-125.1 89.2-189.6l-201.9-2041.3c-9.4-122.3-128-223.3-295-250.8-432.4-71-847.2-106.6-1264.9-106.6m79.5-2724c-499.2 0-1101.72 71.7-1616.69 231.7-14.07 4.4-21.92 19.4-17.55 33.4 4.36 14.1 19.3 22 33.37 17.6 853.37-265.3 1947.27-286.1 2395.27-138.9 14 4.6 29.1-3 33.7-17s-3-29.1-17-33.7c-183.8-60.4-473.9-93.1-811.1-93.1" style="fill:#231f20;fill-opacity:1;fill-rule:nonzero;stroke:none" transform="matrix(.0144 0 0 -.0144 -54.351 656.083)"/><path d="M10165.5 43671.6c-18.3 0-33.7-2.6-45.5-8.3-10.5-5.2-17.1-12.8-20.7-24-87-269.7-75-614.1-69.3-713.3 16.3-281.9-49.44-535.6-113-781-24.9-96.1-50.63-195.4-70.9-294.7-25.35-124.7-38.66-230.8-41.85-334.1-2.83-90.5 18.69-192.9 39.5-291.9 39.29-186.8 79.9-380-29.83-526.1-87.5-116.7-281.98-230.3-470.07-340.2-164.49-96.1-319.85-186.9-398.57-273.9-359.71-397.6-331.89-907.2-305-1400.1 2.85-52.2 5.7-104.4 8.1-156.3 29.59-645.5 274.37-2868.2 405.87-4062.3 50.71-460.4 84.21-764.6 87.37-812.8 9.02-136.3-18.64-223.3-47.93-315.4-24.29-76.5-49.41-155.5-55.23-271-3.54-72.1-4.88-148.4 20.41-220.3 148.13-420.7 1119.43-496.8 1413.63-510 332.5-15.1 671.7 8.7 990.6 34.4 263.1 21.2 636.9 159.7 833.2 308.6 57.2 43.5 83.5 95.6 95.4 412.2 3.7 98.8-16.1 172.3-37.2 250.2-22.3 82.6-45.5 168.1-38.7 284.7 4 70.7 61.6 634.8 134.4 1348.9 129.1 1265 305.8 2997.5 345.2 3545.3 35.1 489.5 75 1044.2-362.1 1514.8-65.6 70.7-180.2 149-301.5 231.9-177.7 121.5-361.5 247.1-438.2 377.9-98.4 167.8-62.1 429.3-30 660 14.3 103.1 27.8 200.5 28 279.6.2 57.7-3.3 116-10.6 178.2-17.3 147.3-53.6 289.7-88.8 427.4-63.3 247.5-128.7 503.4-82.8 791.4 18.8 117.9 5.1 226.2-10.8 351.6-8.4 66.2-17 134.6-21.5 210-.5 9-2.5 20.6-9 24.7-21.8 13.7-93.6-15.5-146-36.8-48.4-19.8-98.5-40.2-140.3-45.1-109.6-12.9-222.1-1.1-330.8 10.2-32.9 3.5-66.8 7-99.9 9.8-64.3 5.4-159.7 40-260.6 76.7-111.4 40.5-245 89.1-325 89.1m523.1-11393.7c-72.9 0-145.8 1.4-218.5 4.7-302.6 13.7-1302.31 93.4-1461.51 545.6-28.51 81-27.03 166.7-23.39 240.6 6.17 122.5 32.36 204.9 57.67 284.5 27.72 87.2 53.89 169.6 45.54 295.8-3.07 47-38.35 367.2-87.16 810.5-131.56 1194.7-376.47 3418.5-406.14 4065.7-2.39 51.7-5.22 103.7-8.07 155.8-27.49 503.8-55.92 1024.6 318.7 1438.8 84.24 93.1 243.06 185.9 411.21 284.1 183.52 107.2 373.28 218.1 454.33 326.2 95.21 126.8 58.83 299.9 20.31 483.1-21.46 102.1-43.65 207.6-40.63 304.5 3.3 106.4 16.91 215.4 42.89 343.2 20.55 100.6 46.47 200.6 71.53 297.4 62.52 241.4 127.19 491 111.42 764.5-5.86 101.5-18.05 454.3 71.7 732.7 8.2 25.3 24.3 44 48.1 55.5 83.5 41 250.6-19.7 412.1-78.5 97.5-35.4 189.6-68.9 246.9-73.7 33.6-2.8 67.8-6.4 100.9-9.8 105.9-11.1 215.3-22.5 319.1-10.3 34.6 4 81.3 23 126.4 41.4 76.9 31.4 149.5 61 194.5 32.6 20.6-13 32-35.4 33.8-66.7 4.4-73.6 12.9-141.1 21.2-206.4 15.7-124.1 30.5-241.3 10.5-366.7-44.1-277.1 17.1-516.4 81.8-769.8 35.7-139.4 72.5-283.6 90.2-434.4 7.5-64.3 11.1-124.7 10.9-184.6-.1-82.6-13.9-181.8-28.5-286.8-30.9-222-65.8-473.8 23.2-625.6 70.6-120.5 249.4-242.7 422.3-360.9 123.8-84.6 240.8-164.6 310.4-239.6 452.9-487.6 412.2-1054.6 376.3-1554.9-39.5-548.7-216.2-2281.6-345.3-3546.9-72.8-713.5-130.3-1277-134.3-1346.5v-.1c-6.2-107.9 14.7-185.5 37-267.7 21.1-78.3 43-159.2 39-266.1-12.1-320.6-39.7-394.2-116.4-452.6-203.2-154.2-589.5-297.4-861.2-319.4-251.2-20.2-515-39.2-778.8-39.2" style="fill:#231f20;fill-opacity:1;fill-rule:nonzero;stroke:none" transform="matrix(.0144 0 0 -.0144 -54.351 656.083)"/><path d="M11705 41801.7c-216.1-75.7-464.7-165.8-882.6-172.9-214.6-3.8-386.5 17.3-527.3 49.1-155.5 35.3-272.8 84-367.62 127.5-39.35 18-74.8 35.3-107.51 50.3 71.92 352.1 205.83 681.1 183.43 1068.9-12.37 214.1 0 504.3 70.5 722.9 50.7 157.1 503.6-100.3 679.4-115.1 141.4-11.8 285.8-36.5 425.4-20 114.6 13.4 317.4 162.7 325 32.2 12.8-216.6 61.5-381.8 32-567.3-70.2-441 120.8-760.7 169.3-1175.6" style="fill:#316039;fill-opacity:1;fill-rule:nonzero;stroke:none" transform="matrix(.0144 0 0 -.0144 -54.351 656.083)"/><path d="M10297.4 41705c-155.1 35.6-271.7 84.4-364.77 127.4 31.18 153 114.27 421 122.37 513.6 17.4 195.1 24.5 357.1 27.2 439.2 22.5-12.9 47-23 73.1-30 76.2-20.4 152-37.2 227.6-50.2z" style="fill:#83a586;fill-opacity:1;fill-rule:nonzero;stroke:none" transform="matrix(.0144 0 0 -.0144 -54.351 656.083)"/><path d="M9850.39 41870.9c9.78-4.5 19.81-9.3 30.11-14.1 177.2-83.7 444.8-210 941.4-201.4 400.7 6.9 642 90 854 164.3-18.3 141-53 272.7-86.7 400.4-64.5 244.3-125.4 475.1-79.8 761.3 18.8 117.9 5.1 226.2-10.8 351.6-8.4 66.2-17 134.6-21.5 210-.5 9-2.5 20.6-9 24.7-21.8 13.7-93.6-15.5-146-36.8-48.4-19.8-98.5-40.2-140.3-45.1-109.6-12.9-222.1-1.1-330.8 10.2-32.9 3.5-66.8 7-99.9 9.8-64.3 5.4-159.7 40-260.6 76.7-136.9 49.8-307.2 111.7-370.5 80.8-10.5-5.2-17.1-12.8-20.7-24-87-269.7-75-614.1-69.3-713.3 16.3-281.9-49.44-535.6-113-781-23.17-89.4-47.07-181.7-66.61-274.1m923.71-269.3c-477.9 0-740.6 124-916.35 207-17.02 8-33.27 15.7-48.89 22.8l-19.24 8.9 4.24 20.7c20.54 100.6 46.46 200.6 71.52 297.4 62.52 241.4 127.19 491 111.42 764.5-5.86 101.5-18.05 454.3 71.7 732.7 8.2 25.3 24.3 44 48.1 55.5 83.6 41 250.6-19.8 412.1-78.5 97.5-35.4 189.6-68.9 246.9-73.7 33.6-2.8 67.8-6.4 100.9-9.8 105.9-11.1 215.4-22.5 319.1-10.3 34.6 4 81.3 23 126.4 41.4 76.9 31.4 149.5 61 194.5 32.6 20.6-13 32-35.4 33.8-66.7 4.4-73.6 12.9-141.1 21.2-206.4 15.7-124.1 30.5-241.3 10.5-366.7-43.7-275 15.8-500.6 78.7-739.3 35.9-135.8 72.9-276.3 90.8-429l2.5-21.2-33.8-11.8c-217.5-76.2-463.9-162.5-877.4-169.7-16.4-.2-32.7-.4-48.7-.4" style="fill:#231f20;fill-opacity:1;fill-rule:nonzero;stroke:none" transform="matrix(.0144 0 0 -.0144 -54.351 656.083)"/><path d="M9997.23 41907.7c-3.88 0-7.82.8-11.6 2.5-51.98 22.9-79.51 39.4-80.66 40.1-13.64 8.2-18.03 25.9-9.81 39.5 8.23 13.6 25.92 18 39.54 9.8.25-.1 25.94-15.4 74.2-36.7 14.5-6.4 21.1-23.4 14.7-38-4.7-10.8-15.3-17.2-26.37-17.2m329.17-101.5q-2.85 0-5.7.6c-58.3 11.8-115.5 26.1-170 42.7-15.2 4.7-23.8 20.8-19.2 36 4.7 15.2 20.8 23.8 36 19.2 52.7-16.1 108.1-30 164.6-41.4 15.6-3.1 25.7-18.3 22.5-33.9-2.7-13.7-14.8-23.2-28.2-23.2m858.5-6c-14.1 0-26.4 10.4-28.5 24.8-2.2 15.7 8.7 30.3 24.5 32.6 56 8.1 112.8 17.6 168.8 28.4 15.6 3.1 30.7-7.2 33.8-22.9 3-15.6-7.3-30.7-22.9-33.7-56.9-11-114.6-20.7-171.5-28.8-1.4-.3-2.8-.4-4.2-.4m-343.5-31.6c-15.4 0-28.2 12.2-28.8 27.7-.6 15.9 11.9 29.3 27.8 29.9 55.4 2 112.8 5.8 170.5 11.2 15.9 1.4 29.9-10.2 31.4-26 1.5-15.9-10.2-29.9-26-31.4-58.9-5.5-117.3-9.3-173.8-11.4zm-172.5-.9h-.8c-58.7 1.7-117.3 5.8-174.5 12.2-15.8 1.8-27.2 16-25.4 31.8 1.7 15.9 16.1 27.2 31.8 25.5 55.6-6.2 112.7-10.2 169.7-11.9 15.9-.4 28.5-13.7 28-29.6-.4-15.6-13.3-28-28.8-28m855 97.9c-13 0-24.7 8.8-28 22-3.8 15.4 5.7 31 21.2 34.8 51.8 12.7 81.9 21.6 82.2 21.7 15.3 4.5 31.3-4.2 35.8-19.4 4.5-15.3-4.2-31.3-19.4-35.9-1.3-.3-31.6-9.3-84.9-22.4-2.3-.5-4.6-.8-6.9-.8" style="fill:#c89519;fill-opacity:1;fill-rule:nonzero;stroke:none" transform="matrix(.0144 0 0 -.0144 -54.351 656.083)"/><path d="M11599.9 43720.2c11.5-270.4 11.2-285.4 3.4-535.7-1.2-39.2-2.6-84.2-4.2-136.8 0-131.1-89.5-245.6-218.7-281.6-326.6-91.2-657.8-105.2-993.4-47.4-77 13.1-154.2 30.1-231.7 50.9-31.2 8.3-60 21.2-85.8 37.7-83.12 53.1-136.13 143.8-136.13 244.7-2.66 64.3-5.03 116.5-6.79 160.3-8.57 208.6-6.21 231.5 10.48 503.8.15 34.4 6.79 68.7 19.34 100.8l-4.28 115.2-3.99 13.5c-5.02 17.2-18.74 51.5-18.9 69.2l4.14 569.4h1665.73l13.5-555c0-32.4-20.9-119.6-35-149l-1.2-73.6 1.3-2.1c14.5-25.9 22.2-54.9 22.2-84.3" style="fill:#316039;fill-opacity:1;fill-rule:nonzero;stroke:none" transform="matrix(.0144 0 0 -.0144 -54.351 656.083)"/><path d="M10387 42704.3c-1.4.2-2.7.5-4.1.7l1.3 14.2c.9-.2 1.8-.3 2.8-.5zm-304.8 80.9c-4.3 2.5-8.5 5.1-12.7 7.7v14.4c4.3-2.7 8.7-5.4 13.2-7.9-.1-4.5-.3-9.2-.5-14.2" style="fill:#83a586;fill-opacity:1;fill-rule:nonzero;stroke:none" transform="matrix(.0144 0 0 -.0144 -54.351 656.083)"/><path d="M10382.9 42705c-75.6 13-151.4 29.8-227.6 50.2-26.1 7-50.6 17.1-73.1 30 .2 5 .4 9.7.5 14.2 22.3-12.8 46.6-22.9 72.6-29.8 76.6-20.5 152.9-37.4 228.9-50.4z" style="fill:#b9ccb6;fill-opacity:1;fill-rule:nonzero;stroke:none" transform="matrix(.0144 0 0 -.0144 -54.351 656.083)"/><path d="M10387 42718.7c-1 .2-1.9.3-2.8.5-76 13-152.3 29.9-228.9 50.4-26 6.9-50.3 17-72.6 29.8-4.5 2.5-8.9 5.2-13.2 7.9v1757.5h317.5z" style="fill:#83a586;fill-opacity:1;fill-rule:nonzero;stroke:none" transform="matrix(.0144 0 0 -.0144 -54.351 656.083)"/><path d="m9959.87 44557.5-3.98-542.9c.1-8.4 7.69-30.8 12.22-44.2 2.21-6.6 4.2-12.5 5.6-17.2l4.98-16.8 4.58-124-2.03-5.2c-11.48-29.2-17.35-59.9-17.46-91.2l-.05-1.6-1.98-31.9c-16.96-274.4-16.96-274.4-4.59-562l2.88-67.3c.03-120.4 83.16-225.9 202.16-257.8 414.5-111 822-112.2 1211.1-3.6 117.3 32.7 199.2 137.9 199.2 255.9l3.8 124.4c8.2 262.5 8.5 272.8-3.1 547-.1 26-6.5 50.5-18.8 72.3l-4.7 8.4 1.2 86.7 2.6 5.3c12.7 26.3 32.4 109.8 32.4 137.5l-12.8 528.2zm824.13-1899.6c-209.1 0-421.5 28.7-635.6 86-142.3 38.1-241.66 164.8-241.66 308.2l-2.85 66.1c-12.48 290.4-12.48 290.4 4.65 567.6l1.93 31.1c.21 35.8 6.64 70.9 19.11 104.5l-3.93 106.3-3.06 10.4c-1.23 4.1-3.02 9.4-4.98 15.2-8.41 24.8-14.85 45.1-15.04 61.2l4.37 596.3h1718.16l14.1-580.9c0-34.3-19.3-118.4-35.1-155.6l-.9-61c15.3-28.7 23.3-60.7 23.3-93.1 11.7-275.1 11.4-285.4 3.1-549.8l-3.8-123.5c0-141-98-267.4-238.2-306.5-197.1-55-398.8-82.5-603.6-82.5" style="fill:#231f20;fill-opacity:1;fill-rule:nonzero;stroke:none" transform="matrix(.0144 0 0 -.0144 -54.351 656.083)"/><path d="M11612.4 44589.7c0-81.9-166.3-147.8-395.8-189.1-130.1-23.5-283.9-35.1-450.3-35.1-166.5 0-320 13.4-450.1 36.8-229.4 41.4-379.52 105.5-379.52 187.4 0 81.8 148.62 153.6 378.12 194.9 130.1 23.5 285 36.5 451.5 36.5 166.4 0 321.7-11.3 451.8-34.7 229.4-41.4 394.3-114.9 394.3-196.7" style="fill:#95b396;fill-opacity:1;fill-rule:nonzero;stroke:none" transform="matrix(.0144 0 0 -.0144 -54.351 656.083)"/><path d="M10766.3 44794.5c-161.3 0-315.8-12.5-446.8-36.1-246-44.3-356.16-116.7-356.16-168.7 0-46.8 93.96-113.6 357.66-161.1 132.1-23.9 286.1-36.4 445.3-36.4 168.1 0 318.1 11.6 445.6 34.6 275.9 49.7 373.8 118.8 373.8 162.9 0 49.7-116.5 124.3-372.4 170.4-124.7 22.5-279.3 34.4-447 34.4m0-455.7c-162.3 0-319.6 12.9-454.8 37.3-266.4 48-401.48 119.9-401.48 213.6 0 129.7 250.68 194.2 400.08 221.2 134 24.1 291.7 36.9 456.2 36.9 170.9 0 328.7-12.2 456.5-35.2 125.1-22.6 416.2-89.4 416.2-222.9 0-115.8-227.1-181-417.7-215.4-130.6-23.5-283.7-35.5-455-35.5" style="fill:#231f20;fill-opacity:1;fill-rule:nonzero;stroke:none" transform="matrix(.0144 0 0 -.0144 -54.351 656.083)"/><path d="M10777.6 43727.1c-406.8 0-747.3 83.9-820.11 191.5-1.42-25.6-.71-76.7 4.24-102.7 77.67-105.8 409.17-181.4 811.57-181.4 409.3 0 737.3 64.8 804.6 169.5 1.7 19.2-1.4 52.4-2.2 84.1-107.9-93.6-426.6-161-798.1-161" style="fill:#71331d;fill-opacity:1;fill-rule:nonzero;stroke:none" transform="matrix(.0144 0 0 -.0144 -54.351 656.083)"/><path d="M9986.92 43827c69.38-83.2 357.98-165.8 786.38-165.8 393.2 0 710.1 62.1 778.4 151.8.2 7-.1 15.8-.5 25.3-141.1-83.6-439.4-137.8-773.6-137.8-356.9 0-663 61.8-793.22 155.2.56-10.6 1.4-20.6 2.54-28.7m786.38-219.1c-413.8 0-748.6 77.2-833.06 192.3l-3.57 4.8-1.12 5.9c-5.42 28.4-6.2 81.6-4.69 109.1l4.37 79 44.33-65.5c59.04-87.1 358.74-179.7 798.04-179.7 354.8 0 675.8 63.5 780.6 154.5l42.8 37.1 1.3-56.6c.3-11.2.9-22.6 1.4-33.4 1.1-21.3 2-39.6.8-53.8l-.6-6.5-3.5-5.5c-86.2-134-483.7-181.7-827.1-181.7m-818.32-436.9c.41-9.5.83-19.4 1.27-29.6 1.16-26.7 2.42-55.9 3.75-88.3.02-90.8 46.3-173.8 123.9-223.3 23.9-15.4 50.3-26.9 78.3-34.5 76.8-20.5 153.9-37.5 229.3-50.3 334.2-57.6 664.5-41.8 981.8 46.8 117.3 32.7 199.2 137.9 199.2 255.9l2.6 88.4c-131.1-83.6-471.5-129-763.8-125.7-341 4.2-695.1 71.7-856.32 160.6m828.22-513.3c-132.6 0-266.4 11.6-400.7 34.7-77 13.2-155.7 30.4-234.1 51.4-33.4 9-64.7 22.8-93.3 41.1-92.89 59.3-148.4 159.1-148.4 267.1-1.3 31.2-2.56 60.5-3.71 87.1-1.14 26.4-2.17 50.3-3.06 72.1l-.93 23.2 43.46 7.8 9.12-6.4c130.12-92.2 508.02-167.8 860.42-172.1 379.8-4.6 705.4 69.6 760.6 139.2l10.1 12.7 47.9-9.2-4.8-159.5c0-141-98-267.4-238.2-306.5-197.3-55-399.5-82.7-604.4-82.7" style="fill:#231f20;fill-opacity:1;fill-rule:nonzero;stroke:none" transform="matrix(.0144 0 0 -.0144 -54.351 656.083)"/></g></svg>