<svg xmlns="http://www.w3.org/2000/svg" xml:space="preserve" width="200mm" height="200mm" viewBox="0 0 200 200"><path d="M45.697 264.414h.02zm0 0h-.429zM-24.625 112.73h-.001c-.371-8.663-.724-16.922-1.046-24.407.559 7.474.689 15.744 1.047 24.407m140.84-23.434c.213-11.545-2.798-15.536-16.443-23.986 13.624 8.112 16.659 12.326 16.442 23.986M-25.76 84.833c-.026-6.927 1.123-10.976 5.693-15.215-3.27 3.72-5.52 8.54-5.693 15.215m111.499-27.88c-6.29-3.832-14.469-9.142-15.966-11.717-5.57 1.178-13.934 4.02-20.676 4.376a54 54 0 0 1-2.815.076c-12.66 0-21.56-4.578-25.768-6.988-1.846 3.617-10.31 8.526-16.387 11.782 7.482-4.189 20.255-12.221 20.155-19.93l2.106-68.942H63.03l1.794 70.513c-.03 6.195 12.365 15.294 20.914 20.83" style="fill:#f6fcfb;fill-opacity:1;fill-rule:nonzero;stroke:none;stroke-width:.03602" transform="translate(76.19 51.662)scale(.52624)"/><path d="M45.717 264.414c33.986-.007 61.863-16.148 63.525-27.228l1.363-28.79-1.363 28.79c-1.662 11.08-29.536 27.224-63.525 27.228m-.449 0c-35.025-.14-64.198-17.027-64.605-28.55.407 11.523 29.58 28.41 64.605 28.55m69.87-151.767 1-21.079zM-25.67 88.322q-.134-1.825-.09-3.49c.004 1.087.037 2.247.09 3.49m5.603-18.705c5.007-5.702 12.408-8.829 18.421-12.1 1.026-.558 3.183-1.645 5.773-3.036C1.86 55.754.078 56.67-.712 57.12c-9.572 5.42-15.613 9.023-19.356 12.499m119.84-4.308a286 286 0 0 0-6.106-3.52s-3.432-1.926-7.928-4.837a310 310 0 0 0 7.528 4.438c2.4 1.42 4.561 2.716 6.507 3.919" style="fill:#eaf8f6;fill-opacity:1;fill-rule:nonzero;stroke:none;stroke-width:.03602" transform="translate(76.19 51.662)scale(.52624)"/><path d="M45.697 264.414h-.429c-35.025-.14-64.198-17.027-64.605-28.55-.001-.036-.428-9.984-1.085-25.239l.42.198c2.01.955 4.167 1.978 6.49 3.033q1.765.8 3.647 1.618c9.125 3.94 17.537 6.688 26.473 8.648a141 141 0 0 0 11.895 2.075c6.164.814 12.866 1.3 20.161 1.325q.254.005.505.004c13.884 0 26.666-2.002 37.992-5.954a97 97 0 0 0 1.94-.699l.083-.032h.001a84 84 0 0 0 5.148-2.129 78 78 0 0 0 3.396-1.635v-.004a1 1 0 0 0 .08-.04l.064-.032.042-.022c4.643-2.399 8.76-5.143 12.2-8.147q.003-.006.006-.007c.01-.011.021-.018.032-.03q.228-.2.452-.4l-1.363 28.792c-1.662 11.08-29.539 27.22-63.525 27.227zm5.936-136.717a171 171 0 0 1-8.624-.216 209 209 0 0 1-28.48-3.336 205 205 0 0 1-26.987-6.991 214 214 0 0 1-4.781-1.65 265 265 0 0 1-7.083-2.655l-.303-.119c-.357-8.662-.488-16.933-1.046-24.407a90 90 0 0 1-.09-3.49c.174-6.675 2.423-11.494 5.693-15.215 3.743-3.476 9.783-7.078 19.356-12.499.79-.45 2.571-1.365 4.838-2.636 6.077-3.257 14.54-8.166 16.387-11.783 4.209 2.41 13.108 6.988 25.768 6.988q1.378 0 2.815-.075c6.742-.357 15.105-3.199 20.676-4.377 1.497 2.576 9.675 7.885 15.966 11.718 4.496 2.91 7.928 4.837 7.928 4.837a286 286 0 0 1 6.107 3.52c13.645 8.45 16.656 12.44 16.442 23.985q-.02 1.09-.077 2.273l-1 21.079-.362.176c-3.13 1.506-6.24 2.986-9.878 4.52q-.827.346-1.642.681c-11.69 4.74-28.469 9.672-51.623 9.672" style="fill:#e3f5f3;fill-opacity:1;fill-rule:nonzero;stroke:none;stroke-width:.03602" transform="translate(76.19 51.662)scale(.52624)"/><path d="M97.66 236.585h-.024c-2.252-.022-4.03-1.884-3.972-4.16l3.251-128.383c.065-2.564 2.05-4.632 4.44-4.628h.026c2.401.021 4.286 2.128 4.211 4.7l-3.76 128.39c-.066 2.27-1.931 4.088-4.171 4.08M-14.038 95.073l5.134 137.669c.07 1.869 1 3.62 2.517 4.733 3.137 2.301 8.706 6.177 12.905 7.96a48 48 0 0 0 4.69 1.715 4.623 4.623 0 0 0 6.02-4.55L13.82 101.276C13.608 92.41 8.09 84.404.09 81.886c-4.554-1.433-9.245-.925-12.263 4.68-1.376 2.553-1.976 5.521-1.865 8.507" style="fill:#fff;fill-opacity:1;fill-rule:nonzero;stroke:none;stroke-width:.03602" transform="translate(76.19 51.662)scale(.52624)"/><path d="m115.097 113.49-4.442 93.857c-2.304 2.136-5.062 4.247-8.267 6.243a72 72 0 0 1-8.36 4.448c-11.405 5.173-26.585 8.807-45.36 8.742-12.255-.043-22.786-1.38-31.901-3.378-10.488-2.302-19.121-5.493-26.338-8.61-4.049-1.746-7.653-3.475-10.887-5.006-1.055-24.656-2.709-63.157-4.133-96.245a246 246 0 0 0 11.397 4.15 207 207 0 0 0 27.586 7.181 209 209 0 0 0 31.355 3.462c21.91.77 38.36-2.741 50.731-6.977a136 136 0 0 0 8.708-3.332c3.782-1.592 7.067-3.162 9.911-4.535" style="fill:#fff;fill-opacity:1;fill-rule:nonzero;stroke:none;stroke-width:.03602" transform="translate(76.19 51.662)scale(.52624)"/><path d="m-19.736 209.307.553.263c2.935 1.394 6.263 2.972 9.905 4.542 9.037 3.901 17.363 6.624 26.203 8.566 9.999 2.193 20.68 3.324 31.746 3.364h.485c16.641 0 32.04-2.997 44.566-8.681a71 71 0 0 0 8.274-4.398c2.965-1.848 5.633-3.85 7.934-5.954l4.369-92.312c-2.777 1.333-5.591 2.65-8.826 4.012a132 132 0 0 1-8.754 3.347c-15.698 5.378-32.38 7.672-50.998 7.02a211 211 0 0 1-31.466-3.476 206 206 0 0 1-27.684-7.208 242 242 0 0 1-10.373-3.753c1.405 32.63 3.021 70.282 4.066 94.668m68.892 18.215h-.49c-11.172-.04-21.958-1.181-32.058-3.4-8.936-1.96-17.348-4.708-26.473-8.648-3.666-1.582-7.006-3.167-9.954-4.564l-1.36-.645-.019-.447c-1.055-24.655-2.71-63.157-4.133-96.249l-.05-1.13 1.06.41a249 249 0 0 0 11.362 4.139c9.162 3.061 18.153 5.403 27.488 7.157a209.6 209.6 0 0 0 31.244 3.45c18.435.642 34.943-1.624 50.465-6.94a132 132 0 0 0 8.66-3.31c3.638-1.535 6.748-3.016 9.878-4.521l1.12-.54-4.515 95.402-.223.205c-2.419 2.24-5.238 4.37-8.378 6.33a73 73 0 0 1-8.447 4.49c-12.715 5.768-28.328 8.811-45.177 8.811" style="fill:#231f20;fill-opacity:1;fill-rule:nonzero;stroke:none;stroke-width:.03602" transform="translate(76.19 51.662)scale(.52624)"/><path d="m-19.736 209.307.368.176c13.795 6.549 34.642 16.444 68.038 16.559 25.262.093 48.141-7.024 61.26-19.033l4.37-92.312c-11.987 5.76-33.592 15.61-68.578 14.379-31.32-1.102-54.537-8.648-69.524-14.433 1.404 32.627 3.02 70.278 4.066 94.664m68.905 18.219q-.251.001-.505-.004c-33.727-.115-54.753-10.097-68.667-16.699l-1.176-.558-.019-.447c-1.057-24.652-2.71-63.161-4.133-96.245l-.05-1.135 1.06.414c14.84 5.792 38.254 13.623 70.095 14.743 35.749 1.254 57.38-9.17 69.004-14.772l1.12-.54-4.517 95.403-.222.205c-6.006 5.569-14.304 10.302-23.998 13.68-11.326 3.952-24.108 5.954-37.992 5.954" style="fill:#231f20;fill-opacity:1;fill-rule:nonzero;stroke:none;stroke-width:.03602" transform="translate(76.19 51.662)scale(.52624)"/><path d="M-1.982 130.517a93 93 0 0 1 1.955.151q1.052.097 1.656.144.605.049.717.065l.084.01q.39.05.756.3.365.247.448.49c.04.136.043.331.011.576q-.062.477-.258.684a1.24 1.24 0 0 1-.77.36q-.478.054-1.594-.09-1.675-.219-2.47-.234l-.96-.04-.644 5.425-.234 1.82q-.256 1.982-.478 3.37-.223 1.393-.634 3.812-.411 2.416-.63 3.667-.318 1.804-.447 2.258-.13.448-.413.67a1.2 1.2 0 0 1-.914.248c-.335-.04-.591-.18-.77-.41a.96.96 0 0 1-.214-.537c-.013-.19.027-.652.12-1.376q.22-1.706.896-5.396.84-4.094 1.703-10.77c.213-1.656.303-2.575.269-2.748l-.089-.41-1.187-.04a16 16 0 0 1-1.942-.137q-1.482-.19-1.889-.555-.378-.366-.306-.933c.037-.28.16-.497.368-.64q.28-.194 1.596-.156 1.316.044 6.264.422m4.431 7.383q.338-.275.87-.222c.355.032.608.154.758.356q.228.277.163 1.798l-.057 1.44.941-.644a11.6 11.6 0 0 1 2.324-1.189q.97-.358 1.387-.429t1.46-.025q.395.01.9.058.672.07 1.18.37.94.52 1.494 1.225.553.703.498 1.265a.4.4 0 0 1-.022.083.3.3 0 0 0-.022.082q-.313.877-1.126.796-.56-.054-1.156-.623-.768-.81-1.666-.9a4 4 0 0 0-.765.01q-2.912.253-5.381 3.206l-.543.627q-.152 1.544-.401 4.661-.25 3.113-.404 4.686l-.372.332q-.375.357-.88.31-.449-.049-.75-.444-.476-.613-.055-4.902.082-.839.547-4.985.543-4.669.701-5.702.158-1.032.377-1.24m14.319 3.15a1.5 1.5 0 0 1-.028-.487q.05-.422.346-.638.296-.22.8-.162c.317.04.558.151.724.342q.25.285.204.678-.034.28-.173.49c-.216.388-.558.558-1.024.5q-.672-.08-.849-.724m-.11 2.34q.281-.22.841-.155a.91.91 0 0 1 .757.544c.133.317.18.912.143 1.776q-.055 1.299-.49 5.644l-.464 4.597-.407.32a1.1 1.1 0 0 1-.851.238 1.17 1.17 0 0 1-.734-.385q-.315-.337-.34-.85-.029-.456.636-6.023l.297-2.489c.239-1.996.442-3.065.612-3.217m11.98-.172q-.628-.428-1.613-.471-1.519-.075-2.832.85l-.524.342-.097 4.394c-.064 2.91-.05 4.398.04 4.456q.355.245 1.312.288.675.033 1.47-.068 1.817-.28 2.834-1.473c.677-.797 1.047-1.838 1.108-3.134a9 9 0 0 0-.175-2.237q-.405-2.135-1.523-2.946m-6.732-3.115q.354-.32.748-.303.816.042.995 1.009.043.282.223.364.18.076.33-.112.15-.221 1.246-.422 1.095-.2 1.967-.158c.806.036 1.494.212 2.062.519q1.265.68 1.974 1.783.708 1.105 1.094 3.065.3 1.393.234 2.77-.11 2.301-1.195 3.771-.484.682-1.381 1.466-.898.788-1.474 1.041-1.585.714-3.92.602l-1.463-.069-.154.865q-.12.728-.341 4.185l-.046.958q-.296.887-1.815.224-.641-.174-.517-1.574.188-2.755.666-11.588l.412-8.043zm14.036-3.506q.064-.367.41-.63.347-.259.746-.252.226.006.509.15.535.32.511 1.586a4 4 0 0 1-.038.59c-.067.566-.18 4.092-.337 10.587q-.183 6.926-.238 8.32t-.257 1.589q-.262.276-.747.266-.569-.01-.904-.381a1.4 1.4 0 0 1-.302-.638q-.08-.384-.14-1.653-.063-1.183-.013-3.916.08-4.363.333-9.56.252-5.193.467-6.058m12.982 9.351c-.494-.27-1.097-.422-1.811-.447l-.366.007q-.789.016-1.278.249-.489.234-1.124.893-1.024 1.06-1.334 2.615-.13.622-.127.764a.4.4 0 0 0 .118.28q.629.524 2.997.62.422.022.958.01.675-.01 1.373-.388.67-.35 1.235-1.066.564-.714.666-1.308a.8.8 0 0 0 .024-.252q-.021-1.21-1.331-1.977m-3.851-2.69q.559-.206 1.601-.228 1.464-.025 2.57.35c.585.198 1.165.55 1.738 1.066q.858.773 1.269 1.639.411.925.426 1.768.03 1.663-1.378 3.292-1.822 2.091-4.554 2.14-.084 0-.296-.01c-.141-.008-.248-.008-.324-.008q-1.353-.061-2.316-.295a2.6 2.6 0 0 0-.847-.126h-.084q-.056.087.143.872.196.784.462 1.455.236.614.797 1.214.56.594 1.156.864.681.298 1.329.285c1.201-.018 2.122-.544 2.76-1.567q.466-.715.717-.915.305-.232.644-.238.45-.01.808.324.358.33.367.81c.008.411-.186.916-.579 1.503q-.59.885-1.37 1.405-1.642 1.07-3.022 1.098-.085 0-.24-.01a4 4 0 0 0-.268-.011q-2.085-.076-3.717-1.51-1.145-1.02-1.811-2.842c-.444-1.214-.68-2.521-.704-3.93q-.016-.847.107-1.89.295-2.373 1.504-4.085 1.207-1.713 3.112-2.42m20.154-8.93q.825-.29 2.005-.382 1.432-.107 2.298.137.84.276 1.671.972c.553.465.963.955 1.228 1.46q.196.35.445 1.393.25 1.04.292 1.603a.7.7 0 0 1-.008.252q-.124.973-.966 1.038a1.02 1.02 0 0 1-.74-.256 1.42 1.42 0 0 1-.47-.782c-.253-1.095-.505-1.858-.755-2.302a2.27 2.27 0 0 0-1.078-.976q-.581-.21-1.423-.147a6 6 0 0 0-2.035.536q-.998.461-1.316 1.077a3.03 3.03 0 0 0 .057 2.594q.696 1.333 4.825 4.347 3.231 2.353 4.152 3.696a6.45 6.45 0 0 1 1.09 3.166c.124 1.61-.278 2.993-1.206 4.16q-.976 1.286-2.844 1.967-1.24.406-2.11.472-1.91.147-3.487-1.257-1.972-1.77-2.172-4.384a5.84 5.84 0 0 1 .44-2.744q.6-1.371 1.331-1.43.394-.027.832.345.438.38.47.786.03.405-.311 1.11-.338.762-.264 1.714a4.1 4.1 0 0 0 .755 2.118q.665.938 1.646 1.203.117.048.538.014 1.488-.115 2.456-.753c1.06-.663 1.537-1.7 1.43-3.101q-.131-1.35-.88-2.251-.747-.902-3.258-2.716-2.96-2.119-4.25-3.476-1.29-1.355-1.737-2.763-.217-.632-.248-1.026-.013-.167.042-.933.15-1.734 1.015-2.792.865-1.052 2.54-1.69m19.343 6.589q-.775-.337-1.845-.274l-.364.04q-.784.086-1.249.367-.465.276-1.036.994-.921 1.15-1.085 2.727-.072.631-.056.77.018.168.143.27.675.462 3.043.34.423-.016.955-.08.671-.072 1.33-.515.635-.412 1.131-1.174.495-.763.542-1.365a1 1 0 0 0 0-.256q-.135-1.201-1.51-1.844m-4.085-2.32q.537-.26 1.574-.375 1.456-.162 2.59.109c.602.14 1.211.443 1.83.9q.927.69 1.416 1.516c.33.584.526 1.16.588 1.719q.184 1.652-1.065 3.407-1.62 2.248-4.335 2.55a3 3 0 0 1-.296.018q-.212.01-.323.026-1.354.064-2.333-.083a2.7 2.7 0 0 0-.855-.043l-.084.007q-.048.09.223.853.268.764.595 1.409.293.589.906 1.13t1.232.757q.705.232 1.35.162 1.791-.2 2.603-1.822.398-.753.627-.977.285-.258.619-.295a1.13 1.13 0 0 1 .836.245q.387.298.44.774.069.615-.436 1.55c-.338.622-.748 1.134-1.232 1.527q-1.538 1.22-2.909 1.372-.084.01-.24.014-.154.002-.267.015-2.084.119-3.842-1.16-1.235-.908-2.067-2.658t-1.067-3.851a14 14 0 0 1-.07-1.891q.075-2.388 1.118-4.204c.697-1.213 1.654-2.11 2.874-2.701m14.876-1.383q.637-.319 1.612-.465 1.142-.168 1.903-.029.965.169 1.879.861c.61.465.945.908 1.008 1.337q.059.39-.231.745a1.1 1.1 0 0 1-.707.418q-.501.072-1.097-.493-.558-.487-1.03-.602t-1.308.007c-1.022.151-1.92.818-2.695 1.992q-.652.983-.79 1.884-.136.903.119 2.63l.057.392q.218 1.474.555 2.208.336.735 1.164 1.524 1.11 1.143 2.308.969.25-.038.385-.087.708-.221 1.135-.609.426-.393.944-1.321.537-.99.814-1.232.257-.179.509-.217.473-.07.885.21.412.281.486.785.066.443-.544 1.617c-.407.782-.827 1.372-1.26 1.78-.846.828-1.872 1.328-3.08 1.509a4.5 4.5 0 0 1-1.896-.116q-1.88-.578-3.403-2.795-1.239-1.836-1.544-3.894a15.4 15.4 0 0 1-.149-2.168q-.017-2.043 1.105-3.984 1.122-1.944 2.867-2.856" style="fill:#100f0d;fill-opacity:1;fill-rule:nonzero;stroke:none;stroke-width:.03602" transform="translate(76.19 51.662)scale(.52624)"/><path d="M78.548 194.776c-4.078 10.925-17.436 15.086-26.835 11.12a22.4 22.4 0 0 1-2.825-1.409l-.092-.054-.18-.108q-.088-.058-.175-.111l-.219-.14-.146-.098a13 13 0 0 1-.45-.313 12 12 0 0 1-.413-.31c-1.85-1.423-2.807-1.974-4.614-3.509l-.031-.014c-.587-.306-1.88-2.366-2.898-5.356-1.023-3.008-1.769-6.956-1.24-11.022.143-.803.242-1.405.276-1.596l.002-.01.006-.037c.456-2.265 1.04-4.128 1.763-5.694 1.958-4.258 4.925-6.358 9.057-8.472q1.235-.469 2.634-.872c8.52-2.453 12.643-2.053 17.507-.205 3.266 1.242 7.291 4.87 9.176 10.953q.319 1.026.551 2.147c1.081 5.245.176 12.351-.854 15.11" style="fill:#cd681c;fill-opacity:1;fill-rule:nonzero;stroke:none;stroke-width:.03602" transform="translate(76.19 51.662)scale(.52624)"/><path d="m42.886 199.153.053.018.132.1c1.105.937 1.87 1.492 2.755 2.133.553.4 1.126.814 1.839 1.365.125.094.257.195.395.292q.206.147.429.299l.778.494c.811.482 1.706.925 2.733 1.361 4.732 1.996 10.607 1.87 15.719-.335 4.817-2.078 8.415-5.756 10.135-10.363 1.037-2.773 1.851-9.71.823-14.703a22 22 0 0 0-.534-2.079c-1.853-5.979-5.726-9.332-8.731-10.474-4.647-1.769-8.557-2.219-17.039.223-.935.27-1.765.544-2.537.836-4.11 2.107-6.85 4.11-8.686 8.104-.712 1.546-1.272 3.357-1.71 5.533l-.003.018.004-.029-.015.08.005-.019-.052.307c-.05.295-.124.738-.219 1.267-.552 4.236.354 8.134 1.211 10.655.997 2.929 2.15 4.629 2.515 4.917m16.388 8.95c-2.744 0-5.434-.503-7.85-1.523a24 24 0 0 1-2.915-1.455l-.454-.277c-.088-.058-.164-.105-.239-.155l-.15-.101a19 19 0 0 1-.903-.648c-.698-.537-1.26-.944-1.805-1.34a41 41 0 0 1-2.768-2.136c-.91-.515-2.257-2.922-3.221-5.756-.909-2.666-1.867-6.805-1.273-11.354.098-.562.172-.998.222-1.293l.073-.414c.458-2.277 1.051-4.193 1.813-5.846 2.012-4.377 5.086-6.617 9.393-8.822l.072-.032a35 35 0 0 1 2.694-.893c8.834-2.543 13.133-2.025 17.976-.184 3.331 1.268 7.608 4.935 9.62 11.426.223.716.414 1.462.57 2.215 1.123 5.457.189 12.64-.887 15.52-1.862 4.986-5.745 8.966-10.937 11.207a23 23 0 0 1-9.03 1.862" style="fill:#231f20;fill-opacity:1;fill-rule:nonzero;stroke:none;stroke-width:.03602" transform="translate(76.19 51.662)scale(.52624)"/><path d="M45.812 184.842c-.889 0-1.67-.515-2.186-1.97-1.11-3.116 2.183-7.165 3.833-8.778 2.362-2.302 5.557-3.53 8.541-3.952 2.283-.324 4.84-.677 7.288-.677.943 0 1.87.054 2.759.18 2.42.346 4.762 1.423 6.719 3.285 2.105 2-1.543 3.858-2.29 4.283-3.213 1.837-5.428 2.205-9.02 2.259-3.519.054-6.983.727-10.164 2.456-1.39.753-3.661 2.914-5.48 2.914" style="fill:#d78725;fill-opacity:1;fill-rule:nonzero;stroke:none;stroke-width:.03602" transform="translate(76.19 51.662)scale(.52624)"/><path d="M59.276 206.627c-2.547 0-5.04-.472-7.276-1.412a22.5 22.5 0 0 1-2.733-1.361l-.778-.494q-.224-.152-.429-.299c-.138-.097-.27-.198-.395-.292a67 67 0 0 0-1.839-1.365c-.886-.641-1.65-1.196-2.755-2.132l-.132-.101-.053-.018c-.332-.263-1.314-1.69-2.238-4.146 4.834 2.77 9.444 7.186 14.87 8.317 1.195.249 2.384.367 3.558.367 4.149 0 8.112-1.498 11.477-4.113 5.983-4.65 7.23-12.755 8.068-20.027l.056.263c1.028 4.992.214 11.93-.823 14.703-1.72 4.607-5.318 8.285-10.135 10.363a21.4 21.4 0 0 1-8.443 1.747" style="fill:#be561e;fill-opacity:1;fill-rule:nonzero;stroke:none;stroke-width:.03602" transform="translate(76.19 51.662)scale(.52624)"/><path d="M59.279 207.365q-.975.002-1.948-.09c-7.254-.677-15.281-5.806-17.66-12.801q.49.257.977.533c.924 2.457 1.906 3.883 2.238 4.146l.053.018.132.1c1.105.937 1.87 1.492 2.755 2.133.553.4 1.126.814 1.839 1.365.125.094.257.195.395.292q.206.147.429.299l.778.493c.811.483 1.706.926 2.733 1.362 2.236.94 4.73 1.412 7.276 1.412 2.84 0 5.747-.584 8.443-1.747 4.817-2.078 8.415-5.756 10.135-10.363 1.037-2.773 1.851-9.71.823-14.703l-.056-.263q.119-1.03.23-2.032c1.617 5.212 1.627 12.092-.303 17.257-2.935 7.864-11.083 12.59-19.27 12.59" style="fill:#472115;fill-opacity:1;fill-rule:nonzero;stroke:none;stroke-width:.03602" transform="translate(76.19 51.662)scale(.52624)"/><path d="M61.097 165.726c-6.641 0-13.707 2.439-17.403 6.596-5.525 6.21-6.36 17.563-1.86 25.307 2.726 4.694 10.222 8.393 15.512 8.9 8.963.872 17.587-4.188 20.508-12.012 3.143-8.418 1.554-22.815-8.173-27.145-2.517-1.12-5.506-1.646-8.584-1.646m-1.765 42.381q-1.059.001-2.128-.1c-5.632-.544-13.6-4.38-16.652-9.632-4.796-8.256-3.884-20.387 2.035-27.04 5.778-6.495 19.238-9.081 27.696-5.317 4.73 2.104 8.178 6.624 9.71 12.722 1.344 5.346 1.063 11.437-.75 16.296-2.919 7.816-11.082 13.071-19.91 13.071" style="fill:#231f20;fill-opacity:1;fill-rule:nonzero;stroke:none;stroke-width:.03602" transform="translate(76.19 51.662)scale(.52624)"/><path d="M60.423 168.85c.606 0 .607-.944 0-.944-.606 0-.608.943 0 .943m-3.897-.655c.607 0 .608-.94 0-.94-.606 0-.607.94 0 .94m11.283-.328c.606 0 .607-.94 0-.944-.607 0-.608.944 0 .944m-21.313 6.221c.607 0 .608-.94 0-.94-.606 0-.607.94 0 .94m.125-2.788c.607 0 .608-.944 0-.944-.606 0-.607.944 0 .944m-2.81 18.154c.607 0 .608-.94 0-.94-.606 0-.607.94 0 .94m-2.771 3.281c.606 0 .607-.944 0-.944s-.608.944 0 .944M48.112 187c.607 0 .608-.944 0-.944-.606 0-.607.944 0 .944m-7.134.338c.607 0 .608-.94 0-.94-.606 0-.607.94 0 .94m2.733-.954c.606 0 .608-.944 0-.944-.606 0-.607.944 0 .944m-2.943-3.537c.606 0 .608-.944 0-.944-.606 0-.608.944 0 .944m11.899 5.986c.606 0 .607-.944 0-.944-.606 0-.608.944 0 .944m7.893-5.911c.607 0 .608-.943 0-.943-.606 0-.607.943 0 .943m-7.345 15.334c.606 0 .607-.94 0-.94-.606 0-.608.94 0 .94m-3.015 1.207c.606 0 .608-.944 0-.944-.606 0-.607.944 0 .944m5.136-4.661c.606 0 .607-.94 0-.94s-.608.94 0 .94m-6.046-4.319c.606 0 .607-.944 0-.944s-.608.944 0 .944m4.928.177.078.079c.18.18.487.18.667 0a.477.477 0 0 0 0-.667l-.079-.079a.48.48 0 0 0-.666 0 .48.48 0 0 0 0 .666m2.376-4.102c.606 0 .607-.944 0-.944-.606 0-.607.944 0 .944m14.766-6.124c.606 0 .607-.943 0-.943s-.608.943 0 .943m6.407-.987c.607 0 .608-.943 0-.943-.606 0-.607.943 0 .943m-3.077 1.149c.606 0 .607-.94 0-.943-.607 0-.608.943 0 .943m-22.22-11.31c.605 0 .606-.94 0-.94-.607 0-.608.94 0 .94M65.708 169c.606 0 .607-.943 0-.943s-.608.944 0 .944m9.142 22.429c.606 0 .607-.944 0-.944s-.608.944 0 .944m-7.97.155c.607 0 .608-.944.001-.944-.606 0-.608.944 0 .944m4.554 3.847c.606 0 .608-.94 0-.94-.606 0-.607.94 0 .94m-28.429.468c.606 0 .607-.943 0-.943s-.608.943 0 .943m3.927-3.061c.606 0 .608-.944 0-.944-.606 0-.607.944 0 .944m-1.441 4.261c.606 0 .607-.944 0-.944-.606 0-.608.944 0 .944m-2.944-18.111c.607 0 .608-.94 0-.94-.606 0-.607.94 0 .94m.316-3.526c.607 0 .608-.94 0-.94-.606 0-.607.94 0 .94m7.102-4.009c.607 0 .608-.944 0-.944-.606 0-.607.944 0 .944m16.994 15.888c.607.004.608-.94 0-.94-.606 0-.607.94 0 .94m-6.36-1.65c.605 0 .607-.94 0-.94s-.608.94 0 .94m6.927-4.866c.607 0 .608-.944 0-.944-.606 0-.607.944 0 .944m-4.267.176c.606 0 .607-.94 0-.94s-.608.94 0 .94m11.707-6.462c.606 0 .608-.943 0-.943-.606 0-.607.943 0 .943m1.671 2.457c.606 0 .607-.94 0-.94s-.608.94 0 .94m-14.971-10.349c.607 0 .608-.943 0-.943-.606 0-.607.943 0 .943m11.493 11.433c.606 0 .607-.94 0-.94s-.608.94 0 .94m-1.735-8.947c.606 0 .607-.94 0-.944-.607 0-.608.944 0 .944m5.667 12.794c.606 0 .608-.944 0-.944-.606 0-.607.944 0 .944m-7.226 2.039c.607 0 .608-.94 0-.94-.606-.004-.607.94 0 .94m4.634 3.771c.606 0 .607-.944 0-.944s-.608.944 0 .944m1.746-1.801c.606 0 .607-.944 0-.944-.606 0-.608.944 0 .944m-2.06-2.046c.606 0 .608-.943 0-.943-.606 0-.607.94 0 .943m-2.828 4.395c.606 0 .607-.94 0-.94-.606 0-.608.94 0 .94m-5.968-4.006c.606 0 .608-.94 0-.943-.606 0-.607.943 0 .943m-1.964 5.81c.606 0 .607-.94 0-.94-.606 0-.608.94 0 .94m7.224 2.36c.607 0 .608-.944 0-.944-.606 0-.607.944 0 .944m-6.833 2.51c.607 0 .608-.94 0-.94-.606 0-.607.94 0 .94m2.306 5.821c.607 0 .608-.94 0-.94-.606 0-.607.94 0 .94m1.385-4.091c.606 0 .608-.945 0-.945-.606 0-.607.944 0 .944m-8.173 5.936c.607 0 .608-.944 0-.944-.606 0-.607.944 0 .944m-1.644-3.267c.607 0 .607-.944 0-.944-.606 0-.608.944 0 .944m-3.861 1.715c.607 0 .608-.944.001-.944-.606 0-.608.944 0 .944m8.572-1.477c.606 0 .607-.944 0-.944-.606 0-.608.944 0 .944m-2.433-5.108c.606 0 .607-.94 0-.94s-.608.94 0 .94m-10.839 2.118c.606 0 .608-.94 0-.94-.606 0-.607.94 0 .94m14.609-9.185c.607 0 .608-.94 0-.94-.606 0-.607.94 0 .94m-11.017-2.723c.607 0 .607-.94 0-.94-.606 0-.608.94 0 .94m3.861-1.963c.606 0 .607-.944 0-.944-.606 0-.608.944 0 .944m2.051 7.121c.607 0 .608-.944 0-.944-.606 0-.607.944 0 .944" style="fill:#cc9c18;fill-opacity:1;fill-rule:nonzero;stroke:none;stroke-width:.03602" transform="translate(76.19 51.662)scale(.52624)"/><path d="M69.962 202.474c.606 0 .607-.94 0-.94s-.608.94 0 .94m8.736-12.812c.606 0 .608-.944 0-.944-.606 0-.607.944 0 .944m-2.844 7.549c.607 0 .608-.943 0-.943-.606 0-.607.943 0 .943m3.101-11.987c.606 0 .607-.944 0-.944s-.608.944 0 .944m-18.703 20.964c.607 0 .608-.944 0-.944-.606 0-.607.944 0 .944m-4.956-1.221c.607 0 .608-.944 0-.944-.606 0-.607.944 0 .944m-3.03-.364c.607 0 .608-.944 0-.944-.606 0-.607.944 0 .944m-5.268-3.991c.606 0 .607-.944 0-.944-.606 0-.608.944 0 .944m3.083 1.578c.607.003.608-.94 0-.94-.606 0-.607.94 0 .94m22.565-.88c.606 0 .607-.94 0-.94-.606-.004-.608.94 0 .94m.975-2.77c.606 0 .608-.94 0-.94-.606 0-.607.94 0 .94m3.659-5.896c.607 0 .608-.944 0-.944-.606 0-.607.944 0 .944m-11.274 12.567c.606 0 .608-.94 0-.94-.606 0-.607.94 0 .94m2.073-1.725c.606 0 .607-.944 0-.944-.606 0-.608.944 0 .944m-23.61-3.076c.606 0 .607-.94 0-.94-.606 0-.608.94 0 .94" style="fill:#cd681c;fill-opacity:1;fill-rule:nonzero;stroke:none;stroke-width:.03602" transform="translate(76.19 51.662)scale(.52624)"/><path d="M67.128 171.925c.606 0 .607-.943 0-.943-.606 0-.608.943 0 .943m-8.438 6.117c.606 0 .607-.94 0-.94s-.608.94 0 .94m4.328-2.889c.607 0 .608-.94 0-.94-.606 0-.607.94 0 .94m8.928-.969c.607 0 .608-.94 0-.94-.606 0-.607.94 0 .94m-7.601-2.986c.607 0 .608-.94 0-.94-.606 0-.607.94 0 .94m-9.077 1.109c.606 0 .607-.94 0-.94s-.608.94 0 .94m-5.813 3.533c.607 0 .608-.943 0-.943-.606 0-.607.944 0 .944m3.77.392c.606 0 .608-.94 0-.94-.606 0-.607.94 0 .94m-.057 3.62c.606 0 .607-.94 0-.94-.606 0-.608.94 0 .94m6.919-7.69c.607 0 .608-.944 0-.944-.606 0-.607.944 0 .944m4.45 5.983c.606.004.607-.94 0-.94s-.608.94 0 .94m4.383-2.968c.606 0 .607-.944 0-.944s-.608.944 0 .944M47.729 182.8c.606 0 .607-.94 0-.94-.606 0-.608.94 0 .94m1.883-3.505c.606 0 .607-.94 0-.94s-.608.94 0 .94m-2.347-1.333c.607 0 .608-.943 0-.943-.606 0-.607.943 0 .943m-2.445 3.141c.607 0 .608-.943.001-.943s-.608.943 0 .943m13.125-5.933c.606 0 .607-.943 0-.943s-.608.944 0 .944m-6.644-1.646c.607 0 .608-.94 0-.94-.606 0-.607.94 0 .94" style="fill:#efd83e;fill-opacity:1;fill-rule:nonzero;stroke:none;stroke-width:.03602" transform="translate(76.19 51.662)scale(.52624)"/><path d="M53.403 199.582c-3.873-2.165-26.155-4.766-35.602-8.256-1.29-.476-4.279-1.524-5.756-1.351-.533.061-.827 1.127-1.047 1.743-.589 1.65.216 8.717.87 10.475 1.728 4.643 5.947 8.461 10.178 10.42 4.229 1.956 9.483 2.684 14.011 2.73 5.216.055 11.908-1.84 15.187-6.068 2.738-3.534 2.989-8.101 2.705-9.164-.048-.18-.235-.357-.546-.53" style="fill:#cd681c;fill-opacity:1;fill-rule:nonzero;stroke:none;stroke-width:.03602" transform="translate(76.19 51.662)scale(.52624)"/><path d="M53.273 200.388h.004zm-41.054-9.685c-.153.183-.349.76-.436 1.015l-.087.249c-.48 1.343.21 8.205.867 9.967 1.517 4.077 5.27 7.91 9.794 10.006 4.848 2.244 10.67 2.633 13.708 2.662 4.991.061 11.44-1.715 14.593-5.781 2.466-3.18 2.81-7.399 2.591-8.454a1 1 0 0 0-.206-.137h-.002c-1.744-.976-7.952-2.14-14.524-3.372-7.49-1.4-15.98-2.993-20.972-4.837-3.304-1.218-4.739-1.362-5.326-1.318m24.054 25.383h-.224c-3.156-.033-9.215-.44-14.315-2.802-4.865-2.252-8.911-6.405-10.56-10.832-.655-1.757-1.556-9.073-.873-10.982l.08-.23c.272-.8.645-1.892 1.578-2 1.173-.14 3.224.332 6.099 1.39 4.875 1.802 13.3 3.38 20.732 4.773 6.983 1.308 13.014 2.439 14.973 3.53.504.281.8.602.902.984.347 1.307.013 6.137-2.836 9.811-3.417 4.406-10.23 6.358-15.556 6.358" style="fill:#231f20;fill-opacity:1;fill-rule:nonzero;stroke:none;stroke-width:.03602" transform="translate(76.19 51.662)scale(.52624)"/><path d="M11.943 193.202c.337-.284-.108-.81-.445-.522-.336.288.109.81.445.522m35.798 18.36c.336-.288-.108-.81-.445-.523-.336.285.108.807.445.523M45.41 209c.335-.287-.11-.81-.446-.522-.336.285.108.807.445.523m-26.653.075c.336-.288-.109-.81-.445-.525-.337.288.108.81.445.525m1.299 1.538c.336-.288-.109-.81-.445-.522-.337.285.108.807.445.522m-3.107-2.672c.336-.285-.109-.807-.445-.523-.337.289.108.81.445.523m4.89 3.428c.336-.287-.109-.81-.445-.521-.337.284.108.806.445.522m-5.804-5.061c.336-.288-.109-.81-.446-.522-.336.284.109.81.446.522m-1.497-1.005c.336-.284-.109-.807-.446-.522-.336.288.109.81.446.522m-.247-1.974c.336-.288-.11-.81-.446-.522-.336.284.108.807.445.522m-1.089-1.498c.336-.285-.108-.807-.445-.523-.336.289.108.81.445.523m-.113-1.697c.337-.284-.108-.807-.445-.522-.336.288.109.81.445.522m12.7 12.895c.336-.288-.109-.81-.446-.525-.336.288.109.81.446.525m5.526 1.239c.336-.288-.108-.81-.445-.522-.336.285.108.81.445.522m-7.664-1.912c.336-.288-.109-.81-.446-.522-.336.284.109.81.446.522m10.529 2.118c.336-.288-.109-.81-.446-.522-.336.284.109.806.446.522m-5.523-.536c.336-.29-.108-.811-.445-.523-.337.284.108.807.445.522m8.128.684c.337-.288-.108-.81-.445-.522-.336.285.108.807.445.522m2.508.069c.336-.288-.108-.81-.445-.522-.336.284.108.81.445.522m-27.017-17.938c.336-.285-.109-.81-.445-.522-.337.288.108.81.445.522m29.846 17.203c.337-.284-.108-.807-.445-.522-.336.288.108.81.445.522m-30.733-18.709c.355.263.763-.288.407-.55-.355-.264-.764.287-.407.55m33.402 18.01c.336-.288-.109-.81-.446-.522-.336.285.11.807.446.522m-32.74-14.678c.355.26.764-.292.408-.555-.355-.262-.764.289-.408.555m36.321 9.927-.065.054c-.336.288.109.81.445.523l.066-.054c.336-.289-.109-.81-.446-.523" style="fill:#cc9c18;fill-opacity:1;fill-rule:nonzero;stroke:none;stroke-width:.03602" transform="translate(76.19 51.662)scale(.52624)"/><path d="M54.055 198.234c-2.606-1.394-14.049-2.51-23.856-4.077-4.3-.688-8.3-1.398-11.078-2.363-1.244-.432-3.146-1.095-4.56-.9-.51.072-.956.252-1.286.597-1.166 1.21.344 8.368 1 10.04 1.73 4.422 5.834 8.01 9.92 9.811s9.135 2.399 13.478 2.356c5-.047 11.387-1.996 14.464-6.116 2.57-3.444 2.739-7.835 2.45-8.85-.05-.173-.231-.34-.532-.498" style="fill:#fcf8cf;fill-opacity:1;fill-rule:nonzero;stroke:none;stroke-width:.03602" transform="translate(76.19 51.662)scale(.52624)"/><path d="M53.92 199.03h.004zm-38.807-7.43q-.235 0-.45.028c-.383.054-.661.177-.853.375-.701.782.299 7.07 1.154 9.257 1.517 3.88 5.169 7.481 9.53 9.405 4.679 2.06 10.267 2.32 13.172 2.29 4.779-.042 10.923-1.861 13.877-5.816 2.303-3.084 2.57-7.114 2.349-8.134a1 1 0 0 0-.185-.119h-.002c-1.678-.897-7.806-1.747-14.295-2.644-3.082-.425-6.27-.864-9.328-1.354-3.869-.62-8.244-1.365-11.204-2.395-1.048-.364-2.57-.894-3.765-.894m22.156 22.84c-3.124 0-8.654-.342-13.372-2.42-4.707-2.076-8.659-5.99-10.312-10.22-.393-1.001-2.513-9.087-.844-10.824.426-.443 1.004-.716 1.72-.814 1.593-.223 3.584.472 4.904.933 2.846.99 7.145 1.722 10.95 2.33 3.044.487 6.224.926 9.299 1.351 6.909.955 12.875 1.78 14.789 2.803.496.263.79.573.896.947.355 1.25.11 5.907-2.568 9.499-3.258 4.362-9.907 6.364-15.051 6.415z" style="fill:#231f20;fill-opacity:1;fill-rule:nonzero;stroke:none;stroke-width:.03602" transform="translate(76.19 51.662)scale(.52624)"/><path d="M48.464 197.089c.516.043 1.1 0 1.603.148.502.15 1.105.302 1.346.81.411.861-.009 1.866-.424 2.687l-1.953 3.88c-.54 1.07-1.192 2.236-2.29 2.52-.642.167-1.338-.01-1.937-.352-.6-.339-1.115-.836-1.611-1.34a38.3 38.3 0 0 1-6.482-8.872 4 4 0 0 1-.285-.781c-.088-.346-.054-.573.268-.508 1.945.403 8.254 1.513 11.765 1.808" style="fill:#c89519;fill-opacity:1;fill-rule:nonzero;stroke:none;stroke-width:.03602" transform="translate(76.19 51.662)scale(.52624)"/><path d="m37.342 196.163.03.061a37.5 37.5 0 0 0 6.354 8.7c.442.45.918.91 1.45 1.213.497.285.987.386 1.384.281.781-.202 1.324-1.167 1.814-2.14l1.954-3.879c.352-.695.677-1.484.417-2.035-.087-.18-.468-.292-.803-.389l-.086-.025c-.254-.076-.577-.087-.92-.097-.182-.007-.361-.011-.534-.026-3.196-.27-8.56-1.185-11.06-1.664m8.9 11.775c-.586 0-1.206-.173-1.8-.511-.697-.397-1.28-.966-1.772-1.466a39 39 0 0 1-6.608-9.045 4.7 4.7 0 0 1-.349-.944c-.048-.187-.19-.752.198-1.16.134-.14.434-.36.936-.255 1.833.378 8.197 1.502 11.679 1.794.147.01.3.014.456.021.402.01.858.025 1.296.155l.082.025c.539.159 1.352.4 1.722 1.174.609 1.28-.094 2.673-.43 3.343l-1.955 3.876c-.475.944-1.27 2.521-2.766 2.91a2.7 2.7 0 0 1-.69.083" style="fill:#231f20;fill-opacity:1;fill-rule:nonzero;stroke:none;stroke-width:.03602" transform="translate(76.19 51.662)scale(.52624)"/><path d="M18.77 191.603c-.476-.209-.998-.44-1.478-.277-.386.133-.666.504-.805.918s-.157.868-.156 1.315c.001.717.092 1.416.187 2.125.107.793.115 1.585.294 2.374.18.792.49 1.57.996 2.183.507.616 1.225 1.051 1.967 1.066.48.01.942-.151 1.385-.339 2.107-.882 3.78-2.485 5.763-3.598a89 89 0 0 0 2.996-1.794c.44-.28 1.598-1.17.655-1.333-3.457-.601-8.023-.961-11.803-2.64" style="fill:#c89519;fill-opacity:1;fill-rule:nonzero;stroke:none;stroke-width:.03602" transform="translate(76.19 51.662)scale(.52624)"/><path d="M17.641 192.01a.3.3 0 0 0-.11.018c-.128.043-.266.223-.342.454-.098.292-.118.641-.117 1.073 0 .692.096 1.402.18 2.032.04.299.068.601.095.904.044.49.085.95.187 1.401.177.782.462 1.412.846 1.88.402.487.93.782 1.41.793.342-.004.728-.13 1.082-.277 1.173-.494 2.205-1.225 3.298-1.996.76-.54 1.546-1.095 2.39-1.57a81 81 0 0 0 2.962-1.773 3 3 0 0 0 .154-.104q-.781-.123-1.612-.245c-3.068-.454-6.546-.969-9.594-2.32-.275-.122-.607-.27-.829-.27m2.177 10.039-.059-.004c-.919-.018-1.839-.504-2.522-1.333-.533-.645-.92-1.484-1.148-2.492-.124-.548-.171-1.081-.218-1.596a19 19 0 0 0-.087-.843c-.09-.674-.192-1.434-.193-2.222-.002-.501.021-1.038.194-1.553.23-.684.693-1.185 1.27-1.383.754-.256 1.483.068 2.015.303h.001c2.864 1.271 6.236 1.768 9.21 2.208a98 98 0 0 1 2.42.378c.742.13.915.612.956.814.15.749-.646 1.433-1.341 1.873a80 80 0 0 1-3.03 1.815c-.776.436-1.497.948-2.26 1.484-1.11.79-2.258 1.6-3.58 2.154-.465.195-1.021.397-1.628.397" style="fill:#231f20;fill-opacity:1;fill-rule:nonzero;stroke:none;stroke-width:.03602" transform="translate(76.19 51.662)scale(.52624)"/><path d="M42.9 206.454c.468.414 1.022 1.002.607 1.64a.9.9 0 0 1-.32.294c-1.442.775-3.25.739-4.826 1.153-.92.241-1.979.39-2.776-.22-.926-.71-.807-1.458-.88-2.669-.193-3.191-.679-6.627-.871-9.819-.023-.374-.045-.756.047-1.113.114-.44.44-.843.902-.796.24.022.446.213.524.465.97 3.134 4.297 8.13 7.593 11.065" style="fill:#c89519;fill-opacity:1;fill-rule:nonzero;stroke:none;stroke-width:.03602" transform="translate(76.19 51.662)scale(.52624)"/><path d="M34.65 195.767a1 1 0 0 0-.051.137c-.065.248-.045.573-.026.882.095 1.582.267 3.26.433 4.881.167 1.635.34 3.328.438 4.942q.016.266.024.504c.039.951.072 1.24.567 1.618.437.335 1.098.363 2.139.093.6-.158 1.225-.252 1.829-.345 1.039-.155 2.02-.307 2.834-.743l.049-.046q.105-.164-.479-.685c-3.207-2.856-6.651-7.856-7.757-11.238m2.33 14.725c-.63 0-1.273-.144-1.845-.584-1.07-.817-1.108-1.75-1.147-2.733q-.008-.227-.023-.476c-.095-1.581-.267-3.26-.433-4.88-.167-1.64-.34-3.329-.438-4.943-.025-.407-.053-.871.07-1.343.225-.868.914-1.423 1.692-1.347.536.054.99.44 1.159.983.98 3.166 4.29 7.979 7.378 10.73 1.02.908 1.267 1.783.735 2.597a1.6 1.6 0 0 1-.587.54c-1.041.563-2.198.74-3.315.908-.592.09-1.151.177-1.677.314-.478.122-1.02.234-1.569.234" style="fill:#231f20;fill-opacity:1;fill-rule:nonzero;stroke:none;stroke-width:.03602" transform="translate(76.19 51.662)scale(.52624)"/><path d="M32.047 194.737c.296-.223.717.004.746.403.167 2.284.033 8.76.668 11.43.11.46.232.925.233 1.397s-.134.962-.463 1.257c-.47.418-1.166.324-1.774.18-2.659-.63-5.219-1.855-7.472-3.573-.822-.63-1.682-1.495-1.652-2.565.028-1.037.879-1.757 1.652-2.334 1.687-1.253 5.633-4.365 8.062-6.195" style="fill:#c89519;fill-opacity:1;fill-rule:nonzero;stroke:none;stroke-width:.03602" transform="translate(76.19 51.662)scale(.52624)"/><path d="M32.047 194.737h.004zm.033.904a534 534 0 0 0-3.89 2.997c-1.5 1.16-2.914 2.258-3.762 2.889-.8.594-1.337 1.12-1.355 1.761-.016.602.429 1.24 1.362 1.952 2.16 1.65 4.647 2.842 7.193 3.444.37.086.89.18 1.11-.015.132-.118.217-.392.216-.698-.001-.343-.09-.714-.184-1.103l-.03-.13c-.454-1.908-.527-5.532-.586-8.442a101 101 0 0 0-.074-2.655m.232 14.628c-.42 0-.795-.09-1.025-.144-2.747-.649-5.427-1.931-7.752-3.707-1.338-1.023-1.973-2.06-1.943-3.173.04-1.488 1.284-2.41 1.951-2.907.837-.623 2.247-1.715 3.738-2.87a450 450 0 0 1 4.32-3.322 1.15 1.15 0 0 1 1.194-.13c.42.188.703.602.737 1.07.054.739.077 1.87.103 3.177.054 2.694.129 6.38.546 8.134l.03.126c.11.453.223.929.224 1.444.003.746-.257 1.405-.712 1.808-.43.386-.947.494-1.411.494" style="fill:#231f20;fill-opacity:1;fill-rule:nonzero;stroke:none;stroke-width:.03602" transform="translate(76.19 51.662)scale(.52624)"/><path d="M26.709-34.444 25.022 34.57c.112 8.63-17.778 19.365-31.245 26.684-.691.378-1.258.684-1.67.915-12.296 6.887-17.704 10.586-17.037 26.122l1.08 25.217a824111 824111 0 0 1 5.253 122.331c.385 10.893 29.152 27.696 63.868 27.833h.423c15.286 0 30.695-3.303 43.44-9.318 11.116-5.245 18.532-11.847 19.37-17.243L115.4 91.536c.7-14.898-3.362-19.109-19.88-27.959-1.296-.724-31.484-17.675-31.436-27.458L63.1-34.058Zm18.995 299.6h-.44c-16.124-.065-32.32-3.645-45.603-10.082-11.962-5.796-19.525-13.147-19.739-19.184-.004-.098-.442-10.33-1.12-26.072-1.057-24.652-2.71-63.16-4.133-96.245l-1.08-25.218c-.703-16.378 5.282-20.473 17.794-27.48.417-.233.988-.543 1.686-.921C13.364 48.92 23.616 40.38 23.54 34.564l1.724-70.506 39.298.418 1.003 71.636c-.037 7.413 22.123 21.4 30.665 26.165 16.906 9.055 21.383 13.727 20.648 29.327l-6.903 145.69c-1.69 11.268-29.386 27.862-64.27 27.862" style="fill:#231f20;fill-opacity:1;fill-rule:nonzero;stroke:none;stroke-width:.03602" transform="translate(76.19 51.662)scale(.52624)"/><path d="M65.236-42.945V32.09s-5.23 3.522-19.104 3.41a57 57 0 0 1-9.625-.882c-3.918-.713-6.892-1.725-8.849-2.54-1.843-.766-3.874-1.591-3.874-1.591l1.196-75.25 2.678.123 8.849.4z" style="fill:#ca851a;fill-opacity:1;fill-rule:nonzero;stroke:none;stroke-width:.03602" transform="translate(76.19 51.662)scale(.52624)"/><path d="M38.782-43.77v78.863c-3.918-.713-6.891-1.726-8.848-2.543v-76.716z" style="fill:#d8a640;fill-opacity:1;fill-rule:nonzero;stroke:none;stroke-width:.03602" transform="translate(76.19 51.662)scale(.52624)"/><path d="M25.079 30.1c1.698.908 9.28 4.56 21.06 4.658l.64.003c11.108 0 16.409-2.402 17.717-3.101v-73.899l-38.78-1.75zm21.713 6.142q-.329.001-.665-.004c-13.815-.112-21.84-4.866-22.176-5.068l-.362-.22.004-.421.655-76.067 41.73 1.884V32.48l-.327.22c-.217.148-5.412 3.54-18.859 3.54" style="fill:#231f20;fill-opacity:1;fill-rule:nonzero;stroke:none;stroke-width:.03602" transform="translate(76.19 51.662)scale(.52624)"/><path d="m67.777-54.29-.019 6.371c0 3.591-2.393 6.732-5.848 7.723-8.617 2.464-17.36 2.874-26.215 1.361a67 67 0 0 1-6.573-1.459 8.2 8.2 0 0 1-1.764-.716 8.03 8.03 0 0 1-4.175-7.028l.102-6.134c0-.947.178-1.884.516-2.77l-.114-3.155-.11-.371a5.6 5.6 0 0 1-.212-1.445l-.182-16.065h44.575v16.728a6 6 0 0 1-.576 2.575l-.027 2.018.03.057a4.8 4.8 0 0 1 .592 2.31" style="fill:#ecf9f7;fill-opacity:1;fill-rule:nonzero;stroke:none;stroke-width:.03602" transform="translate(76.19 51.662)scale(.52624)"/><path d="m23.932-77.24.173 15.32c.007.418.07.84.185 1.25l.134.454.122 3.4-.053.14a7 7 0 0 0-.467 2.504l-.103 6.145a7.27 7.27 0 0 0 3.791 6.365c.511.28 1.05.5 1.603.652a66 66 0 0 0 6.5 1.444c8.805 1.506 17.514 1.052 25.89-1.343 3.126-.894 5.31-3.779 5.31-7.01l.02-6.372a4.1 4.1 0 0 0-.5-1.952l-.125-.234.031-2.367.069-.147c.33-.703.506-1.48.506-2.259v-15.99zm22 40.026c-3.432 0-6.89-.299-10.362-.89a68 68 0 0 1-6.644-1.476 8.8 8.8 0 0 1-1.925-.782 8.76 8.76 0 0 1-4.559-7.676l.102-6.148c0-.97.172-1.938.51-2.875l-.104-2.914-.083-.284a6.4 6.4 0 0 1-.243-1.643l-.19-16.818h46.065v17.47c0 .937-.2 1.884-.578 2.741l-.022 1.672a5.54 5.54 0 0 1 .619 2.546l-.019 6.376c0 3.886-2.625 7.355-6.385 8.432a58.8 58.8 0 0 1-16.183 2.27" style="fill:#231f20;fill-opacity:1;fill-rule:nonzero;stroke:none;stroke-width:.03602" transform="translate(76.19 51.662)scale(.52624)"/><path d="M35.695-38.835a67 67 0 0 1-6.573-1.459 8.2 8.2 0 0 1-1.764-.716l-.902-33.593 1.866-3.375.125-.23 1.206.23 5.336 1.005z" style="fill:#fff;fill-opacity:1;fill-rule:nonzero;stroke:none;stroke-width:.03602" transform="translate(76.19 51.662)scale(.52624)"/><path d="M45.775-54.478c-10.886 0-19.997-2.302-21.946-5.248-.038.702-.02 2.103.113 2.813 2.078 2.903 10.95 4.974 21.72 4.974 10.953 0 19.73-1.776 21.531-4.646.046-.526-.04-1.438-.06-2.31-2.886 2.569-11.416 4.417-21.358 4.417" style="fill:#cd681c;fill-opacity:1;fill-rule:nonzero;stroke:none;stroke-width:.03602" transform="translate(76.19 51.662)scale(.52624)"/><path d="M24.644-57.216c1.853 2.277 9.566 4.539 21.017 4.539 10.509 0 18.977-1.7 20.804-4.153.004-.184-.003-.415-.014-.663-3.8 2.28-11.762 3.757-20.676 3.757-9.51 0-17.677-1.682-21.197-4.225.015.277.037.536.066.745m21.017 6.02c-11.087 0-20.057-2.126-22.32-5.285l-.097-.133-.03-.162c-.145-.778-.166-2.237-.126-2.99l.122-2.24 1.236 1.87c1.599 2.42 10.014 4.92 21.33 4.92 9.485 0 18.065-1.74 20.864-4.23l1.195-1.062.038 1.6c.008.306.023.619.038.914.029.584.054 1.084.021 1.473l-.015.177-.096.155c-2.311 3.681-12.962 4.992-22.16 4.992" style="fill:#231f20;fill-opacity:1;fill-rule:nonzero;stroke:none;stroke-width:.03602" transform="translate(76.19 51.662)scale(.52624)"/><path d="M47.771-46.946q-.435.001-.868-.004c-9.85-.126-20.103-2.273-23.851-4.992l.87-1.2c3.473 2.522 13.575 4.59 23 4.708 10.143.13 18.855-1.902 20.328-3.804l1.172.904c-2.16 2.792-12.022 4.388-20.65 4.388" style="fill:#231f20;fill-opacity:1;fill-rule:nonzero;stroke:none;stroke-width:.03602" transform="translate(76.19 51.662)scale(.52624)"/><path d="m23.933-77.236.173 15.312q.008.64.184 1.25l.134.458.122 3.4-.054.14a7.1 7.1 0 0 0-.468 2.504l-.1 6.145c0 3.256 2.219 6.145 5.394 7.017 11.086 3.043 21.983 3.076 32.387.1 3.129-.896 5.314-3.778 5.314-7.009l.018-6.372c0-.677-.172-1.354-.5-1.949l-.127-.23.033-2.377.069-.144a5.3 5.3 0 0 0 .507-2.259v-15.986zM45.947-37.22c-5.6 0-11.286-.789-17.02-2.36-3.818-1.048-6.484-4.527-6.484-8.46l.1-6.145a8.5 8.5 0 0 1 .511-2.875l-.105-2.917-.082-.285a6 6 0 0 1-.242-1.643l-.19-16.814H68.5v17.47a6.8 6.8 0 0 1-.58 2.741l-.024 1.672a5.5 5.5 0 0 1 .622 2.55L68.5-47.92c0 3.89-2.627 7.359-6.389 8.432a58.6 58.6 0 0 1-16.165 2.266" style="fill:#231f20;fill-opacity:1;fill-rule:nonzero;stroke:none;stroke-width:.03602" transform="translate(76.19 51.662)scale(.52624)"/><path d="M67.76-78.129c0 3.516-9.979 6.368-22.288 6.368s-22.288-2.852-22.288-6.368c0-3.52 9.979-6.368 22.288-6.368S67.76-81.648 67.76-78.13" style="fill:#f5fcfb;fill-opacity:1;fill-rule:nonzero;stroke:none;stroke-width:.03602" transform="translate(76.19 51.662)scale(.52624)"/><path d="M45.472-83.755c-12.698 0-21.547 2.964-21.547 5.626s8.849 5.626 21.547 5.626 21.547-2.964 21.547-5.626-8.849-5.626-21.547-5.626m0 12.733c-11.164 0-23.029-2.49-23.029-7.107 0-4.618 11.865-7.11 23.03-7.11 11.163 0 23.028 2.492 23.028 7.11s-11.865 7.107-23.029 7.107" style="fill:#231f20;fill-opacity:1;fill-rule:nonzero;stroke:none;stroke-width:.03602" transform="translate(76.19 51.662)scale(.52624)"/></svg>