<svg xmlns="http://www.w3.org/2000/svg" xml:space="preserve" width="200mm" height="200mm" viewBox="0 0 200 200"><path d="M24901.8 12936.8h.6zm0 0h-8.9zm-9.6 0h-.8zm-1941.7 4188.6c-10.6 248.7-20.8 485.8-30 700.1 16-213.9 19.4-451.4 30-700.1m3909.1 673.2c6 320.3-77.6 431.2-456.1 665.6 377.9-225 462.1-342.2 456.1-665.6m-3941.6 123.8c-.7 192.4 31.2 304.8 158.1 422.5-90.8-103.3-153.2-237.2-158.1-422.5m3095.3 774.2c-174.6 106.3-401.5 253.6-443.1 325.1-154.6-32.6-386.8-111.6-573.9-121.5-26.6-1.4-52.7-2.1-78.2-2.1-351.4 0-598.6 127.1-715.4 194-51.3-100.4-286.5-236.9-455.2-327.3 207.7 116.3 562.6 339.4 559.8 553.5l58.5 1914h1017.3l49.8-1957.6c-.9-172 343.1-424.5 580.4-578.1" style="fill:#f6fcfb;fill-opacity:1;fill-rule:nonzero;stroke:none" transform="matrix(.01814 0 0 -.01814 -351.611 425.463)"/><path d="M26222.5 18573.3s-583 329.4-652.3 448.4c-154.6-32.6-386.8-111.6-573.9-121.5-393.1-20.8-668.3 120.1-793.6 191.9-73.1-143.1-520-359.6-615.2-411.4-294.1-160-707.9-307.6-667-855.2 16-213.9 19.4-451.4 30-700.1 39.5-918.5 85.4-1987.6 114.8-2672 18.8-436.6 31-723 31.1-724 11.3-319.9 821.2-788.7 1793.6-792.6 949.2-3.8 1729.7 446.9 1776 755.9l39.3 828.4 123.3 2605.7 28.9 608.6c19.8 419.8-71.7 504.3-635 837.9" style="fill:#4c2c15;fill-opacity:1;fill-rule:nonzero;stroke:none" transform="matrix(.01814 0 0 -.01814 -351.611 425.463)"/><path d="M26344.9 13709.4c-.1 0-.2 0-.4.1h-.7c-62.5.5-111.9 52.2-110.3 115.4l90.3 3564.2c1.8 71.1 56.8 128.5 123 128.5h1c66.6-.6 119-59.1 116.9-130.5l-104.4-3564.4c-1.8-62.8-53.4-113.3-115.4-113.3m-2420-299.2c-11.8 0-23.9 1.9-36 5.9-35.9 12-76.5 27.6-119.9 47.6-107.3 49.5-249.7 157.1-329.9 221-38.8 30.9-62.6 79.5-64.4 131.4l-131.3 3822c-2.8 82.9 12.6 165.3 47.7 236.2 54.3 109.4 129.6 148.8 210 148.8 34 0 69-7.1 103.6-18.9 204.5-69.9 345.6-292.2 351.1-538.2l87.1-3923.6c1.6-75.3-53.5-132.2-118-132.2" style="fill:#87511c;fill-opacity:1;fill-rule:nonzero;stroke:none" transform="matrix(.01814 0 0 -.01814 -351.611 425.463)"/><path d="m26828.6 17126.8-123.3-2605.7c-64-59.2-140.6-117.8-229.5-173.3h-.1c-69.9-43.5-147.1-85.1-232.1-123.4-316.6-143.7-738-244.6-1259.2-242.8-340.3 1.2-632.6 38.3-885.7 93.9h-.1c-291.2 63.8-530.8 152.4-731.1 238.9-112.4 48.5-212.5 96.5-302.2 139-29.4 684.4-75.3 1753.4-114.8 2672 87.4-34 193.2-73.9 316.5-115.2 207.4-69.3 464-142.8 765.7-199.4h.1c258-48.5 549-84.7 870.4-96.2 608.2-21.2 1064.9 76.2 1408.4 193.8h.1c87.7 30 168.2 61.5 241.7 92.5 105 44.3 196.2 87.8 275.2 125.9" style="fill:#fef4eb;fill-opacity:1;fill-rule:nonzero;stroke:none" transform="matrix(.01814 0 0 -.01814 -351.611 425.463)"/><path d="m26553.4 17000.9-77.7-2653.1c-69.9-43.5-147.1-85.1-232.1-123.4l68 2684h.1c87.7 30 168.2 61.5 241.7 92.5m-2521.6-2902.1c-291.2 63.8-464 129.1-664.3 215.6l-100.5 2695.8c207.4-69.3 403.8-130.9 705.5-187.4z" style="fill:#fff;fill-opacity:1;fill-rule:nonzero;stroke:none" transform="matrix(.01814 0 0 -.01814 -351.611 425.463)"/><path d="m26821.1 17123.9-4.2-116.8c-75.5-36.3-163.7-79.4-267-123.6-72.6-31.1-152.7-62.9-241.3-93.5-303.6-104.7-705.7-194.9-1241.3-194.9-54.2 0-109.5.9-166.2 2.9-320.2 11.2-608.4 46.7-865.5 95-295 55.5-549.3 128-764.3 200.4-122.3 41.1-231.8 82.3-329.1 120.2l30.6 113.2c409.2-159.8 1054.9-375.7 1932.6-406.6 982.1-34.5 1596.1 249.7 1915.7 403.7m-105-2588.4c-51.9-48.3-130.3-113.1-240.2-181.2-65.7-40.5-142.7-82.3-232.1-122.3-281-125.7-684.7-233.8-1245.2-233.8h-14.4c-338.7 1.3-631.6 37.8-885.9 92.8-290.4 62.8-530.6 149.5-731.3 234.9-114.3 48.7-215.8 96.8-306.5 139.9l7.4 139.8 45.1-29.3c75-35.7 157.6-74.9 249-114.9 198.9-87.2 439.3-178.1 733.2-244.1 253.9-57.2 547.7-95.7 889.3-96.8h12.8c458.2 0 901 101.5 1250.4 265.7 83.3 39.1 161.3 81.8 232.9 127.5 80.8 51.6 153.6 107 216.8 165.6z" style="fill:#c69b53;fill-opacity:1;fill-rule:nonzero;stroke:none" transform="matrix(.01814 0 0 -.01814 -351.611 425.463)"/><path d="M26247.7 14387.8c83.3 39 161.3 81.7 232.9 127.4l-4.7-160.9-.2-6.5c-69.9-43.5-147.1-85.1-232.1-123.4l.2 7.6zm305.7 2613.1-3.5-119.3c-72.6-31.1-152.7-62.9-241.3-93.5l3 120.3h.1c87.7 30 168.2 61.5 241.7 92.5m-2578.3-299.2c-271.6 55.4-508 119.3-706 191.7l-4 116.8c191.1-69.3 427.4-142.8 705.2-199.4zm55.9-2626.2c-268.2 63.8-488.8 152.4-673.4 238.9l-.4 11.5 4 138c185.6-84.1 397.2-162.6 667.8-228.7l1.7-144.2z" style="fill:#e3cca5;fill-opacity:1;fill-rule:nonzero;stroke:none" transform="matrix(.01814 0 0 -.01814 -351.611 425.463)"/><path d="m23085.3 14466.7 10.2-4.9c383-181.8 961.8-456.5 1888.9-459.7h12.9c696.6 0 1325.8 197 1687.8 528.4l121.4 2562.8c-332.8-159.8-932.6-433.4-1903.9-399.2-869.5 30.6-1514.1 240.1-1930.2 400.7 39-905.8 83.9-1951.1 112.9-2628.1m1913-505.8c-4.7 0-9.3.1-14.1.1-936.3 3.2-1520 280.3-1906.3 463.6l-32.7 15.5-.5 12.4c-29.3 684.5-75.2 1753.5-114.7 2672l-1.4 31.5 29.4-11.4c412-160.9 1062.1-378.3 1946-409.4 992.3-34.8 1593 254.7 1915.7 410.2l31.1 14.9-125.4-2648.5-6.2-5.8c-166.7-154.6-397.1-286-666.2-379.8-314.4-109.7-669.3-165.3-1054.7-165.3" style="fill:#231f20;fill-opacity:1;fill-rule:nonzero;stroke:none" transform="matrix(.01814 0 0 -.01814 -351.611 425.463)"/><path d="M23376.9 16604c4.6-.5 9.7-1.5 15.2-3.2 13.1-4 23.8-9.5 32.2-16.4 5.3-4.5 10.6-11.5 15.8-21 5.2-9.6 8.1-17.6 8.6-24.1.6-5.6-.1-11.2-1.8-17.1-3-9.9-7.5-15.6-13.4-17.3-2.1-.7-5.6-.2-10.6 1.3-4.1 1.2-7.2 4.1-9.4 8.8-2.3 4.6-2.7 9.2-1.4 13.5 1.2 3.8.1 9-3.1 15.7s-7.1 11.5-11.6 14.5c-2.8 2.1-6.4 3.9-10.8 5.2-14.5 4.4-32.2 2.6-53-5.3-20.9-8-38.8-20-53.9-36.1-22-23.4-38.4-50.6-49-81.3-.3-1.2-1-3-1.9-5.6-1-2.6-1.6-4.5-2-5.6-17.4-57.3-9.9-101.2 22.4-131.7 6-5.6 11.5-9.2 16.8-10.8 3.2-.9 5.8-1.6 8-1.9q13.05-2.55 21.6-.9c5.7 1.1 12.5 4.2 20.4 9.1 7.8 4.9 13.6 9.2 17.2 12.8 3.7 3.7 7.9 9.7 12.7 18.1 9.1 15.4 18.4 21.6 28 18.6q6.6-1.95 11.1-10.5c2.9-5.3 3.8-9.5 2.8-12.7-.2-.9-1.3-3.3-3.1-7.2-8-17.9-20.8-33.5-38.5-46.9-17.8-13.3-35.2-20.6-52.4-21.7-8.8-.8-20.8.9-36 5.2-14 4.3-24.7 9.8-32.2 16.5-22.6 20.8-37.1 44.4-43.5 70.9-6.4 26.4-5.4 57.3 3.2 92.8.6 3 1.8 7.6 3.7 13.7 10.8 35.4 27.7 66.8 50.7 94.1 23.1 27.3 47.4 45.8 72.9 55.6 9.7 3.7 20.8 6.6 33.4 8.9 12.6 2.2 22.9 2.8 30.9 2m102.3-127.1c4 2.5 8.8 3 14.4 1.7q8.4-2.1 11.4-7.5c2-3.3 1.5-13-1.5-29.2l-4.2-22.9 16.6 8.2c12 5.8 25.3 10.4 39.9 13.7 10.9 2.4 18.6 3.6 23.2 3.8 4.6.1 12.4-.9 23.5-2.9 4.1-.7 8.9-1.7 14.2-3 7.1-1.8 13.1-4.6 18.1-8.7 9.3-6.9 16.3-14.6 21.2-22.9 4.8-8.4 6.5-15.5 5.1-21.4l-.6-1.3-.5-1.3c-4.7-8.9-11.3-12.3-19.9-10.2q-8.85 2.25-17.1 12.6c-7 9.9-15.2 15.9-24.6 18.2-3.6.9-7.6 1.4-12.3 1.6-31.5 1.7-62.7-11.3-93.5-39.2l-10.1-8.8c-4-16.2-9.6-40.8-17-73.7s-13.1-57.7-17.1-74.2l-6.7-4.5c-4.6-3.2-9.5-4.2-14.8-2.9-4.8 1.1-8.4 4-11 8.7-4.2 7.3-.8 33.5 10.2 78.7q3.15 13.35 20.1 78.6c12.8 49.1 20.9 79.1 24.1 89.9 3.3 10.7 6.2 17.1 8.9 18.9m356.4-129.1c-6.9 6-16 10.5-27.2 13.3l-5.8 1.1c-8.3 1.7-15.4 1.8-21 .5-5.7-1.4-12.7-4.8-20.9-10.3-13.2-8.9-23.2-21.1-30-36.8-2.8-6.3-4.3-10.2-4.6-11.7q-.6-2.7.9-4.8 8.1-10.5 45.3-20.1c4.4-1.2 9.4-2.3 15.1-3.4 7.1-1.4 14.8-1 23 1.5 7.9 2.1 15.6 6.3 23.2 12.6 7.6 6.2 12.6 12.4 15 18.4.5.8.9 2.1 1.3 3.9 2.5 12.8-2.3 24.8-14.3 35.8m-51.8 55.8c6.4.9 15.1.3 26.1-1.9 15.5-3.1 28.7-7.8 39.5-14.3 8.6-5.1 16.5-12.7 23.8-22.8 7.3-10.2 12.2-20.2 14.5-30.3 2.2-10.7 2.5-20.5.7-29.4q-5.25-26.4-33-47.4c-24-17.9-50.5-24-79.4-18.3-.9.2-2.4.6-4.6 1.2q-3.3.9-5.1 1.2c-14.2 3.8-26 8-35.6 12.6-4.2 2.4-8.5 4-13 4.9l-1.4.3c-.7-.8-1-5.5-.7-14.3q.45-13.05 2.4-24.6c1-7 3.9-14.3 8.4-21.9 4.6-7.5 9.7-13.4 15.4-17.6 6.5-4.7 13.1-7.7 20-9.1 19.1-3.8 35.4 1.4 49 15.4 6.6 6.4 11.4 10.5 14.5 12 3.7 1.8 7.4 2.3 11 1.6 4.7-1 8.7-3.6 11.7-7.9q4.5-6.45 3-14.1c-1.3-6.6-6.1-13.8-14.3-21.8s-17.1-13.8-26.5-17.5c-19.7-7.6-36.9-9.9-51.5-7-.9.1-2.2.5-3.8.9-1.6.5-3 .9-4.2 1.1-21.8 5.5-39.7 17.7-53.6 36.6-9.8 13.4-16.1 30.4-19 51.1s-2.1 42.3 2.3 64.6c1.8 9 4.5 18.8 8.2 29.5 8.5 24.4 21.1 44.2 37.7 59.5 16.7 15.3 35.8 24.5 57.5 27.7m409.7-74.6c5.6.7 12.9.4 22-.9l4.9-.7c19.8-3.7 35.3-13.9 46.8-30.6 5-7.5 8.8-15.1 11.2-22.8s4.5-18.9 6-33.5c1.4-11.6 1.8-21.8 1-30.6s-3.4-30.5-7.7-65.2c-1.6-13-3.7-28.5-6.2-46.5-4-27.7-8.6-43.6-13.8-47.8-3.5-2.9-8.2-3.9-14.2-3-6.3.9-10.5 3.2-12.4 6.8-1.8 2.7-2.3 8.1-1.6 16.1.7 8.1 3.4 29.1 8.3 63.1 4.6 34.3 7.3 56.3 8 65.8.8 9.6.7 19.8-.2 30.7-1.5 15.2-3.4 26.6-5.7 34s-5.8 13.1-10.4 17.1c-4.9 4.4-10.9 7.1-17.8 8.1-5.1.7-11.4.7-18.9-.1-12.1-1-25.8-9.2-41-24.5s-28.8-34.4-40.6-57.3c-4.7-9.1-7.9-17-9.6-23.5s-4.9-22.9-9.6-49.3c-5.1-29-8.7-46.7-10.8-53s-6.1-10.1-11.8-11.4c-4.1-1-7.1-1.3-8.9-1-2.7.3-6.1 3.1-10.3 8.3l-6.2 8.3 13.1 78.2c5 31.2 7.9 49 8.5 53.2 2.6 18.6 3.7 32.9 3.3 42.8-.9 17-3.1 29-6.5 36.1-3.5 7.1-9.1 11.2-16.9 12.4-12.1 1.7-25.4-2.3-40.2-11.8q-22.05-14.4-39-39.6l-9-14.3-9.4-69.6-4.4-30.7c-2.6-18-4.5-29.3-5.8-33.9q-1.95-6.9-5.7-10.5c-3.5-3.5-7.1-5-10.7-4.4-.3 0-1 .2-2 .5-1.1.3-1.9.5-2.5.6-6 1.1-10.3 4.2-12.9 9.2-2 3.6-2.6 9.2-2 16.6.6 7.5 3.2 27.4 7.8 59.9 14.6 101.7 25 159.4 31.3 173.3 4.1 7.7 9.8 11 17.1 10 4.2-.6 7.8-3 10.9-7.1 2.8-3.8 4.1-11.1 3.8-21.7l-.9-16 13.9 10.1c20.2 14.5 41.5 20.9 64 19.3 1.2-.2 2.6-.3 4.3-.4s2.8-.2 3.4-.3c5.7-.8 12.5-3.9 20.3-9.3 14-10 22.7-24.8 26.4-44.3.4-1.6.8-3.7 1.2-6.2s.8-4.6 1.2-6.4c.3-1.7.6-2.9.8-3.6.4-1.2.8-1.9 1.1-2q2.25-.3 13.2 12c21.6 24.2 45.5 38 71.8 41.3m280.4-68.6c-7.5 5.3-16.9 8.7-28.4 10.4l-5.9.5c-8.5.8-15.4.3-21-1.7-5.5-1.9-12-6-19.6-12.3-12.3-10.2-21-23.4-26.2-39.7-2.1-6.6-3.2-10.6-3.3-12.1-.2-1.8.2-3.4 1.3-4.7q9.3-9.6 47.1-15.3c4.6-.8 9.7-1.4 15.4-1.9 7.3-.7 14.9.6 22.8 3.8 7.6 3 14.9 8 21.8 14.9 6.9 7 11.2 13.7 13 19.9.4.9.7 2.2.9 4 1.2 13-4.8 24.4-17.9 34.2m-57.2 50.2c6.2 1.5 15 1.8 26.2.7 15.7-1.4 29.3-4.8 40.7-10.1 9.1-4.2 17.7-11 26-20.3s14.2-18.9 17.5-28.6c3.3-10.4 4.6-20.1 3.7-29.2-1.6-17.9-10.9-34.7-28-50.5-22-20.3-47.7-29-77-26.3-.9.1-2.5.3-4.8.7-2.2.3-4 .5-5.2.7-14.4 2.2-26.7 5.2-36.7 8.9-4.4 1.9-8.9 3.1-13.4 3.5l-1.4.1c-.7-.8-.4-5.6.8-14.3 1.2-8.6 2.8-16.7 4.8-24.2 1.8-6.9 5.4-13.9 10.7-20.9 5.3-7.1 11-12.4 17-16 7-4 14-6.3 20.9-7 19.4-1.8 35.1 5 47.2 20.4 5.9 7.1 10.2 11.5 13.2 13.4 3.5 2.1 7.1 3 10.7 2.7 4.9-.5 9-2.7 12.5-6.7 3.4-3.9 4.9-8.5 4.4-13.7-.6-6.6-4.6-14.3-11.9-23.1-7.4-8.8-15.6-15.5-24.6-20.2-18.9-9.5-35.7-13.6-50.5-12.2-1 .1-2.2.3-3.9.6-1.6.3-3.1.5-4.3.6-22.3 3.3-41.3 13.6-57.1 30.9-11.1 12.3-19.1 28.6-24.1 48.9s-6.4 41.8-4.3 64.5c.8 9.1 2.5 19.2 5.1 30.2 6 25.1 16.4 46.1 31.4 63 15 17 33.1 28.1 54.4 33.5m418.4-75.6c-5.1 2.3-11.5 3.6-19.4 3.9-11 .4-22.4-1.2-34.4-4.7s-21.1-8.2-27.4-14c-18.3-17-29.2-45.6-32.8-85.8-1-10.9-1.5-17.5-1.6-19.9-.3-7.9.8-16.6 3.2-26.1 3.7-13.5 9.2-24.5 16.3-33.1 7.2-8.6 15.4-13.7 24.8-15.3.6 0 1.4-.1 2.5-.3 1.1-.1 1.9-.3 2.5-.3q28.2-1.05 68.7 44.4c8.2 10 15.8 18.3 22.7 24.7l8.5 7.9 2.4 29c2.5 27.2 3.9 42.6 4 46.3l.6 16.8-16 11.5q-16.05 11.1-24.6 15m73.8 136.5c3.8 3.5 7.8 5.2 12.1 5 5.4-.2 10-3.7 13.7-10.5 1.7-3.4 2.5-6.7 2.4-9.7 0-.6-.8-4.8-2.3-12.7-7.1-37.8-14.3-93.3-21.5-166.6-3.2-30.9-5.3-60.5-6.4-88.7-.8-24.9-.6-44.7.7-59.3.9-15.3 1.3-25 1.2-29.3-.3-7.3-1.8-12.4-4.7-15.3q-4.2-4.95-13.8-4.5c-4 .1-7.6 1.1-10.9 3.1-7.1 4.2-11 18.6-11.6 43.3-.7 14.9-1.2 23.1-1.4 24.7l-.5.4c-2.1.1-9-5.3-20.6-16.1-10.4-10.3-19.7-17.8-27.7-22.5-8.1-4.7-18.3-8.5-30.5-11.5-6.5-1.5-12.9-2.2-19.3-2-14.9.5-29 5.6-42.3 15-13.4 9.4-23.7 22.1-31 37.8q-9.75 21.3-12 34.2c-1.6 8.6-2 22-1.3 40.2 1.6 36.4 8.3 65.5 20 87.3 9.1 17 20 30.2 32.7 39.4 12.6 9.3 28.7 16 48.3 20.2 12 2.6 23.1 3.7 33.5 3.3q25.5-.9 52.2-19.2c6.5-4.8 11.1-7.2 13.9-7.3h.4c1 .9 3.7 17 8.1 48.5 4.1 28.1 7.3 46.5 9.6 55.1 2.2 8.6 5.3 14.4 9 17.7m202.6-135.7c-8 4.6-17.7 7.1-29.2 7.7h-6c-8.5-.1-15.4-1.3-20.7-3.8-5.3-2.4-11.4-7.2-18.4-14.2q-16.8-16.95-22.2-42c-1.5-6.7-2.2-10.8-2.2-12.3q0-2.7 1.8-4.5c6.7-5.8 22.9-9.4 48.4-10.8 4.5-.3 9.7-.4 15.5-.4 7.3 0 14.7 2 22.3 6 7.3 3.7 14 9.3 20.2 16.9 6.2 7.7 9.9 14.7 11.1 21.1.3.9.5 2.2.4 4.1 0 13-7 23.8-21 32.2m-61.8 44.5c6.1 2.1 14.8 3.2 26 3.3 15.8 0 29.7-2 41.5-6.2q14.25-4.95 27.9-17.7c9.1-8.5 15.9-17.4 20.2-26.8 4.3-10 6.4-19.6 6.4-28.7.1-18-7.6-35.6-23-53-20-22.2-44.7-33.4-74.2-33.6q-1.35 0-4.8.3c-2.2.1-4 .2-5.2.2-14.6.8-27.1 2.6-37.4 5.3-4.6 1.5-9.1 2.2-13.7 2.2h-1.3q-1.05-1.35 2.1-14.1c2-8.5 4.4-16.4 7.1-23.7q3.75-10.05 12.6-19.8c6-6.5 12.2-11.3 18.6-14.3 7.3-3.3 14.4-4.9 21.4-4.9 19.4.1 34.4 8.3 45 24.8 5.2 7.6 9.1 12.5 11.8 14.6 3.3 2.5 6.8 3.7 10.5 3.7 4.9 0 9.2-1.8 13-5.4s5.7-8 5.8-13.2c0-6.7-3.3-14.7-9.8-24.2-6.4-9.4-13.9-16.9-22.4-22.4q-26.85-16.95-49.2-17.1c-.9 0-2.2.1-3.9.2-1.7.2-3.1.2-4.3.2-22.5 1.2-42.4 9.6-59.8 25.4-12.2 11.1-21.8 26.6-28.7 46.3-6.9 19.8-10.4 41-10.5 63.8 0 9.1.7 19.3 2.2 30.6q5.25 38.25 25.2 65.7c13.3 18.3 30.3 31.1 50.9 38.5m397.1 111.7c4.5 1.2 9.6 2 15.4 2.4 13.7.9 25.6-.4 35.9-4 6.6-2.2 14-6.9 22.2-14 8.3-7 13.8-13.5 16.7-19.4 2.4-5 3.9-10.6 4.3-16.6q1.05-15.45-6.3-21c-1.8-1.3-5.2-2.2-10.4-2.5-4.2-.3-8.2 1.3-12 4.9-3.7 3.5-5.7 7.6-6 12.1-.3 3.9-3.1 8.5-8.5 13.6s-10.7 8.2-16 9.4c-3.4 1-7.4 1.3-11.9 1-15.2-1-31.1-9-47.7-23.8q-25.05-22.2-37.5-52.8c-12.3-29.8-18-60.9-17-93.5.1-1.2.2-3.2.2-5.9s.1-4.7.2-5.9c4.1-59.8 26.6-98.1 67.7-115.1 7.5-3.2 14-4.5 19.5-4.2 3.3.3 6 .6 8.1 1 8.8 1.6 15.6 3.9 20.6 6.9 4.9 3.1 10.2 8.3 15.8 15.7s9.4 13.5 11.6 18.2c2.1 4.7 3.9 11.8 5.4 21.4 3 17.6 9.6 26.7 19.6 27.4 4.5.3 9.2-1.7 14.1-5.9 4.5-4 6.9-7.6 7.1-11 .1-.9 0-3.5-.4-7.8-1.1-19.5-7.5-38.7-19.3-57.5-11.9-18.8-25.6-31.7-41.2-38.9-8-3.9-19.9-6.5-35.6-7.9-14.6-1-26.5.3-35.9 3.9-28.5 11.5-50.5 28.4-65.8 50.8-15.4 22.4-25.4 51.7-30 88q-.75 4.5-1.5 14.1c-2.5 36.9 2.2 72.3 14 106 11.9 33.7 28 59.6 48.4 77.8 7.8 6.9 17.1 13.6 28.1 20.2 11 6.5 20.4 10.8 28.1 12.9m292.8-107.6c-18.5-2.2-39.7-18.5-63.9-49-11.5-14.2-19.6-26.4-24.3-36.7-4.7-10.2-7.9-21.9-9.3-35.3-1.1-9-1-18.5.2-28.4q2.7-22.2 12.3-38.7c6.3-11 14-18.3 23-21.8 5.5-2.1 11.2-2.8 17.2-2 11.8 1.4 23.9 7.3 36.3 17.6 12.3 10.4 22.9 23.6 31.7 39.7 5.8 10.4 9.2 17.6 10.3 21.4 1 3.8 1.5 11 1.5 21.8.7 21.8 2 41.2 3.9 58.3l4 35.8-9 6.3c-6.4 4.4-12.4 7.5-18.1 9.3-5.7 1.7-11 2.3-15.8 1.7m-28.1 31.1c7.8 3.4 14.8 5.5 20.8 6.2q19.5 2.25 43.2-8.1l14.6-7 5.8 9.4q5.85 9 13.5 9.9c4.8.6 8.8-.4 12.1-2.9 3.2-2.5 5.1-6.2 5.6-11 .5-3.6.3-7.2-.5-10.6-4.1-17.4-7.5-41-10.3-71.1-3.5-39.3-3.5-73.9.1-103.7q1.8-15 5.1-30.6 3.45-17.1 4.5-26.1c1.4-11.2-.4-18.4-5.2-21.8-3.4-2.2-6.7-3.5-10.1-3.9-5.4-.7-10.3 1.2-14.7 5.8-4.3 4.5-7.7 11.1-9.9 19.7-2 9.2-4.4 13.7-7.1 13.3-1.8-.2-4-2.4-6.6-6.7-2.8-4.6-10.2-11.5-22.3-20.6s-21.5-14.8-28.2-17.2c-5.9-2.2-12.1-3.7-18.7-4.5-13.9-1.7-26-.9-36.2 2.5-12.4 4.3-24.4 13.1-36 26.2-11.5 13.1-19.4 27.3-23.7 42.4-1.5 5.3-2.7 11.7-3.6 19.3q-3.3 26.7-.3 47.7 7.2 55.05 51 98.4 20.1 19.95 21 20.4c9.5 9.8 21.6 17.9 36.1 24.6m233.1 23.5c6.7 3.6 15.4 6.3 25.8 8.1 12.3 2.2 22.6 2.6 30.8 1.2 10.5-1.5 20.7-5.9 30.8-13.1 10-7.3 15.6-14.3 16.8-21.2.7-4.2-.4-8.3-3.4-12.2-3.1-3.9-6.8-6.3-11.3-7q-8.1-1.5-18 7.5-9.15 7.65-16.8 9.3c-5.2 1.2-12.2.9-21.2-.6-16.5-2.9-30.7-14-42.8-33.3-6.8-10.8-10.8-21-12-30.8-1.3-9.8-.3-23.9 2.9-42.5l1.1-6.3c2.8-15.9 6-27.7 9.9-35.5 3.8-7.9 10.3-15.9 19.4-24.2 12.3-12.1 24.9-17 37.7-14.7 2.7.4 4.8.9 6.2 1.5 7.6 2.5 13.7 6 18.2 10.3 4.4 4.3 9.4 11.6 14.7 21.8 5.5 10.8 9.7 17.5 12.7 20.2 2.7 2 5.4 3.3 8.1 3.7q7.65 1.35 14.4-3c4.5-3 7.3-7.1 8.2-12.5q1.2-7.2-8.1-26.4c-6.3-12.8-12.9-22.6-19.7-29.3-13.4-13.7-29.8-22.3-49.2-25.7-10.5-1.8-20.8-1.4-30.8 1.2q-30.6 8.55-56.1 43.8c-13.9 19.5-22.7 40.3-26.6 62.4-1.8 10.5-2.9 22.1-3.3 35-.7 22 4.7 43.7 16.3 64.9q17.4 31.95 45.3 47.4m290.8 35.3c-18.1-4.2-37.5-22.8-58.2-55.7-9.8-15.4-16.5-28.4-20.1-39.1s-5.4-22.7-5.4-36.1c0-9.1 1.1-18.5 3.4-28.3 3.4-14.5 8.8-26.8 16.4-37.1 7.5-10.2 15.9-16.6 25.3-19.1 5.6-1.5 11.4-1.6 17.3-.2 11.6 2.7 22.9 9.9 34.1 21.5 11.1 11.7 20.2 26 27.2 42.9 4.6 11.1 7.2 18.5 7.9 22.4.6 3.9.3 11.2-.9 21.8q-2.55 32.7-2.4 58.5v36l-9.7 5.3c-6.8 3.7-13.1 6.1-19 7.2q-8.85 1.65-15.9 0m-31.3 27.8c7.4 4.3 14.1 7.1 20 8.5 12.7 2.9 27.4 1.8 43.9-3.4l15.3-5.3 4.6 10c3.2 6.3 7.3 10.1 12.4 11.3 4.7 1.1 8.8.6 12.3-1.6 3.5-2.1 5.7-5.6 6.9-10.3.8-3.6 1-7.1.6-10.6-2.2-17.7-3-41.6-2.5-71.8.8-39.4 4.6-73.8 11.4-103.1 2.3-9.7 5.1-19.7 8.4-29.9 3.5-11 6-19.5 7.4-25.4 2.5-10.9 1.6-18.4-2.8-22.2-3.1-2.6-6.3-4.3-9.6-5-5.3-1.3-10.4.1-15.2 4.1-4.9 4.1-8.9 10.2-12.1 18.5-3 9-5.9 13.2-8.5 12.5-1.8-.4-3.7-2.9-5.8-7.4-2.3-4.9-8.9-12.5-19.9-22.9s-19.7-17.1-26.2-20.2c-5.6-2.8-11.6-5-18.1-6.5-13.6-3.2-25.7-3.7-36.2-1.5-12.9 3-25.7 10.3-38.6 22.1-12.9 11.9-22.3 25-28.2 39.6-2.1 5.1-4.1 11.3-5.8 18.8-4.1 17.4-5.9 33.2-5.5 47.4.8 36.9 14.1 71.4 40 103.4 11.9 14.6 18.1 22.1 18.6 22.6 8.4 10.7 19.5 20.1 33.2 28.3m269.5 42.2c-11.4-1.1-20.5-2.7-27.1-4.9-14.5-4.6-23.8-21.5-27.8-50.8-2.5-17.4.4-39 8.7-65 4.7-14.8 11-27.8 18.7-39 7.2-10.4 15.6-19.2 25.4-26.5 9.8-7.2 19-11.3 27.7-12.4 7.1-1.2 15-.4 23.6 2.3 16 5.1 27.8 14.1 35.4 27.1 6.2 9.6 9.7 23.8 10.6 42.7.8 18.9-1.2 39.5-6.1 61.8-.8 4.5-2.4 10.5-4.8 18.1-5.1 15.8-14.8 27.8-29.2 36q-13.65 8.1-25.5 10.2c-8 1.5-17.8 1.6-29.6.4m-38.5 30.8c.6.1 1.7.6 3.4 1.3s3 1.2 3.8 1.5c24.4 7.7 46.1 9.4 65.4 5 8.9-1.9 20.5-6.8 34.8-14.5 14.2-7.7 23.8-14.3 28.8-19.7 10.3-11.4 18.7-27.4 25.3-47.9q11.4-35.7 11.4-75.6c.1-26.6-4.1-48.3-12.5-65-5.8-11.7-14.4-22.2-25.9-31.2-11.5-9.1-23.9-15.8-37.2-20-12.7-4.1-24.2-5.5-34.5-4.3-31.1 3.4-59.9 23.4-86.6 59.9-6.7 9-12.2 20.5-16.7 34.4l-3.4 10.8c-6.8 21.2-10.5 36.4-11.3 45.7-1.3 11.1-.5 24.5 2.3 40.2q4.2 23.7 10.8 37.2c10.3 20.8 24.3 34.9 42.1 42.2m-2620.4 23.8 34.2-65.2z" style="fill:#100f0d;fill-opacity:1;fill-rule:nonzero;stroke:none" transform="matrix(.01814 0 0 -.01814 -351.611 425.463)"/><path d="m23832.9 16508.4 27.4-68.7c2.6-6.7-.6-14.2-7.3-16.9-5.8-2.3-12.3-.1-15.6 4.9l-40.9 61.6c-6.4 9.5-3.8 22.4 5.7 28.7s22.4 3.7 28.7-5.8c.8-1.2 1.5-2.5 2-3.8" style="fill:#231f20;fill-opacity:1;fill-rule:nonzero;stroke:none" transform="matrix(.01814 0 0 -.01814 -351.611 425.463)"/><path d="m24374.7 21233.8-46.8-1916c3.1-239.6-493.6-537.6-867.5-740.8-19.2-10.4-34.9-19-46.3-25.4-341.4-191.2-491.5-293.9-473-725.2l30-700.1c39.5-918.6 85.4-1987.6 114.7-2672 16.2-375.3 27.5-639.6 30.4-707.1l.7-16.9c10.7-302.6 809.3-769.1 1773.1-772.9h11.8c424.3 0 852.2 91.7 1206 258.7 308.6 145.6 514.5 328.9 537.7 478.7l191.5 4041.5c19.4 413.6-93.4 530.5-552 776.2-35.9 20.1-874 490.8-872.7 762.3l-27.3 1948.3zm527.3-8317.6h-12.1c-447.7 1.8-897.3 101.2-1266.1 279.9-332.1 160.9-542.1 365-548 532.6l-.7 16.8c-2.9 67.4-14.2 331.7-30.4 707-29.3 684.5-75.2 1753.5-114.7 2672l-30 700.1c-19.5 454.7 146.6 568.4 494 762.9 11.5 6.5 27.4 15.1 46.8 25.6 563.4 306.3 848 543.5 845.9 704.9l47.9 1957.4 1091-11.6 27.8-1988.8c-1-205.8 614.3-594.1 851.4-726.4 469.3-251.4 593.6-381.1 573.2-814.2l-191.6-4044.7c-46.9-312.8-815.9-773.5-1784.4-773.5" style="fill:#231f20;fill-opacity:1;fill-rule:nonzero;stroke:none" transform="matrix(.01814 0 0 -.01814 -351.611 425.463)"/><path d="m24678.4 14826.7 31.7-.5c5 0 9 3.8 9.1 8.6l.6 40.8c0 4.8-3.9 8.7-8.8 8.8l-31.8.4c-4.9.1-8.9-3.7-9-8.5l-.6-40.8c0-4.8 3.9-8.8 8.8-8.8m16-216.9 26.9 24.6c4.2 3.9 4.3 10.2.2 14.1l-20.3 19.6c-4 4-10.7 4.1-14.9.2l-27-24.6c-4.1-3.8-4.2-10.1-.2-14.1l20.3-19.6c4.1-4 10.8-4.1 15-.2m-191.1 81.5 10.9 15.4c5 7.1 2.7 18.7-5.2 25.8s-18.4 7.2-23.4.1l-10.9-15.5c-5.1-7-2.7-18.6 5.2-25.7 7.9-7.2 18.4-7.2 23.4-.1m-500 29.2 10.9 15.4c5 7.1 2.7 18.6-5.2 25.8-7.9 7.1-18.4 7.1-23.4 0l-11-15.4c-5-7.1-2.6-18.6 5.3-25.8 7.9-7.1 18.4-7.1 23.4 0m-21.3 131.7-11.5 20.8c-5.3 9.6-17.6 14-27.5 10-9.8-4.1-13.5-15.1-8.2-24.7l11.5-20.8c5.3-9.6 17.6-14 27.4-10 9.9 4.1 13.6 15.1 8.3 24.7m626.8-84.5-10.5 8.9c-4.8 4-16.1.7-25.2-7.4s-12.6-17.9-7.8-22l10.5-8.8c4.8-4.1 16.1-.8 25.2 7.3s12.6 18 7.8 22m-469.9 177.6-15.6-2.8c-7.3-1.3-12.7-13.9-12.2-28 .5-14.2 6.8-24.6 14-23.3l15.6 2.8c7.2 1.3 12.7 13.9 12.2 28-.6 14.2-6.8 24.6-14 23.3m300.3-335.9 20.7 22.7c3.3 3.5 3.4 9.3.2 12.9l-22 25.5c-3.1 3.6-8.2 3.7-11.5.2l-20.7-22.7c-3.2-3.5-3.3-9.3-.2-13l22-25.5c3.1-3.6 8.3-3.7 11.5-.1m-117.4 25.3 23.4 29.6c3.6 4.6 3.7 12.2.2 16.9l-13.2 17.8c-3.5 4.7-9.3 4.8-12.9.2l-23.4-29.6c-3.6-4.6-3.7-12.2-.2-16.9l13.2-17.8c3.5-4.7 9.3-4.8 12.9-.2m-60.9-50.2 14.6 34.5c2.3 5.4.3 11.8-4.5 14.3l-35.3 18.9c-4.8 2.5-10.5.2-12.7-5.1l-14.6-34.5c-2.3-5.4-.3-11.8 4.5-14.3l35.3-18.9c4.7-2.5 10.4-.2 12.7 5.1m-59.3 223.1 12.8 30.4c2 4.8.3 10.4-3.9 12.6l-31.2 16.7c-4.2 2.2-9.2.2-11.2-4.5l-12.9-30.4c-2-4.7-.2-10.4 4-12.6l31.2-16.7c4.1-2.2 9.2-.2 11.2 4.5m-111.8-131.2 27 29.6c4.2 4.6 4.3 12.2.3 16.9l-13 15c-4.1 4.7-10.8 4.8-15 .2l-27-29.6c-4.2-4.6-4.3-12.1-.2-16.8l13-15c4-4.8 10.7-4.8 14.9-.3m92.6-110.6 8.6 9.4c1.3 1.5 1.4 3.9.1 5.4l-4.2 4.8c-1.3 1.5-3.4 1.5-4.7 0l-8.7-9.4c-1.3-1.5-1.3-3.9 0-5.4l4.1-4.8c1.3-1.5 3.4-1.5 4.8 0m-351 130.2 8.6 9.4c1.4 1.5 1.4 3.9.1 5.4l-4.1 4.8c-1.3 1.5-3.5 1.6-4.8.1l-8.6-9.5c-1.4-1.4-1.4-3.8-.1-5.3l4.1-4.8c1.3-1.5 3.5-1.6 4.8-.1m653.1-182.5 8.6 9.5c1.4 1.4 1.4 3.8.1 5.3l-4.1 4.8c-1.3 1.5-3.5 1.6-4.8.1l-8.6-9.4c-1.4-1.5-1.4-3.9-.1-5.4l4.1-4.8c1.3-1.5 3.5-1.5 4.8-.1m-73-61.6 8.6 9.5c1.4 1.5 1.4 3.9.1 5.4l-4.1 4.8c-1.3 1.5-3.5 1.5-4.8 0l-8.6-9.4c-1.4-1.5-1.4-3.9-.1-5.4l4.1-4.8c1.3-1.5 3.5-1.5 4.8-.1m-535.2 504.7 8.6 9.4c1.3 1.5 1.4 3.9.1 5.4l-4.2 4.8c-1.3 1.5-3.4 1.5-4.8.1l-8.6-9.5c-1.3-1.4-1.4-3.8-.1-5.3l4.2-4.8c1.3-1.5 3.4-1.6 4.8-.1m472.9-445.5 8.6 9.5c1.4 1.4 1.4 3.8.1 5.3l-4.1 4.9c-1.3 1.5-3.5 1.5-4.8 0l-8.6-9.4c-1.4-1.5-1.4-3.9-.1-5.4l4.1-4.8c1.3-1.5 3.5-1.5 4.8-.1m-368.7 117.6 28.8 20.3c4.5 3.2 5.8 9.8 3 14.8l-13.5 24.5c-2.8 5-8.7 6.5-13.2 3.3l-28.8-20.3c-4.4-3.2-5.8-9.8-3-14.8l13.6-24.4c2.8-5.1 8.7-6.6 13.1-3.4m-76.1 18.4 16.6-2.5c2.6-.4 5 1.6 5.3 4.5l1.8 14.2c.3 2.9-1.5 5.6-4.1 6l-16.6 2.5c-2.6.4-5-1.7-5.3-4.6l-1.8-14.1c-.3-2.9 1.5-5.6 4.1-6m201.4 150.6 16.6-2.5c2.6-.4 5 1.6 5.3 4.5l1.8 14.2c.3 2.9-1.5 5.6-4.1 6l-16.6 2.5c-2.6.4-5-1.7-5.3-4.6l-1.8-14.1c-.3-2.9 1.5-5.6 4.1-6m204.2 92.5 16.6-2.5c2.6-.4 5 1.7 5.3 4.6l1.8 14.1c.3 2.9-1.5 5.6-4.1 6l-16.6 2.5c-2.6.4-5-1.6-5.3-4.5l-1.8-14.2c-.3-2.9 1.5-5.6 4.1-6m202.6-133.4 16.6-2.5c2.6-.4 5 1.7 5.3 4.6l1.8 14.1c.3 2.9-1.5 5.6-4.1 6l-16.6 2.5c-2.6.4-4.9-1.6-5.3-4.6l-1.7-14.1c-.4-2.9 1.4-5.6 4-6m-230.5 3.5 16.6-2.5c2.6-.4 4.9 1.6 5.3 4.6l1.7 14.1c.4 2.9-1.4 5.6-4 6l-16.6 2.5c-2.6.4-5-1.7-5.3-4.6l-1.8-14.1c-.3-2.9 1.5-5.6 4.1-6m359.8-27.1 16.7-2.6c2.6-.3 4.9 1.7 5.3 4.6l1.7 14.1c.4 3-1.4 5.6-4 6l-16.6 2.5c-2.6.4-5-1.6-5.4-4.5l-1.7-14.2c-.3-2.9 1.5-5.6 4-5.9m131.8-181.2 16.7-2.5c2.5-.4 4.9 1.6 5.3 4.6l1.7 14.1c.4 2.9-1.4 5.6-4 6l-16.7 2.5c-2.5.4-4.9-1.7-5.3-4.6l-1.7-14.1c-.4-2.9 1.5-5.6 4-6m-619.7 163.5 16.6-2.5c2.6-.4 5 1.6 5.3 4.6l1.8 14.1c.3 2.9-1.5 5.6-4.1 6l-16.6 2.5c-2.6.4-5-1.7-5.3-4.6l-1.7-14.1c-.4-2.9 1.4-5.6 4-6m915.7-132.9 16.7-2.5c2.5-.4 4.9 1.7 5.3 4.6l1.7 14.1c.4 2.9-1.4 5.6-4 6l-16.6 2.5c-2.6.4-5-1.6-5.4-4.5l-1.7-14.2c-.3-2.9 1.5-5.6 4-6m-1012.7 36.2 3.2 16.3c.5 2.5-1 5-3.2 5.5l-10.9 2.7c-2.2.5-4.4-1.1-4.9-3.6l-3.2-16.2c-.5-2.5.9-5 3.2-5.6l10.8-2.6c2.3-.6 4.5 1 5 3.5m-328.2 297.2 3.1 16.3c.5 2.5-.9 5-3.1 5.5l-10.9 2.7c-2.2.5-4.5-1.1-5-3.6l-3.1-16.2c-.5-2.5.9-5 3.1-5.6l10.9-2.6c2.3-.6 4.5 1 5 3.5m601.5-349.8 22.5 16c3.5 2.4 4.6 7.6 2.4 11.6l-10.6 19.1c-2.2 3.9-6.8 5.1-10.3 2.7l-22.6-16c-3.5-2.5-4.5-7.7-2.3-11.6l10.6-19.1c2.2-4 6.8-5.1 10.3-2.7m-88.8 240.8 22.5 15.9c3.5 2.5 4.6 7.7 2.4 11.6l-10.6 19.2c-2.2 3.9-6.8 5.1-10.3 2.6l-22.6-15.9c-3.5-2.5-4.5-7.7-2.3-11.7l10.6-19.1c2.2-3.9 6.8-5.1 10.3-2.6m873.5-128 22.5 15.9c3.6 2.5 4.6 7.7 2.4 11.6l-10.6 19.2c-2.2 3.9-6.8 5.1-10.3 2.6l-22.5-15.9c-3.5-2.5-4.6-7.7-2.4-11.7l10.6-19.1c2.2-3.9 6.8-5.1 10.3-2.6m-1159.2 232 22.6 16c3.5 2.4 4.5 7.6 2.4 11.6l-10.7 19.1c-2.2 3.9-6.8 5.1-10.3 2.6l-22.5-15.9c-3.5-2.5-4.6-7.7-2.4-11.6l10.6-19.1c2.2-4 6.8-5.2 10.3-2.7m470.1-168.1 15.4 10.9c2.4 1.6 3.1 5.2 1.6 7.9l-7.3 13c-1.4 2.7-4.6 3.5-7 1.8l-15.4-10.8c-2.3-1.7-3.1-5.3-1.6-8l7.3-13c1.5-2.7 4.6-3.5 7-1.8m113.2-161.6-3.5 18.9c-.5 2.9-3.1 4.8-5.6 4.1l-12.7-3c-2.6-.6-4.3-3.5-3.7-6.4l3.5-18.8c.5-2.9 3-4.8 5.6-4.2l12.7 3c2.6.6 4.2 3.5 3.7 6.4m-797.5 246-3.5 18.9c-.6 2.9-3.1 4.7-5.7 4.1l-12.6-3c-2.6-.6-4.3-3.5-3.8-6.4l3.5-18.8c.6-2.9 3.1-4.8 5.7-4.2l12.6 3c2.6.6 4.3 3.5 3.8 6.4m533.2 158.4-3.5 18.8c-.6 2.9-3.1 4.8-5.7 4.2l-12.7-3c-2.5-.6-4.2-3.5-3.7-6.4l3.5-18.9c.5-2.9 3.1-4.8 5.7-4.1l12.6 3c2.6.6 4.3 3.5 3.8 6.4m512.4-67.3-3.5 18.8c-.5 2.9-3.1 4.8-5.7 4.2l-12.6-3c-2.6-.6-4.3-3.5-3.7-6.4l3.4-18.9c.6-2.9 3.1-4.8 5.7-4.1l12.7 3c2.6.6 4.2 3.5 3.7 6.4m-550.7 9.6-3.5 18.8c-.5 2.9-3.1 4.8-5.7 4.2l-12.6-3c-2.6-.6-4.3-3.5-3.7-6.4l3.5-18.9c.5-2.9 3-4.8 5.6-4.1l12.7 3c2.6.6 4.2 3.5 3.7 6.4m-431.5 1.5-3.5 18.8c-.5 3-3.1 4.8-5.7 4.2l-12.6-3c-2.6-.6-4.3-3.5-3.7-6.4l3.4-18.8c.6-3 3.1-4.8 5.7-4.2l12.7 3c2.6.6 4.2 3.5 3.7 6.4m1188.2-351.8-3.5 18.9c-.5 2.9-3.1 4.7-5.7 4.1l-12.6-3c-2.6-.6-4.3-3.5-3.8-6.4l3.5-18.8c.6-2.9 3.1-4.8 5.7-4.2l12.6 3c2.6.6 4.3 3.5 3.8 6.4m-851.3 417.7-3.5 18.8c-.5 2.9-3.1 4.8-5.7 4.1l-12.6-3c-2.6-.6-4.3-3.4-3.7-6.4l3.4-18.8c.6-2.9 3.1-4.8 5.7-4.2l12.7 3c2.6.7 4.2 3.5 3.7 6.5m-314-231.6-3.5 18.9c-.5 2.9-3.1 4.8-5.7 4.1l-12.6-3c-2.6-.6-4.3-3.4-3.7-6.4l3.4-18.8c.6-2.9 3.1-4.8 5.7-4.2l12.7 3c2.6.7 4.2 3.5 3.7 6.4m1489.1 31.5-3.5 18.8c-.5 2.9-3 4.8-5.6 4.2l-12.7-3c-2.6-.6-4.3-3.5-3.7-6.4l3.5-18.9c.5-2.9 3.1-4.7 5.7-4.1l12.6 3c2.6.6 4.3 3.5 3.7 6.4m-715.6-124.9 4.1 29.2c.8 5.5-2.5 10.7-7.5 11.6l-31.6 5.5c-5 .9-9.6-2.9-10.4-8.4l-4.1-29.2c-.8-5.6 2.6-10.8 7.5-11.6l31.7-5.6c4.9-.9 9.5 2.9 10.3 8.5m166.2-9.2 32 22.6c4.9 3.5 6.4 10.8 3.3 16.4l-15 27.1c-3.1 5.6-9.7 7.2-14.6 3.7l-31.9-22.5c-5-3.5-6.5-10.9-3.4-16.5l15.1-27c3.1-5.6 9.6-7.3 14.5-3.8m-631.2-46.8 35.8 13.8c4 1.5 6.2 6.5 4.8 11l-8.8 29.4c-1.4 4.5-5.8 7-9.8 5.4l-35.9-13.8c-4-1.6-6.2-6.5-4.8-11.1l8.8-29.3c1.4-4.6 5.8-7 9.9-5.4m660.4-10.5 18.4 23.7c2.8 3.7 1 8.4-4.1 10.5l-8.3 3.5c-5.1 2.1-11.6.8-14.4-2.9l-18.4-23.8c-2.8-3.7-1-8.4 4.1-10.5l8.3-3.4c5.1-2.1 11.6-.8 14.4 2.9m-892.1 139.2 18.3 23.2c2.9 3.6 1 8.2-4.1 10.2l-8.3 3.4c-5.1 2.1-11.5.8-14.4-2.8l-18.3-23.2c-2.9-3.6-1-8.2 4.1-10.3l8.3-3.3c5.1-2.1 11.5-.8 14.4 2.8m468.1 86 18.3 23.2c2.8 3.6 1 8.2-4.1 10.2l-8.3 3.4c-5.1 2-11.6.8-14.4-2.8l-18.3-23.2c-2.9-3.6-1.1-8.2 4-10.3l8.3-3.3c5.2-2.1 11.6-.9 14.5 2.8m-145.2-135.1 18.3 23.2c2.9 3.6 1.1 8.2-4 10.2l-8.3 3.4c-5.2 2.1-11.6.8-14.4-2.8l-18.4-23.2c-2.8-3.6-1-8.2 4.1-10.3l8.3-3.3c5.1-2.1 11.6-.8 14.4 2.8m419.7-124.1.2 17.1c0 2.6-2.2 3.8-5 2.6l-4.5-1.9c-2.8-1.2-5-4.3-5.1-6.9l-.1-17.1c0-2.6 2.2-3.8 5-2.6l4.5 1.9c2.8 1.2 5 4.3 5 6.9m254.3 406.5.2 17c0 2.6-2.2 3.8-5 2.7l-4.5-2c-2.8-1.1-5-4.2-5.1-6.9l-.1-17c0-2.6 2.2-3.8 5-2.7l4.5 2c2.8 1.1 5 4.2 5 6.9m-463-43.1-18.3-30.9c-2.8-4.8-2.1-11.9 1.6-15.8l14-15c3.7-4 9-3.3 11.8 1.5l18.3 30.9c2.8 4.8 2.1 11.9-1.6 15.8l-14 15c-3.7 4-9 3.3-11.8-1.5m453.1-332-35.8-1.4c-5.6-.2-11.2-4.6-12.5-9.9l-5-19.8c-1.4-5.3 2.1-9.4 7.6-9.2l35.9 1.4c5.6.2 11.2 4.6 12.5 9.9l5 19.8c1.3 5.3-2.1 9.4-7.7 9.2m-535.3 384.2-9.7-34.3c-1.6-5.4 1-11.1 5.6-12.9l34.4-13.1c4.6-1.7 9.6 1.2 11.1 6.5l9.7 34.3c1.5 5.3-1 11.1-5.6 12.8l-34.4 13.1c-4.6 1.8-9.6-1.1-11.1-6.4m-318.8-116.3-7.8-27.5c-1.2-4.3.9-8.9 4.6-10.3l27.5-10.5c3.7-1.4 7.7.9 8.9 5.2l7.8 27.5c1.2 4.3-.8 8.9-4.5 10.3l-27.5 10.5c-3.8 1.4-7.7-.9-9-5.2m536.4 63.8-21.7-31.4c-3.3-4.8-2.6-11.9 1.6-15.8l13.5-12.4c4.2-3.9 10.4-3.1 13.7 1.7l21.6 31.4c3.4 4.8 2.7 11.9-1.5 15.8l-13.5 12.4c-4.2 3.9-10.4 3.1-13.7-1.7m-529.3 52.7-21.6-31.3c-3.4-4.9-2.7-12 1.6-15.9l13.5-12.4c4.2-3.9 10.3-3.1 13.7 1.8l21.6 31.3c3.4 4.9 2.7 12-1.6 15.9l-13.4 12.4c-4.3 3.9-10.4 3.1-13.8-1.8m1221-219.5-6.9-10c-1-1.6-.8-3.8.5-5.1l4.3-3.9c1.4-1.3 3.3-1 4.4.5l6.9 10c1.1 1.6.9 3.9-.5 5.1l-4.3 4c-1.3 1.2-3.3 1-4.4-.6m-571.6 216.7-19.2-18.1c-2.9-2.8-3.4-7.9-.9-11.3l11.8-16.8c2.5-3.4 6.9-3.9 9.9-1.1l19.1 18.1c3 2.8 3.4 7.9 1 11.3l-11.9 16.7c-2.5 3.5-6.9 4-9.8 1.2m499.7-362.2-15.5.2c-2.4 0-4.3-2.2-4.3-5l-.1-13.5c-.1-2.8 1.9-5.1 4.3-5.1l15.5-.2c2.4 0 4.4 2.2 4.4 5l.1 13.5c0 2.8-1.9 5.1-4.4 5.1m-850.2 135-1.2-15.7c-.2-2.4 1.4-4.6 3.5-4.8l10.2-1c2.1-.3 4 1.5 4.2 4l1.2 15.6c.2 2.5-1.4 4.6-3.5 4.8l-10.3 1.1c-2.1.2-3.9-1.6-4.1-4m-385 260.4-1.2-15.6c-.1-2.5 1.4-4.6 3.5-4.8l10.3-1.1c2.1-.2 3.9 1.6 4.1 4l1.2 15.7c.2 2.4-1.4 4.5-3.5 4.8l-10.2 1c-2.1.3-4-1.5-4.2-4m590.8-475.3-1.2-15.7c-.2-2.4 1.4-4.6 3.5-4.8l10.2-1.1c2.1-.2 4 1.6 4.2 4.1l1.2 15.6c.2 2.4-1.4 4.6-3.5 4.8l-10.3 1.1c-2.1.2-3.9-1.6-4.1-4m-49.1 317.1-19-18c-2.9-2.8-3.3-7.8-.9-11.2l11.7-16.6c2.5-3.4 6.8-3.9 9.8-1.1l18.9 17.9c3 2.8 3.4 7.8 1 11.3l-11.8 16.5c-2.4 3.4-6.8 3.9-9.7 1.2m-300.7 157.1 5.2-17.3c.8-2.6 3.3-4.1 5.6-3.1l11.3 4.5c2.3.9 3.5 3.8 2.7 6.5l-5.2 17.2c-.8 2.7-3.3 4.1-5.6 3.2l-11.3-4.5c-2.3-.9-3.5-3.9-2.7-6.5m212.4-458.6 5.2-17.3c.8-2.6 3.3-4.1 5.6-3.1l11.3 4.4c2.3 1 3.5 3.9 2.7 6.6l-5.1 17.2c-.9 2.7-3.4 4.1-5.7 3.2l-11.3-4.5c-2.3-.9-3.5-3.9-2.7-6.5m801.3 141.7 5.2-17.2c.8-2.7 3.3-4.1 5.6-3.2l11.3 4.5c2.3.9 3.5 3.9 2.7 6.5l-5.1 17.2c-.9 2.7-3.4 4.1-5.7 3.2l-11.3-4.5c-2.3-.9-3.5-3.8-2.7-6.5m-1378 117 5.2-17.2c.8-2.7 3.3-4.1 5.6-3.2l11.3 4.5c2.3.9 3.5 3.9 2.7 6.5l-5.2 17.3c-.8 2.6-3.3 4.1-5.6 3.1l-11.3-4.5c-2.3-.9-3.5-3.8-2.7-6.5m544.2-102.4 5.2-17.3c.8-2.6 3.3-4.1 5.6-3.1l11.3 4.5c2.3.9 3.5 3.8 2.7 6.5l-5.1 17.2c-.9 2.7-3.4 4.1-5.7 3.2l-11.3-4.5c-2.3-.9-3.5-3.9-2.7-6.5m151.6 290.7-33.7-18.9c-3.8-2.1-5.3-7.4-3.5-11.8l12-28.3c1.9-4.4 6.5-6.3 10.3-4.1l33.6 18.9c3.8 2.2 5.4 7.5 3.5 11.9l-12 28.3c-1.8 4.4-6.4 6.2-10.2 4m-661.3-96.6-33.2-18.7c-3.7-2.1-5.3-7.3-3.4-11.7l11.8-27.9c1.8-4.3 6.4-6.1 10.1-4l33.2 18.7c3.7 2.1 5.3 7.3 3.4 11.7l-11.8 27.9c-1.8 4.3-6.4 6.1-10.1 4m147.7 146.6 1.7-16c.2-2.5 2.4-3.3 4.8-1.8l3.9 2.4c2.5 1.4 4.2 4.6 3.9 7.1l-1.6 16c-.3 2.5-2.5 3.3-4.9 1.9l-3.9-2.4c-2.4-1.5-4.2-4.7-3.9-7.2m1324.2-329.2 1.6-16c.3-2.5 2.5-3.3 4.9-1.9l3.9 2.4c2.4 1.5 4.2 4.7 3.9 7.2l-1.7 16c-.2 2.5-2.4 3.3-4.8 1.8l-3.9-2.3c-2.4-1.5-4.2-4.7-3.9-7.2m-339.9 42.2.8 23.7c.4 11 9.3 20.5 19.9 21.4 10.7.9 19-7.3 18.6-18.2l-.8-23.8c-.4-10.9-9.3-20.5-19.9-21.3-10.6-.9-18.9 7.2-18.6 18.2m-182 11.5 15.2 4.6c7 2.2 17.5-6.5 23.5-19.4 6-12.8 5.2-24.9-1.8-27l-15.3-4.6c-7-2.1-17.5 6.5-23.5 19.4-6 12.8-5.1 24.9 1.9 27m-156.7-85-12 4.5c-1.9.7-3 2.8-2.5 4.8l1.5 6.1c.5 2 2.4 2.9 4.2 2.3l12-4.5c1.9-.7 3-2.9 2.5-4.8l-1.5-6.1c-.5-2-2.4-3-4.2-2.3m253.3-31.3-13.7-9.8c-2.1-1.6-5.2-.8-6.8 1.6l-8 11.8c-1.6 2.4-1.2 5.6.9 7.2l13.7 9.8c2.1 1.5 5.1.8 6.8-1.7l7.9-11.8c1.7-2.4 1.3-5.6-.8-7.1m281.9 276.8-10.2 13c-1.6 2-1.4 4.9.3 6.4l8.5 7.3c1.7 1.5 4.4 1.1 6-.9l10.2-13c1.6-2.1 1.5-4.9-.2-6.4l-8.5-7.3c-1.8-1.6-4.5-1.1-6.1.9m-36.3-119.8-24.9 3.6c-3.9.6-6.9 4.4-6.7 8.5l.7 19.9c.1 4.1 3.4 7 7.2 6.4l25-3.6c3.8-.5 6.9-4.3 6.7-8.4l-.7-20c-.1-4.1-3.4-7-7.3-6.4m70.1-12.8-5.5 18.3c-.8 2.9.6 5.7 3.2 6.3l12.6 3.1c2.6.6 5.4-1.2 6.3-4l5.4-18.4c.9-2.8-.5-5.7-3.1-6.3l-12.7-3.1c-2.6-.6-5.4 1.2-6.2 4.1m-160.3 39.9-5.5 18.3c-.8 2.9.6 5.7 3.2 6.3l12.6 3.1c2.6.6 5.4-1.2 6.2-4l5.5-18.4c.8-2.8-.6-5.6-3.2-6.3l-12.6-3c-2.6-.7-5.4 1.1-6.2 4m-157.7-61.6-5.4 18.4c-.9 2.8.5 5.6 3.1 6.3l12.7 3c2.6.7 5.4-1.1 6.2-4l5.5-18.3c.8-2.9-.6-5.7-3.2-6.3l-12.6-3.1c-2.6-.6-5.4 1.2-6.3 4m265.2-26.3-5.5 18.3c-.9 2.9.6 5.7 3.2 6.3l12.6 3.1c2.6.6 5.4-1.2 6.2-4l5.5-18.4c.8-2.8-.6-5.6-3.2-6.3l-12.6-3c-2.6-.7-5.4 1.1-6.2 4m-234.7-1.6 19.4-20.9c3-3.3 3.3-8.3.7-11.2l-19.8-21.9c-2.7-3-7.3-2.7-10.3.5l-19.4 21c-3.1 3.2-3.4 8.3-.7 11.2l19.8 21.9c2.6 2.9 7.2 2.7 10.3-.6m-234.3 37.9 37.1-8.7c5.8-1.3 10-7.1 9.5-12.8l-1.6-18.2c-.5-5.7-5.6-9.3-11.4-7.9l-37 8.6c-5.8 1.4-10.1 7.1-9.5 12.8l1.6 18.3c.5 5.7 5.6 9.2 11.3 7.9m237.8 128.9 8.2-13.4c1.3-2.1.8-4.7-.9-5.9l-8.7-5.6c-1.8-1.1-4.2-.4-5.5 1.7l-8.2 13.4c-1.3 2.1-.9 4.7.9 5.9l8.7 5.6c1.8 1.1 4.2.4 5.5-1.7m168.2-122.4 3.3-17.7c.5-2.8-1.1-5.2-3.6-5.4l-12.1-1.2c-2.5-.2-4.9 1.9-5.4 4.6l-3.2 17.7c-.5 2.7 1.1 5.2 3.6 5.4l12 1.1c2.5.3 4.9-1.8 5.4-4.5m-118.1-93.3 38.1-1.6c4.3-.2 8-4.1 8.4-8.8l2.1-30.2c.3-4.7-2.9-8.4-7.2-8.2l-38 1.5c-4.3.2-8.1 4.2-8.4 8.9l-2.2 30.2c-.3 4.7 2.9 8.4 7.2 8.2m-152.2-14 5.8-15c.9-2.4-.6-4.1-3.5-3.9l-4.5.4c-2.9.2-5.9 2.3-6.8 4.6l-5.8 15c-.9 2.3.7 4.1 3.5 3.9l4.6-.4c2.8-.2 5.8-2.3 6.7-4.6" style="fill:#ab6b1d;fill-opacity:1;fill-rule:nonzero;stroke:none" transform="matrix(.01814 0 0 -.01814 -351.611 425.463)"/><path d="m25491 15158.5 31.8-.5c4.9-.1 8.9 3.8 9 8.6l.6 40.8c.1 4.7-3.9 8.7-8.8 8.8l-31.7.4c-4.9.1-9-3.7-9.1-8.5l-.6-40.8c0-4.8 3.9-8.8 8.8-8.8m-32.8-181.2 26.9 24.7c4.2 3.8 4.3 10.1.3 14.1l-20.3 19.6c-4.1 3.9-10.8 4-15 .2l-26.9-24.6c-4.2-3.9-4.3-10.2-.2-14.1l20.3-19.7c4-3.9 10.7-4 14.9-.2m-153.1 56.5 10.9 15.4c5.1 7.1 2.7 18.6-5.2 25.8-7.9 7.1-18.4 7.1-23.4 0l-10.9-15.4c-5-7.1-2.7-18.6 5.2-25.8 7.9-7.1 18.4-7.1 23.4 0m23.2-34.7 10.9 15.4c5 7.1 2.7 18.6-5.2 25.7-7.9 7.2-18.4 7.2-23.5.1l-10.9-15.4c-5-7.1-2.7-18.6 5.3-25.8 7.9-7.1 18.3-7.1 23.4 0m-523.2 63.8 10.9 15.4c5 7.1 2.7 18.7-5.2 25.8-7.9 7.2-18.4 7.2-23.4.1l-10.9-15.4c-5.1-7.1-2.7-18.7 5.2-25.8s18.4-7.2 23.4-.1m-21.3 131.8-11.5 20.8c-5.3 9.5-17.6 14-27.5 9.9-9.8-4-13.5-15.1-8.2-24.6l11.5-20.8c5.3-9.6 17.6-14.1 27.4-10 9.9 4 13.6 15.1 8.3 24.7m637.6-32.9-12.2 10.2c-5.5 4.7-18.7.9-29.2-8.5-10.6-9.4-14.7-20.8-9.1-25.6l12.2-10.2c5.6-4.7 18.7-.9 29.3 8.5 10.5 9.4 14.6 20.8 9 25.6m-480.7 126-15.6-2.9c-7.2-1.3-12.7-13.8-12.2-27.9.5-14.2 6.8-24.6 14-23.3l15.6 2.8c7.2 1.3 12.7 13.8 12.2 28-.5 14.1-6.8 24.6-14 23.3m300.3-336 20.7 22.7c3.3 3.6 3.4 9.4.2 13l-22 25.5c-3.1 3.6-8.2 3.7-11.5.2l-20.7-22.8c-3.2-3.5-3.3-9.3-.2-12.9l22-25.5c3.1-3.6 8.3-3.7 11.5-.2m-117.3 25.4 23.3 29.6c3.6 4.6 3.7 12.1.2 16.9l-13.2 17.8c-3.5 4.7-9.3 4.7-12.9.1l-23.3-29.6c-3.7-4.6-3.8-12.1-.3-16.8l13.3-17.8c3.4-4.7 9.2-4.8 12.9-.2m-61-50.2 14.6 34.5c2.3 5.3.3 11.7-4.5 14.3l-35.3 18.8c-4.8 2.6-10.4.3-12.7-5.1l-14.6-34.4c-2.3-5.4-.3-11.8 4.5-14.3l35.3-18.9c4.8-2.6 10.5-.3 12.7 5.1m-59.3 223.1 12.9 30.4c2 4.7.2 10.4-4 12.6l-31.2 16.7c-4.2 2.2-9.2.2-11.2-4.5l-12.9-30.4c-2-4.8-.2-10.4 4-12.7l31.2-16.6c4.2-2.2 9.2-.2 11.2 4.5m-111.8-131.2 27 29.6c4.2 4.6 4.3 12.1.3 16.8l-13 15.1c-4.1 4.7-10.8 4.8-15 .2l-27-29.6c-4.2-4.6-4.3-12.1-.2-16.8l13-15.1c4-4.7 10.7-4.8 14.9-.2m92.6-110.7 8.6 9.5c1.4 1.4 1.4 3.8.1 5.3l-4.2 4.9c-1.3 1.5-3.4 1.5-4.7 0l-8.7-9.4c-1.3-1.5-1.3-3.9 0-5.4l4.1-4.8c1.3-1.5 3.4-1.5 4.8-.1m721.5-121.7-10.2 7.9c-1.5 1.2-3.9 1-5.3-.4l-4.5-4.6c-1.4-1.4-1.2-3.5.4-4.7l10.1-7.8c1.6-1.2 4-1.1 5.4.3l4.4 4.6c1.4 1.4 1.2 3.5-.3 4.7m-263.5 22.9-10.1 7.9c-1.6 1.2-4 1-5.4-.4l-4.4-4.6c-1.4-1.4-1.2-3.5.3-4.7l10.2-7.8c1.5-1.2 3.9-1.1 5.3.3l4.5 4.6c1.4 1.4 1.2 3.5-.4 4.7m-659.9 161.8 28.8 20.3c4.5 3.2 5.8 9.8 3 14.8l-13.5 24.4c-2.8 5.1-8.7 6.6-13.2 3.4l-28.7-20.3c-4.5-3.2-5.9-9.8-3.1-14.8l13.6-24.5c2.8-5 8.7-6.5 13.1-3.3m-76.1 18.4 16.6-2.6c2.6-.3 5 1.7 5.3 4.6l1.8 14.2c.3 2.9-1.5 5.5-4.1 5.9l-16.6 2.5c-2.6.4-5-1.6-5.3-4.5l-1.7-14.2c-.4-2.9 1.4-5.5 4-5.9m201.4 150.6 16.6-2.5c2.6-.4 5 1.6 5.3 4.5l1.8 14.2c.3 2.9-1.5 5.5-4.1 5.9l-16.6 2.6c-2.6.3-5-1.7-5.3-4.6l-1.7-14.2c-.4-2.9 1.4-5.5 4-5.9m204.2 92.5 16.6-2.5c2.6-.4 5 1.6 5.3 4.5l1.8 14.2c.3 2.9-1.5 5.6-4.1 6l-16.6 2.5c-2.6.4-5-1.7-5.3-4.6l-1.7-14.1c-.4-2.9 1.4-5.6 4-6m203.3-120.2 16.6-2.5c2.6-.4 5 1.6 5.4 4.6l1.7 14.1c.3 2.9-1.5 5.6-4 6l-16.7 2.5c-2.5.4-4.9-1.7-5.3-4.6l-1.7-14.1c-.4-2.9 1.4-5.6 4-6m-231.2-9.7 16.6-2.5c2.6-.4 4.9 1.6 5.3 4.5l1.7 14.2c.4 2.9-1.4 5.6-4 6l-16.6 2.5c-2.6.4-5-1.7-5.3-4.6l-1.8-14.1c-.3-3 1.5-5.6 4.1-6m359.9-27.2 16.6-2.5c2.6-.4 4.9 1.7 5.3 4.6l1.7 14.1c.4 2.9-1.4 5.6-4 6l-16.6 2.5c-2.6.4-5-1.6-5.3-4.5l-1.8-14.2c-.3-2.9 1.5-5.6 4.1-6m131.7-181.1 16.7-2.5c2.5-.4 4.9 1.6 5.3 4.5l1.7 14.2c.4 2.9-1.4 5.5-4 5.9l-16.6 2.6c-2.6.4-5-1.7-5.4-4.6l-1.7-14.2c-.3-2.9 1.5-5.5 4-5.9m-619.7 163.5 16.6-2.5c2.6-.4 5 1.6 5.3 4.5l1.8 14.2c.3 2.9-1.5 5.6-4.1 5.9l-16.6 2.6c-2.6.4-4.9-1.7-5.3-4.6l-1.7-14.1c-.4-2.9 1.4-5.6 4-6m915.8-132.9 16.6-2.5c2.6-.4 4.9 1.6 5.3 4.5l1.7 14.2c.4 2.9-1.4 5.6-4 6l-16.6 2.5c-2.6.4-5-1.7-5.4-4.6l-1.7-14.1c-.3-2.9 1.5-5.6 4.1-6m-1012.8 36.2 3.2 16.2c.5 2.6-.9 5-3.2 5.6l-10.9 2.7c-2.2.5-4.4-1.1-4.9-3.6l-3.2-16.3c-.5-2.5.9-5 3.2-5.5l10.8-2.7c2.3-.5 4.5 1.1 5 3.6m607.4-227-16.5 1.8c-2.5.3-4.9-1.3-5.2-3.6l-1.8-11.1c-.3-2.2 1.4-4.3 4-4.6l16.4-1.8c2.6-.3 4.9 1.3 5.3 3.6l1.7 11.1c.4 2.3-1.4 4.3-3.9 4.6m-334.1 174.4 22.5 15.9c3.5 2.5 4.6 7.7 2.4 11.6l-10.6 19.2c-2.2 3.9-6.8 5.1-10.3 2.6l-22.5-15.9c-3.6-2.5-4.6-7.7-2.4-11.6l10.6-19.2c2.2-3.9 6.8-5.1 10.3-2.6m-52.6 251.6 22.6 15.9c3.5 2.5 4.5 7.7 2.3 11.6l-10.6 19.1c-2.2 4-6.8 5.2-10.3 2.7l-22.5-16c-3.5-2.4-4.6-7.6-2.4-11.6l10.6-19.1c2.2-3.9 6.8-5.1 10.3-2.6m837.3-138.9 22.6 16c3.5 2.5 4.5 7.6 2.3 11.6l-10.6 19.1c-2.2 4-6.8 5.1-10.3 2.7l-22.5-16c-3.5-2.5-4.6-7.7-2.4-11.6l10.6-19.1c2.2-4 6.8-5.1 10.3-2.7m-1159.2 232.1 22.6 15.9c3.5 2.5 4.6 7.7 2.4 11.6l-10.7 19.2c-2.2 3.9-6.8 5.1-10.3 2.6l-22.5-15.9c-3.5-2.5-4.6-7.7-2.4-11.6l10.6-19.2c2.2-3.9 6.9-5.1 10.3-2.6m461.9-145.6 22.6 15.9c3.5 2.5 4.5 7.7 2.3 11.6l-10.6 19.1c-2.2 4-6.8 5.2-10.3 2.7l-22.5-16c-3.5-2.4-4.6-7.6-2.4-11.6l10.6-19.1c2.2-3.9 6.8-5.1 10.3-2.6m121.4-184.1-3.5 18.8c-.5 3-3 4.8-5.6 4.2l-12.7-3c-2.6-.6-4.2-3.5-3.7-6.4l3.5-18.8c.5-3 3.1-4.8 5.7-4.2l12.6 3c2.6.6 4.3 3.5 3.7 6.4m31.3-67.8-3.5 18.8c-.5 3-3 4.8-5.6 4.2l-12.7-3c-2.6-.6-4.2-3.5-3.7-6.4l3.5-18.8c.5-3 3.1-4.8 5.6-4.2l12.7 3c2.6.6 4.3 3.5 3.7 6.4m189.3-113.1-18.4-5.1c-2.9-.7-4.6-3.4-3.7-6l4-12.3c.9-2.5 3.9-4 6.7-3.2l18.5 5c2.9.8 4.5 3.5 3.7 6.1l-4.1 12.3c-.8 2.5-3.8 4-6.7 3.2m-457.1 574.1-3.5 18.8c-.5 3-3 4.8-5.6 4.2l-12.7-3c-2.6-.6-4.2-3.5-3.7-6.4l3.5-18.8c.5-3 3.1-4.8 5.7-4.2l12.6 3c2.6.6 4.3 3.5 3.7 6.4m484.6-56.2-3.5 18.9c-.5 2.9-3.1 4.8-5.7 4.1l-12.6-3c-2.6-.6-4.3-3.5-3.7-6.4l3.5-18.8c.5-2.9 3-4.8 5.6-4.2l12.7 3c2.6.6 4.3 3.5 3.7 6.4m-550.7 9.7-3.5 18.8c-.5 2.9-3.1 4.8-5.6 4.2l-12.7-3.1c-2.6-.6-4.3-3.4-3.7-6.4l3.5-18.8c.5-2.9 3-4.8 5.6-4.2l12.7 3c2.6.7 4.2 3.5 3.7 6.5m473.3-465.9-18.5-5c-2.8-.8-4.5-3.5-3.6-6l4-12.4c.8-2.5 3.8-3.9 6.7-3.1l18.5 5c2.9.8 4.5 3.5 3.7 6l-4.1 12.4c-.8 2.5-3.8 3.9-6.7 3.1m283.4 115.6-3.5 18.8c-.5 3-3.1 4.8-5.7 4.2l-12.6-3c-2.6-.6-4.3-3.5-3.7-6.4l3.4-18.8c.6-3 3.1-4.8 5.7-4.2l12.7 3c2.6.6 4.2 3.5 3.7 6.4m-851.3 417.6-3.5 18.9c-.5 2.9-3.1 4.7-5.7 4.1l-12.6-3c-2.6-.6-4.3-3.5-3.7-6.4l3.5-18.8c.5-3 3-4.8 5.6-4.2l12.7 3c2.6.6 4.2 3.5 3.7 6.4m694.6-560.4-18.4-5.1c-2.9-.7-4.5-3.4-3.7-6l4.1-12.3c.8-2.6 3.8-4 6.7-3.2l18.4 5c2.9.8 4.5 3.5 3.7 6.1l-4 12.3c-.9 2.5-3.9 4-6.8 3.2m480.5 360.4-3.4 18.8c-.6 2.9-3.1 4.8-5.7 4.2l-12.7-3c-2.6-.7-4.2-3.5-3.7-6.5l3.5-18.8c.5-2.9 3.1-4.8 5.7-4.2l12.6 3.1c2.6.6 4.3 3.4 3.7 6.4m-604.8-269.7 4.2 29.2c.7 5.5-2.6 10.7-7.5 11.6l-31.7 5.5c-4.9.9-9.6-2.9-10.3-8.4l-4.2-29.2c-.8-5.6 2.6-10.8 7.5-11.6l31.7-5.6c4.9-.9 9.5 2.9 10.3 8.5m55.5 135.6 31.9 22.5c4.9 3.6 6.4 10.9 3.3 16.5l-15 27.1c-3.1 5.5-9.7 7.2-14.6 3.7l-31.9-22.6c-5-3.5-6.5-10.8-3.4-16.4l15.1-27.1c3.1-5.5 9.6-7.2 14.6-3.7m-631.3-46.9 35.8 13.8c4 1.6 6.2 6.6 4.8 11.1l-8.8 29.4c-1.4 4.5-5.8 6.9-9.8 5.4l-35.8-13.8c-4.1-1.6-6.3-6.5-4.9-11.1l8.8-29.3c1.4-4.6 5.8-7 9.9-5.5m660.4-10.5 18.4 23.8c2.8 3.7 1 8.4-4.1 10.5l-8.3 3.4c-5.1 2.2-11.6.9-14.4-2.8l-18.3-23.8c-2.9-3.7-1.1-8.4 4-10.5l8.3-3.4c5.1-2.2 11.6-.9 14.4 2.8m54-90.7-24.6 16.4c-3.9 2.5-8.3.3-9.9-5l-2.7-8.5c-1.6-5.3.2-11.6 4-14.1l24.7-16.4c3.8-2.5 8.2-.3 9.9 4.9l2.6 8.6c1.7 5.3-.1 11.6-4 14.1m-478 315.9 18.3 23.2c2.8 3.6 1 8.2-4.1 10.3l-8.3 3.4c-5.1 2-11.5.8-14.4-2.8l-18.3-23.2c-2.9-3.7-1.1-8.2 4-10.3l8.4-3.4c5.1-2 11.5-.8 14.4 2.8m-145.2-135.1 18.4 23.2c2.8 3.7 1 8.2-4.1 10.3l-8.3 3.4c-5.1 2-11.6.8-14.4-2.8l-18.4-23.2c-2.8-3.6-1-8.2 4.1-10.3l8.3-3.4c5.1-2 11.6-.8 14.4 2.8m419.8-124 .1 17c0 2.7-2.2 3.9-5 2.7l-4.5-1.9c-2.7-1.2-5-4.3-5-7l-.2-17c0-2.6 2.2-3.8 5-2.6l4.5 1.9c2.8 1.2 5 4.3 5.1 6.9m254.2 406.5.2 17c0 2.6-2.2 3.8-5 2.6l-4.5-1.9c-2.8-1.2-5-4.3-5-6.9l-.2-17c0-2.7 2.2-3.9 5-2.7l4.5 1.9c2.8 1.2 5 4.3 5 7m-463-43.1-18.3-30.9c-2.8-4.8-2.1-11.9 1.6-15.9l14-14.9c3.7-4 9-3.3 11.8 1.5l18.3 30.9c2.8 4.7 2.1 11.8-1.6 15.8l-14 15c-3.7 3.9-9 3.3-11.8-1.5m453.1-332.1-35.8-1.3c-5.6-.2-11.2-4.6-12.5-9.9l-5-19.9c-1.4-5.2 2.1-9.3 7.7-9.1l35.8 1.3c5.6.2 11.2 4.7 12.5 9.9l5 19.9c1.3 5.3-2.1 9.3-7.7 9.1m-535.3 384.2-9.7-34.3c-1.5-5.3 1-11 5.6-12.8l34.4-13.1c4.6-1.7 9.6 1.2 11.1 6.5l9.7 34.3c1.5 5.3-1 11.1-5.6 12.8l-34.4 13.1c-4.6 1.8-9.6-1.1-11.1-6.5m-318.7-116.2-7.8-27.5c-1.3-4.3.8-8.9 4.5-10.3l27.5-10.5c3.7-1.4 7.7.9 8.9 5.2l7.8 27.5c1.2 4.2-.8 8.8-4.5 10.2l-27.5 10.5c-3.7 1.4-7.7-.9-8.9-5.1m888.1-311.5-17.8-23.6c-2.8-3.7-2.3-9 1.1-11.9l10.9-9.2c3.4-2.9 8.4-2.3 11.2 1.4l17.8 23.6c2.8 3.7 2.3 9-1.1 11.9l-10.9 9.2c-3.4 2.9-8.4 2.3-11.2-1.4m-881.1 428-21.6-31.3c-3.3-4.9-2.6-12 1.6-15.9l13.5-12.4c4.2-3.9 10.3-3.1 13.7 1.8l21.6 31.3c3.4 4.9 2.7 12-1.5 15.8l-13.5 12.5c-4.3 3.9-10.4 3.1-13.8-1.8m387.8 64.5-6.9-10c-1-1.5-.8-3.8.5-5.1l4.3-3.9c1.4-1.3 3.3-1 4.4.5l6.9 10c1.1 1.6.9 3.9-.5 5.1l-4.3 4c-1.3 1.2-3.3 1-4.4-.6m261.6-67.4-19.2-18.1c-2.9-2.8-3.4-7.8-.9-11.3l11.9-16.7c2.4-3.4 6.8-3.9 9.8-1.1l19.1 18.1c3 2.8 3.4 7.8 1 11.3l-11.9 16.7c-2.5 3.4-6.8 4-9.8 1.1m499.8-362.1-15.5.1c-2.4.1-4.4-2.2-4.4-5l-.1-13.5c0-2.7 1.9-5 4.3-5l15.5-.2c2.4 0 4.4 2.2 4.4 5l.1 13.5c0 2.7-1.9 5-4.3 5.1m-580.8 402.2-1.2-15.7c-.2-2.4 1.4-4.6 3.5-4.8l10.2-1.1c2.1-.2 4 1.6 4.2 4l1.2 15.7c.2 2.4-1.4 4.6-3.5 4.8l-10.2 1.1c-2.2.2-4-1.6-4.2-4m-654.5-6.8-1.2-15.7c-.1-2.4 1.4-4.6 3.5-4.8l10.3-1c2.1-.3 4 1.5 4.1 4l1.2 15.6c.2 2.5-1.3 4.6-3.4 4.8l-10.3 1.1c-2.1.2-4-1.6-4.2-4m541.7-158.3-19-17.9c-2.9-2.8-3.3-7.8-.9-11.2l11.8-16.6c2.4-3.4 6.7-3.9 9.7-1.1l18.9 17.9c3 2.8 3.4 7.8 1 11.2l-11.8 16.6c-2.4 3.4-6.8 3.9-9.7 1.1m-300.7 157.1 5.2-17.2c.8-2.7 3.3-4.1 5.6-3.2l11.3 4.5c2.3 1 3.5 3.9 2.7 6.5l-5.2 17.3c-.8 2.6-3.3 4.1-5.6 3.1l-11.3-4.5c-2.3-.9-3.5-3.8-2.7-6.5m1013.7-316.8 5.2-17.2c.8-2.7 3.3-4.1 5.6-3.2l11.3 4.5c2.3.9 3.6 3.8 2.7 6.5l-5.1 17.2c-.8 2.7-3.4 4.1-5.7 3.2l-11.2-4.5c-2.4-.9-3.6-3.8-2.8-6.5m-428.5-260.1 16.8 6.6c2.6 1 3.8 3.6 2.7 5.8l-5.5 10.9c-1.1 2.2-4.1 3.2-6.7 2.2l-16.7-6.6c-2.6-1.1-3.8-3.7-2.7-5.9l5.4-10.9c1.1-2.2 4.1-3.2 6.7-2.1m-405.3 274.6 5.2-17.2c.8-2.7 3.3-4.1 5.6-3.2l11.3 4.5c2.3.9 3.5 3.9 2.7 6.5l-5.1 17.3c-.8 2.6-3.4 4.1-5.7 3.1l-11.2-4.4c-2.4-1-3.6-3.9-2.8-6.6m151.6 290.8-33.6-18.9c-3.9-2.2-5.4-7.5-3.5-11.9l12-28.3c1.8-4.4 6.4-6.2 10.2-4.1l33.6 19c3.8 2.1 5.4 7.4 3.5 11.8l-12 28.3c-1.8 4.4-6.4 6.3-10.2 4.1m455.1-478.2 10.6-15.6c1.2-1.7 3.8-2.3 5.9-1.2l13.2 7c2.1 1.1 2.8 3.4 1.6 5.2l-10.6 15.5c-1.2 1.8-3.8 2.3-5.9 1.2l-13.3-6.9c-2-1.1-2.7-3.4-1.5-5.2m-968.7 528.2 1.7-16c.3-2.5 2.4-3.3 4.8-1.9l3.9 2.4c2.5 1.5 4.2 4.7 3.9 7.2l-1.6 16c-.3 2.5-2.4 3.3-4.9 1.8l-3.9-2.4c-2.4-1.4-4.1-4.6-3.9-7.1m1324.2-329.2 1.7-16c.2-2.5 2.4-3.3 4.8-1.9l3.9 2.4c2.4 1.5 4.2 4.7 3.9 7.2l-1.7 16c-.2 2.5-2.4 3.3-4.8 1.8l-3.9-2.4c-2.4-1.4-4.2-4.6-3.9-7.1m-339.8 42.2.8 23.7c.3 10.9 9.2 20.5 19.9 21.4 10.6.9 18.9-7.3 18.5-18.2l-.8-23.8c-.3-10.9-9.3-20.5-19.9-21.4-10.6-.8-18.9 7.3-18.5 18.3m-182.1 11.5 15.2 4.6c7 2.1 17.5-6.6 23.5-19.4s5.2-24.9-1.8-27.1l-15.3-4.6c-7-2.1-17.5 6.6-23.5 19.4-6 12.9-5.1 25 1.9 27.1m227.4 153.9-12 4.5c-1.9.7-3 2.8-2.5 4.7l1.5 6.2c.5 1.9 2.3 2.9 4.2 2.2l12-4.5c1.8-.7 3-2.8 2.5-4.7l-1.5-6.2c-.5-1.9-2.4-2.9-4.2-2.2m-130.8-270.3-13.7-9.8c-2.1-1.5-5.2-.8-6.8 1.7l-8 11.8c-1.6 2.4-1.2 5.6.9 7.1l13.7 9.8c2.1 1.6 5.1.8 6.8-1.6l8-11.8c1.6-2.4 1.2-5.6-.9-7.2m281.9 276.9-10.2 13c-1.6 2-1.4 4.9.3 6.4l8.5 7.3c1.7 1.5 4.5 1.1 6-.9l10.3-13.1c1.5-2 1.4-4.9-.3-6.4l-8.5-7.3c-1.8-1.5-4.5-1.1-6.1 1m-199.9-107.8-27.3 4c-4.3.6-7.6 4.7-7.4 9.2l.8 21.9c.1 4.5 3.7 7.7 7.9 7l27.3-3.9c4.3-.6 7.6-4.8 7.4-9.3l-.7-21.8c-.2-4.5-3.8-7.7-8-7.1m228.9 22.9-5.5 18.4c-.8 2.8.6 5.7 3.2 6.3l12.6 3.1c2.6.6 5.4-1.2 6.3-4.1l5.4-18.3c.9-2.9-.6-5.7-3.2-6.3l-12.6-3.1c-2.6-.6-5.4 1.2-6.2 4m-131.7-5.2-5.5 18.4c-.9 2.9.6 5.7 3.2 6.3l12.6 3.1c2.6.6 5.4-1.2 6.2-4l5.5-18.4c.8-2.9-.6-5.7-3.2-6.3l-12.6-3.1c-2.6-.6-5.4 1.2-6.2 4m-301.3-27.2-5.4 18.4c-.9 2.8.5 5.7 3.1 6.3l12.7 3.1c2.6.6 5.3-1.2 6.2-4.1l5.5-18.3c.8-2.9-.6-5.7-3.2-6.3l-12.6-3.1c-2.6-.6-5.4 1.2-6.3 4m385-63.4-5.5 18.4c-.8 2.8.6 5.7 3.2 6.3l12.6 3.1c2.6.6 5.4-1.2 6.2-4.1l5.5-18.3c.8-2.8-.6-5.7-3.2-6.3l-12.6-3.1c-2.6-.6-5.4 1.2-6.2 4m-234.7-1.5 19.4-21c3-3.2 3.3-8.2.7-11.2l-19.8-21.9c-2.7-2.9-7.3-2.6-10.3.6l-19.4 21c-3.1 3.2-3.4 8.2-.7 11.2l19.8 21.8c2.6 3 7.2 2.7 10.3-.5m-59.3 100.5 33.5-18c5.2-2.8 7.8-9.5 5.8-14.9l-6.4-17.1c-2-5.4-7.8-7.5-13-4.7l-33.5 18.1c-5.2 2.8-7.8 9.4-5.8 14.8l6.3 17.2c2 5.4 7.9 7.5 13.1 4.6m62.8 66.3 8.2-13.4c1.3-2.1.9-4.7-.9-5.9l-8.7-5.6c-1.7-1.2-4.2-.4-5.5 1.7l-8.2 13.4c-1.2 2.1-.8 4.7.9 5.9l8.7 5.6c1.8 1.1 4.2.4 5.5-1.7m168.3-122.5 3.2-17.7c.5-2.7-1.1-5.1-3.6-5.4l-12.1-1.1c-2.5-.2-4.9 1.8-5.4 4.6l-3.2 17.7c-.5 2.7 1.1 5.1 3.6 5.4l12.1 1.1c2.4.2 4.9-1.8 5.4-4.6m-118.2-93.2 38.1-1.6c4.3-.2 8-4.1 8.4-8.8l2.1-30.3c.3-4.7-2.9-8.3-7.2-8.2l-38 1.6c-4.3.2-8.1 4.1-8.4 8.8l-2.1 30.3c-.4 4.7 2.8 8.3 7.1 8.2m-119.5 222.1 5.8-15c.9-2.3-.6-4-3.5-3.8l-4.5.3c-2.9.2-5.9 2.3-6.8 4.6l-5.8 15c-.9 2.4.7 4.1 3.5 3.9l4.6-.4c2.8-.2 5.8-2.3 6.7-4.6" style="fill:#331a15;fill-opacity:1;fill-rule:nonzero;stroke:none" transform="matrix(.01814 0 0 -.01814 -351.611 425.463)"/><path d="m25051.3 15442.8-.7-.2-396-105.6c-9.1-2.4-15.5-10.6-15.6-20-.3-23.5.4-58.1.6-81 0-6.7 3.3-13 8.7-16.9 67.2-48 510-360.2 563.7-363.1 1.8-.1 10 85.4 10 85.4z" style="fill:#271612;fill-opacity:1;fill-rule:nonzero;stroke:none" transform="matrix(.01814 0 0 -.01814 -351.611 425.463)"/><path d="M25641.7 15102c3.5 25 6.5 57 8.7 80.3.9 8.9-4 17.3-12.2 21l-525.3 238.5c-14.7 9.6-40.9 10.2-59.5 1.6-.9-.5-1.8-.8-2.7-1.1l170.6-501.5-9.4-84.7.1-.1c83.1 15.5 336.8 167.9 408.1 212.7 11.8 7.4 19.7 19.6 21.6 33.3" style="fill:#452b23;fill-opacity:1;fill-rule:nonzero;stroke:none" transform="matrix(.01814 0 0 -.01814 -351.611 425.463)"/><path d="m25038.3 15418-378.4-100.9c-.5-16.7-.2-38.5 0-57.9l.3-23c291.8-208.9 510.5-352.5 547.6-360.1l.5.1c71.7 13.4 301.1 147.2 400.9 209.9 6.7 4.2 11.1 11.1 12.2 18.8 3.4 24.7 6.5 57.6 8.6 79.3l-.3.4-526.7 239.1-1.3.9c-7.9 5.1-26.4 6.2-39.6.1-1.3-.6-2.5-1-3.7-1.5l-19.5-6.9zm169.7-583.2-1.2.1c-50.3 2.6-338 201.3-570.4 367.5-10.8 7.7-17.3 20.2-17.4 33.4l-.2 22.9c-.3 19.7-.5 41.9-.4 58.5.2 18.6 12.9 34.9 30.8 39.6l395.5 105.5 3.5 1.2q3.3 1.35 6.6 2.4l8.9 3.2.3-.9c20.7 4.1 43 1.3 58.6-8.2l524.1-237.9c16.1-7.3 25.9-24.1 24.2-41.7-2.1-22.1-5.2-55.5-8.8-81.2-2.7-19.8-14.1-37.2-31-47.9-3.2-1.9-314.3-196.1-414.7-215.4-2-.5-5.2-1.1-8.4-1.1" style="fill:#231f20;fill-opacity:1;fill-rule:nonzero;stroke:none" transform="matrix(.01814 0 0 -.01814 -351.611 425.463)"/><path d="m25086.8 15519.9 4.9 51.5c.1 1.1-.8 2.1-1.9 2.2-11.4.3-23.5-2-33.1-6.9l-378.5-187.6c-18.7-9.5-50.8-41.6-36-55 123.3-111.2 522.9-358.5 577.2-380.6 1.3-.6 2.7.4 2.8 1.8.5 35.5-2.5 72.2-10.1 110.5l-.1.1-125.2 463.3z" style="fill:#432821;fill-opacity:1;fill-rule:nonzero;stroke:none" transform="matrix(.01814 0 0 -.01814 -351.611 425.463)"/><path d="M25651 15180.1c21.4 12.7-11.9 61.9-15.5 67l-.7.7-516.9 318.2c-6.3 4-14.6 6.5-23.5 7.3-1.4.1-2.6-.9-2.8-2.3l-4.8-51 .1-.9 125.1-463.2.1-.2c7-35 10.6-98.9 11.3-112.1.1-1.6 1.6-2.7 3.1-2.4 35.9 7.2 328.5 181.5 424.5 238.9" style="fill:#553c34;fill-opacity:1;fill-rule:nonzero;stroke:none" transform="matrix(.01814 0 0 -.01814 -351.611 425.463)"/><path d="m25067.4 15512.6-1.4 4.9.3 4.7 20.7-2.2 6.6 1.4 12.7 4.3.1-.1-11.9-4 12.3 2.6-3.4-.9 3.4.6-15.7-4.3 16.2-1.7-11.7 1.1 11.6-1.2-16.5 1.7zm-407-177.1c127.8-112.7 517.4-352.3 566.3-372.8 18.2 7 94.5 44.2 410.8 233.3-.7 6.7-7.3 21.9-16.8 36.3l-513.6 316.2c-3.6 2.3-8.7 3.8-14.5 4.3 9.6-.8 18.5 6.3 19.5 16.1l-40.9 4.2c-.4-5.1 1.3-10.1 4.6-13.9 3.4-3.8 8.3-6.1 13.4-6.2-8.3.3-16.9-1.5-23.2-4.6l-378.7-187.8c-9.9-5-22.6-17.7-26.9-25.1m565.7-414.9c-5.7 0-10.6 2.1-14 3.7-58.5 23.7-460.1 273.1-583.7 384.5-8.1 7.4-11.7 17.6-10.2 28.8 3.4 25.8 34.6 51.7 50.6 59.8l378.7 187.7c12.2 6.2 27.7 9.4 42.9 9 .9 0 1.9-.1 2.9-.3.9.1 2 0 3 0 12.6-1.2 23.9-4.8 32.8-10.6l520.3-320.3 3-4.1c9.5-13.6 30.9-48 25.3-73.6-2.1-9.8-7.7-17.7-16.1-22.8-390.3-233.2-421-239.4-431.1-241.4-1.5-.3-3-.4-4.4-.4" style="fill:#231f20;fill-opacity:1;fill-rule:nonzero;stroke:none" transform="matrix(.01814 0 0 -.01814 -351.611 425.463)"/><path d="m25069.8 15582.7-378.5-192.4c-17.3-8.8-19.9-23.3-5.8-32.5l500.1-325.3c14-9.2 39.4-9.5 56.7-.7l378.5 192.5c17.2 8.7 19.8 23.3 5.8 32.4l-500.1 325.4c-14.1 9.1-39.5 9.4-56.7.6" style="fill:#67524a;fill-opacity:1;fill-rule:nonzero;stroke:none" transform="matrix(.01814 0 0 -.01814 -351.611 425.463)"/><path d="m24701.1 15372.2 495.7-322.5c7.2-4.7 24.5-5.5 36.2.4l377.9 192.2-495.7 322.5c-7.1 4.7-24.5 5.5-36.1-.4zm512.6-367.3c-14.6 0-28.7 3.4-39.3 10.3l-500.1 325.4c-12.4 8-19.1 20-18.4 33 .8 14.2 10.3 27 26.1 35l378.4 192.5c23.9 12.1 57.1 11.3 77.3-1.8l500.1-325.3c12.3-8.1 19-20.1 18.3-33.1-.7-14.2-10.2-26.9-26-35l-378.5-192.4c-11.3-5.8-24.8-8.6-37.9-8.6" style="fill:#231f20;fill-opacity:1;fill-rule:nonzero;stroke:none" transform="matrix(.01814 0 0 -.01814 -351.611 425.463)"/><path d="m24530.1 15207.7-.4-.7-249.6-325.1c-5.7-7.5-5.8-17.8-.1-25.3 14.1-18.8 35.7-45.8 49.8-63.9 4.2-5.3 10.6-8.2 17.3-8 82.5 2.8 635.3 39.9 679.6 70.3 1.4 1-55.6 59.2-55.6 59.2z" style="fill:#4c2c15;fill-opacity:1;fill-rule:nonzero;stroke:none" transform="matrix(.01814 0 0 -.01814 -351.611 425.463)"/><path d="M25205.9 15297.4c-12.4 21.9-29.5 49.1-42 69-4.8 7.5-13.8 11.2-22.5 9.2l-561.8-131.2c-17.5-1.4-38.7-16.9-48.1-35l-1.6-2.6 441-293.5 55.8-58.3c56.4 63 153.1 323.8 182.4 402.9 4.8 13 3.7 27.5-3.2 39.5" style="fill:#623116;fill-opacity:1;fill-rule:nonzero;stroke:none" transform="matrix(.01814 0 0 -.01814 -351.611 425.463)"/><path d="m24534.5 15179.5-238-310.1c9.9-13.8 23.7-31.2 35.8-46.6l13.7-17.4c111.4 3.7 615.4 40.8 667.4 65.7 25.5 30.4 76.5 124 176.4 393.9 2.7 7.4 2.1 15.5-1.8 22.3-5.8 10.1-11.9 22.7-17.9 35-6.1 12.3-12.3 24.9-17.9 34.7-1.3-.3-2.6-.6-3.6-.8l-2.5-.6-563.4-131.6-1.5-.1c-9.3-.7-24.8-11.2-31.5-24-.7-1.3-1.4-2.5-2.2-3.7l-11.6-17.7zm-188.2-415.4c-12.7 0-24.8 5.9-32.7 15.9l-13.6 17.3c-12.3 15.7-26.3 33.4-36.5 46.9-11.1 14.8-11 35.5.3 50.2l250.6 326.7c2 3.5 4.3 6.9 6.8 10.1l3.8 5.8.6-.4c13.8 15.3 32.8 26.2 50.6 28.1l562.7 131.4c9.7 2.4 32.5 7.9 44.7-11.5 7.6-12 15.6-28.4 23.4-44.2 6-12.2 11.6-23.7 16.8-32.8 9.9-17.4 11.5-38.1 4.6-56.9-85.4-230.8-146.4-364.7-186.4-409.4l-1.6-1.8-2.1-1.4c-56.3-38.8-684.4-73.8-690.5-74z" style="fill:#231f20;fill-opacity:1;fill-rule:nonzero;stroke:none" transform="matrix(.01814 0 0 -.01814 -351.611 425.463)"/><path d="m24511.3 15290.4-27.5 43.8c-.7.9-1.9 1.2-2.9.5-9.2-6.7-17.4-15.8-22-25.6l-185.7-379.5c-9-18.8-14.9-63.9 5-65.4 165.5-13 633 34.5 689.6 50.1 1.3.4 1.9 2 1.1 3.1-21.3 28.5-46 55.7-75.4 81.4l-.1.1-381.7 290.9z" style="fill:#793919;fill-opacity:1;fill-rule:nonzero;stroke:none" transform="matrix(.01814 0 0 -.01814 -351.611 425.463)"/><path d="M25165.7 15364.9c9.1 23.2-47.2 41.8-53.1 43.7l-1 .1-603.8-62.9c-7.4-.5-15.5-3.7-23.1-8.5-1.1-.7-1.5-2.3-.7-3.5l27.2-43.4.6-.6 381.6-290.9.1-.1c26.9-23.6 68.8-71.9 77.4-82 1-1.2 2.8-1.2 3.9 0 24.1 27.6 149.8 344.1 190.9 448.1" style="fill:#84491b;fill-opacity:1;fill-rule:nonzero;stroke:none" transform="matrix(.01814 0 0 -.01814 -351.611 425.463)"/><path d="M24285.7 14884.2c169.9-11.2 624.8 36.2 676.1 49.8 10.2 16.5 47.9 92.4 183.5 435.3-4.7 4.9-19.1 12.9-35.5 18.5l-599.9-62.4c-4.2-.4-9.2-2.3-14.1-5.4 8.3 5.3 10.9 16.4 5.6 24.8l-34.6-22.3c2.2-3.6 6.7-6.6 11.7-7.6s10.4.2 14.5 3.2c-6.9-5-12.6-11.5-15.6-17.8l-185.7-379.7c-4.8-10-7.2-27.8-6-36.4m61.6-42.8c-27.1 0-51 .7-70.7 2.3-10.9.8-20 6.7-25.7 16.5-13 22.5-4 62.1 3.7 78.3l185.8 379.7c5.9 12.3 16 24.2 28.5 33.2l2.4 1.5 2.5 1.8c10.6 6.8 21.9 10.8 32.4 11.7l607.6 63.2 5-1.4c15.8-5 53.7-19.2 64.9-42.9 4.4-9.1 4.7-18.8 1.1-27.9-167.2-422.9-187.8-446.4-194.6-454.2-5.1-5.8-12-7.5-16.5-8.6-53.6-14.8-425.4-53.2-626.4-53.2" style="fill:#231f20;fill-opacity:1;fill-rule:nonzero;stroke:none" transform="matrix(.01814 0 0 -.01814 -351.611 425.463)"/><path d="m24459.5 15329.8-182.7-383.3c-8.4-17.5-1.6-30.6 15.2-29.2l594.7 46.9c16.7 1.3 37 16.6 45.4 34.1l182.7 383.2c8.3 17.5 1.5 30.6-15.2 29.3l-594.8-47c-16.7-1.3-37-16.5-45.3-34" style="fill:#a6641d;fill-opacity:1;fill-rule:nonzero;stroke:none" transform="matrix(.01814 0 0 -.01814 -351.611 425.463)"/><path d="m25096 15389.9-589.6-46.6c-8.5-.7-22.8-10.6-28.4-22.4l-182.4-382.7 589.5 46.5c8.5.7 22.8 10.6 28.4 22.4zm-806.3-493.3c-13 0-24.1 5.4-30.8 15.1-8.1 11.8-8.3 27.7-.7 43.7l182.7 383.2c11.5 24.2 38.3 43.8 62.3 45.7l594.8 47c14.7 1.1 27.3-4.3 34.7-15 8-11.7 8.3-27.6.6-43.6l-182.7-383.3c-11.5-24.1-38.2-43.8-62.3-45.7l-594.7-47c-1.3 0-2.6-.1-3.9-.1" style="fill:#231f20;fill-opacity:1;fill-rule:nonzero;stroke:none" transform="matrix(.01814 0 0 -.01814 -351.611 425.463)"/><path d="M25444.3 21469.8v-2083.1s-145.2-97.8-530.3-94.6c-101.7.8-190.9 10.6-267.3 24.4-108.8 19.8-191.3 47.9-245.6 70.5-51.2 21.3-107.6 44.2-107.6 44.2l33.2 2089.1 74.4-3.4 245.6-11z" style="fill:#a35d1d;fill-opacity:1;fill-rule:nonzero;stroke:none" transform="matrix(.01814 0 0 -.01814 -351.611 425.463)"/><path d="M24709.9 21492.7v-2189.4c-108.8 19.8-191.3 47.9-245.7 70.6v2129.8z" style="fill:#caa164;fill-opacity:1;fill-rule:nonzero;stroke:none" transform="matrix(.01814 0 0 -.01814 -351.611 425.463)"/><path d="M24329.5 19441.9c47.1-25.2 257.6-126.6 584.6-129.3 320.5-2.3 472.7 66.2 509.7 86v2051.6l-1076.7 48.6zm602.8-170.5c-6.1 0-12.3 0-18.5.1-383.5 3.1-606.4 135.1-615.7 140.7l-10 6.1.1 11.7 18.2 2111.8 1158.5-52.3v-2113.7l-9.1-6.1c-6-4.1-150.2-98.3-523.5-98.3" style="fill:#231f20;fill-opacity:1;fill-rule:nonzero;stroke:none" transform="matrix(.01814 0 0 -.01814 -351.611 425.463)"/><path d="m25514.9 21784.8-.6-176.9c0-99.7-66.4-186.9-162.3-214.4-239.2-68.4-482-79.8-727.8-37.8-60.7 10.2-121.4 23.8-182.5 40.5-17.4 4.8-33.7 11.5-49 19.9-70.1 38.5-115.9 112.5-115.9 195.2l2.9 170.2c0 26.3 4.9 52.3 14.3 76.9l-3.2 87.6-3 10.3c-3.7 13.1-5.7 26.5-5.9 40.1l-5.1 446.1h1237.5V21978c0-24.7-5.4-49.2-16-71.5l-.7-56 .8-1.6c10.9-19.7 16.5-41.8 16.5-64.1" style="fill:#a35d1d;fill-opacity:1;fill-rule:nonzero;stroke:none" transform="matrix(.01814 0 0 -.01814 -351.611 425.463)"/><path d="m24297.6 22421.9 4.8-425.2c.2-11.7 1.9-23.4 5.2-34.8l3.7-12.6 3.4-94.3-1.5-4c-8.6-22.5-13-45.9-13-69.5l-2.8-170.6c0-73.3 40.3-141.1 105.2-176.7 14.2-7.9 29.2-13.9 44.5-18.1 60.9-16.7 121.7-30.2 180.5-40.1 244.5-41.8 486.2-29.2 718.7 37.3 86.8 24.9 147.5 104.9 147.5 194.6l.5 176.9c0 19-4.8 37.7-13.9 54.2l-3.4 6.4.8 65.8 1.9 4.1c9.2 19.4 14.1 41.1 14.1 62.7v443.9zm610.8-1111.2c-95.3 0-191.3 8.3-287.7 24.7-60.1 10.2-122.2 24-184.4 41-18.5 5-36.5 12.3-53.5 21.7-78 42.8-126.5 124.5-126.5 213.2l2.8 170.6c0 26.9 4.8 53.8 14.2 79.8l-2.9 81-2.4 7.8c-4.2 15-6.5 30.3-6.7 45.6l-5.3 466.9h1278.9v-485c0-26.1-5.5-52.3-16.1-76.1l-.6-46.4c11.3-21.6 17.2-46 17.2-70.7l-.5-177c0-107.9-72.9-204.2-177.3-234.1-146.7-41.9-297-63-449.2-63" style="fill:#231f20;fill-opacity:1;fill-rule:nonzero;stroke:none" transform="matrix(.01814 0 0 -.01814 -351.611 425.463)"/><path d="M24624.2 21355.7c-60.7 10.2-121.4 23.8-182.5 40.5-17.4 4.8-33.7 11.5-49 19.9l-25 932.6 51.8 93.8 3.5 6.3 33.4-6.3 148.2-27.9z" style="fill:#caa164;fill-opacity:1;fill-rule:nonzero;stroke:none" transform="matrix(.01814 0 0 -.01814 -351.611 425.463)"/><path d="M24904 21790c-302.2 0-555.1 63.9-609.3 145.7-1-19.5-.5-58.4 3.2-78.1 57.7-80.6 304-138.1 603-138.1 304.1 0 547.8 49.3 597.8 129 1.2 14.6-1.2 39.9-1.7 64.1-80.2-71.3-316.9-122.6-593-122.6" style="fill:#4c2c15;fill-opacity:1;fill-rule:nonzero;stroke:none" transform="matrix(.01814 0 0 -.01814 -351.611 425.463)"/><path d="M24317.4 21866c51.4-63.2 265.6-126 583.5-126 291.7 0 526.9 47.2 577.5 115.3.1 5.1 0 11.5-.3 18.4-105.6-63.3-326.6-104.3-574.1-104.3-264 0-490.7 46.7-588.5 117.3.5-7.6 1.1-14.9 1.9-20.7m583.5-167.1c-307.8 0-556.9 59-619.7 146.7l-2.7 3.7-.8 4.5c-4.1 21.6-4.6 62.1-3.5 83l3.4 62.2 34.3-51.9c44.4-67.1 278-136.6 592.1-136.6 263.4 0 501.6 48.3 579.3 117.4l33.2 29.5 1-44.4c.2-8.5.7-17.1 1.1-25.4.8-16.2 1.5-30.1.6-40.9l-.5-4.9-2.6-4.3c-64.2-102.2-359.9-138.6-615.2-138.6" style="fill:#231f20;fill-opacity:1;fill-rule:nonzero;stroke:none" transform="matrix(.01814 0 0 -.01814 -351.611 425.463)"/><path d="M24959.5 21580.9c-8.1 0-16.2 0-24.1.1-273.5 3.5-558.2 63.1-662.2 138.7l24.2 33.2c96.4-70 376.8-127.4 638.5-130.7 281.6-3.5 523.4 52.8 564.3 105.7l32.6-25.2c-60-77.5-333.8-121.8-573.3-121.8" style="fill:#231f20;fill-opacity:1;fill-rule:nonzero;stroke:none" transform="matrix(.01814 0 0 -.01814 -351.611 425.463)"/><path d="m24297.7 22421.9 4.8-425.2c.1-11.7 1.8-23.4 5.1-34.7l3.7-12.7 3.4-94.4-1.5-3.9c-8.6-22.3-12.9-45.7-13-69.5l-2.8-170.6c0-90.4 61.6-170.6 149.7-194.8 307.8-84.4 610.4-85.4 899.2-2.8 86.9 24.9 147.5 104.9 147.5 194.6l.5 176.9c0 18.8-4.8 37.6-13.9 54.2l-3.5 6.3.9 66 1.9 4c9.2 19.5 14.1 41.1 14.1 62.7v443.9zm611.1-1111c-155.5 0-313.3 21.9-472.5 65.5-106 29.1-180 125.7-180 234.9l2.8 170.6c0 27.2 4.8 54.1 14.2 79.8l-3 81-2.2 7.9c-4.3 14.8-6.6 30.2-6.8 45.6l-5.2 466.8H25535v-485c0-26.1-5.6-52.3-16.2-76.1l-.6-46.4c11.3-21.8 17.3-46.2 17.3-70.8l-.5-176.8c0-108-73-204.3-177.4-234.1-146.6-41.9-296.5-62.9-448.8-62.9" style="fill:#231f20;fill-opacity:1;fill-rule:nonzero;stroke:none" transform="matrix(.01814 0 0 -.01814 -351.611 425.463)"/><path d="M25514.4 22446.6c0-97.6-277-176.8-618.8-176.8-341.7 0-618.7 79.2-618.7 176.8 0 97.7 277 176.8 618.7 176.8 341.8 0 618.8-79.1 618.8-176.8" style="fill:#b88433;fill-opacity:1;fill-rule:nonzero;stroke:none" transform="matrix(.01814 0 0 -.01814 -351.611 425.463)"/><path d="M24895.6 22602.9c-352.5 0-598.2-82.4-598.2-156.3s245.7-156.2 598.2-156.2 598.2 82.3 598.2 156.2-245.7 156.3-598.2 156.3m0-353.6c-309.9 0-639.3 69.1-639.3 197.3s329.4 197.4 639.3 197.4 639.4-69.2 639.4-197.4-329.5-197.3-639.4-197.3" style="fill:#231f20;fill-opacity:1;fill-rule:nonzero;stroke:none" transform="matrix(.01814 0 0 -.01814 -351.611 425.463)"/></svg>