<svg xmlns="http://www.w3.org/2000/svg" xml:space="preserve" width="200mm" height="200mm" viewBox="0 0 200 200"><path d="M14210.5 12364.7c-327 0-548.6 72.5-691 147.9 24.9 107.2 39.3 221.2 43.5 342.9 6.9 201.2 11.7 386.5 14.2 560.1 52.9-40.2 121.5-77.7 196.4-106.7 136.8-53 293-79.9 464.3-79.9 165.3 0 332.9 35.8 472 100.9 33.8 15.8 64.9 32.8 92 50.4.6-36.4 1.3-72.7 1.9-108.8 2.1-123.8 4.2-240.7 5.7-356.4 2-157.5 25.2-313.3 68.1-462-202.2-51.1-430.4-88.4-667.1-88.4" style="fill:#42714b;fill-opacity:1;fill-rule:nonzero;stroke:none" transform="matrix(.0137 0 0 -.0137 -94.193 226.768)"/><path d="M16101.8 9859.7c-28-998.9-295.8-6501.6-300.6-6758.7-1.1-51.1-22.5-101-61.5-148.8-187.1-228.2-780-404.4-1480.3-404.4-762.6 0-1435.2 165.3-1629.1 412-35.4 44.6-54.9 92-56.3 141.4-7 230.7-321.3 5588.7-333.1 6588.4-7.1 605.6-58.2 1227.8 309.9 1725.5 157.5 212.7 630.5 459.7 771.9 688.5 82.4 133.4 137.4 275.1 171 423.2 140.8-80.2 369.3-162.1 716.8-162.1 247.3 0 485.4 40.7 694.2 95.4 31.1-107.5 73-212 125.9-311.8 117.1-220.3 526.5-425.8 680.2-606.4 408.8-481 408.5-1058.8 391-1682.2" style="fill:#371516;fill-opacity:1;fill-rule:nonzero;stroke:none" transform="matrix(.0137 0 0 -.0137 -94.193 226.768)"/><path d="M14259.4 2575.9c-441.1 0-856 54.8-1168.3 154.3-154.1 49.1-275 106.5-359.4 170.7-28.2 21.4-51.9 43.4-71 65.7 369.8 83.8 1032.3 276.8 1136.7 387.3 85 89.8 208 231.6 394.8 231.6 119.8 0 265.8-58.3 444.9-226.2 223.3-209.3 727.1-335.8 1070.8-401.1-71.2-79.8-198.5-155.4-371.9-218.3-291.1-105.8-673.4-164-1076.6-164" style="fill:#26151b;fill-opacity:1;fill-rule:nonzero;stroke:none" transform="matrix(.0137 0 0 -.0137 -94.193 226.768)"/><path d="M13094.1 3299.4c-80.7 0-152.1 63.1-156.5 148.9-29.9 587.8-119.5 2360.9-192.3 3936.5 1.8-2.7 3.7-5.4 5.6-8.1 42.6-59.1 109.7-103.8 190.3-122.2 170.9-39.1 336.3-70.9 497.7-95.5 36.6-1538.9 88.7-3161.3 103.3-3608 2.3-70.8-43-134.2-110.7-155l-291-89.5c-15.6-4.8-31.2-7.1-46.4-7.1m-452.3 6792.1c17.7 827.7 692.6 1532.8 692.6 1532.8 9.2 1.3 18 2 26.5 2 318.3 0 148.2-907.1 62-1382.8-4.8-26.7-8.8-70.7-11.9-130.3-166.3 13.5-335.5 30.6-508.5 51.2-14.6 1.7-29.1 2.6-43.3 2.6-83.3 0-160-28.6-217.3-75.4 0-.1 0-.1-.1-.1m2751.8-6765.4h-2l-1.7.1c-48.8 2.3-86.5 49.3-84.2 105l192.6 3807.5c83.4 37.2 144.7 104.6 167.2 184.9v.2c4.7 16.8 7.7 34 8.7 51.9l78.6 1291.1-270.3-5343.8c-2.3-54.3-41.7-96.9-88.9-96.9m417.1 6585.6c-10.8 42.9-32.6 82.1-62.8 115.1-28.4 31.3-64.1 57.1-104.7 75.4l27.1 535.7c2.3 54.8 42.5 96.9 90 96.9.8 0 1.7 0 2.6-.1 48.8-2.2 86.5-49.3 84.1-105z" style="fill:#643035;fill-opacity:1;fill-rule:nonzero;stroke:none" transform="matrix(.0137 0 0 -.0137 -94.193 226.768)"/><path d="M13612 15026.6c-51.4-238.7-53.4-496.6-45.7-672.4 18.6-430.5 17.6-892.7-3.3-1498.7-10.2-296.4-81-547.2-216.5-766.6-78.1-126.4-250.6-255.8-417.4-380.9-146.4-109.8-284.6-213.4-355.7-309.5-327.7-442.8-317.3-998.4-307.3-1535.7 1.1-56.7 2.2-115.3 2.8-172.8 8.7-730.8 180.5-3818.2 272.8-5476.9 33.9-608.9 58.4-1048.8 60.3-1111.1 2.1-69.6 45.7-137.3 129.7-201.1 84.4-64.2 205.3-121.6 359.4-170.7 312.3-99.5 727.2-154.3 1168.3-154.3 403.2 0 785.5 58.2 1076.6 164 275.3 100 434.6 231.8 437.1 361.7l28-.6-28 .6c1.9 98.7 42 961.3 92.9 2053.4 80.4 1725.7 190.5 4089 207.8 4705.5 15.4 549.5 32.9 1172.4-384.4 1663.2-61.7 72.5-167.6 150.3-279.7 232.7-163.4 120.1-332.3 244.3-403.7 378.8-125 235.4-193 505-196.5 779.9-1.5 115.7-3.6 232.6-5.7 356.4-7.2 415.4-14.7 844.8-1.7 1237.2 1.3 39.4 3.7 77.8 6 115 8.2 133.7 16.1 260.2-28.8 397.6-58.5 16.4-277 34-573.6 37.2-290.4 3.2-522.5-9.5-593.7-31.9m647.4-12506.8c-446.7 0-867.6 55.8-1185.3 157-160.2 51-286.8 111.4-376.3 179.5-98.1 74.6-149.2 156.7-151.8 244-1.9 61.6-26.3 501.2-60.2 1109.7-92.3 1659.1-264.2 4747.3-272.9 5479.3-.7 57.3-1.8 115.9-2.8 172.5-5.1 271.7-10.3 552.8 27.8 818.2 20.7 143.7 52 271.1 95.8 389.5 49.3 133.4 113 251.9 194.6 362.3 76 102.7 217.5 208.7 367.2 321 162.6 122 330.8 248.2 403.3 365.5 130.3 211 198.4 452.7 208.2 739.1 20.8 604.5 21.8 1065.4 3.3 1494.4-7.9 182.8-5.6 452.9 50.2 701.6l3 13.3 12.3 5.9c92.5 44.2 506 43.3 630.5 41.9 193.5-2.1 539.1-14.1 607.1-46.1l10.7-5 3.9-11.1c53.3-153 44.9-288.6 36-432.1-2.3-36.8-4.6-74.8-5.9-113.3-12.9-391-5.5-819.8 1.7-1234.4 2.1-123.9 4.2-240.9 5.7-356.7 3.4-266 69.1-526.8 189.9-754.3 65.4-123.2 229.2-243.5 387.5-359.9 114.8-84.4 223.3-164.1 289.1-241.6 100.6-118.2 179.2-244.2 240.5-385 55.1-126.8 94.8-262.9 121.3-416 48.7-282.1 45.1-574.5 36-900.1-17.3-617-127.4-2980.6-207.8-4706.5-50.9-1091.7-91-1953.9-92.9-2051.9-3-156.6-171.3-303.3-473.9-413.3-297.1-107.9-686.3-167.4-1095.8-167.4" style="fill:#211d1d;fill-opacity:1;fill-rule:nonzero;stroke:none" transform="matrix(.0137 0 0 -.0137 -94.193 226.768)"/><path d="m15817.8 9835-143.6-2359.3c-1-17.9-4-35.1-8.7-51.9v-.2c-23.9-85.3-91.7-156.1-183.1-191.5-17.8-6.9-36.6-12.5-56-16.5-665.4-137.9-1284.8-162.8-1974.9-58.6-165.4 25-334.9 57.4-510.3 97.5-80.6 18.4-147.7 63.1-190.3 122.2-28.6 39.5-46.3 85.6-49.5 134.5l-161.5 2356.3c-6 88.9 34.7 169.1 102 224.1 67.1 54.8 160.8 84.6 260.6 72.8 173.1-20.6 342.3-37.8 508.6-51.2 705.3-57.5 1360.5-51.3 2052 17.7 38.3 3.9 75.8 1.5 110.9-6.2 69.4-14.7 130.3-49.8 173.9-97.9 47.4-51.9 74.4-118.9 69.9-191.8" style="fill:#ecf9f7;fill-opacity:1;fill-rule:nonzero;stroke:none" transform="matrix(.0137 0 0 -.0137 -94.193 226.768)"/><path d="M13451.5 7157c-4.2.7-8.4 1.3-12.6 2-161.4 24.6-326.8 56.4-497.7 95.5-80.6 18.4-147.7 63.1-190.3 122.2-59.1 1205.4-109.4 2334-109.4 2681.7 0 11 .1 22.1.4 33.2 57.3 46.8 134 75.4 217.3 75.4 14.2 0 28.7-.9 43.3-2.6 173.1-20.6 342.3-37.8 508.6-51.2-21.8-432.6 3.9-1673.7 40.4-2956.2" style="fill:#f7fcfc;fill-opacity:1;fill-rule:nonzero;stroke:none" transform="matrix(.0137 0 0 -.0137 -94.193 226.768)"/><path d="m15802.5 9958.6-136.6-2537v-.2c-26-84.7-95.5-153.8-187.8-186.9l163.1 2889.5c69.1-16.5 118.9-116.3 161.3-165.4" style="fill:#fff;fill-opacity:1;fill-rule:nonzero;stroke:none" transform="matrix(.0137 0 0 -.0137 -94.193 226.768)"/><path d="M12859.7 10141c-81.9 0-160.9-29.9-217.1-83.4-54.3-51.6-81.6-118.5-76.8-188.4l161.4-2356.2c7.6-111.1 96-204.8 219.8-233.2 886.5-202.8 1626.4-214.5 2474.1-38.9 126.9 26.3 220.4 123.5 227.2 236.4l143.7 2359.2c4.2 68.9-22.8 135-75.9 186-64.4 62-155.7 92.1-250.5 82.7-432.2-43.1-845.5-61.4-1263.7-55.9-417.8 5.5-843.8 34.7-1302.5 89.4-13.3 1.5-26.5 2.3-39.7 2.3m1420.8-3074.1c-22.3 0-44.5.2-66.8.5-406.7 5.2-824.9 58.2-1278.2 161.9-146.3 33.5-250.8 146.1-260 280.1l-161.4 2356.2c-5.8 85.6 27.1 167.1 92.8 229.5 76.3 72.7 188 108.2 298.6 95 506.3-60.3 975-90.3 1438.5-90.3 369.8 0 736.3 19 1116.5 56.9 109.9 11 216.2-24.3 291.5-96.8 64.3-61.8 96.8-142.3 91.7-226.5L15700 7474.2c-4.1-67.8-32.4-131-81.8-182.8-48.6-51-113.2-86-186.6-101.2-399.8-82.8-777.1-123.3-1151.1-123.3" style="fill:#211d1d;fill-opacity:1;fill-rule:nonzero;stroke:none" transform="matrix(.0137 0 0 -.0137 -94.193 226.768)"/><path d="M13514.9 9569.3c5.4 5.4 11.7 8.1 19 8.1 8.7 0 16-3.7 21.8-11 3.4-3.9 5.1-9.4 5.1-16.7 0-10.7-1.9-31.6-5.8-62.7-7.3-57.8-10.9-125.8-10.9-204 0-48.6 1.7-83.8 5.1-105.7 10.2-69.4 26.2-109.5 48.1-120.2 7.7-3.4 15-5.1 21.8-5.1 8.8 0 15.8 2 21.2 5.9 11.1 7.7 21 27.5 29.5 59.3q12.75 47.7 37.5 193.5c8.7 49 14.3 78 16.7 87 2.5 9 6.4 16.2 11.7 21.5 8.7 8.8 17 13.2 24.8 13.2 16.5 0 26.2-13.9 29.1-41.6 8.3-73.8 17-133.6 26.2-179.2 17.5-79.7 46.7-131.2 87.5-154.5l16.7-10.2 9.5 8c11.7 8.8 22.6 29.2 32.8 61.2 10.2 32.1 17 67.6 20.4 106.4 2.4 25.8 3.6 60.5 3.6 104.2q0 69.9-3.6 134.1c-1.5 28.1-2.2 52.2-2.2 72.1 0 10.7.3 16.5.7 17.5 1 4.8 4.5 9 10.6 12.4q9.15 5.1 18.6 5.1c2.4 0 5.1-.5 8-1.5 8.7-3.4 14.7-9.6 17.9-18.6 3.1-9 5.7-26.8 7.6-53.5 2.4-28.7 3.6-81.1 3.6-157.4 0-74.8-1.2-122.2-3.6-142.1-3.9-35.9-11.5-70.5-22.9-103.8-11.5-33.3-24-57.7-37.6-73.2-7.8-9.2-17.8-16.9-30.2-23-12.4-6-23.4-9.1-33.2-9.1h-5.1c-27.6 3.9-55.3 20.2-83 48.8q-48.15 48.15-67.8 129c-5.3 23.3-8.7 35-10.2 35-1.9 0-7.3-20.7-16-62-7.8-34.9-15-60.6-21.5-76.8-6.6-16.3-15.4-30-26.6-41.2-19.9-19.9-43.2-29.9-69.9-29.9-13.7 0-27 2.5-40.1 7.3-10.7 3.9-22 11.4-33.9 22.6s-20.8 22.3-26.6 33.5c-25.8 50-38.6 124.9-38.6 224.4 0 65.1 5.3 136.5 16 214.2 6.3 46.7 12.4 72.9 18.2 78.7m595.3-7.2c5.3 5.3 12.9 8 22.6 8 4.8 0 9.7-1.3 14.6-3.7 9.2-4.8 15.4-28 18.5-69.6 3.2-41.5 5.5-129.8 7-264.8.4-39.4.7-85.3.7-137.7 0-36.4-.6-62.6-1.8-78.3-1.3-15.8-3.1-25.9-5.5-30.3s-6.8-8-13.1-10.9c-5.8-2.9-10.2-4.4-13.1-4.4s-7.3 1.5-13.1 4.4c-8.8 4.4-13.9 9.2-15.3 14.6-.5 1.4-1.9 91.6-4.1 270.6-2.1 179-3.2 271.2-3.2 276.5-.5 3.4-.8 7.1-.8 11 0 5.3 2.2 10.2 6.6 14.6m150.1 12.3c3.4 2.5 8 3.7 13.8 3.7 8.8 0 17-4.2 24.8-12.4 8.7-9.2 38.1-54.4 88.2-135.5 50-81.2 94.7-156.2 134-225.2 32.6-56.8 49.8-85.2 51.8-85.2 2.4 0 3.6 12.1 3.6 36.4 0 63.2 4.4 170 13.1 320.6 2.4 43.2 5.4 69.6 8.8 79.1 3.3 9.4 12.1 14.2 26.2 14.2 10.2 0 17.9-3.4 23.3-10.2q6.6-8.85 6.6-27c0-12.6-3-74.6-8.8-185.8-3.9-73.8-7-146-9.5-216.4-2.4-75.8-5.1-118.7-8-129-3.9-13.5-12.1-20.4-24.7-20.4-3 0-5.1.3-6.6.8-6.3 1.9-15.2 9.2-26.6 21.8-11.4 12.7-21.3 26.3-29.5 40.8-55.4 97.7-108.9 190.6-160.7 278.7-51.7 88.2-78.8 132.8-81.2 133.7-1 .5-2.1-10.5-3.3-33.1q-1.8-33.9-3.6-103.5c-1.2-46.4-2.3-103.3-3.3-170.8-1.9-87-3.2-131.7-3.6-134.1-1.5-8.3-4.8-14.8-9.9-19.7-5.1-4.8-10.8-7.3-17.1-7.3-7.8 0-14.6 3.2-20.4 9.5l-8.7 9.5.7 223.7c.5 153.9 1.3 244 2.5 270.3 1.2 26.2 5.2 44.2 12.1 53.9 8.2 11.2 13.5 17.5 16 18.9m474.3 9.5c5.3 3.4 18.5 5.1 39.3 5.1 23.8 0 59.1-1 105.7-2.9q56.85-2.25 68.1-3.6c7.5-1 13.7-4.2 18.6-9.5 6.8-6.3 10.2-13.8 10.2-22.2 0-8.5-3.6-16.2-10.9-23-5.4-4.9-12.2-7.3-20.4-7.3-6.8 0-12.4.3-16.8.7-7.3.5-36.9 2-88.9 4.4l-62.6 2.9 1.4-111.4c1-74.4 2-112 2.9-113h2.2c4.9 0 15.6 1.2 32.1 3.7 22.3 2.9 43.2 4.3 62.6 4.3h9.5c19.4-.4 31.6-1.3 36.4-2.5 4.9-1.2 9.8-4.5 14.6-9.9 5.8-7.2 8.8-14.2 8.8-20.7 0-6.6-3-12.8-8.8-18.6-4.8-4.9-9.8-7.6-14.9-8.4-5.1-.7-19.1-1.3-41.9-1.8-32.1 0-57.1-1.7-75.1-5.1l-27.7-4.4-.7-99.1v-29.8c0-46.7 1-71.9 2.9-75.8 2.5-2.9 15.6-4.4 39.4-4.4h44.4c13.1.5 28.7.8 46.7.8q33.45 0 42.9-8.1c6.3-6.8 9.5-14.7 9.5-23.6 0-9-2.7-15.7-8-20.1-6.8-5.8-17.2-9.7-31.3-11.6-14.1-2-40.1-3.2-78-3.7h-32.8q-30.6 0-40.8 1.5c-6.8 1-14.9 3.1-24.4 6.5q-14.25 5.1-23.7 20.4c-7.3 11.7-11.6 28.2-13.1 49.6l1.5 244.1c.5 141.3 1.5 224.3 3.2 248.8s7.5 40.2 17.2 47z" style="fill:#100f0d;fill-opacity:1;fill-rule:nonzero;stroke:none" transform="matrix(.0137 0 0 -.0137 -94.193 226.768)"/><path d="M14154.3 8590.1c-1.1 3.3-2.2 6.4-3.2 9-15.1 40.2-60.7 67.6-103.6 64.8-46-3-84.5-47.2-83.6-93.4.8-46.1 38.6-87.9 83.9-96.3 45.4-8.3 110 9.7 117.7 55.2 2.5 14.8-5 42.4-11.2 60.7" style="fill:#771549;fill-opacity:1;fill-rule:nonzero;stroke:none" transform="matrix(.0137 0 0 -.0137 -94.193 226.768)"/><path d="M14053.6 8642c-1.6 0-3.1 0-4.7-.2-33.6-2.1-63.6-35.9-62.9-70.8.6-34.8 30.2-68.4 65.8-75 25.9-4.8 57 1 75.7 14.1 9.3 6.5 14.7 14.2 16.2 23 1.1 6.2-1.7 24.5-10.3 49.9-1.1 3.1-2.1 5.9-3 8.3-10.9 29.1-44 50.7-76.8 50.7m17.2-191.9c-9.1 0-18.2.7-27 2.4-56.2 10.3-101 62-102 117.6-1.1 59.1 46.6 112.1 104.2 115.9 53.5 3.5 107.6-30.6 125.8-79.2 1.2-3.1 2.4-6.3 3.5-9.6 7.3-21.7 15.4-51.7 12-71.5-3.5-20.6-15.4-38.5-34.5-51.9-21.8-15.2-52-23.7-82-23.7" style="fill:#211d1d;fill-opacity:1;fill-rule:nonzero;stroke:none" transform="matrix(.0137 0 0 -.0137 -94.193 226.768)"/><path d="M14256.7 8478.6c-55.1 14.4-120.8-8.5-146.5-59.3-30.2-59.5 6-139.1 67.3-165.4 61.4-26.3 150.9-15.1 183.5 43.1 8.7 15.7 18.6 51.8 17.1 69.7-4.9 56.7-66.3 97.6-121.4 111.9" style="fill:#371516;fill-opacity:1;fill-rule:nonzero;stroke:none" transform="matrix(.0137 0 0 -.0137 -94.193 226.768)"/><path d="M14222.7 8460.8c-39.1 0-76.7-19.8-92.8-51.5-10.5-20.7-11.3-46-2.1-71.1 10.4-28.9 32.3-52.8 58.4-64 52.1-22.3 129.6-12.6 155.5 33.6 7.3 13.1 15.4 45.1 14.3 57-3.7 43.7-55.6 79.6-104.9 92.4-9.3 2.5-18.9 3.6-28.4 3.6m22.9-242.5c-26.7 0-53.4 5.2-76.8 15.3-37.1 15.9-68 49.4-82.6 89.5-13.4 36.7-11.9 74.5 4.2 106.2 29.5 58.2 103.4 88.6 171.9 70.7 64.4-16.8 132-63.9 137.8-131.4 2-22.9-9-63.1-19.8-82.4-25.9-46.3-80.3-67.9-134.7-67.9" style="fill:#211d1d;fill-opacity:1;fill-rule:nonzero;stroke:none" transform="matrix(.0137 0 0 -.0137 -94.193 226.768)"/><path d="M14013.3 8227.8c-50.1-25.6-87.3-84.7-70.3-138.3 17.6-55.6 85.5-82 143.1-72.6s134.4 24.9 153.8 79.9c8.6 24.5-13.4 78.1-26.5 100.5-36.2 62.4-136 63.4-200.1 30.5" style="fill:#771549;fill-opacity:1;fill-rule:nonzero;stroke:none" transform="matrix(.0137 0 0 -.0137 -94.193 226.768)"/><path d="M14104 8227.1c-27.6 0-56.6-6.6-80.7-18.9-39.1-20.1-72.9-68.6-59.2-112 14.2-45.1 72.6-64.9 118.5-57.4 62.5 10.2 122.3 25.2 136.4 65.4 4.2 11.9-8.5 54.1-24.7 82-16.3 28.1-52 40.9-90.3 40.9m-40.9-234.1c-59.1 0-122.4 30.4-141.2 89.8-21 66.4 24.9 135.9 81.3 164.7 76.9 39.4 187.4 33.1 229.4-39 .4-.8 43.1-76.4 28.2-119-24.8-70.5-120-86.1-171.1-94.4-8.7-1.4-17.6-2.1-26.6-2.1" style="fill:#211d1d;fill-opacity:1;fill-rule:nonzero;stroke:none" transform="matrix(.0137 0 0 -.0137 -94.193 226.768)"/><path d="M13203.7 7950c-44.8 35.2-118.9 5.1-153.7-39.9-19.3-24.8-29-59-17.8-88.4 17.2-45.2 88-74.9 134-60 45.9 14.9 111.5 35 102.9 100.8-3.5 27.1-43.9 70.6-65.4 87.5" style="fill:#7c161a;fill-opacity:1;fill-rule:nonzero;stroke:none" transform="matrix(.0137 0 0 -.0137 -94.193 226.768)"/><path d="M13156.5 7943.3q-4.8 0-9.9-.6c-28.7-3.5-60.5-22.1-79.1-46.1-16.4-21.1-22.1-47.4-14.6-67.1 12.6-33.1 70.3-58.5 106.4-46.8l2.3.7c53.6 17.4 91.2 33.1 85.6 76.3-2.1 16.5-33.8 54.5-57.2 72.9-9 7.2-20.3 10.7-33.5 10.7m-16.9-207.7c-19.4 0-40.1 4.5-60.1 13.3-33 14.4-57.8 38.1-68 64.9-13 34.3-5 76.4 21 109.9 25.7 33.2 68.4 57.9 108.7 62.9 29.2 3.6 55.6-3 76.1-19.2 21.1-16.6 69-65.3 73.8-102.1 4.7-36.3-8.8-67.2-38.9-89.4-23.4-17.2-53.1-26.8-77-34.5l-2.2-.8c-10.3-3.3-21.6-5-33.4-5" style="fill:#211d1d;fill-opacity:1;fill-rule:nonzero;stroke:none" transform="matrix(.0137 0 0 -.0137 -94.193 226.768)"/><path d="M13471 7805.1c-40.9 36.7-149 10-183.4-37.8-41.8-57.9-12.8-145.7 45.4-186.9 58.3-41.2 165.7 10.5 185.1 59.3 17.5 43.8-12 133.9-47.1 165.4" style="fill:#771549;fill-opacity:1;fill-rule:nonzero;stroke:none" transform="matrix(.0137 0 0 -.0137 -94.193 226.768)"/><path d="M13414.7 7800.1c-4.8 0-9.8-.2-14.9-.8-38.9-4.2-78.6-23.1-94.3-44.9-17.1-23.8-17-50.7-14-69 5.7-34 26.5-67.3 54.3-87 17.5-12.3 44.8-14.2 75.1-5.3 38.9 11.5 69.6 36.9 76.7 54.8 13.1 32.8-10.5 113.1-41.3 140.8-8.3 7.4-23.3 11.4-41.6 11.4m-29.7-256.9c-24.7 0-46.8 6.5-64.7 19.1-37.7 26.6-64.7 69.9-72.4 115.8-6.3 37.7 1.4 74 21.7 102.1 26.7 37.1 82.2 58.4 125.4 63.1 38.3 4.1 70.6-3.6 90.8-21.7 41.4-37.1 74.5-136 52.9-190.1-13.4-33.7-55.7-66.1-105.2-80.8-16.9-5-33.2-7.5-48.5-7.5" style="fill:#211d1d;fill-opacity:1;fill-rule:nonzero;stroke:none" transform="matrix(.0137 0 0 -.0137 -94.193 226.768)"/><path d="M13239.4 8185.8c-53.3-16-89.7-125.6-58.5-171.6 31.3-46.1 98.8-64.5 147.5-37.4 48.6 27.1 75.8 96.3 54.8 147.8-23 56.4-100.9 74.1-143.8 61.2" style="fill:#771549;fill-opacity:1;fill-rule:nonzero;stroke:none" transform="matrix(.0137 0 0 -.0137 -94.193 226.768)"/><path d="M13269.6 8167.8c-8.8 0-16.9-1.1-23.8-3.2-16.7-5-35-28.3-45.6-58-11.3-32-11.7-64.2-1-80 25.3-37.3 80.6-51.5 118.4-30.5 40.1 22.4 61.7 79.7 45.1 120.2-14.1 34.5-58.2 51.5-93.1 51.5m8.7-225.6c-44.5 0-89.9 21.6-115.7 59.5-22.5 33.3-16.8 83.6-4 119.7 15.7 44.3 43.5 76.3 74.4 85.6 52.2 15.7 142.4-4.8 170.7-74 24.7-60.5-5.5-142.6-64.6-175.5-18.6-10.4-39.6-15.3-60.8-15.3" style="fill:#211d1d;fill-opacity:1;fill-rule:nonzero;stroke:none" transform="matrix(.0137 0 0 -.0137 -94.193 226.768)"/><path d="M13488 8371.9c-34.9 26.2-104.2-3.7-122.1-44.7s4-94.7 45.4-111.5c41.5-16.9 125.7 18.8 125.1 63.5-.4 28.6-25.6 75.6-48.4 92.7" style="fill:#7c161a;fill-opacity:1;fill-rule:nonzero;stroke:none" transform="matrix(.0137 0 0 -.0137 -94.193 226.768)"/><path d="M13455.2 8359.6c-5.2 0-11-.7-17.1-2.3-22.9-6.1-44.7-22.4-51.9-38.9-6.2-14.2-5.9-31.5.6-47.7 6.6-16.1 18.6-28.7 32.9-34.5 17.2-7 51.3.3 74.4 16.1 12.7 8.7 20.3 18.6 20.1 26.6-.2 21.1-21.7 61.9-39.5 75.3-4.8 3.6-11.5 5.4-19.5 5.4m-19.2-170.3c-11.7 0-22.9 1.8-33 5.9-25.2 10.2-46.1 31.7-57.1 58.8-11.1 27.2-11.2 57.1-.3 82 12.8 29.3 44.7 54.4 81.3 64 28.9 7.6 55.3 3.9 74.3-10.4 29-21.7 56.8-75.2 57.3-110 .3-23.6-13.7-46.2-39.4-63.8-22.1-15.1-53.9-26.5-83.1-26.5" style="fill:#211d1d;fill-opacity:1;fill-rule:nonzero;stroke:none" transform="matrix(.0137 0 0 -.0137 -94.193 226.768)"/><path d="M13563 8099.7c-88.8 15.4-180.2-65.2-178.9-155.3.9-65.8 104.6-148.3 169.6-137.4 47.4 7.9 94.6 43.4 117.2 85.9 43.4 81.7-19.1 191.4-107.9 206.8" style="fill:#7c161a;fill-opacity:1;fill-rule:nonzero;stroke:none" transform="matrix(.0137 0 0 -.0137 -94.193 226.768)"/><path d="M13540.7 8079.5c-29.5 0-59.7-11.7-85.1-33.4-31.4-26.8-49.9-64.7-49.4-101.3.3-23 19.3-53 49.6-78.2 32-26.7 69.8-41.9 94.2-37.8 39.9 6.7 81.6 37.3 101.3 74.5 16 30.1 15.4 67.5-1.8 102.5-18.6 38-53.2 65.7-90.3 72.1-6.1 1.1-12.3 1.6-18.5 1.6m.9-295.6c-40.8 0-84.6 24-114.1 48.7-40.5 33.8-65 75.5-65.5 111.5-.7 49.7 23.5 100.4 64.9 135.6 40.9 34.9 91.9 50.1 139.9 41.8 51.5-9 97.3-44.9 122.4-96.2 23.5-48 23.9-100 1.2-142.8-26.2-49.3-79.7-88.4-133.1-97.3-5.1-.9-10.4-1.3-15.7-1.3" style="fill:#211d1d;fill-opacity:1;fill-rule:nonzero;stroke:none" transform="matrix(.0137 0 0 -.0137 -94.193 226.768)"/><path d="M13763.8 7860.4c-56.2 10.3-115.1-31.6-134.3-85.4s2.5-119.3 50-151.1c51.8-34.7 120.4-27.7 181.4-14.5 51.2 11 108.9 31.8 125.7 81.4 16.1 47.6-13.9 106.1-60.6 125-39 15.8-120.8 37-162.2 44.6" style="fill:#7c161a;fill-opacity:1;fill-rule:nonzero;stroke:none" transform="matrix(.0137 0 0 -.0137 -94.193 226.768)"/><path d="M13746.7 7839.8c-39.5 0-81.5-30.5-96.4-72.2-15.7-44.2 2.5-99.2 41.4-125.3 46.9-31.3 112.6-22.5 164.6-11.3 62.9 13.5 98.7 35.4 109.3 66.9 11.9 35.3-11.3 82.6-47.9 97.4-35.6 14.5-115.5 35.6-157.9 43.4-4.3.7-8.7 1.1-13.1 1.1m27.8-263.4c-37.1 0-74.6 7.3-107.3 29.1-56 37.5-81.2 113.5-58.6 176.9 23.8 66.8 95.2 111.5 159.2 99.8 39.9-7.4 124.7-28.9 166.6-45.9 58.4-23.7 92.6-95 73.1-152.6-23.9-70.6-112.7-89.7-141.9-96-27.9-6-59.4-11.3-91.1-11.3" style="fill:#211d1d;fill-opacity:1;fill-rule:nonzero;stroke:none" transform="matrix(.0137 0 0 -.0137 -94.193 226.768)"/><path d="M14216.6 7955.6c-56.5 44.6-178.7-8.2-205.9-74.7-27.2-66.6 8-148.3 69.6-185.4 51-30.8 119.7-33.4 169.1-.2 49.3 33.2 65.4 100.5 46.5 156.9-14.2 42.5-52.9 82.6-79.3 103.4" style="fill:#371516;fill-opacity:1;fill-rule:nonzero;stroke:none" transform="matrix(.0137 0 0 -.0137 -94.193 226.768)"/><path d="M14162.6 7950c-10.3 0-21.5-1.5-33.4-4.7-44.3-11.6-85.6-42.3-98-72.8-22-53.8 5.1-124.7 60.5-158.1 45.4-27.4 105.2-27.7 145.3-.7 38.8 26 54.7 81.3 37.9 131.4-12.1 36.4-46.4 73-72 93.2-9.9 7.7-23.8 11.7-40.3 11.7m4.5-300.7c-33.7 0-68.1 9-98.2 27.2-34.6 20.9-62 53.7-77.3 92.6-15.9 40.6-16.4 83.3-1.4 120.1 17.9 43.8 69.2 83.5 127.7 98.9 45.1 11.9 85 6.5 112.4-15.1 31.8-25.1 71.3-68.2 86.6-113.8 23-68.6-.2-145.3-55.2-182.2-27.5-18.5-60.7-27.7-94.6-27.7" style="fill:#211d1d;fill-opacity:1;fill-rule:nonzero;stroke:none" transform="matrix(.0137 0 0 -.0137 -94.193 226.768)"/><path d="M13900.1 8044.1c-55.4 21-130.4 20.9-160.5-30.2-31.6-53.5 15-126.2 74.8-142.9 59.9-16.7 140.3-16 179.6 32.2 9.1 11.2 15.3 41.8 13.4 56.2-6 46.2-63.8 68.2-107.3 84.7" style="fill:#771549;fill-opacity:1;fill-rule:nonzero;stroke:none" transform="matrix(.0137 0 0 -.0137 -94.193 226.768)"/><path d="M13830.3 8035.2c-30.6 0-58.1-9.6-71.6-32.5-11.3-19.1-7.2-39.2-1.8-52.7 10.9-27 36.4-50.1 63.5-57.7 55.2-15.4 125-13.7 156.4 24.9 4.2 5.2 10 29.2 8.7 39.3-4.3 33.2-55.7 52.7-93.2 66.9-19.8 7.5-41.6 11.8-62 11.8m54.7-196.1c-26.8 0-53.4 4.2-76.5 10.6-40.3 11.2-76.6 44.1-92.6 83.8-12.9 32.1-11.3 64.7 4.7 91.7 36.6 62.1 122.8 64 187.3 39.6 45.3-17.2 113.7-43.1 121.4-102.6 2.3-17.4-3.8-55.4-18.2-73-30.1-36.9-78.4-50.1-126.1-50.1" style="fill:#211d1d;fill-opacity:1;fill-rule:nonzero;stroke:none" transform="matrix(.0137 0 0 -.0137 -94.193 226.768)"/><path d="M14299.7 8105c-28.4-51.9-38.6-126.2 7.8-163.1 48.6-38.6 127.1-2.6 151.9 54.4 24.7 57 35.2 136.8-7.2 182.3-9.8 10.6-39.3 20.9-53.8 21-46.6.5-76.3-53.7-98.7-94.6" style="fill:#771549;fill-opacity:1;fill-rule:nonzero;stroke:none" transform="matrix(.0137 0 0 -.0137 -94.193 226.768)"/><path d="M14397.9 8177.5c-33.3 0-59.6-48-78.8-83.1-25.3-46.2-32.7-107.5 2.1-135.1 17.4-13.8 37.8-12.5 52-9 28.2 7 54.7 29.1 65.9 54.9 22.9 52.6 30.8 121.9-3.1 158.4-4.7 4.9-27.3 13.8-37.8 13.9zm-42.9-273.8c-22.8 0-43.9 7.1-61.3 20.9-56.5 44.9-46.5 130.5-13.4 191.1 23.1 42.2 58 106.1 117.5 106.1h.8c17.6-.2 54.4-11.5 69.8-28.1 50.8-54.6 37.8-145.2 11.2-206.2-16.6-38.3-54.2-69.8-95.7-80.1-9.8-2.5-19.5-3.7-28.9-3.7" style="fill:#211d1d;fill-opacity:1;fill-rule:nonzero;stroke:none" transform="matrix(.0137 0 0 -.0137 -94.193 226.768)"/><path d="M13729.1 8302.5c-57.8-15.5-125.7-79.5-120.1-136.8 5.5-57.2 60.4-105.1 117.8-102.9 57.5 2.3 132.7 67.6 133.6 125.1 1.5 98.7-89.2 126-131.3 114.6" style="fill:#371516;fill-opacity:1;fill-rule:nonzero;stroke:none" transform="matrix(.0137 0 0 -.0137 -94.193 226.768)"/><path d="M13734.9 8281.2c-49.4-13.3-108.2-69.3-103.9-113.3 4.2-44.2 47.6-83 92-83h2.9c48.7 1.9 111.7 59.9 112.4 103.4.4 32.5-10.5 57.7-32.5 74.9-23 17.9-53.7 22.6-70.9 18m-12.1-240.6c-67.7 0-129.3 55.3-135.9 123-3.1 32.9 11.9 68.8 42.2 101.3 26.4 28.1 61.7 50.2 94.3 59 27.3 7.4 73.3 2.4 109.5-25.8 23.1-18 50.5-51.7 49.6-110.5-.5-33-19.7-69.1-52.8-99.3-31.3-28.5-69.4-46.3-102-47.6-1.6 0-3.3-.1-4.9-.1" style="fill:#211d1d;fill-opacity:1;fill-rule:nonzero;stroke:none" transform="matrix(.0137 0 0 -.0137 -94.193 226.768)"/><path d="M13753 8471.4c-31.4 45.4-119 42.5-162.4 3.8-43.3-38.8-43.3-117.5 2.9-152.8s129.7 2.1 170.9 43.1c25.6 25.5 3.4 84.5-11.4 105.9" style="fill:#771549;fill-opacity:1;fill-rule:nonzero;stroke:none" transform="matrix(.0137 0 0 -.0137 -94.193 226.768)"/><path d="M13675.8 8482.8c-26.5 0-53.6-9.1-70.4-24.1-16.5-14.7-25.7-38.3-24.7-63.2.8-23.2 10.4-43.4 26.2-55.5 34.7-26.5 107.2 6.7 141.9 41.2 12.5 12.5.1 57.2-14 77.6-8.6 12.4-24.8 20.7-45.8 23.2-4.4.5-8.8.8-13.2.8m-36.2-196.5c-23.1 0-43.4 6.2-59.5 18.5-26.3 20.1-42.2 52.6-43.6 89-1.5 37.9 13.3 74.5 39.4 97.9 29 25.9 75.4 39.3 118.3 34.2 33.8-4 61.1-18.9 77-42 15.6-22.6 46.7-96.3 8.8-134-24.3-24.2-58.9-45-92.5-55.6-16.8-5.4-32.9-8-47.9-8" style="fill:#211d1d;fill-opacity:1;fill-rule:nonzero;stroke:none" transform="matrix(.0137 0 0 -.0137 -94.193 226.768)"/><path d="M13903.7 8667.5c-24.1 37.1-111.3 36.8-145.9 9.1-46.7-37.4-45.3-119.5 2.3-155.7 47.6-36.3 116.6-10.3 151.8 38.1 26.6 36.4 8.4 83-8.2 108.5" style="fill:#371516;fill-opacity:1;fill-rule:nonzero;stroke:none" transform="matrix(.0137 0 0 -.0137 -94.193 226.768)"/><path d="M13828.9 8674.3c-22.8 0-45.6-5.6-57.3-14.9-16.5-13.3-26.2-35.9-25.9-60.4.3-24.9 10.7-47.5 27.8-60.5 17.1-13.1 36.2-13.6 49.1-11.7 26.6 3.9 54 21.2 71.4 45.2 22.8 31.3-3.3 75-8.8 83.4-5.3 8.1-18.8 14.6-36.3 17.4-6.4 1-13.2 1.5-20 1.5m-17.7-192.6c-23.8 0-45.8 7.3-64.5 21.6-27.8 21.2-44.7 56.7-45.2 95.1-.5 38.1 15.4 73.8 42.5 95.5 29.1 23.3 77.2 28.1 112 22.5 30.4-4.9 54-18 66.3-36.9 23.9-36.8 38.4-91.2 7.5-133.6-24.6-33.7-62.3-57.2-100.8-62.8-6-.9-11.9-1.4-17.8-1.4" style="fill:#211d1d;fill-opacity:1;fill-rule:nonzero;stroke:none" transform="matrix(.0137 0 0 -.0137 -94.193 226.768)"/><path d="M14058.8 8396.5c-26.1 83-136.4 132.2-207 58-43.4-45.6-51-122.5-12.8-172.6 38.2-50.2 116.2-64.7 169.2-30.6 46.5 29.8 67.1 92.5 50.6 145.2" style="fill:#7c161a;fill-opacity:1;fill-rule:nonzero;stroke:none" transform="matrix(.0137 0 0 -.0137 -94.193 226.768)"/><path d="M13933.7 8468.8c-24.5 0-47.4-10.1-65.9-29.6-37-38.8-42-103.4-11.2-143.9 31.4-41.2 96.6-53.1 139.7-25.4 37.5 24.1 55.3 75.7 41.4 120-11.6 36.9-44.8 67.6-82.5 76.4-7.3 1.6-14.5 2.5-21.5 2.5m8.9-258.1c-46.1 0-92.7 20.3-121.2 57.8-44.1 58-37.8 146.4 14.4 201.2 34.5 36.3 81.7 50.7 129.4 39.7 53.2-12.4 98.3-54.1 114.7-106.2 19.7-62.7-6-136-59.7-170.5-23.2-14.9-50.3-22-77.6-22" style="fill:#211d1d;fill-opacity:1;fill-rule:nonzero;stroke:none" transform="matrix(.0137 0 0 -.0137 -94.193 226.768)"/><path d="M14556.1 8186.9c22.7 8.2 36.2 31.5 32.2 55.3l-.1.7c-4.2 24.2-7.8 50.1-11 57.9-3.3 8-75.8 102.4-76.6 108.9-.9 6.5-1.6 15.5-1.5 25.1 0 19.4 4.2 41.7 13.1 53.2 0 0-.1-1.8-.2-4.5 0-2.6.1-6.1.3-9.5.4-7 2.1-13.5 4.6-12.5 0 0 2.3 3.3 6 8.5 3.7 5 9 12 14.9 19.2 11.6 14.4 26.1 30 34 36.5 0 0 6.2-8.8 12.7-18.5 6.7-9.8 13.8-20.5 12.7-26.6 0 0 44 44.8 55.8 57.4 11.6 12.6 27.4 26.3 42.9 33.5 5-8.7 10.8-17 17.1-24.9 0 0 93.1 49.4 91.7 43.5-1.4-6-3-12.8-4.6-15.3 0 0 58.4 30.2 76.9 41.8 18.7 11.7 36.6 22.2 30.7 15.5-5.6-6.8-13.5-16-20.6-26.3-14.9-20.1-82.3-127.6-77-136.2 5.4-8.6 103.5 110.1 104.8 109.5 0 0 56 63.1 64.3 70.6 0 0-10.2-19.9-4.7-20.8 1.3-.2 6.6 3.3 13.9 8.8 7.4 5.4 16.9 12.8 26.3 20.3 19.1 14.9 38.2 30.3 42.8 30.6 8.8.9-5.3-89.1.5-89.2s98.6 51 107.9 43.9c0 0-27.3-52.1-28.4-59.2-1-7.1-10.1-25.6 15.9-13.8 25.9 11.7 51.7 26.2 65.3 22.9 0 0-20.3-64.9-10.8-67.8 9.6-2.9 117.3-23.5 133.1-45.2 0 0-108.9-52-112.6-70.2-3.7-18.3 3.1-31.5 10.4-34.4 0 0-54.2 19.5-61.3-1.4-7.2-20.9 15.1-39.7 21.4-41 0 0-39.4-39.6-131 11.1-33 18.4-75.3 6.4-90.8-28-14.5-32.2-7.3-65.3 11.9-61.4 0 0 4.9-9-21.3-25s-35.2 5.9-39.8-12.6 22.9-44 46.2-33.7 98.8 78.2 116.7 73.7c0 0 5.2 0-1.4-13.4 0 0 97 47 124 24.6 0 0-21.3-25.9-33.6-33.2-12.2-7.4 37 27.1 77.2 19.1 0 0-15.8-18.7-27-28.5 0 0 60.4 1.1 95.3-17.6 0 0-.7-15.3-73.7-74.2 0 0 22.1-6.7 32.2-13.6 0 0-35.1-26.7-58.7-42.1l72.4-41.2s-2.6-3.6-6.8-9.2c-4.2-5.5-10.1-13.1-16.8-20.4-13.2-14.8-29.2-30.3-37.8-33.3 0 0 10.2-6.6 19.8-12.4 2.4-1.5 4.9-3 7-4.2 2.2-1.3 4.4-2.8 6.2-3.9 3.4-1.9 6.3-4.4 7.2-5.7 0 0-1.6-2.6-4.4-6.3s-6.8-8.6-11.4-13.5c-8.9-10.1-20.8-18.8-27-19.3 0 0 48.6-62.2 53.2-65.6 4.5-2.9 9.5-6.7 14.5-8.9 2.6-1.3 5.1-2.6 7.6-3.9 2.6-1 5.1-1.9 7.5-2.8 2.5-.8 4.9-1.8 7.2-2.5 2.2-.5 4.3-1 6.2-1.5 3.9-.9 7.1-1.7 8.9-2.3 0 0-2.3-3.7-7-10-1.3-1.6-2.6-3.3-4.1-5.2-1.6-1.7-3.3-3.4-5.2-5.3-3.9-3.7-8.4-8.3-13.8-11.8-5.4-3.9-11.5-8.1-18.1-11.3-3.3-1.6-6.7-3.3-10.3-5-3.5-1.5-7.1-2.7-10.7-4-3.7-1.2-7.5-2.5-11.2-3.5-3.6-.9-7.3-1.7-11-2.5-7.4-1.6-14.4-2.3-21-2.7 0 0 1.1-7.3 3.9-15.9 2.7-8.7 8.1-18.1 14.4-22.8 0 0-3.4-.7-9.4-1.6-6.2-1-14.2-1.6-23.8-1.9-9.8-.4-19.7.5-30.4 1.8-5.1.7-10 1.8-14.9 3-5 1.2-9.7 2.6-13.7 4.4 0 0-1-3.5-2.2-8.9-1.1-5.4-2.6-12.9-3.4-20.7-1.5-15.6-.6-33 6.8-39.3 0 0-3.5.4-9.9 1.4-6.3 1.1-15.7 2.9-25.9 5.6-21.3 5.5-47.4 15.2-70.6 29.1 0 0-.6-4.3-1.4-10.9-.7-6.6-1.7-15.5-1.9-24.9-.2-18.8.9-39.3 6.7-45.3 5.4-5.9-21.5 10.8-44.5 29.2-23.7 18.5-44.2 37.7-47.3 40.5-1.5 1.4-3.7 2.5-5.5 2.7s-3.8-.1-5.5-1c-3.6-1.8-6.6-5.9-6.7-12.8-.3-3.3.6-7.8 1.5-12.1.8-4.3 1.9-8.7 2.9-12.7 1-3.9 2.2-7.5 3-10 .9-2.6 1.5-4.1 1.5-4.1s-3.1 2.7-7.9 6.8c-2.2 2.1-4.8 4.4-7.7 7-2.7 2.6-6.1 5.7-8.2 7.8-9.5 9.7-19.5 20.4-21.3 24.8 0 0-5.6-24.5-11.7-51.1-1.6-6.6-3.2-13.4-4.7-19.9-1.6-6.6-3.5-12.6-4.1-18.9-1.8-12.3-3.4-22-4.7-26.1 0 0-1.3 1.1-3.8 3-2.3 1.9-5.6 4.5-9.7 7.7-6.3 5.2-14.7 12.4-23.5 20.4-17.4 16-35.8 35.2-39.7 47.8l-14.7-23.9s-21.2 45.2-21.5 74.5c0 0-18.8-12.9-20.4-26.6-1.7-13.6-18.2 38.6-9.6 87.4 8.7 48.7 19 89.1 8.3 98.2-10.6 9.1-18.5 24.7-24.7-7.4-6.3-32.1-9.2-37.8-9.2-37.8s-7.4 6.5-15.5 18 42.8-119.8 38.8-151.9c0 0 3.8-5.5-25.5-1.6-29.3 4 1.4-74.9 4.2-88.5l-17.9-9s11.1-72.8 7.9-91.4c0 0-23.2 9-32.4 13.4 0 0-12.4-23-18.9-29.5-6.4-6.5-90 112.9-90 112.9l-27.8-31.5s-5.8 53.7-7.8 67.5c-1.9 13.8-11.3 23.6-27.4 13.2-16.2-10.5-31.8-42.5-34-44.4-2.1-1.8-6.3 63.8-3.3 76.4 3.1 12.6 6.1 36.7-7.8 36.8s-47.2-49.2-56.3-46.6c-4.5 1.3-4 18.3-3.6 36.6.4 18.4-23.2 54.5-27.7 47.4-4.6-7.1-12.6 71.3-12.6 71.3s20 16.3 39.4 36.4c19.5 20.1 38.4 43.9 36.8 58.1-1.7 14.4-8.8 24.9-20.1 26.7-11.4 1.7-27.2-5.2-45.5-26.8-18.2-21.6-22.8-20.2-22.8-13.4s4.6 18.9 4.6 18.9-5.7-2.5-21.3-5.8c-15.7-3.2-41.2-7.6-82.7-8.3 0 0-.4 8.1-1.4 19.2-1 11.2-2.5 25.4-5.4 38.1-5.7 25.4-16.8 55.2-13.7 63.4 0 0-8 4.8-19.2 12.6-11.3 7.8-24.8 17.5-36.2 26.9 0 0 18.7 4.1 37.1 11.1 18.3 7 36.1 16.7 35.3 25.9-.8 9.1-11.7 21-24.1 32.1-12.5 11-26.4 21.4-34.2 26 0 0 14.3 2.5 31.5 5.9 17.2 3.6 37.4 7.7 49.5 10.2-3.2 6.9-6.2 14-9.1 21 12.7-1.5 25.3-2.8 37.9-3.7 0 0-6.2 10.2-14.1 22.3-8 12.1-17.6 26.1-25.9 33.1 0 0 4.4 1.8 13 3.4 8.8 1.6 21.5 2.9 38.5 2.6 3.2 4.1 7 13.6 7 13.6s9.6-3.9 20.3-6.9c10.8-3.1 22.9-5.2 27.7-3.1 9.8 4.3 11.3 16.8 11.3 16.8s14.7-12.5 31.4-26.1c16.5-13.6 35.5-28.9 40.9-37.9 5.5-9.1 15.7-16.9 25.4-22.6 9.6-5.6 18.8-9.2 22.7-10.5 4-1.4 27.9 7.1 52.1 16.1 5.4 1.9 10.7 3.9 15.9 5.8" style="fill:#67c985;fill-opacity:1;fill-rule:nonzero;stroke:none" transform="matrix(.0137 0 0 -.0137 -94.193 226.768)"/><path d="M14790.3 8593.4v-.1zm-70.1-801.4c1.9-5.7 3.7-11.3 5.5-16.8.4 2.1.8 4.3 1.2 6.4 3.8 20.2 9.5 50.1 7.7 59.3-4.2-21.6-7.9-36.1-10.3-40.9zm-341.7-65.4-.2-.4zm570.4-54.6.1-.1zm-385.7-69.1 10.7-15.4c26.8-38.3 59-81.7 75-100 3 4.7 6.2 10.3 8.9 15.2l6.6 12.3 12.7-6c2.7-1.3 6.9-3.1 11.4-5-1.3 19.3-4.8 47.3-7.9 67.4l-1.6 10.6 16.6 8.4-.3 1c-11.8 37.8-20.4 70.4-6.8 86.5 5.4 6.4 13.4 9.2 22.4 8 3.4-.5 6.1-.8 8.4-1-3.3 25.4-20.4 77.5-29.2 104.5-3 9.1-5.6 17-7.3 22.7-2.7 8.7-6.3 20.6 5.4 26.5 4.4 2.2 10.5 2.4 15.6-1.4.6 3 1.3 6.4 2 10.1 2.6 13.7 6.7 26.8 18.6 30.4 11.8 3.6 20.2-4.8 25.9-10.4 1.5-1.6 2.9-3 4.3-4.2 15.3-13 10-40.9 1.3-87-1.5-8-3.1-16.4-4.7-25-3.3-18.5-2.5-37.4-.6-52.1 3.5 3.1 6.4 5.2 7.7 6.1l22.8 15.7.3-27.7c.2-11.8 4.6-28 9.6-42l16.4 26.8 9.6-31.2c.9-2.8 6-14.1 35.6-41.3 5.2-4.8 11-9.9 17-14.9l.1.7c.5 5.5 1.8 10.5 3 15.3.4 1.7.9 3.4 1.3 5.2l4.8 20 22.2 97.2 17.3-43.6c.5-.7 2.3-3.3 8.2-9.8 1.1 10.1 6.4 18.4 14.6 22.4 4.3 2.2 9.1 3 13.9 2.4 4.8-.5 9.7-2.9 13.6-6.3.4-.4 1.2-1.1 2.3-2.2 6.6-6 24.2-22.1 44.2-37.7 4.8-3.8 9.6-7.5 14.2-10.8-.2 4.6-.3 9.8-.2 15.5.1 9 1 17.1 1.7 23.7l.3 2.9 4.2 33.1 19.3-11.5c19.3-11.4 43.6-21.4 66.8-27.4 3.5-1 7-1.8 10.2-2.5-.5 6.5-.4 13.8.5 22 .7 8.6 2.5 16.8 3.6 22.2 1.3 5.8 2.3 9.6 2.3 9.8l4.5 16.4 15.6-6.7c3-1.4 6.9-2.6 11.4-3.7 4.8-1.2 9.1-2.1 13.4-2.7 11.8-1.5 20.2-1.9 27.9-1.6 2.7 0 5.3.1 7.7.3-.9 2.2-1.7 4.4-2.4 6.8-3.2 9.6-4.4 17.8-4.5 18.1l-2.3 15.9 16 1c5 .3 11.7.9 18.8 2.5 3.6.7 7 1.4 10.5 2.3 2.9.8 6.1 1.9 9.2 2.9l2.1.7c2.9 1.1 5.7 2 8.2 3.1 3.3 1.5 6.5 3.1 9.6 4.7l.4.2c5.4 2.5 10.5 6.1 15.8 9.9l.4.2c3.8 2.6 7.3 5.9 10.7 9.2l1 1 1.6 1.5h-.1l-2.1.8-2.7 1-6.5 2.5-7.5 3.8c-4.8 2.3-9.2 5.3-13.2 7.9-1 .7-2 1.4-2.9 2l-.7.5c-1.8 1.3-6.2 4.5-56 68.4l-17 21.7 26.9 2c2.8 1 10.6 6.3 17.7 14.4l.2.2c2.1 2.3 4.1 4.5 5.8 6.6-2.1 1.2-4.2 2.5-6.3 3.8l-1 .6c-9.7 5.8-19.7 12.4-20.2 12.6l-25.1 16.5 28.4 9.8c3.2 1.3 14.7 10.3 31.6 29.2 4.7 5.2 8.9 10.3 12.8 15.4-15.4 8.8-40.3 22.9-57.8 32.8l-21.1 11.9 20.3 13.3c11.6 7.5 26.3 18.1 38 26.7-2.9 1-5.6 1.9-7.8 2.5l-26.5 8.2 21.6 17.4c35.3 28.5 52.7 46 61.1 55.8-26 8.5-60.2 10-73.2 9.7l-40.3-.7 30.3 26.6.3.3c-12.4-3.5-23.4-8.8-29.5-12.2-1.3-.9-2.5-1.8-3.7-2.5-9.4-5.6-15.8-2.6-19.5.9l-8.1 7.6 5 9.9c1.6 3 5.5 6.1 10.4 9 2.9 2.3 6.6 5.7 10.3 9.6-8.7-.7-21.5-3.1-39.7-9-26.3-8.6-49.7-19.9-50-20l-38.5-18.7 9 18.5c-13.2-8.8-28.6-20.4-39.1-28.2-19.6-14.7-36.5-27.4-47.1-32.1-15.9-7-35-3.6-49.8 8.9-13.8 11.7-20.3 27.7-16.7 41.8 5.6 22.6 22.8 19.4 28.5 18.3 5-1 9.4-1.8 17.9 3.4q4.35 2.7 7.2 4.8c-1.1 1-2.2 2.2-3.1 3.4-12.3 15.4-12.5 44.9-.4 71.7 8.8 19.6 25.1 34.3 45.8 41.1 21.6 7.2 45.5 4.9 65.6-6.3 49.1-27.2 80.5-26.3 97.6-21.4q-2.85 3.6-5.1 7.5c-6.7 11.7-8.1 24.1-4.1 35.7 2.4 7 7.3 12.4 14.3 15.7 9.7 4.7 22.7 4.6 34.8 2.8-.2 4.8.2 9.9 1.3 15.4 1.9 9.2 8.4 20.7 65 51.9 11.4 6.3 22.6 12.2 32 16.9-6.7 2.8-15.7 6-27.9 9.7-24.1 7.2-50.3 13.1-65.9 16.6-7.9 1.8-11.4 2.6-13.5 3.3-4.4 1.3-8 4.4-10.3 8.6-1.7 3.3-6.5 12.4 4.6 54.5-8-3.2-17-7.5-23.8-10.7-4.8-2.3-9.7-4.6-14.6-6.9-6.4-2.9-21.4-9.7-32.2-.6-9.9 8.4-6.6 21.3-5 27.6l.6 2.5c.3 1.8 1 6.6 14.5 33.7-15.6-6.9-34-15.8-44.4-20.9-26.4-12.9-30-14.5-35.2-14.5-4.3.1-8.3 2-11.2 5.1-6 6.6-5.7 14.3-3 49.1.6 6.9 1.3 16.1 1.7 24.4-5.2-4-10.8-8.4-15.7-12.3l-5.8-4.5c-11.6-9.3-20.1-15.8-26.7-20.6-12.9-9.7-18-12.6-24.9-11.5l-.3.1c-1.5.2-3 .7-4.3 1.4-13.3-14.6-29.8-33.1-41.7-46.5l-7.8-8.8-.2.2c-3.2-3.7-7.1-8.2-11-12.7-78.2-90.2-86-94.5-97.2-93.5-5 .4-9.5 3.1-12.1 7.4-5.2 8.4-6.4 16.3 30.7 79 10 16.8 20.6 33.9 29.5 47.8-22.7-12.4-49.3-26.2-50.9-27l-48.6-25.1 15.9 24.9c-16.3-8.1-36.3-18.3-54.3-27.9l-10.9-5.7-7.6 9.6c-3.7 4.7-7.2 9.4-10.5 14.2-8.9-6-18.5-14.3-27-23.7-11.9-12.7-54.4-55.9-56.2-57.8l-32.8-33.5 7.6 45.1c-1.2 3.9-7.4 13.1-10.2 17.1-.9 1.4-1.9 2.8-2.8 4.2-6.2-6.6-13.5-14.8-20.2-23.1-5.1-6.3-10.4-13.1-14.5-18.7l-8.4-11.7-3.7-1.6c-2.7-1.1-5.5-1.5-8.3-1.2q-.6-5.85-.6-12c0-7.3.4-14.8 1.1-21 4.7-8 26.4-37.6 41-57.5 26.2-35.7 33-45.3 34.9-49.9 2.9-7.1 5.1-20.2 8.9-42.8.9-5.9 1.9-12.1 3-18.2l.1-.8c5.2-30.8-12.3-61-41.7-71.6-4.1-1.4-8.3-3-12.6-4.6l-3.2-1.2c-46.2-17.1-54.5-18.8-62-16.1-2.3.8-13.1 4.6-25.3 11.6-9.8 5.8-22.9 15.2-30.6 27.8-3.7 6.1-22 21.2-34 31.1l-3.7 3c-6.2 5.1-12.2 10.1-17.3 14.3-2.6-2.7-5.9-5.2-10-7-3.1-1.4-11.4-5.1-37.7 2.3-3.1.8-6.1 1.8-8.8 2.7-.9-1.5-1.8-2.9-2.7-4.1l-4.5-6-7.5.1c-9.7.2-17.5-.1-23.7-.7 3.6-5 7.1-10.2 10.6-15.4 8-12.3 14.2-22.4 14.4-22.8l14.8-24.5-28.5 2.1c-4.3.3-8.7.7-13.2 1.1l6.6-14.4-66.1-13.6c2.7-2.2 5.4-4.5 8-6.7 19-17 27.9-29.9 29-41.9 1.4-15.9-12.9-28.9-44.8-41-3.3-1.2-6.6-2.4-9.9-3.5 3.9-2.8 8-5.6 12.2-8.5 10.6-7.5 18.3-12.1 18.4-12.2l10.4-6.3-3.8-10.4c0-4.8 3.9-18.7 6.8-29 2.5-8.8 5.1-18 7.1-27 3-13.4 4.5-27.7 5.7-40 .2-1.9.3-3.7.4-5.4 32.2 1.3 52.8 4.8 66 7.6 13.3 2.7 18.5 4.8 18.6 4.9l32.5 14.3-2.6-6.7c17.5 14.3 31.9 16.2 41.7 14.6 17.6-2.7 30-17.8 32.6-39.5 1.1-10.8-1.8-29.7-40.9-70-13.4-13.9-26.9-25.9-34.5-32.4 2.1-19.7 5-40.8 7.1-51.7 15.6-8.5 32.9-42.9 32.4-61.1v-1.2c-.1-2.3-.1-5-.2-7.7 1.1 1.2 2.1 2.2 3 3.2 17.7 19 29.3 30.7 42.3 30.7h.2c7.5 0 14-3.2 18.5-9 9.3-11.8 7.1-31.5 3.6-46-.9-4-.9-16.8-.3-30.3 4.6 5.6 9.7 10.6 15.1 14.1 14.1 9.2 25.1 7.4 31.8 4.4 9.8-4.5 16.5-14.6 18.3-27.8.9-6.4 2.6-20.9 4.2-34.9zm87.9-151.7-1.3.1c-7.4.6-13.3 1.1-59.2 62.8-11.3 15.1-22.3 30.4-30 41.3l-37.6-42.6-3.6 33.2c-.1.5-5.9 53.7-7.8 67.1-.3 2.3-.9 3.8-1.3 4.6-.7-.2-1.9-.7-3.5-1.8-9.3-6-20.6-25.2-25.4-33.4-3.3-5.6-4.6-7.7-7-9.7l-8.1-7-9.3 5.5c-6.6 4.1-8.6 7-10.6 45.9-.8 16.4-1.3 37.7.8 46.5 1.3 5.5 2 10.3 2.1 14.1-5.3-4.9-12.1-12.2-16.4-16.8-16.5-17.7-26.5-28.4-39.5-24.7-15.4 4.4-15 21.6-14.4 50v1.2c.2 7.9-8.6 24.6-14.3 31.8-.9 0-1.8.2-2.7.4-11.5 2.7-14 12.2-18.9 48.6-2.4 17.9-4.2 35.3-4.3 36l-.8 7.9 6.2 5c.2.2 19.6 16.1 38.1 35.3 27.7 28.6 33 43 32.8 46.2-.8 6.1-3.2 13-7.8 13.7-5.5.9-17.1-4.3-31.9-21.7-12.7-14.9-24.2-26.9-37.4-22.1-2.6 1-10.8 4.9-11.4 16.7-16.3-3.3-42.5-7.7-84.5-8.4l-14.3-.2-.7 14.2c0 .1-.4 8-1.3 18.6-1 11.3-2.5 24.5-5.1 36.3-1.8 8.1-4.3 17-6.7 25.5-4.1 14.8-6.9 25.1-7.7 33.1-3.4 2.1-7.7 5-12.6 8.4-14.5 10.1-27 19.4-37.1 27.6l-23.5 19.4 29.8 6.4c.1.1 17.9 4 34.9 10.5 14.7 5.5 22 10.3 25.1 12.9-1.6 2.9-6.1 9.3-18.4 20.3-12.2 10.7-25.3 20.4-31.9 24.3l-34.1 20.2 39 7c.2 0 14.4 2.5 31.2 5.9l31.6 6.5c-.4.9-.8 1.8-1.2 2.8l-10.5 25.1 25.1-3c2.6-.4 5.1-.6 7.6-.9-5.7 8.5-14.4 21.2-20.9 26.6l-18.8 15.7 22.7 9.3c.9.4 6.3 2.4 16 4.2 6.7 1.3 17.4 2.7 32.5 2.8.7 1.5 1.3 3 1.9 4.4l5.5 13.6 13.6-5.4c.1-.1 9.1-3.6 19-6.5 9.2-2.5 15.6-3.3 18.2-3.3.9.9 1.8 3.2 2.1 4.9l2.4 28.4 21.7-19.1c.2-.2 14.8-12.6 31.2-26l3.7-3c20.7-17 34.7-28.9 40.5-38.7 3.4-5.6 10.8-12 20.2-17.5 7.4-4.3 14.2-7.1 17.7-8.4 8.6 1.8 35.4 11.7 44.6 15.1l3.2 1.2c4.4 1.6 8.6 3.2 12.8 4.7 16 5.7 25.5 22.1 22.7 38.9l-.2.8c-1 6-2.1 12.3-3 18.3-2.3 13.9-5.2 31.1-6.9 36.1-2.8 4.8-18.8 26.5-31.6 44-43.3 58.9-45.4 63-46.1 68.9-1.1 7.9-1.7 17.7-1.7 27.1 0 9.6 1.2 42.7 16.3 62.1l28.5 36.7-1.6-33.7c11.7 14.3 26.1 29.8 34.8 37l12.3 10.3 9.2-13.1c.3-.3 6.4-9 13-18.8 2-3 3.9-5.8 5.6-8.5 13.8 14.1 32.8 33.6 39.8 41.1 7 7.7 25.9 26.8 47.5 36.9l12.2 5.7 6.8-11.7c2.6-4.5 5.4-8.9 8.5-13.4 8.6 4.5 21.1 11 33.6 17.3 13.2 6.6 23.9 11.8 31.8 15.4 13.7 6.2 22.7 10.3 31 3.9q1.35-1.05 2.4-2.4c18.3 9.7 42.6 22.8 53.1 29.4 9.5 5.9 16.7 10.2 22 13.2 8.6 4.8 20.3 11.5 28.9 1.3.9-1 8.2-10.3-1.1-21l-2.5-3.1c-5.1-6.2-11.5-13.9-17.2-22.1l-.3-.3c-7-9.5-20.3-30.1-33.7-52.1 7.7 8.8 14.6 16.7 19.4 22.3 5.6 6.4 10.3 11.9 13.7 15.7 1.7 2 3.6 4 5.5 5.8 9.5 10.7 57 64.2 65.6 71.9l59.4 53.4-22.6-44 5.2 4c29.3 23 37.1 28.6 44.9 29.2 4.6.4 9.1-1.2 12.5-4.5 7.7-7.5 7.6-18.5 4.2-62.3-.3-4.6-.7-9.9-1.1-14.9 2.7 1.3 5.5 2.7 8.2 4 68.4 33.4 83.4 38.1 94.8 29.4l9.8-7.6-5.7-11c-9.4-17.9-20-38.9-24.7-49.5 2.4 1.2 4.8 2.3 7.2 3.4 23.9 11.4 44.6 21.2 60.8 17.2l15.1-3.8-4.6-14.9c-6.1-19.6-11.1-40.6-12.4-51.3 1-.2 2.1-.4 3.2-.7 81.3-18.3 117.6-31.8 129.3-48l10.4-14.3-16-7.6c-44.8-21.4-96.7-50.7-104.7-61.2-1.8-10.5 1.6-16 2.5-16.9l-.8.5-10.5-27.6c-16.7 6-36.8 9.1-42.7 6.7-2.1-9 8.2-18.9 11.9-21l25.6-5.4-19.2-19.2c-1.9-2-48.5-46.9-148.6 8.6-12.9 7.2-28.2 8.7-42 4.1-12.8-4.2-22.8-13.2-28.2-25.3-8.9-19.8-6.9-36.5-3.8-40.7l9.9 1.9 5.3-9.5c3.4-6.4 7.8-23.6-26.7-44.6-13.5-8.3-24.4-9-32.1-8.2 1.2-2.3 3.1-5 6.1-7.5 4.8-4.1 12.3-7.4 18.9-4.5 7.5 3.3 24.7 16.2 41.4 28.7 45.6 34.2 67.8 49.1 83.7 46 3.9-.6 7.4-2.6 10-5.6 9.3 3.8 21 8.4 33.4 12.4 42.4 13.7 70.6 14.1 86.1 1.2l11.3-9.4-.6-.6q14.1 1.5 26.4-.9l24.5-4.9-16.1-19.1c-.3-.3-2.2-2.5-5.1-5.8 21.4-2.1 48.8-6.9 69.1-17.9l8.2-4.4-.5-9.2c-.5-12.6-20.5-35.6-59.4-68.7 4.2-1.9 8.3-4 11.5-6.2l17-11.5-16.4-12.5c-1-.8-20.2-15.3-39.7-29.1 53.5-30.2 53.7-30.5 55.6-32.7l7.9-9-14-18.7c-5.3-7-11-14.2-17.7-21.5-6.5-7.3-14.4-15.6-22.2-22.6l.8-.5 1.4-.9c1.9-1.2 3.8-2.3 5.2-3.1l.3-.1 4.8-3 1.6-1c2.7-1.6 8.6-5.4 11.8-10.1l5.3-7.8-4.8-8.1c-.3-.3-2.2-3.4-5.4-7.7-2.7-3.5-7-8.9-12.1-14.4-1.4-1.6-7.6-8.3-15.4-14.2 17.9-22.9 35.4-44.6 39.8-49.2l2.2-1.5c3.2-2.1 6.5-4.4 9.2-5.6l.5-.3 6.9-3.5 6.6-2.4 2.4-.9c1.3-.4 2.6-.9 3.5-1.2l6-1.4c4.7-1.2 7.8-2 10.1-2.8l17.7-6-9.9-15.8c-.3-.4-2.8-4.4-7.8-11l-.1-.2-4.9-6.1c-1.6-1.7-3.4-3.5-5.7-5.8l-1.2-1.1c-3.8-3.8-8.6-8.4-14.5-12.4-6.1-4.3-12.6-8.8-19.9-12.3-3.5-1.8-7.1-3.5-10.7-5.1l-.3-.2c-3.6-1.5-7-2.7-10.3-3.9l-2.4-.8c-3.7-1.2-7.4-2.5-11.3-3.5l-.3-.1c-3.9-1-7.8-1.8-11.6-2.6-1.8-.4-3.7-.8-5.5-1.1 2.2-6.6 6.1-12.1 8.7-14l26.5-19.6-32.3-6.7c-.1 0-3.9-.8-10.3-1.8-6.7-1.1-15.3-1.8-25.5-2-11.6-.5-23 .7-32.6 1.8l-.4.1c-5 .7-10.1 1.8-15.5 3.1-.7-3.7-1.4-7.9-1.8-12-1.6-16.1.5-25 1.9-27l36.9-31.3-48.4 5.6c-.1 0-4 .5-10.6 1.6s-16.5 2.9-27.4 5.9c-11.6 3-32.1 9.2-54.5 20-.4-4-.6-8.3-.7-12.7-.4-26.4 2.4-34.1 3.1-35.5 6.5-7.4 4.8-16 .2-20.8-9.3-10-20.3-2.8-34.1 6.4-10.2 6.7-21.5 14.9-31 22.5-16.6 12.9-31.5 26.1-40.3 34.1l.2-1.5.2-1c.7-3.5 1.7-7.5 2.8-11.8.8-3.4 1.8-6.4 2.7-8.9l19.6-56.4-53.2 46.4-5.6 5.2c-2.6 2.3-5.5 5-7.7 7.3l-2.9 2.9-5.1-22.3-4.8-20.1c-.4-1.8-.9-3.8-1.4-5.7-1.1-4.2-2-7.8-2.3-11.1l-.1-.8c-2.4-16.2-3.8-23.9-5.3-28.4l-6.5-19.9-30.4 23.8c-8.5 7-16.6 14.1-24 20.9-13.8 12.6-23.2 22.6-29.7 30.5l-16.5-26.9-11.6 24.8c-.6 1.3-10.1 21.6-16.6 44.5-2.3-3.5-5.3-5.3-7.3-6.1-5.2-2.1-11.1-1.2-15.6 2.4-.8.7-1.7 1.6-2.5 2.6-5.8-.8-13-.5-22 .6-.5-8.6 3.7-27.4 12.5-56 2.1-6.5 3.5-11.2 4.2-14.4l2.3-11-18.6-9.4c3.2-22.7 9.2-69 6.3-85.5l-3-17.8-16.8 6.5c-.7.3-11.1 4.3-20.8 8.4-4.5-7.7-10.3-16.6-14.7-21.1-3-3-7-4.6-11.2-4.6" style="fill:#211d1d;fill-opacity:1;fill-rule:nonzero;stroke:none" transform="matrix(.0137 0 0 -.0137 -94.193 226.768)"/><path d="M14586.8 8180.1c-3 0-6.1.9-8.7 2.9-6.6 4.8-8 14-3.1 20.6 28 38 140.2 157.4 254.2 206.3 177.3 76.1 372.8 87.2 381 87.7 8.1.4 15.1-5.8 15.5-14 .4-8.1-5.8-15-13.9-15.5-2-.1-198.6-11.4-371-85.3-107-45.9-216.4-161.9-242.1-196.7-2.9-3.9-7.4-6-11.9-6" style="fill:#211d1d;fill-opacity:1;fill-rule:nonzero;stroke:none" transform="matrix(.0137 0 0 -.0137 -94.193 226.768)"/><path d="M14614.7 7656.7c-5.9 0-11.6 3.7-13.8 9.6-1.9 5.3-48.1 130.6-65.4 226.6-17.7 98 34.8 297.3 37.1 305.7l3.3 12.7 13-1.9c8.1-1.1 198.6-28.9 280.1-96.4 26.7-22.2 53.9-55.9 82.7-91.6 60.2-74.7 128.5-159.3 223.3-184.9 7.9-2.1 12.6-10.2 10.4-18.1-2.1-7.8-10.2-12.5-18-10.4-104.1 28.2-178.7 120.6-238.6 194.9-27.9 34.5-54.2 67.1-78.6 87.4-63.5 52.6-208.2 80.4-252.4 87.9-11.3-45.9-47.4-202.1-33.3-280 16.9-93.5 63.6-220.4 64.1-221.7 2.8-7.6-1.1-16.1-8.7-18.9-1.7-.6-3.5-.9-5.2-.9" style="fill:#211d1d;fill-opacity:1;fill-rule:nonzero;stroke:none" transform="matrix(.0137 0 0 -.0137 -94.193 226.768)"/><path d="M14295.6 7939.1c-2.5 0-5 .6-7.4 2-7 4.1-9.4 13.1-5.3 20.1 36 61.9 69.4 114.3 114.9 129.8 103.1 35 177.5 113.2 178.3 114 5.6 5.9 14.9 6.2 20.8.6s6.2-14.9.7-20.8c-3.2-3.5-80-84.3-190.3-121.8-35.8-12.1-67.2-62.1-98.9-116.6-2.8-4.7-7.7-7.3-12.8-7.3m377.2 342.7c-7.5 0-13.9 5.7-14.6 13.3-10.2 103.1 36.9 181.6 38.9 184.8 4.3 7 13.3 9.2 20.3 4.9 6.9-4.2 9.1-13.3 4.9-20.2-.5-.8-44-73.7-34.8-166.6.8-8.1-5.1-15.3-13.2-16.1zm201.5-435.4c-6.2 0-12 4-14 10.2-25.9 80.9 22.9 201.2 25 206.3 3.1 7.5 11.7 11.1 19.2 8s11.1-11.7 8-19.2c-.4-1.2-46.8-115.5-24.1-186.1 2.5-7.7-1.8-16-9.6-18.5-1.5-.5-3-.7-4.5-.7m223.6 162.6c-2.2 0-4.4.5-6.5 1.6-73.5 36.4-153.5.2-154.3-.2-7.4-3.4-16.2-.2-19.6 7.1-3.4 7.4-.3 16.2 7.1 19.6 3.8 1.8 93.4 42.8 179.9-.1 7.3-3.7 10.3-12.5 6.7-19.8-2.6-5.2-7.8-8.2-13.3-8.2m-447.2-90.6c-5.6 0-11 3.3-13.5 8.7-22.7 51.2-90 102.3-90.7 102.8-6.5 4.9-7.8 14.1-2.9 20.6s14.1 7.8 20.7 2.9c3-2.2 74.1-56.2 99.9-114.3 3.3-7.4-.1-16.1-7.5-19.4-1.9-.9-4-1.3-6-1.3m-199-143.8-1 .1c-8.1.5-14.3 7.5-13.7 15.6 5.5 85.2 104.3 117.9 108.5 119.3 7.7 2.5 16-1.8 18.5-9.5 2.5-7.8-1.8-16.1-9.5-18.6-.9-.3-83.9-28-88.1-93.1-.5-7.8-7-13.8-14.7-13.8" style="fill:#211d1d;fill-opacity:1;fill-rule:nonzero;stroke:none" transform="matrix(.0137 0 0 -.0137 -94.193 226.768)"/><path d="M14451.7 8082.9c-2.3 0-4.6.5-6.8 1.6-1.5.8-38.2 19.8-76.3 52.5-6.1 5.3-6.8 14.6-1.5 20.8 5.3 6.1 14.6 6.8 20.8 1.5 35.2-30.3 70.2-48.4 70.5-48.6 7.2-3.7 10.1-12.6 6.4-19.8-2.6-5.1-7.8-8-13.1-8m371.8 202.4c-50.2 0-94.3 8-96.9 8.5-8 1.5-13.2 9.2-11.7 17.2 1.4 8 9.1 13.3 17.1 11.8.9-.1 84.7-15.5 148.4-3.4 8 1.5 15.7-3.7 17.3-11.7 1.5-8-3.8-15.7-11.8-17.2-20.2-3.9-41.8-5.2-62.4-5.2m92.3 126.4c-7.1 0-13.4 5.2-14.5 12.5-5 32.8 13.9 69.5 56.1 108.9 29.7 27.8 60.2 46.8 61.5 47.6 7 4.3 16 2.2 20.3-4.8 4.3-6.9 2.2-16-4.7-20.3-31.4-19.4-111.1-80.1-104.1-127 1.2-8.1-4.3-15.6-12.4-16.8z" style="fill:#211d1d;fill-opacity:1;fill-rule:nonzero;stroke:none" transform="matrix(.0137 0 0 -.0137 -94.193 226.768)"/><path d="m13519.4 15497.9-7.8-1963.4c-.2-49.2 234.8-277.5 726.3-277.5 378.4 0 636.5 183.9 636.5 234.6v2020.7c0 59.9-48.9 108.1-108.7 107.3l-1140.4-14.9c-58.6-.7-105.7-48.3-105.9-106.8" style="fill:#7c161a;fill-opacity:1;fill-rule:nonzero;stroke:none" transform="matrix(.0137 0 0 -.0137 -94.193 226.768)"/><path d="M13539.6 13535.5c4.1-15.5 53.4-77.4 173.6-138.5 100.5-51.1 273.1-112 524.7-112 195.1 0 345.2 49.1 436.7 90.4 116.8 52.5 166.6 104.4 171.8 117.7v2019.2c0 21.4-8.4 41.5-23.6 56.5s-35.5 23.1-56.8 22.8l-1140.4-14.9c-42.9-.5-78-36-78.2-78.9zm698.3-306.5c-171.3 0-327.5 26.9-464.3 79.9-100 38.7-188.9 92.7-244 148-30.6 30.8-46.1 57-46 77.8l7.7 1963.3c.2 35.7 14.1 69.3 39.3 94.7 25.1 25.4 58.6 39.6 94.3 40l1140.4 14.9c36.5.5 70.9-13.3 96.8-39 26-25.6 40.3-59.8 40.3-96.3v-2020.7c0-8.4 0-34-56.6-79.8-35.1-28.4-82.1-56.7-135.9-81.9-139.1-65.1-306.7-100.9-472-100.9" style="fill:#231f20;fill-opacity:1;fill-rule:nonzero;stroke:none" transform="matrix(.0137 0 0 -.0137 -94.193 226.768)"/><path d="M13718 13566.3c-1.2 0-2.3 0-3.5.1-168.2 4.4-132.8 292.1-132.8 292.1v1363c73.7-34.4 165.5-58.1 273.5-74l-7.9-1315.6s21.8-265.6-129.3-265.6" style="fill:#b36770;fill-opacity:1;fill-rule:nonzero;stroke:none" transform="matrix(.0137 0 0 -.0137 -94.193 226.768)"/><path d="M14940.6 15795.2v-323.6c0-50.6 0-208.9-93.2-246.4-101.7-40.8-362.5-110.8-618.1-105-131.9 2.9-251.2 10.3-355.8 24.7-126.3 17.3-231.5 44.7-312.3 86.7-6.9 3.5-13.7 7.2-20.2 11.1-95.5 55.4-95.8 222.7-95.5 271.9l8.5 266.2c.3 56.9 49.1 103.3 110.6 106.5 1.8.2 3.7.3 5.6.3l314.2 3.7 937 11.2c65.6.8 119.2-47.4 119.2-107.3" style="fill:#7c161a;fill-opacity:1;fill-rule:nonzero;stroke:none" transform="matrix(.0137 0 0 -.0137 -94.193 226.768)"/><path d="M13873.5 15144.9c-6.2.9-12.3 1.7-18.3 2.6-108 15.9-199.8 39.6-273.5 74-7 3.3-13.8 6.6-20.5 10.1 1 25.6 3.4 42.4 3.4 42.4v527.7l322.9-61.9-10.5-492.3s4.7-47.7-3.5-102.6" style="fill:#b36770;fill-opacity:1;fill-rule:nonzero;stroke:none" transform="matrix(.0137 0 0 -.0137 -94.193 226.768)"/><path d="M13454 15780.8h.1zm12.3-266.5c-.8-168.3 45.8-230.8 85.1-253.6 129.6-75.2 338.8-112.1 678.4-119.8 244.4-5.5 498.7 59 609.9 103.7 33 13.3 56.3 48.1 69.1 103.6 11.1 48.3 11.1 99.1 11.1 123.5v323.5c0 21.4-8.9 42-25 57.9-18.4 18.2-44.6 28.6-72 28.6h-1.3l-1251.1-14.9c-52.5-.6-95.4-39.3-95.7-86.1v-.6zm792.8-415.3q-15.15 0-30.3.3c-346.9 7.8-562.3 46.5-698.3 125.4-71 41.2-106.6 138.8-105.8 290.1v.5l8.5 265.9c.3 34 14.8 66 40.9 90 25.6 23.6 59.7 36.8 95.9 37.2l1251.1 14.9h1.8c38.3 0 75.1-14.7 101.2-40.6 24.1-23.8 37.4-54.8 37.4-87.5v-323.5c0-55.2 0-223-106.3-265.7-109.8-44.1-354.8-107-596.1-107" style="fill:#231f20;fill-opacity:1;fill-rule:nonzero;stroke:none" transform="matrix(.0137 0 0 -.0137 -94.193 226.768)"/><path d="M14940.7 15836.3c0-74-146.7-133.6-349.1-171-114.8-21.2-250.5-31.7-397.3-31.7s-282.3 12.1-397 33.3c-202.5 37.4-334.9 95.4-334.9 169.4s131.2 138.8 333.6 176.2c114.8 21.2 251.5 33 398.3 33s283.8-10.3 398.5-31.5c202.4-37.4 347.9-103.7 347.9-177.7" style="fill:#9c3e48;fill-opacity:1;fill-rule:nonzero;stroke:none" transform="matrix(.0137 0 0 -.0137 -94.193 226.768)"/><path d="M14194.3 16021.1c-142.3 0-278.5-11.3-393.9-32.6-98.5-18.2-180.1-43.1-235.9-72-50.1-26-77.7-54.5-77.7-80.2 0-32 42.3-59.3 77.8-76.5 55.2-26.9 135-50.1 237.1-69 116.4-21.5 252.2-32.8 392.6-32.8 148.2 0 280.4 10.5 392.8 31.3 243 44.8 329.2 107.2 329.2 147 0 44.9-102.6 112.2-327.9 153.8-109.9 20.3-246.2 31-394.1 31m0-411.9c-143.3 0-282.1 11.7-401.5 33.7-235.4 43.5-354.7 108.6-354.7 193.4 0 46.1 35 87.6 104 123.4 60 31.1 146.3 57.7 249.5 76.7 118.3 21.9 257.5 33.4 402.7 33.4 150.8 0 290.2-11 402.9-31.8 110.6-20.4 367.8-81 367.8-201.7 0-45.7-37.9-86.5-112.7-121.3-62.2-29-148.5-53.7-256.3-73.7-115.4-21.3-250.5-32.1-401.7-32.1" style="fill:#211d1d;fill-opacity:1;fill-rule:nonzero;stroke:none" transform="matrix(.0137 0 0 -.0137 -94.193 226.768)"/></svg>