<svg xmlns="http://www.w3.org/2000/svg" xml:space="preserve" width="200mm" height="200mm" viewBox="0 0 200 200"><g style="display:inline"><path d="m27490.8 29992.6.5 1.3c-116 303.4-161.6 586.3-174.4 927.5-33.1 875.1-50.3 1726.2-38.9 2587.9 4.2 313.9 32.4 553.8-53 850.8l-.6.6c-419.1 120-1422.4 130.9-1836.5-7.7l-.5-.7c-69.6-346.5-81.3-744.4-70.4-1087.5 26-831 37.1-1596.9-12.5-2431.1-14.5-242.5-39.5-458.6-101-671.2l.4-1.1c327.1-150.4 793.6-309.3 1318-317.6 312.2-4.9 649.6 58.2 968.9 148.8" style="fill:#ecf9f7;fill-opacity:1;fill-rule:nonzero;stroke:none" transform="matrix(.00727 0 0 -.00727 -91.355 278.907)"/><path d="M28512.3 28833.4c-356.6 242.4-650.2 407.3-867.7 823.3-61.1 116.9-111.2 227.5-152.6 335.5l-.9.5c-319.4-90.7-656.9-153.8-969.2-148.9-524.4 8.3-990.9 167.2-1317.9 317.6l-1-.6c-53.6-184.9-134.8-367.1-261.8-561.4-273.1-418.5-609.4-602.1-966.4-938.9-745-702.7-453.2-1655.7-491.6-3297.2-68.8-2936.1-25.2-8889.7 102.5-10811.2 33.6-504.9-41.1-1318.2 205.9-1573.5 400.6-769.7 2130.2-963 2673.4-952.1 673.4 13.6 2428.6 284.7 2631.4 1152.5 4.8 20.5 75.4 881.8 88.1 1319.7 69.2 2400.5.2 8261.3-48.9 11120.8-30.5 1775 115 2712-623.3 3213.9" style="fill:#faf3c6;fill-opacity:1;fill-rule:nonzero;stroke:none" transform="matrix(.00727 0 0 -.00727 -91.355 278.907)"/><path d="m24029 17513-113.1 9091.9c-9.3 742.1 237.6 1464.4 677.8 1985.2 94.3 111.6 218.8 169 342.5 169 117 0 233.2-51.3 322.5-156.6 185.6-218.7 186-575 4.5-794.5-262.2-317.1-418.8-738.1-413.2-1184.7l113-9077.8c-62.9 1.5-126.2 2.2-189.8 2.2-254.4 0-504-11.8-744.2-34.7M28306.8 14160.6c-87.9 51.5-147.7 163.4-147.7 288.1v12219.6c0 169.5 110.5 315.3 251.7 317.9 1.4 0 2.7.1 4.1.1 141.3 0 255.8-137.4 255.8-306.9v-6719c-32.1-47.8-62-97-89.6-147.6-153.4-280.6-234.4-597.7-234.4-917.2 0-13.8 0-28 .5-42.4l-3.8-437.7-.5-57.6-.4-45.8zm363.9 3841.5c-115 107.9-177.4 223.7-179.1 339.8v.9c0 .3 0 .6-.1.9l-.1 12.1c3 114.9 65.3 229.5 179.3 336.3z" style="fill:#fefcf0;fill-opacity:1;fill-rule:nonzero;stroke:none" transform="matrix(.00727 0 0 -.00727 -91.355 278.907)"/><path d="M25430.8 34314.2c-54.5-286.7-76.6-648.3-64.1-1047.9 27.4-874.5 35.8-1623.3-12.5-2435.7-28.6-480.9-98.4-841-371.1-1258.5-189.5-290.1-408.2-469.6-639.7-659.5-108.5-89.1-220.7-181.1-334.4-288.3-538.9-508.3-518.8-1154.2-488.3-2132 10.4-333.1 22.1-710.7 12.3-1130.2-69.4-2968.1 60.9-9023.6 102.5-10808.8 20-856.9 51.5-1402.5 319.7-1753.7 268.7-351.9 1405.9-745.5 2525.6-745.5 442.9 0 966.5 88.1 1436.6 241.7 482.5 157.6 840.6 364.9 982.4 568.7 228.2 327.8 223.2 744.8 214.2 1501.9-.5 42.9-1.1 86.8-1.6 131.8-10.9 1003.5-12.7 2628.8-14.6 4349.7-2.7 2393.4-5.7 5106.2-34.2 6770.9-5.1 293.8-5.3 570.2-5.5 814.1-1.1 1260.7-1.7 1955.2-596 2359.3-23.1 15.7-45.9 31.1-68.3 46.2-326.4 220.7-584.2 395-793.4 795.2-220.9 422.6-314.4 783.2-333.4 1286-36.9 977-49.2 1800.1-38.9 2590.4.8 58.6 2.4 114.5 4 168.5 6.4 223.7 11.9 418.1-47.7 641.4-404.9 105-1339.8 118.8-1753.6-5.7m1050-22359.8c-519.6 0-1085 85.1-1592.1 239.6-494 150.4-863.1 349.1-1012.7 545-286.6 375.3-319.7 934.9-340.1 1811.9-41.7 1785.8-172 7843.3-102.6 10813.5 9.8 416.8-2 792.9-12.3 1124.8-15.2 487.3-28.3 908.2 33 1267.2 66.7 391.5 221.4 690.3 486.6 940.4 116.2 109.6 229.7 202.8 339.5 292.9 225.5 184.9 438.4 359.6 619.5 636.9 260.5 399 327.5 745.8 355.1 1209.9 48 808.6 39.7 1554.9 12.3 2426.7-13.3 426.2 10.7 795.9 71.5 1098.9l5.8 28.7 28.4 9.6c432.6 145 1450.3 127.1 1865.5 8.2l26.4-7.5 8.2-26.9c71.8-249.8 65.8-457.7 58.9-698.5-1.5-53.7-3.1-109.2-3.8-167-10.4-788.6 1.9-1610.1 38.8-2585.4 18.6-492.9 105.9-829.9 322.1-1243.5 197.6-377.9 433.8-537.6 760.8-758.8 22.5-15.2 45.3-30.6 68.5-46.4 302.9-205.9 475.7-488.5 560.5-916.5 78.2-395.1 78.7-893.8 79.2-1525.1.2-243.5.4-519.5 5.5-812.5 28.5-1665.5 31.5-4378.7 34.2-6772.5 1.9-1720.6 3.7-3345.7 14.7-4348.7.4-45 1-88.9 1.5-131.8 9-752 14.4-1206-232.1-1560-156.2-224.5-523.2-439.8-1033.2-606.5-479.7-156.7-1014.6-246.6-1467.6-246.6" style="fill:#231f20;fill-opacity:1;fill-rule:nonzero;stroke:none" transform="matrix(.00727 0 0 -.00727 -91.355 278.907)"/><path d="m25266.9 36148.9-11.9-3169.7c-.3-79.5 290.6-394.7 1042.4-394.7 578.9 0 1042.4 243.5 1042.4 325.3v3262.4c0 96.6-74.8 174.5-166.3 173.2l-1744.5-24c-89.6-1.3-161.7-78-162.1-172.5" style="fill:#c22126;fill-opacity:1;fill-rule:nonzero;stroke:none" transform="matrix(.00727 0 0 -.00727 -91.355 278.907)"/><path d="M25304.9 32979.2v-.2zm0 .9c4.3-22.7 64.5-108 225-190.5 137.7-70.8 382.6-155.2 767.5-155.2 540.7 0 954.7 216.8 992.5 280.8v3257c0 34.5-13.6 67.7-37.2 91.1-21.2 20.8-48.5 32.3-77.1 32.3h-1.5l-1744.5-24.1c-61.9-.9-112.5-55.9-112.8-122.8zm992.5-445.5c-656.9 0-942.5 235.5-1014.4 307.7-35.6 35.8-78 88.6-77.8 137.1l11.9 3169.7c.5 120.9 95.2 220.5 211.2 222.1l1744.5 24.1c55.8.7 109.2-20.9 149.9-61 42.5-42 66.9-101.1 66.9-162.1v-3262.4c0-101.9-235.2-201.7-336.3-239.9-133.7-50.5-409.6-135.3-755.9-135.3" style="fill:#231f20;fill-opacity:1;fill-rule:nonzero;stroke:none" transform="matrix(.00727 0 0 -.00727 -91.355 278.907)"/><path d="M25570.8 33030.5c-1.8 0-3.6 0-5.3.1-257.3 7.1-203.1 471.6-203.1 471.6v2200.4c112.6-55.5 253.2-93.8 418.2-119.4l-12-2123.9s33.4-428.8-197.8-428.8" style="fill:#ecafb7;fill-opacity:1;fill-rule:nonzero;stroke:none" transform="matrix(.00727 0 0 -.00727 -91.355 278.907)"/><path d="M27441.1 36628.9v-522.4c0-81.8 0-337.3-142.6-397.8-155.5-66-554.5-179-945.5-169.6-201.8 4.8-384.2 16.6-544.3 39.9-193.2 27.9-354.2 72.2-477.8 140-10.6 5.7-21 11.6-30.9 17.8-146 89.5-146.5 359.6-146 439.1l12.9 429.7c.5 91.8 75.1 166.7 169.2 172 2.8.2 5.7.4 8.7.4l480.5 5.9 1433.4 18.1c100.4 1.4 182.4-76.5 182.4-173.1" style="fill:#c22126;fill-opacity:1;fill-rule:nonzero;stroke:none" transform="matrix(.00727 0 0 -.00727 -91.355 278.907)"/><path d="M25808.7 35579c-9.5 1.4-18.8 2.8-28.1 4.2-165 25.6-305.6 63.9-418.2 119.4-10.8 5.3-21.2 10.8-31.5 16.4 1.5 41.3 5.2 68.5 5.2 68.5v851.9l494-100-16-794.8s7.1-77-5.4-165.6" style="fill:#ecafb7;fill-opacity:1;fill-rule:nonzero;stroke:none" transform="matrix(.00727 0 0 -.00727 -91.355 278.907)"/><path d="M25167 36605.6h.1zm36.8-430.5c-1.1-264.5 65.8-361.2 122.2-395.7 195.3-119.6 512.3-178.3 1028.1-190.6 368.3-8.7 762.9 97.1 925 165.9 74.5 31.5 112.2 149.9 112.2 351.9v522.2c0 32-12.9 62.4-36.2 85.5-25.3 24.9-59.4 38.4-95.8 37.9l-1913.9-24c-70.6-.9-128.2-56-128.5-122.9l-.1-1.2zm1194.6-686.5c-15.5 0-31.1.2-46.6.5-534.4 12.7-866.8 76-1077.8 205.3-113.9 69.7-171.1 231.8-169.9 481.8v1.2l13 429.1c1 120.6 102.7 219.8 227 221.4l1914 24c1 .1 2 .1 3.1.1 62.1 0 120.3-23.7 163.9-66.8 42.5-42 65.9-97.5 65.9-156.4v-522.2c0-91.6 0-370.4-172.9-443.7-169.5-71.9-547.6-174.3-919.7-174.3" style="fill:#231f20;fill-opacity:1;fill-rule:nonzero;stroke:none" transform="matrix(.00727 0 0 -.00727 -91.355 278.907)"/><path d="M27441.2 36695.1c0-119.4-224.4-215.6-534.1-276-175.5-34.2-383.2-51.1-607.7-51.1-224.6 0-431.8 19.5-607.3 53.7-309.7 60.4-512.2 154-512.2 273.4 0 119.5 200.6 224.2 510.2 284.5 175.6 34.2 384.7 53.3 609.3 53.3 224.5 0 434.1-16.6 609.6-50.8 309.7-60.3 532.2-167.5 532.2-287" style="fill:#d55263;fill-opacity:1;fill-rule:nonzero;stroke:none" transform="matrix(.00727 0 0 -.00727 -91.355 278.907)"/><path d="M26299.4 36983c-216.7 0-424.1-18.1-599.7-52.3-324.7-63.3-470-163.9-470-235.6 0-64 124-156.7 471.9-224.5 177.2-34.5 384-52.8 597.8-52.8 225.8 0 427.1 17 598.2 50.3 341.1 66.5 493.7 161.9 493.7 227 0 70.7-168.9 175.2-491.8 238.1-167.2 32.6-374.8 49.8-600.1 49.8m0-664.9c-220.1 0-433.4 18.9-616.9 54.7-366.6 71.4-552.5 179.9-552.5 322.3 0 196.8 345 293.4 550.6 333.5 181.8 35.4 395.8 54.1 618.8 54.1 235 0 443.3-17.3 619.2-51.6 172.1-33.6 572.4-133.5 572.4-336 0-176-312.3-273.8-574.3-324.9-177.4-34.6-385.1-52.1-617.3-52.1" style="fill:#231f20;fill-opacity:1;fill-rule:nonzero;stroke:none" transform="matrix(.00727 0 0 -.00727 -91.355 278.907)"/><path d="M23800.8 25188.7c0 128.9 126.9 223.9 259.1 193.9 378.7-86 1168.7-224.1 2348-227.8 1142.9-3.7 1834.4 116.7 2183.1 197.4 131.9 30.6 259.2-63.2 260.4-191.8l35.5-3802.7c.9-92.5-38.2-159.2-160.2-195.3-371-110-1343.5-295.3-2242.6-308.5-929.7-13.8-2168.3 262.1-2460.2 385.9-83.2 35.3-223.1 142.7-223.1 230.3z" style="fill:#fff;fill-opacity:1;fill-rule:nonzero;stroke:none" transform="matrix(.00727 0 0 -.00727 -91.355 278.907)"/><path d="M24010.3 25338.3c-37.6 0-74-12.4-103.6-36.1-35.7-28.4-56.1-69.8-56.1-113.5v-3718.6c0-52.9 108.6-148.7 192.8-184.4 283.8-120.4 1455.4-382.5 2371.9-382.5 22.9 0 45.5.2 68.1.5 867.2 12.8 1825.6 186.9 2229.1 306.5 104.2 30.8 125.2 81.1 124.5 147.1l-35.5 3802.6c-.4 43.6-21.1 84.7-56.8 112.8-39.8 31.4-91.8 42.7-142.4 31-400-92.6-1105.7-202.1-2194.5-198.8-1191.2 3.8-1989.2 145.1-2358.9 229.1-12.9 2.9-25.8 4.3-38.6 4.3m2405.9-4534.8c-929.8 0-2122.2 267.5-2411.8 390.4-88.4 37.5-253.5 157-253.5 276.2v3718.6c0 74.2 34.1 144 93.5 191.5 63.5 50.7 146.1 69.3 226.6 51 365.7-83 1155.5-222.8 2337.1-226.6 1079.7-3.2 1776.9 104.8 2171.7 196.2 80.3 18.6 162.9.5 226.6-49.7 59.6-46.9 94.2-116.3 94.9-190.2l35.5-3802.7c1.1-124.5-63-204.2-195.9-243.6-409-121.2-1379.3-297.7-2256.1-310.6-22.7-.3-45.6-.5-68.6-.5" style="fill:#231f20;fill-opacity:1;fill-rule:nonzero;stroke:none" transform="matrix(.00727 0 0 -.00727 -91.355 278.907)"/><text xml:space="preserve" x="23866.135" y="-22530.162" style="font-style:normal;font-variant:normal;font-weight:700;font-stretch:normal;font-size:1455.28px;line-height:1.25;font-family:sans-serif;-inkscape-font-specification:&quot;sans-serif, Bold&quot;;font-variant-ligatures:normal;font-variant-caps:normal;font-variant-numeric:normal;font-variant-east-asian:normal;display:inline;fill:#000;fill-opacity:1;stroke:none;stroke-width:36.3819" transform="translate(-91.355 278.907)scale(.00727)"><tspan x="23866.135" y="-22530.162" style="font-style:normal;font-variant:normal;font-weight:700;font-stretch:normal;font-size:1358.26px;font-family:sans-serif;-inkscape-font-specification:&quot;sans-serif, Bold&quot;;font-variant-ligatures:normal;font-variant-caps:normal;font-variant-numeric:normal;font-variant-east-asian:normal;fill:#a00;stroke-width:36.3819">Cocchi</tspan></text></g></svg>