<svg xmlns="http://www.w3.org/2000/svg" xml:space="preserve" width="200mm" height="200mm" viewBox="0 0 200 200"><path d="M4940.38 32176.5c-7.15 0-14.66 38.3-19.32 76.6s-6.47 76.6-2.24 76.6c2.75 0 8.02-16 16.7-58.5 2.15-47.3 3.46-66.2 6.94-93.6-.69-.8-1.38-1.1-2.08-1.1m1657.71 8796.2c-27.3 0-54.74.3-82.39 1-275.17 6.6-481.66 62.6-627.55 123.8.06 1.9.12 3.8.19 5.8 2.86 82.8 6.59 167.4 10.58 251.7 5.63-2.3 11.45-4.2 17.47-5.7 145.07-36.7 421.75-96.1 691.03-96.1 13.67 0 27.37.2 40.99.5 235.8 5.5 400.82 30.8 497.73 51.1 9.4 2 18.41 4.9 26.93 8.8 1.38-51.5 2.46-102.4 3.11-152.5.47-37.5.37-74.8.28-112-.03-10.9-.06-21.7-.08-32.6-169.5-24.8-368.2-43.8-578.29-43.8" style="fill:#fff;fill-opacity:1;fill-rule:nonzero;stroke:none" transform="matrix(.01447 0 0 -.01447 5.814 647.693)"/><path d="M6477.06 31531.9c-67.41 0-134.75 1.9-201.73 6-786.65 48.5-1228.97 261.4-1279.13 615.9-8.02 56.6-8.2 60.7-12.73 165.4l-.74 17.3c-6.5 149 17.68 265.7 43.28 389.3 24.27 117.2 49.37 238.4 44.91 386.8-1.82 60.3-26.35 423.1-60.28 925.4-88.75 1313.1-237.3 3510.9-245.05 4167.8-.61 52.7-1.59 105.5-2.58 158.4-9.19 492.7-18.67 1002.1 281.8 1408.2 65.24 88.1 192.02 183.2 326.25 283.9 152.87 114.6 310.96 233.2 382.46 349 120.52 195.1 126.38 403.7 132.61 624.5.62 22.4 1.26 45 2.02 67.7 145.89-61.2 352.38-117.2 627.55-123.8 27.65-.7 55.09-1 82.39-1 210.09 0 408.79 19 578.29 43.8-.27-192.3 4.31-389.5 99.54-568.8 65.38-123.2 220.21-237 369.94-347 102.79-75.6 199.9-147 256.46-213.5 382.79-450.2 366.73-1021.3 352.58-1525.1-16.23-577.9-119.87-2421.3-195.56-3767.3-43.83-779.5-78.44-1395.2-80.11-1482.6-2.8-147 21.22-272.3 44.42-393.5 20-104.5 40.71-212.5 43.77-333.8 6.93-273.1-12.79-338.2-79.65-406.7-186.9-191.6-537.43-369.3-781.4-396-235.66-25.9-483.04-50.3-729.31-50.3m1618.46 1071.3c-.11.6-.21 1.2-.32 1.9.09 7.8.17 12.2.22 12.2.06 0 .09-4.4.1-14.1" style="fill:#d6edb8;fill-opacity:1;fill-rule:nonzero;stroke:none" transform="matrix(.01447 0 0 -.01447 5.814 647.693)"/><path d="M5758.8 39985.8s-635.25-663.8-635.25-1435.6 270.32-5742.2 270.32-5742.2l581.19-154.4S5758.8 38272.4 5839.9 38720s243.29 1312.1-81.1 1265.8m1961.41-6920.5h-1.58c-44.78.9-80.39 43.2-79.54 94.3l187.67 5923.1c.85 51.2 38.04 91.2 82.63 90.9 44.78-1 80.39-43.2 79.54-94.4l-187.67-5923.1c-.84-50.5-36.98-90.8-81.05-90.8" style="fill:#fff;fill-opacity:1;fill-rule:nonzero;stroke:none" transform="matrix(.01447 0 0 -.01447 5.814 647.693)"/><path d="M5231.68 32859.5s-63.08-195.6-54.06-519.7c9.01-324.2 9.01-494 9.01-494s216.26-108 310.87-128.6 306.36-46.3 306.36-46.3l22.53 1018.8-351.42 92.6z" style="fill:#fff;fill-opacity:1;fill-rule:nonzero;stroke:none" transform="matrix(.01447 0 0 -.01447 5.814 647.693)"/><path d="M6633.52 32577.3c-452.22 0-988.97 84-1447.42 272.6-12.77 5.3-18.86 19.9-13.61 32.7 5.25 12.7 19.85 18.8 32.64 13.6 776.87-319.7 1778.96-335.8 2192.4-150.3 12.56 5.7 27.39.1 33.04-12.6 5.66-12.6.02-27.3-12.58-33-176.96-79.4-458.83-123-784.47-123" style="fill:#231f20;fill-opacity:1;fill-rule:nonzero;stroke:none" transform="matrix(.01447 0 0 -.01447 5.814 647.693)"/><path d="M7836.9 32723.1s105.87 0 114.88-277.8c9.02-277.9-15.76-391.1-15.76-391.1s-36.05-102.9-117.14-133.8c-81.1-30.8 18.02 802.7 18.02 802.7" style="fill:#fff;fill-opacity:1;fill-rule:nonzero;stroke:none" transform="matrix(.01447 0 0 -.01447 5.814 647.693)"/><path d="M5994.46 43097.7c-79.34-195.1-78.07-394.6-69.24-598.9 14.1-326.1-2.79-667-19.12-996.7-6.5-131.5-13.23-267.5-17.76-398.8-.84-24.7-1.53-49.2-2.21-73.5-6.23-220.8-12.09-429.4-132.61-624.5-71.5-115.8-229.59-234.4-382.46-349-134.23-100.7-261.01-195.8-326.25-283.9-300.47-406.1-290.99-915.5-281.8-1408.2.99-52.9 1.97-105.7 2.58-158.4 7.75-656.9 156.3-2854.7 245.05-4167.8 33.93-502.3 58.46-865.1 60.28-925.4 4.46-148.4-20.64-269.6-44.91-386.8-25.6-123.6-49.78-240.3-43.28-389.3l.74-17.3c4.53-104.7 4.71-108.8 12.73-165.4 50.16-354.5 492.48-567.4 1279.13-615.9 311.66-19.2 630.87 11.3 931.04 44.3 243.97 26.7 594.5 204.4 781.4 396 66.86 68.5 86.58 133.6 79.65 406.7-3.06 121.3-23.77 229.3-43.77 333.8-23.2 121.2-47.22 246.5-44.42 393.5 1.67 87.4 36.28 703.1 80.11 1482.6 75.69 1346 179.33 3189.4 195.56 3767.3 14.15 503.8 30.21 1074.9-352.58 1525.1-56.56 66.5-153.67 137.9-256.46 213.5-149.73 110-304.56 223.8-369.94 347-100.61 189.4-100.04 398.8-99.46 601.4.09 37.2.19 74.5-.28 112-2.29 176.2-9.86 362.9-17.17 543.5-12.13 299-24.66 608.1-15.08 897.6 5.44 164.8-19.37 325.7-75.85 491.6-125.67 38.4-934.88 52.7-1073.62 3.9m482.81-11615.8c-68.47 0-136.87 1.9-205.03 6.1-312.11 19.2-562.96 61.7-766.86 129.8-336.98 112.5-524.95 290.5-558.71 529-8.35 59-8.63 65.3-13.16 170.2l-.75 17.3c-6.76 155.2 19.18 280.5 44.27 401.7 23.69 114.3 48.19 232.6 43.9 375.1-1.79 59.3-26.29 421.8-60.2 923.5-88.77 1313.7-237.37 3512.3-245.13 4170.6-.63 52.6-1.61 105.3-2.58 158.1-9.35 501-19 1019.1 291.59 1438.8 69.59 94 199.21 191.3 336.44 294.2 149.16 111.8 303.39 227.5 369.91 335.2 113.45 183.8 119.15 385.8 125.16 599.7.7 24.4 1.39 49 2.25 73.8 4.53 131.7 11.27 267.9 17.78 399.6 16.28 328.5 33.09 668.2 19.09 992-8.85 205-10.2 422.5 77.04 630l3.67 8.7 8.57 4.1c130.06 62.3 1032.52 43.9 1134.01-3.8l9.52-4.4 3.46-9.9c60.36-173.3 88.08-348.5 82.38-520.7-9.5-287.7 3-595.9 15.07-894 7.34-180.9 14.92-367.9 17.21-544.9.49-37.7.39-75.3.28-112.8-.57-205.4-1.11-399.4 93.63-577.8 60.04-113 210.17-223.4 355.4-330.1 105.22-77.4 204.6-150.4 264.94-221.4 395.21-464.8 378.88-1046.1 364.48-1558.9-16.24-578.6-119.93-2422.4-195.62-3768.7-43.8-779-78.41-1394.3-80.04-1480.7-2.71-141.9 19.75-259.1 43.52-383.2 20.39-106.4 41.48-216.5 44.67-341.9 6.86-271.6-11.55-358.5-93.86-442.9-193.81-198.7-557.96-383-811.73-410.9-237.05-26-485.99-50.5-734.57-50.5" style="fill:#231f20;fill-opacity:1;fill-rule:nonzero;stroke:none" transform="matrix(.01447 0 0 -.01447 5.814 647.693)"/><path d="M5347.03 38640.7c831.25-99.1 1563.81-108.7 2347.35-30.7 180.03 18 334.91-111.8 325.2-271.3L7887.89 36176c-7.02-115.3-99.79-212.2-227.2-238.6-756.26-156.6-1447.87-154.2-2278.11 35.8-123.31 28.2-212.19 123.1-219.87 235.3l-147.96 2159.9c-11.15 162.8 149.05 294.1 332.28 272.3" style="fill:#fff;fill-opacity:1;fill-rule:nonzero;stroke:none" transform="matrix(.01447 0 0 -.01447 5.814 647.693)"/><path d="M5307.82 38618c-74.72 0-146.84-27.3-198.19-76.1-49.46-47.1-74.31-108.1-69.94-171.8l147.95-2159.9c6.94-101.3 87.53-186.7 200.52-212.6 812.41-185.9 1490.51-196.6 2267.47-35.7 115.78 24 201.04 112.6 207.3 215.6l131.69 2162.7c3.83 62.8-20.73 123-69.15 169.5-58.75 56.6-142.03 84.1-228.61 75.5-789.13-78.7-1514.75-69.2-2352.78 30.6-12.1 1.5-24.22 2.2-36.26 2.2m1303.02-2817.2c-399.29 0-801.82 49.2-1233.84 148.1-134.65 30.8-230.79 134.4-239.25 257.9l-147.95 2159.9c-5.4 78.8 24.92 153.9 85.37 211.4 70.29 66.9 173.08 99.5 274.83 87.4 834.27-99.4 1556.54-108.9 2341.9-30.6 101.21 10.1 198.89-22.4 268.25-89.1 59.14-56.9 89.12-131 84.4-208.6l-131.69-2162.8c-7.65-125.4-109.26-232.9-247.09-261.5-360.62-74.6-706.55-112.1-1054.93-112.1" style="fill:#231f20;fill-opacity:1;fill-rule:nonzero;stroke:none" transform="matrix(.01447 0 0 -.01447 5.814 647.693)"/><path d="M5386.76 37271.8q4.155-4.65 5.94-18.9c1.18-9.5 2.93-34.9 5.2-76 3.38-57.7 6.31-96.9 8.81-117.8 4.4-29.4 11.35-58.8 20.82-88.3 9.48-29.4 16.8-44.4 21.99-44.9l.48.1.47.2c4.58 2.6 14.37 20.9 29.36 54.8 15 33.9 29.3 70.7 42.89 110.6 10.53 30.7 22.92 62.5 37.21 95.6 14.29 33 23.61 51.1 27.95 54.4 3.65 2.7 7.62 3.9 11.89 3.4 3.96-.4 7.75-2.4 11.39-6s5.17-8.3 4.58-14.1q-1.17-11.4-24.21-65.4c-14.87-34.2-26.13-63.1-33.76-86.7-7.6-23.2-18.36-51.8-32.27-85.6-13.91-33.9-24.23-56.6-30.95-68.2-13.03-22.1-25.98-34.4-38.85-36.7-3.74-.6-7.3-.7-10.65-.3-10.05 1-19.87 7.5-29.42 19.6-11.8 14.1-22.78 40.9-32.92 80.5-7.78 29.4-13.21 56.3-16.28 80.6-3.07 24.4-5.27 60.3-6.59 107.9-.33 5.8-.61 15.2-.85 28s-.47 21.1-.7 24.8c-.74 17-.81 28.4-.23 34.2.84 8.2 3.4 13.7 7.7 16.5 4.27 2.8 7.95 4.1 11 3.8 3.03-.4 6.37-2.4 10-6.1m314.97-44.5c3.58 1.8 11.91 2 25.02.6q22.395-2.25 66.09-8.7c23.67-3.4 37.83-5.6 42.5-6.7 4.65-1.2 8.33-3.5 11.03-7.2 3.85-4.4 5.51-9.3 4.95-14.6-.55-5.3-3.34-9.9-8.35-13.7-3.68-2.7-8.1-3.8-13.27-3.2-4.28.4-7.76.9-10.47 1.5-4.54.8-23.03 3.7-55.48 8.6l-39.12 5.9-6.38-70c-4.23-46.7-6.09-70.4-5.54-71.1l1.37-.1c3.05-.3 9.83-.3 20.35.2 14.21.3 27.41-.1 39.59-1.4l5.95-.6c12.15-1.6 19.72-2.9 22.69-4s5.8-3.4 8.49-7.1c3.19-4.9 4.56-9.5 4.13-13.6-.42-4.1-2.65-7.8-6.7-11.1-3.36-2.7-6.67-4.1-9.9-4.3-3.26-.1-12.06.4-26.4 1.6-20.12 2.1-35.93 2.7-47.43 1.7l-17.65-.9-6.94-62.1-1.94-18.8q-4.575-43.8-3.12-47.7c1.33-2 9.46-3.7 24.4-5.3l27.88-2.9c8.25-.6 18.02-1.4 29.3-2.6 14.01-1.4 22.82-4.1 26.44-7.8 3.52-4.7 4.99-9.9 4.4-15.5-.58-5.6-2.7-9.7-6.34-12-4.64-3.3-11.45-5-20.41-5.3-8.98-.3-25.35.6-49.15 2.8l-20.56 2.1c-12.8 1.4-21.3 2.6-25.51 3.6-4.21 1.1-9.17 3-14.89 5.7-5.71 2.8-10.23 7.6-13.51 14.4-3.81 7.7-5.48 18.4-5 31.9l16.86 153c9.53 88.7 15.64 140.6 18.3 155.9 2.67 15.3 7.27 24.7 13.82 28.4zm307.54-79c-9.77 1.7-16.78 2.7-21.08 2.7-4.59.2-11.05-.5-19.35-1.8-20-3.3-30.93-6.4-32.84-9.4-.95-1.5-1.59-9.3-1.9-23.4-1.11-50.6.06-101.4 3.52-152.7l1.05-15.2 10.56-.2c7.36-.2 16.88 1 28.58 3.5 40.93 7.7 71.6 19.4 92.02 35.2s31.69 36.7 33.8 62.7l.15 6.9c.54 24.5-7.21 44.6-23.26 60.2-16.06 15.7-39.8 26.2-71.25 31.5m-59.91 34.9c10.79 2.5 21.84 3.6 33.17 3.4 1.54-.1 4.15-.2 7.81-.4 3.68-.3 6.58-.4 8.73-.5 47.44-2.2 83.92-15.9 109.42-41 22.19-21.3 34.01-48.2 35.45-80.8.24-2.4.32-6.2.2-11.4-.39-17.5-4.6-34.4-12.61-50.8-9.94-19.7-23.24-35.8-39.92-48.3q-25.005-18.75-67.11-31.2l-24.06-7.2 18.55-13.3c57.93-41.1 89.58-64.8 94.97-71.1 2.68-3.7 3.96-7.9 3.85-12.5-.1-4.6-1.42-8.7-3.94-12.3-2.54-3.6-5.95-5.8-10.26-6.6-1.23-.3-2.77-.5-4.6-.4-2.76 0-6.87 1.8-12.3 5.3-5.44 3.5-17.2 11.9-35.3 25.2-59.71 43.6-93.51 67.5-101.38 71.6l-10.46 5.3-1.3-58.8c-.56-25.4-1.59-41-3.1-46.8s-5.35-9.4-11.5-10.8c-.92-.3-2.47-.4-4.61-.4-7.65.2-13.26 3.2-16.8 9.1-2.08 3.5-3.1 33.5-3.07 90.2-.83 59.8-1.51 98.2-2.04 115.4-1.24 41.4-1.3 87.1-.19 137 .24 11 .53 17.3.88 18.8.34 2.2 6.55 6 18.63 11.6 12.08 5.5 23.03 9.4 32.89 11.7m531.32-42.3c4.31 3 9.06 4.6 14.27 4.6 9.08 0 16.8-5.1 23.17-15.2 9.67-15.6 14.52-67.2 14.52-154.9 0-12.8-.31-38.6-.92-77.2-.9-49-1.67-78.7-2.28-89.1-.59-10.4-2.11-17.3-4.54-20.7-3.63-5.2-9.08-7.8-16.34-7.8-5.15 0-9.08 1.5-11.81 4.6q-3.195 3.15-3.63 23.4c-.31 13.5-.46 56.1-.46 127.8q0 146.1-2.76 152.1c-.61 1.8-1.23 2.7-1.84 2.7-1.53 0-7.97-8.7-19.3-26.2-6.74-11-22.37-33.8-46.88-68.4-4.59-6.5-9.65-13.7-15.17-21.9-5.5-8.1-10.79-15.8-15.85-23.2-5.05-7.3-8.36-12.1-9.87-14.2-10.43-15.6-18.54-23.5-24.37-23.5-2.76 0-5.96 1-9.65 2.8-6.74 3.1-12.4 7.4-16.99 13.1-4.6 5.7-11.5 17.1-20.69 34.2-16.85 31.3-32.71 59.2-47.57 83.7s-23.51 36.7-25.96 36.7h-.46c-2.14-2.1-3.98-24-5.51-65.7-1.54-41.6-2.29-87.8-2.29-138.3l-.47-102.9-5.52-4.2c-3.68-2.7-6.89-4.1-9.64-4.1-3.08 0-6.75 1.7-11.04 5.1-2.76 2.1-4.59 4.6-5.52 7.5-.91 2.9-1.83 8.8-2.75 17.7-2.46 28.5-3.67 68.8-3.67 120.9 0 78.7 2.14 135.7 6.42 170.9 2.14 17.8 5.36 30.4 9.66 38 4.28 7.5 10.57 11.2 18.84 11.2 6.41 0 11.78-1.1 16.05-3.2 3.99-2.1 10.4-8 19.28-17.5 8.86-9.5 15.6-17.6 20.19-24.3 17.74-29.1 39.75-67.3 66.06-114.5l9.18-16.5 4.14 5.5c3.99 4.9 15.56 22 34.75 51.3 19.18 29.2 32.75 50.4 40.73 63.6 18.42 30 33.92 48.7 46.49 56.1m293.34-30.1c-4.07 2.3-14.08 3.6-30.04 3.9-1.83-.1-4.13-.1-6.89 0h-5.52c-7.66-.3-15.99-2.9-25-7.8-23.15-12.5-40.34-44.3-51.61-95.2-2.9-13-4.58-23-5.09-30-.5-7.1-.55-20.1-.14-39.1.87-23.2 2.59-40.6 5.19-52.3 2.58-11.7 7.48-23.7 14.67-36 7.56-13.5 17.14-23.8 28.75-30.8q17.43-10.65 37.17-9.9c11.02.4 21.33 3.3 30.95 8.5 20.13 10.9 36.85 27.1 50.15 48.7 10.1 16.6 17.04 33.9 20.81 51.8 3.78 17.9 5.15 40.4 4.13 67.7l-.55 14.6c-.52 13.8-3.3 26.7-8.35 38.7-13.04 28.9-32.58 51.3-58.63 67.2m-57.58 39.2c3.95 1.1 15.4 2.3 34.37 3.6l7.34.3q14.685.45 29.67-6.3c9.65-4.2 22.12-13.4 37.37-27.6 10.14-9.1 17.24-16.2 21.26-21.2 4.02-5.1 8.83-13 14.45-23.9 7.94-15.3 13.15-27.5 15.65-36.6 2.48-9.1 4.04-22.3 4.69-39.4l.36-9.6c.72-35.9-2.43-66.1-9.49-90.5-7.04-24.5-19.78-48.6-38.2-72.3-9.35-12.3-21.65-23.5-36.91-33.6-15.27-10-29.14-16.1-41.63-18.1-6.11-.8-10.85-1.3-14.21-1.4-32.15-1.2-59.34 8.5-81.58 29.1q-10.485 9.75-23.22 30.6c-8.5 14-14.49 26.7-17.98 38.2-3.85 12.4-6.31 33.3-7.41 62.7-.62 16.6-.5 29.3.4 38.2 1.16 9.9 1.97 21.1 2.4 33.7.4 6.1 2.74 16.8 7.09 32 4.33 15.2 8.78 27.4 13.33 36.8 4.24 9.4 9.71 19.1 16.38 29.1 6.68 10.1 12.39 17.4 17.12 21.8 5.04 4.8 12.52 9.6 22.46 14.4 9.93 4.9 18.7 8.2 26.29 10m216.08 33.1c4.13 2.1 6.35 3.2 6.65 3.3l8.08-3.1c5.72-2.3 8.84-6.7 9.35-13.1.32-3.9-.32-11.4-1.91-22.2-7.3-47-8.74-98.2-4.31-153.5.14-1.8.42-4.4.84-7.7.43-3.4.7-5.8.83-7.3 3.97-34.5 12.93-64 26.87-88.7 11.08-19.7 23.78-32.8 38.11-39.4 6.02-2.6 10.89-4.1 14.62-4.6 3.71-.4 10.91-.2 21.57.6 15.54 1.3 27.13 4.1 34.74 8.6 7.62 4.4 18.02 14.4 31.19 29.9 19.61 23.1 30.68 45.8 33.18 68.1 2.88 25.4 2.32 63-1.66 112.8-1.81 22.6-4.4 45.3-7.75 68.1-3.57 21.5-5.59 35.2-6.05 41-.54 6.7.74 11.9 3.83 15.5 3.58 4.6 7.94 7.1 13.07 7.5 4.83.4 9.38-1.4 13.65-5.3 4.26-4 7.14-9.5 8.61-16.4 6.14-27.5 10.96-63.1 14.45-106.7 4.28-53.5 4.73-93.7 1.39-120.7-3.54-28.9-16.27-57.5-38.25-85.8-21.98-28.4-45.27-46.1-69.84-53.3-8.11-2.2-16.14-3.6-24.06-4.3-23.47-1.8-43.5 1-60.06 8.6-9.24 4.2-18.92 11.1-29.05 20.7-10.14 9.7-18.41 20.1-24.83 31.2-19.59 34.1-31.12 72.7-34.56 115.8-2.01 25-1.94 57.1.22 96.3 3.55 64.5 10.57 99.2 21.08 104.1m414.5 52.4c9.79.9 20.42 1.7 31.89 2.5 11.48.8 20.49 1.4 27.06 1.9 6.58.5 10.48.8 11.71.8l1.38.1c4.29.1 8.6-.9 12.96-2.9 4.34-2.1 7.16-4.3 8.46-6.8.98-2.1 1.53-5.2 1.65-9.2.15-5.3-.67-9.2-2.43-11.7-2.65-3.8-6.49-6.4-11.5-7.8-5.02-1.4-13.66-2.2-25.9-2.6-18.38-.5-31.85-1.4-40.39-2.5l-15.58-1.8 3.46-89.1.85-29.9c.62-21.7.92-40.3.9-55.6q-.03-22.95-.51-63c-.31-26.7-.58-46.9-.79-60.7q-.54-29.85-1.47-37.5c-.62-5.1-2.26-9.1-4.94-11.9-3.87-4.1-8.55-6.2-14.07-6.4-5.51-.1-10 1.4-13.47 4.7q-3.78 3.6-4.83 8.1-1.05 4.65-1.56 22.5c-.53 18.7-.31 48.4.68 89.2 2.07 45.5 2.07 104.8-.02 178-.77 27.2-1.66 42.2-2.66 44.9l-2.48 6.4-19.24-2.4c-10.7-1.5-21.24-2.4-31.64-2.7-16.24-.5-26.86.9-31.85 4.1-4.69 3.3-7.12 8.1-7.3 14.3-.13 4.6 1.29 8.4 4.27 11.3 2.69 2.5 11.13 4.7 25.34 6.5 14.2 1.8 48.2 4.9 102.02 9.2m147.97 5.9c3.36 4.8 7.81 7.4 13.31 7.8 7.95.5 13.72-3.2 17.32-11.3 1.43-3.3 3.49-19.4 6.15-48.4 2.65-29 5.25-57 7.78-84s4.25-40.5 5.17-40.4c.91 0 8.3 2.2 22.15 6.5 12.32 3.8 30.23 8.3 53.7 13.4 23.45 5 39.15 7.8 47.11 8.3l2.75.2.95-.4.92.1c1.52.1 2.41 1.8 2.65 5.2.25 3.4.16 12.8-.21 28.1-.43 25.1-1.15 45.7-2.18 61.6-1.66 25.3-1.46 42.1.63 50.2 2.08 8.1 7.25 12.5 15.51 13 8.86.6 14.95-3.3 18.26-11.7.73-1.8 1.51-9 2.33-21.5.5-7.6 1.17-22.8 2.04-45.5 1.73-45.3 4.77-101.3 9.11-167.9 4.03-71.3 5.57-109 4.61-113-2.52-8.5-7.9-13.1-16.12-14l-2.76-.1c-8.88-.6-14.45 3.8-16.76 13.1-2.29 9.4-4.97 37.5-8.02 84.3l-5.35 82.1-8.63-2c-1.2-.4-4.08-1-8.63-1.7-4.56-.8-10.24-1.8-17.09-3-6.82-1.2-12.95-2.4-18.4-3.7-25.75-5.4-44.94-10.1-57.56-14.3l-22.11-7 .38-34.1c.45-30.3.54-50.6.28-60.8-.43-12.3-.91-20-1.47-23.3-.55-3.3-2.28-6.2-5.17-8.9-4.07-3.6-8.24-5.6-12.52-5.8-9.78-.7-16.22 4-19.33 13.9-.35.6-.68 3.5-1.01 8.7-.62 9.5-.87 20.2-.73 32.2.39 64.5-1.76 132.8-6.47 204.9-.26 4-.69 9.4-1.27 16.1-.6 6.7-.98 11.4-1.16 14.2-1 10.7-1.91 22.3-2.72 34.8-.8 12.2.05 20.3 2.56 24.1" style="fill:#100f0d;fill-opacity:1;fill-rule:nonzero;stroke:none" transform="matrix(.01447 0 0 -.01447 5.814 647.693)"/><path d="M7335.62 37809.6c0-273.8-381.24-495.6-851.51-495.6-470.28 0-851.51 221.8-851.51 495.6 0 273.7 381.23 495.5 851.51 495.5 470.27 0 851.51-221.8 851.51-495.5" style="fill:#c03222;fill-opacity:1;fill-rule:nonzero;stroke:none" transform="matrix(.01447 0 0 -.01447 5.814 647.693)"/><path d="M6080.29 38024c-15.06 5.6-32.92 8.6-53.58 9.1-13.79.8-21.96 1.3-24.55 1.3-8.17 0-13.44-1.9-15.81-5.6-2.37-3.6-3.55-11.5-3.55-23.6 0-3.5.42-18.6 1.3-45.3 1.72-51.8 2.59-122.2 2.59-211.1v-139.9h19.36c13.78 0 30.24 2.4 49.39 7.1 19.16 4.8 33.9 10.4 44.23 16.9 18.94 11.2 37.55 31.6 55.85 61.1 18.28 29.6 31.09 59.9 38.42 91 4.29 17.7 6.45 33.9 6.45 48.6 0 1.7-.11 4.5-.32 8.4-.23 3.9-.33 7.1-.33 9.7-2.15 45.8-12.69 82.3-31.64 109.5-18.94 27.2-48.2 48.1-87.81 62.8m-89.72 60.9c6.9 1.3 15.72 1.9 26.5 1.9 24.11 0 45.64-2.4 64.59-7.1 17.65-4.8 36.49-12.4 56.52-23s36.28-21.9 48.79-34c23.67-22 40.9-47.1 51.67-75.1 5.17-13 9.58-30.4 13.24-52.2s5.5-40.2 5.5-55.3c0-48.8-12.85-98.5-38.53-149-25.7-50.5-56.25-86.3-91.64-107.5-34.97-21.6-79.23-32.4-132.75-32.4l-27.2.7c-25.47-1.7-37.79 17.5-36.91 57.6v315.4c0 37.6.21 65.9.64 85.2q.675 28.8 0 44.7c-.43 10.5 1.09 16.6 4.59 18.1 3.48 1.5 7.21 2.3 11.12 2.3h2.63c7.85 0 13.53 1 17.01 3.2 2.62 1.7 10.7 3.9 24.23 6.5" style="fill:#fff;fill-opacity:1;fill-rule:nonzero;stroke:none" transform="matrix(.01447 0 0 -.01447 5.814 647.693)"/><path d="M5989.95 37612.1h16.1c13.46 0 29.82 2.4 48.61 7.1 18.68 4.6 33.25 10.1 43.29 16.4 18.46 10.9 36.87 31.1 54.81 60.1 18.02 29.2 30.82 59.5 38.03 90.1 4.21 17.4 6.34 33.5 6.34 47.8 0 1.7-.09 4.4-.3 8.2-.23 4-.34 7.3-.34 9.9-2.11 44.8-12.55 81.1-31.06 107.6-18.47 26.5-47.49 47.3-86.26 61.6h-.01c-14.64 5.5-32.31 8.5-52.52 8.9-14.04.9-22 1.3-24.47 1.3-6.86 0-11.39-1.4-13.08-4-1.4-2.2-3.04-7.7-3.04-21.9 0-3.6.46-19.6 1.3-45.2 1.71-52.1 2.6-123.2 2.6-211.2zm16.1-6.5h-22.6v143.2c0 87.9-.87 158.9-2.6 211-.83 25.6-1.29 41.8-1.29 45.4 0 13.1 1.29 21.1 4.08 25.4 3.03 4.7 9.09 7 18.53 7 2.64 0 10.49-.4 24.73-1.3 20.82-.4 39.21-3.6 54.52-9.3 40.04-14.8 70.1-36.4 89.34-64 19.21-27.6 30.05-64.9 32.21-111.1.01-2.7.12-5.9.33-9.7.24-4 .33-6.8.33-8.6 0-14.9-2.2-31.5-6.54-49.3-7.36-31.3-20.42-62.2-38.81-92-18.49-29.9-37.66-50.8-56.96-62.2-10.56-6.7-25.75-12.5-45.1-17.2-19.3-4.8-36.18-7.3-50.17-7.3m-39.02-50.5 27.51-.6c52.58 0 96.69 10.7 130.98 31.9 34.72 20.7 65.13 56.5 90.44 106.2 25.33 49.8 38.17 99.4 38.17 147.5 0 14.8-1.84 33.2-5.44 54.8-3.63 21.5-8.02 38.8-13.06 51.5-10.57 27.5-27.67 52.3-50.86 73.9-12.32 11.9-28.49 23.2-48.1 33.5-19.68 10.4-38.48 18.1-55.86 22.7-18.57 4.7-40.03 7.1-63.74 7.1-10.53 0-19.24-.7-25.9-1.9-17.71-3.4-22.01-5.4-23.04-6-4.09-2.6-10.22-3.8-18.8-3.8h-2.63c-3.45 0-6.76-.7-9.83-2-.33-.1-3.18-1.8-2.62-15 .43-10.6.43-25.7 0-44.9-.44-19.2-.65-47-.65-85.1v-315.4c-.51-23.5 3.56-39.6 12.16-47.8 5.28-5 12.31-7.1 21.27-6.6m27.43-7.1-27.28.7c-10.57-.8-19.32 2.1-25.91 8.3-10.1 9.7-14.73 26.9-14.17 52.6v315.3c0 38.1.21 66 .65 85.2.44 19.1.44 34 0 44.5-.5 12.4 1.57 19.1 6.54 21.3 3.87 1.6 8.06 2.5 12.41 2.5h2.63c7.24 0 12.38.9 15.3 2.7 1.86 1.3 6.6 3.4 25.33 6.9 7.05 1.4 16.17 2 27.11 2 24.23 0 46.24-2.4 65.38-7.2 17.9-4.8 37.14-12.6 57.26-23.2 20.15-10.7 36.81-22.3 49.52-34.6 23.89-22.2 41.54-47.9 52.43-76.3 5.21-13 9.73-30.8 13.42-52.7 3.68-21.9 5.55-40.7 5.55-55.9 0-49.1-13.09-99.7-38.89-150.4-25.86-50.9-57.1-87.5-92.86-108.9-35.29-21.7-80.53-32.8-134.42-32.8" style="fill:#c22126;fill-opacity:1;fill-rule:nonzero;stroke:none" transform="matrix(.01447 0 0 -.01447 5.814 647.693)"/><path d="M6498.09 37995.2q-20.745 3.3-29.79 3.3-9.72 0-27.21-3.3c-28.06-5.1-43.38-9.9-45.98-14.2-1.29-2.2-1.94-13.2-1.94-33 0-71.3 3.25-142.9 9.72-215l1.94-21.4h14.9c10.35 0 23.73 1.9 40.14 5.8q86.13 18.15 128.55 52.5c28.28 22.9 43.49 52.6 45.65 89.3v9.8c0 34.5-11.56 62.6-34.64 84.1-23.1 21.6-56.88 35.7-101.34 42.1m-85.49 47.3c15.11 3.9 30.65 5.8 46.62 5.8q3.24 0 11.01-.3c5.19-.2 9.28-.3 12.31-.3 66.91-1.7 118.72-19.9 155.42-54.4 31.94-29.4 49.43-66.9 52.46-112.7.41-3.4.64-8.8.64-16.2 0-24.6-5.4-48.5-16.19-71.9-13.38-28-31.63-51.1-54.71-69.3-23.11-18.1-54.3-33.4-93.59-45.9l-33.66-11 26.54-18.2c82.89-56.1 128.23-88.5 135.99-97.1 3.9-5.2 5.83-11 5.83-17.5s-1.73-12.3-5.18-17.5c-3.46-5.2-8.19-8.4-14.24-9.7-1.74-.4-3.89-.6-6.47-.6-3.9 0-9.73 2.3-17.49 7.1-7.78 4.7-24.61 16.2-50.52 34.3-85.48 59.6-133.83 92.2-145.06 97.8l-14.88 7.1v-82.9c0-35.8-.98-57.8-2.92-66-1.95-8.2-7.23-13.4-15.87-15.6q-1.95-.6-6.48-.6c-10.79 0-18.78 4.1-23.96 12.3-3.03 4.7-5.4 47-7.12 126.9-3.03 84.2-5.18 138.4-6.48 162.6-3.02 58.2-4.53 122.6-4.53 192.9 0 15.6.21 24.4.65 26.6.43 3 9.07 8.6 25.91 16.8 16.82 8.2 32.15 14.1 45.97 17.5" style="fill:#fff;fill-opacity:1;fill-rule:nonzero;stroke:none" transform="matrix(.01447 0 0 -.01447 5.814 647.693)"/><path d="M6407.78 37714.8h11.95c10.02 0 23.27 2 39.39 5.8 56.72 11.9 99.52 29.3 127.25 51.8 27.41 22.2 42.38 51.5 44.46 87v9.6c0 33.4-11.32 60.9-33.62 81.8-22.52 21-56.02 34.9-99.58 41.2h-.04c-13.6 2.1-23.45 3.2-29.29 3.2-6.25 0-15.2-1-26.61-3.1-37.72-7-43.05-11.6-43.79-12.8-.32-.7-1.48-5.3-1.48-31.3 0-70.7 3.26-143 9.7-214.7zm11.95-6.5h-17.86l-2.22 24.4c-6.45 71.9-9.73 144.4-9.73 215.3 0 30.7 1.57 33.3 2.4 34.7 2.31 3.8 9.84 8.6 48.18 15.7 11.8 2.2 21.15 3.3 27.8 3.3 6.26 0 16.16-1.1 30.28-3.3 44.89-6.5 79.56-20.9 103.06-42.9 23.67-22.1 35.68-51.3 35.68-86.5v-9.8c-2.21-37.6-17.96-68.5-46.86-91.8-28.55-23.2-72.27-41-129.92-53.2-16.54-3.9-30.29-5.9-40.81-5.9m39.49 336.8c-15.6 0-31.02-1.9-45.82-5.7h-.01c-13.54-3.4-28.8-9.2-45.34-17.3-21.42-10.4-23.9-14-24.18-14.6-.2-1-.55-5.8-.55-25.9 0-70.1 1.51-135 4.53-192.8 1.29-24.1 3.41-77.3 6.48-162.6 2.21-102.5 5.1-122.5 6.64-125.3 4.56-7.2 11.51-10.8 21.19-10.8 3.62 0 5 .4 5.44.5 7.67 1.9 12.09 6.2 13.75 13.2 1.88 8 2.83 29.9 2.83 65.3v88.1l19.54-9.4c11.53-5.8 59.11-37.8 145.52-98 25.74-18.1 42.68-29.6 50.34-34.3 9.01-5.4 13.56-6.6 15.8-6.6 2.32 0 4.23.2 5.67.6 5.34 1.1 9.34 3.8 12.34 8.3 3.08 4.7 4.64 9.9 4.64 15.7s-1.69 10.9-5.18 15.5c-7.34 8.2-52.88 40.7-135.22 96.4l-32 21.9 39.94 13.1c38.73 12.3 69.86 27.6 92.58 45.4 22.6 17.7 40.7 40.7 53.79 68.1 10.53 22.8 15.88 46.5 15.88 70.5 0 7.1-.21 12.4-.62 15.8-2.99 44.9-20.28 82.1-51.43 110.7-35.95 33.8-87.52 51.8-153.3 53.5h-.06c-2.98 0-7.1.2-12.3.4q-7.68.3-10.89.3m-77.06-561.5c-11.93 0-20.92 4.7-26.7 13.9-1.49 2.3-5.02 7.8-7.63 128.5-3.05 85.2-5.17 138.3-6.45 162.5-3.03 57.9-4.56 122.9-4.56 193.1 0 21 .39 25.6.71 27.2.41 2.9 2.95 7.1 27.67 19.1 16.95 8.3 32.63 14.3 46.6 17.7 15.32 4 31.28 6 47.42 6 2.19 0 5.9-.1 11.15-.4 5.12-.2 9.17-.3 12.17-.3 67.52-1.7 120.53-20.3 157.64-55.2 32.39-29.8 50.4-68.5 53.47-114.9.44-3.4.66-9 .66-16.4 0-24.9-5.56-49.6-16.5-73.2-13.55-28.4-32.27-52.1-55.65-70.5-23.33-18.3-55.15-34-94.6-46.5l-27.38-9 21.1-14.4c83.93-56.8 128.6-88.8 136.58-97.7 4.47-5.9 6.66-12.4 6.66-19.6 0-7.1-1.93-13.6-5.73-19.3-3.93-5.9-9.41-9.6-16.27-11.1-1.88-.4-4.25-.7-7.14-.7-4.52 0-10.8 2.5-19.18 7.6-7.89 4.8-24.47 16.1-50.69 34.4-84.93 59.2-133.6 92.1-144.65 97.6l-10.19 4.9v-77.8c0-36.4-.99-58.2-3-66.8-2.25-9.4-8.39-15.4-18.25-17.9-1.4-.5-3.85-.8-7.26-.8" style="fill:#c22126;fill-opacity:1;fill-rule:nonzero;stroke:none" transform="matrix(.01447 0 0 -.01447 5.814 647.693)"/><path d="M6719.08 38080.2c4.75 4.3 10.36 6.4 16.84 6.4 4.75 0 8.63-1.3 11.66-3.9q5.82-4.5 40.8-57.9c23.31-35.6 43.15-67.9 59.57-96.8 15.11-26.4 30.21-50.4 45.33-72.2 15.11-21.8 24.39-32.7 27.85-32.7h.65c1.29 1.3 7.12 13.8 17.48 37.5 12.95 28.9 33.57 68.9 61.85 119.8 28.27 51 46.73 81.2 55.37 90.7 3.88 3.9 9.49 5.8 16.84 5.8 7.76 0 14.45-2.3 20.07-7.1 4.74-4.3 7.12-9.5 7.12-15.5 0-8.2-4.75-20.6-14.24-37-52.69-90.2-89.17-156.9-109.45-200.1-3.46-7.3-7.34-15.6-11.66-24.9s-7.77-16.6-10.35-22c-2.6-5.4-4.32-8.8-5.19-10.1-2.59-4.3-4.1-46.4-4.53-126.2l-1.29-93.9-7.77-7.8c-5.18-5.2-11.45-7.8-18.79-7.8q-12.3 0-20.07 8.4c-3.89 4.8-5.83 16.5-5.83 35 0 2.6.43 26.4 1.29 71.3l1.95 123-27.2 34.3c-27.2 35-50.95 72.8-71.24 113.3-6.04 11.7-22.23 39.1-48.56 82.3-24.61 39.7-36.91 64.1-36.91 73.2 0 5.1 2.8 10.1 8.41 14.9" style="fill:#fff;fill-opacity:1;fill-rule:nonzero;stroke:none" transform="matrix(.01447 0 0 -.01447 5.814 647.693)"/><path d="M6735.92 38083.4c-5.69 0-10.49-1.9-14.67-5.6l-.08-.1c-4.88-4.2-7.26-8.2-7.26-12.4 0-5.8 6.31-22.9 36.42-71.5 26.27-43.1 42.65-70.8 48.69-82.5 20.12-40.2 43.97-78.1 70.92-112.8l27.91-35.2-.02-1.1-1.95-123.1c-.9-46.8-1.3-68.7-1.3-71.2 0-22 2.78-30 5.1-32.9 4.46-4.8 10.24-7.2 17.56-7.2 6.51 0 11.92 2.2 16.5 6.8l6.83 6.8 1.27 92.6c.66 120.7 3.6 125.6 5 127.9.61.9 1.9 3.3 5.05 9.8 2.57 5.4 6.03 12.7 10.33 22q6.465 13.95 11.67 24.9c20.22 43.1 57.08 110.5 109.58 200.4 9.14 15.8 13.79 27.7 13.79 35.3 0 5.1-1.98 9.4-6.06 13.1-4.96 4.2-10.85 6.3-17.88 6.3-6.51 0-11.27-1.6-14.55-4.9-8.34-9.2-26.84-39.5-54.83-90-28.11-50.6-48.88-90.8-61.72-119.5-15.76-36.1-17.26-37.6-18.15-38.5l-.95-1h-1.34c-3.98 0-9.36 2.7-31.17 34.1-15.03 21.7-30.33 46.1-45.47 72.5-16.43 28.9-36.44 61.4-59.48 96.6-28.68 43.8-37.63 55.3-40.07 57.2-2.57 2.2-5.69 3.2-9.67 3.2m181.32-562.1c-9.1 0-16.65 3.2-22.45 9.4-4.61 5.7-6.7 17.4-6.7 37.2 0 2.5.4 23.9 1.29 71.3l1.94 121.9-26.49 33.4c-27.23 35-51.3 73.3-71.59 113.9-5.95 11.5-22.27 39.1-48.44 82-25.15 40.6-37.38 65.1-37.38 74.9 0 6.1 3.21 11.9 9.51 17.3 5.35 4.8 11.74 7.3 18.99 7.3 5.53 0 10.14-1.6 13.76-4.7 2.55-2 9.77-10.3 41.42-58.6 23.1-35.3 43.18-68 59.68-97 15.03-26.2 30.24-50.4 45.16-72 15.74-22.7 22.03-29 24.41-30.7 1.61 3 5.73 11.6 15.94 35 12.92 28.9 33.77 69.3 61.98 120.1 28.64 51.6 46.89 81.5 55.8 91.3 4.59 4.6 11.04 6.9 19.25 6.9 8.51 0 15.97-2.7 22.17-7.9 5.51-5 8.26-11.1 8.26-18 0-8.9-4.8-21.5-14.67-38.6-52.41-89.7-89.18-157-109.33-199.8-3.45-7.4-7.33-15.7-11.64-25-4.34-9.3-7.79-16.6-10.37-22-3.59-7.5-4.8-9.5-5.41-10.4-1.19-2.6-3.44-22.5-4-124.5l-1.32-95.3-8.68-8.7c-5.8-5.8-12.89-8.7-21.09-8.7" style="fill:#c22126;fill-opacity:1;fill-rule:nonzero;stroke:none" transform="matrix(.01447 0 0 -.01447 5.814 647.693)"/><path d="M6863.24 36279.8c-104.17 0-229.3 16.3-235.49 17.1-13.69 1.8-23.34 14.3-21.53 28 1.8 13.7 14.29 23.5 28.05 21.6 1.73-.3 175.1-22.8 278.67-15.1 111.57 8.4 574.09 163.8 578.75 165.3 13.1 4.4 27.27-2.6 31.67-15.7 4.41-13.1-2.63-27.2-15.72-31.7-19.26-6.4-473.2-158.9-590.97-167.7-16.6-1.3-34.68-1.8-53.43-1.8" style="fill:#231f20;fill-opacity:1;fill-rule:nonzero;stroke:none" transform="matrix(.01447 0 0 -.01447 5.814 647.693)"/><path d="M7492.89 36589.7c-30.89-16-60.48-31.8-88.35-48.9-27.91-17-54.86-34.3-80.53-53.5-3.34-2.2-6.43-4.8-9.52-7.4l-9.55-7.3c-6.37-4.9-12.93-9.5-18.97-14.9-6.13-5.2-12.67-10-19.04-15-6.27-5.2-12.23-10.7-18.74-15.8-6.4-5.2-13.07-10.2-19.09-15.9-6.35-5.5-12.81-10.9-19.57-16.2-13.27-10.8-25.94-22.5-41.65-32.8l-.71-.5c-4.25-2.8-9.96-1.6-12.75 2.7-1.42 2.1-1.8 4.7-1.29 7a241 241 0 0 0 7.65 26.9c3.15 8.7 5.91 17.8 10.26 25.9 8.49 16.3 16.86 33.2 28.4 47.8 5.42 7.5 11.24 14.8 17.02 22.2 6.46 6.6 12.73 13.6 19.42 20.1 3.36 3.3 6.55 6.7 10.06 9.8s7.22 5.9 10.83 8.9c7.32 5.9 14.35 12.1 22.28 17.2 30.6 21.6 64.93 38.1 100.78 48.7 36.02 10.2 73.41 15.5 111.58 8.3 4.88-.9 8.09-5.6 7.18-10.5-.53-2.8-2.32-5-4.67-6.3z" style="fill:#307956;fill-opacity:1;fill-rule:nonzero;stroke:none" transform="matrix(.01447 0 0 -.01447 5.814 647.693)"/><path d="M7492.9 36589.7h.13zm-257.51-112.1-1.84-2.4c-4.69-5.9-9.37-11.8-13.76-18-9.79-12.3-16.83-25.9-24.29-40.3l-1.13-2.2c6.6 5.2 12.59 10.2 18.48 15.3 4.44 4.2 9.92 8.6 15.23 12.8l4.38 3.5c3.91 3.1 7.27 6 10.64 8.9 2.62 2.3 5.25 4.6 7.92 6.8l7.2 5.6c3.91 3 7.81 6 11.51 9.2 4.66 4.1 9.96 8.1 15.25 12.1l14.31 10.9c3 2.5 6.53 5.4 10.3 7.9 22.73 17 48.05 33.8 81.95 54.5 12.03 7.4 24.35 14.5 36.53 21.3-13-1.8-26.74-4.7-41.47-8.8-33.45-9.9-64.89-25.2-93.09-45.1-5.8-3.8-10.58-7.7-15.63-11.8l-9.24-7.6c-2.1-1.6-4.2-3.3-6.22-5.1-1.85-1.6-3.62-3.4-5.4-5.2l-3.74-3.7c-4.1-4-8.07-8.3-12.03-12.5zm-73.31-142.6c-2.31 0-4.62.2-6.91.7-8.95 1.9-16.63 7.1-21.65 14.7-5.02 7.7-6.79 17.2-4.81 26.2 2.29 10.2 5.11 20.1 8.44 29.7l2.04 5.8c2.56 7.3 5.48 15.7 9.81 23.7l2.1 4.1c8.24 15.9 16.74 32.3 28.77 47.4 4.08 5.8 9.23 12.3 14.42 18.9l4.17 5.1 6.4 6.7c4.45 4.8 8.91 9.5 13.55 14l3.19 3.2c2.53 2.5 5.09 5.1 7.79 7.5 2.59 2.2 5.21 4.3 7.82 6.5l8.96 7.2c5.98 4.9 12.17 10 19.47 14.7 31.65 22.4 68.03 40 107.09 51.6 46.67 13.2 85.75 16 123.29 8.9 8.95-1.7 16.69-6.7 21.81-14.2s7-16.6 5.31-25.5c-1.91-10.2-8.32-18.9-17.59-23.8l-1.18-.6c-26.59-13.7-57.69-30.2-86.76-48-32.82-20-57.04-36.1-78.58-52.2l-1.3-1c-2.5-1.6-4.79-3.6-7.1-5.5l-15.6-11.9c-4.25-3.2-8.5-6.4-12.5-9.9-4.67-4-9.18-7.5-13.74-11l-6.3-4.9c-2.01-1.7-4.34-3.7-6.66-5.7-4.01-3.5-8.04-6.9-12.26-10.2l-4.36-3.5c-4.39-3.5-8.82-7-12.92-10.9-7.56-6.5-14.29-12.1-21.33-17.7-2.93-2.4-6.2-5.1-9.49-7.9-10.31-8.7-20.94-17.6-33.87-26.1-6.2-4.1-12.84-6.1-19.52-6.1" style="fill:#231f20;fill-opacity:1;fill-rule:nonzero;stroke:none" transform="matrix(.01447 0 0 -.01447 5.814 647.693)"/><path d="M7344.23 36220.1c-25.44 17.7-50.5 34.6-76.17 48.2-25.57 13.9-51.52 25.7-78.81 33.8-6.67 2.6-13.66 4-20.6 5.6-6.96 1.6-13.78 4-20.96 4.6l-21.39 3.6c-7.2 1-14.5 1.1-21.82 1.9-7.34.8-14.74 1.6-22.19 1.3-7.47.1-15 .2-22.65.5-15.24.1-30.55-1.4-46.76-.8h-1.06a8.89 8.89 0 0 0-8.52 9.2 8.8 8.8 0 0 0 4.69 7.5c7.28 3.9 14.78 7.4 22.4 10.7 3.8 1.7 7.63 3.4 11.5 5 3.85 1.7 7.76 3.3 11.82 4.2 8.03 2.3 16.19 4.4 24.4 6.4 4.13.9 8.22 2.2 12.42 2.8l12.65 1.4c8.48.9 17.01 1.8 25.57 2.3l25.83-1c8.66-.1 17.18-1.8 25.73-3.3 8.51-1.6 17.19-2.7 25.41-5.6 33.69-8.8 65.24-25.3 91.8-47.1 6.71-5.4 12.8-11.5 18.96-17.4 5.88-6.2 11.55-12.6 16.78-19.3 10.37-13.7 19.24-27.9 25.34-44.7 1.69-4.7-.7-9.8-5.35-11.5-2.83-1-5.83-.5-8.14 1.1z" style="fill:#307956;fill-opacity:1;fill-rule:nonzero;stroke:none" transform="matrix(.01447 0 0 -.01447 5.814 647.693)"/><path d="M7197.22 36325.9c26.21-7.9 52.53-19.2 82.74-35.6 3.2-1.7 6.39-3.4 9.59-5.2-2.58 2.4-5.1 4.6-7.66 6.7-24.54 20.1-52.98 34.7-82.5 42.4l-2.08.7c-4.21 1.5-9.48 2.4-15.06 3.4l-9.24 1.6c-6.76 1.2-13.15 2.3-18.82 2.4l-25.24.9c-4.86-.2-9.71-.7-14.55-1.1l2.2-.2c4.31-.3 8.61-.6 12.89-1.2l21.45-3.6c6.56-.6 12.3-2.1 17.41-3.5 1.91-.5 3.83-1 5.74-1.4l4.65-1.1c5.62-1.4 11.97-2.8 18.48-5.2m152.98-133c-6.83 0-13.58 2-19.33 6l-.96.7c-27.17 18.9-50.08 34.2-73.6 46.7-27.58 14.9-51.1 25-74.18 31.9l-1.77.6c-3.69 1.4-8.22 2.4-13 3.6l-4.63 1.1c-2.08.4-4.62 1.1-7.17 1.8-3.76.9-7.31 1.9-10.03 2.1l-2.01.3-21.37 3.6c-2.34.3-5.69.5-9.04.7-3.83.3-7.67.6-11.52 1-7.16.7-13.15 1.3-18.29 1.2-8.99 0-16.81.1-24.76.5-5.08 0-11.17-.3-17.34-.5-9.31-.4-18.91-.8-29.23-.4-10.1.4-18.48 4.2-24.64 10.8-6.14 6.7-9.35 15.3-9.01 24.3.43 12 7.29 23 17.89 28.6 7.15 3.8 14.79 7.5 24.11 11.6 3.84 1.7 7.96 3.6 12.13 5.3 3.46 1.5 9.04 3.8 15.49 5.4 7.19 2 15.63 4.2 24.14 6.3l4.22 1c3.63.9 7.26 1.8 10.96 2.3l13.12 1.5c9.05 1 18.06 1.9 27.12 2.3l1.08.1 26.91-1c9.12-.1 18.18-1.7 26.17-3.1l9.23-1.7c6.74-1.2 14.32-2.5 22.14-5.2 36.09-9.5 70.76-27.4 100.34-51.7 6.06-4.8 11.54-10.1 16.84-15.2l4.49-4.3c7.38-7.9 13.2-14.6 18.31-21.2 13.58-17.8 22.78-34.1 29.09-51.5 6.4-17.5-2.7-37.1-20.27-43.5-3.78-1.3-7.71-2-11.63-2" style="fill:#231f20;fill-opacity:1;fill-rule:nonzero;stroke:none" transform="matrix(.01447 0 0 -.01447 5.814 647.693)"/><path d="M7060.99 36100.8c-4.75 26.9-10.72 53.1-19.68 76-8.86 23-20.95 42.6-36.75 58.2-15.69 15.7-35.54 27.8-58.7 37.2-23.06 9.8-48.95 16.6-76.54 24.6h-.12c-4.81 1.4-7.57 6.5-6.17 11.3.87 3 3.18 5.2 5.93 6.1 28.47 9.2 59.17 11.4 90.25 6.1 30.85-5.2 62.74-19.6 86.68-43.9 24.25-24 38.86-56.1 43.43-87.5 4.45-31.6 1.35-62.5-11.2-91.2-1.98-4.5-7.25-6.5-11.76-4.6-2.82 1.3-4.67 3.8-5.19 6.6z" style="fill:#307956;fill-opacity:1;fill-rule:nonzero;stroke:none" transform="matrix(.01447 0 0 -.01447 5.814 647.693)"/><path d="m6954.54 36295.7 1.05-.5c27.27-11.1 49.16-25 66.65-42.5 17.6-17.4 31.84-39.7 42.18-66.3-4.21 27.3-17.34 53.7-36.11 72.2-18.84 19.2-44.76 32.2-73.26 37zm131.26-191.7h.13zm-15.9-36.6c-4.54 0-9.16.9-13.59 2.8-10.33 4.6-17.71 13.9-19.74 25l-.21 1.2c-5.35 30.3-11.17 53-18.32 71.3-7.83 20.3-18.26 36.9-31.02 49.5-12.83 12.8-29.34 23.2-50.61 31.9-18.13 7.6-38.69 13.5-60.44 19.8l-13.65 3.9c-18.15 5.3-28.55 24.2-23.31 42.3 3.16 10.8 11.4 19.3 22.07 22.8 33.11 10.7 67.5 13 102.41 7 38.67-6.5 74.31-24.6 100.23-51 26.69-26.4 44.66-62.5 50.34-101.4 5.32-37.7.93-73-13.04-104.8-5.58-12.7-18.06-20.3-31.12-20.3" style="fill:#231f20;fill-opacity:1;fill-rule:nonzero;stroke:none" transform="matrix(.01447 0 0 -.01447 5.814 647.693)"/><path d="M7605.3 36392.6c-12.04-13.2-25.54-22.3-40.03-30.6-14.4-8.4-29.78-14.6-45.45-19.9-31.45-10.3-64.4-14.7-97.04-15.4-8.16 0-16.33 0-24.48.2-8.11.5-16.2 1.4-24.26 2.3-16.23 1.3-31.94 5.3-47.68 8.7-15.62 3.9-30.79 9.5-45.8 15-14.73 6.5-29.18 13.6-42.97 22-4.24 2.6-5.57 8.2-2.98 12.4 1.63 2.7 4.42 4.2 7.32 4.3h.63c16.07.5 31.44-.5 46.61-1.7 15.31-.4 30.26-1.8 45.14-2.8 7.46-.2 14.85-.8 22.24-1.2 3.68-.3 7.36-.7 11.04-.8s7.35-.2 11.02-.4c7.33-.2 14.65-.6 21.95-1 7.29.1 14.57-.1 21.86-.2 29.07-.1 58 1.1 86.8 4.7 28.55 3.6 58.03 9.2 85.6 18.2l1.23.5c4.62 1.5 9.59-1 11.11-5.7 1.03-3.1.2-6.4-1.86-8.6" style="fill:#47b173;fill-opacity:1;fill-rule:nonzero;stroke:none" transform="matrix(.01447 0 0 -.01447 5.814 647.693)"/><path d="M7605.3 36392.6h.13zm-272.79-30.4 8.07-1.8c12.32-2.8 23.97-5.4 35.4-6.3 8.73-.9 16.31-1.7 23.9-2.2 7.05-.2 15.01-.2 22.83-.2 26.98.6 52.38 3.9 75.48 10.1-23.13-2.3-48.19-3.5-75.81-3.3-7.51.1-14.49.3-21.5.2h-1.81c-7.06.4-14.13.8-21.23 1.1-3.65.1-7.02.2-10.44.3-3.49.1-6.32.3-9.14.6l-8.63.6c-5.33.3-10.67.6-16.05.8zm84.56-60.5c-6.63 0-13.07 0-19.5.2-9.19.6-17.49 1.5-25.79 2.4-14.7 1.1-28.65 4.3-42.15 7.3l-8.57 1.9c-17.72 4.4-33.68 10.3-49.12 15.9l-1.51.7c-18.22 8-32.81 15.5-45.88 23.5-7.74 4.7-13.18 12.2-15.31 21-2.14 8.9-.7 18 4.03 25.7 5.92 9.8 16.29 15.8 27.7 16.3 17.94.5 34.29-.5 49.51-1.8 10.78-.2 21.41-1 31.95-1.8 4.49-.3 9-.7 13.48-1 5.09-.1 10.98-.5 16.87-.8l9.85-.7c1.93-.2 3.87-.4 5.81-.4 3.3-.1 7.26-.2 11.2-.4 7.02-.2 14.29-.6 21.52-1 7.31.1 14.56-.1 21.83-.2 30.38 0 58.24 1.4 83.16 4.5 31.24 3.9 57.72 9.6 80.84 17.2 9.81 3.2 18.96 2.5 27.05-1.5 8.05-4.1 14.06-11.1 16.86-19.6 3.82-11.6 1.09-24.4-7.14-33.4h-.02c-15.09-16.5-31.71-27.1-45.98-35.4-14-8.1-29.88-15.1-49.9-21.9-31.6-10.3-66.7-15.9-104.56-16.7z" style="fill:#231f20;fill-opacity:1;fill-rule:nonzero;stroke:none" transform="matrix(.01447 0 0 -.01447 5.814 647.693)"/><path d="M7059.57 36530.2c1.49-18.2-.92-35.1-5.1-51.9-2.16-8.4-4.93-16.6-7.96-24.7-3.44-7.9-6.76-16-10.95-23.6-16.45-30.7-40.03-58.1-68.64-78.8-6.68-5.8-14.53-10-21.97-14.6-7.54-4.6-15.01-9.2-23.15-12.5-8.03-3.5-16.11-6.8-24.12-10.1-8.29-2.7-16.68-4.9-25.04-7l-12.51-3c-4.18-1-8.51-1.2-12.74-1.7-8.51-1-16.97-1.8-25.4-2.3-4.18-.5-8.42-.3-12.66 0-4.23.2-8.46.5-12.66.9-8.39.7-16.71 1.6-24.94 3-4.88.8-8.17 5.4-7.34 10.3.49 2.9 2.35 5.3 4.8 6.5l.99.5c14.8 7.3 29.45 12.1 43.42 18.3 6.9 3.3 13.76 6.4 20.57 9.4 6.93 2.6 13.38 6.2 19.8 9.8 6.37 3.6 12.99 6.4 19.21 10 6.08 3.9 12.09 7.7 18.17 11.3 6.33 3.3 11.65 8 17.44 12 5.72 4.1 11.59 7.9 16.77 12.6 21.97 17.3 41.56 37.3 60.64 58.8 19.28 21.5 37.2 45.4 56.41 70.7l.67.9c3.04 3.9 8.74 4.7 12.74 1.7 2.12-1.6 3.34-4 3.55-6.5" style="fill:#47b173;fill-opacity:1;fill-rule:nonzero;stroke:none" transform="matrix(.01447 0 0 -.01447 5.814 647.693)"/><path d="M6903.54 36358.2c-4.69-2.8-9.35-5.8-14.05-8.7l-2.97-1.9c-4.46-2.6-8.22-4.5-12.01-6.4-2.73-1.4-5.49-2.8-8.2-4.3l-1.95-1.1c-4.95-2.7-10.41-5.7-16.41-8.3l1.22.1c1.86.2 3.72.4 5.54.8l11.95 2.9c7.47 1.9 15 3.9 22.47 6.2l2.4 1c6.74 2.8 13.51 5.6 20.23 8.5 6.37 2.6 12.33 6.2 18.64 10l7.16 4.3c4.91 3 9.56 5.8 12.98 8.8l1.73 1.3c25.11 18.2 46.3 42.5 61.26 70.4 3.1 5.7 5.69 11.7 8.45 18.1l1.59 3.7c1.13 3 2.19 6 3.15 9-7.16-8.9-14.41-17.5-21.95-25.9-22.62-25.6-42.72-45.1-63.07-61.2-5.11-4.6-10.41-8.3-15.12-11.6l-3.29-2.3c-2.01-1.4-3.59-2.6-5.17-3.7-4.15-3.2-8.82-6.7-14.58-9.7m-87.06-83.5c-2.68 0-5.7.1-9.09.4-3.8.1-8.41.5-12.99.9-10.22.8-18.82 1.8-26.82 3.2-18.45 3.1-30.95 20.7-27.85 39.1 1.82 10.7 8.62 19.9 18.19 24.7 11.07 5.5 20.58 9.3 29.77 12.9 5.37 2.1 10.66 4.2 15.86 6.5 6.28 3 13.46 6.3 20.59 9.4 5.87 2.2 10.87 5 16.18 7.9l1.67.9c3.11 1.8 6.62 3.5 10.13 5.3 2.88 1.4 5.76 2.9 8.53 4.5l2.1 1.3c5.26 3.3 10.51 6.7 15.77 9.8l1.48.8c2.29 1.2 5.11 3.3 8.09 5.5 2.18 1.7 4.34 3.3 6.56 4.8l3.25 2.3c4.04 2.8 7.84 5.5 10.78 8.2l1.4 1.2c18.16 14.3 36.4 32 57.39 55.7 16.8 18.7 32.68 39.5 49.48 61.7l5.77 7.5c12.08 15.9 33.53 18.7 48.46 7.4 7.57-5.8 12.43-14.6 13.3-24.1l.02-.3c1.54-18.8-.28-37.9-5.76-59.9-2.23-8.6-5-17.2-8.8-27.4l-2.02-4.8c-3.12-7.2-6.32-14.7-10.47-22.2-18.22-33.9-44.19-63.9-75.04-86.4-6.41-5.4-13.09-9.4-19.03-13l-7.19-4.4c-7.33-4.4-15.65-9.4-25.02-13.2-6.38-2.8-13.48-5.7-20.55-8.6l-5.4-2.2c-8.79-2.8-17.67-5.1-26.54-7.3l-12.57-3.1c-4.22-1-7.97-1.4-11.72-1.8l-3.61-.4c-9.63-1.1-18.44-1.9-27.24-2.5-2.01-.2-4.35-.3-7.06-.3" style="fill:#231f20;fill-opacity:1;fill-rule:nonzero;stroke:none" transform="matrix(.01447 0 0 -.01447 5.814 647.693)"/><path d="M7240.33 36645.2c7.47-39 3.86-77.9-5.56-115.9-9.8-37.9-26.96-74.4-50.47-106.7-11.82-16.1-25.43-31-40.12-44.5-14.92-13.4-31.2-25.1-48.31-35.1-34.57-19.4-72.57-31.8-111.17-33.7-4.98-.3-9.21 3.5-9.47 8.5-.16 3.3 1.42 6.2 3.92 7.9l.14.1c30.74 21 59.11 40.8 84.74 62.8 25.35 22.3 47.92 46.3 67.85 72.7 19.65 26.7 36.83 55.5 51.62 86.4 14.84 30.8 27.74 63.8 39.43 97.9l.29.8c1.59 4.6 6.64 7.1 11.28 5.5 3.11-1.1 5.24-3.7 5.83-6.7" style="fill:#47b173;fill-opacity:1;fill-rule:nonzero;stroke:none" transform="matrix(.01447 0 0 -.01447 5.814 647.693)"/><path d="m7246.88 36638.3-.02-.1zm-31.88-82.1c-2.97-6.7-5.97-13.1-8.99-19.4-15.46-32.3-33.65-62.7-54.03-90.3-20.77-27.6-44.09-52.6-71.44-76.7-6.66-5.7-13.49-11.3-20.44-16.7 7.92 3.4 15.77 7.4 23.52 11.7 15.67 9.2 30.57 20 43.89 31.9 13.9 12.8 26.32 26.6 36.63 40.7 21.32 29.3 37.38 63.3 46.42 98.2 1.74 7 3.22 13.9 4.44 20.6m-230.83-271.9c-8.41 0-16.44 3-22.73 8.7-6.76 6.1-10.72 14.5-11.18 23.6-.58 11.9 4.94 23 14.77 29.8 29.22 19.9 57.39 39.4 82.7 61.2 24.54 21.6 45.6 44.1 64.17 68.8 18.36 24.8 34.91 52.5 49.03 82.1 13.14 27.2 25.68 58.3 38.37 95.2 3.19 9.3 9.28 16.3 17.42 20.2 8.16 4 17.38 4.6 25.92 1.6 11.41-3.9 19.94-13.7 22.24-25.6 7.51-39 5.59-80.5-5.84-126.6-10.66-41.2-29.48-81-54.51-115.4-12.26-16.8-26.85-32.9-43.39-48.2-16.1-14.4-33.71-27.2-52.63-38.3-39.67-22.3-81.91-35-122.55-37.1z" style="fill:#231f20;fill-opacity:1;fill-rule:nonzero;stroke:none" transform="matrix(.01447 0 0 -.01447 5.814 647.693)"/><path d="M7374.1 36447.7c11.43 13.2 23.94 23.9 36.81 34 12.9 10 26.24 19.1 40.04 27.4 13.85 8.2 27.95 16 42.74 22.7 15.02 6.9 29.28 12.8 48.29 18.2 35.88 9.2 68.48 10.1 100.13 10.1 15.83 0 31.52-.8 47.26-1.6 15.76-1 31.58-2 47.99-4.3h.29c6.68-.9 11.35-7.1 10.44-13.8-.52-3.7-2.74-6.9-5.73-8.7-28.93-17.7-60.63-28.6-91.48-37.2-30.8-8.7-61.28-14.5-86.24-22.5-3.19-.9-6.03-2.1-9.07-3-3.27-1.3-6.67-2.7-10.11-3.8-7.01-2.6-14.01-5.4-21.3-7.8-14.41-5.3-29.35-9.9-44.43-14.4-30.44-8.3-61.65-15.5-95.91-16.2-6.96-.2-12.73 5.4-12.88 12.3-.07 3.3 1.1 6.3 3.08 8.6z" style="fill:#47b173;fill-opacity:1;fill-rule:nonzero;stroke:none" transform="matrix(.01447 0 0 -.01447 5.814 647.693)"/><path d="M7639.01 36535.1c-28.17 0-58.3-.9-90.76-9.3-16.44-4.7-29.14-9.9-44.14-16.8-15.34-6.9-29.67-15.1-40.47-21.4-12.71-7.7-25.35-16.3-37.4-25.7-2.83-2.2-5.79-4.6-8.82-7.1 19.46 2.9 38.07 7.5 55.73 12.4 12.5 3.6 27.71 8.2 42.34 13.6 4.91 1.7 8.98 3.2 13 4.7 2.87 1.1 5.69 2.2 8.53 3.2 2.37.8 4.14 1.5 5.89 2.2l7.86 2.8c2.31.9 4.64 1.7 7.13 2.4 13.9 4.4 29.88 8.3 46.82 12.4 12.76 3.1 26.04 6.3 39.37 10.1 13.53 3.8 29.21 8.5 45.28 14.8l-1.47.1c-14.49.8-30.18 1.6-45.82 1.6zm-246-103.7h-.01Zm-9.5-29.6c-9.73 0-18.93 3.7-25.98 10.4-7.26 7-11.37 16.3-11.58 26.4-.23 9.3 3.04 18.4 9.2 25.5l.1.1c13.61 15.6 27.97 27.5 40.22 37.1 13.71 10.7 28.01 20.5 42.6 29.2 12.06 7.2 27.94 16.2 45.33 24.1 16.6 7.6 31.84 13.8 51.84 19.4 39.86 10.4 74.57 11.1 106.92 11.1 16.8 0 33.29-.8 48.59-1.7 15.73-.9 32.44-2 50-4.4 20.62-2.8 34.88-21.6 32.11-41.9-1.51-11.1-7.85-20.8-17.38-26.7-33.66-20.6-69.98-32.2-97.87-40-13.89-3.9-27.76-7.3-41.12-10.5-16.04-3.9-31.18-7.6-44.24-11.7-2.24-.7-3.49-1.1-4.75-1.6-1.43-.5-2.84-1-4.31-1.5l-2.03-.8c-2.57-1-5.2-2-7.84-2.9l-7.19-2.7c-4.62-1.7-9.28-3.5-14.06-5.1-15.31-5.6-31.55-10.5-45.33-14.6-31.27-8.5-64.95-16.4-102.38-17.2zm-1139-138.2c-28.51 0-56.35 1-80.89 3.4-117.54 11.7-567.63 175.1-586.74 182.1-12.98 4.7-19.67 19-14.95 32 4.73 13 19.05 19.7 32.05 14.9 4.62-1.6 463.26-168.2 574.58-179.2 103.3-10.3 277.18 8.1 278.95 8.2 13.78 1.6 26.06-8.4 27.52-22.2 1.47-13.7-8.47-26-22.21-27.5-5.66-.6-110.8-11.7-208.31-11.7" style="fill:#231f20;fill-opacity:1;fill-rule:nonzero;stroke:none" transform="matrix(.01447 0 0 -.01447 5.814 647.693)"/><path d="M5595.02 36589c30.5-16.7 59.7-33.3 87.14-51 27.5-17.7 54.02-35.6 79.21-55.5 3.29-2.3 6.32-4.9 9.35-7.5l9.37-7.6c6.24-5 12.69-9.8 18.6-15.3 6-5.4 12.42-10.4 18.66-15.6 6.15-5.3 11.98-11 18.36-16.2 6.27-5.3 12.82-10.5 18.7-16.4 6.22-5.5 12.55-11.1 19.18-16.6 13-11.1 25.38-23.1 40.84-33.8l.7-.5c4.18-2.9 9.91-1.8 12.8 2.3 1.47 2.2 1.92 4.7 1.46 7.1-1.83 9.1-4.15 18.2-6.99 27-2.94 8.8-5.48 18-9.63 26.2-8.09 16.5-16.05 33.6-27.24 48.4-5.23 7.7-10.88 15.1-16.48 22.6-6.28 6.8-12.38 13.9-18.92 20.6-3.27 3.4-6.38 6.9-9.82 10-3.44 3.2-7.08 6.2-10.61 9.2-7.18 6.1-14.06 12.5-21.86 17.7-30.07 22.4-63.99 39.7-99.57 51.2-35.77 11-73.02 17.2-111.35 11-4.89-.8-8.22-5.4-7.43-10.3.47-2.8 2.19-5.1 4.52-6.4z" style="fill:#307956;fill-opacity:1;fill-rule:nonzero;stroke:none" transform="matrix(.01447 0 0 -.01447 5.814 647.693)"/><path d="m5606.18 36611.4-11.16-22.4 12 21.9zm170.12-108.8c3.63-2.6 7.04-5.5 10.42-8.4l13.7-11c5.21-4.1 10.41-8.3 15.31-12.8 3.29-3 7.1-6.1 10.93-9.2l6.7-5.5c3-2.5 5.6-4.9 8.2-7.3 3.27-2.9 6.54-5.9 10.01-8.7l4.79-4.1c5.14-4.3 10.48-8.7 15.71-13.9 4.93-4.4 10.88-9.7 17.14-14.9l-1.03 2.1c-7.12 14.6-13.84 28.4-22.6 40-4.96 7.3-9.49 13.3-14.03 19.3l-1.82 2.5-5.49 6c-3.93 4.4-7.87 8.8-11.98 13l-3.57 3.7c-1.76 1.9-3.49 3.8-5.36 5.5-2.02 1.8-4.12 3.6-6.22 5.4l-8.92 7.6c-4.93 4.3-9.61 8.3-14.26 11.4-28.75 21.4-59.81 37.4-93.34 48.2-14.49 4.5-28.06 7.7-40.96 9.7 12.08-7.1 24.25-14.5 36.11-22.2 33.36-21.4 58.27-38.9 80.56-56.4m143.98-176.2c-6.89 0-13.61 2-19.39 6.1-13.41 9.2-23.85 18.5-33.95 27.4-3.2 2.8-6.4 5.7-9.63 8.4-6.54 5.4-13.12 11.2-19.59 17-4.88 4.8-9.18 8.4-13.45 12l-4.76 4c-3.77 3.1-7.67 6.6-11.57 10.1-2.3 2.1-4.59 4.2-6.94 6.2l-5.86 4.8c-4.46 3.6-8.9 7.3-13.15 11.1-4.24 3.9-8.42 7.2-12.58 10.5l-15.41 12.4c-2.25 1.9-4.44 3.9-6.87 5.6l-1.24.9c-21.13 16.6-44.95 33.3-77.24 54.1-28.5 18.4-59.28 35.6-85.64 50.1l-.97.5c-9.33 5.2-15.54 14-17.23 24.4-2.99 18.5 9.62 36 28.13 39 37.65 6.1 76.67 2.4 122.7-11.8 39.07-12.6 75.01-31.1 107.14-55.1 6.15-4 12.2-9.3 18.04-14.3l8.65-7.4c2.63-2.2 5.28-4.5 7.81-6.8 2.67-2.5 5.19-5.1 7.68-7.7l3.01-3.2c4.65-4.7 9.07-9.6 13.48-14.5l10.11-12c5-6.6 9.99-13.3 14.65-20.1 10.94-14.5 19.07-31.1 26.92-47.2l2.09-4.3c4-7.9 6.71-16.3 9.1-23.7l1.79-5.5c3.2-10 5.78-20 7.8-30.2 1.78-9-.18-18.5-5.38-26.1-5.23-7.5-13.04-12.5-22.02-14.2-2.09-.4-4.16-.5-6.23-.5" style="fill:#231f20;fill-opacity:1;fill-rule:nonzero;stroke:none" transform="matrix(.01447 0 0 -.01447 5.814 647.693)"/><path d="M5734.69 36215.9c25.86 17.1 51.32 33.4 77.32 46.4 25.9 13.2 52.13 24.4 79.6 31.9 6.73 2.4 13.76 3.6 20.73 5.1 6.99 1.4 13.88 3.6 21.07 4.1l21.46 3c7.23.8 14.53.8 21.87 1.4 7.35.6 14.77 1.3 22.22.8 7.46-.1 14.99-.2 22.65-.1 15.24-.3 30.5-2.1 46.73-2l1.05.1c4.89 0 8.8 4 8.74 8.9-.03 3.3-1.86 6.1-4.51 7.6-7.17 4.1-14.59 7.7-22.13 11.3-3.75 1.8-7.54 3.6-11.38 5.3-3.8 1.8-7.67 3.4-11.71 4.5-7.97 2.5-16.07 4.7-24.23 7-4.11 1-8.16 2.4-12.35 3l-12.62 1.8c-8.44 1.1-16.95 2.2-25.51 2.8l-25.84-.3c-8.66.1-17.22-1.4-25.8-2.7-8.55-1.4-17.26-2.2-25.54-5-33.89-8-65.84-23.7-92.92-44.9-6.83-5.2-13.06-11.1-19.37-16.9-6.03-6.1-11.86-12.3-17.24-18.9-10.7-13.4-19.91-27.4-26.42-44.1-1.8-4.6.47-9.8 5.07-11.6 2.8-1.1 5.82-.6 8.16.9z" style="fill:#307956;fill-opacity:1;fill-rule:nonzero;stroke:none" transform="matrix(.01447 0 0 -.01447 5.814 647.693)"/><path d="M5927.76 36333.5c-6.09 0-12.41-1-19.09-2l-9.12-1.4c-5.64-.8-10.95-1.6-15.21-3l-2.1-.6c-29.67-7-58.46-20.9-83.28-40.3-2.72-2.1-5.37-4.3-8.03-6.7q4.92 2.7 9.87 5.1c30.45 15.6 57.04 26.3 83.42 33.5 6.6 2.2 13 3.6 18.68 4.7l4.12.9c2.38.5 4.31 1 6.24 1.4 5.13 1.2 10.91 2.6 17.48 3.1l20.59 3c5.25.6 9.56.8 13.91 1l2.19.1q-7.215.9-14.55 1.5l-24.72-.3zm-183.9-116.5-.01-.1zm-22.97 19.7-.76-.5 14.56-20.3zm7.92-47.9c-4.17 0-8.34.8-12.3 2.4-8.45 3.3-15.1 9.7-18.73 18-3.64 8.3-3.82 17.5-.49 26 6.69 17.1 16.29 33.2 30.18 50.5 5.4 6.7 11.37 13.2 18.95 20.9l4.58 4.2c5.43 5 11.04 10.2 17.44 15 29.94 23.4 65.06 40.4 101.35 49.1 7.9 2.5 15.53 3.7 22.31 4.7l9.1 1.4c8.06 1.2 17.64 2.6 26.84 2.5l26.43.3 1.07-.1c9.05-.6 18.02-1.8 26.95-3l12.75-1.7c4.13-.7 7.75-1.6 11.35-2.6l3.47-.9c9.18-2.5 17.57-4.9 25.83-7.5 5.27-1.3 10.8-3.8 14.91-5.7 3.44-1.5 7.51-3.4 11.56-5.4 9.04-4.2 16.58-8.1 23.52-12 10.55-6 17.1-17.1 17.25-29.1.12-9-3.29-17.5-9.59-24-6.33-6.5-14.79-10.1-23.84-10.2-11.39-.2-20.96.4-30.27 1-6.16.4-12.25.8-18.33.9-6.96-.1-14.77 0-22.51.1-6.51.3-12.38-.1-18.66-.6-4.75-.4-8.59-.6-12.42-.8-3.37-.1-6.71-.3-10.05-.6l-22.46-3.2c-2.75-.2-6.32-1-10.13-1.9-2.56-.6-5.1-1.2-7.68-1.7l-4.09-.9c-4.84-1-9.41-2-13.17-3.3l-1.77-.6c-23.24-6.3-47-15.8-74.79-30-23.96-12-47.21-26.6-74.83-44.9l-.85-.6c-5.76-3.8-12.32-5.7-18.88-5.7" style="fill:#231f20;fill-opacity:1;fill-rule:nonzero;stroke:none" transform="matrix(.01447 0 0 -.01447 5.814 647.693)"/><path d="M6014.97 36089.8c5.4 26.8 12 52.8 21.5 75.5 9.42 22.8 21.98 42.1 38.15 57.3 16.07 15.3 36.2 26.9 59.58 35.8 23.3 9.1 49.34 15.3 77.12 22.7h.12c4.84 1.3 7.73 6.3 6.45 11.1-.8 3-3.07 5.3-5.78 6.3-28.24 9.9-58.89 12.8-90.08 8.2-30.97-4.4-63.2-18-87.72-41.7-24.82-23.4-40.2-55.2-45.54-86.5-5.22-31.5-2.87-62.5 8.99-91.4 1.87-4.5 7.08-6.7 11.64-4.8 2.85 1.1 4.77 3.6 5.35 6.4z" style="fill:#307956;fill-opacity:1;fill-rule:nonzero;stroke:none" transform="matrix(.01447 0 0 -.01447 5.814 647.693)"/><path d="m6126.12 36282.1-.42-.1c-28.72-4.1-54.95-16.6-74-35-19.42-18.3-33.19-44.3-38.09-71.6 10.91 26.3 25.69 48.3 43.89 65.4 17.81 16.9 40.02 30.4 67.82 40.9zm-135.65-187.4-.21-.9 24.7-4zm15.57-38.1c-4.44 0-8.87.9-13.1 2.6-8.36 3.5-14.86 10.1-18.31 18.4-13.19 32.2-16.73 67.5-10.53 105 6.64 38.9 25.48 74.6 53.06 100.6 26.3 25.4 62.37 42.7 101.32 48.3 34.94 5.2 69.26 2 101.89-9.4 10.77-3.9 18.83-12.6 21.7-23.5 4.79-18.2-6.07-36.8-24.24-41.7l-13.94-3.6c-21.85-5.7-42.51-11.1-60.52-18.2-21.75-8.3-38.51-18.3-51.51-30.6-13.21-12.4-24.02-28.8-32.28-48.8-7.65-18.2-14.01-40.7-20.11-70.9l-.21-1c-2.32-11.3-9.95-20.4-20.42-24.7-4.12-1.7-8.46-2.5-12.8-2.5" style="fill:#231f20;fill-opacity:1;fill-rule:nonzero;stroke:none" transform="matrix(.01447 0 0 -.01447 5.814 647.693)"/><path d="M5477.88 36394.6c11.71-13.4 24.99-22.8 39.27-31.5 14.2-8.7 29.42-15.3 44.95-21 31.2-11 64.03-16.2 96.65-17.7 8.15-.2 16.32-.4 24.48-.4 8.12.3 16.22 1 24.3 1.7 16.26.9 32.06 4.5 47.88 7.6 15.71 3.5 31.01 8.7 46.15 13.9 14.88 6.1 29.5 12.8 43.49 20.9 4.3 2.5 5.77 8 3.28 12.3a9.05 9.05 0 0 1-7.22 4.5h-.62c-16.06.9-31.44.3-46.64-.6-15.32 0-30.3-1.1-45.19-1.7-7.47 0-14.87-.4-22.27-.7-3.68-.1-7.37-.5-11.05-.5-3.69.1-7.36 0-11.03-.1-7.34 0-14.67-.2-21.98-.5-7.28.3-14.56.3-21.85.3-29.06.7-57.96 2.6-86.67 6.8-28.44 4.3-57.78 10.6-85.12 20.4l-1.23.4c-4.57 1.6-9.61-.8-11.24-5.3-1.1-3.1-.36-6.4 1.66-8.8" style="fill:#47b173;fill-opacity:1;fill-rule:nonzero;stroke:none" transform="matrix(.01447 0 0 -.01447 5.814 647.693)"/><path d="M5832.52 36389.8h-.04zm-248.37-28.5c22.86-6.7 48.3-10.7 75.72-11.9 7.43-.2 15.34-.4 23.24-.4 6.89.3 14.6 1 22.32 1.6 12.2.7 23.89 3 36.25 5.5l8.03 1.5h-.04c-6.27 0-11.63-.2-16.96-.4l-8.72-.4c-2.79-.2-5.59-.4-8.39-.4-4.01 0-7.43 0-10.83-.1-7.4 0-14.49-.2-21.55-.5h-1.79c-7 .3-13.99.3-20.99.3-28.22.7-53.22 2.3-76.29 5.2m96.69-62.3c-7.98 0-15.37.2-22.76.4-38.3 1.7-73.26 8.2-104.34 19.2-20.16 7.4-35.85 14.7-49.67 23.2-13.99 8.5-30.34 19.6-45.04 36.4h-.02c-7.97 9.2-10.42 22-6.36 33.5 6.31 17.6 25.68 26.8 43.19 20.6 24.16-8.7 50.49-14.9 81.72-19.7 24.75-3.6 52.09-5.8 83.49-6.5 6.77 0 14.01 0 21.29-.3 7.26.3 14.53.5 21.82.5 3.65.1 7.61.2 11.59.1 1.25 0 3.19.2 5.11.3l9.89.4c5.91.3 11.82.5 17.78.5 3.64.2 8.16.4 12.69.6 10.53.6 21.14 1.1 31.91 1.1 15.22.9 31.63 1.5 48.76.6 12.16-.8 22.35-7.1 28.06-16.9 4.57-7.9 5.78-17.1 3.43-25.9-2.33-8.8-7.97-16.1-15.85-20.6-13.22-7.7-27.98-14.8-46.39-22.4l-1.52-.6c-15.58-5.3-31.67-10.8-48.73-14.6l-9.44-1.9c-13.55-2.7-27.57-5.5-42.58-6.3-7.7-.6-16.16-1.3-24.66-1.7z" style="fill:#231f20;fill-opacity:1;fill-rule:nonzero;stroke:none" transform="matrix(.01447 0 0 -.01447 5.814 647.693)"/><path d="M6026.78 36519c-1.94-18.1.07-35 3.84-52 1.96-8.4 4.53-16.6 7.36-24.9 3.25-7.9 6.37-16.1 10.38-23.8 15.7-31.1 38.61-59.1 66.71-80.5 6.53-5.9 14.28-10.3 21.6-15.1 7.43-4.7 14.79-9.6 22.85-13 7.93-3.8 15.93-7.3 23.87-10.8 8.22-2.8 16.55-5.2 24.86-7.5l12.43-3.4c4.15-1 8.49-1.3 12.69-2 8.5-1.1 16.93-2.1 25.34-2.9 4.17-.5 8.41-.5 12.66-.3 4.23.1 8.47.4 12.68.6 8.41.5 16.75 1.2 25 2.4 4.9.7 8.3 5.2 7.59 10.1-.42 3-2.22 5.3-4.64 6.6l-.98.6c-14.61 7.7-29.15 12.8-42.96 19.3-6.82 3.5-13.61 6.7-20.34 9.9-6.87 2.8-13.23 6.6-19.56 10.3-6.28 3.7-12.83 6.7-18.96 10.5-5.99 4-11.9 8-17.89 11.7-6.25 3.4-11.45 8.3-17.14 12.4-5.62 4.2-11.39 8.2-16.46 13-21.55 17.9-40.65 38.3-59.2 60.3-18.76 21.9-36.09 46.3-54.68 72l-.65.9c-2.95 4.1-8.63 5-12.7 2-2.15-1.6-3.43-3.9-3.7-6.4" style="fill:#47b173;fill-opacity:1;fill-rule:nonzero;stroke:none" transform="matrix(.01447 0 0 -.01447 5.814 647.693)"/><path d="M6192.5 36322.2c7.41-2.5 14.92-4.6 22.4-6.7l12.34-3.3c1.24-.3 3.08-.5 4.9-.8l1.24-.1c-5.6 2.6-11.22 5.8-16.29 8.8l-1.46.8c-2.98 1.8-5.7 3.2-8.4 4.7-3.76 2-7.48 4-11.08 6.2l-3.07 2c-4.84 3.2-9.65 6.4-14.48 9.5-5.7 3.2-10.27 6.8-14.33 10-1.56 1.2-3.12 2.5-4.71 3.6l-3.57 2.7c-4.63 3.4-9.86 7.2-14.89 11.9-19.94 16.6-39.58 36.6-61.72 62.9-7.23 8.5-14.22 17.2-21.14 26.2.98-3.2 2.1-6.6 3.37-10.3l1.08-2.6c2.6-6.4 5.04-12.5 7.87-17.9 14.38-28.5 34.97-53.3 59.64-72.1l1.68-1.4c3.36-3 7.93-6 12.77-9l7.2-4.7c6.16-3.9 12-7.6 17.58-10 7.14-3.3 13.66-6.2 20.13-9.1zm73.56-64.5c-3.72 0-7.25.2-10.71.7-7.57.6-16.37 1.7-25.23 2.8l-4.39.6c-3.73.5-7.45 1.1-11.08 2l-12.96 3.5c-8.88 2.4-17.72 5-26.43 8l-5.92 2.5c-6.8 3-13.64 6-20.41 9.2-8.55 3.7-16.69 8.9-23.89 13.4l-7.23 4.7c-5.85 3.7-12.43 7.9-18.7 13.4-30.31 23.3-55.55 53.8-73.07 88.5-3.81 7.3-6.82 14.8-9.74 22l-1.49 3.7c-4.02 11.6-6.6 20.3-8.54 28.6-5 22.5-6.36 41.6-4.37 60.4l.03.1c1.07 9.5 6.11 18.2 13.85 23.8 15.27 11.1 36.64 7.7 47.65-7.6l6.04-8.3c16.33-22.6 31.76-43.9 48.02-62.9 20.55-24.4 38.36-42.5 56.16-57.3l1.36-1.2c2.9-2.8 6.67-5.6 10.64-8.5l3.52-2.6c1.82-1.3 3.96-3 6.1-4.7 2.91-2.3 5.67-4.4 7.91-5.7l1.48-.8c5.41-3.4 10.78-7 16.18-10.6l2.23-1.5c1.92-1.2 4.75-2.6 7.6-4.2 3.48-1.8 6.95-3.7 10.36-5.7l1.18-.7c5.27-3 10.25-5.9 14.98-7.9 8.17-3.8 15.26-7.1 22.39-10.8 4.22-2 9.45-4.2 14.76-6.4 9.1-3.9 18.51-7.8 28.34-13 10.59-5.7 17.18-15.1 18.71-25.7 2.65-18.6-10.26-35.8-28.77-38.5-8.15-1.1-16.78-2-27.2-2.5-4.28-.3-8.92-.6-13.55-.7-1.99-.1-3.94-.1-5.81-.1" style="fill:#231f20;fill-opacity:1;fill-rule:nonzero;stroke:none" transform="matrix(.01447 0 0 -.01447 5.814 647.693)"/><path d="M5848.85 36638.3c-8.41-38.7-5.74-77.7 2.76-115.9 8.88-38.1 25.15-75.1 47.86-107.9 11.43-16.4 24.68-31.6 39.04-45.5 14.59-13.7 30.59-25.8 47.45-36.2 34.08-20.3 71.77-33.6 110.32-36.4 4.97-.4 9.29 3.3 9.67 8.3.24 3.2-1.27 6.2-3.72 8l-.14.1c-30.23 21.6-58.11 42.2-83.2 64.8-24.8 22.9-46.79 47.4-66.06 74.3-19.01 27.1-35.48 56.3-49.51 87.6-14.11 31.1-26.2 64.5-37.07 98.8l-.26.8c-1.48 4.7-6.47 7.3-11.14 5.8-3.14-1-5.34-3.6-6-6.6" style="fill:#47b173;fill-opacity:1;fill-rule:nonzero;stroke:none" transform="matrix(.01447 0 0 -.01447 5.814 647.693)"/><path d="m5842.42 36630.8.01-.1zm29.62-82c1.06-6.9 2.39-13.9 3.97-21 8.13-34.9 23.37-69.2 44.05-99.1 9.87-14.2 21.95-28.3 35.85-41.8 12.73-11.9 27.36-23.1 43.2-32.9a271 271 0 0 1 22.84-12c-6.72 5.5-13.33 11.2-19.79 17-26.98 24.9-49.7 50.5-69.67 78.4-19.85 28.3-37.3 59.1-51.98 91.9-2.86 6.3-5.69 12.8-8.47 19.5m226.11-227.5h.14zm-1.13-50-2.63.1c-40.56 3.1-82.48 16.9-121.21 39.9-19.03 11.7-36.33 24.9-51.79 39.5-16.49 15.9-30.68 32.5-42.43 49.4-24.24 35-42.11 75.3-51.71 116.5-10.36 46.7-11.27 88.1-2.82 126.9l.01.1c2.6 11.8 11.35 21.4 22.85 25 8.62 2.8 17.82 2 25.84-2.2 8.04-4.1 13.97-11.2 16.7-19.8 12-37.9 23.77-69.3 36.26-96.9 13.44-29.9 29.3-58 47.21-83.5 17.82-24.9 38.33-48 62.55-70.4 24.54-22.1 52.25-42.3 80.82-62.8 9.73-7 15.12-18.6 14.2-30.4-.67-9-4.84-17.2-11.73-23.1-6.23-5.4-14-8.3-22.12-8.3" style="fill:#231f20;fill-opacity:1;fill-rule:nonzero;stroke:none" transform="matrix(.01447 0 0 -.01447 5.814 647.693)"/><path d="M5710.34 36444.2c-11.1 13.4-23.36 24.4-35.97 34.8-12.66 10.3-25.77 19.8-39.37 28.4-13.65 8.5-27.55 16.7-42.18 23.7-14.85 7.3-28.96 13.6-47.83 19.4-35.65 10.1-68.21 11.8-99.86 12.5-15.83.4-31.53 0-47.28-.5-15.78-.5-31.62-1.2-48.08-3l-.29-.1c-6.7-.7-11.52-6.8-10.77-13.5.43-3.7 2.57-6.9 5.51-8.9 28.49-18.4 59.92-30 90.56-39.3 30.58-9.5 60.9-16.1 85.66-24.6 3.18-1 5.99-2.2 9-3.3 3.24-1.3 6.6-2.8 10.01-4 6.95-2.7 13.88-5.7 21.12-8.3 14.26-5.7 29.09-10.7 44.06-15.4 30.23-9.1 61.26-17 95.49-18.6 6.96-.3 12.85 5.1 13.17 12 .15 3.3-.95 6.3-2.87 8.6z" style="fill:#47b173;fill-opacity:1;fill-rule:nonzero;stroke:none" transform="matrix(.01447 0 0 -.01447 5.814 647.693)"/><path d="M5397.25 36537.5c15.86-6.7 31.43-11.8 44.83-15.9 13.3-4.1 26.48-7.7 39.18-11.1 16.83-4.5 32.72-8.7 47.36-13.8 1.63-.5 3.95-1.4 6.24-2.2l7.74-3.1c1.73-.7 3.48-1.5 5.25-2.1 3.46-1.3 6.31-2.5 9.18-3.6 3.96-1.6 7.94-3.2 12.02-4.7 15.35-6.1 30.4-11 43.19-15.1 17.25-5.2 35.64-10.2 54.99-13.6-3.02 2.6-5.96 5.1-8.78 7.4-11.72 9.6-24.17 18.6-36.84 26.6-10.48 6.5-24.63 15.1-39.61 22.3-14.98 7.3-27.54 12.8-44.32 17.9-32.99 9.4-64.1 10.9-93.11 11.5-15.78.4-31.42 0-45.95-.5zm303.46-139h-1.73c-37.44 1.8-70.92 10.5-101.51 19.6-14.03 4.5-30.1 9.8-46.12 16.1-3.97 1.4-8.56 3.3-13.09 5.1-2.62 1.1-5.2 2.1-7.81 3.1-2.03.7-4.64 1.8-7.22 2.9l-6.2 2.4c-1.28.5-2.56 1-3.93 1.5-13.8 4.7-28.86 8.8-44.8 13-13.27 3.6-27.05 7.3-40.89 11.6-27.67 8.4-63.7 20.9-96.75 42.2-9.48 6.2-15.57 16.1-16.81 27.1-2.28 20.4 12.45 38.9 32.83 41.2 17.99 2 34.7 2.7 50.29 3.2 15.35.5 31.79.9 48.72.5 30.83-.7 67.01-2.3 106.15-13.5 20.34-6.2 35.43-12.8 51.96-20.9 17-8.2 32.67-17.6 44.42-24.9 14.53-9.3 28.57-19.4 41.95-30.3 12.14-10 26.21-22.3 39.41-38.2l.8-1c5.53-7.1 8.32-15.9 7.88-24.9-.91-20.1-17.59-35.8-37.55-35.8" style="fill:#231f20;fill-opacity:1;fill-rule:nonzero;stroke:none" transform="matrix(.01447 0 0 -.01447 5.814 647.693)"/><path d="M6677.84 36330.1c0-73.7-59.76-133.5-133.47-133.5-73.72 0-133.47 59.8-133.47 133.5s59.75 133.5 133.47 133.5c73.71 0 133.47-59.8 133.47-133.5" style="fill:#100f0d;fill-opacity:1;fill-rule:nonzero;stroke:none" transform="matrix(.01447 0 0 -.01447 5.814 647.693)"/><path d="M6544.37 36438.6c-59.81 0-108.47-48.7-108.47-108.5s48.66-108.5 108.47-108.5c59.8 0 108.47 48.7 108.47 108.5s-48.67 108.5-108.47 108.5m0-267c-87.38 0-158.47 71.1-158.47 158.5s71.09 158.5 158.47 158.5 158.47-71.1 158.47-158.5-71.09-158.5-158.47-158.5" style="fill:#231f20;fill-opacity:1;fill-rule:nonzero;stroke:none" transform="matrix(.01447 0 0 -.01447 5.814 647.693)"/><path d="m5848.13 43766.4-7.9-2286.5c-.23-50.2 33.65-94.1 82.29-106.4 141.64-35.8 442.87-101.4 725.32-94.8 237.18 5.5 401.57 31.4 493.18 50.6 50.48 10.6 86.47 55.3 86.47 106.8v2345c0 60.9-49.78 110-110.67 109.2l-1160.85-15.1c-59.59-.8-107.56-49.2-107.84-108.8" style="fill:#316039;fill-opacity:1;fill-rule:nonzero;stroke:none" transform="matrix(.01447 0 0 -.01447 5.814 647.693)"/><path d="m5873.14 43766.3-7.91-2286.5c-.18-38.8 25.9-72.6 63.4-82.1 149.98-37.8 442.59-100.4 718.62-94 232 5.4 393.79 30.2 488.65 50.1 38.59 8 66.59 42.7 66.59 82.3v2345c0 22.7-8.9 44-25.06 60-16.15 15.9-37.24 24.3-60.28 24.2l-1160.86-15.1c-45.65-.6-82.93-38.3-83.15-83.9m734.28-2513.1c-269.28 0-545.96 59.4-691.03 96.1-59.84 15.1-101.44 68.8-101.16 130.7l7.92 2286.5c.32 72.8 59.75 132.7 132.48 133.7l1160.86 15.1c35.94.6 70.3-13.2 96.07-38.7 25.76-25.4 39.94-59.3 39.94-95.5v-2345c0-63.2-44.74-118.4-106.36-131.3-96.91-20.3-261.93-45.6-497.73-51.1-13.62-.3-27.32-.5-40.99-.5" style="fill:#231f20;fill-opacity:1;fill-rule:nonzero;stroke:none" transform="matrix(.01447 0 0 -.01447 5.814 647.693)"/><path d="M6052.62 41465.6h-3.52c-171.21 4.6-135.15 297.4-135.15 297.4v1232.3c22.04-13.8 46.38-24.6 72.57-31.8 69.08-19 137.9-34.5 206.46-46.6l-8.72-1180.9s22.24-270.4-131.64-270.4" style="fill:#5c8863;fill-opacity:1;fill-rule:nonzero;stroke:none" transform="matrix(.01447 0 0 -.01447 5.814 647.693)"/><path d="m7263.84 43388.4-1.2 1.9 1.06 67.7c12.74 27.1 31.43 107.3 31.43 137.1l-12.06 510.7H5787.22l-3.7-523.9c.13-16.3 12.46-47.9 16.98-63.7l3.57-12.4 3.85-106c-11.28-29.6-17.24-61.1-17.37-92.8-1.98-32.9-3.71-61.8-5.24-87.6l.58-2.1c.44 21.6.88 30.7 1.33 19.3 0-10.8.72-21.4 1.98-31.9 3.11-11.9 7.12-23.3 19.11-29.3-11.99 6-16 17.4-19.11 29.3 9.54-79.8 54.31-150.1 120.28-193.2 23.21-15.3 49.06-27.1 77.04-34.8q104.43-28.65 208.05-46.8c301.39-53.2 598.8-40.3 892.11 43.6 116.03 33.2 196.39 138.5 196.39 259.1.29 10 .58-3.3.86-30.4.81 7.8 1.8 15.7 3.26 23.5-.98 25.2-2.13 53.2-3.46 85.1 0 27.1-6.9 53.7-19.89 77.6" style="fill:#c9e7a4;fill-opacity:1;fill-rule:nonzero;stroke:none" transform="matrix(.01447 0 0 -.01447 5.814 647.693)"/><path d="M6194.57 42916.6c-.53.2-1.06.2-1.59.3l.09 13.3c.51-.1 1-.2 1.5-.3zm-280.62 78.7c-1.5 1-2.99 1.9-4.47 2.9v13.3c1.48-1 2.97-2 4.47-2.9z" style="fill:#83a586;fill-opacity:1;fill-rule:nonzero;stroke:none" transform="matrix(.01447 0 0 -.01447 5.814 647.693)"/><path d="M6192.98 42916.9c-68.56 12.1-137.38 27.6-206.46 46.6-26.19 7.2-50.53 18-72.57 31.8v13.3c22.04-13.9 46.38-24.7 72.57-31.9 69.11-18.9 137.97-34.5 206.55-46.5z" style="fill:#a2bca1;fill-opacity:1;fill-rule:nonzero;stroke:none" transform="matrix(.01447 0 0 -.01447 5.814 647.693)"/><path d="M6194.57 42929.9c-.5.1-.99.2-1.5.3-68.58 12-137.44 27.6-206.55 46.5-26.19 7.2-50.53 18-72.57 31.9-1.5.9-2.99 1.9-4.47 2.9V44088h285.09z" style="fill:#e1f2ca;fill-opacity:1;fill-rule:nonzero;stroke:none" transform="matrix(.01447 0 0 -.01447 5.814 647.693)"/><path d="m5812.1 44080.8-3.58-499.1c.09-7.8 6.9-28.4 10.99-40.8 1.97-6 3.77-11.4 5.02-15.7l4.46-15.5 4.11-114.1-1.82-4.7c-10.31-26.9-15.58-55.2-15.68-84l-.04-1.4c-15.4-256 49.14-272.2 146.85-296.6 10.04-2.6 20.3-5.1 30.73-8 371.96-102.1 737.58-103.2 1086.71-3.3l10.02 2.8c104.84 29.8 174.11 49.4 168.8 309.9-.5 24.4-6.15 46.6-16.8 66l-4.26 7.7 1.13 79.8 2.31 4.9c11.42 24.2 29.08 101 29.08 126.5l-11.5 485.6zm739-1207.3c-187.92 0-378.75 26.4-571.18 79.2-10.06 2.7-19.97 5.2-29.66 7.6-125.9 31.6-201.19 70.7-184.66 347.5.19 32.9 5.97 65.2 17.16 96.1l-3.53 97.8-2.74 9.6c-1.11 3.8-2.72 8.6-4.48 14-7.53 22.8-13.33 41.5-13.48 56.3l3.92 549.2h1545.02l12.66-535c0-31.6-17.33-109-31.54-143.2l-.8-56.2c13.23-25.5 20.25-54.1 20.88-85.1 6.1-299.1-91.8-326.8-205.15-359l-9.92-2.8c-177.17-50.7-358.45-76-542.5-76" style="fill:#231f20;fill-opacity:1;fill-rule:nonzero;stroke:none" transform="matrix(.01447 0 0 -.01447 5.814 647.693)"/><path d="M7294.98 44110.8c0-75.3-149.34-135.9-355.4-174-116.81-21.5-254.98-32.2-404.42-32.2s-287.31 12.3-404.12 33.8c-206.06 38.1-340.83 97.1-340.83 172.4 0 75.4 133.48 141.4 339.54 179.4 116.81 21.6 255.97 33.6 405.41 33.6s288.89-10.4 405.7-32c206.06-38.1 354.12-105.6 354.12-181" style="fill:#e7f4d4;fill-opacity:1;fill-rule:nonzero;stroke:none" transform="matrix(.01447 0 0 -.01447 5.814 647.693)"/><path d="M6535.16 44298.8c-144.75 0-283.37-11.5-400.87-33.2-220.42-40.7-319.09-107-319.09-154.8 0-42.8 84.18-104.2 320.38-147.8 118.52-21.9 256.7-33.4 399.58-33.4 150.9 0 285.44 10.7 399.88 31.8 247.21 45.7 334.93 109 334.93 149.4 0 45.7-104.42 114.1-333.65 156.4-111.86 20.7-250.57 31.6-401.16 31.6m0-419.2c-145.88 0-287.2 11.8-408.67 34.2-239.74 44.3-361.28 110.6-361.28 197 0 119.7 225.54 179.2 360 204 120.46 22.3 262.21 34 409.95 34 155.77 0 293.8-10.9 410.24-32.4 112.63-20.8 374.57-82.5 374.57-205.6 0-106.7-204.39-166.9-375.85-198.6-117.43-21.6-255.02-32.6-408.96-32.6" style="fill:#231f20;fill-opacity:1;fill-rule:nonzero;stroke:none" transform="matrix(.01447 0 0 -.01447 5.814 647.693)"/><path d="M6545.34 43317.2c-365.32 0-671.03 77.2-736.45 176.1-1.27-23.5-.64-70.6 3.82-94.4 69.73-97.4 367.39-167 728.81-167 367.55 0 662.09 59.7 722.53 156 1.52 17.7-1.34 48.2-2.04 77.4-96.85-86.1-383.05-148.1-716.67-148.1" style="fill:#316039;fill-opacity:1;fill-rule:nonzero;stroke:none" transform="matrix(.01447 0 0 -.01447 5.814 647.693)"/><path d="M5836.39 43409.1c62.2-76.3 320.95-152.2 705.13-152.2 352.56 0 636.65 57 697.92 139.3.14 6.1-.08 13.7-.44 21.9-127.66-76.4-394.69-126-693.67-126-318.93 0-592.85 56.4-711.14 141.7.51-9.1 1.22-17.7 2.2-24.7m705.13-202.2c-372.1 0-673.15 71.3-749.14 177.4l-3.23 4.5-1.02 5.5c-4.88 26.2-5.58 75.1-4.21 100.4l4.12 75.5 41.71-63.1c53.61-81.1 335.93-164.9 715.58-164.9 318.27 0 606.15 58.3 700.07 141.8l40.34 35.9 1.27-54c.24-10.3.77-20.8 1.26-30.8.97-19.5 1.8-36.4.68-49.4l-.51-6-3.21-5.1c-77.57-123.6-435.03-167.7-743.71-167.7" style="fill:#231f20;fill-opacity:1;fill-rule:nonzero;stroke:none" transform="matrix(.01447 0 0 -.01447 5.814 647.693)"/></svg>