<svg xmlns="http://www.w3.org/2000/svg" xml:space="preserve" width="200mm" height="200mm" viewBox="0 0 200 200"><g style="display:inline"><path d="M467.558 111.855c-4.914-26.052 6.054-49.547 23.096-47.081 11.325 1.647 19.66 15.543 17.636 65.094-1.471 35.952 20.016 66.425 54.12 67.01 80.105 1.373 38.117-143.915 43.246-183.19 6.88-52.673 37.233-72.986 73.717-86.956 8.354-3.2 4.836-24.723 8.668-34.76-.586-39.821-4.107-99.649-5.229-128.883L445.442-40.358l-9.338 27.224c-5.249 42.785-8.336 142.762-9.338 255.267 10.813-1.722 18.793-15.195 23.1-23.315 15.745-29.785 23.393-76.737 17.692-106.963" style="fill:#fdfae8;fill-opacity:1;fill-rule:nonzero;stroke:none;stroke-width:.0352778" transform="translate(88.93 89.885)scale(.0936)"/><path d="M584.165-507.069s83.365 167.185 98.453 227.5c1.172 4.674 2.145 18.362 2.953 39.613L447.164-41.27c.353-2.893 137.001-465.798 137.001-465.798" style="fill:#fbf7db;fill-opacity:1;fill-rule:nonzero;stroke:none;stroke-width:.0352778" transform="translate(88.93 89.885)scale(.0936)"/><path d="M584.165-507.069s83.365 167.185 98.453 227.5c1.172 4.674 2.145 18.362 2.953 39.613L447.164-41.27c.353-2.893 137.001-465.798 137.001-465.798" style="fill:none;stroke:#100f0d;stroke-width:14.219;stroke-linecap:round;stroke-linejoin:round;stroke-miterlimit:10;stroke-dasharray:none;stroke-opacity:1" transform="translate(88.93 89.885)scale(.0936)"/><path d="M680.671 730.06 434.217 911.895l-1.178.822-.177.166v-.166c-.18-9.542-8.022-418.468-5.605-704.522 1.005-112.5 3.598-205.969 8.847-248.754l11.737-9.38 105.975-84.748c.06 0 .12 0 .12-.053l47.237-37.74 84.391-67.469c1.122 29.238 1.891 64.671 2.477 104.493 3.954 304.595-7.37 865.516-7.37 865.516" style="fill:none;stroke:#100f0d;stroke-width:14.219;stroke-linecap:round;stroke-linejoin:round;stroke-miterlimit:10;stroke-dasharray:none;stroke-opacity:1" transform="translate(88.93 89.885)scale(.0936)"/><path d="M-275.984-487.44c15.422-40.234-4.929-125.44 6.915-151.194 18.26-16.53 300.668-18.697 406.512-16.21 86.794 2.04 419.89 2.367 438.933 7.052-5.267 24.314 12.287 91.183 10.795 122.259-.177 3.655-2.17 12.319-5.528 24.758l-857.984 14.231c.117-.296.252-.624.357-.896" style="fill:#fefcf3;fill-opacity:1;fill-rule:nonzero;stroke:none;stroke-width:.0352778" transform="translate(88.93 89.885)scale(.0936)"/><path d="M-275.984-487.44c15.422-40.234-4.929-125.44 6.915-151.194 18.26-16.53 300.668-18.697 406.512-16.21 86.794 2.04 419.89 2.367 438.933 7.052-5.267 24.314 12.287 91.183 10.795 122.259-.177 3.655-2.17 12.319-5.528 24.758l-857.984 14.231c.117-.296.252-.624.357-.896" style="fill:none;stroke:#100f0d;stroke-width:14.219;stroke-linecap:round;stroke-linejoin:round;stroke-miterlimit:10;stroke-dasharray:none;stroke-opacity:1" transform="translate(88.93 89.885)scale(.0936)"/><path d="M451.38-71.388c-1.651 7.024-2.713 12.619-3.126 16.4-.12 1.21-.236 2.911-.413 5.049-1.65 26-3.482 118.427-5.249 236.467-4.247 279.858-8.139 703.428-8.375 725.367v.879l-1.178-.057h-.177l-885.204-22.158s.176-274.154 1.18-530.916c.765-199.443 2.005-388.408 4.01-430.315 0-.332.058-.716.058-1.044l883.198 28.413z" style="fill:#9edfec;fill-opacity:1;fill-rule:nonzero;stroke:none;stroke-width:.0352778" transform="translate(88.93 89.885)scale(.0936)"/><path d="M451.38-71.388c-1.651 7.024-2.713 12.619-3.126 16.4-.12 1.21-.236 2.911-.413 5.049-1.65 26-3.482 118.427-5.249 236.467-4.247 279.858-8.139 703.428-8.375 725.367v.879l-1.178-.057h-.177l-885.204-22.158s.176-274.154 1.18-530.916c.765-199.443 2.005-388.408 4.01-430.315 0-.332.058-.716.058-1.044l883.198 28.413z" style="fill:none;stroke:#100f0d;stroke-width:14.219;stroke-linecap:round;stroke-linejoin:round;stroke-miterlimit:10;stroke-dasharray:none;stroke-opacity:1" transform="translate(88.93 89.885)scale(.0936)"/><path d="M447.841-22.514c.177-2.138-3.873-21.703-3.873-21.703L-439.23-72.63c-7.864 28.67-9.28-1.884-9.28-1.556-2.003 41.91-1.887 261.81-2.652 461.254 3.95 2.416 7.43 5.704 10.202 10.093 34.617 55.457-41.577 170.427 55.73 222.536 63.22 33.845 152.224-4.177 171.556-63.3 29.076-88.913-18.961-136.196-20.64-215.02-3.363-157.756 61.51 75.367 166.25-31.486 9.281-9.469 26.183-7.458 35.027 2.36 12.09 13.437 7.077 121.825 117.362 111.403 67.818-6.417 38.714-128.277 73.127-128.957 34.647-.685 29.355 77.67 81.09 75.423 78.877-3.429 36.77-135.212 50.863-164.556 9.32-19.474 30.283-10.972 37.716 9.214 9.493 25.89 22.824 46.842 67.229 39.384 12.798-2.141 35.62-8.777 44.704-18.432 1.001-112.501 1.382-200.621 6.635-243.406z" style="fill:#fffef9;fill-opacity:1;fill-rule:nonzero;stroke:none;stroke-width:.0352778" transform="translate(88.93 89.885)scale(.0936)"/><path d="M-447.078-68.972c5.597-96.167 153.662-374.501 170.737-417.572l857.984-14.231c-23.15 85.732-135.954 461.56-135.954 461.56z" style="fill:#fff;fill-opacity:1;fill-rule:nonzero;stroke:none;stroke-width:.0352778" transform="translate(88.93 89.885)scale(.0936)"/><path d="M-447.078-68.972c5.597-96.167 153.662-374.501 170.737-417.572l857.984-14.231c-23.15 85.732-135.954 461.56-135.954 461.56z" style="fill:none;stroke:#100f0d;stroke-width:14.219;stroke-linecap:round;stroke-linejoin:round;stroke-miterlimit:10;stroke-dasharray:none;stroke-opacity:1" transform="translate(88.93 89.885)scale(.0936)"/><path d="M443.477-37.158c7.5-26.663 1.507 103.37-.885 223.686-5.56 279.837-8.139 703.428-8.375 725.367v.879l-1.178-.057h-.177l-885.204-22.158s.176-274.154 1.18-530.916c.765-199.443 2.005-388.408 4.01-430.315 0-.332.058-.716.058-1.044 0 0 889.534 38.237 890.571 34.558" style="fill:none;stroke:#100f0d;stroke-width:14.219;stroke-linecap:round;stroke-linejoin:round;stroke-miterlimit:10;stroke-dasharray:none;stroke-opacity:1" transform="translate(88.93 89.885)scale(.0936)"/><path d="M130.599-423.136C98.51-424.19-103.716-396.032-79.89-321.056-47.13-195.36 28.036-173.563 115.856-214.408 230.52-267.73 167.457-369.81 130.6-423.136" style="fill:#46acd7;fill-opacity:1;fill-rule:nonzero;stroke:none;stroke-width:.0352778" transform="translate(88.93 89.885)scale(.0936)"/><path d="M130.599-423.136C98.51-424.19-103.716-396.032-79.89-321.056-47.13-195.36 28.036-173.563 115.856-214.408 230.52-267.73 167.457-369.81 130.6-423.136" style="fill:none;stroke:#100f0d;stroke-width:14.219;stroke-linecap:round;stroke-linejoin:round;stroke-miterlimit:10;stroke-dasharray:none;stroke-opacity:1" transform="translate(88.93 89.885)scale(.0936)"/><path d="M34.954-456.84c-33.116 3.524-135.964 41.448-122.59 112.363 13.37 70.916 94.872 69.07 126.668 65.963C90.7-283.566 150.21-329.82 153.794-379.116c3.584-49.294-62.48-83.718-118.84-77.724" style="fill:#92dbea;fill-opacity:1;fill-rule:nonzero;stroke:none;stroke-width:.0352778" transform="translate(88.93 89.885)scale(.0936)"/><path d="M34.954-456.84c-33.116 3.524-135.964 41.448-122.59 112.363 13.37 70.916 94.872 69.07 126.668 65.963C90.7-283.566 150.21-329.82 153.794-379.116c3.584-49.294-62.48-83.718-118.84-77.724" style="fill:none;stroke:#100f0d;stroke-width:14.219;stroke-linecap:round;stroke-linejoin:round;stroke-miterlimit:10;stroke-dasharray:none;stroke-opacity:1" transform="translate(88.93 89.885)scale(.0936)"/><path d="M93.08 475.139c-3.908-19.375-33.77-13.035-34.434 4.702-8.085 31.179-13.017 35.955-14.898 48.264-2.257 14.77 5.5 30.236 22.973 32.138 18.052 1.961 30.985-11.733 34.964-26.84 4.456-16.908-7.994-55.248-8.604-58.264M-366.68 677.993c-3.044-.772-6.27-.885-9.403-.43-.794-.31-1.586-.628-2.462-.815-9.027-1.912-19.535 2.526-21.764 11.493-2.853 11.49 1.115 24 12.544 30.17 11.67 6.304 28.214 3.1 34.748-8.322 6.88-12.03 1.117-28.346-13.664-32.096m135.464 24.49c-22.768 0-22.805 32.91 0 32.91 22.772 0 22.807-32.91 0-32.91" style="fill:#fffef9;fill-opacity:1;fill-rule:nonzero;stroke:none;stroke-width:.0352778" transform="translate(88.93 89.885)scale(.0936)"/><path d="M-100.315 16.118q3.856-2.432 8.65-2.204 8.338.395 14.474 9.32c6.223 9.186 10.181 38.76 11.857 88.706q.37 11.007.914 43.984c.38 27.92.483 44.831.31 50.75-.166 5.924-.963 9.805-2.378 11.66q-3.193 4.296-9.87 3.976-4.724-.227-7.317-2.967-2.01-1.926-2.677-13.462-.662-11.544-2.717-72.841-2.797-83.305-4.6-86.79-.623-1.598-1.178-1.624-1.417-.069-11.321 14.366-5.884 9.136-27.4 37.666a600 600 0 0 0-8.873 11.998q-4.83 6.705-9.264 12.77c-2.952 4.047-4.882 6.657-5.782 7.832-6.078 8.6-10.904 12.82-14.463 12.65q-2.536-.12-5.966-1.852-6.28-2.916-10.664-7.965c-2.921-3.362-7.366-10.069-13.321-20.12-10.919-18.305-21.163-34.656-30.73-49.067-9.571-14.4-15.107-21.643-16.609-21.714l-.279-.014q-1.908 1.744-2.12 37.303-.216 35.56 1.237 78.782l1.69 58.667-3.298 2.195q-3.3 2.2-5.834 2.081-2.814-.137-6.851-3.207c-1.73-1.302-2.904-2.8-3.523-4.484q-.928-2.529-2.027-10.163c-2.046-16.316-3.568-39.314-4.564-69.003q-2.26-67.325.67-97.265c.973-10.065 2.699-17.173 5.187-21.332q3.723-6.23 11.322-5.867c3.935.187 7.237.956 9.896 2.304 2.48 1.337 6.522 4.843 12.135 10.516q8.419 8.512 12.83 14.47c11.424 17.114 25.637 39.498 42.648 67.163l5.94 9.698 2.432-3.024c2.346-2.677 9.115-12.075 20.298-28.197 11.187-16.115 19.1-27.817 23.735-35.091q16.056-24.869 27.4-30.604m78.462 85.341c1.637-1.492 4.328-2.148 8.086-1.972 3.563.17 6.332 1.704 8.3 4.583q2.677 4.314 4.068 16.407 1.387 12.097 3.595 52.748L4.48 216.22l-3.542 3.235c-2.184 1.986-4.872 2.907-8.061 2.752-2.815-.134-5.422-1.175-7.828-3.115q-3.615-2.925-4.615-7.68-.985-4.227-2.737-56.36l-.783-23.312q-.94-28.034 1.23-30.282m-2.417-21.826q-.924-2.396-.991-4.491-.134-3.932 2.462-6.16 2.592-2.232 7.66-1.993 4.784.232 7.68 2.723c1.925 1.662 2.934 3.712 3.015 6.156.06 1.747-.268 3.302-.966 4.664-1.56 3.76-4.689 5.532-9.377 5.306-4.501-.215-7.666-2.283-9.483-6.205M44.08 21.428c.303-2.25 1.56-4.149 3.785-5.705 2.22-1.552 4.657-2.26 7.313-2.137 1.514.074 3.232.592 5.162 1.552 3.668 2.099 5.633 7.07 5.894 14.93.085 2.448.05 4.275-.091 5.489q-.582 7.819 1.894 98.432c1.07 42.943 1.644 68.735 1.746 77.367.1 8.64-.49 13.533-1.778 14.693q-2.48 2.498-7.32 2.265-5.686-.27-9.225-3.838-2.356-2.466-3.327-6.04-.978-3.581-2.222-15.412c-.811-7.356-1.503-19.509-2.07-36.45q-1.363-40.605-1.423-88.864c-.035-32.17.516-50.93 1.662-56.282m81.34-2.925q5.07.243 7.97 2.995.285.276 1.012.833c.48.374.723.6.726.691.004.089.152.395.452.932q.445.809.483 1.855.035 1.05.237 2.759c.127 1.14.225 2.586.282 4.329.095 2.797.159 18.753.201 47.872q-.01 24.847.494 39.779.254 7.599.543 7.874.01.26.572.286 3.096.147 29.344-21.619 14.503-11.6 28.42-19.83c9.27-5.485 15.508-8.152 18.697-8q10.414.495 10.707 9.14c.091 2.794-.678 5.027-2.308 6.689-1.63 1.665-6.022 4.773-13.176 9.31q-12.656 8.031-28.233 21.149c-11.3 9.574-18.22 15.264-20.782 17.06-2.568 1.796-5.838 4.861-9.807 9.207-3.976 4.347-5.948 7.038-5.913 8.086.141 4.195 14.471 15.427 43 33.701 17.996 11.493 29.634 19.237 34.922 23.241 5.285 3.997 7.98 7.394 8.071 10.188q.053 1.571-1.795 5.144c-1.94 3.57-4.696 5.274-8.259 5.1q-7.036-.331-23.131-11.038c-3.648-2.62-12.358-8.177-26.134-16.679q-20.659-12.749-27.009-17.762c-3.655-2.79-5.665-4.191-6.043-4.209-.748-.035-1.111 5.959-1.08 17.992.1 8.544-.056 13.857-.45 15.931-.403 2.075-1.32 3.863-2.77 5.362-2.17 2.34-4.943 3.426-8.319 3.267-3.196-.152-6.142-1.513-8.85-4.085l-3.772-3.58-.265-41.332q-1.169-126.911 1.468-148.756c.723-6.41 1.901-10.372 3.538-11.86q2.453-2.239 6.957-2.022" style="fill:#100f0d;fill-opacity:1;fill-rule:nonzero;stroke:none;stroke-width:.0352778" transform="translate(88.93 89.885)scale(.0936)"/><path d="M467.558 111.855c-4.914-26.052 6.054-49.547 23.096-47.081 11.325 1.647 19.66 15.543 17.636 65.094-1.471 35.952 20.016 66.425 54.12 67.01 80.105 1.373 38.117-143.915 43.246-183.19 6.88-52.673 37.233-72.986 73.717-86.956 8.354-3.2 4.836-24.723 8.668-34.76-.586-39.821-4.107-99.649-5.229-128.883L445.442-40.358l-9.338 27.224c-5.249 42.785-8.336 142.762-9.338 255.267 10.813-1.722 18.793-15.195 23.1-23.315 15.745-29.785 23.393-76.737 17.692-106.963" style="fill:#fdfae8;fill-opacity:1;fill-rule:nonzero;stroke:none;stroke-width:.0352778" transform="translate(88.93 89.885)scale(.0936)"/><path d="M584.165-507.069s83.365 167.185 98.453 227.5c1.172 4.674 2.145 18.362 2.953 39.613L447.164-41.27c.353-2.893 137.001-465.798 137.001-465.798" style="fill:#fbf7db;fill-opacity:1;fill-rule:nonzero;stroke:none;stroke-width:.0352778" transform="translate(88.93 89.885)scale(.0936)"/><path d="M584.165-507.069s83.365 167.185 98.453 227.5c1.172 4.674 2.145 18.362 2.953 39.613L447.164-41.27c.353-2.893 137.001-465.798 137.001-465.798" style="fill:none;stroke:#100f0d;stroke-width:14.219;stroke-linecap:round;stroke-linejoin:round;stroke-miterlimit:10;stroke-dasharray:none;stroke-opacity:1" transform="translate(88.93 89.885)scale(.0936)"/><path d="M680.671 730.06 434.217 911.895l-1.178.822-.177.166v-.166c-.18-9.542-8.022-418.468-5.605-704.522 1.005-112.5 3.598-205.969 8.847-248.754l11.737-9.38 105.975-84.748c.06 0 .12 0 .12-.053l47.237-37.74 84.391-67.469c1.122 29.238 1.891 64.671 2.477 104.493 3.954 304.595-7.37 865.516-7.37 865.516" style="fill:none;stroke:#100f0d;stroke-width:14.219;stroke-linecap:round;stroke-linejoin:round;stroke-miterlimit:10;stroke-dasharray:none;stroke-opacity:1" transform="translate(88.93 89.885)scale(.0936)"/><path d="M-275.984-487.44c15.422-40.234-4.929-125.44 6.915-151.194 18.26-16.53 300.668-18.697 406.512-16.21 86.794 2.04 419.89 2.367 438.933 7.052-5.267 24.314 12.287 91.183 10.795 122.259-.177 3.655-2.17 12.319-5.528 24.758l-857.984 14.231c.117-.296.252-.624.357-.896" style="fill:#fefcf3;fill-opacity:1;fill-rule:nonzero;stroke:none;stroke-width:.0352778" transform="translate(88.93 89.885)scale(.0936)"/><path d="M-275.984-487.44c15.422-40.234-4.929-125.44 6.915-151.194 18.26-16.53 300.668-18.697 406.512-16.21 86.794 2.04 419.89 2.367 438.933 7.052-5.267 24.314 12.287 91.183 10.795 122.259-.177 3.655-2.17 12.319-5.528 24.758l-857.984 14.231c.117-.296.252-.624.357-.896" style="fill:none;stroke:#100f0d;stroke-width:14.219;stroke-linecap:round;stroke-linejoin:round;stroke-miterlimit:10;stroke-dasharray:none;stroke-opacity:1" transform="translate(88.93 89.885)scale(.0936)"/><path d="M451.38-71.388c-1.651 7.024-2.713 12.619-3.126 16.4-.12 1.21-.236 2.911-.413 5.049-1.65 26-3.482 118.427-5.249 236.467-4.247 279.858-8.139 703.428-8.375 725.367v.879l-1.178-.057h-.177l-885.204-22.158s.176-274.154 1.18-530.916c.765-199.443 2.005-388.408 4.01-430.315 0-.332.058-.716.058-1.044l883.198 28.413z" style="display:inline;fill:#9edfec;fill-opacity:1;fill-rule:nonzero;stroke:none;stroke-width:.0352778" transform="translate(88.93 89.885)scale(.0936)"/><path d="M451.38-71.388c-1.651 7.024-2.713 12.619-3.126 16.4-.12 1.21-.236 2.911-.413 5.049-1.65 26-3.482 118.427-5.249 236.467-4.247 279.858-8.139 703.428-8.375 725.367v.879l-1.178-.057h-.177l-885.204-22.158s.176-274.154 1.18-530.916c.765-199.443 2.005-388.408 4.01-430.315 0-.332.058-.716.058-1.044l883.198 28.413z" style="fill:#ff2a2a;stroke:#100f0d;stroke-width:14.219;stroke-linecap:round;stroke-linejoin:round;stroke-miterlimit:10;stroke-dasharray:none;stroke-opacity:1" transform="translate(88.93 89.885)scale(.0936)"/><path d="M447.841-22.514c.177-2.138-3.873-21.703-3.873-21.703L-439.23-72.63c-7.864 28.67-9.28-1.884-9.28-1.556-2.003 41.91-1.887 261.81-2.652 461.254 3.95 2.416 7.43 5.704 10.202 10.093 34.617 55.457-41.577 170.427 55.73 222.536 63.22 33.845 152.224-4.177 171.556-63.3 29.076-88.913-18.961-136.196-20.64-215.02-3.363-157.756 61.51 75.367 166.25-31.486 9.281-9.469 26.183-7.458 35.027 2.36 12.09 13.437 7.077 121.825 117.362 111.403 67.818-6.417 38.714-128.277 73.127-128.957 34.647-.685 29.355 77.67 81.09 75.423 78.877-3.429 36.77-135.212 50.863-164.556 9.32-19.474 30.283-10.972 37.716 9.214 9.493 25.89 22.824 46.842 67.229 39.384 12.798-2.141 35.62-8.777 44.704-18.432 1.001-112.501 1.382-200.621 6.635-243.406z" style="display:inline;fill:#fffef9;fill-opacity:1;fill-rule:nonzero;stroke:none;stroke-width:.0352778" transform="translate(88.93 89.885)scale(.0936)"/><path d="M-447.078-68.972c5.597-96.167 153.662-374.501 170.737-417.572l857.984-14.231c-23.15 85.732-135.954 461.56-135.954 461.56z" style="fill:#fff;fill-opacity:1;fill-rule:nonzero;stroke:none;stroke-width:.0352778" transform="translate(88.93 89.885)scale(.0936)"/><path d="M-447.078-68.972c5.597-96.167 153.662-374.501 170.737-417.572l857.984-14.231c-23.15 85.732-135.954 461.56-135.954 461.56z" style="fill:none;stroke:#100f0d;stroke-width:14.219;stroke-linecap:round;stroke-linejoin:round;stroke-miterlimit:10;stroke-dasharray:none;stroke-opacity:1" transform="translate(88.93 89.885)scale(.0936)"/><path d="M443.477-37.158c7.5-26.663 1.507 103.37-.885 223.686-5.56 279.837-8.139 703.428-8.375 725.367v.879l-1.178-.057h-.177l-885.204-22.158s.176-274.154 1.18-530.916c.765-199.443 2.005-388.408 4.01-430.315 0-.332.058-.716.058-1.044 0 0 889.534 38.237 890.571 34.558" style="display:inline;fill:none;stroke:#100f0d;stroke-width:14.219;stroke-linecap:round;stroke-linejoin:round;stroke-miterlimit:10;stroke-dasharray:none;stroke-opacity:1" transform="translate(88.93 89.885)scale(.0936)"/><path d="M130.599-423.136C98.51-424.19-103.716-396.032-79.89-321.056-47.13-195.36 28.036-173.563 115.856-214.408 230.52-267.73 167.457-369.81 130.6-423.136" style="fill:#ff2a2a;fill-opacity:1;fill-rule:nonzero;stroke:none;stroke-width:.0352778" transform="translate(88.93 89.885)scale(.0936)"/><path d="M130.599-423.136C98.51-424.19-103.716-396.032-79.89-321.056-47.13-195.36 28.036-173.563 115.856-214.408 230.52-267.73 167.457-369.81 130.6-423.136" style="fill:none;stroke:#100f0d;stroke-width:14.219;stroke-linecap:round;stroke-linejoin:round;stroke-miterlimit:10;stroke-dasharray:none;stroke-opacity:1" transform="translate(88.93 89.885)scale(.0936)"/><path d="M34.954-456.84c-33.116 3.524-135.964 41.448-122.59 112.363 13.37 70.916 94.872 69.07 126.668 65.963C90.7-283.566 150.21-329.82 153.794-379.116c3.584-49.294-62.48-83.718-118.84-77.724" style="fill:#f55;fill-opacity:1;fill-rule:nonzero;stroke:none;stroke-width:.0352778" transform="translate(88.93 89.885)scale(.0936)"/><path d="M34.954-456.84c-33.116 3.524-135.964 41.448-122.59 112.363 13.37 70.916 94.872 69.07 126.668 65.963C90.7-283.566 150.21-329.82 153.794-379.116c3.584-49.294-62.48-83.718-118.84-77.724" style="fill:none;stroke:#100f0d;stroke-width:14.219;stroke-linecap:round;stroke-linejoin:round;stroke-miterlimit:10;stroke-dasharray:none;stroke-opacity:1" transform="translate(88.93 89.885)scale(.0936)"/><path d="M93.08 475.139c-3.908-19.375-33.77-13.035-34.434 4.702-8.085 31.179-13.017 35.955-14.898 48.264-2.257 14.77 5.5 30.236 22.973 32.138 18.052 1.961 30.985-11.733 34.964-26.84 4.456-16.908-7.994-55.248-8.604-58.264M-366.68 677.993c-3.044-.772-6.27-.885-9.403-.43-.794-.31-1.586-.628-2.462-.815-9.027-1.912-19.535 2.526-21.764 11.493-2.853 11.49 1.115 24 12.544 30.17 11.67 6.304 28.214 3.1 34.748-8.322 6.88-12.03 1.117-28.346-13.664-32.096m135.464 24.49c-22.768 0-22.805 32.91 0 32.91 22.772 0 22.807-32.91 0-32.91" style="fill:#fffef9;fill-opacity:1;fill-rule:nonzero;stroke:none;stroke-width:.0352778" transform="translate(88.93 89.885)scale(.0936)"/><text xml:space="preserve" x="-257.969" y="195.618" style="font-style:normal;font-weight:400;font-size:113.061px;line-height:1.25;font-family:sans-serif;display:inline;fill:#000;fill-opacity:1;stroke:none;stroke-width:2.82653" transform="translate(88.93 89.885)scale(.0936)"><tspan x="-257.969" y="195.618" style="font-style:normal;font-variant:normal;font-weight:400;font-stretch:normal;font-size:180.898px;font-family:Chilanka;-inkscape-font-specification:&quot;Chilanka, Normal&quot;;font-variant-ligatures:normal;font-variant-caps:normal;font-variant-numeric:normal;font-variant-east-asian:normal;stroke-width:2.82653">Cream</tspan></text></g></svg>