<svg xmlns="http://www.w3.org/2000/svg" width="200mm" height="200mm" viewBox="0 0 200 200"><path d="m27490.8 29992.6.5 1.3c-116 303.4-161.6 586.3-174.4 927.5-33.1 875.1-50.3 1726.2-38.9 2587.9 4.2 313.9 32.4 553.8-53 850.8l-.6.6c-419.1 120-1422.4 130.9-1836.5-7.7l-.5-.7c-69.6-346.5-81.3-744.4-70.4-1087.5 26-831 37.1-1596.9-12.5-2431.1-14.5-242.5-39.5-458.6-101-671.2l.4-1.1c327.1-150.4 793.6-309.3 1318-317.6 312.2-4.9 649.6 58.2 968.9 148.8" style="fill:#ecf9f7;fill-opacity:1;fill-rule:nonzero;stroke:none" transform="matrix(.00743 0 0 -.00743 -95.381 280.749)"/><path d="M28512.3 28833.4c-356.6 242.4-650.2 407.3-867.7 823.3-61.1 116.9-111.2 227.5-152.6 335.5l-.9.5c-319.4-90.7-656.9-153.8-969.2-148.9-524.4 8.3-990.9 167.2-1317.9 317.6l-1-.6c-53.6-184.9-134.8-367.1-261.8-561.4-273.1-418.5-609.4-602.1-966.4-938.9-745-702.7-453.2-1655.7-491.6-3297.2-68.8-2936.1-25.2-8889.7 102.5-10811.2 33.6-504.9-41.1-1318.2 205.9-1573.5 400.6-769.7 2130.2-963 2673.4-952.1 673.4 13.6 2428.6 284.7 2631.4 1152.5 4.8 20.5 75.4 881.8 88.1 1319.7 69.2 2400.5.2 8261.3-48.9 11120.8-30.5 1775 115 2712-623.3 3213.9" style="fill:#faf3c6;fill-opacity:1;fill-rule:nonzero;stroke:none" transform="matrix(.00743 0 0 -.00743 -95.381 280.749)"/><path d="m24029 17513-113.1 9091.9c-9.3 742.1 237.6 1464.4 677.8 1985.2 94.3 111.6 218.8 169 342.5 169 117 0 233.2-51.3 322.5-156.6 185.6-218.7 186-575 4.5-794.5-262.2-317.1-418.8-738.1-413.2-1184.7l113-9077.8c-62.9 1.5-126.2 2.2-189.8 2.2-254.4 0-504-11.8-744.2-34.7M28306.8 14160.6c-87.9 51.5-147.7 163.4-147.7 288.1v12219.6c0 169.5 110.5 315.3 251.7 317.9 1.4 0 2.7.1 4.1.1 141.3 0 255.8-137.4 255.8-306.9v-6719c-32.1-47.8-62-97-89.6-147.6-153.4-280.6-234.4-597.7-234.4-917.2 0-13.8 0-28 .5-42.4l-3.8-437.7-.5-57.6-.4-45.8zm363.9 3841.5c-115 107.9-177.4 223.7-179.1 339.8v.9c0 .3 0 .6-.1.9l-.1 12.1c3 114.9 65.3 229.5 179.3 336.3z" style="fill:#fefcf0;fill-opacity:1;fill-rule:nonzero;stroke:none" transform="matrix(.00743 0 0 -.00743 -95.381 280.749)"/><path d="M25430.8 34314.2c-54.5-286.7-76.6-648.3-64.1-1047.9 27.4-874.5 35.8-1623.3-12.5-2435.7-28.6-480.9-98.4-841-371.1-1258.5-189.5-290.1-408.2-469.6-639.7-659.5-108.5-89.1-220.7-181.1-334.4-288.3-538.9-508.3-518.8-1154.2-488.3-2132 10.4-333.1 22.1-710.7 12.3-1130.2-69.4-2968.1 60.9-9023.6 102.5-10808.8 20-856.9 51.5-1402.5 319.7-1753.7 268.7-351.9 1405.9-745.5 2525.6-745.5 442.9 0 966.5 88.1 1436.6 241.7 482.5 157.6 840.6 364.9 982.4 568.7 228.2 327.8 223.2 744.8 214.2 1501.9-.5 42.9-1.1 86.8-1.6 131.8-10.9 1003.5-12.7 2628.8-14.6 4349.7-2.7 2393.4-5.7 5106.2-34.2 6770.9-5.1 293.8-5.3 570.2-5.5 814.1-1.1 1260.7-1.7 1955.2-596 2359.3-23.1 15.7-45.9 31.1-68.3 46.2-326.4 220.7-584.2 395-793.4 795.2-220.9 422.6-314.4 783.2-333.4 1286-36.9 977-49.2 1800.1-38.9 2590.4.8 58.6 2.4 114.5 4 168.5 6.4 223.7 11.9 418.1-47.7 641.4-404.9 105-1339.8 118.8-1753.6-5.7m1050-22359.8c-519.6 0-1085 85.1-1592.1 239.6-494 150.4-863.1 349.1-1012.7 545-286.6 375.3-319.7 934.9-340.1 1811.9-41.7 1785.8-172 7843.3-102.6 10813.5 9.8 416.8-2 792.9-12.3 1124.8-15.2 487.3-28.3 908.2 33 1267.2 66.7 391.5 221.4 690.3 486.6 940.4 116.2 109.6 229.7 202.8 339.5 292.9 225.5 184.9 438.4 359.6 619.5 636.9 260.5 399 327.5 745.8 355.1 1209.9 48 808.6 39.7 1554.9 12.3 2426.7-13.3 426.2 10.7 795.9 71.5 1098.9l5.8 28.7 28.4 9.6c432.6 145 1450.3 127.1 1865.5 8.2l26.4-7.5 8.2-26.9c71.8-249.8 65.8-457.7 58.9-698.5-1.5-53.7-3.1-109.2-3.8-167-10.4-788.6 1.9-1610.1 38.8-2585.4 18.6-492.9 105.9-829.9 322.1-1243.5 197.6-377.9 433.8-537.6 760.8-758.8 22.5-15.2 45.3-30.6 68.5-46.4 302.9-205.9 475.7-488.5 560.5-916.5 78.2-395.1 78.7-893.8 79.2-1525.1.2-243.5.4-519.5 5.5-812.5 28.5-1665.5 31.5-4378.7 34.2-6772.5 1.9-1720.6 3.7-3345.7 14.7-4348.7.4-45 1-88.9 1.5-131.8 9-752 14.4-1206-232.1-1560-156.2-224.5-523.2-439.8-1033.2-606.5-479.7-156.7-1014.6-246.6-1467.6-246.6" style="fill:#231f20;fill-opacity:1;fill-rule:nonzero;stroke:none" transform="matrix(.00743 0 0 -.00743 -95.381 280.749)"/><path d="m25266.9 36148.9-11.9-3169.7c-.3-79.5 290.6-394.7 1042.4-394.7 578.9 0 1042.4 243.5 1042.4 325.3v3262.4c0 96.6-74.8 174.5-166.3 173.2l-1744.5-24c-89.6-1.3-161.7-78-162.1-172.5" style="fill:#c22126;fill-opacity:1;fill-rule:nonzero;stroke:none" transform="matrix(.00743 0 0 -.00743 -95.381 280.749)"/><path d="M25304.9 32979.2v-.2zm0 .9c4.3-22.7 64.5-108 225-190.5 137.7-70.8 382.6-155.2 767.5-155.2 540.7 0 954.7 216.8 992.5 280.8v3257c0 34.5-13.6 67.7-37.2 91.1-21.2 20.8-48.5 32.3-77.1 32.3h-1.5l-1744.5-24.1c-61.9-.9-112.5-55.9-112.8-122.8zm992.5-445.5c-656.9 0-942.5 235.5-1014.4 307.7-35.6 35.8-78 88.6-77.8 137.1l11.9 3169.7c.5 120.9 95.2 220.5 211.2 222.1l1744.5 24.1c55.8.7 109.2-20.9 149.9-61 42.5-42 66.9-101.1 66.9-162.1v-3262.4c0-101.9-235.2-201.7-336.3-239.9-133.7-50.5-409.6-135.3-755.9-135.3" style="fill:#231f20;fill-opacity:1;fill-rule:nonzero;stroke:none" transform="matrix(.00743 0 0 -.00743 -95.381 280.749)"/><path d="M25570.8 33030.5c-1.8 0-3.6 0-5.3.1-257.3 7.1-203.1 471.6-203.1 471.6v2200.4c112.6-55.5 253.2-93.8 418.2-119.4l-12-2123.9s33.4-428.8-197.8-428.8" style="fill:#ecafb7;fill-opacity:1;fill-rule:nonzero;stroke:none" transform="matrix(.00743 0 0 -.00743 -95.381 280.749)"/><path d="M27441.1 36628.9v-522.4c0-81.8 0-337.3-142.6-397.8-155.5-66-554.5-179-945.5-169.6-201.8 4.8-384.2 16.6-544.3 39.9-193.2 27.9-354.2 72.2-477.8 140-10.6 5.7-21 11.6-30.9 17.8-146 89.5-146.5 359.6-146 439.1l12.9 429.7c.5 91.8 75.1 166.7 169.2 172 2.8.2 5.7.4 8.7.4l480.5 5.9 1433.4 18.1c100.4 1.4 182.4-76.5 182.4-173.1" style="fill:#c22126;fill-opacity:1;fill-rule:nonzero;stroke:none" transform="matrix(.00743 0 0 -.00743 -95.381 280.749)"/><path d="M25808.7 35579c-9.5 1.4-18.8 2.8-28.1 4.2-165 25.6-305.6 63.9-418.2 119.4-10.8 5.3-21.2 10.8-31.5 16.4 1.5 41.3 5.2 68.5 5.2 68.5v851.9l494-100-16-794.8s7.1-77-5.4-165.6" style="fill:#ecafb7;fill-opacity:1;fill-rule:nonzero;stroke:none" transform="matrix(.00743 0 0 -.00743 -95.381 280.749)"/><path d="M25167 36605.6h.1zm36.8-430.5c-1.1-264.5 65.8-361.2 122.2-395.7 195.3-119.6 512.3-178.3 1028.1-190.6 368.3-8.7 762.9 97.1 925 165.9 74.5 31.5 112.2 149.9 112.2 351.9v522.2c0 32-12.9 62.4-36.2 85.5-25.3 24.9-59.4 38.4-95.8 37.9l-1913.9-24c-70.6-.9-128.2-56-128.5-122.9l-.1-1.2zm1194.6-686.5c-15.5 0-31.1.2-46.6.5-534.4 12.7-866.8 76-1077.8 205.3-113.9 69.7-171.1 231.8-169.9 481.8v1.2l13 429.1c1 120.6 102.7 219.8 227 221.4l1914 24c1 .1 2 .1 3.1.1 62.1 0 120.3-23.7 163.9-66.8 42.5-42 65.9-97.5 65.9-156.4v-522.2c0-91.6 0-370.4-172.9-443.7-169.5-71.9-547.6-174.3-919.7-174.3" style="fill:#231f20;fill-opacity:1;fill-rule:nonzero;stroke:none" transform="matrix(.00743 0 0 -.00743 -95.381 280.749)"/><path d="M27441.2 36695.1c0-119.4-224.4-215.6-534.1-276-175.5-34.2-383.2-51.1-607.7-51.1-224.6 0-431.8 19.5-607.3 53.7-309.7 60.4-512.2 154-512.2 273.4 0 119.5 200.6 224.2 510.2 284.5 175.6 34.2 384.7 53.3 609.3 53.3 224.5 0 434.1-16.6 609.6-50.8 309.7-60.3 532.2-167.5 532.2-287" style="fill:#d55263;fill-opacity:1;fill-rule:nonzero;stroke:none" transform="matrix(.00743 0 0 -.00743 -95.381 280.749)"/><path d="M26299.4 36983c-216.7 0-424.1-18.1-599.7-52.3-324.7-63.3-470-163.9-470-235.6 0-64 124-156.7 471.9-224.5 177.2-34.5 384-52.8 597.8-52.8 225.8 0 427.1 17 598.2 50.3 341.1 66.5 493.7 161.9 493.7 227 0 70.7-168.9 175.2-491.8 238.1-167.2 32.6-374.8 49.8-600.1 49.8m0-664.9c-220.1 0-433.4 18.9-616.9 54.7-366.6 71.4-552.5 179.9-552.5 322.3 0 196.8 345 293.4 550.6 333.5 181.8 35.4 395.8 54.1 618.8 54.1 235 0 443.3-17.3 619.2-51.6 172.1-33.6 572.4-133.5 572.4-336 0-176-312.3-273.8-574.3-324.9-177.4-34.6-385.1-52.1-617.3-52.1" style="fill:#231f20;fill-opacity:1;fill-rule:nonzero;stroke:none" transform="matrix(.00743 0 0 -.00743 -95.381 280.749)"/><path d="M23800.8 25188.7c0 128.9 126.9 223.9 259.1 193.9 378.7-86 1168.7-224.1 2348-227.8 1142.9-3.7 1834.4 116.7 2183.1 197.4 131.9 30.6 259.2-63.2 260.4-191.8l35.5-3802.7c.9-92.5-38.2-159.2-160.2-195.3-371-110-1343.5-295.3-2242.6-308.5-929.7-13.8-2168.3 262.1-2460.2 385.9-83.2 35.3-223.1 142.7-223.1 230.3z" style="fill:#fff;fill-opacity:1;fill-rule:nonzero;stroke:none" transform="matrix(.00743 0 0 -.00743 -95.381 280.749)"/><path d="M24010.3 25338.3c-37.6 0-74-12.4-103.6-36.1-35.7-28.4-56.1-69.8-56.1-113.5v-3718.6c0-52.9 108.6-148.7 192.8-184.4 283.8-120.4 1455.4-382.5 2371.9-382.5 22.9 0 45.5.2 68.1.5 867.2 12.8 1825.6 186.9 2229.1 306.5 104.2 30.8 125.2 81.1 124.5 147.1l-35.5 3802.6c-.4 43.6-21.1 84.7-56.8 112.8-39.8 31.4-91.8 42.7-142.4 31-400-92.6-1105.7-202.1-2194.5-198.8-1191.2 3.8-1989.2 145.1-2358.9 229.1-12.9 2.9-25.8 4.3-38.6 4.3m2405.9-4534.8c-929.8 0-2122.2 267.5-2411.8 390.4-88.4 37.5-253.5 157-253.5 276.2v3718.6c0 74.2 34.1 144 93.5 191.5 63.5 50.7 146.1 69.3 226.6 51 365.7-83 1155.5-222.8 2337.1-226.6 1079.7-3.2 1776.9 104.8 2171.7 196.2 80.3 18.6 162.9.5 226.6-49.7 59.6-46.9 94.2-116.3 94.9-190.2l35.5-3802.7c1.1-124.5-63-204.2-195.9-243.6-409-121.2-1379.3-297.7-2256.1-310.6-22.7-.3-45.6-.5-68.6-.5" style="fill:#231f20;fill-opacity:1;fill-rule:nonzero;stroke:none" transform="matrix(.00743 0 0 -.00743 -95.381 280.749)"/><path d="M24522.3 21913.5c6 .2 12.7-.4 20.1-1.6 17.4-3 32.1-8.3 44-15.9 7.6-4.8 15.5-12.8 23.8-24.1 8.4-11.2 13.5-21 15.3-29.2 1.7-7 1.9-14.3.7-22-2.2-13.1-6.9-21.2-14.3-24.4-2.6-1.1-7.2-1.2-13.9-.1-5.5.9-10.1 4.2-13.8 9.7-3.7 5.6-5 11.3-4.1 17 .9 5.1-1.3 11.5-6.6 19.5-5.3 8.1-11.4 13.5-17.3 16.6-4 2.1-9 3.9-14.9 4.9-19.4 3.4-41.9-1.6-67.6-14.9-25.7-13.2-47.1-31.2-64.2-53.8-25.1-33.1-42.4-69.9-51.6-110.7-.3-1.5-.8-4-1.7-7.4-.8-3.4-1.4-5.9-1.7-7.4-14-75.5 2.8-130.7 51.1-165.1 8.8-6.3 16.9-10.1 24.2-11.4 4.4-.8 8.1-1.2 10.9-1.3 11.9-.9 21.6-.2 29 2.1 7.5 2.2 16 7.1 25.5 14.6 9.6 7.5 16.4 13.8 20.6 19.1 4.2 5.2 8.7 13.7 13.5 25 9 20.8 20.5 30.3 33.7 28.2 6-1 11.5-4.9 16.6-11.7 4.7-6.3 6.7-11.6 6-15.8-.2-1.1-1.1-4.3-2.8-9.6-7.2-24.1-21.3-46.1-42.4-65.9-21.1-19.9-43.1-31.8-65.9-35.8-11.6-2.4-28.2-2.1-49.1 1.4-19.3 3.2-34.7 8.9-45.9 16.5-33.7 23.5-57 51.8-69.7 84.8-12.7 32.9-16 72.6-10 119.1.4 3.9 1.3 9.9 2.8 18 8.9 46.7 26.6 89 52.5 126.9 26.1 38 54.7 65 86.2 81.1 11.9 6.2 25.8 11.6 41.7 16.3 15.8 4.7 28.9 7.1 39.3 7.3M24700.5 21884.6c4.9 3.2 10 4.4 15.5 3.5 5.4-.8 9.7-3.9 12.9-9.1s4.5-12.2 4.6-20.2c.2-7.8-2.5-37.5-8.8-88.7-3.5-29.5-5.3-44.2-8.8-73.8l16 10c12.5 7.6 26.3 13.3 41.6 17.2 15.3 3.8 36 3.9 62.3.4 26.2-3.6 47.7-15.5 64.1-35.8 18.2-22.7 25-55 20.4-96-.4-3.1-.6-4.6-1-7.6-2.8-20.9-7.8-52.9-14.9-96-7.2-43.1-12.3-69.5-14.6-78.9-2.1-8.9-5.9-16.2-11.8-21.1-5.8-5-12-7-18.5-6.1s-12 4.2-16.6 9.9c-3.2 4-4.9 8.3-5.1 12.8-.2 4.6 1 16 3.5 34.1 2.9 20.9 8.4 54 17.2 98.1 3.5 17.1 6.3 32.5 8.2 46.1 4.5 32.4 3.5 54.8-2.9 67.1s-20.4 20.2-42.1 23.7c-.9.1-1.4.2-2.4.3-18.2 2.6-34.2 1.5-48.1-3.3-13.8-4.9-28.4-14.7-43.6-29.3-14.7-14.3-24-26.7-27.6-36.9-3.6-10.4-9.5-40.5-17.5-90.6-5.7-35.3-8.5-53-14.2-88.4-3.4-2.8-5.1-4.2-8.6-6.9-6.5-4.5-13.2-6.3-20.1-5.2q-11.55 1.8-18 12.3c-2.1 3.6-3.2 5.5-5.4 9.1 10.1 55.8 15.1 83.7 25.2 139.4q7.65 45 21.6 127.5c9.3 55 14.7 86.7 16 95.2 5.2 33.3 7.9 49.9 13.1 83.2 3.4 1.6 5 2.4 8.4 4M25160.9 21638.1c-9.7 7-22 11.7-37 14.2-3.1.4-4.6.5-7.7.9q-16.65 1.95-27.6-1.5c-7.3-2.3-16.1-7.3-26.3-15.1-16.4-12.6-28.3-29.2-35.7-49.9-3.1-8.3-4.7-13.4-4.9-15.3-.3-2.3.2-4.4 1.6-6.1 7.9-8.4 28.6-15.6 62-21.6 5.9-1 12.7-2.1 20.3-3 9.6-1.1 19.8.4 30.3 4.2 10 3.7 19.8 9.8 29.1 18.6 9.2 8.8 15.1 17.2 17.6 25.1.5 1.1.9 2.9 1.1 5.2 1.8 16.7-5.8 31.4-22.8 44.3m-73.6 66.2c8.2 1.8 19.6 1.8 34.2.1 20.5-2.4 38.2-7.1 52.9-14.2 11.8-5.7 23-14.6 33.8-26.7 10.7-12.1 18.4-24.6 22.5-37.1 4.3-13.1 5.7-25.9 4.5-37.5-2.4-22.9-14.9-44.5-37.7-64.3-29.4-25.5-63.9-36-102.9-31.5-1.2.2-3.3.5-6.3 1.1-3 .5-5.3.9-6.9 1.1-19.2 3.4-35.4 7.7-48.6 12.8-5.8 2.7-11.7 4.4-17.7 5.2l-1.8.2c-1-1.1-.8-7.2.5-18.4 1.2-11.1 3.2-21.6 5.6-31.3 2.2-8.9 6.7-18 13.6-27.3s14.4-16.4 22.4-21.2c9.1-5.5 18.5-8.7 27.8-9.8 25.9-3 47.2 5.2 63.7 24.6 7.9 8.9 13.9 14.7 17.8 16.9 4.6 2.6 9.6 3.6 14.4 3.1 6.5-.7 12-3.6 16.5-8.8 4.6-5.2 6.5-11.1 5.8-17.7-.9-8.5-6.3-18.3-16.3-29.4-10.1-11.1-21.1-19.5-33.3-25.3-25.5-11.7-48.3-16.4-68.3-14.1q-1.8.3-5.1.9c-2.3.5-4.2.8-5.8 1-30 5.1-55.3 19.1-75.9 42.1-14.5 16.3-24.7 37.7-30.5 64-5.9 26.3-7 53.9-3.2 83 1.5 11.6 4.1 24.5 8 38.5 8.8 31.8 23.6 58.3 44 79.3 20.3 21.1 44.4 34.6 72.3 40.7M25302.7 21685.5c4.8 3.9 10.9 5.4 18.4 4.7s12.8-3.4 16-7.4c3.1-3.8 4.5-16.3 3.7-37.4-.5-12-.7-17.9-1.1-29.9 8 5.4 12 8.1 19.9 13.4 14.5 9.6 30.9 18.1 49 24.9 13.5 5.1 23.4 8.1 29.3 9.2 5.8 1.1 16.2 1.2 30.8.9 5.5-.1 11.9-.4 19.1-1 9.4-.8 17.8-3.2 25.1-7.3 13.4-6.9 24.1-15.2 32.1-24.8 8.1-9.6 11.8-18.3 11.2-26.1l-.4-1.7-.4-1.7c-4.1-12.2-12-17.9-23.5-17-8 .6-16.7 4.8-24.9 12.5-11.1 10.5-23 17.1-35.7 18.2-4.8.4-10.2.2-16.3-.4-41.2-4-79-26.4-113.9-67.4l-11.5-13c-2.1-21.3-4.7-53.6-8-96.8-3.3-43.1-6-75.6-8-97.4-3.3-2.7-4.9-4.1-8.1-6.8-5.4-5-11.8-7.1-19.1-6.4-6.6.6-12 3.7-16.4 9.2-7 8.6-7.5 42.5-1.6 101.9 1.2 11.6 4.9 46.3 11.6 103.5 7.5 64.6 12.6 104.2 14.8 118.5 2.2 14.2 4.8 22.8 7.9 25.6M25618.2 21658.9c4.6 4 10.7 5.7 18.2 5.2s12.9-3 16.2-7c3.2-3.7 4.9-16.1 4.7-37.2 0-12-.1-17.9-.2-29.9 7.9 5.6 11.8 8.4 19.5 14 14.3 10 30.4 18.9 48.3 26.3 13.4 5.5 23.1 8.8 29 10 5.8 1.2 16.2 1.7 30.8 1.8 5.5.1 11.9-.1 19-.4 9.5-.5 17.9-2.7 25.3-6.6 13.6-6.5 24.5-14.5 32.8-23.9 8.3-9.3 12.3-17.9 12-25.7l-.4-1.7-.4-1.8c-3.7-12.3-11.4-18.2-23-17.6-8 .4-16.8 4.3-25.2 11.7-11.4 10.2-23.5 16.5-36.2 17.2q-7.2.3-16.2-.9c-41-5.1-78.2-28.7-111.9-70.6-4.4-5.4-6.7-8-11.1-13.4-1.4-21.4-3.2-53.7-5.2-97-2-43.2-3.8-75.7-5.2-97.5-3.2-2.9-4.7-4.3-7.9-7.1-5.2-5.1-11.5-7.5-18.9-7-6.5.5-12.1 3.4-16.6 8.8-7.2 8.3-8.7 42.2-4.5 101.8.8 11.6 3.5 46.4 8.5 103.8 5.6 64.7 9.6 104.5 11.4 118.8s4.2 23 7.2 25.9M26183.5 21624.7c1.7.8 4.2 1.1 7.8 1.1 6.3-.1 12.1-2.6 17.1-7.3 2.8-2.4 4.1-6.2 4-11.2 0-.8-.2-6.6-1.4-16.4-1.7-13.2-3.7-66.5-5.5-157.9-1.1-63-2.4-102.4-3-117.6q-1.05-22.8-4.8-32.7c-16.4-52.8-72.3-79.8-163.8-76.3-62.3 2.3-91.9 13.7-86.7 31.1.4 10.5 6.2 17.7 17.5 21.6 5.4 1.7 10.3 2.5 14.8 2.3 3.3-.1 11.8-1.3 25.2-3.7 20.3-3.8 37.5-5.9 51.5-6.3 29.5-.9 52.5 4.8 67.5 16.9 10.8 8.8 18.6 20.4 23.4 33.8s7.4 32.3 7.9 56.9c.2 11.3.2 20.3-.1 26.9-1.1 31.9-1.6 48.1-2 48.1-9.9-8.7-14.8-13.1-24.7-21.7-29.8-26.3-58.2-39-85-38.2-6.4.2-13.3 1-20.6 2.4-56.1 12.1-88.5 49-97.2 110.1-3.4 25.9-4.6 50.6-3.6 73.9 1.4 32.8 5.6 52.7 12.6 59.8 4.1 3.8 9.2 5.5 15.1 5.3 6.4-.3 11.6-2.6 15.9-7.1 3-3.2 4.8-7.1 5.5-11.6.6-4.5.6-16.1-.1-34.8-2.4-63.6 4.9-104.6 21.4-123.2 13.2-14.7 31.2-22.7 53.8-23.4 4-.1 9.3.3 14.6 1.9 6.7 2.1 18.3 10.2 32.7 23.1 14.5 12.8 27.5 30.6 38.7 52.2 16 30.6 26.6 59.1 31.2 84.5 3.7 21.1 10.4 33.8 20.3 37.5M26416.5 21738.9c2.7 3.5 7.8 5.2 15.2 5.3 4.2 0 8.3-1 12.2-2.9 19.1-10.4 30.6-114.4 34.7-312.2 1.2-46.5 1.8-69.8 2.9-116.4 22.3.4 33.4.7 55.7 1.2 54.6 2 86.9 3.5 96.6 4.1 16.2 1.1 25.3 1.8 26.9 1.8 10.2.3 17.4-.9 21.5-3.5 8.3-4.8 12.6-11.7 12.8-20.7.4-11.3-5.2-19.1-16.5-23.3-6.9-2.5-47.3-6.2-120.3-9-45.7-1.7-71.7-2-77.5-2.1-20.2-.2-33.3.5-39.2 2.1-5.9 1.5-9.8 4.8-11.9 9.8-1.2 3.2-2.7 55.3-3.6 155.7-1.3 129.6-5.5 218.4-13.5 265.6-2.1 12.4-3.1 20.8-3.1 25.1 0 7 2.4 13.5 7.1 19.4M26743.6 21551.7c3.3 3.6 9.2 5.6 17.2 5.8 7.6.3 13.7-2.7 17.7-8.7 3.9-5.9 6.8-18.1 8.9-36 2-17.8 4.8-57 8.2-117.4 2.2-38.3 3.3-57.4 5.4-95.8-3.1-3.1-4.6-4.7-7.7-7.9-4.7-4.8-10.6-7.4-17.5-7.6-6.1-.3-11.8 1.6-17.1 5.5s-8.5 9.5-10 16.4c-1.4 6.1-3.4 48.1-6 125.7-.6 20.8-1 31.2-1.7 52-1.3 41.7-.5 64.6 2.6 68m-5.1 48.4c-1.4 3.5-2 6.8-2.2 9.9-.1 5.9 1.6 10.6 5.2 14.2 3.7 3.7 9.1 5.6 16.2 5.8 6.8.3 12.2-1.3 16.3-4.7 4.1-3.3 6.2-7.7 6.4-13.2.2-3.9-.5-7.4-2-10.6-3.2-8.7-9.9-13.2-19.8-13.6-9.6-.3-16.3 3.8-20.1 12.2M27043.1 21594.4c-7.9 5-14 7.9-18.2 8.9-4.3.9-11.4 1.2-21.3 1.1-2.7-.2-4-.3-6.6-.4-19.1-1.1-38-8.8-56.8-23-23.4-17.6-38-44.6-43.6-81.2-1.8-11.4-2.5-22.2-2.1-32.3 1.3-28.4 11.9-51.9 31.9-69.9 15.6-14.1 31.5-20.7 47.3-19.9 3.3.2 5.7.5 7.3 1 10.5 1.7 24 7.2 40.6 16.6 16.5 9.4 30.6 19.1 41.5 29.1 11.5 10.6 18 16.4 19.6 16.5 2.8.2 4.2 26.4 4.1 78.8v46.9c-4.1 3.7-6.1 5.6-10.2 9.3-6.8 5.9-11.2 8.7-13.1 8.6-2-.1-8.9 3.2-20.4 9.9m59.1 76.4c4.6 2.3 9.6 2.5 14.8 1 5.6-1.6 9.5-4.3 11.5-8 2.1-3.8 3.5-11.7 4.3-23.8.8-10.5 1.1-25.3 1.3-44.4.8-95.6 4-182.8 8.7-260.4 4.8-80.8 6.5-123 5.4-125.7-1.3-3.6-3.3-6.9-5.8-9.8-2.4-2.9-8.3-4.5-17.5-4.7q-13.8-.3-17.7 3t-6.6 8.4c-2.4 4.4-5.6 39.1-9.6 103.7q-3.9 61.35-6.3 61.2c-1.7-.1-9.3-4.5-23.1-13.2-30.6-19.4-59.5-29.9-86.4-31.3-14.3-.8-27.7 1.4-40.2 6.2-10.7 4.1-22.6 11.2-35.5 21.1s-22.8 19.7-29.7 29.1c-16.4 22.3-25.2 49.5-26.6 81.5-3.2 77.9 25.6 133.5 85.8 167.3 23.2 12.5 44.8 19.3 65 20.5 18.9 1 38.7-3 58.9-11.2 17.7-7.2 27.7-10.6 29.3-10.5 2 .1 3.6 4.8 4.5 13.8 1.2 13.5 6.2 22.4 15.5 26.2M27435.5 21680.4c4.4 4.2 8.9 6.7 13.7 7.1 4.7.5 10.2-1.1 15.4-4.9 4.7-3.5 7.5-8.9 8.1-15.1.7-6.9-.1-22.5-2.6-46.6-6.7-65.4-8-121-3.5-166.8 3.3-34.2 9.9-64.3 19.9-90.3 2.4-7.6 3.7-12.8 4-15.5 1.6-17.1-5.7-26.4-22-28-18.3-1.8-31.9 15.2-40.6 50.8-2.5 9.5-4.4 14.3-5.6 14.1-1.2-.1-5.4-5.4-12.6-15.8-22-33.4-51.2-51.6-87.6-54.7-15.5-1.3-28.1-.2-37.8 3.1s-21.2 10.5-34.3 21.6c-20.6 17.2-36.1 41.1-46.5 71.6-5.1 14.1-9 40-11.8 77.8-2.4 32.7-3.2 64.4-2.5 95.1.8 30.8 3.3 49.9 7.5 57.2 3.9 6.8 10.4 10.7 19.5 11.4s15.2-1.9 18.5-7.9c1.8-3 3-7.2 3.4-12.7.4-4.6.2-15.8-.4-33.5-.9-24.7-.1-53.2 2.4-85.4 3.1-39.3 7.3-66.4 12.5-81.2 8.4-24 18.3-41.4 29.8-52.2 11.9-11.2 24-16.3 36.2-15.3 28 2.4 50.5 22.3 67.1 59.6s25.5 68.4 26.2 92.6c.6 17.1 2.6 43.6 6.5 79 3.9 35.5 6.8 58.5 9.1 68.8 1.6 7.1 4.4 12.6 8 16.1M27709.7 21650.9c-11.1 4.5-24.1 6.3-39.3 5.3-3-.4-4.6-.6-7.7-.9-11.1-1.3-19.9-3.9-26.5-7.8s-13.9-10.9-22.1-20.8c-13-16-20.8-34.9-23.3-56.7-1-8.8-1.5-14.1-1.2-16.1.2-2.3 1.2-4.2 3-5.5 9.6-6.4 31.5-8.6 65.2-6.8 6 .3 12.9.9 20.5 1.8 9.6 1.1 19.1 4.9 28.5 11.1 8.9 5.8 17.1 14 24 24.7q10.5 16.05 11.4 28.5c.3 1.2.2 3-.1 5.3-2 16.6-12.9 29.2-32.4 37.9m-86.8 47.4c7.5 3.7 18.6 6.3 33.2 8 20.5 2.4 38.8 1.9 54.8-1.7 12.8-2.7 25.8-8.8 39-18.1s23.6-19.7 30.5-30.9c7.2-11.9 11.5-23.9 13-35.5 2.9-22.8-4.3-46.7-21.9-71.2-22.8-31.6-54-49.8-93-54.4-1.2-.1-3.3-.2-6.3-.4-3.1-.2-5.4-.4-7-.5-19.4-1.1-36.2-.6-50.2 1.3-6.3 1.3-12.4 1.6-18.4.9l-1.9-.2c-.6-1.2.9-7.1 4.7-17.7 3.9-10.6 8.1-20.3 12.7-29.2 4.2-8.1 10.7-16 19.5-23.4q13.35-11.25 26.7-15.6c10.1-3.2 20-4.1 29.3-3 25.9 3 44.7 15.9 56.3 38.5 5.7 10.5 10.2 17.5 13.5 20.5 3.9 3.7 8.5 5.8 13.3 6.4 6.4.8 12.5-.8 18.1-4.8s8.9-9.3 9.7-15.8c1.1-8.5-1.9-19.4-9.1-32.5-7.2-13-16.1-23.8-26.6-32.2q-33.3-25.8-63.3-29.4c-1.2-.1-2.9-.2-5.2-.3-2.2-.1-4.2-.2-5.8-.4-30.3-2-58.2 5.9-83.6 23.5-17.8 12.6-32.6 31-44.3 55.3-11.8 24.2-19.2 50.9-22.2 80-1.2 11.6-1.6 24.8-1.1 39.3 1.3 33 9.6 62.2 24.5 87.3 15 25.2 35.3 43.9 61.1 56.2M28083.3 21762.7c4.1 4.4 8.6 7.2 13.3 8 4.7.7 10.3-.5 15.7-4 4.9-3.2 8-8.4 9-14.6 1.1-6.9 1.2-22.5.2-46.8-2.8-65.6-.8-121.2 6.4-166.6 5.4-33.9 13.7-63.6 25.3-89 2.8-7.4 4.4-12.5 4.8-15.2 2.8-16.9-4-26.7-20.2-29.3-18.3-2.9-32.8 13.3-43.6 48.3-3.1 9.4-5.3 14-6.5 13.8s-5.1-5.7-11.7-16.6c-20-34.6-48.1-54.6-84.3-59.8-15.4-2.2-28.1-1.9-38 .8s-21.8 9.3-35.6 19.5q-32.4 24-50.7 68.7c-6 13.8-11.4 39.4-16.4 76.9-4.4 32.5-7.1 64.1-8.2 94.9-1.1 30.7.4 49.9 4.1 57.5 3.5 7 9.7 11.3 18.7 12.6 9.1 1.2 15.5-1.1 19.1-6.9 2-2.8 3.4-7 4.1-12.4.7-4.6 1.2-15.8 1.6-33.4q.9-37.2 7.5-85.2c5.4-39.1 11.2-65.8 17.3-80.3 9.8-23.4 20.8-40.3 32.9-50.4 12.6-10.4 25-14.7 37.1-13 27.9 4 49.2 25.2 63.6 63.5s21.4 69.8 20.7 94c-.5 17.1 0 43.7 1.8 79.3 1.7 35.6 3.3 58.8 5 69.1 1.1 7.3 3.7 12.9 7 16.6M28175.3 21780.5c3.6 4.9 9.2 8.1 16.6 9.3s13.3.1 17.5-3c3.9-2.9 8.5-14.6 13.2-35.1 2.7-11.7 4.1-17.5 6.8-29.1 6.3 7.2 9.4 10.8 15.7 18.1 11.6 13.1 25.3 25.5 41 36.8 11.8 8.5 20.5 13.9 25.9 16.5s15.5 5.4 29.7 8.9c5.4 1.4 11.6 2.7 18.7 4 9.4 1.8 18.1 1.6 26.2-.5 14.8-3.2 27.3-8.3 37.6-15.5s16.2-14.6 17.7-22.3v-3.5c-.7-12.9-6.9-20.4-18.3-22.6-7.9-1.4-17.4.3-27.3 5.6-13.6 7.3-26.8 10.5-39.4 8.2-4.8-.8-10-2.4-15.6-4.6-38.9-14.5-69.6-46.1-92.8-94.7-3.1-6.2-4.6-9.4-7.7-15.6 3.5-21.1 9.4-53 17.5-95.5 8-42.5 13.9-74.6 17.5-96.1-2.4-3.5-3.6-5.3-6-8.8q-5.85-9.3-16.8-11.1c-6.5-1.1-12.6.5-18.3 4.7-8.9 6.4-18.3 39-28 97.9-1.9 11.5-7.4 45.9-15.9 102.9-9.5 64.3-14.9 103.9-16.5 118.3-1.5 14.3-1.2 23.3 1 26.8" style="fill:#100f0d;fill-opacity:1;fill-rule:nonzero;stroke:none" transform="matrix(.00743 0 0 -.00743 -95.381 280.749)"/><path d="M24614.5 24903.2c7.4 3.7 15.4 4.9 24.1 3.6 15.2-2.4 27.6-12.6 37.4-30.5 14.8-27.7 18.7-112 11.5-253.1-1.1-20.7-3.6-62.2-7.9-124.1-5.5-78.6-9.3-126.3-11.2-142.9-1.9-16.7-5-27.4-9.4-32.2-6.6-7.4-16.1-10.2-28.4-8.2-8.8 1.3-15.3 5.1-19.7 10.5-3.2 4-4.8 17-4.2 38.7q1.05 32.7 10.2 205.8c8.3 156.8 11.2 238.7 8.4 245.6-.9 3.1-1.8 4.7-2.8 4.9-2.6.4-14.1-11.9-34.6-36.9-12.2-16-40.4-48.5-84.6-97.1-8.3-9.1-17.5-19.3-27.5-30.8-10-11.4-19.6-22.4-28.8-32.7s-15.2-17-17.9-20q-28.5-33-43.2-30.3c-4.7.8-10 3.2-16 7.3-11 7-20.1 15.8-27.3 26.3-7.1 10.5-17.6 31-31.3 61.5-25.1 55.5-48.7 105.4-70.9 149.6s-35.3 66.8-39.4 67.6l-.8.2c-3.8-2.7-9.1-37.3-16.1-103.7-7.1-66.4-13.3-140.2-18.7-221.4-4.8-66-7.1-99-11.9-165.1-3.9-1.9-5.8-2.9-9.7-4.8-6.5-3.1-12.1-4.3-16.8-3.3-5.1 1-11.2 5-18 11.9-4.4 4.4-7.3 9.1-8.5 14.1s-2.3 14.9-2.7 29.4c-1.4 46.1 1.4 111.6 7.2 195.2 8.7 126.4 18.6 217.2 29.5 272.2 5.6 27.8 12.3 47 20.2 57.6s18.8 14.5 32.5 11.7c10.6-2.1 19.6-5.6 26.3-10.5 6.3-4.6 16.4-16.2 30.1-34.3 13.8-18.2 24.1-33.4 31.1-45.7 26.5-52.4 59.3-120.7 98.8-204.6 5.5-11.7 8.3-17.6 13.8-29.4 3 3.1 4.5 4.6 7.5 7.7 7.2 6.6 28.2 30.6 63.1 72 34.8 41.4 59.5 71.8 74 90.7 33.5 43.2 60.9 69 82.6 77.5M25014.1 24723.4c-4.6 21.4-8.2 34-10.1 37.8l-.7.1c-2.1.2-5.3-3-9.7-9.6-4.5-6.7-6.7-11.7-6.9-15.2 0-.5-8.8-17.8-26.3-51.8q-23.7-46.05-47.4-98.1c-15.9-34.7-23.9-53.9-24.1-57.9-.2-4.4 4.9-6.4 15.4-5.8 5.2.3 32.3-1.4 81-4.4 45.6-2.9 68.6-3.2 68.7-1.7.2 4.9-3 19.5-9.2 43.5-5 19.4-10.6 48.5-17.1 87s-10.9 64-13.6 76.1m-31.2 142.5c7.4 4.5 16.5 6.1 27.2 4.7 10.8-1.3 20.1-6.9 28-16.8 19.1-22.7 36.5-83.3 52.4-182 3.7-22.7 18.1-89.4 43.8-199.2 13.9-59.1 23.3-97.9 27.8-116.3 12-46.4 17.8-72.6 17.6-78.5-.3-8.4-3.8-15.2-10.5-20.5-6.8-5.2-14.6-7.3-23.5-6.3-3.6.4-7.5 1.5-11.6 3.5-7.8 3.8-14.2 12.1-19.2 24.8-5 12.8-13 41.1-23.8 85-8.5 33.1-12.7 49.7-21.1 82.8-2 2.3-11.6 4.4-28.7 6.4-29.1 3.5-65.8 6.1-110 8.2-44.2 2-68.3 1.7-72-1.3-8.2-6.3-24.4-41.8-48.9-106.5-9.5-23.5-17.4-39-23.8-46.5-6.4-7.6-14.5-10.6-24.4-9.2-17.2 2.5-25.3 13.9-24.3 34.1.6 13.3 18.9 62.9 54.6 149s67.6 156.1 94.4 209.4c21.8 43.4 37.6 76.9 47.8 99.4 20.6 43.5 36.6 68.8 48.2 75.8M25450.6 24798.1c-16.4 3.8-28.2 6.1-35.4 6.7-7.7.7-18.5.4-32.5-.8-33.6-2.9-52-6.6-55.3-11.3-1.6-2.3-2.8-14.8-3.5-37.6-2.6-81.6-1.4-164 3.8-247.3.6-9.9 1-14.9 1.6-24.7 7.1-.7 10.7-1 17.9-1.7 12.5-1.1 28.6-.4 48.5 2.3 69.5 7.8 121.5 23.9 156.2 47.7 34.7 23.7 53.7 56.6 57.3 98.5.1 4.4.1 6.7.2 11.1.9 39.6-12.1 72.7-39.1 99.4-27 26.8-66.9 45.9-119.7 57.7m-100.1 63.1c18 2.8 36.6 3.4 55.6 1.7 2.6-.2 7-.7 13.1-1.5 6.2-.8 11-1.3 14.6-1.6 79.6-8.8 140.7-34.5 183.6-76.6 36.9-36.3 57.3-80.6 59.8-133.3.4-4 .6-10.2.4-18.6-.6-28.2-7.6-55.5-21.2-81.1-16.5-31.1-39.3-56.2-67.6-75s-66.3-33.7-114.1-44.2c-16.4-3.8-24.6-5.6-40.9-9.3 12.5-9.4 18.8-14.1 31.4-23.4 98.3-72.5 152.5-113 161.7-123.5 4.6-6.2 6.7-13.1 6.6-20.5-.2-7.4-2.4-14-6.7-19.6-4.4-5.7-10.2-9-17.6-10-2.1-.3-4.7-.4-7.9-.2-4.6.3-11.7 3.5-21 9.6s-29.4 20.7-60.2 43.9c-101.8 76.1-158.8 119-172.2 126.7-7 3.9-10.6 5.9-17.7 9.8-1.2-37.9-1.8-56.9-2.9-94.9-1.3-41-3.3-66.2-5.9-75.3-2.7-9.2-9.3-14.5-19.8-16-1.6-.4-4.2-.4-7.9 0-13.1 1.3-22.6 6.9-28.6 16.9-3.4 5.8-4 55.3-3.7 146.2.3 96.1-1 159.1-1.6 186.9-1.4 67.1-.6 141 2.1 221.6.6 17.8 1.3 28 1.8 30.3.7 3.3 11.1 8.8 31.4 16.2 20.4 7.5 38.9 12.4 55.4 14.8M26001.8 24646.3c-5.3 20.8-9.2 33.2-11.2 36.7l-.8.1c-2.1 0-5.2-3.5-9.4-10.5-4.3-7-6.4-12.3-6.5-15.7 0-.5-8.2-18.6-24.7-54.1-14.9-32.1-29.8-66.2-44.6-102.2-14.8-36.1-22.3-56.1-22.4-60 0-4.5 5.2-5.9 15.6-4.4 5.2.8 32.4 1.5 81.3 2.8 45.8 1.3 68.8 3 68.8 4.5.1 4.9-3.6 19.2-10.5 42.6-5.6 18.9-12.1 47.5-19.7 85.3-7.7 37.9-12.9 63-15.9 74.9m-35.6 139.4c7.3 5.2 16.3 7.6 27.2 7.2 10.8-.4 20.3-5.1 28.4-14.3 19.9-20.9 39.2-79.9 58-177 4.5-22.4 20.9-87.7 49.9-195.1 15.6-57.8 26.2-95.6 31.4-113.6 13.3-45.3 20-70.9 19.9-76.8 0-8.4-3.3-15.6-9.9-21.4s-14.4-8.7-23.3-8.5c-3.7.1-7.6.9-11.8 2.5-7.8 3.1-14.5 10.8-19.9 23.1s-14.3 39.8-26.4 82.7c-9.5 32.3-14.2 48.5-23.6 80.9-2.1 2-11.7 3.2-29 3.7-29.2.9-66 .3-110.4-1.7-44.4-1.9-68.4-4.4-72.1-7.7-8-7-23.2-44-45.8-110.7-8.7-24.3-16.3-40.5-22.4-48.6-6.2-8.1-14.3-11.9-24.2-11.4-17.3 1-25.8 11.6-25.4 31.9.3 13.4 17.1 64.5 50.3 153.7 33.1 89.2 62.9 161.9 88.2 217.5 20.5 45.3 35.4 80.3 45 103.6 19.2 45.3 34.5 72 45.9 80M26359 24804.3c15.5 3.9 34 5.9 55.7 6 26.2.1 47.5-2.3 62.6-7.7 14.7-5.4 29.5-15.3 43.8-28.5 14.2-13.2 24.5-26.7 30.7-40.4 3.2-6.4 6.3-18.9 9.5-37.4 3.3-18.5 4.9-32.7 5-42.6 0-3.5-.3-5.7-.8-6.7-3.5-16.9-13-25.5-28.6-25.7-7.3-.1-13.9 2.5-19.8 7.9-6 5.3-9.8 12.5-11.4 21.4-4.8 29.1-10.1 49.8-16.1 61.8-6 12.1-15.4 21.9-27.6 27.6-9.8 4.6-23.3 6.5-38.7 6.5-19.1-.1-38.1-3.5-56.9-10.2-18.9-6.7-32.2-15.3-38.4-25.5-6.9-11.4-10.1-24.8-10.1-38.6-.1-9.9 2-19.8 6.1-29.8 10.9-24.3 51.9-66 123.8-123.9 56.1-45.1 92.3-79.7 107.3-104.2 15.9-25.8 23.8-54.3 24-85 .3-42.6-13.6-78.5-41.8-107.7-19.8-21.6-48-38-83.2-47-23.1-5.8-43.6-8.4-59.9-8.4-35.7-.1-67.3 13.4-94.4 40.3-34 33.8-50.9 74-50.7 120.1.1 25.2 6.1 49.2 18.2 71.1 12.9 23.1 26.4 34.7 40 34.6 7.3 0 14.7-3.7 22.3-10.9 7.5-7.2 11.3-14.4 11.3-21.6 0-7.1-4-16.8-11-28.5-7.4-12.5-11-27.7-11.1-44.5q0-31.35 16.5-57.3c10.9-17.4 25.4-29 43.2-35 2.1-1 7-1.5 14.9-1.4 27.8 0 51.1 5.1 69.9 15.2 30.9 15.6 46.6 42.4 46.1 79.2-.4 23.5-7.3 43.9-19.8 60.7-12.6 16.6-40.9 42.5-84.6 77.4-51.4 41-88.1 74.4-109.9 100.1-21.7 25.7-35.6 51.2-41.8 76.5q-4.5 17.1-4.5 27.6c0 2.9 1 11.2 3.2 24.4 5 30 16.6 53.8 33.9 71s41.7 30.2 73.1 39.1M26859.8 24804.7c7.7 1.8 16.5 3 26.3 3.4 23.1 1.1 43.2-1.4 60.4-7.4 10.9-3.9 23-11.7 36.3-23.3 13.4-11.7 22.2-22.4 26.6-32 3.7-8.2 5.8-17.3 5.9-27.1.4-16.9-3.8-28.3-12.5-34.2-3-2.2-9-3.5-17.7-4-7.3-.4-13.9 2.4-20 8.2-6 5.9-9.1 12.5-9.3 20-.1 6.4-4.5 13.8-13.2 22.3-8.6 8.5-17.7 13.5-26.2 15.8-5.6 1.5-12.4 2.3-20.1 2-25.8-1.3-53.5-13.6-83.1-37.1-29.7-23.5-52.6-51.6-68.8-84.3-23.8-47.8-36.6-98.2-38.2-151.2 0-2-.1-5.2-.3-9.7s-.3-7.7-.2-9.7c.9-97.5 35.8-161.5 104.8-191 12.6-5.5 23.7-8 33.1-7.6 5.8.3 10.5.7 14.1 1.4q22.8 3.15 36 10.5c8.8 4.9 18.4 13.2 28.6 25.1 10.3 11.9 17.5 21.7 21.5 29.4 4.1 7.6 7.7 19.4 11.2 34.7 6.5 28.4 18.8 43.4 36 44.3 7.8.5 15.7-2.8 23.7-9.8 7.4-6.5 11.1-12.5 11.2-17.9.1-1.5-.4-5.7-1.3-12.7-3.5-31.9-16.2-63.2-38.2-93.6-21.9-30.5-46.8-51.3-74.4-62.5-14.1-6.2-35-10.4-62-11.8-25-1.3-45.7 1.6-61.5 8-48 20-84.1 48.9-108.3 86.4q-36.15 56.25-42.3 145.2c-.6 5-.9 12.6-1 23.1-.5 60.4 11.2 117.6 34.8 171.7s53.5 95.4 89.8 123.9c13.8 10.9 30.3 21.4 49.5 31.6s35.5 16.8 48.8 19.9M27100.2 24807.5c5.8 7.8 13.6 12.1 22.9 12.7 13.3.9 22.7-5.1 28.2-18.1q3.3-7.95 6.9-78.3t7.2-135.9c2.3-43.7 4.3-65.5 5.8-65.4 1.6.1 14.3 3.7 38 11 21.1 6.5 51.7 14.2 91.7 23.3 40 9 66.7 14.3 80.2 15.5 1.8.2 2.8.3 4.7.5l1.5-.6 1.6.1c2.6.2 4.2 3.1 4.8 8.6s.9 20.8 1.3 45.5c.6 40.6.8 74 0 99.7-1.3 41 .1 68.2 4 81.5 4 13.2 12.9 20.5 26.8 21.8 14.9 1.5 24.9-4.5 30-17.9 1.1-2.8 2-14.4 2.7-34.7.4-12.4.7-36.9.8-73.5.4-73.4 2.9-164.5 5.9-271.8 3.3-114.8 3.2-176.3 1.3-182.9-4.8-13.9-14.2-21.7-28.3-23.6-1.9-.1-2.9-.2-4.8-.4-15.1-1.4-24.4 5.4-27.7 20.4-3.4 15.1-6.2 60.5-8.6 136.2-1.6 53-2.4 79.6-4.1 132.7-5.9-1.4-8.8-2.1-14.7-3.5-2-.8-7-1.8-14.7-3.3-7.8-1.4-17.5-3.2-29.1-5.5-11.7-2.2-22.2-4.5-31.5-6.7-43.9-9.7-76.8-17.9-98.5-25-15.2-4.7-22.8-7-38-11.7-.7-22-1.1-33.1-1.8-55.1-1.4-49.2-2.6-82.1-3.9-98.4-1.5-19.9-3-32.6-4.2-37.9s-4.4-10.1-9.5-14.4c-7.2-5.9-14.5-9.2-21.8-9.7-16.8-1.1-27.4 6.4-32 22.5-.5.9-.9 5.6-1 14-.4 15.4 0 32.7 1.2 52.1 5.6 104.5 7 215.1 4.4 331.9-.1 6.4-.4 15-.9 25.9s-.8 18.6-.9 23c-.7 17.1-1.6 36.1-2 56.4-.5 19.8 1.5 32.9 6.1 39M27523 24834.7c5.5 6.1 13.3 9.6 23.6 10.7 5.1.6 10.3-.1 15.5-2 10-3.9 17.4-26.8 22.3-68.7s10.6-131.5 17.3-268.6q3-60 6-140.1c1.4-37 1.8-63.7 1.1-79.9-.8-16.1-2.4-26.6-4.8-31.4-2.5-4.7-7.1-8.9-13.7-12.6-6.1-3.6-10.8-5.7-14-6-3.1-.3-7.9.6-14.2 2.9-9.6 3.5-15.3 7.8-17 13.1-.6 1.4-5.3 93.1-14 275s-12.8 276-13.3 281c-.4 3.2-1.1 7.1-1.2 11.1-.2 5.4 2 10.6 6.4 15.5M27681.1 24865.1c3.5 2.9 8.3 4.7 14.4 5.5 9.3 1.1 18.2-2.1 26.7-9.4 9.6-8.3 42.5-50.5 99.1-126 56.6-75.4 107.7-145.1 153-209.1 37.4-52.7 57.4-78.7 59.4-78.4 2.6.4 3.3 12.9 2 37.5-3.2 64.2-3.8 173.6-2.5 327.8.4 44.2 2 71.5 5.1 81.7 3.1 10.1 12.1 16.3 26.9 18.6 10.7 1.7 19.3-.5 25.1-6.5 4.9-5.1 7.6-13.9 8.3-26.3.7-12.8.9-76.2.7-190.1-.2-75.6.2-149.5 1.5-221.3 1.3-77.2.8-121.4-1.8-132.3-3.4-14.4-11.9-22.7-25.4-24.8-3.2-.5-5.5-.6-7.1-.3-6.9.9-16.8 6.9-29.6 17.9-12.9 11-24.1 23.2-33.7 36.7-64.1 90.5-125.5 177-184.4 259.5-59 82.4-89.4 124.3-92 124.9-1.1.4-1.8-11-2.1-34.1s-.2-58.4.4-105.7c.7-47.3 2.2-105.7 3.7-174.2 1.9-88.3 2.1-134.2 1.6-136.8-1.2-8.6-4.4-15.7-9.7-21.3s-11.3-8.8-18.1-9.6c-8.4-1-15.8 1.4-22.3 7.1-3.9 3.4-5.9 5.1-9.8 8.5-3.2 91-4.8 136.6-8.1 227.6-5.6 156.7-8.3 248.5-8 275.3.2 26.8 3.7 45.8 10.5 56.3 8.1 12.4 13.7 19.5 16.2 21.3M28445.9 24908.2c-6.9 2.7-23.6 2.2-50.2-1.2-3.1-.6-6.9-1.2-11.5-1.8s-7.7-1-9.2-1.3c-12.8-2.4-26.6-8.6-41.4-18.7-38.2-25.8-66-81.1-83.4-166-4.5-21.7-7.1-38.3-7.7-49.8s-.6-32.8.9-63.2c1.8-37.1 5.5-65.3 10.2-83.6s13.6-36.7 25.8-54.8c13.3-19.7 29.7-34.5 49.6-43.2 19.9-8.6 41-10.9 63.2-6.8 18.7 3.4 36 10.6 52.1 21.5 33.6 22.8 61.3 53.5 82.7 92 16.3 29.5 27.2 59.4 32.8 89.4 5.5 30 6.9 66.8 3.9 110.6l-1.5 23.5c-1.5 22.1-6.7 42.2-15.7 60.4-23.1 43.1-56.6 74-100.6 93m-97.4 49.1c6.5 2.6 25.6 7.4 57.1 14.3 4.8.9 7.3 1.4 12.2 2.3 16.3 3 32.8 2.1 49.6-2.5 16-4.4 37.3-15.9 63.3-34.7 17.3-12 29.4-21.5 36.3-28.6q10.5-10.65 25.2-34.5c14-22.6 23.2-40.9 27.8-54.9s7.9-34.8 9.7-62.3c.5-6.2.7-9.3 1.1-15.5 2.9-57.8-.9-107.5-11.6-149.1q-16.05-62.4-61.2-127.5c-15.3-22.5-35.6-43.9-61-64.3-25.4-20.3-48.8-33.9-69.8-40-10.2-3-18.3-4.9-24-6-54.5-10-101-.7-139.2 27.6q-18.15 13.35-40.2 44.4c-14.7 20.6-25.2 40-31.4 57.8-6.8 19.2-11.5 52.6-14.1 99.9-1.5 26.7-1.7 47.4-.3 61.9 1.6 16.1 2.5 34.8 3.2 55 .4 9.9 4.2 27.8 11.1 53.4 6.8 25.4 14.2 46.4 21.3 62.5 6.9 15.8 15.7 33 26.5 50.8 10.9 17.7 20.2 30.8 28 39.1 8.2 8.9 20.6 18.4 37 28.6 16.4 10.1 31.1 17.4 43.4 22.3M26197 23405c-92.2 18.3-262.6 35.5-384-111.8s-319.6-427.7 79.7-748.2c167.8-134.7 378.7-146.5 520.1-11.9 188.1 178.9 264.7 338.6 155.9 538.2-129.5 237.6-280.4 315.6-371.7 333.7" style="fill:#c22126;fill-opacity:1;fill-rule:nonzero;stroke:none" transform="matrix(.00743 0 0 -.00743 -95.381 280.749)"/><path d="M26084.6 23387c-104.4 0-186.3-37.4-248.5-112.8-82.2-99.7-164.1-221.1-149.3-365.4 11.9-115.9 87.5-230.4 224.6-340.4 160.7-128.9 353.8-134.4 480.8-13.7 200.9 191.2 243.1 332 150.3 502.3-137.4 251.9-291.4 306.8-351.3 318.7-37.9 7.5-73.3 11.3-106.6 11.3m89.7-979.6c-100.3 0-205.5 38.2-300.3 114.3-150.1 120.4-233.1 248.6-246.7 380.9-17.2 167.3 77.9 306.8 162.6 409.6 96 116.4 234.8 157.5 413 122.2 68.1-13.6 242.7-74.6 392.1-348.8 133-244-7-427.2-161.6-574.2-72.9-69.4-163.7-104-259.1-104" style="fill:#211d1d;fill-opacity:1;fill-rule:nonzero;stroke:none" transform="matrix(.00743 0 0 -.00743 -95.381 280.749)"/><path d="M26332.1 22963.5c-20.9 0-43.3 4.9-67 14.9-106.6 44.7-105.3 130.4-89.8 169.4 6.2 15.3 23.6 22.8 38.9 16.7 15.4-6.1 22.8-23.5 16.7-38.9-3.5-9.5-17.9-60.4 57.4-92.1 28.7-12 52.7-13.3 71.2-3.8 32.8 16.8 43.7 62.6 43.8 63.1 3.7 16 19.6 26.2 35.7 22.6 16.1-3.7 26.2-19.5 22.7-35.6-.6-2.9-16.6-73.1-74.4-103.1-17-8.8-35.5-13.2-55.2-13.2" style="fill:#231f20;fill-opacity:1;fill-rule:nonzero;stroke:none" transform="matrix(.00743 0 0 -.00743 -95.381 280.749)"/><path d="M26309.8 23057.2c-1.5 0-3 .1-4.5.4-16.4 2.5-27.6 17.7-25.1 34 3.5 22.9 90.4 562.6 558.4 866.2 13.9 9 32.4 5 41.4-8.8 9-13.9 5-32.4-8.8-41.4-445-288.6-531-819.7-531.9-825-2.2-14.8-15-25.4-29.5-25.4" style="fill:#231f20;fill-opacity:1;fill-rule:nonzero;stroke:none" transform="matrix(.00743 0 0 -.00743 -95.381 280.749)"/><path d="M25045.5 22762.6c-48-80.9-120.8-235.8-22.3-399.3 98.6-163.5 297.1-443.7 732.1-173.7 182.8 113.5 264.1 308.4 184.3 486.5-106.3 237-231.4 362.3-455.8 326.1-267.1-43.1-390.9-159.5-438.3-239.6" style="fill:#c22126;fill-opacity:1;fill-rule:nonzero;stroke:none" transform="matrix(.00743 0 0 -.00743 -95.381 280.749)"/><path d="M25071.2 22747.3c-81.6-137.6-88.9-258.2-22.4-368.6 66.7-110.6 154-228.3 295-262.3 113.2-27.3 246.3 5.9 395.7 98.6 175 108.6 244.4 289 172.8 448.9-113.5 253.1-232.3 339.7-423.7 308.7-283.3-45.7-386.3-172.7-417.4-225.3m352.3-700c-32.2 0-63.5 3.6-93.7 10.9-163.4 39.4-263.4 175.5-332.2 289.6-77.9 129.2-70.4 273.9 22.1 430v.1c35.4 59.7 151.1 204.1 459.3 253.8 274.4 44.3 400.6-148.7 487.9-343.4 84.4-188.4 5.7-399-195.8-524.1-125.3-77.8-241.8-116.9-347.6-116.9" style="fill:#211d1d;fill-opacity:1;fill-rule:nonzero;stroke:none" transform="matrix(.00743 0 0 -.00743 -95.381 280.749)"/><path d="M25359 22628.3c-34 0-62.2 14.4-78.2 28.3-12.4 10.9-13.7 29.8-2.8 42.2 10.9 12.5 29.8 13.7 42.2 2.8 7.9-6.4 51.1-37 106 23.5 21 23.2 30.1 45.5 27.2 66.2-5.1 36.4-44.3 61.7-44.7 61.9-14.1 8.7-18.4 27.2-9.7 41.2 8.7 14.1 27.1 18.4 41.2 9.7 2.6-1.6 63.4-40 72.5-104.5 5.5-39.1-8.7-77.7-42.2-114.7-38.6-42.5-77.9-56.6-111.5-56.6" style="fill:#231f20;fill-opacity:1;fill-rule:nonzero;stroke:none" transform="matrix(.00743 0 0 -.00743 -95.381 280.749)"/><path d="M25382.7 22733.3c-4.7 0-9.5 1.1-14 3.5-20.4 10.9-500.5 272.3-631.2 814.7-3.8 16.1 6 32.2 22.1 36.1 16 3.9 32.2-6 36.1-22.1 124.2-515.6 596.4-773.4 601.2-775.9 14.5-7.8 20-25.9 12.2-40.5-5.3-10.1-15.7-15.8-26.4-15.8" style="fill:#231f20;fill-opacity:1;fill-rule:nonzero;stroke:none" transform="matrix(.00743 0 0 -.00743 -95.381 280.749)"/><path d="M27292.4 22317.4c59.7-72.7 274.7-178.7 462-141.8s413.7 190.2 338.6 564.6c-42.4 211-199.9 353.5-394.5 339.2-259-19-447.5-75-490-298.3-50.6-265.8 24.8-391.8 83.9-463.7" style="fill:#c22126;fill-opacity:1;fill-rule:nonzero;stroke:none" transform="matrix(.00743 0 0 -.00743 -95.381 280.749)"/><path d="M27315.5 22336.4c54.1-65.8 259.5-165.6 433.2-131.4 66.4 13 189.2 52.1 265.6 166.5 62.4 93.2 78.9 215.3 49.3 362.9-40.4 201.5-186.2 328.2-362.9 315.2-257.2-18.9-424.3-71.4-462.8-274.1-47.8-250.8 21.4-370.7 77.6-439.1m356.9-198.5c-178.5 0-350.3 96.3-403.1 160.5-63.8 77.7-142.6 212.9-90.2 488.3 48.2 253.6 277.1 304.9 517.2 322.5 205 15.1 380.1-134.2 426-363.1 32.8-163.7 13.3-300.9-58.2-407.8-88.5-132.5-228.4-177.2-303.9-192-29.1-5.8-58.5-8.4-87.8-8.4" style="fill:#211d1d;fill-opacity:1;fill-rule:nonzero;stroke:none" transform="matrix(.00743 0 0 -.00743 -95.381 280.749)"/><path d="M27477.7 22449.8c-10.5 0-20.8 5.6-26.2 15.5-8 14.4-2.7 32.6 11.7 40.6 8.8 5.2 52.3 35.4 14.1 107.6-14.6 27.7-32.4 43.9-52.9 48.2-36 7.6-73.1-20.7-73.5-21-13-10.2-31.8-8-42 5s-8 31.8 5 42c2.4 1.9 59.2 46 122.9 32.5 38.7-8.1 70.1-34.6 93.4-78.7 54-102.3-1.3-167.7-38.1-188-4.5-2.5-9.5-3.7-14.4-3.7" style="fill:#231f20;fill-opacity:1;fill-rule:nonzero;stroke:none" transform="matrix(.00743 0 0 -.00743 -95.381 280.749)"/><path d="M26594 22240.8c-41.8 0-84.7 2.3-128.4 7.2-16.4 1.8-28.3 16.6-26.4 33.1 1.8 16.4 16.6 28.2 33 26.4 528-59.3 930.5 296.8 934.5 300.4 12.3 11.1 31.2 10.1 42.2-2.2 11.1-12.3 10.1-31.2-2.2-42.2-15.8-14.3-364.5-322.7-852.7-322.7" style="fill:#231f20;fill-opacity:1;fill-rule:nonzero;stroke:none" transform="matrix(.00743 0 0 -.00743 -95.381 280.749)"/></svg>