<svg xmlns="http://www.w3.org/2000/svg" width="219" height="710"><path fill="#f8f7f5" d="M0 0h219v710H0z"/><path fill="#fefefe" d="M0 0h219v710H0zm69 22c-.94 3.65-.38 7.08 1.06 10.56 1.31 3.39.58 5.92-.06 9.44v4l-1 2c-.1 1.77-.13 3.54-.13 5.3 0 1.06-.01 2.12-.01 3.21.01.56.01.56.02 3.37-.01 1.1-.01 2.2-.02 3.33 0 1.07.01 2.13.01 3.22v2.94c.13 2.63.13 2.63.7 4.79C70 76 70 76 69 79c-.09 1.37-.12 2.74-.11 4.1v2.49c0 .88.01 1.76.01 2.67s.01 1.81.01 2.75c0 2.89.01 5.78.03 8.68 0 1.96.01 3.92.01 5.88.01 4.81.03 9.62.05 14.43l3 1c-.11 1.13-.22 2.25-.33 3.41-.96 10.25-1.75 20.49-2.4 30.76-.03.5-.03.5-.19 3.02-.32 5.04-.63 10.08-.94 15.12-1.55 25.24-3.37 44.14-22.72 62.08-.8.7-1.6 1.39-2.42 2.11-13.97 12.17-23.43 26.05-27 44.5-.17.74-.35 1.48-.52 2.25-.56 3.18-.61 6.18-.61 9.42-.01.66-.01 1.32-.01 2-.01 2.21-.01 4.43-.01 6.65 0 1.6 0 3.2-.01 4.8-.01 4.41-.01 8.82-.01 13.23l-.03 14.26c-.02 11.48-.03 22.96-.04 34.44 0 5.4-.01 10.81-.01 16.21-.02 17.97-.03 35.93-.04 53.89 0 4.66 0 9.33-.01 13.99v3.51c0 18.77-.03 37.55-.06 56.33-.04 19.27-.05 38.54-.06 57.82 0 10.82-.01 21.64-.03 32.47-.03 9.21-.03 18.42-.02 27.64 0 4.7 0 9.4-.02 14.1-.02 4.31-.02 8.61 0 12.92 0 1.56 0 3.11-.02 4.67C14.41 674 15.7 681.51 24 690c6.68 5.22 13.72 4.57 21.9 4.52 1.51 0 3.03.01 4.54.02 4.1.02 8.2.01 12.31 0 4.3-.01 8.6 0 12.9 0 7.22.01 14.44 0 21.66-.02 8.34-.02 16.68-.01 25.01.01 7.17.02 14.34.02 21.51.01 4.28-.01 8.56-.01 12.83.01 4.03.01 8.05 0 12.07-.02 1.47-.01 2.95-.01 4.42 0 9.22.05 15.92-.21 23.09-6.49.54-.66 1.08-1.31 1.64-1.98.55-.65 1.1-1.29 1.67-1.96 3.12-4.52 3.7-8.38 3.71-13.81 0-.33 0-.33.01-2.02.01-2.23 0-4.46 0-6.69 0-1.61.01-3.23.01-4.84.01-4.44.01-8.89.01-13.33 0-4.78.01-9.57.02-14.36.02-9.39.02-18.77.02-28.15.01-7.64.01-15.27.02-22.9.01-21.64.02-43.28.02-64.92V506c0-18.92.02-37.84.05-56.76.03-19.44.04-38.87.04-58.3 0-10.91 0-21.82.02-32.72.02-9.3.03-18.59.01-27.88 0-4.74 0-9.47.01-14.21.02-4.35.02-8.69 0-13.04 0-1.56 0-3.12.01-4.69.14-20.38-5.69-38.27-20.11-53.06-2.64-2.63-5.34-5.19-8.05-7.75-12.06-11.51-21.91-21.46-23.4-38.7l-.24-2.42c-1.12-12.22-1.85-24.47-2.64-36.72-.3-4.67-.61-9.35-.92-14.03l-.48-7.42c-.36-5.48-.78-10.88-1.67-16.3h2c1.7-3.4 1.16-7.28 1.17-11.02 0-.9 0-1.8.01-2.72 0-1.91.01-3.81.01-5.71 0-2.91.02-5.81.03-8.72.01-1.85.01-3.69.01-5.54 0-.44 0-.44.02-2.64 0-.81 0-1.63-.01-2.46 0-.72.01-1.43.01-2.17-.29-2.34-1.09-3.97-2.25-6.02l2-3c.26-2.94.26-2.94.27-6.5v-3.88c0-.66 0-1.33-.01-2.02-.01-2.03 0-4.06.01-6.09v-3.88c-.01-.59-.01-.59-.01-3.56-.25-2.97-.84-4.52-2.26-7.07.32-2.34.32-2.34 1-5 .34-2.16.63-4.33.88-6.5.14-1.1.28-2.21.42-3.34-.3-3.16-.3-3.16-2.39-5.82-3.56-2.87-5.29-2.98-9.82-3l-2.05-.03c-2.22-.03-4.44-.02-6.66-.01-1.56-.01-3.11-.01-4.66-.02-3.24-.01-6.48-.01-9.73.01-4.15.03-8.3 0-12.46-.04-3.2-.03-6.4-.02-9.6-.01q-2.295 0-4.59-.03c-2.14-.02-4.28 0-6.43.03h-3.68C72.67 16.31 71.6 18.18 69 22"/><path fill="#d8d3bc" d="M80.914 15.24c.34 0 .34 0 2.05-.03 2.22-.02 4.44 0 6.66.03 1.55 0 3.1-.01 4.65-.01 3.25-.01 6.49.01 9.74.04 4.15.04 8.3.03 12.45.01 3.2-.02 6.4-.01 9.6.01 1.53.01 3.07.01 4.6 0 2.14-.01 4.28.01 6.42.05.61 0 .61 0 3.69.02 4.14.82 5.65 2.36 8.23 5.64.37 3.19.37 3.19 0 7-.08.84-.16 1.67-.25 2.53-.16 1.72-.34 3.43-.54 5.14-.21 2.33-.21 2.33-.21 6.33l1 1c.21 4.08.18 8.16.18 12.25 0 2.04.02 4.09.04 6.14 0 1.29 0 2.58.01 3.91 0 1.19 0 2.38.01 3.6-.23 2.96-.69 4.61-2.24 7.1l2 3c.24 1.9.24 1.9.24 4.07 0 .82.01 1.63.01 2.47-.01.44-.01.44-.02 2.65v2.73l-.03 5.71c-.02 2.93-.02 5.85-.02 8.77 0 1.85-.01 3.69-.02 5.54v2.66c-.05 6.17-.05 6.17-1.16 8.4h-2c.12 1.18.25 2.35.38 3.56 1.49 14.13 2.44 28.27 3.29 42.45q.525 8.64 1.14 17.28c.18 2.6.31 5.21.44 7.81 1.19 19.26 9.46 30.89 23.31 43.71 14.91 13.99 27.11 29.6 28.71 50.86.11 4.22.13 8.42.11 12.64.01 1.63.01 3.25.02 4.88.01 4.43.01 8.87 0 13.31 0 4.8.01 9.6.02 14.39a8812 8812 0 0 1 .01 28.16c0 7.63 0 15.26.01 22.89v9.91c.02 20.69.01 41.37 0 62.06-.01 18.92 0 37.85.03 56.77.02 19.44.03 38.88.02 58.33 0 10.91 0 21.82.02 32.73.02 9.28.02 18.57 0 27.85-.01 4.74-.01 9.47 0 14.21.02 4.34.01 8.67-.01 13.01 0 1.57 0 3.13.01 4.7.06 9.28-.09 16.44-6.48 23.73-.65.54-1.3 1.08-1.97 1.64-.33.27-.33.27-1.97 1.68-4.41 3.03-8.21 3.69-13.52 3.72-1.3.01-2.6.02-3.93.04h-4.3l-4.54.03c-4.1.03-8.21.04-12.31.05-2.57.01-5.14.01-7.71.02q-12.06.045-24.12.06c-9.27.01-18.53.04-27.8.1-7.17.04-14.35.06-21.52.07-4.28 0-8.56.01-12.84.05-4.03.03-8.06.03-12.09.02-1.47-.01-2.94 0-4.42.02-8.9.12-15.35-.43-21.99-6.74-5-5.74-7.25-10.95-7.26-18.65 0-.66 0-1.32-.01-2-.01-2.21 0-4.41.01-6.62-.01-1.6-.01-3.2-.02-4.8-.01-4.4 0-8.79 0-13.19 0-4.74-.01-9.48-.01-14.23-.02-9.29-.02-18.58-.02-27.87.01-7.56 0-15.11 0-22.67v-3.25c0-2.19 0-4.37-.01-6.56-.01-20.49 0-40.98 0-61.47.01-18.74 0-37.47-.02-56.2q-.03-28.86-.03-57.72c0-10.8 0-21.6-.01-32.4-.01-9.2-.02-18.4 0-27.6 0-4.69 0-9.38-.01-14.07-.01-4.3-.01-8.6.01-12.9 0-1.55 0-3.1-.01-4.65-.13-27.51 9.98-45.19 28.64-64.44 2.29-2.24 4.72-4.28 7.17-6.34 16.29-14.17 16.22-34.42 17.61-54.33.35-5.14.69-10.28 1.03-15.41l.78-11.73c.17-2.42.33-4.83.48-7.25.46-6.89 1.01-13.77 1.68-20.65l-3-1c-.03-5.75-.05-11.49-.06-17.24 0-1.96-.01-3.91-.02-5.87-.01-2.81-.02-5.62-.02-8.43-.01-.87-.01-1.74-.02-2.64 0-4.11.26-7.78 1.12-11.82l-1-2c-.25-3.93-.19-7.87-.19-11.81-.01-1.1-.03-2.19-.04-3.32v-3.2c-.01-.97-.01-1.93-.02-2.93.26-2.92 1.03-5.09 2.25-7.74l-1-1c.09-.63.09-.63.56-3.81.5-3.58.13-5-1.56-8.19-.78-6.86-.78-6.86 2.1-11.09 2.96-3.43 5.26-3.66 9.81-3.67m.09 151.76c-.37 2.96-.68 5.91-.94 8.88-.09.92-.18 1.84-.27 2.79-.5 5.42-.89 10.84-1.19 16.28-1.35 23.81-1.35 23.81-6.6 33.05-.44.79-.88 1.58-1.32 2.39-4.83 7.63-11.51 13.98-17.75 20.46-10.95 11.47-10.95 11.47-14.68 18.46-.56 1.01-1.11 2.02-1.68 3.05-4.33 9.99-4.99 19.41-4.87 30.15.01 1.47.01 2.93.02 4.39.01 3.82.04 7.64.07 11.45.03 3.91.04 7.82.06 11.73q.045 11.46.15 22.92l-5 1v215l5 1-.03 3.56q-.12 16.62-.18 33.24c-.02 5.69-.05 11.39-.1 17.08-.04 5.5-.06 11-.07 16.5-.01 2.1-.03 4.19-.05 6.29-.03 2.94-.03 5.88-.03 8.82-.01.86-.03 1.72-.04 2.61.04 5.79 1.18 9.13 4.5 13.9 3.65 3.33 7.33 3.57 12.09 3.42 4.54-.66 8.59-2.34 12.86-3.98 7.79-2.89 15.97-4.59 24.05-6.44l3.1-.76c23.94-5.01 48.73.11 71.34 8.12 7.14 2.47 13.64 4.41 20.87 1.14 4.45-4.14 6.84-8.88 7.17-14.99q.015-2.475-.03-4.95v-2.76c0-2.97-.03-5.95-.06-8.92-.01-2.08-.02-4.15-.02-6.23-.02-5.43-.06-10.87-.1-16.31-.04-5.56-.06-11.11-.08-16.67-.04-10.89-.11-21.78-.19-32.67.64-.14 1.27-.29 1.93-.44 2.07-.56 2.07-.56 3.07-1.56.1-2.74.13-5.45.12-8.19 0-.87.01-1.74.01-2.64v-15.09c.01-5.71 0-11.42 0-17.13v-47.92q-.015-17.385 0-34.77v-47.63c.01-5.59 0-11.17 0-16.76v-6.16c0-2.8 0-5.59-.01-8.39.01-.82.01-1.64.01-2.49-.02-5.6-.02-5.6-1.13-7.83h-4c0-.75 0-1.51.01-2.29.04-7.14.07-14.29.09-21.44.01-3.68.02-7.35.05-11.03.02-3.55.03-7.1.04-10.66 0-1.99.02-3.99.03-5.99 0-18.41-5.2-33.71-18.36-46.94-2.42-2.39-4.86-4.75-7.3-7.12-18.83-18.46-21.46-38.15-22.63-63.34-.11-2.47-.23-4.93-.35-7.39-.08-1.52-.15-3.04-.22-4.56-.25-5.13-.25-5.13-1.36-6.24-1.72-.1-3.43-.13-5.15-.13-1.1 0-2.2-.01-3.33-.01-.59 0-.59 0-3.62.01-.61 0-.61 0-3.69-.01-2.57 0-5.15.01-7.73.01-3.97.01-7.93 0-11.89-.01-2.5 0-5 .01-7.5.01-1.2 0-2.39-.01-3.62-.01-1.1 0-2.2.01-3.33.01h-2.94c-2.2.13-2.2.13-3.2 1.13"/><path fill="#fefefe" d="M84 170h50c.81 19.31.81 19.31 1.05 25.34.38 8.89.91 17.21 3.95 25.66.29.87.58 1.73.87 2.63 3.87 11.28 11.95 19.45 20.3 27.59 6.16 6.05 11.33 12.41 15.83 19.78l1.16 1.86C189.34 294.49 183 336.31 183 353H36c0-78.05 0-78.05 21.67-100.75 18.32-19.22 23.81-34.23 25.14-60.69.39-7.11.79-14.23 1.19-21.56"/><path fill="#060605" d="M80.914 15.24c.34 0 .34 0 2.05-.03 2.22-.02 4.44 0 6.66.03 1.55 0 3.1-.01 4.65-.01 3.25-.01 6.49.01 9.74.04 4.15.04 8.3.03 12.45.01 3.2-.02 6.4-.01 9.6.01 1.53.01 3.07.01 4.6 0 2.14-.01 4.28.01 6.42.05.61 0 .61 0 3.69.02 4.14.82 5.65 2.36 8.23 5.64.37 3.19.37 3.19 0 7-.08.84-.16 1.67-.25 2.53-.16 1.72-.34 3.43-.54 5.14-.21 2.33-.21 2.33-.21 6.33l1 1c.21 4.08.18 8.16.18 12.25 0 2.04.02 4.09.04 6.14 0 1.29 0 2.58.01 3.91 0 1.19 0 2.38.01 3.6-.23 2.96-.69 4.61-2.24 7.1l2 3c.24 1.9.24 1.9.24 4.07 0 .82.01 1.63.01 2.47-.01.44-.01.44-.02 2.65v2.73l-.03 5.71c-.02 2.93-.02 5.85-.02 8.77 0 1.85-.01 3.69-.02 5.54v2.66c-.05 6.17-.05 6.17-1.16 8.4h-2c.12 1.18.25 2.35.38 3.56 1.49 14.13 2.44 28.27 3.29 42.45q.525 8.64 1.14 17.28c.18 2.6.31 5.21.44 7.81 1.19 19.26 9.46 30.89 23.31 43.71 14.91 13.99 27.11 29.6 28.71 50.86.11 4.22.13 8.42.11 12.64.01 1.63.01 3.25.02 4.88.01 4.43.01 8.87 0 13.31 0 4.8.01 9.6.02 14.39a8812 8812 0 0 1 .01 28.16c0 7.63 0 15.26.01 22.89v9.91c.02 20.69.01 41.37 0 62.06-.01 18.92 0 37.85.03 56.77.02 19.44.03 38.88.02 58.33 0 10.91 0 21.82.02 32.73.02 9.28.02 18.57 0 27.85-.01 4.74-.01 9.47 0 14.21.02 4.34.01 8.67-.01 13.01 0 1.57 0 3.13.01 4.7.06 9.28-.09 16.44-6.48 23.73-.65.54-1.3 1.08-1.97 1.64-.33.27-.33.27-1.97 1.68-4.41 3.03-8.21 3.69-13.52 3.72-1.3.01-2.6.02-3.93.04h-4.3l-4.54.03c-4.1.03-8.21.04-12.31.05-2.57.01-5.14.01-7.71.02q-12.06.045-24.12.06c-9.27.01-18.53.04-27.8.1-7.17.04-14.35.06-21.52.07-4.28 0-8.56.01-12.84.05-4.03.03-8.06.03-12.09.02-1.47-.01-2.94 0-4.42.02-8.9.12-15.35-.43-21.99-6.74-5-5.74-7.25-10.95-7.26-18.65 0-.66 0-1.32-.01-2-.01-2.21 0-4.41.01-6.62-.01-1.6-.01-3.2-.02-4.8-.01-4.4 0-8.79 0-13.19 0-4.74-.01-9.48-.01-14.23-.02-9.29-.02-18.58-.02-27.87.01-7.56 0-15.11 0-22.67v-3.25c0-2.19 0-4.37-.01-6.56-.01-20.49 0-40.98 0-61.47.01-18.74 0-37.47-.02-56.2q-.03-28.86-.03-57.72c0-10.8 0-21.6-.01-32.4-.01-9.2-.02-18.4 0-27.6 0-4.69 0-9.38-.01-14.07-.01-4.3-.01-8.6.01-12.9 0-1.55 0-3.1-.01-4.65-.13-27.51 9.98-45.19 28.64-64.44 2.29-2.24 4.72-4.28 7.17-6.34 16.29-14.17 16.22-34.42 17.61-54.33.35-5.14.69-10.28 1.03-15.41l.78-11.73c.17-2.42.33-4.83.48-7.25.46-6.89 1.01-13.77 1.68-20.65l-3-1c-.03-5.75-.05-11.49-.06-17.24 0-1.96-.01-3.91-.02-5.87-.01-2.81-.02-5.62-.02-8.43-.01-.87-.01-1.74-.02-2.64 0-4.11.26-7.78 1.12-11.82l-1-2c-.25-3.93-.19-7.87-.19-11.81-.01-1.1-.03-2.19-.04-3.32v-3.2c-.01-.97-.01-1.93-.02-2.93.26-2.92 1.03-5.09 2.25-7.74l-1-1c.09-.63.09-.63.56-3.81.5-3.58.13-5-1.56-8.19-.78-6.86-.78-6.86 2.1-11.09 2.96-3.43 5.26-3.66 9.81-3.67M76.004 122c-2.29 28.54-2.29 28.54-2.79 37.7l-.36 6.28c-.18 3.16-.36 6.32-.53 9.48-2.32 41.71-2.32 41.71-18.32 56.54a441 441 0 0 0-3.82 3.69c-.6.58-1.21 1.16-1.83 1.76-1.35 1.55-1.35 1.55-1.35 3.55-.5.17-.5.17-3 1-1.58 1.57-1.58 1.57-3.25 3.56-3.56 4.24-3.56 4.24-5.48 6.19-4.2 4.3-6.91 8.98-9.59 14.31-.33.68-.67 1.35-1.02 2.04-5.85 12.1-5.81 24.34-5.82 37.49 0 1.59-.01 3.17-.01 4.76-.01 4.34-.02 8.67-.02 13.01l-.03 14.06c-.03 11.3-.04 22.6-.05 33.91-.01 3.19-.01 6.38-.02 9.57l-.06 59.52v13.77c0 1.14-.01 2.28-.01 3.46-.01 18.49-.04 36.99-.08 55.48-.05 19-.07 37.99-.08 56.99 0 10.66-.01 21.32-.04 31.98-.03 9.08-.04 18.15-.03 27.23 0 4.63 0 9.26-.02 13.89-.03 4.24-.03 8.48-.01 12.72.01 1.53 0 3.06-.01 4.59-.08 8.77.43 16.08 5.63 23.47 4.76 4.64 8.64 6.25 15.25 6.27 1.28.01 2.56.01 3.89.02h4.26c1.5.01 3 .01 4.49.02 4.07.02 8.14.02 12.21.03 2.54 0 5.08 0 7.63.01 8.87.01 17.74.02 26.61.02 8.26 0 16.53.02 24.79.05 7.1.03 14.2.04 21.3.04 4.24 0 8.48 0 12.72.02 3.99.02 7.97.02 11.96.01 1.46 0 2.92 0 4.39.01 1.99.02 3.99.01 5.99-.01 1.12.01 2.24.01 3.39.01 5.2-.83 8.3-3.65 11.87-7.37 3.68-5.13 4.5-9.62 4.5-15.86 0-.33 0-.33.01-1.98.01-2.2 0-4.39 0-6.58 0-1.59 0-3.17.01-4.76.01-4.36.01-8.73 0-13.09 0-4.7.01-9.41.02-14.12.01-9.22.01-18.44.01-27.66v-25.72c.01-2.16.01-4.33.01-6.5q.015-30.495 0-60.99 0-27.885.03-55.77c.02-19.09.02-38.18.02-57.27 0-10.72 0-21.44.01-32.15.02-9.13.02-18.26.01-27.38-.01-4.66-.01-9.31 0-13.96.01-4.27.01-8.54-.01-12.8 0-1.54 0-3.08.01-4.62.12-25.13-8.08-42.34-25.38-59.92-1.36-1.33-2.73-2.65-4.09-3.97-14.38-13.88-21.6-26-22.91-46.4-.04-.51-.04-.51-.23-3.06-.27-3.86-.52-7.71-.77-11.57l-.36-5.5c-.14-2.01-.27-4.03-.4-6.04-.06-1.02-.13-2.04-.2-3.09-.34-5.16-.67-10.32-.99-15.49-.03-.49-.03-.49-.19-2.96-.12-1.84-.23-3.68-.34-5.53-.03-.42-.03-.42-.17-2.54-.04-.72-.09-1.45-.13-2.19-.33-3.89-.79-7.78-1.22-11.66z"/><path fill="#fefefe" d="M36 570h146c.08 15.57.16 31.14.25 47.19.04 4.91.07 9.83.11 14.89.02 6.01.02 6.01.02 8.82.01 1.96.02 3.92.04 5.89.03 2.97.04 5.95.03 8.92.02.87.03 1.75.05 2.64-.03 4.09-.18 6.14-2.4 9.68-2.91 2.73-4.76 2.9-8.63 3.12-4.39-.27-8.21-1.77-12.28-3.34-9.61-3.46-19.15-5.75-29.2-7.47-1.62-.28-3.23-.6-4.84-.93-23.81-3.1-47.65 1.49-69.95 9.66-4.53 1.6-8.32 2.43-13.2 1.93-2.63-2.17-4.47-3.95-6-7-.09-2.96-.13-5.9-.11-8.86v-2.82c0-3.03 0-6.05.01-9.08 0-1.86 0-3.73.01-5.59 0-6.93.01-13.85.03-20.77z"/><path fill="#fbfbf9" d="M51 396c2.62-.19 2.62-.19 5 0l-4 1c.15.74.3 1.47.46 2.23l2.04 10.02c.24 1.16.48 2.32.72 3.51.23 1.12.45 2.23.69 3.38.21 1.03.42 2.05.63 3.11C57 422 57 422 57 426l4-1c.14-.74.27-1.48.41-2.25.62-3.35 1.26-6.71 1.9-10.06.22-1.17.43-2.34.65-3.54.21-1.12.43-2.24.65-3.39.2-1.03.39-2.06.59-3.12C66 400 66 400 69 397v29h-1c-.16-1.32-.16-1.32-1-8-.28.7-.56 1.4-.85 2.12-3.33 7.56-3.33 7.56-7.65 9.26-1.16.2-2.31.41-3.5.62-2.94 1.81-2.94 1.81-5 4-.31 2.75-.31 2.75 0 5 .49.17.49.17 3 1l2-7h21l1 2-21-1v58h9v-24h5c1.17 3.44 2.34 6.87 3.5 10.31.33.98.67 1.96 1.01 2.96.32.94.63 1.88.96 2.84.29.87.59 1.73.89 2.62C77 489 77 489 77 492h9c-.22-.62-.43-1.23-.66-1.86-.98-2.8-1.94-5.59-2.9-8.39-.34-.97-.69-1.94-1.04-2.93-.32-.94-.64-1.87-.97-2.84-.15-.43-.15-.43-.9-2.6C79 471 79 471 80 467l2 9c.66-.16.66-.16 4-1 1.75-3.56 1.75-3.56 3-7h1c.03.94.05 1.88.08 2.85.57 12.55.57 12.55 4.92 17.15.56.62 1.11 1.24 1.69 1.88 3.72 1.81 7.26 1.75 11.31 1.12 5.03-2.42 7.01-4.85 9-10 .46-3.62.49-7.22.51-10.87l.06-3.13c.05-3.29.08-6.58.12-9.88.03-2.23.07-4.47.1-6.71.09-5.47.15-10.94.21-16.41h1v15c3.49-3.49 3.43-4.45 3.69-9.19.06-1.08.13-2.17.2-3.29.03-.83.07-1.66.11-2.52h1v58h9v-33c1.64 2.46 2.55 4.22 3.51 6.94.26.75.53 1.5.8 2.27.27.78.54 1.55.81 2.35.28.78.56 1.56.84 2.37 2.04 5.81 2.04 5.81 2.04 8.07h5c.12-.62.12-.62.75-3.75 1.3-5.9 3.26-11.55 5.25-17.25h1v32h9v-58h-9c-.16.63-.32 1.26-.48 1.91-1.77 6.8-3.98 13.35-6.43 19.93A50 50 0 0 0 144 464c-2-1-2-1-2.96-3.25-.33-.98-.65-1.95-.99-2.96-.35-1.06-.7-2.12-1.07-3.21-.18-.56-.18-.56-1.1-3.39-.38-1.11-.75-2.22-1.13-3.36C134 439.52 134 439.52 134 435c5.35-1 9.62-.85 15 0l1-4h5l-2-7c.69.11 1.37.21 2.08.32.9.12 1.8.24 2.73.37.45.06.45.06 2.71.38 2.48-.07 2.48-.07 4.11-1.27 1.77-2.33 1.75-3.71 1.78-6.62l.06-2.81.06-5.88.06-2.81.03-2.57c.12-.7.25-1.39.38-2.11l3-2v27h5v-13h7v-5l-6-1 1-5c6.15-.1 6.15-.1 8 0 1.89 1.89 1.25 5.28 1.32 7.85l.06 2.3c.07 2.64.13 5.27.18 7.91.02.92.04 1.84.07 2.79.83 37.71.45 75.44.37 113.15h-1l-1-20c-.99.16-.99.16-6 1h-1c-1.69.16-3.38.33-5.06.5-.92.09-1.84.19-2.79.28-.35.04-.35.04-2.15.22l-1-3c-.57.17-1.14.34-1.72.51-5.63 1.48-8.82 1.39-14.28-.51-.33.16-.33.16-2 1l-3-3v3l-5 2 3 3c-3.71.2-7.42.38-11.12.56-1.05.06-2.1.11-3.18.17-5.05.24-9.73.43-14.7-.73v12l11-1c-.16-.83-.16-.83-1-5l-2-1v-3h2v2h2v-2h2v10h2v-10h2v10h9c-2.62 3.88-2.62 3.88-6 5l-1 2h-2l-1 2-2-1-1 3c-.67 2-1.33 4-2 6h5l1-3v3l2 1-5 2 4 2v1H31c-.08-33.33-.08-33.33-.1-47.35-.01-9.67-.02-19.33-.05-28.99-.02-7.04-.03-14.08-.04-21.12 0-3.72-.01-7.44-.02-11.16-.02-4.17-.02-8.34-.02-12.51 0-1.22-.01-2.43-.02-3.69.02-7.89.83-15.41 2.25-23.18h1l1-6h1l1 22 9 1c3-3 3-3 3.31-5.4l-.09-2.82c-.02-1.01-.03-2.03-.05-3.07-.04-1.06-.07-2.12-.11-3.21-.06-2.09-.11-4.19-.15-6.28l-.09-2.82C49 399 49 399 51 396"/><path fill="#15120d" d="M87.146 165.87c1.1 0 2.2-.01 3.33-.01.59 0 .59 0 3.62.01 1.21 0 2.43-.01 3.69-.01 2.57 0 5.15 0 7.73.01 3.97 0 7.93 0 11.89-.01 2.5 0 5 0 7.5.01 1.19-.01 2.39-.01 3.62-.01 1.1 0 2.2.01 3.33.01h2.94c2.2.13 2.2.13 3.2 1.13a182 182 0 0 1 .43 7.37c.08 1.56.15 3.12.23 4.68.11 2.45.22 4.9.32 7.34 1.02 24.09 4.59 42.32 21.9 60.11 1.42 1.49 2.84 2.98 4.26 4.48 2.16 2.24 4.31 4.49 6.47 6.73 10.43 11.19 15.54 24.54 15.51 39.78v3.76c-.01 1.33-.01 2.66-.02 4v4.14l-.03 10.83c-.01 3.69-.01 7.39-.02 11.08-.01 7.23-.03 14.47-.05 21.7h4c1.62 3.23 1.14 6.76 1.14 10.31v2.64c.01 2.93.01 5.86.01 8.8 0 2.09.01 4.19.01 6.28.01 5.71.01 11.41.01 17.12 0 4.75.01 9.51.01 14.26.01 11.21.01 22.42.01 33.63 0 11.59.01 23.17.02 34.76.02 9.93.02 19.86.02 29.79 0 5.94 0 11.87.02 17.81.01 5.58.01 11.16 0 16.75 0 2.05 0 4.1.01 6.16 0 2.79 0 5.58-.01 8.38.01.82.01 1.64.02 2.49-.04 5.59-.04 5.59-2.27 7.82h-3l.03 3.48c.08 10.82.14 21.65.18 32.48.02 5.57.05 11.14.1 16.7.04 5.38.06 10.75.07 16.13.01 2.05.02 4.09.05 6.14.03 2.88.03 5.75.03 8.62 0 .42 0 .42.04 2.55-.04 5.74-1.26 10.11-4.5 14.9-4.14 3.85-7.15 4.32-12.53 4.23-4.14-.38-7.87-1.68-11.78-3.04-1.68-.56-3.36-1.11-5.04-1.67-.8-.26-1.6-.53-2.43-.8-4.68-1.52-9.42-2.66-14.22-3.72-1.13-.28-2.27-.56-3.44-.84-26.28-5.83-58.31-2.28-82.56 9.84-4.95.54-8.89.52-13.43-1.63-3.99-3.69-5.7-7.29-5.93-12.7-.01-1.69 0-3.38.02-5.07v-2.81c0-3.05.03-6.11.05-9.16.01-2.12.01-4.24.01-6.36.01-5.57.04-11.15.08-16.72.03-5.69.04-11.38.06-17.07.03-11.16.08-22.32.14-33.48l-5-1V354l5-1c0-.4 0-.4-.02-2.42-.08-7.57-.14-15.15-.18-22.72-.02-3.9-.05-7.79-.1-11.68-.04-3.77-.07-7.54-.08-11.3 0-1.43-.02-2.86-.04-4.28-.29-19.66 6.28-33.97 19.81-47.94 1.12-1.16 2.25-2.31 3.37-3.46 12.6-12.95 22.1-25.12 23.16-43.8.06-.88.12-1.76.18-2.67.19-2.79.36-5.57.53-8.36.18-2.79.36-5.58.55-8.37l.33-5.19c.95-14.93.95-14.93 7.64-14.94m-3.15 4.13c-1.18 21.56-1.18 21.56-1.52 28.27-1.41 24.68-9.93 38.12-26.69 55.71-28.16 29.7-19.79 52.3-19.79 99.02h147c0-77.39 0-77.39-19-97-1.21-1.39-2.42-2.78-3.62-4.19-2.31-2.68-4.73-5.09-7.31-7.5-12.02-11.85-17.03-27.45-17.7-43.94-.04-.78-.07-1.55-.11-2.35-.14-2.86-.26-5.72-.38-8.58l-.88-19.44zm-53 196v191h157V366zm5 204c-.06 15.41-.12 30.81-.18 46.69l-.09 14.73c-.01 5.94-.01 5.94-.01 8.73l-.03 5.82c-.03 2.95-.03 5.89-.03 8.83l-.03 2.62c.02 4.68.3 7.8 3.37 11.58 3.56 2.37 5.9 2.62 10 2 2.69-.84 5.28-1.84 7.91-2.85 8.41-3.12 17.26-5.55 26.09-7.15 1.01-.19 2.01-.37 3.04-.56 24.39-3.9 48.68-1.49 71.85 6.96 12.99 4.7 12.99 4.7 20.11 2.6 3.16-2.84 4.25-5.07 4.48-9.21.02-1.69.01-3.39-.02-5.08v-2.85c0-3.05-.03-6.09-.07-9.13 0-1.88-.01-3.76-.01-5.64-.02-6.97-.07-13.94-.13-20.9-.08-15.57-.16-31.15-.25-47.19z"/><path fill="#171613" d="M148 79h1c.02 5.8.04 11.6.05 17.41l.03 5.92c.01 2.84.01 5.67.02 8.51 0 .88.01 1.77.01 2.68 0 6.25 0 6.25-1.11 8.48h-2c.13 1.18.25 2.35.38 3.56 1.49 14.13 2.45 28.27 3.3 42.45.35 5.76.72 11.52 1.14 17.28.17 2.6.31 5.21.44 7.81 1.18 19.26 9.46 30.89 23.3 43.71 14.92 13.99 27.12 29.6 28.72 50.86.11 4.21.13 8.42.11 12.64 0 1.62.01 3.25.01 4.88.02 4.43.01 8.87.01 13.31-.01 4.8 0 9.6.01 14.39.02 9.39.02 18.78.02 28.16-.01 7.63 0 15.26 0 22.88v3.3c0 2.21.01 4.41.01 6.62.01 20.69.01 41.37-.01 62.06-.01 18.92.01 37.85.03 56.77.03 19.44.04 38.88.03 58.33-.01 10.91 0 21.82.01 32.73.02 9.28.02 18.57 0 27.85-.01 4.74-.01 9.47.01 14.21.01 4.34.01 8.67-.01 13.01-.01 1.57 0 3.13.01 4.7.05 9.28-.09 16.44-6.48 23.73-.66.54-1.31 1.08-1.98 1.64-.32.27-.32.27-1.96 1.67-4.41 3.04-8.22 3.7-13.53 3.73-1.29.01-2.59.02-3.93.04h-4.29l-4.54.03c-4.11.03-8.21.04-12.32.05-2.57.01-5.13.01-7.7.02q-12.06.045-24.12.06c-9.27.01-18.54.04-27.81.1-7.17.04-14.34.06-21.52.07-4.28 0-8.56.01-12.84.05-4.02.03-8.05.03-12.08.02-1.47-.01-2.95 0-4.42.02-8.9.11-15.36-.43-22-6.74-4.99-5.74-7.25-10.95-7.25-18.65-.01-.66-.01-1.32-.01-2q-.015-3.315 0-6.63c0-1.59-.01-3.19-.01-4.79-.01-4.4-.01-8.8-.01-13.19.01-4.74 0-9.48-.01-14.23-.01-9.29-.01-18.58-.01-27.87 0-7.56 0-15.11-.01-22.67v-9.81q-.015-30.735 0-61.47c0-18.74-.01-37.47-.03-56.2-.02-19.24-.03-38.48-.02-57.72 0-10.8 0-21.6-.02-32.4q-.015-13.8 0-27.6.015-7.035 0-14.07c-.02-4.3-.01-8.6 0-12.9 0-1.55 0-3.1-.01-4.65-.13-27.51 9.99-45.19 28.64-64.44 2.29-2.24 4.73-4.28 7.18-6.34 14.38-12.51 15.78-29.23 17.07-47.02.62-8.92 1.19-17.83 1.75-26.75.24-3.84.5-7.69.75-11.53.07-1.17.14-2.33.21-3.53.45-6.66 1.28-13.04 2.79-19.54l1 2h2c-.6 14.99-1.34 29.98-2.25 44.96-.19 3.2-.37 6.4-.56 9.6C72.11 196.94 71 211.68 60 227c-.62.87-1.24 1.73-1.88 2.62-2.48 2.78-5.22 5.08-8.05 7.5-2.68 2.43-4.97 5.1-7.29 7.87-1.8 2.03-3.72 3.81-5.72 5.63-13.07 12.95-17.12 30.67-17.21 48.46v6.51c-.01 1.59-.01 3.17-.02 4.76-.01 4.34-.01 8.67-.02 13.01l-.03 14.06c-.02 11.3-.04 22.6-.05 33.9 0 3.2-.01 6.39-.01 9.58q-.045 29.76-.06 59.52c0 4.59-.01 9.18-.01 13.77v3.46c-.02 18.49-.05 36.99-.09 55.48-.04 18.99-.07 37.99-.07 56.99 0 10.66-.02 21.32-.05 31.98-.03 9.08-.04 18.15-.03 27.23.01 4.63.01 9.26-.02 13.89q-.03 6.36 0 12.72c0 1.53-.01 3.06-.02 4.59-.08 8.72.34 16.18 5.63 23.47 5.41 5.44 11.21 5.59 18.64 5.67 1.4-.01 2.81-.03 4.22-.04 1.5.01 3 .01 4.49.02 4.06.02 8.11.01 12.16-.01 4.25-.02 8.49-.01 12.74 0 7.13 0 14.26-.02 21.39-.04 8.24-.04 16.48-.04 24.71-.02 7.94.02 15.87.01 23.81-.01 3.37 0 6.74 0 10.12.01 3.97 0 7.94-.01 11.91-.04h4.36c1.99.01 3.98-.01 5.97-.03h3.37c4.9-.8 8.01-3.34 11.36-6.89 3.29-4.92 4-9.5 4-15.35.01-.33.01-.33.01-1.98.01-2.2.01-4.39 0-6.58 0-1.59.01-3.17.01-4.76.01-4.36.01-8.73.01-13.09-.01-4.71 0-9.41.01-14.12.01-9.22.01-18.44.01-27.66 0-7.49 0-14.99.01-22.49v-9.73q.015-30.495 0-60.99 0-27.885.03-55.77c.02-19.09.03-38.18.02-57.27 0-10.72 0-21.44.02-32.15.01-9.13.01-18.26 0-27.38-.01-4.66-.01-9.31 0-13.96.02-4.27.01-8.54 0-12.8 0-1.54 0-3.08.01-4.62.12-25.13-8.08-42.34-25.39-59.92a766 766 0 0 0-4.09-3.97c-14.37-13.88-21.6-26.01-22.91-46.41-.07-1-.15-2.01-.22-3.05-.22-3.09-.42-6.18-.63-9.27-.17-2.59-.35-5.19-.53-7.78-.42-6.16-.83-12.31-1.24-18.46-.07-1.01-.14-2.03-.21-3.07-.2-2.94-.39-5.89-.58-8.83-.06-.88-.12-1.75-.18-2.65-.38-5.88-.41-11.6-.41-17.51H78v-1c.8-.12 1.61-.25 2.44-.38.84-.2 1.69-.41 2.56-.62.16-.33.16-.33 1-2h60V82h1l1 26h1z"/><path fill="#eeede7" d="M101 396h10v1h-9v28h4v-11l11-2c1.05 3.15 1.1 5.39 1.06 8.69-.01.99-.02 1.99-.02 3.01-.02.76-.03 1.52-.04 2.3h5v-12h3l3 10h4l1-2 4 2v2c3.19.81 3.19.81 7 1 2.94-2.44 2.94-2.44 5-5 3 1 3 1 5 4 .12 2.69.12 2.69 0 5l-5 1-1 3h-15l9 28 3-10c1.44-3.94 1.44-3.94 2.17-5.84 1.04-2.71 2.03-5.43 3.02-8.16.34-.95.69-1.9 1.04-2.88.25-.7.51-1.4.77-2.12h9v58h-9l-1-30-6 19h-5l-7-19-1 30h-9l-1-46-2 3h-2c0 .93-.01 1.85-.01 2.81-.03 3.48-.08 6.95-.14 10.42-.03 1.5-.04 3-.05 4.49-.07 16.19-.07 16.19-5.8 22.28-3.56 3.16-7.08 3.64-11.71 3.49-4.04-.86-6.7-3.37-9.29-6.49-2.24-3.46-2.38-6.69-2.62-10.75-.08-1.17-.15-2.34-.23-3.55-.05-.89-.1-1.78-.15-2.7-.45 1.13-.91 2.27-1.38 3.44C86 476 86 476 84 477c-2-1-2-1-3-3l1.09 3.18c.47 1.37.94 2.75 1.41 4.13.24.69.48 1.38.72 2.09 1.01 2.99 1.78 5.43 1.78 8.6h-9c-.99-2.68-1.97-5.37-2.94-8.06l-.84-2.28c-1.64-4.58-2.71-8.82-3.22-13.66h-5v24h-9v-58h24l3-3c3.19-.19 3.19-.19 6 0v-2l-5-2v-1h5v-13l3 1c1.62 3.76 2.24 6.92 2 11l6-1z"/><path fill="#2f2f2e" d="M80.432 77.87c.34 0 .34 0 2.03-.01 2.23 0 4.46 0 6.69.01 1.55 0 3.09-.01 4.63-.01 3.24 0 6.48 0 9.72.01h12.48c3.19-.01 6.37-.01 9.56 0 1.54 0 3.07 0 4.6-.01 2.15 0 4.29 0 6.43.01h3.7c2.73.13 2.73.13 3.73 1.13.09 2.81.11 5.6.1 8.41 0 .75-.01 1.49-.01 2.26 0 2.8-.02 5.59-.03 8.39l-.06 18.94-60 1v2l58 1v1h-66v2h-2l-2 3v-6l-3-1V79h1l1 35h1c.02-1.06.05-2.11.07-3.2l.3-11.7c.04-1.69.09-3.38.13-5.07.05-2.43.12-4.85.18-7.28.02-.76.04-1.52.05-2.3.2-6.9.95-6.58 7.7-6.58"/><path fill="#2e2d2c" d="M144 43v17l-14 1v3h15l-1 9c-11.88.16-11.88.16-72 1l-1 2c-1.99-3.32-2.24-5.8-2.2-9.64.01-1.07.02-2.14.02-3.24l.06-3.37c0-1.13.01-2.25.02-3.41.03-2.78.06-5.56.1-8.34h1v22h2l2-6c.92.01 1.83.02 2.77.04 1.19 0 2.38.01 3.61.02 1.18.01 2.36.03 3.58.04C87 64 87 64 89 63v-2l-15-1-1-12c3.08-2.05 4.01-2.29 7.54-2.5l2.78-.18c1-.06 2-.11 3.02-.17 1.04-.07 2.08-.13 3.15-.19q3.315-.21 6.63-.39c3.31-.19 6.63-.39 9.94-.6 12.67-.76 25.24-1.11 37.94-.97"/><path fill="#fdfcfb" d="M169 399h1v27h5v-13h7v-5l-6-1 1-5c6.15-.1 6.15-.1 8 0 2.07 2.07 1.26 6.47 1.32 9.32l.06 2.65c.07 2.91.12 5.81.18 8.72.02.99.04 1.98.07 2.99.48 22.78.47 45.54.37 68.32-1.88-3.19-2.24-5.52-2.2-9.2.01-.98.02-1.96.02-2.97l.06-3.08c0-1.03.01-2.06.02-3.13.03-2.54.06-5.08.1-7.62-2.07 4.67-2.07 4.67-1.44 7.62.15.79.29 1.57.44 2.38-1.44 1.81-1.44 1.81-3 3-.25-.62-.5-1.24-.75-1.88-1.49-2.54-2.5-3.15-5.25-4.12h-4v-2h-6l-1 3h-2v-42h-9c-.16.63-.32 1.26-.48 1.91-1.77 6.8-3.98 13.35-6.43 19.93A50 50 0 0 0 144 464c-2-1-2-1-2.96-3.25-.33-.98-.65-1.95-.99-2.96-.35-1.06-.7-2.12-1.07-3.21-.36-1.12-.73-2.24-1.1-3.39-.38-1.11-.75-2.22-1.13-3.36C134 439.52 134 439.52 134 435c5.35-1 9.62-.85 15 0l1-4h5l-2-7c.69.11 1.37.21 2.08.32.9.12 1.8.24 2.73.37.9.13 1.79.25 2.71.38 2.48-.07 2.48-.07 4.11-1.27 1.77-2.32 1.77-3.72 1.81-6.62.03-.93.05-1.85.08-2.81.01-.48.01-.48.04-2.93.04-1.92.08-3.84.13-5.76.01-.85.03-1.7.04-2.57C167 401 167 401 169 399"/><path fill="#18150f" d="M87.146 165.87c1.1 0 2.2-.01 3.33-.01.59 0 .59 0 3.62.01 1.21 0 2.43-.01 3.69-.01 2.57 0 5.15 0 7.73.01 3.97 0 7.93 0 11.89-.01 2.5 0 5 0 7.5.01 1.19-.01 2.39-.01 3.62-.01 1.1 0 2.2.01 3.33.01h2.94c2.2.13 2.2.13 3.2 1.13a182 182 0 0 1 .43 7.37c.08 1.56.15 3.12.23 4.68.11 2.45.22 4.9.32 7.34 1.02 24.09 4.59 42.32 21.9 60.11 1.42 1.49 2.84 2.98 4.26 4.48 2.16 2.24 4.31 4.49 6.47 6.73 10.43 11.19 15.54 24.54 15.51 39.78v3.76c-.01 1.33-.01 2.66-.02 4v4.14l-.03 10.83c-.01 3.69-.01 7.39-.02 11.08-.01 7.23-.03 14.47-.05 21.7l-3-1-.06-3.71c-.07-4.64-.16-9.29-.25-13.94-.04-1.99-.08-3.98-.11-5.97-.17-10.66-.52-21.27-1.51-31.89l-.24-2.58c-1.45-14.25-6.47-26.32-17.08-36.24-1.86-1.78-3.51-3.65-5.18-5.61-2.37-2.77-4.84-5.27-7.5-7.75-11.89-11.73-17.05-27.28-17.69-43.62l-.12-2.26c-.43-9.48-.26-18.93-.26-28.43h-50v18c-1.07 29.2-7.2 44.97-27.21 65.98-14.25 15.03-20.03 28.38-20.2 49.02l-.06 4.34c-.05 3.78-.09 7.56-.13 11.34-.04 3.87-.09 7.74-.14 11.6-.1 7.58-.18 15.15-.26 22.72l-3-1c-.22-8.25-.42-16.5-.59-24.75-.09-3.83-.17-7.67-.28-11.5-.1-3.71-.19-7.42-.25-11.13-.03-1.4-.07-2.8-.11-4.21-.52-16.62 3.97-30.77 15.23-43.16 2.56-2.72 5.16-5.38 7.76-8.05 12.6-12.95 22.1-25.12 23.16-43.8.06-.88.12-1.76.18-2.67.19-2.79.36-5.57.53-8.36.18-2.79.36-5.58.55-8.37l.33-5.19c.95-14.93.95-14.93 7.64-14.94"/><path fill="#1d1b16" d="M73 122c.16.33.16.33 1 2h2c-.6 14.99-1.34 29.98-2.25 44.96-.19 3.2-.37 6.4-.56 9.6C72.11 196.94 71 211.68 60 227c-.62.87-1.24 1.73-1.88 2.62-2.48 2.78-5.22 5.08-8.05 7.5-2.68 2.43-4.97 5.1-7.29 7.87-1.8 2.03-3.72 3.81-5.72 5.63-13.06 12.95-17.11 30.66-17.21 48.43-.01 2.17-.01 4.33-.01 6.5 0 1.58-.01 3.16-.01 4.73-.02 4.33-.02 8.65-.03 12.98-.01 4.66-.02 9.33-.04 14-.02 8.08-.04 16.17-.05 24.25-.02 11.69-.05 23.38-.08 35.06-.05 18.96-.09 37.93-.13 56.89-.04 18.42-.08 36.84-.13 55.25 0 1.14 0 2.27-.01 3.45-.01 5.69-.02 11.39-.04 17.09-.11 47.25-.22 94.5-.32 141.75h-1l-1-344-1 349h-1c-.07-49.32-.12-98.64-.15-147.95-.01-5.83-.01-11.65-.01-17.48-.01-1.16-.01-2.32-.01-3.51-.01-18.77-.03-37.54-.06-56.3-.03-19.26-.05-38.53-.05-57.79-.01-11.88-.02-23.76-.04-35.64-.02-8.16-.02-16.31-.02-24.46 0-4.7 0-9.4-.02-14.1-.01-4.31-.01-8.62 0-12.94 0-1.55-.01-3.1-.01-4.65-.16-27.53 9.96-45.21 28.62-64.47 2.29-2.24 4.73-4.28 7.18-6.34 14.38-12.51 15.78-29.23 17.07-47.02.62-8.92 1.19-17.83 1.75-26.75.24-3.84.5-7.69.75-11.53.07-1.17.14-2.33.21-3.53.45-6.66 1.28-13.04 2.79-19.54"/><path fill="#e0dac2" d="M162 257c.45.39.89.77 1.36 1.17.6.52 1.2 1.04 1.83 1.58.59.51 1.18 1.02 1.79 1.55 1.48 1.24 3.01 2.42 4.56 3.57 2.7 2.34 3.99 4.32 5.58 7.51.48.91.96 1.83 1.45 2.77 4.28 10.31 4.86 21.34 4.72 32.34 0 1.17 0 2.33-.01 3.53-.01 4.29-.05 8.57-.09 12.86-.06 9.61-.13 19.22-.19 29.12h-75v-1l59-1-4-3h2c-.17-.61-.34-1.21-.51-1.84-1.08-4.46-1.77-8.05-.61-12.54 1.33-5.35 1.32-10.57 1.31-16.06v-2.69c-.05-6.46-.05-6.46-1.19-9.87l2-2c-.16-.82-.33-1.65-.5-2.5-.16-.82-.33-1.65-.5-2.5l2-2-1.06-1.88L165 292c.16-.33.16-.33 1-2h2c-.16-1.49-.16-1.49-1-9-.33.17-.33.17-2 1v-5h-3l1-2c.75-1.94.75-1.94 1-4l-1.47-1.34c-2-2.17-1.88-3.33-1.78-6.22.02-.79.03-1.57.05-2.38.2-2.06.2-2.06 1.2-4.06"/><path fill="#10100b" d="M124 434h9c7.48 19.97 7.48 19.97 10 29 .18-.63.36-1.26.55-1.91 1.39-4.71 2.85-9.35 4.62-13.93 1.04-2.71 2.03-5.43 3.02-8.16.34-.95.69-1.9 1.04-2.88.13-.35.13-.35.77-2.12h9v58h-9l-1-30-6 19h-5l-7-19-1 30h-9z"/><path fill="#f1eacd" d="m146 513 2 1h2c1.18.35 2.35.7 3.56 1.06 4.1 1.09 7.42.78 11.56.03.31-.01.31-.01 1.88-.09l2 2c1.98-.19 3.97-.39 5.93-.71C177 516 177 516 181 516c.72-.19 1.44-.37 2.19-.56.6-.15 1.19-.29 1.81-.44 1 1 1 1 1.11 3.04 0 .44 0 .44-.01 2.65 0 .47 0 .47-.01 2.86-.01.5-.01.5-.03 3.01 0 1-.01 2-.01 3.02-.01 2.48-.03 4.95-.05 7.42-4.97.66-9.62 1.17-14.62.56-6.72-.71-11.97-.88-18.38 1.44-5.46 1.18-5.46 1.18-9 0v5l1-3h2c.16.5.16.5 1 3l1-4h4c.91 3.07 1.09 5.8 1 9-1.16.16-1.16.16-7 1v-2h-2v2c-.89.08-1.77.16-2.69.25-3.31.75-3.31.75-5.87 2.87-2.44 1.88-2.44 1.88-5.25 1.63q-1.08-.375-2.19-.75c1-2 1-2 4-4h-6l1-9c.78-.08 1.57-.16 2.38-.25.86-.25 1.73-.5 2.62-.75l1-2 1-2c2.56-.69 2.56-.69 5-1l1-1-8-1v-10h-2v10h-2v-10h-2v2h-2v-2h-2v3l4 2-1 5h-11v-12l26-1v-3l5-1z"/><path fill="#e3ddc2" d="M162 571h19q.33 18.255.6 36.51.12 8.475.27 16.95c.11 5.45.19 10.91.26 16.36.03 2.08.06 4.16.11 6.24.06 2.92.09 5.83.12 8.74.03.86.05 1.73.07 2.61.02 4.07-.11 6.08-2.31 9.61-2.36 2.2-3.5 2.72-6.68 2.98-.77.08-1.53.16-2.32.25-2.66-.31-3.46-1.22-5.12-3.25 1-3 1-3 2-5l-1-3 2-3h-2c-.37-1.58-.72-3.16-1.06-4.75-.2-.88-.4-1.76-.6-2.67-.34-2.59-.21-4.15.66-6.58l1-1-2-1v-2c.5-.33.5-.33 3-2-.31-1.46-.62-2.92-.94-4.38-.17-.81-.35-1.62-.52-2.46C166 628 166 628 165 626c.16-.89.33-1.77.5-2.69.5-3.31.5-3.31-.06-6.69-.54-4.47.28-7.33 1.56-11.62l-2-1h2l-2-3c.28-2.19.28-2.19.94-4.56 1.16-4.24 1.16-4.24.06-6.44.28-1.68.61-3.35 1-5h-2l1-10c-.82-.33-.82-.33-5-2z"/><path fill="#f6f5f0" d="M37 521c4.18 0 7.91.06 12 1l1 1 1-2c1.28-.06 2.56-.12 3.88-.19.35-.01.35-.01 2.17-.1.65.09 1.29.19 1.95.29l2 3 2-3h2c.16 1.98.16 1.98 1 12 2.75 1.12 2.75 1.12 6 2l4-2v-12h2c.16.83.16.83 1 5h2l1-5h2c.16 1.82.16 1.82 1 11l3 1v-12h2v5h2v-5h2c.03 1.94.05 3.87.06 5.81.01 1.08.03 2.16.04 3.27C94 533 94 533 93 536c.83.16.83.16 5 1l-4 3c.16.66.16.66 1 4-.16-.33-.16-.33-1-2h-2v6h2l1-2-1 4h-4c-.16-1.32-.16-1.32-1-8l-3-1c.16 1.49.16 1.49 1 9l-5-1c-.12-1.13-.25-2.27-.38-3.44-.2-1.17-.41-2.35-.62-3.56l-2-1 .06 3.94c.02 1.35.01 2.71-.06 4.06-1 1-1 1-3.87 1.1-1.18-.01-2.35-.03-3.57-.04-1.17-.01-2.35-.02-3.56-.02-.99-.02-1.98-.03-3-.04h-2c-.76-.19-1.53-.37-2.31-.56-2.69-.44-2.69-.44-4.99.03-2.91.57-5.55.63-8.51.59-.98-.01-1.95-.02-2.96-.02-.74-.02-1.47-.03-2.23-.04v-4h-3v3h-2l-1-6h-3c.63-6.68.63-6.68 2.53-8.34 2.21-2.5 1.76-4.59 1.66-7.85-.03-1.08-.06-2.17-.08-3.29-.04-.83-.07-1.66-.11-2.52"/><path fill="#11100b" d="M56 434c19.53 0 19.53 0 25.31 5 4.14 4.9 3.12 11.95 2.69 18-1.33 3.56-2.36 5.36-5 8 .99 6.52 3.14 12.65 5.32 18.86.99 2.86 1.68 5.09 1.68 8.14h-9c-.99-2.68-1.97-5.37-2.94-8.06l-.84-2.28c-1.64-4.58-2.71-8.82-3.22-13.66h-5v24h-9z"/><path fill="#e2dcc2" d="M37 571h12c0 .94.01 1.89.01 2.86.04 8.89.1 17.77.17 26.66.04 4.57.08 9.14.09 13.71.02 4.41.05 8.82.1 13.22.01 1.69.02 3.37.02 5.05 0 2.36.03 4.71.06 7.07 0 .7-.01 1.39-.01 2.11.07 3.32.36 5.06 2.41 7.72C54 651 54 651 57 652v4h2l-2 8c-.78.08-1.57.16-2.38.25-2.62.75-2.62.75-3.87 2.69-.25.68-.49 1.36-.75 2.06-.16.33-.16.33-1 2-6.62.25-6.62.25-10-2-2.3-5.01-2.27-9.73-2.23-15.13v-2.72c0-2.95.02-5.91.03-8.86.01-2.06.01-4.11.01-6.16.01-5.4.03-10.79.05-16.19.02-5.51.03-11.02.04-16.53.02-10.8.06-21.61.1-32.41"/><path fill="#e2dac2" d="M52 258h3l-1 4 2-1v-2h2l-.06 2.38C58 264 58 264 59 266c-.42 2-.42 2-1.19 4.44l-.85 2.7c-1.27 3.77-2.66 7.5-4.09 11.22-1.61 4.9-2.01 9.78-2.19 14.91l-.12 3.66-.12 3.88c-.02.66-.05 1.31-.07 1.99-.34 10.53-.46 21.04-.33 31.57.01.96.01 1.93.02 2.92.01.84.03 1.68.04 2.55C50 348 50 348 49 351l15 1v1H36c-.16-15.7-.16-15.7-.2-22.47-.02-4.59-.05-9.19-.1-13.78-.05-3.71-.07-7.42-.08-11.12-.01-1.41-.02-2.81-.04-4.22-.17-11.51 1.2-22.61 7.86-32.35l1.82-2.67c.58-.79 1.15-1.58 1.74-2.39.24-.33.24-.33 1.46-2.02 1.29-1.67 1.29-1.67 3.54-3.98"/><path fill="#050301" d="M17 326h1v2.2c.01 43.01.05 86.03.13 129.04.01 5.17.01 10.33.02 15.5 0 1.03.01 2.06.01 3.12.02 16.64.03 33.29.04 49.94 0 17.08.02 34.17.06 51.25.02 10.54.03 21.08.02 31.62 0 7.23.01 14.47.04 21.7.01 4.17.02 8.34.01 12.51-.02 3.82-.01 7.64.02 11.47.01 2.02-.01 4.05-.02 6.07.09 8.24 1.25 15.48 5.67 22.58 8.22 7.35 15.45 7.44 26.07 7.38 1.43.01 2.86.01 4.28.02 3.06.01 6.12.02 9.18.01 4.84-.01 9.67.01 14.51.03 11.13.04 22.26.05 33.39.06 10.22.01 20.44.03 30.66.07 4.81.02 9.62.02 14.43.02 2.98-.01 5.97.01 8.95.02h4.17c1.88-.01 3.77 0 5.66.01h3.21c.41.07.41.07 2.49.38.33.5.33.5 2 3-19.66.14-39.33.25-58.99.31-9.13.03-18.26.07-27.39.14-7.96.06-15.92.1-23.88.11-4.21.01-8.43.03-12.64.07-3.97.05-7.94.06-11.91.05-1.45 0-2.9.01-4.36.04-8.84.13-15.23-.45-21.83-6.72-4.41-5.04-6.12-9.18-6.13-15.85v-12.18c-.01-3.99 0-7.98 0-11.98v-12.91c-.01-8.43-.01-16.86-.01-25.29.01-6.85.01-13.7.01-20.55v-2.95c0-1.98 0-3.96-.01-5.93 0-18.56.01-37.11.01-55.67.01-15.94 0-31.88 0-47.82q-.015-27.735 0-55.47v-8.84c0-6.85 0-13.7-.01-20.54 0-8.34 0-16.67.01-25.01v-12.77c-.01-3.89 0-7.78 0-11.67v-13.2C16 327 16 327 17 326"/><path fill="#0d0c08" d="M90 434h9l.06 4.28c.08 5.23.16 10.46.26 15.69.04 2.27.07 4.53.1 6.8.05 3.25.11 6.5.17 9.75l.03 3.09.06 2.85c.01.83.03 1.66.04 2.52C100 481 100 481 102 483c4.56-.56 4.56-.56 6-2 .12-1.44.18-2.89.21-4.34l.06-2.79c.01-1 .03-2 .05-3.03l.06-3.09.18-9.81c.05-2.21.09-4.43.13-6.64.11-5.43.21-10.87.31-16.3h8c.1 6.73.17 13.45.22 20.18.02 2.29.05 4.57.08 6.86.05 3.29.07 6.58.09 9.87l.06 3.09c.01 6.01-.46 9.42-4.45 14-3.62 3.1-7.07 3.64-11.71 3.49-4.04-.86-6.7-3.37-9.29-6.49-1.83-3.07-2.25-5.3-2.23-8.86v-2.91l.03-3.12c.01-1.06.01-2.12.01-3.21.01-3.38.04-6.77.07-10.15.01-2.29.01-4.59.02-6.88.02-5.63.06-11.25.1-16.87"/><path fill="#090502" d="M202 298h1v305h-1l-1 49h-1V305h1z"/><path fill="#2b261d" d="M199 294h1l1 286h1c1.05 18.63 1.25 37.25 1.3 55.91.01 4.23.04 8.45.08 12.68.03 3.29.03 6.59.04 9.89 0 1.55.01 3.11.03 4.67.11 9.42.07 16.69-6.41 24.09-7.22 5.98-7.22 5.98-11.04 6.76-3.81-.38-3.81-.38-7-1v-1c-23.59-.16-23.59-.16-143-1v-1h2.33c18.67-.04 37.35-.1 56.03-.18 9.03-.04 18.07-.08 27.1-.09 7.87-.01 15.75-.04 23.62-.08 4.17-.03 8.34-.04 12.51-.04 3.92 0 7.85-.02 11.77-.05 1.44-.01 2.88-.01 4.32-.01 1.97.01 3.94-.01 5.9-.03 1.1 0 2.21-.01 3.34-.01 4.88-.81 7.99-3.36 11.33-6.89 3.27-4.9 4-9.47 4.01-15.29.01-.65.01-1.3.01-1.97.01-2.17.01-4.34.01-6.51 0-1.57.01-3.14.02-4.72.01-4.31.02-8.63.02-12.95 0-4.66.02-9.32.03-13.98.02-8.07.04-16.14.05-24.21.01-11.67.04-23.34.06-35 .05-18.93.09-37.87.12-56.8.03-18.39.06-36.78.1-55.17.01-1.13.01-2.26.01-3.43.01-5.69.02-11.37.04-17.06.1-47.18.19-94.35.27-141.53"/><path fill="#2b2b29" d="M81.232 19.855c.65 0 1.3-.01 1.97-.01 2.16-.01 4.32-.01 6.48-.01 1.5-.01 2.99-.01 4.49-.01 3.14-.01 6.28-.01 9.42-.01q6.045 0 12.09-.03c3.09-.01 6.18-.01 9.27-.01 1.49 0 2.97-.01 4.46-.02 2.07-.01 4.15 0 6.23 0h3.58c2.78.25 2.78.25 4.78 2.25.25 3 .25 3 0 6-2.47 2.47-3.36 2.31-6.78 2.5-1 .06-1.99.12-3.02.18-1.08.05-2.16.11-3.28.17-.56.03-.56.03-3.39.19l-7.13.39c-3.6.19-7.19.39-10.78.6-27.94 1.56-27.94 1.56-33.62.97-2-2-2-2-2.23-4.35.01-.9.03-1.79.04-2.72.01-.9.01-1.79.02-2.72.34-4.55 3.5-3.35 7.4-3.36"/><path fill="#f6f6f2" d="M176.375 536.563c3.62.44 3.62.44 10.62-.56v20h-53c4-6 4-6 6.63-6.94 2.37-.06 2.37-.06 4.37.94v-2h2v2h4l1-4v3c.71-3.16 1-5.73 1-9h-4v8c-1.46-2.65-2-3.9-2-7h-2c-.33 2.31-.65 4.62-1 7h-1c-.12-6.75-.12-6.75 1-9 2.11-.35 2.11-.35 4.76-.5 2.87-.17 5.01-.41 7.68-1.52 6.04-2.31 13.62-1.36 19.94-.42"/><path fill="#ccc4b6" d="M30 357h158v5H31c-.16-.82-.16-.82-1-5"/><path fill="#fdfcf9" d="M31 561h157v4H31z"/><path fill="#f2eac5" d="M69 396h13v5h-8v8h7v3h2l1 14 6 2-1 3c-2.31.73-4.65 1.39-7 2l-3 2c-1.68-.27-3.34-.63-5-1-3.27-.28-6.54-.41-9.81-.56-.89-.05-1.77-.09-2.68-.13-2.17-.11-4.34-.21-6.51-.31l-1 12h-1v-5h-4c-.44-2.62-.44-2.62 0-6 3.84-4.84 6.81-5.97 13-7l4-12 2 4z"/><path fill="#d8d2b1" d="M76 521h2l1 5h2l1-5h2l1 11 3 1v-12h2v5h2v-5h2c.03 1.94.05 3.87.06 5.81.01 1.08.03 2.16.04 3.27C94 533 94 533 93 536c.83.16.83.16 5 1l-4 3c.16.66.16.66 1 4-.16-.33-.16-.33-1-2h-2v6h2l1-2-1 4h-4l-1-8-3-1 1 9-5-1c-.12-1.13-.25-2.27-.38-3.44-.2-1.17-.41-2.35-.62-3.56l-2-1 .06 3.94c.02 1.35.01 2.71-.06 4.06-1 1-1 1-3.87 1.1-1.18-.01-2.35-.03-3.57-.04-1.17-.01-2.35-.02-3.56-.02-.99-.02-1.98-.03-3-.04h-2c-1.34-.31-2.67-.65-4-1v-8l13-2-3-3 2-2h2l3-1z"/><path fill="#4b473e" d="M36 569h147l1 7h1l1-6h1v93c-.33.16-.33.16-2 1l-3-2c-.29-2.96-.38-5.71-.34-8.67v-2.77c0-2.96.02-5.92.05-8.88 0-1.83 0-3.65.01-5.47.01-6.78.05-13.56.09-20.33.06-15.14.13-30.28.19-45.88H36z"/><path fill="#0e0b04" d="M51 353h131v1l-2.74.15c-1.18.07-2.36.15-3.57.23-.59.03-.59.03-3.55.21C169 355 169 355 166 357c-2.17.25-2.17.25-4.73.24-.48 0-.48 0-2.94.01-1.07-.01-2.13-.02-3.23-.02h-3.4c-3.71 0-7.43-.02-11.15-.03-2.57-.01-5.15-.01-7.72-.01-6.09-.01-12.18-.03-18.27-.05-6.93-.02-13.86-.03-20.79-.04-14.26-.02-28.51-.06-42.77-.1l2-1v-2z"/><path fill="#f2e9c0" d="M177 402c6.15-.1 6.15-.1 8 0 1 1 1 1 1.12 2.87 0 .4 0 .4-.01 2.47v2.79c0 1-.01 2-.01 3.03 0 1.02-.01 2.04-.01 3.09q0 4.905-.03 9.81c0 2.21-.01 4.43-.01 6.64-.01 5.43-.03 10.87-.05 16.3l-2-3-2 3c-2.62.19-2.62.19-5 0v2h-2v-2h-2l-2 6-7-1v-11h4c.19-.78.37-1.57.56-2.38C170 438 170 438 173.5 436.81c1.16-.27 2.31-.53 3.5-.81l2-2c2.12.38 2.12.38 4 1-.12-1.26-.25-2.52-.38-3.81-.06-.71-.13-1.42-.21-2.15C182 427 182 427 180 424v-3h2l-1-6h2l1-6-8-2z"/><path fill="#212018" d="M142.5 395.375c3.79.95 5.12 2.54 7.5 5.62.73 3.35.7 6.59.62 10l.06 2.7c-.03 4.56-.2 6.67-3.03 10.39-2.65 1.91-2.65 1.91-5.71 2.54-2.94-.63-2.94-.63-5.09-2.54-2.62-4.37-2.47-8.08-2.41-13.09-.03-.88-.05-1.77-.07-2.69.01-4.59.13-6.66 3.01-10.39 2.62-1.92 2.62-1.92 5.12-2.54"/><path fill="#1a1811" d="M160.563 396.063c3.41.93 4.4 1.22 6.44 3.94.63 3.61.46 7.27.44 10.94.01 1 .03 2 .06 3.03-.01 7.31-.01 7.31-2.34 10.69-2.97 1.84-4.73 1.91-8.16 1.34-2.16-1.35-2.16-1.35-4-4-.61-3.68-.56-7.29-.5-11-.02-1-.03-2-.05-3.03.04-7.22.04-7.22 2.36-10.66 2.19-1.31 2.19-1.31 5.75-1.25"/><path fill="#12100a" d="M46 396c2.16 1.34 2.16 1.34 4 4 .6 3.67.56 7.29.5 11 .02 1 .03 2 .05 3.02-.04 7.25-.04 7.25-2.39 10.64-2.97 1.85-4.72 1.91-8.16 1.34-2.16-1.34-2.16-1.34-4-4-.6-3.67-.56-7.29-.5-11-.02-1-.03-2-.05-3.02.04-7.25.04-7.25 2.39-10.64 2.97-1.85 4.72-1.91 8.16-1.34"/><path fill="#f1e8bf" d="m134 422 4 2v2c3.19.81 3.19.81 7 1 2.94-2.44 2.94-2.44 5-5 3 1 3 1 5 4 .12 2.69.12 2.69 0 5l-5 1-1 3c-.65-.01-1.3-.02-1.98-.04-4.8-.04-9.3.05-14.02 1.04v-2h-10c.02.83.05 1.66.07 2.52.01.54.01.54.05 3.29.03 1.08.05 2.16.08 3.27C123 446 123 446 121 449h-2c-.05-1.04-.1-2.07-.15-3.14-.07-1.37-.15-2.74-.23-4.11l-.09-2.07c-.21-3.67-.54-6.54-2.53-9.68 3-1 3-1 6-1 2.19-2 2.19-2 4-4l2 1 1-2h4z"/><path fill="#fff" d="M91.5 124.75C94 125 94 125 96 127c.24 2.08.24 2.08.23 4.66v2.88c-.02 1.02-.03 2.04-.04 3.09-.01.51-.01.51-.02 3.12-.09 8.44-.49 16.83-1.17 25.25h-9c.09-5.52.2-11.04.32-16.55.04-1.88.07-3.76.1-5.64.05-2.69.11-5.39.17-8.08l.03-2.56c.2-7.95.2-7.95 4.88-8.42"/><path fill="#1d1c15" d="M118 396c10 0 10 0 12.62 1.38 2.13 4.05 2 8.13 1.38 12.62-.37.68-.73 1.36-1.11 2.06-.89 1.94-.89 1.94-.43 3.98.3.66.6 1.33.92 2.02 1.18 2.68 1.62 3.93 1.62 6.94l-5-1c-1.32-3.62-2-6.1-2-10h-3v12h-5z"/><path fill="#212018" d="M84 396c10 0 10 0 12.62 1.38 2.12 4.04 1.88 8.14 1.38 12.62l-1 1c.48 4.7 1.19 9.34 2 14h-5c-.19-.78-.39-1.56-.59-2.37l-.79-3.07c-.25-1.01-.51-2.02-.77-3.06C91 414 91 414 89 413v13h-5z"/><path fill="#e0dac3" d="M82 204h1c.1 1.18.21 2.35.31 3.56.57 4.34 1.51 7.63 3.69 11.44 2.69.94 2.69.94 5 1 .12 3.38.12 3.38 0 7-1.92 1.92-3.74 3.5-6 5h-3q-1.53 1.47-3 3l-3 1-1 3 2 1c-.76.6-1.53 1.2-2.31 1.81-5.43 4.42-5.43 4.42-6.69 8.19-1.63 1.39-1.63 1.39-3.56 2.69-.64.43-1.28.87-1.94 1.32-.5.33-.99.65-1.5.99l-3-2 2-2c.23-.72.45-1.44.69-2.19 1.3-2.79 2.36-3.98 4.56-6.06C76.86 232.45 81.66 218.66 82 204"/><path fill="#2b2a2a" d="M136.688 33.938c.6 0 .6 0 3.64.03l2.67.03-1 5-1.77.06c-15.03.53-30.04 1.31-45.06 2.28-6.39.41-12.75.79-19.17.66l-2-4c10.18-3.39 22.3-2.32 32.91-2.6 6.59-.2 13.12-.53 19.68-1.19 3.39-.29 6.71-.3 10.1-.27"/><path fill="#5d5945" d="M115 521c4.11-.02 8.22-.04 12.34-.05l4.19-.03c2.01-.01 4.02-.01 6.03-.02.6 0 .6 0 3.66-.01C144 521 144 521 145 522c.07 1.85.08 3.71.06 5.56-.01 1.01-.02 2.03-.02 3.07-.02.78-.03 1.56-.04 2.37l-2-1-1-3-1 4h-8v-10h-2v10h-2v-10h-2v2h-2v-2h-2v3l4 2-1 5h-11z"/><path fill="#f1e8c1" d="m85 480 4 1v2l3 1c1.69 1.98 3.36 3.98 5 6 2.34 1.17 3.77 1.13 6.38 1.12.77.01 1.54.01 2.33.01 2.29-.13 2.29-.13 4.44-.7 2.52-.59 3.69.26 5.85 1.57 0 3 0 3-1 5v4h-2v-2l-4 2v-4c-.43.01-.43.01-2.59.04-1.1 0-2.21.01-3.35.02-1.1.01-2.2.03-3.34.04C97 497 97 497 96 496c-5.74-.27-5.74-.27-8 0l-2 2c-2.38-.24-2.38-.24-5.12-.88-.92-.2-1.83-.4-2.76-.61-.7-.17-1.4-.34-2.12-.51l1-3 3.88.12c2.17.08 2.17.08 4.12-.12l2-2c-.33-.89-.66-1.77-1-2.69-.91-3.02-1.18-5.19-1-8.31"/><path fill="#26241b" d="M69 396h13v5h-8v8h7v4h-7v8h8v5H69z"/><path fill="#0a0906" d="M102 397h10c3 3 3 3 3.4 5.59-.01.96-.02 1.92-.02 2.91 0 .96.01 1.92.02 2.91-.4 2.59-.4 2.59-1.72 4.42-2.51 1.75-4.71 1.37-7.68 1.17v11h-4z"/><path fill="#fcfcfb" d="M107 442h1c.05 5.66.09 11.32.11 16.98.01 1.93.02 3.85.04 5.78.03 2.76.04 5.53.05 8.29l.03 2.62c0 2.11-.11 4.22-.23 6.33l-2 2c-3.3-.33-4.62-.62-7-3-.23-2.71-.23-2.71-.2-6.1.01-1.21.02-2.42.02-3.67l.06-3.85c0-.64 0-.64.02-3.88.03-3.17.06-6.33.1-9.5l3 4 4-1z"/><path fill="#f2ebc9" d="m63 514 3.06 1.06c3.92 1.13 6.91.56 10.94-.06 5.09.16 9.5.47 14 3v2h-4v10h-2v-9l-3 1c-.69 2.06-.69 2.06-1 4h-2c-.16-.83-.16-.83-1-5h-2v12h-6c-1.74-1.74-1.37-4.19-1.56-6.56-.04-.51-.04-.51-.26-3.07-.06-.78-.12-1.56-.18-2.37-.83-.33-.83-.33-5-2z"/><path fill="#0e0d0b" d="m30 253 2 1c-.61 2.79-1.45 5.12-2.78 7.64-.35.68-.69 1.36-1.05 2.06-.73 1.4-1.47 2.8-2.2 4.19-9.02 17.56-7.51 38.85-7.97 58.11-.33.16-.33.16-2 1-.07-6.19-.13-12.38-.16-18.57-.02-2.1-.04-4.2-.07-6.3-.17-14.25.06-26.75 6.67-39.69.57-1.16 1.15-2.32 1.74-3.51 1.73-2.79 3.06-4.23 5.82-5.93"/><path fill="#332f27" d="M33 570h3c0 .58 0 .58.02 3.53.08 11 .17 21.99.27 32.98.05 5.65.09 11.3.13 16.95.04 5.45.09 10.91.14 16.36.02 2.08.03 4.16.04 6.24.02 2.92.05 5.83.08 8.74 0 .86.01 1.73.01 2.61.06 4.26.19 7.77 2.31 11.59l2 1-2 3c-2.9-1-3.93-1.89-5.62-4.5-1.76-4.47-1.74-8.14-1.63-12.9l.03-2.81c.03-3.05.09-6.11.15-9.16.02-2.12.05-4.24.08-6.36.07-5.57.15-11.15.25-16.72.09-5.69.16-11.38.24-17.07.15-11.16.32-22.32.5-33.48"/><path fill="#1a1811" d="M63 396h4c-.64 6.63-1.71 13.05-3.06 19.56-.19.92-.38 1.83-.57 2.77-.45 2.22-.91 4.45-1.37 6.67l-5 1c-.84-3.89-1.67-7.79-2.5-11.69-.24-1.1-.48-2.2-.72-3.34-.23-1.07-.45-2.13-.69-3.23-.21-.98-.42-1.96-.63-2.97-.44-2.65-.55-5.09-.46-7.77.83.17.83.17 5 1l2 12c1.59-4.33 2.37-8.44 3-13z"/><path fill="#f2eac3" d="m166 471 1 2c7.41 1.29 7.41 1.29 10 0v2l3 1c.12.74.25 1.49.38 2.25.57 2.55 1.36 4.48 2.62 6.75h-3v4c-.62-.19-1.24-.37-1.88-.56C176 488 176 488 174 489c-.8-.5-1.61-.99-2.44-1.5-.84-.5-1.69-.99-2.56-1.5l-3 1-2-1c-.48-2.14-.48-2.14-.75-4.81-.1-.88-.2-1.75-.3-2.65.06-3.11.83-5.32 3.05-7.54"/><path fill="#26241c" d="M170 396h13v5h-8v8h7v4h-7v13h-5z"/><path fill="#0a0803" d="M134.98 565.877c2.2 0 4.41-.01 6.61-.01 3.53-.01 7.05-.01 10.58 0 1.94 0 3.88 0 5.82-.01 6.42.02 12.64.28 19.01 1.14v1c-9.15 1.16-18.23 1.16-27.44 1.13h-2.57c-26.67-.04-53.33-.61-79.99-1.13v-1c22.66-.91 45.31-1.11 67.98-1.12"/><path fill="#060403" d="M84 117c7.07-.03 14.13-.04 21.2-.05l7.21-.03c3.45-.01 6.91-.01 10.36-.02 1.08 0 2.16-.01 3.27-.01h3.03c.88-.01 1.76-.01 2.67-.01C134 117 134 117 137 118v3H78v-1c.8-.12 1.61-.25 2.44-.38.84-.2 1.69-.41 2.56-.62z"/><path fill="#070400" d="M53 354h68v3H51l2-1z"/><path fill="#f2e9c0" d="M37 521c4.19 0 7.89.13 12 1 1.18 3.67 1.07 7.17 1 11h-2l-1-3c-1.06 1.88-1.06 1.88-2 4l1 2c-.64.25-1.28.51-1.93.77-.83.34-1.66.69-2.51 1.04-.82.34-1.64.68-2.49 1.02C37 540 37 540 36 543h-3c.63-6.68.63-6.68 2.53-8.34 2.21-2.5 1.76-4.59 1.66-7.85-.03-1.08-.06-2.17-.08-3.29-.04-.83-.07-1.66-.11-2.52"/><path fill="#a4a190" d="M78 540c1.49 2.98 1.12 5.72 1 9-1 1-1 1-3.87 1.1-1.18-.01-2.35-.03-3.57-.04-1.17-.01-2.35-.02-3.56-.02-.99-.02-1.98-.03-3-.04h-2c-1.34-.31-2.67-.65-4-1v-8c6.37-.75 12.58-1.1 19-1"/><path fill="#27231d" d="M185 291h2v62l-3-1c-.18-7.66-.34-15.32-.49-22.97-.08-3.56-.15-7.12-.23-10.67-.1-4.09-.18-8.17-.26-12.26-.01-.64-.01-.64-.09-3.88-.02-1.18-.04-2.36-.07-3.58l-.06-3.16c.2-2.48.2-2.48 2.2-4.48"/><path fill="#8c8876" d="M37 540h9l1 5 1-4c1.48-.19 2.96-.38 4.44-.56.82-.11 1.64-.21 2.49-.32L57 540c1 1 1 1 1.1 2.85-.03 2.05-.07 4.1-.1 6.15-3.67.85-7.04 1.11-10.81 1.06-.98-.01-1.95-.02-2.96-.02-.37-.01-.37-.01-2.23-.04v-4h-3v3h-2z"/><path fill="#f3f2ef" d="M65 443c8 0 8 0 9.97 1.19 2.08 3.67 1.61 7.75 1.03 11.81-1.56 2.62-1.56 2.62-4 4h-7z"/><path fill="#efe6c0" d="M87 447h2c.06 3.35.09 6.71.12 10.06l.06 2.86c.03 5.41-.15 10.02-2.18 15.08l-3 2c-2.57-1.29-2.63-2.21-3.56-4.88-.25-.69-.5-1.39-.76-2.11L78 465c1.28-1.71 2.62-3.37 4-5l1-3 2-1c.38-1.81.38-1.81.56-4 .34-3.9.34-3.9 1.44-5"/><path fill="#413f3a" d="M69 79h1l.06 3.17c.08 3.87.16 7.74.26 11.62.04 1.68.07 3.35.1 5.03.05 2.41.11 4.82.17 7.23l.03 2.27c.11 3.74.26 5.49 2.38 8.68 2.6.29 2.6.29 5.62.19 1.01-.03 2.01-.06 3.04-.08.39-.02.39-.02 2.34-.11v3l58 1v1H76v2h-2l-2 3v-6l-3-1z"/><path fill="#fdfcfb" d="M175 358h13v3H39v-1l136-1z"/><path fill="#36322b" d="M34 283h2v70l-3-1c-.18-8.41-.34-16.81-.49-25.22-.08-3.9-.15-7.8-.23-11.71-.08-3.76-.15-7.53-.22-11.3-.02-1.44-.05-2.87-.09-4.31-.04-2.01-.07-4.03-.11-6.04l-.06-3.47c.2-2.89.69-4.51 2.2-6.95"/><path fill="#fff" d="M118 434h1v15c3.49-3.49 3.43-4.45 3.69-9.19.06-1.08.13-2.17.2-3.29.03-.83.07-1.66.11-2.52h1v42h-1v-13l-3 1-1 14h-1z"/><path fill="#343434" d="m143 34-1 5c-4.18.02-8.36.04-12.54.05l-4.27.03c-2.04.01-4.09.01-6.14.02-1.23 0-2.46.01-3.73.01-2.91-.1-5.49-.43-8.32-1.11v-2c12.02-1.23 23.9-2.37 36-2"/><path fill="#030100" d="M83 167h52l-1 3H94v-1H83z"/><path fill="#100e09" d="m182 662 4 2c-1.24 4.96-2.76 7.14-7 10-4.31 2.15-9.34 1.53-13.82.11-2.42-.98-4.81-2-7.18-3.11v-4c.34.11.34.11 2.09.69 6.1 1.87 11.67 3.31 17.91 1.31 2.43-2.28 2.94-3.83 4-7"/><path fill="#13110f" d="M203 671c.56 5.59-.86 9.47-4 14-3.6 3.84-7.71 7.91-13 9-3.81-.38-3.81-.38-7-1 2.14-2.42 3.72-3.4 6.81-4.25 4.81-1.71 7.5-4.47 10.19-8.75 1.15-2.63 2.06-5.28 3-8 2-1 2-1 4-1"/><path fill="#f0e7c0" d="M151 469h1c.16 2.92.28 5.83.38 8.75.02.41.02.41.15 2.5.06 2.39.03 4.43-.53 6.75-2.79 2.46-2.79 2.46-6 4-.33.18-.33.18-2.01 1.08-4.66 2.03-4.66 2.03-7.99.92l1-5c.56-.04.56-.04 3.38-.25 3.62-.75 3.62-.75 4.78-2.44.97-2.67 1.5-5.25 1.96-8.06.09-.49.09-.49.51-2.98.12-.75.25-1.5.37-2.27l3-1z"/><path fill="#e7e2d0" d="M78 226c1 3 1 3-.44 5.94-.51 1.01-1.03 2.02-1.56 3.06v4l2 1c-.76.6-1.53 1.2-2.31 1.81-5.43 4.42-5.43 4.42-6.69 8.19-1.63 1.39-1.63 1.39-3.56 2.69-.32.22-.32.22-1.94 1.32-.5.33-.99.65-1.5.99l-3-2 2-2c.11-.36.11-.36.69-2.19 1.3-2.79 2.36-3.98 4.56-6.06C71.3 237.94 74.99 232.27 78 226"/><path fill="#fefefd" d="M104 542h3v8h2v-8h1v8h14l-1 2c-3.06.62-3.06.62-6 1 2.16.69 3.54 1.13 5.75.5 3.59-.8 6.64-.15 10.25.5l1 2h-28l1-2h4l-2-1v-2c-.64-.14-1.28-.29-1.94-.44C105 550 105 550 104 549c-.04-2.33-.04-4.67 0-7"/><path fill="#56513b" d="M101 540h11v8h3v-7l4 1h-2v2h2v2h-2v2h3v-6h1v6h2v-6h1c.04 2.33.04 4.67 0 7-1 1-1 1-4.6 1.1-1.49-.01-2.97-.02-4.46-.04-.38 0-.38 0-2.3-.01-1.88-.01-3.76-.03-5.64-.05v-8h-3v7h-1v-7h-2z"/><path fill="#5e5947" d="M138 540c.82.16.82.16 5 1l1 3 1-3h2l1 3 1-4h4c.91 3.07 1.09 5.8 1 9l-7 1v-2h-2v2h-7z"/><path fill="#e3e0d1" d="m41 401 5 1v18l-5 1c-1.52-1.52-1.13-2.88-1.13-5 0-.8-.01-1.61-.01-2.44.01-.84.01-1.69.02-2.56-.01-.85-.01-1.69-.02-2.56 0-.4 0-.4.01-2.44v-2.25C40 402 40 402 41 401"/><path fill="#070606" d="M97 60h25v4H96z"/><path fill="#f0e7bd" d="M107 441v16l-4 1-2 2c-1.47-5.9-1.06-12.05 0-18 2-1 2-1 6-1"/><path fill="#fdfdfd" d="M140 401c.82.17.82.17 5 1v19h-5z"/><path fill="#f6f4e9" d="M158 401h4v20l-5-1q-.045-4.47-.06-8.94l-.03-2.57c0-.81 0-1.62-.01-2.45 0-.75-.01-1.5-.01-2.27C157 402 157 402 158 401"/><path fill="#f2e9c0" d="M131 388h4l-1 4c.91-.33 1.81-.66 2.75-1 3.25-1 3.25-1 7.25-1 1.67-.3 3.34-.63 5-1v5h-11v2h-2v2c-2.88-.31-2.88-.31-6-1l-2-3z"/><path fill="#171613" d="M18 674h2q.405.99.81 2.01c2.91 6.54 5.69 9.93 12.19 12.99l-2 4c-6.64-2.28-10.53-5.93-14-12-.88-2.75-.88-2.75-1-5z"/><path fill="#f1efe8" d="M115 521h6c.29.91.58 1.82.88 2.75.89 2.57 1.83 4.86 3.12 7.25h-2v-2h-2l1 4h-7z"/><path fill="#f2ebcd" d="m113.125 490.938 2.88 1.06c0 3 0 3-1 5v4h-2v-2l-4 2v-8c-.85.39-1.7.79-2.57 1.19-4.62 1.09-6.3-.04-10.43-2.19 2.88-.96 4.58-1.08 7.56-1 3.71.1 6.05-1.11 9.56-.06"/><path fill="#fff" d="M31 561h31v1H41v2h19v1H31z"/><path fill="#090602" d="M96 659h24l1 2c-2.63 1.31-4.73 1.21-7.66 1.32l-3.4.12-3.56.12c-1.19.05-2.37.09-3.59.13-2.93.11-5.86.21-8.79.31z"/><path fill="#e7e2cf" d="M141 232h3c1.5 1.83 1.5 1.83 3 4.25 1.89 3.02 3.82 5.93 6 8.75l-1 2c-5.11-2.16-9.22-6.01-13-10z"/><path fill="#f2e9bf" d="M161 368h18v3l-6 1v3h-5v-4l-3 2c-2-1.38-2-1.38-4-3z"/><path fill="#211d13" d="M156 521c.82.16.82.16 5 1l3-1v12h-2c-.16-.83-.16-.83-1-5h-3v5h-2z"/><path fill="#6c6856" d="M161 541c3.27 0 5.85.3 9 1 .12 5.75.12 5.75-1 8h-6v-2l-3 1z"/><path fill="#47453a" d="M57 521h2l2 3 2-3h2v12h-2l-1-3c-.45.5-.91.99-1.38 1.5C59 533 59 533 57 533z"/><path fill="#f1e8bf" d="M68 445c1.88.31 1.88.31 4 1 2.31 3.47 2.42 4.92 2 9-1.25 1.88-1.25 1.88-3 3h-4c-.03-1.79-.05-3.58-.06-5.38-.01-.99-.03-1.99-.04-3.02.1-2.6.1-2.6 1.1-4.6"/><path fill="#696554" d="M59 541h9l1 2h-2v4l2 1-1 2c-.58-.19-1.16-.37-1.75-.56-2.47-.48-3.87-.1-6.25.56-1-1-1-1-1.1-2.85.03-2.05.07-4.1.1-6.15"/><path fill="#18140e" d="m182 662 4 2c-1.24 4.95-2.69 7.23-7 10-2.31.75-2.31.75-4 1l-1-3-3-1 3.81-1.12c3.52-1.3 4.08-1.7 6.19-5.07.16-.46.16-.46 1-2.81"/><path fill="#322f20" d="M76 521h2l1 5h2l1-5h2v12h-2l-1-3h-2l-1 3h-2z"/><path fill="#f0efea" d="M57 394c.83.17.83.17 5 1 .23 6.93-.58 13.22-2 20h-1c-1.51-7.09-2.28-13.75-2-21"/><path fill="#ede5be" d="M66 469c.83.17.83.17 5 1v11h-4c-1.26-2.52-1.1-4.31-1.06-7.12.01-.92.02-1.83.02-2.76.02-.7.03-1.4.04-2.12"/><path fill="#f4eed0" d="m132 547 1 3 2 1c-3.92 2.19-6.52 3.24-11 3l-3 1c-2.56.25-2.56.25-5 0l-2-3c1.48-.16 1.48-.16 9-1v-2l9 1z"/><path fill="#686558" d="M44 521c.83.16.83.16 5 1 1.18 3.67 1.07 7.17 1 11h-2l-1-3-1 3h-2z"/><path fill="#f2e9c1" d="M43 368h18c-.33.17-.33.17-2 1v4h-2v-2c-.66.39-1.32.78-2 1.19-4.2 1.13-7.25-.12-11-2.19z"/><path fill="#f0e8bc" d="M107 471q.045 2.19.06 4.38c.01.81.03 1.62.04 2.46C107 480 107 480 106 482h-4c-1.52-3.04-1.24-5.65-1-9 3-2 3-2 6-2"/><path fill="#efe6bd" d="M120 463h3c.03 2.12.05 4.25.06 6.38.01 1.18.03 2.36.04 3.58C123 476 123 476 122 478h-3c-.03-2.31-.05-4.62-.06-6.94-.01-1.29-.03-2.57-.04-3.9.1-3.16.1-3.16 1.1-4.16"/><path fill="#2d2817" d="M173 521h8v2h-2v10h-2v-10h-2v10h-2z"/><path fill="#2b2a29" d="M129 34h14l-1 5h-14v-1l5-1z"/><path fill="#e9e5cd" d="M188 561v4l-24-1c2.38-2.38 3-2.28 6.25-2.41l2.53-.12 2.66-.09 2.64-.12c3.31-.14 6.61-.26 9.92-.26"/><path fill="#393528" d="M128 541h4l1 2 2-2v8l-8 1z"/><path fill="#11100c" d="M71 162c1.71 2.97 2.25 5.08 2.19 8.5-.01.75-.02 1.51-.02 2.28-.17 2.18-.57 4.12-1.17 6.22h-2l-1 2c-.1-6.09-.17-12 1-18z"/><path fill="#e0dab3" d="M102 542h1v7l8 2v3c-4.63 1.02-8.34.84-13 0v-3l3-1z"/><path fill="#373321" d="M88 521h2v5h2v-5h2v12h-2v-5h-2v5h-2z"/><path fill="#3e3a27" d="M105 521h2v5h2v-5h2v12h-2v-5h-2v5h-2z"/><path fill="#221e14" d="M166 521c.82.16.82.16 5 1v11h-5z"/><path fill="#f1eac2" d="M185 466h1v20h-2v-5h-3v-5c.33.17.33.17 2 1-.16-.82-.16-.82-1-5h2z"/><path fill="#9e9982" d="M138 540c.82.16.82.16 5 1 .14 1.11.29 2.23.44 3.38C144 548 144 548 145 550h-7z"/><path fill="#4a4538" d="M37 521h5c1 1 1 1 1.06 3.56L43 527l-4 1v5h-2z"/><path fill="#383526" d="M69 521h2v10h2v-10h2v11l-5 1c-1-1-1-1-1.1-3.5.01-.51.01-.51.04-3.06.01-1.01.02-2.03.02-3.07.02-.78.03-1.56.04-2.37"/><path fill="#f3eac3" d="M75 387c1.09.35 2.19.7 3.31 1.06C82 389 82 389 85 388v5c-3.05.98-4.95.98-8 0v-2l-5 2-1-4h4z"/><path fill="#434341" d="M69 48h1v22h2l1-5h1c.14 1.11.29 2.23.44 3.38C75 72 75 72 76 74h-4l-1 2c-1.99-3.32-2.24-5.8-2.2-9.64.01-1.07.02-2.14.02-3.24l.06-3.37c0-1.13.01-2.25.02-3.41.03-2.78.06-5.56.1-8.34"/><path fill="#ded7b4" d="M133 540h3l.15 1.86c.07.81.15 1.62.23 2.45.03.4.03.4.21 2.43C137 549 137 549 139 552c-5.42 3.08-5.42 3.08-8.38 2.69q-.795-.345-1.62-.69c1.36-2.72 3.34-3.67 6-5-.31-.6-.62-1.2-.94-1.81C133 545 133 545 132 542z"/><path fill="#302b19" d="M100 521c2.12.38 2.12.38 4 1v3h-2v-2h-2v8h2l-1-4h3v5c-1.88.62-1.88.62-4 1-2-2-2-2-2.27-3.88.01-.7.01-1.4.02-2.12-.01-.7-.01-1.4-.02-2.12C98 523 98 523 100 521"/><path fill="#3f3b2c" d="M150 521h4l1 3c-.33.16-.33.16-2 1v-2h-2v3l4 2-1 5-5-1v-3h2v2h2l-2.06-2.19C149 526 149 526 149.25 523.19q.375-1.08.75-2.19"/><path fill="#e7e3d1" d="m89 413 3 1c.77 1.96.77 1.96 1.25 4.38.17.79.34 1.58.52 2.39C94 423 94 423 93 426h-2v-2h-2z"/><path fill="#e7e4ce" d="M106 401h5v8l-5 1z"/><path fill="#f1e8c6" d="M39 546h3l1 7c-3.7.95-6.3.95-10 0l2-4 1 2 1-2h2z"/><path fill="#3e3b31" d="M140 522h5v11l-2-1-1-3-2 4z"/><path fill="#676453" d="M96 541c.83.16.83.16 5 1v7c-1.94.56-1.94.56-4 1-1-1-1-1-1.1-2.85.03-2.05.07-4.1.1-6.15"/><path fill="#3c3723" d="M51 521h5v2h-3v3h3v2h-3v3h3v2h-5z"/><path fill="#413c28" d="M115 521h5v2h-3v3h3v2h-3v3h3v2h-5z"/><path fill="#413d2b" d="M122 521c.66.16.66.16 4 1l-1 3v-2h-2v3l4 2-1 5-5-1v-3h2v2h2l-2.06-2.19C121 526 121 526 121.25 523.19q.375-1.08.75-2.19"/><path fill="#f1f1ed" d="M152 460h1v26h-1c-.16-2.48-.16-2.48-1-15h-2c.31-1.46.62-2.92.94-4.38.17-.81.35-1.62.52-2.46C151 462 151 462 152 460"/><path fill="#faf9f4" d="M89 401c.83.17.83.17 5 1v7h-5z"/><path fill="#fbf9f1" d="M123 401c.83.17.83.17 5 1v6l-5 1z"/><path fill="#211f18" d="M36 664c1.5 1.38 1.5 1.38 3 3v2l2 1c-.33.5-.33.5-2 3-2.99-1.1-3.85-1.68-5.25-4.62-.25-.79-.49-1.57-.75-2.38z"/><path fill="#f3ebc4" d="M123 498c.31.18.31.18 1.88 1.06l2.12.94c2.25-.88 2.25-.88 4-2l-2 5h-2l-2 4-1-3-1.56-1.56L121 501v-2z"/><path fill="#f1e9c0" d="M186 383c.12 3.38.12 3.38 0 7l-2 2-1-2h-2l-2-5c4.75-2 4.75-2 7-2"/><path fill="#3e3d3f" d="m146 42 3 1v29h-1c-.03-.77-.05-1.53-.08-2.32-.11-3.48-.23-6.95-.36-10.43l-.12-3.66-.12-3.51c-.04-1.07-.08-2.14-.11-3.24-.18-2.42-.52-4.52-1.21-6.84"/><path fill="#5e5a4b" d="M171 541h4v8h-4z"/><path fill="#22211e" d="M203 671c.12 2.88.12 2.88 0 6l-2 2c-2.12-.38-2.12-.38-4-1 .6-2.02 1.27-4.02 2-6 2-1 2-1 4-1"/><path fill="#bbb7aa" d="m124 541-1 7h-6v-2h2v-2h-2v-2c3.62-2.12 3.62-2.12 7-1"/><path fill="#615d4f" d="M54 541h4v8h-4z"/><path fill="#4c473d" d="M155 541h4v8h-4z"/><path fill="#e6e0c4" d="M144 449h1l-1 15-2-1q-.075-2.94-.12-5.88c-.03-1.09-.05-2.18-.08-3.3.2-2.82.2-2.82 2.2-4.82"/><path fill="#5c584c" d="m75 541 4 1v7h-4z"/><path fill="#e9e0bb" d="M57 394c.83.17.83.17 5 1 .08 1.46.14 2.92.19 4.38.03.81.07 1.62.1 2.46-.09.71-.19 1.42-.29 2.16l-3 2z"/><path fill="#464331" d="m84 541 2 1c.59 2.65.74 5.29 1 8l-5-1c.88-6.88.88-6.88 2-8"/><path fill="#575442" d="M176 541c.82.16.82.16 5 1 0 3.77-.24 4.91-2 8l-3-1 1-2 2 1c-.5-.6-.99-1.2-1.5-1.81C176 544 176 544 176 541"/><path fill="#f2e9c0" d="M33 381c2.5 1.31 2.5 1.31 5 3v3c-.33.17-.33.17-2 1l-1 3h-2z"/><path fill="#615c4d" d="M162 521h2v12h-2c-.19-1.62-.38-3.25-.56-4.88-.11-.9-.21-1.8-.32-2.74C161 523 161 523 162 521"/><path fill="#e9e7df" d="M100 523h2v2h2l1-2v9h-1v-5c-.33.16-.33.16-2 1v3h-2z"/><path fill="#413e36" d="M43 541h4v8h-4z"/><path fill="#322d1b" d="m44 522 3 1-1 3h2v2h-2v5h-2z"/><path fill="#44402f" d="m161 541 3 1v7h-4z"/><path fill="#faf9f3" d="M104 542h3v8l2 1c-3.88-.88-3.88-.88-5-2-.04-2.33-.04-4.67 0-7"/><path fill="#4f4c41" d="M173 521h3l-1 12h-2z"/><path fill="#f2f2ec" d="M135 523h4v8h-4v-3h3v-2h-3z"/><path fill="#3c372f" d="M139 541h4v7l-1-2h-2l-1 3z"/><path fill="#f0ebd6" d="M142 413c1.95 2.92 2.45 4.63 3 8h-5c.88-5.75.88-5.75 2-8"/><path fill="#373221" d="M145 541h2l1 8h-4z"/><path fill="#3e3927" d="m115 541 4 1h-2v2h2v2h-2v2l2 1h-4z"/><path fill="#c9c5b2" d="M172 521h1v12h-2c-1.12-4.69-.81-7.54 1-12"/><path fill="#f7f6f1" d="m96 491 12 1v2c-4.93 1.64-7.54.19-12-2z"/><path fill="#0f0c0a" d="m188 690-2 4-7-1c2.62-3.01 5.13-4.93 9-3"/><path fill="#1a1816" d="M200 678c.75 1.75.75 1.75 1 4-1.94 2.25-1.94 2.25-4 4l-1-6z"/><path fill="#4c4735" d="M37 540h4v2h-2c.19.6.37 1.2.56 1.81C40 546 40 546 39 549h-2z"/><path fill="#e5e3dc" d="M44 527v6l-1-2h-2v2h-2v-5c3-1 3-1 5-1"/><path fill="#efe8c5" d="M117 412c-.61 2.96-1.25 4.38-3 7l-3-3 1-3c3-1 3-1 5-1"/><path fill="#7e7867" d="M128 541c2.15 3.23 2.2 4.28 2 8l2 1h-5z"/><path fill="#453f2d" d="M100 521c2.12.38 2.12.38 4 1v3h-2v-2h-2l-1 8h-1c-.2-6.05-.2-6.05 0-8z"/><path fill="#050502" d="m69 171 3 1v7h-2l-1 2z"/><path fill="#3e3e3a" d="m141 21 3 1v6l-3 1z"/><path fill="#6d695d" d="M156 521c.82.16.82.16 5 1l-1 5-3-1c-.16-.83-.16-.83-1-5"/><path fill="#f1ebc4" d="M184 487h2v8h-3c-.93-2.61-1.15-3.64-.06-6.25.35-.58.7-1.15 1.06-1.75"/><path fill="#201c10" d="M57 521h2l1 6h-1l-1 5h-1z"/><path fill="#edebe5" d="M76 520h8l-2 2c-.62 2.12-.62 2.12-1 4h-2c-.12-.8-.25-1.61-.38-2.44-.1-.42-.1-.42-.62-2.56z"/><path fill="#cecab7" d="m134 422 4 2c-2 2-2 2-3.95 2.2-2.01-.07-4.03-.13-6.05-.2l1-2h4z"/><path fill="#f2e9c1" d="m66.125 368.938 2.88 1.06-1 2c-.99.33-1.99.66-3 1v-2h-4v-2c2-1 2-1 5.12-.06"/><path fill="#e8e4db" d="M55 258v2c-1.96 1.71-3.96 3.38-6 5l-2-1c4.62-6 4.62-6 8-6"/><path fill="#838073" d="M167 523h3l-2 10h-1z"/><path fill="#fafaf8" d="M162 527v6h-4v-5c3-1 3-1 4-1"/><path fill="#747163" d="M43 522v5c-.33.16-.33.16-2 1l-2-1v-4c3-1 3-1 4-1"/><path fill="#ede6be" d="m145 524 3 1c.81 1.88.81 1.88 1 4-.33.5-.33.5-2 3-2-5.75-2-5.75-2-8"/><path fill="#fff" d="m107 403 2 4 2-3v5l-4 1z"/></svg>