<svg xmlns="http://www.w3.org/2000/svg" width="200mm" height="200mm" viewBox="0 0 200 200"><path d="M32724.2 27201c0 449.5 27.2 938.7 22.5 1396.9-5.4 534.6-163.4 341-718.4 340.3-119.5-.2-220.3 7.9-305 16.1-320.3 30.6-409.6 61.3-401.8-355.7 8.3-445.3 42.3-989.5-15.5-1402-94.2-673.1-894-342.8-1260.7-768.8-281.7-327.3 29.2-3099 45.3-3996 15.7-869.5-326.4-3683-136.3-4256.9 108-326.2 486.1-274 1148-221.9 264.7 20.8 574.8 41.7 931.2 38.3 1078.1-10.1 1855.3-232.2 1975 210.8 181.4 671.1-85.7 3112.7-99.8 3976.2-15.9 980.3 325.9 3661.2 162.1 4090.7-171.1 449-1346.6 305-1346.6 932" style="fill:#ecf9f7;fill-opacity:1;fill-rule:nonzero;stroke:none" transform="matrix(.01397 0 0 -.01397 -347.136 440.955)"/><path d="M33908.8 22178.3c14-863.4 281-3305.2 99.7-3976.2-27.9-103.3-91.5-170.5-186.5-212.5-312.1-138.5-961.8-6.1-1788.5 1.8-356.2 3.3-666.3-17.6-930.9-38.4-458.5-36.1-780.9-72.2-971.7 17.4-84.7 39.7-143.5 104.2-176.7 204.5-190 573.9 152.1 3387.4 136.4 4257-16 896.8-327 3668.6-45.3 3995.9 366.7 425.9 1166.6 95.8 1260.7 768.7 1.1 7.7 1.9 15.6 2.9 23.2 178.2-77.3 484.1-180.3 810.7-157.2 184.2 13.2 402.3 55.8 605.8 104.9 41.6-588.2 1177.4-457.6 1345.4-898.4 163.8-429.4-178.1-3110.4-162-4090.7" style="fill:#47b173;fill-opacity:1;fill-rule:nonzero;stroke:none" transform="matrix(.01397 0 0 -.01397 -347.136 440.955)"/><path d="M30482 17914.3c-145.7 0-262.5 14.5-351.1 56.1l29.8 54c129.2 234.7 386.5 381.9 667 381.9h2306.4c271.6 0 522.2-138.3 655.2-361.8l32.7-54.9c-106.1-47.1-251.3-62.9-429.1-62.9-345.2 0-813.7 59.4-1359.4 64.7-25.4.2-50.7.3-75.7.3-324.6 0-609.5-19.3-855.2-38.7s-452.4-38.7-620.6-38.7" style="fill:#32825b;fill-opacity:1;fill-rule:nonzero;stroke:none" transform="matrix(.01397 0 0 -.01397 -347.136 440.955)"/><path d="M33642.2 22719.3c.7 1536.8 298.3 2801.5-68.3 3332.2-237.6 343.9-979.5 299.3-979.5 299.3s412.6-40.8 639.4-503.3c149.7-305.5-24.7-4765.8-80-6379.4-10.1-295.1-248.5-531.7-543.8-538.3-2.3-.1-4.6-.4-6.9-.2-295 27.3-474.6-31.7-574.6-87.6-43.2-24.1-28.8-89.5 20.5-92.6 408.2-25.9 1605.3-71.6 1620.6 7.9 202.9 1050-28.4 2034.3-27.4 3962M32078 26378s-1271.2 49.8-1661-299.3c-276.3-247.4-14.7-2215.4-13.5-3752.2 1.6-1927.7-264-3348.9-32.7-3498.5 161.6-104.5 761.3-108.9 784.4 95.2 23.1 204-534.5 6670.2-229 7037.6 384.5 462.5 1151.8 417.2 1151.8 417.2" style="fill:#87d5ab;fill-opacity:1;fill-rule:nonzero;stroke:none" transform="matrix(.01397 0 0 -.01397 -347.136 440.955)"/><path d="M33125.5 21412.8c-427.5 0-855.6 20-1284 19.5-207-.3-414 2.9-620.5-10-205.6-12.9-429.9-38.8-570.2 124.8-124.1 144.8-86.6 351.3-88.9 522.6-2.5 187.7-14.5 374.9-17.1 562.4-5.3 381.8-20.7 773.4 9.5 1154.3 14.6 183.7 9.5 364.3.4 548-9.8 195.4 9.6 397.2 240.1 485.6 172.7 66.3 411.2 23.3 596.7 21.7 215.2-1.9 430.5-10.2 645.6-9.7 222.7.5 443.3 24.7 666.4 17.4 182.3-5.9 428.9 14.5 594.4-51.4 236.7-94.3 232.1-293.5 228.6-492.2-3.1-177.6-3.2-355.1-1.4-532.7 4.3-424.8 13.2-854.6-6-1279-9.2-203.9-7.4-407.3-6.6-611.3 1-220-85.1-470-387-470" style="fill:#fff;fill-opacity:1;fill-rule:nonzero;stroke:none" transform="matrix(.01397 0 0 -.01397 -347.136 440.955)"/><path d="M31044.9 24831.8c-86.9 0-169.9-8-241.1-35.3-201.1-77.2-235-240-224-460.9 8.7-174 14.7-361.3-.4-551.2-24.8-311.5-18.8-634.1-13-946.2 1.3-68.8 2.6-137.5 3.6-205.8 1.3-92.8 4.9-187.3 8.5-278.6 3.6-92.9 7.3-189 8.6-283.8.4-33.9-.6-68.2-1.7-104.5-4.5-144-9-292.9 84.6-402 123.6-144.2 321.1-131.1 512-118.6l37.4 2.5c170.6 10.7 344 10.3 511.7 10.1 36.8-.1 73.6-.1 110.4-.1 218 .3 438.7-4.8 652.4-9.7 207.1-4.8 421.3-9.8 631.6-9.8 102.8 0 185.4 30.7 245.6 91.2 102.1 102.5 116.7 265.6 116.3 353.6l-.2 45.9c-.9 185.6-1.8 377.4 6.7 566.6 16.6 365 12.2 739.1 8 1100.9-.7 59-1.3 117.9-1.9 176.7-2 194.3-1.6 368.7 1.3 533.4l.1 2.5c3.5 194.6 6.7 378.5-212.9 465.9-122.2 48.7-295.5 48.6-448.4 48.3-48.5 0-94.4 0-137.5 1.4-126.2 4.1-254.2-2.1-378-8.1-94-4.5-191.2-9.2-287.4-9.4-124.5-.3-251.2 2.4-373.5 5.1-89.4 1.9-181.7 3.9-272.4 4.7-50 .4-102.5 3.7-158.1 7.2-62.8 4-126.6 8-188.3 8m-24.2-3444.3c-144.7 0-287.7 25.1-389 143.2-106.3 124-101.1 289.9-96.6 436.3 1 35.8 2.1 69.5 1.7 102.4-1.3 94.1-5 189.8-8.6 282.4-3.6 91.7-7.3 186.5-8.6 279.9-.9 68.3-2.2 136.8-3.5 205.6-5.8 313.2-11.8 637.1 13.1 951 14.9 187.1 8.9 372.4.3 544.8-9.9 200 12.7 416.9 256.3 510.4 132 50.7 293.9 40.4 450.5 30.6 55-3.5 106.8-6.8 155.4-7.2 91-.8 183.6-2.8 273-4.7 122.1-2.6 248.4-5.3 372.4-5.1 95.1.2 191.7 4.9 285.1 9.4 124.8 6 253.8 12.3 382.1 8.1 42.2-1.4 87.6-1.3 135.7-1.3 157.5.1 335.9.3 467.2-51.9 251.9-100.3 248.1-310.5 244.5-513.7v-2.4c-2.9-164.2-3.4-338.2-1.4-532 .6-58.8 1.3-117.6 2-176.6 4.2-362.5 8.5-737.4-8.1-1103.8-8.5-187.9-7.6-379.1-6.7-564l.2-46c.4-95.8-16-273.9-130.9-389.3-70-70.3-164.7-106-281.3-106-210.9 0-425.3 5-632.7 9.8-213.5 4.9-434.4 9.8-651.3 9.7-36.9 0-73.6 0-110.4.1-166.9.2-339.5.5-508.6-10.1l-37.1-2.4c-53.7-3.5-109.3-7.2-164.7-7.2" style="fill:#231f20;fill-opacity:1;fill-rule:nonzero;stroke:none" transform="matrix(.01397 0 0 -.01397 -347.136 440.955)"/><path d="M31000.3 23780.2c-4.9 20.9-8.3 33.1-10 36.6h-.7c-1.8 0-4.5-3.6-8-10.8-3.6-7.3-5.4-12.6-5.4-16.1q0-.75-20.7-55.2c-12.4-32.9-24.8-67.7-37-104.5-12.2-36.9-18.4-57.3-18.4-61.3 0-4.4 4.5-5.7 13.4-3.7 4.4 1 27.6 3 69.4 6 39.2 3 58.8 5.2 58.8 6.7 0 5-3.2 19.2-9.4 42.6-4.9 18.9-10.8 47.2-17.7 85.1-6.9 37.8-11.7 62.7-14.3 74.6m-32.1 138.9c6.3 5.4 14 8.2 23.4 8.2 9.3 0 17.6-4.5 24.7-13.5 17.4-20.4 34.5-79.1 51.4-176.1 4-22.4 18.7-87.4 44-194.9 13.8-57.7 23-95.6 27.4-113.5 11.6-45.2 17.4-70.9 17.4-76.8 0-8.5-2.8-15.7-8.4-21.7-5.5-6-12.1-9-19.7-9-3.1 0-6.4.8-10 2.3-6.7 3-12.3 10.6-17 22.7-4.7 12.3-12.3 39.7-23 82.5l-20.7 80.7c-1.8 1.9-10 3-24.7 3-25 0-56.3-1.9-94.2-5.7-37.8-3.7-58.2-7.3-61.3-10.8-6.7-7.4-19.2-45.3-37.4-113.4-7.2-24.9-13.3-41.6-18.4-50.1-5.1-8.4-11.9-12.7-20.4-12.7-14.6 0-22 10.3-22 30.6 0 13.5 13.5 65.9 40.4 157.2s51.1 165.6 72.4 222.8c16.9 46.8 29.4 82.2 37.4 106.1 16 46.2 28.9 73.6 38.7 82.1M31411.4 23691.4c-9.7 5.4-18.6 8.2-26.6 8.2q-8.7 0-17.4-3c-9.8-3.5-22.5-13.1-38.1-28.7-15.5-15.7-28.2-32-38-48.9-6.3-10-9.9-18-11-23.9-1.1-6-2.3-22.7-3.7-50.1-.9-23.8-1.3-36.5-1.3-38 0-11 2-18.2 6-21.7q10.65-9.6 24-29.1c9.8-12.9 22.7-26.6 38.7-41 16.1-14.5 28.5-23.4 37.4-26.9q7.35-3 17.4-3c17.8 0 32 5.5 42.7 16.4 9.8 10.5 17.7 28 23.7 52.6 6 24.7 9 50.7 9 78.1 0 17.4-1.3 33.6-4 48.5-5.8 32.8-13.1 57.3-22 73.5s-21.2 28.5-36.8 37m-153.5 251.6c13.8 0 22.5-9.7 26.1-29.2.8-5.9 1.3-23.6 1.3-53 0-24.3-.3-43.3-.7-56.7q-.6-20.1-.6-53.7c0-27.9.4-41.9 1.3-41.9 1.8 0 8.6 5.8 20.6 17.2 24 21.9 47.7 33.9 71.3 35.9h7.9c20 0 39.7-5.8 59-17.2 19.3-11.5 34.9-26.6 46.9-45.6 11.5-17.9 21.3-43.8 29.3-77.6s12-65.7 12-95.6c0-8.4-.3-14.6-.7-18.6-2.7-31.9-8.4-61.4-17.3-88.5s-19.3-47.6-31.3-61.6c-20.4-22.9-47.7-34.3-81.9-34.3h-12c-13.3 0-27.7 4.5-43.3 13.4-17.3 11-33 23.4-47.2 37.3-16 15.5-25.1 23.2-27.3 23.2-1.8 0-2.7-7.5-2.7-22.4 0-28.4-4.7-45.3-14-50.8-4.5-2.5-9.4-3.7-14.7-3.7-8.5 0-15.1 2.5-20 7.5-3.6 2.5-5.8 5.6-6.7 9.3s-1.3 11.3-1.3 22.8v18.6c.9 25.9 3.7 95.6 8.6 209.1 4.9 113.4 7.8 186.6 8.7 219.4q1.35 82.95 3.3 102.3c1.4 13 4.3 21.9 8.7 26.9 4.5 5 10.1 7.5 16.7 7.5M31663.1 23795.1c14.2 3.5 28.7 5.3 43.4 5.3s29.1-1.8 43.4-5.3c39.1-12.4 71-39.8 95.4-82.1 9.8-17.4 14.7-32.1 14.7-44 0-6-1.3-11.7-4-17.2-4-6.5-8.7-9.7-14-9.7-.4 0-1.3.1-2.7.4-1.3.2-2.4.4-3.3.4-6.7.4-11.5 2.2-14.4 5.2s-8.5 11.4-17 25.4c-10.3 18.9-20.5 32.6-30.8 41-17.9 14.5-40.3 21.7-67 21.7-14.8 0-28.4-3-41-9-13.8-6.5-20.7-23.6-20.7-51.5 0-12.9 3.5-23.2 10.7-30.6 8.4-10 34.2-26.4 77.4-49.3q50.1-26.1 76.8-53.7t44.7-70.2c7.1-18.4 10.7-37.6 10.7-57.5 0-21.4-3.1-39.6-9.4-54.5-17.7-41.3-52.4-66.2-103.9-74.6-8.8-1.5-17.3-2.3-25.2-2.3-31.6 0-58.7 10-81.3 29.9s-38.8 47.8-48.6 83.6c-4.4 16.9-6.7 30.1-6.7 39.6 0 23.9 9.3 35.8 27.7 35.8 16.3 0 25.8-10.2 28.4-30.6 5.8-40.3 20.6-68 44.3-82.9 7.1-4.5 19.6-6.7 37.5-6.7 15.6 0 28.1 1.7 37.5 5.2 12.5 4.5 22.4 10.5 29.5 17.9 5.8 6 9.3 10.6 10.4 13.9 1.1 3.2 1.7 10.5 1.7 22 0 14.9-2.1 27.8-6.4 38.8-4.2 10.9-12.3 23.4-24.3 37.3-12.9 15-37.6 32.4-74.1 52.3-46.7 25.9-77.7 47.8-92.8 65.7s-22.7 41.3-22.7 70.2c0 65.6 25.4 105.7 76.1 120.1M31927.4 23670.5c4 4.5 10.5 6.7 19.4 6.7 8.4 0 14.9-4 19.4-11.9 4-8 6.7-23.5 8.3-46.3 1.6-22.9 3-73 4.3-150.1l2-122.4-8.6-9.7c-5.4-6-11.8-9-19.4-9-6.7 0-12.8 2.6-18.4 7.8-5.5 5.3-9 12.4-10.3 21.3-1.3 8-2 61.5-2 160.5v66.5c0 53.2 1.8 82.1 5.3 86.6m-4 61.9c-1.3 4.5-2 8.7-2 12.7 0 7.5 2.1 13.5 6.4 17.9 4.2 4.5 10.3 6.8 18.3 6.8 7.6 0 13.6-2.3 18.1-6.8 4.4-4.4 6.6-10.2 6.6-17.1 0-5-.9-9.5-2.6-13.5-4-10.9-11.6-16.4-22.7-16.4-10.7 0-18.1 5.5-22.1 16.4M32038.3 23766c3.9 5 10.4 7.5 19.3 7.5 6.2 0 11.4-1.5 15.3-4.5 7.6-5.6 11.6-31 12.1-76.1v-9c0-20.9 1.7-31.4 5.3-31.4 1.4 0 3.8 2.3 7.4 6.8 6.2 7.9 21.1 21.3 44.7 39.9 23.6 18.7 41.1 31.5 52.7 38.5 21.8 12.4 43.8 18.6 66.1 18.6 20 0 38.7-4.8 56.1-14.3 21.3-11.1 37.6-27.3 48.7-48.6s19.1-52 24-92.4c4.9-40.3 8-97.8 9.4-172.4.4-13.4.6-29.4.6-47.8 0-22.9-2.4-37.1-7.3-42.5-4.9-5.5-11.8-8.3-20.7-8.3-7.6 0-13.6 2.3-18 6.8-4.9 4.9-8 13.9-9.4 26.8-1.3 13-2.9 49.6-4.6 109.8-1.8 51.7-3.6 87.2-5.4 106.4-1.8 19.1-5.3 39.2-10.7 60.1q-5.25 20.1-15 30.6c-6.4 6.9-16.1 12.4-29 16.4-8.9 2.5-16.5 3.7-22.7 3.7-19.1 0-43.9-11.4-74.1-34.3-32.9-25.4-59.4-53-79.4-82.9l-11.4-17.9v-103c0-47.3-.3-76.9-1-88.9-.7-11.9-2.8-21.4-6.3-28.3-4.5-11-10.9-16.5-19.4-16.5-3.6 0-6.7.3-9.3.8-5.4 1-10 3.7-14.1 8.2-3.5 4-5.7 21.7-6.6 53-.9 31.4-2 141.3-3.4 330v20.1c0 19 2 30.7 6.1 35.1M32532.2 23921.3c5.3 6.5 11.1 9.7 17.4 9.7 6.2 0 12.2-3.2 18-9.7l8.7-9.7-4-188.1 7.3-1.5c5.8-1 22.2-2 49.4-3 28.5-1 45-3.7 49.4-8.2 4.9-5.5 7.3-12.5 7.3-20.9 0-9-2.9-16.7-8.6-23.2-5.4-5.9-16.5-8.9-33.4-8.9-1.8 0-5.7.1-11.7.4q-9 .3-15 .3l-52.1 1.5-2-28.4c-1.8-21-2.6-55.9-2.6-104.8s2.6-84.1 8-105.5c4.9-21.5 11.1-36.4 18.6-44.9 5.8-6.5 10.6-10.4 14.4-11.6 3.8-1.3 12.8-1.9 27-1.9 16.1 0 27.2-1.5 33.4-4.4 6.2-3 10.2-9.1 12-18.5.5-2 .7-4.4.7-7.4 0-21.1-17.1-32.9-51.4-35.4-1.3 0-3.2-.1-5.7-.4-2.4-.2-4.1-.3-5-.3-8.9 0-20 3.2-33.4 9.7-30.2 15.9-50.7 41.3-61.4 76.1-9.8 34.3-14.6 76.4-14.6 126.2q0 32.85.6 53.7l2 102.3-18-.8c-21.8 0-32.7 9.3-32.7 27.7 0 17.4 12 27.8 36 31.3q14.7 2.25 17.7 4.5c2 1.5 3.7 5.5 5 12 1.8 9.4 3.9 32.4 6.4 69q3.6 54.9 3.6 78c0 16.5 2.9 28.1 8.7 35.1M32755.2 23935.5c4.9 5 10.4 7.5 16.6 7.5 6.3 0 11.6-3 16.1-9q6.6-9 8.7-24.6c1.7-10 3.5-47.8 5.3-113.5l2.7-94.8 16 15.7c12.4 11.9 26.8 21.7 43 29.4 16.3 7.8 39.2 11.7 68.8 12 29.6.2 55.1-11.1 76.4-34 23.6-25.9 35.8-65.2 36.7-117.9v-9.7c0-26.9-.8-68.2-2.3-124-1.6-55.7-3-89.8-4.3-102.2-.9-12-4.2-21.6-9.7-28.8-5.6-7.2-11.9-10.8-19-10.8-7.2 0-13.6 3.2-19.4 9.7-4 4.5-6.5 9.6-7.3 15.3-.9 5.7-1.4 20.3-1.4 43.7 0 26.8 1.4 69.2 4 126.9 1.4 22.4 2 42.3 2 59.7 0 41.8-4.4 69.9-13.3 84.4-8.9 14.4-25.6 21.9-50.1 22.4h-2.7c-20.4 0-37.9-4.4-52.4-13.1-14.4-8.7-28.8-23.8-43-45.2-13.8-20.9-21.8-38.2-24.1-51.8-2.2-13.7-3.5-52.9-4-117.6l-.6-114.3-8-10.4q-9.45-10.5-20.7-10.5c-8.5 0-15.6 4-21.4 12l-7.3 10.5 3.3 180.6c.5 38.8 1 93.8 1.7 165 .6 71.2 1 112.2 1 123.2v107.5zM33325.2 23607.8c.7 41.8-15.3 106.8-81.4 106.8-59.4 0-85.5-61.3-90.1-106.8zm-172.2-47c1.3-88.9 52.1-125.5 110.8-125.5 42.1 0 67.4 8.2 89.5 18.7l10-47.1c-20.7-10.4-56.1-22.4-107.5-22.4-99.5 0-158.9 73.2-158.9 182.2s57.4 194.9 151.6 194.9c105.4 0 133.5-103.8 133.5-170.2 0-13.5-1.4-23.9-2-30.6z" style="fill:#100f0d;fill-opacity:1;fill-rule:nonzero;stroke:none" transform="matrix(.01397 0 0 -.01397 -347.136 440.955)"/><path d="M32121.5 24426.2c0-36.8-66.6-189.5-66.6-189.5s-66.5 152.7-66.5 189.5c0 36.7 29.8 66.5 66.5 66.5 36.8 0 66.6-29.8 66.6-66.5M32086.1 24612.9c0-17.2-14-31.2-31.2-31.2s-31.1 14-31.1 31.2 13.9 31.2 31.1 31.2 31.2-14 31.2-31.2M32054.9 24083.2c0 16 1.6 31.9 3.8 47.9q3.45 23.85 10.5 47.4c4.7 15.7 10.9 31.1 19.2 45.9 8.3 14.7 18.2 29.2 31.2 42 12.8 12.8 28.9 23.6 46.9 29.5 9 2.9 18.3 4.8 27.5 5.6 9.3.8 18.4.5 27.8-.5 18.6-2.1 37.8-8.1 54.2-19.4 16.5-11.1 29.2-27.2 36.8-44.5 7.6-17.4 10.5-35.7 10.2-53.4-.4-17.6-3.7-34.8-9.9-50.8s-14.8-31-26.5-43.4c-11.5-12.4-26.3-22.1-42.7-26.5-8.1-2.2-16.8-3-24.9-2.9-8.2 0-16.4.7-24.6 2.4-16.1 3.1-32.8 10.5-44.2 24.9-11.5 14.3-26.1 59.6-8.6 86.3 11.2 17.2 23.3 21.4 41.5 22.3 16 .7 35.7-9.3 35.7-28.8 0-47.6-46-28.6-54.1-35.4-9.5-8.1-9.4-24.4-3-36.7 6.2-12.5 19.8-21 34.6-24.1 7.3-1.6 15-2.2 22.7-2.2 7.8 0 15.1 1.1 22.2 3.2 7.1 2.3 13.7 5.9 19.7 10.2 5.9 4.6 11.1 9.9 15.5 15.9 8.8 11.9 14.5 26 17.3 40.5 5.7 28.8.5 59.5-13.8 81.3-14.2 22.1-36.5 32.8-62.5 34.4-6.5.4-13.3.3-19.9-.1-6.5-.4-13-1-19.4-2.1-12.8-2.1-25.6-5.8-37.9-12.5-12.3-6.6-23.6-16.2-33-27.8s-17.5-24.8-24.4-38.6c-13.6-27.9-23-58.6-27.9-90M32141.4 24308.7c5.4 13.7 11.4 27.2 17.7 40.6 6.4 13.4 13.3 26.6 20.8 39.6s15.6 25.8 25.2 38.1c5.2 6.6 10.6 13.2 16.9 19.5 8.6 8.6 23 6.6 28.8-4.1 4.4-8.4 1.5-18.8-6.6-23.8-5.8-3.6-11.7-8-17.3-12.6-10.7-8.6-21-18.6-30.8-29.1s-19.3-21.6-28.4-33-18-23.1-26.3-35.2M32309.3 24074.3c43.3 22.3 83.6 49.7 119.6 80.8 17.8 15.7 34.6 32.3 49.1 50.2 14.6 17.9 27.2 36.8 36.4 56.6 4.8 9.7 8.3 19.8 11.4 29.8 2.9 9.8 4.4 20.9 6.3 31.4 2.6 21.3 3 42.1-.2 61.9-3.3 19.8-9.7 38.4-18.8 55.2-2.4 4.1-4.8 8.3-7.4 12.2-2.7 3.8-5.2 7.8-8.2 11.3-2.8 3.7-5.9 7-8.9 10.2-1.5 1.4-48.8 49.1-13.4 84.6 43 43 87.9-4.4 97.8-21.3 4-6.8 8.1-13.3 11.5-20.1 3.6-6.6 6.5-13.6 9.5-20.4 2.8-7 5.2-14 7.6-21.1 8.8-28.3 12.7-57.8 11.9-86.5-.9-28.8-6.8-56.5-15.3-82.5-4.9-12.7-9.2-25.3-15.7-37.9-6.4-12.4-13.4-24.2-21.5-35-15.8-22-34.4-40.7-54.1-57.2-19.6-16.7-40.7-30.8-62.2-43.6-43.2-25.1-88.6-44.7-135.4-58.6" style="fill:#316039;fill-opacity:1;fill-rule:nonzero;stroke:none" transform="matrix(.01397 0 0 -.01397 -347.136 440.955)"/><path d="M32375.3 24171.4c10.1 17.5 18.9 35.6 25.1 54.3 6.2 18.6 9.8 37.8 8.9 56.4-.7 18.5-5.5 36.2-13.7 52.1-4.9 9.7-11 18.8-17.9 27.4-7.4 9.1-5.7 22.5 3.4 29.9 10.5 8.5 26.2 5.3 32.5-6.7 6.3-12.2 11.6-24.9 15.3-38.2 6.1-21.6 7.6-44.6 4.1-66.2-3.4-21.6-11.6-41.5-21.7-59.5-10.3-18.1-22.7-34.3-36-49.5M32054.9 24083.2c0 16-1.6 31.9-3.8 47.8-2.3 16-5.8 31.8-10.4 47.5-4.8 15.7-11 31.1-19.3 45.9-8.3 14.7-18.2 29.2-31.1 42-12.9 12.7-29 23.6-47 29.4-9 3-18.3 4.9-27.5 5.6-9.3.9-18.4.6-27.8-.5-18.5-2-37.8-8-54.2-19.3-16.5-11.1-29.2-27.3-36.8-44.5-7.6-17.4-10.5-35.7-10.2-53.4.4-17.7 3.7-34.9 9.9-50.9 6.2-15.9 14.9-30.9 26.5-43.3 11.5-12.5 26.4-22.1 42.7-26.5 8.1-2.2 16.8-3 24.9-2.9 8.2 0 16.4.7 24.6 2.3 16.1 3.2 32.8 10.6 44.3 25 11.4 14.3 26 59.6 8.5 86.3-11.2 17.2-23.3 21.4-41.5 22.3-16 .7-35.6-9.3-35.6-28.9 0-47.5 46-28.6 54-35.4 9.5-8 9.4-24.4 3-36.6-6.2-12.5-19.8-21-34.5-24.1-7.4-1.7-15.1-2.2-22.8-2.2-7.8 0-15.1 1-22.2 3.2-7.1 2.3-13.7 5.8-19.7 10.2-5.8 4.5-11.1 9.9-15.5 15.8-8.7 12-14.5 26.1-17.2 40.6-5.8 28.8-.6 59.5 13.7 81.3 14.2 22 36.6 32.8 62.5 34.3 6.5.4 13.3.4 19.9 0s13-1 19.4-2.2c12.8-2 25.6-5.8 37.9-12.4s23.6-16.3 33-27.8c9.5-11.7 17.5-24.8 24.4-38.7 13.7-27.8 23-58.5 27.9-89.9M31968.4 24308.7c-5.4 13.7-11.4 27.2-17.7 40.6-6.4 13.3-13.2 26.5-20.8 39.5-7.5 13-15.6 25.8-25.2 38.2-5.2 6.6-10.6 13.2-16.9 19.5-8.6 8.6-23 6.6-28.7-4.1-4.5-8.5-1.6-18.8 6.5-23.8 5.8-3.7 11.7-8 17.3-12.6 10.8-8.6 21-18.6 30.8-29.2 9.9-10.4 19.3-21.5 28.4-32.9s18-23.1 26.3-35.2M31800.6 24074.3c-43.4 22.3-83.7 49.6-119.7 80.8-17.7 15.7-34.6 32.3-49.1 50.2-14.6 17.8-27.2 36.8-36.4 56.5-4.8 9.8-8.3 19.9-11.3 29.9-2.9 9.8-4.5 20.9-6.4 31.4-2.6 21.2-3 42.1.2 61.9 3.4 19.8 9.8 38.4 18.8 55.2 2.4 4.1 4.8 8.2 7.4 12.2 2.7 3.8 5.3 7.8 8.3 11.3 2.7 3.7 5.9 7 8.8 10.1 1.6 1.5 48.8 49.2 13.4 84.7-42.9 43-87.9-4.4-97.8-21.4-4-6.7-8.1-13.2-11.5-20-3.6-6.7-6.5-13.6-9.5-20.5-2.7-6.9-5.2-14-7.5-21-8.9-28.4-12.7-57.8-12-86.5.9-28.8 6.9-56.5 15.3-82.5 4.9-12.8 9.2-25.3 15.7-38 6.4-12.3 13.5-24.1 21.5-35 15.9-21.9 34.4-40.6 54.1-57.2 19.6-16.6 40.7-30.7 62.2-43.5 43.2-25.1 88.7-44.7 135.5-58.6" style="fill:#316039;fill-opacity:1;fill-rule:nonzero;stroke:none" transform="matrix(.01397 0 0 -.01397 -347.136 440.955)"/><path d="M31734.6 24171.4c-10.2 17.5-19 35.6-25.2 54.3-6.2 18.6-9.7 37.8-8.9 56.4.7 18.5 5.5 36.2 13.7 52 4.9 9.8 11 18.9 17.9 27.4 7.4 9.2 5.8 22.6-3.4 30-10.5 8.5-26.2 5.2-32.5-6.8-6.3-12.1-11.6-24.8-15.3-38.1-6.1-21.6-7.6-44.6-4.1-66.2 3.4-21.6 11.6-41.6 21.8-59.6s22.6-34.2 36-49.4M32070.9 22480c0-19.9-16.1-36-36-36s-36 16.1-36 36 36 520.4 36 520.4 36-500.5 36-520.4M32090.1 22042.2c0-30.5-24.7-55.2-55.2-55.2s-55.2 24.7-55.2 55.2 55.2 117.1 55.2 117.1 55.2-86.6 55.2-117.1M32069.7 21860.9c0-19.2-15.6-34.8-34.8-34.8s-34.8 15.6-34.8 34.8 15.6 34.8 34.8 34.8 34.8-15.6 34.8-34.8M32089.9 22848.5q11.55 21 24 41.4l.6.6c12.6 15.5 27.4 29.8 45.9 40.5 18.4 10.5 40.8 16.7 63.9 13.7 11.6-1.4 22.8-5.3 32.8-10.6 10.1-5.3 19.1-11.8 27.2-19 16-14.4 28.9-30.6 40.8-47 23.2-33.1 42.4-67.2 62.8-99.5 20.3-32.2 42-63.1 67.6-87.3 12.7-12.1 26.4-22.2 40.4-30.1 7.1-3.8 14.2-7.3 21.5-10s14.8-4.7 22.5-6.2c7.6-1.5 15.5-2.5 23.5-2.8 8.1-.4 16.3-.2 24.6.5 16.4 1.6 32.9 5.5 49 11.6 32.5 12.1 63.3 32.6 91.8 57s54.9 52.7 79.3 83.6c-2.9-9.5-6.5-18.7-10.5-27.8-3.9-9.2-8.2-18.1-13-26.9-9.3-17.7-20.3-34.5-32.5-50.8-24.5-32.2-55.1-61.5-93.4-82.1-19.1-10.1-40.1-18-62.1-22.2-11-2.2-22.2-3.4-33.5-3.7-11.4-.2-22.9.6-34.4 2.6-22.9 3.9-45.1 12.9-64.2 25.2-19.3 12.2-35.4 27.6-49.4 43.6-14.1 16.1-26 33.1-37 50.2-11.1 17.2-21 34.5-30.6 51.8-19 34.6-36.1 69.4-55.7 101.2-9.6 15.9-20 31.1-32 43.6-11.8 12.7-25.2 22.5-40.5 26-7.5 1.9-16 2.2-24.2 1.4-8.4-.7-16.7-3-25-6.2-16.5-6.4-32.3-16.9-47.2-28.7l.5.6c-10.9-11.6-22-23.1-33.5-34.2M32633.2 22256.7c7.5-18.7 13.6-38 17-57.3 3.4-19.4 4.2-38.9.7-57.1-3.4-18.3-10.8-35-21.1-49.6-6.3-8.9-13.7-17-21.8-24.5-8.6-8-8.9-21.5-.9-30.1 9.2-9.9 25.2-9 33.1 2 8 11 15.1 22.9 20.7 35.5 9.2 20.5 13.9 43 13.6 64.9-.2 21.9-5.4 42.8-12.9 62.1s-17.4 37.2-28.4 54.1" style="fill:#316039;fill-opacity:1;fill-rule:nonzero;stroke:none" transform="matrix(.01397 0 0 -.01397 -347.136 440.955)"/><path d="M32345.4 22962.9c29.7 10 59.9 19.2 91.9 24.4 16 2.6 32.6 4.1 49.7 3.7 17-.4 34.7-3 52.1-8.7 17.3-5.6 34.3-14.3 49.3-25.4 15.1-11 28.3-24.1 39.9-38.1 11.2-13.3 20.8-27.3 29.5-41.6 14.4-24 3-55.2-23.6-63.9-23.6-7.6-48.5 6-55.3 29.8-3.5 12.2-7.6 23.9-12.6 34.9-10.9 24.2-25.8 44.8-47.7 59.2-21.7 14.8-50.5 22.3-80.5 25.4-30.1 3.1-61.5 2.2-92.7.3M32554.4 22341.7c0-32.6-26.4-59.1-59-59.1-32.7 0-59.1 26.5-59.1 59.1s26.4 59.1 59.1 59.1c32.6 0 59-26.5 59-59.1M32724.9 23104.2c0-13.2-10.7-23.8-23.8-23.8-13.2 0-23.9 10.6-23.9 23.8s10.7 23.8 23.9 23.8c13.1 0 23.8-10.6 23.8-23.8M33128.4 22523c0-13.2-10.7-23.9-23.9-23.9-13.1 0-23.8 10.7-23.8 23.9 0 13.1 10.7 23.8 23.8 23.8 13.2 0 23.9-10.7 23.9-23.8M30899.2 22594.3c0-30.1-24.4-54.5-54.6-54.5-30.1 0-54.5 24.4-54.5 54.5 0 30.2 24.4 54.6 54.5 54.6 30.2 0 54.6-24.4 54.6-54.6M33278.4 22594.3c0-30.1-24.5-54.5-54.6-54.5s-54.6 24.4-54.6 54.5c0 30.2 24.5 54.6 54.6 54.6s54.6-24.4 54.6-54.6M32647.2 23068.5c5.6-22.7-8.2-45.6-30.9-51.2-22.6-5.7-99.3 18.6-99.3 18.6s56.3 57.8 78.9 63.4c22.7 5.7 45.7-8.1 51.3-30.8M33050.1 22540c-5-22.5-36.7-34.5-70.6-26.9-34 7.6-124.8 70.4-124.8 70.4s109 18.6 143 11 57.5-32 52.4-54.5M32414.8 22879.6c17.7-9.8 34.8-21 51.3-33.2s32.4-25.5 47.6-40c15.3-14.5 29.4-30.6 42.6-48 5.2-6.8 10.1-14 14.7-21.4 11.2-18 2.3-41.6-18-47.5-17.3-5-35.3 5.2-39.7 22.6-1.6 6.6-3.6 13.1-5.9 19.7-6.2 17.4-13.7 35-23.1 51.9-9.3 16.9-19.7 33.5-31.4 49.6-11.6 16-24.2 31.7-38.1 46.3M32034.9 22337.4c10.5-20.3 29-33.1 48.3-40 19.5-7 40.5-8.5 61.3-7.5l7.8.6c2.5.3 5 .5 7.4.9 4.9.7 9.8 1.6 14.6 2.8 9.5 2.5 18.8 5.8 27.5 10.1 8.6 4.2 16.7 9.3 23.9 15.2s13.5 12.6 18.8 19.8c10.5 14.5 16.8 31.5 19.1 49.8 1.1 9.1 1.2 18.6.7 28.2-.8 9.6-2.1 19.4-4.1 29.2-1.1 4.9-2.1 9.8-3.4 14.7l-2 7.4-1 3.6-1 3.1c-2.7 8.4-6.7 16.7-11.5 25.1-9.7 16.8-23.2 33.4-37.2 50.5-28.1 33.8-59.9 69.5-79.7 112.4-4.9 10.8-8.9 21.8-12.1 33.1-2.9 11.4-4.9 22.9-5.9 34.5-1 11.5-1 23.5.8 35.1.8 5.9 2.2 11.7 3.9 17.4 1.8 5.7 3.9 11.3 6.6 16.6 5.4 10.8 12.6 20.8 21.8 29s20.3 14.6 32.3 18.1c12.1 3.4 24.9 4.2 37 2.3 2.9-.4 6.8-1.2 9.7-2.3 3.1-1 6-2.2 8.8-3.7q8.4-4.35 15.3-10.8c9.1-8.5 15.6-19.8 18.2-31.4 2.7-11.7 2-23.3 0-34.4-1-5.7-3.1-11.3-6.8-16.1-3.7-4.7-8.7-8.5-14.3-11.2s-11.6-4.6-18.2-5.8c-3.3-.5-6.6-.8-10.4-.9-14.7-.7-21.7 12-14.5 21 6.6 8.4 18.1 6 23.7-1.6 1.8-2.4 4.2-4.8 7.3-5 21.4-1.7 29.9 14.7 30.9 20 2.2 10.8 1.2 22.4-3.7 31.9-4.8 9.5-12.7 16.6-21.4 21.5-4.3 2.6-8.9 4.7-13.5 6.5-2.4.8-4.7 1.6-6.9 2.3-2.4.6-4 1-6.7 1.2-10 1.3-20 .9-29.6-1.4-19.2-4.6-36.6-17.5-47.1-35.5-10.6-18.1-13.8-40.1-10.1-61.3 1.8-10.6 4.3-21.1 8.1-31.1s8.6-19.6 14.3-28.6c11.3-18.2 25.9-34.1 41.7-49 15.8-15 33-28.8 50.2-43.9 17.2-15 34.5-31.3 49.4-52 7.4-10.3 14-21.8 18.9-34.6l1.9-4.8c.6-1.5 1-2.9 1.4-4.4l2.7-8.7c1.7-5.9 3.2-11.9 4.5-17.9 2.4-12.1 4.4-24.6 4.8-37.3.5-12.8-.1-25.8-2.2-38.8-4.3-25.9-15.4-51.9-33.1-72.2-8.8-10.3-18.9-19.1-29.9-26.3-10.9-7.2-22.6-13-34.8-17.1-12-4.1-24.5-6.9-37-8.1-6.2-.7-12.5-.9-18.8-.9-3.1 0-6.3.2-9.3.4l-9 .9c-23.8 2.7-47.9 9.4-68.5 22.7-10.3 6.6-19.4 15.1-26.4 24.7-3.5 4.8-6.5 10-8.8 15.4-2.3 5.3-4.1 10.9-4.7 16.6" style="fill:#316039;fill-opacity:1;fill-rule:nonzero;stroke:none" transform="matrix(.01397 0 0 -.01397 -347.136 440.955)"/><path d="M32109.9 22584.5c22-19.4 40.6-42.2 56.4-67.3 7.7-12.6 14.8-25.9 20.5-40.1 5.6-14.3 10.1-29.5 11.4-46.2.5-8.4.4-17.2-1.5-26.2-1.8-9-5.4-18.2-10.8-26.4-5.1-7.1-10.7-13.8-17.8-19.4-6.9-5.8-15.1-10.3-23.6-13.3-17.4-5.9-35.6-4.7-50.7.7-7.7 2.6-14.7 6.2-21.2 10.6-6.4 4.3-12.2 9.4-17 15.4 15-2.4 29-3.7 42-3.2 12.9.5 24.4 3.4 33.6 8.6 9.1 5 16.7 12.6 23.1 21.9 5 7.3 7.3 17.7 7.1 29.5-.1 11.8-2.5 24.7-5.8 37.6-3.4 12.9-7.8 25.9-12.7 38.9-9.8 26.1-21.3 52.1-33 78.9M32034.9 22222.1c4.9-10 11.4-18.9 18.8-26.7s15.8-14.5 24.9-19.8c18.3-10.4 38.8-15.8 59.6-16.3 20.6-.5 41.8 2.7 61.7 8.3 19.9 5.8 38.4 14.3 53.8 26.4 15.6 12 28.1 27.3 38 44.8s17.5 36.8 24.1 57.1c13.4 40.4 22 84.4 43.5 127.8 10.8 21.3 26 42.9 47.2 58.3 10.5 7.7 22.1 13.8 34.1 18.3 12.1 4.4 24.4 7 36.6 8.4 12.5 1.5 25.4 1.6 38.3-.4 12.8-2 25.4-6.2 37-12.2 23.4-12.1 41.1-32.1 52.7-53.7 11.6-21.9 17.6-45.8 18.9-69.6 1.2-23.8-2.2-47.8-11-69.9-9-21.9-23.5-42.1-43.2-55.1-9.9-6.4-20.6-11.1-31.7-13.9s-22.5-3.7-33.6-3.2v1.4c21.8 3 42.4 11.4 57.8 25.4 15.6 13.8 25.9 32.4 31.1 52.1 10.6 39.4 3.9 83.4-16.6 116.5-10.3 16.5-24.4 29.7-40.7 37.2-16.4 7.5-35 9.3-53.7 6.3-19.3-3.1-37-9.6-51.2-20.7-14.3-11-25.6-26.3-34.5-44.2-9-17.9-16-37.8-22.5-58.5-6.7-20.6-12.9-42-20.8-63.4s-17.1-43.1-30.2-63.3c-12.8-20.3-30.1-38.7-50.6-52.2-20.5-13.6-43.7-21.9-66.8-25.9-11.6-2.2-23-3.3-34.7-3.6-11.6-.4-23.3 0-34.9 1.8-23.1 3.6-45.9 12.2-64 26.9-18.1 14.5-31.6 34.1-37.4 55.6M32646.4 22513.3c14.9 18.9 43 20.3 59.6 3 4.6-4.8 8.4-8.7 10.1-10.7 12.6-14.6 24.7-29.5 35.8-45 22.7-30.8 42.5-63.4 59.6-97.3 17-33.9 31.2-69.1 42.2-105.2 11.1-36.1 18.4-73.2 22.7-110.4 2.5-18.6 3-37.3 4-55.9l-.2-28v-6.9l-.4-7-.9-13.9c-.7-18.5-3.7-36.9-5.9-55.2-1.5-9.1-3.3-18.2-5-27.2l-2.5-13.6-3.3-13.4c-17.2-71.5-44.8-139.5-79.5-203 28.5 66.5 49.1 136.2 59.1 206.9l1.9 13.2 1.2 13.3c.7 8.8 1.7 17.7 2.3 26.5.3 17.8 1.6 35.4.5 53.1l-.4 13.2-.2 6.6-.6 6.6-2.5 26.3c-2.5 17.4-4.7 34.8-8.7 51.8-7.3 34.2-17.3 67.6-30.6 99.7-13.3 32-29.3 62.8-47.6 91.9-18.4 29.2-39.1 56.8-61.9 82.3-11.3 12.9-23.3 25.1-35.5 36.8-1.5 1.4-4.5 4-8 7-16.1 13.9-18.4 37.9-5.3 54.5" style="fill:#316039;fill-opacity:1;fill-rule:nonzero;stroke:none" transform="matrix(.01397 0 0 -.01397 -347.136 440.955)"/><path d="M32399.5 21987c2.6-2.8 6.4-4 10-5.3 3.6-1.2 7.3-2.2 11-2.9 7.5-1.5 15-2.2 22.5-2 14.8.3 29.3 4.1 40.1 12.2 5.4 4.1 9.8 9.2 13.3 14.8 3.7 6.1 7 12.6 9.7 19.1 5.4 13.1 8.1 26.8 7.2 39.8-.9 12.9-5.4 24.9-13.1 34.6-3.8 4.8-8.2 9.3-13.3 13.1-2.7 2-4.8 3.3-7.5 4.8-2.7 1.3-5.4 2.7-8.4 3.7-11.9 4.5-25.2 6.6-37.7 6.2-12.7-.4-24.7-3.5-35.1-9.1-21.1-11-35.8-32.3-45-57.5-9.5-25.2-12.5-51.9-8.8-77.6 3.5-25.7 14.1-50.1 29.4-71.1 15.5-20.9 36-38.1 59.1-50.6 3-1.5 5.9-3 8.9-4.5 3.2-1.4 6.2-2.9 9.4-4.2 6.3-2.6 12.7-5 19.2-7.1 12.8-4.2 25.9-7.4 39.1-9.1 26.3-3.8 52.6-1.4 77.3 5.9 12.4 3.8 24.4 9.1 35.8 15.6 11.5 6.3 22.4 14 32.8 22.8 10.3 8.8 20.1 18.5 29.3 28.9l6.8 8.1c2.2 2.7 4.3 5.6 6.5 8.4 4.3 5.5 8.1 10.9 11.9 16.7 7.2 11.4 13.5 23.4 18.3 36 5.1 12.6 8.7 25.8 11.1 39.4 2.5 13.5 3.7 27.5 3.6 41.7 0 14.2-1.1 28.6-3.3 43-4.2 28.9-12.4 57.8-23 86.2-10.8 28.3-23.7 56.4-39.4 83.4 22.9-21.4 42.7-46.3 59.8-73.2 17-26.9 31-56.2 40.8-87.6 4.8-15.7 8.4-31.9 10.6-48.6 2.1-16.7 2.8-33.7 1.6-50.9-1.2-17.1-4.2-34.3-9.1-51-4.7-16.8-11.7-32.9-19.9-48.3-4.1-7.6-8.7-15.3-13.5-22.1-2.4-3.5-4.7-7-7.2-10.4l-7.6-10.1c-10.5-13.4-22-26.2-34.9-37.8-12.9-11.7-27-22.4-42.3-31.5-15.4-9-31.8-16.5-49-21.9-34.3-10.9-71.2-13.1-106.1-8-17.5 2.5-34.7 6.6-51 12.4-8.2 2.9-16.3 6.1-24.1 9.6-4 1.7-7.8 3.7-11.7 5.5-3.9 2-7.9 4.1-11.8 6.2-15.4 8.8-30 19.1-43.3 31.1-13.1 12.1-25 25.6-35.2 40.4-20.2 29.5-33.3 64.4-36.3 100.3-3.5 35.8 3.3 72.2 17.7 104 3.5 8 7.8 15.9 12.4 23.6 4.9 7.6 10.1 15.1 16.4 22 12.2 14 27.9 25.8 45.5 33.3 17.6 7.6 36.8 10.4 55.1 9.3s35.9-5.6 52.2-13.9c4.1-2 8.1-4.4 12-7s8.1-6 11.3-9c6.7-6.2 12.7-13.3 17.6-21.2 9.9-15.9 14.5-34.9 13.6-52.9-.8-18-6.7-34.8-14.9-49.5-4.1-7.4-8.8-14.1-14.2-20.6-5.7-6.8-12.6-12.6-20.3-16.8-15.6-8.2-33.1-10-49-7.4-8 1.2-15.7 3.3-23.1 6.2-3.7 1.4-7.3 3-10.8 5-3.3 2-6.9 4.1-9 7.4M32790.6 22546.8c24.4-14.7 47.5-31.9 69.7-50.4 22-18.7 43-39.1 62.5-61.2 19.7-21.9 37-46.4 52.7-72.5l11.3-20c3.5-6.8 6.5-13.9 9.8-21l2.3-6c7.6-19.8-4.6-41.7-25.4-45.8-19-3.7-37.3 9-40.5 28.1-1.7 10.3-3.2 19.6-3.9 22.1l-5.6 18.9c-8.3 25.1-18.5 50.4-31.9 74.3-13.2 24.1-28.3 47.5-45.2 69.9-16.9 22.3-35.3 43.9-55.8 63.6M32757.7 22629.7c28.3 3.6 56.4 9.8 84.1 17.8 27.8 8 55.2 18.2 82 30.5 27 12 52.8 27.3 77.7 44.8l18.4 13.7c6 4.8 11.6 10.1 17.5 15.1l4.5 4.6c15 15.1 12.8 40-4.6 52.2-15.8 11.1-37.7 6.9-48.4-9.2-5.7-8.8-10.9-16.6-12.5-18.6l-12.8-15.1c-17.8-19.5-37.4-38.4-59.4-54.9-21.8-16.6-45.1-31.9-69.6-45.5-24.6-13.5-50.2-25.7-76.9-35.4M32303.1 22753.6c.1-18.8 1.9-37.8 4.9-56.6 3-18.9 7.4-37.7 13.3-56.3 5.7-18.7 13.7-36.8 23.1-54.6l7.5-13.2c2.7-4.3 5.7-8.5 8.6-12.7l2.6-3.4c8.7-11 25.2-11.6 34.6-1.2 8.6 9.5 7.6 24.3-2.1 32.5-5.3 4.5-10 8.6-11.2 9.8l-8.8 9.6c-11.4 13.2-22.2 27.6-31.2 43.4-9.2 15.7-17.3 32.2-24.3 49.4-6.8 17.2-12.8 35-17 53.3M31979.9 22848.4c-7.7 14.1-15.7 27.9-24 41.5l-.6.6c-12.6 15.4-27.4 29.8-45.9 40.4-18.4 10.6-40.8 16.8-64 13.8-11.5-1.4-22.7-5.4-32.7-10.6-10.1-5.3-19.2-11.8-27.2-19-16-14.4-28.9-30.7-40.8-47-23.2-33.1-42.4-67.2-62.9-99.5-20.2-32.3-41.9-63.1-67.5-87.3-12.7-12.1-26.4-22.2-40.4-30.1-7.1-3.8-14.2-7.3-21.5-10-7.4-2.7-14.8-4.7-22.5-6.2-7.6-1.5-15.5-2.5-23.5-2.8-8.1-.4-16.4-.2-24.6.5-16.4 1.6-32.9 5.5-49 11.6-32.5 12.1-63.3 32.6-91.8 56.9-28.5 24.5-54.9 52.8-79.3 83.6 2.9-9.4 6.5-18.7 10.5-27.7 3.9-9.2 8.2-18.1 13-26.9 9.3-17.7 20.3-34.5 32.4-50.8 24.5-32.2 55.2-61.6 93.5-82.1 19.1-10.2 40.1-18 62.1-22.2 11-2.2 22.2-3.4 33.5-3.7 11.4-.2 22.9.6 34.4 2.6 22.9 3.8 45.1 12.9 64.2 25.2 19.3 12.2 35.4 27.6 49.4 43.6 14.1 16.1 26 33.1 37 50.2 11.1 17.1 21 34.5 30.6 51.8 19 34.6 36.1 69.4 55.6 101.2 9.7 15.9 20.1 31 32.1 43.6 11.8 12.6 25.2 22.5 40.5 26 7.5 1.8 15.9 2.2 24.2 1.4 8.3-.7 16.7-3 24.9-6.2 16.6-6.4 32.4-16.9 47.3-28.7l-.5.6c10.9-11.6 22-23.1 33.5-34.3M31436.6 22256.7c-7.5-18.8-13.6-38-17-57.4-3.4-19.3-4.2-38.8-.7-57.1 3.4-18.2 10.8-35 21.1-49.5 6.3-8.9 13.7-17 21.7-24.5 8.7-8 9-21.5 1-30.1-9.2-10-25.2-9-33.1 1.9-8.1 11.1-15.1 22.9-20.7 35.5-9.2 20.6-13.9 43.1-13.6 64.9.2 22 5.4 42.9 12.9 62.1 7.5 19.4 17.4 37.3 28.4 54.2" style="fill:#316039;fill-opacity:1;fill-rule:nonzero;stroke:none" transform="matrix(.01397 0 0 -.01397 -347.136 440.955)"/><path d="M31724.4 22962.9c-29.7 10-59.9 19.2-91.9 24.4-16 2.6-32.6 4.1-49.7 3.7-17-.5-34.7-3-52.1-8.7-17.3-5.7-34.3-14.3-49.3-25.4-15.1-11.1-28.4-24.2-40-38.1-11.1-13.3-20.7-27.3-29.4-41.7-14.4-23.9-3-55.1 23.6-63.8 23.6-7.7 48.5 5.9 55.3 29.7 3.5 12.2 7.6 24 12.6 35 10.9 24.2 25.8 44.8 47.7 59.2 21.7 14.7 50.5 22.2 80.5 25.4 30.1 3.1 61.5 2.2 92.7.3M31515.4 22341.7c0-32.6 26.4-59.1 59-59.1 32.7 0 59.1 26.5 59.1 59.1s-26.4 59.1-59.1 59.1c-32.6 0-59-26.5-59-59.1M31344.9 23104.2c0-13.2 10.7-23.8 23.8-23.8 13.2 0 23.8 10.6 23.8 23.8 0 13.1-10.6 23.8-23.8 23.8-13.1 0-23.8-10.7-23.8-23.8M30941.4 22522.9c0-13.1 10.7-23.8 23.9-23.8 13.1 0 23.8 10.7 23.8 23.8 0 13.2-10.7 23.9-23.8 23.9-13.2 0-23.9-10.7-23.9-23.9M31422.6 23068.5c-5.6-22.7 8.2-45.6 30.8-51.3 22.7-5.6 99.4 18.7 99.4 18.7s-56.3 57.8-79 63.4c-22.6 5.7-45.6-8.2-51.2-30.8M31019.7 22540c5-22.5 36.6-34.6 70.6-27 34 7.7 124.8 70.5 124.8 70.5s-109 18.6-143 11c-34-7.7-57.5-32.1-52.4-54.5M31655 22879.5c-17.7-9.7-34.8-21-51.3-33.1-16.5-12.2-32.4-25.6-47.6-40.1-15.3-14.4-29.4-30.5-42.6-47.9-5.2-6.8-10.1-14-14.7-21.4-11.2-18-2.3-41.6 18-47.5 17.3-5.1 35.3 5.2 39.7 22.6 1.6 6.5 3.6 13.1 5.9 19.7 6.2 17.3 13.7 34.9 23.1 51.8 9.2 17 19.7 33.6 31.4 49.7 11.6 16 24.2 31.6 38.1 46.2M32034.9 22337.4c-10.5-20.3-29.1-33.1-48.3-40.1-19.5-6.9-40.5-8.5-61.3-7.4l-7.8.5c-2.5.3-5 .6-7.4 1-4.9.7-9.8 1.6-14.6 2.8-9.6 2.5-18.8 5.8-27.5 10.1-8.7 4.2-16.7 9.3-23.9 15.2s-13.5 12.6-18.8 19.8c-10.5 14.5-16.9 31.4-19.1 49.8-1.1 9.1-1.3 18.6-.7 28.2.8 9.6 2.1 19.4 4.1 29.1 1.1 4.9 2.1 9.9 3.4 14.8l2 7.4 1 3.6 1 3.1c2.7 8.3 6.7 16.7 11.5 25.1 9.7 16.8 23.2 33.4 37.1 50.5 28.2 33.8 60 69.5 79.8 112.4 4.9 10.7 8.9 21.8 12.1 33.1 2.9 11.4 4.9 22.9 5.9 34.5 1 11.5 1 23.4-.8 35.1-.8 5.9-2.2 11.7-3.9 17.3-1.8 5.7-3.9 11.4-6.6 16.7-5.4 10.8-12.6 20.8-21.8 29s-20.3 14.6-32.4 18c-12 3.5-24.8 4.3-37 2.3-2.8-.3-6.7-1.1-9.6-2.2-3.1-1-6-2.3-8.8-3.7q-8.4-4.35-15.3-10.8c-9.1-8.5-15.6-19.8-18.2-31.4-2.7-11.7-2-23.3-.1-34.5 1.1-5.6 3.2-11.2 6.9-16 3.6-4.8 8.7-8.5 14.3-11.2 5.6-2.8 11.6-4.7 18.2-5.8 3.2-.6 6.6-.8 10.4-1 14.6-.6 21.7 12 14.5 21.1-6.6 8.4-18.1 6-23.7-1.6-1.8-2.5-4.2-4.8-7.3-5-21.4-1.7-29.9 14.7-30.9 20-2.2 10.8-1.2 22.4 3.7 31.9 4.8 9.5 12.7 16.5 21.4 21.5 4.3 2.6 8.9 4.7 13.5 6.5 2.3.8 4.6 1.6 6.9 2.2 2.4.7 4 1 6.7 1.3 10 1.3 20 .8 29.6-1.5 19.2-4.5 36.6-17.4 47.1-35.5 10.6-18 13.7-40 10.1-61.2-1.8-10.7-4.3-21.1-8.1-31.1s-8.7-19.6-14.3-28.6c-11.3-18.2-25.9-34.1-41.7-49-15.8-15-33-28.9-50.2-44-17.2-14.9-34.5-31.2-49.4-51.9-7.4-10.3-14.1-21.9-19-34.6l-1.8-4.8c-.6-1.6-1-2.9-1.4-4.4l-2.7-8.7c-1.7-5.9-3.2-11.9-4.5-17.9-2.4-12.2-4.4-24.6-4.8-37.4-.5-12.7.1-25.7 2.2-38.7 4.3-25.9 15.4-51.9 33.1-72.2 8.8-10.3 18.9-19.1 29.9-26.3 10.9-7.2 22.6-13 34.7-17.1s24.5-6.9 37.1-8.1c6.2-.7 12.5-.9 18.7-.9 3.2 0 6.4.2 9.4.4l9 .9c23.8 2.7 47.9 9.4 68.5 22.7 10.3 6.6 19.3 15 26.4 24.7 3.5 4.8 6.5 9.9 8.8 15.3s4.1 11 4.7 16.7" style="fill:#316039;fill-opacity:1;fill-rule:nonzero;stroke:none" transform="matrix(.01397 0 0 -.01397 -347.136 440.955)"/><path d="M31959.9 22584.5c-22.1-19.4-40.6-42.3-56.4-67.3-7.7-12.7-14.8-25.9-20.5-40.2-5.6-14.2-10.1-29.4-11.4-46.2-.5-8.3-.4-17.1 1.5-26.2 1.8-8.9 5.4-18.1 10.8-26.3 5.1-7.1 10.7-13.8 17.8-19.5 6.9-5.7 15-10.2 23.6-13.2 17.4-5.9 35.6-4.7 50.7.6 7.6 2.7 14.7 6.3 21.1 10.6 6.5 4.4 12.3 9.4 17.1 15.5-15-2.4-29-3.8-42-3.2-13 .5-24.4 3.4-33.6 8.5-9.1 5-16.7 12.7-23.1 22-5.1 7.3-7.3 17.6-7.1 29.5.1 11.8 2.5 24.7 5.8 37.6 3.4 12.8 7.8 25.9 12.7 38.9 9.8 26.1 21.3 52.1 33 78.9M32034.9 22222.1c-4.9-10-11.4-18.9-18.8-26.7s-15.8-14.5-24.9-19.8c-18.3-10.5-38.8-15.9-59.6-16.3-20.6-.5-41.8 2.7-61.7 8.3-19.9 5.7-38.4 14.3-53.8 26.4-15.6 12-28.1 27.3-38 44.8s-17.5 36.8-24.1 57c-13.5 40.5-22 84.5-43.5 127.9-10.8 21.3-26 42.8-47.2 58.3-10.5 7.7-22.2 13.8-34.2 18.2-12 4.5-24.3 7-36.5 8.5-12.5 1.5-25.4 1.5-38.3-.4-12.8-2-25.4-6.2-37-12.2-23.4-12.1-41.1-32.1-52.7-53.8-11.6-21.8-17.6-45.7-18.9-69.5-1.2-23.8 2.2-47.8 11-69.9 9-21.9 23.5-42.1 43.2-55.1 9.9-6.5 20.6-11.2 31.7-14 11.1-2.7 22.5-3.6 33.6-3.1v1.4c-21.8 3-42.4 11.4-57.8 25.4-15.6 13.8-25.9 32.4-31.1 52.1-10.6 39.3-3.9 83.4 16.6 116.5 10.3 16.5 24.4 29.7 40.7 37.2 16.4 7.5 34.9 9.2 53.6 6.3 19.4-3.1 37-9.6 51.3-20.8 14.3-10.9 25.6-26.2 34.4-44.2 9.1-17.8 16-37.7 22.5-58.4 6.8-20.6 13-42 20.9-63.4s17.1-43.1 30.2-63.3c12.8-20.3 30.1-38.8 50.6-52.3s43.7-21.8 66.8-25.8c11.5-2.2 23-3.3 34.7-3.6 11.6-.4 23.3 0 34.9 1.8 23.1 3.5 45.9 12.2 64 26.9 18.1 14.4 31.6 34.1 37.4 55.6M31423.4 22513.3c-14.9 18.9-43 20.2-59.7 3-4.5-4.8-8.3-8.8-10-10.7-12.6-14.6-24.7-29.5-35.8-45-22.7-30.8-42.5-63.4-59.6-97.3-17-33.9-31.2-69.1-42.2-105.2-11.1-36.1-18.4-73.2-22.7-110.4-2.5-18.6-3.1-37.3-4-55.9l.2-28v-7l.4-6.9.9-13.9c.7-18.6 3.7-36.9 5.8-55.2 1.6-9.1 3.4-18.2 5-27.2l2.6-13.6 3.3-13.4c17.2-71.5 44.8-139.5 79.5-203.1-28.5 66.6-49.1 136.3-59.1 206.9l-1.9 13.3-1.2 13.3c-.8 8.8-1.7 17.7-2.3 26.5-.3 17.8-1.6 35.4-.5 53.1l.4 13.2.2 6.6.6 6.6 2.5 26.3c2.5 17.3 4.7 34.7 8.7 51.8 7.3 34.1 17.3 67.6 30.6 99.6 13.2 32.1 29.2 62.8 47.6 92s39.1 56.8 61.9 82.3c11.3 12.9 23.3 25 35.5 36.7 1.5 1.4 4.5 4 8 7.1 16.1 13.8 18.4 37.9 5.3 54.5" style="fill:#316039;fill-opacity:1;fill-rule:nonzero;stroke:none" transform="matrix(.01397 0 0 -.01397 -347.136 440.955)"/><path d="M31670.3 21987c-2.7-2.8-6.5-4-10-5.3-3.6-1.2-7.3-2.2-11-3-7.5-1.4-15-2.1-22.5-2-14.8.4-29.3 4.1-40.1 12.3-5.4 4.1-9.8 9.1-13.3 14.8-3.7 6-7 12.6-9.7 19.1-5.4 13-8.1 26.8-7.2 39.8.9 12.9 5.4 24.9 13.1 34.6 3.8 4.8 8.2 9.2 13.3 13 2.7 2.1 4.8 3.4 7.4 4.8 2.8 1.4 5.5 2.7 8.5 3.8 11.9 4.5 25.2 6.6 37.7 6.2 12.7-.5 24.7-3.5 35.1-9.1 21.1-11 35.8-32.3 45-57.5 9.5-25.2 12.5-51.9 8.8-77.6-3.5-25.7-14.1-50.1-29.4-71.1-15.5-21-36-38.2-59.2-50.7-2.9-1.5-5.8-2.9-8.8-4.4-3.2-1.4-6.3-2.9-9.4-4.2-6.3-2.7-12.7-5-19.2-7.1-12.9-4.2-25.9-7.4-39.1-9.1-26.3-3.8-52.6-1.4-77.4 5.9-12.3 3.7-24.3 9-35.7 15.5-11.5 6.4-22.5 14.1-32.8 22.8-10.3 8.9-20.1 18.5-29.3 29l-6.8 8.1c-2.2 2.7-4.4 5.6-6.5 8.3-4.3 5.6-8.1 11-11.9 16.7-7.2 11.4-13.5 23.5-18.3 36.1-5.1 12.6-8.7 25.8-11.1 39.3-2.5 13.6-3.7 27.6-3.6 41.8-.1 14.2 1.1 28.6 3.3 43 4.2 28.9 12.4 57.8 23 86.2 10.8 28.3 23.7 56.3 39.3 83.4-22.8-21.4-42.6-46.3-59.7-73.2s-31-56.2-40.8-87.6c-4.8-15.7-8.4-32-10.6-48.6-2.1-16.7-2.8-33.8-1.7-50.9 1.3-17.1 4.3-34.3 9.1-51.1 4.8-16.7 11.8-32.9 20-48.2 4.1-7.6 8.7-15.3 13.5-22.2 2.4-3.4 4.7-6.9 7.2-10.3l7.6-10.2c10.5-13.3 22-26.1 34.9-37.7 12.9-11.7 27-22.4 42.3-31.5 15.3-9 31.8-16.5 49-21.9 34.3-11 71.2-13.1 106.1-8 17.5 2.5 34.7 6.6 51 12.4 8.2 2.8 16.3 6.1 24.1 9.6 4 1.7 7.8 3.7 11.7 5.5 3.9 2 7.9 4.1 11.7 6.2 15.5 8.8 30.1 19.1 43.4 31.1 13.1 12 25 25.6 35.2 40.4 20.2 29.5 33.3 64.4 36.3 100.3 3.5 35.8-3.3 72.2-17.8 104-3.4 8-7.7 15.9-12.3 23.6-4.9 7.6-10.1 15.1-16.4 22-12.2 13.9-27.9 25.8-45.5 33.3s-36.8 10.3-55.1 9.3c-18.3-1.1-35.9-5.7-52.2-13.9-4.1-2-8.1-4.5-12-7-3.9-2.7-8.1-6-11.3-9-6.7-6.2-12.7-13.4-17.6-21.3-9.9-15.8-14.5-34.8-13.6-52.8.8-18.1 6.7-34.9 14.9-49.5 4.1-7.4 8.8-14.2 14.2-20.6 5.6-6.8 12.6-12.6 20.3-16.8 15.6-8.2 33.1-10 49-7.4 8 1.2 15.7 3.3 23.1 6.2 3.7 1.4 7.3 3 10.7 5s7 4.1 9.1 7.4M31279.2 22546.8c-24.4-14.7-47.5-31.9-69.7-50.5-22.1-18.6-43-39-62.5-61.1-19.7-22-37-46.5-52.8-72.5l-11.2-20c-3.5-6.9-6.5-14-9.8-21l-2.3-6c-7.6-19.8 4.6-41.7 25.4-45.8 19-3.7 37.3 9 40.5 28.1 1.6 10.3 3.2 19.6 3.9 22l5.6 19c8.3 25.1 18.5 50.3 31.9 74.3 13.1 24.1 28.2 47.5 45.1 69.9 17 22.3 35.4 43.8 55.9 63.6M31312.1 22629.7c-28.3 3.5-56.4 9.8-84.2 17.8-27.7 8-55.1 18.2-81.9 30.4-27 12.1-52.8 27.4-77.7 44.8l-18.4 13.8c-6 4.8-11.6 10-17.5 15.1l-4.5 4.6c-15 15-12.8 40 4.6 52.2 15.8 11.1 37.7 6.9 48.3-9.3 5.8-8.7 11-16.5 12.6-18.5l12.8-15.1c17.8-19.6 37.4-38.4 59.4-54.9 21.8-16.6 45.1-31.9 69.6-45.5 24.6-13.5 50.2-25.7 76.9-35.4M31766.7 22753.6c-.1-18.9-1.9-37.8-4.9-56.7s-7.5-37.6-13.3-56.2c-5.7-18.7-13.7-36.9-23.1-54.6l-7.6-13.2c-2.6-4.3-5.6-8.5-8.5-12.8l-2.6-3.3c-8.7-11-25.2-11.6-34.6-1.2-8.6 9.5-7.6 24.2 2.1 32.5 5.3 4.5 10 8.5 11.2 9.7l8.8 9.7c11.4 13.2 22.2 27.6 31.2 43.4 9.2 15.6 17.3 32.2 24.3 49.4 6.8 17.2 12.8 35 17 53.3" style="fill:#316039;fill-opacity:1;fill-rule:nonzero;stroke:none" transform="matrix(.01397 0 0 -.01397 -347.136 440.955)"/><path d="M31517.5 28945.1c-52.3 0-90.8-7.7-115.7-30.7-42.6-39.4-58.6-130.7-55.2-315.3 1.7-91.6 4.5-185.8 7.4-285.5 10.8-370.7 23.1-790.8-23-1120.5-56.8-405.3-367.1-464.5-667.2-521.8-221-42.2-449.5-85.9-599.4-260-196-227.7-89.8-1758.9-12.1-2876.9 31.6-456.1 59-850.1 63.5-1102.2 5.8-321.9-37.9-917.8-84.2-1548.6-80.5-1098.4-171.8-2343.4-53.5-2700.8 95.3-287.7 418.5-261.6 1005.2-214.1 284.7 23 639 51.6 1050.5 47.8 294.6-2.8 567.9-21.4 808.9-37.9 638.3-43.5 1059.8-72.2 1141.5 230 124.5 460.8 35.4 1769.9-36.3 2821.7-32.2 473-60 881.5-64.3 1147.6-6.5 398.9 45 1065.6 99.6 1771.4 78.4 1013.2 159.4 2060.8 64.1 2310.8-71.4 187.4-334.7 266.9-613.4 351.1-361.3 109.1-734.9 222-734.9 589.8 0 205.9 5.8 424.3 11.4 635.5 6.7 252.2 13.7 512.9 11.2 761.2-1.9 182.5-22.2 277.7-67.8 318.3-49.2 43.8-140.6 34-279.1 19.3-92.3-9.9-207.3-22.1-346.4-22.3-142.6-.1-259.9 11.4-353.7 20.7-61.8 6.2-114.1 11.4-157.1 11.4m-1033.1-11055.7c-295.2 0-481.4 58.2-554 277.5-121.6 366.9-29.9 1617.3 51 2720.4 46.2 629.6 89.8 1224.4 84.1 1544-4.5 250.8-31.8 644.2-63.5 1099.6-82.5 1189.5-185.3 2669.9 24.2 2913.3 161.4 187.4 398.7 232.7 628.2 276.5 308.5 58.9 575 109.8 626.7 479.4 45.6 325.4 33.4 743.3 22.6 1112-2.9 99.9-5.7 194.2-7.4 286-3.8 203.4 16.2 302.4 71.4 353.3 62.1 57.3 161.5 47.4 311.9 32.4 91.9-9.1 206.1-20.5 345.2-20.5h3.4c136.5.2 250 12.3 341.2 22 151.7 16.2 252 26.9 317.9-31.7 58.8-52.4 82.5-152 84.6-355.4 2.5-249.2-4.4-510.4-11.2-763.1-5.6-210.8-11.4-428.9-11.4-634.1 0-330.4 355.5-437.8 699.2-541.6 290.8-87.9 565.6-170.9 645.8-381.4 99.4-260.5 17.9-1313.9-60.9-2332.5-54.5-704.7-106-1370.3-99.5-1766.8 4.3-264.8 32.1-672.7 64.3-1145 71.9-1055.6 161.3-2369.3 34.6-2838.2-92.5-342.2-530.5-312.3-1193.5-267.1-240.4 16.4-512.8 35-806 37.8-409.2 3.7-762.2-24.8-1045.9-47.7-192.7-15.6-360.6-29.1-503-29.1" style="fill:#231f20;fill-opacity:1;fill-rule:nonzero;stroke:none" transform="matrix(.01397 0 0 -.01397 -347.136 440.955)"/><path d="M32761.6 28497.1v-824s-187.6-126.3-685.2-122.3c-131.3 1.1-246.6 13.8-345.2 31.6-140.6 25.6-247.2 61.9-317.4 91.1-66.1 27.5-100.1 48.6-100.1 48.6l4 840.2 96.1-4.4 317.4-14.3z" style="fill:#316039;fill-opacity:1;fill-rule:nonzero;stroke:none" transform="matrix(.01397 0 0 -.01397 -347.136 440.955)"/><path d="M31338.9 27736.7c14.8-8.2 43.3-22.8 84.5-39.9 63.8-26.6 169.7-63.7 312.3-89.6 109-19.7 223.7-30.2 340.9-31.2 7.8-.1 15.6-.1 23.3-.1 402.6 0 591.1 86.9 636.6 111.6v785.5l-1393.7 62.9zm761.2-211.1c-7.9 0-15.8 0-23.9.1-120 1-237.6 11.7-349.5 31.9-147 26.8-256.6 65.2-322.6 92.7-67.2 27.9-102.2 49.5-103.7 50.4l-12 7.4 4.3 880.5 1494.1-67.4v-861.5l-11.1-7.4c-7.8-5.3-193.7-126.7-675.6-126.7" style="fill:#231f20;fill-opacity:1;fill-rule:nonzero;stroke:none" transform="matrix(.01397 0 0 -.01397 -347.136 440.955)"/><path d="M31812.8 28526.6v-961.2c-140.5 25.6-247.2 61.9-317.4 91.1v884.4z" style="fill:#b3e4c7;fill-opacity:1;fill-rule:nonzero;stroke:none" transform="matrix(.01397 0 0 -.01397 -347.136 440.955)"/><path d="M31339 27736.7c56.8-30.9 314.5-157.3 737.7-160.7 7.7-.1 15.3-.1 22.9-.1 400.7 0 591 87.1 636.9 111.8v785.3l-1393.6 63zm761.1-211.1c-7.9 0-15.8 0-23.9.1-495.3 4-764.5 168.1-775.8 175.1l-11.9 7.4.1 14 4.2 866.5 1494-67.6v-861.3l-11.1-7.5c-7.8-5.2-193.8-126.7-675.6-126.7" style="fill:#231f20;fill-opacity:1;fill-rule:nonzero;stroke:none" transform="matrix(.01397 0 0 -.01397 -347.136 440.955)"/><path d="m32852.8 28904-.7-228.6c0-128.8-85.8-241.4-209.8-276.9-309-88.4-622.6-103.1-940.2-48.9-78.4 13.2-156.9 30.8-235.8 52.4-22.5 6.1-43.5 14.8-63.3 25.7-90.6 49.7-149.7 145.3-149.7 252.1l3.6 220c0 34 6.4 67.6 18.5 99.3l-4 113.2-4 13.3c-4.7 16.9-7.3 34.3-7.6 51.8l-6.5 576.3h1598.8v-600.1c0-31.9-7.1-63.5-20.7-92.4l-.9-72.3 1.1-2.1c14-25.4 21.2-54 21.2-82.8" style="fill:#9fdcb4;fill-opacity:1;fill-rule:nonzero;stroke:none" transform="matrix(.01397 0 0 -.01397 -347.136 440.955)"/><path d="M31702.1 28349.6c-78.4 13.2-156.9 30.8-235.8 52.4-22.5 6.1-43.5 14.8-63.3 25.7l-32.3 1204.9 66.9 121.1 4.5 8.1 43.2-8.1 191.4-36.1z" style="fill:#d0eedc;fill-opacity:1;fill-rule:nonzero;stroke:none" transform="matrix(.01397 0 0 -.01397 -347.136 440.955)"/><path d="M32063.6 28910.7c-390.5 0-717.2 82.5-787.2 188.3-1.3-25.2-.6-75.5 4.1-100.9 74.5-104.1 392.7-178.5 779-178.5 392.9 0 707.7 63.8 772.3 166.7 1.7 18.9-1.4 51.5-2.1 82.8-103.6-92.1-409.5-158.4-766.1-158.4" style="fill:#316039;fill-opacity:1;fill-rule:nonzero;stroke:none" transform="matrix(.01397 0 0 -.01397 -347.136 440.955)"/><path d="M31304.3 29008.3c66.3-82 343.6-163.5 755.2-163.5 377.9 0 682.3 61.3 747.6 149.8.2 7.4-.1 16.6-.6 26.7-135.2-82.3-421.8-135.8-742.9-135.8-343.1 0-637.3 61-761.8 153 .5-11.2 1.3-21.8 2.5-30.2m755.2-213.9c-397.2 0-718.5 76-799.5 189l-3.2 4.5-1 5.5c-5.2 27.8-6 80-4.5 107l4.1 76.1 42-63.6c56.8-85.8 344.6-177 766.2-177 340.6 0 648.7 62.5 749.3 152l40.6 36.1 1.3-54.3c.3-11 .9-22.2 1.4-32.9 1-20.9 1.9-38.9.7-52.7l-.5-6-3.2-5.2c-82.6-131.6-464.1-178.5-793.7-178.5" style="fill:#231f20;fill-opacity:1;fill-rule:nonzero;stroke:none" transform="matrix(.01397 0 0 -.01397 -347.136 440.955)"/><path d="M32135.3 28642c-10.5 0-20.9 0-31.2.2-353.1 4.4-720.5 81.3-854.7 178.8l29.6 40.7c124.7-90.6 487.4-164.9 825.7-169.2 364.5-4.3 677.2 68.5 730.3 137.1l39.8-30.8c-77.2-99.8-430.4-156.8-739.5-156.8" style="fill:#231f20;fill-opacity:1;fill-rule:nonzero;stroke:none" transform="matrix(.01397 0 0 -.01397 -347.136 440.955)"/><path d="m31278.8 29728.5 6.2-550.8c.1-15.2 2.4-30.4 6.6-45.1l4.8-16.3 4.3-121.4-1.8-4.8c-11.1-29-16.7-59.4-16.9-90.4l-3.5-220.3c0-117.4 79.9-221.7 194.4-253.1 397.9-109.2 789-110.4 1162.5-3.6 112.8 32.3 191.6 136.2 191.6 252.8l.6 228.5c.1 24.6-6.2 49-18.1 70.7l-4.3 7.9 1.2 84.5 2.3 4.9c12 25.4 18.3 53.6 18.3 81.6v574.9zm791-1435.3c-200.8 0-404.6 28.2-610.2 84.6-136.3 37.4-231.4 161.6-231.4 302l3.5 220.4c.1 35.1 6.3 69.8 18.4 103l-3.8 105-3 10.4c-5.5 19.1-8.4 38.8-8.7 58.6l-6.7 601.6h1649.4v-625.2c0-33.5-7.2-67.3-20.8-98l-.8-60.5c14.6-28.1 22.3-59.6 22.3-91.2l-.7-228.5c0-138.8-93.8-262.6-228.1-301.1-189.2-54.1-382.8-81.1-579.4-81.1" style="fill:#231f20;fill-opacity:1;fill-rule:nonzero;stroke:none" transform="matrix(.01397 0 0 -.01397 -347.136 440.955)"/><path d="M32852.2 29759.1c0-126.2-358-228.4-799.5-228.4s-799.4 102.2-799.4 228.4c0 126.1 357.9 228.4 799.4 228.4s799.5-102.3 799.5-228.4" style="fill:#e5f6ea;fill-opacity:1;fill-rule:nonzero;stroke:none" transform="matrix(.01397 0 0 -.01397 -347.136 440.955)"/><path d="M32052.7 29962.3c-456.2 0-774.2-107.1-774.2-203.2 0-96.2 318-203.3 774.2-203.3 456.3 0 774.3 107.1 774.3 203.3 0 96.1-318 203.2-774.3 203.2m0-456.8c-399.7 0-824.5 88.9-824.5 253.6s424.8 253.5 824.5 253.5c399.8 0 824.6-88.8 824.6-253.5s-424.8-253.6-824.6-253.6" style="fill:#231f20;fill-opacity:1;fill-rule:nonzero;stroke:none" transform="matrix(.01397 0 0 -.01397 -347.136 440.955)"/></svg>