<svg xmlns="http://www.w3.org/2000/svg" width="200mm" height="200mm" viewBox="0 0 200 200"><path d="M30687.8 25611.4h.1zm.3-.1.1-.1zm.2-.1h.1zm-147.3-3787.3-.1-.2zm-.1-.2v-.1zm84.8-207.1c-12.8.3-25.7 4.5-38 12.9-42.4 28.8-63.7 98.5-53.5 164.9 19.6 230.1 109.3 3596.4 88 3907.1-6.5 27.3-7.7 57.9-2.3 88.4 14.2 78.8 67.8 126.6 119.8 106.7 28.4-10.8 51.8-40.3 64.4-81 12.1-39.1 21.6-70.1 12.5-728-6-438.4-18.3-979.1-27.5-1355.5-11.5-470.5-25.1-960.1-37.2-1343.1-20.1-639-24-651.6-34.4-685.2-17.1-55.5-53.9-88.1-91.8-87.2" style="fill:#e0c13b;fill-opacity:1;fill-rule:nonzero;stroke:none" transform="matrix(.00757 0 0 -.00757 -132.783 269.44)"/><path d="M30688 25611.3v-.2l.2.3zm.2-.1-.1-.2.2.4zm-112.1-3802.6c-.5-6.9-.9-12.8-1.3-17.6l-.4-2.8c-7.8-51 8-105.9 36.2-125.1 5.5-3.7 10.9-5.6 16.1-5.8 16.5-.4 39.3 17.8 51.9 58.5 8.7 28.1 12.7 40.9 32.7 674.4 12 383.1 25.6 872.6 37.1 1342.9 9.2 376.6 21.5 917.3 27.5 1355 9 651.6-.6 682.6-10.7 715.5-8.6 27.8-23.9 48.9-40 55-5 1.9-12.9 3.7-23.7-2.4-15.2-8.6-34.1-32.4-41.5-73.5-4.3-24.1-3.7-48.8 1.8-71.7l.8-3.3.2-3.4c1.5-21.8 2.4-61.1 2.8-115.2l22.4 22.5-.3-.7.2.5-.1-.3.4.6-.2-.4.3.5-.2-.2v.1l-.3-.3 1.7 4.8 9.8 34.2 7.6-2.4 5.6-4.1-23.6-31.4.3.3-.5-.9-1.1-2.9-10.6-36.9-11.3 4c3.3-663.9-65.3-3354.7-88.7-3752.5h4.6-4.6c-.2-3.5-.4-6.7-.6-9.8l3.7-1.1-1.5-4.5h-.1l-.2-.5zm51.2-232.7-2.5.1c-20.9.5-41.6 7.3-60 19.8-54.2 36.9-83.4 120.4-71 203.4 22.6 273.5 106.9 3588.8 88 3896.3-7.3 32.7-8 67.8-1.9 101.6 10.7 59.3 40.4 106.8 81.5 130 29.3 16.5 62.3 19.2 92.8 7.6 40.1-15.4 72.5-54.4 88.8-107.1 14.1-45.9 23.5-76.2 14.3-740.6-6-438-18.3-979.1-27.5-1355.9-11.6-470.5-25.1-960.2-37.2-1343.4-20.3-644.5-24-656.4-36.2-696-21.9-70.6-72.3-115.8-129.1-115.8" style="fill:#100f0d;fill-opacity:1;fill-rule:nonzero;stroke:none" transform="matrix(.00757 0 0 -.00757 -132.783 269.44)"/><path d="M30606.3 21701.8h-.8c-14.3.4-25.6 12.4-25.2 26.8l100.6 3461.5c.4 14.3 12.3 25.6 26.7 25.2s25.7-12.4 25.3-26.8l-100.6-3461.4c-.4-14.1-12-25.3-26-25.3" style="fill:#fbf6d6;fill-opacity:1;fill-rule:nonzero;stroke:none" transform="matrix(.00757 0 0 -.00757 -132.783 269.44)"/><path d="M31497.6 25443.1c-4.7-203-356.9-359.2-786.5-348.9-429.7 10.2-774.2 183.1-769.4 386.1 4.7 203 356.8 359.2 786.5 348.9s774.1-183.1 769.4-386.1" style="fill:#5a5470;fill-opacity:1;fill-rule:nonzero;stroke:none" transform="matrix(.00757 0 0 -.00757 -132.783 269.44)"/><path d="M30687.9 25803.7c-189.2 0-366.1-32.6-501.8-92.8-138.8-61.6-216.4-143.7-218.4-231.2-4.4-185.1 336.4-349.8 744-359.5 203.9-4.9 396.3 27.9 541.4 92.2 138.9 61.6 216.5 143.8 218.5 231.3 4.3 185.1-336.4 349.8-744 359.5-13.3.3-26.6.5-39.7.5m63.3-736c-13.5 0-27.1.1-40.8.5-450.8 10.8-799.9 192-794.7 412.7 2.5 108.8 91.1 207.4 249.3 277.6 152 67.4 352.3 101.7 563.8 96.7 450.8-10.8 800-192.1 794.8-412.7-2.5-108.8-91.1-207.4-249.4-277.6-142.2-63.1-326.6-97.2-523-97.2" style="fill:#100f0d;fill-opacity:1;fill-rule:nonzero;stroke:none" transform="matrix(.00757 0 0 -.00757 -132.783 269.44)"/><path d="M31605.5 25732.5c-5.3-229.3-403.2-405.9-888.7-394.2-485.6 11.6-874.8 206.9-869.5 436.3 5.4 229.3 403.3 405.8 888.8 394.2s874.8-206.9 869.4-436.3" style="fill:#5a5470;fill-opacity:1;fill-rule:nonzero;stroke:none" transform="matrix(.00757 0 0 -.00757 -132.783 269.44)"/><path d="M30690.6 26143.4c-214.3 0-414.7-36.9-568.4-105.1-158.1-70.2-246.5-164-248.9-264.3-2.3-100.4 81.6-198.4 236.3-276 160.9-80.7 376.7-128.2 607.8-133.7 230.9-5.6 448.8 31.6 613.3 104.5 158.1 70.2 246.5 164 248.8 264.3 2.4 100.3-81.6 198.3-236.3 276-160.8 80.7-376.6 128.2-607.7 133.7-15 .4-30 .6-44.9.6m71.6-831.7c-15.3 0-30.7.2-46.1.6-238.6 5.7-462.2 55.1-629.8 139.2-173.7 87.2-267.8 202.1-265 323.7 2.9 121.5 102.2 231.9 279.8 310.6 171.3 76 397.1 114.7 635.6 109 238.6-5.7 462.3-55.1 629.9-139.2 173.7-87.2 267.8-202.1 264.9-323.7l-26 .6 26-.6c-2.8-121.5-102.2-231.9-279.8-310.6-160.2-71.1-368.1-109.6-589.5-109.6" style="fill:#100f0d;fill-opacity:1;fill-rule:nonzero;stroke:none" transform="matrix(.00757 0 0 -.00757 -132.783 269.44)"/><path d="M31689.2 25986.3c-5.8-251.2-446.4-444.3-984-431.5-537.5 12.9-968.5 226.9-962.7 478 5.9 251.1 446.4 444.3 984 431.4 537.5-12.8 968.6-226.8 962.7-477.9" style="fill:#5a5470;fill-opacity:1;fill-rule:nonzero;stroke:none" transform="matrix(.00757 0 0 -.00757 -132.783 269.44)"/><path d="M30675.4 26437.6c-237.2 0-459.1-40.4-629.4-115-175.6-77-273.7-180.2-276.3-290.4-2.5-110.3 90.7-218 262.5-303.3 178.4-88.6 417.6-140.7 673.7-146.8 256-6.1 497.5 34.5 679.8 114.4 175.6 77 273.7 180.1 276.3 290.4 2.5 110.3-90.7 218-262.5 303.3-178.3 88.5-417.6 140.7-673.7 146.8q-25.2.6-50.4.6m80.7-910.6c-17.1 0-34.3.2-51.5.6-263.9 6.3-511.3 60.4-696.6 152.5-191.9 95.2-295.8 220.7-292.7 353.3 3.1 132.7 112.8 253.1 308.9 339.1 189.4 83 438.9 125.4 702.9 119 263.9-6.3 511.3-60.5 696.6-152.5 191.9-95.2 295.8-220.7 292.7-353.4-3-132.6-112.7-253-308.8-339-177.1-77.6-406.8-119.6-651.5-119.6" style="fill:#100f0d;fill-opacity:1;fill-rule:nonzero;stroke:none" transform="matrix(.00757 0 0 -.00757 -132.783 269.44)"/><path d="M31648.2 26294.9c-5.6-241.1-423.8-426.6-934.1-414.4s-919.4 217.5-913.8 458.5c5.6 241.1 423.9 426.6 934.1 414.4 510.3-12.2 919.5-217.5 913.8-458.5" style="fill:#5a5470;fill-opacity:1;fill-rule:nonzero;stroke:none" transform="matrix(.00757 0 0 -.00757 -132.783 269.44)"/><path d="M30686.6 26728c-225.4 0-436.2-38.8-597.9-110.6-166.8-73.9-259.9-173-262.4-279-2.5-105.9 86-209.4 249.1-291.2 169.2-85 396.3-134.9 639.3-140.7s472.2 33.2 645.2 110c166.7 73.9 259.9 173 262.3 279l26-.6-26 .6c2.5 105.9-85.9 209.4-249 291.2-169.3 85-396.3 134.9-639.4 140.7-15.8.4-31.6.6-47.2.6m75.2-874.1c-16 0-32.2.2-48.3.6-250.6 6-485.5 57.9-661.5 146.2-182 91.4-280.7 211.7-277.7 338.9 3 127.3 107.1 242.8 293.3 325.4 179.9 79.8 416.9 120.4 667.5 114.4 250.5-5.9 485.4-57.9 661.4-146.2 182.1-91.4 280.7-211.7 277.8-338.9-3-127.3-107.2-242.8-293.3-325.4-168.3-74.6-386.6-115-619.2-115" style="fill:#100f0d;fill-opacity:1;fill-rule:nonzero;stroke:none" transform="matrix(.00757 0 0 -.00757 -132.783 269.44)"/><path d="M31655.5 26604.8c-5.7-241.1-423.9-426.6-934.2-414.4s-919.4 217.5-913.8 458.6c5.6 241 423.9 426.6 934.2 414.4s919.4-217.5 913.8-458.6" style="fill:#5a5470;fill-opacity:1;fill-rule:nonzero;stroke:none" transform="matrix(.00757 0 0 -.00757 -132.783 269.44)"/><path d="M30693.8 27037.9c-225.4 0-436.2-38.8-597.9-110.5-166.7-74-259.9-173.1-262.4-279-2.5-106 86-209.4 249.1-291.3 169.2-84.9 396.3-134.9 639.3-140.7 243.1-5.8 472.2 33.3 645.2 110 166.7 74 259.9 173 262.4 279 2.4 106-86 209.4-249.1 291.3-169.3 84.9-396.3 134.9-639.3 140.7-15.9.4-31.6.5-47.3.5m75.2-874.1q-24 0-48.3.6c-250.6 6-485.5 57.9-661.4 146.2-182.1 91.4-280.7 211.8-277.8 339 3 127.2 107.1 242.8 293.3 325.3 179.9 79.8 416.9 120.5 667.5 114.5s485.5-57.9 661.4-146.2c182.1-91.4 280.7-211.8 277.8-339l-26 .6 26-.6c-3-127.2-107.2-242.8-293.3-325.3-168.3-74.7-386.6-115.1-619.2-115.1" style="fill:#100f0d;fill-opacity:1;fill-rule:nonzero;stroke:none" transform="matrix(.00757 0 0 -.00757 -132.783 269.44)"/><path d="M31893.1 26942c-7-299.5-526.5-530-1160.5-514.8-633.9 15.1-1142.1 270.2-1135.1 569.6 7 299.5 526.5 530 1160.4 514.8 634-15.1 1142.2-270.2 1135.2-569.6" style="fill:#5a5470;fill-opacity:1;fill-rule:nonzero;stroke:none" transform="matrix(.00757 0 0 -.00757 -132.783 269.44)"/><path d="M30698.5 27486.3c-280.9 0-543.6-48.4-745.4-137.9-209.4-92.9-326.5-218-329.6-352.2-3.2-134.2 108-264.7 312.9-367.6 211-105.9 494-168.2 796.9-175.4 302.7-7.2 588.4 41.4 804.1 137.2 209.5 92.9 326.6 218 329.7 352.2s-108 264.7-312.9 367.6c-211.1 105.9-494.1 168.2-796.9 175.4-19.7.5-39.3.7-58.8.7m93.4-1085.9c-19.9 0-39.8.3-59.9.8-310.3 7.4-601.2 71.7-819 180.9-223.8 112.4-345.2 259.9-341.5 415.3 3.6 155.5 131.7 297 360.6 398.6 222.6 98.7 516.1 149 826.5 141.6 310.3-7.4 601.2-71.7 818.9-180.9 223.9-112.4 345.2-259.9 341.6-415.3-3.6-155.5-131.7-297.1-360.6-398.6-208.2-92.4-478.5-142.4-766.6-142.4" style="fill:#100f0d;fill-opacity:1;fill-rule:nonzero;stroke:none" transform="matrix(.00757 0 0 -.00757 -132.783 269.44)"/><path d="M31712.6 26964.5c-4.9-209.7-437.2-369.5-965.5-356.9-528.3 12.7-952.5 192.9-947.7 402.7 4.9 209.7 437.2 369.5 965.5 356.9 528.3-12.7 952.6-192.9 947.7-402.7" style="fill:#ead46d;fill-opacity:1;fill-rule:nonzero;stroke:none" transform="matrix(.00757 0 0 -.00757 -132.783 269.44)"/><path d="M30706 27341.9c-230.5 0-445.6-33-611.1-94.2-169.2-62.5-267.4-149.3-269.5-238-4.4-191.8 417.9-364 922.4-376.1 252.3-6 490 27.2 669.3 93.5 169.2 62.5 267.4 149.3 269.5 238 4.4 191.8-417.9 364-922.4 376.1-19.5.4-38.9.7-58.2.7m99.8-761c-19.6 0-39.4.3-59.3.7-550.9 13.2-978.4 201.8-973.1 429.3 2.7 112.8 110.4 214.2 303.5 285.6 185.3 68.5 429.8 102.8 688.6 96.7 550.9-13.2 978.4-201.7 973.1-429.3-2.7-112.8-110.4-214.2-303.5-285.6-171.1-63.3-392.7-97.4-629.3-97.4" style="fill:#100f0d;fill-opacity:1;fill-rule:nonzero;stroke:none" transform="matrix(.00757 0 0 -.00757 -132.783 269.44)"/><path d="m30594.9 30019.6 175.1-5.1 60.6-38.9 226.6-2930.6c1.7-22-9.3-43-28.4-53.9-53-30-166.7-84.9-284.9-82-168.6 4-250.7 58-285.3 90.9-13.7 13-21 31.5-20.2 50.6l123.2 2930.8z" style="fill:#ead46d;fill-opacity:1;fill-rule:nonzero;stroke:none" transform="matrix(.00757 0 0 -.00757 -132.783 269.44)"/><path d="m30587.2 29971.2-122.8-2921.7c-.5-11.7 3.9-22.9 12.1-30.7 31.2-29.6 107.5-79.9 268-83.7 110.5-2.8 217.6 48.2 271.5 78.7 10.2 5.8 16.2 17.2 15.3 29.2l-225.7 2917.7-43.6 28-155.6 4.6zm165.6-3088.2c-3.2 0-6.4 0-9.5.1-178 4.2-266 63.2-302.6 98-19.1 18.2-29.4 43.9-28.3 70.6l123.5 2939.9 47.5 54.4 194.6-5.7 77.5-49.8 227.6-2943.4c2.5-32.1-13.8-62.9-41.5-78.6-57.1-32.3-169.3-85.5-288.8-85.5" style="fill:#100f0d;fill-opacity:1;fill-rule:nonzero;stroke:none" transform="matrix(.00757 0 0 -.00757 -132.783 269.44)"/><path d="m30658.9 26939.2 5.4 3025.7-65-5.8-93.5-2974.9s69.1-56.6 153.1-45" style="fill:#fff;fill-opacity:1;fill-rule:nonzero;stroke:none" transform="matrix(.00757 0 0 -.00757 -132.783 269.44)"/><path d="m30763 29967.3 232.5-2996.4-104.2-28.9-159.4 3018.5z" style="fill:#f5ebb6;fill-opacity:1;fill-rule:nonzero;stroke:none" transform="matrix(.00757 0 0 -.00757 -132.783 269.44)"/><path d="m30601.6 29965.4-122.5-2916.5c-.3-7.5 2.4-14.5 7.6-19.4 29.6-28.2 102.6-76 258.2-79.7 106.8-2.6 211.3 47 263.9 76.8 5.2 2.9 8.3 9 7.8 15.3l-225 2910.4-34.1 21.8-144.6 4.3zm151.1-3097.1c-3.2 0-6.5 0-9.8.1-182.9 4.4-274.2 65.8-312.3 102.1-22.2 21.1-34.2 50.9-32.9 81.8l123.8 2945.1 55.4 63.5 205.6-6.1 87.1-55.9 228.2-2950.7c2.9-37.7-16.3-74-48.9-92.5-58.4-33-173.2-87.4-296.2-87.4" style="fill:#100f0d;fill-opacity:1;fill-rule:nonzero;stroke:none" transform="matrix(.00757 0 0 -.00757 -132.783 269.44)"/><path d="M30836.5 29995.9c-1-40.9-64.5-72.6-141.9-70.8-77.4 1.9-139.3 36.6-138.3 77.5.9 40.9 64.4 72.6 141.8 70.8 77.4-1.9 139.3-36.6 138.4-77.5" style="fill:#e0c13b;fill-opacity:1;fill-rule:nonzero;stroke:none" transform="matrix(.00757 0 0 -.00757 -132.783 269.44)"/><path d="M30836.5 29995.9h.1zm-144.7 51.5c-30.8 0-60.3-6-81.7-16.6-17.2-8.6-27.6-19.4-27.8-28.8-.5-19.6 43.3-49.2 112.9-50.9 32.7-.8 64.7 5.3 87.4 16.6 17.2 8.6 27.6 19.4 27.8 28.8.5 19.6-43.3 49.2-112.9 50.9zm9.2-148.3h-7c-94.7 2.3-165.1 47-163.8 104.1.7 29.9 20.9 56.2 56.7 74.1 30.5 15.2 70.2 23.2 111.8 22.1 94.7-2.3 165.1-47 163.8-104.1-.7-29.9-20.9-56.2-56.7-74.1-28.8-14.4-65.8-22.1-104.8-22.1" style="fill:#100f0d;fill-opacity:1;fill-rule:nonzero;stroke:none" transform="matrix(.00757 0 0 -.00757 -132.783 269.44)"/><path d="M31286.2 26860.2c-.9-34.7-39.2-62-85.7-60.9s-83.6 30.2-82.7 65c.8 34.7 39.1 62 85.6 60.9s83.6-30.2 82.8-65" style="fill:#534d6a;fill-opacity:1;fill-rule:nonzero;stroke:none" transform="matrix(.00757 0 0 -.00757 -132.783 269.44)"/><path d="M31200.7 26899.2c-15.9 0-31.2-4.4-42.2-12.2-5.4-3.8-14.5-12-14.7-23.3-.5-19.7 26.3-37.7 57.3-38.4 16.7-.4 32.8 4.1 44.3 12.2 5.4 3.9 14.5 12 14.7 23.4.5 19.7-26.3 37.6-57.3 38.3zm2.5-125.9h-3.3c-61.8 1.5-109.3 41.7-108.2 91.6.6 24.8 14 48.4 36.7 64.5 20.7 14.7 47.7 22.4 75.6 21.8 61.8-1.5 109.3-41.7 108.2-91.6-.6-24.8-14-48.3-36.7-64.5-19.9-14.1-45.4-21.8-72.3-21.8" style="fill:#100f0d;fill-opacity:1;fill-rule:nonzero;stroke:none" transform="matrix(.00757 0 0 -.00757 -132.783 269.44)"/><path d="M30042.5 26242.8c40.1-12.1 80.5-27.2 119.9-41.3l118-42.5c19.5-7.3 39.5-12.8 59.1-20l29.9-9c9.9-3.4 19.8-6.5 29.9-9.2 39.9-12.7 80.5-21.9 121.9-34.6l1.7-.6c16.9-5.2 26.3-23.2 21.2-40.2-3.7-12.5-14.4-21-26.4-22.6-45.6-5.9-92.3-6.2-137.8-.1-45.7 5.1-90.7 15.5-134.2 29.6-43.9 13.4-86 31.8-126.1 53.8-40.1 22.6-77.6 47.9-111.9 82.3-12.8 12.9-12.8 33.8-.1 46.8 8.7 8.9 21.2 11.7 32.4 8.3zm141.6 182.9c30.5-5.4 61.3-11.8 91.2-18.1l89.9-18.3 89.8-17.3c30-6 60.2-10.9 90.9-18.9l.9-.2c13.2-3.4 21.1-17 17.7-30.3-2.5-9.9-10.4-16.8-19.7-18.4-65.3-11.3-131.9-5.2-195.9 9.6-32 7.4-63.2 18.4-93.4 31.6-30.2 13.5-59 29.3-85.7 51.5-6.9 5.8-7.9 16.2-2.2 23.2 3.8 4.7 9.7 6.7 15.3 5.8zm-141.4-491.5c40.5-11.2 80.7-26.6 120.1-40.4l117.6-43.1 59.2-20c20-5.4 39.6-13 59.7-18 40-12.5 80.5-21.1 121.8-32.9l2-.6c18.3-5.2 29-24.5 23.8-43-3.9-14.1-16-23.7-29.5-25.2-45.7-5-92.3-4.7-137.9 1.5-45.6 5.8-90.7 15.6-134.3 29.9-43.7 13.6-86.4 30.7-126.4 53.2-40.1 22.8-77.8 47.9-111.6 83.2-12.8 13.4-12.5 34.8.7 47.8 8.8 8.6 21 11.3 32 8.3zm51.5-275.7c41-12.3 82-26.5 122-39.9 40.1-13.7 80.2-26.2 120-38.9 39.7-13.1 79.8-24.1 119.9-35.2 40.2-11.7 80.6-20.3 122-32.9l1.9-.6c17.6-5.4 27.6-24.3 22.3-42.2-3.9-13.2-15.2-22.2-27.9-23.8-45.7-5.8-92.3-5.5-137.6 1.6-23 2.1-45.1 8.3-67.6 12.8-22.1 5.9-44.1 12.4-65.7 19.8-43.2 15-84.7 34.4-124.1 57.5-39.5 23.1-76.4 49.4-109.7 83.6-8.9 9.2-8.8 23.9.2 32.9 6.2 6.2 14.9 8.1 22.7 5.8zm50-276.5c38-15.3 78.9-30.2 118.8-43.4 40.1-13.5 80.6-25.1 121.3-35.6 40.6-10.6 81.5-18.7 122.4-26.4 41-8.6 82.1-13.1 123.8-21l2.1-.4c20-3.8 33.2-23.3 29.4-43.5-3-16.5-16.4-28.4-32-30.2-45.5-5.3-91.9-5.2-137.2.7-45.5 5.2-90.2 15.6-133.7 29-43.5 13.1-86 29.3-127.1 48.6-41.2 19.5-80.1 41.2-118.6 68.7-13.8 9.9-17.1 29.3-7.3 43.3 8.3 11.9 23.5 16.1 36.4 10.9z" style="fill:#868296;fill-opacity:1;fill-rule:nonzero;stroke:none" transform="matrix(.00757 0 0 -.00757 -132.783 269.44)"/><path d="M33034.2 18688.4c-330.7 394-1224.4 666-2253.5 666-584.5 0-1137.3-86.4-1571.6-244.4-2.1 414.3-4.9 834.8-8.2 1255.1 26.5 19.1 53.7 37.6 81.5 55.4 315.3 202.6 519 540.4 519 859.5l63.5 3319.1 9.3 492.6c3.8-1.5 7.7-2.9 11.6-4.4 132-49.3 405.3-102.1 693-117.3-17.2-1079.5-68.2-2967.3-85-3170.8-12.4-83 16.8-166.5 71-203.4 18.4-12.5 39.1-19.3 60-19.8l2.5-.1c56.8 0 107.2 45.2 129.1 115.8 12.2 39.6 15.9 51.5 36.2 696 12.1 383.2 25.6 872.9 37.2 1343.4 8.4 343.1 19.3 822.3 25.8 1236 279.4 7.8 544.6 44.8 701.5 99.3 26.5 9.2 51.1 18.7 74.2 28.6l72.9-3837c0-324.4 183.4-637.6 491.1-838.3l13.8-8.7c530.1-344.9 838.2-927.9 824-1559.7v-1.4s.4-57.2 1.1-161.5" style="fill:#fafdfd;fill-opacity:1;fill-rule:nonzero;stroke:none" transform="matrix(.00757 0 0 -.00757 -132.783 269.44)"/><path d="M28670.7 18827.1v939.9c107.2 195.3 250.7 370.8 425.3 516.7.6-409.3 1.1-816.8 1.5-1217-172.3-71.2-315.4-151.9-426.8-239.6m526.5 278.5c-.5 413-1 833.7-1.6 1255.7 1.7 1.2 3.5 2.5 5.3 3.8 3.3-420.3 6.1-840.8 8.2-1255.1-4-1.5-7.9-2.9-11.9-4.4" style="fill:#f8f8e5;fill-opacity:1;fill-rule:nonzero;stroke:none" transform="matrix(.00757 0 0 -.00757 -132.783 269.44)"/><path d="m28446.5 18570.7 2.5 284-.1 1.2c-.5 12.9-.5 25.9-.5 39.7 0 310.8 78.4 609 222.3 871.4v-939.9c-101.9-80.2-177.3-166.4-224.2-256.4" style="fill:#fafcf7;fill-opacity:1;fill-rule:nonzero;stroke:none" transform="matrix(.00757 0 0 -.00757 -132.783 269.44)"/><path d="M29097.5 19066.7c-.4 400.2-.9 807.7-1.5 1217 32.1 26.9 65.3 52.7 99.6 77.6.6-422 1.1-842.7 1.6-1255.7-30.8-11.4-61-23.1-90.6-35.2-3-1.2-6.1-2.5-9.1-3.7" style="fill:#7f8586;fill-opacity:1;fill-rule:nonzero;stroke:none" transform="matrix(.00757 0 0 -.00757 -132.783 269.44)"/><path d="M30627.4 21657.3h-.7c-5.2.2-10.6 2.1-16.1 5.8-28.2 19.2-44 74.1-36.2 125.1l.4 2.8c.4 4.8.8 10.7 1.3 17.6l2.2-.9.2.5h.1l1.5 4.5-3.7 1.1c.2 3.1.4 6.3.6 9.8h4.6-4.6c18.7 318 66.3 2101.3 82.9 3143.1l14.5-.3-94.1-3237.8c-.4-14.4 10.9-26.4 25.2-26.8h.8c14 0 25.6 11.2 26 25.3l94.1 3238.6c6.7-.1 13.3-.1 20-.1 9.2 0 18.5.1 27.7.1-6.4-412.7-17.3-890.4-25.7-1232.6-11.5-470.3-25.1-959.8-37.1-1342.9-20-633.5-24-646.3-32.7-674.4-12.4-40.2-34.8-58.5-51.2-58.5" style="fill:#ece3a1;fill-opacity:1;fill-rule:nonzero;stroke:none" transform="matrix(.00757 0 0 -.00757 -132.783 269.44)"/><path d="m30627.3 21575.9-2.5.1c-20.9.5-41.6 7.3-60 19.8-54.2 36.9-83.4 120.4-71 203.4 16.8 203.5 67.8 2091.3 85 3170.8 27-1.4 54-2.5 81.1-3.3-16.6-1041.8-64.2-2825.1-82.9-3143.1h4.6-4.6c-.2-3.5-.4-6.7-.6-9.8l3.7-1.1-1.5-4.5h-.1l-.2-.5-2.2.9c-.5-6.9-.9-12.8-1.3-17.6l-.4-2.8c-7.8-51 8-105.9 36.2-125.1 5.5-3.7 10.9-5.6 16.1-5.8h.7c16.4 0 38.8 18.3 51.2 58.5 8.7 28.1 12.7 40.9 32.7 674.4 12 383.1 25.6 872.6 37.1 1342.9 8.4 342.2 19.3 819.9 25.7 1232.6 27.2.2 54.4.7 81.5 1.4-6.5-413.7-17.4-892.9-25.8-1236-11.6-470.5-25.1-960.2-37.2-1343.4-20.3-644.5-24-656.4-36.2-696-21.9-70.6-72.3-115.8-129.1-115.8" style="fill:#7f8586;fill-opacity:1;fill-rule:nonzero;stroke:none" transform="matrix(.00757 0 0 -.00757 -132.783 269.44)"/><path d="M30606.3 21701.8h-.8c-14.3.4-25.6 12.4-25.2 26.8l94.1 3237.8c15.1-.4 30.3-.6 45.4-.7h6.6l-94.1-3238.6c-.4-14.1-12-25.3-26-25.3" style="fill:#fafaec;fill-opacity:1;fill-rule:nonzero;stroke:none" transform="matrix(.00757 0 0 -.00757 -132.783 269.44)"/><path d="m29874.2 25091.7-9.3-492.6-63.5-3319.1c0-319.1-203.7-656.9-519-859.5-522.2-335-834-905-834-1524.9 0-13.8 0-26.8.5-39.7l.1-1.2-2.5-284c99.1 190.2 325.1 362.8 660.1 499.7 448 183.1 1042.5 284 1674.1 284 1029.1 0 1922.8-272 2253.5-666-.7 104.3-1.1 161.5-1.1 161.5v1.4c14.2 631.8-293.9 1214.8-824 1559.7l-13.8 8.7c-307.7 200.7-491.1 513.9-491.1 838.3l-72.9 3837c-23.1-9.9-47.7-19.4-74.2-28.6-182.2-63.3-510.4-102.9-837.3-100.7-336.1 2.3-680.5 64.3-834 121.6-3.9 1.5-7.8 2.9-11.6 4.4m3264.8-6837.6-99.6 236.4c-86.8 206.1-356.7 396.9-760.2 537.2-416.8 145-949 224.9-1498.5 224.9-618.7 0-1199.5-98.1-1635.6-276.3-414.7-169.5-652.9-398.3-653.8-627.9.1-2 .2-3.8.3-5.6l.4-70-66.7 21.1c-12.4 4-25.8 7.3-41.1 10.2l-41.7 8 4.7 541.1c-.5 14.4-.5 28.6-.5 42.4 0 319.5 81 636.6 234.4 917.2 153.4 280.8 376.9 520.5 646.3 693.3 286.9 184.4 472.2 488.5 472.2 774.9l75.8 3969.3 72-35.8c23.3-11.6 47.5-22 74-31.9 145.3-54.2 474.7-113 799.1-115.1 358.7-2.3 662.2 46 803.2 95 51.2 17.8 94.5 36.7 132.4 57.6l73.9 40.9 76-4002c0-290.8 166.1-572.2 444.3-753.7l13.7-8.6c273.4-177.9 497.8-423.6 649.7-711.1 151.9-287.3 228.3-610.9 221.2-935.8.1-10.4.8-132.8 2.3-339.1z" style="fill:#231f20;fill-opacity:1;fill-rule:nonzero;stroke:none" transform="matrix(.00757 0 0 -.00757 -132.783 269.44)"/><path d="M33133.7 12361.1v.5c-12.2 1560.9-34.5 4513.1-44.9 5827.8-184-453.2-1147.1-798.8-2308.1-798.8-1288.8 0-2333.9 425.7-2340 951.8-15 4.8-30.8 8.6-46.9 11.7l-51.2-5957.3-9.1-1046.8c0-332.8 1210.3-1111 2537.6-1111s2270.1 778.2 2270.1 1111c0 1-3.2 398.9-7.5 1011.1" style="fill:#fcf9e3;fill-opacity:1;fill-rule:nonzero;stroke:none" transform="matrix(.00757 0 0 -.00757 -132.783 269.44)"/><path d="m28442.7 18131.4-49.3-5735-9.1-1046.9c0-125.7 260.5-391.1 743.1-634.4 315.1-158.8 960.6-425.3 1743.7-425.3 771.3 0 1337.9 265.5 1607 423.7 401.9 236.4 612.2 499.1 612.2 636.5l-.1 14.3c-.6 77.1-3.6 452.1-7.4 996.4v.9c-5.3 683.8-12.6 1635.4-20 2599.1-8.7 1140.9-17.6 2298.8-23.5 3050.8-326.4-397.5-1222.3-671.8-2258.6-671.8-629.6 0-1222.7 100.3-1670.2 282.4-341.5 139-570.5 315.1-667.8 509.3m2428.4-7943.3c-804.1 0-1466.3 273.2-1789.4 436.1-230.6 116.2-428.4 245.5-572.2 373.8-103.5 92.4-226.9 228.4-226.9 352l9.1 1047.3 51.7 6018.2 59.9-11.4c19.2-3.7 36.5-8 52.7-13.1l35.1-11.2.5-36.8c2.6-229.3 242.2-457.8 657.3-626.7 435.5-177.2 1015.1-274.9 1631.8-274.9 1111.4 0 2083.4 329.8 2260.9 767.1l96 236.4 2-255.1c5.9-738.4 15.5-1993.4 25-3228.3 7.3-963.8 14.6-1915.3 19.9-2599.5v-.6c3.9-544.3 6.8-919.2 7.4-996.3.1-9.9.1-15 .1-15.1 0-200.2-266.2-491.2-662.3-724.2-278-163.5-863.2-437.7-1658.6-437.7" style="fill:#231f20;fill-opacity:1;fill-rule:nonzero;stroke:none" transform="matrix(.00757 0 0 -.00757 -132.783 269.44)"/><path d="M33087.1 18333.4c0-528.2-1013.9-942.8-2306.4-942.8s-2340.3 428.2-2340.3 956.4c0 528.3 1047.8 956.5 2340.3 956.5s2306.4-441.8 2306.4-970.1" style="fill:#fffffd;fill-opacity:1;fill-rule:nonzero;stroke:none" transform="matrix(.00757 0 0 -.00757 -132.783 269.44)"/><path d="M30780.7 19252.6c-618.7 0-1199.5-98.1-1635.6-276.4-415.5-169.8-653.8-399.1-653.8-629.2 0-230 238.3-459.4 653.8-629.2 436.1-178.2 1016.9-276.4 1635.6-276.4 618.6 0 1193.4 95.8 1618.6 269.6 410.7 167.9 636.9 389 636.9 622.4 0 232.1-232.4 464.1-637.5 636.3-429 182.4-1003.6 282.9-1618 282.9m0-1912.9c-631.6 0-1226.1 100.8-1674.1 283.9-462.4 189-717.1 445.9-717.1 723.4s254.7 534.4 717.1 723.4c448 183.1 1042.5 284 1674.1 284 627.7 0 1216.5-103.4 1657.8-291 451-191.8 699.4-451 699.4-730 0-277.5-248.6-532-700.1-716.6-437.1-178.7-1025.6-277.1-1657.1-277.1" style="fill:#231f20;fill-opacity:1;fill-rule:nonzero;stroke:none" transform="matrix(.00757 0 0 -.00757 -132.783 269.44)"/><path d="M30231.6 20969c-101.2 0-183.2 79.2-183.2 176.9v3417.7c0 97.7 82 176.9 183.2 176.9 101.1 0 183.1-79.2 183.1-176.9v-3417.7c0-97.7-82-176.9-183.1-176.9" style="fill:#fff;fill-opacity:1;fill-rule:nonzero;stroke:none" transform="matrix(.00757 0 0 -.00757 -132.783 269.44)"/><path d="M30937.2 25078.2c125.4 14.6 240.9 44 337 86.7 158.3 70.2 246.9 168.8 249.4 277.6.6 25.5-3.5 50.4-12 74.6 65 53.9 104.8 115 116.4 180 1.9 1.4 3.8 2.8 5.7 4.3 10.2-12 19.1-23.7 21.9-30.7l.4-1c24.9-60.2 66.8-169.2 73-205.3 15.3-87.8 34.4-197.1-244.2-297.6-104.6-37.7-303.1-75.2-547.6-88.6m-394.1 2.2c-243.7 17.4-467.9 63.3-578.8 106.2-215.7 83.6-223.3 182-223.6 243.8l65.4 238.2.7 2.4c4.3 4.1 12.5 10.2 18.3 14.5 3.1 2.3 6.3 4.7 9.5 7.1 16.8-48.4 49.4-94.8 96.5-137.8-9.6-23.9-14.9-48.6-15.4-73.9-4.5-192.5 260.5-355 627.4-400.5" style="fill:#fafdfd;fill-opacity:1;fill-rule:nonzero;stroke:none" transform="matrix(.00757 0 0 -.00757 -132.783 269.44)"/><path d="M30751.3 25119.7c-13.2 0-26.4.2-39.6.5-407.6 9.7-748.4 174.4-744 359.5.3 13.5 2.4 26.9 6.2 40 32.6-24.1 70.2-47 112.4-68.2 167.6-84.1 391.2-133.5 629.8-139.2 15.4-.4 30.8-.6 46.1-.6 221.4 0 429.3 38.5 589.5 109.6 43.2 19.1 81.7 40.1 115.4 62.7 3.3-13.3 4.8-26.7 4.5-40.3-2-87.5-79.6-169.7-218.5-231.3-135.7-60.1-312.6-92.7-501.8-92.7m-620.1 265.2c-9.7 0-19.2-4.6-25.1-13.1-9.8-14-6.5-33.4 7.3-43.3 38.5-27.5 77.4-49.2 118.6-68.7 41.1-19.3 83.6-35.5 127.1-48.6 43.5-13.4 88.2-23.8 133.7-29 23.4-3.1 47.2-4.6 71-4.6 22.1 0 44.3 1.3 66.2 3.9 15.6 1.8 29 13.7 32 30.2 3.8 20.2-9.4 39.7-29.4 43.5l-2.1.4c-41.7 7.9-82.8 12.4-123.8 21-40.9 7.7-81.8 15.8-122.4 26.4-40.7 10.5-81.2 22.1-121.3 35.6-39.9 13.2-80.8 28.1-118.8 43.4l-1.7.7c-3.7 1.5-7.5 2.2-11.3 2.2" style="fill:#b0b1bc;fill-opacity:1;fill-rule:nonzero;stroke:none" transform="matrix(.00757 0 0 -.00757 -132.783 269.44)"/><path d="M30748.4 25073.1c-8.5 0-17.2.1-25.8.1-60.1.4-120.4 3-179.5 7.2-366.9 45.5-631.9 208-627.4 400.5.5 25.3 5.8 50 15.4 73.9 13.2-11.9 27.5-23.7 42.8-35.1-3.8-13.1-5.9-26.5-6.2-40-4.4-185.1 336.4-349.8 744-359.5 13.2-.3 26.4-.5 39.6-.5 189.2 0 366.1 32.6 501.8 92.7 138.9 61.6 216.5 143.8 218.5 231.3.3 13.6-1.2 27-4.5 40.3 15.9 10.7 30.8 21.7 44.5 33.1 8.5-24.2 12.6-49.1 12-74.6-2.5-108.8-91.1-207.4-249.4-277.6-96.1-42.7-211.6-72.1-337-86.7-60.3-3.3-123.5-5.1-188.8-5.1" style="fill:#7f8586;fill-opacity:1;fill-rule:nonzero;stroke:none" transform="matrix(.00757 0 0 -.00757 -132.783 269.44)"/><path d="M30762.8 25363.7c-15.1 0-30.2.2-45.4.6-231.1 5.5-446.9 53-607.8 133.7-86.9 43.6-151.4 93.6-190.9 146.9 14.6-6.9 30-13.6 46.3-20.1 38.3-15.4 90-31.1 151.1-45.8 20.2-15.6 41.4-29.4 63.3-42.3 39.4-23.1 80.9-42.5 124.1-57.5 21.6-7.4 43.6-13.9 65.7-19.8 22.5-4.5 44.6-10.7 67.6-12.8 24.3-3.8 49-5.6 73.7-5.6 21.4 0 42.8 1.3 63.9 4 12.7 1.6 24 10.6 27.9 23.8 5.3 17.9-4.7 36.8-22.3 42.2l-1.9.6-6 1.8c44.4-2.7 89.3-4.3 134.1-4.6 7.3-.1 14.7-.1 22-.1 282.5 0 564 37.3 722 96.2 40.7 15.1 76.9 31.2 108.8 48.4-34.9-69.6-113.1-133.4-228.3-184.5-153.7-68.1-353.9-105.1-567.9-105.1" style="fill:#b0b1bc;fill-opacity:1;fill-rule:nonzero;stroke:none" transform="matrix(.00757 0 0 -.00757 -132.783 269.44)"/><path d="M30762.2 25311.7c-15.3 0-30.7.2-46.1.6-238.6 5.7-462.2 55.1-629.8 139.2-42.2 21.2-79.8 44.1-112.4 68.2-15.3 11.4-29.6 23.2-42.8 35.1-47.1 43-79.7 89.4-96.5 137.8l.3.3c24.6-17.2 52.3-33.1 83.8-48 39.5-53.3 104-103.3 190.9-146.9 160.9-80.7 376.7-128.2 607.8-133.7 15.2-.4 30.3-.6 45.4-.6 214 0 414.2 37 567.9 105.1 115.2 51.1 193.4 114.9 228.3 184.5 25.7 13.9 48.7 28.4 69 43.8-11.6-65-51.4-126.1-116.4-180-13.7-11.4-28.6-22.4-44.5-33.1-33.7-22.6-72.2-43.6-115.4-62.7-160.2-71.1-368.1-109.6-589.5-109.6" style="fill:#7f8586;fill-opacity:1;fill-rule:nonzero;stroke:none" transform="matrix(.00757 0 0 -.00757 -132.783 269.44)"/><path d="M30510.5 25441c-24.7 0-49.4 1.8-73.7 5.6-23 2.1-45.1 8.3-67.6 12.8-22.1 5.9-44.1 12.4-65.7 19.8-43.2 15-84.7 34.4-124.1 57.5-21.9 12.9-43.1 26.7-63.3 42.3 124-29.8 286.9-55.4 456-65.6l6-1.8 1.9-.6c17.6-5.4 27.6-24.3 22.3-42.2-3.9-13.2-15.2-22.2-27.9-23.8-21.1-2.7-42.5-4-63.9-4m53.3-263.4c-23.8 0-47.6 1.5-71 4.6-45.5 5.2-90.2 15.6-133.7 29-43.5 13.1-86 29.3-127.1 48.6-41.2 19.5-80.1 41.2-118.6 68.7-13.8 9.9-17.1 29.3-7.3 43.3 5.9 8.5 15.4 13.1 25.1 13.1 3.8 0 7.6-.7 11.3-2.2l1.7-.7c38-15.3 78.9-30.2 118.8-43.4 40.1-13.5 80.6-25.1 121.3-35.6 40.6-10.6 81.5-18.7 122.4-26.4 41-8.6 82.1-13.1 123.8-21l2.1-.4c20-3.8 33.2-23.3 29.4-43.5-3-16.5-16.4-28.4-32-30.2-21.9-2.6-44.1-3.9-66.2-3.9" style="fill:#c4c5cd;fill-opacity:1;fill-rule:nonzero;stroke:none" transform="matrix(.00757 0 0 -.00757 -132.783 269.44)"/><path d="M29785.9 25780.1v-.1zm-45.2-349.7c.3-61.8 7.9-160.2 223.6-243.8 137.9-53.4 450.5-111.3 758.3-113.4 340.7-2.5 628.4 45.3 762.2 93.6 278.6 100.5 259.5 209.8 244.2 297.6-6.2 36.1-48.1 145.1-73 205.3l-.4 1c-2.8 7-11.7 18.7-21.9 30.7-46.3-36.1-106.8-67.9-183.5-96.5-162.1-60.5-454.2-98.1-744-96.1-298.6 2.1-604.7 61.3-741.2 116-51.2 20.4-94.1 42.9-130.1 68.1-3.3-2.5-6.6-5-9.8-7.4-5.8-4.3-14-10.4-18.3-14.5l-.7-2.4zm1005.6-455.7h-24.4c-319.6 2.2-647.1 63.5-793.1 120.1-254 98.3-286.6 234.5-286.6 342.2v6.6l67.7 246.4c4.1 35.5 34.1 57.9 56.4 74.5 6.8 5 17 12.6 20.1 16.3l2.9 4.6c2.9 3.9 7.8 9.5 15 14.2l31.3 20.3 28-24.6c33.3-29.2 79.7-55.8 138-79.1 128.1-51.3 418.8-106.9 705.3-108.9 317.3-2.2 584.5 43.5 708.9 89.9 85.3 31.8 147.9 68 186.1 107.6l35.9 37.4 36.8-39.3c32.8-35 60.9-66.4 72.5-95.9 7.8-18.9 68.8-167.5 79-225.7 23.4-134.7 21-288.5-307.9-407.1-168.8-60.9-469.6-99.5-771.9-99.5" style="fill:#231f20;fill-opacity:1;fill-rule:nonzero;stroke:none" transform="matrix(.00757 0 0 -.00757 -132.783 269.44)"/><path d="M29796.8 25793.8c-29 36-41.9 72.3-47.4 106 17.1-31.2 40.5-61.5 69.8-90.5l-14.9-9.7c-2.8-1.9-5.3-3.9-7.5-5.8m1871.6 15.7-13.1 14c17.7 23 31.7 46.9 41.8 71.4-2.6-27.8-10.7-56.5-28.7-85.4" style="fill:#fafdfd;fill-opacity:1;fill-rule:nonzero;stroke:none" transform="matrix(.00757 0 0 -.00757 -132.783 269.44)"/><path d="M30728.3 25607.2c-7.1 0-14.3 0-21.4.1-177.9 1.2-357.4 23.2-498.6 51.9-63.4 19.7-122.5 43.1-176.1 69.7-171.8 85.3-265 193-262.5 303.3.2 7.2.8 14.4 1.8 21.5l12.5 47.4c6.5 16.2 15.1 32.2 25.7 47.9 53.5-72.9 166.7-136.4 318.5-182.8 164.9-67.3 369.3-106.6 585.3-111.7 16.1-.4 32.3-.6 48.3-.6 232.6 0 450.9 40.4 619.2 115 40.3 17.9 76.8 37.3 109.2 58.1 54.1 26.6 98.5 56.1 131.3 87.8 27.6-41.5 41.5-84.5 40.5-127.9-2.6-110.3-100.7-213.4-276.3-290.4-25.7-11.2-52.5-21.7-80.3-31.4-138.4-32.2-343.4-57.9-577.1-57.9m-697.1 328.9c-8.4 0-16.8-3.2-23.3-9.5-13.2-13-13.5-34.4-.7-47.8 33.8-35.3 71.5-60.4 111.6-83.2 40-22.5 82.7-39.6 126.4-53.2 43.6-14.3 88.7-24.1 134.3-29.9 24.6-3.4 49.5-5 74.4-5 21.2 0 42.5 1.2 63.5 3.5 13.5 1.5 25.6 11.1 29.5 25.2 5.2 18.5-5.5 37.8-23.8 43l-2 .6c-41.3 11.8-81.8 20.4-121.8 32.9-20.1 5-39.7 12.6-59.7 18l-59.2 20-117.6 43.1c-39.4 13.8-79.6 29.2-120.1 40.4l-2.8.7c-2.8.8-5.8 1.2-8.7 1.2" style="fill:#b0b1bc;fill-opacity:1;fill-rule:nonzero;stroke:none" transform="matrix(.00757 0 0 -.00757 -132.783 269.44)"/><path d="M30208.3 25659.2c-86.2 17.5-158.2 37.6-206.7 57-58.3 23.3-104.7 49.9-138 79.1l-28 24.6-16.4-10.6c-29.3 29-52.7 59.3-69.8 90.5-3.2 19.7-3.9 38.6-3.9 56.1l26 97.8c-1-7.1-1.6-14.3-1.8-21.5-2.5-110.3 90.7-218 262.5-303.3 53.6-26.6 112.7-50 176.1-69.7m1097.1 5.9c27.8 9.7 54.6 20.2 80.3 31.4 175.6 77 273.7 180.1 276.3 290.4 1 43.4-12.9 86.4-40.5 127.9q11.7 11.25 21.3 22.8c18.6-49.4 42.3-115.9 47.6-147.1 4.9-29.5 9.8-61.9 6.7-95.6-10.1-24.5-24.1-48.4-41.8-71.4l-17.5 18.7-35.9-37.4c-38.2-39.6-100.8-75.8-186.1-107.6-29.3-11-66.5-21.8-110.4-32.1m-1521.4 436 16.4 61.6c2.9-4.6 6-9.2 9.3-13.7-10.6-15.7-19.2-31.7-25.7-47.9m977.8-247.2c-16 0-32.2.2-48.3.6-216 5.1-420.4 44.4-585.3 111.7 164.3-50.2 373.9-80.3 602.3-80.3 309.8 0 585.1 55.4 759.7 141.1-32.4-20.8-68.9-40.2-109.2-58.1-168.3-74.6-386.6-115-619.2-115" style="fill:#7f8586;fill-opacity:1;fill-rule:nonzero;stroke:none" transform="matrix(.00757 0 0 -.00757 -132.783 269.44)"/><path d="M30453.9 25707.5c-24.9 0-49.8 1.6-74.4 5-45.6 5.8-90.7 15.6-134.3 29.9-43.7 13.6-86.4 30.7-126.4 53.2-40.1 22.8-77.8 47.9-111.6 83.2-12.8 13.4-12.5 34.8.7 47.8 6.5 6.3 14.9 9.5 23.3 9.5 2.9 0 5.9-.4 8.7-1.2l2.8-.7c40.5-11.2 80.7-26.6 120.1-40.4l117.6-43.1 59.2-20c20-5.4 39.6-13 59.7-18 40-12.5 80.5-21.1 121.8-32.9l2-.6c18.3-5.2 29-24.5 23.8-43-3.9-14.1-16-23.7-29.5-25.2-21-2.3-42.3-3.5-63.5-3.5" style="fill:#c4c5cd;fill-opacity:1;fill-rule:nonzero;stroke:none" transform="matrix(.00757 0 0 -.00757 -132.783 269.44)"/><path d="M30729.1 25558h-22.6c-297.7 2.2-594.5 61-723.2 112.5-94.8 37.9-152 80.5-186.5 123.3 2.2 1.9 4.7 3.9 7.5 5.8l14.9 9.7 16.4 10.6 28-24.6c33.3-29.2 79.7-55.8 138-79.1 48.5-19.4 120.5-39.5 206.7-57 141.2-28.7 320.7-50.7 498.6-51.9 7.1-.1 14.3-.1 21.4-.1 233.7 0 438.7 25.7 577.1 57.9 43.9 10.3 81.1 21.1 110.4 32.1 85.3 31.8 147.9 68 186.1 107.6l35.9 37.4 17.5-18.7 13.1-14c-33.7-54.2-102.4-108.9-235.4-158.5-139.6-52-409.7-93.1-703.9-93" style="fill:#7f8586;fill-opacity:1;fill-rule:nonzero;stroke:none" transform="matrix(.00757 0 0 -.00757 -132.783 269.44)"/><path d="M29794.7 25949.5c.3-59.3 7.4-153.5 206.9-233.3 128.1-51.3 418.9-106.9 705.3-108.9 316.8-2.3 584.5 43.5 708.9 89.8 257.9 96.2 240.9 196.6 226 285.2-1.2 6.9-5.3 25.3-19.9 68.1-167.8-129.9-509.2-213.7-891.4-213.7-401.2 0-744.7 87.9-905.9 225.4zm934.2-440.8c-7.6 0-15.1 0-22.7.1-298.5 2.1-604.7 61.3-741.2 116-238.2 95.3-268.8 227-268.8 331.1v6.4l85.9 323.2 60.2-96.8c78.3-126 408.5-253.5 888.2-253.5 400.4 0 760 96.2 874.5 233.9l54.1 65.2 29.8-79.3c28.5-75.7 45.3-128.3 50-156.3 15.9-94.1 45.4-269.3-288.7-393.8-157.8-58.9-438.9-96.2-721.3-96.2" style="fill:#231f20;fill-opacity:1;fill-rule:nonzero;stroke:none" transform="matrix(.00757 0 0 -.00757 -132.783 269.44)"/><path d="M30797.8 15097.8c-1191 19.8-2151.2 457.2-2151.2 457.2l86.5 138.9-98.9 202.3 123.7 174.6-131.9 277.7 119.5 242-86.6 230.1 114.1 158.7-96.5 264.2-6.1 3.4c7.8-4.1 789.5-450.6 2064.4-467 1309.8-16.7 2160.7 371.2 2169.1 374.7l-4.6-2-67.7-232.8 64-150.8-78.5-202.3 73.7-293.6-92.2-208.3 88.4-192.4-109-168.6 105-242.6s-1218.7-363.4-2085.2-363.4" style="fill:#fff;fill-opacity:1;fill-rule:nonzero;stroke:none" transform="matrix(.00757 0 0 -.00757 -132.783 269.44)"/><path d="M28705.8 15573.6c198-82.6 1063.4-418.2 2092.3-435.4 758.8.1 1804.3 285.1 2029.6 349.1l-86.8 200.4c-5.4 12.4-4.2 26.7 3.1 38.1l97 149.9-79.2 172.2c-4.8 10.6-4.9 22.7-.2 33.3l86.6 195.5-70.3 280.2c-2 8.1-1.5 16.6 1.5 24.4l72.5 187-57.6 135.7c-3.6 8.6-4.2 18.1-1.6 27.1l44.3 152.2c-253-98.8-1021.8-357.8-2102.7-343.8-1023.4 13.1-1729.5 299.7-1984.6 421.6l61.3-167.9c4.5-12.6 2.6-26.6-5.2-37.5l-101.4-141.1 78.9-209.9c4-10.4 3.4-22.1-1.6-32.1l-110.8-224.4 123.5-260.1c6.3-13.2 4.9-28.7-3.6-40.7l-109.7-155 88.4-180.8c6.1-12.5 5.3-27.3-2.1-39.1zm2092-516.3h-.7c-1185.7 19.8-2157.6 456.5-2167.3 460.9-10.6 4.9-18.6 14-21.9 25.1-3.4 11.2-1.8 23.2 4.4 33.1l74.7 119.9-89.1 182.2c-6.5 13.2-5.2 29 3.3 41.1l110 155.2-121.7 256.4c-5.4 11.1-5.3 24.1.2 35.2l111.8 226.3-80.4 213.7c-4.8 12.6-2.9 26.8 5 37.8l101.5 141.3-84.4 231.5c-13.4 12.2-17.3 32.3-8.4 49 10.5 19.6 34.8 27 54.5 16.6l.5-.3v.1l6.1-3.4 1.4-.8c107.9-58.9 856-442.7 2038-457.9 1220.1-15.7 2034.2 319.7 2145.9 368.4l2.2 1.1 4.6 2 .4.1c20.5 8.6 44.1-1.1 52.8-21.6 6.2-14.8 3-31.3-7.1-42.6l-59.7-205.4 58.4-137.5c4.1-9.7 4.3-20.6.5-30.4l-73.8-190.3 70.5-281.2c2.2-8.7 1.5-17.9-2.2-26.2l-84.9-191.6 80.8-175.8c5.8-12.6 4.7-27.2-2.8-38.8l-97.2-150.5 96.5-222.7c4.5-10.6 4.4-22.7-.5-33.2-4.9-10.4-14-18.3-25.1-21.6-12.2-3.7-1234.3-365.2-2096.8-365.2" style="fill:#231f20;fill-opacity:1;fill-rule:nonzero;stroke:none" transform="matrix(.00757 0 0 -.00757 -132.783 269.44)"/><path d="M29108.7 16518.9c12.8 1.6 28.2.9 46-2.2 21.7-3.9 39.2-9.5 51.4-17.2 12-7.7 23.8-19.9 35-35.4 11.3-15.4 19.3-30.5 23.9-45.3 2.4-7 4.5-20 6.5-39.1 2-19.2 2.8-33.8 2.5-43.7-.1-3.5-.4-5.7-.9-6.7-3.5-16.5-11.7-23.7-24.5-21.5-5.9.9-11.3 4.6-16 10.9s-7.6 14.1-8.6 23.3c-2.9 30.1-6.5 51.7-11 64.8-4.5 13-11.9 24.3-21.8 31.9-7.8 6-18.9 10-31.7 12.3-15.7 2.7-31.4 2.2-47.2-1.8-15.7-3.9-27-10.7-32.4-20-6.1-10.5-9.2-23.5-9.7-37.5-.4-9.9 1-20.2 4-30.8 8.1-26.1 40.4-74.2 97.4-143.3 44.6-53.9 73-94.3 84.5-121.2 12.1-28.4 17.6-58.3 16.6-89.3-1.3-43-14.1-77.1-38.2-102.2-17.1-18.8-40.9-31.1-69.9-34.9-19.2-2.5-36.1-1.9-49.4.4-29.3 5.2-54.7 23.5-76 54.6-26.7 39.1-39.1 82-37.4 128.4 1 25.5 6.7 48.7 17.4 69.1 11.3 21.3 22.9 31.1 34 29 6-1.1 12-5.9 17.9-14.2 6-8.4 8.8-16.2 8.5-23.5-.2-7.2-3.8-16.3-10-27.2-6.5-11.5-10-26.3-10.6-43.2-.7-20.9 3.1-41 11.5-60.2 8.4-19 19.8-32.9 34.2-41.6 1.7-1.3 5.7-2.5 12.2-3.7 22.8-4 42-2.4 57.9 5 25.8 11.1 39.7 35.8 40.6 72.9.5 23.8-4.4 45.4-14.1 64.1-9.7 18.8-32 49-66.7 90.7-40.8 49-69.8 88.1-86.8 117.2-17 29-27.5 56.8-31.7 83.2-2.1 12-3.1 21.5-2.8 28.5.1 2.9 1.2 11.1 3.5 24.2 5.1 29.4 15.4 51.8 30.3 66.6 14.8 14.8 35.3 24.3 61.6 28.6m223.7-315c3.7 3.9 10.2 5.2 18.8 3.9 8.1-1.3 14.4-6.3 18.2-14.9 3.8-8.3 5.9-24.4 6.7-47.6.8-23.3.7-73.7-.2-151.3-.7-49.3-1-73.9-1.7-123.2-3.4-3.4-5.2-5.1-8.6-8.5-5.4-5.2-11.7-7.3-19-6.1-6.5.9-12.4 4.5-17.6 10.6-5.2 6-8.3 13.7-9.4 22.9-.9 8.1-.1 62 3 161.4l2 66.7c1.6 53.5 4.2 82.4 7.8 86.1m-2 62.8c-1.2 4.7-1.7 9.1-1.5 13.1.2 7.4 2.4 13.1 6.6 17s10.1 5.2 17.8 4c7.3-1.1 13-4.2 17.1-9.4 4.1-5.1 6.1-11.2 5.9-18.2-.1-5-1.1-9.4-3-13.1-4.1-10.4-11.6-14.8-22.2-13.2q-15.45 2.4-20.7 19.8m472-29.5c7.7 1.7 18 1.9 30.9.5 2.8-.3 4.2-.4 7-.7 28.3-4.4 51.8-19.7 70.7-46 8.3-11.8 14.9-24 19.6-36.5 4.8-12.4 9.4-30.8 14.2-54.6 3.8-18.8 6.2-35.7 6.6-50.2.3-14.6.3-50.8.3-108.3 0-21.6-.1-47.4-.7-77.4-.8-46-4.5-72.8-11.1-80.2-4.4-5.1-11-7.3-19.6-6.5-9.1.9-15.2 4.6-18.7 10.1-2.7 4.2-4.6 13.1-5 26.3-.4 13.4.1 48.6 1 104.9.8 56.8.6 93.5 0 109.3-.5 15.9-2.3 32.9-5.5 50.6-4.5 24.9-9.3 43.5-13.8 55.4-4.5 12-10.4 21.1-17.5 27.3-7.6 6.7-16.4 10.7-26.2 11.7-7.3.8-16.3 0-26.5-1.8-16.6-2.9-34.7-17.3-53.5-43.8-18.9-26.5-34.8-59-47.7-97.7-5.1-15.4-8.3-28.6-9.7-39.5-1.3-10.8-3.2-38.3-5.4-82-2.5-48.3-4.6-77.8-6.5-88.4-2-10.6-6.9-17.2-14.8-19.7-5.7-1.9-9.8-2.6-12.4-2.3-3.9.4-9.2 4.9-15.9 13.2-4.1 5.3-6.1 8-10.1 13.3 2.3 52 3.4 78.1 5.7 130.2 2.1 51.9 3.2 81.4 3.4 88.4.7 30.9.1 54.7-2.2 70.9-3.9 28-9.1 47.9-15 59.4-6 11.6-14.5 18-25.7 19.4-17.1 2.2-35.2-5-54.4-21.4-19.1-16.6-35.3-38.9-48.5-67.2-4.2-9.7-6.2-14.5-10.4-24.2l-2.5-115.5c-.5-20.4-.8-30.6-1.3-51-.8-30-1.8-48.8-2.8-56.4-1.1-7.7-3.2-13.5-6.3-17.6-4.5-5.9-9.4-8.5-14.6-7.7-.4 0-1.4.3-2.9.8s-2.7.7-3.5.8c-8.6 1.8-15.2 6.7-19.7 14.9-3.3 6-5.1 15.2-5.4 27.5-.3 12.4.3 45.5 1.8 99.5 4.7 168.9 9.9 265.9 17.1 288 4.1 12.7 12.1 18.7 22.4 17.2 5.9-.8 11.4-4.7 16.4-11.4 4.6-6.1 7.5-18.1 8.7-35.8.5-10.6.7-15.9 1.2-26.5 7.2 6.9 10.7 10.4 17.9 17.3 26 24.9 54.8 36.5 86.5 35 1.7-.2 3.8-.4 6.2-.4 2.3-.1 3.9-.1 4.8-.3 8.1-1 18.1-5.8 29.9-14.2 21.1-15.7 35.8-39.5 44.1-71.5.8-2.6 1.6-6 2.6-10.1q1.5-6.3 2.7-10.5c.8-2.8 1.4-4.8 1.8-5.9.8-2.1 1.4-3.1 1.9-3.2 2.1-.2 7.7 6.6 16.6 20.6 26.3 41.6 57.5 66.2 93.8 73.9m370.1-102.6c-9.7 7.7-22.1 12-37.2 13.1-23.2 1.6-44.5-5.6-64.2-21.6-4.7-3.5-7-5.3-11.7-8.8.3-47 .5-70.4.8-117.4.5-77.7 1.8-117.3 4-119 5.6-4.5 15.7-7.3 30.4-8.4 10.3-.7 21.6-.3 33.7 1.4 27.7 4.5 49.1 17.4 64 38.5 15 21.1 22.7 48.9 23.1 83.5.2 19.5-1.8 39.4-5.7 59.7-7.4 37.9-19.7 64.4-37.2 79m-156 86.1c5.3 5.6 10.9 8.1 16.9 7.6 12.4-1 20.2-10.1 23.4-27.4.8-5.1 2.6-8.3 5.3-9.8 2.8-1.5 5.5-.5 7.5 2.8 2.2 3.6 11.6 7.3 28.2 10.6s31.5 4.5 44.8 3.5c18.4-1.2 34.3-6 47.5-14.4 19.5-12.3 35.1-28.2 46.5-47.9 11.3-19.6 20.3-47.2 27.4-81.8 5.1-24.7 7.9-49.5 7.6-74-.4-40.9-8.5-74.5-24.4-100.6q-10.65-18.15-30.6-39c-13.4-14-24.5-23.1-33.2-27.5-23.9-12.5-53.9-17.5-89.8-14.8-13.5 1-20.2 1.5-33.7 2.6-1.2-9.3-1.8-13.9-3-23.1-1.5-12.9-3.1-50.1-4.9-111.6-.2-10.2-.2-15.3-.4-25.5-4.1-15.7-18.1-17.4-41.8-5-9.9 3.4-14 17.8-12.9 42.5 2.1 48.5 4.1 152 7.6 309 1.6 85.9 2.5 128.8 4.1 214.7 3.2 3.6 4.8 5.5 7.9 9.1m321.4 119.3c.9 6.5 4 12 9.2 16.5 5.3 4.5 10.9 6.6 17 6.3 3.4-.1 7.3-1.6 11.6-4.3 8.2-5.9 12.1-20.1 12-42.6-.1-7-.4-12.2-.8-15.7-1.4-15-3.1-109.3-5.7-282.3-1.8-123-3.2-197.1-3.8-221.8-.7-24.8-2.7-38.9-5.7-42.3-4-4.6-9.6-7-17.1-6.7q-13.2.6-21 10.8c-3.5 4.7-5.8 10.4-7 17.3-1.3 6.8-2.4 21.5-3.6 44.1-1 21-1.4 55.9-.9 104.5.8 77.6 2.8 162.5 6.1 254.7 3.3 92.3 6.5 146.1 9.7 161.5m297.8-217.2c-11.1 7.6-24.9 12.2-41.2 13.5-3.4.1-5 .1-8.4.2-12.1.3-21.8-1.5-29.4-5.3-7.5-3.8-16.3-11.3-26.2-22.6-16.1-18-26.7-40.7-32.1-68.1-2.2-11-3.3-17.7-3.4-20.2 0-3 .9-5.5 2.6-7.6 9.4-9.8 32.2-16.6 68.5-20 6.4-.6 13.8-1 22-1.2 10.3-.3 20.9 2.9 31.7 9.1 10.3 5.8 20 14.9 28.9 27.3 8.8 12.3 14.2 23.8 15.9 34.3.5 1.5.7 3.7.7 6.7.1 21.6-9.8 39.5-29.6 53.9m-86.7 75.5c8.6 3.3 20.9 4.7 36.8 4.3q33.45-.75 58.5-11.7c13.3-5.7 26.4-15.7 39.3-29.8 12.8-14.2 22.5-29.2 28.3-44.6 6.1-16.4 9-32.4 8.9-47.4 0-29.6-11-58.7-33.1-86.9-28.4-36.1-63.9-53.9-105.7-52.9-1.3 0-3.6.1-6.9.5-3.2.3-5.7.5-7.4.6-20.7 2-38.4 5.5-53.1 10.4-6.4 2.7-12.9 4.2-19.3 4.4h-2c-.9-1.5 0-9.2 2.8-23.3 2.7-14.2 6-27.3 9.8-39.4 3.4-11.1 9.2-22.2 17.6-33.2s17.2-19.3 26.2-24.4c10.2-5.8 20.5-8.8 30.5-9 27.7-.7 49.2 12.5 64.4 39.3 7.4 12.4 13 20.4 16.9 23.7 4.6 4 9.8 5.9 15 5.9 6.9-.1 13-3.2 18.4-9.3 5.4-6 8.1-13.4 8.1-21.9-.1-11-4.7-24.2-14.1-39.6-9.3-15.4-20.1-27.6-32.2-36.4-25.6-18.1-49.1-26.9-70.3-26.4-1.3 0-3.2.1-5.6.4-2.3.3-4.4.5-6.1.6-32.1 2.7-60.4 17.6-84.9 44.4-17.3 19.1-30.6 45.1-40.1 78s-14.1 68.2-13.8 105.7c.1 15 1.3 31.8 3.6 50.2 5.4 41.8 17.8 77.5 36.9 106.9 19.2 29.3 43.3 49.6 72.6 60.9m476.7 170.6c12.8 4.3 28.2 6.7 46.1 7.2 21.9.6 39.7-1.4 52.1-6.6 12.3-5.2 24.6-15 36.5-28 11.9-13.1 20.4-26.5 25.7-40.3 2.6-6.5 5.3-19 8-37.6 2.8-18.7 4.2-33.1 4.2-43.1.1-3.5-.1-5.7-.6-6.8-2.8-17.1-10.7-26-23.6-26.5-6-.2-11.5 2.3-16.5 7.7-5 5.3-8.1 12.4-9.5 21.4-4.1 29.4-8.6 50.1-13.6 62.2s-12.9 21.9-23 27.4c-8.1 4.4-19.4 6.1-32.2 5.8-15.9-.5-31.6-4.3-47.2-11.4-15.6-7.2-26.6-16.2-31.7-26.7-5.7-11.6-8.3-25.2-8.2-39.2 0-10 1.8-20 5.2-30 9.2-24.3 43.5-65.6 103.3-122.7 46.7-44.6 76.8-79 89.3-103.5 13.2-25.8 19.9-54.5 20.1-85.5.4-43.1-11-79.6-34.1-109.6-16.4-22.2-39.6-39.3-68.6-49-19-6.4-36-9.4-49.4-9.7-29.5-.8-55.7 12.1-78.2 38.8-28.4 33.4-42.5 73.6-42.6 120.2-.1 25.5 4.7 49.9 14.6 72.3 10.5 23.6 21.7 35.7 32.9 35.9q9.15.15 18.6-10.5c6.2-7.1 9.4-14.3 9.4-21.6 0-7.2-3.2-17.1-8.9-29.1-6.1-12.9-9-28.3-8.9-45.3.1-21 4.7-40.2 13.9-57.5 9.1-17.3 21.1-28.8 35.8-34.5 1.8-.9 5.9-1.3 12.4-1.2 22.9.7 42.2 6.3 57.7 16.8 25.4 16.4 38.4 43.8 37.8 80.9-.4 23.9-6.2 44.4-16.7 61-10.5 16.7-33.9 42.3-70.4 76.7-42.7 40.4-73.3 73.5-91.5 99-18.1 25.4-29.9 50.9-35.1 76.4-2.6 11.5-3.9 20.7-3.9 27.7 0 3 .7 11.4 2.5 24.9 4 30.4 13.4 54.7 27.8 72.5 14.2 17.8 34.4 31.4 60.5 41.1m509.6-151.5c1.7 1.1 4.4 1.8 8.3 2.1 6.8.6 13.1-2 18.8-7.5 3-2.8 4.6-7.4 4.7-13.9.1-1 .1-8.4-.9-21.1-1.4-17.3-1.6-85.7-.1-203 1.1-80.9 1.2-131.4 1.1-151-.1-19.5-1.4-33.7-3.9-42.4-15.4-69.4-73.2-109.9-169.6-115-65.4-3.5-97.3 8.1-92.8 30.8-.1 13.5 5.6 23.3 17.3 29.5 5.6 2.8 10.8 4.3 15.6 4.6 3.4.2 12.4-.5 26.6-2.3 21.7-2.6 40-3.5 54.8-2.6 31.2 2 55.2 11.7 70.5 28.8 11.1 12.5 18.9 28.1 23.4 45.7s6.5 42.2 6.1 73.8c-.2 14.4-.6 26-1.2 34.4-2.4 40.8-3.7 61.4-4.1 61.3-10.2-12.1-15.3-18.2-25.5-30.4-30.6-36.7-60.2-56-88.7-57.8-6.9-.4-14.2-.1-22.1.9-60.2 9.6-96.7 53.5-109.5 130.8-5.1 32.8-7.7 64.3-8 94.3-.4 42.1 3 68 10.2 77.9 4.2 5.2 9.6 8 16 8.3 6.9.4 12.7-2.1 17.5-7.4 3.5-3.8 5.6-8.6 6.6-14.3.9-5.7 1.5-20.6 1.7-44.6.9-81.6 10.9-133.4 29.6-155.4 14.8-17.5 34.3-25.8 58.5-24.3 4.3.3 10 1.4 15.5 4 7.1 3.3 19.1 14.9 33.9 32.9 14.9 18.1 28 42.2 39.1 71 15.9 40.9 26.2 78.5 30 111.6 3.3 27.4 9.9 44.4 20.6 50.3m91.1 19.5c4.6 5.9 11 9.3 19.2 10 8.1.7 14.1-1.5 18.1-5.9 3.7-4.1 6.8-19.7 8.6-46.6 1-15.2 1.5-22.8 2.6-38.1 7.8 8.6 11.7 12.8 19.6 21.4 14.3 15.4 30.8 29.7 49.4 42.4 13.9 9.5 24.1 15.4 30.3 18.1 6.1 2.6 17.3 5.2 33 8 5.9 1 12.8 2.1 20.5 2.9 10.3 1.2 19.5-.1 27.8-3.7 15.1-5.8 27.6-13.9 37.2-24.3 9.7-10.4 14.7-20.6 14.9-30.6 0-.5-.1-1.3-.3-2.3s-.3-1.8-.2-2.3c-3.1-16.4-10.8-25.3-23.3-26.8-8.6-1-18.4 2.5-28 10.4-13.1 10.9-26.5 16.6-40.3 15.2-5.1-.6-10.9-2-17.3-4.1-43.6-14.2-81.3-51-113.4-110.6-4.3-7.6-6.4-11.4-10.6-19 .5-27.5 1.6-69 3.5-124.5 1.9-55.4 3.1-97.2 3.6-125.2-3.1-4.2-4.6-6.3-7.7-10.5-5-7.5-11.5-11.5-19.3-12.2-6.9-.7-13 2.1-18.3 8.1-8.4 9.3-13.2 52.2-14.5 128.8-.2 15-.7 59.7-1 133.7-.2 83.5.1 134.8.7 153.4.5 18.6 2.3 30 5.2 34.3m609.2 69.4c5 5.6 10 9 15.1 9.8 5.2.8 11.1-1.1 16.3-5.7 4.8-4.3 7.4-11.2 7.7-19.2.2-9-1.7-29.1-5.9-60.4-11.6-84.6-16.6-156.4-14.9-215.4 1.3-43.9 6.4-82.6 15.2-115.8 2-9.8 3-16.4 3.1-19.9.7-21.9-7.6-34.3-24.9-36.9-19.3-3-32.5 18.4-39.4 64-2.1 12.3-3.8 18.3-5.1 18.1s-6.1-7.2-14.3-20.9c-25.2-43.8-57-68.5-95.4-73.7-16.4-2.2-29.6-1.3-39.6 2.6-10.1 3.9-21.8 12.8-35.1 26.6-20.9 21.4-36.1 51.6-45.7 90.6-4.7 18-7.7 51.2-8.9 99.7-1 42-.3 82.8 2 122.5 2.2 39.6 5.9 64.3 10.7 73.9 4.6 9.1 11.7 14.3 21.5 15.5 9.9 1.3 16.4-1.9 19.6-9.5q2.7-5.7 3-16.2c.1-6-.6-20.4-2.1-43.1-2.2-31.9-2.9-68.6-1.8-110.1 1.2-50.5 4.3-85.3 9.1-104.2 7.7-30.5 17.2-52.7 28.8-66.2 12-13.9 24.6-20 37.5-18.3 29.7 4.1 54.6 30.6 74.4 79.3 19.7 48.8 31.1 89.2 33.4 120.5 1.6 22.1 5.5 56.3 11.9 102.2s11 75.7 14.1 89.1c2.2 9.3 5.6 16.4 9.7 21.1m258.1-40.6c-10 5.2-22.5 6.5-37.4 3.8-23.1-4-43.9-16.4-62.6-37.1-4.5-4.7-6.7-7.1-11.2-11.8 2.5-46.5 3.8-69.8 6.4-116.4 4.2-77.1 7.4-116.2 9.6-117.4 5.8-3 15.9-3.3 30.5-.8 10.3 1.8 21.4 5 33.4 9.6 27.2 11.3 47.7 29.4 61.5 54s20.1 54.2 18.8 88.6c-.7 19.5-3.6 38.8-8.5 58-9.1 35.8-22.5 59.1-40.5 69.5m-158.6 47.3c4.9 6.8 10.4 10.7 16.4 11.7 12.3 2 20.5-5.1 24.5-21.5 1-4.9 2.9-7.7 5.7-8.5s5.4.8 7.3 4.6c2 4.2 11.1 10.2 27.3 17.5 16.3 7.3 31.1 12.2 44.3 14.5q27.45 4.8 47.7-2.7c19.9-7.4 36.1-19.5 48.2-36.2 12.2-16.8 22.4-42 31.1-74.7 6.2-23.2 10.2-47.2 11.1-71.6 1.5-40.8-5-76.2-19.4-106-6.4-13.8-15.9-29.2-28.5-46.3-12.5-17.2-23-28.9-31.4-35.5-23.1-18.3-52.6-30.6-88.2-36.7-13.4-2.3-20.1-3.5-33.6-5.7-.7-9.5-1.1-14.2-1.8-23.7-.9-13.2-.8-50.6.4-112.2.3-10.2.5-15.3.8-25.5-3.4-16.6-17.1-21.7-41.2-15.1-10 .9-14.7 14.1-14.8 39-.3 48.7-3.1 152.2-7.2 309.2-2.4 85.7-3.6 128.6-6.1 214.4 3 4.4 4.5 6.6 7.4 11" style="fill:#100f0d;fill-opacity:1;fill-rule:nonzero;stroke:none" transform="matrix(.00757 0 0 -.00757 -132.783 269.44)"/></svg>