<svg xmlns="http://www.w3.org/2000/svg" xml:space="preserve" width="200mm" height="200mm" viewBox="0 0 200 200"><path d="M6491.91 26958.8c-317.57 0-532.65 70.5-670.63 143.7 24.09 103.9 38.03 214.3 42.08 332.1 5.71 165.9 9.89 320.6 12.53 466.7 4.36-2.3 8.88-4.4 13.55-6.4 163.81-70.2 370.59-108.1 632.16-115.8 15.76-.4 31.23-.6 46.47-.6 209.12 0 370.02 41.7 475.3 74.2 8.44 2.6 16.47 5.8 24.02 9.5.14-8 .28-16 .42-24.1 2.04-117.7 4.05-233.5 5.5-345.7 1.97-152.7 24.44-303.6 66.07-447.7-196.2-49.7-417.77-85.9-647.47-85.9" style="fill:#ddf3f2;fill-opacity:1;fill-rule:nonzero;stroke:none" transform="matrix(.01388 0 0 -.01388 10.435 433.172)"/><path d="M8325.58 24530c-27.16-968.5-286.77-6303.7-291.48-6553-.99-49.6-21.73-97.9-59.61-144.2-181.41-221.3-756.23-392.2-1435.26-392.2-739.36 0-1391.51 160.3-1579.5 399.4-34.3 43.4-53.17 89.3-54.6 137.1-6.73 223.8-311.5 5418.7-322.94 6387.9-6.87 587.3-56.47 1190.6 300.49 1673 152.67 206.3 611.28 445.8 748.37 667.6 79.9 129.4 133.23 266.8 165.82 410.3 136.52-77.8 358.1-157.1 695.04-157.1 239.73 0 470.61 39.5 673.03 92.5 30.16-104.2 70.76-205.6 122.08-302.4 113.5-213.5 510.49-412.8 659.45-587.9 396.41-466.3 396.13-1026.6 379.11-1631" style="fill:#c03222;fill-opacity:1;fill-rule:nonzero;stroke:none" transform="matrix(.01388 0 0 -.01388 10.435 433.172)"/><path d="M6539.25 17467.1c-736.46 0-1362.62 161.3-1550.34 379.5 358.44 81.2 1001.18 268.5 1102.44 375.6 82.39 87 201.68 224.6 382.76 224.6 116.16 0 257.74-56.6 431.37-219.3 216.79-203.2 706.17-326 1039.44-389.2-186.59-209.2-765.25-371.2-1405.67-371.2" style="fill:#95321d;fill-opacity:1;fill-rule:nonzero;stroke:none" transform="matrix(.01388 0 0 -.01388 10.435 433.172)"/><path d="M5409.4 18169.4c-78.26 0-147.44 61.1-151.68 144.4-28.71 564.1-114.1 2254.3-184.35 3770.2 44.72-50.8 107.82-88.7 181.95-105.6 166.73-38.2 329.29-69.3 489.06-93.5 35.41-1484.2 85.41-3041 99.5-3471.6 2.25-68.6-41.72-130.1-107.33-150.3l-282.14-86.8c-15.08-4.6-30.2-6.8-45.01-6.8m-437.36 6619.4c34.55 787.7 670.42 1452.1 670.42 1452.1 8.9 1.3 17.43 1.9 25.65 1.9 308.58 0 143.68-879.5 60.13-1340.6-3.95-21.8-7.28-55.6-10.05-100.2-160.36 13.1-323.78 29.7-491.43 49.7-14.81 1.7-29.65 2.6-44.41 2.6-76.28 0-150.62-23.2-210.31-65.5m2666.88-6593.6c-.63 0-1.25.1-1.88.1h-1.66c-47.32 2.2-83.87 47.8-81.62 101.9l185.27 3662.3c85.02 34.4 150.6 99.1 180.73 177.1l-194.64-3847.4c-2.18-52.7-40.43-94-86.2-94m407.8 6451c-14.72 28.5-34.61 55.1-59.31 78.9-30.45 29.3-66.08 52.3-105.01 68.5l24.83 490.9c2.2 53.1 41.18 94 87.23 94 .84 0 1.67-.1 2.52-.1 47.31-2.2 83.86-47.8 81.63-101.8z" style="fill:#e36f66;fill-opacity:1;fill-rule:nonzero;stroke:none" transform="matrix(.01388 0 0 -.01388 10.435 433.172)"/><path d="M5910.96 29540.3c-49.92-231.6-51.83-482-44.45-652.6 18.04-417.3 17.08-865.4-3.15-1453.1-9.88-287.2-78.5-530.2-209.8-742.8-75.62-122.5-242.82-247.9-404.52-369.1-141.96-106.5-276.04-207.1-345.05-300.3-317.82-429.5-307.77-968.3-298.05-1489.4 1.03-55.9 2.08-111.8 2.73-167.6 8.36-708.5 174.96-3701.8 264.47-5309.8 32.87-590.6 56.61-1017.3 58.44-1077.7 8.48-281.6 729.68-510.8 1607.67-510.8 777.06 0 1463.2 238.5 1468.36 510.4l26.44-.5-26.44.5c1.81 95.7 40.77 932 90.09 1990.6 77.93 1673.3 184.69 3964.9 201.46 4562.6 14.98 533 31.95 1137-372.89 1613.2-59.83 70.3-162.52 145.8-271.25 225.7-158.37 116.4-322.12 236.8-391.28 367-121.14 228.1-187 489.4-190.43 755.8-1.45 112.2-3.46 228-5.5 345.7-6.99 402.7-14.21 819-1.64 1199.4 1.27 38.1 3.57 75.4 5.79 111.4 8.04 129.9 15.64 252.8-28.13 386.4-132.41 40.5-979 55.6-1132.87 5m628.29-12126.1c-433 0-841.06 54.1-1149.02 152.2-329.72 105-506.62 246.8-511.52 409.9-1.8 59.8-25.52 486.2-58.37 1076.3-89.54 1608.5-256.19 4602.5-264.55 5312.2-.65 55.6-1.71 111.4-2.73 167.2-9.9 529.9-20.1 1077.9 308.4 1521.8 73.62 99.5 210.7 202.3 355.85 311.2 157.76 118.3 320.88 240.6 391.24 354.6 126.34 204.5 192.41 439 201.96 716.9 20.16 586.1 21.14 1033 3.15 1448.9-7.66 177.2-5.44 439 48.68 680.1l2.81 12.5 11.58 5.6c137.52 65.8 1092.03 46.4 1199.4-4l10.06-4.8 3.67-10.5c51.62-148.1 43.5-279.5 34.89-418.7-2.2-35.6-4.48-72.5-5.72-109.8-12.52-379.1-5.31-794.8 1.66-1196.8 2.04-117.7 4.05-233.6 5.5-345.9 3.34-258 67.06-511 184.25-731.7 63.52-119.6 222.33-236.3 375.89-349.2 111.3-81.8 216.41-159 280.22-234.1 418-491.6 400.74-1106.4 385.51-1648.8-16.81-598.3-123.57-2890.2-201.52-4563.6-49.32-1058.3-88.25-1894.2-90.05-1989.2-5.9-310-688.31-562.3-1521.24-562.3" style="fill:#231f20;fill-opacity:1;fill-rule:nonzero;stroke:none" transform="matrix(.01388 0 0 -.01388 10.435 433.172)"/><path d="m8050.28 24506.1-139.24-2287.6c-1.01-17.3-3.87-34-8.44-50.3v-.1c-23.16-82.8-88.91-151.4-177.54-185.7-17.3-6.8-35.46-12.2-54.33-16-645.16-133.7-1245.71-157.9-1914.73-56.8-160.39 24.1-324.78 55.6-494.77 94.5-78.18 17.9-143.23 61.2-184.55 118.5-27.73 38.3-44.89 82.9-48.03 130.4l-156.53 2284.5c-5.87 86.2 33.59 164 98.92 217.3 65.04 53.2 155.82 82.1 252.61 70.6 167.82-20 331.93-36.6 493.18-49.6 683.76-55.7 1319.03-49.7 1989.5 17.2 37.16 3.7 73.47 1.4 107.5-6 67.33-14.3 126.37-48.3 168.68-95 45.89-50.3 72.05-115.3 67.77-185.9" style="fill:#ecf9f7;fill-opacity:1;fill-rule:nonzero;stroke:none" transform="matrix(.01388 0 0 -.01388 10.435 433.172)"/><path d="m8035.41 24625.9-132.43-2459.8v-.2c-25.2-82.2-92.64-149.1-182.09-181.2l158.16 2801.5c66.96-15.9 115.21-112.7 156.36-160.3" style="fill:#fff;fill-opacity:1;fill-rule:nonzero;stroke:none" transform="matrix(.01388 0 0 -.01388 10.435 433.172)"/><path d="M5182.15 24801.4c-79.01 0-155.3-28.8-209.61-80.5-52.32-49.8-78.6-114.3-73.98-181.6l156.49-2284.5c7.34-107.1 92.57-197.5 212.08-224.9 859.28-196.6 1576.5-207.9 2398.21-37.7 122.47 25.4 212.63 119.1 219.27 228l139.28 2287.4c4.03 66.4-21.95 130.1-73.16 179.3-62.15 59.8-150.28 88.9-241.77 79.8-834.69-83.2-1602.14-73.2-2488.46 32.4-12.8 1.6-25.61 2.3-38.35 2.3m1378.16-2979.6c-422.31 0-848.03 52-1304.99 156.6-142.41 32.6-244.08 142.2-253.03 272.8l-156.49 2284.4c-5.71 83.4 26.35 162.8 90.29 223.6 74.34 70.7 183.03 105.3 290.67 92.5 882.36-105.2 1646.28-115.2 2476.95-32.4 106.96 10.7 210.37-23.7 283.7-94.2 62.55-60.2 94.26-138.6 89.27-220.7L7937.4 22217c-8.08-132.7-115.54-246.4-261.33-276.6-381.4-79-747.29-118.6-1115.76-118.6" style="fill:#231f20;fill-opacity:1;fill-rule:nonzero;stroke:none" transform="matrix(.01388 0 0 -.01388 10.435 433.172)"/><path d="M7666.33 23251.7c-758.71-137.4-1554.25-140.6-2387.04 1.5-75.74 12.9-132.78 76.2-137.88 152.8l-58.97 888.2c-6.92 104.2 82.86 188.4 186.54 175.8 805.01-97.7 1604.8-99.2 2398.88-.5 103.01 12.8 192.62-70.3 186.54-173.9l-52.15-890.1c-4.48-76.4-60.57-140.1-135.92-153.8" style="fill:#3079a0;fill-opacity:1;fill-rule:nonzero;stroke:none" transform="matrix(.01388 0 0 -.01388 10.435 433.172)"/><path d="M5755.25 21936c-158.49 24.3-320.66 55.6-488.12 93.9-90.18 20.7-160.84 77.2-193.24 149.7-55.91 1142.9-102.94 2203.8-103.28 2539.5.64.6 1.28 1.2 1.93 1.8 54.31 51.7 130.6 80.5 209.61 80.5 12.74 0 25.55-.7 38.35-2.3 168.95-20.1 333.5-36.7 495.1-49.9-3.56-83.2-5.57-192.4-6.28-323.1-146.6 11.4-293.38 26.1-440.34 43.9q-10.38 1.2-20.55 1.2c-94.68 0-172.45-79.8-165.99-177l58.97-888.2c5.1-76.6 62.14-139.9 137.88-152.8 149.33-25.5 297.49-46.3 444.43-62.5 8.18-391.6 19.19-820.3 31.53-1254.7" style="fill:#fafdfd;fill-opacity:1;fill-rule:nonzero;stroke:none" transform="matrix(.01388 0 0 -.01388 10.435 433.172)"/><path d="M5756 21909.6c-160.39 24.1-324.78 55.6-494.77 94.5-78.18 17.9-143.23 61.2-184.55 118.5l-2.79 57c32.4-72.5 103.06-129 193.24-149.7 167.46-38.3 329.63-69.6 488.12-93.9zm-785.39 2809.5v3.6c0 10.7.14 21.4.43 32.1 55.54 45.4 129.84 73.1 210.63 73.1 13.82 0 27.83-.8 41.98-2.5 167.82-20 331.93-36.6 493.18-49.6-.43-8.5-.84-17.4-1.23-26.6-161.6 13.2-326.15 29.8-495.1 49.9-12.8 1.6-25.61 2.3-38.35 2.3-79.01 0-155.3-28.8-209.61-80.5-.65-.6-1.29-1.2-1.93-1.8" style="fill:#434345;fill-opacity:1;fill-rule:nonzero;stroke:none" transform="matrix(.01388 0 0 -.01388 10.435 433.172)"/><path d="M5723.72 23190.7c-146.94 16.2-295.1 37-444.43 62.5-75.74 12.9-132.78 76.2-137.88 152.8l-58.97 888.2c-6.46 97.2 71.31 177 165.99 177q10.17 0 20.55-1.2c146.96-17.8 293.74-32.5 440.34-43.9-1.66-311.1 4.13-743.9 14.4-1235.4" style="fill:#54a2b9;fill-opacity:1;fill-rule:nonzero;stroke:none" transform="matrix(.01388 0 0 -.01388 10.435 433.172)"/><path d="M5577.54 23799.9c-19.88 8.9-42.99 14.6-69.32 17.1-29.56 2.7-59.02 1.2-88.29-4.5-6.6-1.2-9.9-1.8-16.49-3 4.28-45.6 6.43-68.4 10.71-113.9 7.17-76.5 12.49-116.7 15.97-120.7 3.46-4 15.24-9 35.3-15.2 20.07-6.1 37.98-9.9 53.75-11.4 84.64-8 133.88 24.3 148.14 95.5 2.02 9.1 2.61 20.2 1.75 33.1-1.73 26-10.61 49.9-26.76 71.8-16.14 22-37.73 39-64.76 51.2m-7.88 249.1c-23.49 30.4-57.68 47.5-102.31 51.8-27.55 2.6-53.49-1-77.7-10.9-6.96-2.7-10.44-4-17.39-6.7 4.21-40.6 6.31-60.9 10.52-101.5 8.08-67.8 12.73-102.6 13.88-103.5.9-.7 1.95-1 2.49-1 5.95-.6 19.93 1.8 42.02 7.3s41.76 11.7 59.01 18.3c17.26 6.6 32.62 15.4 46.12 26.3 13.49 10.9 23.47 21.7 28.92 31.9 4.35 8.2 6.5 22.7 6.69 42.8-.15 2.1-.2 4.8-.17 8.2.03 3.3.01 5.5-.07 6.5-.81 11.4-4.81 21.6-12.01 30.5m-140 117.3c9.81.6 20.24.4 31.29-.7 46.96-4.5 88.19-19.1 123.35-43.6 43.04-30 66.31-69.6 69.6-119.4 3.05-46.2-11.98-85.6-44.63-118-8.77-8.2-13.15-12.3-21.88-20.6 12.73-6.6 19.08-9.9 31.78-16.6 34.57-18.3 62.92-43.5 85-75.6s34.08-65.5 36.2-100.3c.57-9.3.3-18.1-.79-26.3-4.72-44-19.36-80.4-43.71-109-24.36-28.5-56.51-46.6-96.58-54-17.44-3.6-41.58-4-72.46-1.1-34.03 3.2-62.86 9.3-86.37 17.8-30.35 10.9-50.89 22.6-61.11 35-10.23 12.4-18.14 34.7-23.69 66.7-3.36 19.4-10.61 89.2-21.73 209.4-2.6 28.1-3.91 42.1-6.5 70.2-8.11 94.5-12.16 141.8-20.24 236.3 3.27 3.3 4.91 5 8.2 8.4 9.97 9.7 25.66 18.4 47.08 26.2s43.83 12.9 67.19 15.2m357.7-74.2c5.76 5.3 14.17 7.6 25.25 6.9 5.52-.3 11.12-2 16.79-4.9 10.77-5.8 19.08-31 24.89-75.5 5.8-44.6 13.03-139 21.91-283.1 2.58-42 5.32-91 8.1-147 1.94-38.9 2.65-66.7 2.18-83.5-.48-16.7-1.92-27.4-4.32-31.9s-7.1-8.1-13.61-10.8c-6.09-2.6-10.8-4-13.95-3.8s-7.96 2-14.44 5.6c-9.72 5.2-15.53 10.8-17.42 16.6-.62 1.6-7.35 98-20.39 289.2-13.02 191.2-19.42 290.2-20.1 295.4-.45 3.5-1.25 7.6-1.48 11.8-.32 5.7 1.87 10.7 6.59 15m378.47 6.7c17.63.4 36.97.8 57.75 1.1 20.79.2 37.12.5 49.05.8 11.91.3 18.98.4 21.21.4 1 0 1.5-.1 2.49-.1 7.77-.1 15.56-2.1 23.38-5.9 7.81-3.8 13.04-7.8 15.12-12 1.77-3.5 2.61-8.9 2.69-15.8.12-8.9-1.46-15.4-4.72-19.5-4.89-6.2-11.87-10.3-20.95-12.2-9.08-2-24.66-2.7-46.72-2.3-33.11.7-57.39.6-72.79-.5l-28.07-1.5c2.24-60.3 3.35-90.4 5.57-150.7.53-20.2.79-30.3 1.31-50.5.96-36.8 1.36-68.1 1.23-93.9-.13-25.9-.54-61.4-1.23-106.3-.68-45-1.21-79.2-1.66-102.4-.66-33.6-1.58-54.7-2.66-63.2-1.09-8.5-3.93-15-8.54-19.5-6.65-6.5-14.7-9.6-24.16-9.2-9.47.3-17.18 3.4-23.15 9.3-4.34 4.3-7.12 9.1-8.33 14.3q-1.845 7.8-2.82 38.1c-1.03 31.6-1.57 82.6.71 150.5 2.54 75.6 3.28 176.5-.6 300.3-1.44 46.1-3.06 71.5-4.86 76.3-1.79 4.4-2.69 6.6-4.48 11-13.86-.7-20.79-1.1-34.63-1.7-19.24-1.3-38.21-1.5-56.94-.7-29.22 1.4-48.58 5.2-57.4 11.4-8.49 5.9-13.03 14.5-13.5 25-.34 7.9 2.14 14 7.47 18.4 4.76 4 20.01 6.4 45.66 7.6 25.64 1.1 87.6 1.2 184.57 3.4m484.15-4c17.68 1.1 37.05 2.5 57.86 3.6 20.81 1.2 37.17 2.2 49.12 3 11.93.8 19.01 1.3 21.24 1.3.99.1 1.49.1 2.49.1 7.76.2 15.49-1.4 23.17-4.9 7.67-3.4 12.76-7.3 14.68-11.3 1.63-3.5 2.27-8.9 2.09-15.7-.22-8.9-2.04-15.5-5.45-19.7-5.13-6.5-12.27-10.9-21.43-13.2-9.16-2.4-24.77-3.8-46.83-4.3-33.11-.8-57.42-2-72.88-3.8-11.27-1.1-16.9-1.7-28.17-2.7-.03-60.3-.04-90.4-.09-150.7-.24-20.1-.36-30.2-.59-50.4-.43-36.8-1.21-68.1-2.31-94-1.11-25.9-2.86-61.4-5.23-106.4-2.38-45.1-4.2-79.3-5.53-102.6-1.91-33.6-3.63-54.7-5.04-63.3s-4.5-15.2-9.28-19.9c-6.91-6.8-15.09-10.2-24.56-10.3s-17.07 2.7-22.83 8.3c-4.19 4.1-6.8 8.8-7.82 13.9q-1.545 7.8-1.38 38.1c.16 31.6 1.54 82.6 6.38 150.6 5.39 75.9 9.93 176.8 10.71 300.6.29 46-.37 71.4-2 76-1.63 4.4-2.44 6.5-4.07 10.9-13.91-1.4-20.87-2-34.77-3.3-19.33-2.2-38.35-3.2-57.09-3.2-29.25.1-48.53 3-57.14 8.8-8.26 5.6-12.51 14-12.58 24.5-.05 7.8 2.67 14.1 8.18 18.8 4.92 4.1 20.31 7.3 46.07 9.5 25.76 2.3 87.91 5.1 185.08 11.7m265.26 5.3c6.21 3.9 21.24 6.3 45.08 7.3 27.16 1.1 67.42 1.8 120.43 2.6 43.08.7 68.96 1.1 77.5.6 8.52-.5 15.42-3.9 20.65-8.8 6.76-6.3 10.82-13.9 10.33-23-.48-9.1-5.06-17.6-13.71-25.3-6.27-5.6-14.19-8.6-23.55-9.2-7.72-.5-14.13-.5-18.97-.3-8.05.2-41.76-.5-100.65-.8-28.4-.2-42.61-.2-71.03-.2-1.06-47.5-1.58-71.3-2.65-118.8-1.78-79.2-2.17-119.3-1.12-120.3.98.1 1.46.1 2.44.1 5.4.3 17.48 2.2 35.87 5.5 24.8 4.5 48.39 7 70.05 8.2 4.23.2 6.34.3 10.56.6 21.64.6 35.13.5 40.48-.5 5.34-1 10.96-4.2 15.71-9.5 6.13-6.9 8.95-14.6 8.59-21.6-.35-7-3.93-13.8-10.71-20.4-5.66-5.5-11.32-8.8-17.01-9.9s-21.45-3-46.55-4.6c-35.17-2.2-63.39-5-83.44-9.6-12.36-2.4-18.53-3.6-30.87-6l-4.65-105.7-1.15-31.8c-1.8-49.8-1.9-77.4.24-80.7 1.87-2.9 16.75-3.9 42.67-2.7 19.35.9 29.03 1.4 48.37 2.4 14.3 1.2 31.23 2.4 50.79 3.5 24.3 1.4 40.54-.4 46.33-5.8 6.46-5.9 9.47-15 8.96-24.6-.5-9.6-3.88-16.9-9.8-21.9-7.69-6.6-19.21-11.5-34.55-14.5-15.35-3-43.52-5.9-84.54-8.5-14.19-.7-21.29-1-35.49-1.7-22.08-1-36.8-1.1-44.11-.4s-16.05 2.7-26.18 5.9c-10.15 3.2-18.46 10.2-24.97 20.8-7.47 12.1-11.74 29.5-12.63 52.3 3.79 104.1 5.7 156.1 9.52 260.3 5.13 150.7 9.08 239.2 11.82 265.4s9.75 43.1 21.08 50.8zm530.34-5.4c-17.45 1-30.05 1.2-37.76.6-8.28-.7-19.96-3-35.02-6.7-36.29-9.2-56.2-16.3-59.84-21.8-1.82-2.7-3.49-16-5-39.8-5.41-85.6-6.73-171.5-4.22-257.5.31-10.2.46-15.3.77-25.5l18.52 1.5c12.89 1 29.68 4.6 50.42 11 72.45 20.4 127.47 46.6 165.08 77.6 37.58 31 59.8 68.9 66.38 113.4.4 4.6.61 7 1.01 11.7 3.62 41.5-8.03 73.8-35.2 96.9-27.19 23.1-68.94 35.7-125.14 38.6m-105.49 47.8c19.66 6.1 39.81 10.1 60.33 11.8 2.76.2 7.47.5 14.1.8s11.88.6 15.76.9c85.74 5.3 150.51-10.4 193.63-46.6 37.16-31.2 55.6-73.9 54.31-128.6.15-4.1-.17-10.6-.99-19.4-2.74-29.7-12.15-59.5-28.27-88.9-19.54-35.5-45.03-65.8-75.61-90.6-30.59-24.8-70.8-47-120.62-66.5-17.09-6.8-25.62-10.2-42.68-17 12.5-7.5 18.75-11.3 31.2-18.9 97.29-58.3 148.92-91.1 157.49-100.5 4.19-5.7 5.93-12.5 5.23-20.3s-3.43-15.1-8.2-21.8c-4.77-6.6-10.89-11.1-18.38-13.5-2.15-.7-4.8-1.3-7.95-1.6-4.73-.5-11.57 1.7-20.55 6.4-8.97 4.8-28.3 16.5-58.23 35.2-98.76 61.7-156.28 96.5-169.71 102.1-7.13 2.9-10.71 4.3-17.85 7.2-2.58-39.9-3.87-59.8-6.44-99.7-2.79-43-5.69-69.6-8.69-79.6-3-10.1-9.84-16.7-20.51-20.1-1.62-.7-4.27-1.1-7.94-1.4-13.14-1-22.55 3.3-28.28 12.7-3.35 5.4-2.49 56.7.32 151.8 2.97 100.1 3.32 165.8 3.42 194.7.24 69.7 2.86 146.9 7.76 231.5 1.09 18.6 2.06 29.3 2.68 31.9.83 3.5 12.21 11.2 34.38 22.6 22.16 11.4 42.33 19.8 60.29 25.4" style="fill:#fff;fill-opacity:1;fill-rule:nonzero;stroke:none" transform="matrix(.01388 0 0 -.01388 10.435 433.172)"/><path d="m5830.53 30149.6-7.38-2131.3c-.21-46.7 33.73-80.7 76.7-99.1 140.06-60 334.35-105.1 622.54-113.6 243.02-7.2 425.29 45.2 513.19 72.4 45.94 14.1 80.6 51.5 80.6 99.6v2185.6c0 56.8-46.41 102.6-103.16 101.8l-1081.99-14.1c-55.54-.7-100.25-45.8-100.5-101.3" style="fill:#e0c13b;fill-opacity:1;fill-rule:nonzero;stroke:none" transform="matrix(.01388 0 0 -.01388 10.435 433.172)"/><path d="m5856.97 30149.5-7.37-2131.3c-.2-43.9 42.36-66.9 60.66-74.7 157.61-67.5 358.1-104 612.91-111.5 223.91-6.5 395.25 37.5 504.61 71.2 37.64 11.7 61.96 40.8 61.96 74.4v2185.6c0 20.3-7.96 39.4-22.43 53.7-14.47 14.2-34.08 21.6-53.93 21.7l-1082-14.1c-40.85-.6-74.21-34.2-74.41-75.1zm711.1-2371c-15.24 0-30.71.2-46.47.6-261.57 7.7-468.35 45.6-632.16 115.8-58.33 25-92.98 71.2-92.72 123.6l7.37 2131.2c.32 69.5 57.1 126.7 126.6 127.7l1081.99 14.1c34.59.5 67.18-12.7 91.8-37 24.61-24.3 38.14-56.7 38.14-91.3v-2185.6c0-57.3-38.95-106.3-99.25-124.9-105.28-32.5-266.18-74.2-475.3-74.2" style="fill:#231f20;fill-opacity:1;fill-rule:nonzero;stroke:none" transform="matrix(.01388 0 0 -.01388 10.435 433.172)"/><path d="M6019 28048.5h-3.28c-159.58 4.2-125.99 277.2-125.99 277.2v1088c19.67-11 40.72-19.6 62.79-25.7 65.87-18.1 131.92-32.9 196.32-44.2.19 0 .37 0 .55-.1l-7.7-1043.2s20.72-252-122.69-252" style="fill:#eedd89;fill-opacity:1;fill-rule:nonzero;stroke:none" transform="matrix(.01388 0 0 -.01388 10.435 433.172)"/><path d="m7150.05 29797.2-1.11 1.8.99 63.1c11.87 25.2 29.3 100 29.3 127.8l-11.25 475.9H5773.76l-3.46-488.3c.12-15.2 11.61-44.6 15.82-59.3l3.33-11.6 3.59-98.8c-10.51-27.5-16.07-56.9-16.19-86.5-1.83-30.6-3.46-57.5-4.89-81.6l.55-1.9c.4 20.1.82 28.5 1.25 17.9 0-10 .65-20 1.83-29.7 2.9-11.2 6.64-21.7 17.82-27.3-11.18 5.6-14.92 16.1-17.82 27.3 8.9-74.4 50.63-139.9 112.12-180.1 21.63-14.2 45.72-25.2 71.81-32.4 64.88-17.8 129.52-32.4 193.92-43.6 280.9-49.6 558.12-37.6 831.5 40.6 108.15 30.9 183.04 129.1 183.04 241.5.28 9.3.55-3.1.8-28.4.76 7.3 1.69 14.6 3.06 22-.94 23.4-2 49.5-3.25 79.3 0 25.2-6.42 50.1-18.54 72.3" style="fill:#e0c13b;fill-opacity:1;fill-rule:nonzero;stroke:none" transform="matrix(.01388 0 0 -.01388 10.435 433.172)"/><path d="M5803.36 29618.6c10.33-61.6 45.92-116 98.82-150.6 19.7-12.9 41.33-22.7 64.34-29 64.25-17.6 128.66-32.1 191.46-43.1 279.03-49.2 554.81-35.7 819.69 40.1 96.48 27.5 163.87 116.4 163.87 216 .17 5.9 1.3 10.6 3 14.4-.72 17.5-1.49 36.6-2.36 57.4-.02 21.4-5.17 41.7-14.89 59.9l-4.9 7.6 1.17 76.9 2.44 5.2c10.51 22.3 26.79 93.1 26.79 116.5l-10.64 449.5H5800.01l-3.28-462.1c.07-6.6 6.5-26 9.95-36.5 1.93-5.8 3.66-11.1 4.86-15.3l4.24-14.7 3.88-107.4-1.91-5c-9.49-24.9-14.34-50.9-14.46-77.2l-.51-9.4-3-50.2c.19-1.5.34-3.1.4-4.8.03-9 .51-17.4 1.45-25.9 1.79-6.4 2.94-8.2 3.6-8.5zm681.71-304.6c-111.27 0-223.49 9.9-336.23 29.8-64.4 11.3-130.45 26.1-196.32 44.2-28.38 7.8-55.08 19.8-79.32 35.8-30.76 20.1-56.77 45.6-77.03 75l-.74-37.5-22.13 77.4c-12.01 25.7-20.1 53.4-23.76 82.3l-3.69 13.8-.28 6.4 4.84 81c.19 30.6 5.59 60.8 16 89.9l-3.26 90.3-2.45 8.5c-1.04 3.7-2.58 8.3-4.25 13.3-7.07 21.4-12.49 38.9-12.6 53.1l3.65 515h1446.31l11.86-501.8c0-29.5-16.07-101.5-29.39-134.1l-.78-50.7c12.81-25.1 19.55-52.9 19.55-80.8 1.21-28.7 2.28-54.8 3.2-78.3l.12-3-.54-2.9c-1.23-6.6-2.06-13.2-2.74-19.8l-2.38.1c-12.35-109.8-91.32-204.7-200.51-235.9-165.54-47.4-335.17-71.1-507.13-71.1" style="fill:#231f20;fill-opacity:1;fill-rule:nonzero;stroke:none" transform="matrix(.01388 0 0 -.01388 10.435 433.172)"/><path d="M6153.43 29396.7c-61.36 10.9-124.21 25.1-186.91 42.3-23.01 6.3-44.64 16.1-64.34 29-4.98 3.3-9.8 6.7-14.47 10.3v961.1h265.72z" style="fill:#eedd89;fill-opacity:1;fill-rule:nonzero;stroke:none" transform="matrix(.01388 0 0 -.01388 10.435 433.172)"/><path d="M6153.43 29357.5c-64.39 11.3-129.03 25.8-193.91 43.6-26.09 7.2-50.18 18.2-71.81 32.4v44.8c4.67-3.6 9.49-7 14.47-10.3 19.7-12.9 41.33-22.7 64.34-29 62.7-17.2 125.55-31.4 186.91-42.3zm0 1081.9h-265.72v9.9h265.72z" style="fill:#636567;fill-opacity:1;fill-rule:nonzero;stroke:none" transform="matrix(.01388 0 0 -.01388 10.435 433.172)"/><path d="m5800.06 30439.4-3.32-462c.08-6.8 6.59-26.4 10.08-37 1.87-5.6 3.54-10.8 4.73-14.8l4.27-14.8 3.87-107.4-1.93-5c-9.48-24.7-14.32-50.7-14.42-77.2l-.04-1.5c-14.2-236 44.95-250.8 134.49-273.2 9.38-2.4 18.97-4.8 28.72-7.4 346.12-95 686.33-96.1 1011.19-3.2l9.35 2.7c99.75 28.3 159.96 45.4 155.04 285.8-.45 22.2-5.58 42.4-15.25 60l-4.37 8 1.07 75.8 2.45 5.2c10.52 22.3 26.8 93.1 26.8 116.5l-10.64 449.5zm685.68-1125.3c-175.44 0-353.56 24.7-533.22 74-9.36 2.5-18.57 4.8-27.57 7.1-115.44 28.9-189.97 67.3-174.49 327 .18 30.8 5.56 61 15.98 90l-3.25 90.1-2.46 8.6c-1.02 3.5-2.51 8-4.14 12.9-7.11 21.5-12.57 39.2-12.74 53.5l3.69 515H7193.8l11.87-501.7c0-29.6-16.08-101.6-29.4-134.2l-.72-51c12.29-24 18.83-50.9 19.43-80 5.36-262.2-69.53-302.5-193.49-337.7l-9.24-2.6c-165.42-47.3-334.68-71-506.51-71" style="fill:#231f20;fill-opacity:1;fill-rule:nonzero;stroke:none" transform="matrix(.01388 0 0 -.01388 10.435 433.172)"/><path d="M7179.08 30470.6c0-70.2-139.19-126.8-331.25-162.2-108.87-20.1-237.66-30.1-376.95-30.1-139.28 0-267.79 11.5-376.67 31.6-192.06 35.5-317.68 90.5-317.68 160.7s124.42 131.7 316.48 167.2c108.88 20.1 238.59 31.3 377.87 31.3 139.29 0 269.27-9.7 378.15-29.9 192.06-35.4 330.05-98.4 330.05-168.6" style="fill:#eddb83;fill-opacity:1;fill-rule:nonzero;stroke:none" transform="matrix(.01388 0 0 -.01388 10.435 433.172)"/><path d="M6470.88 30642.6c-134.72 0-263.72-10.7-373.06-30.8-203.67-37.7-294.84-98.1-294.84-141.2 0-38.7 77.77-94.4 296.02-134.7 110.31-20.4 238.91-31.1 371.88-31.1 140.5 0 265.71 9.9 372.16 29.6 228.51 42.2 309.6 99.7 309.6 136.2 0 41.3-96.53 103.5-308.42 142.6-104.08 19.3-233.18 29.4-373.34 29.4m0-390.7c-136.14 0-268.07 11-381.48 32-225.15 41.6-339.31 104.4-339.31 186.7 0 113.7 211.84 169.9 338.12 193.2 112.45 20.7 244.78 31.7 382.67 31.7 145.37 0 274.21-10.2 382.95-30.3 105.75-19.5 351.69-77.5 351.69-194.6 0-101.7-191.9-158.5-352.88-188.2-109.6-20.3-238.05-30.5-381.76-30.5" style="fill:#231f20;fill-opacity:1;fill-rule:nonzero;stroke:none" transform="matrix(.01388 0 0 -.01388 10.435 433.172)"/><path d="M6470.88 30642.6c-134.72 0-263.72-10.7-373.06-30.8-203.67-37.7-294.84-98.1-294.84-141.2 0-38.7 77.77-94.4 296.02-134.7 110.31-20.4 238.91-31.1 371.88-31.1 140.5 0 265.71 9.9 372.16 29.6 228.51 42.2 309.6 99.7 309.6 136.2 0 41.3-96.53 103.5-308.42 142.6-104.08 19.3-233.18 29.4-373.34 29.4m0-390.7c-136.14 0-268.07 11-381.48 32-225.15 41.6-339.31 104.4-339.31 186.7 0 113.7 211.84 169.9 338.12 193.2 112.45 20.7 244.78 31.7 382.67 31.7 145.37 0 274.21-10.2 382.95-30.3 105.75-19.5 351.69-77.5 351.69-194.6 0-101.7-191.9-158.5-352.88-188.2-109.6-20.3-238.05-30.5-381.76-30.5" style="fill:#231f20;fill-opacity:1;fill-rule:nonzero;stroke:none" transform="matrix(.01388 0 0 -.01388 10.435 433.172)"/><path d="M6480.37 29730.8c-340.5 0-625.45 72-686.42 164.2-1.19-21.9-.6-65.8 3.55-88 65-90.8 342.44-155.6 679.31-155.6 342.58 0 617.12 55.6 673.45 145.3 1.41 16.5-1.26 45-1.91 72.2-90.26-80.3-357.02-138.1-667.98-138.1" style="fill:#c03222;fill-opacity:1;fill-rule:nonzero;stroke:none" transform="matrix(.01388 0 0 -.01388 10.435 433.172)"/><path d="M5822.56 29817.8c58.33-70.3 298.15-140 654.26-140 379.43 0 598.78 65.3 647.39 127.8.06 4.1-.04 8.8-.22 14-121.33-70-368.04-115.2-643.61-115.2-292.98 0-545.49 51.1-659.33 128.9.41-5.6.9-10.9 1.51-15.5m654.26-192.9c-347.8 0-629.44 67-700.81 166.7l-3.43 4.8-1.07 5.7c-4.59 24.6-5.26 70.6-3.98 94.3l4.33 80 44.14-66.8c49.52-74.9 311.55-152.3 664.38-152.3 295.94 0 563.39 54 650.39 131.4l42.64 37.9 1.38-57c.22-9.6.71-19.3 1.17-28.6.92-18.3 1.71-34.2.66-46.5l-.56-6.4-3.39-5.4c-72.99-116.3-407.32-157.8-695.85-157.8" style="fill:#231f20;fill-opacity:1;fill-rule:nonzero;stroke:none" transform="matrix(.01388 0 0 -.01388 10.435 433.172)"/><path d="M6498.01 22586.7c0-19.2-15.52-34.7-34.67-34.7-19.14 0-34.65 15.5-34.65 34.7 0 19.1 15.51 34.6 34.65 34.6 19.15 0 34.67-15.5 34.67-34.6m76.53 50c14.46 7.2 31.99 1.1 38.98-13.4l.13-.3c4.42-9.1 8.92-18.2 13.64-27.3 9.37-18 19.27-35.9 29.69-53.4 20.84-35.2 43.7-69.2 69.22-101.1 12.67-16.1 26.26-31.3 40.47-46 14.17-14.8 29.36-28.5 45.44-41.1 31.98-25.6 68.76-45.8 109.5-55.5-41.6 4.4-82.21 20.3-118.48 42.4a454 454 0 0 0-52.41 36.5c-16.63 13.3-32.76 27.4-47.98 42.3-30.65 29.7-58.81 61.9-85.05 95.6-13.13 16.8-25.78 34-37.96 51.6-6.12 8.8-12.05 17.7-17.93 26.7l-.39.7c-9.33 14.4-3.97 33.8 11.44 41.5z" style="fill:#c89519;fill-opacity:1;fill-rule:nonzero;stroke:none" transform="matrix(.01388 0 0 -.01388 10.435 433.172)"/><path d="M6523.89 22649.5c7.66 14.1 15.7 27.8 23.98 41.4l.53.6c12.61 15.3 27.4 29.6 45.78 40.3 18.33 10.5 40.73 16.7 63.78 13.7 11.53-1.4 22.67-5.4 32.67-10.6 10.05-5.2 19.08-11.7 27.07-18.9 16.01-14.4 28.87-30.6 40.69-46.9 23.21-33 42.27 118.9 62.7 86.7 20.17-32.2 41.86-63 67.38-87.1 12.64-12.1 26.28-22.2 40.27-30 7.06-3.8 14.13-7.3 21.45-10 7.31-2.7 14.76-4.7 22.39-6.2s15.44-2.5 23.45-2.8c8.12-.4 16.3-.2 24.49.6 16.37 1.5 32.82 5.4 48.93 11.5 32.35 12.1 63.1 32.5 91.51 56.8 28.46 24.4 54.76 52.6 79.05 83.4-2.87-9.5-6.45-18.7-10.42-27.8-3.9-9.1-8.24-18-12.98-26.7-9.28-17.7-20.27-34.5-32.37-50.7-24.43-32.1-55.03-61.4-93.19-81.9-19.05-10.1-39.93-17.9-61.88-22.1-10.96-2.2-22.15-3.4-33.39-3.7-11.37-.2-22.91.6-34.33 2.6-22.9 3.8-45 12.9-64.04 25.1-19.2 12.2-35.31 27.5-49.28 43.5-14.03 16-25.94 33-36.9 50.1-10.99 17.1-20.89 34.4-30.44 51.6-19 34.5-36.02-116.7-55.52-84.9-9.65 15.8-20.01 30.9-31.93 43.5-11.8 12.6-25.19 22.3-40.4 25.9-7.51 1.8-15.91 2.2-24.16 1.4-8.31-.8-16.64-3.1-24.86-6.2-16.54-6.4-32.23-16.9-47.14-28.6l.53.6c-10.86-11.6-21.95-23-33.42-34.2m1076.32-.2c5.51-11.9.33-26-11.58-31.6-11.91-5.5-26.03-.3-31.55 11.6-5.51 11.9-.33 26.1 11.58 31.6s26.04.3 31.55-11.6m-2230.18 176c-8.22-28.9-38.32-45.7-67.22-37.5s-45.66 38.3-37.43 67.2c8.22 28.9 38.32 45.7 67.22 37.5s45.66-38.3 37.43-67.2m2285.91 71.4c12.62-27.3.75-59.6-26.52-72.3-27.26-12.6-59.6-.7-72.23 26.6-12.62 27.2-.75 59.6 26.52 72.2 27.26 12.6 59.6.7 72.23-26.5m-133.67-264.8c4.86-22.4-18.71-46.6-52.65-54-33.94-7.3-142.39 11.5-142.39 11.5s90.84 62.5 124.78 69.8c33.94 7.4 65.4-4.8 70.26-27.3m-1172.25-12.3c-14.47 7.2-32 1.1-38.98-13.5l-.14-.3c-4.42-9.1-8.91-18.2-13.63-27.2-9.37-18.1-19.28-35.9-29.7-53.5-20.84-35.1-43.7-69.1-69.22-101-12.67-16.1-26.26-31.4-40.46-46.1-14.18-14.7-29.36-28.4-45.45-41.1-31.98-25.5-68.76-45.7-109.5-55.5 41.6 4.5 82.21 20.3 118.48 42.4 18.26 10.9 35.81 23.2 52.41 36.6 16.63 13.3 32.76 27.3 47.98 42.3 30.65 29.7 58.81 61.9 85.06 95.5 13.13 16.8 25.77 34.1 37.95 51.7 6.13 8.8 12.05 17.7 17.93 26.7l.39.6c9.33 14.5 3.97 33.8-11.44 41.5zm64.2 29.9c-7.66 14-15.7 27.8-23.98 41.3l-.53.7c-12.62 15.3-27.4 29.6-45.78 40.2-18.33 10.5-40.73 16.8-63.78 13.7-11.53-1.4-22.66-5.3-32.67-10.5-10.05-5.3-19.08-11.8-27.07-18.9-16.01-14.4-28.87-30.6-40.69-46.9-23.21-33-42.27 118.8-62.7 86.6-20.17-32.1-41.86-62.9-67.38-87-12.64-12.1-26.28-22.2-40.26-30-7.07-3.9-14.15-7.3-21.46-10s-14.76-4.7-22.39-6.2-15.44-2.5-23.45-2.8c-8.12-.4-16.3-.2-24.5.5-16.36 1.6-32.81 5.5-48.92 11.6-32.35 12-63.1 32.5-91.51 56.8-28.46 24.4-54.76 52.5-79.05 83.3 2.87-9.4 6.44-18.6 10.42-27.7 3.9-9.1 8.24-18 12.98-26.8 9.28-17.6 20.27-34.4 32.37-50.6 24.43-32.2 55.03-61.4 93.18-81.9 19.06-10.1 39.94-17.9 61.89-22.1 10.96-2.2 22.14-3.4 33.39-3.7 11.37-.2 22.91.6 34.34 2.6 22.88 3.8 44.99 12.9 64.03 25.1 19.2 12.2 35.31 27.5 49.28 43.5 14.03 16 25.94 33 36.9 50.1 10.99 17 20.89 34.3 30.44 51.6 19 34.4 36.02-116.7 55.52-85 9.65 15.9 20.01 31 31.92 43.5 11.81 12.6 25.2 22.4 40.41 26 7.51 1.8 15.91 2.1 24.15 1.3 8.32-.7 16.65-3 24.87-6.2 16.54-6.3 32.22-16.8 47.14-28.6l-.53.7c10.86-11.6 21.95-23.1 33.42-34.2m-1077.59-59.3c-3.6-12.6 3.72-25.8 16.34-29.4 12.63-3.5 25.77 3.8 29.36 16.4 3.6 12.6-3.72 25.8-16.35 29.4-12.62 3.6-25.77-3.8-29.35-16.4m79.69-5c-1.31-23 25.74-43.1 60.41-45.1s138.86 33.5 138.86 33.5-99.46 47.6-134.13 49.5c-34.67 2-63.83-15-65.14-37.9m250.77-64.3c-27.43-7.5-54.29-17.6-80.59-29.4-26.28-11.8-51.89-25.7-76.65-41.6-24.93-15.6-48.23-34.4-70.4-55.1l-16.23-16.1c-5.24-5.6-10.09-11.6-15.17-17.4l-3.82-5.2c-12.67-16.9-6.99-41.3 11.89-50.9 17.2-8.7 38.23-1.5 46.43 16 4.45 9.4 8.49 17.8 9.77 20l10.54 16.7c14.81 21.8 31.54 43.2 50.93 62.5 19.16 19.5 40.05 37.9 62.36 54.7 22.36 16.8 45.89 32.4 70.94 45.8m26.11 54.8c-22.15 17.8-42.69 37.8-62.09 59.1-19.33 21.4-37.25 44.4-53.57 68.8-16.58 24.4-30.41 50.9-42.44 78.7l-8.41 21.3c-2.57 7.2-4.61 14.7-6.92 22.1l-1.45 6.2c-4.81 20.6 10.13 40.6 31.28 41.9 19.26 1.1 35.65-13.9 36.17-33.2.29-10.5.61-19.8.91-22.3l2.99-19.5c4.83-25.9 11.58-52.2 21.62-77.7 9.75-25.6 21.53-50.8 35.22-75.1 13.77-24.3 29.08-48.1 46.69-70.3m1596.95-43.8c28.25-3.1 56.36-9 84.18-16.5 27.8-7.6 55.26-17.3 82.18-29.1 27.08-11.6 53.01-26.5 78.13-43.5l18.54-13.4c6.05-4.7 11.78-9.8 17.7-14.8l4.57-4.5c15.17-14.8 13.34-39.7-3.82-52.1-15.61-11.3-37.51-7.5-48.34 8.5-5.86 8.6-11.17 16.3-12.78 18.3l-13 14.8c-18.03 19.2-37.88 37.8-60.04 53.8-21.97 16.3-45.46 31.2-70.12 44.4-24.7 13-50.38 24.8-77.2 34.1m-42.86 48.9c21.62 18.5 41.57 39.2 60.33 61 18.7 21.9 35.94 45.4 51.54 70.3 15.86 24.9 28.91 51.8 40.12 80l7.78 21.5c2.36 7.3 4.18 14.8 6.27 22.2l1.27 6.3c4.2 20.7-11.31 40.3-32.5 40.9-19.28.6-35.22-14.9-35.18-34.2.02-10.5-.03-19.8-.25-22.3l-2.42-19.6c-4.07-26.1-10.06-52.5-19.34-78.3-8.99-25.8-20.03-51.3-33.01-76.1-13.04-24.7-27.65-48.9-44.61-71.7m-756.52-308.5c0-38.2-27.43-240.9-27.43-240.9s-27.41 202.7-27.41 240.9c0 38.3 27.41 207.2 27.41 207.2s27.43-168.9 27.43-207.2m19.7 643.3c0-32.8-48.18-168.9-48.18-168.9s-48.16 136.1-48.16 168.9c0 32.7 21.56 59.3 48.16 59.3 26.61 0 48.18-26.6 48.18-59.3m18.35-129c7.35 12.2 15.54 24.2 24.21 36.1s18.03 23.7 28.28 35.3c10.21 11.6 21.27 23 34.34 34 7.1 5.9 14.49 11.7 23.05 17.4 11.73 7.6 31.41 5.9 39.21-3.7 6.1-7.5 2.13-16.7-8.9-21.2-7.94-3.2-15.93-7.1-23.62-11.2-14.64-7.7-28.6-16.6-41.97-26-13.43-9.4-26.35-19.2-38.74-29.4-12.4-10.1-24.47-20.5-35.86-31.3m-120.89 0c-7.34 12.2-15.53 24.2-24.2 36.1s-18.03 23.7-28.29 35.3c-10.2 11.6-21.27 23-34.34 34-7.09 5.9-14.48 11.7-23.04 17.3-11.73 7.7-31.41 6-39.21-3.6-6.11-7.5-2.14-16.7 8.89-21.2 7.95-3.3 15.93-7.1 23.63-11.2 14.64-7.7 28.6-16.7 41.96-26 13.43-9.4 26.36-19.2 38.75-29.4 12.4-10.1 24.47-20.6 35.85-31.3" style="fill:#c89519;fill-opacity:1;fill-rule:nonzero;stroke:none" transform="matrix(.01388 0 0 -.01388 10.435 433.172)"/></svg>