<svg xmlns="http://www.w3.org/2000/svg" width="200mm" height="200mm" viewBox="0 0 200 200"><path d="M35115.7 20226.5c-137.4 0-291.4 8.6-462.3 29.9-115.5 14.5-238.4 34.4-369.5 61.8-62.7 13-127.3 27.4-193.7 43.7l7.2 326.7 5.6 255.3c28.1-14.1 58.7-25.2 91.2-33 99.2-23.5 198-42.8 296.4-57.7v16.4c170.2-26 339.7-39.2 508.1-39.2 256.4 0 510.6 30.5 762.7 92.9 45.6 11.3 87.3 29.4 123.8 52.7l6.3-289.7 7.5-339.9c-130.6-48.7-388.8-119.9-783.3-119.9" style="fill:#fdfeff;fill-opacity:1;fill-rule:nonzero;stroke:none" transform="matrix(.00813 0 0 -.00813 -184.298 257.544)"/><path d="M34370.4 18361.8c371.2 0 746.9-11.5 1113.4-22.8 150.9-4.6 306.4-9.4 459.6-13.3l-51.9 2360.6-9.4 431.2c-24.4-9.3-50.6-18-78.8-26.5-183.1-55.1-513.8-89.6-842-87.6-338.2 2-684.5 56-838.7 105.7-5.4 1.8-10.7 3.5-15.9 5.3l-9.3-425.8-51.6-2330.1c107.6 2.3 215.9 3.3 324.6 3.3m1675-138.4-52.2 1.3c-170.3 4.1-344.2 9.5-512.5 14.6-489.8 15.1-996.3 30.6-1484.6 18.4l-52.3-1.4 66.3 3005 68-29.2c23.6-10.2 48.2-19.4 75.1-28.1 147.1-47.5 480.5-99 808.6-100.9 363.2-2.1 669.9 40.4 812.7 83.4 52 15.6 95.9 32.1 134.4 50.5l69.7 33.4 12.6-582z" style="fill:#231f20;fill-opacity:1;fill-rule:nonzero;stroke:none" transform="matrix(.00813 0 0 -.00813 -184.298 257.544)"/><path d="M35954.6 18313.8c0-201.1-432-364.1-964.8-364.1s-964.8 163-964.8 364.1 432 364.2 964.8 364.2 964.8-163.1 964.8-364.2" style="fill:#c69b53;fill-opacity:1;fill-rule:nonzero;stroke:none" transform="matrix(.00813 0 0 -.00813 -184.298 257.544)"/><path d="M34989.8 18628.1c-539.2 0-914.9-165.6-914.9-314.3 0-148.6 375.7-314.3 914.9-314.3s914.9 165.7 914.9 314.3c0 148.7-375.7 314.3-914.9 314.3m0-728.3c-263.6 0-512.1 39-699.8 109.9-203 76.6-314.8 184.6-314.8 304.1s111.8 227.5 314.8 304.2c187.7 70.8 436.2 109.8 699.8 109.8 263.5 0 512.1-39 699.8-109.8 203-76.7 314.8-184.7 314.8-304.2s-111.8-227.5-314.8-304.1c-187.7-70.9-436.3-109.9-699.8-109.9" style="fill:#100f0d;fill-opacity:1;fill-rule:nonzero;stroke:none" transform="matrix(.00813 0 0 -.00813 -184.298 257.544)"/><path d="M37396 9935.2v.5c-12.9 1434.1-37.2 4213.9-46.9 5255.9v.5c-2.1 256.4 30.8 538.9 30.8 538.9 14.5 563.2-1042.2 2498.8-1350.1 3387-29.2 211.4-49.2 429.6-62.8 632.4-640.3-76.7-1288.8-78.5-1931.3 32.7-16.1-210.8-37.6-436.3-66.5-653.3-260.5-805.3-1326.3-2711.9-1344.1-3333.6-.3-12.2-6.3-181.2-5.8-193.4l-3.8-373.9v-.5l-52.2-5262-9.2-913.8c0-290.4 1220.8-969.8 2559.7-969.8 1338.8 0 2289.7 679.4 2289.7 969.8 0 1-3.2 348.3-7.5 882.6" style="fill:#daeeed;fill-opacity:1;fill-rule:nonzero;stroke:none" transform="matrix(.00813 0 0 -.00813 -184.298 257.544)"/><path d="M34081.2 19724.9c-17.5-218.7-38.5-420.9-62.6-601.7l-.5-4.5-1.4-4.2c-103.6-320.2-331-807.9-571.7-1324.2-356.1-763.6-759.6-1629.1-770.1-1995.6 0-2.6-.4-12.4-.8-26.4-1.4-41.4-5.2-151.7-5-163.8l.1-1.4v-.8l-3.8-373.9-52.3-5262.5-9.1-913.8c0-224.9 1129.2-919.4 2509.8-919.4 779.7 0 1352.4 232.2 1624.3 370.5 399.8 203.5 615.6 434.9 615.6 549.4l-.1 11.8c-.6 66-3.6 393.9-7.4 870.4v.9c-5.5 606-13 1453.2-20.6 2307.8-10.3 1166.2-20.7 2346.3-26.3 2947.6-2.1 247.7 27.4 513.7 30.8 543.3 7 340.6-408.1 1242.6-774.4 2038.7-234.5 509.5-455.9 990.8-573 1328.5l-1.6 4.7-.7 4.8c-24.3 176-44.4 372.2-59.5 583.7-648.7-73.4-1267.1-63.3-1839.7 30.1M35113.8 8033c-809.6 0-1476.4 238.1-1801.8 380.1-372.6 162.5-807.8 427.5-807.8 639.5l9.2 914.3 52.3 5262 3.7 373.7c-.1 10.2.8 44.6 5 169.1.5 13.7.8 23.3.9 25.9 11 387.1 401.6 1224.7 779.3 2034.8 238.3 511.2 463.5 994.1 565.8 1308.5 25.5 192.7 47.6 410 65.6 646l4.2 54.7 54-9.3c593.4-102.8 1238.3-113.6 1916.9-32.4l52.1 6.3 3.5-52.4c15.3-227.3 36.1-437.3 61.8-624.1 116-333 335.5-810 567.8-1314.9 389.7-847.1 792.8-1723 783.4-2085.1l-.3-4.4c-.3-2.8-32.5-282.6-30.4-532.8 5.6-601.8 16-1781.9 26.3-2948.1 7.6-854.6 15.1-1701.8 20.6-2308.3v-.5c3.8-476.5 6.8-804.3 7.4-870.3.1-8.3.1-12.6.1-12.7 0-177.8-269.3-434.3-670.1-638.2-279.9-142.5-869-381.4-1669.5-381.4" style="fill:#231f20;fill-opacity:1;fill-rule:nonzero;stroke:none" transform="matrix(.00813 0 0 -.00813 -184.298 257.544)"/><path d="m36013.7 21434.7-1.7 2.3 1.5 83.6c18.2 33.3 44.8 132.2 44.8 169l-17.2 629.4h-2130.7l-5.3-645.8c.2-20.1 17.7-59 24.1-78.4l5.1-15.4 5.5-130.6c-16-36.5-24.5-75.4-24.7-114.4-2.8-40.6-5.3-76.1-7.5-108l.8-2.6c.7 26.7 1.3 37.8 2 23.8 0-13.3 1-26.4 2.8-39.4 4.4-14.6 10.1-28.6 27.2-36-17.1 7.4-22.8 21.4-27.2 36 13.5-98.3 77.3-184.9 171.3-238.1 33.1-18.8 69.9-33.4 109.7-42.8 99.2-23.6 198-42.9 296.4-57.7 429.3-65.6 853-49.7 1270.8 53.7 165.2 40.9 279.7 170.7 279.7 319.4.4 12.3.9-4.1 1.2-37.5 1.2 9.6 2.6 19.3 4.7 29-1.4 31-3.1 65.5-4.9 104.9 0 33.4-9.9 66.2-28.4 95.6" style="fill:#e6da3f;fill-opacity:1;fill-rule:nonzero;stroke:none" transform="matrix(.00813 0 0 -.00813 -184.298 257.544)"/><path d="M34490.6 20853.2c-98.4 14.9-197.2 34.2-296.4 57.7-32.5 7.8-63.1 18.9-91.2 33l.3 16.2c28.1-14 58.5-25.1 90.9-32.8 99.2-23.6 198-42.9 296.4-57.7z" style="fill:#fff;fill-opacity:1;fill-rule:nonzero;stroke:none" transform="matrix(.00813 0 0 -.00813 -184.298 257.544)"/><path d="M34103 20943.9c-6.3 3.1-12.5 6.4-18.5 9.8v16.4c6.1-3.5 12.4-6.9 18.8-10z" style="fill:#636567;fill-opacity:1;fill-rule:nonzero;stroke:none" transform="matrix(.00813 0 0 -.00813 -184.298 257.544)"/><path d="M34490.6 20869.6c-98.4 14.8-197.2 34.1-296.4 57.7-32.4 7.7-62.8 18.8-90.9 32.8-6.4 3.1-12.7 6.5-18.8 10v1327h406.1z" style="fill:#f0eb8a;fill-opacity:1;fill-rule:nonzero;stroke:none" transform="matrix(.00813 0 0 -.00813 -184.298 257.544)"/><path d="M34990.2 21346.9c-520.3 0-955.8 95.2-1049 217.2-1.8-29-.9-87 5.4-116.4 99.4-120.1 523.4-205.8 1038.2-205.8 523.6 0 943.1 73.5 1029.2 192.2 2.2 21.8-1.9 59.4-2.9 95.5-137.9-106.2-545.6-182.7-1020.9-182.7" style="fill:#efea82;fill-opacity:1;fill-rule:nonzero;stroke:none" transform="matrix(.00813 0 0 -.00813 -184.298 257.544)"/><path d="M34032.7 21441.9c134.1-78.2 479-150.2 952.1-150.2 501.3 0 840.3 67.4 955.2 141.9-196.7-83.6-554-136.5-949.8-136.5-406.9 0-763.4 56.4-957.5 144.8m952.1-249.9c-443.6 0-948.6 69.2-1076.6 223.9l-7.7 9.3-2.6 12c-7.7 35.7-8.4 98.7-6.5 130l8.4 133.2 81-106c74.2-97.2 472.1-197.6 1009.4-197.6 451.4 0 858.7 70.8 990.5 172.3l77.6 59.7 2.7-97.9c.3-12.4 1-25.1 1.7-37.1 1.5-25.1 2.7-46.8.9-64.6l-1.3-13.5-7.9-10.9c-113.8-156.9-627.1-212.8-1069.6-212.8" style="fill:#100f0d;fill-opacity:1;fill-rule:nonzero;stroke:none" transform="matrix(.00813 0 0 -.00813 -184.298 257.544)"/><path d="M33954.9 21673.8c.8-7.7 9.8-31.5 14.2-42.9 2.9-7.7 5.6-14.7 7.5-20.3l7.3-22.1 6.3-149.2-4.8-10.6c-13.4-30.4-20.3-62.2-20.4-94.5l-.1-3.3c-20.7-298 56.6-314.8 196.9-345.2 14.4-3.1 29-6.3 44-9.8 528.4-125.5 1047.7-126.9 1543.6-4.2l14.3 3.5c152.5 37.5 236.5 58.1 228.3 367-.6 22.9-7.7 45.6-20.4 65.7l-9.6 15.1 1.8 110.7 5.9 10.8c14.4 26.3 38.4 116.1 38.7 144.6l-15.8 580.1h-2032.7zm1043.6-892.8c-268.5 0-540.9 32.6-815.8 97.8-14.2 3.4-28.3 6.5-42 9.4-76.4 16.6-155.3 33.7-209.9 99.7-57.1 69-77.3 176.5-65.5 348.4.4 41.6 8.5 82.5 24.3 121.6l-4.7 112.3-2.9 8.7c-1.5 4.5-3.7 10.2-6.1 16.4-11.5 30.3-20.4 55.2-20.7 77.3v1.1l5.2 624.4c.3 39 33.8 70.8 74.6 70.8h2154.6l18.6-679.3c0-40.9-23.6-133.5-45.1-181l-.9-58c18.4-32.6 28.5-68.9 29.5-105.8 4.7-176.4-20.7-286.9-82.2-358.4-58.3-67.8-137.8-87.3-222-108l-14.1-3.5c-253.1-62.6-512.1-93.9-774.9-93.9" style="fill:#231f20;fill-opacity:1;fill-rule:nonzero;stroke:none" transform="matrix(.00813 0 0 -.00813 -184.298 257.544)"/><path d="M36058.1 22325.3c0-92.8-212.7-167.6-506.3-214.5-166.4-26.6-363.2-39.8-576-39.8-212.9 0-409.3 15.2-575.7 41.8-293.5 46.9-485.5 119.7-485.5 212.5s190.1 174.2 483.7 221.1c166.4 26.6 364.6 41.4 577.5 41.4 212.8 0 411.5-12.8 577.9-39.4 293.5-46.9 504.4-130.3 504.4-223.1" style="fill:#fff;fill-opacity:1;fill-rule:nonzero;stroke:none" transform="matrix(.00813 0 0 -.00813 -184.298 257.544)"/><path d="M34975.8 22537.9c-205.8 0-402.8-14.1-569.7-40.7-321.7-51.4-441.6-132.7-441.6-171.9 0-32 92.6-107.2 443.5-163.3 168.4-26.9 364.7-41.1 567.8-41.1 214.5 0 405.6 13.1 568.2 39.1 378.9 60.6 464.2 141.7 464.2 165.3 0 31.3-116.4 118.5-462.4 173.8-158.9 25.4-356 38.8-570 38.8m0-516.7c-208.3 0-410.1 14.6-583.6 42.3-354.9 56.8-527.5 142.4-527.5 261.8 0 154 285.9 232 525.7 270.3 172 27.5 374.4 42.1 585.4 42.1 222.3 0 419.4-13.5 585.7-40.1 204.1-32.6 546.4-111.4 546.4-272.3 0-67.7-57-123.5-174.3-170.7-90.9-36.6-216.7-67.9-373.9-93.1-167.7-26.8-364.2-40.3-583.9-40.3" style="fill:#231f20;fill-opacity:1;fill-rule:nonzero;stroke:none" transform="matrix(.00813 0 0 -.00813 -184.298 257.544)"/><path d="M36058.1 22325.3c0-92.8-212.7-167.6-506.3-214.5-166.4-26.6-363.2-39.8-576-39.8-212.9 0-409.3 15.2-575.7 41.8-293.5 46.9-485.5 119.7-485.5 212.5s190.1 174.2 483.7 221.1c166.4 26.6 364.6 41.4 577.5 41.4 212.8 0 411.5-12.8 577.9-39.4 293.5-46.9 504.4-130.3 504.4-223.1" style="fill:#efea82;fill-opacity:1;fill-rule:nonzero;stroke:none" transform="matrix(.00813 0 0 -.00813 -184.298 257.544)"/><path d="M34975.8 22537.9c-205.8 0-402.8-14.1-569.7-40.7-321.7-51.4-441.6-132.7-441.6-171.9 0-32 92.6-107.2 443.5-163.3 168.4-26.9 364.7-41.1 567.8-41.1 214.5 0 405.6 13.1 568.2 39.1 378.9 60.6 464.2 141.7 464.2 165.3 0 31.3-116.4 118.5-462.4 173.8-158.9 25.4-356 38.8-570 38.8m0-516.7c-208.3 0-410.1 14.6-583.6 42.3-354.9 56.8-527.5 142.4-527.5 261.8 0 154 285.9 232 525.7 270.3 172 27.5 374.4 42.1 585.4 42.1 222.3 0 419.4-13.5 585.7-40.1 204.1-32.6 546.4-111.4 546.4-272.3 0-67.7-57-123.5-174.3-170.7-90.9-36.6-216.7-67.9-373.9-93.1-167.7-26.8-364.2-40.3-583.9-40.3" style="fill:#100f0d;fill-opacity:1;fill-rule:nonzero;stroke:none" transform="matrix(.00813 0 0 -.00813 -184.298 257.544)"/><path d="M35082.4 14795.5s84.7 954.9-11.8 1906.6c-97.6 961.5-377.7 1922.1-627.7 2380.3l-47.3 544.8 177.6-106.6 47.4-438.2s1030.3-1504 1077.6-2913.2c-159.8 38.5-270.1 31.9-337.5-165.8-174.6-512.7-278.3-1207.9-278.3-1207.9m-977 1128.9s491.5 1162.6 248.7 2188.9c-131.6 556.5-296.1 1442.8-296.1 1442.8l-82.8-382.8s55.5-578.4-118.5-1403.6c-144.5-685.7-663.6-1721.8-574.3-1455.4 138 411.7 1178.4 341.4 823-389.9m2173.1-394.7s117.6 566.3-35.5 1634.3c-116.2 810.6-553.5 1643.1-757.9 2072.4l-118.5 307.9 154 23.7s1302.7-2202.7 1350-3304.1c-53.2 50.4-169.8 119.3-248.7 5.9-173.5-249.4-343.4-740.1-343.4-740.1" style="fill:#bcdedd;fill-opacity:1;fill-rule:nonzero;stroke:none" transform="matrix(.00813 0 0 -.00813 -184.298 257.544)"/><path d="M35082.5 14745.6c-1.5 0-3 .1-4.5.2-27.4 2.4-47.7 26.6-45.2 54.1.8 9.5 83.1 961.4-11.8 1897.2-100 985.2-388.5 1933.7-621.8 2361.5l-5 9.1-56.8 652.5 282.7-169.6 48.7-450.5c43.6-65.2 279.9-425.8 517.8-924.4 242.5-508 536.7-1268.3 561.5-2004.8.9-27.6-20.7-50.6-48.2-51.5l-1.7-.1c-26.8 0-48.9 21.3-49.8 48.2-24.2 718.8-313 1464.7-551 1963.7-258.9 542.7-515.4 919.3-518 923.1l-7.1 10.3-46 426-72.6 43.6 38-437.1c237.2-440.8 527.9-1398.6 628.5-2390 95.9-945.4 12.7-1906.4 11.9-1916-2.3-26-24.1-45.5-49.6-45.5m-977.1 1128.9c-6.5 0-13 1.3-19.4 4-25.3 10.7-37.2 39.9-26.5 65.3 4.8 11.5 482.2 1159.9 246.1 2158-88.4 373.5-192.4 900.2-250.8 1203.8l-29.3-135.4c6.3-75 44.7-629.6-120-1410.8-143.4-680.3-425.2-1213.6-580.4-1470.9-14.3-23.6-44.9-31.2-68.5-16.9-23.6 14.2-31.1 44.8-16.9 68.4 152 251.9 427.9 774 568.2 1440 170.2 807.1 118.2 1382.9 117.6 1388.6l-.7 7.7 137 632.9 45.3-244c1.6-8.8 165.7-891.5 295.5-1440.5 127.6-539.3 52.4-1114.2-33.1-1501.5-92.4-418.6-213.1-706.2-218.2-718.2-8-19.1-26.5-30.5-45.9-30.5m2173.2-394.7c-3.4 0-6.8.4-10.2 1.1-27 5.6-44.3 31.9-38.7 58.9 1.1 5.6 113.7 572.2-36.1 1617.1-102.7 716.3-464.4 1461.6-680.6 1906.9-26.5 54.7-51.1 105.2-73 151.2l-1.5 3.5-140.6 365.7 248.4 38.2 17.2-29c3.3-5.6 330.6-560.4 659.3-1242.8 443-919.6 677.7-1621 697.7-2084.5 1.1-27.5-20.2-50.8-47.7-52s-50.8 20.2-52 47.7c-43.4 1008.6-1173.3 2988.3-1326.2 3251.7l-59.2-9.1 95.5-248.3c21.6-45.3 45.7-95 71.8-148.7 218.7-450.6 584.8-1204.6 689.6-1936.4 152.6-1064.4 39.9-1628 35-1651.4-4.8-23.6-25.6-39.8-48.7-39.8" style="fill:#231f20;fill-opacity:1;fill-rule:nonzero;stroke:none" transform="matrix(.00813 0 0 -.00813 -184.298 257.544)"/><path d="M36089 19138.7c-621.3-178-1094.2-201.5-1435.6-167-147.1 14.9-269.7 40.5-369.5 68.9-235.6 67.2-344.3 151.4-344.3 151.4l71.1 1190.1c94.5-24.8 185.8-45.8 273.2-63.9 131.1-27.4 254-47.3 369.5-61.8 916.2-114.1 1346.8 134.6 1346.8 134.6z" style="fill:#daeeed;fill-opacity:1;fill-rule:nonzero;stroke:none" transform="matrix(.00813 0 0 -.00813 -184.298 257.544)"/><path d="M34653.4 18971.7c-36.6 3.7-71.7 8.1-105.3 13-42.8 6.3-83.2 13.4-121.3 21.2-52 10.6-99.6 22.4-142.9 34.7v1277.6c131.1-27.4 254-47.3 369.5-61.8z" style="fill:#f8fcfc;fill-opacity:1;fill-rule:nonzero;stroke:none" transform="matrix(.00813 0 0 -.00813 -184.298 257.544)"/><path d="M33991.1 19217.4c52.8-33.3 206-117.4 471.8-168 305.4-58.2 824.6-82.6 1573.5 126.2l-80.8 1139.5c-77.7-32.3-221-80.8-433.5-111.1-294.9-42-785.8-55-1465.2 114.9zm937-308.5c-200.9 0-364.9 19.3-492.9 44.3-355 69.2-519.3 194.1-526.1 199.4l-20.8 16.1 76.2 1277 58.8-15.3c689.6-180.3 1183.9-169.5 1477.2-128.7 316.9 44.1 473.3 131.7 474.9 132.6l68.8 39.2 5.8-78.9 91.6-1292.7-38.8-11.1c-478.9-137.3-869.4-181.9-1174.7-181.9" style="fill:#231f20;fill-opacity:1;fill-rule:nonzero;stroke:none" transform="matrix(.00813 0 0 -.00813 -184.298 257.544)"/><path d="M33401.3 8869.2c-215.4 0-390 148.1-390 330.8v6389.7c0 182.7 174.6 330.8 390 330.8s390-148.1 390-330.8V9200c0-182.7-174.6-330.8-390-330.8" style="fill:#f8fcfc;fill-opacity:1;fill-rule:nonzero;stroke:none" transform="matrix(.00813 0 0 -.00813 -184.298 257.544)"/><path d="M33326.5 14091.1c-6.1 23.8-10.6 37.9-12.9 42.1l-.9.1c-2.3.3-6-3.3-10.8-10.7-4.9-7.4-7.3-13.1-7.3-16.9 0-.6-9.5-19.9-28.4-57.8-17.1-34.3-34.1-70.8-50.9-109.5-16.9-38.7-25.4-60.2-25.4-64.6-.1-5 5.8-7.1 17.8-6.4 5.9.3 37-1.6 92.9-4.9 52.3-3.1 78.6-3.5 78.7-1.9 0 5.6-4.1 21.8-12 48.6-6.4 21.6-13.8 54-22.6 97-8.7 42.9-14.7 71.3-18.2 84.9m-40.9 158.9c8.4 5 18.8 6.8 31.3 5.3 12.4-1.5 23.3-7.8 32.7-18.8 22.9-25.3 45.1-92.9 66.5-202.9 5.1-25.4 23.8-99.8 56.6-222.2 17.7-65.9 29.6-109.1 35.3-129.6 15-51.8 22.5-80.9 22.4-87.5 0-9.4-3.9-17-11.4-22.9-7.5-5.8-16.4-8.2-26.5-7.1-4.2.4-8.7 1.8-13.4 3.9-9 4.3-16.5 13.5-22.6 27.7s-16.1 45.7-29.9 94.7c-10.7 36.9-16 55.4-26.7 92.4-2.4 2.4-13.4 4.8-33.1 7.1-33.3 3.8-75.4 6.7-126 8.9-50.7 2.2-78.1 1.8-82.3-1.4-9-7.1-26.2-46.8-51.7-119-9.8-26.2-18.3-43.6-25.3-52-6.9-8.4-16.1-11.9-27.4-10.3-19.7 2.7-29.3 15.4-29 38 .2 14.9 19 70.3 56.4 166.4 37.3 96.2 71.2 174.3 100 233.8 23.3 48.4 40.3 85.9 51.3 110.9q33 72.9 52.8 84.6m337.2-190c6.6 5.4 15.6 7.6 26.9 6.5s19.6-4.9 24.9-10.6c5.1-5.5 8.8-23.2 10.3-53.1.9-16.9 1.4-25.4 2.3-42.4 11.1 7.6 16.7 11.4 27.9 19 20.4 13.6 43.8 25.6 70.1 35.2 19.6 7.3 33.9 11.6 42.6 13.1 8.6 1.5 24.2 1.7 46.1 1.2 8.3-.1 17.9-.5 28.6-1.3 14.3-1.1 27.1-4.6 38.4-10.3 20.8-9.8 37.8-21.5 50.8-35.1s19.5-25.9 19.4-36.9c0-.5-.1-1.4-.4-2.4-.3-1.1-.5-1.9-.5-2.5-4.9-17.3-16-25.4-33.3-24.2-11.9.9-25.3 6.7-38.4 17.7-17.7 14.9-36.2 24.2-55.3 25.7-7.2.5-15.2.3-24.2-.6-60.9-5.7-114.6-37.4-161.1-95.5-6.1-7.4-9.2-11.1-15.4-18.5-.2-30.3-.1-76.1.6-137.4.6-61.3.8-107.3.5-138.2-4.3-3.9-6.5-5.9-10.8-9.8q-10.95-10.5-27-9c-9.6.9-17.9 5.3-25 13.1-11.3 12.2-16.5 60.4-15.7 144.7.2 16.5 1 65.7 3.2 147 2.5 91.6 4.7 147.9 6.1 168.2 1.4 20.2 4.2 32.4 8.4 36.4m697.4-119.7c-22 5.3-40 8.4-53.7 9.1-29.9 1.5-57.4-21.3-82.8-68.3-15.1-27.8-22.8-66.4-23.1-115.9-.1-28.1 3.6-54.2 11.3-78.2 7-22.4 17.5-43 31.5-61.6s29.2-31.5 44.3-39c12.4-6.2 27.8-10.5 45.7-11.3 33-1.6 60.7 7.1 82.8 23.6 16.9 12.6 32.6 34.6 45.6 66.3s21.7 68.1 26 109.2c1.2 8.2 1.9 19.5 1.9 33.8.1 30.2-10.8 56.7-32.9 79.6-13.7 14.8-27.5 25.9-41.5 33.4s-32.4 13.8-55.1 19.3m-53.4 76.9c1.2 0 3.6 0 7.2.1q5.4.15 8.1 0c50.1-2.4 91.9-13.2 125.2-32.7 15.5-8.9 34.3-24.3 56.3-46.3 22.1-22 36.1-39.1 42-51.4 12.5-25.8 18.7-58.2 18.6-97.4-.2-45.2-8.2-90.6-24.2-136.1-16.1-45.5-37-80-62.9-103.3-18-16.5-40.5-28.8-67.5-37.1s-54.3-11.7-81.9-10.4c-26.4 1.2-48.8 6.2-67.3 14.9-56.2 26.1-98.2 79.1-125.8 158.5-7.1 19.8-10.5 42.9-10.3 69.3 0 8.3 0 12.4.1 20.7.2 40.2 2.9 68.8 6.8 84.8 4.6 19.1 13.8 41.7 28.6 66.5q22.2 37.05 42.9 55.8 47.7 42.75 104.1 44.1m839.7-37.5c10.7 2.8 25.1 4.4 43 4.7 3.9.1 5.9.1 9.9.2 39.4-1 72.6-14.7 99.5-41 12-11.9 21.5-24.3 28.4-37.4 6.9-13 13.8-32.6 21.2-58.1 5.8-20.2 9.5-38.4 10.5-54.3.9-16 1.9-55.9 3.5-119 .5-23.6 1-52.1 1.1-85.2q.15-76.05-13.2-89.7c-6-6.2-15-9.5-27-9.8-12.6-.3-21.3 3-26.1 8.5-3.8 4.3-6.8 13.7-7.7 28.3-1 14.6-1.2 53.3-1.6 115.4-.5 62.5-1.8 102.9-3 120.2-1.2 17.4-4.2 35.8-9.1 54.8-7 26.7-14.2 46.6-20.8 59.1-6.6 12.6-15.1 21.7-25.1 27.7-10.8 6.3-23.1 9.5-36.8 9.2-10.2-.1-22.5-2.1-36.8-5.5-23.1-5.4-47.6-23.7-73-55.3-25.4-31.7-46.5-69.5-63.2-113.7-6.6-17.7-10.7-32.6-12.2-44.7-1.4-12.1-3.2-42.5-4.9-91-1.8-53.4-3.9-86.1-6.2-98-2.4-11.8-9.1-19.8-19.8-23.6-7.8-2.8-13.5-4.1-17.1-4.1-5.4 0-12.9 4.1-22.5 12.4-5.8 5.3-8.7 8-14.4 13.3 1.5 57.6 2.2 86.3 3.6 143.9 1.2 57.3 1.9 89.9 1.9 97.6 0 34.2-1.7 60.2-5.4 77.7-6.3 30.2-14.2 51.5-22.8 63.4-8.7 11.9-20.8 17.9-36.4 18-23.9.2-48.8-10-74.9-30.6-26-20.6-47.8-47.2-65.2-80-5.4-11.1-8.1-16.7-13.5-27.9.3-50.9.4-76.4.7-127.3-.1-22.5-.1-33.8-.1-56.3-.1-33-.7-53.8-2-62.4q-1.8-12.75-8.1-20.1c-6-7-12.6-10.5-19.8-10.3-.6 0-2 .2-4 .5-2.2.3-3.8.5-5 .5-12 .8-21.3 5.5-27.8 13.9-4.8 6.1-7.7 16-8.5 29.5-.9 13.6-1.2 50.1-1.1 109.7.5 186.3 4.3 293.9 13.3 318.9 5.3 14.4 16.2 21.9 30.6 21.6 8.3-.2 16.1-3.6 23.2-10.4 6.6-6.2 11.1-19 13.4-38.3 1.1-11.6 1.6-17.4 2.7-29 9.7 8.5 14.5 12.8 24.2 21.3 35.3 30.6 75.1 47.1 119.3 49.5 2.4 0 5.2.1 8.5.4 3.3.2 5.5.4 6.8.4 11.3-.1 25.3-4.1 42.1-11.9q44.85-21.6 63.6-72.9c1.2-2.7 2.6-6.3 4.1-10.7s2.8-8.1 4-11.2c1.2-3 2.1-5.1 2.7-6.1 1.2-2.3 2.1-3.4 2.7-3.4 3 0 10.4 8.3 22.4 24.9 35.3 49.2 78 80.3 128.2 93.7m590.7-37.7c-36.4-2-81.6-29.2-135.8-81.3-25.6-24.4-44.2-45.4-55.8-63.3-11.6-17.8-20.3-38.9-26.2-62.7-4.1-16.1-6.2-33.3-6.1-51.5.1-27 5.1-50.9 15.1-71.8 10-20.8 23.4-35 40.2-42.5q15.3-6.75 33.3-6c23.3 1.1 48.3 10.3 74.9 27.7 26.5 17.3 50.2 40.1 71 68.3 13.6 18.4 22 31.1 24.9 37.8 3 6.8 5.2 20.4 7.9 39.4 5.3 38.8 13.3 74.7 20.8 105.5 6.4 25.8 9.5 38.8 15.8 64.6-6.5 4.9-9.7 7.4-16.2 12.3-11.4 8.6-22.5 14.9-33.3 18.7-10.7 3.7-20.9 5.4-30.5 4.8m-47.8 59.5c16.1 5.2 30.1 8.2 42.1 8.9q38.4 2.1 82.5-19.2c10.8-5.6 16.2-8.4 26.9-14 5.4 6.6 8 9.9 13.4 16.6 8.9 10.5 18.4 16.1 28.5 16.7 9.6.7 17.2-1.4 22.9-6.3 5.7-4.8 8.6-11.7 8.6-20.5.1-6.6-1.1-13-3.4-19.2-11.8-31.2-23.8-74-35.9-128.2-15.8-70.9-23.3-133.9-23-188.4.1-18.2 1.2-37 3-56.1 2.1-20.7 3-36.7 3.1-47.8.1-20.4-5-33.6-15.1-39-7-3.8-14-5.8-20.6-6.3-10.8-.6-20 3.4-27.5 12s-13 21.2-15 36.8c-2.3 16.5-5.6 25.3-11 25-3.6-.3-8.3-4.2-14.3-11.6-6.4-8.1-22.6-19.8-48.3-35-25.7-15.1-45.6-24.2-59.2-27.8-11.9-3.2-24.6-5.3-37.7-6-27.6-1.3-51.2 1.8-70.2 9.4-23.3 9.2-44.9 27-64.5 52.4-19.6 25.5-31.8 52.3-36.7 80.2-1.8 9.9-2.7 21.7-2.8 35.5q-.15 48.75 10.5 86.4c17.7 65.6 58.5 122.4 122.2 171 29.2 22.2 44.4 33.7 45.6 34.3q31.2 24.6 75.9 40.2m404.9 196.9c7.1 7.8 14.8 12 23.1 12.7 8.4.7 16.4-2.2 24.2-8.7 4.7-3.9 7.1-5.8 11.7-9.7l-3.5-208.8c3.9-.4 5.9-.5 9.8-.8 7.8-.5 29.9.3 66.2 2.6 38.1 2.4 60.5 1.6 66.2-2.8 6.6-5.1 10-12.9 10.1-22.2.1-9.9-3.7-18.9-11.4-26.8-7.1-7.3-22-12-44.6-14.2-2.4-.2-7.6-.5-15.7-1-8-.5-14.7-.9-20.1-1.4-27.9-1.9-41.9-2.8-69.8-4.5-.9-12.7-1.4-19.1-2.4-31.8-2.2-23.4-3.1-62.2-2.6-116.3.5-54.2 4.7-93 11.7-116 7-22.8 15.3-39 25.6-47.5 7.8-6.5 14.3-10.2 19.4-11.1 5-1 17.2-.6 36.3 1.2 21.5 2 36.5 1.7 44.9-.7 8.3-2.5 13.8-8.8 16.3-18.9.6-2.1.9-4.8 1-8.1.2-23.4-22.7-38.8-68.7-45.7-1.8-.2-4.4-.6-7.6-1.1-3.3-.6-5.6-1-6.8-1.1-11.9-1.1-26.9 1.2-44.9 6.8-40.8 14.1-69.2 40.3-83.3 77.4-13.7 36.3-20.3 83-20.8 138.1-.2 24.3 0 44.1.4 59.6.8 45.4 1.1 68.1 1.8 113.5-9.6-1.1-14.5-1.6-24.1-2.7-29.3-2.3-44 6.8-44.1 27.2-.2 19.3 16 32 48 38.4q19.65 4.05 23.7 6.9c2.7 1.8 5 6.5 6.6 13.7 2.4 10.6 4.9 36.4 7.9 77.2 2.9 40.8 4.3 69.7 4.2 86.8-.1 18.2 3.6 31.5 11.3 39.8m290.2-250.9c5 5.5 13.9 8.9 25.8 10.2 11.3 1.1 20.4-2.4 26.1-10.5 5.5-7.9 9.3-24.9 11.7-50 2.3-25.2 4.9-80.3 7.6-165.6 1.6-54.1 2.5-81.1 4.1-135.2l-11.5-12c-7.1-7.4-15.7-11.6-25.9-12.7-8.9-1-17.2 1-24.7 6-7.5 5.1-12.1 12.6-14.1 22.2-1.8 8.5-3.4 67.7-4.5 177.4-.3 29.4-.5 44.1-.8 73.6-.6 58.9 1.5 91.4 6.2 96.6m-6.1 68c-1.8 4.8-2.7 9.4-2.8 13.8-.1 8.3 2.7 15.2 8.3 20.7 5.6 5.6 13.7 8.9 24.5 10.1 10.1 1 18.1-.6 24.1-4.9s9.1-10.3 9.2-18c0-5.6-1.1-10.6-3.4-15.3-5.3-12.7-15.3-19.9-30.2-21.4q-21.45-2.25-29.7 15m309.4 56.4c14.2 6.2 31.7 10.6 52.4 13.3 24.4 3.2 44.4 3.4 59.8.6 19.6-3.4 38.1-11.8 55.2-25.5 17.2-13.7 25.8-26.8 26-39.5.1-7.7-3.4-15.1-10.4-22.2-7-7-15-11.2-23.9-12.4-10.7-1.5-21.5 3.9-32.4 14.6-9.8 9.6-20.1 15.6-29.7 17.9-9.5 2.3-23.2 2.3-41 0-32.7-4.3-63.7-23.7-93.1-58.2-16.4-19.2-27.4-37.6-32.8-55.4-5.5-17.7-8-43.7-7.6-77.9.1-4.6.1-6.9.2-11.6.3-29.1 3-51.1 7.9-65.6 5-14.6 15.7-29.8 30.1-45.6 20-21.9 42.8-32.7 68.4-29.4 5.4.7 9.5 1.5 12.5 2.4 15.5 4.2 28.2 10.2 38.2 17.8 10.1 7.7 22 20.8 35.3 39.1 14.1 19.4 24.4 32.3 30.8 36.5 5.5 3.7 11.6 5.7 16.9 6.5 10.1 1.4 19.1-.7 26.9-6.2s11.8-13.2 12-23.2q.15-13.2-24-48c-16-23.2-31.8-40.9-47.1-52.9-30.1-24.5-64.5-39.3-103.3-44.3-20.9-2.6-40.6-1.3-59.1 4.1-37.8 11.9-69.8 40.1-95.1 84.4-20.8 36.5-31.3 75.5-31.7 116.2-.3 19.2 1.3 40.6 4.6 64.1 5.6 40.2 22.8 79.3 51.8 117.2 29.1 37.9 63.1 65.6 102.2 83.2m-3246.6-1420.2c-32 15.1-69.9 25.2-113.6 30.5-49 5.9-98.6 5.2-148.6-2.2-11.3-1.5-16.9-2.2-28.2-3.7l-1-179.9c-.7-120.8 1.6-184.4 6.8-190.9 5.3-6.4 24.7-15.2 58.1-26.1 33.4-10.8 63.6-17.9 90.4-21.1 144-17.6 232.9 31.1 266.3 142.8 4.6 14.3 7 31.7 7.3 52.3.4 41-11.6 79.2-35.8 114.6s-58.1 63.2-101.7 83.7m21.4 393.5c-34.4 49-87.6 77.6-159.9 86.4-44.6 5.5-87.5 1.1-128.7-13.1-11.8-3.9-17.7-5.8-29.6-9.7.3-64.1.4-96.2.6-160.4 2.1-107.2 4.1-161.7 5.9-163.6 1.7-1 3.1-1.6 4-1.7 9.8-1.3 33.5 1.6 71.2 9.1s71.4 16.1 101 25.7q44.55 14.4 80.4 39.3c23.9 16.5 41.8 33 52.2 49 8.3 12.6 13.8 35.4 16.8 67.1.1 3.3.3 7.6.8 12.9s.8 8.7.8 10.4c.2 18-5 34.2-15.5 48.6m-211.3 191.5c16 .5 32.9-.4 50.7-2.6 75.5-9.3 140.3-34.1 194.2-74.3 66-49.1 99.2-112.7 98.4-191.5-.8-73.1-30.4-134.7-88.9-184.3-15.6-12.6-23.5-18.9-39.1-31.5 20.2-11.1 30.4-16.7 50.6-27.7 55.2-30.5 99.3-71.5 132.4-123.1 33.1-51.7 49.4-105 48.9-160-.2-14.8-1.6-28.6-4.4-41.5-13.2-69.5-42.5-126.3-87.8-170.3-45.4-44-103.1-70.9-173.3-80.3-30.5-4.8-72.3-4.1-125.2 2.3-58.2 7.1-107 18.5-146.2 33.3-50.6 19.2-84 39-99.4 59.2s-25 55.7-28.7 106.4c-2.3 30.8-2.1 140.9.6 330.5l1.5 110.8c3.2 149.1 4.8 223.6 7.9 372.6 5.9 5.1 8.9 7.6 14.8 12.7 18 14.8 45.1 27.6 81.3 38.8 36.2 11.1 73.4 18 111.7 20.5m571.4-131.7c9.9 8.2 23.7 11.6 41.6 10.1 9-.7 17.9-3.5 26.8-8.3 16.9-9.6 28-49.6 33.3-120.3s8.3-220.4 9.4-448.8c.4-66.5.3-144.2-.4-232.9-.4-61.6-1.9-105.6-4.3-132.2-2.5-26.5-6-43.3-10.6-50.3-4.5-7.1-12.9-12.5-24.4-16.6-10.8-3.9-19-5.9-24.4-5.5s-13.5 3.6-24.3 9.4c-16.1 8.7-25.5 17.7-28.1 27-.9 2.5-2.1 155.3-3.6 458.2-1.5 303-1.6 459.7-2.1 468-.4 5.4-1.3 12-1.2 18.6.1 9 4.2 16.9 12.3 23.6m613.7 1.6c28.5.4 59.8.8 93.4.9 33.5.2 60 .5 79.2.8 19.3.3 30.7.4 34.3.3 1.6 0 2.4 0 4-.1 12.6-.2 25.1-3.4 37.7-9.5 12.5-6.1 20.8-12.6 24.1-19.2 2.8-5.6 4-14.2 4-25 0-14.2-2.7-24.5-8.1-31-8.1-9.8-19.6-16.3-34.4-19.2-14.8-3.1-40.1-4.1-76-3.1-53.8 1.4-93.2 1.6-118.3 0-18.3-.8-27.4-1.1-45.7-1.9.7-95.7 1-143.5 1.7-239.2-.1-32-.2-48-.3-80.1-.2-58.3-1.1-107.9-2.6-149-1.5-41-4-97.1-7.4-168.5-3.5-71.3-6.1-125.5-8.1-162.4-2.9-53.2-5.6-86.6-7.9-100.1-2.3-13.4-7.5-23.7-15.6-30.7-11.8-10.2-25.8-15-42.1-14.2-16.2.7-29.3 5.9-39.2 15.4-7.2 6.9-11.6 14.5-13.4 22.8s-2.5 28.5-2.4 60.5c.3 50.1 2.6 131 10.6 238.6 9 119.7 16.2 279.8 17.1 476.1.4 73.1-.8 113.4-3.4 121-2.7 7-4 10.5-6.7 17.5-22.6-.9-33.8-1.3-56.4-2.1-31.4-1.6-62.3-1.5-92.8.3-47.5 2.8-78.7 9.3-92.6 19.4-13.3 9.7-20 23.4-19.9 40 .1 12.4 4.7 22.2 13.7 29 8 6.1 32.9 9.6 74.6 10.8 41.6 1.2 142-.2 298.9 1.9m782.2-8.4c28.5 2 59.8 4.3 93.4 6.3 33.5 2.1 60 3.9 79.2 5.3 19.3 1.4 30.7 2.2 34.3 2.3 1.6.1 2.4.1 4 .1 12.6.4 25.1-2 37.7-7.4 12.5-5.3 20.9-11.4 24.2-17.8 2.8-5.4 4.1-14 4.1-24.8.1-14.1-2.6-24.6-7.9-31.4-8-10.3-19.4-17.4-34.2-21.2-14.8-3.9-40.1-6.4-76-7.4-53.8-1.6-93.2-3.7-118.3-6.7-18.3-1.9-27.4-2.8-45.7-4.6 1.2-95.6 1.8-143.4 3.1-239 0-32 .1-48.1.1-80.1.1-58.3-.5-108-1.7-149.1-1.3-41.1-3.5-97.4-6.5-169-3.1-71.5-5.4-125.8-7.2-162.8-2.5-53.4-5-86.9-7.3-100.5-2.2-13.6-7.4-24.2-15.5-31.7-11.7-10.8-25.7-16.4-42-16.6-16.2-.1-29.3 4.3-39.2 13.2-7.3 6.5-11.8 13.9-13.6 22.1s-2.7 28.3-2.8 60.3c0 50.2 1.9 131.2 9.3 239.2 8.3 120.3 14.6 280.6 14.4 477 0 73.1-1.4 113.3-4.1 120.7-2.7 6.9-4.1 10.3-6.8 17.2-22.6-2.2-33.9-3.2-56.5-5.3-31.4-3.4-62.3-5.1-92.8-5-47.5.1-78.9 4.8-92.8 14.1-13.4 8.9-20.2 22.2-20.1 38.8 0 12.5 4.5 22.5 13.4 29.8 8.1 6.6 33 11.5 74.7 15.1 41.6 3.6 142.2 7.9 299.1 18.9m428.6 11.9c9.8 6.2 33.9 10.3 72.4 12.4 43.9 2.4 108.9 4.3 194.7 7 69.7 2.3 111.6 3.6 125.5 3.1 13.8-.6 25.3-5.8 34.3-13.3 11.6-9.8 19-21.7 19.1-36.1s-6.5-28-19.8-40.4c-9.7-9-22.3-14.1-37.5-15.3-12.6-1-23-1.2-30.9-1.1-13.1.1-68-2.1-163.9-4-46.2-1-69.3-1.3-115.5-1.9 1.5-75.3 2.2-113 3.7-188.4 2.5-125.5 4.6-189.1 6.4-190.6 1.6.1 2.4.1 4.1.2 8.9.5 28.9 3.9 59.2 9.6 40.9 7.7 79.9 12.4 115.8 14.8 7 .5 10.5.8 17.5 1.2 35.9 1.7 58.3 2 67.3.6s18.6-6.3 27-14.6c10.9-10.7 16.4-22.8 16.5-33.9s-5.2-21.9-16-32.6c-8.9-8.9-18-14.3-27.5-16.3-9.4-1.9-35.6-5.3-77.4-8.6-58.7-4.6-105.5-9.8-138.8-17.5-20.4-4.2-30.7-6.2-51.1-10.3l-.5-167.7c.1-20.2.2-30.3.3-50.5.4-78.8 2.2-122.7 6.1-127.8 3.4-4.6 28.9-5.9 73-3.2 33 2 49.5 3.1 82.5 5.3q36.45 3.6 86.4 7.2c41.4 3.1 69.3.9 79.8-7.4 11.6-9.2 17.7-23.5 17.9-38.7.1-15.2-5-26.9-14.6-35.1-12.5-10.6-31.9-18.9-58-24.1-26.1-5.3-74.3-10.9-144.6-16.3-24.3-1.5-36.5-2.3-60.9-3.7-37.8-2.3-63.1-2.9-75.7-1.9-12.7 1-27.8 3.9-45.4 8.7-17.6 4.9-32.3 15.7-44.1 32.3-13.6 19.1-21.9 46.7-24.8 82.7.3 165.1.5 247.7.8 412.9-.2 239 1.2 379.4 4.1 421q4.5 62.4 31.2 81zm861.4 7.9c-28.6.9-49.1.8-61.6-.6-13.4-1.4-32.1-5.5-56.2-12.1-57.9-15.9-89.6-27.9-94.9-36.6-2.6-4.4-3.7-25.5-3.4-63.2 1.3-135.5 9.3-271.2 24.1-407 1.8-16.1 2.7-24.2 4.4-40.3 12.4 1.3 18.6 1.9 31 3.1 21.5 2.2 49.2 8.7 83.2 19.7 119 35.7 207.4 79.9 265.4 130.9 58 50.9 88.7 111.8 92.3 182.1-.1 7.4-.2 11.1-.3 18.5-.8 65.7-25.4 115.8-73.6 150.7s-118.3 52.9-210.4 54.8m-177.6 71.2c31.1 10.4 63.2 17.5 96.2 21 4.5.5 12.1 1.1 22.8 1.9 10.7.7 19.2 1.4 25.4 2.1 138.3 12 245.7-9.6 322.1-64.2 65.9-47.1 103.7-113.2 111.2-199.3q1.5-9.6 1.8-30.6c.6-46.7-9.8-94.3-31.6-141.3-26.5-57.1-64.1-106.4-111.5-147.1-47.4-40.8-111.7-78.2-192.9-111.5-27.8-11.7-41.8-17.5-69.7-29 22.3-11.3 33.4-16.9 55.6-28.2 173.3-86.8 268.2-134.8 284.5-149 8.2-8.7 12.4-19.3 12.6-31.6.1-12.3-3.3-23.9-10.3-34.7-7.1-10.8-16.8-18.3-29.4-22.5-3.5-1.3-8-2.3-13.4-3-8.1-1.1-20.2 1.8-36.5 8.7-16.2 7-51.5 24.1-105.7 51.9-179 91.4-280.1 143.9-303.6 152.2-12.4 4.2-18.6 6.3-31.1 10.4.6-63 .9-94.5 1.6-157.6.6-68.1-1-110.2-4.9-126.2s-14.8-26.9-32.8-32.8c-2.6-1.1-7.2-1.9-13.5-2.5-22.4-2.1-39.2 4.1-50.1 18.7-6.4 8.5-10.9 89.8-17 240.1-6.4 158.4-13.2 262.3-16.2 308-7.4 110.2-11.5 232.4-12.6 366.2-.3 29.6.1 46.6.9 50.7.9 5.6 18.6 18 53.3 36.8s66.4 32.9 94.8 42.4" style="fill:#100f0d;fill-opacity:1;fill-rule:nonzero;stroke:none" transform="matrix(.00813 0 0 -.00813 -184.298 257.544)"/></svg>