<svg xmlns="http://www.w3.org/2000/svg" xml:space="preserve" width="200mm" height="200mm" viewBox="0 0 200 200"><path d="M33398.7 13400.8c32.2 234.1 182.3 2101.3 258.9 2915.3 110.8 1178.2 61.8 1526.1-336.6 1912.4-139.3 134.9-840.2 694.1-935.9 874.4-103 194-155.2 409.6-158.1 627.6-5.3 415.2-19.7 887.7-6 1302.8 5 152.4 29.8 285.3-23.4 438-82.6 38.8-885.6 54.8-993 3.4-42.4-188.8-47.9-398.5-40.5-568 17.6-407.3 11.3-816.6-2.7-1224.5-7.6-220.1-57.7-428-173.7-615.9-115.7-187.3-944.4-777.6-1071.6-952.8-321.9-443.3-201.8-891.5-144.7-1817.5 78.7-1276.4 270-2743 273.4-2855 8-264 972.4-504.2 1709.3-504.2 692.6 0 1611.6 224.2 1644.6 464" style="fill:#ecf9f7;fill-opacity:1;fill-rule:nonzero;stroke:none" transform="matrix(.01718 0 0 -.01718 -445.612 412.54)"/><path d="M31406.7 19173c-65.3 0-118.3 45.2-118.3 100.8v876.9c0 55.7 53 100.8 118.3 100.8s118.3-45.1 118.3-100.8v-876.9c0-55.6-53-100.8-118.3-100.8" style="fill:#fff;fill-opacity:1;fill-rule:nonzero;stroke:none" transform="matrix(.01718 0 0 -.01718 -445.612 412.54)"/><path d="M33657.6 16316.1c-76.6-814-226.7-2681.2-259-2915.4-32.9-239.7-951.9-463.9-1644.5-463.9-736.9 0-1701.3 240.1-1709.2 504.2-3.5 112.1-194.8 1578.6-273.5 2855-57.1 926-177.2 1374.2 144.7 1817.5 127.2 175.2 956 765.5 1071.6 952.8 85.3 138.2 134.8 287.2 158.2 443.9 44.6-10.6 92.2-20.6 142.5-29.8 73.2-13.3 152.4-24.6 236.6-32.6 83.4-8 171.9-12.6 264.9-12.6 130.7 0 288.4 31 456.4 80.3 23.9-143.3 69.9-282.9 138.8-412.6 95.7-180.2 796.6-739.5 935.8-874.4 398.5-386.3 447.4-734.2 336.7-1912.4" style="fill:#ca851a;fill-opacity:1;fill-rule:nonzero;stroke:none" transform="matrix(.01718 0 0 -.01718 -445.612 412.54)"/><path d="M31222.4 21459.7c-42.4-195.9-44-407.8-37.8-552.2 15.2-352 14.4-730.2-2.6-1226-8.4-242.1-66.2-446.9-176.8-626-63.5-102.7-327.3-316.8-582.5-523.8-222.2-180.3-432.1-350.6-489.9-430.2-256.9-353.8-226.6-720.7-176.5-1328.5 11.7-141.2 24.8-301.2 35.6-475.7 57.2-927.3 172.6-1944.3 234.7-2490.7 23.6-208 37.8-333.5 38.8-365 3.3-110 215-234.1 566.2-331.9 342.6-95.4 762.2-152.4 1122.5-152.4 730.3 0 1595.5 237.8 1624.2 446.3l20.4-2.8-20.4 2.8c18.3 132.5 74.5 791 134 1488.1 45.1 528.5 91.8 1075 124.8 1426.3 50.3 534.7 73.4 951.5 22.8 1247.8-44.9 263.3-143.9 445-353.2 647.9-39.6 38.3-128.1 113.9-230.6 201.5-269.7 230.5-639.1 546.1-709.1 678-102.1 192.3-157.6 412.5-160.5 637-1.3 94.7-2.9 192.3-4.7 291.5-5.9 339.9-12 691.3-1.3 1012.3 1 32.2 3 63.6 4.8 94 6.8 110 13.3 214.1-24.1 327.5-110 34.4-830.6 47.3-958.8 4.2m531.7-8543.5c-363.8 0-787.5 57.5-1133.5 153.8-220.4 61.4-590.9 191.1-596.3 370.4-.9 29.7-15.9 161.7-38.6 361.6-62.1 546.7-177.6 1564.4-234.9 2492.7-10.7 174.1-23.9 333.9-35.5 474.9-50.9 617.3-81.6 990 184.2 1356 61 84.1 272.9 256 497.3 438 252.5 204.9 513.6 416.7 573.4 513.5 106.7 172.9 162.6 371.1 170.7 605.8 17 494.8 17.8 871.9 2.6 1222.9-6.5 149.4-4.6 370.2 41.1 573.4l2.1 9.8 9 4.3c110.5 52.9 924.2 37.3 1010.7-3.4l7.8-3.7 2.8-8.1c43.5-124.8 36.6-235.4 29.4-352.7-1.9-30.1-3.8-61.2-4.8-92.8-10.6-319.9-4.5-670.8 1.4-1010.2 1.7-99.3 3.4-196.9 4.6-291.6 2.8-218 56.7-431.8 155.7-618.3 66.4-125 447.4-450.6 699.6-666 107.2-91.7 191.9-164.1 232.4-203.3 395.1-383 455.9-725.5 342.8-1929-33.1-351.2-79.7-897.6-124.8-1426-59.6-697.7-115.8-1356.6-134.2-1490.2-22.5-163.2-379.3-282.4-590-339-333.1-89.4-735-142.8-1075-142.8" style="fill:#231f20;fill-opacity:1;fill-rule:nonzero;stroke:none" transform="matrix(.01718 0 0 -.01718 -445.612 412.54)"/><path d="M30996.9 13344.6c-2.3 0-4.6.1-7 .3-249.2 22.4-554.3 170.9-662.5 227.1-25 13.1-41.5 38.8-43.5 67.8l-263.3 3833.8c-3.4 50.6 36.2 88.7 79.5 88.7 13.5 0 27.4-3.7 40.5-11.9 307.1-193 684.4-285.5 831.6-316.3 36.7-7.6 63.2-40.9 63.7-79.8l3.4-317.9c-233.3 12.3-441.4 30.8-592.3 55.3-4 .7-7.8 1-11.5 1h-1.6c-54.8-.3-82.6-63.5-93.9-133.6-13.6-39.3-19.1-81.4-15.3-123.8l199.1-2268.7c11.3-126.9 101.9-233.4 227.1-266.8 106.3-28.2 212.7-51.4 319.2-69.7 0 0 0 2.3-.1 6.6l6.7-608.7c.5-46.4-35.8-83.4-79.8-83.4m-365.8 4266.1c-285.9 0-552.4 222.8-516.9 361.6 77.8 303.8 1174.2 956.1 1174.2 956.1 36.3 9.3 61.8 13.2 79.7 13.2 56.7 0 36.5-39.2 38.6-68.8 2.8-38.9-319.3-1161.9-647.3-1246.2-42.6-10.9-85.6-15.9-128.3-15.9" style="fill:#daaf3b;fill-opacity:1;fill-rule:nonzero;stroke:none" transform="matrix(.01718 0 0 -.01718 -445.612 412.54)"/><path d="M31406.7 19173c-65.3 0-118.3 45.2-118.3 100.8v206.6c73.2-13.3 152.4-24.6 236.6-32.6v-174c0-55.6-53-100.8-118.3-100.8" style="fill:#d9b02c;fill-opacity:1;fill-rule:nonzero;stroke:none" transform="matrix(.01718 0 0 -.01718 -445.612 412.54)"/><path d="M32466.6 13346.5c-149.8.1-263.9 15.9-263.4 45.9 1.7 99.4 684.5 101.3 763.7 166.6 162.9 134.4 116.6 375.4 131.6 573.4 20.1 265.8 98.3 2748.3 305.9 2748.3.6 0 1.3 0 2-.1 210.1-15.8-71.9-2281.3-90.3-2524-19.3-256.2 40-687.5-176.9-880.8-99.1-88.4-432-129.3-672.6-129.3" style="fill:#daaf3b;fill-opacity:1;fill-rule:nonzero;stroke:none" transform="matrix(.01718 0 0 -.01718 -445.612 412.54)"/><path d="M32232.2 21730.6v-1656.7s-139.8-96.2-510.7-93.1c-97.9.8-183.8 10.5-257.4 24-104.7 19.5-184.2 47.2-236.5 69.4-49.3 20.9-74.6 37-74.6 37l3 1669 71.6-3.3 236.5-10.9z" style="fill:#c89519;fill-opacity:1;fill-rule:nonzero;stroke:none" transform="matrix(.01718 0 0 -.01718 -445.612 412.54)"/><path d="M31168.2 20119.9c10.5-6 32.6-17.7 65.3-31.6 47.7-20.3 126.9-48.7 233.4-68.5 81.4-15 167.1-23 254.7-23.7 318.9-3 464 68.5 495.3 86.4V21716l-1045.7 48.2zm570.9-154.4c-5.8 0-11.7 0-17.8.1-89.3.7-176.8 8.9-259.9 24.2-109.3 20.4-190.7 49.5-239.8 70.4-49.8 21.1-75.7 37.4-76.8 38.1l-7.1 4.5v8.4l3.1 1685 1106.6-51v-1679.3l-6.6-4.6c-5.7-3.9-143.5-95.8-501.7-95.8" style="fill:#231f20;fill-opacity:1;fill-rule:nonzero;stroke:none" transform="matrix(.01718 0 0 -.01718 -445.612 412.54)"/><path d="M31525 20015.9c-98.2 14-177.5 36.1-236.6 57v1563.6c51.1-13.5 101.9-24.6 151.4-33.2q42.6-7.35 85.2-12.6z" style="fill:#ebd99a;fill-opacity:1;fill-rule:nonzero;stroke:none" transform="matrix(.01718 0 0 -.01718 -445.612 412.54)"/><path d="M31173.6 20123c43.6-24.1 234.9-119 548.1-121.6 307.4-2.2 454 64.7 489.9 84.3v1625.2l-1035 47.8zm565.5-162.8h-17.8c-369.8 3.1-570.9 128.3-579.3 133.6l-9.6 6.1 3.1 1701.9 1117.3-51.6v-1687.1l-8.9-6.1c-5.9-4-144.9-96.8-504.8-96.8" style="fill:#231f20;fill-opacity:1;fill-rule:nonzero;stroke:none" transform="matrix(.01718 0 0 -.01718 -445.612 412.54)"/><path d="m32300.1 22040.3-.5-174c0-98-64-183.7-156.3-210.8-230.4-67.3-464.1-78.5-700.9-37.1-58.4 10-116.9 23.3-175.7 39.8-16.7 4.7-32.4 11.3-47.1 19.6-67.5 37.8-111.6 110.6-111.6 191.9l2.7 167.4c0 25.9 4.7 51.5 13.8 75.6l-3.1 86.1-2.9 10.2c-3.6 12.8-5.5 26.1-5.7 39.4l-4.8 438.7h1191.6v-456.8c0-24.3-5.2-48.3-15.4-70.3l-.7-55.1.8-1.5c10.5-19.4 15.8-41.1 15.8-63.1" style="fill:#f8ecb3;fill-opacity:1;fill-rule:nonzero;stroke:none" transform="matrix(.01718 0 0 -.01718 -445.612 412.54)"/><path d="M32300.1 22040.3h.1zm-1176.7 631.5 4.7-423.2c.1-11.9 1.9-23.9 5.1-35.5l3.5-13.7 3.1-89.2-1.1-2.8c-8.5-22.8-12.8-46.4-12.8-70.3l-2.7-167.7c0-74 39.8-142.5 103.8-178.3 14-7.9 28.7-14 43.8-18.2 58.8-16.5 117.4-29.8 174.2-39.5 236-41.2 469.5-28.8 694 36.8 85.6 25 145.4 105.7 145.4 196.1l.5 174.1c0 19.5-4.9 38.8-14 55.7l-2.7 5.2.8 62.2 1.4 2.9c9.1 19.8 14 41.9 14 63.9v441.5zm592.7-1092.7c-91.5 0-183.7 8.1-276.3 24.2-57.8 10-117.4 23.5-177.2 40.2-17.5 4.9-34.5 12-50.5 21-73.6 41.2-119.4 119.8-119.4 205.2l2.7 167.7c0 26.3 4.6 52.5 13.7 77.7l-2.8 81.3-2.5 8.4c-3.9 14.3-6 28.9-6.2 43.4l-5.1 454.1h1222.4v-472c0-25.2-5.4-50.6-15.5-73.6l-.6-48.1c10.8-20.8 16.6-44.4 16.6-68.3l-.5-174c0-103.9-68.8-196.6-167.4-225.4-140.8-41.2-285.2-61.8-431.4-61.8" style="fill:#231f20;fill-opacity:1;fill-rule:nonzero;stroke:none" transform="matrix(.01718 0 0 -.01718 -445.612 412.54)"/><path d="M31442.2 21633.9c-56 9.7-113.6 22.8-171.4 39-15.1 4.2-29.8 10.3-43.8 18.2-2.7 1.5-5.3 3.1-7.9 4.7l-23.7 899.1 41.7 76.9h123.1l63.4-12.2z" style="fill:#fdfae8;fill-opacity:1;fill-rule:nonzero;stroke:none" transform="matrix(.01718 0 0 -.01718 -445.612 412.54)"/><path d="M31442.4 21618.4c-58.4 10-116.9 23.3-175.7 39.8-16.7 4.7-32.4 11.3-47.1 19.6l-.5 18c2.6-1.6 5.2-3.2 7.9-4.7 14-7.9 28.7-14 43.8-18.2 57.8-16.2 115.4-29.3 171.4-39zm-82.2 1053.4h-123.1l8.2 15.3 3.4 6.2 32.2-6.2z" style="fill:#9d9d9c;fill-opacity:1;fill-rule:nonzero;stroke:none" transform="matrix(.01718 0 0 -.01718 -445.612 412.54)"/><path d="M31711.9 22045.4c-291 0-534.6 62.9-586.7 143.3-1-19.1-.5-57.4 3.1-76.8 55.5-79.2 292.7-135.8 580.6-135.8 292.8 0 527.5 48.5 575.6 126.8 1.2 14.4-1 39.3-1.6 63.1-77.2-70.1-305.2-120.6-571-120.6" style="fill:#ca851a;fill-opacity:1;fill-rule:nonzero;stroke:none" transform="matrix(.01718 0 0 -.01718 -445.612 412.54)"/><path d="M31147.8 22120.2c49.5-62 255.3-123.5 561.1-123.5 280.6 0 506.6 46.2 555.4 113 .1 4.8-.1 10.7-.3 17.1-102.3-61.9-314.6-101.9-552.1-101.9-253.1 0-470.8 45.5-565.8 114.5.4-7.1.9-13.8 1.7-19.2m561.1-164.7c-296.7 0-536.8 58.1-597.5 144.6l-2.6 3.7-.8 4.4c-3.9 21.3-4.4 61.1-3.3 81.6l3.3 63.3 34.5-53.2c42.6-65.8 267.3-133.9 569.4-133.9 253.4 0 482.5 47.4 557.2 115.2l33.3 30.3 1.1-45.1c.2-8.3.6-16.9 1-25 .7-15.9 1.4-29.6.5-40.2l-.4-4.8-2.5-4.2c-62-100.8-347.1-136.7-593.2-136.7" style="fill:#231f20;fill-opacity:1;fill-rule:nonzero;stroke:none" transform="matrix(.01718 0 0 -.01718 -445.612 412.54)"/><path d="M31765.3 21839.5c-7.8 0-15.5 0-23.2.1-263.5 3.4-537.9 62.1-638.3 136.5l24.5 33.1c92.7-68.8 362.5-125.2 614.3-128.5 270.8-3.6 503.4 51.8 542.7 103.7l32.8-24.9c-57.9-76.4-321.9-120-552.8-120" style="fill:#231f20;fill-opacity:1;fill-rule:nonzero;stroke:none" transform="matrix(.01718 0 0 -.01718 -445.612 412.54)"/><path d="m31128.8 22666.5 4.6-417.8c.1-11.6 1.8-23 4.9-34.1l3.6-12.5 3.3-92.8-1.5-3.8c-8.2-21.9-12.4-44.9-12.5-68.4l-2.7-167.8c0-88.8 59.2-167.5 143.8-191.3 296.1-82.9 587.2-83.8 865.2-2.7 83.4 24.4 141.6 103 141.6 191.1l.5 173.9c0 18.6-4.6 37-13.4 53.3l-3.4 6.3.9 64.8 1.8 4c8.9 19.1 13.6 40.5 13.6 61.6v436.2zm587.7-1092.5c-149.8 0-301.9 21.4-455.3 64.4-102.3 28.7-173.8 123.8-173.8 231.3l2.7 167.8c.1 26.7 4.7 53.2 13.7 78.5l-2.9 79.6-2.2 7.8c-4.1 14.5-6.3 29.6-6.4 44.8l-5.1 459.4h1233v-477.3c0-25.6-5.3-51.3-15.5-74.8l-.6-45.6c10.9-21.5 16.7-45.5 16.6-69.7l-.5-173.9c0-106.2-70.4-201-171.2-230.5-141.2-41.2-285.7-61.8-432.5-61.8" style="fill:#231f20;fill-opacity:1;fill-rule:nonzero;stroke:none" transform="matrix(.01718 0 0 -.01718 -445.612 412.54)"/><path d="M32299.7 22691.2c0-96-266.8-173.9-595.9-173.9-329 0-595.8 77.9-595.8 173.9s266.8 173.8 595.8 173.8c329.1 0 595.9-77.8 595.9-173.8" style="fill:#fff;fill-opacity:1;fill-rule:nonzero;stroke:none" transform="matrix(.01718 0 0 -.01718 -445.612 412.54)"/><path d="M31703.8 22844.5c-339 0-575.3-80.8-575.3-153.3s236.3-153.3 575.3-153.3c339.1 0 575.3 80.8 575.3 153.3s-236.2 153.3-575.3 153.3m0-347.7c-298.8 0-616.4 68.1-616.4 194.4s317.6 194.4 616.4 194.4 616.4-68.1 616.4-194.4-317.6-194.4-616.4-194.4" style="fill:#231f20;fill-opacity:1;fill-rule:nonzero;stroke:none" transform="matrix(.01718 0 0 -.01718 -445.612 412.54)"/><path d="m33050.8 16682.9-169.5-2311.4c-9.4-129.1-104.5-238.5-236.7-271.9-526.5-133.1-1051.4-154.7-1574.6-62.9-97.5 17-195.1 38.1-292.6 63.1-129.7 33.4-223.7 139.9-235.2 266.7l-206.4 2268.7c-3.2 35.4-2.5 81 4.2 123.9 11.3 70.1 39.1 133.3 93.9 133.6 4.2.1 8.6-.2 13.1-1 151-24.5 359.5-43 593-55.4 742.1-39.3 1736.2-17.3 1936.1 63.3 86.3-18.9 82.4-110.2 74.7-216.7" style="fill:#f8ecb3;fill-opacity:1;fill-rule:nonzero;stroke:none" transform="matrix(.01718 0 0 -.01718 -445.612 412.54)"/><path d="M31070.1 14030.1c-106.5 18.3-212.9 41.5-319.2 69.7-125.2 33.4-215.8 139.9-227.1 266.8l-199.1 2268.7c-3.8 42.4 1.7 84.5 15.3 123.8-6.7-42.9-7.4-88.5-4.2-123.9l206.4-2268.7c11.5-126.8 105.5-233.3 235.2-266.7 97.5-25 195.1-46.1 292.6-63.1.1-4.3.1-6.6.1-6.6" style="fill:#f4e6ba;fill-opacity:1;fill-rule:nonzero;stroke:none" transform="matrix(.01718 0 0 -.01718 -445.612 412.54)"/><path d="M31070 14036.7c-97.5 17-195.1 38.1-292.6 63.1-129.7 33.4-223.7 139.9-235.2 266.7l-206.4 2268.7c-3.2 35.4-2.5 81 4.2 123.9 17.7 50.8 49.1 96.8 92 132.6l1.9 1h1.6c3.7 0 7.5-.3 11.5-1 151-24.5 359.5-43 593-55.4 7.9-658.5 28.6-2670.1 30-2799.6" style="fill:#fefaeb;fill-opacity:1;fill-rule:nonzero;stroke:none" transform="matrix(.01718 0 0 -.01718 -445.612 412.54)"/><path d="M30434.2 16872.3c-12.1 0-22.4-4.3-31.9-13.2-39.7-37-53.3-141.9-46-222l206.3-2268.8c10.7-117.6 99.1-217.5 219.9-248.5 611.5-157.1 1236.3-157.1 1857.1-.3 123.5 31.2 212.4 133.1 221.2 253.5l169.5 2311.4c7.9 108.4 8.3 176.4-52.9 193.7-284-104.5-1901.8-109.5-2533.7-6.6-3.3.5-6.4.8-9.5.8m1273.8-2911.4c-313.8 0-626.4 39.7-935.7 119.1-137.6 35.3-238.3 149.7-250.6 284.6l-206.3 2268.8c-5.9 64-1.1 199.9 58.9 255.7 21 19.7 47.3 27.6 76 22.9 632.8-103 2256.6-98.7 2518.1 6.7l5.8 2.3 6.2-1.3c106.6-23.4 98.3-137.5 90.9-238.3l-169.5-2311.4c-10.1-138.1-111.5-254.8-252.2-290.3-313.5-79.2-628.2-118.8-941.6-118.8" style="fill:#231f20;fill-opacity:1;fill-rule:nonzero;stroke:none" transform="matrix(.01718 0 0 -.01718 -445.612 412.54)"/><path d="M30892.9 14501.1c-13.6 6.4-29.5 10.7-47.8 12.7-20.5 2.3-41 1.6-61.6-2.1-4.6-.7-7-1.1-11.6-1.9 1.5-31.6 2.2-47.4 3.7-79 2.5-53.1 4.9-81.1 7.2-83.9 2.3-2.7 10.5-6.4 24.4-10.9 14-4.5 26.5-7.4 37.6-8.6 59.5-6.7 95.1 15.1 106.8 64.2 1.7 6.3 2.3 14 2 23-.5 18-6.2 34.8-16.9 50.2q-16.05 23.1-43.8 36.3m1.1 172.9c-15.3 21.3-38.3 33.6-68.8 37.1-18.9 2.1-36.8-.2-53.7-6.7-4.9-1.8-7.3-2.7-12.2-4.5 1.6-28.2 2.4-42.3 3.9-70.5 3.4-47.1 5.5-71 6.3-71.9l1.7-.7c4.1-.5 13.9 1 29.4 4.6s29.3 7.6 41.5 12c12.1 4.4 23 10.3 32.6 17.7 9.7 7.4 16.8 14.8 20.9 21.8 3.2 5.6 5 15.7 5.7 29.6-.1 1.4 0 3.3.1 5.7.1 2.3.1 3.8.1 4.5q-.45 11.85-7.5 21.3m-92.7 82.9c6.7.3 13.8 0 21.4-.8 32-3.6 59.8-14.2 83.2-31.6 28.7-21.3 43.8-49.1 44.9-83.7 1-32.1-10.2-59.3-33.7-81.3-6.2-5.6-9.4-8.4-15.6-14 8.6-4.8 12.9-7.2 21.6-11.9 23.5-13.2 42.6-31 57.3-53.6 14.6-22.6 22.3-45.9 23-70.1.2-6.5-.2-12.6-1.1-18.2-4.3-30.5-15.4-55.6-33.2-75.1s-41-31.6-69.6-36.1c-12.4-2.3-29.5-2.2-51.3.2-24 2.7-44.3 7.3-60.6 13.4-21.2 8-35.3 16.4-42.1 25.1s-11.6 24.2-14.3 46.5c-1.7 13.5-4.3 61.9-7.8 145.3l-2 48.7c-2.3 65.5-3.4 98.3-5.7 163.9 2.3 2.3 3.5 3.4 5.9 5.7 7.2 6.6 18.2 12.5 33.2 17.7q22.35 7.8 46.5 9.9m376.3-76.7c-12.1 2.6-20.8 4.2-26.1 4.5-5.7.5-13.6.1-23.7-.9-24.4-2.5-37.7-5.4-39.9-8.8-1.1-1.7-1.4-10.8-1-27.4 1.6-59.5 6-119.5 13.2-180.1.9-7.2 1.3-10.8 2.2-18 5.1-.4 7.7-.6 12.9-1 9-.7 20.5 0 34.6 2.2 49.5 6.5 86.4 18.8 110.6 36.4 24.2 17.7 37 41.8 38.3 72.4-.1 3.2-.1 4.8-.1 8.1-.6 28.8-11.1 52.7-31.6 71.9s-50.3 32.6-89.4 40.7m-75.7 44.9c13.1 2.2 26.7 2.8 40.7 1.8 1.9-.1 5.1-.4 9.6-1 4.6-.5 8.2-.8 10.8-1 58.7-5.6 104.5-23.6 137.1-53.8 28.1-26 44.2-58 47.4-96.3.4-2.9.7-7.4.8-13.6.3-20.5-4-40.4-13.1-59.2-11.1-22.8-26.8-41.3-46.5-55.3-19.8-14-46.6-25.3-80.3-33.5-11.6-2.9-17.4-4.3-29-7.2 9.4-6.7 14-10 23.3-16.7 72.8-51.6 112.3-80.4 119.1-88 3.4-4.5 5.2-9.4 5.3-14.8 0-5.4-1.4-10.2-4.3-14.4-2.9-4.1-6.9-6.6-12.1-7.4-1.5-.3-3.3-.4-5.6-.3-3.3.2-8.4 2.5-15.1 6.8q-10.2 6.45-44.1 31.2c-74.7 54.2-117.2 84.8-127 90.2-5.3 2.8-7.9 4.2-13.1 7 .8-27.7 1.1-41.5 1.8-69.2.8-29.9.5-48.2-1-54.9s-6-10.7-13.3-11.9c-1.1-.3-3-.3-5.6-.1-9.2.7-16.2 4.8-20.8 12-2.7 4.2-5.3 40.2-9.1 106.4-4.1 70.1-7.8 115.9-9.5 136.2-4 48.9-6.8 102.7-8.5 161.4-.4 13-.3 20.4-.1 22.2.4 2.4 7.8 6.5 22.3 12.1s27.9 9.4 39.9 11.3m481.8-149.6c-4.2 15.1-7.2 24.1-8.7 26.6h-.5c-1.6.1-3.8-2.5-6.8-7.7-3-5.1-4.4-9-4.4-11.5 0-.3-5.8-13.5-17.2-39.5-10.4-23.5-20.6-48.5-30.7-74.8-10.1-26.4-15.1-41-15-43.9 0-3.2 3.7-4.2 11.2-3 3.8.6 23.3 1.4 58.4 2.9 32.9 1.4 49.5 2.9 49.5 4q-.15 5.4-8.1 30.9c-4.2 13.6-9.2 34.3-15.2 61.8-6 27.4-10.2 45.6-12.5 54.2m-27.9 101c5.3 3.8 11.9 5.7 19.8 5.5 8-.2 15-3.5 21.1-10.1 14.8-15 29.6-57.7 44.2-128.1 3.5-16.2 16-63.5 37.6-141.3 11.7-41.8 19.4-69.2 23.2-82.2 9.7-32.8 14.6-51.3 14.6-55.7 0-6.1-2.3-11.3-7-15.6-4.6-4.3-10.1-6.4-16.4-6.4-2.6 0-5.4.6-8.4 1.7-5.6 2.2-10.3 7.7-14.3 16.5-3.9 8.9-10.4 28.9-19.4 59.9-7.1 23.4-10.6 35.1-17.6 58.5-1.5 1.5-8.5 2.3-20.8 2.5-21 .3-47.3-.5-79.1-2.4-31.7-1.9-48.9-4-51.5-6.4-5.5-5.2-15.7-32.2-30.4-81-5.7-17.8-10.7-29.7-14.9-35.6-4.2-6-9.8-8.9-16.9-8.6-12.3.5-18.5 8.2-18.7 22.9-.1 9.8 10.5 47.1 32.3 112.4 21.8 65.2 42 118.4 59.2 159.1 14.1 33.1 24.3 58.7 31 75.8 13.3 33.1 24.1 52.6 32.4 58.6m230.6 4.6c2.6 1.8 6.2 2.7 10.7 2.7 6.9.1 13.3-2.9 19.3-9 6.8-6.8 29.7-40.1 68.1-99.5 38.5-59.4 72.6-114.2 102.4-164.3 24.6-41.4 37.6-61.9 39.1-61.9 1.8.1 2.9 9.1 3.1 27.1.6 46.8 5 126.3 13.1 238 2.3 32.1 4.8 51.8 7.5 58.9s9.6 10.9 20.6 11.3c7.9.3 14-1.9 18-6.8 3.4-4.1 5-10.8 4.8-19.7-.1-9.4-3-55.4-8.7-138.1-3.8-54.8-7.1-108.5-9.6-160.7-2.7-56.2-5.1-88.2-7.5-95.8-3.1-10.2-9.5-15.5-19.1-15.9-2.3-.1-3.9 0-5 .3-4.9 1.3-11.6 6.4-20.2 15.5-8.6 9-16 18.9-22.3 29.5-41.6 70.9-82.4 138.8-122 203.4-39.6 64.7-60.6 97.6-62.5 98.3-.8.3-1.7-7.9-2.6-24.6-1-16.8-2.1-42.3-3.1-76.7s-1.8-76.9-2.9-126.7c-1.4-64.2-2.7-97.6-3.1-99.4-1.1-6.1-3.6-11-7.6-14.6-3.9-3.6-8.2-5.4-13.1-5.5-5.9 0-11.1 2.3-15.6 7-2.7 2.8-4 4.2-6.7 7 .3 66.3.5 99.4.7 165.7.5 114.2 1.3 180.9 2.2 200.4 1 19.4 4.1 32.9 9.4 40 6.3 8.2 10.6 13 12.6 14.1m482.3-31.5c-13 3.8-28.9 5-46.7 4.6-11.8-.2-19.1 0-21.4-.1-7.2-.4-11.8-2.2-13.9-5.4s-3.3-9.8-3.5-19.9c0-2.9.1-15.5.5-37.7.7-43.2.4-101.8-1-176-.9-46.7-1.3-70-2.2-116.7 6.7.3 10.1.5 16.7.9 11.9.7 26.1 3.5 42.7 8.5s29.4 10.5 38.5 16.5c16.5 10.5 32.9 28.6 49.4 54.5 16.4 25.8 28 52.1 35.1 78.4 4 15 6.3 28.7 6.6 41 .1 1.4 0 3.8-.1 7q-.15 4.8 0 8.1c-.9 38-9.3 67.7-25.2 89.2-16 21.5-41.1 37.1-75.5 47.1m-77.5 46c6.1 1.4 13.8 2.4 23.3 3 21.1 1.2 40.1.5 56.4-2.5 15.3-2.8 31.8-8.2 49.1-15.8s31.3-16 41.9-25.2c20.2-16.8 34.7-36.5 43.4-59.1 4.2-10.5 7.7-24.6 10.4-42.6 2.6-17.9 3.8-33.2 3.4-45.8-1.1-40.7-13.4-83.1-36.7-127.1-23.3-43.9-50.7-75.7-81.2-95.6-30.5-19.8-68.8-31.7-114.9-34.2-9.3-.3-14-.5-23.4-.8-21.9-2.6-32.2 13-30.9 46.5 1.1 71.1 1.7 106.6 2.9 177.7.5 34.2.8 51.2 1.4 85.4.5 31.3 1.1 55 1.7 71 .7 16.1.8 28.5.6 37.3s1.2 13.9 4.3 15.3 6.3 2.2 9.7 2.4c1 0 1.4 0 2.4.1 6.8.3 11.9 1.5 14.9 3.5 2.3 1.5 9.4 3.7 21.3 6.5m238.8 19.5c4.3 3.8 9.3 6.1 14.9 6.6 4.2.4 7.6-.5 10.1-2.3 3.2-2.3 14.8-17.3 34.2-45.2 19.5-27.9 35.9-53.2 49.4-75.9 12.3-20.6 24.8-39.4 37.3-56.3 12.5-16.8 20.2-25.1 23.2-24.8l.5.1c1.2 1.2 6.6 12.3 16.3 33 12 25.3 31.2 60.7 57.4 106.1 26.3 45.4 43.4 72.7 51.3 81.5 3.5 3.7 8.4 5.9 14.8 6.7 6.8.8 12.7-.4 17.3-3.8 4-2.9 5.9-7.2 5.7-12.2-.3-6.9-4.9-17.7-13.7-32.4-49-81.2-82.7-140.5-101.6-178.5-3.2-6.5-6.8-13.8-10.8-22l-9.7-19.4c-2.4-4.7-4-7.7-4.7-8.9q-3.6-5.7-7.8-105.9c-1.6-31.4-2.4-47.1-3.9-78.6-2.8-2.8-4.2-4.3-6.9-7.2-4.6-4.8-10.1-7.5-16.4-8.2-7-.7-13 1-16.9 5.2-3.2 3.4-4.6 13.2-4 28.7 0 2.2 1.1 22.1 3.1 59.6 2.1 41.2 3.1 61.8 5.2 103-9 10.5-13.5 15.7-22.5 26.2-22.6 26.9-42.2 56.4-58.8 88.7-4.9 9.2-18.2 31-40.2 64.8-20.3 31.2-30.7 50.7-30.5 58.3.1 4.3 2.9 8.7 7.7 13.1m-1604.9 1807.7c-4.6 15.5-7.9 24.7-9.5 27.4h-.6c-1.5.2-3.6-2.2-6.4-7.1s-4.1-8.6-4-11.1c0-.4-5.3-13.1-15.7-38.2-9.4-22.7-18.6-46.7-27.7-72.3-9-25.5-13.4-39.7-13.3-42.6.2-3.3 3.9-4.6 11.3-4 3.7.3 23-.5 57.9-2 32.6-1.4 49-1.3 48.9-.2-.1 3.6-3.2 14.2-9.1 31.6-4.7 14-10.4 35.2-17.4 63.2-6.9 27.9-11.7 46.5-14.4 55.3m-31.4 103.4c5.1 3.4 11.6 4.7 19.6 3.9 7.9-.8 15-4.8 21.3-11.9 15.3-16.3 31.6-60.3 48.6-132 4-16.5 18.2-64.9 42.5-144.6 13.1-42.8 21.8-70.9 25.9-84.2q16.35-50.55 16.5-57c.3-6.1-1.9-11.1-6.3-15-4.5-3.9-9.9-5.6-16.1-5-2.6.2-5.4 1-8.4 2.3-5.6 2.7-10.6 8.7-14.8 17.8-4.2 9.2-11.4 29.8-21.5 61.6-7.8 24-11.7 36-19.6 60.1-1.5 1.5-8.4 3-20.7 4.2-20.8 2.1-47 3.5-78.4 4.2-31.5.8-48.4.2-50.9-2-5.3-4.8-14.4-31-27.1-78.6-5-17.3-9.5-28.8-13.4-34.4-4-5.6-9.4-8-16.4-7.1-12.2 1.5-18.7 9.7-19.4 24.5-.5 9.7 8.6 46.2 27.8 109.7 19.1 63.5 37.1 115.1 52.8 154.4 12.7 31.9 22 56.7 27.9 73.2 12 32.1 22.1 50.7 30.1 55.9m393.8-66c-12.1 2.5-25.3 4.3-39.7 5.3-24.9 1.6-53.1 1.2-84.7-1.1-5.6-.6-8.4-.9-14-1.6.7-23.4 1.7-58.4 2.8-105s2-81.7 2.7-105.1c3.2-1.5 4.8-2.3 8-3.8 6-2.6 19.3-4.7 39.8-6.2 4.1-.3 6.1-.4 10.1-.7 29.5-1.8 52.5-.9 69.2 2.4 34.9 6.8 60.2 17.8 76 32.8 15.7 15 24.1 35.8 25.1 62.3-.1 3.7-.2 5.5-.2 9.2-.4 16.9-3.3 32.8-8.9 47.7-5.6 14.8-13 26.1-22.2 33.8-7.3 6.1-17.1 12.1-29.5 18-12.4 6-24 9.9-34.5 12m-92.9 48.8c15.2 1.5 33.3 1.4 53.7.1 32.5-2.1 58-6.5 76.3-13.3 34.6-13.1 60.3-30.6 76.9-52.7 16.7-22.2 26.6-52.3 30-90.5.4-3.3.7-7.9.8-14 .3-18.7-4.9-39.5-15.7-61.8-8.2-16.8-19.2-30.8-32.8-41.8-13.6-10.9-31.9-20.4-54.7-28-34.3-11.4-75.4-15.4-123-12-18.8 1.3-28.2 2-46.9 3.5.8-26.6 1.2-39.9 2.1-66.5.8-25.9 1-42 .7-48.3-.4-6.2-2.2-11-4.8-14.4-3.6-4.5-9-6.8-16.4-6.2q-10.65.75-18 9c-2.8 3-4.2 4.5-6.9 7.5-2.1 41.5-3.1 62.3-5.2 103.8-1 17.3-2.3 50.2-3.9 98.8-1.8 50.3-2.7 85.7-3.1 105.7-1.1 62.7-1.1 98.5.4 106.6 1.6 9 6.1 14 13.6 14.5 1.1.2 8.5-.1 22-.7 22.6-1.1 41.1-.7 54.9.7m419-43q-18.15 3.15-26.1 3.3c-5.7.2-13.6-.5-23.8-2-24.5-3.6-37.9-7.1-40.1-10.6-1.1-1.8-1.6-11-1.3-27.5.8-59.4 4.4-119.2 10.9-179.5.7-7.1 1.1-10.7 1.9-17.9 5.1-.1 7.7-.2 12.9-.4 9-.2 20.5 1 34.7 3.9 49.6 8.7 86.6 22.7 111.1 41.5 24.4 18.7 37.6 43.4 39.4 74 0 3.2-.1 4.8-.1 8.1-.1 28.8-10.2 52.2-30.5 70.5-20.3 18.2-50 30.3-89 36.6m-75.4 41.4c13.2 2.8 26.8 4.1 40.9 3.7 1.9 0 5.1-.2 9.7-.5 4.5-.3 8.1-.5 10.7-.6 58.8-2.8 104.4-18.8 136.7-47.5 27.7-24.8 43.4-56.1 46-94.2q.6-4.35.6-13.5c.1-20.5-4.6-40.6-14-59.8-11.3-23.3-27.3-42.5-47.3-57.4-19.9-14.9-46.9-27.4-80.8-37.1-11.6-3.4-17.4-5.2-29-8.6 9.2-6.2 13.9-9.3 23.1-15.6 72-48.2 111-75.3 117.7-82.5 3.4-4.4 5-9.2 5.1-14.6 0-5.4-1.5-10.3-4.5-14.6-2.9-4.3-7-6.9-12.2-8-1.5-.3-3.3-.5-5.5-.4-3.4 0-8.4 2-15.1 6-6.7 4.1-21.2 13.7-43.6 29.2-73.8 50.8-116 79.4-125.8 84.4-5.2 2.5-7.7 3.8-12.9 6.3.3-27.6.5-41.4.9-69.1q.6-44.7-1.8-54.9c-1.6-6.8-6-11-13.4-12.5-1.1-.3-3-.5-5.6-.4-9.2.3-16.1 4-20.7 11-2.6 4.1-4.8 39.9-7.8 106-3.1 69.8-6.3 115.5-7.7 135.7-3.4 48.7-5.6 102.4-6.5 161-.2 13-.1 20.4.2 22.2.4 2.4 7.8 6.8 22.5 13.1s28.1 10.7 40.1 13.2m295.6-32.8c4.1 4 10 6 17.6 6 3.7 0 7.5-.9 11.3-2.6 7.2-3.6 12-20.7 14.3-51.5 2.4-30.7 3.9-96.2 4.7-196.1.3-29.1.4-63.1.2-102-.1-27-.6-46.3-1.6-58s-2.4-19.2-4.2-22.4c-1.9-3.3-5.3-5.9-10.1-8.2-4.4-2.1-7.7-3.3-10-3.3-2.2 0-5.5 1.1-10 3.2-6.6 3.2-10.5 6.8-11.6 10.8-.4 1-1.3 67.8-2.9 200.4-1.5 132.6-2 201.2-2.3 204.8-.2 2.3-.6 5.2-.6 8.1 0 3.9 1.7 7.6 5.2 10.8m260.1 18.7c5.7 1.2 12.1 2 19.3 2.3 17.1.6 31.8-1.4 44.2-5.9 7.9-2.9 16.6-8.7 26-17.2 9.5-8.6 15.7-16.5 18.6-23.5q3.75-9 3.6-19.8c-.3-12.2-3.6-20.5-10.1-24.7-2.3-1.6-6.6-2.5-13-2.8-5.3-.2-10.1 1.9-14.3 6.2-4.3 4.3-6.4 9.2-6.3 14.5.1 4.7-2.9 10.2-9 16.4-6.2 6.2-12.7 10-18.8 11.7-4.1 1.1-9 1.8-14.7 1.6-18.9-.7-39.4-9.5-61.5-26.3s-39.3-37.1-51.5-60.7c-18-34.6-27.9-71.1-29.7-109.6 0-1.4-.1-3.8-.3-7-.3-3.3-.4-5.6-.4-7.1-.7-70.7 23.5-117.6 71.9-139.6 8.9-4.1 16.6-6 23.3-5.8 4.1.2 7.4.4 10 .9 10.8 1.4 19.4 3.9 25.8 7.3 6.3 3.5 13.3 9.5 20.8 18 7.6 8.6 12.9 15.7 16 21.2s5.9 14 8.8 25.1c5.3 20.6 14.5 31.4 26.8 31.9 5.6.3 11.1-2.2 16.6-7.3 5.2-4.8 7.7-9.2 7.6-13.2 0-1.1-.5-4.1-1.3-9.2-3.4-23.2-13.3-45.7-29.7-67.7-16.3-21.9-34.3-36.8-54.1-44.7-10-4.4-24.9-7.2-44-8-17.6-.7-32.2 1.5-43.3 6.3-33.5 14.9-58.7 36.2-75.4 63.6s-26.3 62.7-28.7 105.9c-.3 3.5-.5 9.1-.4 16.7.2 43.9 9.1 85.4 26.9 124.5 17.8 39.2 40.2 68.9 67.3 89.4 10.2 7.8 22.5 15.3 36.8 22.5 14.2 7.3 26.4 11.9 36.2 14.1m369.8-39c-4.8 2.4-17 3.5-36.6 3.2-2.2-.2-5.1-.3-8.5-.4-3.3 0-5.6-.1-6.7-.2-9.5-.7-19.9-4.1-31.4-10.2-29.4-15.6-52.9-53.5-70.5-113.8q-6.75-22.95-8.4-35.4c-1.2-8.4-2.4-23.9-3.1-46-.9-27.1.2-47.8 2.5-61.5 2.2-13.7 7.5-27.7 15.1-41.9 8.2-15.4 19-27.5 32.5-35.4q20.25-11.85 44.1-10.2c13.4.9 26 4.7 38.1 11.3 25.2 13.7 46.8 33.7 64.6 59.9 13.7 20.1 23.6 40.9 29.7 62.2s9.8 48 10.9 80c.2 6.9.4 10.4.6 17.3.6 16.2-1.7 31.2-6.8 45.1-13.4 33.3-35.5 58.6-66.1 76m-67.6 43.6q7.35 1.95 42.6 5.7c3.6.2 5.4.4 9 .6 12.1.9 24.2-1.1 36-5.8 11.4-4.5 26.1-14.7 43.6-30.4 11.6-10.2 19.7-18.1 24.2-23.8s9.7-14.8 15.6-27.2c8.3-17.5 13.6-31.6 15.8-42.2s3-26 2.2-46.1c-.2-4.6-.2-6.8-.4-11.4-2.3-42.2-8.9-78-19.6-107.3-10.7-29.4-28.3-58.6-52.5-87.6-12.4-15-28.2-28.9-47.4-41.5s-36.6-20.6-51.6-23.3c-7.3-1.3-13.2-2-17.3-2.3-38.8-2.7-70.8 7.9-96.1 31.6-8 7.4-16.6 19.2-25.9 35.4s-15.6 31.1-19.1 44.6c-3.7 14.5-5.3 39.1-4.5 73.6.4 19.4 1.4 34.5 3.2 44.9 2 11.6 3.7 25.1 5.3 39.7.8 7.1 4.6 19.8 11 37.8 6.4 17.9 13 32.6 19 43.6 6 10.9 13.3 22.7 22.3 34.7 8.9 12.1 16.5 20.8 22.7 26.2 6.5 5.8 16.1 11.7 28.7 17.7 12.6 6.1 23.8 10.2 33.2 12.8m373.6 47.8c12.1 2 25.3 4.2 39.4 6.4 14.2 2.2 25.3 3.9 33.4 5.3 8.1 1.3 13 2.1 14.5 2.3l1.7.2c5.2.6 10.4 0 15.6-1.9 5.1-1.9 8.5-4.2 9.7-6.9 1.1-2.3 1.4-6 1.2-10.7-.4-6.3-1.7-11-4.1-14.2-3.6-4.8-8.6-8.3-14.8-10.5-6.3-2.3-17-4.3-32-6.1-22.6-2.7-39.2-5.2-49.7-7.5-7.7-1.5-11.6-2.3-19.3-3.8-1.5-41.9-2.2-62.9-3.7-104.8-.6-14.1-.9-21.1-1.6-35.2-1.2-25.6-2.5-47.4-3.8-65.5-1.4-18.1-3.5-42.9-6.2-74.5-2.8-31.5-4.9-55.4-6.4-71.7-2.1-23.5-3.8-38.4-5-44.4-1.2-6.1-3.5-10.9-7-14.5-5-5.2-10.8-8.2-17.5-8.9-6.6-.8-11.9.7-15.7 4.2-2.9 2.6-4.6 5.6-5.1 9.1q-.9 5.4 0 26.4c.9 22 3.3 57.7 8.4 105.4 5.8 53.2 11.5 123.7 15.3 209.9 1.4 32.1 1.6 49.7.6 52.9-1 2.9-1.5 4.3-2.5 7.2-9.5-1.8-14.3-2.8-23.8-4.6-13.2-2.8-26.2-4.9-39-6.1-20-2-33.1-1.3-38.8 2.2-5.4 3.3-8.1 8.9-7.8 16.1.2 5.5 2.3 10.1 6.2 13.7 3.5 3.2 14 6.5 31.6 9.8 17.7 3.4 60.1 9.6 126.2 20.7" style="fill:#100f0d;fill-opacity:1;fill-rule:nonzero;stroke:none" transform="matrix(.01718 0 0 -.01718 -445.612 412.54)"/><path d="M31827 15842.6c-9.7-5.7-19-11.8-28-18.2-91.6-19.8-171.1-87.5-212.6-172.3-46.1-94.4-48.3-206.6-18.9-307.4 28.5-97.9 87.2-188.4 171.2-246.1 76.8-52.7 171.9-76.1 265-72.6 182.6 6.9 358.8 123.3 429.4 291.8 70.7 168.5 27.1 380.5-109.4 501.9-128.3 114.1-347.3 111.6-496.7 22.9" style="fill:#ca851a;fill-opacity:1;fill-rule:nonzero;stroke:none" transform="matrix(.01718 0 0 -.01718 -445.612 412.54)"/><path d="M32071.2 15886.5c-84.2 0-168.7-23-233.7-61.5l-.1-.1c-9.1-5.4-18-11.2-26.5-17.2l-3.4-2.5-4.2-.9c-82.5-17.8-158.5-79.6-198.4-161.2-41-83.9-47.4-190.5-17.7-292.7 28.9-99 86.8-182.4 163.2-234.9 69.9-48 159.5-72.4 252.5-69 176.1 6.7 345.2 121.5 411.3 279.3 68.3 162.9 24.4 364.2-104.2 478.6-64.7 57.4-151.6 82.1-238.8 82.1m-85.7-881.5c-94.9 0-186.1 27-258.4 76.6-84.2 57.8-147.9 149.2-179.4 257.3-32.5 111.9-25.2 229.3 20.2 322.2 44.7 91.4 129.7 160.9 222.6 182.5 8.3 5.9 17.1 11.5 26 16.7 168.4 99.9 392.3 89.1 520.8-25.2 141.4-125.7 189.7-346.6 114.8-525.2-73.2-174.8-253.1-297.2-447.6-304.5-6.3-.2-12.7-.4-19-.4" style="fill:#231f20;fill-opacity:1;fill-rule:nonzero;stroke:none" transform="matrix(.01718 0 0 -.01718 -445.612 412.54)"/><path d="M32059.7 15546.2c-9.4 0-18 6.6-20 16.2-48.7 226.8-240.1 241.4-242 241.5-11.4.7-20 10.5-19.3 21.8.8 11.4 10.4 19.7 21.9 19.3 2.2-.2 224.5-17.1 279.6-273.9 2.4-11.1-4.7-22.1-15.8-24.5-1.5-.3-2.9-.4-4.4-.4" style="fill:#231f20;fill-opacity:1;fill-rule:nonzero;stroke:none" transform="matrix(.01718 0 0 -.01718 -445.612 412.54)"/><path d="M31918.4 15111.7c12.5-2.6 17-18.2 7.8-27-73.6-70.7-331.6-287.4-606.5-151.9-242.7 119.6-301.8 335.1-269.1 509.9 21.9 117 137.7 212.3 137.7 212.3l278.3-449.9z" style="fill:#ca851a;fill-opacity:1;fill-rule:nonzero;stroke:none" transform="matrix(.01718 0 0 -.01718 -445.612 412.54)"/><path d="M31183.9 15623.2c-32-30.9-97.9-102.8-113.1-184.2-14.5-77.5-38.7-341.5 258-487.8 255.2-125.8 498.4 68.9 576.6 142.1l-451.6 93.5zm320.2-754.6c-62.1 0-127.2 13.1-193.5 45.7-256.3 126.4-312.8 357.8-280.2 532.2 23 122.9 139.9 220.3 144.8 224.4l18.2 15 286-462.4 443.1-91.7c13.3-2.7 23.9-12.6 27.7-25.6s0-27-9.8-36.4c-57.8-55.5-229.6-201.2-436.3-201.2" style="fill:#231f20;fill-opacity:1;fill-rule:nonzero;stroke:none" transform="matrix(.01718 0 0 -.01718 -445.612 412.54)"/><path d="M31157.4 15351.8c-22.4 157.7 36.2 303.2 36.2 303.2s89.3-79 183.3-160.6c9.6-8.5 19.4-16.9 29.1-25.3 14.2-12.2 21.2-53.1 34.6-64.5.8-51.4 23.3-105.3 57.2-125.2 27.2-16 83.4-54.6 147.5-22.3 14.3-8.4 39.8 1.7 54.8-6.9 13.5-7.7 27.4-15.4 41.2-22.9 73.8-40.3 148.7-76.9 190.1-98.9 18-9.7 14.9-24.1.5-38.6-66.8-67-244.7-223.9-489.3-108-178.7 84.7-265.5 231.4-285.2 370" style="fill:#ead56e;fill-opacity:1;fill-rule:nonzero;stroke:none" transform="matrix(.01718 0 0 -.01718 -445.612 412.54)"/><path d="M31203.1 15619.2c-15.1-48.7-41-154.2-25.3-264.6 21.7-152.9 121.4-282 273.6-354.2 161-76.3 322.1-40.3 465.9 103.9 2.5 2.5 3.9 4.4 4.8 5.7l-.4.2c-15.5 8.3-35.8 18.6-58.9 30.4-50.7 25.9-113.9 58.1-172.9 91.8-2.4 1.4-11.4 1-16.8.8-8.6-.3-17.9-.7-27 1.6-66.7-28.4-124.8 6.5-153.3 23.6l-5.5 3.3c-37 21.8-64 76.5-67 134.8-6.5 8.7-11 20.2-15.7 32.1-3.2 8.2-8.6 22-12 25-74.3 64.2-151.9 132.5-189.5 165.6m413.9-699.5c-60.5 0-121.8 14.5-183.2 43.6-164.9 78.1-273.1 218.7-296.7 385.6-22.9 161.3 35 307.7 37.4 313.8l10.9 27.1 21.8-19.4c1.1-.9 109.8-97.1 212.3-185.7 11-9.5 17.3-25.6 23.4-41.1 3-7.6 8.1-20.5 11.1-23.4l7.1-6 .1-9.3c.6-46.1 20.9-92.4 47-107.8l5.7-3.4c27-16.2 72.2-43.3 122.2-18.2l10 5 9.6-5.6c2.3-1.1 10.7-.8 15.8-.6 11.7.5 26.2 1 38.9-6.2 58.1-33.2 120.7-65.2 171.1-90.8 23.4-12 43.9-22.4 59.6-30.8 16.6-8.9 21.6-21 22.9-29.5 2.1-14-3.8-28-17.6-41.7-103-103.3-214.6-155.6-329.4-155.6" style="fill:#231f20;fill-opacity:1;fill-rule:nonzero;stroke:none" transform="matrix(.01718 0 0 -.01718 -445.612 412.54)"/><path d="M31406.1 15466.5s77.1-86.5 146-132.8c64.9-43.6 151.2-86.2 151.2-86.2s-78.7-93.9-208.9-26.4c-145.6 75.4-88.3 245.4-88.3 245.4" style="fill:#ca851a;fill-opacity:1;fill-rule:nonzero;stroke:none" transform="matrix(.01718 0 0 -.01718 -445.612 412.54)"/><path d="M31417.7 15424c-7-49.5-4.5-137.7 86.1-184.6 77.9-40.4 134.7-16.2 163.2 3.6-31.1 16.2-83 44.5-126.4 73.6-45.6 30.7-93.8 77.4-122.9 107.4m168-247.7c-29.5 0-63.3 7.1-100.8 26.5-127.5 66.1-120 205.7-98.3 270.3l11.3 33.5 23.6-26.4c.7-.9 76.1-85.2 142.1-129.4 63-42.3 148-84.5 148.8-84.9l23.5-11.6-16.8-20c-.7-.8-50-58-133.4-58" style="fill:#231f20;fill-opacity:1;fill-rule:nonzero;stroke:none" transform="matrix(.01718 0 0 -.01718 -445.612 412.54)"/><path d="M18206.5 27868.5q4.2 2.7 20.7 2.7c12.5 0 31-.6 55.5-1.6 19.9-.7 31.9-1.4 35.8-1.9 4-.5 7.3-2.2 9.8-5q5.4-4.95 5.4-11.7c0-4.4-1.9-8.5-5.8-12-2.8-2.6-6.4-3.9-10.7-3.9-3.6 0-6.5.2-8.8.4-3.8.3-19.4 1-46.7 2.3l-33 1.6.8-58.6q.75-58.65 1.5-59.4h1.2c2.5 0 8.1.6 16.8 1.9 11.8 1.5 22.7 2.3 33 2.3h4.9c10.2-.3 16.6-.7 19.2-1.3 2.5-.7 5.1-2.4 7.7-5.2 3-3.8 4.5-7.5 4.5-10.9 0-3.5-1.5-6.7-4.5-9.8-2.6-2.6-5.2-4-7.9-4.4s-10-.7-22-1c-16.9 0-30-.9-39.5-2.6l-14.5-2.3-.4-52.1v-15.7c0-24.6.5-37.8 1.5-39.9 1.3-1.5 8.2-2.3 20.7-2.3h23.4c6.9.3 15 .4 24.5.4 11.7 0 19.3-1.4 22.6-4.2 3.3-3.6 5-7.7 5-12.5 0-4.7-1.4-8.2-4.3-10.5-3.5-3-9-5.1-16.4-6.1s-21.1-1.7-41-1.9h-17.2c-10.8 0-17.9.2-21.5.7s-7.9 1.7-12.8 3.5c-5 1.8-9.2 5.3-12.5 10.7-3.8 6.1-6.1 14.8-6.9 26l.8 128.4c.2 74.3.8 117.9 1.7 130.8s3.9 21.1 9 24.7z" style="display:inline;fill:#211d1d;fill-opacity:1;fill-rule:nonzero;stroke:none" transform="matrix(.01718 0 0 -.01718 -445.612 412.54)"/><path d="M18471.2 27869.2c8.1.6 17 1 26.6 1.4s17.1.7 22.6.9c5.5.3 8.7.4 9.8.4h1.1c3.6 0 7.2-.9 10.7-2.7 3.6-1.8 5.9-3.7 6.9-5.8q1.2-2.7 1.2-7.8c0-4.3-.8-7.6-2.3-9.6-2.3-3.1-5.6-5.2-9.8-6.2-4.2-1.1-11.4-1.6-21.6-1.6-15.3 0-26.6-.4-33.7-1.1l-13.1-1.2.8-74.3v-24.9c0-18.1-.2-33.6-.6-46.3-.4-12.8-1-30.3-1.9-52.5s-1.6-39.1-2.1-50.6q-1.2-24.9-2.1-31.2c-.6-4.2-2.1-7.5-4.4-9.8-3.3-3.3-7.3-5-11.9-5s-8.3 1.5-11.1 4.3c-2 2-3.3 4.3-3.8 6.9-.5 2.5-.8 8.8-.8 18.7 0 15.6.9 40.4 2.7 74.3 2.8 37.8 4.2 87.2 4.2 148.3 0 22.7-.4 35.2-1.1 37.5l-1.9 5.4-16.1-1.6c-9-1-17.8-1.5-26.5-1.5q-20.25 0-26.4 4.2c-3.8 2.9-5.7 6.9-5.7 12.1 0 3.8 1.2 6.9 3.8 9.3 2.3 2 9.4 3.6 21.2 4.8 11.9 1.2 40.3 2.9 85.3 5.2m222.9 0c8.2.6 17 1 26.6 1.4s17.1.7 22.6.9c5.5.3 8.8.4 9.8.4h1.1q5.4 0 10.8-2.7c3.5-1.8 5.8-3.7 6.9-5.8.7-1.8 1.1-4.4 1.1-7.8 0-4.3-.8-7.6-2.3-9.6-2.3-3.1-5.5-5.2-9.8-6.2-4.2-1.1-11.4-1.6-21.6-1.6-15.3 0-26.6-.4-33.7-1.1l-13-1.2.7-74.3v-24.9c0-18.1-.2-33.6-.5-46.3-.4-12.8-1.1-30.3-2-52.5s-1.6-39.1-2.1-50.6q-1.05-24.9-2.1-31.2c-.6-4.2-2.1-7.5-4.4-9.8-3.3-3.3-7.3-5-11.8-5-4.6 0-8.4 1.5-11.2 4.3-2 2-3.3 4.3-3.8 6.9-.5 2.5-.8 8.8-.8 18.7 0 15.6.9 40.4 2.7 74.3 2.8 37.8 4.2 87.2 4.2 148.3 0 22.7-.3 35.2-1.1 37.5l-1.9 5.4-16.1-1.6q-13.5-1.5-26.4-1.5c-13.6 0-22.4 1.4-26.5 4.2-3.8 2.9-5.7 6.9-5.7 12.1 0 3.8 1.3 6.9 3.8 9.3q3.45 3 21.3 4.8c11.9 1.2 40.3 2.9 85.2 5.2m232.9-44.4c-3.3 2-11.6 3.5-24.9 4.2-1.5 0-3.4.1-5.8.2-2.3.1-3.8.2-4.5.2-6.4 0-13.5-1.9-21.1-5.7-19.7-9.7-35-35.6-46-77.7-2.8-10.7-4.5-19-5.2-24.8-.6-5.9-1-16.7-1.3-32.5q0-29.1 2.7-43.8c1.8-9.9 5.5-20 11.1-30.4 5.9-11.5 13.5-20.4 23-26.6 9.4-6.3 19.6-9.4 30.6-9.4 9.2 0 17.9 2 26.1 6.1 17.1 8.4 31.5 21.4 43.3 39 8.9 13.5 15.2 27.7 18.9 42.5s5.6 33.5 5.6 56.2v12.2c0 11.5-2 22.4-5.8 32.6-9.9 24.4-25.5 43.7-46.7 57.7m-46.7 34.5c3.3.7 12.8 1.4 28.7 1.9h6.1c8.2 0 16.4-2.1 24.5-6.1 7.9-3.9 18-11.9 30.3-24.2 8.2-7.9 13.8-14 17-18.4 3.2-4.3 7-11.1 11.3-20.3 6.2-13 10.1-23.3 11.9-31 1.8-7.6 2.7-18.6 2.7-32.9v-8.1c-.5-29.8-4.1-54.9-10.7-75-6.7-20.2-18-39.9-34.1-59-8.2-10-18.8-18.9-31.8-26.8-13-8-24.8-12.5-35.3-13.8-5.1-.5-9-.8-11.8-.8-26.8 0-49.2 8.9-67.1 26.8-5.6 5.6-11.7 14.4-18.3 26.3-6.7 11.8-11.3 22.6-13.8 32.3-2.8 10.5-4.3 28-4.3 52.5 0 13.8.6 24.4 1.6 31.8 1.2 8.2 2.3 17.5 3 27.9.6 5.1 2.9 14 6.9 26.5 4.1 12.5 8.2 22.6 12.3 30.2 3.8 7.7 8.7 15.6 14.6 23.8 5.8 8.2 10.8 14 14.9 17.6 4.3 3.8 10.7 7.6 19.1 11.3 8.5 3.7 15.9 6.2 22.3 7.5" style="fill:#211d1d;fill-opacity:1;fill-rule:nonzero;stroke:none" transform="matrix(.01718 0 0 -.01718 -445.612 412.54)"/></svg>