<svg xmlns="http://www.w3.org/2000/svg" xml:space="preserve" width="200mm" height="200mm" viewBox="0 0 200 200"><g style="display:inline"><path d="M24798.6 31281.8c-148.2 0-285.3 17-398.7 38.1-34.2 7.2-89.7 19-135.2 29.2-81.5 20.2-138.8 39-162 46.8-4.9 36.6-8 72.6-7.8 106.7 0 3.8.1 7.4.2 11.1 2.5 89.1 13 175.8 27.5 260.6 4.3-2.3 8.6-4.5 12.9-6.8 135.8-71.4 338.6-178.1 707.8-178.1 12.4 0 24.9.1 37.7.4 309.2 5.9 497.4 75.8 661.5 139.7 5.6-51.4 8.8-103.8 8.7-157.3-.1-46.5-5-100.2-11.6-157.8-132.6-105.8-405.3-126.6-705-132.3q-18.15-.3-36-.3m-610.5 1726.4c-12.6 76.2-18.4 151.7-.2 213.9-3.1-75.1-2.9-122.3.2-213.9m-72.7-2571.9s-594.8-552.3-580.7-1216.7c13.8-648 329.4-4642.6 329.4-4642.6l493.6-112s-227.5 4494.5-155.7 4869c72.7 379.5 221.2 1126.7-86.6 1102.3" style="display:inline;fill:#fff;fill-opacity:1;fill-rule:nonzero;stroke:none" transform="matrix(.01583 0 0 -.01583 -292.584 565.071)"/><path d="M24777.2 23614c-55.6 0-111.1 1.2-166.4 4-192.8 9.7-762.5 58.4-999.8 295.2-42 41.9-73.6 89.7-90.8 144.3-7.4 23.5-11.9 47.8-14.4 72.2-2.2 20.3-2.9 40.6-3 60.4v.3c-.1 19.9.6 39.4 1.5 58 2.3 52.4 8.8 96 17.1 135.1 7.5 35.7 16.6 67.6 25.6 99.1 13.6 47.7 26.8 93.9 33.5 148.7 4.4 35.7 6.1 75 3.4 120.9-2.5 41.3-28.3 302.7-67.4 698.3-82.7 837.3-223.6 2262.8-285.2 3061.6-13.9 180.7-23.8 329.4-28 431.8-1.9 44.6-4.1 89.4-6.3 134.4-7.3 149.9-14.7 301.7-9 450.4v1.1c10.6 271.9 65.3 533.5 245.1 754.9 60.8 74.9 180.8 153 307.8 235.7 145 94.4 294.9 192.1 362.3 292.1 30.9 45.9 46.1 97.4 51.6 152.1 9.2 93.5-10.2 196.4-29.2 297.1-8.4 44.5-16.9 89.9-22.9 134.2 23.2-7.8 80.5-26.6 162-46.8-35.9 8.1-65.5 15.2-73.5 18.4-.3.1-.7.2-1 .2-21.4 0 17.6-287.6 85.8-300.7 2.8-.5 5.6-.8 8.3-.8 84.8 0 147.4 247.1 147.4 247.1s-12.5 2.5-31.8 6.6c113.4-21.1 250.5-38.1 398.7-38.1q17.85 0 36 .3c299.7 5.7 572.4 26.5 705 132.3-3.1-27-6.6-54.9-10.1-83.3-17.9-143.8-37.6-301.6-17.9-432 7.3-48.8 20.2-93.8 40.6-132.7 59-112 200.7-220 337.7-324.4 93.7-71.3 182.1-138.6 232.8-199.5 211.6-253.9 278.7-536.2 292.6-815.3 8.3-166.7-2.4-332.2-12.5-489.8-12-185.7-40.4-529.1-76.5-943.8-55.6-638.5-129.5-1445.8-189.9-2105.3-29.7-325.1-56.2-614-74.9-822.8-16.7-185.3-27.3-307.6-28.8-336.1-1.7-32.7-.9-62.6 1.6-90.5 4.9-56.9 16.7-105.5 28.2-153 16.3-67.3 31.7-130.8 28.8-216.3-6.7-200.3-19.5-278.3-43.4-320.5-8.8-15.5-19-26.2-31-36.4-148.8-125.8-442.9-247.3-642.2-265.2-30.7-2.7-61.7-5.4-92.9-8.1-164.5-13.9-334.7-25.4-504.6-25.4m-1170.5 3383.3c90.3-1173 172.7-2277.3 167.6-2334.5-11.1-123.9-122.3-396.5-66.7-508 42.8-85.8 285.2-169.2 425.1-169.2 42 0 74.7 7.5 90 24.6 50.1 55.9-.1 335.1-28.2 491.9l163.2-37.1s-60 1185.2-108.6 2389c214.1-25.7 420.8-38.3 624.9-38.3 324 0 641.7 31.7 972.6 92.4 10 1.8 19.8 4 29.2 6.7 1.5.4 2.9.8 4.4 1.2l-176.5-2021.2c-4.5-51.1 29.1-96.5 74.9-101.5 2.8-.3 5.5-.4 8.2-.4 42.4 0 78.7 35.9 82.9 83.9l293.3 3359.6c.7.2 1.4.4 2.1.5l21.4 269.1 83.4 955.2c4.5 51.1-29.1 96.5-74.9 101.5-2.8.3-5.5.5-8.3.5-42.4 0-78.6-36-82.8-84l-35.6-408.3c-1.6.8-3.1 1.6-4.7 2.4v-.1c-39 19.7-82.6 32.3-127.1 34.3h-.1c-4.6.2-9.2.3-13.7.3-15 0-30-1.2-44.9-3.9-367-64.2-664.5-113-998.5-113-10.2 0-20.5.1-30.8.2-212.5 1.8-435.7 25.2-660.3 57.7 1.1 142 5.4 241.6 13.8 285.2 71.5 373.5 216.5 1102.9-72.1 1102.9-4.7 0-9.5-.2-14.5-.6 0 0-99.1-92-215.5-246.2-12.1 2.9-25 4.3-38.5 4.3-91.5 0-211.2-65.1-320.1-170.5-100.7-97.5-152.2-243.9-140.5-392 10.9-137.4 26.9-339.9 46.2-585.4-3.4-3.8-6.7-7.7-9.7-11.7-29.2-37-45.1-81.3-42.1-127.5-.5-8.9-.5-17.9.2-26.9l37.9-545.4 6.3-2.4 4.2-54.7 83.2-1077.4 5.4-69.8c3.5-44.8 24.8-86.3 59.1-119.8 4.8-4.7 9.9-9.2 15.2-13.6" style="display:inline;fill:#a3d56a;fill-opacity:1;fill-rule:nonzero;stroke:none" transform="matrix(.01583 0 0 -.01583 -292.584 565.071)"/><path d="m24357.7 24465-163.2 37.1c-9.3 52-16.2 90.5-16.2 102.9 0 22.2-34.1 1091-71.5 2267.8.5 0 1-.1 1.5-.2 47.3-6.8 94.2-13 140.8-18.6 48.6-1203.8 108.6-2389 108.6-2389m-169.5 4583.8c-49.6 7.2-99.3 14.8-148.9 22.8l-1.8.3c-16.1 519.7-26.7 873-26 885.7 7.7 143.3-38.6 215-111.6 232.5 116.4 154.2 215.5 246.2 215.5 246.2 5 .4 9.8.6 14.5.6 288.6 0 143.6-729.4 72.1-1102.9-8.4-43.6-12.7-143.2-13.8-285.2" style="display:inline;fill:#a3d56a;fill-opacity:1;fill-rule:nonzero;stroke:none" transform="matrix(.01583 0 0 -.01583 -292.584 565.071)"/><path d="M24132.7 23985.6c-139.9 0-382.3 83.4-425.1 169.2-55.6 111.5 55.6 384.1 66.7 508 5.1 57.2-77.3 1161.5-167.6 2334.5 1.3-1.1 2.7-2.2 4-3.3h.1c2.5-2 5.2-4 7.8-6 .1 0 .2-.1.2-.1 18.8-13.8 40.2-25.5 63.7-34.7 87.6-1186.3 181.6-2376.2 181.6-2376.2l330.4-74.9c28.1-156.8 78.3-436 28.2-491.9-15.3-17.1-48-24.6-90-24.6m-685.7 5060.9c-19.3 245.5-35.3 448-46.2 585.4-11.7 148.1 39.8 294.5 140.5 392 108.9 105.4 228.6 170.5 320.1 170.5 13.5 0 26.4-1.4 38.5-4.3-168.7-223.4-373.6-577.4-365.2-970.5.6-29.5 1.9-65.9 3.7-108.5-34-14.5-63.8-35.3-87.3-60.2-1.4-1.5-2.8-2.9-4.1-4.4" style="fill:#d0e9ae;fill-opacity:1;fill-rule:nonzero;stroke:none" transform="matrix(.01583 0 0 -.01583 -292.584 565.071)"/><path d="m24194.5 24502.1-330.4 74.9s-94 1189.9-181.6 2376.2c11.6-4.5 23.8-8.5 36.4-11.7 5.7-1.5 11.4-2.8 17.3-4 20.1-4.1 40.2-8 60.1-11.9 65.2-12.7 129.4-24.1 192.8-34.6 26.4-4.3 52.7-8.4 78.9-12.4 12.9-2 25.9-3.9 38.8-5.8 37.4-1176.8 71.5-2245.6 71.5-2267.8 0-12.4 6.9-50.9 16.2-102.9m-157 4569.8c-112 18-223.9 37.6-334.2 57.3-17.7 3.1-35.1 4.6-52.2 4.6-4.1 0-8.2-.1-12.3-.2-35.8-1.5-69.8-9.5-100.4-22.5-1.8 42.6-3.1 79-3.7 108.5-8.4 393.1 196.5 747.1 365.2 970.5 73-17.5 119.3-89.2 111.6-232.5-.7-12.7 9.9-366 26-885.7m1749.3-4279c-2.7 0-5.4.1-8.2.4-45.8 5-79.4 50.4-74.9 101.5l176.5 2021.2c.1.1.2.1.3.1 100.4 29.5 170.8 102.6 176.7 188l100 1130.8c1.9.5 3.9 1 5.8 1.5l-293.3-3359.6c-4.2-48-40.5-83.9-82.9-83.9m399.7 3713.1 26.3 329.5c.5 8.6.4 17.1-.3 25.6l.3 4c3 42.6-13.9 85.8-43.8 123.8l-.1.1c-.1.2-.2.3-.4.5-4.7 6-9.8 11.9-15.2 17.6-5.3 5.6-10.8 11-16.6 16.3-.1 0-.1.1-.2.1-.1.2-.3.3-.5.5-19.9 17.9-42.8 33.9-67.7 46.9l35.6 408.3c4.2 48 40.4 84 82.8 84 2.8 0 5.5-.2 8.3-.5 45.8-5 79.4-50.4 74.9-101.5z" style="fill:#d0e9ae;fill-opacity:1;fill-rule:nonzero;stroke:none" transform="matrix(.01583 0 0 -.01583 -292.584 565.071)"/><path d="M24399.9 31319.9c-35.9 6.7-69.4 13.8-100.1 20.8-12.1 2.8-23.8 5.7-35.1 8.4 45.5-10.2 101-22 135.2-29.2" style="fill:#fff;fill-opacity:1;fill-rule:nonzero;stroke:none" transform="matrix(.01583 0 0 -.01583 -292.584 565.071)"/><path d="M24284.3 31066.2c-2.7 0-5.5.3-8.3.8-68.2 13.1-107.2 300.7-85.8 300.7.3 0 .7-.1 1-.2 8-3.2 37.6-10.3 73.5-18.4 11.3-2.7 23-5.6 35.1-8.4 30.7-7 64.2-14.1 100.1-20.8 19.3-4.1 31.8-6.6 31.8-6.6s-62.6-247.1-147.4-247.1" style="fill:#d0e9ae;fill-opacity:1;fill-rule:nonzero;stroke:none" transform="matrix(.01583 0 0 -.01583 -292.584 565.071)"/><path d="M24373.8 33369.1c-13 0-24-1.8-32.7-6.1-9.3-4.4-15.1-11.6-18.2-22.6-67.3-232.4-58.1-529.4-53.7-614.9 12.5-241.6-38-459.3-87-669.8-40.2-173.1-81.8-352.1-87.1-542-2.2-78.3 14.4-166.6 30.5-252 30.1-159.7 61.3-324.8-22.4-449.2-67.4-100-217.3-197.7-362.3-292.1-127-82.7-247-160.8-307.8-235.7-278.3-342.8-256.9-781.7-236.1-1206.2 2.2-45 4.4-89.9 6.2-134.5 22.9-555.2 211.8-2466.6 313.3-3493.5 39.1-395.6 64.9-657 67.4-698.3 6.8-116.3-14.4-190.7-36.9-269.5-18.8-66-38.2-134.3-42.7-234.3-2.7-59.5-3.9-128.2 15.9-190.9 114.6-362.7 863.7-428.1 1090.6-439.6 256.6-12.9 518.1 7.6 763.9 29.6 199.3 17.9 493.4 139.4 642.2 265.2 44.6 37.8 65.2 83 74.5 356.9 2.9 85.6-12.6 149.1-28.9 216.4-17.2 70.7-34.9 143.9-29.8 243.4 3.2 60.4 47.3 541.9 103.1 1151.6 99.8 1090.5 236.5 2584 267 3056.4 27.2 421.6 58 899.5-280.1 1305.2-50.7 60.8-139.1 128.1-232.7 199.4-137 104.4-278.7 212.3-337.7 324.4-75.3 143.2-47.4 367.1-22.8 564.7 11.1 88.9 21.5 172.8 21.7 241.1.3 185.1-38.9 356.2-76.8 521.7-48.7 212.4-99 432-63.8 678.9 14.5 101.9 3.9 195.2-8.3 303.2-6.5 56.9-13.2 115.7-16.6 180.5-.5 8.9-2.3 20.2-8.4 23.9-17 10.3-71.1-14.2-110.5-32.1-37.5-17-76.2-34.6-108.6-38.9-84.8-11.1-171.7-1-255.7 8.8-25.4 3-51.6 6.1-77.1 8.4-49.9 4.7-123.7 34.6-201.8 66.2-85.6 34.7-188.6 76.3-249.8 76.3m403.5-9796.3c-56.3 0-112.5 1.2-168.6 4.1-233.5 11.7-1005.1 80.2-1127.7 468.2-21.8 69.1-20.7 142.1-17.8 205.2 4.7 104.8 24.8 175.4 44.3 243.7 21.5 75.3 41.8 146.5 35.3 255.8-2.4 40.5-29.6 315.7-67.2 696.7-101.6 1027.2-290.5 2939.4-313.5 3495.8-1.8 44.5-4 89.3-6.2 134.1-21.1 432.3-43 879.2 245.3 1234.2 64.9 80 187.4 159.8 317.2 244.3 141.6 92.1 288 187.5 350.6 280.6 74.3 110.3 46.1 260 16.2 418.5-16.5 87.6-33.6 178.1-31.3 260.9 5.5 193.9 47.6 375 88.3 550.1 48.2 207.7 98.2 422.6 85.9 658.4-4.5 87.1-13.8 389.8 55.2 628.4 6.5 22.4 19.9 38.6 39.8 48.2 66.1 32.1 193.1-19.3 316-69.1 75.2-30.4 146.2-59.2 190.2-63.3 25.9-2.4 52.4-5.5 78-8.5 81.5-9.5 165.8-19.4 245.5-8.9 26.4 3.5 62.3 19.8 96.9 35.5 58.3 26.5 113.3 51.5 149 29.8 17.2-10.4 26.6-29.5 28.1-56.8 3.3-63.6 9.9-121.8 16.3-178.1 12.1-106.2 23.4-206.5 8.2-313.7-34.1-239.2 13.1-445.5 63.2-663.8 38.4-167.7 78.1-341.1 77.8-531-.1-70.8-10.7-155.9-22-246.1-23.9-191.5-50.9-408.7 18.4-540.4 54.7-104.1 192.8-209.2 326.2-310.9 95.5-72.7 185.7-141.4 239.3-205.8 348.7-418.3 317.3-904.9 289.6-1334.2-30.5-472.9-167.2-1966.7-267.1-3057.5-55.7-609.2-99.8-1090.3-102.9-1149.9-4.8-93.5 11.4-160.6 28.7-231.6 16.3-67 33.1-136.3 30-227.5-9.4-276.5-29.4-336.4-89.1-386.8-156.8-132.7-455.1-256-665-274.8-193.8-17.4-397.3-33.8-601.1-33.8" style="fill:#231f20;fill-opacity:1;fill-rule:nonzero;stroke:none" transform="matrix(.01583 0 0 -.01583 -292.584 565.071)"/><path d="m26212.8 28865.1-47.7-539.4-12.3-139.9-93.3-1055.4-2.4-26.3c-4.5-65.6-47.1-124-112-160.8-20.9-11.8-44.2-21.5-69.3-28.5-9.4-2.7-19.2-4.9-29.2-6.7-584.6-107.3-1127.6-123.7-1738.3-35.5-121.1 17.6-244.9 39.1-372.2 65-48.8 9.7-91.7 29.6-125.4 56.4-6.8 5.4-13.2 11.1-19.2 16.9-34.3 33.5-55.6 75-59.1 119.8l-5.4 69.8-83.2 1077.4-10.5 136.2-37.9 491.4c-3.6 46.8 12.3 91.8 41.9 129.3 4.2 5.5 8.9 10.9 13.8 16.1 44.9 47.6 112.7 79.9 188.9 82.7h.1c20.5.8 41.7-.6 63.1-4.4 111-19.8 223.4-39.5 336-57.6 274.3-43.9 549.8-78.3 809.3-80.5 346.7-3.1 651.1 46.7 1029.3 112.8 19.5 3.5 39.2 4.6 58.6 3.6h.1c44.5-2 88.1-14.6 127.1-34.3 34.4-17.2 65-40 89.7-66.1 39.4-41.9 62.9-92.4 59.5-142" style="fill:#418533;fill-opacity:1;fill-rule:nonzero;stroke:none" transform="matrix(.01583 0 0 -.01583 -292.584 565.071)"/><path d="m26212.8 28835.5-47.7-598.6c-292.7-73.5-742.8-151.3-1312.2-140-730.2 14.3-1200.8 154.4-1419.6 238.1l-37.9 545.4c-4.2 59.5 17.4 116.6 55.7 161.3 57 67.2 151.3 106.9 252.1 87 111-22 223.4-43.9 336-63.9 274.3-48.8 549.8-87 809.3-89.4 346.7-3.4 651.1 51.8 1029.3 125.3 63.8 12.4 129.6-2.6 185.8-34.1 89.5-50 154.8-141.8 149.2-231.1" style="fill:#211d1d;fill-opacity:1;fill-rule:nonzero;stroke:none" transform="matrix(.01583 0 0 -.01583 -292.584 565.071)"/><path d="M26153.3 29007.1c-244.2-58.2-779.4-169.2-1312.4-173.4-8.5-.2-17.2-.2-25.8-.2-555.1 0-1141.3 138.7-1377.8 201.3 4.2 5.5 8.9 10.9 13.8 16.1 44.9 47.6 112.7 79.9 188.9 82.7h.1c287.4-67.4 761.3-159.1 1199.7-155.4 406.4 3.2 822.7 72.6 1096.6 129.3h.1c44.5-2 88.1-14.6 127.1-34.3 34.4-17.2 65-40 89.7-66.1m-93.8-1876.7-2.4-26.3c-4.5-65.6-47.1-124-112-160.8-213.6-55.9-555.1-109.9-1077.3-109.9-21.8 0-44.1.1-66.7.3-647.8 5.6-1019.2 102.9-1209.6 177.2-34.3 33.5-55.6 75-59.1 119.8l-5.4 69.8c74.8-43.7 421.4-214.9 1275.4-222.2 715.6-6.4 1090.1 89.6 1257.1 152.1" style="fill:#e0c13b;fill-opacity:1;fill-rule:nonzero;stroke:none" transform="matrix(.01583 0 0 -.01583 -292.584 565.071)"/><path d="M24068 26878.6c-26.2 4-52.5 8.1-78.9 12.4 26.4-4.3 52.7-8.4 78.9-12.4m-271.7 47c-19.9 3.9-40 7.8-60.1 11.9-5.9 1.2-11.6 2.5-17.3 4 5.6-1.5 11.4-2.8 17.2-3.9 20.2-4.1 40.2-8.1 60.2-12m-177.7 62.4c-2.6 2-5.3 4-7.8 6 2.5-2 5.2-4 7.8-6" style="fill:#e5f2d0;fill-opacity:1;fill-rule:nonzero;stroke:none" transform="matrix(.01583 0 0 -.01583 -292.584 565.071)"/><path d="M24108.3 26872.6c-13.4 2-26.9 4-40.3 6-26.2 4-52.5 8.1-78.9 12.4-63.4 10.5-127.6 22-192.8 34.6-20 3.9-40 7.9-60.2 12-5.8 1.1-11.6 2.4-17.2 3.9-38 9.8-71.9 25.8-100.1 46.4 0 0-.1.1-.2.1-2.6 2-5.3 4-7.8 6-.3 3.3-.5 6.6-.8 9.9 108.2-40.6 269.3-86.7 498-120.8z" style="fill:#8fbd7f;fill-opacity:1;fill-rule:nonzero;stroke:none" transform="matrix(.01583 0 0 -.01583 -292.584 565.071)"/><path d="M24039.3 29071.6h-.1c-.6.1-1.1.2-1.7.3z" style="fill:#cce8a7;fill-opacity:1;fill-rule:nonzero;stroke:none" transform="matrix(.01583 0 0 -.01583 -292.584 565.071)"/><path d="M24037.5 29071.9c-112 18-223.9 37.6-334.3 57.3-15.3 2.7-30.5 4.2-45.4 4.5-2.3.1-4.6.1-6.9.1h-4c-2.3 0-4.6-.1-6.8-.2h-1.3c4.1.1 8.2.2 12.3.2 17.1 0 34.5-1.5 52.2-4.6 110.3-19.7 222.2-39.3 334.2-57.3" style="fill:#e5f2d0;fill-opacity:1;fill-rule:nonzero;stroke:none" transform="matrix(.01583 0 0 -.01583 -292.584 565.071)"/><path d="M24103.3 27030.3c-258 40.5-418 96.1-505.7 134.8-29.8 388.5-60.3 781-88.4 1142.4 128.7-44.4 314.5-97.3 558.3-139.1 11.5-366.7 23.8-756.6 35.8-1138.1m-63.8 2034.4c-.1 0-.2.1-.3.1-112.6 20-225 41.9-336 63.9-15.3 3-30.5 4.7-45.4 5 14.9-.3 30.1-1.8 45.4-4.5 110.4-19.7 222.3-39.3 334.3-57.3.6-.1 1.1-.2 1.7-.3h.1c0-2.3.1-4.6.2-6.9m-400.7 68.9h1.3c2.2.1 4.5.2 6.8.2-2.3 0-4.5-.1-6.8-.2z" style="fill:#8fbd7f;fill-opacity:1;fill-rule:nonzero;stroke:none" transform="matrix(.01583 0 0 -.01583 -292.584 565.071)"/><path d="M24067.5 28168.4c-243.8 41.8-429.6 94.7-558.3 139.1-20.4 261.8-39.6 507.3-56.5 723.2 126.6-33.1 340.2-84.5 591.8-126.4 7-226.2 14.8-475.1 23-735.9m-27.6 883.8c-152.3 26.2-289.7 55.6-399.8 81.4 2.3.1 4.5.2 6.8.2h4c2.3 0 4.6 0 6.9-.1 14.9-.3 30.1-2 45.4-5 111-22 223.4-43.9 336-63.9.1 0 .2-.1.3-.1.1-4.1.2-8.3.4-12.5" style="fill:#79787b;fill-opacity:1;fill-rule:nonzero;stroke:none" transform="matrix(.01583 0 0 -.01583 -292.584 565.071)"/><path d="M24044.5 28904.3c-251.6 41.9-465.2 93.3-591.8 126.4-.6 6.8-1.1 13.5-1.6 20.2 44.6 47.3 112.1 79.5 187.7 82.7h1.3c110.1-25.8 247.5-55.2 399.8-81.4 1.5-48.1 3-97.4 4.6-147.9m63.5-2021.2c-228.7 34.1-389.8 80.2-498 120.8-4.1 53.6-8.2 107.3-12.4 161.2 87.7-38.7 247.7-94.3 505.7-134.8 1.6-49.2 3.1-98.3 4.7-147.2" style="fill:#eedd89;fill-opacity:1;fill-rule:nonzero;stroke:none" transform="matrix(.01583 0 0 -.01583 -292.584 565.071)"/><path d="M25880.5 26916.1c23.4 6.9 45 16.1 64.6 27.2 64.9 36.8 107.5 95.2 112 160.8l2.4 26.3 93.3 1055.4 4.3 49.1h.1l-100-1130.8c-5.9-85.4-76.3-158.5-176.7-188m332 1945v.3l.3 3.7c3 42.6-14 85.9-43.8 123.8 29.9-38 46.8-81.2 43.8-123.8zm-43.6 127.9c-.1.2-.2.3-.4.5.2-.2.3-.3.4-.5m-32.2 34.4c-.1 0-.1.1-.2.1.1 0 .1-.1.2-.1" style="fill:#e5f2d0;fill-opacity:1;fill-rule:nonzero;stroke:none" transform="matrix(.01583 0 0 -.01583 -292.584 565.071)"/><path d="M26068.3 29070.8c-1.6.8-3.1 1.6-4.7 2.4v.1c1.6-.8 3.1-1.6 4.7-2.4z" style="fill:#cce8a7;fill-opacity:1;fill-rule:nonzero;stroke:none" transform="matrix(.01583 0 0 -.01583 -292.584 565.071)"/><path d="M26136 29024c-19.9 17.9-42.8 33.9-67.7 46.8v.1c24.9-13 47.8-29 67.7-46.9" style="fill:#e5f2d0;fill-opacity:1;fill-rule:nonzero;stroke:none" transform="matrix(.01583 0 0 -.01583 -292.584 565.071)"/><path d="m25875.9 26914.8 1 11.8c24 5.5 46.8 11.1 68.2 16.7-19.6-11.1-41.2-20.3-64.6-27.2-1.5-.4-3.1-.9-4.6-1.3m14.2 163.7 97.3 1117.9c61.2 12.6 117.9 25.6 169.7 38.5l-4.3-49.1-93.3-1055.4c-42.4-15.9-98.1-33.9-169.4-51.9m322.4 1782.9c-4.4 51.1-30.5 101.6-69.5 143.2 3.5.9 6.9 1.7 10.3 2.5 5.4-5.7 10.5-11.6 15.2-17.6.2-.2.3-.3.4-.5l.1-.1c29.8-37.9 46.8-81.2 43.8-123.8z" style="fill:#8fbd7f;fill-opacity:1;fill-rule:nonzero;stroke:none" transform="matrix(.01583 0 0 -.01583 -292.584 565.071)"/><path d="m25987.4 28196.4 68.5 788.3c31.9 7.1 61 13.8 87.1 19.9 39-41.6 65.1-92.1 69.5-143.2v-.3l-55.3-626.2h-.1c-51.8-12.9-108.5-25.9-169.7-38.5" style="fill:#79787b;fill-opacity:1;fill-rule:nonzero;stroke:none" transform="matrix(.01583 0 0 -.01583 -292.584 565.071)"/><path d="m26055.9 28984.7 7.7 88.6c26.8-13.5 51.3-30.3 72.4-49.3.2-.2.4-.3.5-.5.1 0 .1-.1.2-.1 5.8-5.3 11.3-10.7 16.6-16.3-3.4-.8-6.8-1.6-10.3-2.5-26.1-6.1-55.2-12.8-87.1-19.9m-179-2058.1 13.2 151.9c71.3 18 127 36 169.4 51.9l-2.4-26.3c-4.5-65.6-47.1-124-112-160.8-21.4-5.6-44.2-11.2-68.2-16.7" style="fill:#eedd89;fill-opacity:1;fill-rule:nonzero;stroke:none" transform="matrix(.01583 0 0 -.01583 -292.584 565.071)"/><path d="M23651.1 29113.2c-64.5 0-126.7-22.7-172.8-64.4-43.6-39.4-66.3-91.1-62.4-141.7l137.1-1774.7c6.4-83.1 81.6-153.3 187.3-174.7 753.4-152.9 1382.2-161.7 2102.6-29.4 108.3 19.9 187.9 92.8 193.7 177.2l155.8 1761.4c3.2 46.9-22.4 98.9-70.4 142-67.1 60.4-159.3 89.1-240.6 74.9-389.4-68.3-691.1-116.2-1033.1-113.3-362.4 3.2-750.1 67.3-1148.7 138.4-16.2 2.9-32.4 4.3-48.5 4.3m1223-2317.4c-369.6 0-742.2 40.4-1142 121.6-123.8 25.1-212.3 110.3-220.1 211.8l-137.1 1774.7c-4.9 63.4 22.7 127.4 75.8 175.4 66.9 60.6 162.6 86.8 256.1 70.1 396.8-70.8 782.6-134.6 1141.9-137.7 337.7-3.1 638.4 44.8 1025.6 112.6 93.5 16.3 199-16.1 275.2-84.8 57.5-51.7 88-115.8 83.9-175.9l-155.8-1761.3c-7-102.8-100.5-191.1-227.2-214.4-333.8-61.3-653.9-92.1-976.3-92.1" style="fill:#231f20;fill-opacity:1;fill-rule:nonzero;stroke:none" transform="matrix(.01583 0 0 -.01583 -292.584 565.071)"/><path d="M24145.7 28752.1c3.5 4.1 8.1 6 13.5 5.6 7.8-.6 13.2-5 16.2-13.1 1.2-3.4 2.1-19 2.8-46.9q1.05-42 2.1-81c.7-26.1 1.6-39.1 2.5-39.2s8.2 1 22 3.2c12.3 2.1 30.1 4 53.4 5.9 23.3 1.8 38.8 2.5 46.7 2.1 1-.1 1.6-.1 2.7-.2l.9-.5h.9c1.5-.1 2.4 1.4 2.9 4.6s.9 12.2 1.6 26.8c1.1 23.9 1.9 43.7 1.9 58.9 0 24.4 1.3 40.3 3.9 47.8 2.5 7.5 7.9 11 16 10.5 8.7-.5 14.4-4.9 17.1-13.3.6-1.7.9-8.7.9-20.7 0-7.4-.4-21.9-1-43.6-1.2-43.4-1.6-97.4-2-161.1-.4-68.1-1.6-104.5-2.8-108.2-3.1-7.8-8.6-11.6-16.7-11.4-1.1.1-1.7.1-2.7.2-8.8.5-13.9 5.3-15.6 14.5-1.6 9.2-2.4 36.3-2.3 81.2 0 31.6 0 47.3.1 78.9-3.5-.3-5.2-.5-8.6-.8-1.2-.2-4.1-.4-8.6-.6s-10.1-.4-16.9-.7c-6.7-.3-12.8-.7-18.2-1.2-25.5-1.9-44.6-3.9-57.2-6.3-8.9-1.4-13.3-2.2-22.1-3.6-.8-13-1.1-19.5-1.9-32.5-1.5-29-2.7-48.3-3.7-57.9-1.1-11.6-2.2-19-2.9-22-.8-3-2.7-5.6-5.7-7.7-4.2-3-8.4-4.2-12.6-3.9q-14.4 1.05-18 15.9c-.3.6-.4 3.4-.4 8.4 0 9.1.5 19.4 1.4 30.7 4.6 61.4 7 126.7 7.1 196 0 3.8-.1 9-.2 15.4-.2 6.5-.2 11.1-.2 13.7-.2 10.2-.4 21.5-.4 33.5 0 11.8 1.4 19.4 4.1 22.6m256.2-8.4c3.3 1.8 11.4 2.4 24.4 1.8 14.7-.7 36.5-2.3 65.3-4.6 23.4-1.9 37.5-3.1 42.2-3.9 4.6-.7 8.4-3 11.5-6.1 3.8-4 6.3-8.5 6.3-13.7 0-5.1-2.3-9.7-6.8-13.6q-4.95-4.2-12.6-3.9c-4.3.1-7.8.5-10.4.8-4.4.5-22.9 2-55 4.9-15.5 1.3-23.3 2.1-38.8 3.5.4-27 .5-40.5.9-67.5.5-44.9 1.1-67.7 1.7-68.3l1.3-.1c3.1-.1 9.7.4 19.9 1.3 13.7 1.2 26.7 1.5 38.8 1 2.3-.1 3.5-.2 5.8-.3 12.1-.7 19.6-1.5 22.6-2.4 3-.8 6.2-3 9-6.3 3.6-4.3 5.4-8.8 5.4-12.7q0-6-5.4-11.1c-3-2.8-6.1-4.4-9.3-4.7-3.1-.3-11.9-.5-25.9-.1-19.6.6-35.3.5-46.5-1-6.8-.8-10.2-1.2-17.1-1.9l-.5-59.9v-18c-.1-28.2.4-43.9 1.7-45.9 1.2-1.8 9.6-3.1 24.4-3.8 11-.5 16.5-.7 27.5-1.2 8.1 0 17.7-.3 28.9-.7 13.8-.6 23.1-2.5 26.6-5.9 3.9-3.7 5.8-9 5.8-14.5 0-5.4-1.7-9.4-4.9-11.9-4.2-3.3-10.7-5.5-19.5-6.3-8.7-.9-24.8-1-48.2-.3-8.1.4-12.2.5-20.3.9-12.7.6-21.1 1.3-25.3 2.1s-9.2 2.3-15.1 4.7c-5.8 2.3-10.7 6.7-14.6 13-4.5 7.3-7.2 17.4-8.1 30.4.4 59 .6 88.5 1.1 147.5.4 85.5 1.1 135.6 2.2 150.4 1 14.7 4.6 24 10.6 27.8zm289.5-32.2c-9.7 1.6-16.6 2.5-20.8 2.6q-6.75.15-18.9-1.8c-19.6-3-30.2-6-32.1-8.8-.9-1.5-1.3-9-1.3-22.5 0-48.4 2.2-97.3 6.7-146.4.5-5.8.8-8.8 1.3-14.6 4.1-.1 6.2-.2 10.4-.3 7.2-.1 16.5.9 27.9 3.3 40.1 7.3 69.9 18.8 89.6 34.1s30.3 35.5 31.9 60.4v6.6c0 23.5-8.1 42.7-24.2 57.6s-39.6 24.7-70.5 29.8m-59.6 33.5c10.5 2.3 21.4 3.4 32.5 3.2 1.5-.1 4.1-.2 7.7-.4 3.6-.3 6.4-.4 8.5-.4 46.6-2.2 82.7-15.2 108.3-38.7 22-20.2 34.4-45.8 36.5-76.9.3-2.4.5-6.1.5-11 0-16.8-3.8-33.2-11.3-48.9-9.2-19-22.1-34.6-38.2-46.8-16.1-12.1-37.8-22.3-65.2-30.3-9.4-2.9-14.1-4.3-23.5-7.1 7.4-5.1 11.1-7.6 18.5-12.7 57.8-39.2 89.4-61.4 94.8-67.3 2.7-3.5 4.1-7.5 4.1-11.9s-1.2-8.4-3.7-11.9c-2.4-3.5-5.7-5.7-9.9-6.5-1.2-.3-2.7-.4-4.5-.4-2.7 0-6.8 1.7-12.2 5s-17.1 11.2-35.2 23.8c-59.6 41.4-93.2 64.5-101.1 68.5-4.1 2.1-6.2 3.1-10.3 5.1 0-22.5-.1-33.8-.1-56.3 0-24.4-.7-39.4-2-44.9-1.4-5.6-5.1-9-11.1-10.3-.9-.2-2.4-.4-4.5-.3-7.5.2-13.1 3.2-16.7 8.9-2.1 3.3-3.3 32.5-4.9 86.4-1.6 57-3.5 94.3-4.4 110.7-2.1 39.7-3.1 83.6-3.1 131.4 0 10.6.2 16.7.5 18.1.3 1.9 6.3 5.6 18 10.9 11.7 5.2 22.5 8.9 32 11m366.9-201.2c-10.8 4-23.5 5.9-38.2 5.8-16.5-.2-33.1-2.8-49.9-7.8-3.8-1.1-5.7-1.6-9.5-2.7l.5-64.3c.2-43.2 1.3-65.8 3.1-67.8 1.8-2.1 8.3-4.3 19.6-6.6 11.2-2.3 21.4-3.4 30.4-3.3 48.3.4 77.8 21.5 88.6 62.8 1.5 5.3 2.2 11.6 2.2 19 0 14.6-4.1 27.8-12.4 39.4-8.2 11.6-19.7 20.1-34.4 25.5m5.7 141.5c-11.7 16-29.8 23.9-54.1 23.7-15.1-.1-29.5-3.7-43.3-10.8-4-2-6-2.9-10-4.9.4-22.9.6-34.3.9-57.3 1.3-38.1 2.2-57.7 2.8-58.1l1.3-.5c3.3.1 11.3 2.3 23.9 6.7 12.7 4.5 23.9 9.1 33.9 13.9 9.9 4.8 18.8 10.7 26.8 17.7s13.9 13.6 17.4 19.8c2.7 4.9 4.5 13.3 5.4 24.7 0 1.2 0 2.8.2 4.7.1 1.9.2 3.1.2 3.7 0 6.5-1.8 12-5.4 16.7m-71.9 58.8c5.4.9 11.1 1.4 17.1 1.4 25.5.2 47.4-5.8 65.7-17.8 22.4-14.6 33.8-36 33.8-64.2 0-26.1-9.8-49.4-29.2-69.6l-13-13c6.8-3.1 10.2-4.6 17.1-7.7 18.6-8.5 33.5-21.3 44.8-38.4 11.2-17.1 16.9-35.5 16.9-55.2 0-5.2-.5-10.3-1.4-15-4.1-25.3-13.8-46.8-28.8-64.4s-34.2-29.7-57.6-36.1c-10.2-3.1-24.2-4.7-41.9-4.9-19.5-.1-35.9 1.6-49.1 5-17 4.5-28.3 9.9-33.6 16.3-5.2 6.5-8.6 18.7-10.1 36.6-.9 10.8-1.4 50.2-1.4 118 0 15.9 0 23.8.1 39.7.3 53.4.5 80.1.9 133.5 1.9 2.1 2.9 3.2 4.9 5.3 6 6.1 15.1 12.1 27.2 17.8 12.2 5.8 24.7 10 37.6 12.7m340.3-97.3c-3.3 12.1-5.6 19.3-6.8 21.3h-.5q-1.8-.15-5.4-6.6c-2.4-4.4-3.6-7.6-3.6-9.7 0-.3-4.6-11.3-13.9-33.1-8.4-19.7-16.8-40.6-25-62.6-8.3-22-12.4-34.2-12.4-36.6 0-2.6 3-3.2 9-1.9 3 .7 18.7 2.4 47 5.3 26.4 2.8 39.6 4.8 39.6 5.7 0 2.9-2.2 11.2-6.3 24.8-3.4 11-7.3 27.6-12 49.7s-7.9 36.7-9.7 43.7m-21.8 81c4.3 3.4 9.5 5.2 15.8 5.5s11.9-2.1 16.7-7.2c11.7-11.6 23.3-45.7 34.8-102.5 2.7-13 12.6-51 29.9-113.5q13.95-50.4 18.6-66c7.8-26.4 11.7-41.3 11.7-44.8 0-5-1.8-9.3-5.6-13.1-3.7-3.7-8.2-5.7-13.3-5.9-2.1-.1-4.3.2-6.7 1-4.6 1.5-8.4 5.8-11.6 12.8-3.1 7.1-8.3 23-15.6 48-5.6 18.7-8.4 28.1-14 46.9-1.2 1.1-6.8 1.4-16.7 1-16.8-.7-38-2.7-63.6-5.9-25.6-3.1-39.4-5.7-41.5-7.8-4.5-4.6-12.9-27.1-25.2-67.7-4.8-14.9-8.9-24.8-12.4-29.9s-8-7.7-13.8-7.9c-9.9-.3-14.8 5.6-14.9 17.7 0 7.9 9.1 39 27.3 93.4s34.7 98.9 48.8 133.1c11.5 27.7 19.8 49.1 25.2 63.4 10.8 27.7 19.5 44.2 26.1 49.4m171.3 6.9c2.1 2.8 6 4.3 11.6 4.7 3.3.2 6.4-.4 9.4-1.7 14.6-7 22.8-84.9 24.8-233.7.6-35.1.9-52.6 1.5-87.6 16.4 1.2 24.6 1.8 41 3.1 40.3 3.5 64 5.9 71.2 6.7q18 2.25 19.8 2.4c7.5.6 12.8 0 15.8-1.9 6-3.3 9-8.4 9-15.1 0-8.5-4.2-14.6-12.6-18.2-5.1-2.1-34.7-6.4-88.3-11.2-33.4-3.1-52.6-4.3-56.7-4.6q-22.35-1.35-28.8 0c-4.3.9-7.2 3.3-8.7 7-.9 2.3-1.9 41.5-2.4 117-.6 97.6-3.7 164.3-9.7 199.5-1.5 9.3-2.3 15.6-2.3 18.8 0 5.3 1.8 10.2 5.4 14.8m-1739.6-747.8c2.5 4.4 7.6 6.1 15.3 5.3q6.6-.6 12.9-5.1c55.2-120.8 52.1-284.4 61.9-413.1l12.5-153c21.4-1.7 32-2.6 53.4-4.2 52.4-3.3 83.3-4.9 92.6-5.1 15.6-.4 24.2-.5 25.8-.6 9.8-.8 16.8-3.1 20.9-7 8.2-7.3 12.7-16.8 13.3-28.5.9-14.8-4.1-24.4-14.7-28.6-6.5-2.6-45-2.9-114.2 1.2-43.3 2.7-68.1 4.9-73.6 5.4-19.2 1.9-31.7 4.2-37.5 6.8-5.7 2.6-9.8 7.3-12.2 14.2-1.5 4.2-7.8 72.7-17.9 204.5-8.9 116.3-17 234.7-38.4 349.9-3.2 16.6-5.1 27.7-5.5 33.3q-1.05 13.95 5.4 24.6m331.6-30.6c4.2 5.3 10.3 7.7 18.5 7.1 4-.3 8.2-1.9 12.4-4.7 7.9-5.7 14.4-30.4 19.2-74.3s11.3-136.9 19.6-278.9c2.4-41.4 5-89.7 7.7-144.9 1.9-38.3 2.8-65.7 2.7-82.3-.2-16.5-1.1-27-2.9-31.5-1.7-4.4-5.2-8-9.9-10.7-4.5-2.6-8-4-10.3-3.9q-3.6.3-10.8 5.4c-7.3 5.1-11.6 10.5-13.1 16.2q-.75 2.25-18.3 285c-11.8 188.4-17.7 285.7-18.2 291-.4 3.5-1 7.5-1.3 11.6-.3 5.6 1.3 10.6 4.7 14.9m297.5-68.2c-22.4 6.1-37.2 9.4-44.1 9.8-11.3.5-24.8-15.1-40.6-46-16.2-31.5-29.2-73.7-37.6-126-6.7-41.3-9.2-79.3-7.7-114 2.4-56.6 15.6-101.1 38.8-133.4 28.8-40.1 62.7-61.4 102-63.3q15.3-.75 34.2 7.2c12.6 5.3 18.8 10.8 18.6 16.4-.2 7.1-7.4 22.5-20.3 45.9-14.4 26.1-21.6 45-21.9 55.2-.3 6.1 1.3 11.8 4.7 16.5 3.6 4.9 9.7 7.2 17.7 6.9 4.7-.2 8.1-1.4 10.2-3.5 3.7-3.7 11.7-17 24.3-39.2 13.6-23.9 22-36 24.8-36.1 3.9-.1 10 8.8 18.2 26.8s14.1 35.6 17.6 52.8c9.9 46.5 14.5 88.1 13.6 124.7-.6 24-3.6 47-9.5 68.3-5.1 18.4-11.7 33-19.2 43.4-7.5 10.5-21 24.3-40.5 41.3-18.9 16.5-32.7 27-40.9 31.4-8.3 4.4-22.4 9.4-42.4 14.9m-72.9 64c7.1 3.5 22.6 4.9 46.2 3.7 20.4-1 39-3.3 54.5-7.8 14.6-4.3 26.6-9.7 35.2-14.9 8.7-5.2 22.2-15.6 40.5-31 28.6-24.6 48.5-44.8 59.8-61s21.4-38.5 30-66.7c7-23.1 10.7-49.3 11.3-78.3.4-17.9-.4-37.5-2.3-58.9-8.6-85.9-26-149.8-52.1-191.8-5.9-9.8-8.8-14.8-14.7-24.7 8.2-15.3 12.3-22.9 20.4-38.2 14-25.9 21.1-44 21.3-54.2.2-6.6-1.9-12.7-6-18.2-3.8-4.9-9.6-7.3-17.4-7-5.8.2-10.2 2.1-13 4.3-3.6 2.8-12 15.6-23.3 38.3-11 22.3-17.7 33.6-19.7 33.6-1.6.1-6.4-2.8-14.4-8.6-22.3-16.4-47-24-74.4-22.7-47.3 2.3-89.4 27.5-126.8 75.6-20.3 25.6-35.3 53.1-44.9 82.5s-15.8 65.7-18 108.5c-2.5 48.3 1.2 97.1 10.6 146 9.4 48.8 23.3 90.2 41.6 124.3 7.9 14.3 17.4 28.2 28.6 41.9 11.2 13.6 20.4 22 27 25.3m370.6-10.5c5.7 2.9 8.7 4.4 9.1 4.4 4.2-2.6 6.3-3.8 10.5-6.3 7.4-4.8 11.1-12.5 11.3-23.2 0-6.6-1.4-18.9-4.4-36.6-13.6-76.8-19.6-161.3-18.2-253.6 0-3.1.2-7.4.4-13 .3-5.7.5-9.7.5-12.3 2.4-57.7 11.7-108.1 27.6-151.2 12.6-34.4 27.8-58.1 45.5-71.1 7.5-5.2 13.6-8.4 18.3-9.8 4.7-1.3 14-2.1 27.7-2.2 19.9-.2 35 2.9 45.1 9.2 10.2 6.4 24.4 21.5 42.9 45.4 27.4 35.7 44.1 72 49.7 108.7 6.4 41.8 9.8 104.3 10.1 187.5.1 37.7-.6 76-2.7 113.9-2.1 36-3.5 59.2-3.5 68.9 0 11.2 2.5 19.6 6.8 25.2 5.3 6.9 11.3 10.8 18.1 10.8 6.5.1 12.3-3.5 17.5-10.6s8.3-16.5 9.5-28.2c4.9-46.4 7.1-106 6.6-178.9-.5-89.3-4.6-156.2-11.9-200.6-7.8-47.4-27.4-93.4-58.4-137.6-31.1-44.2-62.4-70.5-94.3-79-10.5-2.5-20.9-3.7-31-3.6-30 .3-55.2 8-75.7 23.2-11.4 8.3-23.2 21.3-35.4 38.8-12.1 17.6-21.9 36.2-29.3 55.7-22.5 59.6-34.7 125.5-35.9 197.4-.8 41.8 1.7 95 7.5 159.7 9.5 106.3 21.7 162.6 36 169m395.9 8.8c4.6 3.6 15.6 5.5 33.1 5.8 20 .4 49.6-.2 88.6-1.1 31.7-.8 50.8-1.4 57.1-2.3 6.2-.8 11.3-4.3 15.3-9.4 5.1-6.4 8.2-14.2 8-23.1s-3.4-17.2-9.7-24.4c-4.5-5.2-10.3-8-17.2-8.2-5.7-.1-10.4.1-14 .4-5.9.5-30.8 1.1-74.1 2.7-21 .7-31.4 1.1-52.4 2-.1-46.8-.1-70.2-.3-117-.2-78.1.1-117.6.9-118.6h1.8c4 .1 12.9 1.7 26.4 4.4 18.3 3.6 35.7 5.3 51.7 5.7 3.1.1 4.7.2 7.8.2 16-.1 26-.7 29.9-1.8 4-1.2 8.2-4.6 11.8-10 4.7-7.1 6.9-14.7 6.7-21.6-.1-6.9-2.6-13.5-7.6-19.7-4.1-5.2-8.2-8.3-12.4-9.2s-15.9-2.1-34.4-2.8c-25.9-1-46.8-2.9-61.6-6.8-9.1-2-13.7-3-22.8-5-.7-41.6-1.1-62.4-1.9-104-.2-12.6-.3-18.9-.4-31.4-.6-49-.4-76.1 1.3-79.5 1.4-2.9 12.5-4.4 31.7-4 14.4.3 21.6.4 35.9.8 10.6.8 23.2 1.3 37.7 1.7 18 .5 30.2-2 34.5-7.4 5.1-6.2 7.3-15.2 7.1-24.6s-2.6-16.5-6.9-21.2c-5.7-6.2-14.1-10.7-25.5-13-11.4-2.4-32.3-4.3-62.7-5.5-10.6-.2-15.9-.3-26.4-.6-16.4-.3-27.3 0-32.8.9-5.4 1-12 3.2-19.5 6.6-7.6 3.5-13.9 10.5-18.9 21.2-5.7 12.1-9.1 29.4-10 51.8 1.4 102.6 2.1 153.8 3.6 256.3 1.8 148.5 3.5 235.6 5.2 261.3 1.6 25.8 6.6 42.3 14.8 49.6zm293.1-1.9c5.8 3.3 8.9 4.9 9.3 4.9 4.1-2.2 6.1-3.4 10.2-5.7q10.8-6.3 10.2-22.5-.3-9.9-6-36.9c-17-77.7-26.7-162.7-29.4-255-.1-3.1-.1-7.5-.1-13.1.1-5.6 0-9.6 0-12.2-.2-57.6 6.9-107.5 20.9-149.7 11.1-33.6 25.2-56.5 42.4-68.4 7.2-4.8 13.2-7.7 17.8-8.7 4.7-1.1 13.9-1.2 27.5-.5 20 1 35.2 5 45.6 11.9 10.4 7 25.3 23 44.8 48.1 29.1 37.3 47.3 74.7 54.6 111.8 8.2 42.3 14.3 105.1 18.3 188.3 1.7 37.8 2.8 76.1 2.3 114-.4 35.9-.9 59-.4 68.7.5 11.2 3.3 19.8 7.9 25.7 5.6 7.3 11.8 11.5 18.6 11.9 6.4.5 12.1-2.7 17-9.5 4.8-6.8 7.6-16 8.2-27.7 2.9-46.1 2.4-105.7-1.3-178.8-4.5-89.4-11.5-156.6-20.7-201.5-10-48-31.5-95.2-64.5-141.3-32.9-46.2-65.4-74.4-97.7-84.9-10.6-3.1-21-4.9-31.1-5.5q-45-2.25-74.7 18.6c-11.1 7.7-22.3 19.9-33.7 36.8-11.4 16.8-20.4 34.8-26.9 53.9-19.9 58.4-29.1 123.6-27.2 195.5 1.1 41.8 5.9 95.3 14.6 160.4 14.2 107 28.9 164.1 43.5 171.4m524.3 5.1c-12.9 1.4-22.1 1.9-27.8 1.4-6.1-.5-14.7-2.5-25.8-5.9-26.8-8.4-41.5-15.1-44.2-20.4-1.4-2.6-2.7-15.7-4-39.2-4.8-84.4-6.6-169-5.5-253.9.1-10 .2-15.1.3-25.1 5.5.4 8.2.6 13.7 1.1 9.6.7 22 4 37.4 9.9 53.7 18.7 94.5 43.1 122.5 72.7s44.6 66.3 49.7 110c.3 4.6.5 6.9.8 11.5 2.9 41-5.5 73.1-25.3 96.7-19.9 23.5-50.5 37.1-91.8 41.2m-77.2 49.3c14.5 5.6 29.4 9.2 44.5 10.5 2 .1 5.5.3 10.3.5 4.9.1 8.8.3 11.6.6 63 3.3 110.5-14 142.1-51 27.1-31.9 40.5-74.7 39.3-128.7.1-4.1-.2-10.4-.9-19.1-2.1-29.2-9.2-58.3-21.3-86.8-14.6-34.5-33.6-63.6-56.4-87.2-22.7-23.5-52.6-44.4-89.6-62.5-12.7-6.3-19.1-9.4-31.7-15.7 9.2-7.8 13.8-11.6 22.9-19.4 71.6-59.7 109.8-93.9 116.1-103.4 3.1-5.8 4.4-12.5 3.8-20.2s-2.6-14.7-6.2-21.2c-3.6-6.4-8.2-10.7-13.7-12.8-1.6-.6-3.6-1.1-5.9-1.3-3.6-.4-8.6 1.9-15.3 6.9-6.6 4.9-20.9 17-43 36.3-72.8 63.4-115 98.6-124.9 104.4-5.3 2.9-7.9 4.4-13.2 7.3-2.2-39.2-3.3-58.9-5.6-98.1-2.4-42.4-4.8-68.6-7.1-78.4-2.4-9.9-7.5-16.4-15.4-19.6-1.2-.6-3.2-1-5.9-1.2-9.8-.7-16.8 3.6-20.9 12.9-2.4 5.5-1.3 55.9 1.7 149.8 3.2 98.9 4.1 163.4 4.4 191.9.9 68.8 3.6 144.8 8 228.1 1 18.4 1.9 29 2.3 31.5.7 3.5 9.1 10.9 25.5 21.8s31.3 18.9 44.5 24.1" style="fill:#fff;fill-opacity:1;fill-rule:nonzero;stroke:none" transform="matrix(.01583 0 0 -.01583 -292.584 565.071)"/><path d="M24935.4 24405.5c-385.3 0-850.4 61.7-1247.9 199.3-10.8 3.8-16.4 15.5-12.7 26.2s15.4 16.4 26.1 12.7c658.1-227.9 1501.4-245.9 1846.8-119.4 10.7 3.9 22.5-1.6 26.4-12.3 3.9-10.6-1.6-22.4-12.3-26.3-141.9-52-365.9-80.2-626.4-80.2" style="fill:#231f20;fill-opacity:1;fill-rule:nonzero;stroke:none" transform="matrix(.01583 0 0 -.01583 -292.584 565.071)"/><path d="M24373.9 33369.1c-13 0-24.1-1.9-32.8-6.1-9.3-4.5-15.1-11.7-18.3-22.7-67.2-232.5-58-529.3-53.5-614.8 12.5-241.7-38.2-459.5-87.1-670.2-19.2-82.6-39.1-168.1-54.8-253.5-19.6-107.5-29.9-199-32.3-288.1-2.2-78.3 14.4-166.6 30.5-252 30.2-159.7 61.3-324.8-22.5-449.2-67.3-100-217.3-197.7-362.4-292.2-126.9-82.6-246.8-160.7-307.7-235.6-278.3-342.9-256.8-781.9-236-1206.4 2.2-45 4.4-89.8 6.3-134.4 22.8-555.1 211.7-2466.4 313.1-3493.1 39.2-395.8 65-657.3 67.4-698.6 6.9-116.4-14.3-190.8-36.8-269.6-18.8-66-38.3-134.2-42.8-234.1-2.6-59.7-3.8-128.6 16-191 114.5-362.7 863.7-428.1 1090.6-439.5 256.3-12.9 517.9 7.5 763.9 29.5 202.8 18.3 490.8 137.3 642.2 265.2 44.6 37.9 65.2 83.1 74.4 356.9 2.9 85.5-12.5 149-28.8 216.3-17.2 70.7-34.9 143.9-29.7 243.4 3.1 60.7 47.4 545.4 103.6 1159 99.6 1087.9 236 2577.8 266.4 3049 27.2 421.7 57.9 899.6-280.1 1305.2-50.7 60.9-139.1 128.2-232.8 199.5-137 104.4-278.7 212.4-337.7 324.4-75.2 143.1-47.3 367.2-22.7 564.8 11.1 88.8 21.6 172.7 21.7 241 .1 49.8-2.6 100.1-8.2 153.8-13.3 126.9-41.4 249.5-68.6 368-48.7 212.4-99.1 432-63.8 678.7 14.5 102 3.9 195.4-8.3 303.5-6.5 56.9-13.2 115.6-16.6 180.3-.5 8.9-2.3 20.2-8.3 23.9-17.1 10.3-71.1-14.2-110.5-32.1-37.5-17-76.2-34.6-108.7-38.8-84.9-11.1-171.8-1-255.9 8.7-25.3 3-51.4 6-76.9 8.4-49.9 4.7-123.6 34.5-201.6 66.1-85.7 34.7-188.7 76.4-249.9 76.4m403.4-9796.3c-56.3 0-112.5 1.3-168.6 4.1-233.6 11.7-1005.2 80.2-1127.7 468.2-21.8 68.8-20.7 142-17.9 205.2 4.8 104.7 24.9 175.3 44.3 243.5 21.5 75.4 41.9 146.6 35.4 255.9-2.4 40.5-29.6 315.9-67.3 697-101.5 1027.2-290.4 2939.2-313.3 3495.5-1.9 44.5-4.1 89.2-6.3 134.1-21.1 432.2-43 879.2 245.2 1234.4 64.9 79.9 187.4 159.6 317.1 244.1 141.7 92.2 288.1 187.6 350.8 280.7 74.3 110.4 46.1 260 16.2 418.6-16.5 87.5-33.6 178-31.3 260.8 2.6 91.2 13.1 184.7 33 294.3 15.9 86.4 35.9 172.3 55.2 255.5 48.3 207.8 98.3 422.8 86.1 658.7-4.5 87-13.9 389.6 55.1 628.4 6.5 22.3 19.9 38.6 39.9 48.2 66 32.1 193.1-19.4 316.1-69.2 75.1-30.4 146-59.1 189.9-63.2 25.9-2.5 52.3-5.5 77.9-8.5 81.5-9.5 165.9-19.3 245.7-8.8 26.4 3.4 62.4 19.7 97.1 35.5 58.2 26.4 113.1 51.4 148.8 29.7 17.2-10.4 26.6-29.5 28.1-56.8 3.3-63.5 9.9-121.6 16.3-177.8 12.1-106.3 23.5-206.8 8.2-314-34.2-239.2 13.1-445.4 63.2-663.7 27.4-119.7 55.8-243.5 69.4-372.9 5.8-55.2 8.5-106.9 8.4-158.2-.1-70.8-10.7-155.9-21.9-246-23.9-191.6-51-408.8 18.3-540.6 54.7-103.9 192.7-209.1 326.2-310.7 95.5-72.8 185.7-141.5 239.4-205.9 348.6-418.2 317.2-904.9 289.5-1334.2-30.4-471.8-166.8-1962-266.4-3050.2-56.1-613.1-100.5-1097.4-103.5-1157.3-4.9-93.5 11.3-160.6 28.6-231.6 16.2-67 33-136.2 30-227.4-9.4-276.4-29.4-336.4-89-386.9-156.8-132.6-455.2-255.8-665.1-274.7-193.9-17.4-397.5-33.8-601.1-33.8" style="fill:#231f20;fill-opacity:1;fill-rule:nonzero;stroke:none" transform="matrix(.01583 0 0 -.01583 -292.584 565.071)"/><path d="M25561.5 31759.1c-166.8-65.1-358.5-142.6-681-148.7-165.5-3.2-298.2 14.8-406.8 42.3-120 30.3-210.5 72.1-283.6 109.6-30.4 15.4-57.7 30.3-83 43.2 2.7 14.8 5.6 29.6 8.5 44.3 9.7 48.6 20.3 96.7 31.3 144.7 53.9 235 115.3 466.8 101.8 730.1-9.6 184.1 0 433.6 54.3 621.6 39.2 134.9 388.6-86.3 524.3-99.1 109-10.1 220.4-31.3 328.2-17.2 88.4 11.5 244.8 139.8 250.7 27.8 9.9-186.3 47.5-328.3 24.7-487.9-42.4-296.4 38.4-529.1 93.6-787.1 10.3-47.9 19.7-96.8 27.1-147 3.9-25.2 7.1-50.7 9.9-76.6" style="fill:#211d1d;fill-opacity:1;fill-rule:nonzero;stroke:none" transform="matrix(.01583 0 0 -.01583 -292.584 565.071)"/><path d="M25551.6 31835.7c-124-55.8-390-154.9-718-154.9-21.6 0-43.5.4-65.6 1.4-257.1 10.4-508.9 104-652.4 167.6 9.7 48.6 20.3 96.7 31.3 144.7 37.4-17.1 85.8-37.9 141.8-59 133.2-50.1 310-101.7 485.2-109 362.4-14.5 657.2 111 750.6 156.2 10.3-47.9 19.7-96.8 27.1-147" style="fill:#e0c13b;fill-opacity:1;fill-rule:nonzero;stroke:none" transform="matrix(.01583 0 0 -.01583 -292.584 565.071)"/><path d="M24475.4 31673.7c-119.8 30.7-209.9 72.9-281.7 109.8 1.8 9.8 3.8 20.2 6 31 78.6-31.2 174.7-64.3 279.6-89.8zm15.1 197.5c-73.3 19-142 41.8-201.8 64.3-20 7.5-38.9 15-56.8 22.3 25.5 108 52.6 218.8 56.6 269.2 13.4 167.8 18.9 307.1 21 377.7 17.4-11.1 36.2-19.8 56.4-25.8 58.8-17.6 117.3-32 175.6-43.2z" style="fill:#79787b;fill-opacity:1;fill-rule:nonzero;stroke:none" transform="matrix(.01583 0 0 -.01583 -292.584 565.071)"/><path d="M24479.3 31724.7c-104.9 25.5-201 58.6-279.6 89.8 8.7 42.8 20.2 92.7 32.2 143.3 17.9-7.3 36.8-14.8 56.8-22.3 59.8-22.5 128.5-45.3 201.8-64.3z" style="fill:#eedd89;fill-opacity:1;fill-rule:nonzero;stroke:none" transform="matrix(.01583 0 0 -.01583 -292.584 565.071)"/><path d="M24130.2 31816.7c7.9-4.1 16.1-8.4 24.5-12.8 136.5-71.8 343-180.5 725.5-173 309.3 5.9 495.5 77.6 659.2 141.5-14.1 122.5-41.1 236.8-67.3 347.5-49.7 209.6-96.6 407.7-61.5 652.8 14.5 102 3.9 195.4-8.3 303.5-6.5 56.9-13.2 115.6-16.6 180.3-.5 8.9-2.3 20.2-8.3 23.9-17.1 10.3-71.1-14.2-110.5-32.1-37.5-17-76.2-34.6-108.7-38.8-84.9-11.1-171.8-1-255.9 8.7-25.3 3-51.4 6-76.9 8.4-49.9 4.7-123.6 34.5-201.6 66.1-103.8 42.1-233 94.4-282.7 70.3-9.3-4.5-15.1-11.7-18.3-22.7-67.2-232.5-58-529.3-53.5-614.8 12.5-241.7-38.2-459.5-87.1-670.2-18.1-77.8-36.8-158.1-52-238.6m713.1-227.3c-369.2 0-572 106.7-707.8 178.1-13.1 6.9-25.6 13.5-37.7 19.7l-13.6 6.9 2.7 15.1c15.9 86.4 35.9 172.3 55.2 255.5 48.3 207.8 98.3 422.8 86.1 658.7-4.5 87-13.9 389.6 55.1 628.4 6.5 22.3 19.9 38.6 39.9 48.2 66 32.1 193.1-19.4 316.1-69.2 75.1-30.4 146-59.1 189.9-63.2 25.9-2.5 52.3-5.5 77.9-8.5 81.5-9.5 165.9-19.3 245.7-8.8 26.4 3.4 62.4 19.7 97.1 35.5 58.2 26.4 113.1 51.4 148.8 29.7 17.2-10.4 26.6-29.5 28.1-56.8 3.3-63.5 9.9-121.6 16.3-177.8 12.1-106.3 23.5-206.8 8.2-314-33.9-237.4 12.1-431.8 60.8-637.5 27.6-116.6 56.1-237.2 69.9-368.2l1.6-15.7-25.1-9.8c-167.9-65.5-358.2-139.8-677.5-145.9-12.8-.3-25.3-.4-37.7-.4" style="fill:#231f20;fill-opacity:1;fill-rule:nonzero;stroke:none" transform="matrix(.01583 0 0 -.01583 -292.584 565.071)"/><path d="M25480.4 33408.6c8.9-232.5 8.7-245.4 2.6-460.6-.9-33.7-1.9-72.4-3.2-117.6 0-112.8-69-211.1-168.7-242.1-252-78.4-507.5-90.5-766.5-40.8-59.3 11.3-118.9 25.9-178.7 43.8-24 7.2-46.3 18.2-66.2 32.4-64.1 45.6-105 123.7-105 210.4-2.1 55.3-3.9 100.1-5.3 137.8-6.6 179.4-4.8 199.1 8.1 433.2.1 29.6 5.2 59.1 14.9 86.7l-3.3 99-3 11.6c-3.9 14.8-14.5 44.3-14.6 59.5l3.2 489.5h1285.1l10.4-477.1c0-27.9-16-102.8-27-128.1l-.9-63.3 1-1.8c11.2-22.3 17.1-47.2 17.1-72.5" style="fill:#418533;fill-opacity:1;fill-rule:nonzero;stroke:none" transform="matrix(.01583 0 0 -.01583 -292.584 565.071)"/><path d="M24544.6 32535.1c-1 .2-2 .4-3.1.6l1 12.2c.7-.1 1.4-.2 2.1-.4zm-235.1 69.6c-3.3 2.1-6.6 4.3-9.8 6.6v12.4c3.3-2.3 6.7-4.6 10.2-6.8-.1-3.8-.2-7.9-.4-12.2" style="fill:#79787b;fill-opacity:1;fill-rule:nonzero;stroke:none" transform="matrix(.01583 0 0 -.01583 -292.584 565.071)"/><path d="M24541.5 32535.7c-58.3 11.2-116.8 25.6-175.6 43.2-20.2 6-39 14.7-56.4 25.8.2 4.3.3 8.4.4 12.2 17.2-11 36-19.6 56-25.6 59.1-17.7 117.9-32.1 176.6-43.4z" style="fill:#b3b2b1;fill-opacity:1;fill-rule:nonzero;stroke:none" transform="matrix(.01583 0 0 -.01583 -292.584 565.071)"/><path d="M24544.6 32547.5c-.7.2-1.4.3-2.1.4-58.7 11.3-117.5 25.7-176.6 43.4-20 6-38.8 14.6-56 25.6-3.5 2.2-6.9 4.5-10.2 6.8v1511.1h244.9z" style="fill:#8fbd7f;fill-opacity:1;fill-rule:nonzero;stroke:none" transform="matrix(.01583 0 0 -.01583 -292.584 565.071)"/><path d="m24215.1 34130.9-3-469.1c0-8.1 5.8-26.9 9.6-39.4 1.6-5.6 3.2-10.7 4.3-14.7l3.7-16.3 3.4-102.8-1.2-3.6c-9.1-25.6-13.7-52.6-13.8-80l-1.5-28.4c-13.1-236.2-13.1-236.2-3.6-483.7l2.3-58c0-104.6 64.3-196.4 156.5-223.9 319.4-95.3 633.4-96.4 933.2-3.1l6.2-19.6-6.2 19.6c90.9 28.2 154.3 119.7 154.3 222.5l2.9 106.8c6.4 225.9 6.6 234.7-2.4 470.7 0 22.8-5.1 44.6-14.9 63.9l-3.2 6.3 1 72.5 1.6 3.8c10.2 23.4 25.3 95.1 25.3 119.9l-9.9 456.6zm635.9-1633.3c-161.6 0-325.6 24.7-491 74-109.4 32.7-185.9 140.6-185.9 262.5l-2.2 57.3c-9.6 249.3-9.6 249.3 3.6 487.5l1.5 27.3c.1 29.7 5.1 59.9 14.8 88.7l-3.1 92.8-2.5 9.4c-1 3.7-2.4 8.3-3.9 13.3-6.4 21-11.3 38.1-11.4 51.3l3.4 510.3H25500l10.8-497.2c0-29.3-15-101.7-27.1-132.8l-.7-54.4c11.8-24.3 17.9-51.6 17.9-79 9.1-236.5 8.8-245.4 2.4-472.5l-2.9-106.3c0-120-75.3-227.6-183.1-261.2-152.3-47.3-308.1-71-466.3-71" style="fill:#231f20;fill-opacity:1;fill-rule:nonzero;stroke:none" transform="matrix(.01583 0 0 -.01583 -292.584 565.071)"/><path d="M25490.1 34156.2c0-70.4-128.3-127.1-305.4-162.6-100.3-20.2-219-30.2-347.4-30.2s-246.9 11.5-347.2 31.7c-177.1 35.6-292.9 90.7-292.9 161.1s114.7 132 291.8 167.6c100.3 20.2 219.9 31.4 348.3 31.4s248.2-9.8 348.5-29.9c177.1-35.6 304.3-98.7 304.3-169.1" style="fill:#adcf9e;fill-opacity:1;fill-rule:nonzero;stroke:none" transform="matrix(.01583 0 0 -.01583 -292.584 565.071)"/><path d="M24837.3 34334.6c-124.4 0-243.4-10.7-344.3-31-167.2-33.5-275.2-91.4-275.2-147.4 0-53.5 103.3-106.2 276.3-140.9 101.8-20.5 220.5-31.3 343.2-31.3 129.6 0 245.1 10 343.4 29.8 212.9 42.7 288.8 101.6 288.8 142.4 0 45.4-89 109-287.7 148.9-96.1 19.3-215.2 29.5-344.5 29.5m0-391.7c-125.4 0-246.9 11.1-351.3 32-141.1 28.4-309.3 82.8-309.3 181.3 0 80 112.3 148.4 308.2 187.8 103.5 20.8 225.4 31.8 352.4 31.8 132 0 253.9-10.5 352.6-30.3 96.4-19.4 320.7-76.6 320.7-189.3 0-97.6-175-153.3-321.8-182.8-100.9-20.3-219.2-30.5-351.5-30.5" style="fill:#231f20;fill-opacity:1;fill-rule:nonzero;stroke:none" transform="matrix(.01583 0 0 -.01583 -292.584 565.071)"/><path d="M24846 33414.6c-313.9 0-576.5 72.1-632.7 164.6-1.1-22-.6-66 3.3-88.3 59.9-91 315.6-156 626.1-156 315.8 0 568.9 55.8 620.8 145.7 1.3 16.6-1.1 45.1-1.7 72.4-83.3-80.5-329.2-138.4-615.8-138.4" style="fill:#211d1d;fill-opacity:1;fill-rule:nonzero;stroke:none" transform="matrix(.01583 0 0 -.01583 -292.584 565.071)"/><path d="M24211.3 32938.5c.3-8.6.6-17.5 1-26.8.9-23.2 1.9-48.7 2.9-76.8 0-79.1 36.1-151.5 96.4-194.4 18.4-13.2 38.7-23.1 60.2-29.5 59.2-17.7 118.7-32.2 176.7-43.3 257.5-49.4 512.1-35.8 756.5 40.2 90.8 28.2 154.3 119.7 154.3 222.5l2.1 77.9c-101.7-71.6-364.4-110.8-589.4-107.6-262.9 3.6-535.8 61.5-660.7 137.8m639.1-441c-102.5 0-205.8 9.9-309.6 29.8-59.4 11.3-120.2 26.2-180.8 44.2-25.9 7.8-50.2 19.7-72.3 35.5-71.1 50.6-113.6 135.5-113.6 227.1-1 27.4-2 52.8-2.9 76-.9 22.3-1.6 42.5-2.3 61l-.7 17.5 33.9 6.8 7.5-5.9c100.2-79.1 391.4-144 663-147.7 292.3-4 543.5 59.9 586.2 119.7l7.8 11 37.5-8-3.7-134.7c0-120-75.3-227.6-183.2-261.2-152.4-47.4-308.5-71.1-466.8-71.1" style="fill:#231f20;fill-opacity:1;fill-rule:nonzero;stroke:none" transform="matrix(.01583 0 0 -.01583 -292.584 565.071)"/></g></svg>