<svg xmlns="http://www.w3.org/2000/svg" width="200mm" height="200mm" viewBox="0 0 200 200"><path d="M25795.6 27243q-43.5 0-87.6.9c-292.9 6.2-512.8 58.4-668.1 115.5.1 1.7.1 3.4.2 5.1 4.8 122.3 12 249.1 18.9 371.6 3.4 60 6.8 120.3 10 180.8 19.3-9.8 39.7-17.7 60.8-23.5 76.5-21 153.3-38.3 228.2-51.4 131.1-23.1 261.5-34.6 390.8-34.6 199.8 0 397 27.6 589.3 82.6 15.3 4.4 30.1 9.9 44.3 16.3.6-6.8 1.1-13.5 1.6-20.3 12.3-155.5 24.9-316.2 27.1-467.5.6-34.9.5-69.7.3-104.3v-30.4c-180.5-23.1-392.1-40.8-615.8-40.8" style="fill:#fff;fill-opacity:1;fill-rule:nonzero;stroke:none" transform="matrix(.01489 0 0 -.01489 -282.624 453.05)"/><path d="M25667.3 17582.2c-72 0-143.9 1.7-215.4 5.6-300.1 16.2-1286.6 107-1381.4 596.2-55.6 286.7-39.9 446.2-20 648 9.9 100 21.1 213.4 25.5 358.5 3.8 127 26.2 232.2 47.9 334 25.1 118.2 51.1 240.3 45.9 391.6-1.9 56.2-28 394.9-64.2 863.6-94.5 1223.8-252.5 3272-260.8 3884-.6 49.2-1.7 98.5-2.8 147.8-9.7 458.2-19.8 932 299 1309.2 69.3 82 210.5 174.7 347 264.4 162.9 107 331.3 217.5 407.7 325.8 129.1 183.2 135.4 378.4 142 585.1.7 21 1.4 42.1 2.2 63.4 155.3-57.1 375.2-109.3 668.1-115.5q44.1-.9 87.6-.9c223.7 0 435.3 17.7 615.8 40.8-.3-180.1 4.6-364.7 106.7-533.1 69.9-115.3 234.9-221.5 394.5-324.2 109.4-70.4 212.7-136.9 272.8-198.8 377.1-388.4 393-832.8 374.2-1418.1-17.3-538.7-127.6-2257-208.2-3511.7-46.7-726.7-83.5-1300.8-85.3-1382.3-2.9-132.9 22.9-246.2 47.7-355.8 23.9-105.3 46.5-204.8 46.2-321.7-.6-191.2.5-283.5 1.6-372.7 1-89.2 2.1-181.5 1.5-373.2-.1-37.2 1.8-75.4 3.6-112.4 7.1-146.4 13.9-284.6-90.6-381.6-188-174.8-569.2-343.8-832.4-369.1-250.9-24.1-514.2-46.9-776.4-46.9" style="fill:#e9f7f5;fill-opacity:1;fill-rule:nonzero;stroke:none" transform="matrix(.01489 0 0 -.01489 -282.624 453.05)"/><path d="M24902.2 26323s-676.3-618.8-676.3-1338.3c0-719.4 287.8-5352.8 287.8-5352.8l618.7-143.9s-230.2 5237.7-143.9 5655c86.4 417.3 259 1223.1-86.3 1180m2088.1-6451.3h-1.6c-47.7.9-85.6 40.3-84.7 87.9l199.8 5521.6c.9 47.7 40.5 85 88 84.7 47.6-.9 85.5-40.3 84.6-88l-199.8-5521.5c-.9-47.1-39.3-84.7-86.3-84.7" style="fill:#fff;fill-opacity:1;fill-rule:nonzero;stroke:none" transform="matrix(.01489 0 0 -.01489 -282.624 453.05)"/><path d="M24341 19679.8s-67.1-182.2-57.6-484.4c9.6-302.2 9.6-1323.9 9.6-1323.9s230.3-100.7 331-119.9c100.7-19.1 326.2-43.1 326.2-43.1l24 1813-374.2 86.4z" style="fill:#fff;fill-opacity:1;fill-rule:nonzero;stroke:none" transform="matrix(.01489 0 0 -.01489 -282.624 453.05)"/><path d="M25833.4 19413.5c-481 0-1052 78.2-1539.8 254-13.8 4.9-21 20.2-16 34 4.9 13.8 20.2 21.1 34 16 827.8-298.2 1895.7-313.1 2336.4-140 13.6 5.4 29.1-1.4 34.5-15 5.4-13.7-1.4-29.2-15-34.6-188.2-73.9-487.8-114.4-834.1-114.4" style="fill:#231f20;fill-opacity:1;fill-rule:nonzero;stroke:none" transform="matrix(.01489 0 0 -.01489 -282.624 453.05)"/><path d="M27114.6 19552.7s112.7 0 122.3-259-16.8-1227.9-16.8-1227.9-38.4-95.9-124.7-124.7 19.2 1611.6 19.2 1611.6m-2650.8 5169.4c885-119.6 1664.9-131.2 2499.1-37 191.6 21.7 356.5-134.9 346.2-327.6l-140.2-2611.2c-7.5-139.1-106.3-256.1-241.9-288-805.1-189.1-1541.5-186.1-2425.3 43.3-131.3 34-225.9 148.6-234.1 284l-157.5 2607.8c-11.9 196.5 158.6 355.1 353.7 328.7" style="fill:#fff;fill-opacity:1;fill-rule:nonzero;stroke:none" transform="matrix(.01489 0 0 -.01489 -282.624 453.05)"/><path d="M24421.7 24698.3c-71.7 0-140.8-26.8-194.2-76.4-62.9-58.5-96.1-141.1-90.9-226.9l157.5-2607.8c7.6-124.1 93.6-228.6 214.2-259.9 864.5-224.3 1586-237.2 2412.6-43 123.6 29 214.6 137.3 221.4 263.5l140.2 2611.2c4.5 84.3-28.1 165.9-89.6 223.9-61.1 57.5-143.7 85.2-227.1 75.8-840.4-95-1613.1-83.6-2505.5 37-12.9 1.8-25.8 2.6-38.6 2.6m1387.6-3401.4c-425.4 0-854.1 59.5-1314.3 178.9-143 37.1-245.1 161-254 308.2l-157.5 2607.8c-6.2 101.7 33.1 199.8 107.8 269.1 74.6 69.3 175.2 101.2 276.1 87.6 887.9-120 1656.6-131.4 2492.5-36.9 98.8 11.1 197-21.6 269.5-90 72.9-68.7 111.6-165.5 106.3-265.5l-140.2-2611.2c-8.1-149.6-116-278.1-262.4-312.5-384.2-90.2-752.7-135.5-1123.8-135.5" style="fill:#231f20;fill-opacity:1;fill-rule:nonzero;stroke:none" transform="matrix(.01489 0 0 -.01489 -282.624 453.05)"/><path d="M25746.4 24236.5c-865.6 0-1374.6 122.4-1395.8 127.6-54 13.3-87.1 67.8-73.8 121.8 13.2 54 67.7 87.1 121.7 73.9 5-1.2 509.1-121.9 1347.9-121.9 845.2 0 1245.8 65.2 1249.7 65.8 54.8 9.2 106.8-27.9 115.9-82.8 9.2-54.8-27.9-106.7-82.8-115.9-16.8-2.8-421-68.5-1282.8-68.5m-38.4-2758c-880.3 0-1262.5 215.4-1278.4 224.6-48.1 27.9-64.5 89.5-36.7 137.7 27.8 48 89.2 64.5 137.3 36.9 5.6-3.2 362-197.7 1177.8-197.7 823.3 0 1181.7 161.5 1185.2 163.1 50.3 23.3 110.2 1.7 133.7-48.6 23.6-50.2 2.3-109.9-47.9-133.6-15.7-7.5-395-182.4-1271-182.4" style="fill:#9bdeec;fill-opacity:1;fill-rule:nonzero;stroke:none" transform="matrix(.01489 0 0 -.01489 -282.624 453.05)"/><path d="M24857.2 22250c143.4 20.2 286.5 25.4 427.8 29 141.3 2.3 281.7.8 421-2.9 139.3-3.6 277.6-9.8 414.3-17.7l203.7-11.7c67.5-4 133.8-6.7 199.8-9.6l8.7-.4c57.2-2.6 101.5-51 99-108.3-1.6-36-22.1-67.3-50.9-84.6-17.6-10.4-35.9-20.1-54.2-29.2-18.1-8.2-36.7-16.6-55.2-23.9-18.4-7.2-37-13.7-55.7-20.4l-55.8-17c-74.6-20.9-149.3-35-223.7-45.3-148.9-20.4-296.8-24.1-443.1-18.1-73.3 3-146.1 8.2-218.6 16.4-72.6 7.3-144.7 18.1-216.5 30.4-71.8 12.9-143.2 28-214.1 46.2-71.1 18.7-141.1 39.1-211.6 67.2-53.4 21.2-79.5 81.8-58.2 135.1 14.3 35.9 46.3 59.4 81.9 64.6z" style="fill:#c03222;fill-opacity:1;fill-rule:nonzero;stroke:none" transform="matrix(.01489 0 0 -.01489 -282.624 453.05)"/><path d="M24849.8 23752.7c-24.4 5.1-41.9 7.9-52.6 8.3-11.4.4-27.5-1.2-48.2-4.8-49.7-8.5-77-17-81.7-25.4q-3.45-6.3-4.2-65.4c-1.8-141.3 2.1-283.7 11.8-427.2l2.9-42.5 26.3-.9c18.3-.7 42 2.3 71.2 9 101.8 20.4 178.1 52.4 228.7 96.1 50.6 43.6 78.2 101.8 83 174.5l.2 19.2q1.35 102.9-59.1 169.2c-40.4 44.3-99.8 74.2-178.3 89.9m-150 99.1c26.8 6.8 54.4 9.7 82.6 8.7 3.9-.2 10.3-.6 19.5-1.4 9.2-.7 16.4-1.2 21.8-1.4 118.3-7.6 209.5-46.8 273.5-117.6q83.7-90.45 90-226.8c.7-6.9.9-17.7.7-32.2-.6-48.8-10.8-96-30.4-141.6-24.4-54.9-57.2-99.5-98.5-134.1-41.4-34.5-96.9-63-166.8-85.4l-59.8-19.7 46.5-37.7c145.3-116.5 224.6-183.6 238.2-201.2 6.7-10.5 10-22.2 9.8-35-.2-12.9-3.3-24.3-9.6-34.4-6.3-10-14.7-16.2-25.5-18.4q-4.5-1.05-11.4-.9c-6.9.3-17.1 5.4-30.8 15.3-13.6 9.9-43.1 33.6-88.5 71.2-149.7 123.6-234.4 191.2-254.1 203.1l-26.2 15-2-164.4c-.9-71.1-3.2-114.7-6.9-130.9-3.6-16.1-13.1-26.1-28.4-29.8-2.3-.8-6.2-1.1-11.5-.9-19.1.7-33.1 9.3-42.1 25.9-5.2 9.6-8.3 93.7-9.4 252.3-3.2 167.2-5.7 274.8-7.3 322.9-4 115.8-5 243.5-3.2 383.1.4 30.9 1 48.4 1.8 52.7.8 6 16.2 16.5 46.2 31.8 30 15.2 57.3 25.8 81.8 31.8m676.7-86.3c10.6 5.3 16.3 7.9 17.1 7.9l19.5-10.1c13.9-7.5 20.9-20.3 21.1-38.3.2-11.2-2.6-31.8-8.3-61.9-25.9-129.7-37.9-272.2-35.9-427.4 0-5.1.3-12.4.8-21.9.5-9.4.8-16.3.8-20.5 4.3-96.9 21.7-181.2 52.3-252.9 24.3-57.2 53.7-96.3 88.3-117.3 14.5-8.4 26.4-13.7 35.6-15.7s27.1-2.9 53.7-2.6c38.8.4 68.1 6.1 87.8 17 19.6 10.9 47.1 36.7 82.4 77.4 52.6 60.6 83.8 121.9 93.7 183.7 11.3 70.4 16.1 175.5 14.3 315.3-.8 63.5-3.5 127.3-8.1 191.6-5.3 60.8-8.1 99.4-8.3 115.7-.2 18.8 3.8 33 12.1 42.5 9.6 12.1 20.9 18.3 33.7 18.4 12.1.2 23.1-5.7 33-17.6 10-11.9 16.2-27.7 18.7-47.4 10.8-77.9 17-178.2 18.5-300.8 1.9-150.1-3.6-262.4-16.4-337.2-13.4-79.9-49.8-157.3-109.1-232.1s-120.1-119.8-182.4-135.1c-20.5-4.5-40.7-6.9-60.5-7.1q-87.9-1.05-147.9 35.7c-22.3 13.5-45.2 34.6-68.8 63.5s-42.5 59.6-56.6 92c-43.1 99-65.4 209-66.9 329.9-.9 70.3 4.5 160 16.3 269 19.4 179.4 42.6 274.9 69.5 286.3m1443 51.4c10.4 9.3 22.1 14.3 35.1 15.2 22.6 1.5 42.3-11.3 59.2-38.5 25.8-42.1 43.3-185.4 52.4-430.1 1.4-35.9 3.3-107.8 5.8-215.7 2.9-137.1 4.1-220.2 3.7-249.4-.4-29.1-3.5-48.6-9.1-58.5-8.5-15.1-21.8-23.3-39.9-24.5-12.9-.8-22.8 2.8-29.9 10.9-5.5 5.7-9.4 27.3-11.6 64.9-2.1 37.6-7 156.4-14.4 356.6-10.2 272.1-17.9 413.5-22.9 424.3-1.7 5.1-3.3 7.5-4.8 7.4-3.9-.2-19-25.7-45.4-76.3-15.6-31.9-52.1-98.2-109.5-199-10.8-18.7-22.6-39.8-35.5-63.4s-25.3-46.1-37.1-67.4c-11.8-21.4-19.5-35.2-23.1-41.5-24.3-45.3-43.7-68.5-58.2-69.4-6.9-.5-15 1.6-24.3 6.1-17.1 7.4-31.7 18.7-43.8 33.8-12 15-30.4 45.7-55.1 92.1-45.2 84.5-87.6 159.7-127.2 225.7s-62.4 98.8-68.5 98.4l-1.2-.1c-5.1-6.3-7.4-67.8-6.8-184.4.5-116.6 3.5-245.5 8.8-386.6l9.6-287.5-13.3-12.5c-8.9-8.3-16.8-12.7-23.6-13.2-7.7-.5-17 3.6-28 12.3-7.1 5.6-12 12.3-14.6 20.3q-3.9 12-8.7 48.9c-9.1 79.2-16.3 191.5-21.8 336.9-8.2 219.9-8.9 379.4-1.9 478.5 3.5 49.9 10.2 85.8 20.1 107.5 9.9 21.6 25.2 33.1 45.8 34.5 16 1.1 29.4-1.1 40.3-6.3q15.15-8.1 49.8-45.6c23.1-25.1 40.7-46.6 52.8-64.7 47.3-78.3 106.1-181.2 176.6-308.6l24.6-44.7 9.7 16.1c9.4 14.3 36.5 63.9 81.2 148.8q67.05 127.35 94.8 184.5c42.7 86.9 79.4 141.6 109.9 164.2" style="fill:#100f0d;fill-opacity:1;fill-rule:nonzero;stroke:none" transform="matrix(.01489 0 0 -.01489 -282.624 453.05)"/><path d="M25225.6 29230.2c-32.3 0-60.6-3.7-82.6-12.9-162-67.9-125.4-234.3-90-395.2 12.3-56.2 24.1-109.3 26.4-156.1 15-304.4-3-622.4-20.4-929.9-6.9-122.5-14.1-249.3-18.9-371.6-.9-23-1.6-45.8-2.4-68.5-6.6-206.7-12.9-401.9-142-585.1-76.4-108.3-244.8-218.8-407.7-325.8-136.5-89.7-277.7-182.4-347-264.4-318.8-377.2-308.7-851-299-1309.2 1.1-49.3 2.2-98.6 2.8-147.8 8.3-612 166.3-2660.2 260.8-3884 36.2-468.7 62.3-807.4 64.2-863.6 5.2-151.3-20.8-273.4-45.9-391.6-21.7-101.8-44.1-207-47.9-334-4.4-145.1-15.6-258.5-25.5-358.5-19.9-201.8-35.6-361.3 20-648 94.8-489.2 1081.3-580 1381.4-596.2 332.2-18 672.1 10.6 991.8 41.3 263.2 25.3 644.4 194.3 832.4 369.1 104.5 97 97.7 235.2 90.6 381.6-1.8 37-3.7 75.2-3.6 112.4.6 191.7-.5 284-1.5 373.2-1.1 89.2-2.2 181.5-1.6 372.7.3 116.9-22.3 216.4-46.2 321.7-24.8 109.6-50.6 222.9-47.7 355.8 1.8 81.5 38.6 655.6 85.3 1382.3 80.6 1254.7 190.9 2973 208.2 3511.7 18.8 585.3 2.9 1029.7-374.2 1418.1-60.1 61.9-163.4 128.4-272.8 198.8-159.6 102.7-324.6 208.9-394.5 324.2-107.9 177.8-107.2 373.9-106.7 563.5.2 34.6.3 69.4-.3 104.3-2.2 151.3-14.8 312-27.1 467.5-23.1 293.6-46.9 597.2-6.9 879 4.4 31.3 12 64.4 20 99.4 32.1 140.3 65.4 285.3-90.1 349.2-56.2 23.2-104.9 4.5-161.2-17.1-29.8-11.4-60.6-23.2-94.4-29.4-91.5-16.9-185.2-13.5-275.8-10.3-27.7 1-55.3 2-82.8 2.4-56.7.9-131.5 16.5-210.7 33-87 18.2-182.2 38-256.5 38m441.6-11701.2c-72.9 0-145.7 1.7-218.2 5.6-397.1 21.5-1331.4 126.6-1430.8 639.2-57.1 294.4-41 457.2-20.7 663.4 9.8 99.2 20.9 211.7 25.2 354.9 4.1 131.8 27 239.4 49.1 343.5 25.6 120.3 49.8 233.9 44.8 378.6-1.9 55.2-28 393.4-64.1 861.4-94.5 1224.4-252.7 3273.7-260.9 3887.4-.7 49.1-1.7 98.2-2.8 147.4-9.9 468.1-20.2 952.1 311.5 1344.7 74.3 87.9 212.4 178.5 358.5 274.5 158.7 104.2 322.8 212 393.4 312 119.9 170.1 125.9 357.6 132.3 556.1.8 22.8 1.5 45.7 2.4 68.8 4.8 122.9 12 249.9 19 372.6 17.3 306.2 35.2 622.7 20.3 924.2-2.1 42.4-13.3 93.4-25.2 147.4-36.3 165.1-81.6 370.6 121.4 455.7 88.1 36.9 231.7 6.9 370.6-22.1 76.6-16 149-31.1 200.6-31.8 27.8-.4 55.8-1.5 83.9-2.5 87.7-3.1 178.4-6.4 264.3 9.4 29 5.4 57.4 16.3 84.9 26.8 61.4 23.5 124.8 47.8 200.6 16.6 197.1-81 155.3-263.6 121.7-410.3-7.7-33.9-15.1-65.9-19.2-95-39.2-275.9-15.5-576.6 7.3-867.3 12.3-156.3 25-317.9 27.3-470.9.5-35.2.4-70.3.3-105.3-.6-190.6-1.2-370.7 98.9-535.7 63.6-104.8 223.3-207.6 377.8-307 112-72.1 217.9-140.3 282.2-206.5 422-434.6 404.6-977.7 389.2-1457-17.3-539.4-127.7-2258.3-208.3-3513.3-46.6-726.1-83.4-1299.6-85.2-1380.1-2.7-126.3 22.3-236.4 46.5-342.8 23.5-103.6 47.8-210.7 47.4-333.6-.5-190.9.6-282.9 1.6-372 1.1-89.4 2.2-181.8 1.6-374-.2-35.8 1.7-73.3 3.5-109.6 7.4-152.1 15-309.3-107.5-423.2-198.6-184.6-586-356.4-863.6-383.1-252.3-24.2-517.1-47.1-781.6-47.1" style="fill:#231f20;fill-opacity:1;fill-rule:nonzero;stroke:none" transform="matrix(.01489 0 0 -.01489 -282.624 453.05)"/><path d="M26544.6 28868.3c11.2-270.1 10.9-285 3.3-535-1.1-39.1-2.4-84-4-136.5 0-131-87.2-245.2-213.1-281.2-318.3-91.1-641.1-105-968.1-47.3-75 13.1-150.3 30-225.8 50.8-30.4 8.3-58.4 21.1-83.6 37.7-81 52.9-132.7 143.6-132.7 244.3-2.6 64.2-4.9 116.3-6.6 160-8.3 208.4-6 231.2 10.2 503.1.2 34.3 6.6 68.6 18.9 100.7l-4.2 114.9-3.9 13.6c-4.9 17.1-18.3 51.4-18.4 69l4 568.6h1623.3l13.1-554.2c0-32.3-20.3-119.4-34.1-148.8l-1.2-73.5 1.3-2c14.1-25.9 21.6-54.8 21.6-84.2" style="fill:#9bdeec;fill-opacity:1;fill-rule:nonzero;stroke:none" transform="matrix(.01489 0 0 -.01489 -282.624 453.05)"/><path d="M26547.9 28333.3c-1.1-39.1-2.4-84-4-136.5 0-131-87.2-245.2-213.1-281.2-318.3-91.1-641.1-105-968.1-47.3-75 13.1-150.3 30-225.8 50.8-30.4 8.3-58.4 21.1-83.6 37.7-81 52.9-132.7 143.6-132.7 244.3-2.6 64.2-4.9 116.3-6.6 160l9.3 1.7c131.3-95.2 498.8-172.2 853.2-176.7 354.3-4.4 695.6 63.5 761.9 149.1z" style="fill:#c22126;fill-opacity:1;fill-rule:nonzero;stroke:none" transform="matrix(.01489 0 0 -.01489 -282.624 453.05)"/><path d="M24942.3 28319.3c.4-9.3.8-19 1.3-29 1.1-26.7 2.3-55.9 3.6-88.1 0-90.8 45.1-173.8 120.7-223.2 23.2-15.3 48.8-26.8 76.1-34.3 74.7-20.5 149.9-37.4 223.2-50.2 325.6-57.4 647.3-41.7 956.3 46.7 114.1 32.6 193.8 137.7 193.8 255.6l2.6 87.6c-128.9-83.1-460.1-128.6-743.7-124.9-331.7 4.2-676 71.3-833.9 159.8m806.5-511.9c-129.3 0-259.7 11.5-390.8 34.6-74.9 13.1-151.7 30.4-228.2 51.4-32.6 8.9-63.2 22.8-91.1 41.1-90.6 59.2-144.7 158.9-144.7 266.6-1.3 31.1-2.5 60.3-3.6 87-1.1 26.3-2.2 50.2-3 71.9l-.9 23.1 43.3 8 9.2-6.7c126.6-92 494.7-167.3 837.8-171.7 369.4-4.8 686.8 69.4 740.6 138.8l10 13 47.8-9.4-4.7-159.1c0-140.7-95.6-266.9-232.4-306-192.3-55-389.5-82.6-589.3-82.6" style="fill:#231f20;fill-opacity:1;fill-rule:nonzero;stroke:none" transform="matrix(.01489 0 0 -.01489 -282.624 453.05)"/><path d="M25362.7 27895.3c-71.9 12.7-145.5 29.3-218.7 49.4-27.3 7.5-52.9 19-76.1 34.3-5 3.3-9.9 6.7-14.6 10.3v281.4c85.1-30.1 192-55.9 309.4-75.1z" style="fill:#db6d7b;fill-opacity:1;fill-rule:nonzero;stroke:none" transform="matrix(.01489 0 0 -.01489 -282.624 453.05)"/><path d="M25362.7 28249.8c-119.6 19.9-227.3 46.7-309.4 77.4v1384.5h309.4z" style="fill:#c5ecf3;fill-opacity:1;fill-rule:nonzero;stroke:none" transform="matrix(.01489 0 0 -.01489 -282.624 453.05)"/><path d="M25362.7 27853.9c-75 13.1-150.3 30-225.8 50.8-30.4 8.3-58.4 21.1-83.6 37.7v46.9c4.7-3.6 9.6-7 14.6-10.3 23.2-15.3 48.8-26.8 76.1-34.3 73.2-20.1 146.8-36.7 218.7-49.4zm0 341.7c-117.4 19.2-224.3 45-309.4 75.1v56.5c82.1-30.7 189.8-57.5 309.4-77.4z" style="fill:#636567;fill-opacity:1;fill-rule:nonzero;stroke:none" transform="matrix(.01489 0 0 -.01489 -282.624 453.05)"/><path d="m24947.1 29704.4-3.9-542.1c.1-8.6 7.5-31 11.9-44.3 2.2-6.6 4.1-12.5 5.5-17.2l4.8-16.7 4.5-123.7-2-5c-11.2-29.2-16.9-60-17-91.3l-.1-1.5-1.9-31.9c-16.5-274-16.5-274-4.4-561.3l2.8-67.2c0-120.2 80.8-225.6 196.6-257.4 403.8-110.8 800.7-112 1179.6-3.6 114.1 32.6 193.8 137.7 193.8 255.5l3.7 124.2c8 262.2 8.3 272.4-3.1 546.3 0 26-6.3 50.6-18.3 72.4l-4.5 8.3 1.2 86.3 2.5 5.2c12.4 26.3 31.6 109.8 31.6 137.5l-12.5 527.5zm802.5-1896.9c-203.9 0-411 28.7-619.7 85.9-138.9 38.1-235.9 164.7-235.9 307.7l-2.7 66.1c-12.2 290-12.2 290 4.5 566.7l1.9 31.1c.2 35.7 6.4 70.8 18.6 104.2l-3.8 106.4-3.1 10.4c-1.2 4.2-2.9 9.5-4.8 15.3-8.2 24.7-14.4 44.9-14.6 60.9l4.2 595.4h1675.7l13.7-580.1c0-34.3-18.8-118.2-34.2-155.2l-.9-61.2c14.8-28.5 22.7-60.5 22.7-92.8 11.4-274.7 11.1-285 3-549l-3.7-123.3c0-140.8-95.5-266.9-232.3-306-192.3-55-388.9-82.5-588.6-82.5" style="fill:#231f20;fill-opacity:1;fill-rule:nonzero;stroke:none" transform="matrix(.01489 0 0 -.01489 -282.624 453.05)"/><path d="M26556.8 29736.5c0-81.7-162-147.6-385.6-188.8-126.8-23.5-276.8-35.1-438.9-35.1-162.2 0-311.8 13.4-438.6 36.8-223.6 41.3-369.9 105.4-369.9 187.1s144.9 153.4 368.5 194.7c126.8 23.4 277.8 36.4 440 36.4 162.1 0 313.5-11.3 440.2-34.7 223.7-41.3 384.3-114.7 384.3-196.4" style="fill:#ceeff6;fill-opacity:1;fill-rule:nonzero;stroke:none" transform="matrix(.01489 0 0 -.01489 -282.624 453.05)"/><path d="M25732.3 29941c-157.1 0-307.6-12.5-435.1-36-255.9-47.3-346.7-120.3-346.7-168.5 0-60.5 130.1-120.7 348.1-160.9 128.6-23.8 278.6-36.3 433.7-36.3 163.8 0 309.8 11.6 434 34.5 268.6 49.6 363.9 118.7 363.9 162.7 0 49.7-113.4 124.2-362.5 170.2-121.4 22.4-272 34.3-435.4 34.3m0-455c-158.3 0-311.6 12.9-443.4 37.2-259.9 48-391.7 119.8-391.7 213.3 0 129.4 244.5 193.9 390.3 220.8 130.7 24.2 284.5 36.9 444.8 36.9 166.6 0 320.5-12.1 445.1-35.2 122.1-22.5 406-89.3 406-222.5 0-115.5-221.5-180.7-407.4-215-127.4-23.6-276.7-35.5-443.7-35.5" style="fill:#231f20;fill-opacity:1;fill-rule:nonzero;stroke:none" transform="matrix(.01489 0 0 -.01489 -282.624 453.05)"/><path d="M25743.3 28875.2c-396.4 0-728.2 83.8-799.2 191.2-1.4-25.6-.7-76.6 4.2-102.5 75.6-105.7 398.7-181.2 790.9-181.2 398.8 0 718.5 64.7 784.1 169.2 1.6 19.2-1.5 52.4-2.3 84.1-105.1-93.5-415.6-160.8-777.7-160.8" style="fill:#c22126;fill-opacity:1;fill-rule:nonzero;stroke:none" transform="matrix(.01489 0 0 -.01489 -282.624 453.05)"/><path d="M24973.5 28974.7c67.4-82.9 348.4-165.4 765.7-165.4 382.9 0 691.4 62 757.9 151.5.1 6.9-.1 15.5-.5 24.8-138.2-83.1-428.3-137-753.3-137-346.8 0-644.6 61.4-772.3 154.2.6-10.4 1.4-20.2 2.5-28.1m765.7-218.6c-403.7 0-730.2 77.3-812.6 192.3l-3.4 4.8-1.1 5.8c-5.3 28.4-6 81.4-4.6 108.8l4.4 80.4 44.4-67.1c58.3-88.2 364.8-179.3 777-179.3 345.5 0 658.1 63.4 760.1 154.1l42.9 38.2 1.4-57.5c.2-11.2.8-22.6 1.3-33.5 1.1-21.1 2-39.4.8-53.4l-.6-6.5-3.4-5.4c-84.1-134-471.8-181.7-806.6-181.7m-796.9-436.8c.4-9.3.8-19 1.3-29 1.1-26.7 2.3-55.9 3.6-88.1 0-90.8 45.1-173.8 120.7-223.2 23.2-15.3 48.8-26.8 76.1-34.3 74.8-20.5 149.9-37.4 223.2-50.2 325.6-57.4 647.3-41.7 956.3 46.7 114.1 32.6 193.8 137.7 193.8 255.6l2.6 87.6c-128.9-83.1-460.1-128.6-743.7-124.9-331.7 4.2-676 71.3-833.9 159.8m806.5-511.9c-129.3 0-259.7 11.5-390.8 34.6-74.9 13.1-151.7 30.4-228.1 51.4-32.7 8.9-63.3 22.8-91.2 41.1-90.6 59.2-144.7 158.9-144.7 266.6-1.3 31.2-2.5 60.3-3.6 87-1.1 26.3-2.1 50.2-3 71.9l-.9 23.1 43.3 8 9.2-6.7c126.6-92 494.7-167.3 837.8-171.7 369.4-4.8 686.8 69.4 740.6 138.8l10.1 13 47.7-9.4-4.7-159.1c0-140.8-95.5-266.9-232.4-306-192.3-55-389.5-82.6-589.3-82.6" style="fill:#231f20;fill-opacity:1;fill-rule:nonzero;stroke:none" transform="matrix(.01489 0 0 -.01489 -282.624 453.05)"/></svg>