<svg xmlns="http://www.w3.org/2000/svg" xml:space="preserve" width="200mm" height="200mm" viewBox="0 0 200 200"><g style="display:inline"><path d="M10330.6 2296.5c-486.82 166.2-814.78 428.7-821.95 631.5 7.17-202.8 335.13-465.3 821.95-631.5m-968.73 4049.9h-.02c-10.3 240.5-20.1 469.8-29.02 677.7 15.49-207.5 19.12-437.1 29.04-677.7m3910.03 650.8c5.9 320.4-77.7 431.2-456.6 665.8 378.3-225.2 462.6-342.2 456.6-665.8m-3941.58 123.7c-.74 192.4 31.13 304.8 158.08 422.5-90.82-103.3-153.27-237.2-158.08-422.5M12425.8 7895c-174.7 106.3-401.7 253.8-443.3 325.2-154.6-32.6-386.8-111.5-574-121.4-26.5-1.4-52.6-2.1-78.1-2.1-351.5 0-598.5 127-715.4 194-51.3-100.5-286.5-236.9-455.2-327.3 207.6 116.2 562.6 339.4 559.8 553.4l58.5 1914.1h1017.3l49.8-1957.7c-.9-172 343.2-424.5 580.6-578.2" style="fill:#f6fcfb;fill-opacity:1;fill-rule:nonzero;stroke:none" transform="matrix(.01796 0 0 -.01796 -102.926 231.556)"/><path d="M12634.8 7771.8s-583.1 329.5-652.3 448.4c-154.6-32.6-386.8-111.5-574-121.4-393-20.9-668.2 120.1-793.5 191.9-73.1-143.2-520-359.6-615.22-411.4-294.1-160-707.84-307.6-666.95-855.2 15.97-214 19.33-451.4 29.98-700.2 39.51-918.5 85.4-1987.5 114.74-2671.9 18.81-436.7 31.06-723.1 31.1-724 11.31-319.9 821.25-788.8 1793.65-792.6 949.2-3.8 1729.7 446.9 1776 755.9l39.2 828.4 123.4 2605.7 28.9 608.5c19.8 419.8-71.7 504.4-635 837.9" style="fill:#4266b9;fill-opacity:1;fill-rule:nonzero;stroke:none" transform="matrix(.01796 0 0 -.01796 -102.926 231.556)"/><path d="M12756.8 2908h-.7c-62.5.6-111.9 52.2-110.3 115.4l90.3 3564.2c1.8 71.2 56.9 128.7 123.2 128.6h.8c66.6-.6 119-59.1 116.9-130.6l-104.4-3564.4c-1.8-62.9-53.6-113.4-115.8-113.2M9655.74 6836.6l131.27-3821.9c1.78-51.9 25.58-100.6 64.35-131.5 80.21-63.8 222.64-171.5 329.94-221 43.4-20 84-35.5 119.9-47.5 78.4-26.1 155.9 37.2 154 126.3l-87.1 3923.5c-5.5 246.1-146.6 468.4-351.1 538.3-116.46 39.7-236.4 25.7-313.57-129.9-35.18-70.9-50.53-153.4-47.69-236.3" style="fill:#46acd7;fill-opacity:1;fill-rule:nonzero;stroke:none" transform="matrix(.01796 0 0 -.01796 -102.926 231.556)"/><path d="m13240.8 6325.3-123.3-2605.6c-63.9-59.3-140.5-117.9-229.4-173.4h-.1c-69.9-43.4-147.1-85-232.1-123.4-316.6-143.6-738-244.6-1259.2-242.8-340.3 1.2-632.6 38.4-885.7 94h-.1c-291.2 63.8-530.78 152.4-731.13 238.9-112.41 48.5-212.47 96.5-302.19 139-29.36 684.4-75.28 1753.4-114.74 2672 87.39-34 193.13-74 316.42-115.2 207.47-69.4 464.04-142.9 765.74-199.5h.1c258-48.4 549-84.7 870.4-96.1 608.2-21.3 1064.9 76.1 1408.4 193.8h.1c87.7 30 168.2 61.4 241.7 92.5 105 44.2 196.2 87.8 275.1 125.8" style="fill:#ecf9f7;fill-opacity:1;fill-rule:nonzero;stroke:none" transform="matrix(.01796 0 0 -.01796 -102.926 231.556)"/><path d="m10513.1 3294.6 2.3-.5c277.3-60.9 573.8-92.3 881.4-93.4h13.1c462.1 0 889.8 83.2 1237.5 241 81 36.5 158.2 77.6 229.7 122.1l5.1 3.1c80.4 50.5 152.7 105.1 215.2 162.2l121.3 2562.7c-74.8-35.8-155.1-73.4-245.1-111.3-82.9-35-162.4-65.4-243-93l-3.3-1.1c-434.7-148.4-896.8-211.8-1412.5-193.8-294 10.5-587.2 42.8-871.7 96.2l-1.9.3c-260.3 48.9-511.71 114.3-768.46 200.2-114.48 38.3-211.98 74.8-288.01 104.1 38.93-905.8 83.82-1951.1 112.88-2628.2l17.73-8.4c80.83-38.3 172.45-81.8 272.57-124.9 250.59-108.2 480.99-183.6 725.19-237.3m896.8-135.1h-13.3c-309.6 1.2-608.3 32.8-887.9 94l-2.2.5c-247.6 54.2-481.1 130.5-734.89 240.1-100.79 43.5-192.76 87.1-273.9 125.6l-40.15 19-.54 12.4c-29.35 684.4-75.28 1753.4-114.74 2672l-1.34 31.5 29.35-11.5c79.16-30.8 186.53-71.7 315.49-114.8 254.33-85 503.32-149.9 761.12-198.4l2-.3c283-53.2 574.8-85.5 867.3-95.9 512.1-17.8 970.2 45.2 1401 192.7l3.3 1.1c78.6 27 156.2 56.7 237.2 90.9 101.6 42.8 191.2 85.4 274.2 125.4l31.1 15-125.3-2648.5-6.2-5.7c-67-62.1-145.2-121.3-232.5-175.7l-5.2-3.1c-71.6-44.3-148.7-85.2-229.4-121.6-353-160.2-786.6-244.7-1254.5-244.7" style="fill:#231f20;fill-opacity:1;fill-rule:nonzero;stroke:none" transform="matrix(.01796 0 0 -.01796 -102.926 231.556)"/><path d="m12965.7 6199.5-77.7-2653.2c-69.9-43.4-147.1-85-232.1-123.4l68 2684.1h.1c87.7 30 168.2 61.4 241.7 92.5m-2521.6-2902.1c-291.2 63.8-463.98 129.1-664.33 215.6l-100.51 2695.8c207.46-69.4 403.84-130.9 705.54-187.5z" style="fill:#fff;fill-opacity:1;fill-rule:nonzero;stroke:none" transform="matrix(.01796 0 0 -.01796 -102.926 231.556)"/><path d="m11896.9 5007.8 4.8-1.2c10.2-2.5 20.4-5 30.6-7.6 130.9-33.5 266.5-79.4 368.7-197.7 100.8-116.5 152.3-272.1 148.7-430.6-1.2-54-6.5-137.3-16.6-179.3-13.6-56.9-59-190.5-211.6-307.1-135.3-103.4-321.8-138.5-488.9-120.8l-6 .6z" style="fill:#cd681c;fill-opacity:1;fill-rule:nonzero;stroke:none" transform="matrix(.01796 0 0 -.01796 -102.926 231.556)"/><path d="M11749.9 3782.5c172.1-14.7 342.5 29 459.2 118.1 141.9 108.6 188.7 231.8 204 295.6 9.2 38.5 14.8 117.7 16.1 175 3.5 157.4-47.5 305.4-143.7 416.7-101.9 117.9-238.4 160.5-358.3 191.1-4.4 1.1-8.7 2.2-13 3.3zm65.4-44c-28.1 0-56.5 1.5-84.9 4.5l-27 3.1 176.2 1286.9 26.9-6.4c10.3-2.5 20.6-5.1 30.9-7.7 135.2-34.6 274.8-83.3 379.2-204.1 102.9-119 157.4-276.9 153.7-444.6-1-45.8-5.8-136-17.2-183.6-16.5-69.1-67-202.4-219.1-318.6-108.8-83.2-260.8-129.5-418.7-129.5" style="fill:#231f20;fill-opacity:1;fill-rule:nonzero;stroke:none" transform="matrix(.01796 0 0 -.01796 -102.926 231.556)"/><path d="M12392.8 4212.6c-3.7 0-7.8 3-12.4 10.2-11.9 18.5-.2 90.7-2.5 112.6-6.9 66.9-34.1 123.6-15.4 190 7.8 27.6 16.5 38.3 25.1 38.3 8.9 0 17.6-11.7 24.6-27.7 10.9-46.2 16.7-94.4 17.1-143.6-1.3-44.7-6.3-89.4-14.8-132.8-3.9-19.7-10.7-47-21.7-47" style="fill:#d78725;fill-opacity:1;fill-rule:nonzero;stroke:none" transform="matrix(.01796 0 0 -.01796 -102.926 231.556)"/><path d="M12429.3 4392.4c-.4 49.2-6.2 97.4-17.1 143.6 8.5-19.1 14.5-44.4 15.7-63.5 1.7-26.5 2.2-53.3 1.4-80.1" style="fill:#353224;fill-opacity:1;fill-rule:nonzero;stroke:none" transform="matrix(.01796 0 0 -.01796 -102.926 231.556)"/><path d="M12116.4 4875.1c15.9-2.9 20.4 22.7 4.5 25.6-15.9 2.8-20.4-22.8-4.5-25.6m143-89.9c15.9-2.8 20.4 22.8 4.5 25.7-15.9 2.8-20.4-22.8-4.5-25.7m-41.6 41.1c15.9-2.8 20.4 22.8 4.4 25.7-15.9 2.8-20.4-22.8-4.4-25.7" style="fill:#cc9c18;fill-opacity:1;fill-rule:nonzero;stroke:none" transform="matrix(.01796 0 0 -.01796 -102.926 231.556)"/><path d="M12393.6 4379c15.9-2.9 20.4 22.7 4.5 25.6-15.9 2.8-20.4-22.8-4.5-25.6m6.3-92.9c15.9-2.9 20.4 22.7 4.4 25.6-15.9 2.9-20.4-22.8-4.4-25.6" style="fill:#efd83e;fill-opacity:1;fill-rule:nonzero;stroke:none" transform="matrix(.01796 0 0 -.01796 -102.926 231.556)"/><path d="M12341.1 4213.3c15.9-2.8 20.4 22.8 4.5 25.7-15.9 2.8-20.4-22.8-4.5-25.7m44.9-50.2c16-2.8 20.5 22.8 4.5 25.6-15.9 2.9-20.4-22.7-4.5-25.6m-29.1-81.9c15.9-2.9 20.4 22.7 4.5 25.6-15.9 2.8-20.4-22.8-4.5-25.6m-47.2-75.1c15.9-2.8 20.4 22.8 4.4 25.6-15.9 2.9-20.4-22.7-4.4-25.6m-28 83.3c15.9-2.8 20.4 22.8 4.5 25.6-16 2.9-20.5-22.7-4.5-25.6m-99.4-197.5c15.9-2.9 20.4 22.8 4.4 25.6-15.9 2.9-20.4-22.8-4.4-25.6m60.6 43c15.9-2.9 20.4 22.7 4.5 25.6-15.9 2.8-20.4-22.8-4.5-25.6" style="fill:#cc9c18;fill-opacity:1;fill-rule:nonzero;stroke:none" transform="matrix(.01796 0 0 -.01796 -102.926 231.556)"/><path d="M12396 4442.8c16-2.8 20.5 22.8 4.5 25.7-15.9 2.8-20.4-22.8-4.5-25.7m-2 63.9c16-2.9 20.5 22.7 4.5 25.6-15.9 2.8-20.4-22.8-4.5-25.6" style="fill:#efd83e;fill-opacity:1;fill-rule:nonzero;stroke:none" transform="matrix(.01796 0 0 -.01796 -102.926 231.556)"/><path d="M12363.4 4604.3c15.9-2.9 20.4 22.7 4.4 25.6-15.9 2.8-20.4-22.8-4.4-25.6m-18-301.7c16-2.8 20.5 22.8 4.5 25.6-15.9 2.9-20.4-22.7-4.5-25.6m-21.1 403.1c15.9-2.8 20.4 22.8 4.4 25.7-15.9 2.8-20.4-22.8-4.4-25.7m-112 69c15.9-2.8 20.4 22.8 4.5 25.6-16 2.9-20.5-22.7-4.5-25.6m72.7-43.6c15.9-2.8 20.4 22.8 4.5 25.6-16 2.9-20.4-22.7-4.5-25.6m-157.4-847.8c15.9-2.8 20.4 22.8 4.5 25.6-15.9 2.9-20.4-22.7-4.5-25.6m59.8 65.2c15.9-2.9 20.4 22.7 4.5 25.6-15.9 2.8-20.4-22.8-4.5-25.6m-106.3-121c15.9-2.8 20.4 22.8 4.5 25.7-16 2.8-20.5-22.8-4.5-25.7m-58.6-18.6c15.9-2.8 20.4 22.8 4.5 25.6-15.9 2.9-20.4-22.7-4.5-25.6m225.5 209.5c16-2.9 20.4 22.7 4.5 25.6-15.9 2.8-20.4-22.8-4.5-25.6m86.2 108.1c15.9-2.9 20.4 22.8 4.5 25.6-16 2.9-20.5-22.8-4.5-25.6m13.5 429.4c16-2.8 20.5 22.8 4.5 25.7-15.9 2.8-20.4-22.8-4.5-25.7m-19.2 79.3c15.9-2.8 20.4 22.8 4.5 25.7-15.9 2.8-20.4-22.8-4.5-25.7" style="fill:#cc9c18;fill-opacity:1;fill-rule:nonzero;stroke:none" transform="matrix(.01796 0 0 -.01796 -102.926 231.556)"/><path d="M11945.2 4996.7c52.9-15.1 103.3-39.1 148.9-71.8 137.4-98.7 227.1-274.2 234.9-459.7 6.9-164.9-53.5-324-150.8-449.9-72.8-94.4-166.5-180.5-271.9-224-35.7-14.7-72.6-24.6-110.6-28.2-16.7-1.6-33.5-2.3-50.2-2-108.1 1.9-214.3 42.6-299.5 113.6-128.5 107.1-207.4 283.4-210.9 465.9-3.6 182.4 67.4 367.6 187.6 495.9 56.3 60.2 123 108.3 195.2 139.3 94.9 40.6 199 49.6 296.8 28.5 10.2-2.2 20.4-4.8 30.5-7.6" style="fill:#fcf8cf;fill-opacity:1;fill-rule:nonzero;stroke:none" transform="matrix(.01796 0 0 -.01796 -102.926 231.556)"/><path d="M11810.5 4994.9c-63 0-125.5-12.8-184.5-38.1-68.2-29.2-133.3-75.7-188.3-134.3-117.5-125.4-185.5-305.4-182.1-481.5 3.5-178.8 79.6-347.2 203.5-450.5 82.1-68.4 183.9-107.1 286.8-108.8 16-.3 32.2.3 47.8 1.8 34.5 3.4 69.8 12.4 104.8 26.8 115.8 47.9 207.2 144.7 263.4 217.5 100.8 130.5 152.9 285.5 146.5 436.5-7.5 179-94.2 349.1-226.3 443.9-43.1 30.9-91 54-142.5 68.7-9.5 2.7-19.4 5.2-29.3 7.3-33.1 7.1-66.5 10.7-99.8 10.7m-56.9-1254.4c-2.8 0-5.6 0-8.4.1-112.2 1.9-223.1 43.9-312.4 118.3-133 110.8-214.6 290.7-218.3 481.2-3.7 186.6 68.6 377.5 193.2 510.5 58.8 62.8 128.7 112.6 202.1 144.1 98 41.9 204.9 52.2 309.2 29.7 10.8-2.3 21.5-5 31.8-8 56.1-15.9 108.3-41.1 155.3-74.8 142.1-102 235.4-284.2 243.4-475.5 6.8-160.7-48.3-325.3-155-463.4-59.3-76.8-156.1-179.1-280.3-230.4-38.8-16-78-26-116.5-29.7-14.5-1.4-29.3-2.1-44.1-2.1" style="fill:#231f20;fill-opacity:1;fill-rule:nonzero;stroke:none" transform="matrix(.01796 0 0 -.01796 -102.926 231.556)"/><path d="M11788 4638.3c2.1 15.8 4.4 31.6 7.1 47.4 7.4 43.4 12.7 88.3 28.6 130 6.7 17.6 17.2 34.1 31.9 43.8 52 34.7 125.2-12.4 171-39.6 28.5-17.1 57.3-34.7 80.9-59.4 26.9-27.9 34.9-62.1 13.5-98.8-11.5-19.6-27.8-36.1-43.6-51.1-32-30.2-68.4-53.3-103.8-76.4-24.7-16.1-49.1-32.3-71.7-51-16.9-13.9-33-28.9-49.9-42.6-13.8-11.2-40.1-43.8-59.8-33.4-18.3 9.6-13.8 49.4-14 67.1-.2 26.7.4 53.6 2 80.5 1.6 27.8 4.2 55.7 7.8 83.5" style="fill:#c89519;fill-opacity:1;fill-rule:nonzero;stroke:none" transform="matrix(.01796 0 0 -.01796 -102.926 231.556)"/><path d="M11808.4 4635.7c-3.5-27.3-6.1-54.9-7.7-82.1-1.5-26.2-2.2-52.8-1.9-79.1 0-3-.1-6.7-.2-10.7-.2-7.8-.8-30.9 3.1-37.8 6.8 1.9 20.7 15.2 26.2 20.4 4.2 4 8 7.6 11.2 10.2 8.8 7.2 17.4 14.7 26.1 22.2 7.8 6.9 15.6 13.7 23.6 20.3 22.8 18.9 46.8 34.9 73.5 52.3l7 4.6c32.1 20.9 65.4 42.5 93.9 69.6 13.9 13.1 29.5 28.5 40 46.5 15.5 26.4 12 50.7-10.5 74.2-21.3 22.1-47.3 38.4-76.7 55.9l-6.9 4.1c-41.1 24.6-103.4 61.9-142.1 36.1-9.6-6.4-18.1-18.4-24.1-34.1-12.3-32.4-18.1-68.3-23.7-103.1-1.3-7.7-2.5-15.3-3.8-23-2.5-15-4.9-30.6-7-46.5m-5.9-210.8h.1zm-2.2-40.4c-5.8 0-11.7 1.3-17.7 4.5-26.7 14-25.7 51.3-25.1 75.9.1 3.4.2 6.6.2 9.2-.3 27.2.4 54.8 1.9 81.9 1.7 28.2 4.4 56.8 8 85 2.2 16.4 4.6 32.6 7.2 48.1 1.3 7.6 2.5 15.1 3.8 22.7 5.9 36.8 12 74.9 25.9 111.2 9.1 23.9 22.9 42.5 39.7 53.6 60.3 40.3 136-5 186.1-35l6.8-4.1c31.9-19 60.4-36.9 85.2-62.7 35.1-36.5 41-81.5 16.4-123.5-12.6-21.5-30.1-39.5-47.2-55.6-31.3-29.6-66.1-52.3-99.8-74.2l-6.9-4.5c-25.6-16.8-48.6-32.1-69.8-49.6-7.7-6.4-15.3-13-22.8-19.5-9-7.9-18-15.8-27.2-23.3-2.5-2-5.5-4.8-8.7-7.9-13.4-12.7-33.8-32.2-56-32.2" style="fill:#231f20;fill-opacity:1;fill-rule:nonzero;stroke:none" transform="matrix(.01796 0 0 -.01796 -102.926 231.556)"/><path d="M11739 4572.7c-.7 11.7-.5 23.5.8 35.3 5.9 53.1 15.6 107.8 20.5 160.4 2.2 24 4.4 48.5-.2 71.7-4.6 23.3-17.3 45.5-37.1 53.9-22.9 9.6-48.7-.9-72-11.2-29.9-13.4-59.9-26.8-88.5-43.5-22.1-12.9-43.3-27.8-63.5-44.4-18-14.9-36.8-35.6-34.8-60 1.5-16.9 12.8-30.1 23.5-41.9 56.6-62 174.1-200.2 229.6-262.6 10.7-12.2 29.6-2.6 29.3 14.8z" style="fill:#c89519;fill-opacity:1;fill-rule:nonzero;stroke:none" transform="matrix(.01796 0 0 -.01796 -102.926 231.556)"/><path d="M11703.2 4877.2c-12.8 0-28-6.2-43.8-13.2-29-13-58.9-26.3-86.6-42.5-21-12.3-41.4-26.6-60.7-42.5-19.2-15.8-28.4-30.1-27.4-42.3.9-10 8.8-19.4 18.2-29.8 33.3-36.5 86.3-97.7 137.5-157 32.1-37.1 62.6-72.3 85.1-97.8l-7 119.3c-.8 13.2-.5 26.2.9 38.8 2.6 23.8 6 48.2 9.4 71.7 4.1 29.3 8.3 59.5 11 88.4 2 22.2 4.2 45.2.1 65.8-3.7 18.9-13.5 34.1-24.9 38.9-3.6 1.6-7.6 2.2-11.8 2.2m25.7-472.8c-10.1 0-19.9 4.3-27 12.3-23.1 26-56.9 65-92.6 106.3-51.1 59-103.9 120.1-136.8 156.2-10.6 11.7-26.6 29.3-28.7 54-2.3 26.9 11.5 52.2 42.1 77.5 21 17.3 43.2 32.9 66.2 46.3 29.6 17.3 60.5 31.1 90.4 44.5 22.5 10 56.2 25.1 88.5 11.4 24.3-10.2 42.7-35.9 49.2-68.8 5.3-26.4 2.8-53.6.6-77.6-2.8-29.8-7.1-60.6-11.3-90.3-3.3-23.3-6.7-47.3-9.2-70.5-1.2-10.3-1.4-21-.8-31.8l7.6-127.5c.4-18-9.7-33.5-25.1-39.5-4.3-1.7-8.7-2.5-13.1-2.5" style="fill:#231f20;fill-opacity:1;fill-rule:nonzero;stroke:none" transform="matrix(.01796 0 0 -.01796 -102.926 231.556)"/><path d="M12222.8 4354.5c.2 6.5.2 13 .2 19.6 0 27.4-1.1 55.1-3.3 83.3-1.2 15.3-2.8 30.9-7.1 45.8-4.1 14.1-11.4 30.3-22.4 38.9-10.3 8-22.9 11.8-35 11.8-17.8-.1-34.7-7-51.2-14.7-28.2-13.1-55.9-28.4-83.9-43.9-59-32.7-119.2-66-180.7-100.1-12.3-6.8-26.2-16.7-24.3-31.7 1.4-11 11.1-19.4 20.1-26.1 88-64.6 189.9-79.4 280.3-91.3 21.3-2.8 43.2-5.4 63 2.6 19.6 8 33.9 27 40.4 48.8 3.4 11.2 2.8 24.4 3.3 36.3.3 6.9.5 13.7.6 20.7" style="fill:#c89519;fill-opacity:1;fill-rule:nonzero;stroke:none" transform="matrix(.01796 0 0 -.01796 -102.926 231.556)"/><path d="M12155.3 4533.3h-.1c-14.1 0-28.7-6.3-42.5-12.7-27.6-12.8-54.2-27.6-82.4-43.2l-180.9-100.2c-12.9-7.1-13.9-10.8-13.9-11 .1-1 1.3-4.4 11.9-12.2 85.9-63.1 188.4-76.6 270.8-87.5 18.3-2.4 37.3-4.9 52.5 1.3 12.7 5.1 23.3 18.5 28.5 35.6 1.8 6.2 2 14.8 2.2 23.1.1 2.8.1 5.5.3 8.2l.6 20.1v.1c.1 6.4.2 12.7.1 19.2.1 27-1 54.4-3.2 81.7-1.1 13.7-2.5 28.3-6.4 41.7-3.8 13.1-9.6 24-15.2 28.4-6.1 4.8-14.1 7.4-22.3 7.4m-7.8-310.5c-12.3 0-24.1 1.5-34.7 2.9-87 11.5-195.4 25.8-289.8 95.1-11.9 8.8-25.9 21.3-28.3 40.1-2.6 20.4 9.1 38 34.7 52.3l180.8 100.1c27.7 15.3 56.3 31.1 85.2 44.6 17.1 8 37 16.1 59.9 16.5 17.4 0 34.3-5.7 47.6-16.1 16.2-12.7 24.9-33.9 29.4-49.4 5-17.1 6.7-34.7 7.9-49.9 2.2-28.3 3.4-56.9 3.4-84.9 0-6.7-.1-13.4-.2-20-.1-7.1-.3-14.2-.6-21.2-.1-2.4-.2-4.8-.3-7.3-.2-10.6-.5-22.5-3.9-34-8.8-29.4-27.9-52-52.4-62-12.8-5.2-26-6.8-38.7-6.8" style="fill:#231f20;fill-opacity:1;fill-rule:nonzero;stroke:none" transform="matrix(.01796 0 0 -.01796 -102.926 231.556)"/><path d="m11446.8 4661.8 248.6-262.7c3.6-3.9 5.6-9.4 5-15.1-1.3-12.1-13.1-14.8-22.7-15.6-58.6-5.1-117.3-10.2-176-15.3-40.5-3.5-94.4-25-130-4.8-51.3 29.3-46.4 118.8-33.1 183.1 9.8 47.7 49.9 105.9 78 131.2 9.1 8.2 22 7.8 30.2-.8" style="fill:#c89519;fill-opacity:1;fill-rule:nonzero;stroke:none" transform="matrix(.01796 0 0 -.01796 -102.926 231.556)"/><path d="m11431.4 4648-1.1-.7c-24.1-21.7-62.4-75.5-71.6-120-6.4-31.1-23.6-134.4 23.2-161.1 18.7-10.7 49-4.7 78.4 1 13.2 2.6 26.9 5.3 39.7 6.4l10.3.9c55.2 4.8 110.4 9.6 165.7 14.4h.7l-244.9 258.8v-.1zm-22-328.8c-16.8 0-33.1 2.9-47.9 11.3-66.5 37.9-55.5 144.8-43.1 205.1 10.4 50.3 51.9 113 84.4 142.3 17.6 15.8 42.9 15 58.9-2l248.6-262.7c8-8.4 11.8-19.9 10.6-31.4-1.3-11.4-8.3-31-41.4-33.9l-165.6-14.4-10.4-.9c-10.5-.9-22.6-3.2-35.3-5.7-18.9-3.7-39.1-7.7-58.8-7.7" style="fill:#231f20;fill-opacity:1;fill-rule:nonzero;stroke:none" transform="matrix(.01796 0 0 -.01796 -102.926 231.556)"/><path d="M12055.9 4132.7c-20 15.8-40.9 30-61.2 45.4-27.3 20.9-54.8 41.6-82.1 62.4-1.9 1.5-3.8 2.9-5.7 4.4-22.5 17.2-45 34.3-67.5 51.4-12.4 9.5-25 19-38.2 27-10.8 6.6-22-6.1-16.3-18.2 39.8-83.8 66.4-174.6 84.2-266.4 3.7-19.5 7.3-39.4 16.2-57.1 5.9-11.9 14.5-22.6 25.3-28.6 10.1-5.6 21.6-7 32.5-5.3 10.9 1.6 21.1 6.1 30.7 11.7 23 13.2 42.6 32.3 61.8 51.4 11.3 11.2 22.2 22.9 32.6 35.1 10.5 12.4 24.4 29.8 20.6 48.6-3.6 17.6-20.7 28.5-32.9 38.2" style="fill:#c89519;fill-opacity:1;fill-rule:nonzero;stroke:none" transform="matrix(.01796 0 0 -.01796 -102.926 231.556)"/><path d="M11790.5 4305.7h.1zm24.3-16.6c31.8-72.7 56.9-155.5 74.4-246.5l.6-2.8c3.4-17.8 6.7-34.7 13.9-49 4.6-9.3 10.6-16.3 17-19.9 6.8-3.7 14.3-3.6 19.3-2.9 7 1.1 14.7 4.1 23.6 9.2 19.9 11.4 37.1 27.9 57.5 48.2 11.3 11.3 21.9 22.7 31.5 33.9 5.8 6.9 18 21.1 16 31.1-1.6 7.8-11.6 15.5-20.4 22.3l-5.1 3.9c-11.1 8.8-23 17.4-34.4 25.7-8.8 6.4-17.7 12.8-26.4 19.5l-155.4 118.2c-4 3-8 6-12.1 9.1m119.6-362.6c-12 0-23.5 2.8-33.7 8.5-13.7 7.6-25.4 20.6-33.8 37.4-9.7 19.4-13.7 39.8-17.5 59.6l-.5 2.8c-19 98.1-46.8 186.1-82.5 261.4-6.9 14.4-3.7 31 7.7 41.3 10.7 9.6 25.5 10.9 37.9 3.3 14.1-8.6 27.8-18.9 39.8-28.1l155.4-118.2c8.5-6.5 17.1-12.7 25.7-18.9 11.7-8.6 23.9-17.4 35.7-26.8l4.5-3.4c13.2-10.1 31.2-23.9 35.8-46.9 6-29.6-15-54.1-25-65.9-10.3-12.1-21.6-24.3-33.7-36.4-17.8-17.7-39.9-39.6-66.1-54.7-13.4-7.7-25.8-12.3-37.9-14.2-4-.6-7.9-.8-11.8-.8" style="fill:#231f20;fill-opacity:1;fill-rule:nonzero;stroke:none" transform="matrix(.01796 0 0 -.01796 -102.926 231.556)"/><path d="M11854 3939.2c-3.3 11.2-7.3 22-9.8 31.1-17 62.9-30.7 126.5-45 190.2-9.9 51.7-18.6 104.2-35.1 153.3-3.3 9.8-15.7 9.3-19-.7-28.8-85.9-55.8-172.4-85.2-258-11.2-33-23.2-65.7-32-99.5-3.5-13.6-6.5-27.8-4.6-41.5 3.2-22.9 19.8-40.8 38.9-49.3 25.5-11.5 54.9-9.7 82.2-9.1 20.9.5 41.8 1.9 62.5 6 16.2 3.2 41.3 6.6 49.5 25.8 6.5 15.3 2.8 34.1-2.4 51.7" style="fill:#c89519;fill-opacity:1;fill-rule:nonzero;stroke:none" transform="matrix(.01796 0 0 -.01796 -102.926 231.556)"/><path d="M11754.2 4275.3c-8.8-26.6-17.5-53.3-26.2-79.9-15.6-48.3-31.9-98.2-48.6-147l-6.4-18.6c-9-25.9-18.3-52.7-25.2-79.4-2.8-10.7-5.6-23-4.1-33.5 2.3-16.7 15.4-28.2 26.9-33.4 19.3-8.6 43.4-8 66.8-7.4l6.5.2c24 .5 42.2 2.3 59 5.6l4 .8c11.5 2.2 27.3 5.2 30.5 12.9 4.3 9.9.3 26.3-3.1 37.7-1.5 4.9-3 9.7-4.5 14.2-2.1 6.2-4 12.1-5.4 17.4-14.5 53.5-26.8 108.3-38.6 161.3l-6.7 29.8-4.2 22.3c-6.1 32.2-12.3 65.3-20.7 97m-35.1-440.6c-21.5 0-44.1 1.8-65.3 11.3-27.5 12.4-47 37.4-50.9 65.3-2.4 17.1 1 33.9 5.1 49.4 7.3 28.3 16.9 55.9 26.1 82.6l6.4 18.4c16.6 48.6 32.8 98.3 48.4 146.4 12.1 37.3 24.2 74.5 36.7 111.6 4.3 13 16.1 21.7 29.3 21.7 13.1 0 24.4-8.2 28.7-21.1 14.6-43.6 23.3-89.7 31.7-134.4l4.1-21.5 6.5-29.2c11.8-52.6 23.9-106.9 38.2-159.5 1.3-4.8 3-9.9 4.7-15.3 1.7-5 3.4-10.1 4.9-15.4 5.7-19 10.9-43.6 1.6-65.5-11.9-27.9-42.4-33.8-60.7-37.2l-3.7-.7c-19-3.8-40-5.8-66.1-6.4l-6.3-.2c-6.3-.2-12.8-.3-19.4-.3" style="fill:#231f20;fill-opacity:1;fill-rule:nonzero;stroke:none" transform="matrix(.01796 0 0 -.01796 -102.926 231.556)"/><path d="M11717.7 4310.8c3.7 13.4-5.7 26.3-18.1 24.5-27.9-4-71-13.7-90.4-18.1-52.8-11.9-105.6-23.8-158.4-35.8-26.5-6-13.2-6-32.5-28.3-21.8-25.3-25.6-64.4-17.4-96.3 8.2-32 26.5-58.6 44.5-84.4 21-30.3.5-67.8 21.5-98.2 13.7-19.6 32.1-41.3 54.9-35.6 18.4 4.5 30.5 25.3 40.1 44 34 65.8 148.7 303.2 155.8 328.2" style="fill:#c89519;fill-opacity:1;fill-rule:nonzero;stroke:none" transform="matrix(.01796 0 0 -.01796 -102.926 231.556)"/><path d="M11717.7 4310.8h.1zm-270.1-51.3c-2.2-4.2-5.8-10.7-13.7-19.9-15.5-17.9-20.6-48.4-13.1-77.7 7.4-28.8 24.7-53.7 41.5-77.7 14.1-20.5 14.3-41.8 14.4-60.7.1-17.1.6-28.1 7.1-37.5 14.1-20.2 25.3-29.5 33-27.5 11 2.7 21.7 23.6 26.8 33.6 36.3 70.1 142.2 290.2 153.5 322-28.5-4.5-69.4-13.7-83.3-16.9l-158.4-35.8c-3.9-.9-6.3-1.5-7.8-1.9m66.7-342.5c-32.7 0-55.2 32.4-64.3 45.5-14.1 20.4-14.3 41.8-14.4 60.7-.1 17.1-.6 28-7.1 37.5-18 25.8-38.3 55-47.5 91-8.6 33.3-7.4 80.9 21.7 114.8 5.5 6.3 7.3 9.8 9 13 7.7 14.6 16 17.8 34.6 22l158.4 35.8c15.3 3.5 61.8 14 92 18.4 12.2 1.7 24.3-2.8 32.5-12.2 9-10.3 12.1-24.6 8.3-38.3-8.3-29.2-128.5-276.2-157.3-332-8.5-16.5-24.4-47.4-53.5-54.6-4.3-1.1-8.4-1.6-12.4-1.6" style="fill:#231f20;fill-opacity:1;fill-rule:nonzero;stroke:none" transform="matrix(.01796 0 0 -.01796 -102.926 231.556)"/><path d="M11288.1 3704.4s-201.3-63.2-295.6 28.9-108.2 280.6-100.8 349.3c7.5 68.7 66.8 221.9 159.3 276.7 0 0-53.3 109.1-190.4 59-190.2-69.5-257.1-370.2-95.5-595.5 161.7-225.3 328.8-247.3 328.8-247.3z" style="fill:#fff;fill-opacity:1;fill-rule:nonzero;stroke:none" transform="matrix(.01796 0 0 -.01796 -102.926 231.556)"/><path d="M10928.4 4410.7c-17.7 0-37.8-3.4-60.7-11.7-71.9-26.3-128.7-91.7-155.8-179.4-38.8-125.9-12.6-269.7 69.9-384.8 135.3-188.6 275.1-230.1 307.8-237.5l101.8 67.5c-69-6.6-156.9-1.2-213.3 53.8-99.2 96.9-114.9 292-106.8 366.2 7.1 65.2 59.8 212.5 151.4 280.4-14 17.9-43.9 45.5-94.3 45.5m170.5-856.6-7.7 1c-7.1 1-177.8 25.8-342.8 255.7-90 125.5-118.4 282.8-75.8 420.9 30.9 100.1 96.9 175.2 181 205.9 152.7 55.8 215.3-68 215.9-69.2l8.4-17.1-16.4-9.7c-84.9-50.2-142.3-196.8-149.3-261.2-8.2-75.7 11.1-250.8 94.7-332.4 84.5-82.5 273.2-24.6 275.1-24l138.4 43.5z" style="fill:#231f20;fill-opacity:1;fill-rule:nonzero;stroke:none" transform="matrix(.01796 0 0 -.01796 -102.926 231.556)"/><path d="M10749.6 3881.9c79.2-144.4 259.9-243.2 259.9-243.2l-122.6-4.8s-179.9 166.6-232.7 247.9c-3.2 4.8-6 10.8-8.6 17.5 27.7-.9 99.8-9.6 104-17.4" style="fill:#e7e2b9;fill-opacity:1;fill-rule:nonzero;stroke:none" transform="matrix(.01796 0 0 -.01796 -102.926 231.556)"/><path d="M10731.6 3872.1v-.1zm-47.8 3.3c55.1-73.3 181.4-193 210.8-220.6l47.5 1.8c-60.5 41.3-153.8 115.5-207.6 210.2-8.9 2.7-29.7 6.1-50.7 8.6m195.4-262.4-6.3 5.8c-7.4 6.9-182.4 169.3-236 251.8-3.7 5.7-7.1 12.6-10.5 21.2l-11.4 29.2 31.3-1.1c11.1-.4 108.4-4.4 121.4-28.1 75.2-137.3 249.9-234.1 251.7-235.1l65.1-35.7z" style="fill:#231f20;fill-opacity:1;fill-rule:nonzero;stroke:none" transform="matrix(.01796 0 0 -.01796 -102.926 231.556)"/><path d="M11342.7 4251.1c-4.9-1.3-7.3-6.9-4.7-11.2 31.2-52 181.2-329.3-58.1-491-264.8-179.1-491.3-48.3-605 116.3l-35.2 36 9.1-35.7s7.8-136.3 131.4-242.4c123.6-106.2 241-160.3 442.2-109.4 155.1 39.2 390.9 181.6 440.8 456.4 27.6 152.1-103.5 336.2-131.9 373.8-2.7 3.6-8.1 3.9-11.3.6-57.8-59.3-98.5-72.5-177.3-93.4" style="fill:#cd681c;fill-opacity:1;fill-rule:nonzero;stroke:none" transform="matrix(.01796 0 0 -.01796 -102.926 231.556)"/><path d="M10676.1 3828.7c11.3-45.6 40.9-124.3 117.5-190 117.8-101.3 229.7-154.2 423.7-105.1 134.6 34 375.6 165 425.6 440.1 23.9 131.6-80.8 292.4-119 345.6-52.4-50.4-94-65.8-159.7-83.7 44.9-81.1 163.8-343.9-72.8-503.8-263-177.8-490.9-63.6-615.3 96.9m406.2-354.7c-129.1 0-222.8 53.8-315.5 133.5-121.7 104.5-136.8 235.6-138.3 254.7l-27.9 108.2 91.2-93.5c108.8-157.5 325.1-281 576.6-111 223.4 151 82.5 412.5 52 463.4-4.6 7.6-5.3 16.7-2 24.9s10.4 14.5 19 16.8c76.9 20.4 113.2 31.8 167.9 87.9 5.7 5.9 13.7 8.9 21.9 8.4 8.1-.5 15.6-4.5 20.6-11 27.8-36.9 164.9-228.9 135.6-389.9-53.7-295.7-311.9-436.2-456-472.7-53.4-13.5-101.3-19.7-145.1-19.7" style="fill:#231f20;fill-opacity:1;fill-rule:nonzero;stroke:none" transform="matrix(.01796 0 0 -.01796 -102.926 231.556)"/><path d="M11391.7 3780.1c-16.7 7.9-29-18.1-12.2-26 16.7-7.9 29 18.1 12.2 26m-602.5 116.4c-16.7 7.9-29-18.1-12.2-26 16.7-7.9 29 18.1 12.2 26m734.8 365.1c-16.8 7.9-29-18.1-12.3-26s29 18.1 12.3 26m-87.6-553.3c-16.7 7.9-29-18.1-12.2-26 16.7-7.9 29 18.1 12.2 26m48.5 60.5c-16.7 7.9-29-18-12.3-25.9 16.8-7.9 29 18.1 12.3 25.9m-287.3-143.5c-16.7 7.9-29-18.1-12.3-26 16.8-7.9 29 18.1 12.3 26m-230.4-13.5c-16.7 7.9-28.9-18.1-12.2-25.9 16.7-7.9 29 18.1 12.2 25.9m-111.4 58.6c-16.7 7.9-29-18.1-12.3-26 16.8-7.9 29 18.1 12.3 26m716.6 219.8c-16.7 7.9-29-18.1-12.2-26 16.7-7.8 29 18.1 12.2 26m-67.6 56.5c-16.7 7.9-29-18-12.2-25.9 16.7-7.9 29 18.1 12.2 25.9m71.5 46.8c-16.8 7.8-29-18.1-12.3-26s29 18.1 12.3 26m27 165.3c-16.7 7.9-29-18.1-12.2-26 16.7-7.8 29 18.1 12.2 26m30.9-67c-16.8 7.8-29-18.1-12.3-26s29 18.1 12.3 26m-139.2-229.6c-16.7 7.9-29-18.1-12.3-26 16.8-7.9 29 18.1 12.3 26m37.1 191.6c-16.7 7.9-29-18.1-12.2-26 16.7-7.9 29 18.1 12.2 26m-39.6 84.9c-16.8 7.9-29-18-12.3-25.9s29 18 12.3 25.9m-55.6 86c-16.7 7.9-29-18.1-12.3-26s29 18.1 12.3 26m96.4-30.5c-16.7 7.9-29-18.1-12.3-26 16.8-7.8 29 18.1 12.3 26m-253.5-603.7c-16.7 7.8-29-18.1-12.2-26 16.7-7.9 29 18.1 12.2 26m54.9 88.6c-16.8 7.9-29-18.1-12.3-26 16.7-7.8 29 18.1 12.3 26m-235.1-114c-16.7 7.9-29-18.1-12.2-26 16.7-7.9 29 18.1 12.2 26" style="fill:#cc9c18;fill-opacity:1;fill-rule:nonzero;stroke:none" transform="matrix(.01796 0 0 -.01796 -102.926 231.556)"/><path d="m10647.7 3876.9 304 26.2 168.4 186.2 9.1 389-238.8 50.2-134.5-80.9-64.9-81.2s-35.3-65.4-45.1-142.8c-9.9-77.5 5.7-167 .7-174.9-10-15.8 72.1-61.1 72.1-61.1s-15.5 191.2 3.9 271.1c19.3 79.9 83.4 158.1 211.8 151.3 97-5.2 100.1-111.9 92.6-162.6-11.5-78.5-38.5-132.2-113.9-195.3-98.9-82.9-153.6-88.8-217.1-73.9-64.2 15-168.2 96.8-205.8 206.1-2.3 6.6-11 8.7-15.3 3.2-15.1-19.5-4.1-101.1-4.1-101.1l65.5-117.6z" style="fill:#e7e2b9;fill-opacity:1;fill-rule:nonzero;stroke:none" transform="matrix(.01796 0 0 -.01796 -102.926 231.556)"/><path d="M10739 3992.4c39.4-1.7 85.8 12.6 160.9 75.4 67.3 56.4 95.2 104.1 106.8 182.6 5.4 36.8 2.9 86.1-20.4 114.6-12.5 15.2-29.8 23.2-53 24.4-141.1 7.6-180.2-92.3-190.7-135.5-17.1-70.4-5.5-236.7-3.6-261.5m-186.7-10.2 102-84.1 287.6 24.8 157.8 174.6 8.5 364.2-214.1 45-124.4-74.8-61.4-76.8c-5.1-10-33.6-67.9-42-134.1-5.9-46.3-2.3-98.1.2-132.3 1.5-21.7 2.3-33.3 1.1-41.2 4.7-5.1 15.1-13.1 28-21.7-3.5 61.3-7.5 177.7 7 237.7 10.1 41.6 56.6 176.3 232.9 167 34.9-1.9 62.7-15.1 82.6-39.4 40-48.9 32.5-124.6 29.3-146.7-13.1-88.8-45.9-145.2-121.1-208.1-76.6-64.2-129.9-85.1-180.7-85.1h-3.4c-16.9.3-33.6 2.9-50.9 7-66.7 15.6-156.7 86.3-203.8 179.8.2-13.6 1.2-29.5 3.2-45.1zm88.8-126.6-120.9 99.8-69.3 124.4-.5 3.8c-3.7 27.1-10.1 92.7 8.2 116.5 6.5 8.3 17.1 12.4 27.6 10.7 10.9-1.8 19.8-9.3 23.4-19.8 22.5-65.5 70.7-119.9 117.1-154.5l-.6 2.1c-1.5 5.8-1.2 11.6.9 16.8.2 5.3-.7 18.5-1.6 30.4-2.5 35.9-6.3 90 .1 140.4 10.2 80.3 45.9 147.2 47.4 150l2.1 3 67.2 84.1 144.5 87 263.4-55.4-9.6-413.7-179-197.9z" style="fill:#231f20;fill-opacity:1;fill-rule:nonzero;stroke:none" transform="matrix(.01796 0 0 -.01796 -102.926 231.556)"/><path d="M10625.4 3993c49.2-30.1 125.5-21.4 149.2-17.7 2.3.4 2.7 3.5.6 4.5-73.9 34.7-143 59.9-171.5 229-.3 1.4-1.8 2.3-3.2 1.7-32.7-14.1-69.5-16.5-109.2-16.6-1.6 0-2.8-1.6-2.3-3.1 28.8-80.2 96.7-173.5 136.4-197.8" style="fill:#fff;fill-opacity:1;fill-rule:nonzero;stroke:none" transform="matrix(.01796 0 0 -.01796 -102.926 231.556)"/><path d="M10636.1 4010.5c19.7-11.9 45-16.8 68.7-18.2-49.4 29.8-94.1 77.3-117.4 191.7-22.5-6.6-46.1-9.2-69.5-10.2 31.1-70.8 86.7-143.9 118.2-163.3m85.6-59.9c-34.3 0-75 5.2-107 24.9-47.1 28.7-116.2 128.1-145 208.3-2.5 7-1.5 14.8 2.8 20.9 4.2 6.1 11.2 9.8 18.7 9.8 40.2 0 72.7 2.6 101.1 14.9 6.5 2.8 13.8 2.5 20-.9s10.5-9.3 11.7-16.3c25.4-151.1 83.3-178 150.2-209.3l9.8-4.5c9.1-4.3 14.3-14 12.9-24-1.4-10.1-9.1-17.9-19.1-19.4-12.6-2-32.9-4.4-56.1-4.4" style="fill:#231f20;fill-opacity:1;fill-rule:nonzero;stroke:none" transform="matrix(.01796 0 0 -.01796 -102.926 231.556)"/><path d="M11032.2 3869.4c204.5 81.9 228.4 273.4 236.8 401.4 6.3 95.1-22.3 147.8-115.1 213.1-59.8 42.2-133.3 55.5-183 60.4-44.3 4.4-103.2 8.3-188.6-47.2-85.5-55.5-117-180.4-117-180.4 38.2 45.3 47.7 101.2 126.8 138.5 59.2 27.9 132.8 35.4 207.5 8.9 144.7-51.5 131.9-281.4 16.1-408.2-105.7-115.8-293.4-158.3-396.7-115.8-77.2 31.9-133.2 110.1-160.3 206.3-17.3-44.9 81.1-206.9 113.7-236.7 99.1-90.3 255.3-122.2 459.8-40.3" style="fill:#cd681c;fill-opacity:1;fill-rule:nonzero;stroke:none" transform="matrix(.01796 0 0 -.01796 -102.926 231.556)"/><path d="M11032.2 3869.4h.1zm-461.8 73.6c6-7.8 11.4-14 15.9-18.1 104.1-94.9 259.7-107.9 438.3-36.4 179.9 72.1 214.1 234.4 223.9 383.6 5.8 87.9-19.1 133.5-106.4 195-43.4 30.5-101.7 49.6-173.3 56.7-39.4 3.9-93.3 9.3-175.3-43.9-2.2-1.4-4.3-2.9-6.4-4.4 68.5 31.1 146.3 34 219.4 7.9 56-19.9 95.6-66 111.5-129.8 25-99.9-10.9-228.1-87.1-311.6-114.9-125.9-313.5-164.8-419.7-120.9q-21.3 8.85-40.8 21.9m240.2-141.3c-98.3 0-184.4 31.1-252 92.8-30.8 28.1-142.3 199.2-119.1 259.3l22.3 57.6 16.7-59.5c26.7-94.6 80.7-164.8 148.3-192.7 93.6-38.6 273.2.5 373.7 110.5 67.5 74 99.4 186.6 77.6 274-8.8 35.3-30.8 81.5-85.4 101-64.1 22.8-132.2 19.9-191.8-8.1-49.6-23.4-68.5-54.5-88.5-87.4-9.3-15.1-18.8-30.8-31.3-45.7l-57.5-68.2 21.8 86.4c1.3 5.5 34.5 133.5 125.6 192.7 94.2 61.1 161.6 54.4 201.9 50.4 78.8-7.8 143.6-29.4 192.9-64.1 98-69.1 130.4-129.6 123.8-231.3-7-106.3-21.5-327.6-249.8-419.1-81.2-32.5-158.4-48.6-229.2-48.6" style="fill:#231f20;fill-opacity:1;fill-rule:nonzero;stroke:none" transform="matrix(.01796 0 0 -.01796 -102.926 231.556)"/><path d="M11141.5 3991.5c-16.7 7.9-29-18.1-12.2-25.9 16.7-7.9 29 18.1 12.2 25.9m-122.5-3c-16.8 7.9-29-18.1-12.3-25.9 16.7-7.9 29 18.1 12.3 25.9m163.4 192.8c-16.8 7.8-29-18.1-12.3-26s29 18.1 12.3 26m-6.3 77c-16.7 7.9-29-18.1-12.2-26 16.7-7.9 29 18.1 12.2 26m41.6 81.9c-16.7 7.9-29-18.1-12.3-26 16.8-7.8 29 18.1 12.3 26m-50 49.9c-16.8 7.9-29-18.1-12.3-26s29 18.1 12.3 26m-77.6 68.3c-16.7 7.8-29-18.1-12.2-26 16.7-7.9 29 18.1 12.2 26m16.6-406.8c-16.7 7.9-29-18.1-12.2-26 16.7-7.8 29 18.1 12.2 26m50 46.4c-16.8 7.9-29-18.1-12.3-26 16.7-7.8 29 18.1 12.3 26m-171.2-168.6c-16.7 7.8-29-18.1-12.2-26 16.7-7.9 29 18.1 12.2 26m81 55.3c-16.7 7.8-29-18.1-12.2-26 16.7-7.9 29 18.1 12.2 26m-148.2-86.3c-16.7 7.9-29-18.1-12.3-26 16.8-7.8 29 18.1 12.3 26" style="fill:#cc9c18;fill-opacity:1;fill-rule:nonzero;stroke:none" transform="matrix(.01796 0 0 -.01796 -102.926 231.556)"/><path d="M10008.3 5733.8c-9.22 22.3-27.91 36.7-56.12 43.2-17.41 4-35.1 3.7-53.03-1l-12.82-3.1-14.58-68.2c-9.03-45.6-13.28-68.8-12.74-69.6l1.45-.9c3.83-.9 13.67-.4 29.49 1.4 15.83 1.9 30.14 4.3 42.91 7.2 12.78 2.9 24.71 7.4 35.83 13.5 11.1 6.1 19.6 12.3 25.46 18.6 4.49 5.2 8.85 14.5 12.95 27.8.4 1.4.9 3.2 1.6 5.5.7 2.2 1.1 3.6 1.3 4.3 1.7 7.7 1.2 14.8-1.7 21.3m-45.25-166.1c-11.38 7.7-25.56 13.5-42.58 17.5-19.1 4.4-39.04 5.8-59.84 4.4l-11.67-.6-17.02-76.4c-11.45-51.3-16.4-78.4-14.88-81.3s8.47-7.3 20.85-13c12.38-5.8 23.77-9.9 34.19-12.3 55.89-12.9 95.7 3.6 119.42 49.5 3.17 5.9 5.77 13.2 7.78 21.9 4 17.4 2.8 34.2-3.51 50.3-6.34 16.1-17.25 29.4-32.74 40m-21.82 255.8q9.735-.6 20.16-3c29.53-6.8 53.21-19.9 71.01-39.4 22-23.8 29.1-52.4 21.4-85.8-7.1-31-24.7-55.7-52.7-74.2l-18.54-11.7 17.64-14c19.2-15.4 32.9-34.9 41.2-58.4 8.3-23.6 9.8-47 4.4-70.3-1.5-6.3-3.3-12.1-5.7-17.4-11.7-28.9-28.7-51.6-50.76-68.1-22.11-16.5-47.56-25.4-76.35-26.4-12.62-.8-29.18 1.2-49.68 5.9-22.6 5.2-41.04 11.7-55.39 19.3-18.6 9.8-30.06 19.3-34.38 28.3-4.33 9.1-4.91 24.4-1.75 46.1 1.92 13.1 12.14 59.9 30.65 140.3l10.81 47 37.47 158.1 7.18 4.9c8.62 5.8 20.75 10.4 36.38 13.9 15.64 3.6 31.28 5.2 46.95 4.9m216.57-84.8c1.6 4.4 4.8 7.9 9.8 10.4 4.9 2.5 9.8 3.2 14.8 2.2 2.8-.5 5.8-2.1 9-4.5q9-7.8 4.2-31.5c-1-4.9-1.9-8.5-2.7-10.9-3.2-10.3-17.2-76-42.1-197.1-17.9-86.1-28.8-137.8-32.6-155-3.8-17.3-7.2-26.9-10.2-28.9-3.9-2.9-8.8-3.7-14.9-2.5q-10.65 2.1-15.6 10.2c-2.2 3.8-3.4 8.1-3.5 13-.1 5 .9 15.4 2.9 31.4 1.9 14.9 6.3 39.4 13.1 73.4 10.8 54.3 23.6 113.6 38.5 177.9 14.9 64.2 24.6 101.6 29.3 111.9m290.4-147.6c4.9 2.8 9.4 3.8 13.6 3.1s8.3-3.4 12.3-8c3.2-4.5 4.3-9.6 3.4-15.3-1.1-6.3-5.6-19.9-13.4-40.6-21.5-56.2-35.7-105.1-42.7-146.7q-7.95-46.5-4.5-84.6c.2-7.3.1-12.1-.3-14.6-2.7-15.5-11-22.1-25.1-19.7-15.9 2.7-23.3 20.8-22.4 54.4.1 9-.4 13.6-1.4 13.8-1.1.2-5.9-3.6-14.4-11.2-26.3-24.5-55.1-34.2-86.5-28.9-13.3 2.3-23.8 6-31.3 11q-11.1 7.65-24.3 26.7c-13.7 19.7-21.7 44.2-23.9 73.6-1.4 13.7.9 37.6 6.6 71.7 5 29.6 11.2 58 18.5 85.3q10.95 40.8 18.9 49.2 7.35 8.1 19.5 6c8.1-1.4 12.9-5.1 14.4-11.2 1-3 1-7 .2-11.9-.7-4.3-3.3-14.2-7.7-29.7-6.3-21.8-11.8-47.3-16.8-76.6-6-35.6-8.4-60.5-7.2-74.8 1.9-23.2 6.5-40.8 13.9-53 7.7-12.5 16.8-19.6 27.4-21.4q36.45-6.15 70.5 37.8c22.7 29.3 37.3 54.7 43.8 76 4.4 15.2 12.4 38.1 24.1 68.5 11.7 30.5 19.7 50.1 24.1 58.8 3.1 6 6.7 10.1 10.7 12.3m231.5-85.1c-8.5 6.5-19.5 10.9-32.9 13.2l-6.9.9c-10 1.2-18.2.7-24.8-1.3-6.5-2.1-14.4-6.7-23.5-13.9-14.7-11.5-25.4-26.8-32.1-45.7-2.7-7.6-4.2-12.3-4.4-14.1-.3-2.1.2-4 1.5-5.6 7-7.7 25.2-14.2 54.8-19.6 5.3-1.1 11.3-2 18-2.8 8.6-1 17.5.2 27 3.7 9 3.3 17.7 8.8 26.1 16.8 8.3 8 13.6 15.6 16 22.9.5 1 .8 2.6 1.1 4.7 1.9 15.3-4.8 28.9-19.9 40.8m-65.4 60.9c7.4 1.6 17.6 1.6 30.8.1 18.4-2.3 34.3-6.8 47.5-13.4 10.5-5.3 20.5-13.5 29.9-24.7 9.4-11.3 15.9-22.7 19.6-34.3 3.5-12.3 4.6-23.8 3.3-34.4-2.5-21-14.1-40.4-34.7-58.4-26.5-23.1-57-32.5-91.4-28.3-1.1.2-3 .5-5.6 1s-4.7.8-6.1 1c-16.9 3.1-31.2 7-42.8 11.7-5.1 2.4-10.3 4-15.7 4.6l-1.6.2c-.8-1-.7-6.6.4-16.8s2.7-19.7 4.9-28.6c1.9-8.2 5.8-16.5 11.8-25s12.5-14.9 19.5-19.4c8-4.9 16.1-7.9 24.3-8.9 22.7-2.8 41.4 4.7 56.2 22.3 7.1 8.1 12.4 13.3 15.9 15.4 4.2 2.3 8.5 3.2 12.7 2.7 5.7-.7 10.5-3.4 14.4-8.2s5.5-10.2 4.8-16.3c-1-7.8-5.9-16.7-14.9-26.8-9-10-18.8-17.7-29.5-22.8-22.6-10.6-42.5-14.8-59.9-12.7-1.1.1-2.6.4-4.5.8-1.9.5-3.6.7-5 .9-26.1 4.6-48.1 17.4-66.1 38.3-12.6 14.9-21.4 34.3-26.6 58.4-5.1 24-6.1 49.3-2.9 75.9 1.3 10.7 3.7 22.4 7.1 35.4 7.9 29.2 20.9 53.5 39.1 72.9s39.9 31.9 65.1 37.4m478.2 73.8c5.4.8 11.5 1.1 18.3.7 16-.8 29.8-3.9 41.4-9.5 7.3-3.6 15.3-10.1 24-19.4 8.6-9.4 14.2-17.7 16.7-25 2.2-6.2 3.1-12.9 2.8-20-.6-12.2-4-20-10.3-23.7-2.2-1.3-6.4-1.8-12.4-1.5-5 .3-9.5 2.7-13.3 7.4-3.9 4.6-5.7 9.6-5.5 15 .3 4.6-2.4 10.3-8 17s-11.3 11.1-17.3 13.2c-3.9 1.6-8.5 2.6-13.8 2.8-17.9.9-37.6-6.2-59.1-21.2-21.4-15.1-38.5-33.9-51-56.5-18.5-33.1-29.3-68.7-32.6-106.8-.1-1.5-.3-3.8-.6-7-.4-3.2-.6-5.5-.7-6.9-3.4-70.4 17.7-118.3 63.3-143.8q12.45-7.05 22.2-7.5c3.9-.2 7.1-.1 9.6.1 10.4.5 18.7 2.3 25 5.2 6.2 2.9 13.1 8.3 20.6 16.2 7.6 7.8 12.9 14.4 16 19.6s6.2 13.3 9.3 24.2c5.9 20.1 14.8 29.9 26.6 29.3 5.4-.3 10.6-3.2 15.7-8.9 4.7-5.2 7-9.8 6.8-13.7 0-1.1-.6-4.1-1.5-9-4-22.7-14.2-44.3-30.5-64.6-16.4-20.3-34.3-33.5-53.5-39.7-9.9-3.5-24.1-4.9-42.6-4.4-17.2.9-31 4-41.4 9.6-31.7 17.3-55 40.1-69.9 68.3-14.9 28.3-22.6 63.9-23 106.9-.1 3.6 0 9.1.3 16.6 2.2 43.6 12.5 84.2 31 121.9 18.5 37.8 40.9 65.8 67.2 84.2 10 7 21.8 13.6 35.6 19.7 13.7 6.2 25.2 9.9 34.6 11.2m375.4-117.4c4.3 3.5 8.6 5.4 12.9 5.4s8.7-1.9 13.4-5.8q6-5.85 6-14.4c.1-6.5-2-20.6-6.1-42.4-11.4-59.1-17-109.7-16.7-151.8.3-31.5 3.7-59.5 10.3-84.1 1.4-7.2 2.2-12 2.2-14.5q.15-23.55-21.3-23.7c-16.1-.1-26.5 16.4-31.4 49.6-1.5 8.9-2.8 13.4-3.9 13.4-1 0-5.1-4.5-12.2-13.5-21.6-28.7-48.3-43.2-80.1-43.4q-20.4-.15-32.7 5.4c-8.3 3.7-17.8 11-28.6 22-16.9 17-29 39.8-36.4 68.4-3.6 13.2-5.6 37.1-5.8 71.8-.2 30 .9 59 3.4 87.1s5.8 45.3 10.1 51.8c3.9 6.1 9.9 9.2 18.1 9.2q12.3.15 16.2-8.4c1.4-2.9 2.2-6.8 2.2-11.8 0-4.3-.8-14.5-2.5-30.6-2.3-22.5-3.4-48.6-3.2-78.3.3-36.1 2.2-61.1 5.9-75 5.9-22.4 13.5-39 22.9-49.7 9.7-11 19.9-16.4 30.6-16.4 24.7.2 45.7 16.7 62.9 49.5q25.95 49.2 30 82.5c1.7 15.7 5.6 39.6 11.9 71.6 6.2 32.1 10.7 52.7 13.5 62.1 2.1 6.4 4.9 11.1 8.4 14m82.3 4.8c3.7 4.1 9 6.3 15.8 6.7 6.7.3 11.8-1.2 15.2-4.6 3.4-3 6.1-14.2 8.2-33.4l3-27.2 15.9 14.8c11.6 10.6 25.1 20.2 40.4 28.9 11.4 6.3 19.7 10.3 24.8 12s14.3 3.3 27.4 4.7c5 .6 10.7 1.1 17.1 1.4 8.6.4 16.4-.8 23.3-3.6 12.8-4.7 23.3-11 31.6-18.8 8.2-7.8 12.6-15.3 12.9-22.4l-.1-1.6-.2-1.6c-2.3-11.6-8.6-17.6-18.9-18.2-7.2-.4-15 2.5-23.6 8.5-11.2 8.7-22.5 12.7-33.9 12.2-4.3-.3-9-1.1-14.3-2.4-36.1-8.7-66.8-33.9-92.2-75.6l-8.4-13.4c1-19.6 2.9-49.2 5.6-88.8 2.8-39.5 4.7-69.3 5.8-89.3l-6.1-7.3c-4-5.2-9.3-8-15.7-8.3-5.7-.3-10.8 1.7-15.3 6.2-7.2 6.8-12.2 37.4-15 92q-.9 16.05-3.9 95.4c-2 59.6-3 96.1-3 109.3.1 13.3 1.3 21.4 3.6 24.4m425.6-20.3c-21.7-2-47.2-20.5-76.7-55.5q-20.85-24.6-29.7-42.3c-5.9-11.9-9.9-25.6-12.1-41.3-1.5-10.5-1.7-21.7-.6-33.4 1.6-17.4 6-32.7 13.1-45.9s15.9-21.9 26.4-26.4c6.3-2.6 13.1-3.6 20.2-2.9 13.9 1.3 28.3 7.8 43.1 19.6 14.9 11.8 27.8 27 38.6 45.5 7.1 12.2 11.4 20.5 12.8 24.9 1.4 4.5 2.2 12.9 2.5 25.5 1.5 25.7 3.7 48.5 6.6 68.5l5.8 42-10.4 7.6c-7.4 5.5-14.4 9.3-21 11.5-6.7 2.3-12.9 3.1-18.6 2.6m-32 37.4c9.4 3.8 17.6 6 24.7 6.6 15.3 1.5 32.2-2.2 50.6-10.9l16.9-8.7 7.1 10.9c4.7 6.9 10.1 10.6 16.2 11.2 5.7.5 10.3-.7 14-3.8s5.9-7.5 6.4-13.1c.4-4.3 0-8.5-1-12.5-5.3-20.3-10.1-48-14.4-83.2-5.4-46.1-6.5-86.7-3.2-121.9 1.1-11.8 2.7-23.8 4.9-36.2 2.3-13.4 3.8-23.7 4.5-30.8 1.2-13.2-1.1-21.6-6.8-25.4-4.1-2.5-8.1-4-12-4.3-6.4-.6-12.1 1.8-17.1 7.3-5 5.4-8.7 13.3-11 23.5-2.1 10.9-4.8 16.2-8 15.9-2.1-.2-4.7-2.8-7.9-7.7-3.4-5.4-12.4-13.2-26.9-23.5-14.4-10.3-25.7-16.7-33.7-19.3-7-2.4-14.4-4-22.2-4.7-16.3-1.6-30.5-.2-42.4 4.1-14.5 5.5-28.3 16.2-41.4 32s-22 32.7-26.5 50.6c-1.6 6.3-2.9 13.9-3.7 22.8-2 20.9-1.5 39.6 1.2 56.1 6.8 42.9 27.9 81 63.2 114 16.2 15.2 24.7 22.9 25.3 23.3 11.6 11.2 26 20.4 43.2 27.7m342.4-267.9s-14.4-12.4-11.3-24.3c2.3-8.7 26-9 28-37.3 2.8-39.8-56.1-57.2-57.7-33.2-2.7 39.9 29.1 13.1 27 35.3-2.1 21.9-28.1 16.8-29.5 37.6-1.8 27.2 18.3 39.4 28 34.5 9.7-4.8 15.5-12.6 15.5-12.6m-67.2 287c8.1 4 18.3 6.8 30.7 8.5 14.5 2 26.6 2 36.2.1 12.3-2.2 24.1-7.8 35.6-16.8 11.5-8.9 17.8-17.4 18.9-25.6.7-4.9-.8-9.7-4.5-14.1-3.8-4.5-8.3-7.1-13.6-7.8-6.4-.9-13.3 2.3-20.8 9.6-7 6.2-13.5 10.1-19.4 11.7-6 1.5-14.3 1.5-24.9.1-19.5-2.7-36.7-15.1-51.7-37.3-8.5-12.4-13.6-24.3-15.5-35.7-1.8-11.4-1.3-28.1 1.7-50.1l1-7.4c2.6-18.8 5.9-32.8 10.1-42.2 4.2-9.3 11.4-19.1 21.8-29.2 14-14.7 28.5-21 43.7-18.9 3.2.4 5.7.9 7.4 1.5 9 2.7 16.3 6.5 21.7 11.4 5.5 4.8 11.6 13.2 18.3 24.9 6.9 12.5 12.2 20.2 15.7 23.2 3.3 2.3 6.6 3.6 9.8 4.1q9 1.2 16.8-4.2c5.1-3.6 8.2-8.6 9-15 .8-5.7-2.8-15.9-10.7-30.7q-11.85-22.2-24.3-33.6c-16.3-15.6-35.9-24.9-58.9-28.1-12.4-1.6-24.5-.8-36.1 2.7-23.8 7.5-45.1 25.5-64.2 53.9q-23.1 35.1-28.5 74.4c-1.7 12.4-2.5 26.1-2.4 41.3q.15 38.85 21.9 75.6t55.2 53.7m343.1 26.7c-21.4-3.9-45.3-24.5-71.6-62-12.4-17.5-21.1-32.4-25.9-44.7-4.9-12.3-7.7-26.4-8.5-42.1-.6-10.7.1-21.8 2.2-33.4 3.1-17.2 8.8-32.1 17.1-44.6q12.3-18.75 28.5-24 9.9-3 20.4-1.2c13.7 2.5 27.5 10.3 41.3 23.3s25.3 29.2 34.5 48.7c6.1 12.7 9.6 21.3 10.6 25.9 1 4.5 1.1 13.1.2 25.6-.6 25.7-.4 48.6.7 68.8l2.2 42.3-11.1 6.7c-7.7 4.8-15 8-21.9 9.7-6.8 1.7-13.1 2-18.7 1m-35.1 34.5c9 4.5 17 7.4 24.1 8.7 15.1 2.7 32.2.5 51.3-6.5l17.6-7.2 6.1 11.4c4.1 7.3 9.2 11.5 15.2 12.6 5.6 1 10.4.1 14.3-2.6 4-2.7 6.4-6.9 7.4-12.5.8-4.3.8-8.4.1-12.5-3.5-20.7-5.9-48.7-7.1-84.1-1.4-46.4 1-87 7.3-121.8 2.1-11.6 4.8-23.5 8.1-35.6 3.4-13.2 5.8-23.3 7.1-30.3 2.3-13 .8-21.7-4.6-25.9-3.9-2.9-7.7-4.6-11.6-5.4-6.3-1.1-12.2.8-17.6 5.8-5.5 5-9.8 12.5-13.1 22.5-3 10.7-6.1 15.8-9.3 15.2q-3.15-.6-7.2-8.4c-3-5.6-11.2-14.2-24.7-25.7-13.6-11.5-24.2-18.9-32-22.1-6.7-3.1-13.9-5.3-21.7-6.7-16.2-2.9-30.4-2.7-42.6.5-14.9 4.2-29.6 13.6-44 28.3-14.5 14.6-24.7 30.6-30.7 48.1-2.3 6.1-4.1 13.6-5.7 22.4-3.8 20.7-5 39.4-3.6 56 3 43.4 20.7 83.1 53.1 119 14.8 16.5 22.5 25 23.2 25.5 10.5 12 24.1 22.5 40.6 31.3m319.9 29c-13.5-.2-24.3-1.2-32.3-3.1-17.4-4-29.9-23-37.4-57-4.5-20-3.2-45.7 4-77 4.1-17.7 10.2-33.5 18.2-47.4 7.3-12.9 16.4-24.1 27.2-33.5s21.2-15.1 31.2-17.2c8.2-2.1 17.6-2 28 .4 19.1 4.5 33.8 13.9 44.1 28.3 8.1 10.7 13.6 27.1 16.4 49.1 2.8 22.1 2.4 46.4-1.2 73q-.75 8.1-3.9 21.6c-4.4 19.1-14.7 34.2-30.8 45.1-10.1 7.2-19.7 12-28.9 14.4-9.2 2.5-20.7 3.6-34.6 3.3m-42.2 39.7c.7.2 2.1.6 4.1 1.3 2.1.6 3.6 1.1 4.7 1.3q43.8 10.2 77.1-.3c10.2-3.1 23.4-9.9 39.3-20.4 16-10.4 26.6-19 31.9-25.9 11-14.3 19.4-33.8 25.1-58.5 6.6-28.6 8.6-58.5 6.1-89.7s-9.4-56.2-20.9-75c-7.9-13.2-19-24.5-33.3-34.1-14.3-9.5-29.5-16.1-45.5-19.8-15.3-3.6-29-4.2-40.9-1.8q-54.15 10.65-95.7 78.6c-7 11.2-12.4 25.1-16.3 41.9l-3 13c-5.9 25.4-8.8 43.6-8.8 54.7-.5 13.1 1.7 28.7 6.5 46.8 4.8 18.2 10.2 32.4 16.3 42.6 14 23.4 31.8 38.5 53.3 45.3" style="fill:#100f0d;fill-opacity:1;fill-rule:nonzero;stroke:none" transform="matrix(.01796 0 0 -.01796 -102.926 231.556)"/><path d="m13233.4 6322.4-4.2-116.7c-75.5-36.4-163.7-79.4-267-123.6-72.6-31.2-152.7-63-241.4-93.6-303.5-104.7-705.6-194.9-1241.2-194.9-54.2 0-109.5.9-166.2 2.9-320.2 11.3-608.4 46.7-865.5 95.1-295 55.5-549.28 128-764.31 200.3-122.3 41.2-231.81 82.3-329.09 120.2l30.57 113.2c409.26-159.8 1054.93-375.7 1932.63-406.6 982.1-34.4 1596 249.7 1915.7 403.7m-105-2588.4c-51.9-48.2-130.3-113.1-240.2-181.1-65.7-40.6-142.7-82.4-232.1-122.3-281-125.8-684.7-233.8-1245.2-233.8h-14.4c-338.7 1.2-631.6 37.8-885.9 92.7-290.4 62.8-530.6 149.5-731.28 234.9-114.3 48.7-215.8 96.9-306.52 139.9l7.44 139.9 45.03-29.4c75.05-35.7 157.66-74.8 249.05-114.8 198.9-87.2 439.28-178.2 733.08-244.2 254-57.1 547.8-95.6 889.4-96.7h12.8c458.2 0 901 101.5 1250.4 265.7 83.3 39 161.2 81.7 232.8 127.4 80.9 51.6 153.7 107.1 216.8 165.7z" style="fill:#cc8970;fill-opacity:1;fill-rule:nonzero;stroke:none" transform="matrix(.01796 0 0 -.01796 -102.926 231.556)"/><path d="M12660 3584.8c83.3 39 161.2 81.7 232.8 127.4l-4.6-159.3-.2-6.6c-69.9-43.4-147.1-85-232.1-123.4l.2 7.7zm305.7 2614.7-3.5-117.4c-72.6-31.2-152.7-63-241.4-93.6l3.1 118.5h.1c87.7 30 168.2 61.4 241.7 92.5m-2578.6-296.1c-271.7 55.5-507.7 116.2-705.73 188.5l-4 116.9c191.08-69.4 427.43-142.9 705.23-199.5zm56.2-2629.3c-268.2 63.8-488.84 152.4-673.36 238.9l-.41 11.4 3.98 138c185.54-84.1 397.19-162.6 667.79-228.6l1.7-144.3z" style="fill:#eed2c8;fill-opacity:1;fill-rule:nonzero;stroke:none" transform="matrix(.01796 0 0 -.01796 -102.926 231.556)"/><path d="m9497.57 3665.2 10.27-4.8c382.98-181.8 961.76-456.5 1888.86-459.7 4.3-.1 8.6-.1 12.9-.1 696.6 0 1325.8 197 1687.8 528.5l121.3 2562.8c-332.7-159.9-932.5-433.4-1903.8-399.2-869.5 30.5-1514.12 240-1930.18 400.7 38.96-905.8 83.82-1951.2 112.85-2628.2m1913.03-505.7h-14.1c-936.3 3.3-1520.02 280.3-1906.29 463.7l-32.69 15.5-.53 12.4c-29.33 684.4-75.22 1753.4-114.73 2672l-1.36 31.5 29.4-11.5c412.02-160.8 1062-378.3 1946-409.3 992.1-34.8 1593 254.6 1915.7 410.1l31.1 15-125.4-2648.6-6.2-5.7c-166.7-154.7-397.1-286-666.2-379.9-314.5-109.6-669.3-165.2-1054.7-165.2" style="fill:#231f20;fill-opacity:1;fill-rule:nonzero;stroke:none" transform="matrix(.01796 0 0 -.01796 -102.926 231.556)"/><path d="m10787 10432.4-46.8-1916.1c3.1-239.6-493.6-537.5-867.46-740.8-19.2-10.4-34.92-18.9-46.35-25.3C9485 7559 9334.87 7456.3 9353.38 7025l29.99-700.2c39.51-918.5 85.39-1987.5 114.73-2672 15.93-370 27.16-632.1 30.25-704.1l.86-19.8c10.69-302.6 809.29-769.1 1773.09-773h11.8c424.3 0 852.2 91.7 1206 258.7 308.6 145.7 514.5 329 537.7 478.7l191.4 4041.6c19.5 413.5-93.3 530.5-551.9 776.2-35.9 20-874 490.7-872.7 762.2l-27.3 1948.4zm527.4-8317.6h-12.2c-447.7 1.8-897.3 101.2-1266.1 279.8-332.1 160.9-542.07 365-548 532.6l-.85 19.8c-3.08 72-14.32 334.1-30.26 704.1-29.33 684.4-75.22 1753.4-114.73 2672l-29.99 700.1c-19.5 454.6 146.62 568.3 494.01 762.8 11.55 6.5 27.42 15.1 46.82 25.7 563.4 306.2 848 543.4 845.9 704.8l47.9 1957.4 1091-11.5 27.8-1988.9c-1-205.7 614.2-594 851.4-726.4 469.3-251.4 593.6-381.1 573.2-814.2l-191.6-4044.7c-47-312.8-815.9-773.4-1784.3-773.4" style="fill:#231f20;fill-opacity:1;fill-rule:nonzero;stroke:none" transform="matrix(.01796 0 0 -.01796 -102.926 231.556)"/><path d="M11856.6 10668.4V8585.3s-145.2-97.8-530.4-94.7c-101.6.9-190.9 10.6-267.2 24.4-108.8 19.8-191.3 47.9-245.6 70.6-51.2 21.3-107.6 44.2-107.6 44.2l33.2 2089 74.4-3.3 245.6-11.1z" style="fill:#cc8970;fill-opacity:1;fill-rule:nonzero;stroke:none" transform="matrix(.01796 0 0 -.01796 -102.926 231.556)"/><path d="M11122.2 10691.2V8501.9c-108.8 19.8-191.3 47.9-245.7 70.5v2129.9z" style="fill:#ecd0c6;fill-opacity:1;fill-rule:nonzero;stroke:none" transform="matrix(.01796 0 0 -.01796 -102.926 231.556)"/><path d="M10741.7 8640.4c47.2-25.1 257.7-126.6 584.7-129.2 6-.1 12-.1 17.8-.1 308.4 0 455.6 66.7 491.9 86.1v2051.5l-1076.7 48.7zm602.9-170.4h-18.5c-383.5 3.2-606.4 135.1-615.7 140.8l-10 6 .1 11.7 18.2 2111.9 1158.5-52.4V8574.4l-9.1-6.1c-6-4.1-150.2-98.3-523.5-98.3" style="fill:#231f20;fill-opacity:1;fill-rule:nonzero;stroke:none" transform="matrix(.01796 0 0 -.01796 -102.926 231.556)"/><path d="m11927.2 10983.3-.6-176.9c0-99.7-66.4-186.9-162.3-214.3-239.3-68.5-482-79.9-727.8-37.8-60.7 10.2-121.4 23.8-182.5 40.5-17.4 4.7-33.7 11.5-49 19.9-70.1 38.4-115.9 112.4-115.9 195.1l2.9 170.3c0 26.3 4.9 52.3 14.3 76.8l-3.2 87.6-3 10.4c-3.7 13-5.7 26.5-5.9 40.1l-5.1 446h1237.5v-464.5c0-24.7-5.4-49.1-16-71.5l-.7-56 .8-1.5c10.9-19.7 16.5-41.8 16.5-64.2" style="fill:#cc8970;fill-opacity:1;fill-rule:nonzero;stroke:none" transform="matrix(.01796 0 0 -.01796 -102.926 231.556)"/><path d="m10709.9 11620.4 4.8-425.2c.2-11.6 1.9-23.4 5.2-34.8l3.7-12.5 3.4-94.4-1.5-3.9c-8.6-22.5-13-45.9-13-69.5l-2.8-170.6c0-73.3 40.3-141.2 105.2-176.8 14.2-7.8 29.2-13.9 44.5-18.1 61-16.7 121.7-30.2 180.5-40.1 244.4-41.7 486.2-29.2 718.7 37.3 86.8 24.9 147.5 104.9 147.5 194.6l.5 176.9c0 19-4.8 37.8-13.9 54.2l-3.5 6.5.9 65.8 1.9 4c9.2 19.5 14.1 41.2 14.1 62.8v443.8zm610.8-1111.1c-95.3 0-191.3 8.2-287.7 24.7-60.1 10.1-122.2 23.9-184.4 41-18.5 5-36.5 12.3-53.5 21.7-78 42.8-126.6 124.4-126.6 213.1l2.9 170.6c0 26.9 4.8 53.9 14.2 79.9l-2.9 80.9-2.4 7.8c-4.2 15.1-6.5 30.4-6.7 45.7l-5.3 466.9h1278.9v-485c0-26.1-5.5-52.3-16.1-76.1l-.6-46.4c11.3-21.6 17.2-46.1 17.2-70.8l-.5-176.9c0-107.9-72.9-204.2-177.3-234.1-146.7-42-297-63-449.2-63" style="fill:#231f20;fill-opacity:1;fill-rule:nonzero;stroke:none" transform="matrix(.01796 0 0 -.01796 -102.926 231.556)"/><path d="M11036.5 10554.3c-60.7 10.2-121.4 23.8-182.5 40.5-17.4 4.7-33.7 11.5-49 19.9l-25 932.6 51.8 93.7 3.5 6.3 33.4-6.3 148.2-27.9z" style="fill:#ecd0c6;fill-opacity:1;fill-rule:nonzero;stroke:none" transform="matrix(.01796 0 0 -.01796 -102.926 231.556)"/><path d="M11316.3 10988.5c-302.2 0-555.1 63.9-609.3 145.8-1-19.5-.5-58.4 3.2-78.2 57.7-80.5 304-138.1 603-138.1 304.1 0 547.8 49.4 597.8 129 1.2 14.7-1.2 39.9-1.7 64.1-80.2-71.3-316.9-122.6-593-122.6" style="fill:#71331d;fill-opacity:1;fill-rule:nonzero;stroke:none" transform="matrix(.01796 0 0 -.01796 -102.926 231.556)"/><path d="M10729.7 11064.5c51.4-63.2 265.5-125.9 583.5-125.9 291.7 0 526.8 47.2 577.5 115.3.1 5.1-.1 11.4-.3 18.4-105.6-63.3-326.6-104.3-574.1-104.3-264 0-490.7 46.6-588.5 117.3.5-7.7 1.1-14.9 1.9-20.8m583.5-167c-307.8 0-556.9 58.9-619.7 146.7l-2.7 3.7-.8 4.5c-4.1 21.6-4.6 62.1-3.5 83l3.4 62.1 34.3-51.9c44.4-67.1 278-136.5 592.1-136.5 263.4 0 501.6 48.3 579.3 117.4l33.2 29.5 1-44.4c.2-8.5.7-17.2 1.1-25.4.8-16.2 1.5-30.2.5-40.9l-.4-5-2.6-4.2c-64.2-102.2-359.9-138.6-615.2-138.6" style="fill:#231f20;fill-opacity:1;fill-rule:nonzero;stroke:none" transform="matrix(.01796 0 0 -.01796 -102.926 231.556)"/><path d="M11371.7 10779.4c-8 0-16.1.1-24.1.2-273.4 3.5-558.1 63-662.1 138.6l24.2 33.3c96.4-70 376.8-127.5 638.5-130.8 281.6-3.6 523.4 52.9 564.3 105.7l32.5-25.2c-59.9-77.5-333.7-121.8-573.3-121.8" style="fill:#231f20;fill-opacity:1;fill-rule:nonzero;stroke:none" transform="matrix(.01796 0 0 -.01796 -102.926 231.556)"/><path d="m10710 11620.4 4.7-425.2c.2-11.7 1.9-23.3 5.2-34.6l3.7-12.8 3.4-94.3-1.5-3.9c-8.6-22.3-12.9-45.7-13-69.6l-2.8-170.5c0-90.4 61.6-170.7 149.7-194.8 307.8-84.5 610.3-85.4 899.2-2.8 86.8 24.8 147.5 104.8 147.5 194.6l.5 176.8c0 18.9-4.8 37.6-13.9 54.2l-3.5 6.4.9 65.9 1.9 4.1c9.2 19.4 14.1 41.1 14.1 62.7v443.8zm611.1-1110.9c-155.5 0-313.3 21.8-472.5 65.5-106 29.1-180 125.6-180 234.8l2.7 170.6c.1 27.2 4.9 54.1 14.2 79.9l-2.9 80.9-2.3 7.9c-4.3 14.9-6.5 30.2-6.7 45.7l-5.3 466.7h1278.9v-484.9c0-26.1-5.5-52.3-16.1-76.2l-.6-46.3c11.3-21.8 17.3-46.2 17.2-70.8l-.5-176.9c0-107.9-72.9-204.2-177.3-234.1-146.6-41.9-296.5-62.8-448.8-62.8" style="fill:#231f20;fill-opacity:1;fill-rule:nonzero;stroke:none" transform="matrix(.01796 0 0 -.01796 -102.926 231.556)"/><path d="M11926.7 11645.2c0-97.7-277.1-176.8-618.8-176.8s-618.7 79.1-618.7 176.8c0 97.6 277 176.8 618.7 176.8s618.8-79.2 618.8-176.8" style="fill:#f8ede8;fill-opacity:1;fill-rule:nonzero;stroke:none" transform="matrix(.01796 0 0 -.01796 -102.926 231.556)"/><path d="M11307.9 11801.4c-352.5 0-598.2-82.3-598.2-156.2s245.7-156.3 598.2-156.3 598.2 82.4 598.2 156.3-245.7 156.2-598.2 156.2m0-353.6c-309.9 0-639.3 69.2-639.3 197.4s329.4 197.3 639.3 197.3 639.3-69.1 639.3-197.3-329.4-197.4-639.3-197.4" style="fill:#231f20;fill-opacity:1;fill-rule:nonzero;stroke:none" transform="matrix(.01796 0 0 -.01796 -102.926 231.556)"/></g></svg>