<svg xmlns="http://www.w3.org/2000/svg" width="200mm" height="200mm" viewBox="0 0 200 200"><g style="display:inline"><path d="M19188.9 40644.2c-481.3-208.6-997.7-210.5-1550.4 0v1475.1h1550.4z" style="fill:#e0c13b;fill-opacity:1;fill-rule:nonzero;stroke:none" transform="matrix(.0144 0 0 -.0144 -165.115 659.204)"/><path d="m17707 41950.1 4.1-1330.1 334.5-96.7 5.3 1355.2z" style="fill:#eddc88;fill-opacity:1;fill-rule:nonzero;stroke:none" transform="matrix(.0144 0 0 -.0144 -165.115 659.204)"/><path d="M19188.9 40644.2h.1zm-1525.6 17.1c529.7-198 1034.5-198.3 1500.8-.8v1434.1h-1500.8zm775.3-198.3c-262 0-532.2 52.7-808.9 158.1l-15.9 6.1v1516.9h1599.8V40628l-14.9-6.5c-243.8-105.7-497.9-158.5-760.1-158.5" style="fill:#231f20;fill-opacity:1;fill-rule:nonzero;stroke:none" transform="matrix(.0144 0 0 -.0144 -165.115 659.204)"/><path d="m19644.5 43018.1-465.2-1030.5c-41.8-14.2-83.7-27.2-125.8-39-4-1.3-8-2.4-11.9-3.4-319.7-89-650-114.6-990.7-66.7-107.8 15-216.7 37.4-326.4 67.9-23.3 6.1-46.3 12.7-69.5 19.8l-542.4 1074.8z" style="fill:#e0c13b;fill-opacity:1;fill-rule:nonzero;stroke:none" transform="matrix(.0144 0 0 -.0144 -165.115 659.204)"/><path d="M18050.9 41878.5c-107.8 15-216.7 37.4-326.4 67.9l-490.3 954.8 619.2-149.1zM19540.9 42913.3l-487.4-964.7c-4-1.3-8-2.4-11.9-3.4l311.1 903.6z" style="fill:#eddc88;fill-opacity:1;fill-rule:nonzero;stroke:none" transform="matrix(.0144 0 0 -.0144 -165.115 659.204)"/><path d="M17672.4 41986.9c499.5-149.2 1000.2-142.2 1488.7 20.9l445.1 985.8-2453 22.1zm715.2-156.7c-245.9 0-493 37.4-739.8 112.2l-10.2 3.1-565.5 1120.7 2610.9-23.6-485.5-1075-10.2-3.5c-263.7-89.2-531-133.9-799.7-133.9" style="fill:#231f20;fill-opacity:1;fill-rule:nonzero;stroke:none" transform="matrix(.0144 0 0 -.0144 -165.115 659.204)"/><path d="M19675.1 43182.4c0-33.5-.6-104.2-.6-126.7 0-57.6-39.8-112.2-111.6-161.6-52-35.9-120.9-69-203.6-98.3-237.6-84.3-588.9-137.7-980.6-137.7-215.1 0-418.2 15.7-597.5 43.7-227.8 35.5-416.7 90.6-541.4 158.5-103.6 56.4-162.8 121.5-162.8 191.3 0 21.3 4.4 94.7 8.2 128.4.4 3.7 5.5 4.2 7.1.9 22.3-45.1 69.8-90.6 138.2-133.8 124.9-78.7 319.2-149.4 554.9-195.8 178.1-35 380-56.2 593.3-56.2 379.5 0 727.4 70.3 969.8 166.8 78.4 31.1 145.6 64.9 199.4 99.9 60.5 39.5 103.9 80.4 126.6 120.9z" style="fill:#e8d061;fill-opacity:1;fill-rule:nonzero;stroke:none" transform="matrix(.0144 0 0 -.0144 -165.115 659.204)"/><path d="m17866.9 42835.4 2.7-157.2c-227.8 35.5-488 101.4-612.6 169.3l-26.5 199.6c124.9-78.7 400.7-165.3 636.4-211.7M19508.6 42851.5c-52.1-35.9-97.3-40.5-180-69.8l-9.4 142.4c78.3 31.1 154.4 38.9 208.2 73.9z" style="fill:#f9f2cb;fill-opacity:1;fill-rule:nonzero;stroke:none" transform="matrix(.0144 0 0 -.0144 -165.115 659.204)"/><path d="M17105.1 43118.8c-1.9-27.8-3.3-55.5-3.3-67.1 0-178.1 513.1-368.8 1276.8-368.8 760.4 0 1271.1 192.8 1271.1 372.8 0 10.8.1 32.6.3 56.1-175.6-174.3-683.9-341.6-1271.4-341.6-626 0-1119.5 172.5-1273.5 348.6m1273.5-485.6c-652 0-1326.5 156.5-1326.5 418.5 0 22.4 4.5 96.6 8.4 131.1 1.4 12.6 10.8 22.5 23.3 24.7 12.7 2.3 25.2-4 30.9-15.6 88.4-179.6 617.4-371.9 1263.9-371.9 626.7 0 1174.5 197.6 1274.3 374.9l9.4 16.7 37.6-9.3.2-19.8c-.1-16.1-.2-40.5-.4-64-.1-26-.3-51-.3-62.8 0-236.9-580.1-422.5-1320.8-422.5" style="fill:#231f20;fill-opacity:1;fill-rule:nonzero;stroke:none" transform="matrix(.0144 0 0 -.0144 -165.115 659.204)"/><path d="M19674.5 43192.7c0-68.2-56.1-132.3-154.8-188.4-52.7-30.2-117.8-57.9-192.9-82.6-236.5-77.9-573.8-126.6-948.1-126.6-179.6 0-350.2 12-505.1 33.4-296.2 40.8-534.8 116.1-668.2 208.1-75.3 51.8-117.1 109-117.1 168.2 238.8 94 461.2 176.7 992.9 373.8 15.2 5.5 30.7 11.3 46.3 17.1 39.3 2.6 93 3.7 152.2 4.1 96.1.6 206.7-.5 293.7.3h.2c14.6.2 28.7.3 41.9.6h.2c6.9.2 13.3.4 19.8.5 501-213.6 847.8-317.1 1039-408.5" style="fill:#efe091;fill-opacity:1;fill-rule:nonzero;stroke:none" transform="matrix(.0144 0 0 -.0144 -165.115 659.204)"/><path d="m18339.8 43594.4-466.2-765.9c-296.2 40.8-534.8 116.1-668.2 208.1l875.8 542 55.2 34.1 143.3-12.9zM19519.7 43004.3c-52.7-30.2-117.8-57.9-192.9-82.6l-781.4 670.7 28 7.7h.2l30.3 8.4 11.6-7.8h.2z" style="fill:#fdfaed;fill-opacity:1;fill-rule:nonzero;stroke:none" transform="matrix(.0144 0 0 -.0144 -165.115 659.204)"/><path d="M17114.6 43188.5c29.9-177.7 540.6-368.5 1264-368.5 739 0 1242.2 182 1269.9 357.5-85.5 39.5-200.7 82-344.4 135-180.2 66.4-404.1 149-673.3 263.7-56.7-1.6-131.1-1.4-209.5-1.2-108 .3-219.6.6-288.6-3.8l-10.1-3.7c-539.9-200.2-770.9-285.9-1008-379m1264-418.3c-346 0-673.1 44-921.1 123.7-254.1 81.8-394 192.2-394 311v16.9l15.8 6.2c243.7 96 472.8 181 1026.1 386.1l16.8 6.3 3.6.2c70.4 4.7 184.8 4.4 295.6 4.2 80.7-.2 156.9-.4 213.4 1.2l5.5.2 5-2.2c270.3-115.2 495.2-198.2 676-264.9 153.7-56.7 275.1-101.5 364-143.9l14.1-6.8v-15.6c0-237-580.1-422.6-1320.8-422.6" style="fill:#231f20;fill-opacity:1;fill-rule:nonzero;stroke:none" transform="matrix(.0144 0 0 -.0144 -165.115 659.204)"/><path d="M18349.9 32450.5c-557.6 0-1106.6 35.1-1645.9 108.5-82.3 11.2-143.7 81.3-143.7 164.4v16.4c0 132.3-74.5 254-193.2 312.5-1064.1 524.2-1797.6 1482.4-1797.6 2742.8 0 1534 1086.5 2254.9 2533.4 2847.7 324.8 133.1 537.6 448.4 537.6 799.4v1174.9c272.9-102.7 539.5-154.1 798.1-154.1 258.4 0 508.9 51.3 749.5 154v-1217.3c0-342.2 203.6-650.6 516.9-788.2 1446.2-634.9 2554-1416.5 2554-2937.3 0-1239.3-735.7-2138.4-1790.6-2632.6-122.4-57.3-200.2-180.7-200.2-315.8 0-84.1-62.9-154.6-146.4-164.7-599.6-72.5-1190.4-110.6-1771.9-110.6m-736.1 9392.4c-38 97.5-114.4 177.9-215.1 218.8-1 .4-1.9.8-2.9 1.2-25.7 10.5-42.9 35.2-44.2 63l-14.7 311.6c-1.1 22.9 8.5 43.1 23.8 56.7l253.1-501.6zm1599.8 46v114.3l204.5 452.8c.7-3.9 1.2-8 1.3-12.2l7.5-336.7c.7-29.5-16.5-56.4-43.6-68.2l-2-.9c-67-29.1-132.8-83.5-167.7-149.1" style="fill:#f5fcfb;fill-opacity:1;fill-rule:nonzero;stroke:none" transform="matrix(.0144 0 0 -.0144 -165.115 659.204)"/><path d="M18438.5 40512.6c-128.9 0-259.9 13.1-392.8 39.2l5.1 1301.7c112.4-15.5 224.7-23.3 336.8-23.3 260.8 0 520.3 42.1 776.5 126.2v-1295.9c-232.9-98.6-475.2-147.9-725.6-147.9M17711 40644c-15.9 5.6-31.8 11.4-47.7 17.3v1276.5c14.6-4.4 29.2-8.6 43.8-12.7z" style="fill:#e5e29e;fill-opacity:1;fill-rule:nonzero;stroke:none" transform="matrix(.0144 0 0 -.0144 -165.115 659.204)"/><path d="M18045.7 40551.8c-110.3 21.7-221.9 52.5-334.7 92.2l-3.9 1281.1c114.6-31.9 229.2-55.8 343.7-71.6z" style="fill:#ecedc5;fill-opacity:1;fill-rule:nonzero;stroke:none" transform="matrix(.0144 0 0 -.0144 -165.115 659.204)"/><path d="M18438.6 40463c-258.6 0-525.2 51.4-798.1 154.1v1083.4c0 49.7-9.3 97.8-26.7 142.4v149.7l23.8-47.1 10.2-3.1c5.2-1.6 10.3-3.1 15.5-4.6v-1276.5c15.9-5.9 31.8-11.7 47.7-17.3 112.8-39.7 224.4-70.5 334.7-92.2 132.9-26.1 263.9-39.2 392.8-39.2 250.4 0 492.7 49.3 725.6 147.9v1295.9c7.8 2.5 15.5 5.1 23.2 7.7l10.2 3.5 16.1 35.6v-114.3c-16.1-30.2-25.5-62.8-25.5-96.4V40617c-240.6-102.7-491.1-154-749.5-154" style="fill:#798484;fill-opacity:1;fill-rule:nonzero;stroke:none" transform="matrix(.0144 0 0 -.0144 -165.115 659.204)"/><path d="M18387.6 41880q-171 0-342.6 24.6l-114.2 505.1c149.4-18.9 299.7-28.5 450.1-28.5 283.6.1 567.6 34 846.3 103.2l-175.8-510.5c-219.4-62.6-441.1-93.9-663.8-93.9m-678.5 96.2c-12.2 3.5-24.5 7.1-36.7 10.7l-265.2 525.6h1.1c6.3 0 12.7-.9 19.1-2.6 3-.8 6-1.6 9-2.5z" style="fill:#e5e29e;fill-opacity:1;fill-rule:nonzero;stroke:none" transform="matrix(.0144 0 0 -.0144 -165.115 659.204)"/><path d="M18045 41904.6c-111.9 16-223.9 39.9-335.9 71.6l-272.7 531.2c162.9-44 328.1-76.6 494.4-97.7z" style="fill:#ecedc5;fill-opacity:1;fill-rule:nonzero;stroke:none" transform="matrix(.0144 0 0 -.0144 -165.115 659.204)"/><path d="m19068.8 41978.9 269.9 534.3c3.1.4 6.2.6 9.2.6 13.4 0 26.1-3.8 37-10.4l-223.8-495.6c-30.7-10.3-61.5-19.9-92.3-28.9" style="fill:#e5e29e;fill-opacity:1;fill-rule:nonzero;stroke:none" transform="matrix(.0144 0 0 -.0144 -165.115 659.204)"/><path d="m19051.4 41973.9 175.8 510.5c33.9 8.3 67.6 17.2 101.3 26.7q5.1 1.35 10.2 2.1l-269.9-534.3c-5.8-1.7-11.6-3.4-17.4-5" style="fill:#ecedc5;fill-opacity:1;fill-rule:nonzero;stroke:none" transform="matrix(.0144 0 0 -.0144 -165.115 659.204)"/><path d="M18387.6 41830.2c-112.1 0-224.4 7.8-336.8 23.3-114.5 15.8-229.1 39.7-343.7 71.6-14.6 4.1-29.2 8.3-43.8 12.7-5.2 1.5-10.3 3-15.5 4.6l-10.2 3.1-23.8 47.1-253.1 501.6c12.5 11.2 28.9 18 46.5 18.3l265.2-525.6c12.2-3.6 24.5-7.2 36.7-10.7 112-31.7 224-55.6 335.9-71.6q171.6-24.6 342.6-24.6c222.7 0 444.4 31.3 663.8 93.9 5.8 1.6 11.6 3.3 17.4 5 30.8 9 61.6 18.6 92.3 28.9l223.8 495.6c16.7-10.2 29.2-27 33.2-47.4l-204.5-452.8-16.1-35.6-10.2-3.5c-7.7-2.6-15.4-5.2-23.2-7.7-256.2-84.1-515.7-126.2-776.5-126.2" style="fill:#798484;fill-opacity:1;fill-rule:nonzero;stroke:none" transform="matrix(.0144 0 0 -.0144 -165.115 659.204)"/><path d="M19705 38611.5c-34.7 15.2-68 32.7-99.9 52-317.7-101.1-698.5-189.7-1094.1-208.5-571.1-27.2-981.7 136.8-1231.6 285.5-54.1-38.7-113.2-71.7-176.5-97.7-1446.9-592.8-2533.4-1313.7-2533.4-2847.7 0-1260.4 733.5-2218.6 1797.6-2742.8 118.8-58.5 193.2-180.2 193.2-312.5v-16.4c0-83.1 61.4-153.2 143.7-164.4 1101.7-150 2243.3-139.9 3417.8 2.1 83.4 10.1 146.4 80.6 146.4 164.7 0 135.1 77.8 258.5 200.2 315.8 1054.9 494.2 1790.6 1393.3 1790.6 2632.6 0 1520.8-1107.8 2302.4-2554 2937.3" style="fill:#71331d;fill-opacity:1;fill-rule:nonzero;stroke:none" transform="matrix(.0144 0 0 -.0144 -165.115 659.204)"/><path d="M19188.9 40128.3c-481.3-208.5-997.7-210.5-1550.4 0v1475.2c541.5-219.1 1058.5-221.6 1550.4 0z" style="fill:#e0c13b;fill-opacity:1;fill-rule:nonzero;stroke:none" transform="matrix(.0144 0 0 -.0144 -165.115 659.204)"/><path d="m17778.3 41543 5.3-1472.4s330.5-95.4 427.2-79.3l-12 1455zM19014.2 40081.1l-5.4 1472.5 64.5-5.2 8.1-1459z" style="fill:#efe091;fill-opacity:1;fill-rule:nonzero;stroke:none" transform="matrix(.0144 0 0 -.0144 -165.115 659.204)"/><path d="M19188.9 40128.3h.1zm-1525.6 17.1c529.7-198 1034.5-198.3 1500.8-.7v1420.9c-472.9-202.3-977.5-201.9-1500.8 1.4zm775.3-198.3c-262 0-532.2 52.7-808.9 158.1l-15.9 6.1v1528.8l34-13.7c535.5-216.7 1050.5-216.8 1530.9-.4l34.9 15.7v-1529.6l-14.9-6.4c-243.8-105.7-497.9-158.6-760.1-158.6" style="fill:#231f20;fill-opacity:1;fill-rule:nonzero;stroke:none" transform="matrix(.0144 0 0 -.0144 -165.115 659.204)"/><path d="M17408.3 42487.8c-10.5 0-20.7-3.6-29.2-10.4-11.9-9.5-18.2-23.6-17.5-38.7l14.7-311.7c.8-18.2 12.2-34.4 28.9-41.2l2.8-1.2c156.3-63.6 257.2-214.3 257.2-384.1v-2258.3c0-361.9-217.1-684.6-553-822.2-1511.4-619.3-2518-1336.6-2518-2824.9 0-1170.6 650.2-2162.2 1783.8-2720.6 125.8-62 207-193.3 207-334.7v-16.4c0-70.3 52.6-130.4 122.3-139.9 1059.3-144.3 2207.1-143.5 3411.5 2.1 71.1 8.6 124.7 68.9 124.7 140.2 0 144.4 84.2 277.2 214.4 338.2 1145.6 536.6 1776.4 1463.5 1776.4 2610.2 0 1581.8-1220.4 2335.7-2539.2 2914.7-323 141.8-531.7 460.1-531.7 810.8v2392.8c0 122.1 107.8 224.6 208 268.2l2 .9c18 7.8 29.3 25.4 28.8 44.9l-7.5 336.7c-.4 14.6-7.3 28-19 36.6-11.7 8.7-26.5 11.4-40.5 7.5-619.5-173.6-1281.5-174-1914.3-1.2-4.2 1.1-8.4 1.7-12.6 1.7m941.7-10061.4c-569.1 0-1120.1 36.1-1649.3 108.1-94.1 12.8-165.1 94-165.1 188.9v16.4c0 122.7-70.4 236.7-179.4 290.3-1151.2 567.1-1811.4 1574.9-1811.4 2765 0 722.2 239.3 1309.2 731.5 1794.4 398.1 392.5 958.5 724.4 1817.2 1076.2 317.3 130 522.3 434.8 522.3 776.5v2258.3c0 149.6-88.9 282.4-226.4 338.4l-2.9 1.1c-34.4 14.1-57.8 47.3-59.6 84.7l-14.7 311.6c-1.4 31.2 11.7 60.2 36 79.6 24.3 19.5 55.6 26 85.7 17.8 624.2-170.4 1277-170 1887.9 1.2 28.9 8.1 59.2 2.5 83.3-15.4 24.1-17.8 38.3-45.2 39-75.2l7.5-336.7c.9-39.6-22-75.5-58.4-91.3l-2-.9c-88.7-38.6-178.4-127.5-178.4-222.9v-2392.8c0-331.1 197.1-631.7 502.2-765.6 856.1-375.9 1419.6-728 1826.9-1141.7 499.2-507 741.8-1101.7 741.8-1818.2 0-600.6-169.6-1142.3-504.3-1610.1-311-434.8-748.6-786.3-1300.5-1044.8-113-52.9-186-168.1-186-293.5 0-96.3-72.3-177.6-168.1-189.2-607.2-73.4-1200.2-110.2-1774.8-110.2" style="fill:#231f20;fill-opacity:1;fill-rule:nonzero;stroke:none" transform="matrix(.0144 0 0 -.0144 -165.115 659.204)"/><path d="M18437.1 34307.3c-622.3 0-1205.7 145.1-1642.7 408.6-419 252.7-649.8 582.5-649.8 928.7 0 346.3 230.8 676.1 649.8 928.8 437 263.5 1020.4 408.6 1642.7 408.6s1205.7-145.1 1642.7-408.6c419.1-252.7 649.8-582.5 649.8-928.8 0-346.2-230.7-676-649.8-928.7-437-263.5-1020.4-408.6-1642.7-408.6" style="fill:#f9f4d3;fill-opacity:1;fill-rule:nonzero;stroke:none" transform="matrix(.0144 0 0 -.0144 -165.115 659.204)"/><path d="M18437.1 37095.5c-1328.8 0-2406-649.6-2406-1450.9 0-801.2 1077.2-1450.8 2406-1450.8s2406 649.6 2406 1450.8c0 801.3-1077.2 1450.9-2406 1450.9m0-227c602 0 1164.5-139.3 1584.1-392.3 383.7-231.3 595-526.7 595-831.6 0-304.8-211.3-600.2-595-831.5-419.6-253-982.1-392.4-1584.1-392.4s-1164.5 139.4-1584.1 392.4c-383.7 231.3-595 526.7-595 831.5 0 304.9 211.3 600.3 595 831.6 419.6 253 982.1 392.3 1584.1 392.3" style="fill:#e0c13b;fill-opacity:1;fill-rule:nonzero;stroke:none" transform="matrix(.0144 0 0 -.0144 -165.115 659.204)"/><path d="M18437.1 37070.8c-1313.1 0-2381.3-639.8-2381.3-1426.2 0-786.3 1068.2-1426.1 2381.3-1426.1s2381.3 639.8 2381.3 1426.1c0 786.4-1068.2 1426.2-2381.3 1426.2m0-2901.7c-647.1 0-1255.8 152.2-1714 428.5-462.2 278.7-716.7 650.5-716.7 1047 0 396.6 254.5 768.4 716.7 1047.1 458.2 276.3 1066.9 428.5 1714 428.5s1255.8-152.2 1714.1-428.5c462.1-278.7 716.6-650.5 716.6-1047.1 0-396.5-254.5-768.3-716.6-1047-458.3-276.3-1067-428.5-1714.1-428.5" style="fill:#231f20;fill-opacity:1;fill-rule:nonzero;stroke:none" transform="matrix(.0144 0 0 -.0144 -165.115 659.204)"/><path d="M17098.3 35975.8c8.8 1.8 18.9 2.7 30.1 2.7 26.6 0 49.7-4.1 69.2-12.4 12.4-5.3 26.1-15.4 41.2-30.2q22.65-22.05 29.7-39.9c4.1-10 6.2-20.9 6.2-32.8 0-20.1-5-33.4-15.1-39.9-3.5-2.3-10.3-3.5-20.4-3.5-8.2 0-15.8 3.7-22.6 11.1q-10.2 11.1-10.2 24.3c0 7.7-4.9 16.9-14.6 27.5q-14.7 16.05-29.7 20.4-9.75 3.6-23.1 3.6-44.25 0-95.7-39.9c-34.3-26.6-60.9-59.1-79.8-97.6-27.8-56.1-42.9-115.8-45.2-179.1 0-2.3-.2-6.2-.5-11.5s-.4-9.2-.4-11.5c0-116.5 38.7-193.9 116.1-232.3 14.2-7.1 26.6-10.7 37.3-10.7q9.75 0 15.9.9c17.2 1.8 30.8 5.3 40.8 10.7 10.1 5.3 21 14.7 32.8 28.3s20.1 24.9 24.8 33.7c4.8 8.9 9.2 22.5 13.3 40.8 8.3 33.7 22.2 50.5 41.7 50.5 8.9 0 17.8-4.4 26.6-13.2 8.3-8.3 12.4-15.7 12.4-22.2 0-1.8-.6-6.8-1.7-15.1-4.8-37.8-19.9-74.2-45.3-109-25.4-34.9-53.8-58.3-85.1-70.1-15.9-6.5-39.3-10-70-10.6-28.4 0-51.5 4.1-69.2 12.4-53.8 26-94.1 61.8-121 107.3s-42.4 103.7-46.6 174.6c-.6 5.9-.9 15.1-.9 27.5 0 72.1 13.8 140.1 41.3 204 27.5 63.8 62.2 112 104.2 144.5 15.9 12.4 35 24.2 57.1 35.5 22.2 11.2 41 18.3 56.4 21.2M17679 35878.3c-7.7 4.7-26.9 8-57.6 9.8-3.6 0-8 .1-13.3.4s-8.9.5-10.7.5c-14.7 0-31-4.5-48.7-13.3-45.6-22.5-81-82.4-106.4-179.8-6.5-24.8-10.5-43.9-12-57.5s-2.5-38.7-3.1-75.3c0-44.8 2.1-78.6 6.2-101.3s12.7-46.2 25.7-70.4c13.6-26.6 31.3-47.1 53.2-61.5 21.9-14.5 45.5-21.7 70.9-21.7q31.95 0 60.3 14.1 59.4 29.25 100.2 90.3c20.7 31.3 35.4 64.1 43.9 98.3q12.9 51.3 12.9 130.2v28.3c0 26.5-4.4 51.6-13.3 75.2-23.1 56.7-59.1 101.2-108.2 133.7m-108.2 79.8c7.7 1.8 29.9 3.2 66.5 4.4h14.2c18.9 0 37.8-4.7 56.8-14.1 18.3-8.9 41.7-27.5 70-55.9 18.9-18.3 32.1-32.5 39.5-42.6 7.4-10 16.1-25.7 26.1-47 14.2-30.1 23.4-54 27.5-71.8 4.2-17.7 6.2-43.1 6.2-76.2v-18.7c-1.2-69.1-9.4-127.1-24.8-173.7-15.4-46.7-41.7-92.3-78.9-136.6-18.9-23-43.5-43.7-73.6-62.1-30.2-18.3-57.4-28.9-81.6-31.9-11.8-1.2-21-1.8-27.5-1.8-62 0-113.8 20.7-155.1 62.1-13 13-27.2 33.3-42.6 60.7-15.4 27.5-26 52.5-31.9 75-6.5 24.2-9.8 64.7-9.8 121.4 0 32 1.2 56.5 3.6 73.6 2.9 19 5.3 40.5 7.1 64.8 1.1 11.8 6.5 32.2 15.9 61.2 9.5 28.9 18.9 52.3 28.4 70 8.9 17.7 20.1 36.1 33.7 55s25.1 32.5 34.6 40.8c10 8.8 24.8 17.5 44.3 26.1s36.7 14.3 51.4 17.3M18185.3 35988.3c16.5 4.7 34.3 7.6 53.2 8.8 62.1 3.6 111.4-14.8 148.1-54.9 13.6-16 20.8-31.7 21.7-47 .9-15.4-4.6-27-16.4-34.6-4.1-3-8.9-4.5-14.2-4.5-14.8-1.1-26.6 7.4-35.5 25.8-16.5 31.3-47.8 45.8-93.9 43.4-26.1-1.8-50.6-9.2-73.6-22.1-42-24.2-79.3-70.7-111.8-139.5s-46.7-138.5-42.5-209.4c1.7-24.8 5.9-48.4 12.4-70.8 11.2-40.7 37.5-79.7 78.9-116.9s79.8-56.4 115.3-57.5c1.1 0 2.8-.2 4.9-.5 2-.3 3.6-.1 4.8.5 21.3 1.1 43.5 11.7 66.5 31.8 27.2 24.1 45.2 55.6 54.1 94.4 4.7 21.8 6.8 36.5 6.2 44.2-.6 8.8-4.1 17.1-10.6 24.7-8.9 10-21.6 16.6-38.1 19.9-16.6 3.2-44.1 4.3-82.5 3.1q-70.95-2.7-82.5 1.8c-11.8 5.3-18.3 15.3-19.5 30.1 0 5.3.6 10 1.8 14.2 4.1 10.6 8.3 16.8 12.4 18.6 11.8 5.9 38.4 10.1 79.8 12.4 18.9 1.2 36.7 1.5 53.2.9q57.6-2.7 90.9-17.7c22.2-10.1 40.3-25.7 54.5-47 9.5-14.2 15.1-32.5 16.9-55 1.7-36.7-5.5-74-21.7-112.2q-24.45-57.15-73.2-98.4c-32.5-27.5-68-42.1-106.4-43.9-16-1.1-32.5.3-49.7 4.5-37.8 9.4-74.3 27.9-109.5 55.4-35.1 27.5-64.8 60.7-89.1 99.7-14.7 24.3-24.8 45.1-30.1 62.5-5.3 17.5-8.9 44.5-10.7 81.2l-1.7 16.8c-2.4 51.4-.6 92.2 5.3 122.4 17.1 80.4 46.4 148.6 87.8 204.8 41.3 56.2 89.5 92.8 144.5 110M18543.5 35967.9c4.1 2.9 9.8 4.4 16.9 4.4 10.6 0 20.6-5 30.1-15.1 10.6-11.2 46.4-66.2 107.3-164.9s115.3-190.1 163.1-274c39.6-69.1 60.6-103.7 63-103.7 2.9 0 4.4 14.7 4.4 44.3 0 76.8 5.3 206.9 16 390.1 2.9 52.7 6.5 84.7 10.6 96.3 4.2 11.5 14.8 17.2 31.9 17.2 12.5 0 21.9-4.1 28.4-12.4 5.3-7.1 8-18 8-32.8 0-15.4-3.5-90.7-10.6-226.1-4.8-89.8-8.6-177.6-11.6-263.3-2.9-92.2-6.2-144.6-9.7-157-4.8-16.5-14.8-24.8-30.2-24.8-3.5 0-6.2.3-7.9.9-7.7 2.4-18.5 11.2-32.4 26.6s-25.9 31.9-35.9 49.6c-67.4 118.9-132.6 231.9-195.5 339.2-63 107.3-96 161.5-98.9 162.7-1.2.6-2.5-12.8-4-40.3s-3-69.5-4.4-125.9c-1.5-56.5-2.8-125.8-4-208-2.4-105.8-3.9-160.2-4.4-163.1-1.8-10.1-5.8-18-12-24-6.2-5.9-13.2-8.8-20.9-8.8-9.4 0-17.7 3.8-24.8 11.5l-10.6 11.5.9 272.2c.5 187.4 1.6 297.1 3.1 329 1.4 31.9 6.3 53.8 14.6 65.6 10.1 13.6 16.5 21.3 19.5 23.1M19392.1 35792.3c-6.6 24.8-11 39.3-13.3 43.4h-.9c-2.4 0-5.9-4.3-10.7-12.8-4.7-8.6-7.1-14.9-7.1-19.1 0-.6-9.1-22.4-27.4-65.6-16.6-39-33-80.4-49.3-124.1-16.2-43.8-24.3-68-24.3-72.7 0-5.4 5.9-6.8 17.7-4.5 5.9 1.2 36.6 3.6 92.2 7.1 52 3.6 78 6.2 78 8 0 5.9-4.1 22.8-12.4 50.5-6.5 22.5-14.3 56.2-23.5 101.1-9.1 44.9-15.5 74.5-19 88.7m-42.6 164.9c8.3 6.5 18.6 9.8 31 9.8s23.4-5.3 32.8-16c23.1-24.2 45.8-94 68.3-209.2 5.3-26.6 24.8-103.8 58.5-231.5 18.3-68.5 30.5-113.5 36.4-134.7 15.3-53.8 23-84.3 23-91.4 0-10-3.7-18.6-11-25.7-7.4-7.1-16.2-10.6-26.2-10.6-4.1 0-8.6.9-13.3 2.6-8.9 3.6-16.4 12.6-22.6 27.1s-16.4 47.1-30.6 98l-27.5 95.7c-2.4 2.4-13.3 3.6-32.8 3.6-33.1 0-74.8-2.2-125-6.7-50.3-4.4-77.5-8.7-81.6-12.8-8.9-8.9-25.4-53.8-49.6-134.8-9.5-29.6-17.6-49.4-24.4-59.4-6.8-10.1-15.8-15.1-27.1-15.1-19.5 0-29.2 12.1-29.2 36.4 0 15.9 17.8 78.1 53.6 186.6s67.8 196.7 96.2 264.7c22.5 55.5 39 97.5 49.7 125.9 21.2 55 38.4 87.5 51.4 97.5M19932.9 35975.8c8.9 1.8 18.9 2.7 30.2 2.7 26.6 0 49.6-4.1 69.1-12.4 12.4-5.3 26.2-15.4 41.3-30.2q22.5-22.05 29.7-39.9c4.1-10 6.2-20.9 6.2-32.8 0-20.1-5.1-33.4-15.1-39.9-3.5-2.3-10.3-3.5-20.4-3.5-8.3 0-15.8 3.7-22.6 11.1q-10.2 11.1-10.2 24.3c0 7.7-4.9 16.9-14.6 27.5q-14.7 16.05-29.7 20.4-9.75 3.6-23.1 3.6c-29.5 0-61.5-13.3-95.8-39.9-34.2-26.6-60.8-59.1-79.8-97.6-27.7-56.1-42.8-115.8-45.2-179.1 0-2.3-.1-6.2-.4-11.5s-.5-9.2-.5-11.5c0-116.5 38.8-193.9 116.2-232.3 14.2-7.1 26.6-10.7 37.2-10.7 6.5 0 11.9.3 16 .9 17.1 1.8 30.7 5.3 40.8 10.7 10 5.3 21 14.7 32.8 28.3s20.1 24.9 24.8 33.7c4.7 8.9 9.2 22.5 13.3 40.8 8.3 33.7 22.2 50.5 41.7 50.5 8.9 0 17.7-4.4 26.6-13.2 8.3-8.3 12.4-15.7 12.4-22.2 0-1.8-.6-6.8-1.8-15.1-4.7-37.8-19.8-74.2-45.2-109-25.4-34.9-53.8-58.3-85.1-70.1-16-6.5-39.3-10-70-10.6-28.4 0-51.5 4.1-69.2 12.4-53.8 26-94.2 61.8-121 107.3-27 45.5-42.5 103.7-46.6 174.6-.6 5.9-.9 15.1-.9 27.5 0 72.1 13.8 140.1 41.2 204 27.5 63.8 62.3 112 104.2 144.5 16 12.4 35.1 24.2 57.2 35.5 22.2 11.2 40.9 18.3 56.3 21.2" style="fill:#100f0d;fill-opacity:1;fill-rule:nonzero;stroke:none" transform="matrix(.0144 0 0 -.0144 -165.115 659.204)"/><path d="M17415 37523.7c-1.8-1-6.5-2.4-10.1-3.6l-12-4.1-24.4-8.3c-16.5-5.5-33.1-11.3-49.6-17.2-33.3-11.5-66.3-24.1-99.4-36.3-65.9-25.2-131.4-51.4-195.5-79.7-128.8-55.3-252.8-118-371.3-185.3-236.1-135.9-447.9-297.5-611.7-486.4-81.8-94.4-152.1-194.9-209.5-301.1-57.2-106.4-101.4-218.5-133.1-335.7-15.8-58.6-28.4-118.4-38.4-179.2-9.2-60.9-16.2-123.5-20.3-184.9-7.7-123.1-.7-244.3 20-361.6 20-117.5 55.5-231.1 105.1-339.4 48.8-108.7 113.2-211.6 189.6-308.2 152.5-193.9 355.8-359.7 585.5-496.1 115.1-67.9 236.6-129.5 363-183.4 126.3-54.8 257.2-102.4 391.3-144.7 268.3-84.7 548.7-144.9 835.4-193.8l1.3-.3c87.9-15 146.9-98.3 132-186.2-12.8-74.9-75.5-128.9-148.1-133.8-307.2-20.9-619.2-6.9-930.3 43.1-310.7 50.6-621.5 138.1-918.1 278.6-74 35.2-147.5 72.9-219.2 115s-141.9 87.8-210.5 137c-68.6 49.1-135 102.5-198.7 159.9s-124.9 118.6-182.8 183.7c-115.3 130.5-215.8 277.9-296.1 437-79.7 159.5-137.3 330.9-171.9 505.7-34.1 174.9-43.9 352.7-34.7 526.5 4.6 87 15.1 172.2 28.8 258.1 14.7 85.8 34.9 171.2 59.5 255.6 25.2 84.3 55.9 167.4 91.9 248.2 35.9 80.9 77 159.6 123.6 234.6 92.8 150.4 204.8 287.4 329.8 406.6 62.2 59.9 128.5 114.5 196.1 165.8 33.9 25.4 68.2 50.3 103.1 73.7 35.1 23.2 70.6 45.6 106.4 67 71.6 42.9 144.7 82 219.2 116.7 74.3 35.1 149.5 66.8 225.7 94.4 38.1 13.8 76.2 27 114.5 39.4 38.5 12 77 23.5 115.7 34 77.1 21.6 155.1 38.8 233.2 53.9 78.2 14.4 156.6 26.2 235.6 34 39.4 4.3 79.1 6.9 118.9 9.3 19.9.9 39.9 1.7 60.2 2.2 10 .3 20.2.3 30.6.3l33.1.1c85.6 0 155-69.3 155.1-154.9 0-59.3-33.3-110.9-82.2-137z" style="fill:#973b1d;fill-opacity:1;fill-rule:nonzero;stroke:none" transform="matrix(.0144 0 0 -.0144 -165.115 659.204)"/><path d="M17420 37526.2c-3.2-1.6-6.7-3.2-10-4.6-582.2-246.2-1052.4-452.9-1399.7-1024.6-400-658.4-358.2-1515.5 214.9-2020.5 515.8-454.6 1417.2-619.4 1821.3-766.3 110.2-40 125.4-191.7 24.7-251.6-517.3-307.7-1586.2 113.4-1804.8 217.5-1149 547.3-1709.2 1929.5-1009.8 3061.2 270.8 438.1 701.2 747.7 1180 924.3 219.3 80.9 653 248.1 893.4 173 151.4-47.3 322.8-189.2 90-308.4" style="fill:#973b1d;fill-opacity:1;fill-rule:nonzero;stroke:none" transform="matrix(.0144 0 0 -.0144 -165.115 659.204)"/><path d="M16603.9 37331.4c-62.8-38.6-124.4-78.1-184.1-119.5-59.5-41.8-117.3-85.1-172.8-130.5-111-90.9-212.2-190.7-301-298.8-178-216.1-300.3-468.5-362.1-738.7-30.5-135.1-49.1-274.7-52-412.5-3-138 7.5-275.8 35.9-410.7 13.5-67.5 31.7-134.3 53.2-200.2 11.4-32.8 22.8-65.7 35.8-98.1 6.4-16.3 13.1-32.4 20.2-48.4 6.6-16.3 14-32.2 21.3-48.2 58.8-127.9 133.6-250.1 217.5-370l.5-.7c22.8-32.5 14.9-77.4-17.6-100.1-27.1-19-62.7-16.6-87 3.5-241.4 199.4-427.3 480.4-516.9 794.1-45.2 156.6-66.5 320-66.4 482.3-.3 81.2 5.6 162 15.3 242.1 10.8 79.7 25.3 159.1 44.1 237.8 19.8 78.5 44.3 156 73 232 29.2 75.9 64.1 149.6 102.8 221 39.4 71.1 82.6 140.1 131.1 205 48.6 64.8 100.6 126.7 156.8 184.3 111.8 115.6 237.8 215.1 371.5 298.4 66.9 41.7 135.8 79.4 206.3 112.8 70.4 33.8 142.2 63.7 215.3 89.1 36.5 12.7 76.4-6.6 89.1-43.1 11-31.7-2-65.8-29.4-82.7z" style="fill:#ce5e1d;fill-opacity:1;fill-rule:nonzero;stroke:none" transform="matrix(.0144 0 0 -.0144 -165.115 659.204)"/><path d="M20770.4 37324.3c188.1-91.7 362.6-212.1 523.6-355.3 160-144.1 305.8-313.8 419.9-514.4l20.8-38c6.8-12.7 13.3-25.8 19.9-38.8 13.4-25.7 25.3-52.6 37.7-79.2 23.6-53.9 44.4-109.5 62.3-166.8 36.5-114.2 59.9-235 67.3-357.8 1-15.3 1.9-30.9 2.5-46l.4-43.4c0-28.9 1.1-57.8-.9-86.8-1.6-29-2.4-58.1-4.9-87.1-2.7-29-5.8-58-9.1-86.9-15.6-115.7-40.9-230.5-76.6-341.9-36.5-111-82-218.9-136.9-320.8-55.8-101.5-119.2-197.7-189.3-287.1-140.5-179.2-307-330.2-485.1-456-88.9-63.1-181.9-118.5-275.9-169.7-94.4-50.9-191.3-94.8-289.1-134.1-196.1-78.2-397.4-135.1-601-169.1-88.2-14.8-171.7 44.8-186.4 133-11.9 70.9 24.3 138.8 84.8 170.3l4 2.1c85.2 44.2 169.8 86.5 251.8 132.3 81.9 45.8 162.7 92 240.3 141.8 155.6 98.4 301 206.6 432.3 324 261.5 235.7 460.4 514.7 549.9 821.3 23 76.4 39.9 154.5 49.9 233.9 1.8 20 3.8 39.9 6.2 59.8 1.9 20 2.4 40.2 3.8 60.3 1.8 20 1.4 40.4 1.9 60.6l.6 30.4-.7 27.8c-3.2 147.4-39.6 298.1-103 449.3-62.8 151.3-152.8 301.3-257.5 448-105.1 146.9-226 289-352 434.1l-1.9 2.2c-57.8 66.5-50.7 167.3 15.8 225.1 49.8 43.2 118.8 50 174.6 22.9" style="fill:#973b1d;fill-opacity:1;fill-rule:nonzero;stroke:none" transform="matrix(.0144 0 0 -.0144 -165.115 659.204)"/><path d="M21478.8 35049s-112-314.3-378-596.8c-155.7-165.3-397.1-298.2-612.2-407.8z" style="fill:#973b1d;fill-opacity:1;fill-rule:nonzero;stroke:none" transform="matrix(.0144 0 0 -.0144 -165.115 659.204)"/><path d="m21615.4 35000.3-5.3-14.1-4.8-12.2c-3.2-8.1-6.4-15.8-9.6-23.5-6.6-15.5-13.6-30.2-20.5-45.2-14.1-29.5-29-58.4-44.6-86.8-31.6-56.6-65.2-111.7-102.7-164.3-74.4-105.8-158.7-203.4-255.4-291.4-101.2-90.2-211.4-156.3-323.4-212.4-112.1-56-226.6-101.6-342.7-140.9-20.7-7-43.2 4.1-50.2 24.8-5.7 16.9.8 35.1 14.6 45 99.2 70.4 198.1 138.5 290.8 210.8 92.2 72.3 179.7 148.3 247.5 231.2 8.4 9.9 17.2 21.7 25.9 32.7 8.6 11.1 17.4 22 25.8 33.4 16.3 23.2 33.4 45.4 48.7 69.3 32.5 46 61 95 89.5 143.5l20.8 36.8 19.7 37.4c13.1 24.9 25.9 49.9 37.8 75.3 12.4 25.1 23.7 50.6 35 75.9 5.4 12.5 11.1 25.3 16 37.7 2.7 6.3 5.3 12.4 7.7 18.4l6.2 16 2.5 6.4c29.2 74.5 113.3 111.3 187.8 82.1 73.9-28.9 110.7-111.9 82.9-185.9M16875.8 37489.7c-71.4-36.2-143.6-77.7-213.2-120.2-69.9-42.7-138.2-87.7-204.8-134.8-66.5-47-131.2-96.2-193.7-147.5-62.5-51.1-122.7-104.5-179.5-160.4-114.1-111.1-215.8-232-295.1-360.7-39-64.6-73.5-130.5-99.4-197.9-25.5-67.4-43.9-135.5-54.7-203.2-16.2-101.8-111.9-171.1-213.6-154.8-101.7 16.2-171 111.8-154.8 213.6 1.3 8 3.1 15.9 5.3 23.5l.5 1.4c28.4 94.1 66.8 183.1 112.3 266.1 46 82.9 100 158.6 157.4 229.5l44.1 52.1 46 49.6c15.1 16.8 31.4 32 47.2 47.8 15.9 15.7 31.7 31.4 48.3 46.1 64.9 60.7 133.5 115.7 203.3 167.7 69.8 52.1 141.7 100.3 215.1 145.2 73.2 45.1 147.7 87.2 223.4 126.7 75.6 39.4 152.3 76.1 230.1 110.2 78 34.2 155.5 65.8 237.5 94.3 26.6 9.2 55.6-4.9 64.8-31.5 8.4-24.4-2.7-50.8-25.1-62.1z" style="fill:#ce5e1d;fill-opacity:1;fill-rule:nonzero;stroke:none" transform="matrix(.0144 0 0 -.0144 -165.115 659.204)"/></g></svg>