<svg xmlns="http://www.w3.org/2000/svg" xml:space="preserve" width="200mm" height="200mm" viewBox="0 0 200 200"><g style="display:inline"><path d="M11538 2206.1c-75.9 0-151.6 1.3-227.2 4.2-408.2 15.8-1374.56 94.4-1490.96 466.6-104.18 333.1-28.62 442.4-29.67 789.2-.68 223.2 96.62 359.5 76.92 584-14.22 162-516.83 3456.7-572.84 4294.9-34.98 523.4-124.74 1073.9 301.42 1523.8 184.66 195 758.73 423.4 928.23 637.2 171.5 216.4 319.3 453.6 326.6 712.2 13.7 486.7 62.5 1009 27 1515.7-15 214 51.3 540.8 96.7 704.6 34.3 13.2 70.5 18.6 108.1 18.6 150.7 0 323.1-85.7 479.8-87.8 86.3-1.2 173.7-6.3 260.7-6.3 72.1 0 143.9 3.5 214.7 15.4 99.7 16.9 95.6 71.4 150.6 71.4 15.9 0 36.6-4.6 66.1-15.8 120.9-197.7 139-393.5 106-583.5-89.2-514.2 17.8-1075.1 17.1-1571.9-.4-256.7 36.7-506.8 188.3-730.6 139.7-206.1 710.8-396.9 892.6-563.2 478.3-437.1 451.6-951.6 403.2-1494.1-75.2-842.8-532.8-4260.1-545.7-4440.7-14.8-205.8 87.8-349.6 78.1-546.7-14.9-302.8-8.3-287.1-23.1-585.6-7-139.7 36-292.9-118.5-393.3-218.1-141.9-628.1-264.6-899.5-283.2-269.9-18.5-543-35.1-814.7-35.1" style="fill:#eaf8f6;fill-opacity:1;fill-rule:nonzero;stroke:none" transform="matrix(.01295 0 0 -.01295 -49.881 219.054)"/><path d="m11367.3 14260 11.8-2914.6c.4-94.2-9.6-169-109.3-165.2-1.3.1-2.5.1-3.7.2-93.9 3.6-168.8 76.5-169.8 165.2l-106.5 2931.4z" style="fill:#fff;fill-opacity:1;fill-rule:nonzero;stroke:none" transform="matrix(.01295 0 0 -.01295 -49.881 219.054)"/><path d="M12565.6 10547.9c-122.2 180.4-194.9 377.8-190.7 582-269.2-31.3-450.4-55.3-793.3-48.9-397.7 7.5-528.7 72.7-731 141.5 0-1.5-.1-2.9-.1-4.3-7.3-258.6-155.1-495.8-326.6-712.2-169.5-213.8-743.57-442.3-928.22-637.2-426.17-449.9-336.41-1000.4-301.43-1523.8 56-838.2 558.63-4132.9 572.84-4294.9 19.71-224.5-77.59-360.8-76.92-584 1.05-346.9-74.51-456.1 29.67-789.2 116.4-372.2 1082.76-450.9 1490.96-466.6 346.1-13.3 696.6 7.3 1041.9 30.9 271.4 18.6 681.3 141.3 899.5 283.2 154.5 100.4 111.5 253.6 118.5 393.3 14.8 298.5 8.2 282.8 23.1 585.6 9.7 197.1-92.9 340.9-78.1 546.7 12.9 180.6 470.5 3597.9 545.7 4440.7 48.4 542.5 75.1 1057-403.2 1494.1-181.8 166.3-752.9 357-892.6 563.1" style="fill:#973b1d;fill-opacity:1;fill-rule:nonzero;stroke:none" transform="matrix(.01295 0 0 -.01295 -49.881 219.054)"/><path d="M10569.1 10067.3s-823.63-657.3-794.29-1398.7c28.42-718.1 505.29-4849 505.29-4849l675.4-116.2s-350.8 4704-254.2 5126.2c98.3 430.2 301.1 1284.3-132.2 1237.7m2414.3-6052.8-1.9.1c-52.1.7-92.5 32.9-90.3 72l410.4 5091c3 49.5 53.3 88.3 111.9 88 58.8-1 103.9-41.9 100.7-91.4l-433.9-5090.3c-2.4-38.6-45.6-69.4-96.9-69.4" style="fill:#b6812f;fill-opacity:1;fill-rule:nonzero;stroke:none" transform="matrix(.01295 0 0 -.01295 -49.881 219.054)"/><path d="M10090.6 3858.4s-67.5-147.2-47.9-389c19.4-238.9 49.1-1026.1 49.1-1026.1s244.6-75.9 350.8-90.3c106-14.4 342.9-32.5 342.9-32.5l-2.4 1410-408.5 69.6z" style="fill:#b6812f;fill-opacity:1;fill-rule:nonzero;stroke:none" transform="matrix(.01295 0 0 -.01295 -49.881 219.054)"/><path d="M11718.5 3638.6c-523.2 0-1145.3 62.8-1677 204-14.4 3.8-23 18.6-19.2 33s18.5 23 33 19.2c904.1-240 2069.5-252.3 2550-113.3 14.3 4.2 29.3-4.1 33.5-18.4 4.1-14.3-4.2-29.3-18.5-33.4-203.3-58.9-527.2-91.1-901.8-91.1" style="fill:#231f20;fill-opacity:1;fill-rule:nonzero;stroke:none" transform="matrix(.01295 0 0 -.01295 -49.881 219.054)"/><path d="M13109.5 3755.6s122.5 0 124.4-207.9c1.8-205.7-57.2-957.1-57.2-957.1s-43.4-72.9-135.2-94.7c-91.7-21.7 68 1259.7 68 1259.7" style="fill:#b6812f;fill-opacity:1;fill-rule:nonzero;stroke:none" transform="matrix(.01295 0 0 -.01295 -49.881 219.054)"/><path d="m13505.6 8041.3-264.3-2435.4c-4.2-38.1-18.2-74.1-40.2-106.6l-.2-.1c-42.9-63.7-116.8-113.8-206.9-137.7-11.8-3.1-23.7-5.8-35.9-8.1-715.3-128.8-1378.6-155-2113-64.4-202.9 24.9-411.7 58.9-628.7 102.1-43.3 8.6-83.4 23.1-118.7 42.4-86.9 46.9-145.73 122.2-155.64 207l-283.25 2436.2c-12.72 108.8 44.15 206.4 138.42 266.8 74.38 47.6 171.74 72 276.37 60.4 209.1-23.4 413.3-42.5 613.6-57.6 828.9-62.6 1598.5-55.3 2413.3 20.5 47.2 4.3 92.7 1.5 135.1-7.6 81.3-17.4 151.3-57 199.7-110.8 51.3-56.7 78.7-129 70.3-207.1" style="fill:#b2d88e;fill-opacity:1;fill-rule:nonzero;stroke:none" transform="matrix(.01295 0 0 -.01295 -49.881 219.054)"/><path d="M10845.1 5289c-202.9 24.9-411.7 58.9-628.7 102.1-43.3 8.6-83.4 23.1-118.7 42.4-111.54 1007.8-246.08 2259.9-300.47 2910 74.38 47.6 171.74 72 276.37 60.4 209.1-23.4 413.3-42.5 613.6-57.6 12-719.1 90-2027.6 157.9-3057.3m2590.2 2959.4-234.2-2749.1-.2-.1c-42.9-63.7-116.8-113.8-206.9-137.7l241.6 2997.7c81.3-17.4 151.3-57 199.7-110.8" style="fill:#d8eebb;fill-opacity:1;fill-rule:nonzero;stroke:none" transform="matrix(.01295 0 0 -.01295 -49.881 219.054)"/><path d="M10022 8379.7c-102.68 0-198.73-36.5-263.63-101.7-55.25-55.5-81.06-125.9-72.67-198.1l283.18-2436.2c12.52-107.6 114.12-198.5 252.82-226.1 978.9-194.9 1795.9-206.1 2731.5-37.6 142 25.6 249.4 119.7 261.2 228.8l264.4 2435.4c7.7 71.1-17.8 140.4-71.8 195.2-72.8 73.9-186.4 111.5-304 100.5-1016.9-94.7-1952.1-83.2-3032.4 37.1q-24.45 2.7-48.6 2.7m1671.1-3171.8c-476.3 0-955.9 52-1482 156.8-161.7 32.1-280.62 141.8-295.85 272.8l-283.17 2436.1c-10.34 88.9 20.93 175.1 88.02 242.5 86.55 86.9 219.8 129.7 356.5 114.5 1076.5-119.9 2008.4-131.2 3021.3-36.9 133.6 12.4 263.5-31.1 347.5-116.4 65.6-66.6 96.5-151.5 87-238.9L13268.1 5603c-14.6-134.9-137.3-245.9-305.3-276.1-439.7-79.2-853.4-119-1269.7-119" style="fill:#231f20;fill-opacity:1;fill-rule:nonzero;stroke:none" transform="matrix(.01295 0 0 -.01295 -49.881 219.054)"/><path d="M11660.7 6105.4c0-21.3-17.3-38.7-38.7-38.7-21.3 0-38.7 17.4-38.7 38.7 0 21.4 17.4 38.7 38.7 38.7 21.4 0 38.7-17.3 38.7-38.7m85.5-55.8c16.1 8 35.7 1.2 43.5-15l.1-.3c5-10.2 10-20.4 15.2-30.4 10.5-20.2 21.6-40.1 33.2-59.7 23.2-39.2 48.8-77.2 77.2-112.8 14.2-18 29.4-35 45.2-51.4 15.8-16.5 32.8-31.8 50.8-45.9 35.6-28.5 76.7-51.1 122.2-61.9-46.5 4.9-91.8 22.6-132.3 47.3q-30.6 18.3-58.5 40.8c-18.5 14.8-36.5 30.5-53.5 47.2-34.2 33.1-65.7 69.1-95 106.6-14.6 18.8-28.8 38.1-42.3 57.7-6.9 9.8-13.5 19.8-20.1 29.8l-.4.7c-10.4 16.2-4.4 37.8 12.8 46.4zm-56.6 157.9c8.6 15.7 17.6 31 26.8 46.2l.6.6c14.1 17.2 30.6 33.2 51.1 45 20.4 11.7 45.4 18.7 71.2 15.3 12.8-1.6 25.3-5.9 36.5-11.8 11.2-5.8 21.2-13.1 30.2-21.1 17.8-16.1 32.2-34.1 45.4-52.4 25.9-36.8 47.2-74.7 70-110.7 22.5-35.9 46.7-70.2 75.2-97.1 14.1-13.6 29.3-24.8 44.9-33.5 7.9-4.3 15.8-8.2 24-11.2 8.1-2.9 16.5-5.2 25-6.9 8.5-1.6 17.2-2.8 26.1-3.1 9.1-.5 18.2-.2 27.4.6 18.3 1.7 36.6 6.1 54.6 12.9 36.1 13.4 70.4 36.3 102.1 63.4 31.8 27.2 61.2 58.6 88.3 93-3.2-10.5-7.2-20.8-11.6-30.9-4.4-10.2-9.2-20.2-14.5-29.9-10.4-19.7-22.7-38.4-36.2-56.5-27.2-35.9-61.4-68.6-104-91.5-21.3-11.2-44.6-20-69.1-24.7-12.2-2.4-24.7-3.7-37.2-4-12.7-.3-25.6.6-38.4 2.8-25.5 4.3-50.2 14.4-71.4 28.1-21.5 13.6-39.5 30.7-55 48.5-15.7 17.9-29 36.9-41.2 55.9-12.3 19.1-23.3 38.4-34 57.6-21.2 38.5-40.2 77.3-62 112.7-10.8 17.7-22.3 34.5-35.6 48.5-13.2 14.1-28.1 25-45.1 28.9-8.4 2.1-17.8 2.5-27 1.6-9.3-.8-18.6-3.4-27.7-6.9-18.5-7.1-36-18.8-52.7-31.9l.6.6c-12.1-12.9-24.5-25.7-37.3-38.1m1155.9-362.3c0-14.6-11.9-26.5-26.5-26.5-14.7 0-26.6 11.9-26.6 26.5 0 14.7 11.9 26.5 26.6 26.5 14.6 0 26.5-11.8 26.5-26.5m-2481.2 79.4c0-33.5-27.2-60.7-60.7-60.7s-60.7 27.2-60.7 60.7c0 33.6 27.2 60.8 60.7 60.8s60.7-27.2 60.7-60.8m2648.1 0c0-33.5-27.2-60.7-60.7-60.7s-60.7 27.2-60.7 60.7c0 33.6 27.2 60.8 60.7 60.8s60.7-27.2 60.7-60.8m-254-60.4c-5.6-25.1-40.8-38.5-78.6-30-37.9 8.5-138.9 78.4-138.9 78.4s121.3 20.7 159.1 12.2c37.9-8.5 64-35.6 58.4-60.6m-1262.9 166.2c-16.1 8.1-35.7 1.3-43.5-15l-.1-.3c-5-10.1-10-20.3-15.2-30.4-10.5-20.1-21.6-40.1-33.2-59.7-23.3-39.2-48.8-77.1-77.3-112.8-14.1-17.9-29.3-34.9-45.1-51.3-15.9-16.5-32.8-31.8-50.8-46-35.7-28.4-76.7-51-122.2-61.9 46.5 5 91.8 22.7 132.3 47.3 20.4 12.2 39.9 25.9 58.5 40.8 18.5 14.9 36.5 30.6 53.5 47.2 34.2 33.2 65.7 69.1 95 106.7 14.6 18.8 28.7 38 42.3 57.7 6.9 9.8 13.5 19.7 20.1 29.8l.4.7c10.4 16.1 4.4 37.7-12.8 46.3zm71.7 177.1c-8.5 15.6-17.5 31-26.8 46.1l-.6.7c-14 17.2-30.5 33.1-51.1 45-20.4 11.7-45.4 18.7-71.2 15.3-12.8-1.6-25.3-6-36.4-11.8-11.2-5.9-21.3-13.1-30.2-21.1-17.9-16.1-32.3-34.2-45.5-52.4-25.9-36.8-47.1-74.7-69.9-110.7-22.6-35.9-46.8-70.3-75.3-97.2-14.1-13.5-29.3-24.7-44.9-33.5-7.9-4.2-15.8-8.1-23.9-11.1-8.2-3-16.5-5.3-25-6.9-8.6-1.7-17.3-2.8-26.2-3.1-9.1-.5-18.2-.2-27.4.6-18.2 1.7-36.6 6-54.6 12.9-36.1 13.4-70.4 36.2-102.1 63.3-31.8 27.3-61.1 58.7-88.3 93.1 3.2-10.5 7.2-20.8 11.7-30.9 4.3-10.2 9.2-20.2 14.5-29.9 10.3-19.7 22.6-38.4 36.1-56.6 27.3-35.8 61.4-68.5 104-91.4 21.3-11.2 44.6-20 69.1-24.7 12.2-2.4 24.7-3.7 37.3-4.1 12.6-.2 25.5.7 38.3 2.9 25.5 4.3 50.2 14.4 71.5 28.1 21.4 13.6 39.4 30.6 55 48.5s28.9 36.8 41.2 55.9c12.2 19.1 23.3 38.4 33.9 57.6 21.3 38.5 40.2 77.2 62 112.6 10.8 17.7 22.4 34.6 35.6 48.6s28.2 25 45.2 28.9c8.3 2.1 17.7 2.5 26.9 1.5 9.3-.7 18.6-3.3 27.8-6.9 18.4-7 35.9-18.7 52.6-31.9l-.6.7c12.1-12.9 24.5-25.7 37.3-38.1m-1155.9-362.3c0-14.7 11.9-26.5 26.6-26.5 14.6 0 26.5 11.8 26.5 26.5 0 14.6-11.9 26.5-26.5 26.5-14.7 0-26.6-11.9-26.6-26.5m87.1 18.9c5.6-25 40.8-38.4 78.7-29.9 37.8 8.4 138.8 78.4 138.8 78.4s-121.3 20.6-159.1 12.2c-37.8-8.5-64-35.6-58.4-60.7m288.9 7.6c-27.1-16.4-52.9-35.5-77.5-56.1-24.6-20.8-47.9-43.5-69.6-68.1-22-24.4-41.3-51.7-58.8-80.7l-12.5-22.3c-3.9-7.6-7.2-15.5-10.9-23.3l-2.6-6.7c-8.4-22.1 5.2-46.4 28.4-51 21.1-4.1 41.5 10 45 31.3 1.8 11.5 3.6 21.8 4.3 24.5l6.2 21.1c9.3 28 20.7 56.1 35.6 82.7 14.6 26.8 31.4 52.9 50.2 77.8 18.9 24.9 39.4 48.8 62.2 70.8m11.3 66.8c-29.2 12.4-57.4 27.6-84.7 44.6s-53.6 36.2-78.6 57.5c-25.2 21-48.2 45.3-69.6 71.5l-15.5 20.3c-5 6.9-9.4 14.3-14.2 21.5l-3.4 6.2c-11.5 20.7-1.6 46.8 20.8 54.6 20.3 7.1 42.5-4.1 48.9-24.6 3.5-11.1 6.7-21.1 7.8-23.7l9.2-20c13.1-26.3 28.4-52.5 46.9-76.8 18.3-24.4 38.6-47.9 60.8-69.9 22.2-21.9 45.9-42.7 71.6-61.2m1677.8-66.8c27.1-16.4 52.9-35.5 77.5-56.1 24.6-20.8 47.9-43.5 69.6-68.1 22-24.4 41.3-51.7 58.7-80.7l12.5-22.3c4-7.6 7.3-15.5 11-23.3l2.5-6.7c8.5-22.1-5.1-46.4-28.3-51-21.1-4.1-41.5 10-45 31.3-1.9 11.5-3.6 21.8-4.3 24.5l-6.3 21.1c-9.2 28-20.6 56.1-35.5 82.7-14.6 26.8-31.5 52.9-50.3 77.8s-39.3 48.8-62.1 70.8m-20.5 69.7c30.6 8.6 60.5 20.1 89.7 33.5s57.7 29.1 85.2 47c27.7 17.7 53.5 38.9 78.1 62.2l18 18.1c5.8 6.3 11.2 13 16.8 19.6l4.2 5.7c14 19.1 7.4 46.2-13.7 56.7-19.3 9.7-42.7 1.4-51.7-18.1-4.9-10.6-9.3-20.1-10.7-22.5l-11.7-18.7c-16.3-24.5-34.8-48.5-56.3-70.2-21.2-22-44.3-42.7-69.1-61.7-24.8-18.9-50.9-36.5-78.8-51.6m-803.3-154.9c0-42.8-30.6-269-30.6-269s-30.6 226.2-30.6 269c0 42.7 30.6 231.2 30.6 231.2s30.6-188.5 30.6-231.2m37 2013.5c0-54.8-60.9-282.4-60.9-282.4s-61 227.6-61 282.4c0 54.7 27.3 99.2 61 99.2 33.6 0 60.9-44.5 60.9-99.2m10.1 257.2c0-37.3-31.8-67.5-71-67.5s-71 30.2-71 67.5 31.8 67.5 71 67.5 71-30.2 71-67.5m40.2-472.9c12.3 20.4 26 40.5 40.5 60.4s30.1 39.6 47.3 59c17 19.4 35.5 38.5 57.4 56.8 11.8 9.9 24.2 19.7 38.5 29.1 19.6 12.8 52.5 9.9 65.5-6.2 10.3-12.5 3.6-27.9-14.8-35.4-13.3-5.4-26.7-11.9-39.5-18.7-24.5-12.9-47.8-27.8-70.2-43.5-22.4-15.6-44-32.1-64.8-49.1-20.7-17-40.9-34.4-59.9-52.4m-202.1 0c-12.3 20.4-26 40.4-40.5 60.4-14.5 19.9-30.1 39.6-47.3 58.9-17 19.4-35.5 38.5-57.4 56.9-11.8 9.8-24.2 19.7-38.5 29-19.6 12.9-52.5 9.9-65.6-6.1-10.2-12.5-3.5-27.9 14.9-35.4 13.3-5.5 26.6-11.9 39.5-18.8 24.5-12.9 47.8-27.8 70.2-43.4 22.4-15.7 44-32.1 64.7-49.1 20.8-17 41-34.4 60-52.4" style="fill:#316039;fill-opacity:1;fill-rule:nonzero;stroke:none" transform="matrix(.01295 0 0 -.01295 -49.881 219.054)"/><path d="M10891.9 13434.2c-4.1-66.1 1.5-216.7 6.9-362.8 4.2-114.5 8.6-232.9 8.9-320.7 1.5-441.2-11.6-890-24.2-1324.1-2-70.5-4.1-140.3-6-209.2-8-283.7-181.9-538.2-332.5-728.2-93.6-118.2-302.3-238.1-504.1-354.2-176.01-101.2-342.25-196.7-425.62-284.8-377.89-398.9-340.81-884.9-304.96-1354.9 3.79-49.7 7.57-99.2 10.86-148.5 40.63-608 320.31-2536 470.57-3571.8 59.19-408 98.28-677.5 102.23-722.5 10.99-125.2-13.37-225-36.91-321.6-19.77-81-40.2-164.8-39.9-264.7.35-115.4-7.71-205-14.82-284.1-14.54-161.8-25.05-278.8 43.26-497.2 114.9-367.3 1151.39-435.5 1466.29-447.6 348-13.4 704.1 7.9 1038.9 30.9 277.4 19 683.5 146.7 886.7 278.8 110.7 72 108.5 170.5 106 284.5-.6 28.7-1.2 58.4.2 87.6 7.4 149.2 9.5 221.2 11.5 290.9 2.1 70.4 4.2 143.2 11.6 294.7l27-1.4-27 1.4c4.5 91.6-16.2 170.8-38.2 254.6-23.4 89.6-47.7 182.4-39.8 292.6 4.6 65.4 64.3 529.5 146.8 1171.9 148 1151.5 350.7 2728.5 398.9 3269.3 52 582.1 55.9 1060.1-394.5 1471.8-74.6 68.1-219.8 142.1-373.7 220.4-215.7 109.7-438.8 223.2-523 347.5-150.9 222.7-176.7 468.8-193 744.3l-8.1 136.2c-32.3 539.8-55.7 929.7-23.5 1438.9 10.7 169 4.4 398.5.2 550.3l-.9 35.2c-58.1 17.2-94.8-3.9-144-32.2-36.2-20.8-77.1-44.4-132-53.7-122.1-20.6-247.5-16.5-368.7-12.5-36.7 1.2-74.6 2.5-111.5 3-80.4 1.1-178.2 24.2-281.7 48.6-142.6 33.7-289.9 68.5-388.2 43.3m645.5-11255c-76 0-152 1.2-227.6 4.2-415.1 15.9-1393.69 95.2-1515.72 485.4-71.52 228.7-60.04 356.4-45.5 518.1 7 78 14.94 166.3 14.6 279.1-.32 106.5 20.9 193.6 41.43 277.7 23.55 96.6 45.79 187.8 35.6 304-3.83 43.6-44.97 327.1-101.89 719.6-150.37 1036.5-430.25 2965.8-471.01 3575.9-3.29 49.1-7.05 98.5-10.82 148-36.75 481.7-74.75 979.9 319.59 1396.2 88.81 93.7 258.38 191.2 437.92 294.4 197.4 113.5 401.5 230.9 488.7 340.9 145.4 183.5 313.3 428.4 320.8 696.2 2 68.9 4 138.7 6 209.3 12.6 433.6 25.7 881.9 24.2 1322.4-.3 86.8-4.6 204.8-8.9 318.8-6.2 170.4-12.2 331.3-4.9 388.8l2.1 16.6 15.8 5.5c112.6 39.2 276.4.5 434.7-36.9 100.5-23.7 195.5-46.1 270-47.1 37.4-.6 75.6-1.8 112.6-3 118.6-3.9 241.1-8 357.9 11.7 45.3 7.7 80.3 27.8 114.1 47.3 56.5 32.5 115 66.2 207.2 29.9l16.7-6.6 1.9-71.6c4.2-152.8 10.5-383.7-.3-555.2-32-505.9-8.7-894.4 23.5-1432.2l8.1-136.4c15.8-267.3 40.6-505.7 183.8-717.1 76.4-112.8 302.9-228 502.8-329.7 157.2-80 305.7-155.6 385.7-228.7 505.8-462.4 455.9-1022.3 411.8-1516.3-48.3-541.9-251.1-2119.5-399.1-3271.4-79.3-617.4-142-1105.1-146.6-1168.9-7.2-101.4 14.9-185.8 38.3-275.1 22-84.1 44.8-171.1 39.9-271-7.5-150.9-9.6-223.4-11.6-293.5-2-70-4.1-142.3-11.6-292.1-1.3-27.2-.7-56-.1-83.8 2.5-113.6 5.3-242.5-130.6-330.8-213.2-138.7-622.5-267.6-912.4-287.5-263.8-18.1-540.7-35.1-817.1-35.1" style="fill:#231f20;fill-opacity:1;fill-rule:nonzero;stroke:none" transform="matrix(.01295 0 0 -.01295 -49.881 219.054)"/><path d="M12395.3 14899.3v-2862.2s-199.6-134.4-728.8-130.1c-139.6 1.2-262.3 14.6-367.2 33.6-149.4 27.2-262.8 65.8-337.5 96.9-70.3 29.2-147.8 60.7-147.8 60.7l45.6 2870.4 102.2-4.6 337.5-15.2z" style="fill:#418533;fill-opacity:1;fill-rule:nonzero;stroke:none" transform="matrix(.01295 0 0 -.01295 -49.881 219.054)"/><path d="M11386.1 14930.7v-3008.2c-149.4 27.2-262.8 65.8-337.5 96.9v2926.5z" style="fill:#b2dd80;fill-opacity:1;fill-rule:nonzero;stroke:none" transform="matrix(.01295 0 0 -.01295 -49.881 219.054)"/><path d="M10862.1 12112.1c63.6-34 353.5-174.4 804.7-178.1 442.4-3.6 651.6 91.8 701.5 118.7v2820.8l-1481.8 67zm829.5-232.2c-8.3 0-16.8 0-25.3.1-526.6 4.3-832.5 185.5-845.3 193.2l-13.1 7.9.1 15.4 25 2900.4 1589.3-71.8v-2902.4l-11.9-8c-8.3-5.6-206.1-134.8-718.8-134.8" style="fill:#231f20;fill-opacity:1;fill-rule:nonzero;stroke:none" transform="matrix(.01295 0 0 -.01295 -49.881 219.054)"/><path d="m12492.2 14477.6-.7-243.1c0-137-91.3-256.8-223.1-294.5-328.7-94.1-662.2-109.7-1000-52-83.4 14.1-166.8 32.7-250.8 55.7-23.8 6.6-46.3 15.8-67.2 27.4-96.4 52.8-159.3 154.5-159.3 268.1l3.9 233.9c0 36.2 6.8 71.9 19.7 105.6l-4.4 120.4-4.2 14.2c-5 17.9-7.8 36.4-8.1 55.1l-6.9 612.9h1700.4v-638.2c0-34-7.6-67.6-22-98.2l-1-77 1.1-2.2c14.9-27 22.6-57.4 22.6-88.1" style="fill:#418533;fill-opacity:1;fill-rule:nonzero;stroke:none" transform="matrix(.01295 0 0 -.01295 -49.881 219.054)"/><path d="m10818.4 15354.3 6.6-585.6c.3-16.1 2.7-32.3 7.1-48.1l5.1-17.1 4.6-129.3-1.9-5.1c-11.9-31.1-17.9-63.4-17.9-96l-3.9-234.4c0-101.2 55.6-194.8 145.2-243.9 19.6-10.8 40.3-19.2 61.4-25 83.8-23 167.3-41.5 248.1-55.1 336.1-57.4 668.5-40.2 988.2 51.2 119.8 34.4 203.5 144.8 203.5 268.6l.7 243.2c0 26.2-6.7 52.2-19.2 75l-4.6 8.6 1.2 89.8 2.5 5.3c12.7 26.9 19.4 56.9 19.4 86.7v611.2zm840.4-1526.8c-130.8 0-262.6 11.3-395 33.9-82.6 13.9-167.8 32.9-253.3 56.3-25.3 6.9-49.9 16.9-73.2 29.7-106.8 58.6-173.2 170.4-173.2 291.8l3.9 234.4c0 36.9 6.5 73.9 19.5 109.5l-4 111.6-3.3 10.9c-5.8 20.6-8.9 41.5-9.2 62.4l-7.2 640.3h1754.7v-665.2c0-35.7-7.7-71.6-22.1-104.3l-.9-64.3c15.5-29.5 23.7-63 23.7-96.9l-.7-243.1c0-147.7-99.8-279.5-242.7-320.5-201.5-57.6-407.9-86.5-617-86.5" style="fill:#231f20;fill-opacity:1;fill-rule:nonzero;stroke:none" transform="matrix(.01295 0 0 -.01295 -49.881 219.054)"/><path d="M11268.4 13888c-83.4 14.1-166.8 32.7-250.8 55.7-23.8 6.6-46.3 15.8-67.2 27.4l-34.5 1281.4 71.2 128.8 4.8 8.6 46-8.6 203.6-38.4z" style="fill:#b2dd80;fill-opacity:1;fill-rule:nonzero;stroke:none" transform="matrix(.01295 0 0 -.01295 -49.881 219.054)"/><path d="M11652.9 14484.7c-415.3 0-762.8 87.8-837.2 200.3-1.4-26.8-.7-80.3 4.3-107.4 79.3-110.7 417.7-189.7 828.6-189.7 417.8 0 752.6 67.8 821.3 177.2 1.8 20.1-1.5 54.8-2.3 88.1-110.1-97.9-435.4-168.5-814.7-168.5" style="fill:#316039;fill-opacity:1;fill-rule:nonzero;stroke:none" transform="matrix(.01295 0 0 -.01295 -49.881 219.054)"/><path d="M10845.6 14588.6c70.6-87.1 365.3-173.7 803-173.7 401.6 0 725.3 65.1 794.8 159.2.2 7.6-.1 17.3-.6 27.9-144-87.5-448.6-144.3-789.9-144.3-364.6 0-677.3 64.8-810 162.5.6-11.7 1.5-22.8 2.7-31.6m803-227.7c-422.6 0-764.4 80.8-850.5 201l-3.5 4.9-1.1 5.9c-5.5 29.5-6.3 85-4.7 113.7l4.3 81.7 45.1-68.2c60.3-91.2 366.4-188.2 814.7-188.2 362.1 0 689.8 66.5 796.8 161.6l43.5 38.8 1.4-58.3c.3-11.7.9-23.6 1.4-35 1.1-22.1 2.1-41.3.8-56l-.5-6.5-3.5-5.5c-87.9-140-493.7-189.9-844.2-189.9" style="fill:#231f20;fill-opacity:1;fill-rule:nonzero;stroke:none" transform="matrix(.01295 0 0 -.01295 -49.881 219.054)"/><path d="M11729.1 14198.7c-11.1 0-22.2.1-33.2.2-375.5 4.8-766.3 86.5-909.1 190.3l31.8 43.6c132.6-96.3 518.3-175.3 878-179.9 387.3-4.8 720.1 72.8 776.5 145.7l42.7-33.1c-82.2-106.1-457.9-166.8-786.7-166.8" style="fill:#231f20;fill-opacity:1;fill-rule:nonzero;stroke:none" transform="matrix(.01295 0 0 -.01295 -49.881 219.054)"/><path d="m10818.4 15354.2 6.6-585.5c.2-16.2 2.6-32.3 7.1-47.9l5-17.4 4.7-129.2-2-5.1c-11.7-30.8-17.8-63.1-17.9-96l-3.8-234.4c0-124.7 85-235.5 206.7-268.9 423.1-116.1 839-117.4 1236.1-3.8 119.9 34.3 203.6 144.7 203.6 268.6l.7 243c0 26.1-6.6 52.1-19.2 75l-4.7 8.5 1.3 90 2.5 5.3c12.7 26.9 19.4 56.9 19.4 86.7v611.1zm841-1526.4c-213.5 0-430.3 30-648.9 89.9-145.1 39.8-246.4 172-246.4 321.5l3.8 234.4c.2 37.3 6.7 74.2 19.6 109.5l-4.1 111.7-3.2 11c-5.8 20.3-8.9 41.2-9.2 62.3l-7.2 640.1h1754.7v-665.1c0-35.7-7.6-71.6-22.1-104.3l-.9-64.3c15.6-29.9 23.7-63.3 23.7-97l-.7-243c0-147.7-99.8-279.5-242.7-320.4-201.3-57.6-407.3-86.3-616.4-86.3" style="fill:#231f20;fill-opacity:1;fill-rule:nonzero;stroke:none" transform="matrix(.01295 0 0 -.01295 -49.881 219.054)"/><path d="M12491.5 15387c0-134.2-380.6-242.9-850.2-242.9-469.5 0-850.2 108.7-850.2 242.9s380.7 242.9 850.2 242.9c469.6 0 850.2-108.7 850.2-242.9" style="fill:#8ec35f;fill-opacity:1;fill-rule:nonzero;stroke:none" transform="matrix(.01295 0 0 -.01295 -49.881 219.054)"/><path d="M11641.3 15602.9c-485.1 0-823.2-113.8-823.2-215.9s338.1-215.9 823.2-215.9c485.2 0 823.2 113.8 823.2 215.9s-338 215.9-823.2 215.9m0-485.8c-425.2 0-877.2 94.6-877.2 269.9s452 269.9 877.2 269.9c425.3 0 877.2-94.6 877.2-269.9s-451.9-269.9-877.2-269.9" style="fill:#231f20;fill-opacity:1;fill-rule:nonzero;stroke:none" transform="matrix(.01295 0 0 -.01295 -49.881 219.054)"/><text xml:space="preserve" x="122.161" y="130.095" style="font-style:normal;font-weight:400;font-size:10.806px;line-height:1.25;font-family:sans-serif;fill:#000;fill-opacity:1;stroke:none;stroke-width:.27015" transform="translate(-37.028 3.943)scale(.9794)"><tspan x="122.161" y="130.095" style="font-style:normal;font-variant:normal;font-weight:700;font-stretch:normal;font-size:12.9672px;font-family:&quot;Annapurna SIL&quot;;-inkscape-font-specification:&quot;Annapurna SIL, Bold&quot;;font-variant-ligatures:normal;font-variant-caps:normal;font-variant-numeric:normal;font-variant-east-asian:normal;fill:#222b00;stroke-width:.27015">Amaro</tspan></text></g></svg>