<svg xmlns="http://www.w3.org/2000/svg" width="200mm" height="200mm" viewBox="0 0 200 200"><path d="M6442.58 18460.3c-642.92 0-1263.85 82.7-1748.4 233-461.1 143-766.81 335-863.14 541.6 3.92 629.7 6.36 1023.6 6.36 1026.1 0 418.9 264.17 716.3 570.06 1060.8 81.66 92 166.11 187.1 247.01 286.9 170.26 210 395.18 665.6 586.98 1189 194.83 531.6 323.85 1043.5 358.96 1420.7 138.5-38.8 277.62-68.2 417.19-88.5h.02c1.16-.2 2.25-.3 3.41-.5h.37c1.02-.2 2.04-.3 3.06-.5.22 0 .47 0 .69-.1.94-.1 1.84-.2 2.78-.4.24 0 .53 0 .77-.1.9-.1 1.79-.2 2.7-.4.29 0 .6 0 .89-.1.87-.1 1.71-.2 2.58-.3.29-.1.64-.1.93-.2.87-.1 1.69-.2 2.56-.3.33-.1.67-.1 1-.2.84-.1 1.61-.2 2.44-.3.39 0 .74-.1 1.13-.1.76-.2 1.55-.3 2.31-.4.42 0 .83-.1 1.25-.1l2.17-.3c.48-.1.94-.2 1.41-.2.66-.1 1.31-.2 1.96-.3.55-.1 1.1-.1 1.65-.2.58-.1 1.21-.2 1.79-.2.57-.1 1.12-.2 1.69-.3.57 0 1.18-.1 1.76-.2s1.18-.2 1.77-.2c.54-.1 1.08-.2 1.63-.2.62-.1 1.26-.2 1.88-.3.47-.1 1.01-.1 1.48-.2l2.11-.3c.39 0 .84-.1 1.24-.1l2.23-.3c.36 0 .82-.1 1.18-.2.79-.1 1.55-.2 2.34-.3.33 0 .66 0 .98-.1l2.54-.3c.25 0 .49-.1.75-.1.93-.1 1.85-.2 2.79-.3.14-.1.28-.1.43-.1 1.01-.1 2.04-.2 3.05-.4h.23c1.08-.1 2.16-.3 3.25-.4h.01c1.14-.1 2.25-.3 3.39-.4h.17q97.65-11.85 195.54-17.7c2.27-.1 4.56-.3 6.83-.4h.09c1.11-.1 2.2-.1 3.31-.2h.17c1.11 0 2.23-.1 3.33-.2h.04c1.1 0 2.25-.1 3.35-.2h.16c1.1 0 2.18-.1 3.28-.1h.17c1.05-.1 2.11-.2 3.16-.2h.47c1.03-.1 2.02-.1 3.05-.2h.28c1.05-.1 2.11-.1 3.17-.2h.27c1.05 0 2.11-.1 3.16-.1.11 0 .23 0 .33-.1 1.04 0 2.05-.1 3.08-.1h.45c1.02-.1 2.04-.1 3.05-.2h.24c1.09 0 2.14-.1 3.23-.1h.1l6.76-.3h.25c8.88-.4 17.73-.8 26.61-1.1h.77c.94 0 1.85-.1 2.79-.1h.62c.85 0 1.67-.1 2.52-.1h1.02c.81-.1 1.6-.1 2.41-.1h1.04c.72-.1 1.47-.1 2.19-.1.47 0 .91 0 1.39-.1h1.92c.51 0 1.05 0 1.56-.1h1.88c.55 0 1.11 0 1.65-.1h1.78c.54 0 1.16 0 1.71-.1h3.56c.55-.1 1.08-.1 1.64-.1h1.79c.55 0 1.14-.1 1.7-.1h1.86c.52 0 1.07 0 1.58-.1h3.43c.7 0 1.41-.1 2.1-.1h1.29c.73 0 1.5 0 2.22-.1h4.71c.8-.1 1.61-.1 2.41-.1h3.6c.31-.1.62-.1.94-.1h3.59c.8 0 1.61 0 2.41-.1h4.56c.88 0 1.72 0 2.6-.1h7.81c1.05-.1 2.1-.1 3.15-.1h7.36c7.06-.1 14.17-.1 21.23-.1 302.61 0 606.15 43 908.46 129.1l.76.3h.03c91.72-865.8 609.57-2260.1 877.87-2616.3 69.51-92.3 151.29-186.5 237.88-286.2 40.57-46.7 81.94-94.3 122.97-142.9 31.99-744.1 65.26-1518.4 97.2-2262.2-108.12-63.9-238.74-123.8-389.61-178-503.99-180.7-1175.23-280.2-1890.07-280.2" style="fill:#fdfeff;fill-opacity:1;fill-rule:nonzero;stroke:none" transform="matrix(.0096 0 0 -.0096 37.979 281.102)"/><path d="M8819.38 18981.1c-.67 15.7-1.36 31.7-2.03 47.4-17.12 398.7-34.58 805.3-51.99 1210.3-11.71 272.6-23.4 544.8-34.94 813.3 198.18-251.3 363.7-526.6 356.26-829.8l-.01-1.7c.1-16.8 1.75-312.6 4.42-792.1h-4.97v-56.3c0-134.1-93.58-268.4-266.74-391.1" style="fill:#eef9f8;fill-opacity:1;fill-rule:nonzero;stroke:none" transform="matrix(.0096 0 0 -.0096 37.979 281.102)"/><path d="M8819.38 18981.1c-.67 15.8-1.35 31.6-2.03 47.4.67-15.7 1.36-31.7 2.03-47.4m-54.02 1257.7c-11.71 272.7-23.41 544.7-34.96 813.3h.02c11.54-268.5 23.23-540.7 34.94-813.3" style="fill:#444648;fill-opacity:1;fill-rule:nonzero;stroke:none" transform="matrix(.0096 0 0 -.0096 37.979 281.102)"/><path d="M8722.26 18918.5c-31.94 743.8-65.21 1518.1-97.2 2262.2 35.62-42.2 70.96-85 105.34-128.6 11.55-268.6 23.25-540.6 34.96-813.3 17.41-405 34.87-811.6 51.99-1210.3.68-15.8 1.36-31.6 2.03-47.4-30.01-21.2-62.39-42.1-97.12-62.6" style="fill:#444648;fill-opacity:1;fill-rule:nonzero;stroke:none" transform="matrix(.0096 0 0 -.0096 37.979 281.102)"/><path d="M5600.41 24218.4c-35.11-377.2-164.13-889.1-358.96-1420.7-191.8-523.4-416.72-979-586.98-1189-80.9-99.8-165.35-194.9-247.01-286.9-305.89-344.5-570.06-641.9-570.06-1060.8 0-12.3-59.52-9557.4-62.05-9963.8.01-84.6 284.29-310.6 916.29-547.1 639.22-239.2 1330.48-376.4 1896.53-376.4 558 0 1201.25 136.8 1764.8 375.5 544.22 230.5 789.02 459.4 789.02 548.4-.07 12.1-54.77 9823.9-55.32 9923l.01 1.7c10.22 416.4-305.79 780.3-584.59 1101.3-86.59 99.7-168.37 193.9-237.88 286.2-268.3 356.2-786.15 1750.5-877.87 2616.3l-.79-.3c-595.74-169.6-1196.19-172.1-1785.14-7.4M6588.17 9261c-579.01 0-1284.66 139.8-1936.01 383.6-278.69 104.3-519.14 217.8-695.35 328.2-197.88 124-294.08 230.3-294.08 324.8.62 99.7 61.93 9933.4 62.04 9963.5 0 461.6 290.71 788.9 598.47 1135.5 80.84 91 164.44 185.1 243.74 283 345.59 426.3 876.98 1825.6 926.78 2619.2l5.21 82.9 75.1-35.5c11.33-5.4 21.87-9.5 32.24-12.4 576.48-166 1164.71-165.9 1748.38.4 17.04 4.8 33.85 12.3 51.38 22.9l78.2 47.4 7.1-91.2c29.63-380.2 161.23-931.1 361.04-1511.4 173.78-504.8 375.42-956.6 501.77-1124.4 67.15-89.1 147.68-181.9 232.95-280 292.03-336.3 623.02-717.4 612.17-1177.1 25.23-4526.4 55.31-9921.9 55.31-9922.8 0-213.2-462.04-484.5-857.72-652.1-576.93-244.3-1236.18-384.5-1808.72-384.5" style="fill:#231f20;fill-opacity:1;fill-rule:nonzero;stroke:none" transform="matrix(.0096 0 0 -.0096 37.979 281.102)"/><path d="M9142.44 19372.2c0-534.8-1208.77-968.2-2699.86-968.2-1349.66 0-2467.91 355.1-2667.92 819.1-15.87-2551.7-55.62-8925.5-55.62-8925.5 0-293.6 1584.58-980.2 2869.13-980.2 1284.52 0 2610.13 686.6 2610.13 980.2 0 .7-37.19 6672.7-50.58 9074.6z" style="fill:#f7efa0;fill-opacity:1;fill-rule:nonzero;stroke:none" transform="matrix(.0096 0 0 -.0096 37.979 281.102)"/><path d="M3829.82 19038.7c-16.56-2660.5-54.46-8741.5-54.46-8741.5 0-84.6 284.28-310.6 916.28-547.1 639.21-239.2 1330.48-376.4 1896.53-376.4 558 0 1201.25 136.8 1764.8 375.5 544.22 230.5 789.02 459.4 789.02 548.4-.06 10.1-34.62 6210.6-48.99 8786.4-129.48-170.7-375.22-325-722.32-449.5-515.89-185-1200.64-286.9-1928.1-286.9-1208.78 0-2245.25 282.3-2612.76 691.1M6588.17 9261c-579.02 0-1284.66 139.8-1936.01 383.6-278.7 104.3-519.14 217.8-695.35 328.2-197.89 124-294.08 230.3-294.08 324.8 0 .3 39.74 6374.2 55.62 8925.8l1.67 268.6 106.35-246.7c90.79-210.5 398.98-406.6 867.81-552 484.55-150.3 1105.48-233 1748.4-233 714.84 0 1386.08 99.5 1890.07 280.2 478.85 171.8 753.47 402 753.47 631.7v56.3h117.59l.31-56c10.25-1837.4 50.59-9073.8 50.59-9074.9 0-213.2-462.04-484.5-857.72-652.1-576.93-244.3-1236.18-384.5-1808.72-384.5" style="fill:#231f20;fill-opacity:1;fill-rule:nonzero;stroke:none" transform="matrix(.0096 0 0 -.0096 37.979 281.102)"/><path d="M7484.58 27206.7c13.75 123.1-46.17 204.6-46.17 204.6h-10.8c.04-1.1.25-2.1.25-3.2 0-171.6-422.32-310.7-943.28-310.7-512.27 0-928.85 134.5-942.62 302.2-19.75-26.5-69.44-80.8-49.47-211.5 8.72-57.2 57.17-559.8 76.23-574.4 3.24-2.5 496.94-271.3 964.21-279.6 451.4-8.1 864.36 249.4 864.36 249.4 16.05 39.2 72.04 486.8 87.29 623.2" style="fill:#c03222;fill-opacity:1;fill-rule:nonzero;stroke:none" transform="matrix(.0096 0 0 -.0096 37.979 281.102)"/><path d="M5615.01 26652.9c91.05-46.9 518.79-255.4 918.93-262.5 376.67-6.7 730.39 181.5 814.67 229.7 17.35 86.3 61.45 426.9 80 592.9 2.68 24 2.02 46-.54 65.5-51.79-55.5-138.85-104.1-258.87-143.6-183.7-60.5-426.83-93.9-684.62-93.9-389.78 0-789.98 79.6-938.8 232.9-2.56-20.8-2.39-46.2 2.37-77.3 2.57-16.8 7.77-64.3 14.97-130.1 12.69-116 37.92-346.4 51.89-413.6m938.98-375.3c-7.34 0-14.69.1-22.06.2-484.45 8.6-993.74 288.4-997.4 291.2-26.67 20.3-33.01 25.2-83.37 485.3-6.51 59.5-12.14 110.8-14.34 125.3-22.36 146.4 32.89 218.3 56.49 249l3.57 4.7 89.04 119 12.17-148.1c8.58-104.6 349.99-250.5 886.49-250.5 246.13 0 476.75 31.3 649.38 88.2 172.84 56.9 235.77 123.7 237.55 164.4-.08 1.1-.15 2.2-.18 3.2l-1.84 58.1h97.41l16.88-22.9c2.98-4.1 72.77-100.9 56.76-244.2-.64-5.7-67.64-580.9-91.14-638.4l-6.89-16.8-15.43-9.6c-17.16-10.7-419.31-258.1-873.09-258.1" style="fill:#231f20;fill-opacity:1;fill-rule:nonzero;stroke:none" transform="matrix(.0096 0 0 -.0096 37.979 281.102)"/><path d="M7427.61 27411.3c-5.27 170.1-425.35 307.5-943.03 307.5-520.95 0-943.27-139.1-943.27-310.7 0-2.9.42-5.7.65-8.5 13.77-167.7 430.35-302.2 942.62-302.2 520.96 0 943.28 139.1 943.28 310.7 0 1.1-.21 2.1-.25 3.2" style="fill:#e9b1a2;fill-opacity:1;fill-rule:nonzero;stroke:none" transform="matrix(.0096 0 0 -.0096 37.979 281.102)"/><path d="m5597.63 27408.9.46-4.7c8.58-104.6 349.99-250.5 886.49-250.5 246.13 0 476.75 31.3 649.38 88.2 172.84 56.9 235.77 123.7 237.55 164.4-.08 1.1-.15 2.2-.18 3.2v.1c-3.28 105.6-342.21 252.9-886.75 252.9-246.13 0-476.75-31.3-649.37-88.2-174.14-57.3-236.71-124.7-237.58-165.4m886.95-367.9c-481.87 0-979.66 121.6-998.74 353.9l-.15 1.5c-.39 3.9-.69 7.8-.69 11.7 0 110.8 108.91 205.3 314.97 273.2 183.7 60.5 426.83 93.8 684.61 93.8 489.85 0 989.57-123.8 999.26-360.4.21-2.2.33-4.4.33-6.6 0-110.9-108.91-205.3-314.97-273.2-183.7-60.5-426.83-93.9-684.62-93.9" style="fill:#231f20;fill-opacity:1;fill-rule:nonzero;stroke:none" transform="matrix(.0096 0 0 -.0096 37.979 281.102)"/><path d="M6493.78 25898.4c396.19 0 744.79 293.3 936.47 432.4 80.95 112.3 114.42 246.5 108.22 275.7-14.64 68.9-119.2 46.2-152.69 30.1-157.23-75.8-508.08-190.7-880.4-190.7-373.78 0-743.82 105.8-907.94 188-33.72 16.9-165.6 54.4-164.74-32.5 0 0 22.38-146.7 109.08-265.6 137.38-111.5 566.7-437.4 952-437.4" style="fill:#c03222;fill-opacity:1;fill-rule:nonzero;stroke:none" transform="matrix(.0096 0 0 -.0096 37.979 281.102)"/><path d="M5583.11 26374.8c161.34-130.2 560.13-420.1 910.67-420.1 337.34 0 639.71 225.5 839.78 374.7 19.86 14.8 38.58 28.7 56.07 41.5 64.75 93.1 91.79 196.2 93.22 224.1-12.69 5.5-51.97.8-72.64-9.2-151.24-72.8-512.01-196.2-904.83-196.2-400.45 0-777.44 116-933.14 193.9-20.49 10.3-62.97 19.3-82.05 16.5 6.42-32.2 31.04-137.3 92.92-225.2m910.67-532.7c-390.91 0-820.81 314.7-987.49 449.9l-5.7 4.7-4.33 5.9c-93.69 128.5-118.24 283.7-119.24 290.3l-.6 3.9-.04 4c-.4 40.4 16.72 73.5 48.21 93.2 64.89 40.5 167.3 5.7 198.07-9.7 140.55-70.4 504.49-182 882.72-182 372.51 0 713.31 116.3 855.95 185 26.53 12.8 109.18 39.1 172.44 8.1 31.24-15.4 52.48-42.8 59.79-77.1 11.93-56.2-36.86-208.3-117.63-320.4l-5.29-7.3-7.31-5.3c-19.25-14-40.11-29.6-62.44-46.2-199.13-148.5-532.4-397-907.11-397" style="fill:#231f20;fill-opacity:1;fill-rule:nonzero;stroke:none" transform="matrix(.0096 0 0 -.0096 37.979 281.102)"/><path d="M6477.1 24209.4c-291.82 0-582.8 41.5-870.79 124.4-10.37 2.9-20.91 7-32.24 12.4l-9.16 4.3c-61.76 32.8-105.15 94.6-114.57 167-62.53 480.7-69.24 897.7-20.51 1274.5 8.67 66.9 17.07 102.5 39.14 127.1 47.65-25.1 120.64-50.3 216.49-82.2l16.94-5.7c144.54-48.2 447.95-101 772.54-102.7 15.85-.1 31.43-.2 46.81-.2 387.81 0 628.25 27 754.27 84.5 18.11 8.2 35.52 16.1 52.14 23.6 58.11 26.2 107.26 48.3 144.85 69.4 32.66-29.8 48.13-64.3 54.24-116.7 45.51-391 40.12-818-16.01-1269.1-7.91-63.6-41.51-118.9-90.7-154.1l-14.47-8.8c-17.53-10.6-34.34-18.1-51.38-22.9-21.69-6.2-43.34-12.2-65.05-17.9-270.53-71.3-541.92-106.9-812.54-106.9" style="fill:#fdfeff;fill-opacity:1;fill-rule:nonzero;stroke:none" transform="matrix(.0096 0 0 -.0096 37.979 281.102)"/><path d="M6477.1 24209.4c-291.83 0-582.81 41.5-870.8 124.4-14.51 4.1-28.36 9.8-41.39 16.7l9.16-4.3c11.33-5.4 21.87-9.5 32.24-12.4 287.99-82.9 578.97-124.4 870.79-124.4m812.54 106.9c21.71 5.7 43.36 11.7 65.05 17.9 17.04 4.8 33.85 12.3 51.38 22.9l14.47 8.8c-19.67-14.1-41.84-24.9-65.85-31.7-21.69-6.2-43.34-12.2-65.05-17.9" style="fill:#444648;fill-opacity:1;fill-rule:nonzero;stroke:none" transform="matrix(.0096 0 0 -.0096 37.979 281.102)"/><path d="M5468.97 25919.1c-22.07-24.6-30.47-60.2-39.14-127.1-48.73-376.8-42.02-793.8 20.51-1274.5 11.41-87.6 72.62-159.8 155.96-183.7 576.48-166 1164.72-165.9 1748.39.4 84.04 23.9 145.48 96.8 156.55 185.8 56.13 451.1 61.52 878.1 16.01 1269.1-6.11 52.4-21.58 86.9-54.24 116.7-37.59-21.1-86.74-43.2-144.85-69.4-16.62-7.5-34.03-15.4-52.14-23.6-131.02-59.8-385.67-86.5-801.08-84.3-324.59 1.7-628 54.5-772.54 102.7l-16.94 5.7c-95.85 31.9-168.84 57.1-216.49 82.2m1008.11-1822.4c-302.29 0-603.55 42.9-901.93 128.8-126.47 36.4-219.3 145.3-236.48 277.5-63.82 490.5-70.54 916.9-20.52 1303.5 10.38 80.2 22.14 171.2 117.96 229.6l35.04 21.3 31.06-26.8c26.25-22.7 142.16-61.3 218.86-86.9l17-5.6c140.65-47 439.14-95.4 737.49-97 393.17-2.2 639.68 22.1 753.72 74.1 18.27 8.4 35.82 16.3 52.59 23.8 73.52 33.2 131.59 59.4 161.89 81l31.8 22.7 32.41-21.8c79.31-53.5 119.76-121 131.14-218.8 46.56-399.9 41.15-836-16.11-1296-16.65-133.9-109.87-243.9-237.46-280.3-302.27-86-605.86-129.1-908.46-129.1" style="fill:#231f20;fill-opacity:1;fill-rule:nonzero;stroke:none" transform="matrix(.0096 0 0 -.0096 37.979 281.102)"/><path d="M6523.4 25841c-15.68 0-31.66 0-47.84.1-298.35 1.6-596.84 50-737.49 97l-17 5.6c-76.7 25.6-192.61 64.2-218.86 86.9l-31.06 26.8-35.04-21.3c-4.5-2.8-8.82-5.6-12.96-8.5-27.06 36.2-25.81 70.2-24.84 101.9 1.54 50.8 8.13 133.1 70.22 191.9 2.77 2.7 6.18 4.9 10.17 6.8 5.56-8.6 11.42-17.2 17.56-25.6l4.33-5.9 5.7-4.7c166.68-135.2 596.58-449.9 987.49-449.9 374.71 0 707.98 248.5 907.11 397 22.33 16.6 43.19 32.2 62.44 46.2l7.31 5.3 5.29 7.3c7.1 9.9 13.96 20 20.55 30.4 1.22-.4 2.36-.9 3.44-1.4 47.55-23 95.13-110.8 93.62-172.8-1.56-63.9-5.81-103-64.27-148.6-6.76 5.2-13.86 10.4-21.3 15.4l-32.41 21.8-31.8-22.7c-30.3-21.6-88.37-47.8-161.89-81-16.77-7.5-34.32-15.4-52.59-23.8-109.35-49.8-340.44-74.2-705.88-74.2" style="fill:#fdfeff;fill-opacity:1;fill-rule:nonzero;stroke:none" transform="matrix(.0096 0 0 -.0096 37.979 281.102)"/><path d="M6493.78 25954.7c-308.92 0-655.34 225.2-843.66 367.7 196.54-34 518.15-119.2 834.97-119.2 318.72 0 630.79 72.7 825.63 109.2-199.86-148.7-492.2-357.7-816.94-357.7" style="fill:#d06549;fill-opacity:1;fill-rule:nonzero;stroke:none" transform="matrix(.0096 0 0 -.0096 37.979 281.102)"/><path d="M6493.78 25842.1c-390.91 0-820.81 314.7-987.49 449.9l-5.7 4.7-4.33 5.9c-6.14 8.4-12 17-17.56 25.6 11.71 5.5 28.52 8 49.86 8 31.43 0 72.61-5.3 121.56-13.8 188.32-142.5 534.74-367.7 843.66-367.7 324.74 0 617.08 209 816.94 357.7 65.14 12.1 117.2 20.3 152 20.3 14.22 0 25.58-1.4 33.76-4.4-6.59-10.4-13.45-20.5-20.55-30.4l-5.29-7.3-7.31-5.3c-19.25-14-40.11-29.6-62.44-46.2-199.13-148.5-532.4-397-907.11-397" style="fill:#444648;fill-opacity:1;fill-rule:nonzero;stroke:none" transform="matrix(.0096 0 0 -.0096 37.979 281.102)"/><path d="M6500.51 25784.7c-8.73 0-17.52 0-26.27.1-333.86 1.7-666.05 66.7-809.22 112.3-144.43 45.9-211.27 89.6-241.87 130.5 4.14 2.9 8.46 5.7 12.96 8.5l35.04 21.3 31.06-26.8c26.25-22.7 142.16-61.3 218.86-86.9l17-5.6c140.65-47 439.14-95.4 737.49-97 16.18-.1 32.16-.1 47.84-.1 365.44 0 596.53 24.4 705.88 74.2 18.27 8.4 35.82 16.3 52.59 23.8 73.52 33.2 131.59 59.4 161.89 81l31.8 22.7 32.41-21.8c7.44-5 14.54-10.2 21.3-15.4-43.11-33.7-115.7-70.9-238.42-124.3-147.91-64.3-460.15-96.5-790.34-96.5" style="fill:#444648;fill-opacity:1;fill-rule:nonzero;stroke:none" transform="matrix(.0096 0 0 -.0096 37.979 281.102)"/><path d="M5504.56 26277.9c-41.18-41.1-48.4-98.8-49.97-150.1-1.56-51.3-3.16-103.7 227.5-177.1 135.54-43.1 458.42-107.9 792.45-109.6 355.14-2 659.4 33.3 793.85 91.8 266.24 115.7 266.8 138.3 268.85 222.6 1.02 41.8-34.74 106-60.51 120-28.85 6.8-146.78-16.5-250.95-37-196.06-38.7-464.58-91.6-740.7-91.6-248.29 0-492.76 49.8-689.19 89.8-114.58 23.3-256.63 52.2-291.33 41.2m996.9-549.5c-9.13 0-18.3 0-27.51.1-346.64 1.8-683.89 69.7-826.01 114.9-287.85 91.6-308.97 188.1-305.94 287.1 1.3 42.4 4.67 153 87.79 231.8 53.21 50.4 157.57 31.8 388.58-15.3 191.47-39 429.76-87.5 666.71-87.5 265.12 0 527.4 51.7 718.9 89.5 191.7 37.8 271.44 52.2 320.41 28.6 67.73-32.7 127.51-139.9 125.44-224.9-3.71-152-54.03-200.3-336.54-323.1-146.43-63.7-448.6-101.2-811.83-101.2" style="fill:#231f20;fill-opacity:1;fill-rule:nonzero;stroke:none" transform="matrix(.0096 0 0 -.0096 37.979 281.102)"/><path d="M6617.03 23259c-368.54 0-759.6 64.7-1170.54 194.1-95.35 30-198.09 17.8-281.84-33.5l-86.12-52.7-313.92 242.2c-283.62 218.7-422.83 627.4-346.35 1016.8l323.59 1648.2c85.75 436.6 411.63 741.6 792.5 741.6h48.19c30.84 0 55.86-25 55.86-55.9 0-30.8-25.02-55.8-55.86-55.8h-48.19c-326.75 0-607.58-267.9-682.89-651.4l-323.59-1648.2c-68.49-348.9 54.07-713.3 304.97-906.9l252.97-195.2 20.5 12.6c111.4 68.1 247.63 84.4 373.71 44.8 771.99-243.1 1469.4-251.6 2072.76-25.3 129.86 48.7 272.46 36.5 389.3-31.5l252.21 194.6c250.89 193.6 373.45 558 304.97 906.9l-323.59 1648.2c-75.32 383.5-356.14 651.4-682.9 651.4h-48.22c-30.84 0-55.86 25-55.86 55.8 0 30.9 25.02 55.9 55.86 55.9h48.22c380.87 0 706.76-305 792.51-741.6l323.59-1648.2c76.48-389.4-62.73-798.1-346.36-1016.8l-316.32-244.1-33.74 24.2c-92.3 66-212.13 81.2-320.47 40.6-303.55-113.8-629.36-170.8-974.95-170.8" style="fill:#bae7e0;fill-opacity:1;fill-rule:nonzero;stroke:none" transform="matrix(.0096 0 0 -.0096 37.979 281.102)"/><path d="M5341.79 23497.2c37.85 0 75.98-5.8 113.09-17.5 406.32-127.9 797.33-192.7 1162.15-192.7 341.48 0 666.2 56.8 965.14 169 117.13 43.9 246.66 27.4 346.54-44.1l16.86-12.1 299.88 231.4c275.47 212.5 410.5 610 336.01 989.3l-323.59 1648.2c-83.14 423.4-397.76 719.1-765.1 719.1h-48.22c-15.4 0-27.93-12.6-27.93-28s12.53-27.9 27.93-27.9h48.22c340.29 0 632.38-277.1 710.31-674l323.59-1648.1c70.46-359-56.25-734.5-315.32-934.4l-267.08-206.1-16.23 9.5c-110.57 64.3-243.76 75.1-365.46 29.4-609.35-228.5-1312.86-220.1-2090.95 24.8-118.42 37.3-246.26 22-350.74-42l-36.92-22.5-268.19 206.9c-259.08 199.9-385.79 575.4-315.32 934.4l323.59 1648.1c77.92 396.9 370.01 674 710.3 674h48.19c15.4 0 27.93 12.5 27.93 27.9s-12.53 28-27.93 28h-48.19c-367.33 0-681.95-295.7-765.1-719.1l-323.59-1648.2c-74.48-379.2 60.55-776.8 336.01-989.3l298.69-230.5 69.7 42.7c58.01 35.6 124.41 53.8 191.73 53.8m1275.24-266.1c-370.52 0-767.17 65.7-1178.93 195.4-87.67 27.6-182.01 16.4-258.86-30.7l-102.54-62.8-329.15 253.9c-291.82 225.2-435.17 644.8-356.7 1044.4l323.59 1648.2c88.36 449.9 425.52 764.1 819.91 764.1h48.19c46.2 0 83.79-37.6 83.79-83.8s-37.59-83.8-83.79-83.8h-48.19c-313.23 0-582.78-258.6-655.49-628.8L4555.27 24599c-66.49-338.7 51.91-692.1 294.63-879.4l237.74-183.4 4.09 2.5c118.27 72.4 262.85 89.7 396.67 47.6 765.92-241.1 1457.17-249.8 2054.57-25.8 131.45 49.3 274.91 40.3 396.61-24.2l237.65 183.3c242.71 187.3 361.11 540.7 294.62 879.4l-323.59 1648.2c-72.71 370.2-342.25 628.8-655.49 628.8h-48.22c-46.2 0-83.79 37.6-83.79 83.8s37.59 83.8 83.79 83.8h48.22c394.4 0 731.56-314.2 819.92-764.1l323.58-1648.2c78.47-399.6-64.87-819.2-356.7-1044.4l-332.76-256.7-50.62 36.3c-84.71 60.6-194.77 74.5-294.4 37.2-305.24-114.5-636.56-172.6-984.76-172.6" style="fill:#231f20;fill-opacity:1;fill-rule:nonzero;stroke:none" transform="matrix(.0096 0 0 -.0096 37.979 281.102)"/><path d="M5107.66 23008.5c-27.93 0-52.04 20.9-55.38 49.3-6.01 50.8-12.19 101.4-18.3 151.6-42.22 346.9-82.15 674.6-59.57 977.3 11.28 151.1 98.45 284.1 233.19 355.7l169.03 89.8c27.31 14.4 61.06 4.1 75.53-23.1 14.48-27.3 4.15-61.1-23.09-75.6l-169.03-89.8c-100.66-53.5-165.8-152.7-174.2-265.4-21.78-291.6 17.49-614.1 59.06-955.4 6.11-50.4 12.29-101 18.29-152 3.64-30.6-18.25-58.4-48.91-62-2.22-.3-4.44-.4-6.62-.4" style="fill:#bae7e0;fill-opacity:1;fill-rule:nonzero;stroke:none" transform="matrix(.0096 0 0 -.0096 37.979 281.102)"/><path d="M5402.76 24610.7c-4.42 0-8.91-1-13.09-3.2l-168.97-89.8c-126.22-67.1-207.88-191.6-218.43-333.1-22.36-299.7 17.32-625.8 59.33-971l2.09-17.1c5.47-44.9 10.96-90 16.32-135.4 1.79-15.2 15.61-26.3 31.09-24.5 7.32.9 13.95 4.6 18.57 10.5 4.61 5.8 6.67 13.1 5.79 20.5-5.2 44.2-10.53 88.1-15.84 131.8l-2.44 20.1c-41.76 342.9-81.17 666.6-59.19 960.9 9.11 122.3 79.75 229.9 188.94 288l169.04 89.8c13.58 7.2 18.76 24.1 11.53 37.7-5 9.5-14.71 14.8-24.74 14.8m-295.1-1630.1c-42.43 0-78.16 31.8-83.12 73.9-5.35 45.3-10.84 90.4-16.3 135.2l-1.99 16.3c-42.45 348.9-82.46 677.6-59.69 982.7 11.99 160.8 104.68 302.2 247.93 378.3l169.04 89.8c40.88 21.6 91.67 6.1 113.3-34.6 21.67-40.8 6.13-91.7-34.65-113.3l-169.04-89.9c-92.15-48.9-151.76-139.7-159.45-242.7-21.57-288.9 17.52-610 58.91-949.8l2.47-20.4c5.32-43.7 10.66-87.7 15.86-131.9 2.64-22.2-3.54-44.2-17.4-61.7-13.86-17.6-33.74-28.7-55.98-31.4-3.38-.3-6.66-.5-9.89-.5" style="fill:#231f20;fill-opacity:1;fill-rule:nonzero;stroke:none" transform="matrix(.0096 0 0 -.0096 37.979 281.102)"/><path d="M7897.93 23019.2c-5.09 0-10.25.7-15.34 2.2-29.67 8.4-46.88 39.3-38.41 69 101.43 355.6 143.32 664.1 128.09 943.3-10.47 193-123.5 369.5-294.94 460.5l-73.93 39.3c-27.24 14.5-37.57 48.3-23.09 75.6 14.47 27.2 48.25 37.5 75.53 23.1l73.94-39.3c205.8-109.3 341.44-321.3 354.06-553.2 15.9-291.7-27.35-612.2-132.23-979.9-6.98-24.6-29.38-40.6-53.68-40.6" style="fill:#bae7e0;fill-opacity:1;fill-rule:nonzero;stroke:none" transform="matrix(.0096 0 0 -.0096 37.979 281.102)"/><path d="M7629.71 24610.8c-10.02 0-19.73-5.4-24.74-14.9-7.23-13.6-2.05-30.5 11.54-37.7l73.92-39.3c180.05-95.6 298.73-281 309.73-483.7 15.41-282.3-26.83-593.9-129.12-952.4-2.05-7.2-1.18-14.8 2.45-21.3 3.62-6.5 9.58-11.2 16.75-13.3 14.7-4.2 30.4 4.8 34.51 19.2 104.01 364.7 146.93 682.2 131.21 970.8-12.1 222.2-142.11 425.3-339.29 530l-73.94 39.3c-4.15 2.2-8.61 3.3-13.02 3.3m268.22-1619.5c-7.85 0-15.63 1.1-23.11 3.2-21.41 6.1-39.26 20.3-50.15 39.9-10.88 19.5-13.49 42.2-7.34 63.7 100.56 352.5 142.12 658 127.05 934.1-9.94 183.2-117.29 350.9-280.15 437.4l-73.93 39.2c-40.79 21.7-56.34 72.6-34.66 113.4 21.64 40.7 72.45 56.3 113.25 34.7l73.99-39.3c214.36-113.9 355.7-334.7 368.85-576.3 16.07-294.9-27.52-618.5-133.26-989.2-10.18-35.8-43.3-60.8-80.54-60.8" style="fill:#231f20;fill-opacity:1;fill-rule:nonzero;stroke:none" transform="matrix(.0096 0 0 -.0096 37.979 281.102)"/><path d="M9142.44 19372.2c0-534.7-1196.27-968.2-2671.94-968.2s-2671.93 433.5-2671.93 968.2 1196.26 968.2 2671.93 968.2 2671.94-433.5 2671.94-968.2" style="fill:#fcf9db;fill-opacity:1;fill-rule:nonzero;stroke:none" transform="matrix(.0096 0 0 -.0096 37.979 281.102)"/><path d="M6470.5 20284.1c-707.32 0-1371.49-99.5-1870.15-280.2-473.76-171.7-745.47-401.9-745.47-631.7s271.71-460 745.47-631.7c498.66-180.7 1162.83-280.2 1870.15-280.2 707.33 0 1371.49 99.5 1870.16 280.2 473.76 171.7 745.47 401.9 745.47 631.7s-271.71 460-745.47 631.7c-498.66 180.7-1162.83 280.2-1870.16 280.2m0-1936.5c-720.07 0-1397.87 102-1908.52 287-528.61 191.6-819.72 453.5-819.72 737.6s291.11 546 819.72 737.6c510.65 185 1188.44 286.9 1908.52 286.9s1397.87-101.9 1908.53-286.9c528.61-191.6 819.72-453.5 819.72-737.6s-291.11-546-819.72-737.6c-510.66-185-1188.45-287-1908.53-287" style="fill:#231f20;fill-opacity:1;fill-rule:nonzero;stroke:none" transform="matrix(.0096 0 0 -.0096 37.979 281.102)"/><path d="M5533.02 9929.8c-149.85 0-386.9 124.2-580.02 244.2-344.48 214.1-521.36 324.2-521.36 586.4l-27.07 7562.2c-.04 15.3 24.79 22.5 67.58 22.5 269.42 0 1252.29-285.9 1244.25-639.4l-37.24-7643.4c-8.29-95.3-64.18-132.5-146.14-132.5" style="fill:#fdfae6;fill-opacity:1;fill-rule:nonzero;stroke:none" transform="matrix(.0096 0 0 -.0096 37.979 281.102)"/><path d="M6517.06 15080.3c-1345.28 23.3-2429.89 488.8-2429.89 488.8l97.76 162.9-111.72 237.4 139.65 204.8-148.96 325.9 134.99 283.9-97.75 270 128.79 186.2-108.93 310-6.88 3.9c8.77-4.8 891.75-480.8 2331.8-500.1 1479.51-19.6 2440.57 387.8 2450.06 391.9l-5.23-2.4-76.48-273.1 72.32-176.9-88.62-237.4 83.25-344.5-104.19-244.3 99.85-225.8-123.13-197.8 118.68-284.7s-1376.59-378.7-2355.37-378.7" style="fill:#fff;fill-opacity:1;fill-rule:nonzero;stroke:none" transform="matrix(.0096 0 0 -.0096 37.979 281.102)"/><path d="M4169.42 15596.7c244.74-95.2 1207.3-440.2 2348.12-460.1 843.24.2 1999.87 287.8 2278.09 360.3l-105.02 251.9 122.72 197.2-97.7 220.8 106.47 249.7-82.92 343.1 86.96 232.9-71.31 174.5 51.65 184.4c-295.69-105.7-1158.09-369.5-2361.3-353.7-1132.22 15.1-1926.99 311.9-2226.46 444.3l73.85-210.2-128.6-185.9 95.87-264.8-133.81-281.5 151.25-330.8-139.42-204.5 110.81-235.5zm2347.64-572.7h-.98c-1340.83 23.2-2440.17 488.7-2451.11 493.4l-59.26 25.4 115.47 192.4-112.63 239.4 139.88 205.1-146.66 320.9 136.17 286.4-99.64 275.2 128.98 186.4-99.41 283 41.31 14.5 32.01 57.4c8.65-4.7 886.58-474.2 2305.48-493.2 1463.21-19.7 2417.51 383.2 2426.98 387.3l24.65-56.2 46.68-13-71.27-254.6 73.34-179.4-90.29-241.8 83.58-345.9-101.92-239 102.01-230.7-123.53-198.5 132.11-316.8-61.64-17c-13.84-3.8-1395.21-380.7-2370.31-380.7" style="fill:#231f20;fill-opacity:1;fill-rule:nonzero;stroke:none" transform="matrix(.0096 0 0 -.0096 37.979 281.102)"/><path d="M4499.57 16645.2c3.06 3.2 9 3.9 17.8 2 5.08-1.2 9.97-3.3 14.71-6.6 23.17-16.9 41.45-137.9 54.85-363.1 3.33-53.1 5.01-79.6 8.34-132.7 25.2-5.1 37.8-7.6 63.01-12.6 61.85-11.5 98.44-17.6 109.48-19.3 18.37-2.8 28.65-4.2 30.5-4.6 11.58-2.2 19.76-5.3 24.52-9.2 9.5-7.5 14.48-16.3 14.9-26.5.53-12.8-5.6-20.3-18.36-22.3-7.76-1.1-53.49 4.5-135.54 19.4-51.46 9.4-80.65 15.6-87.1 17-22.79 4.8-37.51 9-44.2 12.2-6.68 3.2-11.31 8-13.87 14.2-1.53 3.9-5.86 63.3-12.07 177.6-8 147.3-17.44 249.3-29.39 305-3.03 14.7-4.65 24.5-4.9 29.4q-.585 12 7.32 20.1M4895.43 16584.5c5.04 2.1 17.67 1.4 37.88-2.1 23.02-4 57.2-10.8 102.38-19.8 36.69-7.3 58.8-11.7 66.14-13.7 7.33-2 13.41-6.2 18.31-11.4 6.33-6.8 10.31-14 10.57-21.7.26-7.8-3.05-14.3-9.88-19.3-4.96-3.7-11.53-4.8-19.53-3.6-6.59 1-12.07 2.2-16.25 3.2-6.88 1.6-35.8 7.3-86.14 17.8-24.28 5.1-36.41 7.7-60.66 13 2.12-40.7 3.18-61.1 5.3-101.8 3.53-67.8 5.78-102.3 6.75-103.3l2.1-.4c4.67-.8 15.04-1.3 30.71-1.9 21.23-.8 41.46-3 60.17-6 3.64-.6 5.47-.9 9.12-1.5 18.71-3.4 30.45-6 35.17-7.9 4.71-1.8 9.78-5.6 14.35-11.1 5.87-7.2 8.87-14.3 9.08-20.2.21-6-2.41-11.2-7.84-15.6-4.52-3.7-9.22-5.5-14.11-5.4-4.88.1-18.55 1.5-40.24 4.8-30.58 4.6-54.82 7.4-71.95 7.3l-26.44.5c1.1-36 1.66-54 2.77-90.1.42-10.8.63-16.3 1.05-27.1 1.64-42.5 3.31-66.2 5.44-69.5 1.91-3 15.01-6.6 37.77-10.4 17-2.9 25.51-4.3 42.51-7.1 12.54-1.6 27.4-3.7 44.61-6.5 21.38-3.4 35.77-7.9 41.41-13.7 6.28-6.5 9.53-14.7 9.81-22.9s-2.18-13.9-7.04-17.1c-6.3-4.1-16.21-6.3-29.59-5.9-13.41.3-38.22 3.1-74.39 8.7-12.52 2-18.78 3.1-31.3 5.2-19.48 3.3-32.47 6-38.99 8-6.54 2-14.37 5.3-23.53 10s-16.93 12.3-23.33 22.6c-7.33 11.9-12.15 27.7-14.32 47.4-3.02 88.8-4.52 133.2-7.51 222-4.68 128.7-6.64 204-5.88 226.1.75 22 5.7 35.3 14.85 39.8zM5627 16453.7c6.54 3.8 13.83 5.3 21.89 4.6 14.03-1.4 26.11-9.7 36.23-25.2 15.41-23.9 24.36-98.9 26.88-225 .36-18.6.71-55.7.8-111.1.12-70.4-.29-113.1-.9-128.1-.62-14.9-2.73-24.6-6.32-29.1q-8.085-10.5-24.72-9c-7.85.7-13.89 3.7-18.15 8.3-3.14 3.4-5.4 14.8-6.27 34.3-.89 19.4-2.43 80.8-4.64 184-3.01 140.3-5.98 213.5-8.94 219.5-1.01 2.8-1.98 4.2-2.92 4.3-2.37.2-12.03-11.4-28.91-34.9-10.03-14.8-33.37-45.3-69.79-91.2-6.84-8.5-14.34-18.1-22.51-28.9-8.18-10.8-16-21-23.47-30.7-7.49-9.8-12.35-16-14.62-18.9-15.37-20.7-27.5-30.5-36.4-29.4-4.21.5-9.17 2.4-14.86 5.7-10.42 5.7-19.27 13-26.52 22-7.25 9.1-18.25 26.8-33.02 53.3-27.08 48.3-52.55 91.7-76.41 130.1s-37.71 57.9-41.47 58.4l-.71.1c-3.2-2.6-5.04-33.8-5.51-93.6-.49-59.7.43-126.1 2.71-199 1.58-59.3 2.38-88.9 3.97-148.3-3.27-1.9-4.92-2.9-8.18-4.8-5.47-3.2-10.28-4.4-14.47-3.8-4.65.6-10.32 3.8-16.98 9.6-4.29 3.7-7.19 7.8-8.73 12.2s-3.33 13.2-5.02 26.1c-5.4 41.2-8.85 100-11.31 175.1-3.71 113.6-3.08 195.3 1.82 245.1 2.48 25.2 6.81 42.7 13.06 52.6s15.73 13.9 28.46 12.1c9.88-1.4 18.31-4 24.85-8.1 6.18-3.8 16.35-13.7 30.41-29.2 14.05-15.5 24.74-28.6 32.09-39.2 28.49-45.6 63.9-104.9 106.04-177.7 5.88-10.2 8.83-15.3 14.7-25.5 2.46 2.9 3.68 4.3 6.14 7.2 5.92 6.4 23.01 28.9 51.41 67.7 28.41 38.9 48.59 67.2 60.43 84.9 27.35 40.3 50.67 64.8 69.86 73.5M6026.93 16378.6c-6.21 3.9-21.65 7.1-46.29 9.9-2.84.1-6.4.5-10.65.9-4.28.5-7.12.8-8.54.9-11.85.7-24.82-1.8-38.93-7.4-36.22-14.4-63.9-57-82.96-128.2-4.88-18.1-7.82-32.2-8.82-42.2-1-10.1-1.75-28.9-1.51-56 .29-33.2 2.65-58.8 6.22-76s10.97-35.3 21.3-54c11.21-20.3 25.43-36.9 42.94-48.9s36.33-18.6 56.49-19.9c16.87-1 32.74 1.5 47.66 7.7 31.22 12.8 57.59 33.9 78.75 63.2 16.2 22.4 27.58 46.4 34.15 71.6 6.56 25.3 9.68 57.5 9.29 96.7l-.2 21.1c-.2 19.8-3.93 38.7-11.19 56.6-18.86 43.1-48.1 77.6-87.71 104m-87.55 64.6c6.07.9 23.92.9 53.33.1 4.55-.3 6.83-.4 11.38-.7 15.18-.8 30.45-5.3 45.68-13 14.65-7.4 33.68-22.2 56.65-44.4 15.3-14.4 25.94-25.4 31.94-33.1 6-7.8 13.1-19.7 21.27-35.9 11.58-22.9 19.05-41.1 22.46-54.5 3.42-13.3 5.24-32.3 5.45-57 .04-5.6.07-8.3.11-13.9-.52-51.5-6.76-94.5-18.68-128.9-11.94-34.3-32.53-67.4-61.74-99.1-14.84-16.5-34.12-31-57.85-43.5-23.74-12.4-45.35-19.3-64.32-20.2-9.25-.4-16.59-.3-21.74 0-49.13 3-90.31 21.4-123.6 54.7-10.47 10.5-21.97 26.5-34.51 47.9-12.57 21.5-21.32 40.9-26.34 58-5.44 18.4-8.64 48.9-9.43 91.3-.44 23.8.05 42.1 1.81 54.7 1.94 13.8 3.45 30.1 4.77 47.8.63 8.6 4.73 23.6 11.9 44.6 7.15 21 14.71 37.9 21.74 50.5 6.94 12.4 15.6 25.7 26.25 39 10.64 13.3 19.73 22.7 27.2 28.4 7.94 6 19.68 11.7 35.22 17 15.55 5.3 29.42 8.6 41.05 10.2M6271.77 16435.3c3.3 2.2 7.81 3.1 13.52 3 8.54-.3 16.64-4.2 24.29-11.9 8.58-8.6 37.57-50.3 86.57-124.6s92.51-142.7 130.71-205.3c31.49-51.6 48.19-77.2 50.07-77.2 2.35 0 3.55 11 3.57 33 .08 57.3 4.58 154.5 13.18 291 2.46 39.2 5.31 63.2 8.64 71.9 3.34 8.6 11.9 12.9 25.68 13.1 9.97.1 17.7-2.9 22.77-9 4.26-5.1 6.37-13.4 6.33-24.4-.03-11.5-3.06-67.7-9.03-168.7-3.98-67.1-7.3-132.6-9.74-196.5-2.61-68.7-5.21-107.8-8.05-117.1-3.79-12.4-11.76-18.7-23.95-18.8-2.81 0-4.92.2-6.33.7-6.09 1.7-14.64 8.2-25.64 19.6a207.5 207.5 0 0 0-28.49 37c-53.49 88.5-105.56 173.1-156.13 253.9-50.58 80.8-77.27 122-79.64 122.9-.96.5-1.97-9.5-3.04-30-1.08-20.5-2.09-51.7-3.04-93.8s-1.47-94-2.33-155c-1.1-78.5-2.39-119.4-2.84-121.6-1.36-7.4-4.49-13.3-9.39-17.6-4.9-4.2-10.4-6.3-16.49-6.1-7.5.2-14.07 3.2-19.74 9.1-3.4 3.6-5.1 5.3-8.49 8.9-.3 81.2-.44 121.8-.72 203-.51 139.7-.24 221.4.78 245.2s4.79 40.2 11.42 48.6c7.74 9.9 13.18 15.5 15.55 16.7M7159.92 16452.2c6.29 7.1 13.43 11.5 21.51 12.1 9.96.7 16.79-1.1 20.51-5.5 3.72-4.3 6.1-13.6 7.37-27.5 1.89-20.9 4.86-45.4 8.72-72.7 9.51-67.5 13.95-136.7 12.75-207.3-.57-33.5-2.45-60.5-5.6-81-15.18-91.9-48.17-151.4-99.05-178-29.2-15.2-61.79-23.7-97.81-25.7-20.6-1.1-37.55.7-50.46 5.4-13.44 4.9-27.45 14.2-41.83 27.5-14.38 13.2-25.14 27.6-32.63 41.9-8.31 15.8-13.1 30.7-12.98 44.4.05 4.8.07 7.1.11 11.9.8 37.9 14.82 83 42.18 135.3 26.87 51.4 50.29 77.6 70.12 78.6 4.25.2 7.3 0 9.18-.8 6.12-1.5 11.02-4.6 14.74-9.5 3.71-4.9 5.54-9.7 5.49-14.6l-.38-2-.38-2q-2.97-10.05-19.47-32.7c-19.65-27.9-35.76-58.1-47.59-90.3-8.33-22.7-12.44-44-12.63-63.4-.13-12.8 1.87-22.8 6.01-30.1 7.35-13.8 21.05-26.3 41.07-37.7 6.98-3.6 17.96-5 32.96-4.2 14.99.8 30.25 3.7 45.76 8.6s27.06 10.6 34.65 17.3c27.49 23.7 45.77 71.2 54.87 142.4 2.09 14.2 3.36 34.6 3.78 61 1.28 82.5-4.07 161.9-16.15 238.2-2.99 21.4-4.45 34-4.39 38 .12 8.4 3.72 15.9 9.57 22.4M7349.74 16467.6c6.68 3.2 10.26 4.9 10.73 4.9 4.79-1.7 7.19-2.5 11.98-4.2 8.44-3.2 12.55-9.4 12.36-18.7-.11-5.7-2.22-16.5-6.32-32.3-18.41-68.1-28.34-142.1-29.94-221.9-.04-2.7-.01-6.4.14-11.3.13-4.8.18-8.3.14-10.5.88-49.7 10.13-92.3 27.56-127.7 13.89-28.2 31.19-46.8 51.95-55.8 8.76-3.6 15.94-5.6 21.51-6.2 5.57-.5 16.53 0 32.86 1.7 23.77 2.5 41.78 7.2 54.04 14 12.26 6.9 29.62 21.9 52.08 45.2 33.46 34.6 53.91 68.4 61.33 101 8.45 37 13.72 91.6 15.7 163.6.91 32.7.94 65.7-.8 98.2-1.64 30.7-2.84 50.7-2.6 59.1.26 9.7 3.24 17.3 8.38 22.8 6.25 6.7 13.33 10.9 21.27 11.9 7.47.9 14.15-1.3 20.04-6.7s9.39-13.1 10.49-23.1c4.9-39.4 6.43-90.7 4.59-153.8-2.25-77.3-8.22-135.7-17.67-175.2-10.1-42.1-34.07-84.8-71.92-127.4-37.88-42.6-75.95-69.8-114.32-81.4-12.65-3.6-25.02-6-37.13-7.2-35.88-3.8-65.81-.3-89.79 10.2-13.39 5.8-27.04 15.6-40.98 29.3-13.96 13.7-24.97 28.6-33.06 44.6-24.73 49-36.59 104.7-35.45 166.9.67 36.1 5.57 82.6 14.76 139.3 15.1 93.3 31.17 143.5 48.07 150.7M7794.03 16506.2c5.34 5.5 12.72 8.9 22.16 10.3 4.71.6 9.4.2 14.04-1.4 8.82-3.1 14.16-23.4 16.02-60.7 1.85-37.4 1.44-117.4-1.01-240-.72-35.7-1.79-77.4-3.32-125.1-1.06-33.1-2.42-57-4.03-71.5q-2.445-21.75-6.12-28.2c-2.46-4.3-6.87-8.2-12.88-11.7-5.64-3.4-9.9-5.4-12.68-5.8-2.8-.4-6.95.4-12.45 2.3-8.26 2.8-13.01 6.5-14.26 11.2-.43 1.2.81 83.1 3.68 245.6 2.86 162.5 4.72 246.5 4.5 251-.14 2.8-.52 6.3-.41 9.8.15 4.9 2.41 9.6 6.76 14.2M8118.08 16573.3c7.08 2.5 15.11 4.6 24.04 6.1 21.14 3.7 39.33 3.9 54.56.5 9.7-2.2 20.3-7.7 31.81-16.6 11.5-8.8 18.89-17.4 22.31-25.5 2.91-6.9 4.25-14.8 3.88-23.6-.62-15.1-5.02-25.8-13.16-32.1-2.89-2.3-8.3-4.2-16.26-5.7-6.56-1.2-12.4.5-17.55 5-5.17 4.6-7.61 10.2-7.34 16.8.24 5.8-3.35 11.9-10.77 18.5-7.41 6.6-15.33 10-22.94 11-4.96.7-11.15.7-18.19-.5-23.47-4.2-49.21-18.5-77.15-42.9-27.97-24.5-49.95-52.3-65.99-83.4-23.48-45.5-37.05-92-40.55-139.6-.06-1.7-.29-4.6-.66-8.6-.38-4-.59-6.9-.65-8.7-3.02-87.1 25.49-140.3 85.32-159q16.44-5.1 28.98-3c5.11.9 9.29 1.8 12.57 2.8 13.51 3.6 24.28 8.1 32.35 13.5 8.04 5.4 16.9 14 26.6 25.8 9.68 11.8 16.52 21.4 20.51 28.7 3.98 7.3 7.78 18.2 11.68 32.4 7.24 26.2 18.97 41 34.32 43.8 6.97 1.3 13.81-.7 20.5-6.1 6.25-4.9 9.27-9.9 9.07-14.7-.06-1.3-.68-5.2-1.86-11.6-4.91-29-17.88-58.4-38.88-88.2-21.01-29.8-43.95-51.3-68.87-64.5-12.7-7-31.31-13.1-55.25-17.4-22.03-4-40.25-3.7-53.96.2-41.54 12.5-72.35 34.3-92.37 65.1-20.03 30.7-30.83 72.4-32.33 125-.32 4.3-.32 11.1-.01 20.4 1.8 53.9 14.38 106.4 37.83 157.4 23.46 51.1 52.33 91.4 86.58 121.1 13.04 11.4 28.52 22.7 46.46 34.1 17.94 11.3 33.11 19.1 45.37 23.5M8339.16 16616.7c5.28 4.1 18 8.2 38.13 12.2 22.93 4.6 56.9 10.6 101.61 18.4 36.35 6.4 58.14 10.2 65.34 10.9 7.19.7 13.05-1.3 17.43-4.7 5.68-4.4 9.17-10.3 8.79-18.1-.38-7.7-4.22-15.6-11.52-23.3-5.29-5.6-11.98-9.2-19.9-11-6.53-1.4-11.97-2.3-16.05-2.8-6.83-.9-35.34-6.1-85.2-14.2-24.04-4-36.07-5.9-60.15-9.8-1.26-40.5-1.88-60.8-3.14-101.3-2.1-67.6-2.71-101.7-1.81-102.4l2.09.4c4.64 1 15 4.3 30.84 9.6 21.29 7.2 41.55 12.6 60.13 16.6 3.63.7 5.44 1.1 9.06 1.9 18.55 3.5 30.11 5.3 34.7 5.2s9.43-2.1 13.49-6c5.24-4.9 7.72-11.1 7.43-17.1-.29-5.9-3.35-12.2-9.17-18.7q-7.275-8.25-14.61-10.8c-4.91-1.7-18.42-5.5-40.07-10.3-30.26-6.7-54.6-13-71.92-19.6-10.66-3.8-15.99-5.6-26.65-9.4-1.89-36.2-2.84-54.3-4.73-90.4-.49-10.9-.73-16.4-1.22-27.3-1.9-42.5-2.14-66-.31-68.5 1.57-2.1 14.62-1 37.25 3.7 16.91 3.5 25.37 5.2 42.26 8.8q18.735 4.65 44.34 10.2c21.21 4.5 35.41 5.3 40.45 1.6 5.58-4.1 8.33-11.4 7.93-19.6s-3.32-14.9-8.49-20c-6.71-6.7-16.78-12.5-30.21-17.2-13.46-4.6-38.14-11.1-74.13-19.1-12.45-2.6-18.67-3.9-31.14-6.4-19.37-4-32.29-6.2-38.7-6.6-6.43-.4-14.07 0-22.95 1.3-8.87 1.3-16.1 6.1-21.71 14.2-6.44 9.2-9.99 23.5-10.53 42.7 4.39 89.1 6.59 133.6 10.98 222.7 6.03 128.9 10.35 204.7 12.95 227.3 2.61 22.7 8.72 38.1 18.38 46.1z" style="fill:#100f0d;fill-opacity:1;fill-rule:nonzero;stroke:none" transform="matrix(.0096 0 0 -.0096 37.979 281.102)"/></svg>