<svg xmlns="http://www.w3.org/2000/svg" width="200mm" height="200mm" viewBox="0 0 200 200"><path d="m28503.8 36473.7-63.7-711.8-170.1-1546.7-85.1-1228.6c-71.5-353.6-1073-876.5-2268.4-888.6-1224.2-12.4-2251.2 503-2271 867.7-.1 1.1-20.6 598.4-52.4 1104.8-50.3 805.3-47.5 570.6-113.7 1621.8-18.1 288.7-35.5 565.6-51.3 817.3-32.3 513.8 320 1185 835.2 1281.6 138.7 26 276.9 49.7 403.3 70.5 322.5 53 558.8 340.5 555.1 680.5l43.6 3520.7 1421.9 40.2 13.3-3593.3c-7.5-320.1 199.6-590.9 498.1-656.4l539.3-118.4c491.6-107.8 810.3-764 765.9-1261.3" style="fill:#fff;fill-opacity:1;fill-rule:nonzero;stroke:none" transform="matrix(.01476 0 0 -.01476 -283.397 666.046)"/><path d="m27737.9 37735-539.3 118.4c-298.5 65.5-505.6 336.3-498.1 656.4l-2.6 713.1c-226.3-68.2-442.2-113.7-624-118.1-431.7-10.6-692.5 83.6-843 175.8l-9.2-738.4c3.7-340-232.6-627.5-555.1-680.5-126.4-20.8-264.6-44.5-403.3-70.5-515.2-96.7-867.5-767.8-835.2-1281.6 15.8-251.7 33.2-528.6 51.3-817.3 66.2-1051.2 63.4-816.5 113.7-1621.8 31.8-506.4 52.3-1103.7 52.4-1104.8 19.8-364.7 1046.8-880.1 2271-867.7 1195.4 12.1 2196.9 535 2268.4 888.6l85.1 1228.6 170.1 1546.7 63.7 711.8c44.4 497.3-274.3 1153.5-765.9 1261.3" style="fill:#973b1d;fill-opacity:1;fill-rule:nonzero;stroke:none" transform="matrix(.01476 0 0 -.01476 -283.397 666.046)"/><path d="M28050.3 36580h-.9c-77 .2-145.8-79.4-153.7-177.8l-252.1-3300c-.4-5.3-.5-10.7-.4-15.9-48.8-181.8-230.1-297.3-230.1-297.3 303.8 119.9 393.6 180.5 417.7 200.3 31.9 24.8 54.7 64.6 58.8 109.8l284.4 3300c9 98.7-46.3 180-123.7 180.9M25019.2 37460.6s-826.9-61.1-999.2-422.5c-183.2-384.4-221.2-152-100.5-2072 116.6-1855.7-67.1-1721.1 393.4-2119 345-298.1 1327.7-458.2 1443.9-413.5 0 0-717.5 140.8-891.8 623.6-62.6 173.4-162 2584.8-167.7 2856.6-6.7 321.9 80.5 1216 321.9 1546.8" style="fill:#b6812f;fill-opacity:1;fill-rule:nonzero;stroke:none" transform="matrix(.01476 0 0 -.01476 -283.397 666.046)"/><path d="m25289.8 42038.8-43.3-3496.9c3.9-352.6-238.3-649.2-575.9-704.7-151.2-24.9-282.9-47.9-402.8-70.4-497.5-93.3-846.6-751.6-814.9-1255.6l51.3-817.4c35-556.7 51.1-756.9 65.2-933.4 12.7-159.2 24.8-309.5 48.5-688.4 29.9-477.4 50.1-1041 52.3-1103.6l.1-1.7c18.5-341.8 1031.9-856.7 2245.9-843.9 540.3 5.5 1089.4 117.1 1546.1 314.2 395 170.5 662.1 382.2 698 553l85 1226.9 170.1 1547.7 63.7 711.3c21.5 241.3-45.3 526.2-178.8 762.3-145 256.3-346.6 424.1-567.7 472.6l-539.3 118.3c-312.6 68.6-525.4 348.8-517.6 681.3l-13.2 3567.2zm584.8-9965.8c-1172.2 0-2232.3 493.3-2253.9 891.4l-.1 2.2c-2.2 62.6-22.3 625.5-52.2 1102.3-23.7 378.4-35.7 528.6-48.5 687.5-14.1 176.8-30.2 377.1-65.3 934.3l-51.3 817.4c-16.3 259.1 64.4 562.6 215.9 811.6 166.3 273.6 393.5 449.7 639.5 495.9 120.2 22.5 252.3 45.6 403.9 70.6 313.2 51.5 537.9 327.2 534.3 655.7l43.9 3545.1 1471.1 41.6 13.4-3618.7c-7.3-309.1 189.5-568.8 478.6-632.3l539.3-118.3c235.1-51.6 448.3-228 600.2-496.7 138.3-244.5 207.5-540.2 185.1-791.1l-63.7-711.8-170.1-1547.2-85.1-1229.2-.3-1.6c-37.8-186.7-316.5-412.9-727.3-590.2-462.7-199.7-1018.5-312.8-1565.3-318.3-14-.2-28.2-.2-42.1-.2" style="fill:#231f20;fill-opacity:1;fill-rule:nonzero;stroke:none" transform="matrix(.01476 0 0 -.01476 -283.397 666.046)"/><path d="M26692 42759.9v-2158.2s-186-125.3-679.5-121.2c-130.2 1-244.6 13.6-342.4 31.3-139.3 25.3-245 61.3-314.7 90.3-65.5 27.3-99.2 48.2-99.2 48.2l4 2174.2 95.2-4.3 314.7-14.1z" style="fill:#e0c13b;fill-opacity:1;fill-rule:nonzero;stroke:none" transform="matrix(.01476 0 0 -.01476 -283.397 666.046)"/><path d="M25276.3 40661.9c14-7.8 43.3-23.1 86.8-41.2 63.5-26.5 168.9-63.4 310.6-89.2 108.4-19.6 222.5-30 339-31 7.6 0 15.3-.1 22.8-.1 406 0 595 90 636.4 112.8v2127.6l-1391.7 62.8zm759.7-201.6c-7.8 0-15.7 0-23.7.1-118.7 1-235.1 11.6-345.7 31.6-145.3 26.5-253.6 64.4-318.9 91.6-66.2 27.6-100.7 48.8-102.1 49.6l-9.5 5.9v11.2l4.1 2195.2 1471.8-66.4v-2188l-8.8-6c-7.7-5.2-190.9-124.8-667.2-124.8" style="fill:#231f20;fill-opacity:1;fill-rule:nonzero;stroke:none" transform="matrix(.01476 0 0 -.01476 -283.397 666.046)"/><path d="M25751.1 40519.2q-39.15 5.4-77.4 12.3c-96.6 17.6-176.3 40.3-237.3 61.4v2203.6l314.7-14.2z" style="fill:#f4ebb4;fill-opacity:1;fill-rule:nonzero;stroke:none" transform="matrix(.01476 0 0 -.01476 -283.397 666.046)"/><path d="M25751.1 40494.9c-139.4 25.4-245.1 61.4-314.7 90.4v7.6c61-21.1 140.7-43.8 237.3-61.4q38.25-6.9 77.4-12.3zm0 2287.4-314.7 14.2v6.9l314.7-14.2z" style="fill:#9d9d9c;fill-opacity:1;fill-rule:nonzero;stroke:none" transform="matrix(.01476 0 0 -.01476 -283.397 666.046)"/><path d="M25281.1 40664.7c56.1-30.6 311.7-156 731.6-159.4 412.9-3.5 608.3 85.9 654.5 110.8v2120.1l-1382.2 62.4zm754.9-209.2c-7.8 0-15.7.1-23.7.1-491.1 4.1-758.1 166.7-769.2 173.6l-11.7 7.4 4.1 2214 1481.3-67v-2195l-10.9-7.4c-7.8-5.2-192.1-125.7-669.9-125.7" style="fill:#231f20;fill-opacity:1;fill-rule:nonzero;stroke:none" transform="matrix(.01476 0 0 -.01476 -283.397 666.046)"/><path d="m26782.4 43163.4-.7-226.6c0-127.8-85.1-239.5-208-274.7-306.5-87.7-617.4-102.2-932.4-48.4-77.7 13.1-155.5 30.5-233.8 51.9-22.2 6.1-43.2 14.7-62.7 25.5-89.9 49.3-148.5 144.1-148.5 250l3.6 218.1c0 33.7 6.3 67.1 18.4 98.5l-4.1 112.2-3.9 13.2c-4.7 16.8-7.3 34-7.6 51.4l-6.4 571.4h1585.4v-595c0-31.7-7-63-20.5-91.6l-1-71.7 1.1-2.1c13.9-25.2 21.1-53.5 21.1-82.1" style="fill:#484848;fill-opacity:1;fill-rule:nonzero;stroke:none" transform="matrix(.01476 0 0 -.01476 -283.397 666.046)"/><path d="M25641.3 42613.7c-77.7 13.1-155.5 30.5-233.8 51.9-22.2 6.1-43.2 14.7-62.7 25.5l-32.1 1194.8 66.3 120 4.5 8.1 42.9-8.1 189.8-35.7z" style="fill:#c1c7c3;fill-opacity:1;fill-rule:nonzero;stroke:none" transform="matrix(.01476 0 0 -.01476 -283.397 666.046)"/><path d="M25999.8 43170c-387.2 0-711.2 81.9-780.6 186.8-1.3-25-.6-74.9 4.1-100.1 73.9-103.2 389.4-177 772.5-177 389.5 0 701.7 63.2 765.8 165.3 1.6 18.7-1.4 51.1-2.2 82.1-102.6-91.3-406-157.1-759.6-157.1" style="fill:#211d1d;fill-opacity:1;fill-rule:nonzero;stroke:none" transform="matrix(.01476 0 0 -.01476 -283.397 666.046)"/><path d="M25246.8 43266.8c65.7-81.4 340.7-162.3 749-162.3 374.7 0 676.7 60.9 741.4 148.7.2 7.4-.1 16.7-.6 26.8-133.9-81.7-418.2-134.8-736.8-134.8-335 0-631.7 61.9-755.6 152.4.5-11.4 1.4-22.3 2.6-30.8m749-211.9c-393.9 0-712.5 75.3-792.7 187.3l-3.2 4.5-1 5.4c-5.1 27.5-5.9 79.3-4.4 106l4 75 41.4-62.7c56.3-85.1 341.8-175.5 759.9-175.5 337.7 0 643.3 62 743.1 150.7l40.1 35.6 1.2-53.5c.3-11 .9-22.1 1.4-32.7 1-20.6 1.9-38.5.7-52.1l-.5-6-3.2-5.1c-81.8-130.4-460.1-176.9-786.8-176.9" style="fill:#231f20;fill-opacity:1;fill-rule:nonzero;stroke:none" transform="matrix(.01476 0 0 -.01476 -283.397 666.046)"/><path d="M26070.9 42903.7c-10.4 0-20.7.1-30.9.2-350.1 4.4-714.4 80.7-847.5 177.3l29.2 40.2c123.7-89.9 483.4-163.6 818.9-167.9 361.2-4.6 671.6 68 724.2 136l39.3-30.4c-76.6-98.8-426.7-155.4-733.2-155.4" style="fill:#231f20;fill-opacity:1;fill-rule:nonzero;stroke:none" transform="matrix(.01476 0 0 -.01476 -283.397 666.046)"/><path d="m25221.4 43981.1 6.2-546.3c.1-15.1 2.4-30.2 6.6-44.8l4.7-16.1 4.3-120.4-1.8-4.7c-11-28.7-16.6-58.9-16.8-89.6l-3.5-218.5c0-116.5 79.4-219.9 193-251.1 394.5-108.3 782.4-109.5 1152.7-3.6 112 32.1 190.1 135.2 190.1 250.8l.7 226.6c0 24.4-6.2 48.7-18 70.1l-4.3 7.9 1.2 83.7 2.3 4.9c11.9 25.1 18.1 53.1 18.1 80.9v570.2zm784.5-1423.2c-199 0-401.1 27.9-605 83.8-135.1 37.1-229.4 160.2-229.4 299.4l3.5 218.6c.2 34.7 6.3 69.1 18.2 102l-3.7 104.3-3 10.3c-5.5 18.8-8.3 38.3-8.5 58l-6.8 596.4h1635.4v-619.8c0-33.2-7.2-66.7-20.7-97.1l-.8-60.1c14.5-27.8 22.1-59 22.1-90.4l-.6-226.6c0-137.6-93-260.3-226.1-298.4-187.7-53.6-379.6-80.4-574.6-80.4" style="fill:#231f20;fill-opacity:1;fill-rule:nonzero;stroke:none" transform="matrix(.01476 0 0 -.01476 -283.397 666.046)"/><path d="M26781.7 44011.3c0-125.1-354.9-226.5-792.7-226.5s-792.7 101.4-792.7 226.5 354.9 226.5 792.7 226.5 792.7-101.4 792.7-226.5" style="fill:#bcc2bf;fill-opacity:1;fill-rule:nonzero;stroke:none" transform="matrix(.01476 0 0 -.01476 -283.397 666.046)"/><path d="M25989 44213c-452.5 0-767.9-106.3-767.9-201.7s315.4-201.7 767.9-201.7c452.6 0 767.9 106.3 767.9 201.7s-315.3 201.7-767.9 201.7m0-453c-396.3 0-817.5 88.1-817.5 251.3s421.2 251.3 817.5 251.3 817.6-88.1 817.6-251.3-421.3-251.3-817.6-251.3" style="fill:#231f20;fill-opacity:1;fill-rule:nonzero;stroke:none" transform="matrix(.01476 0 0 -.01476 -283.397 666.046)"/><path d="M25996.5 33365.7c-189.1 0-374.8 33.5-551.9 99.6l-185.6 69.2c-283.2 105.6-535.9 283.5-730.8 514.5-194.9 230.9-327.9 510-384.4 806.9l-89.1 467.5c-17.1 89.8 6.5 181.7 64.7 252.1 58.1 70.2 142.9 110.5 232.4 110.5 14.7 0 29.6-1 44.4-3.2 538.1-77.6 1086.9-117 1631.2-117 535.3 0 1081.8 38.1 1624.1 113.2 14.5 2 29.1 3 43.4 3 94.5 0 182.3-43.6 240.7-119.6 58-75.4 77.3-171.6 52.8-263.9l-146.9-553.5c-143.3-540.5-539.8-985-1060.6-1188.9l-208.4-81.7c-184.3-72.1-378.1-108.7-576-108.7" style="fill:#fff;fill-opacity:1;fill-rule:nonzero;stroke:none" transform="matrix(.01476 0 0 -.01476 -283.397 666.046)"/><path d="m27897.6 35322.7-118.4-446.6-.1-.4-28.3-106.5c-66.8-252.2-193.9-488.2-367.6-682.8-173.6-194.6-393.6-347.7-636.5-442.8l-208.5-81.7c-173.3-67.9-355.6-102.3-541.7-102.3-177.9 0-352.5 31.5-519.2 93.6l-185.4 69.3c-180.4 67.2-347.8 165.5-494.1 289.3-71.2 60.1-137.5 126.3-197.8 197.8-184.6 218.6-310.5 482.8-364 763.8l-89.1 467.6c-16.2 85.2 21.1 145.9 44.8 174.6 40.2 48.7 98.6 76.6 160.1 76.6 10.2 0 20.7-.8 31-2.3 109.7-15.8 219.7-30 330.1-42.6 435.8-50.2 876.7-75.4 1314.6-75.4 539.5 0 1090.3 38.4 1636.9 114 10.2 1.5 20.5 2.2 30.5 2.2 50 0 97.2-17.7 134.9-49.9 11.4-9.7 22-20.7 31.4-33 23.6-30.6 59.6-95.1 36.4-182.5m192.4 100.9v.4c-16.9 143.9-112.7 267.5-244.4 321.8-46.4 19.4-97.2 30-150.7 30-18.4 0-37.2-1.2-56.2-3.9-535.1-74-1072-112.2-1611.2-112.2-440.1 0-881.6 25.5-1324.4 77.6-97.6 11.4-195.6 24.3-293.5 38.4-19.5 2.8-38.7 4.3-57.8 4.3-244 0-436.8-225.1-389.3-474.1l89.1-467.7c91.6-480.9 367.7-899.5 759-1173.2 127.2-89.2 266.4-162.8 415.5-218.5l185.6-69.2c188.7-70.4 386.8-105.5 584.8-105.5 207 0 414.1 38.5 610.2 115.2l208.5 81.7c387.1 151.5 707.1 426.5 915.6 775v.3c88.3 147.2 156.4 307.2 201.4 477l143.9 542.4 3 11.1c13.5 50.8 16.6 101.1 10.9 149.1" style="fill:#e0c13b;fill-opacity:1;fill-rule:nonzero;stroke:none" transform="matrix(.01476 0 0 -.01476 -283.397 666.046)"/><path d="m27730.8 34244 48.3 631.7.1.4 118.4 446.6c5.3 19.8 7.5 38.4 7.5 55.7 0 59.2-25.7 103.1-43.9 126.8-9.4 12.3-20 23.3-31.4 33l15.8 207.6c131.7-54.3 227.5-177.9 244.4-321.8v-.4l-13.9-160.2-143.9-542.4c-45-169.7-113.1-329.7-201.4-476.9zM24810.6 33665c-2.1 1.5-4.3 3-6.4 4.6-387.9 273.8-661.5 690.4-752.6 1168.6l-89.1 467.7c-4.9 25.8-7.2 51.3-7.2 76.3.2 216.9 177.7 397.8 396.5 397.8 19.1 0 38.3-1.5 57.8-4.3 97.9-14.1 195.9-27 293.5-38.4l9.8-190c-110.4 12.6-220.4 26.8-330.1 42.6-10.3 1.5-20.8 2.3-31 2.3-61.5 0-119.9-27.9-160.1-76.6-19.7-23.8-48.9-69.9-48.7-133.8 0-12.9 1.2-26.5 3.9-40.8l89.1-467.6c53.5-281 179.4-545.2 364-763.8 60.3-71.5 126.6-137.7 197.8-197.8z" style="fill:#f4ebb4;fill-opacity:1;fill-rule:nonzero;stroke:none" transform="matrix(.01476 0 0 -.01476 -283.397 666.046)"/><path d="M24351.6 35755.1c-100.7 0-195.9-40.5-267.3-115.3-84.9-88.7-120.4-208.8-97.4-329.3l89-467.6c119-624.7 563.1-1150.9 1158.9-1373.1l185.6-69.2c380.8-142.1 798.8-138.7 1177.2 9.5l208.5 81.7c541.2 211.9 953.2 673.8 1102.2 1235.5l146.9 553.5c32.2 121.4 1.7 249.9-81.5 343.9s-207.3 139.9-331.6 122.7c-1087.1-150.5-2175.8-149.2-3236 3.8-18.3 2.6-36.5 3.9-54.5 3.9m1644.9-2508.3c-200.8 0-401.7 35.8-593.4 107.3l-185.6 69.2c-302.2 112.7-572 302.6-780 549.1-208.1 246.6-350 544.4-410.3 861.2l-89.1 467.6c-26 136.5 14.2 272.4 110.3 372.9 95.5 99.9 228.4 145.9 364.8 126.2 1055.6-152.3 2139.7-153.6 3222.1-3.8 140.9 19.5 281.3-32.4 375.6-138.9 94.2-106.5 128.7-252.1 92.2-389.5l-146.8-553.5c-153.1-576.9-576.3-1051.3-1132.1-1269l-208.5-81.7c-199.2-78-409.1-117.1-619.2-117.1" style="fill:#231f20;fill-opacity:1;fill-rule:nonzero;stroke:none" transform="matrix(.01476 0 0 -.01476 -283.397 666.046)"/><path d="M24894.1 35093.5c-17.3 31.8-47.6 50.3-90.8 55.4-26.7 3.2-53-.1-79.1-10l-18.7-6.7-10.8-104.2q-9.15-104.4-7.8-106.2c1-.7 1.8-1 2.4-1.1 5.8-.7 20.4 1.6 43.8 7 23.3 5.3 44.3 11.2 63 17.6 18.6 6.4 35.7 15.1 51.3 25.9 15.6 10.9 27.3 21.5 35.1 32 5.9 8.5 10.8 23 14.9 43.6.3 2.1.7 4.9 1.4 8.4.7 3.4 1.1 5.7 1.2 6.7 1.4 11.8-.6 22.3-5.9 31.6m-40.8-255.7c-18.3 9.8-40.4 16.2-66.5 19.3-29.2 3.5-59.3 2.5-90.1-3l-17.4-2.8-13.1-116.9c-8.8-78.5-11.8-119.8-9.1-123.9s13.8-9.5 33.3-16.1c19.4-6.7 37.1-11 53-12.9 85.6-10.2 142.5 20.9 170.5 93.3q5.7 13.95 8.1 33.9c3.2 26.7-1.2 51.6-13.3 74.7-12.1 23-30.6 41.2-55.4 54.4m-73.9 378.9q14.7.75 30.6-1.2c45.3-5.4 82.8-21.3 112.6-47.5 36.6-32 51.9-73.6 45.8-124.8-5.7-47.5-27.9-87.3-66.8-119.4l-25.9-20.5 28.7-18c31-19.9 54.7-46.8 70.9-80.7 16.2-33.8 22.2-68.6 17.9-104.4-1.1-9.5-3-18.5-5.6-26.9-12.9-45-34.6-81.6-65-109.9-30.3-28.3-66.9-45.5-109.8-51.8-18.7-3.2-43.8-2.9-75.2.9-34.6 4.1-63.2 10.7-85.9 19.9-29.4 11.7-48 23.9-56 36.7-7.9 12.9-11.2 35.7-10 68.6.8 19.9 8.5 91.5 23.2 214.7l8.6 72 30.5 242.2 9.9 8.6c12 9.9 29.4 18.8 52.2 26.6 22.8 7.9 45.9 12.8 69.3 14.9M25317.9 35057.1c-16.7 4.6-28.8 7.4-36.3 8.2-8 1-19.4.9-34.1-.1-35.4-2.3-55-6-58.9-11-1.9-2.5-4.3-16-7.1-40.5-10.2-88-16.5-177.1-18.9-267.1l-.6-26.7 18.4-2.2q19.2-2.25 50.4 1.5c72.7 6.7 128.2 22.1 166.4 46.4q57.45 36.3 69.3 103.8l1.4 12.1c5 42.6-5.3 79-30.7 109-25.5 30-65.2 52.2-119.3 66.6m-98.8 70.7c19.2 2.6 38.7 2.8 58.4.5 2.7-.3 7.2-1 13.6-2s11.4-1.7 15.2-2.2c82.4-11.7 143.8-41.6 184.2-89.5 35.3-40.9 51.5-89.8 48.7-146.8q0-6.6-1.5-20.1c-3.6-30.4-13.7-59.3-30.4-86.5-20.5-32.8-46.4-58.7-77.5-77.8-31.2-19.1-71.9-33.6-122.3-43.4l-43.2-8.8 30.2-26.2c94.4-81.3 145.8-127.8 154.2-139.6 4-7 5.6-14.4 4.6-22.4-.9-8.1-3.9-15-8.9-20.9s-11.3-9.2-19-10c-2.2-.2-4.9-.2-8.1.2-4.8.5-11.6 4.3-20.6 11.3-8.9 7-28 23.5-57.5 49.6-97.1 86-152.1 133.2-165.2 141.7l-17.4 11-11.9-102.5c-5.1-44.3-9.5-71.3-13.1-81.2-3.6-9.8-10.8-15.5-21.8-16.9-1.7-.4-4.4-.3-8.1.1-13.4 1.5-22.6 7.8-27.9 18.6-3 6.4.1 59 9.5 158 8.3 104.4 13.4 171.7 15.3 201.8 4.6 72.4 12 152.2 22.1 239.1 2.2 19.2 3.8 30.2 4.6 32.8 1 3.6 12.5 9.3 34.4 17.1q33 11.55 59.4 15M25888.5 34889.7q-6.45 34.35-9.3 40.2l-.8.1c-2.1.1-5.6-3.6-10.5-11-4.8-7.5-7.3-13.1-7.6-16.8 0-.6-9.8-19.8-29.1-57.8-17.5-34.3-35.1-70.7-52.6-109.4-17.5-38.6-26.4-60-26.7-64.3-.4-4.8 4.9-6.5 15.7-5.1 5.5.6 33.5.8 84.1.5 47.4-.1 71.1.6 71.2 2.2.4 5.4-2.3 20.9-8 46.6-4.4 20.8-9.4 51.8-14.8 93.2-5.4 41.3-9.3 68.5-11.6 81.6m-28 152.2c7.9 5.3 17.5 7.6 28.7 6.8 11.3-.8 20.8-6.3 28.7-16.5 19.4-23.5 35.5-88.2 48.5-194.1 3.2-24.4 15.9-95.6 38.3-213.5q18.3-95.1 24.3-124.5 15.75-74.7 15-84.3c-.6-9.1-4.5-16.6-11.7-22.6-7.1-5.9-15.2-8.6-24.4-8-3.7.3-7.7 1.4-11.8 3.3-7.8 3.8-14.1 12.5-18.8 26s-11.9 43.8-21.5 90.7l-18.7 88.6c-2 2.3-11.9 4.1-29.6 5.3-30 2.1-67.9 2.8-113.7 2s-70.8-3-74.8-6.4c-8.6-7.5-26.5-47.2-53.6-119-10.5-26.2-19.1-43.6-25.9-52.3s-15.3-12.7-25.5-11.9c-17.7 1.2-25.8 12.8-24.2 34.8 1 14.5 21.2 69.7 60.6 165.7 39.3 96.1 74.1 174 104.1 233.8q35.85 73.35 53.1 111c22.8 48.4 40.4 76.8 52.9 85.1M26165.2 35047.1c3.6 2.8 8.7 4.3 15.1 4.5 9.7.3 19-4 27.8-12.8 10-9.9 44-58.9 102.1-146.8 58-88 110-169.5 155.8-244.4 37.9-61.7 57.9-92.5 60.1-92.4 2.7 0 3.6 13.5 2.8 40.4-2.2 69.7-.9 188 3.6 354.8 1.2 47.8 3.6 77.1 7 87.6 3.4 10.6 12.9 16.2 28.5 16.6 11.3.4 20-3.1 26.1-10.4 5.1-6.3 7.8-16.2 8.2-29.6.4-14-.7-82.5-3.4-205.7-1.8-81.7-2.8-161.6-3.1-239.5q-.15-125.85-4.5-142.8-5.7-22.8-26.7-23.4c-3.2-.1-5.6.1-7.3.6-7 1.9-17.1 9.6-30.1 23.2s-24.4 28.3-34 44.1c-64.5 106.1-126.9 206.9-187 302.6-60.2 95.7-91.7 144.1-94.4 145.1-1.1.5-1.9-11.8-2.5-36.8-.5-25-.7-63.2-.5-114.5s1-114.3 2.2-189c.8-96.1.9-145.6.5-148.3-1.3-9.1-4.7-16.5-10.2-22-5.5-5.6-11.7-8.5-18.7-8.7-8.6-.2-16.2 3-22.9 9.8l-9.9 10.2-6.8 247.2c-4.7 170.3-6.8 269.9-6.4 298.9.5 29.1 4.3 49.1 11.5 60 8.7 12.7 14.4 19.8 17.1 21.5M26880.5 35013.2c-19.1 5.7-41.5 8.1-67.2 7q-25.8 0-30.6-.3-15.15-.9-19.2-8.1c-2.6-4.7-3.5-14.6-2.5-29.6.2-4.3 1.9-23 5.1-56.2 6.2-64.2 12.8-151.5 19.8-262l11-173.7 24.1 1.6c17.1 1.1 37.3 5.3 60.7 12.7s41.3 15.5 53.6 24.4c22.7 15.4 44.2 42.2 64.6 80.4 20.4 38.1 33.9 76.8 40.5 116 4 22.3 5.4 42.6 4.2 60.8-.1 2.1-.5 5.6-1 10.4-.6 4.8-1 8.8-1.2 12.1-6.3 56.6-22.2 101.1-47.9 133.4-25.6 32.2-63.6 56-114 71.1m-116.2 68.5c8.5 2.2 19.4 3.7 32.8 4.5 29.9 1.9 56.9.6 80.8-3.8 22.3-4.5 46.3-12.5 72-24.1 25.7-11.5 46.7-24.3 63.2-38.4 31.1-25.4 54.5-55.2 70.1-89.2 7.4-15.7 14.3-36.9 20.5-63.7 6.3-26.8 10-49.5 11.2-68.3 3.8-60.6-8.2-123.2-36.2-188q-41.85-97.05-105.3-140.7c-41.7-29.5-95.8-46.4-162.3-50.6l-33.8-1.3c-31.5-4.2-48.3 18.7-50.4 68.6l-16.7 264.6-8.1 127.1c-2.9 46.6-4.9 81.8-5.9 105.8-.9 23.8-2.1 42.3-3.5 55.4-1.3 13.1.1 20.8 4.3 22.9 4.2 2.2 8.8 3.4 13.6 3.7l3.3.2c9.7.6 16.7 2.4 20.9 5.4 3.1 2.3 12.9 5.6 29.5 9.9M27094 35135.1c5.3 5.9 12 9.3 20 10.1 5.9.6 10.9-.5 14.9-3.3 5.2-3.3 24.5-25.5 57.8-66.7 33.3-41.1 61.9-78.6 85.8-112.4 22-30.7 43.7-58.6 65.2-83.7 21.4-25.1 34.2-37.4 38.5-37l.8.1c1.5 1.7 7.1 18 17 48.6 12.4 37.5 32.9 89.5 61.6 156.1 28.6 66.6 47.7 106.3 57.2 119.1 4.3 5.3 11 8.4 20.1 9.4q14.4 1.35 25.8-6.3c6.4-4.8 10-10.9 10.7-18.4 1-10.2-3.3-26-13-47.5-53.9-118.3-90.8-205.4-110.5-261.4-3.4-9.5-7.1-20.3-11.3-32.3s-7.6-21.5-10.1-28.5-4.3-11.4-5.1-13.1c-2.7-5.7.7-58 10.1-156.9l10.1-116.4-8.6-10.6c-5.8-7.1-13.2-11.1-22.3-12-10.1-1-18.8 1.6-25.9 7.9-5.4 5.4-9.3 19.6-11.6 42.6-.3 3.2-2.7 32.7-7.3 88.3l-12.9 152.6-38 39.1c-38 39.9-72.2 83.7-102.3 131.4-9 13.7-32.5 45.6-70.4 95.8-35.5 46-53.7 74.7-54.9 85.9-.6 6.5 2.2 12.9 8.6 19.5" style="fill:#100f0d;fill-opacity:1;fill-rule:nonzero;stroke:none" transform="matrix(.01476 0 0 -.01476 -283.397 666.046)"/><path d="M26106.1 33971.1c0-42.2-76.4-217.5-76.4-217.5s-76.4 175.3-76.4 217.5 34.2 76.4 76.4 76.4 76.4-34.2 76.4-76.4M26065.4 34185.5c0-19.7-16-35.8-35.7-35.8-19.8 0-35.8 16.1-35.8 35.8 0 19.8 16 35.8 35.8 35.8 19.7 0 35.7-16 35.7-35.8M26129 33836.3c6.2 15.7 13.1 31.2 20.4 46.5 7.3 15.4 15.1 30.6 23.8 45.5 8.6 14.9 17.9 29.6 28.9 43.8 6 7.6 12.2 15.1 19.4 22.3 9.9 9.9 26.5 7.7 33.1-4.7 5.1-9.6 1.7-21.5-7.5-27.3-6.7-4.2-13.5-9.1-19.9-14.4-12.4-9.9-24.1-21.4-35.4-33.5-11.3-12-22.2-24.7-32.6-37.8-10.5-13.1-20.6-26.5-30.2-40.4M25930.4 33836.3c-6.2 15.7-13.1 31.2-20.4 46.5-7.3 15.4-15.2 30.5-23.8 45.4-8.6 15-17.9 29.7-28.9 43.8-6 7.6-12.3 15.2-19.5 22.4-9.8 9.9-26.4 7.6-33-4.7-5.1-9.7-1.8-21.5 7.5-27.3 6.7-4.2 13.4-9.2 19.9-14.4 12.3-10 24.1-21.5 35.3-33.5q17.1-18.15 32.7-37.8c10.4-13.1 20.6-26.5 30.2-40.4M26452.4 33772.3c1.3 15-9.8 28.3-24.8 29.7-15.1 1.3-28.4-9.8-29.7-24.9-1.4-15 9.8-28.3 24.8-29.6 15.1-1.4 28.4 9.7 29.7 24.8M26196.5 33767c36.1 10.8 71.4 25.2 105.9 41.6 34.4 16.6 67.9 35.8 100.2 57.7 32.5 21.6 62.8 47.2 91.5 75.4l20.9 21.9c6.8 7.6 13 15.7 19.6 23.6l4.8 6.9c16.3 22.9 7.9 55-17.4 67.1-23.1 11-50.7.8-61-22.7-5.6-12.6-10.7-23.9-12.3-26.9l-13.4-22.4c-18.9-29.4-40.4-58.4-65.4-84.6-24.8-26.5-51.9-51.5-80.9-74.6-29-23-59.7-44.5-92.5-63M25634.8 33754.4c-1.4 15.1 9.8 28.4 24.8 29.7 15.1 1.3 28.3-9.8 29.7-24.8 1.3-15.1-9.8-28.4-24.8-29.7-15.1-1.4-28.4 9.8-29.7 24.8M25890.6 33749.2c-36.1 10.8-71.3 25.1-105.8 41.5-34.4 16.6-67.9 35.8-100.2 57.7-32.5 21.6-62.8 47.2-91.5 75.4l-21 21.9c-6.7 7.6-12.9 15.7-19.5 23.6l-4.9 6.9c-16.2 23-7.9 55 17.5 67.1 23.1 11 50.7.8 61-22.6 5.6-12.7 10.6-24 12.3-27l13.4-22.4c18.9-29.4 40.3-58.3 65.4-84.6 24.8-26.5 51.8-51.5 80.8-74.6 29.1-22.9 59.8-44.4 92.5-62.9" style="fill:#b89b1c;fill-opacity:1;fill-rule:nonzero;stroke:none" transform="matrix(.01476 0 0 -.01476 -283.397 666.046)"/><path d="m25417.1 38306.5-.1-.1zm132.7-155.3c-22.3 0-45 3.7-66.3 11.4-66.1 23.9-82.1 41.2-75.4 127.9-3.3 111.1 10.6 377 2.6 656.5-1.7 59.3-39.5 168.8 145.4 109.5 77.9-25 149.8-45.8 151.5-105 19.3-677-7.3-715.5-24.9-740.9-26-37.6-78.5-59.4-132.9-59.4" style="fill:#b6812f;fill-opacity:1;fill-rule:nonzero;stroke:none" transform="matrix(.01476 0 0 -.01476 -283.397 666.046)"/></svg>