<svg xmlns="http://www.w3.org/2000/svg" width="200mm" height="200mm" viewBox="0 0 200 200"><g style="display:inline"><path d="M19037.3 2177.1c261.5 0 524.3 22.1 783.8 46.7 232.6 22.1 568.2 154 782.2 314.7-214-160.7-549.6-292.6-782.2-314.7-259.5-24.6-522.3-46.7-783.8-46.7m-1534.2 2308.2c0 12.4-.2 25-.7 37.8-6.3 181-269.8 3325.3-319.5 4477 49.7-1151.7 313.2-4296 319.5-4477 .5-12.8.7-25.4.7-37.8m3468 4977.7c14.1 501.3-3.6 965.6-386.5 1355.1-150.9 153.4-553.3 328.1-668.2 515.3-99.8 162.5-160.2 338.9-159.8 519.8-187.4-24.6-365.8-44.1-592.4-44.1-28 0-56.7.3-86.4.9-311.9 6.6-471.3 64.2-628.8 124.7 0-1.2-.1-2.5-.1-3.8-9.1-228.5-71.5-440.4-210.8-635.5-138.9-194.5-603.8-404.3-758.4-585-270.7-316.3-310.7-691.8-310.8-1076.4.1 384.6 40.1 760.1 310.8 1076.4 154.6 180.7 619.5 390.5 758.4 585 139.3 195.1 201.7 407 210.8 635.5 16.8 423.6 60.6 868.9 39.5 1291.8-8.8 176 44.8 441.9 80.5 573.8 25.7 10.7 55 15 86.5 15 126.7 0 290.2-68.9 407.5-70.6 64.6-1 130.1-5 195.3-5 53.9 0 107.6 2.8 160.6 12.4 74.4 13.5 103.8 57.3 159.7 57.3 16 0 34.3-3.6 56.5-12.6 93-159.5 109.2-318.6 86.8-474.3-61.4-427.1 28.1-903.5 34.6-1334.7 3.4-226.3 36.2-449.2 160-650.6 114.9-187.2 517.3-361.9 668.2-515.3 382.9-389.5 400.6-853.8 386.5-1355.1" style="fill:#eef9f8;fill-opacity:1;fill-rule:nonzero;stroke:none" transform="matrix(.01375 0 0 -.01375 -162.25 221.819)"/><path d="M18919.8 14445.7v-2403.2c0-82.5-65.2-148.3-143.2-144.9-1 0-1.9 0-2.9.1-73.5 3.2-131.5 67.2-131.5 144.9v2416.3z" style="fill:#fff;fill-opacity:1;fill-rule:nonzero;stroke:none" transform="matrix(.01375 0 0 -.01375 -162.25 221.819)"/><path d="M19037.3 2177.1c-73.1 0-146 1.7-218.8 5.6-392.8 20.9-1319.7 125.4-1415.7 614.1-29.1 148.6-39.1 262.4-39.2 365.9.1-103.5 10.1-217.3 39.2-365.9 96-488.7 1022.9-593.2 1415.7-614.1 72.8-3.9 145.7-5.6 218.8-5.6m1730.6 1678.5c-.8 241.9-100 418.1-94.5 667.4 4.8 218.5 267.9 4017 295.5 4865.8.8 24.8 1.5 49.5 2.2 74.2-.7-24.7-1.4-49.4-2.2-74.2-27.6-848.8-290.7-4647.3-295.5-4865.8-5.5-249.3 93.7-425.5 94.5-667.4m-3356.5 11c18.3 229 91.8 387 91.7 618.7.1-231.7-73.4-389.7-91.7-618.7" style="fill:#fdfbea;fill-opacity:1;fill-rule:nonzero;stroke:none" transform="matrix(.01375 0 0 -.01375 -162.25 221.819)"/><path d="M19037.3 2177.1c-73.1 0-146 1.7-218.8 5.6-392.8 20.9-1319.7 125.4-1415.7 614.1-29.1 148.6-39.1 262.4-39.2 365.9-.1 195.8 35.5 354.5 44.3 640.7.7 21.7 1.9 42.7 3.5 63.2 18.3 229 91.8 387 91.7 618.7 0 12.4-.2 25-.7 37.8-6.3 181-269.8 3325.3-319.5 4477-4.2 96.3-6.9 178.6-7.8 244.2-1.7 129.6-6.2 260.2-6.2 389.7.1 384.6 40.1 760.1 310.8 1076.4 154.6 180.7 619.5 390.5 758.4 585 139.3 195.1 201.7 407 210.8 635.5 0 1.3.1 2.6.1 3.8 157.5-60.5 316.9-118.1 628.8-124.7 29.7-.6 58.4-.9 86.4-.9 226.6 0 405 19.5 592.4 44.1-.4-180.9 60-357.3 159.8-519.8 114.9-187.2 517.3-361.9 668.2-515.3 382.9-389.5 400.6-853.8 386.5-1355.1-.7-24.7-1.4-49.4-2.2-74.2-27.6-848.8-290.7-4647.3-295.5-4865.8-5.5-249.3 93.7-425.5 94.5-667.4v-5.7c-.1-36.4-.2-69.2-.2-99 0-250 3.5-291.2 3.5-538.2 0-31.2 0-65.8-.2-104.4v-3.2c0-70.5 7.1-143.8 7.2-214.7 0-109.5-16.9-213.4-103.3-292.7-21.8-20-45.8-39.8-71.6-59.2-214-160.7-549.6-292.6-782.2-314.7-259.5-24.6-522.3-46.7-783.8-46.7m-1335.8 2112.1s-67.6-181.2-57.9-481.7c9.6-300.4 9.6-1316.3 9.6-1316.3s231.8-100.1 333.2-119.2c101.5-19.1 328.4-42.9 328.4-42.9l24.2 1802.7-376.7 85.8zm2792.5-126.4s-104.4-1602.8-21.5-1602.8c.7 0 1.4.1 2.2.4 86.9 28.6 125.5 124 125.5 124s26.6 963.3 16.9 1220.9c-9.6 257.5-123.1 257.5-123.1 257.5M17739.8 6475c69.2-1178.6 135.6-2233.5 135.6-2233.5l622.9-143.1s-46.1 1036.7-89.5 2221.9l12.6-1.8c260.6-36 511.2-53.6 758.6-53.6 374.9 0 742.3 40.3 1125.2 117.8 10.9 2.3 21.4 4.9 31.8 8 4 1.2 8 2.5 11.9 3.8l-66.9-1827.1c-.9-47.4 37.2-86.6 85.2-87.5h1.7c47.3 0 86 37.4 86.9 84.2l72.8 1986.7c11.4 25.6 18.3 53 20.2 81.5l9.4 150.9 131.6 2112.9c2.6 41.4-5.7 81-22.7 116.7-11 23.4-25.6 45-43.3 64.5-.8 1-1.7 1.9-2.5 2.8l35.7 974c.9 47.4-37.3 86.6-85.3 87.5h-.6c-47.5 0-87.1-37-88-84.2l-32.3-883.1c-23.5 4.9-48.1 7.5-73.3 7.5-11.9 0-24-.6-36.1-1.7-372.5-36.2-734-54.4-1098.9-54.4-298 0-598.3 12.2-908.3 36.6h-.1v.1h-.1c-.6 288.2 5 489.8 19.5 558.8 84.6 404.1 251.8 1174.8-61 1174.8-8.3 0-16.9-.5-26-1.6 0 0-680.9-615.2-680.9-1330.6 0-84.4 4.1-223 11.2-401.8-1.1-.7-2.1-1.4-3.2-2-42.8-28-77.3-65.1-99.2-108.2-19.1-37.8-28.5-80.1-25.4-124.7l147.5-2102.5 11.1-158.2c5.4-76.2 47.3-144.6 112.2-191.4" style="fill:#f6f8e6;fill-opacity:1;fill-rule:nonzero;stroke:none" transform="matrix(.01375 0 0 -.01375 -162.25 221.819)"/><path d="m18498.3 4098.4-622.9 143.1s-66.4 1054.9-135.6 2233.5c6.2-4.4 12.6-8.7 19.2-12.7v-.1c8.6-5.4 17.7-10.4 27-15 23.8-11.8 49.8-20.9 77.3-27.1 34.8-7.8 69.3-15.2 103.7-22.4 98.2-20.5 194.7-38.6 289.7-54.2 51.1-8.5 101.8-16.2 152.1-23.2 43.4-1185.2 89.5-2221.9 89.5-2221.9M17596.8 9162c-7.1 178.8-11.2 317.4-11.2 401.8 0 715.4 680.9 1330.6 680.9 1330.6 9.1 1.1 17.7 1.6 26 1.6 312.8 0 145.6-770.7 61-1174.8-14.5-69-20.1-270.6-19.5-558.8-144.7 11.4-291.7 25.4-441.5 42.1-22.4 2.5-44.8 5.1-67.3 7.7-14.5 1.7-28.8 2.5-42.9 2.5-69 0-133.3-19.5-185.5-52.7M20368.9 4479.9h-1.7c-48 .9-86.1 40.1-85.2 87.5l66.9 1827.1c74 25 133.5 72.9 167.7 132.7l.1.1c4.4 7.6 8.4 15.5 11.9 23.5l-72.8-1986.7c-.9-46.8-39.6-84.2-86.9-84.2m252.4 4600.2c-42 45.4-100.6 78.8-167.4 93.5-1 .2-2.1.4-3.1.7l32.3 883.1c.9 47.2 40.5 84.2 88 84.2h.6c48-.9 86.2-40.1 85.3-87.5z" style="fill:#fcfdf8;fill-opacity:1;fill-rule:nonzero;stroke:none" transform="matrix(.01375 0 0 -.01375 -162.25 221.819)"/><path d="M18314.8 2329.1s-226.9 23.8-328.4 42.9c-101.4 19.1-333.2 119.2-333.2 119.2s0 1015.9-9.6 1316.3c-9.7 300.5 57.9 481.7 57.9 481.7l260.8-71.6 376.7-85.8z" style="fill:#fcfdf8;fill-opacity:1;fill-rule:nonzero;stroke:none" transform="matrix(.01375 0 0 -.01375 -162.25 221.819)"/><path d="M19204.1 4024.8c-484.1 0-1059 77.8-1549.9 252.5-13.6 4.8-20.6 19.7-15.8 33.2s19.7 20.6 33.2 15.8c833.6-296.7 1909.1-311.5 2353-139.3 13.4 5.2 28.5-1.4 33.7-14.8s-1.5-28.5-14.9-33.6c-189.3-73.5-490.8-113.8-839.3-113.8" style="fill:#231f20;fill-opacity:1;fill-rule:nonzero;stroke:none" transform="matrix(.01375 0 0 -.01375 -162.25 221.819)"/><path d="M20472.5 2560c-82.9 0 21.5 1602.8 21.5 1602.8s113.5 0 123.1-257.5c9.7-257.6-16.9-1220.9-16.9-1220.9s-38.6-95.4-125.5-124c-.8-.3-1.5-.4-2.2-.4" style="fill:#fcfdf8;fill-opacity:1;fill-rule:nonzero;stroke:none" transform="matrix(.01375 0 0 -.01375 -162.25 221.819)"/><path d="m20689.8 8896.1-131.6-2112.9-9.4-150.9c-2.4-37.4-13.7-72.8-32.1-105l-.1-.1c-36-63-100.1-112.7-179.6-136.5-10.4-3.1-20.9-5.7-31.8-8-635.5-128.6-1228.4-154.8-1883.8-64.2-180.6 24.9-365.9 58.7-558.1 101.6-38.2 8.6-73.5 22.9-104.3 42.2-75.7 46.5-125.5 120.6-131.4 204.1l-11.1 158.2-147.5 2102.5c-3.1 44.6 6.3 86.9 25.4 124.7 21.9 43.1 56.4 80.2 99.2 108.2 63.4 41.3 145 62.4 231.6 52.2 173.3-20.2 342.6-36.8 509-49.9 689.5-54.3 1330.5-47.9 2007.2 17.8 39 3.7 77 1.3 112.5-6.5 68.2-15 127.7-49.5 169.9-96.3 17.7-19.5 32.3-41.1 43.3-64.5 17-35.7 25.3-75.3 22.7-116.7" style="fill:#efd83e;fill-opacity:1;fill-rule:nonzero;stroke:none" transform="matrix(.01375 0 0 -.01375 -162.25 221.819)"/><path d="m20558.2 6783.2-9.4-150.9c-2.4-37.4-13.7-72.8-32.1-105l-.1-.1c-36-63-100.1-112.7-179.6-136.5-10.4-3.1-20.9-5.7-31.8-8-635.5-128.6-1228.4-154.8-1883.8-64.2-180.6 24.9-365.9 58.7-558.1 101.6-38.2 8.6-73.5 22.9-104.3 42.2-75.7 46.5-125.5 120.6-131.4 204.1l-11.1 158.2c267-57.7 860.7-169.1 1491.6-175.6 558.5-5.6 1104.7 72 1450.1 134.2M20667.1 9012.8c-403.7-49.2-1007.3-107.9-1521-96.7-639 14-1334.7 94.8-1651.7 135.7 21.9 43.1 56.4 80.2 99.2 108.2 63.4 41.3 145 62.4 231.6 52.2 173.3-20.2 342.6-36.8 509-49.9 689.5-54.3 1330.5-47.9 2007.2 17.8 39 3.7 77 1.3 112.5-6.5 68.2-15 127.7-49.5 169.9-96.3 17.7-19.5 32.3-41.1 43.3-64.5" style="fill:#4d1418;fill-opacity:1;fill-rule:nonzero;stroke:none" transform="matrix(.01375 0 0 -.01375 -162.25 221.819)"/><path d="M18256.7 6343.5c-95 15.6-191.5 33.7-289.7 54.2 98.2-20.5 194.7-38.6 289.7-54.2m-470.7 103.7c-9.3 4.6-18.4 9.6-27 15v.1c8.7-5.5 17.7-10.5 27-15.1" style="fill:#fff;fill-opacity:1;fill-rule:nonzero;stroke:none" transform="matrix(.01375 0 0 -.01375 -162.25 221.819)"/><path d="M18405.4 6694.9c-268.6 30.9-502.4 71.7-669.2 104.9-55.4 824.6-111.9 1709.4-137.1 2238.8 184.7-22.8 445.7-52.2 735.8-76.7 5.4-575.8 36.7-1454.6 70.5-2267" style="fill:#fbf8d6;fill-opacity:1;fill-rule:nonzero;stroke:none" transform="matrix(.01375 0 0 -.01375 -162.25 221.819)"/><path d="M18421.4 6318.5c-54.5 7.5-109.3 15.8-164.7 25-95 15.6-191.5 33.7-289.7 54.2q-51.6 10.8-103.8 22.5c-27.4 6.1-53.4 15.2-77.2 27-9.3 4.6-18.3 9.6-27 15.1-7.6 110.6-15.2 223.5-22.8 337.5 166.8-33.2 400.6-74 669.2-104.9 5.3-127.6 10.6-253.5 16-376.4" style="fill:#dbc5c7;fill-opacity:1;fill-rule:nonzero;stroke:none" transform="matrix(.01375 0 0 -.01375 -162.25 221.819)"/><path d="M18334 9162.3h.102v.102h-.102Z" style="fill:#fefffc;fill-opacity:1;fill-rule:nonzero;stroke:none" transform="matrix(.01375 0 0 -.01375 -162.25 221.819)"/><path d="M18334 9162.3c-144.7 11.4-291.7 25.5-441.5 42.2 149.8-16.7 296.8-30.7 441.5-42.1z" style="fill:#fff;fill-opacity:1;fill-rule:nonzero;stroke:none" transform="matrix(.01375 0 0 -.01375 -162.25 221.819)"/><path d="M18334.9 8961.9c-290.1 24.5-551.1 53.9-735.8 76.7-2.1 42.8-3.9 83.3-5.5 121.3 52.8 34.4 118.3 54.8 188.7 54.8 14.1 0 28.4-.8 42.9-2.5 22.5-2.6 44.9-5.2 67.3-7.7 149.9-16.8 296.9-30.8 441.6-42.2-.2-61.6.1-128.6.8-200.4" style="fill:#dbc5c7;fill-opacity:1;fill-rule:nonzero;stroke:none" transform="matrix(.01375 0 0 -.01375 -162.25 221.819)"/><path d="m20352 6748.5 94 2238.9c61.1 6.6 119.6 13.3 174.8 19.9l-93.6-2229.6c-54.1-9.6-112.8-19.4-175.2-29.2" style="fill:#fbf8d6;fill-opacity:1;fill-rule:nonzero;stroke:none" transform="matrix(.01375 0 0 -.01375 -162.25 221.819)"/><path d="m20337 6390.8 15 357.7c62.4 9.8 121.1 19.6 175.2 29.2l-10.5-250.4-.2-.1c-35.9-63-100-112.7-179.5-136.4M20446 8987.4l7.9 186.1c68.1-15 127.7-49.4 169.9-96.2l-3-70c-55.2-6.6-113.7-13.3-174.8-19.9" style="fill:#dbc5c7;fill-opacity:1;fill-rule:nonzero;stroke:none" transform="matrix(.01375 0 0 -.01375 -162.25 221.819)"/><path d="M17782.9 9188.6c-81.8 0-160.3-29.6-215.7-82.5-51.2-48.9-76.8-111.8-72.3-177.1l158.6-2260.8c7.5-106 94-195.5 215.5-222.7 871-194.6 1598.1-205.7 2431-37.3 124.4 25.2 216 118 222.7 225.8l141.2 2263.7c4 64.3-21.4 126.4-71.5 174.8-62.4 60.3-155.3 90.8-248.6 81.7-845.8-82.3-1623.4-72.4-2521.6 32.1-13.1 1.6-26.2 2.3-39.3 2.3m1396.9-2948.8c-427.8 0-859.2 51.5-1322.2 155-144 32.2-246.9 140.6-255.9 269.8l-158.6 2260.8c-5.7 81 25.6 158.5 88.2 218.3 75.3 71.9 186.3 107.2 296.9 94.3 894.3-104.1 1668.6-114 2510.5-32 108.2 10.5 216.6-25.4 289.8-96.1 61.2-59.1 92.2-135.6 87.3-215.4l-141.2-2263.7c-8.2-131.3-116.9-243.7-264.3-273.6-386.4-78.1-757.1-117.3-1130.5-117.4" style="fill:#231f20;fill-opacity:1;fill-rule:nonzero;stroke:none" transform="matrix(.01375 0 0 -.01375 -162.25 221.819)"/><path d="M18512.9 13789.9c-3.5-54.4-1.1-174.4 1.2-290.8 1.8-93.7 3.7-190.5 2.9-262.9-4.1-367.5-19.7-751.4-34.8-1122.8-2.5-61.6-4.9-122.9-7.4-183.5-9.8-247.8-80.3-460.3-215.6-649.6-76.8-107.6-246.3-217.5-410.2-323.8-137.5-89.2-279.7-181.5-349.6-263-321-375.2-310.9-846.3-301-1302 1-49 2.1-98 2.7-146.9 8.3-608.5 167.5-2645 262.6-3861.8 36.4-466 62.7-802.8 64.7-858.8 5.2-150.3-21-271.8-46.3-389.2-21.8-101.2-44.3-205.9-48.2-332.2-4.5-144.2-15.7-256.9-25.7-356.4-20-200.7-35.8-359.2 20.2-644.4 95.5-486.7 1089.2-577.1 1391.5-593.2 334.5-17.8 676.8 10.5 998.7 41.1 265.2 25.1 649.3 193.3 838.7 367.2 105.3 96.6 98.5 234.1 91.3 379.7-1.8 36.7-3.7 74.8-3.5 111.7.6 190.8-.5 282.5-1.6 371.3-1.1 88.7-2.2 180.4-1.6 370.4.4 116.2-22.4 215.2-46.5 319.9-25 108.9-50.9 221.5-48 353.7 1.8 81.1 38.9 652 85.9 1374.8 81.1 1247.4 192.2 2955.7 209.6 3491.2 18.9 582.1 2.9 1024-376.9 1410.3-60.5 61.5-164.6 127.7-274.8 197.7-160.6 102.1-326.6 207.6-397 322.2-109.1 177.6-159.6 382.3-163.8 663.9-2.4 160.8-10.4 320.4-18.8 489.4-13.7 275.3-27.9 560-15.8 846.7 6.3 149.9 8 352.3 4.1 472.8-51.6 13.5-109-9.8-169.5-34.3-35.3-14.4-71.9-29.2-107-35.6-92.1-16.7-186.3-13.4-277.5-10.2-27.9 1-55.7 2-83.3 2.4-59.2.9-139.1 18.7-223.7 37.6-117.5 26.3-249.5 55.8-326 37.4m523.8-11638.8c-73.3 0-146.6 1.7-219.6 5.6-399.6 21.3-1339.8 125.8-1439.8 635.1-57.4 292.7-41.3 454.6-20.8 659.5 9.9 98.7 21 210.5 25.4 352.9 4 131 27.1 238 49.4 341.5 25.8 119.7 50.1 232.6 45.1 376.5-1.9 54.9-28.2 391.2-64.5 856.6-95.2 1217.4-254.4 3254.9-262.8 3865.1-.6 48.7-1.7 97.6-2.7 146.5-10 465.4-20.4 946.6 313.5 1336.9 74.7 87.3 213.7 177.4 360.8 272.8 159.8 103.6 325.1 210.8 396.2 310.4 129.2 180.8 196.5 384.1 206 621.5 2.4 60.6 4.9 121.9 7.4 183.6 15.1 370.9 30.6 754.5 34.7 1121.2.8 71.6-1.1 168-2.9 261.3-2.7 138.1-5.3 268.6.8 315l2.1 15.5 14.6 5.4c87.5 32.5 231.4.4 370.6-30.7 81.9-18.3 159.3-35.6 213.1-36.4 28-.4 56.2-1.4 84.5-2.4 88.4-3.1 179.8-6.4 266.3 9.4 29.9 5.4 62.4 18.6 96.8 32.5 69.9 28.4 149.2 60.6 224.4 29l15.3-6.4.7-16.5c4.7-118.8 3.2-336.1-3.5-494.9-12-284.3 2.1-567.8 15.7-841.9 8.1-162 16.4-329.5 18.9-491.3 4-271.6 52.2-468.2 156.1-637.4 64.1-104.3 225-206.6 380.6-305.5 112.8-71.7 219.3-139.4 284-205.2 424.8-432 407.2-972 391.7-1448.4-17.4-536.3-128.5-2245.1-209.6-3492.9-47-722.2-84.1-1292.6-85.8-1372.5-2.8-125.7 22.4-235.1 46.7-340.9 23.7-103 48.2-209.6 47.8-331.8-.6-189.6.5-281.1 1.6-369.6 1.1-88.9 2.2-180.9 1.5-372-.1-35.6 1.8-73 3.6-109.1 7.4-151.1 15.2-307.4-108.1-420.5-199.8-183.4-589.6-354.2-868.9-380.7-254-24.1-520.7-46.8-786.9-46.8" style="fill:#231f20;fill-opacity:1;fill-rule:nonzero;stroke:none" transform="matrix(.01375 0 0 -.01375 -162.25 221.819)"/><path d="M19749.6 14903.3v-2486.7s-164.1-116.8-599.3-113c-114.8 1-215.6 12.7-301.9 29.1-122.9 23.7-216.1 57.2-277.5 84.3-57.8 25.3-121.6 52.7-121.6 52.7l37.6 2493.8 84-4 277.5-13.2z" style="fill:#4d1418;fill-opacity:1;fill-rule:nonzero;stroke:none" transform="matrix(.01375 0 0 -.01375 -162.25 221.819)"/><path d="M18919.8 14930.6V12317c-122.9 23.7-216.2 57.2-277.6 84.2v2542.6z" style="fill:#a58588;fill-opacity:1;fill-rule:nonzero;stroke:none" transform="matrix(.01375 0 0 -.01375 -162.25 221.819)"/><path d="M18492.7 12482.9c54.7-30.7 291.3-150.2 657.9-153.4 359-3.1 530.1 77.7 573 101.7v2447.3l-1210.9 57.8zm678.2-205.4c-6.8 0-13.8 0-20.8.1-434.4 3.7-686.9 161.8-697.5 168.5l-12.1 7.8 20.7 2536.9 1314.4-62.7v-2524.9l-10.9-7.8c-6.9-4.9-170.7-117.9-593.8-117.9" style="fill:#231f20;fill-opacity:1;fill-rule:nonzero;stroke:none" transform="matrix(.01375 0 0 -.01375 -162.25 221.819)"/><path d="m19829.3 14536.9-.6-211.2c0-119-75.1-223.1-183.5-255.9-270.3-81.7-544.5-95.2-822.3-45.1-68.5 12.2-137.1 28.4-206.1 48.4-19.6 5.6-38.1 13.7-55.3 23.7-79.3 45.9-131 134.3-131 233l3.2 203.2c0 31.4 5.6 62.5 16.2 91.8l-3.6 104.5-3.4 12.4c-4.2 15.6-6.5 31.6-6.7 47.9l-5.7 532.4h1398.2v-554.4c0-29.6-6.2-58.7-18.1-85.4l-.9-66.9 1-1.8c12.2-23.5 18.6-49.9 18.6-76.6" style="fill:#efd83e;fill-opacity:1;fill-rule:nonzero;stroke:none" transform="matrix(.01375 0 0 -.01375 -162.25 221.819)"/><path d="m18456.8 15296 5.4-506.2c.2-13.8 2.1-27.8 5.8-41.4l4.2-15 3.8-112.8-1.7-4.7c-9.7-26.8-14.6-54.7-14.6-82.9l-3.2-203.7c0-87.2 45.2-167.8 118-210 15.8-9.2 32.4-16.3 49.5-21.2 68.8-19.9 137.2-36 203.5-47.8 275.6-49.7 548.1-34.8 810.2 44.4 97.1 29.4 165 124.4 165 231l.6 211.3c0 22.6-5.4 44.9-15.7 64.4l-3.9 7.9 1 78.6 2.1 4.9c10.4 23.2 15.9 49 15.9 74.8v528.4zm687.2-1326.4c-107.8 0-216.5 9.8-325.7 29.5-68 12.1-138.3 28.6-208.7 49-21.2 6.1-41.8 14.9-61.2 26.3-88.8 51.4-143.9 149.2-143.9 255.4l3.2 203.6c0 32.2 5.4 64.3 16 95.4l-3.3 96.5-2.6 9.4c-4.8 18-7.3 36.2-7.6 54.5l-6 558.8h1450.4v-580.4c0-31.2-6.2-62.4-18.1-90.9l-.7-55.3c12.7-25.8 19.5-55 19.5-84.5l-.7-211.2c0-129.3-83-244.8-201.8-280.7-166.1-50.3-336.3-75.4-508.8-75.4" style="fill:#231f20;fill-opacity:1;fill-rule:nonzero;stroke:none" transform="matrix(.01375 0 0 -.01375 -162.25 221.819)"/><path d="M18822.9 14024.7c-68.5 12.2-137.1 28.4-206.1 48.4-19.6 5.6-38.1 13.7-55.3 23.7l-28.3 1113.3 58.5 111.9 3.9 7.6 37.8-7.6 167.4-33.3z" style="fill:#f8ecb3;fill-opacity:1;fill-rule:nonzero;stroke:none" transform="matrix(.01375 0 0 -.01375 -162.25 221.819)"/><path d="M19139.1 14543.1c-341.4 0-627.2 76.3-688.3 174-1.2-23.2-.6-69.7 3.5-93.3 65.2-96.1 343.4-164.9 681.3-164.9 343.5 0 618.9 58.9 675.3 154 1.5 17.5-1.2 47.7-1.9 76.5-90.5-85-358-146.3-669.9-146.3" style="fill:#4d1418;fill-opacity:1;fill-rule:nonzero;stroke:none" transform="matrix(.01375 0 0 -.01375 -162.25 221.819)"/><path d="M18479.1 14634c57.9-74.8 298.7-149.1 656.5-149.1 328.3 0 592.7 55.8 649.7 136.3.1 5.2 0 11.4-.2 18.1-121.6-74.2-369.3-122.2-646-122.2-294.4 0-548.1 54.3-661.8 136.9.4-7.4 1-14.2 1.8-20m656.5-201c-348.9 0-631.3 70.8-702.8 176.2l-3.1 4.6-1 5.5c-4.5 25.8-5.2 74.1-3.9 99.1l4.2 82.4 43.8-69.9c49.8-79.5 312.6-161.8 666.3-161.8 296.7 0 564.9 57.3 652.1 139.3l42.5 39.9 1.3-58.3c.3-10.1.7-20.4 1.2-30.2.9-19.4 1.7-36.1.6-49l-.4-6-3.1-5.1c-73-123-408.3-166.7-697.7-166.7" style="fill:#231f20;fill-opacity:1;fill-rule:nonzero;stroke:none" transform="matrix(.01375 0 0 -.01375 -162.25 221.819)"/><path d="M19201.7 14292.1c-9.1 0-18.2 0-27.2.2-309.7 4.1-632.2 75.5-750.3 166.1l31.7 41.3c108.4-83.3 424.4-151.5 719.3-155.5 316.8-3.8 589.1 62.5 634.9 125.1l42-30.7c-68.3-93.2-378.8-146.5-650.4-146.5" style="fill:#231f20;fill-opacity:1;fill-rule:nonzero;stroke:none" transform="matrix(.01375 0 0 -.01375 -162.25 221.819)"/><path d="m18456.8 15296 5.4-506.1c.2-14 2.1-27.9 5.8-41.4l4.3-18.3 3.7-109.6-1.7-4.7c-9.6-26.5-14.6-54.4-14.7-82.9l-3.1-203.6c0-107.4 68.9-202.7 167.5-231.3 347-100.6 688.1-101.7 1013.7-3.3 97.2 29.3 165 124.3 165 231l.6 211.1c0 22.5-5.4 44.8-15.7 64.5l-4 7.8 1.1 78.7 2.2 5c10.3 23.1 15.8 49 15.8 74.7v528.4zm687.7-1326.2c-176 0-354.7 26.1-534.9 78.4-120.8 35-205.1 150.8-205.1 281.6l3.2 203.7c.1 32.4 5.5 64.5 16 95.3l-3.3 96.6-2.6 9.4c-4.8 17.7-7.4 36-7.6 54.5l-5.9 558.7h1450.4v-580.4c0-31.1-6.3-62.4-18.2-90.9l-.7-55.3c12.8-26 19.5-55.2 19.5-84.6l-.6-211.1c0-129.3-83.1-244.8-202-280.7-166-50.2-335.8-75.2-508.2-75.2" style="fill:#231f20;fill-opacity:1;fill-rule:nonzero;stroke:none" transform="matrix(.01375 0 0 -.01375 -162.25 221.819)"/><path d="M19828.7 15327c0-116.6-313-211.1-699.1-211.1s-699.1 94.5-699.1 211.1c0 116.5 313 211 699.1 211s699.1-94.5 699.1-211" style="fill:#e8d165;fill-opacity:1;fill-rule:nonzero;stroke:none" transform="matrix(.01375 0 0 -.01375 -162.25 221.819)"/><path d="M19129.6 15512c-396.6 0-673.1-97.5-673.1-185s276.5-185.1 673.1-185.1c396.7 0 673.1 97.6 673.1 185.1s-276.4 185-673.1 185m0-422c-351.5 0-725.1 83-725.1 237 0 153.9 373.6 237 725.1 237s725.1-83.1 725.1-237c0-154-373.6-237-725.1-237" style="fill:#231f20;fill-opacity:1;fill-rule:nonzero;stroke:none" transform="matrix(.01375 0 0 -.01375 -162.25 221.819)"/><path d="M18061.6 8284.6c-23.9 6.6-50.1 12.1-78.3 16.2-49.1 7.1-104.6 11-166.4 11.6-11-.3-16.5-.5-27.5-.8 2.4-44.9 5.6-112 9.7-201.3s7.3-156.4 9.8-201.2c6.2-3.5 9.3-5.2 15.6-8.6 11.9-6 37.8-12.1 77.9-18.2 7.9-1.2 11.9-1.8 19.7-2.9 57.6-8 102.7-10 135.2-6.4 67.9 7.6 117.2 25 147.6 51.4 30.5 26.4 46.3 65.1 47.5 115.7-.2 7-.4 10.6-.6 17.6-1.1 32.3-7.4 63.1-18.7 92.2-11.4 29.2-26.3 51.7-44.6 67.7-14.6 12.7-34.1 25.7-58.7 38.9-24.5 13.1-47.4 22.4-68.2 28.1m-184.7 108c30.1.5 65.6-2.7 105.9-8.5 64.1-9.2 114.4-21.4 150.7-37.1 68.7-30.1 119.8-67 153.2-111.5s53.7-103.2 61.2-176.6c.9-6.3 1.5-15.3 1.9-27 1.1-35.7-8.6-74.8-29.4-116.1-15.6-31.1-36.9-56.4-63.2-75.5-26.3-19.2-61.8-34.7-106.3-45.8-66.6-16.7-146.6-18-239.5-3.9-36.6 5.5-54.9 8.4-91.5 14.1 2.7-51 4.1-76.5 6.8-127.4 2.7-49.7 3.8-80.5 3.4-92.5-.5-11.9-3.8-20.9-8.7-26.8-6.8-8.1-17.2-11.7-31.5-9.5-13.7 2.2-25.4 8.8-35.3 19.9-5.4 6.2-8.2 9.3-13.7 15.5-5.8 79.7-8.7 119.6-14.6 199.3-2.7 33.2-6.7 96.4-12 189.5-5.6 96.6-9 164.4-10.6 202.7-5.1 120.1-6.6 188.6-4 203.7 2.8 17.1 11.3 25.9 26.1 25.6 2.2.4 16.7-1.3 43.4-4.7 44.4-5.7 80.7-7.8 107.7-7.4M18441 8298.7c8 6.9 19.5 9.7 34.5 8.5 7.5-.6 15-3 22.6-7 14.3-8 24.7-41.5 30.9-100.7s12.5-184.7 19.2-376c2-55.7 3.9-120.8 5.6-195.2 1.2-51.6 1.1-88.5-.2-110.7-1.3-22.3-3.7-36.4-7.1-42.3-3.5-5.9-10.1-10.5-19.2-14.1-8.5-3.2-15-5-19.4-4.6-4.3.3-10.8 2.9-19.6 7.8-13.2 7.2-20.9 14.8-23.3 22.5-.8 2.2-6.2 130.2-16.3 384.2-10.2 253.9-15 385.3-15.7 392.3-.5 4.5-1.4 10-1.5 15.6-.2 7.5 2.9 14.1 9.5 19.7M18786.2 8320.1c22.4 4.7 49.4 6.6 80.9 5.8 38.3-1 69.3-5 91.3-13.2 21.6-8 43.1-22.2 63.7-41 20.7-18.7 35.5-37.7 44.5-56.9q6.75-13.5 13.5-52.2c4.5-25.8 6.7-45.5 6.7-59.3 0-4.8-.4-7.9-1.1-9.3-5.2-23.4-19-35-41.2-34.9-10.4.1-19.9 3.9-28.5 11.5-8.5 7.7-14 17.7-16.2 30.1-6.9 40.7-14.7 69.5-23.3 86.4-8.7 17-22.3 31-40 39.3-14.3 6.8-33.7 9.9-56.2 10.5-27.7.6-55.1-3.2-82.2-11.6-27.2-8.4-46.3-19.7-55-33.6-9.7-15.3-14-33.8-13.7-53.1.2-13.7 3.3-27.6 9.5-41.6 16.1-34.4 76.1-94.6 178.5-177.6 80.1-64.9 130.9-113.9 151.9-148.2 22.1-36.2 33-76 33-118.7-.1-59.1-19.8-108.7-58.9-148.4-27.5-29.4-66.3-51.3-114.8-62.5-31.9-7.3-60-10-82.4-9.4-49.1 1.4-92.9 21.7-131 60.5-47.8 48.6-72.5 105.5-73.7 169.5-.7 35.1 6.9 68.1 23.3 97.8 17.3 31.3 36.2 46.7 55.3 45.9 10.3-.4 20.8-5.8 31.6-16.2 10.7-10.4 16.2-20.6 16.3-30.6.2-9.9-5.3-23.1-14.8-39.1-10.1-17-14.8-37.9-14.4-61.3.4-28.9 8.5-55.7 24.1-80.3 15.6-24.7 35.8-41.6 60.5-50.6 3-1.5 9.9-2.4 20.8-2.7 38.4-1.1 70.7 5.1 96.7 18.4 42.7 20.6 64.6 57.4 63.9 108.5-.5 32.6-10.1 61.2-27.8 84.9-17.7 23.6-57.5 60.4-119.7 110.7-73.2 59-126.2 107.5-157.9 144.3-31.6 36.8-52.3 73.1-61.9 108.7-4.7 16-7.2 28.9-7.4 38.5-.1 4.1 1 15.6 3.8 33.8 6.2 41.3 22.3 73.8 46.9 96.7 24.7 22.9 59.8 39.6 105.4 50.5M19515.2 8310.2c11.3 2.6 24.1 4.3 38.3 5 33.7 1.7 62.8-1.3 87.3-9.3 15.6-5.1 32.8-15.6 51.4-31.3s30.7-30.2 36.3-43.4c4.8-11.2 7.2-23.8 6.8-37.5-.6-23.5-7.3-39.5-20.2-48.1-4.5-3.1-13.1-5.2-25.7-6.2-10.4-.8-19.8 2.8-28.1 10.8-8.4 8-12.4 17.1-12.2 27.5.2 8.9-5.7 19.1-17.7 30.7-12.1 11.6-24.8 18.4-37 21.4-8 1.9-17.8 3.1-29 2.5-37.4-2-78-19.4-121.7-52s-77.6-71.6-101.9-116.9c-35.4-66.3-54.9-136.1-58.4-209.8 0-2.7-.2-7.2-.7-13.4-.4-6.2-.6-10.7-.6-13.4-1.1-135.5 46.1-225 140.6-266.1q26.1-11.4 45.6-10.5c8 .3 14.5 1 19.6 1.9 21.1 3 37.9 8 50.4 14.8 12.4 6.8 26.1 18.5 40.9 35.2 14.9 16.7 25.4 30.4 31.4 41.1 6.1 10.7 11.8 27.2 17.5 48.6 10.6 39.7 28.8 60.7 52.9 62.6 11 .9 21.8-3.4 32.5-12.8 10-8.8 14.8-16.9 14.7-24.5q-.15-3.15-2.7-17.7c-7-44.6-26.7-88.6-58.9-131.6s-67.5-72.5-106.1-88.4c-19.7-8.6-48.7-14.6-86-16.6-34.4-1.8-62.8 2.3-84.4 11.2-65.6 28-114.7 68.6-147.5 121s-51.8 119.9-56.6 202.4c-.7 6.9-1 17.5-1 32 .4 83.9 17.8 163.1 52.8 237.9 34.9 74.9 79.2 131.8 132.8 171.3 20.3 15.1 44.6 29.6 72.9 43.8 28.2 14.2 52.3 23.4 71.7 27.8" style="fill:#100f0d;fill-opacity:1;fill-rule:nonzero;stroke:none" transform="matrix(.01375 0 0 -.01375 -162.25 221.819)"/><path d="M20244.4 8272.8c-9.4 4-33.3 4.3-71.8.8-4.5-.6-10.1-1.2-16.7-1.8-6.7-.6-11.2-1-13.4-1.4-18.6-2.5-39.2-10.5-61.9-23.8-58.3-33.8-105.5-109.1-141.2-226.3-9.2-29.8-14.9-52.8-17.3-68.8s-5-45.7-6.9-88.1c-2.2-51.8-.6-91.4 3.6-117.3 4.2-25.8 14.3-52.1 28.8-78.2 15.7-28.4 36.4-50.2 62.6-63.6 26.1-13.4 54.6-18 85.7-13.7q39 5.4 74.4 27c49.4 29.7 92.2 71 127.7 123.6 27.3 40.3 47.2 81.5 59.9 123.1 12.6 41.6 20.7 93.1 24 154.5.7 13.2 1 19.8 1.7 33.1 1.7 31-2.2 59.4-11.8 85.3-25.2 61.7-67.6 106.7-127.4 135.6m-131.9 73.7c9.7 3.2 37.8 8.9 84.1 16.9 7.1 1 10.7 1.5 17.8 2.6 23.9 3.4 47.6 1.2 70.7-6 22.4-7.1 50.9-24.2 84.7-51.9q33.9-26.55 46.8-42c8.6-10.3 18.5-26.9 29.6-49.8 15.8-32.3 25.5-58.6 29.5-78.5 3.9-19.9 4.8-49.2 2.6-87.9-.5-8.7-.8-13-1.3-21.7-6.1-81.1-20.2-150.4-42.1-208-22-57.5-57.1-115.8-105.2-174.6-24.5-30.4-55.6-59.2-93.4-86.1-37.7-26.9-71.6-44.5-101-51.7-14.3-3.6-25.6-5.7-33.6-6.8-75.5-10.6-137.6 5.7-186.5 47.9-15.4 13.3-31.9 34.9-49.7 64.9-17.9 29.9-30 57.8-36.5 83.1-7 27.3-9.7 74.1-7.7 140.2 1.1 37.2 3.3 66.2 7 86.2 4.1 22.2 7.7 48.3 11.2 76.3 1.7 13.8 9.3 38.4 22.2 73.4s26.1 63.6 38.2 85.5c11.9 21.5 26.7 44.8 44.5 68.9 17.9 24.1 33.1 41.7 45.3 52.8 13.1 11.8 32.1 24.3 57.1 37.5s47.2 22.6 65.7 28.8" style="display:inline;fill:#100f0d;fill-opacity:1;fill-rule:nonzero;stroke:none" transform="matrix(.01375 0 0 -.01375 -162.25 221.819)"/></g></svg>