<svg xmlns="http://www.w3.org/2000/svg" xml:space="preserve" width="200mm" height="200mm" viewBox="0 0 200 200"><path d="M18119.2 12936.8h.6zm0 0h-11.9zm-1951.3 4188.6c-10.7 248.7-20.8 485.8-30 700.1 16-213.9 19.3-451.4 30-700.1m3909.1 673.7c5.8 320-77.8 430.8-456.3 665.2 377.9-225 462.2-342.1 456.3-665.2m-3941.6 123.2c-.7 192.5 31.1 304.8 158.1 422.6-90.8-103.4-153.3-237.2-158.1-422.6m3095.3 774.2c-174.6 106.3-401.5 253.7-443.1 325.2-154.6-32.7-386.8-111.6-574-121.5-26.6-1.4-52.6-2.1-78.1-2.1-351.5 0-598.6 127.1-715.4 194-51.3-100.4-286.3-236.8-455-327.2 207.7 116.3 562.4 339.4 559.6 553.4l58.4 1914h1017.3l49.9-1957.6c-.9-172 343.1-424.5 580.4-578.2" style="fill:#f6fcfb;fill-opacity:1;fill-rule:nonzero;stroke:none" transform="matrix(.01819 0 0 -.01819 -229.285 425.8)"/><path d="M18119.8 12936.8c943.5.2 1717.5 448.3 1763.6 755.9l39.2 828.4 123.4 2605.7 28.9 608.6c1 22.1 1.7 43.3 2.1 63.7-.4-20.4-1.1-41.6-2.1-63.7l-28.9-608.6-123.4-2605.7-39.2-828.4c-46.1-307.6-820-755.8-1763.6-755.9m-1981.9 4888.7c-2.5 33.8-3.3 66-2.5 96.8.1-30.1 1-62.3 2.5-96.8m155.6 519.4c139 158.2 344.5 245 511.4 335.8 28.4 15.5 88.3 45.7 160.2 84.2-62.9-35.2-112.4-60.6-134.3-73.1-265.7-150.5-433.4-250.5-537.3-346.9m3327.2 119.4c-51 30.4-107.4 62.7-169.7 97.8 0 0-95.4 53.5-220.3 134.4 116.2-70.7 209.2-123.3 209.2-123.3 66.7-39.4 126.8-75.5 180.8-108.9" style="fill:#ddf3f2;fill-opacity:1;fill-rule:nonzero;stroke:none" transform="matrix(.01819 0 0 -.01819 -229.285 425.8)"/><path d="M18119.2 12936.8h-11.9c-972.3 3.9-1782.3 472.7-1793.6 792.6 0 1-12.3 287.4-31.1 724-29.3 684.4-75.2 1753.5-114.7 2672-10.7 248.7-14 486.2-30 700.1-1.5 34.5-2.4 66.7-2.5 96.8 4.8 185.4 67.3 319.2 158.1 422.6 103.9 96.4 271.6 196.4 537.3 346.9 21.9 12.5 71.4 37.9 134.3 73.1 168.7 90.4 403.7 226.8 455 327.2 116.8-66.9 363.9-194 715.4-194 25.5 0 51.5.7 78.1 2.1 187.2 9.9 419.4 88.8 574 121.5 41.6-71.5 268.5-218.9 443.1-325.2 124.9-80.9 220.3-134.4 220.3-134.4 62.3-35.1 118.7-67.4 169.7-97.8 378.5-234.4 462.1-345.2 456.3-665.2-.4-20.4-1.1-41.6-2.1-63.7l-28.9-608.6-123.4-2605.7-39.2-828.4c-46.1-307.6-820.1-755.7-1763.6-755.9z" style="fill:#d1efeb;fill-opacity:1;fill-rule:nonzero;stroke:none" transform="matrix(.01819 0 0 -.01819 -229.285 425.8)"/><path d="M19561.9 13709.4h-.7c-62.5.6-111.9 52.3-110.3 115.5l90.3 3564.2c1.8 71.2 56.9 128.6 123.2 128.5h.8c66.6-.6 119-59.1 116.9-130.5l-104.4-3564.4c-1.8-63-53.6-113.5-115.8-113.3m-3101.1 3928.7 131.3-3822c1.8-51.9 25.6-100.5 64.4-131.4 80.2-63.9 222.6-171.5 329.9-221 43.4-20 83.9-35.6 119.9-47.6 78.4-26.1 155.9 37.3 153.9 126.3l-87.1 3923.5c-5.4 246.1-146.5 468.4-351 538.3-116.5 39.8-236.4 25.7-313.6-129.9-35.2-70.9-50.5-153.3-47.7-236.2" style="fill:#fff;fill-opacity:1;fill-rule:nonzero;stroke:none" transform="matrix(.01819 0 0 -.01819 -229.285 425.8)"/><path d="m20045.9 17126.8-123.3-2605.7c-63.9-59.2-140.5-117.8-229.4-173.3h-.2c-69.8-43.5-147.1-85.1-232-123.4-316.6-143.7-738-244.6-1259.2-242.8-340.4 1.2-632.7 38.3-885.7 93.9h-.1c-291.2 63.8-530.8 152.4-731.2 238.9-112.4 48.5-212.4 96.5-302.1 139-29.4 684.4-75.3 1753.4-114.8 2672 87.4-34 193.1-73.9 316.4-115.2 207.5-69.3 464.1-142.8 765.7-199.4h.2c258-48.5 549-84.7 870.4-96.2 608.2-21.2 1064.9 76.2 1408.3 193.8h.1c87.8 30 168.3 61.5 241.8 92.5 105 44.3 196.2 87.8 275.1 125.9" style="fill:#fefaec;fill-opacity:1;fill-rule:nonzero;stroke:none" transform="matrix(.01819 0 0 -.01819 -229.285 425.8)"/><path d="m19770.8 17000.9-77.8-2653.1c-69.8-43.5-147.1-85.1-232-123.4l67.9 2684h.1c87.8 30 168.3 61.5 241.8 92.5m-2521.6-2902.1c-291.2 63.8-464 129.1-664.4 215.6l-100.5 2695.8c207.5-69.3 403.9-130.9 705.6-187.4z" style="fill:#fff;fill-opacity:1;fill-rule:nonzero;stroke:none" transform="matrix(.01819 0 0 -.01819 -229.285 425.8)"/><path d="m20038.5 17123.9-4.2-116.8c-75.5-36.3-163.7-79.4-267-123.6-72.6-31.1-152.8-62.9-241.4-93.5-303.5-104.7-705.6-194.9-1241.2-194.9-54.3 0-109.5.9-166.2 2.9-320.2 11.2-608.4 46.7-865.6 95-294.9 55.5-549.2 128-764.2 200.4-122.3 41.1-231.8 82.3-329.1 120.2l30.6 113.2c409.2-159.8 1054.8-375.7 1932.6-406.6 982.1-34.5 1596 249.7 1915.7 403.7m-105-2588.5c-51.9-48.2-130.3-113-240.2-181.1-65.8-40.5-142.7-82.3-232.1-122.3-281-125.7-684.7-233.8-1245.2-233.8h-14.5c-338.6 1.3-631.5 37.8-885.9 92.7-290.4 62.9-530.5 149.6-731.2 235-114.3 48.7-215.8 96.8-306.5 139.8l7.4 139.9 45.1-29.3c75-35.7 157.6-74.9 249-114.9 198.9-87.2 439.3-178.1 733.1-244.1 254-57.2 547.8-95.7 889.4-96.8h12.8c458.1 0 901 101.5 1250.4 265.7 83.3 39.1 161.2 81.8 232.8 127.5 80.9 51.6 153.7 107 216.8 165.6z" style="fill:#47b173;fill-opacity:1;fill-rule:nonzero;stroke:none" transform="matrix(.01819 0 0 -.01819 -229.285 425.8)"/><path d="M19465.1 14387.8c83.3 39 161.2 81.7 232.8 127.4l-4.6-160.9-.3-6.5c-69.8-43.5-147.1-85.1-232-123.4l.2 7.6zm305.7 2613.1-3.5-119.3c-72.6-31.1-152.8-62.9-241.4-93.5l3 120.3h.1c87.8 30 168.3 61.5 241.8 92.5m-2578.3-299.2c-271.7 55.4-508 119.3-706 191.7l-4 116.8c191-69.3 427.4-142.8 705.2-199.4zm55.9-2626.2c-268.2 63.8-488.9 152.4-673.4 238.9l-.4 11.5 4 138c185.5-84.1 397.1-162.6 667.8-228.7l1.7-144.3z" style="fill:#a5dfbd;fill-opacity:1;fill-rule:nonzero;stroke:none" transform="matrix(.01819 0 0 -.01819 -229.285 425.8)"/><path d="m16302.7 14466.7 10.2-4.9c383-181.8 961.7-456.5 1888.9-459.7h12.9c696.5 0 1325.8 197 1687.8 528.4l121.3 2562.8c-332.8-159.8-932.7-433.3-1903.9-399.2-869.5 30.6-1514 240.1-1930.1 400.7 39-905.8 83.8-1951.1 112.9-2628.1m1913-505.8c-4.7 0-9.4 0-14.1.1-936.3 3.2-1520.1 280.3-1906.3 463.6l-32.7 15.5-.5 12.4c-29.4 684.4-75.2 1753.5-114.8 2672l-1.3 31.5 29.4-11.5c412-160.8 1062-378.2 1946-409.3 992.5-34.9 1593 254.6 1915.7 410.2l31.1 14.9-125.4-2648.6-6.2-5.7c-166.7-154.6-397.1-286-666.2-379.8-314.5-109.7-669.3-165.3-1054.7-165.3" style="fill:#231f20;fill-opacity:1;fill-rule:nonzero;stroke:none" transform="matrix(.01819 0 0 -.01819 -229.285 425.8)"/><path d="M16582.7 16582.2q6.45-.75 14.1-3c12.2-3.7 22.1-8.8 29.8-15.3 5-4.1 9.8-10.6 14.6-19.5 4.8-8.8 7.5-16.2 8-22.3.5-5.1-.1-10.4-1.7-15.8-2.8-9.2-6.9-14.5-12.4-16.1-2-.6-5.2-.2-9.8 1.2-3.8 1.2-6.7 3.9-8.8 8.2-2 4.3-2.5 8.5-1.2 12.6 1 3.5.1 8.3-2.9 14.5s-6.5 10.7-10.7 13.4c-2.6 2-6 3.6-10 4.9-13.5 4.1-29.9 2.4-49.2-4.9-19.3-7.4-36-18.5-49.9-33.4-20.5-21.7-35.6-46.8-45.5-75.3-.3-1.1-.9-2.8-1.8-5.2s-1.5-4.1-1.8-5.2c-16.2-53.1-9.3-93.8 20.7-122 5.4-5.2 10.6-8.6 15.4-10.1 3-.9 5.5-1.5 7.4-1.8 8.1-1.6 14.8-1.8 20.1-.8q7.95 1.5 18.9 8.4c7.3 4.5 12.6 8.5 16 11.9s7.3 8.9 11.7 16.7c8.5 14.2 17.2 20 26 17.3 4.1-1.3 7.5-4.5 10.3-9.8 2.6-4.9 3.5-8.8 2.6-11.8-.2-.8-1.2-3-2.9-6.6-7.4-16.6-19.3-31.1-35.8-43.5-16.4-12.3-32.6-19-48.5-20.1-8.2-.7-19.3.9-33.4 4.9-12.9 4-22.9 9.1-29.8 15.3-20.9 19.3-34.3 41.2-40.3 65.7-5.9 24.5-4.9 53.2 3.1 86.1.5 2.8 1.7 7 3.4 12.6q15 49.35 47.1 87.3c21.4 25.2 44 42.4 67.6 51.4 9 3.4 19.3 6.1 31 8.2 11.7 2 21.2 2.6 28.6 1.9m94.6-118c3.8 2.2 8.2 2.7 13.4 1.4q7.8-1.95 10.5-6.9c1.9-3.1 1.4-12.1-1.5-27.1l-3.9-21.2 15.3 7.5c11.2 5.4 23.6 9.6 37.1 12.6 10.1 2.1 17.3 3.3 21.5 3.4s11.5-.9 21.7-2.8c3.9-.7 8.3-1.6 13.3-2.8 6.5-1.7 12.1-4.4 16.7-8.1 8.5-6.5 15-13.6 19.5-21.4 4.4-7.8 6-14.4 4.6-19.9l-.5-1.1-.5-1.2c-4.3-8.2-10.5-11.3-18.4-9.4-5.5 1.4-10.7 5.3-15.8 11.8-6.5 9.1-14.1 14.8-22.8 16.9-3.3.8-7.1 1.4-11.4 1.6-29.2 1.7-58.1-10.3-86.8-36l-9.4-8.1c-3.7-15-9.1-37.8-16.1-68.3-6.9-30.5-12.3-53.3-16.1-68.7l-6.3-4.1c-4.2-3-8.8-3.9-13.7-2.7-4.4 1.1-7.8 3.9-10.2 8.2-3.8 6.8-.5 31.1 9.8 72.9 2.1 8.2 8.4 32.5 19 72.8 12.1 45.4 19.7 73.2 22.8 83.1 3 10 5.8 15.9 8.2 17.6m329.8-121.6c-6.3 5.7-14.6 9.8-25 12.5l-5.4 1.1q-11.55 2.4-19.5.6c-5.3-1.3-11.8-4.4-19.4-9.4-12.3-8.2-21.6-19.5-28.1-34-2.6-5.8-4-9.3-4.3-10.7-.4-1.7-.1-3.2.8-4.5 5-6.5 18.9-12.8 41.8-18.9 4.1-1.1 8.8-2.2 14-3.3 6.6-1.4 13.8-1 21.4 1.2 7.3 2 14.5 5.8 21.5 11.5 7.1 5.8 11.8 11.5 14.1 17 .4.8.8 2 1.2 3.7 2.4 11.8-2 22.9-13.1 33.2m-47.5 52c5.9.8 13.9.2 24.2-1.9 14.3-2.9 26.5-7.4 36.4-13.5 8-4.8 15.3-11.9 22-21.3q10.05-14.1 13.2-28.2c2-9.9 2.1-18.9.4-27.2-3.3-16.3-13.6-30.9-30.9-43.7-22.3-16.4-46.9-21.9-73.7-16.4-.8.2-2.2.5-4.3 1.1-2 .6-3.6 1-4.7 1.2-13 3.5-24 7.5-32.9 11.9-3.9 2.2-7.8 3.8-12 4.6l-1.2.3c-.8-.8-1-5.2-.8-13.3.2-8 .9-15.7 2-22.8 1-6.5 3.5-13.3 7.7-20.3q6.3-10.65 14.1-16.5c6-4.4 12.2-7.2 18.5-8.5 17.7-3.6 32.9 1 45.6 13.9 6.1 6 10.6 9.6 13.5 11.1 3.4 1.6 6.8 2 10.1 1.3 4.5-.9 8-3.3 10.8-7.4 2.8-4 3.7-8.3 2.7-13-1.2-6.1-5.7-12.8-13.4-20.1-7.6-7.4-15.9-12.7-24.6-16.1-18.4-6.9-34.3-8.9-47.8-6.2-.9.2-2 .5-3.5 1-1.5.4-2.8.7-3.9 1-20.2 5.2-36.7 16.7-49.5 34.2-8.9 12.5-14.7 28.3-17.2 47.6-2.5 19.2-1.7 39.1 2.5 59.8 1.8 8.3 4.3 17.4 7.8 27.3q12.15 33.75 35.4 54.9c15.5 14 33.3 22.5 53.5 25.2m378.9-72.5c5.2.6 12 .3 20.4-1l4.6-.7c18.2-3.6 32.5-13.2 43-28.8 4.6-7 8-14.1 10.2-21.2 2.1-7.2 3.9-17.6 5.2-31.2 1.2-10.7 1.4-20.2.6-28.3q-1.2-12.15-7.8-60.3c-1.5-12.1-3.6-26.4-6.2-43.1-3.9-25.6-8.3-40.3-13.2-44.2-3.2-2.6-7.6-3.5-13.2-2.6-5.8.9-9.6 3-11.4 6.4-1.6 2.6-2 7.5-1.3 15 .7 7.4 3.5 26.9 8.3 58.3 4.6 31.8 7.3 52.1 8.1 61 .8 8.8.8 18.3.1 28.4-1.3 14.1-3 24.7-5 31.5-2.1 6.9-5.3 12.2-9.5 16-4.5 4.1-10 6.7-16.4 7.7-4.7.7-10.6.7-17.5.1-11.2-.8-24-8.3-38.3-22.3-14.2-14.1-27-31.6-38.2-52.7-4.4-8.5-7.5-15.7-9.1-21.7q-2.4-9-9.3-45.6c-5-26.9-8.5-43.2-10.6-49-2-5.8-5.7-9.3-11-10.5-3.8-.8-6.6-1.1-8.2-.9-2.6.4-5.7 3-9.5 7.9l-5.7 7.7 12.9 72.4c5 28.9 7.8 45.2 8.4 49.2 2.6 17.2 3.8 30.4 3.5 39.6-.7 15.8-2.6 27-5.8 33.6-3.1 6.6-8.3 10.4-15.5 11.5-11.1 1.7-23.6-1.8-37.3-10.5s-25.9-20.8-36.6-36.2l-8.4-13.3-9.5-64.3-4.3-28.4c-2.6-16.8-4.5-27.2-5.7-31.4-1.2-4.3-3-7.5-5.3-9.7-3.4-3.2-6.7-4.5-10.1-4-.2 0-.8.2-1.8.5s-1.7.5-2.3.5c-5.5 1.2-9.5 4.1-11.9 8.7-1.7 3.4-2.3 8.6-1.7 15.4.7 6.9 3.3 25.4 7.9 55.5 14.5 94.1 24.7 147.5 30.6 160.3 3.9 7.1 9.3 10.1 15.9 9.1 3.9-.6 7.3-2.9 10.1-6.7 2.6-3.6 3.7-10.3 3.3-20.2l-.9-14.8 12.9 9.3c18.9 13.2 38.7 18.9 59.5 17.2 1.1-.2 2.5-.3 4-.4 1.6-.1 2.6-.2 3.2-.3 5.3-.8 11.5-3.8 18.7-8.9 12.8-9.3 20.8-23.1 24-41.3.3-1.4.7-3.3 1.1-5.7.3-2.3.6-4.3 1-5.9.3-1.6.5-2.7.7-3.3.4-1.2.7-1.8 1-1.9 1.4-.2 5.5 3.4 12.4 10.9 20.2 22.3 42.5 34.8 66.9 37.6m259-66.8c-6.9 4.9-15.6 8.3-26.1 10l-5.5.5c-7.8.9-14.3.4-19.5-1.3-5.1-1.7-11.2-5.4-18.4-11.2-11.4-9.3-19.7-21.4-24.7-36.5q-3-9-3.3-11.1c-.1-1.7.3-3.1 1.3-4.4 5.6-5.9 20.1-10.9 43.4-14.8 4.2-.7 8.9-1.4 14.3-1.9 6.7-.7 13.7.4 21.1 3.3q10.65 3.9 20.4 13.5c6.5 6.4 10.6 12.5 12.3 18.2.4.9.7 2.1.8 3.8 1.3 12-4.1 22.6-16.1 31.9m-52.3 47.2c5.8 1.3 13.8 1.5 24.2.4 14.6-1.6 27.1-4.9 37.6-10 8.4-4 16.3-10.4 23.9-19.1s12.9-17.7 15.9-26.7c2.9-9.7 3.9-18.7 3-27.1-1.7-16.6-10.6-32.1-26.6-46.5-20.6-18.5-44.6-26.3-71.7-23.4-.9.1-2.3.3-4.4.7s-3.7.6-4.8.7q-20.1 3.45-33.9 8.7c-4.1 1.9-8.2 3-12.4 3.5l-1.3.1c-.6-.8-.5-5.2.5-13.2 1-8.1 2.4-15.6 4.2-22.6q2.4-9.6 9.6-19.5c4.8-6.6 10.1-11.6 15.6-15 6.4-3.8 12.8-6 19.3-6.7 17.9-1.9 32.6 4.1 44 18.2q8.25 9.75 12.3 12.3c3.4 1.9 6.7 2.7 10.1 2.3q6.75-.6 11.4-6.3c3.1-3.7 4.5-8 4-12.7q-1.05-9.3-11.4-21.3c-7-8.1-14.6-14.2-23-18.4-17.7-8.6-33.3-12.2-47-10.7q-1.35.15-3.6.6c-1.5.3-2.8.5-4 .6q-30.9 4.95-52.5 29.4c-10.1 11.5-17.3 26.7-21.7 45.6s-5.4 38.8-3.2 59.9q1.35 12.6 5.1 27.9c5.9 23.2 15.8 42.5 30 58 14.1 15.5 31 25.6 50.8 30.3m386.6-76.1c-4.7 2.2-10.7 3.6-17.9 3.9-10.2.6-20.8-.7-32-3.7-11.2-3.1-19.7-7.3-25.6-12.6-17.2-15.4-27.8-41.7-31.7-78.9-1.2-10.1-1.8-16.3-1.9-18.5-.4-7.3.5-15.4 2.5-24.2 3.3-12.6 8.2-22.9 14.7-31 6.4-8.1 14-12.9 22.7-14.5.5 0 1.3-.1 2.3-.3.9-.2 1.7-.3 2.3-.4 17.4-.9 38.9 12.5 64.3 40.1 7.8 9.1 15 16.6 21.5 22.5l8 7.1 2.7 26.9c2.8 25.2 4.3 39.5 4.4 42.8l.9 15.6-14.7 10.9c-9.7 7-17.3 11.8-22.5 14.3m70.6 125.3c3.6 3.2 7.3 4.7 11.3 4.5 5-.3 9.2-3.7 12.5-10 1.6-3.2 2.2-6.2 2.1-9 0-.6-.8-4.5-2.3-11.8-7.2-34.8-14.8-86.2-22.7-154-3.5-28.6-5.9-56-7.3-82.1-1.2-23.1-1.4-41.4-.4-55 .6-14.1.9-23.2.7-27.1-.4-6.8-1.9-11.5-4.6-14.2q-4.05-4.35-12.9-3.9c-3.7.2-7 1.2-10 3.1-6.6 4-9.9 17.4-10.1 40.3-.4 13.8-.7 21.4-.9 22.9l-.4.4c-2 .1-8.4-4.8-19.4-14.6q-14.7-14.1-26.1-20.4c-7.5-4.3-17-7.6-28.4-10.1-6-1.4-12-1.9-17.9-1.6-13.8.7-26.8 5.6-39 14.6-12.2 8.9-21.6 20.8-28.1 35.5-5.8 13.3-9.3 23.9-10.6 31.9-1.2 8-1.4 20.4-.5 37.3 2.1 33.7 8.7 60.6 20 80.6q13.05 23.4 30.9 36c11.8 8.3 26.9 14.3 45.1 17.8 11.2 2.3 21.5 3.1 31.1 2.6q23.55-1.2 48-18.6c6-4.6 10.2-6.9 12.8-7.1h.4c.9.8 3.7 15.7 8.3 44.8 4.2 26.1 7.5 43 9.7 50.9 2.3 7.9 5.2 13.4 8.7 16.3m186.1-129.5c-7.2 4.3-16.2 6.9-26.9 7.6l-5.5.1c-7.9.2-14.3-.8-19.3-3-4.9-2.2-10.7-6.4-17.3-12.8-10.6-10.2-17.7-23.1-21.4-38.5-1.5-6.2-2.3-10-2.3-11.4 0-1.7.5-3.1 1.6-4.2 6.1-5.5 21-9.1 44.6-10.9 4.3-.4 9-.6 14.4-.7 6.7-.1 13.7 1.6 20.8 5.1 6.8 3.3 13.2 8.4 19.1 15.3 5.8 6.9 9.4 13.4 10.6 19.3.3.8.5 2.1.5 3.7.2 12.2-6.1 22.3-18.9 30.4m-56.3 42.4c5.7 1.9 13.7 2.7 24.2 2.5 14.6-.2 27.4-2.4 38.3-6.6 8.7-3.2 17.2-8.9 25.5-16.9s14.3-16.5 18.1-25.3c3.8-9.3 5.6-18.2 5.5-26.7-.3-16.6-7.8-32.8-22.4-48.6-19-20.2-42.1-30.1-69.4-29.6q-1.35 0-4.5.3c-2.1.1-3.7.3-4.8.3-13.5 1-25 2.9-34.6 5.6q-6.3 2.25-12.6 2.4h-1.3c-.5-.8 0-5.2 1.7-13.1s3.7-15.3 6.2-22.1c2.1-6.2 5.9-12.4 11.2-18.6 5.4-6.1 11.1-10.7 16.9-13.6 6.7-3.2 13.3-4.9 19.8-5 18-.3 32.1 7.1 42.2 22.1 4.9 6.9 8.7 11.4 11.2 13.3 3.2 2.2 6.4 3.3 9.8 3.2 4.5-.1 8.5-1.8 12-5.3 3.4-3.4 5.1-7.5 5-12.3-.1-6.2-3.2-13.6-9.4-22.2-6.3-8.7-13.3-15.4-21.3-20.4-16.8-10.1-32.1-15-45.9-14.8q-1.35 0-3.6.3c-1.6.2-2.9.2-4 .3q-31.2 2.25-54.9 24.6c-11.1 10.6-19.7 25.1-25.7 43.5-6 18.5-8.8 38.2-8.4 59.3.1 8.5 1 17.9 2.6 28.3 3.8 23.6 12 43.8 24.7 60.4 12.7 16.7 28.7 28.3 47.9 34.7m513 82.9q5.7 4.5 12.9 4.8 12.45.6 21.9-12.9 14.4-20.85 20.1-141.6c.6-11.8 1.4-35.4 2.5-70.9 1.3-45.1 1.9-72.4 1.8-82s-1.1-16-3.2-19.2c-3.1-4.9-8-7.6-14.7-7.9-4.7-.2-8.4 1-11 3.7-2.1 1.9-3.5 9-4.4 21.4q-1.35 18.6-6 117.3c-4.3 89.5-7.3 136-9.2 139.6q-.9 2.4-1.8 2.4c-1.4-.1-6.9-8.4-16.6-24.9-5.7-10.4-19-32.1-40-64.9-4-6.1-8.3-13-13-20.7s-9.2-15-13.5-22c-4.4-7-7.2-11.5-8.5-13.5-8.9-14.8-16-22.4-21.3-22.6q-3.9-.15-9 2.1c-6.4 2.5-11.7 6.3-16.2 11.3s-11.3 15.1-20.5 30.5c-16.8 28-32.6 52.9-47.3 74.7q-22.05 32.85-25.5 32.7l-.4-.1c-1.9-2-2.6-22.2-2.2-60.6.4-38.3 1.7-80.7 4-127.1l4-94.5-4.9-4.1c-3.2-2.7-6.1-4.1-8.6-4.2-2.9-.1-6.3 1.3-10.4 4.2-2.6 1.8-4.4 4.1-5.4 6.7s-2.1 8-3.3 16.1c-3.5 26.1-6.4 63-8.6 110.8-3.5 72.3-4 124.8-1.6 157.3 1.2 16.4 3.6 28.2 7.2 35.2 3.6 7.1 9.2 10.8 16.8 11.2 5.9.3 10.9-.5 14.9-2.2 3.7-1.8 9.9-6.9 18.4-15.2 8.6-8.4 15.1-15.5 19.6-21.5 17.6-26 39.5-60 65.7-102.2l9.2-14.8 3.5 5.2c3.5 4.7 13.3 20.9 29.7 48.6 16.3 27.7 27.9 47.8 34.6 60.3 15.6 28.3 29 46.2 40.3 53.5m216.6-94.6q-11.55 5.25-27.6 4.5l-5.5-.6c-7.8-.8-14.1-2.5-18.8-5.3-4.7-2.7-9.9-7.6-15.7-14.7-9.3-11.4-14.9-25-16.7-40.7-.8-6.3-1.1-10.2-1-11.6.2-1.7.9-3 2.1-4q10.05-7.05 45.6-5.7c4.2.2 9 .5 14.3 1.1 6.8.6 13.4 3.1 20.1 7.5q9.6 6 17.1 17.4 7.65 11.4 8.4 20.4c.2.8.2 2.1 0 3.8-1.2 12.1-8.6 21.4-22.3 27.9m-60.9 35.5q8.1 3.75 23.7 5.4c14.6 1.4 27.5.7 38.8-2.1q13.5-3.3 27.3-13.8c9.2-7 16.2-14.7 21-23 4.9-8.8 7.7-17.4 8.5-25.9 1.7-16.5-3.8-33.5-16.5-50.9-16.4-22.3-38.3-34.8-65.5-37.5-.8-.1-2.3-.2-4.4-.2-2.1-.1-3.7-.2-4.9-.3-13.5-.5-25.1 0-34.9 1.6-4.4.9-8.6 1.2-12.8.8l-1.3-.1c-.5-.9.6-5.2 3.2-12.9 2.6-7.6 5.5-14.7 8.7-21.2 2.9-5.9 7.3-11.6 13.4-17.1s12.2-9.3 18.3-11.5c7.1-2.5 13.8-3.3 20.3-2.7 17.9 1.8 31 10.8 39.3 26.9 4.1 7.5 7.3 12.3 9.6 14.5 2.8 2.6 6 4 9.3 4.4 4.5.4 8.7-.9 12.5-3.9s6-6.9 6.5-11.6c.6-6.2-1.7-13.9-6.8-23.2-5.2-9.3-11.4-16.9-18.8-22.7q-23.25-18-43.8-20.1c-.8-.1-2-.1-3.6-.2-1.6 0-2.9 0-4-.2-20.9-.9-40 5.1-57.4 18.1q-18.45 13.8-30.6 40.2c-8.1 17.6-13.3 36.9-15.4 57.9-.8 8.4-1 17.9-.7 28.4 1 23.9 6.8 44.8 17.5 62.9 10.6 18 25.1 31.4 43.5 40m148.5 10.1c2.1 3.2 6 5.2 11.5 6 3.9.6 7.3.2 10-1.1 5.2-2.4 9.8-16.3 13.9-41.5l.7-5c1.8-11.7 3.7-17.4 6-17 .8.1 2.2 1.6 4 4.4 3.3 5 11.5 13.9 24.7 26.5 13.2 12.7 23.1 21.5 29.8 26.5 12.6 8.9 25.9 14.5 39.8 16.6 12.6 1.8 24.7.9 36.3-2.8 14.3-4.3 25.8-11.8 34.6-22.7 8.7-10.9 16.3-27.3 22.7-49.5 6.4-22.1 13.2-54 20.2-95.6 1.4-7.5 2.9-16.4 4.4-26.7 1.9-12.8 1.6-21-1-24.5-2.7-3.5-6.7-5.7-12.3-6.5-4.7-.7-8.7 0-11.9 2.1-3.4 2.3-6.1 7-8 14.1-1.9 7.2-6 27.5-12.1 61-5.4 28.8-9.5 48.5-12.2 59.1-2.7 10.5-6.6 21.4-11.7 32.6-3.4 7.2-7.3 12.5-12 15.8-4.6 3.3-11.1 5.4-19.5 6.4-5.8.6-10.6.6-14.5 0q-18-2.7-43.5-26.1c-18.5-17.3-32.8-35.2-42.9-53.8l-5.6-11.1 8.6-57.6c3.9-26.5 6.2-43.1 6.8-49.9.5-6.7 0-12.2-1.6-16.4-1.9-6.6-5.5-10.2-10.8-11-2.2-.4-4.2-.5-5.9-.5-3.4.1-6.6 1.2-9.5 3.3-2.5 1.9-5.4 11.6-8.6 29.1-3.1 17.4-13 78.9-29.5 184.4l-1.7 11.2c-1.6 10.6-1.3 17.4.8 20.2m290.2 136.1c2.6 4.2 5.8 6.8 9.7 7.5 3.8.8 7.9-.3 12.2-3.1l6.5-4.4 18.2-104.9 4.7.1c3.7.1 14 1.6 31 4.4 17.8 3 28.3 3.5 31.6 1.5 3.6-2.4 5.9-6 6.8-10.7 1-4.9.1-9.6-2.8-13.9-2.7-4-9.2-7-19.7-9.1-1.1-.2-3.6-.6-7.3-1.2-3.8-.6-6.9-1.2-9.4-1.6l-32.5-5.6 1.9-16.1q1.8-17.7 9.9-58.5c5.4-27.1 10.9-46.3 16.6-57.5 5.4-11.4 10.9-18.9 16.5-22.7 4.3-2.9 7.7-4.4 10.2-4.6 2.5-.3 8.1.5 17 2.2 9.9 2 17 2.6 21.2 1.7s7.3-3.8 9.5-8.8c.5-1 .9-2.3 1.2-4 2.3-11.7-7-20.4-28-26-.8-.1-2-.4-3.5-.9-1.5-.4-2.5-.7-3-.8-5.6-1.1-12.8-.7-21.8 1.3-20.6 5.1-36.1 16.7-46.5 34.7-9.9 17.8-17.6 40.6-23.1 68.2-2.4 12.2-4.2 22.1-5.4 29.9l-10.1 57-11.1-2.6c-13.5-2.7-21.3 1.1-23.3 11.3q-2.85 14.55 18.9 21.9c5.9 2 9.4 3.6 10.5 4.6 1.1 1.1 1.7 3.5 1.8 7.3.1 5.4-1.2 18.5-3.7 39.1q-3.75 30.9-6.3 43.8c-1.8 9.1-1.3 15.9 1.6 20.5m130.8 34.6c2.4 3.5 5.4 5.7 9.3 6.7 3.8.9 7.5.1 11-2.5 3.6-2.6 6.5-6.7 8.8-12.2 2.4-5.2 8.7-25.7 18.8-61.5l14.7-51.6 7.7 11.1c6 8.4 13.4 16 22.4 22.8q13.35 10.05 40.5 17.1c18.1 4.7 35.4 2.4 51.6-6.9 18.1-10.6 31-30.3 38.8-59.1l1.3-5.3q5.55-22.2 15.6-68.4c6.7-30.9 10.5-49.8 11.4-56.9 1.1-6.7.4-12.4-2-17.2s-5.8-7.8-10.2-8.9q-6.6-1.65-13.2 2.4-4.65 2.7-6.6 7.2c-1.4 3-3.6 11-6.9 23.8-3.7 14.8-8.6 38.2-14.9 70.3-2.3 12.5-4.6 23.5-7 33.1-5.8 22.9-12.3 37.7-19.8 44.3-7.4 6.5-18.7 8-33.8 4.6l-1.7-.4q-18.75-4.8-30.3-15.3c-7.7-7-14.5-17.5-20.3-31.4-5.6-13.6-8.1-24.3-7.6-32.2.5-7.8 5.1-29.5 13.7-65.1l15.3-62.8-3.5-7c-2.9-4.8-6.6-7.8-11.3-8.9-5.1-1.3-10.1-.2-14.7 3.2l-6 4.7-22.7 99.7c-5.1 21.3-12.3 51.6-21.7 90.8-9.3 39.2-14.8 61.8-16.3 67.8l-14.8 59zm367.6-34.3c-8.3 1.8-17.6 1.3-28-1.5l-5.2-1.7c-7.5-2.4-13.2-5.5-17.2-9.1-4-3.7-8.1-9.6-12.3-17.8-6.7-13.1-9.2-27.6-7.7-43.3.6-6.4 1.1-10.2 1.5-11.5.5-1.7 1.5-2.8 3-3.5 7.5-3.2 22.7-1.8 45.7 4.1 4.1 1.1 8.7 2.4 13.8 4.1 6.4 2 12.4 5.9 18 11.6 5.4 5.3 9.7 12.2 13 20.6 3.3 8.5 4.6 15.7 3.9 21.7 0 .9-.3 2.2-.8 3.8-3.7 11.5-13 19-27.7 22.5m-67 21.8q7.05 5.4 21.9 10.2c14 4.6 26.8 6.6 38.4 6.3 9.3-.3 19.2-2.9 29.6-7.8 10.5-4.9 19-10.8 25.4-17.9 6.6-7.7 11.2-15.5 13.8-23.5 5.2-15.8 3.4-33.6-5.3-53.3-11.4-25.3-30-42.1-56-50.6-.8-.2-2.3-.6-4.3-1.1-2.1-.6-3.6-1-4.7-1.3-13.1-3.4-24.6-5.4-34.5-5.9-4.5 0-8.7-.6-12.7-1.9l-1.2-.4c-.3-1 1.6-4.9 5.8-11.9 4.2-6.9 8.5-13.2 13-18.8 4.1-5.2 9.6-9.9 16.7-13.9 7.1-4.1 13.9-6.6 20.4-7.4 7.4-.9 14.2-.3 20.3 1.7 17.2 5.5 28.1 17.1 32.8 34.6q3.6 12.3 6.3 16.2c2.2 3.1 5 5.2 8.2 6.2 4.3 1.4 8.6 1.1 13-1.1 4.4-2.1 7.3-5.4 8.8-10 1.9-5.9 1.3-13.9-1.7-24.1q-4.65-15.3-13.5-26.1c-12.6-15.1-25.5-24.7-38.6-29-.8-.2-2-.5-3.5-.9-1.5-.3-2.8-.7-3.9-1-20.2-5.4-40.1-3.6-59.9 5.4-14 6.4-26.8 17.4-38.4 32.9-11.7 15.4-20.8 33.2-27.3 53.3-2.6 8-4.9 17.2-6.8 27.6-4 23.5-2.8 45.2 3.8 65.1s17.9 36.1 34.1 48.4m-2639 42.2 34.2-65.2z" style="fill:#100f0d;fill-opacity:1;fill-rule:nonzero;stroke:none" transform="matrix(.01819 0 0 -.01819 -229.285 425.8)"/><path d="m17050.3 16508.4 27.4-68.7c2.6-6.7-.6-14.2-7.3-16.9-5.8-2.3-12.3-.1-15.6 4.9l-41 61.6c-6.3 9.5-3.7 22.4 5.8 28.7s22.4 3.7 28.7-5.8c.8-1.2 1.4-2.5 2-3.8" style="fill:#231f20;fill-opacity:1;fill-rule:nonzero;stroke:none" transform="matrix(.01819 0 0 -.01819 -229.285 425.8)"/><path d="m17592.1 21233.8-46.9-1916c3.2-239.6-493.5-537.6-867.4-740.8-19.2-10.4-34.9-19-46.3-25.4-341.4-191.2-491.5-293.9-473-725.2l29.9-700.1c39.6-918.6 85.4-1987.6 114.8-2672 18.3-425.1 31-722.9 31.1-724.2 10.7-302.4 809.3-768.9 1773.1-772.7h11.8c424.3 0 852.1 91.7 1206 258.7 308.6 145.6 514.5 328.9 537.7 478.7l191.4 4041.5c19.5 413.6-93.3 530.5-551.9 776.2-36 20.1-874 490.8-872.7 762.3l-27.3 1948.3zm527.3-8317.6h-12.2c-447.6 1.8-897.2 101.2-1266 279.9-332.1 160.9-542.1 365-548 532.6-.1 2.7-12.3 287-31.1 723.8-29.4 684.4-75.2 1753.5-114.8 2672l-29.9 700.1c-19.5 454.7 146.6 568.4 494 762.9 11.5 6.5 27.4 15.1 46.8 25.6 563.4 306.3 848 543.5 845.9 704.9l47.9 1957.4 1091-11.6 27.8-1988.8c-1-205.8 614.2-594.1 851.4-726.4 469.3-251.4 593.6-381.1 573.2-814.2l-191.6-4044.7c-47-312.8-815.9-773.5-1784.4-773.5" style="fill:#231f20;fill-opacity:1;fill-rule:nonzero;stroke:none" transform="matrix(.01819 0 0 -.01819 -229.285 425.8)"/><path d="M18661.7 21469.8v-2083.1s-145.2-97.8-530.4-94.6c-101.6.8-190.9 10.6-267.2 24.4-108.8 19.8-191.3 47.9-245.7 70.5-51.1 21.3-107.5 44.2-107.5 44.2l33.2 2089.1 74.3-3.4 245.7-11.1z" style="fill:#47b173;fill-opacity:1;fill-rule:nonzero;stroke:none" transform="matrix(.01819 0 0 -.01819 -229.285 425.8)"/><path d="M17927.3 21492.7v-2189.4c-108.8 19.8-191.3 47.9-245.7 70.6v2129.8z" style="fill:#d0eedc;fill-opacity:1;fill-rule:nonzero;stroke:none" transform="matrix(.01819 0 0 -.01819 -229.285 425.8)"/><path d="M17546.8 19441.9c47.2-25.2 257.7-126.6 584.7-129.3 322.3-2.7 473 66.1 509.7 85.9v2051.7l-1076.7 48.6zm602.8-170.5c-6.1 0-12.2 0-18.4.1-383.6 3.1-606.4 135.1-615.7 140.7l-10 6.1.1 11.7 18.2 2111.8 1158.5-52.3v-2113.7l-9.1-6.1c-6-4.1-150.3-98.3-523.6-98.3" style="fill:#231f20;fill-opacity:1;fill-rule:nonzero;stroke:none" transform="matrix(.01819 0 0 -.01819 -229.285 425.8)"/><path d="m18732.2 21784.8-.5-176.9c0-99.7-66.4-186.9-162.3-214.4-239.3-68.4-482-79.8-727.8-37.8-60.7 10.2-121.4 23.8-182.5 40.5-17.4 4.8-33.7 11.5-49 19.9-70.1 38.5-115.9 112.5-115.9 195.1l2.8 170.3c0 26.3 5 52.3 14.4 76.9l-3.2 87.6-3.1 10.3c-3.6 13.1-5.6 26.5-5.9 40.1l-5 446.1h1237.5V21978c0-24.7-5.5-49.2-16-71.5l-.7-56 .8-1.6c10.9-19.7 16.4-41.8 16.4-64.1" style="fill:#47b173;fill-opacity:1;fill-rule:nonzero;stroke:none" transform="matrix(.01819 0 0 -.01819 -229.285 425.8)"/><path d="m17515 22421.9 4.8-425.2c.2-11.7 1.9-23.4 5.1-34.8l3.8-12.6 3.4-94.4-1.5-3.9c-8.6-22.5-13-45.9-13-69.5l-2.8-170.6c0-73.3 40.3-141.1 105.2-176.7 14.2-7.9 29.2-13.9 44.5-18.1 60.9-16.7 121.6-30.2 180.5-40.1 244.4-41.8 486.2-29.2 718.7 37.3 86.8 24.9 147.5 104.9 147.5 194.6l.5 176.9c0 19-4.8 37.7-13.9 54.2l-3.5 6.5.9 65.7 1.9 4.1c9.2 19.5 14.1 41.1 14.1 62.7v443.9zm610.7-1111.2c-95.2 0-191.2 8.3-287.6 24.7-60.2 10.2-122.3 24-184.5 41-18.4 5-36.4 12.3-53.4 21.7-78.1 42.8-126.6 124.5-126.6 213.1l2.9 170.7c0 26.9 4.7 53.8 14.1 79.8l-2.9 80.9-2.3 7.9c-4.2 15.1-6.5 30.3-6.7 45.6l-5.3 466.9h1278.9v-485c0-26-5.6-52.2-16.1-76.1l-.6-46.4c11.2-21.6 17.2-46 17.2-70.7l-.5-177c0-107.9-72.9-204.2-177.3-234.1-146.7-42-297-63-449.3-63" style="fill:#231f20;fill-opacity:1;fill-rule:nonzero;stroke:none" transform="matrix(.01819 0 0 -.01819 -229.285 425.8)"/><path d="M17841.6 21355.7c-60.7 10.2-121.4 23.8-182.5 40.5-17.4 4.8-33.7 11.5-49 19.9l-25 932.6 51.8 93.8 3.4 6.3 33.5-6.3 148.2-28z" style="fill:#d0eedc;fill-opacity:1;fill-rule:nonzero;stroke:none" transform="matrix(.01819 0 0 -.01819 -229.285 425.8)"/><path d="M18121.4 21790c-302.2 0-555.2 63.9-609.3 145.7-1-19.5-.5-58.4 3.2-78.1 57.7-80.6 303.9-138.1 603-138.1 304 0 547.7 49.3 597.7 129 1.3 14.6-1.1 39.9-1.7 64.1-80.1-71.3-316.9-122.6-592.9-122.6" style="fill:#71331d;fill-opacity:1;fill-rule:nonzero;stroke:none" transform="matrix(.01819 0 0 -.01819 -229.285 425.8)"/><path d="M17534.8 21866c51.4-63.2 265.5-126 583.5-126 291.7 0 526.8 47.2 577.5 115.3.1 5.1-.1 11.5-.4 18.4-105.5-63.3-326.5-104.3-574-104.3-264 0-490.8 46.7-588.5 117.3.4-7.7 1-14.9 1.9-20.7m583.5-167.1c-307.9 0-556.9 59-619.7 146.7l-2.7 3.7-.8 4.5c-4.1 21.6-4.6 62.1-3.5 83l3.3 62.2 34.4-51.9c44.4-67.1 278-136.6 592.1-136.6 263.4 0 501.6 48.3 579.3 117.4l33.2 29.5 1-44.4c.2-8.5.6-17.2 1.1-25.4.8-16.2 1.5-30.1.5-40.9l-.4-4.9-2.6-4.3c-64.2-102.2-359.9-138.6-615.2-138.6" style="fill:#231f20;fill-opacity:1;fill-rule:nonzero;stroke:none" transform="matrix(.01819 0 0 -.01819 -229.285 425.8)"/><path d="M18176.8 21580.9c-8 0-16.1 0-24.1.1-273.4 3.5-558.1 63.1-662.1 138.7l24.1 33.2c96.4-70 376.9-127.4 638.6-130.7 281.5-3.7 523.4 52.8 564.3 105.7l32.5-25.2c-59.9-77.5-333.7-121.8-573.3-121.8" style="fill:#231f20;fill-opacity:1;fill-rule:nonzero;stroke:none" transform="matrix(.01819 0 0 -.01819 -229.285 425.8)"/><path d="m17515 22421.8 4.8-425.1c.2-11.8 1.9-23.4 5.1-34.7l3.7-12.7 3.4-94.4-1.5-3.9c-8.5-22.2-12.8-45.6-12.9-69.5l-2.8-170.6c0-90.4 61.6-170.6 149.7-194.8 307.8-84.5 610.3-85.4 899.2-2.8 86.8 24.9 147.5 104.9 147.5 194.6l.5 176.9c0 18.8-4.8 37.6-13.9 54.1l-3.5 6.5.9 65.9 1.9 4c9.2 19.5 14.1 41.2 14.1 62.7v443.8zm611.2-1110.9c-155.5 0-313.3 21.9-472.5 65.5-106 29.1-180 125.7-180 234.9l2.7 170.6c.1 27.2 4.9 54.1 14.2 79.8l-2.9 81-2.3 7.9c-4.3 14.8-6.5 30.2-6.7 45.6l-5.3 466.8h1278.9v-485c0-26.1-5.5-52.3-16.1-76.1l-.6-46.4c11.3-21.8 17.3-46.2 17.2-70.8l-.5-176.8c0-108-72.9-204.3-177.3-234.1-146.6-41.9-296.5-62.9-448.8-62.9" style="fill:#231f20;fill-opacity:1;fill-rule:nonzero;stroke:none" transform="matrix(.01819 0 0 -.01819 -229.285 425.8)"/><path d="M18731.8 22446.6c0-97.6-277.1-176.8-618.8-176.8s-618.8 79.2-618.8 176.8c0 97.7 277.1 176.8 618.8 176.8s618.8-79.1 618.8-176.8" style="fill:#97dab5;fill-opacity:1;fill-rule:nonzero;stroke:none" transform="matrix(.01819 0 0 -.01819 -229.285 425.8)"/><path d="M18113 22602.9c-352.5 0-598.2-82.4-598.2-156.3s245.7-156.2 598.2-156.2 598.2 82.3 598.2 156.2-245.7 156.3-598.2 156.3m0-353.6c-309.9 0-639.3 69.1-639.3 197.3s329.4 197.4 639.3 197.4 639.3-69.2 639.3-197.4-329.4-197.3-639.3-197.3" style="fill:#231f20;fill-opacity:1;fill-rule:nonzero;stroke:none" transform="matrix(.01819 0 0 -.01819 -229.285 425.8)"/><path d="M17366.7 15406.6s45.8 21.3 117.3 46.8c23.9 8.4 1.2 41.5 21.6 53.4 16.9 5.2 92.3-17.1 110.6-12.2 13.6 3.6-15.7 42.5-6.6 53.3 19.4 4.6 87.5-33.9 107.7-30 30.2 5.8-.1 53.3 12.1 67.9 21.5 2.4 123.2-50.1 144.6-49.3 18.9.7 16.1 37.2 23 62 22.4-.8 77.6-64.7 99.3-67.9 38.6-5.7 54.3 2.5 83 21.9 14.2-6 55.2-64.7 68.5-71.9 19-10.4 57.5 1 74.9-11.4 19.1-13.6 76.7-81.3 92-98.3 13.7-15.1 93.5-138 101-151.2 12-21.2 85.6-209.7 85.6-209.7s-27.7-17.4-68.6-25.8c-22.4-4.6-138-36.1-164.1-39.6-22.5-3-114.3-5.8-138.2-7-26.8-1.3-155.2-9-178.8-6.5-17.3 10.2-20 34.9-45.2 41.4-23.1 6-80.5-13.4-99.6-3.9-7.4 15.1 2.9 44.7-14.1 55.2-20.5 12.7-75-16-96-.6-7.6 14 8.8 61.4-3.6 71.1-16.9 13.3-65.6 2.2-82.2 16.3-4 15.6 8 45.3-3.7 55.7-14.9 13.3-78.6-.3-86.6 17.7-7.1 16.2 16.4 47 3.9 59.1-15.7 15-66.5 9.7-80.4 23.7-1.2 23 6.3 50.1-6.5 63.4-43.6 45.5-70.9 76.4-70.9 76.4" style="fill:#307956;fill-opacity:1;fill-rule:nonzero;stroke:none" transform="matrix(.01819 0 0 -.01819 -229.285 425.8)"/><path d="M17959.1 14951.2c27.5-.8 116.7 4.1 151.8 6l18.4.9c6.3.3 17.2.8 30.3 1.3 33.9 1.3 90.6 3.5 106.3 5.6 15.2 2 68.5 15.7 107.4 25.6 25.9 6.7 46.4 11.9 55.2 13.7 19.6 4 36 10.4 46.9 15.4-28.5 72.8-70 176.5-77.5 189.8-8 14.2-86.6 134.5-98.4 147.6-3 3.4-7.6 8.6-13.3 15-18.5 21.2-62 70.8-75.5 80.4-3.7 2.6-18.1 2.6-26.7 2.6-15.9-.2-32.4 0-46.1 7.4-9.2 5-19.7 17.3-37.5 38.6-6.4 7.5-15.6 18.6-22.5 25.9-25.8-16-46.2-22.4-84.6-16.7-15.4 2.2-31.8 15.6-57.2 37.3-6.6 5.7-15.7 13.4-23.8 19.7-3.1-21.5-9-50.3-37.5-51.3-13.7-.5-33.9 7.3-77.5 25.3-14.6 6.1-34 14.1-48.4 19.1v-.2c3.1-16.5 10.2-55.3-27.7-62.5-15.1-2.9-34.5 4.2-64.9 16.1-5.9 2.3-13.6 5.3-20.9 7.9 4.5-11.9 7.6-23.3 2.1-34.1-3.3-6.4-8.9-11-16-12.9-13-3.5-33.1 0-64.8 5.9-12.5 2.3-30.1 5.5-40 6.3-.1-2.1-.1-4.6 0-6.6.1-12 .5-37-25.8-46.3-38.5-13.7-69.6-26.3-89.8-34.8 12.2-13.4 29.8-32.3 51.3-54.7 15.2-15.8 13.9-38 12.7-57.5-.1-2.7-.3-5.2-.4-7.7 6.1-1.4 14.9-2.6 21-3.5 19.8-2.8 40.3-5.6 53-17.9 15.8-15.3 9.2-37 4.8-51.3-1-3.2-2.4-7.7-3.1-11.1 6.8-1.2 18.4-1.5 26.1-1.7 21.5-.5 41.9-1 54.4-12.1 15-13.3 12.7-33.6 10.8-50-.3-2.1-.6-4.8-.8-7.4 6.6-1 16.1-1.4 22.6-1.6 19.1-.8 38.8-1.5 52.3-12.2 15.8-12.4 13.3-34.9 10.9-56.6-.5-4.2-1.1-10.1-1.4-14.9 7.9.2 20.2 2.6 27.8 4.1 21.5 4.2 43.7 8.5 60.4-1.8 19.9-12.3 20.3-34.8 20.6-49.8 0-1.5.1-3.3.1-5.1 9.1.4 22.7 2.4 31.9 3.8 20.9 3.1 40.7 6.1 55.4 2.3 22.2-5.8 32.7-20.9 40.4-31.9 2.6-3.7 4.9-7 7.2-9.4m7.8-41.1c-7.7 0-13.6.1-17.4.5l-4.5.5-3.9 2.3c-11 6.5-17.6 16-23 23.7-6.4 9.2-9.7 13.7-16.9 15.5-6.7 1.8-25.3-1.1-39-3.1-26-3.9-48.6-7.3-64.6.7l-6.2 3.1-3.1 6.3c-4.9 10-5.1 21.2-5.3 31.1-.1 4.9-.3 12.7-1.4 15.6-5.4 1.4-21.1-1.7-30.6-3.6-23.7-4.6-48.3-9.4-66.4 3.9l-3.7 2.7-2.2 4c-6.6 12.1-4.8 28.1-2.9 45.2.7 6 1.7 15.3 1.6 20.8-6.1 1.5-17.9 2-25.5 2.3-19.9.7-40.5 1.6-54.3 13.3l-5 4.2-1.6 6.3c-2.6 10-1.4 20.7-.2 31 .5 4.2 1.2 10.5 1.1 14.5-6.3 1.3-18.6 1.6-26.5 1.8-26.5.6-54 1.3-63.6 23-6.4 14.6-1.6 30.3 2.3 43 1.1 3.3 2.5 7.8 3.1 11.1-6.2 2.3-19 4.1-27.2 5.3-19.9 2.8-38.7 5.4-50.5 17.2l-5.5 5.6-.4 7.8c-.4 8.1 0 16 .5 23.7.5 8.3 1.4 23.7-1.3 26.6-43.5 45.2-71.2 76.7-71.5 77l-18.2 20.6 24.9 11.6c1.9.9 46.8 21.7 117.4 46.9.2 2.1.2 5.3.1 7.7-.1 11.5-.4 33 19.7 44.8l2.1 1.2 2.3.7c12.7 3.9 31.8.6 64.6-5.5 8.3-1.5 19.7-3.6 29.3-5-5.5 14.6-10.9 31.8.5 45.2l4.3 5.1 6.6 1.6c15.2 3.6 35.1-3.7 66.3-15.8 11.7-4.6 30.3-11.8 39.4-13.5-.3 4.2-1.4 10.2-2.1 14.2-2.9 15.4-6 32.8 5.1 46.2l5.4 6.4 8.2.9c14.8 1.5 37.5-7 85.8-26.9 17.9-7.4 43.6-18.1 55.8-21.3 1.4 5.1 2.6 13.3 3.4 19.2 1.3 8.9 2.6 18 5 26.8l4.4 15.6 16.2-.6c17.9-.7 36.4-15.7 65-40.2 11.5-9.8 30.6-26.1 37.1-28.1 31.4-4.5 42 1.3 67.9 18.8l9.3 6.2 10.3-4.4c10.9-4.6 21.9-16.9 44.5-43.9 8.7-10.4 21.9-26.1 26.2-29.2 4-2.1 16.6-2 25.8-2.1 16.8 0 36.3.1 50.7-10.2 16-11.5 49.6-49.1 82.6-86.7 5.4-6.3 9.9-11.4 12.8-14.6 15.9-17.6 97.6-144.3 103.7-154.9 12.3-21.8 79.2-192.9 86.8-212.3l6.2-15.9-14.4-9.1c-1.3-.8-31.4-19.4-75.5-28.5-7.8-1.6-29.9-7.3-53.3-13.2-53.6-13.7-95.9-24.4-112.1-26.6-16.3-2.1-61.4-4-110.2-5.9-12.9-.5-23.6-.9-29.8-1.2l-18.2-1c-58.9-3.2-116-6-146.3-6" style="fill:#231f20;fill-opacity:1;fill-rule:nonzero;stroke:none" transform="matrix(.01819 0 0 -.01819 -229.285 425.8)"/><path d="M18478.2 14985.5c-3.6 2.5-364.9 245.7-543.1 279-182.8 34.2-555.9 122.5-559.6 123.4l9.5 40c3.7-.9 375.8-89 557.7-123 186.5-34.8 543.4-275.1 558.5-285.3z" style="fill:#231f20;fill-opacity:1;fill-rule:nonzero;stroke:none" transform="matrix(.01819 0 0 -.01819 -229.285 425.8)"/><path d="M18142.7 15204.3s-212.2 58.7-336-75.2z" style="fill:#307956;fill-opacity:1;fill-rule:nonzero;stroke:none" transform="matrix(.01819 0 0 -.01819 -229.285 425.8)"/><path d="M17806.7 15108.5c-5 0-10 1.8-13.9 5.5-8.4 7.7-8.9 20.7-1.2 29 130.8 141.6 347.4 83.7 356.6 81.2 11-3.1 17.4-14.4 14.3-25.3-3-11-14.3-17.4-25.2-14.4-2 .5-201.9 53.6-315.4-69.4-4.1-4.4-9.6-6.6-15.2-6.6m161.9 151.5c-3.7 0-7.4 1-10.7 3-6.2 3.8-150.7 94.2-127.5 228.6 2 11.2 12.7 18.7 23.8 16.7 11.2-1.9 18.7-12.5 16.8-23.7-18.5-106.8 107.1-185.7 108.4-186.5 9.7-6 12.7-18.6 6.7-28.3-3.9-6.3-10.6-9.8-17.5-9.8m-358-47.6c-5.1 0-10.2 1.9-14.2 5.7-8.2 7.9-8.5 20.9-.6 29.1 87.4 91.5 238 78.3 244.3 77.7 11.3-1 19.6-11.1 18.6-22.4-1.1-11.3-10.9-19.6-22.5-18.5-2.1.2-137.4 11.5-210.7-65.2-4-4.2-9.5-6.4-14.9-6.4" style="fill:#231f20;fill-opacity:1;fill-rule:nonzero;stroke:none" transform="matrix(.01819 0 0 -.01819 -229.285 425.8)"/><path d="M18250.8 15155.3s-60.4 57.9-81.1 166.1z" style="fill:#307956;fill-opacity:1;fill-rule:nonzero;stroke:none" transform="matrix(.01819 0 0 -.01819 -229.285 425.8)"/><path d="M18250.7 15134.7c-5.1 0-10.2 1.9-14.2 5.7-2.6 2.6-65.4 63.8-87 177.2-2.1 11.1 5.2 21.9 16.4 24 11.1 2.2 21.9-5.2 24.1-16.4 19-99.7 74.5-154.6 75-155.1 8.2-7.9 8.4-20.9.5-29.1-4-4.2-9.4-6.3-14.8-6.3" style="fill:#231f20;fill-opacity:1;fill-rule:nonzero;stroke:none" transform="matrix(.01819 0 0 -.01819 -229.285 425.8)"/><path d="M19061.1 14789.2s-40.5-20-102.6-43.2c-20.7-7.8-6.8-41.8-25.1-53.2-14.6-4.6-73.3 20.3-88.9 16-11.7-3.2 6.9-43.4-2.1-53.9-16.5-4-66.9 37-84 33.8-25.6-4.8-7.4-53.7-19.4-68.1-17.9-1.6-93.9 54.7-111.6 54.6-15.6-.1-18.4-36.9-27.5-61.7-18.2 1.6-54.6 67.8-71.9 71.7-30.8 7.1-44.8-.7-71.1-19.3-10.7 6.6-36.1 67.1-46 74.8-14.2 11.1-47.3.9-59.8 14-13.8 14.4-51.6 84.5-61.8 102.2-9 15.7-57.4 142.2-61.7 155.8-6.8 21.7-40.9 214.3-40.9 214.3s25.2 16.6 59.8 23.7c19 3.9 118.1 31.7 139.9 34.4 19 2.3 94.6 2 114.3 2.4 22.2.5 128.4 3.8 147.4.6 12.8-10.9 11.5-35.9 31.3-43.3 18-6.8 67.7 10.9 82.1.6 4-15.4-8.6-44.9 3.9-56.1 15-13.5 63.6 13.6 78.7-2.6 4.3-14.4-15.8-61.6-7-71.8 12-14 53.5-4.4 65.2-19.2 1.1-15.8-12.9-45.4-4.8-56.2 10.4-13.9 64.4-2.3 68.5-20.8 3.6-16.6-20-46.8-11.4-59.4 10.7-15.7 53.1-12 62.6-26.6-2.3-23.2-12.2-50.3-3.5-64.2 29.4-47.3 47.4-79.3 47.4-79.3" style="fill:#307956;fill-opacity:1;fill-rule:nonzero;stroke:none" transform="matrix(.01819 0 0 -.01819 -229.285 425.8)"/><path d="M18627.4 14695.7c12.9 0 28.5-8.4 63.6-29.1 9-5.4 21.7-12.9 32.1-18.4v1.8c-.2 18.5-.6 52.9 31.5 58.9 15 2.8 30.9-5.4 55.5-19.2 3.4-1.8 7.5-4.1 11.7-6.3-2.6 15.1-5.1 39.1 17.2 45.3 12.6 3.4 29.4-.9 55.8-8.2 8.2-2.3 20.7-5.7 28.5-7.1.4 2.6.9 6.2 1.2 8.7 1.6 13 4.4 34.7 26.8 43.1 35.1 13.2 63.2 25.3 80.7 33.2-8.1 13.9-20.4 34.5-35.8 59.3-10.3 16.4-6.4 37.1-2.7 57.2.5 2.5 1 5.1 1.4 7.5-3.9 1.1-8.8 2.2-12.3 2.9-16.3 3.6-34.9 7.7-45 22.4-10.7 15.8-3.3 34.6 2.6 49.8 1.3 3.2 3.1 7.8 4.3 11.6-4.8.7-11.2 1.1-15.6 1.5-18.4 1.3-37.5 2.7-47.9 16.5-10.6 14.2-6.2 33-2.3 49.7.5 2.1 1 4.6 1.5 7-4.1.6-9.2 1.1-12.8 1.4-16.2 1.4-34.5 3.1-45.9 16.3-11.6 13.4-7 33.4-1.7 56.6.9 3.6 2 8.6 2.9 13.1-5.2-.7-11.4-1.9-15.9-2.7-18.9-3.7-40.3-7.8-55.2 5.5-15.5 13.9-12.9 35.4-11 51.1.1.8.2 1.8.3 2.8-6.3-.5-14.1-1.6-19.6-2.3-18.4-2.6-35.9-5.1-49.2-.1-19.9 7.5-27.1 24.8-31.9 36.2-.9 2.1-1.9 4.6-3 6.8-25.4 1.3-95.7-.5-120.7-1.2l-15.4-.3c-5.1-.2-14.1-.2-24.9-.3-27.8-.2-74.4-.5-87.3-2.1-12.3-1.5-59.6-13.9-90.9-22.1-22.2-5.8-39.7-10.4-47.3-12-17.1-3.5-31.7-9.6-41.2-14.3 13.3-74.5 33.3-183.3 37.7-197.3 4.6-14.5 52.1-138.2 59.9-151.8 2-3.4 5.1-8.9 8.8-15.5 12.2-21.8 40.8-73 50-82.7 1.9-.8 11.3-1.2 16.8-1.4 13.5-.6 28.9-1.2 40.8-10.5 7.8-6.1 14.6-18.5 26.8-41.6 3.2-6.1 7.6-14.5 11.5-21.4 20.6 12.6 39.6 18.4 70.8 11.3 14.7-3.3 26.2-17.4 45.4-41.9 3.1-3.9 6.9-8.8 10.8-13.5 5.9 21.9 14.3 45.8 38.5 45.8zm-13.6-104.1-15.7 1.4c-17.5 1.5-31.3 18.1-52.5 45.1-7 8.9-18.5 23.7-23.7 27.4-20.9 4.5-28.7 1-53.1-16.3l-11-7.9-11.6 7.1c-9.6 5.8-16.8 18.4-32.3 47.8-5.1 9.6-12.7 23.9-16.1 28.5-2.9 1.1-11.5 1.5-16.7 1.7-14.5.5-32.6 1.3-44.9 14.1-11.9 12.4-33.4 50.2-56.2 91.1-3.6 6.4-6.6 11.6-8.5 15-10.6 18.4-60 149-63.5 159.9-7 22.4-38 197-41.5 216.9l-2.4 13.3 11.3 7.5c1.1.7 28.9 18.8 67 26.6 6.5 1.4 25.3 6.3 45.2 11.5 46 12.1 82.4 21.5 96.4 23.2s51.5 2.1 91.9 2.4c10.6 0 19.3.1 24.4.2l15.2.4c70.7 1.8 121 2.5 136.1-.2l5.5-.9 4.3-3.7c9-7.6 13.3-17.9 16.8-26.1 3.5-8.4 5.4-12.4 8.4-13.6 4.2-1.2 19.7 1 29 2.3 22.3 3.1 43.5 6.1 57.9-4.1l6.1-4.4 1.8-7.3c2.6-9.8 1.3-20.3 0-30.4-.5-4.1-1.2-10.1-1.2-14.1 5.2.2 13.4 1.8 18.8 2.9 19.8 3.8 44.5 8.6 60.1-8.2l3.3-3.5 1.4-4.6c3.5-11.7.1-26.6-3.9-43.8-1.3-5.9-3.4-14.8-4.2-20.8 4.5-.9 10.9-1.4 15.3-1.8 16.9-1.6 36-3.3 47.4-17.7l3.9-5 .5-6.3c.6-9.5-1.8-19.8-4.1-29.7-.9-4.1-2.3-10-2.9-14.3 4.7-.8 11.4-1.3 16-1.6 20.6-1.5 48.8-3.5 54.3-28.6 3-13.7-2.6-28-7.6-40.6-1.4-3.5-3.4-8.8-4.5-12.6 4.1-1.4 12.2-3.1 17.4-4.3 15.8-3.4 33.7-7.3 43-21.6l3.9-6-.7-7.2c-.7-7.9-2.2-15.7-3.6-23.4-1.7-9-4.5-24-2.8-28.1 29.3-46.9 47.1-78.6 47.8-79.9l10.6-18.9-19.4-9.6c-1.7-.9-41.6-20.5-103.1-43.6-.8-2.3-1.4-7-1.8-10.3-1.6-12.3-3.9-31-21.1-41.6l-2.2-1.3-2.4-.8c-12.5-4-28.6.1-55.8 7.7-5.9 1.6-13.8 3.8-20.8 5.5 2.7-15.3 5.5-32.6-4.9-44.8l-4.4-5.1-6.5-1.6c-15.3-3.7-31.7 4.7-57.1 18.9-7.3 4.1-18.5 10.3-25.5 13.1-.5-4.7-.4-11.8-.4-16.5.2-15.4.4-31.3-9.5-43l-5.4-6.5-8.5-.8c-14.4-1.2-31.8 8-70.8 31-11.6 6.9-27.8 16.5-37.6 21.1-2-5.5-4-13.7-5.6-19.7-2.2-8.7-4.5-17.7-7.6-26.2z" style="fill:#231f20;fill-opacity:1;fill-rule:nonzero;stroke:none" transform="matrix(.01819 0 0 -.01819 -229.285 425.8)"/><path d="M19043.1 14768.9c-2.9 1-295.3 102.2-439.3 142.5-149.8 41.9-410 297.2-421 308l28.9 29.3c2.6-2.6 263.6-258.7 403.1-297.7 145.3-40.6 438.8-142.2 441.8-143.3z" style="fill:#231f20;fill-opacity:1;fill-rule:nonzero;stroke:none" transform="matrix(.01819 0 0 -.01819 -229.285 425.8)"/><path d="M18453.5 15019s165.7-66.2 285.7 64.7z" style="fill:#307956;fill-opacity:1;fill-rule:nonzero;stroke:none" transform="matrix(.01819 0 0 -.01819 -229.285 425.8)"/><path d="M18552.3 14982.2c-60.7 0-105.6 17.4-106.5 17.7-10.5 4.3-15.6 16.2-11.4 26.8 4.2 10.5 16.1 15.7 26.7 11.4 6.3-2.4 154.3-59 263 59.4 7.6 8.4 20.6 9 29 1.3s8.9-20.7 1.3-29c-64.2-70.1-141.1-87.6-202.1-87.6m100.9-279.5c-1.8 0-3.7.2-5.5.7-11 3.1-17.4 14.5-14.3 25.4 30.5 108.8-60.7 191.3-61.6 192.2-8.5 7.5-9.2 20.5-1.7 29s20.5 9.3 29 1.7c4.6-4 111.3-100.7 73.9-234-2.5-9.1-10.8-15-19.8-15m65.8 182.8c-19.1 0-31.6 1.9-33.2 2.1-11.2 1.8-18.9 12.4-17.1 23.6s12.3 18.8 23.5 17c1.1-.1 108.3-15.8 178.3 58.3 7.8 8.2 20.8 8.6 29.1.8 8.2-7.8 8.6-20.8.8-29.1-59.4-62.8-137.6-72.7-181.4-72.7" style="fill:#231f20;fill-opacity:1;fill-rule:nonzero;stroke:none" transform="matrix(.01819 0 0 -.01819 -229.285 425.8)"/><path d="M18371.8 15072.1s41.4-60.4 43.2-170.2z" style="fill:#307956;fill-opacity:1;fill-rule:nonzero;stroke:none" transform="matrix(.01819 0 0 -.01819 -229.285 425.8)"/><path d="M18415 14881.4c-11.2 0-20.4 9-20.5 20.2-1.7 101.4-39.4 158.4-39.8 159-6.3 9.4-3.9 22.1 5.5 28.5s22.1 4 28.5-5.4c1.9-2.6 45-66.8 46.9-181.4.2-11.4-8.9-20.7-20.2-20.9z" style="fill:#231f20;fill-opacity:1;fill-rule:nonzero;stroke:none" transform="matrix(.01819 0 0 -.01819 -229.285 425.8)"/><path d="M17708.5 14548.2c-2.2 16.4-3.7 32.9-4.9 49.5-.8 11.8 2.7 35.7-4 45.5-5.3 7.9-16.8 7.9-24.4 12.5-18.6 11.4 3.2 34.2 11.5 47.4 8 12.8 26.7 33.7 3 36-5.6.5-23.7-2-27.3 3.4-3.7 5.6 5.4 14.1 9.3 18.6 10 11.4 35.8 28.5 37.5 44.5 2 20-30.7 15.2-42 22-7.6 4.5-5.8 6.5-.8 13.3 5.6 7.6 12.9 14.3 19.5 20.9 14 13.9 32 27.3 42.9 43.7 14.9 22.4-23 24.1-32.8 35.9-4.5 5.4-4.3 2.1 0 7.7 2.3 3 7.4 5.2 10.6 7.1 9.6 5.6 19.9 9.9 29.9 14.7 21.6 10.4 37.8 19.6 39.8 46.1.7 9.9-8.3 28.5-2.9 34.6 4.9 5.3 21.1 7.4 27.5 9.3 18.9 5.5 39.3 6.9 48.5 26.1 4.7 9.7 6.3 22.7 14.9 30.4 6 5.3 15.4 7.8 22.7 10.5 21.7 7.9 43.8 14.4 65.9 21.2 33.3 10.3 68.3 14.6 102.5 20.2 26.5 4.3 51.2 7.6 77.8 7.5 39.2-.1 78.3-.9 117.4-1.8 5.2-.1 23.8 2.6 28-.6 3.2-2.5 3-16.3 3.4-19.9 1.1-12.5.1-24.7-1-37.3-3.2-37.3-1.7-76.4-9.6-113.3-7.8-36-22-71.1-32.7-106.5-6.4-21.2-12.8-42.4-19.7-63.6-5.3-16.4-6.9-36.7-25.4-41.8-12.2-3.3-24.1-3.6-31.4-15.5-5.5-9.1-6.3-21.7-8.2-31.7-1.4-7.2-2.6-24.4-9.3-29.5-7.8-5.8-22.7 4.3-31.2 5.7-26.6 4.4-23.9-25.4-27.5-43.2-1.6-7.6-3.8-19.4-12.9-20.7-8.2-1.2-20.7 7.9-27.5 11-6.5 2.9-16.8 9.2-24.4 6.1-8.6-3.6-12.5-17.2-15.8-24.6-2.9-6.5-7.7-22.3-16.2-24.3-9.3-2.1-23.3 11.2-32.3 12.9-20.8 3.8-23.9-24.2-31.2-38.1-13.9-26.6-28.5-1.1-46.7 4.6-21.7 6.8-28.2-27-39.8-39-9.9-10.3-22.3.8-33.5 4.7-16.4 5.8-26.4 1.5-42.9-4.2-18-6.2-36.1-12.3-54.3-18" style="fill:#47b173;fill-opacity:1;fill-rule:nonzero;stroke:none" transform="matrix(.01819 0 0 -.01819 -229.285 425.8)"/><path d="m17690.3 14671.7.8-.3c7.3-2.3 18.2-5.8 25.5-16.6 8.5-12.5 8-29.7 7.6-45-.1-4-.2-7.8 0-10.7.6-8.7 1.2-16.5 1.9-23.7 9.2 3.1 19.1 6.4 30 10.2l3.3 1.2c16 5.6 31.1 10.8 53.2 3 3.4-1.2 7.1-2.9 10.7-4.7 1-.6 2.3-1.2 3.5-1.8 1.4 2.4 2.9 5.3 4.2 7.7 7.4 14 22.8 43.2 54.2 33.3 8.3-2.6 15.3-7.4 20.9-11.2l2.3-1.5c.9 2.1 1.8 4.8 2.8 7.4 5 13.6 16.6 45.5 49.4 39.4 7.2-1.3 13.4-4.9 19.4-8.4.8-.5 1.7-1 2.7-1.6.8 1.9 1.6 3.8 2 5 .7 1.8 1.4 3.3 1.9 4.6.5 1.1 1 2.3 1.6 3.7 4 10.1 10.1 25.3 25.2 31.5 15 6.1 29.4-.9 38-5.1l2.7-1.3c2.3-1 5-2.5 8-4.2 1-.5 2.2-1.2 3.5-1.9l.1.7c.7 3.4 1.1 6.7 1.5 10 1.7 13.7 4 32.5 18.5 43.4 5.9 4.3 16 9 31.2 6.5 4.8-.8 9.4-2.6 13.8-4.4l1.1-.4c.4 2.4.8 4.9 1 6.4.4 2.2.7 4.2 1 5.8.4 2.1.7 4.2 1 6.4 1.6 9.7 3.5 21.6 9.9 32.1 10.5 17.1 26.7 20.8 37.5 23.2 2 .5 4 .9 5.9 1.5 3.3.9 5.2 6 8.4 18 1 3.5 1.9 7 3 10.3 6.8 21 13.2 42.1 19.5 63.2 3.8 12.5 8 25.1 12.3 37.6 7.8 23.1 15.2 45 20 67.2 4.9 22.8 5.9 46.6 7 71.8.5 12.8 1.1 26 2.2 39 1 11.7 2 22.8 1 33.6-.1.6-.1 1.5-.2 2.5-.9-.1-1.8-.2-2.5-.2-3.7-.3-6.7-.5-8.6-.4-38.4.8-78.1 1.7-117 1.8-24.3.1-47.5-2.9-74.5-7.3-6.3-1-12.7-2-19-3-27.1-4.3-55-8.6-80.8-16.6l-11.4-3.5c-17.7-5.4-36-11-53.4-17.4l-4.7-1.6c-3.8-1.3-9.6-3.3-11.5-4.9-1.7-1.6-3.6-7-5.1-11.4-1.3-3.9-2.8-8.3-4.9-12.5-11.8-24.6-35-30.3-52-34.5l-9.3-2.4c-1.9-.6-4.6-1.2-7.6-1.9-1.4-.3-3.4-.7-5.4-1.2l.4-1.6c1.6-6.8 3.3-13.9 2.8-21.1-2.9-39.8-31-53.2-51.4-63l-8.1-3.8c-2.1-1-4.2-1.9-6.2-2.9 8.6-4.6 17.2-11.1 20.5-22.3 1.9-6.5 2.5-17-5.7-29.3-8.9-13.5-20.9-24.3-32.5-34.8-4.5-4-8.9-8-13-12l-3.6-3.6-1.6-1.6c15.1-3.3 37.2-11.8 34.5-38.6-2-18.6-17.7-33.3-31-45.2 12.1-2.9 17.8-10 20.6-15.8 7.8-16.7-3.4-33.1-11.6-45-1.3-1.9-2.5-3.7-3.6-5.3-1.6-2.6-3.6-5.5-5.9-8.6-2-2.9-5.6-8-7.9-11.9m1.1-150.4-3.3 24.1c-2 14.8-3.5 30.4-5 50.8-.3 4-.2 9.2 0 14.8.1 5.5.4 15.2-.5 19.9-1.2.4-2.8.9-4 1.3-4.1 1.3-9.2 2.9-14.1 6-11.2 6.8-15.1 16-16.5 22.6-3.7 18 8.1 34.6 16.8 46.7 1.7 2.3 3.2 4.6 4.5 6.5.9 1.4 1.8 2.9 2.9 4.5-10.1.5-20.6 3-27 12.7-12 18.3 4.2 36 9.6 41.8l1.4 1.6c3.8 4.3 8.6 8.6 13.7 13.2 3.9 3.4 10.6 9.5 15 14.5-1.8.3-3.4.5-4.8.7-8 1.3-16.3 2.7-23.4 6.9-3.4 2.1-12.5 7.5-14.7 18.6-2.2 10.9 3.6 18.8 7.4 24 6 8.2 12.7 14.7 18.6 20.5l3.4 3.4c4.5 4.5 9.4 8.9 14.4 13.4 7.8 7 15.7 14.3 21.8 21.6-1.2.5-2.3 1-3.3 1.4-8.3 3.6-17.7 7.7-24.2 15.5l-.9 1c-4.6 4.5-7 9.8-7.1 15.6 0 5.9 2.2 11.2 6.7 15.7l.9 1c4.5 5.8 10.8 9.2 14.9 11.5l1.7.9c7.9 4.6 15.9 8.3 23.6 11.9l7.7 3.6c21.2 10.2 27.1 14.9 28.2 29-.1 1.2-1.1 5.6-1.8 8.5-2.7 11.3-6.3 26.7 4.2 38.4 8 8.9 21.3 11.8 32 14.1 2 .5 3.7.8 5 1.2 3.6 1 7.2 1.9 10.8 2.8 15.3 3.8 21.8 6 24.9 12.4 1.2 2.5 2.1 5.2 3 8 3 8.9 6.9 20.1 16.7 28.8 8 7.1 17.7 10.5 25.5 13.1l3.8 1.4c18.5 6.7 37.3 12.5 55.6 18.1l11.3 3.4c28.6 8.9 58 13.5 86.5 17.9 6.3 1 12.5 2 18.8 3 28.5 4.7 53.2 7.8 80.1 7.8h1.1c39.3-.1 79.2-1 117.7-1.8 1 0 2.8.2 4.7.3 15.9 1.2 26.9 1.4 35.5-5.2 10.1-8 10.7-21.4 11.1-32.2l.2-2.1c1.3-14.5.1-28.6-1-40.9-1.1-12.1-1.6-24.4-2.1-37.3-1.2-25.8-2.3-52.5-7.9-78.6-5.3-24.6-13.4-48.6-21.2-71.7-4.1-12.2-8.2-24.3-11.9-36.4-6.4-21.4-12.9-42.8-19.8-64-.9-2.7-1.6-5.5-2.4-8.3-4.3-15.9-10.8-39.8-37.2-47-2.6-.7-5.1-1.3-7.6-1.9-9-2-10.5-2.8-11.6-4.6-2.2-3.5-3.3-10.7-4.3-17-.5-2.7-.9-5.3-1.3-7.7-.2-1.1-.4-2.5-.7-4.1-1.8-12.2-4.2-28.8-16.4-38-14.5-10.9-31.4-4.2-41.5-.2-1.9.7-3.6 1.5-5.2 1.9-1.1-3.6-1.9-10-2.4-14.2-.5-4.5-1.1-8.9-1.9-12.8-2-9.6-6.9-33.5-30.1-36.9-12.9-1.9-25.1 5-34 10-1.9 1.1-3.5 2-4.9 2.6-1.1.6-2.4 1.2-3.8 1.9-1.1.5-2.6 1.2-4.1 1.9-1-2.2-2.1-4.9-2.8-6.7-.8-1.9-1.5-3.6-2.2-5.2-.4-.9-.8-1.9-1.3-3.1-4.3-10.7-11.5-28.7-29-32.8-13.4-3.2-25.6 3.9-34.5 9.1-1.4.8-3.1 1.8-4.6 2.6-1.7-3.2-3.7-8.5-4.9-12-1.8-4.9-3.6-9.9-6-14.5-6.3-12-14.7-19.4-24.8-21.9-15.2-3.8-27.3 4.5-36.2 10.5-2.7 1.9-5.7 3.9-8.2 5.1-2.3-2.9-5.4-8.7-7.3-12.5-3.8-7.1-7.7-14.5-13.4-20.3-17.9-18.6-39.7-7.8-49-3.2-2.1 1-4.1 2.1-6.2 2.8-8.1 2.9-12 1.8-25.9-3.1l-3.3-1.1c-21.4-7.5-38.9-13.2-55-18.3z" style="fill:#231f20;fill-opacity:1;fill-rule:nonzero;stroke:none" transform="matrix(.01819 0 0 -.01819 -229.285 425.8)"/><path d="m17730.5 14551.6-39.5 11.3c.7 2.6 18.6 63.7 62.7 126.4 24.5 34.9 55.5 70.7 85.4 105.4 31.9 37 62 72 81 101.7 71.8 112.7 339.2 278.9 350.5 285.9l21.7-34.9c-2.7-1.7-270.7-168.3-337.6-273.2-20.5-32.1-51.6-68.2-84.5-106.3-29.2-34-59.5-69.1-82.8-102.3-40-56.8-56.8-113.5-56.9-114" style="fill:#231f20;fill-opacity:1;fill-rule:nonzero;stroke:none" transform="matrix(.01819 0 0 -.01819 -229.285 425.8)"/><path d="M18022.4 14736.6c-6.9 0-13.7 3.6-17.6 9.9-77.2 127.5 21.4 256.1 25.7 261.5 7 9 19.9 10.5 28.9 3.5 8.9-7 10.5-19.9 3.5-28.8-3.5-4.5-85.3-111.9-22.9-214.8 5.9-9.7 2.8-22.4-6.9-28.3-3.4-2-7-3-10.7-3m-190.7 109.7c-25.1 0-51.8 5.2-77.9 19.5-10 5.4-13.7 17.9-8.3 27.8 5.5 10 17.9 13.7 27.9 8.3 74.7-40.6 161.7 17.9 162.6 18.5 9.4 6.4 22.2 4 28.6-5.3 6.4-9.4 4-22.2-5.4-28.6-3.2-2.2-59.6-40.2-127.5-40.2m65.6-208.2c-7 0-13.9 3.6-17.7 10.2-49.5 84.7-1.7 182.3.4 186.4 5.1 10.2 17.4 14.3 27.6 9.2 10.1-5.1 14.2-17.4 9.2-27.6-.6-1.1-39.7-82.1-1.7-147.3 5.7-9.8 2.4-22.4-7.4-28.1-3.3-1.9-6.8-2.8-10.4-2.8" style="fill:#231f20;fill-opacity:1;fill-rule:nonzero;stroke:none" transform="matrix(.01819 0 0 -.01819 -229.285 425.8)"/><path d="M18109.5 15051.9s-58-23.3-144.2-7.1z" style="fill:#307956;fill-opacity:1;fill-rule:nonzero;stroke:none" transform="matrix(.01819 0 0 -.01819 -229.285 425.8)"/><path d="M18026 15018.5c-19.2 0-40.9 1.7-64.5 6.1-11.1 2.1-18.5 12.9-16.4 24 2.1 11.2 12.9 18.5 24.1 16.4 79.2-14.9 132.1 5.8 132.6 6 10.6 4.2 22.5-.9 26.7-11.4 4.3-10.6-.8-22.6-11.4-26.8-1.9-.8-36.4-14.3-91.1-14.3m149.3-102.8c-3.7 0-7.4.9-10.8 3-9.6 6-12.7 18.6-6.7 28.3 14.5 23.6 7.3 93.7-2.5 136-2.5 11.1 4.4 22.1 15.4 24.7 11.1 2.5 22.2-4.4 24.7-15.4 2.8-12.1 26.5-119.7-2.6-166.9-3.8-6.3-10.6-9.7-17.5-9.7" style="fill:#231f20;fill-opacity:1;fill-rule:nonzero;stroke:none" transform="matrix(.01819 0 0 -.01819 -229.285 425.8)"/><path d="M18518.6 15834.7c6.3-10.9 12.1-22.1 17.7-33.3 5.3-10.6 9.5-27.2 17.3-35.9 6.7-7.4 15.4-3.4 24.4-4.4 32.3-3.8-13.7-73.3 13-71.9 10.9.6 31.9 18.3 27.3-2.9-3.6-16.4-16.5-32.4-17.3-49.1-1-19.5 19.8-11.5 32.5-9.8 6.9.9 12.2 2.5 13.6-4.1 1.1-5.5-4.7-15.7-6.7-20.7-7-17.8-16.7-35.2-21.9-53.6-6.9-23.9 24.4-17.8 40.5-20.9-.2-21.7-35.7-38.3-43.2-58.1-4.9-13-.9-28.3 6-39.2 4.1-6.3 9.9-8.8 7.2-15.4-2-4.8-10.6-9.8-14.4-12.9-8.9-7.4-21.2-14.6-28.3-23.7-10.3-13.4-.4-29.9-6.8-44.3-3.9-8.9-14.3-16.3-21.3-22.6-12.1-10.9-24.6-21.2-37-31.7-66.3-55.8-143.5-87.8-222.7-119.6-6.3-2.6-15.9-8.6-22.7-9.1-6.6-.5-4.4-2.4-9.4 5.7-13.6 22.3-19.5 50.2-27.7 74.9-7.2 22.1-15.4 43.9-17.9 67.3-2.6 24.3-3.9 48.8-6.2 73.2-2.4 26-5.1 52-6.7 78.2-.6 10.7-3 19.1 5.1 27.2 11.4 11.4 23 14 21.9 32.4-.7 12.7-10.2 30.1-6.3 42.7 4.2 13.9 22.2 4.9 33.1 11.4 24.2 14.5-16.9 51 9.8 64 18.5 9 35.1 4.4 42 27.4 2.1 6.9 2.4 19.3 9.1 23.8 6 4.2 20.3-.5 27.2.5 32 4.7-4.5 60.5 33.6 56 17.1-2 28-7.7 33.2 12.9 1.8 7.2 1.5 14.8 3.3 22 2.8 11.6 4 13 16.1 13.3 8.8.2 18.6-1 27 2.6 9.8 4.2 17.8 14.5 25.7 21.6 9.9 8.8 19.8 17.5 29.9 26.1" style="fill:#47b173;fill-opacity:1;fill-rule:nonzero;stroke:none" transform="matrix(.01819 0 0 -.01819 -229.285 425.8)"/><path d="M18248.9 15541.2c.7-3.1 1.7-6.6 2.4-9.2 1.8-6.5 3.7-13.3 4.2-20.4 1.4-24.3-12.1-35-21-42.2-2.2-1.7-4.6-3.6-6.9-6 0-.3.2-3.6.5-6 .1-1.7.3-3.5.4-5.4 1.2-19.9 3.1-40.3 5-60l1.6-17.5c1-10.4 1.8-20.8 2.6-31.2 1-13.9 2.1-27.9 3.6-41.8 1.8-17.8 7.7-35.2 13.8-53.5l3.2-9.4c2.1-6.5 4.1-13.1 6.1-19.8 4.5-15.3 9.2-31 15.9-44.1l2.3 1.1c3 1.5 5.8 2.9 8.3 3.9 70.7 28.4 150.9 60.5 217 116.3l5.5 4.5c10.4 8.8 20.9 17.6 31 26.7 1.6 1.4 3.3 2.8 5 4.3 3.8 3.2 10 8.5 11.3 11.3.8 1.9.6 6.3.3 10.5-.6 9.8-1.4 24.5 9.1 38.1 6.6 8.5 15.4 15 23.2 20.7 2.9 2.1 5.7 4.1 8.2 6.2.7.6 1.6 1.3 2.6 2.1-11.3 18.1-14.2 39.3-7.6 56.8 5 13.2 15.5 23 25.7 32.6l1.5 1.4c-8 1.9-15.6 5.7-21 13.2-4.1 5.8-8.2 15.7-4 30.3 3.7 13.1 9.2 25.1 14.5 36.8 1.9 4.2 3.8 8.4 5.6 12.6-9.3-.9-19.6-.1-28.1 7.2-5.1 4.5-11 12.7-10.3 27 .6 11.2 4.6 21.3 8.7 30.3-11.1.4-17.6 6.1-20.6 9.7-10.6 12.7-6.6 29.9-2.6 46.6 1 4.3 2.5 10.6 3.2 15.5-7.7-.4-20.4-.1-30.7 11.3-7.8 8.6-12.2 19.9-16.1 29.9-1.4 3.8-2.8 7.5-4.4 10.5-1.8 3.7-3.5 7.1-5.2 10.3-3.4-3-6.8-6.1-10.3-9.1-1.9-1.8-3.9-3.8-5.9-5.8-6.6-6.6-14.8-14.8-25.4-19.4-10.5-4.5-20.8-4.4-29.2-4.3l-2.5.1q-.45-2.7-.6-5.7c-.5-4.2-.9-9-2.2-14.1-9.1-35.7-37-31.2-48.9-29.3-.9.1-1.9.3-2.8.4 0-1.6 0-3.3.1-4.7.3-12.5 1.2-45.7-32.2-50.6-5.3-.8-10.6-.2-15.6.4l-1.7.2-.4-2.2c-.6-3.1-1.2-5.9-1.9-8.3-8.1-27-27.5-32.3-40.3-35.8-3.4-1-6.7-1.9-9.8-3.1.5-2.6 1.6-6 2.4-8.5 4.1-13.1 12.6-40.3-13.2-55.7-8.2-4.9-16.7-5.6-23.4-5.7m22.5-410.8c-13 0-18.7 9.7-21 13.6l-1.5 2.5c-11.6 18.9-17.9 40.1-24 60.6q-2.7 9.45-5.7 18.6l-3 9.2c-6.7 19.7-13.5 40-15.9 62.3-1.5 14.3-2.6 28.7-3.7 43-.7 10.2-1.5 20.4-2.4 30.5l-1.7 17.5c-1.9 20-3.8 40.7-5.1 61.3-.1 1.5-.2 2.9-.3 4.3-.9 10-2.2 25 11.3 38.7 3.8 3.8 7.5 6.7 10.4 9 2.1 1.7 5 4 5.5 4.9 0 0 .2.8.1 2.8-.2 2.6-1.4 7.2-2.7 11.7-3.1 11-6.9 24.6-2.8 38.2 6.9 22.5 28.8 23 37.1 23.1l2.6.1c-.7 2.5-1.6 5.6-2.4 8-3.9 12.7-13.2 42.4 16.4 56.7 7.2 3.5 14 5.4 19.4 6.9 10.2 2.8 10.2 2.8 11.8 8 .4 1.2.6 2.7.9 4.3 1.8 8.9 4.4 22.4 16.2 30.5 10.1 6.9 22.2 5.5 31.1 4.5l1.9-.3c.1 2.7 0 6.1-.1 8.4-.3 11.8-.7 28 11.3 39 7.7 7 18 9.8 30.8 8.3 2.9-.4 5.7-.8 8.3-1.2.8-.1 1.7-.3 2.7-.4.4 2 .6 4.6.9 7.2.4 4.1.9 8.8 2.1 13.8 4.4 17.9 11.7 28.4 35.6 29h6.9c4.7-.1 10-.1 12.5.9 3.3 1.4 8.1 6.3 12.4 10.6 2.6 2.6 5.2 5.2 7.7 7.5q15 13.35 30.3 26.4l18.8 15.9 12.3-21.3c5.7-9.8 11.3-20.4 18.3-34.4 2.1-4.1 4-9 6-14.1 1.9-4.9 4.3-11.2 6.6-15l1.3.1c3.3.2 7.2.4 11.8-.1 12.8-1.5 20-8.2 23.7-13.6 10.5-14.9 6-34.5 1.9-51.9 7.7 2 16.6 2.3 24.5-4.3 5.6-4.6 11.4-13.5 7.9-29.8-2.1-9.4-6.1-18-9.7-25.6-1.6-3.3-3.1-6.6-4.3-9.6 2.2.4 4.4.8 6.4 1.1l1.9.2c26.5 3.9 32.9-13 34.5-20.5 2.3-10.8-2.6-21.5-6.3-29.3-.5-1.2-1-2.3-1.4-3.2-2.7-6.9-5.8-13.7-8.8-20.4-3.8-8.4-7.5-16.5-10.3-24.4 2.2-.2 4.5-.3 6.3-.4 5.3-.2 10.9-.5 16.1-1.5l16.9-3.2-.1-17.2c-.3-21.1-16.4-36.1-29.3-48.2-6.1-5.7-13.7-12.8-15.3-17-2-5.3-.3-13.8 4.2-20.8.6-.9 1.3-1.6 1.9-2.3 3.4-3.9 13.7-15.6 6.9-32-3.7-9-11.8-14.8-17.7-19.1-1-.7-1.9-1.3-2.6-1.9-3.1-2.6-6.6-5.1-10.1-7.7-5.9-4.3-11.9-8.7-15-12.7-1-1.2-.8-5-.5-10.5.4-7.8 1.1-18.5-3.8-29.5-5-11.4-14.6-19.5-22.3-26.1-1.4-1.2-2.8-2.4-4.1-3.5-10.5-9.5-21.3-18.5-32.1-27.6l-5.4-4.5c-71.2-60-154.6-93.5-228.2-123-1.6-.6-3.4-1.6-5.3-2.5-6.7-3.3-14.9-7.4-23.6-8l-1.4-.2c-1.6-.3-3.1-.4-4.5-.4" style="fill:#231f20;fill-opacity:1;fill-rule:nonzero;stroke:none" transform="matrix(.01819 0 0 -.01819 -229.285 425.8)"/><path d="m18282.9 15144.4-33.5 23.9c1.6 2.2 158.5 223 177.3 327.5 3.7 20.7 7.8 46 12 72.7 8.6 53.7 18.2 114.5 29.5 164.3 13.3 58.5 32 100.6 32.8 102.4l37.6-16.8c-.2-.4-17.9-40.4-30.3-94.7-11-48.5-20.5-108.6-29-161.6-4.2-27-8.3-52.5-12.1-73.6-20.4-113.6-177.6-334.7-184.3-344.1" style="fill:#231f20;fill-opacity:1;fill-rule:nonzero;stroke:none" transform="matrix(.01819 0 0 -.01819 -229.285 425.8)"/><path d="M18396.4 15348.1c-1.9 0-3.7.3-5.6.8-10.9 3.1-17.3 14.4-14.2 25.3 1.2 4.7 30.5 114.9-49.9 173.8-9.2 6.8-11.1 19.6-4.4 28.8 6.7 9.1 19.5 11.1 28.7 4.4 103.6-75.9 66.8-212.3 65.2-218-2.6-9.1-10.8-15.1-19.8-15.1" style="fill:#231f20;fill-opacity:1;fill-rule:nonzero;stroke:none" transform="matrix(.01819 0 0 -.01819 -229.285 425.8)"/><path d="M18444.7 15453.8c-3.8 0-7.7 1.1-11.2 3.3-9.5 6.2-12.2 18.9-6 28.4 2.5 4 63.3 95.7 157.7 86.5 11.3-1.1 19.6-11.2 18.5-22.4-1.1-11.4-11.1-19.6-22.5-18.5-69.6 6.8-118.7-67.2-119.2-67.9-4-6.1-10.6-9.4-17.3-9.4" style="fill:#231f20;fill-opacity:1;fill-rule:nonzero;stroke:none" transform="matrix(.01819 0 0 -.01819 -229.285 425.8)"/><path d="M18458.4 15531.8h-1.5c-11.3.9-19.8 10.7-19 22 .1.9 4.8 76.5-44.8 114.1-9 6.9-10.8 19.8-3.9 28.8 6.9 9.1 19.8 10.8 28.8 4 67.6-51.4 61.2-145.9 60.9-149.9-.8-10.8-9.8-19-20.5-19m-93.2-249.3c-5.6 0-11.2 2.3-15.3 6.8-7.6 8.4-7 21.4 1.4 29 2.5 2.2 61.5 55 149.3 55.5h.1c11.3 0 20.5-9.2 20.6-20.5 0-11.4-9.2-20.6-20.5-20.7-71.5-.3-121.4-44.3-121.8-44.8-4-3.5-8.9-5.3-13.8-5.3" style="fill:#231f20;fill-opacity:1;fill-rule:nonzero;stroke:none" transform="matrix(.01819 0 0 -.01819 -229.285 425.8)"/><path d="M18328.9 15234.3c-2.2 0-4.5.4-6.7 1.1-10.8 3.8-16.4 15.5-12.7 26.2 16.4 47.7-30.6 103.9-31.1 104.5-7.4 8.6-6.3 21.6 2.3 29 8.7 7.3 21.6 6.3 29-2.3 2.5-3 62.9-74.6 38.6-144.6-2.9-8.6-10.9-13.9-19.4-13.9" style="fill:#231f20;fill-opacity:1;fill-rule:nonzero;stroke:none" transform="matrix(.01819 0 0 -.01819 -229.285 425.8)"/><path d="M18015.5 15330.2c9.6 2.6 20.3 3.4 29.6 6.7 9.7 3.5 5.6 15.3 16.9 13 4.9-1 18.4-10.8 22.3-6.1 4.7 5.7-5.7 18.7 8.3 10.2 4.5-2.7 14.6-13.8 20.4-8.5 5.8 5.4-2.3 16.6 7.6 15.3 7.6-1.1 16.5-12.2 22.8-16.1 11-6.8 11.3 3.8 16 12.8 8.9-2.2 11.5-17.8 18.5-22.8 6.7-4.7 12.4-1.3 19.3-.5 8.1.9 1.5 2.6 5.9-.9 2.3-1.8 3.5-7.6 4.7-10.2 1.7-3.7 2.9-8.4 6.3-11 4.2-3.1 10.5-1.6 14.8-4.5 8.1-5.5 12.4-21.2 16.2-29.9 14.3-32.3 18.2-65.9 21.6-100.9.7-7.6 2.6-8.7-3-12.2-7.9-5-26.8-3.4-35.9-4.1-20.7-1.7-39 1-59.4 3.8-10 1.4-20 2.6-29.9 4.2-3 .5-9.2.4-11.7 2.3-5.4 3.9-2.9 11.2-10.3 14.3-5.5 2.3-13.4-1.2-18.6 1.4-8.2 4.1-.1 7.6-2.6 14.8-4.1 11.9-22.6-2.6-25.2 12.1-1.5 8.5 1.7 12.3-6.5 17.6-2.4 1.6-7.2 2.7-8.3 5.7-1.2 3.2 3.3 7.8 3.1 11-.6 12.4-19.6 4.5-20 16.2-.2 7.9 9.4 9.9 1 16.6-6.6 5.3-13.5 1.7-13.4 11.3 0 3.6 2.8 7.1 2.4 11-.4 5-4.4 10.2-6.7 14.6-2.1 4.2-4.2 8.5-6.2 12.8" style="fill:#47b173;fill-opacity:1;fill-rule:nonzero;stroke:none" transform="matrix(.01819 0 0 -.01819 -229.285 425.8)"/><path d="m18140.2 15189 1.5-.2c7.4-1.1 14.7-2.1 22-3.1l9.7-1.3c18.8-2.6 35-4.8 52.7-3.4 2.9.2 6.5.3 10.6.3 2.2 0 5.6.1 8.8.2-3.1 32-7.2 60.9-19.2 87.9-1 2.2-2 4.8-3.1 7.6-1.3 3.5-3.6 9.4-5.4 12.6-4.1.5-10.2 1.7-16.1 6.1-6.7 5-9.8 11.9-11.6 16.3-6.4-.8-15.2-.4-24 5.9-2.6 1.8-4.8 3.9-6.6 6.1l-2.2-.8c-7.9-2.6-16.2-1.3-24.6 3.9-1.9 1.2-3.6 2.4-5.3 3.8l-.5-.5c-8.6-7.9-18.8-9.1-30.6-3.5-10.3-8.3-23-4.5-31.5-.8-3-3.3-7-6.5-12.7-8.6-2.1-.7-4.1-1.3-6.1-1.8 1.4-3.3 2.5-6.9 2.9-11.1.2-2 .2-3.9 0-5.6 1.1-.7 2.2-1.5 3.4-2.4 3.5-2.8 12.6-11.4 11-24 11.9-5.9 15.2-15.7 15.7-23.8.1-1.2 0-2.4-.1-3.6 7.4-6.1 9.9-13 10.8-18.4 12.7-1.1 21.1-7.4 25-18.7l.6-1.8c2.8-.3 5.9-.9 9-2.2 9.1-3.7 13.5-10.1 15.9-15.1m74.6-49.6c-16.3 0-31.3 2.1-47 4.2l-9.6 1.3c-7.7 1-15.3 2.1-23 3.3l-1.4.1c-5.1.5-12.6 1.1-19.1 5.9-4.6 3.3-7.3 7.4-9.1 10.8-4.6-.3-10.6 0-16.8 3.1-3.6 1.8-12.8 7.3-14.8 18.1-17.6 2.6-22.7 15.4-24.1 23.7-.4 1.9-.6 3.7-.7 5.3-4.4 2.4-10.3 6.6-13.2 14.4-1.2 3.3-1.6 6.5-1.5 9.3-13 5.8-16.4 16.1-16.6 24.4-.1 1.5 0 3 .2 4.4-10.4 6.3-12.8 16.2-12.7 24.3 0 3.8.9 7.2 1.7 9.6l-.9 1.5c-1 1.8-2 3.5-2.9 5.1-2.1 4.4-4.3 8.8-6.4 13.2l-10.3 22 23.4 6.6c4.7 1.3 9.6 2.2 14.6 3.1 3.6.7 7.1 1.3 10.2 2.1 9 16.6 23.4 16.5 31.3 14.9 1-.2 2-.5 3-.8 1.4 1.6 3 3.1 5 4.4 10.3 6.9 20.7 2.7 26.4-.5l2.1 2.1c3.8 3.5 10.5 7.3 20.9 5.8 7.9-1.1 14.4-5.3 20-9.7l5.2 9.8 15.5-3.7c13.9-3.4 20.4-15.2 24.2-22.4l2.5 4.7 32.5-9.3-.8-9.3c1.7-3.1 2.8-6.1 3.6-8.5l.5-1.4.7-1.6c3.6-.7 8.4-1.9 13.1-5.1 11.6-7.9 16.9-21.7 21.1-32.8.8-2.1 1.6-4.1 2.3-5.8 15.3-34.5 19.6-69 23.3-107.3.1-1.1.2-2 .3-2.8.9-5.1 3.1-18.8-12.9-28.8-10.7-6.7-24.9-6.8-37.5-6.9-2.9-.1-5.6-.1-7.6-.2q-7.65-.6-14.7-.6" style="fill:#231f20;fill-opacity:1;fill-rule:nonzero;stroke:none" transform="matrix(.01819 0 0 -.01819 -229.285 425.8)"/><path d="M18261.8 15161.2s-47.4 70.3-79.2 88.3-70.3 36.1-78.7 47.3z" style="fill:#47b173;fill-opacity:1;fill-rule:nonzero;stroke:none" transform="matrix(.01819 0 0 -.01819 -229.285 425.8)"/><path d="M18261.8 15140.6c-6.6 0-13.1 3.2-17.1 9.1-17.3 25.6-52.2 70.6-72.2 81.9-8.8 5-18 10-27 14.8-31.4 16.8-49.6 26.9-58 38-6.9 9-5.1 21.9 3.9 28.8 9 6.8 21.9 5.1 28.8-3.9 4.5-5.1 28.7-18.1 44.7-26.7 9.3-4.9 18.9-10.1 27.9-15.2 34.9-19.8 80.9-87.1 86-94.7 6.4-9.4 3.9-22.2-5.5-28.5-3.5-2.4-7.5-3.6-11.5-3.6" style="fill:#231f20;fill-opacity:1;fill-rule:nonzero;stroke:none" transform="matrix(.01819 0 0 -.01819 -229.285 425.8)"/><path d="M18490 14984.7c-9.8-1.8-20.4-1.7-29.9-4.2-10-2.7-6.9-14.9-18-11.6-4.7 1.4-17.3 12.4-21.5 8-5.2-5.3 4-19.2-9.2-9.5-4.2 3.1-13.3 15-19.5 10.2-6.3-4.9.8-16.8-8.9-14.6-7.5 1.7-15.3 13.5-21.3 18-10.3 7.7-11.5-2.9-17-11.4-8.6 2.8-9.8 18.7-16.4 24.3-6.2 5.2-12.2 2.3-19.1 2.1-8.1-.3-1.7-2.5-5.8 1.4-2.1 2-2.8 7.9-3.8 10.6-1.3 3.8-2.1 8.7-5.3 11.4-3.8 3.5-10.3 2.6-14.3 5.8-7.5 6.3-10.5 22.3-13.5 31.3-11.4 33.5-12.4 67.3-12.7 102.6-.1 7.7-1.9 9 4 12 8.3 4.3 26.9 1.1 36.1 1.1 20.6-.1 38.6-4.3 58.6-8.8 9.8-2.3 19.6-4.3 29.4-6.8 2.9-.7 9-1.2 11.3-3.2 5.1-4.4 2-11.5 9.1-15.2 5.3-2.7 13.3.1 18.3-3 7.8-4.7-.6-7.6 1.3-15 3.1-12.2 22.7.7 24-14.2.7-8.6-2.8-12.1 4.9-18.2 2.3-1.7 7-3.2 7.8-6.4.9-3.3-4-7.4-4.1-10.7-.4-12.4 19.2-6.1 18.5-17.9-.4-7.9-10.2-9.1-2.5-16.4 6.2-5.9 13.4-2.8 12.5-12.4-.4-3.7-3.4-6.9-3.4-10.8 0-5.1 3.5-10.6 5.3-15.2 1.8-4.4 3.5-8.8 5.1-13.3" style="fill:#47b173;fill-opacity:1;fill-rule:nonzero;stroke:none" transform="matrix(.01819 0 0 -.01819 -229.285 425.8)"/><path d="M18422.5 14998.5c7.1 0 13.9-2.9 18.9-5.6 3.2 3 7.5 5.9 13.3 7.4 2.1.6 4.2 1 6.3 1.4-1.2 3.4-2 7.2-2 11.4q0 3.15.6 5.7c-1.1.8-2.2 1.7-3.2 2.7-3.3 3.1-11.6 12.4-8.9 24.9-11.4 6.9-13.8 16.9-13.5 25 0 1.2.1 2.5.4 3.6-6.9 6.8-8.7 13.8-9.1 19.3-12.6 2.3-20.4 9.2-23.3 20.8l-.4 1.9c-2.8.5-5.8 1.4-8.7 2.9-8.8 4.5-12.7 11.3-14.6 16.4l-1.4.4q-10.5 2.55-21 4.8l-10.2 2.3c-18.4 4.2-34.3 7.8-51.9 7.8-2.8 0-6.5.3-10.5.6-2.3.1-5.6.4-8.9.5.4-32.3 2-61.5 11.6-89.6.7-2.3 1.5-5 2.3-7.9 1.1-3.6 2.8-9.7 4.4-12.9 4-1 9.9-2.7 15.3-7.5 6.4-5.7 8.8-12.7 10.2-17.3 6.5.3 15.1-.9 23.4-7.9 2.4-2.1 4.3-4.3 5.9-6.7l2.2.7c5.6 1.3 14.3 1.3 24.3-6.1 1.7-1.2 3.2-2.6 4.7-4.1l.5.4c9.3 7.2 19.6 7.5 30.8 1 4.1 2.7 8.4 3.7 12.5 3.7m-133.3-16h.1zm95.9-40.3c-2 0-4.3.2-6.7.7-7.8 1.8-13.9 6.5-19 11.4l-5.9-9.4-15.3 5.1c-13.4 4.5-18.9 16.8-22.1 24.3l-2.8-4.4-31.6 12 1.6 9.3c-1.5 3.2-2.2 6.3-2.8 8.8l-.4 1.5-.5 1.6c-3.6 1-8.2 2.7-12.6 6.3-10.8 8.8-14.9 23-18.2 34.4-.6 2.2-1.2 4.3-1.8 6-12.2 35.8-13.4 70.6-13.8 109.2 0 1.1 0 2.1-.1 2.9-.4 5.1-1.4 18.9 15.2 27.5 11.3 5.8 25.5 4.8 38 3.8 2.9-.2 5.6-.4 7.6-.5 22.2 0 41-4.3 60.9-8.8l10.1-2.2c7.3-1.7 14.7-3.3 22-5.1l1.4-.3c5-.8 12.5-2.1 18.6-7.5 4.2-3.7 6.5-7.9 7.9-11.5 4.7-.2 10.6-.9 16.5-4.5 3.4-2.1 12.1-8.4 13.1-19.4 17.3-4.1 21.3-17.3 22-25.7.1-1.9.2-3.7.2-5.4 4.1-2.7 9.7-7.4 11.9-15.5.9-3.4 1-6.5.6-9.4 12.5-6.9 14.9-17.4 14.4-25.7 0-1.6-.2-3.1-.5-4.5 9.7-7.1 11.2-17.2 10.4-25.2-.3-3.9-1.5-7.1-2.5-9.5l.8-1.6q1.35-2.85 2.4-5.4c1.8-4.5 3.5-9.1 5.2-13.7l8.3-22.7-23.7-4.6c-4.8-.9-9.8-1.4-14.8-1.9-3.7-.4-7.2-.7-10.3-1.3-10.4-15.8-24.7-14.4-32.5-12.1-1 .3-1.9.6-2.8 1-1.5-1.6-3.3-2.9-5.4-4.1-10.8-5.9-20.7-.9-26.2 2.8l-2.3-2c-3.1-2.3-7.9-4.7-14.5-4.7" style="fill:#231f20;fill-opacity:1;fill-rule:nonzero;stroke:none" transform="matrix(.01819 0 0 -.01819 -229.285 425.8)"/><path d="M18265 15170s34.5-56.8 78.7-85.5 46.8-47 46.8-47z" style="fill:#47b173;fill-opacity:1;fill-rule:nonzero;stroke:none" transform="matrix(.01819 0 0 -.01819 -229.285 425.8)"/><path d="m17960.7 15009.6 5.1 7.5c.8 1.2.7 2.7-.3 3.4l-8.6 5.8c-1 .7-2.4.3-3.2-.9l-5.2-7.5c-.8-1.2-.6-2.7.4-3.3l8.6-5.9c1-.7 2.4-.3 3.2.9m-112.1 215 10.7 6.1c1.7 1 2.1 3.1 1.1 4.7l-5.2 7.9c-1.1 1.6-3.3 2.1-5 1.1l-10.6-6.1c-1.7-1-2.1-3-1.1-4.6l5.2-7.9c1.1-1.6 3.3-2.2 4.9-1.2m-65.9 16.5 4.7 4.3c2.2 1.9 2.2 5.9.2 8.8-2.1 2.9-5.6 3.7-7.7 1.8l-4.7-4.3c-2.2-2-2.3-5.9-.2-8.9 2.1-2.9 5.5-3.7 7.7-1.7m-116.5 182.8 5.2 3.6c2.4 1.6 3 5.6 1.3 8.7-1.7 3.2-5 4.4-7.4 2.7l-5.2-3.6c-2.4-1.6-3-5.6-1.3-8.7 1.7-3.2 5-4.4 7.4-2.7m125.9-590.4-7.9.7c-3.7.2-7.3-2.4-7.9-5.9-.7-3.5 1.7-6.6 5.4-6.9l7.9-.6c3.7-.3 7.2 2.3 7.9 5.8s-1.7 6.6-5.4 6.9m173.6 152.7-5.1-1.5c-2.4-.7-3.7-5.1-3.1-9.8.7-4.8 3.2-8 5.6-7.3l5.1 1.5c2.4.7 3.7 5.1 3 9.8-.6 4.7-3.1 8-5.5 7.3m-129.5-76.7-2.1-4.9c-1-2.3 1.6-6.2 5.6-8.6 4.1-2.5 8.2-2.7 9.1-.4l2.2 4.9c.9 2.2-1.6 6.1-5.6 8.6-4.1 2.5-8.2 2.6-9.2.4m-112.3 297.3 8.5 6c1.3.9 1.8 2.8 1 4.2l-5.4 10c-.7 1.4-2.4 1.8-3.7.9l-8.5-5.9c-1.3-1-1.8-2.9-1-4.3l5.4-10c.7-1.4 2.4-1.8 3.7-.9m7.7 163.8 10.8 6.7c1.7 1 2.6 3.4 2 5.3l-2.1 7.2c-.6 1.9-2.4 2.5-4.1 1.5l-10.7-6.7c-1.7-1-2.6-3.4-2.1-5.3l2.2-7.1c.5-1.9 2.4-2.6 4-1.6m-146.1-97.8 8.6 9.3c1.3 1.4 1.4 3.7.2 5l-9 10c-1.2 1.4-3.3 1.3-4.6-.1l-8.6-9.2c-1.3-1.5-1.4-3.7-.2-5.1l9-10c1.2-1.4 3.3-1.3 4.6.1m233.2-482.6-6.2 9.2c-.9 1.5-2.9 2-4.3 1.3l-10.4-5.7c-1.4-.8-1.8-2.5-.8-4l6.1-9.2c1-1.5 2.9-2 4.3-1.3l10.5 5.7c1.4.8 1.7 2.5.8 4m-160.7 588.2 12 6.3c1.8 1 2.7 3.3 2 5.3l-2.4 6.2c-.7 2-2.9 2.8-4.7 1.8l-12-6.2c-1.8-1-2.7-3.4-2-5.3l2.4-6.3c.7-1.9 2.9-2.7 4.7-1.8m2.8-91.9 3.8 2 .6 1.7-.7 2-1.5.6-3.9-2-.6-1.7.8-2zm-96.1 81.6 3.8 2 .7 1.7-.8 2-1.5.6-3.8-2-.6-1.7.7-2zm188.6-544.9-1 4.2-1.5 1-2.2-.3-.9-1.3 1.1-4.2 1.5-1 2.1.3zm-236.6 495.2 11.5 3.2c1.8.4 3 2.4 2.6 4.3l-1.4 9.3c-.3 1.9-2 3-3.8 2.6l-11.4-3.2c-1.8-.5-3-2.4-2.7-4.3l1.5-9.3c.3-1.9 2-3.1 3.7-2.6m82.3 69.7 5-2.7 2.2.9 2.2 4.2-.6 2.4-5 2.7-2.2-.8-2.2-4.3zm142.2-667 3.8 4.2-.3 2.4-3.7 3.1-2.4-.1-3.8-4.2.3-2.3 3.7-3.1zm89.9 239.9 3.8 4.2-.3 2.4-3.6 3.1h-2.4l-3.8-4.2.3-2.4 3.6-3.1zm88.9.6 3.8 4.2-.3 2.3-3.6 3.1h-2.5l-3.8-4.2.3-2.4 3.7-3.1zm-36.2-60.8 3.7 4.2-.3 2.3-3.6 3.1h-2.4l-3.8-4.2.3-2.4 3.6-3.1zm-75.4 500 5.3-2.1c.8-.3 1.7.2 2 1.2l1.6 4.5c.4.9 0 1.9-.9 2.2l-5.2 2.1c-.9.3-1.8-.2-2.1-1.1l-1.6-4.6c-.4-.9 0-1.9.9-2.2m36.9-59.3 5.3-2c.8-.3 1.7.2 2.1 1.1l1.6 4.5c.3 1-.1 2-.9 2.3l-5.3 2c-.8.4-1.8-.1-2.1-1.1l-1.6-4.5c-.3-.9.1-1.9.9-2.3m-223.6 22.9 5-2.7 2.2.8 2.2 4.3-.6 2.3-5 2.7-2.2-.8-2.2-4.3zm121 113.8-2.7-4.9.9-2.2 4.3-2.2 2.3.6 2.7 5-.8 2.2-4.3 2.1zm326.4-588.4 5.3-2.1c.8-.3 1.8.2 2.1 1.1l1.6 4.6c.3.9-.1 1.9-.9 2.2l-5.3 2.1c-.8.3-1.7-.2-2.1-1.2l-1.6-4.5c-.3-.9.1-1.9.9-2.2m58.3 317.7 5.2 2.1c.9.3 1.2 1.3.8 2.2l-1.9 4.4c-.3.9-1.3 1.4-2.1 1.1l-5.3-2.1c-.8-.3-1.2-1.3-.8-2.2l1.9-4.4c.4-.9 1.4-1.4 2.2-1.1m-500.2 110.2 2.9 4.8-.4 2.1-3.1 2.1-2-.5-2.9-4.8.4-2.1 3.1-2.1zm108.5-199.3 2.3 5.2-.7 2-3.4 1.7-1.8-.8-2.3-5.1.7-2.1 3.3-1.7zm-59.1 122.9 9 2.4c1.3.4 2.3 1.9 2 3.4l-1.1 7.3c-.3 1.5-1.6 2.4-3 2l-8.9-2.4c-1.4-.4-2.4-1.9-2.1-3.4l1.1-7.3c.3-1.5 1.6-2.4 3-2m201.7-306.1-.3 9.2c-.1 1.5-1.3 2.7-2.8 2.9l-7.4.5c-1.5.1-2.7-.9-2.6-2.4l.3-9.3c0-1.4 1.3-2.7 2.8-2.8l7.3-.5c1.5-.2 2.7.9 2.7 2.4m-120.5-84.7-.3 9.3c0 1.4-1.3 2.7-2.8 2.8l-7.3.6c-1.5.1-2.7-1-2.7-2.4l.3-9.3c.1-1.5 1.3-2.7 2.8-2.8l7.4-.6c1.5-.1 2.7 1 2.6 2.4m159.2 76-.3 9.3c0 1.5-1.3 2.7-2.8 2.8l-7.4.6c-1.5.1-2.7-1-2.6-2.4l.3-9.3c0-1.4 1.3-2.7 2.8-2.8l7.4-.6c1.5-.1 2.7 1 2.6 2.4m-139.3 289.6.2 6.4c0 1-.7 1.8-1.6 1.8l-4.3-.1c-.9 0-1.7-.8-1.7-1.8l-.3-6.5c0-1 .7-1.8 1.6-1.8l4.4.1c.9 0 1.6.8 1.7 1.9m-243.4 230.7 1 6.4c.2 1-.4 1.9-1.3 2l-4.3.5c-.9.1-1.8-.6-1.9-1.6l-1.1-6.4c-.2-1 .4-1.9 1.3-1.9l4.3-.6c.9-.1 1.8.7 2 1.6m445.6-744.3-1.6 6.2c-.2 1-1.1 1.6-2 1.3l-4.2-1.2c-.8-.3-1.3-1.3-1.1-2.3l1.6-6.2c.2-1 1.1-1.6 2-1.3l4.2 1.3c.8.2 1.3 1.2 1.1 2.2m-22.3 116.4-1.5 6.3c-.3 1-1.2 1.5-2 1.3l-4.2-1.3c-.9-.3-1.4-1.3-1.1-2.3l1.5-6.2c.3-1 1.2-1.5 2-1.3l4.2 1.3c.9.3 1.4 1.3 1.1 2.2m144.1 26-1.5 6.3c-.3.9-1.2 1.5-2 1.3l-4.2-1.3c-.9-.3-1.4-1.3-1.1-2.3l1.5-6.2c.3-1 1.2-1.6 2-1.3l4.2 1.3c.9.2 1.4 1.2 1.1 2.2m-301.9 85.8-5.9 2.5c-.9.4-1.9 0-2.2-.8l-1.5-4.1c-.3-.9.2-1.9 1.1-2.3l5.9-2.5c.9-.4 1.9 0 2.2.8l1.5 4.2c.4.8-.1 1.8-1.1 2.2m-52.1-132.5-5.9 2.5c-1 .4-2 0-2.3-.8l-1.5-4.1c-.3-.9.2-1.9 1.1-2.3l6-2.5c.9-.4 1.9 0 2.2.8l1.5 4.1c.3.9-.2 1.9-1.1 2.3m83.2 617.8.2 6.5c0 .9-.7 1.7-1.6 1.7h-4.3c-.9 0-1.7-.9-1.7-1.9l-.3-6.4c0-1 .7-1.8 1.6-1.8l4.4.1c.9 0 1.6.8 1.7 1.8m60.1-.1.3 6.4c0 1-.7 1.8-1.6 1.8h-4.4c-.9-.1-1.6-.9-1.7-1.9l-.2-6.4c0-1 .7-1.8 1.6-1.8l4.3.1c.9 0 1.7.8 1.7 1.8m164.8-488.6.2 6.5c.1 1-.6 1.8-1.5 1.8l-4.4-.1c-.9 0-1.7-.8-1.7-1.8l-.2-6.5c0-1 .6-1.8 1.6-1.8l4.3.1c.9 0 1.7.8 1.7 1.8m276.2 507.1 3.1 5.6-.5 2.3-3.9 2-2.4-.9-3.2-5.5.6-2.4 3.9-1.9zm-681.7-234.8-6 2.5c-.9.4-1.9 0-2.2-.8l-1.4-4.2c-.3-.8.2-1.8 1.1-2.2l5.9-2.4c1-.4 2 0 2.3.8l1.4 4.1c.3.9-.2 1.9-1.1 2.2m302.8-351.7-1.5 6.3c-.3.9-1.2 1.5-2 1.2l-4.2-1.2c-.9-.3-1.4-1.3-1.1-2.3l1.5-6.2c.3-1 1.2-1.5 2-1.3l4.2 1.3c.9.2 1.4 1.3 1.1 2.2m-387.3 557.9 1.1 6.3c.1 1-.4 1.9-1.3 2l-4.4.5c-.9.1-1.7-.6-1.9-1.6l-1.1-6.3c-.1-1 .5-1.9 1.4-2l4.3-.5c.9-.1 1.7.6 1.9 1.6m198.5 64.3 6.4-1.1c1-.2 1.9.4 2 1.3l.5 4.4c.1.9-.7 1.7-1.7 1.9l-6.3 1c-1 .2-1.9-.4-2-1.3l-.5-4.3c-.1-.9.6-1.8 1.6-1.9m26.4-18.2 6.3-1.1c1-.2 1.9.4 2 1.3l.5 4.4c.1.9-.6 1.7-1.6 1.9l-6.4 1c-.9.2-1.8-.4-1.9-1.3l-.5-4.3c-.1-.9.6-1.8 1.6-1.9m335-209.9-4.2 4.9-2.3.2-3.2-3v-2.5l4.2-4.9 2.3-.2 3.2 3zm-299.5 26.9 3.5 9.3c.7 1.8 0 3.7-1.6 4.4l-10 4.1c-1.6.7-3.4-.3-4-2l-3.5-9.3c-.7-1.8.1-3.7 1.6-4.4l10-4.1c1.6-.7 3.4.2 4 2m-11.8 100.1 8.6 3.5c1.3.6 2 2.2 1.6 3.7l-2.1 7c-.4 1.4-1.9 2.2-3.2 1.6l-8.5-3.6c-1.3-.5-2-2.2-1.6-3.6l2.1-7c.4-1.5 1.8-2.2 3.1-1.6m-162.6-61.8 12.9.2c1.5.1 2.7 1.4 2.8 3l.6 10.3c.1 1.6-1 2.9-2.5 2.8l-12.9-.2c-1.5 0-2.7-1.4-2.8-3l-.6-10.3c-.1-1.6 1-2.8 2.5-2.8m124 40.2 7.7 6.5c1.2 1 1 2.7-.6 3.7l-2.4 1.8c-1.6 1-3.8 1.1-5 .1l-7.7-6.5c-1.2-1-1-2.7.5-3.8l2.5-1.7c1.5-1.1 3.8-1.1 5-.1m385.1-139.9 1.3 10c.2 1.5-1.1 2.6-3 2.4l-3-.4c-1.8-.3-3.5-1.7-3.7-3.3l-1.3-10c-.2-1.6 1.1-2.6 3-2.4l2.9.4c1.9.3 3.6 1.7 3.8 3.3M17620 15406l8.4 5.2c1.3.8 1.3 2.5-.1 3.8l-2.2 2c-1.4 1.2-3.6 1.6-4.9.7l-8.5-5.2c-1.3-.8-1.2-2.5.1-3.7l2.3-2c1.4-1.3 3.5-1.6 4.9-.8m247.6-447.5-3.1 9.4c-.5 1.5-2.2 1.8-3.7.8l-2.5-1.7c-1.5-1.1-2.3-3.1-1.8-4.6l3.1-9.5c.5-1.4 2.1-1.8 3.6-.7l2.5 1.7c1.5 1.1 2.4 3.1 1.9 4.6m-166.7 411 8.5 5.2c1.3.8 1.2 2.5-.1 3.7l-2.3 2c-1.3 1.3-3.5 1.6-4.8.8l-8.5-5.2c-1.3-.8-1.3-2.5.1-3.7l2.2-2c1.4-1.3 3.6-1.6 4.9-.8m111.5-165.1 1.3 5.6c.2.9-.4 1.4-1.4 1.2l-1.7-.3c-1-.1-1.9-1-2.1-1.9l-1.3-5.5c-.2-.9.4-1.5 1.4-1.3l1.7.3c1 .2 1.9 1.1 2.1 1.9m29.6-193.2 2.2-9.3c.3-1.4 1.7-2.1 3-1.6l5 2.1c1.4.5 2.2 2.1 1.8 3.6l-2.2 9.3c-.3 1.4-1.7 2.1-3 1.6l-5-2.1c-1.4-.5-2.2-2.1-1.8-3.6m-66.3 412.7-11.6 2.1c-1.8.4-3.9-.6-4.7-2.2l-3-6c-.8-1.6 0-3.2 1.8-3.5l11.6-2.1c1.8-.3 3.9.7 4.7 2.3l3 6c.8 1.6 0 3.1-1.8 3.4m151.5-318.3-5.7-10.6c-.9-1.6-.5-3.7.9-4.6l10.4-6.8c1.4-.9 3.2-.3 4.1 1.3l5.7 10.6c.9 1.6.5 3.7-.9 4.6l-10.4 6.8c-1.4.9-3.2.4-4.1-1.3m-105.4-287.4 6.3-7.3c.9-1.2 2.6-1.5 3.7-.7l8 5.8c1.1.8 1.2 2.3.2 3.5l-6.2 7.3c-1 1.1-2.7 1.4-3.8.6l-8-5.8c-1.1-.8-1.2-2.3-.2-3.4m73.8 227.7 3.7-7.2c.6-1.1 2-1.8 3.2-1.7l3.9.6c1.2.2 1.7 1.2 1.1 2.4l-3.7 7.1c-.6 1.1-2 1.9-3.2 1.7l-3.8-.6c-1.2-.1-1.8-1.2-1.2-2.3m48.7-248.4-6.6-11c-1-1.7-.6-4.1.9-5.3l4.8-3.9c1.5-1.2 3.5-.8 4.6.9l6.6 11c1 1.7.6 4.1-.9 5.3l-4.8 3.9c-1.5 1.2-3.5.8-4.6-.9m105.8 19.7-2.1-3.5.3-1.7 1.5-1.2 1.5.2 2.1 3.6-.3 1.6-1.5 1.3zm-81.1-34.8-2.1-3.5.3-1.7 1.5-1.2 1.5.3 2.1 3.5-.3 1.7-1.5 1.2zm-1.1-34.1-6.1-6.5c-.9-1-1-2.7-.1-3.8l4.4-5.4c.9-1.1 2.4-1.2 3.3-.1l6.1 6.4c.9 1 .9 2.8 0 3.9l-4.3 5.3c-.9 1.1-2.4 1.2-3.3.2m-224 694.5 1.8 4.9-1.1 2-4.2 1.6-2.1-.8-1.9-4.9 1.1-2 4.3-1.5zm367.4-631v-5.3l1.2-1.5 3.5-.2 1.3 1.5.1 5.3-1.3 1.5-3.5.1zm-49 56.7v-5.3l1.2-1.5 3.5-.1 1.3 1.4.1 5.3-1.3 1.5-3.5.2zm289.4 526.6-.5 5.6c-.1.9-1 1.5-2 1.4l-4.7-.6c-1-.2-1.7-1-1.6-1.8l.5-5.7c.1-.8 1-1.5 1.9-1.3l4.8.6c1 .1 1.7.9 1.6 1.8m133.2 84.9-4.9-4.2-.3-2.4 3.1-3.2 2.4.1 4.9 4.2.3 2.3-3 3.2zm-752.7-294.5 2.3-6c.3-.9 1.3-1.4 2.1-1.1l4 1.8c.8.3 1.2 1.4.9 2.3l-2.3 6.1c-.3.9-1.3 1.4-2.1 1l-4-1.7c-.8-.4-1.2-1.4-.9-2.4m855.6 330.3 4.7 2.3.8 1.8-1.4 3.2-1.9.5-4.7-2.3-.8-1.8 1.4-3.2zm-823.9-362.3-.5 5.3-1.4 1.4-3.5-.3-1.1-1.5.5-5.3 1.4-1.4 3.5.3zm946.1-165.9 4.7 2.3.8 1.8-1.4 3.2-1.9.5-4.7-2.3-.8-1.8 1.4-3.2zm-783.2-59.2v-5.3l1.2-1.5 3.5-.1 1.3 1.4.1 5.3-1.3 1.5-3.4.2zm-37.1 80.6 1.6-8.6c.2-1.4 1.5-2.4 2.9-2.4l6.9.2c1.4.1 2.3 1.2 2.1 2.6l-1.5 8.6c-.3 1.4-1.6 2.4-3 2.4l-6.8-.3c-1.5 0-2.4-1.1-2.2-2.5m-48.8-362.8-1.4-5.8c-.3-.9.2-1.8 1-2l6.6-1.6c.8-.2 1.6.4 1.8 1.3l1.4 5.8c.3.9-.2 1.8-1 2l-6.6 1.6c-.8.2-1.6-.4-1.8-1.3m-2.7 22.7 3.1 2.4c1.4 1 1.2 4.4-.4 7.4-1.7 3-4.2 4.6-5.6 3.5l-3.1-2.3c-1.4-1.1-1.2-4.4.4-7.4 1.7-3.1 4.2-4.6 5.6-3.6m-8.6 40.7-2.1-5.3c-.3-.8.2-1.7 1.1-2.1l4.5-1.6c1-.3 2 .1 2.3.9l2.1 5.3c.3.8-.2 1.7-1.1 2.1l-4.5 1.6c-1 .3-2-.1-2.3-.9m36.4-27-6 5.4c-.9.8-2.5 1-3.6.4l-3.3-1.9c-1.1-.6-1.2-1.7-.3-2.6l6-5.4c.9-.8 2.5-1 3.6-.4l3.4 1.9c1 .6 1.2 1.7.2 2.6m-17.8-70.7-3.5 2.1-1.7-.2-1.3-1.5.3-1.5 3.5-2.1 1.7.2 1.2 1.5zm330.5 161.9 3.8 1.6.7 1.6-.5 1.9-1.3.6-3.8-1.6-.8-1.6.6-1.9zm-319.5-55.1-3.1 5.2c-.5.9-1.6 1.2-2.5.8l-4.4-1.8c-.9-.4-1.2-1.3-.7-2.1l3.1-5.3c.5-.8 1.6-1.2 2.5-.8l4.4 1.8c.9.4 1.2 1.4.7 2.2m441 40.9 6.1-.5c1-.1 1.9.6 2.1 1.6l1.1 4.7c.2.9-.4 1.7-1.3 1.8l-6.1.5c-1 .1-1.9-.6-2.2-1.6l-1-4.6c-.2-1 .4-1.8 1.3-1.9m-355.8-45.7 2.1-5.7 2-.9 3.7 1.7.7 2.3-2.1 5.7-1.9.9-3.7-1.7zm-226.6 736.4-6 .4c-.9 0-1.7-.6-1.7-1.5l.2-4c0-.9.8-1.6 1.7-1.7l6.1-.3c.9 0 1.7.6 1.6 1.4l-.1 4.1c0 .9-.8 1.6-1.8 1.6m-138.1-25.1-.3-6c-.1-.9.6-1.7 1.4-1.7l4.1.2c.8 0 1.6.8 1.6 1.7l.4 6.1c0 .9-.6 1.6-1.5 1.6l-4-.1c-.9 0-1.6-.8-1.7-1.8m155.1-154.4.4-6c.1-1 .8-1.6 1.6-1.5l4.1.7c.8.1 1.4 1 1.3 1.9l-.4 6.1c-.1.9-.8 1.5-1.6 1.4l-4.1-.6c-.8-.2-1.4-1-1.3-2m182.4-522.5-10.9-7.1c-1.2-.8-1.6-2.6-.9-4.1l4.6-9.2c.8-1.5 2.3-2 3.6-1.2l10.9 7.1c1.2.8 1.6 2.6.9 4l-4.6 9.3c-.7 1.4-2.3 2-3.6 1.2m933.4 145.7 6.3-1.1c1-.1 1.9.4 2 1.3l.5 4.4c.1.9-.6 1.7-1.6 1.9l-6.3 1.1c-1 .2-1.9-.4-2-1.3l-.5-4.3c-.1-.9.6-1.8 1.6-2m115.4-27 6.3-1.1c1-.1 1.9.4 2 1.3l.5 4.4c.1.9-.6 1.7-1.6 1.9l-6.3 1.1c-1 .2-1.9-.4-2-1.3l-.5-4.3c-.1-.9.6-1.8 1.6-2m-14.2 20.9-7.4 10.5c-1.1 1.6-3.4 2.2-5.2 1.4l-5.5-2.8c-1.7-.9-2.2-2.9-1-4.6l7.3-10.5c1.2-1.6 3.5-2.2 5.2-1.3l5.5 2.8c1.7.8 2.2 2.9 1.1 4.5m-23.8-16.4-2.3 3.3-1.7.5-1.8-.9-.3-1.5 2.4-3.3 1.6-.5 1.8.9zm-30.7 14.9-3.5 8.1c-.5 1.3-2.1 2-3.4 1.7l-6.7-1.8c-1.4-.4-2.1-1.7-1.5-3l3.4-8.1c.6-1.3 2.1-2 3.5-1.7l6.7 1.8c1.3.4 2 1.7 1.5 3m-21.9 35.4-6 .4c-1 .1-1.7-.6-1.7-1.4l.1-4.1c0-.8.8-1.6 1.7-1.6l6.1-.4c.9-.1 1.6.6 1.6 1.4l-.1 4.1c0 .8-.8 1.5-1.7 1.6m42.4 10.9-2 12.8c-.3 1.4-1.7 2.6-3.3 2.5l-10.4-.5c-1.6 0-2.7-1.3-2.5-2.7l2.1-12.9c.2-1.4 1.7-2.5 3.3-2.5l10.3.5c1.6.1 2.7 1.3 2.5 2.8m-1161.5-147.9-.9-12.8c-.1-1.4 1-2.8 2.6-3.1l10-1.9c1.6-.3 2.9.7 3 2.1l.9 12.8c.1 1.4-1 2.9-2.6 3.1l-10 1.9c-1.6.3-2.9-.7-3-2.1m608.3 818.7 7.5 2.8c3.4 1.3 5.5 5.2 4.7 8.7-.9 3.5-4.4 5.2-7.8 4l-7.5-2.8c-3.5-1.3-5.6-5.2-4.7-8.7s4.4-5.3 7.8-4m60.5-75.9-.1 5.4c-.1 2.5-4 4.9-8.7 5.4-4.8.6-8.5-1-8.5-3.5l.2-5.3c.1-2.5 4-4.9 8.7-5.4 4.7-.6 8.5 1 8.4 3.4m-42.7-74.1-.1 2.7c-.1 1.2-2 2.3-4.3 2.6s-4.2-.5-4.1-1.7l.1-2.6c0-1.2 1.9-2.4 4.2-2.7 2.3-.2 4.2.5 4.2 1.7m-213.5-144.6-2.4 1c-1.1.4-3-.9-4.1-2.9-1.2-2.1-1.2-4.1 0-4.5l2.4-.9c1.1-.5 3 .8 4.1 2.9 1.1 2 1.1 4 0 4.4m-84.7-332.2-1.3 2.3c-.6 1.1-2.8 1.2-5 .4-2.1-.9-3.4-2.4-2.8-3.4l1.3-2.3c.6-1.1 2.8-1.2 5-.4 2.1.9 3.4 2.4 2.8 3.4m577.4-10.1-1.3 2.3c-.6 1.1-2.8 1.2-5 .4-2.2-.9-3.5-2.4-2.9-3.4l1.3-2.3c.6-1.1 2.9-1.2 5-.4 2.2.9 3.5 2.4 2.9 3.4m-329.6 529 9.5-5.8c1.4-.9 3.4-.6 4.4.7l7 9.5c1 1.3.6 3.1-.9 4l-9.5 5.8c-1.5.9-3.4.6-4.4-.7l-7.1-9.6c-.9-1.2-.5-3 1-3.9m31.9 151.9 2.7-3.3 1.8-.3 1.8 1.1.3 1.6-2.7 3.4-1.8.3-1.8-1.2zm-269.9-723.4 4-1.7 1.7.6 1 1.9-.5 1.5-3.9 1.7-1.7-.6-1.1-1.8zm674.2 61.3.5-5.6c.1-.9.9-1.5 1.9-1.4l4.8.6c.9.1 1.7.9 1.6 1.8l-.5 5.6c-.1.9-1 1.5-1.9 1.4l-4.8-.6c-1-.1-1.7-.9-1.6-1.8m-25.9-49 4.9 4.1.3 2.4-3 3.2h-2.5l-4.9-4.2-.3-2.3 3-3.2zm53.7 77.6 5.9 2.6c.9.4 1.3 1.4.9 2.2l-2 3.9c-.4.8-1.5 1.1-2.4.7l-5.9-2.6c-.9-.4-1.3-1.4-.9-2.2l2-3.9c.4-.8 1.5-1.1 2.4-.7m-101.4-43.5-4 .3-1.4-1-.5-1.9.9-1.2 4.1-.3 1.4 1 .4 1.9zm51.5 11.7-4.8-2.3-.8-1.8 1.4-3.2 1.9-.5 4.8 2.2.8 1.9-1.4 3.1zm106.8 28.1 1.4 2.2c.7 1-.1 3-1.8 4.6s-3.7 2.1-4.4 1.1l-1.4-2.2c-.7-1 .1-3.1 1.8-4.7 1.7-1.5 3.7-2 4.4-1m-42.9-32 .2-4.3 1.3-1.3 2.1-.1 1.2 1.1-.3 4.3-1.2 1.3-2.2.1zm-89.9 55.6 4-1.7 1.7.6 1.1 1.9-.6 1.5-3.9 1.7-1.7-.6-1.1-1.8zm-345.2 538.7-1.6-5.4c-.3-.8.3-1.7 1.2-2l4.6-1.2c1-.3 2 .2 2.2 1l1.7 5.4c.2.9-.3 1.8-1.3 2l-4.6 1.3c-.9.3-1.9-.2-2.2-1.1m78.6 166 5.3-1.9 2 .8 1.4 3.5-.9 1.8-5.3 1.9-2-.8-1.4-3.5zm-34.6-131.6 4.2-8.3c.6-1.3 2.3-1.9 3.7-1.4l6.9 2.6c1.5.6 2.1 2.1 1.4 3.3l-4.2 8.3c-.6 1.3-2.3 1.9-3.7 1.4l-6.9-2.6c-1.4-.5-2-2-1.4-3.3m19.4 72.6 6.4.2c1 .1 1.7.8 1.7 1.7l-.4 4.4c-.1.9-1 1.6-2 1.5l-6.4-.2c-1 0-1.8-.8-1.7-1.7l.4-4.3c.1-.9.9-1.6 2-1.6m-30.3-87-8.8 4c-1.3.6-3 .2-3.6-1l-4.9-8.6c-.6-1.2-.1-2.6 1.3-3.3l8.8-3.9c1.3-.6 3-.2 3.6 1l4.9 8.6c.6 1.2.1 2.6-1.3 3.2m.8 53.6-4.6 11.9c-.5 1.4-2.2 2.1-3.8 1.7l-9.8-2.5c-1.6-.4-2.4-1.8-1.9-3.2l4.6-12c.5-1.3 2.2-2.1 3.7-1.7l9.9 2.6c1.5.4 2.4 1.8 1.9 3.2m104.2-32.5 7.8 1.4c3.7.7 6.4 4.1 6.2 7.7-.3 3.6-3.4 6-7 5.3l-7.9-1.5c-3.6-.6-6.4-4.1-6.1-7.7.2-3.5 3.3-5.9 7-5.2m-13.5-60.8.7 5.3c.4 2.5-3 5.5-7.6 6.9-4.6 1.3-8.6.5-8.9-2l-.8-5.3c-.3-2.4 3.1-5.5 7.7-6.8 4.5-1.4 8.5-.5 8.9 1.9m-1.8-57.9 8.3-7.4c1.3-1.1 3.3-1.1 4.5 0l8.6 8.1c1.2 1.1 1 3-.2 4.1l-8.4 7.4c-1.3 1.1-3.3 1.1-4.4 0l-8.7-8.1c-1.1-1.1-1-3 .3-4.1m49.9 140.8 2.1-3.8 1.7-.6 2 .8.5 1.6-2.1 3.7-1.7.6-1.9-.8zm-880-464 4.2.7 1.2 1.4-.1 2.1-1.2 1.1-4.3-.7-1.1-1.4v-2.1zm750.1 328.2-2.6-5 .9-2.2 4.3-2 2.3.6 2.6 5-.9 2.2-4.3 2.1zm119.3 206.9 4.8-2.8 2.1.4 2 3.2-.6 2-4.8 2.7-2.2-.4-2-3.2zm22.1-210 2.7-8.9c.4-1.4 2-2.3 3.4-2l7.3 1.3c1.5.3 2.3 1.6 1.9 3l-2.7 8.9c-.4 1.4-1.9 2.3-3.4 2l-7.3-1.3c-1.4-.3-2.3-1.7-1.9-3m-18.1 106.4 2.7-8.9c.4-1.4 1.9-2.3 3.4-2l7.2 1.3c1.5.3 2.4 1.7 2 3l-2.7 8.9c-.4 1.4-2 2.3-3.5 2l-7.2-1.3c-1.5-.3-2.4-1.7-1.9-3m-829.6-442.2 7.5-5.4c1.2-.9 2.9-.7 3.9.5l5 5.4c1 1.2.9 2.7-.3 3.6l-7.5 5.5c-1.2.8-2.9.6-4-.5l-4.9-5.5c-1-1.1-.9-2.7.3-3.6m1041.5-103.1-2.5-9c-.4-1.4.4-2.9 1.8-3.5l6.9-2.7c1.4-.6 2.8.1 3.2 1.5l2.5 8.9c.4 1.4-.4 3-1.8 3.5l-6.9 2.8c-1.4.5-2.8-.1-3.2-1.5m-513.9-276.6-2.5-9c-.4-1.4.5-3 1.9-3.5l6.8-2.8c1.4-.5 2.9.1 3.3 1.5l2.4 9c.4 1.4-.4 3-1.8 3.5l-6.8 2.8c-1.4.5-2.9-.1-3.3-1.5m299.2 732.7 6.3-.9c1-.1 1.9.5 2 1.4l.4 4.4c0 .9-.7 1.7-1.7 1.8l-6.4.9c-1 .2-1.8-.5-1.9-1.3l-.4-4.4c-.1-.9.7-1.7 1.7-1.9m-351.2-229.5-5.1 1.6-1.8-.7-1.2-3.3 1-1.6 5-1.7 1.8.7 1.2 3.3zm33.7-6.6 4.3 8.2c.7 1.3.2 3-1.1 3.9l-6.1 4.1c-1.3.8-2.8.5-3.5-.8l-4.3-8.2c-.7-1.3-.2-3 1.1-3.9l6.1-4.1c1.2-.8 2.8-.5 3.5.8m2.8-27-3.9 5.1-2.3.4-3.4-2.9-.1-2.4 3.9-5.2 2.4-.3 3.3 2.8zm-526.2-71.1 3.1 5.7-.6 2.3-4 1.8-2.3-.8-3.1-5.7.6-2.3 4-1.9zm849.3 481.5 6.3-.9c1-.1 1.9.5 2 1.4l.4 4.3c.1.9-.7 1.8-1.7 1.9l-6.4.9c-.9.2-1.8-.5-1.9-1.4l-.4-4.3c-.1-.9.7-1.7 1.7-1.9m-44.1-67.8-7.9 5.4c-1.3.8-3 .7-3.8-.4l-6.3-7.6c-.8-1.1-.5-2.6.7-3.4l8-5.5c1.2-.8 2.9-.6 3.7.4l6.3 7.7c.9 1 .5 2.5-.7 3.4m22.3 65.6-2.4 12.6c-.3 1.4-1.8 2.4-3.4 2.3l-10.2-.8c-1.6-.1-2.6-1.4-2.3-2.8l2.4-12.6c.3-1.4 1.8-2.5 3.4-2.3l10.1.8c1.6.1 2.7 1.4 2.4 2.8m-597.2-251.2 5.3 6c2.5 2.8 2.5 7.2.1 9.9-2.4 2.6-6.3 2.6-8.8-.2l-5.3-6c-2.4-2.8-2.4-7.2 0-9.8 2.4-2.7 6.3-2.6 8.7.1m32.2-51.8-2.7 4.7c-1.2 2.1-5.8 2.4-10.2.7-4.4-1.8-7-5-5.8-7.1l2.7-4.6c1.2-2.2 5.8-2.5 10.2-.7 4.4 1.7 7 4.9 5.8 7m-13.2 94.9 3.9-1.6 1.7.6 1.1 1.8-.5 1.5-4 1.7-1.7-.6-1.1-1.8zm14.8-29.7 7.6-5.3c1.2-.8 2.9-.6 3.9.6l4.9 5.5c1 1.1.9 2.7-.3 3.6l-7.6 5.3c-1.2.8-3 .6-4-.6l-4.8-5.5c-1-1.1-.9-2.7.3-3.6m-31.5 49.3 5.6 3.2.7 2.3-2.4 3.6-2.5.5-5.6-3.2-.6-2.3 2.4-3.7zm7.2-80.6-9.6-.7c-1.5-.1-2.7-1.2-2.7-2.6l-.2-9.9c-.1-1.3 1.1-2.3 2.6-2.2l9.6.6c1.5.1 2.7 1.3 2.8 2.6l.2 9.9c0 1.4-1.2 2.4-2.7 2.3m-22.9 65.4-9.7 8.4c-1.1.9-3 .8-4.1-.3l-7.5-6.9c-1.2-1.1-1.3-2.7-.2-3.7l9.7-8.4c1.1-.9 3-.8 4.1.3l7.5 6.9c1.2 1.1 1.2 2.7.2 3.7m34.8-500 .9-5.4 1.7-.5 1.2.9 1.2 2.5-.9 5.3-1.7.6-1.2-.9zm739.3-107.9-2.2 8.8c-.3 1.4-1.6 2.2-2.8 1.9l-10-2.5c-1.2-.3-1.9-1.6-1.5-3l2.2-8.8c.3-1.4 1.6-2.3 2.8-1.9l10 2.5c1.2.3 1.9 1.6 1.5 3m138.9-49.2-2.3-4.8c-1.1-2.3 1.3-6.2 5.3-8.8 3.9-2.6 8-3 9.1-.7l2.3 4.8c1 2.2-1.4 6.2-5.3 8.8-4 2.6-8.1 2.9-9.1.7m-73.5-59.7 2.3-4.8c1-2.2 5.6-2.9 10.1-1.5 4.6 1.3 7.4 4.3 6.4 6.5l-2.3 4.9c-1 2.2-5.6 2.9-10.1 1.5-4.6-1.4-7.4-4.3-6.4-6.6m-41.9 30.5-.6 5.6c-.1.9-1 1.5-2 1.4l-4.7-.7c-1-.1-1.7-.9-1.6-1.8l.6-5.6c.1-.9 1-1.5 2-1.4l4.7.7c1 .1 1.7.9 1.6 1.8m58.7 66.7-.6 5.7c-.1.9-1 1.4-2 1.3l-4.7-.6c-1-.2-1.7-1-1.6-1.9l.6-5.6c.1-.9 1-1.5 2-1.3l4.7.6c1 .2 1.7 1 1.6 1.8m21.3-67.5-.6 5.7c-.1.8-1 1.4-2 1.3l-4.7-.7c-1-.1-1.7-.9-1.6-1.8l.6-5.6c.1-.9 1-1.5 2-1.3l4.7.6c1 .1 1.7 1 1.6 1.8m-29.3 18.8-7.1 6c-1.2.9-2.9.8-4-.3l-5.3-5.1c-1.1-1-1.1-2.6 0-3.5l7.1-6c1.1-.9 2.9-.8 4 .2l5.3 5.2c1.1 1 1.1 2.6 0 3.5m32.2 23.2-7.2 6c-1.1.9-2.9.8-3.9-.3l-5.3-5.1c-1.1-1-1.1-2.6 0-3.6l7.1-5.9c1.1-.9 2.9-.8 4 .2l5.3 5.1c1.1 1.1 1.1 2.7 0 3.6m-56.8-15.7-9.1 4c-1.4.6-2.7-.4-3-2.2l-.4-3c-.2-1.9.8-3.9 2.2-4.5l9.1-3.9c1.5-.6 2.8.3 3 2.2l.4 3c.2 1.8-.7 3.8-2.2 4.4m-56.4 16 8.4-4.6c1.3-.7 2.8-.1 3.2 1.2l1.8 5.1c.5 1.4-.2 3.1-1.5 3.8l-8.4 4.5c-1.2.7-2.7.2-3.2-1.2l-1.8-5.1c-.5-1.4.2-3 1.5-3.7m9.8 63.1 7.8-2c1.2-.3 2.7.2 3.4 1.3l2.1 3.2c.7 1 .2 2.1-1 2.4l-7.8 2c-1.2.3-2.7-.2-3.4-1.3l-2.1-3.2c-.7-1-.2-2.1 1-2.4m108.5-54.8 3.9-3.5 2-.1 2.4 2.5-.2 1.9-3.9 3.6-2 .1-2.4-2.5zm-84.9 25.9 7.5-4.6c1.2-.8 2.8-.5 3.7.6l4.4 5.3c.9 1.1.7 2.5-.5 3.2l-7.5 4.6c-1.1.8-2.8.5-3.7-.6l-4.4-5.3c-.9-1.1-.6-2.5.5-3.2m79.4 8.7 4.6-2.9c.7-.5 1.4-.1 1.5.9l.2 1.5c.1 1-.4 2.1-1.1 2.5l-4.6 2.9c-.7.5-1.4.1-1.5-.9l-.2-1.5c-.1-1 .4-2.1 1.1-2.5m-123.1 230.4 8.9 1.4c1.4.3 2.4 1.4 2.2 2.6l-1.6 10.2c-.2 1.2-1.4 2-2.8 1.8l-9-1.4c-1.4-.2-2.4-1.4-2.2-2.6l1.6-10.2c.2-1.2 1.5-2 2.9-1.8m-13.7-19.6-4.6 2.7c-2.1 1.2-6.3-.8-9.2-4.5-3-3.7-3.7-7.8-1.6-9l4.6-2.7c2.2-1.3 6.3.7 9.3 4.5 2.9 3.7 3.6 7.7 1.5 9m-144.5 41.9-5.1-1.8c-2.3-.8-3.4-5.3-2.4-10 1-4.6 3.6-7.7 5.9-6.9l5.1 1.8c2.3.9 3.4 5.3 2.4 10s-3.6 7.8-5.9 6.9m34.1 39 5.7.1c.8 0 1.5.9 1.5 1.8l-.3 4.8c0 1-.8 1.8-1.6 1.8l-5.7-.1c-.9 0-1.6-.8-1.5-1.8l.2-4.8c.1-1 .8-1.8 1.7-1.8m61.2-64.4 5.6.1c.9 0 1.6.8 1.5 1.8l-.2 4.8c0 1-.8 1.7-1.7 1.7l-5.6-.1c-.9 0-1.6-.8-1.5-1.8l.2-4.8c0-1 .8-1.8 1.7-1.7m-69.2-15.2 5.7.1c.9 0 1.5.9 1.5 1.8l-.2 4.8c-.1 1-.8 1.8-1.7 1.8l-5.7-.1c-.9 0-1.5-.9-1.5-1.8l.2-4.8c.1-1 .8-1.8 1.7-1.8m21.4 27.5 6.5 6.6c1.1 1 1.1 2.8.2 4l-4.6 5.7c-1 1.2-2.6 1.3-3.6.3l-6.6-6.6c-1-1-1.1-2.8-.1-3.9l4.6-5.8c1-1.2 2.6-1.3 3.6-.3m20.2-34.1 6.5 6.6c1.1 1 1.1 2.8.2 3.9l-4.6 5.8c-1 1.2-2.6 1.3-3.6.3l-6.6-6.6c-1-1-1.1-2.8-.1-4l4.6-5.7c.9-1.2 2.5-1.3 3.6-.3m-10.6 57.9 4.8 8.7c.8 1.4-.1 2.8-1.9 3.2l-3 .6c-1.8.4-3.9-.3-4.6-1.7l-4.8-8.7c-.7-1.4.2-2.8 2-3.2l2.9-.7c1.8-.4 3.9.4 4.6 1.8m21 54.8-5.3-8c-.8-1.2-.4-2.7.9-3.3l5-2.3c1.3-.6 3-.1 3.8 1.2l5.3 7.9c.8 1.3.4 2.7-.9 3.3l-4.9 2.3c-1.4.6-3.1.1-3.9-1.1m127.2 2.4-11.6-3.1c-1.8-.5-3.1-2.2-2.8-3.8l2.1-12.2c.3-1.7 2-2.6 3.8-2.2l11.6 3.1c1.8.5 3 2.2 2.8 3.9l-2.2 12.2c-.2 1.6-1.9 2.5-3.7 2.1m-65.2-17.9-2.7-7.6c-.4-1.1 0-2.7 1-3.4l3-2.4c1-.8 2.1-.5 2.5.7l2.7 7.6c.4 1.2 0 2.8-1 3.5l-3 2.4c-1 .8-2.1.4-2.5-.8m-64.3-103.1-3.9-3.6-.3-1.9 2.3-2.7 1.9.1 3.9 3.5.3 2-2.3 2.6zm33.4 82.2-5.3-7c-.8-1.1-.7-2.8.3-3.8l4.9-4.8c.9-1 2.4-.9 3.2.2l5.3 7c.8 1.1.7 2.8-.3 3.8l-4.9 4.8c-.9 1-2.4.9-3.2-.2m1.5-79.8-3.3-4.3c-.5-.7-.2-1.4.8-1.6l1.5-.3c.9-.2 2.1.2 2.6.8l3.3 4.3c.5.7.1 1.4-.8 1.6l-1.5.3c-.9.2-2.1-.2-2.6-.8m-926.1 368.8-5.3 1.3c-.8.2-1.3-.4-1.1-1.3l.3-1.5c.2-.9 1-1.9 1.8-2.1l5.3-1.3c.8-.2 1.3.4 1.1 1.3l-.3 1.6c-.2.9-1 1.8-1.8 2m806.9-613.7 10.8 6.7c1.7 1 2.6 3.4 2 5.3l-2.1 7.1c-.6 1.9-2.4 2.6-4.1 1.6l-10.8-6.7c-1.6-1.1-2.5-3.4-2-5.3l2.2-7.2c.5-1.9 2.4-2.6 4-1.5m76.8 30.1 5.2-2c.9-.3 1.8.2 2.1 1.1l1.6 4.5c.3 1-.1 2-.9 2.3l-5.2 2c-.9.3-1.8-.2-2.1-1.1l-1.6-4.5c-.4-.9 0-1.9.9-2.3m-65.7 77.5-2.7-5 .9-2.2 4.3-2.2 2.3.6 2.7 5-.8 2.2-4.3 2.2zm88.2-62.2.2 6.4c0 1-.7 1.8-1.6 1.8l-4.4-.1c-.9 0-1.6-.8-1.7-1.8l-.2-6.5c0-1 .7-1.8 1.6-1.7h4.4c.9 0 1.6.9 1.7 1.9m-66.6 54 6.4-1c1-.2 1.8.4 2 1.3l.4 4.3c.2.9-.6 1.8-1.6 1.9l-6.3 1.1c-1 .2-1.9-.4-2-1.3l-.5-4.4c-.1-.9.6-1.7 1.6-1.9m26.4-18.2 6.3-1c1-.2 1.9.4 2 1.3l.5 4.3c.1.9-.6 1.8-1.6 1.9l-6.4 1.1c-1 .2-1.8-.4-1.9-1.3l-.5-4.4c-.1-.9.6-1.7 1.6-1.9m23.7-82.9 8.5 3.6c1.4.6 2.1 2.2 1.7 3.6l-2.1 7c-.5 1.5-1.9 2.2-3.2 1.7l-8.5-3.6c-1.3-.6-2.1-2.2-1.6-3.6l2.1-7.1c.4-1.4 1.8-2.1 3.1-1.6m-38.6-21.5 7.7 6.4c1.2 1 1 2.7-.6 3.8l-2.5 1.7c-1.5 1.1-3.7 1.1-4.9.1l-7.7-6.5c-1.3-1-1-2.6.5-3.7l2.5-1.7c1.5-1.1 3.7-1.1 5-.1m-74.9 22 8.5 5.3c1.3.8 1.2 2.4-.1 3.7l-2.3 2c-1.4 1.2-3.5 1.6-4.9.8l-8.4-5.3c-1.3-.8-1.3-2.4.1-3.7l2.2-2c1.4-1.2 3.6-1.6 4.9-.8m74.7 54.5-11.5 2.1c-1.8.3-3.9-.7-4.7-2.3l-3-6c-.8-1.6 0-3.1 1.8-3.4l11.6-2.1c1.7-.4 3.8.6 4.6 2.2l3.1 6c.8 1.6-.1 3.2-1.9 3.5m-31.7 18.9 1.8 4.9-1.1 1.9-4.2 1.6-2.1-.8-1.9-4.9 1.1-1.9 4.3-1.6zm-26.1 7.5-6 .3c-.9.1-1.7-.6-1.7-1.4l.2-4.1c0-.8.8-1.5 1.7-1.6l6.1-.3c.9-.1 1.6.6 1.6 1.4l-.1 4.1c0 .8-.8 1.5-1.8 1.6m-20.2-25.9-5.3 1.3c-.8.2-1.3-.4-1.1-1.3l.3-1.6c.2-.9 1-1.8 1.8-2l5.3-1.3c.8-.2 1.3.4 1.1 1.3l-.3 1.5c-.2 1-1 1.9-1.8 2.1m-379.6 400 3.2-4.4 1.7.3.8 1.3-.1 2.8-3.2 4.3-1.7-.2-.8-1.4zm798.5-499.2 5.3 2.1c.8.3 1.2 1.3.8 2.2l-1.9 4.4c-.4.9-1.4 1.4-2.2 1.1l-5.2-2.1c-.9-.3-1.2-1.3-.8-2.2l1.9-4.4c.3-.9 1.3-1.4 2.1-1.1m-1.6 34.5-4.2 4.9-2.4.2-3.2-3v-2.5l4.2-4.9 2.4-.3 3.2 3.1zm35.1-34.5 1.4 10c.2 1.5-1.2 2.6-3 2.4l-3-.4c-1.8-.3-3.5-1.7-3.7-3.3l-1.3-10c-.3-1.6 1.1-2.6 2.9-2.4l3 .4c1.9.2 3.5 1.7 3.7 3.3m10.8 40.3-2.4.9c-1.2.5-3-.9-4.1-2.9-1.2-2-1.2-4-.1-4.4l2.5-1c1.1-.4 2.9.9 4.1 2.9 1.1 2 1.1 4 0 4.5m18-24.4-5 1.7-1.8-.7-1.2-3.3 1-1.7 5-1.7 1.8.8 1.2 3.3zm-98.7 41.1 3.2-4.4 1.7.3.7 1.3-.1 2.8-3.1 4.3-1.8-.2-.7-1.4z" style="fill:#fff;fill-opacity:1;fill-rule:nonzero;stroke:none" transform="matrix(.01819 0 0 -.01819 -229.285 425.8)"/><path d="M18370.1 15034.7v-.1zm20.4-17.8c-9.5 0-17.8 6.5-20 15.8-.8 1.9-7.4 14.7-38 34.5-47.6 30.9-83.6 89.7-85.1 92.2-5.9 9.7-2.8 22.3 6.9 28.2s22.4 2.8 28.3-6.9c.3-.5 32.7-53.3 72.3-79 47.1-30.5 54.8-53.1 56-61.4 1.5-11.2-6.3-21.6-17.6-23.2-.9-.1-1.9-.2-2.8-.2" style="fill:#231f20;fill-opacity:1;fill-rule:nonzero;stroke:none" transform="matrix(.01819 0 0 -.01819 -229.285 425.8)"/></svg>