<svg xmlns="http://www.w3.org/2000/svg" xml:space="preserve" width="200mm" height="200mm" viewBox="0 0 200 200"><g style="display:inline"><path d="M18206.5 27868.5q4.2 2.7 20.7 2.7c12.5 0 31-.6 55.5-1.6 19.9-.7 31.9-1.4 35.8-1.9 4-.5 7.3-2.2 9.8-5q5.4-4.95 5.4-11.7c0-4.4-1.9-8.5-5.8-12-2.8-2.6-6.4-3.9-10.7-3.9-3.6 0-6.5.2-8.8.4-3.8.3-19.4 1-46.7 2.3l-33 1.6.8-58.6q.75-58.65 1.5-59.4h1.2c2.5 0 8.1.6 16.8 1.9 11.8 1.5 22.7 2.3 33 2.3h4.9c10.2-.3 16.6-.7 19.2-1.3 2.5-.7 5.1-2.4 7.7-5.2 3-3.8 4.5-7.5 4.5-10.9 0-3.5-1.5-6.7-4.5-9.8-2.6-2.6-5.2-4-7.9-4.4s-10-.7-22-1c-16.9 0-30-.9-39.5-2.6l-14.5-2.3-.4-52.1v-15.7c0-24.6.5-37.8 1.5-39.9 1.3-1.5 8.2-2.3 20.7-2.3h23.4c6.9.3 15 .4 24.5.4 11.7 0 19.3-1.4 22.6-4.2 3.3-3.6 5-7.7 5-12.5 0-4.7-1.4-8.2-4.3-10.5-3.5-3-9-5.1-16.4-6.1s-21.1-1.7-41-1.9h-17.2c-10.8 0-17.9.2-21.5.7s-7.9 1.7-12.8 3.5c-5 1.8-9.2 5.3-12.5 10.7-3.8 6.1-6.1 14.8-6.9 26l.8 128.4c.2 74.3.8 117.9 1.7 130.8s3.9 21.1 9 24.7z" style="display:inline;fill:#211d1d;fill-opacity:1;fill-rule:nonzero;stroke:none" transform="matrix(.01956 0 0 -.01956 -253.484 654.102)"/><path d="M18471.2 27869.2c8.1.6 17 1 26.6 1.4s17.1.7 22.6.9c5.5.3 8.7.4 9.8.4h1.1c3.6 0 7.2-.9 10.7-2.7 3.6-1.8 5.9-3.7 6.9-5.8q1.2-2.7 1.2-7.8c0-4.3-.8-7.6-2.3-9.6-2.3-3.1-5.6-5.2-9.8-6.2-4.2-1.1-11.4-1.6-21.6-1.6-15.3 0-26.6-.4-33.7-1.1l-13.1-1.2.8-74.3v-24.9c0-18.1-.2-33.6-.6-46.3-.4-12.8-1-30.3-1.9-52.5s-1.6-39.1-2.1-50.6q-1.2-24.9-2.1-31.2c-.6-4.2-2.1-7.5-4.4-9.8-3.3-3.3-7.3-5-11.9-5s-8.3 1.5-11.1 4.3c-2 2-3.3 4.3-3.8 6.9-.5 2.5-.8 8.8-.8 18.7 0 15.6.9 40.4 2.7 74.3 2.8 37.8 4.2 87.2 4.2 148.3 0 22.7-.4 35.2-1.1 37.5l-1.9 5.4-16.1-1.6c-9-1-17.8-1.5-26.5-1.5q-20.25 0-26.4 4.2c-3.8 2.9-5.7 6.9-5.7 12.1 0 3.8 1.2 6.9 3.8 9.3 2.3 2 9.4 3.6 21.2 4.8 11.9 1.2 40.3 2.9 85.3 5.2m222.9 0c8.2.6 17 1 26.6 1.4s17.1.7 22.6.9c5.5.3 8.8.4 9.8.4h1.1q5.4 0 10.8-2.7c3.5-1.8 5.8-3.7 6.9-5.8.7-1.8 1.1-4.4 1.1-7.8 0-4.3-.8-7.6-2.3-9.6-2.3-3.1-5.5-5.2-9.8-6.2-4.2-1.1-11.4-1.6-21.6-1.6-15.3 0-26.6-.4-33.7-1.1l-13-1.2.7-74.3v-24.9c0-18.1-.2-33.6-.5-46.3-.4-12.8-1.1-30.3-2-52.5s-1.6-39.1-2.1-50.6q-1.05-24.9-2.1-31.2c-.6-4.2-2.1-7.5-4.4-9.8-3.3-3.3-7.3-5-11.8-5-4.6 0-8.4 1.5-11.2 4.3-2 2-3.3 4.3-3.8 6.9-.5 2.5-.8 8.8-.8 18.7 0 15.6.9 40.4 2.7 74.3 2.8 37.8 4.2 87.2 4.2 148.3 0 22.7-.3 35.2-1.1 37.5l-1.9 5.4-16.1-1.6q-13.5-1.5-26.4-1.5c-13.6 0-22.4 1.4-26.5 4.2-3.8 2.9-5.7 6.9-5.7 12.1 0 3.8 1.3 6.9 3.8 9.3q3.45 3 21.3 4.8c11.9 1.2 40.3 2.9 85.2 5.2m232.9-44.4c-3.3 2-11.6 3.5-24.9 4.2-1.5 0-3.4.1-5.8.2-2.3.1-3.8.2-4.5.2-6.4 0-13.5-1.9-21.1-5.7-19.7-9.7-35-35.6-46-77.7-2.8-10.7-4.5-19-5.2-24.8-.6-5.9-1-16.7-1.3-32.5q0-29.1 2.7-43.8c1.8-9.9 5.5-20 11.1-30.4 5.9-11.5 13.5-20.4 23-26.6 9.4-6.3 19.6-9.4 30.6-9.4 9.2 0 17.9 2 26.1 6.1 17.1 8.4 31.5 21.4 43.3 39 8.9 13.5 15.2 27.7 18.9 42.5s5.6 33.5 5.6 56.2v12.2c0 11.5-2 22.4-5.8 32.6-9.9 24.4-25.5 43.7-46.7 57.7m-46.7 34.5c3.3.7 12.8 1.4 28.7 1.9h6.1c8.2 0 16.4-2.1 24.5-6.1 7.9-3.9 18-11.9 30.3-24.2 8.2-7.9 13.8-14 17-18.4 3.2-4.3 7-11.1 11.3-20.3 6.2-13 10.1-23.3 11.9-31 1.8-7.6 2.7-18.6 2.7-32.9v-8.1c-.5-29.8-4.1-54.9-10.7-75-6.7-20.2-18-39.9-34.1-59-8.2-10-18.8-18.9-31.8-26.8-13-8-24.8-12.5-35.3-13.8-5.1-.5-9-.8-11.8-.8-26.8 0-49.2 8.9-67.1 26.8-5.6 5.6-11.7 14.4-18.3 26.3-6.7 11.8-11.3 22.6-13.8 32.3-2.8 10.5-4.3 28-4.3 52.5 0 13.8.6 24.4 1.6 31.8 1.2 8.2 2.3 17.5 3 27.9.6 5.1 2.9 14 6.9 26.5 4.1 12.5 8.2 22.6 12.3 30.2 3.8 7.7 8.7 15.6 14.6 23.8 5.8 8.2 10.8 14 14.9 17.6 4.3 3.8 10.7 7.6 19.1 11.3 8.5 3.7 15.9 6.2 22.3 7.5" style="fill:#211d1d;fill-opacity:1;fill-rule:nonzero;stroke:none" transform="matrix(.01956 0 0 -.01956 -253.484 654.102)"/><path d="M18680.5 30556.3c0 460.7 27.8 784.4 23.1 1254.2-5.6 548-34.1 349.6-603.1 348.8-122.5-.2-222 8.1-302.7 16.5-305.1 31.4-341 62.9-333-364.6 8.5-456.6 43.4-836.5-15.8-1259.5-96.6-690-1005.6-351.5-1381.5-788.2-288.8-335.5 30-2061.3 46.5-2980.9 16-891.4-334.7-2241.7-139.8-2830.1 110.7-334.3 498.3-280.9 1177-227.5 271.3 21.4 589.3 42.8 954.6 39.3 1105.3-10.3 1902-238.1 2024.8 216.1 185.9 688-87.9 1657.1-102.3 2542.3-16.4 1005 334.1 2637.8 166.2 3078.1-175.5 460.2-1514 312.7-1514 955.5" style="fill:#ecf9f7;fill-opacity:1;fill-rule:nonzero;stroke:none" transform="matrix(.01956 0 0 -.01956 -253.484 654.102)"/><path d="M20240.1 26503.3c14.4-885.2 76.4-1834.9-109.5-2522.9-28.6-105.8-93.9-174.7-191.2-217.8-320-142-986-6.3-1833.6 1.8-365.2 3.4-683-18-954.3-39.3-470.1-37-800.6-74.1-996.2 17.8-86.9 40.7-147.1 106.8-181.2 209.6-194.8 588.4-43 1914.3-59.1 2805.7-16.4 919.5-136.3 2669.8 152.6 3005.4 375.8 436.6 1284.8 98.1 1381.3 788.1 1.1 7.8 2 15.9 3 23.7 182.7-79.2 319.7-113.8 655.3-116.6 348.7-3 365.9 12.7 574.5 63 42.7-603 1340.5-469.1 1512.7-921 168-440.3 29.2-2092.5 45.7-3097.5" style="fill:#973b1d;fill-opacity:1;fill-rule:nonzero;stroke:none" transform="matrix(.01956 0 0 -.01956 -253.484 654.102)"/><path d="M16515.2 23685.4c-149.3 0-269.1 14.9-359.9 57.5l30.5 55.4c132.5 240.5 396.3 391.4 683.8 391.4h2364.5c278.5 0 535.4-141.6 671.8-370.8l33.5-56.3c-108.8-48.3-257.6-64.5-440-64.5-353.9 0-834.2 60.9-1393.6 66.3-26.1.2-52 .4-77.6.4-332.9 0-624.8-19.9-876.7-39.7-251.9-19.9-463.8-39.7-636.3-39.7" style="fill:#562f15;fill-opacity:1;fill-rule:nonzero;stroke:none" transform="matrix(.01956 0 0 -.01956 -253.484 654.102)"/><path d="M19273.4 24503.9c-392.9 0-908.6 22.2-1151.6 37.6-50.7 3.3-65.4 70.3-21.1 95 84.7 47.3 225.1 96.8 442 96.8 45.5 0 94.5-2.2 147-7 .6-.1 1.2-.1 1.8-.1 1.8 0 3.6.2 5.4.2 302.7 6.9 585.3 282.9 595.7 585.5 56.7 1654.2 157.2 3471.6 3.7 3784.7-232.4 474.2-615.5 588-615.5 588s32.3 2 85.7 2c205.8 0 725.1-28.9 918.5-308.8 375.8-544 243.9-722 243.1-2297.5-.9-1976.2 63-1454.2-145-2530.6-6.5-34.2-226.1-45.8-509.7-45.8m-2498.1 45.7c-152.6.1-303.8 27-374.1 72.5-237.1 153.4-144 91.9-145.6 2068.1-1.3 1575.5-90.3 2461.8 192.9 2715.5 311 278.4 1168.9 309.3 1534.4 309.3 55.3 0 99.3-.7 128.5-1.3-5.6 0-11.6.1-18.2.1-189.1 0-793-32.5-1122.6-429-313.1-376.7 258.4-4355.9 234.8-4565.1-13.6-120.4-223.2-170.1-430.1-170.1m1376.1 5162.9s-14.2.6-40 1.2c25.7-.3 40-1.2 40-1.2" style="fill:#be821d;fill-opacity:1;fill-rule:nonzero;stroke:none" transform="matrix(.01956 0 0 -.01956 -253.484 654.102)"/><path d="M17609.6 32171.7c-37.8 0-64.7-5.7-82.2-21.6-40.2-36.8-45.7-142.9-42-338.5 1.9-106 5.3-208.2 8.6-307 10.8-323.6 21-629.3-24.6-955.7-57.6-411-400.4-471.6-731.9-530.2-245.4-43.3-499.1-88.2-654.4-268.6-233.3-271.1-192.6-1529.2-162.8-2447.8 6.4-197.3 12.4-383.6 15.3-543.7 5.2-287.6-6.8-613.5-19.6-958.4-26.2-710.8-53.3-1445.9 77.7-1841.2 99-298.8 431.8-271.9 1035.9-223.1 291.8 23.6 654.9 53 1076.5 49 301.9-2.8 581.9-21.9 829-38.8 656.8-44.8 1090.7-74.4 1175.6 239.7 155.5 575.1 136.5 1344.6 118.2 2088.8-3.5 141-7 286.7-9.4 428.3-5.5 336.5 6.6 753.3 18.3 1156.3 23.5 808.7 47.8 1645-62.5 1934.3-74.4 194.9-373.6 276.9-690.3 363.8-405.6 111.3-825.1 226.3-825.1 599 0 266.2-4.6 483.1-9.5 712.8-3.5 165.8-7.1 337.4-9.1 535.5l-.3 31.3c-1.9 195.5-2.9 293.6-36 322.6-23.9 20.9-76.7 14.4-164.2 3.7-80.3-9.8-190.2-23.3-340.3-23.5h-3.6c-150 0-267.7 12.8-353.9 22.2-54.5 6-98.6 10.8-133.4 10.8m-1091.5-8506.6c-300.5 0-489.9 59-563.4 281-133.3 402.3-106.1 1141.1-79.8 1855.6 12.7 344.4 24.7 669.6 19.6 956.2-2.9 159.8-8.9 346-15.3 543.1-31.7 976.9-71.1 2192.7 172.7 2475.9 164.9 191.6 426 237.7 678.4 282.3 331.7 58.6 644.9 114 698.3 495.4 45.2 322.9 35.1 626.8 24.3 948.6-3.3 99-6.7 201.4-8.7 307.6-4 216.9 3 321.7 55.4 369.6 47.4 43.3 122.8 35.1 247.8 21.4 90-9.8 201.8-22 349.4-22 1.2 0 2.4 0 3.6.1 147.7.2 256.2 13.4 335.4 23.1 102.3 12.6 158.6 19.5 196.3-13.6 47-41.1 47.9-132.4 50-353.1l.3-31.2c2-198 5.6-369.4 9.2-535.2 4.8-229.8 9.4-446.9 9.4-713.6 0-341.3 404.1-452.1 794.9-559.3 327.1-89.7 636.1-174.5 717.8-388.9 113.2-296.9 88.8-1137.3 65.3-1950-11.7-402.7-23.8-819-18.3-1154.5 2.3-141.4 5.9-287.1 9.3-427.9 18.4-747.2 37.4-1519.7-119.6-2100.7-93.7-346.6-541-316.1-1218.1-269.9-246.5 16.8-525.9 35.8-826.6 38.7-419.7 4-781.9-25.4-1072.8-48.9-197.3-15.9-369.1-29.8-514.8-29.8" style="fill:#231f20;fill-opacity:1;fill-rule:nonzero;stroke:none" transform="matrix(.01956 0 0 -.01956 -253.484 654.102)"/><path d="M18701.9 31578.4v-707.9s-161.1-108.6-588.7-105.1c-112.8.9-211.9 11.8-296.6 27.1-120.8 22-212.4 53.2-272.7 78.3-56.8 23.6-86 41.7-86 41.7l3.5 721.9 82.5-3.8 272.7-12.2z" style="fill:#331a15;fill-opacity:1;fill-rule:nonzero;stroke:none" transform="matrix(.01956 0 0 -.01956 -253.484 654.102)"/><path d="M17478.5 30924.4c12.6-6.9 37.3-19.6 73.3-34.6 54.8-22.8 145.9-54.8 268.5-77.1 93.7-16.9 192.3-25.9 293.1-26.7 359.6-2.8 528.7 75 568 96.3v676.4l-1199.5 54.2zm655-179.7c-6.7 0-13.5.1-20.5.1-103 .9-204 10.1-300.1 27.5-126.2 22.9-220.2 55.9-276.9 79.5-57.7 24-87.7 42.5-88.9 43.3l-9.8 6v11.5l3.6 743.3 1281.6-57.8v-738.6l-9.1-6.1c-6.7-4.5-166.2-108.7-579.9-108.7" style="fill:#231f20;fill-opacity:1;fill-rule:nonzero;stroke:none" transform="matrix(.01956 0 0 -.01956 -253.484 654.102)"/><path d="M17886.7 31603.8v-825.9c-120.7 22-212.4 53.2-272.7 78.3v759.8z" style="fill:#7a6560;fill-opacity:1;fill-rule:nonzero;stroke:none" transform="matrix(.01956 0 0 -.01956 -253.484 654.102)"/><path d="M17478.6 30924.5c47.8-26.2 269.6-135.6 634.8-138.5 6.6-.1 13.3-.1 19.7-.1 346.1 0 509.7 75.6 548.3 96.4v676.4l-1199.5 54.2zm654.9-179.8c-6.7 0-13.5.1-20.4.1-425.3 3.5-656.4 144.3-666 150.3l-9.8 6.1 3.7 754.8 1281.5-58v-738.4l-9-6.1c-6.7-4.6-166.3-108.8-580-108.8" style="fill:#231f20;fill-opacity:1;fill-rule:nonzero;stroke:none" transform="matrix(.01956 0 0 -.01956 -253.484 654.102)"/><path d="m19143.4 31899.2-.9-222.8c0-125.7-112.7-235.5-275.6-270.1-406.1-86.2-818.1-100.5-1235.4-47.6-103 12.9-206.1 30-309.8 51.1-29.5 5.9-57.2 14.4-83.1 25-119 48.4-196.8 141.7-196.8 245.8l4.9 214.5c0 33.1 8.4 65.9 24.3 96.8l-5.4 110.3-5.2 13c-6.2 16.5-9.6 33.5-10 50.6l-8.6 406.2h2100.7v-429.4c0-31.2-9.2-62-27.1-90.1l-1.3-70.6 1.5-1.9c18.4-24.8 27.8-52.7 27.8-80.8" style="fill:#c03222;fill-opacity:1;fill-rule:nonzero;stroke:none" transform="matrix(.01956 0 0 -.01956 -253.484 654.102)"/><path d="M17631.5 31358.7c-103 12.9-206.1 30-309.8 51.1-29.5 5.9-57.2 14.4-83.1 25l-42.5 1019.1 87.9 118.1 5.9 7.9 56.9-7.9 251.4-35.2z" style="fill:#d66b4f;fill-opacity:1;fill-rule:nonzero;stroke:none" transform="matrix(.01956 0 0 -.01956 -253.484 654.102)"/><path d="M18106.6 31905.7c-513.1 0-942.5 80.5-1034.3 183.6-1.8-24.5-.9-73.6 5.3-98.4 98-101.5 516-174 1023.6-174 516.2 0 929.9 62.2 1014.7 162.5 2.2 18.4-1.9 50.3-2.8 80.7-136-89.7-538-154.4-1006.5-154.4" style="fill:#331a15;fill-opacity:1;fill-rule:nonzero;stroke:none" transform="matrix(.01956 0 0 -.01956 -253.484 654.102)"/><path d="M17096.4 32001.3c101.3-95.2 520.7-163.8 1004.8-163.8 510.1 0 906.7 60.2 994.7 150.5.3 9.8-.6 23.4-1.5 37.6-164.6-84.7-551.3-140.4-987.8-140.4-463.3 0-870 66.1-1014.3 161 .5-16.4 1.8-33 4.1-44.9m1004.8-205c-517 0-934.3 72.5-1038.4 180.3l-3.8 4-1.3 5.3c-6.9 27.2-7.9 78.4-5.9 104.9l3.5 48.5 32.3-36.3c76.4-85.7 459.4-176.7 1019-176.7 451.2 0 860.4 62.1 995.1 151l30.8 20.3 1.1-36.8c.4-10.7 1.1-21.6 1.8-32 1.4-20.4 2.5-38.1 1-51.7l-.7-6.2-4.1-4.8c-87.2-103.1-491.7-169.8-1030.4-169.8" style="fill:#231f20;fill-opacity:1;fill-rule:nonzero;stroke:none" transform="matrix(.01956 0 0 -.01956 -253.484 654.102)"/><path d="M18204.8 31647.7c-14.9 0-29.9 0-44.8.2-460.8 4.3-939.5 78.3-1113.6 172.1l19.6 36.2c168.9-91 639.4-162.9 1094.3-167.2 490.6-4.6 898.5 67.4 971.7 137.5l28.4-29.7c-88.7-85.1-503.5-149.1-955.6-149.1" style="fill:#231f20;fill-opacity:1;fill-rule:nonzero;stroke:none" transform="matrix(.01956 0 0 -.01956 -253.484 654.102)"/><path d="m17062.9 32551.4 8.1-385.2c.2-14.7 3.1-29.3 8.7-43.5l6.3-16.1 5.7-119.2-2.5-4.9c-14.5-28.1-21.9-57.6-22.1-87.5l-4.6-214.8c0-115.6 108.3-218.7 263.3-250.3 526-107 1043-108.2 1536.8-3.4 152.8 32.4 259.5 135.2 259.5 249.9l.8 222.8c0 23.7-8.2 47.4-23.9 68.5l-5.7 7.6 1.6 83.4 3.1 4.9c16 25 24.1 51.6 24.1 79v408.8zm1051.7-1243.8c-262.1 0-528.4 27.3-797 82-174.4 35.6-296.3 155.2-296.3 291l4.7 215c.2 34.3 8.3 68.3 24.1 100.7l-4.9 101.6-3.9 9.9c-7.3 18.7-11.1 38.1-11.4 57.7l-9 427h2142.3v-449.9c0-33-9.4-66.1-27.4-96.1l-1.1-58c19.2-27.4 29.4-58.2 29.3-89.4l-.8-222.8c0-134.2-120.1-253.6-292-290-247.1-52.5-499.9-78.7-756.6-78.7" style="fill:#231f20;fill-opacity:1;fill-rule:nonzero;stroke:none" transform="matrix(.01956 0 0 -.01956 -253.484 654.102)"/><path d="M19142.6 32577.2c0-123-470.2-222.7-1050.3-222.7s-1050.4 99.7-1050.4 222.7 470.3 222.7 1050.4 222.7 1050.3-99.7 1050.3-222.7" style="fill:#d46449;fill-opacity:1;fill-rule:nonzero;stroke:none" transform="matrix(.01956 0 0 -.01956 -253.484 654.102)"/><path d="M18092.3 32779.4c-279.2 0-541.5-23.1-738.5-64.8-214.8-45.6-291.3-100.8-291.3-137.4 0-36.5 76.5-91.8 291.3-137.3 197-41.8 459.3-64.8 738.5-64.8 279.1 0 541.4 23 738.4 64.8 214.8 45.5 291.4 100.8 291.4 137.3 0 36.6-76.6 91.8-291.4 137.4-197 41.7-459.3 64.8-738.4 64.8m0-445.4c-519.2 0-1071 85.2-1071 243.2s551.8 243.3 1071 243.3c519.1 0 1070.9-85.3 1070.9-243.3s-551.8-243.2-1070.9-243.2" style="fill:#231f20;fill-opacity:1;fill-rule:nonzero;stroke:none" transform="matrix(.01956 0 0 -.01956 -253.484 654.102)"/><path d="M18874.3 25571.9H17250c-257.6 0-466.4 208.9-466.4 466.5V28102c0 257.6 208.8 466.4 466.4 466.4h1624.3c257.6 0 466.5-208.8 466.5-466.4v-2063.6c0-257.6-208.9-466.5-466.5-466.5" style="fill:#fcd3af;fill-opacity:1;fill-rule:nonzero;stroke:none" transform="matrix(.01956 0 0 -.01956 -253.484 654.102)"/><path d="M17250 28547.8c-245.8 0-445.8-200-445.8-445.8v-2063.6c0-245.9 200-445.9 445.8-445.9h1624.4c245.8 0 445.8 200 445.8 445.9V28102c0 245.8-200 445.8-445.8 445.8zm1624.4-2996.4H17250c-268.5 0-487 218.4-487 487V28102c0 268.5 218.5 486.9 487 486.9h1624.4c268.5 0 486.9-218.4 486.9-486.9v-2063.6c0-268.6-218.4-487-486.9-487" style="fill:#231f20;fill-opacity:1;fill-rule:nonzero;stroke:none" transform="matrix(.01956 0 0 -.01956 -253.484 654.102)"/><path d="M18735.4 25789.7h-1346.5c-231.7 0-419.5 187.8-419.5 419.5v1721.9c0 231.7 187.8 419.5 419.5 419.5h1346.5c231.7 0 419.5-187.8 419.5-419.5v-1721.9c0-231.7-187.8-419.5-419.5-419.5" style="fill:#c03222;fill-opacity:1;fill-rule:nonzero;stroke:none" transform="matrix(.01956 0 0 -.01956 -253.484 654.102)"/><path d="M18254.4 26786.3c-5-19.4 6.5-48.2 28-70 28.3-28.8 71.3-47.9 109.8-62.8 83.6-32.4 170.8-55.3 259.6-68-46.5 115.9-98.8 192.4-164.1 240.1-56.9 41.5-135.8 66.9-183.7 58.9-18.3-3-26.6-9.9-31.5-16.1-3.8-9.7-8.5-34.7-11.1-48.5-2.3-12.1-4.5-23.5-7-33.6m428.7-366.4c-15.1 0-27.6 1.6-35.2 2.6-107.5 13.8-213.3 40.7-314.4 79.9-54.4 21.2-116.9 49.6-166.6 100.2-62.1 63.1-88.7 148.9-69.5 223.8v.1c1.2 5 3 14.4 4.7 23.4 8.4 44.7 16.4 81.1 36.2 109.4 32 45.8 80.2 75.3 139.2 85.1 111.5 18.6 234.4-35.8 305.8-88 123.1-89.9 187-228.3 224.4-324.6 26.9-69.2 22-125.4-14.6-167-33-37.4-77.5-44.9-110-44.9" style="fill:#fcd3af;fill-opacity:1;fill-rule:nonzero;stroke:none" transform="matrix(.01956 0 0 -.01956 -253.484 654.102)"/><path d="M17552.3 26681.2c7.6-7.2 29.2-20.7 41.1-28.1 10.4-6.5 20.3-12.6 28.8-18.7 16.2-11.7 47.3-11.4 75.4.7 37 15.9 70.5 49.1 98.3 79.5 60.6 66.1 113.6 139.1 157.7 217.2-124.9-1.2-215.2-22.2-283.3-65.7-59.4-37.9-111.7-102.3-121.6-149.8-3.8-18.2-.4-28.4 3.6-35.1m102.8-217.4c-46.8 0-91.4 13.1-127.3 38.9-4.2 3-12.3 8-20.2 12.9-38.5 24.1-69.6 44.8-88.7 73.4-31.1 46.5-41.1 102.1-28.8 160.6 23.2 110.6 118.4 205.5 193 253 127.9 81.7 279.2 91.4 382.4 91.4h1.5c74.3-.1 124.9-25.1 150.3-74.4 33.5-64.7-1.7-129.3-13.3-150.6-51.9-95.2-115.3-183.9-188.6-263.9-39.5-43-88.6-90.9-153.8-118.9-34.9-15-71.3-22.4-106.5-22.4" style="fill:#fcd3af;fill-opacity:1;fill-rule:nonzero;stroke:none" transform="matrix(.01956 0 0 -.01956 -253.484 654.102)"/><path d="M17835.5 26412c3.2-9.9 15.6-32.2 22.4-44.4 6-10.7 11.7-20.9 16.1-30.3 8.6-18.1 35.9-32.9 66.4-35.9 40.1-4 85.5 8.9 124.5 22 85 28.6 166.7 66.9 243.1 113.9-109.9 59.3-199.2 84.6-279.8 79.5-70.3-4.5-147.2-35.5-178.8-72.3-12.2-14.1-14.2-24.6-13.9-32.5m120.6-273.4c-10.5 0-21.1.5-31.7 1.6-88.1 8.7-163.4 57.6-196.7 127.5-2.2 4.7-6.9 13-11.3 21-22.2 39.8-39.3 72.9-42.3 107.2-4.7 55.8 13.5 109.2 52.5 154.5 73.9 85.6 203.1 122.5 291.4 128.1 152 9.6 289.8-55.8 380.2-105.8 64.9-36 97.1-82.4 95.6-137.8-2-72.9-64.1-112.4-84.5-125.4-91.5-58.2-190-105.2-292.8-139.7-47-15.8-101.7-31.2-160.4-31.2" style="fill:#fcd3af;fill-opacity:1;fill-rule:nonzero;stroke:none" transform="matrix(.01956 0 0 -.01956 -253.484 654.102)"/><path d="M18175.9 26806.4c-13.4-52.2 10.9-108.5 48.7-146.9 37.8-38.5 88-62 138.3-81.5 94.9-36.9 194.3-62.2 295.3-75.1 26.1-3.4 56.7-4.3 74 15.4 19.6 22.2 10.7 56.6 0 84.2-42.7 110-101.4 218.9-196.7 288.5s-263.2 118.6-330.8 21.9c-15.8-22.6-22-79.8-28.8-106.5" style="fill:#71331d;fill-opacity:1;fill-rule:nonzero;stroke:none" transform="matrix(.01956 0 0 -.01956 -253.484 654.102)"/><path d="M18164.7 26809.5c-32.1-174.5 181.2-245 311-281.3 52.3-14.7 105.5-25.9 159.3-33.8 28.6-4.2 64.6-11.6 91.2 4.4 55.5 33.2 17.9 107.4-.8 150.6-62.6 144.8-162.7 274.1-320.8 317.2-54.5 14.9-119.1 20.6-169.7-9.9-54.8-33.1-57.2-90.2-70.2-147.2-3.4-14.6 19-20.8 22.4-6.2 11 48.6 12.3 104.5 59.5 133.4 44.9 27.4 103.6 20.7 151.8 7.5 116.8-31.8 204.5-115.3 263.5-218.6 13.3-23.2 25.2-47.2 36.2-71.6 8.1-17.9 16.4-36 22.9-54.6 9.2-26.1 9.7-27.9-4.4-57-.8-22.3-10.1-31.8-27.9-28.7-15.9-1.7-31.8-.7-47.6 3.1-16.8 2.3-33.5 5.3-50.2 8.4-30 5.6-59.9 12.2-89.4 20-118.6 31.2-344.7 93.7-314.4 258.1 2.6 14.6-19.7 20.9-22.4 6.2" style="fill:#211d1d;fill-opacity:1;fill-rule:nonzero;stroke:none" transform="matrix(.01956 0 0 -.01956 -253.484 654.102)"/><path d="M18239.2 26945.7s-52.4-138.4 0-201.1 326.3-169.5 368.1-141.6c41.8 27.8-146.2 337.2-222.8 342.7s-145.3 0-145.3 0" style="fill:#956752;fill-opacity:1;fill-rule:nonzero;stroke:none" transform="matrix(.01956 0 0 -.01956 -253.484 654.102)"/><path d="M18193.3 26801.9c-12.7-49.7 14.5-99.7 44.2-129.8 36.6-37.3 87.2-60 131.9-77.4 93.6-36.3 191.5-61.2 291.1-74 20.9-2.7 46.4-4 58.3 9.5 10.3 11.8 9.3 33.3-3.4 65.7-52.2 134.6-112.8 223.8-190.5 280.6-58.4 42.6-155.6 82.8-231.2 70.2-32.6-5.4-57.6-20.3-74.3-44.1-9.1-13.1-15.4-46.6-20-71-2.1-11.1-4-21.5-6.1-29.7m490.4-318.9c-9.5 0-19 .9-27.8 2-102.4 13.2-203.2 38.8-299.6 76.2-48.2 18.7-103.1 43.6-144.5 85.6-46.6 47.5-67.1 110.3-53.4 164 1.8 7 3.7 16.9 5.7 27.4 5.8 30.8 12.3 65.6 25.9 85 22.4 32.1 55.3 51.9 97.8 59 86.3 14.4 191.9-28.2 258.3-76.7 83.5-61 148-155.3 202.9-296.5 11.4-29.5 23.5-72.1-3.3-102.6-16.2-18.4-39.3-23.4-62-23.4" style="fill:#211d1d;fill-opacity:1;fill-rule:nonzero;stroke:none" transform="matrix(.01956 0 0 -.01956 -253.484 654.102)"/><path d="M17575 26568.5c43.8-31.4 105.1-29.1 154.6-7.8 49.5 21.2 89.7 59.4 126.1 99.2 68.8 75.1 128.4 158.5 177.2 247.9 12.6 23.1 24.6 51.3 12.5 74.6-13.6 26.3-48.9 30.5-78.5 30.5-118 .1-240.7-15-340.2-78.5-99.5-63.6-206.1-202.2-140.5-300.4 15.3-22.9 66.4-49.4 88.8-65.5" style="fill:#71331d;fill-opacity:1;fill-rule:nonzero;stroke:none" transform="matrix(.01956 0 0 -.01956 -253.484 654.102)"/><path d="M18045.4 26982.4c-13.6 26.3-48.9 30.5-78.5 30.5-118 .1-240.7-15-340.2-78.5-47.2-30.2-96-77.3-127.3-128.9 23-49.4 81.6-90.7 129.6-122.8 70.3-46.9 221.6 80.5 299 110 21.8 8.3 46 28 68.7 53.2 12.7 20.3 24.7 40.9 36.2 61.9 12.6 23.1 24.6 51.3 12.5 74.6" style="fill:#956752;fill-opacity:1;fill-rule:nonzero;stroke:none" transform="matrix(.01956 0 0 -.01956 -253.484 654.102)"/><path d="M17965.8 26994.9c-143.8 0-248.5-24-329.5-75.7-60.9-38.9-133.6-114.9-149.3-189.9-6.8-32.4-2-61 14.2-85.3 8.8-13.2 37.7-31.2 58.8-44.4 9.6-5.9 18.6-11.6 25.5-16.4 41.6-29.9 98.1-22.7 137-6 48 20.6 87.6 59.5 119.9 94.8 67.9 74 126.6 156.3 174.7 244.4 10.1 18.5 20.6 41.8 12.3 57.7-7.2 14-27.7 20.8-62.5 20.8zm-310.8-468.1c-33.7 0-65.4 9.1-90.5 27.1-5.9 4.2-14.4 9.6-23.5 15.2-26.5 16.6-56.6 35.3-69.7 55-21.8 32.5-28.4 70.4-19.5 112.6 17.9 85.6 95.9 168.6 165.2 212.8 87 55.5 197.8 81.4 348.8 81.4h1.1c31.6 0 75.8-4.2 94.4-40.2 16.1-31.1 1.7-65.2-12.6-91.5-49.5-90.7-110-175.3-179.8-251.5-34.9-38.1-78-80.3-132.2-103.6-27.1-11.6-55-17.3-81.7-17.3" style="fill:#211d1d;fill-opacity:1;fill-rule:nonzero;stroke:none" transform="matrix(.01956 0 0 -.01956 -253.484 654.102)"/><path d="M17800.9 26302.5c23.1-48.7 77.9-76.4 131.5-81.7 53.6-5.4 107.2 8.7 158.3 25.8 96.6 32.4 189.2 76.6 275.1 131.3 22.2 14.1 46.3 33 47 59.2.8 29.6-28 50.4-53.9 64.7-103.3 57.2-218 103.3-335.8 95.8-117.8-7.4-278.1-77.2-268.2-194.9 2.3-27.4 34.1-75.3 46-100.2" style="fill:#71331d;fill-opacity:1;fill-rule:nonzero;stroke:none" transform="matrix(.01956 0 0 -.01956 -253.484 654.102)"/><path d="M17968 26330.3c111.4 11.2 306.4 137.4 291.2 208.6-1.1 4.7-2.8 9.4-5 13.9-74 30.6-151.8 49.9-231.1 44.8-117.8-7.4-278.1-77.2-268.2-194.8 1.6-18.6 16.6-46.5 29.8-70.3 71.3-6.4 142.8-6.2 183.3-2.2" style="fill:#956752;fill-opacity:1;fill-rule:nonzero;stroke:none" transform="matrix(.01956 0 0 -.01956 -253.484 654.102)"/><path d="M18048.7 26580.5c-8.2 0-16.4-.3-24.5-.8-72.1-4.6-172.5-35.9-222.6-94-21.6-25-31.3-52.4-28.8-81.4 1.3-15.9 17.9-45.6 30-67.4 5.5-9.8 10.7-19.1 14.3-26.7 22.1-46.3 74.9-67.3 117.1-71.5 51.9-5.2 105.4 9.7 150.8 25 95.2 31.9 186.4 75.5 271.1 129.4 17.8 11.3 38.2 26.5 38.7 44.5.4 15.7-14.2 31.6-44.6 48.5-115.7 64-212.3 94.4-301.5 94.4m-92.8-378.8c-8.4 0-16.9.4-25.3 1.2-66.2 6.6-122.1 41.8-146 91.9-3.1 6.5-8 15.3-13.2 24.6-15.2 27.3-32.4 58.3-34.4 81.8-3.3 39.1 9.3 75.4 37.4 108 57.1 66.3 165.5 101.2 247.5 106.4 103.3 6.5 213.1-24.6 345.7-98.1 27.7-15.3 64.3-40.3 63.2-80.9-1-34.9-30.1-57.8-55.4-73.9-87.1-55.4-181-100.2-278.9-133.1-42-14.1-90.6-27.9-140.6-27.9m-698.8 1538c-4.8-11.8-9.6-24.1-14.3-36.7l-.6-1.8c4.4.3 21.1 1.4 23.4 1.6-2.5 9.2-5.3 21.4-8.5 36.9m-102-209.9c-17.2 0-34.6 11.6-34.6 37.6 0 5.2 0 13.9 24.3 87.5 15.6 47.3 29.8 86.3 42.1 115.9 9.5 23.6 16.6 41.5 21.2 53.7 14.1 36.5 22.4 46.4 29.3 51.7 7.3 5.8 16.6 8.8 26.8 8.8 8.2 0 20.1-2.4 30.6-14.2 8.5-9 20.6-29 34.6-100.8 1.5-7.5 7.1-30.8 25-98.6 7.8-29.4 13.1-48.8 15.6-57.9 10.8-37.7 10.8-41.7 10.8-45.3 0-10.4-4-19.7-11.6-27-7.3-7-16.4-10.7-26.5-10.7-4.4 0-8.9.9-13.4 2.6-9.9 3.9-17.2 11.8-22.2 23.6-2 4.5-5.6 14.1-14.2 45l-7.7 26.9c-13.2-.1-29.8-1.1-49.3-2.8-11.3-1-18.2-1.8-22.4-2.5-2.6-6.2-7.3-19.1-15.2-45.7-5.1-15.7-9.1-25.4-13.4-31.7-7.1-10.4-17.7-16.1-29.8-16.1" style="fill:#211d1d;fill-opacity:1;fill-rule:nonzero;stroke:none" transform="matrix(.01956 0 0 -.01956 -253.484 654.102)"/><path d="M17264.2 27907c-15.2 0-29.2-4.7-40.5-13.7-12.7-9.8-22.9-26.9-36-60.7-4.5-12.1-11.6-30.1-21.2-53.8-12.4-29.7-26.8-69.3-42.5-117-23.6-71.3-25.4-84.5-25.4-94.4 0-39.1 28.4-59.5 56.5-59.5 19.3 0 36.8 9.3 47.9 25.7 5.6 8.3 10.4 19.3 16 36.9l.2.4.1.4c4.4 14.6 7.7 24.8 10.1 31.9 2.4.2 5.2.5 8.4.8 11.5 1 21.8 1.7 31 2.2l3.1-10.7c8.8-31.4 12.7-41.9 15-47.5 9.3-21.5 23.5-31 33.8-35.1l.4-.2.4-.1c7-2.6 14.2-4 21.2-4 15.6 0 30.4 6 41.7 16.8 11.8 11.3 18.3 26.5 18.3 42.8 0 7.3-1.2 14.8-11.7 51.5-2.4 8.8-7.6 28-15.5 57.4-17.7 67.2-23.2 90-24.6 97.3-14.7 75.5-28 98.4-40.2 111.5-12.4 13.6-28.8 21.1-46.5 21.1m-48.8-230.1c1.1 0 2.4.1 4 .4 2.6.5 15.8 1.6 39.8 3.1 22.5 1.5 33.8 2.7 33.8 3.4q0 3.9-5.4 21.9c-2.8 9.7-6.2 24.2-10.2 43.7-3.9 19.3-6.7 32.1-8.2 38.2-2.8 10.8-4.7 17-5.7 18.8h-.4c-1 0-2.6-1.8-4.6-5.5-2.1-3.7-3.1-6.5-3.1-8.3 0-.2-3.9-9.7-11.9-28.3-7.1-16.9-14.2-34.8-21.2-53.6q-10.5-28.35-10.5-31.5c0-1.5 1.2-2.3 3.6-2.3m48.8 186.2c5.4 0 10.1-2.3 14.2-6.9 9.9-10.5 19.8-40.6 29.5-90.4 2.3-11.5 10.7-44.8 25.3-100 7.9-29.6 13.1-49 15.7-58.2 6.6-23.2 9.9-36.4 9.9-39.4 0-4.4-1.6-8.1-4.7-11.1-3.2-3.1-7-4.6-11.4-4.6-1.7 0-3.7.3-5.7 1.1-3.8 1.5-7.1 5.4-9.8 11.7q-3.9 9.45-13.2 42.3l-11.8 41.4c-1.1 1-5.8 1.5-14.2 1.5-14.3 0-32.3-.9-54-2.8-21.7-2-33.5-3.8-35.3-5.6-3.8-3.8-11-23.2-21.4-58.2-4.1-12.8-7.6-21.3-10.6-25.7-2.9-4.3-6.8-6.5-11.6-6.5-8.5 0-12.7 5.2-12.7 15.7 0 6.9 7.7 33.8 23.2 80.6 15.4 46.9 29.3 85 41.5 114.4 9.8 24 16.9 42.1 21.5 54.4 9.2 23.7 16.6 37.8 22.2 42.1 3.6 2.8 8.1 4.2 13.4 4.2" style="fill:#fcd3af;fill-opacity:1;fill-rule:nonzero;stroke:none" transform="matrix(.01956 0 0 -.01956 -253.484 654.102)"/><path d="M17409.4 27519.1c-7.7 0-15.1 2.8-22.7 8.8-5.8 4.5-9.9 10.4-12 17.1-.9 2.7-2 7.3-3.2 19-2.1 24.6-3.2 59.2-3.2 103 0 67.2 1.8 114.7 5.5 145.1 2.2 18.2 5.6 30.8 10.8 39.9 7.5 13.1 19.9 20.4 34.8 20.4 8.7 0 16.6-1.7 23.2-5 6.2-3.4 12.7-9 22.2-19.2 8.2-8.8 14.4-16.3 18.9-22.9l.6-1c12.8-20.9 28.3-47.5 46.2-79.3 3.2 4.9 7.2 10.9 11.9 18.1 15.8 24 27 41.6 33.5 52.4 17.5 28.3 31.9 45.4 45.7 53.8 7.1 4.8 15.1 7.3 23.8 7.3s25.3-3 37.8-22.9c7.7-12.4 15.5-38.7 15.5-140.7 0-10.8-.3-32.4-.8-64.7-.8-41.6-1.4-66.2-1.9-75.3-.8-13.4-3.2-22.3-7.9-28.7-7-10-18.2-15.7-31.4-15.7-13.4 0-21.6 6.1-26.2 11.1-6.6 6.7-8.2 17.5-8.6 33.7-.3 11.5-.4 47.5-.4 107 0 27-.1 48.1-.2 64.5-5.4-7.8-11.7-16.7-19-27-3.7-5.3-7.9-11.2-12.4-17.8-4.6-6.9-9-13.3-13.3-19.5s-7.1-10.3-8.4-12.1c-9.3-14-21.4-28.8-38.1-28.8-5.8 0-11.8 1.6-18 4.7-7.8 3.5-15.3 9.2-21.3 16.6-3 3.8-8.4 11.2-19.5 32-8.8 16.2-17.3 31.5-25.4 45.6-1-31.8-1.6-67-1.6-104.9l-.4-96.8-13.3-10c-6.9-5.2-14.1-7.8-21.2-7.8" style="fill:#211d1d;fill-opacity:1;fill-rule:nonzero;stroke:none" transform="matrix(.01956 0 0 -.01956 -253.484 654.102)"/><path d="M17645.3 27898.5c-12.7 0-25-3.7-35.6-10.8-16.8-10.4-33.1-29.2-52.4-60.6-5.3-8.9-13.9-22.3-25.5-40.2-10.7 18.7-20.3 35-28.7 48.8l-.6 1-.7 1c-5.1 7.5-12 15.8-21 25.4-11.3 12.2-19.2 19-27.3 23.3l-.5.3-.6.3c-9.7 4.8-20.8 7.3-33 7.3-22.8 0-42.4-11.5-53.8-31.5-6.7-11.6-11-26.9-13.5-48.1-3.8-31.2-5.7-79.6-5.7-147.7 0-45.1 1.1-79.3 3.2-104.5l.1-.4v-.3c1.1-11.1 2.3-17.9 4.1-23.6 3.4-10.7 10.1-20.3 19.4-27.6 11.4-8.9 23.6-13.5 36.2-13.5 12 0 23.6 4.1 34.4 12.3l4.5 3.4 17.5 13 .1 21.9.4 85.8v24.2c2.7-4.2 5.1-7.6 7.4-10.4 8.1-9.9 17.9-17.6 29.4-22.9 9-4.4 18-6.6 26.9-6.6 30.3 0 48.5 26.6 56.5 38.5 1.5 2.1 4.2 6.1 8.2 11.9 1.6 2.3 3.2 4.7 4.9 7.1 0-56.5.1-90.9.4-102.3.4-17.1 1.8-34.8 14.8-48.5 10.6-11.5 25.4-17.8 41.9-17.8 20.2 0 38.2 9.1 49.4 25 9.1 12.9 11.1 28.2 11.8 40.1.3 5.9.9 20.2 1.9 76 .6 33.9.8 54.5.8 65.2 0 112.6-9.6 137.6-18.7 152.1-18.3 29.1-43.3 33.4-56.6 33.4m0-43.8c7.6 0 14-4.2 19.3-12.7 8.1-13 12.2-56 12.2-129 0-10.8-.3-32.2-.8-64.4-.8-40.9-1.4-65.6-1.9-74.3s-1.8-14.4-3.8-17.2c-3-4.4-7.6-6.6-13.6-6.6q-6.45 0-9.9 3.9-2.55 2.7-3 19.5c-.2 11.2-.4 46.7-.4 106.5 0 81.2-.7 123.5-2.3 126.8-.5 1.5-1 2.3-1.5 2.3-1.3 0-6.6-7.3-16.1-21.9-5.6-9.1-18.6-28.2-39.1-57-3.8-5.4-8-11.5-12.6-18.2-4.6-6.8-9-13.2-13.2-19.4-4.2-6.1-7-10-8.2-11.8-8.7-13.1-15.5-19.6-20.4-19.6-2.3 0-4.9.8-8 2.3-5.6 2.6-10.3 6.2-14.2 10.9-3.8 4.8-9.5 14.3-17.2 28.6-14 26-27.3 49.3-39.7 69.7-12.3 20.4-19.6 30.6-21.6 30.6h-.4c-1.8-1.8-3.3-20-4.6-54.7-1.2-34.8-1.9-73.2-1.9-115.3l-.4-85.8-4.6-3.5c-3-2.3-5.7-3.4-8-3.4-2.6 0-5.6 1.4-9.2 4.2-2.3 1.8-3.8 3.9-4.6 6.3s-1.5 7.3-2.3 14.7c-2 23.8-3.1 57.4-3.1 100.8q0 98.4 5.4 142.5c1.8 14.8 4.5 25.3 8 31.6 3.6 6.2 8.9 9.4 15.8 9.4 5.3 0 9.8-.9 13.3-2.7 3.3-1.8 8.7-6.7 16.1-14.6s13-14.7 16.8-20.3c14.8-24.2 33.2-56 55.1-95.4l7.6-13.7 3.5 4.6c3.3 4 13 18.3 29 42.7 15.9 24.3 27.3 42 33.9 53 15.4 25 28.3 40.6 38.8 46.7 3.5 2.6 7.5 3.9 11.8 3.9" style="fill:#fcd3af;fill-opacity:1;fill-rule:nonzero;stroke:none" transform="matrix(.01956 0 0 -.01956 -253.484 654.102)"/><path d="M17823.2 27739.7c-4.8-11.9-9.6-24.1-14.2-36.7l-.7-1.8c4.4.3 21.1 1.4 23.5 1.6-2.6 9.2-5.4 21.3-8.6 36.9m-102-209.9c-17.2 0-34.6 11.6-34.6 37.6 0 5.2 0 13.9 24.3 87.5 15.6 47.2 29.8 86.2 42.2 115.9 9.5 23.6 16.5 41.5 21.1 53.7 14.2 36.5 22.5 46.4 29.4 51.7 7.2 5.8 16.5 8.8 26.8 8.8 11.6 0 22.2-4.9 30.5-14.2 8.5-9 20.6-29 34.6-100.8 2.2-10.9 10.6-44.1 25-98.6 7.9-29.4 13.1-48.8 15.6-57.9 10.8-37.6 10.8-41.7 10.8-45.3 0-10.4-4-19.7-11.5-27-7.3-7-16.5-10.7-26.5-10.7-4.4 0-9 .9-13.5 2.6-9.8 3.9-17.1 11.8-22.2 23.5-2 4.7-5.6 14.4-14.2 45.1l-7.7 26.9c-13.2-.1-29.8-1.1-49.3-2.8-11.3-1-18.2-1.8-22.4-2.5-2.5-6.2-7.2-19.1-15.2-45.7-5-15.7-9.1-25.3-13.4-31.6-7.1-10.5-17.6-16.2-29.8-16.2" style="fill:#211d1d;fill-opacity:1;fill-rule:nonzero;stroke:none" transform="matrix(.01956 0 0 -.01956 -253.484 654.102)"/><path d="M17830.4 27907c-15.2 0-29.2-4.7-40.6-13.7-12.7-9.8-22.9-26.9-36-60.7-4.5-12.2-11.4-29.6-21.2-53.8-12.4-29.7-26.8-69.3-42.5-117-23.5-71.4-25.4-84.6-25.4-94.4 0-39.1 28.4-59.5 56.5-59.5 19.4 0 36.9 9.3 48 25.7 5.6 8.3 10.3 19.3 16 36.9l.1.4.1.4c4.4 14.6 7.7 24.8 10.1 31.9 2.5.2 5.3.5 8.5.8 11.4 1 21.8 1.7 31 2.2l3-10.7c8.8-31.4 12.7-41.9 15.1-47.5 9.2-21.5 23.5-31 33.8-35.1l.4-.2.4-.1c7-2.6 14.1-4 21.2-4 15.6 0 30.4 6 41.6 16.8 11.8 11.3 18.3 26.5 18.3 42.8 0 7.3-1.1 14.8-11.6 51.5-2.5 8.8-7.7 28-15.5 57.4-17.8 67.2-23.2 90-24.7 97.3-14.7 75.5-28 98.4-40.2 111.5-12.4 13.6-28.8 21.1-46.4 21.1m-48.9-230.1c1.1 0 2.5.1 4 .4 2.6.5 15.9 1.6 39.9 3.1 22.4 1.5 33.7 2.7 33.7 3.4q0 3.9-5.4 21.9c-2.8 9.7-6.2 24.2-10.1 43.7-4 19.3-6.7 32.1-8.3 38.2-2.8 10.8-4.7 17-5.7 18.8h-.4c-1 0-2.5-1.8-4.6-5.5-2-3.7-3.1-6.5-3.1-8.3 0-.2-3.9-9.7-11.8-28.3-7.2-16.9-14.3-34.8-21.3-53.6q-10.5-28.35-10.5-31.5c0-1.5 1.2-2.3 3.6-2.3m48.9 186.2q7.95 0 14.1-6.9c10-10.5 19.8-40.6 29.5-90.4 2.3-11.5 10.7-44.8 25.3-100 7.9-29.6 13.2-49 15.7-58.2 6.7-23.2 10-36.4 10-39.4q0-6.6-4.8-11.1c-3.2-3.1-7-4.6-11.3-4.6-1.8 0-3.7.3-5.8 1.1-3.8 1.5-7.1 5.4-9.7 11.7q-4.05 9.45-13.2 42.3l-11.9 41.4c-1 1-5.8 1.5-14.2 1.5-14.3 0-32.3-.9-54-2.8-21.7-2-33.5-3.8-35.2-5.6-3.9-3.8-11-23.2-21.5-58.2-4.1-12.8-7.6-21.3-10.5-25.7-3-4.3-6.9-6.5-11.7-6.5-8.4 0-12.6 5.2-12.6 15.7 0 6.9 7.7 33.8 23.1 80.6 15.5 46.9 29.3 85 41.6 114.4 9.7 24 16.8 42.1 21.4 54.4 9.2 23.7 16.6 37.8 22.3 42.1 3.5 2.8 8 4.2 13.4 4.2" style="fill:#fcd3af;fill-opacity:1;fill-rule:nonzero;stroke:none" transform="matrix(.01956 0 0 -.01956 -253.484 654.102)"/><path d="M18009.7 27821.4c0-38.5 1.6-77.7 4.9-116.7 2.2.4 4.7.9 7.6 1.6 30.9 6.5 53.3 15.5 67.3 26.8 11.8 9.5 17.8 21.1 18.8 36.5v5c0 14.4-4.3 25.2-13.5 33.8-10.3 9.6-26.5 16.1-48.1 19.2-10.1 1.6-13.6 1.7-14.5 1.7-1.1 0-4.5-.1-12.1-1.5-4.3-.8-7.7-1.6-10.4-2.2zm-28.4-294.7c-14 0-25.6 6.2-32.7 17.5-4 6.1-6 9.3-7.6 86.3-1.8 48.9-3.1 81.2-3.8 95.4-1.8 34.8-2.7 73.6-2.7 115.4 0 14.8.2 17.4.7 19.9 1.8 12.1 12.9 18.5 27.3 25.4 11.2 5.5 21.8 9.5 31.4 11.9 10.6 2.8 21.7 4.2 33 4.2 1.4 0 3.9-.1 7.4-.3 2.7-.1 4.8-.1 6.3-.1 45.6-1.2 81.4-14 107-38.2 22.8-20.9 35.6-48.1 37.8-80.6.4-2.9.5-6.6.5-11.6 0-17.6-3.9-35-11.6-51.7-9.4-19.8-22.4-36.2-38.7-49-11-8.6-24.5-16.3-40.5-22.9 56.5-38.6 61.2-43.8 64.1-47.1l.7-.7.6-.8c5.1-6.8 7.8-15 7.8-23.5 0-8.1-2.4-15.9-6.8-22.5-5.2-7.8-12.8-13-22-15-2.1-.5-5.1-.9-8.5-.9-6.6 0-13.3 2.3-21.7 7.4-5.2 3.2-15.3 10.1-31.1 21.1-28.8 20.1-47.7 33-60.1 41.4v-10.4c0-30.3-1.1-39.1-2.3-44.2-3-12.6-12-21.8-24.8-25.2-2.9-.8-6-1.2-9.7-1.2" style="fill:#211d1d;fill-opacity:1;fill-rule:nonzero;stroke:none" transform="matrix(.01956 0 0 -.01956 -253.484 654.102)"/><path d="m18031.7 27807.3.7.1c-.1 0 2.7-.2 10.7-1.4 17.3-2.5 29.9-7.2 36.7-13.6 3.5-3.2 6.6-7.6 6.6-17.8v-4.2c-.7-8.8-3.9-14.8-10.7-20.3-6.3-5.1-18.4-12-41.1-18.3-1.7 25.3-2.6 50.5-2.9 75.5m-4.8 117.3c-13.1 0-26-1.6-38.5-4.8-10.9-2.8-22.9-7.3-35.5-13.5-13.2-6.3-35-17-39.3-41.7-.9-4.6-1.1-9.5-1.1-23.3 0-42.3 1-81.5 2.8-116.4.7-13.9 2-45.9 3.8-95.2 1.7-79.5 3.7-85.8 11-97.4 11.1-17.4 29.7-27.5 51.2-27.5 5.6 0 10.7.6 15.4 1.9 20.6 5.5 35.6 21 40.5 41.4.9 4.2 1.7 9.4 2.2 18.5 7.7-5.3 16.4-11.4 26.3-18.3 23.8-16.6 30-20.5 32.1-21.7 7.6-4.6 19.1-10.7 33.2-10.7q7.35 0 13.8 1.5c14.4 3.3 26.8 11.8 35 24.2 6.8 10.2 10.4 22.2 10.4 34.6 0 13.3-4.2 26-12.2 36.6l-1.2 1.6-1.3 1.5c-3.4 3.7-7.3 8.1-38 29.7 4.1 2.7 7.9 5.5 11.6 8.4 19 14.9 34.1 33.9 44.9 56.6 9.2 20 13.8 40.5 13.8 61.3 0 5.7-.1 9.9-.5 13.6-2.8 38.1-17.9 70-45 94.9-29.4 27.6-70 42.5-120.5 43.8h-1.2c-1.3 0-3 0-5.3.1q-6 .3-8.4.3m-32.2-243.1h8.8c6.1 0 14 1.2 23.7 3.5 34 7.1 59.3 17.5 76.1 31 16.7 13.5 25.7 31.2 27 52.9v5.7c0 20.5-6.9 37-20.5 49.8q-20.55 19.2-60 24.9c-8.1 1.3-14 1.9-17.6 1.9-3.8 0-9.2-.6-16.1-1.9-16.6-3-25.6-5.9-27.2-8.4-.7-1.3-1.1-7.8-1.1-19.5q0-63.3 5.7-127.2zm32.2 199.2c1.2 0 3.4 0 6.5-.2 3-.1 5.4-.2 7.2-.2 39.6-1 70.3-11.7 92-32.1 18.9-17.4 29.2-39.6 31-66.7.3-2 .4-5.2.4-9.6 0-14.5-3.2-28.7-9.6-42.5-7.9-16.6-18.7-30.2-32.4-41-13.6-10.7-32.1-19.7-55.3-27.2l-19.9-6.5 15.7-10.7c49-33.2 75.8-52.3 80.4-57.4 2.3-3.1 3.5-6.6 3.5-10.4s-1.1-7.3-3.1-10.3c-2.1-3.1-4.9-5-8.4-5.8-1.1-.2-2.3-.4-3.9-.4-2.3 0-5.7 1.5-10.3 4.3s-14.6 9.5-29.9 20.2q-75.75 52.95-85.8 57.9l-8.8 4.2v-49c0-21.2-.6-34.2-1.7-39.1-1.2-4.8-4.3-7.9-9.4-9.2-.8-.2-2-.4-3.8-.4-6.4 0-11.1 2.5-14.2 7.3-1.8 2.8-3.2 27.8-4.2 75.1-1.8 49.8-3.1 81.8-3.8 96.1-1.8 34.5-2.7 72.5-2.7 114.2 0 9.2.1 14.4.4 15.7q.3 2.7 15.3 9.9c9.9 4.9 19 8.3 27.2 10.4 8.9 2.3 18.1 3.4 27.6 3.4" style="fill:#fcd3af;fill-opacity:1;fill-rule:nonzero;stroke:none" transform="matrix(.01956 0 0 -.01956 -253.484 654.102)"/><path d="M18248.3 27521.3c-15.7 0-21.4.6-24.6 1-5.1.8-10.7 2.2-17.1 4.6-9.8 3.4-17.7 10.1-23.7 19.8-5.8 9.2-9.1 21.1-10.1 36.1l-.1 1.6.8 128.3c.2 75.4.8 118.7 1.7 132.2 1.4 18.9 6.8 31.9 16.5 39.8l.7.7 2.4 1.6c6.9 4.4 16 6.1 32.4 6.1 12.8 0 31.2-.5 56.4-1.6 27.4-1 34.6-1.6 37.7-2.1 8.8-1.1 16.6-5 22.6-11.2 7.6-7.5 11.7-16.8 11.7-27.2 0-7.4-2.2-18.3-12.7-28.1-7.1-6.4-15.9-9.7-25.7-9.7-4.6 0-8.3.2-11.3.5-2.8.2-18.2 1-45.3 2.2l-9.7.5.5-35.4c.2-15.7.4-27 .6-35.3q15.9 1.8 30 1.8h4.9c15.3-.4 20.7-1 24.4-2 7-1.7 13.2-5.6 18.7-11.7l.9-1c6.2-7.8 9.4-16.1 9.4-24.6 0-6.5-1.9-16.2-11-25.3-6-6-12.9-9.6-20.4-10.6-2.5-.4-7.6-.8-24.6-1.2-13.9 0-24.7-.6-32.6-1.8l-.3-33.5v-15.5c0-8.7.1-15.3.2-20.3h23.5c6.3.3 14.7.4 24.5.4 18 0 29-2.8 36.7-9.4l1-.8.9-1c7.1-7.6 10.9-17.1 10.9-27.4 0-11.2-4.4-21-12.2-27.4-6.6-5.6-15.7-9.3-27.4-10.9-8.5-1.2-22.7-1.9-43.7-2.2z" style="fill:#211d1d;fill-opacity:1;fill-rule:nonzero;stroke:none" transform="matrix(.01956 0 0 -.01956 -253.484 654.102)"/><path d="M18227.2 27915c-15.2 0-31-1.2-44.2-9.5l-4.1-2.6-2.1-2.1c-13.8-11.7-21.7-30-23.4-54.4-.6-9-1.5-32.6-1.9-133.7l-.7-128.2v-1.6l.1-1.6c1.2-18.7 5.7-33.9 13.4-46.3 8.5-13.6 20.5-23.6 34.8-28.8 7.9-2.8 14.9-4.6 21.5-5.6 4.2-.6 10.7-1.2 27.7-1.2h17.8c29.1.4 40.4 1.5 46.3 2.3 15.7 2.2 28.7 7.6 38.7 16 12.8 10.7 19.9 26.4 19.9 44.1 0 15.9-5.8 30.5-16.7 42.3l-1.8 1.9-2 1.7c-15.2 13-35.2 14.7-50.9 14.7-9.6 0-18.1-.2-25.3-.4h-1v14l.1 13c3.1.1 6.6.2 10.5.2h.9c17.2.4 23.2.8 27.3 1.4 8.3 1.2 20.9 5 32.7 16.8 11.2 11.2 17.4 25.7 17.4 40.8 0 9.3-2.5 23.6-14.2 38.3l-.9 1.1-.9 1c-8.5 9.3-18.4 15.4-29.4 18.2-5.4 1.3-12.1 2.2-28.8 2.6h-6c-2.8 0-5.6 0-8.5-.1-.1 3.7-.1 7.7-.2 12l-.1 12.1c12.2-.6 27.1-1.3 31.6-1.6 3.6-.3 7.7-.5 12.4-.5 15.3 0 29.2 5.3 40.2 15.2l.2.2.2.2c12.7 11.9 19.7 27.5 19.7 44.1 0 16.1-6.4 31.1-18 42.6-9.5 9.7-21.6 15.8-35.3 17.6-3.8.5-10.3 1.1-39.8 2.2-25.3 1.1-44.1 1.6-57.2 1.6m0-43.8c12.5 0 31-.6 55.5-1.6 19.9-.7 31.9-1.4 35.8-1.9 4-.5 7.3-2.2 9.8-5q5.4-4.95 5.4-11.7c0-4.4-1.9-8.5-5.8-12-2.8-2.6-6.4-3.9-10.7-3.9-3.6 0-6.5.2-8.8.4-3.8.3-19.4 1-46.7 2.3l-33 1.6.8-58.6q.75-58.65 1.5-59.4h1.2c2.5 0 8.1.6 16.8 1.9 11.8 1.5 22.7 2.3 33 2.3h4.9c10.2-.3 16.6-.7 19.2-1.3 2.5-.7 5.1-2.4 7.7-5.2 3-3.8 4.5-7.5 4.5-10.9 0-3.5-1.5-6.7-4.5-9.8-2.6-2.6-5.2-4-7.9-4.4s-10-.7-22-1c-16.9 0-30-.9-39.5-2.6l-14.5-2.3-.4-52.1v-15.7c0-24.6.5-37.8 1.5-39.9 1.3-1.5 8.2-2.3 20.7-2.3h23.4c6.9.3 15 .4 24.5.4 11.7 0 19.3-1.4 22.6-4.2 3.3-3.6 5-7.7 5-12.5 0-4.7-1.4-8.2-4.3-10.5-3.5-3-9-5.1-16.4-6.1s-21.1-1.7-41-1.9h-17.2c-10.8 0-17.9.2-21.5.7s-7.9 1.7-12.8 3.5c-5 1.8-9.2 5.3-12.5 10.7-3.8 6.1-6.1 14.8-6.9 26l.8 128.4c.2 74.3.8 117.9 1.7 130.8s3.9 21.1 9 24.7l.4.4q4.2 2.7 20.7 2.7" style="fill:#fcd3af;fill-opacity:1;fill-rule:nonzero;stroke:none" transform="matrix(.01956 0 0 -.01956 -253.484 654.102)"/><path d="M18447.4 27519.4c-10.4 0-19.6 3.7-26.6 10.6-5 5.1-8.4 11.3-9.8 18.1-.7 3.6-1.2 8.9-1.2 23.1 0 16 .9 41.4 2.7 75.5 2.8 37.6 4.2 87 4.2 147.1 0 8.1-.1 14.3-.1 19-7.8-.7-15.8-1.1-23.6-1.1-19 0-30.6 2.4-38.8 8.1-10.1 7.4-15.3 17.9-15.3 30.1 0 9.9 3.9 19 11 25.5 6.6 5.8 15.7 8.6 33.9 10.4 12.4 1.2 41.4 3 86.2 5.3 8.1.5 17.2 1 26.9 1.4q14.25.6 22.5.9c6.1.3 9.6.4 10.8.4h1.1c7 0 13.9-1.7 20.6-5 7.9-4 13.5-9.3 16.7-15.6l.5-1.3c2-4.5 2.9-9.9 2.9-16.3 0-9.3-2.2-16.7-6.6-22.7-5.3-7.2-13-12.2-22.1-14.4-6.1-1.5-14.7-2.2-26.9-2.2-11.5 0-19.3-.2-24.6-.5l.5-54v-25.1c0-18.4-.2-34.1-.6-47-.3-12.8-1-30.4-1.9-52.7s-1.6-39.1-2.1-50.7c-1.1-23.3-1.8-30.2-2.3-33.4-1.4-9-5-16.4-10.6-22.1-7.5-7.4-16.9-11.4-27.4-11.4" style="fill:#211d1d;fill-opacity:1;fill-rule:nonzero;stroke:none" transform="matrix(.01956 0 0 -.01956 -253.484 654.102)"/><path d="M18531.3 27915.8h-1.1c-1.3 0-5.2-.2-11.8-.5-5.5-.2-12.9-.5-22.4-.9-9.9-.4-19.1-.9-27.6-1.4-45.3-2.3-73.8-4.1-86.7-5.4-19.8-1.9-34.5-5.2-46.2-15.7l-.2-.2-.2-.2c-11.7-10.7-18.1-25.5-18.1-41.6 0-19 8.6-36.2 23.4-47.2l.7-.5.6-.5c12.2-8.4 27.6-11.9 51.3-11.9h1.8c-.1-57.8-1.5-105.2-4.1-141l-.1-.5v-.5c-1.8-35-2.7-60-2.7-76.6 0-16.1.6-22.3 1.6-27.4 2.2-11 7.7-21.1 15.8-29.2 11-11 26-17.1 42.1-17.1 16.2 0 31.4 6.3 42.9 17.8 8.9 8.9 14.7 20.7 16.8 34.2.6 4.4 1.4 11.9 2.5 35.8.5 11.6 1.2 28.5 2.1 50.8.9 22.4 1.6 40.1 2 52.9.4 13.2.5 29.2.5 47.7v24.9l-.3 32.8h2.5c14.2 0 24.1.8 32 2.8 14.3 3.5 26.3 11.3 34.7 22.7 7.1 9.7 10.8 21.7 10.8 35.7 0 9.4-1.5 17.5-4.6 24.9l-.5 1.2-.6 1.2c-5.3 10.7-14.2 19.2-26.3 25.4q-14.85 7.5-30.6 7.5m0-43.9c3.6 0 7.2-.9 10.7-2.7 3.6-1.8 5.9-3.7 6.9-5.8q1.2-2.7 1.2-7.8c0-4.3-.8-7.6-2.3-9.6-2.3-3.1-5.6-5.2-9.8-6.2-4.2-1.1-11.4-1.6-21.6-1.6-15.3 0-26.6-.4-33.7-1.1l-13.1-1.2.8-74.3v-24.9c0-18.1-.2-33.6-.6-46.3-.4-12.8-1-30.3-1.9-52.5s-1.6-39.1-2.1-50.6q-1.2-24.9-2.1-31.2c-.6-4.2-2.1-7.5-4.4-9.8-3.3-3.3-7.3-5-11.9-5s-8.3 1.5-11.1 4.3c-2 2-3.3 4.3-3.8 6.9-.5 2.5-.8 8.8-.8 18.7 0 15.6.9 40.4 2.7 74.3 2.8 37.8 4.2 87.2 4.2 148.3 0 22.7-.4 35.2-1.1 37.5l-1.9 5.4-16.1-1.6c-9-1-17.8-1.5-26.5-1.5q-20.25 0-26.4 4.2c-3.8 2.9-5.7 6.9-5.7 12.1 0 3.8 1.2 6.9 3.8 9.3 2.3 2 9.4 3.6 21.2 4.8 11.9 1.2 40.3 2.9 85.3 5.2 8.1.6 17 1 26.6 1.4s17.1.7 22.6.9c5.5.3 8.7.4 9.8.4z" style="fill:#fcd3af;fill-opacity:1;fill-rule:nonzero;stroke:none" transform="matrix(.01956 0 0 -.01956 -253.484 654.102)"/><path d="M18670.4 27519.4c-10.5 0-19.7 3.7-26.7 10.7-5 5.1-8.4 11.3-9.8 18-.7 3.6-1.2 8.9-1.2 23.1 0 16 .9 41.4 2.7 75.5 2.8 37.6 4.2 87 4.2 147.1 0 8.1 0 14.3-.1 19-7.8-.7-15.8-1.1-23.6-1.1-18.9 0-30.6 2.4-38.8 8.1-10 7.4-15.2 17.9-15.2 30.1 0 9.9 3.9 19 10.9 25.5 6.6 5.8 15.8 8.6 33.9 10.4 12.4 1.2 41.4 3 86.3 5.3 8.1.5 17.1 1 26.9 1.4 9.4.4 16.9.7 22.4.9 6.1.3 9.7.4 10.8.4h1.1c7 0 14-1.7 20.6-5 7.9-4 13.5-9.3 16.7-15.7l.6-1.2c1.9-4.6 2.8-9.9 2.8-16.3 0-9.3-2.1-16.7-6.6-22.7-5.3-7.2-12.9-12.2-22.1-14.4-6.1-1.5-14.6-2.2-26.9-2.2-11.5 0-19.3-.2-24.6-.5l.6-54v-25.1c0-18.4-.2-34.1-.6-47-.4-12.8-1.1-30.4-2-52.7s-1.6-39.1-2.1-50.6c-1-23.4-1.8-30.3-2.3-33.5-1.4-9-4.9-16.4-10.6-22.1-7.4-7.4-16.9-11.4-27.3-11.4" style="fill:#211d1d;fill-opacity:1;fill-rule:nonzero;stroke:none" transform="matrix(.01956 0 0 -.01956 -253.484 654.102)"/><path d="M18754.2 27915.8h-1.1c-1.2 0-5.2-.2-11.7-.5-5.6-.2-13-.5-22.4-.9-9.9-.4-19.2-.9-27.7-1.4-45.2-2.3-73.8-4.1-86.7-5.4-19.8-1.9-34.4-5.2-46.2-15.7l-.2-.2-.2-.2c-11.7-10.7-18.1-25.5-18.1-41.6 0-19 8.6-36.2 23.5-47.3l.6-.4.7-.5c12.1-8.4 27.5-11.9 51.3-11.9h1.7c-.1-57.8-1.4-105.2-4.1-141v-.5l-.1-.5c-1.8-35-2.7-60-2.7-76.6 0-16.1.6-22.3 1.6-27.4 2.2-11 7.7-21.1 15.8-29.2 11-11 26-17.1 42.2-17.1 16.1 0 31.3 6.3 42.8 17.8 8.9 8.9 14.7 20.7 16.8 34.2.6 4.3 1.4 11.9 2.5 35.8.5 11.6 1.2 28.5 2.1 50.8 1 22.4 1.6 40.1 2 52.9.4 13.2.6 29.2.6 47.7v24.9l-.4 32.8h2.5c14.2 0 24.1.8 32 2.8 14.3 3.5 26.3 11.3 34.7 22.7 7.1 9.6 10.8 21.7 10.8 35.7 0 9.4-1.5 17.5-4.6 24.9l-.5 1.2-.6 1.2c-5.3 10.7-14.1 19.2-26.3 25.4-9.8 5-20.1 7.5-30.6 7.5m0-43.9q5.4 0 10.8-2.7c3.5-1.8 5.8-3.7 6.9-5.8.7-1.8 1.1-4.4 1.1-7.8 0-4.3-.8-7.6-2.3-9.6-2.3-3.1-5.5-5.2-9.8-6.2-4.2-1.1-11.4-1.6-21.6-1.6-15.3 0-26.6-.4-33.7-1.1l-13-1.2.7-74.3v-24.9c0-18.1-.2-33.6-.5-46.3-.4-12.8-1.1-30.3-2-52.5s-1.6-39.1-2.1-50.6q-1.05-24.9-2.1-31.2c-.6-4.2-2.1-7.5-4.4-9.8-3.3-3.3-7.3-5-11.8-5-4.6 0-8.4 1.5-11.2 4.3-2 2-3.3 4.3-3.8 6.9-.5 2.5-.8 8.8-.8 18.7 0 15.6.9 40.4 2.7 74.3 2.8 37.8 4.2 87.2 4.2 148.3 0 22.7-.3 35.2-1.1 37.5l-1.9 5.4-16.1-1.6q-13.5-1.5-26.4-1.5c-13.6 0-22.4 1.4-26.5 4.2-3.8 2.9-5.7 6.9-5.7 12.1 0 3.8 1.3 6.9 3.8 9.3q3.45 3 21.3 4.8c11.9 1.2 40.2 2.9 85.2 5.2 8.2.6 17 1 26.6 1.4s17.1.7 22.6.9c5.5.3 8.8.4 9.8.4z" style="fill:#fcd3af;fill-opacity:1;fill-rule:nonzero;stroke:none" transform="matrix(.01956 0 0 -.01956 -253.484 654.102)"/><path d="M18891.7 27807.5c-2 0-5.6-.6-11.2-3.5-7.8-3.8-22.4-17-34.6-63.5-3.1-12-4.2-18.4-4.6-21.7-.4-3.6-.9-11.7-1.2-30.5 0-22.1 1.3-33.7 2.4-39.5 1.3-7.5 4.3-15.6 8.8-24 4.4-8.5 9.5-14.5 15.8-18.6 5.8-3.9 11.9-5.8 18.5-5.8 5.8 0 11.1 1.3 16.3 3.8 13.8 6.8 25.2 17.1 34.8 31.6 7.5 11.3 12.9 23.3 16 35.6 3.2 13 4.8 30.1 4.8 50.9v12.2c0 8.8-1.4 17.2-4.3 24.9-7.8 19.2-19.9 34.5-36.6 46-1.7.4-6 1.1-15.2 1.7-1.8 0-3.9.1-6.3.2-1.5.1-2.7.2-3.4.2m-2.6-284.6c-32.7 0-60.5 11.2-82.6 33.2-7.1 7.2-14.3 17.3-22 31.1-7.5 13.4-12.8 26-15.8 37.5-3.3 12.2-5 31.3-5 58 0 14.9.6 26.3 1.8 34.8 1.2 8 2.2 16.8 2.9 26.6.4 4.8 1.7 12.7 7.9 31.6 4.5 13.9 9 24.9 13.8 33.8 4.1 8.2 9.6 17.2 16.1 26.2 6.9 9.6 12.9 16.6 18.3 21.3 6 5.3 14.1 10.2 24.7 14.9 10 4.4 18.7 7.3 26.7 8.9 3.1.7 9.7 1.6 32.4 2.3h6.8c11.6 0 23.1-2.8 34.3-8.4 10-4.9 21.9-14.1 36-28.3 8.9-8.6 15.2-15.5 19.2-20.9 4.1-5.5 8.5-13.3 13.5-23.9 6.8-14.6 11.2-26.2 13.4-35.4 2.1-9.4 3.2-21.8 3.2-37.9v-8.1c-.5-32.3-4.5-59.8-11.8-81.9-7.5-22.7-20.3-45-38.1-66.2-9.6-11.7-22.2-22.3-37.2-31.5-15.9-9.6-30.3-15.1-44-16.8-6.5-.6-11.2-.9-14.5-.9" style="fill:#211d1d;fill-opacity:1;fill-rule:nonzero;stroke:none" transform="matrix(.01956 0 0 -.01956 -253.484 654.102)"/><path d="M18862.1 27688.3c.3 19.2.8 26.1 1 28.1.2 1.7 1 6.8 4 18.5 11.1 42.6 22.8 49.4 22.9 49.4 1.3.7 2.2 1 2.7 1.2l1.4-.1c2.3-.1 4.6-.2 6.5-.2 3.2-.2 5.6-.4 7.3-.6 11-8.6 19.2-19.6 25-33.5 1.8-5.1 2.7-10.5 2.7-16.6v-12.2c0-19-1.4-34.3-4.2-45.6-2.5-10-6.8-19.5-13-28.9-7.4-11-15.9-18.8-26.1-23.8-2.3-1.2-4.3-1.6-6.7-1.6-2 0-3.8.3-6.4 2-3.1 2.1-5.8 5.3-8.2 10l-.2.4-.2.4c-3.4 6.4-5.6 12.3-6.6 17.5-.7 4-1.9 14-1.9 35.6m53 216.7h-7.5c-22.5-.7-30.7-1.6-36.4-2.8-9.4-2-19.5-5.3-30.7-10.2-12.8-5.6-22.8-11.7-30.6-18.6-6.6-5.8-13.5-13.8-21.6-24.9-7-9.9-13-19.7-17.9-29.2-5.2-10-10.1-22-14.9-36.8-5.3-16.2-8-27.2-8.9-35.8v-.5l-.1-.5c-.7-9.3-1.5-17.5-2.6-24.4l-.1-.5-.1-.4c-1.3-9.5-1.9-21.8-1.9-37.7 0-29.1 1.8-49.4 5.7-63.9 3.5-13.2 9.4-27.1 17.9-42.4 8.6-15.4 17-27.2 25.6-35.8 26-25.9 59.9-39.6 98.1-39.6 4.3 0 9.4.3 16.1.9l.6.1h.5c16.9 2.1 34.1 8.6 52.6 19.9 17.3 10.4 31.7 22.7 43 36.4 19.3 23 33.5 47.8 41.8 73.2 8.1 24.5 12.3 53.3 12.9 88v8.8c0 17.8-1.2 31.9-3.8 42.9-2.5 10.7-7.4 23.7-14.9 39.7-5.7 12.1-10.7 20.8-15.6 27.6-4.8 6.5-11.7 14-21.7 23.7-16 16-29.3 26.2-41.8 32.3-13.9 6.9-28.7 10.5-43.7 10.5m-29.5-326.5c9.2 0 17.9 2 26.1 6.1 17.1 8.4 31.5 21.4 43.3 39 8.9 13.5 15.2 27.7 18.9 42.5s5.6 33.5 5.6 56.2v12.2c0 11.5-2 22.4-5.8 32.6-9.9 24.4-25.5 43.7-46.7 57.7q-4.95 3-24.9 4.2c-1.5 0-3.4.1-5.8.2-2.3.1-3.8.2-4.5.2-6.4 0-13.5-1.9-21.1-5.7-19.7-9.7-35-35.6-46-77.7-2.8-10.7-4.5-19-5.2-24.8-.6-5.9-1-16.7-1.3-32.5q0-29.1 2.7-43.8c1.8-9.9 5.5-20 11.1-30.4 5.9-11.5 13.5-20.4 23-26.6 9.4-6.3 19.6-9.4 30.6-9.4m29.5 282.7c8.2 0 16.4-2.1 24.5-6.1 7.9-3.9 18-11.9 30.3-24.2 8.2-7.9 13.8-14 17-18.4 3.2-4.3 7-11.1 11.3-20.3 6.2-13 10.1-23.3 11.9-31 1.8-7.6 2.7-18.6 2.7-32.9v-8.1c-.5-29.8-4.1-54.9-10.7-75-6.7-20.2-18-39.9-34.1-59-8.2-10-18.8-18.9-31.8-26.8-13-8-24.8-12.5-35.3-13.8-5.1-.5-9-.8-11.8-.8-26.8 0-49.2 8.9-67.1 26.8-5.6 5.6-11.7 14.4-18.3 26.3-6.7 11.8-11.3 22.6-13.8 32.3-2.8 10.5-4.3 28-4.3 52.5 0 13.8.6 24.4 1.6 31.8 1.2 8.2 2.3 17.5 3 27.9.6 5.1 2.8 14 6.9 26.5s8.2 22.6 12.3 30.2c3.8 7.7 8.7 15.6 14.6 23.8 5.8 8.2 10.8 14 14.9 17.6 4.3 3.8 10.7 7.6 19.1 11.3 8.5 3.7 15.9 6.2 22.3 7.5 3.3.7 12.8 1.4 28.7 1.9z" style="fill:#fcd3af;fill-opacity:1;fill-rule:nonzero;stroke:none" transform="matrix(.01956 0 0 -.01956 -253.484 654.102)"/><path d="M17269.2 27787.6c-2.8 10.8-4.7 17-5.7 18.8h-.4c-1 0-2.6-1.8-4.6-5.5-2.1-3.7-3.1-6.5-3.1-8.3 0-.2-3.9-9.7-11.9-28.3-7.1-16.9-14.2-34.8-21.2-53.6q-10.5-28.35-10.5-31.5c0-2.3 2.5-2.9 7.6-1.9 2.6.5 15.8 1.6 39.8 3.1 22.5 1.5 33.8 2.7 33.8 3.4q0 3.9-5.4 21.9c-2.8 9.7-6.2 24.2-10.2 43.7-3.9 19.3-6.7 32.1-8.2 38.2m-18.4 71.3c3.6 2.8 8.1 4.2 13.4 4.2 5.4 0 10.1-2.3 14.2-6.9 10-10.5 19.8-40.6 29.5-90.4 2.3-11.5 10.7-44.8 25.3-100 7.9-29.6 13.1-49 15.7-58.2 6.6-23.2 9.9-36.4 9.9-39.4 0-4.4-1.6-8.1-4.7-11.1-3.2-3.1-7-4.6-11.4-4.6-1.7 0-3.7.3-5.7 1.1-3.8 1.5-7.1 5.4-9.8 11.7q-3.9 9.45-13.2 42.3l-11.9 41.4q-1.5 1.5-14.1 1.5c-14.3 0-32.3-.9-54-2.8-21.7-2-33.5-3.8-35.3-5.6-3.8-3.8-11-23.2-21.4-58.2-4.1-12.8-7.6-21.3-10.6-25.7-2.9-4.3-6.8-6.5-11.6-6.5-8.5 0-12.7 5.2-12.7 15.7 0 6.9 7.7 33.8 23.2 80.6 15.4 46.9 29.3 85 41.6 114.4 9.7 24 16.8 42.1 21.4 54.4 9.2 23.7 16.6 37.8 22.2 42.1m382.7-8.1c3.5 2.6 7.5 3.9 11.8 3.9 7.6 0 14-4.2 19.3-12.7 8.1-13 12.2-56 12.2-129 0-10.8-.3-32.2-.8-64.4-.8-40.9-1.4-65.6-1.9-74.3s-1.8-14.4-3.8-17.2c-3-4.4-7.6-6.6-13.6-6.6q-6.45 0-9.9 3.9-2.55 2.7-3 19.5c-.2 11.2-.4 46.7-.4 106.5 0 81.2-.7 123.5-2.3 126.8-.5 1.5-1 2.3-1.5 2.3-1.3 0-6.6-7.3-16.1-21.9-5.6-9.1-18.6-28.2-39.1-57-3.8-5.4-8-11.5-12.6-18.2-4.6-6.8-9-13.2-13.2-19.4-4.2-6.1-7-10-8.2-11.8-8.7-13.1-15.5-19.6-20.3-19.6-2.4 0-5 .8-8.1 2.3-5.6 2.6-10.3 6.2-14.2 10.9-3.8 4.8-9.5 14.3-17.2 28.6-14 26-27.3 49.3-39.7 69.7-12.3 20.4-19.6 30.6-21.6 30.6h-.4c-1.8-1.8-3.3-20-4.6-54.7-1.2-34.8-1.9-73.2-1.9-115.3l-.4-85.8-4.6-3.5c-3-2.3-5.7-3.4-8-3.4-2.6 0-5.6 1.4-9.2 4.2-2.3 1.8-3.8 3.9-4.6 6.3s-1.5 7.3-2.3 14.7c-2 23.8-3.1 57.4-3.1 100.8q0 98.4 5.4 142.5c1.8 14.8 4.5 25.3 8 31.6 3.6 6.2 8.9 9.4 15.8 9.4 5.3 0 9.8-.9 13.3-2.7 3.3-1.8 8.7-6.7 16.1-14.6s13-14.7 16.8-20.3c14.8-24.2 33.2-56 55.1-95.4l7.6-13.7 3.5 4.6c3.3 4 13 18.3 29 42.7 15.9 24.3 27.3 42 33.9 53 15.4 25 28.3 40.6 38.8 46.7m201.8-63.2c-2.8 10.8-4.7 17-5.7 18.8h-.4c-1 0-2.5-1.8-4.6-5.5-2-3.7-3.1-6.5-3.1-8.3 0-.2-3.9-9.7-11.8-28.3-7.2-16.9-14.3-34.8-21.3-53.6q-10.5-28.35-10.5-31.5c0-2.3 2.5-2.9 7.6-1.9 2.6.5 15.9 1.6 39.9 3.1 22.4 1.5 33.7 2.7 33.7 3.4q0 3.9-5.4 21.9c-2.8 9.7-6.2 24.2-10.1 43.7-4 19.3-6.7 32.1-8.3 38.2m-18.3 71.3c3.5 2.8 8 4.2 13.4 4.2q7.95 0 14.1-6.9c10-10.5 19.8-40.6 29.5-90.4 2.3-11.5 10.7-44.8 25.3-100 7.9-29.6 13.2-49 15.7-58.2 6.7-23.2 10-36.4 10-39.4q0-6.6-4.8-11.1c-3.2-3.1-7-4.6-11.3-4.6-1.8 0-3.7.3-5.8 1.1-3.8 1.5-7.1 5.4-9.7 11.7q-4.05 9.45-13.2 42.3l-11.9 41.4c-1 1-5.8 1.5-14.2 1.5-14.3 0-32.3-.9-54-2.8-21.7-2-33.5-3.8-35.2-5.6-3.9-3.8-11-23.2-21.5-58.2-4.1-12.8-7.6-21.3-10.5-25.7-3-4.3-6.9-6.5-11.7-6.5-8.4 0-12.6 5.2-12.6 15.7 0 6.9 7.7 33.8 23.1 80.6 15.5 46.9 29.3 85 41.6 114.4 9.7 24 16.8 42.1 21.4 54.4 9.2 23.7 16.6 37.8 22.3 42.1m232.8-9.6c-8.1 1.3-14 1.9-17.6 1.9-3.8 0-9.2-.6-16.1-1.9-16.6-3-25.6-5.9-27.2-8.4-.7-1.3-1.1-7.8-1.1-19.5q0-63.3 5.7-127.2l1.2-12.7h8.8c6.1 0 14 1.2 23.7 3.5 34 7.1 59.3 17.5 76.1 31 16.7 13.5 25.7 31.2 27 52.9v5.7c0 20.5-6.9 37-20.5 49.8q-20.55 19.2-60 24.9m-50.5 28c8.9 2.3 18.1 3.4 27.6 3.4 1.2 0 3.4 0 6.5-.2 3-.1 5.4-.2 7.2-.2 39.6-1 70.3-11.7 92-32.1 18.9-17.4 29.2-39.6 31-66.7.3-2 .4-5.2.4-9.6 0-14.5-3.2-28.7-9.6-42.5-7.9-16.6-18.7-30.2-32.4-41-13.6-10.7-32.1-19.7-55.3-27.2l-19.9-6.5 15.7-10.7c49-33.2 75.8-52.3 80.4-57.4 2.3-3.1 3.5-6.6 3.5-10.4s-1.1-7.3-3.1-10.3c-2-3.1-4.9-5-8.4-5.8-1.1-.2-2.3-.4-3.9-.4-2.3 0-5.7 1.4-10.3 4.3-4.6 2.8-14.6 9.5-29.9 20.2q-75.75 52.95-85.8 57.9l-8.8 4.2v-49c0-21.2-.6-34.2-1.7-39.1-1.2-4.8-4.3-7.9-9.4-9.2-.8-.2-2-.4-3.8-.4-6.4 0-11.1 2.5-14.2 7.3-1.8 2.8-3.2 27.8-4.2 75.1-1.8 49.8-3.1 81.8-3.8 96.1-1.8 34.5-2.7 72.5-2.7 114.2 0 9.2.1 14.4.3 15.7.3 1.8 5.4 5.1 15.4 9.9 9.9 4.9 19 8.3 27.2 10.4" style="fill:#211d1d;fill-opacity:1;fill-rule:nonzero;stroke:none" transform="matrix(.01956 0 0 -.01956 -253.484 654.102)"/></g></svg>