<svg xmlns="http://www.w3.org/2000/svg" width="154" height="498"><path fill="#fefefe" d="M0 0h154v498H0z"/><path fill="#0c0e0f" d="M75.203 14.815c2.09 0 4.19-.02 6.28-.04 16.91-.07 16.91-.07 22.23 3.32 2.02 2.99 1.67 6.12 1.62 9.61-.01.75-.01 1.51-.01 2.29-.01 1.6-.02 3.2-.04 4.8a885 885 0 0 0-.05 7.3l-.03 4.67c0 .72-.01 1.44-.01 2.18-.05 3.2-.22 6.26-.7 9.42-.63 4.69-.58 9.26-.51 13.98.01.99.02 1.98.04 3 .04 3.2.1 6.4.16 9.59.03 1.09.05 2.17.07 3.29.33 15.56 1 30.61 4.75 45.78.28 1.23.57 2.47.87 3.75.9 3.47 1.97 6.84 3.13 10.25.25.76.51 1.53.78 2.33 3.71 10.99 7.98 21.59 12.9 32.1 7.33 15.63 12.64 30.54 12.58 48.01.01 1 .01 1.99.02 3.01.01 3.29.01 6.58.01 9.87 0 2.37.01 4.74.02 7.11.02 6.42.02 12.83.02 19.25 0 4.01.01 8.02.01 12.04q.03 19.92.03 39.84v4.33c0 11.6.02 23.2.04 34.8.03 11.94.05 23.87.04 35.8q0 10.035.03 20.07c.02 6.29.02 12.58.01 18.87-.01 2.3 0 4.61.01 6.92.02 3.15.01 6.3-.01 9.45l.03 2.75c-.08 7.46-2.21 13.19-6.52 19.26-14.89 10.85-38.61 9.37-56.26 9.37-2.47 0-4.94.02-7.41.04-37.89.14-37.89.14-50.33-11.22-2.83-4.62-4.12-8.81-4.14-14.18 0-.42 0-.42-.02-2.52v-2.75c0-.97-.01-1.93-.01-2.93l-.03-9.76c0-2.33-.01-4.66-.02-6.99-.03-7.66-.04-15.33-.06-22.99 0-2.65-.01-5.29-.01-7.93-.02-11.01-.04-22.01-.05-33.02-.01-2.86-.01-5.71-.01-8.57 0-.35 0-.35-.01-2.15-.01-11.45-.04-22.91-.08-34.37-.05-11.79-.07-23.58-.07-35.37-.01-6.61-.02-13.22-.05-19.82-.03-6.24-.04-12.47-.03-18.7 0-2.27 0-4.55-.02-6.82-.15-19.46 2.25-37.92 10.86-55.57.97-2.1 1.93-4.19 2.89-6.29.48-1.04.96-2.07 1.45-3.14 3.5-7.8 6.52-15.81 9.53-23.8.72-1.91 1.45-3.8 2.18-5.7 2.68-7.34 3.98-14.91 5.22-22.6.07-.44.07-.44.45-2.67.13-.79.25-1.58.38-2.4.65-1.96.65-1.96 3.65-3.96l1 3 5 1c-3.07 24.23-9.8 44.89-19.03 67.52-.29.71-.58 1.43-.88 2.17-.24.58-.48 1.16-.73 1.76-7.24 18.98-8.01 37.53-8.1 57.66-.02 3.5-.06 6.99-.1 10.48-.08 6.8-.13 13.6-.16 20.41l-2 1-1 68h4v37c1.48.49 1.48.49 9 3 .87.35 1.74.71 2.64 1.08 9.91 3.85 21.36 6.02 31.36 1.92 5.99-.69 9.64.2 15 3 6.51.59 12.37-1.14 18.62-2.82l3.1-.79c9.32-2.46 9.32-2.46 13.28-5.39.64-2.38.64-2.38.66-5.21l.06-3.22c-.01-1.14-.01-2.28-.02-3.46.01-.59.01-.59.05-3.55.04-3.75.05-7.5.06-11.25.02-2.54.05-5.08.08-7.62.06-6.23.09-12.46.11-18.69l6-1v-69l-5 1c-.06-1.04-.13-2.07-.19-3.13-.87-3.03-1.73-3.82-4.42-5.57-7.23-3.44-14.56-5.7-22.39-7.3-.75-.18-1.5-.35-2.27-.52-5.57-.98-11.27-.77-16.92-.8-.67 0-1.34 0-2.03-.01-11.08-.02-21.17 1.17-31.78 4.33-1.33.33-2.67.67-4 1-.92-22.66.47-42.14 7-64 2.13-7.35 4.24-14.67 5.93-22.13 1.06-4.62 2.14-9.22 3.32-13.8.22-.85.44-1.69.66-2.56.41-1.59.83-3.18 1.25-4.77 2.11-8.22 3.35-16.29 4.84-24.74h39l-1-10v-11l-47 1-2 6h-1v-1.89c.03-6.46.04-12.91.05-19.37.01-2.41.01-4.82.02-7.23.01-3.46.02-6.92.02-10.38.01-1.09.02-2.17.02-3.28v-3.04c0-.88.01-1.77.01-2.68-.12-2.13-.12-2.13-1.12-4.13-.31-4.96-.36-9.92-.41-14.89-.02-1.66-.05-3.31-.1-4.97-.07-2.39-.09-4.78-.11-7.17l-.09-2.24c.01-2.1.01-2.1.71-5.73 7.02-6.43 16.28-5.19 25.2-5.19"/><path fill="#b72c26" d="M50 62h1l1 44 2-6h47c1 11 1 11 1 21H63l-1 10c-.35 2.01-.74 4.01-1.19 6-.26 1.18-.52 2.35-.79 3.57-.34 1.47-.68 2.95-1.02 4.43-.46 2.05-.93 4.1-1.39 6.15-2.49 10.97-5.06 21.9-8.04 32.75-1.26 4.65-2.48 9.31-3.69 13.98-.26.96-.51 1.92-.77 2.92-.49 1.87-.98 3.74-1.45 5.61-.4 1.56-.81 3.11-1.26 4.65-2.18 8.11-1.86 16.66-2.02 25l-.12 4.94c-.1 4-.18 8-.26 12 .67-.27 1.33-.53 2.02-.8 11.7-4.49 22.36-5.54 34.86-5.51 1.27-.02 2.54-.03 3.85-.05 13.42-.01 33.07 2.33 43.27 12.36.5 3.31.5 3.31 0 6l5-1v69l-6 1c.01.66.03 1.31.04 1.99.13 6.81.22 13.62.29 20.43.03 2.55.07 5.09.12 7.63.08 3.66.11 7.31.14 10.97l.09 3.45c0 2.96-.06 5.63-.68 8.53-3.37 3.29-6.86 4.53-11.37 5.7-.99.26-1.97.52-2.99.78s-2.03.51-3.08.77c-.5.13-.5.13-3.06.81-12.89 3.3-12.89 3.3-18.38.44-4.13-1.99-7.6-2.02-12.12-1.5-.8.33-1.61.66-2.44 1-6.95 2.71-14.49.8-21.56-.69-.74-.15-1.47-.29-2.23-.45-6.43-1.45-10.51-3.73-16.77-6.86v-37h-4v-68l3-1-.03-2.13c-.11-6.73-.18-13.47-.23-20.2q-.03-5.19-.12-10.38c-.37-22.86 1.97-42.7 10.88-63.85.93-2.27 1.85-4.55 2.78-6.82.45-1.09.9-2.18 1.37-3.31 6.1-14.91 10.1-29.26 12.4-45.19.86-5.94.86-5.94 1.95-8.12-.76.06-1.53.12-2.31.19C52 121 52 121 50.35 119.83c-1.87-2.53-1.68-4.19-1.6-7.31l.06-3.4.12-3.66c.02-1.24.05-2.48.08-3.76.07-3.29.16-6.58.25-9.87.09-3.35.16-6.71.24-10.07.15-6.59.32-13.17.5-19.76"/><path fill="#faf8f5" d="M118.688 334.938c.4 0 .4 0 2.45.03.31 0 .31 0 1.86.03.15 7.33.26 14.67.33 22 .03 2.49.07 4.99.13 7.48.07 3.59.1 7.17.13 10.76l.09 3.38c0 2.91-.06 5.54-.68 8.38-3.37 3.28-6.87 4.54-11.37 5.71-.99.25-1.97.51-2.99.78-1.01.25-2.03.5-3.07.76-1.02.27-2.03.54-3.07.81-12.89 3.3-12.89 3.3-18.37.44-4.14-1.98-7.61-2.01-12.13-1.5-.4.17-.4.17-2.43 1-7.01 2.74-14.58.77-21.69-.75-.75-.15-1.51-.31-2.28-.47-.37-.09-.37-.09-2.23-.51-.32-.08-.32-.08-1.97-.45-3.61-1.23-6.98-3.11-10.4-4.82v-39c9.01-2.25 9.01-2.25 13.51-3 .98-.16 1.96-.33 2.97-.49 1.02-.17 2.04-.34 3.09-.51s2.1-.35 3.19-.53a495 495 0 0 1 21.71-3.07c2.53-.4 2.53-.4 3.53-1.4 2.33-.36 4.65-.66 6.99-.94.36-.04.36-.04 2.13-.25l6.76-.81c2.24-.26 4.49-.53 6.73-.8 1.4-.17 2.8-.34 4.2-.5 4.44-.53 8.4-1.82 12.88-1.76"/><path fill="#130504" d="M75.203 14.815c2.09 0 4.19-.02 6.28-.04 16.9-.07 16.9-.07 22.22 3.31 2.04 3.02 1.72 6.21 1.7 9.72v2.32c.01 1.61 0 3.22-.01 4.84-.02 2.46 0 4.92.02 7.39 0 1.57-.01 3.14-.01 4.7 0 .37 0 .37.01 2.23-.05 4.3-.59 6.5-3.41 9.72-1.5 3.83-1.13 7.98-1.1 12.04v2.07l.03 7.64c.03 5.69.05 11.38.07 17.25h-47c-.32-19.25-.32-19.25-.39-25.31-.03-1.59-.07-3.18-.1-4.77-.01-.82-.01-1.65-.02-2.49-.12-4.7-.59-6.69-3.49-10.43-.33-2.72-.49-5.2-.51-7.91 0-.38 0-.38-.03-2.31-.01-1.61-.02-3.21-.02-4.82-.01-2.46-.06-4.91-.12-7.37-.01-1.56-.01-3.12-.01-4.69-.03-.73-.05-1.46-.07-2.22.03-2.08.03-2.08.76-5.68 7.04-6.42 16.27-5.19 25.2-5.19"/><path fill="#f7f5f3" d="M30 397c4.53 1 9.05 2.01 13.57 3.04.75.16 1.5.33 2.28.51 1.52.34 3.05.69 4.58 1.04 3.49.78 6.89 1.45 10.45 1.92 3.82.6 5.47 1.69 8.12 4.49 2 6.14.58 10.42-2 16 4.09 1.15 8.03 1.11 12.25 1.06.75 0 1.49-.01 2.26-.01 1.83-.01 3.66-.03 5.49-.05-.47-.91-.95-1.81-1.44-2.75-2.85-5.94-2.85-5.94-2.11-9.29.27-.66.53-1.33.8-2.02.25-.67.51-1.35.77-2.04 1.1-2.12 2.16-3.34 3.98-4.9 2.82-.6 5.53-1.07 8.38-1.44 6.97-1.01 13.28-2.49 19.92-4.89 3.04-.75 4.76-.7 7.7.33 2.33 3.49 2.24 4.86 2.2 8.98-.01 1.16-.02 2.33-.02 3.53l-.06 3.68c0 1.22-.01 2.45-.02 3.71-.03 3.04-.06 6.07-.1 9.1-4.24.69-8.15 1.05-12.44.81-4.69-.05-7.51.77-11.52 3.1-14.15 7.54-32.13 6.37-47.04 2.09-1.83-.85-3.65-1.75-5.44-2.69-6.02-3.04-11.68-2.68-18.25-2.39C29 428 29 428 27 427c-.09-4.25-.14-8.5-.19-12.75-.02-1.21-.05-2.41-.07-3.66l-.03-3.51c-.02-1.07-.03-2.14-.05-3.24.38-3.17 1.21-4.51 3.34-6.84"/><path fill="#666461" d="M50 62h1l1 44 2-6h47c1 11 1 11 1 21H63l-1 10c-.35 2.01-.74 4.01-1.19 6-.26 1.18-.52 2.35-.79 3.57-.34 1.47-.68 2.95-1.02 4.43-.46 2.05-.93 4.1-1.39 6.15-2.49 10.97-5.06 21.9-8.04 32.75-1.26 4.65-2.48 9.31-3.69 13.98-.26.96-.51 1.92-.77 2.92-.49 1.87-.97 3.74-1.45 5.61-.4 1.56-.82 3.11-1.28 4.64-1.43 5.16-1.5 10.2-1.48 15.53v2.36c.01 3.27.02 6.53.1 9.8.11 5.2.13 10.16-1 15.26-2.24 2.01-4.15 2.78-6.96 3.8C31 259 31 259 30.17 261.41c-.28 3-.32 5.89-.23 8.9-.01 1.03-.02 2.06-.02 3.11-.02 2.53.01 5.05.08 7.58h-2c-.12-7.44-.21-14.89-.26-22.33q-.03-5.19-.12-10.38c-.37-22.86 1.97-42.7 10.88-63.85.93-2.27 1.85-4.55 2.78-6.82.45-1.09.9-2.18 1.37-3.31 6.1-14.91 10.1-29.26 12.4-45.19.86-5.94.86-5.94 1.95-8.12-.76.06-1.53.12-2.31.19C52 121 52 121 50.35 119.83c-1.87-2.53-1.68-4.19-1.6-7.31l.06-3.4.12-3.66c.02-1.24.05-2.48.08-3.76.07-3.29.16-6.58.25-9.87.09-3.35.16-6.71.24-10.07.15-6.59.32-13.17.5-19.76"/><path fill="#ceaf87" d="M76.875 246.688c1.27-.02 2.54-.03 3.86-.05 13.42-.01 33.06 2.33 43.26 12.36.5 3.31.5 3.31 0 6h4v2c-.39.06-.39.06-2.42.35-33.26 4.79-66.45 10.03-99.58 15.65v-2h4l-.15-1.92c-1.3-17.98-1.3-17.98 1.99-22.73 2.7-1.6 5.16-2.5 8.16-3.35.9-.37 1.8-.75 2.73-1.13 11.11-4.58 22.25-5.21 34.15-5.18"/><path fill="#a73f37" d="M91 280c-.21.95-.41 1.9-.62 2.88-.72 4.91.5 9.35 1.62 14.12.34 1.67.67 3.33 1 5-3.39.39-4.74.17-7.62-1.75-2.09-1.98-3.77-3.88-5.38-6.25.62 5.54.62 5.54 2.56 7.88.48.37.95.74 1.44 1.12l-8 2 7 1v4c.88-.14 1.76-.29 2.67-.44 1.16-.18 2.32-.37 3.52-.56 1.15-.19 2.29-.37 3.48-.56 2.83-.37 5.48-.53 8.33-.44v5H90c.16.82.16.82 1 5h4l1-4c1 1 1 1 1.06 4.56L97 322l-1-2h-4v7l9-2v-3h2v6c-26.48 6.33-26.48 6.33-34 6v2c1.48-.17 1.48-.17 9-1v2c-5.72.83-11.23 1.13-17 1.06-.77 0-1.55-.01-2.35-.01-1.88-.01-3.77-.03-5.65-.05.88-3.88.88-3.88 2-5q.06-3 0-6h-1l-2-6h-1l-1 10c-2.14.17-2.14.17-13 1l.78-6.74C38 323 38 323 38 320h-2v-4l-2-2 6.31-1.5c1.17-.28 2.35-.56 3.55-.84C47 311 47 311 50 311c-.66-.78-1.32-1.57-2-2.38-2-2.62-2-2.62-2-4.62l7-3c-.11-1.58-.24-3.17-.38-4.75-.06-.88-.13-1.76-.21-2.67C52 291 52 291 50 287l11-2c-.19 1.34-.37 2.68-.56 4.06-.48 4.23-.24 7.77.56 11.94l5 1c.22-6.06-.53-11.12-2-17l8-2-1 3-2 1c.12 1.19.24 2.38.36 3.61l.39 4.7c.08.79.16 1.57.25 2.38.16 2.17.26 4.15 0 6.31-3.28 3.81-7.26 3.6-12 4 1.58.05 3.17.09 4.75.12.88.03 1.76.05 2.67.08C68 308 68 308 72 306c-.16-2.97-.16-2.97-1-18h2v-4c3.12-.94 3.12-.94 7-1 2.44 2.03 4.22 4.38 6 7v-7h-3v-2c2.71-1.35 5.01-1.07 8-1"/><path fill="#fcf9f8" d="M66.165 60.855c.36 0 .36 0 2.15-.02h2.24c.39 0 .39 0 2.36-.01 1.64-.01 3.27-.01 4.9-.01 2.51 0 5.01-.02 7.51-.04 1.6 0 3.19 0 4.79-.01.74 0 1.49-.01 2.26-.02 3.76.02 5.42.12 8.62 2.26.27 2.69.35 5.16.3 7.85-.01.68-.01 1.37-.01 2.08-.02 2.56-.06 5.13-.1 7.69-.06 5.73-.12 11.47-.19 17.38h-47v-36c9.01-1.13 9.01-1.13 12.17-1.15"/><path fill="#c52e2d" d="M72.645 34.867h7.56c2.62.01 5.23 0 7.85 0h4.97c.78 0 1.57 0 2.37-.01 5.49.03 5.49.03 6.61 1.14.07 2.19.08 4.38.06 6.57l-.03 3.62-.03 2.81h-4c.16.33.16.33 1 2l3 1-2 7h-45c-1.94-4.84-2.25-8.26-2.13-13.31l.03-2.24c.02-1.82.06-3.63.1-5.45 6.48-2.86 12.67-3.15 19.64-3.13"/><path fill="#fcfbfb" d="M77.125 246.625c1.26-.01 2.53-.03 3.83-.04 14.84.07 29.37 3.53 42.05 11.42v7c-5.42 1.23-5.42 1.23-8.38.06-.54-.35-1.07-.7-1.62-1.06v2h-2v2c-1.32-.33-2.65-.67-4-1v-4c-.33.66-.66 1.31-1 2h-3v-2c-.31.04-.31.04-1.87.28-.81.11-1.61.23-2.45.34-.4.06-.4.06-2.42.35-2.26.03-2.26.03-5.26-1.97.32-1.32.65-2.64 1-4-3.12-1.61-4.4-2.19-7.82-1.13-.72.37-1.44.74-2.18 1.13-1.32-1.32-2.65-2.64-4-4-3 1-3 1-4 3h-2c-.33.66-.66 1.31-1 2v-2h-7c-.56 2.07-1 3.84-1 6h-5v2h-2v-2c-2.32.66-4.63 1.31-7 2v-2c1.32-.67 2.64-1.32 4-2-2 0-2 0-5 2-3.64 1.14-7.32 2.04-11 3l-1 11c.99-.33 1.98-.67 3-1v3c-2.65.32-5.29.65-8 1v-22c15.73-8.5 28.25-11.24 46.12-11.38"/><path fill="#c82923" d="M127 268v48l-1-2-4-1c-.16-1.81-.16-1.81-1-11h-2c.16 1.49.16 1.49 1 9-.74-.33-1.48-.66-2.25-1-2.75-1-2.75-1-6.75-1v3c.7.11 1.4.22 2.12.33.45.08.45.08 2.76.48.9.15 1.8.3 2.74.46C121 314 121 314 123 317c.44 2.94.44 2.94 0 6-2.12 2.52-3.66 3.86-7.01 4.21-2-.02-3.99-.11-5.99-.21-.5.17-.5.17-3 1v-6l9 1 1-3q-.915-.165-1.86-.33l-2.45-.48c-.8-.15-1.6-.3-2.43-.46-2.55-.82-3.64-1.62-5.26-3.73-.41-3.23-.26-5.35.94-8.38 3.32-2.62 6.98-1.93 11.06-1.62v-2c-1.61.28-3.21.58-4.81.88-.9.16-1.79.32-2.71.49C107 305 107 305 104 307c-2.7-.02-2.7-.02-5.69-.38-.99-.11-1.99-.22-3.01-.33-.76-.1-1.52-.19-2.3-.29 3.33-3.87 7.13-4.26 12-5 3.06-.12 3.06-.12 5 0v-2H99l1-3c.07-2.57.09-5.12.06-7.69 0-.7-.01-1.4-.01-2.12-.01-1.73-.03-3.46-.05-5.19-3.88 1.75-3.88 1.75-5 4h-2v-5c3.98-1.85 7.44-2.36 11.81-2.62 1.16-.08 2.33-.15 3.52-.23.44-.03.44-.03 2.67-.15l2 6-3-2c-.83-.17-.83-.17-5-1l2 15 3 1-1-2c-.07-1.87-.08-3.75-.06-5.62.01-1.01.02-2.01.02-3.04.02-.77.03-1.55.04-2.34l8 2c-1-3.79-1.81-6.72-4-10-6.91-1.17-14.24.36-21.05 1.56-2.71.4-5.22.52-7.95.44 2.5-3.07 4.55-3.55 8.41-4.13 1.07-.17 2.15-.34 3.25-.51 1.12-.16 2.25-.32 3.4-.48 1.1-.17 2.19-.34 3.32-.52 5.89-.89 11.76-1.63 17.69-2.11 2.69-.35 4.08-1.25 6.93-1.25"/><path fill="#409743" d="M50 62h1l1 44 2-6h47c1 11 1 11 1 21H63l1-20h-6c.01.69.02 1.38.04 2.09.05 6.07-.25 11.89-1.04 17.91-4.49.36-4.49.36-6.65-1.17-1.87-2.53-1.68-4.19-1.6-7.31l.06-3.4.12-3.66c.02-1.24.05-2.48.08-3.76.07-3.29.16-6.58.25-9.87.09-3.35.16-6.71.24-10.07.15-6.59.32-13.17.5-19.76"/><path fill="#5d5d5d" d="M27 427c17.75-.88 17.75-.88 26.25 3.69 13.56 6.46 30.76 5.95 44.75 1.31 9.38-3.38 9.38-3.38 11-5 2.86-.07 5.7-.09 8.56-.06.81 0 1.62.01 2.45.01 1.99.01 3.99.03 5.99.05v2l-2.71.48c-5.76 1.11-11.1 2.15-16.29 4.96-14.8 7.88-32.58 9.2-48.75 4.87-4.99-1.67-9.66-3.79-14.26-6.36C42 432 42 432 39 432l1 1c.12 1.63.18 3.26.21 4.89.03 1.02.05 2.03.08 3.07l.09 3.29c.28 8.95.95 17.16 3.62 25.75-5.38.19-7.81-.45-12-4-3.43-5.08-4.51-8.43-4.61-14.68-.02-.7-.03-1.4-.05-2.13-.05-2.21-.07-4.42-.09-6.63l-.09-4.53c-.07-3.67-.12-7.35-.16-11.03"/><path fill="#8b2524" d="M113 276c3 5.69 3 5.69 3 9-4.75-.88-4.75-.88-7-2 .11 1.75.24 3.5.38 5.25.03.49.03.49.21 2.95.39 2.7 1.05 4.47 2.41 6.8-4.88-1.88-4.88-1.88-6-3a192 192 0 0 1-.56-7.56c-.05-.71-.09-1.42-.13-2.16-.11-1.76-.21-3.52-.31-5.28 4.75-.12 4.75-.12 7 1-.16-.66-.16-.66-1-4l-17 3-1 5h2l2-4h3c2.2 13.2 2.2 13.2-1 18h11v2l-16 4c.89.1.89.1 5.38.62.99.12 1.99.24 3.02.36.86 0 1.72.01 2.6.02l2-2c2.38-.41 2.38-.41 5.12-.62.92-.08 1.83-.15 2.76-.23L117 303v2c-.31.02-.31.02-1.9.11-.82.07-1.63.13-2.48.2-.81.06-1.62.12-2.46.18C108 306 108 306 106 309c-.38 3-.38 3 0 6 2.99 3.47 6.61 3.58 11 4v4c-1 1-1 1-3.81 1.19-3.06-.18-4.63-.61-7.19-2.19v8c-5.82 2.24-11.81 3.12-17.94 4.12-1.06.19-2.12.37-3.21.56-5.35.88-10.42 1.55-15.85 1.32v-2c1.06-.18 2.13-.36 3.23-.55 8.38-1.45 16.71-3.02 25.01-4.9C100 328 100 328 103 328v-6h-2v3l-9 2v-7h4v-5l-1 3h-4v-4l-2-1c1-1 1-1 3-1.13.8 0 1.61 0 2.44.01.4-.01.4-.01 2.43-.01C99 312 99 312 101 313v-5c-.71.14-1.43.29-2.16.44-5.38 1.04-10.36 1.8-15.84 1.56v-4h-9c2.94-2.5 5.18-3.47 9-4-.66-.56-1.32-1.11-2-1.69-2-2.31-2-2.31-2.25-5.06.08-.74.16-1.49.25-2.25.74.76 1.48 1.53 2.25 2.31 3.87 3.79 6.31 5.93 11.75 6.69-.47-.89-.95-1.77-1.44-2.69-2.33-5.41-2.73-11.46-2.56-17.31l2-3-2-1c3.06-.54 6.12-1.05 9.19-1.56.86-.15 1.73-.31 2.62-.46 8.61-1.42 8.61-1.42 12.19.02"/><path fill="#752720" d="M86.188 279.375c.6.21 1.2.41 1.81.62-1.65.33-3.3.67-5 1v2h3c1.36 2.71 1.07 5.01 1 8-2.91-2.21-4.95-3.92-7-7-3.62-.18-3.62-.18-7 0v4h-2c.15.72.29 1.43.44 2.17 2.21 11.4 2.21 11.4 1.56 15.83-2.37 2.46-4.18 2.95-7.56 3.18-2.49.01-4.95-.04-7.44-.18-.33-.66-.66-1.31-1-2 .31-.02.31-.02 1.87-.14.8-.08 1.61-.15 2.44-.23l2.43-.21c2.26-.42 2.26-.42 5.26-2.42.28-3.32.11-6.24-.37-9.54-.99-6.96-.99-6.96 1.31-10.08.68-.45 1.36-.91 2.06-1.38-.76.33-1.52.67-2.31 1-2.69 1-2.69 1-5.69 1 .66 1 1.32 1.99 2 3 1.1 4.71 1.09 9.2 1 14-2.37.63-2.37.63-5 1-2.73-2.73-2.46-4.62-2.75-8.43-.05-.58-.05-.58-.29-3.5.04-3.07.04-3.07 2.04-6.07-.7.33-1.4.67-2.12 1-3.14 1.1-5.58 1.16-8.88 1 .48.56.95 1.12 1.44 1.69 1.75 2.59 2.16 4.29 2.5 7.38.11.85.22 1.71.34 2.6-.28 2.33-.28 2.33-2.02 4.14-2.26 1.19-2.26 1.19-6.26 1.19.66.79 1.32 1.57 2 2.38 2 2.62 2 2.62 2 4.62-5.81 1.51-11 2.22-17 2 .01-.7.03-1.4.04-2.12.05-5.72-.01-11.23-1.04-16.88-.66-.66-1.32-1.31-2-2v-3h3l1-3c.82-.04 1.65-.09 2.49-.14 1.12-.08 2.24-.15 3.39-.23.54-.03.54-.03 3.3-.21 2.94-.32 5.62-.77 8.49-1.39 6.94-1.45 13.96-1.78 21.03-2.24 1.02-.07 2.05-.15 3.11-.22.93-.06 1.85-.12 2.81-.19 3.13-.49 4.39-2.55 7.57-2"/><path fill="#ac9a7c" d="M52 348c2 2 2 2 2.12 5.62L54 357l-3-1 1 1 1 3 3 2v2c-3.75 1.12-3.75 1.12-6 0l1 5 2-1v-2l4-1-1 5h2l-1 3c-2.06.69-2.06.69-4 1v-3h-2l1 4h6v2c2.17-.51 4-1 6-2 2.12.94 2.12.94 4 2 .16-.17.16-.17 1-1-.8-.27-1.61-.54-2.44-.81-.84-.39-1.69-.79-2.56-1.19l-1-3h2v-3c3.93-1.85 6.99-2.22 11.31-2.12 1.07.01 2.14.03 3.24.05.81.02 1.62.05 2.45.07l-1 6 3 1c-.16-.99-.16-.99-1-6l5 1-2 9h2v-2h3v-2l-2-1h3v7c-4.18 1.59-7.53 2.21-12 2v-2h-2l-1 2h2v2c-.62-.14-1.24-.29-1.88-.44-2.67-.48-5.17-.7-7.87-.87-5.31-.48-9.55-2.25-14.25-4.69v2l4 1c-3 1-3 1-6 0l-4-4c-3.04-1.96-5.4-2.54-9-2-2.31 2-2.31 2-4 4h2v3h-2l-1 3v-9l3-1-2-5h5v2h2l-1-6-6 2 1-5h4l-1-3c-.35-3.82-.53-6.13 1.5-9.44 3.71-2.32 6.16-1.98 10.5-1.56"/><path fill="#efd1ce" d="M93 67v3c-1 1-1 1-3 2v2h3v2l2 1v2h-4v2h5c.16.66.16.66 1 4-3.76 2.55-6.83 3.55-11.31 4.19-1.07.16-2.14.31-3.24.48-.81.11-1.62.22-2.45.33v-5h-2c.19.8.37 1.61.56 2.44.15.84.29 1.69.44 2.56-1 1-1 1-3.56 1.06L73 91v-2l-3-1v4h-5l2-1v-6h-3l-1 4-4-1c-.16-2.47-.16-2.47-1-15 19.5-3.75 19.5-3.75 23-2v-2c4.12-1.29 7.67-2.26 12-2"/><path fill="#bbaa8d" d="M105.191 347.04c.39.1.39.1 2.37.59.79.17 1.57.35 2.38.53 2.06.84 2.06.84 4.06 3.84.39 5.03-.07 9.32-2 14-2.63 1.44-2.63 1.44-5 2l-2-4c-3.81 2.77-4.07 6.63-5 11h2l1-7h3v2h2l1-1c2.06.44 2.06.44 4 1v2h3v-2l-3-1c.16-.49.16-.49 1-3l2 2v-3l-2-2h3c1 1 1 1 1.1 3.72-.02 1.11-.03 2.21-.04 3.34l-.03 3.35-.03 2.59h-2l2 6c-3.88 1.19-6.92 2-11 2l-2-2c4.31-3.08 4.31-3.08 7.81-2.69.72.23 1.44.46 2.19.69v-3l-2-1 1-2c-6.78 1.23-12.07 3.27-18.06 6.63-.77.42-1.54.84-2.34 1.27-1.87 1.02-3.74 2.06-5.6 3.1l9 1v-3l-3-1h7l1-2c.12 1.14.25 2.27.37 3.44.21 1.17.42 2.35.63 3.56l2 1h-4l-1 3c-5.31.11-10.8.18-16-1l-1-2 2-2-4-2c.59-.17 1.18-.34 1.79-.51 4.85-1.49 8.43-2.96 12.21-6.49l2 1c-.52-.39-1.03-.78-1.56-1.19-.48-.59-.95-1.19-1.44-1.81.31-2.69.31-2.69 1-5h3l-1-7 4-1c-.08-.25-.08-.25-.5-1.5-.73-3.64-.74-6.78-.5-10.5 1.62-2.35 2.29-3.01 5.19-2.96"/><path fill="#c8a47b" d="M76 253c2.49 1.2 4.68 2.45 7 4l2.94-1.06L89 255c2.38 1.38 2.38 1.38 4 3l-1 4c3.45.86 5.6.94 9 0l2 1v2h3c-.16-.5-.16-.5-1-3l6 1-3 1v3l3 1v-2h2v-2l10 1v-6h1v6h4v2c-.44.07-.44.07-2.69.4-19.44 2.85-38.88 5.72-58.31 8.6v-3h-2v2h-2l1-5h-3l1 4-2 1c-1.35-2.71-1.07-5.01-1-8l3 1 1-3c1.46 2.65 2 3.89 2 7h4l-1-4 3 1v-3h2v3l9 1v-2h-7l1-6c-.66-.45-1.32-.91-2-1.38-.66-.53-1.32-1.07-2-1.62v-2h2z"/><path fill="#b73433" d="M66.844 18.734c.85 0 1.69 0 2.57-.01 1.78 0 3.57.01 5.35.01 2.73.02 5.45 0 8.18-.01 1.74 0 3.47.01 5.21.01.41 0 .41 0 2.46-.01 4.25.03 7.51.32 11.39 2.28l-1 5h-4c.16.33.16.33 1 2l3 1v4c-.75-.01-1.5-.01-2.27-.02-14.95-.09-29.82-.01-44.73 1.02l1-5c4.95-.81 9.65-1.12 14.68-1.1h2.12l6.63.03c1.51.01 3.02.01 4.53.02 3.68.01 7.36.02 11.04.05v-3c-24.6.75-24.6.75-36.37 2.79-.87.07-1.74.14-2.63.21-2-2-2-2-2.13-4.63.04-.78.08-1.57.13-2.37 4.62-2.34 8.78-2.3 13.84-2.27"/><path fill="#b8a88f" d="m117 401 2 1-1 2c.5.33.5.33 3 2l-1 2-6-3v2l-1 1 4 1 1 5-4 2v-2c-.33.17-.33.17-2 1l1 2h-2v2l9-3v3c-2.55 2.55-3.89 2.4-7.44 2.69-.97.08-1.93.17-2.93.26C107 422 107 422 104 421v2c-3.21 1.6-6.52 1.49-10 1-3.45-2.1-5.71-4.13-7-8-.44-2.44-.44-2.44 0-5 2.5-2.81 2.5-2.81 5-5l-3-2c1.81-.17 1.81-.17 11-1v2c2.46-.28 4.92-.57 7.38-.88.69-.07 1.39-.15 2.11-.23 5.28-.66 5.28-.66 7.51-2.89"/><path fill="#212425" d="M65.504 173.902c.5.01.5.01 3.06.04 1.01 0 2.02.01 3.06.02.4.01.4.01 2.38.04l-4 4h2v3h2v-2h3l1 3 3-1v-2h4l-1-5h7c.17 3.58.28 7.16.37 10.75.03.51.03.51.15 3.08.06 2.84.04 5.38-.52 8.17-3.25 3.1-4.92 3.92-9.38 4.25-.87-.08-1.73-.17-2.62-.25v2h-3v-2l5-2c-.19-.95-.38-1.9-.57-2.88-.43-3.12-.43-3.12.57-5.12v-4c-.33.16-.33.16-2 1l-1 3h-3v2h-2l1-6-3 1-1 3h-2v2l4 1v2c-4.75-.88-4.75-.88-7-2 .56 1.94.56 1.94 2 4 3.62.75 3.62.75 7 1v2c-3.8.35-5.56.28-8.82-1.81-2.98-2.99-3.31-5.34-3.32-9.39v-2.42c0-.82.01-1.65.01-2.51 0-.83-.01-1.67-.01-2.53.01-7.3.01-7.3 3.64-7.44"/><path fill="#bd3030" d="M53 38h1v11l3.92-.03c4.78-.04 9.56-.06 14.34-.08 2.07-.01 4.15-.02 6.22-.04 2.97-.03 5.94-.04 8.92-.05l2.82-.03h2.61c.76 0 1.51-.01 2.3-.01C97 49 97 49 99 51l3 1-2 7H55c-1.94-4.84-2.24-8.26-2.12-13.31 0-.74.01-1.48.02-2.25.03-1.81.06-3.63.1-5.44"/><path fill="#c5533c" d="M27 427c17.75-.88 17.75-.88 26.25 3.69 13.56 6.46 30.76 5.95 44.75 1.31 9.38-3.38 9.38-3.38 11-5 2.86-.07 5.7-.09 8.56-.06.81 0 1.62.01 2.45.01 1.99.01 3.99.03 5.99.05v2l-2.71.48c-5.76 1.11-11.1 2.15-16.29 4.96-14.8 7.88-32.58 9.2-48.75 4.87-4.8-1.6-9.09-3.73-13.52-6.14-5.61-2.4-11.74-3.19-17.73-4.17z"/><path fill="#ba2a26" d="m72 283-1 3-2 1c.12 1.19.24 2.38.36 3.61l.39 4.7c.08.79.16 1.57.25 2.38.16 2.17.26 4.15 0 6.31-3.28 3.81-7.26 3.6-12 4l7 1v1c-4.87 1.59-8.81 2.21-14 2l-1 3c-1.65.17-1.65.17-10 1l6 1v2h-5v3h5v2h-4v3l6-2v3l-10 2v-10h-2v-4l-2-2 6.31-1.5c1.17-.28 2.35-.56 3.55-.84C47 311 47 311 50 311c-.66-.78-1.32-1.57-2-2.38-2-2.62-2-2.62-2-4.62l7-3c-.11-1.58-.24-3.17-.38-4.75-.06-.88-.13-1.76-.21-2.67C52 291 52 291 50 287l11-2c-.19 1.34-.37 2.68-.56 4.06-.48 4.23-.24 7.77.56 11.94l5 1c.22-6-.49-11.19-2-17 5.75-2 5.75-2 8-2"/><path fill="#a74025" d="M76 399.813c.68.01 1.36.01 2.06.02 1.94.17 1.94.17 4.94 1.17v2h3v2l2 1-2 2c-.74 2.24-.74 2.24-1.31 4.87-.2.87-.41 1.73-.62 2.62-.09 3.18.95 4.11 2.93 6.51v3c-3.35 1-6.45 1.16-9.94 1.19-1.02.01-2.04.02-3.09.04-3.04-.24-5.22-.95-7.97-2.23.16-.26.16-.26.95-1.58 3.22-5.77 3.22-5.77 2.36-9.11-.43-.76-.86-1.53-1.31-2.31-.84-2.86-1.22-4.36-.25-7.19 2.26-3.28 4.46-4.08 8.25-4"/><path fill="#f8f2f0" d="M80 312v2h-2c.28 2.48.57 4.96.88 7.44.07.7.15 1.41.23 2.14.23 1.82.55 3.62.89 5.42l2 1v2l-12 1 1-2c.07-1.71.08-3.42.06-5.12L71 321l-4 10c-4.01-2-5.41-3.49-8-7v8l3 1v2l-9 1 2-3c.36-5.46-.12-9.79-2-15l-2-2c3.67-1.22 6.14-1.47 10-1 2.07 1.81 3.38 3.73 5 6l2 1 3-9c3.15-.7 5.73-1 9-1"/><path fill="#180e0e" d="M75.203 14.815c2.09 0 4.19-.02 6.28-.04 16.9-.07 16.9-.07 22.22 3.31 2.04 3.02 1.72 6.21 1.7 9.72v2.32c.01 1.61 0 3.22-.01 4.84-.02 2.46 0 4.92.02 7.39 0 1.57-.01 3.14-.01 4.7 0 .37 0 .37.01 2.23-.05 4.17-.38 6.74-3.41 9.72-.33.16-.33.16-2 1-.2-3.72-.15-4.78 2-8l-4-1v-2h4c-.14-2.11-.29-4.21-.44-6.32-.08-1.17-.16-2.34-.25-3.55-.31-3.13-.31-3.13-1.31-6.13.43-2.19.43-2.19 1-4l-4-1v-2l4-1v-4c-4.24-1.2-8.37-1.15-12.75-1.14h-7.94c-2.74.01-5.47 0-8.21 0h-7.69c-3.94.01-7.57.16-11.41 1.14v-2h3v-3c6.4-1.23 12.71-1.19 19.2-1.19"/><path fill="#8d6445" d="M76.313 365.875c1.07.02 2.14.04 3.24.05.81.03 1.61.05 2.45.07-.33 1.99-.66 3.96-1 6 .99.33 1.98.67 3 1-.33-1.98-.66-3.95-1-6 .82.17.82.17 5 1-.66 2.98-1.32 5.94-2 9h2v-2h3v-2c-.66-.32-1.32-.66-2-1h3v7c-4.18 1.6-7.53 2.22-12 2v-2h-2c-.33.67-.66 1.32-1 2h2v2c-2.77-.52-5.33-1.1-8-2-1-2-1-2-2-5-.41-.16-.41-.16-2.5-1-.41-.16-.41-.16-2.5-1l-1-3h2v-3c3.93-1.85 6.99-2.22 11.31-2.12"/><path fill="#95332d" d="M126 264h3v69c-2.57-2.57-2.54-4.48-3-8-.8.64-1.61 1.28-2.44 1.94-3.38 2.28-6.4 2.64-10.41 2.88-2.15.18-4.08.6-6.15 1.18.81-1.94.81-1.94 2-4 3-1 3-1 5.94-.88 3.06-.12 3.06-.12 5.44-1.24C122 323 122 323 122.44 320c-.44-3-.44-3-1.44-4.81-3.18-1.89-6.33-1.89-10-2.19l-1-4c3.38-1.06 4.58-1.21 7.81.44q1.08.765 2.19 1.56l-1-9h2l2 11c.5.17.5.17 3 1l.03-1.77c.11-6.07.22-12.13.34-18.2.05-2.27.09-4.53.13-6.8.05-3.25.12-6.5.18-9.75.02-1.02.04-2.04.05-3.09l.06-2.85c.02-.83.04-1.66.05-2.52C127 267 127 267 128 265z"/><path fill="#fdfcfa" d="M55 377c.53.2 1.07.41 1.62.62 5.1 1.85 9.74 2.73 15.14 3.13 2.65.3 4.85 1.06 7.24 2.25v-2h-2l1-3 2 1v2l11-1c-2.8 4.2-6.22 4.94-11 6v2c-4.75 1.12-4.75 1.12-7 0v-2l-4 2 1 2c-2.64.17-2.64.17-16 1l-1-3c-2.06-.69-2.06-.69-4-1h3l-2-4h2v-3h6l-3-1z"/><path fill="#f6f0ed" d="M47 288c3.05 2.32 4.73 3.78 5.56 7.56-.76 3.29-1.85 4.44-4.56 6.44-3.25.75-3.25.75-6 1 1 3 1 3 5 7-2.14.17-2.14.17-13 1 .21-1.3.41-2.6.62-3.94.7-6.1-.7-11.3-2.62-17.06 10.75-2.68 10.75-2.68 15-2"/><path fill="#8c443f" d="M93 67v3c-1 1-1 1-3 2v2h3v2l2 1v2h-4v2h5c.62 1.87.62 1.87 1 4-2 2-2 2-5.12 2.12L89 87v-2h5v-2h-5c-.56-1.94-.56-1.94-1-4l1-1-2-1v-6h-3l2 6c-1.94.56-1.94.56-4 1l-1-1-1 2h-3l-1-6-3 1-2-1v5l4-1v3c-2.81.69-2.81.69-6 1-1.62-1.44-1.62-1.44-3-3h-4l1 4h-3l-2-9c19.4-3.8 19.4-3.8 23-2v-2c4.12-1.29 7.67-2.26 12-2"/><path fill="#c4bba4" d="M53 403c1.81.17 1.81.17 11 1l-2 2 2 2.12c2.36 3.4 2.59 4.83 2 8.88-1.67 3.49-2.74 4.83-6 7-7.14.45-7.14.45-9.95-1.03-2.55-1.21-4.19-1.01-6.99-.78-4.56.13-4.56.13-6.82-1.3-1.36-1.39-1.36-1.39-3.24-3.89 3.2-1.07 5.66-1.07 9-1l-1-2-3-1v-2c1.16-.17 1.16-.17 7-1v2l6-1-1 3-7 1v2c2.88.19 2.88.19 6 0l2-3 2.88 1c3.12 1 3.12 1 5.12 1 2-4.75 2-4.75 2-7-.38-.12-.38-.12-2.31-.75C56 407 56 407 53 403"/><path fill="#d1c1a0" d="M70.55 60.832c.39 0 .39 0 2.37-.01 1.63-.01 3.26-.01 4.9-.01 2.5 0 5.01-.02 7.51-.04h4.78c.75-.01 1.5-.02 2.27-.02 3.75.01 5.41.11 8.62 2.25.27 2.69.35 5.16.29 7.85 0 .69 0 1.37-.01 2.08-.01 2.56-.05 5.13-.09 7.69-.07 5.74-.13 11.47-.19 17.38H56v-1c9.05-1.14 18.02-1.12 27.12-1.06 1.55 0 3.09.01 4.64.01 3.74.01 7.49.03 11.24.05v-31H54v-3c5.56-.79 10.94-1.16 16.55-1.17"/><path fill="#553b31" d="M113 276c3 5.69 3 5.69 3 9-4.75-.88-4.75-.88-7-2 .11 1.75.24 3.5.38 5.25.03.49.03.49.21 2.95.39 2.7 1.05 4.47 2.41 6.8-4.88-1.88-4.88-1.88-6-3a192 192 0 0 1-.56-7.56c-.05-.71-.09-1.42-.13-2.16-.11-1.76-.21-3.52-.31-5.28 4.75-.12 4.75-.12 7 1-.16-.66-.16-.66-1-4-2.81.45-5.63.91-8.44 1.38-.8.12-1.6.25-2.43.38-2.06.34-4.09.79-6.13 1.24-2.15 4.3-1.39 9.74 0 14.19.33.93.66 1.85 1 2.81q.06 3 0 6c-7.1 1.82-13.65 3.43-21 3 2.94-2.5 5.18-3.47 9-4-.66-.56-1.32-1.11-2-1.69-2-2.31-2-2.31-2.25-5.06.08-.74.17-1.49.25-2.25.74.76 1.48 1.53 2.25 2.31 3.87 3.79 6.31 5.93 11.75 6.69-.47-.89-.95-1.77-1.44-2.69-2.33-5.41-2.73-11.46-2.56-17.31l2-3-2-1c3.06-.54 6.12-1.05 9.19-1.56.86-.15 1.73-.31 2.62-.46 8.61-1.42 8.61-1.42 12.19.02"/><path fill="#f7f2f1" d="M91 280c-.1.47-.1.47-.62 2.88-.72 4.91.5 9.35 1.62 14.12.34 1.67.67 3.33 1 5-3.39.39-4.74.17-7.62-1.75-2.09-1.98-3.77-3.88-5.38-6.25.5 4.47.69 5.69 4 9-1.65.17-1.65.17-10 1l2-3c.63-6.13-1.06-11.27-3-17 3.12-.94 3.12-.94 7-1 2.44 2.03 4.22 4.38 6 7v-7h-3v-2c2.71-1.35 5.01-1.07 8-1"/><path fill="#ccb595" d="m86 257 3 1h-2v3l4-3-1 4h-3c1.81 1.06 1.81 1.06 4 2l3-1c6.66-1.17 6.66-1.17 9 0v2h3l-1-3c.99.17.99.17 6 1l-3 1v3l3 1v-2h2v-2l10 1v-6h1v6h4v2c-8.95 1.71-17.75 2.35-26.84 2.66l-2.63.09c-.39.02-.39.02-2.35.08-2.16.17-4.1.58-6.18 1.17l-1-4-3 1c-2.62-.31-2.62-.31-5-1l-1-2c-.33.17-.33.17-2 1-.12-2.38-.12-2.38 0-5l2-2c2.06.38 2.06.38 4 1h1z"/><path fill="#de9e60" d="M127 331c.16.33.16.33 1 2-4.18 1.92-8.31 2.65-12.83 3.25-.75.11-1.5.22-2.27.32-2.38.34-4.76.67-7.15.99-1.59.23-3.17.45-4.76.67-12.41 1.74-12.41 1.74-18.22 2.3-3.55.44-6.4 1.34-9.77 2.47-3.36.6-6.74 1.02-10.12 1.44-1.96.25-3.91.51-5.86.76-1 .13-1.99.26-3.01.4-7.68 1.03-15.35 2.23-23.01 3.4v38h-1v-38l-4-1c11.14-2.55 22.34-4.45 33.62-6.25 1.87-.3 3.73-.6 5.59-.9 5.93-.96 11.86-1.9 17.79-2.85 2.1-.34 4.2-.67 6.29-1.01 12.57-2 25.14-4 37.71-5.99"/><path fill="#f8f1ef" d="M119.063 305.75c.94 2.25.94 2.25.94 5.25-.37-.17-.37-.17-2.25-1-2.75-1-2.75-1-6.75-1v3c.7.11 1.39.22 2.11.33.91.16 1.82.32 2.76.48.91.15 1.81.3 2.74.46 2.39.73 2.39.73 4.39 3.73.44 2.94.44 2.94 0 6-2.12 2.52-3.66 3.86-7.01 4.21-2-.02-4-.11-5.99-.21l-3 1v-6l9 1 1-3c-.31-.05-.31-.05-1.87-.33-.8-.16-1.61-.32-2.45-.48-.4-.08-.4-.08-2.42-.46-2.55-.82-3.65-1.62-5.26-3.73-.41-3.21-.28-5.31.94-8.31 3.72-3.05 9.3-4.18 13.12-.94"/><path fill="#3a703b" d="M50 62h1l1 44 2-6h47v1H58v11c-.29 3-.61 6.01-1 9-4.49.36-4.49.36-6.65-1.17-1.87-2.53-1.68-4.19-1.6-7.31l.06-3.4.12-3.66c.02-1.24.05-2.48.08-3.76.07-3.29.16-6.58.25-9.87.09-3.35.16-6.71.24-10.07.15-6.59.32-13.17.5-19.76"/><path fill="#f5efec" d="M101 308v5H90l1 5h4l1-4c1 1 1 1 1.06 4.56L97 322l-1-2h-4v7l9-2v-3h2v6c-2.23.51-4.46 1-6.69 1.5-1.24.28-2.48.56-3.76.84-2.97.55-5.54.8-8.55.66l1-2c.07-2.72.09-5.41.06-8.12 0-.76-.01-1.51-.01-2.29-.01-1.86-.03-3.73-.05-5.59h-2v-2c2.06-.51 4.12-1.01 6.19-1.5 1.15-.28 2.29-.56 3.48-.84 2.9-.57 5.39-.79 8.33-.66"/><path fill="#6f281e" d="m62.063 309.938 2.94.06c.14 1.24.29 2.48.44 3.75.34 2.82.76 5.52 1.56 8.25-4.88-3.75-4.88-3.75-6-6h-7v2l1 1c.14 2.67.04 5.33 0 8h-1l-2-6h-1l-1 10c-2.15.17-2.15.17-13 1v-2c7.62-2 7.62-2 11-2v-3l-3 2h-3v-3h4v-2h-5v-3h5v-2h-7l1-2c2.58-.39 5.14-.51 7.75-.65.74-.12 1.48-.23 2.25-.35l1-2c2.32-.37 4.66-.71 7-1 1-1 1-1 4.06-1.06"/><path fill="#f6f1ef" d="m72 283-1 3c-.33.17-.33.17-2 1 .12 1.19.24 2.38.36 3.61l.39 4.7c.08.79.16 1.57.25 2.38.44 5.8.44 5.8-1.73 8.33-3.69 1.59-6.26 1.3-10.27.98l-3-2c-.42-3.62-.44-7.17-.5-10.81-.16-1.05-.33-2.11-.5-3.19-2.04-1.44-2.04-1.44-4-2v-2l11-2c-.19 1.34-.37 2.68-.56 4.06-.48 4.23-.24 7.77.56 11.94l5 1c.22-6-.49-11.19-2-17 5.75-2 5.75-2 8-2"/><path fill="#fcfbf9" d="M116 375c-.33.17-.33.17-2 1l2 5c-.93-.23-1.86-.45-2.81-.69-3.19-.31-3.19-.31-5.07 1.13-.37.51-.74 1.03-1.12 1.56h3l1-2 1 2 6-1c-.33 2.47-.58 3.66-2.56 5.25-3.98 1.23-8.64 1.65-12.44-.25a80 80 0 0 1-2-5l-4 1 1 3c-3 1-4.17 1.01-7.19.56-1.26-.18-2.51-.37-3.81-.56 3.43-3.96 7.31-5.94 11.94-8.19.7-.35 1.4-.71 2.13-1.07 9.91-4.9 9.91-4.9 14.93-1.74"/><path fill="#c1b7a0" d="M36 404h9v2c.57-.18 1.13-.36 1.72-.54 3.93-.79 7.55.23 11.28 1.54 2.56 2.12 2.56 2.12 4 4-1.25 3.65-1.67 4.78-5 7l-1-2a80 80 0 0 0-5-2l-2 4c-.99-.17-.99-.17-6-1v-2c1.16-.17 1.16-.17 7-1-1.45-1.45-3.04-1.56-5-2v-2c-.29.17-.29.17-1.75 1-2.25 1-2.25 1-6.25 1l-1-3 2-1v-2z"/><path fill="#f6eee2" d="M54.438 259.813c3.56.19 3.56.19 5.56 2.19-1.07-.02-2.14-.04-3.25-.07-2.9.05-5.03.2-7.75 1.07v2l3 1v6l-3-1v2l-6 1v2h2v2l-6 1-1-2h-3l1-11c3.6-1.62 7.07-3.09 10.88-4.13 7.32-2.05 7.32-2.05 7.56-2.06"/><path fill="#fcf8f3" d="M64 256c3.62.38 3.62.38 7 1v2c.4.14.4.14 2.44.88C76 261 76 261 77 263c-.94 2.62-.94 2.62-2 5h7v2l-9-1v-3h-2l1 4h-3v2h-4l-2-6-1 2h-2l-1 4-4 1v-3l3 1-1-3c.44-2.69.44-2.69 1-5h5c-.21-.78-.41-1.57-.62-2.38-.13-.86-.25-1.73-.38-2.62z"/><path fill="#242727" d="M74 149h3v2h4v3l7-2v2h-3v3c-.33.16-.33.16-2 1-.62 2.56-.62 2.56-1 5l10 1v1H62v-2h11v-3h-2c-3-5.75-3-5.75-3-8 .62-.12 1.24-.25 1.88-.38C72 151 72 151 74 149m0 8v3Z"/><path fill="#c12e2b" d="M73 286c3.38 3.38 3.94 7.07 4.25 11.75C77 301 77 301 75 303l1 2c2.32.41 4.66.74 7 1v4l2 1-3 1v-2l-13 2 1 5c-.94 2.81-.94 2.81-2 5-3.15-3.42-3.66-6.42-4-11 1-2 1-2 8-5l-1-18h2z"/><path fill="#2d302f" d="M65.504 173.902c.5.01.5.01 3.06.04 1.01 0 2.02.01 3.06.02.4.01.4.01 2.38.04l-3 2c-1.08 4.05-.88 6.96 0 11l-1 3h-2v2l4 1v2c-4.75-.88-4.75-.88-7-2 .56 1.94.56 1.94 2 4 3.62.75 3.62.75 7 1v2c-3.8.35-5.56.28-8.82-1.81-2.98-2.99-3.31-5.34-3.32-9.39v-2.42c0-.82.01-1.65.01-2.51 0-.83-.01-1.67-.01-2.53.01-7.3.01-7.3 3.64-7.44"/><path fill="#ad3a3a" d="M80.508 34.794c2.58.02 5.16.02 7.74.02 1.64.01 3.28.01 4.91.02h2.34c5.39.05 5.39.05 6.5 1.17.08 2.18.09 4.37.06 6.56 0 1.2-.01 2.39-.02 3.63-.01.92-.03 1.85-.04 2.81h-4l-1 3v-3h-32v-1h35c-.16-1.65-.16-1.65-1-10-3.32-.75-6.4-1.13-9.81-1.14h-2.74c-.95 0-1.9.01-2.89.01-.97 0-1.94 0-2.95.01-7.57.04-15.07.4-22.61 1.12v11h-4v-12c8.86-2.3 17.43-2.28 26.51-2.21"/><path fill="#a89677" d="M100 403v2h10l-1 4-10-1v-2c-2.5 1.06-2.5 1.06-5 3-.69 3.44-.69 3.44 0 7 3 2.31 3 2.31 6 4v2l3-1-1 3c-7.2.49-7.2.49-10.88-1.75-2.72-2.89-3.86-4.8-4.56-8.69.63-3.68 2.7-5.16 5.44-7.56l-3-2c7.62-1 7.62-1 11-1"/><path fill="#f8f2ef" d="m111 277 2 6-3-2c-1.66-.38-3.32-.73-5-1 .26 2.44.53 4.88.81 7.31.07.69.14 1.38.22 2.09.36 3.03.62 5.16 2.54 7.58L110 298c-3.67 1.18-7.17 1.07-11 1l1-3c.07-2.57.09-5.12.06-7.69 0-.7-.01-1.4-.01-2.12-.01-1.73-.03-3.46-.05-5.19-3.88 1.75-3.88 1.75-5 4h-2v-5c5.85-2.66 11.63-3.16 18-3"/><path fill="#791d1e" d="M53 38h1v11h42v3c-5.28.16-5.28.16-32 1l-1 4-7 1-1-6 3-1-5-1z"/><path fill="#b23011" d="M120.848 329.902c2.05.03 4.1.07 6.15.1v2c-1.07.17-2.14.34-3.24.51-3.29.53-6.58 1.05-9.87 1.57-3.88.62-7.76 1.24-11.65 1.85-9.87 1.57-19.74 3.15-29.61 4.75l-13.68 2.22c-2.21.35-4.42.72-6.63 1.08-3.11.51-6.23 1.01-9.34 1.51-.92.16-1.85.31-2.8.47-4.44.71-8.66 1.22-13.18 1.04 10.22-6.82 28.25-6.24 40.19-7.66 3.94-.48 7.88-1 11.81-1.53l3.56-.48c.41-.06.41-.06 2.44-.33v-2c1-.12 1.99-.23 3.02-.35 3.67-.43 7.35-.87 11.03-1.31 1.59-.19 3.18-.37 4.78-.56 2.28-.26 4.57-.54 6.86-.81l2.17-.25c2.91-.35 5.36-1.68 7.99-1.82"/><path fill="#b19f82" d="m103 347 3 1-1 2 2.38-.12C110 350 110 350 112 352c1.12 2.72 1.26 4.35.17 7.11-1 2-2.05 3.95-3.17 5.89l-1-3c-.65.06-.65.06-3.94.38-.73.06-1.46.13-2.21.21-.61.13-1.22.27-1.85.41l-1 2 1 1-3 1 1-5h3c-.17-.5-.33-.99-.5-1.5-.73-3.64-.74-6.78-.5-10.5 1.5-2 1.5-2 3-3"/><path fill="#965939" d="M76 399.813c.68.01 1.36.01 2.06.02 1.94.17 1.94.17 4.94 1.17v2l3 1-1 3c-.6-.1-1.21-.19-1.83-.29-.8-.11-1.6-.22-2.42-.34-.39-.06-.39-.06-2.39-.35-2.36-.02-2.36-.02-6.36 1.98l2 11-4 1 2 5 5-1v2l-10-1c0-3 0-3 1.62-5.88 1.38-3.12 1.38-3.12.63-5.69-.41-.8-.83-1.6-1.25-2.43-.84-2.86-1.22-4.36-.25-7.19 2.26-3.28 4.46-4.08 8.25-4"/><path fill="#3a100c" d="M109 319h8v4c-1 1-1 1-3.81 1.19-3.06-.18-4.63-.61-7.19-2.19v8c-5.82 2.24-11.81 3.12-17.94 4.12-1.06.19-2.12.37-3.21.56-5.35.88-10.42 1.55-15.85 1.32v-2l3.23-.55c8.38-1.45 16.71-3.02 25.01-4.9C100 328 100 328 103 328v-8l9 1z"/><path fill="#3f100d" d="M119 302h2c.11.75.22 1.5.33 2.27.16.98.32 1.97.48 2.98.15.97.3 1.95.46 2.95.77 2.95 1.86 4.45 3.73 6.8.58 3.93.35 5.48-1.88 8.81-2.85 2.94-4.54 3.32-8.5 3.69-2.97.28-5.74.71-8.62 1.5.81-1.94.81-1.94 2-4 3-1 3-1 5.94-.88 3.06-.12 3.06-.12 5.44-1.24C122 323 122 323 122.44 320c-.44-3-.44-3-1.44-4.81-3.18-1.89-6.33-1.89-10-2.19l-1-4c3.38-1.06 4.58-1.21 7.81.44q1.08.765 2.19 1.56z"/><path fill="#a03531" d="m109 283 3 1c-.33.17-.33.17-2 1 .26 1.63.53 3.25.81 4.88.15.9.3 1.8.46 2.74C112 295 112 295 115 297v4l6-1 2 4-2 2v-4h-2l-1 4-1-2c-1.6.11-3.21.24-4.81.38-.9.06-1.79.13-2.71.21C107 305 107 305 104 307c-2.7-.02-2.7-.02-5.69-.38-.49-.05-.49-.05-3.01-.33-.76-.1-1.52-.19-2.3-.29 3.33-3.87 7.13-4.26 12-5 3.06-.12 3.06-.12 5 0v-2l-4-1 5-1-2-3c-.2-2.7-.2-2.7-.12-5.69.01-.99.03-1.99.05-3.01.02-.76.05-1.52.07-2.3"/><path fill="#9d3431" d="M97 281h3c2.2 13.2 2.2 13.2-1 18l3 1h-5l-1 2c-2.91-6.94-4.49-12.46-4-20l1 3h2z"/><path fill="#92c888" d="M58 101h6c.03 3.15.05 6.29.06 9.44l.03 2.72c0 .85 0 1.71.01 2.59 0 .79.01 1.58.01 2.39C64 120 64 120 63 121q-3 .06-6 0c-.11-6.74.3-13.3 1-20"/><path fill="#93724f" d="M76.313 365.875c1.07.02 2.14.04 3.24.05.81.03 1.61.05 2.45.07-.88 4.88-.88 4.88-2 6q-3 .075-6 0v3h-9c-.66-1.31-1.32-2.63-2-4h2v-3c3.93-1.85 6.99-2.22 11.31-2.12"/><path fill="#4a1510" d="M52 287h-2c.48.56.95 1.11 1.44 1.68 1.75 2.6 2.16 4.3 2.5 7.38.11.86.22 1.72.34 2.6C54 301 54 301 52.25 302.81 50 304 50 304 46 304c.66.78 1.32 1.57 2 2.38 2 2.62 2 2.62 2 4.62-5.81 1.51-11 2.22-17 2 3.75-3.75 7.98-3.69 13-4-.66-.43-1.32-.87-2-1.31-.66-.56-1.32-1.12-2-1.69v-3c1.11-.45 2.23-.91 3.38-1.38C49 300 49 300 51 298c.24-3.09-.01-5.03-1-8l-10-2v-1c8.57-1.29 8.57-1.29 12 0"/><path fill="#a69377" d="m55 365 2 1-1 4h2l-1 3c-2.06.69-2.06.69-4 1v-3h-2l1 4h6v2c2.17-.51 4-1 6-2q3.045 1.395 6 3l2 1c-2 2-2 2-4.56 2.38-4.63-.51-8.31-2.32-12.44-4.38v2l4 1c-3 1-3 1-6 0l-4-4c-1.64-1.04-3.3-2.06-5-3l3-1v-3h2l2-3v3l2-1v-2z"/><path fill="#ece7de" d="M99 406v2c.91-.25 1.81-.5 2.75-.75 3.25-.25 3.25-.25 5.5 1.63.58.7 1.16 1.4 1.75 2.12l2 1v-2h5v2c-.31.09-.31.09-1.9.52l-2.48.73-2.46.7c-2.62 1.27-3.15 2.37-4.16 5.05v-2l-3-1 2-6h-3l1 5-5 1c-.17-.82-.17-.82-1-5-.14.62-.29 1.24-.44 1.88C95 415 95 415 94 417c-1-1-1-1-1.31-4.38.31-3.62.31-3.62 2.19-5.56C97 406 97 406 99 406"/><path fill="#460404" d="M84.875 31.813h2.82c4.22.03 8.2.11 12.3 1.19v2c-1.04.02-2.08.05-3.16.07l-11.72.3-5.06.12c-2.43.06-4.87.13-7.3.19-.74.02-1.48.03-2.25.05-5.21.15-10.32.64-15.51 1.27-.32-.99-.65-1.98-1-3 10.31-1.34 20.48-2.2 30.88-2.19"/><path fill="#972c2e" d="M53 51h5l-2 7 3-1c1.33-.11 2.67-.18 4.01-.21l2.43-.06c.86-.01 1.72-.03 2.6-.05l2.68-.06 8.47-.18c1.91-.05 3.82-.09 5.74-.13 4.69-.11 9.38-.21 14.07-.31v-4h3l-2 7H55c-2-5-2-5-2-8"/><path fill="#af3e28" d="M27 427c10.96-.54 19.23-.57 29 5 1.66.69 3.32 1.36 5 2v1c-7.75-.88-7.75-.88-10-2l-1 3c-1.01-.6-2.02-1.2-3.06-1.81-6.2-3.15-13.15-4.02-19.94-5.19z"/><path fill="#c7b9a3" d="M37 362h6v2l4 1v3h2l1-2v5l-1-2h-2v3l2 1c-.6.03-1.21.05-1.83.08-6.61.47-6.61.47-9.73 2.98-.48.64-.95 1.28-1.44 1.94h2v3h-2l-1 3v-9l3-1-2-5h5v2h2l-1-6-6 2z"/><path fill="#b4a68d" d="M45 410v2l6-1-1 3-7 1v2c.99.17.99.17 6 1l-1 4c-8.78.77-8.78.77-11.78-1.11-1.34-1.39-1.34-1.39-3.22-3.89 3.2-1.07 5.66-1.07 9-1l-1-2-3-1v-2c4.75-1 4.75-1 7-1"/><path fill="#b03738" d="M63 20v4h31v1l-1.97.06c-11.57.37-22.97.75-34.4 2.73-.87.07-1.73.14-2.63.21-2-2-2-2-2.12-4.62L53 21c3.21-1.61 6.44-1.06 10-1"/><path fill="#540909" d="M94 25v3c-.46.01-.46.01-2.81.08-3.47.09-6.95.19-10.42.29-1.5.05-3 .09-4.49.13l-6.5.18c-.65.02-.65.02-3.93.11-4 .22-7.88.67-11.85 1.21l1-3c12.99-2.33 25.84-2.21 39-2"/><path fill="#d4c9b2" d="M101 380c1.46 2.65 2 3.89 2 7l2 1h-4l-1 3c-5.3.11-10.8.18-16-1l-1-2c2.28-2.07 3.44-2.98 6.58-3.07.88.12 1.76.25 2.67.38.45.06.45.06 2.7.37.34.05.34.05 2.05.32v-3l-3-1h7z"/><path fill="#3a0b07" d="M92.066 311.902c.41.01.41.01 2.5.04.82 0 1.65.01 2.5.02.64.01 1.28.03 1.93.04.88 2.99 1.11 5.63 1.07 8.75l-.03 2.42c-.01.6-.02 1.21-.04 1.83-2.9 1.25-4.79 2-8 2v-7h4v-5l-1 3h-4v-4l-2-1c1-1 1-1 3.07-1.1"/><path fill="#bf8e5c" d="M62 343c-10.13 3.28-20.49 4.52-31 6v38h-1v-38l-4-1c7.84-1.78 15.7-3.37 23.62-4.75.77-.14 1.54-.28 2.34-.42 3.68-.63 6.47-.9 10.04.17"/><path fill="#d0664e" d="m51 433 7.12.72c1.9.18 3.8.35 5.7.5.44.03.44.03 2.68.22.81.06 1.63.12 2.47.18C71 435 71 435 73 437c1.99.4 3.99.74 6 1v2h-8c-.67.05-1.34.09-2.03.14-6.82.3-11.84-1.22-17.97-4.14z"/><path fill="#bb9f7d" d="M76 253c2.49 1.2 4.68 2.45 7 4l2.94-1.06L89 255c2.38 1.38 2.38 1.38 4 3-.38 2.94-.38 2.94-1 6-.33.17-.33.17-2 1v-2h-2l-1 2v-3l2-1h-2l-1-3-1 4-2-2c-2.16.02-2.16.02-4.62.38-.82.11-1.64.22-2.48.33-.63.1-1.25.19-1.9.29l-2-4h2z"/><path fill="#340907" d="m71 285 2 1v2h-2c.14.71.29 1.43.44 2.16 2.21 11.4 2.21 11.4 1.56 15.84-2.37 2.45-4.19 2.95-7.56 3.17-2.49.02-4.95-.04-7.44-.17l-1-2 1.86-.15c.81-.07 1.62-.15 2.45-.23.8-.06 1.6-.13 2.43-.21C66 306 66 306 69 304c.47-5.68-.36-11.35-1-17z"/><path fill="#3e483e" d="M50 62h1l1 44 1-5h1c.21 6.64-.49 12.53-2 19l-3-2c-.32-2.37-.32-2.37-.25-5.37l.06-3.39.12-3.69c.02-1.24.05-2.48.08-3.75.07-3.3.16-6.6.25-9.9.09-3.36.16-6.73.24-10.09.15-6.6.32-13.21.5-19.81"/><path fill="#a89371" d="M52 348c2 2 2 2 2.12 5.62L54 357l-3-1 1 1c-.44 2.06-.44 2.06-1 4h-3l-1-7-1 3h-2l2-6h2v-2l-5 1v3h-2c.21.62.41 1.24.62 1.88.13.7.25 1.4.38 2.12l-2 2c-.48-6.22-.48-6.22 1.5-9.44 3.71-2.32 6.16-1.98 10.5-1.56"/><path fill="#f3e6d7" d="m86 257 3 1h-2v3l4-3-1 4h-3l3 1c.69 2.06.69 2.06 1 4h2v4h-3l-1-4-3 1c-2.62-.31-2.62-.31-5-1l-1-2c-.33.17-.33.17-2 1-.12-2.38-.12-2.38 0-5l2-2c2.06.38 2.06.38 4 1h1z"/><path fill="#d1c9bc" d="M58.188 408.375c.93.21 1.86.41 2.81.62.81 1.69.81 1.69 1 4-2.43 2.76-2.43 2.76-5 5-.33-.66-.66-1.31-1-2a80 80 0 0 0-5-2l-2 4c-.99-.16-.99-.16-6-1v-2l3.38-.24c1.19-.25 2.39-.5 3.62-.76 1.25-1.93 1.25-1.93 2-4 3-2 3-2 6.19-1.62"/><path fill="#d6a67a" d="M30 259h1v21l5.31-1c2.99-.56 5.64-1 8.69-1l1-3 1 2 1.88-1.06c4.49-1.35 8.53-.6 13.12.06v1l-36 6v-2h4z"/><path fill="#baad94" d="m52 380 3 2v2l2 1-2 5 12-3-1-4c5.46.35 5.46.35 8 1 1.5 2.06 1.5 2.06 2 4h-3v-2l-4 2 1 2c-2.64.17-2.64.17-16 1l-1-3c-2.06-.69-2.06-.69-4-1h3l-2-4h2z"/><path fill="#190100" d="M55 59h45v3c-5.61-.12-11.21-.24-16.82-.37-1.9-.05-3.81-.09-5.71-.13l-8.23-.18c-.85-.02-1.7-.04-2.57-.05-4.01-.1-7.76-.29-11.67-1.27z"/><path fill="#f0ece4" d="M105 363c2 3 2 3 2 5l5-2v-2l5 1-1 4h-2l2 1v2l-5-1v-2h-2l1 3h-2l-1 1-2-1c-.62-2.06-.62-2.06-1-4v7h-4c.49-7.38.49-7.38 3.06-10.5.64-.5 1.28-.99 1.94-1.5"/><path fill="#462e2e" d="M69.367 14.902h2.06c2.15.01 4.3.02 6.45.04a3830.74 3830.74 0 0 1 15.12.06v1l-26 1 18 1v1c-.79.02-1.58.05-2.4.07-3.59.12-7.19.24-10.78.37-.63.01-.63.01-3.78.11-1.2.05-2.4.09-3.64.13-1.11.04-2.21.07-3.35.11-2.77.19-5.34.59-8.05 1.21v-2h3v-3c4.52-.88 8.78-1.12 13.37-1.1"/><path fill="#e5cbc9" d="M66 77c.43.45.87.91 1.31 1.38 2.56 2.46 5.26 2.3 8.69 2.62-.33.17-.33.17-2 1v3c-2.67-.67-5.33-1.33-8-2l-1 2c-.67 1.33-1.33 2.67-2 4l-4-1V78l1 4h3l-1-4c1.81-.69 1.81-.69 4-1"/><path fill="#cbb7a7" d="M65 357h23v4H65z"/><path fill="#bf421d" d="M127 267c-3.54 2.36-5.64 3.18-9.8 3.72-.48.06-.48.06-2.9.39-1.01.13-2.01.26-3.05.39l-5.92.78c-.94.12-1.87.25-2.83.37-1.92.27-3.84.59-5.74.94-3.41.51-6.69.5-10.14.47-.62 0-.62 0-3.77-.02-.47-.01-.47-.01-2.85-.04v-1c.61-.08 1.22-.15 1.84-.23 11.59-1.44 23.1-2.98 34.57-5.22 3.59-.55 6.96-.65 10.59-.55"/><path fill="#7b2f2b" d="m78 81-1 7h2l-1 3h-5v-2l-3-1v4h-5l2-1-1-8c2.76.52 5.33 1.11 8 2v-3c2-1 2-1 4-1"/><path fill="#a15e3d" d="M76 399.813c.68.01 1.36.01 2.06.02 1.94.17 1.94.17 4.94 1.17v2l3 1-1 3c-.61-.09-1.23-.17-1.86-.26-.81-.1-1.62-.2-2.45-.31-.8-.1-1.6-.2-2.43-.31-2.26-.12-2.26-.12-5.26.88-2.19-.44-2.19-.44-4-1v-4c3.03-2.02 3.61-2.26 7-2.19"/><path fill="#ae3832" d="M83 313h2c1.5 3 1.09 5.79 1.06 9.12-.01 1.29-.02 2.57-.02 3.89-.02.99-.03 1.97-.04 2.99l-2 1c-2.31-1.82-2.95-2.76-3.51-5.7-.06-.99-.12-1.97-.18-2.99-.06-.99-.13-1.99-.2-3.01-.03-.76-.07-1.52-.11-2.3l3-1z"/><path fill="#c49d6f" d="M63 265c1.46 2.65 2 3.89 2 7 .56-.08 1.11-.17 1.69-.25 5.37-.72 9.96-.62 15.31.25-2.72 2.72-4.85 2.61-8.62 3.12-.6.09-.6.09-3.61.51-.91.12-1.83.25-2.77.37v-3h-2v2h-2l1-5h-3l1 4c-.33.17-.33.17-2 1-1.35-2.71-1.07-5.01-1-8l3 1z"/><path fill="#c83d3c" d="M58 38h5l1 9h18v1l-24 1z"/><path fill="#4e1a12" d="m82 310 1 5c-.33.17-.33.17-2 1l1 13h2v2c-2.44-.62-2.44-.62-5-2-1.52-4.79-1.1-10.01-1-15h2v-2l-11 2v-2c1.42-.34 2.83-.67 4.25-1 .39-.09.39-.09 2.39-.56C78 310 78 310 82 310"/><path fill="#c4b7a1" d="m117 401 2 1-1 2 3 2-1 2-6-3v2l-1 1 4 1 1 5-4 2-1-3 3-1v-2h-5v2l-3 1 1-6-2-1v-2c1.28-.12 2.56-.25 3.88-.38 3.87-.37 3.87-.37 6.12-2.62"/><path fill="#b09e81" d="M105 348c3.38.31 3.38.31 7 1 3.08 4.61 2.27 8.49 1.31 13.81-1.31 3.19-1.31 3.19-3.93 4.63-.79.18-1.57.37-2.38.56l-2-4-4 3c.25-1.88.25-1.88 1-4 2.06-1.25 2.06-1.25 4-2l3 2c3.14-6.17 3.14-6.17 2.5-9.88-1.5-2.12-1.5-2.12-4.12-2.93-.4-.03-.4-.03-2.38-.19z"/><path fill="#f5efec" d="M46 317v2h-5v3h5v2h-4v3l6-2v3l-10 2v-10h-2v-2c3.38-1.04 6.48-1.08 10-1"/><path fill="#042506" d="M101 106c4 4 4 4 4.46 6-.01.33-.01.33-.08 2-.02.66-.03 1.32-.04 2-.34 2-.34 2-2.34 6H63v-1h39c-.16-2.47-.16-2.47-1-15"/><path fill="#dbd1c0" d="m77 378 3 1v2c1.81-.17 1.81-.17 11-1-2.8 4.2-6.22 4.94-11 6v2l-5 1c-.17-.82-.17-.82-1-5l5-1v-2h-2z"/><path fill="#a33433" d="M94 36h8v13h-4l-1 3v-3H65v-1h35c-.16-1.65-.16-1.65-1-10-.83-.16-.83-.16-5-1z"/><path fill="#a4302b" d="M73 286c3.38 3.38 3.94 7.07 4.25 11.75C77 301 77 301 75 303l1 2-3 1-2-18h2z"/><path fill="#9d472f" d="m84 404 4 2-2 2c-.6 1.69-1.14 3.4-1.62 5.12-.14.46-.14.46-.79 2.76-.2.7-.39 1.4-.59 2.12l-2-1v-3h-4c1-2 1-2 3-5h-3v-3c2.31-.62 2.31-.62 5-1l3 2z"/><path fill="#431e19" d="M119 302h2c.36 1.75.72 3.5 1.06 5.25.2.97.4 1.95.6 2.95.32 2.67.2 4.29-.66 6.8-.33-.47-.66-.95-1-1.44-3.1-2.42-6.12-2.24-10-2.56l-1-4c3.38-1.06 4.58-1.21 7.81.44q1.08.765 2.19 1.56z"/><path fill="#56211b" d="m79 293 10 10c-5.36 2.68-9.01 3.32-15 3 2.94-2.5 5.18-3.47 9-4-.66-.56-1.32-1.11-2-1.69-2-2.31-2-2.31-2.25-5.06.08-.74.17-1.49.25-2.25"/><path fill="#fdfcfb" d="m106 350 5 1c1.25 2.5 1.25 2.5 2 6-1 2.87-2.41 5.41-4 8l-1-3-6 1 1-4 7 1v-6c-4.75 1.88-4.75 1.88-7 3v-6h2v2l2-1z"/><path fill="#922625" d="m101 311 1 3c1.66.69 3.33 1.35 5 2 1.7 1.29 3.37 2.63 5 4l3 2c-4.03-.55-8.02-1.16-12-2v2h-2l-1 3-1-12h2z"/><path fill="#d0bfa4" d="M54.438 259.813c3.56.19 3.56.19 5.56 2.19-1.07-.02-2.14-.04-3.25-.07-2.9.05-5.03.2-7.75 1.07l1 4-4-1v-2l-2 2-2 2h-3l-3 8 2 1h-3l1-11c3.6-1.62 7.07-3.09 10.88-4.13 7.32-2.05 7.32-2.05 7.56-2.06"/><path fill="#842b26" d="M84 68c1 3 1.51 5.88 2 9-1.94.56-1.94.56-4 1l-1-1-1 2h-3l-1-9 4 1h1v-2z"/><path fill="#340706" d="M89 282h3c1.22 6.99 2.29 13.94 3 21l-7 1 1-2h4c-.47-.89-.95-1.77-1.44-2.69-2.39-5.47-2.3-11.43-2.56-17.31"/><path fill="#622016" d="M113 276c3 5.69 3 5.69 3 9h-3l-2-8c-2.81.45-5.63.91-8.44 1.38-.8.12-1.6.25-2.43.38-2.06.34-4.09.79-6.13 1.24l-1 2-3-1 1-2-2-1c3.06-.54 6.12-1.05 9.19-1.56.43-.08.43-.08 2.62-.46 8.61-1.42 8.61-1.42 12.19.02"/><path fill="#d9be9d" d="M40 266c2 1 2 1 3.19 4.44C44 274 44 274 43 276h2v2l-6 1v-3h-3c.28-1.48.58-2.96.88-4.44.16-.82.32-1.64.49-2.49.21-.69.41-1.37.63-2.07z"/><path fill="#b2302b" d="m62.063 309.938 2.94.06c.14 1.24.29 2.48.44 3.75.34 2.82.76 5.52 1.56 8.25-4.88-3.75-4.88-3.75-6-6-2.29-.63-2.29-.63-5.06-1.12-.46-.09-.46-.09-2.79-.51-.71-.12-1.42-.24-2.15-.37v-2c1.13-.14 2.27-.29 3.44-.44 3.65-.57 4.07-1.55 7.62-1.62"/><path fill="#f0dba6" d="M54 62c7.26.16 7.26.16 44 1v1c-4.02.15-8.03.29-12.05.43l-6.06.21c-8.63.3-17.25.42-25.89.36z"/><path fill="#c3b89a" d="m53 403 11 1-2 2c.66.72 1.32 1.44 2 2.19 2.15 3.03 2.41 4.21 2 7.81l-2-3-1 4-4 1c.33-1.11.66-2.23 1-3.38 1-3.62 1-3.62 1-5.62q-1.14-.375-2.31-.75C56 407 56 407 53 403"/><path fill="#150000" d="M73.078 15.805c.58 0 .58 0 3.52.02 1.2.02 2.41.03 3.65.05.61 0 .61 0 3.71.03 3.01.02 6.03.05 9.04.1l-1 3-29-1c4.07-2.04 5.68-2.24 10.08-2.2"/><path fill="#a13c22" d="m76 405 2 1-1 3h3l-2 4 1 1c-.44 2.06-.44 2.06-1 4l-2-2-3-1c-1.51-2.19-2.03-3.45-1.88-6.12.88-1.88.88-1.88 2.82-3.19.68-.23 1.36-.46 2.06-.69"/><path fill="#623e33" d="M71 320h1c.03 1.81.05 3.62.06 5.44.01 1.01.03 2.02.04 3.06C72 331 72 331 71 332l15-1c-5.66 3.77-12.42 3.13-19 3l-1-2c.73-2.07 1.56-4.11 2.44-6.12.23-.55.23-.55 1.43-3.33.37-.84.75-1.68 1.13-2.55"/><path fill="#474039" d="M30 387c1.48.66 1.48.66 9 4 .19 2.38.19 2.38 0 5l-3 2-3-1h2v-2l-5-1z"/><path fill="#683920" d="m83 367 5 1c-.63 2.93-1.59 5.36-3 8h-2v-2h-5l3 1-1 2-7-1 1-4c6.62-.12 6.62-.12 10 1z"/><path fill="#39130d" d="M52 287h-2c.48.56.95 1.11 1.44 1.68 1.75 2.6 2.16 4.3 2.5 7.38.11.86.22 1.72.34 2.6C54 301 54 301 52.14 302.83 50 304 50 304 47.75 303.69c-.58-.23-1.16-.46-1.75-.69h2l.94-1.94C50 299 50 299 51 298c.16-3.06-.02-5.06-1-8l-10-2v-1c8.57-1.29 8.57-1.29 12 0"/><path fill="#ab4531" d="M67 436h20v1h-6v3l6-1 1 2H66v-1h5l1-2 7 2v-2l-12-1z"/><path fill="#beab90" d="m74 367-1 2-2-1-1 5h3v2h-8l-2-4h2v-3c3.43-1.62 5.38-2.34 9-1"/><path fill="#5f0f0d" d="M73 32c3.56-.03 7.12-.05 10.69-.06.5-.01.5-.01 3.05-.03.98 0 1.95 0 2.96-.01.45 0 .45 0 2.71-.01 2.63.11 5.03.53 7.59 1.11v2c-4.12.09-8.25.14-12.38.19-1.17.02-2.35.05-3.56.07l-3.4.03c-1.03.02-2.07.03-3.14.05-.83-.11-1.66-.22-2.52-.34z"/><path fill="#e2d8c7" d="M48 349v2h-2l-2 6h2l1-4c1.01 3.62 1.5 7.28 2 11h-2v-2l-4-2h3l-5-1v-6h2v-3c3-1 3-1 5-1"/><path fill="#b0a17e" d="M100 403v2h10l-1 4-10-1v-2l-6 2-1-2-3-2c7.62-1 7.62-1 11-1"/><path fill="#260906" d="m52 37 2 1-1 12h6v1h-6c.33.56.66 1.11 1 1.69 1.13 2.61 1.16 4.49 1 7.31l7 1v1h-8c-4-6.75-4-6.75-4-9h2z"/><path fill="#2f0705" d="M112 432c-.97 2.4-1.62 3.75-3.81 5.2-5.48 2.32-11.19 4.52-17.19 4.8l-3-2c1.09-.33 2.17-.65 3.29-.99l4.33-1.32c.72-.22 1.43-.43 2.17-.65 4.53-1.39 9.66-5.04 14.21-5.04"/><path fill="#e3d8c7" d="M51 371h2v3l6-3v2l11 2-3 3-4-2-2 2-3-1v-2l-6 1c-.16-.82-.16-.82-1-5"/><path fill="#62211d" d="M109 319h8v4c-1 1-1 1-3.69 1.25-3.75-.28-6.07-1.4-9.31-3.25l1 8c-.33.17-.33.17-2 1l-3-2h3v-8l9 1z"/><path fill="#823230" d="M79 80h7l-2 2 2 1v2h-3v2l5-1v2c-2.91 1.26-4.8 2-8 2z"/><path fill="#ceb596" d="M64 256c3.62.38 3.62.38 7 1-.25 2.38-.25 2.38-1 5-1.88 1.38-1.88 1.38-4 2l-3-1c-.62-2.38-.62-2.38-1-5z"/><path fill="#99322c" d="M65 288h1c.95 4.76 1.08 9.17 1 14-.33.17-.33.17-2 1l-2-1c-.41-2.72-.41-2.72-.62-6.06-.08-1.11-.15-2.21-.23-3.35L62 290h3z"/><path fill="#43120d" d="m88 280-5 1v2h3c1.35 2.71 1.07 5.01 1 8-2.91-2.22-4.95-3.93-7-7-3.12-.69-3.12-.69-6-1 2.95-1.97 4.6-2.39 8-3 2.49-1.25 3.41-.78 6 0"/><path fill="#d2c9b0" d="M36 404h9l1 5c-3.44 2.29-4.72 3-9 3l-1-3 2-1v-2z"/><path fill="#c99465" d="M123 259h1v6h4v2l-17 2v-3h2v-2l10 1z"/><path fill="#c0b092" d="M101 380c1.46 2.65 2 3.89 2 7l2 1h-4l-1 3h-5l4-1v-2h-2v-5l-3-1h7z"/><path fill="#c03e41" d="M55 29h8v3h6v1c-5.08.85-9.85 1.09-15 1z"/><path fill="#272a2a" d="M66 183h2v2l3 1-1 4h-2v2l4 1v2c-4.75-.88-4.75-.88-7-2v-4h2v-2h-2z"/><path fill="#040708" d="M67 151c2 1 2 1 2.63 2.85.17.73.33 1.46.49 2.21.17.74.34 1.47.51 2.23.12.56.25 1.13.37 1.71h2v3h-7zm7 6v3Z"/><path fill="#7a2c29" d="m92.063 77.938 2.94.06-4 1v2h5c.62 1.88.62 1.88 1 4-2 2-2 2-5.13 2.13-.47-.02-.47-.02-2.87-.13v-2h5v-2h-5c-.56-1.94-.56-1.94-1-4 1-1 1-1 4.06-1.06"/><path fill="#3f0503" d="m93 331-1 2a99 99 0 0 1-7.62 1.62c-.35.07-.35.07-2.13.41-4.48.82-8.69 1.1-13.25.97v-2c2.69-.51 5.37-1.01 8.06-1.5.75-.14 1.51-.29 2.28-.43 4.64-.85 8.95-1.22 13.66-1.07"/><path fill="#e0d2cd" d="M91 280c-.17 1.05-.33 2.1-.5 3.19-.4 3.01-.59 5.78-.5 8.81l-3 1c-1.61-3.21-1.06-6.44-1-10h-3v-2c2.71-1.35 5.01-1.07 8-1"/><path fill="#d09c9a" d="M82 79c2.38-.19 2.38-.19 5 0l2 3c2.62.69 2.62.69 5 1v2h-5v2l3 1h-4v-2l-5 1v-2h3v-2l-3-1 1-1z"/><path fill="#43130e" d="M61 329c2.5 2.31 2.5 2.31 5 5v3c-2.14.17-2.14.17-13 1v-2c1.48-.17 1.48-.17 9-1z"/><path fill="#c8bead" d="m96 409 3 1-2 2 1 2-1 2 3 1c1.34.65 2.68 1.32 4 2l-1 4c-3.05-1.02-3.87-1.77-6-4l-2-1c-.75-2.88-.75-2.88-1-6z"/><path fill="#d4c9aa" d="m116 373 2 1v2h-2l2 6c-3.88 1.19-6.92 2-11 2l-2-2c4.31-3.08 4.31-3.08 7.81-2.69q1.08.345 2.19.69v-3l-2-1 3-1z"/><path fill="#703c33" d="M97 318h1v5h2l-1 3-7 1v-7h4z"/><path fill="#964038" d="M97 281h3c2.2 13.2 2.2 13.2-1 18l3 1h-5l2-12-3-1 3-5z"/><path fill="#e5dfd3" d="M65 382c2 3 2 3 2 5-1.62.5-3.25 1-4.88 1.5-.9.28-1.8.56-2.74.84C57 390 57 390 55 390c.19-1.88.19-1.88 1-4 2.68-1.52 4.25-2.12 7.31-1.62.56.2 1.12.41 1.69.62z"/><path fill="#ae9574" d="M89 372h3v7l-7 2c-1.5-1.38-1.5-1.38-3-3v-2l4-1v2h2v-2h3v-2z"/><path fill="#c4302c" d="M51 320c3 2 3 2 5 5-.38 3.69-.38 3.69-1 7l-4-1c-.19-1.65-.38-3.29-.56-4.94-.11-.91-.21-1.83-.32-2.77L50 321z"/><path fill="#510c08" d="M102 307c2.57 2.57 2.54 4.48 3 8l-4-1v-6c-.71.14-1.43.29-2.16.44-5.38 1.04-10.36 1.8-15.84 1.56v-1c6.2-1.45 12.61-2.94 19-2"/><path fill="#a8473f" d="M53 291c2 2 2 2 2.2 4.82-.03 1.09-.05 2.18-.08 3.3-.01 1.1-.03 2.2-.05 3.33-.02.84-.05 1.68-.07 2.55l-4 1-1 4a89 89 0 0 1-4-4v-2l7-3z"/><path fill="#af9676" d="m57 375 1 2c2.17-.51 4-1 6-2q3.045 1.395 6 3l2 1c-2 2-2 2-4.69 2.31-4.02-.38-6.68-1.57-10.31-3.31z"/><path fill="#e1a368" d="M90 269v2c.52-.33 1.04-.65 1.58-.99 3.17-1.32 5.75-1.2 9.17-1.13 1.17.01 2.34.03 3.55.05.44.01.44.01 2.7.07-7.24 3.99-15.95 3.14-24 3l1-2c2.09-.67 3.8-1 6-1"/><path fill="#e4c7a5" d="M70 263h4v5h8v2l-9-1v-3h-2l1 4-4-2v-3h2z"/><path fill="#ae503e" d="M83 418c2 1.81 2 1.81 4 4v3l-8 1c.5-3.69 1.1-5.6 4-8"/><path fill="#431511" d="M48 325h2v6c-2.14.17-2.14.17-13 1v-2c7.62-2 7.62-2 11-2z"/><path fill="#ba2727" d="M102.688 302.813c.59.01.59.01 3.57.08.91.04 1.81.07 2.74.11-4.19 3.95-4.19 3.95-7.89 4.17-.96-.14-1.93-.28-2.92-.42-.98-.13-1.95-.26-2.96-.39-.73-.12-1.47-.24-2.23-.36 2.7-3.71 5.34-3.32 9.69-3.19"/><path fill="#e37658" d="M51 433c1.94.48 3.88.96 5.81 1.44.54.13.54.13 3.27.81 1.99.51 3.97 1.1 5.92 1.75v2l-14-2z"/><path fill="#c1a888" d="M89.688 255.625c2.31 1.38 2.31 1.38 3.25 3.25.08 2.57-.62 3.95-1.94 6.13-.33-.67-.66-1.32-1-2h-2c-.33.66-.66 1.31-1 2v-3c.66-.33 1.32-.67 2-1h-2c-.33-1-.66-1.99-1-3-.99-.33-1.98-.67-3-1 2.61-1.74 3.58-2.1 6.69-1.38"/><path fill="#e1caa8" d="M58 263h8c-1.28 1.71-2.62 3.37-4 5h-2l-1 4-4 1v-3l3 1-1-3c.44-2.69.44-2.69 1-5"/><path fill="#54a156" d="M54 101h4v11l-2-2-2 4z"/><path fill="#fcfbf9" d="M55 408c.99.17.99.17 6 1 .81 1.69.81 1.69 1 4-2.44 2.75-2.44 2.75-5 5l-1-2-3-1 1-3h3v3h2c-.31-2.38-.31-2.38-1-5z"/><path fill="#ad9d7b" d="M97.75 376.75c1.07.08 2.14.17 3.25.25-3.83 4.24-9.52 7.5-15.21 8.32-1.91-.01-1.91-.01-4.79-.32 2.15-1.11 4.21-2.07 6.5-2.87C90 381 90 381 91.87 378.87 94 377 94 377 97.75 376.75"/><path fill="#bc2325" d="M99 288v8h-4l-1-7c2-1 2-1 5-1"/><path fill="#050606" d="M17 371c2 2 2 2 2.05 4.79-.1 1.08-.2 2.16-.3 3.27-.09 1.09-.18 2.17-.27 3.29-.16.87-.32 1.75-.48 2.65-.33.17-.33.17-2 1-.03-2.31-.05-4.62-.06-6.94-.01-1.29-.03-2.57-.04-3.9C16 372 16 372 17 371"/><path fill="#ba8f60" d="M71 266h2v3c1.13.12 2.27.25 3.44.38 1.17.2 2.35.41 3.56.62l1 2H69l-1-4 3 1z"/><path fill="#fbeeed" d="M84 71h3v6l3 1c-3.09 2.06-3.71 2.24-7.19 2.12L79 80l2-4 4 1z"/><path fill="#cbc1a9" d="m117 401 2 1-1 2 3 2-1 2-6-3v2l-4 1v-3l-3-1c1.28-.12 2.56-.25 3.88-.38 3.87-.37 3.87-.37 6.12-2.62"/><path fill="#b6352f" d="m42.688 312.938 3.01.03c.38 0 .38 0 2.3.03v2l-8 1v2c-2.47-1.15-4.05-2.05-6-4 3.15-1.05 5.39-1.1 8.69-1.06"/><path fill="#f5eae6" d="m72 283-1 3c-.33.17-.33.17-2 1-.73 2.31-1.4 4.65-2 7h-1l-2-9c5.75-2 5.75-2 8-2"/><path fill="#54251f" d="m69 304 2 4c-3.01 1-5.04 1.1-8.19 1.06-.9-.01-1.8-.02-2.73-.02-.69-.02-1.37-.03-2.08-.04l-1-2 1.86-.15c.81-.07 1.62-.15 2.45-.23.8-.06 1.6-.13 2.43-.21C66 306 66 306 69 304"/><path fill="#8a352d" d="M73 286c3.44 3.44 3.97 7.11 4.12 11.88L77 301h-2l-1-12h-2l-1 3v-4h2z"/><path fill="#5b3126" d="M41 292c.83.17.83.17 5 1v5l-5 1z"/><path fill="#edb170" d="M77.188 271.438c.45.05.45.05 2.73.31.69.08 1.37.17 2.08.25-2.59 2.59-4.02 2.38-7.62 2.63-1.01.07-2.01.15-3.04.22-.39.03-.39.03-2.34.15v-3c3.2-1.06 4.89-.95 8.19-.56"/><path fill="#eed2b4" d="m95 266 1 2c1.05-.35 2.1-.7 3.19-1.06 3.65-.9 5.32-1.1 8.81.06l3 2c-1.73.2-3.46.38-5.19.56-.96.11-1.92.21-2.92.32-2.83.12-5.14-.2-7.89-.88z"/><path fill="#1c1d1e" d="M74 152c.12 5.75.12 5.75-1 8h-2c-3-5.75-3-5.75-3-8 3.75-1.12 3.75-1.12 6 0"/><path fill="#1d1514" d="M56 17v2h-3l.12 3.81c.12 3.48-.06 4.1-2.12 7.19-1.19-3.58-1.34-6.24-1-10 2.04-2.11 3.05-3 6-3"/><path fill="#e37152" d="M104 433v3c-2.57 1.28-4.77 1.33-7.62 1.56-1.01.09-2.01.17-3.04.26L91 438v-2c1.41-.51 2.83-1.01 4.25-1.5.79-.28 1.58-.56 2.39-.84C100 433 100 433 104 433"/><path fill="#595145" d="m28 429 10 2v1h-8l-1 9h-1z"/><path fill="#b8a393" d="M84 350h11v4l-4-1v-2h-2l-1 3h-4z"/><path fill="#44251a" d="M46 316h2v8h-2v-2h-5v-3h5z"/><path fill="#6e1c18" d="M58 73h8v1h-5v3l4 1h-3l1 4h-3z"/><path fill="#ab5f5b" d="M61 72h6l1 7-7-2z"/><path fill="#ab5c48" d="M69 417h1l2 8 5-1v2l-10-1c0-3.2.74-5.09 2-8"/><path fill="#a08e6a" d="m91 407 3 1c-.33.5-.33.5-2 3l-1 3-1-1-1 4-2-1c-.25-2.25-.25-2.25 0-5 2-2.31 2-2.31 4-4"/><path fill="#d7d0c4" d="M37 362h6l2 4c-1.48.17-1.48.17-9 1z"/><path fill="#e0ab74" d="m46 275 1 2 1.88-1.06c4.49-1.35 8.53-.6 13.12.06v1c-5.67 1.23-11.24 1.09-17 1z"/><path fill="#071606" d="M101 106c2.3 1.73 3.83 3.03 4.34 5.94.07 3.85-.18 5.82-2.34 9.06-.34-1.56-.67-3.12-1-4.69-.09-.43-.09-.43-.56-2.63-.43-2.62-.52-5.04-.44-7.68"/><path fill="#8c3832" d="M84 68c1 3 1.51 5.88 2 9l-4 1-1-9z"/><path fill="#390f0f" d="M98 49h5c1.35 7.49 1.35 7.49-.38 10-1.62 1-1.62 1-2.62 1-.2-3.72-.15-4.77 2-8l-4-1z"/><path fill="#1e0404" d="M103 30h1l-1 19h-1c-.17-2.08-.33-4.17-.5-6.25-.09-1.16-.19-2.32-.28-3.52-.16-2.4-.22-4.82-.22-7.23z"/><path fill="#bd2c2d" d="M55 38h3v10h-3z"/><path fill="#90908f" d="m64 427 8 1v4l-8-1z"/><path fill="#fdfcfc" d="M91 380c-2 3-2 3-4.38 3.51-.91.06-1.81.12-2.74.18-.46.03-.46.03-2.76.2-.35.02-.35.02-2.12.11 2-3 2-3 4.31-3.69 2.6-.3 5.08-.38 7.69-.31"/><path fill="#330703" d="M108 284h1c.02.34.02.34.15 2.05.07.89.15 1.78.23 2.7.06.88.13 1.76.21 2.67.41 2.57 1.12 4.34 2.41 6.58-.83-.33-.83-.33-5-2-.03-1.81-.05-3.62-.06-5.44-.01-1.01-.03-2.02-.04-3.06.1-2.5.1-2.5 1.1-3.5"/><path fill="#f0cb9e" d="M61 270h3l-1 5h2v-2h2v3h-9v-3h3z"/><path fill="#c08f6d" d="M27 427h18v1h-8v2l-10-1z"/><path fill="#b6a788" d="M105.625 404.938c.41 0 .41 0 2.48.03.31 0 .31 0 1.9.03l-1 4-10-1v-2c2.4-1.2 3.94-1.1 6.62-1.06"/><path fill="#bbab91" d="m103 347 3 1c1.19 2.56 1.19 2.56 2 5h-3v-2h-2v3h-2c-.69-1.81-.69-1.81-1-4 1.44-1.75 1.44-1.75 3-3"/><path fill="#962c24" d="M51 317c2.12.94 2.12.94 4 2v8h-1l-2-6-3 3v-6z"/><path fill="#2f1a16" d="M89 282h3c.05 1.6.09 3.21.12 4.81.03.9.05 1.79.08 2.71C92 292 92 292 90 295z"/><path fill="#bc8361" d="M109 427h17v2c-1.48.17-1.48.17-9 1v-2h-8z"/><path fill="#f2ede3" d="M104 364c1.28 2.55.7 3.29 0 6a93 93 0 0 0 0 5h-4c.62-7.51.62-7.51 2.56-10 .48-.33.95-.66 1.44-1"/><path fill="#a6957a" d="M105 348c3.38.31 3.38.31 7 1 2.29 3.44 2.18 4.99 2 9-2-2-2-2-2.81-4.56-.39-.81-.79-1.61-1.19-2.44-2.62-.81-2.62-.81-5-1z"/><path fill="#a4332c" d="M74 306h9v4l2 1-3 1v-2h-4v-2z"/><path fill="#370705" d="M110 299v2c-4.05.98-7.84 1.08-12 1v-2c3.98-1.33 7.85-1.07 12-1"/><path fill="#f9f8f5" d="M97 410h4l1 5-5 1c-.38-1.66-.71-3.32-1-5z"/><path fill="#dbc7b1" d="M78 400c.83.17.83.17 5 1v2l3 1-1 3c-2.49-1.2-4.68-2.45-7-4z"/><path fill="#cdc1aa" d="m52 380 3 2v2l2 1c-1.75 1.56-1.75 1.56-4 3-2.25-.31-2.25-.31-4-1h3l-2-4h2z"/><path fill="#a1423f" d="M101 311c.06.31.06.31.38 1.88C102 315 102 315 104 317h-3v3h2v2h-2l-1 3-1-12h2z"/><path fill="#b02f16" d="M127 267c-3.87 2.58-5.54 3.12-10.12 3.06-.92-.01-1.83-.02-2.76-.02-.7-.02-1.4-.03-2.12-.04 4.88-3.25 9.22-3.11 15-3"/><path fill="#c5a072" d="M52 263h4v2h2v6l-3-1v-5l-4 1z"/><path fill="#400c07" d="M101 438v2c-1.6.39-3.21.76-4.81 1.12-.9.21-1.79.42-2.71.64C91 442 91 442 88 440c1.79-.53 3.58-1.05 5.38-1.56.99-.29 1.99-.58 3.02-.88C99 437 99 437 101 438"/><path fill="#ba4e3a" d="m106 430-1 5-1-2c-.91.35-1.81.7-2.75 1.06-3.26.94-4.18.9-7.25-.06 1.43-.67 2.87-1.34 4.31-2 .8-.37 1.6-.74 2.43-1.12C103 430 103 430 106 430"/><path fill="#a69678" d="m56 419 3 1v2h-4v2c-1.94-.31-1.94-.31-4-1l-1-3c.99.17.99.17 6 1z"/><path fill="#b3a58f" d="M101 410h3l-1 6 2 1v2c-.99-.17-.99-.17-6-1 .33-.76.66-1.53 1-2.31 1-2.69 1-2.69 1-5.69"/><path fill="#f4f1ea" d="m101 377 3 1-1 2h-2v2h-6c3.75-3.88 3.75-3.88 6-5"/><path fill="#a89779" d="m104 367 2 1c.41 2.32.74 4.66 1 7l-3 2-3-1z"/><path fill="#e0d0b4" d="M105 363c2 3 2 3 2 5l3-1 1 2h-2l1 3h-2l-1 1-2-1c-.85-3.56-1.17-5.49 0-9"/><path fill="#a69274" d="M51 358h2v2l3 2v2c-1.81.69-1.81.69-4 1-1.75-1.44-1.75-1.44-3-3l2-1z"/><path fill="#b8a594" d="M58 350h5v3h2l1-3v4h-8z"/><path fill="#5c3a2c" d="m93.063 311.938 2.94.06-3 1 2 1v4h-4v-4l-2-1c1-1 1-1 4.06-1.06"/><path fill="#412923" d="M79 293c2.5 2.31 2.5 2.31 5 5v3l-4-1z"/><path fill="#271d0f" d="m80 399-2 2h-6c-2.88 1-2.88 1-5 2 1-3 1-3 2.56-4.25 3.68-1.13 6.66-.38 10.44.25"/><path fill="#ae2725" d="M82 305h8l-2 4h-5z"/><path fill="#4f2f26" d="M48 303h-2l2 5c-3 0-3 0-6-2v-3c2.49-1.25 3.41-.78 6 0"/><path fill="#400a06" d="m111 276 3 1c.73 1.85.73 1.85 1.19 4.06.16.74.31 1.47.48 2.23q.165.84.33 1.71h-3z"/><path fill="#8d3031" d="M53 51h5l-2 7h7v1h-8c-1.26-2.91-2-4.8-2-8"/><path fill="#e37458" d="M81 437h9v2c-1.48.17-1.48.17-9 1z"/><path fill="#d1c7af" d="M33 416c6.75.88 6.75.88 9 2v2l-6 1z"/><path fill="#fff" d="m51 414-2 4c-.99-.17-.99-.17-6-1v-2c2.71-1.35 5.01-1.07 8-1"/><path fill="#a08562" d="M83 367c.83.17.83.17 5 1-.31 1.94-.31 1.94-1 4l-3 1z"/><path fill="#43100b" d="M59 313c3.14.34 4.05 1.05 6.31 3.38.56.86 1.12 1.73 1.69 2.62l-1 3c-5-5.75-5-5.75-5-8z"/><path fill="#511d16" d="M52 287h-2l2 4c-.33.17-.33.17-2 1v-2l-10-2v-1c8.57-1.29 8.57-1.29 12 0"/><path fill="#e4ceb1" d="m64 265 3 1c1.19 3.06 1.19 3.06 2 6h-4z"/><path fill="#202324" d="M80.066 172.902c.41.01.41.01 2.5.04.82 0 1.65.01 2.5.02.64.01 1.28.03 1.93.04-3 2-3 2-5 2-.33.49-.33.49-2 3h-2c-.56-1.94-.56-1.94-1-4 1-1 1-1 3.07-1.1"/><path fill="#e2bbb7" d="M82 79c2.31-.31 2.31-.31 5 0 1.81 2.5 1.81 2.5 3 5l-4 1v-2l-3-1 1-1z"/><path fill="#491514" d="M104 27c-.38 1.94-.38 1.94-1 4-.33.16-.33.16-2 1v-3l-4-1v-2c3.49-1.2 3.68-1.21 7 1"/><path fill="#e1d9c9" d="M55 416v4l-7 1c1.77-3.93 2.48-5 7-5"/><path fill="#d7c9b1" d="m75 400-1 4h-3v2h-2v-4c3-2 3-2 6-2"/><path fill="#cfc6b7" d="m38 372 2 3-3 1-1 2h2v3h-2l-1 3v-9l3-1z"/><path fill="#f4eee4" d="M48 349v2h-2l-2 5-3-1v-2h2v-3c3-1 3-1 5-1"/><path fill="#ab483c" d="M37 320c2.57 3.85 1.83 5.59 1 10h-2c-.12-6.62-.12-6.62 1-10"/><path fill="#37201c" d="m71 285 2 1v2c-.33.17-.33.17-2 1-.62 2.56-.62 2.56-1 5l-2-1c-.19-2.88-.19-2.88 0-6z"/><path fill="#380a05" d="M58 284h5v3h2v3h-4l-1-3 1-2z"/><path fill="#f0ddc5" d="M88 263h2l1 4h2v4h-3c-1.76-3.09-2-4.23-2-8"/><path fill="#8d332e" d="m78 81-2 8h-2v-3l-2-1h2v-3c2-1 2-1 4-1"/><path fill="#b43f2c" d="m108 428 3 1-2 2 1 2-5 2c.38-2.94.38-2.94 1-6z"/><path fill="#f8f5ef" d="m97 406 2 1c-.66.72-1.32 1.44-2 2.19-2.15 3.03-2.41 4.21-2 7.81l-2-1c-.25-3.31-.25-3.31 0-7 2-1.94 2-1.94 4-3"/><path fill="#675d4b" d="m30 387 8 3c-2.92 1.95-4.63 2.45-8 3z"/><path fill="#faf6ef" d="m38 267 3 2c-.51 2.17-1 4-2 6l-3 1z"/><path fill="#a3766f" d="M59 84h5l-1 5-4-1z"/><path fill="#bbaf98" d="M120 416v3l-3 2-4-2c2.36-2.36 3.78-2.49 7-3"/><path fill="#b0a48a" d="m61 409 2 1c.62 3.06.62 3.06 1 6l-5 2c.33-1.11.66-2.23 1-3.38 1-3.62 1-3.62 1-5.62"/><path fill="#82593a" d="M70 375c1.68.29 3.34.62 5 1l-2 5h-2c-1-2-1-2-2-5z"/><path fill="#e7dcca" d="m103 359 7 2-2 4v-3l-6 1z"/><path fill="#cfbeb1" d="M80 357h8v4l-5-1v-2z"/><path fill="#553e32" d="M58 323c3 3 3 3 3.19 6.19-.03.46-.03.46-.19 2.81h-2z"/><path fill="#2a0c06" d="m81 311 2 1v3c-.33.17-.33.17-2 1l-1 3h-2c-.37-4.55-.37-4.55 1.5-6.81.5-.39.99-.79 1.5-1.19"/><path fill="#390c09" d="M96 282h3c-.75 2.44-.75 2.44-2 5-2.12.81-2.12.81-4 1 1.88-4.88 1.88-4.88 3-6"/><path fill="#f9e8d0" d="M55 274v2l-8 1 1-3c2.67-1.33 4.17-.67 7 0"/><path fill="#c6a67c" d="M45 267c.66.17.66.17 4 1l-1 4-4-1z"/><path fill="#731b1a" d="m92.063 77.938 2.94.06-4 1v2l2 1-4 1c-.56-1.94-.56-1.94-1-4 1-1 1-1 4.06-1.06"/><path fill="#a23839" d="m55 29 3 1-1 3h5v1h-8z"/><path fill="#cc3422" d="M43 429c3.82.53 6.06 1.5 9 4-3 1-3 1-6.19-.44-.93-.51-1.85-1.03-2.81-1.56z"/><path fill="#4b4534" d="M127 420h1v10l-4 1-2-2h4z"/><path fill="#ded9c8" d="M63 410c2.39 2.39 2.76 3.66 3 7-1.44 1.81-1.44 1.81-3 3l-3-3 3-1z"/><path fill="#f0ede6" d="M47 408h4v3h-2l-1 2-3-1v-2h2z"/><path fill="#e8e2d4" d="m55 377 7 2v3l2 1c-2.44-.38-2.44-.38-5-1l-1-2-3-1z"/><path fill="#b9a68b" d="M47 355h3v2l2 1-1 3h-3z"/><path fill="#bc2b1d" d="m98 334-1 2c-4.17 1.35-7.74.75-12 0v-1c4.38-.59 8.58-1.14 13-1"/><path fill="#bc2728" d="m104 316 4 4h-7v-3z"/><path fill="#2b0603" d="m101 308 3 1 1 6-4-1z"/><path fill="#f4eadb" d="M113 263v3h-2v2l-4-1 1-3c3-1 3-1 5-1"/><path fill="#dec4a2" d="m103 263-1 3c-2.06.69-2.06.69-4 1l-1-4c2.49-1.25 3.41-.78 6 0"/><path fill="#b2906d" d="M67 256c.66.17.66.17 4 1l-1 5h-2v-2l-2-1z"/><path fill="#313435" d="M82 189h2l1 5-5 1c.51-2.17 1-4 2-6"/><path fill="#2f3334" d="M81 179h4c0 2 0 2-1.88 4.12C81 185 81 185 79 185v-4h2z"/><path fill="#393a3c" d="M74 149h3v2h4l-2 6h-1v-5l-5-1z"/><path fill="#ccbea6" d="M98 420v2h-3l-1 2-3-2v-2c2.67-1.33 4.17-.67 7 0"/><path fill="#a33a21" d="m83 418-1 3h-2l-1 5h-2c.6-2.35 1.27-4.69 2-7 2-1 2-1 4-1"/><path fill="#998361" d="m57 375 1 2c2.17-.51 4-1 6-2v5l-7-2z"/><path fill="#b9ac94" d="m56 375 1 2h-2v2l4 1c-3 1-3 1-6 0l-1-3z"/><path fill="#efe9de" d="M92 374c.83.33.83.33 5 2v2l-6 2z"/><path fill="#e2d5c4" d="m56 363 1 2-4 1 1 3h-3c-.16-.82-.16-.82-1-5z"/><path fill="#e2d7c5" d="M103 351h2v2l4-1-1 3c-2.56 1.19-2.56 1.19-5 2z"/><path fill="#3f1e17" d="M92 321h3v6h-3z"/><path fill="#bc996f" d="M83 266c.78.19 1.57.37 2.38.56C88 267 88 267 90 266l-2 4h-5z"/><path fill="#f7e2c7" d="m58 265 3 1c-.33.17-.33.17-2 1v5l-4 1v-3l3 1-1-3z"/><path fill="#323636" d="M70 178h2l1 8h-2c-.73-1.98-1.39-3.98-2-6z"/><path fill="#050709" d="M83 150c2.12.94 2.12.94 4 2-2.67 1.33-5.33 2.67-8 4 1.75-4.88 1.75-4.88 4-6"/><path fill="#e6d3a6" d="m54 62 9 1v1c-1.48.17-1.48.17-9 1z"/><path fill="#97393a" d="M99 52h3l-2 7h-7v-1h6z"/><path fill="#e5ddcf" d="m101.563 406.938 3.44.06 1 2c-3.38.63-3.38.63-7 1l-2-2c1-1 1-1 4.56-1.06"/><path fill="#f9f8f4" d="M40 408h6l-4 4-3-1z"/><path fill="#aa9879" d="M95 370h3l1 3c-.33.17-.33.17-2 1l-1 2-2-1z"/><path fill="#b09870" d="M76 366h6v3l-4 1v-2h-2z"/><path fill="#a63f39" d="M69 314c1.21 3.62.54 4.64-1 8-3-3.75-3-3.75-3-6h3z"/><path fill="#060608" d="m75 150 1 2h2l-1 5-1-3h-2l-1-3z"/><path fill="#6b1f1b" d="M81 86h7v2l-7 1z"/></svg>