<svg xmlns="http://www.w3.org/2000/svg" width="200mm" height="200mm" viewBox="0 0 200 200"><defs><clipPath id="a" clipPathUnits="userSpaceOnUse"><path d="M4622.68 17397c-832.94 0-1564.65 128.2-1972.9 321.1-66.45 31.4-124.4 64.5-172.79 99.1-88.83 63.4-141.92 165.3-144.49 274.4l-27.9 1179.8c0 34.9 19.68 66.9 51.08 82.4 48.8 24.2 75.75 78 71.58 132.3l-357.31 4555.4c-27.49 349.8 194.22 670.7 530.91 769l745.19 217.4c276.43 80.7 447.06 357.2 394.9 640.4l-45.83 242.1c-41.37 219-33.56 444.4 22.91 659.9l76.16 291c203.52-75.4 474.54-133.6 826.55-133.6 43.82 0 88.86.9 135.23 2.8 290.45 11.9 546.13 47.9 765.28 94.5l64.02-275.3c39.75-171.6 44.34-349.7 13.34-523.1l-63.34-354.1c-51.89-282.5 117.79-558.7 393.28-639.9l740.22-218.2c339.91-100.3 561.22-427.3 527.78-780.1l-427.1-4510.6c-7.42-78 35.44-152.3 106.73-184.9 32.89-14.9 53.92-47.7 53.92-83.8 0 0-13.88-871.5-22.1-1196.2-1.89-76.5-34.51-149.7-92.19-200-302.31-264-1145.36-455.6-2144.21-461.6-16.3-.2-32.62-.2-48.92-.2"/></clipPath></defs><g clip-path="url(#a)" style="display:inline" transform="matrix(.01553 0 0 -.01553 28.027 460.682)"><path d="M2042.46 17397h5187.53v9464.3H2042.46Z" style="fill:#d7a53e;fill-opacity:1;fill-rule:nonzero;stroke:none"/></g><path d="M2646.64 24269.4c202.09 126.3 531.27 301 882.71 360.1 51.3 8.6 103.73 7.9 154.63-2.9 125.75-26.6 399.73-82.9 626.27-118.3 192.11-30 336.78-190.6 346.25-384.9l252.18-5169.7s-1549.96 27-1981.26 215.7c-209.39 407.1-418.79 3806.4-472.19 4729.4-8.64 149.3 64.62 291.4 191.41 370.6" style="fill:#e0c13b;fill-opacity:1;fill-rule:nonzero;stroke:none" transform="matrix(.01553 0 0 -.01553 28.027 460.682)"/><path d="m4684 17412.8-12.4-15.6c-16.31-.2-32.62-.2-48.92-.2-832.94 0-1564.66 128.2-1972.9 321.1l-50.28 1599.5s574.97-314.4 1302.78-332.5l727.81-17.9z" style="fill:#e0c13b;fill-opacity:1;fill-rule:nonzero;stroke:none" transform="matrix(.01553 0 0 -.01553 28.027 460.682)"/><path d="M4560.86 18940c-1417.19 0-2064.64 400.2-2071.11 404.3-11.62 7.4-15.06 22.8-7.7 34.4 7.37 11.7 22.78 15.1 34.4 7.7 6.47-4 662.59-408.4 2108.35-396.3 512.62 4.4 963.95 53.1 1341.48 144.9 13.4 3.2 26.86-4.9 30.12-18.3 3.25-13.4-4.96-26.9-18.34-30.1-381.23-92.7-836.39-142-1352.84-146.3-21.59-.2-43.12-.3-64.36-.3" style="fill:#231f20;fill-opacity:1;fill-rule:nonzero;stroke:none" transform="matrix(.01553 0 0 -.01553 28.027 460.682)"/><path d="m6688.31 23129.1-344.77-2673.9c-26.55-206-167.12-379.1-363.23-447.6l-1094.54-381.7c-3.24-1.1-6.47-2.2-9.71-3.1-117.66-38.8-245.3-36.5-361.61 6.7l-1297.79 481.6c-197.32 73.3-335.33 253-355.15 462.4L2613.12 23195c-34.78 366.6 294.76 662.7 655.7 588.8 479.41-98.2 950.46-154.4 1412.22-163.9 461.35-9.5 913.39 27.8 1355.07 116.8 368.08 74.1 700.18-235.2 652.2-607.6" style="fill:#c03222;fill-opacity:1;fill-rule:nonzero;stroke:none" transform="matrix(.01553 0 0 -.01553 28.027 460.682)"/><path d="M4876.06 19622.8c-117.66-38.8-245.3-36.5-361.61 6.7l-1297.79 481.6c-197.32 73.3-335.33 253-355.15 462.4L2613.12 23195c-34.78 366.6 294.76 662.7 655.7 588.8 479.41-98.2 950.46-154.4 1412.22-163.9z" style="fill:#d8745b;fill-opacity:1;fill-rule:nonzero;stroke:none" transform="matrix(.01553 0 0 -.01553 28.027 460.682)"/><path d="M4315.93 20045c-35.59 0-71.66 2.3-107.21 7-85.85 11.2-165.56 38-236.91 79.8-81.47 46.5-152.57 121.4-194.86 205.4-5.49 9.6-9.08 18.8-12.26 26.9-.95 2.4-1.89 4.8-2.88 7.1l-6.33 16.2-6.25 16.6-4.25 13.9c-3.06 9.9-6.12 19.9-8.78 30-2.99 11.3-6.16 22.3-9.3 33.2-4.48 15.6-9.11 31.8-13.22 48.6-5.91 20.8-11.57 41.7-17.21 62.6-8.7 32.1-17.69 65.2-27.48 97.3-6.71 22.2-15.05 48.3-26.37 74.6-1.15 2.4-2.22 5-3.29 7.6l-1.32 3.1c-.55 1.2-1.31 2.6-2.06 4.1l-6.04 11.7-4.63 7.7c-6.42 10-12.06 18.2-20.1 24.3l-55.07 41.6 58.82 36.2c15.33 9.4 31.29 13.1 43.5 15.2 5.97 1.1 11.3 1.4 15.58 1.6l5.95.4c2.57.1 5.19.3 7.77.3h1.61l8.69-.5 16.82-1.3 1.18-.2c5.43-.7 10.72-1.7 16.11-2.8l5.35-1.1c4.4-.9 8.87-1.9 13.11-3l4.29-1.3c4.29-1.2 8.62-2.5 12.83-4l6.75-2.3c-26.9 53-54.57 104.6-83.37 151.4l-69.17 112.6 124.83-43.3c4.21-1.5 84.33-29.6 193.87-87-31.56 173.4-33.83 319.9-33.92 327.2l-2.43 190.3 91.02-167.1c3.84-7.1 7.37-13.7 10.8-20.2 22.31-42.2 39.78-75.2 121.63-162.9-1.58 271.8 73.21 529.4 76.88 541.9l60.97 207 30.97-213.6c.4-2.7 36.05-241.2 154.87-490.1 35.71 119.6 75.19 298.5 62.65 476.5l-9 127.8 89.72-91.4c93.79-95.6 156.86-291.3 193.48-440.1 117.77 215.6 234.63 260.6 249.58 265.6l89.6 30-29.87-89.6c-.72-2.2-62.97-192.6-91.37-494.8 107.75 128.5 291.23 368 354.34 576.9l89.27 295.3 3.06-308.5c.09-9.3 1.4-173.1-16.69-370.8 31.53 54.4 50.68 89.3 51.04 90l71.16 130.2 17.09-147.4c1-8.6 21.15-189.8-18.81-423 38.63 15.9 77.26 27.1 115.09 33.3 24.32 3.9 48.61 5.9 72.34 5.9 20.04 0 39.91-1.4 59.06-4.2 45.59-6.7 87.29-20.5 124.02-40.9 7.68-4.3 17.49-10 27.34-16.8 10.19-7.3 18.31-13.6 25.64-19.8 15.86-14.3 32.82-31 45.76-53.4l34.71-59.9-68.44-10.3c-26.87-4.1-53.07-11.3-82.43-22.8-22.13-9.1-43.09-20.1-63.22-33.3-32.99-21.9-61.58-47.7-95.4-86.1-29.72-33.1-57.53-71.3-83.48-107.5-3.41-4.6-6.22-8.5-8.86-12.7l-1.28-1.9-10.6-15.2-20.56-30.5-20.76-31.5c-2.47-3.9-7.82-11.5-12.91-18.8l-17.16-24.4c-51.51-69.7-109.29-126.1-172.37-168.6l-25.18-16.3c-9.08-5.7-17.62-10.3-25.88-14.8l-2.93-1.5c-18.46-10.5-38.19-19-57.27-27.2-41.88-16.6-83.87-28-126.02-34.3-24.07-3.3-47.85-4.9-71.29-4.9-19.21 0-38.46 1.1-57.23 3.2-41.52 4.8-81.98 15-120.32 30.4-7.62 3-15.15 6.3-22.71 9.9-21.52-11.1-45.32-16.8-70.17-16.8h-5.56c-47.03 1.6-88.29 15.9-122.99 42.6l-5.59-.6c-16.05-7-32.58-13.8-49.24-20.2-65.5-24.6-134.11-41.9-204.24-51.5-37.83-5.3-76.45-8-114.61-8" style="fill:#100f0d;fill-opacity:1;fill-rule:nonzero;stroke:none" transform="matrix(.01553 0 0 -.01553 28.027 460.682)"/><path d="m5487.92 22212.9-178.53-590.7c-43.57-144.2-147.87-304.9-242.25-430.6 29.79 198.9 68.67 318.4 69.23 320.1l59.14 178.9-178.64-59.8c-14.22-4.7-110.73-41.5-217.21-193.1-40.3 135.1-98.04 275.2-177.19 355.9l-179.45 182.9 18-255.6c8.02-114-6.26-228.7-26.92-326.9-72.8 190.6-96.55 348.5-96.86 350.6l-62.21 426.1-121.67-413c-3.19-10.8-58.93-202.8-74.67-431.5-16.97 23.6-26.36 41.3-36.89 61.3-3.52 6.6-7.14 13.4-11.07 20.6l-182.06 334.3 4.87-380.6c.08-6.1 1.67-108.9 20.21-244-68.69 31.8-114.32 47.8-117.52 48.9l-249.67 86.7 138.35-225.2c12.38-20.1 24.58-41.2 36.63-63h-.44c-3.23-.1-6.51-.2-9.72-.4l-1.27-.1h-1.27l-1.26-.1-2.31-.2c-4.87-.3-12.18-.7-21.14-2.3-15.09-2.6-37.64-7.7-59.97-21.5l-117.48-72.3 110.04-83.2c1.92-1.5 6.08-7.8 8.44-11.5l3.52-5.9 3.86-7.5 1.62-3.1.91-1.8.64-1.5c1.24-3 2.5-6 3.81-8.8 8.18-19.1 15.47-39.8 24.27-68.9 9.66-31.6 18.16-63 27.16-96.2 5.62-20.8 11.24-41.5 17.12-62.2 4.27-17.5 8.95-33.8 13.48-49.6 3.06-10.6 6.14-21.3 9.03-32.3 3-11.3 6.2-21.7 9.3-31.7 1.24-4 2.48-8 3.69-12l.93-3.1 1.14-3.1 5.48-14.5.21-.6.2-.5 5.91-15.2.41-1 .43-1c.86-2.1 1.67-4.2 2.49-6.3 3.31-8.4 7.74-19.7 14.56-31.8 46.33-91.5 123.83-173.1 213.04-224.2 76.73-44.8 162.28-73.6 254.27-85.6 37.53-4.9 75.68-7.4 113.33-7.4 40.34 0 81.16 2.9 121.31 8.5 73.32 10.1 145.34 28.3 213.76 53.9 10.83 4.2 21.43 8.4 31.81 12.7 37.74-23 81.19-35.7 128.17-37.3 2.39-.1 4.78-.1 7.15-.1 24.36 0 47.94 4.2 70.07 12.4 1.7-.7 3.4-1.4 5.09-2.1 42.41-16.9 86.93-28.1 132.53-33.4 20.67-2.4 41.71-3.6 62.69-3.6 25.57 0 51.5 1.8 77.08 5.3h.61l.61.1c45.7 6.9 91.2 19.2 135.23 36.6l1.23.5 1.21.6c19.05 8.1 40.6 17.4 61.85 29.4l1.97 1c8.59 4.7 18.33 9.9 28.37 16.3l.46.2.45.3 24.48 15.9.7.4.68.5c67.57 45.4 129.26 105.6 183.36 178.8l.65.9.63.9 15.52 22 1.94 2.8c5.22 7.4 10.16 14.5 13.7 20l20.47 31.1 20.28 30 10.16 14.6 1.31 1.8 1.22 2c1.57 2.5 3.52 5.3 6.15 8.8l.58.8.56.7c25.18 35.2 52.09 72.1 79.99 103.2l.27.3.28.4c30.93 35.1 56.75 58.5 86.33 78.1 16.9 11.1 35 20.6 54.82 28.8 26.06 10.1 48.17 16.2 71.56 19.7l136.91 20.8-69.44 119.8c-16.3 28.1-37.42 48.9-54 63.8l-.97.9-.99.9c-8.43 7.1-17.58 14.3-28 21.7l-.75.5-.76.6c-11.43 7.8-22.4 14.2-30.68 18.9-42.17 23.4-89.3 39-140.53 46.5-21.5 3.2-43.64 4.7-65.94 4.7-26.23 0-53.03-2.1-79.65-6.4-16.58-2.7-33.23-6.3-49.9-10.7 25.3 202 8.7 351.3 7.78 359.2l-34.18 294.8-91.35-167.2c3.81 95.2 3.29 159.7 3.23 165.4zm-1244.05-481.8s44.92-312 211.11-603.7c39.91 107 117.61 352.3 100.15 600.1 103.47-105.4 174.95-364.1 210.39-552 130.57 315.4 281.31 365.9 281.31 365.9s-86.76-260.4-104.54-664.3l10.7 29.1s351.32 373.1 446.71 688.7c0 0 3.02-304.7-44.31-584.9 96.37 152.3 167.23 282 167.23 282s26.81-231.2-37.84-505.2c24.16 15.4 49.76 29.3 76.85 41 35.48 15.2 73.03 27 111.78 33.3 21.4 3.5 43.1 5.3 64.7 5.3 17.56 0 35.05-1.2 52.27-3.7 38.37-5.6 75.25-17.3 107.84-35.4 8.14-4.6 16.04-9.3 23.63-14.5 7.53-5.4 14.79-10.9 21.71-16.8 13.58-12.3 26.34-25.2 35.54-41.1-35.28-5.4-65.23-14.8-92.43-25.4-27.12-11.1-50.83-23.9-71.99-37.8-42.21-28-74.63-60-104.94-94.4-30.41-33.9-58.15-71.7-86.43-111.2-3.59-4.8-7.11-9.8-10.45-15.1l-10.59-15.1-21.02-31.2-21.04-32c-2.86-4.4-8.64-12.6-13.73-19.9l-15.52-22c-42.9-58.1-95.39-113.1-160.12-156.6l-24.48-15.9c-8.22-5.1-17.03-9.8-25.64-14.5-16.96-9.6-35.4-17.5-53.43-25.3-36.9-14.6-75.43-25.1-114.38-31-21.49-2.9-43.03-4.3-64.36-4.3-17.46 0-34.78.9-51.82 2.9-37.88 4.4-74.33 13.7-108.18 27.3-14.87 6-29.17 12.8-43.01 20.3-18.88-15.3-41.37-23.9-67.37-23.9-1.32 0-2.66 0-4.01.1-45.89 1.5-82.51 18-111.15 46.2-9.6-2.8-19.82-4.5-30.44-4.9-17.99-8-36.23-15.6-54.65-22.6-61.95-23.3-126.64-39.6-193.81-48.9-35.29-4.9-71.37-7.6-108.14-7.6-33.17 0-66.89 2.2-101.12 6.7-71.91 9.3-147.34 31.7-219.21 73.7-71.78 41-137.83 108.4-177.14 187.1-5.62 9.5-8.97 19.8-13.16 29.8l-5.91 15.2-5.48 14.6c-4.06 13.5-8.51 26.9-12.15 40.7-7.34 27.8-15.74 54-22.49 81.9-15.33 53.8-28.84 108-45.2 161.6-8.18 27-17.02 53.7-28.49 80.2-1.53 3.2-2.88 6.7-4.38 10.2-1.51 3.4-3.18 6.4-4.87 9.7l-5.2 10.1-5.76 9.6c-8.25 12.9-17.25 26.1-31.78 37.1 7.95 4.9 17.4 7.3 26.88 8.9 4.9.9 9.38.9 14.33 1.3 2.43.1 4.93.3 7.39.3l7.09-.4 14.62-1.2c4.75-.6 9.35-1.6 14.08-2.5 4.68-1 9.64-1.9 14.26-3.2 4.5-1.3 9.17-2.6 13.65-4.1l13.7-4.8c4.45-1.7 8.65-3.6 13.03-5.4 8.63-3.8 17.58-7.9 25.73-12.3 15.88-9.1 32.76-18.7 46.98-29.7 12.82-9.3 24.96-19.2 36.68-29.4-50.4 103.1-100.8 208.7-156.76 299.8 0 0 125.52-43.6 277.08-134.5-51.83 211.7-54.49 419.9-54.49 419.9 37.54-68.9 45-101 227.73-283.6-33.18 307.2 68.26 651.7 68.26 651.7" style="fill:#f4d8b9;fill-opacity:1;fill-rule:nonzero;stroke:none" transform="matrix(.01553 0 0 -.01553 28.027 460.682)"/><path d="M4952.99 20906.2s351.32 373.1 446.71 688.7c0 0 6.98-700.3-165.19-953.9s-446.72-183.8-446.72-183.8z" style="fill:#47b173;fill-opacity:1;fill-rule:nonzero;stroke:none" transform="matrix(.01553 0 0 -.01553 28.027 460.682)"/><path d="M4821.44 20476.4c70.85-9.5 261.65-14.1 392.44 178.6 120.03 176.8 150.64 586.1 158.35 801.5-125.17-265.8-363.9-527.4-397.58-563.6zm51.4-52.4c-54.14 0-90.17 8.7-91.19 9l-26.81 6.8 176.5 479.8 3.5 3.7c3.47 3.7 348.43 372.5 440.99 678.8l47.18 156.1 1.63-163.1c.28-28.9 5.05-711-169.49-968.1-117.15-172.6-281.26-203-382.31-203" style="fill:#231f20;fill-opacity:1;fill-rule:nonzero;stroke:none" transform="matrix(.01553 0 0 -.01553 28.027 460.682)"/><path d="M4555.13 21727.5c162.87-165.9 246.62-711.9 234.99-763.1s-34.9-446.7-34.9-446.7l-322.63 553.7s145.81 325.7 122.54 656.1" style="fill:#307956;fill-opacity:1;fill-rule:nonzero;stroke:none" transform="matrix(.01553 0 0 -.01553 28.027 460.682)"/><path d="m4460.47 21073.1 274.88-471.8c7.58 120.7 21.69 330 30.46 368.6 8.32 42-58.62 478.2-183.2 680.5-.76-271.8-98.1-520.1-122.14-577.3m314.79-639.4-370.65 636.2 5.22 11.7c1.43 3.2 142.97 324.1 120.43 644.2l-4.75 67.5 47.42-48.3c168.32-171.5 254.92-727.1 241.51-786.1-9.18-40.4-27.89-333.3-34.33-442.7z" style="fill:#231f20;fill-opacity:1;fill-rule:nonzero;stroke:none" transform="matrix(.01553 0 0 -.01553 28.027 460.682)"/><path d="M4243.87 21731.1s-183.75-623.7 24.09-941.1c133.32-203.6 485.93-479.9 503.55-553.9 79.72 266.4 51.97 449.3-144.3 655.7-309.4 325.4-383.34 839.3-383.34 839.3" style="fill:#47b173;fill-opacity:1;fill-rule:nonzero;stroke:none" transform="matrix(.01553 0 0 -.01553 28.027 460.682)"/><path d="M4241.25 21615.5c-40.98-190.5-100.44-585.8 47.57-811.9 69.64-106.3 204.63-237 313.1-342 75.88-73.5 129.16-125.7 160.65-164.1 59.8 238.7 15.63 399.3-153.43 577.1-226.29 238-328.02 569.4-367.89 740.9m527.53-1475.4-21.52 90.3c-6.53 27.4-98.71 116.6-180.03 195.3-110.25 106.8-247.44 239.6-320.14 350.6-211.71 323.4-34.78 935.9-27.13 961.8l32.27 109.6 16.32-113.1c.73-5 76.59-509.9 376.73-825.6 193.56-203.6 235.65-394.3 150.12-680z" style="fill:#231f20;fill-opacity:1;fill-rule:nonzero;stroke:none" transform="matrix(.01553 0 0 -.01553 28.027 460.682)"/><path d="M4770.73 20236.9s-411.64-82.6-657.66 164.4c-149.29 149.9-252.22 455.7-387.78 676.3 0 0 380.07-131.7 616.3-416.4 197.71-238.3 429.14-424.3 429.14-424.3" style="fill:#307956;fill-opacity:1;fill-rule:nonzero;stroke:none" transform="matrix(.01553 0 0 -.01553 28.027 460.682)"/><path d="M3783.4 21027.4c37.75-67.8 73.33-140.8 108.03-212 76.76-157.4 149.26-306.1 239.31-396.5 181.88-182.6 463.42-176.8 580.85-164.9-77.05 66.1-243.11 215.2-389.19 391.3-170.52 205.5-420.89 331-539 382.1m824.27-829.2c-146.44 0-358.57 31.2-512.27 185.5-95.89 96.3-170.16 248.6-248.79 409.9-45.26 92.8-92.06 188.7-142.56 271l-36.53 59.4 65.93-22.8c15.79-5.5 389.39-137.3 627.33-424.1 193.86-233.6 423.28-418.9 425.57-420.7l41.56-33.4-52.27-10.5c-6.79-1.4-73.79-14.3-167.97-14.3" style="fill:#231f20;fill-opacity:1;fill-rule:nonzero;stroke:none" transform="matrix(.01553 0 0 -.01553 28.027 460.682)"/><path d="M4763.56 20261.8c18.64-29.9 44-54.5 71.84-75.8 27.93-21.5 59.3-39 93.15-52.6s70.3-22.9 108.18-27.3c37.85-4.3 77.08-3.9 116.18 1.4 38.95 5.9 77.48 16.4 114.38 31 18.03 7.8 36.47 15.7 53.43 25.3 8.61 4.7 17.42 9.4 25.64 14.5l24.48 15.9c64.73 43.5 117.22 98.5 160.12 156.6l15.52 22c5.09 7.3 10.87 15.5 13.73 19.9l21.04 32 21.02 31.2 10.59 15.1c3.34 5.3 6.86 10.3 10.45 15.1 28.28 39.5 56.02 77.3 86.43 111.2 30.31 34.4 62.73 66.4 104.94 94.4 21.15 13.9 44.87 26.7 71.99 37.8 27.2 10.6 57.15 20 92.43 25.4-9.2 15.9-21.96 28.8-35.54 41.1-6.91 5.9-14.18 11.4-21.71 16.8-7.59 5.2-15.49 9.9-23.63 14.5-32.59 18.1-69.47 29.8-107.84 35.4-38.4 5.6-78.17 4.7-116.97-1.6-38.75-6.3-76.3-18.1-111.78-33.3-71.11-30.8-132.07-76-183.27-126.5-25.85-25.2-48.76-52.1-70.07-79.8-10.94-13.6-20.08-28.1-30.14-42.2l-11.78-17.3-10.08-15c-27.03-39.6-54.49-76-83.84-107.6l-10.97-12c-3.7-4-7.65-7.3-11.34-11.3-7.37-8.1-15.51-14.3-23.21-22.1-16.14-13.6-32.77-27.5-51.17-39.8-36.69-24.6-80.05-46.2-132.16-61.9-26.01-7.9-53.92-14.1-83.88-19.5-30.03-5.1-61.39-8.8-96.16-11" style="fill:#47b173;fill-opacity:1;fill-rule:nonzero;stroke:none" transform="matrix(.01553 0 0 -.01553 28.027 460.682)"/><path d="M4811.22 20240.9c11.17-11.9 24.22-23.5 39.32-35.1 25.6-19.7 54.95-36.3 87.31-49.3 32.37-12.9 66.62-21.6 101.74-25.6 35.96-4.2 72.96-3.7 109.96 1.3 36.34 5.5 72.98 15.4 108.56 29.5 16.95 7.3 34.68 15 50.29 23.8l3.52 1.9c7.13 3.9 14.35 7.8 21.12 12l24.26 15.7c55.84 37.6 107.64 88.3 153.61 150.5l16.72 23.8c4.44 6.3 9.14 13 11.58 16.8l53.21 79.1c3.04 4.9 6.94 10.4 10.92 15.7 26.79 37.4 55.91 77.3 87.82 112.9 25.26 28.7 60.69 66 109.73 98.6 24.2 15.8 49.11 28.9 76.31 40.1 19.78 7.7 38.34 13.7 56.58 18.4-2.33 2.3-4.65 4.4-6.91 6.4-5.3 4.5-11.87 9.6-19.54 15.1-7.13 4.9-15.19 9.6-21.37 13.1-28.92 16.1-62.34 27-99.19 32.4-34.89 5.1-71.68 4.6-109.39-1.5-34.56-5.7-70.22-16.3-105.92-31.6-62.3-27-121.41-67.9-175.58-121.3-22.45-21.9-44.61-47.1-67.84-77.3-7-8.7-13.07-17.6-19.49-27-3.33-4.8-6.66-9.7-10.09-14.5l-21.43-31.7c-31.45-46-58.83-81.1-86.31-110.6l-10.84-11.9c-2.33-2.5-4.53-4.6-6.75-6.8-1.58-1.5-3.18-3-4.7-4.6-4.85-5.4-9.84-9.9-14.67-14.2-3.04-2.8-6.11-5.5-9.1-8.6l-1.65-1.5c-17.14-14.5-34.11-28.5-53.33-41.4-41.88-28-88.58-49.9-138.87-65.1-24.95-7.6-52.51-14-86.67-20.2-17.33-2.9-34.85-5.3-52.92-7.3m277.31-162.7c-18.38 0-36.62 1.1-54.64 3.1-39.54 4.6-78.08 14.3-114.59 28.9-36.65 14.7-69.98 33.6-99.13 56.1-33.95 25.9-59.42 52.9-77.77 82.3l-22.06 35.3 41.6 2.7c33.31 2.2 63.94 5.7 93.61 10.8 31.93 5.7 57.66 11.7 80.76 18.8 45.65 13.7 87.88 33.5 125.59 58.7 16.78 11.3 32.36 24.1 48.12 37.4 3.4 3.4 6.87 6.6 10.33 9.7 3.86 3.5 7.72 6.9 11.35 10.9 2.37 2.6 4.66 4.8 6.95 7 1.55 1.4 3.1 2.9 4.6 4.5l10.79 11.8c25.9 27.9 51.8 61.2 81.68 104.8l21.85 32.4c3.54 4.9 6.7 9.5 9.85 14.1 6.65 9.7 13.52 19.7 21.38 29.6 24.43 31.7 48.12 58.7 72.18 82.1 58.45 57.7 122.66 102 190.74 131.5 39.49 16.9 79.04 28.7 117.65 35 42.79 6.9 84.69 7.5 124.59 1.7 42.9-6.3 82.05-19.2 116.4-38.3 7.19-4.1 16.49-9.5 25.61-15.8 9.22-6.6 16.86-12.5 23.77-18.4 14.11-12.7 29.54-27.8 40.93-47.5l18.35-31.7-36.17-5.5c-28.53-4.3-56.22-11.9-87.14-23.9-23.8-9.8-45.98-21.5-67.37-35.5-34.8-23.1-64.71-50-99.89-90-30.38-33.9-58.58-72.5-84.87-109.2-3.5-4.7-6.64-9.1-9.61-13.9l-32.05-46.9-20.89-31.8c-2.51-3.9-7.67-11.3-12.56-18.3l-17.11-24.3c-49.71-67.3-105.65-121.9-166.6-162.9l-24.86-16.1c-8.2-5.2-16.38-9.6-24.29-13.9l-3.02-1.6c-17.56-10-36.58-18.2-54.98-26.1-40.24-16-80.58-26.9-121.02-32.9-22.81-3.1-45.55-4.7-68.06-4.7" style="fill:#231f20;fill-opacity:1;fill-rule:nonzero;stroke:none" transform="matrix(.01553 0 0 -.01553 28.027 460.682)"/><path d="M4793.92 20241c-65.82 14.2-127.87 24.6-188.51 36.3-60.47 11.1-118.95 22.6-174.75 35.4-55.83 12.7-108.7 27.5-156.54 45-48.08 17.2-89.54 38.6-122.05 61.8-4.41 2.7-7.99 5.9-11.58 9l-11.21 8.8c-3.18 3.3-6.39 6.5-9.68 9.6-1.62 1.6-3.36 3-5.07 4.5l-4.23 5c-2.85 3.3-5.77 6.5-8.79 9.7-2.52 3.5-4.93 7-7.62 10.4-2.64 3.4-5.61 6.5-7.51 10.5-2.32 3.7-4.74 7.3-7.27 10.9l-1.92 2.7-1.47 3-3.23 6-3.41 6-1.77 3-.89 1.4c-.27.4-.6 1-1.09 2.1-7.43 15-14.48 30.1-22.32 44.9-14.43 29.7-33.49 58.7-51.76 87-39.22 56.3-86.3 109.9-145.88 153.2-14.22 11-31.1 20.6-46.98 29.7-8.15 4.4-17.1 8.5-25.73 12.3-4.38 1.8-8.58 3.7-13.03 5.4l-13.7 4.8c-4.47 1.5-9.15 2.8-13.65 4.1-4.62 1.3-9.58 2.2-14.26 3.2-4.73.9-9.33 1.9-14.08 2.5l-14.62 1.2-7.09.4c-2.46 0-4.96-.2-7.39-.3-4.95-.4-9.43-.4-14.33-1.3-9.48-1.6-18.93-4-26.88-8.9 14.53-11 23.53-24.2 31.78-37.1l5.76-9.6 5.2-10.1c1.69-3.3 3.36-6.3 4.87-9.7 1.51-3.5 2.85-7 4.38-10.2 11.47-26.5 20.31-53.2 28.49-80.2 16.36-53.6 29.87-107.8 45.2-161.6 6.75-27.9 15.15-54.1 22.49-81.9 3.64-13.8 8.09-27.2 12.15-40.7l5.48-14.6 5.91-15.2c4.19-10 7.54-20.3 13.16-29.8 39.31-78.7 105.36-146.1 177.14-187.1 71.87-42.1 147.3-64.4 219.21-73.7 72.19-9.5 142.14-8.5 209.26.9 67.17 9.3 131.86 25.6 193.81 48.9 61.75 23.6 121.66 51.9 176 92.4" style="fill:#47b173;fill-opacity:1;fill-rule:nonzero;stroke:none" transform="matrix(.01553 0 0 -.01553 28.027 460.682)"/><path d="m3817.56 20427.2 11-28.7c.98-2.3 2.11-5.2 3.25-8.1 2.61-6.6 5.07-12.9 8.19-18.2l.8-1.5c36-72.1 96.95-136.4 167.21-176.5 63.22-37 133.82-60.8 210.06-70.7 67.32-8.8 135.47-8.5 202.56.9 64.94 9 128.34 24.9 188.53 47.5 46.78 17.9 86.3 36.4 120.82 56.7-23.61 4.6-46.8 8.8-69.57 13-20.1 3.7-39.98 7.4-59.71 11.2-72.17 13.3-126.39 24.3-175.62 35.6-59.29 13.4-112.98 28.9-159.51 45.9-48.07 17.1-92.12 39.4-127.3 64.4-5.43 3.4-9.72 7.2-13.2 10.2l-13.69 11.1c-2.93 3-5.89 5.9-8.91 8.8-1.06 1-2 1.8-2.93 2.6l-4.09 3.9-4.22 5.1c-2.35 2.7-5 5.6-7.72 8.4l-3.98 5.2c-1.64 2.3-3.27 4.6-5.05 6.8l-1.88 2.4c-2.29 2.8-5.34 6.5-7.92 11.4-1.9 3-3.88 6-5.94 8.9l-13.37 23.2c-.75 1.1-1.69 2.7-2.86 5.4l-6.49 13.2c-4.89 10.1-9.77 20.1-15.02 30-13.24 27.2-30.44 53.8-47.07 79.6l-3.63 5.6c-42.67 61.2-88.5 109.4-139.59 146.6-13.15 10.1-28.73 19-43.8 27.7-6.76 3.7-14.52 7.3-24.1 11.5l-3.56 1.5c-2.84 1.2-5.65 2.4-8.58 3.5l-12.91 4.5c-2.97 1.1-5.87 1.9-8.72 2.7l-3.82 1.1c-2.39.6-5.57 1.3-8.69 1.9l-3.72.8c-4.51.9-8.22 1.7-12.03 2.2l-19.04 1.4-1.35-.1c2.1-3 4.09-6.1 6.02-9.2l6.91-11.6 6.66-12.9c1.4-2.7 2.76-5.3 4.04-8.2l1.88-4.4c.72-1.8 1.41-3.5 2.19-5.1 13.45-31.1 23.01-61 29.88-83.8 10.11-33.1 19.25-66.9 28.09-99.5 5.65-20.8 11.3-41.7 17.23-62.5 4.07-16.7 8.38-31.8 12.95-47.7 3.27-11.4 6.56-22.9 9.67-34.6 2.39-9.1 5.14-18 7.89-26.8zm498.4-360c-34.84 0-69.7 2.3-104.35 6.8-82.88 10.8-159.78 36.7-228.56 77-78.15 44.6-146.16 116.3-186.5 196.7-4.86 8.4-8.2 16.9-11.15 24.5-1.01 2.5-2.01 5.1-3.08 7.6l-12.26 32.2-3.9 12.7c-2.95 9.6-5.9 19.1-8.46 28.8-3.02 11.5-6.22 22.6-9.4 33.7-4.51 15.7-9.17 31.9-13.23 48.7-5.73 20-11.44 41.1-17.14 62.2-8.74 32.2-17.78 65.6-27.68 98-6.5 21.6-15.48 49.8-27.51 77.6-.76 1.5-1.85 4.1-2.94 6.8l-1.44 3.4c-.73 1.6-1.66 3.4-2.58 5.2l-11.78 21.3c-7.12 11.1-14.26 21.6-25.42 30l-29.08 22.1 31.08 19.1c12.11 7.4 25.42 10.4 35.67 12.2 4.39.8 8.72 1.1 13.21 1.3l5.07.3c2.45.2 4.96.3 7.44.3l.85.1 23.11-1.7c6.23-.8 11.17-1.8 16.22-2.8l4.51-1c4.04-.8 8.15-1.7 12.07-2.7l4.03-1.2c3.86-1.1 7.76-2.2 11.53-3.5l13.51-4.7c4.32-1.7 7.72-3.1 11.15-4.6l3.43-1.5c11.11-4.7 20.18-9.1 27.87-13.2l1.49-.9c16.51-9.5 33.57-19.3 48.85-31 55.11-40.1 104.73-92.1 151.13-158.7l4.09-6.4c17.45-27 35.49-54.9 49.63-84 5.12-9.6 10.27-20.2 15.42-30.8l6.81-13.9-.67.9 7.15-12.2 5.27-9.6c2.85-4 5.51-8 8.05-12l1.39-2.5c.63-1.2 1.6-2.2 2.46-3.2l2.29-2.9c2.1-2.6 4.33-5.7 6.57-8.8l.61-.9c2.85-3 5.64-6.1 8.36-9.2l3.17-3.8c1.56-1.4 3.11-2.7 4.58-4.1 2.99-2.8 6.05-5.9 9.1-9l11.79-9.4c2.69-2.3 5.01-4.3 7.21-5.7l1.56-1c31.58-22.5 71.68-42.8 115.94-58.6 44.73-16.3 96.39-31.2 153.69-44.2 48.55-11.2 102.11-22 173.73-35.2 19.78-3.8 39.54-7.5 59.53-11.1 41.73-7.7 84.87-15.7 129.71-25.3l53.69-11.5-44.02-32.9c-49.06-36.5-106.89-67-182.01-95.7-63.78-24-130.79-40.8-199.31-50.3-36.96-5.2-74.25-7.8-111.55-7.8" style="fill:#231f20;fill-opacity:1;fill-rule:nonzero;stroke:none" transform="matrix(.01553 0 0 -.01553 28.027 460.682)"/><path d="M5522.62 21292s57.79-496.7-199.7-896.9c-53.7-83.4-158.21-204.7-322.89-212.6-154.05-7.4-281.36 65.5-196.68 194.4 51.25 78 138.18 137.8 218.66 204.4 204.88 169.5 500.61 710.7 500.61 710.7" style="fill:#87d5ab;fill-opacity:1;fill-rule:nonzero;stroke:none" transform="matrix(.01553 0 0 -.01553 28.027 460.682)"/><path d="M5502.57 21205.6c-89.37-155.6-302.41-509.3-464.66-643.6-16.54-13.6-33.34-27-50.06-40.3-64.31-51.3-125.05-99.7-163.67-158.5-24.31-37-29.37-68.5-15.02-93.6 23.69-41.5 99.84-66.4 189.68-62.2 148.09 7.1 246.58 113.3 303.11 201.2 187.93 292.1 204.29 640.3 200.62 797m-524.31-1048.5c-100.74 0-180.98 32.7-212.41 87.8-16.77 29.4-27.5 78.5 16.65 145.7 43 65.4 109.73 118.6 174.27 170.1 16.48 13.1 33.05 26.3 49.35 39.8 198.89 164.5 491.69 698.1 494.62 703.4l37.59 68.8 9.06-77.8c2.4-20.7 55.83-510.2-203.5-913.3-62.87-97.7-173.36-215.9-342.67-224-7.76-.4-15.42-.5-22.96-.5" style="fill:#231f20;fill-opacity:1;fill-rule:nonzero;stroke:none" transform="matrix(.01553 0 0 -.01553 28.027 460.682)"/><path d="M4601 20188.5c101.49-54 210.4 25.6 161.1 126.7-93.97 192.8-229.93 421.8-404.73 587.9-362.96 344.9-362.18 373.1-409.49 459.9 0 0 6.2-500.1 192.33-738.3 98.85-126.5 267.04-333.1 460.79-436.2" style="fill:#87d5ab;fill-opacity:1;fill-rule:nonzero;stroke:none" transform="matrix(.01553 0 0 -.01553 28.027 460.682)"/><path d="M3978.38 21261.1c12.56-157 52.91-456.5 181.48-621 117.44-150.3 275.05-334.9 452.85-429.6 48.05-25.5 93.23-14.1 116.69 8.6 22.4 21.6 26.15 52.6 10.29 85.2-121.2 248.6-255.61 444-399.5 580.7-234.63 223-318.76 315.1-361.81 376.1m690.18-1114.9c-26.31 0-53.64 6.7-79.28 20.3-186.08 99-348.23 288.7-468.71 442.8-189.14 242.1-197.37 732.6-197.63 753.4l-1.24 100.5 48.07-88.3c3.83-7 7.34-13.6 10.76-20.1 37.93-71.7 62.98-119 394.02-433.6 148.22-140.9 286.15-341.1 409.97-595.1 25.19-51.6 17.34-106.4-20.49-142.9-25.3-24.5-59.44-37-95.47-37" style="fill:#231f20;fill-opacity:1;fill-rule:nonzero;stroke:none" transform="matrix(.01553 0 0 -.01553 28.027 460.682)"/><path d="M5046.83 21541.4s-155.11-465.3-93.07-1116.8c15.65-164.3-34.14-298.2-139.59-294.7-279.2 9.3-217.16 570.8-80.66 961.7 136.49 390.9 313.32 449.8 313.32 449.8" style="fill:#87d5ab;fill-opacity:1;fill-rule:nonzero;stroke:none" transform="matrix(.01553 0 0 -.01553 28.027 460.682)"/><path d="M5005.4 21487.1c-59.51-46.4-162.09-156.7-248.35-403.8-109-312.1-163.65-709.4-57.19-864.7 28.28-41.3 65.95-62.1 115.13-63.8 25.55-.7 46.58 8.1 64.66 27.3 41.03 43.7 59.46 133.4 49.29 240.1-48.86 513 37.35 916.1 76.46 1064.9m-187.27-1382.2c-1.59 0-3.19 0-4.8.1-65.23 2.1-117.25 30.9-154.6 85.4-121.22 176.9-58.41 595.4 51.24 909.4 138.94 397.9 321.28 462.7 328.98 465.2l47.27 15.8-15.73-47.3c-1.53-4.6-152.68-468.4-91.91-1106.5 11.68-122.6-11.14-224.3-62.6-279-26.56-28.3-60.3-43.1-97.85-43.1" style="fill:#231f20;fill-opacity:1;fill-rule:nonzero;stroke:none" transform="matrix(.01553 0 0 -.01553 28.027 460.682)"/><path d="M3369.36 22475.9c-3.19 0-6.43.2-9.72.5-23.12 2.2-43.05 11.6-57.54 27-11.58 12.4-18.72 27.3-20.73 42.9-1.08 8.5-1.15 20.8 1.99 53.4 3.54 36.4 11.5 93.9 23.64 171 15.46 84.7 29.91 196.4 43.16 333 2.01 20.8 3.31 36 4.15 47h-.48c-23.59 0-47.14 1.2-70.01 3.4-45.9 4.4-73.11 12-90.94 25.4l-1.23 1c-21.78 17.4-32.28 42.3-29.58 70.1 2.24 23 13.97 42.5 33.02 55 15.22 9.9 35.51 13.5 75.09 13.5l7.13-.1c31.9-.3 104.75-3.4 222.73-9.4 21.02-.9 44.32-2.1 69.41-3.6 24.65-1.6 44.01-2.7 58.17-3.5 15.27-.9 24.29-1.4 27.12-1.7l3.1-.3c15.76-1.5 31.15-6.5 45.71-14.8 18.05-10.2 29.94-22.3 36.39-36.9l.61-1.3.52-1.5c4.09-11.1 5.38-23.7 3.93-38.7-2.08-21.3-9.49-38.3-22.01-50.6-14.01-13.7-32.72-22.3-54.1-24.8-5.58-.6-11.89-.9-19.26-.9-12.41 0-27.74.9-46.87 2.7-31.41 3.1-55.94 4.9-73.15 5.4l-10.64-125-5.53-57.2c-4.05-41.7-8.04-77.6-11.87-106.7-3.82-29.1-9.34-68.8-16.57-119.3-7.23-50.4-12.74-88.6-16.59-114.6-7.92-52.8-11.47-68.6-13.45-75.9-5.41-19.8-16.26-36-31.38-46.9-15.91-11.5-34.65-17.6-54.22-17.6" style="fill:#100f0d;fill-opacity:1;fill-rule:nonzero;stroke:none" transform="matrix(.01553 0 0 -.01553 28.027 460.682)"/><path d="M3270.18 23366.2c-42.1 0-73.58-3.4-100.43-20.8-31.31-20.5-51.04-53.3-54.63-90.3-4.25-43.4 12.89-84.1 47.02-111.4l1.19-1 1.22-.9c25.25-19 59.57-29.3 114.75-34.7 7.8-.7 15.68-1.4 23.61-1.9-13.04-133.9-27.21-243.2-42.12-324.9l-.2-1.1-.18-1.2c-12.48-79.1-20.32-135.9-23.99-173.7-3.19-33-3.67-49.7-1.84-64 3.28-25.5 14.68-49.4 32.98-69 22.51-24.1 52.79-38.5 87.62-41.9 4.68-.4 9.46-.7 14.16-.7 29.55 0 57.85 9.2 81.82 26.5s41.01 42.4 49.28 72.7c2.68 9.9 6.48 27.1 14.61 81.3 3.88 26.3 9.41 64.5 16.64 115 7.4 51.6 12.84 90.8 16.65 119.8 3.91 29.7 7.96 66.2 12.05 108.4l5.48 56.6.06.5.04.6 6.73 79c7.57-.6 16.04-1.4 25.52-2.3 20.66-2 37.48-3 51.41-3 9.24 0 17.36.4 24.82 1.3 31.75 3.7 60.02 16.8 81.6 38 20.61 20.1 32.72 47 35.9 79.6 2.14 22.2-.02 41.7-6.61 59.6l-1.04 2.8-1.21 2.8c-10.54 23.8-29.45 43.7-56.22 58.8-20.43 11.6-42.11 18.6-64.52 20.7l-2.79.3c-3.89.4-9.55.8-29.22 1.9-14.2.8-33.46 1.9-57.99 3.4-25 1.6-48.65 2.8-70.33 3.7-118.45 6.1-191.8 9.2-224.22 9.5zm0-94.3h6.63c30.86-.4 104.46-3.5 220.83-9.4 21.17-.9 44.16-2.1 68.92-3.6 24.77-1.6 44.24-2.7 58.47-3.5 14.2-.8 22.62-1.3 25.26-1.6l2.95-.3c9.21-.9 18.22-3.8 27.05-8.8 8.81-5 14.31-10 16.5-14.9 1.58-4.3 1.99-10.3 1.26-17.9-.97-10-3.66-17.1-8.07-21.5-6.59-6.4-15.45-10.3-26.53-11.6-3.74-.5-8.35-.7-13.82-.7-10.76 0-24.87.9-42.32 2.6-39.48 3.8-68.55 5.7-87.13 5.8l-33.83.6-14.38-169-5.49-56.6c-3.98-41.2-7.88-76.3-11.68-105.2s-9.3-68.5-16.49-118.7c-7.21-50.3-12.72-88.4-16.57-114.4-5.62-37.5-9.74-61-12.3-70.4-2.57-9.4-7.08-16.5-13.5-21.1-7.94-5.7-16.8-8.6-26.6-8.6-1.68 0-3.38.1-5.12.2-11.85 1.2-21.08 5.3-27.69 12.4-4.83 5.1-7.61 10.7-8.37 16.6s-.03 20.2 2.16 42.9c3.44 35.4 11.18 91.4 23.28 168.1 15.55 85.2 30.06 197.1 43.51 335.8 4.99 51.7 6.77 80.2 5.3 85.6l-3.76 12.7-41.81.5h-3.01c-22.24 0-44.05 1.1-65.45 3.1q-52.35 5.1-67.2 16.2c-9.24 7.5-13.31 17-12.16 28.8.85 8.8 4.82 15.5 11.92 20.2 5.91 3.8 22.32 5.7 49.24 5.7" style="fill:#f4d8b9;fill-opacity:1;fill-rule:nonzero;stroke:none" transform="matrix(.01553 0 0 -.01553 28.027 460.682)"/><path d="M3771.93 22841.5c11.87-3.3 29.91-7.4 56.73-11.4 9.24-1.5 19.58-2.7 31.04-3.8 1.73-.2 3.48-.3 5.24-.3 7.48 0 15.64 1.5 24.26 4.5 10.92 3.6 21.21 9.8 31.21 18.7 10.13 9 13.33 14.4 14.17 16.2-.57 7.2-10.32 15.3-18.72 20.9-9.44 6-23.58 10.6-41.24 13.3l-11.69 1.1c-4.58.5-8.9.7-12.95.7-8.16 0-12.74-1-14.76-1.6-3.06-.9-11.96-4.3-28.29-16.1-15.56-11.2-27.08-25.1-35-42.2m-7.3-168.6c2.62-6.4 7.05-13.2 13.08-20.3 7.75-9.2 15.7-16 23.66-20.3 9.34-4.8 18.57-7.8 27.73-8.7 3.6-.3 7.15-.5 10.6-.5 21.97 0 38.01 7 52 22.6 6.2 6.6 11.75 12.2 16.84 17-13.98-2.2-28.33-3.2-43.03-3.2-10.07 0-20.43.5-30.81 1.5-2.65.2-7.02.8-13.26 1.8-3.39.5-6.27.9-8.29 1.1l-2.68.4c-16.32 2.5-31.64 5.3-45.84 8.6m77.29-219.9c-6.51 0-13.01.3-19.33.9-2.95.3-6.91.9-11.99 1.8-2.45.4-4.32.7-5.87.9l-2.06.2c-58.32 8.5-109.06 33.4-150.8 74.2-30.19 29.9-52.15 68.7-65.5 115.6-12.72 44.7-16.75 92.3-11.97 141.5 1.9 19.7 5.88 41.5 11.83 64.9 14.84 56.4 41.71 104 79.99 141.9 38.75 38.3 86.27 63.6 141.26 75 10.7 2.2 22.57 3.3 36.41 3.3 10.36 0 22-.7 34.59-1.9 38.89-3.8 73.42-12 102.63-24.4 25.18-10.7 49.37-27.5 71.77-49.8 22.68-22.7 39.16-46.8 48.98-71.6 10.22-27.8 13.97-53.7 11.6-78.1-4.58-47.1-30.63-90.3-77.41-128.2-14.12-11.3-28.87-21-44.24-29.2 18.13-3.5 34.49-12.4 47.72-25.9 17.14-17.7 25.32-40.4 23.04-63.9-2.32-23.9-14.94-47.5-38.58-72.2-20.09-20.9-42.93-37.2-67.9-48.4-41.06-17.7-79.31-26.6-114.17-26.6" style="fill:#100f0d;fill-opacity:1;fill-rule:nonzero;stroke:none" transform="matrix(.01553 0 0 -.01553 28.027 460.682)"/><path d="M3843.84 23120.3c-17.05 0-32-1.3-45.72-4.1-64.28-13.4-119.75-42.9-165.1-87.8-44.33-43.9-75.4-98.7-92.31-163l-.1-.4-.09-.3c-6.55-25.8-10.94-50-13.08-72.1-5.35-55.1-.78-108.6 13.57-158.9 15.59-54.8 41.65-100.5 77.46-136 49.45-48.3 108.99-77.6 177.4-87.6l2.24-.3 2.25-.2 1.61-.3c6.44-1.1 11.4-1.9 15.9-2.3 7.98-.8 16.04-1.2 24.07-1.2 41.33 0 85.87 10.2 132.39 30.3l.48.2.48.3c30.56 13.6 58.4 33.4 82.74 58.8 31.27 32.7 48.1 65.4 51.49 100.2 3.45 35.7-7.9 69.8-32.04 96.9 49.73 44.1 77.51 94.5 82.93 150.3 3.06 31.5-1.59 64.4-13.84 97.8l-.41 1.1-.44 1.1c-12.21 30.9-32.23 60.4-59.48 87.6-26.72 26.7-55.94 46.9-86.86 60-33.43 14.2-72.65 23.6-116.32 27.9-14.14 1.3-27.33 2-39.22 2m21.1-341.5c12.78 0 26.01 2.4 39.69 7.1 16.47 5.5 32.14 14.8 47.05 28 14.9 13.2 24.26 25.7 28.08 37.7.81 1.6 1.41 4.2 1.75 7.7 2.42 24.9-10.74 47-39.43 66.2-16.28 10.4-36.86 17.3-61.74 20.9l-12.84 1.3c-6.2.6-12.04.9-17.51.9-10.79 0-20.16-1.2-28.1-3.5-11.97-3.6-26.17-11.3-42.59-23.1-26.45-19.1-45.16-44.3-56.15-75.4-4.55-12.5-6.95-20.1-7.22-23-.33-3.5.69-6.5 3.09-9.1 13.41-12.4 47.64-22.8 102.64-31.1 9.81-1.5 20.97-2.9 33.5-4.1 3.23-.3 6.49-.5 9.78-.5m-21.1 247.2c8.9 0 18.93-.6 30.1-1.6 34.22-3.4 63.79-10.3 88.67-20.9 19.77-8.4 38.76-21.7 56.93-39.8 18.17-18.2 30.99-36.7 38.46-55.6 7.35-20 10.2-38.8 8.51-56.2-3.33-34.2-23.38-66.2-60.16-96.1-40.91-32.8-87.86-49.2-140.83-49.2-8.6 0-17.36.5-26.27 1.3-1.97.2-5.42.7-10.32 1.5-4.91.7-8.69 1.3-11.32 1.5-31.42 4.8-58.09 10.9-79.94 18.3-9.6 3.9-19.33 6.3-29.2 7.2l-2.97.3c-1.49-1.6-.88-10.7 1.83-27.4 2.69-16.7 6.34-32.2 10.91-46.7 4.03-13.3 11.86-26.8 23.48-40.5 11.62-13.8 24.07-24.2 37.33-31.3 15.18-7.9 30.32-12.6 45.48-14.1 5.19-.5 10.26-.8 15.2-.8 35.2 0 64.23 12.8 87.1 38.3 12.59 13.4 22.06 21.9 28.37 25.4 6.44 3.3 12.96 4.9 19.56 4.9 1.27 0 2.55 0 3.83-.2 10.52-1 19.57-5.4 27.12-13.1 7.56-7.8 10.86-16.6 9.91-26.5-1.25-12.8-9.82-27.4-25.71-44.1-15.91-16.6-33.58-29.2-53.02-37.9q-52.17-22.5-94.95-22.5c-5.03 0-9.97.2-14.81.7-1.97.2-4.76.6-8.35 1.2-3.59.7-6.71 1.1-9.34 1.4-48.48 7-90.01 27.5-124.61 61.3-24.25 24-41.94 55.6-53.09 94.7-11.15 39.2-14.62 80.5-10.39 124 1.68 17.5 5.21 36.7 10.6 57.9 12.62 48 35.1 87.9 67.44 119.9 32.34 32.1 71.55 52.9 117.68 62.4 7.34 1.5 16.26 2.3 26.77 2.3" style="fill:#f4d8b9;fill-opacity:1;fill-rule:nonzero;stroke:none" transform="matrix(.01553 0 0 -.01553 28.027 460.682)"/><path d="M4420.68 22885.1c-22.89 0-46.13-7.3-71.05-22.3-29.36-17.6-48.12-46.2-57.49-87.6-3.36-13.9-5.03-26.4-5.1-37.9-.21-29.4 9.61-52.4 30.88-72.2 15.28-14 29.54-21 43.33-21.1l3 .1 1.31.3 2.84.2c6.78.7 22.68 3.8 52.92 17.2 24.72 10.9 45.68 22.5 62.28 34.5 8.35 6.3 15.35 11.4 21.5 15.7 1.89 13.2 4.81 39.2 8.53 89.1l3.69 47.6c-1.57 1.3-2.83 2.4-3.82 3.2-9.69 3.1-21.52 9.3-41.03 21.2l-1.46.9c-10.91 7.2-15.34 8.9-15.69 9h-.01c-.13 0-6.02 1.3-23.87 2l-10.09.1-.67 47.2zm170.51-623c-2.57 0-5.28.1-8.13.2-19.32.9-41.18 3.8-57.34 18.4-8.38 7.6-15.27 16.8-20.5 27.5-5.84 12.7-9.7 21.1-8.67 176.7.05 7.3.07 13.9.08 20-48.01-20.7-93.92-31.3-136.73-31.3h-1.76c-29.23.2-56.92 5.7-82.32 16.4-21.2 8.8-43.13 22.2-66.85 41-23.76 18.7-41.73 36.9-54.92 55.3-30.67 42.5-46.07 93.5-45.69 151.3.89 134.4 64.6 233.2 184.25 285.8 45.55 19.1 88.26 28.6 127.69 28.6h1.66c38.11-.2 77.1-9.2 115.88-26.6l1.64-.7c10.82 20.2 28.03 34.6 49.92 41.3 8.57 3 17.46 4.4 26.43 4.4 9.46 0 18.99-1.6 28.32-4.9 25.93-8.4 38.79-24.5 44.85-36.5 6.7-13.4 9.46-30.5 9.28-57.4-.11-16.9-1.27-39.8-3.55-69.8-10.08-140.7-15.91-270.7-17.33-386-3.36-192.6-4.95-195.8-10.9-208-5.38-10.7-12.14-19.8-20.38-27.6-19.09-18.1-46.07-18.1-54.93-18.1" style="fill:#100f0d;fill-opacity:1;fill-rule:nonzero;stroke:none" transform="matrix(.01553 0 0 -.01553 28.027 460.682)"/><path d="M4361.72 22691.4c-1.82.7-6.08 3.1-12.14 8.7-11.04 10.3-15.48 20.7-15.37 36.9.05 7.8 1.27 16.7 3.63 26.5l.16.7.14.6c8.49 37.5 24.36 50.7 35.55 57.4 17.41 10.5 33.13 15.7 46.99 15.7h9.56c4.73-.2 8.25-.5 10.79-.7 1.11-.7 2.45-1.5 4.03-2.6l1.44-.9 1.46-.9c7.02-4.3 13.59-8.2 19.91-11.7l-1.26-16.2c-2.33-31.3-4.29-52.5-5.82-66.8-1.82-1.3-3.65-2.7-5.5-4.1-13.84-9.8-31.69-19.6-53.06-29.1-27.31-12.1-37.88-13.3-38.31-13.3zm254.11 426.2c-13.91 0-27.65-2.2-40.9-6.7-19.37-6-36.49-16.1-50.69-29.5-34.01 11.6-68.19 17.6-101.97 17.8h-1.98c-45.71 0-94.56-10.7-145.17-32l-.75-.3-.74-.3c-137.96-60.6-211.42-174.3-212.44-328.7-.45-68 17.95-128.4 54.69-179.3 15.6-21.8 36.55-43.1 63.85-64.7 27.15-21.4 52.73-37 78.18-47.6 30.81-12.9 64.54-19.6 99.93-19.8h2.06c28.84 0 58.68 4 89.31 12 0-121.4 4.28-130.7 12.6-148.9l.5-1.1.52-1c7.89-16.2 18.42-30.2 31.3-41.8 27.34-24.7 60.69-29.3 86.68-30.5 3.71-.2 7.14-.3 10.38-.3 36.24 0 65.64 10.5 87.39 31.1 12.18 11.5 22.16 24.9 29.69 39.8l.34.7.32.6c10.96 22.5 12.1 24.9 15.64 227.6 1.41 115 7.2 244 17.23 384 2.33 30.6 3.53 54.5 3.65 72.5.22 35-4.04 58.5-14.25 78.9-10.06 20-30.77 46.5-72.57 60.3-14.01 4.8-28.4 7.2-42.8 7.2m-253.94-520.7c4.81 0 8.48.2 10.96.8 17.2 1.6 39.73 8.6 67.6 21 27.86 12.3 51.41 25.4 70.69 39.3q29.88 22.5 33.87 22.5h.02c4.61 0 9.82 39 15.64 117.1l5.43 69.9-15.78 15c-10.52 9.3-17.44 14.1-20.74 14.1-3.32 0-14.18 5.6-32.63 16.8-12.5 8.3-22.23 13.3-29.16 15.1-6.94 1.8-18.67 3-35.19 3.7l-10.91.1h-1.01q-47.13 0-95.4-29.1c-40.51-24.2-66.89-63.4-79.15-117.5-4.08-16.9-6.16-33-6.27-48.1-.28-42.6 15.01-78.2 45.92-107 24.31-22.3 49.37-33.5 75.16-33.7zm253.94 426.4c4.19 0 8.47-.8 12.83-2.3 9.22-3 15.28-7.4 18.22-13.3 2.94-5.8 4.34-17.8 4.22-35.8-.09-15.8-1.24-37.9-3.41-66.5-10.22-142.8-16.02-272.4-17.46-389-2.11-121.3-4.15-183.9-6.13-188-2.65-5.2-6.13-9.8-10.41-13.9-3.66-3.5-11.17-5.2-22.5-5.2-1.88 0-3.88 0-5.97.1-14.71.7-24.01 2.8-27.91 6.3q-5.865 5.4-9.72 13.2-4.815 10.5-3.87 155.7c.41 61.2-.72 91.8-3.36 91.9-2.67 0-15.61-5.8-38.8-17.3-51.19-25.6-98.4-38.4-141.66-38.4h-1.45c-23.14.2-44.61 4.4-64.39 12.7-17.16 7.1-35.75 18.6-55.82 34.5-20.07 15.8-35.34 31.1-45.82 45.7-24.91 34.6-37.2 75.8-36.88 123.6.76 116.6 52.79 197.6 156.04 242.9 39.18 16.5 75.42 24.7 108.71 24.7h1.36c31.68-.3 63.96-7.8 96.86-22.5 28.96-12.5 44.77-18.7 47.4-18.7h.02c3.27 0 6.3 6.7 9.03 20 3.41 20.4 13.08 32.9 28.95 37.4 3.9 1.4 7.87 2.2 11.92 2.2" style="fill:#f4d8b9;fill-opacity:1;fill-rule:nonzero;stroke:none" transform="matrix(.01553 0 0 -.01553 28.027 460.682)"/><path d="M5163.2 22426.1c-28.36 0-63.11 11.7-86.53 59.4-41-35.3-90.18-54.4-146.43-56.4-4.06-.2-8-.2-11.83-.2-26.25 0-48.08 3.3-66.73 10-20.86 7.5-43.21 21.5-68.27 42.8-38.64 32.3-67.24 76.5-84.8 131-8.8 25.3-14.09 66.8-16.34 129.5-1.79 50.5-.97 100.1 2.47 147.4 5.21 71.9 14.97 94.7 24.74 108.7 15.02 22 40.04 35 70.1 36.1 1.46.1 2.81.1 4.15.1 41.4 0 60.64-22.4 68.65-36.6 6.7-11.4 10.38-25.1 10.95-41 .23-6.6.01-18.4-3.35-55.9-3.12-34.6-3.88-75.6-2.23-121.9 2.53-71 8.56-98.7 11.93-108.9 11.68-35.7 23.94-52.5 32.16-60.3 8.57-8.1 16.24-12.2 22.72-12.2 11 .4 42.52 1.5 75.29 60 27.23 48.7 42.71 88.5 46 118.3 2.47 26.7 8.78 66.6 19.2 121.2 13.96 73.1 20.07 96.1 23.46 107 6.97 20.7 17.45 36.1 31.49 46.8 15.14 11.9 32.29 18.6 50.37 19.2l2.76.1c17.35 0 34.48-5.8 50.91-17.2l1.61-1.1 1.52-1.2c17.84-14.7 28.13-35.3 28.94-58 .38-10.3-.55-27.9-10.2-79.8-17.67-93.1-25.44-173.2-23.13-238.1 1.66-46.5 8.49-88 20.32-123.3l.5-1.5.39-1.5c4.22-16 6.05-25.8 6.33-33.8 1.86-51.9-31.01-86.8-83.73-88.7z" style="fill:#100f0d;fill-opacity:1;fill-rule:nonzero;stroke:none" transform="matrix(.01553 0 0 -.01553 28.027 460.682)"/><path d="M5173.14 23117.4h-4.36c-27.75-1-54.7-11.2-78.02-29.4-21.31-16.4-36.98-39.2-46.58-67.6l-.38-1.1-.35-1.1c-4.04-13.1-10.5-37.6-24.74-112.2-10.58-55.5-17.07-96.5-19.81-125.4-1.61-13.5-9.04-44.1-40.22-99.8-4.82-8.6-15.79-26.5-27.16-33.3-3.46 4.8-9.94 15.7-16.95 37.2-.81 2.4-7.08 23.3-9.67 96.1-1.58 44.3-.89 83.3 2.06 116 3.39 37.8 3.86 52 3.51 61.8-.84 23.6-6.62 44.7-17.18 62.8-21.77 38.3-61.55 60.3-109.54 60.3-1.88 0-3.81-.1-5.77-.1-45.29-1.7-83.41-21.8-107.47-56.7-18.69-27-27.9-64.1-32.82-131.9-3.55-49-4.42-100.3-2.56-152.4 2.42-67.7 8.24-112 18.86-143.2 20.36-62.8 53.77-113.9 99.34-152.1 29.01-24.5 56.08-41.3 82.36-50.8 23.8-8.6 50.87-12.8 82.68-12.8 4.39 0 8.91.1 13.54.3 48.58 1.7 93.6 14.6 133.61 38.1 34.84-35.6 75.64-41.2 97.67-41.2 1.67 0 3.35 0 5.04.1 78.88 2.8 132.02 59.4 129.24 137.5-.42 11.9-2.62 24.2-7.85 44.1l-.8 3-.99 3c-10.39 31-16.41 68-17.91 109.9-2.19 61.5 5.32 138 22.31 227.6 10.52 56.6 11.51 76.9 11.03 90.4-1.31 36.4-17.69 69.4-46.15 92.7l-3 2.5-3.2 2.2c-24.46 16.9-50.63 25.5-77.77 25.5m0-94.3c7.62 0 15.65-2.9 24.08-8.8 7.5-6.1 11.42-13.9 11.75-23.2.38-10.5-2.78-33.6-9.43-69.4-18.39-96.9-26.35-179.8-23.91-248.5 1.83-51.3 9.41-96.8 22.74-136.6 3.05-11.5 4.67-19.4 4.81-23.4.91-25.7-11.87-39-38.28-39.9h-1.71c-28.81 0-48.39 26.4-58.69 79.2-3.16 14.4-5.71 21.6-7.69 21.6h-.03c-1.98 0-9.33-7.6-22.03-22.6-38.65-48.1-87.39-73.2-146.2-75.3-3.49-.1-6.88-.1-10.18-.1-20.48 0-37.35 2.4-50.63 7.2-15.43 5.5-33.36 17-53.83 34.4-32.07 26.8-55.54 63.3-70.4 109.5-7.38 21.3-12.07 60.2-14.1 116.7-1.73 49-.95 96.4 2.38 142.3 3.32 45.9 8.77 74.2 16.32 85 6.92 10.2 17.96 15.5 33.18 16.1h2.46c13.83 0 23.08-4.3 27.77-13 2.81-4.5 4.37-10.9 4.66-19 .25-7-.82-23.7-3.18-50-3.33-36.9-4.11-79.5-2.39-127.9 2.1-58.8 6.85-99.5 14.27-122 11.87-36.3 26.72-62.9 44.54-79.8 17.76-16.7 36.15-25.1 55.14-25.1l2.32.1c45.61 1.6 83.65 29.6 114.13 84.1s47.73 99.8 51.73 136.2c2.39 25.7 8.62 64.9 18.65 117.4 10.03 52.6 17.41 86.5 22.17 101.9 3.59 10.6 8.61 18.4 15.05 23.3 7.73 6.1 15.55 9.3 23.48 9.6z" style="fill:#f4d8b9;fill-opacity:1;fill-rule:nonzero;stroke:none" transform="matrix(.01553 0 0 -.01553 28.027 460.682)"/><path d="M5354.49 22450.9c-18.19 0-35.31 5.2-50.89 15.4-18.48 12.1-31.2 30-36.68 52-1.9 6.9-4.84 17.6-15.21 196.2l-4.51 77.7c-5.47 94.1-1.93 117 12.47 134.2-5.88 5.7-10.95 12.4-15.07 20.1l-.81 1.5-.69 1.6c-4.61 10.3-7.25 20.8-7.85 31.1-1.31 22.7 6.86 43.5 23 58.7 14.21 13.3 33.17 20.8 56.35 22.1 2.22.1 4.45.2 6.63.2 19.3 0 36.27-5.1 50.42-15 18.7-13.2 29.71-32.8 31.02-55.4.77-13.3-1.57-26-6.97-37.7-3.34-8-7.74-15.1-13.05-21.3 2.95-2.7 5.71-5.7 8.29-8.9l1.4-1.8c11.41-15.8 18.81-38.7 23.99-74.3 4.06-28 9.61-86.2 16.97-178.1l13.02-164.9-27.77-27.5c-15.63-15.5-35.88-24.4-58.55-25.7-1.85-.1-3.69-.2-5.51-.2" style="fill:#100f0d;fill-opacity:1;fill-rule:nonzero;stroke:none" transform="matrix(.01553 0 0 -.01553 28.027 460.682)"/><path d="M5321.21 23108.9c-3.05 0-6.18-.1-9.36-.3-42.97-2.5-70.43-20.3-85.9-34.9-26.49-24.8-39.93-58.8-37.8-95.7.96-16.1 4.95-32.2 11.87-47.7l1.4-3.1 1.62-3c.5-.9 1.01-1.9 1.52-2.8-8.95-29.5-8.1-69-4.45-131.9l4.51-77.7c10.43-179.8 13.5-193.9 16.85-206.2 8.58-33.1 28.06-60.3 56.38-78.8 23-15.1 49.53-23.1 76.64-23.1q4.11 0 8.25.3c34.3 2 65.1 15.6 89.04 39.3l12.17 12 31.12 30.9-3.45 43.6-11.29 143c-7.46 93.1-13.12 152.3-17.31 181.2-5.12 35.2-12.62 61-23.77 81.4 8.04 18.2 11.68 38.3 10.53 58.6-2.17 36.8-20.75 70-50.99 91.3-21.96 15.4-48.79 23.6-77.58 23.6m6.17-202.6c11.22 0 20.14-4.2 26.74-12.4 6.49-9 11.65-26.8 15.53-53.4 3.87-26.6 9.41-85 16.63-175.1l11.29-143-12.22-12.1c-7.51-7.4-16.89-11.5-28.1-12.1-.93-.1-1.84-.1-2.76-.1-8.87 0-17.21 2.5-25.02 7.6-8.62 5.7-14.2 13.7-16.79 24-2.52 9.2-7.15 71.7-13.87 187.6l-4.51 77.7c-3.62 62.2-2.96 96.1 2.04 101.7 5.63 5.6 15.04 8.7 28.25 9.5.95.1 1.88.1 2.79.1m-6.17 108.2c9.43 0 17.21-2.1 23.3-6.4q10.35-7.35 11.07-19.5c.33-5.8-.69-11.1-3.06-16-5.19-13.1-16.05-20.2-32.54-21.1-1.09-.1-2.16-.1-3.21-.1-14.17 0-24.37 5.8-30.59 17.4-2.29 5.1-3.56 10-3.84 14.7-.5 8.7 2.22 15.9 8.19 21.5 5.96 5.6 14.9 8.7 26.78 9.4 1.33.1 2.63.1 3.9.1" style="fill:#f4d8b9;fill-opacity:1;fill-rule:nonzero;stroke:none" transform="matrix(.01553 0 0 -.01553 28.027 460.682)"/><path d="M5530.17 22452.7c-22.02 0-42.06 6.9-57.98 19.8-13.1 11.2-22.06 24.6-27.37 40.5-2.53 7.6-5.9 20.6-11.55 58.6-3.94 25.7-7.89 66.6-12.04 124.6-6.46 90.3-11.77 190.6-15.8 298.1-5.28 141.9-3.31 180.5-.48 197.5 1.86 14.1 8.65 33.6 29.76 50.6 15.27 12.2 32.58 19 51.54 20.4 1.82.1 3.69.2 5.58.2 10.08 0 20.76-2 31.75-5.8l1.31-.5 1.27-.5c21.19-8.9 47.3-31.3 51.33-87.7.7-9.8.84-17.7.39-24.3-.26-10.6 1.9-67.5 18.47-322.7 8.83-141.8 14.04-228.8 15.5-258.7 1.94-40.8-.25-66.5-17.17-84.4-9.79-10.6-27.39-23.3-56.45-25.4-2.77-.2-5.45-.3-8.06-.3" style="fill:#100f0d;fill-opacity:1;fill-rule:nonzero;stroke:none" transform="matrix(.01553 0 0 -.01553 28.027 460.682)"/><path d="M5491.81 23310.1q-4.5 0-8.82-.3c-28.41-2-55.23-12.6-77.68-30.5-26.08-20.9-42.6-49.3-46.98-80.3-3.14-19-5.64-56.2-.04-206.4 4.04-108 9.39-208.9 15.88-299.8 4.25-59.3 8.34-101.4 12.5-128.6 6.1-41.1 10.07-56.1 13.44-66.2 7.91-23.8 22.04-44.9 40.82-60.8l.72-.6.72-.6c24.43-19.9 54.78-30.5 87.77-30.5 3.73 0 7.55.2 11.45.5 44.14 3.1 71.8 23.2 87.51 40.1 31.17 33.1 31.88 76.8 29.87 118.9-1.47 30.3-6.7 117.5-15.53 259.3-16.45 253.4-18.41 307.2-18.4 318.4.49 8.4.32 17.8-.51 29.3-6.02 84.4-52.79 116.2-80.14 127.7l-2.54 1-2.61 1c-16.03 5.6-31.98 8.4-47.43 8.4m0-94.3c4.79 0 10.16-1.1 16.12-3.1 13.13-5.6 20.63-21.4 22.5-47.5.59-8.2.68-14.3.33-18.4-.74-17.6 5.45-127.1 18.51-328.3 8.92-143.2 14.06-229.2 15.46-258 1.38-28.8-.1-45.5-4.49-49.9-5.6-6.2-14.05-9.7-25.4-10.5-1.6-.2-3.17-.2-4.7-.2-11.24 0-20.61 3.1-28.14 9.2-5.72 4.9-9.86 11.1-12.42 18.8-2.57 7.7-5.79 24.6-9.65 50.6-3.72 24.3-7.62 64.7-11.65 121.1-6.44 90.1-11.68 188.9-15.71 296.5-4.01 107.5-4.31 170.5-.94 188.9.8 7.6 4.98 14.5 12.59 20.6 7.62 6.1 16.07 9.4 25.4 10.1z" style="fill:#f4d8b9;fill-opacity:1;fill-rule:nonzero;stroke:none" transform="matrix(.01553 0 0 -.01553 28.027 460.682)"/><path d="M5958.54 22974.7c-2.09 0-4.03-.2-5.75-.5-15.73-2.9-50.41-18-105.79-87.5-21.19-26.2-35.77-47.9-43.5-64.6-7.01-15.3-11.36-33.2-12.9-53.3-1.2-13.6-.42-27.8 2.26-42.5 3.86-21.1 10.87-38.4 21.46-52.9 8.27-11.3 16.76-17.9 25.93-20.4 2.76-.7 5.73-1.1 8.87-1.1 2.54 0 5.24.3 8 .8 17.06 3.1 35.54 13 54.97 29.4 21.33 18 39.64 40.8 54.42 67.9 11.78 21.3 15.25 29.7 16.12 32.1.26 2 .92 9.5-.01 27.7l-.06 2.1c-.28 43.1 1 82.4 3.82 116.8l3 38.1c-7.16 3.3-13.76 5.5-19.73 6.7-3.97.8-7.75 1.2-11.11 1.2m-116.15-492.5c-15.4 0-30.15 1.5-43.85 4.4-35.8 8.2-69.83 26.8-101.8 55.5-31.73 28.4-54.51 60.8-67.69 96.2-4.74 12.3-8.69 27-11.87 44.4-6.96 38.3-8.67 73.7-5.07 105.4 8.22 81.5 47.22 157.6 115.86 225.5 28.24 28 39.11 38.6 44.43 43.4 23.3 23.5 52.81 44 87.71 61.1 21.4 9.9 39.72 16.1 56.86 19.3 11.74 2.1 23.99 3.2 36.44 3.2 24.93 0 51.68-4.4 79.51-12.9 17.46 20.4 36.66 27.7 50.76 30.3a96 96 0 0 0 17.51 1.6c15.19 0 29.19-3.8 41.6-11.2 18.79-11.4 31.32-29.9 35.38-52.3 2.35-12.9 2.17-25.9-.56-38.7-6.74-31.5-11.86-75.6-15.22-131.1-4.05-71.8-1.22-135.1 8.42-188 3.16-17.3 7.39-35.3 12.55-53.5 6.46-23.3 10.71-40.8 13.07-53.8 9.74-53.4-13.67-79-28.49-89.5-13.45-9.1-26.72-14.7-40.32-17.2-5.27-1-10.56-1.4-15.78-1.4-19.7 0-38.64 6.9-54.76 19.9-7.17 5.8-13.63 12.7-19.34 20.6-6.48-5.5-13.84-11.4-22.2-17.8-29.64-22.7-52.3-36.7-71.35-44.1-14.52-6.1-31.32-11-48.83-14.2-18.59-3.4-36.42-5.1-52.97-5.1" style="fill:#100f0d;fill-opacity:1;fill-rule:nonzero;stroke:none" transform="matrix(.01553 0 0 -.01553 28.027 460.682)"/><path d="m5853.15 22700.3-.81 1c-6.25 8.6-10.52 19.5-13.07 33.5-1.93 10.6-2.51 20.5-1.72 29.4l.04.5.04.5c1.12 14.5 4.05 27 8.71 37.1 3.43 7.4 12.82 24.4 37.17 54.6 23.59 29.5 41.71 46.9 54.5 57-1.97-30.9-2.86-65.3-2.61-102.3l.01-2.1.11-2.1c.32-6.5.42-11.1.42-14.2-1.97-4.1-5.28-10.6-10.67-20.3-12.29-22.5-26.52-40.3-43.63-54.8-13.11-11.1-22.56-15.8-28.49-17.8m248.04 506.5c-8.52 0-17.26-.8-25.98-2.4-15.9-2.9-35.92-9.6-55.52-24.4-22.8 5.2-45 7.8-66.27 7.8-15.29 0-30.39-1.4-44.88-4-21.11-3.9-43.19-11.2-67.49-22.5l-.85-.4-.85-.5c-39.11-19.1-72.51-42.3-99.35-69-7-6.5-19.15-18.4-45.21-44.2-76.48-75.7-120.08-161.3-129.61-254.3-4.05-36.2-2.16-76.1 5.6-118.6 3.65-20.1 8.31-37.4 14.24-52.9 15.91-42.5 42.91-81 80.27-114.5 37.97-34 79.04-56.3 122.04-66.1l.65-.2.65-.1c16.93-3.7 35.01-5.5 53.73-5.5 19.38 0 40.06 2 61.47 5.9 20.47 3.7 40.2 9.5 58.66 17.1 20.68 8.2 43.78 21.9 71.96 42.8 23.06-16.5 49.65-25.1 77.39-25.1 8.05 0 16.2.7 24.23 2.2 20.06 3.7 39.39 11.7 57.45 23.9l.87.6.85.6c19.3 13.7 62.57 54.4 47.59 136.5-2.62 14.4-7.18 33.3-13.91 57.6-4.94 17.4-8.82 33.9-11.7 49.7-8.97 49.2-11.57 108.8-7.72 177 3.19 52.8 7.99 94.5 14.23 123.6 4.03 19 4.31 38.2.86 57.1-6.53 35.9-26.86 65.8-57.24 84.1-19.87 12-42.65 18.2-66.16 18.2m-252.1-602.1c5.42 0 10.92.5 16.52 1.6 25.38 4.6 51.02 17.9 76.94 39.8s47.69 49 65.35 81.2c11.61 21.1 18.42 35.4 20.42 42.9 1.99 7.4 2.47 21.4 1.42 42-.28 42 .95 79.6 3.66 112.7l5.48 69.4-20.07 10.6c-14.15 7.5-27.49 12.4-40.03 14.9-7.08 1.4-13.81 2.1-20.21 2.1-4.95 0-9.69-.5-14.23-1.3-39.69-7.2-84.44-42-134.22-104.4-23.58-29.2-40.07-54-49.46-74.4s-15.1-43.5-17.1-69.3c-1.53-17.5-.56-35.7 2.89-54.6 5.12-28.1 15.07-52.2 29.82-72.4 14.77-20.1 32.04-32.8 51.82-38.1q10.26-2.7 21-2.7m252.1 507.7q9.81 0 17.31-4.5c7.16-4.3 11.6-11.1 13.27-20.2 1.25-6.9 1.15-13.7-.3-20.5-7.27-33.9-12.65-80-16.17-138.1-4.28-76-1.25-142.4 9.1-199.2 3.45-18.9 7.99-38.3 13.59-58 5.93-21.4 9.93-37.9 12.03-49.3 3.87-21.3.74-35.5-9.38-42.6-7.18-4.9-14.36-8-21.49-9.3-2.48-.4-4.92-.7-7.31-.7-8.93 0-17.28 3.2-25.06 9.5-9.86 8-17.61 20-23.23 36.2-4.9 16.4-10.08 24.6-15.57 24.6l-1.01-.1c-3.9-.7-8.43-5.4-13.57-14-5.7-9.3-21.24-23.7-46.58-43.2-25.37-19.4-45.27-31.9-59.71-37.5-12.5-5.3-25.9-9.2-40.21-11.8-15.91-2.9-30.76-4.3-44.54-4.3-12.13 0-23.43 1.1-33.92 3.3-27.36 6.3-54.11 21.1-80.21 44.5-26.12 23.4-44.44 49.3-54.97 77.6-3.84 9.9-7.06 22.1-9.67 36.4-6.17 33.8-7.7 64.4-4.61 91.6 7.18 71.2 41.23 137 102.17 197.3 27.89 27.6 42.45 41.8 43.66 42.6 19.83 20.2 45.18 37.9 76.04 53q25.095 11.7 44.61 15.3 13.44 2.4 27.96 2.4c20.52 0 42.65-3.7 66.38-11l32.26-11 11.66 19c7.87 12.1 17.33 19.2 28.4 21.2 3.17.5 6.19.8 9.07.8" style="fill:#f4d8b9;fill-opacity:1;fill-rule:nonzero;stroke:none" transform="matrix(.01553 0 0 -.01553 28.027 460.682)"/><path d="M3497.64 23262.5c21.17-.9 44.16-2.1 68.92-3.6 24.77-1.6 44.24-2.7 58.47-3.5 14.2-.8 22.62-1.3 25.26-1.6l2.95-.3c9.21-.9 18.22-3.8 27.05-8.8 8.81-5 14.31-10 16.5-14.9 1.58-4.3 1.99-10.3 1.26-17.9-.97-10-3.66-17.1-8.07-21.5-6.59-6.4-15.45-10.3-26.53-11.6-11.09-1.3-29.82-.7-56.14 1.9-39.48 3.8-68.55 5.7-87.13 5.8l-33.83.6-14.38-169-5.49-56.6c-3.98-41.2-7.88-76.3-11.68-105.2s-9.3-68.5-16.49-118.7c-7.22-50.3-12.72-88.4-16.57-114.4-5.62-37.5-9.74-61-12.3-70.4-2.57-9.4-7.08-16.5-13.5-21.1-9.3-6.7-19.86-9.5-31.72-8.4-11.85 1.2-21.08 5.3-27.69 12.4-4.83 5.1-7.61 10.7-8.37 16.6s-.03 20.2 2.16 42.9c3.44 35.4 11.19 91.4 23.28 168.1 15.55 85.2 30.06 197.1 43.51 335.8 4.99 51.7 6.77 80.2 5.3 85.6l-3.76 12.7-41.81.5c-23.28-.1-46.1 1-68.46 3.1q-52.35 5.1-67.2 16.2c-9.24 7.5-13.31 17-12.16 28.8.85 8.8 4.82 15.5 11.92 20.2 6.37 4.1 25 6 55.87 5.7 30.86-.4 104.46-3.5 220.83-9.4m444.44-337c-16.28 10.4-36.86 17.3-61.74 20.9l-12.84 1.3c-18.44 1.8-33.64.9-45.61-2.6-11.97-3.6-26.17-11.3-42.59-23.1-26.45-19.1-45.16-44.3-56.15-75.4-4.55-12.5-6.95-20.1-7.22-23-.33-3.5.69-6.5 3.09-9.1 13.41-12.4 47.64-22.8 102.64-31.1 9.81-1.5 20.97-2.9 33.5-4.1 15.79-1.5 32.27.7 49.47 6.6 16.47 5.5 32.14 14.8 47.05 28 14.9 13.2 24.26 25.7 28.08 37.7.81 1.6 1.41 4.2 1.75 7.7 2.42 24.9-10.73 47-39.43 66.2m-125.01 98.2c13.55 2.8 32.51 3 56.87.7 34.22-3.4 63.79-10.3 88.67-20.9 19.77-8.4 38.76-21.7 56.93-39.8 18.17-18.2 30.99-36.7 38.46-55.6 7.35-20 10.2-38.8 8.51-56.2-3.33-34.2-23.38-66.2-60.16-96.1-47.55-38.1-103.26-54.1-167.1-47.9-1.97.2-5.42.7-10.32 1.5-4.91.7-8.69 1.3-11.32 1.5-31.42 4.8-58.09 10.9-79.94 18.3-9.6 3.9-19.33 6.3-29.2 7.2l-2.97.3c-1.49-1.6-.88-10.7 1.83-27.4 2.69-16.7 6.34-32.2 10.91-46.7 4.03-13.3 11.86-26.8 23.48-40.5 11.62-13.8 24.07-24.2 37.33-31.3 15.18-7.9 30.32-12.6 45.48-14.1q63.18-6.15 102.3 37.5c12.59 13.4 22.06 21.9 28.37 25.4 7.69 3.9 15.49 5.5 23.39 4.7 10.52-1 19.57-5.4 27.12-13.1 7.56-7.8 10.86-16.6 9.91-26.5-1.25-12.8-9.82-27.4-25.71-44.1-15.91-16.6-33.58-29.2-53.02-37.9-40.92-17.7-77.51-24.9-109.76-21.8-1.97.2-4.76.6-8.35 1.2-3.59.7-6.71 1.1-9.34 1.4-48.48 7-90.01 27.5-124.61 61.3-24.25 24-41.94 55.6-53.09 94.7-11.15 39.2-14.62 80.5-10.39 124 1.68 17.5 5.21 36.7 10.6 57.9 12.62 48 35.1 87.9 67.44 119.9 32.34 32.1 71.55 52.9 117.68 62.4m679.88-110.3c-12.5 8.3-22.23 13.3-29.16 15.1-6.94 1.8-18.67 3-35.19 3.7l-10.91.1c-31.74.2-63.89-9.5-96.41-29.1-40.51-24.2-66.89-63.4-79.15-117.5-4.08-16.9-6.16-33-6.27-48.1-.28-42.6 15.01-78.2 45.92-107 24.31-22.3 49.37-33.5 75.16-33.7 5.29-.1 9.27.2 11.91.8 17.2 1.6 39.73 8.6 67.6 21 27.86 12.3 51.41 25.4 70.69 39.3 19.94 15 31.23 22.5 33.88 22.5 4.62 0 9.83 39 15.65 117.1l5.43 69.9-15.78 15c-10.52 9.3-17.44 14.1-20.74 14.1-3.32 0-14.18 5.6-32.63 16.8m106.96 107.7c7.94 2.9 16.19 2.9 24.75-.1 9.22-3 15.28-7.4 18.22-13.3 2.94-5.8 4.34-17.8 4.22-35.8-.09-15.8-1.24-37.9-3.41-66.5-10.22-142.8-16.02-272.4-17.46-389-2.11-121.3-4.15-183.9-6.13-188-2.65-5.2-6.13-9.9-10.41-13.9-4.27-4.1-13.76-5.7-28.47-5.1-14.71.7-24.01 2.8-27.91 6.3q-5.865 5.4-9.72 13.2-4.815 10.5-3.87 155.7c.41 61.2-.72 91.8-3.36 91.9-2.65 0-15.58-5.8-38.8-17.3-51.76-25.9-99.46-38.7-143.11-38.4-23.14.2-44.61 4.4-64.39 12.7-17.16 7.1-35.75 18.6-55.82 34.5-20.07 15.8-35.34 31.1-45.82 45.7-24.91 34.6-37.2 75.8-36.88 123.6.76 116.6 52.79 197.6 156.04 242.9 39.71 16.7 76.4 24.9 110.07 24.7 31.68-.3 63.96-7.8 96.86-22.5 28.96-12.5 44.77-18.7 47.4-18.7 3.28 0 6.31 6.6 9.05 20 3.41 20.4 13.08 32.9 28.95 37.4m544.7-7.6c7.73 6.1 15.55 9.3 23.48 9.6 7.93.2 16.31-2.7 25.13-8.8 7.5-6.1 11.42-13.9 11.75-23.2.38-10.5-2.78-33.6-9.43-69.4-18.39-96.9-26.35-179.8-23.91-248.5 1.83-51.3 9.41-96.8 22.74-136.6 3.05-11.5 4.67-19.4 4.81-23.4.91-25.7-11.87-39-38.28-39.9-29.75-1.1-49.9 25.3-60.4 79.2-3.17 14.5-5.74 21.7-7.72 21.6-1.98 0-9.33-7.6-22.03-22.6-38.65-48.1-87.39-73.2-146.2-75.3-25.13-.8-45.4 1.5-60.81 7.1-15.43 5.5-33.36 17-53.83 34.4-32.07 26.8-55.54 63.3-70.4 109.5-7.38 21.3-12.07 60.2-14.1 116.7-1.73 49-.95 96.4 2.38 142.3 3.32 45.9 8.77 74.2 16.32 85 6.92 10.2 17.96 15.5 33.18 16.1 15.19.5 25.27-3.8 30.23-13 2.81-4.5 4.37-10.9 4.67-19 .24-7-.83-23.7-3.19-50-3.33-36.9-4.11-79.5-2.39-127.9 2.1-58.8 6.85-99.5 14.27-122 11.87-36.3 26.72-62.9 44.54-79.8 18.49-17.4 37.65-25.7 57.46-25 45.61 1.6 83.65 29.6 114.13 84.1s47.73 99.8 51.73 136.2c2.39 25.7 8.62 64.9 18.65 117.4 10.03 52.6 17.41 86.5 22.17 101.9 3.59 10.6 8.61 18.4 15.05 23.3m147.73-116.8c5.63 5.6 15.04 8.7 28.25 9.5 12.53.7 22.39-3.4 29.53-12.3 6.48-9 11.65-26.8 15.53-53.4 3.87-26.6 9.41-85 16.63-175.1l11.29-143-12.22-12.1c-7.51-7.4-16.89-11.5-28.1-12.1q-14.865-.9-27.78 7.5c-8.62 5.7-14.2 13.7-16.79 24-2.52 9.2-7.15 71.7-13.87 187.6l-4.51 77.7c-3.62 62.2-2.96 96.1 2.04 101.7m-10.16 72.1c-2.29 5.1-3.56 10-3.84 14.7-.5 8.7 2.22 15.9 8.19 21.5s14.89 8.7 26.78 9.4c11.22.6 20.29-1.5 27.2-6.3q10.35-7.35 11.07-19.5c.33-5.8-.69-11.1-3.06-16-5.19-13.1-16.05-20.2-32.54-21.1-15.85-.9-27.12 4.8-33.8 17.3m165.45 216.2c.8 7.6 4.98 14.5 12.59 20.6 7.62 6.1 16.07 9.5 25.4 10.1 5.33.4 11.42-.6 18.31-3.1q19.695-8.25 22.5-47.4c.59-8.2.68-14.3.33-18.4-.74-17.6 5.45-127.1 18.51-328.3 8.92-143.2 14.06-229.2 15.46-258 1.38-28.8-.1-45.5-4.49-49.9-5.6-6.2-14.05-9.7-25.4-10.5-13.34-1-24.28 2-32.84 9-5.72 4.9-9.86 11.1-12.42 18.8-2.57 7.7-5.79 24.6-9.65 50.6-3.72 24.3-7.62 64.7-11.65 121.1-6.44 90.1-11.68 188.9-15.71 296.5-4.01 107.5-4.31 170.5-.94 188.9m492.71-164.4c-39.69-7.2-84.44-42-134.22-104.4-23.58-29.2-40.07-54-49.46-74.4s-15.1-43.5-17.1-69.3c-1.53-17.5-.56-35.7 2.89-54.6 5.12-28.1 15.07-52.2 29.82-72.4 14.77-20.1 32.04-32.8 51.82-38.1 12.01-3.1 24.5-3.5 37.52-1.1 25.38 4.6 51.02 17.9 76.94 39.8s47.69 49 65.35 81.2q17.415 31.65 20.43 42.9c1.98 7.4 2.46 21.4 1.41 42-.28 42 .95 79.6 3.66 112.7l5.48 69.4-20.07 10.6c-14.15 7.5-27.49 12.4-40.03 14.9-12.54 2.4-24.03 2.7-34.44.8m-63.49 55.1q25.095 11.7 44.61 15.3c27.98 5.1 59.43 2.2 94.34-8.6l32.26-11 11.66 19c7.87 12.1 17.33 19.2 28.4 21.2 10.39 1.9 19.19.6 26.38-3.7 7.16-4.3 11.6-11.1 13.27-20.2 1.25-6.9 1.15-13.7-.3-20.5-7.27-33.9-12.65-80-16.17-138.1-4.28-76-1.25-142.4 9.1-199.2 3.45-18.9 7.99-38.3 13.59-58 5.93-21.4 9.93-37.9 12.03-49.3 3.87-21.3.74-35.5-9.38-42.6-7.18-4.9-14.36-8-21.49-9.3-11.72-2.1-22.5.8-32.37 8.8-9.86 8-17.61 20-23.23 36.2-5.2 17.4-10.72 25.6-16.58 24.5-3.9-.7-8.43-5.4-13.57-14-5.7-9.3-21.24-23.7-46.58-43.2-25.37-19.4-45.27-31.9-59.71-37.5-12.5-5.3-25.9-9.2-40.21-11.8-29.92-5.4-56.07-5.8-78.46-1-27.36 6.3-54.11 21.1-80.21 44.5-26.12 23.4-44.44 49.3-54.97 77.6-3.84 9.9-7.06 22.1-9.67 36.4-6.17 33.8-7.7 64.4-4.61 91.6 7.18 71.2 41.23 137 102.17 197.3 27.89 27.6 42.45 41.8 43.66 42.6 19.83 20.2 45.18 37.9 76.04 53" style="fill:#100f0d;fill-opacity:1;fill-rule:nonzero;stroke:none" transform="matrix(.01553 0 0 -.01553 28.027 460.682)"/><path d="M3156.93 23770.3c-127.37 0-250.01-46.5-347.58-134.1-124.76-112-187.24-272-171.42-438.9l248.41-2621.4c18.83-198.7 151.89-371.9 338.97-441.4l1297.79-481.6c113.92-42.3 239.82-43.6 354.52-3.5l1094.46 381.8c188.36 65.7 321.21 229.4 346.72 427.2l344.79 2673.8c21.84 169.4-37.28 333.3-162.2 449.7-125.02 116.5-292.81 164-460.38 130.3-852.1-171.6-1786.49-155.7-2777.23 47.2-35.68 7.3-71.46 10.9-106.85 10.9m1548.32-4199.9c-67.68 0-135.32 11.9-199.5 35.7l-1297.79 481.7c-204.91 76-350.64 265.8-371.27 483.4l-248.41 2621.4c-17.32 182.8 51.11 358 187.75 480.7 136.57 122.6 318 171.8 497.75 135 984.17-201.6 1911.87-217.5 2757.38-47.3 183.51 37 367.31-15 504.23-142.6 136.83-127.5 201.58-307 177.66-492.6l-344.79-2673.7c-27.94-216.7-173.46-396-379.75-468l-1094.47-381.8c-61-21.3-124.91-31.9-188.79-31.9" style="fill:#231f20;fill-opacity:1;fill-rule:nonzero;stroke:none" transform="matrix(.01553 0 0 -.01553 28.027 460.682)"/><path d="M5161.92 28134.7h-.33l-981.59-8.4c-16.98-.2-31.78-11.8-36-28.2L3742.17 26564c-55.16-210.6-62.95-435-22.52-648.9l45.76-242.1c54.68-296.9-122.59-584.5-412.33-669.1l-745.3-217.4c-323.61-94.4-539.35-406.9-512.99-743l357.29-4555.4c5.16-65.8-29.14-128.8-85.35-156.7-22.96-11.4-37.23-34.4-37.23-60l27.97-1179.2c2.4-101.3 52.48-196.5 133.95-254.7 353.29-252.4 1189.86-415.5 2131.27-415.5 989.96 0 1864.71 183.1 2176.7 455.6 51.38 44.9 81.88 111.1 83.68 181.9 8.17 320.8 21.91 1187.2 22.04 1195.9 0 25.8-15.42 49.8-39.27 60.7-80.91 37-129.63 121.4-121.24 210l427.18 4510.4 24.82-2.3-24.82 2.3c32.22 340.2-182.3 657.3-510.08 753.9l-740.17 218.3c-288.61 85.1-465.21 372.4-410.78 668.3l63.3 353.9c30.61 171.2 26.2 343.8-13.11 513.2l-362.53 1561.7c-3.98 17.1-18.96 28.9-36.49 28.9m-539.23-10762.6c-951.12 0-1799.06 166.7-2160.26 424.8-94.16 67.3-152.04 177.2-154.81 294.1l-27.98 1179.8c-.01 45.3 24.87 85.4 64.91 105.3 38.16 19 61.4 62.4 57.81 108.1l-357.29 4555.4c-28.19 359.5 202.59 693.7 548.75 794.7l745.3 217.5c265.08 77.4 427.27 340.5 377.26 612.1l-45.73 241.9c-41.8 221.2-33.74 453.1 23.29 670.8l401.79 1534c9.78 38.2 44.27 65.2 83.84 65.5l981.59 8.5h.78c40.83 0 75.73-27.6 85.04-67.5l362.54-1561.8c40.85-175.9 45.43-355.3 13.62-533.2l-63.32-354c-49.82-270.9 111.75-533.7 375.81-611.6l740.18-218.2c350.61-103.4 580.08-442.5 545.62-806.5l-427.18-4510.4c-6.39-67.5 30.71-131.7 92.33-159.9 41.55-19 68.4-60.8 68.4-106.5-.15-9.1-13.88-875.7-22.06-1196.8-2.15-84.6-38.87-164.2-100.72-218.2-320.43-279.9-1208.36-467.9-2209.51-467.9" style="fill:#231f20;fill-opacity:1;fill-rule:nonzero;stroke:none" transform="matrix(.01553 0 0 -.01553 28.027 460.682)"/><path d="m3435.06 28349.8 335.02-656s83.76-195.5 865.47-223.4c781.72-27.9 988.37 236.8 988.37 236.8l305.59 669.9c7.98 17.5-4.78 37.4-24.02 37.5l-2480.6 5c-13.94 0-22.57-15.2-15.39-27.2z" style="fill:#e0c13b;fill-opacity:1;fill-rule:nonzero;stroke:none" transform="matrix(.01553 0 0 -.01553 28.027 460.682)"/><path d="m3686.68 28253.5 305.5-691.8s359.41-45 381.87-45c22.47 0-44.92 629-44.92 629s-530.14 58.4-642.45 107.8m2071.11 36-301.01-687.4s-130.29-58.4-188.69-67.4l139.27 651.4s157.24-8.9 350.43 103.4" style="fill:#fff;fill-opacity:1;fill-rule:nonzero;stroke:none" transform="matrix(.01553 0 0 -.01553 28.027 460.682)"/><path d="m3437.28 28394.6 19.99-33.4 335.73-657.6c.62-1.2 98.55-181.7 843.44-208.3 720.71-25.6 945.2 202 966.25 225.4l304.14 666.8-.11 1.4-1.28.7zm1312.13-951.2c-36.82 0-75.05.7-114.74 2.1-765.02 27.3-875.49 212-887.09 237.5l-334.34 654.7-25.12 41.9c-7.94 13.2-8.14 29.8-.53 43.2s21.87 21.7 37.26 21.7h.09l2480.61-5c17.54 0 33.67-8.9 43.14-23.6 9.48-14.8 10.79-33.2 3.5-49.1l-306.8-672.6-1.82-2.4c-8.31-10.6-202.32-248.4-894.16-248.4" style="fill:#231f20;fill-opacity:1;fill-rule:nonzero;stroke:none" transform="matrix(.01553 0 0 -.01553 28.027 460.682)"/><path d="M5933.56 28432c11.52-8.3 14-24.4 5.86-36.1-62.75-89.8-268.58-161.9-568.86-204.7-195.44-27.9-430.89-43.5-692.78-43.5-246.25 0-469.7 16.1-658.91 43.2-314.91 45.2-535.37 120.9-609.18 204.3-11.71 13.3-11.71 33.4.85 45.9 110.71 109.7 355.39 179.7 718.06 212.3 160.44 14.5 343.88 21.6 549.18 21.6 216.47 0 400.18-8.5 557.28-25.4 334.97-36 548.56-109.6 698.5-217.6" style="fill:#c89519;fill-opacity:1;fill-rule:nonzero;stroke:none" transform="matrix(.01553 0 0 -.01553 28.027 460.682)"/><path d="M4677.78 28650.1c-204.32 0-388.34-7.2-546.95-21.5-361.7-32.5-598.14-101.6-702.74-205.2-2.99-3-2.87-8.1.27-11.6 70.4-79.7 292.47-153 594.05-196.2 196.18-28.1 422.81-42.9 655.37-42.9 253.01 0 491.36 14.9 689.26 43.2 293.76 41.9 494.93 112.7 551.94 194.3v1.6c-154.99 111.7-373.15 179.4-686.59 213-158.53 17-339.94 25.3-554.61 25.3m0-527.3c-234.88 0-463.96 15-662.44 43.4-317.62 45.6-545.17 123-624.33 212.5-20.64 23.4-19.77 58.5 1.97 80.1 113.07 112 359.81 185.9 733.38 219.5 160.1 14.4 345.62 21.7 551.42 21.7 216.45 0 399.62-8.4 559.94-25.6 322.38-34.6 548.12-105.2 710.41-222.1 22.4-16.2 27.66-47.9 11.74-70.7-84.4-120.7-365.14-183.6-585.79-215.1-200.18-28.6-440.96-43.7-696.3-43.7" style="fill:#231f20;fill-opacity:1;fill-rule:nonzero;stroke:none" transform="matrix(.01553 0 0 -.01553 28.027 460.682)"/><path d="M5370.56 28191.2c-195.44-27.9-430.89-43.5-692.78-43.5-246.25 0-469.7 16.1-658.91 43.2 21.78 163.2 58.91 321.2 109.73 462.5 113.45 316 294.83 548.5 524.33 567.7 158.12 13.2 420.94-241 582.13-571.5 69.98-143.7 120.89-301.7 135.5-458.4" style="fill:#e5ca50;fill-opacity:1;fill-rule:nonzero;stroke:none" transform="matrix(.01553 0 0 -.01553 28.027 460.682)"/><path d="M4046.99 28212.2c190.43-25.9 407.87-39.5 630.79-39.5 242.96 0 472.38 13.7 665.47 39.9-15.98 136.2-60.91 283-130.6 426.1-169.35 347.2-425.08 568.5-557.64 557.5-199.84-16.7-383.16-217.6-502.94-551.2-46.86-130.3-83.04-279.5-105.08-432.8m630.79-89.4c-234.88 0-463.96 15-662.44 43.4l-24.45 3.5 3.27 24.5c22.39 167.8 59.72 325.1 110.98 467.7 128.52 357.9 322.34 565.3 545.72 584 170.39 14.3 442.26-248.4 606.61-585.3 76.36-156.8 124.05-318.3 137.92-467.1l2.2-23.6-23.5-3.4c-200.19-28.6-440.97-43.7-696.31-43.7" style="fill:#231f20;fill-opacity:1;fill-rule:nonzero;stroke:none" transform="matrix(.01553 0 0 -.01553 28.027 460.682)"/><path d="M3646.41 28144.9c-2.52 0-5.09.3-7.62 1.1-25.62 8.2-39.22 13-39.22 13-13.11 4.7-19.93 19.1-15.24 32.3 4.69 13.1 19.12 19.9 32.22 15.2.26-.1 13.24-4.7 37.46-12.4 13.27-4.2 20.63-18.3 16.42-31.6-3.39-10.8-13.33-17.6-24.02-17.6m159.91-45c-2.04 0-4.11.2-6.17.8-27.48 6.9-54.72 14.1-80.97 21.5-13.4 3.7-21.23 17.6-17.47 31.1 3.76 13.4 17.67 21.2 31.08 17.4 25.82-7.2 52.62-14.3 79.66-21.1 13.51-3.4 21.7-17.1 18.3-30.6-2.88-11.5-13.15-19.1-24.43-19.1m1728.96-21.3c-11.49 0-21.88 7.9-24.55 19.6-3.12 13.6 5.36 27.1 18.94 30.2 27.44 6.3 54.31 12.9 79.87 19.6 13.44 3.6 27.26-4.5 30.81-17.9 3.55-13.5-4.49-27.3-17.95-30.8-26.08-6.9-53.49-13.6-81.47-20.1-1.89-.4-3.79-.6-5.65-.6m-1566.91-15.5c-1.67 0-3.35.2-5.05.5-27.35 5.6-54.87 11.5-81.79 17.6-13.58 3.1-22.08 16.6-19 30.1 3.08 13.6 16.52 22.2 30.17 19.1 26.53-6.1 53.68-11.9 80.66-17.4 13.65-2.8 22.46-16.1 19.69-29.7-2.43-12-12.94-20.2-24.68-20.2m1404.01-17.2c-12.03 0-22.68 8.7-24.81 20.9-2.39 13.8 6.8 26.8 20.52 29.2 27.16 4.7 54.42 9.8 81.04 15.1 13.67 2.8 26.93-6.1 29.66-19.8 2.73-13.6-6.13-26.9-19.78-29.6a3381 3381 0 0 0-82.29-15.4c-1.46-.2-2.91-.4-4.34-.4m-1240.47-12.3c-1.31 0-2.63.1-3.97.3-27.55 4.4-55.3 9.1-82.47 14-13.7 2.4-22.8 15.5-20.33 29.2s15.54 22.8 29.28 20.4c26.81-4.8 54.18-9.5 81.39-13.8 13.75-2.1 23.14-15 20.97-28.8-1.97-12.4-12.68-21.3-24.87-21.3m1076.17-12.3c-12.51 0-23.36 9.3-24.98 22-1.76 13.9 8.02 26.5 21.83 28.2 27.38 3.5 54.87 7.3 81.73 11.3 13.74 2 26.6-7.4 28.67-21.2 2.06-13.7-7.44-26.6-21.2-28.6-27.23-4.1-55.1-8-82.84-11.5-1.08-.1-2.15-.2-3.21-.2m-911.52-9.9c-.94 0-1.9 0-2.86.1-27.61 3.1-55.53 6.6-83 10.3-13.8 1.9-23.47 14.6-21.6 28.4 1.86 13.8 14.5 23.5 28.36 21.6 27.1-3.7 54.65-7.1 81.89-10.2 13.83-1.5 23.79-14 22.23-27.9-1.45-12.8-12.37-22.3-25.02-22.3m746.31-7.5c-12.96 0-23.98 9.9-25.1 23-1.17 13.9 9.12 26.1 22.99 27.3 28.18 2.4 55.58 5 82.19 7.8 13.77 1.4 26.26-8.6 27.72-22.4 1.46-13.9-8.58-26.3-22.43-27.7-26.94-2.9-54.68-5.5-83.22-7.9zm-580.84-7.4h-1.72c-27.7 1.9-55.75 4.1-83.39 6.6-13.87 1.2-24.1 13.5-22.85 27.3 1.24 13.9 13.58 24.2 27.37 22.9 27.25-2.5 54.93-4.6 82.25-6.5 13.89-.9 24.4-12.9 23.46-26.8-.89-13.3-11.97-23.5-25.12-23.5m415.07-3.4c-13.39 0-24.54 10.5-25.16 24-.63 14 10.13 25.7 24.03 26.4 28.11 1.3 55.61 2.8 82.46 4.5 13.93.8 25.89-9.6 26.79-23.5s-9.62-25.9-23.52-26.8c-27.17-1.7-54.99-3.3-83.42-4.6zm-249.11-3.8h-.5c-27.65.5-55.79 1.4-83.64 2.6-13.91.6-24.69 12.4-24.09 26.3s12.15 24.9 26.28 24.1c27.45-1.2 55.18-2.1 82.43-2.6 13.92-.3 24.98-11.8 24.71-25.7-.26-13.8-11.5-24.7-25.19-24.7m83.06-.6c-13.86 0-25.13 11.2-25.21 25.1-.07 13.9 11.15 25.2 25.07 25.3 11.83.1 23.7.2 35.63.4 15.79.3 31.42.6 46.88 1 13.94.7 25.51-10.6 25.88-24.5.38-13.9-10.59-25.5-24.51-25.9-15.64-.4-31.46-.8-47.44-1-12.11-.2-24.16-.3-36.16-.4zm984.82 132.6c-10.74 0-20.69 6.9-24.05 17.7-4.15 13.3 3.27 27.4 16.57 31.5 24.21 7.6 36.94 12.3 37.07 12.3 13.08 4.9 27.55-1.8 32.38-14.9 4.84-13-1.82-27.5-14.88-32.4-.56-.2-13.93-5.1-39.58-13.1-2.5-.8-5.02-1.1-7.51-1.1" style="fill:#c03222;fill-opacity:1;fill-rule:nonzero;stroke:none" transform="matrix(.01553 0 0 -.01553 28.027 460.682)"/><path d="M4643.61 29145.3c-265.63-27.5-437.37-605.4-534.42-889.9 99.75-28.6 203.96-27.5 300.87 3.4-22.37 371.3 233.55 886.5 233.55 886.5m323.47-294.3s269.56-408.8 274.05-593c0 0-184.19-35.9-265.06-22.4 0 0 134.78 179.7-8.99 615.4" style="fill:#fff;fill-opacity:1;fill-rule:nonzero;stroke:none" transform="matrix(.01553 0 0 -.01553 28.027 460.682)"/><path d="M4073.05 26640.7c-208.09 32-247.1-328-202.17-534.7 44.93-206.6 287.53-570.5 287.53-570.5s0 552.6-89.86 705.3c-70.72 120.2 121.3 381.9 4.5 399.9" style="fill:#e0c13b;fill-opacity:1;fill-rule:nonzero;stroke:none" transform="matrix(.01553 0 0 -.01553 28.027 460.682)"/></svg>