<svg xmlns="http://www.w3.org/2000/svg" xml:space="preserve" width="200mm" height="200mm" viewBox="0 0 200 200"><defs><clipPath id="a" clipPathUnits="userSpaceOnUse"><path d="M29253.3 11104.1c-8 0-16.1 1.1-24.1 3.5-45.7 13.3-71.9 61.1-58.6 106.8 57.3 196.5 95.5 373.7 116.8 541.6 85.6 674.8 85.5 1672.7 85.5 1682.7-.1 47.6 38.4 86.2 86 86.2h.1c47.5 0 86.1-38.5 86.1-86 0-10.1.1-1019-86.8-1704.5-22.4-177.1-62.5-362.9-122.4-568.3-10.9-37.6-45.3-62-82.6-62"/></clipPath></defs><path d="M27976.9 3160.1h.1c.9-310.6 829.4-566.6 1853.2-572.2 1023.5-5.3 1855.1 241.7 1859.2 552.1l4.2 786.8 19.9 3716.1 3.5 630.8c1.3 263.9-32.5 526.7-100.6 783.8-35 132.3-79 262.7-132.1 391.3l-335.2 811.8-2568.4-16.6-331-777.8c-57-134-104.2-270.7-141.5-408.9-67.3-250.3-102.4-506.4-103.8-763.8l-3.3-626.8-19.9-3716.2z" style="fill:#418533;fill-opacity:1;fill-rule:nonzero;stroke:none" transform="matrix(.01436 0 0 -.01436 -328.75 229.286)"/><path d="M27984.1 3167.3h.1v-7.2c.8-306 829-559.5 1846-565 1017.2-4.7 1848 239.2 1852.1 545l4.1 786.8 20 3716 3.4 630.8c1.3 262.8-32.5 525.9-100.4 781.9-34.9 132-79.2 263.4-131.7 390.5l-333.4 807.3-2558.9-16.6-329.1-773.4c-56.4-132.7-103.9-270-141.2-408-67.3-250.1-102.1-506.5-103.5-762l-3.3-626.7-20-3716.2zm1878.7-586.7c-10.9 0-21.8.1-32.6.1-495.8 2.7-961.8 63.8-1312.3 172.1-347.5 107.3-541.6 249.2-547.9 400.1h-.2l-.1 7.3 4.3 790.4 19.9 3716.1 3.3 626.8c1.5 256.7 36.4 514.3 104 765.7 37.5 138.6 85.2 276.5 141.9 409.8l332.8 782.1 4.7.1 2573.3 16.6 1.8-4.4 335.3-811.8c52.7-127.7 97.2-259.7 132.3-392.3 68.2-257.2 102.2-521.5 100.9-785.7l-3.5-630.8-19.9-3716-4.2-786.8c-2.1-153.6-198.3-296.1-552.5-401.3-343.9-102.2-797.8-158.1-1281.3-158.1" style="fill:#231f20;fill-opacity:1;fill-rule:nonzero;stroke:none" transform="matrix(.01436 0 0 -.01436 -328.75 229.286)"/><path d="m31406.2 3253.3.2.2c15.3 11 24.4 28.7 25.8 47.5 9.7 129.2 21.6 594.4 18.8 2433.6-1.8 1179.5-8.9 2358.5-9 2370.2-.2 35.6-29.1 64.2-64.5 64.2-35.9 0-64.9-29.1-64.6-64.9 10.6-1745.2 16.7-4334.5-7-4763.6-1.5-28.1 6.5-56.4 24.9-77.7 22.3-25.8 48.8-36.1 75.4-9.5m-3119.3 5114.3c-28.7-1291.8-114.9-4573.7-71.8-5066.5 26.5-303 315.7-387.5 344.5-229.6 28.7 157.9 114.8 4994.7 71.7 5166.9-43 172.2-336.4 491.3-344.4 129.2" style="fill:#84c645;fill-opacity:1;fill-rule:nonzero;stroke:none" transform="matrix(.01436 0 0 -.01436 -328.75 229.286)"/><path d="m31713.6 7642.9-20-3716.1c-48.9-50.3-131.3-120.2-249.1-194.3-39.4-24.7-82.7-49.8-130.1-74.8-312.7-165.5-801.3-325.5-1487-313.6-536.8 9.5-949.2 116.4-1247.1 238.8-156.8 64.3-281.9 133-376.8 194-126.9 81.2-199.8 148.6-222.3 173.6l19.9 3716.2c45-50 136.8-109.4 265.6-169.5 103.2-48.2 230-96.8 375.4-141.2 334.2-101.9 766-182 1233.1-184.5 584-3.1 1099.2 116.6 1441.4 249.9 46.1 17.9 89.1 36.2 128.6 54.4 127.9 58.8 220.3 117.5 268.4 167.1" style="fill:#f8f1cd;fill-opacity:1;fill-rule:nonzero;stroke:none" transform="matrix(.01436 0 0 -.01436 -328.75 229.286)"/><path d="M28642.1 7356c-5.8-1087-37.4-2892.1-61.8-3773.1-156.8 64.3-281.9 133-376.8 194-2.9 847.2 35.2 2519.1 63.2 3720.3 103.2-48.2 230-96.8 375.4-141.2m2808.8-1621.5c-1 643.9-3.4 1287.5-5.7 1741.3-39.5-18.2-82.5-36.5-128.6-54.4 6.6-1392.6 9.2-3036.4-2.2-3763.7 47.4 25 90.7 50.1 130.1 74.8 4.8 347.1 8 949.6 6.4 2002" style="fill:#fff;fill-opacity:1;fill-rule:nonzero;stroke:none" transform="matrix(.01436 0 0 -.01436 -328.75 229.286)"/><path d="M28002.7 3959.3c60.9-59.9 618.5-572.6 1825-593.6 1199.4-21.1 1759.8 485.8 1844.4 570l19.6 3658.5c-239.1-193.5-963-444.3-1794.6-444.3-7.4 0-14.7.1-22 .1-901.3 4.7-1632.7 285.8-1852.7 467.2zM29900 3322c-24.2 0-48.5.2-73 .6-507.9 8.9-963.3 104.2-1353.6 283.3-283.9 130.3-456.6 273-508.2 330.2l-5.6 6.2v8.3l20.3 3771.8 37.2-41.3c151-167.7 922.4-483.1 1858.2-488 951.6-5 1667.8 305.3 1822.8 464.8l37.3 38.3-20.3-3778.2-6.1-6.2c-48.3-49.7-234-223.5-592.7-370.3-356.2-145.7-765.1-219.5-1216.3-219.5" style="fill:#231f20;fill-opacity:1;fill-rule:nonzero;stroke:none" transform="matrix(.01436 0 0 -.01436 -328.75 229.286)"/><path d="M28003.8 3177.2v-17c.8-290.3 837.3-540 1826.5-545.5h31.1c975.8 0 1797.3 238.6 1801.2 525.7l4.2 786.6 19.9 3716 3.5 630.8c1.2 261.1-32.3 522.5-99.8 776.8-34.7 131.1-78.7 261.7-130.9 388l-328.4 795-2532.6-16.3-324.1-761.6c-56.1-131.9-103.3-268.3-140.3-405.4-66.8-248.5-101.4-503.2-102.8-757l-3.3-626.7zm1859.6-616.2h-33.3c-1024.7 5.6-1834 254.8-1878.1 572.3h-2v27l4.3 790.4 20 3716.1 3.3 626.8c1.4 258.4 36.6 517.7 104.7 770.7 37.6 139.5 85.7 278.2 142.7 412.4l337.9 794 2604.1 16.9 342.2-828.5c53-128.5 97.8-261.4 133.1-394.8 68.7-258.9 102.8-524.9 101.5-790.8l-3.4-630.8-20-3716-4.1-786.8c-4.4-326.7-815.6-578.9-1852.9-578.9" style="fill:#231f20;fill-opacity:1;fill-rule:nonzero;stroke:none" transform="matrix(.01436 0 0 -.01436 -328.75 229.286)"/><path d="M28850.8 10879c195.7 460 316.7 947.6 359.6 1444.5 7 81.4 12.1 163 14.9 244.8l68.4 2005.7 1267.8-6.8-14.6-1991.8c1.5-90.3 6-180.3 12.8-270.1 37.3-498 153-987.6 344.1-1450.3l354.4-858.6c-426.3-108.7-922.5-170.6-1452.1-169.6-484.1.9-940 54.2-1340.2 147.6z" style="fill:#e0c13b;fill-opacity:1;fill-rule:nonzero;stroke:none" transform="matrix(.01436 0 0 -.01436 -328.75 229.286)"/><path d="M28495.7 9989.6c402.5-91.7 854.9-140.5 1310.4-141.4h12.3c495.7 0 982.5 56.3 1410.5 162.9l-345 835.8c-191.7 464.3-308 954.5-345.7 1456.8-7 93.8-11.3 185-12.8 271.3l14.5 1970.9-1225.5 6.6-67.6-1984.9c-2.7-78.7-7.8-161.4-15-245.9-43.2-501-164.8-989.3-361.2-1451.1l-19.8 8.4 19.8-8.4zm1322.7-184.3h-12.4c-468.1.9-933.2 52.1-1344.9 148.2l-24.9 5.8 394.8 928.1c194.7 457.7 315.2 941.5 358 1438 7.2 83.7 12.2 165.7 14.8 243.6l69.1 2026.6 1310.2-7-14.8-2013.4c1.5-84.9 5.8-175.3 12.8-268.3 37.3-497.8 152.5-983.5 342.5-1443.6l363.9-881.6-23.9-6.2c-437.2-111.4-936.7-170.2-1445.2-170.2" style="fill:#231f20;fill-opacity:1;fill-rule:nonzero;stroke:none" transform="matrix(.01436 0 0 -.01436 -328.75 229.286)"/><path d="M28574.1 8957.8c-15 0-29.9 2.3-44.5 7.1-102.8 33.4-145.6 175.6-92.4 307 60.3 186 143.2 401.6 240.7 636.1 87.6-16.5 177-31 267.9-43.6-69.4-262.8-125.7-502.8-160.7-705.9-29.5-117.9-120.8-200.7-211-200.7" style="fill:#b9d6ac;fill-opacity:1;fill-rule:nonzero;stroke:none" transform="matrix(.01436 0 0 -.01436 -328.75 229.286)"/><path d="M28956.9 9906.2c-88.9 12.2-176.4 26.3-262.1 42.3 71.3 170.4 149.9 350.3 232.7 535.7 19.8 48.8 60.2 80 99.6 80 7.5 0 15-1.1 22.3-3.5 45.5-14.8 68.6-72.7 53.4-133.6-52.2-179.9-101.5-354.7-145.9-520.9" style="fill:#f4ebb4;fill-opacity:1;fill-rule:nonzero;stroke:none" transform="matrix(.01436 0 0 -.01436 -328.75 229.286)"/><path d="M28945.8 9864.4c-90.9 12.6-180.3 27.1-267.9 43.6 5.5 13.4 11.2 26.9 16.9 40.5 85.7-16 173.2-30.1 262.1-42.3-3.7-14-7.4-27.9-11.1-41.8" style="fill:#9d9d9c;fill-opacity:1;fill-rule:nonzero;stroke:none" transform="matrix(.01436 0 0 -.01436 -328.75 229.286)"/><path d="M31616.4 9057.6c-79.5-23.1-161.2-47.2-244-71.8-120.7-35.7-243.5-72.3-364.8-108.8-411.4-123.4-803.3-243.1-1022.8-310.4-117.8-36.5-244-35-361 3.7-307.4 101.4-955.3 313.8-1515.7 487 37.3 138.2 84.7 274.9 141.6 408.9l330.4 777.8c33.2-9.6 66.2-18.8 99.3-27.7 74.1-19.8 148.3-37.6 222.7-53.4 605.3-129 1222.4-129.2 1849.9-.4 56.4 11.4 112.9 23.9 169.6 37.7 75.9 18.4 152.1 38.5 228.4 60.4l334.2-811.8c53.3-128.6 97.2-259.2 132.2-391.2" style="fill:#211d1d;fill-opacity:1;fill-rule:nonzero;stroke:none" transform="matrix(.01436 0 0 -.01436 -328.75 229.286)"/><path d="M28134.3 9071.7c399.1-123.5 915.8-289.6 1496.3-480.9 113.6-37.7 233.9-38.9 347.9-3.6 199.2 61.1 596.9 182.6 1022.9 310.5 121.3 36.4 244.2 73 364.9 108.8 75.8 22.4 150.7 44.6 223.8 65.9-34.1 125.1-76.3 248.9-125.8 368.2l-326.9 794c-68.9-19.5-139.7-38.1-210.7-55.3-54.4-13.2-111.7-26-170.5-37.9-627.6-128.8-1252.9-128.7-1858.6.4-74.3 15.8-149.6 33.8-223.7 53.7-28.3 7.6-55.1 15-81.4 22.5l-323-760.2c-53.7-126.4-99.1-256.1-135.2-386.1m1675.9-553.2c-65 0-130 10.5-193.1 31.4-589.9 194.4-1113.9 362.7-1515.4 486.8l-19.8 6.2 5.4 20c37.4 138.6 85.4 277.1 142.6 411.7l337.9 795.4 18.3-5.3c32-9.3 64.3-18.3 98.9-27.6 73.4-19.7 148-37.5 221.5-53.1 599.9-127.9 1219.3-128 1841.1-.5 58.2 11.9 115.1 24.5 168.9 37.6 76.9 18.6 153.4 38.9 227.5 60.2l18.5 5.4 341.6-829.6c52.8-127.5 97.6-260.1 133.1-394l5.4-20.3-20.2-5.9c-79.5-23.1-161.1-47.2-243.9-71.7-120.6-35.7-243.5-72.3-364.7-108.8-425.9-127.8-823.5-249.3-1022.7-310.4-59.2-18.3-120.1-27.5-180.9-27.5" style="fill:#231f20;fill-opacity:1;fill-rule:nonzero;stroke:none" transform="matrix(.01436 0 0 -.01436 -328.75 229.286)"/><path d="M29019.3 10134.2c-102.9-368.4-187.5-705-234.1-975.7-34.5-137.4-152.9-227.1-255.6-193.6-102.8 33.4-145.6 175.7-92.5 307 83.7 257.9 210.9 572.5 359.6 915.7q111-29.7 222.6-53.4" style="fill:#333f48;fill-opacity:1;fill-rule:nonzero;stroke:none" transform="matrix(.01436 0 0 -.01436 -328.75 229.286)"/><path d="M29250.4 9305.1c-.6-312.7 252.4-566.7 565.2-567.3 312.7-.6 566.7 252.4 567.3 565.1.6 312.8-252.5 566.8-565.2 567.3-312.7.6-566.7-252.4-567.3-565.1" style="fill:#d01e27;fill-opacity:1;fill-rule:nonzero;stroke:none" transform="matrix(.01436 0 0 -.01436 -328.75 229.286)"/><path d="M29250.4 9305.1h7.2c-.6-308.3 249.7-559.6 558-560.1h1.1c148.9 0 289 57.8 394.5 162.9 105.8 105.4 164.2 245.7 164.5 395.1.3 149.3-57.6 289.8-163 395.6s-245.7 164.2-395 164.5h-1.1c-307.8 0-558.5-250.1-559-558zm566.3-574.5h-1.1c-153.2.3-297.1 60.2-405.2 168.7s-167.5 252.6-167.2 405.8c.6 315.8 257.7 572.3 573.4 572.3h1.1c153.2-.3 297.1-60.2 405.2-168.7 108-108.5 167.4-252.6 167.1-405.8-.3-153.1-60.2-297-168.7-405.1-108.2-107.9-251.9-167.2-404.6-167.2" style="fill:#231f20;fill-opacity:1;fill-rule:nonzero;stroke:none" transform="matrix(.01436 0 0 -.01436 -328.75 229.286)"/><path d="M29817.5 9759.8c-121.7.2-236.3-47-322.5-132.9-86.3-85.9-133.9-200.3-134.1-322-.5-251.3 203.6-456.1 454.9-456.6 121.7-.3 236.3 46.9 322.5 132.8 86.2 86 133.9 200.3 134.1 322.1.4 217.2-152 399.7-355.7 445.5-31.9 7.2-65.2 11-99.2 11.1m-616-454.6c.3 164.3 64.6 318.6 181 434.6s271 179.7 435.3 179.4c339.2-.7 614.6-277.1 614-616.3-.6-339.3-277.1-614.7-616.3-614.1-46 .1-90.8 5.3-133.9 15-274.9 61.8-480.7 308.2-480.1 601.4" style="fill:#caa84b;fill-opacity:1;fill-rule:nonzero;stroke:none" transform="matrix(.01436 0 0 -.01436 -328.75 229.286)"/><path d="M29816.6 9738.2c-115.7 0-224.5-44.9-306.4-126.6-82.2-81.8-127.6-190.8-127.8-306.8-.4-239.4 194-434.5 433.4-435h.9c115.6 0 224.4 44.9 306.4 126.6 82.2 81.8 127.5 190.8 127.8 306.8.4 201.7-142.2 380.3-338.9 424.5-30.9 6.9-62.7 10.5-94.5 10.5zm.1-911.5h-1c-263.1.6-476.9 215.1-476.4 478.2.3 127.5 50.2 247.3 140.5 337.2 90.1 89.8 209.7 139.2 336.8 139.2h.9c35-.1 70-4 103.9-11.6 216.3-48.6 373-244.8 372.5-466.6-.2-127.5-50.1-247.3-140.4-337.2-90.1-89.8-209.7-139.2-336.8-139.2m-593.7 478.4c-.5-275.8 194.3-519.8 463.3-580.3 42.1-9.5 85.6-14.3 129.2-14.4h1.2c326.8 0 593 265.5 593.6 592.5.6 327.3-265.2 594.1-592.5 594.8-157.9.3-307.8-61.2-420.1-173.1-112.4-111.9-174.4-260.9-174.7-419.5m593.7-637.8h-1.3c-46.7.1-93.4 5.3-138.5 15.5-288.5 64.8-497.5 326.6-497 622.4.3 170.1 66.9 329.8 187.4 449.9 120.2 119.7 279.7 185.6 449.3 185.6h1.2c351.1-.7 636.2-286.8 635.5-637.9-.6-350.6-286.1-635.5-636.6-635.5" style="fill:#231f20;fill-opacity:1;fill-rule:nonzero;stroke:none" transform="matrix(.01436 0 0 -.01436 -328.75 229.286)"/><path d="M29215.2 14061.2c-.3 1-1.5.8-1.6-.2 0 0-2.8-248.3-2.8-250.5-.6-108.9 314.9-199 704.7-201.1s706.1 84.6 706.7 193.6c.1 4 1.5 243.7 1.5 243.7 0 .9-1.2 1.2-1.5.3-44.9-96.9-342.7-170.2-703-168.5-368.6 1.9-671 82.3-704 182.7" style="fill:#e0c13b;fill-opacity:1;fill-rule:nonzero;stroke:none" transform="matrix(.01436 0 0 -.01436 -328.75 229.286)"/><path d="M29234.4 14000.5c-.8-72.9-2.1-186.5-2.2-190-.2-40.4 72.8-86.3 190.4-119.9 131.4-37.5 306.5-58.7 493-59.7h14.8c395.3 0 669.9 90 670.3 172.3.1 3.4.8 116.7 1.2 187.6-113.2-89.6-410-135.3-682.8-133.8-278.3 1.5-575.3 50.8-684.7 143.5m694.7-412.6c-4.5 0-9.1.1-13.7.1-190.4 1-369.6 22.7-504.5 61.3-145.3 41.4-221.9 97.2-221.6 161.3 0 2 2.2 192.3 2.9 250.6l.2 18.3 18.7 3.6c10.7 1.6 21.1-4.8 24.5-15.2 26-79.2 294.8-165.9 683.7-167.9h12.8c374.9 0 634.8 78.8 670.5 156l7.4 15.9 17.9-3.4c10.1-2.4 17.4-11.7 17.2-22.1 0-9.6-1.4-239.6-1.4-243.6-.8-140.3-366.2-214.9-714.6-214.9" style="fill:#231f20;fill-opacity:1;fill-rule:nonzero;stroke:none" transform="matrix(.01436 0 0 -.01436 -328.75 229.286)"/><path d="M29263.5 14507.8c-2.9-75.7-9.9-151.3-21.1-226.5l-28.2-187.3-.2-1.3-.3-25.8c23.2-103 330-186.4 705.5-188.4 364.7-1.7 665.6 73.4 704.5 172.2l.4 34.4-1.9 12.6-24.3 169.3c-11 77.9-17.9 156.2-19.8 234.6-33.7-87.3-319.8-155.2-658.7-153.6-340.4 1.8-625.6 71.9-655.9 159.8" style="fill:#ead46d;fill-opacity:1;fill-rule:nonzero;stroke:none" transform="matrix(.01436 0 0 -.01436 -328.75 229.286)"/><path d="M29235.2 14069.4c22.8-80.6 300.6-167.4 684.1-169.4 377.6-1.7 646.1 78.5 683 155.3l.3 28.3-25.9 180.4c-8.7 61.2-14.7 122.2-17.9 182-103.7-78.9-373.7-119.5-628.1-119.5h-11.4c-258.3 1.4-533.6 44.4-637.2 125.1-3.8-58.5-10-116.6-18.5-173.4l-28.1-186.7zm695.5-212.4h-11.6c-338.5 1.8-696.6 72.8-726.3 205.2l-.6 2.4.7 32.6 28.2 187.3c11 73.2 18 148.6 21 224.2l4.5 114.4 37.3-108.3c23.6-68.7 284.6-143.5 635.6-145.3 348.7-1.5 612 70.9 638.6 139.8l38.8 100.7 2.7-107.9c1.8-75.6 8.4-153.7 19.6-232.1l26.4-183.5-.5-40-1.4-3.7c-48.3-122.5-393.2-185.8-713-185.8" style="fill:#231f20;fill-opacity:1;fill-rule:nonzero;stroke:none" transform="matrix(.01436 0 0 -.01436 -328.75 229.286)"/><path d="m29219.5 15276.7.4-98.7 36.9-411.5c6.6-74.7 9.3-149.7 7.7-224.5v-.3c-.2-11.3-.6-22.6-1-33.9 30.3-87.9 315.5-158 655.9-159.8 338.9-1.6 625 66.3 658.7 153.6-.4 12.1-.7 24.2-.5 36.2l-.2.2c-.8 75.1 2.6 150.4 10.2 225.3l42.3 415.5-.3 88.7z" style="fill:#e0c13b;fill-opacity:1;fill-rule:nonzero;stroke:none" transform="matrix(.01436 0 0 -.01436 -328.75 229.286)"/><path d="M29285.2 14511.5c30.6-67.8 288.9-140.2 634.3-142h11.8c337.2 0 591.4 69.2 625.2 136.2-.3 8.6-.6 18.8-.5 29.2v2.8c-.9 75.8 2.6 152.4 10.2 227.7l42.2 414.5-.2 66.3-1367.1 8.9.3-76.1 36.8-410.6c6.8-76.2 9.4-152.6 7.8-226.8l-.1-2.1c-.2-9.3-.5-18.6-.7-28m645.5-185h-11.4c-306.7 1.6-637.4 62-676.1 174.3l-1.2 3.8.1 3.9c.3 11.3.7 22.4.9 33.6l.1 2.8c1.4 71.9-1.1 145.8-7.7 219.7l-37 413.3-.4 120.4 1453-9.4.4-111.1-42.4-416.7c-7.3-71.7-10.7-144.6-10.1-216.7l.1-.3v-6.7c-.2-12.6.2-25.4.6-35l.1-4.5-1.6-4.1c-42.5-110.3-365.9-167.3-667.4-167.3" style="fill:#231f20;fill-opacity:1;fill-rule:nonzero;stroke:none" transform="matrix(.01436 0 0 -.01436 -328.75 229.286)"/><path d="m29219.6 15268.8.2-71.3.1-19.5.9-11.4.1-.4c32-100.8 333.7-181.4 701.9-183.2 377.3-2.1 685.8 79 705.7 183.1l1.2 10.4-.1.4.3 1.9-.4 84.7c-13.8-105.4-324.9-188.3-706.2-186.3-378.3 2.1-686.6 87-703.7 191.6" style="fill:#ead46d;fill-opacity:1;fill-rule:nonzero;stroke:none" transform="matrix(.01436 0 0 -.01436 -328.75 229.286)"/><path d="M29242.1 15170.5c26.6-77.9 293.7-164.1 680.9-166.1 388.4-1.9 667.2 83.5 684.3 165l.6 5.4-.1.3.6 5.2-.1 12.9c-107.5-90.2-398.8-137.5-673-137.5h-12.1c-281.4 1.6-573.5 50.6-681.9 142.6zm694.2-209h-13.6c-328.1 1.6-681.6 70.3-722.2 198.2l-1 5.1-1.1 13.1-.3 90.9 42.7 3.5c13.4-82.1 290.9-171.5 682.6-173.7h13.5c389 0 660.6 86 671.3 167.7l42.8-2.7.4-85v-1.3l-1.8-15.2c-25.3-132.4-375.6-200.6-713.3-200.6" style="fill:#231f20;fill-opacity:1;fill-rule:nonzero;stroke:none" transform="matrix(.01436 0 0 -.01436 -328.75 229.286)"/><path d="M29218.7 15278.4q0-4.8.9-9.6c17.1-104.6 325.4-189.5 703.7-191.6 381.3-2 692.4 80.9 706.2 186.3l.1 1c.1 2.2.6 4.2.5 6.2.7 109.1-320.1 286.7-709.9 288.9-389.8 2-700.9-172.2-701.5-281.2" style="fill:#f5ebb4;fill-opacity:1;fill-rule:nonzero;stroke:none" transform="matrix(.01436 0 0 -.01436 -328.75 229.286)"/><path d="M29913.7 15552.4c-372.9 0-687.2-167.5-687.8-274.1 0-2.7.2-5.5.7-8.1 16.5-100.5 329-183.8 696.7-185.9h12.9c366.5 0 673.1 80.1 686.2 180.2.1 1.5.2 2.4.3 3.4.2.9.3 1.8.3 2.6.3 52-80 121.9-204.4 178.2-84.3 38.2-261.2 102.4-498.4 103.7zm22.7-482.4h-13.2c-380.7 2.1-692.9 89-710.7 197.7-.6 3.3-1 7-.9 10.7.6 114.7 314.7 288.4 701.9 288.4h6.8c239.9-1.4 418.9-66.4 504.2-105 131.6-59.6 213.1-132.8 212.8-191.1.1-1.4-.1-3-.3-4.7l-.3-2c-14.3-110.1-320.8-194-700.3-194" style="fill:#231f20;fill-opacity:1;fill-rule:nonzero;stroke:none" transform="matrix(.01436 0 0 -.01436 -328.75 229.286)"/><path d="M29452.2 15163.5c380.3-6.3 689.7 68.7 702.2 168.5l.1.9c.1 2.1.5 4 .5 5.9-.5 65.1-128 157.3-319.2 218.4 27.7 1.6 55.8 2.6 84.4 2.4 389.8-2.2 710.6-179.8 709.9-288.9.1-2-.4-4-.5-6.2l-.1-1c-13.8-105.4-324.9-188.3-706.2-186.3-244.4 1.3-459.4 37.3-585.7 90.7 37.3-2.2 75.5-3.8 114.6-4.4" style="fill:#eddc85;fill-opacity:1;fill-rule:nonzero;stroke:none" transform="matrix(.01436 0 0 -.01436 -328.75 229.286)"/><path d="M29218.7 15278.4h.2zm694.8 259.7c-381.9 0-672.8-172.5-673.3-259.8v-.2c0-1.7.2-3.5.5-5.1 13.5-82.8 291-172.2 682.7-174.4h13.5c388.1 0 659.4 85.7 671.2 167.1.2 1.9.3 3 .4 4 .4 37.7-60.9 104.9-195.8 166-83.3 37.7-258 101.1-492.6 102.4zm21.8-482.4h-12.1c-343.5 1.9-702.7 74.6-724.8 209.7-.8 3.8-1.2 8.4-1.1 13.2.8 135 341 304.8 723 302.5 242.6-1.4 423.7-67.2 510.1-106.3 138.9-62.8 221.6-139.2 221.2-204.2.1-1.6-.1-4-.5-6.4l-21.5.3 21.4-2.2-.2-1.6c-17.6-133.9-379.4-205-715.5-205" style="fill:#231f20;fill-opacity:1;fill-rule:nonzero;stroke:none" transform="matrix(.01436 0 0 -.01436 -328.75 229.286)"/><g clip-path="url(#a)" transform="matrix(.01436 0 0 -.01436 -328.75 229.286)"><path d="M29157.3 11104.1h387.898v2420.8H29157.3Z" style="fill:#f4ebb4;fill-opacity:1;fill-rule:nonzero;stroke:none"/></g><path d="M29471.6 13715.5q-9.6 0-19.5 2.1c-45.9 10.1-75.5 53.4-66 96.6 8.2 37 42.4 62.1 81 62.1 6.4 0 12.9-.7 19.5-2.2 46-10.1 75.5-53.3 66-96.6-8.1-37-42.4-62-81-62" style="fill:#f4ebb4;fill-opacity:1;fill-rule:nonzero;stroke:none" transform="matrix(.01436 0 0 -.01436 -328.75 229.286)"/><path d="M29551.1 14279.6c4.3-36.2 8.2-71.7 11.6-108 3.3-36.2 6.3-72.4 7.6-110.9v-1.3c1.5-46.8-35.2-86-82-87.5-46.9-1.5-86.1 35.2-87.6 82-.2 7.2.6 14.6 2 21.3 7.2 31.9 13.1 66.3 18.6 100.6 5.4 34.4 10.4 69.4 15 103.8v.7c4.2 31.7 33.3 54 64.9 49.8 26.8-3.6 46.8-24.9 49.9-50.5" style="fill:#f5ebb4;fill-opacity:1;fill-rule:nonzero;stroke:none" transform="matrix(.01436 0 0 -.01436 -328.75 229.286)"/><path d="M29493.5 14451.1c-.6 0-1.1 0-1.7.1-28.8.8-52.1 22.7-55.4 50.5l-46.6 388.2c-5.7 47.4 28.1 90.3 75.4 96 3.5.4 6.9.6 10.4.6 43 0 80.3-32.2 85.5-76 .5-4.1.7-8.1.6-12.2v-1.8l-10.8-386.9v-2.6c-.9-31.2-26.4-55.9-57.4-55.9" style="fill:#f4ebb4;fill-opacity:1;fill-rule:nonzero;stroke:none" transform="matrix(.01436 0 0 -.01436 -328.75 229.286)"/><path d="M29964.3 6563.6c0-45.2-81.7-232.8-81.7-232.8s-81.8 187.6-81.8 232.8 36.6 81.8 81.8 81.8c45.1 0 81.7-36.6 81.7-81.8m-43.4 229.5c0-21.2-17.2-38.3-38.3-38.3-21.2 0-38.3 17.1-38.3 38.3 0 21.1 17.1 38.2 38.3 38.2 21.1 0 38.3-17.1 38.3-38.2m-38.3-650.9c0 19.6 1.9 39.2 4.6 58.8 2.9 19.6 7.1 39 12.9 58.3 5.8 19.2 13.4 38.3 23.6 56.4s22.4 35.9 38.3 51.6c15.8 15.7 35.6 29 57.7 36.2 11.1 3.6 22.4 6 33.8 6.9 11.4 1 22.6.7 34.1-.6 22.8-2.6 46.5-9.9 66.6-23.9 20.3-13.6 35.9-33.4 45.2-54.6 9.4-21.3 13-43.9 12.6-65.6-.5-21.7-4.6-42.8-12.2-62.5-7.6-19.6-18.2-38-32.6-53.3-14.1-15.3-32.3-27.2-52.4-32.5-10-2.8-20.6-3.7-30.6-3.6-10 0-20.1.8-30.2 2.9-19.8 3.8-40.3 13-54.4 30.7-14 17.5-32 73.1-10.5 106 13.8 21.1 28.6 26.3 51 27.4 19.6.9 43.8-11.4 43.8-35.4 0-58.4-56.5-35.2-66.4-43.5-11.7-9.9-11.6-30-3.7-45.1 7.6-15.3 24.4-25.8 42.5-29.6 9-2 18.5-2.7 27.9-2.7 9.6 0 18.5 1.3 27.3 4 8.7 2.8 16.8 7.1 24.2 12.5 7.2 5.6 13.6 12.1 19 19.4 10.8 14.7 17.8 32.1 21.2 49.8 7.1 35.5.7 73.2-16.8 100-17.5 27-45 40.2-76.9 42.2-7.9.5-16.3.4-24.4-.1s-16-1.3-23.9-2.6c-15.7-2.6-31.4-7.2-46.5-15.4-15.1-8-29-19.9-40.6-34.1-11.6-14.3-21.5-30.4-30-47.5-16.7-34.2-28.2-71.9-34.2-110.5m106.2 277.1c6.6 16.8 14 33.4 21.8 49.8 7.9 16.5 16.3 32.7 25.5 48.7 9.2 15.9 19.2 31.7 31 46.8 6.4 8.1 13.1 16.2 20.8 24 10.5 10.6 28.3 8.1 35.3-5.1 5.5-10.3 1.9-23-8-29.2-7.2-4.5-14.4-9.8-21.3-15.4-13.2-10.7-25.8-23-37.8-35.9-12.1-12.9-23.8-26.4-34.9-40.4-11.2-14.1-22.1-28.4-32.4-43.3m206.3-288c53.2 27.3 102.8 61 147 99.2 21.8 19.3 42.5 39.7 60.3 61.7 18 22 33.5 45.2 44.7 69.5 5.9 12 10.3 24.4 14 36.7 3.6 12 5.4 25.7 7.9 38.6 3.2 26.1 3.6 51.7-.3 76.1-4.1 24.3-12 47.1-23.2 67.8-2.9 5-5.9 10.1-9 14.9-3.4 4.8-6.5 9.6-10.1 13.9-3.5 4.5-7.3 8.6-11 12.5-1.8 1.8-59.9 60.4-16.4 104 52.8 52.9 108-5.4 120.2-26.2 4.9-8.3 9.9-16.3 14.1-24.6 4.4-8.2 8-16.8 11.6-25.2 3.5-8.5 6.5-17.2 9.4-25.8 10.8-34.9 15.6-71.1 14.7-106.4-1.2-35.4-8.5-69.3-18.9-101.3-6-15.7-11.3-31.1-19.2-46.7-7.9-15.1-16.6-29.6-26.5-43-19.4-26.9-42.3-49.9-66.4-70.2-24.2-20.4-50-37.8-76.4-53.5-53.1-30.9-109-55-166.5-72" style="fill:#b89b1c;fill-opacity:1;fill-rule:nonzero;stroke:none" transform="matrix(.01436 0 0 -.01436 -328.75 229.286)"/><path d="M30276.2 6250.6c12.5 21.4 23.3 43.7 30.9 66.7 7.6 22.9 12 46.5 11 69.3-.9 22.8-6.9 44.4-16.9 64-6 11.9-13.5 23.1-22 33.6-9.1 11.2-7.1 27.7 4.1 36.8 13 10.5 32.3 6.5 40-8.3 7.8-14.9 14.3-30.5 18.8-46.8 7.5-26.6 9.3-54.9 5-81.4-4.1-26.6-14.2-51-26.7-73.2-12.6-22.1-27.8-42.1-44.2-60.7m454.2 19.2c0-16.2-13.1-29.3-29.3-29.3-16.1 0-29.3 13.1-29.3 29.3s13.2 29.3 29.3 29.3c16.2 0 29.3-13.1 29.3-29.3m-95.5-43.9c6.9-27.8-10-56-37.9-62.9-27.8-6.9-122.1 22.9-122.1 22.9s69.2 71 97.1 77.9c27.8 7 56-10 62.9-37.9m-752.3-83.7c0 19.6-2 39.2-4.7 58.8-2.8 19.5-7.1 39-12.8 58.3-5.9 19.2-13.4 38.2-23.7 56.4-10.2 18-22.3 35.9-38.3 51.6-15.7 15.6-35.6 28.9-57.7 36.1-11 3.7-22.4 6-33.8 7s-22.6.6-34.1-.7c-22.8-2.5-46.5-9.9-66.6-23.8-20.3-13.6-35.9-33.4-45.2-54.7-9.4-21.3-13-43.8-12.6-65.5.5-21.7 4.6-42.9 12.2-62.5s18.3-38.1 32.6-53.3c14.1-15.3 32.4-27.2 52.5-32.5 9.9-2.8 20.6-3.7 30.5-3.6 10.1 0 20.2.8 30.2 2.9 19.9 3.8 40.4 12.9 54.4 30.6 14.1 17.6 32.1 73.2 10.6 106.1-13.9 21.1-28.7 26.3-51.1 27.3-19.6 1-43.7-11.3-43.7-35.4 0-58.4 56.5-35.1 66.4-43.5 11.7-9.8 11.5-30 3.6-45-7.6-15.4-24.3-25.8-42.4-29.7-9.1-2-18.5-2.6-28-2.6-9.5-.1-18.5 1.3-27.3 3.9-8.7 2.8-16.8 7.2-24.1 12.6-7.2 5.5-13.7 12.1-19.1 19.4-10.8 14.7-17.8 32-21.2 49.8-7 35.4-.7 73.2 16.9 99.9 17.5 27.1 44.9 40.3 76.8 42.3 7.9.4 16.3.3 24.4-.1 8.1-.6 16-1.3 23.9-2.7 15.7-2.5 31.4-7.1 46.5-15.3 15.2-8 29.1-19.9 40.7-34.2 11.5-14.2 21.4-30.4 29.9-47.4 16.8-34.3 28.3-71.9 34.3-110.5m-106.3 277.1c-6.6 16.8-14 33.4-21.8 49.8s-16.3 32.7-25.5 48.6c-9.2 16-19.2 31.8-31 46.9-6.4 8.1-13 16.2-20.7 23.9-10.6 10.6-28.3 8.2-35.4-5-5.5-10.3-1.9-23.1 8-29.2 7.2-4.5 14.4-9.8 21.3-15.5 13.2-10.6 25.8-22.9 37.9-35.8s23.7-26.5 34.9-40.5 22.1-28.3 32.3-43.2m-206.3-288.1c-53.2 27.4-102.8 61-146.9 99.3-21.9 19.3-42.6 39.7-60.4 61.7-17.9 21.9-33.4 45.2-44.7 69.5-5.9 12-10.3 24.4-14 36.7-3.5 12-5.4 25.6-7.8 38.5-3.2 26.2-3.7 51.8.2 76.1 4.2 24.3 12 47.2 23.2 67.8 2.9 5.1 5.9 10.2 9 15 3.4 4.7 6.5 9.6 10.2 13.9 3.4 4.5 7.2 8.6 10.9 12.5 1.9 1.8 59.9 60.4 16.4 104-52.8 52.9-108-5.4-120.2-26.3-4.8-8.3-9.9-16.2-14-24.5-4.5-8.3-8-16.8-11.7-25.2q-5.1-12.9-9.3-25.8c-10.9-34.9-15.6-71.1-14.7-106.4 1.1-35.4 8.4-69.4 18.8-101.3 6-15.7 11.3-31.1 19.3-46.7 7.9-15.1 16.5-29.7 26.4-43 19.5-26.9 42.3-49.9 66.5-70.3 24.1-20.4 50-37.7 76.4-53.4 53.1-30.9 108.9-55 166.4-72.1" style="fill:#b89b1c;fill-opacity:1;fill-rule:nonzero;stroke:none" transform="matrix(.01436 0 0 -.01436 -328.75 229.286)"/><path d="M29488.9 6250.6c-12.5 21.4-23.3 43.7-30.9 66.6s-11.9 46.5-10.9 69.3c.8 22.8 6.8 44.5 16.8 64 6.1 12 13.6 23.2 22.1 33.7 9 11.2 7 27.7-4.2 36.8-13 10.4-32.3 6.4-40-8.3-7.8-14.9-14.2-30.5-18.8-46.9-7.5-26.6-9.3-54.8-5-81.3 4.2-26.6 14.2-51.1 26.7-73.2 12.6-22.1 27.8-42.1 44.2-60.7m-454.2 19.2c0-16.2 13.1-29.3 29.3-29.3s29.3 13.1 29.3 29.3c0 16.1-13.1 29.3-29.3 29.3s-29.3-13.2-29.3-29.3m95.5-43.9c-6.9-27.9 10.1-56 37.9-63 27.9-6.9 122.1 23 122.1 23s-69.2 71-97 77.9c-27.9 6.9-56.1-10.1-63-37.9m-107-1689.2c-35 1.1-70.3-1.2-105.5-5.5-35.3-4.5-70.5-11.6-105.3-21.4-35.1-9.4-69.3-23.1-102.9-39.5l-24.9-13.2c-8.2-4.6-16.1-10-24.2-15l-6.3-4.7c-21.1-15.4-23.2-46.1-4.4-64.2 17.1-16.5 44.5-15.7 60.5 2 8.6 9.5 16.4 18 18.7 20.1l18.4 15.8c25.4 20.4 52.8 39.6 82.6 55.3 29.6 16.1 60.9 30.2 93.2 42 32.4 11.7 65.8 21.6 100.1 28.3m528.1-237.1c3.6 22.8 4.9 46.2 4.9 69.7q0 35.25-5.4 70.8c-3.4 23.8-9.6 47.3-17.6 70.7l-6.7 17.4c-2.4 5.8-5.2 11.4-7.9 17.1l-2.5 4.6c-8.4 15-28.4 18.9-41.8 8-12.3-9.9-13.9-27.9-3.6-39.8 5.5-6.5 10.5-12.3 11.7-14l8.9-13.3c11.3-18.3 21.6-37.9 29.6-58.7 8.1-20.7 14.8-42.4 20-64.6 5-22.2 8.8-44.9 10.4-67.9m425.2 101.6c0 37.5-30.3 67.9-67.8 67.9s-67.9-30.4-67.9-67.9c0-37.4 67.9-143.9 67.9-143.9s67.8 106.5 67.8 143.9m41.1-237.6q17.4-23.85 35.7-46.8l.8-.6c17.8-16.8 38.1-32 62.3-42.1 24-10 52.4-14.1 80-6.8 13.9 3.5 26.9 10 38.3 18 11.5 8 21.5 17.3 30.2 27.3 17.3 20.1 30.5 41.9 42.4 63.7 23.2 44 41.2 88.5 61.1 131 19.7 42.5 41.4 83.5 68.8 117 13.6 16.8 28.7 31.2 44.5 43 8.1 5.7 16.2 11.1 24.7 15.5q12.75 6.6 26.4 11.1c9.1 3 18.5 5.4 28.2 7 9.9 1.8 19.9 2.8 30.1 3.2 20.2.7 40.9-1.5 61.6-6.5 41.4-9.7 82.2-29.9 120.7-55.1 38.6-25.4 75.1-55.7 109.6-89.6-4.9 11.1-10.7 21.9-17 32.3-6.2 10.5-12.9 20.8-20.1 30.7-14.1 20.1-30.1 38.9-47.4 56.9-34.9 35.4-76.9 66.4-126.7 85.5-24.9 9.4-51.6 15.7-79.1 17.4-13.8 1-27.6.7-41.4-.7-13.9-1.5-27.9-4.3-41.6-8.5-27.4-8.3-53-22.8-74.3-40.8-21.6-17.9-38.9-39.1-53.5-60.8-14.6-21.8-26.5-44.4-37.3-67-10.7-22.6-20.1-45.3-29.1-67.8-17.9-45.1-33.3-90.2-52.1-132-9.4-20.9-19.7-41-32.3-58.2-12.4-17.2-27.3-31.3-45.3-38-8.9-3.4-19.1-5.1-29.3-5.4-10.3-.4-20.8 1.1-31.4 3.7-21.2 5.1-42 15.5-62.1 27.6l.8-.7c-15.1 12.5-30.5 24.7-46.2 36.5" style="fill:#b89b1c;fill-opacity:1;fill-rule:nonzero;stroke:none" transform="matrix(.01436 0 0 -.01436 -328.75 229.286)"/><path d="M30346.8 4063.9c37.8-7.5 76-14 115.9-15.4 19.9-.7 40.3 0 61 3.2 20.8 3.2 41.9 9 62.2 18.7 20.3 9.6 39.6 22.8 56.2 38.6 16.6 15.9 30.8 33.9 42.7 52.7 11.5 18 21.1 36.6 29.4 55.4 13.9 31.4-4.9 67.6-38.7 74.1-29.9 5.7-58.1-14.8-62.7-44.9-2.4-15.4-5.6-30.3-10-44.6-9.5-31.1-24.4-58.6-48.9-79.5-24.2-21.3-58.1-35-94.1-43.5-36.2-8.4-74.6-12.3-113-14.8m885.9 658.1c-2.1 16.1-16.7 27.4-32.8 25.4-16-2.1-27.4-16.7-25.3-32.8 2-16 16.7-27.4 32.7-25.3 16.1 2 27.4 16.7 25.4 32.7m-2703.9-63.6c5.7 36.6-19.3 70.9-55.9 76.7-36.6 5.7-70.9-19.3-76.6-55.8-5.8-36.6 19.2-70.9 55.8-76.7 36.6-5.7 70.9 19.2 76.7 55.8m2897.8 0c-4.7 36.7-38.3 62.7-75 58s-62.7-38.3-58-75 38.3-62.7 75-58 62.7 38.3 58 75m-286.7 30.7c-9.6 26.6-50 36.4-90.3 21.8-40.2-14.6-141-105.3-141-105.3s135.7-5.6 175.9 8.9c40.3 14.6 65.1 48 55.4 74.6m-721.4-512.8c20.1 14.6 39 31 57.3 48.4 18.2 17.5 35.5 36.2 51.8 56.2 16.4 20 31 41.9 44.5 65.1 5.2 9.1 10.1 18.6 14.5 28.4 10.8 23.6-3.7 51.1-29.3 55.1-21.8 3.4-42.2-11.8-44.8-33.8-1-8.2-2.4-16.5-4.2-24.8-4.8-22.2-11.2-44.8-20-66.9-8.7-22.1-18.9-44-30.6-65.4-11.7-21.3-24.6-42.3-39.2-62.3m406.2 464.1c27.4 21.7 52.9 46.3 77 72.3 24.1 26.2 46.4 54.3 66.7 84.3 20.7 29.8 38 62.4 53.1 96.6l10.5 26.1c3.3 8.9 5.8 18 8.8 27.1l1.8 7.6c6.1 25.4-12.1 50.2-38.1 52-23.8 1.5-44.1-16.8-44.9-40.6-.5-12.9-1-24.4-1.4-27.5l-3.8-23.9c-6.2-31.9-14.8-64.3-27.4-95.6-12.3-31.4-27-62.3-44.1-92.2-17.2-29.8-36.3-59-58.2-86.2m-27.2-106.2c35 .1 70.2-3.2 105.3-8.6s70.1-13.5 104.7-24.3c34.7-10.5 68.5-25.2 101.6-42.5l24.6-13.9c8-4.9 15.7-10.5 23.7-15.7l6.2-4.9c20.6-16 21.8-46.8 2.5-64.4-17.6-16-44.9-14.3-60.4 3.8-8.3 9.8-15.9 18.5-18.2 20.7l-17.9 16.3c-24.7 21.1-51.6 41.1-80.9 57.7-29.2 16.9-60 31.9-92 44.6s-65.1 23.6-99.2 31.2m-534.8-221.7c-2.9 22.9-3.5 46.3-2.9 69.8.8 23.4 3.3 47 7.5 70.6 4.1 23.7 11 47 19.7 70.2l7.1 17.2c2.6 5.7 5.6 11.2 8.4 16.8l2.7 4.5c8.8 14.8 28.9 18.1 42 6.9 12-10.3 13.1-28.4 2.4-40-5.7-6.2-10.8-11.9-12-13.6l-9.3-13.1c-11.8-17.9-22.8-37.1-31.3-57.7-8.7-20.5-16.1-42-21.8-64-5.7-22.1-10.2-44.7-12.5-67.6m-470.6-168.8c-12.1-15.6-24.5-30.8-37.1-45.7l-.8-.6c-18.3-16.3-39-30.9-63.5-40.3-24.3-9.3-52.7-12.6-80.2-4.5-13.8 3.9-26.6 10.8-37.8 19.1s-20.9 17.9-29.3 28.2c-16.7 20.6-29.3 42.8-40.6 64.9-21.9 44.6-38.6 89.6-57.3 132.7-18.4 43-38.9 84.7-65.4 118.9-13 17.2-27.7 32-43.2 44.2-7.9 6-15.9 11.6-24.2 16.3-8.4 4.6-17.1 8.6-26.1 11.8-9 3.3-18.3 6-28 7.9-9.8 2-19.8 3.4-29.9 4-20.3 1.3-41-.3-61.8-4.6-41.7-8.5-83.1-27.6-122.3-51.7-39.3-24.2-76.7-53.5-112.2-86.3 5.3 10.9 11.4 21.5 18 31.7 6.5 10.4 13.5 20.4 20.9 30.1 14.7 19.7 31.3 38.1 49.1 55.5 35.9 34.4 78.8 64.2 129.2 81.9 25.1 8.6 52 14.1 79.5 15 13.8.6 27.6-.1 41.4-1.9 13.9-1.9 27.8-5.1 41.3-9.7 27.1-9 52.3-24.3 73.1-42.8 21.1-18.6 37.7-40.3 51.7-62.4 14-22.2 25.2-45.1 35.3-68s18.9-45.9 27.2-68.7c16.5-45.6 30.6-91.1 48.3-133.4 8.7-21.2 18.4-41.6 30.5-59.1 12-17.6 26.4-32.1 44.2-39.3 8.8-3.6 19-5.7 29.2-6.3 10.2-.7 20.8.5 31.4 2.8 21.4 4.5 42.5 14.3 62.9 25.8l-.8-.7c15.5 12.1 31.2 23.9 47.3 35.2" style="fill:#b89b1c;fill-opacity:1;fill-rule:nonzero;stroke:none" transform="matrix(.01436 0 0 -.01436 -328.75 229.286)"/><path d="M29460.1 4053.6c-38-6.5-76.4-11.9-116.3-12.1-19.9-.1-40.3 1.2-60.9 5s-41.6 10.2-61.6 20.5c-20 10.1-38.9 23.9-55.1 40.2-16.1 16.3-29.7 34.8-41.2 53.9-10.9 18.3-20 37.1-27.7 56.2-13 31.8 6.8 67.5 40.8 72.9 30 4.9 57.7-16.4 61.4-46.6 1.9-15.4 4.7-30.5 8.7-44.9 8.5-31.3 22.7-59.2 46.6-80.9 23.5-22 57-36.6 92.8-46.1 35.9-9.6 74.2-14.5 112.5-18.1m-866.5 683.4c2.5 16 17.5 26.9 33.5 24.4s26.9-17.5 24.4-33.5c-2.5-15.9-17.5-26.9-33.5-24.4-16 2.6-26.9 17.5-24.4 33.5m91.8-35.6c10.4 26.3 51.1 34.9 90.9 19.2s137.9-109.3 137.9-109.3-135.8-1.7-175.6 14-63.6 49.8-53.2 76.1m706.3-533.4c-19.6 15.2-38.2 32.1-55.9 50-17.7 18-34.5 37.2-50.2 57.7-15.8 20.5-29.8 42.7-42.5 66.3q-7.5 13.95-13.8 28.8c-10.1 24 5.2 51 31 54.3 21.9 2.8 41.8-13.1 43.8-35.1.7-8.2 1.8-16.6 3.4-25 4.2-22.2 10-45 18.1-67.3 8.1-22.4 17.6-44.6 28.7-66.3s23.3-43 37.4-63.4m-392.6 475.6c-26.8 22.6-51.6 47.8-74.9 74.6a725 725 0 0 0-64.3 86.1c-19.8 30.4-36.1 63.4-50.2 98.1l-9.8 26.4c-3 9-5.3 18.2-8 27.3l-1.6 7.7c-5.4 25.6 13.6 49.8 39.7 50.8 23.7.9 43.5-18 43.7-41.8 0-12.9.2-24.4.5-27.5l3.2-24.1c5.2-32 12.9-64.6 24.6-96.3 11.3-31.7 25.2-63 41.4-93.4 16.3-30.3 34.6-60 55.7-87.9" style="fill:#b89b1c;fill-opacity:1;fill-rule:nonzero;stroke:none" transform="matrix(.01436 0 0 -.01436 -328.75 229.286)"/><path d="M28566.7 5846.6c-15.7 3.3-32.9 5.7-51.5 7-32.2 2.2-68.7 1.8-109.2-1.4-7.3-.8-10.9-1.3-18.1-2.1 2.1-30.9 4.9-77 8.5-138.3 3.6-61.4 6.5-107.5 8.5-138.3 4.2-2.1 6.3-3.1 10.4-5.1 7.9-3.4 25.1-6.1 51.6-8l13-1c38-2.2 67.7-1.2 89.1 3.1 44.6 8.8 76.7 23 96.4 42.6 19.6 19.6 29.5 46.8 29.5 81.8-.2 4.8-.3 7.2-.6 12.1-1.2 22.2-5.7 43.2-13.5 62.8-7.9 19.6-18 34.5-30.1 44.7-9.7 8.1-22.7 16.2-39 24.1-16.2 7.8-31.3 13.1-45 16m-122.2 64.4c19.6 2 43 1.9 69.4.1 42.1-2.9 75.1-8.9 99.1-17.9 45.3-17.5 79.2-40.9 101.7-70.3 22.4-29.3 36.6-69.2 42.5-119.5.7-4.3 1.3-10.5 1.7-18.5 1.2-24.6-4.6-51.8-17.6-81-9.8-22-23.4-40.3-40.5-54.6-17-14.3-40.1-26.5-69.2-36.3-43.7-14.7-96.3-19.9-157.8-15.4-24.2 1.7-36.3 2.6-60.5 4.5 2.3-35 3.4-52.5 5.8-87.5 2.3-34.2 3.3-55.3 3.2-63.6-.2-8.2-2.3-14.6-5.5-19-4.4-6-11.3-9.1-20.8-8.4-9.1.7-16.9 4.6-23.6 11.8-3.6 3.9-5.5 5.9-9.2 9.9-4.6 54.6-6.9 81.9-11.6 136.6-2.1 22.7-5.3 66.1-9.7 130-4.7 66.4-7.6 112.9-9 139.3-4.5 82.5-6.2 129.7-4.6 140.3 1.7 11.9 7.2 18.5 16.9 19.2 1.4.3 11 0 28.5-.8 29.2-1.4 53-.7 70.8 1.1m381.3-167.8c5.1 4.9 12.3 7.2 21.6 6.7 9.2-.5 16.1-3.5 20.7-8.2 4.4-4.5 8.2-19.6 10.8-45.2 1.5-14.5 2.3-21.8 3.8-36.3 8.7 6.9 13.1 10.4 21.8 17.3 15.9 12.4 34.4 23.6 55.3 32.8 15.6 6.9 27.1 11 34.1 12.6 6.9 1.6 19.5 2.3 37.4 2.6 6.7.1 14.5.1 23.3-.3 11.7-.5 22.2-3 31.6-7.7 17.3-7.8 31.5-17.3 42.5-28.6 11.1-11.3 16.8-21.6 17.1-31.1q0-.75-.3-2.1-.3-1.5-.3-2.1c-3.4-15-12.1-22.3-26.1-21.7-9.7.3-20.8 5-31.8 14-14.9 12.2-30.2 19.7-45.8 20.3-5.8.3-12.3-.2-19.5-1.3-49.2-6.8-91.3-36-126.2-87.6-4.6-6.6-6.9-9.9-11.5-16.4 1.2-26.1 3.4-65.4 6.8-118 3.3-52.6 5.5-92.2 6.7-118.7-3.2-3.6-4.9-5.3-8.2-8.8-5.4-6.4-12.4-9.3-21-8.8-7.6.3-14.4 3.8-20.5 10.2-9.5 10-16 51.2-19.4 123.7-.7 14.2-2.4 56.4-4.6 126.4-2.5 78.8-3.5 127.2-3.3 144.7.1 17.5 1.8 28 5 31.6m571-82.5c-18.1 4.1-32.7 6.5-43.9 6.8-24.3.6-46.1-19.5-65.4-60.5-11.4-24.1-16.5-57.5-15.3-100 .6-24.1 4.4-46.4 11.2-66.8 6.3-19.1 15.2-36.5 26.9-52.2 11.7-15.6 24.2-26.3 36.4-32.5 10.1-5.1 22.5-8.4 36.8-8.7 26.4-.7 48.3 7.2 65.7 21.7 13.2 11.1 25.4 30.3 35.2 57.7s16.2 58.8 18.9 94.1c.9 7.1 1.2 16.7 1 29-.5 26-9.8 48.6-28.1 67.8-11.3 12.5-22.8 21.9-34.3 28-11.6 6.2-26.6 11.3-45.1 15.6m-45.3 65c1-.1 3 0 5.9.2 2.9.1 5.1.2 6.5.1 40.9-1 75.2-9.6 102.8-25.8 12.8-7.3 28.3-20.3 46.6-38.9 18.3-18.5 29.9-33 34.9-43.5 10.5-21.9 16-49.7 16.5-83.3.5-38.8-5.3-77.8-17.4-117.1-12.2-39.3-28.4-69.2-48.6-89.6-14.1-14.4-31.8-25.4-53.1-32.9-21.3-7.6-43-11.1-64.9-10.5-21.1.6-39 4.4-54 11.4-45.4 21.2-80.4 65.6-104.9 133.1-6.3 16.7-9.8 36.5-10.5 59.2l-.5 17.7c-1.1 34.6.2 59.1 2.8 73 3.2 16.5 9.9 36.2 21.2 57.8 11.2 21.6 22.3 37.9 33.2 48.9 25 25.3 52.9 38.6 83.5 40.2m352.9 3.6c15.6 3.2 31.4 4.7 47.5 4.6s32-1.9 47.6-5.2c42.9-12 77.8-38.1 104.5-78.3 10.6-16.5 15.9-30.4 15.9-41.8 0-5.7-1.3-11.5-4.4-16.3-3.8-6.1-9.4-9.3-15.2-9.3-.5 0-1.5.2-2.9.4-1.5.2-2.7.3-3.7.3-7.2.5-12.4 2.2-15.6 5-3.1 2.8-9.9 11-18.5 24.2-11.4 17.2-22.5 31-33.7 39-19.6 13.8-44.1 20.8-73.3 21-16.1.1-31.1-2.7-44.7-8.2-15-6.1-22.5-22.3-22.2-48.7.1-12.4 4.5-22.1 11.9-29.3 9.2-9 37.5-25.6 84.5-47.4 36.1-16.8 64.1-33.8 83.4-51.3 19.3-17.6 35.4-39.8 48.3-66.7 7.7-17.5 11.5-35.7 11.5-54.6-.1-20.4-3.5-37.6-10.2-51.8-19.1-39.3-56.2-63.1-111.4-70.9-9.5-1.4-18.5-2-27.1-2-33.8.2-62.8 9.9-87.3 29.1-24.4 19.1-42.1 45.8-53 80.1-5 16.1-7.5 28.7-7.6 37.6-.3 22.7 9.6 34 29.5 33.7 17.6-.2 27.8-10.1 30.9-29.4 6.2-38.1 22.7-64.8 48.3-79.2 7.7-4.3 21.1-6.5 40.3-6.6 16.8-.1 30.3 1.6 40.4 4.8 13.3 4.2 24 9.9 31.6 16.9 6.2 5.7 10 10.1 11.2 13.1q1.8 4.65 1.8 21 0 21.3-6.9 36.9c-4.6 10.4-13.3 22.3-26.4 35.5-13.9 14.2-40.9 30.8-80.4 50.1-50.7 24.7-84.5 46.1-101.1 63.3-16.7 17.3-25.2 39.6-25.5 67.1-.7 62.4 26.6 100.1 82 113.3m507.6-86.7c-12.5 6.8-28 10.6-46.4 11.3-3.8-.1-5.7-.1-9.5-.1-13.6-.2-24.7-2.3-33.2-6.1-8.6-3.9-18.5-11.4-29.7-22.4-18.2-17.7-30.2-39.5-36.2-65.6-2.5-10.5-3.8-16.8-3.8-19.2 0-2.8.9-5.2 2.8-7.1 10.6-8.9 36.3-14.2 76.7-16.2 7.2-.3 15.4-.5 24.6-.4 11.6.2 23.5 3.6 35.6 9.8 11.5 5.9 22.5 14.8 32.6 26.8q15.15 18 18.3 33c.5 1.4.8 3.5.9 6.4q.45 30.45-32.7 49.8m-97.6 68.1c9.8 3.4 23.7 5.2 41.7 5.5 25.3.3 47.5-2.6 66.4-8.9 14.9-5 29.7-13.9 44-26.9 14.4-12.9 25.1-26.8 31.3-41.2 6.7-15.2 9.7-30.3 9.4-44.5-.6-27.9-13.4-55.8-38.5-83.1-32.3-35.1-72-53.1-118.6-53.7-1.5-.1-4 0-7.6.2s-6.4.3-8.3.2c-23.1 1.2-42.8 3.8-59.2 7.9-7.2 2.3-14.4 3.4-21.6 3.4l-2.2-.1c-1-1.4.1-8.7 3.1-22 3-13.2 6.7-25.5 10.9-36.7 3.8-10.4 10.2-20.6 19.5-30.7s18.9-17.5 28.9-22c11.4-5.2 22.7-7.6 33.7-7.4 30.7.4 54.6 13.6 71.8 39.4 8.3 12 14.7 19.8 19 23 5.2 4 10.9 5.9 16.7 6q11.55.3 20.4-8.1c5.9-5.5 8.8-12.3 8.6-20.4-.2-10.4-5.5-23-16.1-37.9s-22.6-26.7-36.1-35.4c-28.5-18.1-54.5-27.2-77.8-27.5-1.5-.1-3.5 0-6.1.2-2.7.2-4.9.3-6.9.3-35.3 1.4-66.4 14.3-93.5 38.7-19.1 17.3-33.9 41.4-44.5 72.1-10.7 30.6-15.9 63.7-15.8 99.2.1 14.2 1.3 30.1 3.9 47.6 5.8 39.6 19.7 73.9 41.3 102.4s49 48.7 82.2 60.4m386.5-14.4c11.8 4.2 26.2 6.5 43.2 7.1 20 .7 36.2-1 48.7-4.6 15.8-4.6 30.5-13.5 43.9-26.8 13.4-13.2 19.9-25.3 19.5-36.2-.3-6.6-3.4-12.6-9.4-18-6-5.5-12.6-8.3-19.8-8.6-8.8-.3-17.3 5.2-25.7 15.4-7.5 9.1-15.7 15.1-23.4 17.9-7.6 2.8-18.8 3.9-33.3 3.5-26.7-.9-52.6-15-77.5-42.2-13.9-15.1-23.4-30-28.3-44.8-5-14.8-7.8-36.9-8.6-66.2-.1-4-.1-6-.2-9.9-.6-25.1.8-44.1 4.3-57s11.7-26.9 22.7-41.6c15.4-20.5 33.1-31.6 53.8-30.9 4.3.1 7.6.5 10 1 12.5 2.3 22.9 6.3 31.3 12 8.3 5.8 18.3 15.9 29.6 30.5 12 15.4 20.8 25.5 26.1 28.6 4.6 2.7 9.5 3.9 13.8 4.1 8.2.3 15.3-2.3 21.4-7.7 6-5.4 8.9-12.4 8.6-20.9-.3-7.6-7.3-20.6-21.1-39.1s-27-32.3-39.7-41.2c-25-18.4-52.9-28.2-84-29.2-16.7-.5-32.4 2.3-47 8.5-29.7 13.3-54.4 40.1-73.3 80.1-15.7 32.9-23 67.1-22.3 102.1.4 16.5 2.3 34.8 5.6 54.7 5.6 34 20.7 66.2 45.4 96.4s53.3 51.1 85.7 63m353 14.2c11.9 4.4 26.3 7 43.3 7.9 19.9 1 36.2-.3 48.6-3.8 15.6-4.3 30.2-12.9 43.4-25.9 13.1-13 19.4-25 18.8-35.9-.3-6.6-3.5-12.7-9.6-18.2-6-5.6-12.7-8.5-20-8.9-8.7-.5-17.1 4.8-25.3 14.9-7.4 9-15.5 14.8-23.1 17.5s-18.7 3.6-33.2 2.9c-26.7-1.4-52.8-15.9-78.1-43.6-14.2-15.3-23.9-30.4-29-45.3-5.2-14.9-8.4-37-9.6-66.4-.2-4-.3-5.9-.4-9.9-1-25.1.1-44.1 3.4-56.9 3.3-12.9 11.2-26.7 22-41.2 15-20.2 32.6-31 53.2-30 4.3.2 7.7.7 10.1 1.2 12.5 2.6 23 6.8 31.4 12.6 8.4 5.9 18.5 16.3 30.1 31 12.2 15.7 21.2 25.9 26.5 29.1 4.6 2.8 9.6 4.1 13.9 4.3 8.1.5 15.2-1.9 21.1-7.3 6-5.3 8.8-12.2 8.3-20.7-.4-7.6-7.6-20.8-21.7-39.5-14-18.8-27.5-32.8-40.3-42q-37.8-28.2-84.3-30.6c-16.7-.8-32.3 1.7-46.8 7.6-29.5 12.8-53.7 39.1-72 78.8-15.1 32.7-21.9 66.8-20.6 101.8.6 16.5 2.8 34.8 6.4 54.7 6.1 34.2 21.7 66.6 46.9 97.3 25.2 30.6 54.1 52.1 86.6 64.5m409.8-7.4c-17.6 2.5-32.1 3.5-43.3 2.7q-36.45-2.4-70.5-66.9c-13.5-25.3-21.4-59.3-23.8-101.8-1.4-24.1.5-46.2 5.6-66.1 4.7-18.5 12.2-35.1 22.6-49.8 10.3-14.6 22-24.1 33.7-29.2 9.6-4.1 21.7-6.3 36.1-5.3 26.3 1.8 48.8 11.8 67.5 28.1 14.1 12.4 27.9 32.8 40.1 61.2 12.1 28.5 21.1 60.6 26.8 96.3 1.4 7.2 2.6 16.9 3.4 29.2 1.7 26-5.7 47.8-22.4 65.4-10.3 11.5-21 19.8-32 24.9s-25.6 8.8-43.8 11.3m-39.8 61c1 .1 2.9.3 5.9.8 2.9.4 5.1.7 6.6.8 40.8 2.8 74.4-2.6 100.6-16.2 12.1-6.2 26.6-17.8 43.3-34.7 16.7-16.8 27.1-30.3 31.2-40.4 8.7-21 11.8-48.4 9.5-82-2.7-38.9-11.8-78.7-27.2-119.3-15.5-40.6-34.2-72-56.1-94.5-15.3-15.7-33.9-28.5-55.9-38.1-21.9-9.6-43.9-15.1-65.8-16.6q-31.5-2.25-53.1 6.3c-43.7 16.9-74.9 58.2-93.9 123.6-4.8 16.2-6.7 35.7-5.5 58.5.4 7.1.6 10.6 1 17.8 1.8 34.5 5.2 59.2 9 73.5 4.5 16.8 12.9 37.2 26 60s25.6 40.2 37.4 52.3c27.2 27.7 56.2 43.7 87 48.2" style="fill:#100f0d;fill-opacity:1;fill-rule:nonzero;stroke:none" transform="matrix(.01436 0 0 -.01436 -328.75 229.286)"/></svg>