<svg xmlns="http://www.w3.org/2000/svg" xml:space="preserve" width="200mm" height="200mm" viewBox="0 0 200 200"><path d="M14196.8 40649.3c-278.6 0-448.4 53.2-572.1 126.8-21.7 13.1-41.7 26.4-60.2 39.7 6.1 70 8.1 141.3 10.2 214 .6 24.3 1.3 48.8 2.2 73.5 2.9 84.4 6.7 170.8 10.8 256.7 5.9-2.4 12-4.5 18.4-6.1 144.8-36.6 421.1-95.9 689.8-95.9 13.7 0 27.4.1 41 .4 235.4 5.5 400.1 30.8 496.8 51.1 9.7 2 19 5.2 27.8 9.3 1.4-53.2 2.5-105.9 3.2-157.7.5-37.5.4-74.8.3-112-.3-104.3-.6-210.5 12.9-314.8-178.5-59.5-425.8-81.8-651.5-84.8-10-.1-19.9-.2-29.6-.2" style="fill:#42714b;fill-opacity:1;fill-rule:nonzero;stroke:none" transform="matrix(.0145 0 0 -.0145 -105.877 648.927)"/><path d="M14986.5 40459.4c-48.2 90.9-72.4 185.8-84.5 283.3-179.9-65.9-439.6-90.1-675.6-93.2-366.6-4.8-551.1 79.5-685.5 184.1-11.4-145.4-39-283.8-120.1-415.2-129.6-209.8-563.3-436.2-707.5-631.2-337.6-456.1-290.7-1026.5-284.2-1581.7 10.8-916.5 299-4882.1 305.4-5093.6 8.9-295.9-77.5-477.2-88.2-776.5-3.2-88.8 0-107.3 3.5-168.2 31.2-534 946.1-631.7 1312.5-654.3 310.9-19.1 625.7 10.4 935.3 44.4 243.2 26.7 590.7 218.6 796.6 403.4 61.3 55.1 80.5 196.9 86.6 343 0 16.8.1 43.4.2 81.8.7 264.2-93.4 455.1-88.2 726.3 4.5 235.7 249.9 4333.9 275.6 5249.6 16.1 571.5 16.4 1101.1-358.5 1542-140.7 165.6-516.1 354.1-623.4 556" style="fill:#371516;fill-opacity:1;fill-rule:nonzero;stroke:none" transform="matrix(.0145 0 0 -.0145 -105.877 648.927)"/><path d="M15784.1 32603.1c-.1.7-.2 1.3-.4 2 .1 7.8.2 12.2.3 12.2 0 0 .1-4.4.1-14.2" style="fill:#946e73;fill-opacity:1;fill-rule:nonzero;stroke:none" transform="matrix(.0145 0 0 -.0145 -105.877 648.927)"/><path d="m13647.8 32646.9-581.2 154.3s-93.1 1713.2-170.1 3284.2c.1-.1.1-.1.1-.2 39.1-54.2 100.6-95.1 174.5-112 160.7-36.8 316.2-66.5 467.8-89.4 45.3-1584.1 108.9-3236.9 108.9-3236.9m-851.1 5926.9c16.2 758.8 634.9 1405.2 634.9 1405.2 8.4 1.2 16.5 1.8 24.2 1.8 291.8 0 135.9-831.5 56.9-1267.6-4.5-24.7-8.1-65-10.8-119.4-152.5 12.3-307.6 28-466.3 46.9-13.4 1.6-26.6 2.3-39.7 2.3-76.4 0-146.6-26.1-199.1-69.1-.1 0-.1 0-.1-.1" style="fill:#643035;fill-opacity:1;fill-rule:nonzero;stroke:none" transform="matrix(.0145 0 0 -.0145 -105.877 648.927)"/><path d="M15317.4 33061.8h-1.6c-44.7 2.1-79.3 45.2-77.1 96.3l334.2 5916.7c2.1 51.1 40.3 90.2 84.8 88.7 44.8-2 79.3-45.2 77.2-96.3l-334.2-5916.6c-2.1-50.5-39.2-89.9-83.3-88.8" style="fill:#865c61;fill-opacity:1;fill-rule:nonzero;stroke:none" transform="matrix(.0145 0 0 -.0145 -105.877 648.927)"/><path d="M13476.6 31664.1s-211.7 25.8-306.3 46.3c-69.6 15.2-205 77.6-271.8 109.6-13.7 10.1-26.7 20.5-39.1 31.2-.2 44-1.4 207.7-9 481.8-9 324.2 54.1 519.7 54.1 519.7l243.2-77.2 351.5-92.6z" style="fill:#643035;fill-opacity:1;fill-rule:nonzero;stroke:none" transform="matrix(.0145 0 0 -.0145 -105.877 648.927)"/><path d="M14322.1 32577.3c-452.3 0-989 84-1447.5 272.6-12.7 5.3-18.8 19.9-13.6 32.7 5.3 12.7 19.9 18.8 32.7 13.6 776.8-319.7 1778.9-335.8 2192.4-150.3 12.5 5.7 27.4.1 33-12.6 5.7-12.6 0-27.3-12.6-33-176.9-79.4-458.8-123-784.4-123" style="fill:#231f20;fill-opacity:1;fill-rule:nonzero;stroke:none" transform="matrix(.0145 0 0 -.0145 -105.877 648.927)"/><path d="M15498.1 31918.6c-106.1 0 27.1 802.5 27.3 804.5 0 0 105.9 0 114.9-277.8 9-277.9-15.7-391.1-15.7-391.1s-36.1-102.9-117.2-133.8q-4.95-1.8-9.3-1.8" style="fill:#643035;fill-opacity:1;fill-rule:nonzero;stroke:none" transform="matrix(.0145 0 0 -.0145 -105.877 648.927)"/><path d="M13683 43097.7c-79.3-195.1-78.1-394.6-69.2-598.9 14.1-326.1-2.8-667-19.1-996.7-6.6-131.5-13.3-267.5-17.8-398.8-.9-24.7-1.6-49.2-2.2-73.5-6.3-220.8-12.1-429.4-132.6-624.5-71.5-115.8-229.6-234.4-382.5-349-134.2-100.7-261-195.8-326.2-283.9-300.5-406.1-291-915.5-281.8-1408.2.9-52.9 1.9-105.7 2.5-158.4 7.8-656.9 156.3-2854.7 245.1-4167.8 33.9-502.3 58.4-865.1 60.3-925.4 4.4-148.4-20.7-269.6-45-386.8-25.5-123.6-49.7-240.3-43.2-389.3l.7-17.3c4.5-104.7 4.7-108.8 12.8-165.4 50.1-354.5 492.4-567.4 1279.1-615.9 311.6-19.2 630.8 11.3 931 44.3 244 26.7 594.5 204.4 781.4 396 66.9 68.5 86.6 133.6 79.7 406.7-3.1 121.3-23.8 229.3-43.8 333.8-23.2 121.2-47.2 246.5-44.4 393.5 1.6 87.4 36.3 703.1 80.1 1482.6 75.7 1346 179.3 3189.4 195.5 3767.3 14.2 503.8 30.2 1074.9-352.5 1525.1-56.6 66.5-153.7 137.9-256.5 213.5-149.7 110-304.6 223.8-369.9 347-100.6 189.4-100.1 398.8-99.5 601.4.1 37.2.2 74.5-.3 112-2.3 176.2-9.8 362.9-17.2 543.5-12.1 299-24.6 608.1-15 897.6 5.4 164.8-19.4 325.7-75.9 491.6-125.7 38.4-934.9 52.7-1073.6 3.9m482.8-11615.8c-68.5 0-136.9 1.9-205 6.1-312.1 19.2-563 61.7-766.9 129.8-337 112.5-524.9 290.5-558.7 529-8.3 59-8.6 65.3-13.1 170.2l-.8 17.3c-6.8 155.2 19.2 280.5 44.3 401.7 23.7 114.3 48.2 232.6 43.9 375.1-1.8 59.3-26.3 421.8-60.2 923.5-88.8 1313.7-237.4 3512.3-245.2 4170.6-.6 52.6-1.6 105.3-2.6 158.1-9.3 501-18.9 1019.1 291.7 1438.8 69.6 94 199.2 191.3 336.4 294.2 149.2 111.8 303.4 227.5 369.9 335.2 113.5 183.8 119.1 385.8 125.2 599.7.7 24.4 1.4 49 2.2 73.8 4.5 131.7 11.3 267.9 17.8 399.6 16.3 328.5 33.1 668.2 19.1 992-8.9 205-10.2 422.5 77 630l3.7 8.7 8.6 4.1c130 62.3 1032.5 43.9 1134-3.8l9.5-4.4 3.5-9.9c60.3-173.3 88-348.5 82.3-520.7-9.5-287.7 3-595.9 15.1-894 7.3-180.9 14.9-367.9 17.2-544.9.5-37.7.4-75.3.3-112.8-.6-205.4-1.1-399.4 93.6-577.8 60.1-113 210.2-223.4 355.4-330.1 105.3-77.4 204.6-150.4 265-221.4 395.2-464.8 378.8-1046.1 364.4-1558.9-16.2-578.6-119.9-2422.4-195.6-3768.7-43.8-779-78.4-1394.3-80-1480.7-2.7-141.9 19.7-259.1 43.5-383.2 20.4-106.4 41.5-216.5 44.7-341.9 6.8-271.6-11.6-358.5-93.9-442.9-193.8-198.7-557.9-383-811.7-410.9-237.1-26-486-50.5-734.6-50.5" style="fill:#231f20;fill-opacity:1;fill-rule:nonzero;stroke:none" transform="matrix(.0145 0 0 -.0145 -105.877 648.927)"/><path d="m15708.1 38338.7-131.6-2162.8c-1-16.3-3.7-32.2-8-47.6v-.1c-21.9-78.3-84.1-143.1-167.9-175.6-16.3-6.3-33.5-11.5-51.3-15.1-610-126.4-1177.8-149.2-1810.4-53.7-151.6 22.9-307.1 52.6-467.8 89.4-73.9 16.9-135.4 57.8-174.5 112-26.2 36.2-42.4 78.4-45.4 123.3l-148 2160c-5.5 81.5 31.8 155 93.6 205.4 61.5 50.3 147.3 77.6 238.8 66.8 158.7-18.9 313.8-34.6 466.3-46.9 646.5-52.7 1247.1-47 1881 16.2 35.2 3.5 69.5 1.4 101.7-5.7 63.6-13.5 119.4-45.7 159.4-89.7 43.4-47.6 68.2-109.1 64.1-175.9" style="fill:#ecf9f7;fill-opacity:1;fill-rule:nonzero;stroke:none" transform="matrix(.0145 0 0 -.0145 -105.877 648.927)"/><path d="M13538.9 35883.8c-151.6 22.9-307.1 52.6-467.8 89.4-73.9 16.9-135.4 57.8-174.5 112-54.2 1105-100.2 2139.6-100.2 2458.3 0 10.2.1 20.3.4 30.4 52.5 43 122.7 69.1 199.1 69.1 13.1 0 26.3-.7 39.7-2.3 158.7-18.9 313.8-34.6 466.3-46.9-20-396.6 3.5-1534.4 37-2710" style="fill:#f7fcfc;fill-opacity:1;fill-rule:nonzero;stroke:none" transform="matrix(.0145 0 0 -.0145 -105.877 648.927)"/><path d="m15694.1 38452-125.2-2325.7v-.1c-23.9-77.7-87.6-141-172.2-171.4l149.5 2648.8c63.3-15.1 109-106.5 147.9-151.6" style="fill:#fff;fill-opacity:1;fill-rule:nonzero;stroke:none" transform="matrix(.0145 0 0 -.0145 -105.877 648.927)"/><path d="M13088.8 37231.2c2.8-3 4.8-9.3 6-18.8 1.1-9.6 2.9-34.9 5.2-76.1 3.3-57.6 6.3-96.9 8.8-117.8 4.4-29.4 11.3-58.8 20.8-88.2 9.5-29.5 16.8-44.5 22-45l.5.2.4.2c4.6 2.6 14.4 20.8 29.4 54.7q22.5 50.85 42.9 110.7c10.5 30.6 22.9 62.5 37.2 95.5s23.6 51.2 27.9 54.5c3.7 2.7 7.7 3.8 11.9 3.4q6-.6 11.4-6c3.7-3.7 5.2-8.3 4.6-14.1-.8-7.7-8.8-29.5-24.2-65.5-14.9-34.2-26.1-63.1-33.8-86.6-7.6-23.3-18.3-51.8-32.2-85.7-13.9-33.8-24.3-56.6-31-68.2-13-22.1-26-34.3-38.8-36.7-3.8-.5-7.3-.6-10.7-.3-10 1-19.9 7.6-29.4 19.6-11.8 14.2-22.8 41-32.9 80.5-7.8 29.5-13.2 56.3-16.3 80.7-3.1 24.3-5.3 60.3-6.6 107.8-.3 5.9-.6 15.2-.9 28-.2 12.8-.4 21.1-.7 24.8-.7 17-.8 28.4-.2 34.2.9 8.3 3.4 13.8 7.7 16.6s8 4 11 3.7c3.1-.3 6.4-2.3 10-6.1m315-44.5c3.6 1.8 11.9 2 25 .7 14.9-1.6 37-4.5 66.1-8.8 23.7-3.4 37.8-5.6 42.5-6.7s8.3-3.5 11-7.1c3.9-4.5 5.5-9.3 5-14.7-.6-5.3-3.4-9.9-8.4-13.6-3.6-2.7-8.1-3.8-13.2-3.3-4.3.5-7.8 1-10.5 1.6-4.6.7-23 3.6-55.5 8.5l-39.1 5.9-6.4-70c-4.2-46.7-6.1-70.4-5.5-71l1.3-.2c3.1-.3 9.9-.2 20.4.2 14.2.4 27.4-.1 39.6-1.3l5.9-.6c12.2-1.6 19.8-3 22.7-4 3-1.1 5.8-3.5 8.5-7.1 3.2-5 4.6-9.5 4.1-13.7-.4-4.1-2.6-7.8-6.7-11-3.3-2.8-6.6-4.2-9.9-4.3-3.2-.1-12 .4-26.4 1.6-20.1 2.1-35.9 2.6-47.4 1.7l-17.6-.9-7-62.2-1.9-18.7c-3.1-29.3-4.1-45.2-3.1-47.7 1.3-2 9.4-3.8 24.4-5.4l27.8-2.9c8.3-.5 18.1-1.4 29.3-2.5 14-1.5 22.9-4.1 26.5-7.9 3.5-4.7 5-9.8 4.4-15.5-.6-5.6-2.7-9.6-6.4-12-4.6-3.2-11.4-5-20.4-5.3-8.9-.3-25.3.7-49.1 2.8l-20.6 2.2q-19.2 1.95-25.5 3.6c-4.2 1-9.2 2.9-14.9 5.7-5.7 2.7-10.2 7.5-13.5 14.3-3.8 7.8-5.5 18.5-5 32l16.9 153c9.5 88.6 15.6 140.6 18.3 155.9 2.6 15.2 7.2 24.7 13.8 28.3zm307.5-79c-9.7 1.8-16.8 2.7-21 2.8-4.6.1-11.1-.5-19.4-1.9-20-3.2-30.9-6.3-32.8-9.4-1-1.5-1.6-9.3-1.9-23.4-1.2-50.5 0-101.4 3.5-152.6l1-15.2 10.6-.3c7.4-.1 16.9 1 28.6 3.5 40.9 7.7 71.6 19.4 92 35.2s31.7 36.7 33.8 62.7l.1 6.9c.6 24.5-7.2 44.6-23.2 60.3-16.1 15.7-39.8 26.2-71.3 31.4m-59.9 34.9c10.8 2.5 21.9 3.7 33.2 3.4 1.5 0 4.1-.1 7.8-.4 3.7-.2 6.6-.4 8.7-.4 47.5-2.3 84-16 109.4-41 22.2-21.4 34.1-48.3 35.5-80.8.2-2.5.3-6.3.2-11.5q-.6-26.25-12.6-50.7c-9.9-19.7-23.3-35.8-39.9-48.4-16.7-12.5-39.1-22.8-67.1-31.1l-24.1-7.3 18.5-13.3c58-41.1 89.6-64.8 95-71 2.7-3.8 4-7.9 3.9-12.5s-1.4-8.7-4-12.3c-2.5-3.7-5.9-5.9-10.2-6.7-1.3-.3-2.8-.4-4.6-.4q-4.2.15-12.3 5.4c-5.5 3.5-17.2 11.8-35.3 25.1q-89.55 65.4-101.4 71.7l-10.5 5.2-1.3-58.8c-.5-25.4-1.6-41-3.1-46.8s-5.3-9.4-11.5-10.8c-.9-.2-2.4-.4-4.6-.3-7.6.2-13.2 3.2-16.8 9.1-2.1 3.4-3.1 33.5-3 90.2-.9 59.7-1.6 98.2-2.1 115.4-1.2 41.4-1.3 87-.2 137 .3 11 .5 17.3.9 18.8.3 2.1 6.6 6 18.6 11.5 12.1 5.6 23.1 9.5 32.9 11.7m531.3-42.3c4.3 3.1 9.1 4.6 14.3 4.6 9.1 0 16.8-5 23.2-15.1 9.6-15.7 14.5-67.3 14.5-154.9 0-12.9-.3-38.6-.9-77.2-.9-49-1.7-78.8-2.3-89.2q-.9-15.6-4.5-20.7c-3.7-5.2-9.1-7.8-16.4-7.8-5.1 0-9.1 1.6-11.8 4.6-2.1 2.2-3.3 10-3.6 23.5s-.5 56-.5 127.7q0 146.25-2.7 152.1c-.7 1.9-1.3 2.8-1.9 2.8-1.5 0-8-8.7-19.3-26.2-6.7-11-22.3-33.9-46.9-68.5-4.6-6.4-9.6-13.7-15.1-21.8s-10.8-15.9-15.9-23.2c-5-7.4-8.3-12.1-9.9-14.3q-15.6-23.4-24.3-23.4c-2.8 0-6 .9-9.7 2.8-6.7 3-12.4 7.4-17 13.1q-6.9 8.4-20.7 34.2c-16.8 31.2-32.7 59.1-47.5 83.6-14.9 24.5-23.5 36.8-26 36.8h-.4c-2.2-2.1-4-24.1-5.5-65.7-1.6-41.7-2.3-87.8-2.3-138.4l-.5-102.9-5.5-4.1c-3.7-2.8-6.9-4.2-9.7-4.2-3.1 0-6.7 1.7-11 5.1-2.8 2.1-4.6 4.7-5.5 7.6s-1.9 8.8-2.8 17.7c-2.4 28.5-3.7 68.7-3.7 120.8 0 78.8 2.2 135.8 6.5 171 2.1 17.8 5.3 30.4 9.6 37.9s10.6 11.3 18.9 11.3c6.4 0 11.7-1.1 16-3.3 4-2.1 10.4-7.9 19.3-17.4s15.6-17.6 20.2-24.4c17.7-29.1 39.7-67.2 66.1-114.4l9.1-16.5 4.2 5.5c4 4.9 15.5 21.9 34.7 51.2s32.8 50.5 40.8 63.7c18.4 30 33.9 48.7 46.4 56m293.4-30.1c-4.1 2.3-14.1 3.6-30.1 4-1.8-.1-4.1-.1-6.8-.1-2.8.1-4.6.1-5.6 0-7.6-.2-16-2.9-25-7.8q-34.65-18.75-51.6-95.1c-2.9-13-4.6-23-5.1-30.1-.5-7-.5-20-.1-39 .9-23.2 2.6-40.7 5.2-52.4s7.5-23.7 14.7-35.9c7.5-13.5 17.1-23.8 28.7-30.9 11.6-7 24-10.3 37.2-9.8 11 .4 21.3 3.2 30.9 8.5 20.1 10.8 36.9 27.1 50.2 48.7 10.1 16.6 17 33.8 20.8 51.7s5.1 40.5 4.1 67.7l-.5 14.7c-.6 13.7-3.3 26.6-8.4 38.7-13 28.9-32.6 51.3-58.6 67.1m-57.6 39.3c3.9 1 15.4 2.2 34.4 3.5l7.3.3c9.8.4 19.7-1.7 29.7-6.2 9.6-4.3 22.1-13.4 37.3-27.6q15.3-13.65 21.3-21.3c4-5 8.8-13 14.5-23.8 7.9-15.3 13.1-27.6 15.6-36.7s4.1-22.2 4.7-39.4l.4-9.6c.7-35.8-2.5-66-9.5-90.5-7.1-24.5-19.8-48.6-38.2-72.2q-14.1-18.45-36.9-33.6c-15.3-10.1-29.2-16.1-41.7-18.1-6.1-.9-10.8-1.4-14.2-1.5q-48.15-1.8-81.6 29.1c-7 6.5-14.7 16.7-23.2 30.7-8.5 13.9-14.5 26.6-18 38.2-3.8 12.4-6.3 33.3-7.4 62.7-.6 16.5-.5 29.2.4 38.2q1.8 14.7 2.4 33.6c.4 6.2 2.8 16.8 7.1 32s8.8 27.5 13.4 36.9c4.2 9.3 9.7 19 16.3 29.1 6.7 10 12.4 17.3 17.2 21.8 5 4.8 12.5 9.6 22.4 14.4s18.7 8.1 26.3 10m216.1 33q6.15 3.3 6.6 3.3l8.1-3c5.7-2.3 8.8-6.7 9.4-13.1.3-4-.4-11.4-2-22.3-7.2-47-8.7-98.1-4.3-153.4q.3-2.7.9-7.8c.4-3.3.7-5.8.8-7.3 4-34.4 12.9-64 26.9-88.7q16.65-29.55 38.1-39.3c6-2.6 10.9-4.1 14.6-4.6q5.55-.75 21.6.6c15.5 1.2 27.1 4.1 34.7 8.5 7.6 4.5 18 14.4 31.2 29.9 19.6 23.1 30.7 45.8 33.2 68.2 2.9 25.4 2.3 63-1.7 112.8-1.8 22.6-4.4 45.3-7.7 68-3.6 21.6-5.6 35.2-6.1 41.1-.5 6.7.8 11.8 3.9 15.5 3.5 4.6 7.9 7.1 13 7.5 4.9.4 9.4-1.4 13.7-5.4 4.2-4 7.1-9.4 8.6-16.4 6.1-27.4 10.9-63 14.4-106.7 4.3-53.4 4.8-93.7 1.4-120.7-3.5-28.8-16.2-57.4-38.2-85.8-22-28.3-45.3-46.1-69.9-53.3q-12.15-3.3-24-4.2c-23.5-1.9-43.5 1-60.1 8.6-9.2 4.1-18.9 11-29 20.7-10.2 9.6-18.4 20-24.9 31.2-19.6 34.1-31.1 72.6-34.5 115.7-2 25-2 57.2.2 96.4 3.5 64.5 10.6 99.2 21.1 104m414.5 52.4c9.8.9 20.4 1.8 31.9 2.5 11.4.8 20.5 1.5 27 2 6.6.5 10.5.7 11.7.8h1.4c4.3.1 8.6-.8 13-2.9 4.3-2 7.1-4.3 8.4-6.7 1-2.2 1.6-5.2 1.7-9.3q.15-7.8-2.4-11.7c-2.7-3.8-6.5-6.4-11.5-7.7-5.1-1.4-13.7-2.3-25.9-2.6-18.4-.6-31.9-1.4-40.4-2.6l-15.6-1.8 3.5-89.1.8-29.8c.6-21.8.9-40.3.9-55.6 0-15.4-.2-36.4-.5-63.1-.3-26.6-.6-46.9-.8-60.6-.4-20-.8-32.5-1.5-37.6-.6-5-2.2-9-4.9-11.8-3.9-4.1-8.6-6.3-14.1-6.4-5.5-.2-10 1.4-13.4 4.7-2.6 2.3-4.2 5.1-4.9 8.1q-1.05 4.5-1.5 22.5c-.6 18.7-.3 48.4.6 89.2q3.15 68.1 0 177.9c-.8 27.3-1.6 42.3-2.6 45l-2.5 6.4-19.3-2.4c-10.7-1.6-21.2-2.5-31.6-2.8-16.2-.4-26.9 1-31.9 4.2-4.6 3.3-7.1 8-7.2 14.2-.2 4.7 1.2 8.4 4.2 11.3 2.7 2.6 11.2 4.7 25.4 6.5s48.2 4.9 102 9.2m148 6c3.3 4.8 7.8 7.4 13.3 7.8 7.9.5 13.7-3.3 17.3-11.4 1.4-3.2 3.5-19.4 6.1-48.4q4.05-43.5 7.8-84c2.5-27 4.3-40.4 5.2-40.4.9.1 8.3 2.2 22.1 6.5 12.4 3.9 30.3 8.4 53.7 13.4q35.25 7.65 47.1 8.4l2.8.2.9-.4h1c1.5.1 2.4 1.9 2.6 5.3.3 3.4.2 12.7-.2 28.1-.4 25.1-1.1 45.6-2.2 61.5-1.6 25.4-1.4 42.1.7 50.3 2 8.1 7.2 12.4 15.5 13 8.8.5 14.9-3.4 18.2-11.8.7-1.7 1.5-8.9 2.3-21.4.5-7.7 1.2-22.8 2.1-45.5 1.7-45.3 4.8-101.3 9.1-168 4-71.2 5.6-108.9 4.6-113-2.5-8.4-7.9-13.1-16.1-13.9l-2.8-.2c-8.8-.6-14.4 3.8-16.7 13.2s-5 37.4-8 84.2l-5.4 82.1-8.6-1.9q-1.8-.6-8.7-1.8c-4.5-.7-10.2-1.7-17-2.9-6.9-1.2-13-2.5-18.5-3.8-25.7-5.3-44.9-10.1-57.5-14.3l-22.1-7 .4-34c.4-30.4.5-50.6.2-60.8-.4-12.3-.9-20.1-1.4-23.3-.6-3.3-2.3-6.3-5.2-8.9-4.1-3.6-8.2-5.6-12.5-5.9-9.8-.6-16.2 4-19.4 13.9-.3.7-.6 3.5-1 8.7-.6 9.5-.8 20.2-.7 32.2.4 64.5-1.8 132.8-6.5 205-.2 4-.6 9.3-1.2 16s-1 11.5-1.2 14.2c-1 10.7-1.9 22.3-2.7 34.9-.8 12.2 0 20.2 2.6 24.1" style="fill:#100f0d;fill-opacity:1;fill-rule:nonzero;stroke:none" transform="matrix(.0145 0 0 -.0145 -105.877 648.927)"/><path d="M15037.7 37769c0-273.7-381.3-495.6-851.5-495.6-470.3 0-851.5 221.9-851.5 495.6s381.2 495.6 851.5 495.6c470.2 0 851.5-221.9 851.5-495.6" style="fill:#c03222;fill-opacity:1;fill-rule:nonzero;stroke:none" transform="matrix(.0145 0 0 -.0145 -105.877 648.927)"/><path d="M13630.3 38006.9q15.3 1.5 35.7-1.8 24.9-4.05 38.7-11.7c8.8-5.4 16.9-13.2 24.5-23.4 7.5-10.2 12.5-20.2 14.9-29.9 1.3-4.6 1.9-13.1 1.9-25.6s-.5-22-1.6-28.5c-.3-2.3-.7-3.7-1.2-4.3-4-10.7-10.9-15.3-20.7-13.7-4.5.7-8.4 3.2-11.5 7.4-3.2 4.1-4.8 9.2-4.8 15.2.1 19.7-1 33.8-3.5 42.3-2.5 8.6-7.3 15.6-14.4 21.1-6 4-13.9 6.7-23.6 8.3-12.1 1.9-24.4 1.7-36.9-.8-12.6-2.5-21.5-6.8-26.9-12.9-5.5-7.2-8.9-15.3-10.4-24.4-1-6.5-.8-13.2.8-20.1 4.3-17 25.7-48.3 64.4-93.9 30.3-35.5 48.9-62.2 55.7-80 7-18.7 8.8-38.2 5.6-58.4-4.5-27.9-17-49.9-37.6-65.9-14.6-12-33.4-19.3-56.5-22-15.2-1.2-27.9-1-37.9.6-22.2 3.6-40.2 15.5-54.3 35.8-17.6 25.5-24 53.3-19.1 83.5 2.7 16.6 8.9 31.6 18.7 45 10.6 14 20.1 20.3 28.6 19 4.5-.8 8.8-3.9 12.7-9.3q6-8.25 4.8-15.3c-.7-4.7-4-10.6-9.8-17.7-5.9-7.7-9.8-17.1-11.5-28.1-2.2-13.7-.8-26.8 4.2-39.2q7.5-18.75 23.1-27.3c1.2-.8 4.2-1.6 9.1-2.4 17.2-2.8 32.2-1.9 45 2.8 20.8 6.9 33.1 22.6 37 47 2.2 15.7.3 29.6-5.7 42-6.1 12.3-20.9 32.1-44.5 59.6-27.8 32.2-47.2 57.7-58.2 76.6-10.9 19-17 37-18.3 54.2-.7 7.8-.7 14 0 18.5.3 2 1.8 7.3 4.5 15.8 6.5 19.3 16.1 33.8 28.8 43.4s29.4 15.8 50.2 18.5m165.1-52.8c3.9 3.5 8.2 5.2 13.2 4.9 5.9-.3 10.7-3.2 14.3-8.5 2.2-2.9 3.1-6.9 2.8-12-.4-7.6-2.5-22.2-6.4-43.9-7.1-40.5-12.3-88.2-15.3-143.3-1.9-34.2-2.1-59-.7-74.6q6.3-73.95 27.9-86.4c5.1-2.7 10-4.2 14.6-4.4 5.9-.4 10.7.7 14.5 3.3 7.9 5 15.3 18.6 22.3 40.7s17.9 67 32.9 134.8c7.8 34.2 12.8 54.4 14.8 60.7 1.9 6.2 4.9 11.1 8.7 14.7 6.2 5.8 12 8.6 17.2 8.3 11.2-.6 17.3-10.7 18.2-30.3 2.7-52.4 6.2-94.8 10.7-127.3 8.7-56.7 26.5-94.1 53.2-112l10.9-7.8 6.7 5.3c8.2 5.7 16.4 19.7 24.6 41.9 8.1 22.2 14.1 46.9 17.9 74.1 2.7 18 4.9 42.5 6.6 73.2 1.8 32.9 2.7 64.4 2.7 94.6.2 19.9.6 36.8 1.4 50.9.4 7.5.8 11.6 1.1 12.2.9 3.4 3.4 6.2 7.7 8.4 4.2 2.1 8.5 3.1 12.7 2.9 1.7-.1 3.5-.6 5.4-1.4 5.8-2.7 9.6-7.3 11.4-13.7 1.8-6.5 2.8-19.1 3.1-38 .5-20.3-.7-57.3-3.7-111-2.9-52.7-5.6-86-8-99.9-4.1-25.2-10.6-49.2-19.6-72.2-9-23.1-18.4-39.8-28.2-50.2-5.7-6.2-12.8-11.2-21.4-15s-16.2-5.6-22.8-5.2l-3.5.2c-18.5 3.8-36.6 16.3-54.2 37.5-20.5 23.8-34.1 54.9-40.9 93.3-2.7 16.6-4.5 25-5.5 25-1.3.1-5.8-14.2-13.3-43-6.6-24.3-12.4-42.1-17.5-53.3s-11.6-20.5-19.6-28c-14.3-13.3-30.4-19.4-48.5-18.4-9.2.5-18.2 2.7-26.9 6.6-7 3.2-14.4 8.9-22 17.2s-13.2 16.5-16.7 24.6c-15.5 36.2-21.2 89.4-17.4 159.5 2.6 45.8 9 95.9 19.2 150.2 6.1 32.6 11.3 50.9 15.4 54.8m407.8-29.1c3.6 2.3 12.4 3.6 26.6 3.9 16.1.3 40 .1 71.6-.5q38.55-.75 46.2-1.5c5.1-.5 9.3-2.5 12.7-6 4.7-4.1 7.1-9 7.3-14.6.1-5.6-2.3-10.7-7.1-15.3-3.6-3.3-8.1-5-13.7-5.1q-6.9-.15-11.4.3c-4.9.2-25 .7-60.3 1.7l-42.5 1 2.6-73.7c1.7-49.1 2.9-74 3.6-74.6h1.5c3.3.1 10.5 1.1 21.7 2.9 15.1 2.2 29.2 3.5 42.4 3.7l6.4.1c13.1 0 21.4-.4 24.7-1.1 3.3-.8 6.6-2.9 10-6.3 4.1-4.8 6.1-9.3 6.2-13.7.1-4.3-1.8-8.4-5.6-12.4-3.2-3.2-6.6-5.2-10-5.7-3.5-.6-12.9-1.1-28.4-1.8-21.7-.4-38.6-1.9-50.8-4.4l-18.7-3.2 1-65.6.4-19.7c.7-30.8 1.7-47.5 3.1-50.1 1.7-1.9 10.6-2.7 26.7-2.3l30.1.6c8.9.5 19.4.8 31.6 1.1 15.1.3 24.9-1.3 29.2-4.7 4.4-4.4 6.7-9.6 6.8-15.6.1-5.9-1.6-10.4-5.1-13.3-4.6-4-11.6-6.7-21.1-8.1-9.5-1.5-27.1-2.7-52.8-3.5l-22.2-.5c-13.8-.2-23-.1-27.6.4-4.7.6-10.2 1.9-16.7 4.1-6.4 2.1-11.9 6.5-16.3 13.1-5.1 7.6-8.3 18.5-9.6 32.6l-2.6 161.4c-1.7 93.5-2.1 148.3-1.3 164.6.8 16.2 4.4 26.6 10.9 31.3zm217.7 9.2c3.5 2.5 12.3 4.1 26.5 4.9 16.1.9 39.9 1.5 71.6 2 25.7.5 41.1.5 46.2.1 5.1-.3 9.4-2.2 12.9-5.5 4.9-4 7.5-8.7 7.8-14.4.3-5.6-1.8-10.8-6.5-15.5-3.4-3.5-7.9-5.3-13.5-5.6-4.6-.3-8.4-.3-11.4-.2-4.9.1-25-.1-60.3-.4l-42.5-.4 5.3-73.7c3.5-49.1 5.6-74 6.4-74.6l1.4.1q4.95.3 21.6 3.6c15 2.7 29.1 4.5 42.2 5.2l6.4.4c13.2.4 21.4.3 24.8-.4 3.3-.6 6.7-2.6 10.2-5.9 4.2-4.6 6.5-9.1 6.7-13.4.3-4.4-1.5-8.6-5.2-12.7-3.1-3.4-6.3-5.4-9.7-6.1-3.5-.6-12.9-1.6-28.3-2.7-21.7-1.2-38.6-3.3-50.6-6.2l-18.6-3.9 3.4-65.6 1.1-19.8c1.8-30.8 3.5-47.5 5-50 1.7-1.8 10.6-2.3 26.7-1.4l30.1 1.6c8.9.9 19.4 1.6 31.5 2.3 15.1.8 25-.4 29.4-3.7 4.6-4.3 7-9.4 7.4-15.3.3-6-1.2-10.5-4.7-13.6-4.4-4.1-11.3-7.1-20.7-8.9-9.5-1.8-27-3.6-52.6-5.3l-22.2-1.2c-13.8-.8-23.1-1-27.7-.6s-10.2 1.5-16.8 3.4c-6.5 1.9-12.1 6.1-16.8 12.7-5.3 7.4-9 18.2-10.8 32.2l-8.5 161.6c-5.1 93.5-7.6 148.4-7.4 164.7s3.5 26.9 9.8 31.7zm330.4 42.5c10.5 1 21.9 2.1 34.2 3.1q18.45 1.5 29.1 2.4c7 .6 11.2 1 12.5 1l1.5.1c4.6.2 9.3-.8 14-3 4.7-2.1 7.7-4.5 9.2-7.2 1.1-2.3 1.7-5.6 1.9-10 .2-5.7-.6-10-2.4-12.8-2.8-4.1-6.9-7-12.2-8.6-5.4-1.5-14.7-2.6-27.8-3.1-19.8-.8-34.2-1.9-43.4-3.3l-16.7-2.2 5.2-96.8 1.4-32.4c1.1-23.7 1.7-43.8 1.9-60.5.3-16.6.4-39.5.5-68.5.2-29 .2-51 .2-66 0-21.7-.4-35.3-.9-40.8q-.9-8.25-5.1-12.9c-4.1-4.5-9.1-6.9-15.1-7.2-5.9-.2-10.7 1.4-14.5 4.9-2.8 2.6-4.5 5.5-5.3 8.8s-1.5 11.5-2.1 24.5c-.9 20.3-1.1 52.6-.8 96.9 1.5 49.4.5 113.9-2.9 193.5-1.3 29.6-2.5 45.9-3.7 48.9l-2.7 6.8-20.7-2.8c-11.4-1.8-22.7-2.9-33.9-3.4-17.5-.7-28.9.7-34.3 4.1-5.1 3.5-7.8 8.6-8.1 15.4-.2 5 1.3 9.1 4.4 12.3 2.9 2.8 11.9 5.3 27.1 7.4 15.3 2.2 51.7 6 109.5 11.4" style="fill:#fff;fill-opacity:1;fill-rule:nonzero;stroke:none" transform="matrix(.0145 0 0 -.0145 -105.877 648.927)"/><path d="M12996.4 38618c-74.8 0-146.9-27.3-198.2-76.1-49.5-47.1-74.3-108.1-70-171.8l148-2159.9c6.9-101.3 87.5-186.7 200.5-212.6 812.4-185.9 1490.5-196.6 2267.5-35.7 115.8 24 201 112.6 207.3 215.6l131.7 2162.7c3.8 62.8-20.8 123-69.2 169.5-58.7 56.6-142 84.1-228.6 75.5-789.1-78.7-1514.7-69.2-2352.8 30.6-12.1 1.5-24.2 2.2-36.2 2.2m1303-2817.2c-399.3 0-801.8 49.2-1233.9 148.1-134.6 30.8-230.7 134.4-239.2 257.9l-148 2159.9c-5.4 78.8 25 153.9 85.4 211.4 70.3 66.9 173 99.5 274.8 87.4 834.3-99.4 1556.6-108.9 2341.9-30.6 101.3 10.1 198.9-22.4 268.3-89.1 59.1-56.9 89.1-131 84.4-208.6l-131.7-2162.8c-7.6-125.4-109.3-232.9-247.1-261.5-360.6-74.6-706.5-112.1-1054.9-112.1" style="fill:#231f20;fill-opacity:1;fill-rule:nonzero;stroke:none" transform="matrix(.0145 0 0 -.0145 -105.877 648.927)"/><path d="M14547.8 36286.4c-104.1 0-229.3 16.3-235.5 17.1-13.7 1.8-23.3 14.3-21.5 28s14.3 23.3 28.1 21.6c1.7-.3 175.1-22.8 278.6-15.1 111.6 8.4 574.1 163.8 578.8 165.3 13.1 4.4 27.3-2.6 31.7-15.7s-2.7-27.3-15.8-31.7c-19.2-6.4-473.2-158.9-590.9-167.7-16.6-1.3-34.7-1.8-53.5-1.8" style="fill:#231f20;fill-opacity:1;fill-rule:nonzero;stroke:none" transform="matrix(.0145 0 0 -.0145 -105.877 648.927)"/><path d="M15177.5 36596.3c-30.9-16-60.5-31.8-88.4-48.9-27.9-17-54.8-34.3-80.5-53.6-3.3-2.1-6.4-4.7-9.5-7.3l-9.6-7.3c-6.3-4.9-12.9-9.5-18.9-14.9-6.2-5.2-12.7-10-19.1-15-6.2-5.2-12.2-10.7-18.7-15.8-6.4-5.2-13.1-10.2-19.1-15.9-6.4-5.5-12.8-10.9-19.6-16.2-13.3-10.8-25.9-22.5-41.6-32.8l-.7-.5c-4.3-2.8-10-1.6-12.8 2.7-1.4 2.1-1.8 4.7-1.3 7 2.1 9.1 4.6 18.1 7.7 26.9 3.1 8.7 5.9 17.8 10.2 25.9 8.5 16.3 16.9 33.2 28.4 47.8 5.5 7.5 11.3 14.8 17.1 22.1 6.4 6.7 12.7 13.7 19.4 20.2 3.3 3.3 6.5 6.7 10 9.8s7.3 5.9 10.9 8.9c7.3 5.9 14.3 12.1 22.2 17.1 30.6 21.7 65 38.2 100.8 48.8 36 10.2 73.4 15.5 111.6 8.3 4.9-.9 8.1-5.6 7.2-10.5-.5-2.8-2.3-5-4.7-6.3z" style="fill:#418533;fill-opacity:1;fill-rule:nonzero;stroke:none" transform="matrix(.0145 0 0 -.0145 -105.877 648.927)"/><path d="M15008.6 36493.8h.1zm-88.6-9.6-1.9-2.4c-4.7-6-9.3-11.9-13.7-18-9.8-12.4-16.9-26-24.3-40.4l-1.1-2.1c6.6 5.2 12.6 10.2 18.4 15.3 4.4 4.1 9.8 8.4 15 12.6l4.6 3.7c4 3.1 7.4 6 10.7 8.9 2.6 2.3 5.2 4.6 7.9 6.7l7.1 5.6c4 3 7.9 6.1 11.6 9.3 4.7 4.1 10 8.1 15.3 12.1l14.3 10.9c2.8 2.4 6.4 5.3 10.3 7.9 22.7 17 48 33.8 81.9 54.5 12 7.3 24.4 14.5 36.6 21.3-13-1.8-26.8-4.7-41.5-8.8-33.5-10-64.9-25.2-93.1-45.2-5.8-3.6-10.5-7.5-15.5-11.6l-9.3-7.6c-2.1-1.7-4.2-3.4-6.3-5.2-1.8-1.6-3.6-3.4-5.4-5.2l-3.7-3.8c-4.2-4-8.3-8.4-12.4-12.7zm-73.4-142.5c-11.2 0-22 5.4-28.5 15.3-5 7.7-6.8 17.2-4.8 26.2q3.45 15.3 8.4 29.7l2.1 5.8c2.6 7.3 5.5 15.7 9.8 23.7l2.1 4c8.2 15.9 16.7 32.4 28.8 47.5 4 5.8 9.2 12.3 14.3 18.8l4.2 5.2 6.1 6.4c4.6 4.8 9.2 9.7 13.9 14.3l3.2 3.2c2.5 2.5 5.1 5.1 7.8 7.4 2.6 2.3 5.2 4.5 7.9 6.6l9 7.4c6 4.8 12.1 9.9 19.3 14.5 31.7 22.4 68.1 40 107.1 51.6 46.7 13.1 85.8 15.9 123.3 8.9 18.4-3.4 30.6-21.2 27.2-39.7-2-10.3-8.4-19-17.7-23.8l-1.1-.6c-26.7-13.8-57.9-30.3-86.8-48-32.8-20-57-36.1-78.6-52.3l-1.3-.9c-2.6-1.7-4.9-3.7-7.3-5.6l-15.3-11.8c-4.3-3.2-8.6-6.3-12.5-9.9-4.8-4-9.3-7.6-13.9-11.1l-6.3-4.8c-1.9-1.7-4.2-3.7-6.5-5.7-4.1-3.5-8.1-6.9-12.4-10.3l-4.5-3.6c-4.3-3.4-8.7-6.9-12.7-10.7-7.6-6.5-14.3-12.1-21.3-17.7-3-2.4-6.2-5.1-9.5-7.9-10.3-8.7-21-17.6-33.9-26.1-6.2-4-13-6-19.6-6" style="fill:#231f20;fill-opacity:1;fill-rule:nonzero;stroke:none" transform="matrix(.0145 0 0 -.0145 -105.877 648.927)"/><path d="M15028.8 36226.7c-25.4 17.7-50.5 34.6-76.1 48.2-25.6 13.9-51.6 25.7-78.9 33.8-6.6 2.6-13.6 4-20.6 5.6-6.9 1.6-13.7 4-20.9 4.6l-21.4 3.6c-7.2 1-14.5 1.1-21.8 1.9-7.4.8-14.8 1.6-22.2 1.3-7.5.1-15 .2-22.7.5-15.2.1-30.5-1.4-46.7-.8h-1.1c-4.9.2-8.7 4.3-8.5 9.2.1 3.3 2 6 4.7 7.5 7.3 3.8 14.8 7.3 22.4 10.7 3.8 1.7 7.6 3.4 11.5 5 3.8 1.7 7.7 3.2 11.8 4.2 8 2.3 16.2 4.4 24.4 6.4 4.1.9 8.2 2.2 12.4 2.8l12.7 1.4c8.4.9 17 1.8 25.5 2.3l25.9-1c8.6-.1 17.1-1.8 25.7-3.3 8.5-1.6 17.2-2.7 25.4-5.6 33.7-8.8 65.3-25.3 91.8-47.1 6.7-5.4 12.8-11.5 19-17.4 5.8-6.2 11.5-12.6 16.7-19.3 10.4-13.7 19.3-27.9 25.4-44.7 1.7-4.7-.7-9.8-5.4-11.5-2.8-1-5.8-.5-8.1 1z" style="fill:#418533;fill-opacity:1;fill-rule:nonzero;stroke:none" transform="matrix(.0145 0 0 -.0145 -105.877 648.927)"/><path d="M14881.8 36332.4c26.2-7.8 52.6-19.1 82.8-35.5 3.2-1.7 6.3-3.4 9.5-5.2-2.5 2.4-5.1 4.6-7.6 6.7-24.6 20.1-53 34.7-82.5 42.4l-2.1.6c-4.2 1.6-9.5 2.5-15.1 3.5l-9.2 1.6c-6.7 1.2-13.1 2.3-18.8 2.4l-25.3.9c-4.8-.2-9.7-.7-14.5-1.2l2.1-.1c4.4-.3 8.7-.6 13-1.2l21.4-3.6c6.6-.6 12.4-2.2 17.5-3.5l5.7-1.5 4.4-1c5.7-1.3 12.1-2.8 18.7-5.3m162.4-86h.1zm-9.4-46.9c-6.8 0-13.5 2-19.2 5.9l-1.2.8c-27.1 19-50 34.2-73.5 46.6-27.6 15-51.1 25.1-74.2 32l-1.8.6c-3.7 1.4-8.3 2.5-13.1 3.6l-4.5 1c-2.1.5-4.6 1.2-7.1 1.8-3.8 1-7.4 2-10.1 2.2l-2 .3-21.4 3.6c-2.3.3-5.7.5-9 .7-3.9.3-7.7.6-11.5 1-7.2.7-13.1 1.3-18.3 1.1-9 .1-16.8.2-24.8.6h-.1c-5.1 0-11.1-.3-17.3-.5-9.3-.4-18.8-.8-29.2-.4-19.6.7-34.3 16.4-33.6 35.1.4 12 7.3 23 17.9 28.7 7.1 3.7 14.7 7.3 24.1 11.5 3.9 1.7 8 3.6 12.2 5.3 3.4 1.5 9 3.8 15.5 5.3 7.1 2.1 15.6 4.3 24.1 6.4l4.2 1c3.6.9 7.3 1.8 10.9 2.3l13.2 1.5c9 .9 18 1.9 27.1 2.3l1.1.1 26.9-1c9.1-.1 18.2-1.7 26.2-3.1l9.1-1.7c6.8-1.2 14.4-2.5 22.2-5.2 36.1-9.6 70.8-27.4 100.4-51.7 6-4.8 11.5-10.1 16.8-15.2l4.5-4.3c7.4-7.9 13.2-14.6 18.3-21.2 13.6-17.9 22.8-34.2 29.1-51.5 6.4-17.6-2.7-37.1-20.3-43.5-3.8-1.4-7.7-2-11.6-2" style="fill:#231f20;fill-opacity:1;fill-rule:nonzero;stroke:none" transform="matrix(.0145 0 0 -.0145 -105.877 648.927)"/><path d="M14745.6 36107.4c-4.8 26.9-10.7 53.1-19.7 76-8.9 23-20.9 42.6-36.7 58.2-15.7 15.7-35.6 27.7-58.7 37.2-23.1 9.7-49 16.5-76.6 24.6h-.1c-4.8 1.4-7.6 6.5-6.2 11.3.9 3 3.2 5.2 5.9 6.1 28.5 9.2 59.2 11.4 90.3 6.1 30.8-5.2 62.7-19.6 86.7-43.9 24.2-24 38.8-56.2 43.4-87.5 4.5-31.6 1.4-62.6-11.2-91.2-2-4.5-7.2-6.5-11.7-4.6-2.9 1.3-4.7 3.8-5.2 6.6z" style="fill:#418533;fill-opacity:1;fill-rule:nonzero;stroke:none" transform="matrix(.0145 0 0 -.0145 -105.877 648.927)"/><path d="m14639.1 36302.3 1.1-.5c27.3-11.1 49.1-25.1 66.6-42.5 17.7-17.4 31.9-39.7 42.2-66.3-4.2 27.3-17.3 53.7-36.1 72.2-18.8 19.2-44.8 32.2-73.3 37zm131.3-191.7h.1zm-15.9-36.6c-4.6 0-9.2.9-13.6 2.8-10.3 4.5-17.6 13.8-19.7 24.9l-.3 1.3c-5.3 30.3-11.1 53-18.3 71.3-7.8 20.3-18.2 36.9-31 49.5-12.8 12.8-29.3 23.2-50.6 31.9-18.1 7.6-38.6 13.5-60.2 19.7l-13.9 4c-8.8 2.6-16.1 8.4-20.4 16.4-4.4 7.9-5.4 17.2-2.9 25.9 3.1 10.7 11.4 19.3 22.1 22.8 33.1 10.7 67.5 13 102.4 7 38.7-6.5 74.3-24.6 100.2-51 26.7-26.4 44.7-62.5 50.4-101.4 5.3-37.8.9-73-13.1-104.8-5.6-12.7-18.1-20.3-31.1-20.3" style="fill:#231f20;fill-opacity:1;fill-rule:nonzero;stroke:none" transform="matrix(.0145 0 0 -.0145 -105.877 648.927)"/><path d="M15289.9 36399.1c-12-13.1-25.5-22.2-40-30.5-14.4-8.4-29.8-14.6-45.5-19.9-31.4-10.3-64.4-14.7-97-15.4-8.2 0-16.4 0-24.5.2-8.1.5-16.2 1.4-24.3 2.3-16.2 1.2-31.9 5.3-47.6 8.7-15.7 3.9-30.8 9.5-45.9 15-14.7 6.5-29.1 13.6-42.9 22-4.3 2.6-5.6 8.2-3 12.4 1.6 2.7 4.4 4.2 7.3 4.3h.6c16.1.5 31.5-.5 46.7-1.7 15.3-.4 30.2-1.9 45.1-2.8 7.5-.2 14.9-.8 22.2-1.2 3.7-.3 7.4-.7 11.1-.8s7.3-.2 11-.4c7.3-.2 14.7-.6 22-1 7.2.1 14.5-.1 21.8-.3 29.1 0 58 1.2 86.8 4.8 28.6 3.6 58 9.2 85.6 18.2l1.2.4c4.7 1.6 9.6-.9 11.2-5.6 1-3.1.2-6.4-1.9-8.7" style="fill:#acb26c;fill-opacity:1;fill-rule:nonzero;stroke:none" transform="matrix(.0145 0 0 -.0145 -105.877 648.927)"/><path d="M15289.9 36399.1h.1zm-272.8-30.3 8.1-1.8c12.3-2.8 23.9-5.4 35.4-6.3 8.4-.9 16.1-1.7 23.9-2.2 7-.2 14.9-.2 22.8-.2 27 .6 52.4 4 75.5 10.1-23.2-2.3-48.2-3.3-75.8-3.4-7.6.2-14.6.4-21.6.3h-1.7c-7.1.4-14.2.8-21.3 1-3.6.2-7 .3-10.4.3-3.5.2-6.3.4-9.1.6l-8.7.7c-5.4.3-10.7.6-16.1.8zm84.9-60.5c-6.8 0-13.3 0-19.8.2-9.4.6-17.8 1.5-26.3 2.4-14.2 1.1-28.2 4.3-41.7 7.3l-8.5 1.9c-17.8 4.4-33.7 10.3-49.2 15.9l-1.5.7c-18.2 8-32.8 15.5-45.9 23.5-7.7 4.7-13.1 12.2-15.3 21-2.1 8.9-.7 18 4.1 25.7 5.9 9.8 16.3 15.8 27.6 16.3 17 .5 32-.3 49.6-1.8 10.8-.2 21.4-1 31.9-1.8 4.5-.3 9-.7 13.5-1 5.1-.1 11-.5 16.8-.8l9.9-.7c2-.2 3.9-.4 5.9-.5 3.2 0 7.2-.1 11.2-.3 7-.2 14.2-.6 21.5-1 7.2 0 14.5-.1 21.8-.3 30.5.3 58.2 1.5 83.1 4.6 31.3 3.9 57.7 9.6 80.9 17.2 9.8 3.2 19 2.5 27-1.5 8.1-4.1 14.1-11.1 16.9-19.7 3.8-11.5 1.1-24.3-7.2-33.3-15.1-16.5-31.7-27.2-46-35.4-13.9-8.1-29.8-15.1-49.9-21.9-31.5-10.3-66.6-15.9-104.5-16.7z" style="fill:#231f20;fill-opacity:1;fill-rule:nonzero;stroke:none" transform="matrix(.0145 0 0 -.0145 -105.877 648.927)"/><path d="M14744.2 36536.8c1.5-18.2-1-35.1-5.1-51.9-2.2-8.4-5-16.6-8-24.7-3.4-7.9-6.8-16-11-23.6-16.4-30.7-40-58.2-68.6-78.8-6.7-5.8-14.5-10-22-14.7-7.5-4.5-15-9.1-23.1-12.4-8-3.5-16.1-6.8-24.1-10.1-8.3-2.7-16.7-4.9-25.1-7l-12.5-3c-4.2-1-8.5-1.2-12.7-1.8-8.5-.9-17-1.7-25.4-2.2-4.2-.5-8.4-.4-12.7 0q-6.3.3-12.6.9c-8.4.7-16.8 1.6-25 2.9-4.9.9-8.1 5.5-7.3 10.4.5 2.9 2.3 5.2 4.8 6.5l1 .5c14.8 7.3 29.4 12.1 43.4 18.3 6.9 3.3 13.8 6.4 20.6 9.4 6.9 2.6 13.3 6.2 19.8 9.7 6.3 3.7 13 6.5 19.2 10.1 6.1 3.9 12.1 7.7 18.1 11.3 6.4 3.2 11.7 8 17.5 12 5.7 4.1 11.6 7.9 16.7 12.6 22 17.3 41.6 37.3 60.7 58.8 19.3 21.4 37.2 45.4 56.4 70.7l.7.8c3 4 8.7 4.8 12.7 1.8 2.1-1.7 3.3-4.1 3.6-6.5" style="fill:#acb26c;fill-opacity:1;fill-rule:nonzero;stroke:none" transform="matrix(.0145 0 0 -.0145 -105.877 648.927)"/><path d="M14588.1 36364.8c-4.5-2.7-8.9-5.5-13.4-8.4l-3.6-2.2c-4.4-2.6-8.2-4.5-12-6.4-2.7-1.4-5.5-2.8-8.2-4.3l-1.9-1c-5-2.8-10.4-5.8-16.5-8.4l1.3.1c1.9.2 3.7.4 5.5.8l12 2.9c7.4 1.9 15 3.8 22.4 6.2l2 .8c6.9 2.8 13.8 5.7 20.6 8.7 6.4 2.6 12.4 6.2 18.7 10l7.2 4.3c4.9 3 9.5 5.8 12.9 8.7l1.8 1.4c25.1 18.2 46.2 42.5 61.2 70.4 3.1 5.5 5.6 11.5 8.3 17.7l1.5 3.4c1.3 3.5 2.4 6.7 3.4 9.7-7.2-8.9-14.4-17.6-21.9-25.9-22.7-25.6-42.8-45.1-63.1-61.2-5.1-4.6-10.4-8.3-15.1-11.6l-3.3-2.3c-2-1.4-3.6-2.6-5.2-3.8-4.2-3.1-8.8-6.6-14.6-9.6m-87.1-83.6c-3.3 0-6.6.3-9.1.5-3.7.1-8.3.5-12.9.9-10.2.8-18.8 1.8-26.8 3.2-9 1.5-16.8 6.4-22.1 13.8-5.2 7.4-7.3 16.4-5.8 25.4 1.8 10.5 8.6 19.8 18.3 24.6 11 5.5 20.4 9.2 29.6 12.8 5.4 2.2 10.7 4.2 15.9 6.5 6.3 3.1 13.5 6.3 20.6 9.4 5.9 2.3 11 5.1 16.3 8l1.6.9c3.1 1.8 6.6 3.5 10.2 5.3 2.8 1.5 5.7 2.9 8.4 4.5l2.8 1.7c5 3.2 10 6.4 15.1 9.4l1.5.8c2.3 1.2 5.1 3.3 8 5.5 2.2 1.6 4.4 3.3 6.7 4.8l3.2 2.3c4 2.8 7.8 5.5 10.8 8.2l1.4 1.1c18.1 14.4 36.4 32.1 57.4 55.8 16.9 18.8 32.9 39.9 49.9 62.2l5.3 7c6.2 8.1 14.2 12.8 23.2 14 9.1 1.3 18-1.1 25.2-6.6 7.7-5.9 12.5-14.7 13.4-24.3v-.1c1.5-18.8-.3-37.9-5.8-59.9-2.2-8.5-4.9-17.1-8.8-27.4l-2.1-5.2c-3.1-7.1-6.3-14.4-10.4-21.8-18.2-34-44.2-63.9-75-86.4-6.4-5.4-13.1-9.4-19.1-13l-7.1-4.4c-7.3-4.4-15.7-9.4-25.1-13.2-6.5-2.9-13.7-5.9-20.9-8.8l-5-2c-8.8-2.8-17.7-5.1-26.5-7.3l-12.6-3.1c-4.2-1-7.9-1.4-11.6-1.8l-3.7-.4c-9.7-1.1-18.5-1.9-27.3-2.5-2.3-.3-4.7-.4-7.1-.4" style="fill:#231f20;fill-opacity:1;fill-rule:nonzero;stroke:none" transform="matrix(.0145 0 0 -.0145 -105.877 648.927)"/><path d="M14924.9 36651.8c7.5-39 3.9-77.9-5.5-115.9-9.8-37.9-27-74.4-50.5-106.7-11.8-16.2-25.4-31-40.1-44.5-14.9-13.4-31.2-25.1-48.3-35.1-34.6-19.4-72.6-31.8-111.2-33.7-5-.3-9.2 3.5-9.5 8.5-.1 3.3 1.4 6.2 3.9 7.9l.2.1c30.7 20.9 59.1 40.8 84.7 62.8 25.4 22.3 47.9 46.3 67.9 72.7q29.4 39.9 51.6 86.4c14.8 30.8 27.7 63.8 39.4 97.8l.3.9c1.6 4.6 6.7 7.1 11.3 5.5 3.1-1.1 5.2-3.7 5.8-6.7" style="fill:#acb26c;fill-opacity:1;fill-rule:nonzero;stroke:none" transform="matrix(.0145 0 0 -.0145 -105.877 648.927)"/><path d="M14899.6 36562.8c-3-6.7-6-13.1-9-19.4-15.5-32.3-33.7-62.7-54-90.3-20.8-27.6-44.1-52.7-71.5-76.7-6.6-5.7-13.5-11.3-20.4-16.7 7.9 3.5 15.8 7.4 23.5 11.7 15.7 9.2 30.6 20 43.9 31.9 13.9 12.9 26.4 26.6 36.6 40.6 21.3 29.4 37.4 63.4 46.5 98.3 1.7 7 3.2 13.9 4.4 20.6m-230.8-272c-8.4 0-16.5 3.1-22.8 8.8-6.7 6.1-10.7 14.5-11.1 23.5-.7 11.7 5 23.2 14.7 29.8 29.3 20 57.5 39.6 82.7 61.3 24.6 21.5 45.6 44.1 64.2 68.8 18.3 24.8 34.9 52.5 49 82.1 13.2 27.3 25.8 58.4 38.4 95.2 6.3 18.4 25.7 27.9 43.3 21.8 11.4-3.9 19.9-13.7 22.3-25.5v-.1c7.5-39.1 5.6-80.5-5.9-126.6-10.6-41.2-29.4-81-54.5-115.4-12.2-16.7-26.8-32.9-43.4-48.2-16.1-14.4-33.7-27.2-52.6-38.3-39.7-22.3-81.9-35-122.6-37.1z" style="fill:#231f20;fill-opacity:1;fill-rule:nonzero;stroke:none" transform="matrix(.0145 0 0 -.0145 -105.877 648.927)"/><path d="M15058.7 36454.3c11.4 13.1 23.9 23.9 36.8 34 12.9 10 26.2 19.1 40 27.4 13.9 8.2 28 16 42.8 22.7 15 6.9 29.3 12.8 48.3 18.1 35.9 9.3 68.4 10.2 100.1 10.2 15.8-.1 31.5-.8 47.3-1.6 15.7-1 31.5-2 47.9-4.3h.3c6.7-.9 11.4-7.1 10.5-13.8-.5-3.7-2.8-6.9-5.7-8.7-29-17.7-60.7-28.6-91.5-37.2-30.8-8.7-61.3-14.6-86.3-22.5-3.2-.9-6-2.1-9-3.1-3.3-1.2-6.7-2.6-10.1-3.8-7.1-2.5-14.1-5.3-21.4-7.7-14.4-5.4-29.3-10-44.4-14.4-30.4-8.3-61.6-15.5-95.9-16.2-6.9-.2-12.7 5.3-12.9 12.3 0 3.3 1.1 6.3 3.1 8.5z" style="fill:#acb26c;fill-opacity:1;fill-rule:nonzero;stroke:none" transform="matrix(.0145 0 0 -.0145 -105.877 648.927)"/><path d="M15323.6 36541.7c-28.2 0-58.3-1-90.8-9.4-16.4-4.6-29.1-9.8-44.1-16.7-12-5.4-24.5-12-40.5-21.4-12.6-7.7-25.3-16.3-37.4-25.7-2.8-2.2-5.8-4.6-8.8-7.1 19.5 2.9 38.1 7.5 55.7 12.3 12.5 3.7 27.7 8.3 42.4 13.7 4.9 1.6 8.9 3.2 12.9 4.7 2.9 1.1 5.7 2.1 8.6 3.2 2.4.8 4.1 1.4 5.7 2.1l7.9 2.9c2.4.8 4.8 1.6 7.3 2.4 13.9 4.4 29.9 8.3 46.9 12.4 12.7 3.1 26 6.3 39.3 10.1 13.5 3.7 29.2 8.5 45.2 14.8l-1.4.1c-14.5.8-30.2 1.5-45.8 1.6zm-255.5-133.3c-20.3 0-37.1 16.3-37.6 36.7-.2 9.4 3.1 18.5 9.2 25.5l.1.2c13.6 15.5 28 27.5 40.3 37.1 13.7 10.7 28 20.5 42.6 29.2 17.8 10.5 31.7 17.9 45.3 24.1 16.6 7.6 31.8 13.8 51.8 19.4 39.9 10.4 74.8 11.1 107 11.1 16.7 0 33.2-.8 48.5-1.7 15.8-.9 32.5-2 50-4.4 10.2-1.4 18.9-6.5 24.9-14.4 6-8 8.6-17.8 7.2-27.6-1.5-11-7.8-20.7-17.2-26.6-33.8-20.6-70.1-32.2-98-40-13.9-3.9-27.7-7.3-41.1-10.5-16-3.9-31.2-7.6-44.2-11.7-2.3-.7-3.6-1.2-5-1.6l-6.3-2.4c-2.5-1-5.1-2-7.7-2.8-2.1-.7-4.7-1.7-7.3-2.7-4.6-1.8-9.2-3.5-13.9-5.1-15.4-5.6-31.6-10.6-45.4-14.6-31.2-8.5-64.9-16.4-102.3-17.2zm-1139-138.2c-28.5 0-56.4 1-80.9 3.4-117.5 11.7-567.6 175.1-586.7 182-13 4.8-19.7 19.1-15 32.1s19.1 19.7 32.1 14.9c4.6-1.6 463.2-168.2 574.5-179.2 103.3-10.3 277.3 8.1 279 8.2 13.8 1.5 26.1-8.4 27.5-22.2 1.5-13.7-8.4-26-22.2-27.5-5.6-.6-110.8-11.7-208.3-11.7" style="fill:#231f20;fill-opacity:1;fill-rule:nonzero;stroke:none" transform="matrix(.0145 0 0 -.0145 -105.877 648.927)"/><path d="M13279.6 36595.6c30.5-16.7 59.7-33.3 87.2-51 27.4-17.7 54-35.6 79.2-55.5 3.3-2.3 6.3-4.9 9.3-7.6l9.4-7.5c6.2-5 12.7-9.8 18.6-15.3 6-5.4 12.4-10.4 18.6-15.6 6.2-5.3 12-11 18.4-16.2 6.3-5.3 12.8-10.5 18.7-16.4 6.2-5.5 12.5-11.1 19.2-16.6 13-11.1 25.4-23.1 40.8-33.8l.7-.5c4.2-2.9 9.9-1.9 12.8 2.3 1.5 2.2 1.9 4.7 1.5 7.1-1.8 9.1-4.2 18.2-7 27-2.9 8.8-5.5 18-9.6 26.2-8.1 16.5-16.1 33.6-27.3 48.4-5.2 7.7-10.9 15.1-16.5 22.6-6.2 6.8-12.3 13.9-18.9 20.6-3.3 3.3-6.4 6.8-9.8 10s-7.1 6.2-10.6 9.2c-7.2 6-14.1 12.4-21.9 17.7-30 22.4-64 39.7-99.5 51.2-35.8 11-73.1 17.2-111.4 11-4.9-.8-8.2-5.4-7.4-10.3.4-2.8 2.2-5.1 4.5-6.4z" style="fill:#418533;fill-opacity:1;fill-rule:nonzero;stroke:none" transform="matrix(.0145 0 0 -.0145 -105.877 648.927)"/><path d="m13290.7 36618-11.1-22.4 12 21.9zm170.2-108.8c3.8-2.7 7.3-5.7 10.8-8.8l13.4-10.7c5.2-4.1 10.4-8.2 15.2-12.7 3.3-3 7.1-6.1 11-9.2l6.6-5.5c3-2.5 5.6-4.8 8.1-7.1 3.3-3 6.6-6.1 10.1-8.9l4.8-4.1c5.2-4.3 10.5-8.7 15.7-14 5-4.3 10.9-9.6 17.2-14.8l-1 2.1c-7.1 14.6-13.9 28.4-22.6 40-5.1 7.4-9.7 13.5-14.3 19.7l-1.6 2.1-5.5 6.1c-4 4.4-7.9 8.7-12 12.9l-3.7 3.9c-1.7 1.8-3.4 3.6-5.2 5.3-2 1.8-4 3.6-6.1 5.3l-9.1 7.8c-4.9 4.2-9.6 8.2-14.2 11.3-28.7 21.4-59.8 37.4-93.3 48.2-14.5 4.5-28.1 7.7-41 9.7 12.1-7.1 24.2-14.5 36.1-22.2 33.4-21.4 58.3-38.9 80.6-56.4m144-176.2c-6.7 0-13.5 1.9-19.4 6-13.4 9.3-23.9 18.6-34 27.5-3.2 2.8-6.4 5.7-9.6 8.4-6.5 5.4-13.1 11.2-19.6 17-4.9 4.8-9.2 8.4-13.5 12l-4.7 4c-3.8 3.1-7.8 6.7-11.7 10.3-2.3 2-4.5 4.1-6.8 6l-5.8 4.8c-4.5 3.6-8.9 7.2-13.2 11-4.2 4-8.4 7.2-12.5 10.5l-14.5 11.6c-3 2.6-5.3 4.7-7.9 6.4l-1.2 1c-21.2 16.6-45 33.3-77.3 54.1-28.7 18.5-59.4 35.7-85.6 50.1l-1.1.6c-9.2 5.1-15.4 13.9-17.1 24.2-3 18.6 9.6 36.1 28.1 39.1 37.7 6.1 76.7 2.4 122.7-11.8 39.1-12.6 75.1-31.1 107.2-55.1 6.1-4 12.1-9.2 17.9-14.2l8.8-7.5c2.6-2.2 5.2-4.5 7.8-6.8 2.6-2.4 5-5 7.5-7.5l3.1-3.3c4.7-4.8 9.1-9.7 13.5-14.6l9.9-11.6c5.1-6.8 10.1-13.5 14.9-20.5 11-14.5 19.1-31.2 27-47.3l2-4.2c4-7.9 6.7-16.3 9.1-23.7l1.8-5.5c3.2-9.9 5.8-19.9 7.8-30.1 1.8-9.3-.2-18.7-5.5-26.3-6.6-9.5-17.2-14.6-28.1-14.6" style="fill:#231f20;fill-opacity:1;fill-rule:nonzero;stroke:none" transform="matrix(.0145 0 0 -.0145 -105.877 648.927)"/><path d="M13419.3 36222.5c25.8 17.1 51.3 33.3 77.3 46.4 25.9 13.2 52.1 24.4 79.6 31.9 6.7 2.3 13.8 3.6 20.7 5.1 7 1.4 13.9 3.6 21.1 4.1l21.5 3c7.2.8 14.5.7 21.8 1.4 7.4.6 14.8 1.2 22.2.8 7.5-.1 15-.2 22.7-.1 15.2-.3 30.5-2.2 46.7-2h1.1c4.9.1 8.8 4.1 8.7 9 0 3.3-1.8 6.1-4.5 7.6-7.2 4-14.6 7.7-22.1 11.3-3.8 1.8-7.6 3.6-11.4 5.3-3.8 1.8-7.7 3.4-11.7 4.4-8 2.5-16.1 4.8-24.2 7.1-4.1 1-8.2 2.4-12.4 3l-12.6 1.7c-8.5 1.2-17 2.3-25.5 2.9l-25.9-.3c-8.6.1-17.2-1.4-25.8-2.7-8.5-1.4-17.2-2.3-25.5-5-33.9-8-65.8-23.7-92.9-44.9-6.9-5.2-13.1-11.1-19.4-16.9-6-6.1-11.8-12.3-17.2-18.9-10.7-13.4-19.9-27.4-26.4-44.1-1.9-4.6.4-9.8 5-11.6 2.8-1.1 5.8-.6 8.2.9z" style="fill:#418533;fill-opacity:1;fill-rule:nonzero;stroke:none" transform="matrix(.0145 0 0 -.0145 -105.877 648.927)"/><path d="M13612.3 36340.1c-6.1 0-12.4-1-19.1-2l-9.1-1.4c-5.6-.8-10.9-1.6-15.2-3l-2.1-.6c-29.7-7-58.5-20.9-83.2-40.3-2.8-2.1-5.4-4.3-8.1-6.7q4.95 2.7 9.9 5.1c30.4 15.6 57 26.2 83.4 33.5 6.6 2.2 12.9 3.5 18.6 4.7l4.2.9c2.4.5 4.3.9 6.3 1.4 5.1 1.2 10.9 2.6 17.4 3.1l20.6 3c5.3.6 9.6.8 13.9 1l2.2.1c-4.8.6-9.7 1.1-14.5 1.5l-24.8-.3zm-206.8-96.8-.8-.5 14.6-20.3zm7.9-47.9c-4.1 0-8.3.8-12.3 2.4-17.4 6.8-26 26.5-19.2 43.9 6.7 17.2 16.3 33.3 30.2 50.6 5.3 6.6 11.3 13.2 18.9 20.9l4.7 4.3c5.4 5 11 10.1 17.3 14.9 29.9 23.4 65 40.4 101.4 49.1 7.9 2.5 15.5 3.6 22.3 4.7l9 1.4c8.1 1.2 17.2 2.4 27 2.5l26.4.3 1-.1c9.1-.6 18-1.8 27-3l12.7-1.7c4.1-.7 7.8-1.6 11.4-2.6l3.5-.9c9.1-2.5 17.5-4.9 25.8-7.5 5.3-1.4 10.8-3.8 14.9-5.7 3.4-1.5 7.5-3.4 11.6-5.4 8.9-4.2 16.5-8 23.5-12 10.5-5.9 17.1-17.1 17.2-29.1.2-18.7-14.8-34-33.4-34.3-11.5-.1-21 .5-30.2 1.1-6.2.4-12.3.8-18.4.9-7-.1-14.8 0-22.6.1-6.4.3-12.2-.1-18.4-.6l-1.4-.1c-3.5-.3-7.4-.5-11.2-.7-3.4-.1-6.7-.3-10.1-.6l-22.4-3.2c-2.8-.2-6.4-1-10.1-1.9-2.6-.6-5.1-1.2-7.7-1.8l-4.2-.8c-4.8-1-9.4-2-13.1-3.3l-1.8-.6c-23.2-6.3-47-15.8-74.7-30-24-12-47.3-26.6-74.9-45l-.9-.6c-5.7-3.7-12.2-5.6-18.8-5.6" style="fill:#231f20;fill-opacity:1;fill-rule:nonzero;stroke:none" transform="matrix(.0145 0 0 -.0145 -105.877 648.927)"/><path d="M13699.6 36096.4c5.4 26.8 12 52.8 21.5 75.5 9.4 22.8 21.9 42.1 38.1 57.3 16.1 15.3 36.2 26.9 59.6 35.8 23.3 9.1 49.3 15.3 77.1 22.7h.1c4.9 1.3 7.8 6.3 6.5 11.1-.8 3-3.1 5.3-5.8 6.3-28.2 9.8-58.9 12.8-90.1 8.2-31-4.4-63.2-18-87.7-41.7-24.8-23.4-40.2-55.2-45.5-86.5-5.3-31.5-2.9-62.5 9-91.4 1.8-4.5 7-6.7 11.6-4.8 2.8 1.1 4.8 3.6 5.3 6.4z" style="fill:#418533;fill-opacity:1;fill-rule:nonzero;stroke:none" transform="matrix(.0145 0 0 -.0145 -105.877 648.927)"/><path d="M13810.7 36288.6h-.4c-28.7-4.2-55-16.6-74-35-19.4-18.3-33.2-44.3-38.1-71.6 10.9 26.3 25.7 48.3 43.9 65.4 17.8 16.9 40 30.3 67.8 40.9zm-105.2-185.3v-.1zm-30.4-2-.2-.9 24.7-4zm15.5-38.1c-4.4 0-8.9.9-13.1 2.6-8.4 3.5-14.9 10.1-18.3 18.5-13.2 32.1-16.7 67.4-10.5 104.9 6.7 38.9 25.5 74.6 53.1 100.6 26.2 25.4 62.3 42.7 101.3 48.3 34.9 5.2 69.2 2 101.9-9.4 10.7-3.9 18.8-12.7 21.7-23.5 2.3-8.7 1-17.9-3.5-25.8-4.6-7.9-12-13.5-20.8-15.9l-13.9-3.6c-21.9-5.7-42.5-11.1-60.5-18.2-21.8-8.3-38.6-18.3-51.5-30.6-13.3-12.4-24.1-28.8-32.3-48.8-7.7-18.2-14.1-40.7-20.1-70.9l-.2-1c-2.4-11.2-10-20.4-20.4-24.7-4.2-1.7-8.5-2.5-12.9-2.5" style="fill:#231f20;fill-opacity:1;fill-rule:nonzero;stroke:none" transform="matrix(.0145 0 0 -.0145 -105.877 648.927)"/><path d="M13162.5 36401.2c11.7-13.4 25-22.8 39.2-31.5s29.5-15.3 45-21c31.2-11 64-16.3 96.6-17.7 8.2-.2 16.4-.4 24.5-.4 8.1.3 16.2 1 24.3 1.7 16.3.9 32.1 4.5 47.9 7.6 15.7 3.5 31 8.7 46.2 13.8 14.8 6.2 29.5 12.9 43.4 21 4.3 2.5 5.8 8 3.3 12.3-1.5 2.7-4.3 4.3-7.2 4.5h-.6c-16.1.9-31.5.3-46.7-.6-15.3 0-30.3-1.1-45.2-1.7-7.4 0-14.8-.4-22.2-.7-3.7-.1-7.4-.5-11.1-.5s-7.3 0-11-.1c-7.3 0-14.7-.2-22-.5-7.3.3-14.5.3-21.8.3-29.1.7-58 2.5-86.7 6.8-28.4 4.3-57.8 10.6-85.1 20.4l-1.2.4c-4.6 1.6-9.7-.8-11.3-5.3-1.1-3.1-.3-6.5 1.7-8.8" style="fill:#acb26c;fill-opacity:1;fill-rule:nonzero;stroke:none" transform="matrix(.0145 0 0 -.0145 -105.877 648.927)"/><path d="M13268.7 36367.9c22.9-6.7 48.4-10.7 75.8-11.9 7.4-.2 15.2-.4 23.2-.4 6.9.3 14.6 1 22.3 1.6 12.2.7 23.9 3 36.3 5.5l8 1.5c-6.3 0-11.6-.2-17-.5l-8.7-.4c-2.8-.1-5.6-.3-8.4-.3-4.1.1-7.5 0-10.8-.1-7.4 0-14.5-.2-21.6-.5h-1.8c-7 .3-14 .3-21 .3-28.2.6-53.2 2.3-76.3 5.2m96.7-62.3c-8 0-15.4.2-22.7.4-38.3 1.7-73.3 8.1-104.4 19.2-20.1 7.3-35.8 14.7-49.6 23.2-14 8.5-30.4 19.5-45.1 36.4v.1c-8 9.2-10.4 22-6.3 33.5 3 8.4 9.1 15.3 17.3 19.1 8.2 3.9 17.4 4.4 25.9 1.3 24.1-8.6 50.5-14.8 81.6-19.6 24.8-3.6 52.2-5.8 83.5-6.5 6.8 0 14 0 21.3-.3 7.3.3 14.6.5 21.8.5 3.7.1 7.6.2 11.7.1 1.2 0 3.1.1 5.1.3l9.9.4c5.9.3 11.8.5 17.7.5 3.6.2 8 .4 12.5.6 10.6.6 21.3 1.1 32.1 1.1 17.6 1 32.7 1.5 48.8.6 12.2-.8 22.4-7.1 28.1-17 4.5-7.8 5.7-17 3.4-25.8-2.4-8.7-8-16.1-15.8-20.6-13.3-7.7-28.1-14.8-46.5-22.5l-1.5-.5c-15.6-5.3-31.7-10.8-48.7-14.6l-9.4-1.9c-13.6-2.7-27.6-5.5-42.6-6.3-7.7-.6-16.2-1.3-24.7-1.7z" style="fill:#231f20;fill-opacity:1;fill-rule:nonzero;stroke:none" transform="matrix(.0145 0 0 -.0145 -105.877 648.927)"/><path d="M13711.4 36525.6c-2-18.1 0-35.1 3.8-52 2-8.4 4.5-16.7 7.4-24.9 3.2-8 6.3-16.1 10.3-23.8 15.8-31.1 38.7-59.1 66.8-80.5 6.5-6 14.2-10.3 21.6-15.1s14.7-9.6 22.8-13.1c7.9-3.7 15.9-7.2 23.9-10.7 8.2-2.8 16.5-5.2 24.8-7.5l12.5-3.4c4.1-1 8.5-1.3 12.7-2 8.5-1.1 16.9-2.2 25.3-2.9 4.2-.5 8.4-.5 12.7-.3q6.3.15 12.6.6c8.4.5 16.8 1.2 25 2.4 4.9.7 8.3 5.2 7.6 10.1-.4 2.9-2.2 5.3-4.6 6.6l-1 .6c-14.6 7.7-29.1 12.8-43 19.3-6.8 3.5-13.6 6.7-20.3 9.9-6.9 2.8-13.2 6.6-19.5 10.2-6.3 3.8-12.9 6.8-19 10.6-6 4-11.9 8-17.9 11.7-6.2 3.4-11.5 8.3-17.1 12.4-5.7 4.2-11.4 8.2-16.5 13-21.6 17.9-40.6 38.3-59.2 60.3-18.8 21.9-36.1 46.3-54.7 72l-.6.9c-3 4-8.7 4.9-12.7 2-2.2-1.6-3.5-3.9-3.7-6.4" style="fill:#acb26c;fill-opacity:1;fill-rule:nonzero;stroke:none" transform="matrix(.0145 0 0 -.0145 -105.877 648.927)"/><path d="M13877.1 36328.8c7.4-2.5 14.9-4.6 22.4-6.7l12.3-3.4c1.3-.3 3.1-.4 5-.7l1.2-.1c-5.6 2.5-11.2 5.8-16.2 8.7l-1.6.9c-3 1.8-5.7 3.2-8.4 4.7-3.7 2-7.5 3.9-11.1 6.1l-3.8 2.6c-4.6 3.1-9.1 6.1-13.7 9-5.7 3.2-10.2 6.7-14.3 9.9-1.6 1.3-3.1 2.5-4.7 3.7l-3.8 2.8c-4.6 3.3-9.7 7.2-14.7 11.8-20 16.6-39.6 36.6-61.7 62.9-7.3 8.4-14.3 17.2-21.2 26.2 1-3.2 2.1-6.6 3.4-10.3l1-2.3c2.6-6.6 5.1-12.7 7.9-18.2 14.4-28.5 35-53.3 59.7-72.1l1.7-1.4c3.3-3.1 7.9-6 12.8-9.1l6.9-4.4c6.3-4 12.1-7.7 17.8-10.2 7.6-3.5 14.6-6.6 21.5-9.7zm73.8-64.6c-3.2 0-7 .2-11 .7-7.5.7-16.3 1.7-25.2 2.9l-4.4.6c-3.7.5-7.4 1-11.1 2l-12.9 3.5c-8.9 2.4-17.7 5-26.5 8l-4.5 1.9c-7.3 3.2-14.6 6.4-21.8 9.8-8.6 3.7-16.9 9-24.1 13.6l-7 4.4c-5.8 3.8-12.4 8-18.7 13.5-30.3 23.3-55.6 53.8-73.1 88.5-3.8 7.4-6.9 15-9.8 22.3l-1.4 3.4c-4 11.6-6.6 20.3-8.5 28.6-5 22.5-6.4 41.6-4.4 60.4v.1c1.1 9.6 6.2 18.3 13.9 23.9 15.2 11 36.6 7.6 47.6-7.6l5.9-8.2c16.4-22.7 31.9-44.1 48.2-63.1 20.5-24.4 38.3-42.6 56.2-57.3l1.3-1.2c2.9-2.8 6.6-5.5 10.5-8.4l3.7-2.7c1.8-1.3 3.9-3 6.1-4.7 2.9-2.3 5.6-4.5 7.9-5.7l1.4-.8c5.2-3.3 10.3-6.7 15.4-10.1l3-2c2-1.2 4.8-2.7 7.7-4.2 3.4-1.8 6.9-3.7 10.3-5.7l1.3-.7c5.2-3.1 10.2-6 14.9-7.9 8.1-3.8 15.2-7.1 22.4-10.8 4.2-2 9.5-4.2 14.8-6.5 9.1-3.8 18.5-7.8 28.3-12.9 10.6-5.7 17.1-15.1 18.7-25.7 1.3-9-1-17.9-6.4-25.2-5.5-7.3-13.4-12-22.4-13.3-8.1-1.1-16.8-2-27.2-2.5-4.3-.3-8.9-.6-13.5-.7-1.4-.1-3.4-.2-5.6-.2" style="fill:#231f20;fill-opacity:1;fill-rule:nonzero;stroke:none" transform="matrix(.0145 0 0 -.0145 -105.877 648.927)"/><path d="M13533.4 36644.9c-8.4-38.7-5.7-77.7 2.8-115.9 8.9-38.1 25.1-75.1 47.9-108 11.4-16.4 24.6-31.5 39-45.4 14.6-13.7 30.6-25.8 47.4-36.2 34.1-20.3 71.8-33.6 110.4-36.5 4.9-.3 9.3 3.4 9.6 8.4.3 3.2-1.2 6.2-3.7 7.9l-.1.1c-30.3 21.7-58.1 42.2-83.2 64.9-24.8 22.9-46.8 47.4-66.1 74.3q-28.5 40.65-49.5 87.6c-14.1 31.1-26.2 64.5-37.1 98.8l-.2.8c-1.5 4.7-6.5 7.3-11.2 5.8-3.1-1-5.3-3.6-6-6.6" style="fill:#acb26c;fill-opacity:1;fill-rule:nonzero;stroke:none" transform="matrix(.0145 0 0 -.0145 -105.877 648.927)"/><path d="M13556.6 36555.3c1.1-6.8 2.4-13.8 4-20.9 8.1-34.9 23.4-69.2 44-99.1 9.9-14.2 22-28.3 35.9-41.8 12.7-11.9 27.4-23.1 43.2-32.9 7.5-4.4 15.1-8.5 22.9-12.1-6.8 5.6-13.4 11.3-19.9 17.1-27 24.9-49.7 50.5-69.6 78.4-19.9 28.3-37.3 59.1-52 91.9-2.9 6.3-5.7 12.7-8.5 19.4m226.1-227.4h.2zm-1.1-50-2.6.1c-40.6 3.1-82.5 16.8-121.2 39.9-19.1 11.7-36.4 24.9-51.8 39.4-16.5 16-30.7 32.5-42.5 49.5-24.2 35.1-42.1 75.3-51.6 116.5-10.4 46.6-11.3 88.1-2.9 126.9v.1c2.6 11.8 11.4 21.4 22.9 25 17.7 5.7 36.8-4.2 42.5-22 12-37.9 23.8-69.3 36.3-96.9 13.4-29.9 29.3-58 47.2-83.5 17.8-24.9 38.3-48 62.5-70.4 24.6-22.1 52.3-42.4 80.9-62.8 9.8-7.2 15-18.4 14.2-30.3-1.4-17.9-16.4-31.5-33.9-31.5" style="fill:#231f20;fill-opacity:1;fill-rule:nonzero;stroke:none" transform="matrix(.0145 0 0 -.0145 -105.877 648.927)"/><path d="M13394.9 36450.8c-11.1 13.4-23.3 24.4-35.9 34.8-12.7 10.3-25.8 19.8-39.4 28.4-13.7 8.5-27.6 16.7-42.2 23.7-14.8 7.3-29 13.6-47.8 19.3-35.7 10.2-68.2 11.9-99.9 12.6-15.8.4-31.5 0-47.3-.5-15.7-.5-31.6-1.2-48-3.1h-.3c-6.7-.7-11.6-6.8-10.8-13.5.4-3.7 2.6-6.9 5.5-8.9 28.5-18.4 59.9-30 90.6-39.4 30.5-9.4 60.9-16 85.6-24.5 3.2-1 6-2.2 9-3.3 3.3-1.3 6.6-2.8 10-4 7-2.7 13.9-5.7 21.2-8.3 14.2-5.7 29-10.7 44-15.5 30.2-9 61.3-16.9 95.5-18.5 7-.3 12.9 5.1 13.2 12 .1 3.3-1 6.3-2.9 8.6z" style="fill:#acb26c;fill-opacity:1;fill-rule:nonzero;stroke:none" transform="matrix(.0145 0 0 -.0145 -105.877 648.927)"/><path d="M13081.8 36544.1c15.9-6.7 31.5-11.8 44.9-15.9 13.3-4.1 26.5-7.7 39.2-11.1 16.8-4.5 32.7-8.8 47.3-13.8 1.7-.5 4-1.4 6.3-2.3l7.7-3c1.8-.7 3.5-1.5 5.3-2.1 3.4-1.3 6.3-2.5 9.1-3.6 4-1.6 8-3.3 12-4.7 15.2-6 30.3-11 43.2-15.1 17.3-5.2 35.7-10.2 55-13.6-3 2.6-5.9 5.1-8.8 7.4-11.7 9.6-24.2 18.6-36.8 26.6-15.6 9.7-27.9 16.6-39.6 22.3-15 7.3-27.5 12.8-44.3 17.9-33 9.4-64.1 10.9-93.1 11.5-15.7.4-31.4 0-46-.5zm294-109.4h.1zm9.5-29.6h-1.7c-37.4 1.7-70.9 10.4-101.5 19.6-14.2 4.5-30.3 9.8-46.2 16.1-3.9 1.4-8.5 3.3-13 5.1-2.6 1.1-5.2 2.1-7.9 3.1-2 .8-4.6 1.8-7.1 2.9l-6.3 2.4c-1.2.5-2.5 1-3.9 1.4-13.8 4.8-28.9 8.8-44.8 13.1-13.3 3.6-27.1 7.3-40.9 11.6-27.6 8.4-63.7 20.9-96.7 42.2-9.5 6.2-15.6 16.1-16.8 27.1-1.2 9.9 1.7 19.6 7.9 27.4 6.1 7.8 15 12.7 24.9 13.8 17.9 2 34.6 2.7 50.3 3.2 15.4.5 31.8.9 48.7.5 32.2-.7 67-2.4 106.1-13.5 20.4-6.2 35.4-12.9 52-20.9 13.3-6.4 27.1-14.2 44.4-25 14.5-9.2 28.6-19.3 42-30.2 12.1-10 26.2-22.3 39.4-38.2 6.1-7.5 9.1-16.5 8.7-25.8-1-20.2-17.7-35.9-37.6-35.9" style="fill:#231f20;fill-opacity:1;fill-rule:nonzero;stroke:none" transform="matrix(.0145 0 0 -.0145 -105.877 648.927)"/><path d="M14362.4 36336.7c0-73.7-59.7-133.5-133.4-133.5-73.8 0-133.5 59.8-133.5 133.5s59.7 133.5 133.5 133.5c73.7 0 133.4-59.8 133.4-133.5" style="fill:#100f0d;fill-opacity:1;fill-rule:nonzero;stroke:none" transform="matrix(.0145 0 0 -.0145 -105.877 648.927)"/><path d="M14229 36445.2c-59.8 0-108.5-48.7-108.5-108.5s48.7-108.5 108.5-108.5 108.4 48.7 108.4 108.5-48.6 108.5-108.4 108.5m0-267c-87.4 0-158.5 71.1-158.5 158.5s71.1 158.5 158.5 158.5c87.3 0 158.4-71.1 158.4-158.5s-71.1-158.5-158.4-158.5" style="fill:#231f20;fill-opacity:1;fill-rule:nonzero;stroke:none" transform="matrix(.0145 0 0 -.0145 -105.877 648.927)"/><path d="m13536.7 43766.4-7.9-2286.5c-.3-50.2 33.6-94.1 82.2-106.4 141.7-35.8 442.9-101.4 725.4-94.8 237.2 5.5 401.6 31.4 493.2 50.6 50.4 10.6 86.4 55.3 86.4 106.8v2345c0 60.9-49.7 110-110.6 109.2l-1160.9-15.1c-59.6-.8-107.5-49.2-107.8-108.8" style="fill:#c03222;fill-opacity:1;fill-rule:nonzero;stroke:none" transform="matrix(.0145 0 0 -.0145 -105.877 648.927)"/><path d="m13556.9 43766.3-7.9-2286.5c-.2-41 27.4-76.7 67-86.7 150.2-37.9 443.2-100.6 719.9-94.2 232.4 5.4 394.5 30.3 489.5 50.2 40.8 8.5 70.4 45.1 70.4 87v2345c0 24-9.4 46.5-26.5 63.3-17.1 16.9-39.6 26.4-63.7 25.7l-1160.8-15.2c-48.3-.6-87.7-40.3-87.9-88.6m739-2508.3c-268.7 0-545 59.3-689.8 95.9-57.7 14.6-97.8 66.4-97.6 126.1l8 2286.5c.3 70.1 57.6 128 127.7 128.9l1160.9 15.2c35.4.3 67.8-12.8 92.6-37.4 24.9-24.5 38.6-57.2 38.6-92.1v-2345c0-60.9-43.2-114.2-102.6-126.6-96.7-20.3-261.4-45.6-496.8-51.1-13.6-.3-27.3-.4-41-.4" style="fill:#231f20;fill-opacity:1;fill-rule:nonzero;stroke:none" transform="matrix(.0145 0 0 -.0145 -105.877 648.927)"/><path d="M13738.9 41512.2c-1.2 0-2.4 0-3.5.1-171.2 4.5-135.2 297.3-135.2 297.3v1187.2c22.6-14.6 47.8-25.9 74.9-33.3 68.2-18.7 136.1-34.1 203.8-46.1l-8.4-1134.8s22.2-270.4-131.6-270.4" style="fill:#da7d65;fill-opacity:1;fill-rule:nonzero;stroke:none" transform="matrix(.0145 0 0 -.0145 -105.877 648.927)"/><path d="m14952.4 43388.4-1.2 1.9 1 67.7c12.8 27.1 31.5 107.3 31.5 137.1l-12.1 510.7h-1495.8l-3.7-523.9c.1-16.3 12.4-47.9 16.9-63.7l3.6-12.4 3.9-106c-11.3-29.6-17.3-61.1-17.4-92.8-2-32.9-3.7-61.8-5.3-87.6l.6-2.1c.5 21.6.9 30.7 1.4 19.3 0-10.8.7-21.4 1.9-31.9 3.1-11.9 7.2-23.3 19.2-29.3-12 6-16.1 17.4-19.2 29.3 9.6-79.8 54.4-150.1 120.3-193.2 23.2-15.3 49.1-27.1 77.1-34.8 69.6-19.1 138.9-34.7 208-46.8 301.4-53.2 598.8-40.3 892.1 43.6 116.1 33.2 196.4 138.5 196.4 259.1.3 10 .6-3.3.9-30.4.8 7.8 1.8 15.7 3.2 23.5-1 25.2-2.1 53.2-3.4 85.1 0 27.1-6.9 53.7-19.9 77.6" style="fill:#c03222;fill-opacity:1;fill-rule:nonzero;stroke:none" transform="matrix(.0145 0 0 -.0145 -105.877 648.927)"/><path d="M13883.1 42916.6c-1.4.3-2.8.5-4.2.8l.1 13.2c1.4-.2 2.7-.4 4.1-.7zm-282.9 80.2c-.7.5-1.5.9-2.2 1.4v13.3c.7-.5 1.5-1 2.2-1.4z" style="fill:#da7d65;fill-opacity:1;fill-rule:nonzero;stroke:none" transform="matrix(.0145 0 0 -.0145 -105.877 648.927)"/><path d="M13878.9 42917.4c-67.7 12-135.6 27.4-203.8 46.1-27.1 7.4-52.3 18.7-74.9 33.3v13.3c22.6-14.6 47.8-25.9 74.9-33.4 68.2-18.7 136.2-34.1 203.9-46.1z" style="fill:#e9b4a5;fill-opacity:1;fill-rule:nonzero;stroke:none" transform="matrix(.0145 0 0 -.0145 -105.877 648.927)"/><path d="M13883.1 42929.9c-1.4.3-2.7.5-4.1.7-67.7 12-135.7 27.4-203.9 46.1-27.1 7.5-52.3 18.8-74.9 33.4-.7.4-1.5.9-2.2 1.4V44088h285.1z" style="fill:#da7d65;fill-opacity:1;fill-rule:nonzero;stroke:none" transform="matrix(.0145 0 0 -.0145 -105.877 648.927)"/><path d="m13500.6 44080.8-3.5-499.1c.1-7.8 6.9-28.4 10.9-40.8 2-6 3.8-11.4 5.1-15.7l4.4-15.5 4.1-114.1-1.8-4.7c-10.3-26.9-15.6-55.2-15.7-84v-1.4c-15.4-256 49.1-272.2 146.9-296.6 10-2.6 20.3-5.1 30.7-8 371.9-102.1 737.5-103.2 1086.7-3.3l10 2.8c104.9 29.8 174.1 49.4 168.8 309.9-.5 24.4-6.1 46.6-16.8 66l-4.2 7.7 1.1 79.8 2.3 4.9c11.4 24.2 29.1 101 29.1 126.5l-11.5 485.6zm739-1207.3c-187.9 0-378.7 26.4-571.1 79.2-10.1 2.7-20 5.2-29.7 7.6-125.9 31.6-201.2 70.7-184.7 347.5.2 32.9 6 65.2 17.2 96.1l-3.5 97.8-2.8 9.6c-1.1 3.8-2.7 8.6-4.4 14-7.6 22.8-13.4 41.5-13.5 56.3l3.9 549.2h1545l12.7-535c0-31.6-17.4-109-31.6-143.2l-.8-56.2c13.3-25.5 20.3-54.1 20.9-85.1 6.1-299.1-91.8-326.8-205.1-359l-10-2.8c-177.1-50.7-358.4-76-542.5-76" style="fill:#231f20;fill-opacity:1;fill-rule:nonzero;stroke:none" transform="matrix(.0145 0 0 -.0145 -105.877 648.927)"/><path d="M14983.5 44110.8c0-75.3-149.3-135.9-355.4-174-116.8-21.5-255-32.2-404.4-32.2s-287.3 12.3-404.1 33.8c-206.1 38.1-340.8 97.1-340.8 172.4 0 75.4 133.4 141.4 339.5 179.4 116.8 21.6 256 33.6 405.4 33.6s288.9-10.4 405.7-32c206.1-38.1 354.1-105.6 354.1-181" style="fill:#d25a3e;fill-opacity:1;fill-rule:nonzero;stroke:none" transform="matrix(.0145 0 0 -.0145 -105.877 648.927)"/><path d="M14223.7 44298.8c-144.7 0-283.4-11.5-400.9-33.2-220.4-40.7-319.1-107-319.1-154.8 0-42.8 84.2-104.2 320.4-147.8 118.5-21.9 256.7-33.4 399.6-33.4 150.9 0 285.4 10.7 399.9 31.8 247.2 45.7 334.9 109 334.9 149.4 0 45.7-104.4 114.1-333.6 156.4-111.9 20.7-250.6 31.6-401.2 31.6m0-419.2c-145.9 0-287.2 11.8-408.7 34.2-239.7 44.3-361.3 110.6-361.3 197 0 119.7 225.6 179.2 360.1 204 120.4 22.3 262.2 34 409.9 34 155.8 0 293.8-10.9 410.2-32.4 112.7-20.8 374.6-82.5 374.6-205.6 0-106.7-204.4-166.9-375.8-198.6-117.5-21.6-255.1-32.6-409-32.6" style="fill:#231f20;fill-opacity:1;fill-rule:nonzero;stroke:none" transform="matrix(.0145 0 0 -.0145 -105.877 648.927)"/><path d="M14233.9 43317.2c-365.3 0-671 77.2-736.5 176.1-1.2-23.5-.6-70.6 3.9-94.4 69.7-97.4 367.3-167 728.8-167 367.5 0 662.1 59.7 722.5 156 1.5 17.7-1.3 48.2-2 77.4-96.9-86.1-383.1-148.1-716.7-148.1" style="fill:#371516;fill-opacity:1;fill-rule:nonzero;stroke:none" transform="matrix(.0145 0 0 -.0145 -105.877 648.927)"/><path d="M13524.9 43409.1c62.2-76.3 321-152.2 705.2-152.2 352.5 0 636.6 57 697.9 139.3.1 6.1-.1 13.7-.5 21.9-127.6-76.4-394.6-126-693.6-126-319 0-592.9 56.4-711.2 141.7.5-9.1 1.3-17.7 2.2-24.7m705.2-202.2c-372.1 0-673.2 71.3-749.2 177.4l-3.2 4.5-1 5.5c-4.9 26.2-5.6 75.1-4.2 100.4l4.1 75.5 41.7-63.1c53.6-81.1 335.9-164.9 715.6-164.9 318.2 0 606.1 58.3 700 141.8l40.4 35.9 1.3-54c.2-10.3.7-20.8 1.2-30.8 1-19.5 1.8-36.4.7-49.4l-.5-6-3.2-5.1c-77.6-123.6-435.1-167.7-743.7-167.7" style="fill:#231f20;fill-opacity:1;fill-rule:nonzero;stroke:none" transform="matrix(.0145 0 0 -.0145 -105.877 648.927)"/></svg>