<svg xmlns="http://www.w3.org/2000/svg" xml:space="preserve" width="200mm" height="200mm" viewBox="0 0 200 200"><path d="M31675.9 2094.3c-57.8 0-115.5 1.3-173 4.2-310.8 15.7-1044.3 94-1120.1 459.9-66.8 321.8-6.7 426.2 4 753.8 6.7 207.8 82.3 333.6 74.7 539-5.4 146.8-249.7 2899.2-258.9 3535.3-5.6 385.4-45.3 781.2 241 1097.9 122.3 135.3 490.1 292.4 600 438 110.3 146.2 159.6 304.8 166.8 476 13.3 317.2 48 650.6 31.3 967.3-7 131.8 35.4 330.9 63.6 429.7 20.4 8 43.6 11.2 68.5 11.2 100.3 0 229.6-51.6 322.4-52.9 51.1-.7 102.9-3.8 154.5-3.8 42.7 0 85.2 2.1 127.1 9.3 58.9 10.2 82.1 43 126.3 43 12.7 0 27.2-2.8 44.7-9.5 73.6-119.4 86.4-238.6 68.7-355.1-48.5-319.9 22.3-676.6 27.4-999.5 2.7-169.5 28.7-336.3 126.6-487.2 90.9-140.2 409.3-271 528.7-385.9 317.9-306 317.6-673.6 304-1070.3-21.8-635.6-230-3480-233.8-3643.6-4.3-188.2 75.4-320.7 74.8-504.1-.9-285.1 3.5-270.2 2.5-555.3-.4-135 37.2-284-76-382.4-160.9-139.7-469.4-261.4-675.6-280-205.3-18.4-413.3-35-620.2-35" style="fill:#694b2b;fill-opacity:1;fill-rule:nonzero;stroke:none" transform="matrix(.0174 0 0 -.0174 -451.492 228.02)"/><path d="M31583 11281.5V9481.9c0-61.8-51.6-111.1-113.3-108.5l-2.3.1c-58.2 2.3-104 50.3-104 108.5v1809.4z" style="fill:#8c7456;fill-opacity:1;fill-rule:nonzero;stroke:none" transform="matrix(.0174 0 0 -.0174 -451.492 228.02)"/><path d="M32371.5 8950.9c-79 121.7-126.7 253.7-126.4 389.2-166.7-20.7-324.2-36.5-537.1-32.3-246.8 4.9-372.9 48.1-497.5 93.4 0-1-.1-1.9-.1-2.8-7.2-171.2-56.5-329.8-166.8-476-109.9-145.6-477.7-302.7-600-438-286.3-316.7-246.6-712.5-241-1097.9 9.2-636.1 253.5-3388.5 258.9-3535.3 7.6-205.4-68-331.2-74.8-539-10.6-327.6-70.7-432-3.9-753.8 75.8-365.9 809.3-444.2 1120.1-459.9 263.6-13.3 530.6 7.3 793.2 30.8 206.2 18.6 514.7 140.3 675.6 280 113.2 98.4 75.6 247.4 76 382.4 1 285.1-3.4 270.2-2.5 555.3.6 183.3-79.1 315.9-74.8 504.1 3.8 163.6 212 3008 233.8 3643.6 13.6 396.7 13.9 764.3-304 1070.3-119.4 114.9-437.8 245.7-528.7 385.9" style="fill:#331a15;fill-opacity:1;fill-rule:nonzero;stroke:none" transform="matrix(.0174 0 0 -.0174 -451.492 228.02)"/><path d="M31066.1 8622.1s-538.7-460.6-538.7-996.3 229.2-3985.6 229.2-3985.6l492.9-107.1s-183.4 3899.8-114.6 4210.5 206.3 910.7-68.8 878.5m1663.5-4803.3h-1.4c-38 .7-68.2 30-67.4 65.5l159.1 4111.1c.7 35.5 32.3 63.3 70.1 63 38-.6 68.2-30 67.5-65.5l-159.2-4111c-.7-35.1-31.4-63.1-68.7-63.1" style="fill:#793919;fill-opacity:1;fill-rule:nonzero;stroke:none" transform="matrix(.0174 0 0 -.0174 -451.492 228.02)"/><path d="M30619.1 3676s-53.5-135.7-45.9-360.7c7.7-225 7.7-985.7 7.7-985.7s183.4-75 263.6-89.3 259.8-32.1 259.8-32.1l19.1 1349.9-298 64.3z" style="fill:#793919;fill-opacity:1;fill-rule:nonzero;stroke:none" transform="matrix(.0174 0 0 -.0174 -451.492 228.02)"/><path d="M31808 3476.9c-383 0-837.7 58.2-1226.1 189-10.7 3.6-16.5 15.3-12.9 26.1 3.6 10.7 15.3 16.5 26.1 12.9 659.7-222.2 1511-233.3 1862.4-104.3 10.6 3.9 22.5-1.5 26.4-12.2s-1.6-22.5-12.2-26.4c-149.7-55-388.2-85.1-663.7-85.1" style="fill:#231f20;fill-opacity:1;fill-rule:nonzero;stroke:none" transform="matrix(.0174 0 0 -.0174 -451.492 228.02)"/><path d="M32828.5 3581.3s89.8 0 97.5-192.8c7.6-192.9-13.4-914.3-13.4-914.3s-30.6-71.4-99.4-92.8c-68.7-21.4 15.3 1199.9 15.3 1199.9" style="fill:#793919;fill-opacity:1;fill-rule:nonzero;stroke:none" transform="matrix(.0174 0 0 -.0174 -451.492 228.02)"/><path d="m32983.4 7158.8-111.6-1944.3c-1.9-32.1-10.8-62.6-25.3-90.1l-.2-.1c-28.4-54.2-79.1-96.9-142-117.2-8.3-2.7-16.6-5-25.2-6.9-502.8-110.4-971.9-133-1490.5-55.2-142.8 21.4-289.5 50.4-441.6 87.3-30.2 7.3-58.1 19.7-82.5 36.1-59.9 40-99.3 103.8-103.9 175.4L30435 7185.4c-5.3 81.9 35 154.9 98.7 200 50.1 35.4 114.7 53.5 183.2 44.9 137.1-17.4 271-31.6 402.7-42.8 545.6-46.7 1052.8-41.3 1588.1 15.2 30.9 3.2 60.9 1.1 89.1-5.7 53.9-12.9 101-42.4 134.4-82.6 35.4-42.4 55.6-96.8 52.2-155.6" style="fill:#e1c5b2;fill-opacity:1;fill-rule:nonzero;stroke:none" transform="matrix(.0174 0 0 -.0174 -451.492 228.02)"/><path d="M31188.6 4945c-142.8 21.4-289.5 50.4-441.6 87.3-30.2 7.3-58.1 19.7-82.5 36.1-52.5 837.8-111.6 1825.6-130.8 2317 50.1 35.4 114.7 53.5 183.2 44.9 137.1-17.4 271-31.6 402.7-42.8-1.5-544.3 34.6-1581.1 69-2442.5m1742.6 2369.4-84.7-2190-.2-.1c-28.4-54.2-79.1-96.9-142-117.2l92.5 2389.9c53.9-12.9 101-42.4 134.4-82.6" style="fill:#f1e1d7;fill-opacity:1;fill-rule:nonzero;stroke:none" transform="matrix(.0174 0 0 -.0174 -451.492 228.02)"/><path d="M30682.9 7411.8c-60.6 0-118.3-22.3-161.8-63.2-46.2-43.4-69.4-100.9-65.5-161.8l125.5-1941.7c5.9-91.9 74.6-169.4 170.8-192.8 688.9-167.1 1264-176.7 1922.8-32 98.6 21.6 171.2 102 176.5 195.5l111.7 1944.2c3.5 59.9-19.5 116.6-64.6 159.6-49.5 47.2-118.3 70-188.5 62.6-669.3-70.6-1284.7-62.2-1995.5 27.6-10.5 1.4-21 2-31.4 2m1105.8-2532.6c-338.7 0-680.1 44.3-1046.5 133.2-113.8 27.6-195 120-202.1 230.1l-125.5 1941.7c-4.7 72.3 23.8 143.1 78.3 194.4 60 56.4 142.6 82.7 226.6 72 707.5-89.3 1320-97.8 1986-27.5 82.2 8.8 162.9-18.1 221.2-73.7 53.2-50.7 81.4-120.6 77.3-191.8l-111.7-1944.2c-6.4-111.8-92.3-207.7-208.8-233.3-305.9-67.2-599.3-100.9-894.8-100.9" style="fill:#231f20;fill-opacity:1;fill-rule:nonzero;stroke:none" transform="matrix(.0174 0 0 -.0174 -451.492 228.02)"/><path d="M31167.1 5630.6c1.2-94.2 175.5-199.7 326.8-187.6s175.5 96.9 121 169.5c-54.4 72.6-450 206.5-447.8 18.1" style="fill:#71331d;fill-opacity:1;fill-rule:nonzero;stroke:none" transform="matrix(.0174 0 0 -.0174 -451.492 228.02)"/><path d="M31294.1 5706.2c-22 0-42.1-2.5-59-8.2-32.8-11.1-47.8-32.5-47.4-67.1.3-24.3 16.6-52.5 45.9-79.2 64.6-58.9 170.9-95.1 258.7-88.2 65.8 5.3 109.8 25.3 123.8 56.5 10.3 22.8 4.1 51.2-17.6 80.1-30.4 40.6-192.2 106.1-304.4 106.1m175.6-284.7c-93.4 0-196.6 38.5-263.8 99.8-38.4 35-58.9 72.7-59.3 109.1-.7 52.7 25.4 89.6 75.3 106.5 123.7 42.1 364.7-52.4 409.5-112.1 30.6-40.8 38.7-85.2 22.2-121.8-14.5-32.1-53.6-72.1-158-80.5-8.5-.6-17.2-1-25.9-1" style="fill:#231f20;fill-opacity:1;fill-rule:nonzero;stroke:none" transform="matrix(.0174 0 0 -.0174 -451.492 228.02)"/><path d="M31274.9 5634s97.6 24.9 137.3-28.3c56.7-76.1 214.5-69.2 214.5-69.2z" style="fill:#71331d;fill-opacity:1;fill-rule:nonzero;stroke:none" transform="matrix(.0174 0 0 -.0174 -451.492 228.02)"/><path d="M31616 5515.7c-39.3 0-166.6 5.8-220.3 77.7-25.7 34.4-92.3 26.6-115.7 20.7-11-2.8-22.2 3.9-25 14.9s3.8 22.2 14.8 25c4.6 1.1 111.5 27.5 158.9-36 49.5-66.4 195.6-61 197.1-61 11.4.2 20.9-8.3 21.4-19.7.5-11.3-8.3-20.9-19.6-21.4-1 0-5.1-.2-11.6-.2" style="fill:#231f20;fill-opacity:1;fill-rule:nonzero;stroke:none" transform="matrix(.0174 0 0 -.0174 -451.492 228.02)"/><path d="M32254.9 5767.7c-54.4 76.9-244.8 73.6-351-14.5-106.3-88.2-76.2-170.4 5.8-202s454 62.7 345.2 216.5" style="fill:#71331d;fill-opacity:1;fill-rule:nonzero;stroke:none" transform="matrix(.0174 0 0 -.0174 -451.492 228.02)"/><path d="M32109.3 5802c-69.8 0-143.5-24.2-192.3-64.7-44-36.4-65.3-74-60.1-105.9 4.2-25.6 26.1-47.9 60.2-61 52.6-20.3 259.8 22.7 321.2 101.6 21.1 27.1 21.1 53.7-.2 83.8-15.9 22.5-48.5 38.1-91.8 43.8-12.1 1.6-24.5 2.4-37 2.4m-155-277c-21.7 0-39.7 2.3-52 7-48 18.5-79.4 52.3-86 92.8-5.4 33.1 3.1 85 74.5 144.2 66.8 55.5 169.2 83.5 260.8 71.4 54.8-7.3 97.5-28.8 120.1-60.8 31.5-44.5 31.1-91.7-.9-132.8-60.9-78.3-222.7-121.8-316.5-121.8" style="fill:#231f20;fill-opacity:1;fill-rule:nonzero;stroke:none" transform="matrix(.0174 0 0 -.0174 -451.492 228.02)"/><path d="M32176.2 5709.2s-47.4-18.7-109-.3c-81 24.2-181.6-84-208.8-122.6z" style="fill:#71331d;fill-opacity:1;fill-rule:nonzero;stroke:none" transform="matrix(.0174 0 0 -.0174 -451.492 228.02)"/><path d="M31858.4 5565.8c-4.1 0-8.3 1.2-11.9 3.8-9.3 6.5-11.5 19.3-4.9 28.6 30.2 42.8 137.4 158.5 231.5 130.4 53.4-16 95.2-.4 95.7-.2 10.6 4 22.5-1.2 26.5-11.8 4.1-10.5-1-22.4-11.5-26.5-2.2-.9-54.8-21.2-122.5-.9-66.3 19.8-159.6-77.2-186.1-114.7-4-5.7-10.4-8.7-16.8-8.7" style="fill:#231f20;fill-opacity:1;fill-rule:nonzero;stroke:none" transform="matrix(.0174 0 0 -.0174 -451.492 228.02)"/><path d="M31607.6 5284.7c34.7-87.6 220.4-129.4 344.5-68.9 124.1 60.4 114.3 147.4 42.1 197.5s-455.9 46.5-386.6-128.6" style="fill:#9b5f20;fill-opacity:1;fill-rule:nonzero;stroke:none" transform="matrix(.0174 0 0 -.0174 -451.492 228.02)"/><path d="M31626.7 5292.2c10.2-25.6 38.2-48.4 78.9-64.2 74.8-29.1 170.2-26.5 237.5 6.2 51.3 25.1 81 56.6 83.5 88.7 1.9 25.9-14.1 52.7-44.1 73.5-46.3 32.2-257.8 39.5-336.2-22.7-26.9-21.3-33.1-47.2-19.6-81.5m191.7-125.7c-43.6 0-87.8 7.6-127.6 23.1-51.6 20-87.9 51.1-102.3 87.5-20.1 50.7-8.6 96.4 32.3 128.8 95.5 75.8 327.3 64.5 385.2 24.3 42.2-29.3 64.7-69.6 61.6-110.4-2.6-33.5-23.1-81.9-106.5-122.5-41.9-20.5-92-30.8-142.7-30.8" style="fill:#231f20;fill-opacity:1;fill-rule:nonzero;stroke:none" transform="matrix(.0174 0 0 -.0174 -451.492 228.02)"/><path d="M31706.7 5311.3s45 30.1 109.3 31.3c94.3 1.8 187.9-48.6 223.5-17.6z" style="fill:#71331d;fill-opacity:1;fill-rule:nonzero;stroke:none" transform="matrix(.0174 0 0 -.0174 -451.492 228.02)"/><path d="M31706.7 5290.7c-6.6 0-13.1 3.3-17.1 9.2-6.3 9.4-3.8 22.2 5.7 28.5 2 1.4 50.8 33.5 120.3 34.8 43.5.9 85.2-8.5 122.2-16.7 37.3-8.2 75.8-16.7 88.1-6 8.6 7.5 21.6 6.6 29-1.9 7.5-8.6 6.6-21.6-1.9-29.1-28-24.4-72.6-14.5-124.1-3.1-34.8 7.7-74.3 16.6-112.5 15.7-57.6-1.1-97.9-27.6-98.3-27.9-3.5-2.3-7.4-3.5-11.4-3.5" style="fill:#231f20;fill-opacity:1;fill-rule:nonzero;stroke:none" transform="matrix(.0174 0 0 -.0174 -451.492 228.02)"/><path d="M31261 10789.3c-2.7-41-.8-130.1 1-216.6 1.4-70.1 3-142.7 2.3-197-3.2-275.1-15.6-562.7-27.5-840.7-2-46.2-4-92.1-5.9-137.5-7.8-185.9-63.7-345.4-170.9-487.5-60.9-80.6-195-162.9-324.7-242.5-108.8-66.8-221.3-135.9-276.5-196.9-253.6-280.6-245.6-633-237.8-973.8.8-36.7 1.6-73.4 2.2-110 6.5-455.6 132.5-1980.6 207.7-2891.8 28.8-349 49.6-601.1 51.2-643.1 4.1-112.8-16.6-203.9-36.7-292-17.2-75.7-35-154-38.1-248.4-3.5-108-12.4-192.5-20.3-267-16.4-156-28.3-268.7 15.9-481.9 75.4-363.8 861.8-431.5 1101-443.5 264.7-13.3 535.6 7.8 790.4 30.7 209.9 18.9 513.9 144.8 663.9 275.1 82.8 71.9 77.5 174.5 71.8 283-1.5 27.6-2.9 56.1-2.9 83.8.5 142.9-.3 211.6-1.2 278.1-.8 66.4-1.7 135.1-1.2 277.3.3 86.8-17.7 160.8-36.8 239.1-19.8 81.7-40.3 166.1-38 265.3 1.4 60.8 30.7 488.1 67.9 1029.2 64.2 934.2 152.1 2213.7 165.9 2614.7 14.9 435.4 2.3 766-297.8 1054.8-47.9 46.1-130.2 95.6-217.4 148.1-127.1 76.4-258.5 155.4-314.3 241.4-86.5 133.3-126.5 286.9-129.9 498.1-1.9 120.5-8.2 240-14.8 366.6-10.9 206.2-22.1 419.3-12.5 634.1 5 111.7 6.3 262.4 3.3 352.9-41.4 9.9-88.7-8.2-134.5-25.9-27.9-10.7-56.8-21.8-84.5-26.5-72.8-12.5-147.3-10-219.3-7.6-22.1.7-44.1 1.4-66 1.8-46.7.6-109.9 14-176.8 28.1-92.9 19.7-197.4 41.8-258.2 28m414.4-8715.5c-57.9 0-115.9 1.3-173.6 4.2-316.1 15.9-1060 94.3-1139.2 476.3-45.5 219.5-32.7 340.8-16.5 494.5 7.8 73.8 16.6 157.5 20.1 264.1 3.2 98.3 21.5 178.5 39.1 256.1 20.4 89.5 39.6 173.9 35.7 281.4-1.5 41-22.3 292.8-51.1 641.2-75.3 911.7-201.3 2437.6-207.9 2894.6-.5 36.5-1.3 73.1-2.2 109.7-7.9 348.8-16.1 709.6 248.5 1002.2 59.2 65.5 169.1 133 285.5 204.4 126.5 77.6 257.2 157.9 313.4 232.3 102 135.2 155.2 287.1 162.6 464.4 1.9 45.4 3.9 91.3 5.9 137.5 11.9 277.8 24.2 565 27.5 839.5.6 53.6-.9 125.8-2.4 195.7-2.1 103.5-4.2 201.3.7 236.1l1.8 12.4 11.8 4.2c68.9 24.2 182.6.2 292.6-23 64.9-13.8 126.1-26.7 168.8-27.3 22.2-.3 44.5-1.1 66.8-1.8 70.1-2.4 142.4-4.8 211 7 23.7 4.1 49.5 14 76.7 24.5 55.2 21.1 117.8 45.1 176.9 21.7l12.4-5 .5-13.3c3.8-89.1 2.6-251.9-2.7-370.7-9.5-212.8 1.7-425 12.5-630.1 6.4-121.4 13-246.9 14.9-368.2 3.2-203 41.2-349.9 123.2-476.3 50.6-78 177.9-154.6 301-228.6 89.2-53.7 173.5-104.4 224.7-153.7 336.5-323.8 322.6-728.7 310.4-1085.8-13.8-401.7-101.7-1681.6-165.9-2616.1-37.2-540.6-66.5-967.5-67.9-1027.3-2.2-93.8 17.7-175.6 36.9-254.7 18.8-77.3 38.2-157.2 37.9-248.9h-20.6 20.6c-.5-142 .4-210.4 1.3-276.7.8-66.6 1.7-135.5 1.2-278.7-.1-26.6 1.4-54.5 2.8-81.5 5.9-113.7 12.1-231.2-86-316.3-158-137.3-466.3-265.1-687.2-285-200.9-18-411.9-35-622.5-35" style="fill:#231f20;fill-opacity:1;fill-rule:nonzero;stroke:none" transform="matrix(.0174 0 0 -.0174 -451.492 228.02)"/><path d="M32239.5 11624.2V9762s-129.8-87.4-474.1-84.6c-90.8.8-170.7 9.5-238.9 21.8-97.2 17.7-171 42.9-219.6 63.1-45.7 19-96.1 39.5-96.1 39.5l29.7 1867.5 66.4-3.1 219.6-9.8z" style="fill:#4c2c15;fill-opacity:1;fill-rule:nonzero;stroke:none" transform="matrix(.0174 0 0 -.0174 -451.492 228.02)"/><path d="M31583 11644.6V9687.5c-97.3 17.7-171 42.8-219.6 63v1904z" style="fill:#8c7456;fill-opacity:1;fill-rule:nonzero;stroke:none" transform="matrix(.0174 0 0 -.0174 -451.492 228.02)"/><path d="M31245.1 9812.6c44.1-23.3 231.2-112.3 520.5-114.7 282.7-2.3 418.7 57.8 453.3 76.1v1830.5l-958 43.3zm536.6-155.9c-5.4 0-10.9.1-16.5.1-343.4 2.8-543.1 121.1-551.4 126.1l-10.1 6.1.2 11.7 16.2 1890.1 1040-47V9751.1l-9.1-6.1c-5.4-3.7-134.9-88.3-469.3-88.3" style="fill:#231f20;fill-opacity:1;fill-rule:nonzero;stroke:none" transform="matrix(.0174 0 0 -.0174 -451.492 228.02)"/><path d="m32302.6 11349.8-.5-158.1c0-89.2-59.4-167.1-145.1-191.7-213.9-61.2-430.9-71.3-650.6-33.8-54.3 9.2-108.6 21.3-163.2 36.3-15.5 4.2-30.1 10.2-43.7 17.8-62.7 34.3-103.7 100.5-103.7 174.4l2.6 152.2c0 23.5 4.4 46.8 12.8 68.7l-2.8 78.3-2.8 9.2c-3.3 11.7-5.1 23.7-5.2 35.9l-4.6 398.7h1106.3v-415.2c0-22.1-4.9-43.9-14.3-63.9l-.7-50.1.8-1.4c9.7-17.6 14.7-37.4 14.7-57.3" style="fill:#4c2c15;fill-opacity:1;fill-rule:nonzero;stroke:none" transform="matrix(.0174 0 0 -.0174 -451.492 228.02)"/><path d="m31216.6 11917.1 4.3-377.9c.2-10.2 1.7-20.5 4.5-30.5l3.4-11.5 3.1-85.1-1.5-3.9c-7.6-19.8-11.5-40.5-11.5-61.3l-2.5-152.6c0-64.7 35.6-124.6 93-156 12.5-6.9 25.7-12.3 39.3-16 54.3-14.9 108.5-26.9 161.1-35.8 218.1-37.3 434-26.1 641.5 33.3 76.7 22 130.2 92.6 130.2 171.9l.5 158.1c0 16.6-4.2 33-12.1 47.4l-3.4 6.3.8 59.8 1.9 4.1c8.1 17.1 12.3 36.2 12.3 55.1v394.6zm543.8-993.2c-85.3 0-171.2 7.3-257.5 22.1-53.9 9-109.5 21.4-165.1 36.6-16.6 4.6-32.9 11.2-48.3 19.6-70.4 38.7-114.2 112.4-114.2 192.5l2.5 152.5c0 24.2 4.3 48.4 12.7 71.7l-2.6 71.7-2 6.7c-3.8 13.6-5.9 27.5-6.1 41.4l-4.8 419.6h1147.7v-435.8c0-23.4-5-47-14.4-68.5l-.5-40.4c10-19.5 15.3-41.5 15.3-63.8l-.4-158.2c0-97.4-65.8-184.3-160.1-211.4-131.3-37.5-265.9-56.3-402.2-56.3" style="fill:#231f20;fill-opacity:1;fill-rule:nonzero;stroke:none" transform="matrix(.0174 0 0 -.0174 -451.492 228.02)"/><path d="M31506.4 10966.2c-54.3 9.2-108.6 21.3-163.2 36.3-15.5 4.2-30.1 10.2-43.7 17.8l-22.4 833.6 46.3 83.8 3.1 5.6 29.9-5.6 132.4-24.9z" style="fill:#8c7456;fill-opacity:1;fill-rule:nonzero;stroke:none" transform="matrix(.0174 0 0 -.0174 -451.492 228.02)"/><path d="M31756.5 11354.4c-270.2 0-496.2 57.1-544.6 130.3-1-17.4-.5-52.2 2.8-69.8 51.6-72 271.7-123.5 539-123.5 271.8 0 489.7 44.1 534.4 115.3 1.1 13.1-1 35.7-1.5 57.3-71.7-63.7-283.3-109.6-530.1-109.6" style="fill:#4c2c15;fill-opacity:1;fill-rule:nonzero;stroke:none" transform="matrix(.0174 0 0 -.0174 -451.492 228.02)"/><path d="M31234.2 11423.3c46.2-55.9 236.7-111.3 519.5-111.3 301.4 0 475.6 51.9 514.1 101.6.1 3.5 0 7.6-.2 12-95.9-55.7-292-91.7-511.1-91.7-233 0-433.7 40.7-523.6 102.7.3-4.9.8-9.4 1.3-13.3m519.5-152.5c-275.8 0-499.1 53.1-555.7 132.1l-2.7 3.7-.8 4.5c-3.7 19.4-4.2 55.9-3.2 74.7l3.4 62.2 34.3-51.9c39.4-59.5 247.4-121.1 527.5-121.1 234.9 0 447.3 42.9 516.4 104.4l33.2 29.5 1-44.4c.2-7.6.6-15.4 1-22.8.7-14.4 1.3-27 .5-36.7l-.5-5-2.6-4.2c-57.8-92.1-323-125-551.8-125" style="fill:#231f20;fill-opacity:1;fill-rule:nonzero;stroke:none" transform="matrix(.0174 0 0 -.0174 -451.492 228.02)"/><path d="M31806 11165.4c-7.2 0-14.4 0-21.5.1-244.9 3.1-499.9 56.5-593.2 124.3l24.2 33.3c85.8-62.4 336-113.5 569.5-116.5 251.5-3.3 466.5 46.8 502.8 93.6l32.5-25.2c-54-69.7-299.6-109.6-514.3-109.6" style="fill:#231f20;fill-opacity:1;fill-rule:nonzero;stroke:none" transform="matrix(.0174 0 0 -.0174 -451.492 228.02)"/><path d="m31216.7 11917.1 4.2-377.9c.2-10.3 1.7-20.5 4.5-30.4l3.4-11.6 3.1-85.1-1.5-3.9c-7.6-19.6-11.4-40.3-11.5-61.4l-2.5-152.5c0-79.7 54.4-150.6 132.3-172 274.7-75.3 544.8-76.2 802.6-2.5 76.7 22 130.3 92.7 130.3 171.9l.4 158.1c0 16.5-4.2 32.9-12.1 47.4l-3.5 6.1.9 60.1 1.9 4c8.1 17.1 12.4 36.2 12.4 55.1v394.6zm544.1-993.1c-139.2 0-280.5 19.6-423 58.7-95.7 26.2-162.5 113.4-162.5 212l2.5 152.5c.1 24.4 4.3 48.6 12.7 71.7l-2.6 71.7-2 6.8c-3.9 13.5-5.9 27.4-6.1 41.4l-4.7 419.4h1147.6v-435.7c0-23.4-5-47-14.4-68.5l-.6-40.4c10.2-19.8 15.5-41.7 15.4-63.9l-.4-158.1c0-97.4-65.8-184.3-160.1-211.3-131.2-37.5-265.5-56.3-401.8-56.3" style="fill:#231f20;fill-opacity:1;fill-rule:nonzero;stroke:none" transform="matrix(.0174 0 0 -.0174 -451.492 228.02)"/><path d="M32302.1 11941.4c0-87.2-247.6-158-553.1-158s-553.1 70.8-553.1 158c0 87.3 247.6 158.1 553.1 158.1s553.1-70.8 553.1-158.1" style="fill:#755a3a;fill-opacity:1;fill-rule:nonzero;stroke:none" transform="matrix(.0174 0 0 -.0174 -451.492 228.02)"/><path d="M31749 12078.9c-329.9 0-532.6-80.1-532.6-137.5s202.7-137.4 532.6-137.4c330 0 532.6 80 532.6 137.4s-202.6 137.5-532.6 137.5m0-316.1c-278.1 0-573.7 62.6-573.7 178.6s295.6 178.6 573.7 178.6 573.7-62.6 573.7-178.6-295.6-178.6-573.7-178.6" style="fill:#231f20;fill-opacity:1;fill-rule:nonzero;stroke:none" transform="matrix(.0174 0 0 -.0174 -451.492 228.02)"/><path d="M31178.1 7131.7c5 .2 10.5 0 16.7-.9 14.6-1.9 26.9-5.8 37-11.7 6.5-3.7 13.4-10.2 20.7-19.2 7.4-9.1 12-17 13.9-23.7 1.6-5.8 2.1-11.9 1.3-18.3-1.2-11-4.9-18-10.9-20.8-2.2-1.1-6-1.3-11.7-.6-4.6.5-8.6 3.1-11.9 7.6s-4.6 9.1-4 14c.5 4.2-1.6 9.5-6.3 16s-9.9 10.8-15 13.2c-3.4 1.6-7.6 3-12.5 3.6-16.4 2.2-35-2.6-56.1-14.2-21.2-11.7-38.7-27.1-52.7-46.2-20.3-28-34.3-59-41.2-93.1-.2-1.3-.7-3.3-1.3-6.2-.7-2.9-1.1-4.9-1.3-6.2-10.4-63.1 5.4-109 48.2-136.7q11.85-7.65 21.3-9 5.85-.9 9.6-.9c10.3-.5 18.6.4 25 2.5 6.4 2 13.5 6.3 21.5 12.8q12 9.75 17.1 16.5c3.4 4.5 6.9 11.7 10.6 21.2 7 17.7 16.4 26 27.8 24.6 5.2-.6 10.1-3.7 14.7-9.1 4.3-5.1 6.3-9.4 5.9-13-.1-.9-.8-3.6-2-8.1-5.2-20.3-16.3-39.1-33.8-56.3-17.4-17.2-36.1-27.8-55.7-31.7-10.1-2.3-24.5-2.5-42.8 0-16.9 2.2-30.6 6.7-40.5 12.8-30.1 19-50.9 42.4-62.6 69.7s-15.2 60.4-10.9 99.3c.2 3.2.9 8.2 2.1 14.9 6.7 39 21.1 74.5 42.3 106.4 21.3 32 44.7 55 70.6 69.1 9.8 5.3 21.3 10.2 34.3 14.5 13.1 4.3 24 6.7 32.6 7.2m256.4-169.9c-12.2 3.5-22.2 5.6-30 6.2-16.8 1.4-33.4-11.5-50.3-38.6-10-16-16.5-38.5-19.2-67.5-1.6-16.4-.8-31.8 2.4-46.1 3-13.3 8.1-25.6 15.4-36.8 7.3-11.3 15.8-19.1 24.3-23.8 7-3.9 16-6.7 26.6-7.5 19.4-1.5 36.1 3.1 49.8 12.4 10.4 7.2 20.5 19.9 29.1 38.4 8.7 18.4 14.9 39.8 18.7 63.9.9 4.8 1.7 11.4 2.1 19.8 1.1 17.8-4.4 33.5-16.1 47.3-7.3 8.8-14.8 15.6-22.4 20.1-7.7 4.6-17.8 8.6-30.4 12.2m-26.7 46h4c2 0 3.5-.1 4.5-.2 28-2.2 50.9-9.1 68.9-21 8.4-5.4 18.4-14.7 30.2-27.9s19.2-23.4 22.3-30.7c6.4-15.2 9.1-34.4 8-57.4-1.3-26.6-7.1-53.3-17.8-79.9-10.6-26.6-24-46.6-40.1-60-11.2-9.4-25-16.4-41.4-20.8s-32.9-6-49.3-4.7c-15.7 1.2-28.8 4.6-39.5 10.1-32.2 16.5-54.3 48.6-66 95.8-3 11.8-3.7 25.4-2 40.9.5 4.9.7 7.3 1.2 12.1 2.5 23.6 5.7 40.2 8.9 49.6 3.7 11 10.3 24.1 20.1 38.3s18.8 24.8 27.3 31.8c19.4 16.1 39.6 24.1 60.7 24m272.5-14.8c5.4 2.5 12.9 3.6 22.6 3.5q16.95-.15 33-6.3c10.7-4.2 17.3-9.3 20.1-14.9 1.8-3.9 3-7 3-9.3 0-2.6-1.8-6.2-5.6-10.7-3.7-4.6-8.6-6.8-14.6-6.8-3.4 0-7.5 1.2-12.1 3.5-6.8 3.6-14.2 5.4-22.2 5.5-2 0-4.4-.3-7.1-.9-7.1-2.5-13.8-12.3-20.2-29.4s-11.1-38.6-14.1-64c-2-16.8-3.2-28.9-3.3-36-.1-3.5-.1-5.3-.2-8.8 13.8.5 20.7.8 34.4 1.4 5.6.2 12.3.3 20.4.2 13.8-.1 23-3.1 27.5-8.9 2.1-2.3 3.2-5.7 3.1-10.3 0-4.5-1-7.9-3.1-10.2-3.2-3.9-7.8-6.5-14-8-6.1-1.4-17.2-2.5-33.4-3.3-12.6-.6-18.9-.9-31.6-1.4.1-5.1.2-7.6.3-12.7 0-1.9.1-6.3.3-12.9.2-6.7.4-15.4.5-26.3s.3-20.6.5-29c.5-27.1.8-40.7 1.4-67.8-.7-16.5-8.8-24.8-24.3-24.6-15.4.2-21.5 7.3-22.7 15.5-.2.8-.9 28.8-1.4 83.4-.3 37.3-.8 58.2-1.3 62.4-.6 5.1-1.4 8.6-2.5 10.1-1.2 1.5-3.8 2.6-7.6 3.4-5.2 1.1-9.8 3.6-13.9 7.3s-6.1 7.4-5.9 11c.1 3.8 2.3 7.8 6.4 11.9 4.2 4.1 8.6 6.6 13.1 7.4q5.7.75 6.9 3.6c.8 1.9 1.9 8.9 3.3 20.9 9.3 86.8 30.7 137.1 64.3 151.5m208.9 1.4c5.2 2.8 12.7 4.4 22.4 4.7 11.3.4 22.4-1.2 33.2-4.7 10.9-3.6 17.8-8.4 20.8-13.9 2-3.8 3.4-6.9 3.5-9.1.1-2.6-1.6-6.3-5-11q-5.25-7.05-14.4-7.5c-3.4-.2-7.5.8-12.2 2.9-7 3.2-14.4 4.7-22.5 4.4-2 0-4.4-.5-7-1.2-7-2.9-13.2-13-18.8-30.4-5.5-17.4-9.1-39-10.9-64.6-1.2-16.9-1.8-29-1.6-36.1.1-3.5.2-5.3.3-8.8 13.7 1.2 20.6 1.8 34.3 3 5.5.5 12.3 1 20.3 1.3 13.9.5 23.2-2 28-7.6 2.2-2.2 3.4-5.5 3.6-10.1.2-4.5-.7-8-2.7-10.3q-4.35-6.15-13.5-8.7c-6.1-1.7-17.1-3.4-33.2-5-12.6-1.2-18.9-1.8-31.5-2.9.4-5.1.5-7.6.9-12.7.1-1.9.3-6.2.9-12.8.5-6.7 1.1-15.4 1.8-26.3s1.3-20.5 1.9-29c1.9-27 2.8-40.5 4.7-67.6.1-16.5-7.5-25.2-23-25.7s-21.9 6.2-23.5 14.3c-.2.9-2.3 28.8-5.4 83.3-2.2 37.3-3.6 58.1-4.3 62.3-.9 5-1.9 8.4-3.1 9.9-1.3 1.4-3.9 2.4-7.7 3-5.3.9-10.1 3.1-14.3 6.6-4.2 3.6-6.4 7.1-6.4 10.7-.1 3.9 1.9 8 5.8 12.2 4 4.3 8.3 7.1 12.7 8 3.8.8 6.1 2.1 6.7 4 .7 2 1.5 9 2.3 21 5 87.2 24 138.4 56.9 154.4m279.5-34.8c-9.2 4-20.2 5.7-33.1 5.3-2.6-.3-3.9-.4-6.5-.6-9.4-.8-17-2.8-22.7-5.9-5.6-3-12.1-8.6-19.3-16.6-11.6-13-18.8-28.5-21.6-46.6-1.2-7.2-1.8-11.7-1.7-13.3.2-1.9 1-3.5 2.4-4.7 8-5.6 26.7-8.1 55.5-7.4 5.2.1 11.1.4 17.6 1 8.3.7 16.5 3.7 24.7 8.6 7.8 4.6 14.9 11.3 21.1 20.1s9.6 16.6 10.3 23.6c.2 1 .3 2.4.1 4.4-1.5 13.9-10.4 24.5-26.8 32.1m-72 41.6q9.6 4.2 28.2 5.7c17.3 1.5 32.6.7 46.1-2.5 10.6-2.6 21.5-7.9 32.4-15.8 11-8 19.7-16.8 25.3-26.2 5.9-10 9.4-20.1 10.5-29.8 2.1-19-4.4-38.8-20-59-20.1-26-47.4-40.6-81-43.5-1.1-.1-2.9-.2-5.5-.2-2.6-.1-4.7-.2-6-.3-16.8-.4-31.1.4-43.2 2.5-5.3 1.2-10.5 1.6-15.7 1.2l-1.6-.1c-.6-1 .5-6 3.4-14.9s6.3-17.1 10-24.7c3.3-6.8 8.6-13.6 16-20 7.3-6.5 14.9-11.1 22.5-13.6 8.7-3 17.2-4 25.3-3.3 22.6 1.9 39.3 12.4 49.8 31 5.2 8.7 9.2 14.4 12.1 16.9 3.5 3 7.5 4.7 11.7 5.1 5.5.6 10.7-.8 15.5-4.3 4.7-3.3 7.4-7.8 8-13.3.8-7.1-2-16.1-8.5-26.9s-14.5-19.6-23.8-26.4c-19.7-14.1-38.4-21.9-55.8-23.4-1.1-.1-2.6-.1-4.6-.1-1.9 0-3.6-.1-5.1-.2-26.4-1-50.5 6.3-71.8 21.8-15 10.9-27.1 26.8-36.3 47.4-9.2 20.5-14.5 43-15.9 67.3-.6 9.7-.5 20.7.6 32.8 2.3 27.4 10.5 51.4 24 71.8 13.6 20.4 31.3 35.4 53.4 45m335.1-8.1c-9.5 3.4-20.6 4.5-33.5 3.2l-6.5-1c-9.3-1.4-16.8-3.8-22.3-7.2s-11.5-9.4-18.2-17.8c-10.8-13.7-17.1-29.6-18.9-47.8-.7-7.4-1-11.8-.8-13.4.3-1.9 1.2-3.5 2.7-4.6 8.3-5.1 27.1-6.4 55.9-4 5.2.5 11.1 1.2 17.6 2.1 8.2 1.2 16.2 4.7 24.1 10.1 7.5 5.2 14.2 12.3 19.9 21.4 5.7 9.2 8.6 17.2 8.9 24.2.1 1 .1 2.5-.2 4.4-2.3 13.7-11.9 23.8-28.7 30.4m-74.7 37c6.4 3.2 15.6 5.7 27.9 7.5 17.2 2.6 32.6 2.7 46.3.3 10.8-1.9 21.9-6.5 33.4-13.8s20.7-15.5 26.9-24.6c6.5-9.5 10.6-19.4 12.3-29 3.3-18.9-2.1-39-16.4-60.1-18.5-27.2-44.9-43.5-78.4-48.5-1-.1-2.9-.3-5.5-.5s-4.6-.5-6-.7c-16.7-1.4-31.1-1.5-43.2-.2-5.4.9-10.7 1-15.9.4l-1.5-.2c-.6-1.1.9-6 4.3-14.7s7.3-16.8 11.4-24c3.8-6.7 9.5-13.1 17.3-19.1 7.7-6 15.6-10.1 23.4-12.2 8.8-2.4 17.4-2.9 25.5-1.7 22.4 3.3 38.4 14.7 47.9 34 4.6 9 8.3 14.9 11 17.6 3.3 3.2 7.2 5.1 11.4 5.8 5.5.9 10.7-.1 15.7-3.2 5-3.2 8-7.4 8.9-12.9q1.8-10.5-6.9-27.3c-5.9-11.2-13.2-20.5-22.2-27.9-18.8-15.2-37-24.2-54.4-26.8-1-.1-2.5-.3-4.5-.4s-3.7-.3-5.1-.5c-26.4-2.6-50.9 3.2-73.2 17.3-15.7 10.1-28.7 25.1-39.2 45.1-10.4 20-17 42.1-20 66.3-1.2 9.7-1.7 20.6-1.4 32.7.7 27.5 7.4 52 19.7 73.2s29.1 37.2 50.5 48.1m-1401-467.5c3.1 2.4 8.1 3.1 15 1.9 4-.7 7.7-2.1 11.1-4.3 16.5-11.6 12.9-98.8-10.4-261.9-5.3-38.4-7.9-57.6-13.2-96 21.6-3.2 32.5-4.8 54.2-7.7 53.4-6.9 85-10.1 94.5-11 15.9-1.4 24.8-2.1 26.4-2.3 9.9-1.2 16.8-3.2 20.5-5.9 7.5-5.1 10.8-11.4 9.9-18.8-1-9.4-7.4-15-19-16.9-7.1-1.1-47 1.2-118.6 10.1-44.8 5.5-70.2 9.4-75.8 10.3-19.8 3.1-32.4 5.9-37.9 8.1-5.6 2.3-9 5.6-10.2 10.1-.8 2.8 5.2 45.8 18.5 128.3 17.2 106.5 25.7 180.1 24.9 220.1-.1 10.6.2 17.6.8 21.2q1.5 8.55 9.3 14.7m285.9-201.4c3.5 2.6 9.4 3.5 17.1 2.7 7.3-.7 12.8-3.9 15.9-9.4 3-5.3 4.4-15.8 4.3-30.8 0-15-1.9-47.6-5.5-97.8-2.3-31.9-3.5-47.9-5.8-79.7-3.3-2.3-5-3.4-8.4-5.6-5.2-3.4-11.2-4.8-18-4.1-6 .6-11.4 2.8-16 6.8-4.7 3.9-7.3 8.9-7.9 14.7-.6 5.3 2.4 40.1 9.2 104.4 1.8 17.2 2.7 25.9 4.5 43.1 3.7 34.6 7.2 53.3 10.6 55.7m.7 40.6c-.8 3-1.1 5.8-.8 8.4q.75 7.35 6.6 11.1c3.9 2.5 9.3 3.4 16.1 2.8 6.4-.7 11.4-2.7 14.9-5.9 3.5-3.3 5.1-7.2 4.6-11.7-.3-3.3-1.3-6.1-3.1-8.6-4.1-6.7-11-9.6-20.5-8.7-9.2.9-15.1 5.2-17.8 12.6m290.4-38.4c-7.1 4.9-12.6 7.9-16.5 9.1-4 1.2-10.8 2.1-20.3 3-2.5.1-3.8.2-6.3.3-18.3 1-37.2-3.5-56.7-13.2-24.2-12.1-41.1-32.8-50.3-62.4-3-9.2-4.9-18.1-5.5-26.5-1.8-23.6 5.9-44.2 23.4-61.3 13.6-13.3 28.4-20.4 43.9-21.4 3.2-.2 5.6-.2 7.2.1 10.3.3 24.1 3.5 41 9.6 17 6.2 31.6 12.9 43.2 20.2 12.1 7.7 19 11.9 20.6 11.8 2.7-.1 6.5 21.5 11.3 64.9 1.7 15.6 2.6 23.3 4.3 38.9-3.6 3.4-5.3 5.1-8.9 8.6-6 5.4-9.9 8.2-11.8 8.3-1.9 0-8.1 3.4-18.6 10m63.5 58c4.6 1.5 9.4 1.3 14.2-.4 5.2-1.8 8.7-4.3 10.3-7.6s2.3-10 2-20.1c-.2-8.7-1.2-21.1-2.7-36.9-7.7-79.2-12.5-151.8-14.9-216.5-2.6-67.3-4.8-102.4-6.1-104.6-1.7-2.9-3.9-5.4-6.6-7.6q-4.05-3.3-17.7-2.4c-9.1.7-14.8 2-17.2 4.1-2.4 2-4.3 4.5-5.8 7.5-1.9 3.9-1.7 32.9.4 86.8 1.3 34.1 1.2 51.1-.4 51.2-1.6 0-9.5-2.9-23.7-8.8-31.7-13.2-61-18.9-87.4-17.3-14 .8-26.9 4-38.5 9.3-10.1 4.6-20.9 11.7-32.4 21.4s-20.1 18.8-25.7 27.4c-13.5 20.3-19 43.8-16.7 70.3 5.5 64.8 39.4 107.1 100.3 128.7 23.3 7.9 44.6 11.3 63.9 10.3 18.1-1 36.5-6.2 55.1-14.8 16.2-7.7 25.4-11.3 26.9-11.4 1.9 0 3.9 3.7 5.6 11 2.4 11.1 8 18.1 17.1 20.4m318.5-14.5c4.5 3.3 9 5.2 13.5 5.3 4.6.2 9.7-1.3 14.5-4.8 4.2-3.1 6.5-7.7 6.8-12.9q.3-8.7-5.4-38.7c-10.6-54-15.5-100.2-14.2-138.5 1-28.6 5.5-53.9 13.5-76.1 1.8-6.4 2.8-10.7 2.9-13 .5-14.3-7.3-21.7-23.4-22.3-18.2-.6-30.3 14.2-36.3 44.3-1.8 8.1-3.3 12.1-4.5 12.1-1.2-.1-5.6-4.3-13.5-12.5-23.8-26.6-53.9-40.1-89.7-40.3q-22.95 0-36.9 5.1c-9.2 3.5-19.9 10.2-31.8 20.4-18.7 15.8-31.8 36.7-39.3 62.9-3.7 12-5.3 33.8-4.8 65.3.5 27.3 2.4 53.7 5.7 79.1 3.4 25.5 7.4 41.1 12 46.9 4.3 5.4 10.7 8.1 19.5 8 8.7-.1 14.4-2.7 17.1-7.9 1.5-2.6 2.2-6.2 2.2-10.8 0-3.9-1-13.1-3.1-27.7-2.8-20.5-4.4-44.2-4.6-71.1-.2-32.8 1.6-55.6 5.4-68.3 6.2-20.4 14.5-35.6 24.8-45.4q16.2-15.15 34.2-15c27.6.1 51 15.3 69.9 45.4 18.8 30 29.5 55.4 31.9 75.5 1.7 14.2 5.5 36.1 11.7 65.4 6.1 29.2 10.4 48.3 13.2 56.7 2 5.8 5.1 10.2 8.7 12.9m233.6-25.7c-14.3 1.4-25.9 1.9-34.6 1.2-19.1-1.4-35.7-16.8-50.1-46.3-8.5-17.4-12-40.7-10.3-69.8 1-16.5 4.5-31.6 10.4-45.1 5.6-12.7 13.3-24 23.3-33.9 10.1-9.9 20.7-16.2 31.1-19.5 8.5-2.7 18.9-4 30.9-3.1 21.9 1.7 39.8 9 53.6 20.5 10.5 8.8 19.6 23.1 26.3 42.7 6.7 19.7 10.2 41.8 10.5 66.2.3 4.9.1 11.6-.7 20-1.8 17.7-10.4 32.3-25.8 43.9-9.7 7.6-19.1 13-28.5 16.2-9.3 3.3-21.4 5.5-36.1 7m-37.6 41q1.2.15 4.5.6 3.45.6 5.1.6 47.7 3.75 81-9.3c10.3-3.9 23.1-11.5 38.4-22.5 15.4-11 25.4-19.8 30-26.5 9.6-14.1 15.7-32.5 18.2-55.4 2.8-26.5.6-53.8-7-81.9-7.7-28-19.4-50-35.2-65.9-11-11.2-25.3-20.4-42.9-27.5-17.6-7-35.6-11.3-54.1-12.7-17.8-1.4-33-.2-45.8 3.5-38.7 11.1-68.7 39.2-89.6 84-5.3 11.1-8.3 24.5-9.1 40-.3 4.9-.4 7.3-.6 12.2-1.2 23.7-.4 40.6 1.5 50.3 2.4 11.5 7.6 25.5 16.2 41.1 8.5 15.6 16.9 27.6 25.3 35.9 19.1 19 40.4 30.2 64.1 33.5m217.6 18.6c3.7 4 9.1 6.4 16.3 7.3s12.7-.2 16.4-2.8c3.6-2.5 7.4-12.4 10.7-29.6 2-9.8 2.9-14.7 4.9-24.5 6.4 6 9.7 8.9 16.1 14.9 11.7 10.7 25.4 20.9 41.1 30.2 11.6 6.9 20.2 11.4 25.5 13.5s15 4.4 28.7 7.2c5.2 1.1 11.2 2.3 18 3.3 9 1.4 17.4 1.3 25-.4 14-2.7 25.7-7 35.3-13 9.5-6 14.9-12.1 16-18.5l-.1-1.5v-1.5c-1.3-10.8-7.5-17.1-18.5-18.9-7.6-1.3-16.7.1-26 4.6-12.6 6-25.2 8.8-37.3 6.9-4.6-.7-9.7-1.9-15.2-3.8-37.9-11.9-68.9-37.8-93.9-78.1-3.4-5.1-5-7.7-8.4-12.8q3.3-26.55 11.4-80.1c5.3-35.7 9.2-62.5 11.5-80.6-2.6-2.8-3.9-4.3-6.4-7.2-4.3-5.1-10-8.1-17.2-9-6.4-.7-12.3.7-17.6 4.3-8.4 5.5-15.4 33-21.2 82.3-1.1 9.7-4.2 38.6-8.9 86.3-5.3 53.9-8.1 87-8.8 99.1-.6 12 .2 19.4 2.6 22.4" style="fill:#100f0d;fill-opacity:1;fill-rule:nonzero;stroke:none" transform="matrix(.0174 0 0 -.0174 -451.492 228.02)"/></svg>