<svg xmlns="http://www.w3.org/2000/svg" xml:space="preserve" width="200mm" height="200mm" viewBox="0 0 200 200"><g style="display:inline"><path d="M0 0h30000v60000H0Z" style="fill:#fff;fill-opacity:1;fill-rule:nonzero;stroke:none" transform="matrix(.00328 0 0 -.00328 50.845 198.902)"/><path d="M23082.4 31768.5c-35.2-1403.8-150.6-5472-278.1-9957.3-147.6-5216.4-311.5-10996.8-381.3-13804.5-22.5-905.9-35.8-1502.2-35.2-1671 5.4-1787.5 234.9-1776.6-402.6-2375.9-910.2-855.5-2667.4-1574.4-3847.2-1656.4-1505.2-105-3039.6-189.4-4556.9-58.3-1791.2 154.9-6026.38 786.3-6403.44 3133.7-30.36 188.9-55.89 335.2-76.52 448.1 43.73-21.2 95.94 140.3 132.97 795.5 10.32 177.3 10.32 708.6 4.27 1502.1-23.1 2697.2-126.3 8432.1-211.33 13664.8-73.47 4562.5-132.35 8743.6-109.88 10199.6 33.98 2162.8-115.98 4372.4 1472.44 6029.4 673.95 703.2 2655.29 1448.2 3255.09 2203.5 598.7 754.8 38.3 1447 95.4 2362.6.6 4.9 1541.6-516.1 3444-494.3 1492.4 17.1 2842.2 105.1 3399 611.5-15.2-13.4-71.6-277.5-81.3-565.9-12.2-340.6-151.2-822.8-89.3-1395.9 25.5-239.3 182.1-495.5 245.3-763.3 476.6-782.6 2151.3-1583.5 2780.9-2240.5 1683.2-1757.2 1698.3-3773.7 1643.7-5967.5" style="fill:#973b1d;fill-opacity:1;fill-rule:nonzero;stroke:none" transform="matrix(.00328 0 0 -.00328 50.845 198.902)"/><path d="M12562.6 41223.4c414.4-72.6 747.8 1003 747.8 1003s-1002 187.1-1110.5 225.3c-108.4 38.1 40.3-1171.9 362.7-1228.3m-3639.07-4393.5c-504.62-421.8-785.95-1063.5-763.94-1721.2 143.3-4280.5-45.02-28395.4 244.7-29106.8 292.11-717.2 2554.31-1470.6 2956.41-1004.6 400.2 463.9-209.4 31306.5-189.3 31523.5 131.5 1425.9-1146.8 1229.3-2247.87 309.1m12002.57-30887c-15.6-.2-31.2.5-47.1 2.2-264.7 27.1-473.2 301.3-465.8 611.5l764.1 27698.9c5.5 231.6 194.5 406.3 422.6 389.7 228-16.2 409.6-216.8 405.3-448.8l-636.1-27737.3c-5.4-291.9-199.6-513.3-443-516.2" style="fill:#b6812f;fill-opacity:1;fill-rule:nonzero;stroke:none" transform="matrix(.00328 0 0 -.00328 50.845 198.902)"/><path d="M13206.9 53243.4c-105.9 0-180.2-24.5-203.1-85.7-212.4-568.6-321.1-1411.4-290.6-2254.3 33.3-922-218.7-1762.7-462.4-2575.7-203.3-678.1-413.5-1379.2-461.2-2131.6-17.1-270.4 29.6-876.1 83.8-1577.4 165.2-2138.4 268.6-3950.5-140.9-4466.7-332.6-419.2-1057.1-826.4-1757.74-1220.1-589.91-331.5-1199.92-674.3-1503.82-991.3-1406.42-1467.1-1420.27-3345.3-1434.95-5333.7-1.54-206.8-3.05-413.6-6.26-620-25.76-1667.2 48.37-7014.2 120.03-12185 84.73-6110.9 172.31-12429.7 104.15-13178.4-34.31-377-62.89-813.1 32.85-1218.8C7846.19 3034.1 12253.6 2472.6 13591 2357c1522.1-131.6 3077.3-43.4 4539.6 58.3 1185.8 82.4 2916 827.6 3778.2 1627 259.3 240.4 372.3 529.9 366.9 2293.2-2.2 721.3 242.8 9358 439.7 16297.6 119 4196.6 221.8 7820.8 254.6 9138.2 59.7 2399.2-21 4225.7-1612.6 5886.9-253.2 264.3-687.1 556.8-1146.5 866.4-667.4 449.8-1357.5 914.9-1649 1393.2-398.5 654-235.1 3379.2-126.9 5182.5 36.1 601.6 64.6 1076.8 61.2 1302.6-10.9 734.2-201 1406.3-385 2056.2-233.2 824-474.3 1676.1-325.1 2620.6 59.2 375 8.1 718.7-51 1116.7-31.4 210.6-63.8 428.4-81.9 668.1-1 13.4-4.8 45.5-17.9 53.8-65.7 42.2-319.2-53.1-486.9-116.2-165.6-62.2-336.9-126.7-481.2-142.3-376.1-40.7-760.4-3.4-1132.2 32.7-113.9 11.1-227.4 22.1-340.4 30.9-221.3 17.2-545.4 126.2-888.4 241.5-349.7 117.6-828.1 278.5-1099.3 278.5m2036-51177.3c-556.8 0-1115.7 19.1-1671.2 67.1-1375.5 118.9-5909.51 702.5-6503.59 3219.9-103.48 438.5-73.83 896.2-37.93 1290.8 67.1 736.9-20.43 7049.8-105.07 13154.9-71.69 5172.5-145.84 10521-119.98 12191.6 3.17 205.8 4.69 412 6.19 618.1 14.36 1944.9 29.21 3955.9 1497.42 5487.5 327 341.1 923.94 676.6 1555.97 1031.7 681.69 383.1 1386.59 779.3 1691.79 1163.9 388 489.2 210.4 2788.4 92.9 4309.9-57.1 738.9-102.1 1322.6-84 1608.8 49.3 778.1 263.2 1491.7 470.1 2181.9 249.5 832.2 485.1 1618.2 453.2 2503.1-11.8 326.3-24.7 1459.5 304.7 2341 157.3 421.4 882.8 177.4 1584.4-58.4 329.4-110.8 640.7-215.5 834.3-230.5 114.3-8.9 229.3-20.1 344.6-31.3 360.5-35 733.3-71.2 1086.3-32.9 116 12.5 273.8 71.9 426.4 129.2 270.4 101.8 526 197.9 686.8 95.4 49.8-31.9 111.3-96.9 121-226.4 17.5-231.5 49.3-445.3 80-652 59.3-399 115.4-775.8 50.7-1184.7-141.5-895.8 82.5-1686.9 319.5-2524.4 187.9-663.9 382.1-1350.4 393.5-2114.1 3.5-234.2-25.3-713.1-61.7-1319.4-100-1667.4-267.4-4458.2 94.6-5052.1 265.9-436.3 935.3-887.5 1582.7-1323.8 469.6-316.6 913.3-615.6 1183.2-897.3 1779.2-1857 1723.8-4083.5 1674.9-6047.9-32.8-1317.8-135.6-4942.2-254.7-9139-196.8-6938-441.7-15572.7-439.6-16290.5 5.5-1763.8-99.3-2144-438.7-2458.7-909.1-842.9-2665.6-1599.4-3915.5-1686.3-939.9-65.4-1918.2-125.1-2903.2-125.1" style="fill:#231f20;fill-opacity:1;fill-rule:nonzero;stroke:none" transform="matrix(.00328 0 0 -.00328 50.845 198.902)"/><path d="M22804.3 21811.2c-147.6-5216.4-311.5-10996.8-381.3-13804.5-339.4-182.7-683.1-350.3-1030.4-503.3-318.2-140.9-639.4-269-963.6-385-2764.6-989.1-5754.4-1097.2-8956.1-375.2-1034 232.5-2090.56 552.5-3168.32 956.9-353.37 132.4-708.59 273.9-1066.2 424.4-23.1 2697.2-126.3 8432.1-211.33 13664.8 400.75-108.6 799.69-209.4 1198.01-302.9 1070.47-252 2131.24-449.4 3182.84-590.2 3230.3-432.9 6371.3-332.2 9410.9 367.3 299.3 68.6 598.1 143.3 895 224.7 364.9 98.4 728.6 206.4 1090.5 323" style="fill:#fbf6d4;fill-opacity:1;fill-rule:nonzero;stroke:none" transform="matrix(.00328 0 0 -.00328 50.845 198.902)"/><path d="M11472.9 6743.2c-1034 232.5-2090.56 552.5-3168.32 956.9-67.98 2728.7-75.9 8313.1-79.52 13786.3 1070.47-252 2131.24-449.4 3182.84-590.2 72.9-5673.6 120.9-11371.5 65-14153m10240.9 14745-321.2-13984.8c-318.2-140.9-639.4-269-963.6-385l389.8 14145.1c299.3 68.6 598.1 143.3 895 224.7" style="fill:#fff;fill-opacity:1;fill-rule:nonzero;stroke:none" transform="matrix(.00328 0 0 -.00328 50.845 198.902)"/><path d="M7345.28 8196.1c5521.92-2321 10558.62-2362.4 14971.82-122.7 67.9 2719.5 217.7 8014.1 362.6 13135.5l12.9 454.9c-2384.2-733.7-4901.8-1105.4-7487.1-1105.4-41.8 0-83.4 0-125.4.3-2527.1 11.7-5198.64 378.7-7943.24 1090.8 20.57-1263.7 42.15-2554.6 63.35-3823.3 65.26-3902.9 126.93-7591.6 145.07-9630.1m8033.32-1997.2c-81.6 0-162.8.7-244.6 1.9-2495.4 37.6-5166 651.5-7937.55 1824.7l-64.99 27.5-.62 70.6c-17.31 2022.2-79.63 5751.1-145.63 9698.9-22 1316.2-44.41 2656.4-65.67 3965.2l-2.31 141.8 137.2-36.1c5732.27-1510.2 10873.57-1503.5 15717.67 20.4l144 45.3-21.4-756.3c-146.1-5161.9-297.1-10499.5-364.2-13198.7l-1.6-63.9-56.9-29.2c-2217.2-1136.5-4602.6-1712.1-7093.4-1712.1" style="fill:#231f20;fill-opacity:1;fill-rule:nonzero;stroke:none" transform="matrix(.00328 0 0 -.00328 50.845 198.902)"/><path d="M18054.8 49168.2c-670.9-296.9-1495.5-623-2796.1-641.2-623.5-8.5-1148.8 77.7-1588.4 196.7-417.7 112.3-758.3 254.4-1034 372.2-134.8 57.1-253.8 108.7-358.9 148.2 119 565.9 196.2 1147 159.7 1771.2-44.3 768.1 0 1810 253.2 2594.5 182.2 563.4 1807.6-360.1 2438.5-413.5 507-41.9 1025.6-130.6 1526.5-71.7 411.1 48 1139.1 584.1 1166.4 116 46.1-777.2 221-1370.4 114.8-2035.9-119.1-749.3-28.6-1400.2 118.3-2036.5" style="fill:#4a7953;fill-opacity:1;fill-rule:nonzero;stroke:none" transform="matrix(.00328 0 0 -.00328 50.845 198.902)"/><path d="M13679.7 48833.6c-388.7 107.5-702.9 242.2-970 356.7-21.5 9.2-42.6 18.3-63.6 27.2 45.2 574.6 65.6 1043.2 74.2 1297.7 80.6-46.2 168.4-82.6 262.1-107.8 273.2-73.1 545.5-133.3 816.7-180z" style="fill:#97b497;fill-opacity:1;fill-rule:nonzero;stroke:none" transform="matrix(.00328 0 0 -.00328 50.845 198.902)"/><path d="M12479.2 49287.2c72.7-29.3 150-62.4 230.5-96.9 559.1-239.7 1324.6-567.6 2547.7-550.8 1212.2 17 1988 297.6 2667.6 594.1-123.1 553.7-222.2 1217.3-99.5 1988.5 67.1 420.7 18.1 808.3-38.7 1257-30.1 237.8-61.2 483.6-77.2 754.8-1.2 18.7-5.7 63.4-24.6 75.4-71.1 44.7-334.4-62.5-508.7-133.5-174.9-71.2-355.7-144.9-507.8-162.7-395.4-46.5-800.2-4.2-1191.5 36.6-119.5 12.5-238.9 25-357.6 34.9-233.2 19.7-576.4 144.4-939.7 276.4-488.3 177.5-1096.2 398.2-1316.7 290.5-33.9-16.6-54.2-40.1-65.9-76.2-311-965-268.2-2198.6-247.6-2553.7 36.5-633.3 15.5-1157.7-70.3-1734.4m2689.3-873c-1218.6 0-2015.5 341.6-2547.3 569.6-115.2 49.4-214.6 92-306.2 126.4l-85.8 32.2 14.4 90.6c94.6 595.7 119 1126.7 81.6 1775.6-21.1 364.9-64.9 1633.5 258.1 2635.6 30.3 93.7 92.9 166 181 209.1 306.3 149.7 882.3-59.5 1492.2-281.1 348.9-126.8 678.4-246.6 881.7-263.7 120.2-10.1 241-22.7 362.2-35.3 379.2-39.6 771.3-80.5 1141.9-37 121.8 14.3 288.2 82.1 449.2 147.7 280 114.1 544.3 222 713.3 115.4 78.7-49.6 122.1-134.5 129-252.2 15.6-263.6 46.3-505.7 75.9-739.8 56.5-446.4 109.8-868.1 37.7-1320.6-123.5-775.7-10.1-1442.9 117.1-1993.3l20.8-90.5-84.9-37.6c-689.7-305.1-1534.8-632.2-2839.9-650.4-30.9-.5-61.7-.7-92-.7" style="fill:#231f20;fill-opacity:1;fill-rule:nonzero;stroke:none" transform="matrix(.00328 0 0 -.00328 50.845 198.902)"/><path d="M18166.7 53870.9c41.3-970.7 40.3-1024.5 12.2-1922.8-4.2-140.7-9-302-14.8-490.8 0-470.6-321.2-881.3-784.9-1010.6-1172.2-327.3-2360.8-377.5-3565.3-170.1-276.1 47.1-553.3 108.1-831.5 182.6-111.8 30-215.1 76-307.9 135.5-298.3 190.3-488.6 516.1-488.6 878.1-9.5 230.7-18 417.9-24.4 575.1-30.7 748.9-22.2 831.1 37.7 1808.1.5 123.6 24.3 246.6 69.4 362l-15.4 413.2-14.3 48.6c-18 61.6-67.3 184.6-67.8 248.3l14.8 2043.3h5978.2l48.2-1991.6c0-116.4-74.7-429.3-125.6-534.8l-4.2-264.3 4.7-7.2c52-93.1 79.5-197 79.5-302.6" style="fill:#4a7953;fill-opacity:1;fill-rule:nonzero;stroke:none" transform="matrix(.00328 0 0 -.00328 50.845 198.902)"/><path d="M13813.9 50224.9c-5 .8-9.9 1.7-14.8 2.5l4.3 51 10.5-1.8zm-1093.6 290.3c-15.5 8.9-30.8 18.1-45.8 27.7v51.8c15.5-10 31.4-19.6 47.5-28.8-.5-15.8-1.1-32.7-1.7-50.7" style="fill:#97b497;fill-opacity:1;fill-rule:nonzero;stroke:none" transform="matrix(.00328 0 0 -.00328 50.845 198.902)"/><path d="M13799.1 50227.4c-271.2 46.7-543.5 106.9-816.7 180-93.7 25.2-181.5 61.6-262.1 107.8.6 18 1.2 34.9 1.7 50.7 80.1-45.7 167.3-81.8 260.4-106.7 274.7-73.6 548.4-134 821-180.8z" style="fill:#c5d5c2;fill-opacity:1;fill-rule:nonzero;stroke:none" transform="matrix(.00328 0 0 -.00328 50.845 198.902)"/><path d="m13813.9 50276.6-10.5 1.8c-272.6 46.8-546.3 107.2-821 180.8-93.1 24.9-180.3 61-260.4 106.7-16.1 9.2-32 18.8-47.5 28.8v6307.4h1139.4z" style="fill:#97b497;fill-opacity:1;fill-rule:nonzero;stroke:none" transform="matrix(.00328 0 0 -.00328 50.845 198.902)"/><path d="m12297.6 56859.1-14.2-1931.7c.3-27.4 28.1-109.3 42.9-153.3 8.1-23.7 15.3-45.3 20.4-62.4l18.5-62.3 16.6-450.5-8.5-21.8c-40.5-103.1-61.2-211.2-61.6-321.5l-.2-6.5-7.1-114.5c-60.8-983.8-60.8-983.8-16.4-2015.1l10.3-241.8c.1-425.2 293.3-797.4 713.2-909.8 1484.7-397.5 2944.1-402 4337.7-13.1 413.7 115.5 702.6 486.6 702.6 902.4l13.6 446.6c29.5 941.8 30.7 978.6-11.2 1962.4 0 90.9-22.5 176.4-65 251.9l-19.3 34 4.7 319.5 10.8 22.4c45 92.8 114.6 388 114.6 485.9l-45.6 1879.2zm2941.1-6817.5c-751.9 0-1515.4 103.1-2285.4 309.3-517.8 138.7-879.6 600.1-879.6 1122l-10.2 236.9c-44.8 1043.1-44.8 1043.1 16.7 2038.6l6.9 111.3c.8 129.1 23.8 255.8 68.5 377l-13.9 376.1-10.4 35.1c-4.4 14.8-10.8 33.5-17.8 54.2-30.6 90.4-54 164.4-54.8 224.8l15.9 2156.9h6199.1l50.9-2101.1c0-127-68-424.2-126.1-562.4l-3.1-211.3c54.8-104.5 83.5-220.8 83.4-338.1 42.1-987.3 40.9-1024.3 11.2-1974.1l-13.6-442.9c0-513-356.5-973-866.8-1115.4-709-197.9-1434.4-296.9-2170.9-296.9" style="fill:#231f20;fill-opacity:1;fill-rule:nonzero;stroke:none" transform="matrix(.00328 0 0 -.00328 50.845 198.902)"/><path d="M18211.7 56991.3c0-293.8-596.8-530.4-1420.4-678.8-466.8-84.1-1019-125.8-1616.3-125.8-597.2 0-1148.2 48-1615 132.1-823.6 148.5-1362.2 378.7-1362.2 672.5 0 293.7 533.5 551.1 1357 699.6 466.9 84.1 1023 131 1620.2 131 597.3 0 1154.6-40.7 1621.5-124.8 823.5-148.5 1415.2-412.1 1415.2-705.8" style="fill:#95b396;fill-opacity:1;fill-rule:nonzero;stroke:none" transform="matrix(.00328 0 0 -.00328 50.845 198.902)"/><path d="M18211.7 56991.3c0-293.8-596.8-530.4-1420.4-678.8-466.8-84.1-1019-125.8-1616.3-125.8-597.2 0-1148.2 48-1615 132.1-823.6 148.5-1362.2 378.7-1362.2 672.5 0 293.7 533.5 551.1 1357 699.6 466.9 84.1 1023 131 1620.2 131 597.3 0 1154.6-40.7 1621.5-124.8 823.5-148.5 1415.2-412.1 1415.2-705.8" style="fill:#90af92;fill-opacity:1;fill-rule:nonzero;stroke:none" transform="matrix(.00328 0 0 -.00328 50.845 198.902)"/><path d="M15175.1 57709.5c-578 0-1131.4-44.7-1600.4-129.2-873.5-157.4-1264.5-409.3-1264.5-589 0-161.1 333.5-393.2 1269.7-561.9 473.1-85.3 1024.7-130.4 1595.2-130.4 602.5 0 1139.5 41.8 1596.3 124.1 917.4 165.3 1328 404.5 1328 568.2 0 177.3-454.4 438.7-1322.9 595.2-446.5 80.5-1000.2 123-1601.4 123m0-1635.2c-583.6 0-1149 46.3-1635.1 134-965.1 173.9-1454.5 437.3-1454.5 783 0 477.6 908.1 712.6 1449.4 810.1 481.9 86.9 1049.1 132.8 1640.2 132.8 623.1 0 1175.3-42.6 1641.3-126.6 453.3-81.7 1507.6-324.8 1507.6-816.3 0-342.9-509-608.4-1512.7-789.3-469.9-84.7-1020.4-127.7-1636.2-127.7" style="fill:#231f20;fill-opacity:1;fill-rule:nonzero;stroke:none" transform="matrix(.00328 0 0 -.00328 50.845 198.902)"/><path d="M15215.7 53895.6c-1460 0-2681.8 301.2-2943.2 687.1-5.1-91.7-2.6-275.3 15.2-368.3 278.7-379.8 1468.3-651.1 2912.8-651.1 1468.9 0 2646 232.6 2887.6 608.1 6 69-5.4 188.1-8.2 302.2-387-336-1530.8-578-2864.2-578" style="fill:#793919;fill-opacity:1;fill-rule:nonzero;stroke:none" transform="matrix(.00328 0 0 -.00328 50.845 198.902)"/><path d="M12394 54261.1c250.8-294.2 1279.5-585.5 2806.4-585.5 1626.8 0 2567.7 272.7 2777.1 534.3.1 16.6-.2 35.8-1 56.7-518.9-293.6-1577.7-483.3-2760.8-483.3-1257.7 0-2341.4 214.6-2828 541.2 1.7-23.1 3.7-44.6 6.3-63.4m2806.4-810.2c-1490.4 0-2697.3 280.1-3003.2 697l-15 20.5-4.8 24.9c-19.7 103.1-22.6 296-17.1 395.6l18.4 332.5 186.8-275.7c212.4-313.4 1336.6-637.7 2850.2-637.7 1269.7 0 2417.2 226.3 2790.6 550.4l180.1 156.3 5.8-238.4c1-39.9 3.1-80.5 5.1-119.3 3.9-77 7.3-143.4 2.6-195.5l-2.4-27.5-15-23.3c-312.8-486.4-1745.5-659.8-2982.1-659.8m-2919-1579.6c1.1-25.7 2.2-52.2 3.4-79.4l13.4-314.4c.1-320.8 163.3-613.7 436.7-788.1 84.6-54.3 177.6-95.2 276.6-121.8 275.1-73.6 551.5-134.3 821.3-180.3 1197-206 2380.1-149.7 3516.2 167.6 413.8 115.4 702.8 486.5 702.8 902.4l8.6 287.6c-493.6-292-1692.2-450.4-2723.8-438.2-1208 14.8-2462.3 251.3-3055.2 564.6m2954.4-1830.1c-476.8 0-957.8 41.5-1441 124.7-276.4 47.1-559.6 109.3-841.5 184.7-121.5 32.7-235.6 82.9-339.4 149.5-338.3 215.7-540.3 579.4-540.3 972.7l-13.3 309.4c-4.1 95.8-7.8 182.2-11 261.2l-4 97.7 177.1 32 38.5-27.3c464.5-329.1 1816.7-598.9 3078.4-614.4 1356.5-17.8 2520.8 246.5 2716.6 493.2l42.3 53.3 195.8-37.5-17.6-586.6c0-512.9-356.5-972.9-867-1115.3-709.4-198.1-1436.6-297.3-2173.6-297.3" style="fill:#231f20;fill-opacity:1;fill-rule:nonzero;stroke:none" transform="matrix(.00328 0 0 -.00328 50.845 198.902)"/><path d="M8301.35 19833.8c13.79 11 33.47 12.8 59.17 5.5 12.85-3.7 25.78-10.8 38.81-21.3 24.72-20.7 42.73-90.9 53.92-210.6s23.18-371.2 36.47-753.7c3.87-111.4 7.76-241.4 11.33-389.6 2.49-103 2.62-176.3.53-220-2.11-43.7-6.19-70.9-12.32-81.4-6.11-10.6-17.75-17.4-33.71-21.1-14.89-3.5-26.5-4.8-34.16-2.6s-19.29 9.6-34.81 22.3c-23.23 18.9-37.02 36.5-41.19 52.7-1.41 4.5-11.16 260.5-29.53 768.1-18.31 507.6-26.79 770-28.05 784.1-.85 9.3-2.44 20.4-2.72 31.4-.37 15.2 5.04 27.2 16.26 36.2m547.8-481.2c40.98-1.3 82.73-7.4 125.22-18.4 42.56-11.1 84.5-26.7 125.98-46.7 114.18-63.2 208.12-161.2 281.53-295 29.34-54.8 44.4-98.6 45.08-131.5.35-16.5-2.87-32.7-10.6-44.6-9.6-14.7-24.61-20.7-40.09-16.9-1.32.3-3.84 1.2-7.76 2.9-3.85 1.6-7.13 2.7-9.7 3.4-19.35 6-33.32 14.2-41.86 24.5s-26.8 38-50.77 82c-31.42 57.8-61.46 104.6-91.71 135.5-52.65 52.7-117.82 89-195.38 109.2-42.64 11-82.03 12.9-117.65 6.2-39.43-7.3-58.59-49.1-56.82-126 .82-35.7 12.8-66.7 32.79-92.6 25.2-32.6 100.69-99.7 226.77-194.3 97.08-72.7 172.59-140.4 225.18-203.9 52.53-63.4 97.05-138.3 133.41-224.8 21.67-55.7 33.06-111 34.2-165.9 1.21-58.9-6.74-106.8-23.84-143.7-48.97-101.4-147.51-146-295.43-131.6-25.53 2.3-49.76 6.5-72.79 12.4-90.79 23.3-169.36 71.4-235.74 143.7s-114.78 161.8-145.21 268.3c-13.85 50.2-21.08 88.3-21.7 114.4-1.55 65.9 24.2 91.5 77.43 77.1 46.85-12.7 74.47-48.6 83.68-106.4 18.32-114.9 63.44-203.1 132.65-262.2 20.86-17.7 57.08-33.3 108.57-46.5 45.12-11.6 81.22-15.8 107.93-13.2 35.65 3.5 63.86 12.8 84.08 28.1 16.28 12.3 26.17 22.6 29.18 30.6 3.03 8.2 4.23 28 3.57 59.5-.88 41.2-7.76 78.4-20.63 111.6-12.89 33.1-37.05 73.4-72.59 120.4-38.13 50.4-111.04 116.3-217.17 198.6-136.44 105.9-227.08 191.2-271.88 252.4-44.8 61.3-68.12 131.8-70 211.4-4.29 181.2 66.26 271.2 212.07 272m776.07 116.7c2.29 17.2 11.09 30.6 26.54 40s32.38 12 50.7 7.8c10.43-2.3 22.3-8.4 35.57-18.2 25.13-20.7 38.39-61.9 39.59-123.6.37-19.2-.04-33.5-1.12-42.8-3.12-40.2-.78-297.8 5.34-771 4.35-336.3 5.98-538.9 5.98-606.4.01-67.6-4.99-105.1-13.37-112.7-11.43-10.3-28.28-14.1-50.44-9-26.04 5.9-47.06 19.6-63.04 41-10.66 14.8-18.12 31.8-22.38 51.3-4.32 19.4-8.92 60.6-14.15 123-4.88 58.4-8.85 154.2-11.52 287.2-4.28 212.6-5.4 444.6-3.31 695.8 2.1 251.4 7.3 397.2 15.61 437.6m972.38-740.6c-79.3 15-176.9-27.7-292.7-127.2-54.7-46.4-94.2-88.4-118.7-126.3-24.4-37.9-42.4-85.3-54.5-141.2-8.1-37.8-12.1-79.4-11.3-124.7 1.3-67.1 13.1-129.3 35.3-186.6q33.45-85.8 88.2-127.8c22.2-16.8 46.2-27.8 72.1-33.1 50.4-10.1 104-1 160.9 27.5s107.4 72.1 151.7 130.7c29.1 38.2 46.7 65 53 80.2 6.2 15.3 10.6 47.4 15.9 93.4 10.6 92.9 26.9 178 42.6 250.4 13 60.7 19.5 91 32.5 151.7-14.3 15.8-21.3 23.6-35.6 39.3-25.1 27.8-49.4 49.5-72.9 64.8s-45.8 24.9-66.5 28.9m-105.8 173.8c34.8 4.2 65.2 3.9 91.2-1 55.9-10.7 116.1-41.7 180.4-93 23.6-19.9 35.4-29.8 59.1-49.7 11.5 13.5 17.2 20.4 28.7 33.9 19.1 21.1 39.7 29.8 61.9 25.9 20.7-3.6 37.4-13 50-28.2s19-33.7 19.4-55.6c.2-16.4-2.2-31.8-7.1-45.9-24.9-70.8-50.3-170.6-75.2-298.4-32.7-167.3-47.5-319.4-45.4-455.1.7-45.1 3.6-92.3 8-140.7 4.9-52.6 7.3-92.9 7.7-120.3.8-50.7-9.9-80.6-31.6-88.6-15.1-5.5-30.2-6.8-44.4-4.2-23.3 4.2-43.2 19.1-59.8 44.7-16.5 25.5-28.5 59.3-33.5 99.4-5.3 42.4-12.7 65.9-24.3 68-7.8 1.5-18-5.6-30.7-20.8-13.8-16.5-48.4-36.7-103.5-60.3-55-23.5-97.8-35.2-126.9-36.7-25.3-1.3-52.8.3-81.2 6-59.4 11.9-110.5 32.5-151.6 61.7-50.7 36-97.9 91.9-141 166-43.11 74-70.54 147.3-82.2 219.4-4.3 25.6-6.81 55.4-7.46 89.7-1.52 80.8 4.88 150.5 19.24 208.8 35.72 153.3 121.72 271.8 258.42 357.2 62.6 39 95.2 59.2 97.8 60 44.7 29.3 99.4 48.5 164 57.8m1502.7-241c5.2 2 13.7 2.3 25.5.8 20.9-2.7 39.9-13.3 57.1-31.9 9.2-9.4 14-23 14.2-40.8 0-2.7-.1-22.9-3.4-56.9-4.3-45.8-6.2-232.5-3.6-553.3 1.8-221 1.4-359.1.7-412.3s-4.8-91-12.3-113.3c-47.4-179.9-221.4-255.7-509.2-210.5-196.5 30.9-291 82.1-277.6 141.4-.5 37 16.6 60.2 51.4 69.7 16.8 4.2 32.3 5.2 46.6 2.9 10.3-1.6 37.2-9.1 79.9-22.6 64.9-20.6 119.7-34.5 163.8-41 93.5-13.6 165.6-1.7 211.6 35.7 33.3 27.1 57 65 70.8 110.3 13.7 45.3 20.1 111.1 19.1 197.4-.5 39.7-1.6 71.3-3.1 94.7-6.9 112.5-10.5 169.6-11.8 169.7-30.8-27-46.3-40.5-77.1-67.4-92.7-81.6-181.9-116-267.6-103.3-20.9 3.1-43 8.5-66.4 16.2-181.3 63.3-291.4 206.1-330.9 425.4-15.6 92.7-24 180.2-25.2 262.4-1.6 115 8.3 183.7 30.1 206.1 12.9 11.5 29 15.7 48.6 12.5 20.8-3.3 38.5-13.7 53-31 10.6-12.7 17.3-27.1 20.2-43.2 2.8-16.2 4.6-57.2 5.6-122.9 3.1-223.3 33.6-370.9 89.9-442.6 44.9-57.1 103.7-91.9 176.6-102.7 13-1.9 29.9-2.4 46.7 1.3 21 4.6 57.6 29.2 102.5 69.1 44.9 39.8 84.9 97.9 118.9 169.4 48.3 102 80 198.7 92.3 286.1 10.3 72.8 30.6 115.2 63.1 124.6m1016.7 373.3c39.3 7.4 86.5 8.9 141.7 4.4 66.9-5.5 121.2-16.8 159.7-35.2 37.8-18.1 75.5-48.6 111.8-88.1s62.5-78.9 78.5-118.3c7.9-18.3 16-53.4 24.2-105.2 8.2-51.9 12.3-91.5 12.5-118.8 0-9.6-.6-15.7-1.9-18.3-8.9-46-33-67.6-72.3-64.9-18.4 1.3-35.2 10-50.3 26.1s-24.8 36.6-28.9 61.5c-12.3 81.6-26.2 139.7-41.5 174.4-15.3 34.6-39.2 63.8-70.4 82.3-24.9 14.7-59.1 23-98.5 26.2-48.5 3.9-96.7-1.3-144.4-15.6-47.8-14.3-81.3-35.3-96.8-62.1-17.2-29.9-25-66.1-24.7-104.5.2-27.3 5.7-55.2 16.4-83.5 28-69.5 133.1-194 314.9-369.3 142.1-137.1 233-240.4 270.8-311.2 39.9-74.6 59.8-155.1 60.3-239.9.7-117.8-34.1-214-104.1-288.5-49.3-55.4-119.4-94.8-206.7-112-57.3-11.3-108.1-13.9-148.5-10.5-88.7 7.4-167.4 51.4-235.6 131.7-85.6 100.8-128.9 215.6-130 342.9-.7 69.8 13.5 134.7 43.3 192.6 31.3 60.9 65.1 90.2 99.1 87 18.3-1.7 37-13.3 56.1-34.9 19.2-21.5 28.8-42.3 28.9-62.1.2-19.9-9.6-45.6-26.7-76.5-18.4-33.1-26.9-74.2-26.5-120.8.5-57.4 14.6-111.4 42.4-161.8s64-85.7 108.4-105.9c5.2-3.2 17.7-5.7 37.2-7.3q103.8-8.7 174 27c76.8 36.5 115.9 107.4 114.2 209-1.1 65.1-18.4 123-50.1 171.9-31.7 48.8-102.8 126.3-213.4 232.2-129.9 124.4-223.4 225-278.9 300.7-55.6 75.6-91.5 149.3-107.9 220.6-8.1 32.3-12.3 58-12.4 77.2-.1 8.2 2.1 30.8 7.2 67 11.7 81.6 40.3 145 83.9 188.7 43.5 43.7 105.2 74.2 185 91.8m720.9-807.6c11.1 11.6 30.7 16.7 57 15.2 24.9-1.4 44.7-13.6 57.1-36 12.1-21.7 20.4-65.4 25.2-128.5 4.9-63.2 9.8-201 14.7-413.3 3-134.7 4.4-202.1 7.4-336.9-10.1-10.2-15.2-15.2-25.3-25.4-15.6-15.5-34.6-22.7-56.7-21.5q-29.4 1.65-54 24.6c-16.4 15.3-26.5 35.6-30.7 60.2-3.8 22-6.8 169.4-8.2 441.7-.4 73.1-.6 109.6-.9 182.7-.8 146.4 4 226.1 14.4 237.2m-12.6 171c-4 12.6-6 24.3-6.1 35.3-.1 20.5 6 36.5 18.4 48.1s30.4 16.7 54 15.4c22.3-1.3 40.2-8.4 53.3-21.4s19.8-29.1 19.9-48.2c0-13.7-2.5-25.9-7.7-36.6-11.7-29.5-33.9-43.3-66.7-41.5q-47.25 2.7-65.1 48.9m338 74.9c11.7 12.4 30.7 19.1 57 18 18.4-.8 33.5-5.5 45.3-14.2 22.3-16.5 34.4-86.7 36.1-210.8.1-9.8.1-14.8.1-24.6.2-57.4 5.6-86.4 16.1-86.8 3.9-.2 11.1 5.7 21.5 17.6 18.3 21.2 62.2 56.2 131.5 105.2 69.4 49.1 121.1 82.9 155.2 101.2 64.2 32.6 129.2 48.2 194.8 47.1 59.1-1.1 114.6-15.9 165.5-41.8 61.9-31.6 110.9-76 143.8-134.7 32.8-58.6 56.4-143.4 70.8-254.2 14.5-110.9 22.1-270.5 27.6-474.2 1-36.6 2-80.7 2-131.3 0-62.9-7.2-101.9-21.6-116.9s-34.7-22.5-60.7-22.4c-22.3.1-40 6.3-53 18.7-14.4 13.8-23.6 38.5-27.5 74.1-4 35.6-8.2 136.7-14 301.8-4.9 142-10.6 239.9-15.9 292.6s-15.6 108.2-31.6 165.5c-10.3 36.9-25.3 65.3-44.4 84.6-19 19.4-47.9 35.4-85.6 46.4-25.8 7.5-48.6 11-66.9 11.4-56.4 1-129.9-28.8-218.2-89.4-96.7-66.4-174.6-140.4-233.3-220.4-13.3-19.2-19.9-28.7-33.2-47.9.3-113.3.5-170 .9-283.3.5-130-.2-211.3-2.1-244.1-1.8-32.8-9.3-59-18.3-77.3-13.7-27.6-31.9-43.8-56.7-42.8-10.4.4-19.6 1.4-27.4 3.1-15.7 3.4-29.4 11.6-41.3 24.5-10.5 11.4-17.2 60.2-20.1 146.5-3.1 86.4-7.5 388.9-13.5 907.7-.1 22.1-.2 33.2-.3 55.4-.2 51.9 6.3 83.9 17.4 95.7m1832.7-208.2c-19.3 7.7-43.2 11-70.8 10.2-76.1-2.1-143.3-22.7-200.8-62.2-59.1-40.5-102.2-89-129.1-144.7-26.9-55.8-40.4-127.5-40.5-215-.1-53.3 11-103.2 33.2-149.4 35.3-76.2 80.3-113.8 135.3-112.7 2.3.1 3.5.1 5.9.1 70.7 2.7 159.7 61.5 267.4 177 37.8 40.6 56.7 60.9 94.6 101.6 2.5 60 3.8 90 6.3 150 3.4 60 5 90.1 8.4 150.1l-39.2 39.7c-28.8 29.1-52.5 48-70.7 55.3m179.8 227.7c7.9 4.4 17 6.8 27.5 7.2 30.3 1.1 51.9-9.6 64.9-32.3 3.9-8 5.8-30.5 5.7-67.4-.2-38.4-2.2-94.8-6.5-168.6-6.7-112.1-10.9-280.3-11.8-503.3-.1-34.5-.2-51.7-.3-86.2-.3-82.1-.4-123.1-.7-205.2.6-173.8-4.7-283.8-16-330-11.2-46.3-25.1-86.9-41.5-121.7-16.5-34.9-40.4-65.5-71.8-92-31.4-26.4-66.1-47.9-103.9-64-52.1-22.2-114.6-32.2-187-29.8-72.3 2.3-138 25.5-196.6 67.9-42.7 30.9-68.4 67.4-76.2 109.8-7.8 42.2-5.1 72.5 8 90.3 14.2 19.4 33.9 29.2 58.8 29.6 36.5.6 67.8-25.6 93.9-78.4 10.4-21.7 30.3-39.4 59.6-53.2 29.3-13.7 61.7-21.3 93-19.3 66.7 4.4 117.2 26.5 144 57.4 26.9 31 45.9 73.7 57.3 128.1 11.2 54.4 17.2 185.6 17.9 393.6.1 34.2-1.8 55.3-5.8 63.4-1.2 4.1-3.2 6.1-5.8 6-9.2-.3-30.2-15.4-62.9-45.2-106.3-90.9-203.8-137-292.7-138.7-81.1-1.6-157.1 33.7-223.5 105.4-79.9 86.3-119.6 202.3-119.6 341.8 0 4.2.3 11.4 1 21.6.6 10.3 1 18.1 1 23.6 9.2 194.3 81.5 336 214.8 426.9 103.6 70.7 208.9 108.3 315.2 111.2 62.9 1.7 117.4-9.6 163.3-34 10.5-5.2 17.7-8.7 21.6-10.6q5.85-2.85 10.8-2.7c3.2.1 5.6 1.2 6.9 3.3s2.7 5.2 4 9.4q17.85 64.2 53.4 86.1m287.4 375.7c2.7 17.9 12 33.7 28 47.5 16.1 13.8 33.4 21.2 52 22.2 10.5.5 22.5-2.2 35.8-8.3 25.1-13.8 37.6-51.3 37.3-112.9-.1-19.2-.9-33.6-2.2-43.2-4.2-41.3-8.2-299.2-13.7-772.2-3.9-336.4-7.3-539.1-8.9-606.9-1.7-67.8-7.7-106.8-16.5-116.9-12-13.6-29.2-22.1-51.6-23.3-26.4-1.4-47.6 6.5-63.3 23.5-10.5 11.8-17.7 26.8-21.6 45.1s-7.6 58.3-11.4 119.5c-3.5 57.2-5.2 152.3-4.6 285 .9 212.1 5.5 444.6 13.9 697.4s17.3 400.6 26.8 443.5m911.1-504.1c-33.9 17.6-75.7 25.6-125.5 24.3-10.2-.8-15.3-1.3-25.5-2.1-36.7-2.9-66.5-10.8-89.5-23.5s-49.7-35.9-80-69.6c-48.8-54.2-81.3-119.4-97.5-195.8-6.7-30.6-10.1-49.3-10.1-56.1-.1-8.2 2.5-14.9 7.7-20 28.6-24 98.3-35.2 207.7-33.8 19.5.2 41.8 1.2 66.7 3.2 31.4 2.6 63.6 14.5 96.3 34.7 31.2 19.2 60.8 47 87.9 83.6 27.1 36.5 43.4 69.5 48.9 98.7 1.3 4.3 2 10.5 2 18.7.5 58.8-29.2 104.6-89.1 137.7m-263.8 179.5c26.3 11.6 63.6 19.3 112.1 23.2 68.2 5.5 127.8.9 178.7-13.7 40.3-11.5 80.2-34.5 119.2-69.1 39-34.7 68.1-72.7 85.4-113 18.2-42.5 26.7-85.6 26.3-126.6-.7-80.8-34.7-163.9-102-247.8-86.7-108-194-167.5-320.8-177.7-3.9-.3-10.8-.5-20.5-.6-9.8-.1-17.4-.3-22.6-.8-62.7-.8-116.3 3.4-160.7 12.6-19.5 5.4-39.1 7.4-58.7 6-2.4-.1-3.6-.2-5.9-.4-2.7-4.2.2-25.3 8.4-63 8.3-37.7 18.4-72.7 29.7-104.6 10.4-29.1 28.1-57.9 53.3-85.4 25.3-27.6 51.8-47.4 79-58.7 30.9-12.8 61.9-17.8 91.9-15.4 83.6 6.7 148.4 49.3 194.8 127.2 22.4 36.1 39.5 59.9 51.4 70.3 14.1 12.2 29.5 19.1 45.2 20.5 20.8 1.9 39.4-4.5 55.6-19.4 16.1-14.9 24.1-34 24-57.2-.3-30.1-14.7-67.8-43-112.8-28.5-45.1-61-81.6-97.7-109.5-77.5-57.6-148.1-88.9-212-94.1-3.9-.3-9.5-.4-16.6-.3-7.2.1-13.4 0-18.6-.4-96.6-2.3-181.8 29.8-255.8 95.8-51.9 47-92.4 114.2-121.3 201.3-28.9 87-43 181.9-42.5 284.6.3 41.1 3.6 87.3 10.6 138.1 16 115.6 53.6 216.8 111.7 302.8 58.2 85.9 132 148.5 221.4 188.1m2419.9 658.4c18.4 16.9 38.8 27.4 60.9 31.4 38.6 6.9 71.1-9.7 97.4-50 40-62.3 56.9-289.3 50.5-681.1-.9-57.6-3.9-173.2-9.6-346.1-7.1-219.7-12.8-353.4-16.1-400.5-3.2-47.1-10.1-79.1-20.6-96q-23.7-39.3-69.6-47.7c-21.8-3.9-38.3.6-49.7 11.5-8.3 8.1-13.3 42-13.6 102.1-.4 60.1 1.9 250.4 7 571 6.8 435.6 6.4 661.7-1.1 678.1-2.5 7.8-5 11.4-7.6 11-6.6-1.2-34.5-45.1-83.8-131.6-29.4-54.4-97.3-168.1-203.7-340.2-19.9-32-41.9-68.1-65.8-108.2s-46.8-78.4-68.8-114.7c-21.9-36.3-36.2-59.8-42.8-70.4-45.2-76.9-80.2-117.2-104.9-121q-17.55-2.7-40.8 6c-28.4 9.3-52.2 25.2-71.5 47.7-19.1 22.4-47.7 69-85.8 140-69.9 129.2-135.9 244.2-197.9 345.1-62 100.8-98.2 150.7-108.7 149.3l-2-.3c-9.2-10.8-18.2-109.8-26.9-296.8s-14.3-393.6-16.9-619.5c-2.9-184.1-4.4-276.1-7.3-460.3-9.5-8.6-14.2-12.9-23.6-21.5-15.8-14.4-29.5-22.3-41.2-23.8-13-1.7-28.5 3.8-46.6 16.6-11.5 8.1-19.3 18.5-23 30.9-3.8 12.5-7.7 38.7-10.8 77.6-10 125-12.3 305.4-9.7 538.2 3.9 351.8 15.9 607.7 35.8 767.3 10 80.5 24.4 138.8 43.1 174.7 18.7 35.8 45.7 56.1 81 60.7 27.4 3.6 50.6 2 68.4-5.4 16.7-6.9 44-29.6 81.3-66.9 37.3-37.2 65.5-69.5 84.7-96.8 74.1-119.5 165.7-276.4 274.7-470.2 15.2-27.2 22.8-40.8 38.1-68 7.1 11 10.7 16.5 17.9 27.4 17.2 24.5 67.5 108.5 150.8 252.5 83.4 143.9 142.5 248.4 177.3 313 80.3 147.5 147.5 242.6 201.5 284.9m1025.1-320.3c-79-17.4-178.5-100.6-298.6-248.5-56.7-69.2-98.1-127.8-124.1-176.2-26-48.3-45.8-103.5-59.9-164.7-9.6-41.5-15.1-85-15.9-130.2-1.2-67.1 8.5-125 28.9-173.4 20.4-48.5 48.5-79.3 84.3-92.5 21.8-7.8 45.5-9 71.4-3.6 50.3 10.5 104.6 41.8 162.8 93.9q87.15 78.15 156.9 194.1c30.5 50.5 49.2 84.7 56 102.6 6.7 17.9 12.4 52.4 19.2 100.6 14.1 99 33.3 190.4 51.6 269.7 15.2 66.5 22.8 99.7 38 166.3-13.7 9.9-20.5 14.9-34.2 24.9-24.1 17.7-47.7 29.5-70.7 35.3-23 5.7-45 6.3-65.7 1.7m-100 131.7c35.2 18.6 65.7 30.7 91.6 36.4 55.7 12.3 114.8 5.8 177.4-19.5 23-10.3 34.4-15.5 57.4-25.7 11.9 18.3 17.9 27.5 29.9 45.8 19.9 29.2 40.8 46.4 62.8 51.6 20.6 4.8 36.9 2.2 49-7.9 12-10.1 17.8-26.2 17.3-48.1-.3-16.4-3.3-32.9-8.7-49.1-27.4-81.6-56.3-192.3-85.8-331.5-38.6-181.9-58.9-341.3-61.6-477-.9-45.3.2-91.6 3-138.5 3-51.1 3.9-90.6 3.4-118-1.1-50.8-12.7-85.2-34.8-102.3-15.3-11.8-30.4-19.3-44.6-22.5-23.2-5.3-42.6 1.5-58.3 20.5-15.6 18.9-26.5 48.4-30 86.4-3.8 40.8-10.4 61.1-21.9 58.5-7.8-1.7-18.2-13.1-31.5-33.6-14.4-22.3-49.9-56.9-106-103.3-56.1-46.3-99.6-75.7-128.8-89.2-25.8-11.8-53.1-21.5-81.4-27.4-59.4-12.4-110.1-12.7-150.6-.3-49.5 15.3-95.3 52.3-136.2 109.1s-66 119.2-75.2 187.1c-3.4 23.9-4.9 53-4.3 87.3 1.4 80.8 10.3 153.6 26.9 218.2 41.7 169.3 132.8 324.2 273.6 466.5 64.4 65.1 97.9 98.8 100.6 100.7 46 48 101.7 89.8 166.8 125.8m689.2 542.6c3 18.5 12.4 36.1 28.3 53.1 16.1 16.8 33.1 27.6 51.4 32.2 10.4 2.6 22.1 2.1 35-1.4 24.5-8.9 36.1-44.2 34.7-105.9-.4-19.2-1.4-33.8-2.9-43.7-4.8-42.2-13.1-301.5-26.5-776.2-9.6-337.8-16.4-541.4-19.2-609.6-2.7-68.2-9.2-108.4-18.1-120.2-12-16.1-29-27.8-51.1-33.3-26-6.5-46.6-2.7-61.8 11.3-10.1 9.7-16.9 23.4-20.4 41s-6.5 56.9-9.1 117.5c-2.5 56.6-2.6 151.5.2 284.6 4.6 212.6 13 446.3 25.6 701.1 12.5 254.9 23.8 404.7 33.9 449.5m534.4 174.9c15.9 22 32.8 35.5 50.9 40.4 18 4.9 35.2.7 51.5-12.5 9.7-8 14.7-11.9 24.4-19.9-9.5-208.7-14.3-313.2-23.8-521.9 8.4.7 12.6 1 21 1.7 16.6 1.8 64.2 12.1 142.3 31.6 82 20.3 130.1 26.7 141.8 18 13.5-10.1 20.3-28.2 19.7-51.6-.6-24.6-9.5-48.4-26.6-71-15.8-20.9-48-38.4-96.7-52.3-5.1-1.4-16.4-4.3-33.6-8.5-17.3-4.2-31.7-8-43.2-11.2-60-15.2-90-22.7-150.1-37.6-3-32-4.5-48-7.6-80-6.5-59.2-11.3-156.2-14.5-291.1-3.2-134.8 3.1-230.2 16.2-284.6 13.2-54.5 29.6-91.6 50.8-109 16.2-13.3 29.7-20.1 40.5-20.5s36.6 5 77.5 16.6c46 13 77.9 18.2 95.5 15.1 17.7-3 28.8-16.6 33.2-41q1.8-7.5 1.5-19.8c-1.5-58.4-51.4-105.2-149.9-139.8-3.8-1.1-9.3-2.9-16.3-5.6s-11.9-4.3-14.4-5.1c-25.5-7.2-57.3-7.2-95.2.1-85.9 19.9-144.6 74.8-171.7 161.8-26.7 85.8-37.4 199.4-34.3 336.6 1.4 60.4 3.2 110 5.3 148.7 4.9 113.5 7.4 170.1 12.3 283.6-20.8-6.4-31.2-9.6-52.1-15.9-63-16.7-94 .5-92.9 51.3 1.1 48 36.9 85.7 106.2 113.8 28.4 11.5 45.5 20.3 51.4 26s11.2 18 15.2 36.8c5.9 27.2 13.4 92.6 22.8 195.3 9.4 102.8 14.6 175.4 15.5 218 1.1 45.3 10.2 79.8 27.4 103.5M9898.27 15805.9c66.26-.4 146.33-11.3 239.93-32.1 113.7-25.3 206-54.5 271.9-89.9 64.9-34.7 129.4-86.1 192.1-149.6s108.1-124.2 136.1-182.4c14-27.3 28.6-77.7 43.6-151.3s23-129.3 23.9-167.2c.3-13.3-.7-21.6-2.8-25-14.2-61.3-54.7-85.6-121.6-72.4-31.2 6.2-59.8 22.2-85.9 48.2-26.2 26-43 56.8-50.5 92.3-22.8 115.8-47.6 199.7-74.4 251.3-26.7 51.7-67.8 98-121.4 131.5-43.1 27-101 47.1-167.8 61.9-82.4 18.1-163.9 23.9-244.29 17.1-80.44-6.7-136.78-26.5-162.08-59.1-27.94-36-40.58-84.4-39.05-137.5 1.09-38 11.02-78 29.88-120.2 49.12-104.2 229.74-306.4 541.64-595.6 243.8-226.1 400.2-390 466-497 69.2-112.5 104.8-228.5 107.4-345.9 3.7-162.9-53.1-288.2-169.9-374.4-82.1-64.8-199.9-102.3-346.5-103.8-97.1-1.1-181.9 8.6-250.1 24-149.54 34-282.87 116.6-399.58 247.1-146.34 163.6-222.13 335.3-227.48 511.7-2.93 96.8 19.22 182.8 67.54 254 50.88 74.9 107.18 105.8 164.5 91.8 30.83-7.5 62.67-28.9 95.43-64.1 32.77-35.2 49.57-66.5 50.34-93.9.78-27.5-15.24-60.5-43.21-98.5-29.73-40.3-43.23-95.1-41.37-159.5 2.28-79.7 27.48-158.3 75.56-235.7 48.07-77.3 109.75-136.2 185.17-176.1 8.9-5.9 29.9-12.6 62.9-20.1 116.7-26.4 214.3-28.8 292.8-7.8 128.7 31 193.3 120.2 188.1 260.6-3.3 90.3-34 174.6-88.8 250.1-54.7 75.3-176.8 200.1-366.3 375.9-222.65 206.5-382.76 372.1-478.46 492.8-95.61 120.5-158.16 233-187.56 336.6-14.56 47-22.25 83.8-23.05 110.4-.34 11.3 2.67 42 10.41 90.5 17.43 109.2 63.97 188.7 136.32 236.6 72.29 47.9 175.75 72.3 310.61 74.7m2179.43-438c33.6 1.1 72-.9 114.9-6.4 101.5-13 189.7-36.8 264.6-71.9 47.7-22.5 100.6-60.5 158.8-114 58.3-53.6 96.5-100.4 115.1-139.7 16-33.8 24.6-69.6 25-107.4.8-64.4-17.8-104.9-55.8-121.7-13.5-6.2-39.3-7.2-77.7-3-31.6 3.4-60.4 18.4-86.6 44.9-26.3 26.6-39.6 54.1-40 82.5-.3 24.5-19.4 55.9-57 94.3-37.7 38.4-77.1 64.1-114.3 78.8-24.5 9.7-54.2 17.9-88 22.2-112.7 14.2-233.7-12.3-362.6-78.8-129-66.7-228-155.5-297.5-267.1-101.6-163.3-155.1-345.1-160-546.2q.3-11.25-.9-36.6c-.8-16.8-1.1-29.1-.9-36.6 7.3-372.9 157.9-646.3 451.9-811.3 53.8-30.3 100.8-48.2 140.9-53.7 24.5-3.4 44.5-5.2 60.1-5.4 64.5-3.1 115.7 1.7 153.4 13.9q56.4 18.15 122.4 75.3c44.1 38 74.9 70.3 92.4 96.5 17.4 26.3 33.1 68.6 48.4 124.7 28.3 103.4 81.7 152.1 155.7 144.1 33.5-3.7 67.4-21.5 101.3-53.3 31.7-29.7 47.7-55 48-75.7.1-5.7-2-21.6-6.1-47.6-16.5-119.2-72.1-229.7-166.7-330.8s-200.6-163.4-318.1-186.5c-59.9-13.4-148.8-14.4-263.4.3-106.1 13.6-193.8 40.4-261 76.8-203.8 113.3-357.6 253-461.7 415.8-104.1 162.9-166.4 359.9-186.9 589.9-2.6 19.3-4.3 48.9-5.1 88.6-5 231 42.1 439.4 142 626.1 99.8 186.7 228.5 319.2 386.3 399 59.9 30.5 131.8 57.5 215.6 81.4s155.2 36.8 213.5 38.6m2224.8-496.2c-29.4 16.1-103.1 28.9-220.9 39.6-13.6.6-30.6 1.8-51 3.7s-33.9 3-40.7 3.3c-56.7 2.7-118.9-8.3-186.6-32.9-173.8-62-308-244.1-402-548.4-24.1-77.5-38.7-137.7-44-180.6-5.2-43-9.5-124-9.6-239.8 0-142.1 10.3-252.1 26.6-326 16.4-73.8 51-151.7 99.7-232.2 52.6-87.1 120-158.8 203.3-210.2 83.3-51.3 173.1-79.5 269.5-84.3 80.7-4 156.8 7.7 228.4 35 150 56.3 277 149.1 379.5 276.9 78.4 97.8 133.8 202.1 166.3 311.1 32.4 108.9 48.5 247.4 48.3 415.4-.1 36.2-.1 54.4-.2 90.6-.1 84.9-17.1 165.3-51.2 241.3-88.5 182.5-226.9 327.4-415.4 437.5m-416 272.8c29.1 3.7 114.4 4.3 255 2.4 21.8-.9 32.7-1.3 54.5-2.1 72.6-2.8 145.4-21 217.9-52.7 69.8-30.5 160.2-92.1 269.2-184.6 72.5-59.9 123.1-105.7 151.4-138.2 28.3-32.3 61.8-82.8 100.3-151 54.4-96.5 89.4-173.2 105.2-230 15.8-56.7 23.8-138 23.8-243.8-.1-23.8-.1-35.7-.1-59.5-4.5-221.1-36-406.5-94.4-555.5-58.5-149-158.3-294-299.4-433.3-71.7-72.5-164.6-136.6-278.7-191.8-114-55.1-217.8-86.2-308.6-90.7-44.3-2.2-79.5-2.1-104.1-.9-235 11.5-431.3 90.7-589.1 234.8-49.6 45.3-104 114.2-163.1 206.9s-100.2 176.4-123.4 249.9c-25.2 79.5-39.3 210.3-41.2 391.8-1.2 102.1 1.9 180.8 10.9 234.2 9.8 59 17.7 129.1 24.7 204.7 3.5 36.8 23.7 100.8 58.8 190.4s71.9 161.6 106.1 215.1c33.6 52.6 75.7 109.3 127.1 166 51.5 56.6 95.4 96.9 131.3 121 38.2 25.6 94.6 49.8 169.2 72.7 74.5 22.9 140.9 37.1 196.7 44.2m2242.7 68.3c72.3 6.8 151.4 14.5 236.4 22.3 85.1 7.7 151.9 14.4 200.7 19.5 48.7 5.1 77.6 8.1 86.7 8.7 4.1.3 6.1.5 10.2.7 31.7 2.3 63.3-2 95-13 31.5-11.1 52.6-24.1 60.7-38.4 6.9-12.2 9.9-31.7 9.6-56.6q-.45-48.75-21-73.2-30.9-36.9-87-52.5c-37.3-10.4-101.4-18.9-191.9-24.7-135.8-8.8-235.5-16.9-298.9-26-46.2-5.7-69.3-8.5-115.5-14.1 1.4-219.8 2.2-329.8 3.6-549.7-.4-73.7-.6-110.6-1.1-184.2-.7-134.3-3.1-248.8-7-343.4s-10.2-224.3-19.1-389.2c-8.8-164.8-15.5-289.9-20.5-375.1-7.3-123-14.1-200.5-19.8-231.9-5.8-31.4-18.8-56.1-39-73.9-29.3-25.8-64-39.6-104.3-41.1s-72.8 7.8-97.3 27.7c-17.9 14.6-29 31.3-33.4 50-4.4 18.8-6.4 65-6.1 138.7.4 115.3 6 302.2 25.7 550.8 22 277.2 39.8 646.6 41.7 1098.3.8 168.2-2.3 260.8-9 277.5-6.7 15.7-10.1 23.5-16.8 39.2-57.2-6.4-85.7-9.6-142.8-15.6-79.4-9.8-157.6-15.2-234.6-16.4-120.2-2-199.3 7.7-234.6 28.6-33.7 20-51 50.4-50.9 88.7 0 28.7 11.3 51.7 34.1 69 20.3 15.4 83.4 27.6 188.9 37.6s359.7 24.3 757.3 61.7m1978 163.4c33.8 10.1 72.3 18.3 115.1 24.4 101.4 14.2 189 14 262.7-1.1 47-9.9 98.6-33.9 155-72 56.4-38.3 93-74.9 110.3-109.5 14.8-29.5 22.2-63.3 21.5-101.1-1.3-64.4-21.2-110.2-59.7-137.2-13.6-9.8-39.5-17.8-77.6-23.9-31.4-5-59.8 2.3-85.1 22-25.3 19.6-37.8 43.6-37.2 72q.6 36.9-54 79.5c-36.5 28.4-75 43.6-111.8 48.4-24 3.2-53.7 3.5-87.5-1.3-112.6-16-234.9-75.1-366.8-176.6-131.9-101.7-234.7-217.6-308.5-348.4-108-191.5-168-388.4-179.5-591.7-.1-7.5-.8-19.9-2.2-37-1.3-17.1-2-29.5-2.1-37.1-4.8-372.6 138.9-606.4 429.4-693 53.3-16 99.9-21.3 140-16 24.5 3.2 44.6 6.8 60.3 10.7 64.7 14.3 116.1 32.8 154.3 55.2 38.2 22.3 79.9 58.4 125.3 108.5 45.3 50 77.2 90.7 95.5 121.8 18.4 31 35.4 77.8 52.5 138.1 31.9 111.9 86.7 174.7 160.3 186.5 33.4 5.3 66.6-3.4 99.4-26.3 30.6-21.4 45.8-42.5 45.4-63.3-.1-5.6-2.7-22.1-7.7-49.4-20.3-124.1-79.3-250-177-376.9-97.8-126.8-205.8-217.8-324.4-272.7-60.5-29.5-149.3-54.3-264.3-70.4-106-14.8-193.6-11.6-260.1 6.9-201.7 58.9-352.8 157.6-452.8 293.1-100.1 135.5-156.8 316.5-170 541.9-2.1 18.7-2.8 48-2.4 87.6 2.6 230.7 57.3 452.8 164.5 667.3s241.8 382.3 403.5 504.9c61.4 46.8 134.7 93.3 219.9 139.9 85.1 46.5 157.3 78.7 215.8 96.2m1047.9 127.4c26.6 33.2 61.4 53.7 101.8 61.3 58.2 11 97.9-6.8 119.1-53.6 8.4-19.2 13.4-118.1 14.8-296.9 1.4-178.9 2.8-351.6 4.5-518.1 1.6-166.5 5.8-249.2 12.5-247.9 6.6 1.3 61.6 22.2 164.1 64 91.4 37.3 223.6 85.3 395.9 145.3 172.3 60.1 287 98.4 344.5 112.2 8 1.9 11.9 2.8 19.9 4.7 2.1.6 4.4.1 6.5-1.2 2.7.6 4 .9 6.7 1.6 11 2.6 18.5 14.8 22.4 36.5 3.9 21.6 9 80.8 16.6 176.3 12.5 157 21.4 285.7 24.3 384.4 4.5 157.4 16.9 263 37.2 316.9 20.2 54 60.4 88.2 120.2 103.2 64.3 16.1 105.7.4 124-47.6 4-10.2 4.9-54.3 2.5-132.1-1.4-47.4-6.4-141.9-15.1-283.4-17.3-283-30.2-633.4-44.7-1044.8-15.5-441.1-31.4-678.2-40.9-705.1-23.4-56.8-64.7-93.7-123.9-110.3-7.9-2-11.8-3-19.7-4.9-63.6-15.8-100.5 4.6-110.9 60.4-10.4 55.9-11.4 228.8-3.1 519 5.8 203.6 8.8 305.5 14.6 509.2-25.3-9.6-37.9-14.2-63.2-23.7-8.9-4-29.9-11.3-63.1-22-33.3-10.6-74.8-24.1-124.6-40.3-49.9-16.1-94.8-31.4-134.8-46-188.8-64.7-330.1-115.5-423.9-155.2-65.6-26.9-98.4-40.2-164-66.6-7.3-85.1-11-127.8-18.2-212.8-15.5-189.8-27-316.9-35.4-380.3-10.2-77.1-18.9-126.7-24.9-147.6-5.9-20.9-20.3-41.3-42.7-60.5-31.2-26.7-62.7-43-93.7-48.7-70.9-13.2-114.5 10.1-130.9 69.4q-3.15 5.1-2.1 53.4c1.3 58.6 6 125.5 14.3 200.6 41.9 403.6 67.9 828.9 77.7 1275.8.6 24.6.8 57.7.6 99.1s.1 71 .2 87.8c.3 64.7-.3 137.6 1.4 215.2 1.6 75.8 12.7 127.5 33.5 153.3m-9473.62-3119.8c23.32 14.8 51.38 18.3 84.03 10.3 39.27-9.7 72.36-31.8 99.38-66.6 15.62-18.8 23.9-42.4 24.7-70.8 1.19-41.8-5.13-121.4-19.15-238.4-26.05-217.7-34.8-479.4-25.99-784.7 5.48-189.7 16.98-329 34.61-418 53.16-282.2 128.74-455.7 227.14-519.9 34.9-21.2 67.5-35.2 97.8-42.1 38.9-8.8 70-8.3 93.5 1.6 48.9 19.3 90.8 87 125.5 203 34.8 115.9 82.7 357.6 148.9 719.2 33.4 182.5 56.9 291.3 66.9 324.1 10.1 32.8 26.9 57.2 50.5 73.2 38.6 26.2 75.3 35.9 110.4 29 74.4-14.5 119.2-77.2 135.1-187.2 42.6-294.1 87.2-537.3 133.8-720.9 82-323 220.4-549.5 405.4-670.7 30.4-20.8 45.6-31.3 76-52 16.8 9.7 25.2 14.6 41.9 24.4 51.8 25.7 99.4 97.6 143 215.4 43.6 117.9 71.2 252.2 84.4 400.7 8.7 98.3 12.2 233.2 9.2 403.5-3.3 181.7-12.4 357-25.9 524.8-8.9 110.3-13.6 204.8-15 282.4-.7 41.6-.1 64.2 2.1 67.7 4.1 18.2 19.7 31.9 47.2 41.2 27.3 9.1 55.4 11.7 84.1 7.6q16.65-2.4 36.6-10.8c40.1-18.9 67.5-46.7 82.5-83.7s27.1-108.8 38.3-213.3c12-112.6 21.7-318.3 26.5-615.3 4.8-291.4 1.7-475.7-7.3-551.2-16.2-136.5-47.6-267.9-96.8-390.2-49.2-122.4-103.9-209.4-163.9-260.9-34.3-30.7-79-53.8-134.1-68.9-55.2-15-104.5-18.9-148.1-11.9-9.2 1.5-13.7 2.2-22.9 3.7-124.4 35.3-249.6 121.8-376.1 254.1-144.3 150.9-251.3 338.1-315 559.9-26.1 95.5-42.4 144-49 145.3-8.7 1.7-30-75.3-66-227.3-30.5-128.7-61.1-222.8-88.8-280.2-27.7-57.5-66-102.8-114.6-136-86.9-58.9-189.7-75.3-308.4-48.4-60.4 13.7-120 37-178.7 69.4-47.76 26.4-98.84 67.7-152.86 124.1-54.09 56.5-94.69 109.8-121.79 159.9-119.93 223.6-185.94 530.7-197.75 919.7-7.72 254.2 7.98 527.3 46.24 818.3 22.98 174.7 46.95 270.6 72.44 286.9m2753.92-499c25.2 25.2 59.3 35.4 99.2 30.9 57.6-6.6 97.9-36.5 120.7-90 9.1-21.8 17.7-122.8 25.6-303 7.9-180.3 15.7-354.4 23.4-522.4 7.7-167.9 14.9-252.3 21.5-253s60.7 3.6 161.7 14.6c90 9.7 220.7 17.9 391.7 25.7 171.1 7.9 285.4 11.3 343 7.6 8-.5 11.9-.8 19.9-1.3 2.2-.1 4.4-1.3 6.7-3.3 2.6-.2 3.9-.2 6.6-.4 11-.7 18.2 9.2 21.3 29.8 3.2 20.5 6.2 78.4 10.4 172.3 6.8 153.7 11.1 280.8 10.4 379.1-1.2 156.9 7.4 259.4 26 307.4 18.5 48 57.8 70.2 117.9 66.8 64.5-3.5 107-32.1 127.3-85.9 4.5-11.6 7-56.2 7.5-133.6.3-47.3-1.4-140.7-5-280.4-7.2-279.3-7.4-627.1-7-1037.1.5-438-6.9-672.4-15.6-696.5-21.6-50-62.1-74.3-121.4-72.9-7.9.4-11.8.6-19.7 1.1-63.8 3.6-101.8 35.4-114.4 94.7-12.5 59.4-19.8 233.7-22.1 522.9-1.5 203.1-2.3 304.6-3.9 507.7-25.2-1.9-37.7-2.7-62.9-4.5-8.8-1.3-29.8-2.3-62.9-2.8-33.1-.6-74.5-1.5-124.1-2.4-49.6-1.1-94.3-2.8-134-5.2-187.3-7.5-327-15.8-419.3-27.3-64.6-7.1-96.9-10.6-161.4-17.3-4.2-83.3-6.3-125.1-10.5-208.4-8.5-186.1-15.3-310.4-21.3-371.7-7.4-74.3-14.3-121.7-19.5-140.9-5.2-19.3-18.8-35.4-40.4-48-30.1-17.4-60.9-24.2-91.5-20.7-70.2 8.2-114.4 44.8-132.8 109.4-2.2 4.1-3.6 22.1-4 54.3-.9 58.6 1.3 124.5 6.8 197.4 27 393.3 37.4 813.1 30.9 1259.6-.4 24.5-1.4 57.7-3.1 99.5-1.7 41.6-2.4 71.4-2.9 88.1-2.1 65.4-5.4 138.5-6.5 216.1-1.1 75.6 8.1 124.4 27.7 144m1826.6-175.3c24.4 19.9 58.9 29.1 103.4 27.7q33.45-1.05 66.9-16.2c42.3-20 71-111 86-273 14.9-161.9 26.1-506 34.6-1031.3 2.5-153 4.2-331.8 4.8-535.9.4-141.8-2.1-243.3-7.4-304.6-5.3-61.2-13.5-100.3-24.4-117.1-11-16.7-31.2-30.2-59.2-41-26.2-10.1-46.2-15.7-59.3-15.3-13.2.4-33.1 6.7-59.5 18.9-39.6 18.3-62.7 38-69.5 59-2.2 5.8-9.7 357.1-22.8 1054s-18.1 1057.5-19.8 1076.6c-1.1 12.3-3.5 27.4-3.6 42.6-.1 20.8 9.9 39.3 29.8 55.6m1029 100.2c66.8 15.8 147.1 24.5 240.7 26.4 113.7 2.4 205.5-4.4 270.6-23.8 63.6-19 127.2-55 188.1-103.5 61-48.4 104.6-98.4 131-150 13.2-24 26.3-71 39.1-141.3 12.9-70.2 19.2-124.2 19-162-.1-13.2-1.3-21.8-3.4-25.7-16-65-57.2-99.2-123.8-102.2-31.1-1.4-59.3 7.8-84.6 27.5-25.4 19.8-41.4 46.6-47.9 80.3-19.5 110.7-41.9 188.9-67.2 234.2-25.4 45.4-65.9 82.1-118 102.4-42.5 16.6-100.1 22.6-166.8 21.1-82.4-1.8-164.2-16-245.4-42.5-81.3-26.4-138.5-59.7-165.3-99.1-29.4-43.3-43.4-94.6-43.4-147.6-.1-37.8 8.8-75.5 26.6-113.3 46.6-92.5 223.3-251.1 528-465.2 238.3-167.5 390-294.3 452.6-385.5 65.8-96.1 98-203.9 97.3-321.1-1.1-162.6-61.4-302.1-180.8-417-84.1-85-202.4-151-350.4-188.5-97.3-24.7-182.6-35.8-250.7-36.9-149.6-2.6-281.7 47.7-395.8 149.9-143 128.2-214.9 281.9-215.1 457.7-.1 96.4 24.8 188 75.8 271.5 53.9 88.1 111.6 132.6 169.1 132.7 30.9 0 62.4-13.7 94.5-40.9 32-27.3 48-54.6 48-82s-16.9-64.1-46.5-109.4c-31.3-47.9-46.4-106.1-46.4-170.3-.1-79.4 23.1-152.1 69.3-217.9 46.3-65.9 106.8-109.9 181.6-131.5 8.8-3.7 29.7-5.3 62.7-4.7 116.7 2 214.7 23.4 294.1 63.6 130.1 62.5 197.3 167.3 196.3 307.4-.7 89.5-29 166.9-81.7 229.4-52.8 62.3-171.6 157.9-357.1 287.9-217.8 152.8-374.8 279.7-468 377.3-93.2 97.5-153.2 195-179.9 291.7-13.4 43.6-20.1 78.6-20.1 105.1-.1 11.3 3.9 43 13.2 93.4 20.9 114.3 70.3 205.2 144.9 271.1 74.5 65.9 179.8 115.9 315.8 151.3m1275.4-9.8c22.4 26.1 53.7 40.6 93.7 43.4 37.8 2.8 67.7-9.5 89.7-30.2 24.1-22.6 42.5-131.7 60.3-312.7 4.9-49.4 11.8-140.9 17.4-270.7 5.2-124.1 11-211 10.7-254.1-.3-49-1.9-114.8 1.4-189.8 2-43.1 3.8-64.9 6.1-64.7 13.2 1.1 88.4 75 225.8 223.5s298.9 328.9 482 542.2c157.1 183.1 265.1 306.6 323.4 366 58.4 59.4 105.3 91.6 140.7 96.3 24.3 3.3 55.1-5.7 92.3-27.1 21.7-15.8 34.7-36 35.4-57.3 1.2-36-27.8-91.1-81.9-152.9-43.3-49.5-185.1-218.7-419.4-502.1-234.5-283.4-380.1-452.7-438.2-513.1-66.9-71.1-100.3-106.5-167.1-177.2 90.5-61 135.7-91.2 225.9-151.3 152.7-99.9 332.1-222.8 537.7-367 142.8-103 230.5-167.1 263.9-194.7 33.3-27.4 50.9-54.3 52.5-80.4 3.6-57.8-30-100.6-100.1-127.1-4.5-2.5-12.1-4.5-23-5.9-35-4.7-82.7 9.6-143.2 43.4-60.6 33.8-157 99.1-288.8 197.3-171.1 127.4-333.1 244.3-485.8 349.3-152.6 104.9-235.9 158.1-249.1 157-2.2-.2-4.1-17.8-5.5-52.9-1.5-35.1-3-89.6-4.9-163.3-1.8-73.8-2.2-139-3.5-193-5.3-214.7-18.8-350.5-30.2-397.7s-42.4-76.5-92.9-87.9c-6.6-2.3-16.5-4-29.7-5-70.2-5.2-114.9 19.3-134.2 72.8-4.4 11-8.7 29.7-9.5 53.2-1.3 36.1 4.2 346.8 24 914.2 8.9 255.9 15.8 544 7 850.7-5.6 194.4-9.1 318.3-5.4 366.7 3.8 48.4 11.2 82.5 22.5 102.1m1975.4 242.8c24.5 22.1 53.5 36.8 86.6 42.2 24.3 3.9 44.2.8 59.2-7.3 18.8-10.3 87.5-83.4 203-218.8s213.2-258.9 293.7-369.5c73.5-101 148-191.8 222.2-272.2 74.1-80.3 119.8-118.5 137.2-114.8 1.3.2 2 .4 3.3.6 6.6 7.1 37.2 68.8 92.4 183.3 67.7 140.5 177.2 338.3 326.2 594.3 148.8 256 245.9 411.2 290.7 463.4 20.2 21.8 48.8 37.2 85.9 46.2 39.1 9.6 73.6 7.8 100.3-6.3 23.2-12.2 34.7-32.8 33.9-59.3-1-36.1-26.6-96.2-76.5-180.1-277.1-462.1-468.8-795.7-576-1007.7-18.3-36.1-38.8-76.9-61.5-122.3-22.9-45.6-41.1-81.5-54.8-108-13.6-26.5-22.7-43-27.2-49.6-13.5-21.8-25.8-208.1-36.9-559.2l-17-413.5c-15.9-17-23.9-25.4-39.8-42.3-26.5-28.3-58.2-46.2-95-53.8-41.2-8.4-76.1-3.1-99.8 16.5-18.8 15.6-27.5 66.2-25.6 147.6.3 11.3 5 116 14.1 313.9 9.1 216.7 13.7 325.1 22.8 541.9-53.5 49.2-80.2 73.9-133.8 123.5-133.9 126.7-250.7 270.5-349.9 430.3-29.7 45.6-109.2 152.5-239.8 318.4-120.7 153.2-183 250.8-182.2 290.5.4 22.7 15.9 46.6 44.3 72.1" style="fill:#100f0d;fill-opacity:1;fill-rule:nonzero;stroke:none" transform="matrix(.00328 0 0 -.00328 50.845 198.902)"/></g></svg>