<svg xmlns="http://www.w3.org/2000/svg" xml:space="preserve" width="200mm" height="200mm" viewBox="0 0 200 200"><defs><clipPath id="a" clipPathUnits="userSpaceOnUse"><path d="M33698.6 32380.8c29.8 25.5 57.8 53.1 84 83.1-26.2-30-54.2-57.6-84-83.1m84.4 83.7c.3.3.6.6.9 1-.3-.4-.6-.7-.9-1m2.3 2.6.4.4zm-3815.8 68.3c-11.9 21-23.1 43-33.6 66.1-32.8 72.5-54.4 156.5-68.2 247.5 13.8-91 35.5-175 68.3-247.5 10.4-23.1 21.6-45.1 33.5-66.1m4012.8 334.6c.1.1.2.5.2.6-.1-.2-.1-.4-.2-.6m.8 3.4c.1.4.2.9.3 1.3-.1-.4-.2-.9-.3-1.3m.6 2.6c18.6 80.3 30.6 168.5 35.5 265.5 15.4 307.8 21.9 618.2 23.4 929.3-1.4-311.1-8-621.4-23.4-929.2-4.8-97.1-16.9-185.3-35.5-265.6m46.2 2413.6c-3.2 172.7-6.5 345.1-9.3 516.6-5.2 319.4-6.1 638.5-5.1 957.3-1-318.9-.1-637.8 5.1-957.4 2.8-171.5 6.1-343.8 9.3-516.5m-8.4 2397.7c1.2 163.9 2.4 327.8 3 491.7-.6-163.9-1.8-327.8-3-491.7m3.8 1231.6c11.7 459.6 95.2 1058.4-40.9 1468.9-187.6 566.2-1142.5 514.6-1281.7 1013.4h.2c139.4-498.7 1094-447.3 1281.6-1013.4 136-410.5 52.6-1009.4 40.8-1468.9m-4144.9 281.1c-.6 63.7-1.2 127.4-2 191.1-1.5 121.4-11.5 256.1-17.5 394.4 6-138.3 16.1-273.1 17.5-394.5.8-63.6 1.4-127.3 2-191m901.8 1826.3h.2zm2.6.7c.4.2.8.3 1.2.4-.4-.1-.8-.3-1.2-.4m1.3.4c.8.3 1.6.5 2.4.8-.8-.3-1.6-.5-2.4-.8m2.7.9c.8.2 1.7.5 2.5.7-.8-.2-1.7-.5-2.5-.7m2.5.7c204.3 62.6 376.4 159 435.1 436h.1c-58.8-277.1-230.8-373.4-435.2-436"/></clipPath></defs><g style="display:inline"><g clip-path="url(#a)" transform="matrix(.0148 0 0 -.0148 -373.168 667.24)"><path d="M29860.9 32380.8h4259.6v9084.21h-4259.6z" style="fill:#87d7e8;fill-opacity:1;fill-rule:nonzero;stroke:none"/></g><path d="M32604 32099.8c-119.1 0-240.2 4.2-361 9.8 120.7-5.6 241.6-9.7 360.6-9.7 427.3 0 829 53.1 1095 280.9-265.8-227.8-667.5-281-1094.6-281" style="fill:#4bb3da;fill-opacity:1;fill-rule:nonzero;stroke:none" transform="matrix(.0148 0 0 -.0148 -373.168 667.24)"/><path d="M32243 32109.6c-242.6 11.3-483.7 28.6-703.8 30.6-8.8.1-17.8.2-26.8.2-87.5 0-180.5-3.7-275.9-7.4-95.6-3.6-193.7-7.3-291.4-7.3-391.2 0-777.4 58.6-975.6 409.7 44.2-78.3 97.8-142.1 158.6-193.8 212-180.5 512.8-215.8 816.7-215.8 97.7 0 195.8 3.6 291.3 7.3 95.4 3.6 188.2 7.3 275.7 7.3 9.2 0 18.4-.1 27.4-.1 220.1-2 461.1-19.4 703.8-30.7m1539.6 354.3c.1.2.3.4.4.6-.1-.2-.3-.4-.4-.6m1.3 1.6c.5.5.9 1 1.4 1.6-.5-.6-.9-1.1-1.4-1.6m1.8 2c89.6 103.9 157.2 235.8 196.6 402.5-39.3-166.8-107-298.6-196.6-402.5m-3918 381.5c-53.5 354.3 13.1 815.9 9.6 1126.2-10 888.7 26.1 1778.2 10.1 2666.3-15.3 852.6-.2 1706-7 2558.5 6.9-852.5-8.2-1705.9 7-2558.5 16-888.2-20.1-1777.7-10.1-2666.3 3.5-310.3-63-771.8-9.6-1126.2m4114.8 21.6c.2.9.4 1.8.6 2.8-.2-1-.4-1.9-.6-2.8m.9 4.1c.1.5.2.9.3 1.3-.1-.4-.2-.9-.3-1.3m59.2 1196.1c1.8 406.2-5.2 813.7-12.7 1218.8 7.6-405.1 14.5-812.6 12.7-1218.8m-27.1 2692.7c1 308 3.7 615.9 6 923.8-2.3-307.9-5-615.7-6-923.8m9 1415.5c.8 208.3.9 416.6-.4 625.1-.2 37.1.2 75.4 1.2 114.8-1-39.4-1.4-77.7-1.2-114.8 1.3-208.5 1.2-416.8.4-625.1m-4163.6 1606.5c-14.3 328.7-5.4 677.2 197.1 912.5 195.4 226.9 481.4 255.4 724.2 328.3-242.7-72.9-528.8-101.4-724.1-328.3-202.6-235.4-211.5-583.8-197.2-912.5m921.5 1240.8c.8.3 1.6.5 2.4.7-.8-.2-1.6-.4-2.4-.7m3.6 1.1h.1zm2.5.8c.1 0 .2 0 .3.1-.1-.1-.2-.1-.3-.1m1204.9 305.6c-100 0-194.4 6.4-282.6 17.2v360.4c0 70.3-57.1 127.4-127.4 127.4-70.4 0-127.4-57.1-127.4-127.4v-314.5c-85.9 20.5-162.8 44.2-229.5 68.1 4.1 19.5 7.7 39.9 10.7 61.2 59 421.4 24.3 977.2 15.8 1432.1-5.9 314.5 42.3 379.7 199.5 379.7 55.7 0 125.2-8.2 210.9-16.4s187.6-16.4 308.2-16.4h3.3c238.6.3 405.3 35.5 518.8 35.5 156.4 0 211.9-66.7 215.1-383.1 4.8-468-23-967.8-23-1426.9 0-47 5.9-90 16.9-129.5-222.4-37.6-472.6-67.4-709.3-67.4" style="fill:#87d7e8;fill-opacity:1;fill-rule:nonzero;stroke:none" transform="matrix(.0148 0 0 -.0148 -373.168 667.24)"/><path d="M30128.1 32341.6c-60.8 51.7-114.4 115.5-158.6 193.8-11.9 21-23.1 43-33.5 66.1-32.8 72.5-54.5 156.5-68.3 247.5-53.4 354.4 13.1 815.9 9.6 1126.2-10 888.6 26.1 1778.1 10.1 2666.3-15.2 852.6-.1 1706-7 2558.5-.6 63.7-1.2 127.4-2 191-1.4 121.4-11.5 256.2-17.5 394.5-14.3 328.7-5.4 677.1 197.2 912.5 195.3 226.9 481.4 255.4 724.1 328.3h.2c.8.3 1.6.5 2.4.7.4.1.8.3 1.2.4h.1c.8.3 1.6.5 2.4.8.1 0 .2 0 .3.1.8.2 1.7.5 2.5.7 204.4 62.6 376.4 158.9 435.2 436 66.7-23.9 143.6-47.6 229.5-68.1v-130.2c0-70.3 57-127.4 127.4-127.4 70.3 0 127.4 57.1 127.4 127.4v84.3c88.2-10.8 182.6-17.2 282.6-17.2 236.7 0 486.9 29.8 709.3 67.4 139.2-498.8 1094.1-447.2 1281.7-1013.4 136.1-410.5 52.6-1009.3 40.9-1468.9-1-39.4-1.4-77.7-1.2-114.8 1.3-208.5 1.2-416.8.4-625.1-.6-163.9-1.8-327.8-3-491.7-2.3-307.9-5-615.8-6-923.8-1-318.8-.1-637.9 5.1-957.3 2.8-171.5 6.1-343.9 9.3-516.6 7.5-405.1 14.5-812.6 12.7-1218.8-1.5-311.1-8-621.5-23.4-929.3-4.9-97-16.9-185.2-35.5-265.5-.1-.4-.2-.8-.3-1.3-.1-.4-.2-.9-.3-1.3-.2-1-.4-1.9-.6-2.8 0-.1-.1-.5-.2-.6-39.4-166.7-107-298.6-196.6-402.5l-.4-.4c-.5-.6-.9-1.1-1.4-1.6-.3-.4-.6-.7-.9-1-.1-.2-.3-.4-.4-.6-26.2-30-54.2-57.6-84-83.1l-34.1 60.9c-128.2 228.3-369.5 369.5-631.2 369.5h-2221.5c-270.1 0-517.9-150.4-642.4-390.1zm2524.2 8323.2c-61.4 0-99.1-2.5-99.1-2.5s421.5-41.7 653.1-514.2c175.4-357.8-84.5-6295.2-97.2-7031.2-97.9-10.4-309.5-30.1-547-35.2-326.6-6.9-694.8-173.7-694.8-173.7 47.3-6.7 267.9-11 536-11 486.8 0 1130.4 14.1 1178.2 53.1 97.5 79.5 40.7 2158 41.7 4127.1.8 1569.8 96.9 3026.6-69.5 3279.4-182.7 277.3-686.6 308.2-901.4 308.2m-794.6 27.8c-364.2 0-1218.9-30.8-1528.7-308.3-282.2-252.7-119.1-1709.5-117.8-3279.4 1.6-1969-165.6-3974.2 70.7-4127 70-45.3 220.7-72.2 372.7-72.2 206.2 0 415 49.5 428.5 169.5 23.6 208.4-545.9 6813.4-233.9 7188.7 328.4 395 930.1 427.4 1118.5 427.4 6.6 0 12.6 0 18.1-.1 25.8-.6 39.9-1.2 39.9-1.2s-14.2.9-39.9 1.2c-29.1.7-73 1.4-128.1 1.4" style="fill:#5cc2e0;fill-opacity:1;fill-rule:nonzero;stroke:none" transform="matrix(.0148 0 0 -.0148 -373.168 667.24)"/><path d="M32603.6 32099.9c-119 0-239.9 4.1-360.6 9.7-242.7 11.3-483.7 28.7-703.8 30.7-9 0-18.2.1-27.4.1-87.5 0-180.3-3.7-275.7-7.3-95.5-3.7-193.6-7.3-291.3-7.3-303.9 0-604.7 35.3-816.7 215.8l41.3 79.5c124.5 239.7 372.3 390.1 642.4 390.1h2221.5c261.7 0 503-141.2 631.2-369.5l34.1-60.9c-266-227.8-667.7-280.9-1095-280.9" style="fill:#48b0d8;fill-opacity:1;fill-rule:nonzero;stroke:none" transform="matrix(.0148 0 0 -.0148 -373.168 667.24)"/><path d="M31710.8 41351c-91.9 11.2-177.1 27.3-254.8 45.9v314.5c0 70.3 57 127.4 127.4 127.4 70.3 0 127.4-57.1 127.4-127.4z" style="fill:#beeaf2;fill-opacity:1;fill-rule:nonzero;stroke:none" transform="matrix(.0148 0 0 -.0148 -373.168 667.24)"/><path d="M31583.4 41139.3c-70.4 0-127.4 57.1-127.4 127.4v130.2c77.7-18.6 162.9-34.7 254.8-45.9v-84.3c0-70.3-57.1-127.4-127.4-127.4M32403.3 32897c-268.1 0-488.7 4.3-536 11 0 0 368.2 166.8 694.8 173.7 237.5 5.1 449.1 24.8 547 35.2 12.7 736 272.6 6673.4 97.2 7031.2-231.6 472.5-653.1 514.2-653.1 514.2s37.7 2.5 99.1 2.5c214.8 0 718.7-30.9 901.4-308.2 166.4-252.8 70.3-1709.6 69.5-3279.4-1-1969.1 55.8-4047.6-41.7-4127.1-47.8-39-691.4-53.1-1178.2-53.1M30654.6 32905.7c-152 0-302.7 26.9-372.7 72.2-236.3 152.8-69.1 2158-70.7 4127-1.3 1569.9-164.4 3026.7 117.8 3279.4 309.8 277.5 1164.5 308.3 1528.7 308.3 55.1 0 99-.7 128.1-1.4-5.5.1-11.5.1-18.1.1-188.4 0-790.1-32.4-1118.5-427.4-312-375.3 257.5-6980.3 233.9-7188.7-13.5-120-222.3-169.5-428.5-169.5m1371.1 7784.3s-14.1.6-39.9 1.2c25.7-.3 39.9-1.2 39.9-1.2" style="fill:#a1e0ed;fill-opacity:1;fill-rule:nonzero;stroke:none" transform="matrix(.0148 0 0 -.0148 -373.168 667.24)"/><path d="M33095.7 35173.9c-436.7 0-874 23.1-1311.5 22.4-211.4-.3-422.9 3.4-633.9-11.5-210-14.8-439.1-44.6-582.4 143.7-126.8 166.5-88.5 404.2-90.8 601.2-2.5 215.9-14.8 431.3-17.5 647-5.4 439.2-21.2 889.8 9.7 1328 14.9 211.4 9.8 419.1.4 630.5-9.9 224.7 9.9 456.9 245.3 558.7 176.4 76.2 420 26.8 609.5 24.9 219.8-2.2 439.7-11.8 659.5-11.2 227.5.6 452.8 28.5 680.6 20.1 186.3-6.9 438.2 16.6 607.2-59.2 241.8-108.4 237.2-337.7 233.6-566.3-3.3-204.3-3.3-408.5-1.5-612.8 4.4-488.8 13.5-983.2-6.1-1471.5-9.5-234.5-7.6-468.5-6.7-703.2 1-253.1-87-540.8-395.4-540.8" style="fill:#fff;fill-opacity:1;fill-rule:nonzero;stroke:none" transform="matrix(.0148 0 0 -.0148 -373.168 667.24)"/><path d="M30970.5 39110.7c-88.5 0-172.9-9.2-245.3-40.4-218.5-94.5-239.6-312.5-229.8-534 8.9-200.1 14.9-415.3-.4-633.4-25.3-358.8-19.2-730.2-13.3-1089.3 1.3-79.2 2.6-158.1 3.6-236.6 1.3-106.9 5.1-215.6 8.7-320.7 3.7-106.9 7.5-217.4 8.8-326.3.5-38.9-.6-78.3-1.8-120.1-4.5-166.6-9.2-339 87.4-465.9 126.2-165.8 327.4-150.8 521.9-136.3 12.8.9 25.5 1.9 38.2 2.8 174.4 12.3 351.7 12 523 11.6 37.5 0 75.1-.1 112.6 0 222.1.3 448.1-5.6 666.5-11.3 211.5-5.5 430.3-11.2 645.1-11.2 97.2 0 176.8 30.6 236.8 90.7 116.6 117.1 133.3 316.1 132.9 424.3l-.2 52.8c-.9 213.4-1.8 434.1 6.9 651.5 16.9 420.1 12.4 850.6 8.1 1267-.7 67.8-1.4 135.6-2 203.2-2 223.9-1.5 424.6 1.4 613.5l.1 2.9c3.6 225.5 6.9 438.5-218.4 539.5-124.5 55.9-301.4 55.7-457.1 55.5-49.6-.1-96.5-.1-140.5 1.5-128.7 4.7-259.5-2.4-385.9-9.2-96-5.3-195.3-10.7-293.8-10.9-127-.4-256.4 2.8-381.4 5.8-91.3 2.2-185.7 4.5-278.4 5.4-51.1.5-104.8 4.3-161.6 8.4-64.1 4.5-129.1 9.2-192.1 9.2m-25.2-3962.6c-148.1 0-294.4 28.9-397.8 164.8-107.6 141.3-102.4 331-97.8 498.4 1.1 41.3 2.1 80.2 1.7 118.1-1.3 108.4-5.1 218.5-8.8 325.1-3.6 105.4-7.4 214.4-8.7 321.9-1 78.4-2.3 157.3-3.6 236.3-5.9 360.3-12.1 732.8 13.4 1093.8 15.2 215.5 9.1 429 .3 627.5-10.6 239.9 13.7 476.6 260.8 583.5 135.4 58.5 308.6 46.1 461.4 35.3 56.1-4 109-7.8 158.5-8.3 93.1-.9 187.7-3.2 279.1-5.4 124.7-3 253.8-6.1 380.1-5.8 97.1.2 195.7 5.6 291.1 10.8 127.6 6.9 259.5 14.1 390.6 9.3 43-1.6 89.4-1.5 138.5-1.5 160.9.2 343.7.4 478.2-59.9 256.2-114.9 252.5-355.1 248.8-587.3v-2.9c-3-188.5-3.5-388.7-1.5-612.2.7-67.6 1.4-135.4 2.1-203.2 4.2-417 8.7-848.2-8.2-1269.5-8.7-216.4-7.8-436.4-6.9-649.3l.2-52.8c.4-116.2-18.2-330.5-147.9-460.7-70-70.3-161.9-105.9-273.2-105.9-215.5 0-434.6 5.7-646.5 11.2-217.9 5.7-443.9 11.6-665 11.2-37.7 0-75.2.1-112.8.1-170.5.3-346.7.7-519.3-11.5-12.6-.9-25.2-1.8-37.9-2.8-55.1-4.1-112.1-8.3-168.9-8.3" style="fill:#231f20;fill-opacity:1;fill-rule:nonzero;stroke:none" transform="matrix(.0148 0 0 -.0148 -373.168 667.24)"/><path d="M32661.4 37235.3c-48.2-50.3-94.6-100.3-136.3-154.1-42-53.4-81-109.2-115-171-9.2-14.8-16.8-31.1-24.9-47.1-7.8-16.1-16.9-31.3-23.5-48.7l-22.2-50.4c-7-17.2-12.8-35.3-19.8-52.8-6.8-17.7-13.9-35.4-19.1-54.1-5.9-18.5-11.8-37.1-18.2-55.9-11.8-37.7-21.1-76.8-34.5-116.6l-.9-2.6c-4-12-13.6-18.5-21.3-14.5-5.2 2.6-8.2 9.3-8.5 17-.7 20.9-.6 42-.1 63.4.1 10.7.3 21.4.7 32.1.2 10.8.8 21.6 2.3 32.4 2.5 21.6 5.4 43.3 8.4 65.2 1.7 10.9 2.8 22 5.1 32.8l7.4 32.4c5 21.7 10.1 43.5 16 65.1l21.3 63.4c6.9 21.4 16.1 41.3 25.1 61.5 9.2 19.9 17.5 40.7 28.6 58.9 40 77.3 90.9 143.6 146.4 193.7 13.8 12.8 28.4 23.4 42.6 34.5 14.6 10.1 29.2 19.5 44.1 27.6 29.9 15.9 59.8 27.5 91.5 30.6 8.8.8 15.3-8.9 14.4-21.6-.5-7.8-3.6-14.9-7.9-19.5z" style="fill:#389f9f;fill-opacity:1;fill-rule:nonzero;stroke:none" transform="matrix(.0148 0 0 -.0148 -373.168 667.24)"/><path d="M32410.1 36910.2h.1zm-128.5-109.8c-5.6-20.5-10.3-40.8-15.6-63.4l-7.4-32.3c-1.3-6.1-2.1-12.6-3-19.1-.5-4-1.1-8-1.7-12-2.9-21.2-5.8-42.7-8.2-64.1-1.3-9-1.9-17.9-2.2-29.9-.3-7.6-.4-14.9-.6-22.1l.6 2c4.7 16.7 9.3 33.2 14.3 49.4 6.6 19.2 12.5 37.6 18.3 55.9 5 17.9 11.8 35.4 18.3 52.3l1.3 3.4c3.3 8.3 6.3 16.4 9.2 24.6 3.5 9.6 7 19.2 10.8 28.6l22.2 50.4c5 13 10.9 24.4 16.7 35.5 2.5 4.9 5.1 9.8 7.5 14.7l5.1 10.3c6.4 12.8 12.9 26.1 20.7 38.6 31.6 57.2 68.7 112.5 117 173.9 39.6 51.1 82.5 98 134.3 152.2-18.9-4.3-39.1-12.3-62.1-24.5-12-6.5-25.1-14.7-40.9-25.7l-7.9-6c-11.4-8.8-22.2-17.1-32.4-26.6-54.6-49.3-103.3-113.7-141.1-186.6l-.8-1.4c-7.6-12.5-13.9-26.6-20.5-41.6-2.3-5-4.5-10-6.8-14.9l-2.8-6.4c-7.9-17.7-15.4-34.5-21.1-52.2zm-51.2-359.8c-5.6 0-11.2 1.3-16.5 4-13.4 6.9-21.8 21.6-22.4 39.1-.6 19-.6 39.6-.1 64.7.1 10.7.3 21.7.7 32.7.2 9 .6 21.7 2.6 35 2.3 21 5.3 42.9 8.3 65 .7 4.1 1.2 7.8 1.7 11.4 1 7.8 2.1 15.6 3.7 23.3l7.5 32.8c5.5 23.4 10.4 44.5 16.3 66.1l.4 1.4 21.4 63.4c6.4 20.1 14.8 38.9 23 57.1l2.9 6.6c2.3 5.1 4.5 9.9 6.6 14.6 6.9 15.5 14 31.5 23 46.5 40.5 78 93 147.2 151.7 200.2 11.7 10.9 24 20.3 35.8 29.4l9.4 7.1c17.6 12.2 32.4 21.5 46.4 29.1 37.6 19.9 69.8 30.5 101.4 33.5 10.9 1 21.2-2.6 29.1-10.3 9.5-9.3 14.4-23.3 13.4-38.5-.9-13.4-6.3-26.4-14.9-35.4l-1.9-1.9c-52.3-54.6-95.2-101.4-134.5-152-46.7-59.6-82.6-112.8-112.8-167.7l-.7-1.3c-6.6-10.5-12.4-22.3-18.6-34.7l-5.1-10.3c-2.5-5.1-5.2-10.4-8-15.7-5.4-10.4-10.5-20.1-14.4-30.4l-.5-1.4-22.2-50.4c-3.3-8.1-6.6-17-9.8-26-3.2-8.7-6.3-17.4-9.7-25.9l-1.2-3.2c-6.4-16.5-12.5-32.1-17.1-48.4-6.1-19.5-12.1-38.3-18.6-57.2-4.7-15.1-9.2-31.1-13.7-47.3-6.3-22.4-12.8-45.7-20.8-69.2l-.8-2.6c-4.8-14.4-14.6-25.4-26.8-30.4-4.6-1.9-9.4-2.8-14.2-2.8" style="fill:#231f20;fill-opacity:1;fill-rule:nonzero;stroke:none" transform="matrix(.0148 0 0 -.0148 -373.168 667.24)"/><path d="M31093.5 36065.8c53.6-4.8 105.4-8.7 156-9.6 50.5-1 100.1-.8 149.6 3 6.2.1 12.4.9 18.6 1.6l18.5 1.7c12.4 1 24.8 1.6 37.1 3.6 12.4 1.7 24.9 2.6 37.4 3.9 12.5 1.5 24.9 3.8 37.6 5 12.7 1.5 25.6 2.5 38.2 4.9 12.8 1.8 25.7 3.5 39 4.8 26.3 3.2 52.5 7.9 81.6 8.3h1.3c7.9.1 14.4-6.2 14.5-14 0-4-1.6-7.7-4.2-10.3-10.3-10.2-21.1-19.9-32.3-28.8-11.4-8.7-22.5-18.3-35-25.3-24.6-14.2-49.6-29.3-76.7-38.7-13.4-5.4-27-10-40.7-14.8-14-3.4-27.9-7.3-42.1-10.2-7.1-1.5-14.1-3.3-21.3-4.4-7.1-1.1-14.3-1.8-21.5-2.7-14.5-1.5-28.8-3.8-43.4-3.8-57.9-2.9-116.5 4.1-172.1 20-55.5 16.7-108.7 40.8-152.6 81.9-5.6 5.3-5.9 14.1-.7 19.7 3.1 3.2 7.3 4.7 11.4 4.3z" style="fill:#307956;fill-opacity:1;fill-rule:nonzero;stroke:none" transform="matrix(.0148 0 0 -.0148 -373.168 667.24)"/><path d="M31127.6 36037c30.6-21.6 67.5-38.5 113.4-52.4 53.5-15.3 108.6-21.7 163.5-19 10.7.1 20.5 1.2 30.9 2.5 3.6.4 7.3.9 10.9 1.3l7.3.8c4.4.5 8.7 1 13.1 1.7 4.1.6 8.2 1.5 12.2 2.5 2.6.5 5.2 1.1 7.8 1.7 9 1.8 18 4.1 26.9 6.4 4.4 1.1 8.7 2.2 13.1 3.3l4.5 1.5c11.4 4 22.7 7.9 33.9 12.4 23.6 8.2 45.7 21 67 33.4l6.5 3.8c8.2 4.6 16.1 10.8 24.5 17.4l7.6 6c2.1 1.6 4.1 3.3 6.2 5-9.4-1-18.6-2.2-27.7-3.4-7-1-13.8-1.9-20.7-2.7-13.4-1.3-26-3-38.4-4.7-9.3-1.9-19.7-3-29.7-4l-9.1-1c-7.7-.8-14.8-1.8-21.9-2.9-5.1-.7-10.3-1.5-15.5-2.1-4.9-.6-9.3-1-13.7-1.4-7.8-.7-15.6-1.4-23.3-2.4-9.7-1.6-19.5-2.4-29.1-3.1l-27.9-2.4c-5.8-.7-12.4-1.5-19.6-1.7-43.4-3.3-90.2-4.2-151.3-3-41.2.7-83 3.4-121.4 6.5m251.7-123.4c-50.8 0-102.3 7.3-152.8 21.7-69.7 21-121.4 48.9-163.1 87.9-7.7 7.2-12.1 17-12.5 27.6-.3 10.6 3.4 20.6 10.7 28.4 8.3 8.9 20 13.4 32.2 12.4l2-.2c46.4-4.2 101.1-8.6 154.1-9.5 59.9-1.2 105.3-.3 147.3 2.9l1.6.1c4.6.1 9.8.7 15.3 1.4l29.7 2.6c9 .7 17.4 1.3 25.5 2.6 9 1.3 17.6 2.1 26.3 2.9 4.1.3 8.3.7 12.5 1.1 4.3.6 9 1.3 13.8 2 8 1.2 15.9 2.3 24 3.1l9.1 1c9.3 1 18.2 1.9 26.6 3.5 14.4 2.1 27.7 3.9 41.3 5.2 6.2.8 12.8 1.6 19.4 2.5 20.3 2.8 41.3 5.6 64.5 5.9h1.4c10.2.2 20.6-3.8 28.3-11.3 7.7-7.4 11.9-17.4 12.1-28.1.2-10.6-4.1-21.1-11.6-28.7-11.2-11.1-22.8-21.4-34.7-30.8l-7.4-5.9c-9.5-7.5-19.4-15.3-30.9-21.7l-6.1-3.5c-23.4-13.7-47.7-27.7-74.8-37.1-10.7-4.3-22.8-8.6-34.9-12.8l-8.1-2.7c-4.7-1.1-9.2-2.3-13.8-3.5-9.7-2.4-19.4-4.9-29.1-6.9l-7-1.5c-5.2-1.2-10.4-2.3-15.6-3.1-5.1-.8-10.2-1.4-15.2-2l-17.9-2.1c-11.4-1.3-23.3-3.1-35.8-2.7-8.8-.5-17.6-.7-26.4-.7" style="fill:#231f20;fill-opacity:1;fill-rule:nonzero;stroke:none" transform="matrix(.0148 0 0 -.0148 -373.168 667.24)"/><path d="M32744.8 37115.4c-32-41.8-62.3-82.4-89.7-122.7-27.6-40.2-53.8-80-77.3-120.6-3.2-5-5.9-10.1-8.6-15.3l-8.7-15.2c-5.8-10.2-11.9-20.3-17.1-30.7-5.3-10.3-11.3-20.5-17-30.9-5.5-10.4-10.5-20.8-16.3-31.3-5.7-10.5-11.8-21.1-16.7-31.8-5.5-10.7-11.1-21.5-17.2-32.4-11.7-21.9-22.2-44.1-37.4-67.5l-.7-1c-4.1-6.4-12-10-17.8-8.2-2.9 1-4.7 3.2-5.2 5.9-2 10.8-3.2 21.8-3.7 33-.3 11.2-1.3 22.6.2 34.2 2.8 23.3 5.1 47 12.7 71.1 3.2 12 7.1 24.1 10.9 36.2 5 12 9.6 24.2 15 36.2 2.7 6.1 5.1 12.1 8.1 18.1 2.9 6.1 6.3 12 9.5 18 6.5 11.9 12.5 24 20.2 35.6 28.7 47.2 64.8 92.4 105.9 133 41.5 40.3 87.2 77.1 140.2 102.1 6.8 3.2 13.3 1.3 14.6-4.3.8-3.2-.4-6.9-2.8-10.2z" style="fill:#307956;fill-opacity:1;fill-rule:nonzero;stroke:none" transform="matrix(.0148 0 0 -.0148 -373.168 667.24)"/><path d="m32459.4 36779.5-1.1-3.7c-3.2-10.2-6.4-20.3-9.1-30.5-6.6-20.7-8.9-40.4-11.3-61.3l-.7-6.1c-.6-4.5-.7-9-.7-13.7 2.8 5.2 5.4 10.3 8.1 15.3 2.9 5.8 5.9 11.4 8.9 17.1 6.2 11 11.7 21.6 17 32 3.6 7.9 8.3 16.4 12.8 24.7l4.1 7.6c3.6 6.3 6.6 12.3 9.6 18.2 2.2 4.3 4.4 8.7 6.7 13l6.2 11.1c3.6 6.5 7.3 13 10.7 19.5 3.8 7.8 8.5 15.9 13.1 23.9l13.1 22.9c2.7 5.2 5.8 11 9.4 16.6 20.1 34.6 44.2 72.3 77.6 121.2 13.3 19.5 27.3 39 41.2 58-20.5-15.4-41.4-33.4-63.2-54.6-40.1-39.7-74.4-82.8-101.8-127.9-5.8-8.7-10.2-16.9-14.8-25.7l-8-14.8c-2-3.7-4.1-7.5-5.9-11.2-1.7-3.4-3.2-6.9-4.7-10.4l-3-6.8c-3.4-7.8-6.6-15.6-9.8-23.4zm-36-197.8c-3.7 0-7.4.5-10.9 1.7-11.8 3.7-20.5 13.6-22.7 25.7-2.2 11.9-3.5 24.2-4.1 36.5l-.2 7.4c-.4 9.4-.9 20 .7 31.3l.6 5.7c2.6 22.3 5.3 45.4 13 69.7 2.6 9.7 6 20.6 9.4 31.5l2.2 6.8 4.8 11.6c3.3 8.5 6.7 16.9 10.5 25.3l2.7 6.1c1.8 4.4 3.7 8.7 5.8 13 2.2 4.3 4.5 8.5 6.8 12.8l7.8 14.5c5 9.5 10.2 19.2 16.8 29.1 29.1 47.8 66 94.2 109.2 137 51.3 49.8 98 83.8 147.4 107.1 10.9 5.1 22.9 5.3 32.8.5 9.1-4.4 15.6-12.6 17.8-22.4 2.4-10.5-.3-21.9-7.4-31.3l-1.2-1.6c-27.8-36.3-60.1-79.1-88.9-121.4-32.7-47.9-56.2-84.6-76.3-119.1-3.4-5.4-5.7-9.9-8.1-14.3l-13.7-24c-4.1-7.1-8.2-14.2-11.7-21.4-3.8-7.4-7.8-14.5-11.9-21.6l-5.7-10.3c-1.9-3.6-4-7.7-6-11.7-3.4-6.6-6.7-13.2-10.4-19.8l-4.1-7.6c-4.3-7.7-8.3-15.1-11.7-22.4-6.1-11.9-11.8-22.9-18.1-34.1-2.7-5.1-5.5-10.6-8.4-16.2-8.8-16.8-17.9-34.3-29.8-52.8-8.8-13.6-23.1-21.3-37-21.3" style="fill:#231f20;fill-opacity:1;fill-rule:nonzero;stroke:none" transform="matrix(.0148 0 0 -.0148 -373.168 667.24)"/><path d="M31578.4 37275.4c36.1-44.4 71.5-86.9 108-126.1 36.4-39.3 72.8-77 111.6-112 4.5-4.7 9.6-8.8 14.6-12.9l14.6-13c9.8-8.7 19.3-17.7 29.6-25.7 10.1-8.1 19.9-17.1 29.9-25.7 10.1-8.4 20.7-16.1 30.8-25 10.2-8.5 20.3-17.6 31.1-25.5 10.6-8.4 21.1-17 31.7-26.2 21.3-17.8 43.6-34.3 65.1-56.2l1-1c5.8-5.9 6.5-15.5 1.5-21.4-2.6-3-6.1-4.4-9.8-4.3-14.1.3-28.2 1.4-42.3 3.5-14 2.2-28.4 3.7-42 8-27.2 8.3-55.3 16.3-81.3 30.1-13.3 6.3-26.3 13.2-39.4 20.1-12.4 8.2-25.2 16-37.5 24.7-6.1 4.3-12.4 8.3-18.4 13-5.9 4.6-11.7 9.6-17.5 14.5-11.6 9.8-23.6 19.1-34.2 30.2-44.4 42.2-82.7 92-113.1 146.2-29.8 54.6-53.1 113-58.6 176.7-.8 8.1 4.7 14.8 12.2 15 4.4 0 8.4-2.1 11.2-5.5z" style="fill:#307956;fill-opacity:1;fill-rule:nonzero;stroke:none" transform="matrix(.0148 0 0 -.0148 -373.168 667.24)"/><path d="m31846.2 36884.3 4.8-2.5c10.7-5.7 21.5-11.4 32.4-16.5 22.7-12 46.1-19.1 70.8-26.6l7.1-2.2c9-2.9 18.8-4.3 29.1-5.8l9.5-1.5c2.2-.3 4.3-.6 6.5-.8-8.6 7.5-17.3 14.5-25.8 21.5-5.7 4.5-11.3 9.1-16.8 13.7-10.6 9.2-21 17.6-31.2 25.8-8.1 5.8-16.3 12.9-24.3 19.7l-7.4 6.3c-6.1 5.3-12 10-17.9 14.6-4.2 3.4-8.5 6.8-12.7 10.2-3.9 3.3-7.4 6.4-10.8 9.5-6.2 5.4-12.4 10.9-18.8 16-8 6.2-15.7 13.1-23.1 19.7l-22.1 19.7c-4.7 3.9-10.1 8.3-15.3 13.6-33.9 30.7-68.7 65.6-112.7 113.1-28.4 30.6-56 62.9-81.1 93.3 8.7-38.4 24.6-78.1 48.6-122.1 29.5-52.6 65.9-99.7 108.2-139.9 7.9-8.1 15.8-14.8 24.3-21.8 3-2.5 5.9-5 8.9-7.5l6.1-5.1q5.25-4.5 10.5-8.7c3.4-2.6 7.1-5.1 10.7-7.5 2.2-1.6 4.5-3.1 6.8-4.7 7.8-5.5 15.8-10.6 23.8-15.8 4-2.5 7.9-5.1 11.9-7.7m192.2-109.7-.7.1c-15.4.3-30.7 1.6-45.6 3.7l-9.1 1.4c-12 1.8-24.3 3.6-37 7.6l-6.7 2.1c-26 7.8-52.9 16-78.9 29.8-10.5 4.9-21.9 10.9-33.4 17l-8 4.4-12.6 8.1c-8.5 5.5-17.1 11-25.5 16.9l-6.2 4.3c-4.5 3.1-8.9 6.1-13.3 9.5-4.1 3.2-8 6.5-12 9.9l-14.8 12.4c-9.2 7.6-18.7 15.5-27.7 24.9-45.1 42.9-84.8 94.1-116.9 151.4-37.1 67.9-56.7 127.3-61.8 187.1-1 11.2 2.6 22.3 9.9 30.4 7.2 7.9 16.9 12.3 27.5 12.5 11.8.3 23.5-5.2 31.4-14.8l1.4-1.7c31.3-38.6 68.5-83.5 106.8-124.8 43.2-46.7 77.1-80.7 110-110.4l1.1-1.1c3.6-3.6 7.8-7.1 12.4-10.9l23.4-20.8c7-6.3 13.6-12.3 20.4-17.5 7.3-5.9 14.1-11.8 20.9-17.8 3.3-2.9 6.7-5.9 10-8.7 3.6-3 7.5-6.1 11.5-9.3 6.5-5.1 13.1-10.3 19.5-15.9l7.3-6.2c7.5-6.5 14.6-12.5 22-17.8 11.8-9.4 22.6-18.3 33.4-27.6 5-4.2 10.4-8.6 15.9-13 16.5-13.4 33.7-27.4 50.8-44.7l1-1.1c15.1-15.3 16.3-40 2.6-56-7.3-8.5-17.8-13.4-29-13.4" style="fill:#231f20;fill-opacity:1;fill-rule:nonzero;stroke:none" transform="matrix(.0148 0 0 -.0148 -373.168 667.24)"/><path d="M31897.4 36094.9c-42.4-28.2-82.7-57.7-115.4-89.3-33-31.6-58.1-65.7-73.9-102.5-16-36.7-23.2-77.2-23.8-120.9-1.1-43.8 4.7-89.7 9.5-139.3v-.2c.8-8.6-5.8-16.9-14.9-18.4-5.6-.9-10.9 1.1-14.3 4.7-34.5 37.7-58.8 84.3-70.4 137.3-11.7 52.6-8.8 113.7 16.4 170.1 24.4 56.5 69 104.2 118.9 135.4 50.5 31.3 104.8 50.2 161.6 52.4 8.9.3 15.9-6.4 15.6-15-.3-5.4-3.3-10.2-7.7-13.2z" style="fill:#307956;fill-opacity:1;fill-rule:nonzero;stroke:none" transform="matrix(.0148 0 0 -.0148 -373.168 667.24)"/><path d="M31849.7 36093.4c-35.9-7.2-71.6-21.7-106.6-43.4-48.3-30.2-88-75.4-108.9-123.8-21.3-47.7-26.5-102.3-14.9-154.2 8.5-38.6 23.9-73.2 46.1-103.5-4 39.8-7.7 77.4-6.8 114.4.6 49.2 9.1 92 26 130.5 16.6 38.8 43.4 76.1 79.6 110.8 22.7 22 50.4 44.4 85.5 69.2m-181.5-453.2h.2zm7.9-41.8c-11.5 0-22.4 4.7-30.3 13.1-38.4 42-64.2 92.2-76.7 149.3-14 62.6-7.6 128.7 18 186.1 25.1 58.3 70.9 110.5 128.8 146.7 56.5 35.1 115.1 54 174.2 56.3 11.3.4 22.7-3.9 30.6-11.9 7.8-7.8 12.1-18.7 11.6-29.8-.5-13.3-7.5-25.9-18.9-33.5l-1.8-1.2c-48.9-32.5-84.4-60-111.7-86.4-31.3-29.9-54.2-61.6-68.2-94.1-14.1-32.3-21.1-68.6-21.7-111.1-.8-35.2 2.9-72.5 6.9-112l2.5-24.5c2.2-22.4-13.8-42.7-36.3-46.4-2.4-.4-4.7-.6-7-.6" style="fill:#231f20;fill-opacity:1;fill-rule:nonzero;stroke:none" transform="matrix(.0148 0 0 -.0148 -373.168 667.24)"/><path d="M33045 36721.6c-66.1-5.9-130.7-13.4-188.1-25-57.8-11.6-108.1-27.6-149.7-48.9-41.9-21.1-76.1-47.9-105-79.4-29.4-31.4-52.6-66.6-79.1-104.2l-.1-.2c-4.7-6.5-17.5-10.2-28.8-8.1-6.9 1.2-11.6 4.4-13.1 8.2-14.7 39.3-12.1 81.4 9 123.8 20.5 42.1 63.4 85.4 128.2 117.6 64.1 32.6 145.3 51.7 222 57.2 77.3 5.3 150.9.3 216.5-17.7 10.4-2.8 13.9-10.1 8-16.2-3.7-3.8-10.3-6.3-17.2-6.9z" style="fill:#389f9f;fill-opacity:1;fill-rule:nonzero;stroke:none" transform="matrix(.0148 0 0 -.0148 -373.168 667.24)"/><path d="M32897.2 36738.9c-18 0-36.3-.6-55.2-1.9-77.5-5.6-154.8-25.4-212-54.5-55.5-27.5-96.9-65.1-116.8-106-16.3-32.8-19.9-64.8-10.7-95.5l1.3.3 11.1 15.9c22 31.5 42.7 61.2 68.6 88.7 32.3 35.3 69 63.1 112.1 84.8 42.4 21.6 95 38.8 156.2 51.1 28.3 5.7 59.6 10.8 95.6 15.3-16.3 1.2-33.1 1.8-50.2 1.8m-396.5-309.4c-3.8 0-7.6.3-11.1 1-15.8 2.8-27.6 11.7-32.5 24.2-17.4 46.5-14 96.4 9.9 144.5 24.9 50.9 74.6 96.8 139.9 129.2 63.8 32.5 146.1 53.8 231.5 59.9 83.6 5.7 159.3-.6 225.2-18.6 14.7-4 25.2-13.6 28.6-26.2 3.1-11.4-.2-23.7-9-32.7-7.9-8.2-19.7-13.4-33.2-14.6l-2.7-.3c-77.6-6.8-136.4-14.6-185.3-24.5-56.7-11.4-104.9-27-143.2-46.6-37.5-18.9-69.4-43-97.6-73.9-23.6-25-43.3-53.2-64.1-83.1l-13.9-19.7c-9.2-13.1-26.8-18.6-42.5-18.6" style="fill:#231f20;fill-opacity:1;fill-rule:nonzero;stroke:none" transform="matrix(.0148 0 0 -.0148 -373.168 667.24)"/><path d="M31731.8 36146.9c1.1-26.2-3.3-50.7-9.5-75.8-6.1-25-15.3-49.3-25.6-73.2-21.2-47.6-49.7-92-81.7-132.7-8.2-10.1-16.3-20.1-24.7-30-8.7-9.5-17.6-18.7-26.6-27.8-17.4-18.9-37.2-34.7-56.3-51.1-19.6-15.8-40.3-29.6-60.8-43.3-21.2-12.4-42.8-24.1-64.9-33.7-6.9-3-13.7.2-15.4 7.1-1 4.3.3 9.1 3.1 12.7l.6.8c15.5 20.2 31.9 38.3 48.3 55.8 15.7 18.6 32.1 35.7 48 53.1 7.6 9 15.6 17.6 23.4 26.3 4 4.3 8.1 8.5 11.9 12.9 3.7 4.5 7.5 8.9 11.3 13.3 7.6 8.8 15.3 17.5 23 26.1 7.2 9 14.6 17.8 22.1 26.7 29.1 35.7 56.9 72.3 82.1 110.8 25 38.3 48.9 79.4 67.4 121.2l.8 1.9c3.1 7 10.6 10.9 16.7 8.8 4.2-1.5 6.6-5.4 6.8-9.9" style="fill:#87d5ab;fill-opacity:1;fill-rule:nonzero;stroke:none" transform="matrix(.0148 0 0 -.0148 -373.168 667.24)"/><path d="m31731.9 36137.6-.1-.1zm-38.7-75.6c-9.5-16.4-20-33.4-31.5-51.1-23.3-35.6-50.7-72.6-83.8-113.1-7.5-9-14.8-17.6-21.9-26.5l-1-1.1c-7.5-8.5-15.1-17-22.6-25.7-3.8-4.3-7.4-8.5-11-12.8-3.1-3.6-5.9-6.7-8.8-9.7l-9.4-10.3c-5.8-6.4-11.7-12.9-17.4-19.6-5.4-5.9-10.3-11.3-15.3-16.7-10.8-11.7-22-23.8-32.5-36.3l-2.4-2.5c18.7 12.5 37.9 25.4 55.6 39.7l10.3 8.8c15.6 13.1 30.2 25.5 43.4 39.7 9.3 9.6 18 18.5 26.3 27.7 7.8 9.1 15.8 19 23.8 28.8 33.1 42.2 59.5 85.1 78.2 127 8.7 20.1 15.2 37.6 20 53.7m-316.7-409.5c-5.6 0-11.2 1.3-16.2 3.8-9.6 4.8-16.5 13.6-19 24.2-2.8 11.7 0 24.2 7.6 34.2 16 20.8 31.8 38.4 50.7 58.6 10.3 12.3 21.9 24.9 33.1 37 4.9 5.3 9.7 10.5 14.5 15.8 5.5 6.5 11.7 13.3 17.9 20.1l10.1 11.1c2.3 2.4 4.7 4.9 6.9 7.5 3.5 4.2 7.5 8.8 11.4 13.4 7.4 8.6 15.1 17.2 22.8 25.8 7.2 9 14.6 17.8 22.1 26.6 31.6 38.8 57.9 74.4 80.2 108.4 28 42.9 49.4 81.3 65.4 117.5l.9 2c8.4 19.2 29.8 29.1 48.6 22.5 13.9-4.8 23.3-17.8 24-32.9v-.1c1.3-31.2-4.5-59.5-10.3-83-5.6-23.2-14.2-47.8-27-77.3-20.4-46.1-49-92.6-85-138.4-8.5-10.6-16.9-20.8-25.4-30.8-9.2-10.2-18.3-19.5-27.4-28.8-15.1-16.3-31.6-30.3-47.7-43.9l-10.6-9c-21.1-17.1-42.5-31.4-63.3-45.2l-1.2-.8c-25.7-15-47.2-26.2-67.7-35.1-5-2.1-10.2-3.2-15.4-3.2" style="fill:#231f20;fill-opacity:1;fill-rule:nonzero;stroke:none" transform="matrix(.0148 0 0 -.0148 -373.168 667.24)"/><path d="M31998.1 37300.8c20.9-15.9 37-34.9 52.3-55.6 15.4-20.7 28.3-43.2 40.1-66.5 23.2-46.6 39.2-96.9 50.2-147.5 2.6-12.7 5.1-25.4 7.3-38.1 1.8-12.8 3.2-25.5 4.6-38.2 3.4-25.5 2.9-50.8 3.3-76-.2-25.2-2.8-49.9-5.3-74.5-4-24.2-8.7-48.2-15.5-71.5-2-7.1-8.8-10.4-15.2-7.3-4 2-6.8 6-7.9 10.5l-.2 1c-5.6 24.9-9.1 49-12.2 72.8-4.3 23.9-7 47.5-10.3 70.8-2 11.6-3.6 23.3-5.3 34.8-.8 5.8-1.4 11.6-2.4 17.4-1.1 5.7-2.1 11.4-3 17.2-2 11.4-3.7 22.9-5.4 34.3-2.4 11.3-4.4 22.7-6.5 34.1-8.9 45.2-19.5 89.9-33 133.9-13.6 43.6-30 88.2-50.4 129.2l-1 1.8c-3.4 6.9-1.6 15.1 3.9 18.5 3.8 2.2 8.3 1.7 11.9-1.1" style="fill:#87d5ab;fill-opacity:1;fill-rule:nonzero;stroke:none" transform="matrix(.0148 0 0 -.0148 -373.168 667.24)"/><path d="m32005.3 37294.9.1-.1zm33.6-77.9c6.6-17.8 13-36.8 19.3-57 12.5-40.6 23.6-85.2 33.7-136.5 2.1-11.6 4.1-22.7 6.4-33.8l.3-1.5c1.7-11.2 3.4-22.5 5.3-33.7 1-5.8 1.9-11.3 2.9-16.7.8-4.7 1.4-8.8 1.9-12.9l1.9-14c1.3-8.6 2.5-17.2 4-25.8 1.2-8 2.2-15.3 3.1-22.7 2.2-15.7 4.4-32 7.2-47.9.2-1.2.4-2.4.5-3.5 2.3 22.4 4.6 45.5 4.8 68.2l-.1 13.5c-.3 20.4-.5 39.6-3 58.8-1.4 13.1-2.7 25.5-4.5 37.9-2.1 11.8-4.6 24.2-7.1 36.7-11.4 52.4-27.6 100-48 141.2-10 19.5-19.2 35.7-28.6 49.7m85.9-518.2c-5.5 0-11.1 1.3-16.3 3.8-10.8 5.3-18.7 15.4-21.5 27.7-5.8 25.6-9.3 48.9-12.9 76.3-2.8 15.8-5.1 32.7-7.3 49-1 7.1-1.9 14.3-3 21.4-1.4 8.4-2.7 17.5-4.1 26.5l-2 15c-.5 3.4-.9 6.7-1.4 10.1-1.1 5.4-2.1 11.4-3.1 17.3-1.9 11.2-3.6 22.6-5.3 34-2.4 11.3-4.5 22.7-6.5 34-9.7 49.1-20.3 92.1-32.3 130.9-15.2 48.9-31.2 89.9-48.8 125.3l-1 1.9c-9.4 18.8-3.4 41.6 13.6 51.9 12.7 7.6 28.7 6.6 40.8-2.6 24.8-18.8 42.9-41.3 57.4-60.8 14.3-19.2 27.8-41.5 42.3-70.1 22.5-45.2 40.1-96.8 52.4-153.8 2.7-13.3 5.3-26.2 7.5-39.1 2-13.8 3.4-26.8 4.8-39.8 2.9-21.7 3.1-43.4 3.4-64.4l.2-14c-.3-27-3-52.7-5.6-77.5l-.2-1.5c-4.8-29.5-9.9-53.1-16.1-74.5-3.1-10.9-10.7-19.6-20.6-24-4.6-2-9.5-3-14.4-3" style="fill:#231f20;fill-opacity:1;fill-rule:nonzero;stroke:none" transform="matrix(.0148 0 0 -.0148 -373.168 667.24)"/><path d="M32568.1 37108.2c1.1-26.2-3.3-50.7-9.5-75.8-6.1-25-15.3-49.3-25.7-73.2-21.1-47.6-49.6-92-81.6-132.7-8.2-10.1-16.3-20.1-24.7-29.9-8.7-9.6-17.6-18.7-26.6-27.9-17.4-18.9-37.2-34.7-56.3-51.1-19.6-15.8-40.3-29.6-60.8-43.3-21.2-12.4-42.8-24-65-33.7-6.8-2.9-13.6.2-15.3 7.1-1 4.3.3 9.1 3.1 12.8l.6.7c15.5 20.3 31.9 38.3 48.3 55.9 15.7 18.5 32.1 35.6 47.9 53.1 7.7 9 15.7 17.6 23.5 26.3 4 4.3 8.1 8.4 11.9 12.8 3.7 4.5 7.5 8.9 11.3 13.3 7.6 8.8 15.3 17.5 23 26.1 7.2 9 14.6 17.9 22.1 26.7 29.1 35.7 56.9 72.3 82.1 110.9 25 38.2 48.9 79.3 67.4 121.1l.8 1.9c3.1 7 10.6 10.9 16.7 8.8 4.2-1.5 6.6-5.3 6.8-9.9" style="fill:#87d5ab;fill-opacity:1;fill-rule:nonzero;stroke:none" transform="matrix(.0148 0 0 -.0148 -373.168 667.24)"/><path d="M32529.5 37023.4c-9.5-16.5-20-33.5-31.6-51.2-23.3-35.5-50.6-72.5-83.7-113.1-7.5-8.9-14.8-17.6-21.9-26.4l-1-1.2c-7.5-8.4-15.2-16.9-22.6-25.6-3.8-4.4-7.4-8.6-11-12.9-3.1-3.6-5.9-6.6-8.8-9.7l-9.4-10.2c-5.8-6.5-11.7-13-17.4-19.6-5.4-6-10.3-11.4-15.3-16.7-10.8-11.8-22-23.9-32.5-36.3l-2.4-2.6c18.7 12.5 38 25.5 55.6 39.7l10.3 8.8c15.6 13.2 30.2 25.6 43.4 39.8 9.2 9.4 17.9 18.3 26.3 27.6 7.8 9.1 15.8 19 23.8 28.9 33.1 42.2 59.5 85 78.2 127 8.7 20.1 15.2 37.5 20 53.7m-316.7-409.6c-5.6 0-11.2 1.3-16.3 3.8-9.5 4.8-16.4 13.6-18.9 24.2-2.8 11.7 0 24.2 7.6 34.2 16 20.8 31.8 38.4 50.7 58.6 10.3 12.4 21.9 24.9 33.1 37 4.9 5.3 9.7 10.5 14.5 15.8 5.5 6.5 11.7 13.3 17.9 20.2l10.1 11c2.3 2.5 4.7 5 6.9 7.5 3.5 4.3 7.4 8.8 11.4 13.4 7.4 8.6 15.1 17.3 22.8 25.8 7.2 9.1 14.6 17.9 22.1 26.7 31.6 38.8 57.9 74.3 80.2 108.3 28 42.9 49.4 81.3 65.4 117.5l.8 1.9c8.5 19.3 30 29.2 48.7 22.7 13.9-4.9 23.3-17.8 24-33v-.1c1.3-31.2-4.5-59.5-10.3-83-5.6-23.2-14.2-47.8-27-77.3-20.4-46-49-92.5-85-138.4-8.5-10.5-16.9-20.7-25.4-30.7-9.3-10.3-18.5-19.8-27.6-29.2-14.9-16-31.5-30-47.5-43.5l-10.6-9.1c-21-17-42.5-31.3-63.3-45.2l-1.2-.7c-25.7-15.1-47.2-26.2-67.7-35.1-5-2.2-10.2-3.3-15.4-3.3" style="fill:#231f20;fill-opacity:1;fill-rule:nonzero;stroke:none" transform="matrix(.0148 0 0 -.0148 -373.168 667.24)"/><path d="M32120.9 35589.2c-26.6 45.4-52.6 88.8-79.5 129.5-26.8 40.8-53.7 80.1-82.3 117.2-3.4 4.9-7.1 9.4-10.8 13.8l-10.9 13.8c-7.2 9.2-14.2 18.8-21.9 27.4-7.5 8.9-14.7 18.3-22.1 27.5-7.5 9.1-15.3 17.6-22.8 27-7.6 9.2-15.1 18.9-23.1 27.5-7.8 9.1-15.7 18.4-23.5 28.2-15.8 19.1-32.3 37.3-48.2 60.2l-.8 1c-4.3 6.2-4.6 15-.7 19.6 2 2.3 4.7 3.2 7.4 2.6 10.7-2.3 21.4-5.3 31.9-9.1 10.6-4 21.4-7.3 31.6-13.2 20.5-11.4 41.5-22.5 60.9-38.7 9.9-7.5 19.6-15.7 29.4-23.8 9.3-9.1 18.8-18 27.9-27.6 4.5-4.8 9.3-9.3 13.7-14.3 4.4-5.1 8.6-10.4 13-15.6 8.5-10.6 17.4-20.7 25.3-32.3 32.8-44.4 60.9-94.9 82.9-148.4 21.6-53.7 38.2-109.9 41.3-168.5.4-7.5-3.9-12.8-9.5-11.8-3.3.5-6.3 3-8.3 6.5z" style="fill:#307956;fill-opacity:1;fill-rule:nonzero;stroke:none" transform="matrix(.0148 0 0 -.0148 -373.168 667.24)"/><path d="M31820.3 36045.5c3.8-4.6 7.5-9 11.2-13.3q6.3-7.35 12.3-14.7c7.9-9.9 15.6-18.9 23.2-27.8 6-6.4 12.1-14 18-21.3l5.4-6.7c4.6-5.6 8.9-10.7 13.3-15.7 3.2-3.7 6.3-7.4 9.5-11.1l7.9-10c4.6-5.8 9.2-11.7 14-17.3 5.7-6.5 11.4-13.8 17-21.1l16.4-20.9c4-4.9 8.1-9.7 11.7-15 31.5-40.8 60.8-84.4 82.7-117.8 13-19.7 25.8-40 38.1-60-6.4 24.8-15.2 50.9-26.6 79.2-21.5 52.1-48.3 100.2-79.7 142.7-5.8 8.6-11.8 15.8-18.1 23.4l-10.7 13c-2.7 3.3-5.4 6.6-8.1 9.7-2.6 2.9-5.3 5.6-7.9 8.3l-5.1 5.3c-5.8 6-11.8 11.9-17.7 17.7l-12.3 11.4c-8.1 6.7-16.1 13.3-24.2 19.5-16.8 14-34.2 23.6-52.6 33.8l-5.3 2.9c-3.9 2.3-8 4.1-12.4 5.8m323.7-444.9h.1zm-12.7-45.2c-1.8 0-3.6.1-5.4.4-10.7 1.8-20.3 8.6-26.3 18.8l-.9 1.6c-23 39.4-50.4 85.5-78.7 128.4-21.5 32.6-50.1 75.2-81.3 115.6-3.5 5.1-6.6 8.8-9.7 12.5l-1 1.2-16.6 21.2c-4.9 6.4-9.9 12.9-15.1 18.8-5.5 6.4-10.5 12.8-15.6 19.2l-7.3 9.2c-2.7 3.2-5.6 6.6-8.6 10.1-4.8 5.5-9.7 11.1-14.3 17l-5.5 6.7c-5.6 6.9-10.8 13.4-16.3 19.3-8.7 10.1-16.8 19.7-24.8 29.7-3.6 4.4-7.6 9.1-11.6 13.9-12.3 14.5-25.1 29.5-37.6 47.6-11.8 16.9-11.5 38.3-.1 51.9 7.9 9.3 20.2 13.7 32.4 11.2 11.9-2.6 23.8-6 35.4-10.1l6.9-2.6c8.8-3.2 18.8-6.8 28.7-12.5l4.9-2.7c19.7-10.9 40.1-22.2 59.7-38.6 7.8-5.8 16.4-12.9 25-20.1l6-5.1 9.3-9.1c6.4-6.2 12.8-12.4 19.1-19l4.6-4.8c3.3-3.3 6.6-6.7 9.8-10.4 3.2-3.6 6.2-7.3 9.3-11l10.5-12.8c6.8-8.2 13.8-16.8 20.5-26.5 33.2-45.1 62.2-96.8 85.4-153 26.6-66.4 40.3-122.5 43.2-177 .6-12.1-3.8-23.3-12-30.6-6.1-5.5-13.9-8.4-22-8.4" style="fill:#231f20;fill-opacity:1;fill-rule:nonzero;stroke:none" transform="matrix(.0148 0 0 -.0148 -373.168 667.24)"/><path d="M32253.3 35793.7c-25.8 4.6-48.8 14.3-71.9 25.7-23.1 11.3-44.8 25.6-65.9 40.9-42 30.9-79.1 68.4-112 108.4-8.1 10.1-16.1 20.3-23.9 30.6-7.4 10.5-14.4 21.2-21.5 31.9-14.6 21.2-25.7 43.9-37.6 66.1-11.2 22.5-20.2 45.7-29.2 68.7-7.5 23.4-14.2 46.9-18.8 70.7-1.4 7.3 3.1 13.3 10.2 13.4 4.4.1 8.8-2.2 11.8-5.7l.6-.8c16.4-19.5 30.5-39.4 44.1-59.2 14.7-19.3 27.8-39.1 41.5-58.3 7.1-9.5 13.8-19.1 20.6-28.6 3.3-4.8 6.5-9.7 10-14.4 3.6-4.5 7-9.2 10.5-13.9 7-9.3 13.7-18.7 20.5-28.1q10.8-13.5 21.3-27.3c28.5-36.2 58.3-71.2 90.5-104.2 31.9-32.6 66.9-64.8 103.7-91.9l1.7-1.3c6.1-4.5 8.3-12.7 4.9-18.2-2.3-3.7-6.6-5.3-11.1-4.5" style="fill:#87d5ab;fill-opacity:1;fill-rule:nonzero;stroke:none" transform="matrix(.0148 0 0 -.0148 -373.168 667.24)"/><path d="M31916.7 36171.7c8.2-21.1 16.7-42.7 26.8-62.9l6.4-12c9.4-18 18.4-35 29.4-50.9 7.4-11.4 14.1-21.7 21.3-31.7 7.2-9.5 15.1-19.5 23-29.5 34-41.4 70.2-76.5 107.1-103.7 17.8-12.9 33.4-23.1 48.1-31.2-14 12.8-28.3 26.7-43.1 41.8-29.7 30.4-59.8 65.1-92.3 106.2-7.1 9.4-14 18.3-21.1 27.1l-.9 1.2c-6.7 9.3-13.3 18.5-20.2 27.7-3.4 4.6-6.7 9.1-10.2 13.5-2.8 3.8-5.1 7.2-7.4 10.6l-8.2 11.6c-5 7-10 14.1-15.3 21.1-4.7 6.7-8.9 12.8-13.2 18.9-9 13-18.4 26.4-28.2 39.3-.7.9-1.3 1.9-2 2.9m338.8-403.9q-3.3 0-6.6.6h-.1c-30.7 5.5-57 17.2-78.8 28-21.4 10.5-43.6 24.2-69.6 43.1-40.6 29.9-79.8 67.9-116.8 112.9-8.4 10.6-16.6 20.9-24.5 31.4-8 11.2-15 22-22.1 32.9-12.8 18.4-22.9 37.6-32.6 56.1l-6.6 12.4c-12.1 24.2-21.4 48.2-30.4 71.5l-.5 1.4c-9.2 28.4-15.4 51.8-19.7 73.7-2.1 11.1.6 22.3 7.4 30.7 6.8 8.3 16.8 13.1 27.7 13.3 12.7.4 23.7-5.2 31.8-14.8 16.9-20.2 30.6-39.3 46.3-62.1 9.7-12.7 19.4-26.6 28.7-40.1 4.2-5.9 8.3-11.9 12.5-17.8 5.2-6.8 10.5-14.3 15.8-21.8l8.7-12.4c1.9-2.8 3.8-5.6 5.8-8.3 3.4-4.3 7-9.1 10.6-14 6.8-9.1 13.5-18.5 20.2-27.8 7.3-9 14.3-18.2 21.3-27.3 31.1-39.4 60.1-72.8 88.5-101.8 35.8-36.6 68.8-65.8 100.5-89.3l1.7-1.2c17-12.5 22-35.5 11.6-52.4-6.7-10.7-18.3-16.9-30.8-16.9" style="fill:#231f20;fill-opacity:1;fill-rule:nonzero;stroke:none" transform="matrix(.0148 0 0 -.0148 -373.168 667.24)"/><path d="M32754.6 37034.2c6.9-27.2 7.2-52.8 5.6-79-1.4-26.2-6.6-51.8-13.1-77-13.6-50.2-36.3-97.4-63.6-140.9-7-10.8-14-21.5-21.4-32-7.7-10.2-15.8-20.1-23.9-30-15.7-20.2-34.6-37.4-52.7-55.1-18.6-17.2-39.1-32.3-59.3-47.3-21.3-13.7-43.1-26.6-66.1-37.5-7-3.3-15.5-.3-18.8 6.8-2.1 4.4-1.7 9.4.7 13.3l.5.8c13.2 21.6 27.8 41 42.5 59.8 13.7 19.9 28.6 38.3 42.7 57 6.7 9.6 13.8 18.9 20.8 28.2 3.5 4.6 7.3 9.1 10.6 13.8 3.2 4.8 6.6 9.5 9.9 14.2 6.7 9.5 13.5 18.8 20.4 28 6.2 9.6 12.7 19.1 19.2 28.5 25.2 38.2 48.6 77.3 68.8 118.3 19.9 40.6 38 84.2 49.9 128.3l.5 2c2 7.4 9.6 11.7 17 9.8 5-1.4 8.6-5.3 9.8-10" style="fill:#87d5ab;fill-opacity:1;fill-rule:nonzero;stroke:none" transform="matrix(.0148 0 0 -.0148 -373.168 667.24)"/><path d="M32752.6 37027.7v-.1zm-17.4-54.6c-9.4-25.4-20.9-52.1-34.7-80.3-18.7-38-41.8-77.6-70.4-121.1-6.7-9.7-13-18.9-19-28.3l-1.1-1.5c-6.7-9-13.4-18.1-19.9-27.3-3.4-4.7-6.5-9.2-9.6-13.8-2.8-4-5.4-7.3-8-10.6l-8.6-11.3c-5.1-6.8-10.2-13.5-15.1-20.5-4.9-6.6-9.4-12.4-13.8-18.1-9.7-12.6-19.7-25.5-28.8-38.8l-.9-1.2c-5.2-6.7-10.2-13.1-14.9-19.4 6.8 4 13.8 8.4 21.2 13.1 19.2 14.3 39 29 56.5 45.1l9.6 9.4c14.7 14.2 28.5 27.5 40.1 42.6 8.4 10.2 16.3 19.8 23.8 29.6 6.6 9.6 13.5 20.1 20.4 30.7 28 44.6 48.4 89.7 60.3 133.5 7.2 27.7 11.1 50.6 12.2 71.7.4 5.4.6 10.9.7 16.5m-281-464.8c-15 0-29.3 8.5-36.2 22.9-5.6 12.1-4.9 26.1 2 37.6 15 24.4 30.7 45 44.3 62.6 9.8 14 20 27.3 29.9 40.2 4.4 5.7 8.7 11.3 13 17 4.7 6.7 10.1 14 15.6 21.2l9.3 12.2c2 2.7 4.1 5.3 6 8 3 4.4 6.5 9.4 10.1 14.3 6.4 9.2 13.2 18.4 20.1 27.6 6.2 9.7 12.6 19.1 19.1 28.5 27.2 41.3 49.2 79.1 66.9 115 22.2 45.3 37.9 85.8 48.2 123.7l.5 2.1c2.7 10.1 9.3 18.6 18.4 23.9 9.2 5.2 19.8 6.6 30.1 3.9 13.7-3.7 24.5-14.6 28-28.4v-.1c8.2-32.3 7.8-62 6.4-86.8-1.4-24.5-5.8-50.6-13.9-81.9-13.3-49.1-35.7-98.8-66.7-148.2-7.4-11.4-14.6-22.3-22.1-33-8.5-11.3-16.8-21.4-25.1-31.5-13.5-17.5-29.3-32.8-44.6-47.5l-10-9.8c-20.2-18.6-41.5-34.4-62-49.6l-1.4-.9c-25.8-16.7-47.7-29.1-69-39.1-5.5-2.6-11.3-3.9-16.9-3.9" style="fill:#231f20;fill-opacity:1;fill-rule:nonzero;stroke:none" transform="matrix(.0148 0 0 -.0148 -373.168 667.24)"/><path d="M31734.1 37189c-4.8-66.2-7.6-131.2-5.3-189.7 2.3-58.9 10.1-111.2 24.5-155.6 14.1-44.7 35.2-82.8 61.7-116.2 26.2-34.1 57.4-62.6 90.3-94.8l.1-.1c5.7-5.6 7.3-18.9 3.5-29.7-2.4-6.6-6.3-10.8-10.3-11.6-41-8.3-82.2 1-120.7 28.5-38.3 27-74.3 76.2-95.7 145.3-22 68.4-28 151.7-21.2 228.3 7.1 77.1 23.8 149 51.9 210.9 4.4 9.8 12.2 12.2 17.3 5.3 3.2-4.3 4.6-11.1 4.1-18z" style="fill:#389f9f;fill-opacity:1;fill-rule:nonzero;stroke:none" transform="matrix(.0148 0 0 -.0148 -373.168 667.24)"/><path d="M31703.2 37095c-7.7-32.4-13.2-67.1-16.6-104-6.9-77.4.4-156.9 20.1-218 18.3-59.1 48.8-106 86-132.2 29.8-21.3 60.9-29.9 92.6-25.7l-.1 1.2-14.1 13.8c-27.5 26.6-53.5 51.8-76.5 81.7-29.7 37.5-51.3 78.1-65.8 124.1-14.7 45.3-23.3 99.9-25.6 162.4-1.2 28.8-1.2 60.5 0 96.7m166.7-532.3c-37.1 0-73.5 12.3-107 36.2-46.2 32.6-83.7 89-105.2 158.6-22 68.1-29.9 152.8-22.3 238.1 7.6 83.4 25.9 157.2 54.1 219.4 6.3 13.9 17.4 22.7 30.4 24.1 11.8 1.2 23.4-4 30.9-14.1 6.8-9.1 10-21.6 9.1-35.1l-.2-2.8c-5.5-77.6-7.2-136.9-5.2-186.8 2.2-57.8 10-107.8 23.2-148.7 12.7-40.1 31.5-75.4 57.4-108.2 21-27.2 45.6-51.1 71.7-76.4l16.5-15.9c15.3-15 15.8-39.9 9.8-56.7-5.3-15.2-15.9-25.5-29.1-28.3-11.4-2.3-22.7-3.4-34.1-3.4" style="fill:#231f20;fill-opacity:1;fill-rule:nonzero;stroke:none" transform="matrix(.0148 0 0 -.0148 -373.168 667.24)"/><path d="M31379.2 36952c28 2.5 53.3-1.3 79-7 25.6-5.6 50-14.8 73.8-25.2 47.5-21.5 90.5-51.3 129.1-85.2 9.5-8.6 18.9-17.3 28.2-26.3 8.8-9.2 17.3-18.8 25.7-28.4 17.5-18.7 31.4-40.1 46.1-60.7 14-21.2 25.7-43.7 37.2-66.1 10.2-23.2 19.5-46.8 26.5-71.2 2.2-7.5-2.1-15.3-9.6-17.5-4.7-1.4-9.6-.2-13.1 2.8l-.7.6c-19.2 16.5-36 34-52.3 51.6-17.4 16.6-33.2 34.2-49.5 51.1-8.4 8.2-16.4 16.7-24.5 25.1-4 4.2-7.8 8.6-11.9 12.6-4.3 4-8.4 8-12.5 12.1-8.3 8-16.3 16.3-24.3 24.6-8.6 7.6-16.9 15.5-25.2 23.4-33.7 30.9-68.5 60.3-105.8 86.7-36.9 26.2-77.1 51-118.7 69.7l-1.9.9c-7 3.1-10.1 11.3-7 18.3 2.2 4.7 6.6 7.6 11.4 8.1" style="fill:#87d5ab;fill-opacity:1;fill-rule:nonzero;stroke:none" transform="matrix(.0148 0 0 -.0148 -373.168 667.24)"/><path d="M31436.5 36923.1c23.6-13.3 48.1-28.9 73.8-47.1 34.5-24.5 69.9-53.5 108.3-88.7 8.5-8.1 16.5-15.8 24.9-23.3l1.3-1.3c7.9-8 15.7-16.1 23.8-24 4.1-4 8-7.9 12-11.6 3.6-3.4 6.4-6.5 9.2-9.5l9.9-10.5c5.9-6.1 11.8-12.2 17.9-18.1 5.7-6 10.7-11.4 15.8-16.8 10.8-11.4 22-23.2 33.5-34.3l1-1c5.3-5.7 10.9-11.7 16.9-17.8-3 7.3-6.1 14.9-9.7 22.9-11 21.3-22.4 43.2-35.4 63l-7.8 11c-11.6 16.7-22.7 32.5-35.6 46.4-8.8 9.9-17 19.2-25.6 28.1-8.4 8.1-17.6 16.6-26.9 25.1-39.7 34.8-80.9 62-122.4 80.7-26.2 11.5-48.1 19-68.7 23.5q-7.95 1.8-16.2 3.3m374.7-385c-9.3 0-18.4 3.3-25.7 9.4-21.7 18.7-39.6 37.5-54.7 53.8-12.3 11.8-23.7 24-34.8 35.7-5 5.3-9.9 10.5-14.9 15.7-5.9 5.7-12.1 12.2-18.4 18.7l-10.8 11.4c-2.2 2.4-4.4 4.8-6.7 7.1-4 3.6-8.3 7.9-12.6 12.2-8 7.8-16.1 16-24.1 24.2-8.5 7.6-16.8 15.5-25.1 23.5-36.4 33.4-70.2 61.1-102.9 84.3-41.2 29.1-78.6 51.1-114.4 67.2l-1.8.8c-19.9 9-28.9 32.4-19.9 52.3 5.9 13 18.3 21.9 32.5 23.2h.1c33.3 2.9 62.5-2.2 86.7-7.6 24-5.2 49-13.7 78.7-26.7 46.3-20.9 91.8-50.9 135.6-89.4 10.1-9.1 19.7-18 29.2-27.1 9.7-10.1 18.4-20 27.1-29.9 15-16 27.6-34 39.8-51.5l8-11.4c15.2-22.9 27.3-46.4 39.1-69l.7-1.6c12.3-28.1 21.1-51.8 27.6-74.3 3-10.3 1.8-21-3.4-30.4-5.1-9.3-13.6-16-23.8-19-3.6-1.1-7.4-1.6-11.1-1.6" style="fill:#231f20;fill-opacity:1;fill-rule:nonzero;stroke:none" transform="matrix(.0148 0 0 -.0148 -373.168 667.24)"/><path d="M32089.1 37423.9c51.9-24.3 93.4-63.7 128.5-110.4 34.5-47 60.6-102.9 75.9-163.9 7.6-30.5 11.9-62.3 13.8-94.5 1.5-32.4-.3-65.1-4.7-97.5-10-64.7-31.3-127.8-65.1-182.6-4.4-7-12.8-9.5-18.8-5.4-3.9 2.6-5.8 7.4-5.4 12.4v.2c4.6 60.8 8.3 117.4 6.9 172.1-2 54.6-8.6 106.8-20.5 157.7-12.3 50.6-29.5 99.7-51.3 147.4-21.6 47.7-47.7 94.7-76 140.9l-.7 1.1c-3.9 6.3-2 15.5 4.2 20.4 4.1 3.4 9.2 3.9 13.2 2.1" style="fill:#47b173;fill-opacity:1;fill-rule:nonzero;stroke:none" transform="matrix(.0148 0 0 -.0148 -373.168 667.24)"/><path d="M32114.6 37379.8c22.8-39.3 41.6-75.3 57.2-109.8 22.5-49.2 40.3-100.4 52.9-152 12.1-51.8 19-105 21.1-162.8 1-37.5-.3-75.3-2.6-113.4 15.9 36.8 27.5 77.4 33.9 119.7 4.3 31.2 5.9 62.4 4.5 92.4-1.8 31.8-6.2 62-13 89.5-14.3 56.9-39.1 110.5-71.7 154.9-26 34.6-53.2 61.5-82.3 81.5m110.5-637.9c-7.4 0-14.6 2.2-20.8 6.4-11.3 7.7-17.7 21.3-16.6 35.6 4.4 58.2 8.2 114.8 6.8 169.7-2 54.2-8.5 104.1-19.8 152.5-11.8 48.2-28.5 96.3-49.7 142.6-19.3 42.7-43.7 87.9-74.6 138.2-11.2 18.3-6.8 42 9.4 55 11.6 9.3 27 11.4 40.1 5.3h.1c51.1-23.9 96.3-62.6 138.1-118.2 36.7-50 64.4-109.8 80.3-173.1 7.6-30.7 12.5-64.1 14.6-99.3 1.5-33.5-.2-67.9-5-102.5-10.9-71-34.6-137.5-68.7-192.6-5.9-9.6-15.5-16.5-26.1-18.7q-4.05-.9-8.1-.9" style="fill:#231f20;fill-opacity:1;fill-rule:nonzero;stroke:none" transform="matrix(.0148 0 0 -.0148 -373.168 667.24)"/><path d="M32269.3 36453c57.1-4.5 109.8-26.9 159-58.3 48.9-32 92.9-75.2 128.6-126.9 17.8-26 33-54.3 46.1-83.8 12.7-29.7 22.5-61 29.7-92.9 13.4-64.1 15.5-130.7 3-193.8-1.6-8.2-8.6-13.4-15.6-11.7-4.6 1.2-8 4.9-9.4 9.7l-.1.3c-17 58.5-33.4 112.8-53.9 163.5-21 50.4-45.5 97.1-74.4 140.5-29.3 43.1-62.6 83.1-99.8 120.1-36.9 37.1-77.9 72-120.6 105.4l-1 .8c-5.8 4.5-7.3 13.7-3.2 20.5 2.7 4.6 7.2 6.9 11.6 6.6" style="fill:#47b173;fill-opacity:1;fill-rule:nonzero;stroke:none" transform="matrix(.0148 0 0 -.0148 -373.168 667.24)"/><path d="M32308.7 36420.6c35.1-28.8 65.3-55.9 92-82.7 38.4-38.2 73-79.9 102.8-123.8 29.6-44.4 54.7-91.8 76.9-145.1 14.1-34.8 26.1-70.6 37.3-107.2 2 40.1-1.4 82.1-10.2 124.1-6.9 30.7-16.4 60.5-28.2 88.1-12.8 29-27.6 55.8-43.6 79.2-33.3 48.3-75.3 89.8-121.4 120-36.5 23.2-71.3 38.9-105.6 47.4m314.1-561c-2.9 0-5.9.3-8.8 1.1-13.3 3.2-24 13.7-28 27.4-16.3 56.2-32.6 110.5-53.2 161.4-20.8 50-44.4 94.5-71.9 135.9-27.9 41-60.4 80.2-96.5 116.1-33.1 33.1-71.7 66.9-118.3 103.3-17 13.2-21.1 37-10.5 54.8 7.6 12.8 21.4 20.1 35.7 19h.1c56.2-4.4 112.1-24.8 170.8-62.3 51.8-33.9 98.8-80.2 135.9-133.9 17.8-26.1 34.1-55.7 48.4-87.9 13.1-30.8 23.6-63.6 31.3-97.7 14.7-70.4 15.7-141 3.1-204.5-2.2-11.1-8.7-20.9-17.9-26.7-6.2-4-13.1-6-20.2-6" style="fill:#231f20;fill-opacity:1;fill-rule:nonzero;stroke:none" transform="matrix(.0148 0 0 -.0148 -373.168 667.24)"/><path d="M31162.5 36792.5c65.7-23.1 129.7-46.7 191.3-75.8 61.6-28.7 121.6-60.8 179.9-100.5 14.9-9 29.1-20.2 43.5-30.8 14.3-10.8 29.3-20.2 43-32.8l42.6-34.9c14-12.2 27.4-25.6 41.6-38.1 14-12.7 28.3-25.3 41.5-39.6 13.5-13.9 27.3-27.8 41.5-41.6 27.6-28.4 53.5-59 83.5-88.4l1.9-1.9c9.1-8.9 20.5-10.4 25.6-3.3 3.4 4.7 3.1 12-.1 19-8.9 18.9-18.5 37.7-28.6 56.6-4.9 9.4-9.9 18.9-15.2 28.3-5 9.5-10.4 18.9-16.7 27.8-11.9 18.2-24.3 36.3-36.9 54.4-6.5 8.9-12.4 18.3-19.4 26.9l-21.3 25.6c-14.2 17.1-28.7 34.2-43.7 50.8l-47.7 46.9c-15.8 16-33 29.6-50.1 43.5-17.2 13.6-34.1 28.4-52.2 39.7-70.6 50.7-146 86.8-218.2 106.4-18.1 5.2-35.9 8.1-53.6 11.5-17.5 2.4-34.9 4.2-51.8 4.7-33.9.6-65.8-2.4-95.4-14.1-8.3-3.3-9.6-14.8-3.1-25.8 3.9-6.7 9.9-11.6 15.8-13.7z" style="fill:#389f9f;fill-opacity:1;fill-rule:nonzero;stroke:none" transform="matrix(.0148 0 0 -.0148 -373.168 667.24)"/><path d="m31637 36572.1 42.1-34.5c8.2-7.1 15.6-14.1 23.1-21.1 6.3-5.9 12.6-11.9 19.1-17.6l2.7-2.4c13.6-12.2 27.6-24.8 40.8-39.2 12.9-13 26.4-26.8 40.5-40.5 12.3-12.6 23.9-25.2 35.6-38l1.4-1.5c-3.4 6.3-6.7 12.6-10.2 18.9-4.1 7.6-9.3 17-15.3 25.5-12.3 18.7-24.6 36.6-37 54.5-2.1 2.9-4.4 6.2-6.7 9.6-3.7 5.4-7.4 10.8-11.6 15.9l-21 25.3c-14.2 16.9-28.2 33.5-42.5 49.4l-47.2 46.4c-13.3 13.4-27.6 25-42.7 37.2l-5.6 4.6c-4 3.2-8.3 6.6-12.5 10.1-12.7 10.3-24.7 20-37.1 27.8l-1.4.9c-66.6 47.9-139.2 83.4-209.9 102.5-13.7 3.9-27 6.4-41.2 9.1l-9.8 1.9c-19.1 2.5-34.5 3.9-48.4 4.3-26 .5-47.4-1.5-66.2-6.2 61.6-21.7 126.9-45.8 188.8-75.1 70.6-32.8 128.8-65.3 182.8-102.1 12.7-7.7 24.6-16.6 36.1-25.1l8.7-6.6c4.7-3.5 9.2-6.7 13.7-9.9 10.1-7.3 20.6-14.8 30.9-24.1m252.1-297.5c-12 0-24.4 5.4-34.3 15.1l-2 2c-17.7 17.4-34 35.2-49.8 52.3-11.3 12.4-22.5 24.6-34 36.5-13.9 13.4-27.8 27.5-41.5 41.5-12.1 13.1-24.6 24.3-37.8 36.2l-2.5 2.2c-6.8 6-13.5 12.3-20.2 18.6-7 6.6-13.9 13.1-21 19.3l-43.2 35.4c-8.1 7.4-17.1 13.9-26.6 20.7-4.9 3.4-9.8 6.9-14.5 10.5l-8.8 6.6c-11.2 8.3-21.7 16.2-32.4 22.6l-1.2.8c-51.9 35.4-107.9 66.7-176.4 98.5-58.2 27.5-117.5 49.8-188.9 74.8l-2.3.8c-11.9 4.3-22.6 13.3-29.4 24.9-7.8 13.1-9.8 27.8-5.5 40.4 3.6 10.4 11.1 18.4 21.2 22.4 29.6 11.6 62.9 16.7 105.4 16 16.2-.5 33.5-2.1 54.8-5l11.8-2.2c14.6-2.7 29.7-5.6 45.3-10 76.1-20.7 154.1-58.7 225.6-109.9 14.7-9.3 28.3-20.3 41.5-31 4.1-3.3 8.1-6.6 12.2-9.9l5.9-4.7c15.5-12.6 31.6-25.6 46.6-40.8l48.5-47.7c15.1-16.8 29.6-34 44.3-51.6l21.4-25.6c5.1-6.4 9.6-12.9 14.1-19.3q3.15-4.65 6.3-9c13-18.8 25.6-37 37.6-55.4 7.2-10.2 13.4-21.3 17.9-29.8 5.1-9.2 10.3-18.9 15.3-28.5 11.7-21.9 20.9-40.3 29.1-57.6 7.4-16 6.5-32.8-2.4-45-6.3-8.8-15.8-14.1-26.7-15-1.2-.1-2.3-.1-3.4-.1" style="fill:#231f20;fill-opacity:1;fill-rule:nonzero;stroke:none" transform="matrix(.0148 0 0 -.0148 -373.168 667.24)"/><path d="M31892.1 36532.3c59.5-36.1 117.2-72.5 171.3-113.8 54.3-40.8 106.4-84.8 155.2-135.8 12.6-11.8 24.2-25.7 36.1-39 11.7-13.6 24.4-26 35.2-41.1l34.4-43c11.2-14.8 21.5-30.7 32.8-45.9 11.1-15.3 22.5-30.7 32.3-47.4 10.4-16.4 21-32.8 32-49.3 21.1-33.5 40.1-68.8 63.3-103.8l1.5-2.3c7-10.6 17.9-14.4 24.3-8.6 4.4 3.9 5.6 11.2 3.9 18.7-4.8 20.3-10.3 40.7-16.2 61.3-2.9 10.2-5.8 20.6-9 30.8-3 10.4-6.3 20.7-10.5 30.7-7.9 20.3-16.3 40.5-24.9 60.9-4.4 10.1-8.3 20.5-13.3 30.4l-15.5 29.4c-10.4 19.7-21 39.4-32.2 58.8l-36.9 55.8c-12.2 18.9-26.2 35.7-40 52.9-14 16.9-27.5 34.9-42.8 49.7-58.6 64.3-124.8 115.3-191.4 149.5-16.6 8.8-33.4 15.3-49.9 22.4-16.7 5.9-33.3 11.3-49.7 15.3-33.1 7.7-64.9 11.3-96.4 6-8.7-1.5-12.4-12.4-8.3-24.5 2.4-7.4 7.3-13.5 12.6-16.8z" style="fill:#389f9f;fill-opacity:1;fill-rule:nonzero;stroke:none" transform="matrix(.0148 0 0 -.0148 -373.168 667.24)"/><path d="m32310.4 36218.1 34-42.5c6.5-8.6 12.4-17 18.3-25.5 4.9-7 9.8-14.1 15-21.1l2-2.7c10.8-14.8 21.9-30.1 31.9-46.9 9.8-15.5 20.2-31.8 31.1-48.1 9.5-14.9 18.2-29.7 27-44.6l1-1.8c-1.9 6.9-3.9 13.8-6.1 20.7-3.4 12-6.3 20.5-9.6 28.1-8.1 20.8-16.4 40.9-24.9 61-1.4 3.2-2.9 6.9-4.4 10.5-2.6 6.1-5.1 12.3-8.1 18.2l-15.4 29.1c-10.8 20.5-20.7 39-31.3 57.2l-36.5 55.2c-10.2 15.9-21.7 30.1-33.9 45.2l-4.7 5.8c-3.2 3.9-6.6 8.1-10 12.3-10.3 12.8-20.1 24.8-30.6 35l-1.1 1.2c-55.3 60.7-118.9 110.5-184.1 143.9-12.6 6.7-25.1 11.9-38.3 17.4l-9.3 3.9c-18.2 6.5-32.9 11.1-46.4 14.3-25.2 5.9-46.6 8.3-66 7.6 55.7-33.9 114.5-71 169-112.5 62.3-46.9 112.4-90.8 157.6-138 10.8-10.1 20.5-21.2 29.9-31.9l7.4-8.4c3.8-4.4 7.6-8.5 11.3-12.6 8.4-9.2 17.1-18.7 25.2-30m193-344.2c-1.6 0-3.3.1-4.9.3-13.1 1.7-25.4 9.8-33.7 22.5l-1.5 2.3c-13.8 20.7-26 41.5-37.9 61.6-8.5 14.5-17 28.8-25.8 42.7-10.7 16.1-21.4 32.7-31.9 49.2-9.1 15.4-19 29.1-29.5 43.5l-1.9 2.5c-5.4 7.2-10.6 14.8-15.8 22.3-5.5 7.9-11 15.7-16.7 23.3l-34.9 43.6c-6.4 9-13.8 17.1-21.7 25.8-4 4.4-8.1 8.8-12 13.4l-7.4 8.3c-9.1 10.4-17.7 20.3-26.8 28.7l-1 1.1c-43.4 45.3-91.7 87.5-152 133-54.3 41.3-113.4 78.4-169.3 112.4l-2 1.2c-10.8 6.7-19.4 17.8-23.7 30.5-4.9 14.5-3.8 29.3 3 40.6 5.7 9.5 14.7 15.8 25.5 17.6 31.4 5.2 65.2 3.2 106.4-6.3 15.7-3.8 32.3-9 52.5-16.2l11.1-4.6c13.7-5.8 27.9-11.7 42.3-19.3 70.1-36 138.5-89.4 197.8-154.3 12.5-12.2 23.5-25.9 34.2-39.1 3.3-4 6.5-8.1 9.9-12.1l4.8-6c12.5-15.5 25.5-31.5 37-49.5l37.5-56.7c11.2-19.3 21.4-38.4 32.7-59.7l15.5-29.5c3.8-7.3 6.8-14.7 9.9-22l4.2-9.9c8.8-21 17.3-41.5 25.3-61.9 3.8-9 7.4-19.4 11.3-33 3.1-10 6.1-20.5 9.1-31 6.9-24.2 12.1-44 16.4-62.4 4-17.1-.4-33.4-11.6-43.5-6.8-6.2-15.3-9.4-24.4-9.4" style="fill:#231f20;fill-opacity:1;fill-rule:nonzero;stroke:none" transform="matrix(.0148 0 0 -.0148 -373.168 667.24)"/><path d="M31171.3 36528.4c49.6-17.2 97.3-34.4 142.4-52.9 45.2-18.4 88.9-37.2 130.9-58.1 5.5-2.4 10.6-5.2 15.6-8l15.7-7.9c10.4-5.3 21.1-10.4 31.1-16.2 10.1-5.7 20.8-10.9 31.3-16.4 10.3-5.7 20.2-11.7 30.9-17.2 10.5-5.7 21.4-11.1 31.4-17.3 10.5-6 21.1-11.9 32.2-17.6 21.8-11.8 42.8-24.6 68.3-35.7l1.2-.6c6.9-3 15.6-1.6 19.4 3.1 1.9 2.4 2.2 5.2 1.1 7.8-4.3 10-9.4 19.9-15.1 29.5-6 9.6-11.4 19.6-19.1 28.5-15.1 17.8-30.1 36.4-49.7 52.3-9.3 8.2-19.2 16.2-29 24.2-10.8 7.3-21.3 14.9-32.5 22-5.6 3.6-10.9 7.3-16.7 10.7-5.8 3.3-11.9 6.5-17.8 9.7-12.1 6.4-23.7 13.2-36.6 18.6-49.9 23.6-104.9 41.4-161.6 52.7-56.8 10.8-115.2 16.2-173.3 7.9-7.4-1-11.8-6.2-9.8-11.6 1.2-3.1 4.2-5.6 8-6.9z" style="fill:#307956;fill-opacity:1;fill-rule:nonzero;stroke:none" transform="matrix(.0148 0 0 -.0148 -373.168 667.24)"/><path d="M31257.1 36525.1c22.1-8.2 44.5-16.8 66.3-25.8 54.8-22.3 95.7-40.5 132.7-58.9 4.9-2.1 10.6-5.2 16.3-8.3l23.1-11.7c8.3-4.2 16.6-8.3 24.5-12.9 6-3.4 12.7-6.8 19.4-10.3l10.8-5.6c4.6-2.5 8.8-4.9 13-7.3 5.9-3.3 11.7-6.6 17.8-9.8l7.8-4.2c8.4-4.4 17-8.9 25.4-14.1 9.2-5.2 19.6-11 30.4-16.6 6.1-3.3 11.7-6.4 17.4-9.6 4.9-2.7 9.9-5.5 15-8.3-2.4 3.9-5 7.6-7.8 10.8l-4.2 5c-13.5 16-26.3 31.2-42.3 44.2-8.5 7.5-16.5 14.1-24.6 20.6l-3.6 3-10.2 7c-6.8 4.7-13.6 9.4-20.7 14l-6.1 3.9c-3.2 2.1-6.3 4.2-9.7 6.1-3.5 2.1-7.1 4-10.8 5.9l-15.2 8.2c-8.7 4.8-16.9 9.2-25.5 12.9-48.7 22.9-101.1 40-156.6 51.1-29.8 5.6-57.1 9.2-82.6 10.7m453-271.9c-6 0-12.3 1.2-18.1 3.8-21.3 9.3-38.4 18.9-55 28.1-5.5 3.1-10.9 6.1-16.4 9.1-11 5.7-21.9 11.7-32.7 17.8-7.7 4.8-15.2 8.7-23.1 12.9l-7.8 4.1c-6.4 3.3-12.8 7-19.2 10.6-4 2.3-7.9 4.5-11.9 6.7l-10 5.2c-7.3 3.7-14.5 7.4-21.5 11.4-7.3 4.2-14.6 7.9-21.9 11.5l-23.9 12.1c-5.3 2.9-9.6 5.3-14.3 7.3-36.9 18.4-76.7 36.1-130.3 57.9-47.5 19.5-98 37.4-141.2 52.4l-1.6.6c-11.3 4-19.8 12-23.6 22.1-3.6 9.5-2.7 19.9 2.4 28.5 5.7 9.5 15.8 16 27.8 17.7 54 7.7 111.8 5.1 181.7-8.2 59.9-11.9 116.2-30.3 167.8-54.6 9.9-4.2 19.6-9.5 29-14.6l15-8c4.1-2.2 8.3-4.5 12.3-6.8 4.2-2.4 8.2-5 12.1-7.6l5.5-3.6c7.7-4.9 15.1-10 22.4-15l17-12.4c8.7-7.1 17.3-14.1 25.4-21.4 18.9-15.2 33.9-33 48.3-50.2l4-4.7c7.2-8.3 12.7-17.4 17.6-25.4l3.6-6c6.5-10.9 12.2-21.9 16.9-33 4.9-11.7 3.1-24.3-4.7-34-7.4-9.3-19.3-14.3-31.6-14.3" style="fill:#231f20;fill-opacity:1;fill-rule:nonzero;stroke:none" transform="matrix(.0148 0 0 -.0148 -373.168 667.24)"/><path d="M31792 36118.4c51.3-11.4 100.6-22.9 147.6-36.1 47-13.1 92.6-26.7 136.7-42.6 5.7-1.7 11.1-3.9 16.5-6.1l16.4-6.1c11-4 22.2-7.8 32.8-12.4 10.7-4.5 21.9-8.5 33-12.7 10.9-4.4 21.4-9.3 32.6-13.5 11.1-4.4 22.6-8.6 33.3-13.6 11.1-4.7 22.3-9.3 34-13.7 23-9.2 45.4-19.4 72-27.6l1.2-.4c7.2-2.2 15.7.2 18.9 5.3 1.6 2.6 1.6 5.4.2 7.9-5.4 9.4-11.6 18.7-18.4 27.6-7 8.8-13.5 18.1-22.2 26-17.1 16-34.1 32.7-55.5 46.2-10.2 7.1-20.9 13.9-31.6 20.7-11.6 6-22.9 12.3-34.8 18.1-5.9 2.9-11.7 6-17.8 8.7-6.2 2.6-12.6 5-18.9 7.6-12.6 4.9-25 10.3-38.4 14.2-52.3 17.7-109 29-166.6 33.6-57.8 4.2-116.4 2.8-173.1-12.1-7.3-1.9-11-7.6-8.4-12.7 1.5-2.9 4.8-5.1 8.8-5.9z" style="fill:#307956;fill-opacity:1;fill-rule:nonzero;stroke:none" transform="matrix(.0148 0 0 -.0148 -373.168 667.24)"/><path d="M31877.6 36125c22.8-5.6 46.1-11.5 68.9-17.9 57-15.9 99.7-29.2 138.6-43.2 5.1-1.5 11.1-3.9 17.1-6.4l24.3-8.9c8.7-3.2 17.4-6.3 25.8-10 6.4-2.7 13.4-5.3 20.4-7.9l11.5-4.3c4.9-2 9.4-3.9 13.9-5.8 6.1-2.7 12.3-5.3 18.6-7.7l8.4-3.2c8.8-3.4 17.8-7 26.7-11.1 9.8-4.1 20.8-8.7 32.2-13 6.4-2.5 12.4-5 18.4-7.5 5.2-2.2 10.5-4.3 15.9-6.5-2.9 3.6-5.9 6.9-9 9.8l-4.7 4.4c-15.3 14.4-29.8 28-47.2 39.1-9.5 6.6-18.3 12.2-27.2 17.8l-3.6 2.4-10.6 5.6c-7.5 3.9-14.9 7.9-22.5 11.6l-6.4 3.2c-3.5 1.7-6.9 3.4-10.5 5-3.7 1.6-7.6 3.1-11.4 4.7l-16 6.3c-9.2 3.7-17.9 7.2-26.8 9.8-51.1 17.2-105.1 28-161.5 32.6-30.3 2.2-57.8 2.6-83.3 1.1m476.2-217.9c-4.4 0-8.8.6-13.2 2-22.2 6.7-40.3 14.2-57.9 21.5-5.8 2.4-11.5 4.8-17.3 7.1-11.6 4.4-23.1 9.1-34.5 13.9-8.2 3.9-16.1 6.9-24.4 10.1l-8.3 3.3c-6.7 2.5-13.5 5.4-20.2 8.2-4.2 1.8-8.4 3.6-12.6 5.3l-10.7 4c-7.6 2.9-15.2 5.8-22.6 8.8-7.7 3.4-15.4 6.2-23.1 8.9l-25.2 9.3c-5.5 2.2-10.1 4.1-15 5.6-38.8 14-80.4 27-136.1 42.5-49.6 13.8-101.8 25.8-146.3 35.7l-1.7.4c-11.7 2.6-21.1 9.6-26.1 19.3-4.5 8.9-4.8 19.3-.7 28.5 4.5 10.1 13.8 17.7 25.5 20.8 52.7 13.9 110.3 18 181.4 12.9 60.8-5 119-16.7 173-34.9 10.4-3 20.6-7.1 30.5-11.1l15.7-6.2c4.4-1.7 8.8-3.5 13.1-5.3 4.5-2 8.8-4.1 13-6.3l5.8-2.8c8.3-4 16.3-8.3 24.2-12.5l17.8-10c9.5-6.1 18.9-12.1 28-18.5 20.6-13 37.5-28.9 53.9-44.4l4.4-4.1c8.2-7.4 14.7-15.8 20.4-23.3l4.3-5.4c7.7-10.1 14.6-20.3 20.6-30.9 6.1-10.8 5.8-23.9-.8-34.3-7.2-11.5-20.7-18.1-34.9-18.1" style="fill:#231f20;fill-opacity:1;fill-rule:nonzero;stroke:none" transform="matrix(.0148 0 0 -.0148 -373.168 667.24)"/><path d="M31129.6 36292.8c61.7-24.7 122.7-47.2 179.1-62.8 56.8-15.8 108.9-24.3 155.7-24.1 46.8-.1 89.5 8.3 129.5 23.4 40.4 14.6 77 35.6 117.7 57.1l.2.1c7.1 3.7 20.2 1.2 29.3-5.7 5.6-4.3 8.4-9.3 8-13.4-4.7-41.6-26-78-64-106.3-37.4-28.2-95.2-47.5-167.6-46.8-71.8-.1-153 19.5-223.8 49.3-71.4 30.2-134.8 68-185.2 113.7-7.9 7.2-7.8 15.3.3 18.1 5 1.7 12 1 18.4-1.6z" style="fill:#389f9f;fill-opacity:1;fill-rule:nonzero;stroke:none" transform="matrix(.0148 0 0 -.0148 -373.168 667.24)"/><path d="M31517.5 36140c61.7-.7 115.8 14.2 152.1 41.6 29.4 21.9 47 48.9 52.7 80.3l-1.2.4-17.5-9.3c-33.7-18.1-65.6-35.1-101-47.9-44.4-16.8-89.4-24.9-137.3-24.9h-2.1c-47.3 0-101.6 8.4-161.4 25.1-27.8 7.6-58 17.3-92.1 29.5 28.5-17.2 59.9-33.1 94-47.5 71.5-30.1 149.2-47.3 213.2-47.3zm3.5-51.5h-4.3c-71.5 0-154.2 18.3-233 51.4-77.1 32.7-141.8 72.5-192.4 118.4-11.3 10.2-16.3 23.5-13.7 36.3 2.4 11.6 10.9 21 22.8 25.1 10.9 3.7 23.7 3 36.3-2l2.5-1c72.2-29 128.2-48.6 176.4-61.9 55.3-15.4 105-23.2 147.7-23.2h1.9c41.7 0 80.7 7.1 119.6 21.7 32.3 11.7 62.5 27.9 94.6 45l20.2 10.8c19 10 42.8 2.9 57-7.9 12.8-9.6 19.4-22.9 18-36.3-5.4-49.4-31.1-92.3-74.2-124.4-44.3-33.5-108-52-179.4-52" style="fill:#231f20;fill-opacity:1;fill-rule:nonzero;stroke:none" transform="matrix(.0148 0 0 -.0148 -373.168 667.24)"/><path d="M31287.8 36730.6c10.9-23.9 26-43.7 42.8-63.3 16.7-19.6 35.9-37.1 56-53.7 40.4-32.9 85.9-59.6 132.9-81.5 11.8-5.3 23.6-10.5 35.5-15.5 12.1-4.6 24.2-8.7 36.3-12.8 24.1-9 48.9-14.1 73.4-20.1 24.6-5.2 49.3-8.2 73.8-11.1 24.5-1.5 49-2.1 73.1-.7 7.5.5 12.1 6.4 10.5 13.3-1 4.3-4.3 7.9-8.5 9.9l-.9.5c-23 11-45.8 19.6-68.4 27.9-22.3 9.4-44.7 17.3-66.7 25.7-10.9 4.5-21.9 8.6-32.8 12.8-5.5 2.1-11 3.9-16.4 6.1-5.4 2.4-10.8 4.6-16.1 6.7-10.8 4.5-21.6 8.7-32.4 12.9-10.5 4.8-21.1 9.3-31.7 13.8-42.2 18.7-83.5 38.8-123.4 61.7-39.6 22.9-79.5 48.7-114.9 77.6l-1.6 1.3c-5.9 4.9-14.4 5-18.9.3-3-3.1-3.5-7.7-1.6-11.8" style="fill:#87d5ab;fill-opacity:1;fill-rule:nonzero;stroke:none" transform="matrix(.0148 0 0 -.0148 -373.168 667.24)"/><path d="M31360.6 36672.4c11.6-12.3 25.4-24.9 42.4-39 35.4-28.9 78.3-55.1 127.3-78 11.3-5 22.9-10.2 34.6-15 11-4.2 22.9-8.3 34.7-12.3 18.8-6.9 37.6-11.4 57.4-16.1l13.8-3.3c21.4-4.6 44.4-7.4 66.7-10.1l-2 .7c-16.2 6.8-31.6 12.6-46.6 18.2-6.8 2.5-13.7 5-20.5 7.7-8.8 3.6-16.9 6.7-25 9.8l-13.2 5c-3.9 1.4-7.8 2.8-11.6 4.4-5.7 2.4-10.8 4.5-15.9 6.6-10.8 4.5-21.4 8.6-32 12.7l-1.5.6c-10.2 4.7-20.6 9.1-31 13.5-48.3 21.4-89.5 42-126.2 63.2-18.3 10.5-35.4 21-51.4 31.4m422.6-227c-14.1 0-29.3.5-46.3 1.5l-1.5.2c-24.7 2.9-50.3 6-76.1 11.5l-14.1 3.4c-20.5 4.8-41.7 9.8-62.8 17.6-11.8 4-24.2 8.3-36.5 13-12.9 5.3-24.9 10.7-36.9 16.1-53.2 24.7-99.7 53.3-138.6 85-25 20.6-43.8 38.7-59.3 56.9-15.8 18.3-33.7 40.9-46.7 69.3v.1c-6.3 13.8-3.7 29.6 6.5 40.2 13.8 14.4 37.4 15.2 53.7 1.9l1.6-1.3c30.6-25 67-49.6 111.4-75.3 35.2-20.2 74.8-40 121-60.5 10.2-4.3 20.8-8.8 31.3-13.6 10.8-4.2 21.5-8.4 32.2-12.8 5.4-2.2 11-4.5 16.6-6.9 2.6-1.1 5.7-2.2 8.9-3.3l14.2-5.4c8.5-3.3 17.1-6.5 25.7-10.1 5.9-2.3 12.6-4.8 19.4-7.3 15.4-5.7 31.4-11.7 47.5-18.5 24.7-8.9 46.6-17.5 69.4-28.3 12.4-6.1 20.5-15.9 23.3-27.7 2.5-10.5.3-21.5-6-30-6.5-8.8-16.6-14.2-27.9-14.8-9.6-.6-19.5-.9-30-.9" style="fill:#231f20;fill-opacity:1;fill-rule:nonzero;stroke:none" transform="matrix(.0148 0 0 -.0148 -373.168 667.24)"/><path d="M31751.3 36172.1c-7.8-25.1-9.9-49.9-10.5-75.7-.6-25.7 2-51.6 5.7-77.3 8.1-51.6 24.1-101.8 44.4-149.5 5.2-11.8 10.5-23.6 16.1-35.3 5.8-11.4 12.1-22.6 18.3-33.8 12-22.8 27-43.2 41.2-64 14.7-20.3 31.1-39.1 47.4-57.6 17.3-17.5 35-34.3 53.9-49.4 5.9-4.6 13.3-3.4 16.7 2.8 2.1 3.9 2.1 8.9.3 13.1l-.3.9c-9.8 23.6-20.9 45.3-32.2 66.5-10.3 22-21.7 42.8-32.5 63.8-5.1 10.6-10.5 21-15.8 31.5-2.7 5.1-5.5 10.2-8.1 15.5-2.4 5.3-4.9 10.5-7.5 15.7-5 10.5-10.2 20.9-15.4 31.2-4.6 10.6-9.5 21.1-14.4 31.5-18.8 42.1-36.1 84.7-50.4 128.4-14.2 43.5-26.6 89.4-33.6 134.6l-.3 2c-1.2 7.6-7.4 13.3-13.8 12.8-4.4-.3-7.8-3.4-9.2-7.7" style="fill:#87d5ab;fill-opacity:1;fill-rule:nonzero;stroke:none" transform="matrix(.0148 0 0 -.0148 -373.168 667.24)"/><path d="M31766.6 36080.1c.4-16.9 2.2-35.5 5.4-57.3 7-45.2 21.4-93.4 42.5-143.1 5-11.3 10.2-22.9 15.7-34.4 5.3-10.3 11.3-21.1 17.3-31.9 9.6-18.1 20.5-33.9 32.1-50.7l8.1-11.7c13-17.8 28.1-35.2 42.9-52.1l-1 1.9c-7.5 15.9-15.1 30.5-22.6 44.6-3.3 6.5-6.7 13-10.1 19.4-4 8.5-7.9 16.1-11.8 23.7l-6.5 12.7c-2 3.7-4 7.4-5.8 11.2-2.6 5.6-5 10.6-7.5 15.6-5 10.6-10.1 20.7-15.2 30.9l-.7 1.4c-4.5 10.4-9.3 20.6-14.1 30.8-21.6 48.3-38.4 91.1-51.6 131.3-6.5 20.1-12.2 39.3-17.1 57.7m208.7-479.1c-8.3 0-16.6 2.9-23.5 8.4-17.5 13.9-35.3 30.3-56.2 51.5l-1 1.1c-16.4 18.7-33.4 38-48.9 59.5l-8.3 12c-12 17.2-24.4 35.1-34.8 55-6.3 11.1-12.6 22.5-18.5 34.1-6 12.5-11.4 24.6-16.7 36.6-23 54-38.5 106.3-46.3 155.9-4.7 32-6.6 58-6 82 .6 24.1 2.4 52.9 11.7 82.7v.1c4.6 14.4 17.1 24.5 31.8 25.6 20 1.5 37.9-13.7 41.1-34.6l.3-2c6.1-39.1 16.7-81.8 32.6-130.5 12.6-38.5 28.8-79.7 49.5-125.9 4.7-10 9.5-20.5 14.2-31 5.2-10.3 10.4-20.6 15.3-31.1 2.6-5.2 5.2-10.7 7.7-16.2 1.3-2.6 2.9-5.6 4.6-8.7l7-13.6c4.1-8 8.2-16.1 12.1-24.3 3-5.7 6.3-12 9.6-18.4 7.7-14.6 15.6-29.7 23-45.5 12.4-23.3 23-44.3 32.6-67.5 5.2-12.7 4.6-25.5-1.1-36.1-5.2-9.6-14.2-16.3-24.6-18.4-2.4-.5-4.8-.7-7.2-.7" style="fill:#231f20;fill-opacity:1;fill-rule:nonzero;stroke:none" transform="matrix(.0148 0 0 -.0148 -373.168 667.24)"/><path d="M32382.4 36473.9c20.1 19.6 42.2 32.5 65.7 44.3s48.2 20 73.3 26.9c50.4 13.2 102.5 17.1 153.9 15.1 12.8-.7 25.6-1.5 38.4-2.7 12.7-1.5 25.3-3.7 37.9-5.8 25.4-3.5 49.7-11.4 74.1-18.2 24.1-7.6 47.4-17.8 70.5-27.9 22.5-11.6 44.5-24.1 65.4-38.6 6.4-4.5 8-13.3 3.5-19.7-2.8-4-7.3-6.1-11.9-6h-1c-25.3.7-49.3 3.7-73 7.1-24 2-47.4 5.7-70.7 8.6-11.7 1.1-23.2 2.6-34.8 4-5.7.8-11.5 1.8-17.2 2.3-5.8.4-11.6 1-17.3 1.6-11.5 1-23 2.4-34.4 3.7-11.5.6-22.9 1.5-34.3 2.4-45.7 2.8-91.2 3.7-136.8.8-45.2-3-92-9-136.1-20.7l-2-.5c-7.4-1.9-15 2.5-16.9 9.9-1.4 5 .2 10.1 3.7 13.4" style="fill:#87d5ab;fill-opacity:1;fill-rule:nonzero;stroke:none" transform="matrix(.0148 0 0 -.0148 -373.168 667.24)"/><path d="M32592.4 36499.3c25 0 51.4-.9 79.7-2.6 11.7-1 22.8-1.9 33.9-2.4l1.9-.1c11.2-1.4 22.4-2.7 33.6-3.7 5.7-.6 11.2-1.1 16.7-1.5 4.8-.5 8.9-1.1 13.1-1.7l13.9-1.8c8.5-1 17-2.1 25.6-2.9 8.2-1 15.4-1.9 22.7-2.9 15.6-2.2 31.8-4.3 47.8-5.7l1.5-.1c8.5-1.2 16.5-2.3 24.3-3.3-6.9 3.9-14.2 7.8-22 11.8-21.9 9.6-44.6 19.5-67.2 26.6l-13 3.7c-19.6 5.6-38 10.9-56.8 13.5-13 2.2-25.2 4.3-37.6 5.8-11.6 1.1-24.2 1.8-36.7 2.5-52.7 2.1-101.9-2.7-145.9-14.3-27.6-7.5-49.3-15.5-68.2-25-4.8-2.4-9.7-4.9-14.7-7.6 26.8 4.5 55.6 7.8 87 9.9 19.3 1.2 39.4 1.8 60.4 1.8m361.1-83.7h-.8c-26.1.7-49.3 3.4-76.4 7.3-17.1 1.4-33.7 3.6-49.7 5.8-7.1 1-14.2 1.9-21.2 2.8-8.3.8-17.5 1.9-26.5 3l-15.1 2c-3.3.5-6.5 1-9.8 1.3-5.3.3-11.4.9-17.4 1.5-11.2 1-22.6 2.3-34 3.7-11.4.6-22.8 1.5-34.2 2.4-49.3 3-93 3.3-133.1.7-50.3-3.3-93.2-9.8-131.2-19.8l-1.9-.5c-21.2-5.6-42.8 7-48.4 28.1-3.7 13.7.4 28.5 10.7 38.5 23.9 23.2 49.9 37.7 72.2 48.8 21.9 11 46.7 20.2 77.9 28.7 49.2 12.9 103.4 18.3 161.7 16 13.5-.8 26.6-1.6 39.7-2.8 13.9-1.7 26.9-3.9 39.9-6.1 21.7-2.9 42.8-9 63.2-14.9l13.5-3.8c26.3-8.3 50.5-18.9 73.9-29.1l1.5-.7c27.3-14.1 49-27 68.3-40.4 8.7-6.1 14.6-15.2 16.4-25.7 1.9-10.5-.4-21-6.5-29.8-7.5-10.7-19.6-17-32.7-17" style="fill:#231f20;fill-opacity:1;fill-rule:nonzero;stroke:none" transform="matrix(.0148 0 0 -.0148 -373.168 667.24)"/><path d="M32219.8 36411c69.6-.8 137.8-2.7 205.4-10.6 67.5-7.5 134.7-18.7 202.7-37.7 16.9-3.8 33.9-9.8 50.9-15.3 17.1-5.7 34.3-9.8 51.3-17.3l51.5-19.5c17.2-7.1 34.1-15.5 51.6-22.8 17.4-7.5 35-14.9 52-24.3 17.3-8.8 34.7-17.6 52.6-26.1 35.2-18.1 69.6-38.8 107.4-57.1l2.4-1.2c11.4-5.5 22.8-3.3 25.3 5.1 1.8 5.5-.9 12.4-6.2 18-14.4 15-29.6 29.8-45.1 44.4-7.7 7.4-15.5 14.8-23.5 22-7.8 7.4-15.9 14.6-24.7 21-17.1 13.4-34.7 26.6-52.4 39.7-8.9 6.4-17.6 13.5-26.9 19.4l-28.4 17.4c-19 11.6-38.1 23.3-57.6 34.2l-60.2 29.2c-20.1 10-40.8 17.4-61.4 25.1-20.7 7.4-41.4 16-62.1 21-83.2 25.5-166.2 35.6-240.9 31.1-18.7-.9-36.5-3.8-54.4-6.2-17.4-3.4-34.4-7.2-50.6-12.1-32.3-10.3-61.5-23.4-85.9-44-6.8-5.7-4.4-17 5.3-25.4 5.9-5 13.2-7.8 19.4-7.9z" style="fill:#389f9f;fill-opacity:1;fill-rule:nonzero;stroke:none" transform="matrix(.0148 0 0 -.0148 -373.168 667.24)"/><path d="m32739.8 36353.9 50.9-19.3c10.1-4.1 19.4-8.3 28.7-12.6 7.9-3.6 15.7-7.2 23.7-10.5l3.2-1.4c16.7-7.2 34.1-14.6 51.3-24.1 16.3-8.3 33.6-17 51.3-25.4 15.8-8.1 30.8-16.4 45.9-24.7l1.8-1c-5.2 5-10.4 9.9-15.8 14.7-6.2 5.9-14.1 13.1-22.5 19.3-17.7 13.7-35 26.8-52.6 39.8-2.9 2-6.1 4.5-9.4 6.9-5.2 3.9-10.5 7.8-16 11.3l-28.1 17.3c-18.8 11.5-37.3 22.8-56 33.3l-59.5 28.8c-16.9 8.5-34.1 14.9-52.2 21.6l-7 2.6c-4.8 1.8-10 3.7-15.1 5.6-15.3 5.7-29.8 11.1-44 14.4l-1.6.5c-78.5 24.1-158.5 34.5-231.7 30-14.2-.7-27.7-2.5-41.9-4.5l-9.9-1.4c-18.9-3.7-34-7.3-47.3-11.3-24.5-7.8-44.3-16.6-60.6-27.1 65.2-.8 134.7-2.8 202.8-10.8 77.4-8.5 142.9-20.7 205.9-38.3 14.4-3.2 28.4-7.8 42-12.3l10.6-3.4c5.6-1.9 10.8-3.5 16.1-5.1 11.9-3.6 24.3-7.4 37-12.9m320-203.5c-7.7 0-15.7 1.8-23.4 5.6l-2.4 1.1c-22.4 10.9-43.5 22.5-63.9 33.7-14.8 8.2-29.3 16.2-44.1 23.7-17.4 8.3-35 17.2-52.5 26.1-15.7 8.6-31.1 15.2-47.5 22.3l-3 1.2c-8.3 3.5-16.6 7.3-24.9 11.1-8.8 4-17.5 8-26.2 11.6l-52.3 19.8c-10 4.4-20.6 7.6-31.8 11-5.7 1.8-11.4 3.5-17.1 5.4l-10.6 3.5c-13.2 4.3-25.6 8.4-37.8 11l-1.4.4c-60.4 16.9-123.5 28.6-198.5 36.9-67.8 8-137.6 9.8-202.9 10.5l-2.4.1c-12.7.2-25.8 5.4-36 14.1-11.5 10-18.1 23.3-18 36.5 0 11.1 4.6 21.1 12.9 28.1 24.4 20.5 54.4 36 94.8 48.8 15.5 4.7 32.4 8.8 53.5 12.8l11.7 1.7c14.8 2 30 4.2 46.3 5 78.6 4.7 164.8-6.3 248.8-32 17-4.1 33.4-10.2 49.3-16.1 4.9-1.9 9.8-3.7 14.7-5.5l7.3-2.7c18.6-6.9 37.9-14.1 57-23.7l61.2-29.7c19.8-11.1 39-22.7 58.5-34.7l28.4-17.4c7-4.4 13.3-9.1 19.6-13.8 2.9-2.2 5.9-4.4 8.8-6.5 18.3-13.6 36.1-26.9 53.4-40.4 10.1-7.4 19.5-16 26.5-22.6 7.7-7 15.7-14.6 23.6-22.1 18.1-17.1 32.7-31.5 45.9-45.2 12.2-12.8 16.7-29.1 12.2-43.5-3.2-10.3-10.5-18.4-20.6-22.7-5.3-2.3-11.1-3.4-17.1-3.4" style="fill:#231f20;fill-opacity:1;fill-rule:nonzero;stroke:none" transform="matrix(.0148 0 0 -.0148 -373.168 667.24)"/><path d="M32462.2 36485.4c2.3-28.1 10.3-52.9 20.4-77.9 9.8-25 23.1-48.3 37.5-70.9 29.3-45 66.1-84.4 106.3-119.1 10.1-8.5 20.3-17 30.8-25.2 10.6-7.8 21.5-15.2 32.5-22.5 21.5-15.4 45-26.8 68-39.1 23.3-11.6 47.7-20.7 71.8-29.7 24.7-7.5 49.6-14.1 75-18.4 7.8-1.3 14.8 3.9 15.7 11.6.5 4.9-1.5 9.6-5 12.8l-.8.6c-19.6 17.3-39.7 32.1-59.9 46.4-19.5 15.5-39.6 29.2-59.1 43.5-9.5 7.5-19.3 14.5-28.9 21.7-4.9 3.5-9.9 6.8-14.6 10.5-4.6 3.8-9.4 7.4-14.1 11-9.4 7.4-18.9 14.5-28.5 21.6-9 7.6-18.2 15-27.5 22.4-36.3 30.1-71.3 61.6-103.9 95.7-32.1 34-63.5 71.3-89.2 110.7l-1.1 1.8c-4.3 6.6-13 8.8-19.3 4.8-4.3-2.6-6.5-7.4-6.1-12.3" style="fill:#87d5ab;fill-opacity:1;fill-rule:nonzero;stroke:none" transform="matrix(.0148 0 0 -.0148 -373.168 667.24)"/><path d="M32837.7 36125.4c7.3-2.3 14.3-4.3 21-6.1-6.1 4.4-12.4 9-19 13.7l-1.2.9c-13 10.3-26.7 20.1-39.9 29.6-6.2 4.4-12.3 8.8-18.4 13.3-7.7 6-14.9 11.3-22.1 16.6l-11.6 8.4c-3.5 2.5-7 4.9-10.4 7.6-4.9 4-9.4 7.5-13.9 10.9-9.4 7.4-18.8 14.4-28.1 21.3l-1.4 1.1c-8.8 7.5-17.8 14.7-26.9 21.9-41.8 34.6-76.5 66.6-106.5 98.1-21.6 22.9-40.7 44.8-57.5 66.1 1.5-4 3.1-7.9 4.6-11.8 8.1-20.3 19.3-41.4 35.3-66.6 25.6-39.2 59.8-77.4 101.5-113.5 9.6-8 19.6-16.4 29.8-24.4 9.7-7.1 20.3-14.2 30.9-21.3 16.8-11.9 34.3-21.2 52.8-30.9l13.1-6.9c21.3-10.6 44.9-19.4 67.9-28m69.1-68.7q-3.3 0-6.6.6c-23.5 3.9-48.3 10-78.2 19.1l-1.6.5c-24.4 9.2-49.6 18.6-74.1 30.8l-13.5 7.1c-19.2 10.1-39.2 20.6-58.1 34.1-10.7 7.1-21.9 14.7-32.7 22.7-11.3 8.8-21.7 17.5-32.1 26.1-45.7 39.5-83 81.4-111.4 124.8-18 28.3-30.6 52.2-39.8 75.5-9.4 23.4-19.4 52-22.1 85.4-1.2 14.7 5.8 28.6 18.2 36.2 18.1 11.2 42.5 5.5 54.3-12.7l1.2-1.8c22.1-34 50.3-69 86.3-107 28.5-29.9 61.8-60.6 101.6-93.6 8.9-7.1 18.1-14.4 27.1-22.1 9.5-7 19-14.1 28.4-21.4 4.7-3.7 9.6-7.5 14.5-11.5 2.1-1.6 5-3.6 7.8-5.6l12.5-9.1c7.7-5.6 15.3-11.2 22.8-17.1 5.3-3.8 11.2-8.1 17.2-12.4 13.6-9.7 27.7-19.8 41.5-30.8 22.9-16.3 42.2-30.6 61.4-47.6 10.8-9.6 15.8-22.6 14.3-35.6-1.2-10.6-6.7-20.3-15.2-26.7-6.8-5.1-15.2-7.9-23.7-7.9" style="fill:#231f20;fill-opacity:1;fill-rule:nonzero;stroke:none" transform="matrix(.0148 0 0 -.0148 -373.168 667.24)"/><path d="M31163.8 36461.5c9.8-26.3 24.2-47.5 40.4-68.2 16-20.7 34.8-38.9 54.5-55.9 39.8-33.6 85.2-59.5 132.5-79.7 11.8-4.9 23.8-9.7 35.8-14.2 12.1-4 24.4-7.5 36.7-11 24.4-7.8 49.7-11.1 74.7-15.4 25.1-3.6 50.5-4.4 75.7-5.2 25.3.8 50.5 2.6 75.6 6.7 7.7 1.3 12.9 8.6 11.7 16.3-.8 4.8-4 8.7-8.2 10.6l-.9.4c-23.1 10.2-46.1 17.8-69 25-22.5 8.5-45.2 15.2-67.5 22.6-11 4-22.1 7.6-33.1 11.3-5.5 1.8-11.1 3.4-16.6 5.4q-8.1 3.15-16.2 6c-10.9 4-21.8 7.7-32.7 11.4-10.6 4.5-21.3 8.5-32 12.6-42.4 17.1-83.9 35.9-123.8 58.1-39.5 22.2-79.2 47.7-114.1 77.2l-1.5 1.4c-5.9 4.9-14.6 4.2-19.5-1.7-3.4-3.9-4.1-9.2-2.5-13.7" style="fill:#87d5ab;fill-opacity:1;fill-rule:nonzero;stroke:none" transform="matrix(.0148 0 0 -.0148 -373.168 667.24)"/><path d="m31169.2 36457.2.1-.1zm45.3-35c3.3-4.5 6.6-8.9 9.9-13.1 13.1-16.8 29.3-33.4 51.1-52.2 34.5-29.1 76.9-54.6 125.8-75.6 11.2-4.6 22.9-9.3 34.6-13.7 10.8-3.6 22.6-6.9 34.4-10.3 19.3-6.1 38.3-9.2 58.4-12.5l14.1-2.4c22.7-3.2 47.4-4 71.3-4.8 8.7.3 17 .7 24.8 1.2-7.4 2.5-15.1 5-23.2 7.5l-1.5.5c-15 5.7-30.5 10.7-45.5 15.5-7 2.2-14 4.5-21 6.8-8.8 3.2-16.9 5.9-25 8.6l-13.5 4.4c-4 1.2-8 2.5-11.9 3.9-5.8 2.3-10.9 4.2-16.1 6-10.9 4-21.5 7.7-32.2 11.2l-1.8.7c-10.2 4.3-20.7 8.3-31.1 12.3-48.9 19.6-90.3 39.1-127.2 59.7-27.6 15.4-52.2 30.7-74.4 46.3m399.6-236h-.9c-25.5.8-51.9 1.7-78.4 5.4l-14.5 2.4c-21 3.5-42.7 7.1-64.4 14-12.2 3.4-24.7 7-37 11.1-13.1 4.9-25.3 9.8-37.5 14.7-53.9 23.2-100.7 51.4-139.3 84-24.7 21.3-43.1 40.2-58.2 59.7-15.3 19.5-32.5 43.7-44.1 75h-.1c-4.9 13.4-2.3 28.5 7 39.4 14 16.6 39 18.7 55.7 4.6l1.5-1.3c30-25.4 66-49.7 110-74.4 35-19.5 74.6-38.1 120.9-56.8 10.2-3.8 20.9-7.9 31.5-12.3 10.8-3.7 21.7-7.4 32.5-11.4 5.4-1.9 11.1-4 16.8-6.2 2.4-.9 5.5-1.9 8.7-2.8l14.7-4.8c8.6-2.9 17.2-5.7 25.8-8.9 5.9-2 12.7-4.2 19.5-6.3 15.5-5 31.4-10.1 47.4-16.1 26.2-8.2 48.3-15.7 71-25.8 13.2-6 21.8-17.1 24-30.2 3.6-21.8-11.1-42.3-32.8-45.9-23.2-3.9-48.3-6.1-79-7.1z" style="fill:#231f20;fill-opacity:1;fill-rule:nonzero;stroke:none" transform="matrix(.0148 0 0 -.0148 -373.168 667.24)"/><path d="M32240.5 36602.1c-28.2 21.1-54.4 45.2-80 70.3q-38.4 37.8-74.7 79.2c-24.1 27.8-48 56.3-71.1 86.6-23.6 30.8-45.2 60.2-70.6 100.1-47 75.6-79.8 146.6-110.5 215.9-15.4 34.6-29.7 69.1-43.8 103.8s-28.1 69.6-41.1 106.2l-.3.6c-5.2 14.9-1.8 27 7.8 27 5.4 0 11.7-3.9 17-9.9 51.2-57.9 96.1-123.9 137.4-188.8 41.2-64.7 78.5-129.5 113.1-181.7 4.3-6.7 8.6-12.6 12.8-18.9 4.7-6.8 9.9-13.8 14.8-21 10-14.5 20.6-29 30.8-44.2 20.9-29.9 41.5-61.1 61.9-92.8 40.4-64 80.1-130.1 114.3-204.8 7-15.1 5.4-29.4-3.5-31.9-4.2-1.1-9.2.6-14.1 4.2z" style="fill:#87d5ab;fill-opacity:1;fill-rule:nonzero;stroke:none" transform="matrix(.0148 0 0 -.0148 -373.168 667.24)"/><path d="M31794.1 37316.2q9.9-25.05 19.5-48.6c13.3-32.6 27.8-67.7 43.5-103 29.3-66.2 61.9-137.2 108.8-212.7 24-37.7 45-66.5 69.2-98 25-32.8 50.6-62.9 70.1-85.5 23.6-26.9 48.3-53.1 73.3-77.7 12.1-11.9 25.6-24.8 40.1-37.5-30.2 60.7-63.9 116.1-96.4 167.6-17.7 27.5-39 60.1-61.1 91.8-6.4 9.3-12.5 18.1-18.7 26.7-4.1 5.9-8.2 11.8-12.3 17.6-3.1 4.6-6.1 8.9-9.1 13l-10.6 15.2c-2.8 4-5.6 8.1-8.4 12.5-19.3 29.1-39.5 62.2-60.9 97.3-16.8 27.6-34.1 56-52.2 84.4-25.7 40.5-58 89.6-94.8 136.9m462-693.6h.1zm-4.1-50.8c-9 0-18.2 3.2-26.7 9.6l-.2.1c-31.3 23.4-59.3 49.7-82.6 72.5-26 25.6-51.6 52.7-76.1 80.7-20.1 23.2-46.4 54.1-72.1 87.9-25 32.6-46.8 62.4-71.9 101.9-48.8 78.6-82.2 151.4-112.3 219.2-15.9 35.9-30.6 71.5-44.1 104.5-13.7 33.6-28.1 69.5-41.5 107.3-6.5 18.3-5.3 35.2 3.1 47.2 6.6 9.4 17 14.8 28.6 14.8 12.8-.1 25.6-6.6 36.2-18.5 56-63.3 104.2-135.9 139.9-192.1 18.3-28.8 35.8-57.5 52.7-85.2 21.1-34.7 41.1-67.4 60.1-96.1 2.8-4.3 5.2-7.8 7.6-11.3 1.8-2.5 3.5-5 5.2-7.6l4.8-6.8c3.3-4.6 6.7-9.3 9.9-14 3.8-5.5 7.8-11.2 11.8-16.9 6.4-9 12.7-18 19-27.3 22.4-32 44-65.1 62.2-93.3 39.5-62.6 80.8-131 116.1-208 7.9-17.1 8.8-34.6 2.6-47.9-4.6-9.8-12.7-16.7-22.7-19.5q-4.8-1.2-9.6-1.2" style="fill:#231f20;fill-opacity:1;fill-rule:nonzero;stroke:none" transform="matrix(.0148 0 0 -.0148 -373.168 667.24)"/><path d="M32200.5 35962.2c-10.4 28.4-17.4 57.7-23.4 87.4-5.9 29.8-10.6 59.9-13.9 90.5-3.2 30.6-5.8 61.5-6.7 93.3-1.1 32.2-1.3 62.6 1.5 101.7 6.4 73.5 21.4 136.6 37.1 197.4 7.9 30.4 16.5 60.2 25.4 90.1 8.9 29.8 18.1 59.7 28.9 90.1l.2.5c4.5 12.4 14.3 18.4 22.1 13.3 4.3-2.8 7.1-8.6 7.9-15.3 7.4-64.3 5.1-130.5.4-194.1-4.6-63.4-12.4-124.9-15-176.8-.5-6.6-.4-12.6-.8-18.9-.1-6.9 0-14.1-.3-21.3-.4-14.7-.3-29.6-1-44.8-.6-30.3-2.3-61.2-4.3-92.4-4.9-62.6-11.5-126.1-27.5-192.3-3.3-13.5-12.9-21.8-21.5-18.7-4.1 1.5-7.2 5.2-9 10.1z" style="fill:#389f9f;fill-opacity:1;fill-rule:nonzero;stroke:none" transform="matrix(.0148 0 0 -.0148 -373.168 667.24)"/><path d="m32249.6 36713.2 23.2-8.8 1.6 1.4zm8.3-56.1c-4.5-14.3-8.7-28.3-12.8-41.9-8.3-28.1-17.1-58.4-25.1-89.1-14.9-57.8-30.1-120.3-36.4-193.2-2.6-36.6-2.5-66-1.4-98.7.7-26.9 2.7-55.1 6.5-91.5 3.3-29.5 7.8-59.2 13.6-88.1 2.9-14.3 6.4-30.2 10.7-46.5 10.9 54.3 16.1 107.2 19.9 156.8 1.8 27 3.7 59.2 4.3 90.9.4 9.7.6 18.6.7 27.5.1 5.9.2 11.7.3 17.5.2 4.7.2 9 .3 13.3l.3 15.2q.15 6.3.6 12.9c1.4 28.9 4.5 61 7.8 95 2.5 26.5 5.2 54 7.2 81.8 2.9 39.6 5.6 88.3 3.5 138.1m-33-686.7h.1zm-11.6-44.9c-4.2 0-8.4.8-12.5 2.2-11.1 4-19.7 13-24.3 25.4l-.1.2c-11.8 32-19 64-24.5 91.2-6.1 30.4-10.9 61.6-14.3 92.8-3.9 37.8-6 67.2-6.8 95.3-1.1 34.3-1.3 65.2 1.6 104.4 6.7 77.1 22.3 142.1 37.8 202 8.2 31.4 17.1 62.3 25.6 90.9 8.7 28.9 18.1 59.7 29.4 91.4 5.5 15.4 15.9 26.4 28.7 30.8 10.8 3.6 22.3 2.1 31.8-4 10.6-6.9 17.7-19.2 19.4-33.9 8.2-70.9 4.6-143.6.6-199-2.1-28.3-4.8-56.1-7.4-83-3.2-33.3-6.2-64.8-7.6-93.1-.3-4.3-.4-7.8-.5-11.2-.1-2.6-.2-5.1-.3-7.7v-6.5c0-4.8-.1-9.8-.3-14.7-.1-5.2-.2-10.8-.3-16.5-.1-9.3-.3-18.7-.7-28.2-.6-32.2-2.5-65.2-4.4-93.1-4.8-61.6-11.5-127.8-28.1-196.7-3.8-15.4-12.8-27.9-24.8-34.3-5.7-3.1-11.9-4.7-18-4.7" style="fill:#231f20;fill-opacity:1;fill-rule:nonzero;stroke:none" transform="matrix(.0148 0 0 -.0148 -373.168 667.24)"/><path d="M31799.1 36369.5c-250.5 86.4-327.3 419-130.8 596.7 134.6 121.9 335.5 165.7 491.6 15 198.9-192.1 118.9-553.7-168.7-622.3-72-17.2-133.7-9.5-192.1 10.6" style="fill:#423e95;fill-opacity:1;fill-rule:nonzero;stroke:none" transform="matrix(.0148 0 0 -.0148 -373.168 667.24)"/><path d="M31807.4 36393.8c61.3-21.1 117.8-24.3 177.8-9.9 121 28.8 213 118.3 246.1 239.4 33.8 123.5-.4 253.6-89.2 339.4-146.9 141.8-335.1 94.4-456.6-15.5-83.1-75.3-118.9-188.1-95.6-301.9 24.3-118.9 105.6-212.9 217.5-251.5m105.5-70.2c-40.2 0-80.3 7.2-122.2 21.6-129.3 44.6-223.2 152.9-251.2 289.8-26.9 131.8 14.7 262.7 111.5 350.3 139.2 126 356.1 179.2 526.8 14.4 102.3-98.9 141.8-248.3 103.1-390-38.1-139.4-144.2-242.6-283.7-275.9-28.6-6.8-56.5-10.2-84.3-10.2" style="fill:#231f20;fill-opacity:1;fill-rule:nonzero;stroke:none" transform="matrix(.0148 0 0 -.0148 -373.168 667.24)"/><path d="M32027.5 36782.1c0-100.8-81.7-182.6-182.5-182.6-100.9 0-182.6 81.8-182.6 182.6 0 100.9 81.7 182.6 182.6 182.6 100.8 0 182.5-81.7 182.5-182.6" style="fill:#5e56a7;fill-opacity:1;fill-rule:nonzero;stroke:none" transform="matrix(.0148 0 0 -.0148 -373.168 667.24)"/><path d="m31872.6 36738.6-33.2 27.5c-58.7 48.9-162.8 43.5-163.9 43.4-14.2-.7-26.3 10.1-27.1 24.2-.8 14.2 10 26.4 24.2 27.2 4.4.2 96.2 4.9 168.8-34.5 16.2 42.2 53.6 110.8 133.6 143.9 13.1 5.5 28.1-.8 33.6-13.9 5.4-13.1-.8-28.1-13.9-33.6-91.7-38-113.4-140.9-113.6-141.9z" style="fill:#231f20;fill-opacity:1;fill-rule:nonzero;stroke:none" transform="matrix(.0148 0 0 -.0148 -373.168 667.24)"/><path d="M31922.6 36633.4c-3.8 0-7.6.9-11.3 2.6-2.8 1.4-70 35.5-81.3 134.9-1.6 14.1 8.5 26.8 22.6 28.4 14.2 1.7 26.9-8.5 28.5-22.6 8-70.3 51.3-93.7 53.2-94.7 12.4-6.5 17.5-21.9 11.1-34.4-4.5-9-13.5-14.2-22.8-14.2" style="fill:#231f20;fill-opacity:1;fill-rule:nonzero;stroke:none" transform="matrix(.0148 0 0 -.0148 -373.168 667.24)"/><path d="M32745.8 36603.4c73.7-254.5-154-508.8-412.4-450.7-177.2 39.9-328.7 178.9-295.4 393.3 42.4 273.2 384.1 416.2 605.8 220.6 55.6-49 84.8-103.8 102-163.2" style="fill:#5e56a7;fill-opacity:1;fill-rule:nonzero;stroke:none" transform="matrix(.0148 0 0 -.0148 -373.168 667.24)"/><path d="M32406.7 36831.4c-39 0-78.6-6.9-117.3-20.9-120.4-43.5-207-146.4-226-268.4-31.4-201.7 115.8-328.3 275.6-364.3 109.4-24.5 222.3 11.2 301.9 95.7 83.1 88.4 113.1 209 80.2 322.7-18 62.3-47.9 110.3-94.2 151.1-62.7 55.3-140.2 84.1-220.2 84.1m.9-712.6c-26.5 0-53.3 2.9-79.9 8.9-183.1 41.2-351.6 187.7-315.1 422.3 21.8 140.6 121.2 258.9 259.3 308.9 136 49.1 281.4 21.9 389-73 53.9-47.6 88.8-103.3 109.6-175.4 38-131.3 3.6-270.5-92.2-372.2-72.9-77.5-170.2-119.5-270.7-119.5" style="fill:#231f20;fill-opacity:1;fill-rule:nonzero;stroke:none" transform="matrix(.0148 0 0 -.0148 -373.168 667.24)"/><path d="M32509.2 36564.6c0-100.8-81.7-182.6-182.5-182.6-100.9 0-182.6 81.8-182.6 182.6s81.7 182.6 182.6 182.6c100.8 0 182.5-81.8 182.5-182.6" style="fill:#6961ae;fill-opacity:1;fill-rule:nonzero;stroke:none" transform="matrix(.0148 0 0 -.0148 -373.168 667.24)"/><path d="M32513.1 36439.2h-.6c-14.1.3-25.4 12-25.1 26.2 2 93.4-77.5 110.9-86.6 112.6l-69.9 13.1 62 34.7c71.3 39.7 61.6 117 61.1 120.3-1.9 14 7.8 27 21.8 29s27-7.6 29.1-21.6c.6-3.9 11.5-83.4-47-142.6 40.9-22.8 82.6-68.1 80.9-146.6-.3-14-11.7-25.1-25.7-25.1" style="fill:#231f20;fill-opacity:1;fill-rule:nonzero;stroke:none" transform="matrix(.0148 0 0 -.0148 -373.168 667.24)"/><path d="M32217.9 36535c-6.8 0-13.6 2.7-18.6 8-9.8 10.2-9.4 26.5.8 36.3 3.6 3.4 88.6 83.1 198.9 54.3 13.7-3.6 22-17.6 18.4-31.3-3.6-13.8-17.5-22-31.4-18.4-82.7 21.5-149.7-41.2-150.4-41.8-4.9-4.7-11.3-7.1-17.7-7.1" style="fill:#231f20;fill-opacity:1;fill-rule:nonzero;stroke:none" transform="matrix(.0148 0 0 -.0148 -373.168 667.24)"/><path d="M32163.1 36273.2c73.7-254.5-153.9-508.8-412.4-450.6-177.2 39.8-328.7 178.8-295.4 393.2 42.5 273.2 384.1 416.2 605.9 220.6 55.5-49 84.7-103.8 101.9-163.2" style="fill:#6961ae;fill-opacity:1;fill-rule:nonzero;stroke:none" transform="matrix(.0148 0 0 -.0148 -373.168 667.24)"/><path d="M31824 36501.2c-39 0-78.6-6.8-117.3-20.8-120.4-43.6-207-146.5-226-268.5-31.4-201.7 115.8-328.3 275.6-364.3 109.5-24.6 222.3 11.2 301.9 95.7 83.2 88.4 113.1 209 80.2 322.7-18 62.3-47.9 110.3-94.2 151.1-62.7 55.3-140.2 84.1-220.2 84.1m.9-712.6c-26.5 0-53.2 2.9-79.8 8.9-183.2 41.2-351.7 187.8-315.2 422.3 21.9 140.6 121.2 259 259.3 308.9 136 49.2 281.4 21.9 389-73 53.9-47.6 88.8-103.3 109.6-175.4 38-131.3 3.6-270.5-92.2-372.2-72.9-77.5-170.2-119.5-270.7-119.5" style="fill:#231f20;fill-opacity:1;fill-rule:nonzero;stroke:none" transform="matrix(.0148 0 0 -.0148 -373.168 667.24)"/><path d="M31926.6 36183.9c0-100.8-81.8-182.6-182.6-182.6-100.9 0-182.6 81.8-182.6 182.6s81.7 182.6 182.6 182.6c100.8 0 182.6-81.8 182.6-182.6" style="fill:#887fbf;fill-opacity:1;fill-rule:nonzero;stroke:none" transform="matrix(.0148 0 0 -.0148 -373.168 667.24)"/><path d="m31734.5 36154.7 3.3 42.8c7 91.8-46.8 189.1-47.3 190.1-7 12.3-2.5 28 9.8 34.9 12.4 7 28 2.6 35-9.8 2.2-3.9 48.7-87.6 54-181.1 44.1 12.4 121.9 25.1 197.8-7.2 13.1-5.6 19.2-20.7 13.6-33.7-5.5-13.1-20.6-19.2-33.7-13.6-91.6 38.9-192.2-4.6-193.1-5z" style="fill:#231f20;fill-opacity:1;fill-rule:nonzero;stroke:none" transform="matrix(.0148 0 0 -.0148 -373.168 667.24)"/><path d="M31718.1 35986c-10.4 0-20.1 6.3-24 16.5-2 5.2-46.8 126.2 40.5 204.4 10.6 9.5 26.8 8.6 36.3-2 9.5-10.5 8.6-26.8-2-36.3-61.2-54.9-27.2-146.8-26.8-147.8 5.1-13.2-1.6-28.1-14.9-33.1-3-1.2-6.1-1.7-9.1-1.7" style="fill:#231f20;fill-opacity:1;fill-rule:nonzero;stroke:none" transform="matrix(.0148 0 0 -.0148 -373.168 667.24)"/><path d="M31512.4 32166.1c9.1 0 18.1-.1 27.1-.2 154.3-1.3 315.6-10.1 486.4-19.3 637.5-34.6 1296.7-70.3 1671.1 267 183.2 165.1 280.2 403.6 296.5 729.2 37.1 740.6 22.8 1504.1 8.9 2242.4-2.6 140.6-5.2 280.8-7.5 420.6-9.3 567.6-4.8 1142.9-.5 1699.4 3.3 425.4 6.7 865.4 4 1298.7-.9 139.4 8 294 17.5 457.8 22 378.9 46.8 808.2-55.9 1118.1-92.5 279.2-383.9 404.3-665.8 525.4-311.8 133.9-634.1 272.3-634.1 625.5 0 210.3 5.9 433.4 11.6 649.1 6.9 257.6 14 524 11.4 777.6-1.9 186.4-22.6 283.6-69.2 325.1-50.2 44.8-143.7 34.8-285.1 19.7-94.3-10-211.7-22.5-353.8-22.7h-3.6c-144.7 0-262.7 11.7-357.7 21.1-139.9 14-232.2 23.1-278.7-19.7-43.5-40.2-59.8-133.5-56.3-322.1 1.7-93.5 4.5-189.7 7.5-291.6 11.1-378.6 23.6-807.8-23.5-1144.6-58.5-417.7-333.1-487.6-623.9-561.5-201.7-51.4-410.3-104.4-561.3-279.8-225.8-262.4-203.4-674.9-183.7-1038.8 4.8-88.4 9.4-172 10.3-251.1 5.2-421.1 4-849.4 2.9-1263.6-1.4-487.1-2.7-990.8 6.2-1485.8 8.4-471.3 2.1-950.7-3.9-1414.3-5.4-410.5-11-835-6.3-1252.2 1.2-109.5-6.1-237-13.9-372-20.1-347.5-42.9-741.2 70.3-991.4 223.5-493.7 786.9-472.1 1284-453.1 94.1 3.6 183.6 7.1 269 7.1m1084.2-91.6c-191.5 0-386.2 10.6-573.4 20.7-170.3 9.2-331.1 17.9-484.2 19.3-92.3.8-190.1-2.9-293.7-6.8-513.3-19.7-1095-42-1332.7 483.2-118.5 261.7-95.3 662.2-74.9 1015.5 7.8 134.1 15.1 260.8 13.9 368.5-4.7 417.8.9 842.7 6.3 1253.5 6 463.2 12.3 942.2 3.8 1412.7-8.9 495.5-7.5 999.5-6.1 1486.8 1.1 414.1 2.3 842.2-2.9 1262.8-.9 78.1-5.4 161.2-10.2 249-20.3 373.6-43.3 797.1 196.1 1075.1 161.5 187.7 378.1 242.8 587.6 296.1 285.4 72.6 531.9 135.3 585.6 518.9 46.5 332.4 34 759.3 23 1135.9-3 102-5.8 198.3-7.5 292.2-3.9 207.6 16.5 308.8 72.9 360.8 63.4 58.5 164.9 48.4 318.6 33.1 94.6-9.4 212.7-21.4 356.1-20.9 139.4.2 255.3 12.5 348.5 22.5 155 16.5 257.4 27.4 324.7-32.5 60.1-53.5 84.3-155.2 86.4-363 2.6-254.5-4.5-521.4-11.4-779.5-5.7-215.3-11.6-438.1-11.6-647.7 0-319.3 292.9-445.1 603-578.3 292.3-125.5 594.6-255.3 694.3-556.5 105.8-319.1 80.7-753.7 58.5-1137.2-9.5-162.9-18.4-316.8-17.5-454.5 2.7-433.6-.7-873.8-4-1299.4-4.3-556.2-8.8-1131.2.5-1698.2 2.3-139.7 4.9-279.9 7.5-420.4 13.9-739.2 28.2-1503.6-8.9-2245.9-17.1-340-119.6-590.2-313.5-764.9-272-245-694.6-300.9-1134.8-300.9" style="fill:#231f20;fill-opacity:1;fill-rule:nonzero;stroke:none" transform="matrix(.0148 0 0 -.0148 -373.168 667.24)"/><path d="M32724.1 42854.6V42013s-191.7-129.1-700-124.9c-134.1 1.1-251.9 14-352.6 32.2-143.6 26.1-252.5 63.2-324.2 93.1-67.6 28.1-102.3 49.6-102.3 49.6l4.2 858.2 98.1-4.4 324.2-14.6z" style="fill:#423e95;fill-opacity:1;fill-rule:nonzero;stroke:none" transform="matrix(.0148 0 0 -.0148 -373.168 667.24)"/><path d="M31270.8 42077.9c15.1-8.3 44.2-23.3 86.3-40.8 65.2-27.1 173.4-65 319-91.5 111.3-20.1 228.5-30.8 348.2-31.8 8-.1 16-.1 23.8-.1 411.3 0 603.8 88.8 650.3 114v802.4l-1423.7 64.2zm777.5-215.6c-8.1 0-16.2 0-24.4.1-122.6 1-242.7 12-357 32.6-150.1 27.3-262.1 66.6-329.5 94.7-68.6 28.5-104.5 50.5-105.9 51.5l-12.3 7.6 4.4 899.3 1526.2-68.9v-879.9l-11.4-7.6c-7.9-5.4-197.9-129.4-690.1-129.4" style="fill:#231f20;fill-opacity:1;fill-rule:nonzero;stroke:none" transform="matrix(.0148 0 0 -.0148 -373.168 667.24)"/><path d="M31754.8 42884.8v-981.9c-143.5 26.2-252.5 63.3-324.2 93.1v903.4z" style="fill:#887fbf;fill-opacity:1;fill-rule:nonzero;stroke:none" transform="matrix(.0148 0 0 -.0148 -373.168 667.24)"/><path d="M31270.8 42077.9c58.1-31.6 321.3-160.6 753.6-164.1 7.9-.1 15.7-.2 23.4-.2 409.3 0 603.7 89 650.6 114.2v802.3l-1423.6 64.3zm777.5-215.6h-24.4c-505.9 4.2-781 171.8-792.4 178.9l-12.2 7.6.1 14.3 4.3 885.1 1526.1-69v-879.8l-11.3-7.7c-8-5.3-198-129.4-690.2-129.4" style="fill:#231f20;fill-opacity:1;fill-rule:nonzero;stroke:none" transform="matrix(.0148 0 0 -.0148 -373.168 667.24)"/><path d="m32817.2 43270.3-.7-233.5c0-131.6-87.7-246.6-214.3-282.9-315.7-90.3-636-105.3-960.5-49.9-80 13.5-160.2 31.4-240.8 53.5-22.9 6.3-44.5 15.2-64.6 26.3-92.6 50.7-153 148.4-153 257.5l3.8 224.7c0 34.7 6.5 69 18.8 101.4l-4.1 115.6-4.1 13.6c-4.8 17.3-7.5 35-7.7 53l-6.7 588.6h1633.2v-612.9c0-32.7-7.3-64.9-21.2-94.4l-.9-73.9 1.1-2.1c14.3-26 21.7-55.2 21.7-84.6" style="fill:#def4f0;fill-opacity:1;fill-rule:nonzero;stroke:none" transform="matrix(.0148 0 0 -.0148 -373.168 667.24)"/><path d="M31641.7 42704c-80 13.5-160.2 31.4-240.8 53.5-22.9 6.3-44.5 15.2-64.6 26.3l-33.1 1230.7 68.4 123.7 4.6 8.3 44.2-8.3 195.5-36.8z" style="fill:#fff;fill-opacity:1;fill-rule:nonzero;stroke:none" transform="matrix(.0148 0 0 -.0148 -373.168 667.24)"/><path d="M32011 43277.1c-398.8 0-732.6 84.3-804 192.4-1.4-25.7-.7-77.1 4.1-103.1 76.2-106.4 401.2-182.3 795.8-182.3 401.3 0 722.9 65.1 788.9 170.2 1.6 19.3-1.5 52.7-2.3 84.6-105.7-94-418.2-161.8-782.5-161.8" style="fill:#423e95;fill-opacity:1;fill-rule:nonzero;stroke:none" transform="matrix(.0148 0 0 -.0148 -373.168 667.24)"/><path d="M31235.5 43376.8c67.7-83.7 350.9-167 771.4-167 385.9 0 696.9 62.6 763.6 153.1.2 7.4-.1 16.9-.6 27.2-138.1-84.1-430.8-138.7-758.9-138.7-350.4 0-651 62.3-778.2 156.3.6-11.4 1.4-22.3 2.7-30.9m771.4-218.4c-405.8 0-734 77.5-816.7 193l-3.3 4.6-1 5.6c-5.3 28.5-6.1 81.8-4.6 109.3l4.2 77.6 42.9-64.9c58-87.6 351.9-180.8 782.6-180.8 347.9 0 662.7 63.9 765.5 155.3l41.4 36.9 1.3-55.5c.3-11.2.9-22.7 1.4-33.6 1.1-21.3 2-39.7.8-53.8l-.6-6.2-3.2-5.2c-84.4-134.4-474.1-182.3-810.7-182.3" style="fill:#231f20;fill-opacity:1;fill-rule:nonzero;stroke:none" transform="matrix(.0148 0 0 -.0148 -373.168 667.24)"/><path d="M32084.2 43002.6c-10.7 0-21.3.1-31.8.2-360.6 4.6-736 83.1-873 182.7l30.2 41.6c127.4-92.6 497.9-168.5 843.4-172.9 372.4-4.6 691.8 70.1 746 140.1l40.6-31.5c-78.8-101.9-439.6-160.2-755.4-160.2" style="fill:#231f20;fill-opacity:1;fill-rule:nonzero;stroke:none" transform="matrix(.0148 0 0 -.0148 -373.168 667.24)"/><path d="m31209.4 44112.4 6.3-562.5c.2-15.6 2.5-31.1 6.8-46.1l4.8-16.7 4.5-124-1.9-4.9c-11.3-29.5-17.1-60.6-17.2-92.3l-3.6-225c0-120 81.6-226.5 198.6-258.6 406.4-111.5 805.9-112.7 1187.4-3.6 115.2 32.9 195.7 139.1 195.7 258.2l.7 233.4c0 25.1-6.4 50.1-18.6 72.2l-4.4 8.1 1.2 86.3 2.4 5c12.2 25.9 18.7 54.7 18.7 83.4v587.1zm807.9-1466.1c-205 0-413.2 28.8-623.2 86.5-139.2 38.2-236.5 165-236.5 308.5l3.7 225.1c.1 35.9 6.4 71.3 18.7 105.2l-3.8 107.3-3.1 10.6c-5.6 19.4-8.6 39.6-8.8 59.8l-6.9 614.6h1684.8v-638.6c0-34.3-7.3-68.8-21.2-100.2l-.9-61.8c14.9-28.6 22.8-60.8 22.8-93.1l-.7-233.4c0-141.8-95.8-268.3-233-307.5-193.3-55.3-391-83-591.9-83" style="fill:#231f20;fill-opacity:1;fill-rule:nonzero;stroke:none" transform="matrix(.0148 0 0 -.0148 -373.168 667.24)"/><path d="M32816.5 44143.7c0-128.8-365.6-233.3-816.6-233.3s-816.6 104.5-816.6 233.3c0 128.9 365.6 233.3 816.6 233.3s816.6-104.4 816.6-233.3" style="fill:#f7fcfc;fill-opacity:1;fill-rule:nonzero;stroke:none" transform="matrix(.0148 0 0 -.0148 -373.168 667.24)"/><path d="M31999.9 44351.3c-466 0-790.8-109.4-790.8-207.6s324.8-207.6 790.8-207.6c466.1 0 790.9 109.4 790.9 207.6s-324.8 207.6-790.9 207.6m0-466.6c-408.3 0-842.3 90.8-842.3 259s434 259 842.3 259c408.4 0 842.3-90.8 842.3-259s-433.9-259-842.3-259" style="fill:#231f20;fill-opacity:1;fill-rule:nonzero;stroke:none" transform="matrix(.0148 0 0 -.0148 -373.168 667.24)"/></g><text xml:space="preserve" x="118.216" y="103.456" style="font-size:10.806px;line-height:1.25;font-family:&quot;Tlwg Typewriter&quot;;-inkscape-font-specification:&quot;Tlwg Typewriter&quot;;stroke-width:.27015" transform="matrix(.9794 0 0 .9794 -37.296 3.943)"><tspan x="118.216" y="103.456" style="font-style:normal;font-variant:normal;font-weight:700;font-stretch:normal;font-size:10.806px;font-family:&quot;Tlwg Typewriter&quot;;-inkscape-font-specification:&quot;Tlwg Typewriter, Bold&quot;;font-variant-ligatures:normal;font-variant-caps:normal;font-variant-numeric:normal;font-variant-east-asian:normal;fill:navy;stroke-width:.27015">Genever</tspan></text></svg>