<svg xmlns="http://www.w3.org/2000/svg" width="200mm" height="200mm" viewBox="0 0 200 200"><path d="M18869 17622.1c-1421.7 0-2582.7 678.6-2582.7 1138.4 0 1.4-3.1 408.7-7.8 1021.9-7.2 942.8-18 2372.3-27.2 3560.4-2.4 315.5-4.6 613.9-6.6 881.7-4.1 536.4 381.1 997.2 910 1087.7 142.1 24.3 283.3 46.3 412.2 65.5 328.5 48.7 571.4 330.6 571.4 662.6v2201.4h1478.3v-2251.8c0-312.9 216.5-584 521.3-653.4l553.1-125.7c506.8-115.2 862.8-570.9 852.3-1090.5l-15.8-766-71.2-3461.3-24-1166.5c-55-443.9-1176.8-1104.4-2563.3-1104.4" style="fill:#e9f7f5;fill-opacity:1;fill-rule:nonzero;stroke:none" transform="matrix(.0149 0 0 -.0149 -181.665 452.967)"/><path d="m20691 25210.8-553.1 125.7c-175.1 39.9-321 146.4-413.5 289.2-203.9-39.4-435-71.3-682.3-83.5-519.9-25.5-829.5 77-993.7 162.9-99.4-171.8-273.2-296.5-481.5-327.4-128.9-19.2-270.1-41.2-412.2-65.5-528.9-90.5-914.1-551.3-910-1087.7 2-267.8 4.2-566.2 6.6-881.7 9.2-1188.1 20-2617.6 27.2-3560.4 4.7-613.2 7.8-1020.5 7.8-1021.9 0-459.8 1161-1138.4 2582.7-1138.4 1386.5 0 2508.3 660.5 2563.3 1104.4l24 1166.5 71.2 3461.3 15.8 766c10.5 519.6-345.5 975.3-852.3 1090.5" style="fill:#71331d;fill-opacity:1;fill-rule:nonzero;stroke:none" transform="matrix(.0149 0 0 -.0149 -181.665 452.967)"/><path d="M20968.9 18748.7h-1c-90 .6-162.5 74-161.9 164l28.8 4772.4c.6 89.6 73.4 162 162.9 162h1c90-.6 162.5-74 162-164l-28.9-4772.4c-.5-89.7-73.4-162-162.9-162M16672.1 23991l36.2-5105.2c.5-74 35.7-143.4 95.2-187.4 123.2-91 342.9-244.9 510.1-315.7 67.6-28.6 131-50.8 187.3-67.9 122.7-37.3 246.5 54.7 245.6 183l-33.9 5278.8c-1.9 308.6-202.4 584.9-498.6 671.1-168.4 48.9-343.8 31.2-462.5-161.8-54.3-88.3-80.2-191.2-79.4-294.9" style="fill:#8e5c47;fill-opacity:1;fill-rule:nonzero;stroke:none" transform="matrix(.0149 0 0 -.0149 -181.665 452.967)"/><path d="m21527.4 23354.3-71.1-3461.4c-88.6-82.6-195.3-164.5-319.9-242.2-97.9-61.1-207-119.6-327-173.9-449-203.4-1051.1-348.1-1798.8-348.1-488.2 0-907.2 51.2-1268.9 128.4-415.4 88.7-755.4 212.1-1038.3 332.5-158.4 67.3-299 133.9-424.9 192.8-7.1 942.9-18 2372.3-27.2 3560.4 117.6-43.2 260-93.8 426.4-146.2 280.7-88.3 629.2-181.8 1040.4-253.7 352.2-61.8 750.2-107.7 1190.5-121.5 833.1-25.7 1456.5 101.1 1922.6 252.9 118.7 38.7 227.4 79.1 326.6 118.9 141.4 56.7 263.8 112.5 369.6 161.1" style="fill:#331a15;fill-opacity:1;fill-rule:nonzero;stroke:none" transform="matrix(.0149 0 0 -.0149 -181.665 452.967)"/><path d="m16304.6 19799.2 21.7-10.2c114.7-53.7 244.6-114.6 387.3-175.3 354.9-151 683.3-256.2 1033.6-331 397.2-84.8 822.3-127.8 1263.4-127.8 670.5 0 1288.7 119.6 1787.9 345.8 115.5 52.2 224.5 110.1 324 172.2 115.6 72.1 219.1 150 307.8 231.7l70 3408.5c-104.6-47.9-210.5-95.2-332.8-144.2-111.5-44.8-218.9-83.9-328.2-119.5-592.1-192.9-1223.9-276-1931.5-254.2-403.4 12.6-805.2 53.6-1194.3 121.8-355.4 62.3-696.8 145.5-1043.6 254.6-158.9 50-295.2 98.3-392.1 133.6 9.1-1173.6 19.7-2573.1 26.8-3506m2706-696.7c-444.8 0-873.5 43.4-1274.3 129-353.7 75.5-685.2 181.6-1043.2 334-143.6 61-274 122.1-389 176l-51.7 24.2-.1 16.5c-7.1 942.9-18 2372.3-27.2 3560.4l-.3 37.9 35.5-13.1c97.2-35.7 247-89.7 425.3-145.8 344.6-108.4 683.8-191.1 1037-252.9 386.6-67.8 786-108.6 1186.8-121.1 701.4-21.7 1327.4 60.6 1913.7 251.7 108.2 35.2 214.5 73.9 324.9 118.2 136 54.5 251.9 107.1 368.5 160.6l38 17.5-72.2-3514.3-8.1-7.5c-93-86.7-201.9-169.2-324-245.4-101.4-63.3-212.5-122.3-330-175.5-506-229.2-1131.7-350.4-1809.6-350.4" style="fill:#231f20;fill-opacity:1;fill-rule:nonzero;stroke:none" transform="matrix(.0149 0 0 -.0149 -181.665 452.967)"/><path d="m21157.8 23193.2-21.4-3542.5c-97.9-61.1-207-119.6-327-173.9l21.8 3597.5c118.7 38.7 227.4 79.1 326.6 118.9m-3416.1-3936.1c-415.4 88.7-755.4 212.1-1038.3 332.5l-25.7 3607c280.7-88.3 629.2-181.8 1040.4-253.7z" style="fill:#472b25;fill-opacity:1;fill-rule:nonzero;stroke:none" transform="matrix(.0149 0 0 -.0149 -181.665 452.967)"/><path d="M17657 21949.7c-31.8 9-54.8 14.2-69 15.7-15.1 1.5-36.5.8-64.3-2-66.7-6.9-103.5-15.7-110.5-26.4-3.5-5.4-7.3-34.2-11.5-86.3-14.9-187.2-22.3-376.3-22.3-567.2l.1-56.6 34.8-3.6q36.3-3.75 95.1 5.7c136.8 17.9 240.7 53.6 311.7 106.9 70.9 53.4 112.7 128 125.5 223.9l2 25.5c7.3 90.7-13.9 167.2-63.3 229.5-49.6 62.3-125.6 107.2-228.3 134.9m-190 144.7c36.1 6.6 72.9 8 110.3 4.1 5-.5 13.6-1.6 25.7-3.4 12-1.9 21.6-3.1 28.7-3.8 156.1-20.6 273.5-80.7 352.1-180.2 68.5-84.9 101.6-187.7 99.1-308.7.2-9.2-.4-23.4-1.9-42.7-5.2-64.6-22.9-126.3-53-185q-55.8-105.75-142.5-168.9c-57.8-42.1-134-74.9-228.5-98.3l-81-20.9 58.3-54c182.1-167.3 281.3-263.3 297.7-287.8 7.9-14.6 11.3-30.3 9.9-47.4-1.3-17-6.6-31.9-15.8-44.7-9.2-12.7-20.9-20.1-35.3-22.1-4.2-.7-9.2-.7-15.3-.1-9.1.9-22.2 8.6-39.4 22.9-17.2 14.4-54.2 48.4-111 102.3-187.4 177-293.7 274.3-318.7 291.7l-33.4 22.3-17.4-217.8c-7.5-94.1-14.3-151.7-20.6-172.8s-19.7-33.4-40.4-37c-3.1-.9-8.2-.9-15.3-.2q-37.8 3.9-53.4 38.1c-6.1 13.2-2.8 124.9 9.9 335.2 10.6 221.9 16.9 364.7 19 428.6 5.1 153.8 15 323.2 29.8 508.1 3.3 40.8 5.6 64 7.1 69.6 1.6 7.8 23 20.5 64.1 38s78.2 29.1 111.2 34.9m955.4-224c14.1 7 21.7 10.5 22.7 10.5l26-13.4c18.4-10 27.7-27 28-50.9.2-14.9-3.5-42.2-11.1-82.2-34.4-172.4-50.2-361.6-47.7-567.8.1-6.8.5-16.5 1.2-29 .6-12.5 1-21.6 1-27.3 5.7-128.7 28.8-240.6 69.5-335.8 32.3-76 71.4-128 117.2-156 19.4-11.1 35.1-18.1 47.3-20.8s36-3.9 71.4-3.5c51.6.6 90.4 8.1 116.5 22.6 26.2 14.6 62.7 48.8 109.5 102.9 69.9 80.5 111.3 161.8 124.5 244 15 93.5 21.4 233.1 19.1 418.8-1.1 84.3-4.7 169.1-10.8 254.5-7.1 80.8-10.8 132-11 153.6-.4 25.1 5 43.9 16 56.6 12.8 16.1 27.7 24.2 44.8 24.4 16 .2 30.7-7.7 43.9-23.5s21.5-36.7 24.8-62.9c14.3-103.5 22.5-236.7 24.5-399.5 2.5-199.4-4.7-348.6-21.7-447.9-17.9-106.2-66.3-209-145-308.3-78.7-99.4-159.5-159.2-242.2-179.5-27.3-6-54.1-9.1-80.4-9.4-77.9-.9-143.4 14.9-196.4 47.4-29.7 17.9-60.1 46-91.5 84.4-31.3 38.4-56.4 79.1-75.1 122.2-57.3 131.5-87 277.5-89 438.1-1.1 93.4 6.1 212.5 21.8 357.4 25.7 238.3 56.5 365.1 92.2 380.3m1945.2 189c13.6 12.4 29.1 19.3 46.3 20.7 30 2.3 56.4-14.5 79.3-50.3 34.8-55.5 60.2-245.6 76-570.5 2.4-47.6 6-143.1 10.9-286.4 5.9-182 8.7-292.3 8.6-331.1s-3.8-64.7-11.2-77.9c-11.1-20.2-28.6-31.3-52.7-33.1-17-1.3-30.3 3.4-39.9 14-7.3 7.4-12.8 36-16.2 85.9-3.4 50-11.6 207.8-24.6 473.6-17.6 361.2-29.8 548.9-36.6 563.2-2.4 6.7-4.6 9.9-6.6 9.7-5.1-.3-24.8-34.4-59.1-102-20.3-42.6-67.8-131.3-142.6-265.9-14-25-29.4-53.3-46.1-84.8-16.8-31.5-32.9-61.6-48.3-90.1-15.3-28.6-25.4-47-30-55.4-31.6-60.6-57.1-91.6-76.3-93.1-9.1-.7-19.9 1.9-32.4 7.7-22.8 9.6-42.4 24.4-58.6 44.2-16.2 19.9-41.1 60.4-74.6 121.6-61.3 111.6-118.8 210.9-172.3 297.9-53.6 87.1-84.4 130.3-92.5 129.7l-1.5-.2c-6.7-8.5-8.9-90.2-6.4-245 2.5-154.9 8.3-326 17.5-513.4l17-381.8-17.4-16.7c-11.7-11.2-22.1-17.1-31.2-17.8-10.1-.8-22.6 4.5-37.4 15.9-9.5 7.2-16 16.1-19.6 26.7-3.6 10.5-7.7 32.2-12.3 64.9-13.3 105-24.6 254-34 447.1-14.2 291.9-17.5 503.7-9.6 635.4 3.8 66.5 12.2 114.1 25 143.1 12.8 28.9 32.9 44.4 60.3 46.6 21.2 1.6 39.1-1 53.6-7.8 13.6-7 35.8-26.9 66.9-59.8q46.5-49.5 71.1-85.2c63.9-103.3 143.6-239.1 239.1-407.2l33.3-59 12.7 21.5q18.45 28.8 105.6 198.9c58.2 113.3 99.2 195.5 123.2 246.4 55.5 116 103.3 189.3 143.6 219.8" style="fill:#fff;fill-opacity:1;fill-rule:nonzero;stroke:none" transform="matrix(.0149 0 0 -.0149 -181.665 452.967)"/><path d="M17062.8 22542.9c-3.2 0-6.3.5-9.5 1.3-28.8 8-55.8 15.8-81.2 23.2-18 5.3-37.9 8.5-58.4 8-5 0-10-.2-15-.5-19.5-1.1-36.3 13.5-37.6 33s13.5 36.4 33 37.6c6.8.5 13.4.6 20.2.7 27.3 0 53.5-3.7 77.8-10.8 25-7.4 51.7-15 80.1-22.9 18.8-5.2 29.9-24.7 24.7-43.6-4.4-15.7-18.6-26-34.1-26m3539.8-26.8c-15.6 0-29.9 10.4-34.2 26.1-5.1 18.9 6 38.4 24.9 43.5 55.1 15.1 109.7 31 162.4 47.4 18.6 5.8 38.5-4.6 44.3-23.3s-4.6-38.5-23.3-44.3c-53.4-16.7-108.8-32.9-164.8-48.1-3.1-.9-6.2-1.3-9.3-1.3m467.6-21.2c-11.4 0-22.6 5.5-29.5 15.8-26.5 39.7-68.6 68.1-115.4 77.7-19.2 4-31.5 22.7-27.5 41.9 3.9 19.2 22.7 31.5 41.8 27.5 65-13.4 123.3-52.7 160.1-107.8 10.8-16.3 6.4-38.3-9.8-49.2-6.1-4-12.9-5.9-19.7-5.9m-3676.3-32.7c-2.5 0-5 .2-7.5.8-56.4 12-112.6 24.9-167.1 38.1-19 4.7-30.6 23.8-26 42.8s23.8 30.8 42.8 26.1c53.8-13.2 109.4-25.8 165.2-37.8 19.1-4.1 31.3-22.9 27.2-42-3.6-16.7-18.3-28-34.6-28m2877.2-25.3c-16.4 0-31.2 11.5-34.6 28.3-4 19.1 8.3 37.9 27.5 41.8 55.8 11.6 111.4 24 165.2 36.8 19 4.6 38.2-7.2 42.7-26.2 4.6-19-7.2-38.1-26.2-42.7-54.6-13-110.9-25.5-167.4-37.2-2.4-.5-4.8-.8-7.2-.8m-2542.2-37.4c-1.9 0-3.8.1-5.7.5-56.5 9.1-113.2 18.9-168.8 29.3-19.2 3.6-31.9 22.1-28.3 41.3 3.6 19.3 22.1 31.9 41.3 28.3 55-10.2 111.2-20 167.1-29 19.3-3.1 32.4-21.3 29.3-40.6-2.8-17.4-17.8-29.8-34.9-29.8m2206.7-22.1c-17.3 0-32.4 12.6-35 30.1-2.9 19.4 10.4 37.4 29.8 40.3 56.1 8.4 112.3 17.6 167.2 27.3 19.3 3.3 37.7-9.4 41.1-28.7s-9.5-37.7-28.7-41.1c-55.6-9.8-112.5-19.1-169.2-27.6-1.7-.2-3.5-.3-5.2-.3m-3280.9-2.3c-19 0-34.7 14.6-35.3 33.8l-.1 2.5.1 1.3c2.9 64.5 37.6 124.5 97.8 168.9 15.7 11.6 37.9 8.2 49.5-7.5s8.3-37.9-7.5-49.5c-42.5-31.4-67-72.1-69-114.8-.7-18.5-15.6-34.1-34.4-34.7zm1411.8-21.8c-1.3 0-2.6.1-4 .2-56.5 6.4-113.7 13.6-169.9 21.2-19.4 2.7-33 20.5-30.3 39.9 2.6 19.4 20.5 33 39.9 30.3 55.6-7.6 112.3-14.6 168.3-21 19.4-2.2 33.4-19.7 31.2-39.2-2.1-18-17.4-31.4-35.2-31.4m1530.8-17.3c-18 0-33.5 13.7-35.2 32.1-1.9 19.4 12.4 36.7 31.9 38.6 56.2 5.4 112.9 11.6 168.5 18.4 19.4 2.3 37-11.5 39.4-30.9s-11.4-37.1-30.9-39.5c-56.2-6.8-113.5-13-170.3-18.5-1.1-.1-2.3-.2-3.4-.2m-1191.4-13.3-2.4.1c-56.9 3.9-114.3 8.4-170.7 13.4-19.4 1.8-33.8 19-32.1 38.5 1.8 19.5 19 33.9 38.5 32.1 55.8-5 112.7-9.5 169.1-13.3 19.5-1.3 34.3-18.2 32.9-37.7-1.2-18.7-16.8-33.1-35.3-33.1m851.5-10.6c-18.8 0-34.5 14.8-35.4 33.8-.9 19.5 14.3 36.1 33.8 37 56.3 2.5 113.2 5.8 169.2 9.8 19.6 1.3 36.5-13.4 37.9-32.9 1.3-19.5-13.4-36.4-32.9-37.8-56.6-4-114.2-7.3-171-9.9zm-511.1-4.9h-.8c-57 1.4-114.5 3.4-171.1 6-19.5.8-34.7 17.4-33.8 37 .9 19.5 17.3 34.9 37 33.7 56.1-2.5 113.1-4.5 169.6-5.9 19.5-.5 35-16.7 34.5-36.2-.4-19.3-16.2-34.6-35.4-34.6m191.9-2.3h-21.6c-19.5.1-35.3 15.9-35.3 35.5 0 19.5 15.9 35.4 35.4 35.4h.1l21.4-.1c49 0 98.9.5 148.2 1.6 19.3 1 35.7-15.1 36.1-34.7s-15.1-35.7-34.7-36.1c-49.7-1.1-100.1-1.6-149.6-1.6m2165.3-143.6h-.5c-19.5.3-35.2 16.3-34.9 35.9l2.1 170.4c.2 19.4 16 34.9 35.4 34.9h.4c19.6-.2 35.2-16.3 35-35.8l-2.1-170.4c-.3-19.4-16.1-35-35.4-35m-4439.4-127.5c-19.1 0-34.9 15.3-35.4 34.5l-4.7 170.3c-.5 19.6 14.9 35.9 34.5 36.4 19.6.9 35.8-14.9 36.4-34.4l4.6-170.4c.5-19.5-14.9-35.8-34.4-36.3zm4435.2-213.2h-.5c-19.6.2-35.2 16.3-35 35.8l2.1 170.4c.3 19.4 16.1 35 35.5 35h.4c19.6-.3 35.2-16.3 35-35.9l-2.1-170.4c-.3-19.4-16.1-34.9-35.4-34.9m-4425.9-127.4c-19.1 0-34.9 15.2-35.4 34.4l-4.7 170.4c-.5 19.5 14.9 35.8 34.5 36.3 19.8.8 35.8-14.9 36.3-34.4l4.7-170.3c.5-19.6-14.9-35.9-34.4-36.4zm4421.6-213.4h-.4c-19.6.2-35.2 16.3-35 35.8l2.1 170.4c.3 19.4 16.1 35 35.4 35h.5c19.6-.2 35.2-16.3 35-35.9l-2.2-170.3c-.2-19.4-16-35-35.4-35m-4412.3-127.3c-19.2 0-34.9 15.2-35.4 34.4l-4.7 170.4c-.5 19.5 14.9 35.8 34.5 36.4s35.8-15 36.3-34.5l4.7-170.3c.5-19.6-14.9-35.9-34.5-36.4zm4408.1-213.5h-.4c-19.6.3-35.2 16.3-35 35.9l2.1 170.4c.3 19.4 16.1 34.9 35.4 34.9h.5c19.5-.2 35.2-16.3 34.9-35.8l-2.1-170.4c-.2-19.4-16-35-35.4-35m-4398.9-127.2c-19.1 0-34.8 15.3-35.3 34.5l-4.7 170.3c-.5 19.6 14.9 35.9 34.5 36.4 19.6.7 35.8-14.9 36.3-34.4l4.7-170.4c.5-19.5-14.9-35.8-34.5-36.4zm4395.5-213.5h-.9c-19.6.4-35 16.7-34.6 36.2.1 2.7.1 5.3.1 7.9 0 6-.1 12-.4 18l-.1 1.1 1.8 143c.2 19.6 16.3 34.9 35.9 35 19.5-.3 35.2-16.3 34.9-35.9l-1.7-140.9c.3-6.7.5-13.5.5-20.3 0-3.2-.1-6.4-.2-9.6-.4-19.2-16.2-34.5-35.3-34.5m-4375.4-125.9c-15.8 0-30.2 10.6-34.3 26.7a536.3 536.3 0 0 0-16.3 131.1c0 7.6.1 15.2.4 22.8l-.6 22.9c-.5 19.6 14.9 35.9 34.4 36.4 19 .5 35.9-14.9 36.4-34.4l.7-25.5v-1.3c-.4-7-.5-13.9-.5-20.9 0-38.3 4.8-76.6 14.2-113.7 4.8-19-6.7-38.2-25.7-43-2.9-.8-5.8-1.1-8.7-1.1m4255.1-186.7c-7.9 0-15.7 2.6-22.3 7.8-15.2 12.3-17.6 34.6-5.3 49.8 33.3 41.2 61 88.7 80.2 137.5 7.2 18.1 27.7 27.1 45.9 19.9s27.2-27.7 20-45.9c-22.1-56.1-52.7-108.6-91-155.9-7-8.7-17.2-13.2-27.5-13.2m-4069.2-91c-7.4 0-14.8 2.2-21.1 7-49.1 36.4-91.2 80.7-125.2 131.5-10.9 16.3-6.5 38.3 9.7 49.2 16.3 10.8 38.3 6.5 49.2-9.8 29.5-44.1 66-82.4 108.6-114.1 15.7-11.7 18.9-33.9 7.2-49.6-6.9-9.3-17.6-14.2-28.4-14.2m3790.6-98.6c-13.4 0-26.2 7.6-32.2 20.5-8.2 17.7-.6 38.8 17.2 47.1 39.4 18.3 78.2 37.2 118.8 57.8 9.9 5 19.9 10.6 29.7 16.6 16.6 10.3 38.4 5.2 48.8-11.4 10.3-16.6 5.1-38.5-11.5-48.8-11.5-7.1-23.3-13.7-35-19.7-41.3-20.8-80.8-40.1-120.9-58.7-4.8-2.3-9.9-3.4-14.9-3.4m-3486.1-53c-4.5 0-9.1.8-13.5 2.7-53.2 22.1-106.1 45.7-157.3 70-17.7 8.4-25.2 29.5-16.8 47.2 8.4 17.6 29.5 25.2 47.2 16.8 50.1-23.9 102-46.9 154.1-68.6 18-7.5 26.6-28.3 19.1-46.3-5.7-13.6-18.9-21.8-32.8-21.8m3171-76.6c-14.5 0-28.1 9-33.3 23.4-6.6 18.4 2.9 38.7 21.3 45.3 52.8 19 105.8 39.4 157.5 60.7 18.1 7.4 38.8-1.2 46.3-19.3 7.4-18.1-1.2-38.8-19.3-46.2-52.7-21.7-106.7-42.5-160.5-61.8-4-1.5-8-2.1-12-2.1m-2850.6-39.5c-3.5 0-7.1.6-10.6 1.7-54.7 17-109.6 35.5-163 54.8-18.3 6.6-27.9 26.9-21.2 45.3 6.6 18.4 26.9 27.9 45.3 21.3 52.4-18.9 106.2-37 160-53.8 18.7-5.8 29.1-25.7 23.3-44.4-4.7-15.1-18.7-24.9-33.8-24.9m2525-60.8c-15.7 0-30.1 10.5-34.2 26.5-4.9 18.9 6.4 38.2 25.4 43.2 54.4 14.1 109 29.6 162.4 46 18.6 5.7 38.5-4.7 44.2-23.4 5.8-18.7-4.7-38.5-23.4-44.3-54.3-16.7-110-32.5-165.4-46.9-3-.8-6-1.1-9-1.1m-2195.7-26.6c-2.5 0-5.1.3-7.7.9-56.1 12.4-112.2 26.1-167 40.6-18.9 5-30.1 24.4-25.1 43.3s24.4 30.2 43.3 25.2c53.8-14.3 109-27.7 164.1-40 19.1-4.2 31.2-23.1 26.9-42.2-3.6-16.5-18.3-27.8-34.5-27.8m1862.6-44.9c-16.9 0-31.9 12.2-34.8 29.5-3.3 19.2 9.6 37.5 28.9 40.8 55.5 9.5 111.3 20.3 165.9 32 19 4.1 37.9-8.1 42-27.3 4.1-19.1-8.1-37.9-27.2-42-55.5-11.9-112.3-22.8-168.7-32.5-2.1-.3-4.1-.5-6.1-.5m-1527.4-15.8c-1.6 0-3.3.1-5 .4-56.9 8.1-114 17.3-169.5 27.3-19.3 3.5-32 21.9-28.6 41.2 3.5 19.3 22 32 41.2 28.5 54.7-9.9 110.8-18.9 166.9-26.9 19.4-2.8 32.8-20.7 30.1-40.1-2.6-17.6-17.7-30.4-35.1-30.4m1189.7-28.6c-18.1 0-33.5 13.8-35.3 32.2-1.8 19.5 12.6 36.7 32 38.5 56.3 5.2 112.8 11.6 168 18.8 19.4 2.6 37.2-11.1 39.7-30.5 2.6-19.4-11.1-37.2-30.5-39.7-56-7.4-113.4-13.8-170.6-19.1-1.1-.1-2.2-.2-3.3-.2m-850.9-7.5-2.6.1c-57.2 4.1-114.7 9.2-170.9 15.2-19.4 2.1-33.5 19.5-31.4 39 2 19.4 19.4 33.4 38.9 31.4 55.3-5.8 112-10.9 168.5-14.9 19.5-1.4 34.2-18.4 32.8-37.9-1.3-18.6-16.9-32.9-35.3-32.9m510.8-12.1c-19.2 0-35 15.3-35.4 34.6-.5 19.6 15 35.8 34.6 36.3 56.4 1.3 113.3 3.6 169 6.7 19.3 1.3 36.3-13.8 37.4-33.3s-13.8-36.3-33.4-37.4c-56.5-3.2-114.1-5.5-171.4-6.9zm-170.4-1.2h-.3c-57.4.4-115.1 1.8-171.4 4-19.5.7-34.8 17.2-34 36.7.8 19.6 17.4 34.9 36.8 34 55.5-2.1 112.5-3.4 169.2-3.9 19.6-.1 35.3-16.1 35.1-35.7-.1-19.5-15.9-35.1-35.4-35.1" style="fill:#d04652;fill-opacity:1;fill-rule:nonzero;stroke:none" transform="matrix(.0149 0 0 -.0149 -181.665 452.967)"/><path d="m16304.6 19799.1 15.2-7.1c541.3-253.7 1359.3-637.1 2690.8-637.1 1007.2 0 1910.6 280.1 2419.7 749.7l70.1 3408.5c-448.3-205.3-1258.9-559.3-2592.6-517.8-1193.2 37-2067.8 305-2630 509.8 9.1-1173.5 19.7-2573 26.8-3506m2706-696.6c-1343.2 0-2167.6 386.3-2713.1 642l-45.1 21.2-.1 16.5c-7.2 942.8-18 2372.3-27.2 3560.4l-.3 37.8 35.5-13c557.2-205.1 1438.1-482.1 2649.2-519.7 1359.9-42.1 2171.1 330.3 2607 530.4l38 17.5-72.2-3514.2-8.1-7.6c-231.9-216.6-556.4-401.3-938.3-534.2-452.3-157.3-965.5-237.1-1525.3-237.1" style="fill:#231f20;fill-opacity:1;fill-rule:nonzero;stroke:none" transform="matrix(.0149 0 0 -.0149 -181.665 452.967)"/><path d="M18164.6 28215.5v-2175.2c0-342.3-255.3-638.3-593.8-688.6-154.4-23-289.1-44.3-411.7-65.3-518.7-88.8-892.2-535.3-888.2-1061.8l6.6-881.6c9.2-1188.1 20.1-2617.6 27.2-3560.4 4.6-599.5 7.8-1020.2 7.8-1022.1 0-439.2 1145.3-1112.2 2556.5-1112.2 1369.8 0 2482.2 654.7 2537.1 1080.2l111 5392.3c10.2 504.9-339.7 952.6-831.9 1064.4l-553.1 125.8c-319 72.5-541.7 351.7-541.7 678.9v2225.6zm704.4-10619.6c-653.2 0-1305.2 141.8-1835.9 399.4-476.8 231.4-773 524.6-773 765.2 0 3.8-3 404.4-7.8 1021.7-7.2 942.8-18 2372.3-27.2 3560.4l-6.6 881.6c-4.2 552.3 387.6 1020.7 931.8 1113.9 123 21 258 42.4 412.8 65.5 313 46.5 549 320.2 549 636.7v2227.6h1530.7v-2278c0-302.6 206-560.7 500.9-627.8l553.1-125.7c516.4-117.4 883.4-587 872.7-1116.6v-.1l-111.2-5396.4c-29-234.3-334.5-517.6-797-739.1-522.9-250.4-1159.4-388.3-1792.3-388.3" style="fill:#231f20;fill-opacity:1;fill-rule:nonzero;stroke:none" transform="matrix(.0149 0 0 -.0149 -181.665 452.967)"/><path d="M19633.6 27239.3v-858.2s-195.4-131.6-713.7-127.4c-136.7 1.2-256.8 14.4-359.5 32.9-146.4 26.7-257.5 64.5-330.6 94.9-68.8 28.7-104.3 50.6-104.3 50.6l4.3 875 100-4.5 330.6-14.9z" style="fill:#331a15;fill-opacity:1;fill-rule:nonzero;stroke:none" transform="matrix(.0149 0 0 -.0149 -181.665 452.967)"/><path d="M18645.4 27270v-1001.1c-146.4 26.6-257.5 64.5-330.6 94.9v921.1z" style="fill:#472b25;fill-opacity:1;fill-rule:nonzero;stroke:none" transform="matrix(.0149 0 0 -.0149 -181.665 452.967)"/><path d="M18151.9 26447.3c59.2-32.2 327.5-163.7 768.3-167.4 436.2-3.8 639 90 687.2 116.3v818l-1451.5 65.6zm792.7-219.9c-8.3 0-16.5.1-24.9.1-515.8 4.3-796.3 175.1-807.9 182.4l-12.5 7.7 4.5 917 1556-70.3v-897.1l-11.5-7.8c-8.2-5.4-201.9-132-703.7-132" style="fill:#231f20;fill-opacity:1;fill-rule:nonzero;stroke:none" transform="matrix(.0149 0 0 -.0149 -181.665 452.967)"/><path d="m19728.5 27663-.7-238c0-134.2-89.4-251.5-218.5-288.4-321.9-92.1-648.4-107.4-979.3-50.9-81.6 13.7-163.3 32-245.5 54.5-23.4 6.4-45.3 15.5-65.9 26.8-94.3 51.7-156 151.3-156 262.5l3.9 229.1c0 35.5 6.6 70.5 19.2 103.5l-4.2 117.8-4.1 13.9c-5 17.6-7.7 35.7-8 54l-6.8 600.2h1665.2v-625c0-33.3-7.4-66.2-21.5-96.2l-1-75.4 1.1-2.1c14.6-26.5 22.1-56.2 22.1-86.3" style="fill:#7c161a;fill-opacity:1;fill-rule:nonzero;stroke:none" transform="matrix(.0149 0 0 -.0149 -181.665 452.967)"/><path d="M18530 27085.7c-81.6 13.7-163.3 32-245.5 54.5-23.4 6.4-45.3 15.5-65.9 26.8l-33.7 1254.9 69.7 126.1 4.7 8.5 45-8.5 199.4-37.6z" style="fill:#a34954;fill-opacity:1;fill-rule:nonzero;stroke:none" transform="matrix(.0149 0 0 -.0149 -181.665 452.967)"/><path d="M18906.6 27670c-406.7 0-747 86-819.8 196.1-1.5-26.2-.7-78.6 4.2-105.1 77.6-108.4 409-185.9 811.4-185.9 409.1 0 737 66.4 804.3 173.6 1.7 19.7-1.5 53.7-2.3 86.3-107.8-95.9-426.4-165-797.8-165" style="fill:#211d1d;fill-opacity:1;fill-rule:nonzero;stroke:none" transform="matrix(.0149 0 0 -.0149 -181.665 452.967)"/><path d="M18115.8 27771.7c69.1-85.4 357.8-170.3 786.5-170.3 393.5 0 710.6 63.9 778.6 156 .2 7.7-.1 17.3-.6 27.8-140.8-85.7-439.3-141.4-773.7-141.4-357.3 0-663.8 63.5-793.5 159.4.6-11.7 1.5-22.8 2.7-31.5m786.5-222.8c-413.7 0-748.3 79.1-832.6 196.8l-3.4 4.8-1.1 5.7c-5.4 28.9-6.1 83.2-4.6 111.3l4.3 79.3 43.7-66.2c59.1-89.4 358.9-184.4 798-184.4 354.7 0 675.6 65.1 780.4 158.3l42.3 37.6 1.3-56.5c.3-11.5.9-23.2 1.4-34.3 1.1-21.7 2-40.4.8-54.8l-.5-6.3-3.4-5.4c-86-137-483.4-185.9-826.6-185.9" style="fill:#231f20;fill-opacity:1;fill-rule:nonzero;stroke:none" transform="matrix(.0149 0 0 -.0149 -181.665 452.967)"/><path d="M18981.2 27390.2c-10.9 0-21.7 0-32.5.2-367.6 4.6-750.3 84.7-890.1 186.2l30.8 42.4c129.9-94.4 507.7-171.8 860-176.2 379.4-4.5 705.3 71.4 760.6 142.7l41.4-32.1c-80.4-103.8-448.2-163.2-770.2-163.2" style="fill:#231f20;fill-opacity:1;fill-rule:nonzero;stroke:none" transform="matrix(.0149 0 0 -.0149 -181.665 452.967)"/><path d="m18089.2 28521.7 6.5-573.6c.1-15.9 2.5-31.7 6.9-47l4.9-17 4.6-126.4-1.9-5c-11.6-30.2-17.5-61.8-17.6-94.1l-3.7-229.5c0-122.3 83.3-230.8 202.5-263.6 414.4-113.7 821.7-114.9 1210.7-3.7 117.5 33.6 199.5 141.9 199.5 263.3l.7 237.9c0 25.7-6.5 51.1-18.9 73.6l-4.5 8.3 1.2 88 2.4 5.1c12.5 26.4 19.1 55.8 19.1 85v598.7zm823.8-1494.8c-209 0-421.3 29.3-635.4 88.1-142 38.9-241.1 168.3-241.1 314.6l3.7 229.5c.1 36.5 6.5 72.7 19.1 107.2l-3.9 109.5-3.1 10.7c-5.8 19.9-8.8 40.4-9.1 61l-7 626.6h1717.9V27923c0-34.9-7.5-70.1-21.7-102.1l-.9-63c15.2-29.2 23.3-62 23.2-95l-.6-237.9c0-144.6-97.7-273.6-237.6-313.6-197.1-56.3-398.7-84.5-603.5-84.5" style="fill:#231f20;fill-opacity:1;fill-rule:nonzero;stroke:none" transform="matrix(.0149 0 0 -.0149 -181.665 452.967)"/><path d="M19727.9 28553.6c0-131.4-372.8-237.9-832.6-237.9-459.9 0-832.6 106.5-832.6 237.9 0 131.3 372.7 237.9 832.6 237.9 459.8 0 832.6-106.6 832.6-237.9" style="fill:#d24656;fill-opacity:1;fill-rule:nonzero;stroke:none" transform="matrix(.0149 0 0 -.0149 -181.665 452.967)"/><path d="M18895.3 28765.2c-475.2 0-806.4-111.5-806.4-211.6s331.2-211.7 806.4-211.7 806.3 111.6 806.3 211.7-331.1 211.6-806.3 211.6m0-475.7c-416.4 0-858.8 92.5-858.8 264.1 0 171.5 442.4 264.1 858.8 264.1 416.3 0 858.8-92.6 858.8-264.1 0-171.6-442.5-264.1-858.8-264.1" style="fill:#231f20;fill-opacity:1;fill-rule:nonzero;stroke:none" transform="matrix(.0149 0 0 -.0149 -181.665 452.967)"/></svg>