<svg xmlns="http://www.w3.org/2000/svg" xml:space="preserve" width="200mm" height="200mm" viewBox="0 0 200 200"><path d="M18206.5 27868.5q4.2 2.7 20.7 2.7c12.5 0 31-.6 55.5-1.6 19.9-.7 31.9-1.4 35.8-1.9 4-.5 7.3-2.2 9.8-5q5.4-4.95 5.4-11.7c0-4.4-1.9-8.5-5.8-12-2.8-2.6-6.4-3.9-10.7-3.9-3.6 0-6.5.2-8.8.4-3.8.3-19.4 1-46.7 2.3l-33 1.6.8-58.6q.75-58.65 1.5-59.4h1.2c2.5 0 8.1.6 16.8 1.9 11.8 1.5 22.7 2.3 33 2.3h4.9c10.2-.3 16.6-.7 19.2-1.3 2.5-.7 5.1-2.4 7.7-5.2 3-3.8 4.5-7.5 4.5-10.9 0-3.5-1.5-6.7-4.5-9.8-2.6-2.6-5.2-4-7.9-4.4s-10-.7-22-1c-16.9 0-30-.9-39.5-2.6l-14.5-2.3-.4-52.1v-15.7c0-24.6.5-37.8 1.5-39.9 1.3-1.5 8.2-2.3 20.7-2.3h23.4c6.9.3 15 .4 24.5.4 11.7 0 19.3-1.4 22.6-4.2 3.3-3.6 5-7.7 5-12.5 0-4.7-1.4-8.2-4.3-10.5-3.5-3-9-5.1-16.4-6.1s-21.1-1.7-41-1.9h-17.2c-10.8 0-17.9.2-21.5.7s-7.9 1.7-12.8 3.5c-5 1.8-9.2 5.3-12.5 10.7-3.8 6.1-6.1 14.8-6.9 26l.8 128.4c.2 74.3.8 117.9 1.7 130.8s3.9 21.1 9 24.7z" style="display:inline;fill:#211d1d;fill-opacity:1;fill-rule:nonzero;stroke:none" transform="matrix(.01683 0 0 -.01683 -205.513 777.167)"/><path d="M18471.2 27869.2c8.1.6 17 1 26.6 1.4s17.1.7 22.6.9c5.5.3 8.7.4 9.8.4h1.1c3.6 0 7.2-.9 10.7-2.7 3.6-1.8 5.9-3.7 6.9-5.8q1.2-2.7 1.2-7.8c0-4.3-.8-7.6-2.3-9.6-2.3-3.1-5.6-5.2-9.8-6.2-4.2-1.1-11.4-1.6-21.6-1.6-15.3 0-26.6-.4-33.7-1.1l-13.1-1.2.8-74.3v-24.9c0-18.1-.2-33.6-.6-46.3-.4-12.8-1-30.3-1.9-52.5s-1.6-39.1-2.1-50.6q-1.2-24.9-2.1-31.2c-.6-4.2-2.1-7.5-4.4-9.8-3.3-3.3-7.3-5-11.9-5s-8.3 1.5-11.1 4.3c-2 2-3.3 4.3-3.8 6.9-.5 2.5-.8 8.8-.8 18.7 0 15.6.9 40.4 2.7 74.3 2.8 37.8 4.2 87.2 4.2 148.3 0 22.7-.4 35.2-1.1 37.5l-1.9 5.4-16.1-1.6c-9-1-17.8-1.5-26.5-1.5q-20.25 0-26.4 4.2c-3.8 2.9-5.7 6.9-5.7 12.1 0 3.8 1.2 6.9 3.8 9.3 2.3 2 9.4 3.6 21.2 4.8 11.9 1.2 40.3 2.9 85.3 5.2m222.9 0c8.2.6 17 1 26.6 1.4s17.1.7 22.6.9c5.5.3 8.8.4 9.8.4h1.1q5.4 0 10.8-2.7c3.5-1.8 5.8-3.7 6.9-5.8.7-1.8 1.1-4.4 1.1-7.8 0-4.3-.8-7.6-2.3-9.6-2.3-3.1-5.5-5.2-9.8-6.2-4.2-1.1-11.4-1.6-21.6-1.6-15.3 0-26.6-.4-33.7-1.1l-13-1.2.7-74.3v-24.9c0-18.1-.2-33.6-.5-46.3-.4-12.8-1.1-30.3-2-52.5s-1.6-39.1-2.1-50.6q-1.05-24.9-2.1-31.2c-.6-4.2-2.1-7.5-4.4-9.8-3.3-3.3-7.3-5-11.8-5-4.6 0-8.4 1.5-11.2 4.3-2 2-3.3 4.3-3.8 6.9-.5 2.5-.8 8.8-.8 18.7 0 15.6.9 40.4 2.7 74.3 2.8 37.8 4.2 87.2 4.2 148.3 0 22.7-.3 35.2-1.1 37.5l-1.9 5.4-16.1-1.6q-13.5-1.5-26.4-1.5c-13.6 0-22.4 1.4-26.5 4.2-3.8 2.9-5.7 6.9-5.7 12.1 0 3.8 1.3 6.9 3.8 9.3q3.45 3 21.3 4.8c11.9 1.2 40.3 2.9 85.2 5.2m232.9-44.4c-3.3 2-11.6 3.5-24.9 4.2-1.5 0-3.4.1-5.8.2-2.3.1-3.8.2-4.5.2-6.4 0-13.5-1.9-21.1-5.7-19.7-9.7-35-35.6-46-77.7-2.8-10.7-4.5-19-5.2-24.8-.6-5.9-1-16.7-1.3-32.5q0-29.1 2.7-43.8c1.8-9.9 5.5-20 11.1-30.4 5.9-11.5 13.5-20.4 23-26.6 9.4-6.3 19.6-9.4 30.6-9.4 9.2 0 17.9 2 26.1 6.1 17.1 8.4 31.5 21.4 43.3 39 8.9 13.5 15.2 27.7 18.9 42.5s5.6 33.5 5.6 56.2v12.2c0 11.5-2 22.4-5.8 32.6-9.9 24.4-25.5 43.7-46.7 57.7m-46.7 34.5c3.3.7 12.8 1.4 28.7 1.9h6.1c8.2 0 16.4-2.1 24.5-6.1 7.9-3.9 18-11.9 30.3-24.2 8.2-7.9 13.8-14 17-18.4 3.2-4.3 7-11.1 11.3-20.3 6.2-13 10.1-23.3 11.9-31 1.8-7.6 2.7-18.6 2.7-32.9v-8.1c-.5-29.8-4.1-54.9-10.7-75-6.7-20.2-18-39.9-34.1-59-8.2-10-18.8-18.9-31.8-26.8-13-8-24.8-12.5-35.3-13.8-5.1-.5-9-.8-11.8-.8-26.8 0-49.2 8.9-67.1 26.8-5.6 5.6-11.7 14.4-18.3 26.3-6.7 11.8-11.3 22.6-13.8 32.3-2.8 10.5-4.3 28-4.3 52.5 0 13.8.6 24.4 1.6 31.8 1.2 8.2 2.3 17.5 3 27.9.6 5.1 2.9 14 6.9 26.5 4.1 12.5 8.2 22.6 12.3 30.2 3.8 7.7 8.7 15.6 14.6 23.8 5.8 8.2 10.8 14 14.9 17.6 4.3 3.8 10.7 7.6 19.1 11.3 8.5 3.7 15.9 6.2 22.3 7.5" style="fill:#211d1d;fill-opacity:1;fill-rule:nonzero;stroke:none" transform="matrix(.01683 0 0 -.01683 -205.513 777.167)"/><path d="M18164 34889.8h-11.9c-972.4 3.9-1782.3 472.7-1793.6 792.6 0 1-12.3 287.3-31.1 724-29.3 684.4-75.2 1753.4-114.7 2672-10.7 248.7-20.8 485.8-30 700.1-18.6 433.9 51.7 503.1 692.9 866.3 94.3 53.5 697.5 347.7 693.8 626.4l58.5 1914.1h1017.3l49.8-1957.7c-1.3-262.4 800.8-712.5 800.8-712.5 552.1-311.3 643.6-406.9 623.8-826.8l-28.8-608.5-123.4-2605.7-39.2-828.4c-46.2-307.7-820.5-755.9-1764.2-755.9" style="fill:#443f5d;fill-opacity:1;fill-rule:nonzero;stroke:none" transform="matrix(.01683 0 0 -.01683 -205.513 777.167)"/><path d="M17850.1 40968.7c-67.5 0-122.3 54.8-122.3 122.3v341c0 67.5 54.8 122.3 122.3 122.3 67.6 0 122.3-54.8 122.3-122.3v-341c0-67.5-54.7-122.3-122.3-122.3" style="fill:#5e5975;fill-opacity:1;fill-rule:nonzero;stroke:none" transform="matrix(.01683 0 0 -.01683 -205.513 777.167)"/><path d="M19484.6 40526.2s-583 329.5-652.2 448.5c-154.7-32.7-386.8-111.6-574-121.5-393.1-20.8-668.2 120.1-793.6 191.9-73.1-143.2-520-359.6-615.2-411.4-294.1-160-707.8-307.6-666.9-855.2 16-213.9 19.3-451.4 30-700.1 39.5-918.6 85.4-1987.6 114.7-2672 18.8-436.7 31.1-723.1 31.1-724 11.3-319.9 821.2-788.7 1793.6-792.6 949.2-3.8 1729.7 446.9 1776.1 755.9l39.2 828.4 123.4 2605.7 28.8 608.5c19.8 419.9-71.7 504.4-635 837.9" style="fill:#261522;fill-opacity:1;fill-rule:nonzero;stroke:none" transform="matrix(.01683 0 0 -.01683 -205.513 777.167)"/><path d="M19606.7 35662.4h-.8c-62.5.6-111.8 52.2-110.2 115.5l90.2 3564.2c1.9 71.1 57 128.6 123.3 128.5h.7c66.7-.6 119-59.1 116.9-130.5l-104.3-3564.4c-1.9-63-53.7-113.5-115.8-113.3m-1785.5 5003.3-502.2-656.8c-25.2-33-72.2-39.5-105.4-14.5-109 81.9-233.1 159.6-412.4 190.5-66.6 11.4-86.2 97.5-31 136.3 255.9 179.8 674.6 437.9 805.3 517.8 23.9 14.7 54 14.9 78 .5 44.7-26.8 83.3-43.1 127-54.8 52.1-13.9 73.4-76.2 40.7-119M16505.6 39591l142.5-3821.9c2-51.9 27.8-100.6 69.9-131.4 87.1-63.9 241.7-171.5 358.3-221 47.1-20.1 91.1-35.6 130.2-47.6 85.1-26.1 169.3 37.2 167.1 126.3l-94.5 3923.5c-6 246.1-159.2 468.4-381.3 538.3-126.4 39.8-256.6 25.7-340.4-129.9-38.2-70.9-54.9-153.4-51.8-236.3" style="fill:#531747;fill-opacity:1;fill-rule:nonzero;stroke:none" transform="matrix(.01683 0 0 -.01683 -205.513 777.167)"/><path d="m20090.7 39079.8-123.3-2605.7c-64-59.2-140.5-117.8-229.6-173.3-69.7-43.5-147.1-85.1-232-123.4-316.6-143.7-738-244.6-1259.4-242.9-340.2 1.3-632.5 38.4-885.6 93.9-291.1 63.9-530.8 152.5-731.2 239l-.1.1c-112.4 48.4-212.3 96.3-302.2 138.9-29.2 684.4-75.1 1753.4-114.7 2672 87.5-34.1 193.2-73.9 316.4-115.2 207.5-69.3 464.2-142.8 765.8-199.4h.2c257.9-48.6 548.9-84.9 870.4-96.2 608.2-21.2 1064.8 76.2 1408.3 193.8h.1c87.8 30 168.2 61.5 241.7 92.5 105.1 44.1 196.3 87.8 275.2 125.9" style="fill:#e2f5f3;fill-opacity:1;fill-rule:nonzero;stroke:none" transform="matrix(.01683 0 0 -.01683 -205.513 777.167)"/><path d="m19815.5 38953.9-77.7-2653.1c-69.7-43.5-147.1-85.1-232-123.4l67.9 2684h.1c87.8 30 168.2 61.5 241.7 92.5m-2454.7-2925.5c-291.1 63.9-530.8 152.5-731.2 239l-.1.1-100.5 2695.7c207.5-69.3 464.2-142.8 765.8-199.4z" style="fill:#fff;fill-opacity:1;fill-rule:nonzero;stroke:none" transform="matrix(.01683 0 0 -.01683 -205.513 777.167)"/><path d="m16347.4 36419.6 10.3-4.8c382.9-181.8 961.7-456.5 1888.8-459.7h12.9c696.6 0 1325.9 197 1687.8 528.4l121.4 2562.8c-332.8-159.9-932.6-433.3-1903.9-399.2-869.5 30.5-1514.1 240.1-1930.1 400.7 38.9-905.8 83.8-1951.1 112.8-2628.2m1913-505.7h-14c-936.3 3.3-1520.1 280.4-1906.4 463.7l-32.6 15.5-.6 12.4c-29.3 684.4-75.2 1753.4-114.7 2672l-1.3 31.5 29.3-11.5c412.1-160.8 1062.1-378.2 1946-409.3 992.3-34.9 1593 254.6 1915.8 410.1l31.1 15-125.5-2648.6-6.1-5.7c-166.8-154.6-397.1-286-666.2-379.8-314.5-109.7-669.3-165.3-1054.8-165.3" style="fill:#231f20;fill-opacity:1;fill-rule:nonzero;stroke:none" transform="matrix(.01683 0 0 -.01683 -205.513 777.167)"/><path d="M18663.1 37082.8s58.2 47.3 102.3 27c44.2-20.3 67.9-119.6 51.8-143.7s-74.6-64.5-108.2-58c-33.6 6.6-102.1 89.1-88.2 126.6 14 37.5 42.3 48.1 42.3 48.1" style="fill:#352f4b;fill-opacity:1;fill-rule:nonzero;stroke:none" transform="matrix(.01683 0 0 -.01683 -205.513 777.167)"/><path d="M18670.5 37063.6c-1.6-.7-20.4-9.2-30.4-36.1-1.4-3.8-.8-15.5 10.5-35.5 18.8-33.6 50.3-61.3 62.4-63.7 22.5-4.5 73.5 28.9 87.1 49.3 2.8 5.2 2.9 29.8-7.1 59.7-9.1 27.1-23 47.7-36.1 53.8-26.6 12.2-68.4-14.1-80.9-24.3l-2.6-2.1zm45.8-176.7c-3.8 0-7.6.3-11.2 1-30.5 6-69.9 47.4-90.4 83.9-15.6 27.9-20 51.4-13.1 70 14.2 38.4 40.9 54.1 50.8 58.8 13.5 10.4 71.2 51 121.6 27.9 37.5-17.2 55.3-67.7 61.2-88.5 3.9-13.9 15.4-60.9-.9-85.3-17.5-26.2-74.7-67.8-118-67.8" style="fill:#231f20;fill-opacity:1;fill-rule:nonzero;stroke:none" transform="matrix(.01683 0 0 -.01683 -205.513 777.167)"/><path d="M18868.6 37045s58.2 47.3 102.4 27 67.9-119.6 51.8-143.7-74.6-64.5-108.2-58c-33.6 6.6-102.1 89.1-88.2 126.6 13.9 37.4 42.2 48.1 42.2 48.1" style="fill:#fff;fill-opacity:1;fill-rule:nonzero;stroke:none" transform="matrix(.01683 0 0 -.01683 -205.513 777.167)"/><path d="M18868.6 37045h.1zm7.5-19.2c-1.5-.6-20.4-9.1-30.4-36.1-1.4-3.8-.8-15.5 10.4-35.6 18.8-33.5 50.4-61.2 62.4-63.6 22.7-4.5 73.6 28.9 87.2 49.2 2.8 5.3 2.9 29.9-7.2 59.8-9.1 27.1-22.9 47.7-36.1 53.8-26.5 12.2-67.3-13.4-80.8-24.3l-2.6-2.1zm45.8-176.7c-3.9 0-7.6.3-11.2 1-30.5 6-69.9 47.3-90.4 83.9-15.7 27.8-20.1 51.4-13.2 70 14.3 38.4 41 54.1 50.8 58.7 13.6 10.5 71.3 51.1 121.7 28 37.5-17.3 55.3-67.7 61.2-88.6 3.9-13.8 15.4-60.8-.9-85.2-17.5-26.2-74.7-67.8-118-67.8" style="fill:#231f20;fill-opacity:1;fill-rule:nonzero;stroke:none" transform="matrix(.01683 0 0 -.01683 -205.513 777.167)"/><path d="M18562.1 37008.4c-24.3 18.8-28 53.2-18.9 87.3 10.6 39.9 38.7 79.4 71.8 92.4 19.8 7.8 41.6 7 61.4-.3l.9-.3c31.7-11.7 58.5-39.7 64.1-74.1 1.7-11 1.6-23.4-.1-36.2-2.1-16.3-6.8-33.2-13.7-48.5-15.4-34.5-41.3-61.3-71.7-55.4-23.7 4.6-74.4 20.2-93.8 35.1" style="fill:#66617b;fill-opacity:1;fill-rule:nonzero;stroke:none" transform="matrix(.01683 0 0 -.01683 -205.513 777.167)"/><path d="M18644.3 37173c-7.7 0-15-1.3-21.7-4-25.1-9.9-50.1-42.9-59.5-78.6-3-11.1-10.9-48.4 11.6-65.7 14.8-11.4 61.1-26.6 85.1-31.2 20.1-3.8 38.5 20 49 43.6 6.1 13.5 10.2 28.3 12.1 42.8 1.5 11.1 1.6 21.5.2 30.2-4.2 25.4-24.1 48.2-51 58.1-8.8 3.2-17.5 4.8-25.8 4.8m20.1-221.1c-4.1 0-8.2.4-12.4 1.2-24.1 4.7-78.9 20.9-102.4 39-28.8 22.2-38.6 62.9-26.3 108.9 12.9 48.8 46.8 91.5 84.2 106.3 23.4 9.2 50.4 9.2 76-.2 41.4-15.3 71.7-50.6 78.2-90.4 2-12.8 2.1-27 0-42.2-2.4-18.3-7.7-37.1-15.3-54.2-19.5-43.7-49.5-68.4-82-68.4" style="fill:#231f20;fill-opacity:1;fill-rule:nonzero;stroke:none" transform="matrix(.01683 0 0 -.01683 -205.513 777.167)"/><path d="M18436 36785.6c-10.7 17.6-14.7 40.3-7.3 59.5 7.5 19.1 30.6 40.2 56.1 45.7l-1.1 4.6c1-.9 2-1.8 3-2.6 13.6-11.4 29.8-21.5 47.8-30.2-7-35.8-.6-71.6 27.2-87.8 2.1-1.2 4.4-2.5 6.7-3.6v-.1c-3.4-16.1-24.8-36.3-40.7-37.9-10.2-1.1-20.5.9-30.2 4.5-5.5 2.1-10.9 4.6-16 7.4-18 9.7-34.7 22.8-45.5 40.5" style="fill:#2d2842;fill-opacity:1;fill-rule:nonzero;stroke:none" transform="matrix(.01683 0 0 -.01683 -205.513 777.167)"/><path d="M18453.6 36796.3c7.7-12.6 20.4-23.7 37.6-33.1 4.7-2.6 9.2-4.6 13.3-6.1 8-3 14.8-4.1 21-3.5 3.8.4 10.4 5.2 15.6 10.6-22.3 18.7-32.7 49.7-29.1 86.8-10.4 5.8-19.9 11.8-28.5 18.1-16.4-5.7-31.2-20.1-35.6-31.4-4.7-12.1-2.5-27.9 5.7-41.4m68.6-84c-10.1 0-20.8 2.1-31.9 6.2-6 2.1-12.3 5.1-18.7 8.6-23.7 12.8-41.6 28.9-53.1 47.8-15 24.5-18.3 53.6-8.9 77.7 8.2 21.1 28.1 40.7 50.9 51.4l-11.7 48.7 51.3-44.3c11.5-9.7 26.1-18.9 43.4-27.4l14.2-6.9-3-15.5c-2.3-11.8-7.8-51.3 17.3-66 1.7-1 3.4-1.9 5.3-2.8l18.9-9.1-8.4-16.8c-6.8-24.3-34.1-48.7-58-51.2-2.5-.3-5-.4-7.6-.4" style="fill:#231f20;fill-opacity:1;fill-rule:nonzero;stroke:none" transform="matrix(.01683 0 0 -.01683 -205.513 777.167)"/><path d="M18568.4 36771.2c-2.3 1.1-4.6 2.4-6.7 3.6-27.8 16.2-34.2 52-27.2 87.8 5.9 30.4 21.3 60.7 41.4 79.2 21.2 19.6 50.8 27.2 79.2 23.8 26.9-3.2 52.7-16.3 69.3-38.4 2.1-2.8 4-5.8 5.6-9.1 2.4-4.6 4.3-9.6 5.8-14.9 11.5-40.9-2.3-100.1-31-130q-4.35-4.65-9.3-8.4c-5.1-3.7-10.6-6.7-16.4-8.5-30.8-9.6-79.6-.7-110.7 14.9" style="fill:#66617b;fill-opacity:1;fill-rule:nonzero;stroke:none" transform="matrix(.01683 0 0 -.01683 -205.513 777.167)"/><path d="M18641.8 36945.8c-20 0-38.5-6.7-52-19.1-16.5-15.2-29.9-41.3-35.1-68-2.3-11.9-7.8-51.4 17.3-66.1 1.7-1 3.4-1.9 5.3-2.8l.4-.2c29.4-14.8 72.1-20.9 95.2-13.7 3.4 1.1 7 3 10.4 5.5 2.2 1.6 4.4 3.6 6.6 5.9 23.6 24.6 35.7 76.1 26.1 110.3-1.2 4.1-2.6 7.8-4.3 11.2-1.1 2.3-2.3 4.2-3.6 5.9-12.6 16.7-32.7 27.8-55.4 30.5-3.7.4-7.3.6-10.9.6m7.1-214.1c-31.3 0-65.5 9-89.5 21.1-2.8 1.3-5.5 2.7-8 4.2-32.9 19.2-46.7 60.1-37.1 109.5 6.8 35.4 24.6 69.2 47.6 90.4 24.8 22.8 59.7 33.4 95.7 29.1 33.7-4 64.1-21 83.3-46.5 2.8-3.6 5.3-7.8 7.5-12.2 2.9-5.7 5.4-12 7.2-18.6 13.5-47.8-2.6-115-35.9-149.7-3.8-4-7.8-7.7-12-10.7-7.2-5.3-14.8-9.2-22.5-11.6-11-3.5-23.4-5-36.3-5" style="fill:#231f20;fill-opacity:1;fill-rule:nonzero;stroke:none" transform="matrix(.01683 0 0 -.01683 -205.513 777.167)"/><path d="M18483.7 36895.4c-30 26.7-45.3 61.1-32.8 105.8 12.3 44.3 47.5 79.7 89.2 95.4l3.1-.9c-9.1-34.1-5.4-68.5 18.9-87.3 19.4-14.9 70.1-30.5 93.8-35.1l-.8-7.7c-28.4 3.4-58-4.2-79.2-23.8-20.1-18.5-35.5-48.8-41.4-79.2-18 8.7-34.2 18.8-47.8 30.2-1 .8-2 1.7-3 2.6" style="fill:#352f4b;fill-opacity:1;fill-rule:nonzero;stroke:none" transform="matrix(.01683 0 0 -.01683 -205.513 777.167)"/><path d="m18497.3 36910.8 2.8-2.4c6.3-5.3 13.4-10.4 21.5-15.3 8.9 25.2 23.2 48 40.3 63.8 7 6.5 14.9 12 23.3 16.4-14 5.7-27 12.1-35.6 18.8-20.2 15.6-31.1 40.3-31.5 69.6-22.9-16.4-40.1-39.9-47.4-66-9.3-33.5-.9-60.4 26.6-84.9m52.3-78.5-24.1 11.8c-20.4 9.9-37.9 21-52.1 33l-3.3 2.9c-39 34.6-52.5 78.4-39 126.8 13.6 48.7 52.6 90.5 101.8 109l6.4 2.4 29-8.3-5.3-19.5c-2.9-11.1-10.8-48.4 11.7-65.7 14.8-11.4 61.1-26.6 85.1-31.2l18.3-3.6-4.5-47.2-20.9 2.5c-24.1 2.9-47-3.9-62.9-18.5-16.5-15.2-29.9-41.3-35.1-68z" style="fill:#231f20;fill-opacity:1;fill-rule:nonzero;stroke:none" transform="matrix(.01683 0 0 -.01683 -205.513 777.167)"/><path d="M18851.9 37074.6c-10.6 2.1-21.4 2.7-32.2 1.6-8.7-.7-17.4-2.6-25.6-5.4l-.1-.1c-17.6-1.8-35.7.2-51 6.2l-1.7.3c1.7 12.8 1.8 25.2.1 36.2-5.6 34.4-32.4 62.4-64.1 74.1l-.9.3 1.3 4.1c2.7 37.3 37 59 74.1 63.3 38.1 4.3 73.2-14.7 103.5-39.4 50.8-41.3 17.6-138.1-3.4-141.2" style="fill:#2b2640;fill-opacity:1;fill-rule:nonzero;stroke:none" transform="matrix(.01683 0 0 -.01683 -205.513 777.167)"/><path d="M18763.2 37092.4c8.3-1.7 17.4-2.2 26.5-1.4 1.7.5 3.5 1.1 5.2 1.5l1.5.5h.1c7 1.8 14.2 3.1 21.4 3.7 9.6.9 19.4.8 29.2-.5 5.6 8.2 14.4 29.9 14.4 54.9 0 15.1-3.3 35.8-19.2 48.8-32.7 26.5-61.5 37.8-88.2 34.8-21.6-2.5-47-13.1-54.1-34.9 32.6-17.5 56.1-48.6 61.7-83.1 1.2-7.6 1.7-15.8 1.5-24.3m28.9-44.1-2.6 1.4c-18.2-1-36.3 1.5-51.9 7.3l-19.3 3.1 2.6 19.8c1.5 11.1 1.6 21.5.2 30.2-4.2 25.4-24.1 48.2-51 58.1l-18.4 6.8 5.7 20.9c4.4 42 41 73.8 92 79.7 38.3 4.4 77.2-10 118.8-43.8 37.6-30.6 39.5-83.4 28.7-122.6-4.2-15.3-16.8-51.3-42-54.9l-3.5-.6-3.4.7c-8.8 1.7-17.6 2.2-26.4 1.3q-6.75-.6-13.2-2.1l-1.1-2.2-8.8-.9z" style="fill:#231f20;fill-opacity:1;fill-rule:nonzero;stroke:none" transform="matrix(.01683 0 0 -.01683 -205.513 777.167)"/><path d="M18511.9 36677.1c-10.6 14.7-17.6 41.7-14.8 59.6l.4 1c9.7-3.6 20-5.6 30.2-4.5 15.9 1.6 37.3 21.8 40.7 37.9v.1c31.1-15.6 79.9-24.5 110.7-14.9 5.8 1.8 11.3 4.8 16.4 8.5q4.95 3.75 9.3 8.4c1.7-1.6 5.9-7.3 6.4-10.3-2.3-1.3-4.3-2.8-6.3-4.4-23-19.4-31-59.2-26.8-97.6-22.8-16.1-69.3-32.7-96.7-27.9-27.5 4.9-52.9 21-69.5 44.1" style="fill:#1b192d;fill-opacity:1;fill-rule:nonzero;stroke:none" transform="matrix(.01683 0 0 -.01683 -205.513 777.167)"/><path d="M18528.6 36689.1c13.5-18.8 34.1-31.8 56.4-35.8 17.2-3 50.2 6.8 71.6 18.5-1 22.4 1.7 43.1 7.9 60.7-28-3-60.1 2.7-86.2 12.2-11.8-16.6-31.1-30.2-48.5-32q-5.25-.6-10.8-.3c2.1-8.8 5.5-17.6 9.6-23.3m63.3-77.5q-7.35 0-14.1 1.2c-32.8 5.8-62.8 24.9-82.6 52.3-14.1 19.6-22 51.8-18.4 74.8l.8 3.3 6.8 20.2 20.3-6.4c7.9-2.9 14.6-4 20.8-3.4 6.4.7 21.1 13.8 22.8 21.8l.5 2.6 10.4 20.7 18.5-9.1c29.4-14.8 72.1-20.9 95.2-13.7 3.4 1.1 7 3 10.4 5.5 2.2 1.6 4.4 3.6 6.6 5.9l14.2 15 14.9-14.2c.1-.1 10.5-10.5 12.4-21.8l2.4-13.9-12.1-7.2c-1.3-.8-2.6-1.7-3.8-2.7-15.5-13.1-23.2-44.3-19.4-79.4l1.4-12-9.9-7c-21.2-15-63.9-32.5-98.1-32.5" style="fill:#231f20;fill-opacity:1;fill-rule:nonzero;stroke:none" transform="matrix(.01683 0 0 -.01683 -205.513 777.167)"/><path d="M18809.4 36786c39.6-6.1 69.4-59.1 76-109.5v-.3q.15-2.1.6-4.2v-.3c2.4-23.8-.6-46.7-10.3-63.4-30.8-52.9-108.3-69.8-157.4-33.3-22.3 16.6-36.4 50.7-40.2 85.9-4.2 38.4 3.8 78.2 26.8 97.6 2 1.6 4 3.1 6.3 4.4l.9.6c29.2 17.1 63.9 27.6 97.3 22.5" style="fill:#1b192d;fill-opacity:1;fill-rule:nonzero;stroke:none" transform="matrix(.01683 0 0 -.01683 -205.513 777.167)"/><path d="m18722.7 36745.9-.1-.1zm.8.4-1.8-1.1c-1.3-.8-2.6-1.7-3.8-2.7-15.5-13.1-23.2-44.3-19.4-79.4 3.5-31.6 16-59.7 32.1-71.6 18.4-13.6 43.2-18.5 68.1-13.4 25.7 5.2 47.3 20 59.2 40.6 6.8 11.6 9.6 28.9 7.8 48.8l-1.9 5.9 1 2.1c-6.4 45.9-32.5 86.1-58.6 90.1-25 3.9-54.4-3-82.7-19.3m56-211.3c-26.9 0-52.7 8.1-73.5 23.5-25.5 19-43.6 56.4-48.4 100.2-5.4 49.7 7.3 92.9 34.1 115.5 2.6 2.1 4.9 3.8 7.2 5.3l2.1 1.3c37.5 21.9 76.8 30.8 111.5 25.5 51.4-7.9 85.9-69.9 93.3-127.1l.2-2.5.1-.2.2-1.4 1.2-6-.6-1.1c1.5-20.4-.2-47.4-13.4-70.1-17.9-30.6-49.4-52.5-86.5-60.1-9.2-1.9-18.4-2.8-27.5-2.8" style="fill:#231f20;fill-opacity:1;fill-rule:nonzero;stroke:none" transform="matrix(.01683 0 0 -.01683 -205.513 777.167)"/><path d="M18978 36822.3c-28.9-4.1-56.4-16.9-66.5-37.5-15.9-32.2-28-72.1-26.1-108.3-6.6 50.4-36.4 103.4-76 109.5-33.4 5.1-68.1-5.4-97.3-22.5l-.9-.6c-.5 3-4.7 8.7-6.4 10.3 28.7 29.9 42.5 89.1 31 130l2.4.7c1.8.5 3.6.9 5.4 1.4l1.4.9c9.3-13.9 22.2-24.2 38.6-28.1 24.8-5.7 77.1-4 101.3 3.3 26.4 8 41.9 32.8 47 61.7h.2c-8.6-45.8 6.9-103.7 45.9-120.8" style="fill:#100f0d;fill-opacity:1;fill-rule:nonzero;stroke:none" transform="matrix(.01683 0 0 -.01683 -205.513 777.167)"/><path d="M18792.4 36807.8q10.2 0 20.1-1.5c27-4.2 49.3-23.2 65.5-48.7 5 14.7 10.6 27.2 15 36.3 7.8 15.7 22.7 28.7 42.4 37.6-9.2 12.2-15.9 26.9-20.2 42.5-7.3-5.4-15.5-9.6-24.3-12.3-27.4-8.3-83.9-10.1-111.9-3.6-6.6 1.6-12.9 3.9-18.8 7-.8-21.8-5.8-44.4-14.2-64.5 15.7 4.8 31.4 7.2 46.4 7.2m-69.7-61.9-.1-.1zm142.3-72c-6 46.5-32.4 87.7-58.8 91.7-25 3.9-54.4-3-82.7-19.3l-26.6-22.9-5.6 33.9-1.2 1.6-14.9 14.2 14.8 14.3c23.5 24.5 35.6 76 26 110.2l-5.6 19.8 24.8 7 15.6 10.3 11.3-17.1c7-10.4 15.8-17 26.2-19.4 21.4-5 69.7-3.4 90.6 2.9 23.5 7.1 30.8 34.3 32.8 45.6l3.4 19.6 41-5.9-3.8-21.1c-7-37.2 5-85.5 33.9-98.2l66.4-29.1-71.8-10.1c-24.4-3.4-44.8-13.9-50.9-26.2-16.7-34-25.4-69.7-23.9-98.1z" style="fill:#231f20;fill-opacity:1;fill-rule:nonzero;stroke:none" transform="matrix(.01683 0 0 -.01683 -205.513 777.167)"/><path d="M18911.5 36784.8c10.1 20.6 37.6 33.4 66.5 37.5 3-1.4 6.3-2.5 9.7-3.3 12.2-3 30.6-3.4 49.4-2.2 3.3-1.3 6.4-2.8 9.2-4.6 43.2-27.1 45.9-93.2 23.7-139.5-16.3-34.1-44.8-63.8-80.8-72.3-34.6-8.3-96.6 34.2-103.2 71.3v.3c-.2 1.4-.3 2.8-.6 4.2v.3c-1.9 36.2 10.2 76.1 26.1 108.3" style="fill:#2f2a44;fill-opacity:1;fill-rule:nonzero;stroke:none" transform="matrix(.01683 0 0 -.01683 -205.513 777.167)"/><path d="M18906.4 36674.6c2.6-12 16.7-28.4 34.8-40.2 18.7-12.3 35.2-15.9 43.2-14 26.7 6.3 51.7 29.1 67 61.1 18.4 38.4 16.3 93-16 113.3l-2.1 1.2c-15.6-.8-35.4-.6-50.4 3q-3.75.9-7.2 2.1c-22.1-4.1-40.2-14-45.8-25.3-16.6-33.9-25.3-69.4-23.9-97.7l.3-2.6zm73.4-95.8c-18.5 0-40.1 7.3-61.2 21.1-28.2 18.5-47.8 43.3-52.6 66.7l-2.2 6.8 1.1 2.8c-2.5 47.4 16.5 94.1 28.1 117.7 12.4 25 43 43.3 82.1 48.8l5.9.8 5.5-2.5c1.8-.8 3.8-1.5 5.9-2 9.2-2.2 25-2.8 43.4-1.7l4.6.3 4.2-1.6c4.5-1.8 8.7-3.9 12.6-6.4 53.3-33.4 57.8-110.6 31.3-165.8-20.9-43.8-55.4-74.2-94.6-83.5-4.4-1-9.2-1.5-14.1-1.5" style="fill:#231f20;fill-opacity:1;fill-rule:nonzero;stroke:none" transform="matrix(.01683 0 0 -.01683 -205.513 777.167)"/><path d="M18978 36822.3c-39 17.1-54.5 75-45.9 120.8.9 4.9 2.1 9.7 3.6 14.2 8.4 26.3 27.1 48.1 50.3 61.8l1.8 1c21.1 12.1 45.9 17.4 69.9 13.4 44.1-7.4 82-45.1 90.7-90.1 8.6-45-8.8-103.9-51.3-117.1-14.3-4.4-28.1-13.8-50.5-15.1-8.2-3.1-30.3-.8-41 0-9.7.8-16 5.8-27.6 11.1" style="fill:#45405c;fill-opacity:1;fill-rule:nonzero;stroke:none" transform="matrix(.01683 0 0 -.01683 -205.513 777.167)"/><path d="M19041.8 37014.3c-14.8 0-30-4.2-43.9-12.1l-1-.5c-20-11.9-35.1-30.2-41.7-50.7-1.2-3.7-2.2-7.6-2.9-11.6-7-37.3 5-85.6 33.9-98.3l.2-.1c3.8-1.7 7.1-3.4 10.2-4.9 5.3-2.8 8-4.1 10.5-4.3l4.4-.4c6.5-.5 23.6-1.9 28.5-.8l2.9 1.1h2.4c12.1.7 21.1 4.5 30.6 8.5 4.8 2 9.8 4.1 15.1 5.8 30.6 9.5 44.2 56.9 37.2 93.6-7 36.6-38.2 67.6-73.9 73.6-4.1.7-8.3 1.1-12.5 1.1m-8.8-225.2c-7.4 0-15.7.6-24.8 1.3l-4.2.3c-10.9.9-18.8 4.9-26.3 8.8-2.4 1.3-5.1 2.6-8.1 4-48.9 21.5-67.8 89.8-57.7 143.4 1 5.6 2.4 11.3 4.2 16.8 9.8 30.3 30.9 56.3 59.5 73.2l1.4.8c26.6 15.1 56.3 20.7 84 16.1 53-8.9 97.3-52.7 107.6-106.5 10.5-54.6-11.6-123.9-65.4-140.6-3.8-1.2-7.4-2.8-11.3-4.4-10.6-4.5-23.8-10-41.6-11.5-5-1.3-10.8-1.7-17.3-1.7" style="fill:#231f20;fill-opacity:1;fill-rule:nonzero;stroke:none" transform="matrix(.01683 0 0 -.01683 -205.513 777.167)"/><path d="M18927.9 36993.2c122.6-25.5 204.6 178.7 76.9 234.8-81.4 35.8-179.2-32-164.6-125.9 8.4-53.7 48.8-75.6 87.7-108.9" style="fill:#352f4b;fill-opacity:1;fill-rule:nonzero;stroke:none" transform="matrix(.01683 0 0 -.01683 -205.513 777.167)"/><path d="M18937 37012.4c50.1-7.4 90.9 33.5 105.5 79.3 13.2 41.3 8 93.8-46 117.5-32.2 14.2-70.3 9.1-99.3-13.3-28.4-21.8-42.1-55.7-36.6-90.7 5.6-36.1 29.2-54.9 59.1-78.8 5.7-4.5 11.5-9.1 17.3-14m12.3-42.1c-8.3 0-16.8.9-25.6 2.7l-5.1 1.1-4 3.4c-6.9 5.9-13.8 11.4-20.5 16.8-32.5 25.9-66.1 52.7-74.2 104.6-7.8 50.1 11.7 98.5 52.2 129.6 41 31.6 95 38.6 141 18.4 74-32.6 87.8-107.7 68.6-167.7-18.4-57.4-68.2-108.9-132.4-108.9" style="fill:#231f20;fill-opacity:1;fill-rule:nonzero;stroke:none" transform="matrix(.01683 0 0 -.01683 -205.513 777.167)"/><path d="M18794 37070.7c-17.9-6.1-34.1-16.9-45.7-32.5-3.5-4.7-6.6-9.8-9.2-15.3-15.4-32.1-15.1-75.4.2-106.6 1.7-3.5 3.6-6.9 5.7-10.1 9.3-13.9 22.2-24.2 38.6-28.1 24.8-5.7 77.1-4 101.3 3.3 26.4 8 41.9 32.8 47 61.7 4 22.1 1.9 46.7-6 68.1-4.4 12-10.5 23.1-18.4 32.2-14.5 16.6-34.3 26.9-55.3 31.2h-.3c-10.6 2.1-21.4 2.7-32.2 1.6-8.7-.7-17.4-2.6-25.6-5.4z" style="fill:#66617b;fill-opacity:1;fill-rule:nonzero;stroke:none" transform="matrix(.01683 0 0 -.01683 -205.513 777.167)"/><path d="m18789.1 37085.1 11.5-33.9c-14.8-5-27.2-13.8-35.8-25.3-2.7-3.5-5.1-7.5-7.1-11.8-12.6-26.4-12.6-62.9 0-88.7 1.3-2.7 2.8-5.2 4.5-7.9 6.9-10.3 15.7-16.9 26.1-19.3 21.4-5 69.7-3.4 90.6 2.9 23.5 7.1 30.8 34.3 32.8 45.6 3.3 18.7 1.5 39.6-5.1 57.5-3.7 10.1-8.7 18.8-14.6 25.6-10.9 12.5-26.1 21-43.9 24.6-8.8 1.7-17.7 2.2-26.5 1.3-7.2-.6-14.1-2.1-20.7-4.4zm34.6-230.9c-17 0-33.3 1.2-44.7 3.9-20.7 4.9-38.4 17.6-51.1 36.7-2.8 4.3-5.1 8.4-7.2 12.6-18 36.9-18.1 86.9-.2 124.4 3.3 6.9 7.2 13.2 11.4 18.8 13.5 18.1 32.7 31.9 55.5 39.6 9.8 3.4 20.1 5.6 30.5 6.5 12.5 1.2 25.4.6 38-1.9 27.1-5.4 50.2-18.5 67.1-37.9 9.3-10.7 16.7-23.7 22.2-38.6 9.2-24.8 11.6-52.9 7-78.8-7.1-39.7-29.4-68.1-61.3-77.8-16.2-4.9-42.5-7.5-67.2-7.5" style="fill:#231f20;fill-opacity:1;fill-rule:nonzero;stroke:none" transform="matrix(.01683 0 0 -.01683 -205.513 777.167)"/><path d="M18420.9 36745.7s75.7-12.3 91.4-59.3c15.8-47.1-41.3-131.6-70.5-135.6-29.1-4-99.9 13.1-118.5 42.9-18.5 29.8-5.1 137 32.4 151.7 37.6 14.6 65.2.3 65.2.3" style="fill:#1b192d;fill-opacity:1;fill-rule:nonzero;stroke:none" transform="matrix(.01683 0 0 -.01683 -205.513 777.167)"/><path d="M18389.9 36731.4c-7.5 0-16.6-1.2-26.7-5.2-3.6-1.4-11.5-9.3-18.3-29.9-12.4-37.2-11-80.6-4.1-91.7 12.7-20.4 73.4-36.8 98.2-33.4 5.7 1.3 23.7 17.3 38.7 44.3 14.1 25.4 19.9 50.1 15.2 64.3-9.7 28.8-58.8 43-75.3 45.6l-3.2.6-2.7 1.4c-1 .4-9.2 4-21.8 4m42.9-201.7c-38.4 0-105.3 18.4-126.9 53.1-17 27.2-13.2 86.8-.1 126.5 9.9 29.5 24.1 48.1 42.5 55.2 38 14.9 68.5 5.2 78.6 1.1 16.6-3.1 87.1-19.3 104.9-72.7 13.5-40.2-11.9-87.9-23.5-106.5-7.5-12.1-34.4-52-63.7-56-3.5-.5-7.5-.7-11.8-.7" style="fill:#231f20;fill-opacity:1;fill-rule:nonzero;stroke:none" transform="matrix(.01683 0 0 -.01683 -205.513 777.167)"/><path d="M18536.2 36564.8s75.7-12.3 91.4-59.4c15.8-47-41.3-131.6-70.5-135.6-29.1-4-99.9 13.1-118.5 43-18.5 29.8-5.1 137 32.4 151.6 37.6 14.7 65.2.4 65.2.4" style="fill:#fff;fill-opacity:1;fill-rule:nonzero;stroke:none" transform="matrix(.01683 0 0 -.01683 -205.513 777.167)"/><path d="M18505.2 36550.5c-7.5 0-16.6-1.3-26.7-5.2-3.6-1.4-11.5-9.3-18.3-30-12.4-37.1-11-80.5-4.1-91.7 12.6-20.3 73.4-36.8 98.2-33.4 5.7 1.4 23.7 17.4 38.7 44.4 14.1 25.4 19.9 50 15.1 64.3-9.6 28.7-57.6 42.7-75.2 45.6l-3.2.5-2.7 1.4c-.9.4-9.1 4.1-21.8 4.1m42.8-201.8c-38.3 0-105.2 18.4-126.8 53.2-17 27.2-13.2 86.8-.1 126.4 9.8 29.5 24.1 48.2 42.5 55.3 38 14.8 68.5 5.1 78.6 1 16.6-3.1 87.1-19.2 104.9-72.6 13.5-40.2-12-87.9-23.5-106.6-7.6-12.1-34.4-51.9-63.7-55.9-3.5-.5-7.5-.8-11.9-.8" style="fill:#231f20;fill-opacity:1;fill-rule:nonzero;stroke:none" transform="matrix(.01683 0 0 -.01683 -205.513 777.167)"/><path d="M18295.3 36772.2c-3.1 31 19.9 56.9 51.6 72.9 37 18.8 85.9 24 118.7 7.7 19.5-9.7 34.1-26.8 42.6-46.7l.3-.8c13.5-31.9 11.4-70.9-10.3-98.3-6.9-8.7-16.2-17-26.9-24.2-13.5-9.4-29.4-17.1-45.5-22.2-36.4-11.5-74.3-9.9-91.2 17.1-13.1 21-36.9 69.8-39.3 94.5" style="fill:#612259;fill-opacity:1;fill-rule:nonzero;stroke:none" transform="matrix(.01683 0 0 -.01683 -205.513 777.167)"/><path d="M18419.1 36841.9c-20.6 0-43.3-5.2-62.9-15.1-13.1-6.6-43.2-24.9-40.4-52.6 1.8-19 22.9-64.3 36.3-85.6 11.4-18.3 42.3-16.3 67.5-8.4 14.2 4.5 28.1 11.2 40.1 19.5 9.2 6.3 17 13.3 22.4 20.1 15.9 20.1 18.8 50.5 7.5 77.5-7.3 17.2-19 30.1-33.1 37.1-10.2 5-23.3 7.5-37.4 7.5m-33.6-208.7c-30.3 0-54.5 11.5-68.3 33.6-13.4 21.3-39.5 73.5-42.4 103.3-3.6 36.8 19.9 71.7 62.8 93.4 45.1 22.9 100.2 26 137.1 7.7 23-11.3 41.6-31.6 52.4-57 17.5-41.5 12.3-88.3-12.7-119.9-8.1-10.3-18.7-19.8-31.5-28.5-15.2-10.5-32.9-19.1-50.9-24.8-16.6-5.2-32.2-7.8-46.5-7.8" style="fill:#231f20;fill-opacity:1;fill-rule:nonzero;stroke:none" transform="matrix(.01683 0 0 -.01683 -205.513 777.167)"/><path d="M18042 36718c5.6 20 19.6 38.3 39.1 45.5 19.3 7.2 51.1 3.8 73-11.8l2.6 3.9c.1-1.3.1-2.6.2-4 1-17.9 4.8-36.9 10.9-56.4-31.4-18.8-53.6-47.6-46.2-79.5.6-2.5 1.2-5 2-7.5h-.1c-14.3-8.3-44.1-5.7-56.5 5.3-7.9 7-13.6 16.1-17.7 25.9-2.3 5.5-4.2 11.3-5.7 17.1-5.3 20-7.2 41.5-1.6 61.5" style="fill:#1b192d;fill-opacity:1;fill-rule:nonzero;stroke:none" transform="matrix(.01683 0 0 -.01683 -205.513 777.167)"/><path d="M18061.8 36712.4c-4-14.2-3.4-31.3 1.7-50.7 1.4-5.3 3-10.1 4.8-14.2q5.1-12.15 12.3-18.6c3.3-2.9 11.5-4.8 19.1-5-1.6 29.4 14.2 58 44.2 80.1-3 11.8-5.2 23.2-6.5 34-16 8.9-37.4 10.6-49.1 6.2-12.1-4.5-22.3-16.7-26.5-31.8m39.1-129.7c-17.8 0-36.2 5.4-47.6 15.4-9.5 8.4-17.2 19.6-22.9 33.4-2.6 5.9-4.8 12.6-6.7 19.8-7 26.5-7.5 50.8-1.5 72.2v.1c7.8 27.9 27.2 50 51.7 59.2 21.4 8 49.8 6 73.6-4l27.2 40.6 2.7-66.7c.9-15.3 4.2-32.7 10-51.5l4.8-15.4-13.9-8.3c-10.3-6.1-43.3-28.4-36.6-57.2.4-1.8.9-3.8 1.5-5.9l6.9-21.4-19.5-4.3c-8.5-4.1-19-6-29.7-6" style="fill:#231f20;fill-opacity:1;fill-rule:nonzero;stroke:none" transform="matrix(.01683 0 0 -.01683 -205.513 777.167)"/><path d="M18123.6 36608.2c-.8 2.5-1.4 5-2 7.5-7.4 31.9 14.8 60.7 46.2 79.5 26.6 16 60 24.6 87.7 21.9 29.3-3 55.6-20.2 72.9-44 16.4-22.5 24.6-50.8 19.8-78.3-.6-3.4-1.5-6.9-2.8-10.3-1.8-4.8-4.1-9.7-7.1-14.3-22.3-36.2-75.8-65.5-118.1-63.9-4.3.1-8.5.6-12.7 1.4-6.3 1.4-12.3 3.6-17.8 6.8-28.6 16.8-56 59.7-66.1 93.7" style="fill:#92598f;fill-opacity:1;fill-rule:nonzero;stroke:none" transform="matrix(.01683 0 0 -.01683 -205.513 777.167)"/><path d="M18244.9 36697c-21.2 0-45.9-7.1-66.6-19.5-10.3-6.1-43.3-28.4-36.6-57.2.4-1.8.9-3.8 1.5-5.9l.2-.4c9.6-32.3 35.1-69 56.8-81.8 3.3-1.9 7.2-3.4 11.6-4.3 2.8-.6 5.8-1 9-1.1h2.6c34.5 0 79.3 24.8 97.4 54.2 2.2 3.5 4 7 5.3 10.6.9 2.3 1.5 4.5 1.8 6.7 3.7 20.7-2.2 43.5-16.1 62.7-14.9 20.4-36.1 33.4-58.4 35.6-2.8.3-5.6.4-8.5.4m-21.5-211.4c-1.3 0-2.6.1-3.9.1-5.5.2-11 .8-16.2 1.9-8.8 1.9-16.9 4.9-24 9.1-34.9 20.6-64.3 68.6-75.3 105.4-1 3-1.7 5.9-2.4 8.8-8.7 37.9 12.1 76 55.6 101.9 31.1 18.7 68.6 27.9 100.3 24.8 33.9-3.5 65.8-22.6 87.5-52.4 20.5-28.1 29-62.4 23.5-93.9-.8-4.6-2.1-9.4-3.8-14-2.3-6.1-5.3-12.2-8.9-18-25.5-41.3-84.1-73.7-132.4-73.7" style="fill:#231f20;fill-opacity:1;fill-rule:nonzero;stroke:none" transform="matrix(.01683 0 0 -.01683 -205.513 777.167)"/><path d="M18156.7 36755.6c-1.2 40.7 13.8 75.3 55.7 96 41.4 20.3 92.2 17.5 133-3.6l1.5-2.9c-31.7-16-54.7-41.9-51.6-72.9 2.4-24.7 26.2-73.5 39.3-94.5l-6.2-4.6c-17.3 23.8-43.6 41-72.9 44-27.7 2.7-61.1-5.9-87.7-21.9-6.1 19.5-9.9 38.5-10.9 56.4-.1 1.4-.1 2.7-.2 4" style="fill:#63235b;fill-opacity:1;fill-rule:nonzero;stroke:none" transform="matrix(.01683 0 0 -.01683 -205.513 777.167)"/><path d="m18177.3 36756.3.1-3.6c.5-8.7 1.8-18 3.9-27.8 25.2 10.4 52.4 15 76.2 12.7 9.6-1 19-3.2 28.1-6.6-5.5 14.3-9.7 28.2-10.8 39.1-2.5 26 8.4 51 30.1 71.1-28.5 6.7-58.6 4.1-83.4-8.1-31.2-15.3-45.3-39.7-44.2-76.8m146.6-112.1-12.1 16.8c-14.9 20.4-36.1 33.4-58.4 35.6-22.8 2.3-51.6-5-75.1-19.1l-22.4-13.4-7.8 25c-6.8 22-10.7 42.7-11.8 61.4l-.1 4.5c-1.6 52.9 21.7 92.7 67.1 115 45.7 22.4 103.7 21 151.5-3.7l5.9-3.1 13.9-27.1-18.5-9.3c-13-6.6-43.1-24.9-40.3-52.6 1.8-19 22.9-64.3 36.3-85.6l10.1-16.2z" style="fill:#231f20;fill-opacity:1;fill-rule:nonzero;stroke:none" transform="matrix(.01683 0 0 -.01683 -205.513 777.167)"/><path d="M18546.6 36597.3c-5.9 9.4-13.1 18-21.4 25.5-6.6 6.1-14 11.4-21.8 15.7l-.2.1c-13.6 12.1-24.7 27.1-30.9 42.7l-1 1.5c10.7 7.2 20 15.5 26.9 24.2 21.7 27.4 23.8 66.4 10.3 98.3l-.3.8 3.9 1.8c29.6 23.1 69.6 11.6 98.6-13.6 29.9-25.9 40.1-65.2 43-104.7 4.8-66.2-90.3-106.1-107.1-92.3" style="fill:#612259;fill-opacity:1;fill-rule:nonzero;stroke:none" transform="matrix(.01683 0 0 -.01683 -205.513 777.167)"/><path d="M18520.4 36652.3c6.6-4.2 12.9-9 18.8-14.3 7.4-6.8 14.2-14.4 20.1-22.8 9.9 1 32.4 8.8 51.2 25.9 11.2 10.1 24.2 26.4 22.7 47-3.1 42.7-14.9 72.4-36 90.7-17.1 14.8-42.8 27.1-64 17.9 9.6-36.4 2.9-75-18.8-102.4-4.8-6.1-10.5-11.9-16.9-17.4 3.3-5.4 7.3-10.6 11.8-15.6l7.4 1.9zm36.6-78.3c-8.6 0-16.9 2-23.5 7.4l-2.6 2.2-1.8 2.9c-4.9 7.8-10.8 14.9-17.6 21-3.7 3.4-7.5 6.4-11.5 9l-2.3-.6-6.4 5.7-4.9 2.7-.9 2.6c-13.7 13.2-24.7 28.9-31.4 44.7l-11.3 16.6 17 11.6c9.1 6.2 16.9 13.2 22.3 20 15.9 20.1 18.8 50.5 7.5 77.5l-7.8 18.6 19.8 9.8c34.1 24.8 83 18.6 122.6-15.8 29.7-25.9 46.1-64.7 50-118.8 3.5-47.9-33.2-84.6-68.6-103-8-4.1-29.2-14.1-48.6-14.1" style="fill:#231f20;fill-opacity:1;fill-rule:nonzero;stroke:none" transform="matrix(.01683 0 0 -.01683 -205.513 777.167)"/><path d="M18014.4 36587.8c3.5 17.8 18.6 41.3 33.9 51.2l1 .4c4.1-9.8 9.8-18.9 17.7-25.9 12.4-11 42.2-13.6 56.5-5.3h.1c10.1-34 37.5-76.9 66.1-93.7 5.5-3.2 11.5-5.4 17.8-6.8 4.2-.8 8.4-1.3 12.7-1.4 0-2.4-1.3-9.3-3.2-11.7-2.5.8-5 1.3-7.6 1.7-30.4 4.4-65.6-16.2-91.2-45.2-27.8 6.4-72.6 30.6-88.1 54.5-15.5 24.1-21.3 54.1-15.7 82.2" style="fill:#1b192d;fill-opacity:1;fill-rule:nonzero;stroke:none" transform="matrix(.01683 0 0 -.01683 -205.513 777.167)"/><path d="M18034.5 36583.8c-4.5-22.9.2-47.4 12.9-67 10.2-15.8 40.7-34.1 64.5-42.4 15.9 15.8 33.1 27.6 50.4 34.8-21.9 19.1-40.3 47.7-51.5 74-20.4-2.4-44 3-57.5 14.9-2.9 2.5-5.6 5.4-8.2 8.5-5.1-7.4-9.2-15.9-10.6-22.8m91-155.5-11.9 2.8c-29.4 6.8-80.8 32.5-100.8 63.3-18.4 28.6-25.2 64-18.6 97.4 4.7 23.9 23.2 51.6 43 64.4l3 1.7 19.1 8.2 9-18.8c3.4-7.9 7.5-14.1 12.3-18.4 5.7-5 25.9-6.8 32.7-2.9l2.7 1.6 21.8 4.8 5.6-18.4c9.6-32.3 35.1-69 56.8-81.8 3.3-1.9 7.2-3.4 11.6-4.3 2.8-.6 5.8-1 9-1.1l20.3-.6-.3-20.2c0-.2-.4-14.9-7.6-24.1l-8.7-11.2-13.6 4.2c-1.6.5-3.2.8-4.8 1.1-20.5 3-49.1-12.1-72.5-38.5z" style="fill:#231f20;fill-opacity:1;fill-rule:nonzero;stroke:none" transform="matrix(.01683 0 0 -.01683 -205.513 777.167)"/><path d="M18302.6 36435.8c23.2-34.1 4.7-92.3-28.1-131.1l-.3-.2c-.9-1-1.9-2.1-2.7-3.2l-.2-.2c-16-17.8-35.1-31-54.2-34.8-60.9-12.2-127.4 35.1-134.5 96.7-3.3 28 12.2 61.6 35.6 88.1 25.6 29 60.8 49.6 91.2 45.2 2.6-.4 5.1-.9 7.6-1.7l1.2-.3c32.9-10.7 65-29.9 84.4-58.5" style="fill:#db5e80;fill-opacity:1;fill-rule:nonzero;stroke:none" transform="matrix(.01683 0 0 -.01683 -205.513 777.167)"/><path d="M18200.8 36476.4c-20 0-45.8-14.7-67.2-38.9-20.9-23.7-33-52-30.6-72.1 2.7-23.3 16.6-45.6 38.1-61.3 21.9-16 48.2-22.4 71.9-17.6 13.3 2.6 27.9 12 41.4 26.6l3.1 5.7 2.5.7c29.3 35.6 40.8 82.3 25.6 104.7-14.8 21.8-40.6 39.6-72.7 50.2l-2 .5c-1.6.5-3.2.8-4.8 1.1-1.7.2-3.5.4-5.3.4m-3.4-232.6c-27.8 0-56.2 9.4-80.5 27-30.8 22.4-50.7 55.2-54.8 89.9-3.7 32.1 11.5 71 40.7 104.1 33.3 37.6 74.2 57 109.5 51.9 3.6-.6 6.6-1.3 9.5-2.1l1.7-.5c42.3-13.6 76.1-37.2 96.1-66.8 30-44.1 7.9-111.8-29.4-155.8l-1.6-1.8-.2-.1-1-1.3-3.8-5.2-1.2-.3c-14.2-14.7-35.3-31.5-61.3-36.7-7.8-1.5-15.7-2.3-23.7-2.3" style="fill:#231f20;fill-opacity:1;fill-rule:nonzero;stroke:none" transform="matrix(.01683 0 0 -.01683 -205.513 777.167)"/><path d="M18447.2 36332.5c-23.2 19.2-51.9 31.4-74.2 25.2-35-9.6-73-27.2-98.5-53 32.8 38.8 51.3 97 28.1 131.1-19.4 28.6-51.5 47.8-84.4 58.5l-1.2.3c1.9 2.4 3.2 9.3 3.2 11.7 42.3-1.6 95.8 27.7 118.1 63.9l2.3-1.4c1.5-1.1 3.1-2.1 4.7-3.2l1.7-.4c-3.9-16.4-2.5-33 6.1-48.1 13-22.6 50.7-61 73-74.4 24.5-14.6 53.6-9.7 78.6 5.8l.1-.1c-39.9-24.3-72.1-74.8-57.6-115.9" style="fill:#100f0d;fill-opacity:1;fill-rule:nonzero;stroke:none" transform="matrix(.01683 0 0 -.01683 -205.513 777.167)"/><path d="M18212 36474.6h.1zm56.8 19.3c21.3-12.7 38.6-28.6 50.8-46.6 16-23.4 17.1-53.6 9.2-83.3 14.9 6.4 28.6 10.7 38.7 13.5 17 4.7 37 2.2 57.2-6.8 2.8 15.3 9.1 30.3 17.7 44.1-9.4 1.8-18.4 5.2-26.8 10.2-25.2 15.1-65.7 56.4-80.3 81.9-3.7 6.3-6.4 13-8.2 20-16.9-14.3-37.4-25.8-58.3-33m222.6-224.5-57.3 47.3c-19.8 16.4-42.2 24.9-55.6 21.2-36.9-10.2-69.5-27.6-89.4-47.7l-30.3 27.8c30.2 35.8 42.3 83.4 26.8 106.2-14.8 21.8-40.6 39.6-72.7 50.2l-34.3 4.5 20.8 26.5.3 1.9.3 21 21-1.5c34-1.2 81.2 24 99.8 54.2l10.8 17.5 22.2-13.8 17.9-4.7-4.7-19.6c-2.9-12.3-1.6-23.4 4-33.1 11.3-19.6 46.3-55.3 65.7-67 21.3-12.7 45-1.9 57.2 5.7l16.9 10.5 23-34.4-18.3-11.3c-32.3-19.6-59.7-61-48.9-91.4z" style="fill:#231f20;fill-opacity:1;fill-rule:nonzero;stroke:none" transform="matrix(.01683 0 0 -.01683 -205.513 777.167)"/><path d="M18373 36357.7c22.3 6.2 51-6 74.2-25.2 1.1-3.2 2.5-6.4 4.3-9.5 6.3-11.2 18.9-25.4 32.9-38.9 1.3-3.4 2.3-6.7 3-10.1 10-50.9-37.2-97.2-87.1-111.5-36.7-10.5-78.5-9-110 12.6-30.3 20.6-41.9 96-19 126l.2.2c.9 1.1 1.8 2.1 2.7 3.2l.3.2c25.5 25.8 63.5 43.4 98.5 53" style="fill:#612259;fill-opacity:1;fill-rule:nonzero;stroke:none" transform="matrix(.01683 0 0 -.01683 -205.513 777.167)"/><path d="M18287.2 36288c-6.9-9.7-9.3-30.2-5.9-51.3 3.9-23.8 13.1-39.5 20.6-44.6 23.5-16.1 58.1-19.8 92.7-9.8 41.1 11.7 80.1 49.8 72.6 87.8-.2.9-.4 1.8-.7 2.7-11.4 11.2-25.2 26.3-32.9 40.1-1.3 2.2-2.5 4.6-3.5 7-18.8 14.2-39.1 21.4-51.6 18-36.7-10.1-69.1-27.4-89.1-47.3l-1.7-1.9zm69.2-152.5c-29 0-55.9 7.7-77.7 22.6-26.8 18.3-35.5 56.5-38 72-5.2 32.8-.3 63.2 13.2 82l3.6 6.7 3.1 1.1c33.9 33.8 81.5 50.6 106.9 57.6l.1.1c27 7.4 61.6-3.5 92.7-29.2l4.5-3.7 1.9-5.5c.6-2 1.6-4 2.7-6 4.8-8.5 15.4-21 29.2-34.3l3.2-3.1 1.7-4.1c1.8-4.4 3.1-9 4-13.6 12.4-63-41.9-118.3-101.5-135.4-16.8-4.8-33.5-7.2-49.6-7.2" style="fill:#231f20;fill-opacity:1;fill-rule:nonzero;stroke:none" transform="matrix(.01683 0 0 -.01683 -205.513 777.167)"/><path d="M18447.2 36332.5c-14.5 41.1 17.7 91.6 57.6 115.9 4.3 2.6 8.7 4.9 13.1 6.8 25.4 11.3 54.6 11.8 81 3.4l2-.6c23.6-8 44.9-23.1 58.7-44 25.2-38.3 23.7-92.3-3.6-129.1-27.5-36.8-83.3-63.1-122.8-39.8-13.2 7.8-29.7 12-46.4 28.1-8 4.1-21.7 22.4-28.6 31.1-6.1 7.7-6.8 15.9-11 28.2" style="fill:#92598f;fill-opacity:1;fill-rule:nonzero;stroke:none" transform="matrix(.01683 0 0 -.01683 -205.513 777.167)"/><path d="M18562.2 36443.7c-12.7 0-25-2.4-36-7.3-3.6-1.6-7.2-3.4-10.7-5.6-32.3-19.6-59.7-61-48.9-91.4l.1-.2c1.3-4 2.4-7.7 3.3-11 1.8-6.1 2.6-9 4.3-11.1l2.9-3.7c4.2-5.3 15.2-19.4 19.5-22.2l2.6-1.4 1.7-1.8c9.2-8.8 18.4-13.1 28.1-17.7 4.8-2.3 9.7-4.6 14.6-7.5 28.7-16.9 73.5 4.5 95.8 34.4 22.2 29.9 23.4 74.3 2.9 105.5-10.8 16.3-27.8 29-48.1 35.7l4.8 20.1-6.2-19.5c-10.1 3.1-20.5 4.7-30.7 4.7m4.6-228c-15.3 0-30.3 3.6-44 11.7-3.5 2.1-7.3 3.8-11.2 5.7-10.7 5-23.9 11.2-37.4 23.6-9.1 6-18.4 17.3-29.3 31.3l-2.8 3.5c-6.9 8.6-9.3 17.2-11.7 25.5-.7 2.6-1.5 5.6-2.6 8.8-18.2 51.5 19.4 111.7 66.3 140.2 5.1 3 10.3 5.8 15.5 8.1 29.3 12.9 63.2 14.4 95.5 4.1l1.6-.5c29.6-9.9 54.2-28.4 70-52.3 30.3-46 28.5-108.8-4.2-152.8-24.1-32.3-65.7-56.9-105.7-56.9" style="fill:#231f20;fill-opacity:1;fill-rule:nonzero;stroke:none" transform="matrix(.01683 0 0 -.01683 -205.513 777.167)"/><path d="M18539.1 36485.1c66.6-109.9 275.3-34.7 227.9 99.6-30.2 85.5-148.7 114-208.2 39.9-34-42.4-22.1-87.6-19.7-139.5" style="fill:#6a2a63;fill-opacity:1;fill-rule:nonzero;stroke:none" transform="matrix(.01683 0 0 -.01683 -205.513 777.167)"/><path d="M18559.3 36491.7c30.5-44.5 92.2-46.9 136.3-26 38 17.9 71.6 56.8 52.1 112.1-12.4 35-43.8 60.8-82 67.3-35.9 6.1-68.9-6-90.9-33.4-22.7-28.3-20.2-58.8-17.1-97.4.6-7.4 1.2-15 1.6-22.6m80-79.7c-45.5 0-91.1 18.4-117.8 62.5l-2.7 4.5-.2 5.2c-.5 9.1-1.2 18-1.9 26.7-3.4 42-7 85.5 26.1 126.6 31.1 38.7 79.6 56.7 129.8 48.2 52.9-9 96.5-45.1 113.8-94.2 23.6-66.8-5.1-130.8-73.2-163-22.3-10.6-48.1-16.5-73.9-16.5" style="fill:#231f20;fill-opacity:1;fill-rule:nonzero;stroke:none" transform="matrix(.01683 0 0 -.01683 -205.513 777.167)"/><path d="M18503.2 36638.6c-17 9.4-36.3 14.3-55.9 12.7-6-.5-11.9-1.6-17.8-3.3-34.5-9.9-66.5-39.2-79-71.7-1.4-3.7-2.6-7.4-3.5-11.1-3.9-16.4-2.5-33 6.1-48.1 13-22.6 50.7-61 73-74.4 24.5-14.6 53.6-9.7 78.6 5.8 19.2 11.9 36 29.9 46.4 50.3 5.9 11.4 9.8 23.4 11 35.5 2.2 22.2-3.8 44-15.4 62.8l-.1.2c-5.9 9.4-13.1 18-21.4 25.5-6.6 6.1-14 11.4-21.8 15.7z" style="fill:#92598f;fill-opacity:1;fill-rule:nonzero;stroke:none" transform="matrix(.01683 0 0 -.01683 -205.513 777.167)"/><path d="M18454.7 36631c-1.9 0-3.8 0-5.7-.2-4.5-.3-9.1-1.2-13.8-2.5-28.2-8.2-55.2-32.6-65.5-59.4-1.1-2.7-1.9-5.5-2.7-8.6-2.9-12.2-1.6-23.3 4-33 11.3-19.6 46.3-55.3 65.7-67 21.3-12.7 45-1.9 57.2 5.7 16.1 9.9 30.3 25.3 38.9 42.2 4.9 9.6 7.9 19.1 8.8 28.2 1.7 16.7-2.6 33.9-12.4 49.9-5 8-10.9 15.1-17.7 21.2q-8.4 7.8-18 12.9l17.5 32.1-17.7-31.9c-12.4 6.9-25.6 10.4-38.6 10.4m3.6-217.7c-15.1 0-29.6 3.9-42.7 11.7-25.2 15.1-65.7 56.4-80.3 81.9-10.8 18.8-13.6 40.6-8.3 63.1 1.2 4.9 2.6 9.4 4.3 13.8 14.9 38.6 52.1 72.4 92.5 84 7.4 2.1 14.7 3.4 21.8 4 22.9 1.9 46.2-3.4 67.7-15.3 9.2-5 18-11.3 25.9-18.5 9.5-8.6 17.9-18.7 24.8-29.8 14.8-24 21.2-50.2 18.5-76-1.4-14.2-5.8-28.6-13.1-42.8-12.1-23.7-31.2-44.4-53.9-58.4-18.9-11.7-38.5-17.7-57.2-17.7" style="fill:#231f20;fill-opacity:1;fill-rule:nonzero;stroke:none" transform="matrix(.01683 0 0 -.01683 -205.513 777.167)"/><path d="M18302.6 36435.8c23.2-34.1 4.7-92.3-28.1-131.1l-.3-.2c-.9-1-1.9-2.1-2.7-3.2l-.2-.2c-16-17.8-35.1-31-54.2-34.8-60.9-12.2-127.4 35.1-134.5 96.7-3.3 28 12.2 61.6 35.6 88.1 25.6 29 60.8 49.6 91.2 45.2 2.6-.4 5.1-.9 7.6-1.7l1.2-.3c32.9-10.7 65-29.9 84.4-58.5" style="fill:#92598f;fill-opacity:1;fill-rule:nonzero;stroke:none" transform="matrix(.01683 0 0 -.01683 -205.513 777.167)"/><path d="M18200.8 36476.4c-20 0-45.8-14.7-67.2-38.9-20.9-23.7-33-52-30.6-72.1 2.7-23.3 16.6-45.6 38.1-61.3 21.9-16 48.2-22.4 71.9-17.6 13.3 2.6 27.9 12 41.4 26.6l3.1 5.7 2.5.7c29.3 35.6 40.8 82.3 25.6 104.7-14.8 21.8-40.6 39.6-72.7 50.2l-2 .5c-1.6.5-3.2.8-4.8 1.1-1.7.2-3.5.4-5.3.4m-3.4-232.6c-27.8 0-56.2 9.4-80.5 27-30.8 22.4-50.7 55.2-54.8 89.9-3.7 32.1 11.5 71 40.7 104.1 33.3 37.6 74.2 57 109.5 51.9 3.6-.6 6.6-1.3 9.5-2.1l1.7-.5c42.3-13.6 76.1-37.2 96.1-66.8 30-44.1 7.9-111.8-29.4-155.8l-1.6-1.8-.2-.1-1-1.3-3.8-5.2-1.2-.3c-14.2-14.7-35.3-31.5-61.3-36.7-7.8-1.5-15.7-2.3-23.7-2.3" style="fill:#231f20;fill-opacity:1;fill-rule:nonzero;stroke:none" transform="matrix(.01683 0 0 -.01683 -205.513 777.167)"/><path d="M17320.9 37066.9s32.9 64.8 80 64.3c47.2-.5 107.3-79 102.6-106.7s-40.5-86.6-72.9-94.1c-32.3-7.4-125.5 38.5-128 77.2s18.3 59.3 18.3 59.3" style="fill:#2d2842;fill-opacity:1;fill-rule:nonzero;stroke:none" transform="matrix(.01683 0 0 -.01683 -205.513 777.167)"/><path d="M17335.6 37052.4c-1.2-1.2-14.3-16-12.5-43.5.3-3.8 5.4-13.7 23-26.9 29.8-22.1 68.5-34.2 79.9-31.5 21.1 4.8 53.3 54.8 57.2 77.5.3 5.8-9.6 27.9-30.6 50.4-18.4 19.8-38.3 32.1-51.9 32.3h-.3c-27.9 0-54.1-39.3-61.1-53.1l-1.5-3zm87.2-143.3c-30 0-72.7 18.7-101.2 39.9-25 18.6-38.3 37.9-39.5 57.3-2.6 39.7 14.9 64.3 21.9 72.5 7.9 14.6 42.7 73 96.3 73h.8c40.3-.4 76.1-38.2 89.7-54.4 8.9-10.8 37.8-48 33-76.3-5.7-33-45.9-100.9-88.5-110.7-3.8-.9-8-1.3-12.5-1.3" style="fill:#231f20;fill-opacity:1;fill-rule:nonzero;stroke:none" transform="matrix(.01683 0 0 -.01683 -205.513 777.167)"/><path d="M17517.8 37114.6s32.9 64.9 80 64.4c47.2-.6 107.3-79.1 102.6-106.8-4.7-27.6-40.5-86.6-72.9-94-32.3-7.5-125.5 38.4-128 77.1s18.3 59.3 18.3 59.3" style="fill:#fff;fill-opacity:1;fill-rule:nonzero;stroke:none" transform="matrix(.01683 0 0 -.01683 -205.513 777.167)"/><path d="M17517.8 37114.6h.2zm14.7-14.5c-1.2-1.2-14.3-16-12.5-43.4.3-3.8 5.4-13.8 23-26.9 29.8-22.2 68.5-34.2 79.9-31.6 21.1 4.9 53.4 54.8 57.2 77.5.3 5.8-9.6 27.9-30.6 50.4-18.4 19.8-38.3 32.1-51.9 32.3h-.3c-27.9 0-54.1-39.3-61.1-53.1l-1.5-3zm87.2-143.3c-30 0-72.7 18.8-101.2 40-25 18.5-38.3 37.8-39.5 57.2-2.6 39.8 14.9 64.3 21.9 72.5 7.9 14.6 42.8 73 96.3 73h.8c40.3-.4 76.1-38.2 89.7-54.4 8.9-10.7 37.8-48 33-76.3-5.7-33-45.9-100.8-88.5-110.7-3.8-.9-8-1.3-12.5-1.3" style="fill:#231f20;fill-opacity:1;fill-rule:nonzero;stroke:none" transform="matrix(.01683 0 0 -.01683 -205.513 777.167)"/><path d="M17261 36961.1c-29 7-45.9 36.1-51.3 69.8-6.4 39.6 3 85.6 27.1 110.3 14.4 14.7 34 22.5 54.5 23.9l.8.1c32.8 2.2 67.5-12 86.1-40.3 5.9-9 10.7-20.1 14.2-32 4.6-15.3 7-32.1 7-48.4 0-36.7-12.3-70.5-41.6-77.4-22.7-5.3-73.8-11.5-96.8-6" style="fill:#2d2842;fill-opacity:1;fill-rule:nonzero;stroke:none" transform="matrix(.01683 0 0 -.01683 -205.513 777.167)"/><path d="M17298.8 37144.9c-1.7 0-3.5-.1-5.3-.2-17.2-1.2-31.9-7.6-42-17.9-18.1-18.6-27.2-57.5-21.5-92.6 1.8-10.9 9.4-46.7 35.8-53.1 17.6-4.2 64.4.7 87.4 6 18.9 4.5 25.7 32.6 25.7 57.4 0 14.3-2.1 29-6.2 42.5-3 10.4-7.1 19.6-11.7 26.6-12.7 19.3-36.7 31.3-62.2 31.3m-13.1-206.5c-11.1 0-21.5.8-29.5 2.8-34.5 8.3-59.5 40.6-66.8 86.5-7.8 48.4 5.3 99.8 32.7 127.9 17.2 17.5 41.3 28.2 67.8 30 43.1 2.9 83.9-16.6 105.5-49.4 6.9-10.6 12.5-23.2 16.8-37.5 5.1-17.3 7.8-36 7.8-54.2 0-52.6-21.5-89-57.5-97.4-16.5-3.9-49.2-8.7-76.8-8.7" style="fill:#231f20;fill-opacity:1;fill-rule:nonzero;stroke:none" transform="matrix(.01683 0 0 -.01683 -205.513 777.167)"/><path d="M17237.4 36714.1c-16.5 11.4-29 29.9-30 49.8s11.2 47.6 31.6 62.7l-2.8 3.5c1.3-.4 2.5-.7 3.7-1.1 16.5-4.7 34.8-7.2 54.2-7.9 8-34.4 27.7-63.5 58.8-66.9 2.4-.3 4.8-.5 7.3-.5v-.1c3.4-15.7-7.5-41.9-21-49.7-8.6-5-18.5-7.2-28.5-7.9-5.7-.4-11.5-.2-17.1.2-19.7 1.5-39.7 6.5-56.2 17.9" style="fill:#1b192d;fill-opacity:1;fill-rule:nonzero;stroke:none" transform="matrix(.01683 0 0 -.01683 -205.513 777.167)"/><path d="M17249 36731c11.7-8 27.2-12.8 46.1-14.3 5.2-.4 9.9-.5 14.1-.2 8.1.6 14.7 2.3 19.7 5.2 3 1.7 6.8 8 9.2 14.5-27 7.9-48.3 31.2-59.8 65.3-11.2.9-21.8 2.5-31.7 4.6-12-11.5-19.2-29.6-18.7-41.2.6-12.3 8.7-25.3 21.1-33.9m54.7-55.8c-3.8 0-7.7.2-11.8.5-26.1 2-48.4 9.2-66.2 21.5-23.1 15.9-37.6 40.5-38.8 65.7-1.1 21.9 8.7 47.1 24.5 65.7l-30.5 39.5 64.9-19.4c13.9-4 30.4-6.4 49-7l15.8-.6 3.6-15.3c2.6-11.3 13.2-48.2 40.9-51.2 1.8-.1 3.7-.3 5.7-.4l20-.5v-18.3c3.8-24.4-10.9-57.5-31.3-69.3-10.6-6.1-23.2-9.7-37.5-10.6-2.6-.2-5.4-.3-8.3-.3" style="fill:#231f20;fill-opacity:1;fill-rule:nonzero;stroke:none" transform="matrix(.01683 0 0 -.01683 -205.513 777.167)"/><path d="M17236.2 36830.1c-37.1 11.8-64.2 36.2-70.9 80.8-6.5 44 10.6 89.2 41.4 119.6l3 .4c5.4-33.7 22.3-62.8 51.3-69.8 23-5.5 74.1.7 96.8 6l2.4-7.1c-26.5-8.2-49.7-26.6-60.8-52.4-10.4-24.2-12.1-57.2-5.3-86.5-19.4.7-37.7 3.2-54.2 7.9-1.2.4-2.4.7-3.7 1.1" style="fill:#1b192d;fill-opacity:1;fill-rule:nonzero;stroke:none" transform="matrix(.01683 0 0 -.01683 -205.513 777.167)"/><path d="m17242.3 36849.8 3.5-1.1c7.3-2.1 15.4-3.8 24.2-5-2 25.8 1.7 51.4 10.5 72.1 3.6 8.1 8.1 15.7 13.4 22.7-14.2-.4-27.7.2-37.7 2.7-23.9 5.7-43.2 23-55.3 48.4-13.3-23.2-19-50.2-15.2-75.7 4.9-33.1 22.9-53.4 56.6-64.1m78-50.2-26.9 1c-22 .7-41.9 3.7-59.2 8.7l-4.2 1.2c-48.4 15.3-77.8 49-85 97.3-7.3 48.8 10.9 101.4 47.2 137.4l4.9 4.7 29.8 4.2 3.1-19.9c1.8-10.9 9.4-46.7 35.8-53.1 17.5-4.2 64.4.7 87.4 6l18.2 4.3 15-44.8-20.1-6.2c-22.3-6.9-39.8-21.8-48-40.9-8.5-19.9-10.1-48.1-4.1-73.7z" style="fill:#231f20;fill-opacity:1;fill-rule:nonzero;stroke:none" transform="matrix(.01683 0 0 -.01683 -205.513 777.167)"/><path d="M17491.4 37134.3c-10.2-2.4-20.1-6.2-29.2-11.4-7.4-4.1-14.3-9.1-20.5-14.9l-.1-.1c-14.9-8.5-31.6-13.9-47.6-14.6l-1.6-.4c-3.5 11.9-8.3 23-14.2 32-18.6 28.3-53.3 42.5-86.1 40.3l-.8-.1-.5 4.1c-12.4 34.2 9.5 66.9 40.6 85.3 32 19 70.6 15.9 107.1 6.1 61.3-16.5 70.2-115.4 52.9-126.3" style="fill:#1b192d;fill-opacity:1;fill-rule:nonzero;stroke:none" transform="matrix(.01683 0 0 -.01683 -205.513 777.167)"/><path d="M17308 37185.6c35.7-2.7 68.8-21.1 87.4-49.4 4-6.2 7.6-13 10.8-20.5 7.6 1.8 15.5 4.8 23 8.9l4.8 4.5.5-.1c5.6 4.5 11.5 8.5 17.7 11.9 8.1 4.6 16.7 8.3 25.8 11 1.7 9.7.7 32.3-9.2 54.1-5.9 13.1-16.8 29.7-35.6 34.7-39.2 10.5-69.1 9.3-91.4-3.9-17.8-10.6-35.8-29.6-33.8-51.2m70.4-117.8-5.7 19.2c-3 10.4-7.1 19.6-11.7 26.6-13.6 20.7-40.1 32.9-67.5 31.1l-19.6-1.3-3.3 21.3c-12.7 39.1 7.2 82 50.3 107.5 32.3 19.1 72.6 21.8 123 8.2 45.6-12.2 68.2-58.5 74.2-97.6 2.3-15.4 5.5-52.5-15.7-65.9l-3-1.9-3.4-.8c-8.4-1.9-16.3-5-23.7-9.2-3.6-2-7-4.2-10.1-6.6v-2.4l-8.2-4.7-4.7-4.4-2.9.2c-15.8-8.2-33-13.1-49.1-14.2z" style="fill:#231f20;fill-opacity:1;fill-rule:nonzero;stroke:none" transform="matrix(.01683 0 0 -.01683 -205.513 777.167)"/><path d="M17347.4 36648c-15.2 8.8-32 30-36.6 47l-.1 1c10 .7 19.9 2.9 28.5 7.9 13.5 7.8 24.4 34 21 49.7v.1c33.7-1.6 80.4 9.8 103.9 30.5 4.4 3.9 8.1 8.7 11.2 14 1.9 3.5 3.6 7.2 4.9 11.1 2.1-.8 8-4.1 9.7-6.6-1.4-2.1-2.6-4.2-3.8-6.4-12.7-26.2-4.1-64.6 14.8-97-13.8-23.3-48.5-56.3-74.6-62.8-26.2-6.6-55.1-2.3-78.9 11.5" style="fill:#1b192d;fill-opacity:1;fill-rule:nonzero;stroke:none" transform="matrix(.01683 0 0 -.01683 -205.513 777.167)"/><path d="M17357.7 36665.8c19.3-11.2 42.5-14.6 63.6-9.4 16.3 4.1 41.2 25.5 55.6 44.1-9.6 19.1-15.2 38.1-16.9 55.8-23.3-13.3-53.5-20.9-80.1-22.8-3.9-19.4-15.7-38.9-30.4-47.4-2.8-1.6-5.7-3.1-8.7-4.3 5.1-6.7 11.3-12.7 16.9-16m43.8-52.9c-22.4 0-44.8 5.9-64.5 17.3-20.3 11.9-40.1 37.4-46.1 59.4l-.6 3.3-2.2 21.2 21.3 2.4c7.9.6 14.5 2.3 19.5 5.2 5.2 3 12.8 20 11.2 27.6l-.4 4.3v21.5l21.5-.9c31.8-1.4 71.8 10 89.3 25.4 2.5 2.3 4.9 5.2 6.9 8.8 1.3 2.3 2.4 4.8 3.4 7.6l6.8 19.6 19.6-6.9c.1-.1 13.5-5.1 19.8-14.6l7.8-11.7-8-11.5c-.9-1.2-1.6-2.5-2.3-3.8-8.3-17.3-2.7-48.5 14.2-77.4l6.1-10.5-6.2-10.4c-14.7-24.8-53.2-63.7-87.3-72.3-9.8-2.4-19.8-3.6-29.8-3.6" style="fill:#231f20;fill-opacity:1;fill-rule:nonzero;stroke:none" transform="matrix(.01683 0 0 -.01683 -205.513 777.167)"/><path d="M17567.7 36861.9c37.5 10.3 84.8-24.8 110.6-66.8l.1-.3c.6-1.2 1.3-2.4 2.2-3.5l.1-.3c11.5-20.1 18-41.6 15.9-60.1-6.4-59.1-68.3-104.6-126.1-91.7-26.3 5.8-52.3 30.5-69.6 60.1-18.9 32.4-27.5 70.8-14.8 97 1.2 2.2 2.4 4.3 3.8 6.4l.6.9c19.1 26.6 45.7 49.7 77.2 58.3" style="fill:#66617b;fill-opacity:1;fill-rule:nonzero;stroke:none" transform="matrix(.01683 0 0 -.01683 -205.513 777.167)"/><path d="M17507.4 36791.9v-.1zm.5.7-1.1-1.7c-.9-1.2-1.6-2.5-2.3-3.8-8.3-17.3-2.7-48.5 14.2-77.4 15.4-26.5 37.5-46.3 56.2-50.4 21.4-4.8 45.2.6 65.2 14.9 20.5 14.6 33.6 36.1 36.1 58.9 1.4 12.6-2.9 28.7-12.1 45.4l-5 5 .3 3c-23.8 37.4-62 62.2-86.3 55.6-23.5-6.5-46.7-24.1-65.2-49.5m82.7-176.2c-8.3 0-16.6.9-24.6 2.7-30.3 6.7-61.3 32.8-82.9 69.9-24.6 42.1-30.4 85.6-15.5 116.3 1.5 3 3 5.6 4.6 8l1 1.5c24.7 34.4 56.1 57.9 89.1 66.9 48.9 13.5 104.2-28 133.5-75.9l6.1-9.1-.1-1.3c9.1-17.5 18-41.8 15.3-66.8-3.7-34.3-23.1-66.4-53.1-87.9-22.2-15.9-48-24.3-73.4-24.3" style="fill:#231f20;fill-opacity:1;fill-rule:nonzero;stroke:none" transform="matrix(.01683 0 0 -.01683 -205.513 777.167)"/><path d="M17702.6 36960.7c-23.9-15-43.2-37.3-44-59.5-1.3-34.8 3.7-74.8 19.7-106.1-25.8 42-73.1 77.1-110.6 66.8-31.5-8.6-58.1-31.7-77.2-58.3l-.6-.9c-1.7 2.5-7.6 5.8-9.7 6.6 13.6 37.8 2.4 95.7-24 127.3l1.9 1.6 4.2 3.3.9 1.5c13.7-8.7 29.2-12.7 45.3-9.7 24.2 4.7 69.8 26.9 88.4 42.9 20.2 17.6 24.1 45.6 17.2 73.2l.2.1c10.5-44 47-89.1 88.3-88.8" style="fill:#100f0d;fill-opacity:1;fill-rule:nonzero;stroke:none" transform="matrix(.01683 0 0 -.01683 -205.513 777.167)"/><path d="M17493.9 36911.9c7.5-19.1 11.8-40.3 12.5-60.7 17.4 14.8 36.4 25.2 55.9 30.5 25.3 7 52.3-.8 76.6-16.5-1.2 14.5-1.2 27.3-.9 36.8.6 16.9 8.6 34.2 22.3 49.8-12.5 7.1-23.9 17.1-33.6 28.7-4.3-7.4-9.7-14.1-16.4-19.8-21.4-18.6-69.9-42.1-97.9-47.5-6.1-1.2-12.4-1.6-18.5-1.3m13.5-120v-.1zm-14.5-30.9-18.9 28.4-1.4.8-19.4 7 7.7 19c11 30.8 1.5 80.9-20.5 107.3l-13.1 15.7 19.6 16.4 10 15.7 17.4-11c10.1-6.4 20.3-8.7 30.4-6.7 20.8 4 62.7 24.4 78.7 38.2 17.7 15.4 13.4 41.9 10.8 52.6l-4.9 19.6 39.9 10.8 5.1-20.6c8.4-35.3 37.7-73 68-73h.2l72.5.5-61.5-38.5c-20.1-12.5-33.9-29.7-34.4-42.7-1.3-36.6 5-71.6 17.5-96.1l-35.8-20.1c-23.7 38.6-62.8 64.5-87.7 57.8-23.5-6.5-46.7-24.1-65.2-49.5z" style="fill:#231f20;fill-opacity:1;fill-rule:nonzero;stroke:none" transform="matrix(.01683 0 0 -.01683 -205.513 777.167)"/><path d="M17658.6 36901.2c.8 22.2 20.1 44.5 44 59.5 3.3 0 6.6.3 10 .9 11.9 2.2 28.3 9.1 44.6 17.6 3.4.2 6.7 0 9.9-.5 49-6.9 77.4-64.4 76.1-114.1-1-36.6-14.5-74.2-43-96-27.4-20.9-99-7.8-119.5 22.4l-.1.3c-.8 1.2-1.4 2.3-2.2 3.5l-.1.3c-16 31.3-21 71.3-19.7 106.1" style="fill:#66617b;fill-opacity:1;fill-rule:nonzero;stroke:none" transform="matrix(.01683 0 0 -.01683 -205.513 777.167)"/><path d="M17698.1 36802c7-9.5 25.8-18.3 46.3-21.6 21.3-3.5 37.1-.2 43.3 4.6 21 16 34 45.9 34.9 80.1 1.1 40.9-22.1 88.1-58.4 93.3l-2.1.2c-13.5-6.8-31.1-14.5-45.8-17.2-2.4-.5-4.7-.8-7.1-1-17.7-12.2-29.6-27.9-30.1-39.9-1.3-36.4 5-71.2 17.3-95.6l1.3-2.1zm63.3-64.2c-7.6 0-15.4.7-23.6 2-32.1 5.2-59.2 19.3-72.9 37.9l-5.8 5.8.3 3.3c-20.8 41-22.3 89.8-21.4 115.2 1 27.3 21.1 55.7 53.7 76.1l5.1 3.2 5.9-.1c2 .2 4 .2 6 .6 9 1.7 23.1 7.3 38.9 15.6l4.1 2.1 4.5.2q6.9.3 13.8-.6c60.8-8.6 95.4-75.4 93.7-135.1-1.2-47.2-19.8-87.9-51-111.7-12.4-9.5-30.4-14.5-51.3-14.5" style="fill:#231f20;fill-opacity:1;fill-rule:nonzero;stroke:none" transform="matrix(.01683 0 0 -.01683 -205.513 777.167)"/><path d="M17590.8 37092.2c118.6 25.8 110.5 239-24.7 238.3-86.2-.5-146-99.2-95.9-176.5 28.6-44.3 73-47.7 120.6-61.8" style="fill:#2d2842;fill-opacity:1;fill-rule:nonzero;stroke:none" transform="matrix(.01683 0 0 -.01683 -205.513 777.167)"/><path d="M17566.8 37309.9h-.6c-33.9-.2-65.4-19.6-82.2-50.7-16.6-30.7-15.3-65 3.4-94.1 19.1-29.5 47.4-36.8 83.2-46.1 6.8-1.8 13.7-3.6 20.6-5.5 47 13.2 66.6 65.2 61.5 111.1-4.6 41.3-29.6 85.3-85.9 85.3m23.2-239-5 1.6c-8.4 2.4-16.7 4.6-24.7 6.7-39.2 10.1-79.6 20.6-107.4 63.6-26.8 41.4-28.7 92.3-5.1 136 24 44.3 69.2 72 118.2 72.2h.8c78.3 0 120-61.1 126.8-121.8 7.3-65.9-24.2-140.9-98.4-157.1z" style="fill:#231f20;fill-opacity:1;fill-rule:nonzero;stroke:none" transform="matrix(.01683 0 0 -.01683 -205.513 777.167)"/><path d="M17360.2 36753.7c-2.5 0-4.9.2-7.3.5-31.1 3.4-50.8 32.5-58.8 66.9-6.8 29.3-5.1 62.3 5.3 86.5 11.1 25.8 34.3 44.2 60.8 52.4 25.1 7.8 53.1 6.4 76.5-6.6 3-1.7 5.9-3.6 8.6-5.8 3.9-3.2 7.5-6.8 10.9-11 26.4-31.6 37.6-89.5 24-127.3-1.3-3.9-3-7.6-4.9-11.1-3.1-5.3-6.8-10.1-11.2-14-23.5-20.7-70.2-32.1-103.9-30.5" style="fill:#66617b;fill-opacity:1;fill-rule:nonzero;stroke:none" transform="matrix(.01683 0 0 -.01683 -205.513 777.167)"/><path d="M17391.3 36944.2c-8.3 0-16.7-1.3-25-3.8-22.3-6.9-39.8-21.8-48-40.9-8.5-19.9-10.1-48.1-4.1-73.7 2.6-11.3 13.2-48.2 40.9-51.2 1.8-.1 3.7-.3 5.7-.4h.4c31.8-1.4 71.8 10 89.3 25.4 2.5 2.3 4.9 5.2 6.9 8.8 1.3 2.3 2.4 4.8 3.4 7.6 11.1 31 1.6 81.1-20.4 107.5q-3.75 4.65-8.1 8.1c-1.8 1.5-3.6 2.7-5.4 3.7-10.7 5.9-22.9 8.9-35.6 8.9m-24.9-211.2c-2.3 0-4.7 0-6.9.1-3 .1-5.9.3-8.8.6-36.9 4-65.5 35-76.6 82.8-8 34.2-5.6 71.3 6.4 99.3 13 30.1 39.9 53.4 73.6 63.9 31.7 9.8 65.4 6.7 92.6-8.4 4-2.1 7.9-4.8 11.6-7.8 4.9-4 9.6-8.7 13.8-13.8 30.9-37.1 43.3-103.2 27.5-147.3-1.7-5-3.9-9.9-6.5-14.4-4.3-7.5-9.5-14-15.4-19.2-27.2-24-75.1-35.8-111.3-35.8" style="fill:#231f20;fill-opacity:1;fill-rule:nonzero;stroke:none" transform="matrix(.01683 0 0 -.01683 -205.513 777.167)"/><path d="M17702.6 36960.7c-41.3-.3-77.8 44.8-88.3 88.8-1.2 4.7-2 9.4-2.5 14-2.9 26.6 5.1 53.3 20.2 74.6l1.1 1.6c14 19 33.8 33.5 56.6 39.5 42 10.8 90.5-7.5 116-44 25.4-36.4 33.2-95.4.8-123.9-10.9-9.6-19.4-23.3-38.8-33.4-6-5.9-26.5-12.6-36.3-16.1-8.8-3.2-16.4-1.2-28.8-1.1" style="fill:#66617b;fill-opacity:1;fill-rule:nonzero;stroke:none" transform="matrix(.01683 0 0 -.01683 -205.513 777.167)"/><path d="M17702.6 36981.2h.1c4.1 0 7.7-.2 11-.4 6.1-.3 8.7-.4 10.7.4l4.2 1.4c5.8 2.1 21.4 7.5 25.3 10.5l2.1 2.1 2.2 1c10.4 5.4 16.8 12.2 23.6 19.5 3.5 3.7 7 7.5 11.1 11 23.1 20.4 16.4 67.3-4.1 96.8-20.6 29.4-60.1 44.5-93.9 35.7-17.4-4.5-33.5-15.8-45.2-31.7l-17.5 10.9 16.7-12c-12.8-18.1-18.9-40.1-16.6-60.7.4-3.8 1-7.5 2-11.4 8.4-35.4 37.7-73.1 68-73.1h.2zm17.4-41.8c-3 0-5.8.2-8.7.4-2.6.1-5.4.3-8.7.3h-.3c-52 0-95.7 53.1-108 104.6-1.4 5.6-2.4 11.2-2.9 16.7-3.4 30.8 5.1 62.3 23.8 88.6l1.1 1.5c17.5 23.9 41.7 40.6 68.2 47.6 50.7 13 107.4-8.3 138-52.1 31-44.4 38.9-114.9-2.5-151.2-2.8-2.5-5.4-5.3-8.2-8.3-7.7-8.1-17.1-18.2-32.4-26.7-8.3-6.5-21.3-11.4-37.2-17l-3.8-1.4c-6.7-2.4-12.7-3-18.4-3" style="fill:#231f20;fill-opacity:1;fill-rule:nonzero;stroke:none" transform="matrix(.01683 0 0 -.01683 -205.513 777.167)"/><path d="M17441.6 37107.9c-13.4-12.5-23.4-28.5-27.6-46.8-1.3-5.5-1.9-11.3-2.1-17.2-.9-34.5 16.4-72.7 42.3-94.3q4.35-3.6 9-6.6c13.7-8.7 29.2-12.7 45.3-9.7 24.2 4.7 69.8 26.9 88.4 42.9 20.2 17.6 24.1 45.6 17.2 73.2-5.2 21.2-16.8 42.1-32.2 58-8.6 8.9-18.4 16.2-29 21.1-19.4 9-41 10.4-61.3 5.8h-.2c-10.2-2.4-20.1-6.2-29.2-11.4-7.4-4.1-14.3-9.1-20.5-14.9z" style="fill:#66617b;fill-opacity:1;fill-rule:nonzero;stroke:none" transform="matrix(.01683 0 0 -.01683 -205.513 777.167)"/><path d="m17431 37119.4 24.6-26.6c-11-10.2-18.5-22.7-21.5-36.2-1-4.2-1.5-8.6-1.6-13.2-.8-28.1 13.6-60.2 34.8-78 2.3-1.9 4.7-3.6 7.1-5.1 10-6.4 20.2-8.7 30.3-6.7 20.8 4 62.7 24.4 78.7 38.2 17.7 15.4 13.4 41.9 10.8 52.6-4.4 17.8-14.3 35.5-27 48.6-7.3 7.5-15 13.2-23 16.8-14.4 6.8-31 8.3-48.1 4.4-8.5-1.9-16.4-5-23.8-9.2q-9.15-5.1-16.5-12zm66.7-207.6c-15.6 0-31.1 4.6-45.5 13.8-4.1 2.7-7.8 5.4-11.3 8.3-30.7 25.7-50.6 70.1-49.6 110.6.2 7.3 1.1 14.5 2.7 21.2 4.8 21.5 16.5 41.4 33.6 57.3 7.4 6.9 15.6 13 24.6 17.9 10.7 6.1 22.4 10.6 34.6 13.4 26.2 5.9 52 3.4 74.7-7.1 12.5-5.8 24.3-14.4 35.1-25.5 18-18.5 31.3-42.4 37.5-67.3 9.5-38.2.8-72.3-23.8-93.7-21.4-18.6-69.9-42.1-97.9-47.5-4.9-1-9.8-1.4-14.7-1.4" style="fill:#231f20;fill-opacity:1;fill-rule:nonzero;stroke:none" transform="matrix(.01683 0 0 -.01683 -205.513 777.167)"/><path d="M16648.9 38509.8c-13.4 8.8-29.3 16-47.8 21.5-20.7 6.2-41.6 9.5-62.9 10.2-4.7.2-7.1.3-11.9.5-.9-30.8-1.4-46.1-2.3-76.9-1.5-51.6-1.2-79 1-82.2 2.1-3.1 10.2-8.3 24.2-15.5 14.1-7.2 26.8-12.4 38.1-15.8 60.8-18.3 99-4 114.3 41.3q3.15 8.7 3.6 21.9c.6 17.5-4.1 34.7-14 51.7-10 16.9-24.1 31.3-42.3 43.3m13 166.7c-14.1 23.5-36.3 39.7-66.7 48.9-18.8 5.6-37 7-54.5 4-5.1-.8-7.6-1.2-12.6-1.9-.6-27.5-.9-41.2-1.4-68.7-.2-46 0-69.6.8-70.4l1.6-1c4.2-1.3 14.2-1.9 30.2-1.5s30.3 1.6 43 3.5c12.6 1.9 24.1 5.5 34.4 10.8 10.2 5.3 18 11 22.6 17.1 3.6 4.8 6.2 14.1 7.8 27.5 0 1.4.2 3.2.4 5.4.3 2.2.4 3.7.5 4.4.2 7.7-1.8 15-6.1 21.9m-87.4 97.7c6.8-1.1 13.9-2.7 21.4-5 31.8-9.6 58.9-25 81.4-46.1 27.4-25.9 40.8-55.5 39.7-89.2-1-31.2-14.2-55.4-39.5-72.3-6.7-4.2-10.1-6.3-16.9-10.6 8.5-6.2 12.7-9.3 21.2-15.6 23.1-17.1 41.4-37.8 54.9-62.4 13.6-24.5 20-48.5 19.3-72-.2-6.3-1-12.1-2.3-17.5-6.3-28.7-19.3-50.9-39-66.4s-44.5-22.7-74.3-21.6c-13 .3-30.7 3.7-53 10.3-24.6 7.4-45.2 16-61.6 25.3-21.2 12-35.1 23-41.4 32.8s-10 25.8-11 47.7c-.7 13.3.6 60.5 3.7 141.3.7 19 1.1 28.4 1.8 47.3 2.9 63.5 4.3 95.3 7.2 158.8 2.6 1.7 3.9 2.6 6.4 4.3 7.7 4.9 19.3 8.4 34.7 10.4 15.3 2.1 31.1 2.2 47.3.5m244.6-98.4c2.7 2.5 7.7 2.8 14.8 1 4.2-1 8.1-2.9 11.8-5.6 18-14 25.6-110.2 22.7-288.8-.6-42.1-.9-63.1-1.4-105.2 20.9-4.9 31.4-7.3 52.4-11.9 51.4-11 81.8-16.7 91.1-18.3 15.3-2.7 23.9-4 25.4-4.4 9.6-2 16.3-4.6 20.1-7.9q11.4-9.15 11.1-21.3c-.2-10.2-5.8-16-16.7-17.2-6.6-.8-44.9 4.6-113.3 18.8-42.9 9-67.2 14.8-72.6 16.1-18.9 4.6-31.1 8.4-36.6 11.2q-8.1 4.2-10.8 11.7c-1 3.1-.8 50.3 1.4 140.8 2.9 116.7 1.7 197.6-4.6 242-1.6 11.7-2.3 19.5-2.2 23.4.2 6.3 2.7 11.5 7.4 15.6m497-199.1c-3.8 15.3-6.7 24.5-8.1 27.2l-.6.1c-1.6.2-3.9-2-7.1-6.6s-4.8-8.1-4.8-10.6c-.1-.3-6.3-12.4-18.7-36.1-11.3-21.4-22.5-44.3-33.6-68.5q-16.8-36.3-16.8-40.5c-.1-3.2 3.7-4.7 11.5-4.6 3.9 0 24-2.2 60.3-5.8 34-3.4 51.1-4.2 51.1-3.2.1 3.6-2.5 14-7.5 31.3-4.1 14-8.8 34.9-14.3 62.5-5.4 27.7-9.2 46-11.4 54.8m-25.8 102.5c5.5 3 12.2 3.9 20.3 2.6s15.1-5.6 21.2-12.9c14.7-16.7 28.7-60.4 42.2-131.2 3.2-16.3 15-64.3 35.9-143.2 11.2-42.4 18.8-70.3 22.5-83.5 9.6-33.3 14.4-52.1 14.3-56.3-.1-6-2.6-10.8-7.6-14.4-4.9-3.6-10.7-4.9-17.3-4-2.7.4-5.6 1.3-8.7 2.8-5.8 2.9-10.7 9-14.6 18.1-3.9 9.2-10.3 29.6-19.1 61.2-6.8 23.9-10.2 35.8-17 59.6-1.5 1.7-8.7 3.4-21.4 5.4-21.7 3.3-49 6.2-81.9 9.1-33 2.8-50.8 3.5-53.5 1.5-5.9-4.3-17.3-29.1-34.2-74.3-6.6-16.5-12.2-27.2-16.8-32.4-4.5-5.1-10.5-7-17.9-5.6-12.7 2.4-18.9 10.8-18.6 25.3.3 9.5 12.8 44.1 37.6 104.3 24.8 60.1 47.2 109 66.2 146.1 15.4 30.1 26.6 53.6 33.8 69.3 14.5 30.4 26.1 47.9 34.6 52.5m380.7-36.9c5.8.5 12.4.5 19.8-.1 17.4-1.6 32.5-5.2 45.2-11.2 8.1-3.8 17-10.5 26.8-20s16.2-17.9 19.3-25.1c2.6-6.2 3.9-12.8 3.9-19.9-.1-11.9-3.5-19.6-10.1-23-2.4-1.3-6.8-1.7-13.4-1.2-5.4.4-10.4 3-14.8 7.7s-6.6 9.8-6.5 15c0 4.6-3.1 10.3-9.5 17.2-6.3 6.8-13 11.3-19.3 13.7-4.2 1.6-9.3 2.9-15.1 3.4-19.4 1.6-40.3-4.4-63-18.1-22.6-13.6-40.3-31.2-53-52.8-18.6-31.4-29-65.9-31.1-103.4 0-1.4-.1-3.7-.4-6.8-.2-3.1-.3-5.4-.3-6.8-1-69.4 23.8-118.5 74.6-146.4 9.3-5.2 17.5-8.1 24.5-8.7 4.3-.4 7.8-.6 10.5-.5 11.4.1 20.4 1.4 27 4q10.05 3.9 21.9 15c7.8 7.5 13.4 13.8 16.5 18.8 3.2 5 6.1 13 9 23.6 5.4 19.5 14.9 29 27.8 28 5.8-.4 11.7-3.5 17.5-9.1 5.4-5.4 8.1-9.9 8-13.8 0-1.1-.4-4-1.2-8.9-3.3-22.3-13.4-43.3-30.4-62.9q-25.5-29.25-56.7-37.2c-10.6-3-26.2-4-46.3-2.3-18.6 1.6-33.9 5.7-45.6 11.8-35.3 19.1-61.6 43.4-78.9 72.6s-27 65.1-29.1 107.6q-.45 5.4-.3 16.5.9 64.35 28.8 118.2c18.5 35.9 41.6 62 69.3 78.5 10.5 6.3 23.1 12.1 37.7 17.4 14.5 5.3 26.9 8.3 36.9 9.2m181.2-17c3.9 4.4 9.3 6.4 16.3 6 6.6-.3 11.8-3.3 15.6-7.7 4.3-4.8 7.5-25.5 10.7-59.7.9-9.4 2.2-26.6 3.2-50.9 1-23.3 2.1-39.5 2.1-47.6-.1-9.1-.3-21.4.3-35.5.4-8.1.8-12.2 1.2-12.2 2.3-.1 15.5 11.9 39.6 36.4 24 24.4 52.2 54.1 84 89.2 27.3 30.2 46 50.4 56.1 60 10.1 9.5 18.2 14.3 24.4 14.2 4.3 0 9.7-2.5 16.3-7.5 3.9-3.6 6.2-7.6 6.4-11.7.3-6.7-4.6-16.2-14-26.3-7.4-8-31.9-35.8-72.7-82.7s-66.3-74.9-76.5-84.8c-11.8-11.6-17.6-17.4-29.4-29 16.1-13.5 24.1-20.3 40.2-33.7 27.3-22.4 59.4-49.9 96.5-82.1 25.7-23 41.7-37.3 47.7-43.4 6.1-6 9.4-11.5 9.7-16.4.8-10.9-5.1-17.9-17.6-21-.8-.4-2.2-.5-4.1-.5-6.3.1-14.9 4-25.9 11.9-10.9 7.9-28.4 22.6-52.1 44.3-30.9 28.1-59.9 54-87.1 77.2-27.2 23.3-42 35.1-44.3 35.2-.4.1-.7-3.2-.9-9.7-.3-6.5-.5-16.6-.8-30.3-.3-13.8-.3-25.9-.5-36-.8-39.8-3.1-64.9-5.1-73.4-2-8.6-7.6-13.3-16.6-14.3-1.1-.2-2.9-.3-5.3-.2-12.5.6-20.5 6.2-23.9 16.6-.8 2.2-1.6 5.8-1.7 10.2-.2 6.7.7 64.4 4.1 169.9 1.6 47.5 2.7 101.1 1.1 158.5-1 36.4-1.6 59.5-.9 68.5.6 8.9 1.9 15.1 3.9 18.5m511.9-224.9c-14 4.4-30.5 6.2-49.5 5.7-21.4-.6-43-4.1-64.7-10.5-4.9-1.3-7.4-2-12.3-3.3.3-30.9.5-46.3.8-77.2q.75-77.7 4.2-81.3c2.4-2.4 10.8-4.9 25.5-7.4 14.6-2.6 27.8-3.7 39.5-3.3 62.8 1.7 101.1 28.3 114.8 78.3 1.9 6.5 2.8 14.1 2.8 22.9-.1 17.6-5.6 33.2-16.4 46.8-10.7 13.6-25.6 23.3-44.7 29.3m6.6 169.9c-15.2 18.7-38.6 27.5-70 26.7-19.4-.5-38-5.1-55.8-13.9-5.2-2.4-7.7-3.6-12.8-6 .5-27.5.7-41.2 1.2-68.7 1.7-45.7 2.9-69.2 3.7-69.7l1.7-.5c4.3.1 14.6 2.9 31 8.5 16.3 5.6 30.9 11.5 43.7 17.5s24.4 13.3 34.6 22c10.3 8.6 18 16.8 22.4 24.3 3.5 6 5.7 16.1 6.8 29.9 0 1.4.1 3.3.3 5.6q.3 3.45.3 4.5c-.1 7.7-2.4 14.3-7.1 19.8m-93 68.4c6.9 1.2 14.3 1.9 22 2.1 32.9.9 61.2-5.6 84.8-19.2 29-16.8 43.8-41.9 44-75.7.2-31.4-12.2-59.7-37.3-84.7-6.7-6.4-10.1-9.6-16.8-16 8.9-3.5 13.3-5.2 22.2-8.6 24.2-9.5 43.6-24.2 58.3-44.2 14.7-19.9 22.2-41.7 22.3-65.3.1-6.3-.5-12.3-1.6-18-5.2-30.7-17.5-56.9-36.9-78.7s-44.3-37.1-74.7-45.6c-13.3-4.1-31.5-6.5-54.5-7.1-25.4-.7-46.8 1-64 4.9-22.1 5-36.8 11.3-43.7 19q-10.2 11.55-13.2 43.8-1.8 19.5-1.8 141.6c0 19-.1 28.5-.1 47.5.5 64.1.7 96.1 1.1 160.1 2.5 2.6 3.8 3.9 6.4 6.4 7.7 7.5 19.4 14.7 35.1 21.8 15.6 7.1 31.8 12.4 48.4 15.9m260.6-2.6c4.3 2.7 14.7 4.7 31.4 6 18.9 1.4 47 2.9 84.1 5 30.1 1.7 48.3 2.7 54.2 2.6 6-.1 11-2.2 14.9-5.3 5-4.1 8.3-9.1 8.3-15.3.1-6.1-2.7-12.1-8.4-17.5-4.2-4-9.7-6.3-16.2-7-5.4-.5-10-.7-13.4-.8-5.7-.1-29.4-1.6-70.8-3.4-20-.9-30-1.3-50-2 .8-32.3 1.2-48.4 1.9-80.7 1.3-53.8 2.3-81.1 3.1-81.7l1.8.1c3.9.3 12.5 2 25.6 4.7 17.7 3.7 34.6 6.1 50.1 7.6 3 .3 4.5.4 7.6.7q23.25 1.65 29.1.9c3.9-.5 8.1-2.4 11.7-5.9 4.8-4.5 7.2-9.6 7.2-14.4.1-4.7-2.2-9.5-6.8-14.2-3.8-3.9-7.8-6.3-11.9-7.2-4-.9-15.4-2.7-33.5-4.6-25.4-2.5-45.7-5.2-60-8.9-8.9-2-13.3-3-22.2-4.9.1-28.8.1-43.1.1-71.9.1-8.7.1-13 .2-21.7.3-33.8 1.2-52.5 2.9-54.7 1.5-1.9 12.5-2.2 31.7-.6 14.2 1.2 21.4 1.8 35.7 3.1 10.5 1.3 23 2.6 37.4 4 18 1.8 30 1.1 34.6-2.3 5-3.8 7.7-9.9 7.8-16.4s-2.1-11.6-6.2-15.2c-5.4-4.7-13.8-8.5-25.1-11s-32.2-5.5-62.7-8.5c-10.5-.9-15.8-1.3-26.3-2.2-16.4-1.4-27.4-1.9-32.9-1.6s-12 1.4-19.7 3.3c-7.6 1.9-14 6.4-19.2 13.4-5.9 8.1-9.5 19.8-10.8 35.2-.1 70.9-.2 106.3-.3 177.1-.5 102.5-.1 162.7 1.1 180.6 1.2 17.8 5.7 29.5 13.4 35zm372.4 12.9c-12.4 0-21.3-.3-26.7-1.1-5.7-.7-13.8-2.7-24.2-5.8-25-7.6-38.6-13.1-40.9-16.9-1.1-1.9-1.6-10.9-1.3-27.1.8-58.1 4.6-116.2 11.3-174.2.8-6.9 1.2-10.4 2-17.2 5.4.6 8.1 1 13.4 1.7 9.3 1.1 21.3 4.3 36 9.4 51.4 16.8 89.5 36.9 114.4 59.5s38 49.1 39.4 79.4c-.1 3.1-.1 4.7-.2 7.9-.5 28.1-11.3 49.2-32.2 63.6-20.9 14.3-51.3 21.1-91 20.8m-76.9 28.3c13.4 4.8 27.2 8.3 41.5 10.2 1.9.2 5.2.6 9.8 1.1 4.6.4 8.3.8 11 1.2 59.7 6.8 106.1-1 139.3-23.4 28.6-19.3 45.1-47.1 48.6-83.9.4-2.7.7-7.1.8-13.1.4-20-3.9-40.5-13.2-61-11.3-24.8-27.4-46.5-47.8-64.6-20.3-18.1-48-35-83.1-50.3-12-5.4-18-8-30.1-13.3 9.7-4.6 14.5-6.9 24.1-11.4 75.3-35 116.5-54.2 123.6-60.1 3.5-3.6 5.4-8.1 5.5-13.4.1-5.2-1.3-10.3-4.4-15-3-4.7-7.2-8.1-12.6-10-1.5-.6-3.5-1.1-5.8-1.5-3.5-.6-8.8.5-15.8 3.2-7.1 2.8-22.4 9.6-45.9 20.9-77.7 36.8-121.6 58.1-131.8 61.4-5.4 1.6-8.1 2.4-13.5 4.1.4-27 .6-40.6 1.1-67.6.4-29.2-.2-47.3-1.8-54.2-1.7-6.9-6.4-11.7-14.2-14.4-1.1-.5-3.1-.9-5.8-1.2-9.7-1.2-17 1.3-21.8 7.4-2.7 3.6-4.9 38.4-7.9 102.8-3.1 67.8-6.2 112.2-7.7 131.8-3.4 47.2-5.4 99.5-6.2 156.9-.2 12.7-.1 19.9.2 21.7.4 2.4 8 8 23 16.4 14.9 8.5 28.6 14.9 40.9 19.3m435.4 34.5c-12.3-.8-21.1-1.7-26.5-2.8q-8.55-1.8-24-7.5c-24.7-9.2-38.2-15.7-40.4-19.6-1.2-2-1.5-11.1-1.2-27.3 1.4-58 5.6-115.8 12.8-173.3.8-6.9 1.3-10.3 2.1-17.1 5.3 1 8 1.5 13.3 2.6 9.2 1.8 21.1 5.7 35.6 11.9 50.9 20.2 88.5 42.9 113.1 67.2 24.5 24.3 37.3 51.7 38.3 82-.1 3.1-.1 4.7-.2 7.9-.8 28-11.6 48.5-32.5 61.4-20.8 12.9-51 17.6-90.4 14.6m-76.6 23.1c13.2 5.8 27 10.1 41.1 13 1.9.4 5.2 1 9.8 1.7 4.5.8 8.2 1.5 10.8 2 59.2 10.9 105.3 6.2 138.4-13.9 28.5-17.4 45.1-44 48.8-80.6.5-2.7.8-7 1-13 .6-20-3.6-40.8-12.6-61.9-11-25.6-26.8-48.3-46.8-67.8s-47.4-38.3-82-56c-11.9-6.1-17.8-9.2-29.7-15.3 9.6-3.9 14.4-5.9 24-9.8 74.9-29.9 115.9-46.3 123-51.7 3.5-3.4 5.4-7.7 5.6-13 .1-5.2-1.3-10.4-4.2-15.3-3-4.9-7.1-8.6-12.5-10.9-1.5-.7-3.4-1.3-5.7-1.9-3.5-.8-8.7-.1-15.7 2.2-7.1 2.3-22.3 8.1-45.7 17.7-77.4 31.6-121.2 49.9-131.3 52.5-5.4 1.3-8.1 1.9-13.4 3.2.6-27 .9-40.5 1.6-67.5.7-29.1.2-47.2-1.4-54.2-1.5-7.1-6.2-12.2-13.9-15.4-1.1-.6-3-1.2-5.8-1.7q-14.4-2.7-21.6 6c-2.8 3.4-5.2 38-8.7 102.2-3.7 67.6-7.2 111.8-8.8 131.3-3.8 46.9-6.2 99.1-7.5 156.4-.3 12.7-.2 20 .1 21.8.4 2.4 7.9 8.4 22.6 17.9 14.8 9.5 28.3 16.8 40.5 22m302.4 53.8c4 4.5 8.9 7.6 14.6 9.1 4.1 1.1 7.6.8 10.3-.5 3.3-1.6 15.9-14.2 37.2-37.7 21.4-23.4 39.6-45 54.8-64.3 13.8-17.7 27.8-33.6 41.6-47.5 13.9-13.9 22.3-20.3 25.3-19.5l.6.2c1.1 1.4 5.8 13.2 14.2 35 10.4 26.7 27.4 64.6 50.5 113.5 23.1 48.8 38.2 78.4 45.4 88.5 3.2 4.2 8 7.3 14.4 9.4 6.7 2.1 12.7 2.1 17.6-.2 4.2-2 6.4-5.7 6.6-10.6.3-6.7-3.5-18-11.2-34-42.8-87.8-72.7-151.6-89.2-192-2.8-6.9-6-14.7-9.5-23.3-3.5-8.7-6.3-15.6-8.4-20.6-2.1-5.1-3.5-8.2-4.2-9.5-2.2-4.2-2.3-38.8-.4-103.7.6-30.7.9-46 1.5-76.6-2.6-3.4-3.9-5-6.6-8.3-4.4-5.6-9.8-9.3-16.3-11.2-7.2-2.1-13.5-1.6-17.9 1.7-3.5 2.7-5.6 11.9-6.1 27-.1 2.1-.3 21.5-.8 58.1-.7 40.2-1 60.3-1.7 100.5-10 8.4-14.9 12.6-24.8 21-24.9 21.7-46.7 46.7-65.6 74.9-5.6 8-20.5 26.7-44.7 55.5-22.4 26.6-34 43.8-34.3 51.1-.1 4.3 2.4 8.9 7.1 14m-1987.2-716.4c1 4 3.5 7.3 7.5 9.8 4 2.6 8.3 3.7 12.7 3.3 2.5-.2 5.2-1.2 8.2-3.1 5.7-3.9 7.9-12.8 6.7-26.8-.4-4.3-.9-7.5-1.4-9.7-1.7-9.2-7.6-67.4-17.8-174.4-7.3-76-12-121.8-13.7-137.1s-3.9-23.9-6.3-25.8c-3.2-2.7-7.7-4-13.3-3.5-6.6.6-11.7 3.1-15.2 7.5-2.4 3-3.9 6.7-4.5 10.9-.6 4.3-.7 13.5-.4 27.4.3 13.1 1.8 34.7 4.6 64.7 4.6 48 10.4 100.4 17.6 157.3 7.1 57 12.2 90.1 15.3 99.5m64.5-154.5c3 2.6 7.8 3.6 14.2 3 6-.5 10.6-3.4 13.2-8.5 2.5-5 3.7-14.9 3.6-29.3 0-14.3-1.4-45.6-4.2-93.6-1.8-30.6-2.7-45.9-4.5-76.4-2.7-2.2-4-3.3-6.8-5.5-4.2-3.4-9.1-4.9-14.6-4.5-4.9.4-9.2 2.4-13 6-3.9 3.6-5.9 8.3-6.5 13.9-.5 4.9 1.7 38.3 6.9 100 1.4 16.5 2 24.8 3.4 41.3 2.8 33.2 5.6 51.2 8.3 53.6m.4 38.8c-.7 2.9-1 5.5-.8 8 .4 4.6 2.3 8.2 5.5 10.8 3.2 2.5 7.6 3.6 13.3 3.1 5.3-.4 9.5-2.2 12.4-5.2q4.35-4.5 3.9-11.1c-.3-3.1-1.1-5.8-2.6-8.2-3.4-6.6-9-9.6-16.9-8.9-7.6.6-12.5 4.4-14.8 11.5m240.3-32.1c-5.8 4.6-10.4 7.5-13.6 8.6-3.3 1.1-8.9 2.1-16.8 2.8-2.1.1-3.1.2-5.2.3-15.2.9-30.8-3.6-47-13.1-20-11.8-34-31.9-41.7-60.3-2.6-8.9-4.1-17.4-4.6-25.4-1.6-22.7 4.7-42.2 18.9-58.3 11-12.5 23.1-19.2 35.7-20 2.6-.1 4.5-.1 5.8.1 8.5.5 19.7 3.6 33.7 9.6 13.9 5.9 25.9 12.3 35.5 19.3 10 7.4 15.7 11.4 17 11.3q3.3-.15 10.2 62.1c1.7 14.8 2.5 22.2 4.2 37.1-2.9 3.3-4.4 5-7.3 8.3-4.8 5.2-8 7.8-9.6 7.9s-6.7 3.3-15.2 9.7m53.4 55.2c3.9 1.4 7.8 1.2 11.8-.5 4.2-1.7 7.1-4.2 8.4-7.3 1.3-3.2 1.7-9.6 1.3-19.2-.3-8.4-1.3-20.2-2.9-35.4-7.8-75.7-12.9-145-16.1-206.9-3.3-64.4-5.7-98-6.8-100.1q-2.1-4.05-5.4-7.2t-14.4-2.1c-7.3.6-11.9 1.9-13.7 3.9-1.9 1.9-3.5 4.4-4.6 7.2-1.5 3.7-.9 31.5 1.6 83 1.6 32.6 1.7 48.9.4 49s-7.7-2.8-19.4-8.4c-26-12.6-49.9-18.3-71.3-17-11.4.7-21.9 3.6-31.3 8.5-8.2 4.3-17 10.9-26.3 19.9-9.3 9.1-16.3 17.7-20.9 25.8-11 19.2-15.5 41.5-13.6 66.9 4.5 62 32.4 103.3 83 124.7 19.5 7.8 37.1 11.3 53.1 10.4 15.1-.9 30.3-5.8 45.6-14.2 13.3-7.2 20.9-10.8 22.2-10.9 1.6 0 3.3 3.6 4.7 10.6 2.3 10.5 7 17.2 14.6 19.3m264-21.2c3.8 3 7.6 4.6 11.4 4.5 3.7 0 8-1.7 11.7-5.2 3.5-3.2 5.2-7.7 5.1-12.6 0-5.6-2-17.9-5.9-36.8-10.9-51.2-16.6-95.2-17-131.8-.2-27.4 2.5-51.8 8.1-73.3 1.3-6.2 1.9-10.4 1.9-12.6-.1-13.7-6.7-20.5-19.8-20.3-14.7.1-24 14.7-27.8 43.7q-1.8 11.7-3.3 11.7c-1 0-4.7-3.9-11.4-11.5-20.2-24.6-45-36.5-74.1-35.8q-18.6.45-29.7 5.7c-7.4 3.5-15.9 10.2-25.3 20.1-14.9 15.4-25 35.7-30.6 60.8-2.8 11.6-3.6 32.5-2.5 62.6.9 26.1 3.1 51.3 6.4 75.6 3.2 24.3 6.9 39.2 10.8 44.6 3.7 5.1 9.1 7.6 16.4 7.4 7.3-.3 11.9-2.9 14-7.9 1.1-2.6 1.7-6 1.5-10.3-.1-3.8-1.2-12.6-3.2-26.5-2.8-19.5-4.7-42.2-5.5-68-1-31.3-.1-53.1 2.8-65.3 4.5-19.7 10.9-34.5 19-44 8.5-9.9 17.7-14.9 27.4-15.2 22.4-.6 42 13.3 58.3 41.4 16.4 28.2 26 52 28.7 71.1 1.9 13.6 5.8 34.4 11.9 62.1 6.1 27.8 10.3 45.8 13 53.7 1.8 5.6 4.6 9.6 7.7 12.1m214-46.4c-8.3 4.6-18.5 7-30.6 7.5-2.4 0-3.7-.1-6.1-.1-8.9-.1-16.1-1.4-21.6-4-5.5-2.5-11.9-7.4-19.2-14.6-11.6-11.6-19.4-25.9-23.1-43q-2.4-10.35-2.4-12.6c.1-1.9.7-3.4 2-4.7 7-5.8 24.2-9.4 51-10.8 4.8-.2 10.2-.3 16.3-.2 7.7.1 15.6 2.3 23.5 6.4 7.5 3.8 14.6 9.7 21 17.6s10.2 15.1 11.3 21.6c.3 1 .5 2.4.4 4.3-.2 13.3-7.8 24.2-22.5 32.6m-64.6 44.9c6.2 2.2 15.2 3.4 26.9 3.5 16.3.2 30.7-1.7 43.1-5.8 9.8-3.3 19.6-9.1 29.2-17.6 9.7-8.5 17.1-17.6 21.6-27 4.7-10 7.2-19.9 7.4-29.2.5-18.4-7.2-36.7-23.1-54.7-20.6-23.1-46.8-35-78-35.4-1 0-2.7.1-5.1.2s-4.3.2-5.5.2c-15.5.7-28.7 2.5-39.7 5.2-4.8 1.5-9.7 2.3-14.5 2.3h-1.4c-.7-1 .1-5.8 2.2-14.5s4.7-16.8 7.6-24.2c2.7-6.8 7.1-13.6 13.5-20.2s13-11.5 19.8-14.5c7.8-3.4 15.5-5 23-4.9 20.8.3 36.7 8.9 47.8 25.9 5.3 7.9 9.5 13 12.3 15.2 3.4 2.5 7.2 3.9 11.1 3.9 5.2.2 9.8-1.6 13.9-5.2 4.2-3.7 6.3-8.1 6.4-13.4.2-6.9-3.1-15.2-9.9-25-6.7-9.7-14.6-17.5-23.6-23.3-19-11.9-36.6-17.9-52.6-18.1-1 0-2.4 0-4.2.1-1.8.2-3.3.2-4.6.2-24.2 1-45.7 9.5-64.3 25.6-13.1 11.5-23.3 27.3-30.5 47.5-7.3 20.2-10.9 42-10.8 65.3 0 9.3.7 19.8 2.4 31.3 3.8 26 12.8 48.4 26.7 67.1s31.5 31.8 52.9 39.5m368.5 13.7c3.6 3.2 7.2 5.1 11 5.3s8.1-1.2 12.1-4.4c3.7-3 5.7-7.3 6-12.3.3-5.6-.8-17.9-3.5-37.1-7.3-51.8-10.1-96-7.9-132.7 1.6-27.3 5.9-51.4 13-72.5 1.7-6.1 2.6-10.3 2.7-12.4.8-13.7-5.3-20.9-18.3-21.7-14.7-.8-25 13.1-30.8 41.7-1.7 7.7-3 11.5-4 11.5-1-.1-4.5-4.1-10.6-12.2-18.5-25.9-42.5-39.5-71.5-40.8-12.4-.5-22.5.8-30.1 3.7-7.6 3-16.5 9.1-26.6 18.4-15.9 14.4-27.4 33.9-34.6 58.5-3.6 11.4-5.9 32.2-6.8 62.3q-1.2 39.15 1.2 75.9c1.7 24.4 4.3 39.5 7.9 45.2 3.3 5.4 8.5 8.2 15.8 8.5 7.2.2 12-2.1 14.4-7 1.4-2.4 2.1-5.8 2.3-10.1.1-3.8-.3-12.7-1.4-26.7q-2.25-29.4-.9-68.1c1.1-31.4 3.6-53.1 7.2-65.1 5.9-19.3 13.2-33.6 22-42.5 9.1-9.3 18.6-13.8 28.4-13.3 22.4.9 40.9 16 55.3 45.2s22.5 53.7 23.8 72.9c1 13.6 3.5 34.7 7.7 62.8s7.2 46.3 9.3 54.4c1.5 5.7 3.9 9.9 6.9 12.6m73.9 6.9c3.2 3.7 7.8 5.7 13.8 6.1s10.5-1 13.5-3.7c2.9-2.6 5.7-12.3 7.8-28.9 1.2-9.5 1.9-14.2 3.1-23.6 5.6 5.2 8.3 7.9 13.8 13.1 10.2 9.5 21.9 18.3 35.2 26.1 9.9 5.8 17.2 9.5 21.7 11.1 4.4 1.6 12.6 3.1 24 4.8 4.4.6 9.4 1.3 15.1 1.8 7.5.6 14.4-.2 20.6-2.4 11.5-3.7 21-8.8 28.6-15.2 7.6-6.5 11.7-12.8 12.3-19l-.1-1.4-.2-1.4c-1.6-10.2-6.9-15.7-16.1-16.5-6.4-.6-13.7 1.5-21.2 6.5-10.1 6.7-20.4 10.3-30.5 9.5-3.8-.3-8-1.2-12.6-2.5-31.8-8.6-58.5-31.2-80.5-68-2.9-4.7-4.4-7.1-7.3-11.8 1.2-17 3.4-42.7 6.5-77.1s5.3-60.2 6.5-77.6c-2.1-2.6-3.2-3.9-5.4-6.5-3.6-4.6-8.3-7.1-14.2-7.5q-7.8-.6-14.1 5.1c-6.6 5.8-11.5 32.4-14.6 79.9-.7 9.3-2.3 37-4.6 82.8-2.6 51.8-3.8 83.6-3.9 95.1-.2 11.5.8 18.6 2.8 21.2" style="fill:#100f0d;fill-opacity:1;fill-rule:nonzero;stroke:none" transform="matrix(.01683 0 0 -.01683 -205.513 777.167)"/><path d="m17636.8 43186.8-46.8-1916.1c3.1-239.5-493.5-537.5-867.4-740.7-19.2-10.5-34.9-19-46.4-25.4-341.3-191.2-491.5-293.9-473-725.2l30-700.2c39.5-918.5 85.4-1987.5 114.7-2671.9 16.2-375.4 27.5-639.7 30.4-707.1l.8-16.9c10.6-302.6 809.3-769.1 1773.1-772.9 3.9-.1 7.8-.1 11.7-.1 424.4 0 852.2 91.8 1206 258.8 308.6 145.6 514.5 328.9 537.8 478.7l191.4 4041.5c19.4 413.5-93.3 530.5-551.9 776.2-36 20.1-874.1 490.7-872.7 762.3l-27.3 1948.3zm527.4-8317.6h-12.2c-447.6 1.8-897.3 101.2-1266.1 279.9-332.1 160.9-542 365-548 532.6l-.7 16.7c-2.9 67.5-14.2 331.8-30.4 707.1-29.3 684.4-75.2 1753.4-114.7 2672l-30 700.1c-19.5 454.6 146.6 568.3 494 762.9 11.6 6.4 27.5 15.1 46.8 25.6 563.5 306.3 848.1 543.4 846 704.9l47.8 1957.3 1091-11.5 27.9-1988.9c-1-205.7 614.2-594 851.3-726.3 469.4-251.5 593.7-381.2 573.3-814.2l-191.7-4044.7c-46.9-312.9-815.8-773.5-1784.3-773.5" style="fill:#231f20;fill-opacity:1;fill-rule:nonzero;stroke:none" transform="matrix(.01683 0 0 -.01683 -205.513 777.167)"/><path d="M18706.5 43422.8v-2083.1s-145.2-97.8-530.4-94.7c-101.6.9-190.9 10.7-267.2 24.5-108.8 19.8-191.4 47.9-245.7 70.5-51.2 21.3-107.6 44.2-107.6 44.2l33.3 2089.1 74.3-3.4 245.7-11.1z" style="fill:#cdeee9;fill-opacity:1;fill-rule:nonzero;stroke:none" transform="matrix(.01683 0 0 -.01683 -205.513 777.167)"/><path d="M17972 43445.7v-2189.4c-108.7 19.8-191.3 47.9-245.6 70.6v2129.8z" style="fill:#fff;fill-opacity:1;fill-rule:nonzero;stroke:none" transform="matrix(.01683 0 0 -.01683 -205.513 777.167)"/><path d="M17591.6 41394.8c47.1-25.1 257.7-126.5 584.7-129.2 320.4-2.7 472.6 66.2 509.6 86v2051.5l-1076.6 48.7zm602.8-170.4h-18.5c-383.5 3.2-606.3 135.2-615.6 140.8l-10.1 6.1.2 11.7 18.1 2111.8 1158.5-52.3v-2113.7l-9-6.1c-6.1-4.1-150.3-98.3-523.6-98.3" style="fill:#231f20;fill-opacity:1;fill-rule:nonzero;stroke:none" transform="matrix(.01683 0 0 -.01683 -205.513 777.167)"/><path d="m18777 43737.8-.5-176.9c0-99.8-66.5-186.9-162.4-214.4-239.2-68.5-481.9-79.8-727.8-37.8-60.6 10.2-121.4 23.8-182.5 40.5-17.3 4.8-33.6 11.5-48.9 19.9-70.1 38.5-115.9 112.5-115.9 195.1l2.8 170.3c0 26.3 4.9 52.3 14.3 76.9l-3.1 87.6-3.1 10.3c-3.7 13-5.7 26.5-5.9 40.1l-5 446h1237.5V43931c0-24.8-5.5-49.2-16-71.5l-.8-56 .9-1.6c10.8-19.7 16.4-41.8 16.4-64.1" style="fill:#531747;fill-opacity:1;fill-rule:nonzero;stroke:none" transform="matrix(.01683 0 0 -.01683 -205.513 777.167)"/><path d="M17886.3 43308.7c-60.6 10.2-121.4 23.8-182.5 40.5-17.3 4.8-33.6 11.5-48.9 19.9l-25.1 932.6 51.8 93.7 3.5 6.3 33.5-6.3 148.1-27.9z" style="fill:#7d4079;fill-opacity:1;fill-rule:nonzero;stroke:none" transform="matrix(.01683 0 0 -.01683 -205.513 777.167)"/><path d="M18166.2 43742.9c-302.3 0-555.2 63.9-609.3 145.8-1.1-19.5-.5-58.4 3.1-78.1 57.7-80.6 304-138.2 603-138.2 304.1 0 547.8 49.4 597.8 129 1.3 14.7-1.1 39.9-1.7 64.1-80.1-71.2-316.9-122.6-592.9-122.6" style="fill:#331a15;fill-opacity:1;fill-rule:nonzero;stroke:none" transform="matrix(.01683 0 0 -.01683 -205.513 777.167)"/><path d="M17579.5 43818.9c51.5-63.1 265.6-125.9 583.5-125.9 291.8 0 526.9 47.2 577.6 115.3.1 5.1-.1 11.5-.4 18.4-105.5-63.3-326.6-104.3-574-104.3-264.1 0-490.8 46.7-588.5 117.3.4-7.7 1-14.9 1.8-20.8m583.5-167c-307.8 0-556.8 58.9-619.7 146.7l-2.6 3.7-.9 4.5c-4 21.6-4.6 62.1-3.5 83l3.4 62.2 34.3-52c44.4-67.1 278-136.5 592.2-136.5 263.3 0 501.5 48.3 579.2 117.4l33.2 29.5 1.1-44.4c.2-8.5.6-17.1 1-25.4.8-16.2 1.5-30.2.6-40.9l-.4-5-2.7-4.2c-64.1-102.2-359.8-138.6-615.2-138.6" style="fill:#231f20;fill-opacity:1;fill-rule:nonzero;stroke:none" transform="matrix(.01683 0 0 -.01683 -205.513 777.167)"/><path d="M18221.6 43533.9c-8.1 0-16.1 0-24.1.1-273.5 3.5-558.1 63.1-662.2 138.6l24.2 33.3c96.4-70 376.9-127.4 638.5-130.8 281.3-3.3 523.5 52.9 564.4 105.7l32.5-25.2c-60-77.4-333.7-121.7-573.3-121.7" style="fill:#231f20;fill-opacity:1;fill-rule:nonzero;stroke:none" transform="matrix(.01683 0 0 -.01683 -205.513 777.167)"/><path d="m17559.8 44374.8 4.8-425.2c.1-11.7 1.8-23.3 5.1-34.6l3.7-12.8 3.4-94.3-1.5-3.9c-8.5-22.3-12.9-45.7-13-69.5l-2.7-170.6c0-90.4 61.5-170.6 149.7-194.8 307.8-84.5 610.3-85.4 899.1-2.8 86.9 24.8 147.6 104.9 147.6 194.6l.5 176.9c0 18.8-4.8 37.6-13.9 54.1l-3.5 6.4.9 66 1.9 4c9.2 19.4 14.1 41.1 14.1 62.7v443.8zm611.1-1110.9c-155.4 0-313.3 21.8-472.5 65.5-106 29.1-180 125.7-180 234.8l2.8 170.7c.1 27.1 4.9 54 14.2 79.8l-2.9 81-2.3 7.9c-4.3 14.8-6.6 30.2-6.7 45.6l-5.3 466.8h1278.9v-485c0-26.1-5.6-52.3-16.1-76.1l-.7-46.4c11.4-21.8 17.3-46.2 17.3-70.8l-.5-176.9c0-107.9-72.9-204.2-177.4-234-146.5-42-296.5-62.9-448.8-62.9" style="fill:#231f20;fill-opacity:1;fill-rule:nonzero;stroke:none" transform="matrix(.01683 0 0 -.01683 -205.513 777.167)"/><path d="M18776.5 44399.6c0-97.6-277-176.8-618.7-176.8-341.8 0-618.8 79.2-618.8 176.8s277 176.8 618.8 176.8c341.7 0 618.7-79.2 618.7-176.8" style="fill:#7d4079;fill-opacity:1;fill-rule:nonzero;stroke:none" transform="matrix(.01683 0 0 -.01683 -205.513 777.167)"/><path d="M18157.8 44555.8c-352.6 0-598.2-82.3-598.2-156.2s245.6-156.2 598.2-156.2c352.5 0 598.2 82.3 598.2 156.2s-245.7 156.2-598.2 156.2m0-353.6c-310 0-639.4 69.2-639.4 197.4s329.4 197.4 639.4 197.4c309.9 0 639.3-69.2 639.3-197.4s-329.4-197.4-639.3-197.4" style="fill:#231f20;fill-opacity:1;fill-rule:nonzero;stroke:none" transform="matrix(.01683 0 0 -.01683 -205.513 777.167)"/></svg>