<svg xmlns="http://www.w3.org/2000/svg" xml:space="preserve" width="200mm" height="200mm" viewBox="0 0 200 200"><g style="display:inline"><path d="M13166.9 35479.1c32.2 234.1 182.3 2101.3 258.9 2915.3 110.8 1178.2 61.7 1526.1-336.6 1912.3-139.3 135-840.2 694.2-935.9 874.5-103 194-155.2 409.6-158.1 627.6-5.3 415.1-19.7 887.7-6 1302.8 5 152.4 29.8 285.3-23.4 438-82.6 38.8-885.6 54.8-993 3.4-42.4-188.8-47.9-398.5-40.6-568.1 17.7-407.2 11.4-816.5-2.6-1224.4-7.6-220.1-57.7-428-173.7-615.9-115.7-187.3-944.38-777.6-1071.57-952.8-321.93-443.3-201.84-891.5-144.76-1817.5 78.68-1276.4 270.07-2743 273.44-2855 7.94-264.1 972.39-504.2 1709.19-504.2 692.7 0 1611.7 224.2 1644.7 464" style="fill:#ecf9f7;fill-opacity:1;fill-rule:nonzero;stroke:none" transform="matrix(.01771 0 0 -.01771 -103.227 810.523)"/><path d="M11174.9 41251.3c-65.3 0-118.3 45.1-118.3 100.8v876.9c0 55.7 53 100.8 118.3 100.8s118.3-45.1 118.3-100.8v-876.9c0-55.7-53-100.8-118.3-100.8" style="fill:#fff;fill-opacity:1;fill-rule:nonzero;stroke:none" transform="matrix(.01771 0 0 -.01771 -103.227 810.523)"/><path d="M13425.8 38394.4c-76.6-814-226.7-2681.2-259-2915.4-32.9-239.7-951.9-463.9-1644.5-463.9-737 0-1701.35 240.1-1709.24 504.2-3.45 112-194.79 1578.6-273.5 2855-57.04 926-177.12 1374.2 144.76 1817.5 127.18 175.2 955.98 765.5 1071.58 952.8 85.3 138.2 134.8 287.2 158.2 443.9 44.6-10.6 92.2-20.6 142.5-29.8 73.2-13.3 152.4-24.6 236.6-32.6 83.4-8 171.9-12.6 264.9-12.6 130.7 0 288.4 31 456.4 80.3 23.9-143.3 69.9-282.9 138.8-412.6 95.8-180.2 796.6-739.5 935.8-874.5 398.5-386.2 447.4-734.1 336.7-1912.3" style="fill:#4d1418;fill-opacity:1;fill-rule:nonzero;stroke:none" transform="matrix(.01771 0 0 -.01771 -103.227 810.523)"/><path d="M10990.6 43538c-42.4-196-44-407.8-37.8-552.2 15.2-352.1 14.4-730.2-2.7-1226-8.3-242.1-66.1-446.9-176.8-626-63.4-102.7-327.2-316.8-582.4-523.8-222.19-180.3-432.07-350.6-489.92-430.3-256.84-353.6-226.6-720.5-176.47-1328.4 11.64-141.2 24.83-301.2 35.59-475.8 57.15-927.1 172.6-1944 234.63-2490.3 23.63-208.2 37.89-333.8 38.85-365.3 3.31-110 215.02-234.1 566.22-331.9 342.6-95.4 762.2-152.4 1122.4-152.4 730.3 0 1595.6 237.8 1624.3 446.3 18.3 132.6 74.5 791.2 134 1488.5 45.1 528.4 91.8 1074.7 124.8 1425.9 50.3 534.7 73.4 951.5 22.8 1247.8-44.9 263.3-143.9 445-353.3 647.9-39.5 38.3-128 113.9-230.5 201.5-269.7 230.5-639.1 546.1-709.1 678-102.1 192.2-157.6 412.5-160.5 637-1.3 94.7-3 192.4-4.7 291.7-5.9 339.8-12 691.1-1.3 1012.1 1 32.2 3 63.6 4.8 94 6.8 110.1 13.3 214.1-24.1 327.5-110 34.4-830.6 47.3-958.8 4.2m531.6-8543.5c-363.7 0-787.4 57.5-1133.4 153.9-220.4 61.3-590.96 191-596.36 370.3-.88 29.7-15.88 161.8-38.58 361.8-62.07 546.7-177.59 1564.3-234.82 2492.5-10.72 174.1-23.91 333.9-35.54 474.9-50.89 617.4-81.62 990 184.19 1356 61.03 84.1 272.94 256 497.31 438 252.5 204.9 513.6 416.7 573.3 513.5 106.8 172.9 162.7 371.1 170.7 605.8 17.1 494.7 17.9 871.8 2.7 1222.9-6.5 149.4-4.6 370.2 41 573.5l2.2 9.7 9 4.3c110.5 52.9 924.2 37.2 1010.7-3.4l7.8-3.7 2.8-8.1c43.5-124.8 36.6-235.5 29.4-352.7-1.9-30.1-3.8-61.2-4.8-92.8-10.6-319.9-4.5-670.7 1.4-1010 1.7-99.3 3.4-197.1 4.6-291.9 2.8-217.9 56.7-431.7 155.7-618.2 66.4-125 447.4-450.6 699.6-666.1 107.2-91.6 191.9-164 232.4-203.2 395.1-383 455.9-725.5 342.8-1929-33-351.1-79.7-897.3-124.8-1425.6-59.6-697.8-115.8-1357-134.2-1490.6l-20.4 2.8 20.4-2.8c-22.5-163.2-379.3-282.4-590-339-333.1-89.4-735-142.8-1075.1-142.8" style="fill:#231f20;fill-opacity:1;fill-rule:nonzero;stroke:none" transform="matrix(.01771 0 0 -.01771 -103.227 810.523)"/><path d="M10765.2 35422.9c-2.4 0-4.7.1-7.1.3-249.2 22.4-554.4 170.8-662.5 227.1-25 13.1-41.5 38.8-43.5 67.8l-263.24 3833.8c-3.48 50.6 36.09 88.7 79.41 88.7 13.54 0 27.44-3.7 40.51-12 307.02-192.9 684.42-285.4 831.62-316.2 36.7-7.6 63.2-40.9 63.6-79.8l3.5-317.9c-233.3 12.3-441.5 30.8-592.3 55.3-4 .7-7.8 1-11.5 1h-1.6c-54.8-.3-82.6-63.5-93.9-133.6-13.6-39.3-19.1-81.4-15.3-123.8l199.1-2268.7c11.3-126.9 101.9-233.4 227.1-266.8 106.3-28.2 212.6-51.4 319.2-69.7 0 0 0 2.3-.2 6.6h.1l6.7-608.7c.5-46.4-35.9-83.4-79.7-83.4m-365.9 4266.1c-285.9 0-552.44 222.8-516.9 361.6 77.83 303.8 1174.2 956.1 1174.2 956.1 36.3 9.3 61.8 13.2 79.7 13.2 56.7 0 36.5-39.2 38.6-68.8 2.8-38.9-319.3-1161.9-647.3-1246.2-42.6-10.9-85.6-15.9-128.3-15.9" style="fill:#96352c;fill-opacity:1;fill-rule:nonzero;stroke:none" transform="matrix(.01771 0 0 -.01771 -103.227 810.523)"/><path d="M11174.9 41251.4c-65.4 0-118.3 45.1-118.3 100.7v206.6c73.2-13.3 152.4-24.6 236.6-32.6v-174c0-55.6-53-100.7-118.3-100.7" style="fill:#9f2720;fill-opacity:1;fill-rule:nonzero;stroke:none" transform="matrix(.01771 0 0 -.01771 -103.227 810.523)"/><path d="M12234.8 35424.8c-149.8.1-263.9 15.9-263.4 45.9 1.7 99.4 684.5 101.3 763.7 166.6 162.9 134.4 116.6 375.4 131.6 573.4 20.1 265.8 98.3 2748.3 305.8 2748.3.7 0 1.4 0 2-.1 210.2-15.9-71.9-2281.3-90.2-2524-19.3-256.2 40-687.5-176.9-880.9-99.1-88.3-432-129.2-672.6-129.2" style="fill:#96352c;fill-opacity:1;fill-rule:nonzero;stroke:none" transform="matrix(.01771 0 0 -.01771 -103.227 810.523)"/><path d="M12000.4 43808.9v-1656.7s-139.8-96.2-510.7-93.1c-97.9.8-183.9 10.5-257.4 24-104.7 19.5-184.2 47.2-236.5 69.4-49.3 20.9-74.6 37-74.6 37l3 1669 71.6-3.3 236.5-10.9z" style="fill:#4d1418;fill-opacity:1;fill-rule:nonzero;stroke:none" transform="matrix(.01771 0 0 -.01771 -103.227 810.523)"/><path d="M10936.4 42198.2c10.5-6 32.6-17.7 65.3-31.6 47.7-20.3 126.9-48.7 233.4-68.5 81.4-15 167.1-23 254.7-23.7 316.7-2.7 463.8 68.6 495.4 86.4v1633.5l-1045.8 48.2zm570.9-154.4c-5.9 0-11.7 0-17.8.1-89.3.7-176.8 8.9-259.9 24.2-109.3 20.3-190.7 49.5-239.8 70.4-49.8 21.1-75.7 37.4-76.8 38.1l-7.1 4.5v8.4l3.1 1685 1106.6-51.1v-1679.2l-6.6-4.6c-5.7-3.9-143.5-95.8-501.7-95.8" style="fill:#231f20;fill-opacity:1;fill-rule:nonzero;stroke:none" transform="matrix(.01771 0 0 -.01771 -103.227 810.523)"/><path d="M11293.2 42094.2c-98.2 14-177.6 36.1-236.6 57v1563.6c51.1-13.5 101.9-24.7 151.4-33.2q42.6-7.35 85.2-12.6z" style="fill:#96352c;fill-opacity:1;fill-rule:nonzero;stroke:none" transform="matrix(.01771 0 0 -.01771 -103.227 810.523)"/><path d="M10941.8 42201.3c43.6-24.1 234.9-119 548.1-121.6 308.1-2.8 454 64.7 490 84.3v1625.2l-1035.1 47.8zm565.5-162.9c-5.9 0-11.8.1-17.8.1-369.8 3.1-570.9 128.3-579.3 133.6l-9.6 6.1 3.1 1701.9 1117.3-51.6v-1687.1l-8.9-6.1c-5.9-4-144.9-96.9-504.8-96.9" style="fill:#231f20;fill-opacity:1;fill-rule:nonzero;stroke:none" transform="matrix(.01771 0 0 -.01771 -103.227 810.523)"/><path d="m12068.3 44118.6-.5-174c0-98-64-183.8-156.3-210.8-230.4-67.3-464.1-78.5-700.9-37.2-58.4 10.1-116.9 23.5-175.7 39.9-16.7 4.7-32.4 11.3-47.1 19.6-67.6 37.8-111.7 110.6-111.7 191.9l2.8 167.4c0 25.9 4.7 51.5 13.8 75.6l-3.1 86.1-2.9 10.2c-3.6 12.8-5.5 26.1-5.7 39.4l-4.9 438.7h1191.7v-456.8c0-24.3-5.3-48.3-15.4-70.3l-.7-55.1.8-1.5c10.5-19.4 15.8-41.1 15.8-63.1" style="fill:#bae7e0;fill-opacity:1;fill-rule:nonzero;stroke:none" transform="matrix(.01771 0 0 -.01771 -103.227 810.523)"/><path d="M12068.3 44118.6h.1zm-1176.7 631.5 4.7-423.2c.1-11.9 1.9-23.9 5.1-35.5l3.5-13.7 3.1-89.2-1.1-2.9c-8.5-22.7-12.8-46.3-12.8-70.2l-2.7-167.7c0-74.1 39.8-142.5 103.8-178.3 14-7.9 28.7-14 43.8-18.2 58.7-16.4 117.4-29.8 174.2-39.5 236-41.2 469.5-28.8 694 36.7 85.6 25.1 145.4 105.8 145.4 196.2l.5 174c0 19.6-4.9 38.9-14 55.8l-2.7 5.2.8 62.2 1.4 2.9c9.1 19.9 14 41.9 14 63.9v441.5zm592.7-1092.7c-91.5 0-183.7 8.1-276.3 24.2-57.8 10-117.5 23.5-177.2 40.2-17.4 4.9-34.4 12-50.5 21-73.6 41.2-119.4 119.8-119.4 205.2l2.7 167.6c0 26.3 4.6 52.5 13.7 77.8l-2.8 81.3-2.5 8.4c-3.9 14.3-6 28.8-6.2 43.4l-5.1 454.1h1222.4v-472c0-25.2-5.4-50.6-15.5-73.7l-.6-48c10.8-20.8 16.6-44.4 16.6-68.3l-.5-174c0-103.9-68.8-196.6-167.4-225.4-140.8-41.2-285.2-61.8-431.4-61.8" style="fill:#231f20;fill-opacity:1;fill-rule:nonzero;stroke:none" transform="matrix(.01771 0 0 -.01771 -103.227 810.523)"/><path d="M11210.4 43712.2c-56 9.7-113.6 22.8-171.4 39-15.1 4.2-29.8 10.3-43.8 18.2-2.7 1.5-5.3 3-7.9 4.7l-23.7 899.1 41.7 76.9h123.1l63.4-12.2z" style="fill:#e8f7f5;fill-opacity:1;fill-rule:nonzero;stroke:none" transform="matrix(.01771 0 0 -.01771 -103.227 810.523)"/><path d="M11210.6 43696.6c-58.4 10.1-116.9 23.5-175.7 39.9-16.7 4.7-32.4 11.3-47.1 19.6l-.5 18c2.6-1.7 5.2-3.2 7.9-4.7 14-7.9 28.7-14 43.8-18.2 57.8-16.2 115.4-29.3 171.4-39zm-82.2 1053.5h-123.1l8.2 15.3 3.4 6.2 32.2-6.2z" style="fill:#9d9d9c;fill-opacity:1;fill-rule:nonzero;stroke:none" transform="matrix(.01771 0 0 -.01771 -103.227 810.523)"/><path d="M11480.1 44123.7c-291 0-534.6 62.8-586.7 143.4-1-19.2-.5-57.5 3-76.9 55.6-79.2 292.7-135.8 580.7-135.8 292.8 0 527.5 48.5 575.6 126.9 1.2 14.3-1 39.2-1.6 63-77.2-70.1-305.2-120.6-571-120.6" style="fill:#7c161a;fill-opacity:1;fill-rule:nonzero;stroke:none" transform="matrix(.01771 0 0 -.01771 -103.227 810.523)"/><path d="M10916 44198.4c49.4-61.9 255.3-123.5 561.1-123.5 280.6 0 506.7 46.3 555.4 113.1.1 4.8-.1 10.7-.3 17.1-102.3-61.9-314.6-102-552.1-102-253.1 0-470.8 45.6-565.8 114.6.4-7.1.9-13.8 1.7-19.3m561.1-164.6c-296.7 0-536.8 58.1-597.5 144.6l-2.6 3.7-.8 4.4c-3.9 21.2-4.4 61-3.3 81.6l3.3 63.4 34.5-53.3c42.6-65.8 267.2-133.9 569.4-133.9 253.4 0 482.5 47.4 557.2 115.2l33.3 30.3 1.1-45c.2-8.4.6-16.9 1-25 .7-16 1.4-29.7.5-40.3l-.4-4.9-2.6-4.1c-61.9-100.8-347-136.7-593.1-136.7" style="fill:#231f20;fill-opacity:1;fill-rule:nonzero;stroke:none" transform="matrix(.01771 0 0 -.01771 -103.227 810.523)"/><path d="M11533.5 43917.8c-7.8 0-15.5 0-23.2.1-263.6 3.4-537.9 62.1-638.3 136.5l24.5 33.1c92.7-68.8 362.5-125.2 614.3-128.5 270.9-3.4 503.4 51.8 542.7 103.7l32.8-24.9c-57.9-76.4-321.9-120-552.8-120" style="fill:#231f20;fill-opacity:1;fill-rule:nonzero;stroke:none" transform="matrix(.01771 0 0 -.01771 -103.227 810.523)"/><path d="m10897 44744.8 4.6-417.8c.1-11.5 1.8-23 4.9-34.1l3.6-12.5 3.2-92.8-1.4-3.8c-8.2-21.9-12.4-45-12.5-68.4l-2.7-167.8c0-88.7 59.1-167.5 143.8-191.3 296.1-82.9 587.2-83.9 865.2-2.7 83.4 24.4 141.6 102.9 141.6 191.1l.5 173.9c0 18.6-4.6 37-13.4 53.3l-3.4 6.3.9 64.8 1.9 4c8.8 19.1 13.5 40.4 13.5 61.6v436.2zm587.7-1092.5c-149.8 0-301.9 21.4-455.3 64.4-102.3 28.7-173.8 123.8-173.8 231.3l2.7 167.8c.1 26.7 4.7 53.2 13.6 78.5l-2.8 79.6-2.2 7.8c-4.1 14.6-6.3 29.7-6.4 44.8l-5.1 459.4h1233v-477.3c0-25.6-5.3-51.3-15.5-74.8l-.6-45.6c10.9-21.5 16.6-45.5 16.6-69.6l-.5-174c0-106.2-70.4-201-171.2-230.5-141.2-41.2-285.8-61.8-432.5-61.8" style="fill:#231f20;fill-opacity:1;fill-rule:nonzero;stroke:none" transform="matrix(.01771 0 0 -.01771 -103.227 810.523)"/><path d="M12067.9 44769.5c0-96-266.8-173.9-595.9-173.9s-595.8 77.9-595.8 173.9 266.7 173.8 595.8 173.8 595.9-77.8 595.9-173.8" style="fill:#ecf9f7;fill-opacity:1;fill-rule:nonzero;stroke:none" transform="matrix(.01771 0 0 -.01771 -103.227 810.523)"/><path d="M11472 44922.8c-339 0-575.3-80.8-575.3-153.3s236.3-153.3 575.3-153.3 575.3 80.8 575.3 153.3-236.3 153.3-575.3 153.3m0-347.7c-298.8 0-616.4 68.1-616.4 194.4s317.6 194.4 616.4 194.4 616.4-68.1 616.4-194.4-317.6-194.4-616.4-194.4" style="fill:#231f20;fill-opacity:1;fill-rule:nonzero;stroke:none" transform="matrix(.01771 0 0 -.01771 -103.227 810.523)"/><path d="m12819 38761.2-169.5-2311.4c-9.4-129.1-104.5-238.5-236.7-271.9-526.5-133.1-1051.4-154.7-1574.7-62.9-97.5 17-195 38.1-292.5 63.1-129.7 33.4-223.7 139.9-235.2 266.7l-206.4 2268.7c-3.2 35.4-2.5 81 4.2 123.9 11.3 70.1 39.1 133.3 93.9 133.6 4.2.1 8.5-.2 13.1-1 151-24.6 359.5-43 593-55.4 742.1-39.3 1736.1-17.3 1936 63.3 86.4-18.9 82.5-110.2 74.8-216.7" style="fill:#d7f1ed;fill-opacity:1;fill-rule:nonzero;stroke:none" transform="matrix(.01771 0 0 -.01771 -103.227 810.523)"/><path d="M10838.3 36108.4c-106.6 18.3-212.9 41.5-319.2 69.7-125.2 33.4-215.8 139.9-227.1 266.8l-199.1 2268.7c-3.8 42.4 1.7 84.5 15.3 123.8-6.7-42.9-7.4-88.5-4.2-123.9l206.4-2268.7c11.5-126.8 105.5-233.3 235.2-266.7 97.5-25 195-46.1 292.5-63.1.2-4.3.2-6.6.2-6.6" style="fill:#dcb9b3;fill-opacity:1;fill-rule:nonzero;stroke:none" transform="matrix(.01771 0 0 -.01771 -103.227 810.523)"/><path d="M10838.1 36115c-97.5 17-195 38.1-292.5 63.1-129.7 33.4-223.7 139.9-235.2 266.7l-206.4 2268.7c-3.2 35.4-2.5 81 4.2 123.9 17.7 50.8 49.1 96.8 92 132.6l1.9 1h1.6c3.7 0 7.5-.3 11.5-1 151-24.6 359.5-43 593-55.4 7.9-658.5 28.6-2670.1 29.9-2799.6" style="fill:#f3fbfa;fill-opacity:1;fill-rule:nonzero;stroke:none" transform="matrix(.01771 0 0 -.01771 -103.227 810.523)"/><path d="m10124.4 38715.4 206.4-2268.8c10.7-117.6 99.1-217.5 219.9-248.5 611.4-157 1236.2-157.1 1857.1-.3 123.5 31.2 212.4 133.1 221.2 253.5l169.5 2311.4c7.9 108.4 8.3 176.4-52.9 193.7-284.1-104.5-1901.8-109.5-2533.7-6.6-16.4 2.6-29.5-1.3-41.4-12.4-39.7-37-53.3-141.9-46.1-222m1351.8-2676.2c-313.8 0-626.4 39.7-935.7 119.1-137.6 35.3-238.3 149.7-250.6 284.6l-206.4 2268.8c-5.8 64-1 199.9 59 255.7 21 19.7 47.3 27.6 76 22.9 632.8-103 2256.6-98.7 2518.1 6.7l5.8 2.3 6.2-1.3c106.6-23.4 98.3-137.5 90.9-238.3l-169.5-2311.4c-10.1-138.1-111.5-254.8-252.2-290.3-313.5-79.2-628.2-118.8-941.6-118.8" style="fill:#231f20;fill-opacity:1;fill-rule:nonzero;stroke:none" transform="matrix(.01771 0 0 -.01771 -103.227 810.523)"/><path d="M10661.1 36579.4c-13.6 6.4-29.5 10.7-47.8 12.7-20.5 2.3-41 1.6-61.6-2.1-4.6-.8-7-1.1-11.6-1.9 1.5-31.6 2.2-47.4 3.7-79 2.5-53.1 4.9-81.1 7.2-83.9 2.3-2.7 10.5-6.4 24.4-10.9 14-4.5 26.5-7.4 37.6-8.6 59.5-6.7 95.1 15.1 106.8 64.2 1.6 6.3 2.3 14 2 23-.5 18-6.2 34.8-16.9 50.2q-16.05 23.1-43.8 36.3m1.1 172.9c-15.3 21.3-38.3 33.6-68.8 37.1-18.9 2.1-36.8-.2-53.7-6.8-4.9-1.7-7.3-2.6-12.2-4.4 1.6-28.2 2.4-42.3 3.9-70.5 3.4-47.1 5.5-71 6.3-71.9l1.7-.7c4.1-.5 13.9 1 29.4 4.6q23.25 5.4 41.4 12 18.3 6.6 32.7 17.7c9.7 7.4 16.8 14.8 20.9 21.8 3.2 5.6 5 15.7 5.7 29.6-.1 1.4 0 3.3.1 5.6.1 2.4.1 3.9.1 4.6q-.45 11.85-7.5 21.3m-92.7 82.9c6.7.3 13.8 0 21.4-.8 32-3.6 59.8-14.2 83.2-31.6 28.7-21.3 43.8-49.1 44.9-83.7 1-32.1-10.2-59.3-33.7-81.3-6.2-5.6-9.4-8.4-15.7-14 8.7-4.8 13-7.2 21.7-11.9 23.5-13.2 42.6-31 57.2-53.6 14.7-22.6 22.4-45.9 23.1-70.1.2-6.5-.2-12.6-1.1-18.2-4.3-30.5-15.4-55.6-33.2-75.1-17.9-19.5-41-31.6-69.6-36.1-12.4-2.3-29.5-2.3-51.3.2-24 2.7-44.3 7.3-60.6 13.4-21.2 8-35.3 16.3-42.1 25.1-6.8 8.7-11.6 24.2-14.3 46.5-1.7 13.5-4.3 61.9-7.8 145.3l-2 48.7c-2.3 65.5-3.4 98.3-5.7 163.9 2.4 2.3 3.5 3.4 5.9 5.7 7.2 6.6 18.2 12.5 33.2 17.7q22.35 7.8 46.5 9.9m376.3-76.7c-12.1 2.6-20.8 4.2-26.1 4.5q-8.55.6-23.7-.9c-24.4-2.5-37.7-5.4-39.9-8.8-1.1-1.7-1.4-10.9-1-27.4 1.6-59.5 6-119.5 13.2-180.1.9-7.2 1.3-10.8 2.2-18 5.1-.4 7.7-.6 12.9-1 9-.7 20.5 0 34.6 2.2 49.5 6.5 86.4 18.8 110.6 36.4 24.2 17.7 37 41.8 38.3 72.4-.1 3.2-.1 4.8-.1 8.1-.6 28.8-11.1 52.7-31.6 71.9-20.5 19.1-50.3 32.6-89.4 40.7m-75.7 44.9c13.1 2.2 26.7 2.8 40.7 1.8 1.9-.1 5.1-.4 9.6-1 4.6-.5 8.2-.8 10.8-1 58.7-5.6 104.5-23.6 137.1-53.8 28.1-26 44.2-58 47.4-96.3.4-2.9.7-7.4.8-13.6.3-20.5-4-40.4-13.1-59.2-11.1-22.8-26.8-41.3-46.5-55.3-19.8-14-46.6-25.3-80.3-33.5-11.6-2.9-17.4-4.3-29-7.2 9.4-6.7 14-10 23.3-16.7 72.8-51.6 112.2-80.4 119.1-88 3.4-4.5 5.2-9.4 5.2-14.8q.15-8.1-4.2-14.4c-2.9-4.1-6.9-6.6-12.1-7.4-1.5-.3-3.3-.4-5.6-.3-3.3.2-8.4 2.5-15.1 6.8q-10.2 6.45-44.1 31.2c-74.7 54.2-117.2 84.8-127 90.2-5.3 2.8-7.9 4.2-13.1 7 .7-27.7 1.1-41.5 1.8-69.2.8-29.9.5-48.2-1-54.9s-6-10.7-13.3-11.9c-1.1-.3-3-.3-5.6-.1-9.2.7-16.2 4.7-20.8 12-2.8 4.1-5.3 40.1-9.2 106.4-4 70.1-7.7 115.9-9.4 136.2-4 48.8-6.8 102.7-8.5 161.4-.4 13-.4 20.4-.1 22.2.4 2.3 7.7 6.5 22.3 12.1 14.5 5.6 27.9 9.4 39.9 11.3m481.8-149.6c-4.2 15.1-7.2 24.1-8.7 26.6h-.5c-1.6.1-3.8-2.5-6.8-7.7-3-5.1-4.4-9-4.4-11.5 0-.3-5.8-13.5-17.3-39.5-10.3-23.6-20.5-48.5-30.6-74.8-10.1-26.4-15.1-41-15-43.9 0-3.2 3.7-4.2 11.2-3 3.8.6 23.3 1.4 58.4 2.9 32.9 1.4 49.5 2.9 49.5 4q-.15 5.4-8.1 30.9c-4.2 13.6-9.2 34.3-15.2 61.8-6 27.4-10.2 45.6-12.5 54.2m-27.9 101c5.3 3.8 11.9 5.7 19.8 5.5 8-.2 15-3.5 21.1-10.1 14.8-15 29.6-57.7 44.2-128.1 3.5-16.2 16-63.5 37.6-141.3 11.7-41.8 19.4-69.2 23.2-82.2 9.7-32.8 14.6-51.3 14.6-55.7 0-6.1-2.3-11.3-7-15.6-4.6-4.3-10.1-6.4-16.4-6.4-2.6 0-5.4.6-8.4 1.7-5.6 2.2-10.3 7.7-14.3 16.5-3.9 8.9-10.4 28.9-19.4 59.9-7.1 23.4-10.6 35.1-17.6 58.5-1.5 1.5-8.5 2.3-20.8 2.5-21 .3-47.3-.5-79.1-2.4-31.7-1.9-48.9-4-51.5-6.4-5.5-5.2-15.7-32.2-30.4-81-5.7-17.8-10.7-29.7-14.9-35.6-4.2-6-9.8-8.9-16.9-8.6-12.3.5-18.5 8.2-18.7 22.9-.1 9.8 10.5 47.1 32.3 112.4 21.8 65.2 41.9 118.4 59.2 159.1 14.1 33.1 24.3 58.7 31 75.8 13.3 33.1 24.1 52.6 32.4 58.6m230.6 4.6c2.6 1.8 6.2 2.7 10.7 2.7 6.9.1 13.3-3 19.3-9 6.8-6.8 29.7-40.1 68.1-99.5 38.5-59.4 72.6-114.2 102.4-164.3 24.6-41.4 37.6-61.9 39.1-61.9 1.8.1 2.9 9.1 3.1 27.1.6 46.8 5 126.3 13.1 238 2.3 32.1 4.7 51.8 7.5 58.9 2.7 7.1 9.6 10.9 20.6 11.3 7.9.3 14-1.9 18-6.8 3.4-4.1 5-10.8 4.8-19.8q-.15-13.95-8.7-138c-3.8-54.8-7.1-108.5-9.6-160.7-2.7-56.2-5.1-88.2-7.5-95.8-3.1-10.2-9.5-15.6-19.1-15.9-2.3-.1-3.9 0-5 .3-4.9 1.3-11.6 6.4-20.2 15.5-8.6 9-16.1 18.9-22.3 29.5-41.6 70.9-82.4 138.8-122 203.4-39.6 64.7-60.6 97.6-62.5 98.3q-1.2.45-2.7-24.6c-.9-16.8-2-42.4-3-76.7-1-34.4-1.8-76.8-2.9-126.7-1.4-64.2-2.7-97.6-3.1-99.4-1.1-6.1-3.6-11-7.6-14.6-3.9-3.6-8.3-5.5-13.1-5.5-5.9 0-11.1 2.3-15.6 7-2.7 2.8-4 4.2-6.7 7 .3 66.3.4 99.4.7 165.7.5 114.2 1.3 180.9 2.2 200.4 1 19.4 4.1 32.9 9.4 40 6.3 8.2 10.6 13 12.6 14.1m482.3-31.5c-13 3.8-28.9 5-46.7 4.6-11.8-.2-19.1 0-21.4-.2-7.2-.4-11.8-2.1-13.9-5.3-2.2-3.2-3.3-9.8-3.5-19.9 0-2.9.1-15.5.5-37.7.7-43.2.3-101.8-1-176-.9-46.7-1.3-70-2.2-116.7 6.7.4 10.1.5 16.7.9 11.9.7 26.1 3.5 42.7 8.5s29.4 10.5 38.5 16.5c16.5 10.5 32.9 28.6 49.4 54.5 16.4 25.8 28 52.1 35.1 78.4 4 15 6.3 28.7 6.6 41 .1 1.4 0 3.8-.1 7q-.15 4.8 0 8.1c-.9 38-9.3 67.7-25.2 89.2-16 21.5-41.1 37.1-75.5 47.1m-77.5 46c6.1 1.4 13.8 2.4 23.3 3 21.1 1.2 40.1.5 56.4-2.5 15.3-2.8 31.8-8.2 49.1-15.8s31.3-16 41.9-25.2c20.2-16.8 34.7-36.5 43.4-59.1 4.2-10.5 7.7-24.7 10.4-42.6 2.6-17.9 3.8-33.2 3.4-45.8-1.1-40.7-13.4-83.1-36.7-127.1-23.3-43.9-50.7-75.7-81.2-95.6-30.5-19.8-68.8-31.7-114.9-34.2-9.3-.3-14-.5-23.4-.8-21.9-2.6-32.2 13-30.9 46.5 1.1 71.1 1.7 106.6 2.9 177.7.5 34.2.8 51.2 1.4 85.4.5 31.3 1.1 55 1.7 71s.8 28.5.6 37.3 1.2 13.9 4.3 15.3 6.3 2.2 9.7 2.4c1 0 1.4 0 2.3.1 6.9.3 12 1.5 15 3.5 2.3 1.5 9.4 3.7 21.3 6.5m238.8 19.5c4.3 3.8 9.3 6.1 14.9 6.6 4.2.4 7.6-.5 10.1-2.3 3.2-2.3 14.8-17.3 34.2-45.2 19.5-27.9 35.9-53.2 49.4-75.9 12.3-20.6 24.8-39.4 37.3-56.3 12.5-16.8 20.2-25.1 23.2-24.8l.5.1c1.2 1.2 6.6 12.3 16.3 33 11.9 25.3 31.2 60.7 57.4 106.1 26.3 45.4 43.4 72.6 51.2 81.5 3.6 3.7 8.5 5.9 14.9 6.7 6.8.8 12.7-.4 17.3-3.8 4-2.9 5.9-7.2 5.7-12.2-.3-6.9-4.9-17.7-13.7-32.4-49-81.2-82.7-140.5-101.6-178.5-3.2-6.5-6.8-13.8-10.8-22l-9.7-19.4c-2.4-4.8-4-7.7-4.8-8.9-2.3-3.8-4.9-39.1-7.7-105.9-1.6-31.4-2.4-47.1-4-78.6-2.7-2.8-4.1-4.3-6.9-7.2-4.6-4.8-10-7.5-16.3-8.2-7-.8-13 1-16.9 5.2-3.2 3.4-4.6 13.2-4 28.7 0 2.2 1.1 22.1 3.1 59.6 2.1 41.2 3.1 61.8 5.2 103-9 10.5-13.5 15.7-22.5 26.2-22.6 26.9-42.2 56.4-58.8 88.7-4.9 9.2-18.2 31-40.2 64.8-20.3 31.2-30.7 50.7-30.5 58.3.1 4.3 2.9 8.7 7.7 13.1" style="fill:#100f0d;fill-opacity:1;fill-rule:nonzero;stroke:none" transform="matrix(.01771 0 0 -.01771 -103.227 810.523)"/><path d="M11587.2 37753.7c47.9 9.5 136.4 18.4 199.5-58.1 63-76.6 166-222.2-41.4-388.7-87.2-69.9-196.7-76.1-270.2-6.2-97.7 93-137.5 175.9-81 279.6 67.3 123.4 145.7 163.9 193.1 173.4" style="fill:#a82025;fill-opacity:1;fill-rule:nonzero;stroke:none" transform="matrix(.01771 0 0 -.01771 -103.227 810.523)"/><path d="M11591.2 37733.5c-30.4-6.1-108.7-34-179-163-46.9-86-25.3-157.5 77.1-254.9 64-60.9 161.7-57.9 243.1 7.4 70.1 56.3 108.8 114.6 114.8 173.4 7.5 73.1-34.4 135.1-76.4 186.1-41.3 50.1-100 66.8-179.6 51m7.8-503.1c-50.8 0-99.2 18.4-138.1 55.4-81.6 77.7-155.6 174.6-84.9 304.4 78.7 144.2 171.1 176.5 207.2 183.6 94.4 18.8 168.2-3.1 219.3-65.1 44.7-54.2 94.8-127.8 85.6-216.5-7.2-70.1-50.9-137.9-130-201.3-50.2-40.3-105.9-60.5-159.1-60.5" style="fill:#231f20;fill-opacity:1;fill-rule:nonzero;stroke:none" transform="matrix(.01771 0 0 -.01771 -103.227 810.523)"/><path d="M11517.1 37519.4c-13.2 0-23.6 3.4-31.1 7.3-31.5 16.4-40.3 52.9-41.2 57-2.4 11.1 4.6 22 15.7 24.5 11 2.4 22-4.6 24.4-15.6 1.5-6.1 7.8-23.1 20.2-29.5 8.3-4.2 19.3-3.4 32.7 2.2 36.3 15.3 28.2 38.7 27.1 41.4-4.2 10.5.9 22.5 11.5 26.7s22.5-1 26.7-11.5c7-17.6 11.8-68.8-49.3-94.5-14-5.9-26.2-8-36.7-8" style="fill:#231f20;fill-opacity:1;fill-rule:nonzero;stroke:none" transform="matrix(.01771 0 0 -.01771 -103.227 810.523)"/><path d="M11528.6 37568c-10 0-18.8 7.3-20.3 17.4-.4 2.8-44.9 276.5-274 425.1-9.6 6.2-12.3 18.9-6.1 28.5 6.2 9.5 18.9 12.2 28.5 6 245-158.9 290.4-441.4 292.3-453.4 1.7-11.2-6.1-21.7-17.3-23.4-1-.2-2.1-.2-3.1-.2" style="fill:#231f20;fill-opacity:1;fill-rule:nonzero;stroke:none" transform="matrix(.01771 0 0 -.01771 -103.227 810.523)"/><path d="M12185.4 37420c24.9-42.1 62.7-122.6 11.5-207.5s-154.3-230.4-380.3-90.2c-94.9 59-137.1 160.2-95.7 252.7 55.2 123.1 120.2 188.2 236.8 169.4 138.7-22.4 203-82.9 227.7-124.4" style="fill:#a82025;fill-opacity:1;fill-rule:nonzero;stroke:none" transform="matrix(.01771 0 0 -.01771 -103.227 810.523)"/><path d="M11919.2 37527.1c-76.8 0-129.1-47.9-179.5-160.5-36.2-80.6-.9-171.8 87.8-226.8 76.4-47.4 144.2-64.5 201.7-50.6 71.5 17.2 116 77.4 150.1 133.9 33.5 55.7 29.7 116.6-11.6 186.4-15.8 26.6-68.2 91.2-213.3 114.6-12.3 2-24 3-35.2 3m69.8-483.7c-55.9 0-117.3 20.5-183.2 61.4-106.9 66.4-148.6 178.4-103.6 278.6 46.1 102.9 112.8 204.9 258.8 181.3 162.2-26.2 223.3-102.6 242.1-134.3 49.1-82.8 52.9-159.7 11.4-228.5-36.2-60.1-89-131.8-175.7-152.7-16-3.9-32.7-5.8-49.8-5.8" style="fill:#231f20;fill-opacity:1;fill-rule:nonzero;stroke:none" transform="matrix(.01771 0 0 -.01771 -103.227 810.523)"/><path d="M12022.1 37345.5c-18.4 0-40.1 7.4-61.2 30.7-23 25.4-25.3 48.6-23.2 63.7 4.9 35.2 36.4 55.6 40 57.8 9.6 6 22.3 3 28.3-6.6 6-9.7 3-22.3-6.6-28.3-5.2-3.3-19.2-15-21-28.8-1.2-9.2 3.1-19.3 12.9-30.1 26.5-29.2 45.9-13.7 48-11.8 8.6 7.5 21.6 6.6 29-2 7.5-8.5 6.7-21.5-1.9-29-7.5-6.5-23.9-15.6-44.3-15.6" style="fill:#231f20;fill-opacity:1;fill-rule:nonzero;stroke:none" transform="matrix(.01771 0 0 -.01771 -103.227 810.523)"/><path d="M12010.2 37399.7c-7.4 0-14.5 4-18.2 10.9-5.3 10-1.6 22.5 8.5 27.8 2.4 1.3 245.7 134.3 309.7 399.8 2.7 11.1 13.8 17.8 24.8 15.2 11.1-2.7 17.9-13.8 15.2-24.8-68.4-283.9-319.7-420.8-330.4-426.5-3.1-1.6-6.4-2.4-9.6-2.4" style="fill:#231f20;fill-opacity:1;fill-rule:nonzero;stroke:none" transform="matrix(.01771 0 0 -.01771 -103.227 810.523)"/><path d="M11018.2 37188.7c-31-37.7-142.7-92.8-240-73.7-97.3 19.2-214.9 98.8-175.9 293.3 22 109.6 103.9 183.6 205 176.2 134.5-9.9 232.4-38.9 254.5-155 26.3-138-12.9-203.5-43.6-240.8" style="fill:#a82025;fill-opacity:1;fill-rule:nonzero;stroke:none" transform="matrix(.01771 0 0 -.01771 -103.227 810.523)"/><path d="M11018.2 37188.7h.1zm-224.9 375.8c-83.5 0-151.3-62.9-170.8-160.2-15.1-75.3-6.7-137.4 24.9-184.7 38.7-57.9 101-77.7 134.8-84.4 88.3-17.3 192.7 33.2 220.1 66.5 31 37.7 63.4 97.3 39.3 224-19.4 102.2-104.7 128.7-235.8 138.3-4.2.3-8.4.5-12.5.5m26.4-473.9c-15.3 0-30.6 1.3-45.5 4.3-40 7.8-114 31.5-161 101.8-37.9 56.7-48.4 129.3-31 215.7 24.3 121.4 117.7 200.6 226.6 192.6 126.7-9.3 247.5-36.5 273.2-171.6 27.6-145.1-14.1-216.6-47.9-257.8-32.5-39.5-124.8-85-214.4-85" style="fill:#231f20;fill-opacity:1;fill-rule:nonzero;stroke:none" transform="matrix(.01771 0 0 -.01771 -103.227 810.523)"/><path d="M10921.9 37252.4c-3.3 0-6.7.9-9.9 2.6-16.6 9.2-52.8 45.7-21.8 104.4 16 30.2 37.1 40.3 52 43.5 34.8 7.3 64.7-15.3 68-17.9 8.9-7 10.4-20 3.4-28.9s-19.9-10.4-28.8-3.5c-5 3.8-20.7 13-34.3 10-9-2-17.1-9.5-23.9-22.4-18.4-34.8 2.8-47.8 5.3-49.2 9.9-5.5 13.5-18 8.1-27.9-3.8-6.8-10.8-10.6-18.1-10.7" style="fill:#231f20;fill-opacity:1;fill-rule:nonzero;stroke:none" transform="matrix(.01771 0 0 -.01771 -103.227 810.523)"/><path d="M11381 37143.9c-255.5 0-438 161.4-446.3 168.9-8.4 7.6-9.1 20.6-1.5 29 7.5 8.4 20.6 9.1 29 1.6 2.1-1.9 210.2-185.3 481.5-154.9 11.3 1.4 21.4-6.8 22.7-18.1s-6.9-21.5-18.2-22.8c-22.8-2.5-45.3-3.7-67.2-3.7" style="fill:#231f20;fill-opacity:1;fill-rule:nonzero;stroke:none" transform="matrix(.01771 0 0 -.01771 -103.227 810.523)"/><path d="M10635.6 38751.7c5.7.6 12.2.7 19.6.2 17.3-1.4 32.5-5.1 45.5-11.2 8.2-3.9 17.5-10.8 27.8-20.7 10.2-9.9 17-18.7 20.4-26.3 3-6.4 4.7-13.4 5-20.8.6-12.5-2.3-20.6-8.7-24.2-2.2-1.4-6.6-1.8-13.1-1.3-5.4.3-10.3 3-15 7.9-4.6 4.9-7.1 10.2-7.3 15.7-.2 4.8-3.7 10.8-10.4 17.9-6.6 7.1-13.5 11.7-19.9 14.2-4.2 1.6-9.3 2.9-15.1 3.3-19.2 1.5-39.6-5.2-60.9-20q-32.1-22.35-48.3-56.7-23.85-50.4-22.5-109.5c0-1.5.1-3.9.1-7.2s.1-5.7.2-7.2c4.4-72.8 31.9-123.6 82.5-151.7 9.2-5.2 17.2-8.1 24-8.6 4.1-.3 7.5-.4 10.1-.2 10.8.2 19.4 1.8 25.6 4.6s12.8 8.2 19.9 16.2c7.1 7.9 12.1 14.5 14.8 19.9 2.8 5.3 5.1 13.7 7.3 24.8 4 20.6 12.6 30.6 25.1 29.8 5.7-.4 11.5-3.6 17.4-9.5 5.5-5.6 8.4-10.4 8.6-14.4 0-1.1-.2-4.2-.7-9.4-2-23.4-10.6-45.5-25.7-66.2-15.2-20.6-32.4-33.9-51.9-39.8-9.9-3.3-24.8-4.6-44.1-3.2-17.8 1.2-32.7 5.2-44.2 11.3-35 19.1-61.9 43.8-80.8 73.9-18.8 30-31 67.4-36.5 112.1-.6 3.7-1.1 9.5-1.6 17.2-2.9 45.2 3.3 86.9 18.6 125.2s36.1 66.5 62.2 84.5c9.9 6.9 21.9 13.2 36 19 14.1 5.9 26.1 9.3 36 10.4m180.3-20.3c4.2 5.3 10.1 7.7 17 7.3 10-.6 17.2-6 21.4-16.2 1.7-4.2 3.7-23.8 6-58.9 2.3-35.2 4.6-69.1 6.8-101.9 2.2-32.7 3.8-49.1 5-49.2 1.1 0 10.4 1.4 27.7 4.6 15.5 2.8 37.9 5.6 67.3 8.5 29.4 2.8 49.1 4.1 59 3.7 1.4 0 2.1-.1 3.5-.1l1.1-.6 1.2-.1c1.9-.1 3.1 1.9 3.5 6 .5 4 .8 15.3 1.1 33.7.6 30 .8 54.9.3 74.1-.8 30.6.3 50.6 3.3 60.1s9.7 14 20.1 13.6c11.2-.4 18.7-5.9 22.4-16.3q1.2-3.3 1.8-26.1c.2-9.2.3-27.4.2-54.7-.3-54.6 1-122.5 2.6-202.6 1.6-85.6 1.2-131.3-.1-136.1-3.6-9.8-10.4-14.7-20.5-14.7-1.3.1-2 .1-3.3.2-10.9.4-17.5 6.4-19.9 17.9s-4.3 45.5-5.9 102c-1.1 39.6-1.6 59.5-2.7 99.1-4.3-.5-6.5-.7-10.8-1.2q-2.25-.45-10.8-.9c-5.7-.3-12.8-.8-21.3-1.3-8.5-.6-16.2-1.2-23-2-32.2-2.9-56.1-5.9-71.9-9.1-11.1-2-16.6-3-27.7-5.1-.2-16.3-.4-24.5-.7-40.8-.5-36.5-1-60.8-1.7-72.9-.8-14.6-1.8-23.9-2.6-27.8-.8-3.8-3-7.1-6.6-9.8-5.1-3.8-10.3-5.5-15.5-5.2-12 .8-19.8 7.3-23.3 19.7-.4.8-.8 4.3-1 10.6-.5 11.4-.5 24.3.1 38.6 2.4 77.3 1.8 159.5-1.7 246.7-.3 4.8-.6 11.2-1.1 19.4-.6 8.1-.9 13.9-1 17.2-.8 12.7-1.7 27-2.3 42.1-.7 14.8.7 24.4 4 28.5m329.2-5q6.3 3.75 31.2 3c19-.5 47.1-2 84.1-4.1 30.2-1.7 48.3-2.8 54.3-3.7 6-.8 10.9-3.6 14.8-7.4 5-4.8 8.2-10.5 8.3-16.9 0-6.5-2.8-12.3-8.6-17.4-4.1-3.6-9.6-5.4-16.1-5.3-5.4.1-9.9.4-13.3.8-5.7.5-29.3 1.8-70.6 4.6-19.9 1.3-29.8 2-49.7 3.4 1-33.9 1.6-50.8 2.6-84.7 1.8-56.5 3.1-85.1 3.8-85.9h1.8c3.8-.1 12.2.7 25.1 2.1 17.3 2 33.9 2.6 49.1 2.3 3-.1 4.5-.1 7.5-.1 15.2-.7 24.8-1.5 28.6-2.5 3.8-.9 7.9-3.5 11.5-7.6 4.6-5.3 7-10.9 7-15.9s-2.2-9.6-6.7-14c-3.8-3.6-7.7-5.7-11.7-6.2-3.9-.5-15.1-.9-32.7-.8-24.9.2-44.7-.4-58.7-2.6-8.7-1.1-13-1.7-21.6-2.8.3-30.1.4-45.1.7-75.3l.5-22.6c.6-35.5 1.6-55.2 3.2-57.7 1.5-2.2 12.1-3.6 30.5-4 13.8-.4 20.7-.5 34.5-.8 10.1.2 22.2.1 36.1-.1 17.3-.3 28.9-2.4 33.3-6.6 4.9-4.6 7.4-11.2 7.5-18 .1-6.9-2.1-11.9-6.1-15.2-5.2-4.2-13.2-7.2-24.1-8.5-10.8-1.3-30.9-1.9-60.1-1.7-10.1.3-15.2.4-25.3.6-15.8.4-26.3 1-31.5 1.9-5.3.9-11.6 2.7-19 5.5-7.3 2.8-13.5 8.2-18.6 16-5.7 9.1-9.4 21.7-10.9 38-1.1 74.2-1.7 111.3-2.8 185.4-1.8 107.4-2.3 170.4-1.3 189 .9 18.6 5.2 30.3 12.8 35.3zm372.1-32.1c-12.3 1.7-21.2 2.6-26.6 2.6-5.8 0-13.9-1-24.3-2.8-25.1-4.5-38.8-8.5-41.1-12.1-1.2-1.9-1.7-11.3-1.7-28.2.2-60.9 3.2-122.2 9-183.8.7-7.3 1-11 1.7-18.3h13.1c9.2 0 20.9 1.7 35.4 5 50.5 10.5 88.4 25.8 113.5 45.7s38.9 45.6 41.2 77c0 3.3.1 5 .1 8.3.3 29.5-9.7 53.3-30.1 71.5-20.4 18.1-50.5 29.8-90.2 35.1m-76.4 40.2c13.5 3.3 27.4 5 41.7 5q3 0 9.9-.3c4.7-.1 8.3-.2 11-.2 60-1.2 106.4-16.4 138.8-44.9 27.9-24.7 43.3-56.4 45.4-95.4.4-3 .5-7.6.4-13.8-.3-21.1-5.3-41.8-15.2-61.8-12-24.2-28.5-44.3-49-60.1s-48.1-29.3-82.6-40.3c-11.9-3.8-17.8-5.8-29.6-9.6 9.3-6.1 13.9-9.2 23.2-15.3 72.4-47.5 111.5-74.2 118.2-81.5 3.3-4.3 4.9-9.3 4.9-14.8-.1-5.6-1.7-10.6-4.7-15.1-3.1-4.4-7.3-7.3-12.5-8.5q-2.25-.6-5.7-.6c-3.4-.1-8.4 1.8-15.1 5.8s-21.3 13.5-43.7 28.7c-74.2 50.1-116.7 78.1-126.6 82.9-5.2 2.5-7.8 3.7-13 6.1 0-28.3 0-42.5.1-70.8 0-30.6-.8-49.4-2.5-56.5-1.7-7-6.3-11.4-13.7-13.2-1.2-.4-3-.5-5.7-.5-9.4 0-16.3 3.6-20.8 10.6-2.7 4.1-4.4 40.8-6.7 108.5-2.5 71.4-5.2 118.3-6.4 138.9-3 49.8-4.5 104.9-4.9 165 0 13.3.2 20.9.5 22.7.4 2.5 8.1 7.3 23.1 14.2 15.1 6.9 28.8 11.8 41.2 14.8m436.9-32c-12.3 1.3-21.2 1.9-26.6 1.7-5.7-.2-13.9-1.4-24.3-3.6-25.2-5.3-39-9.8-41.4-13.6-1.1-1.8-1.9-11.3-2.3-28.2q-1.8-91.35 4.8-183.6c.5-7.3.7-10.9 1.3-18.2 5.2.2 7.8.3 13.1.4q13.65.45 35.4 6.3c50.8 12.1 88.9 28.8 114.5 49.6 25.6 20.7 39.9 46.9 42.9 78.4.1 3.3.2 5 .3 8.3 1 29.6-8.4 53-28.4 70.5-19.9 17.5-49.7 28-89.3 32m-75.5 37.6c13.6 3.8 27.6 5.9 41.9 6.5 1.9 0 5.2.1 9.9.1 4.6-.1 8.3 0 11 .1 59.9.8 105.8-12.8 137.6-40.2 27.3-23.7 41.9-54.9 43.1-93.9.3-2.9.3-7.5.1-13.8-.8-21.1-6.3-42-16.6-62.3-12.5-24.6-29.5-45.3-50.4-61.8q-31.2-24.9-83.4-43.2c-11.9-4.2-17.9-6.3-29.8-10.6 9.2-5.8 13.7-8.7 22.9-14.5 71.2-45 109.6-70.4 116.1-77.5 3.2-4.2 4.8-9.1 4.6-14.6-.2-5.6-1.9-10.6-5.1-15.2s-7.4-7.6-12.7-9c-1.5-.4-3.4-.7-5.6-.8-3.4-.2-8.4 1.6-15 5.3s-20.9 12.7-43 27.2c-72.9 47.5-114.8 74.1-124.5 78.6-5.2 2.3-7.8 3.4-13 5.7-.6-28.4-.9-42.6-1.5-70.9-.7-30.6-1.9-49.5-3.8-56.6-1.8-7-6.5-11.6-14-13.7-1.1-.4-3-.6-5.7-.7-9.3-.3-16.2 3-20.6 9.9-2.5 4-3.4 40.6-4.2 108.3-.7 71.4-2.4 118.2-3.1 138.8-1.8 49.7-2.2 104.7-1.1 164.9.3 13.3.6 20.9 1 22.7.5 2.5 8.2 7.6 23.4 15 15.2 7.5 29.1 12.8 41.5 16.2m306.1-.4c4.4 3.8 9.5 6.1 15.3 6.5 4.2.2 7.7-.8 10.3-2.7 3.2-2.4 14.8-18.1 34.2-47.2s35.6-55.6 49-79.2c12.2-21.5 24.6-41.1 37-58.8 12.4-17.6 20-26.3 23.1-26.1l.5.1c1.2 1.2 6.9 12.4 17.2 33.4 12.6 25.6 32.8 61.4 60.4 107.2 27.6 45.7 45.7 73.1 53.9 82 3.7 3.6 8.8 5.7 15.3 6.4 7 .6 13-.9 17.5-4.5 4-3.1 5.9-7.5 5.6-12.7-.5-7-5.4-18-14.7-32.8-51.7-81.7-87-141.6-107-180.1q-5.1-9.75-11.4-22.2c-4.3-8.3-7.6-14.8-10.2-19.6-2.5-4.8-4.2-7.8-5-9-2.4-3.8-5.7-40-9.8-108.4l-5.5-80.5c-2.9-2.9-4.3-4.3-7.1-7.2-4.7-4.8-10.3-7.5-16.6-8-7.1-.5-13.1 1.4-17 5.9-3.2 3.5-4.4 13.6-3.6 29.5.2 2.2 1.6 22.6 4.3 61.1 2.8 42.2 4.3 63.3 7.1 105.5-8.9 11-13.4 16.5-22.4 27.6-22.4 28.1-41.8 59-58.2 92.5-4.9 9.6-18.1 32.3-40 67.5-20.2 32.5-30.6 52.8-30.3 60.6.2 4.4 3.1 8.8 8.1 13.2" style="fill:#100f0d;fill-opacity:1;fill-rule:nonzero;stroke:none" transform="matrix(.01771 0 0 -.01771 -103.227 810.523)"/></g></svg>