<svg xmlns="http://www.w3.org/2000/svg" xml:space="preserve" width="200mm" height="200mm" viewBox="0 0 200 200"><g style="display:inline"><path d="M87.752 222.952c-3.22 0-6.332-.466-9.338-.762-3.252-.324-6.395-.508-9.295-1.14-3.288-.712-6.379-1.474-9.067-2.522-3.312-1.29-5.948-3.16-8.089-4.85-3.006-2.378-4.734-4.989-4.734-7.867 0-2.88 1.764-5.444 4.77-7.821 2.137-1.694 4.78-3.5 8.092-4.791a60 60 0 0 1 9.007-2.734c2.9-.628 6.04-.95 9.295-1.274a95 95 0 0 1 9.36-.465c3.217 0 6.346.24 9.352.536 3.252.324 6.335.913 9.221 1.605 6.273 1.5 2.392.494 8.978 2.628 3.38 1.097 6.093 2.762 8.23 4.456 3.006 2.377 4.654 4.98 4.654 7.86 0 2.878-1.591 5.56-4.6 7.937-2.138 1.69-4.95 3.143-8.266 4.435-2.685 1.047-5.666 2.08-8.95 2.794-2.9.631-5.997 1.234-9.25 1.555-3.005.297-6.152.42-9.37.42" style="fill:#f5eef6;fill-opacity:1;fill-rule:nonzero;stroke:none;stroke-width:.0352778" transform="translate(21.419 -28.588)"/><path d="M87.752 189.449a95 95 0 0 0-9.288.462c-2.939.29-6.273.62-9.215 1.26a59 59 0 0 0-8.893 2.698c-3.51 1.369-6.195 3.33-7.91 4.685-3.026 2.392-4.494 4.766-4.494 7.257 0 2.504 1.5 4.96 4.46 7.302 1.932 1.528 4.575 3.447 7.905 4.741 2.794 1.09 6.092 1.874 8.953 2.495 2.233.483 4.615.698 7.134.927.687.064 1.382.124 2.084.194.741.074 1.49.16 2.244.244 2.28.254 4.632.515 7.02.515 3.436 0 6.477-.134 9.296-.413 3.348-.331 6.512-.966 9.169-1.542 2.748-.596 5.475-1.45 8.844-2.762 3.454-1.347 6.1-2.762 8.082-4.332 2.868-2.268 4.322-4.748 4.322-7.37 0-2.578-1.433-4.967-4.378-7.295-2.47-1.95-5.161-3.411-8.005-4.332-2.23-.723-3.274-1.09-3.898-1.312-.963-.339-.963-.339-3.041-.83-.519-.123-1.164-.278-1.986-.472-3.277-.787-6.262-1.305-9.123-1.588-2.512-.25-5.831-.532-9.282-.532m0 34.223c-2.469 0-4.864-.268-7.179-.526q-1.125-.128-2.23-.24c-.694-.07-1.386-.13-2.07-.194-2.565-.233-4.988-.451-7.31-.956-2.913-.631-6.282-1.432-9.172-2.557-3.506-1.366-6.262-3.366-8.272-4.957-3.327-2.628-5.01-5.465-5.01-8.431 0-2.96 1.648-5.705 5.041-8.39 1.789-1.41 4.594-3.457 8.28-4.896a61 61 0 0 1 9.112-2.766c3.024-.656 6.4-.988 9.38-1.284a97 97 0 0 1 9.43-.47c3.514 0 6.88.29 9.423.54 2.928.29 5.976.82 9.32 1.62.819.197 1.465.35 1.983.473 2.11.5 2.152.508 3.186.875.617.215 1.65.582 3.863 1.298 3.005.973 5.852 2.515 8.456 4.572 3.266 2.586 4.924 5.422 4.924 8.428 0 3.086-1.64 5.947-4.871 8.502-2.096 1.658-4.862 3.143-8.45 4.543-3.443 1.34-6.24 2.216-9.062 2.826-2.695.586-5.916 1.231-9.331 1.57-2.868.282-5.955.42-9.44.42" style="fill:#211d1d;fill-opacity:1;fill-rule:nonzero;stroke:none;stroke-width:.0352778" transform="translate(21.419 -28.588)"/><path d="m99.842 114.939 9.684-18.602-40.051 5.933 6.297 13.117c5.334 5.305 6.929 12.865 6.96 19.085l.269 51.996a17 17 0 0 1-.085 1.852c-.759 7.278-4.805 14.358-4.89 15.526-.084 1.224 3.486 3.982 10.104 4.085 4.787.074 7.662-2.262 8.886-3.556.385-.41.399-1.1.057-1.563-1.842-2.466-2.999-7.33-3.644-10.982a44.7 44.7 0 0 1-.678-7.68l-.155-49.212c-.032-6.463-.275-10.788 7.246-20" style="fill:#fff;fill-opacity:1;fill-rule:nonzero;stroke:none;stroke-width:.0352778" transform="translate(21.419 -28.588)"/><path d="M99.842 114.939h.004zm-23.47.02c6.106 6.15 7.062 14.853 7.084 19.51l.271 51.995c.004.67-.028 1.32-.091 1.93-.547 5.235-2.72 10.283-4.019 13.296-.412.963-.84 1.955-.867 2.209.049.638 3.08 3.21 9.39 3.309 4.46.06 7.148-2.057 8.347-3.33.141-.149.141-.449.004-.632-1.926-2.582-3.115-7.564-3.775-11.289a45.6 45.6 0 0 1-.691-7.807l-.156-49.738c-.038-6.24-.063-10.756 7.366-19.876l8.993-17.275-37.674 5.58zm11.98 93.699q-.115.001-.236-.004c-5.313-.082-8.767-1.817-10.107-3.278-.505-.55-.741-1.083-.706-1.584.032-.448.325-1.143.984-2.674 1.267-2.938 3.384-7.856 3.91-12.873.056-.557.084-1.153.08-1.774l-.268-51.996c-.024-4.456-.931-12.788-6.748-18.577l-.089-.085-6.776-14.118 42.428-6.283-10.42 19.985c-7.148 8.752-7.124 12.834-7.085 19.007l.004.53.151 49.212c.008 2.565.233 5.108.667 7.557.632 3.573 1.757 8.322 3.514 10.675.554.744.504 1.841-.113 2.494-1.344 1.425-4.311 3.785-9.19 3.785" style="fill:#211d1d;fill-opacity:1;fill-rule:nonzero;stroke:none;stroke-width:.0352778" transform="translate(21.419 -28.588)"/><path d="M32.716 57.44s3.71 26.334 10.936 36.745c7.225 10.407 24.415 21.805 44.055 21.897 19.06.091 40.562-15.738 45.3-24.6 5.616-10.498 8.212-24.257 9.21-30.825.558-3.659-109.501-3.218-109.501-3.218" style="fill:#a381bb;fill-opacity:1;fill-rule:nonzero;stroke:none;stroke-width:.0352778" transform="translate(21.419 -28.588)"/><path d="M33.555 58.159c.702 4.53 4.36 26.487 10.693 35.61 7.398 10.66 24.705 21.501 43.462 21.59h.155c8.312 0 18.063-3.137 27.489-8.838 7.895-4.78 14.573-10.816 17.014-15.38 5.362-10.023 7.98-23.125 9.084-30.262-1.464-.642-10.177-1.962-55.721-2.501-23.82-.286-47.477-.233-52.176-.219m54.317 58.65h-.169c-19.255-.092-37.035-11.244-44.648-22.212-7.239-10.431-10.904-35.976-11.06-37.059l-.116-.822.833-.003c.265 0 26.928-.103 53.608.222 54.3.656 55.76 2.35 56.385 3.073.19.218.271.486.229.758-1.087 7.147-3.74 20.687-9.289 31.059-4.6 8.604-25.978 24.983-45.773 24.983" style="fill:#211d1d;fill-opacity:1;fill-rule:nonzero;stroke:none;stroke-width:.0352778" transform="translate(21.419 -28.588)"/><path d="M141.646 63.33c0 3.913-2.138 7.554-6.184 10.782-2.879 2.296-6.66 4.272-11.123 6.029-3.612 1.421-7.624 2.825-12.047 3.795-3.899.854-8.065 1.673-12.446 2.114-4.04.402-8.273.568-12.605.568s-8.523-.635-12.563-1.038c-4.381-.437-8.61-.688-12.513-1.545-4.423-.966-8.583-2.007-12.195-3.429-4.46-1.753-8.005-4.29-10.883-6.59-4.047-3.228-6.371-6.777-6.371-10.685 0-3.913 2.37-7.398 6.417-10.626 2.878-2.3 6.427-4.755 10.89-6.509a80 80 0 0 1 12.114-3.714c3.902-.854 8.132-1.292 12.51-1.73 4.039-.405 8.262-.634 12.594-.634s8.54.328 12.583.73c4.378.438 8.506 1.323 12.408 2.18 4.424.967 8.466 2.149 12.079 3.57 4.462 1.757 8.198 3.754 11.077 6.054 4.046 3.228 6.258 6.766 6.258 10.679" style="fill:#e1d2e7;fill-opacity:1;fill-rule:nonzero;stroke:none;stroke-width:.0352778" transform="translate(21.419 -28.588)"/><path d="M87.24 40.841c-4.127 0-8.339.212-12.523.628-3.961.399-8.452.847-12.425 1.718-3.975.871-8.015 2.11-12.005 3.68-4.751 1.87-8.385 4.547-10.706 6.399-4.135 3.302-6.146 6.593-6.146 10.065 0 3.485 2.053 6.89 6.1 10.124 2.614 2.085 6.191 4.706 10.7 6.48 3.774 1.486 8.226 2.552 12.086 3.398 3.02.66 6.23.956 9.627 1.267.928.084 1.86.169 2.801.264.998.099 2.004.212 3.02.325 3.069.35 6.244.705 9.472.705 4.628 0 8.731-.183 12.534-.564 4.512-.452 8.78-1.312 12.365-2.1 3.708-.81 7.387-1.971 11.934-3.76 4.671-1.838 8.248-3.774 10.937-5.923 3.926-3.133 5.916-6.569 5.916-10.216 0-3.542-2.015-6.947-5.987-10.118-2.716-2.166-6.382-4.166-10.894-5.94-3.485-1.377-7.514-2.565-11.966-3.543-3.489-.762-7.828-1.714-12.33-2.162-3.38-.339-7.86-.727-12.51-.727m0 46.496c-3.308 0-6.522-.363-9.633-.712-1.01-.117-2.011-.23-3.003-.328-.934-.092-1.866-.177-2.787-.262-3.443-.317-6.695-.613-9.807-1.294-3.912-.857-8.435-1.94-12.305-3.461-4.688-1.845-8.378-4.55-11.07-6.7-4.406-3.516-6.643-7.302-6.643-11.25 0-3.936 2.188-7.598 6.689-11.19 2.392-1.911 6.145-4.674 11.077-6.618a81 81 0 0 1 12.224-3.746c4.057-.889 8.59-1.34 12.594-1.743 4.23-.42 8.492-.635 12.665-.635 4.717 0 9.24.392 12.654.734 4.586.459 8.968 1.418 12.492 2.19 4.53.992 8.629 2.206 12.188 3.606 4.646 1.828 8.435 3.902 11.265 6.16 4.332 3.457 6.53 7.242 6.53 11.243 0 4.106-2.174 7.923-6.46 11.345-2.8 2.237-6.498 4.244-11.306 6.135-4.622 1.82-8.372 2.998-12.157 3.831-3.623.794-7.945 1.665-12.53 2.124-3.85.384-7.998.571-12.676.571" style="fill:#211d1d;fill-opacity:1;fill-rule:nonzero;stroke:none;stroke-width:.0352778" transform="translate(21.419 -28.588)"/><path d="M87.767 34.95c-4.163 0-8.418.211-12.644.631-4 .395-8.534.843-12.548 1.715a80.4 80.4 0 0 0-12.122 3.683c-4.798 1.87-8.466 4.547-10.809 6.4-4.177 3.301-6.205 6.592-6.205 10.06 0 3.482 2.07 6.887 6.16 10.118 2.638 2.085 6.25 4.71 10.801 6.484 3.814 1.485 8.308 2.55 12.203 3.394 3.051.663 6.293.956 9.726 1.27.935.08 1.877.17 2.826.26 1.009.103 2.025.216 3.051.329 3.101.346 6.304.705 9.56.705 4.678 0 8.816-.183 12.658-.564 4.558-.452 8.869-1.316 12.485-2.099 3.747-.811 7.465-1.976 12.054-3.764 4.717-1.838 8.33-3.775 11.042-5.92 3.962-3.132 5.973-6.569 5.973-10.213 0-3.538-2.036-6.942-6.047-10.114-2.74-2.166-6.441-4.166-10.996-5.944-3.524-1.372-7.588-2.565-12.086-3.539-3.52-.765-7.902-1.714-12.45-2.166-3.414-.338-7.937-.726-12.632-.726m0 46.5c-3.338 0-6.583-.364-9.723-.713a198 198 0 0 0-5.846-.59c-3.478-.317-6.762-.613-9.902-1.294-3.951-.857-8.516-1.94-12.421-3.464-4.731-1.842-8.46-4.548-11.176-6.696-4.452-3.517-6.71-7.306-6.71-11.254 0-3.94 2.208-7.602 6.756-11.197 2.416-1.908 6.205-4.674 11.183-6.614 4.099-1.599 8.251-2.861 12.34-3.747 4.096-.889 8.675-1.34 12.714-1.743 4.272-.423 8.572-.635 12.785-.635 4.762 0 9.327.392 12.777.734 4.629.455 9.056 1.418 12.612 2.187 4.572.995 8.71 2.205 12.305 3.61 4.692 1.827 8.516 3.897 11.37 6.155 4.378 3.461 6.593 7.246 6.593 11.25 0 4.11-2.19 7.927-6.519 11.35-2.83 2.236-6.562 4.243-11.416 6.134-4.664 1.817-8.449 2.999-12.273 3.828-3.655.793-8.019 1.668-12.647 2.127-3.891.384-8.079.571-12.802.571" style="fill:#211d1d;fill-opacity:1;fill-rule:nonzero;stroke:none;stroke-width:.0352778" transform="translate(21.419 -28.588)"/><path d="M97.722 97.596c.59 1.947 1.333 5.58-1.471 8.544s-8.213 7.892-15.805.021c-3.189-3.305-3.912-7.828-1.421-11.193 3.316-4.477 6.477-6.502 10.89-4.618 5.253 2.244 7.221 5.316 7.807 7.246" style="fill:#cf3456;fill-opacity:1;fill-rule:nonzero;stroke:none;stroke-width:.0352778" transform="translate(21.419 -28.588)"/><path d="M86.772 90.364c-2.43 0-4.615 1.588-7.165 5.034-2.216 2.995-1.669 7.12 1.362 10.259 2.585 2.685 5.125 4.022 7.535 4.025 3.009-.014 5.337-2.05 7.221-4.04 1.873-1.982 2.3-4.546 1.302-7.838-.378-1.252-1.86-4.424-7.394-6.787-1.01-.43-1.955-.653-2.861-.653m1.704 20.768c-2.816 0-5.69-1.503-8.552-4.466-3.538-3.672-4.134-8.544-1.481-12.129 2.744-3.707 6.29-7.186 11.758-4.854 6.096 2.604 7.775 6.251 8.216 7.701 1.143 3.782.593 6.894-1.64 9.254-1.969 2.085-4.692 4.476-8.266 4.494z" style="fill:#211d1d;fill-opacity:1;fill-rule:nonzero;stroke:none;stroke-width:.0352778" transform="translate(21.419 -28.588)"/><path d="M90.67 93.977s-2.477 1.802-.734 4.176c1.482 2.018 3.045.844 3.045.844z" style="fill:#cf3456;fill-opacity:1;fill-rule:nonzero;stroke:none;stroke-width:.0352778" transform="translate(21.419 -28.588)"/><path d="M91.88 99.917q-.17 0-.356-.028c-.77-.113-1.46-.582-2.057-1.393-.596-.815-.83-1.662-.695-2.523.233-1.485 1.503-2.427 1.556-2.466a.58.58 0 0 1 .684.939c-.205.151-1.954 1.527-.61 3.362 1.062 1.446 2.046.853 2.233.72a.583.583 0 0 1 .808.126.58.58 0 0 1-.117.805 2.5 2.5 0 0 1-1.446.458" style="fill:#211d1d;fill-opacity:1;fill-rule:nonzero;stroke:none;stroke-width:.0352778" transform="translate(21.419 -28.588)"/><path d="M91.425 97.324a.722.722 0 0 1-.254-1.4c.085-.032 8.216-3.126 11.373-8.435 4.527-7.62 5.218-15.035 5.222-15.11a.727.727 0 0 1 1.446.127c-.028.314-.727 7.822-5.422 15.724-3.419 5.754-11.758 8.918-12.111 9.048a.7.7 0 0 1-.254.046" style="fill:#211d1d;fill-opacity:1;fill-rule:nonzero;stroke:none;stroke-width:.0352778" transform="translate(21.419 -28.588)"/><path d="M49.522 46.574S39.288 46.295 36.3 52.31c-2.988 6.011-.83 15.723.536 19.085 1.365 3.362 6.382 10.238 11.465 11.667 0 0-.843 6.275-7.916 5.729-9.814-.759-17.374-14.969-13.257-28.678s11.51-17.233 11.51-17.233z" style="fill:#fff;fill-opacity:1;fill-rule:nonzero;stroke:none;stroke-width:.0352778" transform="translate(21.419 -28.588)"/><path d="M38.692 43.508c-1.182.681-7.398 4.752-11.007 16.771-2.219 7.38-1.08 15.635 2.97 21.54 2.632 3.839 6.103 6.11 9.776 6.393 5.415.416 6.858-3.383 7.2-4.755-5.059-1.764-9.952-8.442-11.331-11.843-1.443-3.549-3.577-13.406-.519-19.562 2.085-4.198 7.342-5.492 10.721-5.891Zm2.55 45.896q-.434.001-.9-.035c-4.028-.31-7.81-2.759-10.643-6.893-4.244-6.188-5.443-14.824-3.125-22.528 4.145-13.798 11.504-17.445 11.814-17.593l.215-.1 14.725 5-3.824-.1c-.099-.003-9.899-.197-12.686 5.412-2.885 5.807-.825 15.212.554 18.61 1.316 3.234 6.283 9.976 11.088 11.327l.483.134-.067.501c-.007.064-.924 6.265-7.634 6.265" style="fill:#211d1d;fill-opacity:1;fill-rule:nonzero;stroke:none;stroke-width:.0352778" transform="translate(21.419 -28.588)"/><path d="M27.29 63.324c1.513-8.435 8.389-16.038 8.389-16.038l-5.736 1.531s-5.832 11.01-7.063 15.879c-.07.29-.113.631-.134 1.009 1.267-.452 4.466-1.93 4.544-2.381" style="fill:#e7e2b9;fill-opacity:1;fill-rule:nonzero;stroke:none;stroke-width:.0352778" transform="translate(21.419 -28.588)"/><path d="M27.29 63.324h.003zm3.048-14.013c-.826 1.58-5.765 11.11-6.886 15.494 1.294-.55 2.92-1.365 3.291-1.7 1.178-6.385 5.267-12.192 7.32-14.785zm-8.223 17.233.053-.874a6 6 0 0 1 .151-1.115c1.235-4.883 6.872-15.554 7.112-16.01l.12-.221 7.87-2.103-1.312 1.457c-.07.074-6.784 7.581-8.248 15.744-.187 1.048-4.875 2.812-4.92 2.83z" style="fill:#211d1d;fill-opacity:1;fill-rule:nonzero;stroke:none;stroke-width:.0352778" transform="translate(21.419 -28.588)"/><path d="M62.631 73.212s2.064-19.064-12.827-24.271c-14.89-5.21-23.407 4.667-26.211 14.619l-1.094 2.321-.106-1.93s-1.668-6.991 2.463-14.139c4.13-7.147 8.749-11.57 18.796-11.913 7.743-.261 19.272 4.456 27.135 16.665 7.864 12.21 4.4 22.066 4.4 22.066z" style="fill:#e6da3f;fill-opacity:1;fill-rule:nonzero;stroke:none;stroke-width:.0352778" transform="translate(21.419 -28.588)"/><path d="m63.248 72.782 11.54 3.136c.547-2.156 2.113-10.788-4.487-21.04-7.532-11.694-18.804-16.662-26.632-16.397-9.846.332-14.305 4.692-18.312 11.624-3.599 6.227-2.657 12.383-2.438 13.526l.127-.276c1.877-6.618 5.814-11.899 10.802-14.495 4.664-2.427 10.096-2.583 16.147-.47 6.283 2.198 10.558 7.211 12.368 14.5 1.118 4.505.98 8.52.885 9.892m12.309 4.547L62 73.642l.053-.49c.02-.187 1.834-18.673-12.443-23.664-5.733-2.008-10.858-1.874-15.226.402-4.72 2.455-8.449 7.493-10.234 13.825l-.035.092-2.067 4.403-.23-4.177c-.162-.72-1.52-7.493 2.537-14.51 4.201-7.27 8.893-11.85 19.276-12.203 8.149-.271 19.868 4.855 27.643 16.93 7.927 12.309 4.604 22.158 4.46 22.57z" style="fill:#211d1d;fill-opacity:1;fill-rule:nonzero;stroke:none;stroke-width:.0352778" transform="translate(21.419 -28.588)"/><path d="M50.4 96.88c-.342-.233-.187-1.224-.187-1.224l-3.397-.918s-9.5 9.73-16.693 4.177C22.93 93.366 22.46 91.91 21.5 84.23s1.517-13.285 4.745-15.272c2.712-1.668 5.323-2.162 11.123.59 4.42 2.095 6.463 4.42 8.163 8.212 1.097 2.449 2.54 7.878-1.863 9.543-5.828 2.205-9.948-.819-12.03-4.572-2.077-3.754-4.205-13.628-4.205-13.628s-3.122 3.471-2.423 4.128c.35.324.96 5.07 2.565 8.837 1.608 3.767 4.208 6.554 4.208 6.554l4.202 3.161 7.412 2.142 10.28-5.987-6.195-19.502-10.548-6.967-14.425 3.073-6.174 12.75 2.328 13.017 2.953 4.84 4 4.83 4.315 2.72 5.93 2.144 10.947-3.28z" style="fill:#e7e2b9;fill-opacity:1;fill-rule:nonzero;stroke:none;stroke-width:.0352778" transform="translate(21.419 -28.588)"/><path d="m27.946 68.721.056.261c.022.099 2.131 9.832 4.146 13.466.924 1.668 4.47 6.9 11.317 4.31 1.104-.416 1.841-1.1 2.254-2.088.804-1.94.159-4.72-.716-6.67-1.76-3.93-3.82-6.005-7.885-7.931-4.519-2.142-6.985-2.269-9.172-1.348m2.24 33.454 5.694 2.057 10.583-3.172 3.235-4.219a2.3 2.3 0 0 1-.102-.751l-2.61-.706c-1.595 1.542-10.273 9.352-17.216 3.99-7.225-5.574-7.846-7.087-8.844-15.07-1.023-8.182 1.781-13.85 5.016-15.84 2.893-1.782 5.733-2.262 11.674.557 4.293 2.036 6.579 4.34 8.445 8.502.473 1.055 1.923 4.724.727 7.592-.533 1.28-1.514 2.201-2.914 2.73-5.207 1.969-9.97.162-12.739-4.833-1.697-3.062-3.383-9.923-4.014-12.65-.893 1.1-1.577 2.151-1.63 2.54.194.257.314.754.628 2.155.402 1.785 1.009 4.48 1.99 6.784 1.453 3.404 3.763 6.018 4.067 6.35l4.074 3.066 7.07 2.042 9.663-5.63-5.99-18.863-10.175-6.72-13.91 2.963-5.969 12.326 2.276 12.724 2.875 4.71 3.916 4.727zm5.659 3.277-6.223-2.264-4.392-2.77-4.107-4.97-3.012-4.932-2.378-13.31 6.378-13.173 14.944-3.182 10.918 7.214 6.396 20.137-10.894 6.346-7.75-2.237-4.364-3.295c-.11-.116-2.692-2.906-4.318-6.724-1.023-2.395-1.644-5.154-2.053-6.981-.166-.734-.339-1.492-.43-1.71-.276-.28-.745-1.045 1.559-3.86-2.727 2.028-4.957 7.13-4.043 14.418.928 7.419 1.284 8.805 8.4 14.298 6.706 5.179 15.832-4.032 15.924-4.124l.236-.244 4.23 1.143-.081.512c-.039.254-.035.568 0 .698l.448.304-4.078 5.316z" style="fill:#211d1d;fill-opacity:1;fill-rule:nonzero;stroke:none;stroke-width:.0352778" transform="translate(21.419 -28.588)"/><path d="M45.08 96.393s-6.053.963-10.943-1.436c-3.75-1.838-7.387-5.972-8.128-9.55-2.536-12.223.854-14.488 4.18-17.776 0 0-4.8.423-6.984 3.094-2.188 2.67-4.212 8.855-2.16 16.637 2.05 7.779 8.58 12.153 8.58 12.153s5.645 3.486 10.323.561c4.064-2.543 5.132-3.683 5.132-3.683" style="fill:#fff;fill-opacity:1;fill-rule:nonzero;stroke:none;stroke-width:.0352778" transform="translate(21.419 -28.588)"/><path d="M28.436 68.53c-1.506.364-3.594 1.108-4.783 2.562-1.771 2.159-4.191 7.987-2.046 16.122 1.972 7.482 8.276 11.775 8.34 11.818.035.021 5.383 3.245 9.694.55 1.679-1.051 2.843-1.859 3.62-2.441-2.23.106-6.037-.025-9.381-1.665-4.047-1.983-7.673-6.262-8.439-9.952-2.254-10.866.13-14.146 2.995-16.993m7.268 33.303c-3.373 0-6.213-1.722-6.382-1.824-.293-.198-6.756-4.597-8.837-12.499-1.983-7.514-.286-14.03 2.272-17.152 2.314-2.826 7.175-3.288 7.383-3.306l1.602-.14-1.143 1.132c-.219.215-.434.423-.653.635-3.044 2.945-5.676 5.493-3.369 16.609.688 3.32 4.12 7.337 7.814 9.147 4.671 2.293 10.538 1.394 10.598 1.387l1.672-.269-1.157 1.235c-.046.05-1.168 1.228-5.25 3.778-1.499.939-3.076 1.267-4.55 1.267" style="fill:#211d1d;fill-opacity:1;fill-rule:nonzero;stroke:none;stroke-width:.0352778" transform="translate(21.419 -28.588)"/><path d="M29.858 86.487s3.31 5.85 8.079 7.412c4.773 1.566 7.436.518 9.412-.342 2.222-.97 5.418-2.7 7.556-5.698 3.313-4.635 3.853-7.708 2.149-12.417-2.286-6.336-6.237-15.657-16.898-16.835s-19.992 3.866-23.227 9.857c-3.49 6.47-3.359 13.373-.282 20.33 3.072 6.957 8.41 12.799 16.633 16.179 8.223 3.383 18.048-2.597 19-3.902l-2.067-5.193s-10.833 10.63-18.266 7.221C24.513 99.692 20 92.7 18.513 86.293c-1.68-7.221-.526-14.503 3.612-18.143 4.135-3.645 13.437-4.209 20.038.105 7.228 4.728 11.24 16.144 5.32 20.836-3.052 2.42-6.565 3.1-9.712 2.55-4.205-.737-5.479-3.422-7.913-5.154" style="fill:#e6da3f;fill-opacity:1;fill-rule:nonzero;stroke:none;stroke-width:.0352778" transform="translate(21.419 -28.588)"/><path d="M37.027 59.013c-9.339 0-16.899 4.745-19.587 9.726-3.291 6.103-3.38 12.77-.264 19.822 2.73 6.185 6.995 10.919 12.7 14.126-6.887-3.937-10.665-10.83-11.928-16.263-1.802-7.751-.31-15.096 3.793-18.712 4.162-3.665 13.702-4.544 20.74.057 4.72 3.086 8.184 8.946 8.427 14.245.145 3.22-.913 5.828-3.065 7.532-2.964 2.35-6.576 3.295-10.17 2.667-1.433-.25-2.54-.713-3.469-1.277 1.126 1.02 2.456 1.933 3.916 2.413 4.706 1.545 7.289.42 8.996-.321 3.267-1.422 5.726-3.274 7.317-5.504 3.203-4.484 3.707-7.373 2.077-11.888-2.723-7.54-6.805-15.392-16.418-16.454a28 28 0 0 0-3.065-.17m-6.054 44.263q1.222.625 2.53 1.16c7.542 3.105 16.51-2.085 18.1-3.496l-1.615-4.06c-2.473 2.25-11.543 9.835-18.285 6.745q-.37-.17-.73-.35m7.68 3.284c-1.877 0-3.778-.303-5.592-1.051-7.838-3.221-13.54-8.767-16.947-16.482-3.267-7.394-3.165-14.404.307-20.835 3.157-5.853 12.566-11.402 23.798-10.16 11.628 1.284 15.515 12.04 17.382 17.212 1.763 4.886 1.202 8.156-2.223 12.954-1.714 2.402-4.34 4.385-7.796 5.891-2.378 1.034-5.091 1.916-9.825.364-4.929-1.62-8.262-7.433-8.403-7.68l-1.285-2.276 2.124 1.517c.773.55 1.432 1.19 2.071 1.81 1.464 1.422 2.85 2.762 5.61 3.246 3.262.571 6.547-.293 9.249-2.431 2.332-1.852 2.716-4.597 2.625-6.572-.223-4.872-3.546-10.478-7.903-13.325-6.41-4.194-15.497-3.542-19.339-.158-3.789 3.337-5.133 10.237-3.429 17.575 1.309 5.63 5.436 12.897 13.11 16.411 6.984 3.203 17.515-7.002 17.62-7.108l.622-.607 2.508 6.297-.187.261c-.872 1.192-7.317 5.144-14.097 5.147" style="fill:#211d1d;fill-opacity:1;fill-rule:nonzero;stroke:none;stroke-width:.0352778" transform="translate(21.419 -28.588)"/><path d="M54.955 49.057c.931 0 .931-1.45 0-1.45-.935 0-.935 1.45 0 1.45M28.86 63.641c.931 0 .935-1.45 0-1.45-.932 0-.935 1.45 0 1.45m17.68-.293c.932 0 .936-1.45 0-1.45-.93 0-.934 1.45 0 1.45m-5.703 1.62c.934 0 .934-1.45 0-1.45-.932 0-.935 1.45 0 1.45m7.415 35.796c.931 0 .935-1.45 0-1.45-.931 0-.935 1.45 0 1.45m-3.422 3.094c.931 0 .935-1.45 0-1.45-.931 0-.935 1.45 0 1.45m23.386-32.41c.93 0 .93-1.45 0-1.45-.935 0-.935 1.45 0 1.45M55.953 44.785c.931 0 .931-1.45 0-1.45-.935 0-.935 1.45 0 1.45m3.137 2.357c.93 0 .934-1.45 0-1.45-.932 0-.936 1.45 0 1.45m-15.4-3.094c.932 0 .932-1.447 0-1.447-.934 0-.934 1.447 0 1.447M32.853 46.7c.931 0 .935-1.45 0-1.45s-.935 1.45 0 1.45m-4.279 4.566c.935 0 .935-1.447 0-1.447-.931 0-.935 1.447 0 1.447m36.361.737c.931 0 .935-1.45 0-1.45-.932 0-.935 1.45 0 1.45m-2.283 3.831c.935 0 .935-1.45 0-1.45-.931 0-.931 1.45 0 1.45m-11.405 16.5c.931 0 .935-1.45 0-1.45s-.935 1.45 0 1.45m.853 3.976c.936 0 .936-1.45 0-1.45-.93 0-.93 1.45 0 1.45m3.14 3.534c.932 0 .932-1.45 0-1.45-.934 0-.934 1.45 0 1.45m-1.57 3.242c.932 0 .935-1.45 0-1.45-.93 0-.934 1.45 0 1.45m-2.568 4.565c.935 0 .935-1.446 0-1.446-.931 0-.931 1.446 0 1.446m-5.274-20.768c.932 0 .935-1.45 0-1.45-.931 0-.935 1.45 0 1.45m2.995 1.619c.932 0 .935-1.45 0-1.45-.934 0-.934 1.45 0 1.45m-10.41-6.039c.931 0 .935-1.45 0-1.45-.931 0-.935 1.45 0 1.45m4.565 1.619c.931 0 .931-1.446 0-1.446-.935 0-.935 1.446 0 1.446m-8.128-2.208c.931 0 .931-1.45 0-1.45-.935 0-.935 1.45 0 1.45m31.796-4.714c.931 0 .935-1.45 0-1.45-.932 0-.935 1.45 0 1.45m3.707 7.956c.932 0 .935-1.45 0-1.45-.93 0-.934 1.45 0 1.45m.427-3.831c.935 0 .935-1.45 0-1.45-.931 0-.935 1.45 0 1.45m-9.839-9.575c.935 0 .935-1.45 0-1.45-.931 0-.931 1.45 0 1.45m4.565 9.134c.932 0 .932-1.45 0-1.45-.935 0-.935 1.45 0 1.45m-.571 4.861c.931 0 .935-1.45 0-1.45-.932 0-.935 1.45 0 1.45m6.844 5.45c.931 0 .935-1.45 0-1.45-.932 0-.935 1.45 0 1.45m-4.135-3.242c.931 0 .935-1.45 0-1.45-.931 0-.935 1.45 0 1.45M46.968 41.102c.935 0 .935-1.45 0-1.45-.932 0-.935 1.45 0 1.45m3.852 3.683c.931 0 .931-1.45 0-1.45-.935 0-.935 1.45 0 1.45m-12.548-2.356c.931 0 .931-1.45 0-1.45-.935 0-.935 1.45 0 1.45" style="fill:#f8f5ba;fill-opacity:1;fill-rule:nonzero;stroke:none;stroke-width:.0352778" transform="translate(21.419 -28.588)"/></g></svg>