<svg xmlns="http://www.w3.org/2000/svg" xml:space="preserve" width="200mm" height="200mm" viewBox="0 0 200 200"><defs><clipPath id="a" clipPathUnits="userSpaceOnUse"><path d="M23157.4 3764.5c-337.2 0-677.5 57.4-992.7 171.7-148.5 53.8-308.1 137.5-340.6 270.8-27.8 114.2 58.6 216.5 174.6 272.8 75.4 36.7 377.5 114.1 465.4 120 146.9 9.9 275 14.6 391.6 14.6 399.7 0 663.1-55.3 1077.1-146.1 84.6-18.5 170.2-39.2 244.7-79.2 74.6-40 137.6-102.6 152-175.5 15.3-78.1-27.8-156-93.2-209.3-65.3-53.3-150.6-85.6-236.1-112.8-266.9-84.8-553.8-127-842.8-127"/></clipPath></defs><g style="display:inline"><g clip-path="url(#a)" transform="matrix(.0312 0 0 -.0312 -620.979 313.411)"><path d="M21796.3 3764.5h2548.5v849.898h-2548.5z" style="fill:#fcfefe;fill-opacity:1;fill-rule:nonzero;stroke:none"/></g><path d="M92.235 170.143c-3.642 0-7.639.15-12.25.458-2.69.181-12.016 2.584-14.256 3.676-2.865 1.388-5.91 4.24-5.067 7.697.755 3.102 4.18 5.776 10.178 7.95 18.159 6.584 38.867 7.09 56.812 1.386 2.53-.805 5.145-1.772 7.132-3.392 2.053-1.675 3.045-3.856 2.655-5.84-.361-1.845-2-3.707-4.377-4.984-2.24-1.2-4.802-1.822-7.451-2.405-13.289-2.915-21.38-4.546-33.376-4.546m9.326 26.533c-10.593 0-21.277-1.81-31.208-5.41-6.568-2.38-10.19-5.307-11.077-8.952-.86-3.525 1.43-7.185 5.829-9.323 2.39-1.16 11.922-3.622 14.783-3.813 20.01-1.347 28.571.288 46.029 4.116 2.752.605 5.42 1.254 7.822 2.543 2.792 1.498 4.652 3.672 5.101 5.966.493 2.508-.686 5.207-3.154 7.22-2.175 1.772-4.94 2.802-7.6 3.647-8.422 2.677-17.44 4.007-26.525 4.007" style="fill:#211d1d;fill-opacity:1;fill-rule:nonzero;stroke:none;stroke-width:.0312017"/><path d="M86.175 179.69c3.351 4.356 8.038 4.68 14.113 4.774 4.262.066 8.742-.53 10.998-2.53-3.516-3.295-5.947-6.234-7.089-11.654-1.45-6.864-1.167-17.255-1.117-24.422.147-21.916 4.237-9.123 1.629-26.883l-4.237-4.78-4.562 5.267c-2.852 15.644 1.07 4.955 1.467 26.562.09 4.995-1.096 14.39-1.48 19.373-.53 6.905-9.525 14.16-9.722 14.293" style="fill:#e6f6f4;fill-opacity:1;fill-rule:nonzero;stroke:none;stroke-width:.0312017"/><path d="M87.174 179.787c3.07 3.538 7.235 3.875 13.126 3.963 4.468.065 7.922-.593 9.888-1.879-3.41-3.288-5.61-6.334-6.69-11.444-1.31-6.2-1.223-15.049-1.154-22.157.009-.836.015-1.644.022-2.415.071-10.786 1.092-13.288 1.838-15.117.71-1.74 1.104-2.705-.172-11.45l-3.554-4.01-3.9 4.505c-1.41 7.77-1.09 8.705-.396 10.73.683 1.994 1.716 5.008 1.91 15.495.062 3.526-.488 9.067-.971 13.957-.203 2.05-.396 3.984-.512 5.488-.48 6.253-7.339 12.552-9.435 14.334m13.74 5.398c-.214 0-.43-.003-.639-.006-6.384-.097-11.173-.518-14.668-5.055l-.465-.602.621-.418c.25-.193 8.918-7.195 9.423-13.76.116-1.52.31-3.463.512-5.52.48-4.848 1.026-10.35.964-13.788-.187-10.265-1.176-13.148-1.831-15.057-.759-2.216-1.14-3.33.377-11.645l.034-.19 5.224-6.031 4.917 5.547.031.21c1.37 9.325.924 10.42.112 12.408-.702 1.722-1.663 4.075-1.731 14.587-.006.77-.016 1.582-.022 2.421-.069 7.036-.156 15.798 1.123 21.848 1.07 5.067 3.242 7.872 6.877 11.279l.574.533-.587.522c-2.496 2.215-7.15 2.717-10.845 2.717" style="fill:#211d1d;fill-opacity:1;fill-rule:nonzero;stroke:none;stroke-width:.0312017"/><path d="M108.946 113.596a8.636 8.636 0 0 1-8.636 8.637 8.636 8.636 0 1 1 0-17.27 8.635 8.635 0 0 1 8.636 8.633" style="fill:#e6f6f4;fill-opacity:1;fill-rule:nonzero;stroke:none;stroke-width:.0312017"/><path d="M100.31 105.677c-4.369 0-7.923 3.55-7.923 7.919s3.554 7.922 7.923 7.922 7.922-3.554 7.922-7.922-3.554-7.919-7.922-7.919m0 17.27c-5.155 0-9.352-4.193-9.352-9.351 0-5.155 4.197-9.348 9.352-9.348 5.154 0 9.35 4.193 9.35 9.348 0 5.158-4.196 9.351-9.35 9.351" style="fill:#211d1d;fill-opacity:1;fill-rule:nonzero;stroke:none;stroke-width:.0312017"/><path d="M104.22 106.753s-1.477 1.63-3.957 1.467c-2.437-.16-4.028-1.467-4.028-1.467V93.065h7.984z" style="fill:#e6f6f4;fill-opacity:1;fill-rule:nonzero;stroke:none;stroke-width:.0312017"/><path d="M96.95 106.385a7.15 7.15 0 0 0 3.36 1.123 4.47 4.47 0 0 0 3.195-1.06V93.78h-6.556zm3.663 2.562a8 8 0 0 1-.396-.013c-2.637-.174-4.362-1.57-4.434-1.628l-.259-.216V92.354h9.41v14.674l-.183.206c-.066.072-1.582 1.713-4.138 1.713" style="fill:#211d1d;fill-opacity:1;fill-rule:nonzero;stroke:none;stroke-width:.0312017"/><path d="M104.934 101.234v-8.88h-9.41v8.624c-16.575-1.17-21.121-5.304-21.121-5.304-3.08-26.085-9.947-46.796-16.39-69.742-.362-.793-.556-1.61-.556-2.44 0-8.281 18.528-14.993 41.386-14.993s41.386 6.712 41.386 14.993c0 .218-.019.434-.044.649l.044.003-.128.471q-.073.36-.193.718c-7.12 26.296-13.174 48.89-14.996 70.34 0 0-4.218 5.152-19.978 5.56" style="fill:#fcfefe;fill-opacity:1;fill-rule:nonzero;stroke:none;stroke-width:.0312017"/><path d="M102.918 101.259q-1.335-.001-2.77-.044a132 132 0 0 1-3.199-.143V93.78h6.556v7.476q-.291.004-.587.003" style="fill:#edf9f7;fill-opacity:1;fill-rule:nonzero;stroke:none;stroke-width:.0312017"/><path d="M103.505 101.256V93.78h-6.556v7.292q-.729-.043-1.426-.094v-8.624h9.41v8.88a71 71 0 0 1-1.428.022" style="fill:#6f7273;fill-opacity:1;fill-rule:nonzero;stroke:none;stroke-width:.0312017"/><path d="M75.077 95.293c1.123.805 7.37 4.64 25.092 5.208 17.305.549 23.117-4.238 24.053-5.14 1.885-21.794 8.253-45.317 14.996-70.215l.012-.041q.107-.315.172-.633l.044-.169.028-.246c.022-.169.04-.369.04-.565 0-3.629-4.246-7.248-11.65-9.929-7.741-2.805-18.047-4.349-29.02-4.349-10.974 0-21.28 1.544-29.021 4.35-7.405 2.68-11.651 6.3-11.651 9.928 0 .702.165 1.426.49 2.147l.037.102c1.073 3.826 2.175 7.639 3.239 11.33 5.429 18.802 10.555 36.568 13.139 58.222m27.85 6.68q-1.35 0-2.805-.046c-20.393-.653-25.972-5.517-26.2-5.726l-.2-.178-.03-.265c-2.556-21.673-7.689-39.46-13.124-58.29-1.06-3.676-2.16-7.477-3.23-11.29-.396-.892-.595-1.797-.595-2.686 0-8.808 18.493-15.707 42.1-15.707 23.585 0 42.066 6.886 42.1 15.682l.206.01-.352 1.307a7 7 0 0 1-.206.755c-6.75 24.923-13.12 48.465-14.968 70.194l-.015.221-.144.172c-.203.25-5.004 5.847-22.537 5.847" style="fill:#211d1d;fill-opacity:1;fill-rule:nonzero;stroke:none;stroke-width:.0312017"/><path d="M64.712 49.392c4.062 14.55 7.681 29.274 9.69 46.282 0 0 5.268 6.68 25.636 7.332 19.707.63 24.874-7.332 24.874-7.332 1.245-14.63 4.459-29.804 8.637-46.31-5.966 4.546-17.9 7.367-33.73 7.367-14.742 0-28.106-2.808-35.107-7.339" style="fill:#efd83e;fill-opacity:1;fill-rule:nonzero;stroke:none;stroke-width:.0312017"/><path d="M137.57 33.997c-.558.908-1.322 1.77-2.265 2.584q.681.72 1.18 1.479.538-2.017 1.086-4.063m-77.34-.274 1.076 3.728q.526-.68 1.202-1.332c-.94-.758-1.707-1.56-2.278-2.396" style="fill:#fdfae9;fill-opacity:1;fill-rule:nonzero;stroke:none;stroke-width:.0312017"/><path d="M135.305 36.58c-5.784 4.99-18.57 8.095-35.32 8.095-16.112 0-30.968-3.295-37.476-8.556q-.676.652-1.202 1.332a1480 1480 0 0 1 3.405 11.941c7.001 4.53 20.365 7.339 35.108 7.339 15.828 0 27.763-2.82 33.729-7.367.936-3.7 1.915-7.46 2.936-11.304a11 11 0 0 0-1.18-1.48" style="fill:#fdfae9;fill-opacity:1;fill-rule:nonzero;stroke:none;stroke-width:.0312017"/><path d="M75.083 95.365c.892.923 6.896 6.35 24.977 6.927 17.595.561 23.37-5.876 24.16-6.88 1.606-18.659 6.455-38.344 11.847-58.553-5.898 5.323-19.186 8.53-36.082 8.53-16.952 0-31.847-3.597-38.238-8.992l.19.664C67.37 55.89 72.504 73.677 75.084 95.365m27.161 8.39c-.724 0-1.463-.01-2.228-.034-20.465-.656-25.95-7.32-26.175-7.604l-.125-.16-.025-.2c-2.555-21.675-7.69-39.466-13.126-58.3l-2.253-7.815 2.509 3.678c4.268 6.266 20.374 10.64 39.164 10.64 18.893 0 33.064-3.962 36.977-10.337l2.574-4.19-1.276 4.749c-5.713 21.288-10.977 42.016-12.637 61.551l-.012.178-.1.153c-.209.324-5.207 7.69-23.267 7.69" style="fill:#211d1d;fill-opacity:1;fill-rule:nonzero;stroke:none;stroke-width:.0312017"/><path d="M137.948 30.01c0 8.636-14.827 14.665-37.963 14.665-21.598 0-40.247-6.029-40.247-14.665 0-8.64 17.507-15.645 39.105-15.645s39.105 7.005 39.105 15.645" style="fill:#fff;fill-opacity:1;fill-rule:nonzero;stroke:none;stroke-width:.0312017"/><path d="M98.843 15.08c-10.356 0-20.084 1.61-27.386 4.53-6.995 2.8-11.004 6.587-11.004 10.4 0 3.766 4.1 7.282 11.544 9.897 7.439 2.612 17.38 4.053 27.988 4.053 11.173 0 20.646-1.398 27.398-4.044 4.493-1.762 9.85-4.91 9.85-9.906 0-3.813-4.009-7.6-11.004-10.4-7.301-2.92-17.03-4.53-27.386-4.53m1.142 30.31c-10.768 0-20.874-1.47-28.459-4.135-8.062-2.833-12.502-6.827-12.502-11.245 0-4.49 4.227-8.655 11.903-11.726 7.467-2.986 17.382-4.633 27.916-4.633s20.45 1.647 27.916 4.633c7.676 3.07 11.904 7.236 11.904 11.726 0 4.59-3.72 8.477-10.759 11.236-6.914 2.708-16.568 4.143-27.919 4.143" style="fill:#211d1d;fill-opacity:1;fill-rule:nonzero;stroke:none;stroke-width:.0312017"/><path d="M98.843 9.214c-10.974 0-21.28 1.544-29.02 4.35-7.405 2.68-11.651 6.3-11.651 9.928 0 3.625 4.246 7.245 11.65 9.928 7.742 2.802 18.047 4.347 29.021 4.347s21.28-1.545 29.02-4.347c7.405-2.683 11.651-6.303 11.651-9.928 0-3.629-4.246-7.248-11.65-9.929-7.741-2.805-18.047-4.349-29.021-4.349m0 29.982c-23.607 0-42.1-6.899-42.1-15.704 0-8.808 18.493-15.707 42.1-15.707s42.1 6.899 42.1 15.707c0 8.805-18.493 15.704-42.1 15.704" style="fill:#211d1d;fill-opacity:1;fill-rule:nonzero;stroke:none;stroke-width:.0312017"/><path d="m97.074 26.512 45.972-15.11 1.451 1.422L96.868 28.45z" style="fill:#e6f6f4;fill-opacity:1;fill-rule:nonzero;stroke:none;stroke-width:.0312017"/><path d="m97.67 26.993-.056.53 45.673-14.983-.412-.402zm-1.55 2.38.355-3.344 46.743-15.364 2.49 2.44z" style="fill:#211d1d;fill-opacity:1;fill-rule:nonzero;stroke:none;stroke-width:.0312017"/><path d="M140.32 17.91a5.246 5.246 0 1 1 2.256-10.247 5.24 5.24 0 0 1 3.993 6.25 5.245 5.245 0 0 1-6.25 3.997" style="fill:#e6f6f4;fill-opacity:1;fill-rule:nonzero;stroke:none;stroke-width:.0312017"/><path d="M140.457 17.28a4.604 4.604 0 0 0 4.867-6.97 4.58 4.58 0 0 0-2.886-2.016 4.56 4.56 0 0 0-3.467.614 4.58 4.58 0 0 0-2.018 2.89 4.61 4.61 0 0 0 3.504 5.482m.992 1.397c-.418 0-.843-.043-1.27-.137a5.9 5.9 0 0 1-4.487-7.02 5.87 5.87 0 0 1 2.584-3.7 5.85 5.85 0 0 1 4.44-.787 5.85 5.85 0 0 1 3.697 2.58 5.87 5.87 0 0 1 .79 4.44c-.606 2.746-3.052 4.624-5.754 4.624" style="fill:#211d1d;fill-opacity:1;fill-rule:nonzero;stroke:none;stroke-width:.0312017"/><path d="M103.792 12.534c8.025 1.114 15.491 1.257 22.318 3.438.605.914.958 6.48.659 7.077-1.982 3.94-4.412 7.254-9.22 9.89-4.815 2.64-12.469 3.199-20.369 2.182-2.99-.384-15.314-2.64-16.708-4.4-.394-.496.29-3.778.418-4.28.355-1.39 1.884-.977 3.167-1.848 4.034-2.742 8.64-7.863 12.973-12.98 2.45.206 4.24.621 6.762.92" style="fill:#ce5e1d;fill-opacity:1;fill-rule:nonzero;stroke:none;stroke-width:.0312017"/><path d="M80.905 30.422c1.226 1.407 12.181 3.644 16.344 4.178 8.327 1.07 15.635.3 20.047-2.119 5.03-2.758 7.3-6.278 9.004-9.67.222-.68-.121-5.322-.555-6.402-4.658-1.46-9.638-1.978-14.905-2.527-2.306-.24-4.69-.49-7.117-.827-1.08-.128-2.025-.278-2.94-.421-1.157-.184-2.255-.356-3.528-.475-4.088 4.818-8.793 10.072-12.905 12.868-.571.39-1.16.55-1.685.69-.78.209-1.133.324-1.267.854-.234.912-.652 3.355-.493 3.85m23.376 5.697c-2.271 0-4.677-.159-7.167-.477-1.775-.228-15.382-2.484-17.054-4.593-.646-.818.312-4.7.321-4.74.293-1.145 1.208-1.388 2.013-1.607.461-.124.942-.252 1.366-.542 4.066-2.765 8.787-8.066 12.868-12.887l.174-.206.272.022c1.429.122 2.618.31 3.875.509.905.14 1.841.29 2.902.415l.012.003c2.41.334 4.787.58 7.086.82 5.401.565 10.5 1.096 15.323 2.637l.175.056.103.153c.687 1.04 1.095 6.793.687 7.6-1.779 3.542-4.153 7.22-9.439 10.12-3.257 1.787-7.994 2.717-13.517 2.717" style="fill:#211d1d;fill-opacity:1;fill-rule:nonzero;stroke:none;stroke-width:.0312017"/><path d="M121.327 14.943c-5.404-1.014-26.868-4.094-27.223-3.373-.784.964-.937 1.407-1.726 2.34-.646.764-5.969 7.232-8.025 8.705-.711.506-1.641 1.176-2.337 1.916-.487.502-.855 1.045-.977 1.591-.103.484-.009.977.381 1.448 1.382 1.685 13.074 4.262 15.935 4.602 7.56.896 14.836-.746 19.342-3.342 4.505-2.602 7.557-6.699 9.326-10.527.234-.505-.031-.87.137-1.426-.452-.33-.452-.777-.883-.955a33 33 0 0 0-3.95-.98" style="fill:#f7e1c9;fill-opacity:1;fill-rule:nonzero;stroke:none;stroke-width:.0312017"/><path d="M94.425 11.99c-.315.394-.521.703-.724 1.003-.246.361-.5.739-.93 1.25l-.265.313c-3.928 4.705-6.571 7.557-7.853 8.477-.671.478-1.589 1.133-2.263 1.85-.474.49-.758.946-.848 1.351-.078.366.009.687.274 1.011 1.149 1.395 12.185 4.01 15.598 4.419 8.156.964 15.176-1.061 19.027-3.28 5.173-2.989 7.931-7.735 9.117-10.296.065-.144.06-.26.04-.484-.009-.156-.021-.334 0-.543a2.4 2.4 0 0 1-.3-.409c-.102-.165-.143-.218-.202-.246a33 33 0 0 0-3.863-.958c-5.875-1.101-24.88-3.753-26.808-3.457m7.114 20.94c-1.42 0-2.843-.08-4.247-.246-2.646-.315-14.711-2.89-16.268-4.786-.462-.559-.63-1.211-.487-1.885.134-.596.506-1.214 1.108-1.838.74-.786 1.744-1.504 2.408-1.978.834-.596 2.84-2.521 7.664-8.3l.268-.318c.396-.468.624-.805.864-1.164.222-.33.453-.67.82-1.126.222-.412.871-.696 12.22.808 5.831.77 12.652 1.8 15.535 2.34 1.466.278 2.78.602 4.01.995l.04.016c.383.16.555.434.695.658.091.147.166.263.297.36l.29.215-.103.346c-.053.168-.04.315-.028.5.022.267.044.601-.134.991-1.236 2.674-4.116 7.626-9.535 10.756-4.078 2.352-9.72 3.656-15.417 3.656" style="fill:#211d1d;fill-opacity:1;fill-rule:nonzero;stroke:none;stroke-width:.0312017"/><path d="M126.076 16.459a12 12 0 0 1-.6 1.598c-1.765 3.828-4.274 8.171-8.78 10.77-4.508 2.6-12.209 4.428-19.772 3.532-2.864-.337-15.101-2.867-16.487-4.549-.39-.477.496-1.204.606-1.688l.028.006c5.341 3.152 12.496 4.765 18.764 4.868 6.269.1 11.61-1.339 15.467-3.588 3.856-2.247 6.318-5.267 8.012-8.503a19 19 0 0 0 1.336-3.167c.209.063.418.119.627.184.43.178.346.206.799.537" style="fill:#fff;fill-opacity:1;fill-rule:nonzero;stroke:none;stroke-width:.0312017"/><path d="m81.242 26.762-.137.209c-.106.159-.309.459-.303.565 1.18 1.422 12.961 3.984 16.178 4.365 7.713.91 15.345-1.086 19.486-3.476 4.487-2.59 6.948-7.005 8.59-10.562.177-.38.337-.796.483-1.236l-.08-.065c-.116-.097-.141-.122-.341-.206l-.165-.05c-.316.917-.727 1.86-1.227 2.815-1.984 3.79-4.664 6.633-8.19 8.69-4.206 2.448-9.782 3.746-15.707 3.647-6.665-.11-13.57-1.857-18.587-4.696m19.741 6.3c-1.341 0-2.714-.075-4.112-.24-2.246-.266-15.201-2.784-16.79-4.719-.47-.57-.034-1.223.256-1.65.097-.147.231-.343.253-.43l.103-.475.527.14.085.041c4.914 2.899 11.844 4.693 18.54 4.802 5.763.097 11.164-1.158 15.223-3.523 3.373-1.965 5.934-4.686 7.838-8.318a19.4 19.4 0 0 0 1.304-3.092l.137-.434.646.19q.215.061.424.125l.038.016c.334.137.437.218.602.359.066.053.15.125.293.23l.266.194-.094.315a13 13 0 0 1-.624 1.66c-1.7 3.682-4.256 8.256-8.97 10.977-3.308 1.906-9.17 3.831-15.945 3.831" style="fill:#211d1d;fill-opacity:1;fill-rule:nonzero;stroke:none;stroke-width:.0312017"/><path d="M92.537 13.9c-.649.662-1.42 1.567-2.218 2.275-.007.006-4.422 4.365-6.2 6.178a147 147 0 0 0-2.103 2.178c.443.278.949.518 1.454.749 1.058.483 2.153.889 3.254 1.291 1.236.453 2.41.983 3.685 1.373 1.276.393 2.612.671 3.82.687 1.21.01 2.277-.272 2.742-.855.296-.378.334-.852.321-1.332-.059-2.284-2.905-9.576-3.176-10.537-.153-.537-.852-2.746-1.579-2.007" style="fill:#c89519;fill-opacity:1;fill-rule:nonzero;stroke:none;stroke-width:.0312017"/><path d="M92.537 13.9h.003zM82.84 24.406c.277.144.564.278.842.406 1.011.461 2.056.851 3.217 1.276.456.165.905.343 1.351.52.749.297 1.52.603 2.309.846 1.392.425 2.627.65 3.676.662 1.113.006 2.003-.243 2.333-.662.2-.252.219-.63.21-.998-.044-1.66-1.763-6.465-2.59-8.774-.29-.808-.5-1.388-.568-1.635-.256-.908-.58-1.535-.768-1.735-.196.203-.405.43-.624.665-.474.509-1.01 1.086-1.56 1.576q-.023.02-.065.065c-1.345 1.33-4.637 4.587-6.119 6.097a257 257 0 0 0-1.644 1.691m11.457 4.74-.072-.004c-1.151-.012-2.483-.25-3.966-.705-.83-.256-1.622-.568-2.386-.87-.44-.175-.88-.35-1.327-.512-1.182-.434-2.25-.83-3.291-1.307-.5-.228-1.033-.48-1.514-.78l-.53-.331.43-.459c.68-.724 1.486-1.547 2.11-2.184 1.485-1.513 4.78-4.777 6.128-6.11l.075-.074c.536-.477 1.036-1.014 1.52-1.535.246-.262.477-.512.698-.736.343-.35.7-.325.883-.278.752.193 1.26 1.47 1.557 2.505.06.213.272.812.543 1.57 1.26 3.516 2.608 7.41 2.652 9.092.013.537-.028 1.151-.43 1.666-.534.671-1.654 1.052-3.08 1.052" style="fill:#211d1d;fill-opacity:1;fill-rule:nonzero;stroke:none;stroke-width:.0312017"/><path d="M97.879 11.91c.165.15 1.423.758 1.987.992 4.837 2.013 9.024 4.555 13.86 6.562 1.832.764 2.87 1.366 4.468 1.107 1.373-.224 1.776-1.176 1.966-2.071.25-1.195.827-2.468 1.005-3.7-5.58-1.545-23.923-3.467-23.286-2.89" style="fill:#c89519;fill-opacity:1;fill-rule:nonzero;stroke:none;stroke-width:.0312017"/><path d="m99.954 12.381.112.047c2.428 1.01 4.724 2.168 6.946 3.288 2.215 1.117 4.505 2.275 6.91 3.273q.395.165.74.316c1.389.596 2.225.957 3.448.758 1.027-.169 1.36-.79 1.545-1.67.115-.552.296-1.113.47-1.66.166-.514.335-1.045.447-1.556-4.662-1.17-16.038-2.49-20.618-2.796m17.498 8.768c-1.111 0-2.019-.394-3.195-.899a77 77 0 0 0-.73-.312c-2.44-1.014-4.746-2.178-6.977-3.301-2.206-1.114-4.484-2.262-6.88-3.26-.356-.147-1.857-.834-2.137-1.087a.544.544 0 0 1-.119-.667c.178-.322.25-.453 3.47-.206 1.816.137 4.209.377 6.74.674 6.177.724 11.288 1.55 13.678 2.212l.437.122-.066.446c-.106.733-.34 1.466-.568 2.175-.174.546-.337 1.06-.443 1.56-.193.923-.652 2.187-2.384 2.474a5 5 0 0 1-.826.069" style="fill:#211d1d;fill-opacity:1;fill-rule:nonzero;stroke:none;stroke-width:.0312017"/><path d="M93.898 12.181c-.156-.387.165-.649.773-.402 3.476 1.413 19.37 9.21 20.07 9.529.698.318 1.344.758 1.581 1.22.34.658-.209 1.151-.783 1.541-2.505 1.7-5.507 2.77-9.385 3.407-1.414.231-3.205.334-4.768-.415-1.523-.727-2.084-1.894-2.477-2.905-.855-2.196-3.745-8.792-5.011-11.975" style="fill:#c89519;fill-opacity:1;fill-rule:nonzero;stroke:none;stroke-width:.0312017"/><path d="M94.481 12.256c.652 1.623 1.65 3.969 2.621 6.247.958 2.256 1.866 4.387 2.287 5.47.362.93.861 1.978 2.219 2.623 1.154.553 2.614.674 4.464.372 3.845-.627 6.762-1.685 9.18-3.323.79-.54.68-.752.615-.88-.16-.306-.671-.687-1.339-.99-.159-.071-.983-.473-2.35-1.135-4.486-2.181-14.995-7.282-17.697-8.384m9.76 15.904c-1.176 0-2.194-.213-3.077-.634-1.616-.774-2.268-1.984-2.733-3.182-.415-1.064-1.32-3.19-2.278-5.439-1.023-2.409-2.084-4.898-2.733-6.533-.143-.353-.084-.709.16-.949.137-.137.536-.424 1.288-.119 2.73 1.111 12.88 6.041 17.76 8.41 1.264.614 2.18 1.06 2.324 1.126.528.24 1.464.745 1.829 1.454.593 1.151-.568 1.94-.952 2.2-2.546 1.728-5.594 2.836-9.591 3.49q-1.067.175-1.997.176" style="fill:#211d1d;fill-opacity:1;fill-rule:nonzero;stroke:none;stroke-width:.0312017"/><path d="M102.088 21.71a1.15 1.15 0 0 1 1.16.315c.36.394.675.98.207 1.598-.824 1.086-28.35 8.867-28.481 7.913-.11-.793 25.264-9.302 27.114-9.826" style="fill:#e6f6f4;fill-opacity:1;fill-rule:nonzero;stroke:none;stroke-width:.0312017"/><path d="M102.263 22.331c-1.726.49-15.404 5.086-22.547 7.782 7.567-1.822 21.898-5.975 23.255-6.92.081-.122.165-.335-.2-.734a.51.51 0 0 0-.508-.128m-27.065 9.922q-.192 0-.302-.03a.73.73 0 0 1-.562-.597c-.093-.69-.14-1.036 13.248-5.713 6.568-2.296 13.41-4.565 14.331-4.824a1.78 1.78 0 0 1 1.813.5c.72.792.811 1.675.243 2.424-.642.849-9.182 3.357-14.215 4.777-3.81 1.076-12.5 3.463-14.556 3.463" style="fill:#211d1d;fill-opacity:1;fill-rule:nonzero;stroke:none;stroke-width:.0312017"/><path d="M77.963 21.061c-1.173 1.557-3.027 4.584-1.37 8.175 1.657 3.595 5.108 9.82 14.687 5.248 4.025-1.922 6.143-5.753 4.905-9.604-1.648-5.123-3.941-7.99-8.646-7.756-5.601.28-8.415 2.396-9.576 3.937" style="fill:#cf3456;fill-opacity:1;fill-rule:nonzero;stroke:none;stroke-width:.0312017"/><path d="M78.525 21.482c-1.976 2.625-2.397 5.064-1.292 7.46 1.114 2.416 2.63 5.021 5.429 6.032 2.25.814 5.045.434 8.315-1.126 3.813-1.82 5.638-5.336 4.537-8.752-1.744-5.43-3.972-7.467-7.941-7.27-5.903.296-8.296 2.655-9.048 3.656m6.627 15.314a8.7 8.7 0 0 1-2.968-.499c-3.304-1.192-5.064-4.243-6.23-6.768-1.323-2.867-.837-5.86 1.447-8.892.87-1.16 3.604-3.89 10.103-4.215 5.807-.287 7.988 4.003 9.352 8.243 1.322 4.116-.796 8.315-5.274 10.453-2.343 1.12-4.496 1.678-6.43 1.678" style="fill:#211d1d;fill-opacity:1;fill-rule:nonzero;stroke:none;stroke-width:.0312017"/><path d="M86.035 19.532s2.228 1.748.097 3.632c-1.816 1.604-3.105.197-3.105.197z" style="fill:#cf3456;fill-opacity:1;fill-rule:nonzero;stroke:none;stroke-width:.0312017"/><path d="M84.39 24.5a2.46 2.46 0 0 1-1.778-.759.566.566 0 0 1 .034-.795.565.565 0 0 1 .796.034c.153.162 1.005.92 2.315-.237.5-.44.746-.892.733-1.345-.025-.79-.795-1.416-.805-1.423a.564.564 0 0 1 .696-.886c.05.04 1.195.955 1.233 2.275.025.802-.35 1.55-1.111 2.221-.765.678-1.492.915-2.113.915" style="fill:#211d1d;fill-opacity:1;fill-rule:nonzero;stroke:none;stroke-width:.0312017"/><path d="M84.912 22.521a.7.7 0 0 1-.397-.124c-.396-.272-9.722-6.774-11.182-18.281a.707.707 0 0 1 .611-.787.703.703 0 0 1 .786.609c1.38 10.89 10.487 17.236 10.58 17.298a.7.7 0 0 1 .182.977.7.7 0 0 1-.58.308" style="fill:#211d1d;fill-opacity:1;fill-rule:nonzero;stroke:none;stroke-width:.0312017"/><path d="M80.428 28.478a1.14 1.14 0 0 1 1.157.315c.36.393.674.983.206 1.598-.82 1.085-28.346 8.867-28.477 7.912-.11-.792 25.26-9.3 27.114-9.825" style="fill:#e6f6f4;fill-opacity:1;fill-rule:nonzero;stroke:none;stroke-width:.0312017"/><path d="M80.603 29.099c-1.726.49-15.405 5.086-22.55 7.781 7.57-1.822 21.897-5.975 23.255-6.92.084-.122.168-.33-.197-.73a.5.5 0 0 0-.508-.131M53.535 39.02q-.192 0-.302-.028a.73.73 0 0 1-.559-.6c-.097-.689-.144-1.035 13.248-5.712 6.568-2.297 13.408-4.565 14.328-4.824a1.78 1.78 0 0 1 1.813.5c.724.792.811 1.675.243 2.424-.643.848-9.18 3.357-14.212 4.777-3.81 1.076-12.5 3.463-14.559 3.463" style="fill:#211d1d;fill-opacity:1;fill-rule:nonzero;stroke:none;stroke-width:.0312017"/></g></svg>