<svg xmlns="http://www.w3.org/2000/svg" width="200mm" height="200mm" viewBox="0 0 200 200"><g style="display:inline"><path d="M32776 8729.6c452.8 581.1 755.6 1018.4 1239.6 1515.2 0 0 815-1362 730.2-1743.9-10.6-47.7-44.6-86-95.9-116.5-359.5-213.3-1178-66.9-1569.8-43.3-106.1 6.4-329.9-6.2-413.5 96.7-70 86.3 103.2 283.8 109.4 291.8" style="fill:#eee779;fill-opacity:1;fill-rule:nonzero;stroke:none" transform="matrix(.0434 0 0 -.0434 -1363.595 502.581)"/><path d="M32803.6 8708.1c-.4-.6-1.5-1.9-3.1-3.9-92.6-110.7-135.5-208.9-106.7-244.4 60.3-74.2 222.3-78.6 329.5-81.6 21.4-.6 41.6-1.1 58.9-2.1 80-4.9 179.2-14.9 284.3-25.6 417.3-42.3 988.7-100.3 1265.5 64 45.5 27 71.6 57.8 79.6 94 73 328.7-571.1 1453.6-702.8 1678.9-355.5-368.9-615-709-914.2-1100.9-92.1-120.7-187.4-245.5-291-378.4m1235.4-472.8c-229.8 0-473.1 24.6-679.6 45.6-104.3 10.6-202.9 20.5-281.4 25.3-16.1 1-35.8 1.5-56.6 2.1-120 3.3-301.4 8.2-381.9 107.4-73.5 90.6 35.6 247.8 107.3 333.4l1.7 2.1c103.3 132.6 198.5 257.3 290.5 377.8 309.4 405.3 576.6 755.4 951.5 1140.2l31.8 32.6 23.3-39.1c33.6-56.1 821.2-1378.4 734.4-1769.4-12.3-55.3-50.1-102.1-112.3-139-153.2-90.9-383.2-119-628.7-119" style="fill:#211d1d;fill-opacity:1;fill-rule:nonzero;stroke:none" transform="matrix(.0434 0 0 -.0434 -1363.595 502.581)"/><path d="M34643.1 8616.1c-53.2 139.3-141.6 246.6-141.6 246.6s63.3 93.7 1.2 278.2c-53.1 157.6-189.7 213.1-189.7 213.1s12 218.7-36 318.7c-81 168.6-215.4 241.9-215.4 241.9s59.7 122.2-46 330.2l18.6 29.9s196.8-90.6 222-242.9c103-68.2 223.4-229.2 187.6-395.6 83.1-35.4 217.2-231.6 187.8-425.2 0 0 131.5-205.5 143.4-316.1s-22.3-292.9-22.3-292.9 94.8-151.9 27.9-246.6c-22.9-32.5-170.9-17.3-170.9-17.3s76.9 164 33.4 278" style="fill:#793919;fill-opacity:1;fill-rule:nonzero;stroke:none" transform="matrix(.0434 0 0 -.0434 -1363.595 502.581)"/><path d="M34659.2 8369.3c43.7-1.3 82.9 1.6 94.6 7.9 41.4 62.4-7.7 170-30.4 206.5l-7 11.4 2.4 13.2c.3 1.8 33.1 178.7 21.9 282.9-9 84.2-102.8 246-138.2 301.2l-7 10.9 2 12.9c27.7 182.1-104.1 361.4-167.2 388.3l-26.1 11.2 5.9 27.8c33.6 156.1-88.3 303.4-173 359.6l-12.5 8.3-2.4 14.8c-14.7 88.9-100.5 156.2-155.6 190.9 60.4-140.5 48.5-240.8 36.3-287.8 44.9-30.6 140.7-107.6 205.1-241.7 42.2-87.8 42-252 40.3-312.6 44.4-24.1 142.4-90.4 187.1-223.1 49.6-147.4 24.2-243.6 6.7-285.2 27.8-36.9 90.8-127.3 133.2-238.3 33.6-88 5.3-198.1-16.1-259.1m23.2-69.8c-25.6 0-51.9 1.8-76.2 4.3l-48.3 4.9 20.6 44c.7 1.5 70.1 152.3 32.4 251.1-50.4 132-135.1 236-136 237l-16.3 19.9 14.4 21.3c1.9 3 52.1 84.4-3 247.9-47 139.7-168.8 191.7-170 192.2l-22.6 9.3 1.2 24.4c3.2 58.5 3.5 226.6-32.7 302-74.8 155.6-199.6 225.8-200.9 226.5l-28.7 15.9 14.3 29.5c2 4.1 49.7 111.8-45.7 299.4l-8.8 17.4 44.9 72.3 27.7-12.7c8.4-3.9 201.7-94.6 238.5-253.8 97.4-70.3 217.9-224.3 194.8-397.6 98-63 207.1-252.2 185.4-435.9 28-45.1 130.8-216.7 141.9-320.2 10.5-98.4-12.8-246.1-20.5-290.3 22.6-40.9 87.9-176.5 20-272.8-19.6-27.7-71.2-36-126.4-36" style="fill:#211d1d;fill-opacity:1;fill-rule:nonzero;stroke:none" transform="matrix(.0434 0 0 -.0434 -1363.595 502.581)"/><path d="M34105 9658.7c36.3-42.5 37.9-86.8-16-152.9-213.7-149.1-152.6 350.4 16 152.9" style="fill:#c99c7b;fill-opacity:1;fill-rule:nonzero;stroke:none" transform="matrix(.0434 0 0 -.0434 -1363.595 502.581)"/><path d="M34029.7 9670.7c-4.3 0-8.5-1.3-12.2-4.3-31.7-25.3-42-112.2-17.3-145.2 13.6-18.1 42.1-5.2 65.1 10.2 45.9 57.8 33.3 81.8 13.5 104.9-14.4 16.9-33.2 34.4-49.1 34.4m-11.8-227.4c-40.9 0-64.5 25.3-72.9 36.6-46.5 62.1-30.5 192.4 29.4 240.3 17.2 13.8 79.4 51.6 156.8-39.1 66.7-78 23.1-149.8-15.5-197.1l-3.1-3.7-3.9-2.7c-36.6-25.6-66.7-34.3-90.8-34.3" style="fill:#211d1d;fill-opacity:1;fill-rule:nonzero;stroke:none" transform="matrix(.0434 0 0 -.0434 -1363.595 502.581)"/><path d="M34350.5 9101.9c30.7-35.6 117.7-112.2 13.9-171.8-174.4-100.1-166.2 348.3-13.9 171.8" style="fill:#c99c7b;fill-opacity:1;fill-rule:nonzero;stroke:none" transform="matrix(.0434 0 0 -.0434 -1363.595 502.581)"/><path d="M34286.1 9109c-3.1-1.3-13.3-15.4-16.1-47-4-45.7 10.5-94.2 32.3-108.1 4-2.5 16.2-10.4 44.9 6.1 13.4 7.7 29.8 19.7 31.9 33.3 3.5 22.2-26.1 54.6-43.8 73.9-4 4.4-7.7 8.5-10.9 12.2-25 28.9-37.4 29.6-38.3 29.6m29.8-228.2c-33.4 0-62.9 16.6-84.3 48.9-42.3 63.9-43.9 191.3 12.4 234 18 13.5 66.8 37 132.6-39.3 2.8-3.2 6-6.8 9.6-10.7 26-28.4 69.6-76.1 61-131-5.1-32.6-27.2-60.4-65.7-82.5-22.7-13-44.9-19.4-65.6-19.4" style="fill:#211d1d;fill-opacity:1;fill-rule:nonzero;stroke:none" transform="matrix(.0434 0 0 -.0434 -1363.595 502.581)"/><path d="M34464.8 8623.1c71.1-3.9 35.2-131.4-13.7-148.6-97.1-34.2-107.9 155.3 13.7 148.6" style="fill:#c99c7b;fill-opacity:1;fill-rule:nonzero;stroke:none" transform="matrix(.0434 0 0 -.0434 -1363.595 502.581)"/><path d="M34458.6 8588.8c-20.3 0-34.5-8.3-42.4-24.8-9.7-20.1-6.4-44.6 2.8-54.8 2.1-2.3 6.5-7.2 20.6-2.2 13.2 4.6 34.2 45.7 30.3 73-1.2 8.4-2.6 8.5-7 8.7-1.5.1-2.9.1-4.3.1m-30.1-152.9c-23.5 0-44.7 9.3-60.8 27.3-28.8 32.1-34.6 87.1-13.7 130.6 20.8 43.3 61.8 66.5 112.7 63.8 38.4-2.1 65.8-28.1 71.4-67.8 7.5-52.3-24.6-129.9-75.6-147.8-11.6-4.1-23-6.1-34-6.1" style="fill:#211d1d;fill-opacity:1;fill-rule:nonzero;stroke:none" transform="matrix(.0434 0 0 -.0434 -1363.595 502.581)"/><path d="M32918.4 8588.5s241.5 475.9 610.8 662.1c0 0 85.2-317.3-610.8-662.1M32854.1 8506.5s449 244.8 804.3 205.1c0 0-138.3-284.6-804.3-205.1" style="fill:#e0c13b;fill-opacity:1;fill-rule:nonzero;stroke:none" transform="matrix(.0434 0 0 -.0434 -1363.595 502.581)"/></g></svg>