<svg xmlns="http://www.w3.org/2000/svg" width="200mm" height="200mm" viewBox="0 0 200 200"><g style="display:inline"><path d="M16642.2 10394.9c325.7-319.5 2559.1-1117.6 3401.9-1719.4 115.1-82.2 291-207.7 442.3-230.5 54.6-8.2 106-2.9 150.1 22.3 156.3 89.5 214.5 870.8 197.1 1062.8-45.8 507.2-361.1 1000.2-727.7 1309.1-366.6 308.8-868.2 523.1-1316.3 650.2-516 146.5-1231.1 139.6-1671-191.3-367.1-276.2-515.7-722.6-516.3-835.9-.1-19.1 13.7-41.7 39.9-67.3" style="fill:#488555;fill-opacity:1;fill-rule:nonzero;stroke:none" transform="matrix(.0202 0 0 -.0202 -277.272 302.268)"/><path d="M18117 11540.7c-353.9 0-712.7-78.5-973.9-275-367.8-276.7-499.7-716.4-500.2-803.8 0 0 1-11.9 27.6-37.9l.1-.1c147.1-144.3 735.9-407 1359.4-685.1 743.3-331.6 1585.7-707.5 2037.7-1030.2 112.7-80.5 283.1-202.1 424.8-223.4 49.1-7.4 90.8-1.6 123.8 17.4 41.8 23.9 101.4 158.1 143.7 463.3 31.3 226.5 41.6 467.3 33.2 560.6-41.1 454.4-314.5 945.5-713.5 1281.7-425.3 358.2-997.7 556.1-1301.2 642.2-199 56.5-429.2 90.3-661.5 90.3m2415.2-3139.9c-16.7 0-33.9 1.4-51.8 4.1-161 24.2-340.8 152.6-459.9 237.6-445.3 318-1283.8 692.1-2023.6 1022.1-657.6 293.4-1225.4 546.7-1383.1 701.3-35.2 34.4-52.3 65.9-52.1 96.4.8 133.8 160.4 588.3 532.5 868.3 455 342.2 1184.9 345.9 1706.5 197.9 309.7-87.9 894.4-290.2 1331.3-658.2 414.8-349.4 699.1-861.6 742.1-1336.5 13.2-145.7-24.5-991.2-217.4-1101.7-36.3-20.8-78-31.3-124.5-31.3" style="fill:#211d1d;fill-opacity:1;fill-rule:nonzero;stroke:none" transform="matrix(.0202 0 0 -.0202 -277.272 302.268)"/><path d="M16541 10278.8c220.8-208.8 1325.9-629.2 2256.5-1050.1 408-184.5 785.8-363.1 1035.1-534.1 111.8-76.6 282.5-193.6 428.1-212.6 52.5-6.8 101.7-.8 143.7 24.3 148.5 88.8 192.3 839.4 172.6 1023.2-51.9 485.7-362.1 952.6-718.8 1241.9-356.7 289.2-841.4 485.1-1273.4 598.4-497.4 130.7-1183.6 110.3-1600.6-215.5-348-272-483.6-703-482.5-811.7.2-18.4 13.8-39.7 39.3-63.8" style="fill:#f9f6c3;fill-opacity:1;fill-rule:nonzero;stroke:none" transform="matrix(.0202 0 0 -.0202 -277.272 302.268)"/><path d="M17985.1 11413c-355.9 0-720.7-81.1-980.8-284.3-350.5-273.9-470.9-701.3-470.1-785.8 0-1.3 1-13.9 29.1-40.3l.1-.1c147.9-139.8 736.5-391.3 1359.6-657.5 294.1-125.6 598.1-255.5 887.9-386.6 365.5-165.3 777.4-356.7 1040.1-536.9 110-75.4 276-189.3 413.9-207.2 48.7-6.4 90.1.3 122.7 19.9 121.6 72.7 180.3 774.6 157 991.9-46.7 436.7-317.5 904.2-706.9 1220-414.6 336.2-968.1 515.4-1261.1 592.2-179 47.1-383.7 74.7-591.5 74.7m2314.3-2966.2c-13.8 0-28.2 1-42.9 2.9-153.4 20-327.2 139.2-442.3 218.1-258.3 177.2-667.2 367.1-1030.1 531.3-289.2 130.8-592.9 260.5-886.6 386-655.9 280.2-1222.4 522.2-1378.8 670-33 31.1-49.2 59.6-49.6 87.1-1.3 127.4 144.1 563.5 495.1 837.8 429.5 335.6 1127.6 353 1628.9 221.3 298.1-78.2 861.5-260.8 1285.6-604.6 402.2-326.3 682.2-810.5 730.6-1263.7 10.3-95.2 4.3-328.7-23.2-554.7-35-287.2-90.6-455.4-165-500-35-20.9-75.8-31.5-121.7-31.5" style="fill:#211d1d;fill-opacity:1;fill-rule:nonzero;stroke:none" transform="matrix(.0202 0 0 -.0202 -277.272 302.268)"/><path d="M20404.4 8506.3c148.5 88.8 192.3 839.4 172.6 1023.2-51.9 485.7-362.1 952.6-718.8 1241.9-356.7 289.2-841.4 485.1-1273.4 598.4-497.4 130.7-1183.6 110.3-1600.6-215.5-348-272-483.6-703-482.5-811.7.2-18.4 13.8-39.7 39.3-63.8l4.8-.5c65.4 276.3 214.6 528.6 418.1 706.8 237.2 207.8 540.1 311.2 841.5 332.4 301.5 21.1 603-35.7 894-121.4 369-108.7 730.2-266.7 1037.9-514.2 307.7-247.6 560-590.6 669.6-993s79.1-861.9-146-1205l-.2-1.9c52.5-6.8 101.7-.8 143.7 24.3" style="fill:#fff;fill-opacity:1;fill-rule:nonzero;stroke:none" transform="matrix(.0202 0 0 -.0202 -277.272 302.268)"/><path d="M17935.5 11354.3c231.9 0 481.2-41.2 773-127.2 427.4-125.9 770.6-296 1049.1-520 334.9-269.5 576.6-628.1 680.5-1009.7 115.2-423 69.5-861.3-121.4-1185q40.35 3.3 71.1 21.6c121.6 72.8 180.3 774.8 157 992.1-46.6 436.8-317.6 904.3-707 1220.2-414.6 336.2-968.1 515.4-1261.1 592.3-485.9 127.6-1160.6 112.2-1572.6-209.7-326.2-255-453.2-643-468.5-763.7 75 251.9 217.6 478.3 407 644.2 287.1 251.5 626.5 323.9 860.6 340.4 43.6 3 87.6 4.5 132.3 4.5m2363.9-2907.2c-13.8 0-28.1.9-42.9 2.9l-32 4.1 5.3 41.3 4.1 6.3c204.8 312.1 257.8 752.8 141.9 1178.7-100.4 368.6-334.3 715.3-658.7 976.3-271.8 218.7-607.7 385-1026.8 508.4-340.5 100.3-621 138.5-882.6 120.2-224.2-15.8-548.9-84.9-822.5-324.5-199.1-174.4-343.9-419.4-407.9-689.9l-6.5-27.6-44 4.5-7.9 7.5c-33 31-49.2 59.4-49.5 86.9-1.3 127.3 144 563.4 494.9 837.6 429.4 335.6 1127.5 353 1628.8 221.3 298-78.2 861.4-260.8 1285.4-604.6 402.3-326.2 682.2-810.4 730.6-1263.5 10.2-95.2 4.3-328.7-23.2-554.6-35.1-287.2-90.5-455.4-164.9-499.9-35-20.9-75.8-31.4-121.6-31.4" style="fill:#211d1d;fill-opacity:1;fill-rule:nonzero;stroke:none" transform="matrix(.0202 0 0 -.0202 -277.272 302.268)"/><path d="M17102.7 10094.3c-50 18.2-109.3 29.9-155 58.3-45.8 28.4-101.5 59.8-111.7 116.6-17.5 96.7 51.3 184.8 114.7 255.3 99.7 110.6 199.3 221.2 298.9 331.9 82.5 91.6 178.7 189.9 295.5 188.3 68-.9 132.3-37.4 182.5-87.5 50.3-50 88-113 123.6-176.5 182.4-326.1 318.9-683.5 402.9-1055.8 4.5-20.1 7.7-53.3 7.2-85.3-.6-36.5-35-60.6-65.2-45.4-182.1 92.5-753.1 375.8-1093.4 500.1" style="fill:#8da14c;fill-opacity:1;fill-rule:nonzero;stroke:none" transform="matrix(.0202 0 0 -.0202 -277.272 302.268)"/><path d="M17542.4 11004.1c-97 0-182.9-86.3-262.7-174.9-99.5-110.6-199.1-221.3-298.8-331.9-62.6-69.6-118.7-144.5-105-220.9 6.5-35.9 46.7-60.6 85.5-84.6l7.7-4.7c27.1-16.8 62.6-27.7 97-38.2 16.7-5.2 34-10.4 50.5-16.4 377.9-138.1 1025.3-465.2 1097.9-502.1.6-.3.8-.4 1.7.2 2 1.2 4.4 4.5 4.5 9.7.5 30.8-2.8 60.3-6.2 75.8-83.5 369.5-217.6 721.1-398.8 1044.7-32.8 58.7-68.8 119.9-116.7 167.7-48.3 48.1-103.1 75-154.5 75.6zm672.8-1455.1c-12.8 0-25.5 3-37.4 9-72.2 36.6-715.6 361.8-1089.1 498.2-14.4 5.2-29.9 10-46.3 15-39.4 12.1-80.1 24.5-116.1 46.9l-7.5 4.6c-49 30.2-109.9 67.8-122.8 139.3-20 111.1 51.7 208.7 124.6 289.6 99.6 110.7 199.2 221.3 298.8 331.9 92 102.2 192.7 201.9 322.8 201.9 1.1 0 2.3-.1 3.4-.1 72.6-.9 147.4-36.2 210.7-99.3 55.3-55.1 96.2-124.7 130.3-185.5 185-330.5 321.9-689.4 407.1-1066.6 5.5-24.8 8.7-62 8.2-94.9-.6-32.7-16.9-61.7-43.7-77.9-13.3-8-28.1-12.1-43-12.1" style="fill:#211d1d;fill-opacity:1;fill-rule:nonzero;stroke:none" transform="matrix(.0202 0 0 -.0202 -277.272 302.268)"/><path d="M19900.2 8746.6c41.5-33.8 87.2-70.7 139.1-67.5 41.9 2.5 79.7 32 104.8 69.3 25 37.3 39 81.8 51 126.2 19.3 71 29.3 143.1 39 215.8 10.9 81.7 31.5 160.4 35.1 243.5 3.6 83.5-6.1 169-39.7 243.7-33.7 74.7-93.1 137.2-166.4 158.8-47.4 14-97.6 10.6-146.4 4.1-233.1-30.7-442.4-144.5-669.3-201.3-91.8-23-254.9-68.9-345.8-96.9-51.2-15.8-198-78.7-101.1-114.5 338.6-124.9 770-312.5 1099.7-581.2" style="fill:#8da14c;fill-opacity:1;fill-rule:nonzero;stroke:none" transform="matrix(.0202 0 0 -.0202 -277.272 302.268)"/><path d="M19925.8 8778.1c36.7-29.9 74.5-60.8 111.1-58.5 25.4 1.6 52.9 20.8 73.5 51.4 20.4 30.4 32.9 67.7 45.5 114.2 19.2 70.8 29.2 145.1 38 210.6 4.1 30.9 9.5 61.4 14.8 90.9 9.1 50.9 17.7 99 19.9 148.9 3.8 87.7-8.4 163.6-36.2 225.4-30.9 68.6-83.5 119.6-140.8 136.5-41 12.1-86.5 8.5-129.6 2.7-133.5-17.5-257.5-62.7-388.7-110.6-89.1-32.5-181.3-66.1-276-89.8-89.2-22.3-249.9-67.4-343.8-96.3-31.9-9.9-68.8-27-90.1-40.9 474.9-175.8 835.6-367.1 1102.4-584.5m107.2-139.8c-64 0-116.2 42.4-158.4 76.8h-.1c-261.4 213-617.3 401-1088 574.6-49.8 18.3-59.5 47.6-58.9 68.9 1.8 67.9 124.5 110.9 162 122.5 95 29.3 257.6 74.8 347.9 97.5 90.6 22.7 180.8 55.6 268 87.3 129.6 47.3 263.6 96.1 405.9 114.8 51.9 6.9 107.6 11 163.2-5.3 80.8-23.8 150.7-89.8 191.9-181.1 33.1-73.5 47.6-161.7 43.3-262.2-2.5-55.3-12-108.4-21.1-159.7-5.2-28.6-10.5-58.2-14.3-87.3-9.2-68.1-19.5-145.3-40.1-221.1-12.7-46.9-28.3-96.2-56.5-138.2-35.1-52.3-84.7-84.1-136-87.2-2.9-.2-5.9-.3-8.8-.3" style="fill:#211d1d;fill-opacity:1;fill-rule:nonzero;stroke:none" transform="matrix(.0202 0 0 -.0202 -277.272 302.268)"/><path d="M17908.1 10872.9c-35.1 54-74.3 127.2-15.9 179.2 11.4 10.2 25.2 17 39.6 20.4 164.2 38.1 342.7-14.4 510.2-16.1 97.8-1.1 206.8-14.9 269.5-97 72.6-95.2 40.5-166.5 15.1-288.5-67.3-322-112.1-675.9-179.3-997.9-7.9-37.8-16.1-76.3-34.9-109.1-23.2-40.6-66.3-71.5-111-54.5-23.2 8.8-38.5 33.1-39.4 60.2-11.4 337.2-206.4 922.8-453.9 1303.3" style="fill:#8da14c;fill-opacity:1;fill-rule:nonzero;stroke:none" transform="matrix(.0202 0 0 -.0202 -277.272 302.268)"/><path d="M17942.1 10895c241.8-371.5 448.3-965.5 460.5-1324 .3-11 5.9-20.9 13.2-23.7 26.1-9.9 50.9 18.4 61.3 36.7 15.9 27.7 23.3 63 30.4 97.3 33.5 160.1 61.9 331.5 89.4 497.3 27.6 166.5 56.1 338.8 89.9 500.6 3.7 17.7 7.5 34.3 11.2 50.1 20.6 89.6 31.9 139-18.8 205.5-53.5 70-155.1 80.1-237.7 81-62 .6-125.5 8-187 15.1-110.5 12.8-214.9 24.9-313.5 2.1-8.1-1.9-15.7-5.8-21.8-11.2-22.6-20.2-27.4-49.5 22.9-126.8m484.9-1431c-13.4 0-26.9 2.4-40.1 7.4-38.3 14.6-64.1 52.6-65.5 96.9-11.7 346-212.4 921.3-447.3 1282.4-27 41.5-98.8 151.7-8.9 231.7 16.1 14.3 35.9 24.6 57.3 29.6 112.5 26.1 228.9 12.6 341.4-.4 62.1-7.2 120.7-14 178.5-14.6 101-1.2 226.6-15 301.3-112.9 73.9-96.9 55.1-178.5 33.4-273-3.5-15.3-7.2-31.4-10.8-48.5-33.5-160.2-61.9-331.6-89.3-497.3-27.6-166.6-56.2-338.8-90-500.6-8-38.6-17.2-82.3-39.4-121-29-50.8-74.4-79.7-120.6-79.7" style="fill:#211d1d;fill-opacity:1;fill-rule:nonzero;stroke:none" transform="matrix(.0202 0 0 -.0202 -277.272 302.268)"/><path d="M18667.8 9416.8c-35.5-14.3-71 19.8-63.1 60.3 45.2 231 233.7 869.7 243 1151.8 1.6 48.7 2.1 98.3 14.7 145.1 12.6 46.9 39.3 91.9 79.9 112 57.9 28.7 124.5.7 180.9-30 246.8-134.4 467.7-325.3 644.6-556.9 64.6-84.5 126.5-193.6 94.6-298.9-30.9-102.4-134.8-150.9-227.2-187-201.2-78.8-676.9-280.6-967.4-396.4" style="fill:#8da14c;fill-opacity:1;fill-rule:nonzero;stroke:none" transform="matrix(.0202 0 0 -.0202 -277.272 302.268)"/><path d="M18995.5 10857.4c-12.4 0-24.2-2.3-35.1-7.7-25.8-12.8-47.7-45-58.8-86.2-10.2-38.1-11.5-79.1-12.9-122.6l-.4-13.4c-6.5-197.9-96.8-557.4-169.3-846.2-32.5-129.1-60.5-240.6-74.4-312-1.4-6.8 1.2-11.7 3.9-14 2.1-1.7 3.1-1.3 4.2-.9v.1c145.2 57.8 334.3 136.2 517.1 212 179.9 74.6 349.7 145 450.6 184.5 84.8 33.2 177.4 75.7 203.1 160.9 21.5 71.1-7.2 156.9-87.9 262.6-172.7 226-391.2 414.8-631.8 545.8-35.1 19.2-73.9 37.1-108.3 37.1M18651 9372.8c-19.4 0-38.4 6.8-54.2 20-26.6 21.9-38.8 57.2-31.9 92.1 14.4 73.5 42.6 185.9 75.3 316.1 71.6 285.1 160.7 639.9 166.9 829.2l.5 13.2c1.4 46.2 2.9 94 15.6 141.2 17.3 64.2 54.1 114.5 101.1 137.8 74.9 37.2 156 3.1 218.3-30.7 250.6-136.5 477.9-332.9 657.5-568 97.7-127.8 130.8-237.5 101.2-335.3-34.6-114.4-141.2-170-251.3-213-100.1-39.2-269.6-109.5-449.1-183.9-183.1-75.9-372.4-154.4-518.1-212.5-10.4-4.1-21.1-6.2-31.8-6.2" style="fill:#211d1d;fill-opacity:1;fill-rule:nonzero;stroke:none" transform="matrix(.0202 0 0 -.0202 -277.272 302.268)"/></g></svg>