<svg xmlns="http://www.w3.org/2000/svg" width="200mm" height="200mm" viewBox="0 0 200 200"><g style="display:inline"><path d="M15396.4 23083.3c-52.8 16.1-66.3 84.9-23.1 119.4 345 275.2 1542.8 1107 2673.4 414.4 998.5-611.7 1167.8-1563.3 957.7-2303.9-140.6-495.3-677.5-860.2-677.5-860.2l-1020.8 2048.8z" style="fill:#84c645;fill-opacity:1;fill-rule:nonzero;stroke:none" transform="matrix(.02483 0 0 -.02483 -326.592 650.18)"/><path d="M17098.5 23847.2c-777.2 0-1459-481-1701.4-674.4-12.8-10.2-11.8-23.9-10.8-29.4 1.1-5.4 5.2-18.7 21.2-23.6l1925.4-586.3 1008-2023.1c120.6 90.6 512.4 410.3 626.7 813.3 95.5 336.6 310 1494.5-940.9 2260.8-310.2 190.1-626.5 262.7-928.2 262.7m1213.7-3450.4-1033 2073.2-1893.9 576.8c-38.2 11.6-66.5 43.1-74 82.3-7.5 39 7.2 78.7 38.2 103.4 346.2 276.3 1565.4 1122.8 2717.1 417.2 471-288.5 790-666.6 948.2-1123.7 169.6-489.8 107.9-935.5 26.3-1223.2-142.7-502.9-670.3-866.2-692.7-881.4z" style="fill:#211d1d;fill-opacity:1;fill-rule:nonzero;stroke:none" transform="matrix(.02483 0 0 -.02483 -326.592 650.18)"/><path d="M18580.1 21747.5c33.8-688.5-276-1292.5-276-1292.5s-22.4 24.5-61.7 67.4c-161.2 175.6-607.1 658.8-965.2 1023.4-146.5 149.9-278.8 279.5-370.1 359.7-102.8 90.3-269.2 215.5-458.5 351.4-390 279.9-878.4 604.1-1115 759.6-73.7 48.5-80.2 154.4-12.4 210.9 314.5 262.1 1168.7 823 2176.6 226.9 736.4-435.5 1052.6-1101.7 1082.3-1706.8" style="fill:#fefaec;fill-opacity:1;fill-rule:nonzero;stroke:none" transform="matrix(.02483 0 0 -.02483 -326.592 650.18)"/><path d="M16581 23680.4c-573.5 0-1023.5-305.8-1235.3-482.3-22.8-19-34.9-46.9-33.3-76.6 1.7-29.9 17.1-56.6 42.2-73.1 251.2-165.1 730.4-483.5 1116.3-760.4 212.7-152.8 368-271.8 461.4-353.8 86.1-75.6 214.7-200.6 372.2-361.7 355.1-361.6 793.9-836.8 966-1024.3 8.6-9.4 16.4-17.9 23.3-25.4 71.1 157.8 275.6 665.3 248.1 1222.8-33.6 685.2-421.2 1296-1063.5 1675.8-319 188.7-622.4 259-897.4 259m1731.9-3291.8-37 40.7c-.1 0-22.4 24.5-61.7 67.2-171.8 187.3-609.9 661.8-964.2 1022.6-156.2 159.7-283.5 283.4-368 357.7-91.6 80.4-244.9 197.9-455.6 349.1-384.9 276.1-863 593.9-1113.8 758.7-45.5 29.9-73.3 78.3-76.4 132.6-3.1 54.1 19 104.9 60.6 139.6 325.8 271.4 1194.3 837.3 2220.5 230.3 664.7-393.1 1066-1026.5 1100.9-1737.7 34-690.8-267.3-1286.8-280.1-1311.8z" style="fill:#211d1d;fill-opacity:1;fill-rule:nonzero;stroke:none" transform="matrix(.02483 0 0 -.02483 -326.592 650.18)"/><path d="M17277.2 21545.8c-146.5 149.9-278.8 279.5-370.1 359.7-102.8 90.3-269.2 215.5-458.5 351.4 7.1 26.2 20.1 53 41 79.7 109.4 138.7 319.1 241.6 675.8-22.1 284.7-210.8 290.2-660.1 111.8-768.7" style="fill:#fcd3af;fill-opacity:1;fill-rule:nonzero;stroke:none" transform="matrix(.02483 0 0 -.02483 -326.592 650.18)"/><path d="M16494.2 22271.2c200.8-144.7 348.1-258 438.1-337 81.7-71.8 201.9-188.2 348.7-337.6 45.2 42.5 73.8 119.6 78.1 213.4 6.3 140-46.6 348.1-216.5 473.8-266.9 197.4-482.4 207.5-623 29.2-10.5-13.5-19.1-27.5-25.4-41.8m776.9-773.8-21.2 21.7c-156.1 159.7-283.4 283.4-367.9 357.7-91.6 80.4-244.9 197.9-455.6 349.1l-21.5 15.4 6.9 25.6c8.8 32.7 24.9 64.1 47.8 93.3 97.4 123.6 321.5 285.9 728.5-15 194-143.6 254.4-379.9 247.2-538.7-6.1-136.7-56.5-243.6-138.2-293.3z" style="fill:#211d1d;fill-opacity:1;fill-rule:nonzero;stroke:none" transform="matrix(.02483 0 0 -.02483 -326.592 650.18)"/><path d="M17156.3 21871.4s-30.2 365.9-201.6 404.7c-171.5 38.8-191-67.5-154.2-118.7 36.7-51.1 355.8-286 355.8-286" style="fill:#793919;fill-opacity:1;fill-rule:nonzero;stroke:none" transform="matrix(.02483 0 0 -.02483 -326.592 650.18)"/><path d="M16887.5 22246.2c-29 0-49.9-7-59.1-20.8-9.2-14-5.3-34 3.1-45.7 18.9-26.3 154.2-132.7 274.2-223-21.3 111.8-69.5 261.8-159.5 282.2-21.9 4.9-41.7 7.3-58.7 7.3m313.7-455.3-67.5 49.7c-54.1 39.8-326 241.2-364.3 294.6-28.2 39.4-30.2 93.8-4.6 132.4 19.5 29.4 71.2 74.5 198.3 45.7 193.2-43.7 227.9-398.5 231.3-438.8z" style="fill:#211d1d;fill-opacity:1;fill-rule:nonzero;stroke:none" transform="matrix(.02483 0 0 -.02483 -326.592 650.18)"/></g></svg>