<svg xmlns="http://www.w3.org/2000/svg" width="200mm" height="200mm" viewBox="0 0 200 200"><g style="display:inline"><g style="display:inline"><path d="M14069.3 28554.3c-15-3.3.6-18.7 16.9-17.6 97.6 6.8 466.6-47.7 633.1-178.8-111.3-6.8-391.7-7.4-610.5 77.1-9.3 3.6-19.2-1.7-13.4-7.2 44.5-42.7 120.6-127.2 124.9-209.1 4.8-91.4-14-167.6-22.3-196.1-1.4-4.8-12-5.5-17.4-1.2-55.3 44-230 216.8-306.3 353.9-1.6 2.8-8.4 2.5-7.9-.4 10.6-65 13.5-228.3-197.3-310.7-4.1-1.6-10-.8-13.6 1.6-32.9 22.6-171 136.9-2.8 375.4 2.7 3.9-2.8 8.6-10.2 8.5-66.7-.8-322.3 5.4-560.4 138.7-5.7 3.3-4.3 8.6 2.6 9.7 53.8 8.6 250.6 31.2 550.2-35.6 10.5-2.3 17.3 5 8.8 9.5-74.4 39.7-228 129.7-297.1 228.2-3.7 5.4 6.1 9.5 14.2 6 66.6-28.6 252.4-109.9 392-182.9 16.1-8.5 38 0 29.5 11.4-54.8 72.7-139.9 212.8-106.6 347 1.2 4.8 11.7 5.9 17.4 1.8 59.1-42.3 283.6-211.4 276.1-337.3-.6-9.6 20.8-15.5 31-8.6 81.6 54.5 273.3 166.2 486.4 176.9 9.1.5 15.9-6 10.3-9.9-63.8-43-206-203-427.6-250.3" style="fill:#9b5f20;fill-opacity:1;fill-rule:nonzero;stroke:none" transform="matrix(-.0325 .0137 .0137 .0325 160.157 -1032.46)"/><path d="M14069.3 28554.3h.1zm5.8-26.8h-.1zm-205.1-122.9c11.5 0 22.6-5.9 28.2-16 67.2-120.7 214-270.9 280.8-330 8.2 36 17.4 93.3 14 158.6-4 75.1-82.8 158.5-116.5 190.8-11.2 10.7-13.4 27-5.4 39.6 9.3 14.5 29.3 20 47.6 12.9 176.9-68.3 389.5-78.6 511.1-78-179.5 94.3-463.1 132.3-541.7 126.9-22.5-1.5-48.7 12.3-51.9 35.4-2.1 14.6 6.6 31.8 27.4 36.2 164.5 35.2 286.3 137.4 359.9 199.8-183.2-27-343.3-122.7-408.1-166-17.5-11.7-40.3-8.4-54.1-.5-13 7.5-20.3 20-19.5 33.6 5 83.2-124.4 209.5-244.6 298.8-13.3-115 59.7-232.8 106.9-295.5 10.2-13.6 9.9-31.1-.8-43.6-13.7-16.2-41.5-20-63.2-8.6-97.5 51-217 105.8-303.8 144.3 74.9-65.9 172.8-121.8 220.3-147.1 15.2-8.2 22-24.5 16.4-39.6-6.1-16.4-24.6-25.1-44-20.8-215.3 48-376.3 49.1-467.8 43.1 209.7-96.9 417.4-102.6 480.9-101.8 15-.1 28.8-7.3 35-19.2 5.5-10.4 4.7-22.9-2.1-32.5-60.8-86.3-85.7-163.2-73.9-228.6 10.3-57.1 47.1-91.2 64.5-104.5 178.5 72.8 185.7 205.2 173.8 278.2-2.3 14 6 27.6 19.6 32.3 3.6 1.2 7.3 1.8 11 1.8m319.6-413.4c-9.4 0-18.9 3.1-26.1 8.8-47.8 38-179.8 166.6-267.9 291-9.4-83.1-56.1-189.6-216.6-252.3-12.5-4.9-27.8-3.1-39 4.5-22.9 15.7-77.9 61.2-92.8 143.9-12.7 71 7.5 150 60.4 235.5-101.8 2.6-326.5 23-538.8 142-12.8 7.2-19.6 20.5-17.1 34 2.4 13.7 13.7 24.2 28.7 26.6 47 7.5 203.3 25.7 440.3-12.8-72.6 46.8-151 107.2-196.5 172.1-8.1 11.5-7.6 26.6 1.2 37.4 10.2 12.6 29.7 16.6 46.3 9.5 65.4-28.2 222-96.8 354.3-163.6-52 81.6-106.2 202.2-76.8 320.5 2.5 10.4 10.1 18.6 20.8 22.6 12.8 4.7 28.1 2.7 39-5.1 84.1-60.2 272.8-208.6 286.9-338.3 97.8 63.8 282.4 163.9 489.3 174.4 18.1.8 34.4-9.1 39.5-24.2 4.4-13.3-.6-27.7-12.5-35.8-12.7-8.5-30.4-23.5-50.8-40.8-61-51.8-154.6-131.1-279.9-181.1 154.1-15.7 416.4-71.7 554.7-180.6l56.5-44.5-71.7-4.4c-54.5-3.3-315.6-14.6-548.9 54.2 37.3-46.5 72.4-105.4 75.6-164.6 5-95.4-14.7-175.2-23.5-205.1-3-10.5-11.1-18.4-22-21.9-4.1-1.3-8.3-1.9-12.6-1.9" style="fill:#211d1d;fill-opacity:1;fill-rule:nonzero;stroke:none" transform="matrix(-.0325 .0137 .0137 .0325 160.157 -1032.46)"/><path d="M13754.7 28455.8c49.7-37.2 136.5-47.4 193.9-22.9 57.4 24.6 63.7 74.7 14.1 111.9-49.7 37.2-136.5 47.4-193.9 22.9-57.4-24.6-63.7-74.7-14.1-111.9" style="fill:#71331d;fill-opacity:1;fill-rule:nonzero;stroke:none" transform="matrix(-.0325 .0137 .0137 .0325 160.157 -1032.46)"/><path d="M13771.2 28477.7c41.9-31.3 118.2-40.3 166.7-19.6 18.2 7.8 29.4 18.6 30.7 29.5 1.3 10.8-6.8 23.6-22.4 35.3-41.8 31.3-118.2 40.3-166.7 19.6-18.2-7.8-29.4-18.6-30.7-29.5-1.3-10.8 6.8-23.6 22.4-35.3m105.3-85.5c-50 0-101.9 14.6-138.2 41.7-32 24-47.6 54.5-43.9 85.6 3.7 30.9 26.9 57.6 63.6 73.3 66.5 28.5 163.5 17 221.1-26.1 32-24 47.6-54.4 43.9-85.6-3.7-30.9-26.9-57.6-63.6-73.3-24.6-10.5-53.4-15.6-82.9-15.6" style="fill:#211d1d;fill-opacity:1;fill-rule:nonzero;stroke:none" transform="matrix(-.0325 .0137 .0137 .0325 160.157 -1032.46)"/></g><g style="display:inline"><path d="M14069.3 28554.3c-15-3.3.6-18.7 16.9-17.6 97.6 6.8 466.6-47.7 633.1-178.8-111.3-6.8-391.7-7.4-610.5 77.1-9.3 3.6-19.2-1.7-13.4-7.2 44.5-42.7 120.6-127.2 124.9-209.1 4.8-91.4-14-167.6-22.3-196.1-1.4-4.8-12-5.5-17.4-1.2-55.3 44-230 216.8-306.3 353.9-1.6 2.8-8.4 2.5-7.9-.4 10.6-65 13.5-228.3-197.3-310.7-4.1-1.6-10-.8-13.6 1.6-32.9 22.6-171 136.9-2.8 375.4 2.7 3.9-2.8 8.6-10.2 8.5-66.7-.8-322.3 5.4-560.4 138.7-5.7 3.3-4.3 8.6 2.6 9.7 53.8 8.6 250.6 31.2 550.2-35.6 10.5-2.3 17.3 5 8.8 9.5-74.4 39.7-228 129.7-297.1 228.2-3.7 5.4 6.1 9.5 14.2 6 66.6-28.6 252.4-109.9 392-182.9 16.1-8.5 38 0 29.5 11.4-54.8 72.7-139.9 212.8-106.6 347 1.2 4.8 11.7 5.9 17.4 1.8 59.1-42.3 283.6-211.4 276.1-337.3-.6-9.6 20.8-15.5 31-8.6 81.6 54.5 273.3 166.2 486.4 176.9 9.1.5 15.9-6 10.3-9.9-63.8-43-206-203-427.6-250.3" style="fill:#9b5f20;fill-opacity:1;fill-rule:nonzero;stroke:none" transform="matrix(.03528 0 0 -.03528 -429.933 1121.419)"/><path d="M14069.3 28554.3h.1zm5.8-26.8h-.1zm-205.1-122.9c11.5 0 22.6-5.9 28.2-16 67.2-120.7 214-270.9 280.8-330 8.2 36 17.4 93.3 14 158.6-4 75.1-82.8 158.5-116.5 190.8-11.2 10.7-13.4 27-5.4 39.6 9.3 14.5 29.3 20 47.6 12.9 176.9-68.3 389.5-78.6 511.1-78-179.5 94.3-463.1 132.3-541.7 126.9-22.5-1.5-48.7 12.3-51.9 35.4-2.1 14.6 6.6 31.8 27.4 36.2 164.5 35.2 286.3 137.4 359.9 199.8-183.2-27-343.3-122.7-408.1-166-17.5-11.7-40.3-8.4-54.1-.5-13 7.5-20.3 20-19.5 33.6 5 83.2-124.4 209.5-244.6 298.8-13.3-115 59.7-232.8 106.9-295.5 10.2-13.6 9.9-31.1-.8-43.6-13.7-16.2-41.5-20-63.2-8.6-97.5 51-217 105.8-303.8 144.3 74.9-65.9 172.8-121.8 220.3-147.1 15.2-8.2 22-24.5 16.4-39.6-6.1-16.4-24.6-25.1-44-20.8-215.3 48-376.3 49.1-467.8 43.1 209.7-96.9 417.4-102.6 480.9-101.8 15-.1 28.8-7.3 35-19.2 5.5-10.4 4.7-22.9-2.1-32.5-60.8-86.3-85.7-163.2-73.9-228.6 10.3-57.1 47.1-91.2 64.5-104.5 178.5 72.8 185.7 205.2 173.8 278.2-2.3 14 6 27.6 19.6 32.3 3.6 1.2 7.3 1.8 11 1.8m319.6-413.4c-9.4 0-18.9 3.1-26.1 8.8-47.8 38-179.8 166.6-267.9 291-9.4-83.1-56.1-189.6-216.6-252.3-12.5-4.9-27.8-3.1-39 4.5-22.9 15.7-77.9 61.2-92.8 143.9-12.7 71 7.5 150 60.4 235.5-101.8 2.6-326.5 23-538.8 142-12.8 7.2-19.6 20.5-17.1 34 2.4 13.7 13.7 24.2 28.7 26.6 47 7.5 203.3 25.7 440.3-12.8-72.6 46.8-151 107.2-196.5 172.1-8.1 11.5-7.6 26.6 1.2 37.4 10.2 12.6 29.7 16.6 46.3 9.5 65.4-28.2 222-96.8 354.3-163.6-52 81.6-106.2 202.2-76.8 320.5 2.5 10.4 10.1 18.6 20.8 22.6 12.8 4.7 28.1 2.7 39-5.1 84.1-60.2 272.8-208.6 286.9-338.3 97.8 63.8 282.4 163.9 489.3 174.4 18.1.8 34.4-9.1 39.5-24.2 4.4-13.3-.6-27.7-12.5-35.8-12.7-8.5-30.4-23.5-50.8-40.8-61-51.8-154.6-131.1-279.9-181.1 154.1-15.7 416.4-71.7 554.7-180.6l56.5-44.5-71.7-4.4c-54.5-3.3-315.6-14.6-548.9 54.2 37.3-46.5 72.4-105.4 75.6-164.6 5-95.4-14.7-175.2-23.5-205.1-3-10.5-11.1-18.4-22-21.9-4.1-1.3-8.3-1.9-12.6-1.9" style="fill:#211d1d;fill-opacity:1;fill-rule:nonzero;stroke:none" transform="matrix(.03528 0 0 -.03528 -429.933 1121.419)"/><path d="M13754.7 28455.8c49.7-37.2 136.5-47.4 193.9-22.9 57.4 24.6 63.7 74.7 14.1 111.9-49.7 37.2-136.5 47.4-193.9 22.9-57.4-24.6-63.7-74.7-14.1-111.9" style="fill:#71331d;fill-opacity:1;fill-rule:nonzero;stroke:none" transform="matrix(.03528 0 0 -.03528 -429.933 1121.419)"/><path d="M13771.2 28477.7c41.9-31.3 118.2-40.3 166.7-19.6 18.2 7.8 29.4 18.6 30.7 29.5 1.3 10.8-6.8 23.6-22.4 35.3-41.8 31.3-118.2 40.3-166.7 19.6-18.2-7.8-29.4-18.6-30.7-29.5-1.3-10.8 6.8-23.6 22.4-35.3m105.3-85.5c-50 0-101.9 14.6-138.2 41.7-32 24-47.6 54.5-43.9 85.6 3.7 30.9 26.9 57.6 63.6 73.3 66.5 28.5 163.5 17 221.1-26.1 32-24 47.6-54.4 43.9-85.6-3.7-30.9-26.9-57.6-63.6-73.3-24.6-10.5-53.4-15.6-82.9-15.6" style="fill:#211d1d;fill-opacity:1;fill-rule:nonzero;stroke:none" transform="matrix(.03528 0 0 -.03528 -429.933 1121.419)"/></g><g style="display:inline"><path d="M14069.3 28554.3c-15-3.3.6-18.7 16.9-17.6 97.6 6.8 466.6-47.7 633.1-178.8-111.3-6.8-391.7-7.4-610.5 77.1-9.3 3.6-19.2-1.7-13.4-7.2 44.5-42.7 120.6-127.2 124.9-209.1 4.8-91.4-14-167.6-22.3-196.1-1.4-4.8-12-5.5-17.4-1.2-55.3 44-230 216.8-306.3 353.9-1.6 2.8-8.4 2.5-7.9-.4 10.6-65 13.5-228.3-197.3-310.7-4.1-1.6-10-.8-13.6 1.6-32.9 22.6-171 136.9-2.8 375.4 2.7 3.9-2.8 8.6-10.2 8.5-66.7-.8-322.3 5.4-560.4 138.7-5.7 3.3-4.3 8.6 2.6 9.7 53.8 8.6 250.6 31.2 550.2-35.6 10.5-2.3 17.3 5 8.8 9.5-74.4 39.7-228 129.7-297.1 228.2-3.7 5.4 6.1 9.5 14.2 6 66.6-28.6 252.4-109.9 392-182.9 16.1-8.5 38 0 29.5 11.4-54.8 72.7-139.9 212.8-106.6 347 1.2 4.8 11.7 5.9 17.4 1.8 59.1-42.3 283.6-211.4 276.1-337.3-.6-9.6 20.8-15.5 31-8.6 81.6 54.5 273.3 166.2 486.4 176.9 9.1.5 15.9-6 10.3-9.9-63.8-43-206-203-427.6-250.3" style="fill:#9b5f20;fill-opacity:1;fill-rule:nonzero;stroke:none" transform="matrix(.0325 -.0137 -.0137 -.0325 77.065 1229.19)"/><path d="M14069.3 28554.3h.1zm5.8-26.8h-.1zm-205.1-122.9c11.5 0 22.6-5.9 28.2-16 67.2-120.7 214-270.9 280.8-330 8.2 36 17.4 93.3 14 158.6-4 75.1-82.8 158.5-116.5 190.8-11.2 10.7-13.4 27-5.4 39.6 9.3 14.5 29.3 20 47.6 12.9 176.9-68.3 389.5-78.6 511.1-78-179.5 94.3-463.1 132.3-541.7 126.9-22.5-1.5-48.7 12.3-51.9 35.4-2.1 14.6 6.6 31.8 27.4 36.2 164.5 35.2 286.3 137.4 359.9 199.8-183.2-27-343.3-122.7-408.1-166-17.5-11.7-40.3-8.4-54.1-.5-13 7.5-20.3 20-19.5 33.6 5 83.2-124.4 209.5-244.6 298.8-13.3-115 59.7-232.8 106.9-295.5 10.2-13.6 9.9-31.1-.8-43.6-13.7-16.2-41.5-20-63.2-8.6-97.5 51-217 105.8-303.8 144.3 74.9-65.9 172.8-121.8 220.3-147.1 15.2-8.2 22-24.5 16.4-39.6-6.1-16.4-24.6-25.1-44-20.8-215.3 48-376.3 49.1-467.8 43.1 209.7-96.9 417.4-102.6 480.9-101.8 15-.1 28.8-7.3 35-19.2 5.5-10.4 4.7-22.9-2.1-32.5-60.8-86.3-85.7-163.2-73.9-228.6 10.3-57.1 47.1-91.2 64.5-104.5 178.5 72.8 185.7 205.2 173.8 278.2-2.3 14 6 27.6 19.6 32.3 3.6 1.2 7.3 1.8 11 1.8m319.6-413.4c-9.4 0-18.9 3.1-26.1 8.8-47.8 38-179.8 166.6-267.9 291-9.4-83.1-56.1-189.6-216.6-252.3-12.5-4.9-27.8-3.1-39 4.5-22.9 15.7-77.9 61.2-92.8 143.9-12.7 71 7.5 150 60.4 235.5-101.8 2.6-326.5 23-538.8 142-12.8 7.2-19.6 20.5-17.1 34 2.4 13.7 13.7 24.2 28.7 26.6 47 7.5 203.3 25.7 440.3-12.8-72.6 46.8-151 107.2-196.5 172.1-8.1 11.5-7.6 26.6 1.2 37.4 10.2 12.6 29.7 16.6 46.3 9.5 65.4-28.2 222-96.8 354.3-163.6-52 81.6-106.2 202.2-76.8 320.5 2.5 10.4 10.1 18.6 20.8 22.6 12.8 4.7 28.1 2.7 39-5.1 84.1-60.2 272.8-208.6 286.9-338.3 97.8 63.8 282.4 163.9 489.3 174.4 18.1.8 34.4-9.1 39.5-24.2 4.4-13.3-.6-27.7-12.5-35.8-12.7-8.5-30.4-23.5-50.8-40.8-61-51.8-154.6-131.1-279.9-181.1 154.1-15.7 416.4-71.7 554.7-180.6l56.5-44.5-71.7-4.4c-54.5-3.3-315.6-14.6-548.9 54.2 37.3-46.5 72.4-105.4 75.6-164.6 5-95.4-14.7-175.2-23.5-205.1-3-10.5-11.1-18.4-22-21.9-4.1-1.3-8.3-1.9-12.6-1.9" style="fill:#211d1d;fill-opacity:1;fill-rule:nonzero;stroke:none" transform="matrix(.0325 -.0137 -.0137 -.0325 77.065 1229.19)"/><path d="M13754.7 28455.8c49.7-37.2 136.5-47.4 193.9-22.9 57.4 24.6 63.7 74.7 14.1 111.9-49.7 37.2-136.5 47.4-193.9 22.9-57.4-24.6-63.7-74.7-14.1-111.9" style="fill:#71331d;fill-opacity:1;fill-rule:nonzero;stroke:none" transform="matrix(.0325 -.0137 -.0137 -.0325 77.065 1229.19)"/><path d="M13771.2 28477.7c41.9-31.3 118.2-40.3 166.7-19.6 18.2 7.8 29.4 18.6 30.7 29.5 1.3 10.8-6.8 23.6-22.4 35.3-41.8 31.3-118.2 40.3-166.7 19.6-18.2-7.8-29.4-18.6-30.7-29.5-1.3-10.8 6.8-23.6 22.4-35.3m105.3-85.5c-50 0-101.9 14.6-138.2 41.7-32 24-47.6 54.5-43.9 85.6 3.7 30.9 26.9 57.6 63.6 73.3 66.5 28.5 163.5 17 221.1-26.1 32-24 47.6-54.4 43.9-85.6-3.7-30.9-26.9-57.6-63.6-73.3-24.6-10.5-53.4-15.6-82.9-15.6" style="fill:#211d1d;fill-opacity:1;fill-rule:nonzero;stroke:none" transform="matrix(.0325 -.0137 -.0137 -.0325 77.065 1229.19)"/></g></g></svg>