<svg xmlns="http://www.w3.org/2000/svg" width="200mm" height="200mm" viewBox="0 0 200 200"><g style="display:inline"><path d="M42433.5 17814.2c1.9-158.5 295.3-336.1 549.8-315.7 254.6 20.4 295.3 162.9 203.7 285.1-91.7 122.2-757.3 347.5-753.5 30.6" style="fill:#71331d;fill-opacity:1;fill-rule:nonzero;stroke:none" transform="matrix(.03528 0 0 -.03528 -1431.863 721.154)"/><path d="M42647.6 17938.5c-36.9 0-70.5-4.2-98.7-13.8-53.8-18.3-78.5-53.3-77.8-110.1.5-40.1 27.6-86.6 76.3-131 108.1-98.7 286.2-159.3 432.9-147.6 109.7 8.8 182.8 41.9 205.9 93.2 16.9 37.3 6.5 84.2-29.3 131.8-50.9 67.9-321.5 177.5-509.3 177.5m295.1-479.2c-158 0-332.3 65-446 168.7-65.2 59.5-100.1 123.7-100.8 185.7-1.1 88.9 44.6 153.6 128.8 182.2 209 71.1 616.6-88.7 692.4-189.7 52.2-69.6 65.9-145.4 37.7-208-24.7-54.7-91.4-123-268.5-137.2-14.3-1.1-28.9-1.7-43.6-1.7" style="fill:#211d1d;fill-opacity:1;fill-rule:nonzero;stroke:none" transform="matrix(.03528 0 0 -.03528 -1431.863 721.154)"/><path d="M42614.9 17819.9s164.1 41.8 231-47.7c95.4-128 360.8-116.5 360.8-116.5z" style="fill:#71331d;fill-opacity:1;fill-rule:nonzero;stroke:none" transform="matrix(.03528 0 0 -.03528 -1431.863 721.154)"/><path d="M43188.8 17617.8c-66.4 0-281.9 9.7-373.1 131.9-42.2 56.5-152.6 43.5-191.6 33.7-20.1-5-40.6 7.2-45.7 27.3s7.1 40.5 27.2 45.6c7.7 2 189.4 46.9 270.4-61.6 68.4-91.6 260.7-104.2 329.1-101.4 20.5 1 38.3-15.3 39.2-36s-15.2-38.3-36-39.2c-1.6-.1-8.5-.3-19.5-.3" style="fill:#211d1d;fill-opacity:1;fill-rule:nonzero;stroke:none" transform="matrix(.03528 0 0 -.03528 -1431.863 721.154)"/><path d="M44381.1 18102.7c-91.6 129.4-411.9 123.9-590.7-24.4-178.7-148.3-128.2-286.6 9.8-339.8s763.9 105.5 580.9 364.2" style="fill:#71331d;fill-opacity:1;fill-rule:nonzero;stroke:none" transform="matrix(.03528 0 0 -.03528 -1431.863 721.154)"/><path d="M44136 18159.2c-117.1 0-240.7-40.5-322.7-108.5-73.6-61.1-109.3-123.9-100.7-177 7-42.7 43.7-79.8 100.5-101.7 88.3-34.1 436 38 539.1 170.5 35.1 45.1 35 89.5-.4 139.5-26.6 37.6-81.2 63.6-153.7 73.2-20.3 2.7-41.1 4-62.1 4m-260.9-466.1c-36.5 0-67 3.9-87.8 12-81.2 31.3-134.2 88.5-145.4 157-9.2 56 5.1 143.8 125.7 243.8 112.7 93.6 285.5 140.9 439.9 120.4 92.5-12.2 164.6-48.8 202.8-102.9 53.3-75.3 52.8-155.2-1.5-224.9-102.7-131.9-375.5-205.4-533.7-205.4" style="fill:#211d1d;fill-opacity:1;fill-rule:nonzero;stroke:none" transform="matrix(.03528 0 0 -.03528 -1431.863 721.154)"/><path d="M44248.7 18004.3s-79.8-31.5-183.5-.5c-136.3 40.7-305.5-141.3-351.3-206.2z" style="fill:#71331d;fill-opacity:1;fill-rule:nonzero;stroke:none" transform="matrix(.03528 0 0 -.03528 -1431.863 721.154)"/><path d="M43713.9 17761.7c-7.2 0-14.4 2.2-20.7 6.6-16.1 11.4-20 33.8-8.6 50 50.9 72.1 232.1 267.3 390.9 219.9 89.5-26.8 159.5-.7 160.2-.5 18.4 7.1 39.2-2 46.3-20.5 7.2-18.3-1.8-39-20.1-46.3-3.8-1.4-92.6-35.6-207-1.5-110.7 33.2-267.2-129.5-311.7-192.5-7-9.9-18.1-15.2-29.3-15.2" style="fill:#211d1d;fill-opacity:1;fill-rule:nonzero;stroke:none" transform="matrix(.03528 0 0 -.03528 -1431.863 721.154)"/><path d="M43201 17184.2c58.3-147.4 370.9-217.8 579.6-116 208.8 101.8 192.4 248.1 70.9 332.4s-767.1 78.3-650.5-216.4" style="fill:#9b5f20;fill-opacity:1;fill-rule:nonzero;stroke:none" transform="matrix(.03528 0 0 -.03528 -1431.863 721.154)"/><path d="M43597.8 17411.8c-122.8 0-259.6-22.3-330.9-78.8-44.8-35.5-55.1-78.6-32.5-135.7 16.9-42.8 63.8-80.9 132-107.4 125.5-48.7 285.7-44.5 398.5 10.5 86 41.9 135.6 94.6 139.7 148.2 3.3 43.1-23.5 87.8-73.5 122.6-35.7 24.7-129.4 40.6-233.3 40.6m-42.1-427.8c-73.6 0-148.1 12.9-215.3 39-87 33.8-148.4 86.3-172.7 148-34 85.8-14.6 163.3 54.6 218.2 161.3 127.8 552 108.7 649.6 40.9 71.6-49.6 109.6-117.8 104.3-187-4.4-56.6-39.1-138.5-179.9-207.2-70.7-34.5-155.1-51.9-240.6-51.9" style="fill:#211d1d;fill-opacity:1;fill-rule:nonzero;stroke:none" transform="matrix(.03528 0 0 -.03528 -1431.863 721.154)"/><path d="M43367.7 17229s75.7 50.6 184 52.7c158.5 3 316-81.9 375.9-29.6z" style="fill:#71331d;fill-opacity:1;fill-rule:nonzero;stroke:none" transform="matrix(.03528 0 0 -.03528 -1431.863 721.154)"/><path d="M43367.8 17193.2c-11.6 0-23 5.6-29.9 16-10.9 16.4-6.5 38.6 9.9 49.6 3.4 2.3 85.8 56.5 203.2 58.8 73 1.4 143.5-14.3 205.8-28.1 62.4-13.9 126.9-28.1 147.2-10.4 15 13 37.6 11.4 50.6-3.5s11.5-37.6-3.4-50.6c-47.7-41.5-122.8-24.9-209.9-5.6-58.4 13-124.7 27.8-189 26.4-95.5-1.8-164-46.2-164.7-46.7-6.1-4-13-5.9-19.8-5.9" style="fill:#211d1d;fill-opacity:1;fill-rule:nonzero;stroke:none" transform="matrix(.03528 0 0 -.03528 -1431.863 721.154)"/></g></svg>