<svg xmlns="http://www.w3.org/2000/svg" width="826.7" height="92.282" viewBox="0 0 218.731 24.416"><g style="display:inline"><path d="M39516.5 5899.2c773.1 54.3 1639.7 592.9 1627.4 1363.4-12.2 770.6-725.1 1401.1-1671.9 1427-622 17-1161.3-296.2-1447.9-714.3-250.2-364.8-666.4-580.6-1108.7-587.6l-14261.1-227.1c-72.4-1.1-133.7-57.7-136-130-2.4-77.2 60.1-139.9 136.4-138.7l14235.1 226.6c461.1 7.4 893.8-209.6 1174.6-575.4 303.5-395.3 843.5-686.7 1452.1-643.9" style="fill:#eaf6f5;fill-opacity:1;fill-rule:nonzero;stroke:none" transform="matrix(.0117 .00013 .00017 -.00855 -264.398 69.525)"/><path d="m39514.3 5929.7 2.2-30.5zc390.8 27.4 788.8 175.8 1091.9 406.9 332.6 253.6 512.7 582.3 507.2 925.5-12.3 771.1-718.3 1371.7-1642.2 1396.9-569.7 15.5-1114.8-253-1421.9-701-253-368.9-676.8-593.6-1133.4-600.9l-14261.2-227c-56.7-.9-104.2-46-105.9-100.5-.9-28.7 9.7-55.8 29.8-76.2 20.1-20.5 47.3-31.5 75.6-31l14235.1 226.7c463.4 7.2 911.4-212.2 1199.3-587.4 329-428.5 875.2-670.7 1425.7-632m-114.7-65.1c-529.4 0-1041.9 246.2-1359.4 659.9-276.3 359.9-706 570.7-1149.9 563.5l-14235.1-226.7c-45.6-.4-88.1 16.8-120.1 49.2-31.9 32.4-48.7 75.4-47.3 121 2.7 88.1 75.6 158.2 166 159.7l14261.1 227c436.9 7 842.1 221.7 1084 574.4 318.7 464.9 883.3 743.3 1474 727.5 461.9-12.6 890-169.5 1205.5-441.6 313.8-270.8 490-631.4 496.1-1015.4 5.8-363.1-182.9-709.4-531.2-975.1-312.4-238.2-722.3-391-1124.7-419.3-39.7-2.8-79.4-4.1-119-4.1" style="fill:#211d1d;fill-opacity:1;fill-rule:nonzero;stroke:none" transform="matrix(.0117 .00013 .00017 -.00855 -264.398 69.525)"/><path d="M37183.2 7029.2c23 39.7 4.3 81.2-29.4 105.6-130.6 94.7-250.8 202.8-361 320.4-68.4 72.9-176-38.7-107.9-111.4 119.7-127.6 251.2-241.4 392.7-344.1 34.2-24.7 86.4-3.8 105.6 29.5" style="fill:#e9f5f5;fill-opacity:1;fill-rule:nonzero;stroke:none" transform="matrix(.0117 .00013 .00017 -.00855 -264.398 69.525)"/><path d="M36742 7448.4c-2.6 0-5.3-.3-8-.9-17-4-32.7-19.6-38.2-37.8-3.4-11.3-4.2-28.3 11.4-45 113.9-121.4 244.5-235.9 388.4-340.2 8.4-6.2 18.8-5.6 26-4.1 14.5 3.1 28.7 12.8 35.2 24.1 19.5 33.8-14.1 60.6-21 65.6-127.2 92.3-250.1 201.4-365.3 324.2-8.8 9.4-18.4 14.1-28.5 14.1m370.5-490.1c-19.4 0-37.6 5.7-52.8 16.7-147 106.6-280.6 223.7-397.1 347.9-27.3 29.2-36.6 67.3-25.3 104.5 11.9 39.3 44.4 70.6 82.8 79.5 34.5 8.1 69-3.2 95-30.8 112.5-120 232.5-226.5 356.6-316.6 50.6-36.7 66.3-96.6 38-145.6-15.1-26.1-44-46.5-75.3-53.2-7.4-1.6-14.8-2.4-21.9-2.4" style="fill:#211d1d;fill-opacity:1;fill-rule:nonzero;stroke:none" transform="matrix(.0117 .00013 .00017 -.00855 -264.398 69.525)"/><path d="M37161.8 7468.4c-19-6.8-35.6-18.4-45.7-36.3-9.5-16.8-13.2-41.4-6.9-59.9 6.4-18.6 18.3-36.6 36.4-45.7q5.7-3 12-5.1c13.5-11.6 31.1-18.6 51-19.1 33.5-1 67.9 19.8 83.9 49 7.3 13.3 10.7 24.9 12.4 39.3 2.6 21.9-2.6 39.3-12 58.9-4.2 5.2-8.3 10.4-12.4 15.5-7.2 7.5-15.6 12.7-25.2 15.7-15.3 6.1-34.5 8.8-50.5 3.1-14.4-5.2-28.7-10.3-43-15.4" style="fill:#e9f5f5;fill-opacity:1;fill-rule:nonzero;stroke:none" transform="matrix(.0117 .00013 .00017 -.00855 -264.398 69.525)"/><path d="M37224.2 7456.4c-3.4 0-6.6-.5-9.2-1.4l-42.9-15.4c-13.8-4.9-23.8-12.5-29.4-22.6-5.7-10-7.7-25.7-4.6-34.9 4.6-13.5 12.4-23.9 21.3-28.4 2.4-1.2 5.3-2.4 8.4-3.6l5.3-1.9 4.3-3.6c8.6-7.4 19.7-11.5 32.1-11.8h1.3c21 0 44.4 14.1 55 33.2 5 9.2 7.4 16.9 8.8 28.2 1.5 12.7-.7 23.5-7.9 39.1l-9.1 11.4c-3.3 3.2-7 5.4-11.3 6.8l-2.5.8c-6.5 2.7-13.5 4.1-19.6 4.1m-13.3-184.7h-3.1c-24.5.7-47 8.6-65.6 22.8-3.7 1.5-7.2 3-10.5 4.7-23.3 11.9-41.5 34.3-51.4 63.1-8.8 25.9-5.2 59.2 9.2 84.8 12.9 22.8 34.3 40.2 62 50.1l43 15.3c21 7.5 46.9 6.4 71-3 14.1-4.6 26.6-12.4 37-23.3l1.9-2.1 14.5-18.2 1.4-3.1c9.5-19.6 18.7-43.9 14.9-75.7-2.2-19.3-7-34.3-15.9-50.5-21.5-39.1-64.8-64.9-108.4-64.9" style="fill:#211d1d;fill-opacity:1;fill-rule:nonzero;stroke:none" transform="matrix(.0117 .00013 .00017 -.00855 -264.398 69.525)"/><path d="M36759.1 7153.1c-130.5 69.7-242.5 162.5-336.6 276.6-26.9 32.5-82.5 25.6-109.6-1.8-32.2-32.5-24.8-77.5 1.7-109.6 101.8-123.3 227.4-225 368.4-300.2 88.1-47.1 164.2 88 76.1 135" style="fill:#e9f5f5;fill-opacity:1;fill-rule:nonzero;stroke:none" transform="matrix(.0117 .00013 .00017 -.00855 -264.398 69.525)"/><path d="M36372.2 7420.8c-14.1 0-28.9-5.6-37.6-14.4-27.6-27.8-1.9-62.1 3.6-68.6 98.8-119.8 219.7-218.3 359.2-292.8 15.7-8.4 30.6-8.3 44.3.2 15.9 9.9 26.6 29.4 26 47.4-.5 14.4-8.2 25.7-23 33.6-132.2 70.6-248.5 166.1-345.8 284-6.7 8.1-17 10.3-24.4 10.6zm347.9-443.1c-17.2 0-34.8 4.5-51.5 13.4-146.6 78.3-273.6 181.8-377.6 307.8-39.8 48.3-39.8 110.2.2 150.5 21.2 21.5 54.5 33.8 86.1 32.4 28-1.2 52.4-12.9 68.7-32.7 92.2-111.7 202.4-202.2 327.5-269 33.9-18.1 54-49.3 55.3-85.5 1.3-40-20.2-79.7-54.8-101.2-16.8-10.4-35.2-15.7-53.9-15.7" style="fill:#211d1d;fill-opacity:1;fill-rule:nonzero;stroke:none" transform="matrix(.0117 .00013 .00017 -.00855 -264.398 69.525)"/><path d="M36390 7043.4c22.6 39.1 4.7 81.7-29.5 105.6-105.3 73.4-200.2 163.5-278.6 265.3-25.7 33.4-67.5 49.1-106.5 26.1-33-19.5-51.5-73.4-26.1-106.5 95.7-124.3 206.4-230.3 335.1-320 34.6-24.2 86.1-4.3 105.6 29.5" style="fill:#e9f5f5;fill-opacity:1;fill-rule:nonzero;stroke:none" transform="matrix(.0117 .00013 .00017 -.00855 -264.398 69.525)"/><path d="M36013.8 7420.7c-7.3 0-15-2-22.8-6.6-10.5-6.2-19.3-20-22.1-34.3-1.3-6.4-2.3-18.3 4.6-27.3 94.7-123 202.1-225.6 328.4-313.6 9.1-6.3 20-5.7 27.5-4 14.2 3.2 27.7 12.5 34.2 23.7 14.5 25.1.1 50.9-20.6 65.3-109 76-205 167.4-285.3 271.7-10.4 13.6-26.1 25.1-43.9 25.1m305.8-448c-19.2 0-37.4 5.5-52.7 16.1-131.4 91.6-243.2 198.4-341.8 326.5-15.9 20.7-21.7 47.7-16.2 76.1 6.1 31.4 25.6 60.3 51 75.3 49.4 29.2 108.2 15.6 146.2-33.8 76.5-99.3 168-186.4 271.9-258.9 50.7-35.3 66.9-96.7 38.5-145.9-15.2-26.2-42.7-45.9-73.8-52.8-7.8-1.8-15.6-2.6-23.1-2.6" style="fill:#211d1d;fill-opacity:1;fill-rule:nonzero;stroke:none" transform="matrix(.0117 .00013 .00017 -.00855 -264.398 69.525)"/><path d="M35982.8 7158.9c-104.8 58.4-185.9 142.3-242.4 247.8-47.2 88-179.7 7.6-132.6-80.3 68.4-127.7 172.4-232.1 298.9-302.6 87.3-48.6 163.3 86.5 76.1 135.1" style="fill:#e9f5f5;fill-opacity:1;fill-rule:nonzero;stroke:none" transform="matrix(.0117 .00013 .00017 -.00855 -264.398 69.525)"/><path d="M35680.7 7414.3c-17.1 0-35.6-10.9-45.4-26.8-6.3-10.1-11.5-26.4-.6-46.7 65.2-121.6 164.3-222 286.8-290.3 15.2-8.4 29.6-8.7 42.9-.8 15.8 9.5 26.7 28.9 26.4 47.2-.3 15.1-8 27-22.9 35.3-108.9 60.8-194.5 148.3-254.5 260.1-7.5 14.1-18.1 21.5-31.5 21.9zm263.7-431.4c-17.7 0-35.6 4.8-52.6 14.3-132.7 73.9-240.3 182.8-311 314.8-18.9 35.3-18 74.6 2.6 107.8 21.7 34.9 60.9 56.7 100.5 55.5 35.1-1.1 65.5-20.8 83.4-54.1 54.3-101.4 131.8-180.7 230.3-235.6 33.9-18.9 53.7-50.9 54.3-87.8.6-40.3-21.5-79.8-56.2-100.5-16-9.6-33.5-14.4-51.3-14.4" style="fill:#211d1d;fill-opacity:1;fill-rule:nonzero;stroke:none" transform="matrix(.0117 .00013 .00017 -.00855 -264.398 69.525)"/><path d="M35590.6 7188.6c-68.3 45.7-121 112.4-149.8 189.3-34.7 92.8-183.9 50.2-148.8-43.5 43.7-117 118.7-211.5 222.5-280.8 83.2-55.6 158.6 79.9 76.1 135" style="fill:#e9f5f5;fill-opacity:1;fill-rule:nonzero;stroke:none" transform="matrix(.0117 .00013 .00017 -.00855 -264.398 69.525)"/><path d="M35365.7 7399.1c-7.8 0-15.2-1.5-21.3-3.8-11.3-4.2-36.1-17.5-23.8-50.2 41.4-110.8 112.4-200.3 210.9-266.1 28.9-19.4 47.5 1.6 54.1 11.6 12 17.9 18.8 52.1-11.9 72.6-73.3 49-130.6 121.4-161.5 204-9 24-28.6 31.9-46.5 31.9m189.1-389.3c-19.1 0-38.8 6-57.2 18.4-109.4 73-188.2 172.4-234.2 295.5-20.6 55 3.9 108 59.6 128.8 52.1 19.6 121.1 3.8 146.4-63.9 26.5-70.7 75.6-132.7 138.2-174.6 60.2-40.2 59.8-111.1 28.8-157.4-20.5-30.6-50.3-46.8-81.6-46.8" style="fill:#211d1d;fill-opacity:1;fill-rule:nonzero;stroke:none" transform="matrix(.0117 .00013 .00017 -.00855 -264.398 69.525)"/><path d="M34960.7 7319.9c54.6-99.8 123.6-190.6 204.3-270.7 70.9-70.4 178.7 41 107.8 111.3-71.8 71.3-130.9 151-179.5 239.7-47.9 87.6-180.5 7.2-132.6-80.3" style="fill:#e9f5f5;fill-opacity:1;fill-rule:nonzero;stroke:none" transform="matrix(.0117 .00013 .00017 -.00855 -264.398 69.525)"/><path d="M34987.5 7334.5c52.5-96 119.5-184.7 199-263.6 12-12 25.4-16.1 39.7-12.2 17.5 4.8 33.1 20.6 37.8 38.6 4 15.2-.2 29.2-12.7 41.5-73.4 72.9-133.9 153.7-184.8 246.8-7.8 14.2-18.6 21.6-32.3 21.9-17.7.7-36.7-10.7-46.6-26.9-6.1-10-11-26.1-.1-46.1m228.5-338.3c-26.4 0-51.9 10.8-72.6 31.3-83.7 83.1-154.2 176.5-209.5 277.7-19.2 35.1-18.6 74.1 1.5 107.2 20.9 34.3 59.1 56.2 97.9 56.2h2.3c35.5-.8 66.3-20.4 84.5-53.7 48.1-87.9 105.1-164 174.3-232.7 27.8-27.6 38.3-64.3 28.7-100.5-10.4-39.3-42.1-71.4-80.9-82-8.7-2.3-17.5-3.5-26.2-3.5" style="fill:#211d1d;fill-opacity:1;fill-rule:nonzero;stroke:none" transform="matrix(.0117 .00013 .00017 -.00855 -264.398 69.525)"/><path d="M34997.5 7048.1c22.8 39.5 4.4 81.4-29.5 105.6-88 62.9-162.6 142.4-222 232.7-54.6 83.1-187.6 3.3-132.6-80.4 74.8-113.7 167.9-208.4 278.5-287.4 34.3-24.5 86.3-4 105.6 29.5" style="fill:#e9f5f5;fill-opacity:1;fill-rule:nonzero;stroke:none" transform="matrix(.0117 .00013 .00017 -.00855 -264.398 69.525)"/><path d="M34683.4 7391c-12 0-23.4-4.7-31-9.6-8.5-5.6-34.6-26.4-13.4-58.6 71.7-109.1 160.2-200.5 270.6-279.3 8.8-6.2 19.3-5.6 26.7-4 14.3 3.1 28.3 12.7 34.8 23.9 15.2 26.4-1.7 51.8-20.8 65.4-89.4 63.9-166.7 144.9-229.8 240.8-10.6 16.1-24.2 21.4-37.1 21.4m243.4-413.7c-19.3 0-37.4 5.6-52.6 16.5-115.1 82.1-211.4 181.5-286.3 295.4-37 56.3-12.4 114.7 31 143.2 45.1 29.7 114 29.6 152.7-29.2 58.9-89.7 130.9-165.2 214.2-224.6 51-36.5 66.7-96.4 38.1-145.8-15-26-43.6-46.3-74.7-53.1-7.5-1.6-15-2.4-22.4-2.4" style="fill:#211d1d;fill-opacity:1;fill-rule:nonzero;stroke:none" transform="matrix(.0117 .00013 .00017 -.00855 -264.398 69.525)"/><path d="M34631.2 7162.9c-79.6 67.3-153.5 141.6-217.7 223.9-25.7 32.9-67.7 49.6-106.4 26.1-32.6-19.8-52.1-73.3-26.2-106.5 72.6-93.1 152.2-178.5 242.4-254.8 75.9-64.2 184.2 46.8 107.9 111.3" style="fill:#e9f5f5;fill-opacity:1;fill-rule:nonzero;stroke:none" transform="matrix(.0117 .00013 .00017 -.00855 -264.398 69.525)"/><path d="M34345.2 7393.4c-7 0-14.5-1.9-22.3-6.6-10.8-6.6-19.9-20.8-22.6-35.5-1.4-7.4-1.7-17.9 4.7-26.1 75.5-96.8 153.3-178.7 238-250.3 27.8-23.5 58.4-7.8 72.2 8.4 7.8 9.3 23.2 33.5-3.8 56.3-85.6 72.4-160.2 149.2-222 228.4-4 5.1-21.2 25.4-44.2 25.4m228.3-391.9c-23.4 0-47.7 8-69.9 26.8-88 74.3-168.7 159.2-246.8 259.3-15.8 20.4-21.7 46.9-16.6 74.8 5.8 31.7 25.4 61.1 51 76.6 48.1 29.2 108.3 15.4 146.4-33.4 59.2-75.9 130.9-149.7 213.3-219.3 45.1-38.2 49.6-96.7 10.9-142.4-21.2-25.2-53.8-42.4-88.3-42.4" style="fill:#211d1d;fill-opacity:1;fill-rule:nonzero;stroke:none" transform="matrix(.0117 .00013 .00017 -.00855 -264.398 69.525)"/><path d="M33937.2 7399.5c-32.4-32.7-24.4-77.3 1.7-109.6 79.3-98.1 169.4-185.4 269.7-261.8 33.6-25.5 77.7-30.5 109.6 1.8 26.8 27 31.6 84.3-1.7 109.6-100.4 76.3-190.4 163.7-269.7 261.7-26.5 32.8-82.7 25.5-109.6-1.7" style="fill:#e9f5f5;fill-opacity:1;fill-rule:nonzero;stroke:none" transform="matrix(.0117 .00013 .00017 -.00855 -264.398 69.525)"/><path d="M33996.7 7392.4c-14.2 0-29.1-5.6-37.8-14.4-27.2-27.5-1.6-62.2 3.8-68.9 77.4-95.8 166.4-182.1 264.4-256.6 9.5-7.2 42.4-28.5 69.4-1.1 8.5 8.6 13.7 24.7 12.7 39.3-.4 6.3-2.5 17.8-11.2 24.5-101.9 77.5-194.4 167.2-275 266.8-6.3 7.9-16.4 10-23.6 10.4zm268.7-415.6c-25.3 0-51.5 9-75.3 27a1596.5 1596.5 0 0 0-274.9 266.9c-40 49.3-39.8 109.7.3 150.3 21.4 21.6 54.6 34.1 86.9 32.4 27.9-1.4 52.1-13.1 68.1-33 77.5-95.7 166.5-182.1 264.5-256.6 20.6-15.7 33.1-40.1 35.2-68.8 2.2-32.3-9.4-65.5-30.2-86.6-20.9-21-47.2-31.6-74.6-31.6" style="fill:#211d1d;fill-opacity:1;fill-rule:nonzero;stroke:none" transform="matrix(.0117 .00013 .00017 -.00855 -264.398 69.525)"/><path d="M33948.9 7159.2c-75.3 47.9-137.4 117.6-172.8 200.1-16.5 38.4-52.5 65.3-96.2 52.6-36.4-10.7-69.2-57.5-52.6-96.2 52.3-121.9 133.2-220.2 245.5-291.6 84.4-53.6 160 81.8 76.1 135.1" style="fill:#e9f5f5;fill-opacity:1;fill-rule:nonzero;stroke:none" transform="matrix(.0117 .00013 .00017 -.00855 -264.398 69.525)"/><path d="M33701.5 7384.5c-4 0-8.4-.6-13-1.9-12-3.5-24.7-15.3-31-28.5-3.2-6.8-6.2-16.9-2.1-26.4 50.6-117.9 129.2-211.3 233.8-277.8 13.5-8.6 26.4-9.9 38.2-3.7 15.3 8 26.6 27 27.5 46.2.5 11.9-3 28.7-22.4 41-82.2 52.3-147.7 128.2-184.5 213.8-2.9 6.9-17.6 37.3-46.5 37.3m210.8-403.2c-18.9 0-38.1 5.7-55.9 17-115.1 73.2-201.7 175.9-257.2 305.4-10.1 23.6-9.1 50.8 3 76.4 13.8 29.3 40.3 52.7 69.2 61.1 54.6 16 108-12.1 132.8-69.9 31.9-74.4 89.1-140.6 161.1-186.3 33.8-21.5 52.3-56.2 50.6-95.2-1.7-41.2-25.4-79.6-60.3-97.8-13.7-7.1-28.4-10.7-43.3-10.7" style="fill:#211d1d;fill-opacity:1;fill-rule:nonzero;stroke:none" transform="matrix(.0117 .00013 .00017 -.00855 -264.398 69.525)"/><path d="M33287.5 7297.1c56.5-108.6 136.2-203.8 233.9-277.7 33.7-25.4 77.6-30.5 109.6 1.8 26.7 26.9 31.6 84.4-1.7 109.6-88.6 66.9-158 148.2-209.2 246.7-46 88.5-178.5 8-132.6-80.4" style="fill:#e9f5f5;fill-opacity:1;fill-rule:nonzero;stroke:none" transform="matrix(.0117 .00013 .00017 -.00855 -264.398 69.525)"/><path d="M33361 7385.5c-9.1 0-17.4-3.5-22.4-6-16.2-8.5-42-33.6-24-68.3 54.4-104.7 132.3-197.2 225.2-267.4 9.5-7.1 42.5-28.3 69.5-1.1 8.5 8.6 13.7 24.8 12.7 39.5-.5 6.2-2.5 17.7-11.1 24.2-93.4 70.6-164.7 154.6-217.9 257-8.9 17.1-21 22.1-32 22.1m217.2-417.3c-25.2 0-51.4 8.9-75.2 26.9-100.1 75.6-184 175.2-242.6 287.9-33.1 63.8 1.1 125.2 50 150.7 45 23.3 106.4 16.4 136.8-42.1 48.9-94.2 114.5-171.5 200.5-236.4 20.6-15.6 33.2-40 35.2-68.6 2.4-32.4-9.2-65.7-30.2-86.9-20.8-21-47-31.5-74.5-31.5" style="fill:#211d1d;fill-opacity:1;fill-rule:nonzero;stroke:none" transform="matrix(.0117 .00013 .00017 -.00855 -264.398 69.525)"/><path d="M33304.4 7030.4c22.9 39.7 4.2 81.2-29.5 105.6-88 63.6-161.4 144.4-219.2 235.8-53.3 84.2-186.2 4.3-132.6-80.3 72.8-115.2 165.4-210.9 275.7-290.6 34.1-24.7 86.3-3.8 105.6 29.5" style="fill:#e9f5f5;fill-opacity:1;fill-rule:nonzero;stroke:none" transform="matrix(.0117 .00013 .00017 -.00855 -264.398 69.525)"/><path d="m32993.4 7377.1-1.9-.1c-18.7-.7-37.7-12.4-46-28.4-6.8-12.8-5.6-26.6 3.4-40.8 69.5-109.9 157.1-202.1 267.8-282.1 8.5-6.1 18.9-5.6 26.2-4 14.4 3.1 28.5 12.7 35 24 19.6 33.9-14 60.5-20.9 65.6-88.8 64.1-165.2 146.2-227.1 244.2-9.1 14.3-21.4 21.6-36.5 21.6m240.2-417.5c-19.4 0-37.6 5.6-52.7 16.6-115.5 83.4-210.9 184-283.6 298.9-20.7 32.6-22.8 69.8-5.9 101.9 18.6 35.5 56.9 59.4 97.6 61.1 37.5 1.6 71.4-16.7 92.5-49.9 57.8-91.4 128.8-167.9 211.3-227.4 50.7-36.7 66.4-96.6 38-145.7-15.1-26.1-43.9-46.5-75.2-53.2-7.4-1.6-14.8-2.3-22-2.3" style="fill:#211d1d;fill-opacity:1;fill-rule:nonzero;stroke:none" transform="matrix(.0117 .00013 .00017 -.00855 -264.398 69.525)"/><path d="M32903.7 7131.8c-87.8 50.9-153.5 123.5-198.7 214.1-44.6 89.3-177 8.6-132.6-80.3 56.5-113.2 145.9-205.6 255.2-268.9 86.5-50.1 162.4 85.1 76.1 135.1" style="fill:#e9f5f5;fill-opacity:1;fill-rule:nonzero;stroke:none" transform="matrix(.0117 .00013 .00017 -.00855 -264.398 69.525)"/><path d="M32646.5 7354.2c-8.6 0-16.3-3-21-5.4-19.5-9.7-42.4-36.2-25.8-69.6 52.9-106 137-194.6 243.2-256.1 35.7-20.7 56.7 11.3 60.6 17.9 2.4 4.3 23 42.3-15.1 64.4-91 52.7-161.9 129-210.8 226.9-8.5 17.1-20.4 21.9-31.1 21.9m219.3-399.1c-17.1 0-35.3 4.6-53.5 15.2-116.6 67.5-209 164.9-267.3 281.6-31.2 62.7 2.5 126.3 53.2 151.6 52.9 26.4 108 8.3 134.1-43.9 43.4-87 106.2-154.8 186.7-201.4 60.4-35 64.5-100.9 37.3-147.8-18.4-31.9-51.9-55.3-90.5-55.3" style="fill:#211d1d;fill-opacity:1;fill-rule:nonzero;stroke:none" transform="matrix(.0117 .00013 .00017 -.00855 -264.398 69.525)"/><path d="M32204.7 7262.2c66.4-103.6 148.9-194.9 247.1-269.3 33.6-25.4 77.6-30.5 109.6 1.8 26.7 27 31.5 84.4-1.8 109.6-88 66.6-162.7 145.3-222.3 238.3-53.7 83.8-186.6 3.9-132.6-80.4" style="fill:#e9f5f5;fill-opacity:1;fill-rule:nonzero;stroke:none" transform="matrix(.0117 .00013 .00017 -.00855 -264.398 69.525)"/><path d="M32230.4 7278.7c66-102.9 146.7-190.9 239.8-261.4 9.5-7.2 42.4-28.5 69.5-1.1 8.5 8.6 13.7 24.8 12.6 39.4-.4 6.3-2.4 17.8-11.1 24.3-92.6 70.1-169.9 153-229.6 246.2-9.6 15-22.7 22-39 21.4-18.8-.8-37.6-12.5-45.8-28.4-6.6-12.8-5.4-26.3 3.6-40.4m278.2-337.1c-25.3 0-51.5 9-75.3 27-98.9 74.9-184.5 168.1-254.3 277.1-20.7 32.4-23.1 69.3-6.5 101.4 18.3 35.5 56.5 59.6 97.3 61.5 38 1.8 72-16.3 93.2-49.5 55.9-87.2 128.2-164.7 215.1-230.5 20.6-15.6 33.1-40 35.2-68.7 2.3-32.3-9.3-65.6-30.2-86.7-20.8-21-47.1-31.6-74.5-31.6" style="fill:#211d1d;fill-opacity:1;fill-rule:nonzero;stroke:none" transform="matrix(.0117 .00013 .00017 -.00855 -264.398 69.525)"/><path d="M32217.2 7087.2c-88.9 68-165.5 147.7-227.5 240.9-55.1 82.8-188.1 3.1-132.6-80.3 69.1-104.1 153-196 252.3-271.9l.1.1q3.75-3.3 7.8-6.3c2.6-1.9 5.3-3.8 8-5.7 70.7-50.9 161.9 69.7 91.9 123.2" style="fill:#e9f5f5;fill-opacity:1;fill-rule:nonzero;stroke:none" transform="matrix(.0117 .00013 .00017 -.00855 -264.398 69.525)"/><path d="m32099.7 7024.8 29.7-25.7c1.9-1.6 3.7-3.1 5.7-4.5l8-5.8c22.9-16.5 46.5 2.5 56.7 16.3 2.8 3.8 26.2 37-1.1 57.9-93.8 71.7-172.6 155.2-234.5 248.2-12.5 18.9-29.1 22-40.6 21.2-19-1.2-37.8-13-45.6-28.8-6-12.2-4.6-25.3 4.5-38.9 61.7-92.9 134.4-174 216.4-241.5zm61.9-103.8c-15.1 0-30.6 3.9-45.7 12.7l-.6-.8-15.8 12c-2.5 1.8-4.9 3.6-7.2 5.5l-1.5 1.2c-99.3 75.9-186.5 169.9-259.2 279.2-21.1 31.7-24.1 68.2-8.3 100 17.6 35.4 55.4 60 96.4 62.6 38.6 2.5 73.3-15.2 95.4-48.4 58.1-87.4 132.3-165.9 220.7-233.5 49.8-38.1 44.3-100.7 13.1-142.8-20.7-27.8-53-47.7-87.3-47.7" style="fill:#211d1d;fill-opacity:1;fill-rule:nonzero;stroke:none" transform="matrix(.0117 .00013 .00017 -.00855 -264.398 69.525)"/><path d="M31878.7 7094.8c-83.1 67.7-154.1 145.4-212.1 235.6-53.9 83.7-186.8 3.8-132.6-80.4 64.8-100.7 143.9-190.9 236.8-266.6 76.9-62.6 185.4 48.3 107.9 111.4" style="fill:#e9f5f5;fill-opacity:1;fill-rule:nonzero;stroke:none" transform="matrix(.0117 .00013 .00017 -.00855 -264.398 69.525)"/><path d="M31604.1 7335.3c-11.6 0-22.7-4.5-30-9.2-6.3-4-36.2-25.7-14.5-59.6 64.4-99.9 141.9-187.2 230.5-259.4 29.1-23.6 60.2-6.9 74.1 10.1 9.1 11.2 20.7 33.1-4.8 53.9-86.9 70.8-160.4 152.4-218.5 242.7-10.4 16.2-24 21.5-36.8 21.5m216.5-400.8c-23.4 0-47.4 7.6-69.1 25.3-93.6 76.2-175.4 168.3-243.2 273.7-36.8 57-11.4 115.6 32.7 144 45.1 29 113.4 28.1 151.2-30.6 55.4-86.1 122.7-160.8 205.7-228.4h.1c45.1-36.8 50.7-94.3 13.6-139.9-21.7-26.6-55.6-44.1-91-44.1" style="fill:#211d1d;fill-opacity:1;fill-rule:nonzero;stroke:none" transform="matrix(.0117 .00013 .00017 -.00855 -264.398 69.525)"/><path d="M31190.8 7252.4c70-99.1 152.2-187.1 248.8-260.8 33.5-25.6 77.7-30.5 109.6 1.8 26.8 27 31.5 84.2-1.7 109.6-85.8 65.4-161.7 141.6-224.1 229.8-57.2 81-190.3 1.4-132.6-80.4" style="fill:#e9f5f5;fill-opacity:1;fill-rule:nonzero;stroke:none" transform="matrix(.0117 .00013 .00017 -.00855 -264.398 69.525)"/><path d="M31215.8 7270.1c70.3-99.6 151.8-185.1 242.3-254.2 19.4-14.8 47.8-22.8 69.4-1 8.6 8.6 13.7 24.4 12.7 39.2-.5 6.3-2.5 17.9-11.3 24.6-91.3 69.7-168.8 149.2-230.4 236.5-21.1 29.9-54.8 22.3-72.3 9.9-9.9-6.9-30.7-26.3-10.4-55m280.5-329.9c-25.2 0-51.5 9-75.2 27.1-95.5 72.9-181.3 162.9-255.2 267.5-34 48.2-23.7 105.8 25 140.3 45.3 31.9 115.9 34.2 157.5-24.7 58-82.1 131.2-157.2 217.6-223.1 20.7-15.8 33.1-40.3 35.1-69 2.3-32.2-9.3-65.4-30.2-86.4-20.8-21.1-47.1-31.7-74.6-31.7" style="fill:#211d1d;fill-opacity:1;fill-rule:nonzero;stroke:none" transform="matrix(.0117 .00013 .00017 -.00855 -264.398 69.525)"/><path d="M30853.5 7257.3c62.4-119.8 157.2-217.6 273-286.8 85.9-51.4 161.7 83.9 76.1 135-94.1 56.3-165.9 135.2-216.5 232.2-46.1 88.5-178.6 8-132.6-80.4" style="fill:#e9f5f5;fill-opacity:1;fill-rule:nonzero;stroke:none" transform="matrix(.0117 .00013 .00017 -.00855 -264.398 69.525)"/><path d="M30880.6 7271.4c58.6-112.5 149.1-207.5 261.6-274.7 14.3-8.6 27.9-9.4 40.4-2.4 15.6 8.7 26.7 27.9 27 46.7.3 16.3-7.4 29.2-22.7 38.3-97 58-173.7 140.2-227.9 244.3-16.4 31.5-43.6 21.7-54.5 16-16.1-8.4-41.9-33.5-23.9-68.2m284.7-342.9c-18.4 0-37 5.3-54.5 15.7-122.2 73.1-220.5 176.5-284.4 299-33.1 63.7 1 125.1 49.9 150.6 44.9 23.4 106.4 16.5 136.9-42 48.9-93.9 117.9-167.9 205.1-220 33.9-20.3 53-53.7 52.4-91.7-.6-40.9-23.5-79.8-58.4-99.2-14.8-8.3-30.8-12.4-47-12.4" style="fill:#211d1d;fill-opacity:1;fill-rule:nonzero;stroke:none" transform="matrix(.0117 .00013 .00017 -.00855 -264.398 69.525)"/><path d="M30538.3 7253.2c53.1-105.2 127.4-198.7 217.8-274.3 76.1-63.8 184.5 47.1 107.8 111.3-81.5 68.2-145.1 148.5-193 243.3-45 89-177.5 8.4-132.6-80.3" style="fill:#e9f5f5;fill-opacity:1;fill-rule:nonzero;stroke:none" transform="matrix(.0117 .00013 .00017 -.00855 -264.398 69.525)"/><path d="M30612.2 7341.7c-16.3 0-34.3-10.5-44.5-26.1-6.9-10.5-12.9-27.5-2.2-48.7 51.6-102 122.3-191.1 210.2-264.6 18-15.2 35.8-13.2 47.5-8.9 18.2 6.6 33 22.9 35.9 39.5 2.2 12.6-2.6 23.7-14.8 33.9-85 71.1-150.6 153.9-200.7 252.9-7.1 14-16.7 21.2-29.3 21.9zm194.3-412.5c-25 0-49.4 8.9-70.1 26.2-94.2 78.9-170 174.4-225.4 284-18.3 36.3-16.3 76.2 5.6 109.7 22.7 34.6 62.4 55.6 101.1 53.5 34.3-1.9 63.6-22.1 80.4-55.3 46.3-91.5 106.9-168 185.4-233.7 28.7-24 41.7-57.2 35.8-91.2-6.7-38.3-36.2-72.2-75.1-86.4-12.5-4.6-25.2-6.8-37.7-6.8" style="fill:#211d1d;fill-opacity:1;fill-rule:nonzero;stroke:none" transform="matrix(.0117 .00013 .00017 -.00855 -264.398 69.525)"/><path d="M30180.3 7254.4c60.4-110 142-207.2 240.7-284.8 33.1-26.1 78-30.2 109.6 1.7 27.1 27.4 31.1 83.8-1.8 109.6-89.4 70.4-161.1 154.1-215.9 253.9-48 87.5-180.6 7.1-132.6-80.4" style="fill:#e9f5f5;fill-opacity:1;fill-rule:nonzero;stroke:none" transform="matrix(.0117 .00013 .00017 -.00855 -264.398 69.525)"/><path d="M30207.1 7269.1c59.2-107.9 137.5-200.6 232.8-275.5 18-14.2 47-23 69-.8 8.5 8.6 13.6 24 12.7 38.4-.4 6.5-2.5 18.5-11.6 25.7-94.1 74-167.3 160.1-223.9 263.2-18.3 33.4-48.6 20.1-57.4 15.3-16.6-9.1-39.7-33.3-21.6-66.3m270.1-350.9c-25.5 0-51.9 9.1-75.1 27.4-101.7 80-185.4 179-248.6 294.1-34 62-1.8 123.2 45.8 149.2 45.3 24.9 108.1 19.4 140.4-39.4 52.6-95.8 120.6-175.8 208-244.5 20.7-16.3 33.1-41.2 34.8-70 2-32.2-9.3-64-30.2-85.2-20.8-21-47.5-31.6-75.1-31.6" style="fill:#211d1d;fill-opacity:1;fill-rule:nonzero;stroke:none" transform="matrix(.0117 .00013 .00017 -.00855 -264.398 69.525)"/><path d="M29845.7 7264.6c71-114.3 157.4-218.3 257.4-308.4 74-66.7 182.2 44.4 107.9 111.4-90.7 81.7-168.2 173.6-232.7 277.3-52.7 84.7-185.5 4.7-132.6-80.3" style="fill:#e9f5f5;fill-opacity:1;fill-rule:nonzero;stroke:none" transform="matrix(.0117 .00013 .00017 -.00855 -264.398 69.525)"/><path d="M29916.2 7350.4h-1.5c-18.6-.6-37.6-12.2-46.1-28.2-7-13.1-6-27.1 3-41.5 70.1-112.8 154.9-214.3 252-301.8 13.4-12.1 28.2-15.6 44.1-10.5 18 5.9 33.2 22.1 36.9 39.4 2.9 13.6-1.9 26.1-14.1 37.1-93 83.8-173.2 179.4-238.2 283.9-8.9 14.3-21 21.6-36.1 21.6m237.8-445.3c-25.7 0-50.6 9.7-71.3 28.5-101.3 91.2-189.8 197.2-263 314.8-20.4 32.9-22.3 70.3-5 102.5 18.9 35.5 57.4 59.2 98 60.5 37.6 1.4 70.8-17.1 91.5-50.3 62-99.7 138.4-190.8 227.2-270.8 28.4-25.6 40.4-60.3 32.9-95.3-8.3-38.8-38.8-72-77.7-84.7-10.9-3.5-21.8-5.2-32.6-5.2" style="fill:#211d1d;fill-opacity:1;fill-rule:nonzero;stroke:none" transform="matrix(.0117 .00013 .00017 -.00855 -264.398 69.525)"/><path d="M29819.6 7049.1c-81.8 64.1-144.7 145-180.5 243-34 93.2-183.1 50.5-148.8-43.5 44.6-122.5 118.5-230.2 221.5-310.9 33.2-26 78-30.2 109.6 1.8 27.1 27.3 31.1 83.8-1.8 109.6" style="fill:#e9f5f5;fill-opacity:1;fill-rule:nonzero;stroke:none" transform="matrix(.0117 .00013 .00017 -.00855 -264.398 69.525)"/><path d="M29564.4 7313.6c-16.1 0-32-6.5-41.1-17.4-8.4-9.9-9.8-22.1-4.3-37.2 44.5-122 115.7-222.1 211.6-297.3 18.2-14.2 47.2-22.9 69.1-.8 8.5 8.6 13.6 24.1 12.7 38.5-.4 6.5-2.5 18.5-11.6 25.6-90 70.5-154 156.9-190.4 256.7-8 21.8-24.1 29-36.2 31.1-3.2.6-6.5.8-9.8.8m203.7-427.2c-25.6 0-51.9 9-75.2 27.3-103.5 81.1-183.5 193.3-231.3 324.4-12.9 35.3-7.5 70.8 14.8 97.4 25.1 29.9 67.7 44.6 108.4 37.5 38.9-6.9 69.2-32.5 83-70.4 32.4-88.9 89.8-166.1 170.7-229.5 20.6-16.2 33-41 34.8-69.8 2.1-32.3-9.2-64.2-30.2-85.3-20.8-21-47.5-31.6-75-31.6" style="fill:#211d1d;fill-opacity:1;fill-rule:nonzero;stroke:none" transform="matrix(.0117 .00013 .00017 -.00855 -264.398 69.525)"/><path d="M29424.8 7061.1c-78.5 71.7-139.3 154.6-185.4 250.3-43.3 89.8-175.7 9-132.6-80.3 51.3-106.5 122.9-201.6 210.1-281.3 73.6-67.3 181.7 43.9 107.9 111.3" style="fill:#e9f5f5;fill-opacity:1;fill-rule:nonzero;stroke:none" transform="matrix(.0117 .00013 .00017 -.00855 -264.398 69.525)"/><path d="M29181.6 7320.1c-7.6 0-14.7-2.5-20-5-19.3-9.3-43.7-36.7-27.3-70.8 49.3-102.3 117.6-193.8 203.2-272 13.2-12 27.9-15.7 43.5-10.7 18 5.7 33.2 21.8 37 39.2 3.1 13.9-1.6 26.6-13.8 37.8-80.9 73.9-143.8 158.8-192.4 259.6-8.1 16.9-19.6 21.9-30.2 21.9m186.2-421.7c-25.8 0-50.7 9.9-71.5 28.8-91.4 83.5-164.4 181.3-217.1 290.6-30.7 63.7 4.3 127.5 55.9 152.3 52.5 25.3 106.7 6.6 131.8-45.4 45.1-93.7 103.5-172.5 178.5-241 28.2-25.8 40-60.8 32.3-96-8.6-38.9-39.3-72-78.2-84.3-10.5-3.4-21.2-5-31.7-5" style="fill:#211d1d;fill-opacity:1;fill-rule:nonzero;stroke:none" transform="matrix(.0117 .00013 .00017 -.00855 -264.398 69.525)"/><path d="M29062.5 7031.3c-3.5 5.3-7 10.6-10.5 15.8-12 18-27.6 28.2-44.2 32.5-64 55-109.9 128.4-134.9 208.9-29.6 95.1-178.6 52-148.8-43.6 41.2-132.5 122.2-240.2 234-321.3 63.8-46.3 145.4 46.2 104.4 107.7" style="fill:#e9f5f5;fill-opacity:1;fill-rule:nonzero;stroke:none" transform="matrix(.0117 .00013 .00017 -.00855 -264.398 69.525)"/><path d="M28801 7311.2c-15.1 0-30.6-6.2-40.4-16.7-9.9-10.8-12.4-24.4-7.4-40.5 38.4-123.4 113.4-226.3 222.9-305.7 21.2-15.4 41.1-.2 48.6 7 15.7 15.1 24.9 40.2 12.4 59.1l-10.6 15.8c-6.9 10.4-15.8 17.1-26.4 19.9l-6.8 1.7-5.4 4.7c-66.8 57.4-116.7 134.5-144.2 222.9-5.2 16.8-15.8 27.1-31.3 30.6q-5.55 1.2-11.4 1.2m194.3-430.5c-19.3 0-38.3 6-55.1 18.2-120.4 87.3-202.9 200.7-245.3 336.9-11.5 36.9-3.9 73.4 20.8 100.1 27.2 29.4 70.4 42.7 110.1 33.7 36.8-8.3 64.6-34.6 76.2-72 23.5-75.4 65.2-141.2 120.9-190.6 22-7.5 40.7-22.2 54.5-42.9l10.5-15.8c31.2-46.9 13.1-104.4-20.8-137-21.1-20.2-46.6-30.6-71.8-30.6" style="fill:#211d1d;fill-opacity:1;fill-rule:nonzero;stroke:none" transform="matrix(.0117 .00013 .00017 -.00855 -264.398 69.525)"/><path d="M28691.7 6935.7c27.2 27.4 31.1 83.8-1.7 109.6-87.7 69.1-155.1 152.6-203.9 253.1-43.6 89.6-176 8.9-132.6-80.4 53.7-110.6 132-208 228.6-284 33.1-26.1 78-30.2 109.6 1.7" style="fill:#e9f5f5;fill-opacity:1;fill-rule:nonzero;stroke:none" transform="matrix(.0117 .00013 .00017 -.00855 -264.398 69.525)"/><path d="M28428.2 7306.9c-15.8 0-33.6-10.2-44-25.6-7.3-10.8-13.8-28.2-3.2-50 51.5-106 127.6-200.5 220-273.3 18.1-14.3 47-23 69-.8 8.5 8.6 13.6 24 12.7 38.3-.4 6.6-2.5 18.6-11.6 25.8-91.9 72.4-161.4 158.7-212.5 263.7-6.7 13.8-15.8 20.9-27.9 21.8zm210.1-424.3c-25.5 0-51.9 9.1-75.1 27.4-99.6 78.4-181.6 180.3-237.2 294.6-17.9 36.9-15.1 77.3 7.6 110.9 23.3 34.5 63.1 55 101.5 52.2 33.7-2.4 62.4-22.8 78.5-56 46.9-96.5 110.8-175.8 195.3-242.4 20.6-16.3 33-41.1 34.8-70 2-32.1-9.3-63.9-30.3-85.1-20.8-21-47.5-31.6-75.1-31.6" style="fill:#211d1d;fill-opacity:1;fill-rule:nonzero;stroke:none" transform="matrix(.0117 .00013 .00017 -.00855 -264.398 69.525)"/><path d="M28004.2 7207c65.1-96.5 128.2-226.9 240.9-274.9 38.8-16.5 83.1-9.5 105.6 29.5 19.1 33.2 9 89.3-29.5 105.6-85.8 36.5-134.7 146.5-184.4 220.2-55.6 82.3-188.6 2.6-132.6-80.4" style="fill:#e9f5f5;fill-opacity:1;fill-rule:nonzero;stroke:none" transform="matrix(.0117 .00013 .00017 -.00855 -264.398 69.525)"/><path d="M28029.5 7224.1c12.5-18.5 24.5-37.5 37.2-57.7 52.9-84 107.5-170.9 190.4-206.1 22.3-9.5 51.7-10.2 67.1 16.6 6.1 10.6 7.1 27 2.4 40.8-2 6.1-7 17-17.4 21.4-76 32.4-123.6 110.8-165.6 180-11.2 18.4-21.7 35.7-32.1 51.2-21.3 31.5-54.9 21.1-69.6 11.1-8.3-5.5-33.5-26.1-12.4-57.3m254.5-330.8c-16.6 0-33.8 3.5-50.9 10.7-100.4 42.8-162.9 142.2-218.1 229.8-12.5 19.8-24.2 38.5-36.1 56.1-37.4 55.4-13.8 113.4 28.8 142.2 45.2 30.5 114.7 31.2 154.4-27.7 11.3-16.7 22.2-34.6 33.7-53.6 37.2-61.3 79.4-130.8 137.4-155.5 24-10.2 42.2-30.8 51.4-58.2 10.2-30.4 7.3-65.2-7.4-90.7-19.8-34.3-54.7-53.1-93.2-53.1" style="fill:#211d1d;fill-opacity:1;fill-rule:nonzero;stroke:none" transform="matrix(.0117 .00013 .00017 -.00855 -264.398 69.525)"/><path d="M27959.6 6945.6c22.7 39.3 4.6 81.7-29.5 105.6-72.3 50.9-126.2 124.4-155.4 207.6-32.9 93.6-182 50.9-148.8-43.6 43.5-124 120.9-223.7 228.1-299.1 34.5-24.2 86.2-4.1 105.6 29.5" style="fill:#e9f5f5;fill-opacity:1;fill-rule:nonzero;stroke:none" transform="matrix(.0117 .00013 .00017 -.00855 -264.398 69.525)"/><path d="M27700.9 7280.5c-7.6 0-14.7-1.5-20-3.3-9.3-3.3-38.6-16.6-26.2-51.9 40.8-116.1 113.8-211.7 216.9-284.2 9-6.3 19.7-5.7 27.2-4 14.1 3.1 27.9 12.7 34.4 23.8 15.4 26.7-1.5 51.9-20.6 65.3-75.9 53.3-135.1 132.3-166.7 222.5-8.7 24.8-28.2 31.8-45 31.8m188.2-405.6c-19.2 0-37.4 5.5-52.6 16.2-113.8 80-194.3 185.6-239.4 314-22.1 62.8 15.3 112.8 63.5 129.7 51.7 18.2 119.4 1.2 142.9-65.9 27.5-78.2 78.7-146.7 144.2-192.7 51.3-36.1 67.1-96 38.4-145.8-15.2-26.3-42.9-46.1-74.1-53-7.7-1.7-15.4-2.5-22.9-2.5" style="fill:#211d1d;fill-opacity:1;fill-rule:nonzero;stroke:none" transform="matrix(.0117 .00013 .00017 -.00855 -264.398 69.525)"/><path d="M27626.1 7036.2c-77.9 60-142.5 135.3-181.6 226.2-16.5 38.3-52.6 65.6-96.2 52.7-36.4-10.9-69.3-57.4-52.6-96.2 49.8-115.9 122.1-216.7 222.6-294.1 33.4-25.7 77.8-30.4 109.6 1.8 26.9 27.1 31.3 84.1-1.8 109.6" style="fill:#e9f5f5;fill-opacity:1;fill-rule:nonzero;stroke:none" transform="matrix(.0117 .00013 .00017 -.00855 -264.398 69.525)"/><path d="M27370 7287.8c-4 0-8.4-.7-13-2-12.2-3.6-25-15.5-31.3-28.9-3.1-6.6-6-16.6-2-26 50.3-116.8 122.1-211.7 213.2-281.9 19.3-14.8 47.6-22.9 69.3-1 8.5 8.7 13.6 24.4 12.7 39-.5 6.4-2.5 18.1-11.4 25-87.8 67.6-152.1 147.8-191.1 238.4-2.9 6.8-17.7 37.4-46.4 37.4m204.9-414.5c-25.3 0-51.6 9-75.3 27.3-99.5 76.6-177.5 179.6-232 306.2-10.1 23.6-9.1 50.6 2.8 76 13.7 29.4 40.2 52.9 69.2 61.5 54.6 16.3 108-11.8 133-69.8 34.8-80.9 92.7-153 172.2-214.1 20.6-15.9 33.1-40.5 35-69.3 2.2-32.1-9.4-65-30.2-86-21-21.2-47.3-31.8-74.7-31.8" style="fill:#211d1d;fill-opacity:1;fill-rule:nonzero;stroke:none" transform="matrix(.0117 .00013 .00017 -.00855 -264.398 69.525)"/><path d="M26985.5 7311.2c-39-23-43.9-68.9-26.1-106.5 57.4-120.6 144.3-218.6 251.6-297.1 34.1-24.9 86.5-3.7 105.6 29.5 23 39.9 4.2 81.1-29.5 105.6-85.6 62.6-149.8 147.2-195.1 242.4-18.1 38.1-73 45.8-106.5 26.1" style="fill:#e9f5f5;fill-opacity:1;fill-rule:nonzero;stroke:none" transform="matrix(.0117 .00013 .00017 -.00855 -264.398 69.525)"/><path d="M27001.1 7284.9c-26.5-15.6-24.1-45.9-14.1-67 52.5-110.5 133.9-206.6 242.1-285.6 8.3-6.1 18.6-5.5 25.8-4 14.5 3.1 28.7 12.8 35.3 24.1 19.4 33.6-14.1 60.6-21.1 65.7-85.4 62.4-154.3 147.8-204.7 253.9-4.7 9.8-14.3 14.5-21.5 16.8-13.9 4.2-30.7 2.7-41.8-3.9m244.7-418.7c-19.4 0-37.7 5.7-52.8 16.8-116.4 85.1-204.3 188.9-261.2 308.6-26.9 56.7-11.2 116.7 38.2 145.9 25.8 15.2 60.5 18.9 90.7 9.7 26.9-8.2 47.8-25.6 58.9-49 46-96.8 108.4-174.4 185.6-230.8 51.3-37.5 66.5-96 37.9-145.6-15.2-26.2-44.1-46.6-75.6-53.3-7.4-1.5-14.6-2.3-21.7-2.3" style="fill:#211d1d;fill-opacity:1;fill-rule:nonzero;stroke:none" transform="matrix(.0117 .00013 .00017 -.00855 -264.398 69.525)"/><path d="M26943 7027.3c-86 67.1-154.2 147.4-205.6 243.6-47.1 88-179.6 7.6-132.6-80.4 56.9-106.4 135.1-200.2 230.3-274.6 33.2-25.9 77.9-30.2 109.6 1.8 27.1 27.3 31.2 83.9-1.7 109.6" style="fill:#e9f5f5;fill-opacity:1;fill-rule:nonzero;stroke:none" transform="matrix(.0117 .00013 .00017 -.00855 -264.398 69.525)"/><path d="M26677.8 7278.4c-10.2 0-19.2-4-23.3-6.2-15.8-8.5-40.9-33.4-22.8-67.3 55.7-104.1 130.4-193.2 222.2-264.9 19.1-14.9 47.2-22.9 69.1-.8 8.5 8.5 13.6 24 12.7 38.5-.4 6.5-2.5 18.4-11.5 25.5-90.5 70.6-160.4 153.5-213.8 253.3-9.1 17.2-21.6 21.9-32.6 21.9m213.6-413.8c-25.5 0-51.8 9.1-75.1 27.2-98.5 77-178.7 172.7-238.5 284.3-33.5 62.9-.4 124.2 47.9 150 45.1 24.1 107.3 17.9 138.6-40.8 49.3-92.1 113.9-168.6 197.5-234 20.6-16.1 33-40.9 34.9-69.7 2-31.8-9.6-64.6-30.3-85.4-20.7-21-47.4-31.6-75-31.6" style="fill:#211d1d;fill-opacity:1;fill-rule:nonzero;stroke:none" transform="matrix(.0117 .00013 .00017 -.00855 -264.398 69.525)"/><path d="M26608 7003.3c-80.5 78.8-147.1 167-201.9 265.4-48.5 87.2-181.1 6.9-132.6-80.3 60.8-109.3 137.3-208.9 226.7-296.4 71.4-69.9 179.2 41.4 107.8 111.3" style="fill:#e9f5f5;fill-opacity:1;fill-rule:nonzero;stroke:none" transform="matrix(.0117 .00013 .00017 -.00855 -264.398 69.525)"/><path d="M26345.8 7275.8c-17.5 0-36.3-11.1-45.9-27.1-8.6-14.4-8.5-29.6.3-45.5 58.9-105.9 133.4-203.2 221.4-289.4 30.5-29.9 60.6-1 63.9 2.4 3.4 3.5 32.3 34.8 1.2 65.3-82.4 80.7-150.2 169.8-207.3 272.4-7.9 14.3-19 21.7-32.9 21.9zm205-436.7c-24.5 0-49.7 9.2-72 31-92.2 90.3-170.2 192.4-232 303.4-19.3 34.8-19.1 73.6.7 106.6 21 35.1 60.1 57.8 100 56.8 35.7-.6 66.8-20 85.3-53.3 54.2-97.4 118.5-181.9 196.6-258.5 49.7-48.6 37.5-113.1-.3-151.6-20.4-20.9-48.8-34.4-78.3-34.4" style="fill:#211d1d;fill-opacity:1;fill-rule:nonzero;stroke:none" transform="matrix(.0117 .00013 .00017 -.00855 -264.398 69.525)"/><path d="M25958.7 7165.8c48.9-107.2 122.6-201.6 214.3-275.5 77.1-62.2 185.6 48.6 107.8 111.3-82.9 66.9-145.3 147.6-189.5 244.5-17.5 38.4-73.4 45.6-106.5 26.1-39.4-23.3-43.3-68.6-26.1-106.4" style="fill:#e9f5f5;fill-opacity:1;fill-rule:nonzero;stroke:none" transform="matrix(.0117 .00013 .00017 -.00855 -264.398 69.525)"/><path d="M25986.5 7178.4c46.6-102.1 117.7-193.5 205.6-264.3 18.8-15.2 37.2-12.7 49.4-8 18.2 7 32.7 23.3 35.2 39.6 1.9 11.9-3 22.5-15 32.1-86.8 70-151.6 153.6-198.2 255.6-4.2 9.4-13.5 14-20.5 16.2-14.2 4.5-31.3 3-42.6-3.7-33.5-19.7-17.5-59.7-13.9-67.5m236.5-337c-24.6 0-48.6 8.5-69.2 25.1-95.3 76.8-172.4 175.9-222.9 286.6-26.4 57.8-10.9 116.3 38.4 145.4 26.1 15.4 61.4 19 92 9.4 26.7-8.4 47.2-25.8 57.8-49.1 42.5-93.2 101.7-169.6 180.9-233.4 28.8-23.2 42.3-55.7 37.1-89.2-5.9-37.9-34.8-72.1-73.6-87.1-13.4-5.2-27-7.7-40.5-7.7" style="fill:#211d1d;fill-opacity:1;fill-rule:nonzero;stroke:none" transform="matrix(.0117 .00013 .00017 -.00855 -264.398 69.525)"/><path d="M25644.6 7190.4c38.5-115.3 103.2-217.7 192.8-300.1 73.4-67.5 181.4 43.7 107.8 111.4-70 64.4-121.6 141.8-151.8 232.3-31.4 94.3-180.5 51.4-148.8-43.6" style="fill:#e9f5f5;fill-opacity:1;fill-rule:nonzero;stroke:none" transform="matrix(.0117 .00013 .00017 -.00855 -264.398 69.525)"/><path d="M25720.8 7256.2c-7.1 0-13.8-1.3-19.2-3-9.6-3.3-40.2-16.6-28-53.1 37.5-112.6 99.6-209.2 184.5-287.3 13.1-12.1 27.6-15.7 43.2-10.9 17.9 5.6 33.1 21.8 37 39.2 3.2 14-1.5 26.8-13.7 38.1-75.1 69-128.9 151.5-160.1 245.1-8.3 24.8-27.1 31.9-43.7 31.9m167.5-417.4c-25.8 0-50.8 9.9-71.6 29-92.6 85.2-160.2 190.5-201.1 312.9-21.3 63.9 17.5 114 66.7 130.4 51.3 17.2 117.9-.7 140.1-67.4 27.9-83.8 76.2-157.6 143.5-219.5 28.3-26 40-61.2 32.1-96.4-8.7-38.9-39.5-72-78.5-84.2q-15.6-4.8-31.2-4.8" style="fill:#211d1d;fill-opacity:1;fill-rule:nonzero;stroke:none" transform="matrix(.0117 .00013 .00017 -.00855 -264.398 69.525)"/><path d="M25598.2 6990.1c-86.7 78.8-153.1 171.4-201.6 278.1-17.4 38.4-73.5 45.6-106.5 26.1-39.5-23.3-43.3-68.6-26.1-106.5 53.4-117.5 130.8-222.2 226.4-309 73.8-67.1 181.9 44.1 107.8 111.3" style="fill:#e9f5f5;fill-opacity:1;fill-rule:nonzero;stroke:none" transform="matrix(.0117 .00013 .00017 -.00855 -264.398 69.525)"/><path d="M25331.1 7274.2c-9.4 0-18.5-2.1-25.4-6.2-33.5-19.7-17.4-59.7-13.9-67.5 51.4-113.1 125.1-213.7 219.1-299.1 13.3-12.1 28.1-15.7 43.8-10.6 18 5.7 33.2 21.9 37 39.2 2.9 13.8-1.8 26.4-14 37.5-89.4 81.2-157.8 175.5-208.9 288.1-4.2 9.3-13.5 13.9-20.4 16.1-5.5 1.7-11.5 2.5-17.3 2.5m210.2-446.7c-25.7 0-50.7 9.8-71.5 28.7-100.2 91-178.8 198.3-233.6 319-26.3 57.9-10.9 116.3 38.4 145.4 26.1 15.4 61.4 19 92.1 9.3 26.7-8.4 47.1-25.8 57.7-49.1 47.7-104.9 111.2-192.5 194.4-268.1 28.3-25.7 40.2-60.6 32.6-95.6-8.5-38.9-39.1-72.1-78.1-84.5-10.6-3.4-21.4-5.1-32-5.1" style="fill:#211d1d;fill-opacity:1;fill-rule:nonzero;stroke:none" transform="matrix(.0117 .00013 .00017 -.00855 -264.398 69.525)"/><path d="M24943.2 7182.4c29-102.9 82.7-196 157.4-271.7 7.2-20.5 24-37.5 52.4-43.6l9.6-2.1c72.2-15.4 133.6 76.7 73.3 130.8-70.1 62.9-118.4 139.4-143.9 230.2-27 95.9-175.9 52.7-148.8-43.6" style="fill:#e9f5f5;fill-opacity:1;fill-rule:nonzero;stroke:none" transform="matrix(.0117 .00013 .00017 -.00855 -264.398 69.525)"/><path d="M25021.9 7249.3c-14.6 0-29.9-6-40-16.4-10.9-11.2-14-25.4-9.3-42.3 27.5-97.6 79.3-187 149.8-258.4l4.8-4.9 2.2-6.5c4.4-12.5 14.5-20.5 30-23.8l9.5-2.1c25.5-5.4 46.8 11.1 55.8 28.7 5.4 10.5 11.3 31-9.2 49.4-74.6 67-126.1 149.3-152.9 244.7-4.6 16.3-14.2 26.4-28.7 30.1q-5.85 1.5-12 1.5m156.6-416.5c-7.4 0-14.9.8-22.3 2.4l-9.6 2c-34.1 7.3-59.4 27.3-72.1 56.6-75.5 78-131 174.8-160.7 280.3-10.6 37.7-1.7 74.7 24.4 101.5 28.3 29 71.8 41.4 110.8 31.4 35.6-9 62-35.6 72.4-72.8 23.7-84 69-156.6 134.9-215.7 35.6-31.9 44.5-80 22.8-122.6-19.9-39.2-59.3-63.1-100.6-63.1" style="fill:#211d1d;fill-opacity:1;fill-rule:nonzero;stroke:none" transform="matrix(.0117 .00013 .00017 -.00855 -264.398 69.525)"/><path d="M24648.4 7137.3c43.3-94.7 99.8-179.8 166.9-259.2 27.1-32 82.6-26.2 109.6 1.8 31.6 32.5 25.4 77.5-1.7 109.6-58.2 68.8-104.8 146.3-142.2 228.2-17.4 38.1-73.7 46-106.5 26.1-39.2-23.8-43.6-68.3-26.1-106.5" style="fill:#e9f5f5;fill-opacity:1;fill-rule:nonzero;stroke:none" transform="matrix(.0117 .00013 .00017 -.00855 -264.398 69.525)"/><path d="M24715.1 7223.8c-9.1 0-18.1-2.1-24.8-6.1-32.7-19.9-19.1-56.8-14.1-67.7 40.1-87.8 93.3-170.3 162.5-252.2 7.5-8.9 19.4-10.6 25.8-10.8 14.7-.6 29.7 5 38.5 14.1 21.6 22.3 11.8 50.9-3.1 68.6-56.5 66.9-105.9 146.1-146.7 235.3-4.3 9.5-13.9 14.1-21.1 16.4-5.5 1.6-11.3 2.4-17 2.4m151.3-397.9h-4c-28.5 1-53.5 12.5-70.4 32.5-72.8 86.2-128.9 173.3-171.4 266.2-26.2 57.2-10.9 115.6 38.1 145.3 25.6 15.5 60.6 19.3 91.3 9.9 27.2-8.4 48-25.9 58.8-49.4 38.5-84.2 84.8-158.6 137.7-221.2 40.1-47.5 40.3-109.4.4-150.6-20-20.7-49.9-32.7-80.5-32.7" style="fill:#211d1d;fill-opacity:1;fill-rule:nonzero;stroke:none" transform="matrix(.0117 .00013 .00017 -.00855 -264.398 69.525)"/><path d="M24565.8 6971.1c-68.4 69.4-118.4 151.3-148.6 243.9-30.9 94.6-179.9 51.7-148.8-43.6 38.6-118.1 102.3-223.1 189.5-311.6 70.1-71.3 177.9 40.2 107.9 111.3" style="fill:#e9f5f5;fill-opacity:1;fill-rule:nonzero;stroke:none" transform="matrix(.0117 .00013 .00017 -.00855 -264.398 69.525)"/><path d="M24344.8 7237.4c-6.9 0-13.4-1.2-18.6-2.9-7-2.3-41.2-15.6-28.8-53.6 37.2-113.8 98.5-214.6 182.3-299.7 28.4-28.8 56.4-4.2 61.7 1.1 13 12.8 28.2 41.4 2.6 67.4-71.8 72.9-124.2 159-155.8 255.8-8.1 24.8-26.9 31.9-43.4 31.9m163.6-431.1c-24.7 0-50.1 9.5-72.3 32-90.4 91.9-156.6 200.8-196.7 323.7-21 64.3 18.2 114.3 67.9 130.5 51.1 16.7 117.2-1.4 139-68 28.6-87.8 76.2-165.9 141.2-231.9 48.9-49.7 34.9-116.4-3.2-153.9-20.1-19.7-47.5-32.4-75.9-32.4" style="fill:#211d1d;fill-opacity:1;fill-rule:nonzero;stroke:none" transform="matrix(.0117 .00013 .00017 -.00855 -264.398 69.525)"/><path d="M23940.2 7159.3c32.2-109.9 89.2-207.4 167.6-290.6 52.5-55.6 153.6 4.8 128.4 77.5-.7 1.9-1.3 3.8-2 5.7-5.7 16.5-15.2 28.8-26.6 37.3-55.7 61.8-95.1 133.5-118.6 213.7-28.1 95.6-177 52.4-148.8-43.6" style="fill:#e9f5f5;fill-opacity:1;fill-rule:nonzero;stroke:none" transform="matrix(.0117 .00013 .00017 -.00855 -264.398 69.525)"/><path d="M23969.5 7167.9c30.5-103.9 84.5-197.5 160.6-278.2 16.7-17.7 40.3-13.2 55.5-4 15.7 9.5 29.6 27.7 21.7 50.5l-2 5.7c-3.3 9.7-8.7 17.4-16 22.8l-2.4 1.8-2 2.2c-58.1 64.5-100.2 140.4-125.2 225.5-12.2 41.5-53.2 30.7-57.8 29.4-4.6-1.4-44.5-14.4-32.4-55.7m188.8-351.6c-27.1 0-53.1 10.7-72.7 31.5-82.7 87.7-141.5 189.6-174.7 302.9-19.5 66.4 22.4 116.4 73.8 131.5 51.6 15.2 114.1-4.3 133.6-70.7 22.1-75.5 59.2-142.7 110.2-199.8 15.9-12.7 27.5-29.4 34.6-49.8l1.9-5.7c16.1-46.3-3.1-95.7-47.7-122.8-18.9-11.4-39.2-17.1-59-17.1" style="fill:#211d1d;fill-opacity:1;fill-rule:nonzero;stroke:none" transform="matrix(.0117 .00013 .00017 -.00855 -264.398 69.525)"/><path d="M23905.7 6962.8c-59 73.9-106.2 157.9-140.1 246-35.6 92.3-184.8 49.8-148.8-43.6 38.8-100.6 89.6-191.8 153.1-277.5 3.8-9.1 9.6-18 18-26.3l9.9-9.9c29.9-29.7 80.4-27.8 109.6 1.7 32.6 32.9 24.3 77.1-1.7 109.6" style="fill:#e9f5f5;fill-opacity:1;fill-rule:nonzero;stroke:none" transform="matrix(.0117 .00013 .00017 -.00855 -264.398 69.525)"/><path d="M23689.9 7229.7c-16.4 0-32.6-6.6-41.4-17.6-7.8-9.6-8.8-21.3-3.2-35.9 37.4-97 86.2-185.4 149.2-270.3l2.2-3.1 1.5-3.5c2.3-5.8 6.1-11.2 11.2-16.3l10-9.9c8-8 19.3-12.4 31.6-12.4h.2c13.2 0 25.7 5.1 34.5 14 26.3 26.6 3.7 59.6-3.9 69.1-60 75.1-108.7 160.6-144.7 254-8.5 22.2-25.4 29.2-38.1 31.2-3 .5-6.1.7-9.1.7m161.1-430.1c-28.6 0-55.1 10.7-74.7 30.2l-10 9.9c-9.8 9.8-17.5 20.7-23 32.6-65.3 88.5-116 180.8-155 281.9-13.4 34.7-8.7 69.8 12.7 96.3 24.2 30.1 66.5 45.3 107.5 38.9 39.8-6.3 71-31.7 85.6-69.6 33.8-87.6 79.3-167.6 135.4-237.9 39.6-49.6 39.5-109.9-.4-150.2-20.1-20.3-48.4-32-77.6-32.1z" style="fill:#211d1d;fill-opacity:1;fill-rule:nonzero;stroke:none" transform="matrix(.0117 .00013 .00017 -.00855 -264.398 69.525)"/><path d="M23454.4 7109c-39.9 31.5-68.6 67.5-84.6 110.9-14.5 39.3-54.1 65-96.2 52.7-38.2-11.2-67.2-56.8-52.7-96.2 25.8-69.8 67-132.4 125.7-178.8 32.8-25.9 78.4-30.4 109.6 1.8 26.9 27.7 31.2 83.5-1.8 109.6" style="fill:#e9f5f5;fill-opacity:1;fill-rule:nonzero;stroke:none" transform="matrix(.0117 .00013 .00017 -.00855 -264.398 69.525)"/><path d="M23294.9 7245.1c-4.1 0-8.4-.6-12.8-1.9-11.9-3.4-23.2-13.4-29.5-26-3.1-6-7.5-18-3-30.3 25.5-69.1 64.5-124.7 115.9-165.3 19.7-15.5 48.5-21.9 68.7-1 8.7 8.9 13.9 24.6 12.9 39.1-.4 6.3-2.5 18.1-11.6 25.3-46 36.4-76.9 77.1-94.4 124.4-7.1 19.2-24.5 35.7-46.2 35.7m108.2-299.2c-25.6 0-52 9.2-75.5 27.7-60.3 47.7-105.8 112.4-135.3 192.2-9.3 25.1-7.3 53.2 5.7 78.9 13.9 27.6 38.9 49 67 57.2 55.1 16.1 112.5-14.6 133.4-71.4 13.5-36.4 38-68.4 75-97.6 20.5-16.2 32.8-40.8 34.7-69.2 2.1-32-9.1-64-30-85.6-20.7-21.4-47.4-32.2-75-32.2" style="fill:#211d1d;fill-opacity:1;fill-rule:nonzero;stroke:none" transform="matrix(.0117 .00013 .00017 -.00855 -264.398 69.525)"/><path d="M39168.6 8195.9c-332.5-38.4-1005.6-71.6-985.3-906.5 20.4-835 814.4-986.5 1201.6-977.5 400.4 9.3 1201.2 44.1 1358.4 688.9 24.3 99.5-54.8 194.4-157.1 191.2l-525.7-16.3c-496.9 5.5-861.4 448.9-793 923 8.1 56.4-41.3 104.1-97.9 97.4z" style="fill:#d6eceb;fill-opacity:1;fill-rule:nonzero;stroke:none" transform="matrix(.0117 .00013 .00017 -.00855 -264.398 69.525)"/><path d="M40476.3 7752.7c79.6-104.4 244.5-6.1 190.1 113.3-44.9 98.8-123.9 201.8-255.2 300.5-81.9 61.4-184 90.2-312.5 84-127.3-6.1-150.2-186.2-27-218.9 71.8-19.1 139.3-45.8 194.6-82.9 90-60.5 158.2-128.2 210-196" style="fill:#fff;fill-opacity:1;fill-rule:nonzero;stroke:none" transform="matrix(.0117 .00013 .00017 -.00855 -264.398 69.525)"/><path d="M39420.2 6280.1c-268.5 0-498.5 42.8-686.4 127.9-213.8 96.8-379.3 251.4-492 459.5-57.9 106.8-87.8 236.2-89.1 384.7 0 6.2-1.5 157.1 26.1 307.4 3 16.6 18.9 27.6 35.5 24.6 16.6-3.1 27.6-19 24.6-35.6-26.5-144.5-25.1-294.3-25.1-295.8 1.2-138.5 28.7-258.3 81.7-356.2 234.4-432.7 691.6-609.8 1397.6-541.7 19.5 2.8 536.4 77.6 812.3 313.6 12.8 11 32.1 9.5 43.1-3.3 10.9-12.8 9.4-32.1-3.4-43.1-293.6-251.1-822-324.8-844.3-327.8l-1.2-.1c-97.2-9.4-190.4-14.1-279.4-14.1" style="fill:#211d1d;fill-opacity:1;fill-rule:nonzero;stroke:none" transform="matrix(.0117 .00013 .00017 -.00855 -264.398 69.525)"/></g></svg>