<svg xmlns="http://www.w3.org/2000/svg" width="200mm" height="200mm" viewBox="0 0 200 200"><g style="display:inline"><path d="m8037.63 34225.2-1342.64 1222.9c-29.2 26.8-91.91 49.9-31.66 121.7l18.79 20.5c63.45 72.3 111.63 21.3 140.83-5.5L8154.69 34365c29.21-26.8 79.48-68.3 17.78-139.8-59.53-69-105.64-26.8-134.84 0m205.27 299.2-1252.21 1126.4c-72.73 66.6-213.21 247.9-372.72 73.7-147.02-160.5-219.93-274.3-89.92-370.5l1437.61-1298.5c74.39-59 179.24-38.1 324.51 109.9 165.49 168.7 25.46 292.4-47.27 359" style="fill:#d0e8e8;fill-opacity:1;fill-rule:nonzero;stroke:none" transform="matrix(.01997 0 0 -.01997 -21.413 806.082)"/><path d="m6747.48 35608.7-2.03-.1c-15.52-.8-32.1-11.1-49.25-30.7l-19.06-20.8c-14.52-17.3-21.49-32.1-20.18-43.5 1.61-14 17.21-25.6 32.29-36.9 6.27-4.7 12.76-9.6 18.39-14.8L8050.28 34239c16.46-15.1 36.82-33.8 59.37-32.5 15.33.9 31.7 11.3 48.64 30.9 47.8 55.4 16.72 83.7-13.33 111.1l-2.92 2.7-1335.99 1223.7c-16.26 15.1-36.39 33.8-58.57 33.8m1359.85-1439.8c-36.02 0-63.72 25.4-82.32 42.4l-1342.63 1223c-4.31 3.9-9.79 8-15.59 12.4-19.42 14.5-43.59 32.6-47.04 62.6-2.57 22.3 6.99 46 29.23 72.5l19.33 21.1c23.81 27.2 49.21 41.8 75.21 43.1 38.81 1.9 68.39-25.4 87.99-43.6l4.1-3.8 1334.58-1222.4c28.59-26 88.09-80.2 16.46-163.3-23.81-27.6-48.97-42.3-74.8-43.8-1.52-.1-3.03-.2-4.52-.2m-129.57-99.1c72.05-56.6 172.66-20.1 299.04 108.7 49.12 50.1 73.38 99.7 72.09 147.5-2.09 77.9-70.4 140.4-115.6 181.8l-2.97 2.7-1252.16 1126.4c-8.6 7.8-17.92 17.1-27.79 26.8-50.06 49.6-118.61 117.4-195.16 115.6-42.48-1.1-82.86-23.1-123.43-67.4-95.92-104.7-158.49-188.1-152.07-254.7 3.08-32 22.54-60.8 59.48-88.1l1.41-1.2zm73.28-63.9c-35.27 0-67.65 11.6-97.01 34.9l-.92.8-1436.95 1297.9c-45.48 33.9-69.6 71.2-73.74 114.1-7.77 80.6 56.12 168.3 161.74 283.6 47.15 51.5 97.67 78.2 150.13 79.5 92.27 2.3 170.69-75.1 222.43-126.3 9.61-9.6 18.68-18.5 26.62-25.8l1255.23-1129.2c49.88-45.6 125.25-114.6 127.77-208.3 1.57-58.4-26.29-117.2-82.8-174.8-95.67-97.5-180.17-146.4-252.5-146.4" style="fill:#100f0d;fill-opacity:1;fill-rule:nonzero;stroke:none" transform="matrix(.01997 0 0 -.01997 -21.413 806.082)"/><path d="m8260.85 34022.4-60.02 55c-18.98 17.4-20.27 46.9-2.89 65.9l54.98 60c17.39 19 46.88 20.3 65.86 2.9l60.03-55c18.98-17.4 20.28-46.9 2.88-65.9l-54.97-60c-17.39-19-46.88-20.3-65.87-2.9" style="fill:#ce5e1d;fill-opacity:1;fill-rule:nonzero;stroke:none" transform="matrix(.01997 0 0 -.01997 -21.413 806.082)"/><path d="M8287.33 34199.7h-1.25c-7.44-.4-14.31-3.6-19.34-9.1l-54.98-60c-10.39-11.3-9.61-29 1.73-39.4l60.02-55c5.49-5 12.58-7.6 20.05-7.3 7.45.4 14.32 3.6 19.35 9.1l54.97 60c5.04 5.5 7.63 12.6 7.3 20-.33 7.5-3.53 14.4-9.02 19.4l-60.03 55c-5.18 4.7-11.82 7.3-18.8 7.3m4.95-208.2c-16.38 0-31.93 6-44.08 17.1l-60.02 55c-26.56 24.3-28.39 65.8-4.05 92.3l54.98 60c11.79 12.9 27.89 20.4 45.32 21.2s34.13-5.3 47.01-17.1l60.02-55c12.87-11.8 20.38-27.9 21.15-45.3.76-17.5-5.32-34.1-17.11-47l-54.97-60c-11.79-12.9-27.89-20.4-45.32-21.2z" style="fill:#100f0d;fill-opacity:1;fill-rule:nonzero;stroke:none" transform="matrix(.01997 0 0 -.01997 -21.413 806.082)"/><path d="m6519.58 35595.8-60.02 55c-18.98 17.3-20.28 46.8-2.89 65.8l54.99 60c17.38 19 46.87 20.3 65.85 2.9l60.02-54.9c18.99-17.4 20.28-46.9 2.89-65.9l-54.98-60c-17.38-19-46.87-20.3-65.86-2.9" style="fill:#ce5e1d;fill-opacity:1;fill-rule:nonzero;stroke:none" transform="matrix(.01997 0 0 -.01997 -21.413 806.082)"/><path d="M6532.24 35609.6c5.49-5 12.56-7.6 20.05-7.3 7.45.3 14.31 3.5 19.34 9l54.98 60c5.03 5.5 7.62 12.7 7.3 20.1-.33 7.4-3.53 14.3-9.03 19.3l-60.02 55c-5.49 5.1-12.57 7.6-20.06 7.3-7.44-.3-14.3-3.5-19.33-9l-54.98-60c-5.04-5.5-7.63-12.6-7.3-20.1.33-7.4 3.53-14.3 9.02-19.3zm18.77-44.8c-16.38 0-31.93 6-44.08 17.2l-60.02 54.9c-12.87 11.8-20.38 27.9-21.15 45.4-.76 17.4 5.31 34.1 17.11 47l54.97 60c11.79 12.9 27.89 20.4 45.33 21.1 17.45.8 34.13-5.3 47-17.1l60.02-54.9c12.87-11.8 20.38-27.9 21.14-45.4.76-17.4-5.3-34.1-17.09-47l-54.98-60c-11.79-12.9-27.89-20.4-45.33-21.1-.98-.1-1.95-.1-2.92-.1" style="fill:#100f0d;fill-opacity:1;fill-rule:nonzero;stroke:none" transform="matrix(.01997 0 0 -.01997 -21.413 806.082)"/><path d="M3897.78 31084.1c-104.89 95.9-102.27 247.6 32.03 394.3 134.49 146.9 340.72 241.4 470.71 127.4 130-114.1 64.62-283-69.68-429.9-134.49-146.7-328.35-187.9-433.06-91.8m4665.66 3161.4c-100.4 92-302.31-181.5-469.77-367.5-352.32-391.5-895.71-444.7-1381.77-97-558.18 399.3-974.37 1109.8-469.96 1660.3 109.2 119.3 601.83 486 258.87 583.8-141.23 40.3-464.15-317.5-570.92-429.3-216.35-226.8-361.51-481.7-392.79-799.2-42.7-433.5 366.2-813.5 288.46-1149.2-122.88-530.8-1189.78-1093.5-1593.62-1464.9-247.06-227.2-629.35-551.8-681.43-911.3-56-386.4 283.77-597.5 646.78-471.4 677.12 235.1 1015.02 1140.9 1406.68 1702.6 141.61 203.1 369.18 617.9 604.82 720.8 238.63 104.1 162.39 52.4 431.93-49.7 533.65-201.7 1106.62-104.1 1513.64 341.9 149.29 163.7 224.95 212.2 322.35 330.8 174.58 212.4 159.97 332.1 86.73 399.3" style="fill:#ce5e1d;fill-opacity:1;fill-rule:nonzero;stroke:none" transform="matrix(.01997 0 0 -.01997 -21.413 806.082)"/><path d="M4330.84 31175.9c-134.49-146.7-328.35-187.9-433.06-91.8-104.89 95.9-102.27 247.6 32.03 394.3 134.49 146.9 340.72 241.4 470.71 127.4 130-114.1 64.62-283-69.68-429.9m1386.64 1947.6-1584.81-1307.6c-73.43-59.3-146.85-124.5-213.35-195.7-66.31-71.2-125.31-148.2-170.07-231.5-21.92-41-33.16-86.6-33.16-132.6 0-12.4.75-24.9 2.45-37.3 8.98-68.6 39.14-130.6 83.72-179.3 44.77-48.5 104.14-83.7 171.57-98.5 95.72-21 195.74-2.8 277.78 50.4l3.18 2.1a948 948 0 0 1 259.99 249.8l1277.81 1810.4c34.84 49.4-28.66 108.2-75.11 69.8" style="fill:#de9450;fill-opacity:1;fill-rule:nonzero;stroke:none" transform="matrix(.01997 0 0 -.01997 -21.413 806.082)"/><path d="M4261.78 31637.7c-105.97 0-227.6-73.1-318.13-171.9-61.78-67.5-96.67-138.3-100.9-204.7-3.97-62.6 19.4-119 67.59-163.2 97.02-88.8 279.45-48.2 406.66 90.7 91.37 99.8 139.3 198.5 134.97 278.1-2.62 48-24.12 90.1-63.89 125-36.48 32-79.89 46-126.3 46m-221.15-623.8c-59.38 0-113.94 18.2-155.59 56.4-56.84 52.1-84.39 118.9-79.67 193.1 4.77 75.1 43.04 153.9 110.66 227.7 142.49 155.6 358.88 249.7 496.76 128.7 47.63-41.8 73.4-92.6 76.58-151.1 6.27-115-75.25-229.5-144.75-305.4l-13.81 12.7 13.81-12.7c-88.78-96.9-203.31-149.4-303.99-149.4m2435.31 4995.8c-129.65 0-399.85-286.4-504.94-397.8-10.31-10.9-19.56-20.7-27.6-29.1-235.78-247.1-358.95-497.5-387.62-788-21.13-214 70.14-414.1 158.4-607.7 87.16-191.1 169.49-371.6 129.61-543.9-87.1-376.1-621.56-755.3-1093.12-1089.8-197.44-140.1-383.93-272.4-506.02-384.7-17.8-16.4-36.31-33.3-55.33-50.6-241.76-220.6-572.85-522.6-620.29-849.6-23.46-161.6 23.51-300.2 132.27-390 123.37-101.9 306.49-124.7 489.82-61.1 495.78 172.2 815.39 722.5 1097.37 1208.1 102.14 175.9 198.62 342 300.18 487.7 27.55 39.5 58.93 88 92.16 139.2 137.5 212.3 325.81 503 520.54 588 172.58 75.3 189.01 72.4 285.97 22.6 35.41-18.2 83.89-43.1 160.05-71.9 175.52-66.4 351.73-98.9 522.67-98.9 366.63 0 709.29 149.6 970.52 435.9 71.63 78.5 126.3 130.6 174.54 176.5 51.99 49.6 96.89 92.3 147.19 153.5 141.45 172.1 171.2 297.8 88.39 373.6-10.88 10-22.9 14.2-37.74 13.4-80.06-4.7-208.58-153.3-321.96-284.5-27.64-31.9-56.21-65-83.33-95.1-177.91-197.6-403.81-312.4-653.28-331.9-253.03-19.7-513.48 60.6-753.33 232.2-400.9 286.8-662.62 672.1-700.09 1030.8-25.48 243.9 50.93 465 227.12 657.4 19.6 21.4 50.77 50.1 86.87 83.4 115.78 106.8 309.55 285.5 284.55 390.5-8.41 35.3-43.33 61.9-103.81 79.2-6.13 1.7-12.75 2.6-19.76 2.6m-2487.29-5265.2c-118.1 0-227.14 35.7-311.2 105.1-119.24 98.5-170.91 249.2-145.49 424.3 49.37 340.2 386.18 647.5 632.11 871.8 18.99 17.4 37.45 34.2 55.22 50.5 123.84 114 311.27 246.9 509.71 387.7 443.04 314.3 994.41 705.5 1078.29 1067.8 37.01 159.8-42.75 334.7-127.19 519.9-90.32 198-183.72 402.8-161.61 626.9 29.14 295.2 159.26 560.2 397.81 810.2 7.99 8.3 17.2 18.1 27.45 29 208 220.4 437.38 440.9 562.22 405.4 74.47-21.2 118.2-57 129.98-106.5 30.09-126.3-158.15-299.9-295.59-426.7-35.48-32.7-66.11-61-84.65-81.2-168.63-184.1-241.8-395.5-217.48-628.2 36.37-348.2 292.31-723.6 684.63-1004.3 470.02-336.3 1002.66-299.2 1356.97 94.4 26.86 29.8 54.05 61.2 82.83 94.5 124.01 143.5 252.25 291.8 348.13 297.4 24.98 1.4 46.9-6.3 65.22-23.1 100.17-91.8 71.66-234.8-84.76-425-51.75-63-97.41-106.5-150.28-156.9-47.8-45.5-101.98-97.1-172.71-174.7l-13.84 12.7 13.84-12.7c-393.78-431.5-967.29-561.1-1534.12-346.7-78.14 29.5-127.71 55-163.91 73.6-86.61 44.5-91.79 47.1-253.87-23.6-184.41-80.5-369.18-365.8-504.09-574-33.41-51.6-64.96-100.3-92.87-140.3-100.67-144.4-196.77-309.9-298.52-485.1-285.25-491.2-608.56-1047.9-1117.48-1224.7-72.55-25.1-145.22-37.5-214.75-37.5" style="fill:#100f0d;fill-opacity:1;fill-rule:nonzero;stroke:none" transform="matrix(.01997 0 0 -.01997 -21.413 806.082)"/><path d="M5918.34 35084.5c-260.02-656.9 333.61-1355.2 953.17-1571.2 328.17-114.4 637.71-147.9 951.13 7.2 98.26 48.6 243.5 134.2 174.82 12.5-66.63-118.1-260.24-174.9-380.86-212.3-713.23-221.2-1401.08 175.5-1748.95 795.9-174.42 311.1-269.26 585.8-116.75 919.1 37.32 81.6 133.93 339.7 220.51 326.7 124.87-18.8-26.62-211.2-53.07-277.9" style="fill:#de9450;fill-opacity:1;fill-rule:nonzero;stroke:none" transform="matrix(.01997 0 0 -.01997 -21.413 806.082)"/></g></svg>