<svg xmlns="http://www.w3.org/2000/svg" width="200mm" height="200mm" viewBox="0 0 200 200"><g style="display:inline"><path d="M5861.65 25827.1c-918.67 0-1638.89-399.6-1638.89-904.9 0-505.2 664.71-924.4 1583.39-924.4 893.78 0 1642.83 426.5 1699.83 914.6 1.59 13.6 2.75 27.3 3.25 41 16.06 438-728.89 873.7-1647.58 873.7" style="fill:#a5bfbd;fill-opacity:1;fill-rule:nonzero;stroke:none" transform="matrix(.0226 0 0 -.0226 -32.464 646.442)"/><path d="M5861.65 25808.3c-440.8 0-850.94-92.5-1154.88-260.6-300.04-165.9-465.28-388-465.28-625.5 0-241 155.57-466.7 438.08-635.6 291.41-174.1 691.5-270 1126.58-270 424.38 0 834.46 96.5 1154.71 271.9 307.83 168.6 499.73 396.8 526.52 626.1 1.65 14.2 2.67 27.1 3.13 39.4 4.43 121-53.09 247.1-166.36 364.6-286.81 297.5-860.86 489.7-1462.5 489.7m-55.5-1829.2c-441.74 0-848.66 97.8-1145.8 275.4-294.26 175.8-456.31 413-456.31 667.7 0 517.9 728.1 923.6 1657.61 923.6 611.3 0 1195.96-196.7 1489.46-501.2 120.5-125 181.65-260.5 176.83-391.9-.48-13.4-1.58-27.3-3.36-42.4-28.61-245.1-222.43-477.6-545.72-654.6-325.67-178.4-742.14-276.6-1172.71-276.6" style="fill:#100f0d;fill-opacity:1;fill-rule:nonzero;stroke:none" transform="matrix(.0226 0 0 -.0226 -32.464 646.442)"/><path d="M4266.57 27537.9c0-279.5 595.7-303.1 1083.27-217.3 665.72 117.2 998.98 256 967.75 452.7l-221.64 352.8-1070.78-6.3-689.93-343.4z" style="fill:#ebf6f6;fill-opacity:1;fill-rule:nonzero;stroke:none" transform="matrix(.0226 0 0 -.0226 -32.464 646.442)"/><path d="M4290.01 27534.7c.87-47 20.82-86.3 60.94-120 167.4-140.5 620.27-136.9 994.83-71 668.56 117.6 970.62 251.6 949.34 421.4l-212.07 337.5-1052.31-6.2-675.85-336.4zm579.97-281.1c-233.29 0-442.58 35.8-549.14 125.3-51.54 43.2-77.69 96.7-77.69 159v3.3l72.45 251.6 704 350.4 1089.24 6.3 231.13-367.8.75-4.7c32.65-205.8-271.7-353.6-986.84-479.4-155.85-27.4-325.42-44-483.9-44" style="fill:#100f0d;fill-opacity:1;fill-rule:nonzero;stroke:none" transform="matrix(.0226 0 0 -.0226 -32.464 646.442)"/><path d="M5220.06 27941.9c632.91 86.8 973.57 38.4 1098.26-171.4l5.79 1-100.37 311.3c-40.63 126-154.83 169.4-278.91 215.6-194.03 72.2-509.92 50.5-796.05 5.9-267.99-41.7-540.62-89.1-726.65-241.4-128.38-105.1-209.5-233.6-201.23-390.6l12.93-245.7c57.56 238.7 457.69 442.9 986.23 515.3" style="fill:#d3f0eb;fill-opacity:1;fill-rule:nonzero;stroke:none" transform="matrix(.0226 0 0 -.0226 -32.464 646.442)"/><path d="M5609.14 28323.4c-128.83 0-281.42-13.6-456.95-41-234.93-36.6-527.33-82.2-715.99-236.7-135.33-110.8-200.3-236-193.12-372.3l7.86-149.4c53.27 88.3 151.36 170.8 289.16 242.3 179.57 93.2 413.64 161.6 676.94 197.7 564.81 77.3 891.7 47.7 1054.2-100.9l-68.64 212.9c-37.63 116.8-148.33 158-265.52 201.6-82.09 30.5-191.75 45.8-327.94 45.8m-1389.48-1050.3-20.94 398c-7.96 151.1 62.47 288.7 209.34 409 198.02 162.1 497.03 208.7 737.3 246.2 368.67 57.4 640.26 55.1 807.22-7.1 121.94-45.4 248.05-92.3 292.3-229.6l108.14-335.4-45.91-8.4-7.89 13.3c-117.17 197.2-449.04 246.8-1076.15 160.8-524.19-71.8-913.07-272.1-967.66-498.5z" style="fill:#100f0d;fill-opacity:1;fill-rule:nonzero;stroke:none" transform="matrix(.0226 0 0 -.0226 -32.464 646.442)"/><path d="M5655.08 22957.6c-325.5 0-615.28 64.4-824.9 171.4-192.17 98.3-317.11 232.6-340.16 386.4-1.86 12.7-2.98 25.3-3.74 37.7h-.19c-50.05 266.7-92.69 593.6-128.06 956.8 75.12-94.1 176.67-180.3 302.32-255.4 297.14-177.6 704.06-275.4 1145.8-275.4 430.57 0 847.04 98.2 1172.71 276.6 158.72 86.9 286.23 187.2 378.31 295.8 21.63-89.9 41.53-177.2 59.54-261.6 26.05-54.1 39.34-117.8 38.78-192.3v-4.9c-1.13-67.8-12.17-135.6-32.97-202.7-38.95-125.7-111.81-248-216.34-360.7-221.96-239.6-586.65-435.5-1071.39-526.4-69.5-13.1-138.62-23.2-206.61-30.5-93.08-10-184.42-14.8-273.1-14.8m-1355.49 2279.9c-43.81 668.7-67.4 1396.6-71.26 2071.6l27.08 112.3c2.23 9.2 5.03 18.5 8.37 27.6 12.96-25.7 32.01-49.1 57.06-70.1 106.56-89.5 315.85-125.3 549.14-125.3 158.48 0 328.05 16.6 483.9 44 646.05 113.6 956.84 245.3 986.8 421.3 260.22-702.2 526.05-1464.3 740.26-2167.8-316.94 183.9-760.63 294.7-1219.29 294.7-729.86 0-1335.55-250.1-1562.06-608.3" style="fill:#f9fdfc;fill-opacity:1;fill-rule:nonzero;stroke:none" transform="matrix(.0226 0 0 -.0226 -32.464 646.442)"/><path d="M5806.15 24016.6c-435.08 0-835.17 95.9-1126.58 270-143.48 85.8-254.22 186.2-328.46 295.9-17.58 187.9-33.25 385-47.04 587.8 73.55 141.8 210.45 271.1 402.7 377.4 303.94 168.1 714.08 260.6 1154.88 260.6 469.85 0 922.86-117.2 1235.39-310.3 95.43-315.9 180.1-619.4 248.67-899.4-90.71-114.3-221.45-220.6-384.85-310.1-320.25-175.4-730.33-271.9-1154.71-271.9" style="fill:#c8dcd9;fill-opacity:1;fill-rule:nonzero;stroke:none" transform="matrix(.0226 0 0 -.0226 -32.464 646.442)"/><path d="M5806.15 23979.1c-441.74 0-848.66 97.8-1145.8 275.4-125.65 75.1-227.2 161.3-302.32 255.4-2.34 24-4.65 48.2-6.92 72.6 74.24-109.7 184.98-210.1 328.46-295.9 291.41-174.1 691.5-270 1126.58-270 424.38 0 834.46 96.5 1154.71 271.9 163.4 89.5 294.14 195.8 384.85 310.1 3.88-15.8 7.69-31.5 11.46-47.1-92.08-108.6-219.59-208.9-378.31-295.8-325.67-178.4-742.14-276.6-1172.71-276.6m-1502.08 1191.2c-1.52 22.4-3.01 44.7-4.48 67.2 226.51 358.2 832.2 608.3 1562.06 608.3 458.66 0 902.35-110.8 1219.29-294.7 5.4-17.7 10.77-35.4 16.1-53.1-312.53 193.1-765.54 310.3-1235.39 310.3-440.8 0-850.94-92.5-1154.88-260.6-192.25-106.3-329.15-235.6-402.7-377.4" style="fill:#686f70;fill-opacity:1;fill-rule:nonzero;stroke:none" transform="matrix(.0226 0 0 -.0226 -32.464 646.442)"/><path d="M4864.43 27299.7c-220.24 0-415.64 32.9-513.48 115-32.12 27-51.32 57.5-58.14 92.8 119.8 189.8 473.71 349.9 930.26 412.4 196.12 26.9 363.31 40.5 504.14 40.5 294.43 0 473.48-59.5 559.53-182l8.38-13.3c21.28-169.8-280.78-303.8-949.34-421.4-155.64-27.4-324.77-44-481.35-44" style="fill:#ecf8f7;fill-opacity:1;fill-rule:nonzero;stroke:none" transform="matrix(.0226 0 0 -.0226 -32.464 646.442)"/><path d="M4869.98 27253.6c-233.29 0-442.58 35.8-549.14 125.3-25.05 21-44.1 44.4-57.06 70.1 7.19 19.8 16.91 39.3 29.03 58.5 6.82-35.3 26.02-65.8 58.14-92.8 97.84-82.1 293.24-115 513.48-115 156.58 0 325.71 16.6 481.35 44 668.56 117.6 970.62 251.6 949.34 421.4l-8.38 13.3c4.41-6.3 8.56-12.7 12.48-19.3l7.89-13.3 22.09 4.1c3.83-10.4 7.65-20.6 11.48-31-29.96-176-340.75-307.7-986.8-421.3-155.85-27.4-325.42-44-483.9-44" style="fill:#686f70;fill-opacity:1;fill-rule:nonzero;stroke:none" transform="matrix(.0226 0 0 -.0226 -32.464 646.442)"/><path d="m4228.33 27309.1-.15 29.1c-13.5 113.7 52.25 222.5 175.5 316.9 126.43 96.7 313.18 177.9 537.77 233.8 87.65 21.7 180.94 39.7 278.71 53 197.3 27 366.24 41 509.04 41 158.7 0 285.13-17.2 382.54-52.8 42.9-15.6 80.18-34.7 112.02-57.7h.18c45.32-32.4 79.6-72.1 104.14-119.5.37-1 .75-2 1.12-3l-22.09-4.1-7.89 13.3c-3.92 6.6-8.07 13-12.48 19.3-86.05 122.5-265.1 182-559.53 182-140.83 0-308.02-13.6-504.14-40.5-456.55-62.5-810.46-222.6-930.26-412.4-12.12-19.2-21.84-38.7-29.03-58.5-3.34-9.1-6.14-18.4-8.37-27.6z" style="fill:#686f70;fill-opacity:1;fill-rule:nonzero;stroke:none" transform="matrix(.0226 0 0 -.0226 -32.464 646.442)"/><path d="M5599.08 24388.4c-370.68-94.4-684.98-225.8-884.28-391.2-153.4 1232.6-259.61 2452.6-311.12 3657.9 126.44 96.7 313.18 177.9 537.77 233.8 189.17-1190.9 407.76-2358.2 657.63-3500.5M6223.94 27872.4c403.65-1221.5 764.4-2379.6 1051.55-3429.3-75.67 47.1-172.7 77.2-286.39 93.5-243.5 1070.1-540.2 2206.7-877.36 3393.5 42.9-15.6 80.17-34.7 112.01-57.7z" style="fill:#fff;fill-opacity:1;fill-rule:nonzero;stroke:none" transform="matrix(.0226 0 0 -.0226 -32.464 646.442)"/><path d="m4507.72 23580.8 1.9-26.1c.92-14 2.08-25.4 3.65-35.8 16.33-108.9 89.17-212.2 210.64-298.6 309.78-220.3 861.86-296.6 1406.5-194.4 392.48 73.7 724.17 220 959.2 423.3 217.02 187.7 338.65 416.4 342.47 643.9l-.03 3 .01 1.6c.6 69.1-11.66 130.4-36.44 182.1l-1.2 2.5-.58 2.8c-219.82 1029.6-712.39 2448.6-1087.13 3458.3-109.09 209-443.4 263.1-1083.47 175.3-593.06-81.2-1001.79-324.2-971.87-577.8l.16-2.6c7.42-1488.6 106.67-2958.7 253.33-3758zm1147.09-646.3c-382.3 0-731.86 86.8-958.04 247.7-132.08 93.9-211.55 207.9-229.81 329.7-1.65 11.1-2.9 22.8-3.88 36.9-149.41 796.1-250.81 2282.9-258.37 3788-32.1 283.9 383.74 542.2 1012.17 628.3 672.98 92.3 1011.56 32 1132.08-201.5l1.15-2.6c375.01-1010.3 868.18-2430.9 1088.95-3463.5 26.61-56.6 40.01-122.6 39.85-196.3l5.22-15.7-5.45-2.7c-7.21-237.9-134.2-475.1-358.44-669-241.29-208.7-580.58-358.7-981.2-433.9-162.7-30.6-326.28-45.4-484.23-45.4" style="fill:#100f0d;fill-opacity:1;fill-rule:nonzero;stroke:none" transform="matrix(.0226 0 0 -.0226 -32.464 646.442)"/><path d="M6750.58 24529.5c-220.19 0-497.16-32-837.07-95.8-936.34-175.7-1459.79-517.7-1400.24-914.8 16.33-108.9 89.17-212.2 210.64-298.6 309.77-220.3 861.85-296.6 1406.5-194.4 392.48 73.7 724.17 220 959.2 423.3 217.02 187.7 338.65 416.4 342.47 643.9 2.16 128.3-37.67 225.2-121.75 296.1-110.88 93.6-293.93 140.3-559.75 140.3m-1095.77-1595c-382.3 0-731.86 86.8-958.04 247.7-132.08 93.9-211.55 207.9-229.81 329.7-34.25 228.4 94.2 433.1 381.79 608.5 249.58 152.3 614.79 276.5 1056.12 359.3 765.16 143.6 1221.35 126.2 1435.67-54.7 94.18-79.5 140.73-191.4 138.36-332.7-4.05-241-131.42-482-358.66-678.5-241.29-208.7-580.58-358.7-981.2-433.9-162.7-30.6-326.28-45.4-484.23-45.4" style="fill:#100f0d;fill-opacity:1;fill-rule:nonzero;stroke:none" transform="matrix(.0226 0 0 -.0226 -32.464 646.442)"/><path d="M7506.06 24912.3c0-978.5-220.84-2651.3-481.38-4078.8-7.31-106.5-79.42-222.7-198.55-327.8-64.99-57.7-144.22-112-234.5-159.7-208.67-110.6-476.52-186.2-767.78-186.2-49.45 0-97.78 1.7-144.79 5-263.73 18.6-490.93 87.7-659.14 189-196.48 118.2-312.61 280.6-312.61 457.8-243.13 1417.4-484.57 3043.2-484.57 4110.7 0-165.6 75.86-318.8 210.16-448.3 197.05-190.3 519.97-329.2 913.5-381.1 156.97-20.8 325.17-27.7 501.05-18.4 408.33 21.7 778.83 123.1 1065.79 260.8 157.15 75.4 289.2 161.8 388.66 251.7v.2c118.38 106.9 190.49 219.3 204.16 325.1" style="fill:#d0e8e8;fill-opacity:1;fill-rule:nonzero;stroke:none" transform="matrix(.0226 0 0 -.0226 -32.464 646.442)"/><path d="M4244.29 24714.3c22.54-866.1 180.66-2145.8 481.48-3899.5l.27-3.2c0-167.1 107.8-324 303.54-441.7 172.86-104.2 397.9-168.6 650.79-186.4 46.33-3.3 94.6-5 143.48-5 265.43 0 534.98 65.4 759.01 184 88.22 46.7 165.89 99.6 230.84 157.2 117.17 103.4 185.45 215.3 192.3 315.1l.25 2.1c278.94 1528.3 463.67 3055.1 479.92 3951.5-34.5-69.7-90.3-140.5-165.54-209.5l-6.17-5.8c-101.78-92-237.72-180.1-393.11-254.7-310.61-149.1-691.64-242.3-1072.9-262.6-172.75-9.2-342.47-3-504.51 18.5-391.4 51.6-719.57 188.8-924.05 386.3-80.87 77.9-139.91 163.6-175.6 253.7m1579.56-4573.2c-49.77 0-98.94 1.7-146.13 5.1-258.75 18.1-489.56 84.4-667.47 191.6-206.81 124.4-320.99 292-321.67 472.2-326.08 1901.2-484.57 3246.2-484.57 4112.3h37.46c0-155.6 70.69-305.9 204.43-434.8 198.77-191.9 519.44-325.5 902.95-376.1 159.77-21.1 327.19-27.2 497.61-18.2 376.45 20.1 752.42 112 1058.68 258.9 149.54 71.9 280.41 156.2 378.99 244.1l5.21 4.9c116.74 105.4 185.26 213.9 198.15 313.6l37.3-2.4c0-876.4-188.97-2478.2-481.49-4081.1-7.93-109.5-80.61-230-204.77-339.5-67.15-59.6-147.29-114.2-238.14-162.3-229.33-121.5-505.11-188.3-776.54-188.3" style="fill:#100f0d;fill-opacity:1;fill-rule:nonzero;stroke:none" transform="matrix(.0226 0 0 -.0226 -32.464 646.442)"/><path d="M5679.06 20164.8c-263.73 18.6-490.93 87.7-659.14 189-229.26 803-486.06 3138.6-587.02 4120.2 197.05-190.3 519.97-329.2 913.5-381.1zM7301.9 24587c-130.74-1553.3-278.72-2986.6-475.77-4081.3-64.99-57.7-144.22-112-234.5-159.7 188.8 1189.2 280.21 2546 321.61 3989.3 157.15 75.4 289.2 161.8 388.66 251.7" style="fill:#fff;fill-opacity:1;fill-rule:nonzero;stroke:none" transform="matrix(.0226 0 0 -.0226 -32.464 646.442)"/><path d="M4244.31 24714.3c22.55-866.2 180.68-2145.9 481.53-3899.6l.27-3.1c0-355 482.18-633.1 1097.73-633.1 296.02 0 589.36 78.8 825.98 221.8 213.27 128.9 346.42 291.3 356.18 434.5l.25 2.1c278.82 1527.7 463.5 3054.2 479.82 3950.8-73.15-148-241.24-298.5-481.02-426.9-325.75-174.4-736.52-282.7-1156.63-305l-.99 18.7.99-18.7c-594.22-31.5-1126.12 117.8-1422.81 399.2-83.81 79.5-144.78 167.1-181.3 259.3M5823.84 20141c-312.46 0-600.39 69.3-810.75 195-208.6 124.7-323.76 292.9-324.43 474-326.13 1901.1-484.63 3246.1-484.63 4112.2h37.46c0-157.6 72.59-309.7 209.9-440 263.7-250.1 720.25-393 1241.21-393.1 50.73 0 101.99 1.4 153.84 4.1 884.88 46.8 1596.17 472.4 1640.96 821.6l37.31-2.4c0-876.7-188.94-2478.5-481.41-4081.2-22.53-312.9-570.76-690.2-1219.46-690.2" style="fill:#100f0d;fill-opacity:1;fill-rule:nonzero;stroke:none" transform="matrix(.0226 0 0 -.0226 -32.464 646.442)"/></g></svg>