<svg xmlns="http://www.w3.org/2000/svg" width="200mm" height="200mm" viewBox="0 0 200 200"><g style="display:inline"><path d="M3662.5 5812.2c64.88 66.7 137.1 123.8 211.28 178.3 74.45 54.3 1057.84 587.5 1214 686.5 157.42 97.3 303.12 209.9 452.83 317.2 296.82 218.1 588.6 442.8 874.23 675.4 143 116.1 284.06 234.7 423.12 356 138.96 121.3 276.3 244.8 408.53 374.9 168.61 165.9 439.81 163.7 605.72-4.9 165.92-168.6 163.72-439.8-4.89-605.7-24.98-24.6-54.15-46.5-82.95-63.7-159.82-94.2-314.54-195.1-467.63-298-152.99-103.1-303.99-208.8-453.05-317-298.47-215.9-590.81-439.8-878.08-670.4-142.35-116.9-288.7-228.6-423.33-355.6-135.9-125.3-703.11-747.1-769.95-811.2-66.34-64.8-134.87-126.7-206.46-184.6-71.85-57.6-145.65-112.7-226.78-158.1-270.38-151.6-612.4-55.3-763.97 215.1-124.37 221.8-81.27 492.3 87.38 665.8" style="fill:#eaf6f5;fill-opacity:1;fill-rule:nonzero;stroke:none" transform="matrix(.0234 0 0 -.0234 -18.127 278.173)"/><path d="M3676.02 5799.1c-166.23-171.1-200.96-435.7-84.45-643.5 70.85-126.4 186.65-217.6 326.09-256.9 139.45-39.2 285.84-21.8 412.2 49 85.21 47.8 161.16 105.9 224.22 156.4 67.73 54.8 134.83 114.8 205.09 183.4 25.01 24 124.48 130.8 239.66 254.5 198.55 213.3 445.65 478.7 530.66 557.1 100.64 94.9 209.48 182.7 314.75 267.5 36.55 29.5 73.1 59 109.39 88.8 295.63 237.2 591.32 463 879.02 671.1 148.77 108 301.38 214.8 453.54 317.3 125.61 84.5 292.35 194.8 468.6 298.6 28.96 17.3 56.41 38.4 79.3 60.9 77.96 76.7 121.38 179.2 122.26 288.6.88 109.3-40.88 212.5-117.59 290.5-76.7 77.9-179.19 121.3-288.55 122.2-109.57 1.1-212.54-40.9-290.5-117.6-145.93-143.6-295.42-276.2-409.35-375.6-138.3-120.6-280.82-240.5-423.64-356.4-275.34-224.3-569.73-451.7-874.94-676-38.32-27.4-76.2-55.1-114.06-82.8-109.2-79.8-222.13-162.4-340.02-235.3-77.44-49-357.58-204.5-628.49-354.9-269.21-149.4-547.59-303.9-584.33-330.7-65-47.8-140.72-106.2-208.86-176.2m389.5-958.6c-52.78 0-105.88 7.2-158.08 21.9-149.15 42-273.01 139.6-348.77 274.7-124.62 222.3-87.49 505.3 90.29 688.3h.02c70.05 72 147.29 131.5 213.62 180.3 38.68 28.2 305.65 176.4 588.3 333.3 270.44 150.1 550.1 305.3 626.78 353.9 116.83 72.2 229.14 154.3 337.77 233.7 37.97 27.8 75.93 55.5 114.16 83 304.54 223.7 598.42 450.7 873.31 674.7 142.5 115.6 284.69 235.2 422.64 355.5 113.53 99.1 262.47 231.2 407.69 374.1 85.14 83.8 197.61 129.6 317.26 128.5 119.44-1 231.36-48.4 315.14-133.6 172.95-175.7 170.66-459.4-5.09-632.4-25.01-24.6-54.92-47.5-86.53-66.4-175.48-103.4-341.61-213.3-466.77-297.5-151.77-102.2-304.02-208.8-452.47-316.5-287.22-207.8-582.4-433.2-877.37-669.9-36.21-29.7-72.86-59.3-109.5-88.8-104.7-84.5-212.97-171.8-312.69-265.8-84.12-77.6-341.12-353.6-528.79-555.2-120.33-129.2-215.37-231.3-241.05-255.9-70.98-69.3-138.93-130-207.64-185.7-64.34-51.5-141.85-110.8-229.44-159.9-87.86-49.2-184.76-74.3-282.79-74.3" style="fill:#100f0d;fill-opacity:1;fill-rule:nonzero;stroke:none" transform="matrix(.0234 0 0 -.0234 -18.127 278.173)"/><path d="M7523.59 8346.8c33.41-40.8 25.64-101.1-16.88-132.2-330.41-242.3-653.95-492.6-976.07-744.8-348.81-271-690.09-549.4-1041.26-820.2-22.45-16.7-44.31-33.4-67.8-49.9l-17.4-12.4-19.13-12.5c-13.01-8.6-24.31-14.7-36.54-22.1l-143.57-83.8-286.43-166.2-285.3-168c-95-56.2-190.43-111.6-284.67-169.1-336.04-201.2-669.87-406.4-998.34-621.4-67.61-44.3-158.46-22.1-197.44 48.7s-9.2 159.4 64.3 192.9c357.06 162.8 708.53 335.9 1057.44 513.6 98.79 49.3 196.32 100.8 294.27 151.5l293.31 153.2c97.26 52 194.79 103.5 291.4 156.4l144.27 79.4c11.45 6.7 24.68 13.3 34.65 20l15.59 9.9 16.43 11.5c21.84 14.9 43.97 31.5 65.9 47.5 87.88 65.1 175.09 132.5 262.04 200 87.15 67.4 173.56 135.8 259.14 205.2 171.72 138.3 343.03 277.1 511.9 419 313.89 261.9 624.68 527.9 927.34 803.4 38.93 35.4 99.47 31.1 132.85-9.6M3458.22 4385.1c163.37 159.4 282.62 249.4 444.77 410L5484.53 6279l1.55 1.6 1.58 1.1 524.05 386.1c173.94 129.7 348.85 258.1 521.93 389l520.24 391.2c172.19 132.1 345.53 262.6 516.72 396 18.25 14.2 44.58 11 58.8-7.3 14.23-18.2 10.96-44.6-7.29-58.8l-1.69-1.2c-177.66-124.7-353.17-252.3-529.85-378.3l-526.32-383c-175.78-127.2-349.72-256.9-524.63-385.3l-522.53-388.2 3.12 2.8-470.84-496.9c-156.68-165.9-314.61-330.6-469.77-498l-467.07-500.5c-154.27-168.2-309.87-335.1-462.93-504.5-23.53-26.1-63.71-28.1-89.75-4.6-26.05 23.6-28.08 63.8-4.55 89.8.86.9-97.97 54.2-97.08 55.1" style="fill:#fff;fill-opacity:1;fill-rule:nonzero;stroke:none" transform="matrix(.0234 0 0 -.0234 -18.127 278.173)"/><path d="M4738.59 5419.8c20.93-90.4 18.67-151.8 18.67-151.8-198.28-220.8-1143.47-1310.8-1143.47-1310.8S1967.16 5264 2448.66 5384.6c481.49 120.5 1593.64 700.2 1593.64 700.2 43.34-12.3 83.93-26 122.22-41 64.78-25 122.36-53.4 173.57-84.2 203.58-122.3 308.29-281.6 362.17-416.5 17.85-44.4 30.02-86.3 38.33-123.3" style="fill:#77728b;fill-opacity:1;fill-rule:nonzero;stroke:none" transform="matrix(.0234 0 0 -.0234 -18.127 278.173)"/><path d="M3602.41 4223.8c-15.14 0-30.31 5.4-42.47 16.4-26.14 23.7-28.17 63.7-4.69 89.7-.32 1.5-96.53 53.5-96.9 55.2 163.28 159.5 282.37 249.4 444.64 410l797.27 748c17.85-44.4 30.02-86.3 38.33-123.3-53.18-56.6-106.1-113.1-158.98-169.9l-467.15-500.6c-154.22-168.3-309.78-335.1-462.74-504.5-12.67-13.9-29.97-21-47.31-21" style="fill:#afacb8;fill-opacity:1;fill-rule:nonzero;stroke:none" transform="matrix(.0234 0 0 -.0234 -18.127 278.173)"/><path d="m5520.16 6244.7-1.44-1.6-1.56-1.1z" style="fill:#fff;fill-opacity:1;fill-rule:nonzero;stroke:none" transform="matrix(.0234 0 0 -.0234 -18.127 278.173)"/><path d="M2974.02 5098.2c-80.94 0-260.85 228.3-204.57 254 319.74 145.7 1082.4 533.4 1395.07 691.6 64.78-25 122.36-53.4 173.57-84.2-332.63-199.5-1020.75-643.7-1346.13-856.4-5.17-3.4-11.22-5-17.94-5" style="fill:#afacb8;fill-opacity:1;fill-rule:nonzero;stroke:none" transform="matrix(.0234 0 0 -.0234 -18.127 278.173)"/><path d="M4044.21 6064.6c-93.63-48.5-1132.29-583.4-1591-698.3-41.86-10.5-65.4-30.3-71.95-60.6-51.71-239.5 856.85-1024.7 1230.07-1322.5 109.09 125.7 933.83 1076.2 1127.04 1292-.25 30.7-5.86 164.5-79.97 316-76.97 157.4-245.95 366.7-614.19 473.4m-428.06-2133.4-14.15 11.2c-3.29 2.6-333.58 265.2-651.47 562.1-431.22 402.6-635.15 674.9-606.15 809.2 9.75 45.1 43.28 75.1 99.66 89.2 473.91 118.7 1578.34 692.9 1589.44 698.6l6.66 3.5 7.21-2c387.58-110.2 565.11-331.1 645.79-497 87.64-180.2 83.13-332.4 82.9-338.8l-.26-6.8-4.56-5.1c-195.8-218.1-1133.79-1299.6-1143.24-1310.5z" style="fill:#100f0d;fill-opacity:1;fill-rule:nonzero;stroke:none" transform="matrix(.0234 0 0 -.0234 -18.127 278.173)"/><path d="M3535.68 3871.2c-279.62-241.7-701.27-243.1-1122.89 275.5-328.48 404-389.95 909.2-110.33 1150.9 279.61 241.8 747.96 71.1 1138.63-365.2 347.36-387.9 374.2-819.4 94.59-1061.2" style="fill:#57526e;fill-opacity:1;fill-rule:nonzero;stroke:none" transform="matrix(.0234 0 0 -.0234 -18.127 278.173)"/><path d="M3535.68 3871.2h.1zm-926.8 1518c-113.07 0-212.66-35.5-294.09-105.9-129.09-111.6-188.2-288.6-166.44-498.3 21.71-209.3 120.82-431.8 279.08-626.4 209.38-257.5 436.16-403.9 655.83-423.2 158.31-13.9 310.46 38 440.08 150.1 109.89 95 172.92 222.6 182.28 369.1 13.61 213.2-85.32 449.4-278.58 665.2-189.78 211.9-403.89 365.2-602.88 431.6-75.88 25.3-147.97 37.8-215.28 37.8m524.77-1693.7c-17.81 0-35.71.8-53.69 2.4-230.07 20.2-465.84 171.3-681.81 436.9-162.83 200.3-264.87 429.8-287.32 646.3-23.08 222.4 40.6 410.9 179.29 530.8 140.53 121.5 329.32 147.5 545.97 75.2 205.12-68.4 424.97-225.4 619.06-442.1 200.06-223.4 302.38-469.5 288.12-692.8-10.02-156.8-77.53-293.5-195.25-395.3-122.86-106.2-265.15-161.4-414.37-161.4" style="fill:#100f0d;fill-opacity:1;fill-rule:nonzero;stroke:none" transform="matrix(.0234 0 0 -.0234 -18.127 278.173)"/><path d="M2235.88 4865.3s-59.81-234.7 280.61-707.4c188.63-261.9 525.64-432.4 810.88-303.2 191.69 86.8 258.28 238.4 258.28 238.4s-351.07-149.9-593.44-93.9c-204.49 47.2-531.33 272.4-756.33 866.1" style="fill:#77728b;fill-opacity:1;fill-rule:nonzero;stroke:none" transform="matrix(.0234 0 0 -.0234 -18.127 278.173)"/><path d="M2220.56 5101.4c-7.28 0-14.22 4.2-17.31 11.3-4.15 9.6.23 20.7 9.78 24.8 217.25 94.5 457.29 146.9 694.15 151.7h.39c10.24 0 18.64-8.2 18.85-18.5.21-10.4-8.07-19-18.49-19.2-231.98-4.7-467.08-56-679.86-148.6-2.44-1-5-1.5-7.51-1.5m-17.59-165.6c-7.57 0-14.71 4.5-17.6 12-3.75 9.7 1.09 20.7 10.81 24.4 256.78 99 541.33 133.2 810.78 159.7 10.27 1 19.6-6.6 20.62-17 1.02-10.3-6.56-19.6-16.93-20.6-266.87-26.2-548.53-60-800.89-157.3-2.24-.8-4.53-1.2-6.79-1.2m73.82-235.5c-8.04 0-15.49 5.2-18.01 13.3-3.09 9.9 2.47 20.5 12.42 23.6 357.8 111.2 729.18 171.5 1103.79 179.1 10.35.4 19.03-8.1 19.24-18.5s-8.06-19.1-18.48-19.3c-371.07-7.5-738.93-67.1-1093.35-177.3-1.87-.6-3.75-.9-5.61-.9m74.67-226.9c-7.93 0-15.32 5.1-17.92 13-3.25 9.9 2.15 20.6 12.05 23.8 335.32 109.9 683.98 175.7 1036.31 195.4 10.47.4 19.31-7.4 19.89-17.8s-7.38-19.3-17.78-19.9c-349.05-19.5-694.47-84.6-1026.67-193.5-1.95-.7-3.93-1-5.88-1m142.03-199.2c-7.78 0-15.06 4.8-17.79 12.6-3.46 9.8 1.7 20.6 11.53 24 309.05 108.8 630.54 185.1 955.52 226.8 10.3 1.4 19.79-5.9 21.12-16.3 1.33-10.3-5.98-19.7-16.31-21.1-322.36-41.4-641.25-117.1-947.81-224.9-2.07-.8-4.18-1.1-6.26-1.1m108.66-189.5c-7.28 0-14.21 4.2-17.3 11.3-4.16 9.5.21 20.7 9.76 24.8 293.62 127.8 604.3 206.2 923.4 232.9 10.36.9 19.5-6.9 20.37-17.3s-6.84-19.5-17.22-20.3c-314.99-26.4-621.66-103.7-911.49-229.9-2.45-1-5-1.5-7.52-1.5m251.03-86.4c-7.51 0-14.61 4.6-17.54 12-3.84 9.7.91 20.6 10.59 24.4 238.81 94.6 488.47 163.2 742.06 203.8 10.28 1.7 19.96-5.3 21.61-15.6s-5.35-20-15.64-21.6c-250.88-40.2-497.88-108.1-734.13-201.6-2.28-.9-4.64-1.4-6.95-1.4m349.48-31.3c-8.83 0-16.71 6.3-18.49 15.2-2.02 10.3 4.62 20.2 14.84 22.2 95.57 18.9 193.44 28.9 290.88 29.7 10.72-.2 18.94-8.3 19.02-18.7.09-10.4-8.29-18.9-18.7-19-95.1-.8-190.61-10.6-283.87-29-1.24-.3-2.47-.4-3.68-.4" style="fill:#100f0d;fill-opacity:1;fill-rule:nonzero;stroke:none" transform="matrix(.0234 0 0 -.0234 -18.127 278.173)"/><path d="M2315.44 4858c-1.51 0-3.05.2-4.59.6-10.1 2.5-16.25 12.7-13.72 22.8l103.6 414.4c2.53 10.1 12.78 16.2 22.87 13.7 10.11-2.5 16.25-12.7 13.73-22.8l-103.6-414.4c-2.14-8.6-9.83-14.3-18.29-14.3m119.53-514.3-2.5.1c-10.33 1.4-17.59 10.9-16.22 21.2 48.27 363.7 111.58 667.9 193.54 929.8 3.12 9.9 13.7 15.5 23.64 12.4s15.48-13.7 12.37-23.7c-81.32-259.8-144.17-561.9-192.15-923.5-1.26-9.4-9.36-16.3-18.68-16.3m284.81 361.1c-1.34 0-2.7.2-4.06.5-10.18 2.2-16.62 12.2-14.39 22.4l65.53 299.4c2.22 10.2 12.29 16.6 22.46 14.4 10.18-2.2 16.62-12.3 14.4-22.5l-65.54-299.3c-1.93-8.9-9.73-14.9-18.4-14.9m35.57-730c-1.33 0-2.66.1-4.01.4-10.18 2.2-16.65 12.2-14.45 22.4l223.56 1035.1c2.2 10.2 12.26 16.6 22.42 14.4 10.18-2.2 16.66-12.2 14.45-22.4l-223.56-1035.1c-1.9-8.8-9.72-14.8-18.41-14.8m-100.41 300.1c-1.32 0-2.65.1-3.99.4-10.19 2.2-16.66 12.3-14.47 22.5l43.46 201.4c2.19 10.2 12.22 16.7 22.41 14.5 10.18-2.2 16.66-12.2 14.46-22.4l-43.45-201.5c-1.9-8.8-9.73-14.9-18.42-14.9m512.6 50.3c-1.03 0-2.06.1-3.1.2-10.28 1.7-17.23 11.4-15.54 21.7l71.19 431.1c1.7 10.3 11.45 17.2 21.68 15.5 10.29-1.7 17.24-11.4 15.54-21.6l-71.18-431.1c-1.53-9.3-9.53-15.8-18.59-15.8m-205.7-225.8c-.91 0-1.83.1-2.75.2-10.31 1.5-17.44 11.1-15.95 21.4 11.76 80.8 23.93 164.3 32.22 255.4.94 10.4 10.18 17.9 20.49 17.1 10.38-1 18.02-10.1 17.07-20.5-8.37-92.1-21.16-179.9-32.44-257.4-1.37-9.4-9.43-16.2-18.64-16.2m371.12-.3c-1.08 0-2.16.1-3.26.2-10.27 1.8-17.14 11.6-15.35 21.9l86 493.9c1.79 10.3 11.55 17.2 21.82 15.3 10.27-1.7 17.14-11.5 15.35-21.8l-86-493.9c-1.6-9.2-9.57-15.6-18.56-15.6m184.27-39c-1.51 0-3.05.2-4.58.6-10.11 2.5-16.26 12.7-13.73 22.8l53 212.3c2.53 10.1 12.8 16.2 22.87 13.7 10.11-2.5 16.26-12.7 13.74-22.8l-53.01-212.3c-2.14-8.6-9.84-14.3-18.29-14.3m-454.54-287c-1.09 0-2.19.1-3.29.3-10.26 1.8-17.12 11.6-15.32 21.8l71.24 405.7c1.8 10.2 11.62 17 21.84 15.3 10.27-1.8 17.12-11.6 15.32-21.9l-71.24-405.6c-1.61-9.2-9.57-15.6-18.55-15.6m58.37 1011.3c-1.37 0-2.76.2-4.17.5-10.16 2.3-16.54 12.4-14.25 22.6l46.9 208c2.3 10.1 12.41 16.6 22.55 14.2 10.17-2.3 16.55-12.4 14.26-22.5l-46.9-208c-1.98-8.8-9.76-14.8-18.39-14.8m206.64-971.2-2.05.1c-10.35 1.2-17.85 10.4-16.73 20.8l11.76 109.3c1.11 10.3 10.39 17.8 20.78 16.7 10.35-1.1 17.85-10.4 16.73-20.8l-11.76-109.2c-1.04-9.7-9.22-16.9-18.73-16.9" style="fill:#100f0d;fill-opacity:1;fill-rule:nonzero;stroke:none" transform="matrix(.0234 0 0 -.0234 -18.127 278.173)"/></g></svg>