<svg xmlns="http://www.w3.org/2000/svg" width="200mm" height="200mm" viewBox="0 0 200 200"><g style="display:inline"><path d="M31674.5 31648.9c0-74.1-57.3-143.2-165.6-204.5-77.1-43.6-178.3-81-297.7-114.3-96.7-27-204.1-53.7-322.4-72-104.5-16.2-216-31.8-333.2-40.1-108.2-7.6-221.5-10.8-337.4-10.8-116 0-228.1 12-336.3 19.7-117.2 8.3-230.5 13.1-334.9 29.3-118.4 18.3-229.7 38-326.4 65-119.4 33.3-214.3 81.4-291.4 125-108.2 61.3-143.1 119.1-143.1 193.3s36 149.8 144.3 211c77.1 43.6 172.2 90.2 291.6 123.5 96.7 27 205.9 52.1 324.3 70.4 104.4 16.2 217.5 24.5 334.8 32.8 108.1 7.7 221.1 12 337.1 12 115.9 0 228.6-6.1 336.8-13.8 117.2-8.3 227.7-25.1 332.1-41.3 118.4-18.4 226.6-40.8 323.4-67.8 119.3-33.3 219.4-71.2 296.4-114.8 108.3-61.2 167.6-128.4 167.6-202.6" style="fill:#fff;fill-opacity:1;fill-rule:nonzero;stroke:none" transform="matrix(.03146 0 0 -.03146 -842.07 1158.791)"/><path d="M30218.2 32064.3c-110.5 0-223.3-4-335.4-11.9-106.1-7.6-226.3-16.1-332.7-32.6s-214.6-40-321.4-69.8c-127-35.4-224-86.1-286-121.2-88.6-50.1-131.7-112-131.7-189.3 0-58.7 22.2-110.3 130.5-171.6 69.8-39.4 165.3-89.1 285.7-122.7 101.1-28.2 220.3-48.4 323.6-64.4 81-12.6 167-18.1 258-24.1 24.7-1.5 49.7-3.2 74.9-5 26.7-1.8 53.6-4 80.8-6.2 82.2-6.5 167.2-13.3 253.7-13.3 123.9 0 233.7 3.5 335.6 10.7 120.8 8.5 235.2 24.9 331.1 39.8 99.3 15.4 197.9 37.4 319.6 71.4 124.8 34.8 220.4 71.5 292.1 112 101.5 57.4 152.9 118.9 152.9 182.8 0 61.9-52.1 122.8-154.8 180.9-72.5 41-170.3 78.8-290.9 112.5-93.5 26-201.3 48.6-320.5 67.2-93.3 14.4-209.5 32.5-330.1 41-90.6 6.5-210.5 13.8-335 13.8m0-882c-88.5 0-174.5 6.9-257.7 13.5-27 2.2-53.8 4.3-80.3 6.2-25.1 1.8-50 3.4-74.6 5-92.2 6-179.3 11.6-262.4 24.5-104.7 16.3-225.8 36.8-329.3 65.7-125.7 35.1-224.7 86.5-296.9 127.3-109.3 61.8-155.8 126.1-155.8 215 0 95.5 52.8 173.8 157 232.7 64.2 36.4 164.9 88.9 297 125.8 108.8 30.3 218.9 54.2 327.2 71.1 108.5 16.8 229.9 25.4 336.9 33 113.2 8 227.2 12.1 338.9 12.1 126.1 0 247.1-7.5 338.5-13.9 122.7-8.7 240-26.9 334.3-41.6 121.1-18.8 230.9-41.8 326.2-68.4 126.2-35.2 225-73.5 302-117.1 119.6-67.6 180.2-143.1 180.2-224.3 0-83.2-60-159.3-178.2-226.2-75.3-42.6-174.5-80.7-303.3-116.6-123.6-34.5-224-56.9-325.3-72.7-97-15-212.6-31.6-335.3-40.3-103-7.3-214-10.8-339.1-10.8" style="fill:#211d1d;fill-opacity:1;fill-rule:nonzero;stroke:none" transform="matrix(.03146 0 0 -.03146 -842.07 1158.791)"/><path d="M28716.7 33318.2c0-.1.4-3.2.6-8.7 23.6-327.2 49.9-705.1 66.2-1022.9 27.5-542.1 8-909.3 1.4-1008.9l-.2-1.8c-.3-2.7-.7-5.4-.6-6.8l.2-3.5-.7-3.5c-.1-.7 0-1.8 0-3 0-71.6 53.5-142.6 159.1-211 69.7-45.1 165.2-101.8 285.5-140.1 101.3-32.3 220.2-55.3 323.1-73.6 81.2-14.4 167.3-20.7 258.5-27.4q36.75-2.7 74.1-5.7c25.8-2.1 51.7-4.5 77.9-6.9 83.1-7.7 169.1-15.6 256.4-15.6 124 0 233.7 4 335.4 12.2 123.4 10.1 241.5 29.7 330.6 45.6 129.4 23 244.3 57.5 319.5 81.5 124.3 39.7 219.7 81.6 291.7 128.2 102.3 66 154.1 137.6 154.1 212.8l38.4 1984.2 22.5 409.1q.15 6 .6 12l.9 18.1c.2 1 .2 1.9.2 2.9.1 1.7.2 3.3.4 4.9l.7 13.9c0 1.5.1 2.9.2 4.3l.2 3.9c.1.9.2 1.8.2 2.6q.15 2.25.3 4.2l39 1631.3h-7.6l9 31.8c4.6 16.3 7 32.6 7 48.5 0 51.5-62.3 145.3-85.6 162.1-141.3 102.1-326.7 186.1-522 236.6-266.9 68.9-608.9 113.4-630.3 116.1-196.7 7.8-384.8 3-386.7 2.9-114.9 0-174.1-4.8-272.1-12.7l-29.5-2.4c-115.5-9.2-246.5-19.7-362.3-40.1-115.9-20.3-233.7-49.2-350-85.9-138.3-43.7-244.1-106.1-311.6-149.3-118.1-75.6-175.5-150-175.5-227.3 0-6.2.5-12.8 1.5-20.9l.8-5.7-1.8-5.4c-.4-1.3-.6-2.5-.5-3.6 11.5-176.2 24-563 37.3-972.6 14.4-445.7 29.3-906.4 43.5-1104.4m1501.5-2589.2c-89.6 0-176.7 8-261 15.8-26 2.4-51.8 4.7-77.3 6.8-24.8 2-49.4 3.8-73.7 5.6-92.5 6.8-179.9 13.3-263.6 28.1-104.6 18.6-225.5 42-329.5 75.2-126 40.1-225.1 99-297.5 145.8-120.7 78.2-181.9 163.2-181.9 252.8 0 2.7 0 6.1.5 9.8-.1 4.9.5 9.3 1 13 6.6 100.2 25.8 464.4-1.5 1002.2-16.2 317.3-42.6 694.9-66.1 1022.4-.3 4.6-.5 6.7-.5 7.1-14.4 199.7-29.3 661.1-43.7 1107.3-13.3 409.2-25.8 795.7-37.3 971-.3 5.5.1 11 1.3 16.4-.9 8.2-1.4 15.5-1.4 22.5 0 95.7 64.9 183.8 198.6 269.3 69.9 44.7 179.4 109.4 323.4 154.8 118.4 37.4 238.3 66.8 356.4 87.5 118.1 20.8 250.3 31.4 366.9 40.7l29.4 2.4c99.3 8 159.2 12.9 275.6 12.9 1.2 0 191.6 4.9 390.4-3l2.1-.2c3.5-.4 360.1-45.8 637.6-117.4 201.2-52 392.5-138.8 538.7-244.5 31.7-22.9 106.3-129.9 106.3-202.5 0-19.2-2.7-38.8-7.8-58.2l-39.7-1657.1-.2-1.3-.1-1.9-.3-3.6c0-1.2-.1-2.3-.1-3.5l-.1-1.8-.1-1.4-.9-16.4c-.1-.9-.1-1.8-.2-2.7q0-2.25-.3-4.5l-.8-16.7c-.3-4-.5-7-.5-10.1l-.1-1.5-1.9-32.2-20.6-376.4-38.3-1982.9c0-92.7-59.5-178.4-176.9-254.2-75.7-49-175-92.8-303.6-133.8-76.6-24.4-193.6-59.5-325.9-83.1-90.2-16.1-209.9-35.9-335.3-46.2-103.1-8.3-214.2-12.3-339.5-12.3" style="fill:#211d1d;fill-opacity:1;fill-rule:nonzero;stroke:none" transform="matrix(.03146 0 0 -.03146 -842.07 1158.791)"/><path d="M30218.2 30778.8c-87.3 0-173.3 7.9-256.4 15.6-26.2 2.4-52.1 4.8-77.9 6.9q-37.35 3-74.1 5.7c-91.2 6.7-177.3 13-258.5 27.4-102.9 18.3-221.8 41.3-323.1 73.6-120.3 38.3-215.8 95-285.5 140.1-105.6 68.4-159.1 139.4-159.1 211 0 1.2-.1 2.3 0 3l.7 3.5-.2 3.5c-.1 1.4.3 4.1.6 6.8l.2 1.8c2.7 40.5 7.5 125.3 10.4 248 25.2-36.4 65-69.1 121.7-101.2 72.2-40.8 171.2-92.2 296.9-127.3 103.5-28.9 224.6-49.4 329.3-65.7 83.1-12.9 170.2-18.5 262.4-24.5 24.6-1.6 49.5-3.2 74.6-5 26.5-1.9 53.3-4 80.3-6.2 83.2-6.6 169.2-13.5 257.7-13.5 125.1 0 236.1 3.5 339.1 10.8 122.7 8.7 238.3 25.3 335.3 40.3 101.3 15.8 201.7 38.2 325.3 72.7 128.8 35.9 228 74 303.3 116.6 59.2 33.5 103.8 69.3 133.6 107.2l-5.3-270.8c0-75.2-51.8-146.8-154.1-212.8-72-46.6-167.4-88.5-291.7-128.2-75.2-24-190.1-58.5-319.5-81.5-89.1-15.9-207.2-35.5-330.6-45.6-101.7-8.2-211.4-12.2-335.4-12.2m1441 980.8c-30 39.9-76.8 77.9-140 113.6-77 43.6-175.8 81.9-302 117.1-95.3 26.6-205.1 49.6-326.2 68.4-94.3 14.7-211.6 32.9-334.3 41.6-91.4 6.4-212.4 13.9-338.5 13.9-111.7 0-225.7-4.1-338.9-12.1-107-7.6-228.4-16.2-336.9-33-108.3-16.9-218.4-40.8-327.2-71.1-132.1-36.9-232.8-89.4-297-125.8-54-30.5-94.2-66.2-120.4-106.9-.4 147.2-4.2 322.5-14.3 521.3-16.3 317.8-42.6 695.7-66.2 1022.9-.2 5.5-.6 8.6-.6 8.7-14.2 198-29.1 658.7-43.5 1104.4-8.4 260-16.5 510.9-24.3 704.6 8.8-2.1 17.7-4.1 26.8-6.2 131.8-30.1 268.2-61.2 370.7-90.1 23.3-8.9 43-15.8 61.9-21.7 67.9-21.5 146.8-40.7 248.3-60.5l1.8 9.3.2.1-1.9-9.4c34.3-6.7 70.1-13.3 109.5-20.3 90.3-15.8 185-22.8 285.2-30.1 26.9-2 54-4 81.3-6.2 28.9-2.3 58.1-4.9 87.6-7.6 90.5-8.2 184.1-16.6 280.1-16.6 136.3 0 257 4.3 369 13.3 133.4 10.7 259.2 31.1 364.6 49.6 110.1 19.3 219.1 46.8 353.6 89.3 139.7 44 247.2 90.8 328.7 142.9 58.6 37.5 103.8 77.2 135.2 118.8l-37.4-1562.6q-.15-1.95-.3-4.2c0-.8-.1-1.7-.2-2.6l-.2-3.9c-.1-1.4-.2-2.8-.2-4.3l-.7-13.9c-.2-1.6-.3-3.2-.4-4.9 0-1 0-1.9-.2-2.9l-.9-18.1q-.45-6-.6-12l-22.5-409.1z" style="fill:#e8f7f5;fill-opacity:1;fill-rule:nonzero;stroke:none" transform="matrix(.03146 0 0 -.03146 -842.07 1158.791)"/><path d="M30218.2 31232.2c-86.5 0-171.5 6.8-253.7 13.3-27.2 2.2-54.1 4.4-80.8 6.2-25.2 1.8-50.2 3.5-74.9 5-91 6-177 11.5-258 24.1-103.3 16-222.5 36.2-323.6 64.4-120.4 33.6-215.9 83.3-285.7 122.7-108.3 61.3-130.5 112.9-130.5 171.6 0 77.3 43.1 139.2 131.7 189.3 62 35.1 159 85.8 286 121.2 106.8 29.8 215 53.3 321.4 69.8s226.6 25 332.7 32.6c112.1 7.9 224.9 11.9 335.4 11.9 124.5 0 244.4-7.3 335-13.8 120.6-8.5 236.8-26.6 330.1-41 119.2-18.6 227-41.2 320.5-67.2 120.6-33.7 218.4-71.5 290.9-112.5 102.7-58.1 154.8-119 154.8-180.9 0-63.9-51.4-125.4-152.9-182.8-71.7-40.5-167.3-77.2-292.1-112-121.7-34-220.3-56-319.6-71.4-95.9-14.9-210.3-31.3-331.1-39.8-101.9-7.2-211.7-10.7-335.6-10.7" style="fill:#e8f7f5;fill-opacity:1;fill-rule:nonzero;stroke:none" transform="matrix(.03146 0 0 -.03146 -842.07 1158.791)"/><path d="M30218.2 31182.3c-88.5 0-174.5 6.9-257.7 13.5-27 2.2-53.8 4.3-80.3 6.2-25.1 1.8-50 3.4-74.6 5-92.2 6-179.3 11.6-262.4 24.5-104.7 16.3-225.8 36.8-329.3 65.7-125.7 35.1-224.7 86.5-296.9 127.3-56.7 32.1-96.5 64.8-121.7 101.2 1.7 68.5 2.7 148.7 2.5 239.6 26.2 40.7 66.4 76.4 120.4 106.9 64.2 36.4 164.9 88.9 297 125.8 108.8 30.3 218.9 54.2 327.2 71.1 108.5 16.8 229.9 25.4 336.9 33 113.2 8 227.2 12.1 338.9 12.1 126.1 0 247.1-7.5 338.5-13.9 122.7-8.7 240-26.9 334.3-41.6 121.1-18.8 230.9-41.8 326.2-68.4 126.2-35.2 225-73.5 302-117.1 63.2-35.7 110-73.7 140-113.6l-4.4-229.7c-29.8-37.9-74.4-73.7-133.6-107.2-75.3-42.6-174.5-80.7-303.3-116.6-123.6-34.5-224-56.9-325.3-72.7-97-15-212.6-31.6-335.3-40.3-103-7.3-214-10.8-339.1-10.8m0 882c-110.5 0-223.3-4-335.4-11.9-106.1-7.6-226.3-16.1-332.7-32.6s-214.6-40-321.4-69.8c-127-35.4-224-86.1-286-121.2-88.6-50.1-131.7-112-131.7-189.3 0-58.7 22.2-110.3 130.5-171.6 69.8-39.4 165.3-89.1 285.7-122.7 101.1-28.2 220.3-48.4 323.6-64.4 81-12.6 167-18.1 258-24.1 24.7-1.5 49.7-3.2 74.9-5 26.7-1.8 53.6-4 80.8-6.2 82.2-6.5 167.2-13.3 253.7-13.3 123.9 0 233.7 3.5 335.6 10.7 120.8 8.5 235.2 24.9 331.1 39.8 99.3 15.4 197.9 37.4 319.6 71.4 124.8 34.8 220.4 71.5 292.1 112 101.5 57.4 152.9 118.9 152.9 182.8 0 61.9-52.1 122.8-154.8 180.9-72.5 41-170.3 78.8-290.9 112.5-93.5 26-201.3 48.6-320.5 67.2-93.3 14.4-209.5 32.5-330.1 41-90.6 6.5-210.5 13.8-335 13.8" style="fill:#536365;fill-opacity:1;fill-rule:nonzero;stroke:none" transform="matrix(.03146 0 0 -.03146 -842.07 1158.791)"/><path d="M30218.2 30753.9c-115.9 0-228.1 13.7-336.4 22.5-117 9.6-230.2 15-334.9 33.5-118.2 20.8-229.6 43.5-326.3 74.4-119.5 38-214.4 93.1-291.4 142.9-108.3 70.1-170.7 147-170.7 231.9 0 2.8 0 5.6.6 8.2-.2 4 .4 8.1 1 12 5.8 87.9 26.4 457.6-1.6 1006.1-15.5 303.6-39.7 655.9-66.1 1022.9-.3 5.4-.5 8-.5 8-22.6 314-46.7 1285.1-68.2 1816.7 8.3-1.9 16.7-3.9 25.2-5.8 7.8-193.7 15.9-444.6 24.3-704.6 14.4-445.7 29.3-906.4 43.5-1104.4 0-.1.4-3.2.6-8.7 23.6-327.2 49.9-705.1 66.2-1022.9 10.1-198.8 13.9-374.1 14.3-521.3.2-90.9-.8-171.1-2.5-239.6-2.9-122.7-7.7-207.5-10.4-248l-.2-1.8c-.3-2.7-.7-5.4-.6-6.8l.2-3.5-.7-3.5c-.1-.7 0-1.8 0-3 0-71.6 53.5-142.6 159.1-211 69.7-45.1 165.2-101.8 285.5-140.1 101.3-32.3 220.2-55.3 323.1-73.6 81.2-14.4 167.3-20.7 258.5-27.4q36.75-2.7 74.1-5.7c25.8-2.1 51.7-4.5 77.9-6.9 83.1-7.7 169.1-15.6 256.4-15.6 124 0 233.7 4 335.4 12.2 123.4 10.1 241.5 29.7 330.6 45.6 129.4 23 244.3 57.5 319.5 81.5 124.3 39.7 219.7 81.6 291.7 128.2 102.3 66 154.1 137.6 154.1 212.8l5.3 270.8 4.4 229.7 28.7 1483.7 22.5 409.1q.15 6 .6 12l.9 18.1c.2 1 .2 1.9.2 2.9.1 1.7.2 3.3.4 4.9l.7 13.9c0 1.5.1 2.9.2 4.3l.2 3.9c.1.9.2 1.8.2 2.6q.15 2.25.3 4.2l37.4 1562.6c10.1 13.3 18.7 26.8 25.9 40.4l-38.4-1604.7c-.4-2-.4-4.7-.6-7.5 0-2.2-.3-4.3-.3-6.5l-.8-15.2c-.2-2.6-.2-5.4-.5-8.3l-.8-17q-.6-5.85-.6-11.4l-2-32.2-20.6-376.5-38.4-1983.8c0-84.9-57.3-163.9-165.4-233.8-77.2-49.8-178.3-92.9-297.6-130.9-96.9-30.9-204.2-61.2-322.8-82.4-104.3-18.6-216-36.2-333-45.9-108.1-8.6-221.4-12.2-337.4-12.2" style="fill:#3c4144;fill-opacity:1;fill-rule:nonzero;stroke:none" transform="matrix(.03146 0 0 -.03146 -842.07 1158.791)"/><path d="M28635 35302.3c10.2-200.2 21-533.9 32.3-884.1 14.4-444.1 29.2-903.2 43.4-1100.5l.6-8.1c23.5-327.3 49.8-704.8 66.1-1023.3 27.5-540.1 8.1-908.3 1.5-1008.2l-.2-1.5c-.3-2.5-.8-6-.7-8.4l.1-2.4-.5-2.4c-.2-.7-.2-2.9-.2-4.3 0-73.8 54.5-146.5 162-216.1 70.1-45.3 166-102.2 287-140.7 102.8-32.9 221.4-55.8 323.8-73.8 81-14.3 166.5-20.7 257.1-27.5 25.2-1.8 50.5-3.7 76.1-5.8 26.4-2.1 53.1-4.6 79.9-7 82.7-7.6 168.1-15.4 255-15.4 123.7 0 233.5 4 335.8 12.1 123.9 10.3 242.1 29.8 331.2 45.7 130.1 23.2 245.1 57.8 320.3 81.8 122.7 39.1 221.3 82.4 293.2 128.8 104 67.2 156.7 140.5 156.7 217.9l38.4 1984.1 20.6 377.2 2.1 31.8c0 4.1.2 8.2.6 12.6l.9 17.7c.1 1.3.2 2.6.2 3.9l.9 18c0 .7.1 2.4.3 4l.1 1.6.1 3.4c.1 2 .3 4 .5 5.7l37.6 1571.6c-31.6-44.9-78.9-87.7-141.4-127.7-11.3-7.2-21.7-13.5-31.7-19.1-44.5-25.9-96.8-50.7-159.6-75.6-40.3-15.8-85.2-31.6-137.4-48.2-91.6-28.8-214.4-65-353.7-89.2-104.7-18.5-229.9-38.8-364.5-49.7-111.6-8.9-235.7-13.4-369-13.4-94.4 0-186.3 8.2-275.2 16.2-27.7 2.5-55.2 4.9-82.4 7.1-3.7.4-6.7.8-9.7.9-28.3 2.3-55.9 4.3-83.3 6.3-99.7 7.4-193.8 14.3-283.8 30.1-119.9 21.1-246.3 45.5-357.9 80.8-25.2 8-47.3 15.8-67.5 23.8-105.5 40.6-191.3 92-254.3 132.2-68.4 43.9-119 89.7-151.4 137.1m1583.3-4567.2c-88.6 0-174.9 7.9-258.4 15.5-26.7 2.4-53.3 4.9-79.6 7-25.4 2.1-50.7 4-75.8 5.8-91.5 6.8-178 13.3-260.9 28-103.6 18.2-223.7 41.4-328.7 74.9-125.2 39.9-223.9 98.5-296 145.1-118.9 76.9-179.2 160.3-179.2 247.7 0 2.8 0 6.1.5 9.7 0 4.3.5 8.4 1.1 12.5 6.6 100.5 25.7 466.3-1.6 1003.1-16.3 318.1-42.5 695.4-66.1 1022.5l-.5 8.1c-14.3 198-29.1 657.6-43.5 1101.9-13.3 411.1-25.9 799.4-37.5 975.4-.3 7.1.5 13.5 2.5 19.9l25.2 82.4 11.5-85.4c9.8-72.5 68.8-143.9 175.5-212.2 61.4-39.3 145.1-89.4 247.5-128.8 19.7-7.8 41-15.3 65.3-23.1 109.5-34.6 234.4-58.6 353.1-79.5 88.1-15.5 181.3-22.4 280-29.6 27.4-2 55.2-4.1 83.1-6.3 3.2-.2 6.9-.6 10.6-1 26.8-2.2 54.4-4.6 82.2-7.1 88.1-7.9 179.2-16 271.9-16 132.3 0 255.4 4.4 366 13.2 133 10.7 257.1 30.9 361 49.2 137.1 23.9 258.4 59.6 348.8 88 51.3 16.4 95.5 31.9 135 47.4 60.9 24.2 111.6 48.2 154.7 73.3 9.6 5.4 19.4 11.2 30 18.1 90.5 57.9 145.8 120.4 164.4 185.7l3.9 13.7h33.6l-.3-19.3-39.8-1659.3-.3-1.5c0-.7 0-1.5-.1-2.5l-.1-2.1c0-1.5-.1-2.9-.2-4.4l-.2-1.6-.9-18.8c-.1-2-.2-4.1-.4-6.2l-.7-16.3c-.4-4.3-.6-7.5-.6-10.6v-1.2l-2.1-32.2-20.6-376.4-38.4-1983.1c.1-90.6-58.5-174.6-174-249.2-75.7-48.9-174.5-92.4-302.1-133.1-76.2-24.3-192.9-59.4-325.2-83-89.9-16-209.2-35.7-334.8-46.1-103.3-8.2-214.1-12.2-338.8-12.2" style="fill:#211d1d;fill-opacity:1;fill-rule:nonzero;stroke:none" transform="matrix(.03146 0 0 -.03146 -842.07 1158.791)"/><path d="M28716.7 33318.2c0-.1.4-3.2.6-8.7 23.6-327.2 49.9-705.1 66.2-1022.9 27.5-542.2 8-909.3 1.4-1008.9l-.2-1.8c-.4-2.7-.7-5.4-.6-6.8l.2-3.5-.7-3.5c-.1-.7 0-1.8 0-3 0-71.6 53.5-142.6 159.1-211 69.7-45.1 165.2-101.8 285.6-140.1 101.2-32.3 220.1-55.3 323-73.6 81.2-14.4 167.3-20.7 258.5-27.4q36.75-2.7 74.1-5.7c25.8-2.1 51.7-4.5 77.9-6.9 83.1-7.7 169.1-15.6 256.4-15.6 124 0 233.7 4 335.4 12.2 123.4 10.1 241.5 29.7 330.6 45.5 129.4 23.2 244.3 57.6 319.5 81.6 124.3 39.7 219.7 81.6 291.7 128.2 102.3 66 154.1 137.6 154.1 212.8l38.4 1984.2 22.5 409.1c.1 4 .4 8 .6 12l1 18.1c.1 1 .1 1.9.1 2.9.1 1.7.2 3.3.4 4.9l.7 13.9c.1 1.5.1 2.9.2 4.3l.2 3.9c.1.9.2 1.8.2 2.6q.15 2.25.3 4.2l37.2 1552.7c-31.7-40-75.7-78.1-131.7-114-82-52.4-190-99.4-330.2-143.6-134.7-42.5-244-70.1-354.4-89.5-105.5-18.5-231.4-38.9-365.1-49.6-112.2-9-233.1-13.4-369.5-13.4-96.3 0-190.1 8.5-280.7 16.7-29.4 2.6-58.6 5.3-87.5 7.6-27.3 2.2-54.3 4.2-81.2 6.1-100.4 7.4-195.2 14.3-285.8 30.3-114.1 20-245.9 45.3-358.8 80.9-136.7 43.1-244.5 106.4-323.2 156.7-61.1 39.1-108.3 80-141.1 122.2 9.8-201.6 20.2-523 31.1-859.7 14.4-445.7 29.3-906.4 43.5-1104.4m1501.5-2589.2c-89.6 0-176.7 8-261 15.8-26 2.3-51.8 4.7-77.3 6.8-24.8 2-49.4 3.8-73.7 5.6-92.5 6.8-179.9 13.3-263.6 28.1-104.6 18.6-225.5 42-329.5 75.2-126 40.1-225.2 99-297.5 145.8-120.7 78.2-181.9 163.2-181.9 252.8 0 2.7 0 6.1.5 9.8-.1 4.9.5 9.3 1 13 6.7 100.2 25.8 464.3-1.5 1002.2-16.2 317.3-42.5 694.9-66.1 1022.3-.3 4.7-.5 6.8-.5 7.2-14.4 199.7-29.3 661.1-43.8 1107.3-13.2 409.2-25.7 795.7-37.2 971-.4 7.5.5 15.1 2.9 22.5l34.1 103.7 14.4-108.2c9.3-70.6 67.4-140.5 172.6-207.8 76-48.7 180.2-109.8 311.3-151.2 110.2-34.7 239.9-59.6 352.4-79.3 88.1-15.5 181.8-22.4 280.9-29.6 26.9-2 54.1-4 81.5-6.2 29.1-2.3 58.4-5 88-7.7 89.5-8.1 182.1-16.4 276.2-16.4 135.1 0 254.6 4.3 365.5 13.2 131.6 10.5 256.1 30.7 360.5 49 108.2 19 215.5 46.1 348 87.9 136 42.9 240.1 88.1 318.3 138.1 89.1 57 143.6 118.4 161.8 182.4l5.2 18.1 21.6-.2 22.9-2.4-40.5-1683.6-.1-1.9c-.1-1.2-.1-2.4-.3-3.6 0-1.2 0-2.3-.1-3.5l-.1-1.8-.1-1.4-.9-16.4c-.1-.9-.1-1.8-.2-2.7q0-2.25-.3-4.5l-.8-16.7c-.3-4-.5-7-.5-10.1v-1.5l-2-32.2-20.6-376.4-38.3-1982.9c0-92.7-59.5-178.4-176.9-254.2-75.7-49-175-92.8-303.6-133.8-76.6-24.4-193.6-59.5-325.9-83.1-90.2-16.1-209.9-35.9-335.3-46.2-103.1-8.3-214.2-12.3-339.5-12.3" style="fill:#211d1d;fill-opacity:1;fill-rule:nonzero;stroke:none" transform="matrix(.03146 0 0 -.03146 -842.07 1158.791)"/><path d="m30405 34909.9-119.3-3991-1021.1 131.2-217 4000.5c36.3-8.4 74-16.1 112.9-23.4 179.7-33.4 391.2-102.2 610.8-124.9 194-20 415.2-31.2 616.5 8.6 5.6 1.1 11.4-.6 17.2-1M31575.5 35160.3l-140.3-3873.1-137.3-49.8 120.2 3848.4c58.5 23.2 111.3 47.8 157.4 74.5" style="fill:#fff;fill-opacity:1;fill-rule:nonzero;stroke:none" transform="matrix(.03146 0 0 -.03146 -842.07 1158.791)"/><path d="M28921.5 33998.3c-63.5-101.4-153.7-195-240.4-288.1-5.3-5.6-3.4-104.8 3.5-101.1 142.9 77.6 233.9 315.2 250.9 383.8 2 8-9.5 12.5-14 5.4" style="fill:#bae7e0;fill-opacity:1;fill-rule:nonzero;stroke:none" transform="matrix(.03146 0 0 -.03146 -842.07 1158.791)"/><path d="M28697.5 33700.9c-1.5-11.2-1.3-41.1 0-62.3 90.7 62.7 159.9 195 195.9 286.4-53.1-71.4-116.7-139.4-178.7-205.7zm-13.2-110.3c-5.9 0-11.6 2.7-15.5 7.7-10 13-13.7 111.2-1.2 124.5l20.2 21.7c78.9 84.3 160.4 171.5 218.1 263.6 6.9 10.9 20.5 15.1 32.5 10 11.7-4.9 18-17.4 15-29.7-14.5-58.3-106.2-311.9-260-395.5-2.9-1.5-6-2.3-9.1-2.3" style="fill:#211d1d;fill-opacity:1;fill-rule:nonzero;stroke:none" transform="matrix(.03146 0 0 -.03146 -842.07 1158.791)"/><path d="M30751.8 31873.5c248.8 275.7 411.8 579.3 518.1 869.5l2.1.7c122.7-72.2 259.7-127.4 411-155.2 1.6-.3 2.4 1.7 1.1 2.6-130.9 83.9-254.7 175.1-371.9 273l-.4 1.5c180.7 568.4 152.9 1059.9 146.1 1146.8-.1 1.7-2.6 1.7-2.9 0-42.3-341.6-135.3-682.3-283.4-1022-.4-.9-1.6-1.2-2.3-.5-249.2 231.5-629.7 747.9-682 819.6-2.5 3.3-8.1 1.8-8.3-2.3-5.2-94.7 204.2-618 629.6-951.9l.4-1.6c-135.4-281.9-309.3-563-524.3-843.1l-2.2-.2c-344.2 293.8-643.9 623.6-898.4 990.1v1.5c230.8 394.8 319.9 763.5 313.8 802.7l-.2-.1c-126.6-229.6-244.6-465.6-394.6-679.9h-2.5c-162.2 248.7-304.5 513.6-426.5 794.9-.9 2.1-4.2 1.3-3.9-1 12-81 81.1-490.5 312.3-957.5l-.2-1.4c-136.5-261.9-340.6-464.8-612.3-639.6-.8-.6-2-.4-2.4.5-37.7 87.3-66.9 158-99.6 247.8-.6 1.5-2.9 1.2-2.9-.4.2-68 54.1-529.2 54.3-530 75.1-259.8 250.6-412.7 660.1-745.4 2.7-2.2 6.6 1.4 4.1 3.9-274.1 269.6-555 733.9-578.7 882.6 143.1 30.6 520.4 387.1 654.4 631.7.5.9 2 .8 2.5-.1 191.9-342.6 473.6-700.1 884-971.7l.3-2c-159.5-192.1-338.6-383.7-538.2-574.8-3.2-3 .5-8.1 4.6-6.2 282.6 134.6 514.1 298.5 703.7 478.5l1.7.2c208.7-115.6 446.8-209.3 718.3-270.9 1.6-.4 2.5 1.7 1.1 2.6-206.7 125.6-401.8 260.7-585.3 405.1z" style="fill:#c7ece6;fill-opacity:1;fill-rule:nonzero;stroke:none" transform="matrix(.03146 0 0 -.03146 -842.07 1158.791)"/><path d="m29588 33135.3-.1-.2zm1593.7-131.8.1-.1zm-27-5.7v-.1zm-1454.6-4.9-.1-.2zm1397-152 .2-.1zm-1551.4-39.2.1-.1zm1741.5-65-.1-.1zm-24.6-8.9.2-.1zm-2479-159.7v-.1zm76.5-232.5h-.1zm1571.8-486.8-.1-.1zm197-127.6-.1-.2zm-1068.5 1108.6c7.3 0 14-3.9 17.5-10.2 226.9-405.1 522.4-729.9 878-965.2 4.7-3.1 7.9-8.1 8.7-13.7.8-5.5-.8-11.2-4.4-15.5-142.1-171.2-300.8-342.9-472.6-511.4 230.6 118.9 437.5 264.6 615.9 434 6.3 6 15.7 7.2 23.3 3 187.9-104 392.5-185.7 609.4-243.4-173.4 109.6-339.7 226.9-495.6 349.7-4.3 3.3-7 8.4-7.5 13.8-.5 5.5 1.4 10.9 5 15 221.4 245.3 394.5 535.8 514.5 863.4 2 5.5 6.3 9.8 11.9 11.8s11.7 1.5 16.9-1.6c101.1-59.4 206.7-103.9 315-132.7-102 69.1-201.2 144-296 223.2-6.2 5.3-8.6 13.5-6.2 21.1 123.9 389.7 149.3 742.1 150.9 952.5-50.8-283.8-136.8-565.8-256.6-840.6-2.5-5.8-7.8-10.1-14.2-11.5-6.3-1.3-12.9.5-17.6 5-219 203.4-541.5 629.5-650.6 776.4 42.3-161 239.6-589.3 613.9-883.1 7.3-5.6 9.7-15.6 5.6-24-136.8-285-313.9-569.7-526.3-846.4-3.3-4.3-8.3-7.1-13.7-7.7-5.3-.5-10.9 1.2-15 4.7-344.8 294.3-648.1 628.6-901.6 993.6-4.4 6.4-4.7 14.8-.7 21.4 166.4 284.7 254.3 544.1 290.8 683.9-8.7-16-17.3-32-25.9-47.7-96.6-179.1-196.6-364.3-315-533.5-3.7-5.3-9.8-8.5-16.4-8.5h-.2c-6.7.1-12.8 3.5-16.4 9.1-138.3 212.1-263.2 437.9-372.1 672.7 36.9-173.3 119-481 285.9-818.1 2.8-5.9 2.6-12.4-.3-18.1-133.1-255.3-329.7-460.7-618.7-646.6-5-3.2-11.2-4.1-16.8-2.4s-10.2 5.7-12.5 11.1c-21 48.6-39.7 92.7-58.1 138.9 14.6-150.7 42.1-388 44.9-410.4 63.3-217.8 202.9-362.1 488.7-599.8-217.6 261.8-418.4 601.9-439.5 734.2l-2.8 17.3 17.1 3.6c131.6 28.2 505.5 373 642.2 622.5 3.5 6.4 10.1 10.2 17.2 10.2m350.3-1592.6c-7.2 0-14.2 3.5-18.5 9.7-6.2 9-5 21.1 2.9 28.6 191.7 183.4 368.1 371.3 524.7 558.7-346 232.6-634.9 549.2-859.4 941.5-139.1-232.8-476.7-557.4-634-609.7 38.3-157 300.6-591.3 570.1-856.4 8-7.8 8.4-20.5.9-28.9-7.7-8.6-20.7-9.7-29.5-2.4-406.1 329.9-588.9 487.1-666.2 754.6-.5 1.8-54.8 465.1-55 535 0 9.6 6.8 17.8 16.3 19.5 9.5 1.8 18.9-3.6 22.3-12.7 31-85.1 58.4-152 91.3-228.4 271.6 177.7 458.1 373.5 585.5 614.5-229.7 467-298.6 877.3-310.1 955.1-1.5 10.3 4.6 19.7 14.6 22.5 9.8 2.8 20.3-2.2 24.4-11.6 117.1-269.9 255.4-529.2 411.3-770.9 111.1 162 206.3 338.4 298.5 509.2 26.4 48.7 53.6 99.1 80.7 148.4l6.6 11.8 26.8-5.2 1.3-13.3c7.1-54.3-93.5-429.7-310.7-804.7 247-354.2 541.4-679.1 875.5-966.1 202.9 266.2 372.9 539.7 505.5 813.4-412.5 329.8-631.8 851.7-625.9 958.8.5 9.6 7.1 17.8 16.3 20.6 9.4 2.7 19.5-.7 25.2-8.5 42.3-57.8 412.5-561.1 662.2-800.4 139.2 324.7 230.8 659.2 272.5 994.8 1.3 10 9.7 17.4 19.7 17.4h.5c10.1-.3 18.4-8.1 19.3-18.2 7.1-92.2 33.7-578.1-143.5-1142.9 114.8-95.5 236.4-184.4 361.2-264.4 8-5.1 11.2-15.2 7.8-24-3.5-8.8-12.8-13.9-22.1-12.2-137.8 25.3-272.1 74.8-399.6 147.3-119-318.4-288-601.8-502.4-842.9 178-139.2 369.4-271.2 569.2-392.7 8.3-5.1 11.7-15.3 8-24.3-3.6-9.1-13.2-14.1-22.8-12-254.9 57.8-494.4 147.6-712.2 266.8-200.5-188.4-435.8-347.6-699.5-473.2-3.1-1.5-6.5-2.2-9.7-2.2" style="fill:#211d1d;fill-opacity:1;fill-rule:nonzero;stroke:none" transform="matrix(.03146 0 0 -.03146 -842.07 1158.791)"/><path d="M30946.3 31298.6c343.7 43.2 612.7 274 656.6 565.4 79.6 527.2 110.9 1411.2 130.5 1755.4l-20.6-376.5-38.3-1983.8c0-84.9-57.4-163.9-165.6-233.8-77-49.8-178.3-92.9-297.6-131-96.8-30.8-204.2-61.1-322.7-82.3-104.3-18.6-215.8-36.2-333-45.9-108.2-8.7-221.4-12.2-337.4-12.2s-228.1 13.6-336.3 22.6c-117.1 9.4-230.3 14.8-334.9 33.4-118.2 20.9-229.8 43.5-326.3 74.3-119.6 38.1-214.5 93.1-291.5 143-108.3 70.1-170.6 147-170.6 231.9 0 2.8 0 5.7.6 8.3-.3 4 .3 8 .8 12 5.9 87.7 26.5 457.4-1.4 1005.9-15.5 303.7-39.7 656-66.2 1022.9 8.5-92.2 99-937.7 172.7-1451.6 39.9-278.5 284.2-505.2 608.9-563 73.8-13.1 150.6-24.7 227.4-34.5 216.4-27.5 432.8-40.9 582.2-34.8 99 4 218.1 16.5 342.7 34.8 120.9 17.6 224.8 27.5 320 39.5" style="fill:#f0faf9;fill-opacity:1;fill-rule:nonzero;stroke:none" transform="matrix(.03146 0 0 -.03146 -842.07 1158.791)"/><path d="M28767.7 32464.5c3.5-61 6.8-120.6 9.8-178.2 27.5-541.8 8-908.7 1.3-1008.2l-.1-1.3c-.4-3.2-.8-6.1-.7-8.2l.2-2.6-.6-2.6c-.1-.7-.1-2.9-.1-4.3 0-73.8 54.5-146.5 161.9-216.1 70.1-45.3 166-102.3 287-140.8 101.6-32.4 220.7-55.5 323.9-73.7 81.4-14.5 167.7-20.9 259.1-27.6 24.5-1.8 49.2-3.6 74-5.6 25.7-2.1 51.6-4.5 77.7-6.9 83.3-7.7 169.4-15.6 257.1-15.6 124.2 0 234.1 3.9 335.9 12.1 123.6 10.2 241.9 29.8 331.2 45.7 129.7 23.1 244.9 57.7 320.3 81.7 124.8 39.8 220.7 82 293.1 128.9 104.1 67.2 156.9 140.5 156.9 217.9l21.2 1097.7c-15.3-180-33.5-351.7-55.2-495.6-45-298.1-321.7-537.2-672.9-581.4-33.4-4.2-67.8-8.1-103.6-12.2-67.7-7.7-137.7-15.8-216.1-27.1-129-19-248.2-31.1-344.7-35-147-6-365.9 7-585.3 34.9-78.7 10-155.5 21.7-228.3 34.6-332.3 59.2-583.2 291.8-624.3 578.9-25.6 178.3-53.2 397.2-78.7 610.6m1450.5-1729.5c-89.4 0-176.4 8.1-260.5 15.8-26 2.4-51.8 4.8-77.3 6.9-24.8 2-49.4 3.8-73.8 5.6-92.3 6.8-179.5 13.2-262.9 28-104.4 18.5-225.1 41.8-328.7 74.9-125.3 39.9-224.1 98.6-296.1 145.2-118.9 77-179.1 160.3-179.1 247.7 0 2.7 0 6 .5 9.5-.1 4.6.4 8.9 1 12.7 6.6 100 25.8 464.5-1.5 1003.1-16.3 317.4-42.6 695-66.2 1022.5l37.6 3.1c7.4-80.2 98.6-935 172.5-1450.7 38.9-271 277.4-490.9 593.6-547.1 72.2-12.9 148.4-24.4 226.5-34.4 217.4-27.6 433.9-40.6 579-34.6 95.1 3.8 213 15.8 340.8 34.6 78.9 11.5 149.2 19.5 217.2 27.3 35.7 4.1 70 8 103.2 12.2l2.3-18.7-2.3 18.7c334.5 42.1 597.8 268 640.3 549.6 55.6 368.6 88.1 921.8 108.7 1327.6l1 48.7 17.4 319.4c1.1 20.7 2.2 40 3.2 57.9l37.7-2.2-3.1-56.8c-2.8-53-5.9-114.7-9.2-183.1-2.8-57-5.9-119.4-9.3-185.6l-37.4-1934c0-90.7-58.6-174.7-174.1-249.3-75.3-48.7-174.1-92.3-302.2-133.1-76.4-24.4-193.2-59.4-325.1-83-90.1-16-209.5-35.8-334.7-46.1-102.9-8.2-213.8-12.3-339-12.3" style="fill:#211d1d;fill-opacity:1;fill-rule:nonzero;stroke:none" transform="matrix(.03146 0 0 -.03146 -842.07 1158.791)"/><path d="M28639.6 35165.1c9.4-482.3 43.1-954.4 35.2-1437.6 0 0-344.2 1100.5-391 1226.9-46.9 126.4-173.3 346.5-173.3 346.5l824.2 42.2z" style="fill:#cdeee8;fill-opacity:1;fill-rule:nonzero;stroke:none" transform="matrix(.03146 0 0 -.03146 -842.07 1158.791)"/><path d="M28142 35283.6c35.1-62.7 121.8-221 159.5-322.7 37.9-102.5 265.9-827.7 355.5-1113.6.8 264-9.3 528-19.1 784.4-6.7 174.1-13.6 354.3-17.1 533l-.2 10.9 239.9 144.8zm549.7-1673.5-34.9 111.8c-3.5 11-344.6 1101.4-390.7 1225.9-45.8 123.5-170.7 341.5-171.9 343.7l-15.4 26.7 930 47.5-350.1-211.1c3.6-174.9 10.3-351 16.8-521.5 11.4-295.5 23.1-601.1 18.1-905.9z" style="fill:#211d1d;fill-opacity:1;fill-rule:nonzero;stroke:none" transform="matrix(.03146 0 0 -.03146 -842.07 1158.791)"/><path d="M31690.5 35613.1c-130.1 94-315.3 185-530.4 240.5-279.1 72.1-634.4 116.9-634.4 116.9-200.3 8-389.4 2.9-389.4 2.9-126.3 0-185.2-5.7-303-15.1-127.7-10.3-250.9-20.5-364.6-40.4-129-22.7-247.9-53.5-353.2-86.8-130-41-276-128.8-360-182.5-6.2-4-677-244.7-665.3-321.2 12.5-81.1 639.4-187.6 962.1-278.6 20-7.6 40.3-14.9 61.6-21.7 75-23.6 158.2-42.7 246.3-59.9l3.7-5-3.6 5c35.7-7 72.1-13.7 109.2-20.2 113.7-20 237-25.8 364.7-36.1 117.8-9.4 239.9-24.2 366.2-24.2s249.7 3.9 367.5 13.3c127.6 10.2 249.1 29.4 362.8 49.4 129 22.6 245.9 55.4 351.2 88.6 130 41.1 240.3 87.2 324.2 140.9 118 75.4 180.3 160.5 180.3 251.9 0 61.7-67.3 161.6-95.9 182.3" style="fill:#ceeee9;fill-opacity:1;fill-rule:nonzero;stroke:none" transform="matrix(.03146 0 0 -.03146 -842.07 1158.791)"/><path d="m29358.3 34986.8 5.7-1.1c34-6.6 69.5-13.2 108.7-20.1 88.5-15.5 182.2-22.4 281.5-29.7 26.9-2 54.1-4 81.5-6.1 29.1-2.4 58.4-5 88-7.7 89.6-8.1 182.4-16.5 276.7-16.5 135.2 0 254.9 4.3 366 13.2 131.8 10.6 256.5 30.8 361.1 49.1 108.4 19.1 215.9 46.2 348.7 88.1 136.6 43.1 241.1 88.5 319.7 138.8 113.9 72.8 171.7 152.2 171.7 236 0 54.2-63.5 149.2-88.2 167-141.9 102.6-328 186.9-524 237.6-268.5 69.3-612.4 113.8-631.3 116.2-197 7.9-385.5 3-387.3 3-115.1 0-174.3-4.8-272.5-12.8l-29.5-2.3c-115.7-9.3-246.8-19.8-362.9-40.2s-234.1-49.4-350.7-86.2c-96.1-30.3-215.7-91-355.5-180.4-2.4-1.6-2.4-1.6-34.4-13.6-553.6-208.2-616.8-273.4-622.2-289.5 2.6-5.7 23-30.1 180.8-75.4 109.3-31.3 254.1-64.4 394.2-96.4 132.6-30.3 269.8-61.6 373.4-90.8l1.6-.5c22.9-8.8 42.2-15.6 60.5-21.4 65.4-20.6 141.3-39.2 238.7-58.3m842.1-118.9c-96 0-189.6 8.4-280.1 16.6-29.5 2.7-58.7 5.3-87.6 7.6-27.3 2.2-54.4 4.2-81.3 6.2-100.2 7.3-194.9 14.3-285.2 30.1-39.4 7-75.2 13.6-109.5 20.3l1.9 9.4-.2-.1-1.8-9.3c-101.5 19.8-180.4 39-248.3 60.5-18.9 5.9-38.6 12.8-61.9 21.7-102.5 28.9-238.9 60-370.7 90.1-412.8 94.3-594.7 142.1-604.1 203.6-4.6 29.6 25.5 72.1 274.7 181.2 143.8 62.9 303.5 123 371.7 148.6 13.3 5 25 9.4 28.6 10.9 142 90.7 264.2 152.6 363.2 183.8 118.2 37.3 237.8 66.7 355.6 87.4 117.9 20.7 249.9 31.2 366.4 40.6l29.4 2.3c99.1 8.1 159 12.9 275.1 12.9 1.3.1 191.6 5 390.1-3l1.6-.1c3.6-.5 359.8-45.7 636.8-117.3 200.5-51.8 391.1-138.3 536.7-243.5 31-22.4 103.8-126.8 103.8-197.6 0-97.5-63.6-187.6-189-267.8-81.5-52.1-189-98.9-328.7-142.9-134.5-42.5-243.5-70-353.6-89.3-105.4-18.5-231.2-38.9-364.6-49.6-112-9-232.7-13.3-369-13.3" style="fill:#211d1d;fill-opacity:1;fill-rule:nonzero;stroke:none" transform="matrix(.03146 0 0 -.03146 -842.07 1158.791)"/><path d="M31520 35421.6c-15.2 0-30.4 4.9-42.8 14.6-50.6 39.6-146.9 105.2-291.5 164.8-162.8 67-414.6 136.8-757.5 136.8-76.3 0-157.2-3.4-242.6-11.2-2.2-.2-4.3-.3-6.4-.3-32.9 0-61.5 23-66 53.9-5 34.3 25.9 54.3 62.9 57.6 96.8 8.7 188.1 12.7 274 12.7 358.8 0 622.3-68.7 795.6-141.1 153.8-64.3 262.7-148 310.2-204 17.2-20.4 20.3-48.6 8-68l-.1-.1c-12.4-10.4-28.1-15.7-43.8-15.7" style="fill:#effaf8;fill-opacity:1;fill-rule:nonzero;stroke:none" transform="matrix(.03146 0 0 -.03146 -842.07 1158.791)"/></g></svg>