<svg xmlns="http://www.w3.org/2000/svg" width="200mm" height="200mm" viewBox="0 0 200 200"><g style="display:inline"><path d="m25952.4 31069.2-68.2-2.8-1867.5 547.2-2626.2 340.4 20.1-46.5c-599.7 138.8-1270.7 266.8-1727.2 337.2-154.5-722.2 256.6-1303.3 943-1450.2 490.8-105.1 979.7-35.7 1318.7 311.1 205.4 210.2 475.1 345.6 767.4 375.3 11.9 1.2 24.2 2.5 36.7 3.7 598.4 60.5 1731.9-297.9 1935.9-411s852-561.4 1059.1-416.6c254.2 177.7 208.2 412.2 208.2 412.2" style="fill:#e0c13b;fill-opacity:1;fill-rule:nonzero;stroke:none" transform="matrix(.02363 0 0 -.02363 -437.026 908.155)"/><path d="M22894.4 31510.1c331.3 0 741.3-89.1 975.2-147.7 380.8-95.5 718.3-213.4 824.6-272.4 34.4-19.1 81.5-47.7 136-80.9 258.9-157.4 740.9-450.4 903.2-336.8 204.1 142.7 206.8 323.6 202.5 377.5l-54-2.3-3 .9-1866 546.8-2592.1 336 21.7-50.3-36.1 8.4c-550.3 127.3-1218.3 257.9-1708.3 334.1-68.4-338.2-14.2-652.3 157-909.1 168.3-252.4 443.6-430.5 775.2-501.5 534.6-114.4 996.8-5.8 1301.4 305.9 211.1 216 487.7 351.3 778.9 380.9l36.7 3.7c46.5 4.7 95.9 6.8 147.1 6.8m2743-900c-223 0-590.7 223.6-826.6 367-54.2 33-101 61.4-134.8 80.1-215.6 119.6-1348.4 467.1-1924.9 408.8l-36.7-3.7c-282.5-28.7-550.9-160-755.9-369.8-313.9-321.2-788.4-433.5-1336-316.3-341.3 73-624.8 256.7-798.5 517.3-179.9 269.8-234.9 600.1-158.9 955.1l3.7 17.3 17.5-2.7c481.8-74.3 1141.8-202.7 1692.4-329.1l-18.4 42.7 2661.7-345.2 1864.5-546.4 81.2 3.4 3.1-15.8c2-10.1 45.3-248.5-215.9-431.2-31.3-21.9-71.3-31.5-117.5-31.5" style="fill:#100f0d;fill-opacity:1;fill-rule:nonzero;stroke:none" transform="matrix(.02363 0 0 -.02363 -437.026 908.155)"/><path d="M25502.8 31386.2c-522 199.6-1098.7 336.7-1644 463-393.7 91.1-942.5 111.7-1345.3 112.6q-9.45 0-18.9.3c-169.1 5.7-329.1 81.1-443.2 205.9-189.8 207.5-517.1 376-925.5 463.4-718.9 153.8-1435.8 16.8-1527.2-410.3s436.2-916.3 1155.1-1070.2c551.8-118.1 1067.1-15 1318.1 232.5 130.8 129.1 296.8 216.9 478.5 244.4 13.1 1.9 24.5 3.5 34 4.6 442 48.3 879.3-25.7 1241.4-99.5 478.4-97.6 927-233.8 1352.8-471.5 210.1-117.3 549.5-355.3 692.3-204.2 280 296.3-201.9 465.4-368.1 529" style="fill:#f1e39b;fill-opacity:1;fill-rule:nonzero;stroke:none" transform="matrix(.02363 0 0 -.02363 -437.026 908.155)"/><path d="M22879.9 31666.7c328.9 0 648.3-54 949.7-115.5 555.7-113.3 974.6-259.4 1358.1-473.5 29.7-16.5 61.7-35.4 95.6-55.3 194.8-114.5 461.4-271.4 574-152.3 64.9 68.7 90.8 134.4 76.8 195.3-34.4 150.1-295.1 249-420.3 296.6l-17.6 6.7c-503.7 192.6-1041.5 323.3-1641.7 462.2-394 91.2-946.7 111.3-1341 112.1-6.5 0-13 .2-19.5.4-172.2 5.8-338.5 83.1-456.4 212-191.9 209.8-517.1 372.4-915.6 457.7-358.3 76.6-710.1 81.2-990.6 12.8-290.4-70.9-473.1-216-514.3-408.7-42.8-199.9 52.4-420 268-619.9 218.3-202.3 528.2-354.4 872.6-428.1 264.8-56.6 529.2-63.8 764.6-20.7 228.7 41.9 414.2 127.7 536.5 248.3 137.6 135.7 306.6 222 488.8 249.5 14.3 2.2 25.7 3.7 34.8 4.7 99.8 10.9 199.1 15.7 297.5 15.7m2866.3-877.4c-140.5 0-325 108.5-481.9 200.8-33.7 19.8-65.5 38.5-94.8 54.9-380.1 212.2-795.6 357-1347.4 469.5-388.6 79.3-807.1 146.1-1235.7 99.2-8.5-.9-19.4-2.4-33.2-4.5-174.3-26.3-336.2-109-468.1-239.1-127.7-125.9-319.9-215.2-556.1-258.5-240.2-43.9-509.6-36.7-779.2 21-350.8 75.1-667 230.4-890.1 437.2-225.8 209.2-324.9 441.9-279.3 655.2 44.4 207.6 237 362.8 542.2 437.3 285.8 69.7 643.5 65.2 1007.2-12.6 406.1-86.9 738.3-253.5 935.4-469 111.2-121.6 267.9-194.4 430-199.9 6.1-.2 12.3-.3 18.3-.3 396.3-.8 952-21.1 1349.5-113.1 601.6-139.3 1140.7-270.3 1646.5-463.7l17.6-6.7c131.3-49.9 404.6-153.6 443.5-323.2 17-73.9-12-151.1-86-229.4-37-39.1-84.4-55.1-138.4-55.1" style="fill:#100f0d;fill-opacity:1;fill-rule:nonzero;stroke:none" transform="matrix(.02363 0 0 -.02363 -437.026 908.155)"/><path d="M22167.9 31672.2c-82.4-385.2-705.7-578.4-1392.1-431.5-686.4 147-1194.2 595.1-1111.8 980.3 82.5 385.2 763.8 501.3 1450.2 354.4s1136.1-518 1053.7-903.2" style="fill:#daa73d;fill-opacity:1;fill-rule:nonzero;stroke:none" transform="matrix(.02363 0 0 -.02363 -437.026 908.155)"/><path d="M20558.2 32616.9c-441.3 0-817-124.8-875.8-399.8-80.3-374.9 422.3-813.6 1097.3-958 328.9-70.4 653.2-64.8 913.1 15.7 256.2 79.4 418.4 222 456.8 401.3 38.6 180.5-41.7 361.2-232.3 522.8-188.8 160.1-475.4 287.3-807 358.2-183.6 39.3-373.3 59.8-552.1 59.8m670.8-1444.3c-147.4 0-301.8 16.6-457.1 49.8-335 71.7-637.9 215.6-852.7 405.1-217.7 192-314.8 404.1-273.5 597.4 40.3 188.1 222.4 327 512.9 391.1 271.5 60 612.3 52.1 959.5-22.2 337.6-72.3 630-202.3 823.4-366.3 198.9-168.6 285.8-367.2 244.7-559.2-41.3-193.2-212.6-345.7-482.3-429.2-142.7-44.3-304.1-66.5-474.9-66.5" style="fill:#100f0d;fill-opacity:1;fill-rule:nonzero;stroke:none" transform="matrix(.02363 0 0 -.02363 -437.026 908.155)"/><path d="M20474.1 31608c8.3-32.1-15.5-66-53.2-75.7-37.6-9.7-74.8 8.5-83 40.6-8.3 32.2 15.5 66 53.2 75.7 37.6 9.7 74.8-8.5 83-40.6" style="fill:#fff;fill-opacity:1;fill-rule:nonzero;stroke:none" transform="matrix(.02363 0 0 -.02363 -437.026 908.155)"/><path d="M20411.5 31627.8c-4.8 0-9.7-.6-14.6-1.9-25.1-6.4-41.4-27.6-36.4-47.1 2.3-8.8 8.7-16.2 18.2-20.8 10.7-5.2 23.6-6.3 36.4-3 25.1 6.4 41.4 27.6 36.4 47.1-2.3 8.8-8.7 16.2-18.2 20.8-6.6 3.3-14.1 4.9-21.8 4.9m-10.9-121.5c-14.9 0-29.4 3.2-42.5 9.6-21.9 10.8-37.2 28.9-42.9 51.2-11.5 44.6 20 91.3 70 104.2 23.6 6 48 3.8 68.7-6.3 21.9-10.7 37.2-28.9 42.9-51.2 11.5-44.6-20-91.3-70-104.2-8.7-2.2-17.5-3.3-26.2-3.3" style="fill:#100f0d;fill-opacity:1;fill-rule:nonzero;stroke:none" transform="matrix(.02363 0 0 -.02363 -437.026 908.155)"/><path d="M20929 31605.8c-7.1-33.4-43.7-53.9-81.7-45.7-38 8.1-63 41.8-55.8 75.2 7.1 33.4 43.7 53.9 81.7 45.7 38-8.1 63-41.8 55.8-75.2" style="fill:#fff;fill-opacity:1;fill-rule:nonzero;stroke:none" transform="matrix(.02363 0 0 -.02363 -437.026 908.155)"/><path d="M20856.4 31659.4c-8.7 0-17-2.1-24.2-6.1-9.5-5.3-15.8-13.4-17.9-22.9-4.4-20.8 12.6-42 37.9-47.4 12.8-2.8 25.6-1 36.1 4.8 9.5 5.3 15.8 13.5 17.9 22.9 4.4 20.8-12.6 42-37.9 47.4-4 .9-8 1.3-11.9 1.3m7.7-124.5c-7.2 0-14.5.7-21.7 2.3-50.6 10.8-83.7 57-73.8 103 4.8 22.8 19.3 42 40.7 54 20.4 11.4 44.9 14.9 68.8 9.7 50.6-10.8 83.7-57 73.8-103-4.8-22.8-19.3-42-40.7-54-14.3-7.9-30.5-12-47.1-12" style="fill:#100f0d;fill-opacity:1;fill-rule:nonzero;stroke:none" transform="matrix(.02363 0 0 -.02363 -437.026 908.155)"/><path d="M21318.1 31350.9c-25.4-21.2-66.2-14.3-91.1 15.5s-24.5 71.2.9 92.5c25.4 21.2 66.3 14.3 91.2-15.5s24.5-71.2-1-92.5" style="fill:#fff;fill-opacity:1;fill-rule:nonzero;stroke:none" transform="matrix(.02363 0 0 -.02363 -437.026 908.155)"/><path d="M21263.1 31447.9c-7.5 0-14.5-2.3-20.2-7-15.4-12.9-14.5-39.6 2.1-59.5 8.4-10.1 19.6-16.8 31.3-18.8 10.4-1.8 19.9.5 26.8 6.3 7 5.8 10.9 14.8 11 25.3.1 11.9-4.5 24-13 34.2-10.6 12.6-25 19.5-38 19.5m20.2-132.7c-4.9 0-9.8.4-14.9 1.2-22.7 3.9-43.8 16.3-59.4 35-33.1 39.7-31.4 96 3.9 125.5 35.3 29.4 91 21.2 124.1-18.5 15.7-18.7 24.1-41.7 23.9-64.7-.3-24.4-10.1-46-27.8-60.8-13.9-11.6-31.2-17.7-49.8-17.7" style="fill:#100f0d;fill-opacity:1;fill-rule:nonzero;stroke:none" transform="matrix(.02363 0 0 -.02363 -437.026 908.155)"/><path d="M20865.3 31308.1c-3.9-18.3-37.9-26.6-75.9-18.5-38 8.2-65.6 29.6-61.7 48 4 18.3 38 26.6 75.9 18.5 38-8.2 65.7-29.6 61.7-48" style="fill:#fff;fill-opacity:1;fill-rule:nonzero;stroke:none" transform="matrix(.02363 0 0 -.02363 -437.026 908.155)"/><path d="M20752.8 31332.2c5-5.4 18.2-14.7 41.5-19.7 23.3-4.9 39.2-1.9 46 1-5 5.4-18.2 14.7-41.6 19.7-23.3 5-39.1 1.9-45.9-1m112.5-24.1h.1zm-47.1-45.1c-10.6 0-21.9 1.2-33.7 3.8-21.7 4.6-41.6 13.3-56 24.5-18.9 14.6-27.5 33.3-23.6 51.2 6.9 32.5 50.5 47.8 103.6 36.5 53.2-11.4 86.7-43.3 79.7-75.8-5.4-25.3-33-40.2-70-40.2" style="fill:#100f0d;fill-opacity:1;fill-rule:nonzero;stroke:none" transform="matrix(.02363 0 0 -.02363 -437.026 908.155)"/><path d="m25378.5 35550.5-48.9-47.7-1755.1-840.6-2181.4-1501.3 48.3-19.9c-528.4-291.5-1101.3-636.9-1488.5-888.6-45.5-29.6-57.6-90.5-27.1-135.4 13.1-19.3 26.6-38 40.5-56-172.5 9.7-305.9-50.1-378.3-138.3 12.2-30.7 24-69.6 32.2-99 6.8-24.4 30.9-39.8 55.9-35.8 128.1 20.6 494.3 74.1 584.3 28 317.1-165.8 611.2-266 992.1-262.7 378 3.3 725.7 213.7 895.7 551.3 135.5 269 162.2 484.7 189.9 706.8 10.4 83.9 21.4 230.7 31.3 358.7 11.7 151.2 72.6 294.2 173.4 407.5 42.7 47.9 110.5 123 222.2 245.7 404.8 444.8 1481.6 910.1 1709 962.3 227.3 52.1 940.5 150.7 997.8 396.7 70.3 302.1-93.3 368.3-93.3 368.3" style="fill:#e0c13b;fill-opacity:1;fill-rule:nonzero;stroke:none" transform="matrix(.02363 0 0 -.02363 -437.026 908.155)"/><path d="M20125 31852.9c63.4 0 115.3-5.7 143.9-20.3 359.8-188.1 644.7-263.4 983.4-260.7 375.9 3.3 712.7 210.6 879.2 541.1 133.9 265.8 160.2 476.8 187.9 700.1 9.6 76.8 19.8 208.7 28.8 325l2.5 33.3c12 154.4 75.2 303 178.1 418.5 45.7 51.3 116.3 129.4 222.4 245.9 412.1 452.8 1499.4 917.7 1718.6 967.9 34.6 8 80.1 16.9 132.8 27.3 281.3 55.3 805 158.3 850.9 355.4 55.8 239.5-38.8 320.8-71.7 341.2l-41.3-40.4-1756.6-841.2-2151.7-1480.9 52.5-21.6-34.2-18.9c-495.9-273.6-1065.9-613.9-1487.4-887.9-17.7-11.6-29.7-29.3-33.9-49.9-4.2-20.7.1-41.7 12.1-59.3 12.5-18.4 25.9-37 39.9-55.1l24.8-32.4-40.8 2.3c-147.9 8.3-279.8-37.6-355.7-123.3 11.2-30 21.6-64.9 28.7-90.3 4.3-15.2 19.4-24.8 34.9-22.3 125.5 20.2 315.4 46.5 451.9 46.5m1108.2-318.5c-336.9 0-622.8 77.4-981.5 264.9-68.1 34.9-340.5 7.5-572.6-29.9-34.4-5.5-67.5 15.7-77 49.2-7.7 27.5-19.4 66.7-31.5 97.1l-4.1 10.3 7 8.5c76.8 93.7 204.7 145.9 354.8 146.2q-9.3 12.9-18 25.8c-17.7 25.9-24 57.1-17.8 87.7 6.1 30.6 24 56.8 50.2 73.9 412.6 268.2 967 599.7 1455.5 870.4l-44.2 18.2 2212.4 1522.4 1752.3 839.3 55.4 54 11.4-4.6c7.3-2.9 177.7-75.8 104.5-389.9-51.4-220.6-570.2-322.7-880.2-383.7-52.4-10.3-97.6-19.2-131.6-27-216.8-49.7-1292.2-509.2-1699.4-956.6-105.9-116.4-176.4-194.4-222-245.6-97.5-109.4-157.4-250.2-168.7-396.5l-2.6-33.3c-9.4-122.4-19.2-249-28.8-326.2-28.3-227.1-54.9-441.2-191.8-712.9-172.8-343-522.3-558.3-912.3-561.7z" style="fill:#100f0d;fill-opacity:1;fill-rule:nonzero;stroke:none" transform="matrix(.02363 0 0 -.02363 -437.026 908.155)"/><path d="m19983.5 32060 167.7-24.3c109.4 192.5 174.9 789.2 26.9 933.6-56 54.6-212.7-186.5-311.1-317.3-28.5-37.9-95.6-138.3-145.4-183.7-56.5-51.4-111.7-64.4-164.7-112.3-36.4-32.9-60-99.7-52.2-148.2 16.7-103.7 56.8-217.7 87.7-295.4 74.8 91.2 208.6 161.8 391.1 147.6" style="fill:#e0c13b;fill-opacity:1;fill-rule:nonzero;stroke:none" transform="matrix(.02363 0 0 -.02363 -437.026 908.155)"/><path d="m20158.7 32958.5-1.4-.1c-47.2-4-153.6-150.6-224-247.6-18.2-25.2-35.4-48.9-51.3-70-6.2-8.2-14.1-19.4-23.4-32.2-33.4-46.7-84-117.3-124.4-154.1-30.4-27.7-60-44.6-88.7-60.9-26.5-15.1-51.6-29.4-76-51.5-31.9-28.8-53.1-89-46.3-131.3 14.5-90.2 47.2-188.6 75.6-263.1 92 95.6 230.8 143 386.2 131l1.2-.2 154.8-22.4c106.7 205 159.4 767.7 24 899.8-1.6 1.6-3.3 2.6-6.3 2.6m-572-1082.6-11.7 29.5c-31.1 78.4-71.8 193.9-88.8 299.4-8.8 55.1 16.7 127.6 58.1 165.1 27.5 24.8 55.5 40.8 82.7 56.2 28.1 16.1 54.7 31.2 81.9 56.1 37.5 34.1 86.7 102.8 119.3 148.2 9.4 13.1 17.6 24.5 23.9 32.9 15.6 20.8 32.8 44.4 50.9 69.4 109.4 150.8 191.5 258 251.1 263 14.3 1.3 27.1-3.3 37.1-13 159.4-155.5 83-768.4-23.7-956.3l-6.3-11.1-179.8 26.1c-154.8 11.8-291.3-39.5-374.5-140.9z" style="fill:#100f0d;fill-opacity:1;fill-rule:nonzero;stroke:none" transform="matrix(.02363 0 0 -.02363 -437.026 908.155)"/><path d="M25459.5 35338.3c10.3 407.6-461.2 211.4-627.3 147.6-521.9-200.2-1042.5-483.5-1532.6-753.9-353.8-195.2-775.9-546.6-1076.2-815.1-12.8-11.5-26.4-22.5-40.5-33.3-144.4-109.8-324.7-159.2-505.8-149.7-277.1 14.5-617.7-74.8-965.4-274.2-633.8-363.7-1076.9-940.9-872.9-1296.5 204.1-355.7 994.4-409.2 1628.2-45.6 459.7 263.8 759.4 667.8 787.2 1022.6 16.3 207.3 95.2 405.1 229.1 564.1 4.7 5.5 9.1 10.6 13 14.9 296.5 331.3 671.3 568.4 990.1 755.4 421.1 247.1 860.2 416.5 1335.8 524.1 234.7 53.1 632 131.7 637.3 339.6" style="fill:#f1e39b;fill-opacity:1;fill-rule:nonzero;stroke:none" transform="matrix(.02363 0 0 -.02363 -437.026 908.155)"/><path d="M21618 33716.7c-271.9 0-587.9-95.9-897-273.3-309.9-177.7-581.3-413.1-744.6-645.7-170.4-242.6-213.5-464.6-121.3-625.2 187.3-326.5 943.9-416.5 1602.6-38.6 444.5 255 749.9 650.6 777.9 1007.8 16.8 214.7 97.5 413.4 233.4 574.6 4.9 5.8 9.3 10.9 13.3 15.4 291 325.1 650 556.9 994.6 759.1 416 244 854.7 416.1 1341.2 526.2l34.9 7.8c232.2 52 583.1 130.6 587.8 314l18.7-.5-18.7.5c2.4 94.5-22.3 160.7-73.4 196.6-125.9 88.7-386-11.9-510.9-60.2l-17.6-6.7c-503.4-193.2-990.9-455.3-1530.2-752.9-354.2-195.4-778.9-549.8-1072.8-812.6-12.6-11.3-26.7-22.9-41.7-34.3-143.3-109-327.3-163.5-518.1-153.5-19.1 1-38.5 1.5-58.1 1.5m-1063.4-1866.1c-21.3 0-42.5.5-63.6 1.3-322.3 13.2-565.9 123.3-668.4 301.9-99.8 174-56.1 410.3 123.1 665.4 166.4 237 442.2 476.3 756.6 656.7 337.6 193.7 684.2 291.9 975.7 276.7 182.1-9.5 357.3 42.3 493.6 145.9 14.2 10.9 27.4 21.7 39.3 32.4 295.4 264.1 722.4 620.4 1079.6 817.5 540.7 298.3 1029.3 561 1535 755l17.4 6.8c131.1 50.6 403.8 156.1 546 55.9 62-43.7 92-120.5 89.3-228.2-5.4-212.6-373.5-295.1-617-349.6l-34.8-7.9c-482.7-109.2-918-279.9-1330.5-521.9-342-200.6-698.2-430.6-985.7-751.8-3.8-4.2-8-9.1-12.6-14.5-130.8-155.2-208.5-346.6-224.7-553.5-28.9-369.1-341.6-776.3-796.6-1037.3-280.3-160.8-612.6-250.8-921.7-250.8" style="fill:#100f0d;fill-opacity:1;fill-rule:nonzero;stroke:none" transform="matrix(.02363 0 0 -.02363 -437.026 908.155)"/><path d="M21361.4 32292.1c-480.2-275.5-1000.7-334.1-1265-168-53.8 33.7-97.1 76.8-127 129.3-178 310.3 234.9 815.3 812.7 1147 578 331.6 1125.7 364.4 1303.7 54 26.7-46.8 42.1-98.4 47-153.2v-.2c27.3-309.6-280.6-727.3-771.4-1008.9" style="fill:#ead46d;fill-opacity:1;fill-rule:nonzero;stroke:none" transform="matrix(.02363 0 0 -.02363 -437.026 908.155)"/><path d="M21631.3 33650.5c-15.2 0-30.7-.3-46.5-1.1-232.4-10.9-514.2-105.1-793.4-265.2-535.8-307.6-983.7-811.2-805.8-1121.5 27.8-48.6 68.4-89.9 120.7-122.7 95.4-60 225.1-88.9 373.5-88.9 261-.1 579.9 89.5 872.3 257.3 476.1 273.1 789.4 680.6 762 990.9l-.1 1c-4.7 52.8-19.7 101.5-44.5 144.8-77.3 134.9-228.3 205.4-438.2 205.4M20482.8 32012c-156.1 0-293.3 31.4-396.4 96.3-57.6 36.1-102.4 81.8-133.3 135.8-87.3 152.2-43.2 360.3 124.2 585.9 156.1 210.5 403.1 418.8 695.5 586.7 284.3 163 572 259 810.3 270.1 245.6 11.5 429.8-67.7 518.9-223.1 27.6-48.3 44.3-102.4 49.4-160.9l.1-1c28-324.3-292.8-746-780.7-1025.9-300.9-172.6-622-263.9-888-263.9" style="fill:#100f0d;fill-opacity:1;fill-rule:nonzero;stroke:none" transform="matrix(.02363 0 0 -.02363 -437.026 908.155)"/><path d="M21361.4 32292.1c-480.2-275.5-1000.7-334.1-1265-168-45.4 75.7-89.2 182.3-32.4 249.5 57.8 68.4 177.2 53.6 265.2 36.7-58.6 62.2-114.3 156.4-102.5 239.8 11.8 83.5 78.9 155.6 160.6 176.4 75.1 19.1 158.8-4.5 215.5-57.7-54.3 59.2-73.6 149.7-44.5 224.8 31.6 81.3 119.3 137.9 206 130.7 78.7-6.3 150.2-66.1 171.8-141.6-12.4 59.8-22.5 121-13.2 181.2 10.7 68.1 52.5 135.9 118.1 157.3 61.6 19.9 130.5-5.2 179.2-47.9 48.9-42.6 81.3-100.3 112.8-156.8-24.2 90.3-22.9 187.3 3.9 276.8 14.8 49.5 41.6 102.1 109.4 98.2 25.8-1.5 50.8-11.5 72.1-26.4 86.4-60.5 147-155.7 167.6-259.1-10.1 60.5-16.6 122.9 9.4 179.8 15.6 34.3 43.3 62.4 79.2 73.1 68.2 20 119.6-30.7 151.2-83.6 54.5-91.2 47.4-103.5 36.3-309 9.8 47.4 14.6 146.3 37.9 188.8 23.2 42.3 74.2 88 132.8 46.1v-.2c27.3-309.6-280.6-727.3-771.4-1008.9" style="fill:#daa73d;fill-opacity:1;fill-rule:nonzero;stroke:none" transform="matrix(.02363 0 0 -.02363 -437.026 908.155)"/><path d="M20110.1 32137.6c264.5-162.5 785.6-91.1 1242 170.8 471.6 270.5 783.5 672.9 762.7 982.1-13.6 8-26.8 10.3-40.1 7.3-25.2-5.7-46.7-30.5-58.3-51.7-14.3-26.2-21.5-81.8-27.3-126.5-2.8-21.4-5.5-41.7-8.6-57.1l-37.1 4.8c1.1 19.9 2.1 38 3.1 54.6 8.8 153.8 9.5 166.4-36.8 243.8-26.3 44-70.1 92.7-129.8 75.2-28.6-8.5-53.2-31.4-67.4-62.8-24.5-53.5-17.4-112.8-8-169l-36.8-6.8c-19.9 100-78.3 190.1-160 247.4-19.8 13.9-41.4 21.8-62.5 23.1-44.8 2.6-71.8-22.8-90.3-84.9-25.6-85.4-27-180.1-3.8-266.6l39.1-146.3-73.6 132.4c-30.3 54.5-61.7 110.8-108.7 151.7-38.8 34.1-101.4 63.5-161.2 44.3-53.1-17.3-94.4-73.2-105.2-142.4-9.2-58.9 1.8-120.9 12.9-174.5l-36.3-8.9c-19.6 68.5-84.9 122.4-155.3 128.1-77.7 6.3-158.2-44.8-187.1-118.9-26.1-67.6-9.7-150.1 40.9-205.3l-26.6-26.3c-52.8 49.5-130.6 70.4-198.1 53.2-75.7-19.3-136-85.5-146.6-160.9-11-77.5 43.2-166.7 97.5-224.3l39.7-42.2-56.8 10.9c-88.8 17-197.2 28.9-247.4-30.4-48.6-57.5-10.2-152.7 31.8-223.9m372.7-125.6c-156.1 0-293.3 31.4-396.4 96.3l-3.8 2.3-2.3 3.9c-70.5 117.7-81.1 211.4-30.7 271.2 52.4 61.8 145.6 63.6 232.4 51.5-46.7 61.8-84.2 142-73.8 215.5 12.7 90.1 84.4 169.1 174.4 192 52.4 13.3 109.8 7.3 160.6-14.8-21.5 54.6-23.3 116.5-2.4 170.5 34.7 89 131.5 150.2 225 142.6 51.3-4.1 100.4-29.3 136.5-66.8-2.6 29.7-2.6 60.2 2.1 90.5 13.1 83.1 64.4 150.7 130.8 172.3 62.5 20.1 138.1.3 197.4-51.7 25.5-22.2 46.9-48.6 65.6-76.1-4.4 63 2.5 126.5 20.8 187.5 8.6 28.9 35 116.9 128.4 111.5 28-1.7 56.3-12 81.8-29.8 54.7-38.3 99.8-90 131.6-149.4 2.8 21.1 8.2 42.1 17.6 62.6 18.7 41.3 51.8 71.6 90.9 83.2 64.5 19 125.7-13.7 172.6-91.8 27.9-46.8 40.5-75.3 44.8-115.4 20.2 33.9 49.6 57.9 79.7 64.7 25.9 5.9 52.7-.3 77.3-17.9l7.8-5.6v-9c28-324.3-292.8-746-780.7-1025.9-300.9-172.6-622-263.9-888-263.9" style="fill:#100f0d;fill-opacity:1;fill-rule:nonzero;stroke:none" transform="matrix(.02363 0 0 -.02363 -437.026 908.155)"/><path d="M20840 32058.9c-2.6 0-5.2.5-7.7 1.3-196.2 67.8-381 186.4-520.2 334-8.9 9.4-8.4 24.3 1 33.1 9.4 8.9 24.2 8.5 33.1-.9 134.1-142.2 312.2-256.5 501.4-321.9 12.2-4.2 18.7-17.6 14.5-29.8-3.4-9.7-12.4-15.8-22.1-15.8M21526.7 32373.2c-10.9 0-20.6 7.6-22.9 18.6-27 127.1-68.4 270.5-108.4 409.2-30 104.1-61.1 211.7-85.2 309.9-3.1 12.5 4.6 25.2 17.1 28.3s25.3-4.6 28.4-17.2c23.9-97.2 54.8-204.4 84.7-308 40.2-139.5 81.8-283.7 109.2-412.5 2.7-12.6-5.4-25.1-18.1-27.8-1.6-.3-3.2-.5-4.8-.5M21350.9 32262.7c-5.8 0-11.7 2.2-16.2 6.5-190.9 183.4-344 487-417.1 691.3-4.4 12.1 2 25.5 14.1 29.9 12.2 4.4 25.6-2 30-14.2 71.4-199.4 220.4-495.5 405.4-673.2 9.3-9 9.6-23.8.7-33.1-4.6-4.8-10.8-7.2-16.9-7.2M21141.2 32158.3c-4.7 0-9.5 1.5-13.7 4.4-239.3 172.1-471.9 492.6-537.4 586.7-7.4 10.7-4.8 25.2 5.8 32.6s25.2 4.8 32.6-5.8c64.5-92.6 293-407.7 526.4-575.4 10.5-7.6 12.9-22.2 5.3-32.7-4.5-6.4-11.7-9.8-19-9.8M21745.2 32548.1h-1.8c-12.9 1-22.6 12.3-21.6 25.2 15.7 207.4-20.4 460.2-56 613.7-3 12.6 4.9 25.2 17.5 28.1s25.1-4.9 28.1-17.5c36.4-156.7 73.2-415.2 57.1-627.9-.9-12.3-11.2-21.6-23.3-21.6M21928.9 32746.3c-2.5 0-5.2.5-7.7 1.4-12.2 4.3-18.6 17.6-14.3 29.8 15.9 45.1 32.7 214.8 32.2 295.8-.1 13 10.3 23.5 23.2 23.6h.2c12.9 0 23.3-10.4 23.4-23.3.5-78.6-15.5-256.8-34.9-311.6-3.4-9.7-12.4-15.7-22.1-15.7" style="fill:#100f0d;fill-opacity:1;fill-rule:nonzero;stroke:none" transform="matrix(.02363 0 0 -.02363 -437.026 908.155)"/><path d="M19836.2 31835.4c-15.1-70.5-84.4-115.4-154.9-100.3s-115.3 84.4-100.3 154.9c15.1 70.5 84.5 115.4 154.9 100.3 70.5-15.1 115.4-84.5 100.3-154.9" style="fill:#fff;fill-opacity:1;fill-rule:nonzero;stroke:none" transform="matrix(.02363 0 0 -.02363 -437.026 908.155)"/><path d="M19836.2 31835.4h.1zm-127.8 134.4c-20.4 0-40.4-5.9-58-17.2-24-15.6-40.5-39.5-46.5-67.5-12.3-57.7 24.6-114.8 82.3-127.1 57.7-12.4 114.8 24.5 127.1 82.3 12.4 57.7-24.5 114.7-82.3 127.1-7.5 1.6-15.1 2.4-22.6 2.4m.3-261c-10.7 0-21.5 1.1-32.3 3.4-83 17.8-136 99.7-118.3 182.7 8.6 40.2 32.4 74.6 66.9 97 34.5 22.3 75.6 29.9 115.8 21.3 83-17.8 136.1-99.7 118.3-182.7-15.4-72.2-79.4-121.7-150.4-121.7" style="fill:#100f0d;fill-opacity:1;fill-rule:nonzero;stroke:none" transform="matrix(.02363 0 0 -.02363 -437.026 908.155)"/><path d="M19827.1 31792.7c-15.1-70.5-84.5-115.4-154.9-100.3-70.5 15.1-115.4 84.4-100.3 154.9s84.4 115.4 154.9 100.3 115.4-84.5 100.3-154.9" style="fill:#bae7e0;fill-opacity:1;fill-rule:nonzero;stroke:none" transform="matrix(.02363 0 0 -.02363 -437.026 908.155)"/><path d="M19699.5 31927.1c-49.4 0-94-34.5-104.7-84.7-12.4-57.7 24.6-114.7 82.3-127.1 28-6 56.6-.7 80.6 14.8 24 15.6 40.5 39.5 46.5 67.5 12.3 57.7-24.6 114.7-82.3 127.1-7.5 1.6-15 2.4-22.4 2.4m.3-261.1c-10.8 0-21.7 1.2-32.5 3.5-83 17.8-136.1 99.7-118.3 182.7s99.7 136 182.7 118.3c83-17.8 136-99.7 118.3-182.7-8.6-40.2-32.4-74.7-66.9-97-25.2-16.3-54-24.8-83.3-24.8" style="fill:#100f0d;fill-opacity:1;fill-rule:nonzero;stroke:none" transform="matrix(.02363 0 0 -.02363 -437.026 908.155)"/></g></svg>