<?xml version="1.0" encoding="UTF-8" standalone="no"?>
<!-- Created with Inkscape (http://www.inkscape.org/) -->

<svg
   width="200mm"
   height="200mm"
   viewBox="0 0 200 200"
   version="1.1"
   id="svg3341"
   inkscape:export-filename="../src/personal/cocktails/assets/images/tools_double-strainer.svg"
   inkscape:export-xdpi="96"
   inkscape:export-ydpi="96"
   inkscape:version="1.2.2 (b0a8486541, 2022-12-01)"
   sodipodi:docname="garnishes.svg"
   xmlns:inkscape="http://www.inkscape.org/namespaces/inkscape"
   xmlns:sodipodi="http://sodipodi.sourceforge.net/DTD/sodipodi-0.dtd"
   xmlns="http://www.w3.org/2000/svg"
   xmlns:svg="http://www.w3.org/2000/svg">
  <sodipodi:namedview
     id="namedview3343"
     pagecolor="#ffffff"
     bordercolor="#666666"
     borderopacity="1.0"
     inkscape:showpageshadow="2"
     inkscape:pageopacity="0.0"
     inkscape:pagecheckerboard="0"
     inkscape:deskcolor="#d1d1d1"
     inkscape:document-units="mm"
     showgrid="true"
     inkscape:lockguides="true"
     inkscape:zoom="1"
     inkscape:cx="80"
     inkscape:cy="522"
     inkscape:window-width="1838"
     inkscape:window-height="1402"
     inkscape:window-x="0"
     inkscape:window-y="0"
     inkscape:window-maximized="0"
     inkscape:current-layer="layer3">
    <inkscape:grid
       type="xygrid"
       id="grid6629"
       dotted="false"
       spacingx="1.3229167"
       spacingy="1.3229167"
       originx="0"
       originy="0" />
  </sodipodi:namedview>
  <defs
     id="defs3338" />
  <g
     inkscape:groupmode="layer"
     id="layer2"
     inkscape:label="tools"
     transform="translate(-1.2743408,-0.8516276)"
     style="display:inline">
    <g
       id="g6281"
       inkscape:label="strainer - mesh"
       transform="matrix(0.01536614,0,0,-0.01536614,5.4034067,576.05104)">
      <path
         d="m 10581.3,31684.7 c -25.4,105.2 -112.3,148 -210.4,174.1 -200.5,53.4 -827.63,-350.2 -1164.41,-634.8 l -146.78,-103.9 c 39.5,-32.3 80.6,-62.2 132.91,-75.3 57.24,-10.7 113.58,-21.9 169.21,-33.6 l 55.88,49.7 c 325.86,275 693.09,529.1 808.09,544 89.8,11.6 135.1,-55.5 109.5,-103.4 -45.1,-84.4 -281.6,-352.6 -378.76,-478.4 -37.35,-48.4 -77.37,-93.3 -118.9,-135.3 109.46,-34.9 216.06,-74.5 320.16,-119.9 9.4,11.7 18.8,23.3 28.1,35.3 312,404.4 446.1,671.4 395.4,881.5"
         style="fill:#aae1c1;fill-opacity:1;fill-rule:nonzero;stroke:none"
         id="path454" />
      <path
         d="m 9893.4,30901.7 c 89.18,-29.7 173.2,-61.5 255.2,-96.5 4.4,5.5 8.8,11 13.1,16.7 322.7,418.2 435.7,666 389.9,855.6 -18.3,76.1 -74.7,121.5 -188.5,151.8 -182.4,48.5 -795.22,-339.9 -1136.89,-628.6 l -2.07,-1.6 -113.2,-80.2 c 29.11,-21.1 56.44,-36.1 88.24,-44.2 51.7,-9.7 103.38,-19.9 153.85,-30.5 l 44.39,39.5 c 302.04,255 693.28,534.5 824.48,551.5 56.8,7.3 106.6,-11.5 133.5,-50.4 20.5,-29.8 23.2,-67.2 6.9,-97.7 -30.7,-57.3 -137.9,-186.3 -241.5,-311.1 -54.6,-65.6 -106.1,-127.5 -140.07,-171.6 -26.96,-34.9 -55.75,-68.8 -87.33,-102.7 z m 273.5,-171.1 -21.4,9.3 c -100.8,44 -204.51,82.9 -317.15,118.8 l -47.49,15.1 35.06,35.5 c 43.56,44 81.64,87.3 116.44,132.4 34.69,45 86.54,107.4 141.44,173.4 97,116.7 206.9,249 234.6,300.8 5.6,10.5 4.4,23 -3.3,34.2 -13.6,19.7 -41.8,28.8 -75.4,24.5 -101.6,-13.1 -456.99,-254 -792.28,-537.1 l -66.81,-59.4 -15.08,3.2 c -55.1,11.6 -111.8,22.9 -168.54,33.5 l -1.78,0.4 c -60.39,15.1 -106.43,49.9 -144.83,81.2 l -31.08,25.4 178.47,126.4 c 291.83,246.4 961.13,701.4 1191.03,640.1 91.9,-24.5 201.4,-68.9 232.2,-196.4 50.6,-209.8 -65.5,-472.7 -400.9,-907.3 -7.8,-10.2 -15.8,-20.1 -23.7,-29.9 l -19.5,-24.1"
         style="fill:#211d1d;fill-opacity:1;fill-rule:nonzero;stroke:none"
         id="path456" />
      <path
         d="m 5803.24,29104.2 c 153.72,-264.4 313.36,-519.7 475.81,-760.9 194.95,-289.5 463.11,-605.1 735.74,-865.9 616.67,-589.8 1551.01,-621.6 2127.09,-72.2 231.52,220.8 288.56,304.7 457.89,554.1 67.52,99.4 151.54,223.2 271.02,391.8 163.31,230.5 302.91,447.7 416.41,647.5 -206.4,-151.3 -448.66,-274.9 -722.36,-368.4 -398.45,-136 -867.51,-209.3 -1394.14,-217.6 -584.37,-9.3 -1110.55,71.9 -1564.19,241.3 -300.98,112.4 -570.45,263.5 -803.27,450.3 z m 2347.57,-2150.9 c -24.66,0 -49.36,0.6 -74.22,1.7 -409.15,18.8 -801.23,188.7 -1104.03,478.3 -275.66,263.6 -546.9,582.9 -744.18,875.9 -194.73,289.1 -385.41,598.4 -566.75,919.1 l -95.77,169.3 143.07,-131.8 c 404.39,-372.8 1159.75,-812.7 2460.8,-792.1 953.4,15.1 1692.49,238.8 2196.67,665 l 120.8,102.1 -74,-139.7 c -125.7,-237 -291.4,-501.2 -492.56,-785.3 -119.12,-168.2 -202.96,-291.6 -270.33,-390.8 -172.07,-253.4 -230.03,-338.8 -466.27,-564 -277.25,-264.4 -641.81,-407.7 -1033.23,-407.7"
         style="fill:#211d1d;fill-opacity:1;fill-rule:nonzero;stroke:none"
         id="path458" />
      <path
         d="m 10659.5,29860.5 c 0,-1.4 -0.1,-2.9 -0.1,-4.4 6.1,57.5 2.7,89.8 0.8,101.2 l -10.2,0.1 c 6.4,-31.8 9.5,-64.2 9.5,-96.9"
         style="fill:#f5f014;fill-opacity:1;fill-rule:nonzero;stroke:none"
         id="path460" />
      <path
         d="m 10689.8,29852.9 -60.9,3.2 v 4.4 c 0,31.1 -3,61.7 -8.8,90.8 l -7.5,37 73.8,-0.8 4,-25.5 c 2.5,-15.4 5.6,-50.2 -0.6,-109.1"
         style="fill:#211d1d;fill-opacity:1;fill-rule:nonzero;stroke:none"
         id="path462" />
      <path
         d="m 8275.31,28128.4 c -32.38,0 -64.68,0.5 -97.08,1.3 -1047.43,27.1 -1706.47,220.6 -2074.89,378.2 -15.51,6.7 -22.71,24.6 -16.07,40.1 6.64,15.6 24.58,22.8 40.1,16.1 363.51,-155.5 1014.67,-346.5 2052.44,-373.3 709.02,-18.3 1430.04,180.9 1796.68,301.3 16.03,5.3 33.31,-3.4 38.51,-19.4 5.3,-16.1 -3.4,-33.3 -19.44,-38.6 -430.96,-141.5 -1070.8,-305.7 -1720.25,-305.7"
         style="fill:#211d1d;fill-opacity:1;fill-rule:nonzero;stroke:none"
         id="path464" />
      <path
         d="m 8070.18,27728.9 c -687.38,0 -1359.32,247.9 -1709.69,401.6 -15.45,6.8 -22.48,24.8 -15.7,40.2 6.78,15.5 24.79,22.5 40.24,15.7 365.68,-160.3 1085.97,-424.7 1801.4,-393.9 547.85,23.6 1088.47,127 1445.53,209.6 16.46,3.8 32.84,-6.5 36.64,-22.9 3.8,-16.5 -6.44,-32.9 -22.88,-36.7 -359.56,-83.1 -904.15,-187.2 -1456.65,-211 -39.63,-1.7 -79.31,-2.6 -118.89,-2.6"
         style="fill:#211d1d;fill-opacity:1;fill-rule:nonzero;stroke:none"
         id="path466" />
      <path
         d="m 8289.65,27381.5 c -39.35,0 -78.65,0.6 -117.95,1.9 -578.64,18.1 -1112.96,184.7 -1459.31,321.3 -15.7,6.2 -23.4,23.9 -17.21,39.6 6.18,15.7 23.93,23.4 39.61,17.2 341.85,-134.8 868.96,-299.2 1438.82,-317.1 384.68,-12.1 772.67,36 1153.19,143 16.23,4.5 33.11,-4.9 37.67,-21.2 4.56,-16.2 -4.9,-33.1 -21.14,-37.6 -347.67,-97.7 -701.57,-147.1 -1053.68,-147.1"
         style="fill:#211d1d;fill-opacity:1;fill-rule:nonzero;stroke:none"
         id="path468" />
      <path
         d="m 8144.22,27106.9 c -329.11,0 -802.52,164.8 -1148.8,306.5 -15.62,6.4 -23.09,24.3 -16.7,39.9 6.4,15.6 24.25,23.1 39.84,16.7 355.93,-145.7 846.99,-316.1 1165.7,-301.1 213.98,10.2 500.47,53 828.49,123.9 16.51,3.6 32.74,-6.9 36.31,-23.4 3.57,-16.5 -6.91,-32.7 -23.4,-36.3 -231,-49.9 -563.99,-112.2 -838.5,-125.2 -14.01,-0.7 -28.34,-1 -42.94,-1"
         style="fill:#211d1d;fill-opacity:1;fill-rule:nonzero;stroke:none"
         id="path470" />
      <path
         d="m 8201.89,26953.3 h -0.04 c -16.87,0 -30.53,13.7 -30.51,30.6 l 0.01,32.8 c -0.35,306.4 -11.24,890.1 -32.37,1734.8 -0.42,16.8 12.91,30.9 29.78,31.3 16.75,0.3 30.88,-12.9 31.3,-29.8 21.14,-845.2 32.03,-1429.3 32.38,-1736.3 v -32.9 c -0.03,-16.8 -13.7,-30.5 -30.55,-30.5"
         style="fill:#211d1d;fill-opacity:1;fill-rule:nonzero;stroke:none"
         id="path472" />
      <path
         d="m 8806.87,27103.5 c -5.97,0 -12,1.8 -17.29,5.4 -13.9,9.6 -17.41,28.6 -7.86,42.5 341.91,497.1 555.15,1045.1 633.79,1628.7 2.24,16.7 17.68,28.4 34.35,26.2 16.72,-2.3 28.45,-17.6 26.19,-34.4 -79.93,-593.2 -296.6,-1150 -643.98,-1655.1 -5.93,-8.6 -15.48,-13.3 -25.2,-13.3"
         style="fill:#211d1d;fill-opacity:1;fill-rule:nonzero;stroke:none"
         id="path474" />
      <path
         d="m 7562.68,27063.8 c -11.02,0 -21.66,6 -27.11,16.4 -198.88,381.1 -430.47,989.6 -688.33,1808.8 -5.07,16.1 3.87,33.3 19.96,38.3 16.08,5.1 33.24,-3.8 38.31,-19.9 256.79,-815.8 486.99,-1421 684.22,-1798.9 7.81,-15 2.01,-33.4 -12.94,-41.2 -4.52,-2.4 -9.35,-3.5 -14.11,-3.5"
         style="fill:#211d1d;fill-opacity:1;fill-rule:nonzero;stroke:none"
         id="path476" />
      <path
         d="m 8844.99,28745.6 h 0.01 z m 0.09,0 h 0.1 z M 8530.18,27001 c -3.13,0 -6.32,0.5 -9.45,1.5 -16.05,5.3 -24.83,22.5 -19.61,38.5 161.25,496 326.66,1620.2 319.24,1720.8 -2.61,4.9 -3.9,10.6 -3.45,16.5 1.25,16.8 16.01,29.5 32.74,28.2 9.85,-0.7 18.72,-6 24.33,-14.3 7.8,-11.7 15.87,-23.7 -11.7,-239.9 -17.07,-133.7 -43.1,-305.4 -73.29,-483.3 -36.3,-214 -131.37,-744.2 -229.77,-1046.8 -4.2,-13 -16.17,-21.2 -29.04,-21.2"
         style="fill:#211d1d;fill-opacity:1;fill-rule:nonzero;stroke:none"
         id="path478" />
      <path
         d="m 7883.12,26986.1 c -12.65,0 -24.48,8 -28.86,20.6 -49.92,143.7 -97.61,321.5 -135.93,464.5 -8.92,33.2 -17.27,64.4 -24.95,92.5 -115.43,422.1 -192.43,1201.5 -193.19,1209.4 -1.64,16.8 10.64,31.7 27.43,33.3 16.78,1.8 31.73,-10.6 33.37,-27.4 0.76,-7.8 77.27,-782.1 191.32,-1199.2 7.71,-28.2 16.08,-59.4 25.02,-92.8 38.07,-142 85.44,-318.7 134.64,-460.3 5.53,-15.9 -2.89,-33.3 -18.83,-38.8 -3.32,-1.2 -6.7,-1.8 -10.02,-1.8"
         style="fill:#211d1d;fill-opacity:1;fill-rule:nonzero;stroke:none"
         id="path480" />
      <path
         d="m 9378.95,27575 c -5.55,0 -11.17,1.5 -16.21,4.6 -14.29,9 -18.61,27.8 -9.64,42.1 200.61,319.8 492.77,1014.1 568.79,1430.1 3.04,16.6 18.89,27.6 35.54,24.5 16.59,-3 27.59,-18.9 24.56,-35.5 -78.46,-429.4 -369.42,-1120.5 -577.14,-1451.5 -5.8,-9.3 -15.74,-14.3 -25.9,-14.3"
         style="fill:#211d1d;fill-opacity:1;fill-rule:nonzero;stroke:none"
         id="path482" />
      <path
         d="m 6890.62,27526.3 c -11.07,0 -21.75,6 -27.17,16.5 -217.82,421.9 -447.68,954.2 -602.16,1326.5 -78.27,188.6 -127.92,314.1 -128.41,315.4 -6.2,15.7 1.49,33.4 17.18,39.6 15.69,6.2 33.44,-1.5 39.64,-17.2 0.49,-1.2 49.97,-126.3 128.02,-314.4 154.03,-371.2 383.16,-901.9 600.01,-1321.9 7.74,-15 1.86,-33.4 -13.13,-41.1 -4.48,-2.4 -9.27,-3.4 -13.98,-3.4"
         style="fill:#211d1d;fill-opacity:1;fill-rule:nonzero;stroke:none"
         id="path484" />
      <path
         d="m 8289.99,28850.4 h -0.87 c -16.87,0.5 -30.16,14.6 -29.69,31.4 15.24,544.4 -2.67,1597.6 -14.27,2078.4 -0.41,16.9 12.93,30.9 29.8,31.3 17.03,0.2 30.87,-12.9 31.27,-29.8 11.62,-481.4 29.55,-1536 14.28,-2081.6 -0.47,-16.5 -14.05,-29.7 -30.52,-29.7"
         style="fill:#211d1d;fill-opacity:1;fill-rule:nonzero;stroke:none"
         id="path486" />
      <path
         d="m 9779.55,29073 c -5.08,0 -10.23,1.3 -14.98,4 -14.69,8.3 -19.88,26.9 -11.6,41.6 266.73,472.9 467.43,962.6 536.73,1310 3.3,16.6 19.4,27.3 35.9,24 16.6,-3.3 27.3,-19.4 24,-35.9 -70.5,-353.4 -273.7,-849.9 -543.41,-1328.1 -5.62,-10 -15.98,-15.6 -26.64,-15.6"
         style="fill:#211d1d;fill-opacity:1;fill-rule:nonzero;stroke:none"
         id="path488" />
      <path
         d="m 6314.38,29113.1 c -10.44,0 -20.62,5.4 -26.32,15 -282.02,476.9 -493.06,931.5 -588.09,1175.8 -6.12,15.7 1.67,33.4 17.39,39.5 15.72,6.1 33.43,-1.7 39.54,-17.4 94.2,-242.1 303.61,-693 583.75,-1166.8 8.59,-14.5 3.77,-33.2 -10.75,-41.8 -4.88,-2.9 -10.23,-4.3 -15.52,-4.3"
         style="fill:#211d1d;fill-opacity:1;fill-rule:nonzero;stroke:none"
         id="path490" />
      <path
         d="m 8809.41,28887.6 c -1.68,0 -3.37,0.1 -5.08,0.4 -16.64,2.8 -27.87,18.6 -25.08,35.2 126.75,757.1 216.65,1628.2 249.42,1967.5 1.62,16.8 16.58,29.2 33.34,27.5 16.79,-1.6 29.09,-16.5 27.47,-33.3 -32.83,-340 -122.91,-1212.8 -249.98,-1971.8 -2.5,-14.9 -15.44,-25.5 -30.09,-25.5"
         style="fill:#211d1d;fill-opacity:1;fill-rule:nonzero;stroke:none"
         id="path492" />
      <path
         d="m 9442.08,28987.4 c -2.21,0 -4.44,0.2 -6.68,0.7 -16.47,3.7 -26.84,20 -23.16,36.5 133.36,597.5 248.25,1317.8 304.87,1694 2.51,16.7 18.02,28.2 34.76,25.7 16.68,-2.5 28.17,-18.1 25.65,-34.8 -56.73,-377 -171.89,-1098.9 -305.65,-1698.2 -3.18,-14.3 -15.8,-23.9 -29.79,-23.9"
         style="fill:#211d1d;fill-opacity:1;fill-rule:nonzero;stroke:none"
         id="path494" />
      <path
         d="m 7688.69,28862.9 c -14.48,0 -27.33,10.3 -30.02,25 -132.71,727.6 -238.3,1581.6 -289.43,2025.8 -1.93,16.8 10.1,31.9 26.86,33.9 16.76,1.8 31.91,-10.1 33.84,-26.9 51.04,-443.5 156.44,-1295.9 288.83,-2021.8 3.03,-16.6 -7.97,-32.5 -24.57,-35.5 -1.85,-0.4 -3.7,-0.5 -5.51,-0.5"
         style="fill:#211d1d;fill-opacity:1;fill-rule:nonzero;stroke:none"
         id="path496" />
      <path
         d="m 7074.47,28940.5 c -12.72,0 -24.59,8 -28.92,20.7 -230.89,678.7 -408.87,1407.2 -494.41,1781 -3.76,16.5 6.52,32.9 22.97,36.6 16.42,3.8 32.82,-6.5 36.58,-22.9 85.29,-372.8 262.69,-1099 492.7,-1775 5.43,-16 -3.11,-33.3 -19.08,-38.8 -3.26,-1.1 -6.58,-1.6 -9.84,-1.6"
         style="fill:#211d1d;fill-opacity:1;fill-rule:nonzero;stroke:none"
         id="path498" />
      <path
         d="m 2027.7,24966.6 c -162.21,0 -296.66,69.4 -372.54,129 -109.47,86 -220.12,405.8 -79.09,551.1 0,0 1695.52,1287.8 2279.88,1717.7 566.08,416.4 2219.36,1725.2 2219.36,1725.2 87.17,64.1 209.78,45.3 273.85,-41.8 64.06,-87.2 45.33,-209.8 -41.83,-273.9 L 5016.74,27886.7 1897.1,25581.4 c -114.61,-85 -58,-342.8 87.07,-342.8 228.53,0 466.65,163.5 636.62,288.4 0,0 1915.1,1415.4 2551.93,1888.1 466.04,346 1821.22,1439.8 1821.22,1439.8 87.15,64.1 209.77,45.4 273.85,-41.8 64.06,-87.2 45.34,-209.8 -41.83,-273.8 L 2801.09,25286.9 c -223.62,-164.3 -502.27,-320.3 -773.39,-320.3"
         style="fill:#aae1c1;fill-opacity:1;fill-rule:nonzero;stroke:none"
         id="path500" />
      <path
         d="m 1596.46,25623.9 c -52.89,-56 -59.35,-137.4 -55.39,-196.2 8.96,-132.8 76,-263.3 132.96,-308.1 36.58,-28.7 170.19,-122.5 353.67,-122.5 217.33,0 471.46,105.8 755.3,314.5 l 4424.87,3252.3 c 73.45,54 89.29,157.7 35.31,231.1 -53.87,73.3 -157.19,89.2 -230.61,35.7 -34,-27.4 -1364.04,-1100.4 -1821.64,-1440.1 -629.57,-467.3 -2532.84,-1874 -2551.99,-1888.1 -208.02,-152.9 -431.26,-294.4 -654.77,-294.4 -72.7,0 -135.53,53.5 -163.98,139.5 -27.45,83.1 -20.79,199.4 58.71,258.4 l 3120.54,2305.9 1290.58,887.2 c 72.67,53.5 88.51,157.1 34.53,230.6 -53.88,73.3 -157.29,89.2 -230.73,35.6 -35.11,-27.8 -1662.98,-1315.9 -2219.77,-1725.5 C 3305.34,26921.4 1662.46,25674 1596.46,25623.9 Z M 2027.7,24936 c -197.54,0 -339.53,94.8 -391.41,135.6 -78.41,61.6 -147.01,216.2 -156.17,352 -6.94,102.8 18.66,187.3 74.03,244.4 l 3.44,3.1 c 16.96,12.8 1702.4,1292.7 2280.26,1717.9 559.17,411.3 2201.97,1711.5 2218.5,1724.6 l 0.88,0.6 c 100.61,74 242.61,52.3 316.54,-48.3 73.93,-100.6 52.24,-242.6 -48.35,-316.6 L 5034.47,27861.8 1915.26,25556.9 c -52.64,-39.1 -58.5,-125.2 -37.06,-190.1 7.57,-22.9 37.58,-97.6 105.97,-97.6 234.28,0 493.8,190.8 618.53,282.4 19.08,14.2 1922.3,1420.8 2551.82,1888.1 460.21,341.6 1806.69,1428.1 1820.24,1439 l 1.09,0.9 c 100.58,73.9 242.59,52.2 316.55,-48.4 73.93,-100.6 52.24,-242.6 -48.34,-316.5 L 2819.18,25262.3 C 2524.62,25045.8 2258.33,24936 2027.7,24936"
         style="fill:#211d1d;fill-opacity:1;fill-rule:nonzero;stroke:none"
         id="path502" />
      <path
         d="m 10946.6,29954 c 0,0 -280.7,-1471.4 -2776.38,-1510.8 -2495.97,-39.8 -3016.14,1582.1 -3016.14,1582.1 l 364.07,-8.4 c -17.72,-51 -26.88,-103.2 -26.88,-156.4 0,-165.5 81.56,-300.8 235.52,-441.1 529.67,-310.6 1379.79,-538.5 2355.45,-538.5 939.95,0 1785.44,170.9 2319.66,461.3 45.8,24.9 87.2,57.4 120.2,97.7 105,128.4 137.4,279.5 137.4,420.6 0,32.7 -3.1,65.1 -9.5,96.9 l 296.6,-3.4"
         style="fill:#9adbb6;fill-opacity:1;fill-rule:nonzero;stroke:none"
         id="path504" />
      <path
         d="m 5198.67,29993.8 c 45.65,-112.1 199.05,-436.6 550.77,-754.3 399.16,-360.6 1142.96,-786.1 2420.3,-765.8 1276.29,20.2 1955.26,423.6 2300.06,758.5 304.4,295.6 409.2,591.3 437.7,691.7 l -221.5,2.5 c 2.7,-21.6 4,-43.6 4,-65.9 0,-174.8 -48.5,-322.9 -144.3,-439.9 -34.1,-41.7 -77.6,-77.1 -129.2,-105.2 -543.62,-295.5 -1394.42,-465 -2334.26,-465 -905.16,0 -1791.47,202.8 -2370.91,542.7 l -2.75,1.6 -2.36,2.2 c -169.78,154.6 -245.49,297.6 -245.49,463.6 0,42.4 5.54,84.9 16.5,126.8 z M 8081.3,28411.9 c -537.5,0 -1023.49,78.3 -1445.85,233 -357.39,131 -670.22,316.6 -929.8,551.8 -443.01,401.4 -575.24,802.4 -580.65,819.3 l -13.11,40.9 448.87,-10.4 -13.75,-39.6 c -16.72,-48.1 -25.19,-97.3 -25.19,-146.4 0,-146.6 68.87,-275.1 223.18,-416.3 570.53,-333.7 1443.9,-532.8 2337.24,-532.8 929.97,0 1770.13,166.8 2305.06,457.7 44.7,24.3 82,54.6 111.1,90.1 86.6,105.9 130.5,240.9 130.5,401.3 0,31.1 -3,61.7 -8.8,90.8 l -7.5,37 370.9,-4.2 -6.9,-35.8 c -2.9,-15.4 -76.4,-381.6 -461,-756.8 -224.9,-219.4 -510.1,-395.7 -847.85,-524.2 -420.56,-159.9 -924.24,-245.6 -1497.05,-254.7 -29.94,-0.5 -59.76,-0.7 -89.4,-0.7"
         style="fill:#211d1d;fill-opacity:1;fill-rule:nonzero;stroke:none"
         id="path506" />
      <path
         d="m 8009.42,31383.9 c -1611.91,0 -2874.49,-584.5 -2874.49,-1265.7 0,-268.6 234.06,-513.7 580.12,-716.1 278.74,-163.5 649.51,-294.4 1080.29,-381.8 -425.36,96.4 -790.95,236.4 -1068.51,399.2 -154.09,140.2 -235.63,275.6 -235.63,441 0,609 1200.28,1100.3 2641.55,1100.3 23.14,0 46.2,-0.1 69.15,-0.3 1406.29,-15.5 2457.5,-500.8 2457.5,-1100 0,-150.8 -31,-310.1 -154.5,-442.3 314.8,197.5 463.8,443.4 463.8,700 0,681.2 -1347.81,1265.7 -2959.28,1265.7"
         style="fill:#cdedda;fill-opacity:1;fill-rule:nonzero;stroke:none"
         id="path508" />
      <path
         d="m 8009.42,31353.4 c -768.24,0 -1488.9,-133.1 -2029.24,-374.8 -257.77,-115.2 -459.86,-248.6 -600.68,-396.3 -142.01,-149 -214.03,-305.1 -214.03,-464.1 0,-244.9 209.06,-452.5 426.95,-602.3 -90.33,111.5 -131.77,221.8 -131.77,344.6 0,306.7 283.81,593.3 799.16,806.8 504.5,209 1169.65,324.1 1872.94,324.1 23.26,0 46.42,-0.1 69.48,-0.4 680.49,-7.5 1308.49,-126 1768.34,-333.8 463.83,-209.6 719.33,-492.5 719.33,-796.7 0,-122.7 -21.2,-228.4 -64.4,-319.1 205.2,166.4 312.7,363.5 312.7,576.8 0,312.8 -312.4,626.3 -856.9,860.3 -562.8,241.7 -1298.61,374.9 -2071.88,374.9 z m -1220.15,-2363 c -432.74,87.7 -809.55,221 -1089.68,385.3 -389.38,227.8 -595.21,484.5 -595.21,742.5 0,714.8 1303.19,1296.3 2905.04,1296.3 781.37,0 1525.74,-134.9 2095.98,-379.9 576.4,-247.6 893.8,-573.1 893.8,-916.4 0,-278.7 -165.3,-529.7 -478.1,-725.9 l -198.7,-124.5 160.1,171.3 c 99.8,106.7 146.3,240.7 146.3,421.4 0,278.8 -242.7,541.9 -683.38,741.1 -452.32,204.3 -1071.64,320.9 -1743.86,328.3 -22.83,0.3 -45.78,0.4 -68.81,0.4 -695.45,0 -1352.3,-113.5 -1849.56,-319.5 -491.03,-203.4 -761.45,-469.9 -761.45,-750.3 0,-146.7 68.89,-275.1 223.3,-416.2 282.29,-165.1 647.71,-301.4 1057.05,-394.2 l -12.82,-59.7"
         style="fill:#211d1d;fill-opacity:1;fill-rule:nonzero;stroke:none"
         id="path510" />
      <path
         d="m 10642.3,29991.2 c -64.1,-162 -170.7,-425.5 -267.1,-637.9 l 267.1,637.9"
         style="fill:#ffffff;fill-opacity:1;fill-rule:nonzero;stroke:none"
         id="path512" />
      <path
         d="m 10375.2,29322.8 c -4.2,0 -8.5,0.9 -12.6,2.7 -15.3,7 -22.2,25.1 -15.2,40.5 93.7,206.4 196.7,460.1 266.6,636.5 6.2,15.7 23.9,23.3 39.6,17.1 15.7,-6.2 23.4,-23.9 17.1,-39.6 -70.1,-177.1 -173.5,-431.7 -267.6,-639.3 -5.2,-11.2 -16.3,-17.9 -27.9,-17.9"
         style="fill:#211d1d;fill-opacity:1;fill-rule:nonzero;stroke:none"
         id="path514" />
      <path
         d="m 5690.68,29423.1 c -3.63,0 -7.33,0.6 -10.92,2 -15.75,6 -23.63,23.7 -17.6,39.4 30.7,80.2 165.68,360.8 613.75,607.8 439.51,242.2 1023.83,370.4 1736.73,381.1 817.19,12.4 1390.24,-151.5 1727.27,-291.1 429.89,-178 731.99,-424.6 828.79,-676.6 6.1,-15.8 -1.8,-33.4 -17.5,-39.5 -15.8,-6 -33.5,1.8 -39.5,17.6 -90.8,236.4 -380.7,470.4 -795.17,642.1 -331.71,137.4 -896.43,298.5 -1702.98,286.5 -1532.77,-23.1 -2163.37,-607.8 -2294.34,-949.7 -4.65,-12.2 -16.24,-19.6 -28.53,-19.6"
         style="fill:#211d1d;fill-opacity:1;fill-rule:nonzero;stroke:none"
         id="path516" />
      <path
         d="m 10191.2,29220.7 c -8.8,0 -17.5,3.7 -23.5,11 -275.03,331.5 -982.9,711 -2082.71,711 -26.25,0 -52.53,-0.2 -79.23,-0.6 -1227.57,-20.1 -1756.93,-453.2 -1963.21,-709.5 -10.58,-13.1 -29.81,-15.2 -42.95,-4.6 -13.14,10.5 -15.22,29.8 -4.65,42.9 212.99,264.7 757.33,711.8 2009.81,732.3 500.64,8.3 978.67,-64.1 1382.56,-209 360.89,-129.4 654.68,-315.4 827.38,-523.5 10.7,-13 9,-32.2 -4,-43 -5.7,-4.7 -12.6,-7 -19.5,-7"
         style="fill:#211d1d;fill-opacity:1;fill-rule:nonzero;stroke:none"
         id="path518" />
      <path
         d="m 9676.39,29044.1 c -6.55,0 -13.14,2.1 -18.7,6.4 -376.87,292.4 -967.71,453.8 -1620.72,442.4 -786.25,-13.6 -1227.42,-244.8 -1459.06,-436.4 -13.01,-10.7 -32.26,-8.9 -43.01,4.1 -10.75,13 -8.93,32.3 4.07,43 239.17,197.8 693.01,436.5 1496.94,450.4 666.93,11.5 1271.57,-154.4 1659.23,-455.2 13.33,-10.4 15.75,-29.6 5.4,-42.9 -6.02,-7.8 -15.04,-11.8 -24.15,-11.8"
         style="fill:#211d1d;fill-opacity:1;fill-rule:nonzero;stroke:none"
         id="path520" />
      <path
         d="m 8955.57,28920.4 c -3.77,0 -7.61,0.7 -11.33,2.2 -257.93,103.1 -565.37,154.7 -888.98,148.9 -297.28,-5.3 -558.25,-52.7 -775.69,-140.9 -15.63,-6.4 -33.45,1.1 -39.79,16.8 -6.35,15.6 1.18,33.4 16.81,39.8 224.43,91.1 492.78,140 797.58,145.4 331.64,5.8 647.33,-47.2 912.75,-153.3 15.67,-6.3 23.29,-24.1 17.03,-39.7 -4.78,-12 -16.25,-19.2 -28.38,-19.2"
         style="fill:#211d1d;fill-opacity:1;fill-rule:nonzero;stroke:none"
         id="path522" />
      <path
         d="m 5488.76,30269.9 c -19.74,0 -39.67,6.3 -56.41,19.5 -39.73,31.1 -46.86,88.5 -15.81,128.3 16.26,20.9 409.26,513.4 1362.17,724.2 937.46,207.5 1630.82,108.6 1659.87,104.3 50.03,-7.4 84.57,-54 77.18,-104 -7.37,-50.1 -53.82,-84.6 -104.02,-77.3 -6.77,1 -691.09,97.8 -1593.41,-101.9 -883.68,-195.6 -1253.76,-653.6 -1257.4,-658.2 -18.11,-22.9 -45.02,-34.9 -72.17,-34.9"
         style="fill:#ffffff;fill-opacity:1;fill-rule:nonzero;stroke:none"
         id="path524" />
    </g>
  </g>
</svg>
