<svg xmlns="http://www.w3.org/2000/svg" width="200mm" height="200mm" viewBox="0 0 200 200"><g style="display:inline"><path d="M13315.7 25017.9c146.5 93.5 308.7 118.8 422.7 77.5-2.9 5.6-5.7 11.3-9.1 16.7-90.3 141.3-316.7 158.1-505.6 37.4-189-120.7-268.9-333.2-178.7-474.5 6.5-10.1 13.7-19.3 21.5-28.1 1.4 125.5 94.6 272.2 249.2 371" style="fill:#e0c13b;fill-opacity:1;fill-rule:nonzero;stroke:none" transform="matrix(.01393 0 0 -.01393 -153.612 520.56)"/><path d="M13484.3 25199.6c-81.2 0-166.9-26.5-244.2-75.9-155.2-99.1-232.5-263.6-190.4-388.1 33.1 113.5 124.1 227.8 249.5 308 117.8 75.2 249.2 110.3 361.9 99.7-38.6 31.7-90 50.9-149.9 55.3-8.9.6-17.9 1-26.9 1m-388.2-632.5-52.6 59.7c-9.6 10.9-17.5 21.3-24.2 31.8-99.2 155.3-14.9 387 187.9 516.6 96.9 61.9 206.5 91.9 308.5 84.3 105.3-7.8 190.3-54.3 239.3-131 3.4-5.3 6.1-10.6 8.5-15.2l38.8-73.6-74.3 26.9c-109.9 39.9-261.6 11.3-395.9-74.5-141.4-90.3-233.7-226-235.1-345.5z" style="fill:#211d1d;fill-opacity:1;fill-rule:nonzero;stroke:none" transform="matrix(.01393 0 0 -.01393 -153.612 520.56)"/><path d="M21885.4 26943.2c-1295-495.6-2537.4-285.6-3237 839.3-538.3 865.7 418 1991.2 1652.2 2625.8 950.6 488.8 2615.4 766.6 3135.7-650.8 505.9-1378.3-172.5-2286.7-1550.9-2814.3m1800.1 2692.1c-627.5 1651.9-2424.8 1405.5-3436.5 885.2-1313.7-675.4-2303.7-1927.3-1680.8-2945.9 1.1-1.9 2.3-3.6 3.4-5.5l-541.5 5.6-2689.3-1883.2-1753.3-1426.8-1064.7 298.7c-16.8-593.1 673.7-953.2 1019.8-928.4s1058.6 593.5 1713.3 1206.6c654.7 613 2580.9 2239.4 2874.4 2325.1 416.7 121.7 724.4-42.4 886.7-169.7 42.3-42.7 85.5-83.5 129.6-122.5l.4-.5-.2.3c803.7-711.8 1881.8-811.3 2976.3-406.1 1474.9 546.1 2172.6 1560.7 1562.4 3167.1" style="fill:#e0c13b;fill-opacity:1;fill-rule:nonzero;stroke:none" transform="matrix(.01393 0 0 -.01393 -153.612 520.56)"/><path d="M21847.9 30773.7c-554.1 0-1128.6-184.4-1533.3-392.5-905.4-465.6-1574.1-1139.5-1745.4-1758.8-83.1-300.7-47.7-577.8 105.2-823.8 654.9-1053.2 1821.3-1354.6 3200.1-826.8 708.4 271.1 1201.8 632.9 1466.8 1075.3 284 474.2 306.3 1046.2 66.3 1699.9-162.5 442.8-449.4 747.1-852.7 904.5-220.7 86.1-461.9 122.2-707 122.2m-1228.2-4113.3c-202.6 0-397.8 21.6-583 65-288.6 67.6-553.5 187.7-787.4 356.9-243 175.9-453.9 406.1-626.8 684.1-162.3 261-200 554.5-112.2 872.3 175.7 635.2 856.3 1323.7 1776.3 1796.8 341.9 175.8 735.4 304.8 1108.1 363.2 443.6 69.7 852.5 38.4 1182.4-90.3 420.3-164 719-480.4 887.9-940.3 246.6-672 222.6-1261.6-71.3-1752.4-272.1-454.4-775.9-824.9-1497.3-1101l-10.9 28.5 10.9-28.5c-441.1-168.8-873.5-254.3-1276.7-254.3m-8066.4-2137.3c6.7-249.7 143.8-433.6 261-545.8 229.7-219.9 545.5-324.8 726.1-311.8 285.6 20.5 903.2 457.3 1694.6 1198.4 647.3 606 2584.7 2243.9 2886.7 2332.1 438 128 760.7-54.7 914.1-174.9l2.8-2.5c41.5-41.8 84.6-82.6 128.2-121.2l.4-.4c765.5-677.8 1811.4-819.9 2945.3-400.1 812.9 301 1351.5 731.9 1601 1280.7 233.1 513 214.1 1134.3-56.6 1846.9-210 552.8-566.4 929-1059.4 1118.2-780.9 299.7-1718 67.7-2334.6-249.3-920-473.1-1609.8-1188.6-1800.2-1867.5-104.7-373.1-60.4-721.4 131.6-1035.4l3.4-5.5 28.7-47-586.8 6-2680.4-1876.9-1764.7-1436zm955.6-919.8c-200.6 0-506.1 108.9-736.8 329.9-132.2 126.6-288.1 338.8-279.8 631l1.1 39.1 1087.1-304.9 1741.8 1417.4 1 .7 2697.3 1888.8 497.1-5.1c-180.4 318.1-218.7 668.4-113.9 1042.2 98.8 352.2 327.9 718.3 662.4 1058.9 318.5 324.3 722.7 617 1168.8 846.4 347.9 178.9 752.4 307.6 1139 362.5 457.3 64.9 887.9 26.7 1245.4-110.5 509.9-195.6 878.2-583.8 1094.6-1153.5 276.7-728.4 295.2-1365.5 55.1-1893.8-256.4-564.3-806.7-1006-1635.4-1312.8-561.1-207.7-1103.3-280.9-1611.6-217.5-529 65.9-998.5 277.7-1395.6 629.3l14.2 16-1.1-.8-13.3-15c-44.1 39.1-87.8 80.3-129.7 122.6-176.2 137.7-467.7 277.1-857.7 163.2-274-80-2158-1658.8-2862.1-2318.1-471-441.1-1322.3-1185.4-1732-1214.8-11.6-.8-23.5-1.2-35.9-1.2" style="fill:#211d1d;fill-opacity:1;fill-rule:nonzero;stroke:none" transform="matrix(.01393 0 0 -.01393 -153.612 520.56)"/><path d="M21885.4 26943.2c-1295-495.6-2537.4-285.6-3237 839.3-538.3 865.7 418 1991.2 1652.2 2625.8 950.6 488.8 2615.4 766.6 3135.7-650.8 505.9-1378.3-172.5-2286.7-1550.9-2814.3m-8334.7-2305.6c-189-120.7-415.4-104-505.6 37.4-90.3 141.3-10.4 353.8 178.6 474.5 188.9 120.7 415.3 103.9 505.6-37.4 90.3-141.4 10.3-353.8-178.6-474.5m10035.8 5190.3c-553.8 1508.5-2325.8 1212.9-3337.5 692.6-951.1-489-1747.1-1251.9-1896.6-1985.4-62.4-306.5-256.6-570.1-537.2-708.3-3.7-1.9-7.4-3.7-11-5.5-1053.6-517.9-2034.2-1189.1-3077.3-1731.5-456.8-237.5-888.4-452.6-1384.6-582-400.8-104.5-719.8-204.9-812.3-660.5-91.3-450.2 204.3-854.8 644.8-941.1 497.3-97.3 935.7 281.9 1299.6 560.8 578.4 443.3 1131.7 920.3 1699.9 1376.5 419.9 337.1 979.9 915 1564.9 1283.6 413.6 260.7 950.2 240.1 1334.1-62.8 758.2-598.3 1793.5-641 2862.5-231.8 1467 561.5 2189.2 1528.4 1650.7 2995.4" style="fill:#f1e39b;fill-opacity:1;fill-rule:nonzero;stroke:none" transform="matrix(.01393 0 0 -.01393 -153.612 520.56)"/><path d="M21847.9 30773.7c-554.1 0-1128.6-184.4-1533.3-392.6-905.4-465.5-1574.1-1139.4-1745.4-1758.7-83.1-300.7-47.7-577.8 105.2-823.8 654.9-1053.2 1821.3-1354.6 3200.1-826.8 708.4 271.1 1201.8 632.9 1466.8 1075.3 284 474.2 306.3 1046.2 66.3 1699.9-162.5 442.8-449.4 747.1-852.7 904.5-220.7 86.1-461.9 122.2-707 122.2m-1228.2-4113.3c-202.6 0-397.8 21.6-583 65-288.6 67.6-553.5 187.7-787.4 356.9-243 175.9-453.9 406.1-626.8 684.1-162.3 261-200 554.5-112.2 872.3 175.7 635.2 856.3 1323.7 1776.3 1796.8 341.9 175.8 735.4 304.8 1108.1 363.2 443.6 69.7 852.5 38.4 1182.4-90.3 420.3-164 719-480.4 887.9-940.3 246.6-672 222.6-1261.6-71.3-1752.4-272.1-454.4-775.9-824.9-1497.3-1101l-10.9 28.5 10.9-28.5c-441.1-168.8-873.5-254.3-1276.7-254.3m-7134.6-1460.7c-78.4 0-165.2-25-245-76-85.8-54.8-150.4-131-181.9-214.5-30.2-80.4-25.8-157.7 12.6-217.8 38.4-60 106.7-96.6 192.3-102.9 88.9-6.6 185.2 20 271.1 74.8 85.9 54.9 150.5 131.1 181.9 214.6 30.2 80.3 25.8 157.7-12.6 217.7-44 68.9-125.3 104.1-218.4 104.1m-195.2-673.3c-10.5 0-20.9.4-31.3 1.2-105.3 7.8-190.3 54.3-239.3 131-49 76.6-55.5 173.3-18.2 272.1 36 95.8 109.2 182.6 206.1 244.5 202.9 129.6 448.6 108.6 547.8-46.7 49-76.6 55.5-173.3 18.3-272.2-36.1-95.7-109.3-182.5-206.2-244.4l-16.4 25.7 16.4-25.7c-87.1-55.7-184.4-85.5-277.2-85.5m8606 6385c-590.2 0-1202-196.4-1633-418-479.7-246.7-908.9-556.3-1241-895.3-348.3-355.5-569.4-725.2-639.5-1069.1-65.8-322.8-267.6-588.7-553.7-729.6l-11-5.5c-570.4-280.3-1129.1-611.5-1669.4-931.8-456.8-270.8-929.2-550.8-1407.3-799.4-468-243.3-895.7-455.3-1391-584.4-421.4-109.9-704.1-213.6-790-637-40.9-201.3-2.2-403.8 109-570.3 116.2-174 297.9-292.9 511.7-334.8 446.2-87.4 842.2 219.6 1191.5 490.4 28.3 22 56.2 43.6 83.7 64.6 359.1 275.3 714.6 568.5 1058.3 852.1 209.4 172.7 425.9 351.3 641 524 139 111.7 295 251.1 460.1 398.8 335.2 299.8 715.1 639.5 1107.6 886.9 428.1 269.8 978.4 243.8 1369.3-64.7 416.7-328.9 928.4-494.8 1499.1-494.8 417.6 0 866.7 88.8 1333.6 267.5 754.3 288.7 1279.9 674.1 1562.1 1145.3 302.6 505.3 326.4 1114.7 70.8 1811.1-173.2 471.8-479 796.1-908.7 963.8-235.2 91.7-492.1 130.2-753.2 130.2M13334 23860.3c-54.3 0-109.3 5-165 15.9-229.9 45.1-425.5 173.2-550.8 360.9-120.3 180.1-162.2 399-118.1 616.3 99.9 492.4 473.3 589.8 834.5 684 489.2 127.5 913.6 337.9 1378.2 579.5 476.6 247.8 948.2 527.4 1404.3 797.7 541.3 320.9 1101.1 652.7 1673.6 934.1l11 5.5c269 132.5 458.8 382.9 520.8 687 72.5 355.5 299.2 735.7 655.8 1099.7 336.6 343.6 771.2 657.2 1256.7 906.8 363.7 187 782.3 324.2 1178.7 386.5 471.9 74 906.8 40.8 1257.6-96.1 446.8-174.4 764.3-510.7 943.8-999.7 262.4-714.6 236.9-1341.5-75.7-1863.5-289.4-483.3-825.2-877.2-1592.7-1171-1125.9-430.9-2153.1-347-2892.4 236.4-370.6 292.5-892.6 317-1298.8 61-388.2-244.6-766.1-582.6-1099.4-880.7-165.8-148.3-322.3-288.3-462.7-400.9-214.8-172.5-431.1-350.9-640.3-523.5-344.2-284-700.1-577.6-1060.1-853.5-27.3-20.9-55.1-42.5-83.3-64.3-301.6-233.8-668.4-518.1-1075.7-518.1" style="fill:#211d1d;fill-opacity:1;fill-rule:nonzero;stroke:none" transform="matrix(.01393 0 0 -.01393 -153.612 520.56)"/><path d="M23337.5 28594.4c-19.4-49-58.4-79.8-87.3-68.8-28.9 10.9-36.7 59.5-17.4 108.5 19.3 48.9 58.4 79.8 87.3 68.8 28.9-10.9 36.7-59.5 17.4-108.5m-125.8 764.1c-29.3-18.7-75.9 1.7-104 45.7-28 43.9-27 94.7 2.3 113.5 29.3 18.7 75.9-1.7 104-45.7 28-43.9 27-94.8-2.3-113.5m-128.2-1421.9c-35.3-39.3-82-55.2-104.2-35.6-22.2 19.7-11.6 67.5 23.7 106.8s81.9 55.3 104.2 35.6c22.2-19.6 11.6-67.5-23.7-106.8m-285.9 452.6c-22.8-47.5-70.5-72.5-106.5-55.8s-46.7 68.8-24 116.3c22.8 47.5 70.5 72.5 106.5 55.7 36-16.7 46.8-68.7 24-116.2m-254.8-985.4c-48.1-21.9-98.2-15.1-111.9 15.3s14.2 72.8 62.4 94.7c48.1 21.9 98.2 15 111.9-15.4 13.7-30.3-14.2-72.7-62.4-94.6m-254.6 460.6c-44.6-28.5-97.4-25.5-117.9 6.7-20.5 32.1-1 81.2 43.5 109.7 44.6 28.5 97.4 25.5 117.9-6.6 20.6-32.2 1.1-81.3-43.5-109.8m-218.2 747c-20.6 32.2-1.1 81.4 43.5 109.9 44.5 28.5 97.3 25.4 117.9-6.8s1.1-81.4-43.4-109.9c-44.6-28.4-97.4-25.4-118 6.8m-118 580.2c-28.1 43.9-14.7 102.7 29.9 131.1 44.5 28.5 103.4 16 131.5-28s14.7-102.7-29.9-131.2c-44.5-28.4-103.4-15.9-131.5 28.1m-66.1-2014.7c-52.3-7.5-97.8 10.4-101.6 39.8-3.9 29.5 35.3 59.4 87.5 66.9 52.3 7.4 97.8-10.5 101.6-39.9 3.9-29.5-35.3-59.4-87.5-66.8m-194.6 982.9c-20.6 32.3-1.2 81.6 43.4 110 44.5 28.5 97.4 25.4 118-6.8 20.6-32.3 1.2-81.6-43.4-110.1-44.5-28.4-97.4-25.3-118 6.9m-83.4-547.4c-48.1-22-101.8-7.2-119.8 32.9-18.1 40 6.3 90.3 54.4 112.2 48.2 21.9 101.8 7.2 119.9-32.9 18-40.1-6.4-90.3-54.5-112.2m-196.3 1049.4c-28.1 44-14.7 102.7 29.9 131.2 44.6 28.4 103.5 15.9 131.6-28.1 28-43.9 14.7-102.6-29.9-131.1s-103.5-15.9-131.6 28m-36.8 527.2c-44.6-28.4-103.5-15.9-131.6 28.1-28.1 43.9-14.7 102.6 29.9 131.1s103.5 15.9 131.5-28c28.1-44 14.8-102.7-29.8-131.2m-180.9-2087.8c-52.3-7.5-98.1 13-102.4 45.7s34.6 65.3 86.8 72.7c52.2 7.5 98.1-13 102.4-45.7 4.3-32.8-34.6-65.3-86.8-72.7m-91.5 977c-11.4 45.6 20.7 93.3 71.9 106.6 51.1 13.2 101.8-12.9 113.2-58.4 11.5-45.6-20.7-93.3-71.8-106.6-51.2-13.2-101.9 12.9-113.3 58.4m-107.9-550.6c-51.9-9.5-99 13.3-105.1 50.8-6 37.5 31.1 75.6 83 85.1 52 9.4 99-13.3 105.1-50.8s-31.1-75.6-83-85.1m-117.8 2149.6c-44.6-28.5-99.1-22.9-121.7 12.6-22.7 35.4-4.9 87.2 39.7 115.7 44.6 28.4 99.1 22.8 121.7-12.6s4.8-87.2-39.7-115.7m-53.7-952.7c-44.6-28.5-103.5-16-131.6 28-28 44-14.7 102.7 29.9 131.2 44.6 28.4 103.5 15.9 131.6-28.1 28-43.9 14.7-102.7-29.9-131.1m-57.3-582.7c-51.1-13.3-101.1 9.7-111.5 51.4-10.5 41.8 22.5 86.4 73.6 99.6 51.1 13.3 101-9.7 111.5-51.4 10.5-41.8-22.5-86.4-73.6-99.6m-206.4-1042.4c-51.8 9.1-88.9 42.1-82.9 73.8 6 31.6 52.9 49.8 104.6 40.7 51.8-9.1 88.9-42.1 82.9-73.7s-52.9-49.9-104.6-40.8m-137.7 512.4c-49 18.6-76.6 64.5-61.5 102.7 15 38.2 67 54 116 35.5 49-18.6 76.5-64.6 61.5-102.7-15-38.2-67-54.1-116-35.5m-40.4 1600.9c-42.2-32-98.2-29.2-125 6.2-26.9 35.4-14.5 89.9 27.6 121.9 42.2 31.9 98.1 29.1 125-6.2 26.9-35.4 14.5-90-27.6-121.9m-76.6-877.1c-44.5-28.5-103.4-15.9-131.5 28-28.1 44-14.7 102.7 29.9 131.2 44.5 28.5 103.4 15.9 131.5-28.1 28.1-43.9 14.7-102.6-29.9-131.1m-62.7 1577c38.1 36.6 92.9 41.6 122.4 11.1s22.5-84.9-15.6-121.6c-38.1-36.6-92.9-41.6-122.4-11.1s-22.6 84.9 15.6 121.6m-239.1-2599.8c-30.3-33.8-86.6-33.1-125.7 1.5s-46.3 90-15.9 123.8c30.3 33.8 86.6 33.1 125.7-1.5s46.2-90 15.9-123.8m-185 1362.9c-31.7 22.8-32 75.8-.8 118.4 31.3 42.5 82.3 58.6 114 35.8 31.6-22.8 31.9-75.8.7-118.4-31.3-42.5-82.3-58.6-113.9-35.8m-101.1 633c-31.4 21-32.9 73.5-3.3 117.1 29.7 43.7 79.1 62.1 110.6 41.1 31.4-21 32.9-73.4 3.3-117.1s-79.1-62.1-110.6-41.1m-260.9-536.9c-31.2-42.6-80.4-59.9-109.8-38.7-29.5 21.1-28 72.8 3.3 115.3 31.2 42.6 80.4 59.9 109.8 38.8 29.4-21.2 28-72.9-3.3-115.4m1634.4 1551.4c44.5 28.4 99.6 21.9 122.9-14.6s6.1-89.2-38.5-117.6c-44.6-28.5-99.6-22-122.9 14.5-23.4 36.5-6.1 89.2 38.5 117.7m365.8-344.4c51.9 10.1 102-23.8 112.1-75.6s-23.8-102-75.6-112.1c-51.9-10-102 23.8-112.1 75.7-10.1 51.8 23.8 102 75.6 112m451.6 394.2c50.5 15.8 99.8.8 110.3-33.5s-21.9-74.9-72.4-90.7c-50.4-15.8-99.8-.8-110.2 33.5-10.5 34.4 21.9 75 72.3 90.7m284.6-519c52.2-6.8 88.9-54.7 82-106.8-6.9-52.2-54.7-88.9-106.9-82-52.1 6.9-88.8 54.7-82 106.9 6.9 52.1 54.8 88.8 106.9 81.9m392.6 213.2c16.5 31.3 67.6 37.3 114.2 13.5s71.1-68.5 54.6-99.8-67.6-37.3-114.2-13.5c-46.6 23.9-71.1 68.5-54.6 99.8m182.6-906.8c15.2-50-3.4-100.1-41.5-112.1-38.2-11.9-81.5 18.9-96.7 68.9-15.2 49.9 3.3 100.1 41.5 112s81.4-18.9 96.7-68.8m668.9 597.1c-520.3 1417.4-2185.1 1139.6-3135.7 650.8-1234.2-634.6-2190.5-1760.1-1652.2-2625.8 699.6-1124.9 1942.1-1334.9 3237-839.3 1378.4 527.6 2056.9 1436 1550.9 2814.3" style="fill:#ead46d;fill-opacity:1;fill-rule:nonzero;stroke:none" transform="matrix(.01393 0 0 -.01393 -153.612 520.56)"/><path d="M21916.8 30343.9c-35.2-11-57-37.3-52.3-52.6 1.4-4.6 5.2-8.6 11.4-11.9 11.7-6.2 33.8-9.8 60.5-1.5 35.1 11 56.9 37.4 52.3 52.7-1.4 4.6-5.2 8.5-11.4 11.8-11.7 6.2-33.8 9.8-60.5 1.5m-11.2-132c-21.3 0-41.3 4.5-58.3 13.5-20.7 11-35 27.6-41.3 48-15.5 51.1 25.1 107.7 92.5 128.8 38.5 12 77.6 9.9 107.3-5.8 20.8-11 35.1-27.6 41.3-48 15.6-51.1-25-107.7-92.5-128.8-16.5-5.1-33.1-7.7-49-7.7m-815.4 111.3h.1zm58.6-12.9c-13.7 0-28.7-4.2-42.2-12.9-15.4-9.8-27.1-24.2-32.1-39.5-2.5-7.8-5.5-22.7 2.9-36 8.4-13.2 23.3-16.7 31.4-17.7 15.9-1.8 33.9 2.7 49.4 12.5 29.8 19.1 43.1 53.6 29.2 75.5-7.7 11.9-22.2 18.1-38.6 18.1m-32.6-167.6c-4.9 0-9.8.3-14.6.8-32 3.8-59.6 20.4-75.7 45.6-16 25.1-19.5 57.1-9.5 87.7 9.5 29 29.8 54.6 57.3 72.1 58.7 37.5 132.8 26.8 165.1-23.8 32.4-50.7 10.9-122.4-47.8-159.9-23-14.7-49.2-22.5-74.8-22.5m1495.6-89.7c-2.1-4-2.1-9.3-.1-15.6 3.9-12.4 16.9-30.1 41.6-42.8 35.1-17.9 66.8-11.7 73.3.6 2.1 4 2.1 9.2.1 15.5-3.9 12.4-16.9 30.2-41.6 42.8-35.1 18-66.8 11.7-73.3-.5m84.7-130.7c-22.7 0-47.3 5.8-71 17.9-35.7 18.3-62 47-72.1 78.8-7 22.1-5.5 43.7 4.4 62.4v.1c24.6 46.7 92.8 58.3 155.1 26.4 35.8-18.3 62-47 72.1-78.7 7-22.2 5.5-43.8-4.4-62.5-15.2-29-47.2-44.4-84.1-44.4m-1234.6 26.5c-35.3-6.8-58.4-41-51.5-76.2 6.8-35.2 41.1-58.3 76.2-51.5 17.1 3.3 31.8 13.1 41.6 27.5 9.7 14.4 13.2 31.7 9.9 48.8-3.3 17-13.1 31.8-27.5 41.5s-31.7 13.3-48.7 9.9m12.3-190c-59.2 0-112.1 41.9-123.8 102.1-13.3 68.3 31.5 134.7 99.8 147.9 33.1 6.4 66.7-.4 94.6-19.3 27.9-18.8 46.9-47.4 53.3-80.5s-.4-66.7-19.3-94.6c-18.8-27.9-47.4-46.8-80.5-53.3-8.1-1.5-16.2-2.3-24.1-2.3m-1159.9 154.3c-16.7 0-36-7.8-51.3-22.6-15-14.4-24.1-33.4-24.5-50.9-.1-7.8 1.5-18.8 9.7-27.4 17.5-18 53.8-12.6 79.3 11.9 15 14.5 24.2 33.5 24.5 51 .1 7.8-1.4 18.8-9.7 27.3-6.9 7.2-16.9 10.7-28 10.7m-38-172.4c-27.3 0-53.1 9.6-72 29.1-17.8 18.4-27.3 43.5-26.8 70.9.6 33.8 16.3 68.1 43.2 93.9 50.1 48.2 124.4 52.8 165.5 10.3 17.9-18.4 27.4-43.6 26.9-70.9-.6-33.9-16.4-68.1-43.2-93.9-27.2-26.1-61.4-39.4-93.6-39.4m1903.3 83.6c-14.1 0-27.8-4.6-39.2-13.4-13.7-10.5-22.5-25.7-24.8-42.8-2.2-17.2 2.3-34.2 12.8-47.9 10.6-13.7 25.8-22.5 42.9-24.7 35.4-4.7 67.9 20.3 72.6 55.7 4.7 35.3-20.3 67.9-55.7 72.6-2.8.3-5.7.5-8.6.5m.3-190.5c-5.5 0-11 .4-16.6 1.1-33.3 4.4-62.9 21.5-83.3 48.2-20.5 26.6-29.3 59.6-24.9 93 4.4 33.3 21.5 62.9 48.1 83.3 26.7 20.5 59.7 29.3 93 24.9 68.8-9.1 117.3-72.4 108.3-141.1-8.4-63.2-62.5-109.4-124.6-109.4m-1325.5 159.3c-13.8 0-29.2-4.4-43.3-13.4-15.5-9.9-27.4-24.3-32.6-39.4-2.5-7.4-5.7-21.8 2.2-34.1 13.3-20.8 49.7-22.3 79.5-3.3 15.6 10 27.4 24.3 32.6 39.4 2.6 7.5 5.7 21.8-2.2 34.1-7 11.1-20.5 16.7-36.2 16.7m22.3-115.9h.1zm-59.3-48.5c-36.2 0-69.5 15.4-88.2 44.6-15.8 24.8-18.9 56.4-8.5 86.8 9.8 28.4 30.2 53.6 57.6 71.1 58.7 37.5 132.2 27.7 163.8-21.9 15.9-24.7 19-56.4 8.5-86.8-9.7-28.3-30.1-53.6-57.5-71.1-24-15.3-50.6-22.7-75.7-22.7m2317.5-134.7c-3.4 0-6.3-.7-8.4-2.1-11.2-7.1-14-38.4 7-71.3 10.2-16 24.1-28.7 38-34.8 4.7-2.1 16.3-6.3 23.7-1.6 7.5 4.8 8.5 17.1 8.6 22.2.3 15.3-5.4 33.2-15.6 49.2-16.9 26.4-39.3 38.4-53.3 38.4m51.9-173c-12.9 0-26.5 3-39.8 8.8-25.1 11.1-48.2 31.6-65 57.9-37.7 59.1-32.6 127.5 11.6 155.7 44.2 28.3 108.4 4.1 146.1-55 16.8-26.2 25.7-55.8 25.2-83.2-.6-31.5-14-57.9-36.8-72.5-12.2-7.7-26.3-11.7-41.3-11.7m-3453.1 13.1c15-10 47.4 1.9 68.3 32.8 12.6 18.6 18.4 40.6 15.1 57.3-1.6 8.1-5 13.9-10.1 17.3-14.9 10-47.3-1.9-68.3-32.8-12.6-18.6-18.4-40.5-15.1-57.3 1.6-8 5-13.9 10.1-17.3m13.1-64.7c-16.7 0-32.8 4.5-47 13.9-18.6 12.4-31.5 32.5-36.1 56.4-6.5 33.1 2.4 70.7 24.4 103.3 39.7 58.4 106.8 80.1 152.8 49.3 18.7-12.4 31.5-32.4 36.2-56.4 6.4-33.1-2.5-70.7-24.5-103.2-27.5-40.5-68.1-63.3-105.8-63.3m600.7 63c-14.9 0-31.2-5.3-45.2-16-16.2-12.2-26.9-29.3-29.3-47-1.2-8.5-.8-21.1 7.5-32 16.4-21.6 54-21.8 82.2-.4 16.2 12.3 26.9 29.4 29.3 47 1.2 8.6.8 21.1-7.5 32.1-8.2 10.8-21.9 16.3-37 16.3m33.7-119.7h.1zm-63.6-52.7c-33.7 0-65.5 13.7-85.8 40.4-16.3 21.5-23.2 49-19.3 77.3 4.6 33.6 23.9 65.4 52.9 87.4 55.5 42.1 130.7 36.7 167.7-12.1 16.4-21.5 23.3-49 19.4-77.3-4.6-33.5-23.9-65.4-52.9-87.4-25.1-19-54.2-28.3-82-28.3m1007.4 172.9c-12.4 0-24.7-3.5-35.5-10.4-14.7-9.4-25-23.9-28.8-40.8-3.8-16.8-.9-33.9 8.3-48.2 18.9-29.7 59-38.1 89.3-18.7 14.8 9.4 25 23.9 28.9 40.8 3.8 16.7.9 33.8-8.3 48.1-9.1 14.4-23.4 24.2-40.2 27.8-4.5.9-9.1 1.4-13.7 1.4m49.8-143.9h.1zm-51.9-45.7c-41.3 0-81.7 20.2-105.4 57.3-18 28.2-23.8 61.8-16.4 94.6 7.5 32.7 27.2 60.6 55.6 78.8 28.3 18.1 62 24.2 94.7 17.2 32.9-7 61-26.4 79-54.6s23.8-61.8 16.3-94.6c-7.4-32.6-27.1-60.6-55.5-78.7-21.2-13.5-44.9-20-68.3-20m710.9 164.1c-12.1 0-24.5-3.4-35.5-10.4-14.8-9.4-25-23.9-28.8-40.8-3.9-16.8-.9-33.9 8.2-48.2 19-29.7 59.1-38.1 89.4-18.7 14.7 9.4 25 23.9 28.8 40.8 3.8 16.7.9 33.8-8.2 48.2-12.1 18.8-32.7 29.1-53.9 29.1m-2.1-189.6c-41.4 0-81.8 20.2-105.5 57.3-18 28.2-23.8 61.8-16.3 94.6 7.4 32.7 27.1 60.7 55.5 78.8 58.7 37.5 136.6 20.7 173.8-37.4 18-28.2 23.8-61.8 16.3-94.6-7.4-32.6-27.2-60.6-55.5-78.7-21.2-13.5-44.9-20-68.3-20m655.9 83.4c-2.6 0-5.2-.3-7.8-1.2-21.4-6.6-31.4-41.2-21.4-73.9 6.2-20.4 19-37.3 34.1-45.3 5.9-3.1 14.9-6.2 24.2-3.3 21.4 6.7 31.4 41.3 21.4 74-6.2 20.3-18.9 37.2-34 45.2-4.3 2.3-10.1 4.5-16.5 4.5m21.5-185.9c-15.2 0-30.7 3.9-45.1 11.5-29.7 15.6-53 45.3-64 81.5-20.1 65.8 7.5 133.1 61.6 150.1 22.9 7.1 48.1 4.4 71-7.6 29.7-15.7 53-45.4 64-81.5 20.1-65.9-7.6-133.2-61.6-150.1-8.4-2.6-17.1-3.9-25.9-3.9m-3279.8-149.5c-15.8 0-38.4-12.3-55.4-35.4-13.7-18.7-20.6-40.7-18-57.4 1.1-7.1 3.8-12.2 7.9-15.1 13.6-9.8 45.3 1.8 67.4 31.9 13.7 18.7 20.6 40.7 18 57.4-1.1 7.1-3.8 12.2-7.9 15.2-3.2 2.2-7.3 3.4-12 3.4m-53.7-172.4c-17.1 0-33.5 4.8-47.5 14.9-17.3 12.4-28.9 32-32.5 55.1-5.3 33.3 5.3 70.8 29 103.1 41.8 56.9 108.7 76.9 152.4 45.4 17.3-12.4 28.9-32 32.5-55.1 5.3-33.2-5.3-70.8-29.1-103.1-28.4-38.7-68.4-60.3-104.8-60.3m1397.7 174.9c-12.2 0-24.5-3.3-35.5-10.4-14.8-9.4-25-23.9-28.9-40.8-3.8-16.7-.9-33.8 8.3-48.2 18.9-29.6 59-38 89.3-18.7 14.8 9.4 25 23.9 28.9 40.8 3.8 16.8.9 33.9-8.3 48.2-12 18.9-32.6 29.1-53.8 29.1m-2.2-189.6c-41.3 0-81.7 20.2-105.4 57.4-18 28.2-23.8 61.8-16.4 94.6 7.5 32.6 27.2 60.6 55.6 78.7 58.7 37.5 136.6 20.8 173.7-37.3 18-28.2 23.8-61.8 16.4-94.6-7.5-32.7-27.2-60.6-55.6-78.8-21.2-13.5-44.9-20-68.3-20m-935.5 21.8c15.5-11.1 48.7-1.9 71.5 29.1 13.1 17.9 19.4 38.8 16.7 56-1 6.1-3.6 14.4-10.7 19.5-15.5 11.1-48.7 1.9-71.4-29.1-13.2-17.9-19.4-38.8-16.7-55.9.9-6.1 3.6-14.5 10.6-19.6m16.1-65.9c-18.5 0-36.4 5.3-51.8 16.3-18.8 13.6-31.4 34.8-35.3 59.6-5.2 33.4 4.9 70.4 27.8 101.6 41.8 56.9 110.5 75.6 156.4 42.6 18.8-13.6 31.4-34.8 35.3-59.6 5.3-33.4-4.8-70.4-27.8-101.7-27.8-37.8-67.6-58.8-104.6-58.8m1641.8 143c-12.2 0-24.5-3.3-35.6-10.4-14.7-9.4-25-23.9-28.8-40.8-3.8-16.7-.9-33.8 8.3-48.1 18.9-29.7 59-38.1 89.3-18.8 14.8 9.4 25 23.9 28.9 40.8 3.8 16.8.9 33.9-8.3 48.2-12.1 18.9-32.7 29.1-53.8 29.1m-2.2-189.6c-41.3 0-81.7 20.3-105.4 57.4-18 28.2-23.8 61.8-16.4 94.6 7.5 32.6 27.2 60.6 55.6 78.7 58.6 37.5 136.6 20.8 173.7-37.3 18-28.2 23.8-61.8 16.4-94.6-7.5-32.7-27.2-60.6-55.6-78.8-21.2-13.5-44.9-20-68.3-20m684.9 122.3c-14.8 0-31.5-5.3-46.3-14.8-16-10.2-28.4-24.4-34.2-39-2.6-6.6-6.1-19.1 0-28.6v-.1c6.2-9.5 18.9-11.6 26-12 15.7-.9 33.9 4.4 49.8 14.6 16 10.2 28.4 24.4 34.2 39 2.6 6.6 6.1 19.1 0 28.7-6.1 9.5-18.9 11.7-26 12.1-1.1 0-2.3.1-3.5.1m-51-155.7c-2.3 0-4.7 0-7 .2-31.8 1.8-58.8 16.4-74 40.2h.1c-15.2 23.7-17.2 54.3-5.4 84 10.5 26.7 31.2 50.8 58.1 68s57.5 25.8 86.2 24.2c31.9-1.9 58.8-16.5 74-40.2 15.1-23.7 17.1-54.4 5.3-84.1-10.5-26.6-31.2-50.8-58.1-68-24.7-15.8-52.6-24.3-79.2-24.3m1182.2 120c-9.2 0-32.4-16.7-46.2-51.7-10.6-26.9-10-50.9-4.7-62.8 1.3-3.2 3.1-5.4 4.5-6 7.4-2.7 33.2 13.8 48 51.5 10.6 26.9 10.1 50.9 4.8 62.8-1.4 3.1-3.1 5.4-4.5 6zm-44.7-181.9c-7.9 0-15.7 1.4-23.3 4.3-17.2 6.5-30.6 19.8-38.8 38.4-13.1 29.5-11.7 70.6 3.8 109.9 26.2 66.5 80.6 103.5 126.5 86.2 17.1-6.5 30.5-19.8 38.8-38.4 13.1-29.6 11.6-70.7-3.8-109.9-21.9-55.5-63.4-90.5-103.2-90.5m-465.1-103.5h.1zm-47.8 90.8c-17.9 0-41.5-15.1-55.1-43.5-9.4-19.7-11.6-41.1-5.8-57.3 2.2-6.1 6.6-14.2 15.1-18.1 17.9-8.3 49.4 6.6 66 41.3 9.5 19.6 11.6 41 5.8 57.2-2.2 6.1-6.6 14.2-15 18.1-3.3 1.5-7 2.3-11 2.3m-34.3-182.5c-12.7 0-25.3 2.7-37.2 8.2-21.6 10-38.2 28.8-46.9 52.9-11.4 31.7-8.4 69.7 8.2 104.3 30.4 63.5 94.9 94.4 146.9 70.3 21.5-10 38.1-28.8 46.8-52.9 11.4-31.7 8.4-69.8-8.2-104.4-23.4-48.8-67.1-78.4-109.6-78.4m-2460.6 182c-12.5 0-24.7-3.6-35.5-10.5-14.8-9.4-25-23.9-28.8-40.8-3.9-16.7-.9-33.8 8.2-48.1 19-29.7 59.1-38.1 89.4-18.8 14.7 9.5 25 24 28.8 40.8s.9 33.9-8.2 48.2c-9.2 14.3-23.5 24.2-40.2 27.7-4.6 1-9.2 1.5-13.7 1.5m49.7-143.9h.1zm-51.8-45.8c-41.4 0-81.8 20.3-105.5 57.4-18 28.2-23.8 61.8-16.3 94.6 7.4 32.6 27.1 60.6 55.5 78.7s62 24.3 94.8 17.3c32.9-7 60.9-26.4 78.9-54.6 18.1-28.2 23.9-61.8 16.4-94.6-7.4-32.7-27.2-60.6-55.5-78.7-21.2-13.6-44.9-20.1-68.3-20.1m504.1-23.7c-7 0-14.2-.9-21.4-2.8-34.3-8.9-58-37.6-51.7-62.6 3-12 11.8-19.4 18.7-23.4 15.1-9.1 35.4-11.2 55.5-6 34.3 8.9 58 37.6 51.7 62.6-3 12-11.8 19.4-18.7 23.5-9.7 5.7-21.5 8.7-34.1 8.7m-20.2-158.6c-23.5 0-46.2 5.8-65.4 17.2-23.8 14.1-40.4 35.8-46.8 61.1-14.5 57.9 28.4 119.1 95.6 136.6 35.8 9.3 73 4.7 102.1-12.5 23.8-14.1 40.4-35.8 46.7-61.1 14.6-57.9-28.3-119.1-95.5-136.6-12.2-3.2-24.6-4.7-36.7-4.7m1060.7 151.3c-14.9 0-31.5-5.3-46.3-14.7-15.9-10.2-28.4-24.4-34.2-39-2.6-6.7-6-19.2.1-28.8 6.2-9.6 19-11.8 26.1-12.2 15.7-.9 33.8 4.4 49.8 14.6 32.4 20.7 43.9 52.4 34.1 67.8-6.2 9.6-19 11.8-26.1 12.2-1.2.1-2.3.1-3.5.1m-50.7-155.9c-2.4 0-4.8.1-7.2.2-31.8 1.9-58.8 16.6-74 40.3-15.1 23.7-17.1 54.4-5.4 84.1 10.5 26.7 31.2 50.9 58.1 68.1 27 17.2 57.6 25.8 86.3 24.1 31.8-1.9 58.8-16.6 74-40.3 30.1-47.2 7-114-52.7-152.2-24.7-15.8-52.6-24.3-79.1-24.3m-545.7 54.8c-6.3 0-12.7-.8-19-2.5-34.9-9.1-57.3-40.3-50-69.5 4-15.7 14.7-24.9 23.1-29.9 15-8.9 34.3-11.2 52.9-6.4 34.9 9.1 57.3 40.2 49.9 69.5-3.9 15.7-14.7 24.9-23.1 29.9-9.8 5.8-21.6 8.9-33.8 8.9m-12-171.8c-23.1 0-45.7 5.9-65.1 17.4-25.9 15.4-44.1 39.3-51.1 67.5-15.5 61.7 26.6 126.1 93.8 143.5 34.2 8.9 70.5 4.2 99.4-13 25.9-15.4 44.1-39.3 51.2-67.5 15.4-61.7-26.6-126.1-93.9-143.5-11.3-3-22.9-4.4-34.3-4.4m1894 35.5c-9.4 0-33.2-7.2-57.3-34-20-22.2-28.1-45.2-27.4-58.1.2-3.7 1.1-5.2 1.3-5.4 3.3-3 32 .7 61.1 33.1 20 22.3 28.2 45.3 27.5 58.2-.2 3.7-1.1 5.2-1.3 5.3q-.9.9-3.9.9m-79-159.4c-17 0-32.6 5.3-44.9 16.2-13.1 11.6-20.7 28-21.8 47.6-1.9 32.1 14.2 70.4 43 102.4 48 53.5 111.2 69.9 147.1 38.1 13.1-11.6 20.7-28.1 21.8-47.6 1.8-32.1-14.2-70.4-43-102.5-31.5-35.1-69.6-54.2-102.2-54.2m-727.4 107.9c-13.7 0-30.1-4.5-46.3-14.8-16-10.2-28.5-24.5-34.3-39.1-2.6-6.5-6-19 0-28.5 6.1-9.5 18.9-11.6 25.9-12 15.7-.9 33.9 4.5 49.8 14.7 32.4 20.7 44.1 52.2 34.3 67.5-4.9 7.7-15.7 12.2-29.4 12.2m11.6-105.5h.1zm-62.8-50.1c-2.3 0-4.6.1-6.9.2-31.9 1.8-58.8 16.4-73.9 40.1-15.2 23.7-17.1 54.3-5.3 84 10.5 26.6 31.2 50.8 58.1 68 59.7 38.1 130 31.1 160.1-16 30-47 6.8-113.8-52.9-151.9-24.8-15.8-52.6-24.4-79.2-24.4m-1791.1-87.1c-21.5 0-39.8-8.7-45.8-23.9-3.9-9.9-1.3-19.6 1.6-26.1 6.9-15.6 22.7-29.4 42.3-36.8 32.9-12.5 68-4.2 76.8 18 3.9 9.9 1.3 19.7-1.6 26.2-6.9 15.6-22.7 29.4-42.3 36.8-10.4 3.9-21.1 5.8-31 5.8m28.3-153.6c-17 0-34.6 3.1-51.8 9.6-35.1 13.3-63 38.6-76.6 69.3-10.7 24.2-11.6 50.2-2.5 73.2 21.1 53.6 90.7 77.2 155.2 52.8 35.1-13.3 63-38.5 76.6-69.2 10.7-24.2 11.6-50.2 2.5-73.2-15.4-39.3-57-62.5-103.4-62.5m1125.7 163.5c-10.9 0-22.3-2.5-33.1-7.4-32.2-14.7-50.2-47.6-39.3-71.9 5.5-12.1 16-18.2 23.9-21.2 16.6-6.2 36.8-4.9 55.5 3.6 32.2 14.6 50.2 47.6 39.2 71.9-5.4 12.1-16 18.2-23.9 21.1-6.9 2.6-14.5 3.9-22.3 3.9m-26.2-165.4c-15.1 0-30 2.6-43.8 7.8-26.5 9.9-47.1 28.8-58.1 53.2-24.9 55.3 6.4 123.8 69.7 152.6 33.3 15.2 70.6 17 102.3 5.1 26.4-10 47.1-28.9 58-53.3 25-55.3-6.3-123.7-69.6-152.5-18.8-8.6-38.9-12.9-58.5-12.9m-566.4 63.3c-5.8 0-11.8-.5-17.8-1.6-36.9-6.7-61.2-32-58.3-50.1 1-6.2 4.9-11.7 11.6-16.4 13.7-9.7 35.9-13.3 57.8-9.2 37 6.7 61.3 32 58.3 50.1-1 6.1-4.9 11.6-11.5 16.4-10.1 7-24.5 10.8-40.1 10.8m-1.2-107.4h.1zm-23.6-32.7c-28.1 0-54.4 7.6-75 22.1-20 14.1-33 34.2-36.6 56.5-8.9 54.7 38.4 107.4 107.7 120 38.6 7.1 76.5 0 104-19.4 20-14.2 33-34.2 36.6-56.5 8.9-54.7-38.4-107.4-107.6-120q-14.7-2.7-29.1-2.7m1577.9 1.1c-11.9 0-26.7-2.6-42.9-10-36.9-16.8-51.5-44.7-47.1-54.4 1.6-3.5 6-5.8 9.4-7.1 11.7-4.4 35-5.2 62 7.1 36.9 16.7 51.5 44.7 47.1 54.3-1.6 3.6-6 5.9-9.4 7.2-4.7 1.7-11.3 2.9-19.1 2.9m-61.7-135.6c-14.5 0-28.2 2.3-40.4 6.9-20.5 7.7-35.6 21.3-43.7 39.3-20.9 46.4 13.2 105.7 77.6 135 37.4 17 78 20.2 108.8 8.6 20.5-7.7 35.6-21.3 43.6-39.2 21-46.4-13.1-105.7-77.5-135.1-22.6-10.2-46.3-15.5-68.4-15.5m-2567.5 72.2c-13.9 0-26.8-5-35.7-14.9-9.9-11.1-11.4-24.2-10.9-33.3 1-17.2 9.9-34.4 24.3-47.2 26.5-23.5 63.6-25.3 82.8-4 9.9 11.1 11.4 24.2 10.8 33.3-.9 17.2-9.8 34.4-24.3 47.2-14.1 12.5-31.2 18.9-47 18.9m83.2-119.8h.1zm-58.5-55.3c-30.4 0-61.9 11.3-87.5 33.9-26.5 23.5-42.9 56.1-44.8 89.5-1.7 29.2 7.7 56.8 26.4 77.6 41.5 46.2 117.1 46.6 168.7 1 26.6-23.5 42.9-56.1 44.8-89.5 1.7-29.2-7.7-56.7-26.4-77.6-20.9-23.3-50.4-34.9-81.2-34.9m1951-2.8c-6 0-12.4-.4-19.2-1.4-43.8-6.2-62.2-27.9-61.6-32.6.1-.3.9-1.8 3.8-4 10.2-7.8 33.8-13.8 63.3-9.6 43.8 6.2 62.2 28 61.5 32.6 0 .3-.8 1.8-3.7 4.1-7.9 6-23.7 10.9-44.1 10.9m-32.8-110.1c-32 0-61.2 8.2-81.2 23.4-15.6 11.8-25 27.3-27.3 44.8-6.3 47.5 42.6 90.9 113.5 101 42.6 6.1 83.2-1.9 108.9-21.4 15.6-11.8 25-27.3 27.3-44.8 6.3-47.4-42.5-90.9-113.5-101-9.4-1.3-18.7-2-27.7-2m-662.9 46c-5.4 0-11-.4-17-1.2-40.1-5.7-62.2-28.2-60.8-38.5.5-3.6 3.8-6.9 6.6-9 9.9-7.4 31.8-14.7 61.2-10.5 40.1 5.7 62.1 28.2 60.8 38.5-.5 3.6-3.9 6.8-6.6 8.9-7.9 6-23.4 11.8-44.2 11.8m-5.7-89.4h.1zm-21-32.1c-31.5 0-60.8 8.5-81.4 24.2-17.3 13.1-27.7 30.3-30.3 49.6-6.6 50.1 43 97 112.8 107 40.7 5.8 80.6-2.6 106.7-22.4 17.2-13.1 27.7-30.3 30.3-49.7 6.5-50-43-96.9-112.8-106.9-8.5-1.2-17-1.8-25.3-1.8m-618.5 116.6c-28 0-46.5-10.4-48-18.3-.6-3.1 1.8-7.1 3.2-9.2 6.9-10 25.5-23.5 54.9-28.7 39.8-7 67.5 6.6 69.4 16.4.6 3.1-1.8 7.1-3.2 9.2-6.9 10-25.5 23.5-54.9 28.7-7.7 1.4-14.8 1.9-21.4 1.9m31.1-119.2c-10.2 0-20.8.9-31.5 2.8-40.8 7.2-76.2 27.5-94.7 54.2-12 17.5-16.5 36.6-12.9 55.4 9.3 48.7 70.7 77.3 139.9 65.1 40.8-7.2 76.2-27.4 94.7-54.2 12-17.4 16.5-36.6 12.9-55.3-7.9-41.2-52.9-68-108.4-68m1262.4 3707.2c-554.1 0-1128.6-184.4-1533.3-392.6-905.4-465.5-1574.1-1139.4-1745.4-1758.7-83.1-300.7-47.7-577.8 105.2-823.8 654.9-1053.2 1821.3-1354.6 3200.1-826.8 708.4 271.1 1201.8 632.9 1466.8 1075.3 284 474.2 306.3 1046.2 66.3 1699.9-162.5 442.8-449.4 747.1-852.7 904.5-220.7 86.1-461.9 122.2-707 122.2m-1228.2-4113.3c-202.6 0-397.8 21.6-583 65-288.6 67.6-553.5 187.7-787.4 356.9-243 175.9-453.9 406.1-626.8 684.1-162.3 261-200 554.5-112.2 872.3 175.7 635.2 856.3 1323.7 1776.3 1796.8 341.9 175.8 735.4 304.8 1108.1 363.2 443.6 69.7 852.5 38.4 1182.4-90.3 420.3-164 719-480.4 887.9-940.3 246.6-672 222.6-1261.6-71.3-1752.4-272.1-454.4-775.9-824.9-1497.3-1101-441.1-168.8-873.5-254.2-1276.7-254.3" style="fill:#211d1d;fill-opacity:1;fill-rule:nonzero;stroke:none" transform="matrix(.01393 0 0 -.01393 -153.612 520.56)"/><path d="M22753.6 29980.9c-16.5-31.3-67.6-37.3-114.2-13.5-46.6 23.9-71.1 68.5-54.6 99.8s67.6 37.3 114.2 13.5 71.1-68.5 54.6-99.8m-808.1 267.9c-50.4-15.8-99.8-.8-110.2 33.5-10.5 34.4 21.9 75 72.3 90.7 50.5 15.8 99.8.8 110.3-33.5s-21.9-74.9-72.4-90.7m-453-457.7c-51.9-10-102 23.8-112.1 75.7-10.1 51.8 23.8 102 75.6 112 51.9 10.1 102-23.8 112.1-75.6s-23.8-102-75.6-112.1m-317.9 399.9c-44.6-28.5-99.6-22-122.9 14.5-23.4 36.5-6.1 89.2 38.5 117.7 44.5 28.4 99.6 21.9 122.9-14.6s6.1-89.2-38.5-117.6m-297.9-513.8c-44.6-28.5-99.1-22.9-121.7 12.6-22.7 35.4-4.9 87.2 39.7 115.7 44.6 28.4 99.1 22.8 121.7-12.6s4.8-87.2-39.7-115.7m-495.5-464.5c-42.2-32-98.2-29.2-125 6.2-26.9 35.4-14.5 89.9 27.6 121.9 42.2 31.9 98.1 29.1 125-6.2 26.9-35.4 14.5-90-27.6-121.9m-139.3 699.9c38.1 36.6 92.9 41.6 122.4 11.1s22.5-84.9-15.6-121.6c-38.1-36.6-92.9-41.6-122.4-11.1s-22.6 84.9 15.6 121.6m-310.2-1201.1c-31.3-42.5-82.3-58.6-113.9-35.8-31.7 22.8-32 75.8-.8 118.4 31.3 42.5 82.3 58.6 114 35.8 31.6-22.8 31.9-75.8.7-118.4m-215 597.2c-31.4 21-32.9 73.5-3.3 117.1 29.7 43.7 79.1 62.1 110.6 41.1 31.4-21 32.9-73.4 3.3-117.1s-79.1-62.1-110.6-41.1m-260.9-536.9c-31.2-42.6-80.4-59.9-109.8-38.7-29.5 21.1-28 72.8 3.3 115.3 31.2 42.6 80.4 59.9 109.8 38.8 29.4-21.2 28-72.9-3.3-115.4m1897.4 1720.1c-1341.7-280-2400.8-1473.8-2274.1-2098.3 126.7-624.4 751.7-665.9 751.7-665.9s2.9 1161.7 1235 1744.4c404.4 191.2 745.5 278.5 1021.9 310 11.4 46.6 55.9 78.3 104.5 71.9 35-4.6 62.7-27.8 75.3-58.3 448.2 15.1 679.5-119.7 679.5-119.7s-252.1 1095.9-1593.8 815.9" style="fill:#f3e6a3;fill-opacity:1;fill-rule:nonzero;stroke:none" transform="matrix(.01393 0 0 -.01393 -153.612 520.56)"/><path d="M20314.3 29913.1c-16.7 0-36-7.8-51.3-22.6-15-14.4-24.1-33.4-24.5-50.9-.1-7.8 1.5-18.8 9.7-27.4 17.5-18 53.8-12.6 79.3 11.9 15 14.5 24.2 33.5 24.5 51 .1 7.8-1.4 18.8-9.7 27.3-6.9 7.2-16.9 10.7-28 10.7m-38-172.4c-27.3 0-53.1 9.6-72 29.1-17.8 18.4-27.3 43.5-26.8 70.9.6 33.8 16.3 68.1 43.2 93.9 50.1 48.2 124.4 52.8 165.5 10.3 17.8-18.4 27.4-43.6 26.9-70.9-.6-33.9-16.4-68.1-43.2-93.9-27.2-26.1-61.4-39.4-93.6-39.4M20854.3 29793.1c-14.2 0-29.6-4.7-43.2-13.4-15.5-9.9-27.4-24.3-32.6-39.4-2.5-7.4-5.7-21.8 2.2-34.1 13.3-20.8 49.7-22.3 79.5-3.3 15.5 10 27.4 24.3 32.6 39.4 2.6 7.5 5.7 21.8-2.2 34.1-7.8 12.4-22.1 15.5-30 16.4q-3 .3-6.3.3m-36.9-164.4c-36.2 0-69.5 15.4-88.2 44.6-15.8 24.8-18.9 56.4-8.5 86.8 9.8 28.4 30.2 53.6 57.6 71.1 27.3 17.5 58.8 25.4 88.6 22.3 32-3.3 59.4-19.4 75.2-44.2 15.9-24.7 19-56.4 8.5-86.8-9.7-28.3-30.1-53.6-57.5-71.1-24-15.3-50.6-22.7-75.7-22.7M21493.5 28777.6c-12.2 0-24.5-3.3-35.6-10.4-30.3-19.3-39.5-59.3-20.5-88.9 18.9-29.7 59-38.1 89.3-18.8 14.8 9.4 25 23.9 28.9 40.8 3.8 16.8.9 33.9-8.3 48.2-12 18.9-32.7 29.1-53.8 29.1m-2.2-189.6c-41.3 0-81.7 20.3-105.4 57.4-37.1 58-19.5 135.8 39.2 173.3s136.6 20.7 173.7-37.3c18-28.2 23.8-61.8 16.3-94.6-7.4-32.7-27.1-60.6-55.5-78.8-21.2-13.5-44.9-20-68.3-20M21201 28157.7c-6.3 0-12.7-.8-19.1-2.5-34.8-9.1-57.2-40.3-49.9-69.5 4-15.7 14.7-24.9 23.1-29.9 15-8.9 34.3-11.2 52.9-6.4 34.9 9.1 57.3 40.2 49.9 69.5-3.9 15.7-14.7 24.9-23 29.9-9.9 5.8-21.7 8.9-33.9 8.9m-12-171.8c-23.1 0-45.7 5.9-65.1 17.4-25.9 15.4-44.1 39.3-51.1 67.5-15.5 61.7 26.6 126.1 93.8 143.5 34.2 8.9 70.5 4.2 99.4-13 25.9-15.4 44.1-39.3 51.2-67.5 15.4-61.7-26.6-126.1-93.9-143.5-11.3-3-22.9-4.4-34.3-4.4M20756.9 28266.1c-7 0-14.2-.9-21.4-2.8-34.3-8.9-58-37.6-51.7-62.6 3-12 11.8-19.4 18.7-23.5 15.1-9 35.4-11.1 55.5-5.9 34.3 8.9 58 37.6 51.7 62.6-3 12-11.8 19.4-18.7 23.5-9.7 5.7-21.5 8.7-34.1 8.7m-20.2-158.6c-23.5 0-46.2 5.8-65.4 17.2-23.8 14.1-40.4 35.8-46.8 61.1-14.5 57.9 28.4 119.1 95.6 136.6 35.8 9.3 73 4.7 102.1-12.5 23.8-14.1 40.4-35.8 46.7-61.1 14.6-57.9-28.3-119.1-95.5-136.6-12.2-3.2-24.6-4.7-36.7-4.7M21588.3 27737.1c-10.9 0-22.3-2.5-33.1-7.4-32.2-14.7-50.2-47.6-39.3-71.9 5.5-12.1 16-18.2 23.9-21.2 16.6-6.2 36.8-4.9 55.5 3.6 32.2 14.6 50.2 47.6 39.2 71.9-5.4 12.1-16 18.2-23.9 21.1-6.9 2.6-14.5 3.9-22.3 3.9m-26.2-165.4c-15.1 0-30 2.6-43.8 7.7-26.5 10-47.1 28.9-58.1 53.3-24.9 55.3 6.4 123.8 69.7 152.6 33.3 15.2 70.6 17 102.3 5.1 26.4-10 47-28.9 58-53.3 24.9-55.3-6.3-123.7-69.6-152.5-18.8-8.6-38.9-12.9-58.5-12.9M21199.5 27190.6c-5.3 0-10.9-.4-16.9-1.2-40.1-5.7-62.2-28.2-60.8-38.5.5-3.6 3.8-6.9 6.6-9 9.9-7.4 31.8-14.7 61.2-10.5 40.1 5.7 62.1 28.2 60.8 38.5-.5 3.6-3.9 6.8-6.6 8.9-7.9 6-23.4 11.8-44.3 11.8m-26.6-121.5c-31.5 0-60.8 8.5-81.4 24.2-17.3 13.1-27.7 30.3-30.3 49.6-6.6 50.1 43 97 112.8 107 40.8 5.7 80.6-2.6 106.7-22.4 17.2-13.1 27.7-30.3 30.3-49.7 6.5-50-43-96.9-112.8-106.9-8.5-1.2-17-1.8-25.3-1.8M21895.3 27254.7c-6.1 0-12.5-.4-19.2-1.4-43.8-6.2-62.2-27.9-61.6-32.6.1-.3.9-1.8 3.8-4 10.2-7.8 33.8-13.8 63.3-9.6 43.8 6.2 62.2 28 61.5 32.6 0 .3-.8 1.8-3.7 4.1-7.9 6-23.8 10.9-44.1 10.9m-32.8-110.1c-32 0-61.2 8.2-81.2 23.4-15.6 11.9-25 27.3-27.3 44.8-6.3 47.5 42.6 90.9 113.5 101 42.6 6.1 83.3-1.9 108.9-21.4 15.6-11.8 25-27.3 27.3-44.8 6.3-47.4-42.5-90.9-113.5-101-9.4-1.3-18.6-2-27.7-2M22276.6 27969.9c-13.7 0-30.1-4.5-46.3-14.8-32.4-20.7-44.1-52.2-34.3-67.6 9.9-15.3 43.4-18 75.7 2.7 32.4 20.7 44.1 52.2 34.3 67.5-4.9 7.7-15.7 12.2-29.4 12.2m-51.4-155.8c-33.6 0-63.6 13.8-80.6 40.5-30.1 47.1-6.9 113.8 52.8 152 59.7 38.1 130 31.1 160.1-16 30-47 6.8-113.8-52.9-151.9-25.8-16.5-53.7-24.6-79.4-24.6M21797.3 28258.9c-13.7 0-30.1-4.5-46.2-14.8-15.9-10.2-28.4-24.4-34.2-39-2.6-6.7-6-19.2.1-28.8 6.2-9.6 19-11.8 26.1-12.2 15.7-.9 33.8 4.4 49.8 14.6 15.9 10.2 28.4 24.4 34.2 39 2.6 6.7 6 19.2-.1 28.8-5 7.8-16 12.4-29.7 12.4m-50.6-156c-2.4 0-4.8.1-7.2.2-31.8 1.9-58.8 16.6-74 40.3-15.1 23.7-17.1 54.4-5.4 84.1 10.5 26.7 31.2 50.9 58.1 68.1 59.7 38.1 130.1 31 160.3-16.2 15.1-23.7 17.1-54.4 5.4-84.1-10.5-26.7-31.2-50.9-58.1-68.1-24.7-15.8-52.6-24.3-79.1-24.3M21325 29332.9c-12.4 0-24.7-3.5-35.5-10.4-14.7-9.5-25-23.9-28.8-40.8-3.8-16.8-.9-33.9 8.3-48.2 9.1-14.3 23.4-24.2 40.2-27.7 16.9-3.6 34.4-.4 49.1 9 14.8 9.4 25 23.9 28.9 40.8 3.8 16.7.9 33.8-8.3 48.1-9.1 14.4-23.4 24.2-40.2 27.8-4.5.9-9.1 1.4-13.7 1.4m-2-189.7c-8.9 0-17.7.9-26.5 2.8-33 7-61 26.4-79 54.6s-23.8 61.8-16.4 94.6c7.5 32.7 27.2 60.6 55.6 78.7 28.3 18.2 62 24.3 94.7 17.3 32.9-7 61-26.4 79-54.6s23.8-61.8 16.3-94.6c-7.4-32.6-27.1-60.6-55.5-78.7-20.7-13.3-44.3-20.1-68.2-20.1M21474.4 29950.1c-4.2 0-8.4-.4-12.6-1.3-35.2-6.8-58.3-41-51.4-76.2 6.8-35.2 41-58.3 76.2-51.5 17.1 3.3 31.8 13.1 41.6 27.5 9.7 14.4 13.2 31.7 9.9 48.8-3.3 17-13.1 31.8-27.5 41.5-10.8 7.3-23.4 11.2-36.2 11.2m-.2-191.3c-59.2 0-112.1 41.9-123.8 102.1-13.2 68.3 31.5 134.7 99.8 147.9 68.3 13.3 134.6-31.5 147.9-99.8 13.2-68.3-31.5-134.6-99.8-147.9-8.1-1.5-16.2-2.3-24.1-2.3M21148.8 30310.4c-14.1 0-29.1-4.6-42.2-13-15.4-9.8-27.1-24.2-32.1-39.5-2.5-7.8-5.5-22.7 2.9-36 14-21.8 50.9-24.2 80.8-5.2 15.4 9.9 27.1 24.3 32.1 39.6 2.5 7.7 5.5 22.7-3 35.9-8.4 13.2-23.2 16.8-31.3 17.7-2.4.3-4.8.5-7.2.5m-32.5-167.6c-36.9 0-71.1 16-90.4 46.3-16 25.1-19.5 57.1-9.5 87.8 9.5 28.9 29.8 54.5 57.3 72 27.5 17.6 59.3 25.3 89.5 21.7 32-3.8 59.6-20.4 75.6-45.5 16.1-25.2 19.6-57.2 9.5-87.8-9.4-28.9-29.8-54.5-57.3-72.1-23.6-15.1-49.8-22.4-74.7-22.4M22033.8 29307.4c-12.1 0-24.5-3.4-35.5-10.4-14.8-9.4-25-23.9-28.8-40.8-3.9-16.8-.9-33.9 8.2-48.2 19-29.7 59.1-38.1 89.4-18.7 14.7 9.4 25 23.9 28.8 40.8 3.8 16.7.9 33.8-8.2 48.2-12.1 18.8-32.7 29.1-53.9 29.1m-2.1-189.6c-41.4 0-81.8 20.2-105.5 57.3-18 28.2-23.8 61.8-16.3 94.6 7.4 32.7 27.1 60.7 55.5 78.8 58.7 37.5 136.7 20.7 173.8-37.4 18-28.2 23.8-61.8 16.3-94.6-7.4-32.6-27.2-60.6-55.5-78.7-21.2-13.5-44.9-20-68.3-20M22176.2 28710.3c-14.8 0-31.5-5.3-46.3-14.8-16-10.2-28.4-24.4-34.2-39-2.6-6.6-6.1-19.1 0-28.7 9.9-15.4 43.4-18.1 75.8 2.6 16 10.2 28.4 24.4 34.2 39 2.6 6.6 6.1 19.1 0 28.7-6.1 9.5-18.9 11.7-26 12.1-1.1 0-2.3.1-3.5.1m-51.1-155.9c-33.7 0-63.8 13.8-80.8 40.5-15.2 23.8-17.2 54.4-5.4 84.1 10.5 26.7 31.2 50.8 58.1 68s57.5 25.8 86.2 24.2c31.9-1.9 58.8-16.5 74-40.2 15.1-23.7 17.1-54.4 5.3-84.1-10.5-26.6-31.2-50.8-58.1-68-25.8-16.5-53.6-24.5-79.3-24.5M20995.7 27635c-5.8 0-11.8-.5-17.8-1.6-36.9-6.7-61.2-32-58.3-50.1 1-6.2 4.9-11.7 11.6-16.4 13.7-9.7 35.9-13.2 57.8-9.2 37 6.7 61.3 32 58.3 50.1-1 6.1-4.9 11.6-11.5 16.4-10.1 7-24.5 10.8-40.1 10.8m-24.8-140.1c-28.1 0-54.4 7.6-74.9 22.1-20.1 14.1-33.1 34.2-36.7 56.5-8.9 54.7 38.4 107.4 107.7 120 38.6 7.1 76.5 0 104-19.4 20-14.2 33-34.2 36.6-56.5 8.9-54.7-38.4-107.4-107.6-120q-14.7-2.7-29.1-2.7M22749.8 28480c-17.9 0-41.5-15.1-55.1-43.5-9.4-19.7-11.6-41.1-5.8-57.3 2.2-6.1 6.6-14.2 15.1-18.1 17.9-8.3 49.4 6.6 66 41.3 9.5 19.6 11.6 41 5.8 57.2-2.2 6.1-6.6 14.2-15 18.1-3.3 1.5-7 2.3-11 2.3m-34.3-182.5c-12.7 0-25.3 2.7-37.2 8.2-21.6 10-38.2 28.8-46.9 52.9-11.4 31.7-8.4 69.7 8.2 104.3 30.4 63.5 94.9 94.4 146.9 70.3 21.5-10 38.1-28.8 46.8-52.9 11.4-31.7 8.4-69.8-8.2-104.4-23.4-48.8-67.1-78.4-109.6-78.4M22548.8 27496c-11.9 0-26.7-2.6-42.9-10-36.9-16.8-51.5-44.7-47.1-54.4 1.6-3.5 6-5.8 9.4-7.1 11.7-4.4 35-5.2 62 7.1 36.9 16.7 51.5 44.7 47.1 54.3-1.6 3.6-6 5.9-9.4 7.2-4.7 1.7-11.3 2.9-19.1 2.9m-61.7-135.6c-14.5 0-28.2 2.3-40.4 6.9-20.5 7.7-35.6 21.3-43.6 39.3-21 46.4 13.1 105.7 77.5 135 37.4 17 78 20.2 108.8 8.6 20.5-7.7 35.5-21.2 43.6-39.2 20.9-46.4-13.1-105.7-77.5-135.1-22.6-10.2-46.3-15.5-68.4-15.5M23083 28021.4c-9.4 0-33.2-7.2-57.3-34-20-22.2-28.1-45.2-27.4-58.1.2-3.7 1.1-5.2 1.3-5.4 3.3-3 32 .7 61.1 33.1 20 22.3 28.2 45.3 27.5 58.2-.2 3.7-1.1 5.2-1.3 5.3q-.9.9-3.9.9m-79-159.4c-17 0-32.6 5.3-44.9 16.2-13.1 11.6-20.7 28-21.8 47.6-1.8 32.1 14.2 70.4 43 102.4 48 53.5 111.2 69.9 147.1 38.1 13.1-11.6 20.7-28.1 21.8-47.6 1.8-32.1-14.2-70.4-43-102.5-31.5-35.1-69.6-54.2-102.2-54.2M23307.4 28674.6c-9.2 0-32.4-16.7-46.2-51.7-10.6-26.9-10-50.9-4.7-62.8 1.3-3.2 3.1-5.4 4.5-6 7.4-2.7 33.2 13.8 48 51.5 10.6 26.9 10.1 50.9 4.8 62.8-1.4 3.1-3.1 5.4-4.5 5.9zm-44.7-181.9c-7.9 0-15.7 1.4-23.3 4.3-17.2 6.5-30.6 19.8-38.8 38.4-13.1 29.5-11.7 70.6 3.8 109.9 26.2 66.5 80.6 103.5 126.5 86.2 17.1-6.5 30.5-19.8 38.8-38.4 13.1-29.6 11.6-70.6-3.8-109.9-21.9-55.5-63.4-90.5-103.2-90.5M23134.9 29494.1c-3 0-6-.6-8.4-2.2-7.5-4.7-8.5-17.1-8.6-22.1-.3-15.3 5.4-33.2 15.6-49.2 21-32.9 50.6-43.5 61.8-36.4 11.1 7.2 13.9 38.5-7.1 71.4-10.2 16-24.1 28.7-38 34.8-3.1 1.3-9.3 3.7-15.3 3.7m52-173.1c-37.2 0-77.8 24.4-104.9 66.7-16.8 26.3-25.7 55.9-25.2 83.3.6 31.5 14 57.9 36.8 72.4 22.7 14.5 52.3 15.6 81.1 2.9 25.1-11 48.2-31.6 65-57.9 37.7-59 32.7-127.4-11.6-155.7-12.5-7.9-26.6-11.7-41.2-11.7M22687.6 29201.2c-2.6 0-5.1-.3-7.8-1.2-21.4-6.6-31.4-41.2-21.4-73.9 6.2-20.4 19-37.3 34.1-45.3 5.9-3.1 14.9-6.2 24.2-3.3 21.4 6.7 31.4 41.3 21.5 74-6.3 20.3-19 37.2-34.1 45.2-4.3 2.3-10.1 4.5-16.5 4.5m21.5-185.9c-15.2 0-30.7 3.9-45.1 11.5-29.7 15.6-53 45.3-64 81.5-20.1 65.8 7.5 133.1 61.6 150.1 22.9 7.1 48.2 4.4 71-7.6 29.7-15.7 53-45.4 64-81.5 20.1-65.9-7.6-133.2-61.6-150.1-8.4-2.6-17.1-3.9-25.9-3.9M22642.2 30064.7c-15.4 0-26.8-4.9-30.4-11.7-2.1-4-2.1-9.3-.1-15.6 3.9-12.4 16.9-30.1 41.6-42.8 35.1-17.9 66.8-11.7 73.3.6 2.1 4 2.1 9.2.1 15.5-3.9 12.4-16.9 30.2-41.6 42.8-15.6 8-30.6 11.2-42.9 11.2m54.3-142.4c-22.7 0-47.3 5.8-71 17.9-35.7 18.3-62 47-72.1 78.8-7 22.1-5.5 43.7 4.4 62.4 24.6 46.8 92.7 58.4 155.1 26.5 35.8-18.3 62-47 72.1-78.7 7-22.2 5.5-43.8-4.4-62.5-15.2-29-47.2-44.4-84.1-44.4M21947.3 30348.8c-9.1 0-19.4-1.4-30.5-4.9-35.2-11-57-37.3-52.3-52.6 1.4-4.6 5.2-8.6 11.4-11.9 11.7-6.2 33.8-9.8 60.5-1.5 35.1 11 57 37.3 52.3 52.7-1.4 4.6-5.3 8.5-11.4 11.8-6.8 3.6-17.2 6.4-30 6.4m-41.8-136.9c-21.2 0-41.2 4.5-58.2 13.5-20.7 11-35 27.6-41.3 48-15.5 51.1 25.1 107.7 92.5 128.8 38.5 12 77.6 9.9 107.3-5.8 20.8-11 35.1-27.6 41.3-48 15.6-51.1-25-107.7-92.5-128.8-16.5-5.1-33.1-7.7-49.1-7.7M22274.2 29747.2h.1zm-94.6 77.1c-14.1 0-27.8-4.6-39.2-13.4-13.7-10.5-22.5-25.7-24.8-42.8-2.2-17.2 2.3-34.2 12.8-47.9 10.6-13.7 25.8-22.5 42.9-24.7 35.4-4.7 67.9 20.3 72.6 55.7 4.7 35.3-20.3 67.9-55.7 72.6-2.8.3-5.7.5-8.6.5m.3-190.5c-5.5 0-11 .4-16.6 1.1-33.3 4.4-62.9 21.5-83.3 48.2-20.5 26.6-29.3 59.6-24.9 93 4.4 33.3 21.5 62.9 48.1 83.3 26.7 20.5 59.7 29.3 93 24.9 68.8-9.1 117.3-72.4 108.3-141.1-8.4-63.3-62.5-109.4-124.6-109.4M19794.2 29445c-16.5 0-39.4-12.6-55.5-36.3-12.6-18.6-18.4-40.5-15.1-57.3 1.6-8 5-13.9 10.1-17.3 15-10 47.3 1.9 68.3 32.8 12.6 18.6 18.4 40.6 15.1 57.3-1.1 5.6-3.7 13.1-10.1 17.3-3.5 2.4-7.9 3.5-12.8 3.5m-47.4-175.6c-16.7 0-32.8 4.5-47 13.9-18.6 12.4-31.5 32.5-36.1 56.4-6.5 33.1 2.4 70.8 24.5 103.3 39.6 58.4 106.7 80.1 152.7 49.3 18.7-12.4 31.5-32.4 36.2-56.4 6.4-33.1-2.5-70.7-24.5-103.2-27.5-40.5-68.1-63.3-105.8-63.3M19897.1 28809.6c-16.7 0-38.8-11-55.4-33.6-13.2-17.9-19.4-38.8-16.7-55.9.9-6.1 3.6-14.5 10.6-19.6 15.5-11.1 48.7-1.9 71.5 29.1 13.1 17.9 19.4 38.8 16.7 56-1 6.1-3.6 14.4-10.7 19.5-4.2 3-9.7 4.5-16 4.5m-45.4-175c-18.5 0-36.4 5.3-51.8 16.3-18.8 13.6-31.4 34.8-35.3 59.6-5.3 33.4 4.9 70.4 27.8 101.6 41.8 56.9 110.5 75.6 156.4 42.6 18.8-13.6 31.4-34.8 35.3-59.6 5.3-33.4-4.8-70.4-27.8-101.7-27.8-37.8-67.5-58.8-104.6-58.8M20347.5 29332.4c-14.9 0-31.2-5.3-45.2-16-16.2-12.2-26.9-29.3-29.3-47-1.2-8.5-.8-21.1 7.5-32 16.4-21.6 54-21.8 82.2-.4 16.2 12.3 26.9 29.4 29.3 47 1.2 8.6.8 21.1-7.5 32.1-8.2 10.8-21.9 16.3-37 16.3m-29.9-172.4c-33.7 0-65.5 13.7-85.8 40.4-16.3 21.5-23.2 49-19.3 77.4 4.6 33.5 23.9 65.3 52.9 87.3 55.5 42.1 130.7 36.7 167.7-12.1 16.4-21.5 23.3-49 19.4-77.3-4.6-33.5-23.9-65.4-52.9-87.4-25.1-19-54.2-28.3-82-28.3M19429.3 28865.8c-15.8 0-38.4-12.3-55.4-35.4-13.7-18.7-20.6-40.7-18-57.4 1.1-7.1 3.8-12.2 7.9-15.1 13.6-9.8 45.3 1.8 67.4 31.9 13.7 18.7 20.6 40.7 18 57.4-1.1 7.1-3.8 12.2-7.9 15.2-3.2 2.2-7.3 3.4-12 3.4m-53.7-172.4c-17.1 0-33.5 4.8-47.5 14.9-17.3 12.4-28.9 32-32.5 55.1-5.3 33.3 5.3 70.8 29 103.1 41.8 56.9 108.7 76.9 152.4 45.5 17.3-12.5 28.9-32.1 32.5-55.2 5.3-33.2-5.3-70.8-29.1-103.1-28.4-38.7-68.4-60.3-104.8-60.3M20773.3 28868.3c-12.2 0-24.5-3.3-35.6-10.4-14.7-9.4-24.9-23.9-28.8-40.8-3.8-16.7-.9-33.8 8.3-48.2 9.1-14.3 23.4-24.1 40.2-27.7 16.9-3.6 34.4-.4 49.1 9 14.8 9.4 25 23.9 28.9 40.8 3.8 16.8.9 33.9-8.3 48.2-12 18.9-32.6 29.1-53.8 29.1m-2.1-189.7c-8.8 0-17.7 1-26.5 2.8-32.9 7.1-61 26.5-79 54.7s-23.8 61.8-16.4 94.6c7.5 32.6 27.2 60.6 55.6 78.7 58.7 37.5 136.6 20.8 173.7-37.3 18-28.2 23.8-61.8 16.4-94.6-7.5-32.7-27.2-60.6-55.6-78.8-20.7-13.2-44.3-20.1-68.2-20.1M20254.9 28479.4c-12.1 0-24.5-3.3-35.5-10.4-14.8-9.4-25-23.9-28.8-40.8-3.9-16.7-.9-33.8 8.2-48.1 19-29.7 59.1-38.1 89.4-18.8 14.7 9.5 25 24 28.8 40.8s.9 33.9-8.2 48.2c-12.1 18.9-32.7 29.1-53.9 29.1m-2.1-189.6c-41.4 0-81.8 20.3-105.5 57.4-18 28.2-23.8 61.8-16.3 94.6 7.4 32.6 27.1 60.6 55.5 78.7 58.7 37.5 136.6 20.8 173.7-37.3 18.1-28.2 23.9-61.8 16.4-94.6-7.4-32.7-27.2-60.6-55.5-78.7-21.2-13.6-44.9-20.1-68.3-20.1M20434.3 27727.2c-21.5 0-39.8-8.7-45.8-23.9-3.9-9.9-1.3-19.6 1.6-26.1 6.9-15.6 22.7-29.4 42.3-36.8 32.9-12.5 68-4.2 76.8 18 3.9 9.9 1.3 19.7-1.6 26.2-6.9 15.6-22.7 29.4-42.3 36.8-10.4 3.9-21.1 5.8-31 5.8m28.3-153.6c-17 0-34.6 3.1-51.8 9.6-35.1 13.3-63 38.5-76.6 69.3-10.7 24.2-11.6 50.2-2.5 73.2 21.1 53.6 90.7 77.2 155.2 52.8 35.1-13.3 63-38.5 76.6-69.2 10.7-24.2 11.6-50.2 2.5-73.2-15.4-39.3-57-62.5-103.4-62.5M20554.4 27185.7c-28 0-46.5-10.4-48-18.3-.6-3.1 1.8-7.1 3.2-9.2 6.9-10 25.5-23.5 54.9-28.7 39.8-7 67.5 6.6 69.4 16.4.6 3.1-1.8 7.1-3.2 9.2-6.9 10-25.5 23.5-54.9 28.7-7.7 1.4-14.8 1.9-21.4 1.9m31.1-119.2c-10.2 0-20.8.9-31.5 2.8-40.8 7.2-76.2 27.5-94.7 54.2-12 17.4-16.5 36.6-12.9 55.4 9.3 48.7 70.8 77.3 139.9 65.1 40.8-7.2 76.2-27.4 94.7-54.2 12-17.4 16.5-36.6 12.9-55.3-7.9-41.2-52.9-68-108.4-68M19919.6 27432.6c-13.9 0-26.8-5-35.7-14.9-9.9-11.1-11.4-24.2-10.9-33.3 1-17.2 9.9-34.5 24.3-47.2 26.5-23.5 63.7-25.3 82.8-4 9.9 11.1 11.4 24.2 10.8 33.3-.9 17.2-9.8 34.4-24.3 47.2-14.1 12.5-31.2 18.9-47 18.9m24.7-175.1c-30.4 0-61.9 11.3-87.5 33.9-26.5 23.5-42.9 56.1-44.8 89.5-1.7 29.2 7.7 56.8 26.4 77.6 41.5 46.2 117.2 46.6 168.7 1 26.6-23.5 42.9-56.1 44.8-89.5 1.7-29.2-7.7-56.8-26.4-77.6-20.9-23.3-50.4-34.9-81.2-34.9" style="fill:#211d1d;fill-opacity:1;fill-rule:nonzero;stroke:none" transform="matrix(.01393 0 0 -.01393 -153.612 520.56)"/></g></svg>