<svg xmlns="http://www.w3.org/2000/svg" xml:space="preserve" width="200mm" height="200mm" viewBox="0 0 200 200"><g style="display:inline"><g style="display:inline"><path d="M10581.3 31684.7c-25.4 105.2-112.3 148-210.4 174.1-200.5 53.4-827.63-350.2-1164.41-634.8l-146.78-103.9c39.5-32.3 80.6-62.2 132.91-75.3 57.24-10.7 113.58-21.9 169.21-33.6l55.88 49.7c325.86 275 693.09 529.1 808.09 544 89.8 11.6 135.1-55.5 109.5-103.4-45.1-84.4-281.6-352.6-378.76-478.4-37.35-48.4-77.37-93.3-118.9-135.3 109.46-34.9 216.06-74.5 320.16-119.9 9.4 11.7 18.8 23.3 28.1 35.3 312 404.4 446.1 671.4 395.4 881.5" style="fill:#aae1c1;fill-opacity:1;fill-rule:nonzero;stroke:none" transform="matrix(.01138 0 0 -.01138 67.303 475.656)"/><path d="M9893.4 30901.7c89.18-29.7 173.2-61.5 255.2-96.5 4.4 5.5 8.8 11 13.1 16.7 322.7 418.2 435.7 666 389.9 855.6-18.3 76.1-74.7 121.5-188.5 151.8-182.4 48.5-795.22-339.9-1136.89-628.6l-2.07-1.6-113.2-80.2c29.11-21.1 56.44-36.1 88.24-44.2 51.7-9.7 103.38-19.9 153.85-30.5l44.39 39.5c302.04 255 693.28 534.5 824.48 551.5 56.8 7.3 106.6-11.5 133.5-50.4 20.5-29.8 23.2-67.2 6.9-97.7-30.7-57.3-137.9-186.3-241.5-311.1-54.6-65.6-106.1-127.5-140.07-171.6-26.96-34.9-55.75-68.8-87.33-102.7m273.5-171.1-21.4 9.3c-100.8 44-204.51 82.9-317.15 118.8l-47.49 15.1 35.06 35.5c43.56 44 81.64 87.3 116.44 132.4 34.69 45 86.54 107.4 141.44 173.4 97 116.7 206.9 249 234.6 300.8 5.6 10.5 4.4 23-3.3 34.2-13.6 19.7-41.8 28.8-75.4 24.5-101.6-13.1-456.99-254-792.28-537.1l-66.81-59.4-15.08 3.2c-55.1 11.6-111.8 22.9-168.54 33.5l-1.78.4c-60.39 15.1-106.43 49.9-144.83 81.2l-31.08 25.4 178.47 126.4c291.83 246.4 961.13 701.4 1191.03 640.1 91.9-24.5 201.4-68.9 232.2-196.4 50.6-209.8-65.5-472.7-400.9-907.3-7.8-10.2-15.8-20.1-23.7-29.9zM5803.24 29104.2c153.72-264.4 313.36-519.7 475.81-760.9 194.95-289.5 463.11-605.1 735.74-865.9 616.67-589.8 1551.01-621.6 2127.09-72.2 231.52 220.8 288.56 304.7 457.89 554.1 67.52 99.4 151.54 223.2 271.02 391.8 163.31 230.5 302.91 447.7 416.41 647.5-206.4-151.3-448.66-274.9-722.36-368.4-398.45-136-867.51-209.3-1394.14-217.6-584.37-9.3-1110.55 71.9-1564.19 241.3-300.98 112.4-570.45 263.5-803.27 450.3m2347.57-2150.9c-24.66 0-49.36.6-74.22 1.7-409.15 18.8-801.23 188.7-1104.03 478.3-275.66 263.6-546.9 582.9-744.18 875.9-194.73 289.1-385.41 598.4-566.75 919.1l-95.77 169.3 143.07-131.8c404.39-372.8 1159.75-812.7 2460.8-792.1 953.4 15.1 1692.49 238.8 2196.67 665l120.8 102.1-74-139.7c-125.7-237-291.4-501.2-492.56-785.3-119.12-168.2-202.96-291.6-270.33-390.8-172.07-253.4-230.03-338.8-466.27-564-277.25-264.4-641.81-407.7-1033.23-407.7" style="fill:#211d1d;fill-opacity:1;fill-rule:nonzero;stroke:none" transform="matrix(.01138 0 0 -.01138 67.303 475.656)"/><path d="M10659.5 29860.5c0-1.4-.1-2.9-.1-4.4 6.1 57.5 2.7 89.8.8 101.2l-10.2.1c6.4-31.8 9.5-64.2 9.5-96.9" style="fill:#f5f014;fill-opacity:1;fill-rule:nonzero;stroke:none" transform="matrix(.01138 0 0 -.01138 67.303 475.656)"/><path d="m10689.8 29852.9-60.9 3.2v4.4c0 31.1-3 61.7-8.8 90.8l-7.5 37 73.8-.8 4-25.5c2.5-15.4 5.6-50.2-.6-109.1M8275.31 28128.4c-32.38 0-64.68.5-97.08 1.3-1047.43 27.1-1706.47 220.6-2074.89 378.2-15.51 6.7-22.71 24.6-16.07 40.1 6.64 15.6 24.58 22.8 40.1 16.1 363.51-155.5 1014.67-346.5 2052.44-373.3 709.02-18.3 1430.04 180.9 1796.68 301.3 16.03 5.3 33.31-3.4 38.51-19.4 5.3-16.1-3.4-33.3-19.44-38.6-430.96-141.5-1070.8-305.7-1720.25-305.7M8070.18 27728.9c-687.38 0-1359.32 247.9-1709.69 401.6-15.45 6.8-22.48 24.8-15.7 40.2 6.78 15.5 24.79 22.5 40.24 15.7 365.68-160.3 1085.97-424.7 1801.4-393.9 547.85 23.6 1088.47 127 1445.53 209.6 16.46 3.8 32.84-6.5 36.64-22.9 3.8-16.5-6.44-32.9-22.88-36.7-359.56-83.1-904.15-187.2-1456.65-211-39.63-1.7-79.31-2.6-118.89-2.6M8289.65 27381.5c-39.35 0-78.65.6-117.95 1.9-578.64 18.1-1112.96 184.7-1459.31 321.3-15.7 6.2-23.4 23.9-17.21 39.6 6.18 15.7 23.93 23.4 39.61 17.2 341.85-134.8 868.96-299.2 1438.82-317.1 384.68-12.1 772.67 36 1153.19 143 16.23 4.5 33.11-4.9 37.67-21.2 4.56-16.2-4.9-33.1-21.14-37.6-347.67-97.7-701.57-147.1-1053.68-147.1" style="fill:#211d1d;fill-opacity:1;fill-rule:nonzero;stroke:none" transform="matrix(.01138 0 0 -.01138 67.303 475.656)"/><path d="M8144.22 27106.9c-329.11 0-802.52 164.8-1148.8 306.5-15.62 6.4-23.09 24.3-16.7 39.9 6.4 15.6 24.25 23.1 39.84 16.7 355.93-145.7 846.99-316.1 1165.7-301.1 213.98 10.2 500.47 53 828.49 123.9 16.51 3.6 32.74-6.9 36.31-23.4s-6.91-32.7-23.4-36.3c-231-49.9-563.99-112.2-838.5-125.2-14.01-.7-28.34-1-42.94-1" style="fill:#211d1d;fill-opacity:1;fill-rule:nonzero;stroke:none" transform="matrix(.01138 0 0 -.01138 67.303 475.656)"/><path d="M8201.89 26953.3h-.04c-16.87 0-30.53 13.7-30.51 30.6l.01 32.8c-.35 306.4-11.24 890.1-32.37 1734.8-.42 16.8 12.91 30.9 29.78 31.3 16.75.3 30.88-12.9 31.3-29.8 21.14-845.2 32.03-1429.3 32.38-1736.3v-32.9c-.03-16.8-13.7-30.5-30.55-30.5M8806.87 27103.5c-5.97 0-12 1.8-17.29 5.4-13.9 9.6-17.41 28.6-7.86 42.5 341.91 497.1 555.15 1045.1 633.79 1628.7 2.24 16.7 17.68 28.4 34.35 26.2 16.72-2.3 28.45-17.6 26.19-34.4-79.93-593.2-296.6-1150-643.98-1655.1-5.93-8.6-15.48-13.3-25.2-13.3M7562.68 27063.8c-11.02 0-21.66 6-27.11 16.4-198.88 381.1-430.47 989.6-688.33 1808.8-5.07 16.1 3.87 33.3 19.96 38.3 16.08 5.1 33.24-3.8 38.31-19.9 256.79-815.8 486.99-1421 684.22-1798.9 7.81-15 2.01-33.4-12.94-41.2a29.95 29.95 0 0 0-14.11-3.5M8844.99 28745.6h.01zm.09 0h.1zm-314.9-1744.6c-3.13 0-6.32.5-9.45 1.5-16.05 5.3-24.83 22.5-19.61 38.5 161.25 496 326.66 1620.2 319.24 1720.8-2.61 4.9-3.9 10.6-3.45 16.5 1.25 16.8 16.01 29.5 32.74 28.2 9.85-.7 18.72-6 24.33-14.3 7.8-11.7 15.87-23.7-11.7-239.9-17.07-133.7-43.1-305.4-73.29-483.3-36.3-214-131.37-744.2-229.77-1046.8-4.2-13-16.17-21.2-29.04-21.2M7883.12 26986.1c-12.65 0-24.48 8-28.86 20.6-49.92 143.7-97.61 321.5-135.93 464.5-8.92 33.2-17.27 64.4-24.95 92.5-115.43 422.1-192.43 1201.5-193.19 1209.4-1.64 16.8 10.64 31.7 27.43 33.3 16.78 1.8 31.73-10.6 33.37-27.4.76-7.8 77.27-782.1 191.32-1199.2 7.71-28.2 16.08-59.4 25.02-92.8 38.07-142 85.44-318.7 134.64-460.3 5.53-15.9-2.89-33.3-18.83-38.8-3.32-1.2-6.7-1.8-10.02-1.8M9378.95 27575c-5.55 0-11.17 1.5-16.21 4.6-14.29 9-18.61 27.8-9.64 42.1 200.61 319.8 492.77 1014.1 568.79 1430.1 3.04 16.6 18.89 27.6 35.54 24.5 16.59-3 27.59-18.9 24.56-35.5-78.46-429.4-369.42-1120.5-577.14-1451.5-5.8-9.3-15.74-14.3-25.9-14.3M6890.62 27526.3c-11.07 0-21.75 6-27.17 16.5-217.82 421.9-447.68 954.2-602.16 1326.5-78.27 188.6-127.92 314.1-128.41 315.4-6.2 15.7 1.49 33.4 17.18 39.6s33.44-1.5 39.64-17.2c.49-1.2 49.97-126.3 128.02-314.4 154.03-371.2 383.16-901.9 600.01-1321.9 7.74-15 1.86-33.4-13.13-41.1-4.48-2.4-9.27-3.4-13.98-3.4M8289.99 28850.4h-.87c-16.87.5-30.16 14.6-29.69 31.4 15.24 544.4-2.67 1597.6-14.27 2078.4-.41 16.9 12.93 30.9 29.8 31.3 17.03.2 30.87-12.9 31.27-29.8 11.62-481.4 29.55-1536 14.28-2081.6-.47-16.5-14.05-29.7-30.52-29.7M9779.55 29073c-5.08 0-10.23 1.3-14.98 4-14.69 8.3-19.88 26.9-11.6 41.6 266.73 472.9 467.43 962.6 536.73 1310 3.3 16.6 19.4 27.3 35.9 24 16.6-3.3 27.3-19.4 24-35.9-70.5-353.4-273.7-849.9-543.41-1328.1-5.62-10-15.98-15.6-26.64-15.6M6314.38 29113.1c-10.44 0-20.62 5.4-26.32 15-282.02 476.9-493.06 931.5-588.09 1175.8-6.12 15.7 1.67 33.4 17.39 39.5s33.43-1.7 39.54-17.4c94.2-242.1 303.61-693 583.75-1166.8 8.59-14.5 3.77-33.2-10.75-41.8-4.88-2.9-10.23-4.3-15.52-4.3M8809.41 28887.6c-1.68 0-3.37.1-5.08.4-16.64 2.8-27.87 18.6-25.08 35.2 126.75 757.1 216.65 1628.2 249.42 1967.5 1.62 16.8 16.58 29.2 33.34 27.5 16.79-1.6 29.09-16.5 27.47-33.3-32.83-340-122.91-1212.8-249.98-1971.8-2.5-14.9-15.44-25.5-30.09-25.5M9442.08 28987.4c-2.21 0-4.44.2-6.68.7-16.47 3.7-26.84 20-23.16 36.5 133.36 597.5 248.25 1317.8 304.87 1694 2.51 16.7 18.02 28.2 34.76 25.7 16.68-2.5 28.17-18.1 25.65-34.8-56.73-377-171.89-1098.9-305.65-1698.2-3.18-14.3-15.8-23.9-29.79-23.9M7688.69 28862.9c-14.48 0-27.33 10.3-30.02 25-132.71 727.6-238.3 1581.6-289.43 2025.8-1.93 16.8 10.1 31.9 26.86 33.9 16.76 1.8 31.91-10.1 33.84-26.9 51.04-443.5 156.44-1295.9 288.83-2021.8 3.03-16.6-7.97-32.5-24.57-35.5-1.85-.4-3.7-.5-5.51-.5M7074.47 28940.5c-12.72 0-24.59 8-28.92 20.7-230.89 678.7-408.87 1407.2-494.41 1781-3.76 16.5 6.52 32.9 22.97 36.6 16.42 3.8 32.82-6.5 36.58-22.9 85.29-372.8 262.69-1099 492.7-1775 5.43-16-3.11-33.3-19.08-38.8a30.7 30.7 0 0 0-9.84-1.6" style="fill:#211d1d;fill-opacity:1;fill-rule:nonzero;stroke:none" transform="matrix(.01138 0 0 -.01138 67.303 475.656)"/><path d="M2027.7 24966.6c-162.21 0-296.66 69.4-372.54 129-109.47 86-220.12 405.8-79.09 551.1 0 0 1695.52 1287.8 2279.88 1717.7 566.08 416.4 2219.36 1725.2 2219.36 1725.2 87.17 64.1 209.78 45.3 273.85-41.8 64.06-87.2 45.33-209.8-41.83-273.9l-1290.59-887.2-3119.64-2305.3c-114.61-85-58-342.8 87.07-342.8 228.53 0 466.65 163.5 636.62 288.4 0 0 1915.1 1415.4 2551.93 1888.1 466.04 346 1821.22 1439.8 1821.22 1439.8 87.15 64.1 209.77 45.4 273.85-41.8 64.06-87.2 45.34-209.8-41.83-273.8l-4424.87-3252.4c-223.62-164.3-502.27-320.3-773.39-320.3" style="fill:#aae1c1;fill-opacity:1;fill-rule:nonzero;stroke:none" transform="matrix(.01138 0 0 -.01138 67.303 475.656)"/><path d="M1596.46 25623.9c-52.89-56-59.35-137.4-55.39-196.2 8.96-132.8 76-263.3 132.96-308.1 36.58-28.7 170.19-122.5 353.67-122.5 217.33 0 471.46 105.8 755.3 314.5l4424.87 3252.3c73.45 54 89.29 157.7 35.31 231.1-53.87 73.3-157.19 89.2-230.61 35.7-34-27.4-1364.04-1100.4-1821.64-1440.1-629.57-467.3-2532.84-1874-2551.99-1888.1-208.02-152.9-431.26-294.4-654.77-294.4-72.7 0-135.53 53.5-163.98 139.5-27.45 83.1-20.79 199.4 58.71 258.4l3120.54 2305.9 1290.58 887.2c72.67 53.5 88.51 157.1 34.53 230.6-53.88 73.3-157.29 89.2-230.73 35.6-35.11-27.8-1662.98-1315.9-2219.77-1725.5-568.71-418.4-2211.59-1665.8-2277.59-1715.9m431.24-687.9c-197.54 0-339.53 94.8-391.41 135.6-78.41 61.6-147.01 216.2-156.17 352-6.94 102.8 18.66 187.3 74.03 244.4l3.44 3.1c16.96 12.8 1702.4 1292.7 2280.26 1717.9 559.17 411.3 2201.97 1711.5 2218.5 1724.6l.88.6c100.61 74 242.61 52.3 316.54-48.3s52.24-242.6-48.35-316.6l-1290.95-887.5-3119.21-2304.9c-52.64-39.1-58.5-125.2-37.06-190.1 7.57-22.9 37.58-97.6 105.97-97.6 234.28 0 493.8 190.8 618.53 282.4 19.08 14.2 1922.3 1420.8 2551.82 1888.1 460.21 341.6 1806.69 1428.1 1820.24 1439l1.09.9c100.58 73.9 242.59 52.2 316.55-48.4 73.93-100.6 52.24-242.6-48.34-316.5l-4424.88-3252.4c-294.56-216.5-560.85-326.3-791.48-326.3" style="fill:#211d1d;fill-opacity:1;fill-rule:nonzero;stroke:none" transform="matrix(.01138 0 0 -.01138 67.303 475.656)"/><path d="M10946.6 29954s-280.7-1471.4-2776.38-1510.8c-2495.97-39.8-3016.14 1582.1-3016.14 1582.1l364.07-8.4c-17.72-51-26.88-103.2-26.88-156.4 0-165.5 81.56-300.8 235.52-441.1 529.67-310.6 1379.79-538.5 2355.45-538.5 939.95 0 1785.44 170.9 2319.66 461.3 45.8 24.9 87.2 57.4 120.2 97.7 105 128.4 137.4 279.5 137.4 420.6 0 32.7-3.1 65.1-9.5 96.9z" style="fill:#9adbb6;fill-opacity:1;fill-rule:nonzero;stroke:none" transform="matrix(.01138 0 0 -.01138 67.303 475.656)"/><path d="M5198.67 29993.8c45.65-112.1 199.05-436.6 550.77-754.3 399.16-360.6 1142.96-786.1 2420.3-765.8 1276.29 20.2 1955.26 423.6 2300.06 758.5 304.4 295.6 409.2 591.3 437.7 691.7l-221.5 2.5c2.7-21.6 4-43.6 4-65.9 0-174.8-48.5-322.9-144.3-439.9-34.1-41.7-77.6-77.1-129.2-105.2-543.62-295.5-1394.42-465-2334.26-465-905.16 0-1791.47 202.8-2370.91 542.7l-2.75 1.6-2.36 2.2c-169.78 154.6-245.49 297.6-245.49 463.6 0 42.4 5.54 84.9 16.5 126.8zm2882.63-1581.9c-537.5 0-1023.49 78.3-1445.85 233-357.39 131-670.22 316.6-929.8 551.8-443.01 401.4-575.24 802.4-580.65 819.3l-13.11 40.9 448.87-10.4-13.75-39.6c-16.72-48.1-25.19-97.3-25.19-146.4 0-146.6 68.87-275.1 223.18-416.3 570.53-333.7 1443.9-532.8 2337.24-532.8 929.97 0 1770.13 166.8 2305.06 457.7 44.7 24.3 82 54.6 111.1 90.1 86.6 105.9 130.5 240.9 130.5 401.3 0 31.1-3 61.7-8.8 90.8l-7.5 37 370.9-4.2-6.9-35.8c-2.9-15.4-76.4-381.6-461-756.8-224.9-219.4-510.1-395.7-847.85-524.2-420.56-159.9-924.24-245.6-1497.05-254.7-29.94-.5-59.76-.7-89.4-.7" style="fill:#211d1d;fill-opacity:1;fill-rule:nonzero;stroke:none" transform="matrix(.01138 0 0 -.01138 67.303 475.656)"/><path d="M8009.42 31383.9c-1611.91 0-2874.49-584.5-2874.49-1265.7 0-268.6 234.06-513.7 580.12-716.1 278.74-163.5 649.51-294.4 1080.29-381.8-425.36 96.4-790.95 236.4-1068.51 399.2-154.09 140.2-235.63 275.6-235.63 441 0 609 1200.28 1100.3 2641.55 1100.3 23.14 0 46.2-.1 69.15-.3 1406.29-15.5 2457.5-500.8 2457.5-1100 0-150.8-31-310.1-154.5-442.3 314.8 197.5 463.8 443.4 463.8 700 0 681.2-1347.81 1265.7-2959.28 1265.7" style="fill:#cdedda;fill-opacity:1;fill-rule:nonzero;stroke:none" transform="matrix(.01138 0 0 -.01138 67.303 475.656)"/><path d="M8009.42 31353.4c-768.24 0-1488.9-133.1-2029.24-374.8-257.77-115.2-459.86-248.6-600.68-396.3-142.01-149-214.03-305.1-214.03-464.1 0-244.9 209.06-452.5 426.95-602.3-90.33 111.5-131.77 221.8-131.77 344.6 0 306.7 283.81 593.3 799.16 806.8 504.5 209 1169.65 324.1 1872.94 324.1 23.26 0 46.42-.1 69.48-.4 680.49-7.5 1308.49-126 1768.34-333.8 463.83-209.6 719.33-492.5 719.33-796.7 0-122.7-21.2-228.4-64.4-319.1 205.2 166.4 312.7 363.5 312.7 576.8 0 312.8-312.4 626.3-856.9 860.3-562.8 241.7-1298.61 374.9-2071.88 374.9m-1220.15-2363c-432.74 87.7-809.55 221-1089.68 385.3-389.38 227.8-595.21 484.5-595.21 742.5 0 714.8 1303.19 1296.3 2905.04 1296.3 781.37 0 1525.74-134.9 2095.98-379.9 576.4-247.6 893.8-573.1 893.8-916.4 0-278.7-165.3-529.7-478.1-725.9l-198.7-124.5 160.1 171.3c99.8 106.7 146.3 240.7 146.3 421.4 0 278.8-242.7 541.9-683.38 741.1-452.32 204.3-1071.64 320.9-1743.86 328.3-22.83.3-45.78.4-68.81.4-695.45 0-1352.3-113.5-1849.56-319.5-491.03-203.4-761.45-469.9-761.45-750.3 0-146.7 68.89-275.1 223.3-416.2 282.29-165.1 647.71-301.4 1057.05-394.2z" style="fill:#211d1d;fill-opacity:1;fill-rule:nonzero;stroke:none" transform="matrix(.01138 0 0 -.01138 67.303 475.656)"/><path d="M10642.3 29991.2c-64.1-162-170.7-425.5-267.1-637.9z" style="fill:#fff;fill-opacity:1;fill-rule:nonzero;stroke:none" transform="matrix(.01138 0 0 -.01138 67.303 475.656)"/><path d="M10375.2 29322.8c-4.2 0-8.5.9-12.6 2.7-15.3 7-22.2 25.1-15.2 40.5 93.7 206.4 196.7 460.1 266.6 636.5 6.2 15.7 23.9 23.3 39.6 17.1s23.4-23.9 17.1-39.6c-70.1-177.1-173.5-431.7-267.6-639.3-5.2-11.2-16.3-17.9-27.9-17.9" style="fill:#211d1d;fill-opacity:1;fill-rule:nonzero;stroke:none" transform="matrix(.01138 0 0 -.01138 67.303 475.656)"/><path d="M5690.68 29423.1c-3.63 0-7.33.6-10.92 2-15.75 6-23.63 23.7-17.6 39.4 30.7 80.2 165.68 360.8 613.75 607.8 439.51 242.2 1023.83 370.4 1736.73 381.1 817.19 12.4 1390.24-151.5 1727.27-291.1 429.89-178 731.99-424.6 828.79-676.6 6.1-15.8-1.8-33.4-17.5-39.5-15.8-6-33.5 1.8-39.5 17.6-90.8 236.4-380.7 470.4-795.17 642.1-331.71 137.4-896.43 298.5-1702.98 286.5-1532.77-23.1-2163.37-607.8-2294.34-949.7-4.65-12.2-16.24-19.6-28.53-19.6" style="fill:#211d1d;fill-opacity:1;fill-rule:nonzero;stroke:none" transform="matrix(.01138 0 0 -.01138 67.303 475.656)"/><path d="M10191.2 29220.7c-8.8 0-17.5 3.7-23.5 11-275.03 331.5-982.9 711-2082.71 711-26.25 0-52.53-.2-79.23-.6-1227.57-20.1-1756.93-453.2-1963.21-709.5-10.58-13.1-29.81-15.2-42.95-4.6-13.14 10.5-15.22 29.8-4.65 42.9 212.99 264.7 757.33 711.8 2009.81 732.3 500.64 8.3 978.67-64.1 1382.56-209 360.89-129.4 654.68-315.4 827.38-523.5 10.7-13 9-32.2-4-43-5.7-4.7-12.6-7-19.5-7" style="fill:#211d1d;fill-opacity:1;fill-rule:nonzero;stroke:none" transform="matrix(.01138 0 0 -.01138 67.303 475.656)"/><path d="M9676.39 29044.1c-6.55 0-13.14 2.1-18.7 6.4-376.87 292.4-967.71 453.8-1620.72 442.4-786.25-13.6-1227.42-244.8-1459.06-436.4-13.01-10.7-32.26-8.9-43.01 4.1s-8.93 32.3 4.07 43c239.17 197.8 693.01 436.5 1496.94 450.4 666.93 11.5 1271.57-154.4 1659.23-455.2 13.33-10.4 15.75-29.6 5.4-42.9-6.02-7.8-15.04-11.8-24.15-11.8" style="fill:#211d1d;fill-opacity:1;fill-rule:nonzero;stroke:none" transform="matrix(.01138 0 0 -.01138 67.303 475.656)"/><path d="M8955.57 28920.4c-3.77 0-7.61.7-11.33 2.2-257.93 103.1-565.37 154.7-888.98 148.9-297.28-5.3-558.25-52.7-775.69-140.9-15.63-6.4-33.45 1.1-39.79 16.8-6.35 15.6 1.18 33.4 16.81 39.8 224.43 91.1 492.78 140 797.58 145.4 331.64 5.8 647.33-47.2 912.75-153.3 15.67-6.3 23.29-24.1 17.03-39.7-4.78-12-16.25-19.2-28.38-19.2" style="fill:#211d1d;fill-opacity:1;fill-rule:nonzero;stroke:none" transform="matrix(.01138 0 0 -.01138 67.303 475.656)"/><path d="M5488.76 30269.9c-19.74 0-39.67 6.3-56.41 19.5-39.73 31.1-46.86 88.5-15.81 128.3 16.26 20.9 409.26 513.4 1362.17 724.2 937.46 207.5 1630.82 108.6 1659.87 104.3 50.03-7.4 84.57-54 77.18-104-7.37-50.1-53.82-84.6-104.02-77.3-6.77 1-691.09 97.8-1593.41-101.9-883.68-195.6-1253.76-653.6-1257.4-658.2-18.11-22.9-45.02-34.9-72.17-34.9" style="fill:#fff;fill-opacity:1;fill-rule:nonzero;stroke:none" transform="matrix(.01138 0 0 -.01138 67.303 475.656)"/></g><g style="display:inline"><path d="M5861.65 25827.1c-918.67 0-1638.89-399.6-1638.89-904.9 0-505.2 664.71-924.4 1583.39-924.4 893.78 0 1642.83 426.5 1699.83 914.6 1.59 13.6 2.75 27.3 3.25 41 16.06 438-728.89 873.7-1647.58 873.7" style="fill:#a5bfbd;fill-opacity:1;fill-rule:nonzero;stroke:none" transform="matrix(.0226 0 0 -.0226 -84.064 648.94)"/><path d="M5861.65 25808.3c-440.8 0-850.94-92.5-1154.88-260.6-300.04-165.9-465.28-388-465.28-625.5 0-241 155.57-466.7 438.08-635.6 291.41-174.1 691.5-270 1126.58-270 424.38 0 834.46 96.5 1154.71 271.9 307.83 168.6 499.73 396.8 526.52 626.1 1.65 14.2 2.67 27.1 3.13 39.4 4.43 121-53.09 247.1-166.36 364.6-286.81 297.5-860.86 489.7-1462.5 489.7m-55.5-1829.2c-441.74 0-848.66 97.8-1145.8 275.4-294.26 175.8-456.31 413-456.31 667.7 0 517.9 728.1 923.6 1657.61 923.6 611.3 0 1195.96-196.7 1489.46-501.2 120.5-125 181.65-260.5 176.83-391.9-.48-13.4-1.58-27.3-3.36-42.4-28.61-245.1-222.43-477.6-545.72-654.6-325.67-178.4-742.14-276.6-1172.71-276.6" style="fill:#100f0d;fill-opacity:1;fill-rule:nonzero;stroke:none" transform="matrix(.0226 0 0 -.0226 -84.064 648.94)"/><path d="M4266.57 27537.9c0-279.5 595.7-303.1 1083.27-217.3 665.72 117.2 998.98 256 967.75 452.7l-221.64 352.8-1070.78-6.3-689.93-343.4z" style="fill:#ebf6f6;fill-opacity:1;fill-rule:nonzero;stroke:none" transform="matrix(.0226 0 0 -.0226 -84.064 648.94)"/><path d="M4290.01 27534.7c.87-47 20.82-86.3 60.94-120 167.4-140.5 620.27-136.9 994.83-71 668.56 117.6 970.62 251.6 949.34 421.4l-212.07 337.5-1052.31-6.2-675.85-336.4zm579.97-281.1c-233.29 0-442.58 35.8-549.14 125.3-51.54 43.2-77.69 96.7-77.69 159v3.3l72.45 251.6 704 350.4 1089.24 6.3 231.13-367.8.75-4.7c32.65-205.8-271.7-353.6-986.84-479.4-155.85-27.4-325.42-44-483.9-44" style="fill:#100f0d;fill-opacity:1;fill-rule:nonzero;stroke:none" transform="matrix(.0226 0 0 -.0226 -84.064 648.94)"/><path d="M5220.06 27941.9c632.91 86.8 973.57 38.4 1098.26-171.4l5.79 1-100.37 311.3c-40.63 126-154.83 169.4-278.91 215.6-194.03 72.2-509.92 50.5-796.05 5.9-267.99-41.7-540.62-89.1-726.65-241.4-128.38-105.1-209.5-233.6-201.23-390.6l12.93-245.7c57.56 238.7 457.69 442.9 986.23 515.3" style="fill:#d3f0eb;fill-opacity:1;fill-rule:nonzero;stroke:none" transform="matrix(.0226 0 0 -.0226 -84.064 648.94)"/><path d="M5609.14 28323.4c-128.83 0-281.42-13.6-456.95-41-234.93-36.6-527.33-82.2-715.99-236.7-135.33-110.8-200.3-236-193.12-372.3l7.86-149.4c53.27 88.3 151.36 170.8 289.16 242.3 179.57 93.2 413.64 161.6 676.94 197.7 564.81 77.3 891.7 47.7 1054.2-100.9l-68.64 212.9c-37.63 116.8-148.33 158-265.52 201.6-82.09 30.5-191.75 45.8-327.94 45.8m-1389.48-1050.3-20.94 398c-7.96 151.1 62.47 288.7 209.34 409 198.02 162.1 497.03 208.7 737.3 246.2 368.67 57.4 640.26 55.1 807.22-7.1 121.94-45.4 248.05-92.3 292.3-229.6l108.14-335.4-45.91-8.4-7.89 13.3c-117.17 197.2-449.04 246.8-1076.15 160.8-524.19-71.8-913.07-272.1-967.66-498.5z" style="fill:#100f0d;fill-opacity:1;fill-rule:nonzero;stroke:none" transform="matrix(.0226 0 0 -.0226 -84.064 648.94)"/><path d="M5655.08 22957.6c-325.5 0-615.28 64.4-824.9 171.4-192.17 98.3-317.11 232.6-340.16 386.4-1.86 12.7-2.98 25.3-3.74 37.7h-.19c-50.05 266.7-92.69 593.6-128.06 956.8 75.12-94.1 176.67-180.3 302.32-255.4 297.14-177.6 704.06-275.4 1145.8-275.4 430.57 0 847.04 98.2 1172.71 276.6 158.72 86.9 286.23 187.2 378.31 295.8 21.63-89.9 41.53-177.2 59.54-261.6 26.05-54.1 39.34-117.8 38.78-192.3v-4.9c-1.13-67.8-12.17-135.6-32.97-202.7-38.95-125.7-111.81-248-216.34-360.7-221.96-239.6-586.65-435.5-1071.39-526.4-69.5-13.1-138.62-23.2-206.61-30.5-93.08-10-184.42-14.8-273.1-14.8m-1355.49 2279.9c-43.81 668.7-67.4 1396.6-71.26 2071.6l27.08 112.3c2.23 9.2 5.03 18.5 8.37 27.6 12.96-25.7 32.01-49.1 57.06-70.1 106.56-89.5 315.85-125.3 549.14-125.3 158.48 0 328.05 16.6 483.9 44 646.05 113.6 956.84 245.3 986.8 421.3 260.22-702.2 526.05-1464.3 740.26-2167.8-316.94 183.9-760.63 294.7-1219.29 294.7-729.86 0-1335.55-250.1-1562.06-608.3" style="fill:#f9fdfc;fill-opacity:1;fill-rule:nonzero;stroke:none" transform="matrix(.0226 0 0 -.0226 -84.064 648.94)"/><path d="M5806.15 24016.6c-435.08 0-835.17 95.9-1126.58 270-143.48 85.8-254.22 186.2-328.46 295.9-17.58 187.9-33.25 385-47.04 587.8 73.55 141.8 210.45 271.1 402.7 377.4 303.94 168.1 714.08 260.6 1154.88 260.6 469.85 0 922.86-117.2 1235.39-310.3 95.43-315.9 180.1-619.4 248.67-899.4-90.71-114.3-221.45-220.6-384.85-310.1-320.25-175.4-730.33-271.9-1154.71-271.9" style="fill:#c8dcd9;fill-opacity:1;fill-rule:nonzero;stroke:none" transform="matrix(.0226 0 0 -.0226 -84.064 648.94)"/><path d="M5806.15 23979.1c-441.74 0-848.66 97.8-1145.8 275.4-125.65 75.1-227.2 161.3-302.32 255.4-2.34 24-4.65 48.2-6.92 72.6 74.24-109.7 184.98-210.1 328.46-295.9 291.41-174.1 691.5-270 1126.58-270 424.38 0 834.46 96.5 1154.71 271.9 163.4 89.5 294.14 195.8 384.85 310.1 3.88-15.8 7.69-31.5 11.46-47.1-92.08-108.6-219.59-208.9-378.31-295.8-325.67-178.4-742.14-276.6-1172.71-276.6m-1502.08 1191.2c-1.52 22.4-3.01 44.7-4.48 67.2 226.51 358.2 832.2 608.3 1562.06 608.3 458.66 0 902.35-110.8 1219.29-294.7 5.4-17.7 10.77-35.4 16.1-53.1-312.53 193.1-765.54 310.3-1235.39 310.3-440.8 0-850.94-92.5-1154.88-260.6-192.25-106.3-329.15-235.6-402.7-377.4" style="fill:#686f70;fill-opacity:1;fill-rule:nonzero;stroke:none" transform="matrix(.0226 0 0 -.0226 -84.064 648.94)"/><path d="M4864.43 27299.7c-220.24 0-415.64 32.9-513.48 115-32.12 27-51.32 57.5-58.14 92.8 119.8 189.8 473.71 349.9 930.26 412.4 196.12 26.9 363.31 40.5 504.14 40.5 294.43 0 473.48-59.5 559.53-182l8.38-13.3c21.28-169.8-280.78-303.8-949.34-421.4-155.64-27.4-324.77-44-481.35-44" style="fill:#ecf8f7;fill-opacity:1;fill-rule:nonzero;stroke:none" transform="matrix(.0226 0 0 -.0226 -84.064 648.94)"/><path d="M4869.98 27253.6c-233.29 0-442.58 35.8-549.14 125.3-25.05 21-44.1 44.4-57.06 70.1 7.19 19.8 16.91 39.3 29.03 58.5 6.82-35.3 26.02-65.8 58.14-92.8 97.84-82.1 293.24-115 513.48-115 156.58 0 325.71 16.6 481.35 44 668.56 117.6 970.62 251.6 949.34 421.4l-8.38 13.3c4.41-6.3 8.56-12.7 12.48-19.3l7.89-13.3 22.09 4.1c3.83-10.4 7.65-20.6 11.48-31-29.96-176-340.75-307.7-986.8-421.3-155.85-27.4-325.42-44-483.9-44" style="fill:#686f70;fill-opacity:1;fill-rule:nonzero;stroke:none" transform="matrix(.0226 0 0 -.0226 -84.064 648.94)"/><path d="m4228.33 27309.1-.15 29.1c-13.5 113.7 52.25 222.5 175.5 316.9 126.43 96.7 313.18 177.9 537.77 233.8 87.65 21.7 180.94 39.7 278.71 53 197.3 27 366.24 41 509.04 41 158.7 0 285.13-17.2 382.54-52.8 42.9-15.6 80.18-34.7 112.02-57.7h.18c45.32-32.4 79.6-72.1 104.14-119.5.37-1 .75-2 1.12-3l-22.09-4.1-7.89 13.3c-3.92 6.6-8.07 13-12.48 19.3-86.05 122.5-265.1 182-559.53 182-140.83 0-308.02-13.6-504.14-40.5-456.55-62.5-810.46-222.6-930.26-412.4-12.12-19.2-21.84-38.7-29.03-58.5-3.34-9.1-6.14-18.4-8.37-27.6z" style="fill:#686f70;fill-opacity:1;fill-rule:nonzero;stroke:none" transform="matrix(.0226 0 0 -.0226 -84.064 648.94)"/><path d="M5599.08 24388.4c-370.68-94.4-684.98-225.8-884.28-391.2-153.4 1232.6-259.61 2452.6-311.12 3657.9 126.44 96.7 313.18 177.9 537.77 233.8 189.17-1190.9 407.76-2358.2 657.63-3500.5M6223.94 27872.4c403.65-1221.5 764.4-2379.6 1051.55-3429.3-75.67 47.1-172.7 77.2-286.39 93.5-243.5 1070.1-540.2 2206.7-877.36 3393.5 42.9-15.6 80.17-34.7 112.01-57.7z" style="fill:#fff;fill-opacity:1;fill-rule:nonzero;stroke:none" transform="matrix(.0226 0 0 -.0226 -84.064 648.94)"/><path d="m4507.72 23580.8 1.9-26.1c.92-14 2.08-25.4 3.65-35.8 16.33-108.9 89.17-212.2 210.64-298.6 309.78-220.3 861.86-296.6 1406.5-194.4 392.48 73.7 724.17 220 959.2 423.3 217.02 187.7 338.65 416.4 342.47 643.9l-.03 3 .01 1.6c.6 69.1-11.66 130.4-36.44 182.1l-1.2 2.5-.58 2.8c-219.82 1029.6-712.39 2448.6-1087.13 3458.3-109.09 209-443.4 263.1-1083.47 175.3-593.06-81.2-1001.79-324.2-971.87-577.8l.16-2.6c7.42-1488.6 106.67-2958.7 253.33-3758zm1147.09-646.3c-382.3 0-731.86 86.8-958.04 247.7-132.08 93.9-211.55 207.9-229.81 329.7-1.65 11.1-2.9 22.8-3.88 36.9-149.41 796.1-250.81 2282.9-258.37 3788-32.1 283.9 383.74 542.2 1012.17 628.3 672.98 92.3 1011.56 32 1132.08-201.5l1.15-2.6c375.01-1010.3 868.18-2430.9 1088.95-3463.5 26.61-56.6 40.01-122.6 39.85-196.3l5.22-15.7-5.45-2.7c-7.21-237.9-134.2-475.1-358.44-669-241.29-208.7-580.58-358.7-981.2-433.9-162.7-30.6-326.28-45.4-484.23-45.4" style="fill:#100f0d;fill-opacity:1;fill-rule:nonzero;stroke:none" transform="matrix(.0226 0 0 -.0226 -84.064 648.94)"/><path d="M6750.58 24529.5c-220.19 0-497.16-32-837.07-95.8-936.34-175.7-1459.79-517.7-1400.24-914.8 16.33-108.9 89.17-212.2 210.64-298.6 309.77-220.3 861.85-296.6 1406.5-194.4 392.48 73.7 724.17 220 959.2 423.3 217.02 187.7 338.65 416.4 342.47 643.9 2.16 128.3-37.67 225.2-121.75 296.1-110.88 93.6-293.93 140.3-559.75 140.3m-1095.77-1595c-382.3 0-731.86 86.8-958.04 247.7-132.08 93.9-211.55 207.9-229.81 329.7-34.25 228.4 94.2 433.1 381.79 608.5 249.58 152.3 614.79 276.5 1056.12 359.3 765.16 143.6 1221.35 126.2 1435.67-54.7 94.18-79.5 140.73-191.4 138.36-332.7-4.05-241-131.42-482-358.66-678.5-241.29-208.7-580.58-358.7-981.2-433.9-162.7-30.6-326.28-45.4-484.23-45.4" style="fill:#100f0d;fill-opacity:1;fill-rule:nonzero;stroke:none" transform="matrix(.0226 0 0 -.0226 -84.064 648.94)"/><path d="M7506.06 24912.3c0-978.5-220.84-2651.3-481.38-4078.8-7.31-106.5-79.42-222.7-198.55-327.8-64.99-57.7-144.22-112-234.5-159.7-208.67-110.6-476.52-186.2-767.78-186.2-49.45 0-97.78 1.7-144.79 5-263.73 18.6-490.93 87.7-659.14 189-196.48 118.2-312.61 280.6-312.61 457.8-243.13 1417.4-484.57 3043.2-484.57 4110.7 0-165.6 75.86-318.8 210.16-448.3 197.05-190.3 519.97-329.2 913.5-381.1 156.97-20.8 325.17-27.7 501.05-18.4 408.33 21.7 778.83 123.1 1065.79 260.8 157.15 75.4 289.2 161.8 388.66 251.7v.2c118.38 106.9 190.49 219.3 204.16 325.1" style="fill:#d0e8e8;fill-opacity:1;fill-rule:nonzero;stroke:none" transform="matrix(.0226 0 0 -.0226 -84.064 648.94)"/><path d="M4244.29 24714.3c22.54-866.1 180.66-2145.8 481.48-3899.5l.27-3.2c0-167.1 107.8-324 303.54-441.7 172.86-104.2 397.9-168.6 650.79-186.4 46.33-3.3 94.6-5 143.48-5 265.43 0 534.98 65.4 759.01 184 88.22 46.7 165.89 99.6 230.84 157.2 117.17 103.4 185.45 215.3 192.3 315.1l.25 2.1c278.94 1528.3 463.67 3055.1 479.92 3951.5-34.5-69.7-90.3-140.5-165.54-209.5l-6.17-5.8c-101.78-92-237.72-180.1-393.11-254.7-310.61-149.1-691.64-242.3-1072.9-262.6-172.75-9.2-342.47-3-504.51 18.5-391.4 51.6-719.57 188.8-924.05 386.3-80.87 77.9-139.91 163.6-175.6 253.7m1579.56-4573.2c-49.77 0-98.94 1.7-146.13 5.1-258.75 18.1-489.56 84.4-667.47 191.6-206.81 124.4-320.99 292-321.67 472.2-326.08 1901.2-484.57 3246.2-484.57 4112.3h37.46c0-155.6 70.69-305.9 204.43-434.8 198.77-191.9 519.44-325.5 902.95-376.1 159.77-21.1 327.19-27.2 497.61-18.2 376.45 20.1 752.42 112 1058.68 258.9 149.54 71.9 280.41 156.2 378.99 244.1l5.21 4.9c116.74 105.4 185.26 213.9 198.15 313.6l37.3-2.4c0-876.4-188.97-2478.2-481.49-4081.1-7.93-109.5-80.61-230-204.77-339.5-67.15-59.6-147.29-114.2-238.14-162.3-229.33-121.5-505.11-188.3-776.54-188.3" style="fill:#100f0d;fill-opacity:1;fill-rule:nonzero;stroke:none" transform="matrix(.0226 0 0 -.0226 -84.064 648.94)"/><path d="M5679.06 20164.8c-263.73 18.6-490.93 87.7-659.14 189-229.26 803-486.06 3138.6-587.02 4120.2 197.05-190.3 519.97-329.2 913.5-381.1zM7301.9 24587c-130.74-1553.3-278.72-2986.6-475.77-4081.3-64.99-57.7-144.22-112-234.5-159.7 188.8 1189.2 280.21 2546 321.61 3989.3 157.15 75.4 289.2 161.8 388.66 251.7" style="fill:#fff;fill-opacity:1;fill-rule:nonzero;stroke:none" transform="matrix(.0226 0 0 -.0226 -84.064 648.94)"/><path d="M4244.31 24714.3c22.55-866.2 180.68-2145.9 481.53-3899.6l.27-3.1c0-355 482.18-633.1 1097.73-633.1 296.02 0 589.36 78.8 825.98 221.8 213.27 128.9 346.42 291.3 356.18 434.5l.25 2.1c278.82 1527.7 463.5 3054.2 479.82 3950.8-73.15-148-241.24-298.5-481.02-426.9-325.75-174.4-736.52-282.7-1156.63-305l-.99 18.7.99-18.7c-594.22-31.5-1126.12 117.8-1422.81 399.2-83.81 79.5-144.78 167.1-181.3 259.3M5823.84 20141c-312.46 0-600.39 69.3-810.75 195-208.6 124.7-323.76 292.9-324.43 474-326.13 1901.1-484.63 3246.1-484.63 4112.2h37.46c0-157.6 72.59-309.7 209.9-440 263.7-250.1 720.25-393 1241.21-393.1 50.73 0 101.99 1.4 153.84 4.1 884.88 46.8 1596.17 472.4 1640.96 821.6l37.31-2.4c0-876.7-188.94-2478.5-481.41-4081.2-22.53-312.9-570.76-690.2-1219.46-690.2" style="fill:#100f0d;fill-opacity:1;fill-rule:nonzero;stroke:none" transform="matrix(.0226 0 0 -.0226 -84.064 648.94)"/></g><g style="display:inline"><path d="M8758.64 42821.8s659.22-130.2 742.37-196.7c83.14-66.6 164.6 281.6 86.21 421l-843.34 60-188.75-137.5z" style="fill:#d0e8e8;fill-opacity:1;fill-rule:nonzero;stroke:none" transform="matrix(.01517 0 0 -.01517 46.03 712.109)"/><path d="M8766.29 42839.4c84.57-16.8 663.6-133.4 746.42-199.7 6.52-5.2 11.83-6.6 21.11 1.3 53.7 45.6 94.42 277.2 41.63 387.1l-826.07 58.9-162.34-118.3zm755.95-241.5c-11.28 0-22.49 4.2-32.94 12.5-65.27 52.3-552.18 157-734.29 193l-4.01.8-227.78 164.4 215.16 156.7 860.22-61.2 4.94-8.8c66.42-118.1 28.49-380-45.47-442.8-11.41-9.7-23.66-14.6-35.83-14.6" style="fill:#100f0d;fill-opacity:1;fill-rule:nonzero;stroke:none" transform="matrix(.01517 0 0 -.01517 46.03 712.109)"/><path d="M7518.39 44692.6s78.29 667.3 40.45 766.9c-37.84 99.5 318.6 70.3 427.19-47.1l-201.5-821.1-188.75-137.5z" style="fill:#d0e8e8;fill-opacity:1;fill-rule:nonzero;stroke:none" transform="matrix(.01517 0 0 -.01517 46.03 712.109)"/><path d="m7537.47 44694.4 68.16-210.2 162.33 118.2 197.38 804.3c-88.46 84-321.36 116.2-381.25 79.1-10.35-6.4-10.71-11.9-7.74-19.7 37.7-99.1-28.89-686-38.88-771.7m48.45-270.9-86.61 267.2.48 4.1c21.63 184.3 71.25 679.9 41.54 758-9.88 26-1.49 49.7 23.03 64.9 82.47 51.1 343.42 6.9 435.42-92.6l6.84-7.4-205.54-837.5z" style="fill:#100f0d;fill-opacity:1;fill-rule:nonzero;stroke:none" transform="matrix(.01517 0 0 -.01517 46.03 712.109)"/><path d="M8311.43 42233.8c692.36 504.3 760.06 1321.7 348.36 1886.9s-1030.59 787.7-1890.38 265.9c-495.78-301-669.83-885.9-658.28-1353.6 6.99-283.4-146.29-548.8-396.82-681.4-5.56-3-11.14-5.9-16.75-8.7-832.91-418.3-1729.24-966.3-2562.15-1384.7 72.66-299.5 718.92-1155.6 900.84-1153.9 195.46 182.2 1567.6 1596 2100.79 2048.1 1.7 1.4 3.38 2.9 5.07 4.3 209.12 176.5 493.18 232.4 755.38 154.1 432.69-129.2 964.3-104.5 1413.94 223" style="fill:#d0e8e8;fill-opacity:1;fill-rule:nonzero;stroke:none" transform="matrix(.01517 0 0 -.01517 46.03 712.109)"/><path d="M3157.41 40948.3c40.26-140 199.44-405 402.29-668.6 204.61-265.8 391-446.5 469.57-456.3 61.46 58 218.76 216.1 416.22 414.6 518.26 521 1301.45 1308.2 1679.44 1628.7l5.1 4.3c212.89 179.7 501.8 238.6 772.82 157.7 493.73-147.3 1003.12-67.1 1397.55 220.2 324.89 236.7 525.7 550.8 580.72 908.4 51.42 334.2-32.56 672.5-236.47 952.4-460.35 632-1105.45 722.2-1865.52 260.9-495.61-300.9-660.36-888-649.28-1337.2 7.15-289.6-152.52-563.8-406.78-698.4-5.67-3-11.38-5.9-17.11-8.8-416.07-209-855.42-454.5-1280.31-692-420.64-235-855.44-478-1268.24-685.9m878.34-1162.8c-132.63 0-420.54 360.7-505.74 471.4-177.16 230.2-373.51 534.9-412.81 696.9l-3.51 14.5 13.31 6.7c416.1 209 855.47 454.5 1280.38 691.9 425.24 237.7 864.96 483.4 1281.77 692.8 5.49 2.7 10.96 5.5 16.39 8.4 241.81 128 393.66 388.8 386.86 664.4-11.34 459.7 158 1061 667.3 1370.1 984.59 597.6 1584.96 182.6 1915.23-270.8 209.78-288 296.15-636.1 243.21-980.2-56.56-367.7-262.54-690.3-595.68-933l-11.03 15.2 11.03-15.2c-403.97-294.2-925.3-376.5-1430.33-225.8-258.86 77.3-534.73 21.1-737.94-150.4l-5.04-4.3c-376.77-319.4-1159.29-1106-1677.1-1626.5-212.28-213.4-365.65-367.5-423.04-421l-5.32-5h-7.27z" style="fill:#100f0d;fill-opacity:1;fill-rule:nonzero;stroke:none" transform="matrix(.01517 0 0 -.01517 46.03 712.109)"/><path d="m6468.13 42757.5 267.09-366.7s172.42 147.4 45.53 313.8c-133.6 175.3-312.62 52.9-312.62 52.9" style="fill:#fff;fill-opacity:1;fill-rule:nonzero;stroke:none" transform="matrix(.01517 0 0 -.01517 46.03 712.109)"/><path d="m6495.43 42751.9 242.26-332.6c36.76 38.6 122.43 150.3 28.16 274-99.62 130.6-225.4 82.3-270.42 58.6m236.57-388.5-290.37 398.7 15.93 10.9c1.93 1.3 195.35 130.2 338.08-57 136.06-178.5-46.39-337.8-48.25-339.4z" style="fill:#100f0d;fill-opacity:1;fill-rule:nonzero;stroke:none" transform="matrix(.01517 0 0 -.01517 46.03 712.109)"/><path d="M7084.87 42955.3c-31.88 43.7-11.72 109.9 39.72 147.3 162.4 118.3 162.22 118.6 324.61 236.9 162.41 118.3 161.98 118.8 324.38 237.1s163.02 117.5 325.42 235.8c51.44 37.5 115.51 32.7 147.39-11.1 31.88-43.7 16.45-105.7-34.99-143.2-162.4-118.3-158.6-123.5-320.99-241.8-162.41-118.3-164.39-115.6-326.79-233.9s-164.38-115.6-326.78-233.9c-51.44-37.4-120.09-37-151.97 6.8" style="fill:#fff;fill-opacity:1;fill-rule:nonzero;stroke:none" transform="matrix(.01517 0 0 -.01517 46.03 712.109)"/><path d="M8172.33 43819c-20.34 0-42.27-7.2-62.3-21.8-81.24-59.1-122.01-88.5-162.79-117.9-40.74-29.3-81.47-58.7-162.63-117.8-81.18-59.1-121.66-88.8-162.13-118.6-40.51-29.7-81.02-59.4-162.25-118.6-80.99-59-121.53-88.6-161.99-118.2-40.65-29.7-81.21-59.3-162.62-118.6-21.5-15.7-37.58-38-44.1-61.2-6.31-22.5-3.29-43.8 8.49-60 24.73-34 81.17-35.1 125.8-2.6 81.3 59.2 123.15 88.6 163.61 117.1 40.35 28.3 82.07 57.7 163.17 116.8 81.33 59.2 123.18 88.6 163.65 117.1 40.34 28.3 82.06 57.7 163.14 116.7 80.97 59 121.16 90.3 160.03 120.6 39.1 30.4 79.54 61.9 160.96 121.2 21.35 15.6 36.12 36.4 41.58 58.6 5.19 21.1 1.39 41.9-10.7 58.5-13.88 19.1-35.33 28.7-58.92 28.7m-1014.69-916.2c-35.39 0-67.95 14-87.91 41.4-18.68 25.7-23.75 58.4-14.28 92.2 8.88 31.6 29.52 60.5 58.11 81.4 81.39 59.3 121.93 88.9 162.58 118.6 40.47 29.6 81.02 59.2 162.03 118.2 81.18 59.1 121.66 88.8 162.14 118.5 40.51 29.8 81.01 59.5 162.24 118.7 81.24 59.2 122.02 88.5 162.79 117.9 40.74 29.4 81.48 58.7 162.63 117.8 59.54 43.4 135.78 36.7 173.56-15.1 18.7-25.7 24.67-57.5 16.8-89.5-7.56-30.8-27.42-59.2-55.9-80-80.95-58.9-121.14-90.2-160-120.5-39.1-30.4-79.54-61.9-161-121.3-81.32-59.2-123.17-88.6-163.65-117.1-40.34-28.3-82.06-57.7-163.13-116.7-81.35-59.3-123.21-88.7-163.68-117.2-40.34-28.3-82.05-57.7-163.1-116.7-28.14-20.5-60.21-30.6-90.23-30.6" style="fill:#100f0d;fill-opacity:1;fill-rule:nonzero;stroke:none" transform="matrix(.01517 0 0 -.01517 46.03 712.109)"/><path d="M6837.13 43295.4c-37.29 51.2-21.3 123 30.15 160.5 162.39 118.3 162.19 118.6 324.58 236.9 162.4 118.3 161.9 118.9 324.31 237.2 162.4 118.3 163.12 117.3 325.52 235.6 51.44 37.5 119.67 27 156.97-24.2 37.29-51.2 25.97-118.8-25.47-156.3-162.39-118.3-157.96-124.4-320.35-242.7-162.41-118.3-164.72-115.1-327.13-233.4-162.4-118.3-164.7-115.1-327.11-233.4-51.44-37.5-124.17-31.4-161.47 19.8" style="fill:#fff;fill-opacity:1;fill-rule:nonzero;stroke:none" transform="matrix(.01517 0 0 -.01517 46.03 712.109)"/><path d="M7909.05 44169.4c-19.23 0-38.84-6.2-56.34-18.9-81.35-59.3-122.15-88.6-163.01-118-40.71-29.3-81.46-58.6-162.5-117.6-81.17-59.1-121.63-88.9-162.09-118.6-40.5-29.7-80.99-59.5-162.22-118.7-81.19-59.1-121.72-88.8-162.26-118.4-40.56-29.6-81.11-59.3-162.32-118.4-21.08-15.4-36.03-38.6-41.01-63.7-5.05-25.4.27-50.5 14.98-70.7 29.97-41.1 90.66-48.2 135.3-15.6 81.37 59.2 123.31 88.5 163.88 116.9 40.41 28.2 82.19 57.4 163.22 116.5 81.36 59.2 123.3 88.5 163.86 116.9 40.42 28.2 82.22 57.4 163.27 116.5 80.92 58.9 120.93 90.4 159.63 120.9 38.96 30.7 79.25 62.4 160.72 121.8 43.26 31.5 52.44 87.4 21.36 130.1-18.65 25.6-46.14 39-74.47 39m-983.2-936.5c-40.35 0-79.26 17.7-103.86 51.4-20.93 28.8-28.54 64.3-21.43 100.1 6.89 34.7 26.67 65.5 55.69 86.6 81.19 59.2 121.72 88.8 162.27 118.4 40.55 29.7 81.1 59.4 162.31 118.5 81.17 59.1 121.63 88.9 162.09 118.6 40.49 29.8 80.99 59.5 162.22 118.7 81.13 59.1 121.94 88.4 162.68 117.7 40.82 29.4 81.57 58.7 162.84 117.9 59.55 43.3 139.99 30.9 183.14-28.3 42.94-59 29.95-139.2-29.58-182.5-80.91-59-120.91-90.5-159.61-120.9-38.96-30.7-79.25-62.5-160.74-121.8-81.36-59.3-123.3-88.6-163.87-116.9-40.42-28.3-82.21-57.5-163.26-116.5-81.32-59.3-123.26-88.6-163.82-116.9-40.42-28.3-82.21-57.5-163.29-116.5-25.53-18.6-55.02-27.6-83.78-27.6" style="fill:#100f0d;fill-opacity:1;fill-rule:nonzero;stroke:none" transform="matrix(.01517 0 0 -.01517 46.03 712.109)"/><path d="M6627.15 43583.6c-34.46 47.3-16.29 116.2 35.16 153.7 162.39 118.3 162.2 118.5 324.59 236.8 162.41 118.3 161.95 119 324.35 237.3 162.4 118.2 163.07 117.3 325.47 235.6 51.44 37.5 117.49 30 151.96-17.3 34.46-47.3 20.99-112-30.45-149.5-162.4-118.3-158.29-123.9-320.69-242.2s-164.55-115.4-326.94-233.6c-162.41-118.3-164.54-115.4-326.94-233.7-51.44-37.5-122.04-34.4-156.51 12.9" style="fill:#fff;fill-opacity:1;fill-rule:nonzero;stroke:none" transform="matrix(.01517 0 0 -.01517 46.03 712.109)"/><path d="M7707.11 44452.2c-19.84 0-40.62-6.7-59.37-20.3-81.24-59.2-122.03-88.5-162.81-117.9-40.75-29.3-81.49-58.7-162.65-117.8-81.17-59.1-121.65-88.8-162.11-118.6-40.51-29.7-81-59.4-162.24-118.6-81.18-59.1-121.72-88.8-162.27-118.4-40.56-29.7-81.11-59.3-162.32-118.5-21.3-15.5-36.83-38.2-42.61-62.3-5.73-23.9-1.62-47 11.56-65.1 13.13-18.1 33.75-28.9 58.07-30.6 24.55-1.8 50.89 6.2 72.27 21.7 81.36 59.3 123.26 88.7 163.78 117.1 40.37 28.3 82.12 57.6 163.16 116.6 81.35 59.3 123.25 88.6 163.77 117 40.38 28.3 82.13 57.6 163.17 116.6 80.94 59 121.04 90.4 159.83 120.8 39.04 30.5 79.4 62.1 160.86 121.5 21.14 15.4 35.38 36.5 40.12 59.6 4.61 22.5-.28 45.1-13.78 63.7-16.12 22.1-40.48 33.5-66.43 33.5m-999.79-925.8q-4.8 0-9.6.3c-35.53 2.5-65.97 18.8-85.71 45.9s-26.03 61.2-17.71 95.9c7.94 33.1 28.18 62.9 56.98 83.9 81.19 59.2 121.73 88.8 162.27 118.4 40.56 29.7 81.12 59.3 162.32 118.5 81.18 59.1 121.65 88.8 162.12 118.5 40.5 29.8 81 59.5 162.23 118.7 81.24 59.2 122.04 88.5 162.82 117.9 40.75 29.3 81.49 58.7 162.65 117.8 59.54 43.3 137.78 33.9 178.13-21.5 19.78-27.1 26.96-60.2 20.2-93.2-6.62-32.2-26.07-61.5-54.77-82.4-80.93-59-121.03-90.4-159.82-120.7-39.03-30.6-79.4-62.2-160.86-121.5-81.32-59.3-123.21-88.6-163.73-117-40.38-28.3-82.14-57.6-163.21-116.7-81.32-59.2-123.21-88.6-163.71-117-40.39-28.3-82.15-57.6-163.23-116.6-26.09-19-56.78-29.2-87.37-29.2" style="fill:#100f0d;fill-opacity:1;fill-rule:nonzero;stroke:none" transform="matrix(.01517 0 0 -.01517 46.03 712.109)"/><path d="M7537.37 42334c-29.12 40-6.84 103.3 44.61 140.7 162.39 118.3 162.23 118.5 324.62 236.8 162.4 118.3 162.02 118.9 324.42 237.1 162.4 118.3 162.96 117.6 325.37 235.9 51.44 37.4 113.39 35.6 142.51-4.4s11.6-99.1-39.84-136.6c-162.4-118.3-158.93-123-321.33-241.3s-164.21-115.8-326.61-234.1-164.21-115.8-326.61-234.1c-51.44-37.5-118.02-39.9-147.14 0" style="fill:#fff;fill-opacity:1;fill-rule:nonzero;stroke:none" transform="matrix(.01517 0 0 -.01517 46.03 712.109)"/><path d="M8632.88 43192.6c-21.6 0-44.75-8.2-65.46-23.3-81.33-59.2-122.09-88.6-162.89-118-40.68-29.4-81.4-58.7-162.48-117.8-80.97-59-121.46-88.7-161.85-118.3-40.62-29.8-81.13-59.5-162.57-118.8-81.18-59.1-121.74-88.8-162.29-118.4-40.56-29.6-81.13-59.3-162.33-118.4-21.74-15.8-38.42-37.8-45.75-60.1-6.88-21-5.02-40.3 5.25-54.4 10.22-14.1 28.27-21.7 49.86-21.4 23.37.2 49.3 9.5 71.11 25.4 81.3 59.2 123.08 88.7 163.5 117.2 40.31 28.4 82 57.8 163.11 116.9 81.32 59.2 123.12 88.7 163.54 117.2 40.31 28.5 81.99 57.9 163.07 116.9 80.99 59 121.27 90.2 160.23 120.4 39.17 30.3 79.68 61.7 161.1 120.9 21.59 15.8 36.93 36.2 43.18 57.5 5.76 19.7 3.11 38.5-7.46 53-10.59 14.5-27.75 22.9-48.31 23.5zm-1031.55-906.4c-33.74 0-61.79 13-79.1 36.8-17.55 24.1-21.31 55.4-10.56 88.1 9.87 30.2 30.92 58.1 59.28 78.8 81.18 59.1 121.74 88.7 162.29 118.4 40.56 29.6 81.13 59.2 162.33 118.4 81.39 59.2 121.88 88.9 162.48 118.7 40.41 29.7 80.92 59.4 161.94 118.4 81.15 59.1 121.91 88.5 162.63 117.9 40.76 29.4 81.49 58.7 162.74 117.9 28.22 20.6 60.49 31.3 91.22 30.5 32.38-1 59.89-14.9 77.46-39 17.56-24.1 22.22-54.5 13.12-85.5-8.56-29.2-28.83-56.7-57.07-77.2-80.98-59-121.27-90.2-160.23-120.4-39.17-30.3-79.67-61.7-161.1-121-81.31-59.2-123.12-88.7-163.54-117.2-40.31-28.4-81.99-57.8-163.07-116.9-81.34-59.2-123.15-88.7-163.58-117.2-40.3-28.4-81.97-57.8-163.03-116.9-28.38-20.7-61.32-32.2-92.76-32.6z" style="fill:#100f0d;fill-opacity:1;fill-rule:nonzero;stroke:none" transform="matrix(.01517 0 0 -.01517 46.03 712.109)"/><path d="M7323.18 42628.1c-33.51 46-14.61 113.9 36.83 151.3 162.39 118.3 162.21 118.6 324.6 236.9 162.41 118.3 161.96 118.9 324.36 237.2s163.05 117.4 325.45 235.7c51.44 37.5 116.77 31 150.29-15 33.51-46.1 19.32-109.8-32.12-147.2-162.39-118.3-158.41-123.8-320.8-242.1-162.4-118.3-164.49-115.4-326.89-233.7s-164.48-115.5-326.88-233.8c-51.44-37.4-121.33-35.3-154.84 10.7" style="fill:#fff;fill-opacity:1;fill-rule:nonzero;stroke:none" transform="matrix(.01517 0 0 -.01517 46.03 712.109)"/><path d="M7338.32 42639.1c12.61-17.3 32.72-27.6 56.62-28.9 24.37-1.4 50.6 6.7 72.05 22.4 81.34 59.2 123.22 88.6 163.71 117 40.36 28.4 82.11 57.7 163.17 116.7 81.32 59.2 123.19 88.6 163.68 117 40.37 28.4 82.12 57.7 163.21 116.7 80.95 59 121.09 90.4 159.9 120.7 39.06 30.5 79.45 62.1 160.9 121.4 43.27 31.5 55.31 83.5 28.01 121-27.49 37.8-80.85 42.5-124.12 10.9-81.24-59.1-122.02-88.5-162.81-117.9-40.74-29.3-81.48-58.6-162.64-117.8-81.18-59.1-121.65-88.8-162.12-118.5-40.51-29.8-81.01-59.5-162.24-118.7-80.92-58.9-121.47-88.5-161.89-118.1-40.69-29.7-81.25-59.4-162.71-118.7-44.64-32.5-59.32-88.7-32.72-125.2m62.19-66.6c-2.57 0-5.13.1-7.69.3-35.32 2-65.43 17.7-84.78 44.3-38.76 53.2-20.39 132.8 40.94 177.5 81.44 59.3 121.99 88.9 162.67 118.7 40.43 29.5 80.99 59.1 161.93 118.1 81.18 59.2 121.65 88.9 162.13 118.6 40.5 29.7 81 59.5 162.23 118.6 81.24 59.2 122.03 88.6 162.81 117.9 40.74 29.4 81.49 58.7 162.64 117.8 59.54 43.4 137.04 35 176.46-19.1 39.22-53.9 23.3-130-36.23-173.4-80.94-58.9-121.08-90.3-159.89-120.6-39.07-30.6-79.46-62.1-160.91-121.4-81.36-59.3-123.24-88.7-163.75-117.1-40.36-28.3-82.09-57.6-163.14-116.7-81.34-59.2-123.21-88.6-163.71-117-40.36-28.4-82.1-57.7-163.17-116.7-26.54-19.3-57.7-29.8-88.54-29.8" style="fill:#100f0d;fill-opacity:1;fill-rule:nonzero;stroke:none" transform="matrix(.01517 0 0 -.01517 46.03 712.109)"/><path d="M8072.97 42140.9c-13.29 21.8-29.92 45.8-36.16 70.9-.53 2.1-.66 4.5-.76 7.1 5.77-3.6 12.85-7.2 15.74-9.4 53.02-38.9 107.2-79.2 147.59-131.8 21.36-27.8 39.23-64.1 47.83-101.7-74.09 30-133.3 97.7-174.24 164.9m-219.05-80.5c-6.67 24.4-17.82 55.1-13.4 80.8.28 1.7.51 3 .72 4.2 6.97-8.8 15.2-16.1 21.17-26.5 33.54-58.5 49.57-128.2 47.29-196.7-25.55 42.7-42.66 90.2-55.78 138.2m-198.54-42.5c.79-49.1-6.21-98.4-20.33-145.4-2.68 49.1 4.45 98.8 20.33 145.4m-186.69-11.7c2.48 9.7 4.41 21.7 10.54 29.9 1.53 2 2.79 3.2 4.08 4.3-4.47-19.6-11.59-39.1-20.22-58.1 1.75 8 3.59 16 5.6 23.9m949.43 213.1c-41.97 21.3-80.84 48.4-115.29 80.6 14.25-7.3 28.16-15.3 41.54-24 24.95-16.3 50.84-35.1 73.75-56.6m58.98 232.5c-17.39 4.4-34.71 9.5-51.58 15.6-7.55 2.8-15.42 5.6-22.38 9.7-3.89 2.2-10.72 9.7-11.34 7.5 5.48 18.9 76.74-8.2 87.72-11.6 35.81-10.8 74.31-23.2 109.12-41.3-37.59 3.9-74.89 10.6-111.54 20.1m183.66 194.5c-42.3 11-85.6 22.5-126.46 38-6.81 2.6-18.36 7-18.84 10.1-3.93 25.1 97.56 5.3 172.57-24.2 8.28-3.3 108.13-37.6 104.22-49.8-7.5-23.5-92.61 15.8-131.49 25.9m-28.57 231c-15.32 3.6-31.2 7.2-45.71 13.4 34.55 6.7 75.73 2.1 110.35-.2 43.95-2.9 91.38-10.3 132.92-28.5-66.75-6.3-135.6.7-197.56 15.3m119.6 226.5c-35.67-21.9-92.03-13.8-122.55-4.3-3.84 1.2-3.67 6.8.25 7.7 32.19 7.3 84.23 9.4 119.72 7.5 5.77-.3 7.5-7.9 2.58-10.9m-116.46 220c51.77 43.8 113.14 75.6 179.3 92.7 54.58 14.1 134.25 22.8 189.11-6.8-95.6-85-242.14-107.6-368.41-85.9m119.2 258.1c-41.26-10.7-89.95-25.6-132.88-23.5-6.14.4-16.75.5-22.3 4.2-1.93 1.3-3.48 2.7-3.86 2.4-.03 9 29.39 27.3 34.06 30.7 71.03 52.1 150.58 101.3 240.31 109.6 27.33 2.5 56-.2 83.24-7.8-45.92-65-123.5-96.1-198.57-115.6m-30.72 293.7c-38.08-28.3-80.1-49.5-124.55-63.5 40.35 43.9 86.35 82.4 142.01 104.4 13.52 5.4 27.72 9.3 42.21 12-18.46-19.8-38.88-37.6-59.67-52.9m-95.4 238.9c-35.89-39.2-79.49-71.4-127.31-94.9 25.33 25.8 53.3 48.9 83.95 69.2 13.72 9 28.55 18.1 44.12 26.6zm-320.75 65.6c-5.98-5.1 138.21 104.3 132.03 99.5 5.98 5-138.23-104.3-132.03-99.5m-88.03 217.3c-16.59-33.9-33.61-70.5-56.22-100.8-6.07-8.1-20.87-27.4-33.69-21.9-9.14 3.9-2.22 16.1.91 24 14.69 36.9 37.07 73.2 58.36 106.7 18.7 29.4 40.61 59.8 66.66 85-8.01-32.3-21.4-63.2-36.02-93m-335.14-17.5c-3.43 78.2 36.96 155.2 90.67 215.9-.65-5.9-1.26-11.5-1.74-16.7-6.87-73.3-26.92-157.7-88.93-199.2m-224.14 39.1c-11.36 88.4 9.2 186 58.79 261.5 10.21-89.5 15.05-210.4-58.79-261.5m-227.33 221.4c4.68-52.4 5.66-112.1-7.99-163.3-4.2-15.7-12.16-41.8-28.14-49.8-16.08-8.1-29.78 6.3-35.99 20-20.2 44.6 20.54 106.5 40.3 144.5 9.83 18.9 20.23 37.5 31.09 55.8.26-2.4.52-4.8.73-7.2m-246.55-221.5c-51.83 12.4-45.74 88.5-43.94 128.1 1.23 26.9 2.69 57.8 6.7 88.9 25.82-45.3 43.29-97.2 57.18-141.5 6.77-21.6 23.18-85.7-19.94-75.5m75.18 398c44.41 14.5 89.01-6.3 119.12-39.4 8.2-9 15.18-18.7 21.16-28.9-15.05-23.2-29.25-46.9-42.93-70.2-28.53-48.7-63.58-105.3-76.57-163.5-2.29 8.1-4.79 16-7.36 23.6-23.69 69.8-51.49 140.4-100.04 196.5 17.17 37.4 44 67.9 86.62 81.9m-272.34-392.9c11.32-20 18.78-42.4 20.36-65.2-60.02 45-116.91 102-137.83 172.3 1.44-.8 2.91-1.7 4.34-2.6 43.38-26.8 87.52-59.2 113.13-104.5m-170.51-160.1c-2.77-36.3-54.93-10.2-71.44-.9-42.21 23.7-84.28 58.8-117.77 93.6-17.09 17.7-32.33 37.6-43.42 59.5 49.48-14 97.1-40 139.9-64.2 30.69-17.3 96.1-44 92.73-88m-199.96-131.3c27.78-18.3 43.03-60.7-4.96-52.3-45.87 8.1-93.84 37-133.45 60.5-33.26 19.8-65.45 44.3-88.1 76 31.54-5.9 62.63-15.4 92.12-26.2 44.07-16 95.09-32.1 134.39-58m-258.18-183.4c20.26-5.9 40.94-11.5 60.47-19.6 12.9-5.3 39.22-15.3 44.56-30.1 11.33-31.3-73.39-14.7-86.04-11.9-69.74 15.5-155.39 36.4-206.29 90.8 62.86 4.7 128.86-12.2 187.3-29.2m-115.49-120.5c-71.2-.2-142.71-12.4-210.91-32.4-9.56-2.8-19.16-5.9-28.73-9.1-2.73 6.2-4.94 12.7-6.37 19.5-13.24 63.3 38.37 123.7 92.48 150.6 18.42-28.4 43.32-53.8 73.37-73.7 46.61-30.8 98.88-48.6 152.43-62.3-23.89 5.6-48.94 7.4-72.27 7.4m48.96-83c32.04-6.5 70.22-29.8 42.86-64.1-25.14-31.5-68.48-28.1-103.85-20.5-48.41 10.3-97.91 27.7-142.36 49.3-8.07 4-16.21 8.4-24.15 13.3 24.96 7 50.35 12.5 75.84 16.7 48.75 7.9 102.74 15.3 151.66 5.3m-227.15-273c51.88 14.2 105.5 20.5 159.05 19.6-50.74-30.2-104.78-54.7-163.63-60.2-26.71-2.5-55.11 1-81.62 10.1 27.9 12.3 56.75 22.4 86.2 30.5m-1.75-267.9c-44.69-11.1-96.06-19.8-144.64-15.3 46.79 25.4 97.46 44.4 149.22 55.7 80.54 17.7 79.92-19.5-4.58-40.4m2243.13-1374.4c8.39 16.1 14.3 33.2 18.13 50.8 32.26-.5 64.45 4.4 94.61 16.4 60.48 24 112.62 75.8 132.81 138.1 6.74 20.8 9.74 41.2 9.66 60.9 37.74-1.5 75.15 3.9 109.78 19.2 90.28 40 123.67 135.8 95.08 227.1-1.04 3.3-2.15 6.5-3.32 9.7 38.89 5 76.64 13.9 110.98 28.3 88.45 37.1 139.74 135.6 86.21 216 13.11 12.6 24.49 27.8 33.53 46 28.93 58.3 21.36 124.1-8.21 178.9 48.22 20.7 92.26 50.3 127.77 90.4 27.72 31.4 52.08 69.5 36.26 112.5-11.15 30.2-36.11 54.4-62.37 72.1-21.4 14.5-43.76 27.2-66.86 38.4 14.61 11 28.51 23.1 41.54 36.2 58 58.7 96.16 148 56.31 227.4-2.47 4.9-5.18 9.6-8.02 14.1 48.7 70.3 64.71 160.3 22.58 238.5-18.57 34.4-45.52 62.4-77.25 83.7 12.24 42.5 13.1 87.7-2.19 131.1-22.37 63.4-75.19 106.4-136.63 128.3 1.62 4.3 3.19 8.5 4.59 12.8 26.2 80.5 13.89 175.6-70.5 215.2-22.29 10.5-46.12 15.3-70.47 16.1.17 1.3.45 2.6.6 4 9.88 88.3-48.87 159.5-138.02 165.7-19.24 1.4-38.56.6-57.8-1.6 4.89 26.1 5.3 52.8-.49 79.6-20.94 96.6-112.62 144.9-206.04 142.1-16.27-.4-31.99-2.6-47.15-6.2-2.78 10.1-6.21 20.1-10.42 30-34.8 81.6-113.3 143.2-205.5 127.7-23.75-4-46.8-12-68.89-22.8-6.69 24.7-17.71 48-35.08 67.4-57.54 64.2-150.27 60.9-222.62 24.9-9.85-5-19.38-10.4-28.57-16.3-14.26 27.9-34.15 52.5-62.14 70.5-65.46 42.2-140.5 23.3-195.14-27.3-19.25-17.8-36.99-37.4-53.59-58.2-23.23 30.9-54.57 55.8-96.58 71-69.21 25.1-141.64 5.9-194.57-44-18.24-17.2-33.12-36.5-45.28-57.4-42.68 27.6-93.69 43.4-144.33 37.8-66.03-7.2-119.41-49.9-151.75-106.3-12.07-21-20.64-42.4-26.17-63.9-83.2 28.1-173.02 31.7-243.68-31.4-35.87-32-56.13-75.3-59.77-121.6-70.81-5.5-137.66-35.1-178.48-99.5-21.69-34.3-30.04-69.9-28.51-104.7-71.83-10.2-139.01-42.8-185.22-103.6-39.25-51.6-48.93-110.7-36.18-165.8-31.35-14.4-60.37-35-85.7-63-35.03-38.8-57.39-89.6-56.97-142.2.19-23.4 5.46-45.8 14.56-66.6-24.71-12.8-47.94-28.2-68.31-46.9-43.77-40.4-73.01-94.4-69.08-155.3 2.45-38 18.23-73 41.16-102.7-12.92-9.5-25.46-19.5-37.48-30-67.66-59.6-115.43-157.7-47.46-237 3.56-4.1 7.28-8.1 11.12-11.8-13.53-14.3-24.81-30.4-31.34-49-14.34-40.8-.7-85.8 33.82-111.8 71.33-54 182.74-35.1 264.17-20.8 109.53 19.4 213.07 57.6 309.73 112.4 18.62 10.6 20.25 39.4 8.69 55.3-13.78 18.9-36.61 19.3-55.28 8.7-67.01-38-139.58-66.4-214.17-85.5-37.92-9.7-76.76-16.2-115.65-20.5-36.17-3.9-74.33-8.4-110.39-1.9-19.11 3.5-55.25 13-45.93 39.2 4.1 11.4 13.06 21.8 23.76 31.1 57.83-22.8 126.09-23.5 185.58-15.2 119.02 16.6 232.44 64.9 327.2 138.7 27.63 21.6 16.61 64.2-17.15 71.1-171.78 35.1-356.26-2.2-500.84-101.5-19.67 15.9-31.98 38.7-26.25 65.3 7.03 32.5 33.6 58.9 58.65 79 12.57 10.1 25.6 19.6 39 28.4 90.39-60.3 205.81-51.2 303.78-6.1 57.68 26.5 110.61 61.9 162.7 97.9 29.29 20.2 15.34 64.6-17.15 71.1-146.04 28.9-309.14 6.8-442.61-65.2-8.16 9.9-15.06 20.8-20.28 32.8-32.77 75.4 33.56 133.9 96.31 164.7 7.53-7.3 15.53-14 23.95-20.2 56.55-41.6 126.42-63.8 193.37-82.2 58.59-16.1 124.99-20.6 176.13 18.1 46.87 35.4 69.84 98.2 38.78 151.7-19.04 32.8-50.91 51-86.08 60.5 10.98-2.7 22-5.3 33.03-7.8 56.68-12.9 133.55-21.8 172.25 32.8 41.33 58.3-4.55 119.7-57.15 148-50.97 27.5-115.26 41.3-171.56 53.2-55.67 11.7-113.1 15.3-167.12 5.9-11.82 64.7 37.47 123.3 94.68 150.5 23.12 11 47.19 17.2 71.63 19.8 25.46-57.3 73.66-107.8 126.3-140.6 52.2-32.5 116.01-70.7 177.94-79.6 63.4-9.2 126.51 30.9 119.95 100.7-6.89 73.1-74.16 105.6-134.1 131-60.13 25.4-121.7 49.6-186.13 61.6-14.31 2.7-28.81 4.6-43.35 5.7-.69 17.8 2.55 35.6 11.17 52.1 18.41 35.2 55.4 56.7 92.63 67 10.82 3 21.67 4.9 32.51 5.9 15.63-53.4 48.95-98.9 89.45-137.9 44.87-43.3 101.22-91.6 161.33-111.8 54.75-18.3 118.55-7.9 142.21 51.5 26.16 65.7-20.72 128.3-73.55 162.2-55.9 35.9-116.84 70.3-179.65 92.4-22.06 7.8-45.45 13.6-69.31 17.2 8.03 80.3 99.36 107.8 173.81 90.5 14.7-3.4 29.16-8.2 43.39-13.9 6.35-91 60.05-178.2 130.45-242.3 30.11-27.4 63.2-51.2 97.38-73.3 20.53-13.2 50.6-10.6 60.9 15.1 23.55 58.9 16.97 123.6-12.25 179.3-33.94 64.6-92.05 109.4-153.59 146.2-13.24 7.9-27.17 15.7-41.61 23 13.97 70.2 67.84 135.4 145.76 121.9 27.46-4.8 51.03-16 71.49-31.6-6.27-22-10.62-44.8-13.47-67.7-4.69-37.7-6.31-76-7.44-114-1.14-38.2-.04-78.1 16.05-113.5 27.51-60.6 106.72-105.7 168.98-64.8 23.47 15.4 36.07 36.1 41.63 59.2 22.34-46.5 71.54-79.4 125.29-63.1 69.35 21 91.67 104.9 95.72 168.9 4.38 69.1 3 149.5-19.3 219.1 2.98 4.1 5.94 8.2 8.97 12.3 28.34 38.1 71.48 103.9 126.92 98.4 37.32-3.8 59.21-34 72.01-68-34.39-36.3-61.71-79.6-81.69-125.2-42.48-97-49.93-204.5-23.61-306.7 5.76-22.3 32.17-27.8 50.99-23.1 71.63 18 122.79 81.7 143.37 150.3 22.48 74.8 14.64 155.4 6.6 232-1.64 15.6-3.89 31.5-7.04 47.3 39.16 29.5 101.52 58.1 147.92 31.9 26.76-15.1 38.59-43.6 42.94-76-41.85-34.6-77.81-77.5-105.03-119-55.88-85.1-83.58-183-57.2-283.3 5.83-22.2 32.12-28.1 50.99-23.1 106.52 27.9 161.62 134.8 178.12 235.9 7.88 48.3 11.38 98.6 11.68 147.8 49.09 33.2 110.01 50.4 157.92 4.3 23.76-22.9 37.61-51.7 43.82-82.4-50.1-30.2-91.87-75.8-124.57-124.9-28.18-42.3-57.55-88.9-76.68-136.2-18.59-45.9-15.29-104.2 36-127.1 106.44-47.6 169.09 100.6 203.55 173.9 24.4 51.9 42.71 108.8 44.7 165.9 5.16 1.4 10.42 2.6 15.8 3.6 57.19 10 129.93-5.8 149.13-68.1 9.52-30.9 4.66-62.5-7.5-92.5-39.19-13.7-76.83-32.1-111.27-52.3-92.92-54.5-167.78-134.9-218.99-229.3-17.02-31.4 20.27-63.4 50.21-52.9 106.83 37.3 203.12 101.8 277.55 187.1 21.01 24.1 41.18 51.5 57.4 80.9 4.85 1.3 9.71 2.6 14.58 3.7 34.59 7.9 79.86 14.4 111.34-6.5 29.69-19.7 27.86-58.5 18.79-89.1-34.14-9.2-67.06-23.2-95.93-37.7-99.94-50.3-185.03-126.6-242.87-222.6-15.54-25.8-2.52-70.8 34.93-64.1 91.67 16.7 178.45 56 248.96 117.4 42.95 37.4 85.73 84.5 112.45 137.8 8.69.7 17.35.9 25.93.4 68.01-3.7 85.75-62.6 67.63-120.9-2.88-9.3-6.46-18.4-10.52-27.3-18.61 1.2-37.18.7-55.2-1.6-136.26-17.5-237.02-126.9-315.16-230.7-20.86-27.8.82-66.1 34.94-64 91.57 5.5 180.37 37.3 255.54 89.8 45.12 31.5 88.66 72.5 121.15 119.8 24.18-7.1 46.92-18.7 66.3-35.7 35.73-31.3 44.99-75.4 36.98-118.1-32.04 10.2-65.82 15.3-98.98 15-113.21-1-217.94-62.7-306.2-128.2-38.33-28.4-79.28-71.6-56.82-123.4 21.86-50.5 85.2-58.9 133.51-52.3 112.88 15.6 240.33 46.3 324.46 127.8 16.32 15.9 31.01 33.7 43.48 53 12.52-9.8 23.76-21.2 33.06-34.4 34.51-48.9 27.56-109.4-2.02-158-59.05 37-138.43 43.7-206.58 33.8-124.94-18.3-238.96-81.9-322.06-176.6-15.51-17.6-8.94-53.4 15.11-60.9 166.57-51.4 378.1-35.8 513.33 83.3 12.36-46.8-19.94-96.7-53.88-129.6-20.41-19.8-43.99-36.3-69.3-50.1-106.08 30.1-220.84 29.7-327.09-.6-44.26-12.6-85.71-31.4-125.65-54.1-32.72-18.5-12.35-63.9 17.14-71 101.89-24.5 209.02-25 311.19-1.8 44.38 10.1 88.51 23.9 130.02 42.9 24.54-8.7 48.44-19.4 71.28-31.8 7.75-4.2 15.39-8.6 23.01-13 .73-.4 2.39-1.5 3.61-2.2 3.43-2.2 6.84-4.5 10.16-6.8 11.83-8.5 32.81-24.4 32.5-36-.42-15.9-35.38-46.3-48.91-57.4-27.57-22.7-58.59-39.7-91.63-52-5.21 4.7-10.59 9.2-16.17 13.3-90.56 67.7-205.41 72.8-314.05 71.7-42.69-.4-96.57-11.8-109.28-59.5-15.55-58.3 40.04-89.2 86.95-102.8 91.87-26.6 191.21-35.3 285.93-20 13.66 2.2 27.25 4.9 40.72 8.2 29.08-44.4 33.83-108.8-6.36-145.6-32.04 21.2-68.72 36.3-103.62 50.5-51.19 20.7-104.13 37.3-157.81 50.3-46.53 11.2-101.96 27.4-150.12 20.1-46.64-7-90.74-47.3-69.09-98.1 21.06-49.5 89.16-64.4 134.97-79.5 54.76-18.1 110.92-33.8 167.72-44 54.45-9.8 115.58-11.2 167.81 6.5 12.83-17.2 16.73-37.1 4-59.9-31.7-56.9-118.81-63.7-180.37-67.2-42.12 47.1-101.18 79.2-161.35 100.8-45.23 16.1-97.23 37.1-145.64 38.3-48.45 1.2-100.74-32.4-98.59-85.8 2.28-56.6 58.51-81.7 105.19-96.2 49.5-15.4 100.04-26.8 151.57-32.6 35.16-4.1 72.8-6.7 110.88-6.7 23.43-43.1 30.81-99.3-5.36-137-32.15-33.5-82.3-39.2-129.59-33.2-42.35 95.5-151.46 169.9-241.07 209-36.32 15.9-74.39 27.6-113.05 36.2-36.3 8-54.52-35.5-38.11-62.4 55.17-90.7 135.69-164 230.18-212.2 30.69-15.6 64.78-29.4 100.14-38.8 7.79-75.2-61.15-142-139.07-148.5-4.76-.3-9.47-.5-14.16-.6-2.43 24.6-7.95 48.8-15.95 71.6-27.99 79.6-89.33 142.3-153.78 194.2-30.56 24.7-64.2 56.2-100.78 71.5-34.96 14.6-78.23 4-95.48-31.8-14.12-29.2-9.04-65.1 2.85-94.3 15.57-38.1 39.17-75.5 62.59-109.3 45.83-66.2 106.32-124.9 181.51-156.1 11.98-5 24.37-9.3 36.99-12.9-7.25-29.7-24.22-56.3-54.59-75.3-69.14-43.1-153.09-22.2-214.51 24.6 20.45 98.1 7.81 204.2-36.66 293-15.72 31.3-33.59 64.4-65.27 82.2-32.71 18.3-74.72 11.7-97.65-19.2-21.96-29.5-21.68-70.9-14.51-105.3 8.75-42 19.84-83.7 34.92-123.9 20.74-55.2 51.53-108 90.92-150.9-.41-1.2-.75-2.5-1.19-3.7-20.05-56.8-56.32-121.3-121-133-49.16-8.9-81.35 23.5-101.58 62.9 68.05 125.6 84.49 275.6 46.26 413.1-8.04 29-51.19 33.8-67.98 10.7-85.62-117.7-112.7-272.1-68.72-411.4q1.095-3.45 2.28-6.9c-6.96-11-14.35-21.7-22.26-32.1-25.07-32.9-62.19-81-102.94-94.9-19.72-6.8-16.67 15-17.67 30.4-2 30.3-2.22 60.9-1.62 91.4.28 14.1.85 28.3 1.67 42.4 21.53 29.3 41.56 59.7 59.88 91.2 19.22 33.1 36.68 67.4 51.39 102.7 13.07 31.4 22.14 67.7 7.36 100.1-15.22 33.4-52.75 48-87.2 38.8-36.38-9.7-59-40.1-70-74.8-22.8-71.8-32.46-150.3-38.12-225.2-.11-1.5-.18-2.9-.28-4.4-49.68-63.7-107.74-120.4-172.49-169-4.06 39.1-4.12 78.6.02 117.6 66.72 74.4 122.85 158.1 165.89 248.6 13.13 27.6 25.99 60 13.04 90.3-13.97 32.6-51.49 44.1-82.63 30-27-12.2-45.59-39.9-62.17-63.3a646 646 0 0 1-51.42-86.2c-28.7-58.1-48.07-120.8-57.77-185-10.99-11.6-22.22-23-33.75-34.1-19.97-19.2-40.96-37.3-62.56-54.6-16.77-13.5-34.77-23-52.01-34.7-9.57-6.5 1.68 26.1 4.73 37.7 6.96 26.3 15.23 52.3 24.19 78 24.15 69.3 54.33 136.1 90.13 199.9 12.43-10.2 30.28-14.1 47.59-3.6 65.86 39.7 80.23 125.7 43.55 189.7-12.78 22.3-48.77 20.2-62.94 1.3-87.56-116.5-156.55-247.1-201.01-386.1-17.68-55.2-57.6-153.1 14.05-188.3 60.35-29.7 121.09 26.6 163.38 62.9 6.02 5.1 11.94 10.4 17.83 15.7 1.27-36.5 5.68-72.7 13.47-108.3 6.5-29.6 35.64-45.5 62.66-28 63.99 41.4 122.49 90.3 174.69 145.1.12-34.4-.42-71.8 14.79-102.8 34.94-71.2 115.08-47.1 163.75-7 32.33 26.6 60.8 56.7 85.74 89.7 27.2-36 64.23-63.2 111.34-68.8 80.76-9.4 153.01 39.2 194.55 105.5 11.08 17.7 20.64 36.3 28.78 55.6 52.91-35.2 115.68-53.6 186.51-44.8 71.1 8.8 133.67 47.7 167.06 111.9" style="fill:#e4f2f2;fill-opacity:1;fill-rule:nonzero;stroke:none" transform="matrix(.01517 0 0 -.01517 46.03 712.109)"/><path d="M7417.38 44582.3c-2.58-4.9-5.5-10.2-8.58-15.9-18.77-34.3-44.48-81.2-30.84-111.3 3.5-7.8 8.35-11.4 9.6-11.4 4.51 2.1 11.68 9.4 19.37 38.2 7.47 28 10.94 61.2 10.45 100.4m-29.8-176.1c-4.28 0-8.56.7-12.77 2.2-18.09 6.4-27.68 24-30.97 31.2-21.37 47.2 9.54 103.6 32.11 144.8 3.11 5.7 6.05 11.1 8.63 16 9.65 18.6 20.28 37.7 31.6 56.8l28.74 48.4 5.99-56c.28-2.5.55-5 .77-7.6 6.2-69.4 3.4-124.9-8.55-169.7-6.14-23-15.99-50.8-37.82-61.8-5.75-2.9-11.74-4.3-17.73-4.3m-196.76 31c2.2-.6 3.61-.6 4.36-.6 2.47 5.3 2.06 24.5-6.64 52.2-7.89 25.1-16.42 51-26.41 76.1-.33-6.6-.62-12.8-.88-18.8l-.26-5.4c-2.24-46.1-1.95-95.9 29.84-103.5zm4.33-38.1c-3.92 0-8.25.5-13.02 1.6h-.01c-64.66 15.5-60.69 97.6-58.55 141.8l.25 5.4c1.18 25.7 2.64 57.8 6.83 90.4l7.15 55.5 27.7-48.6c25.91-45.5 43.56-96.6 58.78-145.2 9.37-29.8 16.61-69.6-2.05-89.6-5.16-5.6-13.74-11.3-27.08-11.3m510.49 216c-20.04-47.8-30.39-101.3-29.56-153.8 26.7 39.3 31.76 98 29.56 153.8m-59.94-229.1-3.93 30.6c-12.13 94.4 10.94 196.9 61.71 274.2l28.4 43.2 5.86-51.4c11.47-100.5 14.24-223-66.72-279zm301.47 141.4c-20.91-33.6-34.7-67.8-40.71-101 18.73 24.8 32.22 58.3 40.71 101m-79.94-181.6-1.45 33.3c-3.28 74.6 30.59 156 95.36 229.1l39.17 44.2-6.53-58.7c-.65-5.8-1.24-11.2-1.71-16.3-9.95-106.3-41.73-176-97.17-213.1zm-948.44 130.2c14.27-21.4 32.74-42.5 55.59-63.7l-1.37 2.5c-13.46 23.8-33.14 44-54.22 61.2m112.41-156.7-32.76 24.6c-78.31 58.7-125.59 118.2-144.56 181.9l-13.95 46.9 46.09-28.3c40.55-25 90.79-60.3 119.59-111.1 13.17-23.3 21.04-48.6 22.75-73.2zm1103.34-64.4c-3.91 0-7.98.8-12.15 2.5-6.53 2.8-11.52 7.8-14.05 14.1-4.69 11.8.34 23.5 3.67 31.2l1.22 2.9c15.24 38.3 37.97 75.3 59.95 109.8 23.9 37.6 45.98 65.7 69.45 88.4l46.92 45.4-15.72-63.3c-9.13-36.8-24.77-71.1-37.38-96.8l-16.82 8.3 16.82-8.3-4.85-9.9c-15.6-32-31.73-65.1-53.19-93.8-6.12-8.2-22.82-30.5-43.87-30.5M6635.28 44378q3.765-4.35 7.8-8.4c36-37.4 76.29-69.4 113.44-90.3 21.56-12.1 37.8-16.2 43.44-15.3l.17 1.4 18.67-1.5-18.67 1.5c1.95 25.4-40.11 47.5-67.93 62-5.63 3-10.84 5.7-15.33 8.2-26.31 14.9-53.68 29.9-81.59 42.4m163.33-151.4c-19.72 0-42.57 10.1-60.41 20.1-40.26 22.5-83.62 56.9-122.09 96.9-19.84 20.5-35.53 42.1-46.65 64l-19.35 38.1 41.15-11.6c50.55-14.3 98.86-40.4 144.01-65.8 4.19-2.4 9.05-4.9 14.3-7.7 36.53-19.1 91.74-48 87.91-98.1-1.47-19.3-12.44-27.9-18.84-31.4-5.98-3.2-12.8-4.5-20.03-4.5m1507.31-65.6c-3.01 0-6 .9-8.91 3.1-1.45 1.1-2.87 2.5-4.26 4.3l-11.28 14 .33.3-.54.7 14.95 11.5 3.43-4.2-3.2 4.4c1.13.8 12.06 9.1 27.19 20.5 19.37 14.7 45.57 34.5 66.95 50.6 10.71 8.1 20.21 15.3 27.04 20.4 3.41 2.5 6.77 5 10.08 7.1l-.1.2.11-.2.63.4-.16.2.16-.2c7.86 4.8 15.41 7 22.6 1 1.24-1 2.46-2.3 3.66-3.8l11.28-14.1-.27-.2.45-.6-14.85-11.6-5 6.1 4.62-6.4c-1.42-1-15-11.3-32.94-24.9-19.59-14.8-44.34-33.5-64.2-48.5-9.95-7.5-18.69-14.1-24.94-18.8-2.93-2.2-5.97-4.4-9.05-6.4l.09-.1-.09.1-.75-.4h-.03.03l-.05-.1.16-.2-.16.2c-4.29-2.5-8.67-4.4-12.98-4.4m-1852.62 20.6c10.92-8.4 23.12-16.6 36.69-24.7l2.84-1.7c36.93-21.9 82.88-49.2 124.29-56.4 3.52-.7 6.13-.9 8-.9-2.17 5.1-7.71 13.2-16.59 19.1-31.48 20.7-71.4 34.9-110 48.7-6.95 2.4-13.8 4.9-20.49 7.3-8.49 3.1-16.73 6-24.74 8.6m171.63-121.1c-4.28 0-9.02.4-14.3 1.4-48.15 8.4-97.37 37.7-136.93 61.1l-2.83 1.7c-41.76 24.8-72.44 51.4-93.78 81.3l-27.06 37.9 45.77-8.6c29.04-5.5 60.14-14.4 95.06-27.1 6.61-2.4 13.36-4.8 20.22-7.2 38.81-13.8 82.81-29.5 118.08-52.8 22.85-15.1 41.12-44.2 32.12-66.8-2.72-6.8-11.36-20.9-36.35-20.9m1785.45-106.3 77.37 78.6c26.5 26.9 55.77 51 86.99 71.6 15.33 10.1 30.63 19.3 45.47 27.4l98.42 53.7-76.4-83.6c-37.25-40.7-81.95-74-132.87-99.1zm-2182.36 4.6c43.99-26.4 100.4-40.7 155.68-52.9 20.73-4.6 43.59-7 57.23-6.4-4.79 3-12.48 6.9-24.67 11.9l-2.27.9c-15.94 6.6-33.4 11.6-50.29 16.5l-8.28 2.4c-41.68 12.2-85.13 23.4-127.4 27.6m205.87-97c-18.74 0-39.84 3.4-58.29 7.5-80.32 17.8-163.16 39.9-215.92 96.3l-26.74 28.7 39.05 2.8c64.12 4.7 131.08-11.6 193.92-29.9l8.18-2.4c17.87-5.2 36.34-10.5 54.19-17.9l2.18-.9c16.82-6.8 44.96-18.4 52.84-40.1 4.05-11.2 2.28-22.3-4.86-30.5-8.86-10-25.49-13.6-44.55-13.6m2104.2-88.7 47.37 51.6c48.78 53.1 97.49 88.9 148.91 109.2 14.4 5.7 29.8 10.1 45.76 13l55.67 10.1-38.64-41.3c-18.37-19.7-39.3-38.2-62.2-55.2-39.48-29.2-83.24-51.6-130.08-66.3zm-2452.11 159.6c-42.42-26.6-78.26-74.8-68.54-121.9 3.85 1.1 7.71 2.3 11.55 3.4 56.27 16.6 111.59 27 165.08 31.1-13.3 6.7-26.53 14.2-39.4 22.7-26.53 17.6-50.01 39.7-68.69 64.7m-90.67-168.7-6.91 15.6c-3.46 7.9-5.94 15.5-7.57 23.3-14.97 71.5 40.22 140.2 102.48 171.2l14.96 7.4 9.09-14c17.21-26.6 40.72-50.2 67.99-68.2 48.53-32.2 103.91-48.9 146.73-59.9l-8.89-36.3c-19.89 4.6-42.84 6.6-67.98 6.8-65.48-.1-134.68-10.8-205.67-31.6-9.33-2.7-18.71-5.7-28.05-8.8zm125.13-46.7c37.72-16.6 77.61-29.6 116.61-37.9 43.29-9.2 70.39-4.8 85.29 13.9 4.43 5.5 6.07 10 4.86 13.4-2.55 7-17.01 16.7-36.81 20.7-45.39 9.3-96.47 2.4-144.92-5.5-8.39-1.4-16.73-2.9-25.03-4.6m154.13-80.1c-19.3 0-36.27 3.6-45.34 5.6-49.43 10.5-100.14 28.1-146.67 50.8-8.99 4.4-17.64 9.1-25.71 14.1l-36.59 22.4 41.29 11.6c25.16 7.1 51.38 12.9 77.92 17.2 51.87 8.4 106.83 15.7 158.41 5.2 25.23-5.2 55.43-19.6 64.54-44.7 4.09-11.3 5.54-29-10.78-49.5-20.84-26.1-51.07-32.7-77.07-32.7m2615.54 50.2c-6.23 0-12.41-.2-18.52-.8-87.14-8-165.65-58.1-230.96-106-.83-.6-2.29-1.6-4.18-2.9l-.97-.6c31.43.9 66.54 10.3 97.96 18.6 5.57 1.5 11.04 3 16.39 4.4 51.24 13.2 121.35 36.1 169.03 85.4-9.58 1.3-19.21 1.9-28.75 1.9m-313.19-164.7-.16 42.2c-.06 15 13.01 26.5 38.77 43.9 1.33.9 2.37 1.6 2.94 2 69.45 50.9 153.42 104.2 249.67 113.1 29.62 2.7 60.74-.2 90.02-8.4l25.55-7.2-15.32-21.6c-53.3-75.4-144.9-106.3-209.17-122.9-5.26-1.4-10.66-2.8-16.14-4.3-38.47-10.2-82.13-21.8-122.38-19.7h-1.74c-5.57.3-13.08.6-20.25 2.8zm-2444.39-55.3c-20.55-3.1-40.78-7.3-60.61-12.8-4.82-1.3-9.63-2.7-14.42-4.1l3.15.3c23.31 2.1 46.99 7.6 71.88 16.6m-87.23-54.8c-23.56 0-47.63 4-70.58 11.9l-45.4 15.5 43.91 19.3c28.44 12.6 58.32 23.1 88.81 31.5 52.63 14.4 107.89 21.1 164.3 20.3l65.78-1.1-56.49-33.7c-63.33-37.9-117.82-57.8-171.48-62.8-6.22-.6-12.51-.9-18.85-.9m2637.71-76.1c107.02-9.1 210.46 15.6 283.73 67.7-56.26 15.1-125.04 0-147.42-5.8-48.54-12.6-94.95-33.7-136.31-61.9m43.05-39.2c-30.98 0-62.47 2.6-93.91 8l-39.57 6.8 30.64 26c53.71 45.4 118.27 78.8 186.72 96.5 37.98 9.9 133.76 28.7 202.69-8.5l23.56-12.7-20.01-17.7c-71.36-63.4-177.31-98.4-290.12-98.4m-2665.32-74.4 4.49-18.1zc6.42 1.6 12.14 3.3 17.2 4.9-1.33-.3-2.7-.5-4.1-.9-12.38-2.7-24.66-5.8-36.82-9.4 7.71 1.6 15.61 3.4 23.72 5.4m-112.95-53.3c-9.99 0-19.63.4-28.96 1.3l-61.27 5.7 54.09 29.4c48.6 26.4 100.46 45.7 154.14 57.5 60.95 13.4 78.08-2.3 81.71-17.9 5.59-23.9-22.76-45.4-77.77-59-46-11.4-86.2-17-121.94-17m2794.2-49.8-.07-.1.06.1zm-49.91-48.7c-24.54 0-49.01 4.5-68.43 10.6-9.77 3-16.31 12.3-15.92 22.5.4 10.2 7.63 18.9 17.58 21.2 34.33 7.9 88.83 10 124.93 8 10.77-.6 19.77-8 22.4-18.4 2.66-10.6-1.78-21.5-11.05-27.2-19.76-12.1-44.67-16.7-69.51-16.7m87.43-230.1c-49.14 0-100.68 6.1-151.62 18.1h.01l-2.39.5c-15.32 3.7-31.16 7.4-46.42 13.9l-55.93 24.1 59.77 11.5c31.92 6.2 67.91 3.5 99.67 1.2 5.27-.4 10.44-.8 15.47-1.1 56.16-3.8 101.7-13.6 139.21-30l66.09-29.1-71.86-6.7c-16.93-1.6-34.31-2.4-52-2.4m-2.62-246.7c-19.64 0-46.74 8.8-83.66 21.7-14.17 5-27.56 9.7-37.2 12.2-40.07 10.4-85.48 22.3-128.38 38.6-14.68 5.6-28.54 10.8-30.7 24.7-1.49 9.5 1.98 18.5 9.52 24.5 31.32 25.1 149.5-13.1 188.42-28.4.94-.4 3.14-1.2 6.27-2.3 95.82-34.7 116.18-47.9 108.93-70.6-2.3-7.2-7.38-13.1-14.32-16.5-5.35-2.7-11.6-3.9-18.88-3.9m-91.99-191.3-98.19 10.1c-38.18 3.9-76.63 10.8-114.27 20.5-20.59 5.3-37.54 10.4-53.35 16.2-8.4 3.1-17.19 6.3-25.4 11.1-2.92 1.7-5.59 4-7.95 6l-2.35 1.9c2.14-1.5 7.99-3.8 14.81-1.5l-5.92 17.2-18.47 5.4.03.1 2.8 9.6 3.62 1.2c1.98 2 4.3 3.7 6.91 5.1 17.7 9.2 48.26 1.9 91.86-13 2.65-.9 4.7-1.6 5.93-1.9 35.12-10.7 75.67-23.7 112.29-42.6zm-158.99-259.3-116.26 58.9c-43.69 22.2-83.93 50.3-119.61 83.7l-98.21 91.8 119.57-61.5c15.27-7.8 29.8-16.3 43.21-25 30.77-20.1 55.74-39.3 76.34-58.6zm-446.03 21.6c.95-1.5 1.91-3.1 2.86-4.6 2.12-3.4 4.21-6.8 6.22-10.1 27.38-44.9 69.82-101.2 126.2-137-8.18 19-18.66 37.2-30.63 52.7-29.34 38.2-67.2 70.3-104.65 99m193.61-220.1-33.3 13.4c-85.62 34.7-146.89 113-183.21 172.5-1.95 3.2-3.98 6.5-6.04 9.8-12.32 19.7-26.29 42.2-32.31 66.4-.96 3.8-1.17 7.6-1.29 10.9l-1.3 35 29.84-18.4c2.31-1.4 4.86-2.9 7.22-4.2 3.89-2.2 7.24-4.1 9.76-6 50.83-37.3 108.41-79.5 151.37-135.4 24.14-31.5 42.34-70.2 51.24-109zm-347.19-87.3-32.68 54.7c-23.53 39.3-41.89 84.7-57.77 142.8-1.03 3.8-2.16 7.7-3.34 11.7-6.98 24.1-14.9 51.4-10.45 77.3l8.02 44.9 25.79-32.2c2.11-2.7 4.34-5.2 6.59-7.7 5.27-5.9 11.24-12.6 16.2-21.2 34.52-60.2 52.19-133.6 49.76-206.6zm-519.46-45 37.95 173.4c1.8 8.2 3.68 16.4 5.75 24.5l1.18 4.9c2.27 9.7 5.1 21.6 12.48 31.6 2.76 3.7 5.19 5.9 7.21 7.5l42.34 34.8-12.18-53.4c-4.46-19.5-11.46-39.7-21.43-61.7zm215.36-48.3-5.85 106.9c-2.77 50.7 4.59 103.4 21.3 152.4l34.74 102 1.72-107.7c.81-50.9-6.29-101.7-21.12-151.1zm-424.97 2973c40.22-49.9 65.42-108.3 85.08-163 15.16 36.2 35.37 70.5 53.92 102l6.61 11.2c9.93 17 22.76 38.6 36.89 60.9-3.97 5.8-8.26 11.2-12.81 16.2-29.33 32.2-66.47 45-99.43 34.2-30.39-10-53.46-30.2-70.26-61.5m611.59 9.5c2.02-11.7 3.69-23.9 5.07-37.1 5.94-56.7 12.49-119.1 4.83-180.8 10.53 24.7 23.77 49.2 39.67 73.4 20.57 31.3 54.32 76.2 100.5 116.2-5.1 25.8-15.59 43-31.95 52.2-33.58 19-82.55.2-118.12-23.9m-920.21-113.6c9.84-5.2 19.75-10.9 29.6-16.8 40.5-24.2 88.24-56.4 126.07-102 .02 6.1.14 12.2.32 18.2 1.05 34.9 2.58 75.5 7.58 115.7 2.5 20.1 6.06 39.4 10.6 57.6-16.54 10.7-34.06 17.6-53.24 20.9-60.44 10.5-104.95-37.3-120.93-93.6m-298.01-119.2c18.2-3.7 36.11-8.6 53.43-14.7 55.37-19.5 113.7-49.4 183.56-94.3l2.66-1.7c-34.42 50.6-56.05 105.3-62.12 158.8-10.62 3.8-20.52 6.8-30.04 9-42.77 9.9-89.22 2.9-118.31-18-14.4-10.3-24.17-23.4-29.18-39.1m-209.43-196.9c9.16-1.1 18.3-2.5 27.34-4.1 68.31-12.8 133.88-39.2 189.98-62.9l2.33-1c-9.27 8.4-18.07 16.7-26.34 24.7-43.58 42-72.95 85-89.41 130.8-4.96-.9-9.82-2-14.56-3.3-22.21-6.2-62.28-21.8-81.02-57.7-4.27-8.1-7.05-17-8.32-26.5m1979.1 210.6c-3.93-49.3-19.25-102.7-45.64-158.8l-5.09-10.9c-16.29-34.9-38.84-83.3-69.22-121.5 40.64 44.8 87.36 83 138.75 113.1 35.98 21.1 71.7 38.2 106.31 50.9 9.33 26.4 10.68 50.7 4.03 72.3-15.58 50.5-77.28 64-128 55.1zm528.22-626.1c-30.84-41.8-71.26-80.7-117.65-113.1-4.76-3.3-9.57-6.6-14.42-9.7 40.72 14.8 84.13 24.4 128.98 24.8 27.79.3 55.83-3 83-9.7.75 24-5.06 55.4-33.16 80-13.44 11.8-29.12 21-46.75 27.7m-2912.3-233.1c-39.76-21.7-104.73-68.9-76.13-134.6 2.43-5.6 5.33-11 8.68-16.2 71.32 36.1 150.41 59 231.32 68-50.47 15.9-102.91 36.9-148 70.1-5.39 3.9-10.69 8.2-15.87 12.7m2929.18-142.4c52.87 0 102.24-10.6 142.27-31 20.19 42.8 18.31 87.2-5.89 121.5-4.23 6-9.06 11.7-14.44 17.2-10.21-13.7-21.51-26.5-33.75-38.4-29.95-29-64.88-51.7-101.8-69.5 4.56.1 9.1.2 13.61.2m-3008.56-152.5c-9.61-6.7-18.87-13.7-27.62-20.7-19.39-15.6-45.87-39.6-52.08-68.4-3.36-15.6 2.31-28 10.06-37.3 61.28 40 128.6 69.4 198.74 87.6-46.67 2.6-90.48 15.6-129.1 38.8m2103.2-1523.5c50.19-34.4 122.1-55.4 183.93-16.8 18.94 11.8 32.62 27.7 40.85 47.2-6.96 2.4-13.82 5-20.53 7.8-71.76 29.8-135.59 84.5-189.72 162.7-15.2 22-33.23 49.2-48.63 78.8 38.86-84.9 51.13-185.4 34.1-279.7m-910.02 114.9c-31.42-57.9-58.24-118.6-79.86-180.7-9.12-26.1-16.5-49.7-22.5-71.9 5.56 3.7 10.96 7.5 16.18 11.7 22.64 18.1 42.68 35.6 61.3 53.5 9.53 9.2 19.31 19 29.11 29.3 9.32 58.2 26.14 114.1 50.06 166.6-1.46-.9-2.94-1.9-4.45-2.8-15.73-9.5-33.57-11.3-49.84-5.7m598.6-220.8c30.74-52.9 65.25-46.7 76.97-44.6 53.96 9.8 86.2 65.9 104.22 114-36.17 41.7-66.18 92.8-87.14 148.7-14.09 37.4-25.77 78.9-35.72 126.6l-.19.9c16.64-117.9-3.53-240.1-58.14-345.6m-483.66 11.7c-2.28-24.2-2.92-48.7-1.91-73.3 51.26 41.5 97.58 88.4 138.04 139.7 3.79 49.7 9.89 110.7 23.69 171.8-41.92-85.7-95.63-165.8-159.82-238.2m249.8 24.4c-.66-12.5-1.11-24.7-1.34-36.3-.67-34.5-.17-63.1 1.59-89.8.17-2.6.24-5.4.31-8.1.02-.8.04-1.8.07-2.8 33.5 15.8 66.42 59 86.65 85.6 5.59 7.3 11.14 15.2 16.57 23.4-16.55 52.9-23.35 108-20.82 162.7-7.87-15.4-16.33-30.9-25.35-46.4-17.44-30-36.83-59.7-57.68-88.3m-332.38-57.6 1.4-40.1c1.24-35.8 5.63-71.1 13.04-104.9 2-9.1 7.38-16.3 14.37-19.2 6.11-2.5 12.97-1.5 19.81 2.9 62 40.2 119.64 88 171.31 142.3l32.14 33.7.16-50.7c.09-31.8.17-64.6 12.86-90.5 9.27-18.9 22.15-29.9 39.39-33.6 26.83-5.8 64.39 7.1 95.64 32.8 30.32 25 58.15 54.1 82.7 86.6l14.95 19.8 14.95-19.8c27.43-36.3 60.6-57 98.57-61.5 79.57-9.3 143.34 43.9 176.49 96.9 10.28 16.4 19.49 34.2 27.4 52.9l8.8 20.8 18.81-12.5c53.33-35.4 111.83-49.5 173.86-41.8 67.7 8.3 123.38 45.5 152.74 101.9 7.3 14 12.83 29.6 16.44 46.2l3.27 15 15.36-.3c31.32-.6 60.8 4.6 87.39 15.1 57.27 22.7 103.98 71.1 121.88 126.5 5.89 18.1 8.84 36.6 8.76 55l-.08 19.6 19.56-.8c37.46-1.5 71.6 4.4 101.45 17.6 76.94 34.1 111.8 118.1 84.79 204.4-.95 3-1.98 6-3.06 9l-7.99 22 23.24 2.9c39.86 5.1 75.56 14.2 106.1 27 44.89 18.8 79.13 54.7 91.61 96 6.79 22.5 9.92 56.8-13.75 92.3l-8.66 13 11.26 10.9c12.02 11.6 22.03 25.3 29.74 40.9 24.15 48.6 21.27 107.5-7.91 161.6l-9.72 18 18.79 8.1c48.67 20.9 89.42 49.8 121.14 85.6 33.24 37.6 43.02 65.6 32.72 93.6-10.42 28.3-35.81 49.9-55.28 63.1-20.27 13.7-41.97 26.1-64.51 37l-27.63 13.4 24.49 18.4c14.2 10.8 27.48 22.3 39.5 34.5 47.78 48.3 90.31 131.2 52.9 205.7-2 4-4.35 8.1-7.18 12.7l-6.52 10.4 7.01 10.2c49.1 70.9 57.13 152.7 21.49 218.9-16.39 30.4-40.35 56.3-71.2 77.1l-11.33 7.6 3.77 13.1c11.87 41.2 11.22 82.6-1.86 119.7-18.79 53.3-63.27 94.8-125.23 116.9l-18.03 6.4 6.79 17.9c1.51 3.9 2.98 7.9 4.29 11.9 21.36 65.7 18.29 155.4-60.65 192.5-18.69 8.7-39.92 13.5-63.09 14.3l-20.6.6 3.17 24.2c4.22 37.7-5.66 73.2-27.83 99.8-22.1 26.5-55.08 42.5-92.88 45.1-17.08 1.2-35.34.7-54.31-1.5l-25.29-3 4.69 25c4.69 25.1 4.56 49.4-.39 72.2-19.76 91.2-108.21 129.6-187.18 127.4-14.52-.4-29.12-2.3-43.39-5.7l-17.56-4.2-4.8 17.4c-2.65 9.6-5.88 18.9-9.6 27.6-29.25 68.6-97.8 131.3-185.17 116.6-20.86-3.5-42.29-10.6-63.71-21.1l-20.41-10.1-5.95 21.9c-6.5 24-16.91 44.2-30.96 59.9-55.03 61.4-142.3 49.5-200.3 20.6-9.06-4.5-18.08-9.7-26.82-15.2l-17.39-11.2-9.4 18.4c-14.06 27.5-32.25 48.2-55.61 63.3-63.01 40.6-130.29 13.5-172.26-25.3-17.54-16.2-34.45-34.6-51.69-56.2l-15.08-18.8-14.52 19.3c-22.47 29.8-52.08 51.6-88 64.6-60.04 21.8-125.6 6.8-175.34-40-16.06-15.1-30.17-33.1-41.94-53.2l-9.89-17-16.48 10.7c-42.09 27.2-88.97 39.6-132.1 34.9-55.54-6.1-105.68-41.5-137.54-97-10.87-18.9-19.03-38.9-24.28-59.3l-5.03-19.5-19.09 6.5c-93.57 31.5-169.33 22.2-225.22-27.6-31.21-27.9-50.23-66.6-53.58-109.2l-1.25-15.9-15.96-1.3c-51.16-4-121.16-23-164.11-90.9-18.45-29.1-27.08-60.7-25.63-93.8l.75-17-16.85-2.4c-50.94-7.2-122.29-29.7-172.92-96.3-33.43-44-45.09-97.3-32.84-150.2l3.44-14.9-13.85-6.4c-30.36-14-57.16-33.7-79.64-58.6-33.5-37-52.51-84.2-52.14-129.5.16-19.9 4.53-39.8 12.98-59.1l7.03-16.1-15.54-8.1c-25.26-13.1-46.28-27.5-64.26-44.1-43.91-40.4-66.31-90.3-63.08-140.3 2.04-31.5 14.94-63.5 37.29-92.5l11.75-15.2-15.5-11.3c-12.94-9.5-25.1-19.3-36.17-29-47.89-42.1-111.39-134-45.61-210.7 2.99-3.5 6.25-7 9.97-10.6l13.21-12.9-12.69-13.4c-13.28-14-22.2-27.8-27.27-42.3-11.61-33.1-.59-69.5 27.45-90.7 65.68-49.7 176.36-30.1 249.61-17.2 105.35 18.6 207.55 55.7 303.75 110.2 3.87 2.2 5.39 6.9 5.94 9.5 1.39 6.4.1 14-3.16 18.5-10.01 13.7-26.18 6.1-30.89 3.4-66.88-37.9-140.48-67.3-218.76-87.4-36.36-9.3-76.16-16.3-118.28-20.9l-3.37-.3c-36.75-4-74.75-8.2-112.37-1.4-30.09 5.4-48.99 15.5-57.77 30.6-4.04 7-7.75 18.5-2.47 33.3 4.75 13.3 14.27 26 29.1 39l8.58 7.4 10.58-4.2c60-23.6 128.89-20.7 176.13-14.1 115.51 16.1 225.58 62.8 318.28 135 9.82 7.7 8.76 17.6 7.85 21.5-2 8.5-8.44 14.7-17.24 16.5-167.98 34.3-345.3-1.6-486.49-98.6l-11.51-7.9-10.86 8.8c-27.53 22.2-39.48 52.7-32.79 83.7 8.72 40.4 41.4 70.5 65.22 89.7 12.65 10.2 26.24 20.1 40.39 29.5l10.39 6.8 10.36-6.9c76.74-51.2 180.82-52.9 285.55-4.7 56.61 26 110.03 61.8 159.88 96.3 8.7 6 8.41 14.5 7.47 19.1-1.58 7.6-7.64 16.2-17.61 18.2-145.33 28.8-302.1 5.7-430.08-63.2l-13.51-7.3-9.79 11.8c-9.54 11.5-17.29 24-23.05 37.3-30.8 70.7 8.54 141.4 105.22 188.9l11.82 5.9 9.47-9.2c7.04-6.8 14.45-13.1 22.03-18.6 55.6-40.9 125.8-62.4 187.23-79.2 68.22-18.7 122.01-13.7 159.87 14.9 37.22 28.2 60.81 81 33.88 127.4-14.43 24.8-39.6 42.3-74.79 51.8l9.42 36.3c10.86-2.7 21.76-5.3 32.66-7.8 79.26-18 127.8-9.9 152.83 25.4 11.31 15.9 14.98 32.8 10.91 50.2-6.15 26.3-29.79 53.3-61.67 70.5-49.5 26.7-114.39 40.4-166.53 51.3-58.1 12.3-111.96 14.2-160.05 5.8l-18.3-3.1-3.34 18.2c-13.95 76.4 44.67 142.1 105.06 170.9 23.82 11.3 49.97 18.5 77.72 21.5l13.55 1.4 5.53-12.5c22.68-51 66.09-99.3 119.08-132.3 55.28-34.5 113.99-68.8 170.72-77 29.76-4.3 58.95 4 78.01 22.1 15.67 14.9 22.79 35.1 20.61 58.3-5.76 61.2-61.35 89.6-122.74 115.5-54.3 23-117.65 48.5-182.27 60.5-13.63 2.6-27.53 4.4-41.33 5.4l-16.66 1.3-.65 16.7c-.87 22.3 3.61 43 13.29 61.5 18.75 35.8 55.77 63 104.23 76.4 11.49 3.1 23.52 5.3 35.76 6.5l15.39 1.4 4.34-14.8c13.23-45.2 40.87-87.7 84.47-129.7 41.25-39.8 96.07-88 154.29-107.5 45.05-15.1 99.29-8.4 118.85 40.7 22.69 57-21.52 110.7-66.27 139.5-67.35 43.2-123.19 72-175.74 90.4-21.2 7.5-43.38 13-65.92 16.4l-17.59 2.7 1.77 17.7c3.42 34.1 20.05 62.8 48.09 82.9 38.05 27.2 94.98 36.4 148.6 24 14.48-3.4 29.55-8.2 46.07-14.8l10.94-4.3.82-11.7c5.52-79.2 50.85-162.9 124.38-229.9 26.1-23.7 56.26-46.4 94.92-71.3 7.01-4.5 15.98-6.1 22.83-3.9 4.98 1.6 8.43 4.9 10.53 10.2 20.45 51.1 16.28 110.7-11.45 163.6-34.66 66-96.56 108.8-146.61 138.8-13.52 8.1-27.16 15.6-40.52 22.5l-12.62 6.4 2.77 13.9c15.86 79.6 78.45 152.1 167.34 136.6 28.79-5 55.59-16.8 79.64-35.1l10.16-7.8-3.5-12.3c-5.7-19.9-10.04-41.7-12.9-64.8-4.8-38.6-6.29-78.2-7.31-112.3-1.07-35.8-.07-73.4 14.38-105.2 14.01-30.8 43.53-56.7 75.21-65.9 16.68-4.8 41.75-7.2 66.46 9 17.69 11.6 28.7 27.3 33.67 48l8.64 35.9-16 56.3c-2.2 7.8-4.61 15.4-7.08 22.7-26.41 77.8-52.93 139.9-96.46 190.2l-7.89 9.1 5.02 11c21.41 46.7 54.32 77.6 97.8 91.8l5.85-17.7-5.85 17.7c46.66 15.4 99.87-1.7 138.82-44.5 8.73-9.6 16.63-20.3 23.47-32l5.84-10-6.28-9.7c-16.26-25.1-31.25-50.3-42.49-69.5l-6.65-11.3c-26.45-44.9-56.44-95.8-67.8-146.7l-11.69-52.5 17.85-37.1c17.07-35.5 56.58-67.3 102.98-53.3 67.02 20.3 79.99 113.2 82.46 152.2 5.5 86.9-.54 156.3-18.45 212.1l-2.89 9.1 7.3 10c2.44 3.4 4.88 6.8 7.37 10.1l6.81 9.3c29.96 40.9 75.23 102.8 137 96.6 27.31-2.7 64.69-18.8 87.68-80l4.12-11-8.06-8.5c-31.59-33.3-57.88-73.6-78.13-119.9-40.57-92.6-48.39-194.4-22.62-294.4 2.86-11.1 19.82-11.7 28.29-9.6 70.76 17.8 113.55 82.7 129.99 137.4 21.84 72.8 13.38 153.5 5.92 224.7-1.74 16.5-3.96 31.5-6.79 45.6l-2.3 11.6 9.4 7c22.85 17.2 102.51 70.5 168.4 33.3 28.88-16.3 46.48-46.5 52.3-89.8l1.38-10.3-8.01-6.6c-46.84-38.7-80.94-83.8-101.31-114.8-58.52-89.2-77.45-182-54.74-268.4 2.71-10.3 18.36-12.3 28.11-9.7 124.42 32.6 157.29 177.3 164.39 220.8 7.28 44.6 11.13 93.4 11.44 144.9l.06 9.9 8.18 5.5c68.58 46.4 134.71 47.2 181.4 2.2 25.18-24.2 41.73-55.2 49.19-92.1l2.62-12.9-11.3-6.8c-42.91-25.9-83.94-67.1-118.66-119.2-27.96-42-56.39-87.2-74.91-132.9-11.61-28.7-19.15-82.7 26.28-103 78.02-34.9 130.63 61.1 173.82 153.8l5.14 11c26.8 56.9 41.25 110.3 42.93 158.5l.48 13.7 13.19 3.7c6.07 1.7 11.84 3 17.62 4 66.39 11.6 148.01-8.8 170.26-81 9.91-32.1 7.2-67.5-8.04-105.1l-3.19-7.9-8.02-2.7c-34.87-12.1-71.19-29.2-107.94-50.8-87.8-51.5-161.11-128.2-212.01-222.1-3.32-6.1-2.5-12.1 2.45-18 6.36-7.4 17.17-11 25.13-8.2 104.47 36.4 197.7 99.3 269.6 181.7 22.23 25.5 40.77 51.6 55.11 77.7l3.86 7 7.74 2.1c5.06 1.3 10.12 2.6 15.2 3.8 35.75 8.2 87.68 16.1 125.88-9.2 31.35-20.8 40.97-60.9 26.4-110l-2.98-10.1-10.09-2.7c-28.86-7.8-59.94-20-92.4-36.3-98.89-49.8-180.24-124.3-235.25-215.6-5.25-8.7-4.96-22.4.65-30.6 3.42-4.9 8.02-6.6 14.9-5.3 91.08 16.5 174.07 55.6 240 113 49.26 42.9 85.6 87.4 108 132.1l4.71 9.4 10.47.8c9.7.9 19.3 1 28.52.5 41.47-2.2 63.53-21.9 74.74-38.1 18.9-27.1 22.46-66.2 9.76-107.1-2.99-9.6-6.72-19.3-11.38-29.5l-5.37-11.8-12.91.9c-17.59 1.2-34.93.7-51.56-1.4-131.92-17-231-128.4-302.58-223.5-7.38-9.8-3.75-19.1-1.85-22.6 4.14-7.7 11.84-11.9 20.68-11.4 87.56 5.3 172.6 35.2 245.95 86.4 46.98 32.8 87.25 72.6 116.44 115.1l7.68 11.2 13-3.8c28.04-8.2 52.73-21.5 73.4-39.6 37.4-32.7 53.09-82.2 43.05-135.7l-3.91-20.8-20.21 6.4c-29.77 9.6-61.89 14.5-93.1 14.2-115.57-1.1-223.83-71.6-295.21-124.5-71.53-53.1-55.92-89.1-50.79-101 17.14-39.5 70-47.1 113.77-41.1 93.74 12.9 228.28 39.7 313.98 122.7a281 281 0 0 1 40.78 49.7l11.15 17.3 16.16-12.7c14.48-11.4 26.86-24.4 36.78-38.4 36.09-51.2 35.6-117.9-1.32-178.5l-9.86-16.2-16.08 10.1c-48.91 30.6-119.62 41.9-193.93 31-119.26-17.4-229.6-77.9-310.69-170.3-3.64-4.2-4.76-12.1-2.74-19.2.8-2.9 3.3-9.6 9.3-11.5 149.33-46.1 360.43-39.5 495.43 79.4l22.74 20.1 7.74-29.3c17.22-65.2-35.49-125.1-58.95-147.9-20.45-19.8-45.14-37.7-73.38-53.1l-6.71-3.6-7.36 2.1c-101.74 28.8-214.25 28.6-316.85-.6-39.57-11.2-79.32-28.4-121.53-52.4-5.8-3.2-7.98-7.5-7.09-13.9 1.43-10.1 10.29-20.4 19.36-22.6 98.65-23.7 203.29-24.3 302.66-1.7 46.51 10.5 89.02 24.6 126.36 41.7l6.92 3.1 7.16-2.5c25.11-8.9 49.98-20.1 73.93-33 7.31-4 14.53-8.1 21.73-12.3l5.68-3.4c4.12-2.6 7.8-5.1 11.38-7.6 21.23-15.3 40.82-32.1 40.3-51.7-.19-7.1-.69-26.1-55.73-71.4-27.97-23-60.61-41.5-97.02-55l-10.62-4-8.43 7.6c-5 4.5-9.99 8.6-14.85 12.2-86.38 64.6-196.87 69-302.67 68-29.65-.3-80.95-6.6-91.35-45.6-12.6-47.3 41-70.4 74.07-80 93.18-27 189.21-33.8 277.74-19.6 12.74 2.1 25.97 4.8 39.31 8l12.81 3.1 7.23-11.1c32.01-48.8 39.61-124.8-9.38-169.6l-10.77-9.9-12.18 8.1c-29.39 19.4-62.83 33.5-100.34 48.7-48.94 19.8-101.15 36.4-155.17 49.4-5.36 1.3-10.84 2.7-16.41 4.1-41.03 10.2-87.56 21.7-126.53 15.8-23.12-3.5-44.11-16.6-53.49-33.4-6.67-11.9-7.06-25-1.15-38.9 15.01-35.3 64.95-50.7 105.08-63.2 6.43-2 12.65-3.9 18.51-5.8 61.57-20.3 115.6-34.5 165.17-43.4 42.13-7.6 103.82-12.7 158.49 5.8l12.87 4.4 8.14-10.9c18.78-25.1 20.63-52.9 5.36-80.3-37.82-67.8-136.64-73.4-195.67-76.7l-9.02-.5-6.01 6.7c-35.43 39.6-87.14 71.8-153.69 95.6l-15.52 5.6c-39.53 14.4-84.34 30.7-124.28 31.6-23.4.8-47.44-8.7-62.74-24.2-8.05-8.2-17.47-22.1-16.66-42 1.42-35.4 29.8-59.8 92.04-79.1 50.51-15.7 100.35-26.5 148.13-31.9 37.78-4.4 74.22-6.6 108.33-6.6h.41l11.14.1 5.32-9.8c25.23-46.4 36.3-112.5-8.29-159-32.05-33.4-82.36-46.8-145.48-38.7l-10.47 1.3-4.28 9.6c-39.93 90-145.73 162.1-231.44 199.5-32.99 14.4-69.87 26.1-109.62 35-7.16 1.6-12.62-.4-16.66-6.1-5.74-8-6.34-20.2-1.39-28.3 52.95-87 129.96-158 222.68-205.2 32.07-16.3 64.51-28.9 96.46-37.4l12.48-3.3 1.33-12.9c3.82-36.9-8.24-74.3-33.97-105.3-29.85-36-75.53-59.9-122.18-63.7-5.19-.5-10.33-.7-15.43-.7l-17.22-.3-1.69 17.2c-2.26 22.7-7.3 45.3-14.99 67.2-22.34 63.5-69.32 122.6-147.87 185.9-5.81 4.6-11.74 9.6-17.77 14.6-25.25 21-51.37 42.7-78.48 54.1-24.73 10.3-58.2 4.7-71.38-22.6-9.97-20.6-8.76-49.5 3.33-79.1 16.04-39.3 40.83-77.2 60.64-105.8 49.27-71.1 109.2-122.8 173.29-149.5 11.29-4.6 23.04-8.7 34.92-12.1l17.37-4.9-4.28-17.5c-9.07-37.2-30.22-66.4-62.87-86.8-81.93-51.1-175.51-20.3-235.77 25.6l-9.41 7.1 2.41 11.6c19.72 94.6 6.93 197-35.06 280.8-15.41 30.7-31.42 59.5-57.67 74.2-25.43 14.2-57.02 8.2-73.48-13.9-20.41-27.5-15.78-68.4-11.2-90.4 9.55-45.8 20.72-85.4 34.12-121.1 20.72-55.2 50.87-105.3 87.19-144.8l7.49-8.2-3.92-11.7c-.29-.9-.58-1.9-.91-2.8-29.8-84.3-76.59-134.5-135.32-145.1-35.2-6.4-84.78 1-121.58 72.7l-4.51 8.8 4.7 8.7c65.37 120.7 81.65 266.2 44.69 399.2-2.27 8.2-10.71 10.5-14.23 11.2-7 1.3-16.05-.3-20.57-6.5-83.24-114.5-107.91-262-66-394.8.69-2.1 1.41-4.3 2.14-6.5l2.9-8.5-4.81-7.6c-7.48-11.8-15.28-23-23.17-33.3-25.88-34-64.99-85.3-111.76-101.4-13.74-4.7-23.08-1.2-28.5 2.6-13.02 9.1-13.41 25.7-13.7 37.8-.06 2.2-.11 4.4-.24 6.5-1.83 27.8-2.36 57.4-1.66 93 .27 13.9.84 28.4 1.7 43.2l.32 5.6 3.29 4.4c21.31 29 41.09 59.1 58.77 89.5 19.75 34 36.66 67.8 50.3 100.5 15.12 36.3 17.54 63.4 7.61 85.1-10.81 23.7-38.29 35.7-65.34 28.5-35.34-9.4-50.86-43.1-56.96-62.3-23.96-75.5-32.52-157.8-37.3-221l-.68-10-3.51-4.5c-50.37-64.6-109.58-122.6-176.02-172.4l-26.45-19.9-3.42 32.9c-4.22 40.6-4.21 81.5.03 121.5l.64 6 4.04 4.5c66.17 73.8 120.98 156 162.91 244.2 11.4 23.9 22.72 51.5 12.74 74.8-5.5 12.9-15.12 18.9-22.22 21.6-11.13 4.4-24.05 3.9-35.48-1.3-20.97-9.5-37.46-32.8-52.02-53.4l-2.58-3.7c-18.74-26.4-35.53-54.6-49.91-83.6-27.64-55.9-46.49-116.3-56.04-179.5l-.88-5.8-4.01-4.2c-11.56-12.3-23.13-24-34.41-34.8-19.43-18.7-40.31-36.9-63.81-55.8-11.5-9.2-23.29-16.5-34.69-23.6-6.2-3.9-12.4-7.7-18.51-11.9-9.47-6.4-18.82-4.3-24.43-.2-13.64 9.9-8.58 27.1-1.56 50.9.83 2.8 1.57 5.3 2.08 7.2 6.47 24.5 14.52 50.5 24.61 79.5 24.36 69.9 55.14 138.1 91.49 202.8l10.89 19.4 17.26-14c4.7-3.8 14.33-9.2 26.09-2.1 53.76 32.4 70.35 106.2 36.98 164.4-3.03 5.3-9.33 6.4-12.81 6.6-7.68.5-15.35-2.5-18.9-7.2-88.29-117.6-154.96-245.6-198.15-380.6-1.47-4.6-3.09-9.4-4.78-14.5-22.07-66.5-37.96-128.1 9.25-151.3 46.49-22.9 96.68 20.4 137.02 55.2l5.91 5.1c5.91 5.1 11.73 10.2 17.51 15.4zm35.57-203c-7.16 0-14.26 1.4-21.01 4.2-18.36 7.5-32.08 24.6-36.71 45.8-5.23 23.8-9.04 48.3-11.41 73.2-43.47-37.3-107-88.9-173.24-56.3-80.45 39.5-47.8 137.9-28.28 196.7 1.65 4.9 3.22 9.7 4.64 14.1 44.48 139 113.08 270.8 203.89 391.7 11.2 14.9 30.86 23.4 51.16 22.1 18.74-1.1 34.41-10.4 43-25.4 17.64-30.8 24.41-65 21.44-97.6 15.93 22.4 35.7 48.7 64.09 61.6 20.55 9.2 44.06 10 64.49 2 19.49-7.5 34.79-22.4 43.08-41.8 4.94-11.5 6.97-23.1 6.93-34.7 16.23 32.2 41.49 54 72.95 62.4 44.8 11.9 90.65-8.7 109.07-49.1 1.17-2.6 2.22-5.2 3.17-7.8 14.42 34.4 32.89 67.4 55.27 98.1 12.37 17.1 34.92 25.4 57.52 21.3 21.5-3.8 38.23-18.4 43.66-37.9 4.79-17.3 8.74-34.7 11.87-52.2-4.5 39.7 2.82 74.4 21.22 99.1 27.66 37.2 80.04 47.7 121.83 24.3 33.17-18.5 52.78-50.8 69.41-83.3-2.08 4.6-4.07 9.1-5.95 13.8-16.08 39.4-16.95 79.3-2.38 109.5 20.46 42.4 73 60.3 119.58 40.8 32.3-13.5 61.88-38.1 87.98-59.8 5.88-4.9 11.65-9.7 17.32-14.3 52.98-42.7 127.18-110.1 159.7-202.6 6.67-19 11.58-38.5 14.65-58.1 35.5 4 69.92 22.4 92.69 49.9 16.29 19.6 25.29 42.4 25.98 65.2-30.12 9-60.48 21.2-90.45 36.5-98.92 50.3-181.12 126.1-237.68 219-12.69 20.9-11.49 49.5 2.92 69.6 12.8 17.9 33.44 25.7 55.25 20.8 42.11-9.3 81.3-21.8 116.49-37.2 43.53-19 187.06-89.1 246.05-208.7 34.15-3 76.65.5 103.59 28.6 27.85 29.1 22.67 71.8 7.27 105.5-32.25.4-66.29 2.6-101.4 6.6-50.1 5.8-102.25 17-155 33.4-49.46 15.4-115.55 43.9-118.35 113.4-1.06 26.4 8.42 50.5 27.41 69.8 22.66 23 56.35 36.1 90.36 35.4 46.05-1.1 93.91-18.5 136.14-33.9l15.34-5.5c68.79-24.6 123.51-58 162.79-99.2 63.95 4 131.76 13.1 156.27 57.1 5.79 10.4 7.02 19.4 3.59 28.5-58.07-15.7-119.54-10.4-162.36-2.7-51.31 9.2-107 23.9-170.26 44.7-5.66 1.8-11.67 3.7-17.88 5.6-47.51 14.8-106.65 33.1-128.46 84.3-10.53 24.8-9.53 49.6 2.92 71.9 15.04 26.9 45.93 46.9 80.61 52.2 46.32 6.9 96.69-5.5 141.13-16.6 5.49-1.3 10.89-2.7 16.17-3.9 55.81-13.5 109.79-30.7 160.45-51.2 33.89-13.7 64.71-26.7 93.2-43.6 20.34 28.2 16.48 68.8.5 100.1-9.64-2.1-19.18-3.9-28.5-5.4-93.92-15.1-195.64-8-294.11 20.5-77.49 22.5-114.81 69.4-99.84 125.7 12.45 46.7 57.62 72.7 127.2 73.4 107.34.9 229.72-4 325.44-75.5 2.86-2.1 5.75-4.4 8.65-6.7 28.38 11.6 53.92 26.7 76.04 44.9 25.49 21 38.22 36.3 41.46 42.6-1.97 2.9-7.69 9.3-24.07 21-3.07 2.2-6.21 4.3-9.38 6.3l-4.6 2.8c-6.89 4-13.79 7.9-20.79 11.7a481 481 0 0 1-61.64 28.1c-37.92-16.7-80.47-30.5-126.6-41-104.96-23.8-215.52-23.2-319.72 1.9-24.04 5.8-44.1 28.4-47.69 53.8-3.04 21.5 6.56 40.9 25.67 51.7 44.85 25.5 87.3 43.8 129.78 55.9 106.67 30.3 223.47 31.2 329.8 2.6 22.52 12.9 42.24 27.5 58.68 43.4 11.15 10.8 40.95 42.4 48.93 77.8-153.95-112.2-362.55-105.5-500.87-62.8-16.59 5.2-29.09 18.7-34.29 37.1-5.53 19.6-1.46 40.3 10.63 54.1 45.21 51.5 98.92 93.8 158.07 125.1-3.99-.5-7.91-1.1-11.77-1.6-57.38-8-127.79 4.5-153.25 63.3-14.86 34.3-16.01 87.5 62.84 146 22.08 16.3 47.51 34.3 75.63 51.5-44.53-15.6-90.98-25.1-138.12-27.9-23.54-1.5-44.88 10.4-55.95 31-10.91 20.3-9.02 44.4 4.91 62.9 76 101 181.94 219.4 327.73 238.1 14.77 1.9 29.99 2.7 45.45 2.3 1.81 4.6 3.39 9.1 4.77 13.5 9.12 29.4 7.35 57.3-4.73 74.6-9.38 13.5-24.86 21-46.03 22.1-4.31.2-8.72.3-13.23.2-24.79-45.8-62.36-90.7-111.82-133.8-71.02-61.9-160.21-104-257.93-121.7-21.44-3.9-40.55 3.8-52.42 21-13.84 20-14.64 50-1.89 71.1 58.66 97.4 145.28 176.8 250.5 229.7 30.84 15.5 60.7 27.6 88.92 36.1 4.26 19.3 5.58 45.6-13.73 58.4-26.17 17.3-67.77 10.5-96.79 3.8-2.12-.4-4.25-1-6.37-1.5-14.99-26-33.7-51.9-55.68-77.1-76.18-87.4-174.9-153.9-285.5-192.5-22.45-7.8-49.63.1-66.01 19.4-14.86 17.5-17.48 40.5-6.84 60.1 20.52 37.8 44.49 73.1 71.44 105.2-35.8-37.1-81.13-57.8-138.04-32.4-62.21 27.8-67.31 97.9-45.71 151.2 19.78 48.9 49.4 96 78.46 139.6 35.18 52.8 75.1 94.2 118.8 123.1-6.8 23.9-18.7 44.1-35.47 60.3-39.7 38.2-89.18 22-126.3-1-.73-49.8-4.71-97-11.82-140.6-21.42-131.3-93.15-225.1-191.85-251-29.55-7.7-65.26 3.7-73.85 36.4-10.86 41.3-13.35 83.7-7.65 126.4-29.93-62.3-81.49-107.9-141.23-122.9-29.67-7.5-65.35 4.2-73.7 36.5-27.88 108.2-19.38 218.5 24.59 318.9 20.21 46.1 46.08 87 76.98 121.6-12.76 28-30.22 43.2-51.99 45.4-40.5 4.1-78.14-47.4-103.06-81.4l-6.97-9.5c-1.13-1.5-2.25-3.1-3.37-4.6 17.19-58.7 22.87-129.7 17.35-216.8-2.96-46.8-19.5-158.5-108.98-185.6-46.58-14.1-94.99 2.6-127.25 41.1-8.68-13.8-20.31-25.5-34.82-35-28.57-18.7-63.17-23.6-97.43-13.7-19.38 5.7-37.82 15.6-53.91 28.7.44-29.2-4.68-58-15.47-85-6.24-15.6-18.29-27-33.92-31.9-17.61-5.7-37.98-2.7-54.52 8-38.97 25.1-69.84 48.2-96.8 72.4 12.51-29.2 15.53-62 1.83-96.4-28.45-71.4-105.78-82.4-165.56-62.3-7.19 2.4-14.31 5.1-21.33 8.2 11.84-17.3 20.11-37.8 22.42-62.4 3.25-34.6-8.14-66.1-32.08-88.9-27.32-26-68.12-38-109.2-32.1-63.91 9.3-126.52 45.7-185.17 82.3-54.81 34.2-100.59 83.2-127.43 136.1-18.66-3.1-36.29-8.5-52.55-16.3-42.78-20.3-84.69-62.8-85.74-112.2 47.42 5.6 99.11 2.5 154-9 54.49-11.5 122.32-25.7 176.58-55 41.68-22.5 71.72-58 80.38-95 6.52-27.8.7-55.7-16.84-80.4-31.8-44.8-84.71-52.5-128.57-50 3.76-4.8 7.19-9.9 10.29-15.2 37.87-65.3 6.7-137.9-43.66-176.1-8.57-6.4-17.69-12-27.34-16.6 20.06-6.7 35.34-23.8 39.81-45.4 4.67-22.5-4.09-44.5-22.85-57.5-51.21-35.4-106.17-72.2-165.52-99.5-13.99-6.5-27.99-12.1-41.94-16.9 54.52 2.4 109.47-1.8 163.52-12.8 23.17-4.8 40.87-21.9 46.21-44.7 5.25-22.4-2.92-45.2-21.3-59.5-97.88-76.3-214.11-125.6-336.12-142.6-48.81-6.8-119.12-9.9-183.69 12.2-5.3-5.6-8.85-10.9-10.59-15.8-.47-1.3-.42-1.9-.42-1.9.6-1.5 7.89-8.2 32.03-12.5 32.29-5.9 67.55-2 101.66 1.7l3.38.4c40.36 4.3 78.38 11.1 113.02 19.9 75.07 19.3 145.58 47.4 209.58 83.7 29.43 16.7 61.43 11.1 79.66-14 9.49-13 13.13-31.6 9.49-48.4-3.25-15.1-11.81-27.2-24.09-34.2-99.92-56.6-206.14-95.1-315.71-114.5-79.64-14.1-200-35.3-278.72 24.2-41.08 31.1-57.23 84.5-40.19 133 5.15 14.7 12.99 28.7 23.78 42.3l-.11.1c-74.18 86.6-28.69 194.6 49.31 263.2 7.58 6.7 15.63 13.4 24.04 19.9-20.19 30.8-31.89 64.2-34.04 97.6-3.97 61.5 22.69 122 75.08 170.3 16.52 15.2 35.84 29.2 57.61 41.7-6.42 18.9-9.74 38.3-9.9 57.8-.44 54.5 22.09 111 61.81 155 22.56 24.9 48.9 45.4 78.45 60.9-9.61 59.1 5.2 117.7 42.41 166.7 43.15 56.7 105.62 93.9 181.38 108.1 1.37 34.8 11.92 67.9 31.44 98.8 46.96 74.2 119.68 99.3 177.45 106.6 7.16 46 29.59 87.7 64.15 118.5 62.81 56.1 144.69 69.8 243.64 41 5.75 17 13.27 33.7 22.44 49.6 37.88 66.1 98.36 108.2 165.94 115.6 46.02 5.1 95.21-5.8 140.28-30.9 11.36 16.8 24.27 32.1 38.54 45.6 60.24 56.7 140.17 74.6 213.79 47.9 35.31-12.8 65.53-32.7 90.13-59.3 13.51 15.7 27.01 29.8 40.94 42.7 66.7 61.7 150.24 73 218.02 29.3 23.42-15.2 43.14-35.4 58.79-60.4 4.45 2.5 8.92 4.9 13.41 7.1 69.79 34.8 175.82 48.1 244.92-29.1 13.64-15.3 24.52-33.5 32.48-54.3 18.22 7.4 36.45 12.7 54.44 15.7 107.39 18 190.82-56.8 225.83-138.9 2.16-5.1 4.18-10.3 6.04-15.6 11.19 1.8 22.49 2.9 33.75 3.3 94.42 2.8 200.57-44.7 224.9-157 4.39-20.2 5.67-41.3 3.86-62.9 12.85.6 25.37.6 37.42-.3 48.08-3.3 90.36-24.1 119.05-58.5 25.69-30.8 38.72-70.4 37.39-112.7 20.81-2.5 40.28-8 58.1-16.3 93.18-43.7 108.08-148.4 81.58-234.1 63.82-27.3 109.89-74 130.68-133 14.28-40.5 16.28-85 5.91-129.5 30.74-22.8 55.04-50.5 72.35-82.7 40.76-75.6 34.24-167.5-17-247.9.95-1.7 1.84-3.4 2.69-5.2 46.32-92.2-3.23-191.7-59.73-248.8-6.61-6.7-13.57-13.2-20.82-19.6 14.95-8.2 29.44-17 43.31-26.4 34.96-23.6 58.32-50.9 69.45-81.2 20.11-54.6-13.09-101.1-39.8-131.3-31.41-35.5-70.54-64.7-116.52-87.1 26.54-59.9 26.64-123.8-.29-178.1-7.34-14.8-16.36-28.3-26.94-40.3 18.24-34.3 22.07-73.1 10.65-110.9-15.67-51.9-57.91-96.7-112.99-119.8-27.84-11.7-59.31-20.5-93.81-26.3 26.54-101.1-17.02-198.1-108.59-238.6-30.01-13.3-63.38-20.4-99.43-21-1.41-16.1-4.68-32.1-9.78-47.8-21.26-65.6-76.32-123-143.72-149.7-26.89-10.7-56.05-16.6-86.87-17.6-4.11-14.5-9.52-28.2-16.15-40.9-35.15-67.5-101.26-111.9-181.39-121.8-63.99-7.9-124.62 4.3-180.53 36.2-6.47-13.3-13.56-26.2-21.18-38.3-50.06-79.9-131.51-123.7-212.6-114.2-40.77 4.8-77.97 24.6-108.72 57.7-22.62-27.5-47.53-52.5-74.28-74.5-31.64-26.1-81.7-50.4-127.37-40.5-28.35 6.1-50.86 24.7-65.1 53.7-10.29 21-14.21 44-15.71 66.7-45.35-43.6-94.56-82.6-146.77-116.4-10.5-6.8-22.03-10.3-33.41-10.3" style="fill:#100f0d;fill-opacity:1;fill-rule:nonzero;stroke:none" transform="matrix(.01517 0 0 -.01517 46.03 712.109)"/><path d="m5957.22 42298.2-2393.41-1289.5c-107.22-57.7-152.85-187.4-105.78-299.7 40.37-96.3 97.07-213.4 169.58-320.1 133.31-196.1 317.88-350.1 398.58-407-43.47 77.2-317.98 453.8-152.02 706.9 487.33 743 2083.05 1609.4 2083.05 1609.4" style="fill:#e4f2f2;fill-opacity:1;fill-rule:nonzero;stroke:none" transform="matrix(.01517 0 0 -.01517 46.03 712.109)"/></g></g></svg>