<svg xmlns="http://www.w3.org/2000/svg" width="200mm" height="200mm" viewBox="0 0 200 200"><path d="M38483.8 30873.1s-80.6 301.4-852.9 717.9c-822.9 443.7-1225.1 362.4-1311.7 108.3-95.6-280.4 116.6-965 116.6-965l1194-605 779.4 528.2z" style="fill:#fbf6d4;fill-opacity:1;fill-rule:nonzero;stroke:none" transform="matrix(.02254 0 0 -.02254 -737.15 789.536)"/><path d="m36461.3 30755.6 1166.2-590.9 756.1 512.4 67.8 195.8c-20.1 49.7-157.5 325.9-835 691.2-671.4 362-985.6 332.2-1113.1 282.2-77.9-30.6-130.2-83.4-155.2-156.8-84.4-247.8 85.5-840.9 113.2-933.9M37632 30094l-1221.6 618.9-3.8 12.3c-8.8 28.4-214 697.4-116.3 984 30.6 89.9 96.6 157 190.7 193.9 167.8 65.8 506 69.8 1164.4-285.2 775-417.9 864.5-724.1 867.9-736.9l2.4-9.1-81-234z" style="fill:#211d1d;fill-opacity:1;fill-rule:nonzero;stroke:none" transform="matrix(.02254 0 0 -.02254 -737.15 789.536)"/><path d="M36949.3 31473.4s325-5.7 624-205c16-10.6 24.1-29.8 21.1-48.8-13.6-86.4-59-327.8-153-410.7-115.3-101.6-452.5 141.4-452.5 141.4l-179.3 446.9c-3.1 7.8-.7 16.7 5.9 21.8 38.7 30.2 85.1 49 133.8 54.4" style="fill:#fefbf0;fill-opacity:1;fill-rule:nonzero;stroke:none" transform="matrix(.02254 0 0 -.02254 -737.15 789.536)"/><path d="M37013.9 30969.9c124-87.7 338.1-199.1 407.3-138.1 87.6 77.3 131.6 320 143 392.5 1.2 7.4-1.9 14.8-7.9 18.7-276 184-579.2 198.8-605.7 199.8-39.5-4.7-77.1-19.4-109.3-42.6zm351.1-215.9c-150.7 0-364.7 150.4-393.9 171.5l-7.2 5.2-182.6 455.2c-8.2 20.2-1.8 43.8 15.4 57.2 43.2 33.7 94.8 54.7 149.3 60.6l1.9.3 2-.1c13.6-.2 337.4-8.1 640.3-210 25.7-17.2 39.2-48.2 34.3-79.1-15.6-99.5-62.8-340.5-162.9-428.8-25.8-22.7-59.2-32-96.6-32" style="fill:#211d1d;fill-opacity:1;fill-rule:nonzero;stroke:none" transform="matrix(.02254 0 0 -.02254 -737.15 789.536)"/><path d="M38386.5 31017.1s34-113.3-98.6-147.2c-146-37.3-242.1-53.2-530.9 27.8-288.7 81.1-889.3 473.1-892 509.7-2.1 27.8 67.6 61.1 67.6 61.1s-113.6 16.7-139.3-81.5c-25.7-98.1-46.9-188.2-46.9-188.2l756.6-449.5 815.5-92.5 168.4 160.2s-24.9 133.8-100.4 200.1" style="fill:#f6fcfb;fill-opacity:1;fill-rule:nonzero;stroke:none" transform="matrix(.02254 0 0 -.02254 -737.15 789.536)"/><path d="m37510.5 30771.4 799.9-90.7 151.4 144c-5.8 24.2-21.7 81.1-52 129.1-2.6-11.5-6.8-23.5-13.5-35.3-19.5-34.5-54-58.2-102.7-70.7-148-37.9-246.2-55.2-542.8 28-177.7 49.8-450 208.1-558.9 273.9-89.4 54-174.7 109.2-240.1 155.4-107.7 75.9-108.7 89-109.6 100.6-.6 7.9 1.3 15.6 5 22.8-14-9.8-25.9-24.7-31.8-47.3-19-72.4-35.6-141-42.9-171.3zm816-138.5-830.9 94.3-4.2 2.5-771.1 458.1 3.9 16.3c.2.9 21.6 91.4 47.1 188.7 24.4 93.3 118.4 105.1 164.7 98.3l73.9-10.8-67.4-32.4c-22.6-10.8-45.9-27.3-52.9-36.8 57.2-61.8 596.6-413.7 873.6-491.4 285.3-80 378.6-63.6 519.1-27.7 36.1 9.3 61.1 25.7 74.3 48.9 18.4 32.6 8.1 69.3 8 69.7l-22.8 76.2 59.8-52.5c80.4-70.8 106.6-207.3 107.7-213.1l2.3-12.2z" style="fill:#211d1d;fill-opacity:1;fill-rule:nonzero;stroke:none" transform="matrix(.02254 0 0 -.02254 -737.15 789.536)"/><path d="M38110.3 30206.3s5.4 7.2 14.8 20.3c44.1 61.4 184.5 243.5 298.9 400.5 58.2 79.8 84.1 163 61.6 237.1 0 0-355.4-198.9-848.9 1.2-441.8 179.3-770.4 452.5-834.3 507.7-5.8 5-14.7 3.2-18.2-3.6l-283.2-548.2s1323-689.6 1461.9-653.5c139 36.1 147.4 38.5 147.4 38.5" style="fill:#efd83e;fill-opacity:1;fill-rule:nonzero;stroke:none" transform="matrix(.02254 0 0 -.02254 -737.15 789.536)"/><path d="M36531.7 30831c510.3-265.2 1331.8-665.6 1425.5-641.1 91.9 23.8 126.6 33 139.5 36.4 2.4 3.3 5.8 7.9 9.9 13.6 18.8 26.2 54.1 73 98.8 132.3 59.8 79.2 134.3 177.9 200.2 268.3 35.5 48.7 73 119 63.9 190.3-93.6-42.6-415.4-159.3-841.3 13.5-424.9 172.3-746.9 431.9-830.1 502.4zm1417.3-687.9c-47.7 0-194.2 35.3-779.1 317.3-344.4 166.2-676.1 338.9-679.5 340.6l-20.1 10.6 293.6 568.4c4.9 9.5 13.7 16.1 24.2 18.1 10.5 2.1 21.2-.8 29.2-7.8 61.2-52.8 388.8-325.6 828-503.7 477.8-193.8 825.6-4.4 829.1-2.5l24.8 13.9 8.2-27.1c23.6-77.7 1.1-166.6-64.9-257.3-66.1-90.7-140.7-189.5-200.7-268.9-44.5-59-79.6-105.6-98.1-131.4-9.6-13.3-15.2-20.7-15.2-20.7l-4.5-6.1-7.3-2.1c-.9-.3-12.6-3.6-148-38.7-4.4-1.1-10-2.6-19.7-2.6" style="fill:#211d1d;fill-opacity:1;fill-rule:nonzero;stroke:none" transform="matrix(.02254 0 0 -.02254 -737.15 789.536)"/><path d="M38477.9 30714c8.9-12.7 23.9-42.3 24-87.7.1-40.8-18.5-79.3-48.4-107-66.5-61.8-172.2-148-172.2-148l-1292.6 168.8-751.4 625.5 36.9 362 48.3 142.7c24.1 71 68 133.6 126.7 180.3l6.5 5.1c5.4 4.3 12.7-1.9 9.4-8l-25.1-44.8c-38.8-69.5-47.8-151.6-25.1-227.9 56.5-189.1 224.4-542.3 717.3-804.9 698.3-372.1 1257.6-194.4 1257.6-194.4s79.1 69.8 82.2 136.3c.1 3.2 4.1 4.6 5.9 2" style="fill:#fff;fill-opacity:1;fill-rule:nonzero;stroke:none" transform="matrix(.02254 0 0 -.02254 -737.15 789.536)"/><path d="M38459.3 30700.9v-.1zm-1461.1-139 1276.2-166.7c25.4 20.8 108.6 89.8 163.6 140.8 26.1 24.3 41.1 57.2 41.1 90.2 0 9-.7 17.2-1.8 24.6-25.5-50.4-69.9-90-72.5-92.2l-3.6-3.2-4.5-1.5c-5.9-1.8-146.2-45.4-374.1-43.4-209.7 2-536.4 45.1-901.2 239.5-500.8 266.8-671.3 627.3-728.3 818.5-19.3 64.6-17.2 134.1 5.2 197.2-23.3-30.9-41.6-65.6-54.2-102.8l-47.4-140.2-35.5-347.3zm1289.9-214.6-1308.9 171.1-765.9 637.5 38.5 376.6 49.1 145.1c25.5 75.3 71.8 141.3 134 190.8l6.5 5.2c11.1 8.8 26.2 8.5 37-.6s13.5-24.1 6.6-36.4l-25.1-44.9c-35.5-63.7-44-140.3-23.1-210.2 55-184.3 219.9-532.2 706.1-791.3 648-345.3 1180.8-209.5 1235.4-194.1 22 20.6 68.9 73.1 70.9 116.9.5 11.4 8.1 21 18.9 24.2 10.7 3 22.1-1 28.5-10.1 8.4-12 28-45.8 28.1-100.8.1-45.7-20.2-90.9-55.7-123.8-66.2-61.5-172.2-148.1-173.3-148.9z" style="fill:#211d1d;fill-opacity:1;fill-rule:nonzero;stroke:none" transform="matrix(.02254 0 0 -.02254 -737.15 789.536)"/><path d="M36315.2 31673c1 2.5 4.6 2.1 4.9-.5 7.5-83.3 84.5-620.3 827.9-995.2 707.4-356.8 1179.8-209.7 1286.3-167.6 5.9 2.3 11.1-4.7 7.1-9.6l-937.7-1154.5c-39.1-48.2-98.6-74.9-160.6-72.7-164.6 5.8-505.3 44.3-844.2 245.1-319.8 189.4-549.8 442.8-664.5 586-52.7 65.7-66 154.5-35.6 233z" style="fill:#efd83e;fill-opacity:1;fill-rule:nonzero;stroke:none" transform="matrix(.02254 0 0 -.02254 -737.15 789.536)"/><path d="m36289.6 31669.7.1-.1zm54.1-7.7v-.1zm-36.5-94.4-479.9-1241.6c-26.5-68.4-14.6-146.1 30.9-202.9 108.3-135.1 337.5-390 656.3-578.8 330.4-195.8 661.7-235 829.7-240.9 51.7-1.8 103 21.1 135.8 61.5l885.1 1089.7c-195.1-54.2-628.2-108.5-1230.9 195.4-607.6 306.5-778.8 717.4-827 917.6m1042.8-2325.4c-2.6 0-5.3 0-8 .1-173.8 6.2-516.6 46.7-858.6 249.4-327.2 193.8-562 454.8-672.9 593.2-59 73.7-74.5 174.5-40.2 263.1l516.4 1336c5.6 14.5 20.1 23 35.6 20.9 15.2-2.1 26.8-14.4 28.2-29.7 3.7-41.2 24.4-190.1 133.9-375.4 141.6-239.7 369.4-439.9 677.3-595.2 703.5-354.8 1174.2-201 1261.4-166.5 15.5 6.1 33.2 1 43.1-12.4 9.8-13.5 9.4-31.9-1.1-44.9l-937.7-1154.4c-43.1-53.1-109-84.2-177.4-84.2" style="fill:#211d1d;fill-opacity:1;fill-rule:nonzero;stroke:none" transform="matrix(.02254 0 0 -.02254 -737.15 789.536)"/><path d="M36700.8 29959.4c29.7 0 29.7 46.2 0 46.2s-29.8-46.2 0-46.2m-106.5 189.8c29.7 0 29.8 46.2 0 46.2-29.6 0-29.7-46.2 0-46.2m965.9-560.6c29.6 0 29.7 46.2 0 46.2s-29.8-46.2 0-46.2m47.6 1104.8c29.7 0 29.7 46.2 0 46.2s-29.8-46.2 0-46.2m551.8-39.2c29.7 0 29.7 46.1 0 46.1s-29.8-46.1 0-46.1m231.3 57.4c29.7 0 29.7 46.1 0 46.1s-29.7-46.1 0-46.1m-61.3-92.7c29.7 0 29.7 46.1 0 46.1s-29.7-46.1 0-46.1m-80.1 64.9c29.7 0 29.7 46.1 0 46.1s-29.8-46.1 0-46.1m-134.1-436.8c29.7 0 29.7 46.2 0 46.2s-29.7-46.2 0-46.2m-309.9 48.8c29.7 0 29.7 46.1 0 46.1s-29.7-46.1 0-46.1m128-54.3c29.7 0 29.8 46.1 0 46.1-29.7 0-29.7-46.1 0-46.1m57.4 373.6c29.7 0 29.7 46.1 0 46.1s-29.7-46.1 0-46.1m83.9-19.7c29.7 0 29.7 46.1 0 46.1s-29.7-46.1 0-46.1m-338.9 101.5c29.7 0 29.7 46.1 0 46.1s-29.7-46.1 0-46.1m37.8-94.3c29.6 0 29.7 46.1 0 46.1s-29.8-46.1 0-46.1m128.1 3.4c29.7 0 29.7 46.2 0 46.2s-29.8-46.2 0-46.2m-8.7 99.4c29.7 0 29.8 46.2 0 46.2-29.7 0-29.7-46.2 0-46.2m170.4-24.9c29.7 0 29.8 46.1 0 46.1-29.7 0-29.7-46.1 0-46.1m176.6-81c29.7 0 29.7 46.2 0 46.2s-29.7-46.2 0-46.2m-1017-694.7c29.7 0 29.7 46.1 0 46.1s-29.7-46.1 0-46.1m-114.9 183.9c29.7 0 29.7 46.1 0 46.1s-29.7-46.1 0-46.1m-211.3 36.8c29.7 0 29.8 46.1 0 46.1-29.7 0-29.7-46.1 0-46.1m-29.7 253c29.7 0 29.7 46.1 0 46.1s-29.7-46.1 0-46.1m-202.5 216.1c29.7 0 29.7 46.1 0 46.1s-29.7-46.1 0-46.1m-171-101c29.7 0 29.7 46.2 0 46.2s-29.7-46.2 0-46.2m-298.1 89.7c29.7 0 29.8 46.1 0 46.1-29.6 0-29.7-46.1 0-46.1m128.1-438.4c29.7 0 29.8 46.1 0 46.1-29.7 0-29.7-46.1 0-46.1m-204.2 280.2c29.7 0 29.8 46.1 0 46.1-29.7 0-29.7-46.1 0-46.1m931.4-652.2c29.7 0 29.8 46.1 0 46.1-29.6 0-29.7-46.1 0-46.1m-189.9-1.2c29.6 0 29.7 46.2 0 46.2s-29.8-46.2 0-46.2m-465.1 149.6c29.6 0 29.7 46.1 0 46.1s-29.8-46.1 0-46.1m115.5-58c29.6 0 29.7 46.1 0 46.1s-29.8-46.1 0-46.1m-111-97c29.7 0 29.7 46.1 0 46.1s-29.8-46.1 0-46.1m111.6-161.1c29.7 0 29.7 46.1 0 46.1s-29.7-46.1 0-46.1m281.3 14.2c29.7 0 29.8 46.2 0 46.2-29.7 0-29.7-46.2 0-46.2m129.7 265.6c29.7 0 29.7 46.2 0 46.2s-29.7-46.2 0-46.2m232-200.7c29.7 0 29.7 46.2 0 46.2s-29.8-46.2 0-46.2m265.4-245.3c29.6 0 29.7 46.2 0 46.2s-29.8-46.2 0-46.2m-188.3-65.2c29.7 0 29.7 46.2 0 46.2s-29.7-46.2 0-46.2m45.6 169.7c29.7 0 29.7 46.1 0 46.1s-29.7-46.1 0-46.1m332 154.8c29.7 0 29.7 46.1 0 46.1s-29.7-46.1 0-46.1m-238.5 25.4c29.6 0 29.7 46.2 0 46.2s-29.8-46.2 0-46.2m382.3 121.9c29.7 0 29.8 46.2 0 46.2-29.7 0-29.7-46.2 0-46.2m-295.4 104c29.7 0 29.7 46.2 0 46.2s-29.8-46.2 0-46.2m-142.6 162.3c29.7 0 29.7 46.1 0 46.1s-29.7-46.1 0-46.1m275.9 253.9c29.6 0 29.7 46.1 0 46.1s-29.8-46.1 0-46.1m-382.3 156.8c29.7 0 29.7 46.1 0 46.1s-29.7-46.1 0-46.1m-29 436.7c29.6 0 29.7 46.1 0 46.1s-29.8-46.1 0-46.1m46.5-136c29.7 0 29.7 46.1 0 46.1s-29.8-46.1 0-46.1m165.7 14.5c29.7 0 29.7 46.1 0 46.1s-29.8-46.1 0-46.1m-455.1 196.6c29.7 0 29.7 46.2 0 46.2s-29.7-46.2 0-46.2m-69 143c29.7 0 29.8 46.1 0 46.1-29.6 0-29.7-46.1 0-46.1m-113.5-53.5c29.7 0 29.8 46.1 0 46.1-29.6 0-29.7-46.1 0-46.1m281.3-206.7c29.7 0 29.8 46.1 0 46.1-29.7 0-29.7-46.1 0-46.1m42.2 134.7c29.7 0 29.8 46.1 0 46.1-29.6 0-29.7-46.1 0-46.1m326-336.4c29.7 0 29.7 46.1 0 46.1s-29.7-46.1 0-46.1m140.8 64.9c29.6 0 29.7 46.2 0 46.2s-29.8-46.2 0-46.2m-1147.5-760.1c29.7 0 29.7 46.2 0 46.2s-29.7-46.2 0-46.2m379.3 39.5c29.7 0 29.7 46.1 0 46.1s-29.7-46.1 0-46.1m-206-318.5c29.7 0 29.7 46.2 0 46.2s-29.7-46.2 0-46.2m-328.2 111.4c29.7 0 29.7 46.2 0 46.2s-29.7-46.2 0-46.2m419.1-329.5c29.7 0 29.7 46.2 0 46.2s-29.7-46.2 0-46.2m274.9 117.7c29.7 0 29.7 46.1 0 46.1s-29.8-46.1 0-46.1m8.5-157.2c29.7 0 29.8 46.1 0 46.1-29.7 0-29.7-46.1 0-46.1m281.1 282.6c29.7 0 29.7 46.1 0 46.1s-29.8-46.1 0-46.1m324.8 74.5c29.7 0 29.8 46.2 0 46.2-29.7 0-29.7-46.2 0-46.2m-225.9 87c29.7 0 29.8 46.1 0 46.1-29.7 0-29.7-46.1 0-46.1m471.3 236.2c29.7 0 29.8 46.2 0 46.2-29.6 0-29.7-46.2 0-46.2m-108.3 138.3c29.7 0 29.7 46.1 0 46.1s-29.8-46.1 0-46.1m308.5 25.6c29.7 0 29.8 46.1 0 46.1-29.6 0-29.7-46.1 0-46.1m232.3-27.3c29.7 0 29.7 46.1 0 46.1s-29.7-46.1 0-46.1m-235.6-170.8c29.7 0 29.8 46.1 0 46.1-29.6 0-29.7-46.1 0-46.1m-154.1-147c29.7 0 29.7 46.1 0 46.1s-29.7-46.1 0-46.1m-204.1 117.1c29.6 0 29.7 46.1 0 46.1s-29.8-46.1 0-46.1m-183.9 326.9c29.7 0 29.7 46.1 0 46.1s-29.7-46.1 0-46.1m-167.9-181.6c29.7 0 29.8 46.1 0 46.1-29.6 0-29.7-46.1 0-46.1m-7.5 130.3c29.7 0 29.8 46.2 0 46.2-29.6 0-29.7-46.2 0-46.2m-485.3 160.7c29.7 0 29.8 46.1 0 46.1-29.7 0-29.7-46.1 0-46.1m183.5 46.8c29.6 0 29.7 46.1 0 46.1s-29.8-46.1 0-46.1m-3.6-150.6c29.7 0 29.7 46.1 0 46.1s-29.8-46.1 0-46.1m-240.4-189.2c29.7 0 29.7 46.2 0 46.2s-29.7-46.2 0-46.2m-80.6 217.8c29.7 0 29.7 46.1 0 46.1s-29.8-46.1 0-46.1m-13.9 291.6c29.7 0 29.8 46.1 0 46.1-29.7 0-29.7-46.1 0-46.1m114.6 26.7c29.7 0 29.7 46.1 0 46.1s-29.7-46.1 0-46.1m-298.9 232.1c29.7 0 29.7 46.1 0 46.1s-29.8-46.1 0-46.1m-114.5 252c29.7 0 29.8 46.1 0 46.1-29.6 0-29.7-46.1 0-46.1m-151.2-401c29.6 0 29.7 46.1 0 46.1s-29.8-46.1 0-46.1m234.2-138.9c29.7 0 29.8 46.1 0 46.1-29.6 0-29.7-46.1 0-46.1m-107.5 216.7c29.7 0 29.8 46.1 0 46.1-29.6 0-29.7-46.1 0-46.1m-30.2-640.9c29.7 0 29.8 46.1 0 46.1-29.7 0-29.7-46.1 0-46.1m279.4-258.3c29.7 0 29.7 46.2 0 46.2s-29.7-46.2 0-46.2m-95.5 152.3c29.7 0 29.8 46.1 0 46.1-29.7 0-29.7-46.1 0-46.1m-233.3 275c29.7 0 29.8 46.1 0 46.1-29.7 0-29.7-46.1 0-46.1m-144.3 226.3c29.7 0 29.8 46.2 0 46.2-29.6 0-29.7-46.2 0-46.2m-77.7-420.3c29.7 0 29.8 46.1 0 46.1-29.6 0-29.7-46.1 0-46.1m-66.7-73.9c29.7 0 29.7 46.2 0 46.2s-29.8-46.2 0-46.2m122.5-256.4c29.7 0 29.7 46.1 0 46.1s-29.7-46.1 0-46.1m206.7 118.2c29.7 0 29.8 46.1 0 46.1-29.6 0-29.7-46.1 0-46.1m-155.2 42.9c29.6 0 29.7 46.2 0 46.2s-29.8-46.2 0-46.2m-89.7 306.9c29.7 0 29.7 46.1 0 46.1s-29.7-46.1 0-46.1m-91.1-60.6c29.7 0 29.8 46.1 0 46.1-29.6 0-29.7-46.1 0-46.1m101.7 233.6c29.7 0 29.7 46.1 0 46.1s-29.7-46.1 0-46.1m146.7 498.3c29.7 0 29.7 46.1 0 46.1s-29.7-46.1 0-46.1m781.6-1069.9c29.6 0 29.7 46.2 0 46.2s-29.8-46.2 0-46.2m222.8 272.5c29.7 0 29.7 46.1 0 46.1s-29.7-46.1 0-46.1m-152.5-48c29.7 0 29.7 46.1 0 46.1s-29.7-46.1 0-46.1m-362.9-374.5c29.7 0 29.7 46.1 0 46.1s-29.8-46.1 0-46.1m-160.1 466.4c29.7 0 29.7 46.1 0 46.1s-29.7-46.1 0-46.1m679.9-256.7c29.7 0 29.8 46.1 0 46.1-29.7 0-29.7-46.1 0-46.1m307.4 157.7c29.6 0 29.7 46.1 0 46.1s-29.8-46.1 0-46.1m-374.5 199.9c29.7 0 29.7 46.1 0 46.1s-29.7-46.1 0-46.1m344.8-330.9c29.7 0 29.7 46.1 0 46.1s-29.8-46.1 0-46.1m-318.1-609.5c29.7 0 29.7 46.1 0 46.1s-29.7-46.1 0-46.1m-427.7 265.9c29.7 0 29.7 46.1 0 46.1s-29.7-46.1 0-46.1m698.5-146c29.7 0 29.7 46.2 0 46.2s-29.7-46.2 0-46.2m-377.6 280.5c29.7 0 29.7 46.1 0 46.1s-29.7-46.1 0-46.1m600.6 49.7c29.7 0 29.7 46.2 0 46.2s-29.8-46.2 0-46.2m-727.7 304c29.6 0 29.7 46.1 0 46.1s-29.8-46.1 0-46.1m-137.8 401.5c29.7 0 29.8 46.2 0 46.2-29.6 0-29.7-46.2 0-46.2m-480.1 410.3c29.7 0 29.8 46.1 0 46.1-29.6 0-29.7-46.1 0-46.1m-60.6-350.8c29.7 0 29.8 46.1 0 46.1-29.7 0-29.7-46.1 0-46.1m281.2-43.6c29.7 0 29.8 46.2 0 46.2-29.7 0-29.7-46.2 0-46.2m45.7 227.5c29.7 0 29.7 46.1 0 46.1s-29.7-46.1 0-46.1m-130.7-17.8c29.7 0 29.7 46.1 0 46.1s-29.8-46.1 0-46.1m-294.2-633.1c29.7 0 29.7 46.1 0 46.1s-29.7-46.1 0-46.1m226.5 259.9c29.7 0 29.7 46.1 0 46.1s-29.7-46.1 0-46.1m-276.9-6.2c29.7 0 29.8 46.2 0 46.2-29.7 0-29.7-46.2 0-46.2" style="fill:#fff;fill-opacity:1;fill-rule:nonzero;stroke:none" transform="matrix(.02254 0 0 -.02254 -737.15 789.536)"/><g style="display:inline"><path d="M31244.2 25217.9c-141.8-2493.2-968.1-7340.7-1102.8-7665.7-52.5-126.8-121.2-252.3-206.5-370.9l-.3-.3c-100.2-139.3-223.9-269.1-372.4-380.3-303.9-229.4-712.3-382.1-1238.3-382.1-106.3 0-209 5.2-307.6 15.3-443.3 45.2-805.5 189-1066.7 405.3-228.5 189.1-379.7 433.8-439.9 716.3-483.5 2270.6-952.4 4838.6-1106.4 7635.5z" style="fill:#e0c13b;fill-opacity:1;fill-rule:nonzero;stroke:none" transform="matrix(.01365 0 0 -.01365 -286.545 415.453)"/><path d="M25435.6 25160.6c162.4-2902.4 675-5584.4 1104-7598.7 58.1-273 206.6-514.8 429.5-699.2 262.5-217.3 625.7-355.1 1050.3-398.5 98.1-10 200.5-15.1 304.5-15.1 479 0 889.4 126.5 1219.9 376 139.8 104.7 262.9 230.4 366 373.8l1.7 2.3c80.8 112.5 148.6 234.5 201.7 362.7 63.3 152.7 298.1 1399.7 546.7 3012.7 170.2 1103.7 466.9 3163 551.9 4610.6zm2888.3-8772.6c-106 0-210.6 5.2-310.7 15.5-436.7 44.5-811.2 187-1083.1 412.2-233.5 193.2-389.2 446.9-450.3 733.5-431 2023.8-946.3 4721.2-1107 7640.1l-1.8 32.1 5905.5 27.2-1.9-32.4c-144.1-2534.6-971.1-7352.8-1105-7675.7-55.2-133.3-125.8-260.1-209.9-377l-1.7-2.3c-106.5-147.6-233.5-277.1-377.4-384.9-341.3-257.6-764.2-388.3-1256.7-388.3" style="fill:#211d1d;fill-opacity:1;fill-rule:nonzero;stroke:none" transform="matrix(.01365 0 0 -.01365 -286.545 415.453)"/><path d="M28014 16464.9c-434.1 45.5-796.9 188-1057.2 408.1-.2.1-.3.3-.4.4-.2.1-.4.3-.5.4-5.9 5-11.7 10-17.5 15.1-389.7 1738.8-820 4646.1-1251.5 7601.1 16.1-15.3 32.7-30.4 49.8-45.5 136-120 300.3-229.4 487.8-325.4 373.6-191.5 832.5-326 1330.9-389.4 0-.1.1-.1.1-.1l5.1-.6q51.6-6.6 103.8-12c49.5-2384 169.5-4803.4 349.6-7252.1" style="fill:#f4ebb4;fill-opacity:1;fill-rule:nonzero;stroke:none" transform="matrix(.01365 0 0 -.01365 -286.545 415.453)"/><path d="M26956.8 16873c-.2.1-.3.2-.4.4.1-.1.2-.3.4-.4m-.9.8c-5.9 5-11.7 10-17.5 15v.1c5.8-5.1 11.6-10.1 17.5-15.1" style="fill:#aca9a9;fill-opacity:1;fill-rule:nonzero;stroke:none" transform="matrix(.01365 0 0 -.01365 -286.545 415.453)"/><path d="M29567 16842.7c279.2 2496.3 478.4 4887.4 566.3 7131.5 270.9 96.9 500.9 217.2 684.7 359.5-225-2306.8-519.6-4670.5-872.8-7082.5-60.8-90.8-136.5-186.7-230.2-279.3-46.8-45.9-96.3-89-148-129.2" style="fill:#f4ebb4;fill-opacity:1;fill-rule:nonzero;stroke:none" transform="matrix(.01365 0 0 -.01365 -286.545 415.453)"/><path d="M29566.8 16841.3c0 .4.1.9.2 1.4 51.7 40.2 101.2 83.3 148 129.2-45.1-44.6-94.4-88.5-148.2-130.6" style="fill:#aca9a9;fill-opacity:1;fill-rule:nonzero;stroke:none" transform="matrix(.01365 0 0 -.01365 -286.545 415.453)"/><path d="M25435.5 25160.5c162.5-2902.5 675.1-5584.4 1104.2-7598.6 146.1-686.4 829.8-1112.8 1784.3-1112.8 1197.3 0 1650.1 779.7 1789.1 1114.9 63.4 152.6 298.2 1399.6 546.9 3012.6 170.2 1103.7 466.9 3163.1 551.7 4610.7zM28324 16388c-984.9 0-1691.5 444.9-1844.1 1161.2-431 2023.7-946.4 4721-1107.1 7640l-1.8 32.1 5905.4 27.4-1.8-32.4c-143.9-2534.9-971.1-7353-1105-7675.7-134.5-324.2-353.7-600-633.9-797.6-333.9-235.6-741.6-355-1211.7-355" style="fill:#211d1d;fill-opacity:1;fill-rule:nonzero;stroke:none" transform="matrix(.01365 0 0 -.01365 -286.545 415.453)"/><path d="M31285.4 25305.9c15.3-302.2-99.3-581-337.9-818.1-140.2-139.6-323.8-264.5-549.2-371.4-495.2-234.3-1192.2-380-2079.6-396.8-121.6-2.2-241.6-.6-359.2 5.5-858.1 41.2-1608.6 287.7-2085.5 647.3-341.2 256.5-542.2 571.2-542.2 909.3 0 68.8 3.7 322 20.2 375.4 70.2 226.7 308.5 172.6 613.7 387.7 102 72.1 201 343.6 380.9 518.1 426.1 412.6 1188.3 329 1972.1 329s1437.2 145.7 1896.9-229.5c191-155.8 335.7-470.7 449.7-555.6 261.8-194.9 527.5-236.7 620.1-449.7 30.8-70.8-4.3-265.4 0-351.2" style="fill:#ead46d;fill-opacity:1;fill-rule:nonzero;stroke:none" transform="matrix(.01365 0 0 -.01365 -286.545 415.453)"/><path d="M27656.5 26868.2c-521.8 0-993.4-41.3-1288.7-327.3-92.5-89.7-163.1-206.2-225.4-308.9-56.9-93.7-106-174.6-159.1-212.2-130.1-91.7-249.6-136.1-345.6-171.8-132.5-49.3-219.9-81.8-256.5-199.9-13.3-43-18.8-259.9-18.8-366.4 0-318.2 183.3-624.2 530-884.9 487.7-367.8 1241.7-601.5 2068.5-641.2 112.2-5.8 232.4-7.7 357.2-5.5 841.4 15.9 1556.2 152.1 2067.1 393.9 220.1 104.3 402 227.3 540.8 365.5 233.2 231.7 343.8 499.1 328.9 794.8-1.6 32.4 1.9 77.8 5.6 125.8 6.2 78.4 13.8 176.1-3.1 214.8-53.9 123.9-172 185.8-321.6 264.2-88.8 46.5-189.4 99.2-288.8 173.2-55.2 41.2-113.2 126.5-180.3 225.2-79 116.3-168.5 248.2-270.4 331.3-345.8 282.1-816.2 261.4-1360.8 237.4-165.8-7.3-337.3-14.9-516.8-14.9-114.8 0-230.1 1.8-341.7 3.6-108.2 1.7-215.4 3.3-320.5 3.3m560.6-3180.1c-89.8 0-176.7 2.2-259.2 6.5-838.7 40.3-1605 278.4-2102.3 653.3-362.6 272.8-554.3 595.7-554.3 933.8 0 3.2.9 317.7 21.5 384.5 45.5 146.7 155 187.5 293.6 239 97.5 36.3 208 77.4 331.7 164.6 42.7 30.1 88.7 106 142 193.9 64.3 105.9 137.1 225.9 235.2 321.1 373 361.2 994.6 351.4 1652.7 341.1 111.3-1.7 226.4-3.5 340.7-3.5 178.2 0 349 7.5 514.1 14.8 557.1 24.6 1038.3 45.8 1402.1-251.1 108.8-88.7 201-224.5 282.4-344.2 61.3-90.3 119.3-175.6 166.2-210.6 95.5-71.1 193.9-122.6 280.7-168.1 153.9-80.6 286.8-150.3 349.2-293.9 22.9-52.7 15.4-149.9 8-244-3.5-46-6.9-89.4-5.5-117.9 15.6-309.4-104.3-600.3-346.8-841.3-143.7-143-331.3-270-557.7-377.3-518.7-245.5-1242.1-383.7-2092.1-399.8-34.5-.6-68.5-.9-102.2-.9" style="fill:#211d1d;fill-opacity:1;fill-rule:nonzero;stroke:none" transform="matrix(.01365 0 0 -.01365 -286.545 415.453)"/><path d="M27958.9 23755.7c-826.1 40-1579.2 273.6-2066.5 641.1-5.9 4.4-11.8 8.9-17.6 13.4l5.8 305.1c479-360 1224.5-607.2 2072.6-662.9z" style="fill:#f9f2cc;fill-opacity:1;fill-rule:nonzero;stroke:none" transform="matrix(.01365 0 0 -.01365 -286.545 415.453)"/><path d="M27958.9 23755.4c-839.6 40.6-1599 278.6-2084.2 654.1l.1.7c5.8-4.5 11.7-9 17.6-13.4 487.3-367.5 1240.4-601.1 2066.5-641.1z" style="fill:#aca9a9;fill-opacity:1;fill-rule:nonzero;stroke:none" transform="matrix(.01365 0 0 -.01365 -286.545 415.453)"/><path d="m30397.3 24149.7-10.4 335.9c14.8 7.6 29.5 15.3 44 23.1 223.7 119.6 408 255 549.4 401.6l-29.1-375.1c-8.2-8.6-16.6-17.2-25.2-25.7-136.2-135.7-314.1-256.7-528.7-359.8" style="fill:#f9f2cc;fill-opacity:1;fill-rule:nonzero;stroke:none" transform="matrix(.01365 0 0 -.01365 -286.545 415.453)"/><path d="M30397.3 24149.2v.5c214.6 103.1 392.5 224.1 528.7 359.8 8.6 8.5 17 17.1 25.2 25.7v-.5c-141.7-148.3-328-277.3-553.9-385.5" style="fill:#aca9a9;fill-opacity:1;fill-rule:nonzero;stroke:none" transform="matrix(.01365 0 0 -.01365 -286.545 415.453)"/><path d="M27657 26868.3c-522 0-993.8-41.4-1289.1-327.4-92.6-89.8-163.3-206.3-225.6-309-56.8-93.6-105.8-174.5-158.9-212-130.2-91.7-249.8-136.2-345.8-172-132.3-49.2-219.8-81.7-256.3-199.8-13.4-43-18.9-259.8-18.9-366.3 0-253.8 120.4-506.1 348.2-729.6 524.9-515.1 1524-822.5 2607.6-802 1247.6 23.4 2186.6 306.2 2644 796.2 208.2 223.1 306.7 478 292.7 757.8-1.6 32.5 1.9 78 5.7 126.1 6.1 78.4 13.7 175.9-3.2 214.7-53.8 123.7-171.9 185.6-321.3 263.9-88.9 46.6-189.7 99.4-289.1 173.5-55.1 41.1-113.1 126.4-180.1 225.1-79.1 116.3-168.7 248.2-270.7 331.4-345.6 282.1-815.9 261.3-1360.5 237.3-165.9-7.3-337.4-14.9-516.9-14.9-114.7 0-230 1.9-341.5 3.6-108.1 1.7-215.2 3.4-320.3 3.4m561-3180.2c-512.6 0-1014.3 73.3-1457 213.3-458 144.8-836 354.8-1093.2 607.2-239.8 235.3-366.5 502.7-366.5 773.2 0 3.1.6 316.6 21.6 384.4 45.5 146.7 154.9 187.4 293.4 239 97.6 36.3 208.1 77.5 331.9 164.7 42.7 30.1 88.7 105.9 141.9 193.7 64.2 105.9 137 225.9 235.3 321.2 372.9 361.2 994.7 351.5 1652.9 341.2 111.2-1.8 226.2-3.6 340.5-3.6 178.2 0 349 7.6 514.2 14.9 557.1 24.5 1038.2 45.7 1401.8-251 108.9-88.9 201.2-224.7 282.6-344.5 61.3-90.2 119.2-175.4 166.1-210.4 95.6-71.2 194.1-122.8 281-168.4 153.7-80.6 286.5-150.2 348.9-293.6 23-52.8 15.4-149.9 8.1-243.9-3.6-46.1-7-89.7-5.5-118.2 14.8-296.9-89.2-567-309.2-802.6-468.7-502.2-1423.1-791.8-2687.5-815.6-33.8-.7-67.6-1-101.3-1" style="fill:#211d1d;fill-opacity:1;fill-rule:nonzero;stroke:none" transform="matrix(.01365 0 0 -.01365 -286.545 415.453)"/><path d="M31285.4 25657.1c0-4.8 0-9.7-.3-14.6-4.6-285.9-150.9-553.5-402.9-784.1-139-127.4-310.4-243.5-508-344.9-3.1-1.6-5.8-3.1-8.6-4.6-532.4-271.3-1253.3-437.7-2046.9-437.7-1520.3 0-2773.7 611.5-2946.2 1399.6-13.5 61.1-20.5 123.4-20.5 186.3 0 155.2 44.3 264.6 124.6 360.2 36.7 43.7 81 84.3 132 125.2 74.8 59.9 164.3 120.4 266.3 190.6 29.1 20.2 59.6 41.3 90.8 63.3 51 36 101.1 121.5 161.3 220.5 59.8 98.4 129.8 210.2 219.6 297.2 406.9 653.1 1121.4 858.1 1972.1 749.1 417.3-53.5 808.9-120.1 1137.2-220.9 328.7-101.1 594.2-236.4 759.7-428.3 191-156.1 335.7-470.7 449.7-555.6 348.8-260.3 620.1-456.7 620.1-801.3" style="fill:#ead46d;fill-opacity:1;fill-rule:nonzero;stroke:none" transform="matrix(.01365 0 0 -.01365 -286.545 415.453)"/><path d="M30365.6 24508.9h.1zm-2457.2 3151c-696.4 0-1222.8-259.4-1535.9-761.9l-2-3.2-2.6-2.6c-84.6-82-152.5-188.8-214.8-291.2l-10.6-17.3c-56.9-93.7-106-174.7-159.2-212.3-24.2-17.1-48.1-33.6-71.1-49.6l-53-36.5c-88.9-61.2-165.7-114-231.5-166.6-54.5-43.7-95.1-82.2-127.7-121-81.2-96.8-117.5-201.8-117.5-340.5 0-59.8 6.7-120.2 19.8-179.8 81.9-373.9 419.6-719.9 951.1-974.4 540.3-258.8 1238.3-401.3 1965.3-401.3 760.9 0 1482.8 154.2 2032.5 434.2 3 1.6 6 3.2 9.3 4.9 195.9 100.5 364.5 215 501 340.1 252.9 231.3 388.8 494.9 393 762.1l.1 1.4c.3 4.2.2 8.5.2 12.8 0 323.4-247.6 508.1-590.3 763.7l-17.5 13c-55.2 41.2-113.2 126.5-180.4 225.3-79 116.2-168.5 247.9-270.3 331.2l-3.8 3.7c-150 173.7-393.8 310.8-745.5 419-285 87.5-644.8 157.3-1132.2 219.8-141.1 18-276.7 27-406.4 27m410.3-3619.3c-1518.9 0-2798.3 612.1-2976.1 1423.7-14 63.8-21.2 128.7-21.2 192.9 0 154.1 40.7 271.3 131.8 379.7 35.3 42 78.6 83.2 136.3 129.5 67.5 54 145.2 107.4 235.1 169.2l52.7 36.4c23 15.9 46.7 32.3 70.7 49.3 42.9 30.3 88.9 106.2 142.3 194.1l10.6 17.4c63.7 104.7 133.3 214.1 221.7 300.6 199.7 319 480 544.4 833.4 669.8 329.2 116.9 721.7 147.3 1166.6 90.2 490.9-62.9 853.9-133.4 1142.3-221.9 361.7-111.3 614.3-253.7 772.1-435.5 107.8-88.9 199.3-223.5 280.1-342.4 61.4-90.3 119.4-175.7 166.4-210.7l17.5-13.1c343.6-256.2 614.9-458.5 614.9-812.6 0-5.3 0-10.6-.3-15.9-4.8-284.2-147.5-562.7-412.8-805.5-140.5-128.8-313.7-246.4-514.7-349.5-2.9-1.5-5.2-2.8-7.6-4.1l-1-.5c-558.3-284.4-1290.2-441.1-2060.8-441.1" style="fill:#211d1d;fill-opacity:1;fill-rule:nonzero;stroke:none" transform="matrix(.01365 0 0 -.01365 -286.545 415.453)"/><path d="M28421.5 25099.3c-878.7-45-1495.9 242.4-1863.1 496.5-355.9 246.2-527.1 492.8-534.2 503.2-43 62.6-27 148.2 35.5 191.1 62.5 42.8 147.9 27 191-35.3 1.4-2.1 152.8-217.5 464.1-432.9 343.4-237.7 931.7-507.4 1778.4-442.5 480 36.7 897.5 137 1241.1 298.1 68.9 32.2 150.6 2.6 182.8-66.2 32.3-68.7 2.6-150.5-66.1-182.8-373.8-175.2-823.6-284-1336.8-323.2-31.2-2.4-62.2-4.4-92.7-6" style="fill:#e0c13b;fill-opacity:1;fill-rule:nonzero;stroke:none" transform="matrix(.01365 0 0 -.01365 -286.545 415.453)"/><path d="M28271 25082.2c-852.1 0-1433.4 307.5-1774.8 570.5-328.4 253.2-477.5 493.1-483.7 503.2-11 18-5.4 41.5 12.6 52.5s41.5 5.4 52.5-12.6c2.2-3.6 149.6-239.3 465.3-482.6 343.4-264.7 937.5-575.5 1816.5-553.5 493.1 12.4 927.1 93.7 1289.7 241.5 19.5 8 41.8-1.4 49.8-20.9 7.9-19.6-1.5-41.9-21-49.8-371.2-151.3-814.2-234.5-1316.6-247.1-30.4-.8-60.6-1.2-90.3-1.2" style="fill:#211d1d;fill-opacity:1;fill-rule:nonzero;stroke:none" transform="matrix(.01365 0 0 -.01365 -286.545 415.453)"/><path d="M31285.1 25642.5c-4.6-285.9-150.9-553.5-402.9-784.1-66.3-54.7-138.7-109.7-217.5-164.4-86.2-59.9-183-121-290.5-180.5-3.1-1.6-5.8-3.1-8.6-4.6-532.4-271.3-1253.3-437.7-2046.9-437.7-1520.3 0-2773.7 611.5-2946.2 1399.6-13.5 61.1-20.5 123.4-20.5 186.3 0 155.2 44.3 264.6 124.6 360.2-13.7-117.6-26.6-471.4 240.7-828.7 362.6-484.2 1113.8-786.6 2172.5-874.9 2454.8-204 3347.3 1335.2 3356.2 1350.8z" style="fill:#e0c13b;fill-opacity:1;fill-rule:nonzero;stroke:none" transform="matrix(.01365 0 0 -.01365 -286.545 415.453)"/><path d="M27908.7 27660c-696.6 0-1223.1-259.4-1536.1-761.9l-2-3.2-2.7-2.6c-92.6-89.7-163.3-206.2-225.6-309-56.8-93.6-105.8-174.5-158.9-211.9-45.4-32-88.3-61.5-129.9-90.1-303.6-208.7-470.9-323.6-470.9-624.1 0-60.1 6.6-120.7 19.6-179.9 81.9-373.9 419.7-719.9 951.1-974.4 540.4-258.8 1238.4-401.3 1965.5-401.3 1618.9 0 2936.1 697.8 2936.1 1555.6 0 323.7-248.1 508.6-591.4 764.4l-16.5 12.3c-55.1 41.1-113.1 126.3-180.1 225-79.1 116.3-168.7 248.2-270.7 331.5l-3.8 3.7c-340.6 394.7-1140.2 544.4-1877.5 638.8-141.1 18.1-276.6 27.1-406.2 27.1m410.1-3619.5c-1519 0-2798.5 612-2976.3 1423.7-13.9 63.6-21 128.5-21 193 0 332.6 197.9 468.6 497.4 674.5 41.4 28.4 84.2 57.8 129.3 89.6 42.7 30.1 88.7 105.9 141.9 193.7 63.6 104.9 135.7 223.8 232.6 318.6 199.6 318.9 479.9 544.2 833.3 669.6 329.2 116.9 721.7 147.3 1166.6 90.3 491.4-62.9 854.3-133.4 1142.4-222 361.5-111.2 614.1-253.7 771.9-435.5 108-88.9 199.6-223.7 280.5-342.8 61.3-90.2 119.2-175.4 166.1-210.3l16.5-12.3c344.2-256.5 616-459 616-813.4 0-435.5-314.3-843.4-885.1-1148.5-564.7-301.9-1314.8-468.2-2112.1-468.2" style="fill:#211d1d;fill-opacity:1;fill-rule:nonzero;stroke:none" transform="matrix(.01365 0 0 -.01365 -286.545 415.453)"/><path d="M29535.4 27169.5c-11-162.2-73-313.7-174.1-435.3-36.4-44-77.9-84-124.1-119.1-28.4-22-58.9-41.9-91-59.9-225.1-125.8-529.1-252.6-826.9-241.6-75.5 2.8-147.8 9.8-216.9 20.8-255.7 39.4-465.5 127-625.3 217.5-21.1 11.9-41.2 24.7-60.8 38.5-192.1 134.7-312.8 351.9-323.1 588.9-18.4 431.3-17.5 807 11.3 1247.5.9 14.1 2.4 27.8 4.5 41.6 7.1 44.2 20.5 87.6 40.4 128.3 171.3 354.3 528.7 618.5 1132.3 631.7 619.8 13.7 1023.3-239.5 1212.4-607 20.2-39.1 31.8-82.2 35.2-125.8 2.1-28.5 4.2-56.6 6.1-84.7 29.6-425.2 27.5-838.2 0-1241.4" style="fill:#ead46d;fill-opacity:1;fill-rule:nonzero;stroke:none" transform="matrix(.01365 0 0 -.01365 -286.545 415.453)"/><path d="M28329.4 29198.3c-15.5 0-31.2-.1-47-.5-675.2-14.7-973.9-342.2-1105.5-614.4-18.4-37.6-31-77.8-37.7-119.8-2-13-3.4-25.7-4.3-38.8-27.2-417.5-30.5-789.6-11.2-1244.2 9.8-224.6 125.8-436 310.2-565.2 19-13.4 38.6-25.8 58.3-37 191.9-108.6 398.8-180.5 614.9-213.8 68.4-10.9 140.1-17.8 213.3-20.5 298.9-11 606 123.2 810.9 237.8 31.7 17.8 61.1 37.1 87.2 57.4 44.1 33.5 84.2 72 119.2 114.4 98.9 118.9 156.7 263.4 167.2 417.9 28.3 414.9 28.3 831.1 0 1237.2-1.8 27-3.8 53.9-5.8 81l-.3 3.4c-3.1 40.4-14.1 79.8-31.8 114.2-196.6 382.1-599.6 590.9-1137.6 590.9m25.7-2915.9c-12.3 0-24.6.2-36.9.7-75.7 2.7-149.9 9.8-220.6 21.1-223.3 34.4-437.1 108.8-635.5 221.1-21.4 12.1-42.7 25.6-63.3 40.1-199.8 140-325.5 369-336.2 612.5-19.4 457-16 831 11.4 1250.9.9 14.9 2.5 29.4 4.9 44.3 7.6 48 22.1 94.1 43 137 139 287.4 453 633.4 1159.2 648.8 302.2 6.8 565.6-48.5 782.7-164.1 202-107.6 356-262.1 457.5-459.4 21.7-42.2 34.6-88.4 38.4-137.5l.3-3.5c2-27.3 4.1-54.4 5.8-81.5 28.5-408.7 28.5-827.8 0-1245.5-11.3-167.3-73.9-323.9-181.1-452.7-37.9-45.9-81.4-87.6-129-123.9-28.2-21.9-60.1-42.9-94.5-62.2-203.5-113.7-505.1-246.2-806.1-246.2" style="fill:#211d1d;fill-opacity:1;fill-rule:nonzero;stroke:none" transform="matrix(.01365 0 0 -.01365 -286.545 415.453)"/><path d="M28102.4 26365.3c-214.4 33.6-419.7 105.3-610.2 213.1-19.7 11.2-39.3 23.6-58.3 37-6.3 4.4-12.5 8.9-18.7 13.5l-45.9 1580.1 733.1-38.2z" style="fill:#faf7de;fill-opacity:1;fill-rule:nonzero;stroke:none" transform="matrix(.01365 0 0 -.01365 -286.545 415.453)"/><path d="M28102.4 26334.4c-255.7 39.4-465.5 127-625.3 217.5-21.1 11.9-41.2 24.7-60.8 38.5l-1.1 38.5c6.2-4.6 12.4-9.1 18.7-13.5 19-13.4 38.6-25.8 58.3-37 190.5-107.8 395.8-179.5 610.2-213.1z" style="fill:#c8c6c4;fill-opacity:1;fill-rule:nonzero;stroke:none" transform="matrix(.01365 0 0 -.01365 -286.545 415.453)"/><path d="m29237.1 26653.9-4.5 1702.7 168 40.9-38.1-1612.4c-8-10.7-16.2-21.1-24.8-31.4-30-36.4-63.8-69.8-100.6-99.8" style="fill:#faf7de;fill-opacity:1;fill-rule:nonzero;stroke:none" transform="matrix(.01365 0 0 -.01365 -286.545 415.453)"/><path d="m29237.2 26615.1-.1 38.8c36.8 30 70.6 63.4 100.6 99.8a743 743 0 0 1 24.8 31.4l-1.2-50.9c-36.4-44-77.9-84-124.1-119.1" style="fill:#c8c6c4;fill-opacity:1;fill-rule:nonzero;stroke:none" transform="matrix(.01365 0 0 -.01365 -286.545 415.453)"/><path d="M29535.4 28410.9c-134.1-111.8-289.6-188.1-289.6-188.1-251.4-138.1-799.7-241-1226.5-179.6-464 66.8-683.9 180.2-782.3 270.6-35.7 33-80.3 88.6-128 154.6 7.1 44.3 20.5 87.6 40.4 128.3 171.3 354.3 528.7 618.5 1132.3 631.7 619.8 13.7 1023.3-239.5 1212.4-607 20.2-39.1 31.8-82.2 35.2-125.8 2.1-28.5 4.2-56.6 6.1-84.7" style="fill:#f6efc1;fill-opacity:1;fill-rule:nonzero;stroke:none" transform="matrix(.01365 0 0 -.01365 -286.545 415.453)"/><path d="M28328.8 29198.4c-15.4 0-30.8-.2-46.4-.5-675.3-14.8-974-342.3-1105.6-614.5-24.3-50.1-38.4-103.5-42-158.7-27.2-419.6-30.5-791.6-11.1-1243.9 10.7-252.2 148.6-477.3 368.6-602.3 254.7-144.5 533.3-223.4 828.2-234.3 298.8-11.2 605.9 123.1 810.8 237.6 217.2 121.4 356.9 341.9 373.7 589.8 30 443 27.9 887.6-6.2 1321.4-3.3 41.3-13.9 79.8-31.7 114.3-196.6 382.2-599.8 591.1-1138.3 591.1m26.5-2916c-12.3 0-24.7.3-37.1.7-304.7 11.3-592.8 92.8-856 242.3-238.5 135.4-387.9 379.4-399.6 652.7-19.4 454.7-16.1 828.7 11.3 1250.6 4.1 63.1 20.2 124.1 47.9 181.3 139 287.6 453.1 633.5 1159.2 649 302.4 6.7 565.7-48.7 782.9-164.2 202.1-107.6 356-262.2 457.5-459.5 21.5-41.8 34.4-88.1 38.3-137.5 34.3-436.8 36.4-884.4 6.2-1330.3-18.1-268.6-169.5-507.5-404.8-639-203.3-113.7-504.8-246.1-805.8-246.1" style="fill:#211d1d;fill-opacity:1;fill-rule:nonzero;stroke:none" transform="matrix(.01365 0 0 -.01365 -286.545 415.453)"/><path d="M28294.9 27986.4c-95.7 0-190.5 6-281.1 19-475 68.5-698.2 189.8-801.7 279.5-15.9 13.8-17.7 37.9-3.9 53.9 13.9 15.9 38 17.6 53.9 3.8 95.8-83 305.9-195.8 762.6-261.6 418.9-60.3 960 41.9 1202.7 175.2 18.5 10.2 41.7 3.4 51.8-15 10.2-18.5 3.4-41.8-15-51.9-201.4-110.6-592-202.9-969.3-202.9" style="fill:#211d1d;fill-opacity:1;fill-rule:nonzero;stroke:none" transform="matrix(.01365 0 0 -.01365 -286.545 415.453)"/><path d="M27746.3 24702.2c-66.4 0-132.8 1.7-199.3 5.5-245.8 12.4-491.9 50.2-732.8 119.3-120.6 33.5-238.8 79.6-354 133.8-28.9 11.6-58 30.4-86.7 46.2-29.4 15.6-55.6 35.2-82.8 53.8-27.4 18.3-51.9 39.7-77 60.5-25.7 20.1-48.2 43.4-71.3 66-91.2 91.3-167.3 194.4-229 304.1-61.2 109.7-109.6 226.4-134.9 349.2l4.7 2.1c156.5-191.4 311.7-369.8 487.7-514.7 88.4-72.1 179-134.3 279.3-183.3 52.8-23.3 103.4-50.6 158.5-69.9l81.1-32.2c27.1-10.6 55.4-18.7 83-28.2 222.2-74.3 454.3-128.6 690-170.4 235.9-42.5 475-75.8 717.8-102.1-60.3-10.7-121.1-17.9-182-23.8l-91.6-7.8-91.7-4.5c-56.3-2.4-112.6-3.6-169-3.6m598.7 1005.9c-143.7 0-287.5 12.7-428.8 38.4-183 33.5-363.6 83.7-534.9 162.6-42.2 21.2-85.2 40-125.6 64.9-20.3 12.2-41.2 23-60.7 36.4l-58.3 40.5c-75.5 56.8-147.6 118.6-208.2 190.8-60.7 71.7-113 149.6-156.2 231.2-42.4 82.2-76.6 167.4-104.5 254l28.4 11.4c40.4-80.1 84.5-157.5 134.2-230.3 49.8-72.7 107.6-138.5 169.8-198.3 61.5-60.7 132.5-110.3 205.3-155l56.1-31.5c18.8-10.2 38.6-18.8 57.7-28.4 37.9-20 79-34.2 118.5-50.7 40.5-14.8 81.7-28 122.9-40.7 42.2-10.5 83.3-23.6 126.1-32 84.7-18.4 171.1-34.6 257.2-44.7 99.7-12.9 200.1-19 300.5-19 72.5 0 145.1 3.2 217.4 9.2 172.3 15.3 343.5 46.5 510.2 93.8 167 46.2 329.3 108.9 484 184 76.3 38.9 151.8 80 220.8 127 65.9 46 126.6 94.2 177.1 150.9 50.7 56.3 90 121.3 116.1 197.1s39.9 161.6 36.4 256.4c31.8-35.9 55.4-79.8 71.3-126.4 15.4-46.6 26.1-96.9 25.9-148.2 2.6-102.8-29.1-209.6-85.8-298-56.3-89.2-134.4-159-215.2-217-79.9-54.5-162.9-99.8-247-142.7-338.1-164.6-705.3-262.4-1079.8-282.2-43.6-2.3-87.2-3.5-130.9-3.5" style="fill:#faf7dd;fill-opacity:1;fill-rule:nonzero;stroke:none" transform="matrix(.01365 0 0 -.01365 -286.545 415.453)"/></g></svg>