<svg xmlns="http://www.w3.org/2000/svg" width="200mm" height="200mm" viewBox="0 0 200 200"><g style="display:inline"><path d="M20238.2 14841.6c-107 32.1-448.2 35-592.4-119.9-6.4-6.8.3-20.1 8.8-17.6 116 33.9 575.1 53.9 612.8 10.1 26.9-31.2 28.2 23.9 25.1 72-2.1 32.5-19.3 44.9-54.3 55.4" style="fill:#fff;fill-opacity:1;fill-rule:nonzero;stroke:none" transform="matrix(.02504 0 0 -.02504 -422.651 434.616)"/><path d="M20076.5 14824.9c-104.6 0-233.3-17.9-328.2-68.9 74 9 165.6 14.8 241.1 16.9 160.6 4.6 234.1-4.7 269.6-15.7-.1 7.3-.5 16.1-1.1 26.8-.8 11.5-1.1 15.8-29.7 24.4-32.8 9.8-87.7 16.5-151.7 16.5m-424-155.8c-14.7 0-28.6 7.7-36.9 21.1-10.9 17.7-8.9 40.4 4.8 55.2 160.2 172.1 518.6 162.3 627.7 129.5 37-11.2 75.4-30.1 79-86.4 4.1-63.3.4-102.4-30.8-115.1-8.6-3.5-30.5-8.7-53.2 15.9-52.9 27.7-464.8 14.8-578.8-18.5-3.9-1.2-7.9-1.7-11.8-1.7" style="fill:#211d1d;fill-opacity:1;fill-rule:nonzero;stroke:none" transform="matrix(.02504 0 0 -.02504 -422.651 434.616)"/><path d="M20819.9 12372.5c-16 6.6-24.5 27.9-17.9 44.9 36.9 95.3 170.7 325.3 360.1 396.6 214.2 80.7 454.5 23.6 598.3-154.4 9.7-12 4.6-30.6-8.8-30.9-11.6-.2-26.9.4-46.5 2.8-54 6.6-338.7 110.8-505.3 9.4-131.8-80.1-271.5-335-271.5-335z" style="fill:#fff;fill-opacity:1;fill-rule:nonzero;stroke:none" transform="matrix(.02504 0 0 -.02504 -422.651 434.616)"/><path d="m20834.7 12403.9 3.3-1.9 78-47.8c43 72.6 154.9 249 265.8 316.4 148.7 90.5 373.5 33.4 481.6 6 20-5.1 37.3-9.5 45.3-10.6-133.5 140.7-343.4 187.4-534.4 115.5-185.5-69.8-310.7-301.1-339.9-376.6zm106.5-146.6-137.6 84.5c-31.4 15-46.9 54.6-34 88.1 34.5 89 169.9 337.4 380.3 416.6 231.2 87.1 487.4 20.7 637.5-165.1 13.5-16.8 16.6-40 7.7-59.1-8-17.1-24.3-27.9-42.8-28.3-15.4-.2-32.7.7-51.4 3-12 1.5-29.9 6-54.6 12.3-98.9 25.1-304.7 77.3-428.5 2-122.2-74.4-257.7-319.6-259.1-322.1z" style="fill:#211d1d;fill-opacity:1;fill-rule:nonzero;stroke:none" transform="matrix(.02504 0 0 -.02504 -422.651 434.616)"/><path d="M21494.1 12919.5s-47.1 236.4-189.1 224c-121.4-10.5-273.7-160.3-403.8-222.9-122.7-58.9-287.3-115.2-432.9-96.3-258.2 33.6-578.7 149.3-747.6 560 0 0-3.2 20.2 12.6 58.7 66.8-103.3 218.5-263 396.8-368 172.7-101.7 346.3-98.3 440.6-84.8 137.9 19.6 398.7 177.8 465.7 219.7 77.3 48.4 203.8 103 305.6 81.9 116.4-24.1 186.3-183.3 213.3-235.3 27-52.1-61.2-137-61.2-137" style="fill:#fff;fill-opacity:1;fill-rule:nonzero;stroke:none" transform="matrix(.02504 0 0 -.02504 -422.651 434.616)"/><path d="M19793.4 13309.8c136.1-261.6 359.2-409.4 679.4-451 142.9-18.6 303.6 40.4 413.3 93.1 46.9 22.5 99.3 58.7 150 93.7 89.1 61.5 181.3 125.2 265.9 132.5 117.7 10.2 179.3-107.4 207.1-185.5 12.8 20.2 20 39 15.4 47.9-2.4 4.6-5.2 10-8.2 16.2-27.4 54.6-91.5 182.5-181.3 201.1-86.8 18-201.6-28.1-280.2-77.3-75.9-47.5-334.8-204.1-479.2-224.7-93.7-13.3-278.5-19.5-463.1 89.3-124.4 73.2-237.7 173.9-319.1 264.7m734.7-523.9c-21.6 0-43 1.3-64.3 4-375.9 48.9-636.7 244.4-775.2 581.2l-1.5 3.7-.6 4c-1.2 7-3.4 33.2 14.7 77.3l25.2 61.4 36-55.7c65.5-101.2 214-256 385.3-356.9 166.4-98.1 333.4-92.4 418.2-80.4 134.2 19.1 400.1 182.3 452.1 214.8 43.7 27.3 196.6 114.4 331 86.5 122.8-25.5 194.8-169.1 229.3-238.1 2.9-5.7 5.5-10.9 7.8-15.3 37.1-71.4-50.1-160.7-68-177.9l-45.7-44-12.4 62.2c-.5 2.5-44.6 205.7-152 196.3-66.2-5.8-150.8-64.1-232.5-120.6-52.9-36.4-107.5-74.2-159.3-99-102.5-49.3-247.2-103.5-388.1-103.5" style="fill:#211d1d;fill-opacity:1;fill-rule:nonzero;stroke:none" transform="matrix(.02504 0 0 -.02504 -422.651 434.616)"/><path d="M21730.2 12309.2c-256.5 359.8-829.1 1142.3-1361.3 1867.1-5.2-32.1-36.8-58.4-54.3-82.4-7-9.8-15.2-12.3-24-11.3 657.6-896.6 1358-1851.6 1360.3-1855 51.2-74.2 767.1-1010.2 802.9-994.4 41.2 18.4-665.9 995.1-723.6 1076" style="fill:#e6f6f4;fill-opacity:1;fill-rule:nonzero;stroke:none" transform="matrix(.02504 0 0 -.02504 -422.651 434.616)"/><path d="M20345.8 14071.9c1333.5-1818.2 1335.4-1821 1336.5-1822.5 35.9-52.2 297.4-394.2 510.1-660.4-102.5 149.6-251 360.8-465.4 659.1-13.4 18.7-23 32-27.9 38.9-208.6 292.6-666.4 920.7-1325.3 1818.2-4.5-5.5-9-10.7-13.2-15.6-5.6-6.4-10.9-12.5-14.8-17.7m2106.1-2877.9c-25.4 0-58.1 31-160.7 152.9-66.3 78.8-154.8 188.5-263.1 326.1-192.5 244.7-382.8 495.5-408.7 533-9.7 13.5-1025.7 1398.8-1359.6 1854l-52.1 71 79.9-9.6c4.9 6.3 10.2 12.4 15.3 18.3 12.4 14.2 26.3 30.3 28.4 42.7l14.5 89.9 53.9-73.4c687.9-936.9 1146-1565.2 1361.6-1867.6 4.9-6.8 14.4-20.1 27.7-38.6 720.8-1002.6 711-1038.6 703.2-1067.5-3.3-12.1-11.6-21.9-22.9-26.9-6-2.6-11.5-4.3-17.4-4.3" style="fill:#211d1d;fill-opacity:1;fill-rule:nonzero;stroke:none" transform="matrix(.02504 0 0 -.02504 -422.651 434.616)"/><path d="M21101.5 14000.8c56.6-89.3 143.9-261.1 38.6-448.3-105.2-187.2-318.9-509-817.3-220.2-209.5 121.3-307.5 337.8-223.8 540.8 111.4 270.1 247.8 415.3 501.4 382.2 301.9-39.4 445-166.1 501.1-254.5" style="fill:#cf3456;fill-opacity:1;fill-rule:nonzero;stroke:none" transform="matrix(.02504 0 0 -.02504 -422.651 434.616)"/><path d="M20530.2 14221.9c-175.9 0-290.4-107.6-395.9-363.4-74.2-180 9.2-378.2 207.7-493.2 170-98.5 319.7-131.1 444.9-96.9 155.8 42.5 249.1 177 319.9 302.8 70.2 124.9 57.9 258.7-37.6 409.2-36.4 57.4-155.5 195.5-473.7 237-22.7 3-44.4 4.5-65.3 4.5m155.7-1043.1c-115.9 0-243.9 40.3-382.2 120.4-233 135-329.4 371.5-240 588.4 92.1 223.5 228.5 446.5 541.6 405.5 350.2-45.6 486.2-205.3 528.4-271.8 110.4-174 123.7-338 39.7-487.5-73.9-131.5-182.4-288.8-366.4-339.1-38.7-10.6-79.1-15.9-121.1-15.9" style="fill:#211d1d;fill-opacity:1;fill-rule:nonzero;stroke:none" transform="matrix(.02504 0 0 -.02504 -422.651 434.616)"/><path d="M20798.7 14080.1s-89.6-135.1 41.9-215.9c112-68.8 167.8 18.5 167.8 18.5z" style="fill:#cf3456;fill-opacity:1;fill-rule:nonzero;stroke:none" transform="matrix(.02504 0 0 -.02504 -422.651 434.616)"/><path d="M20922.6 13807.1c-28.5 0-61.4 8.6-98 31.1-45 27.6-72.8 64.1-82.5 108.2-17 76.9 29.2 147.6 31.1 150.6 9.4 14.1 28.3 17.9 42.4 8.6 14-9.3 17.9-28.2 8.6-42.3-.5-.8-33.9-52.9-22.4-104.1 6.2-27.6 24.1-50.1 54.8-69 85.4-52.5 124.4 6.4 126 8.9 9.1 14.3 28 18.4 42.2 9.3s18.4-28 9.3-42.2c-16.5-25.8-55.4-59.1-111.5-59.1" style="fill:#211d1d;fill-opacity:1;fill-rule:nonzero;stroke:none" transform="matrix(.02504 0 0 -.02504 -422.651 434.616)"/><path d="M20885.9 13929.9c-10.7 0-21.2 4.4-28.8 13-13.9 15.9-12.3 40 3.6 53.9 3.5 3.1 351.3 310.8 408.9 628.6 3.7 20.7 23.5 34.6 44.3 30.8s34.6-23.7 30.8-44.4c-62.3-344.3-418.6-659.2-433.7-672.5-7.3-6.3-16.2-9.4-25.1-9.4" style="fill:#211d1d;fill-opacity:1;fill-rule:nonzero;stroke:none" transform="matrix(.02504 0 0 -.02504 -422.651 434.616)"/><path d="M20496.5 13957.1c28.2 29 21.1 57.5 13.3 74.3-592.8 807.4-939.9 1209.8-939.9 1209.8l-74.6-93.8s329.7-400.3 912.3-1194.7c10.2-7.4 51.9-33.5 88.9 4.4" style="fill:#e6f6f4;fill-opacity:1;fill-rule:nonzero;stroke:none" transform="matrix(.02504 0 0 -.02504 -422.651 434.616)"/><path d="M20434.5 13980.7c19.8-12 30.5-1.2 34.6 3.1 9.5 9.8 11.7 17.5 7.4 28.5-486.4 662.2-809.6 1054.3-905.7 1168.7l-26.5-33.3c79-97.5 394.4-491.2 890.2-1167m18.1-81.9c-25.3 0-49.3 9.9-67.4 23l-4.8 3.5-3.6 4.8c-575.3 784.5-907.7 1189.1-911 1193l-19.6 23.9 122.5 154.1 30.1-34.9c3.5-4.1 354.9-412.9 941.8-1212.2l2.2-3 1.6-3.4c19.2-41.3 11.7-84-20.6-117.1-22.3-22.9-47.4-31.7-71.2-31.7" style="fill:#211d1d;fill-opacity:1;fill-rule:nonzero;stroke:none" transform="matrix(.02504 0 0 -.02504 -422.651 434.616)"/><path d="M19801.9 15271.9c11.3-133.3-94.7-251.1-236.7-263.1-142-11.9-266.2 86.5-277.4 219.8-11.3 133.3 94.7 251.1 236.7 263.1 142 11.9 266.2-86.5 277.4-219.8" style="fill:#e6f6f4;fill-opacity:1;fill-rule:nonzero;stroke:none" transform="matrix(.02504 0 0 -.02504 -422.651 434.616)"/><path d="M19548 15454.5c-6.7 0-13.5-.3-20.3-.9-120.8-10.2-211.3-109.7-201.9-221.8 4.6-53.9 31.3-102.7 75.4-137.6 44.7-35.5 101.8-52.3 160.8-47.3 120.8 10.2 211.3 109.7 201.9 221.8-4.5 53.9-31.3 102.7-75.3 137.6-39.6 31.4-88.9 48.2-140.6 48.2m-6.3-484.8c-68.9 0-134.8 22.5-188 64.6-60.7 48.1-97.7 116-104 191.1-13 154.1 108.9 290.6 271.6 304.3 78.4 6.6 154.6-15.9 214.7-63.5 60.7-48.1 97.7-116 104-191.1 13-154.1-108.9-290.6-271.6-304.3-8.9-.8-17.9-1.1-26.7-1.1" style="fill:#211d1d;fill-opacity:1;fill-rule:nonzero;stroke:none" transform="matrix(.02504 0 0 -.02504 -422.651 434.616)"/><path d="M19993.3 14084.6c144 157.2 415.4 356.4 379.8 560.4-7.7 43.8-62.3 128.1-86.9 164.4-3.5 5.2-9.9 2.5-9.5-3.8 2.1-35.3-1.2-109.9-52.8-186.8-179-266.7-779.8-662.5-538.1-1201.7 89.4-199.4 176.9-275.2 187.1-289.9-23.5 45.1-80.3 255.5-90 329.7-36.2 274.9 127 536.6 210.4 627.7" style="fill:#f5f014;fill-opacity:1;fill-rule:nonzero;stroke:none" transform="matrix(.02504 0 0 -.02504 -422.651 434.616)"/><path d="M19993.3 14084.6h.1zm310.3 632.2c-8.1-35.6-23.3-76.2-50.9-117.3-43.7-65.2-111.7-137.8-183.6-214.6-234.8-250.6-526.9-562.5-351.6-953.7 21-46.8 41.8-86.6 61.5-120.1-14.6 56.8-26.5 110.9-30.5 141.3-39.3 298.5 144.9 574.5 219.2 655.6 31.3 34.2 67.7 69.5 106.3 107 135.8 131.9 289.8 281.5 264.9 424-2.8 15.6-15.4 43.3-35.3 77.8m-459.3-1609.3c-1.1 1.4-3.8 4.2-7.3 8.1-28.9 31.3-105.4 114.4-182.9 287.3-194.2 433.2 128.6 777.9 364.3 1029.5 70 74.7 136.1 145.2 176.7 205.7 45.4 67.7 48.9 132.7 46.9 165.4-1.1 18.8 9.8 35.4 27.1 41.2 17 5.8 35.5-.5 45.8-15.8 37.7-55.6 84.2-131.6 92.3-178 31.3-178.6-136.7-341.8-284.8-485.7-37.9-36.7-73.6-71.4-103.5-104.1-68.2-74.5-237.4-327.4-201.6-599.7 9.5-72.4 65.2-277.6 86.3-318.1z" style="fill:#211d1d;fill-opacity:1;fill-rule:nonzero;stroke:none" transform="matrix(.02504 0 0 -.02504 -422.651 434.616)"/><path d="M21470.6 13162.4c-.8 8.8 8.5 12.4 13.5 5.2 33.8-48.7 116.3-166.4 137.8-231.7 62-188.9-195.3-572.8-401.3-664.9-194.5-87-336.3-37.7-351.5-31.9-1 .4-1.6 1.1-2.2 2.1l-71.4 146.6c-1.7 3.5.8 7.2 3.9 5.8 32.5-14.8 150.1-55.4 308.8 37 176 102.5 249.6 217.2 333.6 409.6 54.2 124.1 33.8 263.3 28.8 322.2" style="fill:#f5f014;fill-opacity:1;fill-rule:nonzero;stroke:none" transform="matrix(.02504 0 0 -.02504 -422.651 434.616)"/><path d="M20892.6 12267.8c37.1-11.1 155.6-35.9 313.9 34.9 189.8 84.9 438.2 452.5 382.4 622.4-11.6 35.2-44.5 90-76 138.3 2.2-68.9-3.5-155.1-39.3-237-86.6-198.5-164.2-318.8-347.9-425.8-111.9-65.2-206.4-69-269-59.2zm101.7-82.3c-77.8 0-128.3 17.6-137.5 21.2-9.3 3.6-16.7 10.4-21.1 19.4l-71.4 146.4c-7.3 15-4.6 33 6.8 44.7 11.1 11.3 28.2 14.5 42.7 8 28.5-13 132.7-48.6 276.9 35.4 168.2 97.9 237 204.9 319.3 393.5 45.5 104.2 34 222.7 27.8 286.4q-1.05 10.5-1.8 18.9c-1.7 20 9.4 37.8 27.6 44.3 18 6.5 37.7 0 49-16.3l3.5-5.1c37.8-54.4 116.4-167.7 138.7-235.5 32-97.2-5.8-242.3-103.6-398.1-90.5-144-211.7-262.6-316.4-309.4-93.6-41.8-176.3-53.8-240.5-53.8" style="fill:#211d1d;fill-opacity:1;fill-rule:nonzero;stroke:none" transform="matrix(.02504 0 0 -.02504 -422.651 434.616)"/></g></svg>