<svg xmlns="http://www.w3.org/2000/svg" width="200mm" height="200mm" viewBox="0 0 200 200"><g style="display:inline"><path d="M19471.3 31110.7c-.6-104.2-19.7-293-206.6-392.2-186.9-99.1-535.3-252.2-794.8 252.4-109 212.1-75.1 443.7 102.3 567.5 236.1 164.6 426.5 212.4 619.1 50 229.3-193.3 280.5-374.5 280-477.7" style="fill:#cf3456;fill-opacity:1;fill-rule:nonzero;stroke:none" transform="matrix(.03528 0 0 -.03528 -580.472 1200.111)"/><path d="M19471.3 31110.7h.1zm-528.9 541c-99.1 0-210.2-47.6-348.7-144.2-157.3-109.7-193.6-318.5-90.3-519.4 88.5-172.2 195.2-278.9 317.2-317.2 151.9-47.6 300.8 14.2 426.5 80.9 124.6 66.1 185.6 183.6 186.6 359.1.3 67-24.9 244.9-266.6 448.7-72.5 61.1-144.7 92.1-224.7 92.1m-11.4-1072.6c-43.6 0-88.1 6-132.9 20.1-141.9 44.5-263.6 163.7-361.6 354.5-121.3 235.9-75.4 483.3 114.2 615.5 195.3 136.2 427 248.4 664.9 47.9 266-224.2 293.7-429 293.3-506.6-1.1-202.9-77.3-346-226.6-425.2-98.4-52.2-220.7-106.2-351.3-106.2" style="fill:#211d1d;fill-opacity:1;fill-rule:nonzero;stroke:none" transform="matrix(.03528 0 0 -.03528 -580.472 1200.111)"/><path d="M19172.9 31399.8s-152.3-47.9-101.7-191.3c43.1-122.1 139.9-89.8 139.9-89.8z" style="fill:#cf3456;fill-opacity:1;fill-rule:nonzero;stroke:none" transform="matrix(.03528 0 0 -.03528 -580.472 1200.111)"/><path d="M19182.5 31084.3c-46.6 0-107.8 24-139.7 114.2-17.3 49.1-16 94.2 3.9 134 34.7 69.4 113.9 95 117.2 96 15.9 5 32.8-3.8 37.8-19.7 4.9-15.8-3.8-32.6-19.6-37.7-1.3-.4-58.8-19.6-81.7-65.8-12.3-25-12.6-53.4-.8-86.8 31.1-88.2 90.7-74.8 102.3-71.2 15.8 4.9 32.7-3.8 37.7-19.5 5.1-15.7-3.3-32.5-19-37.7-10.3-3.4-23.5-5.8-38.1-5.8" style="fill:#211d1d;fill-opacity:1;fill-rule:nonzero;stroke:none" transform="matrix(.03528 0 0 -.03528 -580.472 1200.111)"/><path d="M19170.2 31222.4c-20.2 0-36.9 16-37.6 36.3-.7 20.8 15.6 38.2 36.3 38.9 5.9.2 599.7 26.9 973.1 478.2 13.3 16 37 18.2 53 5 16-13.3 18.2-37 5-53-395.5-477.9-1002.8-504.5-1028.5-505.4z" style="fill:#211d1d;fill-opacity:1;fill-rule:nonzero;stroke:none" transform="matrix(.03528 0 0 -.03528 -580.472 1200.111)"/></g></svg>