<svg xmlns="http://www.w3.org/2000/svg" width="200mm" height="200mm" viewBox="0 0 200 200"><path d="M38483.8 30873.1s-80.6 301.4-852.9 717.9c-822.9 443.7-1225.1 362.4-1311.7 108.3-95.6-280.4 116.6-965 116.6-965l1194-605 779.4 528.2z" style="fill:#fbf6d4;fill-opacity:1;fill-rule:nonzero;stroke:none" transform="matrix(.02254 0 0 -.02254 -737.15 789.536)"/><path d="m36461.3 30755.6 1166.2-590.9 756.1 512.4 67.8 195.8c-20.1 49.7-157.5 325.9-835 691.2-671.4 362-985.6 332.2-1113.1 282.2-77.9-30.6-130.2-83.4-155.2-156.8-84.4-247.8 85.5-840.9 113.2-933.9M37632 30094l-1221.6 618.9-3.8 12.3c-8.8 28.4-214 697.4-116.3 984 30.6 89.9 96.6 157 190.7 193.9 167.8 65.8 506 69.8 1164.4-285.2 775-417.9 864.5-724.1 867.9-736.9l2.4-9.1-81-234z" style="fill:#211d1d;fill-opacity:1;fill-rule:nonzero;stroke:none" transform="matrix(.02254 0 0 -.02254 -737.15 789.536)"/><path d="M36949.3 31473.4s325-5.7 624-205c16-10.6 24.1-29.8 21.1-48.8-13.6-86.4-59-327.8-153-410.7-115.3-101.6-452.5 141.4-452.5 141.4l-179.3 446.9c-3.1 7.8-.7 16.7 5.9 21.8 38.7 30.2 85.1 49 133.8 54.4" style="fill:#fefbf0;fill-opacity:1;fill-rule:nonzero;stroke:none" transform="matrix(.02254 0 0 -.02254 -737.15 789.536)"/><path d="M37013.9 30969.9c124-87.7 338.1-199.1 407.3-138.1 87.6 77.3 131.6 320 143 392.5 1.2 7.4-1.9 14.8-7.9 18.7-276 184-579.2 198.8-605.7 199.8-39.5-4.7-77.1-19.4-109.3-42.6zm351.1-215.9c-150.7 0-364.7 150.4-393.9 171.5l-7.2 5.2-182.6 455.2c-8.2 20.2-1.8 43.8 15.4 57.2 43.2 33.7 94.8 54.7 149.3 60.6l1.9.3 2-.1c13.6-.2 337.4-8.1 640.3-210 25.7-17.2 39.2-48.2 34.3-79.1-15.6-99.5-62.8-340.5-162.9-428.8-25.8-22.7-59.2-32-96.6-32" style="fill:#211d1d;fill-opacity:1;fill-rule:nonzero;stroke:none" transform="matrix(.02254 0 0 -.02254 -737.15 789.536)"/><path d="M38386.5 31017.1s34-113.3-98.6-147.2c-146-37.3-242.1-53.2-530.9 27.8-288.7 81.1-889.3 473.1-892 509.7-2.1 27.8 67.6 61.1 67.6 61.1s-113.6 16.7-139.3-81.5c-25.7-98.1-46.9-188.2-46.9-188.2l756.6-449.5 815.5-92.5 168.4 160.2s-24.9 133.8-100.4 200.1" style="fill:#f6fcfb;fill-opacity:1;fill-rule:nonzero;stroke:none" transform="matrix(.02254 0 0 -.02254 -737.15 789.536)"/><path d="m37510.5 30771.4 799.9-90.7 151.4 144c-5.8 24.2-21.7 81.1-52 129.1-2.6-11.5-6.8-23.5-13.5-35.3-19.5-34.5-54-58.2-102.7-70.7-148-37.9-246.2-55.2-542.8 28-177.7 49.8-450 208.1-558.9 273.9-89.4 54-174.7 109.2-240.1 155.4-107.7 75.9-108.7 89-109.6 100.6-.6 7.9 1.3 15.6 5 22.8-14-9.8-25.9-24.7-31.8-47.3-19-72.4-35.6-141-42.9-171.3zm816-138.5-830.9 94.3-4.2 2.5-771.1 458.1 3.9 16.3c.2.9 21.6 91.4 47.1 188.7 24.4 93.3 118.4 105.1 164.7 98.3l73.9-10.8-67.4-32.4c-22.6-10.8-45.9-27.3-52.9-36.8 57.2-61.8 596.6-413.7 873.6-491.4 285.3-80 378.6-63.6 519.1-27.7 36.1 9.3 61.1 25.7 74.3 48.9 18.4 32.6 8.1 69.3 8 69.7l-22.8 76.2 59.8-52.5c80.4-70.8 106.6-207.3 107.7-213.1l2.3-12.2z" style="fill:#211d1d;fill-opacity:1;fill-rule:nonzero;stroke:none" transform="matrix(.02254 0 0 -.02254 -737.15 789.536)"/><path d="M38110.3 30206.3s5.4 7.2 14.8 20.3c44.1 61.4 184.5 243.5 298.9 400.5 58.2 79.8 84.1 163 61.6 237.1 0 0-355.4-198.9-848.9 1.2-441.8 179.3-770.4 452.5-834.3 507.7-5.8 5-14.7 3.2-18.2-3.6l-283.2-548.2s1323-689.6 1461.9-653.5c139 36.1 147.4 38.5 147.4 38.5" style="fill:#efd83e;fill-opacity:1;fill-rule:nonzero;stroke:none" transform="matrix(.02254 0 0 -.02254 -737.15 789.536)"/><path d="M36531.7 30831c510.3-265.2 1331.8-665.6 1425.5-641.1 91.9 23.8 126.6 33 139.5 36.4 2.4 3.3 5.8 7.9 9.9 13.6 18.8 26.2 54.1 73 98.8 132.3 59.8 79.2 134.3 177.9 200.2 268.3 35.5 48.7 73 119 63.9 190.3-93.6-42.6-415.4-159.3-841.3 13.5-424.9 172.3-746.9 431.9-830.1 502.4zm1417.3-687.9c-47.7 0-194.2 35.3-779.1 317.3-344.4 166.2-676.1 338.9-679.5 340.6l-20.1 10.6 293.6 568.4c4.9 9.5 13.7 16.1 24.2 18.1 10.5 2.1 21.2-.8 29.2-7.8 61.2-52.8 388.8-325.6 828-503.7 477.8-193.8 825.6-4.4 829.1-2.5l24.8 13.9 8.2-27.1c23.6-77.7 1.1-166.6-64.9-257.3-66.1-90.7-140.7-189.5-200.7-268.9-44.5-59-79.6-105.6-98.1-131.4-9.6-13.3-15.2-20.7-15.2-20.7l-4.5-6.1-7.3-2.1c-.9-.3-12.6-3.6-148-38.7-4.4-1.1-10-2.6-19.7-2.6" style="fill:#211d1d;fill-opacity:1;fill-rule:nonzero;stroke:none" transform="matrix(.02254 0 0 -.02254 -737.15 789.536)"/><path d="M38477.9 30714c8.9-12.7 23.9-42.3 24-87.7.1-40.8-18.5-79.3-48.4-107-66.5-61.8-172.2-148-172.2-148l-1292.6 168.8-751.4 625.5 36.9 362 48.3 142.7c24.1 71 68 133.6 126.7 180.3l6.5 5.1c5.4 4.3 12.7-1.9 9.4-8l-25.1-44.8c-38.8-69.5-47.8-151.6-25.1-227.9 56.5-189.1 224.4-542.3 717.3-804.9 698.3-372.1 1257.6-194.4 1257.6-194.4s79.1 69.8 82.2 136.3c.1 3.2 4.1 4.6 5.9 2" style="fill:#fff;fill-opacity:1;fill-rule:nonzero;stroke:none" transform="matrix(.02254 0 0 -.02254 -737.15 789.536)"/><path d="M38459.3 30700.9v-.1zm-1461.1-139 1276.2-166.7c25.4 20.8 108.6 89.8 163.6 140.8 26.1 24.3 41.1 57.2 41.1 90.2 0 9-.7 17.2-1.8 24.6-25.5-50.4-69.9-90-72.5-92.2l-3.6-3.2-4.5-1.5c-5.9-1.8-146.2-45.4-374.1-43.4-209.7 2-536.4 45.1-901.2 239.5-500.8 266.8-671.3 627.3-728.3 818.5-19.3 64.6-17.2 134.1 5.2 197.2-23.3-30.9-41.6-65.6-54.2-102.8l-47.4-140.2-35.5-347.3zm1289.9-214.6-1308.9 171.1-765.9 637.5 38.5 376.6 49.1 145.1c25.5 75.3 71.8 141.3 134 190.8l6.5 5.2c11.1 8.8 26.2 8.5 37-.6s13.5-24.1 6.6-36.4l-25.1-44.9c-35.5-63.7-44-140.3-23.1-210.2 55-184.3 219.9-532.2 706.1-791.3 648-345.3 1180.8-209.5 1235.4-194.1 22 20.6 68.9 73.1 70.9 116.9.5 11.4 8.1 21 18.9 24.2 10.7 3 22.1-1 28.5-10.1 8.4-12 28-45.8 28.1-100.8.1-45.7-20.2-90.9-55.7-123.8-66.2-61.5-172.2-148.1-173.3-148.9z" style="fill:#211d1d;fill-opacity:1;fill-rule:nonzero;stroke:none" transform="matrix(.02254 0 0 -.02254 -737.15 789.536)"/><path d="M36315.2 31673c1 2.5 4.6 2.1 4.9-.5 7.5-83.3 84.5-620.3 827.9-995.2 707.4-356.8 1179.8-209.7 1286.3-167.6 5.9 2.3 11.1-4.7 7.1-9.6l-937.7-1154.5c-39.1-48.2-98.6-74.9-160.6-72.7-164.6 5.8-505.3 44.3-844.2 245.1-319.8 189.4-549.8 442.8-664.5 586-52.7 65.7-66 154.5-35.6 233z" style="fill:#efd83e;fill-opacity:1;fill-rule:nonzero;stroke:none" transform="matrix(.02254 0 0 -.02254 -737.15 789.536)"/><path d="m36289.6 31669.7.1-.1zm54.1-7.7v-.1zm-36.5-94.4-479.9-1241.6c-26.5-68.4-14.6-146.1 30.9-202.9 108.3-135.1 337.5-390 656.3-578.8 330.4-195.8 661.7-235 829.7-240.9 51.7-1.8 103 21.1 135.8 61.5l885.1 1089.7c-195.1-54.2-628.2-108.5-1230.9 195.4-607.6 306.5-778.8 717.4-827 917.6m1042.8-2325.4c-2.6 0-5.3 0-8 .1-173.8 6.2-516.6 46.7-858.6 249.4-327.2 193.8-562 454.8-672.9 593.2-59 73.7-74.5 174.5-40.2 263.1l516.4 1336c5.6 14.5 20.1 23 35.6 20.9 15.2-2.1 26.8-14.4 28.2-29.7 3.7-41.2 24.4-190.1 133.9-375.4 141.6-239.7 369.4-439.9 677.3-595.2 703.5-354.8 1174.2-201 1261.4-166.5 15.5 6.1 33.2 1 43.1-12.4 9.8-13.5 9.4-31.9-1.1-44.9l-937.7-1154.4c-43.1-53.1-109-84.2-177.4-84.2" style="fill:#211d1d;fill-opacity:1;fill-rule:nonzero;stroke:none" transform="matrix(.02254 0 0 -.02254 -737.15 789.536)"/><path d="M36700.8 29959.4c29.7 0 29.7 46.2 0 46.2s-29.8-46.2 0-46.2M36594.3 30149.2c29.7 0 29.8 46.2 0 46.2-29.6 0-29.7-46.2 0-46.2M37560.2 29588.6c29.6 0 29.7 46.2 0 46.2s-29.8-46.2 0-46.2M37607.8 30693.4c29.7 0 29.7 46.2 0 46.2s-29.8-46.2 0-46.2M38159.6 30654.2c29.7 0 29.7 46.1 0 46.1s-29.8-46.1 0-46.1M38390.9 30711.6c29.7 0 29.7 46.1 0 46.1s-29.7-46.1 0-46.1M38329.6 30618.9c29.7 0 29.7 46.1 0 46.1s-29.7-46.1 0-46.1M38249.5 30683.8c29.7 0 29.7 46.1 0 46.1s-29.8-46.1 0-46.1M38115.4 30247c29.7 0 29.7 46.2 0 46.2s-29.7-46.2 0-46.2M37805.5 30295.8c29.7 0 29.7 46.1 0 46.1s-29.7-46.1 0-46.1M37933.5 30241.5c29.7 0 29.8 46.1 0 46.1-29.7 0-29.7-46.1 0-46.1M37990.9 30615.1c29.7 0 29.7 46.1 0 46.1s-29.7-46.1 0-46.1M38074.8 30595.4c29.7 0 29.7 46.1 0 46.1s-29.7-46.1 0-46.1M37735.9 30696.9c29.7 0 29.7 46.1 0 46.1s-29.7-46.1 0-46.1M37773.7 30602.6c29.6 0 29.7 46.1 0 46.1s-29.8-46.1 0-46.1M37901.8 30606c29.7 0 29.7 46.2 0 46.2s-29.8-46.2 0-46.2M37893.1 30705.4c29.7 0 29.8 46.2 0 46.2-29.7 0-29.7-46.2 0-46.2M38063.5 30680.5c29.7 0 29.8 46.1 0 46.1-29.7 0-29.7-46.1 0-46.1M38240.1 30599.5c29.7 0 29.7 46.2 0 46.2s-29.7-46.2 0-46.2M37223.1 29904.8c29.7 0 29.7 46.1 0 46.1s-29.7-46.1 0-46.1M37108.2 30088.7c29.7 0 29.7 46.1 0 46.1s-29.7-46.1 0-46.1M36896.9 30125.5c29.7 0 29.8 46.1 0 46.1-29.7 0-29.7-46.1 0-46.1M36867.2 30378.5c29.7 0 29.7 46.1 0 46.1s-29.7-46.1 0-46.1M36664.7 30594.6c29.7 0 29.7 46.1 0 46.1s-29.7-46.1 0-46.1M36493.7 30493.6c29.7 0 29.7 46.2 0 46.2s-29.7-46.2 0-46.2M36195.6 30583.3c29.7 0 29.8 46.1 0 46.1-29.6 0-29.7-46.1 0-46.1M36323.7 30144.9c29.7 0 29.8 46.1 0 46.1-29.7 0-29.7-46.1 0-46.1M36119.5 30425.1c29.7 0 29.8 46.1 0 46.1-29.7 0-29.7-46.1 0-46.1M37050.9 29772.9c29.7 0 29.8 46.1 0 46.1-29.6 0-29.7-46.1 0-46.1M36861 29771.7c29.6 0 29.7 46.2 0 46.2s-29.8-46.2 0-46.2M36395.9 29921.3c29.6 0 29.7 46.1 0 46.1s-29.8-46.1 0-46.1M36511.4 29863.3c29.6 0 29.7 46.1 0 46.1s-29.8-46.1 0-46.1M36400.4 29766.3c29.7 0 29.7 46.1 0 46.1s-29.8-46.1 0-46.1M36512 29605.2c29.7 0 29.7 46.1 0 46.1s-29.7-46.1 0-46.1M36793.3 29619.4c29.7 0 29.8 46.2 0 46.2-29.7 0-29.7-46.2 0-46.2M36923 29885c29.7 0 29.7 46.2 0 46.2s-29.7-46.2 0-46.2M37155 29684.3c29.7 0 29.7 46.2 0 46.2s-29.8-46.2 0-46.2M37420.4 29439c29.6 0 29.7 46.2 0 46.2s-29.8-46.2 0-46.2M37232.1 29373.8c29.7 0 29.7 46.2 0 46.2s-29.7-46.2 0-46.2M37277.7 29543.5c29.7 0 29.7 46.1 0 46.1s-29.7-46.1 0-46.1M37609.7 29698.3c29.7 0 29.7 46.1 0 46.1s-29.7-46.1 0-46.1M37371.2 29723.7c29.6 0 29.7 46.2 0 46.2s-29.8-46.2 0-46.2M37753.5 29845.6c29.7 0 29.8 46.2 0 46.2-29.7 0-29.7-46.2 0-46.2M37458.1 29949.6c29.7 0 29.7 46.2 0 46.2s-29.8-46.2 0-46.2M37315.5 30111.9c29.7 0 29.7 46.1 0 46.1s-29.7-46.1 0-46.1M37591.4 30365.8c29.6 0 29.7 46.1 0 46.1s-29.8-46.1 0-46.1M37209.1 30522.6c29.7 0 29.7 46.1 0 46.1s-29.7-46.1 0-46.1M37180.1 30959.3c29.6 0 29.7 46.1 0 46.1s-29.8-46.1 0-46.1M37226.6 30823.3c29.7 0 29.7 46.1 0 46.1s-29.8-46.1 0-46.1M37392.3 30837.8c29.7 0 29.7 46.1 0 46.1s-29.8-46.1 0-46.1M36937.2 31034.4c29.7 0 29.7 46.2 0 46.2s-29.7-46.2 0-46.2M36868.2 31177.4c29.7 0 29.8 46.1 0 46.1-29.6 0-29.7-46.1 0-46.1M36754.7 31123.9c29.7 0 29.8 46.1 0 46.1-29.6 0-29.7-46.1 0-46.1M37036 30917.2c29.7 0 29.8 46.1 0 46.1-29.7 0-29.7-46.1 0-46.1M37078.2 31051.9c29.7 0 29.8 46.1 0 46.1-29.6 0-29.7-46.1 0-46.1M37404.2 30715.5c29.7 0 29.7 46.1 0 46.1s-29.7-46.1 0-46.1M37545 30780.4c29.6 0 29.7 46.2 0 46.2s-29.8-46.2 0-46.2M36397.5 30020.3c29.7 0 29.7 46.2 0 46.2s-29.7-46.2 0-46.2M36776.8 30059.8c29.7 0 29.7 46.1 0 46.1s-29.7-46.1 0-46.1M36570.8 29741.3c29.7 0 29.7 46.2 0 46.2s-29.7-46.2 0-46.2M36242.6 29852.7c29.7 0 29.7 46.2 0 46.2s-29.7-46.2 0-46.2M36661.7 29523.2c29.7 0 29.7 46.2 0 46.2s-29.7-46.2 0-46.2M36936.6 29640.9c29.7 0 29.7 46.1 0 46.1s-29.8-46.1 0-46.1M36945.1 29483.7c29.7 0 29.8 46.1 0 46.1-29.7 0-29.7-46.1 0-46.1M37226.2 29766.3c29.7 0 29.7 46.1 0 46.1s-29.8-46.1 0-46.1M37551 29840.8c29.7 0 29.8 46.2 0 46.2-29.7 0-29.7-46.2 0-46.2M37325.1 29927.8c29.7 0 29.8 46.1 0 46.1-29.7 0-29.7-46.1 0-46.1M37796.4 30164c29.7 0 29.8 46.2 0 46.2-29.6 0-29.7-46.2 0-46.2M37688.1 30302.3c29.7 0 29.7 46.1 0 46.1s-29.8-46.1 0-46.1M37996.6 30327.9c29.7 0 29.8 46.1 0 46.1-29.6 0-29.7-46.1 0-46.1M38228.9 30300.6c29.7 0 29.7 46.1 0 46.1s-29.7-46.1 0-46.1M37993.3 30129.8c29.7 0 29.8 46.1 0 46.1-29.6 0-29.7-46.1 0-46.1M37839.2 29982.8c29.7 0 29.7 46.1 0 46.1s-29.7-46.1 0-46.1M37635.1 30099.9c29.6 0 29.7 46.1 0 46.1s-29.8-46.1 0-46.1M37451.2 30426.8c29.7 0 29.7 46.1 0 46.1s-29.7-46.1 0-46.1M37283.3 30245.2c29.7 0 29.8 46.1 0 46.1-29.6 0-29.7-46.1 0-46.1M37275.8 30375.5c29.7 0 29.8 46.2 0 46.2-29.6 0-29.7-46.2 0-46.2M36790.5 30536.2c29.7 0 29.8 46.1 0 46.1-29.7 0-29.7-46.1 0-46.1M36974 30583c29.6 0 29.7 46.1 0 46.1s-29.8-46.1 0-46.1M36970.4 30432.4c29.7 0 29.7 46.1 0 46.1s-29.8-46.1 0-46.1M36730 30243.2c29.7 0 29.7 46.2 0 46.2s-29.7-46.2 0-46.2M36649.4 30461c29.7 0 29.7 46.1 0 46.1s-29.8-46.1 0-46.1M36635.5 30752.6c29.7 0 29.8 46.1 0 46.1-29.7 0-29.7-46.1 0-46.1M36750.1 30779.3c29.7 0 29.7 46.1 0 46.1s-29.7-46.1 0-46.1M36451.2 31011.4c29.7 0 29.7 46.1 0 46.1s-29.8-46.1 0-46.1M36336.7 31263.4c29.7 0 29.8 46.1 0 46.1-29.6 0-29.7-46.1 0-46.1M36185.5 30862.4c29.6 0 29.7 46.1 0 46.1s-29.8-46.1 0-46.1M36419.7 30723.5c29.7 0 29.8 46.1 0 46.1-29.6 0-29.7-46.1 0-46.1M36312.2 30940.2c29.7 0 29.8 46.1 0 46.1-29.6 0-29.7-46.1 0-46.1M36282 30299.3c29.7 0 29.8 46.1 0 46.1-29.7 0-29.7-46.1 0-46.1M36561.4 30041c29.7 0 29.7 46.2 0 46.2s-29.7-46.2 0-46.2M36465.9 30193.3c29.7 0 29.8 46.1 0 46.1-29.7 0-29.7-46.1 0-46.1M36232.6 30468.3c29.7 0 29.8 46.1 0 46.1-29.7 0-29.7-46.1 0-46.1M36088.3 30694.6c29.7 0 29.8 46.2 0 46.2-29.6 0-29.7-46.2 0-46.2M36010.6 30274.3c29.7 0 29.8 46.1 0 46.1-29.6 0-29.7-46.1 0-46.1M35943.9 30200.4c29.7 0 29.7 46.2 0 46.2s-29.8-46.2 0-46.2M36066.4 29944c29.7 0 29.7 46.1 0 46.1s-29.7-46.1 0-46.1M36273.1 30062.2c29.7 0 29.8 46.1 0 46.1-29.6 0-29.7-46.1 0-46.1M36117.9 30105.1c29.6 0 29.7 46.2 0 46.2s-29.8-46.2 0-46.2M36028.2 30412c29.7 0 29.7 46.1 0 46.1s-29.7-46.1 0-46.1M35937.1 30351.4c29.7 0 29.8 46.1 0 46.1-29.6 0-29.7-46.1 0-46.1M36038.8 30585c29.7 0 29.7 46.1 0 46.1s-29.7-46.1 0-46.1M36185.5 31083.3c29.7 0 29.7 46.1 0 46.1s-29.7-46.1 0-46.1M36967.1 30013.4c29.6 0 29.7 46.2 0 46.2s-29.8-46.2 0-46.2M37189.9 30285.9c29.7 0 29.7 46.1 0 46.1s-29.7-46.1 0-46.1M37037.4 30237.9c29.7 0 29.7 46.1 0 46.1s-29.7-46.1 0-46.1M36674.5 29863.4c29.7 0 29.7 46.1 0 46.1s-29.8-46.1 0-46.1M36514.4 30329.8c29.7 0 29.7 46.1 0 46.1s-29.7-46.1 0-46.1M37194.3 30073.1c29.7 0 29.8 46.1 0 46.1-29.7 0-29.7-46.1 0-46.1M37501.7 30230.8c29.6 0 29.7 46.1 0 46.1s-29.8-46.1 0-46.1M37127.2 30430.7c29.7 0 29.7 46.1 0 46.1s-29.7-46.1 0-46.1M37472 30099.8c29.7 0 29.7 46.1 0 46.1s-29.8-46.1 0-46.1M37153.9 29490.3c29.7 0 29.7 46.1 0 46.1s-29.7-46.1 0-46.1M36726.2 29756.2c29.7 0 29.7 46.1 0 46.1s-29.7-46.1 0-46.1M37424.7 29610.2c29.7 0 29.7 46.2 0 46.2s-29.7-46.2 0-46.2M37047.1 29890.7c29.7 0 29.7 46.1 0 46.1s-29.7-46.1 0-46.1M37647.7 29940.4c29.7 0 29.7 46.2 0 46.2s-29.8-46.2 0-46.2M36920 30244.4c29.6 0 29.7 46.1 0 46.1s-29.8-46.1 0-46.1M36782.2 30645.9c29.7 0 29.8 46.2 0 46.2-29.6 0-29.7-46.2 0-46.2M36302.1 31056.2c29.7 0 29.8 46.1 0 46.1-29.6 0-29.7-46.1 0-46.1M36241.5 30705.4c29.7 0 29.8 46.1 0 46.1-29.7 0-29.7-46.1 0-46.1M36522.7 30661.8c29.7 0 29.8 46.2 0 46.2-29.7 0-29.7-46.2 0-46.2M36568.4 30889.3c29.7 0 29.7 46.1 0 46.1s-29.7-46.1 0-46.1M36437.7 30871.5c29.7 0 29.7 46.1 0 46.1s-29.8-46.1 0-46.1M36143.5 30238.4c29.7 0 29.7 46.1 0 46.1s-29.7-46.1 0-46.1M36370 30498.3c29.7 0 29.7 46.1 0 46.1s-29.7-46.1 0-46.1M36093.1 30492.1c29.7 0 29.8 46.2 0 46.2-29.7 0-29.7-46.2 0-46.2" style="fill:#fff;fill-opacity:1;fill-rule:nonzero;stroke:none" transform="matrix(.02254 0 0 -.02254 -737.15 789.536)"/></svg>