<?xml version="1.0" encoding="UTF-8" standalone="no"?>
<!-- Created with Inkscape (http://www.inkscape.org/) -->

<svg
   width="200mm"
   height="200mm"
   viewBox="0 0 200 200"
   version="1.1"
   id="svg3341"
   inkscape:export-filename="glass_coupe.svg"
   inkscape:export-xdpi="96"
   inkscape:export-ydpi="96"
   inkscape:version="1.2.2 (b0a8486541, 2022-12-01)"
   sodipodi:docname="garnishes.svg"
   xmlns:inkscape="http://www.inkscape.org/namespaces/inkscape"
   xmlns:sodipodi="http://sodipodi.sourceforge.net/DTD/sodipodi-0.dtd"
   xmlns="http://www.w3.org/2000/svg"
   xmlns:svg="http://www.w3.org/2000/svg">
  <sodipodi:namedview
     id="namedview3343"
     pagecolor="#ffffff"
     bordercolor="#666666"
     borderopacity="1.0"
     inkscape:showpageshadow="2"
     inkscape:pageopacity="0.0"
     inkscape:pagecheckerboard="0"
     inkscape:deskcolor="#d1d1d1"
     inkscape:document-units="mm"
     showgrid="true"
     inkscape:lockguides="true"
     inkscape:zoom="1"
     inkscape:cx="380.5"
     inkscape:cy="522"
     inkscape:window-width="1225"
     inkscape:window-height="1402"
     inkscape:window-x="0"
     inkscape:window-y="0"
     inkscape:window-maximized="0"
     inkscape:current-layer="layer5">
    <inkscape:grid
       type="xygrid"
       id="grid6629"
       dotted="false"
       spacingx="1.3229167"
       spacingy="1.3229167"
       originx="0"
       originy="0" />
  </sodipodi:namedview>
  <defs
     id="defs3338" />
  <g
     inkscape:groupmode="layer"
     id="layer5"
     inkscape:label="glass - coupe"
     transform="matrix(0.42902138,0,0,0.42902138,7.7188664,24.90799)"
     style="display:none">
    <g
       id="g3634"
       inkscape:label="coupe glass"
       transform="matrix(0.04214046,0,0,-0.04214046,-348.46652,963.71818)">
      <path
         d="m 15416.6,14520.2 c 0,-140.6 -80.3,-271.5 -232,-387.7 -108,-82.6 -249.9,-153.6 -417.2,-216.8 -135.6,-51.1 -286,-101.6 -451.9,-136.5 -146.3,-30.7 -302.6,-60.2 -466.9,-75.9 -151.6,-14.6 -310.4,-20.5 -472.9,-20.5 -162.5,0 -319.7,22.8 -471.2,37.3 -164.3,15.7 -323,24.8 -469.4,55.5 -165.9,34.9 -321.9,72.2 -457.5,123.3 -167.3,63.2 -300.3,154.4 -408.2,237 -151.8,116.2 -239,243.7 -239,384.3 0,140.7 88.9,266.1 240.7,382.2 107.9,82.6 241.2,170.9 408.5,234.1 135.6,51.1 288.6,98.7 454.5,133.5 146.3,30.7 304.9,46.4 469.2,62.2 151.6,14.5 309.9,22.8 472.4,22.8 162.5,0 320.5,-11.8 472,-26.3 164.3,-15.7 319.8,-44.6 465.5,-78.3 316.6,-73.3 120.8,-24.1 453.1,-128.5 170.7,-53.6 307.6,-135 415.5,-217.6 151.8,-116.1 234.8,-243.4 234.8,-384.1"
         style="fill:#e9f8f5;fill-opacity:1;fill-rule:nonzero;stroke:none"
         id="path2566" />
      <path
         d="m 13375.7,15316.8 c -154.4,0 -312.1,-7.6 -468.8,-22.6 -148.3,-14.3 -316.4,-30.4 -465,-61.6 -148.6,-31.2 -299.6,-75.6 -448.8,-131.9 -176.9,-66.7 -312.3,-162.4 -398.8,-228.6 -151.9,-116.3 -225.7,-231.3 -225.7,-351.9 0,-121.1 75.3,-240.2 224,-354 97.4,-74.5 230.8,-168.2 398.5,-231.5 141,-53.2 307.6,-91.4 451.9,-121.7 112.8,-23.7 232.9,-34.2 360.1,-45.4 34.7,-3 69.7,-6.1 105,-9.5 37.5,-3.6 76,-7.8 113.3,-11.8 114.9,-12.4 233.8,-25.3 354.3,-25.3 173.4,0 326.9,6.6 469.2,20.3 168.9,16.2 328.7,47.1 462.7,75.3 177.6,37.3 331.8,91.7 446.3,134.9 174.2,65.7 307.5,134.8 407.5,211.3 144,110.3 217,230.5 217,357.4 0,124.9 -71.9,240.6 -219.8,353.8 -124.5,95.3 -260.3,166.4 -403.7,211.5 -112.4,35.3 -165.2,53.3 -196.7,64 -48.5,16.5 -48.5,16.5 -153.4,40.6 -26.2,6 -58.8,13.5 -100.2,23.1 -165.4,38.3 -316,63.7 -460.5,77.5 -126.6,12.1 -294.3,26.1 -468.4,26.1 z m 0,-1672.2 c -124.6,0 -245.6,13.1 -362.6,25.8 -37,4 -75.2,8.1 -112.3,11.7 -35,3.3 -69.9,6.4 -104.4,9.4 -129.5,11.4 -251.9,22.1 -369.1,46.8 -147.2,30.9 -317.3,69.9 -463.1,124.9 -177.1,66.8 -316.4,164.6 -418,242.4 -168.6,129 -254,268.5 -254,414.6 0,145.9 83.6,280.9 255.7,412.5 90.3,69.2 231.9,169.2 418.2,239.5 152.9,57.7 307.7,103.2 460.1,135.2 152.8,32 323.1,48.4 473.5,62.8 159,15.2 319.2,22.9 476,22.9 177.3,0 347.4,-14.1 475.7,-26.4 147.8,-14.2 301.7,-40 470.5,-79.1 41.3,-9.6 73.9,-17.1 100,-23.1 106.7,-24.4 108.7,-24.9 160.9,-42.7 31.2,-10.6 83.4,-28.5 195,-63.5 151.9,-47.7 295.7,-122.9 427.3,-223.7 165.7,-126.8 249.7,-266.2 249.7,-414.4 0,-151.9 -83.1,-292.6 -247,-418 -106,-81.1 -245.7,-153.8 -426.9,-222.2 -173.9,-65.6 -315,-108.2 -457.6,-138.1 -136,-28.6 -298.4,-60.1 -471.1,-76.6 -144.8,-13.9 -300.6,-20.7 -476.5,-20.7"
         style="fill:#211d1d;fill-opacity:1;fill-rule:nonzero;stroke:none"
         id="path2568" />
      <path
         d="m 14137.6,18716.4 c -192.5,-192.3 -490.9,-320.7 -768.6,-323.5 -285.1,-2.9 -554.9,107.8 -742.6,299.4 l 249.4,-389.2 c 152.6,-197.3 244.9,-458.5 246.6,-725.9 L 13136,15340 c 0.1,-26.6 -1.2,-53.2 -4.4,-79.6 -38.3,-313.2 -242.6,-617.8 -246.7,-667.9 -4.4,-52.8 175.8,-171.4 509.8,-175.8 241.8,-3.2 386.8,97.2 448.5,152.9 19.6,17.6 20.3,47.5 3,67.3 -93,106.1 -151.4,315.5 -184,472.4 -22.6,108.8 -33.8,219.5 -34.2,330.6 l -7.7,2117.2 c -1.7,278 81.2,553.5 262.3,780.3 l 255,379"
         style="fill:#ffffff;fill-opacity:1;fill-rule:nonzero;stroke:none"
         id="path2570" />
      <path
         d="m 12923.5,14591.1 c 14.6,-29.9 160.9,-132.2 471.7,-136.2 226.4,-3.4 361.8,88.3 422.4,143.1 4.2,3.7 3.2,9.9 -0.2,13.7 -98.4,112.4 -159,328.4 -192.6,489.9 -22.8,109.7 -34.6,223.5 -35,338.1 l -7.7,2117.2 c -1.9,301.6 91.4,579.2 269.7,803.1 l 119.4,177.5 c -181,-112.4 -399.1,-180.7 -601.8,-182.8 -210.5,-2.2 -414.4,55.6 -585.5,162.6 l 123.2,-192.2 c 159.4,-206.8 251.8,-479.3 253.4,-747.7 l 13.6,-2237.2 c 0.2,-29.3 -1.4,-57.7 -4.6,-84.4 -27.8,-227.2 -138,-445.3 -203.8,-575.6 -17.8,-35.2 -37.8,-74.8 -42.2,-89.1 z m 482.5,-212.7 c -3.9,0 -7.8,0 -11.8,0.1 -267.1,3.5 -453.7,79 -520.3,152.3 -19.7,21.8 -28.9,43.6 -27.1,64.9 1.8,21.4 16,50.1 50.7,118.9 63.6,125.9 170,336.5 196.2,550.4 2.9,23.5 4.2,48.7 4.1,74.8 l -13.6,2237.1 c -1.6,252.6 -88.5,508.8 -238.6,702.9 l -1.9,2.7 -449.5,701.2 259.5,-264.7 c 182,-185.8 442.4,-291 714.9,-287.9 263.6,2.7 554.8,125.3 742,312.4 l 58.7,-48.4 -256.9,-381.6 c -167.8,-210.2 -255.7,-471.7 -254,-756.2 l 7.8,-2117.3 c 0.4,-109.5 11.6,-218.2 33.4,-322.9 31.7,-152.5 87.8,-355.2 175.3,-455.1 31.1,-35.5 28.3,-89.6 -6.1,-120.7 -67.8,-61.3 -217.4,-162.9 -462.8,-162.9"
         style="fill:#211d1d;fill-opacity:1;fill-rule:nonzero;stroke:none"
         id="path2572" />
      <path
         d="m 16146.8,21146.9 c 1.5,15.5 2.5,31 2.5,46.6 0,191.1 -112.8,364 -319,521.8 -146.7,112.3 -337.2,209.9 -564.5,295.6 -184.2,69.5 -390.2,127.3 -615.6,174.6 -198.8,41.8 -409.2,85 -632.4,106.4 -111.1,10.7 -224.8,20.1 -340.6,26.6 -70.1,4.2 -141,6.9 -212.7,8.2 -4.4,0.1 -8.8,0.1 -13.2,0.2 -23.4,0.4 -46.8,0.6 -70.4,0.6 -1.4,0 -2.9,0.1 -4.4,0.1 h -1.4 -1.6 c -20.8,0 -41.4,-0.2 -62,-0.4 -198,-2 -391.2,-12.8 -576.8,-30.6 -223.2,-21.4 -438.7,-42.7 -637.5,-84.5 -225.4,-47.3 -433.2,-111.9 -617.4,-181.4 -227.3,-85.8 -408.4,-205.7 -555.1,-318 -206.1,-157.8 -327,-328.1 -327,-519.2 0,-25.2 2.2,-50 6.3,-74.6 v -0.5 c 9.3,-824 567.5,-1339.3 1371.6,-1595.8 l 555.5,-716 c 183.8,-261.1 500.1,-417.2 837.9,-413.7 317.8,3.3 662.8,171 845,410.7 l 590.1,756.8 c 778.8,259.6 1366.2,681.3 1342.8,1585.2 l -0.1,1.3"
         style="fill:#caede7;fill-opacity:1;fill-rule:nonzero;stroke:none"
         id="path2574" />
      <path
         d="m 13373.5,22289.4 c -20.6,0 -41.1,-0.2 -61.6,-0.4 -190,-1.9 -382.9,-12.1 -573.6,-30.4 -201.9,-19.4 -430.7,-41.3 -633.2,-83.8 -202.6,-42.6 -408.4,-103.1 -611.8,-179.8 -242,-91.3 -427.2,-222.1 -545.4,-312.6 -209.9,-160.7 -312,-320.6 -312,-488.9 0,-22.3 1.9,-45.3 5.7,-68.4 l 0.6,-3.1 v -3.1 c 10.6,-938 737.3,-1366.1 1345.1,-1559.9 l 11.2,-3.6 563.9,-726.9 c 177.6,-252.2 478.6,-400.9 806.2,-397.4 305.3,3.1 640.4,165.8 815,395.6 l 597.5,766.2 10.9,3.7 c 930.4,310.2 1336.4,787.6 1316.7,1548 l -0.1,3.5 0.2,2.4 c 1.5,16.6 2.3,30.2 2.3,43 0,171.8 -102.3,337.1 -304,491.5 -138.3,105.8 -324.9,203.5 -554.8,290.2 -177.8,67.1 -383,125.3 -609.9,172.9 -177.7,37.4 -398.9,83.8 -628.3,105.8 -125.7,12 -236.6,20.7 -339,26.5 -69.9,4.1 -140.9,6.9 -211.3,8.1 l -13.1,0.2 c -23.2,0.4 -46.5,0.6 -69.8,0.6 l -4.4,0.1 h -1.4 -1.6 m -15.7,-3934.8 c -347.6,0 -667.3,159.9 -857.4,429.2 l -547.7,706 c -421.7,136.2 -754.4,335.4 -989.1,592.1 -258.9,283.2 -392.7,630.9 -397.8,1033.7 -4.2,26.2 -6.3,52.4 -6.3,77.9 0,193.7 111.9,373.4 342,549.6 122.1,93.3 313.4,228.5 564.8,323.3 207,78.2 416.7,139.8 623.1,183.1 206.6,43.4 437.8,65.6 641.7,85.1 192.7,18.5 387.9,28.8 580,30.7 20.7,0.3 41.5,0.4 62.4,0.4 h 1.6 1.4 4.6 c 23.6,0 47.2,-0.3 70.8,-0.6 l 13.3,-0.2 c 71.4,-1.3 143.5,-4.1 214.3,-8.3 103.3,-5.8 215.2,-14.5 341.9,-26.7 233.7,-22.4 457.1,-69.3 636.7,-107 230.7,-48.5 439.7,-107.8 621.2,-176.3 236.8,-89.3 430,-190.6 574.2,-301 221.6,-169.5 333.9,-355.3 333.9,-552.1 0,-14.5 -0.7,-29.7 -2.4,-47.7 11.2,-435.7 -113.5,-782.6 -381.1,-1060.9 -218.7,-227.4 -538.3,-409.7 -976.8,-557.1 l -583,-747.7 c -187.7,-247 -547.4,-422 -874.7,-425.4 -3.9,0 -7.8,-0.1 -11.6,-0.1"
         style="fill:#211d1d;fill-opacity:1;fill-rule:nonzero;stroke:none"
         id="path2576" />
      <path
         d="m 13464.5,22326.7 c 71.7,-1.3 142.6,-4.2 212.7,-8.2 -70.1,4.2 -141,6.9 -212.7,8.2"
         style="fill:#ffffff;fill-opacity:1;fill-rule:nonzero;stroke:none"
         id="path2578" />
      <path
         d="m 13675.1,22280.4 c -75.2,4.2 -144.3,6.9 -211.1,8.1 h -0.2 l 1.4,76.4 v 0 c 71.4,-1.3 143.5,-4.1 214.3,-8.3 l -4.4,-76.2"
         style="fill:#211d1d;fill-opacity:1;fill-rule:nonzero;stroke:none"
         id="path2580" />
      <path
         d="m 13380.9,22327.5 c 23.6,0 47,-0.2 70.4,-0.6 -23.4,0.4 -46.8,0.6 -70.4,0.6"
         style="fill:#ffffff;fill-opacity:1;fill-rule:nonzero;stroke:none"
         id="path2582" />
      <path
         d="m 13450.8,22288.7 c -23.3,0.4 -46.5,0.6 -69.9,0.6 l 0.1,76.4 v 0 0 c 23.7,0 47.3,-0.2 70.8,-0.6 h 0.1 l -1.1,-76.4"
         style="fill:#211d1d;fill-opacity:1;fill-rule:nonzero;stroke:none"
         id="path2584" />
      <path
         d="m 13375.1,22327.6 h -1.6 c -20.8,0 -41.4,-0.2 -62,-0.5 21.1,0.3 42.3,0.4 63.6,0.5"
         style="fill:#ffffff;fill-opacity:1;fill-rule:nonzero;stroke:none"
         id="path2586" />
      <path
         d="m 13311.8,22289 -0.8,76.3 c 20.8,0.3 41.6,0.4 62.5,0.4 v 0 h 1.6 v -76.3 c -21.1,0 -42.2,-0.2 -63.3,-0.4"
         style="fill:#211d1d;fill-opacity:1;fill-rule:nonzero;stroke:none"
         id="path2588" />
      <path
         d="m 16146.8,21146.9 c -16.3,-173.4 -123.5,-335.3 -312.8,-480.1 -146.7,-112.3 -339.5,-208.8 -566.8,-294.6 -184.2,-69.5 -388.5,-138.1 -613.9,-185.4 -198.8,-41.8 -411.2,-81.8 -634.3,-103.2 -206,-19.7 -421.7,-27.8 -642.5,-27.8 -220.8,0 -434.3,30.9 -640.2,50.7 -223.2,21.3 -438.8,33.6 -637.7,75.4 -225.3,47.3 -437.3,98 -621.5,167.5 -227.3,85.8 -408,209.7 -554.7,322 -178.9,137 -291.8,285.6 -318.4,447.5 v -0.5 c 9.3,-824 567.5,-1339.3 1371.6,-1595.8 l 555.5,-716 c 183.8,-261.1 500.1,-417.2 837.9,-413.7 317.8,3.3 662.8,170.9 845,410.7 l 590.1,756.8 c 778.8,259.6 1366.2,681.3 1342.8,1585.2 l -0.1,1.3"
         style="fill:#e9f8f5;fill-opacity:1;fill-rule:nonzero;stroke:none"
         id="path2590" />
      <path
         d="m 10660.8,20884.5 c 118,-776.7 771.8,-1148.6 1326.5,-1325.5 l 11.2,-3.6 563.9,-726.9 c 177.6,-252.2 479,-401.1 806.2,-397.4 305.2,3.1 640.4,165.8 815,395.6 l 597.5,766.2 10.9,3.7 c 823,274.4 1235.8,679.6 1306.4,1295.9 -55.1,-89.7 -135.6,-175.3 -241.2,-256 -142.9,-109.4 -331.5,-207.5 -576.5,-300 -235.5,-88.8 -426.6,-146.5 -619.6,-187.1 -184.5,-38.8 -404.7,-81.4 -638.5,-103.8 -196.3,-18.8 -407.6,-28 -646.1,-28 -168.5,0 -332.5,17.8 -491,34.9 -50.3,5.5 -102.4,11.1 -152.8,15.9 -47.8,4.6 -95.2,8.8 -142.1,12.9 -175.5,15.4 -341.3,29.9 -499.8,63.2 -199.4,41.9 -429.9,94.8 -627.2,169.2 -238.9,90.2 -427.1,222.3 -564.4,327.4 -102.5,78.4 -182.1,159.8 -238.4,243.4 z m 2697,-2529.9 c -347.6,0 -667.3,159.9 -857.4,429.2 l -547.7,706 c -421.7,136.2 -754.4,335.4 -989.1,592.1 -259.4,283.7 -393.2,632.3 -397.8,1036.1 v 0.4 0.8 l 75.8,5.9 c 23.9,-144.8 126.2,-287.3 304,-423.4 133.1,-101.9 315.4,-229.9 545,-316.6 192.4,-72.6 419.3,-124.6 615.9,-165.8 154,-32.4 317.6,-46.7 490.8,-61.9 47.1,-4.2 94.7,-8.3 142.6,-12.9 50.9,-4.9 103.2,-10.6 153.8,-16.1 156.5,-16.9 318.4,-34.4 482.8,-34.4 236,0 445,9 638.8,27.6 230,22.1 447.6,64.2 630.1,102.6 189.1,39.7 376.7,96.3 608.3,183.8 238,89.7 420.2,184.3 557.1,289.1 182.6,139.7 282.8,292.2 298,453.4 l 72.3,-2.3 3.9,0.2 v -1.6 c 11.3,-436.1 -113.3,-783.4 -381.1,-1061.9 -218.7,-227.4 -538.3,-409.7 -976.8,-557.1 l -583,-747.7 c -187.7,-247 -547.4,-422 -874.7,-425.4 -3.9,0 -7.8,-0.1 -11.6,-0.1"
         style="fill:#211d1d;fill-opacity:1;fill-rule:nonzero;stroke:none"
         id="path2592" />
      <path
         d="m 13597.4,19293.5 c -71.1,0 -146.3,1.7 -225.8,5.6 -1079.8,53 -1397.8,182.8 -1410.8,188.3 -19.5,8.2 -28.5,30.6 -20.3,50.1 8.2,19.3 30.5,28.4 49.9,20.3 4,-1.6 325.3,-130.4 1385,-182.4 644.4,-31.7 1021.1,85.8 1024.8,87 20.1,6.4 41.6,-4.7 48,-24.7 6.4,-20.1 -4.6,-41.6 -24.7,-48 -13.8,-4.5 -306.8,-96.2 -826.1,-96.2"
         style="fill:#211d1d;fill-opacity:1;fill-rule:nonzero;stroke:none"
         id="path2594" />
      <path
         d="m 12424.7,15007.1 c 35.4,6.8 54.3,-44.2 23.7,-64.4 -151.5,-100.6 -340.1,-264.1 -274.8,-424.4 28.9,-71 242.2,-193.5 519.1,-284.7 239.2,-78.8 528.9,-87.3 743.1,-85.3 39,0.3 46.6,-59.3 8.9,-69.3 -167.8,-44.6 -407.8,-108.3 -659.3,-98.4 -664.6,26.3 -941,225.7 -1070.4,320.9 -161.1,118.3 -119.8,388.6 52.8,511.3 113.1,80.4 442.7,153.5 656.9,194.3"
         style="fill:#ffffff;fill-opacity:1;fill-rule:nonzero;stroke:none"
         id="path2596" />
      <path
         d="m 14760.6,14857.1 c -11.7,9.7 -2.2,28.6 12.5,25 155.8,-38.1 552.1,-166.3 383.6,-455.9 -67.1,-115.1 -343.7,-190.7 -474.1,-220.6 -15.2,-3.5 -24.3,16.2 -11.8,25.5 81.5,61.1 226.2,184.5 264.6,314.3 31.6,106.8 -51.1,208.3 -174.8,311.7"
         style="fill:#ffffff;fill-opacity:1;fill-rule:nonzero;stroke:none"
         id="path2598" />
      <path
         d="m 12564.7,19121 c 0,0 211.1,-422.1 463,-456.2 252,-34 415.4,47.7 388.1,183.9 -8.7,43.5 -173.7,-19.2 -360.8,34 -224.3,63.8 -479.1,230.9 -490.3,238.3"
         style="fill:#ffffff;fill-opacity:1;fill-rule:nonzero;stroke:none"
         id="path2600" />
      <path
         d="m 11250.6,20237.7 c 0,0 416.9,-389.5 803,-503.9 345,-102.1 1191.7,-147.3 1320.5,-115.7 166.5,40.8 172.5,108.9 65.4,149.8 -107,40.8 -1046.9,68.1 -1296.7,108.9 -249.8,40.9 -892.2,360.9 -892.2,360.9"
         style="fill:#ffffff;fill-opacity:1;fill-rule:nonzero;stroke:none"
         id="path2602" />
      <path
         d="m 11395.6,21620.5 c -32.2,0 -63.8,8.1 -87.5,24.1 l -0.1,0.1 c -52.8,35.7 -44.8,95.2 17.2,126.6 116.8,59.1 325.4,150.2 628.8,230 313.9,82.6 778.5,164.5 1386.5,164.5 213,0 443.5,-10.1 691.4,-33.6 70.3,-6.7 116.9,-50.5 102.7,-97.4 -12.4,-41.1 -67.3,-70.6 -128.1,-70.6 -5.8,0 -11.7,0.3 -17.7,0.9 -236.3,22.5 -455.6,32 -657.4,32 -561.1,0 -988,-73.7 -1276.6,-148.5 -285.1,-73.8 -478.5,-158.8 -580.8,-210.4 -23.5,-11.9 -51.1,-17.7 -78.4,-17.7"
         style="fill:#eef9f8;fill-opacity:1;fill-rule:nonzero;stroke:none"
         id="path2604" />
    </g>
  </g>
  <g
     inkscape:groupmode="layer"
     id="layer6"
     inkscape:label="twist - orange"
     transform="matrix(0.52374819,0,0,0.52374819,48.874447,45.952488)">
    <g
       id="g3921"
       inkscape:label="twist orange"
       transform="matrix(0.03527778,0,0,-0.03527778,-1567.5089,670.30575)">
      <path
         d="m 45937.7,16631.6 c 0,0 462.4,560.2 907.5,471.4 445.2,-88.8 839.1,-606.5 946.5,-818.9 107.5,-212.3 223.9,-766 59.8,-1097.8 0,0 358.7,-214.4 660.2,187.2 418.5,557.6 47.3,1551.3 -842.2,1898.1 -889.5,346.8 -1413.2,96.4 -1413.2,96.4 l -318.6,-736.4"
         style="fill:#ffffff;fill-opacity:1;fill-rule:nonzero;stroke:none"
         id="path2010" />
      <path
         d="m 47907.8,15206.6 c 91,-38.4 344.8,-106.6 569.5,192.8 163.6,217.9 206.3,522.1 117.3,834.6 -126.6,444.3 -478.3,817.3 -940.7,997.6 -449.2,175.1 -800.3,192.2 -1015.8,175.8 -189.2,-14.4 -309.7,-56.5 -349.1,-72.2 l -219.1,-506.2 c 179.9,163.3 481.7,376.5 783.8,316.2 458.1,-91.5 862.3,-616.3 976.4,-841.7 108.6,-214.7 220.7,-751.4 77.7,-1096.9 z m 173,-120.4 c -4.5,0 -9,0 -13.4,0.1 -137.1,3.7 -233.9,60.7 -238,63.1 l -34,20.4 17.5,35.6 c 154.7,312.6 43.4,855.8 -59.6,1059.3 -120.3,237.9 -512.7,715.6 -916.5,796.1 -415,82.9 -861.5,-451.1 -866,-456.5 l -193,-233.9 445.5,1029.5 14.5,6.9 c 22.1,10.6 550.8,254.4 1447.3,-95.1 487.3,-190 858.2,-584.1 992.2,-1054.2 96.5,-338.6 48.6,-670.2 -131.2,-909.8 -160.9,-214.4 -339.4,-261.5 -465.3,-261.5"
         style="fill:#211d1d;fill-opacity:1;fill-rule:nonzero;stroke:none"
         id="path2012" />
      <path
         d="m 47825.2,17130 c -499.5,268.2 -1206.6,214.2 -1206.6,214.2 l 344.9,244.1 c 0,0 831.9,-143.2 1137.1,-278.8 18,-8 37.4,-20.1 57.6,-34.5 -81.9,-49.2 -306.2,-159.4 -333,-145"
         style="fill:#e7e2b9;fill-opacity:1;fill-rule:nonzero;stroke:none"
         id="path2014" />
      <path
         d="m 46776.9,17392 c 239.4,0 697.5,-28.3 1060.2,-219.6 34.9,6.6 147,57.6 233.7,103.2 -281.1,119.6 -977.6,246.1 -1097.1,267.2 l -213.2,-150.8 c 5.3,0 10.8,0 16.4,0 z m 1054.2,-306.5 c -11.8,0 -19.3,2.9 -26.2,6.6 -482.9,259.3 -1176.1,209.8 -1183.1,209.3 l -155,-11.8 486.4,344.1 17.6,-3.1 c 34.2,-5.8 840.7,-145.6 1147.2,-281.8 19.4,-8.6 40.7,-21.3 65.2,-38.8 l 53.3,-38 -56.1,-33.8 c -45,-27.1 -123.8,-67.6 -191.5,-98.6 -91.5,-42 -133.7,-54.1 -157.8,-54.1"
         style="fill:#211d1d;fill-opacity:1;fill-rule:nonzero;stroke:none"
         id="path2016" />
      <path
         d="m 46806.7,14951.5 c 11.6,12.8 8.1,33.1 -7.4,40.7 -186.9,91.2 -1141.6,609.9 -754.4,1526.4 428.3,1014 1327.5,1061.5 1964.7,799.9 l 169.1,-37.6 -93.3,85.6 c 0,0 -278.2,378.9 -834.3,453.3 -556.1,74.5 -996.5,10.1 -1481.6,-514.3 -374,-404.4 -787.2,-1258 -415.5,-2144.8 230.5,-549.8 1110.4,-841.3 1110.4,-841.3 55,301.3 147.6,416.5 342.3,632.1"
         style="fill:#c89519;fill-opacity:1;fill-rule:nonzero;stroke:none"
         id="path2018" />
      <path
         d="m 46908.1,17802.4 c -390.4,0 -734.5,-123.4 -1107,-526.1 -329,-355.7 -785.1,-1198 -407.4,-2098.9 190.4,-454.4 856.5,-732.1 1038.2,-800.6 57.5,271.1 155.5,395.3 328,587 -122,61.6 -383.3,211.9 -586.1,454.5 -125.5,150.2 -207.1,311.3 -242.7,479.1 -43.3,204.2 -18.4,418.8 74.2,638 438.4,1037.6 1359.7,1092.7 2017.2,824.3 l 16.1,-3.6 c -58.1,69.5 -325.3,358.5 -793.2,421.1 -117,15.7 -229,25.2 -337.3,25.2 z m -410.3,-3539.4 -46.9,15.6 c -36.7,12.1 -901.2,304.1 -1136.5,865.5 -168.7,402.4 -194.2,845.5 -73.7,1281.4 93.1,336.8 274.3,668.1 497.3,909.2 235.4,254.5 475.3,416 733.3,493.7 221.3,66.6 463.6,77.1 785.5,34 545.3,-73 828.6,-425 860.5,-466.9 l 208.8,-191.4 -329.4,73.2 -3.4,1.4 c -621.4,255.1 -1494.1,204.8 -1908.8,-776.8 -371.1,-878.5 546,-1379.5 733.7,-1471.1 19.4,-9.4 33,-27.1 37.1,-48.4 4.1,-21.3 -2.1,-43.6 -16.7,-59.7 -191.5,-212.1 -278.5,-318.2 -331.9,-611 l -8.9,-48.7"
         style="fill:#211d1d;fill-opacity:1;fill-rule:nonzero;stroke:none"
         id="path2020" />
      <path
         d="m 48109.9,17336 -828.1,-646.4 -136.5,-853.7 703.9,-1139.4 783.5,303.1 236.2,485.9 34.9,356.2 c 0,0 -20.9,254.9 -137.8,496.9 -116.9,242.1 -329.9,471.3 -330.3,503.6 -0.8,64.4 -322.8,40.8 -322.8,40.8 0,0 403.5,-522.8 497.6,-789.7 94.1,-266.8 56.1,-613 -327.4,-834.2 -289.8,-167.1 -498.8,135.1 -572.4,295.3 -114,248.2 -137.1,454 -37.9,777.7 130,424.7 276.6,544.3 487.9,620.7 213.6,77.2 667.1,36.5 981,-208.6 19,-14.8 48,-4.3 50,19.6 6.9,84.5 -177.9,299.7 -177.9,299.7 l -409.7,216.3 -494.2,56.2"
         style="fill:#e7e2b9;fill-opacity:1;fill-rule:nonzero;stroke:none"
         id="path2022" />
      <path
         d="m 48071.1,16866.7 c -148,-79.6 -256.2,-217.3 -357.2,-547.1 -90.8,-296.4 -81.4,-492 35.9,-747.3 55.8,-121.5 161.5,-266.1 290.8,-307.3 72.3,-23 144.5,-12.7 221,31.4 450.6,259.8 349.9,664.7 308.4,782.6 -90.8,257.4 -487.2,772.5 -491.2,777.7 z m -880.8,-1021.8 676.7,-1095.5 734.4,284.2 225.5,463.8 33.7,344.4 c -3.1,31.5 -28.8,261.9 -133.3,478.1 -71.1,147.2 -179.8,291 -251.7,386.2 -54.2,71.7 -75.3,100.3 -81.1,122.3 -25.4,11.7 -106.5,17.6 -198.2,15.5 111.8,-149.9 378.4,-519.9 454.8,-736.3 38.5,-109.3 72.6,-278.1 15.9,-461.2 -53.9,-174.1 -175.9,-316.9 -362.4,-424.5 -97.3,-56.1 -194.9,-69.1 -290.1,-38.8 -196.3,62.6 -312,286.3 -342.8,353.3 -125.8,273.8 -136.7,492.9 -40,808.3 133.2,435.1 289.5,567.2 514.4,648.5 208.4,75.3 663.8,47.2 995.9,-195.3 -21.4,55 -89,153 -155.5,231.4 l -395.3,208.7 -468.7,53.3 -800.9,-625.1 z m 641.1,-1201.4 -731.1,1183.4 141.7,886.2 855.3,667.6 519.7,-59.1 424.1,-223.9 5.4,-6.2 c 46,-53.7 195.8,-236.2 188,-331.2 -2.1,-26.5 -18.1,-48.8 -42.7,-59.6 -25.4,-11.1 -54.7,-7.4 -76.5,9.6 -277.8,216.9 -656.9,264 -872.8,220.4 86,-0.4 179.3,-9 214.6,-41.4 11.8,-10.9 19.1,-24.7 21,-39.4 7.4,-14.3 38.5,-55.5 66.1,-92 73.9,-97.8 185.7,-245.7 260.5,-400.6 119.1,-246.4 141,-501.3 141.9,-512.1 l 0.3,-3.8 -36,-367.7 -246.9,-508.1 -832.6,-322.1"
         style="fill:#211d1d;fill-opacity:1;fill-rule:nonzero;stroke:none"
         id="path2024" />
      <path
         d="m 48392.3,17042.7 c -198.5,-5.6 -402.3,-173.9 -464,-229.2 -5.9,-5.3 -1.1,-15 6.8,-13.9 278.4,38.3 525.2,95.6 924.9,-339 3.5,-3.8 9.5,-3.4 12.4,0.9 67.8,102.3 169.5,178.3 284,252.9 4.8,3.1 5.2,9.9 0.7,13.3 -233.6,177.6 -604.6,319.4 -764.8,315"
         style="fill:#ffffff;fill-opacity:1;fill-rule:nonzero;stroke:none"
         id="path2026" />
      <path
         d="m 48392.3,17042.7 h 0.1 z m -196.6,-173.9 c 191,0 396,-64.2 666.5,-347.7 59.1,76.3 135.5,138.2 228.9,201.5 -229.8,160.3 -559.4,281.2 -697.6,277.1 v 0 c -123.1,-3.5 -251.3,-77.1 -339.6,-140.6 46.9,5.7 93.9,9.7 141.8,9.7 z m 640.9,-383.5 h -0.1 z m 29.2,-70.3 c -14.2,0 -27.7,5.9 -37.5,16.5 -366.9,399 -591.2,367.3 -850.9,330.6 -12.1,-1.7 -24.2,-3.4 -36.5,-5.1 -22.4,-3.1 -44,8.7 -53.5,29.3 -9.5,20.4 -4.6,44.3 12.2,59.3 78.5,70.2 283.4,234.2 491.5,240 v 0 c 182,5.1 566.4,-152.2 792,-323.7 13.2,-10 20.7,-25.8 20.1,-42.4 -0.6,-16.6 -9.3,-32 -23.3,-41.1 -118.6,-77.3 -210.1,-147.8 -271.7,-240.6 -8.6,-13.1 -22.6,-21.4 -38.3,-22.6 -1.4,-0.1 -2.7,-0.2 -4.1,-0.2"
         style="fill:#211d1d;fill-opacity:1;fill-rule:nonzero;stroke:none"
         id="path2028" />
      <path
         d="m 46986.2,16635.6 c -436.5,-620.3 -146.1,-1217.9 69.8,-1602.9 160.6,-286.3 342.1,-384.6 732.3,-399 252,-9.4 488.9,90.1 641.8,169.3 135.8,70.3 313.2,169.7 455.7,490.2 142.5,320.6 -1.1,740.2 -1.1,740.2 -25.1,-202.3 52.3,-381.7 -106.1,-637.7 -118.5,-191.6 -316.7,-351.6 -582,-415 -514.4,-123 -908.9,564.5 -812.8,1147.8 87.8,532.5 549.7,1007.8 927.7,1078.7 282.6,53 591.1,-67.7 849.7,-294.4 -34.2,162 -622.2,445 -772.5,469.7 -455.4,74.7 -965.9,-126.6 -1402.5,-746.9"
         style="fill:#c89519;fill-opacity:1;fill-rule:nonzero;stroke:none"
         id="path2030" />
      <path
         d="m 46986.2,16635.6 h 0.1 z m 1220.5,718.8 c -428.8,0 -844.1,-258.7 -1185.3,-743.5 -392.9,-558.4 -184,-1100.5 72.1,-1557.2 152.4,-271.6 321.6,-363.2 696.4,-377.1 187.2,-7.1 396.1,48.4 620.4,164.5 117.7,60.9 295.4,152.9 436.2,469.6 38.6,86.7 54.9,181.8 58.5,273.4 -15.8,-65.6 -43.2,-135.6 -89.8,-211.1 -135.2,-218.4 -351.4,-372.6 -608.6,-434.1 -189.9,-45.5 -381.7,10.8 -540.3,158.4 -253.1,235.7 -386.7,662.6 -324.9,1038.2 93.5,567.6 582.2,1042.6 962.2,1113.9 110.7,20.8 227.7,16.3 345.9,-11.7 -111.4,53.6 -213.6,93.5 -267.7,102.4 -58.5,9.6 -116.9,14.3 -175.1,14.3 z M 47821.4,14590 c -11.7,0 -23.2,0.3 -34.7,0.7 -406.2,15.1 -600.1,121.3 -768.2,421 -115.5,205.9 -239.6,453.4 -284.5,727.3 -54,330 19.1,639.9 217.1,921.4 407.5,579 920.5,850.6 1444.6,764.5 83.9,-13.8 274.7,-94.6 443.6,-188.1 223.5,-123.7 345.9,-229.7 363.9,-315.1 l 26.7,-126.2 -97.1,85 c -260.9,228.7 -557.4,332.4 -813.3,284.4 -178.1,-33.4 -378.1,-161.9 -548.6,-352.6 -182.5,-204.1 -304.9,-449.4 -344.6,-690.8 -57.5,-348.7 65.3,-744 298.6,-961.2 96.8,-90.1 255.5,-187.1 461.7,-137.8 235,56.2 432.3,196.7 555.4,395.8 103.7,167.6 99.8,296.9 95.7,433.8 -1.8,60.1 -3.7,122.1 4.3,186.6 l 23,185 60.4,-176.4 c 6.1,-17.8 147.4,-439.4 -0.3,-771.5 -141.2,-317.7 -312.2,-426.6 -475.3,-511 -224.1,-116.1 -435.3,-174.8 -628.4,-174.8"
         style="fill:#211d1d;fill-opacity:1;fill-rule:nonzero;stroke:none"
         id="path2032" />
      <path
         d="m 45756.6,16221.4 c 59.5,-22.6 94.7,69.8 35.2,92.4 -59.5,22.6 -94.8,-69.7 -35.2,-92.4"
         style="fill:#c5b861;fill-opacity:1;fill-rule:nonzero;stroke:none"
         id="path2034" />
      <path
         d="m 47714,17016.5 c 59.5,-22.7 94.7,69.7 35.2,92.4 -59.5,22.6 -94.8,-69.8 -35.2,-92.4"
         style="fill:#c5b861;fill-opacity:1;fill-rule:nonzero;stroke:none"
         id="path2036" />
      <path
         d="m 46875.6,16080.8 c 59.5,-22.6 94.8,69.8 35.2,92.4 -59.5,22.7 -94.7,-69.7 -35.2,-92.4"
         style="fill:#c5b861;fill-opacity:1;fill-rule:nonzero;stroke:none"
         id="path2038" />
      <path
         d="m 47223.7,16319.5 c 59.5,-22.7 94.7,69.7 35.2,92.4 -59.5,22.6 -94.8,-69.8 -35.2,-92.4"
         style="fill:#c5b861;fill-opacity:1;fill-rule:nonzero;stroke:none"
         id="path2040" />
      <path
         d="m 46278.7,14583.5 c 59.5,-22.7 94.8,69.7 35.2,92.4 -59.5,22.6 -94.7,-69.8 -35.2,-92.4"
         style="fill:#c5b861;fill-opacity:1;fill-rule:nonzero;stroke:none"
         id="path2042" />
      <path
         d="m 45492.7,16344.7 c 59.5,-22.6 94.7,69.8 35.2,92.5 -59.5,22.6 -94.8,-69.8 -35.2,-92.5"
         style="fill:#c5b861;fill-opacity:1;fill-rule:nonzero;stroke:none"
         id="path2044" />
      <path
         d="m 45466.6,16079 c 59.5,-22.6 94.7,69.8 35.1,92.4 -59.4,22.7 -94.7,-69.7 -35.1,-92.4"
         style="fill:#c5b861;fill-opacity:1;fill-rule:nonzero;stroke:none"
         id="path2046" />
      <path
         d="m 46026.2,17032.6 c 59.5,-22.6 94.8,69.8 35.2,92.5 -59.5,22.6 -94.7,-69.8 -35.2,-92.5"
         style="fill:#c5b861;fill-opacity:1;fill-rule:nonzero;stroke:none"
         id="path2048" />
      <path
         d="m 46665.8,17503.8 c 59.5,-22.6 94.8,69.7 35.2,92.4 -59.5,22.6 -94.7,-69.7 -35.2,-92.4"
         style="fill:#c5b861;fill-opacity:1;fill-rule:nonzero;stroke:none"
         id="path2050" />
      <path
         d="m 47097.5,17544 c 59.4,-22.6 94.7,69.8 35.1,92.5 -59.4,22.6 -94.7,-69.8 -35.1,-92.5"
         style="fill:#c5b861;fill-opacity:1;fill-rule:nonzero;stroke:none"
         id="path2052" />
      <path
         d="m 45441.8,15564.3 c 59.4,-22.6 94.7,69.8 35.1,92.5 -59.4,22.6 -94.7,-69.8 -35.1,-92.5"
         style="fill:#c5b861;fill-opacity:1;fill-rule:nonzero;stroke:none"
         id="path2054" />
      <path
         d="m 45742.9,15528.1 c 59.5,-22.7 94.8,69.7 35.2,92.4 -59.5,22.6 -94.7,-69.8 -35.2,-92.4"
         style="fill:#c5b861;fill-opacity:1;fill-rule:nonzero;stroke:none"
         id="path2056" />
      <path
         d="m 47113.9,15456.5 c 59.4,-22.6 94.7,69.8 35.1,92.5 -59.4,22.6 -94.7,-69.8 -35.1,-92.5"
         style="fill:#c5b861;fill-opacity:1;fill-rule:nonzero;stroke:none"
         id="path2058" />
      <path
         d="m 47276.5,15246 c 59.4,-22.6 94.7,69.8 35.1,92.4 -59.4,22.7 -94.7,-69.7 -35.1,-92.4"
         style="fill:#c5b861;fill-opacity:1;fill-rule:nonzero;stroke:none"
         id="path2060" />
      <path
         d="m 47310.3,14931.5 c 59.5,-22.7 94.8,69.7 35.2,92.4 -59.5,22.6 -94.7,-69.8 -35.2,-92.4"
         style="fill:#c5b861;fill-opacity:1;fill-rule:nonzero;stroke:none"
         id="path2062" />
      <path
         d="m 47548.3,14881.4 c 59.5,-22.7 94.8,69.7 35.2,92.4 -59.5,22.6 -94.8,-69.8 -35.2,-92.4"
         style="fill:#c5b861;fill-opacity:1;fill-rule:nonzero;stroke:none"
         id="path2064" />
      <path
         d="m 47900.3,14829.9 c 59.4,-22.6 94.7,69.8 35.1,92.4 -59.5,22.7 -94.7,-69.7 -35.1,-92.4"
         style="fill:#c5b861;fill-opacity:1;fill-rule:nonzero;stroke:none"
         id="path2066" />
      <path
         d="m 47088.8,15972.6 c 59.5,-22.6 94.7,69.8 35.1,92.5 -59.4,22.6 -94.7,-69.8 -35.1,-92.5"
         style="fill:#c5b861;fill-opacity:1;fill-rule:nonzero;stroke:none"
         id="path2068" />
      <path
         d="m 47031.8,15745 c 59.5,-22.6 94.8,69.8 35.2,92.5 -59.5,22.6 -94.8,-69.8 -35.2,-92.5"
         style="fill:#c5b861;fill-opacity:1;fill-rule:nonzero;stroke:none"
         id="path2070" />
      <path
         d="m 47209.1,16553.1 c 59.5,-22.6 94.8,69.8 35.2,92.4 -59.5,22.7 -94.7,-69.7 -35.2,-92.4"
         style="fill:#c5b861;fill-opacity:1;fill-rule:nonzero;stroke:none"
         id="path2072" />
      <path
         d="m 47079.1,16241.4 c 59.5,-22.6 94.8,69.8 35.2,92.4 -59.5,22.7 -94.8,-69.7 -35.2,-92.4"
         style="fill:#c5b861;fill-opacity:1;fill-rule:nonzero;stroke:none"
         id="path2074" />
      <path
         d="m 47345.1,16768.6 c 59.5,-22.6 94.8,69.8 35.2,92.4 -59.5,22.7 -94.7,-69.7 -35.2,-92.4"
         style="fill:#c5b861;fill-opacity:1;fill-rule:nonzero;stroke:none"
         id="path2076" />
      <path
         d="m 45624.5,15259.1 c 59.5,-22.6 94.7,69.8 35.2,92.5 -59.5,22.6 -94.8,-69.8 -35.2,-92.5"
         style="fill:#c5b861;fill-opacity:1;fill-rule:nonzero;stroke:none"
         id="path2078" />
      <path
         d="m 45856.7,14731.1 c 59.5,-22.7 94.8,69.7 35.2,92.4 -59.5,22.6 -94.7,-69.8 -35.2,-92.4"
         style="fill:#c5b861;fill-opacity:1;fill-rule:nonzero;stroke:none"
         id="path2080" />
      <path
         d="m 45641.9,14866.7 c 59.4,-22.6 94.7,69.8 35.1,92.4 -59.4,22.7 -94.7,-69.7 -35.1,-92.4"
         style="fill:#c5b861;fill-opacity:1;fill-rule:nonzero;stroke:none"
         id="path2082" />
      <path
         d="m 45612.7,15790.6 c 59.5,-22.7 94.7,69.7 35.2,92.4 -59.5,22.6 -94.8,-69.8 -35.2,-92.4"
         style="fill:#c5b861;fill-opacity:1;fill-rule:nonzero;stroke:none"
         id="path2084" />
      <path
         d="m 45865.1,15167.8 c 59.4,-22.6 94.7,69.8 35.1,92.5 -59.4,22.6 -94.7,-69.8 -35.1,-92.5"
         style="fill:#c5b861;fill-opacity:1;fill-rule:nonzero;stroke:none"
         id="path2086" />
      <path
         d="m 46139,14997.1 c 59.5,-22.6 94.8,69.8 35.2,92.5 -59.5,22.6 -94.7,-69.8 -35.2,-92.5"
         style="fill:#c5b861;fill-opacity:1;fill-rule:nonzero;stroke:none"
         id="path2088" />
      <path
         d="m 46460.8,14853.4 c 59.5,-22.6 94.8,69.8 35.2,92.5 -59.5,22.6 -94.8,-69.8 -35.2,-92.5"
         style="fill:#c5b861;fill-opacity:1;fill-rule:nonzero;stroke:none"
         id="path2090" />
      <path
         d="m 46125.3,14760.4 c 59.5,-22.6 94.8,69.8 35.2,92.5 -59.5,22.6 -94.7,-69.8 -35.2,-92.5"
         style="fill:#c5b861;fill-opacity:1;fill-rule:nonzero;stroke:none"
         id="path2092" />
      <path
         d="m 45723.6,16978.8 c 59.4,-22.6 94.7,69.7 35.1,92.4 -59.4,22.6 -94.7,-69.7 -35.1,-92.4"
         style="fill:#c5b861;fill-opacity:1;fill-rule:nonzero;stroke:none"
         id="path2094" />
      <path
         d="m 45731.7,16619.9 c 59.5,-22.6 94.8,69.8 35.2,92.5 -59.5,22.6 -94.7,-69.8 -35.2,-92.5"
         style="fill:#c5b861;fill-opacity:1;fill-rule:nonzero;stroke:none"
         id="path2096" />
      <path
         d="m 46196.1,17390.2 c 59.5,-22.7 94.7,69.7 35.2,92.4 -59.5,22.6 -94.8,-69.8 -35.2,-92.4"
         style="fill:#c5b861;fill-opacity:1;fill-rule:nonzero;stroke:none"
         id="path2098" />
    </g>
  </g>
  <g
     inkscape:groupmode="layer"
     id="layer2"
     inkscape:label="Lemon"
     transform="translate(-1.2743408,-0.8516276)"
     style="display:none">
    <g
       id="g3222"
       inkscape:label="lemon"
       transform="matrix(0.03527778,0,0,-0.03527778,-1625.3176,1067.9161)">
      <path
         d="m 48994.5,28280.5 c -591.9,-40 -1137.9,-12.2 -1647.8,-136.6 -48.8,-63.5 -80.7,-489.4 -61.9,-534.3 124.4,-298.2 262.5,-531.5 600.3,-748.8 337.9,-217.4 893.2,-377.6 1475.3,-343.9 220.3,12.7 1109.1,108.7 1219.9,230 31.3,34.3 22.2,363.2 15.4,400.4 -18.8,103.3 -132.7,81 -221.7,151.1 -280.8,221.2 -590.8,618.8 -880.9,1014.8 -180.1,-2.6 -312.9,-23.8 -498.6,-32.7"
         style="fill:#e6da3f;fill-opacity:1;fill-rule:nonzero;stroke:none"
         id="path2970" />
      <path
         d="m 50556.8,26765.5 z m -3191.2,1352.2 c -38.5,-76.9 -68.1,-450.2 -53,-497 128.6,-308 266.2,-527.2 588.7,-734.7 292,-187.8 828.1,-375.6 1457.3,-339.1 270,15.5 1098.8,115 1198.6,219.3 20.4,39.4 16.6,334.2 9,375.7 -8,43.9 -36.1,55.4 -93.8,75.4 -36.7,12.7 -78.4,27.1 -117,57.6 -286,225.3 -603.3,634.5 -877.4,1008 -95.7,-2 -178.1,-9.1 -265.1,-16.6 -67.5,-5.9 -137.3,-11.9 -216.6,-15.8 -179,-12.1 -354.4,-18 -524,-23.7 -389.2,-13.2 -757.1,-25.6 -1106.7,-109.1 z m 1835.5,-1635.4 c -573.7,0 -1057.7,176.6 -1332.3,353.3 -335.6,215.9 -478.4,443.1 -611.7,762.5 -23.7,56.6 11.2,493 65.8,564.1 l 6.4,8.4 10.3,2.5 c 359.1,87.6 733.9,100.2 1130.6,113.6 169.3,5.8 344.3,11.7 522.3,23.7 h 0.6 c 78.3,3.8 147.6,9.8 214.6,15.6 92.7,8.1 180.3,15.7 284.9,17.2 l 15.5,0.2 9.2,-12.5 c 273.6,-373.5 591.7,-785.5 875.2,-1008.9 30.7,-24.2 65.7,-36.3 99.5,-48 55.6,-19.2 118.6,-41 133.3,-121.3 2.5,-14.1 24.2,-374.4 -22.9,-426 -129.9,-142.3 -1105.9,-232 -1240.3,-239.7 -54.4,-3.2 -108.1,-4.7 -161,-4.7"
         style="fill:#211d1d;fill-opacity:1;fill-rule:nonzero;stroke:none"
         id="path2972" />
      <path
         d="m 47701.3,28194.5 c 400,46.4 1983.5,161.3 2005.7,106.7 52.2,-74.5 61.1,-107.4 114,-179.8 43.2,-59.1 398.8,-558.7 541.5,-676.9 49.2,-40.7 113.7,-94.3 160.8,-151.9 32.8,-39.3 56.9,-80.7 63,-121.2 5.1,-36 -4.2,-71.4 -35.1,-104 -109.7,-115.8 -976.7,-244.1 -1187.3,-254.3 -556.8,-26.6 -1079.9,130.7 -1395.7,343.6 -315.5,213.1 -517.5,528 -627.1,816.6 -14.3,38.2 6.8,63.3 -2.6,104.8 34.6,22 37,54.4 69.3,65.2 97.6,23.8 195.5,39.9 293.5,51.2"
         style="fill:#fefaec;fill-opacity:1;fill-rule:nonzero;stroke:none"
         id="path2974" />
      <path
         d="m 47701.3,28194.5 h 0.1 z m -333.2,-128.6 c 1.3,-16.3 -0.8,-30.3 -2.5,-42.2 -2.3,-15.6 -3.9,-27 1.3,-40.7 73.7,-194.2 251.9,-557.1 616.7,-803.6 271.1,-182.6 775.6,-367.6 1378.9,-338.8 226.4,11 1069.8,141.2 1168.7,245.8 23.1,24.2 32.2,50.8 27.9,81.1 -4.8,31.8 -23.9,68 -56.9,107.4 -46.4,56.8 -110.5,109.7 -157.2,148.4 -88.3,73.2 -266.1,294.4 -528.5,657.4 -8,11.1 -14,19.4 -17.7,24.5 -28.5,39 -45,67.6 -61,95.2 -13.7,23.8 -27.9,48.4 -50.4,80.8 -117.4,34.4 -1538.4,-62.5 -1982.9,-114 -105.4,-12.2 -199.9,-28.7 -288.9,-50.3 -8,-3 -12.6,-9 -21.2,-20.7 -6.7,-9.2 -14.6,-20 -26.3,-30.3 z m 1874.4,-1283.1 c -477.6,0 -962.5,130.6 -1289.7,351.1 -377.4,255 -561.3,629.3 -637.4,829.7 -10.2,27 -7,48.8 -4.2,68 2,14 3.7,26 0.5,40.4 l -4.3,18.9 16.4,10.4 c 11.7,7.5 18.4,16.6 26.2,27.3 10.5,14.3 23.5,32.2 49.1,40.8 l 2.2,0.6 c 91.6,22.4 188.7,39.3 296.9,51.9 213,24.6 716.3,64.7 1145.9,91.2 243.8,15.1 449.8,24.9 595.7,28.4 264.7,6.4 282.8,-7.2 291.5,-27 24.5,-35.2 39.6,-61.3 54.1,-86.6 16,-27.6 31,-53.6 57.8,-90.3 3.8,-5.1 9.8,-13.5 17.9,-24.7 259.6,-359.3 434.2,-577 518.9,-647.2 48.5,-40.1 115,-95 164.6,-155.7 39.3,-47.1 62.6,-92.4 68.9,-134.6 6.8,-47.6 -7.5,-90.2 -42.4,-126.9 -121.9,-128.7 -1011.9,-253.4 -1205.9,-262.8 -40.8,-2 -81.7,-2.9 -122.7,-2.9"
         style="fill:#211d1d;fill-opacity:1;fill-rule:nonzero;stroke:none"
         id="path2976" />
      <path
         d="m 47346.7,28108.3 c 9.4,-41.6 21.1,-81.8 35.6,-119.9 109.4,-288.6 270.4,-618.7 586,-831.6 315.9,-212.9 868.9,-386.1 1425.9,-359.5 210.9,10.1 1103.7,126.8 1213.3,242.7 5.9,52.4 -15.9,95.5 -21.2,131.5 l -2.2,-0.5 c -406.3,-202.6 -937.2,-283.7 -1395.5,-259 -458.3,24.7 -841,157.3 -1111.2,341.3 -270.1,184 -434.5,417.1 -541.6,662.1 -33.9,77.6 -61.9,157.1 -81.3,238.2 -15.5,-3.4 -31.1,-6.4 -46.6,-10.2 -32.4,-10.9 -26.5,-13.2 -61.2,-35.1"
         style="fill:#ffffff;fill-opacity:1;fill-rule:nonzero;stroke:none"
         id="path2978" />
      <path
         d="m 47377.9,28096 c 8.5,-34.9 18.6,-67.7 30.1,-97.8 102,-269.1 259.6,-605.4 575.7,-818.6 291.1,-196.2 839.7,-382.1 1409.2,-354.8 244.7,11.7 1064.6,127.3 1188,228 1,26.3 -5.7,50.5 -12.3,74 -0.5,1.8 -1,3.6 -1.4,5.4 -380.2,-181.5 -893.1,-273.9 -1380.1,-247.7 -432,23.3 -831.7,146.2 -1125.2,346.1 -245.9,167.5 -426.3,387.9 -551.3,673.8 -32.3,74 -57.9,146.7 -76.3,216.8 -6.2,-1.4 -12.5,-2.7 -18.7,-4.3 -16.3,-5.5 -18.9,-7.4 -28.1,-14 -2.7,-2 -5.8,-4.2 -9.6,-6.9 z m 1897.3,-1329 c -571.4,0 -1063.5,192.6 -1322.2,367 -329,221.9 -491.6,568 -596.5,844.7 -14.3,37.8 -26.6,79.4 -36.6,123.6 l -4.3,19 16.5,10.3 c 11.1,7 17.7,11.8 23,15.7 12.7,9.2 19.8,14 44.1,22.2 l 2.2,0.6 c 10.6,2.6 21.2,4.8 31.8,7.1 5.1,1.1 10.3,2.1 15.4,3.3 l 26.4,5.8 6.3,-26.3 c 17.9,-74.8 44.7,-153.4 79.7,-233.5 120.8,-276.2 294.7,-489 531.9,-650.5 285.3,-194.3 675,-313.8 1097.2,-336.6 490.4,-26.4 1007,69.4 1381.7,256.2 l 3.4,1.7 34.1,6.6 4.2,-28.4 c 1.5,-10 4.7,-21.6 8.1,-33.9 7.9,-28.5 17.8,-63.9 13.2,-104.7 l -1,-9.1 -6.3,-6.7 c -124.4,-131.5 -1062.5,-243.2 -1232,-251.2 -40.4,-2 -80.6,-2.9 -120.3,-2.9"
         style="fill:#211d1d;fill-opacity:1;fill-rule:nonzero;stroke:none"
         id="path2980" />
      <path
         d="m 49809.3,28123.1 c 44.1,-51.7 95.9,-121.7 150.5,-177.7 0.4,-0.5 300.4,-341.5 421.1,-483.1 39.4,-46.2 95.3,-112.1 142.4,-169.7 -33.9,-18 -72,-33 -110.1,-47.2 -79.8,-30 -161.8,-53.9 -244.2,-77.7 -92.6,-26.6 -181.1,-59.4 -276.3,-81.4 -95.2,-22.1 -194.1,-35.5 -282.5,-30.4 -88.4,5.5 -164.9,31.3 -195.9,76.4 -19.6,29.1 -19.9,64.1 -16.6,99.1 16.1,166.4 261.4,684.4 286.1,753 13.9,38.7 76.4,196.3 125.5,138.7"
         style="fill:#efd83e;fill-opacity:1;fill-rule:nonzero;stroke:none"
         id="path2982" />
      <path
         d="m 49785.7,28107.9 c -13.6,-4.2 -46.7,-51.5 -76.1,-132.8 -6.1,-17.1 -24.3,-58.5 -49.4,-115.7 -78,-177.6 -223.2,-508.1 -235.1,-630.6 -2.7,-28.9 -3.2,-58.7 12,-81.1 23.7,-34.4 90.7,-59.2 174.8,-64.3 77.7,-4.5 170.1,5.5 274.6,29.7 59.4,13.7 117.6,32.2 173.9,50 32.8,10.4 66.8,21.2 101,31.1 87.3,25.1 165.8,48.2 242.1,76.9 25.4,9.5 51.6,19.6 76.5,30.9 -40.7,49.2 -84.7,101 -120,142.5 -100.3,117.6 -323.9,372.4 -415.4,476.6 -2.2,2.5 -3.9,4.4 -4.9,5.5 -37.2,38.2 -73.5,83.1 -105.4,122.8 -16.2,20 -31.5,38.9 -45.9,55.9 v 0 c -1.3,1.4 -2.2,2.2 -2.7,2.6 z m -136.5,-1080.6 c -13.9,0 -27.4,0.4 -40.6,1.2 -103.7,6.3 -182.8,38.5 -217,88.2 -25,37.1 -24.8,80.1 -21.3,117.3 12.8,131.4 154.7,454.5 239.5,647.5 23.8,54.1 42.6,96.9 48.1,112.3 25.9,71.7 67.6,159.1 118.8,168.5 11.5,2.1 33.6,2 53.5,-21.4 14.9,-17.5 30.4,-36.7 46.9,-57 32.8,-40.7 66.8,-82.8 102.4,-119.3 l 6.4,-7.2 c 91.6,-104.2 315.4,-359.4 415.9,-477.2 42,-49.3 96.2,-113.2 142.8,-170.2 l 21.3,-26 -29.7,-15.7 c -35.9,-19.1 -75.8,-34.7 -113.4,-48.7 -78.2,-29.4 -157.7,-52.8 -246.2,-78.3 -33.5,-9.6 -67.1,-20.3 -99.6,-30.6 -57.3,-18.2 -116.6,-37 -178.1,-51.2 -92.3,-21.4 -176.1,-32.2 -249.7,-32.2"
         style="fill:#211d1d;fill-opacity:1;fill-rule:nonzero;stroke:none"
         id="path2984" />
      <path
         d="m 49429.6,28295.9 c -12.9,-10.1 -107.9,-48.1 -150.4,-62.4 -363.6,-122.1 -682.3,-286.3 -1045.9,-408.1 -137.7,-46.4 -216.7,-85.1 -332,-57.9 -99.1,23.5 -123.7,94.9 -132.9,161.4 -12.1,88.6 -47.7,184.6 -54.4,275.4 415.3,84.1 1765,130.3 1715.6,91.6"
         style="fill:#efd83e;fill-opacity:1;fill-rule:nonzero;stroke:none"
         id="path2986" />
      <path
         d="m 49429.6,28295.9 z m -1685.7,-113.8 c 5.3,-41.5 15.8,-84.7 26.1,-126.7 9.9,-40.5 20.2,-82.4 25.7,-122.7 8.3,-60.1 27.6,-118.4 112,-138.5 91.1,-21.5 158.8,2.2 261.3,38.1 17.5,6.1 35.9,12.6 55.5,19.2 181.4,60.7 354.7,133.4 522.3,203.7 167.8,70.4 341.3,143.1 523.6,204.4 16.6,5.5 38.4,13.7 60.1,22.2 -293.1,6.9 -1217.1,-31.6 -1586.6,-99.7 z m 232.3,-451.2 c -25.8,0 -52.4,3 -81.2,9.8 -118.9,28.2 -144.8,118.8 -153.8,184.5 -5.2,37.5 -14.6,76.2 -24.6,117.1 -12.8,52.5 -26.1,106.8 -30,160 l -1.7,24.2 23.7,4.8 c 177.3,35.9 554.4,69.9 1008.7,91 186.2,8.7 362.2,14 495.4,14.8 229.8,1.4 234.5,-8.7 243,-27.1 5.8,-12.5 2.1,-26.9 -9.2,-35.8 -19.2,-15 -127.6,-56.4 -158.5,-66.8 -180.5,-60.6 -353,-132.9 -519.9,-202.9 -168.5,-70.7 -342.8,-143.8 -526,-205.2 -19.4,-6.5 -37.6,-12.9 -54.9,-18.9 -78.6,-27.5 -141.3,-49.5 -211,-49.5"
         style="fill:#211d1d;fill-opacity:1;fill-rule:nonzero;stroke:none"
         id="path2988" />
      <path
         d="m 49718.9,28255.4 c 13.4,27.6 -8.8,48.4 -54.6,33.4 -261,-85.3 -1461.9,-573.2 -1514.6,-592.8 -52.6,-19.7 -102,-48.6 -121.8,-81.1 -28.2,-46.3 9.5,-85.2 49.3,-116.5 174.3,-137 387.9,-230.7 668,-297 102.1,-24.2 232.3,-40.8 350.5,5.8 114.7,45.3 161.8,127.7 195.6,199.4 73.8,156.1 318.7,622.9 427.6,848.8"
         style="fill:#efd83e;fill-opacity:1;fill-rule:nonzero;stroke:none"
         id="path2990" />
      <path
         d="m 49692.2,28266.4 c -4.2,0 -10.6,-0.8 -19.3,-3.7 -203.5,-66.5 -998.2,-385.8 -1337.6,-522.1 -98.9,-39.8 -164.2,-66 -176,-70.4 -53.1,-19.8 -93.5,-45.8 -107.9,-69.6 -9.3,-15.3 -14.5,-35.5 42.8,-80.6 169.4,-133.1 378.3,-225.8 657.3,-291.9 135.5,-32.1 244.8,-30.5 334.1,4.7 105.7,41.7 148.8,117.6 180.8,185.5 36.3,76.7 113.6,228 195.5,388.2 86.6,169.4 176.2,344.7 231.8,459.8 z m -763.9,-1116.2 c -57.8,0 -120.7,8.1 -189.4,24.4 -287.2,68 -502.8,164 -678.7,302.1 -24.9,19.6 -100.4,79.1 -55.8,152.5 28.7,47.2 97.4,78.2 135.7,92.5 11.1,4.2 79.8,31.7 174.7,69.9 368.7,148.1 1135.7,456.3 1341,523.4 35.5,11.6 65.6,7.1 82.6,-12.3 13.7,-15.7 15.7,-37.9 5.3,-59.3 -55.8,-115.7 -145.8,-291.7 -232.8,-462 -81.7,-159.7 -158.8,-310.6 -194.7,-386.6 -39.3,-83.1 -91.9,-166.4 -210.4,-213.2 -53.2,-21 -112.1,-31.4 -177.5,-31.4"
         style="fill:#211d1d;fill-opacity:1;fill-rule:nonzero;stroke:none"
         id="path2992" />
    </g>
  </g>
  <g
     inkscape:groupmode="layer"
     id="layer3"
     inkscape:label="peach"
     style="display:none">
    <g
       id="g5752"
       inkscape:label="peach slice"
       transform="matrix(0.03527778,0,0,-0.03527778,-14.374258,1157.7249)">
      <path
         d="m 2398.44,28245.3 c -14.39,-51.3 -80.44,-65.7 -114.58,-24.9 -272.71,326.7 -1100.04,1463.6 -456.53,2568.1 568.33,975.6 1481.96,1159.1 2200.33,972.4 480.46,-124.9 843.69,-634.7 843.69,-634.7 l -1953.1,-1027.8 -519.81,-1853.1"
         style="fill:#d06f4a;fill-opacity:1;fill-rule:nonzero;stroke:none"
         id="path1424" />
      <path
         d="m 3519.26,31787.4 c -485.17,0 -1169.64,-175.5 -1660.11,-1017.4 -631.45,-1083.9 187.07,-2207.4 452.97,-2526 10.18,-12.1 23.35,-10.9 28.54,-9.8 5.27,1.2 17.98,5.5 22.33,21 l 524.09,1868.4 1928.63,1014.9 c -89.93,114.2 -406.42,485.1 -797.31,586.7 -101.58,26.4 -280.05,62.2 -499.14,62.2 z M 2334.38,28159.9 c -30.1,0 -58.99,13.2 -78.78,37 -273.67,327.8 -1115.64,1484.9 -460.08,2610.2 268.06,460.1 625.67,775.7 1062.9,938 468.53,173.9 899.48,123.9 1178.5,51.4 487.81,-126.8 849.27,-627.7 864.42,-649 l 24.45,-34.3 -1976.37,-1040 -515.53,-1837.9 c -10.38,-37 -40.19,-65 -77.8,-73.1 -7.23,-1.5 -14.5,-2.3 -21.71,-2.3"
         style="fill:#211d1d;fill-opacity:1;fill-rule:nonzero;stroke:none"
         id="path1426" />
      <path
         d="m 3618.07,31342.5 c 663.01,47.5 1251.73,-238.3 1251.73,-238.3 0,0 -354.79,-348.7 -721.49,-716.2 -38.18,-37.7 -75.91,-75.9 -113.73,-113.9 -55.25,-55.5 -227.11,-72.7 -278.57,-125.3 -214.35,11.7 -445.12,-66.6 -537.68,-201.8 -74.56,-108.5 -251.19,-331.1 -135.57,-607.5 -39,-56.8 -4.57,-166.2 -44.56,-226.1 -36.14,-54 -71.9,-109.3 -107.37,-164.6 -189.15,-295.7 -362.82,-596.6 -466.71,-762.7 -45.21,-72 -104.57,-55.1 -160.49,9.2 -259.54,297.5 -860.89,1083.4 -307.68,2067.5 404.17,719.1 1039.64,1038.3 1622.12,1079.7"
         style="fill:#ead56e;fill-opacity:1;fill-rule:nonzero;stroke:none"
         id="path1428" />
      <path
         d="m 3767.64,31311 c -48.48,0 -97.5,-1.6 -146.94,-5.2 h -0.02 c -659.55,-46.9 -1240.05,-433.7 -1592.64,-1061 -375.18,-667.5 -270.29,-1367.8 303.33,-2025.3 25.21,-29 49.44,-44.8 66.25,-43.5 14.5,1.1 27.21,16.8 35.31,29.7 39.06,62.4 87.83,143.6 144.31,237.6 121.99,203.1 273.82,455.8 430.46,690.5 14.26,21.3 15.4,59.1 16.5,95.6 1.17,38.8 2.38,78.8 18,112.7 -103.17,269.7 48.32,486.4 130.47,603.9 5.44,7.7 10.56,15.1 15.27,21.9 94.85,138.3 321.48,227 554.91,218.4 33.31,25.5 84.33,41.6 137.95,58.5 49.71,15.7 106.06,33.5 127.61,55.2 329.54,331.5 682.13,679.4 797.05,792.5 -138.71,58.9 -559.04,218.5 -1037.82,218.5 z m -1372.2,-3208.7 c -39.63,0 -79.82,23.1 -119.6,68.9 -595.93,683 -703.83,1412.6 -311.99,2109.7 364.94,649.3 966.93,1049.6 1651.61,1098.4 h -0.02 c 665.19,47.5 1246.05,-230.2 1270.45,-242 l 46.96,-22.8 -37.24,-36.6 c -4.32,-4.2 -436.53,-428.9 -834.98,-829.8 -34.34,-34.6 -94.25,-53.5 -157.68,-73.5 -47.69,-15 -101.74,-32.1 -120.72,-51.5 l -11.68,-12 -16.68,1 c -210.97,11.5 -423.43,-66.6 -505.21,-185.8 -4.83,-7.1 -10.08,-14.6 -15.65,-22.5 -81.05,-115.9 -216.7,-309.9 -116.16,-550.1 l 7.74,-18.5 -11.34,-16.5 c -13.27,-19.4 -14.38,-56.1 -15.45,-91.5 -1.42,-46.9 -2.88,-95.4 -28.86,-134.3 -155.66,-233.2 -306.99,-485.1 -428.58,-687.5 -56.67,-94.4 -105.6,-175.8 -145.04,-238.8 -30.99,-49.4 -67.13,-62.1 -91.99,-64 -2.63,-0.2 -5.26,-0.3 -7.89,-0.3"
         style="fill:#211d1d;fill-opacity:1;fill-rule:nonzero;stroke:none"
         id="path1430" />
      <path
         d="m 4023.59,30274.4 c 0,0 -382.45,-295.7 -594.9,-569 -200.19,-257.7 -402.76,-604.5 -402.76,-604.5 0,0 -367.74,354.8 -49.23,877.3 355.92,583.8 1046.89,296.2 1046.89,296.2"
         style="fill:#d06f4a;fill-opacity:1;fill-rule:nonzero;stroke:none"
         id="path1432" />
      <path
         d="m 3638.43,30308.4 c -2.32,0 -4.65,0 -6.98,0 -273.52,-2.1 -483.23,-119.6 -623.32,-349.4 -243.33,-399.1 -65.21,-696.1 12.24,-795.5 61.52,102.1 221.85,361.9 379.25,564.4 167.86,216 435.18,441.7 548.45,533.5 -66.31,20 -180.03,47 -309.64,47 z m -604.34,-1266.5 -33.72,32.5 c -4.02,3.9 -99,96.8 -153.37,257.4 -50.07,148 -73.66,383.5 98.26,665.5 152.53,250.2 390.49,383.3 688.17,384.7 1.71,0.1 3.43,0.1 5.12,0.1 219.7,0 391.9,-70.7 399.18,-73.7 l 58.51,-24.3 -50.13,-38.8 c -3.79,-2.9 -381.28,-296.1 -588.35,-562.5 -196.34,-252.7 -398.02,-597 -400.04,-600.4 l -23.63,-40.5"
         style="fill:#211d1d;fill-opacity:1;fill-rule:nonzero;stroke:none"
         id="path1434" />
    </g>
  </g>
  <g
     inkscape:groupmode="layer"
     id="layer4"
     inkscape:label="grapefruit"
     style="display:none">
    <g
       id="g5674"
       inkscape:label="orange slice"
       transform="matrix(0.03527778,0,0,-0.03527778,-1266.4285,721.43208)">
      <path
         d="m 39505,17334 c 111.1,424.3 261.8,755.7 267.9,1145.3 -6.9,68.2 -54.8,161.1 -120,232.2 -52.6,4.9 -104.1,7 -153.6,5.9 -328.9,-7.1 -708.9,-75.5 -1011.6,-253.3 -302.8,-177.9 -600.6,-521.8 -715.4,-937.6 -43.5,-157.3 -131.9,-826.4 -39.2,-936.3 26.2,-31.1 60.7,-46.9 99.5,-52.2 107.8,-14.5 249.3,51.8 341.9,95.2 292.1,136.9 680.2,259.8 1148.8,356.5 43.4,126.5 143.3,212.2 181.7,344.3"
         style="fill:#ce5e1d;fill-opacity:1;fill-rule:nonzero;stroke:none"
         id="path1564" />
      <path
         d="m 39505,17334 h 0.1 z m 20.2,1357.5 c -8.5,0 -16.9,-0.1 -25.3,-0.3 -222.5,-4.7 -648.1,-43.6 -999,-249.6 -330.4,-194.1 -599.9,-547.4 -703.4,-922 -45.1,-162.8 -125.2,-816.9 -44.4,-912.6 20.4,-24.2 47.6,-38.3 83,-43.1 100.2,-13.5 236.9,50.6 327.4,93 296.5,139 690.5,261.8 1140.2,355.4 21.8,57.2 54,106.3 85.3,153.9 36.9,56.2 71.7,109.4 90.8,174.7 33,126.1 69.4,243.6 104.5,357.2 81.2,262.3 157.9,510.1 162.5,780 -6.7,60.5 -48.9,142.9 -106.5,208.3 -39.4,3.4 -78,5.1 -115.1,5.1 z m -1660.9,-2181.6 c -12,0 -23.7,0.7 -35.2,2.2 -48.2,6.5 -87.2,27.1 -116,61.2 -104.7,124.2 -6.3,814.5 34,960.2 107,387.2 385.7,752.4 727.3,953.1 361.1,212.1 796.8,252 1024.3,256.9 49.9,1.1 102.6,-0.9 156.6,-6 l 10.1,-1 6.8,-7.4 c 69.5,-75.7 119.2,-172.8 126.7,-247.2 l 0.2,-1.5 -0.1,-1.5 c -4.3,-278 -82.3,-529.7 -164.8,-796.3 -35,-113.1 -71.2,-230.2 -104,-355.2 l -0.2,-0.7 c -21.2,-73.1 -59.9,-132.1 -97.3,-189.2 -33.5,-51 -65.1,-99.2 -84.7,-156.3 l -4.8,-14.1 -14.6,-3 c -451.7,-93.2 -846.9,-215.8 -1143,-354.5 -86.4,-40.6 -212.7,-99.7 -321.3,-99.7"
         style="fill:#211d1d;fill-opacity:1;fill-rule:nonzero;stroke:none"
         id="path1566" />
      <path
         d="m 39749.1,18260.6 c -55.8,-291.9 -345.1,-1429.1 -405.2,-1430 -87.5,-16.5 -122.6,-13.9 -208.2,-31.5 -69.9,-14.3 -658.5,-129 -812.7,-197 -53,-23.5 -122.9,-54.2 -192.4,-71.7 -47.4,-12.4 -94.9,-18.1 -136.8,-11.5 -37.2,6.1 -70.1,22 -94.6,52.4 -87.5,107.6 5.7,747.8 49.3,897.7 115.4,396.2 405.5,719.5 698.2,883.2 292.9,163.3 658.2,220.1 973.8,219.3 41.7,-0.1 84.7,-2.8 128.4,-7.3 13.1,-30.1 21.4,-59.3 23.9,-84.8 -1.1,-74.5 -10.1,-147.2 -23.7,-218.8"
         style="fill:#f9f6c3;fill-opacity:1;fill-rule:nonzero;stroke:none"
         id="path1568" />
      <path
         d="m 39749.1,18260.6 h 0.1 z m -134.8,286.4 c -214.9,0 -619.2,-28.6 -955.7,-216.2 -250.3,-140 -562.2,-441.8 -686.6,-868.7 -45.1,-155.3 -130,-781.7 -53.8,-875.4 19.2,-23.8 45.2,-38 79.5,-43.6 34.9,-5.5 77.6,-1.8 126.7,11 68.9,17.4 138.1,48 188.7,70.4 95.2,42 360.7,106.9 789.1,192.8 12.9,2.6 22.6,4.6 28.6,5.8 45.8,9.4 78.2,13.3 109.6,17 27.6,3.2 56.2,6.6 95,13.8 64.5,77.3 328.4,1091.3 389.6,1411.3 14.6,76.2 22.2,145.9 23.3,213.2 -2,18.8 -7.6,40.3 -16.4,62.8 -39.1,3.7 -76.5,5.7 -111.5,5.8 -2,0 -4,0 -6.1,0 z m -1583.4,-2055.4 c -14.3,0 -28,1.1 -40.9,3.1 -46.2,7.5 -83.1,28.1 -109.9,61.2 -98.4,121.1 4.5,781 44.9,919.9 107.5,369.1 379.5,713.1 709.7,897.8 346.2,193 759.9,222.4 979.7,222.4 2.1,0 4.1,0 6.1,0 41,-0.1 85,-2.7 131,-7.5 l 14.2,-1.5 5.7,-13.1 c 14.1,-32.5 23.1,-64.3 25.8,-92.1 l 0.1,-1.4 v -1.4 c -1.1,-70.5 -9,-143.5 -24.2,-223 -29.7,-155.7 -118.2,-518.4 -201.4,-825.9 -163.6,-605 -200.5,-623 -225.2,-623.9 -41.5,-7.8 -71.4,-11.4 -100.3,-14.8 -31.8,-3.7 -61.8,-7.3 -105.6,-16.3 -6,-1.2 -15.8,-3.2 -28.8,-5.8 -424.9,-85.3 -686.9,-149 -778.9,-189.6 -49.2,-21.8 -123.6,-54.7 -196.3,-73 -38.3,-10 -73.7,-15.1 -105.7,-15.1"
         style="fill:#211d1d;fill-opacity:1;fill-rule:nonzero;stroke:none"
         id="path1570" />
      <path
         d="m 39749,18564.1 c -43.9,4.6 -87,7.2 -128.6,7.3 -315.5,0.9 -680.9,-55.8 -973.6,-219.4 -292.7,-163.6 -582.7,-486.7 -698.2,-883 -43.7,-150 -137,-790.1 -49.5,-897.8 24.7,-30.4 57.6,-46.4 94.8,-52.3 l 0.1,1.6 c -98.3,338.2 -43.8,730.9 97.7,1044.5 141.4,313.6 371.2,545.5 623.4,685 252.3,139.4 526.5,191.8 798,201 86,2.9 172.3,1.2 258.1,-7 0.6,11.8 1.5,23.4 1.7,35.3 -2.6,25.6 -11,54.7 -23.9,84.8"
         style="fill:#ffffff;fill-opacity:1;fill-rule:nonzero;stroke:none"
         id="path1572" />
      <path
         d="m 39613.6,18543.9 c -215,0 -618.2,-28.6 -953.4,-215.9 -318.8,-178.2 -581.3,-510.3 -685.2,-866.7 -51.9,-178.1 -126.9,-783.8 -54.5,-872.7 9.7,-12 21.1,-21.5 34.5,-28.6 -77,312.5 -36.3,688.4 111.6,1016.3 134.2,297.6 359.9,545.4 635.2,697.7 229.4,126.9 494.5,193.8 810.4,204.5 81.1,2.8 159.3,1.2 233,-4.6 0.1,1.4 0.1,2.8 0.2,4.2 -2,17.8 -7.4,38.3 -15.7,60.3 -38.4,3.5 -75.1,5.4 -109.4,5.5 -2.2,0 -4.4,0 -6.7,0 z m -1594.9,-2056.9 -29.1,4.7 c -46.8,7.4 -84.4,28.4 -111.9,62.2 -99.3,122.2 3.9,783.6 44.5,922.8 107.7,369.8 380.2,714.4 711.2,899.3 345.9,193.4 759.8,222.9 980.3,222.9 2.3,0 4.5,0 6.8,0 40.9,-0.1 85.1,-2.6 131.4,-7.4 l 16,-1.7 6.4,-14.8 c 14.4,-33.8 23.2,-65 26,-92.9 l 0.1,-1.6 v -1.6 c -0.1,-8.2 -0.6,-16.4 -1.1,-24.5 -0.2,-3.9 -0.4,-7.8 -0.6,-11.7 l -1.4,-28.8 -28.7,2.7 c -79.6,7.6 -165.3,9.9 -254.5,6.9 -307,-10.4 -564,-75.1 -785.6,-197.6 -265.1,-146.6 -482.3,-385.3 -611.8,-672.2 -150.1,-333 -186.2,-716.3 -96.3,-1025.5 l 1.5,-4.9 -3.2,-36.3"
         style="fill:#211d1d;fill-opacity:1;fill-rule:nonzero;stroke:none"
         id="path1574" />
      <path
         d="m 39143.6,16818.8 c -62.8,-16.9 -145.7,-34.4 -215.4,-57.6 -0.6,-0.1 -417,-118.4 -588.9,-164.8 -56.1,-15.1 -136,-36.5 -205.5,-54 -9.2,28.5 -14.5,59.2 -18.9,89.6 -9.5,63.7 -12.5,127.5 -15.1,191.4 -3,71.9 -13.1,142.4 -10.8,214.9 2.3,72.4 14.2,145.1 41.8,205.5 28,60.3 73.3,106.8 126.1,116.4 33.9,5.9 68.9,-3.2 103,-14.9 161.7,-55.9 615.4,-366 677.5,-401.6 34.9,-20.1 176.1,-106 106.2,-124.9"
         style="fill:#ce3745;fill-opacity:1;fill-rule:nonzero;stroke:none"
         id="path1576" />
      <path
         d="m 38928.2,16761.2 h 0.1 z m -649.2,568.7 c -5.6,0 -11.2,-0.4 -16.6,-1.4 -38.8,-7 -77.1,-43.8 -102.4,-98.3 -23.3,-50.8 -36.3,-115.7 -38.8,-192.9 -1.4,-44.3 2,-87.4 5.5,-133 2,-25.9 4.1,-52.7 5.2,-79.6 2.8,-67.2 5.8,-127.8 14.8,-187.9 2.7,-18.3 5.7,-37.1 9.9,-55.4 61.4,15.7 127.4,33.5 174.3,46.1 148.4,40.1 483.6,135 582.7,163.1 2.3,0.6 4,1.1 5,1.4 47.6,15.8 101.5,29.1 149.1,40.8 18.5,4.5 36.2,8.9 52.7,13.2 -17.3,16.9 -53.1,43.3 -99,69.7 -15.5,8.9 -52,32.6 -102.6,65.5 -157.2,102.2 -449.8,292.3 -569.4,333.6 -23.3,8 -47.6,15.1 -70.4,15.1 z m -166.5,-826.1 -9.3,28.6 c -10.2,31.3 -15.7,64.1 -20.2,95 -9.4,63.2 -12.6,125.5 -15.4,194.7 -1.1,25.6 -3.1,51.8 -5.1,77.2 -3.5,45.3 -7.2,92.2 -5.7,140 2.8,85.8 17.8,159.1 44.7,217.9 34.6,74.7 89.2,123.7 149.7,134.7 42.1,7.4 83.8,-4.1 119.1,-16.2 127.2,-43.9 424.1,-236.8 583.6,-340.5 47.8,-31.1 85.6,-55.6 99.5,-63.6 148.5,-85.4 143.2,-126 141.2,-141.3 -1.6,-12 -9.2,-33.6 -42.6,-42.6 -21.3,-5.7 -44.4,-11.4 -68.9,-17.4 -48.9,-12.1 -99.5,-24.5 -144.8,-39.6 l -7.1,-2.1 c -99.3,-28.1 -434.7,-123.1 -583.5,-163.3 -55.1,-14.8 -136.3,-36.6 -206,-54.1 l -29.2,-7.4"
         style="fill:#211d1d;fill-opacity:1;fill-rule:nonzero;stroke:none"
         id="path1578" />
      <path
         d="m 39412.6,17037.9 c -6.8,11.7 -20.4,88.2 -23.8,121.7 -29,286.8 -111.4,553.4 -140,840.1 -11.1,108.7 -29.6,174.3 26.9,247.5 48.7,63 126.1,61 194.8,49.6 91.4,-15.2 196,-16 288.3,-35.7 -22.2,-312.7 -320.2,-1268.1 -346.2,-1223.2"
         style="fill:#ce3745;fill-opacity:1;fill-rule:nonzero;stroke:none"
         id="path1580" />
      <path
         d="m 39404.3,18270.8 c -48.3,0 -80.5,-13.9 -103.2,-43.3 -40.4,-52.4 -35.1,-97.8 -25.3,-180.3 1.7,-13.9 3.4,-28.6 5,-44.2 14.2,-142.2 42.4,-282.4 69.6,-417.9 27.4,-136.5 55.8,-277.6 70.4,-422.2 1,-10 2.7,-22.4 4.8,-35.2 80,208.1 268.9,828.8 298.5,1107.2 -42.1,7.2 -87,11.3 -130.7,15.3 -42.7,3.9 -86.9,8 -128.2,14.9 -22.8,3.7 -42.9,5.7 -60.9,5.7 z m 10.6,-1266.7 c -12.2,0 -23.7,6.5 -30.2,17.6 -12.6,21.9 -26.2,116.9 -28,134.7 -14.3,141.5 -42.3,281 -69.4,416 -27.6,137.1 -56.1,278.9 -70.6,424.1 -1.5,15.2 -3.2,29.5 -4.8,43.2 -10.2,86 -18.3,153.9 38.3,227.2 60.9,78.8 157.9,72.9 225.5,61.7 39,-6.5 80.1,-10.3 123.6,-14.3 55.3,-5.1 112.6,-10.3 166.2,-21.8 l 27.4,-5.8 -2,-27.9 c -14.1,-198.8 -130.7,-608.8 -166.2,-729.7 -38.7,-132.2 -78.4,-256.9 -111.6,-351 -58.7,-165.7 -72,-168.8 -90.5,-173.1 -2.6,-0.6 -5.2,-0.9 -7.7,-0.9"
         style="fill:#211d1d;fill-opacity:1;fill-rule:nonzero;stroke:none"
         id="path1582" />
      <path
         d="m 39298.5,16846.5 c 24.1,-16.7 50.5,-6.8 47.2,29.2 -18.4,205.3 -198.5,1175 -204.6,1217.1 -6.2,42.1 -22.4,84.3 -49.8,106.8 -38.9,32.1 -87.3,16.2 -128.7,-3.2 -180.9,-85.1 -328.8,-209.3 -466.3,-387.2 -50.1,-64.8 -99.9,-151.4 -83.5,-246.4 15.8,-92.3 86,-147.3 148.8,-190.1 136.7,-93.4 539.6,-389.6 736.9,-526.2"
         style="fill:#ce3745;fill-opacity:1;fill-rule:nonzero;stroke:none"
         id="path1584" />
      <path
         d="m 39039.2,18185.8 c -16.3,0 -36.5,-6.1 -62.9,-18.5 -174.3,-82.1 -318.8,-202.1 -454.5,-377.8 -63.5,-82.1 -88.8,-154.5 -77.3,-221.3 13.8,-80.1 77,-129.2 135.2,-168.9 67.2,-45.9 198.1,-140.3 336.7,-240.3 145.7,-105.2 296.3,-213.9 397,-283.7 -15.3,163.4 -129.8,798.4 -178.8,1070.4 -16.2,89.7 -24,133.2 -25.4,142.4 -5.7,39.2 -20.1,71.6 -38.3,86.7 -8.9,7.3 -19.1,11 -31.7,11 z m 282,-1315 h 0.1 z m -0.1,-64.3 c -13.7,0 -28,4.6 -41,13.6 -101.2,70 -253.8,180.1 -401.4,286.6 -138.2,99.8 -268.8,194 -335.3,239.4 -74.2,50.6 -145.2,111.2 -162.4,211.2 -14.7,85.6 14.7,174.4 89.8,271.6 142.3,184.1 294.2,310.1 478.1,396.7 28.2,13.2 102.9,48.3 162.9,-1.1 42.1,-34.7 56.4,-94.5 61.1,-127 1.3,-8.6 11.3,-63.9 25,-140.3 53.7,-297.5 165.3,-916.5 179.9,-1078.6 2.6,-29 -7.8,-52.6 -28.5,-64.7 -8.6,-5 -18.2,-7.4 -28.2,-7.4"
         style="fill:#211d1d;fill-opacity:1;fill-rule:nonzero;stroke:none"
         id="path1586" />
    </g>
  </g>
</svg>
