<?xml version="1.0" encoding="UTF-8" standalone="no"?>
<svg
   height="879.62598"
   viewBox="0 0 223.28639 879.62598"
   width="223.28639"
   version="1.1"
   id="svg7"
   sodipodi:docname="ingredient-tawny_port.svg"
   xmlns:inkscape="http://www.inkscape.org/namespaces/inkscape"
   xmlns:sodipodi="http://sodipodi.sourceforge.net/DTD/sodipodi-0.dtd"
   xmlns="http://www.w3.org/2000/svg"
   xmlns:svg="http://www.w3.org/2000/svg">
  <defs
     id="defs7" />
  <sodipodi:namedview
     id="namedview7"
     pagecolor="#ffffff"
     bordercolor="#000000"
     borderopacity="0.25"
     inkscape:showpageshadow="2"
     inkscape:pageopacity="0.0"
     inkscape:pagecheckerboard="0"
     inkscape:deskcolor="#d1d1d1"
     fit-margin-top="15"
     fit-margin-left="15"
     fit-margin-right="15"
     fit-margin-bottom="15" />
  <path
     d="m 96.563782,179.17555 0.81,-0.24 a 3155,3155 0 0 0 5.049998,1.56 c -2.449998,2.45 -4.069998,1.69 -5.859998,-1.32 z m 55.849998,18.01 c 4.58,17.05 1,43.45 -0.46,61.25 -0.67,8.18 -2.35,22.77 1.3,29.88 2.35,12.96 13.57,29.73 24.08,37.63 a 16336,16336 0 0 1 13.02,13.21 67,67 0 0 1 0.79,0.96 c 3.41,4.31 6.82,8.63 10.23,12.94 a 7415,7415 0 0 0 4.75,9.01 2230,2230 0 0 1 3.14,7.17 l 3.12,9.66 c 0.29,1.31 0.58,2.61 0.87,3.92 a 10873,10873 0 0 1 1.14,7.1 c -0.01,9.04 -0.01,18.07 -0.02,27.11 l -0.09,5.97 c -0.33,19.35 -0.66,38.69 -0.98,58.04 -0.02,2.65 -0.03,5.31 -0.05,7.96 -0.3,14.96 -0.61,29.92 -0.91,44.88 a 735,735 0 0 1 -2.8,-1.38 c 0.87,-15.64 0.61,-31.35 0.81,-47 0.23,-18 0.71,-36 0.9,-54 0.24,-22.42 2.56,-43.89 -5.61,-65.22 -5.37,-14.04 -16.21,-24.99 -26.68,-35.37 -3.77,-3.73 -7.57,-9.27 -12.95,-10.04 a 5132,5132 0 0 1 -3.83,-0.37 c 0.7,0.88 1.4,1.75 2.1,2.63 3.23,6.35 10.11,11.32 14.49,16.97 6.35,8.19 11.95,17.77 15.37,27.57 8.52,24.41 5.32,51.44 4.66,76.83 -0.53,20.32 -0.7,40.67 -1,61 -0.14,9.76 0.24,19.66 -0.51,29.39 -6.59,0.4 -13.18,0.79 -19.77,1.19 l -12.15,0.21 c -8.68,0.27 -17.36,0.54 -26.03,0.81 H 84.253782 c -6.54,-0.33 -13.08,-0.66 -19.61,-0.99 -0.03,-33.79 -0.89,-67.66 -1.74,-101.45 -0.6,-23.89 -2.68,-48.59 3.88,-71.86 3.06,-10.85 8.84,-21.39 15.25,-30.61 2.76,-3.96 6.22,-7.47 8.53,-11.69 -2.44,-1.46 -4.77,-1.4 -7.69,-1.43 -3.18,-0.03 -6.99,-0.36 -10,0.77 -4.3,1.62 -9.4,8.6 -13.39,11.47 -1.51,-1.28 -2.02,-1.61 -0.61,-2.83 -1.67,-0.49 -3.33,-0.99 -5,-1.48 0.17,-0.83 0.33,-1.67 0.5,-2.5 -1,-0.87 -2.01,-1.74 -3.01,-2.61 1.49,-3.49 5.06,-5.96 7.34,-9.1 4.24,-5.82 7.73,-12.88 9.89,-19.76 4.45,-14.22 0.64,-28.69 1.62,-43.03 a 110,110 0 0 1 1.07,-0.5 c -0.14,-2.69 -0.27,-5.39 -0.41,-8.08 -0.45,0.19 -0.9,0.39 -1.35,0.58 l -0.09,-2 a 195,195 0 0 1 1.34,-0.5 533,533 0 0 0 0.02,-4 319,319 0 0 0 -1.61,-0.5 c 0.08,-0.23 0.17,-0.45 0.25,-0.68 a 287,287 0 0 0 1.24,-1.82 c -0.99,-2.28 -1.3,-3.38 -1.3,-6 -0.29,-0.17 -0.57,-0.33 -0.86,-0.5 0,-0.33 -0.01,-0.67 -0.01,-1 0.62,-1.17 1.25,-2.33 1.87,-3.5 0,1.94 0.25,4.08 -0.08,6 -0.17,0.98 -1.08,1.92 -0.95,2.94 0.12,0.98 1.27,1.26 1.59,2.14 1.18,3.27 0.91,7.49 1.94,10.92 0.44,-1.5 0.87,-3 1.31,-4.5 1.92,14.01 2.97,28.36 3.43,42.5 0.2,6.32 -0.62,12.73 0.26,18.99 4.2,1.42 8.95,2.1 13,0.14 4.01,-8.52 -0.73,-26.87 -2.15,-36.28 -2.22,-14.75 -3.91,-29.92 -4.15,-44.85 -0.11,-6.56 1.21,-13.22 0.67,-19.71 a 50,50 0 0 0 0.85,-0.67 21658,21658 0 0 1 1.93,25.38 48682,48682 0 0 1 8.35,0.4 c 13.169998,-0.07 26.329998,-0.15 39.499998,-0.22 2.14,-4.69 2.61,-17.89 0.74,-22.68 a 119,119 0 0 1 -0.17,-0.83 295,295 0 0 0 1.43,-1.84 c 2.5,-0.11 5,-0.23 7.5,-0.34 1.23,4.66 1.14,9.69 1.32,14.51 0.71,19.45 -2.44,38.6 -2.59,58 -0.06,7.83 0.73,24.2 6.77,29.7 2.27,-3.08 0.54,-7.16 -0.12,-10.94 -0.9,-5.11 -1.19,-10.57 -1.2,-15.76 -0.04,-24.93 6.8,-51.24 1.32,-75.94 a 1018,1018 0 0 0 -5.5,0.43 c 0.17,-0.29 0.33,-0.58 0.5,-0.87 z m -79.779998,1.24 c 0.31,0.13 0.61,0.26 0.92,0.39 0.2,0.89 0.4,1.79 0.6,2.68 a 41,41 0 0 0 -0.62,0.67 3015,3015 0 0 1 -2.66,0.21 c 0.17,-1.29 0.33,-2.59 0.5,-3.88 0.42,-0.02 0.84,-0.05 1.26,-0.07 z m 1.02,5.57 c -0.1,2 -0.2,4 -0.31,6 0.11,-2 0.21,-4 0.31,-6 z m -5.16,13 a 133,133 0 0 0 0.02,-2 c 0.29,-0.17 0.57,-0.33 0.86,-0.5 0.17,-1.5 0.33,-3 0.5,-4.5 0.17,2.17 0.33,4.33 0.5,6.5 -0.63,0.17 -1.25,0.33 -1.88,0.5 z m 4.83,-6 0.27,23.7 c -1.39,-3.82 -1.35,-19.29 -0.27,-23.7 z m 137.049998,462.14 c 0.32,-0.01 0.63,-0.01 0.95,-0.02 -0.29,12.04 -0.58,24.09 -0.87,36.13 a 44,44 0 0 0 -1.14,-0.14 c 0.02,-11.79 0.05,-23.57 0.07,-35.36 0.33,-0.2 0.66,-0.41 0.99,-0.61 z m -26,2 c 0.17,0.15 0.33,0.3 0.5,0.45 3.5,-0.15 7,-0.29 10.49,-0.44 a 42507,42507 0 0 1 -0.1,35.71 c -0.96,0.39 -1.93,0.77 -2.89,1.16 -6.33,0.67 -12.67,1.33 -19,2 a 4392,4392 0 0 1 -11.43,0.86 c -2.8,0.09 -5.6,0.19 -8.4,0.28 a 1961,1961 0 0 0 -7.67,0.02 c -0.17,0.23 -0.33,0.46 -0.5,0.69 -21.94,0.02 -43.89,0.05 -65.829998,0.07 a 24,24 0 0 1 -0.67,-0.76 c -3.55,-0.12 -7.1,-0.23 -10.65,-0.35 -0.34,-11.78 -0.67,-23.55 -1.01,-35.33 a 480,480 0 0 0 -2.27,-2.21 983,983 0 0 0 5.43,-0.02 c 0.17,0.3 0.33,0.6 0.5,0.9 3.48,-0.08 6.96,-0.17 10.44,-0.25 l 8.06,0.12 c 3.15,1.53 7.84,0.95 11.499998,1.01 7.59,0.11 26.19,1.4 32.5,-0.79 6.17,-0.18 12.33,-0.37 18.5,-0.55 a 30,30 0 0 0 0.5,-0.58 c 10.67,-0.66 21.33,-1.33 32,-1.99 z m -167.739998,0.43 0.09,5.43 z m 20.95,22.43 c 0.03,2 0.05,4 0.07,6 -0.02,-2 -0.04,-4 -0.07,-6 z m -24.04,11.97 a 3048.1,3048.1 0 0 0 -1.81,2.03 c 0.05,-1.33 0.09,-2.67 0.14,-4 0.56,0.66 1.11,1.31 1.67,1.97 z m 197.849998,0.12 a 153,153 0 0 0 1.81,0.91 c 0.06,7.34 0.12,14.69 0.18,22.03 -1.84,5.3 -1.05,21.87 -1.13,28.47 -0.03,3.19 -0.74,6.78 0.8,9.5 l -0.81,11.34 c -0.57,0.72 -1.13,1.44 -1.7,2.16 -0.17,-0.05 -0.35,-0.11 -0.52,-0.16 0.19,-15.45 0.38,-30.89 0.57,-46.34 0.27,-9.3 0.53,-18.6 0.8,-27.91 z m -199.619998,2.91 a 52,52 0 0 0 0.77,0.5 2409,2409 0 0 0 0.14,8.5 c 0.13,2.67 0.27,5.33 0.4,8 0.06,1.33 0.11,2.67 0.17,4 -1.8,3.13 -1.58,19.48 -0.11,23 0,0.33 -0.01,0.67 -0.01,1 -0.07,6.17 -0.13,12.33 -0.2,18.5 a 272,272 0 0 0 -1.75,1.5 l -0.12,-6 c -0.15,-7 -0.3,-14 -0.44,-21 a 59,59 0 0 1 0.82,-0.5 l -0.81,-16.5 a 13336,13336 0 0 0 0.25,-20 c 0.3,-0.33 0.59,-0.67 0.89,-1 z m 181.709998,75.93 c 0.62,9.45 0,19.1 -0.08,28.57 -0.04,4.49 0.81,9.94 -1.19,13.94 -1.95,-0.31 -3.89,-0.63 -5.84,-0.94 0.21,-2.12 -4.8,-3.08 -6.97,-3.68 -7.61,-2.1 -15.02,-4.61 -22.98,-5.79 l -4.92,-1.53 -20.13,-2.25 -1,-0.03 c -9.5,-1.82 -19.85,-1.04 -29.5,-0.63 -3.879998,0.16 -8.489998,-0.43 -11.499998,1.91 5.04,1.4 11.139998,0.27 16.499998,0.2 5.31,-0.06 10.78,1.26 16,0.99 2.8,-0.15 5.65,-0.67 8.5,-0.85 0.33,0.11 0.67,0.22 1,0.33 3.33,1.11 6.67,2.22 10,3.33 -2,0.67 -4,1.33 -6,2 0.92,0.71 3.23,1.36 3.75,2.19 1.18,1.88 -2.17,5.54 -2.53,6.97 -0.18,0.7 0.8,1.68 0.06,2.12 -0.27,0.16 -1.94,-0.22 -2.28,-0.28 0.41,1.93 1.6,3.18 1.97,5.03 0.72,3.61 -1.19,6.6 0.03,9.97 3.13,2.54 1.69,1.69 3.22,4.78 1,2.02 1.94,1.51 0.28,3.5 10.22,-0.46 20.39,-1.55 30.5,-3.1 4.27,-0.66 9.72,-0.8 13.31,-2.64 3,-0.85 5.99,-1.69 8.99,-2.54 a 87,87 0 0 1 0.97,-0.5 208,208 0 0 1 -1.48,1.5 1431,1431 0 0 1 5.27,-1.46 c 5.5,-1.16 8.64,-5.48 13.76,-6.97 -0.4,12.65 -11.83,19.46 -22.82,22.33 -4.06,0.84 -8.11,1.69 -12.17,2.53 a 115,115 0 0 0 0.38,-1.8 c 5.76,-3.61 12.72,-6.73 16.5,-12.63 -14.28,2.19 -28.57,4.39 -42.85,6.58 -2.79,0.03 -5.57,0.07 -8.36,0.1 a 39,39 0 0 1 -0.5,0.67 c -4,0.12 -8,0.25 -12,0.37 a 4410,4410 0 0 1 -11.5,-0.16 c -0.17,0.25 -0.33,0.5 -0.5,0.75 -4.33,0.01 -8.67,0.01 -13,0.02 -0.17,-0.25 -0.33,-0.5 -0.5,-0.75 a 6989,6989 0 0 1 -14.479998,0.05 c -3.01,-0.1 -6.01,-0.2 -9.02,-0.3 -0.17,-0.2 -0.33,-0.4 -0.5,-0.6 -2.15,-0.03 -4.3,-0.07 -6.45,-0.1 a 55209,55209 0 0 1 -42.74,-5.63 c 5.84,4.33 11.69,8.67 17.53,13 -6.96,0.46 -13.53,-2.82 -20.27,-4.28 -5.86,-3.43 -16.13,-9.7 -13.98,-17.9 2.88,1.04 5.75,2.08 8.63,3.12 a 703.51,703.51 0 0 1 3.78,2.06 c 1.86,0.24 3.71,0.47 5.57,0.71 1.81,0.52 3.62,1.05 5.43,1.57 0.8,0.08 1.6,0.17 2.4,0.25 a 472,472 0 0 1 3.6,0.89 c 0.26,0.07 0.52,0.15 0.78,0.22 3.91,0.69 7.81,1.37 11.72,2.06 0.67,-1.07 1.33,-2.13 2,-3.2 1.33,0.3 2.67,0.6 4,0.9 0.42,-0.54 0.83,-1.08 1.25,-1.62 a 2016,2016 0 0 0 7.66,0.22 c -0.21,-10.02 -0.42,-20.05 -0.63,-30.07 a 584,584 0 0 0 3.77,-1.46 l 5.28,-0.75 c 2.92,0.01 4.79,-0.24 7.17,-1.72 -2.65,-0.71 -4.62,-0.73 -7.13,0.56 a 1210,1210 0 0 1 -5.87,1.1 465,465 0 0 1 -3.71,0.34 3,3 0 0 0 -0.05,0.28 c -0.07,-9.21 -0.14,-18.43 -0.21,-27.65 l 10.97,0.09 c 0.17,0.19 0.33,0.39 0.5,0.58 l 6,0.27 c 0.17,-0.24 0.33,-0.49 0.5,-0.73 6.69,1.14 13.709998,0.82 20.499998,0.83 10.15,0.02 20.33,0.16 30.47,-0.51 4.86,-0.32 11.87,0.56 16.06,-1.53 a 56007,56007 0 0 1 39.08,-3.2 z m 14.23,1.64 c 1.42,4.52 0.54,10.03 0.47,14.93 -0.09,7.04 0.92,15.31 -0.47,22 z m -189.529998,12.43 a 833,833 0 0 0 0.01,5 833,833 0 0 1 -0.01,-5 z m 114.689998,27 c 0.33,-2.71 0.21,-2.83 -2.5,-2.5 z m -111.459998,7.88 c -0.03,-0.66 -0.05,-1.32 -0.08,-1.98 0.77,-1.42 0.36,-1.12 2.04,-1.4 -0.44,1.89 -0.24,2.1 -1.96,3.38 z m 1.18,10.33 c -0.83,-0.78 -1.65,-1.56 -2.48,-2.34 0.12,-0.12 0.23,-0.25 0.35,-0.37 l 2.41,2.35 c -0.09,0.12 -0.19,0.24 -0.28,0.36 z"
     fill="#e66704"
     fill-rule="evenodd"
     stroke="#e66704"
     stroke-linejoin="round"
     stroke-width="0.25"
     id="path1" />
  <path
     d="m 154.07378,48.995551 a 40,40 0 0 1 -0.68,0.5 l 0.09,11 c 0.22,0.17 0.45,0.33 0.67,0.5 0.22,8.81 -3.63,8.7 -5.3,15.93 -1.35,5.83 -0.72,12.62 -0.43,18.57 1.14,23.999999 3.8,48.209999 7.11,71.999999 2.26,16.25 5.46,32.57 5.97,49 0.46,14.7 -1.27,29.35 -2.16,44 -0.49,7.99 -1.14,15.81 0.4,23.75 4.67,24.03 22.59,35.19 37.8,52.07 8.09,8.98 15.28,19.03 19.61,30.4 8,21.06 5.78,42.72 5.56,64.78 -0.34,33.49 -0.68,67.02 -1.53,100.5 a 37,37 0 0 1 -0.65,0.5 c -0.07,1.33 -0.13,2.67 -0.2,4 0.26,0.17 0.51,0.33 0.77,0.5 -0.31,19.33 -0.63,38.67 -0.94,58 a 42,42 0 0 1 -0.7,0.5 534,534 0 0 1 -0.11,4 50,50 0 0 1 0.76,0.5 c -1.14,75.67 -2.29,151.33 -3.43,227 a 833,833 0 0 0 -0.04,5 c 0.02,5.26 0.41,10.97 -0.75,16.12 -3.43,15.2 -19.4,20.23 -32.78,23.06 -0.58,-0.23 -1.16,-0.45 -1.74,-0.68 2.33,-1.7 4.67,-3.4 7,-5.1 10.99,-2.87 22.42,-9.68 22.82,-22.33 a 38,38 0 0 1 0.01,-1.07 839,839 0 0 1 0.34,-5 c 0.23,-0.17 0.46,-0.33 0.69,-0.5 a 7503,7503 0 0 1 0.23,-15 c -0.27,-0.17 -0.53,-0.33 -0.8,-0.5 a 133,133 0 0 0 0.02,-2 56,56 0 0 1 0.8,-0.5 c -0.08,-4.17 -0.15,-8.33 -0.23,-12.5 a 2134,2134 0 0 1 -0.14,-8 c -0.01,-2.33 -0.01,-4.67 -0.02,-7 0.05,-2.89 0.1,-5.77 0.15,-8.66 l 0.81,-11.34 c 0.11,-12.66 0.22,-25.31 0.33,-37.97 2.21,-5.15 1.09,-13.76 1.05,-19.53 -0.02,-2.59 0.28,-5.28 -0.79,-7.5 a 4034,4034 0 0 1 0.07,-11 c 0.24,-0.17 0.48,-0.33 0.72,-0.5 l 0.09,-10 c -0.28,-0.17 -0.55,-0.33 -0.83,-0.5 a 1161,1161 0 0 1 -0.17,-5.81 667,667 0 0 1 0.59,-4.69 c -0.93,-0.13 -1.86,-0.25 -2.79,-0.38 -0.32,0.01 -0.63,0.01 -0.95,0.02 a 1409.3,1409.3 0 0 0 -6.5,-0.14 61,61 0 0 0 -0.5,0.83 816,816 0 0 1 -4.93,0.34 c -3.19,-0.06 -6.38,-0.11 -9.57,-0.17 -0.17,-0.26 -0.33,-0.51 -0.5,-0.77 7.68,-0.91 15.37,-1.82 23.05,-2.73 a 1896,1896 0 0 0 0.64,-7.5 c 0.02,-1.67 0.03,-3.33 0.05,-5 0.16,-16 0.31,-32 0.47,-48 a 42,42 0 0 1 0.7,-0.5 1201,1201 0 0 1 0.11,-6 c -0.25,-0.17 -0.5,-0.33 -0.75,-0.5 0.08,-20.62 0.15,-41.24 0.23,-61.85 -15.5,0.85 -31,1.7 -46.5,2.56 a 54,54 0 0 0 -0.5,-0.79 4874,4874 0 0 1 -11.51,0.97 c -32.95,1.95 -66.519998,1.2 -99.489998,-0.19 -14.89,-0.62 -30.13,-2.73 -44.9999998,-2.4 -0.08,8.23 -0.15,16.47 -0.23,24.7 0.02,1.67 0.03,3.33 0.05,5 0.4699998,29.67 0.9499998,59.33 1.4199998,89 -0.25,0.17 -0.5,0.33 -0.75,0.5 l 0.09,4 c 0.24,0.17 0.47,0.33 0.71,0.5 0.24,1.82 0.47,3.65 0.71,5.47 7.74,1.96 16.07,1.97 24,2.67 18.15,1.61 36.3,2.16 54.5,3.01 0.17,0.25 0.33,0.51 0.5,0.76 5,0.1 9.999998,0.19 14.999998,0.29 a 77,77 0 0 0 0.5,-0.92 c 2.33,-0.01 4.67,-0.01 7,-0.02 v 0.58 c -0.69,0.34 -1.39,0.67 -2.08,1.01 a 16018,16018 0 0 0 -21.919998,0.19 l -8.06,-0.12 c -3.64,-0.22 -7.29,-0.43 -10.94,-0.65 a 983,983 0 0 1 -5.43,0.02 c -2.19,-0.15 -4.38,-0.31 -6.57,-0.46 -0.17,-0.31 -0.33,-0.62 -0.5,-0.93 l -6,-0.18 c -0.17,0.3 -0.33,0.59 -0.5,0.89 -4.7,-0.33 -9.4,-0.65 -14.09,-0.98 -0.41,-0.16 -0.81,-0.32 -1.22,-0.48 -0.06,-0.38 -0.13,-0.77 -0.19,-1.15 l -9,-0.3 c -0.17,0.29 -0.33,0.57 -0.5,0.86 a 135,135 0 0 0 -2,-0.16 c -2.51,-2.24 -5.88,-1.73 -8.96,-1.29 -1.85,-0.11 -3.69,-0.23 -5.5399998,-0.34 l 0.12,32.23 c -1.41,2.96 -0.73,7.14 -0.71,10.5 0.04,7.5 -1,18.4 0.9499998,25.4 0.13,3.37 0.26,6.73 0.39,10.1 0.14,7 0.29,14 0.44,21 -0.31,0.17 -0.62,0.33 -0.93,0.5 0.01,1.67 0.01,3.33 0.02,5 a 100,100 0 0 0 1.03,0.5 c -0.12,0.33 -0.23,0.67 -0.35,1 a 40,40 0 0 1 -0.68,0.5 c 0.1,2.67 0.2,5.33 0.3,8 0.32,0.17 0.64,0.33 0.96,0.5 l 0.12,15 0.06,5 v 1 a 4034,4034 0 0 0 -0.08,11 l -0.06,16.5 c 0.25,0.17 0.49,0.33 0.74,0.5 0.15,2 0.3,4 0.46,6 a 481,481 0 0 1 1.31,2.32 c -2.15,8.2 8.12,14.47 13.98,17.9 l 0.93,1.8 c 4.42,1.36 8.49,1.96 12,5.14 1.5,0.11 3,0.23 4.5,0.34 a 136,136 0 0 1 0.83,1.73 c -4.44,-0.15 -9.23,-1.6 -13.56,-2.87 -6.36,-1.85 -13.33,-4.18 -18.16,-8.96 -10.2099998,-10.09 -7.5399998,-32.91 -7.8399998,-46.4 0.26,-0.17 0.52,-0.33 0.78,-0.5 -0.03,-1.33 -0.07,-2.67 -0.1,-4 -0.25,-0.17 -0.49,-0.33 -0.74,-0.5 -0.31,-18.33 -0.63,-36.67 -0.94,-55 0.26,-0.17 0.52,-0.33 0.78,-0.5 l -0.09,-7 c -0.25,-0.17 -0.5,-0.33 -0.75,-0.5 -0.65,-35.67 -1.3,-71.33 -1.95,-107 a 50,50 0 0 0 0.76,-0.5 l -0.09,-5 c -0.24,-0.17 -0.47,-0.33 -0.71,-0.5 a 80078,80078 0 0 1 -0.95,-49 c 0.26,-0.17 0.53,-0.33 0.79,-0.5 -0.03,-2.33 -0.07,-4.67 -0.1,-7 a 47,47 0 0 0 -0.74,-0.5 l -0.48,-42 -0.06,-7 c -0.14,-5.67 -0.27,-11.33 -0.41,-17 0.25,-0.17 0.5,-0.33 0.75,-0.5 l -0.12,-4 c -0.23,-0.17 -0.46,-0.33 -0.69,-0.5 -0.73999999,-26.81 -0.92999999,-53.68 -1.21999999,-80.5 -0.21,-19.81 -1.65000001,-40.16 6.15999999,-58.87 4.3599998,-10.47 10.9199998,-20.98 18.7899998,-29.18 13.21,-13.73 30.23,-25.94 35.88,-45.02 3.9,-13.16 2.61,-26.49 1.37,-39.93 -1.17,-12.61 -1.76,-25.34 -1.15,-38 0.86,-17.75 4.25,-35.47 6.68,-53.05 3.4,-24.58 6,-49.63 6.55,-74.449999 0.25,-0.17 0.49,-0.33 0.74,-0.5 l -0.81,-4.92 c -0.86,-6.9 -6.09,-11.68 -5.98,-18.58 0.23,-0.17 0.46,-0.33 0.69,-0.5 l 0.09,-6 c -0.24,-0.17 -0.49,-0.33 -0.73,-0.5 0.05,-2.44 -0.14,-5.12 0.6,-7.48 0.44,-1.44 1.55,-2.71 1.78,-4.21 0.48,-3.21 -0.11,-7.03 0.03,-10.31 a 4033,4033 0 0 1 0.05,-11 c -0.03,-4.58 -1.36,-12.17 1.86,-15.91 3.82,-4.45 12.57,-4.54 17.91,-5.01 13.659998,-1.22999996 27.339998,-1.27999996 40.999998,-0.07 5.42,0.47 13.1,0.85 17.45,4.53 3.88,3.29 2.7,9.45 2.68,13.96 -0.01,5.67 0.1,11.33 0.03,17 -0.03,2.12 -0.53,4.62 -0.16,6.71 0.35,1.99 1.63,3.82 2.2,5.79 z m -9.41,-42.49 c -13.71,-4.25 -29.58,-3.98 -43.79,-3.24 -7.179998,0.38 -15.019998,0.66 -21.769998,3.24 z M 67.343782,197.73555 a 40,40 0 0 1 -0.1,1.13 7704,7704 0 0 0 -1.04,6.13 42,42 0 0 0 -0.7,0.5 c 0.01,2.87 0.03,5.75 0.04,8.62 0.17,10.16 0.4,20.23 1.16,30.37 1.43,19.03 4,38.94 -4.5,56.82 -6.83,14.36 -19.77,23.38 -30.07,34.94 -15.39,17.26 -25.3499998,36.31 -26.9599998,59.75 -0.22,0.17 -0.45,0.33 -0.67,0.5 a 4033,4033 0 0 0 0.01,11 37,37 0 0 0 0.65,0.5 c 0.32,20 0.63,40 0.95,60 a 46,46 0 0 0 -0.73,0.5 c 0.02,1.33 0.05,2.67 0.07,4 a 42,42 0 0 1 0.7,0.5 c 0.37,21.83 0.74,43.67 1.11,65.5 6.0499998,0.54 12.0899998,1.08 18.1399998,1.62 a 714,714 0 0 0 4.47,0.97 c 0.17,-0.26 0.33,-0.51 0.5,-0.77 a 70705,70705 0 0 0 46,1.85 c 0.17,0.22 0.33,0.44 0.5,0.66 3.67,0.08 7.33,0.16 11,0.24 a 50,50 0 0 1 0.5,-0.76 c 7,0.12 13.999998,0.25 20.999998,0.37 4,0 8,0 12,-0.01 5.67,-0.13 11.33,-0.27 17,-0.4 0.17,0.26 0.33,0.52 0.5,0.78 a 4329,4329 0 0 1 11.34,-0.92 l 65.49,-3.63 c 0.3,-15.17 0.59,-30.33 0.89,-45.5 a 47,47 0 0 1 0.74,-0.5 c 0.03,-1.33 0.07,-2.67 0.1,-4 -0.26,-0.17 -0.53,-0.33 -0.79,-0.5 0.32,-17.33 0.63,-34.67 0.95,-52 0.25,-0.17 0.5,-0.33 0.75,-0.5 a 534,534 0 0 1 0.11,-4 c -0.27,-0.17 -0.54,-0.33 -0.81,-0.5 0.44,-24.78 2.71,-47.05 -8.79,-69.92 -2.77,-5.51 -6.4,-12.37 -11.25,-16.23 a 116,116 0 0 0 -1.09,-1.17 1901,1901 0 0 0 -5.92,-6.74 11811,11811 0 0 0 -11.14,-11.21 c -5.07,-7.5 -12.93,-13.01 -17.11,-21.35 -10.89,-21.73 -7.91,-41.05 -5.86,-64.48 a 16008,16008 0 0 0 0.71,-6.95 817,817 0 0 1 -0.07,-4.95 l -0.03,-7 0.09,-4 v -5.92 c -0.24,-1.72 -0.47,-3.45 -0.71,-5.17 -0.07,-0.62 -0.15,-1.24 -0.22,-1.86 a 13216,13216 0 0 0 -0.81,-6.8 c -2.28,-18.92 -4.55,-37.83 -6.82,-56.75 -6.45,-2.79 -14.78,-2.38 -21.75,-2.77 -13.01,-0.73 -41.129998,-1.53 -52.849998,2.77 -2.22,19.08 -4.45,38.16 -6.68,57.24 z m 27.03,-52.44 c 0.19,0.5 0.38,1.01 0.57,1.51 a 5442,5442 0 0 0 -4.78,0.69 42031,42031 0 0 0 -0.68,35.5 c 0,2.38 -0.01,4.77 -0.01,7.16 a 14701,14701 0 0 0 -0.09,3.41 h -1.21 c 0.23,-15.92 0.47,-31.83 0.7,-47.75 1.83,-0.17 3.67,-0.35 5.5,-0.52 z m 5,-0.15 a 27792,27792 0 0 1 28.869998,0.01 c -2.1,0.32 -4.2,0.65 -6.3,0.97 -8.19,0.21 -16.38,0.41 -24.569998,0.62 a 280,280 0 0 1 2,-1.6 z m 38.299998,49.73 a 565.81,565.81 0 0 0 -2.09,3.12 c -0.24,-16.67 -0.47,-33.33 -0.71,-50 2.37,2.97 1.58,7.62 1.56,11.5 -0.03,8.33 0.04,16.67 0.09,25 0.02,3.41 -0.76,7.52 1.15,10.38 z m -22.8,-15.53 a 475,475 0 0 0 0.88,2.15 c -2.08,-0.34 -2.18,-0.34 -0.88,-2.15 z m 20.76,21.65 c 0.27,0.06 0.54,0.11 0.81,0.17 a 119,119 0 0 1 0.17,0.83 c -0.08,1.17 -0.16,2.33 -0.24,3.5 -0.24,0.17 -0.49,0.33 -0.73,0.5 0,-1.67 -0.01,-3.33 -0.01,-5 z m -17.26,22.23 c 3.67,0.01 7.33,0.01 11,0.02 -0.17,0.25 -0.33,0.5 -0.5,0.75 -3.5,-0.06 -7,-0.13 -10.5,-0.19 z m -41.299998,346.96 c 1.93,0.21 3.87,0.43 5.8,0.64 a 40,40 0 0 1 0.52,-0.68 c 1.52,-0.55 3.05,-1.1 4.57,-1.65 -3.51,6.96 -8.38,2.95 -14.38,4 -2.06,6.17 -3.48,12.81 -4.91,19.16 -0.44,1.99 -1.8,5.64 -1.06,7.64 0.43,1.17 2.43,1.7 3.45,2.2 h -13.86 c 1.22,-0.78 3.01,-1.19 4.08,-2.17 1.67,-1.51 1.89,-5.58 2.39,-7.65 1.52,-6.34 4.01,-13.37 4.2,-19.81 -3.8,-0.36 -8.82,-0.9 -10.9,3.23 -0.58,1.16 -0.72,2.5 -1.34,3.4 -5.84,-12.27 15.65,-8.97 21.44,-8.31 z m 62.339998,17.69 0.9,2.01 c -1.27,2.77 -2.78,10.11 -4.7,11.87 -0.8,0.74 -2.23,0.64 -3.24,0.74 0.36,-4.34 1.27,-8.66 2.2,-12.94 0.31,-1.44 1.38,-3.44 0.69,-4.88 -0.09,-0.19 -2.37,-1.02 -2.69,-1.18 l 6.3,-3.42 c 1.76,2.73 1.03,4.73 0.54,7.8 z m 4.83,-2.89 a 77,77 0 0 0 -0.89,-0.95 c 2.21,-2.42 4.59,-3.7 7.87,-3.54 2.4,3.6 0.81,8.21 -0.58,12.21 -0.34,0.98 -2.39,4.98 -1.71,5.85 0.61,0.79 1.91,0.66 2.74,0.94 -2.43,1 -4.87,2 -7.3,3 l 3.45,-18 c -1.19,0.16 -2.39,0.33 -3.58,0.49 z m 23.44,12.88 a 346,346 0 0 0 0.89,2.24 c -1.66,3.36 -3.72,7.56 -7.05,9.03 0.55,-1.63 1.96,-3.17 2.33,-4.88 0.77,-3.49 -1.15,-11.49 -2.05,-15.11 -0.32,-1.32 -0.66,-4.23 -2.21,-4.8 -1.19,-0.42 -2.83,1.1 -2.92,1.15 -0.01,-3.01 2.4,-4.26 5.2,-5.42 5.08,3.48 5.01,12.13 5.81,17.79 z m 3.35,-2.23 -1.68,0.66 c 0.62,-2.9 1.67,-5.84 1.99,-8.8 0.2,-1.85 -0.36,-4.07 0.21,-5.84 0.25,-0.79 0.83,-1 1.32,-1.58 4.23,3.31 0.12,11.28 -1.84,15.56 z m -83.609998,0.61 a 53,53 0 0 0 -1.04,-0.26 c 2.54,-3.97 5.99,-8.81 3.96,-13.49 -6.86,-0.12 -8.16,8.6 -9.02,14 0.69,1.89 0.14,1.66 1.96,2.21 a 147,147 0 0 0 1.22,1.32 c -1.54,0.96 -3.09,1.92 -4.63,2.88 -6.32,-2.96 -2.28,-12.57 0.97,-16.92 4.29,-5.75 9.85,-5.64 16.32,-4.49 -0.92,2.58 -4.86,14.84 -3.71,16.84 0.97,1.67 0.22,-0.35 1.53,1.16 -2.15,1.78 -3.36,2.91 -6.11,3.4 -0.77,-2.76 0.88,-6.24 -1.45,-6.65 z m 20.689998,-1.25 a 40,40 0 0 1 -0.68,0.5 l 1.2,2.64 a 6791,6791 0 0 0 -3.76,4.93 c -1.71,-3.92 -1.39,-8.3 -1.52,-12.57 -0.05,-1.52 0.42,-4.8 -1.01,-5.85 -0.58,-0.43 -2.33,-0.16 -2.979998,-0.15 2.169998,-1.28 4.339998,-2.57 6.509998,-3.85 2.5,3.74 1.45,9.74 2.24,14.35 z m 12.99,1.91 c 0.09,0.36 0.19,0.72 0.28,1.08 a 2205,2205 0 0 1 -4.51,4.93 c -0.67,-4.49 -1.33,-8.98 -2,-13.47 a 3109,3109 0 0 0 -4.35,5.99 c -0.31,-0.07 -0.63,-0.14 -0.94,-0.21 1.28,-4.59 4.26,-11.99 8.29,-14.42 0.97,4.38 0.82,12.88 3.23,16.1 z m 3.99,-4.23 c -0.53,0.19 -1.06,0.37 -1.59,0.56 0.94,-2.11 2.42,-4.44 2.51,-6.8 0.1,-2.53 -1.59,-3.66 -0.14,-5.58 6.32,1.7 1.91,8.13 -0.78,11.82 z m 36.43,16.46 c -1.06,2.29 -8.04,7.31 -9.89,3.17 -0.77,-1.73 0.37,0.09 -0.13,-1.81 2.41,-2 2.66,-0.54 5.38,-0.33 1.58,0.13 3.18,-0.59 4.64,-1.03 z m -8.13,10.89 a 91,91 0 0 1 -0.98,0.47 c -0.01,1.33 -0.03,2.67 -0.04,4 a 47,47 0 0 0 0.74,0.5 c -0.08,3.28 -1.18,13.78 0.47,16.23 0.44,0.66 1.77,1.23 2.29,1.77 -4.01,-0.17 -8.02,-0.33 -12.03,-0.5 0.77,-0.42 1.75,-0.54 2.31,-1.28 1.17,-1.57 0.74,-4.89 0.75,-6.72 0.01,-4.71 0.58,-9.54 -0.03,-14.2 -3.44,-0.55 -5.37,-0.87 -6.61,2.7 -0.2,-0.17 -0.4,-0.33 -0.6,-0.5 l -0.45,-3.6 c 7.28,-0.47 14.57,-0.93 21.85,-1.4 0.25,2.96 0.09,4.35 -0.99,7 -0.73,-1.65 -1.47,-3.31 -2.2,-4.96 a 681,681 0 0 0 -4.48,0.49 z m -81.779998,11.47 c 0.94,-0.66 2.89,-1.35 3.48,-2.29 2.71,-4.31 -0.08,-8.85 -4.22,-9.91 -1.81,4.08 -0.78,8.7 -0.85,13.11 -0.03,2.36 -1.1,5.88 0.16,8.09 0.62,1.09 2,1.83 2.69,2.56 h -11.51 c 0.75,-0.68 2.26,-1.79 2.62,-2.81 1.17,-3.31 0.27,-11 0.29,-14.75 0.01,-1.59 0.4,-3.91 -0.48,-5.35 -0.54,-0.9 -1.54,-1.16 -2.39,-1.65 4.68,-1.2 16.25,-2.43 19.5,2.46 4.16,6.24 -2.91,13.81 -9.29,10.54 z m 21.51,-13.2 c 4.94,-1.47 11.649998,-0.8 15.339998,3.11 5.66,5.99 3.6,17.71 -3.87,21.28 -5.979998,2.87 -14.439998,1.58 -18.189998,-4.28 -4.34,-6.79 -1.31,-17.74 6.72,-20.11 z m 30.249998,24.96 c -3.1,-0.05 -6.2,-0.11 -9.3,-0.16 -0.13,-0.2 -0.27,-0.4 -0.4,-0.6 0.86,-0.33 1.72,-0.67 2.58,-1 0.11,-4.5 0.22,-9 0.32,-13.5 0.1,-2.5 0.2,-5 0.29,-7.5 a 27,27 0 0 0 -0.56,-0.4 c 0.19,-0.69 0.38,-1.39 0.57,-2.08 5.2,-0.06 16.95,-2.16 17.66,5.48 0.16,1.74 -0.06,3.58 -1.14,5 -0.97,1.27 -2.7,2.05 -3.96,3 2.95,3.67 5.91,7.33 8.86,11 -10.38,3.78 -9.26,-6.3 -15.42,-10.91 -0.11,2.97 -0.23,5.94 -0.34,8.91 1.48,1.46 2.93,1.67 0.84,2.76 z m -27.199998,-23.82 c -7.9,1.88 -6.85,23.8 2.08,23 10.859998,-0.96 8.789998,-25.58 -2.08,-23 z m 26.699998,0.69 c -0.45,3.67 -1.23,7.95 1,10.98 6.1,-3.3 7.4,-11.8 -1,-10.98 z m 62.5,53.28 c 0.78,0.36 1.56,0.73 2.34,1.09 a 393,393 0 0 0 -3.34,0.64 c -10.67,0.66 -21.33,1.33 -32,1.99 -5.66,-0.16 -11.32,-0.31 -16.97,-0.47 v -0.56 c 16.65,-0.9 33.31,-1.79 49.97,-2.69 z m -172.689998,48.59 h 0.43 l -0.03,8 c -0.13,-2.67 -0.27,-5.33 -0.4,-8 z m 93.479998,15.71 c -0.31,-0.06 -0.63,-0.11 -0.94,-0.17 a 148,148 0 0 1 -1.84,-1.7 5,5 0 0 1 -0.01,-0.38 c 0.5,-0.05 1,-0.09 1.5,-0.14 0.67,-0.77 1.33,-1.55 2,-2.32 -0.24,1.57 -0.47,3.14 -0.71,4.71 z m 64.71,-3.82 c 0.36,2.5 -0.46,4.46 -1,7.13 -1.68,-2.81 -0.8,-4.51 1,-7.13 z m -91.439998,1.61 c -0.85,1.62 -1.71,3.23 -2.56,4.85 -0.26,-2.86 -0.42,-4.27 2.56,-4.85 z m 6.01,2.27 c 1.33,-0.76 2.67,-1.51 4,-2.27 l -0.57,4.5 c -0.82,-2.29 -1,-3.47 -3.43,-2.23 z m 10.96,4.8 v -7.07 c 3.33,0.65 1.27,4.97 0,7.07 z m 50.539998,-7.71 c 0.46,0.45 0.93,0.89 1.39,1.34 -0.82,1.93 -1.64,3.87 -2.46,5.8 0.36,-2.38 0.71,-4.76 1.07,-7.14 z m 4.21,0.15 c 0.21,0.41 0.89,0.34 1.2,0.68 1.07,1.22 -0.39,5.38 -1.2,5.81 z m 13.36,5.78 a 18,18 0 0 1 -0.07,-0.72 145,145 0 0 1 0.71,-2.23 c 0.38,-1.89 0.6,-1.75 1.72,-2.8 a 6104,6104 0 0 1 -1,5.59 c -0.45,0.05 -0.91,0.11 -1.36,0.16 z m -7.14,-1.4 a 135,135 0 0 1 1.5,1.04 c 0.74,-0.48 1.49,-0.95 2.23,-1.43 a 401,401 0 0 1 -3.23,2.54 c -0.34,-0.68 -0.69,-1.36 -1.03,-2.04 a 10,10 0 0 1 0.53,-0.11 z m -65.499998,22.86 c 1.58,1.72 1.79,2.19 2,4.38 -1.43,-1.74 -2.08,-2.35 -2,-4.38 z m 7,17.69 a 2619,2619 0 0 1 -5.21,-5.44 c 2.7,0.68 4.8,2.32 5.21,5.44 z m 81.499998,91.87 c -1.67,0.33 -3.33,0.67 -5,1 v -1.31 c 2.03,-1.02 2.83,-1.29 5,-1 z"
     fill="#0a0e18"
     fill-rule="evenodd"
     stroke="#0a0e18"
     stroke-linejoin="round"
     stroke-width="0.25"
     id="path2" />
  <path
     d="m 96.873782,194.87555 c 2.74,1.93 4.499998,2.91 6.669998,5.62 -2.69,1.74 -3.54,0.77 -6.669998,0.6 -0.63,-2.8 -0.63,-3.42 0,-6.22 z m 56.739998,0.74 a 135,135 0 0 1 1.25,0.88 c 0.07,0.83 0.14,1.67 0.21,2.5 0.21,1.68 0.43,3.37 0.64,5.05 -0.11,2.48 -0.23,4.97 -0.34,7.45 a 46,46 0 0 0 0.73,0.5 l 0.42,4.5 c 0.22,0.17 0.44,0.33 0.66,0.5 l -0.09,4 c -0.24,0.17 -0.48,0.33 -0.72,0.5 a 1411,1411 0 0 0 0.22,6.5 c -0.14,0.66 -0.27,1.32 -0.41,1.98 -1.47,4.78 -1.27,10.48 -1.71,15.52 -0.93,10.37 -1.91,20.56 -1.81,31 0.03,3.99 0.95,7.92 0.59,11.82 -3.65,-7.11 -1.97,-21.7 -1.3,-29.88 1.46,-17.8 5.04,-44.2 0.46,-61.25 a 214,214 0 0 1 1.2,-1.57 z m -84.169998,1.21 c -0.14,2.06 -0.27,4.11 -0.41,6.17 -0.31,-0.17 -0.62,-0.33 -0.93,-0.5 -0.04,-1 -0.09,-2 -0.13,-3 -0.24,-0.21 -0.49,-0.42 -0.73,-0.63 a 40,40 0 0 0 0.1,-1.13 190,190 0 0 0 2.1,-0.91 z m 4.11,1.99 c 0.27,-0.01 0.55,-0.01 0.82,-0.02 a 1634,1634 0 0 0 7,0.1 539,539 0 0 1 3.87,0.89 c 0.54,6.49 -0.78,13.15 -0.67,19.71 0.24,14.93 1.93,30.1 4.15,44.85 1.42,9.41 6.16,27.76 2.15,36.28 -4.05,1.96 -8.8,1.28 -13,-0.14 -0.88,-6.26 -0.06,-12.67 -0.26,-18.99 -0.46,-14.14 -1.51,-28.49 -3.43,-42.5 -0.2,-1.43 -0.39,-2.87 -0.59,-4.3 l -0.27,-23.7 a 33,33 0 0 0 0.02,-1 c 0.11,-2 0.21,-4 0.31,-6 l -0.12,-1.83 a 41,41 0 0 1 0.62,-0.67 c -0.2,-0.89 -0.4,-1.79 -0.6,-2.68 z m 71.819998,0.17 a 1018,1018 0 0 1 5.5,-0.43 c 5.48,24.7 -1.36,51.01 -1.32,75.94 0.01,5.19 0.3,10.65 1.2,15.76 0.66,3.78 2.39,7.86 0.12,10.94 -6.04,-5.5 -6.83,-21.87 -6.77,-29.7 0.15,-19.4 3.3,-38.55 2.59,-58 -0.18,-4.82 -0.09,-9.85 -1.32,-14.51 z m -80.729998,337.12 c -11.09,-0.12 -22.18,-0.23 -33.27,-0.35 0.83,-0.59 1.67,-1.17 2.5,-1.76 -1.19,-9.99 -0.46,-20.44 -0.71,-30.5 -0.53,-21.33 -1.1,-42.66 -1.53,-64 -0.49,-24.33 -3.68,-50.54 4.97,-73.81 2.67,-7.18 6.48,-14.69 11.22,-20.74 3.66,-4.66 8.32,-8.83 11.66,-13.64 3.99,-2.87 9.09,-9.85 13.39,-11.47 3.01,-1.13 6.82,-0.8 10,-0.77 2.92,0.03 5.25,-0.03 7.69,1.43 -2.31,4.22 -5.77,7.73 -8.53,11.69 -6.41,9.22 -12.19,19.76 -15.25,30.61 -6.56,23.27 -4.48,47.97 -3.88,71.86 0.85,33.79 1.71,67.66 1.74,101.45 z m 101.369998,-215.24 c 5.38,0.77 9.18,6.31 12.95,10.04 10.47,10.38 21.31,21.33 26.68,35.37 8.17,21.33 5.85,42.8 5.61,65.22 -0.19,18 -0.67,36 -0.9,54 -0.2,15.65 0.06,31.36 -0.81,47 a 735,735 0 0 0 2.8,1.38 c -0.16,0.4 -0.31,0.79 -0.47,1.19 l -14.58,-0.18 c 0.75,-9.73 0.37,-19.63 0.51,-29.39 0.3,-20.33 0.47,-40.68 1,-61 0.66,-25.39 3.86,-52.42 -4.66,-76.83 -3.42,-9.8 -9.02,-19.38 -15.37,-27.57 -4.38,-5.65 -11.26,-10.62 -14.49,-16.97 1.7,0.12 3.39,0.25 5.09,0.37 -1.78,-0.87 -0.61,-0.48 -2.5,-0.2 -0.29,-0.81 -0.57,-1.62 -0.86,-2.43 z m -82.889998,2.98 c -0.22,-0.27 0,-0.7 -0.13,-1.03 -0.77,-2.04 -3.6,0.44 -4.16,1.03 z m 94.209998,2.1 a 138,138 0 0 1 2.12,-0.22 11811,11811 0 0 1 11.14,11.21 l -0.24,2.22 a 16336,16336 0 0 0 -13.02,-13.21 z m 13.81,14.17 c 1.79,1.19 3.58,2.37 5.37,3.56 a 116,116 0 0 1 1.09,1.17 c 1.26,2.74 2.51,5.47 3.77,8.21 -3.41,-4.31 -6.82,-8.63 -10.23,-12.94 z m -1.27,4.88 c -0.33,2.71 -0.21,2.83 2.5,2.5 z m 16.25,17.07 c 2.58,1.62 3.16,4.12 3.14,7.17 a 2230,2230 0 0 0 -3.14,-7.17 z m 3.14,7.17 a 30,30 0 0 1 0.9,0.26 c 0.74,3.13 1.48,6.27 2.22,9.4 z m 3.99,13.58 a 10873,10873 0 0 1 1.14,7.1 10873,10873 0 0 0 -1.14,-7.1 z m 1.14,7.1 c 1.65,3.5 1.3,23.43 -0.02,27.11 0.01,-9.04 0.01,-18.07 0.02,-27.11 z m -0.11,33.08 c -0.33,19.35 -0.66,38.69 -0.98,58.04 0.32,-19.35 0.65,-38.69 0.98,-58.04 z m -1.03,66 c 2,9.25 0.33,21.81 0.26,31.5 -0.02,4.04 0.8,10.04 -1.17,13.38 0.3,-14.96 0.61,-29.92 0.91,-44.88 z m -47.88,47.29 12.15,-0.21 a 50809,50809 0 0 0 -11.65,1.05 c -0.17,-0.28 -0.33,-0.56 -0.5,-0.84 z m -81.119998,0.81 h 55.089998 c -3.71,1.22 -8.47,0.72 -12.47,0.83 -8.99,0.24 -18.01,0.21 -26.999998,0.04 -4.98,-0.1 -11.03,0.7 -15.62,-0.87 z m -68.84,136.01 a 73,73 0 0 0 1.05,0.8 c 0.06,0.55 0.11,1.11 0.17,1.66 l 0.09,5.43 c 0.15,6.23 0.22,12.46 0.35,18.69 0.07,3.42 0.91,7.41 -0.7,10.37 l -2.83,-0.09 c -0.56,-0.66 -1.11,-1.31 -1.67,-1.97 -0.05,1.33 -0.09,2.67 -0.14,4 a 33,33 0 0 1 0.04,1 c -0.3,0.33 -0.59,0.67 -0.89,1 -0.3,-3 -0.59,-6 -0.8899998,-9 l -0.12,-32.23 c 1.8499998,0.11 3.6899998,0.23 5.5399998,0.34 z m 195.909998,0.01 c 0.93,0.13 1.86,0.25 2.79,0.38 a 667,667 0 0 0 -0.59,4.69 c -0.23,0.1 -0.45,0.21 -0.68,0.31 l 0.39,15.6 0.48,0.9 a 4034,4034 0 0 0 -0.07,11 c -0.15,1.67 -0.29,3.33 -0.44,5 a 153,153 0 0 1 -1.81,-0.91 c -0.31,-0.28 -0.63,-0.56 -0.94,-0.84 0.29,-12.04 0.58,-24.09 0.87,-36.13 z m -12.88,1.05 a 816,816 0 0 0 4.93,-0.34 1204,1204 0 0 0 6.01,-0.08 c -0.02,11.79 -0.05,23.57 -0.07,35.36 a 8645,8645 0 0 0 -6.98,1.39 126,126 0 0 0 1.04,1.4 134,134 0 0 0 -2,0.13 c -0.17,-0.44 -0.33,-0.89 -0.5,-1.33 a 1050,1050 0 0 1 -5.61,0.16 42507,42507 0 0 0 0.1,-35.71 c 1.03,-0.33 2.05,-0.65 3.08,-0.98 z m -161.159998,1.46 c 4.69,0.33 9.39,0.65 14.09,0.98 a 1636,1636 0 0 1 7,0.22 c 2.19,0.15 4.38,0.31 6.57,0.46 a 480,480 0 0 0 2.27,2.21 c 0.34,11.78 0.67,23.55 1.01,35.33 -7.4,0.56 -15.2,-0.53 -22.55,-1.41 -2.82,-0.34 -5.61,-0.03 -8.14,-1.44 l 0.12,-7.98 c -0.02,-2 -0.04,-4 -0.07,-6 -0.1,-7.46 -0.2,-14.91 -0.3,-22.37 z m -25.74,106.43 a 175,175 0 0 0 0.89,2.44 c 0.26,0.15 0.52,0.29 0.78,0.44 a 82,82 0 0 1 0.66,0.97 l 3.69,0.96 a 9039,9039 0 0 0 0.62,16.13 833,833 0 0 0 0.01,5 c 0.19,9.5 0.39,19 0.58,28.5 0.85,-0.2 1.71,-0.4 2.56,-0.6 0.03,0.66 0.05,1.32 0.08,1.98 -0.39,0.79 -0.77,1.58 -1.16,2.37 -0.05,1.87 -0.09,3.75 -0.14,5.62 0.83,0.78 1.65,1.56 2.48,2.34 v 0.23 c -2.88,-1.04 -5.75,-2.08 -8.63,-3.12 a 481.233,481.233 0 0 0 -1.31,-2.32 c 2.62,-1.43 1.17,-9.4 1.09,-12.5 -0.31,-11 -0.25,-22.14 -1.34,-33.04 -0.31,-3.11 1.65,-7.6 -0.99,-9.46 a 1177,1177 0 0 1 0.13,-5.94 z m 200.699998,0.28 c -0.05,2.89 -0.1,5.77 -0.15,8.66 l -1.23,-1.5 c -1.14,12.18 -0.97,24.77 -1.01,37 -0.02,4.85 -0.96,11.28 1.35,15.5 a 38,38 0 0 0 -0.01,1.07 c -5.12,1.49 -8.26,5.81 -13.76,6.97 a 1585,1585 0 0 0 4.24,-2.54 c -2.59,-0.49 -3.93,-0.7 -5.8,-2.5 -0.83,0.33 -1.67,0.67 -2.5,1 l 0.18,-3 c 0.27,-0.17 0.55,-0.33 0.82,-0.5 0.33,-1 0.67,-2 1,-3 -0.33,-0.67 -0.67,-1.33 -1,-2 0.33,-0.5 0.67,-1 1,-1.5 2.17,1 4.33,2 6.5,3 -1.04,-2.58 -3.5,-3.73 -6,-4.94 a 536.05,536.05 0 0 0 -0.5,1.94 c -0.33,-0.17 -0.67,-0.33 -1,-0.5 -0.27,-0.93 -0.54,-1.87 -0.81,-2.8 l -1.35,-1.26 c 2,-4 1.15,-9.45 1.19,-13.94 0.08,-9.47 0.7,-19.12 0.08,-28.57 a 301.562,301.562 0 0 0 -1.11,-1.85 c 2.87,-0.97 4.31,-1.26 7,-0.32 0.33,-0.28 0.67,-0.56 1,-0.84 1.33,-0.14 2.67,-0.28 4,-0.42 a 195,195 0 0 1 0.5,1.34 c 1.17,0.22 2.33,0.44 3.5,0.66 0.55,-1.05 1.1,-2.11 1.65,-3.16 0.17,0.05 0.35,0.11 0.52,0.16 0.57,-0.72 1.13,-1.44 1.7,-2.16 z m -171.879998,7.83 a 86254,86254 0 0 0 16.01,1.61 c 2.33,0.09 4.67,0.19 7,0.28 a 1270,1270 0 0 0 6.03,1.07 c 0.07,9.22 0.14,18.44 0.21,27.65 l 0.54,1.65 c 0.21,10.02 0.42,20.05 0.63,30.07 a 2016,2016 0 0 1 -7.66,-0.22 c -4.58,-1.37 -9.17,-2.74 -13.75,-4.11 -1.33,-0.63 -2.67,-1.26 -4,-1.89 -0.3,-0.11 -0.59,-0.22 -0.89,-0.33 a 1831.3,1831.3 0 0 1 -4.18,-4.95 c 0.46,-2.02 0.93,-4.03 1.39,-6.05 1.73,-1.65 3.45,-3.3 5.18,-4.95 -1.33,0.67 -2.67,1.33 -4,2 a 803,803 0 0 1 -2.18,-4.06 z m 167.349998,0.4 v 36.93 c 1.39,-6.69 0.38,-14.96 0.47,-22 0.07,-4.9 0.95,-10.41 -0.47,-14.93 z m -3.84,48.43 c 0,2.46 0.11,3.25 2.5,3.5 -0.83,-1.17 -1.67,-2.33 -2.5,-3.5 z m -10.5,10.58 a 264,264 0 0 0 1.5,1.72 c 0.85,-0.42 1.71,-0.84 2.56,-1.26 a 1431,1431 0 0 0 -5.27,1.46 208,208 0 0 0 1.48,-1.5 z"
     fill="#fbd49d"
     fill-rule="evenodd"
     stroke="#fbd49d"
     stroke-linejoin="round"
     stroke-width="0.25"
     id="path3" />
  <path
     d="m 102.48378,161.58555 c -0.26,0.3 -0.52,0.61 -0.78,0.91 a 670,670 0 0 0 0.17,4.48 c -2.849998,0.32 -4.249998,1.46 -5.009998,-1.48 1.51,-0.33 3.03,-0.67 4.539998,-1 -1.07,-0.53 -2.129998,-1.05 -3.199998,-1.58 0.39,-0.47 0.78,-0.95 1.17,-1.42 z m -2.609998,8.21 c 2.279998,1.13 1.659998,0.63 2.249998,3.07 h -5.629998 c 1.13,-1.02 2.25,-2.05 3.38,-3.07 z m -0.92,6.68 a 80,80 0 0 0 -0.58,1.37 l -1,1.09 -0.81,0.24 a 94,94 0 0 0 -0.02,-1.68 c 0.78,-0.3 1.55,-0.6 2.33,-0.9 z m 3.659998,18.02 a 467,467 0 0 0 -3.739998,0.07 231,231 0 0 0 -1.27,-2.07 c 2.519998,0.2 3.179998,0.34 5.009998,2 z m -33.169998,2.33 0.69,-0.12 c 0.82,0.28 2.04,-0.27 2.52,0.86 0.11,0.26 -0.21,0.65 -0.02,0.86 -0.42,0.02 -0.84,0.05 -1.26,0.07 -0.17,1.29 -0.33,2.59 -0.5,3.88 a 3015,3015 0 0 0 2.66,-0.21 l 0.12,1.83 c -0.1,2 -0.2,4 -0.31,6 a 33,33 0 0 1 -0.02,1 c -1.08,4.41 -1.12,19.88 0.27,23.7 0.2,1.43 0.39,2.87 0.59,4.3 -0.44,1.5 -0.87,3 -1.31,4.5 -1.03,-3.43 -0.76,-7.65 -1.94,-10.92 -0.32,-0.88 -1.47,-1.16 -1.59,-2.14 -0.13,-1.02 0.78,-1.96 0.95,-2.94 0.33,-1.92 0.08,-4.06 0.08,-6 -0.62,1.17 -1.25,2.33 -1.87,3.5 a 2133,2133 0 0 1 -0.01,-8 c 0.63,-0.17 1.25,-0.33 1.88,-0.5 -0.17,-2.17 -0.33,-4.33 -0.5,-6.5 -0.17,1.5 -0.33,3 -0.5,4.5 -0.29,0.17 -0.57,0.33 -0.86,0.5 0.18,-4 0.35,-8 0.52,-12 0.14,-2.06 0.27,-4.11 0.41,-6.17 z m 11.93,2.07 a 1634,1634 0 0 1 -7,-0.1 126,126 0 0 0 0.5,-1.13 1200,1200 0 0 1 6,-0.02 163,163 0 0 1 0.5,1.25 z m 4.72,0.22 a 829,829 0 0 0 2.08,0.38 c 0.21,4.68 -1.15,15.18 1.17,18.5 a 864,864 0 0 0 0.64,5.03 101,101 0 0 0 0.89,1.31 l 5.5,-0.12 v 0.68 a 48682,48682 0 0 1 -8.35,-0.4 21658,21658 0 0 0 -1.93,-25.38 z m 10.78,3.91 c 1.71,2.5 3.229998,2.81 6.159998,3.47 -1.05,0.54 -2.11,1.09 -3.159998,1.63 -2.23,-1.92 -3.43,-2.13 -3,-5.1 z m -28.36,22.97 c 0.29,0.17 0.57,0.33 0.86,0.5 0,2.62 0.31,3.72 1.3,6 a 287,287 0 0 1 -1.24,1.82 c -0.31,-2.77 -0.61,-5.55 -0.92,-8.32 z m 0.67,9 a 319,319 0 0 0 1.61,0.5 533,533 0 0 1 -0.02,4 195,195 0 0 1 -1.34,0.5 c -0.08,-1.67 -0.17,-3.33 -0.25,-5 z m 1.03,15 c -0.23,-2.67 -0.46,-5.33 -0.69,-8 0.45,-0.19 0.9,-0.39 1.35,-0.58 0.14,2.69 0.27,5.39 0.41,8.08 a 110,110 0 0 1 -1.07,0.5 z m -18.85,71.89 c 1,0.87 2.01,1.74 3.01,2.61 -0.17,0.83 -0.33,1.67 -0.5,2.5 1.67,0.49 3.33,0.99 5,1.48 -1.41,1.22 -0.9,1.55 0.61,2.83 -3.34,4.81 -8,8.98 -11.66,13.64 -4.74,6.05 -8.55,13.56 -11.22,20.74 -8.65,23.27 -5.46,49.48 -4.97,73.81 0.43,21.34 1,42.67 1.53,64 0.25,10.06 -0.48,20.51 0.71,30.5 -0.83,0.59 -1.67,1.17 -2.5,1.76 -6.5,-0.56 -13,-1.11 -19.5,-1.66 l -0.36,-8.1 a 833,833 0 0 0 -0.05,-5 c -0.28,-8.67 -0.56,-17.33 -0.84,-26 a 36,36 0 0 0 0.64,-0.5 683,683 0 0 0 -0.4,-4.5 c -0.45,-24 -0.8899998,-48 -1.3399998,-72 l -0.03,-5 c -2.38,-31.51 6.7999998,-56.16 28.8099998,-78.57 3.97,-4.05 8.23,-9.76 13.06,-12.54 z m -34.9,352.02 a 1975,1975 0 0 0 7.91,0.49 135,135 0 0 1 2,0.16 c 3.23,0.2 6.46,0.39 9.69,0.59 0.41,0.16 0.81,0.32 1.22,0.48 0.1,7.46 0.2,14.91 0.3,22.37 0.03,2 0.05,4 0.07,6 l -0.12,7.98 a 209,209 0 0 1 -2.66,0.5 51,51 0 0 0 -0.2,1.21 29463,29463 0 0 0 -10.1,-1.19 c -0.07,-0.13 -0.13,-0.26 -0.2,-0.39 a 93,93 0 0 1 -0.5,-1 c -1.33,0.03 -2.67,0.05 -4,0.08 a 29,29 0 0 0 -0.41,0.58 347.584,347.584 0 0 0 -3.09,-0.76 v -0.95 c 1.61,-2.96 0.77,-6.95 0.7,-10.37 -0.13,-6.23 -0.2,-12.46 -0.35,-18.69 l -0.09,-5.43 c -0.06,-0.55 -0.11,-1.11 -0.17,-1.66 z m 53.91,3.36 c 3.65,0.22 7.3,0.43 10.94,0.65 -3.48,0.08 -6.96,0.17 -10.44,0.25 -0.17,-0.3 -0.33,-0.6 -0.5,-0.9 z m 19,0.77 a 16018,16018 0 0 1 21.919998,-0.19 c 7.36,0.14 14.72,0.27 22.08,0.41 -6.31,2.19 -24.91,0.9 -32.5,0.79 -3.659998,-0.06 -8.349998,0.52 -11.499998,-1.01 z m 121.079998,31.21 c 0.31,0.28 0.63,0.56 0.94,0.84 -0.27,9.31 -0.53,18.61 -0.8,27.91 -0.07,-2.83 -0.15,-5.67 -0.22,-8.5 -0.27,-0.17 -0.53,-0.33 -0.8,-0.5 l 0.03,-2 c 0.26,-0.17 0.51,-0.33 0.77,-0.5 0.03,-5.75 0.05,-11.5 0.08,-17.25 z m -15.19,1.61 a 1050,1050 0 0 0 5.61,-0.16 c 0.17,0.44 0.33,0.89 0.5,1.33 -3,0.29 -6,0.57 -9,0.86 v -0.87 c 0.96,-0.39 1.93,-0.77 2.89,-1.16 z m -21.89,3.16 v 0.88 a 2289,2289 0 0 1 -8.22,0.85 c -0.09,-0.25 -0.19,-0.5 -0.28,-0.75 a 7005,7005 0 0 1 -2.93,-0.12 4392,4392 0 0 0 11.43,-0.86 z m -105.149998,0.81 c 3.55,0.12 7.1,0.23 10.65,0.35 a 24,24 0 0 0 0.67,0.76 c -0.06,0.31 -0.11,0.62 -0.17,0.93 a 5643,5643 0 0 1 -13,-0.44 88,88 0 0 0 1.5,-0.5 c 0.12,-0.37 0.23,-0.73 0.35,-1.1 z m 85.319998,0.33 a 49,49 0 0 0 -0.67,0.84 c -2.5,-0.04 -5,-0.09 -7.5,-0.13 0.17,-0.23 0.33,-0.46 0.5,-0.69 a 1961,1961 0 0 1 7.67,-0.02 z m 59.84,17.87 c -0.11,12.66 -0.22,25.31 -0.33,37.97 -1.54,-2.72 -0.83,-6.31 -0.8,-9.5 0.08,-6.6 -0.71,-23.17 1.13,-28.47 z m -202.749998,0.97 0.81,16.5 a 59,59 0 0 0 -0.82,0.5 c -0.13,-3.37 -0.26,-6.73 -0.39,-10.1 0.13,-2.3 0.27,-4.6 0.4,-6.9 z m 2.62,0 c 0.15,1.69 0.3,3.37 0.45,5.06 a 10744,10744 0 0 0 -0.56,17.94 c -1.47,-3.52 -1.69,-19.87 0.11,-23 z m -0.12,24 c 0.03,8.98 0.05,17.96 0.08,26.94 -0.26,-0.15 -0.52,-0.29 -0.78,-0.44 a 175,175 0 0 1 -0.89,-2.44 c -0.24,-1.02 -0.47,-2.04 -0.71,-3.06 0.12,-0.33 0.23,-0.67 0.35,-1 a 272,272 0 0 1 1.75,-1.5 c 0.07,-6.17 0.13,-12.33 0.2,-18.5 z m 4.43,28.87 22.8,3.3 0.33,37.77 c -0.21,3.74 1,6.28 -4.32,5.56 -0.87,-2.05 -0.25,-2.17 -1.5,-3.5 -0.46,0.3 -1.92,1.02 -2.09,1.53 -0.16,0.47 0.56,1.42 0.53,1.97 -0.1,1.81 -0.69,2.64 -0.44,4.5 2.62,-0.03 5.07,-1.56 7,-1 0.58,-1.9 0.34,-2.31 1.82,-2.05 -0.46,2.02 -0.93,4.03 -1.39,6.05 a 1520,1520 0 0 1 -3.43,-1 c -1.96,1.88 -2.97,1.16 -5.5,1.5 -1.01,5.3 -0.37,6.33 -7,5 2.25,-1.83 3.37,-2.08 4,-5 h -7.08 c 0.45,-1.97 0.88,-2.29 -1.04,-1.25 0.39,-0.79 0.77,-1.58 1.16,-2.37 1.72,-1.28 1.52,-1.49 1.96,-3.38 -1.68,0.28 -1.27,-0.02 -2.04,1.4 -0.85,0.2 -1.71,0.4 -2.56,0.6 -0.19,-9.5 -0.39,-19 -0.58,-28.5 a 833,833 0 0 1 -0.01,-5 9039,9039 0 0 1 -0.62,-16.13 z m 62.81,6.35 7,0.12 c -0.17,0.24 -0.33,0.49 -0.5,0.73 l -6,-0.27 c -0.17,-0.19 -0.33,-0.39 -0.5,-0.58 z m 49.999998,24 v 1.62 c -2.85,0.18 -5.7,0.7 -8.5,0.85 -5.22,0.27 -10.69,-1.05 -16,-0.99 -5.36,0.07 -11.459998,1.2 -16.499998,-0.2 3.01,-2.34 7.62,-1.75 11.499998,-1.91 9.65,-0.41 20,-1.19 29.5,0.63 z m 1,0.03 20.13,2.25 4.92,1.53 c -0.18,0.16 -0.37,0.32 -0.55,0.48 1.69,1.21 -0.59,0.4 1.19,1.27 1.24,0.61 2.97,0.03 4.31,0.29 1.57,0.31 2.77,1.37 4.17,1.88 2.22,0.81 4.92,0.82 7.24,1.55 -3.48,1.51 -2.95,2.46 -0.91,4.5 4.42,-1 7.34,-2.93 9.69,2.5 -5.26,0.66 -3.66,-0.02 -8.69,2.5 0.34,0.51 1.29,0.93 1.06,1.5 -0.32,0.82 -1.82,0.36 -2.34,1.22 -1.24,2.03 -0.22,7.41 -0.22,9.78 2.75,-0.51 4.66,-0.82 7,1 -1.45,1.39 0.99,0.25 -0.72,1.28 -2.2,1.32 -6.01,-1.46 -5.78,2.22 0.59,0.54 -0.86,0.42 0.22,0.78 0.8,0.27 2.01,-0.63 2.81,-0.75 2.8,-0.42 6.05,-0.18 8.78,0.01 -3.59,1.84 -9.04,1.98 -13.31,2.64 -10.11,1.55 -20.28,2.64 -30.5,3.1 1.66,-1.99 0.72,-1.48 -0.28,-3.5 -1.53,-3.09 -0.09,-2.24 -3.22,-4.78 -1.22,-3.37 0.69,-6.36 -0.03,-9.97 -0.37,-1.85 -1.56,-3.1 -1.97,-5.03 0.34,0.06 2.01,0.44 2.28,0.28 0.74,-0.44 -0.24,-1.42 -0.06,-2.12 0.36,-1.43 3.71,-5.09 2.53,-6.97 -0.52,-0.83 -2.83,-1.48 -3.75,-2.19 2,-0.67 4,-1.33 6,-2 -3.33,-1.11 -6.67,-2.22 -10,-3.33 1.33,-0.22 2.67,-0.45 4,-0.67 -1.17,-0.17 -2.33,-0.33 -3.5,-0.5 -0.17,-0.25 -0.33,-0.5 -0.5,-0.75 z m -52.169998,2.97 a 45,45 0 0 1 0.04,-1.16 c 2.51,-1.29 4.48,-1.27 7.13,-0.56 -2.38,1.48 -4.25,1.73 -7.17,1.72 z m -5.83,-0.06 c 0.18,0.27 0.37,0.54 0.55,0.81 a 584,584 0 0 1 -3.77,1.46 l -0.54,-1.65 a 3,3 0 0 1 0.05,-0.28 465,465 0 0 0 3.71,-0.34 z m 59.499998,9.84 -2.5,-2.5 c 2.71,-0.33 2.83,-0.21 2.5,2.5 z m -104.999998,4 c -1.5,1.17 -3,2.33 -4.5,3.5 l 1.5,1.5 c 1.28,-2.45 2.75,-2.6 3,-5 z m 153.999998,-0.26 c 4.33,3.91 2.24,6.94 1.63,11.76 -4.21,0.55 -13.08,-0.78 -8.63,-6.5 2.06,3.93 3.34,4.66 6.5,1.5 -2.32,-4.42 -3.68,-2.04 0.5,-6.76 z m -145.079998,9.26 v 4.5 c -1.52,1.8 -2.87,1.51 -5.42,1 1.81,-1.83 3.61,-3.67 5.42,-5.5 z m 7.69,2.95 c 0.3,0.11 0.59,0.22 0.89,0.33 v 2.22 c 1.17,0.17 2.33,0.33 3.5,0.5 0.17,-0.28 0.33,-0.55 0.5,-0.83 4.58,1.37 9.17,2.74 13.75,4.11 -0.42,0.54 -0.83,1.08 -1.25,1.62 -1.33,-0.3 -2.67,-0.6 -4,-0.9 -0.67,1.07 -1.33,2.13 -2,3.2 -3.91,-0.69 -7.81,-1.37 -11.72,-2.06 2.41,-0.21 4.81,-0.43 7.22,-0.64 l -1.5,-1.5 c -2,-0.33 -4,-0.67 -6,-1 -0.17,0.97 -0.33,1.95 -0.5,2.92 a 472,472 0 0 0 -3.6,-0.89 l 0.6,-1.53 c -0.33,-0.67 -0.67,-1.33 -1,-2 0.5,-0.83 1,-1.67 1.5,-2.5 h 3 c 0.2,-0.35 0.41,-0.7 0.61,-1.05 z m -12.54,5.26 a 4023.4,4023.4 0 0 1 2.93,-0.21 c 0.83,0.59 1.67,1.19 2.5,1.78 -1.81,-0.52 -3.62,-1.05 -5.43,-1.57 z m 41.48,8.92 c 2.15,0.03 4.3,0.07 6.45,0.1 0.17,0.2 0.33,0.4 0.5,0.6 a 1635,1635 0 0 1 -6.95,-0.7 z m 76.809998,-0.05 c -2.95,0.26 -5.91,0.51 -8.86,0.77 a 39,39 0 0 0 0.5,-0.67 c 2.79,-0.03 5.57,-0.07 8.36,-0.1 z m -60.839998,1.05 a 6989,6989 0 0 0 14.479998,-0.05 c 0.17,0.25 0.33,0.5 0.5,0.75 a 7505,7505 0 0 1 -14.979998,-0.7 z m 39.979998,0.09 c -0.17,0.27 -0.33,0.54 -0.5,0.81 -3.83,-0.07 -7.67,-0.15 -11.5,-0.22 0.17,-0.25 0.33,-0.5 0.5,-0.75 a 4410,4410 0 0 0 11.5,0.16 z m 47.21,4.91 a 115,115 0 0 1 -0.38,1.8 c -0.78,0.28 -1.55,0.56 -2.33,0.84 0.39,-1.85 0.91,-1.94 2.71,-2.64 z"
     fill="#9d470a"
     fill-rule="evenodd"
     stroke="#9d470a"
     stroke-linejoin="round"
     stroke-width="0.25"
     id="path4" />
  <path
     d="m 78.373782,194.29555 c 3.08,0.29 7.32,1.18 9.8,-0.73 h 1.21 a 12128,12128 0 0 1 0.24,4.43 833,833 0 0 0 -0.02,5 c -0.09,5 -0.17,10 -0.26,15 -2.32,-3.32 -0.96,-13.82 -1.17,-18.5 a 829,829 0 0 0 -2.08,-0.38 50,50 0 0 1 -0.85,0.67 539.36,539.36 0 0 0 -3.87,-0.89 163,163 0 0 1 -0.5,-1.25 1200,1200 0 0 0 -6,0.02 126,126 0 0 0 -0.5,1.13 c -0.27,0.01 -0.55,0.01 -0.82,0.02 -0.31,-0.13 -0.61,-0.26 -0.92,-0.39 -0.19,-0.21 0.13,-0.6 0.02,-0.86 -0.48,-1.13 -1.7,-0.58 -2.52,-0.86 0.41,-0.69 0.83,-1.37 1.24,-2.06 a 1412,1412 0 0 0 6.5,0.26 c 0.17,-0.2 0.33,-0.41 0.5,-0.61 z m 59.299998,0.58 c 4.67,-0.49 11.77,-1.45 15.94,0.74 a 214,214 0 0 0 -1.2,1.57 l -6.54,0.93 c -0.17,0.29 -0.33,0.58 -0.5,0.87 -2.5,0.11 -5,0.23 -7.5,0.34 a 295,295 0 0 1 -1.43,1.84 c -0.27,-0.06 -0.54,-0.11 -0.81,-0.17 -0.02,-1 -0.04,-2 -0.05,-3 a 566,566 0 0 1 2.09,-3.12 z m -1.06,7.12 c 1.87,4.79 1.4,17.99 -0.74,22.68 -13.17,0.07 -26.33,0.15 -39.499998,0.22 v -0.68 a 16142,16142 0 0 1 21.999998,-0.41 c 3.5,0.06 7,0.13 10.5,0.19 0.17,-0.25 0.33,-0.5 0.5,-0.75 l 6.12,-0.75 a 76,76 0 0 0 0.13,-1.5 c 0.3,-0.17 0.59,-0.33 0.89,-0.5 l -0.09,-10 a 59,59 0 0 1 -0.82,-0.5 c 0.01,-1.33 0.03,-2.67 0.04,-4 0.24,-0.17 0.49,-0.33 0.73,-0.5 0.08,-1.17 0.16,-2.33 0.24,-3.5 z m -121.199998,471.11 c 3.08,-0.44 6.45,-0.95 8.96,1.29 a 1975,1975 0 0 1 -7.91,-0.49 73,73 0 0 1 -1.05,-0.8 z m 169.959998,0.3 3,-0.18 c 0.17,0.26 0.33,0.51 0.5,0.77 3.19,0.06 6.38,0.11 9.57,0.17 -1.03,0.33 -2.05,0.65 -3.08,0.98 -3.49,0.15 -6.99,0.29 -10.49,0.44 -0.17,-0.15 -0.33,-0.3 -0.5,-0.45 a 393,393 0 0 1 3.34,-0.64 c -0.78,-0.36 -1.56,-0.73 -2.34,-1.09 z m 25,-0.27 c -0.33,0.2 -0.66,0.41 -0.99,0.61 a 1204,1204 0 0 1 -6.01,0.08 61,61 0 0 0 0.5,-0.83 1409,1409 0 0 1 6.5,0.14 z m -174.309998,2.01 c -3.23,-0.2 -6.46,-0.39 -9.69,-0.59 0.17,-0.29 0.33,-0.57 0.5,-0.86 l 9,0.3 c 0.06,0.38 0.13,0.77 0.19,1.15 z m 22.31,1.68 a 1636,1636 0 0 0 -7,-0.22 c 0.17,-0.3 0.33,-0.59 0.5,-0.89 l 6,0.18 c 0.17,0.31 0.33,0.62 0.5,0.93 z m 54.999998,0.01 c 7.34,-0.06 14.68,-0.12 22.03,-0.18 5.65,0.16 11.31,0.31 16.97,0.47 a 30,30 0 0 1 -0.5,0.58 c -6.17,0.18 -12.33,0.37 -18.5,0.55 -7.36,-0.14 -14.72,-0.27 -22.08,-0.41 0.69,-0.34 1.39,-0.67 2.08,-1.01 z m -103.3799978,28.16 c 0.2999998,3 0.5899998,6 0.8899998,9 a 13336,13336 0 0 1 -0.25,20 c -0.13,2.3 -0.27,4.6 -0.4,6.9 -1.9499998,-7 -0.9099998,-17.9 -0.9499998,-25.4 -0.02,-3.36 -0.7,-7.54 0.71,-10.5 z m 203.6499978,1 c 1.07,2.22 0.77,4.91 0.79,7.5 0.04,5.77 1.16,14.38 -1.05,19.53 -0.06,-7.34 -0.12,-14.69 -0.18,-22.03 0.15,-1.67 0.29,-3.33 0.44,-5 z m -4.33,3.11 a 44,44 0 0 1 1.14,0.14 c -0.03,5.75 -0.05,11.5 -0.08,17.25 -0.26,0.17 -0.51,0.33 -0.77,0.5 -0.24,-5.34 -0.49,-10.68 -0.73,-16.03 -1.83,0.31 -3.67,0.62 -5.5,0.93 a 126,126 0 0 1 -1.04,-1.4 8645,8645 0 0 0 6.98,-1.39 z m -195.769998,0.86 2.83,0.09 v 0.95 a 789,789 0 0 0 -2.21,0.49 c -0.19,1.83 -0.37,3.67 -0.56,5.5 -0.16,1.67 -0.33,3.33 -0.49,5 h -0.43 a 2409,2409 0 0 1 -0.14,-8.5 52,52 0 0 0 -0.77,-0.5 33,33 0 0 0 -0.04,-1 3048,3048 0 0 0 1.81,-2.03 z m 10.83,2.14 c -1.64,-0.11 -3.27,-0.23 -4.91,-0.34 a 29,29 0 0 1 0.41,-0.58 c 1.33,-0.03 2.67,-0.05 4,-0.08 a 93,93 0 0 0 0.5,1 z m 13.16,-0.13 c 2.53,1.41 5.32,1.1 8.14,1.44 7.35,0.88 15.15,1.97 22.55,1.41 -0.12,0.37 -0.23,0.73 -0.35,1.1 a 88,88 0 0 1 -1.5,0.5 3850,3850 0 0 1 -10.72,-0.62 c -0.26,-0.34 -0.52,-0.69 -0.78,-1.03 a 708,708 0 0 1 -4.59,0.35 c -5.2,-0.48 -10.41,-0.96 -15.61,-1.44 a 51,51 0 0 1 0.2,-1.21 209,209 0 0 0 2.66,-0.5 z m 154.839998,0.04 v 0.87 c -6.33,0.67 -12.67,1.34 -19,2.01 v -0.88 c 6.33,-0.67 12.67,-1.33 19,-2 z m -38.83,3.14 c 2.8,-0.09 5.6,-0.19 8.4,-0.28 a 7005,7005 0 0 0 2.93,0.12 c 0.09,0.25 0.19,0.5 0.28,0.75 a 28244,28244 0 0 1 -29.78,1.51 c -1.83,-0.07 -3.67,-0.14 -5.5,-0.21 a 40,40 0 0 0 -0.5,0.68 c -16.67,-0.29 -33.329998,-0.57 -49.999998,-0.86 0.06,-0.31 0.11,-0.62 0.17,-0.93 21.939998,-0.02 43.889998,-0.05 65.829998,-0.07 2.5,0.04 5,0.09 7.5,0.13 a 49,49 0 0 1 0.67,-0.84 z m 56.03,13.84 c 0.27,0.17 0.53,0.33 0.8,0.5 0.07,2.83 0.15,5.67 0.22,8.5 -0.19,15.45 -0.38,30.89 -0.57,46.34 -0.55,1.05 -1.1,2.11 -1.65,3.16 -1.17,-0.22 -2.33,-0.44 -3.5,-0.66 a 195.043,195.043 0 0 1 -0.5,-1.34 c 1.28,-0.33 2.57,-0.67 3.85,-1 z m -195.869998,10.06 h 0.51 l 0.66,45.42 a 61916,61916 0 0 0 42.5,5.83 c -0.33,0.49 -0.67,0.98 -1,1.47 a 86254,86254 0 0 0 -16.01,-1.61 l -22.8,-3.3 -3.69,-0.96 a 82,82 0 0 0 -0.66,-0.97 c -0.03,-8.98 -0.05,-17.96 -0.08,-26.94 0,-0.33 0.01,-0.67 0.01,-1 a 10744,10744 0 0 1 0.56,-17.94 z m -2.64,32.94 0.12,6 a 100,100 0 0 0 -1.03,-0.5 c -0.01,-1.67 -0.01,-3.33 -0.02,-5 0.31,-0.17 0.62,-0.33 0.93,-0.5 z m -0.23,7 c 0.24,1.02 0.47,2.04 0.71,3.06 a 1177,1177 0 0 0 -0.13,5.94 c -0.32,-0.17 -0.64,-0.33 -0.96,-0.5 -0.1,-2.67 -0.2,-5.33 -0.3,-8 a 40,40 0 0 1 0.68,-0.5 z m 181.539998,8.08 a 302,302 0 0 1 1.11,1.85 56007,56007 0 0 0 -39.08,3.2 32,32 0 0 0 0.01,-0.97 c 12.66,-1.36 25.31,-2.72 37.96,-4.08 z m -128.999998,3.95 c 9.33,0.4 18.67,0.8 28,1.2 0.17,0.22 0.33,0.44 0.5,0.66 1.5,-0.05 3,-0.11 4.5,-0.16 10.329998,-0.11 20.669998,-0.23 30.999998,-0.34 0.17,0.21 0.33,0.42 0.5,0.63 a 835,835 0 0 0 5,-0.16 36,36 0 0 0 0.5,-0.64 c 5,-0.14 10,-0.29 15,-0.44 2.01,0.12 4.02,0.23 6.03,0.35 -4.19,2.09 -11.2,1.21 -16.06,1.53 -10.14,0.67 -20.32,0.53 -30.47,0.51 -6.79,-0.01 -13.809998,0.31 -20.499998,-0.83 l -7,-0.12 -10.97,-0.09 a 1269.73,1269.73 0 0 1 -6.03,-1.07 z m 66.999998,26.19 1,0.03 c 0.17,0.25 0.33,0.5 0.5,0.75 1.17,0.17 2.33,0.33 3.5,0.5 -1.33,0.22 -2.67,0.45 -4,0.67 -0.33,-0.11 -0.67,-0.22 -1,-0.33 z m -51.129998,1.84 a 45,45 0 0 0 -0.04,1.16 l -5.28,0.75 c -0.18,-0.27 -0.37,-0.54 -0.55,-0.81 a 1210,1210 0 0 0 5.87,-1.1 z m 77.179998,1.97 c 7.96,1.18 15.37,3.69 22.98,5.79 2.17,0.6 7.18,1.56 6.97,3.68 1.95,0.31 3.89,0.63 5.84,0.94 l 1.35,1.26 c 0,3.43 -0.01,6.87 -0.01,10.3 l -0.18,3 v 3.58 l 0.27,0.42 a 87,87 0 0 0 -0.97,0.5 c -3,0.85 -5.99,1.69 -8.99,2.54 -2.73,-0.19 -5.98,-0.43 -8.78,-0.01 -0.8,0.12 -2.01,1.02 -2.81,0.75 -1.08,-0.36 0.37,-0.24 -0.22,-0.78 -0.23,-3.68 3.58,-0.9 5.78,-2.22 1.71,-1.03 -0.73,0.11 0.72,-1.28 -2.34,-1.82 -4.25,-1.51 -7,-1 0,-2.37 -1.02,-7.75 0.22,-9.78 0.52,-0.86 2.02,-0.4 2.34,-1.22 0.23,-0.57 -0.72,-0.99 -1.06,-1.5 5.03,-2.52 3.43,-1.84 8.69,-2.5 -2.35,-5.43 -5.27,-3.5 -9.69,-2.5 -2.04,-2.04 -2.57,-2.99 0.91,-4.5 -2.32,-0.73 -5.02,-0.74 -7.24,-1.55 -1.4,-0.51 -2.6,-1.57 -4.17,-1.88 -1.34,-0.26 -3.07,0.32 -4.31,-0.29 -1.78,-0.87 0.5,-0.06 -1.19,-1.27 0.18,-0.16 0.37,-0.32 0.55,-0.48 z m -115.729998,6.91 a 803.46,803.46 0 0 0 2.18,4.06 c 1.33,-0.67 2.67,-1.33 4,-2 -1.73,1.65 -3.45,3.3 -5.18,4.95 -1.48,-0.26 -1.24,0.15 -1.82,2.05 -1.93,-0.56 -4.38,0.97 -7,1 -0.25,-1.86 0.34,-2.69 0.44,-4.5 0.03,-0.55 -0.69,-1.5 -0.53,-1.97 0.17,-0.51 1.63,-1.23 2.09,-1.53 1.25,1.33 0.63,1.45 1.5,3.5 5.32,0.72 4.11,-1.82 4.32,-5.56 z m -12.82,6.06 c -0.25,2.4 -1.72,2.55 -3,5 l -1.5,-1.5 c 1.5,-1.17 3,-2.33 4.5,-3.5 z m 153.999998,-0.26 c -4.18,4.72 -2.82,2.34 -0.5,6.76 -3.16,3.16 -4.44,2.43 -6.5,-1.5 -4.45,5.72 4.42,7.05 8.63,6.5 0.61,-4.82 2.7,-7.85 -1.63,-11.76 z m -141.569998,7.26 a 1831,1831 0 0 0 4.18,4.95 c -0.2,0.35 -0.41,0.7 -0.61,1.05 h -3 c -0.5,0.83 -1,1.67 -1.5,2.5 0.33,0.67 0.67,1.33 1,2 l -0.6,1.53 c -0.8,-0.08 -1.6,-0.17 -2.4,-0.25 -0.83,-0.59 -1.67,-1.19 -2.5,-1.78 a 4023,4023 0 0 0 -2.93,0.21 c -1.86,-0.24 -3.71,-0.47 -5.57,-0.71 a 704,704 0 0 0 -3.78,-2.06 v -0.23 c 0.09,-0.12 0.19,-0.24 0.28,-0.36 l -2.41,-2.35 c -0.12,0.12 -0.23,0.25 -0.35,0.37 0.05,-1.87 0.09,-3.75 0.14,-5.62 1.92,-1.04 1.49,-0.72 1.04,1.25 h 7.08 c -0.63,2.92 -1.75,3.17 -4,5 6.63,1.33 5.99,0.3 7,-5 2.53,-0.34 3.54,0.38 5.5,-1.5 a 1520,1520 0 0 1 3.43,1 z m -3.51,2 c -1.81,1.83 -3.61,3.67 -5.42,5.5 2.55,0.51 3.9,0.8 5.42,-1 z m 8.58,3.28 c 1.33,0.63 2.67,1.26 4,1.89 -0.17,0.28 -0.33,0.55 -0.5,0.83 -1.17,-0.17 -2.33,-0.33 -3.5,-0.5 z m -1.22,7.86 c -0.26,-0.07 -0.52,-0.15 -0.78,-0.22 0.17,-0.97 0.33,-1.95 0.5,-2.92 2,0.33 4,0.67 6,1 l 1.5,1.5 c -2.41,0.21 -4.81,0.43 -7.22,0.64 z m 132.429998,11.99 c -1.8,0.7 -2.32,0.79 -2.71,2.64 0.78,-0.28 1.55,-0.56 2.33,-0.84 4.06,-0.84 8.11,-1.69 12.17,-2.53 -2.33,1.7 -4.67,3.4 -7,5.1 0.58,0.23 1.16,0.45 1.74,0.68 a 1176,1176 0 0 0 -2.74,0.63 v -1.31 c -2.17,-0.29 -2.97,-0.02 -5,1 v 1.31 c -14.52,4.17 -34.87,5.5 -50,5.48 a 28033,28033 0 0 0 -28.999998,-0.01 c -11.89,-0.18 -23.73,-1.5 -35.5,-3.07 -4.76,-0.64 -10.36,-0.91 -14.67,-2.98 a 136.122,136.122 0 0 0 -0.83,-1.73 c -1.5,-0.11 -3,-0.23 -4.5,-0.34 -3.51,-3.18 -7.58,-3.78 -12,-5.14 l -0.93,-1.8 c 6.74,1.46 13.31,4.74 20.27,4.28 -5.84,-4.33 -11.69,-8.67 -17.53,-13 a 55209,55209 0 0 0 42.74,5.63 1635,1635 0 0 0 6.95,0.7 c 3.01,0.1 6.01,0.2 9.02,0.3 a 7505,7505 0 0 0 14.979998,0.7 c 4.33,-0.01 8.67,-0.01 13,-0.02 3.83,0.07 7.67,0.15 11.5,0.22 0.17,-0.27 0.33,-0.54 0.5,-0.81 4,-0.12 8,-0.25 12,-0.37 2.95,-0.26 5.91,-0.51 8.86,-0.77 14.28,-2.19 28.57,-4.39 42.85,-6.58 -3.78,5.9 -10.74,9.02 -16.5,12.63 z"
     fill="#532a0e"
     fill-rule="evenodd"
     stroke="#532a0e"
     stroke-linejoin="round"
     stroke-width="0.25"
     id="path5" />
  <path
     d="m 154.07378,48.995551 c 0.03,4 0.06,8 0.08,12 -0.22,-0.17 -0.45,-0.33 -0.67,-0.5 l -0.09,-11 a 40,40 0 0 1 0.68,-0.5 z m -85.429998,6 c 0.24,0.17 0.49,0.33 0.73,0.5 l -0.09,6 c -0.23,0.17 -0.46,0.33 -0.69,0.5 a 1633,1633 0 0 1 0.05,-7 z m 5.93,25.58 0.81,4.92 c -0.25,0.17 -0.49,0.33 -0.74,0.5 a 75838,75838 0 0 0 -0.07,-5.42 z m 19.8,64.719999 5,-0.15 a 280,280 0 0 0 -2,1.6 l -2.43,0.06 c -0.19,-0.5 -0.38,-1.01 -0.57,-1.51 z m 33.869998,-0.14 c 3.22,-0.23 5.33,-0.09 8.17,1.34 a 6812,6812 0 0 1 -14.47,-0.37 c 2.1,-0.32 4.2,-0.65 6.3,-0.97 z m -4.84,21.52 c 1.71,1.3 2.15,1.52 2.47,-0.77 a 750,750 0 0 1 -2.47,0.77 c -1.38,-2.35 0.86,-1.06 2.26,-1.97 0.36,-0.23 0.14,-0.89 0.43,-1.21 -1.41,-0.43 -2.81,-0.85 -4.22,-1.28 1.66,-2.06 2.82,-2.12 -0.52,-3.72 2.17,-0.4 4.35,-0.8 6.52,-1.2 0.31,1.71 0.69,10.71 -1.17,11.52 -1.72,0.74 -3.15,0.15 -4.83,-0.11 0.24,-1.7 0,-1.19 1.53,-2.03 z m 2.47,4.41 c 1.34,1.38 1.62,2.26 1.93,4.41 -2.59,1.9 -3.87,2.11 -6.12,-0.42 h 4.19 c -1.16,-1.98 -0.1,-1.86 0,-3.99 z m -2,9.74 c 1.54,0.77 2.05,0.85 3.94,0.67 -1.21,1.25 -2.36,1.85 -0.94,2.87 h -4.52 c 1.2,-1.83 1.76,-1.54 1.52,-3.54 z m -34.389998,2.17 c 0,2.38 -0.01,4.77 -0.01,7.16 0,-2.39 0.01,-4.78 0.01,-7.16 z m 38.089998,3.5 a 306,306 0 0 0 -0.35,3 c -2.28,0.33 -3.65,0.67 -5.38,-1 2.14,-1.46 3.26,-2.09 5.73,-2 z m 0.01,13.63 a 1109,1109 0 0 0 -0.71,2.78 1220,1220 0 0 0 -4.91,-2.78 z m -3.71,3.98 c 2.5,0.74 3.4,1.03 4.5,3.39 -2.65,0.09 -3.78,1.71 -6.55,1 0.13,-2.55 0.19,-2.88 2.05,-4.39 z m -57.669998,0.89 -0.66,9.12 c -0.01,-2.87 -0.03,-5.75 -0.04,-8.62 a 42,42 0 0 1 0.7,-0.5 z m 90.269998,0.91 c 0.24,1.72 0.47,3.45 0.71,5.17 h -0.75 a 891,891 0 0 0 0.04,-5.17 z m -20.87,4.09 a 59,59 0 0 0 0.82,0.5 l 0.09,10 c -0.3,0.17 -0.59,0.33 -0.89,0.5 -0.01,-3.67 -0.01,-7.33 -0.02,-11 z m -45.619998,13.03 a 26868,26868 0 0 0 28.389998,0.2 v 0.58 a 16142,16142 0 0 0 -21.999998,0.41 l -5.5,0.12 a 101,101 0 0 1 -0.89,-1.31 z m 66.499998,9.92 h 0.71 a 16008,16008 0 0 0 -0.71,6.95 z m -151.3099978,163.05 c 0,4 -0.01,8 -0.01,12 a 37,37 0 0 0 -0.65,-0.5 4033,4033 0 0 1 -0.01,-11 c 0.22,-0.17 0.45,-0.33 0.67,-0.5 z m 4.32,17 0.03,5 z m 208.1499978,18 c 0.27,0.17 0.54,0.33 0.81,0.5 a 534,534 0 0 0 -0.11,4 c -0.25,0.17 -0.5,0.33 -0.75,0.5 0.02,-1.67 0.03,-3.33 0.05,-5 z m -211.5299978,37 c 0.01,1.67 0.03,3.33 0.04,5 a 42,42 0 0 0 -0.7,-0.5 c -0.02,-1.33 -0.05,-2.67 -0.07,-4 a 46,46 0 0 1 0.73,-0.5 z m 210.5299978,20 c 0.26,0.17 0.53,0.33 0.79,0.5 -0.03,1.33 -0.07,2.67 -0.1,4 a 47,47 0 0 1 -0.74,0.5 833,833 0 0 1 0.05,-5 z m -215.0599978,17 c 0.23,0.17 0.46,0.33 0.69,0.5 l 0.12,4 c -0.25,0.17 -0.5,0.33 -0.75,0.5 z m 9.8799998,16 a 833,833 0 0 1 0.05,5 833,833 0 0 0 -0.05,-5 z m 209.719998,11 a 834,834 0 0 1 -0.08,5 c -0.26,-0.17 -0.51,-0.33 -0.77,-0.5 0.07,-1.33 0.13,-2.67 0.2,-4 a 37,37 0 0 1 0.65,-0.5 z m -195.779998,8.12 c 1.66,0.07 3.31,0.13 4.97,0.2 -0.17,0.26 -0.33,0.51 -0.5,0.77 a 714,714 0 0 1 -4.47,-0.97 z m 50.97,2.05 c 4,0.05 8,0.09 12,0.14 a 50,50 0 0 0 -0.5,0.76 c -3.67,-0.08 -7.33,-0.16 -11,-0.24 -0.17,-0.22 -0.33,-0.44 -0.5,-0.66 z m 61.999998,0.1 a 4674,4674 0 0 1 11.84,-0.14 4329,4329 0 0 0 -11.34,0.92 c -0.17,-0.26 -0.33,-0.52 -0.5,-0.78 z m 28,1.44 c -4,0.06 -8.01,0.12 -12.01,0.18 a 4874,4874 0 0 0 11.51,-0.97 54,54 0 0 1 0.5,0.79 z m -89.299998,26.48 a 1323,1323 0 0 1 6.32,-0.04 40,40 0 0 0 -0.52,0.68 c -1.93,-0.21 -3.87,-0.43 -5.8,-0.64 z m -74.4799998,5.81 a 47,47 0 0 0 0.74,0.5 c 0.03,2.33 0.07,4.67 0.1,7 -0.26,0.17 -0.53,0.33 -0.79,0.5 a 2133,2133 0 0 1 -0.05,-8 z m 140.7599978,8.04 a 77,77 0 0 1 0.89,0.95 c -1.31,1.63 -2.62,3.27 -3.93,4.9 l -0.9,-2.01 c 1.31,-1.28 2.63,-2.56 3.94,-3.84 z m -19.85,9.2 c 0.53,-0.19 1.06,-0.37 1.59,-0.56 -1.24,1.77 -2.47,3.54 -3.71,5.31 -0.09,-0.36 -0.19,-0.72 -0.28,-1.08 0.8,-1.22 1.6,-2.45 2.4,-3.67 z m -15.39,1.76 c 0.49,0.08 0.98,0.15 1.47,0.23 0.31,0.07 0.63,0.14 0.94,0.21 l -1.89,2.7 -1.2,-2.64 a 40,40 0 0 1 0.68,-0.5 z m 112.05,0 c -0.02,1.67 -0.03,3.33 -0.05,5 a 50,50 0 0 0 -0.76,-0.5 534,534 0 0 0 0.11,-4 42,42 0 0 0 0.7,-0.5 z m -133.779998,0.99 a 53,53 0 0 1 1.04,0.26 961,961 0 0 0 -2.92,3.78 147,147 0 0 1 -1.22,-1.32 402,402 0 0 1 3.1,-2.72 z m 82.969998,0.31 1.68,-0.66 -2.46,4.47 a 346,346 0 0 1 -0.89,-2.24 124,124 0 0 1 1.67,-1.57 z m 43.29,6.7 c 0.25,0.17 0.5,0.33 0.75,0.5 a 1201,1201 0 0 0 -0.11,6 42,42 0 0 0 -0.7,0.5 z m -73.43,15.9 0.45,3.6 c 0.2,0.17 0.4,0.33 0.6,0.5 -0.13,0.5 -0.26,0.99 -0.39,1.49 a 3435,3435 0 0 0 -1.01,0.01 990,990 0 0 1 0.35,-5.6 z m 14.18,1.13 c -0.09,1.66 -0.19,3.31 -0.28,4.97 a 47,47 0 0 0 -0.74,-0.5 c 0.01,-1.33 0.03,-2.67 0.04,-4 a 91,91 0 0 1 0.98,-0.47 z m -149.7999978,12.97 c 0.24,0.17 0.47,0.33 0.71,0.5 l 0.09,5 a 50,50 0 0 1 -0.76,0.5 c -0.01,-2 -0.03,-4 -0.04,-6 z m 7.5199998,27 c 0.02,1.67 0.03,3.33 0.05,5 -0.24,-0.17 -0.47,-0.33 -0.71,-0.5 l -0.09,-4 c 0.25,-0.17 0.5,-0.33 0.75,-0.5 z m 79.26,16.15 a 8534,8534 0 0 1 15.999998,0.13 77,77 0 0 0 -0.5,0.92 c -5,-0.1 -9.999998,-0.19 -14.999998,-0.29 -0.17,-0.25 -0.33,-0.51 -0.5,-0.76 z m 22.999998,0.11 c 7.34,-0.05 14.68,-0.11 22.03,-0.16 v 0.56 c -7.35,0.06 -14.69,0.12 -22.03,0.18 z m 100.32,7.74 c 0.28,0.17 0.55,0.33 0.83,0.5 l -0.09,10 c -0.24,0.17 -0.48,0.33 -0.72,0.5 l -0.48,-0.9 a 3411,3411 0 0 0 0.46,-10.1 z m -165.539998,56.69 v -11.19 c 3.17,-0.09 3,8.65 2.1,9.86 -0.5,0.66 -1.49,0.76 -2.1,1.33 z m 5.72,-10.87 c 2.88,3.48 -0.23,6.76 3.71,6.68 -0.9,1.24 -1.81,2.47 -2.71,3.71 -0.81,-1.9 -1.63,-3.81 -2.44,-5.71 0.67,-1.65 0.01,-3.48 0.21,-4.03 0.34,-0.93 0.57,0.11 1.23,-0.65 z m 18.34,4.5 c -0.25,0.86 -0.49,1.71 -0.74,2.57 a 382,382 0 0 0 -1.6,-0.39 c 0.36,-2.65 0.62,-4.13 2,-6.3 a 572,572 0 0 0 0.34,4.12 z m 76.119998,1.88 c -0.46,-0.45 -0.93,-0.89 -1.39,-1.34 1.47,-3.9 2.61,-4.01 6.66,-3.36 -3.59,0.76 -6.28,0.42 -3.61,4 -0.55,0.23 -1.11,0.47 -1.66,0.7 z m 6.54,-5.36 c 0.34,0.37 1.1,0.23 1.35,0.67 1.23,2.2 -0.74,7.71 -1.12,9.99 -2.75,-1.73 0.36,-7.58 -0.23,-10.66 z m -89.659998,4.35 v 7.04 c -3.95,-1.96 -3.43,-4.5 0,-7.04 z m 38.159998,0.27 a 5,5 0 0 0 0.01,0.38 c -0.6,0.89 -1.2,1.77 -1.8,2.66 0.11,1.33 0.22,2.67 0.33,4 -4.549998,0.11 -1.33,-6.09 1.46,-7.04 z m 12.78,-0.18 c 2.69,1.93 1.83,4.08 0.72,7.33 l -0.72,-1.11 z m 12.19,0.62 c -0.82,2.08 -1.65,4.17 -2.47,6.25 a 2897,2897 0 0 1 -2,-5.21 c -1.69,1.85 -1.44,3.13 -2.5,5.56 -1.48,-1.74 -0.79,-4.32 -0.5,-6.6 z m 5.53,-0.39 c -0.71,4.58 -4.57,2.68 -2,7.55 -6.22,-1.56 -2.29,-8 2,-7.55 z m 27.23,3.49 c -0.74,0.48 -1.49,0.95 -2.23,1.43 a 135.135,135.135 0 0 0 -1.5,-1.04 c 0.6,-2.62 1.43,-3.44 3.5,-5.19 a 771,771 0 0 1 0.23,4.8 z m 13.25,-4.05 a 140,140 0 0 0 0.83,1.27 140,140 0 0 1 -0.83,-1.27 z m -61.48,2.05 c 0.34,2.48 0.17,3.75 -1,6.05 -0.71,-2.66 -0.72,-3.81 1,-6.05 z m 63.77,-0.3 c 0.2,0.8 0.4,1.59 0.6,2.39 -1.36,-1.71 -0.64,-0.33 -0.6,-2.39 z m -91.199998,1.07 c 0.39,1.24 0.78,2.49 1.17,3.73 -0.58,0.44 -1.16,0.87 -1.74,1.31 -0.46,-0.44 -0.93,-0.87 -1.39,-1.31 a 669,669 0 0 1 1.96,-3.73 z m 19.779998,-0.23 c 0.31,0.06 0.63,0.11 0.94,0.17 l -1.29,5.31 c -0.52,-2.64 -0.98,-2.94 0.35,-5.48 z m 59.93,0.3 a 145,145 0 0 0 -0.71,2.23 145,145 0 0 1 0.71,-2.23 z m -0.71,2.23 a 18,18 0 0 0 0.07,0.72 18,18 0 0 1 -0.07,-0.72 z m 11.02,-0.07 c 0.32,0.11 0.65,0.21 0.97,0.32 -0.32,-0.11 -0.65,-0.21 -0.97,-0.32 z m -169.8799978,6 c 0.25,0.17 0.5,0.33 0.75,0.5 l 0.09,7 c -0.26,0.17 -0.52,0.33 -0.78,0.5 z m 95.7899978,15.5 c -2.669998,2.22 -2.079998,3.13 -0.7,6 -6.449998,-1.14 -4.199998,-6.42 0.7,-6 z m 19.21,1 0.15,3 a 1938,1938 0 0 0 -4.67,2.7 v -6.7 c 2.03,-0.62 2.46,0.1 4.52,1 z m 4.29,5.82 c -1.64,-1.78 -0.29,1.18 -1.51,-0.92 -0.83,-1.42 -0.23,-4.18 -0.91,-5.9 4.6,-0.76 2.8,3.36 2.42,6.82 z m -5,4.73 c 1,0.01 2,0.01 3,0.02 a 2584,2584 0 0 0 0.54,3.43 h -3.98 c 0.15,-1.15 0.29,-2.3 0.44,-3.45 z m 5,0.37 c 2.89,1.28 2.47,2.98 2,6.12 -0.67,-2.04 -1.33,-4.08 -2,-6.12 z m -23.83,0.46 c 0.3,0.36 0.95,0.36 1.16,0.78 0.34,0.65 0.78,5.06 0.19,5.55 -0.37,0.3 -1.08,0.11 -1.35,0.5 z m 3.57,-0.11 c 1.54,3.23 1.43,3.56 0,6.81 z m 26.95,6.01 v -4.28 c 2.75,0.87 1.17,2.61 0,4.28 z m -74.189998,10.53 6,0.72 v 1.03 c -2.33,-0.09 -4.67,-0.19 -7,-0.28 0.33,-0.49 0.67,-0.98 1,-1.47 z m 154.209998,15.69 h 0.67 c 0.08,4.17 0.15,8.33 0.23,12.5 a 56,56 0 0 1 -0.8,0.5 c -0.03,-4.33 -0.07,-8.67 -0.1,-13 z m -204.9999978,3 c 0.25,0.17 0.49,0.33 0.74,0.5 0.03,1.33 0.07,2.67 0.1,4 -0.26,0.17 -0.52,0.33 -0.78,0.5 z m 4.9299998,11 h 0.7 c -0.01,5.67 -0.01,11.33 -0.02,17 -0.25,-0.17 -0.49,-0.33 -0.74,-0.5 z m 200.149998,1 c 0.27,0.17 0.53,0.33 0.8,0.5 a 7503,7503 0 0 0 -0.23,15 c -0.23,0.17 -0.46,0.33 -0.69,0.5 z m -16.29,15 a 536,536 0 0 0 0.5,-1.94 c 2.5,1.21 4.96,2.36 6,4.94 -2.17,-1 -4.33,-2 -6.5,-3 z"
     fill="#5b595a"
     fill-rule="evenodd"
     stroke="#5b595a"
     stroke-linejoin="round"
     stroke-width="0.25"
     id="path6" />
  <path
     d="m 71.103782,21.995551 a 4033,4033 0 0 0 -0.05,11 44,44 0 0 0 -0.71,-0.5 l 0.06,-10 c 0.23,-0.17 0.47,-0.33 0.7,-0.5 z M 109.46378,155.30555 c 0.27,0.49 0.92,0.67 1.25,1.12 0.73,0.96 0.92,10.88 0.32,12.04 -0.34,0.65 -1.15,0.93 -1.57,1.53 z m -6.98,6.28 -3.109998,-0.09 c -0.39,0.47 -0.78,0.95 -1.17,1.42 -1.47,-1.68 -1.49,-2.67 -1.33,-4.97 a 614,614 0 0 1 2,2.66 c 1.02,-1.05 -0.26,-1.16 1.06,-1.9 0.909998,-0.5 1.309998,1.07 1.939998,0.8 0.76,-0.32 0.47,-1.21 1,-1.71 -0.13,1.26 -0.26,2.53 -0.39,3.79 z m 20.92,5.09 a 750,750 0 0 1 2.47,-0.77 c -0.32,2.29 -0.76,2.07 -2.47,0.77 z m -25.029998,11.17 a 80,80 0 0 1 0.58,-1.37 c 0.47,0.01 0.95,0.01 1.419998,0.02 0.5,-0.62 1,-1.25 1.5,-1.87 0.49,3.32 -0.05,3.59 -3.499998,3.22 z m 3.649998,6.67 h -5.749998 z m 25.37,6.48 v 6.3 c -1.85,-0.93 -3.7,-1.87 -5.55,-2.8 1.5,-2.94 2.69,-2.21 5.55,-3.5 z m -49.019998,3.3 c -0.17,0.2 -0.33,0.41 -0.5,0.61 a 1412,1412 0 0 1 -6.5,-0.26 37,37 0 0 0 0.5,-0.65 c 2.17,0.1 4.33,0.2 6.5,0.3 z m 77.069998,2.95 a 13216,13216 0 0 1 0.81,6.8 h -0.54 c -0.21,-1.68 -0.43,-3.37 -0.64,-5.05 a 109,109 0 0 1 0.37,-1.75 z m -65.819998,0.75 c 0.2,0.17 0.4,0.33 0.6,0.5 a 533,533 0 0 0 -0.05,4 c -0.19,0.17 -0.38,0.33 -0.57,0.5 a 833,833 0 0 1 0.02,-5 z m 66.809998,13.08 h 0.75 v 5.92 c -0.22,-0.17 -0.44,-0.33 -0.66,-0.5 l -0.42,-4.5 c 0.11,-0.31 0.22,-0.61 0.33,-0.92 z m 0.16,16.92 h 0.53 a 817,817 0 0 0 0.07,4.95 h -0.71 l -0.3,-2.97 c 0.14,-0.66 0.27,-1.32 0.41,-1.98 z m -145.729998,262 a 683,683 0 0 1 0.4,4.5 36,36 0 0 1 -0.64,0.5 c -0.13,-1.5 -0.25,-3 -0.38,-4.5 z m -8.8099998,37 0.06,7 c -0.23,-0.17 -0.46,-0.33 -0.69,-0.5 l -0.09,-6 c 0.24,-0.17 0.48,-0.33 0.72,-0.5 z m 119.3199978,15.67 c -4,0.01 -8,0.01 -12,0.01 0.17,-0.24 0.33,-0.47 0.5,-0.71 h 11 c 0.17,0.23 0.33,0.47 0.5,0.7 z m -111.7299978,23.33 c 0.24,0.17 0.4799998,0.33 0.7199998,0.5 a 533,533 0 0 0 0.04,4 c -0.24,0.17 -0.4699998,0.33 -0.7099998,0.5 -0.02,-1.67 -0.03,-3.33 -0.05,-5 z m 106.6599978,54.1 a 27,27 0 0 1 0.56,0.4 c -0.09,2.5 -0.19,5 -0.29,7.5 -0.09,-2.63 -0.18,-5.27 -0.27,-7.9 z m -2.23,23 c 3.1,0.05 6.2,0.11 9.3,0.16 -0.17,0.25 -0.33,0.5 -0.5,0.75 l -8,0.03 c -0.27,-0.31 -0.53,-0.63 -0.8,-0.94 z m 98.04,14.9 c -0.02,1.67 -0.03,3.33 -0.05,5 -0.24,-0.17 -0.48,-0.33 -0.72,-0.5 l 0.06,-4 c 0.24,-0.17 0.47,-0.33 0.71,-0.5 z m -161.829998,57.13 a 708,708 0 0 0 4.59,-0.35 c 0.26,0.34 0.52,0.69 0.78,1.03 a 984,984 0 0 1 -5.37,-0.68 z m -36.68,1.87 a 16240,16240 0 0 1 0.61,22.06 h -0.51 c -0.15,-1.69 -0.3,-3.37 -0.45,-5.06 -0.06,-1.33 -0.11,-2.67 -0.17,-4 l 0.03,-8 c 0.16,-1.67 0.33,-3.33 0.49,-5 z m 121.769998,0.26 c -0.17,0.23 -0.33,0.46 -0.5,0.69 a 1011,1011 0 0 0 -5.5,-0.22 40,40 0 0 0 0.5,-0.68 c 1.83,0.07 3.67,0.14 5.5,0.21 z m 41.27,19.44 c -0.04,2.06 -0.76,0.68 0.6,2.39 l -0.81,1.23 c -0.32,-0.11 -0.65,-0.21 -0.97,-0.32 a 480,480 0 0 0 -0.28,-3.78 140,140 0 0 1 -0.83,-1.27 c -0.33,-0.15 -0.65,-0.3 -0.98,-0.45 0.34,-0.08 0.39,-0.6 0.69,-0.78 2.17,-1.37 2.48,2.2 2.58,2.98 z m -104.429998,-2.38 c 0.87,0.39 1.74,0.79 2.61,1.18 -0.32,2.5 -0.63,5 -0.95,7.5 -1.38,-2.12 -1.64,-2.83 -1.69,-5.5 -0.24,-0.2 -0.47,-0.41 -0.71,-0.61 0.25,-0.86 0.49,-1.71 0.74,-2.57 z m 42.249998,30.18 a 1346,1346 0 0 1 -3.59,4.23 c -1.11,-2.84 -1.4,-5.52 -0.37,-8.23 1.32,1.33 2.64,2.67 3.96,4 z m 85.91,21.42 c -0.33,0.28 -0.67,0.56 -1,0.84 0.33,-0.28 0.67,-0.56 1,-0.84 z m -45.96,5.24 a 32,32 0 0 1 -0.01,0.97 c -2.01,-0.12 -4.02,-0.23 -6.03,-0.35 0.17,-0.22 0.33,-0.44 0.5,-0.66 1.85,0.01 3.7,0.03 5.54,0.04 z m -63.039998,1.07 c 1.5,-0.06 3,-0.13 4.5,-0.19 0.17,0.23 0.33,0.46 0.5,0.69 -1.5,0.05 -3,0.11 -4.5,0.16 -0.17,-0.22 -0.33,-0.44 -0.5,-0.66 z m 35.999998,0.16 c 2,-0.05 4,-0.11 6,-0.17 a 36,36 0 0 1 -0.5,0.64 835,835 0 0 1 -5,0.16 c -0.17,-0.21 -0.33,-0.42 -0.5,-0.63 z m 84.74,5.61 a 2134,2134 0 0 0 0.14,8 h -0.67 c -0.07,-2.5 -0.15,-5 -0.22,-7.5 0.25,-0.17 0.5,-0.33 0.75,-0.5 z m -200.579998,5 c 0.23,0.17 0.46,0.33 0.69,0.5 a 535,535 0 0 1 0.16,4 c -0.26,0.17 -0.53,0.33 -0.79,0.5 z m 0.06,6 a 59,59 0 0 1 0.82,0.5 c -0.06,3.5 -0.13,7 -0.2,10.5 h -0.7 a 4034,4034 0 0 1 0.08,-11 z m 205.089998,18 c 0.24,0.17 0.48,0.33 0.72,0.5 -0.02,1.33 -0.03,2.67 -0.05,4 a 44,44 0 0 1 -0.71,0.5 833,833 0 0 1 0.04,-5 z m -23.12,5.7 c 0.27,0.93 0.54,1.87 0.81,2.8 0.33,0.17 0.67,0.33 1,0.5 -0.33,0.5 -0.67,1 -1,1.5 0.33,0.67 0.67,1.33 1,2 -0.33,1 -0.67,2 -1,3 -0.27,0.17 -0.55,0.33 -0.82,0.5 0,-3.43 0.01,-6.87 0.01,-10.3 z m 3.87,17.34 c -0.85,0.42 -1.71,0.84 -2.56,1.26 a 264.146,264.146 0 0 1 -1.5,-1.72 v -3.58 c 0.83,-0.33 1.67,-0.67 2.5,-1 1.87,1.8 3.21,2.01 5.8,2.5 a 1585,1585 0 0 1 -4.24,2.54 z m -101.059998,28.24 a 28033,28033 0 0 1 28.999998,0.01 c -4.8,2.11 -14.94,0.84 -20.5,0.8 -2.87,-0.02 -5.959998,0.34 -8.499998,-0.81 z"
     fill="#a19997"
     fill-rule="evenodd"
     stroke="#a19997"
     stroke-linejoin="round"
     stroke-width="0.25"
     id="path7" />
</svg>
